<svg width="32" height="32" viewBox="0 0 32 32" fill="none" xmlns="http://www.w3.org/2000/svg">
<path d="M16 17C17.6569 17 19 15.6569 19 14C19 12.3431 17.6569 11 16 11C14.3431 11 13 12.3431 13 14C13 15.6569 14.3431 17 16 17Z" fill="#FF3D01"/>
<path d="M1.40904 17.182C1.14533 16.8437 1.00146 16.4273 1.00001 15.9984C0.998563 15.5694 1.13962 15.1521 1.40104 14.812C3.42204 12.162 8.88604 6 16 6C23.02 6 28.536 12.158 30.585 14.81C30.8499 15.1501 30.9937 15.5689 30.9937 16C30.9937 16.4311 30.8499 16.8499 30.585 17.19C28.536 19.842 23.02 26 16 26C8.98004 26 3.45304 19.828 1.40904 17.182Z" stroke="#FF3D01" stroke-width="2" stroke-miterlimit="10" stroke-linecap="square"/>
<path d="M16 22C20.4183 22 24 18.4183 24 14C24 9.58172 20.4183 6 16 6C11.5817 6 8 9.58172 8 14C8 18.4183 11.5817 22 16 22Z" stroke="#FF3D01" stroke-width="2" stroke-miterlimit="10" stroke-linecap="square"/>
<path d="M16 17C17.6569 17 19 15.6569 19 14C19 12.3431 17.6569 11 16 11C14.3431 11 13 12.3431 13 14C13 15.6569 14.3431 17 16 17Z" stroke="#FF3D01" stroke-width="2" stroke-miterlimit="10" stroke-linecap="square"/>
</svg>
