<svg width="18" height="22" viewBox="0 0 18 22" fill="none" xmlns="http://www.w3.org/2000/svg">
<path d="M8.85331 5.35054C11.7245 5.35054 14.3564 3.75621 15.7654 1.21609L16.1376 0.540527H1.56906L1.94125 1.21609C3.32366 3.75621 5.98214 5.35054 8.85331 5.35054Z" fill="#FF3D00"/>
<path d="M16.3497 17.7837C15.9775 16.6756 15.3394 15.6486 14.5153 14.7837C15.9775 13.2702 16.8016 11.2432 16.8016 9.13509C16.8016 7.70266 16.4294 6.29726 15.7116 5.08104L15.4458 4.62158L15.047 4.94591C14.09 5.75672 13 6.35131 11.8302 6.72969L11.272 6.91888L11.5644 7.40536C11.8834 7.91888 12.0429 8.51347 12.0429 9.10807C12.0429 10.8918 10.6073 12.3243 8.87933 12.3243C7.15132 12.3243 5.71574 10.8648 5.71574 9.10807C5.71574 8.51347 5.87525 7.91888 6.19426 7.40536L6.51328 6.91888L5.955 6.72969C4.78527 6.35131 3.69529 5.75672 2.73824 4.94591L2.33947 4.62158L2.07362 5.08104C1.35583 6.32428 0.983639 7.70266 0.983639 9.13509C0.983639 11.2432 1.80777 13.2702 3.26993 14.7837C2.4458 15.6216 1.80777 16.6486 1.43558 17.7567H0V21.6216H5.87525L5.76891 21.081C5.71574 20.8648 5.68915 20.6486 5.68915 20.4324C5.68915 18.6486 7.12473 17.2162 8.85275 17.2162C9.70346 17.2162 10.501 17.5405 11.0859 18.1621C11.6973 18.7837 12.0163 19.5946 12.0163 20.4324C12.0163 20.6486 11.9898 20.8648 11.9366 21.081L11.8302 21.6216H17.6523V17.7837H16.3497Z" fill="#FF3D00"/>
</svg>
