<svg width="117" height="24" viewBox="0 0 117 24" fill="none" xmlns="http://www.w3.org/2000/svg">
<path d="M33.9489 21.9459C32.9919 23.4324 30.7056 23.973 29.5624 23.973C25.7076 23.973 21.8794 20.9189 21.8794 16C21.8794 11.0811 25.7342 8.02703 29.5624 8.02703C30.5195 8.02703 32.8058 8.35135 33.9489 10.0541V8.35135H38.4152V23.6757H33.9489V21.9459ZM30.2802 19.6486C32.1146 19.6486 33.9223 18.2973 33.9223 16C33.9223 13.7027 32.1146 12.3514 30.2802 12.3514C28.4193 12.3514 26.5052 13.7838 26.5052 16C26.5052 18.1892 28.4193 19.6486 30.2802 19.6486ZM45.2209 23.6757H40.728V8.35135H45.2209V10.5946C46.0184 9.05405 47.7996 8.02703 49.5808 8.02703C52.9837 8.02703 55.1104 10.1622 55.1104 14.5405V23.7027C54.3661 23.7027 51.3354 23.7027 50.6176 23.7027V15.5135C50.6176 13.4865 49.5276 12.4595 48.0123 12.4595C46.4172 12.4595 45.2209 13.2432 45.2209 15.5676V23.6757ZM66.8343 8.35135V11.973H63.6708V23.7027H59.2045V11.9459H56.4663V8.35135H59.2045V2.45946H63.6708V8.35135H66.8343ZM82.2801 20.8919C80.7648 23.1892 77.9468 24 75.3947 24C71.0613 24 67.499 20.7838 67.499 15.9459C67.499 11.1081 71.0613 8 75.3947 8C79.7014 8 83.1043 11.2432 83.1043 16.0811C83.1043 16.4865 83.0777 17.1081 83.0511 17.4865H71.9918C72.2311 19.2703 74.1186 20.0541 75.7137 20.0541C76.9366 20.0541 78.2658 19.5946 79.0102 18.6216L82.2801 20.8919ZM78.5849 14.6486C78.3456 12.7838 76.6707 12.027 75.4213 12.027C74.1718 12.027 72.4438 12.7297 72.0716 14.6486H78.5849ZM89.2188 23.6757H84.7259V8.35135H89.2188V12.0541C89.9897 9.18919 91.9304 8.02703 93.4724 8.02703C94.5357 8.02703 95.3333 8.21622 96.0511 8.59459L95.2535 12.7027C94.456 12.2973 93.6585 12.2432 92.9673 12.2432C90.3885 12.2432 89.2188 14.3243 89.2188 18.3514V23.6757ZM100.119 0C101.634 0 102.857 1.16216 102.857 2.64865C102.857 4.13514 101.634 5.35135 100.119 5.35135C98.6032 5.35135 97.3006 4.16216 97.3006 2.64865C97.3006 1.13514 98.6032 0 100.119 0ZM102.352 23.6757H97.8854V8.35135H102.352V23.6757ZM108.998 17.3784C104.478 16.1351 104.452 13.8108 104.478 12.3784C104.505 10.1081 107.19 8 110.354 8C113.358 8 116.521 9.35135 116.548 13.0811H112.321C112.294 11.9189 111.311 11.7297 110.62 11.7297C109.663 11.7297 108.998 12.1892 109.024 12.8919C109.051 13.3514 109.45 13.8108 110.354 14.0541L112.906 14.7568C116.548 15.7838 117 18.2432 117 19.2162C117 22.4595 113.65 24 110.487 24C107.429 24 104.213 22.1351 104.186 18.7027H108.386C108.413 19.5946 109.397 20.4865 110.62 20.4865C111.63 20.4595 112.454 20 112.454 19.2162C112.454 18.5676 112.055 18.1892 110.965 17.8919L108.998 17.3784Z" fill="white"/>
<path d="M8.85331 7.35054C11.7245 7.35054 14.3564 5.75621 15.7654 3.21609L16.1375 2.54053H1.56906L1.94125 3.21609C3.32366 5.75621 5.98214 7.35054 8.85331 7.35054Z" fill="#FF3D00"/>
<path d="M16.3497 19.7837C15.9775 18.6756 15.3394 17.6486 14.5153 16.7837C15.9775 15.2702 16.8016 13.2432 16.8016 11.1351C16.8016 9.70266 16.4294 8.29726 15.7116 7.08104L15.4458 6.62158L15.047 6.94591C14.09 7.75672 13 8.35131 11.8302 8.72969L11.272 8.91888L11.5644 9.40536C11.8834 9.91888 12.0429 10.5135 12.0429 11.1081C12.0429 12.8918 10.6073 14.3243 8.87933 14.3243C7.15132 14.3243 5.71574 12.8648 5.71574 11.1081C5.71574 10.5135 5.87525 9.91888 6.19426 9.40536L6.51328 8.91888L5.955 8.72969C4.78527 8.35131 3.69529 7.75672 2.73824 6.94591L2.33947 6.62158L2.07362 7.08104C1.35583 8.32428 0.983639 9.70266 0.983639 11.1351C0.983639 13.2432 1.80777 15.2702 3.26993 16.7837C2.4458 17.6216 1.80777 18.6486 1.43558 19.7567H0V23.6216H5.87525L5.76891 23.081C5.71574 22.8648 5.68915 22.6486 5.68915 22.4324C5.68915 20.6486 7.12473 19.2162 8.85275 19.2162C9.70346 19.2162 10.501 19.5405 11.0859 20.1621C11.6973 20.7837 12.0163 21.5946 12.0163 22.4324C12.0163 22.6486 11.9898 22.8648 11.9366 23.081L11.8302 23.6216H17.6523V19.7837H16.3497Z" fill="#FF3D00"/>
</svg>
