<svg width="120" height="27" viewBox="0 0 120 27" fill="none" xmlns="http://www.w3.org/2000/svg">
<path d="M0 6.78796V12.7656H6.09375H12.1875V6.78796V0.810303H6.09375H0V6.78796Z" fill="white" fill-opacity="0.2"/>
<path d="M13.4719 0.874678C13.4344 0.902267 13.4062 3.59681 13.4062 6.85234V12.7656H19.5H25.5938V6.78796V0.810303H19.5656C16.2469 0.810303 13.5 0.837893 13.4719 0.874678Z" fill="white" fill-opacity="0.2"/>
<path d="M111.281 4.85745C110.297 5.06897 109.256 5.78629 108.816 6.57719C108.431 7.27612 108.281 7.99344 108.281 9.10621V10.0902L107.372 10.1178L106.453 10.1454L106.425 11.1754L106.397 12.2146H107.344H108.281V16.5829V20.9512H109.594H110.906V16.5829V12.2146H112.828H114.75V14.9919C114.759 18.3119 114.825 18.9372 115.237 19.7557C115.584 20.4178 116.128 20.8593 116.841 21.0524C117.441 21.2087 118.744 21.1812 119.419 20.9972L120 20.8317V19.8017V18.7717L119.466 18.9464C118.603 19.2315 117.928 19.0568 117.591 18.4406C117.441 18.1831 117.422 17.8061 117.394 15.1759L117.366 12.2146H118.678H120V11.157V10.0994H118.687H117.375V8.52684V6.95424L117.122 7.01862C116.972 7.04621 116.381 7.22094 115.809 7.39567L114.75 7.71755V8.93148V10.1454L112.819 10.1178L110.887 10.0902L110.916 9.01425C110.953 7.8371 111.075 7.49683 111.581 7.12898C111.928 6.88067 112.734 6.8163 113.287 7.00023L113.719 7.14737V6.05299C113.719 5.12415 113.7 4.95861 113.559 4.91263C113.278 4.80227 111.712 4.77468 111.281 4.85745Z" fill="white" fill-opacity="0.2"/>
<path d="M52.9125 5.76788C52.425 6.06218 52.1906 6.46684 52.1906 7.02784C52.1906 7.92912 52.8844 8.50852 53.8875 8.42575C54.7406 8.35217 55.2656 7.81876 55.2656 7.01864C55.2656 6.46684 55.0781 6.14495 54.5625 5.79547C54.1594 5.52876 53.3344 5.51037 52.9125 5.76788Z" fill="white" fill-opacity="0.2"/>
<path d="M33.2812 13.4089V20.9498H34.5469H35.8125L35.7937 15.1561C35.775 11.965 35.7937 9.3625 35.8219 9.3625C35.85 9.3625 36.9375 11.9742 38.25 15.1561L40.6312 20.959L41.5687 20.9314L42.5062 20.9038L44.8219 15.1745C46.0969 12.0202 47.1656 9.41768 47.1937 9.39009C47.2219 9.3533 47.25 11.9466 47.25 15.1378V20.9498H48.5625H49.875V13.4089V5.86792H48.0656H46.2562L44.1094 11.0362C42.9281 13.8871 41.8781 16.3976 41.7844 16.6183L41.5969 17.0322L40.7812 15.009C40.3312 13.9055 39.3187 11.3949 38.5312 9.42687L37.0969 5.86792H35.1844H33.2812V13.4089Z" fill="white" fill-opacity="0.2"/>
<path d="M61.1249 10.0523C59.2218 10.4753 57.7312 11.8088 57.0937 13.6849C56.8031 14.5126 56.7281 16.3243 56.9437 17.2163C57.2812 18.605 58.3031 19.9477 59.4843 20.5546C60.9468 21.2996 63.1312 21.3731 64.7531 20.7478L65.2968 20.5362L65.3437 19.3591C65.3718 18.7153 65.3812 18.1911 65.3718 18.1911C65.3624 18.1911 65.0812 18.3383 64.7437 18.513C63.1781 19.3683 61.4249 19.2212 60.4031 18.1636C59.6343 17.3727 59.3343 16.2323 59.5312 14.8896C59.7187 13.6113 60.4687 12.6181 61.5562 12.2226C62.5781 11.8456 64.0312 12.0203 64.9687 12.6457C65.1468 12.756 65.3156 12.8572 65.3437 12.8572C65.3718 12.8572 65.3812 12.3054 65.3624 11.6249L65.3343 10.3925L64.7062 10.1902C63.8906 9.92351 62.0437 9.84994 61.1249 10.0523Z" fill="white" fill-opacity="0.2"/>
<path d="M72.2812 10.0151C71.3625 10.1439 70.6406 10.668 70.1812 11.5417L69.9469 11.9831L69.9375 11.0359V10.0887L68.6531 10.1163L67.3594 10.1439L67.3312 15.5419L67.3125 20.9492H68.6156H69.9281L69.9562 17.6111L69.9844 14.2821L70.2469 13.7303C70.6594 12.8751 71.1375 12.4429 71.85 12.3141C72.3281 12.2314 73.1062 12.3325 73.5187 12.544L73.7812 12.682V11.4405C73.7812 10.5485 73.7437 10.1806 73.6687 10.1255C73.4719 10.0151 72.7312 9.95075 72.2812 10.0151Z" fill="white" fill-opacity="0.2"/>
<path d="M78.1031 10.0526C76.0687 10.5032 74.625 11.901 74.1094 13.915C73.8937 14.7519 73.8844 16.4348 74.1 17.3084C74.5406 19.1385 75.9469 20.5271 77.8312 21.0145C78.6375 21.2169 80.2781 21.2169 81.1406 20.9962C82.8187 20.5823 84.1781 19.4236 84.7594 17.9338C85.0969 17.0234 85.2469 16.0393 85.1812 15.0186C85.0875 13.354 84.6375 12.2781 83.6812 11.3308C83.0812 10.7515 82.65 10.4848 81.75 10.1721C81.0562 9.92381 78.975 9.85944 78.1031 10.0526ZM80.8594 12.2505C81.4875 12.5264 82.05 13.1701 82.275 13.8414C82.4156 14.2645 82.4531 14.6415 82.4531 15.6163C82.4437 16.6923 82.4156 16.9314 82.2281 17.3912C81.9562 18.0717 81.5625 18.504 80.9625 18.8074C80.55 19.019 80.3625 19.0465 79.6406 19.0465C78.7125 19.0465 78.2062 18.8902 77.6437 18.4304C76.7625 17.6855 76.3594 15.9106 76.7344 14.3472C76.9969 13.2805 77.4844 12.6367 78.3281 12.2505C78.9937 11.9378 80.1937 11.9378 80.8594 12.2505Z" fill="white" fill-opacity="0.2"/>
<path d="M89.1844 10.0527C88.0781 10.3561 87.0937 11.1194 86.7094 11.9655C86.4 12.6552 86.4 13.9059 86.7187 14.5588C87.1031 15.3313 87.5344 15.6623 89.1937 16.444C90.0281 16.8394 90.7875 17.2533 90.8812 17.3544C91.125 17.6211 91.1906 18.3108 90.9937 18.6051C90.4594 19.4052 88.4719 19.3224 86.9812 18.4304L86.4375 18.1085V19.35V20.5823L86.775 20.7202C87.8156 21.1433 89.8219 21.2812 90.9187 21.0053C92.1281 20.7018 93.0187 20.0581 93.4687 19.1569C93.6562 18.7706 93.6937 18.5591 93.6937 17.8234C93.6937 17.1061 93.6656 16.8854 93.4969 16.5727C93.0281 15.6991 92.4281 15.2577 90.7406 14.5128C89.5031 13.9794 89.1656 13.6943 89.0906 13.1426C88.9125 11.8827 90.8531 11.5148 92.7469 12.4529L93.1969 12.6828L93.1687 11.5057L93.1406 10.3377L92.5781 10.163C91.8094 9.92391 89.8687 9.85953 89.1844 10.0527Z" fill="white" fill-opacity="0.2"/>
<path d="M98.9531 10.0888C97.6312 10.4106 96.4781 11.1923 95.8031 12.2223C94.8281 13.7213 94.6125 16.1675 95.2968 17.9791C96.1406 20.1954 98.5312 21.4645 101.241 21.1334C102.787 20.9495 103.631 20.5725 104.578 19.6252C105.722 18.4941 106.162 17.3262 106.162 15.4318C106.162 13.5833 105.722 12.3694 104.691 11.3487C103.997 10.6773 103.397 10.3463 102.412 10.098C101.484 9.85887 99.8906 9.85887 98.9531 10.0888ZM101.962 12.2775C102.487 12.5534 102.975 13.1051 103.228 13.7397C103.406 14.1995 103.444 14.457 103.444 15.4778C103.453 17.363 103.059 18.2458 101.962 18.7884C101.466 19.0275 101.306 19.0551 100.603 19.0551C99.5906 19.0459 98.9625 18.8068 98.4375 18.2182C97.8281 17.5285 97.65 16.9583 97.6406 15.6157C97.6406 13.7765 98.0625 12.8752 99.2062 12.3051C99.7687 12.0292 99.8343 12.02 100.687 12.0476C101.362 12.0752 101.672 12.1303 101.962 12.2775Z" fill="white" fill-opacity="0.2"/>
<path d="M52.4062 15.5235V20.9492H53.7188H55.0312L55.0125 15.5419L54.9844 10.1438L53.7 10.1162L52.4062 10.0886V15.5235Z" fill="white" fill-opacity="0.2"/>
<path d="M0 20.0303V26.0078H6.09375H12.1875V20.0303V14.0527H6.09375H0V20.0303Z" fill="white" fill-opacity="0.2"/>
<path d="M13.425 20.0027L13.4531 25.9618L19.5281 25.9894L25.5938 26.0078V20.0303V14.0527H19.5H13.4062L13.425 20.0027Z" fill="white" fill-opacity="0.2"/>
</svg>
