<?xml version="1.0" standalone="no"?>
<!DOCTYPE svg PUBLIC "-//W3C//DTD SVG 1.1//EN" "http://www.w3.org/Graphics/SVG/1.1/DTD/svg11.dtd" >
<svg xmlns="http://www.w3.org/2000/svg" xmlns:xlink="http://www.w3.org/1999/xlink" version="1.1">
<metadata>
Created by FontForge 20170731 at Tue Jun 11 00:43:27 2019
 By Aleksey,,,
Copyright (c) 2019, Copyright by Optimo SARL. All rights reserved. |DCNT
</metadata>
<defs>
<font id="RandMono-Heavy" horiz-adv-x="612" >
  <font-face 
    font-family="Rand Mono Heavy"
    font-weight="900"
    font-stretch="normal"
    units-per-em="1000"
    panose-1="2 11 10 9 2 1 1 1 1 2"
    ascent="730"
    descent="-270"
    x-height="526"
    cap-height="685"
    bbox="-395 -215 655 1140"
    underline-thickness="50"
    underline-position="-200"
    unicode-range="U+000D-FEFF"
  />
<missing-glyph 
d="M55 0v685h502v-685h-502zM180 125h252v435h-252v-435z" />
    <glyph glyph-name="f_f" unicode="ff" 
d="M360 0v385h-119v-385h-168v385h-63v131h63v45q0 97 45 135q39 34 142 34h70v-124h-35q-34 0 -45.5 -10.5t-11.5 -39.5v-40h122v45q0 97 45 135q39 34 142 34h71v-124h-36q-34 0 -45.5 -10.5t-11.5 -39.5v-40h93v-131h-90v-385h-168z" />
    <glyph glyph-name="f_f_i" unicode="ffi" 
d="M41 0v385h-53v131h53v55q0 50 7.5 77.5t28.5 48.5q34 33 111 33h38v-114h-3q-31 0 -41.5 -10.5t-10.5 -39.5v-50h73v55q0 50 7.5 78t27.5 48q19 19 42.5 26t68.5 7h37v-114h-2q-31 0 -41.5 -10.5t-10.5 -39.5v-50h211v-516h-132v385h-76v-385h-132v385h-70v-385h-133z
M458 593v137h132v-137h-132z" />
    <glyph glyph-name="f_f_l" unicode="ffl" 
d="M243 0v385h-70v-385h-133v385h-53v131h53v55q0 50 7.5 77.5t28.5 48.5q34 33 111 33h38v-114h-3q-31 0 -41.5 -10.5t-10.5 -39.5v-50h73v55q0 50 7.5 78t27.5 48q19 19 42.5 26t68.5 7h37v-114h-2q-31 0 -41.5 -10.5t-10.5 -39.5v-50h54v-131h-51v-385h-132zM451 0v730
h132v-730h-132z" />
    <glyph glyph-name="f_i" unicode="fi" 
d="M76 0v385h-68v131h68v45q0 97 45 135q39 34 142 34h76v-124h-41q-34 0 -45.5 -10.5t-11.5 -39.5v-40h316v-516h-167v385h-146v-385h-168zM391 583v147h172v-147h-172z" />
    <glyph glyph-name="f_l" unicode="fl" 
d="M76 0v385h-68v131h68v45q0 97 45 135q39 34 142 34h76v-124h-41q-34 0 -45.5 -10.5t-11.5 -39.5v-40h98v-131h-95v-385h-168zM390 0v730h167v-730h-167z" />
    <glyph glyph-name=".notdef" 
d="M55 0v685h502v-685h-502zM180 125h252v435h-252v-435z" />
    <glyph glyph-name=".null" horiz-adv-x="0" 
 />
    <glyph glyph-name="nonmarkingreturn" horiz-adv-x="333" 
 />
    <glyph glyph-name="NULL" horiz-adv-x="0" 
 />
    <glyph glyph-name="NULL" horiz-adv-x="0" 
 />
    <glyph glyph-name="CR" unicode="&#xd;" 
 />
    <glyph glyph-name="space" unicode=" " 
 />
    <glyph glyph-name="exclam" unicode="!" 
d="M239 181l-15 218v286h164v-286l-15 -218h-134zM222 0v143h168v-143h-168z" />
    <glyph glyph-name="quotedbl" unicode="&#x22;" 
d="M117 443l-12 287h166l-13 -287h-141zM353 443l-12 287h166l-13 -287h-141z" />
    <glyph glyph-name="numbersign" unicode="#" 
d="M65 0l38 203h-95l21 107h95l18 99h-97l21 107h97l32 169h124l-32 -169h100l32 169h124l-32 -169h92l-21 -107h-92l-18 -99h94l-21 -107h-94l-38 -203h-124l38 203h-100l-38 -203h-124zM248 310h100l18 99h-100z" />
    <glyph glyph-name="dollar" unicode="$" 
d="M230 -120v128q-165 25 -200 173l156 36q30 -84 118 -84q39 0 62.5 17.5t23.5 49.5q0 48 -85 70l-61 16q-96 25 -143.5 73t-47.5 125q0 78 46 128t131 66v113h156v-114q136 -31 167 -163l-150 -31q-11 34 -37.5 52.5t-61.5 18.5q-39 0 -59.5 -17t-20.5 -43t18 -41t61 -27
l73 -21q92 -27 138.5 -68.5t46.5 -122.5q0 -79 -45.5 -131t-129.5 -70v-133h-156z" />
    <glyph glyph-name="percent" unicode="%" 
d="M112 0l295 685h98l-295 -685h-98zM136 302q-137 0 -137 196q0 97 36 145.5t101 48.5t100.5 -48.5t35.5 -146.5q0 -195 -136 -195zM137 391q43 0 43 105q0 107 -44 107t-44 -108q0 -104 45 -104zM479 -7q-137 0 -137 196q0 97 36 145.5t101 48.5t100.5 -48.5t35.5 -146.5
q0 -195 -136 -195zM480 82q43 0 43 105q0 107 -44 107t-44 -108q0 -104 45 -104z" />
    <glyph glyph-name="ampersand" unicode="&#x26;" 
d="M237 -13q-105 0 -167.5 56t-62.5 149q0 131 138 195q-71 75 -71 143q0 78 52 123.5t145 45.5q83 0 134.5 -44t51.5 -116q0 -57 -30.5 -98.5t-86.5 -78.5l86 -99q23 51 31 114l141 -4q-24 -137 -78 -211q28 -31 73.5 -87.5t61.5 -74.5h-181l-48 59q-72 -72 -189 -72z
M247 113q57 0 94 44l-116 134q-66 -39 -66 -95q0 -37 25 -60t63 -23zM261 443q67 38 67 92q0 25 -15.5 40t-43.5 15q-26 0 -41 -15.5t-15 -41.5q0 -42 48 -90z" />
    <glyph glyph-name="quotesingle" unicode="'" 
d="M235 443l-12 287h166l-13 -287h-141z" />
    <glyph glyph-name="parenleft" unicode="(" 
d="M504 -142l-150 -7q-185 194 -185 448q0 252 186 448l149 -7q-177 -185 -177 -441t177 -441z" />
    <glyph glyph-name="parenright" unicode=")" 
d="M258 -149l-150 7q177 185 177 441t-177 441l149 7q186 -200 186 -448q0 -249 -185 -448z" />
    <glyph glyph-name="asterisk" unicode="*" 
d="M242 265l-118 86l53 55l43 42q-3 0 -61 11l-74 13l45 139l68 -34l55 -28q-3 16 -10 62l-9 74h144l-9 -74q-7 -46 -10 -62l54 28l69 34l45 -139l-74 -13q-52 -10 -61 -11q37 -37 43 -42l53 -55l-118 -86l-36 67q-22 38 -28 55q-2 -5 -28 -55z" />
    <glyph glyph-name="plus" unicode="+" 
d="M235 87v182h-167v140h167v179h142v-179h166v-140h-166v-182h-142z" />
    <glyph glyph-name="comma" unicode="," 
d="M207 -162v87q46 1 66.5 17.5t20.5 57.5h-86v182h201v-166q0 -93 -46.5 -135.5t-142.5 -42.5h-13z" />
    <glyph glyph-name="hyphen" unicode="-" 
d="M161 208v162h290v-162h-290z" />
    <glyph glyph-name="period" unicode="." 
d="M205 0v182h201v-182h-201z" />
    <glyph glyph-name="slash" unicode="/" 
d="M106 0l268 730h154l-268 -730h-154z" />
    <glyph glyph-name="zero" unicode="0" 
d="M306 -13q-144 0 -206 91.5t-62 260.5q0 167 64 263.5t204 96.5q268 0 268 -360q0 -170 -61.5 -261t-206.5 -91zM306 131q52 0 74.5 51.5t22.5 159.5q0 109 -22 161t-75 52q-52 0 -74.5 -52.5t-22.5 -161.5q0 -108 22.5 -159t74.5 -51zM239 272v143h134v-143h-134z" />
    <glyph glyph-name="one" unicode="1" 
d="M83 0v137h149v314h-162v126h20q78 0 117 25.5t46 82.5h159v-548h135v-137h-464z" />
    <glyph glyph-name="two" unicode="2" 
d="M41 0v137q33 28 110.5 89.5t123.5 100.5q51 43 73.5 75.5t22.5 72.5q0 31 -19.5 51t-57.5 20q-44 0 -65 -31.5t-21 -80.5l-171 7q0 119 68 188.5t194 69.5q122 0 186 -57t64 -158q0 -127 -145 -248q-29 -26 -125 -91v-2q16 0 60.5 1t58.5 1h157v-145h-514z" />
    <glyph glyph-name="three" unicode="3" 
d="M291 -13q-123 0 -191 60t-74 172l171 10q7 -104 95 -104q44 0 67.5 24t23.5 62q0 82 -116 82h-40v122h34q104 0 104 74q0 30 -19.5 47.5t-50.5 17.5q-75 0 -77 -84l-173 11q6 98 72.5 158t176.5 60q112 0 177 -53t65 -138q0 -97 -85 -144q50 -20 80.5 -61t30.5 -101
q0 -100 -74 -157.5t-197 -57.5z" />
    <glyph glyph-name="four" unicode="4" 
d="M321 0v126h-279v120l152 439h164l-146 -424h109v233h155v-233h93v-135h-93v-126h-155z" />
    <glyph glyph-name="five" unicode="5" 
d="M301 -13q-109 0 -179.5 59.5t-80.5 158.5l174 5q12 -81 91 -81q46 0 69 27.5t23 72.5q0 42 -24.5 69t-65.5 27q-55 0 -80 -45l-167 14l36 391h433v-144h-293l-9 -106q48 30 110 30q102 0 167 -63.5t65 -170.5q0 -111 -73.5 -177.5t-195.5 -66.5z" />
    <glyph glyph-name="six" unicode="6" 
d="M310 -13q-131 0 -199.5 82.5t-68.5 241.5q0 186 70 287t207 101q108 0 165.5 -55t68.5 -144l-173 -8q-12 57 -66 57q-45 0 -67.5 -39t-22.5 -103h2q50 44 122 44q100 0 160.5 -60t60.5 -161q0 -108 -70.5 -175.5t-188.5 -67.5zM309 123q42 0 67 27t25 72q0 44 -25 71.5
t-68 27.5q-41 0 -66 -27.5t-25 -70.5q0 -45 25 -72.5t67 -27.5z" />
    <glyph glyph-name="seven" unicode="7" 
d="M312 0h-201q82 267 247 535q-23 -1 -66 -1h-235v151h499v-143q-139 -189 -244 -542z" />
    <glyph glyph-name="eight" unicode="8" 
d="M306 -13q-125 0 -197.5 54.5t-72.5 152.5q0 116 114 168v2q-46 23 -68 57.5t-22 92.5q0 82 66.5 133.5t179.5 51.5t179.5 -51.5t66.5 -133.5q0 -58 -22 -92.5t-68 -57.5v-2q114 -52 114 -168q0 -98 -72.5 -152.5t-197.5 -54.5zM306 120q44 0 69.5 24.5t25.5 64.5
q0 38 -25.5 62t-69.5 24t-69.5 -24t-25.5 -62q0 -40 25.5 -64.5t69.5 -24.5zM306 421q38 0 59.5 20t21.5 53q0 34 -21 55t-60 21t-60 -21t-21 -55q0 -33 21.5 -53t59.5 -20z" />
    <glyph glyph-name="nine" unicode="9" 
d="M289 -13q-111 0 -171.5 55.5t-69.5 143.5l176 8q5 -26 23.5 -41.5t46.5 -15.5q45 0 68 39.5t23 104.5h-2q-50 -44 -123 -44q-99 0 -159 59.5t-60 160.5q0 108 68 175t189 67q131 0 200 -83t69 -241q0 -187 -69.5 -287.5t-208.5 -100.5zM300 367q41 0 66.5 27t25.5 70
q0 45 -25.5 72t-67.5 27t-67 -27t-25 -71t25 -71t68 -27z" />
    <glyph glyph-name="colon" unicode=":" 
d="M205 344v182h201v-182h-201zM205 0v182h201v-182h-201z" />
    <glyph glyph-name="semicolon" unicode=";" 
d="M204 -162v87q46 1 66.5 17.5t20.5 57.5h-86v182h201v-166q0 -93 -46.5 -135.5t-142.5 -42.5h-13zM205 344v182h201v-182h-201z" />
    <glyph glyph-name="less" unicode="&#x3c;" 
d="M503 63l-396 182v142l396 193v-167q-130 -56 -222 -93v-4q113 -40 222 -84v-169z" />
    <glyph glyph-name="equal" unicode="=" 
d="M64 156v137h484v-137h-484zM64 375v136h484v-136h-484z" />
    <glyph glyph-name="greater" unicode="&#x3e;" 
d="M107 63v169q109 44 222 84v4q-92 37 -222 93v167l396 -193v-142z" />
    <glyph glyph-name="question" unicode="?" 
d="M362 181h-159q0 73 16.5 112.5t61.5 75.5l27 21q31 25 44 45t13 47q0 31 -19.5 50.5t-54.5 19.5q-83 0 -83 -99l-164 9q2 105 65 171t186 66q118 0 183 -56.5t65 -151.5q0 -105 -91 -178l-20 -16q-70 -56 -70 -116zM199 0v143h168v-143h-168z" />
    <glyph glyph-name="at" unicode="@" 
d="M334 -25q-151 0 -234 89t-83 258q0 170 83 264t222 94q130 0 203.5 -81.5t73.5 -210.5q0 -117 -42 -182.5t-102 -65.5q-59 0 -74 45h-3q-3 -13 -25.5 -29t-53.5 -16q-57 0 -96.5 45.5t-39.5 132.5q0 83 36 133.5t93 50.5q55 0 81 -47h4v39h79v-215q0 -15 0.5 -22
t1.5 -15.5t4.5 -11.5t8.5 -3q21 0 33.5 46.5t12.5 112.5q0 103 -53 156.5t-142 53.5q-100 0 -156 -71t-56 -202q0 -122 61 -192.5t164 -70.5q86 0 160 43l34 -73q-78 -55 -195 -55zM318 230q57 0 57 94q0 88 -57 88t-57 -88q0 -94 57 -94z" />
    <glyph glyph-name="A" unicode="A" 
d="M11 0l190 685h206l194 -685h-168l-40 150h-180l-38 -150h-164zM247 287h113l-28 122q-8 38 -28 141h-4q-1 -3 -10 -57.5t-16 -83.5z" />
    <glyph glyph-name="B" unicode="B" 
d="M63 0v685h263q99 0 155.5 -43.5t56.5 -128.5q0 -118 -105 -152q51 -11 90 -56t39 -112q0 -101 -65.5 -147t-173.5 -46h-260zM223 130h80q91 0 91 80t-94 80h-77v-160zM223 410h70q83 0 83 72q0 38 -20 54t-64 16h-69v-142z" />
    <glyph glyph-name="C" unicode="C" 
d="M314 -13q-137 0 -209 89t-72 268q0 177 74 266t207 89q98 0 163 -52.5t90 -147.5l-154 -40q-25 93 -100 93q-115 0 -115 -208q0 -213 118 -213q68 0 95 93l159 -35q-27 -97 -91.5 -149.5t-164.5 -52.5z" />
    <glyph glyph-name="D" unicode="D" 
d="M44 0v685h212q142 0 220 -66q100 -84 100 -274q0 -206 -120 -290q-44 -31 -97 -43t-134 -12h-181zM213 140h36q78 0 116.5 45.5t38.5 157.5q0 106 -35 154t-125 48h-31v-405z" />
    <glyph glyph-name="E" unicode="E" 
d="M64 0v685h460v-142h-290v-121h266v-142h-266v-138h294v-142h-464z" />
    <glyph glyph-name="F" unicode="F" 
d="M87 0v685h455v-142h-288v-126h264v-142h-264v-275h-167z" />
    <glyph glyph-name="G" unicode="G" 
d="M283 -13q-119 0 -187 95t-68 258q0 174 71 266.5t215 92.5q100 0 165.5 -52t90.5 -145l-153 -41q-31 93 -105 93q-120 0 -120 -210q0 -102 31 -159.5t94 -57.5q48 0 75.5 33t33.5 90h-135v133h283v-383h-136v56h-2q-14 -26 -55.5 -47.5t-97.5 -21.5z" />
    <glyph glyph-name="H" unicode="H" 
d="M44 0v685h178v-259h168v259h178v-685h-178v277h-168v-277h-178z" />
    <glyph glyph-name="I" unicode="I" 
d="M78 0v129h141v427h-141v129h456v-129h-141v-427h141v-129h-456z" />
    <glyph glyph-name="J" unicode="J" 
d="M287 -13q-215 0 -227 206l154 15q5 -79 67 -79q36 0 50 25t14 75v456h171v-466q0 -111 -57.5 -171.5t-171.5 -60.5z" />
    <glyph glyph-name="K" unicode="K" 
d="M62 0v685h172v-149q0 -19 -0.5 -61t-0.5 -65h2q60 104 69 117l98 158h201l-214 -308l212 -377h-200l-124 242l-43 -66v-176h-172z" />
    <glyph glyph-name="L" unicode="L" 
d="M92 0v685h179v-541h263v-144h-442z" />
    <glyph glyph-name="M" unicode="M" 
d="M34 0v685h213l30 -199q15 -104 26 -240h6q25 215 28 237l32 202h209v-685h-133v344q0 31 4 101.5t4 98.5h-6l-11.5 -80.5t-17.5 -106.5l-47 -305h-130l-48 294q-7 46 -15.5 106.5t-14.5 90.5h-6q0 -27 3.5 -98.5t3.5 -104.5v-340h-130z" />
    <glyph glyph-name="N" unicode="N" 
d="M44 0v685h204l102 -275q19 -50 41.5 -123.5t25.5 -83.5h6q-8 237 -8 292l1 190h152v-685h-197l-100 261q-16 43 -31.5 91.5t-27.5 91.5t-16 54h-6q6 -80 6 -238v-260h-152z" />
    <glyph glyph-name="O" unicode="O" 
d="M305 -13q-134 0 -205.5 89.5t-71.5 266.5q0 176 72 266t205 90q134 0 206.5 -90.5t72.5 -265.5q0 -178 -71 -267t-208 -89zM305 132q113 0 113 209q0 210 -113 210q-112 0 -112 -210q0 -95 27 -152t85 -57z" />
    <glyph glyph-name="P" unicode="P" 
d="M58 0v685h277q115 0 177 -56.5t62 -161.5q0 -219 -248 -219h-94v-248h-174zM232 385h73q47 0 70.5 19t23.5 63t-23.5 62.5t-70.5 18.5h-73v-163z" />
    <glyph glyph-name="Q" unicode="Q" 
d="M511 -180h-124q-89 0 -124 29.5t-35 113.5v36q-200 48 -200 344q0 176 72 266t205 90q134 0 206.5 -90.5t72.5 -265.5q0 -301 -205 -344v-11q0 -36 8.5 -43t42.5 -7h81v-118zM305 131q113 0 113 210t-113 210q-112 0 -112 -210q0 -96 27 -153t85 -57z" />
    <glyph glyph-name="R" unicode="R" 
d="M44 0v685h308q108 0 165.5 -52t57.5 -150q0 -68 -30.5 -112t-78.5 -64q42 -15 61.5 -46.5t31.5 -106.5l6 -40q14 -87 28 -107v-7h-186q-9 19 -20 90l-9 65q-6 50 -30 72.5t-77 22.5h-53v-250h-174zM218 386h92q42 0 65 22t23 63q0 76 -88 76h-92v-161z" />
    <glyph glyph-name="S" unicode="S" 
d="M293 -13q-229 0 -272 185l159 37q31 -91 122 -91q42 0 66.5 19.5t24.5 55.5q0 31 -21 46t-67 28l-65 17q-100 27 -147.5 76t-47.5 130q0 99 69 154t191 55q105 0 169 -46t85 -130l-153 -33q-11 37 -38.5 56.5t-65.5 19.5q-40 0 -61.5 -18.5t-21.5 -46.5q0 -27 18.5 -44
t63.5 -30l77 -22q94 -26 141.5 -70.5t47.5 -127.5q0 -103 -73 -161.5t-201 -58.5z" />
    <glyph glyph-name="T" unicode="T" 
d="M216 0v541h-172v144h524v-144h-172v-541h-180z" />
    <glyph glyph-name="U" unicode="U" 
d="M306 -13q-133 0 -198.5 64t-65.5 212v422h176v-422q0 -65 18.5 -96.5t69.5 -31.5t69.5 31.5t18.5 96.5v422h176v-422q0 -148 -65.5 -212t-198.5 -64z" />
    <glyph glyph-name="V" unicode="V" 
d="M200 0l-195 685h182l78 -323q9 -34 22 -97.5t18 -82.5h4q31 137 43 184l75 319h180l-199 -685h-208z" />
    <glyph glyph-name="W" unicode="W" 
d="M82 0l-75 685h144l15 -218q4 -58 10 -303h6q17 209 33 310l21 145h138l20 -145q12 -97 32 -310h6q6 177 15 299l18 222h140l-82 -685h-177l-20 159q-12 104 -20 282h-6q-2 -26 -6 -82.5t-8 -105t-10 -94.5l-20 -159h-174z" />
    <glyph glyph-name="X" unicode="X" 
d="M6 0l200 348l-190 337h191l102 -207l103 207h184l-195 -331l205 -354h-196l-108 219l-111 -219h-185z" />
    <glyph glyph-name="Y" unicode="Y" 
d="M215 0v247l-209 438h188l49 -118q26 -61 66 -161h3q5 12 24 63.5t36 91.5l48 124h186l-210 -438v-247h-181z" />
    <glyph glyph-name="Z" unicode="Z" 
d="M54 0v134l182 258q19 26 43.5 58t39.5 52.5t26 36.5v3q-35 -1 -124 -1h-158v144h487v-137l-199 -283q-9 -12 -41 -55t-50 -66v-2q67 1 175 1h126v-143h-507z" />
    <glyph glyph-name="bracketleft" unicode="[" 
d="M174 -143v893h276v-113h-130q1 -28 1 -81v-506q0 -53 -1 -80h130v-113h-276z" />
    <glyph glyph-name="backslash" unicode="\" 
d="M357 0l-268 730h154l268 -730h-154z" />
    <glyph glyph-name="bracketright" unicode="]" 
d="M162 -143v113h130q-1 27 -1 80v506q0 53 1 81h-130v113h276v-893h-276z" />
    <glyph glyph-name="asciicircum" unicode="^" 
d="M38 302l200 383h136l200 -383h-170l-95 200h-6l-95 -200h-170z" />
    <glyph glyph-name="underscore" unicode="_" 
d="M60 -171v125h492v-125h-492z" />
    <glyph glyph-name="grave" unicode="`" 
d="M295 601l-120 129h190l72 -129h-142z" />
    <glyph glyph-name="a" unicode="a" 
d="M243 -8q-88 0 -142 42t-54 118q0 67 42 102.5t129 54.5q18 4 118 23q21 4 29.5 10.5t8.5 21.5q0 23 -18 36.5t-51 13.5q-72 0 -78 -74l-164 8q4 82 71 134.5t176 52.5q231 0 231 -209v-298q0 -17 1 -28h-146v16q0 8 0.5 18.5t0.5 11.5h-4q-51 -54 -150 -54zM281 101
q95 0 95 98v4q0 16 3 27l-45 -10l-56 -12q-63 -13 -63 -55q0 -52 66 -52z" />
    <glyph glyph-name="b" unicode="b" 
d="M356 -12q-99 0 -147 75h-3q0 -7 0.5 -20.5t0.5 -21.5v-21h-167q1 27 1 80v650h170v-135q0 -90 -2 -131h3q50 76 147 76q98 0 159.5 -77t61.5 -200q0 -124 -61.5 -199.5t-162.5 -75.5zM309 123q48 0 75.5 38.5t27.5 100.5q0 64 -26.5 102t-76.5 38t-76.5 -37.5
t-26.5 -102.5q0 -64 27 -101.5t76 -37.5z" />
    <glyph glyph-name="c" unicode="c" 
d="M316 -12q-123 0 -197 77t-74 197q0 125 75.5 202t197.5 77q94 0 160 -48.5t87 -128.5l-153 -34q-27 71 -93 71q-50 0 -77 -36.5t-27 -102.5q0 -67 28 -101.5t77 -34.5q69 0 93 69l153 -36q-22 -77 -89 -124t-161 -47z" />
    <glyph glyph-name="d" unicode="d" 
d="M256 -12q-101 0 -162.5 75t-61.5 200q0 123 61.5 200t159.5 77q101 0 147 -74h3q-2 40 -2 129v135h170v-650q0 -53 1 -80h-167v21q0 8 0.5 21t0.5 20h-3q-47 -74 -147 -74zM303 123q49 0 76 37.5t27 101.5q0 65 -26.5 102.5t-76.5 37.5t-76.5 -38t-26.5 -102
q0 -62 27.5 -100.5t75.5 -38.5z" />
    <glyph glyph-name="e" unicode="e" 
d="M316 -12q-124 0 -199.5 74t-75.5 202q0 123 76 199.5t198 76.5q127 0 194 -79t67 -216q0 -14 -1 -25h-372q6 -49 36 -76.5t80 -27.5q75 0 116 64l139 -49q-35 -65 -100 -104t-158 -39zM205 325h203q-2 46 -27 72t-69 26q-47 0 -74 -26t-33 -72z" />
    <glyph glyph-name="f" unicode="f" 
d="M56 0v136h152v244h-150v136h150v43q0 96 44.5 133.5t146.5 37.5h157v-129h-128q-29 0 -40.5 -10.5t-11.5 -35.5v-39h180v-136h-177v-244h153v-136h-476z" />
    <glyph glyph-name="g" unicode="g" 
d="M292 -198q-93 0 -157 37t-95 100l130 60q41 -67 124 -67q113 0 114 112q0 9 3 42h-5q-47 -72 -145 -72q-97 0 -158 71.5t-61 188.5q0 115 61 188.5t157 73.5q102 0 149 -70h4q-1 11 -1 30v30h158q-1 -31 -1 -95v-380q0 -124 -76.5 -186.5t-200.5 -62.5zM308 143
q45 0 73 35.5t28 94.5q0 58 -28 93.5t-73 35.5q-47 0 -75 -35.5t-28 -93.5q0 -60 27.5 -95t75.5 -35z" />
    <glyph glyph-name="h" unicode="h" 
d="M55 0v730h171v-147q0 -10 -1 -61t-1 -57h1q51 74 152 74q179 0 179 -219v-320h-170v274q0 67 -18.5 94.5t-58.5 27.5q-84 0 -84 -115v-281h-170z" />
    <glyph glyph-name="i" unicode="i" 
d="M74 0v136h152v244h-152v136h323v-380h153v-136h-476zM202 583v147h200v-147h-200z" />
    <glyph glyph-name="j" unicode="j" 
d="M101 -188v130h135q31 0 42.5 14.5t11.5 47.5v376h-193v136h364v-528q0 -57 -12 -92t-42.5 -53.5t-70 -24.5t-106.5 -6h-129zM266 583v147h200v-147h-200z" />
    <glyph glyph-name="k" unicode="k" 
d="M77 0v730h171v-263q0 -23 -0.5 -72.5t-0.5 -77.5h2q7 9 28.5 39t34.5 46l98 124h202l-195 -226l210 -300h-207l-121 191l-51 -58v-133h-171z" />
    <glyph glyph-name="l" unicode="l" 
d="M71 0v136h155v458h-155v136h326v-594h150v-136h-476z" />
    <glyph glyph-name="m" unicode="m" 
d="M35 0v441q0 58 -1 85h118v-23q0 -22 -1 -38h5q21 73 102 73q79 0 94 -72h4q32 72 110 72q53 0 84 -34t31 -125v-379h-131v329q0 36 -8.5 51.5t-29.5 15.5q-43 0 -43 -64v-332h-123v329q0 36 -9 51.5t-30 15.5q-42 0 -42 -65v-331h-130z" />
    <glyph glyph-name="n" unicode="n" 
d="M56 0v439q0 58 -1 87h165v-26q0 -27 -1 -44h3q17 35 58 59t97 24q180 0 180 -219v-320h-170v274q0 67 -18.5 94.5t-59.5 27.5q-84 0 -84 -115v-281h-169z" />
    <glyph glyph-name="o" unicode="o" 
d="M306 -12q-124 0 -198 75.5t-74 199.5t75 201t197 77t196.5 -77t74.5 -201q0 -123 -74.5 -199t-196.5 -76zM306 126q51 0 77 35.5t26 100.5t-26 102t-77 37t-78 -37t-27 -101q0 -66 27 -101.5t78 -35.5z" />
    <glyph glyph-name="p" unicode="p" 
d="M41 -188v621q0 66 -1 93h169v-10q0 -18 -2 -50h3q55 74 149 74q98 0 159.5 -77t61.5 -200q0 -124 -61.5 -199.5t-162.5 -75.5q-99 0 -143 70h-3q0 -4 0.5 -21t0.5 -28v-197h-170zM309 123q48 0 75.5 38.5t27.5 100.5q0 64 -26.5 102t-76.5 38t-76.5 -37.5t-26.5 -102.5
q0 -64 27 -101.5t76 -37.5z" />
    <glyph glyph-name="q" unicode="q" 
d="M401 -188v197q0 11 0.5 28t0.5 21h-4q-44 -70 -142 -70q-101 0 -162.5 75.5t-61.5 199.5q0 123 61.5 200t159.5 77q90 0 149 -75h3q-1 17 -1 51v10h168q-1 -27 -1 -93v-621h-170zM303 123q49 0 76 37.5t27 101.5q0 65 -26.5 102.5t-76.5 37.5t-76.5 -38t-26.5 -102
q0 -62 27.5 -100.5t75.5 -38.5z" />
    <glyph glyph-name="r" unicode="r" 
d="M44 0v136h120v254h-120v136h277v-33q0 -57 -1 -77h6q11 49 50 79q42 31 126 31h93v-155h-126q-84 0 -113 -41q-16 -21 -20.5 -55t-4.5 -97v-42h191v-136h-478z" />
    <glyph glyph-name="s" unicode="s" 
d="M308 -13q-217 0 -251 157l159 28q17 -69 95 -69q33 0 52.5 12t19.5 33q0 18 -17 28.5t-56 19.5l-66 15q-84 19 -126 55.5t-42 104.5q0 80 62 123.5t169 43.5q200 0 234 -152l-152 -25q-13 61 -83 61q-29 0 -46 -11t-17 -29q0 -19 14.5 -27t58.5 -21l70 -19
q88 -25 127.5 -57t39.5 -102q0 -85 -65 -127t-180 -42z" />
    <glyph glyph-name="t" unicode="t" 
d="M542 0h-193q-101 0 -141 36.5t-40 134.5v219h-150v136h150v143h171v-143h203v-136h-206v-215q0 -25 11.5 -35.5t40.5 -10.5h154v-129z" />
    <glyph glyph-name="u" unicode="u" 
d="M233 -13q-179 0 -179 219v320h170v-274q0 -67 18 -94.5t58 -27.5q84 0 84 116v280h169v-439q0 -58 1 -87h-166v24q0 22 1 39h-3q-44 -76 -153 -76z" />
    <glyph glyph-name="v" unicode="v" 
d="M206 0l-177 526h182l48 -183l47 -183h4q21 88 47 183l47 183h179l-180 -526h-197z" />
    <glyph glyph-name="w" unicode="w" 
d="M93 0l-91 526h138l19 -173q19 -179 22 -199h4q5 33 13 98.5t14 98.5l26 175h142l24 -174q7 -41 27 -198h5q3 25 10 90t13 109l17 173h134l-93 -526h-165l-20 152q-5 32 -25 203h-5q-23 -197 -24 -202l-21 -153h-164z" />
    <glyph glyph-name="x" unicode="x" 
d="M21 0l185 270l-176 256h194l82 -139h3l80 139h186l-171 -254l186 -272h-193l-93 152h-4l-93 -152h-186z" />
    <glyph glyph-name="y" unicode="y" 
d="M150 -190q-46 0 -70 1l-16 129q46 -2 59 -2q44 0 62.5 10t28.5 38l5 15l-195 525h182l58 -195q8 -26 22.5 -83.5t20.5 -78.5h5q18 76 42 161l56 196h178l-203 -556q-20 -54 -41.5 -86t-51.5 -48.5t-60.5 -21t-81.5 -4.5z" />
    <glyph glyph-name="z" unicode="z" 
d="M73 0v130l144 152q86 91 104 110q-47 -1 -139 -1h-100v135h445v-132l-110 -118q-15 -16 -41.5 -45t-49 -52.5t-43.5 -45.5q21 0 63.5 0.5t64.5 0.5h127v-134h-465z" />
    <glyph glyph-name="braceleft" unicode="{" 
d="M496 -143h-127q-83 0 -109.5 34t-26.5 115v109q0 74 -19 102t-82 32v111q63 4 82 32t19 102v107q0 81 26.5 115t109.5 34h127v-113h-52q-42 0 -55.5 -20.5t-13.5 -69.5v-87q0 -76 -25.5 -109.5t-89.5 -43.5v-4q64 -10 89.5 -43.5t25.5 -110.5v-89q0 -49 13.5 -69.5
t55.5 -20.5h52v-113z" />
    <glyph glyph-name="bar" unicode="|" 
d="M231 -168v853h149v-853h-149z" />
    <glyph glyph-name="braceright" unicode="}" 
d="M116 -143v113h52q41 0 55 20t14 70v89q0 77 25.5 110.5t89.5 43.5v4q-64 10 -89.5 43.5t-25.5 109.5v87q0 49 -14 69.5t-55 20.5h-52v113h127q83 0 109.5 -34t26.5 -115v-107q0 -74 19 -102t82 -32v-111q-63 -4 -82 -32t-19 -102v-109q0 -81 -26.5 -115t-109.5 -34h-127z
" />
    <glyph glyph-name="asciitilde" unicode="~" 
d="M404 241q-9 0 -19 1.5t-16.5 3t-17.5 5.5t-15.5 5.5t-18 7.5t-17.5 8l-35 16q-25 13 -48 13q-43 0 -73 -58l-90 71q64 127 157 127q9 0 19 -1.5t16.5 -3t17.5 -5.5t15.5 -5.5t18 -7.5t17.5 -8l35 -16q25 -13 48 -13q43 0 73 58l90 -71q-63 -127 -157 -127z" />
    <glyph glyph-name="uni00A0" unicode="&#xa0;" 
 />
    <glyph glyph-name="exclamdown" unicode="&#xa1;" 
d="M224 -159v286l15 218h134l15 -218v-286h-164zM222 383v143h168v-143h-168z" />
    <glyph glyph-name="cent" unicode="&#xa2;" 
d="M242 -44v123q-90 24 -140.5 94t-50.5 169q0 102 51 172t140 93v123h159v-123q66 -17 110 -59t60 -104l-153 -34q-27 71 -93 71q-50 0 -77 -36.5t-27 -102.5q0 -67 28 -101.5t77 -34.5q69 0 93 69l153 -36q-17 -60 -61 -101.5t-110 -58.5v-123h-159z" />
    <glyph glyph-name="sterling" unicode="&#xa3;" 
d="M53 0v112q112 16 112 107q0 25 -13 75h-116v114h78q-13 45 -13 85q0 96 65 151t182 55q109 0 169 -54t60 -144l-152 -14q-4 35 -24 55t-55 20q-38 0 -58.5 -23t-20.5 -62q0 -19 13 -68h157v-115h-121q14 -46 14 -74q0 -56 -34 -94v-2q8 0 28.5 0.5t32.5 0.5h212v-125
h-516z" />
    <glyph glyph-name="currency" unicode="&#xa4;" 
d="M132 86l-104 103q57 56 64 63q-29 53 -29 110q0 59 29 112q-7 7 -20 19.5t-24 23.5t-20 21l104 104q4 -5 64 -65q52 28 109 28q59 0 111 -28l64 65q5 -4 51.5 -52t51.5 -52l-63 -64q30 -55 30 -111t-30 -111l63 -63l-103 -103l-63 62q-52 -28 -111 -28q-60 0 -112 28z
M306 252q45 0 78 32.5t33 77.5q0 46 -33 79t-78 33q-46 0 -78.5 -33t-32.5 -79t32.5 -78t78.5 -32z" />
    <glyph glyph-name="yen" unicode="&#xa5;" 
d="M219 0v102h-161v118h161v27l-25 51h-136v118h80l-128 269h185l49 -120q7 -15 66 -168h3q17 48 60 162l48 126h182l-129 -269h72v-118h-129l-24 -51v-27h153v-118h-153v-102h-174z" />
    <glyph glyph-name="brokenbar" unicode="&#xa6;" 
d="M231 355v330h149v-330h-149zM231 -168v330h149v-330h-149z" />
    <glyph glyph-name="section" unicode="&#xa7;" 
d="M299 -155q-214 0 -245 165l151 22q16 -76 95 -76q33 0 55 12.5t22 37.5q0 23 -17.5 35.5t-64.5 30.5l-75 28q-165 60 -165 188q0 88 82 135q-49 39 -49 111q0 78 60.5 121.5t166.5 43.5q205 0 229 -161l-145 -19q-12 68 -85 68q-32 0 -49.5 -12t-17.5 -33
q0 -19 14.5 -30.5t53.5 -26.5l101 -39q149 -58 149 -175q0 -93 -80 -143q54 -45 54 -116q0 -82 -64 -124.5t-176 -42.5zM282 234l96 -41q35 16 35 53q0 25 -19 41t-64 35l-87 38q-35 -15 -35 -51q0 -24 16.5 -41t57.5 -34z" />
    <glyph glyph-name="dieresis" unicode="&#xa8;" 
d="M315 599v122h127v-122h-127zM123 599v122h126v-122h-126z" />
    <glyph glyph-name="copyright" unicode="&#xa9;" 
d="M304 166q-111 0 -188 78t-77 189t77.5 188.5t189.5 77.5q111 0 189 -78t78 -188q0 -112 -78.5 -189.5t-190.5 -77.5zM310 272q-72 0 -114 43.5t-42 115.5t43.5 116t112.5 44q53 0 88 -24.5t48 -69.5l-75 -19q-16 43 -61 43q-35 0 -54.5 -24t-19.5 -66q0 -41 19.5 -65.5
t54.5 -24.5q46 0 60 42l78 -18q-14 -45 -50.5 -69t-87.5 -24zM307 221q86 0 146 62t60 150q0 87 -60 148.5t-147 61.5t-147 -61.5t-60 -148.5q0 -89 60 -150.5t148 -61.5z" />
    <glyph glyph-name="ordfeminine" unicode="&#xaa;" 
d="M255 350q-53 0 -87 28t-34 75q0 44 27 66.5t87 34.5l68 13q18 4 23 7t5 11q0 32 -41 32q-46 0 -46 -42l-112 5q2 54 43.5 87t114.5 33q157 0 157 -138v-190v-16h-98v13v13h-2q-32 -32 -105 -32zM288 423q26 0 42.5 13.5t16.5 40.5v12q0 11 1 14l-31 -8l-28 -7
q-26 -7 -34.5 -12.5t-8.5 -19.5q0 -33 42 -33z" />
    <glyph glyph-name="guillemotleft" unicode="&#xab;" 
d="M170 91l-100 184l100 185h150l-94 -185l94 -184h-150zM402 91l-100 184l100 185h150l-94 -185l94 -184h-150z" />
    <glyph glyph-name="logicalnot" unicode="&#xac;" 
d="M402 150v193h-351v144h507v-337h-156z" />
    <glyph glyph-name="uni00AD" unicode="&#xad;" 
d="M161 208v162h290v-162h-290z" />
    <glyph glyph-name="registered" unicode="&#xae;" 
d="M304 166q-111 0 -188 78t-77 189t77.5 188.5t189.5 77.5q111 0 189 -78t78 -188q0 -112 -78.5 -189.5t-190.5 -77.5zM307 221q86 0 146 62t60 150q0 87 -60 148.5t-147 61.5t-147 -61.5t-60 -148.5q0 -89 60 -150.5t148 -61.5zM187 279v309h139q54 0 82.5 -23t28.5 -66
q0 -57 -49 -77v-1q34 -13 38 -67l2 -24q2 -35 13 -48v-3h-82q-4 8 -9 42l-3 25q-2 17 -5.5 25t-15.5 14t-35 6h-25v-112h-79zM266 455h48q18 0 30 9.5t12 26.5q0 33 -44 33h-46v-69z" />
    <glyph glyph-name="overscore" unicode="&#xaf;" 
d="M169 616v103h280v-103h-280z" />
    <glyph glyph-name="degree" unicode="&#xb0;" 
d="M306 376q-69 0 -116 47t-47 115t47 114.5t116 46.5t116 -46.5t47 -114.5t-47 -115t-116 -47zM306 469q29 0 49 19.5t20 49.5q0 29 -20 49t-49 20q-30 0 -50 -20t-20 -49q0 -30 20 -49.5t50 -19.5z" />
    <glyph glyph-name="plusminus" unicode="&#xb1;" 
d="M234 239v126h-164v140h164v141h143v-141h165v-140h-165v-126h-143zM70 55v137h472v-137h-472z" />
    <glyph glyph-name="twosuperior" unicode="&#xb2;" 
d="M141 348v101q6 5 60 47.5t89 72.5q39 32 55.5 53.5t16.5 46.5q0 50 -50 50q-28 0 -41.5 -19.5t-13.5 -49.5l-119 2q0 80 46.5 127.5t132.5 47.5q81 0 124.5 -38.5t43.5 -107.5q0 -52 -25 -91t-73 -80q-17 -14 -46.5 -35t-30.5 -22v-1h82h98v-104h-349z" />
    <glyph glyph-name="threesuperior" unicode="&#xb3;" 
d="M298 342q-169 0 -180 156l120 7q5 -64 61 -64q28 0 42 15t14 38q0 55 -74 55h-27v85h21q71 0 71 49q0 19 -13 30t-31 11q-20 0 -34.5 -13t-15.5 -38l-121 7q4 67 49 107t120 40q77 0 120.5 -35.5t43.5 -94.5q0 -66 -56 -99q73 -30 73 -111q0 -68 -49.5 -106.5
t-133.5 -38.5z" />
    <glyph glyph-name="acute" unicode="&#xb4;" 
d="M165 601l72 129h190l-120 -129h-142z" />
    <glyph glyph-name="mu" unicode="&#xb5;" 
d="M219 -189h-168q3 66 3 130v585h170v-274q0 -67 18 -94.5t58 -27.5q84 0 84 116v280h169v-439q0 -58 1 -87h-166v24q0 22 1 39h-3q-40 -69 -153 -69h-13q1 -17 1 -60q0 -100 -2 -123z" />
    <glyph glyph-name="paragraph" unicode="&#xb6;" 
d="M237 -141v386q-92 0 -158 57.5t-66 160.5q0 109 68 165.5t199 56.5h318v-131h-25q-17 0 -26 1q1 -15 1 -44v-652h-120v628q0 49 1 74q-12 -1 -29 -1h-17q-17 0 -28 1q1 -23 1 -80v-622h-119z" />
    <glyph glyph-name="middot" unicode="&#xb7;" 
d="M205 199v182h201v-182h-201z" />
    <glyph glyph-name="cedilla" unicode="&#xb8;" 
d="M324 -179h-184q12 14 50 61t60 72h141z" />
    <glyph glyph-name="onesuperior" unicode="&#xb9;" 
d="M160 348v99h103v208h-112v87h21q95 0 103 73h109v-368h93v-99h-317z" />
    <glyph glyph-name="ordmasculine" unicode="&#xba;" 
d="M307 346q-84 0 -135 48.5t-51 127.5q0 80 51.5 129t134.5 49q82 0 133 -49.5t51 -129.5q0 -78 -51 -126.5t-133 -48.5zM307 441q64 0 64 80q0 83 -64 83q-66 0 -66 -83q0 -80 66 -80z" />
    <glyph glyph-name="guillemotright" unicode="&#xbb;" 
d="M294 91l94 184l-94 185h150l100 -185l-100 -184h-150zM61 91l94 184l-94 185h150l100 -185l-100 -184h-150z" />
    <glyph glyph-name="onequarter" unicode="&#xbc;" 
d="M75 0l295 685h98l-295 -685h-98zM462 0v71h-162v66l84 243h93l-79 -230h64v125h91v-125h50v-79h-50v-71h-91zM86 308v244h-91v73q58 4 77 15.5t25 47.5h87v-380h-98z" />
    <glyph glyph-name="onehalf" unicode="&#xbd;" 
d="M72 0l295 685h98l-295 -685h-98zM86 305v244h-91v73q58 4 77 15.5t25 47.5h87v-380h-98zM317 0v71l100 80q73 59 73 103q0 34 -34 34q-39 0 -39 -54l-102 4q0 66 37 104t107 38q65 0 101.5 -33t36.5 -90q0 -45 -25 -82t-82 -77l-21 -15q24 1 67 1h63v-84h-282z" />
    <glyph glyph-name="threequarters" unicode="&#xbe;" 
d="M125 302q-64 0 -100 34t-38 97l98 5q0 -23 11 -37t31 -14q41 0 41 39q0 41 -53 41h-24v76q7 -1 20 -1q46 0 46 35q0 29 -33 29q-16 0 -24.5 -12t-8.5 -29l-96 4q3 57 37.5 90t94.5 33q59 0 93 -28.5t34 -75.5q0 -56 -46 -78q57 -29 57 -90q0 -55 -38 -86.5t-102 -31.5z
M119 0l295 685h98l-295 -685h-98zM486 0v71h-162v66l84 243h93l-79 -230h64v125h91v-125h45v-79h-45v-71h-91z" />
    <glyph glyph-name="questiondown" unicode="&#xbf;" 
d="M315 -173q-118 0 -183 56.5t-65 151.5q0 105 91 178l20 16q70 56 70 116h159q0 -73 -16.5 -112.5t-61.5 -75.5l-27 -21q-31 -25 -44 -45t-13 -47q0 -31 19.5 -50.5t54.5 -19.5q83 0 83 99l164 -9q-2 -105 -65 -171t-186 -66zM243 383v143h168v-143h-168z" />
    <glyph glyph-name="Agrave" unicode="&#xc0;" 
d="M11 0l190 685h206l194 -685h-168l-40 150h-180l-38 -150h-164zM247 287h113l-28 122q-8 38 -28 141h-4q-1 -3 -10 -57.5t-16 -83.5zM234 773l-120 129h190l72 -129h-142z" />
    <glyph glyph-name="Aacute" unicode="&#xc1;" 
d="M11 0l190 685h206l194 -685h-168l-40 150h-180l-38 -150h-164zM247 287h113l-28 122q-8 38 -28 141h-4q-1 -3 -10 -57.5t-16 -83.5zM226 773l72 129h190l-120 -129h-142z" />
    <glyph glyph-name="Acircumflex" unicode="&#xc2;" 
d="M11 0l190 685h206l194 -685h-168l-40 150h-180l-38 -150h-164zM247 287h113l-28 122q-8 38 -28 141h-4q-1 -3 -10 -57.5t-16 -83.5zM118 773l97 129h178l96 -129h-134l-50 52h-2l-50 -52h-135z" />
    <glyph glyph-name="Atilde" unicode="&#xc3;" 
d="M11 0l190 685h206l194 -685h-168l-40 150h-180l-38 -150h-164zM247 287h113l-28 122q-8 38 -28 141h-4q-1 -3 -10 -57.5t-16 -83.5zM375 767q-34 0 -76 19l-7 3q-31 13 -44 13q-26 0 -33 -33l-90 5q5 59 33.5 93.5t77.5 34.5q34 0 76 -19l7 -3q31 -13 44 -13q26 0 33 33
l90 -5q-5 -59 -33.5 -93.5t-77.5 -34.5z" />
    <glyph glyph-name="Adieresis" unicode="&#xc4;" 
d="M11 0l190 685h206l194 -685h-168l-40 150h-180l-38 -150h-164zM247 287h113l-28 122q-8 38 -28 141h-4q-1 -3 -10 -57.5t-16 -83.5zM335 777v122h127v-122h-127zM143 777v122h126v-122h-126z" />
    <glyph glyph-name="Aring" unicode="&#xc5;" 
d="M11 0l190 685h206l194 -685h-168l-40 150h-180l-38 -150h-164zM247 287h113l-28 122q-8 38 -28 141h-4q-1 -3 -10 -57.5t-16 -83.5zM303 743q-46 0 -77.5 32t-31.5 78q0 44 32 76t78 32q47 0 78 -31.5t31 -76.5q0 -46 -31.5 -78t-78.5 -32zM303 813q17 0 28 11.5t11 28.5
q0 15 -11 26.5t-28 11.5q-16 0 -27.5 -11.5t-11.5 -26.5q0 -17 11.5 -28.5t27.5 -11.5z" />
    <glyph glyph-name="AE" unicode="&#xc6;" 
d="M-19 0l194 685h435v-142h-163l2 -121h137v-142h-134l3 -138h159v-142h-310l-1 151h-124l-39 -151h-159zM213 284h87q-2 194 -2 266h-21q-30 -133 -64 -266z" />
    <glyph glyph-name="Ccedilla" unicode="&#xc7;" 
d="M314 -13q-137 0 -209 89t-72 268q0 177 74 266t207 89q98 0 163 -52.5t90 -147.5l-154 -40q-25 93 -100 93q-115 0 -115 -208q0 -213 118 -213q68 0 95 93l159 -35q-27 -97 -91.5 -149.5t-164.5 -52.5zM331 -179h-184q12 14 50 61t60 72h141z" />
    <glyph glyph-name="Egrave" unicode="&#xc8;" 
d="M64 0v685h460v-142h-290v-121h266v-142h-266v-138h294v-142h-464zM252 773l-120 129h190l72 -129h-142z" />
    <glyph glyph-name="Eacute" unicode="&#xc9;" 
d="M64 0v685h460v-142h-290v-121h266v-142h-266v-138h294v-142h-464zM203 773l72 129h190l-120 -129h-142z" />
    <glyph glyph-name="Ecircumflex" unicode="&#xca;" 
d="M64 0v685h460v-142h-290v-121h266v-142h-266v-138h294v-142h-464zM112 773l97 129h178l96 -129h-134l-50 52h-2l-50 -52h-135z" />
    <glyph glyph-name="Edieresis" unicode="&#xcb;" 
d="M64 0v685h460v-142h-290v-121h266v-142h-266v-138h294v-142h-464zM327 777v122h127v-122h-127zM135 777v122h126v-122h-126z" />
    <glyph glyph-name="Igrave" unicode="&#xcc;" 
d="M78 0v129h141v427h-141v129h456v-129h-141v-427h141v-129h-456zM245 773l-120 129h190l72 -129h-142z" />
    <glyph glyph-name="Iacute" unicode="&#xcd;" 
d="M78 0v129h141v427h-141v129h456v-129h-141v-427h141v-129h-456zM223 773l72 129h190l-120 -129h-142z" />
    <glyph glyph-name="Icircumflex" unicode="&#xce;" 
d="M78 0v129h141v427h-141v129h456v-129h-141v-427h141v-129h-456zM123 773l97 129h178l96 -129h-134l-50 52h-2l-50 -52h-135z" />
    <glyph glyph-name="Idieresis" unicode="&#xcf;" 
d="M78 0v129h141v427h-141v129h456v-129h-141v-427h141v-129h-456zM342 777v122h127v-122h-127zM150 777v122h126v-122h-126z" />
    <glyph glyph-name="Eth" unicode="&#xd0;" 
d="M44 0v279h-64v136h64v270h212q142 0 220 -66q100 -84 100 -274q0 -206 -120 -290q-44 -31 -97 -43t-134 -12h-181zM212 140h37q78 0 116.5 45.5t38.5 157.5q0 106 -35 154t-125 48h-32v-131h104v-135h-104v-139z" />
    <glyph glyph-name="Ntilde" unicode="&#xd1;" 
d="M44 0v685h204l102 -275q19 -50 41.5 -123.5t25.5 -83.5h6q-8 237 -8 292l1 190h152v-685h-197l-100 261q-16 43 -31.5 91.5t-27.5 91.5t-16 54h-6q6 -80 6 -238v-260h-152zM381 767q-34 0 -76 19l-7 3q-31 13 -44 13q-26 0 -33 -33l-90 5q5 59 33.5 93.5t77.5 34.5
q34 0 76 -19l7 -3q31 -13 44 -13q26 0 33 33l90 -5q-5 -59 -33.5 -93.5t-77.5 -34.5z" />
    <glyph glyph-name="Ograve" unicode="&#xd2;" 
d="M305 -13q-134 0 -205.5 89.5t-71.5 266.5q0 176 72 266t205 90q134 0 206.5 -90.5t72.5 -265.5q0 -178 -71 -267t-208 -89zM305 132q113 0 113 209q0 210 -113 210q-112 0 -112 -210q0 -95 27 -152t85 -57zM252 773l-120 129h190l72 -129h-142z" />
    <glyph glyph-name="Oacute" unicode="&#xd3;" 
d="M305 -13q-134 0 -205.5 89.5t-71.5 266.5q0 176 72 266t205 90q134 0 206.5 -90.5t72.5 -265.5q0 -178 -71 -267t-208 -89zM305 132q113 0 113 209q0 210 -113 210q-112 0 -112 -210q0 -95 27 -152t85 -57zM214 773l72 129h190l-120 -129h-142z" />
    <glyph glyph-name="Ocircumflex" unicode="&#xd4;" 
d="M305 -13q-134 0 -205.5 89.5t-71.5 266.5q0 176 72 266t205 90q134 0 206.5 -90.5t72.5 -265.5q0 -178 -71 -267t-208 -89zM305 132q113 0 113 209q0 210 -113 210q-112 0 -112 -210q0 -95 27 -152t85 -57zM121 773l97 129h178l96 -129h-134l-50 52h-2l-50 -52h-135z" />
    <glyph glyph-name="Otilde" unicode="&#xd5;" 
d="M305 -13q-134 0 -205.5 89.5t-71.5 266.5q0 176 72 266t205 90q134 0 206.5 -90.5t72.5 -265.5q0 -178 -71 -267t-208 -89zM305 132q113 0 113 209q0 210 -113 210q-112 0 -112 -210q0 -95 27 -152t85 -57zM376 767q-34 0 -76 19l-7 3q-31 13 -44 13q-26 0 -33 -33l-90 5
q5 59 33.5 93.5t77.5 34.5q34 0 76 -19l7 -3q31 -13 44 -13q26 0 33 33l90 -5q-5 -59 -33.5 -93.5t-77.5 -34.5z" />
    <glyph glyph-name="Odieresis" unicode="&#xd6;" 
d="M305 -13q-134 0 -205.5 89.5t-71.5 266.5q0 176 72 266t205 90q134 0 206.5 -90.5t72.5 -265.5q0 -178 -71 -267t-208 -89zM305 132q113 0 113 209q0 210 -113 210q-112 0 -112 -210q0 -95 27 -152t85 -57zM341 777v122h127v-122h-127zM149 777v122h126v-122h-126z" />
    <glyph glyph-name="multiply" unicode="&#xd7;" 
d="M156 84l-101 101l151 151l-151 151l101 101l151 -151l151 151l101 -101l-151 -151l151 -151l-101 -101l-151 151z" />
    <glyph glyph-name="Oslash" unicode="&#xd8;" 
d="M118 -59l-113 69l69 105q-46 85 -46 229q0 175 72 265t205 90q73 0 133 -29l50 76l113 -71l-67 -101q50 -92 50 -230q0 -179 -71 -268t-208 -89q-78 0 -136 31zM305 128q60 0 87.5 58t27.5 156q0 20 -2 54l-166 -252q22 -16 53 -16zM192 296l163 247q-26 12 -50 12
q-114 0 -114 -213q0 -31 1 -46z" />
    <glyph glyph-name="Ugrave" unicode="&#xd9;" 
d="M306 -13q-133 0 -198.5 64t-65.5 212v422h176v-422q0 -65 18.5 -96.5t69.5 -31.5t69.5 31.5t18.5 96.5v422h176v-422q0 -148 -65.5 -212t-198.5 -64zM247 773l-120 129h190l72 -129h-142z" />
    <glyph glyph-name="Uacute" unicode="&#xda;" 
d="M306 -13q-133 0 -198.5 64t-65.5 212v422h176v-422q0 -65 18.5 -96.5t69.5 -31.5t69.5 31.5t18.5 96.5v422h176v-422q0 -148 -65.5 -212t-198.5 -64zM221 773l72 129h190l-120 -129h-142z" />
    <glyph glyph-name="Ucircumflex" unicode="&#xdb;" 
d="M306 -13q-133 0 -198.5 64t-65.5 212v422h176v-422q0 -65 18.5 -96.5t69.5 -31.5t69.5 31.5t18.5 96.5v422h176v-422q0 -148 -65.5 -212t-198.5 -64zM120 773l97 129h178l96 -129h-134l-50 52h-2l-50 -52h-135z" />
    <glyph glyph-name="Udieresis" unicode="&#xdc;" 
d="M306 -13q-133 0 -198.5 64t-65.5 212v422h176v-422q0 -65 18.5 -96.5t69.5 -31.5t69.5 31.5t18.5 96.5v422h176v-422q0 -148 -65.5 -212t-198.5 -64zM340 777v122h127v-122h-127zM148 777v122h126v-122h-126z" />
    <glyph glyph-name="Yacute" unicode="&#xdd;" 
d="M215 0v247l-209 438h188l49 -118q26 -61 66 -161h3q5 12 24 63.5t36 91.5l48 124h186l-210 -438v-247h-181zM223 773l72 129h190l-120 -129h-142z" />
    <glyph glyph-name="Thorn" unicode="&#xde;" 
d="M58 0v685h174v-98h103q115 0 177 -56.5t62 -161.5q0 -219 -248 -219h-94v-150h-174zM232 287h73q47 0 70.5 19t23.5 63t-23.5 62.5t-70.5 18.5h-73v-163z" />
    <glyph glyph-name="germandbls" unicode="&#xdf;" 
d="M325 -3q-35 0 -51 3l-2 121q8 -1 24 -1q50 0 82.5 27.5t32.5 81.5q0 58 -37 80.5t-101 22.5v129q95 0 95 82q0 33 -20.5 55t-54.5 22t-53 -19q-23 -23 -23 -76v-525h-169v488q0 134 61.5 193.5t192.5 59.5q114 0 177.5 -48t63.5 -133q0 -109 -95 -149q134 -46 134 -189
q0 -112 -70.5 -168.5t-186.5 -56.5z" />
    <glyph glyph-name="agrave" unicode="&#xe0;" 
d="M243 -8q-88 0 -142 42t-54 118q0 67 42 102.5t129 54.5q18 4 118 23q21 4 29.5 10.5t8.5 21.5q0 23 -18 36.5t-51 13.5q-72 0 -78 -74l-164 8q4 82 71 134.5t176 52.5q231 0 231 -209v-298q0 -17 1 -28h-146v16q0 8 0.5 18.5t0.5 11.5h-4q-51 -54 -150 -54zM281 101
q95 0 95 98v4q0 16 3 27l-45 -10l-56 -12q-63 -13 -63 -55q0 -52 66 -52zM254 601l-120 129h190l72 -129h-142z" />
    <glyph glyph-name="aacute" unicode="&#xe1;" 
d="M243 -8q-88 0 -142 42t-54 118q0 67 42 102.5t129 54.5q18 4 118 23q21 4 29.5 10.5t8.5 21.5q0 23 -18 36.5t-51 13.5q-72 0 -78 -74l-164 8q4 82 71 134.5t176 52.5q231 0 231 -209v-298q0 -17 1 -28h-146v16q0 8 0.5 18.5t0.5 11.5h-4q-51 -54 -150 -54zM281 101
q95 0 95 98v4q0 16 3 27l-45 -10l-56 -12q-63 -13 -63 -55q0 -52 66 -52zM234 601l72 129h190l-120 -129h-142z" />
    <glyph glyph-name="acircumflex" unicode="&#xe2;" 
d="M243 -8q-88 0 -142 42t-54 118q0 67 42 102.5t129 54.5q18 4 118 23q21 4 29.5 10.5t8.5 21.5q0 23 -18 36.5t-51 13.5q-72 0 -78 -74l-164 8q4 82 71 134.5t176 52.5q231 0 231 -209v-298q0 -17 1 -28h-146v16q0 8 0.5 18.5t0.5 11.5h-4q-51 -54 -150 -54zM281 101
q95 0 95 98v4q0 16 3 27l-45 -10l-56 -12q-63 -13 -63 -55q0 -52 66 -52zM124 601l97 129h178l96 -129h-134l-50 52h-2l-50 -52h-135z" />
    <glyph glyph-name="atilde" unicode="&#xe3;" 
d="M243 -8q-88 0 -142 42t-54 118q0 67 42 102.5t129 54.5q18 4 118 23q21 4 29.5 10.5t8.5 21.5q0 23 -18 36.5t-51 13.5q-72 0 -78 -74l-164 8q4 82 71 134.5t176 52.5q231 0 231 -209v-298q0 -17 1 -28h-146v16q0 8 0.5 18.5t0.5 11.5h-4q-51 -54 -150 -54zM281 101
q95 0 95 98v4q0 16 3 27l-45 -10l-56 -12q-63 -13 -63 -55q0 -52 66 -52zM385 595q-34 0 -76 19l-7 3q-31 13 -44 13q-26 0 -33 -33l-90 5q5 59 33.5 93.5t77.5 34.5q34 0 76 -19l7 -3q31 -13 44 -13q26 0 33 33l90 -5q-5 -59 -33.5 -93.5t-77.5 -34.5z" />
    <glyph glyph-name="adieresis" unicode="&#xe4;" 
d="M243 -8q-88 0 -142 42t-54 118q0 67 42 102.5t129 54.5q18 4 118 23q21 4 29.5 10.5t8.5 21.5q0 23 -18 36.5t-51 13.5q-72 0 -78 -74l-164 8q4 82 71 134.5t176 52.5q231 0 231 -209v-298q0 -17 1 -28h-146v16q0 8 0.5 18.5t0.5 11.5h-4q-51 -54 -150 -54zM281 101
q95 0 95 98v4q0 16 3 27l-45 -10l-56 -12q-63 -13 -63 -55q0 -52 66 -52zM342 599v122h127v-122h-127zM150 599v122h126v-122h-126z" />
    <glyph glyph-name="aring" unicode="&#xe5;" 
d="M243 -8q-88 0 -142 42t-54 118q0 67 42 102.5t129 54.5q18 4 118 23q21 4 29.5 10.5t8.5 21.5q0 23 -18 36.5t-51 13.5q-72 0 -78 -74l-164 8q4 82 71 134.5t176 52.5q231 0 231 -209v-298q0 -17 1 -28h-146v16q0 8 0.5 18.5t0.5 11.5h-4q-51 -54 -150 -54zM281 101
q95 0 95 98v4q0 16 3 27l-45 -10l-56 -12q-63 -13 -63 -55q0 -52 66 -52zM306 571q-46 0 -77.5 32t-31.5 78q0 44 32 76t78 32q47 0 78 -31.5t31 -76.5q0 -46 -31.5 -78t-78.5 -32zM306 641q17 0 28 11.5t11 28.5q0 15 -11 26.5t-28 11.5q-16 0 -27.5 -11.5t-11.5 -26.5
q0 -17 11.5 -28.5t27.5 -11.5z" />
    <glyph glyph-name="ae" unicode="&#xe6;" 
d="M142 -8q-66 0 -104 41.5t-38 118.5q0 66 30 100t93 52l83 25q28 10 28 35q0 56 -50 56q-28 0 -42.5 -21t-13.5 -59l-116 8q0 87 48 138t128 51q77 0 117 -53q47 53 122 53q186 0 186 -282q0 -16 -1 -35h-265q4 -114 83 -114q50 0 69 56l112 -31q-21 -63 -68.5 -101
t-114.5 -38q-94 0 -143 73q-52 -73 -143 -73zM167 101q68 0 68 98v4q0 20 2 27l-72 -22q-45 -13 -45 -55q0 -52 47 -52zM348 322h145q1 46 -17.5 73.5t-50.5 27.5q-34 0 -54.5 -27.5t-22.5 -73.5z" />
    <glyph glyph-name="ccedilla" unicode="&#xe7;" 
d="M316 -12q-123 0 -197 77t-74 197q0 125 75.5 202t197.5 77q94 0 160 -48.5t87 -128.5l-153 -34q-27 71 -93 71q-50 0 -77 -36.5t-27 -102.5q0 -67 28 -101.5t77 -34.5q69 0 93 69l153 -36q-22 -77 -89 -124t-161 -47zM323 -179h-184q12 14 50 61t60 72h141z" />
    <glyph glyph-name="egrave" unicode="&#xe8;" 
d="M316 -12q-124 0 -199.5 74t-75.5 202q0 123 76 199.5t198 76.5q127 0 194 -79t67 -216q0 -14 -1 -25h-372q6 -49 36 -76.5t80 -27.5q75 0 116 64l139 -49q-35 -65 -100 -104t-158 -39zM205 325h203q-2 46 -27 72t-69 26q-47 0 -74 -26t-33 -72zM256 601l-120 129h190
l72 -129h-142z" />
    <glyph glyph-name="eacute" unicode="&#xe9;" 
d="M316 -12q-124 0 -199.5 74t-75.5 202q0 123 76 199.5t198 76.5q127 0 194 -79t67 -216q0 -14 -1 -25h-372q6 -49 36 -76.5t80 -27.5q75 0 116 64l139 -49q-35 -65 -100 -104t-158 -39zM205 325h203q-2 46 -27 72t-69 26q-47 0 -74 -26t-33 -72zM239 601l72 129h190
l-120 -129h-142z" />
    <glyph glyph-name="ecircumflex" unicode="&#xea;" 
d="M316 -12q-124 0 -199.5 74t-75.5 202q0 123 76 199.5t198 76.5q127 0 194 -79t67 -216q0 -14 -1 -25h-372q6 -49 36 -76.5t80 -27.5q75 0 116 64l139 -49q-35 -65 -100 -104t-158 -39zM205 325h203q-2 46 -27 72t-69 26q-47 0 -74 -26t-33 -72zM125 601l97 129h178
l96 -129h-134l-50 52h-2l-50 -52h-135z" />
    <glyph glyph-name="edieresis" unicode="&#xeb;" 
d="M316 -12q-124 0 -199.5 74t-75.5 202q0 123 76 199.5t198 76.5q127 0 194 -79t67 -216q0 -14 -1 -25h-372q6 -49 36 -76.5t80 -27.5q75 0 116 64l139 -49q-35 -65 -100 -104t-158 -39zM205 325h203q-2 46 -27 72t-69 26q-47 0 -74 -26t-33 -72zM347 599v122h127v-122
h-127zM155 599v122h126v-122h-126z" />
    <glyph glyph-name="igrave" unicode="&#xec;" 
d="M74 0v136h152v244h-152v136h323v-380h153v-136h-476zM255 601l-120 129h190l72 -129h-142z" />
    <glyph glyph-name="iacute" unicode="&#xed;" 
d="M74 0v136h152v244h-152v136h323v-380h153v-136h-476zM215 601l72 129h190l-120 -129h-142z" />
    <glyph glyph-name="icircumflex" unicode="&#xee;" 
d="M74 0v136h152v244h-152v136h323v-380h153v-136h-476zM118 601l97 129h178l96 -129h-134l-50 52h-2l-50 -52h-135z" />
    <glyph glyph-name="idieresis" unicode="&#xef;" 
d="M74 0v136h152v244h-152v136h323v-380h153v-136h-476zM333 599v122h127v-122h-127zM141 599v122h126v-122h-126z" />
    <glyph glyph-name="eth" unicode="&#xf0;" 
d="M304 -13q-123 0 -197 72.5t-74 196.5q0 120 66 193t157 73q63 0 90 -27l4 3q-25 40 -70 84l-92 -42l-66 64l80 36q-53 38 -109 63l125 60q66 -22 124 -60l88 40l61 -66l-75 -35q157 -154 157 -355q0 -148 -72.5 -224t-196.5 -76zM303 117q103 0 103 138q0 64 -26.5 101.5
t-76.5 37.5q-52 0 -78 -37t-26 -102q0 -66 26.5 -102t77.5 -36z" />
    <glyph glyph-name="ntilde" unicode="&#xf1;" 
d="M56 0v439q0 58 -1 87h165v-26q0 -27 -1 -44h3q17 35 58 59t97 24q180 0 180 -219v-320h-170v274q0 67 -18.5 94.5t-59.5 27.5q-84 0 -84 -115v-281h-169zM378 595q-34 0 -76 19l-7 3q-31 13 -44 13q-26 0 -33 -33l-90 5q5 59 33.5 93.5t77.5 34.5q34 0 76 -19l7 -3
q31 -13 44 -13q26 0 33 33l90 -5q-5 -59 -33.5 -93.5t-77.5 -34.5z" />
    <glyph glyph-name="ograve" unicode="&#xf2;" 
d="M306 -12q-124 0 -198 75.5t-74 199.5t75 201t197 77t196.5 -77t74.5 -201q0 -123 -74.5 -199t-196.5 -76zM306 126q51 0 77 35.5t26 100.5t-26 102t-77 37t-78 -37t-27 -101q0 -66 27 -101.5t78 -35.5zM255 601l-120 129h190l72 -129h-142z" />
    <glyph glyph-name="oacute" unicode="&#xf3;" 
d="M306 -12q-124 0 -198 75.5t-74 199.5t75 201t197 77t196.5 -77t74.5 -201q0 -123 -74.5 -199t-196.5 -76zM306 126q51 0 77 35.5t26 100.5t-26 102t-77 37t-78 -37t-27 -101q0 -66 27 -101.5t78 -35.5zM225 601l72 129h190l-120 -129h-142z" />
    <glyph glyph-name="ocircumflex" unicode="&#xf4;" 
d="M306 -12q-124 0 -198 75.5t-74 199.5t75 201t197 77t196.5 -77t74.5 -201q0 -123 -74.5 -199t-196.5 -76zM306 126q51 0 77 35.5t26 100.5t-26 102t-77 37t-78 -37t-27 -101q0 -66 27 -101.5t78 -35.5zM121 601l97 129h178l96 -129h-134l-50 52h-2l-50 -52h-135z" />
    <glyph glyph-name="otilde" unicode="&#xf5;" 
d="M306 -12q-124 0 -198 75.5t-74 199.5t75 201t197 77t196.5 -77t74.5 -201q0 -123 -74.5 -199t-196.5 -76zM306 126q51 0 77 35.5t26 100.5t-26 102t-77 37t-78 -37t-27 -101q0 -66 27 -101.5t78 -35.5zM377 595q-34 0 -76 19l-7 3q-31 13 -44 13q-26 0 -33 -33l-90 5
q5 59 33.5 93.5t77.5 34.5q34 0 76 -19l7 -3q31 -13 44 -13q26 0 33 33l90 -5q-5 -59 -33.5 -93.5t-77.5 -34.5z" />
    <glyph glyph-name="odieresis" unicode="&#xf6;" 
d="M306 -12q-124 0 -198 75.5t-74 199.5t75 201t197 77t196.5 -77t74.5 -201q0 -123 -74.5 -199t-196.5 -76zM306 126q51 0 77 35.5t26 100.5t-26 102t-77 37t-78 -37t-27 -101q0 -66 27 -101.5t78 -35.5zM339 599v122h127v-122h-127zM147 599v122h126v-122h-126z" />
    <glyph glyph-name="divide" unicode="&#xf7;" 
d="M65 263v149h483v-149h-483zM305 39q-38 0 -63.5 25.5t-25.5 63.5t25.5 64t63.5 26t64 -26t26 -64t-26 -63.5t-64 -25.5zM305 459q-38 0 -63.5 25.5t-25.5 63.5t25.5 64t63.5 26t64 -26t26 -64t-26 -63.5t-64 -25.5z" />
    <glyph glyph-name="oslash" unicode="&#xf8;" 
d="M142 -65l-99 63l55 76q-64 75 -64 189q0 124 75 201t197 77q55 0 112 -21l47 66l103 -67l-52 -71q61 -75 61 -185q0 -123 -74.5 -199t-196.5 -76q-60 0 -111 19zM306 122q106 0 106 140q0 21 -3 39l-129 -177q16 -2 26 -2zM201 219l132 183q-13 3 -27 3
q-53 0 -80.5 -38.5t-27.5 -103.5q0 -25 3 -44z" />
    <glyph glyph-name="ugrave" unicode="&#xf9;" 
d="M233 -13q-179 0 -179 219v320h170v-274q0 -67 18 -94.5t58 -27.5q84 0 84 116v280h169v-439q0 -58 1 -87h-166v24q0 22 1 39h-3q-44 -76 -153 -76zM250 601l-120 129h190l72 -129h-142z" />
    <glyph glyph-name="uacute" unicode="&#xfa;" 
d="M233 -13q-179 0 -179 219v320h170v-274q0 -67 18 -94.5t58 -27.5q84 0 84 116v280h169v-439q0 -58 1 -87h-166v24q0 22 1 39h-3q-44 -76 -153 -76zM205 601l72 129h190l-120 -129h-142z" />
    <glyph glyph-name="ucircumflex" unicode="&#xfb;" 
d="M233 -13q-179 0 -179 219v320h170v-274q0 -67 18 -94.5t58 -27.5q84 0 84 116v280h169v-439q0 -58 1 -87h-166v24q0 22 1 39h-3q-44 -76 -153 -76zM119 601l97 129h178l96 -129h-134l-50 52h-2l-50 -52h-135z" />
    <glyph glyph-name="udieresis" unicode="&#xfc;" 
d="M233 -13q-179 0 -179 219v320h170v-274q0 -67 18 -94.5t58 -27.5q84 0 84 116v280h169v-439q0 -58 1 -87h-166v24q0 22 1 39h-3q-44 -76 -153 -76zM339 599v122h127v-122h-127zM147 599v122h126v-122h-126z" />
    <glyph glyph-name="yacute" unicode="&#xfd;" 
d="M150 -190q-46 0 -70 1l-16 129q46 -2 59 -2q44 0 62.5 10t28.5 38l5 15l-195 525h182l58 -195q8 -26 22.5 -83.5t20.5 -78.5h5q18 76 42 161l56 196h178l-203 -556q-20 -54 -41.5 -86t-51.5 -48.5t-60.5 -21t-81.5 -4.5zM215 601l72 129h190l-120 -129h-142z" />
    <glyph glyph-name="thorn" unicode="&#xfe;" 
d="M41 -188v918h170v-214q0 -18 -2 -50h3q55 74 147 74q98 0 159.5 -77t61.5 -200q0 -124 -61.5 -199.5t-162.5 -75.5q-99 0 -143 70h-3q0 -4 0.5 -21t0.5 -28v-197h-170zM309 123q48 0 75.5 38.5t27.5 100.5q0 64 -26.5 102t-76.5 38t-76.5 -37.5t-26.5 -102.5
q0 -64 27 -101.5t76 -37.5z" />
    <glyph glyph-name="ydieresis" unicode="&#xff;" 
d="M150 -190q-46 0 -70 1l-16 129q46 -2 59 -2q44 0 62.5 10t28.5 38l5 15l-195 525h182l58 -195q8 -26 22.5 -83.5t20.5 -78.5h5q18 76 42 161l56 196h178l-203 -556q-20 -54 -41.5 -86t-51.5 -48.5t-60.5 -21t-81.5 -4.5zM342 599v122h127v-122h-127zM150 599v122h126
v-122h-126z" />
    <glyph glyph-name="Amacron" unicode="&#x100;" 
d="M11 0l190 685h206l194 -685h-168l-40 150h-180l-38 -150h-164zM247 287h113l-28 122q-8 38 -28 141h-4q-1 -3 -10 -57.5t-16 -83.5zM164 788v103h280v-103h-280z" />
    <glyph glyph-name="amacron" unicode="&#x101;" 
d="M243 -8q-88 0 -142 42t-54 118q0 67 42 102.5t129 54.5q18 4 118 23q21 4 29.5 10.5t8.5 21.5q0 23 -18 36.5t-51 13.5q-72 0 -78 -74l-164 8q4 82 71 134.5t176 52.5q231 0 231 -209v-298q0 -17 1 -28h-146v16q0 8 0.5 18.5t0.5 11.5h-4q-51 -54 -150 -54zM281 101
q95 0 95 98v4q0 16 3 27l-45 -10l-56 -12q-63 -13 -63 -55q0 -52 66 -52zM165 616v103h280v-103h-280z" />
    <glyph glyph-name="Abreve" unicode="&#x102;" 
d="M11 0l190 685h206l194 -685h-168l-40 150h-180l-38 -150h-164zM247 287h113l-28 122q-8 38 -28 141h-4q-1 -3 -10 -57.5t-16 -83.5zM303 763q-67 0 -111 33t-56 95l93 14q17 -45 74 -45q55 0 75 45l92 -14q-13 -62 -56.5 -95t-110.5 -33z" />
    <glyph glyph-name="abreve" unicode="&#x103;" 
d="M243 -8q-88 0 -142 42t-54 118q0 67 42 102.5t129 54.5q18 4 118 23q21 4 29.5 10.5t8.5 21.5q0 23 -18 36.5t-51 13.5q-72 0 -78 -74l-164 8q4 82 71 134.5t176 52.5q231 0 231 -209v-298q0 -17 1 -28h-146v16q0 8 0.5 18.5t0.5 11.5h-4q-51 -54 -150 -54zM281 101
q95 0 95 98v4q0 16 3 27l-45 -10l-56 -12q-63 -13 -63 -55q0 -52 66 -52zM308 591q-67 0 -111 33t-56 95l93 14q16 -45 74 -45q56 0 75 45l92 -14q-13 -62 -56.5 -95t-110.5 -33z" />
    <glyph glyph-name="Aogonek" unicode="&#x104;" 
d="M526 -198q-71 0 -109.5 25.5t-38.5 70.5q0 31 19.5 54.5t57.5 47.5h-22l-40 150h-180l-38 -150h-164l190 685h206l194 -685q-85 -38 -85 -69q0 -25 38 -25q25 0 46 14l52 -86q-50 -32 -126 -32zM247 287h113l-28 122q-8 38 -28 141h-4q-1 -3 -10 -57.5t-16 -83.5z" />
    <glyph glyph-name="aogonek" unicode="&#x105;" 
d="M467 -198q-71 0 -109.5 25.5t-38.5 70.5q0 31 19.5 54.5t57.5 47.5v16q0 8 0.5 18.5t0.5 11.5h-4q-51 -54 -150 -54q-88 0 -142 42t-54 118q0 67 42 102.5t129 54.5q18 4 118 23q21 4 29.5 10.5t8.5 21.5q0 23 -18 36.5t-51 13.5q-72 0 -78 -74l-164 8q4 82 71 134.5
t176 52.5q231 0 231 -209v-298q0 -17 1 -28q-85 -38 -85 -69q0 -25 38 -25q25 0 46 14l52 -86q-50 -32 -126 -32zM281 101q95 0 95 98v4q0 16 3 27l-45 -10l-56 -12q-63 -13 -63 -55q0 -52 66 -52z" />
    <glyph glyph-name="Cacute" unicode="&#x106;" 
d="M314 -13q-137 0 -209 89t-72 268q0 177 74 266t207 89q98 0 163 -52.5t90 -147.5l-154 -40q-25 93 -100 93q-115 0 -115 -208q0 -213 118 -213q68 0 95 93l159 -35q-27 -97 -91.5 -149.5t-164.5 -52.5zM224 773l72 129h190l-120 -129h-142z" />
    <glyph glyph-name="cacute" unicode="&#x107;" 
d="M316 -12q-123 0 -197 77t-74 197q0 125 75.5 202t197.5 77q94 0 160 -48.5t87 -128.5l-153 -34q-27 71 -93 71q-50 0 -77 -36.5t-27 -102.5q0 -67 28 -101.5t77 -34.5q69 0 93 69l153 -36q-22 -77 -89 -124t-161 -47zM234 601l72 129h190l-120 -129h-142z" />
    <glyph glyph-name="Ccircumflex" unicode="&#x108;" 
d="M314 -13q-137 0 -209 89t-72 268q0 177 74 266t207 89q98 0 163 -52.5t90 -147.5l-154 -40q-25 93 -100 93q-115 0 -115 -208q0 -213 118 -213q68 0 95 93l159 -35q-27 -97 -91.5 -149.5t-164.5 -52.5zM127 773l97 129h178l96 -129h-134l-50 52h-2l-50 -52h-135z" />
    <glyph glyph-name="ccircumflex" unicode="&#x109;" 
d="M316 -12q-123 0 -197 77t-74 197q0 125 75.5 202t197.5 77q94 0 160 -48.5t87 -128.5l-153 -34q-27 71 -93 71q-50 0 -77 -36.5t-27 -102.5q0 -67 28 -101.5t77 -34.5q69 0 93 69l153 -36q-22 -77 -89 -124t-161 -47zM136 601l97 129h178l96 -129h-134l-50 52h-2l-50 -52
h-135z" />
    <glyph glyph-name="Cdotaccent" unicode="&#x10a;" 
d="M314 -13q-137 0 -209 89t-72 268q0 177 74 266t207 89q98 0 163 -52.5t90 -147.5l-154 -40q-25 93 -100 93q-115 0 -115 -208q0 -213 118 -213q68 0 95 93l159 -35q-27 -97 -91.5 -149.5t-164.5 -52.5zM248 775v122h132v-122h-132z" />
    <glyph glyph-name="cdotaccent" unicode="&#x10b;" 
d="M316 -12q-123 0 -197 77t-74 197q0 125 75.5 202t197.5 77q94 0 160 -48.5t87 -128.5l-153 -34q-27 71 -93 71q-50 0 -77 -36.5t-27 -102.5q0 -67 28 -101.5t77 -34.5q69 0 93 69l153 -36q-22 -77 -89 -124t-161 -47zM252 600v122h132v-122h-132z" />
    <glyph glyph-name="Ccaron" unicode="&#x10c;" 
d="M314 -13q-137 0 -209 89t-72 268q0 177 74 266t207 89q98 0 163 -52.5t90 -147.5l-154 -40q-25 93 -100 93q-115 0 -115 -208q0 -213 118 -213q68 0 95 93l159 -35q-27 -97 -91.5 -149.5t-164.5 -52.5zM224 773l-97 129h135l50 -52h2l50 52h134l-96 -129h-178z" />
    <glyph glyph-name="ccaron" unicode="&#x10d;" 
d="M316 -12q-123 0 -197 77t-74 197q0 125 75.5 202t197.5 77q94 0 160 -48.5t87 -128.5l-153 -34q-27 71 -93 71q-50 0 -77 -36.5t-27 -102.5q0 -67 28 -101.5t77 -34.5q69 0 93 69l153 -36q-22 -77 -89 -124t-161 -47zM232 601l-97 129h135l50 -52h2l50 52h134l-96 -129
h-178z" />
    <glyph glyph-name="Dcaron" unicode="&#x10e;" 
d="M44 0v685h212q142 0 220 -66q100 -84 100 -274q0 -206 -120 -290q-44 -31 -97 -43t-134 -12h-181zM213 140h36q78 0 116.5 45.5t38.5 157.5q0 106 -35 154t-125 48h-31v-405zM207 773l-97 129h135l50 -52h2l50 52h134l-96 -129h-178z" />
    <glyph glyph-name="dcaron" unicode="&#x10f;" 
d="M186 -12q-89 0 -139.5 72.5t-50.5 202.5q0 126 50.5 201.5t136.5 75.5q78 0 109 -74h2q-5 67 -5 153v111h155v-650q0 -53 1 -80h-152v21v41h-2q-31 -74 -105 -74zM229 123q32 0 49.5 36.5t17.5 102.5q0 140 -67 140q-73 0 -73 -140q0 -65 18.5 -102t54.5 -37zM457 561
l33 169h152l-61 -169h-124z" />
    <glyph glyph-name="Dcroat" unicode="&#x110;" 
d="M44 0v279h-64v136h64v270h212q142 0 220 -66q100 -84 100 -274q0 -206 -120 -290q-44 -31 -97 -43t-134 -12h-181zM212 140h37q78 0 116.5 45.5t38.5 157.5q0 106 -35 154t-125 48h-32v-131h104v-135h-104v-139z" />
    <glyph glyph-name="dslash" unicode="&#x111;" 
d="M256 -12q-101 0 -162.5 75t-61.5 200q0 123 61.5 200t159.5 77q102 0 148 -74h3q-2 32 -2 108h-143v115h143v41h169v-41h40v-115h-40v-494q0 -53 1 -80h-167v21q0 8 0.5 21t0.5 20h-3q-47 -74 -147 -74zM303 123q49 0 76 37.5t27 101.5q0 65 -26.5 102.5t-76.5 37.5
t-76.5 -38t-26.5 -102q0 -62 27.5 -100.5t75.5 -38.5z" />
    <glyph glyph-name="Emacron" unicode="&#x112;" 
d="M64 0v685h460v-142h-290v-121h266v-142h-266v-138h294v-142h-464zM154 788v103h280v-103h-280z" />
    <glyph glyph-name="emacron" unicode="&#x113;" 
d="M316 -12q-124 0 -199.5 74t-75.5 202q0 123 76 199.5t198 76.5q127 0 194 -79t67 -216q0 -14 -1 -25h-372q6 -49 36 -76.5t80 -27.5q75 0 116 64l139 -49q-35 -65 -100 -104t-158 -39zM205 325h203q-2 46 -27 72t-69 26q-47 0 -74 -26t-33 -72zM173 616v103h280v-103
h-280z" />
    <glyph glyph-name="Ebreve" unicode="&#x114;" 
d="M64 0v685h460v-142h-290v-121h266v-142h-266v-138h294v-142h-464zM299 763q-67 0 -111 33t-56 95l93 14q16 -45 74 -45q55 0 75 45l92 -14q-13 -62 -56.5 -95t-110.5 -33z" />
    <glyph glyph-name="ebreve" unicode="&#x115;" 
d="M316 -12q-124 0 -199.5 74t-75.5 202q0 123 76 199.5t198 76.5q127 0 194 -79t67 -216q0 -14 -1 -25h-372q6 -49 36 -76.5t80 -27.5q75 0 116 64l139 -49q-35 -65 -100 -104t-158 -39zM205 325h203q-2 46 -27 72t-69 26q-47 0 -74 -26t-33 -72zM312 591q-67 0 -111 33
t-56 95l93 14q16 -45 74 -45q56 0 75 45l92 -14q-13 -62 -56.5 -95t-110.5 -33z" />
    <glyph glyph-name="Edotaccent" unicode="&#x116;" 
d="M64 0v685h460v-142h-290v-121h266v-142h-266v-138h294v-142h-464zM228 775v122h132v-122h-132z" />
    <glyph glyph-name="edotaccent" unicode="&#x117;" 
d="M316 -12q-124 0 -199.5 74t-75.5 202q0 123 76 199.5t198 76.5q127 0 194 -79t67 -216q0 -14 -1 -25h-372q6 -49 36 -76.5t80 -27.5q75 0 116 64l139 -49q-35 -65 -100 -104t-158 -39zM205 325h203q-2 46 -27 72t-69 26q-47 0 -74 -26t-33 -72zM247 600v122h132v-122
h-132z" />
    <glyph glyph-name="Eogonek" unicode="&#x118;" 
d="M64 0v685h460v-142h-290v-121h266v-142h-266v-138h294v-142q-85 -38 -85 -69q0 -25 38 -25q25 0 46 14l52 -86q-50 -32 -126 -32q-71 0 -109.5 25.5t-38.5 70.5q0 31 19.5 54.5t57.5 47.5h-318z" />
    <glyph glyph-name="eogonek" unicode="&#x119;" 
d="M332 -198q-71 0 -109.5 25.5t-38.5 70.5q0 51 67 96q-97 18 -153.5 89t-56.5 181q0 123 76 199.5t198 76.5q127 0 194 -79t67 -216q0 -14 -1 -25h-372q6 -49 36 -76.5t80 -27.5q75 0 116 64l139 -49q-55 -104 -171 -132q-40 -19 -60.5 -34.5t-20.5 -33.5q0 -25 38 -25
q25 0 46 14l52 -86q-50 -32 -126 -32zM205 325h203q-2 46 -27 72t-69 26q-47 0 -74 -26t-33 -72z" />
    <glyph glyph-name="Ecaron" unicode="&#x11a;" 
d="M64 0v685h460v-142h-290v-121h266v-142h-266v-138h294v-142h-464zM211 773l-97 129h135l50 -52h2l50 52h134l-96 -129h-178z" />
    <glyph glyph-name="ecaron" unicode="&#x11b;" 
d="M316 -12q-124 0 -199.5 74t-75.5 202q0 123 76 199.5t198 76.5q127 0 194 -79t67 -216q0 -14 -1 -25h-372q6 -49 36 -76.5t80 -27.5q75 0 116 64l139 -49q-35 -65 -100 -104t-158 -39zM205 325h203q-2 46 -27 72t-69 26q-47 0 -74 -26t-33 -72zM225 601l-97 129h135
l50 -52h2l50 52h134l-96 -129h-178z" />
    <glyph glyph-name="Gcircumflex" unicode="&#x11c;" 
d="M283 -13q-119 0 -187 95t-68 258q0 174 71 266.5t215 92.5q100 0 165.5 -52t90.5 -145l-153 -41q-31 93 -105 93q-120 0 -120 -210q0 -102 31 -159.5t94 -57.5q48 0 75.5 33t33.5 90h-135v133h283v-383h-136v56h-2q-14 -26 -55.5 -47.5t-97.5 -21.5zM126 773l97 129h178
l96 -129h-134l-50 52h-2l-50 -52h-135z" />
    <glyph glyph-name="gcircumflex" unicode="&#x11d;" 
d="M292 -198q-93 0 -157 37t-95 100l130 60q41 -67 124 -67q113 0 114 112q0 9 3 42h-5q-47 -72 -145 -72q-97 0 -158 71.5t-61 188.5q0 115 61 188.5t157 73.5q102 0 149 -70h4q-1 11 -1 30v30h158q-1 -31 -1 -95v-380q0 -124 -76.5 -186.5t-200.5 -62.5zM308 143
q45 0 73 35.5t28 94.5q0 58 -28 93.5t-73 35.5q-47 0 -75 -35.5t-28 -93.5q0 -60 27.5 -95t75.5 -35zM121 601l97 129h178l96 -129h-134l-50 52h-2l-50 -52h-135z" />
    <glyph glyph-name="Gbreve" unicode="&#x11e;" 
d="M283 -13q-119 0 -187 95t-68 258q0 174 71 266.5t215 92.5q100 0 165.5 -52t90.5 -145l-153 -41q-31 93 -105 93q-120 0 -120 -210q0 -102 31 -159.5t94 -57.5q48 0 75.5 33t33.5 90h-135v133h283v-383h-136v56h-2q-14 -26 -55.5 -47.5t-97.5 -21.5zM309 763
q-67 0 -111 33t-56 95l93 14q17 -45 74 -45q55 0 75 45l92 -14q-13 -62 -56.5 -95t-110.5 -33z" />
    <glyph glyph-name="gbreve" unicode="&#x11f;" 
d="M292 -198q-93 0 -157 37t-95 100l130 60q41 -67 124 -67q113 0 114 112q0 9 3 42h-5q-47 -72 -145 -72q-97 0 -158 71.5t-61 188.5q0 115 61 188.5t157 73.5q102 0 149 -70h4q-1 11 -1 30v30h158q-1 -31 -1 -95v-380q0 -124 -76.5 -186.5t-200.5 -62.5zM308 143
q45 0 73 35.5t28 94.5q0 58 -28 93.5t-73 35.5q-47 0 -75 -35.5t-28 -93.5q0 -60 27.5 -95t75.5 -35zM315 591q-67 0 -111 33t-56 95l93 14q17 -45 74 -45q55 0 75 45l92 -14q-13 -62 -56.5 -95t-110.5 -33z" />
    <glyph glyph-name="Gdotaccent" unicode="&#x120;" 
d="M283 -13q-119 0 -187 95t-68 258q0 174 71 266.5t215 92.5q100 0 165.5 -52t90.5 -145l-153 -41q-31 93 -105 93q-120 0 -120 -210q0 -102 31 -159.5t94 -57.5q48 0 75.5 33t33.5 90h-135v133h283v-383h-136v56h-2q-14 -26 -55.5 -47.5t-97.5 -21.5zM243 775v122h132
v-122h-132z" />
    <glyph glyph-name="gdotaccent" unicode="&#x121;" 
d="M292 -198q-93 0 -157 37t-95 100l130 60q41 -67 124 -67q113 0 114 112q0 9 3 42h-5q-47 -72 -145 -72q-97 0 -158 71.5t-61 188.5q0 115 61 188.5t157 73.5q102 0 149 -70h4q-1 11 -1 30v30h158q-1 -31 -1 -95v-380q0 -124 -76.5 -186.5t-200.5 -62.5zM308 143
q45 0 73 35.5t28 94.5q0 58 -28 93.5t-73 35.5q-47 0 -75 -35.5t-28 -93.5q0 -60 27.5 -95t75.5 -35zM252 600v122h132v-122h-132z" />
    <glyph glyph-name="uni0122" unicode="&#x122;" 
d="M283 -13q-119 0 -187 95t-68 258q0 174 71 266.5t215 92.5q100 0 165.5 -52t90.5 -145l-153 -41q-31 93 -105 93q-120 0 -120 -210q0 -102 31 -159.5t94 -57.5q48 0 75.5 33t33.5 90h-135v133h283v-383h-136v56h-2q-14 -26 -55.5 -47.5t-97.5 -21.5zM236 -215v50h5
q24 0 34 4t10 20v2h-49v93h140v-79q0 -54 -33 -76q-22 -14 -79 -14h-28z" />
    <glyph glyph-name="uni0123" unicode="&#x123;" 
d="M292 -198q-93 0 -157 37t-95 100l130 60q41 -67 124 -67q113 0 114 112q0 9 3 42h-5q-47 -72 -145 -72q-97 0 -158 71.5t-61 188.5q0 115 61 188.5t157 73.5q102 0 149 -70h4q-1 11 -1 30v30h158q-1 -31 -1 -95v-380q0 -124 -76.5 -186.5t-200.5 -62.5zM308 143
q45 0 73 35.5t28 94.5q0 58 -28 93.5t-73 35.5q-47 0 -75 -35.5t-28 -93.5q0 -60 27.5 -95t75.5 -35zM222 602v79q0 54 33 76q22 14 79 14h28v-50h-5q-24 0 -34 -4t-10 -20v-2h49v-93h-140z" />
    <glyph glyph-name="Hcircumflex" unicode="&#x124;" 
d="M44 0v685h178v-259h168v259h178v-685h-178v277h-168v-277h-178zM121 773l97 129h178l96 -129h-134l-50 52h-2l-50 -52h-135z" />
    <glyph glyph-name="hcircumflex" unicode="&#x125;" 
d="M55 0v730h171v-147q0 -10 -1 -61t-1 -57h1q51 74 152 74q179 0 179 -219v-320h-170v274q0 67 -18.5 94.5t-58.5 27.5q-84 0 -84 -115v-281h-170zM131 773l97 129h178l96 -129h-134l-50 52h-2l-50 -52h-135z" />
    <glyph glyph-name="Hbar" unicode="&#x126;" 
d="M44 0v685h178v-65h168v65h178v-685h-178v277h-168v-277h-178zM222 423h168v76h-168v-76z" />
    <glyph glyph-name="hbar" unicode="&#x127;" 
d="M55 0v574h-40v115h40v41h171v-41h141v-115h-141q0 -16 -1 -61t-1 -48h1q51 74 152 74q179 0 179 -219v-320h-170v274q0 67 -18.5 94.5t-58.5 27.5q-84 0 -84 -115v-281h-170z" />
    <glyph glyph-name="Itilde" unicode="&#x128;" 
d="M78 0v129h141v427h-141v129h456v-129h-141v-427h141v-129h-456zM384 767q-34 0 -76 19l-7 3q-31 13 -44 13q-26 0 -33 -33l-90 5q5 59 33.5 93.5t77.5 34.5q34 0 76 -19l7 -3q31 -13 44 -13q26 0 33 33l90 -5q-5 -59 -33.5 -93.5t-77.5 -34.5z" />
    <glyph glyph-name="itilde" unicode="&#x129;" 
d="M74 0v136h152v244h-152v136h323v-380h153v-136h-476zM365 595q-34 0 -76 19l-7 3q-31 13 -44 13q-26 0 -33 -33l-90 5q5 59 33.5 93.5t77.5 34.5q34 0 76 -19l7 -3q31 -13 44 -13q26 0 33 33l90 -5q-5 -59 -33.5 -93.5t-77.5 -34.5z" />
    <glyph glyph-name="Imacron" unicode="&#x12a;" 
d="M78 0v129h141v427h-141v129h456v-129h-141v-427h141v-129h-456zM166 788v103h280v-103h-280z" />
    <glyph glyph-name="imacron" unicode="&#x12b;" 
d="M74 0v136h152v244h-152v136h323v-380h153v-136h-476zM163 616v103h280v-103h-280z" />
    <glyph glyph-name="Ibreve" unicode="&#x12c;" 
d="M78 0v129h141v427h-141v129h456v-129h-141v-427h141v-129h-456zM309 763q-67 0 -111 33t-56 95l93 14q17 -45 74 -45q55 0 75 45l92 -14q-13 -62 -56.5 -95t-110.5 -33z" />
    <glyph glyph-name="ibreve" unicode="&#x12d;" 
d="M74 0v136h152v244h-152v136h323v-380h153v-136h-476zM306 591q-67 0 -111 33t-56 95l93 14q16 -45 74 -45q56 0 75 45l92 -14q-13 -62 -56.5 -95t-110.5 -33z" />
    <glyph glyph-name="Iogonek" unicode="&#x12e;" 
d="M78 0v129h141v427h-141v129h456v-129h-141v-427h141v-129h-140q-85 -38 -85 -69q0 -25 38 -25q25 0 46 14l52 -86q-50 -32 -126 -32q-71 0 -109.5 25.5t-38.5 70.5q0 31 19.5 54.5t57.5 47.5h-170z" />
    <glyph glyph-name="iogonek" unicode="&#x12f;" 
d="M74 0v136h152v244h-152v136h323v-380h153v-136h-160q-85 -38 -85 -69q0 -25 38 -25q25 0 46 14l52 -86q-50 -32 -126 -32q-71 0 -109.5 25.5t-38.5 70.5q0 31 19.5 54.5t57.5 47.5h-170zM202 583v147h200v-147h-200z" />
    <glyph glyph-name="Idot" unicode="&#x130;" 
d="M78 0v129h141v427h-141v129h456v-129h-141v-427h141v-129h-456zM241 775v122h132v-122h-132z" />
    <glyph glyph-name="dotlessi" unicode="&#x131;" 
d="M74 0v136h152v244h-152v136h323v-380h153v-136h-476z" />
    <glyph glyph-name="IJ" unicode="&#x132;" 
d="M265 0v144h68q36 0 50 15t14 44v482h171v-494q0 -62 -12.5 -100t-44.5 -58t-73.5 -26.5t-111.5 -6.5h-61zM44 0v685h172v-685h-172z" />
    <glyph glyph-name="ij" unicode="&#x133;" 
d="M271 -188v130h75q31 0 42.5 14.5t11.5 47.5v376h-133v136h304v-528q0 -57 -12 -92t-42.5 -53.5t-70 -24.5t-106.5 -6h-69zM46 0v516h171v-516h-171zM34 583v147h188v-147h-188zM386 583v147h190v-147h-190z" />
    <glyph glyph-name="Jcircumflex" unicode="&#x134;" 
d="M287 -13q-215 0 -227 206l154 15q5 -79 67 -79q36 0 50 25t14 75v456h171v-466q0 -111 -57.5 -171.5t-171.5 -60.5zM238 773l97 129h178l96 -129h-134l-50 52h-2l-50 -52h-135z" />
    <glyph glyph-name="jcircumflex" unicode="&#x135;" 
d="M101 -188v130h135q31 0 42.5 14.5t11.5 47.5v376h-193v136h364v-528q0 -57 -12 -92t-42.5 -53.5t-70 -24.5t-106.5 -6h-129zM180 601l97 129h178l96 -129h-134l-50 52h-2l-50 -52h-135z" />
    <glyph glyph-name="uni0136" unicode="&#x136;" 
d="M62 0v685h172v-149q0 -19 -0.5 -61t-0.5 -65h2q60 104 69 117l98 158h201l-214 -308l212 -377h-200l-124 242l-43 -66v-176h-172zM248 -215v50h5q24 0 34 4t10 20v2h-49v93h140v-79q0 -54 -33 -76q-22 -14 -79 -14h-28z" />
    <glyph glyph-name="uni0137" unicode="&#x137;" 
d="M77 0v730h171v-263q0 -23 -0.5 -72.5t-0.5 -77.5h2q7 9 28.5 39t34.5 46l98 124h202l-195 -226l210 -300h-207l-121 191l-51 -58v-133h-171zM258 -215v50h5q24 0 34 4t10 20v2h-49v93h140v-79q0 -54 -33 -76q-22 -14 -79 -14h-28z" />
    <glyph glyph-name="kgreenlandic" unicode="&#x138;" 
d="M77 0v526h171v-59q0 -23 -0.5 -72.5t-0.5 -77.5h2q7 9 28.5 39t34.5 46l98 124h202l-195 -226l210 -300h-207l-121 191l-51 -58v-133h-171z" />
    <glyph glyph-name="Lacute" unicode="&#x139;" 
d="M92 0v685h179v-541h263v-144h-442zM104 773l72 129h190l-120 -129h-142z" />
    <glyph glyph-name="lacute" unicode="&#x13a;" 
d="M71 0v136h155v458h-155v136h326v-594h150v-136h-476zM226 773l72 129h190l-120 -129h-142z" />
    <glyph glyph-name="uni013B" unicode="&#x13b;" 
d="M92 0v685h179v-541h263v-144h-442zM240 -215v50h5q24 0 34 4t10 20v2h-49v93h140v-79q0 -54 -33 -76q-22 -14 -79 -14h-28z" />
    <glyph glyph-name="uni013C" unicode="&#x13c;" 
d="M71 0v136h155v458h-155v136h326v-594h150v-136h-476zM237 -215v50h5q24 0 34 4t10 20v2h-49v93h140v-79q0 -54 -33 -76q-22 -14 -79 -14h-28z" />
    <glyph glyph-name="Lcaron" unicode="&#x13d;" 
d="M92 0v685h179v-541h263v-144h-442zM337 517l33 169h162l-61 -169h-134z" />
    <glyph glyph-name="lcaron" unicode="&#x13e;" 
d="M67 0v136h155v458h-155v136h326v-594h150v-136h-476zM427 561l33 169h162l-61 -169h-134z" />
    <glyph glyph-name="Ldot" unicode="&#x13f;" 
d="M92 0v685h179v-541h263v-144h-442zM411 309v122h132v-122h-132z" />
    <glyph glyph-name="ldot" unicode="&#x140;" 
d="M71 0v136h155v458h-155v136h326v-594h150v-136h-476zM480 308v122h132v-122h-132z" />
    <glyph glyph-name="Lslash" unicode="&#x141;" 
d="M92 0v226l-54 -25v136l54 25v323h178v-244l147 69v-136l-147 -69v-161h264v-144h-442z" />
    <glyph glyph-name="lslash" unicode="&#x142;" 
d="M71 0v136h155v129l-92 -40v128l92 40v201h-155v136h326v-268l100 43v-127l-100 -44v-198h150v-136h-476z" />
    <glyph glyph-name="Nacute" unicode="&#x143;" 
d="M44 0v685h204l102 -275q19 -50 41.5 -123.5t25.5 -83.5h6q-8 237 -8 292l1 190h152v-685h-197l-100 261q-16 43 -31.5 91.5t-27.5 91.5t-16 54h-6q6 -80 6 -238v-260h-152zM212 773l72 129h190l-120 -129h-142z" />
    <glyph glyph-name="nacute" unicode="&#x144;" 
d="M56 0v439q0 58 -1 87h165v-26q0 -27 -1 -44h3q17 35 58 59t97 24q180 0 180 -219v-320h-170v274q0 67 -18.5 94.5t-59.5 27.5q-84 0 -84 -115v-281h-169zM223 601l72 129h190l-120 -129h-142z" />
    <glyph glyph-name="uni0145" unicode="&#x145;" 
d="M44 0v685h204l102 -275q19 -50 41.5 -123.5t25.5 -83.5h6q-8 237 -8 292l1 190h152v-685h-197l-100 261q-16 43 -31.5 91.5t-27.5 91.5t-16 54h-6q6 -80 6 -238v-260h-152zM227 -215v50h5q24 0 34 4t10 20v2h-49v93h140v-79q0 -54 -33 -76q-22 -14 -79 -14h-28z" />
    <glyph glyph-name="uni0146" unicode="&#x146;" 
d="M56 0v439q0 58 -1 87h165v-26q0 -27 -1 -44h3q17 35 58 59t97 24q180 0 180 -219v-320h-170v274q0 67 -18.5 94.5t-59.5 27.5q-84 0 -84 -115v-281h-169zM236 -215v50h5q24 0 34 4t10 20v2h-49v93h140v-79q0 -54 -33 -76q-22 -14 -79 -14h-28z" />
    <glyph glyph-name="Ncaron" unicode="&#x147;" 
d="M44 0v685h204l102 -275q19 -50 41.5 -123.5t25.5 -83.5h6q-8 237 -8 292l1 190h152v-685h-197l-100 261q-16 43 -31.5 91.5t-27.5 91.5t-16 54h-6q6 -80 6 -238v-260h-152zM210 773l-97 129h135l50 -52h2l50 52h134l-96 -129h-178z" />
    <glyph glyph-name="ncaron" unicode="&#x148;" 
d="M56 0v439q0 58 -1 87h165v-26q0 -27 -1 -44h3q17 35 58 59t97 24q180 0 180 -219v-320h-170v274q0 67 -18.5 94.5t-59.5 27.5q-84 0 -84 -115v-281h-169zM228 601l-97 129h135l50 -52h2l50 52h134l-96 -129h-178z" />
    <glyph glyph-name="napostrophe" unicode="&#x149;" 
d="M56 0v439q0 58 -1 87h165v-26q0 -27 -1 -44h3q17 35 58 59t97 24q180 0 180 -219v-320h-170v274q0 67 -18.5 94.5t-59.5 27.5q-84 0 -84 -115v-281h-169zM41 563v50h5q24 0 34 4t10 20v2h-49v93h140v-79q0 -54 -33 -76q-22 -14 -79 -14h-28z" />
    <glyph glyph-name="Eng" unicode="&#x14a;" 
d="M383 -198q-168 0 -179 145l134 17q7 -44 45 -44q46 0 46 65v15h-58l-100 261q-16 43 -31.5 91.5t-27.5 91.5t-16 54h-6q6 -80 6 -238v-260h-152v685h204l102 -275q19 -50 41.5 -123.5t25.5 -83.5h6q-8 237 -8 292l1 190h152v-663q0 -109 -44 -164.5t-141 -55.5z" />
    <glyph glyph-name="eng" unicode="&#x14b;" 
d="M234 -188v130h99q31 0 42.5 14.5t11.5 47.5v270q0 67 -18.5 94.5t-59.5 27.5q-84 0 -84 -115v-281h-169v439q0 58 -1 87h165v-26q0 -27 -1 -44h3q17 35 58 59t97 24q180 0 180 -219v-332q0 -57 -12 -92t-42.5 -53.5t-70 -24.5t-106.5 -6h-92z" />
    <glyph glyph-name="Omacron" unicode="&#x14c;" 
d="M305 -13q-134 0 -205.5 89.5t-71.5 266.5q0 176 72 266t205 90q134 0 206.5 -90.5t72.5 -265.5q0 -178 -71 -267t-208 -89zM305 132q113 0 113 209q0 210 -113 210q-112 0 -112 -210q0 -95 27 -152t85 -57zM166 788v103h280v-103h-280z" />
    <glyph glyph-name="omacron" unicode="&#x14d;" 
d="M306 -12q-124 0 -198 75.5t-74 199.5t75 201t197 77t196.5 -77t74.5 -201q0 -123 -74.5 -199t-196.5 -76zM306 126q51 0 77 35.5t26 100.5t-26 102t-77 37t-78 -37t-27 -101q0 -66 27 -101.5t78 -35.5zM167 616v103h280v-103h-280z" />
    <glyph glyph-name="Obreve" unicode="&#x14e;" 
d="M305 -13q-134 0 -205.5 89.5t-71.5 266.5q0 176 72 266t205 90q134 0 206.5 -90.5t72.5 -265.5q0 -178 -71 -267t-208 -89zM305 132q113 0 113 209q0 210 -113 210q-112 0 -112 -210q0 -95 27 -152t85 -57zM306 763q-67 0 -111 33t-56 95l93 14q16 -45 74 -45q56 0 75 45
l92 -14q-13 -62 -56.5 -95t-110.5 -33z" />
    <glyph glyph-name="obreve" unicode="&#x14f;" 
d="M306 -12q-124 0 -198 75.5t-74 199.5t75 201t197 77t196.5 -77t74.5 -201q0 -123 -74.5 -199t-196.5 -76zM306 126q51 0 77 35.5t26 100.5t-26 102t-77 37t-78 -37t-27 -101q0 -66 27 -101.5t78 -35.5zM304 591q-67 0 -111 33t-56 95l93 14q16 -45 74 -45q56 0 75 45
l92 -14q-13 -62 -56.5 -95t-110.5 -33z" />
    <glyph glyph-name="Ohungarumlaut" unicode="&#x150;" 
d="M305 -13q-134 0 -205.5 89.5t-71.5 266.5q0 176 72 266t205 90q134 0 206.5 -90.5t72.5 -265.5q0 -178 -71 -267t-208 -89zM305 132q113 0 113 209q0 210 -113 210q-112 0 -112 -210q0 -95 27 -152t85 -57zM323 773l79 129h190l-127 -129h-142zM90 773l72 129h190
l-120 -129h-142z" />
    <glyph glyph-name="ohungarumlaut" unicode="&#x151;" 
d="M306 -12q-124 0 -198 75.5t-74 199.5t75 201t197 77t196.5 -77t74.5 -201q0 -123 -74.5 -199t-196.5 -76zM306 126q51 0 77 35.5t26 100.5t-26 102t-77 37t-78 -37t-27 -101q0 -66 27 -101.5t78 -35.5zM335 601l79 129h190l-127 -129h-142zM102 601l72 129h190l-120 -129
h-142z" />
    <glyph glyph-name="OE" unicode="&#x152;" 
d="M216 -1q-107 0 -154.5 85t-47.5 260q0 172 48.5 257t153.5 85q55 0 92 -22v21h307v-142h-153v-121h129v-142h-129v-138h157v-142h-311v21q-37 -22 -92 -22zM258 134q31 0 46 24v369q-15 24 -46 24q-44 0 -62.5 -49.5t-18.5 -157.5q0 -109 18.5 -159.5t62.5 -50.5z" />
    <glyph glyph-name="oe" unicode="&#x153;" 
d="M185 -9q-90 0 -139 73.5t-49 198.5t50 200t138 75q69 0 115 -52q52 52 127 52q91 0 138.5 -73.5t47.5 -209.5q0 -20 -1 -35h-265q4 -114 83 -114q50 0 69 56l112 -31q-21 -63 -68.5 -101t-114.5 -38q-82 0 -131 52q-48 -53 -112 -53zM185 115q71 0 71 147q0 70 -18 110.5
t-53 40.5q-34 0 -52 -40.5t-18 -109.5q0 -148 70 -148zM348 322h145q1 47 -18 74t-51 27q-35 0 -54.5 -27t-21.5 -74z" />
    <glyph glyph-name="Racute" unicode="&#x154;" 
d="M44 0v685h308q108 0 165.5 -52t57.5 -150q0 -68 -30.5 -112t-78.5 -64q42 -15 61.5 -46.5t31.5 -106.5l6 -40q14 -87 28 -107v-7h-186q-9 19 -20 90l-9 65q-6 50 -30 72.5t-77 22.5h-53v-250h-174zM218 386h92q42 0 65 22t23 63q0 76 -88 76h-92v-161zM202 773l72 129
h190l-120 -129h-142z" />
    <glyph glyph-name="racute" unicode="&#x155;" 
d="M44 0v136h120v254h-120v136h277v-33q0 -57 -1 -77h6q11 49 50 79q42 31 126 31h93v-155h-126q-84 0 -113 -41q-16 -21 -20.5 -55t-4.5 -97v-42h191v-136h-478zM222 601l72 129h190l-120 -129h-142z" />
    <glyph glyph-name="uni0156" unicode="&#x156;" 
d="M44 0v685h308q108 0 165.5 -52t57.5 -150q0 -68 -30.5 -112t-78.5 -64q42 -15 61.5 -46.5t31.5 -106.5l6 -40q14 -87 28 -107v-7h-186q-9 19 -20 90l-9 65q-6 50 -30 72.5t-77 22.5h-53v-250h-174zM218 386h92q42 0 65 22t23 63q0 76 -88 76h-92v-161zM239 -215v50h5
q24 0 34 4t10 20v2h-49v93h140v-79q0 -54 -33 -76q-22 -14 -79 -14h-28z" />
    <glyph glyph-name="uni0157" unicode="&#x157;" 
d="M44 0v136h120v254h-120v136h277v-33q0 -57 -1 -77h6q11 49 50 79q42 31 126 31h93v-155h-126q-84 0 -113 -41q-16 -21 -20.5 -55t-4.5 -97v-42h191v-136h-478zM173 -215v50h5q24 0 34 4t10 20v2h-49v93h140v-79q0 -54 -33 -76q-22 -14 -79 -14h-28z" />
    <glyph glyph-name="Rcaron" unicode="&#x158;" 
d="M44 0v685h308q108 0 165.5 -52t57.5 -150q0 -68 -30.5 -112t-78.5 -64q42 -15 61.5 -46.5t31.5 -106.5l6 -40q14 -87 28 -107v-7h-186q-9 19 -20 90l-9 65q-6 50 -30 72.5t-77 22.5h-53v-250h-174zM218 386h92q42 0 65 22t23 63q0 76 -88 76h-92v-161zM210 773l-97 129
h135l50 -52h2l50 52h134l-96 -129h-178z" />
    <glyph glyph-name="rcaron" unicode="&#x159;" 
d="M44 0v136h120v254h-120v136h277v-33q0 -57 -1 -77h6q11 49 50 79q42 31 126 31h93v-155h-126q-84 0 -113 -41q-16 -21 -20.5 -55t-4.5 -97v-42h191v-136h-478zM237 601l-97 129h135l50 -52h2l50 52h134l-96 -129h-178z" />
    <glyph glyph-name="Sacute" unicode="&#x15a;" 
d="M293 -13q-229 0 -272 185l159 37q31 -91 122 -91q42 0 66.5 19.5t24.5 55.5q0 31 -21 46t-67 28l-65 17q-100 27 -147.5 76t-47.5 130q0 99 69 154t191 55q105 0 169 -46t85 -130l-153 -33q-11 37 -38.5 56.5t-65.5 19.5q-40 0 -61.5 -18.5t-21.5 -46.5q0 -27 18.5 -44
t63.5 -30l77 -22q94 -26 141.5 -70.5t47.5 -127.5q0 -103 -73 -161.5t-201 -58.5zM224 773l72 129h190l-120 -129h-142z" />
    <glyph glyph-name="sacute" unicode="&#x15b;" 
d="M308 -13q-217 0 -251 157l159 28q17 -69 95 -69q33 0 52.5 12t19.5 33q0 18 -17 28.5t-56 19.5l-66 15q-84 19 -126 55.5t-42 104.5q0 80 62 123.5t169 43.5q200 0 234 -152l-152 -25q-13 61 -83 61q-29 0 -46 -11t-17 -29q0 -19 14.5 -27t58.5 -21l70 -19
q88 -25 127.5 -57t39.5 -102q0 -85 -65 -127t-180 -42zM226 601l72 129h190l-120 -129h-142z" />
    <glyph glyph-name="Scircumflex" unicode="&#x15c;" 
d="M293 -13q-229 0 -272 185l159 37q31 -91 122 -91q42 0 66.5 19.5t24.5 55.5q0 31 -21 46t-67 28l-65 17q-100 27 -147.5 76t-47.5 130q0 99 69 154t191 55q105 0 169 -46t85 -130l-153 -33q-11 37 -38.5 56.5t-65.5 19.5q-40 0 -61.5 -18.5t-21.5 -46.5q0 -27 18.5 -44
t63.5 -30l77 -22q94 -26 141.5 -70.5t47.5 -127.5q0 -103 -73 -161.5t-201 -58.5zM124 773l97 129h178l96 -129h-134l-50 52h-2l-50 -52h-135z" />
    <glyph glyph-name="scircumflex" unicode="&#x15d;" 
d="M308 -13q-217 0 -251 157l159 28q17 -69 95 -69q33 0 52.5 12t19.5 33q0 18 -17 28.5t-56 19.5l-66 15q-84 19 -126 55.5t-42 104.5q0 80 62 123.5t169 43.5q200 0 234 -152l-152 -25q-13 61 -83 61q-29 0 -46 -11t-17 -29q0 -19 14.5 -27t58.5 -21l70 -19
q88 -25 127.5 -57t39.5 -102q0 -85 -65 -127t-180 -42zM130 601l97 129h178l96 -129h-134l-50 52h-2l-50 -52h-135z" />
    <glyph glyph-name="Scedilla" unicode="&#x15e;" 
d="M293 -13q-229 0 -272 185l159 37q31 -91 122 -91q42 0 66.5 19.5t24.5 55.5q0 31 -21 46t-67 28l-65 17q-100 27 -147.5 76t-47.5 130q0 99 69 154t191 55q105 0 169 -46t85 -130l-153 -33q-11 37 -38.5 56.5t-65.5 19.5q-40 0 -61.5 -18.5t-21.5 -46.5q0 -27 18.5 -44
t63.5 -30l77 -22q94 -26 141.5 -70.5t47.5 -127.5q0 -103 -73 -161.5t-201 -58.5zM305 -179h-184q12 14 50 61t60 72h141z" />
    <glyph glyph-name="scedilla" unicode="&#x15f;" 
d="M308 -13q-217 0 -251 157l159 28q17 -69 95 -69q33 0 52.5 12t19.5 33q0 18 -17 28.5t-56 19.5l-66 15q-84 19 -126 55.5t-42 104.5q0 80 62 123.5t169 43.5q200 0 234 -152l-152 -25q-13 61 -83 61q-29 0 -46 -11t-17 -29q0 -19 14.5 -27t58.5 -21l70 -19
q88 -25 127.5 -57t39.5 -102q0 -85 -65 -127t-180 -42zM330 -179h-184q12 14 50 61t60 72h141z" />
    <glyph glyph-name="Scaron" unicode="&#x160;" 
d="M293 -13q-229 0 -272 185l159 37q31 -91 122 -91q42 0 66.5 19.5t24.5 55.5q0 31 -21 46t-67 28l-65 17q-100 27 -147.5 76t-47.5 130q0 99 69 154t191 55q105 0 169 -46t85 -130l-153 -33q-11 37 -38.5 56.5t-65.5 19.5q-40 0 -61.5 -18.5t-21.5 -46.5q0 -27 18.5 -44
t63.5 -30l77 -22q94 -26 141.5 -70.5t47.5 -127.5q0 -103 -73 -161.5t-201 -58.5zM217 773l-97 129h135l50 -52h2l50 52h134l-96 -129h-178z" />
    <glyph glyph-name="scaron" unicode="&#x161;" 
d="M308 -13q-217 0 -251 157l159 28q17 -69 95 -69q33 0 52.5 12t19.5 33q0 18 -17 28.5t-56 19.5l-66 15q-84 19 -126 55.5t-42 104.5q0 80 62 123.5t169 43.5q200 0 234 -152l-152 -25q-13 61 -83 61q-29 0 -46 -11t-17 -29q0 -19 14.5 -27t58.5 -21l70 -19
q88 -25 127.5 -57t39.5 -102q0 -85 -65 -127t-180 -42zM225 601l-97 129h135l50 -52h2l50 52h134l-96 -129h-178z" />
    <glyph glyph-name="uni0162" unicode="&#x162;" 
d="M216 0v541h-172v144h524v-144h-172v-541h-180zM319 -179h-184q12 14 50 61t60 72h141z" />
    <glyph glyph-name="uni0163" unicode="&#x163;" 
d="M542 0h-193q-101 0 -141 36.5t-40 134.5v219h-150v136h150v143h171v-143h203v-136h-206v-215q0 -25 11.5 -35.5t40.5 -10.5h154v-129zM381 -178h-184q12 14 50 61t60 72h141z" />
    <glyph glyph-name="Tcaron" unicode="&#x164;" 
d="M216 0v541h-172v144h524v-144h-172v-541h-180zM219 773l-97 129h135l50 -52h2l50 52h134l-96 -129h-178z" />
    <glyph glyph-name="tcaron" unicode="&#x165;" 
d="M542 0h-193q-101 0 -141 36.5t-40 134.5v219h-150v136h150v143h171v-143h203v-136h-206v-215q0 -25 11.5 -35.5t40.5 -10.5h154v-129zM393 561l33 169h162l-61 -169h-134z" />
    <glyph glyph-name="Tbar" unicode="&#x166;" 
d="M216 0v295h-139v121h139v125h-172v144h524v-144h-172v-125h140v-121h-140v-295h-180z" />
    <glyph glyph-name="tbar" unicode="&#x167;" 
d="M542 0h-193q-101 0 -141 36.5t-40 134.5v30h-150v115h150v74h-150v136h150v143h170v-143h204v-136h-207v-74h207v-115h-207v-26q0 -25 11.5 -35.5t40.5 -10.5h155v-129z" />
    <glyph glyph-name="Utilde" unicode="&#x168;" 
d="M306 -13q-133 0 -198.5 64t-65.5 212v422h176v-422q0 -65 18.5 -96.5t69.5 -31.5t69.5 31.5t18.5 96.5v422h176v-422q0 -148 -65.5 -212t-198.5 -64zM376 767q-34 0 -76 19l-7 3q-31 13 -44 13q-26 0 -33 -33l-90 5q5 59 33.5 93.5t77.5 34.5q34 0 76 -19l7 -3
q31 -13 44 -13q26 0 33 33l90 -5q-5 -59 -33.5 -93.5t-77.5 -34.5z" />
    <glyph glyph-name="utilde" unicode="&#x169;" 
d="M233 -13q-179 0 -179 219v320h170v-274q0 -67 18 -94.5t58 -27.5q84 0 84 116v280h169v-439q0 -58 1 -87h-166v24q0 22 1 39h-3q-44 -76 -153 -76zM371 595q-34 0 -76 19l-7 3q-31 13 -44 13q-26 0 -33 -33l-90 5q5 59 33.5 93.5t77.5 34.5q34 0 76 -19l7 -3
q31 -13 44 -13q26 0 33 33l90 -5q-5 -59 -33.5 -93.5t-77.5 -34.5z" />
    <glyph glyph-name="Umacron" unicode="&#x16a;" 
d="M306 -13q-133 0 -198.5 64t-65.5 212v422h176v-422q0 -65 18.5 -96.5t69.5 -31.5t69.5 31.5t18.5 96.5v422h176v-422q0 -148 -65.5 -212t-198.5 -64zM166 788v103h280v-103h-280z" />
    <glyph glyph-name="umacron" unicode="&#x16b;" 
d="M233 -13q-179 0 -179 219v320h170v-274q0 -67 18 -94.5t58 -27.5q84 0 84 116v280h169v-439q0 -58 1 -87h-166v24q0 22 1 39h-3q-44 -76 -153 -76zM166 616v103h280v-103h-280z" />
    <glyph glyph-name="Ubreve" unicode="&#x16c;" 
d="M306 -13q-133 0 -198.5 64t-65.5 212v422h176v-422q0 -65 18.5 -96.5t69.5 -31.5t69.5 31.5t18.5 96.5v422h176v-422q0 -148 -65.5 -212t-198.5 -64zM306 763q-67 0 -111 33t-56 95l93 14q16 -45 74 -45q56 0 75 45l92 -14q-13 -62 -56.5 -95t-110.5 -33z" />
    <glyph glyph-name="ubreve" unicode="&#x16d;" 
d="M233 -13q-179 0 -179 219v320h170v-274q0 -67 18 -94.5t58 -27.5q84 0 84 116v280h169v-439q0 -58 1 -87h-166v24q0 22 1 39h-3q-44 -76 -153 -76zM306 591q-67 0 -111 33t-56 95l93 14q16 -45 74 -45q56 0 75 45l92 -14q-13 -62 -56.5 -95t-110.5 -33z" />
    <glyph glyph-name="Uring" unicode="&#x16e;" 
d="M306 -13q-133 0 -198.5 64t-65.5 212v422h176v-422q0 -65 18.5 -96.5t69.5 -31.5t69.5 31.5t18.5 96.5v422h176v-422q0 -148 -65.5 -212t-198.5 -64zM303 743q-46 0 -77.5 32t-31.5 78q0 44 32 76t78 32q47 0 78 -31.5t31 -76.5q0 -46 -31.5 -78t-78.5 -32zM303 813
q17 0 28 11.5t11 28.5q0 15 -11 26.5t-28 11.5q-16 0 -27.5 -11.5t-11.5 -26.5q0 -17 11.5 -28.5t27.5 -11.5z" />
    <glyph glyph-name="uring" unicode="&#x16f;" 
d="M233 -13q-179 0 -179 219v320h170v-274q0 -67 18 -94.5t58 -27.5q84 0 84 116v280h169v-439q0 -58 1 -87h-166v24q0 22 1 39h-3q-44 -76 -153 -76zM304 571q-46 0 -77.5 32t-31.5 78q0 44 32 76t78 32q47 0 78 -31.5t31 -76.5q0 -46 -31.5 -78t-78.5 -32zM304 641
q17 0 28 11.5t11 28.5q0 15 -11 26.5t-28 11.5q-16 0 -27.5 -11.5t-11.5 -26.5q0 -17 11.5 -28.5t27.5 -11.5z" />
    <glyph glyph-name="Uhungarumlaut" unicode="&#x170;" 
d="M306 -13q-133 0 -198.5 64t-65.5 212v422h176v-422q0 -65 18.5 -96.5t69.5 -31.5t69.5 31.5t18.5 96.5v422h176v-422q0 -148 -65.5 -212t-198.5 -64zM334 773l79 129h190l-127 -129h-142zM101 773l72 129h190l-120 -129h-142z" />
    <glyph glyph-name="uhungarumlaut" unicode="&#x171;" 
d="M233 -13q-179 0 -179 219v320h170v-274q0 -67 18 -94.5t58 -27.5q84 0 84 116v280h169v-439q0 -58 1 -87h-166v24q0 22 1 39h-3q-44 -76 -153 -76zM333 601l79 129h190l-127 -129h-142zM100 601l72 129h190l-120 -129h-142z" />
    <glyph glyph-name="Uogonek" unicode="&#x172;" 
d="M327 -198q-71 0 -109.5 25.5t-38.5 70.5q0 49 63 93q-101 13 -150.5 78t-49.5 194v422h176v-422q0 -65 18.5 -96.5t69.5 -31.5t69.5 31.5t18.5 96.5v422h176v-422q0 -124 -45.5 -188.5t-136.5 -80.5q-71 -33 -71 -63q0 -25 38 -25q25 0 46 14l52 -86q-50 -32 -126 -32z
" />
    <glyph glyph-name="uogonek" unicode="&#x173;" 
d="M479 -198q-71 0 -109.5 25.5t-38.5 70.5q0 31 19.5 54.5t57.5 47.5h-20v24q0 22 1 39h-3q-44 -76 -153 -76q-179 0 -179 219v320h170v-274q0 -67 18 -94.5t58 -27.5q84 0 84 116v280h169v-439q0 -58 1 -87q-85 -38 -85 -69q0 -25 38 -25q25 0 46 14l52 -86
q-50 -32 -126 -32z" />
    <glyph glyph-name="Wcircumflex" unicode="&#x174;" 
d="M82 0l-75 685h144l15 -218q4 -58 10 -303h6q17 209 33 310l21 145h138l20 -145q12 -97 32 -310h6q6 177 15 299l18 222h140l-82 -685h-177l-20 159q-12 104 -20 282h-6q-2 -26 -6 -82.5t-8 -105t-10 -94.5l-20 -159h-174zM118 773l97 129h178l96 -129h-134l-50 52h-2
l-50 -52h-135z" />
    <glyph glyph-name="wcircumflex" unicode="&#x175;" 
d="M93 0l-91 526h138l19 -173q19 -179 22 -199h4q5 33 13 98.5t14 98.5l26 175h142l24 -174q7 -41 27 -198h5q3 25 10 90t13 109l17 173h134l-93 -526h-165l-20 152q-5 32 -25 203h-5q-23 -197 -24 -202l-21 -153h-164zM119 601l97 129h178l96 -129h-134l-50 52h-2l-50 -52
h-135z" />
    <glyph glyph-name="Ycircumflex" unicode="&#x176;" 
d="M215 0v247l-209 438h188l49 -118q26 -61 66 -161h3q5 12 24 63.5t36 91.5l48 124h186l-210 -438v-247h-181zM125 773l97 129h178l96 -129h-134l-50 52h-2l-50 -52h-135z" />
    <glyph glyph-name="ycircumflex" unicode="&#x177;" 
d="M150 -190q-46 0 -70 1l-16 129q46 -2 59 -2q44 0 62.5 10t28.5 38l5 15l-195 525h182l58 -195q8 -26 22.5 -83.5t20.5 -78.5h5q18 76 42 161l56 196h178l-203 -556q-20 -54 -41.5 -86t-51.5 -48.5t-60.5 -21t-81.5 -4.5zM125 601l97 129h178l96 -129h-134l-50 52h-2
l-50 -52h-135z" />
    <glyph glyph-name="Ydieresis" unicode="&#x178;" 
d="M215 0v247l-209 438h188l49 -118q26 -61 66 -161h3q5 12 24 63.5t36 91.5l48 124h186l-210 -438v-247h-181zM343 777v122h127v-122h-127zM151 777v122h126v-122h-126z" />
    <glyph glyph-name="Zacute" unicode="&#x179;" 
d="M54 0v134l182 258q19 26 43.5 58t39.5 52.5t26 36.5v3q-35 -1 -124 -1h-158v144h487v-137l-199 -283q-9 -12 -41 -55t-50 -66v-2q67 1 175 1h126v-143h-507zM205 773l72 129h190l-120 -129h-142z" />
    <glyph glyph-name="zacute" unicode="&#x17a;" 
d="M73 0v130l144 152q86 91 104 110q-47 -1 -139 -1h-100v135h445v-132l-110 -118q-15 -16 -41.5 -45t-49 -52.5t-43.5 -45.5q21 0 63.5 0.5t64.5 0.5h127v-134h-465zM206 601l72 129h190l-120 -129h-142z" />
    <glyph glyph-name="Zdotaccent" unicode="&#x17b;" 
d="M54 0v134l182 258q19 26 43.5 58t39.5 52.5t26 36.5v3q-35 -1 -124 -1h-158v144h487v-137l-199 -283q-9 -12 -41 -55t-50 -66v-2q67 1 175 1h126v-143h-507zM239 775v122h132v-122h-132z" />
    <glyph glyph-name="zdotaccent" unicode="&#x17c;" 
d="M73 0v130l144 152q86 91 104 110q-47 -1 -139 -1h-100v135h445v-132l-110 -118q-15 -16 -41.5 -45t-49 -52.5t-43.5 -45.5q21 0 63.5 0.5t64.5 0.5h127v-134h-465zM242 600v122h132v-122h-132z" />
    <glyph glyph-name="Zcaron" unicode="&#x17d;" 
d="M54 0v134l182 258q19 26 43.5 58t39.5 52.5t26 36.5v3q-35 -1 -124 -1h-158v144h487v-137l-199 -283q-9 -12 -41 -55t-50 -66v-2q67 1 175 1h126v-143h-507zM230 773l-97 129h135l50 -52h2l50 52h134l-96 -129h-178z" />
    <glyph glyph-name="zcaron" unicode="&#x17e;" 
d="M73 0v130l144 152q86 91 104 110q-47 -1 -139 -1h-100v135h445v-132l-110 -118q-15 -16 -41.5 -45t-49 -52.5t-43.5 -45.5q21 0 63.5 0.5t64.5 0.5h127v-134h-465zM223 601l-97 129h135l50 -52h2l50 52h134l-96 -129h-178z" />
    <glyph glyph-name="uni018F" unicode="&#x18f;" 
d="M299 -13q-132 0 -201.5 97t-69.5 270q0 28 1 39h393q-5 159 -125 159q-84 0 -116 -95l-142 52q27 84 96 137t168 53q133 0 207 -93t74 -260q0 -164 -75.5 -261.5t-209.5 -97.5zM304 121q103 0 116 151h-228q11 -151 112 -151z" />
    <glyph glyph-name="florin" unicode="&#x192;" 
d="M145 -173q-60 0 -103 17l19 126q22 -7 43 -7q36 0 55.5 22t26.5 68l41 266h-89l19 131h90q5 37 11 68q20 97 68 139t142 42q59 0 96 -13l-21 -132q-19 7 -39 7q-74 0 -84 -111h105l-18 -131h-108l-47 -295q-18 -107 -64.5 -152t-142.5 -45z" />
    <glyph glyph-name="Aringacute" unicode="&#x1fa;" 
d="M11 0l190 685h206l194 -685h-168l-40 150h-180l-38 -150h-164zM247 287h113l-28 122q-8 38 -28 141h-4q-1 -3 -10 -57.5t-16 -83.5zM302 743q-46 0 -77.5 32t-31.5 78q0 44 32 76t78 32q47 0 78 -31.5t31 -76.5q0 -46 -31.5 -78t-78.5 -32zM302 813q17 0 28 11.5t11 28.5
q0 15 -11 26.5t-28 11.5q-16 0 -27.5 -11.5t-11.5 -26.5q0 -17 11.5 -28.5t27.5 -11.5zM229 1011l72 129h190l-120 -129h-142z" />
    <glyph glyph-name="aringacute" unicode="&#x1fb;" 
d="M243 -8q-88 0 -142 42t-54 118q0 67 42 102.5t129 54.5q18 4 118 23q21 4 29.5 10.5t8.5 21.5q0 23 -18 36.5t-51 13.5q-72 0 -78 -74l-164 8q4 82 71 134.5t176 52.5q231 0 231 -209v-298q0 -17 1 -28h-146v16q0 8 0.5 18.5t0.5 11.5h-4q-51 -54 -150 -54zM281 101
q95 0 95 98v4q0 16 3 27l-45 -10l-56 -12q-63 -13 -63 -55q0 -52 66 -52zM305 571q-46 0 -77.5 32t-31.5 78q0 44 32 76t78 32q47 0 78 -31.5t31 -76.5q0 -46 -31.5 -78t-78.5 -32zM305 641q17 0 28 11.5t11 28.5q0 15 -11 26.5t-28 11.5q-16 0 -27.5 -11.5t-11.5 -26.5
q0 -17 11.5 -28.5t27.5 -11.5zM232 827l72 129h190l-120 -129h-142z" />
    <glyph glyph-name="AEacute" unicode="&#x1fc;" 
d="M-19 0l194 685h435v-142h-163l2 -121h137v-142h-134l3 -138h159v-142h-310l-1 151h-124l-39 -151h-159zM213 284h87q-2 194 -2 266h-21q-30 -133 -64 -266zM292 773l72 129h190l-120 -129h-142z" />
    <glyph glyph-name="aeacute" unicode="&#x1fd;" 
d="M142 -8q-66 0 -104 41.5t-38 118.5q0 66 30 100t93 52l83 25q28 10 28 35q0 56 -50 56q-28 0 -42.5 -21t-13.5 -59l-116 8q0 87 48 138t128 51q77 0 117 -53q47 53 122 53q186 0 186 -282q0 -16 -1 -35h-265q4 -114 83 -114q50 0 69 56l112 -31q-21 -63 -68.5 -101
t-114.5 -38q-94 0 -143 73q-52 -73 -143 -73zM167 101q68 0 68 98v4q0 20 2 27l-72 -22q-45 -13 -45 -55q0 -52 47 -52zM348 322h145q1 46 -17.5 73.5t-50.5 27.5q-34 0 -54.5 -27.5t-22.5 -73.5zM214 601l72 129h190l-120 -129h-142z" />
    <glyph glyph-name="Oslashacute" unicode="&#x1fe;" 
d="M118 -59l-113 69l69 105q-46 85 -46 229q0 175 72 265t205 90q73 0 133 -29l50 76l113 -71l-67 -101q50 -92 50 -230q0 -179 -71 -268t-208 -89q-78 0 -136 31zM305 128q60 0 87.5 58t27.5 156q0 20 -2 54l-166 -252q22 -16 53 -16zM192 296l163 247q-26 12 -50 12
q-114 0 -114 -213q0 -31 1 -46zM215 773l72 129h190l-120 -129h-142z" />
    <glyph glyph-name="oslashacute" unicode="&#x1ff;" 
d="M142 -65l-99 63l55 76q-64 75 -64 189q0 124 75 201t197 77q55 0 112 -21l47 66l103 -67l-52 -71q61 -75 61 -185q0 -123 -74.5 -199t-196.5 -76q-60 0 -111 19zM306 122q106 0 106 140q0 21 -3 39l-129 -177q16 -2 26 -2zM201 219l132 183q-13 3 -27 3
q-53 0 -80.5 -38.5t-27.5 -103.5q0 -25 3 -44zM214 601l72 129h190l-120 -129h-142z" />
    <glyph glyph-name="uni0218" unicode="&#x218;" 
d="M293 -13q-229 0 -272 185l159 37q31 -91 122 -91q42 0 66.5 19.5t24.5 55.5q0 31 -21 46t-67 28l-65 17q-100 27 -147.5 76t-47.5 130q0 99 69 154t191 55q105 0 169 -46t85 -130l-153 -33q-11 37 -38.5 56.5t-65.5 19.5q-40 0 -61.5 -18.5t-21.5 -46.5q0 -27 18.5 -44
t63.5 -30l77 -22q94 -26 141.5 -70.5t47.5 -127.5q0 -103 -73 -161.5t-201 -58.5zM211 -215v50h5q24 0 34 4t10 20v2h-49v93h140v-79q0 -54 -33 -76q-22 -14 -79 -14h-28z" />
    <glyph glyph-name="uni0219" unicode="&#x219;" 
d="M308 -13q-217 0 -251 157l159 28q17 -69 95 -69q33 0 52.5 12t19.5 33q0 18 -17 28.5t-56 19.5l-66 15q-84 19 -126 55.5t-42 104.5q0 80 62 123.5t169 43.5q200 0 234 -152l-152 -25q-13 61 -83 61q-29 0 -46 -11t-17 -29q0 -19 14.5 -27t58.5 -21l70 -19
q88 -25 127.5 -57t39.5 -102q0 -85 -65 -127t-180 -42zM232 -215v50h5q24 0 34 4t10 20v2h-49v93h140v-79q0 -54 -33 -76q-22 -14 -79 -14h-28z" />
    <glyph glyph-name="uni021A" unicode="&#x21a;" 
d="M216 0v541h-172v144h524v-144h-172v-541h-180zM236 -215v50h5q24 0 34 4t10 20v2h-49v93h140v-79q0 -54 -33 -76q-22 -14 -79 -14h-28z" />
    <glyph glyph-name="uni021B" unicode="&#x21b;" 
d="M542 0h-193q-101 0 -141 36.5t-40 134.5v219h-150v136h150v143h171v-143h203v-136h-206v-215q0 -25 11.5 -35.5t40.5 -10.5h154v-129zM291 -215v50h5q24 0 34 4t10 20v2h-49v93h140v-79q0 -54 -33 -76q-22 -14 -79 -14h-28z" />
    <glyph glyph-name="uni0237" unicode="&#x237;" 
d="M101 -188v130h135q31 0 42.5 14.5t11.5 47.5v376h-193v136h364v-528q0 -57 -12 -92t-42.5 -53.5t-70 -24.5t-106.5 -6h-129z" />
    <glyph glyph-name="uni0259" unicode="&#x259;" 
d="M301 540q124 0 199.5 -74t75.5 -202q0 -123 -76 -199.5t-198 -76.5q-127 0 -194 79t-67 216q0 14 1 25h372q-6 49 -36 76.5t-80 27.5q-75 0 -116 -64l-139 49q35 65 100 104t158 39zM412 203h-203q2 -46 27 -72t69 -26q47 0 74 26t33 72z" />
    <glyph glyph-name="circumflex" unicode="&#x2c6;" 
d="M62 601l97 129h178l96 -129h-134l-50 52h-2l-50 -52h-135z" />
    <glyph glyph-name="caron" unicode="&#x2c7;" 
d="M209 601l-97 129h135l50 -52h2l50 52h134l-96 -129h-178z" />
    <glyph glyph-name="breve" unicode="&#x2d8;" 
d="M306 591q-67 0 -111 33t-56 95l93 14q16 -45 74 -45q56 0 75 45l92 -14q-13 -62 -56.5 -95t-110.5 -33z" />
    <glyph glyph-name="dotaccent" unicode="&#x2d9;" 
d="M242 600v122h132v-122h-132z" />
    <glyph glyph-name="ring" unicode="&#x2da;" 
d="M305 571q-46 0 -77.5 32t-31.5 78q0 44 32 76t78 32q47 0 78 -31.5t31 -76.5q0 -46 -31.5 -78t-78.5 -32zM305 641q17 0 28 11.5t11 28.5q0 15 -11 26.5t-28 11.5q-16 0 -27.5 -11.5t-11.5 -26.5q0 -17 11.5 -28.5t27.5 -11.5z" />
    <glyph glyph-name="ogonek" unicode="&#x2db;" 
d="M333 -198q-71 0 -109.5 25.5t-38.5 70.5q0 31 19.5 54.5t57.5 47.5h146q-85 -38 -85 -69q0 -25 38 -25q25 0 46 14l52 -86q-50 -32 -126 -32z" />
    <glyph glyph-name="tilde" unicode="&#x2dc;" 
d="M366 595q-34 0 -76 19l-7 3q-31 13 -44 13q-26 0 -33 -33l-90 5q5 59 33.5 93.5t77.5 34.5q34 0 76 -19l7 -3q31 -13 44 -13q26 0 33 33l90 -5q-5 -59 -33.5 -93.5t-77.5 -34.5z" />
    <glyph glyph-name="hungarumlaut" unicode="&#x2dd;" 
d="M273 601l79 129h190l-127 -129h-142zM40 601l72 129h190l-120 -129h-142z" />
    <glyph glyph-name="uni0312" unicode="&#x312;" horiz-adv-x="0" 
d="M-370 602v79q0 54 33 76q22 14 79 14h28v-50h-5q-24 0 -34 -4t-10 -20v-2h49v-93h-140z" />
    <glyph glyph-name="uni0313" unicode="&#x313;" horiz-adv-x="0" 
d="M-395 561l33 169h162l-61 -169h-134z" />
    <glyph glyph-name="uni0326" unicode="&#x326;" horiz-adv-x="0" 
d="M-370 -215v50h5q24 0 34 4t10 20v2h-49v93h140v-79q0 -54 -33 -76q-22 -14 -79 -14h-28z" />
    <glyph glyph-name="uni0394" unicode="&#x394;" 
d="M10 0l208 685h176l211 -685h-595zM200 129h212l-104 383h-4z" />
    <glyph glyph-name="uni03A9" unicode="&#x3a9;" 
d="M21 0v131h33q9 0 26.5 -0.5t24.5 -0.5v4q-39 29 -60.5 96t-21.5 151q0 138 76.5 228t207.5 90t207.5 -90t76.5 -228q0 -161 -83 -247v-4q7 0 24.5 0.5t26.5 0.5h33v-131h-261v139q53 17 81 79.5t28 139.5q0 84 -34.5 138t-98.5 54q-68 0 -101 -53.5t-33 -138.5
q0 -77 28 -139.5t81 -79.5v-139h-261z" />
    <glyph glyph-name="uni03BC" unicode="&#x3bc;" 
d="M219 -189h-168q3 66 3 130v585h170v-274q0 -67 18 -94.5t58 -27.5q84 0 84 116v280h169v-439q0 -58 1 -87h-166v24q0 22 1 39h-3q-40 -69 -153 -69h-13q1 -17 1 -60q0 -100 -2 -123z" />
    <glyph glyph-name="pi" unicode="&#x3c0;" 
d="M81 0v394h-74v132h599v-132h-83v-174q0 -62 10 -98.5t24.5 -50t39.5 -22.5v-49h-159q-43 13 -62.5 52t-19.5 118v224h-110v-394h-165z" />
    <glyph glyph-name="Wgrave" unicode="&#x1e80;" 
d="M82 0l-75 685h144l15 -218q4 -58 10 -303h6q17 209 33 310l21 145h138l20 -145q12 -97 32 -310h6q6 177 15 299l18 222h140l-82 -685h-177l-20 159q-12 104 -20 282h-6q-2 -26 -6 -82.5t-8 -105t-10 -94.5l-20 -159h-174zM253 773l-120 129h190l72 -129h-142z" />
    <glyph glyph-name="wgrave" unicode="&#x1e81;" 
d="M93 0l-91 526h138l19 -173q19 -179 22 -199h4q5 33 13 98.5t14 98.5l26 175h142l24 -174q7 -41 27 -198h5q3 25 10 90t13 109l17 173h134l-93 -526h-165l-20 152q-5 32 -25 203h-5q-23 -197 -24 -202l-21 -153h-164zM255 601l-120 129h190l72 -129h-142z" />
    <glyph glyph-name="Wacute" unicode="&#x1e82;" 
d="M82 0l-75 685h144l15 -218q4 -58 10 -303h6q17 209 33 310l21 145h138l20 -145q12 -97 32 -310h6q6 177 15 299l18 222h140l-82 -685h-177l-20 159q-12 104 -20 282h-6q-2 -26 -6 -82.5t-8 -105t-10 -94.5l-20 -159h-174zM229 773l72 129h190l-120 -129h-142z" />
    <glyph glyph-name="wacute" unicode="&#x1e83;" 
d="M93 0l-91 526h138l19 -173q19 -179 22 -199h4q5 33 13 98.5t14 98.5l26 175h142l24 -174q7 -41 27 -198h5q3 25 10 90t13 109l17 173h134l-93 -526h-165l-20 152q-5 32 -25 203h-5q-23 -197 -24 -202l-21 -153h-164zM225 601l72 129h190l-120 -129h-142z" />
    <glyph glyph-name="Wdieresis" unicode="&#x1e84;" 
d="M82 0l-75 685h144l15 -218q4 -58 10 -303h6q17 209 33 310l21 145h138l20 -145q12 -97 32 -310h6q6 177 15 299l18 222h140l-82 -685h-177l-20 159q-12 104 -20 282h-6q-2 -26 -6 -82.5t-8 -105t-10 -94.5l-20 -159h-174zM335 777v122h127v-122h-127zM143 777v122h126
v-122h-126z" />
    <glyph glyph-name="wdieresis" unicode="&#x1e85;" 
d="M93 0l-91 526h138l19 -173q19 -179 22 -199h4q5 33 13 98.5t14 98.5l26 175h142l24 -174q7 -41 27 -198h5q3 25 10 90t13 109l17 173h134l-93 -526h-165l-20 152q-5 32 -25 203h-5q-23 -197 -24 -202l-21 -153h-164zM338 599v122h127v-122h-127zM146 599v122h126v-122
h-126z" />
    <glyph glyph-name="uni1E9E" unicode="&#x1e9e;" 
d="M346 -13q-70 0 -111 18l38 124q24 -11 57 -11q41 0 64.5 25t23.5 65q0 47 -27.5 71.5t-73.5 24.5q-29 0 -52 -3v103l47 72q27 40 48 66v3q-54 -2 -85 -2h-63v-543h-171v685h499v-132l-95 -142q63 -17 104 -70t41 -133q0 -107 -64.5 -164t-179.5 -57z" />
    <glyph glyph-name="Ygrave" unicode="&#x1ef2;" 
d="M215 0v247l-209 438h188l49 -118q26 -61 66 -161h3q5 12 24 63.5t36 91.5l48 124h186l-210 -438v-247h-181zM254 773l-120 129h190l72 -129h-142z" />
    <glyph glyph-name="ygrave" unicode="&#x1ef3;" 
d="M150 -190q-46 0 -70 1l-16 129q46 -2 59 -2q44 0 62.5 10t28.5 38l5 15l-195 525h182l58 -195q8 -26 22.5 -83.5t20.5 -78.5h5q18 76 42 161l56 196h178l-203 -556q-20 -54 -41.5 -86t-51.5 -48.5t-60.5 -21t-81.5 -4.5zM246 601l-120 129h190l72 -129h-142z" />
    <glyph glyph-name="uni2000" unicode="&#x2000;" 
 />
    <glyph glyph-name="uni2001" unicode="&#x2001;" 
 />
    <glyph glyph-name="uni2002" unicode="&#x2002;" 
 />
    <glyph glyph-name="uni2003" unicode="&#x2003;" 
 />
    <glyph glyph-name="uni2004" unicode="&#x2004;" 
 />
    <glyph glyph-name="uni2005" unicode="&#x2005;" 
 />
    <glyph glyph-name="uni2006" unicode="&#x2006;" 
 />
    <glyph glyph-name="uni2007" unicode="&#x2007;" 
 />
    <glyph glyph-name="uni2008" unicode="&#x2008;" 
 />
    <glyph glyph-name="uni2009" unicode="&#x2009;" 
 />
    <glyph glyph-name="uni200A" unicode="&#x200a;" 
 />
    <glyph glyph-name="uni200B" unicode="&#x200b;" horiz-adv-x="0" 
 />
    <glyph glyph-name="endash" unicode="&#x2013;" 
d="M73 215v144h466v-144h-466z" />
    <glyph glyph-name="emdash" unicode="&#x2014;" 
d="M0 215v144h612v-144h-612z" />
    <glyph glyph-name="uni2015" unicode="&#x2015;" 
d="M0 215v144h612v-144h-612z" />
    <glyph glyph-name="quoteleft" unicode="&#x2018;" 
d="M207 388v166q0 93 46.5 135.5t142.5 42.5h13v-87q-46 -1 -66.5 -17.5t-20.5 -57.5h86v-182h-201z" />
    <glyph glyph-name="quoteright" unicode="&#x2019;" 
d="M207 386v87q46 1 66.5 17.5t20.5 57.5h-86v182h201v-166q0 -93 -46.5 -135.5t-142.5 -42.5h-13z" />
    <glyph glyph-name="quotesinglbase" unicode="&#x201a;" 
d="M207 -162v87q46 1 66.5 17.5t20.5 57.5h-86v182h201v-166q0 -93 -46.5 -135.5t-142.5 -42.5h-13z" />
    <glyph glyph-name="quotedblleft" unicode="&#x201c;" 
d="M337 389v166q0 93 46.5 135.5t142.5 42.5h13v-87q-46 -1 -66.5 -17.5t-20.5 -57.5h86v-182h-201zM73 389v166q0 93 46.5 135.5t142.5 42.5h13v-87q-46 -1 -66.5 -17.5t-20.5 -57.5h86v-182h-201z" />
    <glyph glyph-name="quotedblright" unicode="&#x201d;" 
d="M337 386v87q46 1 66.5 17.5t20.5 57.5h-86v182h201v-166q0 -93 -46.5 -135.5t-142.5 -42.5h-13zM73 386v87q46 1 66.5 17.5t20.5 57.5h-86v182h201v-166q0 -93 -46.5 -135.5t-142.5 -42.5h-13z" />
    <glyph glyph-name="quotedblbase" unicode="&#x201e;" 
d="M337 -162v87q46 1 66.5 17.5t20.5 57.5h-86v182h201v-166q0 -93 -46.5 -135.5t-142.5 -42.5h-13zM73 -162v87q46 1 66.5 17.5t20.5 57.5h-86v182h201v-166q0 -93 -46.5 -135.5t-142.5 -42.5h-13z" />
    <glyph glyph-name="dagger" unicode="&#x2020;" 
d="M225 -109v473h-149v151h149v170h163v-170h148v-151h-148v-473h-163z" />
    <glyph glyph-name="daggerdbl" unicode="&#x2021;" 
d="M225 -109v170h-149v151h149v152h-149v151h149v170h163v-170h148v-151h-148v-152h148v-151h-148v-170h-163z" />
    <glyph glyph-name="bullet" unicode="&#x2022;" 
d="M307 125q-86 0 -145.5 59.5t-59.5 145.5q0 84 59.5 143.5t145.5 59.5q85 0 145 -59.5t60 -143.5q0 -86 -60 -145.5t-145 -59.5z" />
    <glyph glyph-name="ellipsis" unicode="&#x2026;" 
d="M433 0v182h148v-182h-148zM31 0v182h148v-182h-148zM233 0v182h146v-182h-146z" />
    <glyph glyph-name="perthousand" unicode="&#x2030;" 
d="M7 0l295 685h88l-295 -685h-88zM304 -7q-101 0 -101 157q0 155 101 155q100 0 100 -156t-100 -156zM305 72q27 0 27 76q0 78 -28 78q-29 0 -29 -79q0 -75 30 -75zM94 379q-101 0 -101 157q0 155 101 155q100 0 100 -156t-100 -156zM95 458q27 0 27 76q0 78 -28 78
q-29 0 -29 -79q0 -75 30 -75zM522 -7q-101 0 -101 157q0 155 101 155q100 0 100 -156t-100 -156zM523 72q27 0 27 76q0 78 -28 78q-29 0 -29 -79q0 -75 30 -75z" />
    <glyph glyph-name="guilsinglleft" unicode="&#x2039;" 
d="M270 91l-100 184l100 185h150l-94 -185l94 -184h-150z" />
    <glyph glyph-name="guilsinglright" unicode="&#x203a;" 
d="M192 91l94 184l-94 185h150l100 -185l-100 -184h-150z" />
    <glyph glyph-name="fraction" unicode="&#x2044;" 
d="M10 0l485 685h107l-485 -685h-107z" />
    <glyph glyph-name="uni2070" unicode="&#x2070;" 
d="M306 342q-98 0 -138.5 62t-40.5 177q0 246 179 246q180 0 180 -246q0 -115 -41 -177t-139 -62zM306 448q32 0 44 33.5t12 101.5q0 70 -11.5 104.5t-44.5 34.5q-32 0 -43.5 -35t-11.5 -104q0 -68 11.5 -101.5t43.5 -33.5zM273 546v76h68v-76h-68z" />
    <glyph glyph-name="uni2074" unicode="&#x2074;" 
d="M327 348v86h-190v84l101 297h115l-97 -286h71v156h107v-156h60v-95h-60v-86h-107z" />
    <glyph glyph-name="uni2075" unicode="&#x2075;" 
d="M305 342q-75 0 -122 39t-55 107l122 5q8 -50 59 -50q28 0 42.5 17t14.5 45q0 27 -16 44t-42 17q-30 0 -48 -25l-117 9l26 265h290v-102h-194q-1 -11 -3 -32.5t-4 -32.5h1q31 18 71 18q69 0 113 -43t44 -116q0 -77 -49.5 -121t-132.5 -44z" />
    <glyph glyph-name="uni2076" unicode="&#x2076;" 
d="M308 342q-88 0 -136 55.5t-48 159.5q0 125 49 197.5t140 72.5q75 0 113.5 -37t45.5 -97l-121 -6q-7 32 -42 32q-56 0 -56 -89q36 28 82 28q67 0 108.5 -41.5t41.5 -110.5q0 -72 -48.5 -118t-128.5 -46zM307 439q27 0 43.5 16.5t16.5 44.5q0 29 -16.5 47t-44.5 18
q-26 0 -43 -18t-17 -46q0 -29 17 -45.5t44 -16.5z" />
    <glyph glyph-name="uni2077" unicode="&#x2077;" 
d="M302 348h-140q49 169 164 359v1q-31 -1 -87 -1h-111v108h335v-102q-95 -133 -161 -365z" />
    <glyph glyph-name="uni2078" unicode="&#x2078;" 
d="M306 342q-86 0 -134 36t-48 104q0 80 76 117q-61 33 -61 102q0 57 45 91.5t122 34.5t122 -34.5t45 -91.5q0 -70 -61 -102q76 -37 76 -117q0 -68 -48 -104t-134 -36zM306 438q27 0 43.5 15.5t16.5 40.5t-16.5 41t-43.5 16t-44 -16t-17 -41t16 -40.5t45 -15.5zM306 637
q24 0 38.5 14t14.5 36t-14.5 36t-38.5 14t-38.5 -14t-14.5 -36t14.5 -36t38.5 -14z" />
    <glyph glyph-name="uni2079" unicode="&#x2079;" 
d="M296 342q-75 0 -116 36.5t-47 96.5l122 5q7 -31 43 -31q60 0 58 90q-37 -29 -83 -29q-67 0 -107.5 40.5t-40.5 110.5q0 73 48 119.5t128 46.5q88 0 136 -56t48 -161q0 -129 -48 -198.5t-141 -69.5zM303 604q26 0 43 18t17 45q0 29 -17 46t-44 17t-43.5 -17t-16.5 -44
q0 -29 16.5 -47t44.5 -18z" />
    <glyph glyph-name="uni207A" unicode="&#x207a;" 
d="M256 404v112h-108v98h108v111h101v-111h107v-98h-107v-112h-101z" />
    <glyph glyph-name="uni207B" unicode="&#x207b;" 
d="M151 509v107h310v-107h-310z" />
    <glyph glyph-name="uni207C" unicode="&#x207c;" 
d="M151 584v94h310v-94h-310zM151 447v94h310v-94h-310z" />
    <glyph glyph-name="uni207D" unicode="&#x207d;" 
d="M412 255l-95 -5q-101 132 -101 284q0 153 101 291l95 -5q-81 -134 -81 -284t81 -281z" />
    <glyph glyph-name="uni207E" unicode="&#x207e;" 
d="M295 250l-95 5q81 131 81 281t-81 284l95 5q101 -138 101 -291q0 -152 -101 -284z" />
    <glyph glyph-name="uni207F" unicode="&#x207f;" 
d="M138 348v280v57h119v-12q0 -12 -1 -23h1q35 46 107 46q63 0 92 -35.5t29 -110.5v-202h-123v171q0 45 -12 62t-37 17q-51 0 -51 -73v-177h-124z" />
    <glyph glyph-name="uni2080" unicode="&#x2080;" 
d="M306 -90q-98 0 -138.5 62t-40.5 177q0 246 179 246q180 0 180 -246q0 -115 -41 -177t-139 -62zM306 16q32 0 44 33.5t12 101.5q0 70 -11.5 104.5t-44.5 34.5q-32 0 -43.5 -35t-11.5 -104q0 -68 11.5 -101.5t43.5 -33.5zM273 114v76h68v-76h-68z" />
    <glyph glyph-name="uni2081" unicode="&#x2081;" 
d="M160 -84v99h103v208h-112v87h21q95 0 103 73h109v-368h93v-99h-317z" />
    <glyph glyph-name="uni2082" unicode="&#x2082;" 
d="M141 -84v101q6 5 60 47.5t89 72.5q39 32 55.5 53.5t16.5 46.5q0 50 -50 50q-28 0 -41.5 -19.5t-13.5 -49.5l-119 2q0 80 46.5 127.5t132.5 47.5q81 0 124.5 -38.5t43.5 -107.5q0 -52 -25 -91t-73 -80q-17 -14 -46.5 -35t-30.5 -22v-1h82h98v-104h-349z" />
    <glyph glyph-name="uni2083" unicode="&#x2083;" 
d="M298 -90q-169 0 -180 156l120 7q5 -64 61 -64q28 0 42 15t14 38q0 55 -74 55h-27v85h21q71 0 71 49q0 19 -13 30t-31 11q-20 0 -34.5 -13t-15.5 -38l-121 7q4 67 49 107t120 40q77 0 120.5 -35.5t43.5 -94.5q0 -66 -56 -99q73 -30 73 -111q0 -68 -49.5 -106.5
t-133.5 -38.5z" />
    <glyph glyph-name="uni2084" unicode="&#x2084;" 
d="M327 -84v86h-190v84l101 297h115l-97 -286h71v156h107v-156h60v-95h-60v-86h-107z" />
    <glyph glyph-name="uni2085" unicode="&#x2085;" 
d="M305 -90q-75 0 -122 39t-55 107l122 5q8 -50 59 -50q28 0 42.5 17t14.5 45q0 27 -16 44t-42 17q-30 0 -48 -25l-117 9l26 265h290v-102h-194q-1 -12 -3 -33t-4 -32h1q31 18 71 18q69 0 113 -43t44 -116q0 -77 -49.5 -121t-132.5 -44z" />
    <glyph glyph-name="uni2086" unicode="&#x2086;" 
d="M308 -90q-88 0 -136 55.5t-48 159.5q0 125 49 197.5t140 72.5q75 0 113.5 -37t45.5 -97l-121 -6q-7 32 -42 32q-56 0 -56 -89q36 28 82 28q67 0 108.5 -41.5t41.5 -110.5q0 -72 -48.5 -118t-128.5 -46zM307 7q27 0 43.5 16.5t16.5 44.5q0 29 -16.5 47t-44.5 18
q-26 0 -43 -18t-17 -46q0 -29 17 -45.5t44 -16.5z" />
    <glyph glyph-name="uni2087" unicode="&#x2087;" 
d="M302 -84h-140q49 169 164 359v1q-31 -1 -87 -1h-111v108h335v-102q-95 -133 -161 -365z" />
    <glyph glyph-name="uni2088" unicode="&#x2088;" 
d="M306 -90q-86 0 -134 36t-48 104q0 80 76 117q-61 33 -61 102q0 57 45 91.5t122 34.5t122 -34.5t45 -91.5q0 -70 -61 -102q76 -37 76 -117q0 -68 -48 -104t-134 -36zM306 6q27 0 43.5 15.5t16.5 40.5t-16.5 41t-43.5 16t-44 -16t-17 -41t16 -40.5t45 -15.5zM306 205
q24 0 38.5 14t14.5 36t-14.5 36t-38.5 14t-38.5 -14t-14.5 -36t14.5 -36t38.5 -14z" />
    <glyph glyph-name="uni2089" unicode="&#x2089;" 
d="M296 -90q-75 0 -116 36.5t-47 96.5l122 5q7 -31 43 -31q60 0 58 90q-37 -29 -83 -29q-67 0 -107.5 40.5t-40.5 110.5q0 73 48 119.5t128 46.5q88 0 136 -56t48 -161q0 -129 -48 -198.5t-141 -69.5zM303 172q26 0 43 18t17 45q0 29 -17 46t-44 17t-43.5 -17t-16.5 -44
q0 -29 16.5 -47t44.5 -18z" />
    <glyph glyph-name="uni208A" unicode="&#x208a;" 
d="M256 -28v112h-108v98h108v111h101v-111h107v-98h-107v-112h-101z" />
    <glyph glyph-name="uni208B" unicode="&#x208b;" 
d="M151 77v107h310v-107h-310z" />
    <glyph glyph-name="uni208C" unicode="&#x208c;" 
d="M151 152v94h310v-94h-310zM151 15v94h310v-94h-310z" />
    <glyph glyph-name="uni208D" unicode="&#x208d;" 
d="M412 -177l-95 -5q-101 132 -101 284q0 153 101 291l95 -5q-81 -134 -81 -284t81 -281z" />
    <glyph glyph-name="uni208E" unicode="&#x208e;" 
d="M295 -182l-95 5q81 131 81 281t-81 284l95 5q101 -138 101 -291q0 -152 -101 -284z" />
    <glyph glyph-name="Euro" unicode="&#x20ac;" 
d="M351 -13q-211 0 -247 236h-77l21 102h51v37h-72l23 102h56q37 235 245 235q181 0 225 -181l-142 -32q-23 71 -84 71q-74 0 -86 -93h194l-23 -102h-179v-37h174l-22 -102h-144q13 -96 88 -96q61 0 84 79l143 -34q-41 -185 -228 -185z" />
    <glyph glyph-name="uni2113" unicode="&#x2113;" 
d="M330 -13q-168 0 -181 140l-25 -21l-79 111l99 82v165q0 124 46 179.5t156 55.5q182 0 182 -165q0 -143 -200 -296v-40q0 -56 49 -56q33 0 68 28l94 -105q-85 -78 -209 -78zM322 531v-122q34 39 48.5 67.5t14.5 62.5q0 45 -31 45q-32 0 -32 -53z" />
    <glyph glyph-name="uni2116" unicode="&#x2116;" 
d="M17 0v685h182l29 -401q3 -42 7.5 -95.5t8.5 -102.5h3q0 37 -1 99.5t-1 107.5v392h95v-685h-178l-32 396q-4 47 -8 106t-8 103h-3q0 -37 1 -128.5t1 -132.5v-344h-96zM388 190v114h193v-114h-193zM486 330q-121 0 -121 178q0 76 28 126.5t93 50.5q66 0 94 -50t28 -127
q0 -178 -122 -178zM486 432q27 0 27 76q0 75 -27 75q-26 0 -26 -75q0 -76 26 -76z" />
    <glyph glyph-name="uni2117" unicode="&#x2117;" 
d="M304 166q-111 0 -188 78t-77 189t77.5 188.5t189.5 77.5q111 0 189 -78t78 -188q0 -112 -78.5 -189.5t-190.5 -77.5zM307 221q86 0 146 62t60 150q0 87 -60 148.5t-147 61.5t-147 -61.5t-60 -148.5q0 -89 60 -150.5t148 -61.5zM202 277v309h122q125 0 125 -99
q0 -106 -122 -106h-46v-104h-79zM281 446h42q21 0 34 9.5t13 27.5q0 38 -47 38h-42v-75z" />
    <glyph glyph-name="trademark" unicode="&#x2122;" 
d="M248 375v310h132l28 -107q4 -16 7.5 -30.5t7 -32t6.5 -29.5h3l19 90l26 109h132v-310h-79v124q0 50 2 112h-2q-6 -20 -15.5 -60.5t-14.5 -61.5l-31 -114h-78l-31 114q-5 19 -15 59l-15 60h-3q2 -48 2 -85v-148h-81zM59 375v234h-68v76h232v-76h-66v-234h-98z" />
    <glyph glyph-name="Omega" unicode="&#x2126;" 
d="M21 0v131h33q9 0 26.5 -0.5t24.5 -0.5v4q-39 29 -60.5 96t-21.5 151q0 138 76.5 228t207.5 90t207.5 -90t76.5 -228q0 -161 -83 -247v-4q7 0 24.5 0.5t26.5 0.5h33v-131h-261v139q53 17 81 79.5t28 139.5q0 84 -34.5 138t-98.5 54q-68 0 -101 -53.5t-33 -138.5
q0 -77 28 -139.5t81 -79.5v-139h-261z" />
    <glyph glyph-name="estimated" unicode="&#x212e;" 
d="M312 -13q-129 0 -205 74t-76 203q0 123 75.5 200t205.5 77t203.5 -80t73.5 -222v-3h-368v-91q0 -31 25 -46q25 -16 66 -16q56 0 103.5 23t87.5 89l76 -58q-98 -150 -267 -150zM221 329h183v71q0 29 -29 41q-27 11 -63 11q-34 0 -62 -11q-29 -11 -29 -41v-71z" />
    <glyph glyph-name="onethird" unicode="&#x2153;" 
d="M72 0l295 685h98l-295 -685h-98zM86 308v244h-91v73q58 4 77 15.5t25 47.5h87v-380h-98zM458 -7q-64 0 -100 34t-38 97l98 5q0 -23 11 -37t31 -14q41 0 41 39q0 41 -53 41h-24v76q7 -1 20 -1q46 0 46 35q0 29 -33 29q-16 0 -24.5 -12t-8.5 -29l-96 4q3 57 37.5 90
t94.5 33q59 0 93 -28.5t34 -75.5q0 -56 -46 -78q57 -29 57 -90q0 -55 -38 -86.5t-102 -31.5z" />
    <glyph glyph-name="twothirds" unicode="&#x2154;" 
d="M114 0l295 685h96l-295 -685h-96zM-9 311v71l94 80q72 61 72 103q0 34 -34 34q-39 0 -39 -54l-95 4q0 66 35.5 104t101.5 38q62 0 96.5 -33t34.5 -90q0 -45 -23.5 -82t-77.5 -77l-20 -15q23 1 65 1h34v-84h-244zM479 -7q-64 0 -100 34t-38 97l98 5q0 -23 11 -37t31 -14
q41 0 41 39q0 41 -53 41h-24v76q7 -1 20 -1q46 0 46 35q0 29 -33 29q-16 0 -24.5 -12t-8.5 -29l-96 4q3 57 37.5 90t94.5 33q59 0 93 -28.5t34 -75.5q0 -56 -46 -78q57 -29 57 -90q0 -55 -38 -86.5t-102 -31.5z" />
    <glyph glyph-name="oneeighth" unicode="&#x215b;" 
d="M72 0l295 685h98l-295 -685h-98zM458 69q21 0 34 12t13 32t-13 32t-34 12q-19 0 -31.5 -12t-12.5 -32t12.5 -32t31.5 -12zM86 308v244h-91v73q58 4 77 15.5t25 47.5h87v-380h-98zM458 -9q-67 0 -105.5 30t-38.5 83q0 60 61 93q-49 27 -49 79q0 46 35 75.5t97 29.5
t98.5 -29.5t36.5 -75.5q0 -51 -50 -79q62 -34 62 -93q0 -54 -39 -83.5t-108 -29.5zM458 231q18 0 29 10t11 27q0 16 -11 27t-29 11q-17 0 -28.5 -11t-11.5 -27q0 -17 11 -27t29 -10z" />
    <glyph glyph-name="threeeighths" unicode="&#x215c;" 
d="M109 0l295 685h98l-295 -685h-98zM481 69q19 0 32 12t13 32t-13 32t-32 12q-18 0 -30 -12t-12 -32t12 -32t30 -12zM121 302q-64 0 -99.5 34t-37.5 97l99 5q0 -51 40 -51q18 0 28 10.5t10 28.5q0 41 -50 41h-24v76q7 -1 20 -1q44 0 44 35q0 29 -31 29t-31 -41l-97 4
q3 58 37.5 90.5t93.5 32.5q58 0 91.5 -28.5t33.5 -75.5q0 -56 -45 -78q56 -29 56 -90q0 -55 -37.5 -86.5t-100.5 -31.5zM481 -9q-65 0 -103.5 30t-38.5 83q0 60 61 93q-49 27 -49 79q0 46 35 75.5t95 29.5q62 0 97.5 -29.5t35.5 -75.5q0 -51 -50 -79q62 -34 62 -93
q0 -53 -39 -83t-106 -30zM481 231q17 0 27.5 10t10.5 27q0 16 -10.5 27t-27.5 11q-16 0 -27 -11t-11 -27q0 -17 11 -27t27 -10z" />
    <glyph glyph-name="fiveeighths" unicode="&#x215d;" 
d="M484 -9q-67 0 -105.5 30t-38.5 83q0 60 61 93q-49 27 -49 79q0 46 35 75.5t97 29.5t98.5 -29.5t36.5 -75.5q0 -51 -50 -79q62 -34 62 -93q0 -54 -39 -83.5t-108 -29.5zM124 300q-57 0 -94.5 33t-44.5 89l102 5q5 -41 40 -41q40 0 40 49q0 21 -11 34.5t-28 13.5
q-20 0 -36 -22l-96 8l20 216h230v-83h-152l-5 -50q26 14 53 14q55 0 90 -36t35 -95q0 -61 -39.5 -98t-103.5 -37zM112 0l295 685h95l-295 -685h-95zM484 69q21 0 34 12t13 32t-13 32t-34 12q-19 0 -31.5 -12t-12.5 -32t12.5 -32t31.5 -12zM484 231q18 0 29 10t11 27
q0 16 -11 27t-29 11q-17 0 -28.5 -11t-11.5 -27q0 -17 11 -27t29 -10z" />
    <glyph glyph-name="seveneighths" unicode="&#x215e;" 
d="M460 -9q-65 0 -103.5 30t-38.5 83q0 60 61 93q-49 27 -49 79q0 46 35 75.5t95 29.5q62 0 97.5 -29.5t35.5 -75.5q0 -51 -50 -79q62 -34 62 -93q0 -53 -39 -83t-106 -30zM69 0l295 685h98l-295 -685h-98zM143 312h-107q35 144 128 290q-23 -1 -66 -1h-91v84h267v-74
q-52 -82 -79.5 -145t-51.5 -154zM460 69q19 0 32 12t13 32t-13 32t-32 12q-18 0 -30 -12t-12 -32t12 -32t30 -12zM460 231q17 0 27.5 10t10.5 27q0 16 -10.5 27t-27.5 11q-16 0 -27 -11t-11 -27q0 -17 11 -27t27 -10z" />
    <glyph glyph-name="arrowleft" unicode="&#x2190;" 
d="M249 80l-117 123q-107 113 -118 123q11 10 118 123l117 123h166l-109 -110l-72 -72v-1q59 1 142 1h216v-129h-217q-82 0 -141 1v-1l72 -71l109 -110h-166z" />
    <glyph glyph-name="arrowup" unicode="&#x2191;" 
d="M239 56v270v45q0 34 1 54q-23 -20 -71 -72l-110 -109v156l123 116l123 119q33 -33 123 -119l123 -116v-156l-181 181v-99v-270h-131z" />
    <glyph glyph-name="arrowright" unicode="&#x2192;" 
d="M198 80l109 110l72 71v1q-59 -1 -141 -1h-217v129h216q83 0 142 -1v1l-72 72l-109 110h166l117 -123q107 -113 118 -123q-11 -10 -118 -123l-117 -123h-166z" />
    <glyph glyph-name="arrowdown" unicode="&#x2193;" 
d="M305 26l-123 119l-123 116v156l110 -109q43 -47 71 -72q-1 20 -1 54v45v270h131v-270v-99l181 181v-156l-123 -116q-90 -86 -123 -119z" />
    <glyph glyph-name="uni2196" unicode="&#x2196;" 
d="M461 104l-149 147q-16 16 -50.5 52.5t-57.5 59.5l-1 -1q0 -18 0.5 -48.5t0.5 -52.5q0 -25 -0.5 -77t-0.5 -78l-113 111l5 170q3 63 3 170q29 0 341 8l111 -110q-27 0 -79 -0.5t-77 -0.5q-19 0 -54.5 0.5t-46.5 0.5l-1 -1q9 -9 46.5 -45.5t78.5 -77.5l137 -136z" />
    <glyph glyph-name="uni2197" unicode="&#x2197;" 
d="M152 104l-93 91l137 136q96 96 126 123l-1 1q-35 -1 -102 -1q-103 0 -156 1l111 110q312 -8 341 -8q0 -107 8 -340l-113 -111q0 26 -0.5 78t-0.5 77q0 22 1 52.5t1 48.5l-1 1q-20 -20 -56 -57.5t-53 -54.5z" />
    <glyph glyph-name="uni2198" unicode="&#x2198;" 
d="M173 115l-111 110q27 0 79 0.5t77 0.5h102q-16 14 -53.5 52t-71.5 71l-137 136l93 91l149 -147q17 -17 53 -54.5t56 -57.5v1q0 18 -0.5 48t-0.5 53q0 25 0.5 77t0.5 78l113 -111l-5 -170q-3 -63 -3 -170q-29 0 -341 -8z" />
    <glyph glyph-name="uni2199" unicode="&#x2199;" 
d="M549 225l-111 -110q-312 8 -341 8q0 107 -3 170l-5 170l113 111q0 -26 0.5 -78t0.5 -77q0 -23 -0.5 -53t-0.5 -48v-1q20 20 56 57.5t53 54.5l149 147l93 -91l-137 -136q-34 -33 -71.5 -71t-53.5 -52h102q25 0 77 -0.5t79 -0.5z" />
    <glyph glyph-name="partialdiff" unicode="&#x2202;" 
d="M307 -13q-123 0 -197 72.5t-74 196.5q0 120 66 193t157 73q63 0 90 -27l4 3q-38 58 -110 113.5t-147 91.5l125 60q158 -58 256.5 -186.5t98.5 -289.5q0 -148 -72.5 -224t-196.5 -76zM306 117q103 0 103 138q0 64 -26.5 101.5t-76.5 37.5q-52 0 -78 -37t-26 -102
q0 -66 26.5 -102t77.5 -36z" />
    <glyph glyph-name="increment" unicode="&#x2206;" 
d="M10 0l208 685h176l211 -685h-595zM200 129h212l-104 383h-4z" />
    <glyph glyph-name="product" unicode="&#x220f;" 
d="M54 -70v614h-54v141h612v-141h-54v-614h-177v614h-150v-614h-177z" />
    <glyph glyph-name="summation" unicode="&#x2211;" 
d="M49 -135v131l230 276l-226 281v132h518v-142h-297l208 -261l-225 -277h320v-140h-528z" />
    <glyph glyph-name="minus" unicode="&#x2212;" 
d="M65 263v149h483v-149h-483z" />
    <glyph glyph-name="radical" unicode="&#x221a;" 
d="M222 0l-120 385h-83v141h205l34 -119q5 -17 24.5 -95t26.5 -101h4q6 24 26 112t34 141l59 221h157l-198 -685h-169z" />
    <glyph glyph-name="infinity" unicode="&#x221e;" 
d="M155 160q-72 0 -109 48t-37 122q0 79 39 125t109 46q82 0 153 -91q66 91 147 91q69 0 107.5 -46t38.5 -125q0 -74 -38 -122t-110 -48q-86 0 -154 94q-60 -94 -146 -94zM164 281q14 0 29 8t22 14.5t24 23.5q-17 19 -25.5 27.5t-22.5 17t-28 8.5q-18 0 -29 -13.5t-11 -37.5
q0 -23 11.5 -35.5t29.5 -12.5zM447 281q19 0 30.5 13.5t11.5 37.5q0 23 -11 35.5t-29 12.5q-33 0 -76 -47q2 -2 7 -8t7 -8t6.5 -7t7 -7t7 -6t7 -5.5t7 -4t8 -3.5t8 -2t9.5 -1z" />
    <glyph glyph-name="integral" unicode="&#x222b;" 
d="M139 -172q-67 0 -106 16q4 22 10 64t9 62q22 -7 43 -7q69 0 82 90l69 455q19 125 64.5 181.5t143.5 56.5q66 0 108 -14l-21 -132q-19 7 -39 7q-37 0 -55.5 -21.5t-26.5 -75.5l-73 -464q-18 -118 -64 -168t-144 -50z" />
    <glyph glyph-name="approxequal" unicode="&#x2248;" 
d="M404 115q-9 0 -19 1.5t-16.5 3t-17.5 5.5t-15.5 5.5t-18 7.5t-17.5 8l-35 16q-25 13 -48 13q-43 0 -73 -58l-90 71q64 127 157 127q9 0 19 -1.5t16.5 -3t17.5 -5.5t15.5 -5.5t18 -7.5t17.5 -8l35 -16q25 -13 48 -13q43 0 73 58l90 -71q-63 -127 -157 -127zM404 369
q-9 0 -19 1.5t-16.5 3t-17.5 5.5t-15.5 5.5t-18 7.5t-17.5 8l-35 16q-25 13 -48 13q-43 0 -73 -58l-90 71q64 127 157 127q9 0 19 -1.5t16.5 -3t17.5 -5.5t15.5 -5.5t18 -7.5t17.5 -8l35 -16q25 -13 48 -13q43 0 73 58l90 -71q-63 -127 -157 -127z" />
    <glyph glyph-name="notequal" unicode="&#x2260;" 
d="M76 60l57 96h-69v134h149l53 88h-202v133h281l58 96h143l-58 -96h60v-133h-139l-53 -88h192v-134h-272l-57 -96h-143z" />
    <glyph glyph-name="lessequal" unicode="&#x2264;" 
d="M504 144l-396 164v121l396 166v-144q-35 -13 -109.5 -39t-112.5 -40v-4l222 -79v-145zM108 0v134h396v-134h-396z" />
    <glyph glyph-name="greaterequal" unicode="&#x2265;" 
d="M108 144v145l222 79v4q-38 14 -112.5 40t-109.5 39v144l396 -166v-121zM108 0v134h396v-134h-396z" />
    <glyph glyph-name="lozenge" unicode="&#x25ca;" 
d="M250 0l-207 338l207 347h112l206 -347l-206 -338h-112zM305 160l106 179l-105 186l-107 -186z" />
    <glyph glyph-name="uni25CF" unicode="&#x25cf;" 
d="M87 340q0 91 64 155t155 64t155 -64t64 -155t-64 -155t-155 -64t-155 64t-64 155z" />
    <glyph glyph-name="uniFB00" unicode="&#xfb00;" 
d="M360 0v385h-119v-385h-168v385h-63v131h63v45q0 97 45 135q39 34 142 34h70v-124h-35q-34 0 -45.5 -10.5t-11.5 -39.5v-40h122v45q0 97 45 135q39 34 142 34h71v-124h-36q-34 0 -45.5 -10.5t-11.5 -39.5v-40h93v-131h-90v-385h-168z" />
    <glyph glyph-name="fi" unicode="&#xfb01;" 
d="M76 0v385h-68v131h68v45q0 97 45 135q39 34 142 34h76v-124h-41q-34 0 -45.5 -10.5t-11.5 -39.5v-40h316v-516h-167v385h-146v-385h-168zM391 583v147h172v-147h-172z" />
    <glyph glyph-name="fl" unicode="&#xfb02;" 
d="M76 0v385h-68v131h68v45q0 97 45 135q39 34 142 34h76v-124h-41q-34 0 -45.5 -10.5t-11.5 -39.5v-40h98v-131h-95v-385h-168zM390 0v730h167v-730h-167z" />
    <glyph glyph-name="uniFB03" unicode="&#xfb03;" 
d="M41 0v385h-53v131h53v55q0 50 7.5 77.5t28.5 48.5q34 33 111 33h38v-114h-3q-31 0 -41.5 -10.5t-10.5 -39.5v-50h73v55q0 50 7.5 78t27.5 48q19 19 42.5 26t68.5 7h37v-114h-2q-31 0 -41.5 -10.5t-10.5 -39.5v-50h211v-516h-132v385h-76v-385h-132v385h-70v-385h-133z
M458 593v137h132v-137h-132z" />
    <glyph glyph-name="uniFB04" unicode="&#xfb04;" 
d="M243 0v385h-70v-385h-133v385h-53v131h53v55q0 50 7.5 77.5t28.5 48.5q34 33 111 33h38v-114h-3q-31 0 -41.5 -10.5t-10.5 -39.5v-50h73v55q0 50 7.5 78t27.5 48q19 19 42.5 26t68.5 7h37v-114h-2q-31 0 -41.5 -10.5t-10.5 -39.5v-50h54v-131h-51v-385h-132zM451 0v730
h132v-730h-132z" />
    <glyph glyph-name="uniFEFF" unicode="&#xfeff;" horiz-adv-x="0" 
 />
    <glyph glyph-name="i.latn_TRK" 
d="M74 0v136h152v244h-152v136h323v-380h153v-136h-476zM251 600v122h132v-122h-132z" />
    <glyph glyph-name="Ldot.latn_CAT" 
d="M92 0v685h179v-541h263v-144h-442zM411 309v122h132v-122h-132z" />
    <glyph glyph-name="ldot.latn_CAT" 
d="M71 0v136h155v458h-155v136h326v-594h150v-136h-476zM480 308v122h132v-122h-132z" />
    <glyph glyph-name="bracketleft.subs" 
d="M245 -177v572h171v-78h-65q1 -15 1 -44v-328q0 -28 -1 -44h65v-78h-171z" />
    <glyph glyph-name="bracketright.subs" 
d="M196 -177v78h64v44v328v44h-64v78h171v-572h-171z" />
    <glyph glyph-name="a.subs" 
d="M259 -90q-53 0 -87 28t-34 75q0 44 27 66.5t87 34.5l68 13q18 4 23 7t5 11q0 32 -41 32q-46 0 -46 -42l-112 5q2 54 43.5 87t114.5 33q157 0 157 -138v-190v-16h-98v13v13h-2q-32 -32 -105 -32zM292 -17q26 0 42.5 13.5t16.5 40.5v12q0 11 1 14l-31 -8l-28 -7
q-26 -7 -34.5 -12.5t-8.5 -19.5q0 -33 42 -33z" />
    <glyph glyph-name="b.subs" 
d="M342 -90q-61 0 -95 41h-1q0 -4 0.5 -13t0.5 -15v-7h-121v48v419h124v-74q0 -54 -1 -87h1q38 42 96 42q68 0 110 -50t42 -128q0 -79 -42.5 -127.5t-113.5 -48.5zM313 5q30 0 47.5 22t17.5 58q0 37 -17.5 59.5t-47.5 22.5q-32 0 -49 -22t-17 -60q0 -37 17 -58.5t49 -21.5z
" />
    <glyph glyph-name="c.subs" 
d="M317 -90q-82 0 -131 49t-49 126q0 80 50 129.5t132 49.5q62 0 107 -31.5t58 -83.5l-108 -23q-13 42 -56 42q-30 0 -46.5 -22t-16.5 -61q0 -80 63 -80q44 0 57 41l109 -25q-16 -50 -60.5 -80.5t-108.5 -30.5z" />
    <glyph glyph-name="d.subs" 
d="M273 -90q-72 0 -114 48t-42 128q0 78 42 128t110 50q59 0 96 -41h1q-1 32 -1 86v74h124v-419v-48h-121v7q0 6 0.5 15t0.5 13h-1q-34 -41 -95 -41zM303 5q31 0 48 21.5t17 58.5t-17.5 59.5t-47.5 22.5t-48 -22.5t-18 -59.5q0 -36 18 -58t48 -22z" />
    <glyph glyph-name="e.subs" 
d="M313 -90q-84 0 -134 47t-50 130q0 79 51 128t133 49q81 0 127.5 -49.5t46.5 -134.5q0 -9 -2 -23h-240q8 -59 70 -59q49 0 72 37l98 -32q-22 -42 -65.5 -67.5t-106.5 -25.5zM247 128h123q-5 57 -60 57q-56 0 -63 -57z" />
    <glyph glyph-name="f.subs" 
d="M137 -84v93h98v151h-96v93h96v21q0 61 28 85t94 24h115v-89h-82q-19 0 -26.5 -6.5t-7.5 -22.5v-12h116v-93h-114v-151h98v-93h-319z" />
    <glyph glyph-name="g.subs" 
d="M295 -211q-131 0 -176 88l95 41q30 -40 83 -40q38 0 54.5 16.5t16.5 52.5v2q0 12 1 16h-2q-41 -39 -98 -39q-65 0 -108 47.5t-43 119.5q0 71 42.5 121t108.5 50q60 0 101 -43h1q-1 7 -1 18v14h117v-58v-246q0 -82 -52 -121t-140 -39zM304 14q29 0 46.5 22t17.5 56
t-17.5 57.5t-46.5 23.5t-47 -23.5t-18 -56.5q0 -36 17.5 -57.5t47.5 -21.5z" />
    <glyph glyph-name="h.subs" 
d="M143 -84v467h124v-134q0 -12 -1 -23h1q38 38 102 38q63 0 92 -35.5t29 -110.5v-202h-123v171q0 45 -12 62t-37 17q-51 0 -51 -71v-179h-124z" />
    <glyph glyph-name="i.subs" 
d="M158 -84v92h94v153h-94v92h219v-245h96v-92h-315zM238 288v95h141v-95h-141z" />
    <glyph glyph-name="j.subs" 
d="M186 -205v89h79q20 0 27 9t7 30v238h-115v92h240v-345q0 -70 -31.5 -91.5t-115.5 -21.5h-91zM284 287v96h143v-96h-143z" />
    <glyph glyph-name="k.subs" 
d="M163 -84v467h125v-264l100 134h147l-126 -148l136 -189h-153l-69 111l-35 -40v-71h-125z" />
    <glyph glyph-name="l.subs" 
d="M153 -84v93h100v281h-100v93h225v-374h96v-93h-321z" />
    <glyph glyph-name="m.subs" 
d="M32 -84v280v57h119v-37q36 48 101 48q69 0 102 -51q39 51 113 51q127 0 127 -152v-196h-122v170q0 45 -11.5 62t-36.5 17q-50 0 -50 -71v-178h-122v170q0 45 -11.5 62t-36.5 17q-49 0 -49 -72v-177h-123z" />
    <glyph glyph-name="n.subs" 
d="M138 -84v280v57h119v-12q0 -12 -1 -23h1q35 46 107 46q63 0 92 -35.5t29 -110.5v-202h-123v171q0 45 -12 62t-37 17q-51 0 -51 -73v-177h-124z" />
    <glyph glyph-name="o.subs" 
d="M307 -90q-84 0 -135 48.5t-51 127.5q0 80 51.5 129t134.5 49q82 0 133 -49.5t51 -129.5q0 -78 -51 -126.5t-133 -48.5zM307 5q64 0 64 80q0 83 -64 83q-66 0 -66 -83q0 -80 66 -80z" />
    <glyph glyph-name="p.subs" 
d="M125 -204v392v65h122v-5q0 -15 -1 -28h1q36 44 98 44q68 0 110 -50t42 -128q0 -79 -42.5 -128.5t-113.5 -49.5q-59 0 -92 40h-1q0 -4 0.5 -12.5t0.5 -14.5v-125h-124zM312 3q30 0 47.5 22.5t17.5 59.5t-17.5 59.5t-47.5 22.5q-32 0 -49 -22t-17 -60t17 -60t49 -22z" />
    <glyph glyph-name="q.subs" 
d="M363 -204v125q0 6 0.5 14.5t0.5 12.5h-1q-33 -40 -92 -40q-71 0 -113.5 49.5t-42.5 128.5q0 78 42 128t110 50q62 0 98 -44h1q-1 13 -1 28v5h122v-65v-392h-124zM301 3q30 0 47.5 22.5t17.5 59.5t-17.5 59.5t-47.5 22.5t-48 -22.5t-18 -59.5t18 -59.5t48 -22.5z" />
    <glyph glyph-name="r.subs" 
d="M160 -84v93h77v151h-77v93h190v-21v-49h4q6 30 32 50t80 20h60v-107h-81q-54 0 -72 -27q-16 -20 -16 -91v-19h122v-93h-319z" />
    <glyph glyph-name="s.subs" 
d="M311 -90q-144 0 -168 102l112 18q9 -43 57 -43q43 0 43 26q0 11 -11 17t-37 12l-46 11q-55 13 -81 35.5t-26 66.5q0 52 41.5 80.5t114.5 28.5q136 0 159 -101l-108 -15q-9 38 -51 38q-36 0 -36 -24q0 -11 8.5 -16t36.5 -12l43 -11q59 -15 87.5 -38t28.5 -66
q0 -109 -167 -109z" />
    <glyph glyph-name="t.subs" 
d="M497 -84h-139q-64 0 -90 23.5t-26 86.5v134h-96v93h96v92h127v-92h128v-93h-130v-124q0 -16 7 -22.5t26 -6.5h97v-91z" />
    <glyph glyph-name="u.subs" 
d="M258 -90q-63 0 -91.5 35.5t-28.5 110.5v197h122v-167q0 -45 11.5 -61.5t36.5 -16.5q50 0 50 68v177h124v-280v-57h-119v13q0 12 1 23h-1q-29 -42 -105 -42z" />
    <glyph glyph-name="v.subs" 
d="M234 -84l-115 337h128l30 -113q18 -66 28 -111h2q1 3 30 112l30 112h127l-118 -337h-142z" />
    <glyph glyph-name="w.subs" 
d="M115 -84l-98 337h126l25 -107q13 -53 24 -106h2q4 22 11 54t11 51l25 108h131l25 -107q10 -42 23 -106h2q1 5 9 42.5t15 63.5l24 107h126l-99 -337h-146l-22 97q-14 61 -23 111h-2q-5 -24 -13.5 -63.5t-10.5 -46.5l-20 -98h-145z" />
    <glyph glyph-name="x.subs" 
d="M111 -84l122 174l-117 163h141l49 -82h1l47 82h136l-112 -163l123 -174h-140l-56 90h-1l-56 -90h-137z" />
    <glyph glyph-name="y.subs" 
d="M203 -211q-40 0 -54 2l-10 87h27q36 0 52 6.5t25 27.5l-129 341h132l35 -121q2 -5 25 -99h2q5 21 14.5 57t10.5 42l32 121h132l-134 -359q-24 -62 -62 -83.5t-98 -21.5z" />
    <glyph glyph-name="z.subs" 
d="M151 -84v88l90 92q2 2 24 25t38 38h-89h-58v94h301v-89l-72 -74q-11 -11 -36.5 -37.5t-41.5 -42.5h69h88v-94h-313z" />
    <glyph glyph-name="bracketleft.sups" 
d="M245 255v572h171v-78h-65q1 -15 1 -44v-328q0 -28 -1 -44h65v-78h-171z" />
    <glyph glyph-name="bracketright.sups" 
d="M196 255v78h64v44v328v44h-64v78h171v-572h-171z" />
    <glyph glyph-name="a.sups" 
d="M259 342q-53 0 -87 28t-34 75q0 44 27 66.5t87 34.5l68 13q18 4 23 7t5 11q0 32 -41 32q-46 0 -46 -42l-112 5q2 54 43.5 87t114.5 33q157 0 157 -138v-190v-16h-98v13v13h-2q-32 -32 -105 -32zM292 415q26 0 42.5 13.5t16.5 40.5v12q0 11 1 14l-31 -8l-28 -7
q-26 -7 -34.5 -12.5t-8.5 -19.5q0 -33 42 -33z" />
    <glyph glyph-name="b.sups" 
d="M342 342q-61 0 -95 41h-1q0 -4 0.5 -13t0.5 -15v-7h-121v48v419h124v-74q0 -54 -1 -87h1q38 42 96 42q68 0 110 -50t42 -128q0 -79 -42.5 -127.5t-113.5 -48.5zM313 437q30 0 47.5 22t17.5 58q0 37 -17.5 59.5t-47.5 22.5q-32 0 -49 -22t-17 -60q0 -37 17 -58.5t49 -21.5
z" />
    <glyph glyph-name="c.sups" 
d="M317 342q-82 0 -131 49t-49 126q0 80 50 129.5t132 49.5q62 0 107 -31.5t58 -83.5l-108 -23q-13 42 -56 42q-30 0 -46.5 -22t-16.5 -61q0 -80 63 -80q44 0 57 41l109 -25q-16 -50 -60.5 -80.5t-108.5 -30.5z" />
    <glyph glyph-name="d.sups" 
d="M273 342q-72 0 -114 48t-42 128q0 78 42 128t110 50q59 0 96 -41h1q-1 32 -1 86v74h124v-419v-48h-121v7q0 6 0.5 15t0.5 13h-1q-34 -41 -95 -41zM303 437q31 0 48 21.5t17 58.5t-17.5 59.5t-47.5 22.5t-48 -22.5t-18 -59.5q0 -36 18 -58t48 -22z" />
    <glyph glyph-name="e.sups" 
d="M313 342q-84 0 -134 47t-50 130q0 79 51 128t133 49q81 0 127.5 -49.5t46.5 -134.5q0 -9 -2 -23h-240q8 -59 70 -59q49 0 72 37l98 -32q-22 -42 -65.5 -67.5t-106.5 -25.5zM247 560h123q-5 57 -60 57q-56 0 -63 -57z" />
    <glyph glyph-name="f.sups" 
d="M137 348v93h98v151h-96v93h96v21q0 61 28 85t94 24h115v-89h-82q-19 0 -26.5 -6.5t-7.5 -22.5v-12h116v-93h-114v-151h98v-93h-319z" />
    <glyph glyph-name="g.sups" 
d="M295 221q-131 0 -176 88l95 41q30 -40 83 -40q38 0 54.5 16.5t16.5 52.5v2q0 12 1 16h-2q-41 -39 -98 -39q-65 0 -108 47.5t-43 119.5q0 71 42.5 121t108.5 50q60 0 101 -43h1q-1 7 -1 18v14h117v-58v-246q0 -82 -52 -121t-140 -39zM304 446q29 0 46.5 22t17.5 56
t-17.5 57.5t-46.5 23.5t-47 -23.5t-18 -56.5q0 -36 17.5 -57.5t47.5 -21.5z" />
    <glyph glyph-name="h.sups" 
d="M143 348v467h124v-134q0 -12 -1 -23h1q38 38 102 38q63 0 92 -35.5t29 -110.5v-202h-123v171q0 45 -12 62t-37 17q-51 0 -51 -71v-179h-124z" />
    <glyph glyph-name="i.sups" 
d="M158 348v92h94v153h-94v92h219v-245h96v-92h-315zM238 720v95h141v-95h-141z" />
    <glyph glyph-name="j.sups" 
d="M186 227v89h79q20 0 27 9t7 30v238h-115v92h240v-345q0 -70 -31.5 -91.5t-115.5 -21.5h-91zM284 719v96h143v-96h-143z" />
    <glyph glyph-name="k.sups" 
d="M163 348v467h125v-264l100 134h147l-126 -148l136 -189h-153l-69 111l-35 -40v-71h-125z" />
    <glyph glyph-name="l.sups" 
d="M153 348v93h100v281h-100v93h225v-374h96v-93h-321z" />
    <glyph glyph-name="m.sups" 
d="M32 348v280v57h119v-37q36 48 101 48q69 0 102 -51q39 51 113 51q127 0 127 -152v-196h-122v170q0 45 -11.5 62t-36.5 17q-50 0 -50 -71v-178h-122v170q0 45 -11.5 62t-36.5 17q-49 0 -49 -72v-177h-123z" />
    <glyph glyph-name="o.sups" 
d="M307 342q-84 0 -135 48.5t-51 127.5q0 80 51.5 129t134.5 49q82 0 133 -49.5t51 -129.5q0 -78 -51 -126.5t-133 -48.5zM307 437q64 0 64 80q0 83 -64 83q-66 0 -66 -83q0 -80 66 -80z" />
    <glyph glyph-name="p.sups" 
d="M125 228v392v65h122v-5q0 -15 -1 -28h1q36 44 98 44q68 0 110 -50t42 -128q0 -79 -42.5 -128.5t-113.5 -49.5q-59 0 -92 40h-1q0 -4 0.5 -12.5t0.5 -14.5v-125h-124zM312 435q30 0 47.5 22.5t17.5 59.5t-17.5 59.5t-47.5 22.5q-32 0 -49 -22t-17 -60t17 -60t49 -22z" />
    <glyph glyph-name="q.sups" 
d="M363 228v125q0 6 0.5 14.5t0.5 12.5h-1q-33 -40 -92 -40q-71 0 -113.5 49.5t-42.5 128.5q0 78 42 128t110 50q62 0 98 -44h1q-1 13 -1 28v5h122v-65v-392h-124zM301 435q30 0 47.5 22.5t17.5 59.5t-17.5 59.5t-47.5 22.5t-48 -22.5t-18 -59.5t18 -59.5t48 -22.5z" />
    <glyph glyph-name="r.sups" 
d="M160 348v93h77v151h-77v93h190v-21v-49h4q6 30 32 50t80 20h60v-107h-81q-54 0 -72 -27q-16 -20 -16 -91v-19h122v-93h-319z" />
    <glyph glyph-name="s.sups" 
d="M311 342q-144 0 -168 102l112 18q9 -43 57 -43q43 0 43 26q0 11 -11 17t-37 12l-46 11q-55 13 -81 35.5t-26 66.5q0 52 41.5 80.5t114.5 28.5q136 0 159 -101l-108 -15q-9 38 -51 38q-36 0 -36 -24q0 -11 8.5 -16t36.5 -12l43 -11q59 -15 87.5 -38t28.5 -66
q0 -109 -167 -109z" />
    <glyph glyph-name="t.sups" 
d="M497 348h-139q-64 0 -90 23.5t-26 86.5v134h-96v93h96v92h127v-92h128v-93h-130v-124q0 -16 7 -22.5t26 -6.5h97v-91z" />
    <glyph glyph-name="u.sups" 
d="M258 342q-63 0 -91.5 35.5t-28.5 110.5v197h122v-167q0 -45 11.5 -61.5t36.5 -16.5q50 0 50 68v177h124v-280v-57h-119v13q0 12 1 23h-1q-29 -42 -105 -42z" />
    <glyph glyph-name="v.sups" 
d="M234 348l-115 337h128l30 -113q18 -66 28 -111h2q1 3 30 112l30 112h127l-118 -337h-142z" />
    <glyph glyph-name="w.sups" 
d="M115 348l-98 337h126l25 -107q13 -53 24 -106h2q4 22 11 54t11 51l25 108h131l25 -107q10 -42 23 -106h2q1 5 9 42.5t15 63.5l24 107h126l-99 -337h-146l-22 97q-14 61 -23 111h-2q-5 -24 -13.5 -63.5t-10.5 -46.5l-20 -98h-145z" />
    <glyph glyph-name="x.sups" 
d="M111 348l122 174l-117 163h141l49 -82h1l47 82h136l-112 -163l123 -174h-140l-56 90h-1l-56 -90h-137z" />
    <glyph glyph-name="y.sups" 
d="M203 221q-40 0 -54 2l-10 87h27q36 0 52 6.5t25 27.5l-129 341h132l35 -121q2 -5 25 -99h2q5 21 14.5 57t10.5 42l32 121h132l-134 -359q-24 -62 -62 -83.5t-98 -21.5z" />
    <glyph glyph-name="z.sups" 
d="M151 348v88l90 92q2 2 24 25t38 38h-89h-58v94h301v-89l-72 -74q-11 -11 -36.5 -37.5t-41.5 -42.5h69h88v-94h-313z" />
    <glyph glyph-name="zero.numr" 
d="M306 212q-98 0 -138.5 62t-40.5 177q0 246 179 246q180 0 180 -246q0 -115 -41 -177t-139 -62zM306 318q32 0 44 33.5t12 101.5q0 70 -11.5 104.5t-44.5 34.5q-32 0 -43.5 -35t-11.5 -104q0 -68 11.5 -101.5t43.5 -33.5zM273 416v76h68v-76h-68z" />
    <glyph glyph-name="one.numr" 
d="M160 218v99h103v208h-112v87h21q95 0 103 73h109v-368h93v-99h-317z" />
    <glyph glyph-name="two.numr" 
d="M141 218v101q6 5 60 47.5t89 72.5q39 32 55.5 53.5t16.5 46.5q0 50 -50 50q-28 0 -41.5 -19.5t-13.5 -49.5l-119 2q0 80 46.5 127.5t132.5 47.5q81 0 124.5 -38.5t43.5 -107.5q0 -52 -25 -91t-73 -80q-17 -14 -46.5 -35t-30.5 -22v-1h82h98v-104h-349z" />
    <glyph glyph-name="three.numr" 
d="M298 212q-169 0 -180 156l120 7q5 -64 61 -64q28 0 42 15t14 38q0 55 -74 55h-27v85h21q71 0 71 49q0 19 -13 30t-31 11q-20 0 -34.5 -13t-15.5 -38l-121 7q4 67 49 107t120 40q77 0 120.5 -35.5t43.5 -94.5q0 -66 -56 -99q73 -30 73 -111q0 -68 -49.5 -106.5
t-133.5 -38.5z" />
    <glyph glyph-name="four.numr" 
d="M327 218v86h-190v84l101 297h115l-97 -286h71v156h107v-156h60v-95h-60v-86h-107z" />
    <glyph glyph-name="five.numr" 
d="M305 212q-75 0 -122 39t-55 107l122 5q8 -50 59 -50q28 0 42.5 17t14.5 45q0 27 -16 44t-42 17q-30 0 -48 -25l-117 9l26 265h290v-102h-194q-1 -11 -3 -32t-4 -33h1q31 18 71 18q69 0 113 -43t44 -116q0 -77 -49.5 -121t-132.5 -44z" />
    <glyph glyph-name="six.numr" 
d="M308 212q-88 0 -136 55.5t-48 159.5q0 125 49 197.5t140 72.5q75 0 113.5 -37t45.5 -97l-121 -6q-7 32 -42 32q-56 0 -56 -89q36 28 82 28q67 0 108.5 -41.5t41.5 -110.5q0 -72 -48.5 -118t-128.5 -46zM307 309q27 0 43.5 16.5t16.5 44.5q0 29 -16.5 47t-44.5 18
q-26 0 -43 -18t-17 -46q0 -29 17 -45.5t44 -16.5z" />
    <glyph glyph-name="seven.numr" 
d="M302 218h-140q49 169 164 359v1q-31 -1 -87 -1h-111v108h335v-102q-95 -133 -161 -365z" />
    <glyph glyph-name="eight.numr" 
d="M306 212q-86 0 -134 36t-48 104q0 80 76 117q-61 33 -61 102q0 57 45 91.5t122 34.5t122 -34.5t45 -91.5q0 -70 -61 -102q76 -37 76 -117q0 -68 -48 -104t-134 -36zM306 308q27 0 43.5 15.5t16.5 40.5t-16.5 41t-43.5 16t-44 -16t-17 -41t16 -40.5t45 -15.5zM306 507
q24 0 38.5 14t14.5 36t-14.5 36t-38.5 14t-38.5 -14t-14.5 -36t14.5 -36t38.5 -14z" />
    <glyph glyph-name="nine.numr" 
d="M296 212q-75 0 -116 36.5t-47 96.5l122 5q7 -31 43 -31q60 0 58 90q-37 -29 -83 -29q-67 0 -107.5 40.5t-40.5 110.5q0 73 48 119.5t128 46.5q88 0 136 -56t48 -161q0 -129 -48 -198.5t-141 -69.5zM303 474q26 0 43 18t17 45q0 29 -17 46t-44 17t-43.5 -17t-16.5 -44
q0 -29 16.5 -47t44.5 -18z" />
    <glyph glyph-name="bracketleft.numr" 
d="M245 125v572h171v-78h-65q1 -15 1 -44v-328q0 -28 -1 -44h65v-78h-171z" />
    <glyph glyph-name="bracketright.numr" 
d="M196 125v78h64v44v328v44h-64v78h171v-572h-171z" />
    <glyph glyph-name="a.numr" 
d="M259 212q-53 0 -87 28t-34 75q0 44 27 66.5t87 34.5l68 13q18 4 23 7t5 11q0 32 -41 32q-46 0 -46 -42l-112 5q2 54 43.5 87t114.5 33q157 0 157 -138v-190v-16h-98v13v13h-2q-32 -32 -105 -32zM292 285q26 0 42.5 13.5t16.5 40.5v12q0 11 1 14l-31 -8l-28 -7
q-26 -7 -34.5 -12.5t-8.5 -19.5q0 -33 42 -33z" />
    <glyph glyph-name="b.numr" 
d="M342 212q-61 0 -95 41h-1q0 -4 0.5 -13t0.5 -15v-7h-121v48v419h124v-74q0 -54 -1 -87h1q38 42 96 42q68 0 110 -50t42 -128q0 -79 -42.5 -127.5t-113.5 -48.5zM313 307q30 0 47.5 22t17.5 58q0 37 -17.5 59.5t-47.5 22.5q-32 0 -49 -22t-17 -60q0 -37 17 -58.5t49 -21.5
z" />
    <glyph glyph-name="c.numr" 
d="M317 212q-82 0 -131 49t-49 126q0 80 50 129.5t132 49.5q62 0 107 -31.5t58 -83.5l-108 -23q-13 42 -56 42q-30 0 -46.5 -22t-16.5 -61q0 -80 63 -80q44 0 57 41l109 -25q-16 -50 -60.5 -80.5t-108.5 -30.5z" />
    <glyph glyph-name="d.numr" 
d="M273 212q-72 0 -114 48t-42 128q0 78 42 128t110 50q59 0 96 -41h1q-1 32 -1 86v74h124v-419v-48h-121v7q0 6 0.5 15t0.5 13h-1q-34 -41 -95 -41zM303 307q31 0 48 21.5t17 58.5t-17.5 59.5t-47.5 22.5t-48 -22.5t-18 -59.5q0 -36 18 -58t48 -22z" />
    <glyph glyph-name="e.numr" 
d="M313 212q-84 0 -134 47t-50 130q0 79 51 128t133 49q81 0 127.5 -49.5t46.5 -134.5q0 -9 -2 -23h-240q8 -59 70 -59q49 0 72 37l98 -32q-22 -42 -65.5 -67.5t-106.5 -25.5zM247 430h123q-5 57 -60 57q-56 0 -63 -57z" />
    <glyph glyph-name="f.numr" 
d="M137 218v93h98v151h-96v93h96v21q0 61 28 85t94 24h115v-89h-82q-19 0 -26.5 -6.5t-7.5 -22.5v-12h116v-93h-114v-151h98v-93h-319z" />
    <glyph glyph-name="g.numr" 
d="M295 91q-131 0 -176 88l95 41q30 -40 83 -40q38 0 54.5 16.5t16.5 52.5v2q0 12 1 16h-2q-41 -39 -98 -39q-65 0 -108 47.5t-43 119.5q0 71 42.5 121t108.5 50q60 0 101 -43h1q-1 7 -1 18v14h117v-58v-246q0 -82 -52 -121t-140 -39zM304 316q29 0 46.5 22t17.5 56
t-17.5 57.5t-46.5 23.5t-47 -23.5t-18 -56.5q0 -36 17.5 -57.5t47.5 -21.5z" />
    <glyph glyph-name="h.numr" 
d="M143 218v467h124v-134q0 -12 -1 -23h1q38 38 102 38q63 0 92 -35.5t29 -110.5v-202h-123v171q0 45 -12 62t-37 17q-51 0 -51 -71v-179h-124z" />
    <glyph glyph-name="i.numr" 
d="M158 218v92h94v153h-94v92h219v-245h96v-92h-315zM238 590v95h141v-95h-141z" />
    <glyph glyph-name="j.numr" 
d="M186 97v89h79q20 0 27 9t7 30v238h-115v92h240v-345q0 -70 -31.5 -91.5t-115.5 -21.5h-91zM284 589v96h143v-96h-143z" />
    <glyph glyph-name="k.numr" 
d="M163 218v467h125v-264l100 134h147l-126 -148l136 -189h-153l-69 111l-35 -40v-71h-125z" />
    <glyph glyph-name="l.numr" 
d="M153 218v93h100v281h-100v93h225v-374h96v-93h-321z" />
    <glyph glyph-name="m.numr" 
d="M32 218v280v57h119v-37q36 48 101 48q69 0 102 -51q39 51 113 51q127 0 127 -152v-196h-122v170q0 45 -11.5 62t-36.5 17q-50 0 -50 -71v-178h-122v170q0 45 -11.5 62t-36.5 17q-49 0 -49 -72v-177h-123z" />
    <glyph glyph-name="n.numr" 
d="M138 218v280v57h119v-12q0 -12 -1 -23h1q35 46 107 46q63 0 92 -35.5t29 -110.5v-202h-123v171q0 45 -12 62t-37 17q-51 0 -51 -73v-177h-124z" />
    <glyph glyph-name="o.numr" 
d="M307 212q-84 0 -135 48.5t-51 127.5q0 80 51.5 129t134.5 49q82 0 133 -49.5t51 -129.5q0 -78 -51 -126.5t-133 -48.5zM307 307q64 0 64 80q0 83 -64 83q-66 0 -66 -83q0 -80 66 -80z" />
    <glyph glyph-name="p.numr" 
d="M125 98v392v65h122v-5q0 -15 -1 -28h1q36 44 98 44q68 0 110 -50t42 -128q0 -79 -42.5 -128.5t-113.5 -49.5q-59 0 -92 40h-1q0 -4 0.5 -12.5t0.5 -14.5v-125h-124zM312 305q30 0 47.5 22.5t17.5 59.5t-17.5 59.5t-47.5 22.5q-32 0 -49 -22t-17 -60t17 -60t49 -22z" />
    <glyph glyph-name="q.numr" 
d="M363 98v125q0 6 0.5 14.5t0.5 12.5h-1q-33 -40 -92 -40q-71 0 -113.5 49.5t-42.5 128.5q0 78 42 128t110 50q62 0 98 -44h1q-1 13 -1 28v5h122v-65v-392h-124zM301 305q30 0 47.5 22.5t17.5 59.5t-17.5 59.5t-47.5 22.5t-48 -22.5t-18 -59.5t18 -59.5t48 -22.5z" />
    <glyph glyph-name="r.numr" 
d="M160 218v93h77v151h-77v93h190v-21v-49h4q6 30 32 50t80 20h60v-107h-81q-54 0 -72 -27q-16 -20 -16 -91v-19h122v-93h-319z" />
    <glyph glyph-name="s.numr" 
d="M311 212q-144 0 -168 102l112 18q9 -43 57 -43q43 0 43 26q0 11 -11 17t-37 12l-46 11q-55 13 -81 35.5t-26 66.5q0 52 41.5 80.5t114.5 28.5q136 0 159 -101l-108 -15q-9 38 -51 38q-36 0 -36 -24q0 -11 8.5 -16t36.5 -12l43 -11q59 -15 87.5 -38t28.5 -66
q0 -109 -167 -109z" />
    <glyph glyph-name="t.numr" 
d="M497 218h-139q-64 0 -90 23.5t-26 86.5v134h-96v93h96v92h127v-92h128v-93h-130v-124q0 -16 7 -22.5t26 -6.5h97v-91z" />
    <glyph glyph-name="u.numr" 
d="M258 212q-63 0 -91.5 35.5t-28.5 110.5v197h122v-167q0 -45 11.5 -61.5t36.5 -16.5q50 0 50 68v177h124v-280v-57h-119v13q0 12 1 23h-1q-29 -42 -105 -42z" />
    <glyph glyph-name="v.numr" 
d="M234 218l-115 337h128l30 -113q18 -66 28 -111h2q1 3 30 112l30 112h127l-118 -337h-142z" />
    <glyph glyph-name="w.numr" 
d="M115 218l-98 337h126l25 -107q13 -53 24 -106h2q4 22 11 54t11 51l25 108h131l25 -107q10 -42 23 -106h2q1 5 9 42.5t15 63.5l24 107h126l-99 -337h-146l-22 97q-14 61 -23 111h-2q-5 -24 -13.5 -63.5t-10.5 -46.5l-20 -98h-145z" />
    <glyph glyph-name="x.numr" 
d="M111 218l122 174l-117 163h141l49 -82h1l47 82h136l-112 -163l123 -174h-140l-56 90h-1l-56 -90h-137z" />
    <glyph glyph-name="y.numr" 
d="M203 91q-40 0 -54 2l-10 87h27q36 0 52 6.5t25 27.5l-129 341h132l35 -121q2 -5 25 -99h2q5 21 14.5 57t10.5 42l32 121h132l-134 -359q-24 -62 -62 -83.5t-98 -21.5z" />
    <glyph glyph-name="z.numr" 
d="M151 218v88l90 92q2 2 24 25t38 38h-89h-58v94h301v-89l-72 -74q-11 -11 -36.5 -37.5t-41.5 -42.5h69h88v-94h-313z" />
    <glyph glyph-name="uni208D.numr" 
d="M412 125l-95 -5q-101 132 -101 284q0 153 101 291l95 -5q-81 -134 -81 -284t81 -281z" />
    <glyph glyph-name="uni208E.numr" 
d="M295 120l-95 5q81 131 81 281t-81 284l95 5q101 -138 101 -291q0 -152 -101 -284z" />
    <glyph glyph-name="zero.dnom" 
d="M306 -6q-98 0 -138.5 62t-40.5 177q0 246 179 246q180 0 180 -246q0 -115 -41 -177t-139 -62zM306 100q32 0 44 33.5t12 101.5q0 70 -11.5 104.5t-44.5 34.5q-32 0 -43.5 -35t-11.5 -104q0 -68 11.5 -101.5t43.5 -33.5zM273 198v76h68v-76h-68z" />
    <glyph glyph-name="one.dnom" 
d="M160 0v99h103v208h-112v87h21q95 0 103 73h109v-368h93v-99h-317z" />
    <glyph glyph-name="two.dnom" 
d="M141 0v101q6 5 60 47.5t89 72.5q39 32 55.5 53.5t16.5 46.5q0 50 -50 50q-28 0 -41.5 -19.5t-13.5 -49.5l-119 2q0 80 46.5 127.5t132.5 47.5q81 0 124.5 -38.5t43.5 -107.5q0 -52 -25 -91t-73 -80q-17 -14 -46.5 -35t-30.5 -22v-1h82h98v-104h-349z" />
    <glyph glyph-name="three.dnom" 
d="M298 -6q-169 0 -180 156l120 7q5 -64 61 -64q28 0 42 15t14 38q0 55 -74 55h-27v85h21q71 0 71 49q0 19 -13 30t-31 11q-20 0 -34.5 -13t-15.5 -38l-121 7q4 67 49 107t120 40q77 0 120.5 -35.5t43.5 -94.5q0 -66 -56 -99q73 -30 73 -111q0 -68 -49.5 -106.5
t-133.5 -38.5z" />
    <glyph glyph-name="four.dnom" 
d="M327 0v86h-190v84l101 297h115l-97 -286h71v156h107v-156h60v-95h-60v-86h-107z" />
    <glyph glyph-name="five.dnom" 
d="M305 -6q-75 0 -122 39t-55 107l122 5q8 -50 59 -50q28 0 42.5 17t14.5 45q0 27 -16 44t-42 17q-30 0 -48 -25l-117 9l26 265h290v-102h-194q-1 -12 -3 -33t-4 -32h1q31 18 71 18q69 0 113 -43t44 -116q0 -77 -49.5 -121t-132.5 -44z" />
    <glyph glyph-name="six.dnom" 
d="M308 -6q-88 0 -136 55.5t-48 159.5q0 125 49 197.5t140 72.5q75 0 113.5 -37t45.5 -97l-121 -6q-7 32 -42 32q-56 0 -56 -89q36 28 82 28q67 0 108.5 -41.5t41.5 -110.5q0 -72 -48.5 -118t-128.5 -46zM307 91q27 0 43.5 16.5t16.5 44.5q0 29 -16.5 47t-44.5 18
q-26 0 -43 -18t-17 -46q0 -29 17 -45.5t44 -16.5z" />
    <glyph glyph-name="seven.dnom" 
d="M302 0h-140q49 169 164 359v1q-31 -1 -87 -1h-111v108h335v-102q-95 -133 -161 -365z" />
    <glyph glyph-name="eight.dnom" 
d="M306 -6q-86 0 -134 36t-48 104q0 80 76 117q-61 33 -61 102q0 57 45 91.5t122 34.5t122 -34.5t45 -91.5q0 -70 -61 -102q76 -37 76 -117q0 -68 -48 -104t-134 -36zM306 90q27 0 43.5 15.5t16.5 40.5t-16.5 41t-43.5 16t-44 -16t-17 -41t16 -40.5t45 -15.5zM306 289
q24 0 38.5 14t14.5 36t-14.5 36t-38.5 14t-38.5 -14t-14.5 -36t14.5 -36t38.5 -14z" />
    <glyph glyph-name="nine.dnom" 
d="M296 -6q-75 0 -116 36.5t-47 96.5l122 5q7 -31 43 -31q60 0 58 90q-37 -29 -83 -29q-67 0 -107.5 40.5t-40.5 110.5q0 73 48 119.5t128 46.5q88 0 136 -56t48 -161q0 -129 -48 -198.5t-141 -69.5zM303 256q26 0 43 18t17 45q0 29 -17 46t-44 17t-43.5 -17t-16.5 -44
q0 -29 16.5 -47t44.5 -18z" />
    <glyph glyph-name="bracketleft.dnom" 
d="M245 -93v572h171v-78h-65q1 -15 1 -44v-328q0 -28 -1 -44h65v-78h-171z" />
    <glyph glyph-name="bracketright.dnom" 
d="M196 -93v78h64v44v328v44h-64v78h171v-572h-171z" />
    <glyph glyph-name="a.dnom" 
d="M259 -6q-53 0 -87 28t-34 75q0 44 27 66.5t87 34.5l68 13q18 4 23 7t5 11q0 32 -41 32q-46 0 -46 -42l-112 5q2 54 43.5 87t114.5 33q157 0 157 -138v-190v-16h-98v13v13h-2q-32 -32 -105 -32zM292 67q26 0 42.5 13.5t16.5 40.5v12q0 11 1 14l-31 -8l-28 -7
q-26 -7 -34.5 -12.5t-8.5 -19.5q0 -33 42 -33z" />
    <glyph glyph-name="b.dnom" 
d="M342 -6q-61 0 -95 41h-1q0 -4 0.5 -13t0.5 -15v-7h-121v48v419h124v-74q0 -54 -1 -87h1q38 42 96 42q68 0 110 -50t42 -128q0 -79 -42.5 -127.5t-113.5 -48.5zM313 89q30 0 47.5 22t17.5 58q0 37 -17.5 59.5t-47.5 22.5q-32 0 -49 -22t-17 -60q0 -37 17 -58.5t49 -21.5z
" />
    <glyph glyph-name="c.dnom" 
d="M317 -6q-82 0 -131 49t-49 126q0 80 50 129.5t132 49.5q62 0 107 -31.5t58 -83.5l-108 -23q-13 42 -56 42q-30 0 -46.5 -22t-16.5 -61q0 -80 63 -80q44 0 57 41l109 -25q-16 -50 -60.5 -80.5t-108.5 -30.5z" />
    <glyph glyph-name="d.dnom" 
d="M273 -6q-72 0 -114 48t-42 128q0 78 42 128t110 50q59 0 96 -41h1q-1 32 -1 86v74h124v-419v-48h-121v7q0 6 0.5 15t0.5 13h-1q-34 -41 -95 -41zM303 89q31 0 48 21.5t17 58.5t-17.5 59.5t-47.5 22.5t-48 -22.5t-18 -59.5q0 -36 18 -58t48 -22z" />
    <glyph glyph-name="e.dnom" 
d="M313 -6q-84 0 -134 47t-50 130q0 79 51 128t133 49q81 0 127.5 -49.5t46.5 -134.5q0 -9 -2 -23h-240q8 -59 70 -59q49 0 72 37l98 -32q-22 -42 -65.5 -67.5t-106.5 -25.5zM247 212h123q-5 57 -60 57q-56 0 -63 -57z" />
    <glyph glyph-name="f.dnom" 
d="M137 0v93h98v151h-96v93h96v21q0 61 28 85t94 24h115v-89h-82q-19 0 -26.5 -6.5t-7.5 -22.5v-12h116v-93h-114v-151h98v-93h-319z" />
    <glyph glyph-name="g.dnom" 
d="M295 -127q-131 0 -176 88l95 41q30 -40 83 -40q38 0 54.5 16.5t16.5 52.5v2q0 12 1 16h-2q-41 -39 -98 -39q-65 0 -108 47.5t-43 119.5q0 71 42.5 121t108.5 50q60 0 101 -43h1q-1 7 -1 18v14h117v-58v-246q0 -82 -52 -121t-140 -39zM304 98q29 0 46.5 22t17.5 56
t-17.5 57.5t-46.5 23.5t-47 -23.5t-18 -56.5q0 -36 17.5 -57.5t47.5 -21.5z" />
    <glyph glyph-name="h.dnom" 
d="M143 0v467h124v-134q0 -12 -1 -23h1q38 38 102 38q63 0 92 -35.5t29 -110.5v-202h-123v171q0 45 -12 62t-37 17q-51 0 -51 -71v-179h-124z" />
    <glyph glyph-name="i.dnom" 
d="M158 0v92h94v153h-94v92h219v-245h96v-92h-315zM238 372v95h141v-95h-141z" />
    <glyph glyph-name="j.dnom" 
d="M186 -121v89h79q20 0 27 9t7 30v238h-115v92h240v-345q0 -70 -31.5 -91.5t-115.5 -21.5h-91zM284 371v96h143v-96h-143z" />
    <glyph glyph-name="k.dnom" 
d="M163 0v467h125v-264l100 134h147l-126 -148l136 -189h-153l-69 111l-35 -40v-71h-125z" />
    <glyph glyph-name="l.dnom" 
d="M153 0v93h100v281h-100v93h225v-374h96v-93h-321z" />
    <glyph glyph-name="m.dnom" 
d="M32 0v280v57h119v-37q36 48 101 48q69 0 102 -51q39 51 113 51q127 0 127 -152v-196h-122v170q0 45 -11.5 62t-36.5 17q-50 0 -50 -71v-178h-122v170q0 45 -11.5 62t-36.5 17q-49 0 -49 -72v-177h-123z" />
    <glyph glyph-name="n.dnom" 
d="M138 0v280v57h119v-12q0 -12 -1 -23h1q35 46 107 46q63 0 92 -35.5t29 -110.5v-202h-123v171q0 45 -12 62t-37 17q-51 0 -51 -73v-177h-124z" />
    <glyph glyph-name="o.dnom" 
d="M307 -6q-84 0 -135 48.5t-51 127.5q0 80 51.5 129t134.5 49q82 0 133 -49.5t51 -129.5q0 -78 -51 -126.5t-133 -48.5zM307 89q64 0 64 80q0 83 -64 83q-66 0 -66 -83q0 -80 66 -80z" />
    <glyph glyph-name="p.dnom" 
d="M125 -120v392v65h122v-5q0 -15 -1 -28h1q36 44 98 44q68 0 110 -50t42 -128q0 -79 -42.5 -128.5t-113.5 -49.5q-59 0 -92 40h-1q0 -4 0.5 -12.5t0.5 -14.5v-125h-124zM312 87q30 0 47.5 22.5t17.5 59.5t-17.5 59.5t-47.5 22.5q-32 0 -49 -22t-17 -60t17 -60t49 -22z" />
    <glyph glyph-name="q.dnom" 
d="M363 -120v125q0 6 0.5 14.5t0.5 12.5h-1q-33 -40 -92 -40q-71 0 -113.5 49.5t-42.5 128.5q0 78 42 128t110 50q62 0 98 -44h1q-1 13 -1 28v5h122v-65v-392h-124zM301 87q30 0 47.5 22.5t17.5 59.5t-17.5 59.5t-47.5 22.5t-48 -22.5t-18 -59.5t18 -59.5t48 -22.5z" />
    <glyph glyph-name="r.dnom" 
d="M160 0v93h77v151h-77v93h190v-21v-49h4q6 30 32 50t80 20h60v-107h-81q-54 0 -72 -27q-16 -20 -16 -91v-19h122v-93h-319z" />
    <glyph glyph-name="s.dnom" 
d="M311 -6q-144 0 -168 102l112 18q9 -43 57 -43q43 0 43 26q0 11 -11 17t-37 12l-46 11q-55 13 -81 35.5t-26 66.5q0 52 41.5 80.5t114.5 28.5q136 0 159 -101l-108 -15q-9 38 -51 38q-36 0 -36 -24q0 -11 8.5 -16t36.5 -12l43 -11q59 -15 87.5 -38t28.5 -66
q0 -109 -167 -109z" />
    <glyph glyph-name="t.dnom" 
d="M497 0h-139q-64 0 -90 23.5t-26 86.5v134h-96v93h96v92h127v-92h128v-93h-130v-124q0 -16 7 -22.5t26 -6.5h97v-91z" />
    <glyph glyph-name="u.dnom" 
d="M258 -6q-63 0 -91.5 35.5t-28.5 110.5v197h122v-167q0 -45 11.5 -61.5t36.5 -16.5q50 0 50 68v177h124v-280v-57h-119v13q0 12 1 23h-1q-29 -42 -105 -42z" />
    <glyph glyph-name="v.dnom" 
d="M234 0l-115 337h128l30 -113q18 -66 28 -111h2q1 3 30 112l30 112h127l-118 -337h-142z" />
    <glyph glyph-name="w.dnom" 
d="M115 0l-98 337h126l25 -107q13 -53 24 -106h2q4 22 11 54t11 51l25 108h131l25 -107q10 -42 23 -106h2q1 5 9 42.5t15 63.5l24 107h126l-99 -337h-146l-22 97q-14 61 -23 111h-2q-5 -24 -13.5 -63.5t-10.5 -46.5l-20 -98h-145z" />
    <glyph glyph-name="x.dnom" 
d="M111 0l122 174l-117 163h141l49 -82h1l47 82h136l-112 -163l123 -174h-140l-56 90h-1l-56 -90h-137z" />
    <glyph glyph-name="y.dnom" 
d="M203 -127q-40 0 -54 2l-10 87h27q36 0 52 6.5t25 27.5l-129 341h132l35 -121q2 -5 25 -99h2q5 21 14.5 57t10.5 42l32 121h132l-134 -359q-24 -62 -62 -83.5t-98 -21.5z" />
    <glyph glyph-name="z.dnom" 
d="M151 0v88l90 92q2 2 24 25t38 38h-89h-58v94h301v-89l-72 -74q-11 -11 -36.5 -37.5t-41.5 -42.5h69h88v-94h-313z" />
    <glyph glyph-name="uni208D.dnom" 
d="M412 -93l-95 -5q-101 132 -101 284q0 153 101 291l95 -5q-81 -134 -81 -284t81 -281z" />
    <glyph glyph-name="uni208E.dnom" 
d="M295 -98l-95 5q81 131 81 281t-81 284l95 5q101 -138 101 -291q0 -152 -101 -284z" />
    <glyph glyph-name="space.frac" 
 />
    <glyph glyph-name="parenleft.case" 
d="M504 -101l-150 -7q-185 194 -185 448q0 252 186 448l149 -7q-177 -185 -177 -441t177 -441z" />
    <glyph glyph-name="parenright.case" 
d="M289 -118l-150 7q177 185 177 441t-177 441l149 7q186 -200 186 -448q0 -249 -185 -448z" />
    <glyph glyph-name="hyphen.case" 
d="M161 262v162h290v-162h-290z" />
    <glyph glyph-name="at.case" 
d="M334 -9q-151 0 -234 89t-83 258q0 170 83 264t222 94q130 0 203.5 -81.5t73.5 -210.5q0 -117 -42 -182.5t-102 -65.5q-59 0 -74 45h-3q-3 -13 -25.5 -29t-53.5 -16q-57 0 -96.5 45.5t-39.5 132.5q0 83 36 133.5t93 50.5q55 0 81 -47h4v39h79v-215q0 -15 0.5 -22
t1.5 -15.5t4.5 -11.5t8.5 -3q21 0 33.5 46.5t12.5 112.5q0 103 -53 156.5t-142 53.5q-100 0 -156 -71t-56 -202q0 -122 61 -192.5t164 -70.5q86 0 160 43l34 -73q-78 -55 -195 -55zM318 246q57 0 57 94q0 88 -57 88t-57 -88q0 -94 57 -94z" />
    <glyph glyph-name="bracketleft.case" 
d="M174 -105v893h276v-113h-130q1 -28 1 -81v-506q0 -53 -1 -80h130v-113h-276z" />
    <glyph glyph-name="bracketright.case" 
d="M162 -106v113h130q-1 27 -1 80v506q0 53 1 81h-130v113h276v-893h-276z" />
    <glyph glyph-name="grave.case" 
d="M295 773l-120 129h190l72 -129h-142z" />
    <glyph glyph-name="braceleft.case" 
d="M506 -106h-127q-83 0 -109.5 34t-26.5 115v109q0 74 -19 102t-82 32v111q63 4 82 32t19 102v107q0 81 26.5 115t109.5 34h127v-113h-52q-42 0 -55.5 -20.5t-13.5 -69.5v-87q0 -76 -25.5 -109.5t-89.5 -43.5v-4q64 -10 89.5 -43.5t25.5 -110.5v-89q0 -49 13.5 -69.5
t55.5 -20.5h52v-113z" />
    <glyph glyph-name="bar.case" 
d="M231 -84v853h149v-853h-149z" />
    <glyph glyph-name="braceright.case" 
d="M116 -106v113h52q41 0 55 20t14 70v89q0 77 25.5 110.5t89.5 43.5v4q-64 10 -89.5 43.5t-25.5 109.5v87q0 49 -14 69.5t-55 20.5h-52v113h127q83 0 109.5 -34t26.5 -115v-107q0 -74 19 -102t82 -32v-111q-63 -4 -82 -32t-19 -102v-109q0 -81 -26.5 -115t-109.5 -34h-127z
" />
    <glyph glyph-name="exclamdown.case" 
d="M224 0v286l15 218h134l15 -218v-286h-164zM222 542v143h168v-143h-168z" />
    <glyph glyph-name="brokenbar.case" 
d="M231 439v330h149v-330h-149zM231 -84v330h149v-330h-149z" />
    <glyph glyph-name="dieresis.case" 
d="M286 777v122h127v-122h-127zM94 777v122h126v-122h-126z" />
    <glyph glyph-name="guillemotleft.case" 
d="M170 158l-100 184l100 185h150l-94 -185l94 -184h-150zM402 158l-100 184l100 185h150l-94 -185l94 -184h-150z" />
    <glyph glyph-name="uni00AD.case" 
d="M161 262v162h290v-162h-290z" />
    <glyph glyph-name="macron.case" 
d="M166 788v103h280v-103h-280z" />
    <glyph glyph-name="acute.case" 
d="M175 773l72 129h190l-120 -129h-142z" />
    <glyph glyph-name="periodcentered.case" 
d="M205 252v182h201v-182h-201z" />
    <glyph glyph-name="guillemotright.case" 
d="M294 158l94 184l-94 185h150l100 -185l-100 -184h-150zM61 158l94 184l-94 185h150l100 -185l-100 -184h-150z" />
    <glyph glyph-name="questiondown.case" 
d="M321 -14q-118 0 -183 56.5t-65 151.5q0 105 91 178l20 16q70 56 70 116h159q0 -73 -16.5 -112.5t-61.5 -75.5l-27 -21q-31 -25 -44 -45t-13 -47q0 -31 19.5 -50.5t54.5 -19.5q83 0 83 99l164 -9q-2 -105 -65 -171t-186 -66zM249 542v143h168v-143h-168z" />
    <glyph glyph-name="circumflex.case" 
d="M121 773l97 129h178l96 -129h-134l-50 52h-2l-50 -52h-135z" />
    <glyph glyph-name="caron.case" 
d="M218 773l-97 129h135l50 -52h2l50 52h134l-96 -129h-178z" />
    <glyph glyph-name="breve.case" 
d="M306 763q-67 0 -111 33t-56 95l93 14q16 -45 74 -45q56 0 75 45l92 -14q-13 -62 -56.5 -95t-110.5 -33z" />
    <glyph glyph-name="dotaccent.case" 
d="M143 775v122h132v-122h-132z" />
    <glyph glyph-name="ring.case" 
d="M306 743q-46 0 -77.5 32t-31.5 78q0 44 32 76t78 32q47 0 78 -31.5t31 -76.5q0 -46 -31.5 -78t-78.5 -32zM306 813q17 0 28 11.5t11 28.5q0 15 -11 26.5t-28 11.5q-16 0 -27.5 -11.5t-11.5 -26.5q0 -17 11.5 -28.5t27.5 -11.5z" />
    <glyph glyph-name="tilde.case" 
d="M376 767q-34 0 -76 19l-7 3q-31 13 -44 13q-26 0 -33 -33l-90 5q5 59 33.5 93.5t77.5 34.5q34 0 76 -19l7 -3q31 -13 44 -13q26 0 33 33l90 -5q-5 -59 -33.5 -93.5t-77.5 -34.5z" />
    <glyph glyph-name="hungarumlaut.case" 
d="M288 773l79 129h190l-127 -129h-142zM55 773l72 129h190l-120 -129h-142z" />
    <glyph glyph-name="endash.case" 
d="M73 271v144h466v-144h-466z" />
    <glyph glyph-name="emdash.case" 
d="M0 271v144h612v-144h-612z" />
    <glyph glyph-name="uni2015.case" 
d="M0 270v144h612v-144h-612z" />
    <glyph glyph-name="guilsinglleft.case" 
d="M270 158l-100 184l100 185h150l-94 -185l94 -184h-150z" />
    <glyph glyph-name="guilsinglright.case" 
d="M192 158l94 184l-94 185h150l100 -185l-100 -184h-150z" />
    <glyph glyph-name="zero.zero" 
d="M306 -13q-144 0 -206 91.5t-62 260.5q0 167 64 263.5t204 96.5q268 0 268 -360q0 -170 -61.5 -261t-206.5 -91zM203 341q0 -77 8 -112l118 329q-11 3 -23 3q-55 0 -79 -54t-24 -166zM306 124q55 0 79 52.5t24 165.5q0 63 -8 113l-117 -329q14 -2 22 -2z" />
    <glyph glyph-name="plus.ss06" 
d="M235 22v182h-167v140h167v179h142v-179h166v-140h-166v-182h-142z" />
    <glyph glyph-name="equal.ss06" 
d="M64 92v137h484v-137h-484zM64 311v136h484v-136h-484z" />
    <glyph glyph-name="logicalnot.ss06" 
d="M402 86v193h-351v144h507v-337h-156z" />
    <glyph glyph-name="plusminus.ss06" 
d="M234 175v126h-164v140h164v141h143v-141h165v-140h-165v-126h-143zM70 -9v137h472v-137h-472z" />
    <glyph glyph-name="multiply.ss06" 
d="M156 20l-101 101l151 151l-151 151l101 101l151 -151l151 151l101 -101l-151 -151l151 -151l-101 -101l-151 151z" />
    <glyph glyph-name="divide.ss06" 
d="M65 199v149h483v-149h-483zM305 -25q-38 0 -63.5 25.5t-25.5 63.5t25.5 64t63.5 26t64 -26t26 -64t-26 -63.5t-64 -25.5zM305 395q-38 0 -63.5 25.5t-25.5 63.5t25.5 64t63.5 26t64 -26t26 -64t-26 -63.5t-64 -25.5z" />
    <glyph glyph-name="minus.ss06" 
d="M65 199v149h483v-149h-483z" />
    <glyph glyph-name="infinity.ss06" 
d="M155 96q-72 0 -109 48t-37 122q0 79 39 125t109 46q82 0 153 -91q66 91 147 91q69 0 107.5 -46t38.5 -125q0 -74 -38 -122t-110 -48q-86 0 -154 94q-60 -94 -146 -94zM164 217q14 0 29 8t22 14.5t24 23.5q-17 19 -25.5 27.5t-22.5 17t-28 8.5q-18 0 -29 -13.5t-11 -37.5
q0 -23 11.5 -35.5t29.5 -12.5zM447 217q19 0 30.5 13.5t11.5 37.5q0 23 -11 35.5t-29 12.5q-33 0 -76 -47q2 -2 7 -8t7 -8t6.5 -7t7 -7t7 -6t7 -5.5t7 -4t8 -3.5t8 -2t9.5 -1z" />
    <glyph glyph-name="approxequal.ss06" 
d="M411 51q-9 0 -19 1.5t-16.5 3t-17.5 5.5t-15.5 5.5t-18 7.5t-17.5 8l-35 16q-25 13 -48 13q-43 0 -73 -58l-90 71q64 127 157 127q9 0 19 -1.5t16.5 -3t17.5 -5.5t15.5 -5.5t18 -7.5t17.5 -8l35 -16q25 -13 48 -13q43 0 73 58l90 -71q-64 -127 -157 -127zM411 304
q-9 0 -19 1.5t-16.5 3t-17.5 5.5t-15.5 5.5t-18 7.5t-17.5 8l-35 16q-25 13 -48 13q-43 0 -73 -58l-90 71q64 127 157 127q9 0 19 -1.5t16.5 -3t17.5 -5.5t15.5 -5.5t18 -7.5t17.5 -8l35 -16q25 -13 48 -13q43 0 73 58l90 -71q-64 -127 -157 -127z" />
    <glyph glyph-name="notequal.ss06" 
d="M76 -4l57 96h-69v134h149l53 88h-202v133h281l58 96h143l-58 -96h60v-133h-139l-53 -88h192v-134h-272l-57 -96h-143z" />
    <glyph glyph-name="x.ss20" 
d="M156 84l-101 101l151 151l-151 151l101 101l151 -151l151 151l101 -101l-151 -151l151 -151l-101 -101l-151 151z" />
    <glyph glyph-name="hyphen_greater" 
d="M198 80l109 110l72 71v1q-59 -1 -141 -1h-217v129h216q83 0 142 -1v1l-72 72l-109 110h166l117 -123q107 -113 118 -123q-11 -10 -118 -123l-117 -123h-166z" />
    <glyph glyph-name="less_hyphen" 
d="M249 80l-117 123q-107 113 -118 123q11 10 118 123l117 123h166l-109 -110l-72 -72v-1q59 1 142 1h216v-129h-217q-82 0 -141 1v-1l72 -71l109 -110h-166z" />
  </font>
</defs>
</svg>
