<?xml version="1.0" standalone="no"?>
<!DOCTYPE svg PUBLIC "-//W3C//DTD SVG 1.1//EN" "http://www.w3.org/Graphics/SVG/1.1/DTD/svg11.dtd" >
<svg xmlns="http://www.w3.org/2000/svg" xmlns:xlink="http://www.w3.org/1999/xlink" version="1.1">
<metadata>
Created by FontForge 20170731 at Tue Jun 11 00:51:57 2019
 By Aleksey,,,
Copyright (c) 2019, Copyright by Optimo SARL. All rights reserved. |DCNT
</metadata>
<defs>
<font id="RandMono-Medium" horiz-adv-x="612" >
  <font-face 
    font-family="Rand Mono Medium"
    font-weight="500"
    font-stretch="normal"
    units-per-em="1000"
    panose-1="2 11 6 9 2 1 1 1 1 2"
    ascent="730"
    descent="-270"
    x-height="526"
    cap-height="685"
    bbox="-369 -213 635 1109"
    underline-thickness="50"
    underline-position="-200"
    unicode-range="U+000D-FEFF"
  />
<missing-glyph 
d="M81 0v685h450v-685h-450zM166 85h280v515h-280v-515z" />
    <glyph glyph-name="f_f" unicode="ff" 
d="M97 0v430h-91v89h91v65q0 80 34.5 113t113.5 33h75l-2 -90h-48q-42 0 -54 -14t-12 -59v-48h180v65q0 80 34.5 113t113.5 33h75l-2 -90h-48q-42 0 -54 -14t-12 -59v-48h114v-89h-113v-430h-108v430h-179v-430h-108z" />
    <glyph glyph-name="f_f_i" unicode="ffi" 
d="M26 0v430h-63v89h63v75q0 75 31.5 105.5t106.5 30.5h42l-2 -90h-15q-31 0 -44 -14q-12 -13 -12 -49v-58h120v75q0 74 34 105t114 31h31l-2 -90h-14q-31 0 -44 -14q-12 -13 -12 -49v-58h228v-519h-108v430h-119v-430h-108v430h-119v-430h-108zM471 624v106h123v-106h-123z
" />
    <glyph glyph-name="f_f_l" unicode="ffl" 
d="M26 0v430h-63v89h63v75q0 75 31.5 105.5t106.5 30.5h42l-2 -90h-15q-31 0 -44 -14q-12 -13 -12 -49v-58h120v75q0 74 34 105t114 31h31l-2 -90h-14q-31 0 -44 -14q-12 -13 -12 -49v-58h69v-89h-68v-430h-108v430h-119v-430h-108zM480 0v730h108v-730h-108z" />
    <glyph glyph-name="f_i" unicode="fi" 
d="M98 0v430h-96v89h96v65q0 80 34.5 113t113.5 33h80l-2 -90h-53q-42 0 -54 -14t-12 -59v-48h327v-519h-108v430h-218v-430h-108zM408 624v106h123v-106h-123z" />
    <glyph glyph-name="f_l" unicode="fl" 
d="M102 0v429h-96v90h96v64q0 80 34.5 113.5t113.5 33.5h80l-2 -90h-53q-42 0 -54 -14t-12 -59v-48h117v-90h-116v-429h-108zM424 0v730h108v-730h-108z" />
    <glyph glyph-name=".notdef" 
d="M81 0v685h450v-685h-450zM166 85h280v515h-280v-515z" />
    <glyph glyph-name=".null" horiz-adv-x="0" 
 />
    <glyph glyph-name="nonmarkingreturn" horiz-adv-x="333" 
 />
    <glyph glyph-name="NULL" horiz-adv-x="0" 
 />
    <glyph glyph-name="NULL" horiz-adv-x="0" 
 />
    <glyph glyph-name="CR" unicode="&#xd;" 
 />
    <glyph glyph-name="space" unicode=" " 
 />
    <glyph glyph-name="exclam" unicode="!" 
d="M261 182l-13 231v272h109v-272l-13 -231h-83zM247 0v126h117v-126h-117z" />
    <glyph glyph-name="quotedbl" unicode="&#x22;" 
d="M143 448l-12 282h140l-12 -282h-116zM353 448l-12 282h140l-12 -282h-116z" />
    <glyph glyph-name="numbersign" unicode="#" 
d="M85 0l38 208h-104l14 71h103l25 136h-106l14 70h105l36 200h77l-36 -200h136l36 200h77l-36 -200h100l-14 -70h-99l-25 -136h102l-14 -71h-101l-38 -208h-77l38 208h-136l-38 -208h-77zM213 279h136l25 136h-136z" />
    <glyph glyph-name="dollar" unicode="$" 
d="M363 -102l-92 1v104q-78 8 -133 47t-78 103l89 41q36 -82 122 -99v213q-96 25 -140 67.5t-44 120.5q0 77 49.5 126.5t134.5 60.5v109h92v-110q135 -20 177 -132l-84 -43q-31 64 -93 81v-199l26 -8q80 -23 121 -64.5t41 -113.5q0 -81 -50 -132.5t-138 -64.5v-108zM363 284
v-186q78 24 78 96q0 63 -78 90zM271 417v173q-36 -9 -56 -32.5t-20 -56.5q0 -32 17 -50.5t59 -33.5z" />
    <glyph glyph-name="percent" unicode="%" 
d="M119 0l296 685h75l-295 -685h-76zM135 302q-133 0 -133 194q0 196 132 196q134 0 134 -196q0 -194 -133 -194zM135 369q55 0 55 126q0 129 -56 129q-54 0 -54 -131q0 -124 55 -124zM477 -7q-133 0 -133 194q0 196 132 196q134 0 134 -196q0 -194 -133 -194zM477 60
q55 0 55 126q0 129 -56 129q-54 0 -54 -131q0 -124 55 -124z" />
    <glyph glyph-name="ampersand" unicode="&#x26;" 
d="M250 -13q-99 0 -159 56.5t-60 146.5q0 117 142 200v2q-68 74 -68 152q0 69 48 112t126 43q74 0 121 -41.5t47 -105.5q0 -45 -20.5 -82t-43 -55.5t-63.5 -46.5v-2q34 -40 121 -140v1q29 65 41 149l102 -3q-16 -130 -77 -222v-2q119 -140 128 -149h-128q-21 21 -63 74
q-37 -39 -89 -63t-105 -24zM255 77q82 0 128 66v2q-40 44 -151 174q-95 -54 -95 -127q0 -52 33 -83.5t85 -31.5zM263 432q88 54 88 116q0 32 -20.5 50t-53.5 18q-35 0 -54 -19t-19 -50q0 -52 59 -115z" />
    <glyph glyph-name="quotesingle" unicode="'" 
d="M248 448l-12 282h140l-12 -282h-116z" />
    <glyph glyph-name="parenleft" unicode="(" 
d="M448 -142l-100 -4q-86 90 -135 206t-49 241q0 124 48.5 240t135.5 207l100 -5q-168 -186 -168 -442q0 -260 168 -443z" />
    <glyph glyph-name="parenright" unicode=")" 
d="M264 -146l-100 4q168 186 168 443q0 256 -168 442l100 5q87 -91 135.5 -207t48.5 -240q0 -125 -49 -241t-135 -206z" />
    <glyph glyph-name="asterisk" unicode="*" 
d="M230 281l-89 64l54 56l60 61v2q-72 11 -85 13l-77 13l34 105l71 -34q24 -11 75 -39l2 1q-2 11 -6.5 36.5t-7.5 47.5l-10 78h110l-10 -78q-3 -22 -7.5 -47.5t-6.5 -36.5l2 -1q51 28 75 39l71 34l34 -105l-77 -13q-13 -2 -85 -13v-2l60 -61l54 -56l-89 -64l-37 68
q-9 17 -19 39.5t-19 37.5h-2q-9 -15 -19 -37.5t-19 -39.5z" />
    <glyph glyph-name="plus" unicode="+" 
d="M253 87v201h-195v100h195v200h102v-200h198v-100h-198v-201h-102z" />
    <glyph glyph-name="comma" unicode="," 
d="M225 -165v72q77 5 77 84v9h-75v155h160v-149q0 -76 -42 -121t-120 -50z" />
    <glyph glyph-name="hyphen" unicode="-" 
d="M161 235v107h290v-107h-290z" />
    <glyph glyph-name="period" unicode="." 
d="M226 0v155h160v-155h-160z" />
    <glyph glyph-name="slash" unicode="/" 
d="M123 0l268 730h101l-268 -730h-101z" />
    <glyph glyph-name="zero" unicode="0" 
d="M306 -13q-125 0 -187 95t-62 261q0 164 61 260t188 96t188 -96t61 -260q0 -166 -62 -261t-187 -95zM306 80q129 0 129 261q0 129 -29 197t-100 68t-100 -68t-29 -197q0 -261 129 -261zM242 281v126h128v-126h-128z" />
    <glyph glyph-name="one" unicode="1" 
d="M109 0v89h157v401h-175v80q54 0 89 7t54.5 23.5t29 35.5t14.5 49h98v-596h142v-89h-409z" />
    <glyph glyph-name="two" unicode="2" 
d="M72 0v88q80 75 192 170q94 77 125 123t31 108q0 52 -29 81.5t-82 29.5q-118 0 -123 -145l-110 2q2 108 65 175t168 67t166 -56t61 -154q0 -131 -160 -262q-19 -16 -71.5 -58.5t-84.5 -69.5v-3q39 1 121 1h196v-97h-465z" />
    <glyph glyph-name="three" unicode="3" 
d="M306 -13q-105 0 -171.5 61.5t-72.5 161.5l113 8q12 -137 132 -137q57 0 91.5 32.5t34.5 85.5q0 56 -38 84.5t-107 28.5h-30v93q7 -1 22 -1q64 0 100 25.5t36 75.5q0 45 -30 71.5t-80 26.5q-55 0 -84 -32t-32 -89l-109 8q9 94 67.5 151.5t160.5 57.5t160 -50t58 -130
q0 -112 -111 -153q64 -19 99 -63t35 -109q0 -93 -66 -150t-178 -57z" />
    <glyph glyph-name="four" unicode="4" 
d="M347 0v140h-295v84l156 461h107l-151 -449h183v257h100v-257h113v-96h-113v-140h-100z" />
    <glyph glyph-name="five" unicode="5" 
d="M303 -13q-95 0 -160 56t-77 144l113 7q6 -50 40 -80.5t86 -30.5q59 0 92.5 38t33.5 104q0 64 -34 101.5t-92 37.5q-85 0 -116 -72l-107 10l32 383h395v-97h-304l-8 -83q-6 -66 -12 -101h1q55 55 143 55q97 0 157 -65t60 -166q0 -108 -66 -174.5t-177 -66.5z" />
    <glyph glyph-name="six" unicode="6" 
d="M313 -13q-123 0 -188 89t-65 247q0 175 67.5 275.5t196.5 100.5q93 0 149.5 -52t68.5 -138l-113 -5q-6 47 -33 73.5t-74 26.5q-72 0 -111.5 -69t-41.5 -171h2q60 84 163 84q98 0 158 -63.5t60 -163.5q0 -103 -66 -168.5t-173 -65.5zM313 81q56 0 90 38.5t34 101.5
q0 60 -34 97t-91 37q-59 0 -93.5 -37t-34.5 -97q0 -63 35 -101.5t94 -38.5z" />
    <glyph glyph-name="seven" unicode="7" 
d="M288 0h-124q91 343 253 584v1q-32 -1 -94 -1h-246v101h458v-91q-32 -51 -37 -59q-133 -229 -210 -535z" />
    <glyph glyph-name="eight" unicode="8" 
d="M306 -13q-112 0 -179.5 56t-67.5 147q0 128 131 173v1q-108 41 -108 150q0 82 61.5 133.5t162.5 51.5t162.5 -51.5t61.5 -133.5q0 -109 -108 -150v-1q131 -45 131 -173q0 -91 -67.5 -147t-179.5 -56zM306 79q59 0 94 33t35 85t-35 84t-94 32q-60 0 -95 -32t-35 -84
t35.5 -85t94.5 -33zM306 405q53 0 83.5 27t30.5 72q0 46 -30.5 73t-83.5 27t-83.5 -27t-30.5 -73q0 -45 30.5 -72t83.5 -27z" />
    <glyph glyph-name="nine" unicode="9" 
d="M292 -13q-94 0 -152 51.5t-70 140.5l111 5q18 -105 111 -105q63 0 106 68t43 179h-1q-59 -83 -161 -83q-98 0 -157.5 62.5t-59.5 161.5q0 101 65.5 166.5t168.5 65.5q124 0 189 -87.5t65 -250.5q0 -179 -65 -276.5t-193 -97.5zM298 337q59 0 94 35.5t35 93.5
q0 62 -35 100t-93 38q-56 0 -90.5 -38t-34.5 -99q0 -57 34 -93.5t90 -36.5z" />
    <glyph glyph-name="colon" unicode=":" 
d="M226 371v155h160v-155h-160zM226 0v155h160v-155h-160z" />
    <glyph glyph-name="semicolon" unicode=";" 
d="M224 -165v72q77 5 77 84v9h-75v155h160v-149q0 -76 -42 -121t-120 -50zM226 371v155h160v-155h-160z" />
    <glyph glyph-name="less" unicode="&#x3c;" 
d="M503 190v-128q-79 42 -227 118t-169 87v105q226 117 396 208v-125q-240 -113 -275 -130v-3q66 -33 275 -132z" />
    <glyph glyph-name="equal" unicode="=" 
d="M64 380v98h484v-98h-484zM64 193v97h484v-97h-484z" />
    <glyph glyph-name="greater" unicode="&#x3e;" 
d="M107 62v128q209 99 275 132v3q-35 17 -275 130v125q170 -91 396 -208v-105q-21 -11 -169 -87t-227 -118z" />
    <glyph glyph-name="question" unicode="?" 
d="M347 182h-104q0 69 13 109t52 77l41 38q4 4 16.5 15.5t15.5 14.5t11 12t10 13.5t6 13t5 17t1 18.5q0 41 -25.5 66.5t-78.5 25.5q-58 0 -87.5 -36t-29.5 -103l-107 3q0 107 59.5 170t168.5 63q96 0 153.5 -53.5t57.5 -136.5q0 -51 -22 -89t-68 -77l-20 -17
q-42 -35 -55 -62t-13 -82zM237 0v126h117v-126h-117z" />
    <glyph glyph-name="at" unicode="@" 
d="M336 -25q-151 0 -235 93t-84 258q0 168 82 261t219 93q133 0 205.5 -80.5t72.5 -230.5q0 -125 -35 -176t-85 -51q-29 0 -47.5 15.5t-20.5 41.5h-3q-36 -57 -107 -57q-65 0 -106 49t-41 129t41.5 130t105.5 50q72 0 104 -53h1q-1 17 -1 47h68v-280q0 -16 16 -16
q11 0 20.5 14t17 51t7.5 92q0 44 -5 80t-19.5 71t-37.5 59t-61 38.5t-88 14.5q-109 0 -170.5 -76.5t-61.5 -218.5q0 -131 63 -209.5t183 -78.5q86 0 166 36l20 -53q-83 -43 -184 -43zM311 203q42 0 67.5 32.5t25.5 86.5q0 51 -25 83.5t-67 32.5q-41 0 -65.5 -32.5
t-24.5 -84.5q0 -54 24 -86t65 -32z" />
    <glyph glyph-name="A" unicode="A" 
d="M18 0l220 685h137l219 -685h-114l-59 184h-233l-60 -184h-110zM212 279h182l-41 135q-23 71 -47 167h-5q-30 -115 -47 -167z" />
    <glyph glyph-name="B" unicode="B" 
d="M81 0v685h245q94 0 148 -44.5t54 -129.5q0 -105 -96 -147v-2q54 -15 88.5 -58t34.5 -106q0 -86 -53.5 -142t-158.5 -56h-262zM190 90h127q63 0 94 26.5t31 85.5q0 57 -31.5 83.5t-97.5 26.5h-123v-222zM190 400h110q61 0 88.5 23.5t27.5 77.5q0 50 -27 72.5t-90 22.5
h-109v-196z" />
    <glyph glyph-name="C" unicode="C" 
d="M327 -13q-138 0 -209 92t-71 264q0 170 71.5 263t207.5 93q94 0 158.5 -52t86.5 -138l-104 -25q-37 119 -145 119q-164 0 -164 -260q0 -132 40 -197t130 -65q102 0 141 122l102 -25q-23 -88 -84.5 -139.5t-159.5 -51.5z" />
    <glyph glyph-name="D" unicode="D" 
d="M66 0v685h216q150 0 220.5 -84.5t70.5 -254.5q0 -163 -72 -254.5t-215 -91.5h-220zM178 94h94q93 0 140 56.5t47 189.5q0 139 -49.5 195.5t-172.5 56.5h-59v-498z" />
    <glyph glyph-name="E" unicode="E" 
d="M97 0v685h427v-96h-318v-191h298v-96h-298v-206h321v-96h-430z" />
    <glyph glyph-name="F" unicode="F" 
d="M98 0v685h419v-95h-311v-197h284v-96h-284v-297h-108z" />
    <glyph glyph-name="G" unicode="G" 
d="M308 -13q-129 0 -198 94t-69 258q0 179 71.5 269.5t208.5 90.5q98 0 160 -52t84 -136l-101 -25q-43 117 -143 117q-169 0 -169 -261q0 -264 173 -264q77 0 110.5 48.5t37.5 151.5h-195v93h288v-371h-94v65h-3q-19 -33 -60.5 -55.5t-100.5 -22.5z" />
    <glyph glyph-name="H" unicode="H" 
d="M66 0v685h110v-284h260v284h110v-685h-110v305h-260v-305h-110z" />
    <glyph glyph-name="I" unicode="I" 
d="M89 0v86h161v513h-161v86h434v-86h-163v-513h163v-86h-434z" />
    <glyph glyph-name="J" unicode="J" 
d="M284 -13q-87 0 -140 44.5t-65 125.5l104 17q14 -94 97 -94q92 0 92 128v477h110v-500q0 -92 -54.5 -145t-143.5 -53z" />
    <glyph glyph-name="K" unicode="K" 
d="M91 0v685h109v-164q0 -105 -1 -157h2q22 27 68.5 86t62.5 79l125 156h130l-246 -297l257 -388h-130l-204 307l-64 -80v-227h-109z" />
    <glyph glyph-name="L" unicode="L" 
d="M102 0v685h110v-588h302v-97h-412z" />
    <glyph glyph-name="M" unicode="M" 
d="M60 0v685h157l44 -233q36 -160 44 -216h4q21 130 41 216l50 233h152v-685h-101v338q0 51 2 142.5t2 113.5h-5q-5 -25 -14.5 -84t-19.5 -112t-21 -97l-49 -204h-88l-47 204q-13 57 -23 115t-17.5 108.5t-10.5 69.5h-5q4 -75 4 -195v-399h-99z" />
    <glyph glyph-name="N" unicode="N" 
d="M59 0v685h139l177 -371q17 -34 40.5 -92t31.5 -75h5q-2 104 -2 167v371h103v-685h-138l-192 411q-19 40 -62 145h-4q0 -24 2.5 -90.5t2.5 -95.5v-370h-103z" />
    <glyph glyph-name="O" unicode="O" 
d="M305 -13q-133 0 -201.5 92.5t-68.5 261.5q0 170 69 264t201 94t202 -94t70 -263t-70 -262t-202 -93zM305 80q83 0 121.5 64.5t38.5 196.5q0 262 -160 262q-82 0 -120.5 -65.5t-38.5 -196.5q0 -132 38 -196.5t121 -64.5z" />
    <glyph glyph-name="P" unicode="P" 
d="M88 0v685h252q104 0 156.5 -55.5t52.5 -151.5q0 -101 -58 -155.5t-163 -54.5h-132v-268h-108zM196 363h119q124 0 124 113q0 116 -125 116h-118v-229z" />
    <glyph glyph-name="Q" unicode="Q" 
d="M497 -166h-99q-84 0 -115.5 29t-31.5 110v21l-1 2q-107 18 -161 106t-54 239q0 170 69 264t201 94t202 -94t70 -263q0 -153 -56 -241.5t-164 -105.5l-1 -1q0 -51 6.5 -60t47.5 -9h87v-91zM305 80q83 0 121.5 64.5t38.5 196.5q0 262 -160 262q-82 0 -120.5 -65.5
t-38.5 -196.5q0 -132 38 -196.5t121 -64.5z" />
    <glyph glyph-name="R" unicode="R" 
d="M66 0v685h243q114 0 169 -48t55 -136q0 -131 -113 -173q39 -18 61 -53.5t30 -100.5l7 -57q11 -89 28 -110v-7h-116q-11 19 -20 98l-8 63q-9 66 -38 94.5t-103 28.5h-87v-284h-108zM174 375h117q133 0 133 113q0 104 -133 104h-117v-217z" />
    <glyph glyph-name="S" unicode="S" 
d="M293 -13q-97 0 -164 41t-94 116l92 43q50 -108 168 -108q63 0 100 28.5t37 79.5q0 43 -27.5 65.5t-90.5 38.5l-62 16q-101 26 -145 69.5t-44 124.5q0 90 65 144t172 54q87 0 147.5 -37t87.5 -104l-88 -45q-44 91 -149 91q-57 0 -90 -26.5t-33 -70.5q0 -41 27.5 -62
t100.5 -42l73 -21q86 -26 128 -67.5t42 -118.5q0 -96 -69 -152.5t-184 -56.5z" />
    <glyph glyph-name="T" unicode="T" 
d="M250 0v589h-201v96h514v-96h-201v-589h-112z" />
    <glyph glyph-name="U" unicode="U" 
d="M306 -13q-125 0 -183 63.5t-58 208.5v426h112v-419q0 -97 28 -140.5t101 -43.5t101.5 44.5t28.5 139.5v419h111v-428q0 -143 -59 -206.5t-182 -63.5z" />
    <glyph glyph-name="V" unicode="V" 
d="M236 0l-209 685h118l96 -340q56 -198 65 -233h4q5 22 63 233l97 340h114l-210 -685h-138z" />
    <glyph glyph-name="W" unicode="W" 
d="M93 0l-86 685h110l29 -303q13 -131 19 -268h5q14 140 31 254l41 251h130l38 -251q3 -25 30 -254h5q20 248 22 264l34 307h105l-88 -685h-139l-40 264q-21 139 -31 248h-5q-7 -76 -32 -247l-40 -265h-138z" />
    <glyph glyph-name="X" unicode="X" 
d="M24 0l215 352l-202 333h127l142 -250h2l144 250h121l-203 -332l217 -353h-130l-154 268l-3 -1l-154 -267h-122z" />
    <glyph glyph-name="Y" unicode="Y" 
d="M250 0v261l-219 424h119l81 -165q12 -25 36.5 -77t37.5 -77h4q48 102 75 154l81 165h116l-222 -424v-261h-109z" />
    <glyph glyph-name="Z" unicode="Z" 
d="M63 0v93l347 497q-37 -1 -105 -1h-230v96h460v-93l-347 -497q41 1 118 1h237v-96h-480z" />
    <glyph glyph-name="bracketleft" unicode="[" 
d="M179 -142v892h263v-74h-156q1 -29 1 -84v-577q0 -54 -1 -83q25 1 73 1h83v-75h-263z" />
    <glyph glyph-name="backslash" unicode="\" 
d="M389 0l-268 730h101l268 -730h-101z" />
    <glyph glyph-name="bracketright" unicode="]" 
d="M171 -142v75h83q48 0 73 -1q-1 29 -1 83v577q0 55 1 84h-156v74h263v-892h-263z" />
    <glyph glyph-name="asciicircum" unicode="^" 
d="M50 302l208 383h95l209 -383h-110l-98 192q-13 25 -49 91q-9 -18 -24.5 -47.5t-22.5 -42.5l-102 -193h-106z" />
    <glyph glyph-name="underscore" unicode="_" 
d="M60 -150v85h492v-85h-492z" />
    <glyph glyph-name="grave" unicode="`" 
d="M313 601l-121 129h144l83 -129h-106z" />
    <glyph glyph-name="a" unicode="a" 
d="M246 -9q-85 0 -137 41t-52 113q0 33 11 58t28 41.5t48 29.5t60.5 21t76.5 17l73 14q4 1 11.5 2.5l10 2t8 1.5t7 2t5 2.5t4.5 3t3 4t2.5 6l1 7t0.5 8.5q0 39 -28.5 61.5t-78.5 22.5q-106 0 -118 -95l-107 8q8 79 68.5 126t156.5 47q216 0 216 -198v-314q0 -19 1 -23h-99
v21q0 30 1 39h-3q-56 -69 -170 -69zM273 69q65 0 100.5 37t35.5 103v13q0 22 3 32q-7 -2 -49 -11l-76 -15q-66 -13 -90.5 -28t-24.5 -53t26.5 -58t74.5 -20z" />
    <glyph glyph-name="b" unicode="b" 
d="M333 -12q-113 0 -170 91h-3q2 -30 2 -53v-26h-104q1 15 1 77v653h108v-161q0 -75 -2 -121h2q59 86 166 86q102 0 167.5 -77.5t65.5 -197.5q0 -122 -65.5 -196.5t-167.5 -74.5zM312 81q64 0 102.5 49.5t38.5 129.5q0 79 -38.5 128.5t-103.5 49.5q-66 0 -106.5 -49
t-40.5 -128t40.5 -129.5t107.5 -50.5z" />
    <glyph glyph-name="c" unicode="c" 
d="M319 -14q-114 0 -184 75t-70 198t71 199.5t188 76.5q87 0 146 -44.5t77 -119.5l-106 -25q-12 43 -43.5 68t-75.5 25q-68 0 -105 -48.5t-37 -131.5q0 -82 37 -130t105 -48q46 0 78 25t43 69l103 -24q-18 -74 -81 -119.5t-146 -45.5z" />
    <glyph glyph-name="d" unicode="d" 
d="M279 -12q-102 0 -167.5 74.5t-65.5 196.5q0 120 65.5 197.5t167.5 77.5q107 0 166 -86h2q-2 46 -2 121v161h108v-653q0 -62 1 -77h-104v26q0 23 2 53h-3q-57 -91 -170 -91zM300 81q67 0 107.5 50.5t40.5 129.5t-40.5 128t-106.5 49q-65 0 -103.5 -49.5t-38.5 -128.5
q0 -80 38.5 -129.5t102.5 -49.5z" />
    <glyph glyph-name="e" unicode="e" 
d="M315 -13q-121 0 -191.5 74t-70.5 198q0 120 71 198t188 78q123 0 185 -84t62 -220h-396q4 -68 47 -109t107 -41q95 0 148 81l90 -41q-32 -60 -93 -97t-147 -37zM163 314h285q-7 56 -41.5 94t-96.5 38q-59 0 -99 -37t-48 -95z" />
    <glyph glyph-name="f" unicode="f" 
d="M54 0v89h172v327h-182v90h182v77q0 80 34.5 113.5t113.5 33.5h168v-90h-143q-42 0 -54 -14t-12 -59v-61h208v-90h-207v-327h186v-89h-466z" />
    <glyph glyph-name="g" unicode="g" 
d="M297 -197q-89 0 -151.5 37.5t-86.5 101.5l98 37q37 -83 143 -83q135 0 142 145q0 2 0.5 23t2.5 35h-3q-53 -87 -166 -87q-100 0 -164.5 73t-64.5 187q0 117 66.5 189.5t166.5 72.5q113 0 163 -83h3q-2 10 -2 45v30h104q-1 -36 -1 -97v-384q0 -116 -68.5 -179t-181.5 -63z
M300 106q64 0 104 47t40 121q0 72 -39 119t-105 47q-63 0 -101.5 -47t-38.5 -120q0 -74 38.5 -120.5t101.5 -46.5z" />
    <glyph glyph-name="h" unicode="h" 
d="M83 0v730h108v-200q0 -48 -1 -80h1q55 85 155 85q84 0 135 -53.5t51 -155.5v-326h-108v245q0 103 -22 149t-86 46q-65 0 -95 -46.5t-30 -143.5v-250h-108z" />
    <glyph glyph-name="i" unicode="i" 
d="M88 0v89h183v348h-183v89h291v-437h167v-89h-458zM256 621v109h127v-109h-127z" />
    <glyph glyph-name="j" unicode="j" 
d="M104 -188v90h173q48 0 57 14t9 75v446h-245v89h353v-555q0 -92 -36 -125.5t-133 -33.5h-178zM329 621v109h127v-109h-127z" />
    <glyph glyph-name="k" unicode="k" 
d="M106 0v730h108v-295q0 -20 -0.5 -66t-0.5 -78h2q17 18 41.5 45t42.5 47l138 143h137l-221 -223l237 -303h-140l-175 235l-61 -61v-174h-108z" />
    <glyph glyph-name="l" unicode="l" 
d="M77 0v89h181v552h-181v89h290v-641h168v-89h-458z" />
    <glyph glyph-name="m" unicode="m" 
d="M52 0v412q0 86 -1 114h93q0 -4 0.5 -13t0.5 -13t-0.5 -13t-0.5 -14h3q30 62 102 62q69 0 94 -62h3q36 62 106 62q59 0 83.5 -42t24.5 -127v-366h-95v351q0 54 -13 75.5t-43 21.5q-57 0 -57 -71v-377h-93v351q0 54 -12 75.5t-42 21.5q-59 0 -59 -71v-377h-94z" />
    <glyph glyph-name="n" unicode="n" 
d="M82 0v416q0 12 -0.5 54t-0.5 56h103v-30q0 -27 -1 -55h2q19 41 62.5 67.5t100.5 26.5q83 0 133 -53.5t50 -155.5v-326h-108v247q0 103 -22 149t-86 46q-65 0 -95 -46.5t-30 -143.5v-252h-108z" />
    <glyph glyph-name="o" unicode="o" 
d="M305 -16q-118 0 -189.5 75t-71.5 200q0 124 71.5 200t190.5 76q117 0 189 -76t72 -200t-72.5 -199.5t-189.5 -75.5zM305 76q70 0 109 46t39 137t-38.5 137t-108.5 46t-108.5 -46t-38.5 -137q0 -92 38 -137.5t108 -45.5z" />
    <glyph glyph-name="p" unicode="p" 
d="M58 -188v582q0 104 -1 132h108v-31q0 -31 -1 -52h3q51 91 169 91q101 0 164.5 -73t63.5 -199t-63 -199.5t-165 -73.5q-113 0 -169 89h-3q2 -72 2 -107v-159h-108zM309 81q65 0 104 49.5t39 128.5q0 81 -39 130t-105 49q-65 0 -105 -49t-40 -128q0 -81 40 -130.5
t106 -49.5z" />
    <glyph glyph-name="q" unicode="q" 
d="M443 -188v197q0 13 0.5 36t0.5 30h-3q-51 -87 -167 -87q-101 0 -164.5 74t-63.5 199t64 199t165 74q111 0 168 -92h3v54v30h106q-1 -31 -1 -118v-596h-108zM299 81q67 0 107 50.5t40 129.5t-40 128t-106 49q-65 0 -103.5 -49.5t-38.5 -128.5q0 -80 38.5 -129.5
t102.5 -49.5z" />
    <glyph glyph-name="r" unicode="r" 
d="M35 0v89h182v348h-182v89h277v-115h3q18 62 61 88.5t120 26.5h89v-101h-90q-105 0 -138 -50t-33 -170v-116h190v-89h-479z" />
    <glyph glyph-name="s" unicode="s" 
d="M305 -16q-183 0 -237 127l90 43q50 -83 152 -83q46 0 75.5 18.5t29.5 51.5q0 30 -22.5 42t-73.5 24q-2 0 -3 0.5t-3 1t-3 0.5l-41 10q-86 19 -131 51.5t-45 103.5q0 74 59.5 117.5t152.5 43.5q79 0 135.5 -30.5t81.5 -82.5l-90 -45q-35 69 -129 69q-45 0 -71 -17t-26 -47
q0 -32 26.5 -46t81.5 -24l44 -9q81 -17 125.5 -50t44.5 -102q0 -79 -61 -123t-162 -44z" />
    <glyph glyph-name="t" unicode="t" 
d="M543 0h-197q-79 0 -113.5 33.5t-34.5 113.5v292h-170v87h170v144h108v-144h238v-90h-238v-273q0 -45 12 -59t54 -14h171v-90z" />
    <glyph glyph-name="u" unicode="u" 
d="M262 -12q-84 0 -133.5 50t-49.5 147v341h108v-317q0 -129 110 -129q64 0 92.5 37.5t28.5 116.5v292h108v-433q0 -13 0.5 -41t0.5 -52h-105v76q-59 -88 -160 -88z" />
    <glyph glyph-name="v" unicode="v" 
d="M240 0l-189 526h120l74 -231q30 -93 59 -189h5q23 76 60 189l74 231h117l-193 -526h-127z" />
    <glyph glyph-name="w" unicode="w" 
d="M113 0l-101 526h103l37 -232q7 -37 26 -193h5q19 135 29 189l46 236h100l44 -227q19 -98 32 -198h4q25 179 28 195l38 230h98l-103 -526h-120l-40 212q-6 35 -15 102t-14 96h-4q-24 -156 -32 -197l-41 -213h-120z" />
    <glyph glyph-name="x" unicode="x" 
d="M46 0l194 269l-181 257h133l116 -180l120 180h125l-182 -254l195 -272h-132l-129 192l-132 -192h-127z" />
    <glyph glyph-name="y" unicode="y" 
d="M133 -194q-6 0 -18.5 0.5t-19.5 0.5l-3 89q13 -1 36 -1q36 0 51 6q26 8 42 32t31 72l-206 521h122l68 -191q22 -61 71 -212h4q41 130 72 218l65 185h118l-233 -593q-30 -76 -70.5 -101.5t-129.5 -25.5z" />
    <glyph glyph-name="z" unicode="z" 
d="M81 0v91l300 345v3q-35 -3 -98 -3h-190v90h417v-90l-297 -345v-2q25 0 66 0.5t66 0.5h178v-90h-442z" />
    <glyph glyph-name="braceleft" unicode="{" 
d="M488 -141h-101q-83 0 -109.5 34t-26.5 115v126q0 68 -30 99t-97 35v73q67 4 97 35t30 99v126q0 81 26.5 115t109.5 34h101v-74h-64q-42 0 -55.5 -20.5t-13.5 -69.5v-126q0 -77 -25.5 -110.5t-89.5 -43.5v-3q64 -10 89.5 -43.5t25.5 -110.5v-126q0 -49 13.5 -69.5
t55.5 -20.5h64v-74z" />
    <glyph glyph-name="bar" unicode="|" 
d="M257 -168v853h97v-853h-97z" />
    <glyph glyph-name="braceright" unicode="}" 
d="M124 -141v74h64q41 0 55 20t14 70v126q0 77 25.5 110.5t89.5 43.5v3q-64 10 -89.5 43.5t-25.5 110.5v126q0 49 -14 69.5t-55 20.5h-64v74h101q83 0 109.5 -34t26.5 -115v-126q0 -68 30 -99t97 -35v-73q-67 -4 -97 -35t-30 -99v-126q0 -81 -26.5 -115t-109.5 -34h-101z
" />
    <glyph glyph-name="asciitilde" unicode="~" 
d="M414 257q-15 0 -30.5 3.5t-24 7t-26 11.5t-24.5 11l-35 16q-50 22 -71 22q-26 0 -43.5 -14.5t-40.5 -48.5l-61 51q62 109 143 109q15 0 30.5 -3.5t24 -7t26 -11.5t24.5 -11l35 -16q49 -22 71 -22q26 0 45 15t41 47l61 -51q-61 -108 -145 -108z" />
    <glyph glyph-name="uni00A0" unicode="&#xa0;" 
 />
    <glyph glyph-name="exclamdown" unicode="&#xa1;" 
d="M248 -159v272l13 231h83l13 -231v-272h-109zM247 400v126h117v-126h-117z" />
    <glyph glyph-name="cent" unicode="&#xa2;" 
d="M279 -44v118q-94 16 -149.5 88.5t-55.5 180.5q0 107 55.5 180t149.5 91v116h102v-115q68 -12 113.5 -54t61.5 -106l-101 -25q-17 60 -74 84v-340q60 24 76 85l98 -24q-16 -63 -61.5 -105t-112.5 -55v-119h-102zM279 175v339q-90 -35 -90 -171q0 -133 90 -168z" />
    <glyph glyph-name="sterling" unicode="&#xa3;" 
d="M78 0v101q97 21 97 129q0 18 -10 66h-108v89h82q-17 60 -17 105q0 94 61.5 151.5t165.5 57.5q87 0 142.5 -40.5t70.5 -114.5l-97 -31q-27 89 -117 89q-54 0 -83 -31.5t-29 -88.5q0 -50 18 -97h165v-89h-142q9 -38 9 -63q0 -86 -64 -134v-4q40 1 118 1h215v-96h-477z" />
    <glyph glyph-name="currency" unicode="&#xa4;" 
d="M122 107l-71 71l64 63q-35 59 -35 121q0 63 34 121l-63 63l71 71l62 -64q59 35 121 35q64 0 122 -35l63 64l70 -71l-64 -63q36 -59 36 -120q0 -67 -36 -122l64 -63l-70 -71l-63 65q-56 -35 -120 -35t-122 35zM306 228q56 0 95 39.5t39 94.5t-39 94.5t-95 39.5t-95 -39.5
t-39 -94.5t39 -94.5t95 -39.5z" />
    <glyph glyph-name="yen" unicode="&#xa5;" 
d="M249 0v126h-194v77h194v60l-28 53h-166v77h126l-152 292h123l76 -165q15 -32 77 -154h4q9 19 36 71.5t41 82.5l77 165h120l-155 -292h125v-77h-165l-28 -53v-60h193v-77h-193v-126h-111z" />
    <glyph glyph-name="brokenbar" unicode="&#xa6;" 
d="M257 355v330h97v-330h-97zM257 -168v330h97v-330h-97z" />
    <glyph glyph-name="section" unicode="&#xa7;" 
d="M296 -155q-78 0 -136.5 34.5t-78.5 92.5l94 34q27 -71 121 -71q50 0 76.5 18t26.5 51q0 32 -24 50t-85 40l-63 23q-83 30 -119.5 70.5t-36.5 100.5q0 89 99 134q-64 41 -64 120q0 72 58.5 114.5t152.5 42.5q75 0 129 -30.5t74 -91.5l-90 -32q-23 65 -116 65
q-44 0 -70 -18t-26 -46q0 -31 24.5 -49t87.5 -41l55 -21q79 -30 117.5 -69.5t38.5 -95.5q0 -95 -93 -139q33 -23 49 -48.5t16 -68.5q0 -77 -60 -123t-157 -46zM293 201l89 -32q27 16 39.5 34t12.5 46q0 35 -24 57.5t-79 41.5l-102 36q-27 -15 -39 -32t-12 -45
q0 -37 28 -60.5t87 -45.5z" />
    <glyph glyph-name="dieresis" unicode="&#xa8;" 
d="M348 610v111h108v-111h-108zM151 610v111h107v-111h-107z" />
    <glyph glyph-name="copyright" unicode="&#xa9;" 
d="M303 166q-110 0 -187 77t-77 189q0 111 77.5 189t188.5 78q112 0 190 -78t78 -189q0 -112 -78.5 -189t-191.5 -77zM308 270q-71 0 -112 44t-41 117q0 72 42 116.5t111 44.5q53 0 88.5 -26.5t47.5 -73.5l-67 -13q-18 54 -69 54q-38 0 -60 -28t-22 -74t22 -74t60 -28
q50 0 69 53l69 -12q-14 -47 -50 -73.5t-88 -26.5zM307 213q90 0 152 64t62 155t-62.5 154.5t-153.5 63.5q-90 0 -152 -63.5t-62 -154.5q0 -93 62 -156t154 -63z" />
    <glyph glyph-name="ordfeminine" unicode="&#xaa;" 
d="M262 349q-57 0 -90 26.5t-33 74.5q0 46 29.5 69t101.5 36l55 10q22 4 28 7.5t6 14.5q0 22 -16 34.5t-45 12.5q-59 0 -64 -55l-84 5q4 52 43.5 83.5t106.5 31.5q72 0 108 -31.5t36 -99.5v-197q0 -5 0.5 -10t0.5 -6h-76q-1 5 -1 17v13l-1 1q-37 -37 -105 -37zM284 408
q36 0 56.5 20t20.5 58v12q0 9 1 13q-1 0 -47 -9q-63 -13 -75 -23q-11 -10 -11 -28q0 -43 55 -43z" />
    <glyph glyph-name="guillemotleft" unicode="&#xab;" 
d="M189 91l-118 184l118 185h108l-104 -185l104 -184h-108zM408 91l-118 184l118 185h108l-104 -185l104 -184h-108z" />
    <glyph glyph-name="logicalnot" unicode="&#xac;" 
d="M454 157v182q0 33 1 50h-398v98h501v-330h-104z" />
    <glyph glyph-name="uni00AD" unicode="&#xad;" 
d="M161 235v107h290v-107h-290z" />
    <glyph glyph-name="registered" unicode="&#xae;" 
d="M303 166q-110 0 -187 77t-77 189q0 111 77.5 189t188.5 78q112 0 190 -78t78 -189q0 -112 -78.5 -189t-191.5 -77zM307 213q88 0 150.5 64t62.5 155t-62.5 154.5t-152.5 63.5t-152 -63.5t-62 -154.5q0 -93 62 -156t154 -63zM191 275v313h132q112 0 112 -89q0 -53 -44 -77
q30 -17 34 -65l3 -31q3 -30 15 -49v-2h-72q-7 17 -9 52q-3 39 -13.5 54.5t-47.5 15.5h-42v-122h-68zM259 450h59q21 0 35 11.5t14 31.5q0 38 -53 38h-55v-81z" />
    <glyph glyph-name="overscore" unicode="&#xaf;" 
d="M171 629v83h267v-83h-267z" />
    <glyph glyph-name="degree" unicode="&#xb0;" 
d="M306 366q-71 0 -119.5 48t-48.5 118t48.5 118.5t119.5 48.5q70 0 118.5 -48.5t48.5 -118.5t-48.5 -118t-118.5 -48zM306 438q39 0 64.5 27t25.5 67q0 39 -25.5 66t-64.5 27q-41 0 -66.5 -26.5t-25.5 -66.5t25.5 -67t66.5 -27z" />
    <glyph glyph-name="plusminus" unicode="&#xb1;" 
d="M252 244v136h-167v107h167v134h107v-134h168v-107h-168v-136h-107zM85 70v107h442v-107h-442z" />
    <glyph glyph-name="twosuperior" unicode="&#xb2;" 
d="M146 348v72q39 37 136 118q55 47 75 75t20 63q0 31 -17.5 50.5t-49.5 19.5q-70 0 -75 -90l-90 2q0 76 45.5 123t121.5 47q75 0 118 -39t43 -107q0 -54 -30 -97t-87 -88q-25 -20 -53 -41.5t-37 -28.5v-2h30q7 1 48 1h131v-78h-329z" />
    <glyph glyph-name="threesuperior" unicode="&#xb3;" 
d="M307 340q-78 0 -123 40.5t-48 114.5l93 3q5 -83 78 -83q35 0 55 20t20 51q0 34 -23.5 52.5t-64.5 18.5h-24v72h18q35 0 56.5 15.5t21.5 47.5q0 25 -15.5 41.5t-41.5 16.5q-68 0 -68 -74l-92 6q4 67 46.5 106.5t113.5 39.5t112.5 -35t41.5 -91q0 -76 -69 -103
q84 -31 84 -115q0 -65 -47.5 -104.5t-123.5 -39.5z" />
    <glyph glyph-name="acute" unicode="&#xb4;" 
d="M186 601l83 129h144l-121 -129h-106z" />
    <glyph glyph-name="mu" unicode="&#xb5;" 
d="M189 -184h-111q5 72 5 129v581h108v-317q0 -129 110 -129q64 0 92.5 37.5t28.5 116.5v292h108v-433q0 -13 0.5 -41t0.5 -52h-105v76q-59 -88 -160 -88q-40 0 -73 12v-53q0 -96 -4 -131z" />
    <glyph glyph-name="paragraph" unicode="&#xb6;" 
d="M262 -141v433q-92 0 -152 54t-60 141q0 91 60.5 144.5t175.5 53.5h274v-78h-29q-13 0 -22 1q1 -23 1 -62v-687h-80v745q-15 -1 -40 -1h-7q-28 0 -41 1q1 -19 1 -66v-679h-81z" />
    <glyph glyph-name="middot" unicode="&#xb7;" 
d="M226 199v155h160v-155h-160z" />
    <glyph glyph-name="cedilla" unicode="&#xb8;" 
d="M198 -178l107 129h103l-86 -129h-124z" />
    <glyph glyph-name="onesuperior" unicode="&#xb9;" 
d="M167 348v74h103v253h-113v64q60 2 88.5 18.5t34.5 59.5h81v-395h93v-74h-287z" />
    <glyph glyph-name="ordmasculine" unicode="&#xba;" 
d="M308 345q-80 0 -129 48.5t-49 126.5q0 79 49.5 128t128.5 49t128 -49t49 -128q0 -78 -49 -126.5t-128 -48.5zM308 417q41 0 63 27t22 76q0 47 -22 75.5t-63 28.5t-64 -28t-23 -76t22.5 -75.5t64.5 -27.5z" />
    <glyph glyph-name="guillemotright" unicode="&#xbb;" 
d="M315 91l104 184l-104 185h108l118 -185l-118 -184h-108zM97 91l104 184l-104 185h108l118 -185l-118 -184h-108z" />
    <glyph glyph-name="onequarter" unicode="&#xbc;" 
d="M460 0v76h-161v51l90 253h75l-82 -237h78v132h72v-132h47v-67h-47v-76h-72zM87 0l296 685h75l-295 -685h-76zM94 305v265h-85v53q51 3 73 15.5t26 46.5h60v-380h-74z" />
    <glyph glyph-name="onehalf" unicode="&#xbd;" 
d="M319 0v55l101 89q71 63 71 121q0 46 -45 46q-50 0 -50 -72l-77 3q-1 64 33 101t94 37t92.5 -29.5t32.5 -86.5q0 -46 -24.5 -87t-83.5 -88l-25 -20q13 0 36 0.5t30 0.5h72v-70h-257zM77 0l296 685h75l-295 -685h-76zM85 305v266h-85v52q51 3 73 15.5t26 46.5h60v-380h-74z
" />
    <glyph glyph-name="threequarters" unicode="&#xbe;" 
d="M143 302q-122 0 -134 129l78 5q5 -67 57 -67q25 0 40 13.5t15 37.5q0 52 -64 52h-18v65h14q58 0 58 46q0 44 -44 44q-46 0 -51 -61l-74 4q9 122 125 122q60 0 90 -26.5t30 -72.5q0 -55 -56 -83q33 -10 51 -34t18 -57q0 -54 -37 -85.5t-98 -31.5zM143 0l296 685h75
l-295 -685h-76zM503 0v76h-163v51l90 253h74l-82 -237h81v132h70v-132h47v-67h-47v-76h-70z" />
    <glyph glyph-name="questiondown" unicode="&#xbf;" 
d="M297 -173q-96 0 -153.5 53.5t-57.5 136.5q0 51 22 89t68 77l20 17q42 35 55 62t13 82h104q0 -70 -13 -110t-52 -76l-51 -47q-36 -32 -45 -50q-10 -20 -10 -45q0 -41 25.5 -66.5t78.5 -25.5q58 0 87.5 36t29.5 103l107 -3q0 -107 -59.5 -170t-168.5 -63zM257 400v126h117
v-126h-117z" />
    <glyph glyph-name="Agrave" unicode="&#xc0;" 
d="M18 0l220 685h137l219 -685h-114l-59 184h-233l-60 -184h-110zM212 279h182l-41 135q-23 71 -47 167h-5q-30 -115 -47 -167zM266 773l-121 129h144l83 -129h-106z" />
    <glyph glyph-name="Aacute" unicode="&#xc1;" 
d="M18 0l220 685h137l219 -685h-114l-59 184h-233l-60 -184h-110zM212 279h182l-41 135q-23 71 -47 167h-5q-30 -115 -47 -167zM249 773l83 129h144l-121 -129h-106z" />
    <glyph glyph-name="Acircumflex" unicode="&#xc2;" 
d="M18 0l220 685h137l219 -685h-114l-59 184h-233l-60 -184h-110zM212 279h182l-41 135q-23 71 -47 167h-5q-30 -115 -47 -167zM133 773l102 129h136l102 -129h-102l-68 71l-68 -71h-102z" />
    <glyph glyph-name="Atilde" unicode="&#xc3;" 
d="M18 0l220 685h137l219 -685h-114l-59 184h-233l-60 -184h-110zM212 279h182l-41 135q-23 71 -47 167h-5q-30 -115 -47 -167zM198 778l-66 13q22 109 103 109q26 0 61 -14l24 -10q38 -16 47 -16q27 0 41 42l66 -14q-21 -108 -103 -108q-26 0 -61 14l-24 10q-38 16 -47 16
q-27 0 -41 -42z" />
    <glyph glyph-name="Adieresis" unicode="&#xc4;" 
d="M18 0l220 685h137l219 -685h-114l-59 184h-233l-60 -184h-110zM212 279h182l-41 135q-23 71 -47 167h-5q-30 -115 -47 -167zM349 782v111h108v-111h-108zM152 782v111h107v-111h-107z" />
    <glyph glyph-name="Aring" unicode="&#xc5;" 
d="M18 0l220 685h137l219 -685h-114l-59 184h-233l-60 -184h-110zM212 279h182l-41 135q-23 71 -47 167h-5q-30 -115 -47 -167zM304 734q-43 0 -73 30.5t-30 73.5q0 44 30 74t73 30q44 0 74 -30t30 -74q0 -43 -30 -73.5t-74 -30.5zM304 792q19 0 32.5 13.5t13.5 32.5
q0 20 -13.5 33t-32.5 13t-32.5 -13t-13.5 -33q0 -19 13.5 -32.5t32.5 -13.5z" />
    <glyph glyph-name="AE" unicode="&#xc6;" 
d="M23 0l182 685h379v-96h-171v-191h150v-96h-150v-206h174v-96h-279v183h-130l-45 -183h-110zM198 268h110v331h-30z" />
    <glyph glyph-name="Ccedilla" unicode="&#xc7;" 
d="M327 -13q-138 0 -209 92t-71 264q0 170 71.5 263t207.5 93q94 0 158.5 -52t86.5 -138l-104 -25q-37 119 -145 119q-164 0 -164 -260q0 -132 40 -197t130 -65q102 0 141 122l102 -25q-23 -88 -84.5 -139.5t-159.5 -51.5zM169 -178l107 129h103l-86 -129h-124z" />
    <glyph glyph-name="Egrave" unicode="&#xc8;" 
d="M97 0v685h427v-96h-318v-191h298v-96h-298v-206h321v-96h-430zM266 773l-121 129h144l83 -129h-106z" />
    <glyph glyph-name="Eacute" unicode="&#xc9;" 
d="M97 0v685h427v-96h-318v-191h298v-96h-298v-206h321v-96h-430zM224 773l83 129h144l-121 -129h-106z" />
    <glyph glyph-name="Ecircumflex" unicode="&#xca;" 
d="M97 0v685h427v-96h-318v-191h298v-96h-298v-206h321v-96h-430zM137 773l102 129h136l102 -129h-102l-68 71l-68 -71h-102z" />
    <glyph glyph-name="Edieresis" unicode="&#xcb;" 
d="M97 0v685h427v-96h-318v-191h298v-96h-298v-206h321v-96h-430zM353 782v111h108v-111h-108zM156 782v111h107v-111h-107z" />
    <glyph glyph-name="Igrave" unicode="&#xcc;" 
d="M89 0v86h161v513h-161v86h434v-86h-163v-513h163v-86h-434zM264 773l-121 129h144l83 -129h-106z" />
    <glyph glyph-name="Iacute" unicode="&#xcd;" 
d="M89 0v86h161v513h-161v86h434v-86h-163v-513h163v-86h-434zM241 773l83 129h144l-121 -129h-106z" />
    <glyph glyph-name="Icircumflex" unicode="&#xce;" 
d="M89 0v86h161v513h-161v86h434v-86h-163v-513h163v-86h-434zM136 773l102 129h136l102 -129h-102l-68 71l-68 -71h-102z" />
    <glyph glyph-name="Idieresis" unicode="&#xcf;" 
d="M89 0v86h161v513h-161v86h434v-86h-163v-513h163v-86h-434zM351 782v111h108v-111h-108zM154 782v111h107v-111h-107z" />
    <glyph glyph-name="Eth" unicode="&#xd0;" 
d="M11 306v85h55v294h216q150 0 220.5 -84.5t70.5 -254.5q0 -163 -72 -254.5t-215 -91.5h-220v306h-55zM178 94h94q93 0 140 56.5t47 189.5q0 139 -49.5 195.5t-172.5 56.5h-59v-201h142v-85h-142v-212z" />
    <glyph glyph-name="Ntilde" unicode="&#xd1;" 
d="M59 0v685h139l177 -371q17 -34 40.5 -92t31.5 -75h5q-2 104 -2 167v371h103v-685h-138l-192 411q-19 40 -62 145h-4q0 -24 2.5 -90.5t2.5 -95.5v-370h-103zM203 778l-66 13q22 109 103 109q26 0 61 -14l24 -10q38 -16 47 -16q28 0 41 42l66 -14q-21 -108 -103 -108
q-26 0 -61 14l-24 10q-38 16 -47 16q-28 0 -41 -42z" />
    <glyph glyph-name="Ograve" unicode="&#xd2;" 
d="M305 -13q-133 0 -201.5 92.5t-68.5 261.5q0 170 69 264t201 94t202 -94t70 -263t-70 -262t-202 -93zM305 80q83 0 121.5 64.5t38.5 196.5q0 262 -160 262q-82 0 -120.5 -65.5t-38.5 -196.5q0 -132 38 -196.5t121 -64.5zM272 773l-121 129h144l83 -129h-106z" />
    <glyph glyph-name="Oacute" unicode="&#xd3;" 
d="M305 -13q-133 0 -201.5 92.5t-68.5 261.5q0 170 69 264t201 94t202 -94t70 -263t-70 -262t-202 -93zM305 80q83 0 121.5 64.5t38.5 196.5q0 262 -160 262q-82 0 -120.5 -65.5t-38.5 -196.5q0 -132 38 -196.5t121 -64.5zM233 773l83 129h144l-121 -129h-106z" />
    <glyph glyph-name="Ocircumflex" unicode="&#xd4;" 
d="M305 -13q-133 0 -201.5 92.5t-68.5 261.5q0 170 69 264t201 94t202 -94t70 -263t-70 -262t-202 -93zM305 80q83 0 121.5 64.5t38.5 196.5q0 262 -160 262q-82 0 -120.5 -65.5t-38.5 -196.5q0 -132 38 -196.5t121 -64.5zM136 773l102 129h136l102 -129h-102l-68 71
l-68 -71h-102z" />
    <glyph glyph-name="Otilde" unicode="&#xd5;" 
d="M305 -13q-133 0 -201.5 92.5t-68.5 261.5q0 170 69 264t201 94t202 -94t70 -263t-70 -262t-202 -93zM305 80q83 0 121.5 64.5t38.5 196.5q0 262 -160 262q-82 0 -120.5 -65.5t-38.5 -196.5q0 -132 38 -196.5t121 -64.5zM208 778l-66 13q22 109 103 109q26 0 61 -14
l24 -10q38 -16 47 -16q28 0 41 42l66 -14q-21 -108 -103 -108q-26 0 -61 14l-24 10q-38 16 -47 16q-27 0 -41 -42z" />
    <glyph glyph-name="Odieresis" unicode="&#xd6;" 
d="M305 -13q-133 0 -201.5 92.5t-68.5 261.5q0 170 69 264t201 94t202 -94t70 -263t-70 -262t-202 -93zM305 80q83 0 121.5 64.5t38.5 196.5q0 262 -160 262q-82 0 -120.5 -65.5t-38.5 -196.5q0 -132 38 -196.5t121 -64.5zM351 782v111h108v-111h-108zM154 782v111h107v-111
h-107z" />
    <glyph glyph-name="multiply" unicode="&#xd7;" 
d="M142 98l-72 72l166 166l-166 166l72 72l166 -166l165 165l72 -72l-165 -165l165 -165l-72 -72l-165 165z" />
    <glyph glyph-name="Oslash" unicode="&#xd8;" 
d="M103 -50l-78 46l60 93q-68 92 -68 252q0 168 76 263t212 95q80 0 144 -36l50 78l77 -46l-59 -92q77 -92 77 -261q0 -168 -76 -261.5t-213 -93.5q-88 0 -153 41zM305 80q176 0 176 261q0 100 -27 163l-251 -394q41 -30 102 -30zM149 191l247 387q-37 25 -91 25
q-176 0 -176 -262q0 -87 20 -150z" />
    <glyph glyph-name="Ugrave" unicode="&#xd9;" 
d="M306 -13q-125 0 -183 63.5t-58 208.5v426h112v-419q0 -97 28 -140.5t101 -43.5t101.5 44.5t28.5 139.5v419h111v-428q0 -143 -59 -206.5t-182 -63.5zM274 773l-121 129h144l83 -129h-106z" />
    <glyph glyph-name="Uacute" unicode="&#xda;" 
d="M306 -13q-125 0 -183 63.5t-58 208.5v426h112v-419q0 -97 28 -140.5t101 -43.5t101.5 44.5t28.5 139.5v419h111v-428q0 -143 -59 -206.5t-182 -63.5zM234 773l83 129h144l-121 -129h-106z" />
    <glyph glyph-name="Ucircumflex" unicode="&#xdb;" 
d="M306 -13q-125 0 -183 63.5t-58 208.5v426h112v-419q0 -97 28 -140.5t101 -43.5t101.5 44.5t28.5 139.5v419h111v-428q0 -143 -59 -206.5t-182 -63.5zM138 773l102 129h136l102 -129h-102l-68 71l-68 -71h-102z" />
    <glyph glyph-name="Udieresis" unicode="&#xdc;" 
d="M306 -13q-125 0 -183 63.5t-58 208.5v426h112v-419q0 -97 28 -140.5t101 -43.5t101.5 44.5t28.5 139.5v419h111v-428q0 -143 -59 -206.5t-182 -63.5zM353 782v111h108v-111h-108zM156 782v111h107v-111h-107z" />
    <glyph glyph-name="Yacute" unicode="&#xdd;" 
d="M250 0v261l-219 424h119l81 -165q12 -25 36.5 -77t37.5 -77h4q48 102 75 154l81 165h116l-222 -424v-261h-109zM234 773l83 129h144l-121 -129h-106z" />
    <glyph glyph-name="Thorn" unicode="&#xde;" 
d="M67 0v685h110v-98h147q109 0 164.5 -55.5t55.5 -151.5q0 -101 -61 -155.5t-172 -54.5h-134v-170h-110zM177 265h125q130 0 130 113q0 116 -131 116h-124v-229z" />
    <glyph glyph-name="germandbls" unicode="&#xdf;" 
d="M307 -5q-27 0 -51 5v87q19 -5 41 -5q59 0 97 37t38 104q0 44 -15 73.5t-43 43t-55 18.5t-62 5v83q143 0 143 105q0 45 -27 71t-77 26t-78 -28q-31 -31 -31 -111v-509h-109v508q0 117 57 174q56 56 166 56q99 0 153 -45.5t54 -127.5q0 -112 -108 -151q67 -21 105.5 -70.5
t38.5 -121.5q0 -107 -66 -167t-171 -60z" />
    <glyph glyph-name="agrave" unicode="&#xe0;" 
d="M246 -9q-85 0 -137 41t-52 113q0 33 11 58t28 41.5t48 29.5t60.5 21t76.5 17l73 14q4 1 11.5 2.5l10 2t8 1.5t7 2t5 2.5t4.5 3t3 4t2.5 6l1 7t0.5 8.5q0 39 -28.5 61.5t-78.5 22.5q-106 0 -118 -95l-107 8q8 79 68.5 126t156.5 47q216 0 216 -198v-314q0 -19 1 -23h-99
v21q0 30 1 39h-3q-56 -69 -170 -69zM273 69q65 0 100.5 37t35.5 103v13q0 22 3 32q-7 -2 -49 -11l-76 -15q-66 -13 -90.5 -28t-24.5 -53t26.5 -58t74.5 -20zM270 601l-121 129h144l83 -129h-106z" />
    <glyph glyph-name="aacute" unicode="&#xe1;" 
d="M246 -9q-85 0 -137 41t-52 113q0 33 11 58t28 41.5t48 29.5t60.5 21t76.5 17l73 14q4 1 11.5 2.5l10 2t8 1.5t7 2t5 2.5t4.5 3t3 4t2.5 6l1 7t0.5 8.5q0 39 -28.5 61.5t-78.5 22.5q-106 0 -118 -95l-107 8q8 79 68.5 126t156.5 47q216 0 216 -198v-314q0 -19 1 -23h-99
v21q0 30 1 39h-3q-56 -69 -170 -69zM273 69q65 0 100.5 37t35.5 103v13q0 22 3 32q-7 -2 -49 -11l-76 -15q-66 -13 -90.5 -28t-24.5 -53t26.5 -58t74.5 -20zM230 601l83 129h144l-121 -129h-106z" />
    <glyph glyph-name="acircumflex" unicode="&#xe2;" 
d="M246 -9q-85 0 -137 41t-52 113q0 33 11 58t28 41.5t48 29.5t60.5 21t76.5 17l73 14q4 1 11.5 2.5l10 2t8 1.5t7 2t5 2.5t4.5 3t3 4t2.5 6l1 7t0.5 8.5q0 39 -28.5 61.5t-78.5 22.5q-106 0 -118 -95l-107 8q8 79 68.5 126t156.5 47q216 0 216 -198v-314q0 -19 1 -23h-99
v21q0 30 1 39h-3q-56 -69 -170 -69zM273 69q65 0 100.5 37t35.5 103v13q0 22 3 32q-7 -2 -49 -11l-76 -15q-66 -13 -90.5 -28t-24.5 -53t26.5 -58t74.5 -20zM138 601l102 129h136l102 -129h-102l-68 71l-68 -71h-102z" />
    <glyph glyph-name="atilde" unicode="&#xe3;" 
d="M246 -9q-85 0 -137 41t-52 113q0 33 11 58t28 41.5t48 29.5t60.5 21t76.5 17l73 14q4 1 11.5 2.5l10 2t8 1.5t7 2t5 2.5t4.5 3t3 4t2.5 6l1 7t0.5 8.5q0 39 -28.5 61.5t-78.5 22.5q-106 0 -118 -95l-107 8q8 79 68.5 126t156.5 47q216 0 216 -198v-314q0 -19 1 -23h-99
v21q0 30 1 39h-3q-56 -69 -170 -69zM273 69q65 0 100.5 37t35.5 103v13q0 22 3 32q-7 -2 -49 -11l-76 -15q-66 -13 -90.5 -28t-24.5 -53t26.5 -58t74.5 -20zM202 606l-66 13q22 109 103 109q26 0 61 -14l24 -10q40 -16 47 -16q27 0 41 42l66 -14q-21 -108 -103 -108
q-26 0 -61 14l-24 10q-38 16 -47 16q-27 0 -41 -42z" />
    <glyph glyph-name="adieresis" unicode="&#xe4;" 
d="M246 -9q-85 0 -137 41t-52 113q0 33 11 58t28 41.5t48 29.5t60.5 21t76.5 17l73 14q4 1 11.5 2.5l10 2t8 1.5t7 2t5 2.5t4.5 3t3 4t2.5 6l1 7t0.5 8.5q0 39 -28.5 61.5t-78.5 22.5q-106 0 -118 -95l-107 8q8 79 68.5 126t156.5 47q216 0 216 -198v-314q0 -19 1 -23h-99
v21q0 30 1 39h-3q-56 -69 -170 -69zM273 69q65 0 100.5 37t35.5 103v13q0 22 3 32q-7 -2 -49 -11l-76 -15q-66 -13 -90.5 -28t-24.5 -53t26.5 -58t74.5 -20zM353 610v111h108v-111h-108zM156 610v111h107v-111h-107z" />
    <glyph glyph-name="aring" unicode="&#xe5;" 
d="M246 -9q-85 0 -137 41t-52 113q0 33 11 58t28 41.5t48 29.5t60.5 21t76.5 17l73 14q4 1 11.5 2.5l10 2t8 1.5t7 2t5 2.5t4.5 3t3 4t2.5 6l1 7t0.5 8.5q0 39 -28.5 61.5t-78.5 22.5q-106 0 -118 -95l-107 8q8 79 68.5 126t156.5 47q216 0 216 -198v-314q0 -19 1 -23h-99
v21q0 30 1 39h-3q-56 -69 -170 -69zM273 69q65 0 100.5 37t35.5 103v13q0 22 3 32q-7 -2 -49 -11l-76 -15q-66 -13 -90.5 -28t-24.5 -53t26.5 -58t74.5 -20zM306 577q-43 0 -73 30.5t-30 73.5q0 44 30 74t73 30q44 0 74 -30t30 -74q0 -43 -30 -73.5t-74 -30.5zM306 635
q19 0 32.5 13.5t13.5 32.5q0 20 -13.5 33t-32.5 13t-32.5 -13t-13.5 -33q0 -19 13.5 -32.5t32.5 -13.5z" />
    <glyph glyph-name="ae" unicode="&#xe6;" 
d="M151 -11q-65 0 -99.5 40t-34.5 113q0 32 10 58t21.5 41.5t34.5 30t35.5 19.5l37.5 15l52 19q2 1 6.5 2.5t5.5 2t4.5 2t4 2.5t2.5 3t2.5 4t1.5 5.5t1 7.5v9q0 82 -57 82q-32 0 -46 -23.5t-16 -69.5l-90 8q1 81 41.5 127t112.5 46q74 0 111 -49q45 50 114 50
q91 0 130.5 -66t39.5 -194v-43h-252q2 -75 22 -112.5t63 -37.5q33 0 50 19t28 51l91 -27q-19 -61 -63 -97.5t-106 -36.5q-87 0 -129 66h-2q-42 -67 -127 -67zM167 70q38 0 54 32.5t16 99.5v29q0 2 0.5 9t0.5 11q-8 -5 -42 -16q-25 -10 -36 -15.5t-24.5 -16t-18 -24.5
t-4.5 -36q0 -73 54 -73zM324 314h155q-2 69 -18 100t-56 31q-72 0 -81 -131z" />
    <glyph glyph-name="ccedilla" unicode="&#xe7;" 
d="M319 -14q-114 0 -184 75t-70 198t71 199.5t188 76.5q87 0 146 -44.5t77 -119.5l-106 -25q-12 43 -43.5 68t-75.5 25q-68 0 -105 -48.5t-37 -131.5q0 -82 37 -130t105 -48q46 0 78 25t43 69l103 -24q-18 -74 -81 -119.5t-146 -45.5zM179 -178l107 129h103l-86 -129h-124z
" />
    <glyph glyph-name="egrave" unicode="&#xe8;" 
d="M315 -13q-121 0 -191.5 74t-70.5 198q0 120 71 198t188 78q123 0 185 -84t62 -220h-396q4 -68 47 -109t107 -41q95 0 148 81l90 -41q-32 -60 -93 -97t-147 -37zM163 314h285q-7 56 -41.5 94t-96.5 38q-59 0 -99 -37t-48 -95zM270 601l-121 129h144l83 -129h-106z" />
    <glyph glyph-name="eacute" unicode="&#xe9;" 
d="M315 -13q-121 0 -191.5 74t-70.5 198q0 120 71 198t188 78q123 0 185 -84t62 -220h-396q4 -68 47 -109t107 -41q95 0 148 81l90 -41q-32 -60 -93 -97t-147 -37zM163 314h285q-7 56 -41.5 94t-96.5 38q-59 0 -99 -37t-48 -95zM248 601l83 129h144l-121 -129h-106z" />
    <glyph glyph-name="ecircumflex" unicode="&#xea;" 
d="M315 -13q-121 0 -191.5 74t-70.5 198q0 120 71 198t188 78q123 0 185 -84t62 -220h-396q4 -68 47 -109t107 -41q95 0 148 81l90 -41q-32 -60 -93 -97t-147 -37zM163 314h285q-7 56 -41.5 94t-96.5 38q-59 0 -99 -37t-48 -95zM140 601l102 129h136l102 -129h-102l-68 71
l-68 -71h-102z" />
    <glyph glyph-name="edieresis" unicode="&#xeb;" 
d="M315 -13q-121 0 -191.5 74t-70.5 198q0 120 71 198t188 78q123 0 185 -84t62 -220h-396q4 -68 47 -109t107 -41q95 0 148 81l90 -41q-32 -60 -93 -97t-147 -37zM163 314h285q-7 56 -41.5 94t-96.5 38q-59 0 -99 -37t-48 -95zM359 610v111h108v-111h-108zM162 610v111h107
v-111h-107z" />
    <glyph glyph-name="igrave" unicode="&#xec;" 
d="M88 0v89h183v348h-183v89h291v-437h167v-89h-458zM264 601l-121 129h144l83 -129h-106z" />
    <glyph glyph-name="iacute" unicode="&#xed;" 
d="M88 0v89h183v348h-183v89h291v-437h167v-89h-458zM234 601l83 129h144l-121 -129h-106z" />
    <glyph glyph-name="icircumflex" unicode="&#xee;" 
d="M88 0v89h183v348h-183v89h291v-437h167v-89h-458zM147 601l102 129h136l102 -129h-102l-68 71l-68 -71h-102z" />
    <glyph glyph-name="idieresis" unicode="&#xef;" 
d="M88 0v89h183v348h-183v89h291v-437h167v-89h-458zM367 610v111h108v-111h-108zM170 610v111h107v-111h-107z" />
    <glyph glyph-name="eth" unicode="&#xf0;" 
d="M298 -13q-116 0 -184 71.5t-68 194.5q0 122 64 193t165 71q71 0 119 -51l3 2q-45 82 -112 133l-110 -62l-37 50l91 51q-64 40 -136 72q47 12 104 30q55 -18 119 -54l100 55l36 -48l-83 -48q182 -147 182 -378q0 -136 -67 -209t-186 -73zM298 76q68 0 106.5 44.5
t38.5 134.5q0 89 -38 134t-106 45t-106 -45t-38 -134q0 -90 37.5 -134.5t105.5 -44.5z" />
    <glyph glyph-name="ntilde" unicode="&#xf1;" 
d="M82 0v416q0 12 -0.5 54t-0.5 56h103v-30q0 -27 -1 -55h2q19 41 62.5 67.5t100.5 26.5q83 0 133 -53.5t50 -155.5v-326h-108v247q0 103 -22 149t-86 46q-65 0 -95 -46.5t-30 -143.5v-252h-108zM206 606l-66 13q22 109 103 109q26 0 61 -14l24 -10q40 -16 47 -16
q27 0 41 42l66 -14q-21 -108 -103 -108q-26 0 -61 14l-24 10q-38 16 -47 16q-27 0 -41 -42z" />
    <glyph glyph-name="ograve" unicode="&#xf2;" 
d="M305 -16q-118 0 -189.5 75t-71.5 200q0 124 71.5 200t190.5 76q117 0 189 -76t72 -200t-72.5 -199.5t-189.5 -75.5zM305 76q70 0 109 46t39 137t-38.5 137t-108.5 46t-108.5 -46t-38.5 -137q0 -92 38 -137.5t108 -45.5zM254 601l-121 129h144l83 -129h-106z" />
    <glyph glyph-name="oacute" unicode="&#xf3;" 
d="M305 -16q-118 0 -189.5 75t-71.5 200q0 124 71.5 200t190.5 76q117 0 189 -76t72 -200t-72.5 -199.5t-189.5 -75.5zM305 76q70 0 109 46t39 137t-38.5 137t-108.5 46t-108.5 -46t-38.5 -137q0 -92 38 -137.5t108 -45.5zM235 601l83 129h144l-121 -129h-106z" />
    <glyph glyph-name="ocircumflex" unicode="&#xf4;" 
d="M305 -16q-118 0 -189.5 75t-71.5 200q0 124 71.5 200t190.5 76q117 0 189 -76t72 -200t-72.5 -199.5t-189.5 -75.5zM305 76q70 0 109 46t39 137t-38.5 137t-108.5 46t-108.5 -46t-38.5 -137q0 -92 38 -137.5t108 -45.5zM139 601l102 129h136l102 -129h-102l-68 71
l-68 -71h-102z" />
    <glyph glyph-name="otilde" unicode="&#xf5;" 
d="M305 -16q-118 0 -189.5 75t-71.5 200q0 124 71.5 200t190.5 76q117 0 189 -76t72 -200t-72.5 -199.5t-189.5 -75.5zM305 76q70 0 109 46t39 137t-38.5 137t-108.5 46t-108.5 -46t-38.5 -137q0 -92 38 -137.5t108 -45.5zM206 606l-66 13q22 109 103 109q26 0 61 -14
l24 -10q40 -16 47 -16q27 0 41 42l66 -14q-21 -108 -103 -108q-26 0 -61 14l-24 10q-38 16 -47 16q-27 0 -41 -42z" />
    <glyph glyph-name="odieresis" unicode="&#xf6;" 
d="M305 -16q-118 0 -189.5 75t-71.5 200q0 124 71.5 200t190.5 76q117 0 189 -76t72 -200t-72.5 -199.5t-189.5 -75.5zM305 76q70 0 109 46t39 137t-38.5 137t-108.5 46t-108.5 -46t-38.5 -137q0 -92 38 -137.5t108 -45.5zM354 610v111h108v-111h-108zM157 610v111h107v-111
h-107z" />
    <glyph glyph-name="divide" unicode="&#xf7;" 
d="M64 288v100h484v-100h-484zM306 84q-28 0 -47 19t-19 47t19 47.5t47 19.5t47.5 -19.5t19.5 -47.5t-19.5 -47t-47.5 -19zM306 459q-28 0 -47 19t-19 47t19 47.5t47 19.5t47.5 -19.5t19.5 -47.5t-19.5 -47t-47.5 -19z" />
    <glyph glyph-name="oslash" unicode="&#xf8;" 
d="M125 -52l-65 45l51 70q-67 75 -67 196q0 124 71.5 200t190.5 76q70 0 128 -30l50 68l65 -45l-52 -72q70 -76 70 -197q0 -124 -72.5 -199.5t-189.5 -75.5q-75 0 -131 31zM305 76q70 0 109 46t39 137q0 67 -21 109l-202 -276q31 -16 75 -16zM177 153l200 273q-28 16 -71 16
q-70 0 -108.5 -46t-38.5 -137q0 -65 18 -106z" />
    <glyph glyph-name="ugrave" unicode="&#xf9;" 
d="M262 -12q-84 0 -133.5 50t-49.5 147v341h108v-317q0 -129 110 -129q64 0 92.5 37.5t28.5 116.5v292h108v-433q0 -13 0.5 -41t0.5 -52h-105v76q-59 -88 -160 -88zM278 601l-121 129h144l83 -129h-106z" />
    <glyph glyph-name="uacute" unicode="&#xfa;" 
d="M262 -12q-84 0 -133.5 50t-49.5 147v341h108v-317q0 -129 110 -129q64 0 92.5 37.5t28.5 116.5v292h108v-433q0 -13 0.5 -41t0.5 -52h-105v76q-59 -88 -160 -88zM232 601l83 129h144l-121 -129h-106z" />
    <glyph glyph-name="ucircumflex" unicode="&#xfb;" 
d="M262 -12q-84 0 -133.5 50t-49.5 147v341h108v-317q0 -129 110 -129q64 0 92.5 37.5t28.5 116.5v292h108v-433q0 -13 0.5 -41t0.5 -52h-105v76q-59 -88 -160 -88zM135 601l102 129h136l102 -129h-102l-68 71l-68 -71h-102z" />
    <glyph glyph-name="udieresis" unicode="&#xfc;" 
d="M261 -12q-84 0 -133.5 50t-49.5 147v341h108v-317q0 -129 110 -129q64 0 92.5 37.5t28.5 116.5v292h108v-433q0 -13 0.5 -41t0.5 -52h-105v76q-59 -88 -160 -88zM351 610v111h108v-111h-108zM154 610v111h107v-111h-107z" />
    <glyph glyph-name="yacute" unicode="&#xfd;" 
d="M133 -194q-6 0 -18.5 0.5t-19.5 0.5l-3 89q13 -1 36 -1q36 0 51 6q26 8 42 32t31 72l-206 521h122l68 -191q22 -61 71 -212h4q41 130 72 218l65 185h118l-233 -593q-30 -76 -70.5 -101.5t-129.5 -25.5zM235 601l83 129h144l-121 -129h-106z" />
    <glyph glyph-name="thorn" unicode="&#xfe;" 
d="M58 -188v918h108v-143q0 -12 -0.5 -53.5t-0.5 -84.5h3q50 85 168 85q101 0 164.5 -73t63.5 -199t-63 -199.5t-165 -73.5q-115 0 -168 85h-3q1 -36 1 -103v-159h-108zM309 81q65 0 104 49.5t39 128.5q0 81 -39 130t-105 49q-65 0 -105 -49t-40 -128q0 -81 40 -130.5
t106 -49.5z" />
    <glyph glyph-name="ydieresis" unicode="&#xff;" 
d="M133 -194q-6 0 -18.5 0.5t-19.5 0.5l-3 89q13 -1 36 -1q36 0 51 6q26 8 42 32t31 72l-206 521h122l68 -191q22 -61 71 -212h4q41 130 72 218l65 185h118l-233 -593q-30 -76 -70.5 -101.5t-129.5 -25.5zM356 610v111h108v-111h-108zM159 610v111h107v-111h-107z" />
    <glyph glyph-name="Amacron" unicode="&#x100;" 
d="M18 0l220 685h137l219 -685h-114l-59 184h-233l-60 -184h-110zM212 279h182l-41 135q-23 71 -47 167h-5q-30 -115 -47 -167zM170 803v83h267v-83h-267z" />
    <glyph glyph-name="amacron" unicode="&#x101;" 
d="M246 -9q-85 0 -137 41t-52 113q0 33 11 58t28 41.5t48 29.5t60.5 21t76.5 17l73 14q4 1 11.5 2.5l10 2t8 1.5t7 2t5 2.5t4.5 3t3 4t2.5 6l1 7t0.5 8.5q0 39 -28.5 61.5t-78.5 22.5q-106 0 -118 -95l-107 8q8 79 68.5 126t156.5 47q216 0 216 -198v-314q0 -19 1 -23h-99
v21q0 30 1 39h-3q-56 -69 -170 -69zM273 69q65 0 100.5 37t35.5 103v13q0 22 3 32q-7 -2 -49 -11l-76 -15q-66 -13 -90.5 -28t-24.5 -53t26.5 -58t74.5 -20zM174 629v83h267v-83h-267z" />
    <glyph glyph-name="Abreve" unicode="&#x102;" 
d="M18 0l220 685h137l219 -685h-114l-59 184h-233l-60 -184h-110zM212 279h182l-41 135q-23 71 -47 167h-5q-30 -115 -47 -167zM304 772q-128 0 -161 118l71 19q24 -58 90 -58t90 58l71 -19q-33 -118 -161 -118z" />
    <glyph glyph-name="abreve" unicode="&#x103;" 
d="M246 -9q-85 0 -137 41t-52 113q0 33 11 58t28 41.5t48 29.5t60.5 21t76.5 17l73 14q4 1 11.5 2.5l10 2t8 1.5t7 2t5 2.5t4.5 3t3 4t2.5 6l1 7t0.5 8.5q0 39 -28.5 61.5t-78.5 22.5q-106 0 -118 -95l-107 8q8 79 68.5 126t156.5 47q216 0 216 -198v-314q0 -19 1 -23h-99
v21q0 30 1 39h-3q-56 -69 -170 -69zM273 69q65 0 100.5 37t35.5 103v13q0 22 3 32q-7 -2 -49 -11l-76 -15q-66 -13 -90.5 -28t-24.5 -53t26.5 -58t74.5 -20zM307 600q-128 0 -161 118l71 19q24 -58 90 -58t90 58l71 -19q-33 -118 -161 -118z" />
    <glyph glyph-name="Aogonek" unicode="&#x104;" 
d="M541 -192q-56 0 -86.5 23.5t-30.5 63.5q0 53 71 105h-15l-59 184h-233l-60 -184h-110l220 685h137l219 -685q-82 -48 -82 -86q0 -36 40 -36q23 0 40 11l37 -59q-32 -22 -88 -22zM212 279h182l-41 135q-23 71 -47 167h-5q-30 -115 -47 -167z" />
    <glyph glyph-name="aogonek" unicode="&#x105;" 
d="M464 -192q-56 0 -86.5 23.5t-30.5 63.5q0 53 71 105v21q0 30 1 39h-3q-56 -69 -170 -69q-85 0 -137 41t-52 113q0 33 11 58t28 41.5t48 29.5t60.5 21t76.5 17l73 14q4 1 11.5 2.5l10 2t8 1.5t7 2t5 2.5t4.5 3t3 4t2.5 6l1 7t0.5 8.5q0 39 -28.5 61.5t-78.5 22.5
q-106 0 -118 -95l-107 8q8 79 68.5 126t156.5 47q216 0 216 -198v-314q0 -19 1 -23q-82 -48 -82 -86q0 -36 40 -36q23 0 40 11l37 -59q-32 -22 -88 -22zM273 69q65 0 100.5 37t35.5 103v13q0 22 3 32q-7 -2 -49 -11l-76 -15q-66 -13 -90.5 -28t-24.5 -53t26.5 -58t74.5 -20z
" />
    <glyph glyph-name="Cacute" unicode="&#x106;" 
d="M327 -13q-138 0 -209 92t-71 264q0 170 71.5 263t207.5 93q94 0 158.5 -52t86.5 -138l-104 -25q-37 119 -145 119q-164 0 -164 -260q0 -132 40 -197t130 -65q102 0 141 122l102 -25q-23 -88 -84.5 -139.5t-159.5 -51.5zM252 773l83 129h144l-121 -129h-106z" />
    <glyph glyph-name="cacute" unicode="&#x107;" 
d="M319 -14q-114 0 -184 75t-70 198t71 199.5t188 76.5q87 0 146 -44.5t77 -119.5l-106 -25q-12 43 -43.5 68t-75.5 25q-68 0 -105 -48.5t-37 -131.5q0 -82 37 -130t105 -48q46 0 78 25t43 69l103 -24q-18 -74 -81 -119.5t-146 -45.5zM248 601l83 129h144l-121 -129h-106z
" />
    <glyph glyph-name="Ccircumflex" unicode="&#x108;" 
d="M327 -13q-138 0 -209 92t-71 264q0 170 71.5 263t207.5 93q94 0 158.5 -52t86.5 -138l-104 -25q-37 119 -145 119q-164 0 -164 -260q0 -132 40 -197t130 -65q102 0 141 122l102 -25q-23 -88 -84.5 -139.5t-159.5 -51.5zM151 773l102 129h136l102 -129h-102l-68 71
l-68 -71h-102z" />
    <glyph glyph-name="ccircumflex" unicode="&#x109;" 
d="M319 -14q-114 0 -184 75t-70 198t71 199.5t188 76.5q87 0 146 -44.5t77 -119.5l-106 -25q-12 43 -43.5 68t-75.5 25q-68 0 -105 -48.5t-37 -131.5q0 -82 37 -130t105 -48q46 0 78 25t43 69l103 -24q-18 -74 -81 -119.5t-146 -45.5zM154 601l102 129h136l102 -129h-102
l-68 71l-68 -71h-102z" />
    <glyph glyph-name="Cdotaccent" unicode="&#x10a;" 
d="M327 -13q-138 0 -209 92t-71 264q0 170 71.5 263t207.5 93q94 0 158.5 -52t86.5 -138l-104 -25q-37 119 -145 119q-164 0 -164 -260q0 -132 40 -197t130 -65q102 0 141 122l102 -25q-23 -88 -84.5 -139.5t-159.5 -51.5zM267 782v111h111v-111h-111z" />
    <glyph glyph-name="cdotaccent" unicode="&#x10b;" 
d="M319 -14q-114 0 -184 75t-70 198t71 199.5t188 76.5q87 0 146 -44.5t77 -119.5l-106 -25q-12 43 -43.5 68t-75.5 25q-68 0 -105 -48.5t-37 -131.5q0 -82 37 -130t105 -48q46 0 78 25t43 69l103 -24q-18 -74 -81 -119.5t-146 -45.5zM268 610v111h111v-111h-111z" />
    <glyph glyph-name="Ccaron" unicode="&#x10c;" 
d="M327 -13q-138 0 -209 92t-71 264q0 170 71.5 263t207.5 93q94 0 158.5 -52t86.5 -138l-104 -25q-37 119 -145 119q-164 0 -164 -260q0 -132 40 -197t130 -65q102 0 141 122l102 -25q-23 -88 -84.5 -139.5t-159.5 -51.5zM255 773l-102 129h102l68 -71l68 71h102l-102 -129
h-136z" />
    <glyph glyph-name="ccaron" unicode="&#x10d;" 
d="M319 -14q-114 0 -184 75t-70 198t71 199.5t188 76.5q87 0 146 -44.5t77 -119.5l-106 -25q-12 43 -43.5 68t-75.5 25q-68 0 -105 -48.5t-37 -131.5q0 -82 37 -130t105 -48q46 0 78 25t43 69l103 -24q-18 -74 -81 -119.5t-146 -45.5zM253 601l-102 129h102l68 -71l68 71
h102l-102 -129h-136z" />
    <glyph glyph-name="Dcaron" unicode="&#x10e;" 
d="M66 0v685h216q150 0 220.5 -84.5t70.5 -254.5q0 -163 -72 -254.5t-215 -91.5h-220zM178 94h94q93 0 140 56.5t47 189.5q0 139 -49.5 195.5t-172.5 56.5h-59v-498zM211 773l-102 129h102l68 -71l68 71h102l-102 -129h-136z" />
    <glyph glyph-name="dcaron" unicode="&#x10f;" 
d="M207 -12q-99 0 -146 71.5t-47 199.5q0 126 49 200.5t147 74.5q95 0 138 -81q-1 27 -1 76v201h108v-653q0 -62 1 -77h-105v26q0 30 1 47q-47 -85 -145 -85zM230 81q120 0 120 180q0 84 -30 130.5t-89 46.5q-56 0 -85.5 -47.5t-29.5 -130.5q0 -179 114 -179zM474 561
l33 169h118l-61 -169h-90z" />
    <glyph glyph-name="Dcroat" unicode="&#x110;" 
d="M11 306v85h55v294h216q150 0 220.5 -84.5t70.5 -254.5q0 -163 -72 -254.5t-215 -91.5h-220v306h-55zM178 94h94q93 0 140 56.5t47 189.5q0 139 -49.5 195.5t-172.5 56.5h-59v-201h142v-85h-142v-212z" />
    <glyph glyph-name="dslash" unicode="&#x111;" 
d="M279 -12q-102 0 -167.5 74.5t-65.5 196.5q0 120 65.5 197.5t167.5 77.5q111 0 167 -81q-1 27 -1 76v46h-141v82h141v73h108v-73h59v-82h-59v-498q0 -62 1 -77h-104v26q0 30 1 47q-59 -85 -172 -85zM300 81q67 0 107.5 50.5t40.5 129.5t-40.5 128t-106.5 49
q-65 0 -103.5 -49.5t-38.5 -128.5q0 -80 38.5 -129.5t102.5 -49.5z" />
    <glyph glyph-name="Emacron" unicode="&#x112;" 
d="M97 0v685h427v-96h-318v-191h298v-96h-298v-206h321v-96h-430zM173 803v83h267v-83h-267z" />
    <glyph glyph-name="emacron" unicode="&#x113;" 
d="M315 -13q-121 0 -191.5 74t-70.5 198q0 120 71 198t188 78q123 0 185 -84t62 -220h-396q4 -68 47 -109t107 -41q95 0 148 81l90 -41q-32 -60 -93 -97t-147 -37zM163 314h285q-7 56 -41.5 94t-96.5 38q-59 0 -99 -37t-48 -95zM176 629v83h267v-83h-267z" />
    <glyph glyph-name="Ebreve" unicode="&#x114;" 
d="M97 0v685h427v-96h-318v-191h298v-96h-298v-206h321v-96h-430zM306 772q-128 0 -161 118l71 19q24 -58 90 -58t90 58l71 -19q-33 -118 -161 -118z" />
    <glyph glyph-name="ebreve" unicode="&#x115;" 
d="M315 -13q-121 0 -191.5 74t-70.5 198q0 120 71 198t188 78q123 0 185 -84t62 -220h-396q4 -68 47 -109t107 -41q95 0 148 81l90 -41q-32 -60 -93 -97t-147 -37zM163 314h285q-7 56 -41.5 94t-96.5 38q-59 0 -99 -37t-48 -95zM314 600q-128 0 -161 118l71 19
q24 -58 90 -58t90 58l71 -19q-33 -118 -161 -118z" />
    <glyph glyph-name="Edotaccent" unicode="&#x116;" 
d="M97 0v685h427v-96h-318v-191h298v-96h-298v-206h321v-96h-430zM253 782v111h111v-111h-111z" />
    <glyph glyph-name="edotaccent" unicode="&#x117;" 
d="M315 -13q-121 0 -191.5 74t-70.5 198q0 120 71 198t188 78q123 0 185 -84t62 -220h-396q4 -68 47 -109t107 -41q95 0 148 81l90 -41q-32 -60 -93 -97t-147 -37zM163 314h285q-7 56 -41.5 94t-96.5 38q-59 0 -99 -37t-48 -95zM255 610v111h111v-111h-111z" />
    <glyph glyph-name="Eogonek" unicode="&#x118;" 
d="M97 0v685h427v-96h-318v-191h298v-96h-298v-206h321v-96q-82 -48 -82 -86q0 -36 40 -36q23 0 40 11l37 -59q-32 -22 -88 -22t-86.5 23.5t-30.5 63.5q0 53 71 105h-331z" />
    <glyph glyph-name="eogonek" unicode="&#x119;" 
d="M352 -192q-56 0 -86.5 23.5t-30.5 63.5q0 51 54 93q-111 8 -173.5 80.5t-62.5 190.5q0 120 71 198t188 78q123 0 185 -84t62 -220h-396q4 -68 47 -109t107 -41q95 0 148 81l90 -41q-48 -91 -151 -121q-81 -47 -81 -86q0 -36 40 -36q23 0 40 11l37 -59q-32 -22 -88 -22z
M163 314h285q-7 56 -41.5 94t-96.5 38q-59 0 -99 -37t-48 -95z" />
    <glyph glyph-name="Ecaron" unicode="&#x11a;" 
d="M97 0v685h427v-96h-318v-191h298v-96h-298v-206h321v-96h-430zM238 773l-102 129h102l68 -71l68 71h102l-102 -129h-136z" />
    <glyph glyph-name="ecaron" unicode="&#x11b;" 
d="M315 -13q-121 0 -191.5 74t-70.5 198q0 120 71 198t188 78q123 0 185 -84t62 -220h-396q4 -68 47 -109t107 -41q95 0 148 81l90 -41q-32 -60 -93 -97t-147 -37zM163 314h285q-7 56 -41.5 94t-96.5 38q-59 0 -99 -37t-48 -95zM242 601l-102 129h102l68 -71l68 71h102
l-102 -129h-136z" />
    <glyph glyph-name="Gcircumflex" unicode="&#x11c;" 
d="M308 -13q-129 0 -198 94t-69 258q0 179 71.5 269.5t208.5 90.5q98 0 160 -52t84 -136l-101 -25q-43 117 -143 117q-169 0 -169 -261q0 -264 173 -264q77 0 110.5 48.5t37.5 151.5h-195v93h288v-371h-94v65h-3q-19 -33 -60.5 -55.5t-100.5 -22.5zM158 773l102 129h136
l102 -129h-102l-68 71l-68 -71h-102z" />
    <glyph glyph-name="gcircumflex" unicode="&#x11d;" 
d="M297 -197q-89 0 -151.5 37.5t-86.5 101.5l98 37q37 -83 143 -83q135 0 142 145q0 2 0.5 23t2.5 35h-3q-53 -87 -166 -87q-100 0 -164.5 73t-64.5 187q0 117 66.5 189.5t166.5 72.5q113 0 163 -83h3q-2 10 -2 45v30h104q-1 -36 -1 -97v-384q0 -116 -68.5 -179t-181.5 -63z
M300 106q64 0 104 47t40 121q0 72 -39 119t-105 47q-63 0 -101.5 -47t-38.5 -120q0 -74 38.5 -120.5t101.5 -46.5zM135 601l102 129h136l102 -129h-102l-68 71l-68 -71h-102z" />
    <glyph glyph-name="Gbreve" unicode="&#x11e;" 
d="M308 -13q-129 0 -198 94t-69 258q0 179 71.5 269.5t208.5 90.5q98 0 160 -52t84 -136l-101 -25q-43 117 -143 117q-169 0 -169 -261q0 -264 173 -264q77 0 110.5 48.5t37.5 151.5h-195v93h288v-371h-94v65h-3q-19 -33 -60.5 -55.5t-100.5 -22.5zM326 772q-128 0 -161 118
l71 19q24 -58 90 -58t90 58l71 -19q-33 -118 -161 -118z" />
    <glyph glyph-name="gbreve" unicode="&#x11f;" 
d="M297 -197q-89 0 -151.5 37.5t-86.5 101.5l98 37q37 -83 143 -83q135 0 142 145q0 2 0.5 23t2.5 35h-3q-53 -87 -166 -87q-100 0 -164.5 73t-64.5 187q0 117 66.5 189.5t166.5 72.5q113 0 163 -83h3q-2 10 -2 45v30h104q-1 -36 -1 -97v-384q0 -116 -68.5 -179t-181.5 -63z
M300 106q64 0 104 47t40 121q0 72 -39 119t-105 47q-63 0 -101.5 -47t-38.5 -120q0 -74 38.5 -120.5t101.5 -46.5zM305 600q-128 0 -161 118l71 19q24 -58 90 -58t90 58l71 -19q-33 -118 -161 -118z" />
    <glyph glyph-name="Gdotaccent" unicode="&#x120;" 
d="M308 -13q-129 0 -198 94t-69 258q0 179 71.5 269.5t208.5 90.5q98 0 160 -52t84 -136l-101 -25q-43 117 -143 117q-169 0 -169 -261q0 -264 173 -264q77 0 110.5 48.5t37.5 151.5h-195v93h288v-371h-94v65h-3q-19 -33 -60.5 -55.5t-100.5 -22.5zM272 782v111h111v-111
h-111z" />
    <glyph glyph-name="gdotaccent" unicode="&#x121;" 
d="M297 -197q-89 0 -151.5 37.5t-86.5 101.5l98 37q37 -83 143 -83q135 0 142 145q0 2 0.5 23t2.5 35h-3q-53 -87 -166 -87q-100 0 -164.5 73t-64.5 187q0 117 66.5 189.5t166.5 72.5q113 0 163 -83h3q-2 10 -2 45v30h104q-1 -36 -1 -97v-384q0 -116 -68.5 -179t-181.5 -63z
M300 106q64 0 104 47t40 121q0 72 -39 119t-105 47q-63 0 -101.5 -47t-38.5 -120q0 -74 38.5 -120.5t101.5 -46.5zM253 610v111h111v-111h-111z" />
    <glyph glyph-name="uni0122" unicode="&#x122;" 
d="M308 -13q-129 0 -198 94t-69 258q0 179 71.5 269.5t208.5 90.5q98 0 160 -52t84 -136l-101 -25q-43 117 -143 117q-169 0 -169 -261q0 -264 173 -264q77 0 110.5 48.5t37.5 151.5h-195v93h288v-371h-94v65h-3q-19 -33 -60.5 -55.5t-100.5 -22.5zM256 -213v44
q26 1 37.5 6.5t11.5 24.5v3h-49v87h110v-73q0 -47 -22.5 -69.5t-87.5 -22.5z" />
    <glyph glyph-name="uni0123" unicode="&#x123;" 
d="M297 -197q-89 0 -151.5 37.5t-86.5 101.5l98 37q37 -83 143 -83q135 0 142 145q0 2 0.5 23t2.5 35h-3q-53 -87 -166 -87q-100 0 -164.5 73t-64.5 187q0 117 66.5 189.5t166.5 72.5q113 0 163 -83h3q-2 10 -2 45v30h104q-1 -36 -1 -97v-384q0 -116 -68.5 -179t-181.5 -63z
M300 106q64 0 104 47t40 121q0 72 -39 119t-105 47q-63 0 -101.5 -47t-38.5 -120q0 -74 38.5 -120.5t101.5 -46.5zM244 602v73q0 47 22.5 69.5t87.5 22.5v-44q-26 -1 -37.5 -6.5t-11.5 -24.5v-3h49v-87h-110z" />
    <glyph glyph-name="Hcircumflex" unicode="&#x124;" 
d="M66 0v685h110v-284h260v284h110v-685h-110v305h-260v-305h-110zM137 773l102 129h136l102 -129h-102l-68 71l-68 -71h-102z" />
    <glyph glyph-name="hcircumflex" unicode="&#x125;" 
d="M83 0v730h108v-200q0 -48 -1 -80h1q55 85 155 85q84 0 135 -53.5t51 -155.5v-326h-108v245q0 103 -22 149t-86 46q-65 0 -95 -46.5t-30 -143.5v-250h-108zM154 773l102 129h136l102 -129h-102l-68 71l-68 -71h-102z" />
    <glyph glyph-name="Hbar" unicode="&#x126;" 
d="M53 0v685h111v-89h283v89h111v-685h-111v305h-283v-305h-111zM164 401h283v115h-283v-115z" />
    <glyph glyph-name="hbar" unicode="&#x127;" 
d="M83 0v575h-66v82h66v73h108v-73h141v-82h-141v-41q0 -46 -1 -78h1q58 79 155 79q84 0 135 -53.5t51 -155.5v-326h-108v245q0 103 -22 149t-86 46q-65 0 -95 -46.5t-30 -143.5v-250h-108z" />
    <glyph glyph-name="Itilde" unicode="&#x128;" 
d="M89 0v86h161v513h-161v86h434v-86h-163v-513h163v-86h-434zM201 778l-66 13q22 109 103 109q26 0 61 -14l24 -10q38 -16 47 -16q28 0 41 42l66 -14q-21 -108 -103 -108q-26 0 -61 14l-24 10q-38 16 -47 16q-28 0 -41 -42z" />
    <glyph glyph-name="itilde" unicode="&#x129;" 
d="M88 0v89h183v348h-183v89h291v-437h167v-89h-458zM213 606l-66 13q22 109 103 109q26 0 61 -14l24 -10q40 -16 47 -16q28 0 41 42l66 -14q-21 -108 -103 -108q-26 0 -61 14l-24 10q-38 16 -47 16q-28 0 -41 -42z" />
    <glyph glyph-name="Imacron" unicode="&#x12a;" 
d="M89 0v86h161v513h-161v86h434v-86h-163v-513h163v-86h-434zM173 803v83h267v-83h-267z" />
    <glyph glyph-name="imacron" unicode="&#x12b;" 
d="M88 0v89h183v348h-183v89h291v-437h167v-89h-458zM196 629v83h267v-83h-267z" />
    <glyph glyph-name="Ibreve" unicode="&#x12c;" 
d="M89 0v86h161v513h-161v86h434v-86h-163v-513h163v-86h-434zM306 772q-128 0 -161 118l71 19q24 -58 90 -58t90 58l71 -19q-33 -118 -161 -118z" />
    <glyph glyph-name="ibreve" unicode="&#x12d;" 
d="M88 0v89h183v348h-183v89h291v-437h167v-89h-458zM324 600q-128 0 -161 118l71 19q24 -58 90 -58t90 58l71 -19q-33 -118 -161 -118z" />
    <glyph glyph-name="Iogonek" unicode="&#x12e;" 
d="M89 0v86h161v513h-161v86h434v-86h-163v-513h163v-86h-166q-82 -48 -82 -86q0 -36 40 -36q23 0 40 11l37 -59q-32 -22 -88 -22t-86.5 23.5t-30.5 63.5q0 53 71 105h-169z" />
    <glyph glyph-name="iogonek" unicode="&#x12f;" 
d="M88 0v89h183v348h-183v89h291v-437h167v-89h-168q-82 -48 -82 -86q0 -36 40 -36q23 0 40 11l37 -59q-32 -22 -88 -22t-86.5 23.5t-30.5 63.5q0 53 71 105h-191zM256 621v109h127v-109h-127z" />
    <glyph glyph-name="Idot" unicode="&#x130;" 
d="M89 0v86h161v513h-161v86h434v-86h-163v-513h163v-86h-434zM251 782v111h111v-111h-111z" />
    <glyph glyph-name="dotlessi" unicode="&#x131;" 
d="M88 0v89h183v348h-183v89h291v-437h167v-89h-458z" />
    <glyph glyph-name="IJ" unicode="&#x132;" 
d="M254 0v97h116q48 0 57 14t9 75v499h110v-526q0 -92 -36 -125.5t-133 -33.5h-123zM66 0v685h110v-685h-110z" />
    <glyph glyph-name="ij" unicode="&#x133;" 
d="M289 -188v90h63q48 0 57 14t9 75v445h-135v90h243v-555q0 -92 -36 -125.5t-133 -33.5h-68zM88 0v526h108v-526h-108zM81 624v106h123v-106h-123zM404 623v107h126v-107h-126z" />
    <glyph glyph-name="Jcircumflex" unicode="&#x134;" 
d="M284 -13q-87 0 -140 44.5t-65 125.5l104 17q14 -94 97 -94q92 0 92 128v477h110v-500q0 -92 -54.5 -145t-143.5 -53zM258 773l102 129h136l102 -129h-102l-68 71l-68 -71h-102z" />
    <glyph glyph-name="jcircumflex" unicode="&#x135;" 
d="M104 -188v90h173q48 0 57 14t9 75v445h-245v90h353v-555q0 -92 -36 -125.5t-133 -33.5h-178zM212 601l102 129h136l102 -129h-102l-68 71l-68 -71h-102z" />
    <glyph glyph-name="uni0136" unicode="&#x136;" 
d="M91 0v685h109v-164q0 -105 -1 -157h2q22 27 68.5 86t62.5 79l125 156h130l-246 -297l257 -388h-130l-204 307l-64 -80v-227h-109zM268 -213v44q26 1 37.5 6.5t11.5 24.5v3h-49v87h110v-73q0 -47 -22.5 -69.5t-87.5 -22.5z" />
    <glyph glyph-name="uni0137" unicode="&#x137;" 
d="M106 0v730h108v-295q0 -20 -0.5 -66t-0.5 -78h2q17 18 41.5 45t42.5 47l138 143h137l-221 -223l237 -303h-140l-175 235l-61 -61v-174h-108zM272 -213v44q26 1 37.5 6.5t11.5 24.5v3h-49v87h110v-73q0 -47 -22.5 -69.5t-87.5 -22.5z" />
    <glyph glyph-name="kgreenlandic" unicode="&#x138;" 
d="M106 0v527h108v-112q0 -21 -0.5 -57t-0.5 -67h2q17 18 41.5 45t42.5 47l138 143h137l-221 -223l237 -303h-140l-175 235l-61 -61v-174h-108z" />
    <glyph glyph-name="Lacute" unicode="&#x139;" 
d="M102 0v685h110v-588h302v-97h-412zM108 773l83 129h144l-121 -129h-106z" />
    <glyph glyph-name="lacute" unicode="&#x13a;" 
d="M77 0v89h181v552h-181v89h290v-641h168v-89h-458zM233 773l83 129h144l-121 -129h-106z" />
    <glyph glyph-name="uni013B" unicode="&#x13b;" 
d="M102 0v685h110v-588h302v-97h-412zM260 -213v44q26 1 37.5 6.5t11.5 24.5v3h-49v87h110v-73q0 -47 -22.5 -69.5t-87.5 -22.5z" />
    <glyph glyph-name="uni013C" unicode="&#x13c;" 
d="M77 0v89h181v552h-181v89h290v-641h168v-89h-458zM257 -213v44q26 1 37.5 6.5t11.5 24.5v3h-49v87h110v-73q0 -47 -22.5 -69.5t-87.5 -22.5z" />
    <glyph glyph-name="Lcaron" unicode="&#x13d;" 
d="M102 0v685h110v-588h302v-97h-412zM293 517l33 169h118l-61 -169h-90z" />
    <glyph glyph-name="lcaron" unicode="&#x13e;" 
d="M77 0v89h181v552h-181v89h290v-641h168v-89h-458zM413 561l33 169h118l-61 -169h-90z" />
    <glyph glyph-name="Ldot" unicode="&#x13f;" 
d="M102 0v685h110v-588h302v-97h-412zM404 316v111h111v-111h-111z" />
    <glyph glyph-name="ldot" unicode="&#x140;" 
d="M77 0v89h181v552h-181v89h290v-641h168v-89h-458zM501 318v111h111v-111h-111z" />
    <glyph glyph-name="Lslash" unicode="&#x141;" 
d="M94 0v272l-71 -32v90l71 32v323h111v-277l171 78v-90l-171 -78v-221h313v-97h-424z" />
    <glyph glyph-name="lslash" unicode="&#x142;" 
d="M77 0v90h181v209l-100 -44v88l100 43v254h-181v90h290v-301l106 46v-87l-106 -47v-251h168v-90h-458z" />
    <glyph glyph-name="Nacute" unicode="&#x143;" 
d="M59 0v685h139l177 -371q17 -34 40.5 -92t31.5 -75h5q-2 104 -2 167v371h103v-685h-138l-192 411q-19 40 -62 145h-4q0 -24 2.5 -90.5t2.5 -95.5v-370h-103zM236 773l83 129h144l-121 -129h-106z" />
    <glyph glyph-name="nacute" unicode="&#x144;" 
d="M82 0v416q0 12 -0.5 54t-0.5 56h103v-30q0 -27 -1 -55h2q19 41 62.5 67.5t100.5 26.5q83 0 133 -53.5t50 -155.5v-326h-108v247q0 103 -22 149t-86 46q-65 0 -95 -46.5t-30 -143.5v-252h-108zM236 601l83 129h144l-121 -129h-106z" />
    <glyph glyph-name="uni0145" unicode="&#x145;" 
d="M59 0v685h139l177 -371q17 -34 40.5 -92t31.5 -75h5q-2 104 -2 167v371h103v-685h-138l-192 411q-19 40 -62 145h-4q0 -24 2.5 -90.5t2.5 -95.5v-370h-103zM240 -213v44q26 1 37.5 6.5t11.5 24.5v3h-49v87h110v-73q0 -47 -22.5 -69.5t-87.5 -22.5z" />
    <glyph glyph-name="uni0146" unicode="&#x146;" 
d="M82 0v416q0 12 -0.5 54t-0.5 56h103v-30q0 -27 -1 -55h2q19 41 62.5 67.5t100.5 26.5q83 0 133 -53.5t50 -155.5v-326h-108v247q0 103 -22 149t-86 46q-65 0 -95 -46.5t-30 -143.5v-252h-108zM256 -213v44q26 1 37.5 6.5t11.5 24.5v3h-49v87h110v-73q0 -47 -22.5 -69.5
t-87.5 -22.5z" />
    <glyph glyph-name="Ncaron" unicode="&#x147;" 
d="M59 0v685h139l177 -371q17 -34 40.5 -92t31.5 -75h5q-2 104 -2 167v371h103v-685h-138l-192 411q-19 40 -62 145h-4q0 -24 2.5 -90.5t2.5 -95.5v-370h-103zM238 773l-102 129h102l68 -71l68 71h102l-102 -129h-136z" />
    <glyph glyph-name="ncaron" unicode="&#x148;" 
d="M82 0v416q0 12 -0.5 54t-0.5 56h103v-30q0 -27 -1 -55h2q19 41 62.5 67.5t100.5 26.5q83 0 133 -53.5t50 -155.5v-326h-108v247q0 103 -22 149t-86 46q-65 0 -95 -46.5t-30 -143.5v-252h-108zM251 601l-102 129h102l68 -71l68 71h102l-102 -129h-136z" />
    <glyph glyph-name="napostrophe" unicode="&#x149;" 
d="M82 0v416q0 12 -0.5 54t-0.5 56h103v-30q0 -27 -1 -55h2q19 41 62.5 67.5t100.5 26.5q83 0 133 -53.5t50 -155.5v-326h-108v247q0 103 -22 149t-86 46q-65 0 -95 -46.5t-30 -143.5v-252h-108zM61 565v44q26 1 37.5 6.5t11.5 24.5v3h-49v87h110v-73q0 -47 -22.5 -69.5
t-87.5 -22.5z" />
    <glyph glyph-name="Eng" unicode="&#x14a;" 
d="M384 -198q-164 0 -178 155l102 15q7 -77 76 -77q74 0 79 105h-38l-206 415q-8 16 -22 43t-25 49.5t-20 43.5h-4q0 -25 1 -86.5t1 -90.5v-374h-104v685h142l191 -376q47 -89 81 -165h5q-3 156 -3 165v376h104v-688q0 -93 -47 -144t-135 -51z" />
    <glyph glyph-name="eng" unicode="&#x14b;" 
d="M245 -188v90h112q48 0 57 14t9 75v254q0 103 -22 149t-86 46q-65 0 -95 -46.5t-30 -143.5v-250h-108v416q0 12 -0.5 54t-0.5 56h104v-18q0 -27 -1 -55h1q51 82 160 82q84 0 135 -53.5t51 -155.5v-355q0 -92 -36 -125.5t-133 -33.5h-117z" />
    <glyph glyph-name="Omacron" unicode="&#x14c;" 
d="M305 -13q-133 0 -201.5 92.5t-68.5 261.5q0 170 69 264t201 94t202 -94t70 -263t-70 -262t-202 -93zM305 80q83 0 121.5 64.5t38.5 196.5q0 262 -160 262q-82 0 -120.5 -65.5t-38.5 -196.5q0 -132 38 -196.5t121 -64.5zM175 803v83h267v-83h-267z" />
    <glyph glyph-name="omacron" unicode="&#x14d;" 
d="M305 -16q-118 0 -189.5 75t-71.5 200q0 124 71.5 200t190.5 76q117 0 189 -76t72 -200t-72.5 -199.5t-189.5 -75.5zM305 76q70 0 109 46t39 137t-38.5 137t-108.5 46t-108.5 -46t-38.5 -137q0 -92 38 -137.5t108 -45.5zM175 629v83h267v-83h-267z" />
    <glyph glyph-name="Obreve" unicode="&#x14e;" 
d="M305 -13q-133 0 -201.5 92.5t-68.5 261.5q0 170 69 264t201 94t202 -94t70 -263t-70 -262t-202 -93zM305 80q83 0 121.5 64.5t38.5 196.5q0 262 -160 262q-82 0 -120.5 -65.5t-38.5 -196.5q0 -132 38 -196.5t121 -64.5zM308 772q-128 0 -161 118l71 19q24 -58 90 -58
t90 58l71 -19q-33 -118 -161 -118z" />
    <glyph glyph-name="obreve" unicode="&#x14f;" 
d="M305 -16q-118 0 -189.5 75t-71.5 200q0 124 71.5 200t190.5 76q117 0 189 -76t72 -200t-72.5 -199.5t-189.5 -75.5zM305 76q70 0 109 46t39 137t-38.5 137t-108.5 46t-108.5 -46t-38.5 -137q0 -92 38 -137.5t108 -45.5zM309 600q-128 0 -161 118l71 19q24 -58 90 -58
t90 58l71 -19q-33 -118 -161 -118z" />
    <glyph glyph-name="Ohungarumlaut" unicode="&#x150;" 
d="M305 -13q-133 0 -201.5 92.5t-68.5 261.5q0 170 69 264t201 94t202 -94t70 -263t-70 -262t-202 -93zM305 80q83 0 121.5 64.5t38.5 196.5q0 262 -160 262q-82 0 -120.5 -65.5t-38.5 -196.5q0 -132 38 -196.5t121 -64.5zM336 773l85 129h134l-123 -129h-96zM149 773
l82 129h134l-120 -129h-96z" />
    <glyph glyph-name="ohungarumlaut" unicode="&#x151;" 
d="M305 -16q-118 0 -189.5 75t-71.5 200q0 124 71.5 200t190.5 76q117 0 189 -76t72 -200t-72.5 -199.5t-189.5 -75.5zM305 76q70 0 109 46t39 137t-38.5 137t-108.5 46t-108.5 -46t-38.5 -137q0 -92 38 -137.5t108 -45.5zM331 601l85 129h134l-123 -129h-96zM144 601
l82 129h134l-120 -129h-96z" />
    <glyph glyph-name="OE" unicode="&#x152;" 
d="M230 -1q-193 0 -193 345q0 164 48 253t145 89q46 0 83 -22v21h272v-95h-171v-192h150v-95h-150v-208h174v-95h-275v21q-37 -22 -83 -22zM251 88q41 0 58 28v453q-17 28 -58 28q-55 0 -78.5 -60.5t-23.5 -192.5q0 -133 23.5 -194.5t78.5 -61.5z" />
    <glyph glyph-name="oe" unicode="&#x153;" 
d="M188 -10q-181 0 -181 269q0 275 182 275q75 0 122 -62q47 62 124 62q91 0 130.5 -66t39.5 -194v-43h-252q2 -75 22 -112.5t63 -37.5q33 0 50 19t28 51l91 -27q-19 -61 -63 -97.5t-106 -36.5q-85 0 -126 60q-48 -60 -124 -60zM188 79q79 0 79 180q0 182 -78 182
q-82 0 -82 -182q0 -180 81 -180zM353 314h155q-2 69 -18 100t-56 31q-72 0 -81 -131z" />
    <glyph glyph-name="Racute" unicode="&#x154;" 
d="M66 0v685h243q114 0 169 -48t55 -136q0 -131 -113 -173q39 -18 61 -53.5t30 -100.5l7 -57q11 -89 28 -110v-7h-116q-11 19 -20 98l-8 63q-9 66 -38 94.5t-103 28.5h-87v-284h-108zM174 375h117q133 0 133 113q0 104 -133 104h-117v-217zM195 773l83 129h144l-121 -129
h-106z" />
    <glyph glyph-name="racute" unicode="&#x155;" 
d="M35 0v89h182v348h-182v89h277v-115h3q18 62 61 88.5t120 26.5h89v-101h-90q-105 0 -138 -50t-33 -170v-116h190v-89h-479zM235 601l83 129h144l-121 -129h-106z" />
    <glyph glyph-name="uni0156" unicode="&#x156;" 
d="M66 0v685h243q114 0 169 -48t55 -136q0 -131 -113 -173q39 -18 61 -53.5t30 -100.5l7 -57q11 -89 28 -110v-7h-116q-11 19 -20 98l-8 63q-9 66 -38 94.5t-103 28.5h-87v-284h-108zM174 375h117q133 0 133 113q0 104 -133 104h-117v-217zM240 -213v44q26 1 37.5 6.5
t11.5 24.5v3h-49v87h110v-73q0 -47 -22.5 -69.5t-87.5 -22.5z" />
    <glyph glyph-name="uni0157" unicode="&#x157;" 
d="M35 0v89h182v348h-182v89h277v-115h3q18 62 61 88.5t120 26.5h89v-101h-90q-105 0 -138 -50t-33 -170v-116h190v-89h-479zM216 -213v44q26 1 37.5 6.5t11.5 24.5v3h-49v87h110v-73q0 -47 -22.5 -69.5t-87.5 -22.5z" />
    <glyph glyph-name="Rcaron" unicode="&#x158;" 
d="M66 0v685h243q114 0 169 -48t55 -136q0 -131 -113 -173q39 -18 61 -53.5t30 -100.5l7 -57q11 -89 28 -110v-7h-116q-11 19 -20 98l-8 63q-9 66 -38 94.5t-103 28.5h-87v-284h-108zM174 375h117q133 0 133 113q0 104 -133 104h-117v-217zM215 773l-102 129h102l68 -71
l68 71h102l-102 -129h-136z" />
    <glyph glyph-name="rcaron" unicode="&#x159;" 
d="M35 0v89h182v348h-182v89h277v-115h3q18 62 61 88.5t120 26.5h89v-101h-90q-105 0 -138 -50t-33 -170v-116h190v-89h-479zM255 601l-102 129h102l68 -71l68 71h102l-102 -129h-136z" />
    <glyph glyph-name="Sacute" unicode="&#x15a;" 
d="M293 -13q-97 0 -164 41t-94 116l92 43q50 -108 168 -108q63 0 100 28.5t37 79.5q0 43 -27.5 65.5t-90.5 38.5l-62 16q-101 26 -145 69.5t-44 124.5q0 90 65 144t172 54q87 0 147.5 -37t87.5 -104l-88 -45q-44 91 -149 91q-57 0 -90 -26.5t-33 -70.5q0 -41 27.5 -62
t100.5 -42l73 -21q86 -26 128 -67.5t42 -118.5q0 -96 -69 -152.5t-184 -56.5zM244 773l83 129h144l-121 -129h-106z" />
    <glyph glyph-name="sacute" unicode="&#x15b;" 
d="M305 -16q-183 0 -237 127l90 43q50 -83 152 -83q46 0 75.5 18.5t29.5 51.5q0 30 -22.5 42t-73.5 24q-2 0 -3 0.5t-3 1t-3 0.5l-41 10q-86 19 -131 51.5t-45 103.5q0 74 59.5 117.5t152.5 43.5q79 0 135.5 -30.5t81.5 -82.5l-90 -45q-35 69 -129 69q-45 0 -71 -17t-26 -47
q0 -32 26.5 -46t81.5 -24l44 -9q81 -17 125.5 -50t44.5 -102q0 -79 -61 -123t-162 -44zM235 601l83 129h144l-121 -129h-106z" />
    <glyph glyph-name="Scircumflex" unicode="&#x15c;" 
d="M293 -13q-97 0 -164 41t-94 116l92 43q50 -108 168 -108q63 0 100 28.5t37 79.5q0 43 -27.5 65.5t-90.5 38.5l-62 16q-101 26 -145 69.5t-44 124.5q0 90 65 144t172 54q87 0 147.5 -37t87.5 -104l-88 -45q-44 91 -149 91q-57 0 -90 -26.5t-33 -70.5q0 -41 27.5 -62
t100.5 -42l73 -21q86 -26 128 -67.5t42 -118.5q0 -96 -69 -152.5t-184 -56.5zM142 773l102 129h136l102 -129h-102l-68 71l-68 -71h-102z" />
    <glyph glyph-name="scircumflex" unicode="&#x15d;" 
d="M305 -16q-183 0 -237 127l90 43q50 -83 152 -83q46 0 75.5 18.5t29.5 51.5q0 30 -22.5 42t-73.5 24q-2 0 -3 0.5t-3 1t-3 0.5l-41 10q-86 19 -131 51.5t-45 103.5q0 74 59.5 117.5t152.5 43.5q79 0 135.5 -30.5t81.5 -82.5l-90 -45q-35 69 -129 69q-45 0 -71 -17t-26 -47
q0 -32 26.5 -46t81.5 -24l44 -9q81 -17 125.5 -50t44.5 -102q0 -79 -61 -123t-162 -44zM141 601l102 129h136l102 -129h-102l-68 71l-68 -71h-102z" />
    <glyph glyph-name="Scedilla" unicode="&#x15e;" 
d="M293 -13q-97 0 -164 41t-94 116l92 43q50 -108 168 -108q63 0 100 28.5t37 79.5q0 43 -27.5 65.5t-90.5 38.5l-62 16q-101 26 -145 69.5t-44 124.5q0 90 65 144t172 54q87 0 147.5 -37t87.5 -104l-88 -45q-44 91 -149 91q-57 0 -90 -26.5t-33 -70.5q0 -41 27.5 -62
t100.5 -42l73 -21q86 -26 128 -67.5t42 -118.5q0 -96 -69 -152.5t-184 -56.5zM159 -178l107 129h103l-86 -129h-124z" />
    <glyph glyph-name="scedilla" unicode="&#x15f;" 
d="M305 -16q-183 0 -237 127l90 43q50 -83 152 -83q46 0 75.5 18.5t29.5 51.5q0 30 -22.5 42t-73.5 24q-2 0 -3 0.5t-3 1t-3 0.5l-41 10q-86 19 -131 51.5t-45 103.5q0 74 59.5 117.5t152.5 43.5q79 0 135.5 -30.5t81.5 -82.5l-90 -45q-35 69 -129 69q-45 0 -71 -17t-26 -47
q0 -32 26.5 -46t81.5 -24l44 -9q81 -17 125.5 -50t44.5 -102q0 -79 -61 -123t-162 -44zM168 -178l107 129h103l-86 -129h-124z" />
    <glyph glyph-name="Scaron" unicode="&#x160;" 
d="M293 -13q-97 0 -164 41t-94 116l92 43q50 -108 168 -108q63 0 100 28.5t37 79.5q0 43 -27.5 65.5t-90.5 38.5l-62 16q-101 26 -145 69.5t-44 124.5q0 90 65 144t172 54q87 0 147.5 -37t87.5 -104l-88 -45q-44 91 -149 91q-57 0 -90 -26.5t-33 -70.5q0 -41 27.5 -62
t100.5 -42l73 -21q86 -26 128 -67.5t42 -118.5q0 -96 -69 -152.5t-184 -56.5zM252 773l-102 129h102l68 -71l68 71h102l-102 -129h-136z" />
    <glyph glyph-name="scaron" unicode="&#x161;" 
d="M305 -16q-183 0 -237 127l90 43q50 -83 152 -83q46 0 75.5 18.5t29.5 51.5q0 30 -22.5 42t-73.5 24q-2 0 -3 0.5t-3 1t-3 0.5l-41 10q-86 19 -131 51.5t-45 103.5q0 74 59.5 117.5t152.5 43.5q79 0 135.5 -30.5t81.5 -82.5l-90 -45q-35 69 -129 69q-45 0 -71 -17t-26 -47
q0 -32 26.5 -46t81.5 -24l44 -9q81 -17 125.5 -50t44.5 -102q0 -79 -61 -123t-162 -44zM239 601l-102 129h102l68 -71l68 71h102l-102 -129h-136z" />
    <glyph glyph-name="uni0162" unicode="&#x162;" 
d="M250 0v589h-201v96h514v-96h-201v-589h-112zM148 -178l107 129h103l-86 -129h-124z" />
    <glyph glyph-name="uni0163" unicode="&#x163;" 
d="M543 0h-197q-79 0 -113.5 33.5t-34.5 113.5v292h-170v87h170v144h108v-144h238v-90h-238v-273q0 -45 12 -59t54 -14h171v-90zM255 -177l107 129h103l-86 -129h-124z" />
    <glyph glyph-name="Tcaron" unicode="&#x164;" 
d="M250 0v589h-201v96h514v-96h-201v-589h-112zM238 773l-102 129h102l68 -71l68 71h102l-102 -129h-136z" />
    <glyph glyph-name="tcaron" unicode="&#x165;" 
d="M543 0h-197q-79 0 -113.5 33.5t-34.5 113.5v292h-170v87h170v144h108v-144h238v-90h-238v-273q0 -45 12 -59t54 -14h171v-90zM373 561l33 169h118l-61 -169h-90z" />
    <glyph glyph-name="Tbar" unicode="&#x166;" 
d="M250 0v298h-142v82h142v209h-209v96h529v-96h-208v-209h143v-82h-143v-298h-112z" />
    <glyph glyph-name="tbar" unicode="&#x167;" 
d="M543 0h-173q-100 0 -136 29.5t-36 120.5v88h-170v82h170v119h-170v87h170v144h108v-144h238v-90h-238v-116h238v-82h-238v-59q0 -59 10 -74t57 -15h170v-90z" />
    <glyph glyph-name="Utilde" unicode="&#x168;" 
d="M306 -13q-125 0 -183 63.5t-58 208.5v426h112v-419q0 -97 28 -140.5t101 -43.5t101.5 44.5t28.5 139.5v419h111v-428q0 -143 -59 -206.5t-182 -63.5zM205 778l-66 13q22 109 103 109q26 0 61 -14l24 -10q38 -16 47 -16q28 0 41 42l66 -14q-21 -108 -103 -108
q-26 0 -61 14l-24 10q-38 16 -47 16q-28 0 -41 -42z" />
    <glyph glyph-name="utilde" unicode="&#x169;" 
d="M262 -12q-84 0 -133.5 50t-49.5 147v341h108v-317q0 -129 110 -129q64 0 92.5 37.5t28.5 116.5v292h108v-433q0 -13 0.5 -41t0.5 -52h-105v76q-59 -88 -160 -88zM207 606l-66 13q22 109 103 109q26 0 61 -14l24 -10q40 -16 47 -16q27 0 41 42l66 -14q-21 -108 -103 -108
q-26 0 -61 14l-24 10q-38 16 -47 16q-28 0 -41 -42z" />
    <glyph glyph-name="Umacron" unicode="&#x16a;" 
d="M306 -13q-125 0 -183 63.5t-58 208.5v426h112v-419q0 -97 28 -140.5t101 -43.5t101.5 44.5t28.5 139.5v419h111v-428q0 -143 -59 -206.5t-182 -63.5zM174 803v83h267v-83h-267z" />
    <glyph glyph-name="umacron" unicode="&#x16b;" 
d="M262 -12q-84 0 -133.5 50t-49.5 147v341h108v-317q0 -129 110 -129q64 0 92.5 37.5t28.5 116.5v292h108v-433q0 -13 0.5 -41t0.5 -52h-105v76q-59 -88 -160 -88zM174 629v83h267v-83h-267z" />
    <glyph glyph-name="Ubreve" unicode="&#x16c;" 
d="M306 -13q-125 0 -183 63.5t-58 208.5v426h112v-419q0 -97 28 -140.5t101 -43.5t101.5 44.5t28.5 139.5v419h111v-428q0 -143 -59 -206.5t-182 -63.5zM307 772q-128 0 -161 118l71 19q24 -58 90 -58t90 58l71 -19q-33 -118 -161 -118z" />
    <glyph glyph-name="ubreve" unicode="&#x16d;" 
d="M262 -12q-84 0 -133.5 50t-49.5 147v341h108v-317q0 -129 110 -129q64 0 92.5 37.5t28.5 116.5v292h108v-433q0 -13 0.5 -41t0.5 -52h-105v76q-59 -88 -160 -88zM303 600q-128 0 -161 118l71 19q24 -58 90 -58t90 58l71 -19q-33 -118 -161 -118z" />
    <glyph glyph-name="Uring" unicode="&#x16e;" 
d="M306 -13q-125 0 -183 63.5t-58 208.5v426h112v-419q0 -97 28 -140.5t101 -43.5t101.5 44.5t28.5 139.5v419h111v-428q0 -143 -59 -206.5t-182 -63.5zM306 734q-43 0 -73 30.5t-30 73.5q0 44 30 74t73 30q44 0 74 -30t30 -74q0 -43 -30 -73.5t-74 -30.5zM306 792
q19 0 32.5 13.5t13.5 32.5q0 20 -13.5 33t-32.5 13t-32.5 -13t-13.5 -33q0 -19 13.5 -32.5t32.5 -13.5z" />
    <glyph glyph-name="uring" unicode="&#x16f;" 
d="M262 -12q-84 0 -133.5 50t-49.5 147v341h108v-317q0 -129 110 -129q64 0 92.5 37.5t28.5 116.5v292h108v-433q0 -13 0.5 -41t0.5 -52h-105v76q-59 -88 -160 -88zM311 577q-43 0 -73 30.5t-30 73.5q0 44 30 74t73 30q44 0 74 -30t30 -74q0 -43 -30 -73.5t-74 -30.5z
M311 635q19 0 32.5 13.5t13.5 32.5q0 20 -13.5 33t-32.5 13t-32.5 -13t-13.5 -33q0 -19 13.5 -32.5t32.5 -13.5z" />
    <glyph glyph-name="Uhungarumlaut" unicode="&#x170;" 
d="M306 -13q-125 0 -183 63.5t-58 208.5v426h112v-419q0 -97 28 -140.5t101 -43.5t101.5 44.5t28.5 139.5v419h111v-428q0 -143 -59 -206.5t-182 -63.5zM328 773l85 129h134l-123 -129h-96zM141 773l82 129h134l-120 -129h-96z" />
    <glyph glyph-name="uhungarumlaut" unicode="&#x171;" 
d="M262 -12q-84 0 -133.5 50t-49.5 147v341h108v-317q0 -129 110 -129q64 0 92.5 37.5t28.5 116.5v292h108v-433q0 -13 0.5 -41t0.5 -52h-105v76q-59 -88 -160 -88zM323 601l85 129h134l-123 -129h-96zM136 601l82 129h134l-120 -129h-96z" />
    <glyph glyph-name="Uogonek" unicode="&#x172;" 
d="M325 -192q-56 0 -86.5 23.5t-30.5 63.5q0 51 56 94q-103 9 -151 72.5t-48 197.5v426h112v-419q0 -97 28 -140.5t101 -43.5t101.5 44.5t28.5 139.5v419h111v-428q0 -127 -45.5 -190.5t-139.5 -75.5q-66 -42 -66 -77q0 -36 40 -36q23 0 40 11l37 -59q-32 -22 -88 -22z" />
    <glyph glyph-name="uogonek" unicode="&#x173;" 
d="M474 -192q-56 0 -86.5 23.5t-30.5 63.5q0 53 71 105h-6v76q-59 -88 -160 -88q-84 0 -133.5 50t-49.5 147v341h108v-317q0 -129 110 -129q64 0 92.5 37.5t28.5 116.5v292h108v-433q0 -13 0.5 -41t0.5 -52q-82 -48 -82 -86q0 -36 40 -36q23 0 40 11l37 -59q-32 -22 -88 -22
z" />
    <glyph glyph-name="Wcircumflex" unicode="&#x174;" 
d="M93 0l-86 685h110l29 -303q13 -131 19 -268h5q14 140 31 254l41 251h130l38 -251q3 -25 30 -254h5q20 248 22 264l34 307h105l-88 -685h-139l-40 264q-21 139 -31 248h-5q-7 -76 -32 -247l-40 -265h-138zM136 773l102 129h136l102 -129h-102l-68 71l-68 -71h-102z" />
    <glyph glyph-name="wcircumflex" unicode="&#x175;" 
d="M113 0l-101 526h103l37 -232q7 -37 26 -193h5q19 135 29 189l46 236h100l44 -227q19 -98 32 -198h4q25 179 28 195l38 230h98l-103 -526h-120l-40 212q-6 35 -15 102t-14 96h-4q-24 -156 -32 -197l-41 -213h-120zM138 601l102 129h136l102 -129h-102l-68 71l-68 -71h-102
z" />
    <glyph glyph-name="Ycircumflex" unicode="&#x176;" 
d="M250 0v261l-219 424h119l81 -165q12 -25 36.5 -77t37.5 -77h4q48 102 75 154l81 165h116l-222 -424v-261h-109zM138 773l102 129h136l102 -129h-102l-68 71l-68 -71h-102z" />
    <glyph glyph-name="ycircumflex" unicode="&#x177;" 
d="M133 -194q-6 0 -18.5 0.5t-19.5 0.5l-3 89q13 -1 36 -1q36 0 51 6q26 8 42 32t31 72l-206 521h122l68 -191q22 -61 71 -212h4q41 130 72 218l65 185h118l-233 -593q-30 -76 -70.5 -101.5t-129.5 -25.5zM139 601l102 129h136l102 -129h-102l-68 71l-68 -71h-102z" />
    <glyph glyph-name="Ydieresis" unicode="&#x178;" 
d="M250 0v261l-219 424h119l81 -165q12 -25 36.5 -77t37.5 -77h4q48 102 75 154l81 165h116l-222 -424v-261h-109zM353 782v111h108v-111h-108zM156 782v111h107v-111h-107z" />
    <glyph glyph-name="Zacute" unicode="&#x179;" 
d="M63 0v93l347 497q-37 -1 -105 -1h-230v96h460v-93l-347 -497q41 1 118 1h237v-96h-480zM224 773l83 129h144l-121 -129h-106z" />
    <glyph glyph-name="zacute" unicode="&#x17a;" 
d="M81 0v91l300 345v3q-35 -3 -98 -3h-190v90h417v-90l-297 -345v-2q25 0 66 0.5t66 0.5h178v-90h-442zM217 601l83 129h144l-121 -129h-106z" />
    <glyph glyph-name="Zdotaccent" unicode="&#x17b;" 
d="M63 0v93l347 497q-37 -1 -105 -1h-230v96h460v-93l-347 -497q41 1 118 1h237v-96h-480zM249 782v111h111v-111h-111z" />
    <glyph glyph-name="zdotaccent" unicode="&#x17c;" 
d="M81 0v91l300 345v3q-35 -3 -98 -3h-190v90h417v-90l-297 -345v-2q25 0 66 0.5t66 0.5h178v-90h-442zM245 610v111h111v-111h-111z" />
    <glyph glyph-name="Zcaron" unicode="&#x17d;" 
d="M63 0v93l347 497q-37 -1 -105 -1h-230v96h460v-93l-347 -497q41 1 118 1h237v-96h-480zM234 773l-102 129h102l68 -71l68 71h102l-102 -129h-136z" />
    <glyph glyph-name="zcaron" unicode="&#x17e;" 
d="M81 0v91l300 345v3q-35 -3 -98 -3h-190v90h417v-90l-297 -345v-2q25 0 66 0.5t66 0.5h178v-90h-442zM235 601l-102 129h102l68 -71l68 71h102l-102 -129h-136z" />
    <glyph glyph-name="uni018F" unicode="&#x18f;" 
d="M301 -13q-135 0 -209.5 93t-74.5 261q0 14 1 25h460q-11 238 -175 238q-123 0 -163 -128l-108 21q27 94 95.5 148t173.5 54q139 0 214 -91.5t75 -265.5q0 -168 -76 -261.5t-213 -93.5zM301 79q78 0 123 50.5t52 149.5h-345q12 -200 170 -200z" />
    <glyph glyph-name="florin" unicode="&#x192;" 
d="M114 -168q-51 0 -86 5l16 90q15 -3 53 -3q57 0 82.5 22t31.5 69l56 371h-126l13 89h127l3 20q16 116 58.5 160t149.5 44q51 0 86 -5l-16 -90q-15 3 -53 3q-57 0 -81 -21.5t-33 -69.5l-7 -41h150l-13 -89h-150l-53 -350q-19 -117 -60.5 -160.5t-147.5 -43.5z" />
    <glyph glyph-name="Aringacute" unicode="&#x1fa;" 
d="M18 0l220 685h137l219 -685h-114l-59 184h-233l-60 -184h-110zM212 279h182l-41 135q-23 71 -47 167h-5q-30 -115 -47 -167zM303 734q-43 0 -73 30.5t-30 73.5q0 44 30 74t73 30q44 0 74 -30t30 -74q0 -43 -30 -73.5t-74 -30.5zM303 792q19 0 32.5 13.5t13.5 32.5
q0 20 -13.5 33t-32.5 13t-32.5 -13t-13.5 -33q0 -19 13.5 -32.5t32.5 -13.5zM242 980l83 129h144l-121 -129h-106z" />
    <glyph glyph-name="aringacute" unicode="&#x1fb;" 
d="M246 -9q-85 0 -137 41t-52 113q0 33 11 58t28 41.5t48 29.5t60.5 21t76.5 17l73 14q4 1 11.5 2.5l10 2t8 1.5t7 2t5 2.5t4.5 3t3 4t2.5 6l1 7t0.5 8.5q0 39 -28.5 61.5t-78.5 22.5q-106 0 -118 -95l-107 8q8 79 68.5 126t156.5 47q216 0 216 -198v-314q0 -19 1 -23h-99
v21q0 30 1 39h-3q-56 -69 -170 -69zM273 69q65 0 100.5 37t35.5 103v13q0 22 3 32q-7 -2 -49 -11l-76 -15q-66 -13 -90.5 -28t-24.5 -53t26.5 -58t74.5 -20zM307 577q-43 0 -73 30.5t-30 73.5q0 44 30 74t73 30q44 0 74 -30t30 -74q0 -43 -30 -73.5t-74 -30.5zM307 635
q19 0 32.5 13.5t13.5 32.5q0 20 -13.5 33t-32.5 13t-32.5 -13t-13.5 -33q0 -19 13.5 -32.5t32.5 -13.5zM246 826l83 129h144l-121 -129h-106z" />
    <glyph glyph-name="AEacute" unicode="&#x1fc;" 
d="M23 0l182 685h379v-96h-171v-191h150v-96h-150v-206h174v-96h-279v183h-130l-45 -183h-110zM198 268h110v331h-30zM302 773l83 129h144l-121 -129h-106z" />
    <glyph glyph-name="aeacute" unicode="&#x1fd;" 
d="M151 -11q-65 0 -99.5 40t-34.5 113q0 32 10 58t21.5 41.5t34.5 30t35.5 19.5l37.5 15l52 19q2 1 6.5 2.5t5.5 2t4.5 2t4 2.5t2.5 3t2.5 4t1.5 5.5t1 7.5v9q0 82 -57 82q-32 0 -46 -23.5t-16 -69.5l-90 8q1 81 41.5 127t112.5 46q74 0 111 -49q45 50 114 50
q91 0 130.5 -66t39.5 -194v-43h-252q2 -75 22 -112.5t63 -37.5q33 0 50 19t28 51l91 -27q-19 -61 -63 -97.5t-106 -36.5q-87 0 -129 66h-2q-42 -67 -127 -67zM167 70q38 0 54 32.5t16 99.5v29q0 2 0.5 9t0.5 11q-8 -5 -42 -16q-25 -10 -36 -15.5t-24.5 -16t-18 -24.5
t-4.5 -36q0 -73 54 -73zM324 314h155q-2 69 -18 100t-56 31q-72 0 -81 -131zM225 601l83 129h144l-121 -129h-106z" />
    <glyph glyph-name="Oslashacute" unicode="&#x1fe;" 
d="M103 -50l-78 46l60 93q-68 92 -68 252q0 168 76 263t212 95q80 0 144 -36l50 78l77 -46l-59 -92q77 -92 77 -261q0 -168 -76 -261.5t-213 -93.5q-88 0 -153 41zM305 80q176 0 176 261q0 100 -27 163l-251 -394q41 -30 102 -30zM149 191l247 387q-37 25 -91 25
q-176 0 -176 -262q0 -87 20 -150zM233 773l83 129h144l-121 -129h-106z" />
    <glyph glyph-name="oslashacute" unicode="&#x1ff;" 
d="M125 -52l-65 45l51 70q-67 75 -67 196q0 124 71.5 200t190.5 76q70 0 128 -30l50 68l65 -45l-52 -72q70 -76 70 -197q0 -124 -72.5 -199.5t-189.5 -75.5q-75 0 -131 31zM305 76q70 0 109 46t39 137q0 67 -21 109l-202 -276q31 -16 75 -16zM177 153l200 273q-28 16 -71 16
q-70 0 -108.5 -46t-38.5 -137q0 -65 18 -106zM217 601l83 129h144l-121 -129h-106z" />
    <glyph glyph-name="uni0218" unicode="&#x218;" 
d="M293 -13q-97 0 -164 41t-94 116l92 43q50 -108 168 -108q63 0 100 28.5t37 79.5q0 43 -27.5 65.5t-90.5 38.5l-62 16q-101 26 -145 69.5t-44 124.5q0 90 65 144t172 54q87 0 147.5 -37t87.5 -104l-88 -45q-44 91 -149 91q-57 0 -90 -26.5t-33 -70.5q0 -41 27.5 -62
t100.5 -42l73 -21q86 -26 128 -67.5t42 -118.5q0 -96 -69 -152.5t-184 -56.5zM231 -213v44q26 1 37.5 6.5t11.5 24.5v3h-49v87h110v-73q0 -47 -22.5 -69.5t-87.5 -22.5z" />
    <glyph glyph-name="uni0219" unicode="&#x219;" 
d="M305 -16q-183 0 -237 127l90 43q50 -83 152 -83q46 0 75.5 18.5t29.5 51.5q0 30 -22.5 42t-73.5 24q-2 0 -3 0.5t-3 1t-3 0.5l-41 10q-86 19 -131 51.5t-45 103.5q0 74 59.5 117.5t152.5 43.5q79 0 135.5 -30.5t81.5 -82.5l-90 -45q-35 69 -129 69q-45 0 -71 -17t-26 -47
q0 -32 26.5 -46t81.5 -24l44 -9q81 -17 125.5 -50t44.5 -102q0 -79 -61 -123t-162 -44zM236 -213v44q26 1 37.5 6.5t11.5 24.5v3h-49v87h110v-73q0 -47 -22.5 -69.5t-87.5 -22.5z" />
    <glyph glyph-name="uni021A" unicode="&#x21a;" 
d="M250 0v589h-201v96h514v-96h-201v-589h-112zM251 -213v44q26 1 37.5 6.5t11.5 24.5v3h-49v87h110v-73q0 -47 -22.5 -69.5t-87.5 -22.5z" />
    <glyph glyph-name="uni021B" unicode="&#x21b;" 
d="M543 0h-197q-79 0 -113.5 33.5t-34.5 113.5v292h-170v87h170v144h108v-144h238v-90h-238v-273q0 -45 12 -59t54 -14h171v-90zM325 -213v44q26 1 37.5 6.5t11.5 24.5v3h-49v87h110v-73q0 -47 -22.5 -69.5t-87.5 -22.5z" />
    <glyph glyph-name="uni0237" unicode="&#x237;" 
d="M104 -188v90h173q48 0 57 14t9 75v445h-245v90h353v-555q0 -92 -36 -125.5t-133 -33.5h-178z" />
    <glyph glyph-name="uni0259" unicode="&#x259;" 
d="M297 535q121 0 191.5 -74t70.5 -198q0 -120 -71 -198t-188 -78q-123 0 -185 84t-62 220h396q-4 68 -47 109t-107 41q-95 0 -148 -81l-90 41q32 60 93 97t147 37zM449 208h-285q7 -56 41.5 -94t96.5 -38q59 0 99 37t48 95z" />
    <glyph glyph-name="circumflex" unicode="&#x2c6;" 
d="M133 601l102 129h136l102 -129h-102l-68 71l-68 -71h-102z" />
    <glyph glyph-name="caron" unicode="&#x2c7;" 
d="M235 601l-102 129h102l68 -71l68 71h102l-102 -129h-136z" />
    <glyph glyph-name="breve" unicode="&#x2d8;" 
d="M305 600q-128 0 -161 118l71 19q24 -58 90 -58t90 58l71 -19q-33 -118 -161 -118z" />
    <glyph glyph-name="dotaccent" unicode="&#x2d9;" 
d="M248 610v111h111v-111h-111z" />
    <glyph glyph-name="ring" unicode="&#x2da;" 
d="M305 577q-43 0 -73 30.5t-30 73.5q0 44 30 74t73 30q44 0 74 -30t30 -74q0 -43 -30 -73.5t-74 -30.5zM305 635q19 0 32.5 13.5t13.5 32.5q0 20 -13.5 33t-32.5 13t-32.5 -13t-13.5 -33q0 -19 13.5 -32.5t32.5 -13.5z" />
    <glyph glyph-name="ogonek" unicode="&#x2db;" 
d="M323 -192q-56 0 -86.5 23.5t-30.5 63.5q0 53 71 105h99q-82 -48 -82 -86q0 -36 40 -36q23 0 40 11l37 -59q-32 -22 -88 -22z" />
    <glyph glyph-name="tilde" unicode="&#x2dc;" 
d="M197 606l-66 13q22 109 103 109q26 0 61 -14l24 -10q40 -16 47 -16q28 0 41 42l66 -14q-21 -108 -103 -108q-26 0 -61 14l-24 10q-38 16 -47 16q-28 0 -41 -42z" />
    <glyph glyph-name="hungarumlaut" unicode="&#x2dd;" 
d="M294 601l85 129h134l-123 -129h-96zM107 601l82 129h134l-120 -129h-96z" />
    <glyph glyph-name="uni0312" unicode="&#x312;" horiz-adv-x="0" 
d="M-360 602v73q0 47 22.5 69.5t87.5 22.5v-44q-26 -1 -37.5 -6.5t-11.5 -24.5v-3h49v-87h-110z" />
    <glyph glyph-name="uni0313" unicode="&#x313;" horiz-adv-x="0" 
d="M-369 561l33 169h118l-61 -169h-90z" />
    <glyph glyph-name="uni0326" unicode="&#x326;" horiz-adv-x="0" 
d="M-360 -213v44q26 1 37.5 6.5t11.5 24.5v3h-49v87h110v-73q0 -47 -22.5 -69.5t-87.5 -22.5z" />
    <glyph glyph-name="uni0394" unicode="&#x394;" 
d="M9 0l224 685h147l223 -685h-594zM156 90h300l-148 502l-2 -1z" />
    <glyph glyph-name="uni03A9" unicode="&#x3a9;" 
d="M19 0v91h50q44 0 73 -1v5q-120 97 -120 285q0 137 74 228t210 91t210 -91t74 -228q0 -183 -120 -285v-5q29 1 73 1h50v-91h-248v109q137 66 137 260q0 105 -44.5 169.5t-131.5 64.5t-131.5 -64.5t-44.5 -169.5q0 -194 137 -260v-109h-248z" />
    <glyph glyph-name="uni03BC" unicode="&#x3bc;" 
d="M189 -184h-111q5 72 5 129v581h108v-317q0 -129 110 -129q64 0 92.5 37.5t28.5 116.5v292h108v-433q0 -13 0.5 -41t0.5 -52h-105v76q-59 -88 -160 -88q-40 0 -73 12v-53q0 -96 -4 -131z" />
    <glyph glyph-name="pi" unicode="&#x3c0;" 
d="M118 0v432h-104v94h584v-94h-103v-227q0 -93 18.5 -129t64.5 -53v-23h-137q-31 20 -42.5 55.5t-11.5 105.5v271h-160v-432h-109z" />
    <glyph glyph-name="Wgrave" unicode="&#x1e80;" 
d="M93 0l-86 685h110l29 -303q13 -131 19 -268h5q14 140 31 254l41 251h130l38 -251q3 -25 30 -254h5q20 248 22 264l34 307h105l-88 -685h-139l-40 264q-21 139 -31 248h-5q-7 -76 -32 -247l-40 -265h-138zM281 773l-121 129h144l83 -129h-106z" />
    <glyph glyph-name="wgrave" unicode="&#x1e81;" 
d="M113 0l-101 526h103l37 -232q7 -37 26 -193h5q19 135 29 189l46 236h100l44 -227q19 -98 32 -198h4q25 179 28 195l38 230h98l-103 -526h-120l-40 212q-6 35 -15 102t-14 96h-4q-24 -156 -32 -197l-41 -213h-120zM263 601l-121 129h144l83 -129h-106z" />
    <glyph glyph-name="Wacute" unicode="&#x1e82;" 
d="M93 0l-86 685h110l29 -303q13 -131 19 -268h5q14 140 31 254l41 251h130l38 -251q3 -25 30 -254h5q20 248 22 264l34 307h105l-88 -685h-139l-40 264q-21 139 -31 248h-5q-7 -76 -32 -247l-40 -265h-138zM252 773l83 129h144l-121 -129h-106z" />
    <glyph glyph-name="wacute" unicode="&#x1e83;" 
d="M113 0l-101 526h103l37 -232q7 -37 26 -193h5q19 135 29 189l46 236h100l44 -227q19 -98 32 -198h4q25 179 28 195l38 230h98l-103 -526h-120l-40 212q-6 35 -15 102t-14 96h-4q-24 -156 -32 -197l-41 -213h-120zM246 601l83 129h144l-121 -129h-106z" />
    <glyph glyph-name="Wdieresis" unicode="&#x1e84;" 
d="M93 0l-86 685h110l29 -303q13 -131 19 -268h5q14 140 31 254l41 251h130l38 -251q3 -25 30 -254h5q20 248 22 264l34 307h105l-88 -685h-139l-40 264q-21 139 -31 248h-5q-7 -76 -32 -247l-40 -265h-138zM351 782v111h108v-111h-108zM154 782v111h107v-111h-107z" />
    <glyph glyph-name="wdieresis" unicode="&#x1e85;" 
d="M113 0l-101 526h103l37 -232q7 -37 26 -193h5q19 135 29 189l46 236h100l44 -227q19 -98 32 -198h4q25 179 28 195l38 230h98l-103 -526h-120l-40 212q-6 35 -15 102t-14 96h-4q-24 -156 -32 -197l-41 -213h-120zM353 610v111h108v-111h-108zM156 610v111h107v-111h-107z
" />
    <glyph glyph-name="uni1E9E" unicode="&#x1e9e;" 
d="M361 -13q-86 0 -138 34l53 84q38 -25 85 -25q58 0 89 33.5t31 86.5q0 121 -144 121q-26 0 -59 -3v77l94 126q28 41 53 67v2q-31 -1 -92 -1h-145v-589h-110v685h470v-82l-148 -194q87 -4 141.5 -59t54.5 -150q0 -101 -62 -157t-173 -56z" />
    <glyph glyph-name="Ygrave" unicode="&#x1ef2;" 
d="M250 0v261l-219 424h119l81 -165q12 -25 36.5 -77t37.5 -77h4q48 102 75 154l81 165h116l-222 -424v-261h-109zM278 773l-121 129h144l83 -129h-106z" />
    <glyph glyph-name="ygrave" unicode="&#x1ef3;" 
d="M133 -194q-6 0 -18.5 0.5t-19.5 0.5l-3 89q13 -1 36 -1q36 0 51 6q26 8 42 32t31 72l-206 521h122l68 -191q22 -61 71 -212h4q41 130 72 218l65 185h118l-233 -593q-30 -76 -70.5 -101.5t-129.5 -25.5zM271 601l-121 129h144l83 -129h-106z" />
    <glyph glyph-name="uni2000" unicode="&#x2000;" 
 />
    <glyph glyph-name="uni2001" unicode="&#x2001;" 
 />
    <glyph glyph-name="uni2002" unicode="&#x2002;" 
 />
    <glyph glyph-name="uni2003" unicode="&#x2003;" 
 />
    <glyph glyph-name="uni2004" unicode="&#x2004;" 
 />
    <glyph glyph-name="uni2005" unicode="&#x2005;" 
 />
    <glyph glyph-name="uni2006" unicode="&#x2006;" 
 />
    <glyph glyph-name="uni2007" unicode="&#x2007;" 
 />
    <glyph glyph-name="uni2008" unicode="&#x2008;" 
 />
    <glyph glyph-name="uni2009" unicode="&#x2009;" 
 />
    <glyph glyph-name="uni200A" unicode="&#x200a;" 
 />
    <glyph glyph-name="uni200B" unicode="&#x200b;" horiz-adv-x="0" 
 />
    <glyph glyph-name="endash" unicode="&#x2013;" 
d="M73 239v97h466v-97h-466z" />
    <glyph glyph-name="emdash" unicode="&#x2014;" 
d="M0 239v97h612v-97h-612z" />
    <glyph glyph-name="uni2015" unicode="&#x2015;" 
d="M0 239v97h612v-97h-612z" />
    <glyph glyph-name="quoteleft" unicode="&#x2018;" 
d="M225 415v149q0 76 42 121t120 50v-72q-77 -5 -77 -84v-9h75v-155h-160z" />
    <glyph glyph-name="quoteright" unicode="&#x2019;" 
d="M225 410v72q77 6 77 84v9h-75v155h160v-149q0 -76 -42 -121t-120 -50z" />
    <glyph glyph-name="quotesinglbase" unicode="&#x201a;" 
d="M225 -165v72q77 5 77 84v9h-75v155h160v-149q0 -76 -42 -121t-120 -50z" />
    <glyph glyph-name="quotedblleft" unicode="&#x201c;" 
d="M339 414v149q0 76 42 121t120 50v-72q-77 -6 -77 -84v-9h75v-155h-160zM110 414v149q0 76 42 121t120 50v-72q-77 -6 -77 -84v-9h75v-155h-160z" />
    <glyph glyph-name="quotedblright" unicode="&#x201d;" 
d="M340 410v72q77 6 77 84v9h-75v155h160v-149q0 -76 -42 -121t-120 -50zM110 410v72q77 6 77 84v9h-75v155h160v-149q0 -76 -42 -121t-120 -50z" />
    <glyph glyph-name="quotedblbase" unicode="&#x201e;" 
d="M339 -165v72q77 5 77 84v9h-75v155h160v-149q0 -76 -42 -121t-120 -50zM110 -165v72q77 5 77 84v9h-75v155h160v-149q0 -76 -42 -121t-120 -50z" />
    <glyph glyph-name="dagger" unicode="&#x2020;" 
d="M252 -110v502h-177v91h177v202h107v-202h177v-91h-177v-502h-107z" />
    <glyph glyph-name="daggerdbl" unicode="&#x2021;" 
d="M252 -111v202h-177v92h177v208h-177v92h177v202h107v-202h177v-92h-177v-208h177v-92h-177v-202h-107z" />
    <glyph glyph-name="bullet" unicode="&#x2022;" 
d="M307 166q-66 0 -112.5 47t-46.5 112t46.5 111.5t112.5 46.5q64 0 110.5 -46.5t46.5 -111.5t-46.5 -112t-110.5 -47z" />
    <glyph glyph-name="ellipsis" unicode="&#x2026;" 
d="M448 0v155h118v-155h-118zM46 0v155h118v-155h-118zM246 0v155h118v-155h-118z" />
    <glyph glyph-name="perthousand" unicode="&#x2030;" 
d="M11 0l296 685h75l-295 -685h-76zM300 -7q-100 0 -100 155q0 157 99 157q101 0 101 -157q0 -155 -100 -155zM300 54q40 0 40 93q0 96 -41 96q-38 0 -38 -97q0 -92 39 -92zM92 380q-100 0 -100 155q0 157 99 157q100 0 100 -157q0 -155 -99 -155zM92 441q39 0 39 93
q0 96 -40 96q-39 0 -39 -97q0 -92 40 -92zM525 -7q-100 0 -100 155q0 157 99 157q101 0 101 -157q0 -155 -100 -155zM525 54q40 0 40 93q0 96 -41 96q-38 0 -38 -97q0 -92 39 -92z" />
    <glyph glyph-name="guilsinglleft" unicode="&#x2039;" 
d="M282 91l-118 184l118 185h108l-104 -185l104 -184h-108z" />
    <glyph glyph-name="guilsinglright" unicode="&#x203a;" 
d="M222 91l104 184l-104 185h108l118 -185l-118 -184h-108z" />
    <glyph glyph-name="fraction" unicode="&#x2044;" 
d="M10 0l504 685h88l-504 -685h-88z" />
    <glyph glyph-name="uni2070" unicode="&#x2070;" 
d="M306 340q-174 0 -174 242q0 113 42 179.5t131 66.5q90 0 132.5 -66.5t42.5 -179.5q0 -242 -174 -242zM307 419q76 0 76 164q0 82 -17 124t-60 42t-60.5 -42.5t-17.5 -124.5q0 -163 79 -163zM264 541v86h83v-86h-83z" />
    <glyph glyph-name="uni2074" unicode="&#x2074;" 
d="M328 348v93h-197v67l106 309h88l-103 -302h106v170h82v-170h72v-74h-72v-93h-82z" />
    <glyph glyph-name="uni2075" unicode="&#x2075;" 
d="M303 340q-74 0 -116.5 37.5t-51.5 102.5l92 5q14 -69 77 -69q37 0 57 24t20 64q0 39 -19.5 61.5t-54.5 22.5q-52 0 -71 -43l-88 9l23 263h276v-78h-204q-2 -40 -5 -60l-5 -47q37 32 89 32q69 0 111 -43.5t42 -114.5q0 -75 -47 -120.5t-125 -45.5z" />
    <glyph glyph-name="uni2076" unicode="&#x2076;" 
d="M311 340q-87 0 -133 58.5t-46 165.5q0 122 47.5 193t137.5 71q66 0 105 -36.5t48 -96.5l-92 -3q-13 56 -63 56q-42 0 -64.5 -38.5t-24.5 -101.5h2q34 48 102 48t108.5 -43t40.5 -112q0 -70 -46.5 -115.5t-121.5 -45.5zM310 413q35 0 56 23.5t21 62.5q0 38 -21 60.5
t-57 22.5t-57.5 -23t-21.5 -60q0 -38 22 -62t58 -24z" />
    <glyph glyph-name="uni2077" unicode="&#x2077;" 
d="M303 348h-104q55 204 171 386v1h-57h-165v82h322v-76q-50 -72 -94.5 -179.5t-72.5 -213.5z" />
    <glyph glyph-name="uni2078" unicode="&#x2078;" 
d="M306 340q-80 0 -127 37.5t-47 102.5q0 82 86 117q-71 38 -71 105q0 55 43.5 90.5t115.5 35.5q71 0 114 -35.5t43 -90.5q0 -70 -70 -103v-2q87 -35 87 -117q0 -65 -47.5 -102.5t-126.5 -37.5zM306 412q36 0 57.5 21t21.5 54t-21.5 53t-57.5 20q-38 0 -59.5 -20t-21.5 -53
t22 -54t59 -21zM306 630q32 0 50.5 17t18.5 46q0 27 -18.5 44t-50.5 17q-33 0 -52 -17t-19 -44q0 -29 19 -46t52 -17z" />
    <glyph glyph-name="uni2079" unicode="&#x2079;" 
d="M294 340q-139 0 -157 131l91 4q13 -58 66 -58q37 0 62 39t25 105h-1q-36 -47 -102 -47t-106.5 41.5t-40.5 110.5q0 70 46 116t120 46q86 0 131.5 -60t45.5 -169q0 -123 -45.5 -191t-134.5 -68zM299 586q35 0 56.5 23t21.5 59q0 38 -21.5 61t-56.5 23q-36 0 -57.5 -23
t-21.5 -60q0 -36 21.5 -59.5t57.5 -23.5z" />
    <glyph glyph-name="uni207A" unicode="&#x207a;" 
d="M266 404v123h-118v75h118v122h79v-122h119v-75h-119v-123h-79z" />
    <glyph glyph-name="uni207B" unicode="&#x207b;" 
d="M151 524v79h310v-79h-310z" />
    <glyph glyph-name="uni207C" unicode="&#x207c;" 
d="M151 589v73h310v-73h-310zM151 463v73h310v-73h-310z" />
    <glyph glyph-name="uni207D" unicode="&#x207d;" 
d="M413 255l-69 -5q-104 133 -104 286q0 154 104 289l69 -5q-84 -134 -84 -283t84 -282z" />
    <glyph glyph-name="uni207E" unicode="&#x207e;" 
d="M309 250l-69 5q83 134 83 282q0 149 -83 283l69 5q103 -137 103 -289q0 -150 -103 -286z" />
    <glyph glyph-name="uni207F" unicode="&#x207f;" 
d="M151 348v271q0 47 -1 66h86v-16q0 -18 -1 -27h2q32 50 105 50q58 0 90.5 -35.5t32.5 -103.5v-205h-90v161q0 58 -14 83t-49 25q-38 0 -54.5 -24.5t-16.5 -78.5v-166h-90z" />
    <glyph glyph-name="uni2080" unicode="&#x2080;" 
d="M306 -92q-174 0 -174 242q0 113 42 179.5t131 66.5q90 0 132.5 -66.5t42.5 -179.5q0 -242 -174 -242zM307 -13q76 0 76 164q0 82 -17 124t-60 42t-60.5 -42.5t-17.5 -124.5q0 -163 79 -163zM264 109v86h83v-86h-83z" />
    <glyph glyph-name="uni2081" unicode="&#x2081;" 
d="M167 -84v74h103v253h-113v64q60 2 88.5 18.5t34.5 59.5h81v-395h93v-74h-287z" />
    <glyph glyph-name="uni2082" unicode="&#x2082;" 
d="M146 -84v72q39 37 136 118q55 47 75 75t20 63q0 31 -17.5 50.5t-49.5 19.5q-70 0 -75 -90l-90 2q0 76 45.5 123t121.5 47q75 0 118 -39t43 -107q0 -54 -30 -97t-87 -88q-25 -20 -53 -41.5t-37 -28.5v-2h30q7 1 48 1h131v-78h-329z" />
    <glyph glyph-name="uni2083" unicode="&#x2083;" 
d="M307 -92q-78 0 -123 40.5t-48 114.5l93 3q5 -83 78 -83q35 0 55 20t20 51q0 34 -23.5 52.5t-64.5 18.5h-24v72h18q35 0 56.5 15.5t21.5 47.5q0 25 -15.5 41.5t-41.5 16.5q-68 0 -68 -74l-92 6q4 67 46.5 106.5t113.5 39.5t112.5 -35t41.5 -91q0 -76 -69 -103
q84 -31 84 -115q0 -65 -47.5 -104.5t-123.5 -39.5z" />
    <glyph glyph-name="uni2084" unicode="&#x2084;" 
d="M328 -84v93h-197v67l106 309h88l-103 -302h106v170h82v-170h72v-74h-72v-93h-82z" />
    <glyph glyph-name="uni2085" unicode="&#x2085;" 
d="M303 -92q-74 0 -116.5 37.5t-51.5 102.5l92 5q14 -69 77 -69q37 0 57 24t20 64q0 39 -19.5 61.5t-54.5 22.5q-52 0 -71 -43l-88 9l23 263h276v-78h-204q-2 -40 -5 -60l-5 -47q37 32 89 32q69 0 111 -43.5t42 -114.5q0 -75 -47 -120.5t-125 -45.5z" />
    <glyph glyph-name="uni2086" unicode="&#x2086;" 
d="M311 -92q-87 0 -133 58.5t-46 165.5q0 122 47.5 193t137.5 71q66 0 105 -36.5t48 -96.5l-92 -3q-13 56 -63 56q-42 0 -64.5 -38.5t-24.5 -101.5h2q34 48 102 48t108.5 -43t40.5 -112q0 -70 -46.5 -115.5t-121.5 -45.5zM310 -19q35 0 56 23.5t21 62.5q0 38 -21 60.5
t-57 22.5t-57.5 -23t-21.5 -60q0 -38 22 -62t58 -24z" />
    <glyph glyph-name="uni2087" unicode="&#x2087;" 
d="M303 -84h-104q55 204 171 386v1h-57h-165v82h322v-76q-50 -72 -94.5 -179.5t-72.5 -213.5z" />
    <glyph glyph-name="uni2088" unicode="&#x2088;" 
d="M306 -92q-80 0 -127 37.5t-47 102.5q0 82 86 117q-71 38 -71 105q0 55 43.5 90.5t115.5 35.5q71 0 114 -35.5t43 -90.5q0 -70 -70 -103v-2q87 -35 87 -117q0 -65 -47.5 -102.5t-126.5 -37.5zM306 -20q36 0 57.5 21t21.5 54t-21.5 53t-57.5 20q-38 0 -59.5 -20t-21.5 -53
t22 -54t59 -21zM306 198q32 0 50.5 17t18.5 46q0 27 -18.5 44t-50.5 17q-33 0 -52 -17t-19 -44q0 -29 19 -46t52 -17z" />
    <glyph glyph-name="uni2089" unicode="&#x2089;" 
d="M294 -92q-139 0 -157 131l91 4q13 -58 66 -58q37 0 62 39t25 105h-1q-36 -47 -102 -47t-106.5 41.5t-40.5 110.5q0 70 46 116t120 46q86 0 131.5 -60t45.5 -169q0 -123 -45.5 -191t-134.5 -68zM299 154q35 0 56.5 23t21.5 59q0 38 -21.5 61t-56.5 23q-36 0 -57.5 -23
t-21.5 -60q0 -36 21.5 -59.5t57.5 -23.5z" />
    <glyph glyph-name="uni208A" unicode="&#x208a;" 
d="M266 -28v123h-118v75h118v122h79v-122h119v-75h-119v-123h-79z" />
    <glyph glyph-name="uni208B" unicode="&#x208b;" 
d="M151 92v79h310v-79h-310z" />
    <glyph glyph-name="uni208C" unicode="&#x208c;" 
d="M151 157v73h310v-73h-310zM151 31v73h310v-73h-310z" />
    <glyph glyph-name="uni208D" unicode="&#x208d;" 
d="M413 -177l-69 -5q-104 133 -104 286q0 154 104 289l69 -5q-84 -134 -84 -283t84 -282z" />
    <glyph glyph-name="uni208E" unicode="&#x208e;" 
d="M309 -182l-69 5q83 134 83 282q0 149 -83 283l69 5q103 -137 103 -289q0 -150 -103 -286z" />
    <glyph glyph-name="Euro" unicode="&#x20ac;" 
d="M337 -13q-102 0 -162 60.5t-78 171.5h-65l16 85h39v71h-55l16 85h47q18 107 75.5 173t166.5 66q94 0 148.5 -48t72.5 -129l-100 -27q-27 109 -121 109q-110 0 -130 -144h220l-15 -85h-210v-71h202l-16 -85h-181q21 -139 130 -139q93 0 121 109l100 -26
q-43 -176 -221 -176z" />
    <glyph glyph-name="uni2113" unicode="&#x2113;" 
d="M358 -14q-81 0 -119.5 35.5t-38.5 109.5v43l-61 -52l-45 54l104 86v251q0 93 36 139.5t128 46.5q147 0 147 -140q0 -82 -49.5 -151t-154.5 -158v-97q0 -91 68 -91q46 0 95 41l53 -54q-66 -63 -163 -63zM305 526v-178q60 61 86.5 108t26.5 97q0 75 -54 75q-32 0 -45.5 -23
t-13.5 -79z" />
    <glyph glyph-name="uni2116" unicode="&#x2116;" 
d="M27 0v685h144l47 -401q10 -100 23 -208h3q0 37 -0.5 104.5t-0.5 112.5v392h77v-685h-140l-49 396q-6 48 -12.5 113t-11.5 106h-3q0 -38 0.5 -134t0.5 -137v-344h-78zM378 215v84h193v-84h-193zM476 330q-121 0 -121 178q0 76 28 126.5t93 50.5q66 0 94 -50t28 -127
q0 -178 -122 -178zM476 408q43 0 43 100q0 99 -43 99q-42 0 -42 -99q0 -100 42 -100z" />
    <glyph glyph-name="uni2117" unicode="&#x2117;" 
d="M303 166q-110 0 -187 77t-77 189q0 111 77.5 189t188.5 78q112 0 190 -78t78 -189q0 -112 -78.5 -189t-191.5 -77zM307 213q88 0 150.5 64t62.5 155t-62.5 154.5t-152.5 63.5t-152 -63.5t-62 -154.5q0 -93 62 -156t154 -63zM201 275v312h130q56 0 85 -26t29 -72
q0 -49 -33.5 -74t-86.5 -25h-56v-115h-68zM269 446h49q58 0 58 43q0 42 -59 42h-48v-85z" />
    <glyph glyph-name="trademark" unicode="&#x2122;" 
d="M258 375v310h101l33 -113q2 -7 14 -48.5t19 -63.5h3q20 76 30 111l35 114h101v-310h-67v115q0 85 3 120h-3q-6 -21 -16.5 -58.5t-16.5 -59.5l-37 -117h-63l-36 117q-5 15 -33 117h-3q3 -108 3 -122v-112h-67zM82 375v250h-80v60h230v-60h-80v-250h-70z" />
    <glyph glyph-name="Omega" unicode="&#x2126;" 
d="M19 0v91h50q44 0 73 -1v5q-120 97 -120 285q0 137 74 228t210 91t210 -91t74 -228q0 -183 -120 -285v-5q29 1 73 1h50v-91h-248v109q137 66 137 260q0 105 -44.5 169.5t-131.5 64.5t-131.5 -64.5t-44.5 -169.5q0 -194 137 -260v-109h-248z" />
    <glyph glyph-name="estimated" unicode="&#x212e;" 
d="M312 -13q-118 0 -189.5 75t-71.5 199q0 119 70.5 196.5t190.5 77.5q122 0 190.5 -74.5t68.5 -201.5h-406v-132q0 -48 61 -76q35 -17 86 -17q64 0 110 27.5t84 91.5l37 -30q-45 -72 -99.5 -104t-131.5 -32zM165 305h293v103q0 43 -58 65q-42 17 -89 17q-50 0 -86 -16
q-60 -27 -60 -65v-104z" />
    <glyph glyph-name="onethird" unicode="&#x2153;" 
d="M76 0l296 685h75l-295 -685h-76zM84 305v266h-85v52q51 3 73 15.5t26 46.5h60v-380h-74zM444 -7q-122 0 -134 129l78 5q5 -67 57 -67q25 0 40 13.5t15 37.5q0 52 -64 52h-18v65h14q58 0 58 46q0 44 -44 44q-46 0 -51 -61l-74 4q9 122 125 122q60 0 90 -26.5t30 -72.5
q0 -55 -56 -83q33 -10 51 -34t18 -57q0 -54 -37 -85.5t-98 -31.5z" />
    <glyph glyph-name="twothirds" unicode="&#x2154;" 
d="M483 -7q-122 0 -134 129l78 5q5 -66 57 -66q25 0 40 13.5t15 36.5q0 52 -64 52h-18v65h14q58 0 58 46q0 43 -44 43q-46 0 -51 -60l-74 4q9 122 125 122q60 0 90 -26.5t30 -72.5q0 -55 -56 -83q33 -10 51 -34t18 -57q0 -54 -37 -85.5t-98 -31.5zM-1 314v55l101 89
q71 63 71 121q0 46 -45 46q-50 0 -50 -72l-77 3q0 64 33.5 101t93.5 37t92.5 -29.5t32.5 -86.5q0 -46 -24.5 -87t-83.5 -88l-25 -20q13 0 36 0.5t30 0.5h62v-70h-247zM134 0l296 685h75l-295 -685h-76z" />
    <glyph glyph-name="oneeighth" unicode="&#x215b;" 
d="M75 0l296 685h75l-295 -685h-76zM454 58q26 0 41 14.5t15 36.5q0 26 -15.5 40t-40.5 14q-57 0 -57 -54q0 -23 15 -37t42 -14zM85 305v266h-85v52q51 3 73 15.5t26 46.5h60v-380h-74zM454 -7q-63 0 -102 31.5t-39 82.5q0 65 64 91q-52 29 -52 82q0 46 35 74.5t94 28.5
q57 0 92 -29t35 -74q0 -54 -52 -82q64 -26 64 -91q0 -51 -38.5 -82.5t-100.5 -31.5zM454 229q23 0 36 12t13 33q0 19 -13 31.5t-36 12.5t-37 -12.5t-14 -31.5q0 -20 13.5 -32.5t37.5 -12.5z" />
    <glyph glyph-name="threeeighths" unicode="&#x215c;" 
d="M105 0l296 685h75l-295 -685h-76zM482 58q26 0 41 14.5t15 36.5q0 26 -15.5 40t-40.5 14q-57 0 -57 -54q0 -23 15 -37t42 -14zM113 302q-122 0 -134 129l78 5q5 -67 57 -67q25 0 40 13.5t15 37.5q0 52 -64 52h-18v65h14q58 0 58 46q0 44 -44 44q-46 0 -51 -61l-74 4
q9 122 125 122q60 0 90 -26.5t30 -72.5q0 -55 -56 -83q33 -10 51 -34t18 -57q0 -54 -37 -85.5t-98 -31.5zM482 -7q-63 0 -102 31.5t-39 82.5q0 65 64 91q-52 29 -52 82q0 46 35 74.5t94 28.5q57 0 92 -29t35 -74q0 -54 -52 -82q64 -26 64 -91q0 -51 -38.5 -82.5
t-100.5 -31.5zM482 229q23 0 36 12t13 33q0 19 -13 31.5t-36 12.5t-37 -12.5t-14 -31.5q0 -20 13.5 -32.5t37.5 -12.5z" />
    <glyph glyph-name="fiveeighths" unicode="&#x215d;" 
d="M479 -7q-63 0 -102 31.5t-39 82.5q0 65 64 91q-52 29 -52 82q0 46 35 74.5t94 28.5q57 0 92 -29t35 -74q0 -54 -52 -82q64 -26 64 -91q0 -51 -38.5 -82.5t-100.5 -31.5zM123 300q-56 0 -92 31.5t-41 85.5l79 6q5 -57 55 -57q55 0 55 67q0 31 -15 48.5t-40 17.5
q-36 0 -53 -36l-72 6l16 216h220v-69h-158l-6 -69q23 17 64 17q54 0 87.5 -36.5t33.5 -93.5q0 -61 -35.5 -97.5t-97.5 -36.5zM115 0l296 685h75l-295 -685h-76zM479 58q26 0 41 14.5t15 36.5q0 26 -15.5 40t-40.5 14q-57 0 -57 -54q0 -23 15 -37t42 -14zM479 229q23 0 36 12
t13 33q0 19 -13 31.5t-36 12.5t-37 -12.5t-14 -31.5q0 -20 13.5 -32.5t37.5 -12.5z" />
    <glyph glyph-name="seveneighths" unicode="&#x215e;" 
d="M464 -7q-63 0 -102 31.5t-39 82.5q0 65 64 91q-52 29 -52 82q0 46 35 74.5t94 28.5q57 0 92 -29t35 -74q0 -54 -52 -82q64 -26 64 -91q0 -51 -38.5 -82.5t-100.5 -31.5zM73 0l296 685h75l-295 -685h-76zM128 305h-85q45 175 127 310h-167v70h257v-55
q-40 -63 -77.5 -157.5t-54.5 -167.5zM464 58q26 0 41 14.5t15 36.5q0 26 -15.5 40t-40.5 14q-57 0 -57 -54q0 -23 15 -37t42 -14zM464 229q23 0 36 12t13 33q0 19 -13 31.5t-36 12.5t-37 -12.5t-14 -31.5q0 -20 13.5 -32.5t37.5 -12.5z" />
    <glyph glyph-name="arrowleft" unicode="&#x2190;" 
d="M247 80l-232 246l232 246h144l-69 -70q-95 -95 -127 -126v-1q43 2 163 2h234v-102h-234q-120 0 -163 2v-1q32 -31 127 -126l69 -70h-144z" />
    <glyph glyph-name="arrowup" unicode="&#x2191;" 
d="M254 56v237q0 120 2 163h-1q-80 -82 -126 -127l-70 -69v141l247 234l247 -234v-141l-70 69q-46 45 -126 127h-1q2 -43 2 -163v-237h-104z" />
    <glyph glyph-name="arrowright" unicode="&#x2192;" 
d="M221 80l69 70q45 46 127 126v1q-43 -2 -163 -2h-234v102h234q120 0 163 -2v1q-82 80 -127 126l-69 70h144l232 -246l-232 -246h-144z" />
    <glyph glyph-name="arrowdown" unicode="&#x2193;" 
d="M306 26l-247 234v141l70 -69q95 -95 126 -127h1q-2 43 -2 163v237h104v-237q0 -120 -2 -163h1q31 32 126 127l70 69v-141z" />
    <glyph glyph-name="uni2196" unicode="&#x2196;" 
d="M471 113l-165 165q-13 13 -36 35t-42.5 41.5t-38.5 40.5l-1 -1q0 -23 0.5 -88.5t0.5 -87.5l-1 -98l-98 99l9 338l338 10l99 -99l-98 -1q-134 0 -179 1l-1 -1q47 -43 120 -116l166 -166z" />
    <glyph glyph-name="uni2197" unicode="&#x2197;" 
d="M141 113l-73 72l166 166q73 73 120 116l-1 1q-45 -1 -179 -1l-98 1l99 99l338 -10l9 -338l-98 -99l-1 98q0 22 0.5 87.5t0.5 88.5l-1 1q-19 -21 -38.5 -40.5t-42.5 -41.5t-36 -35z" />
    <glyph glyph-name="uni2198" unicode="&#x2198;" 
d="M175 113l-99 99l98 1q134 0 179 -1l1 1q-47 43 -120 116l-166 166l73 72l165 -165q13 -13 36 -35t42.5 -41.5t38.5 -40.5l1 1q0 22 -0.5 88.5t-0.5 87.5l1 98l98 -99l-9 -338z" />
    <glyph glyph-name="uni2199" unicode="&#x2199;" 
d="M437 113l-338 10l-9 338l98 99l1 -98q0 -21 -0.5 -87.5t-0.5 -88.5l1 -1q19 21 38.5 40.5t42.5 41.5t36 35l165 165l73 -72l-166 -166q-73 -73 -120 -116l1 -1q45 1 179 1l98 -1z" />
    <glyph glyph-name="partialdiff" unicode="&#x2202;" 
d="M305 -13q-116 0 -184 71.5t-68 195.5q0 121 64.5 193t162.5 72q71 0 121 -52l3 2q-64 121 -300 225l107 30q72 -25 132.5 -64.5t109.5 -94.5t77 -131t28 -164q0 -137 -67 -210t-186 -73zM305 76q68 0 106.5 44.5t38.5 134.5q0 89 -38 134t-106 45t-106 -45t-38 -134
q0 -90 37.5 -134.5t105.5 -44.5z" />
    <glyph glyph-name="increment" unicode="&#x2206;" 
d="M9 0l224 685h147l223 -685h-594zM156 90h300l-148 502l-2 -1z" />
    <glyph glyph-name="product" unicode="&#x220f;" 
d="M67 -70v657h-67v98h612v-98h-67v-657h-113v659h-252v-659h-113z" />
    <glyph glyph-name="summation" unicode="&#x2211;" 
d="M53 -135v95l244 312v2l-242 312v99h497v-100h-362l242 -310l-240 -310h366v-100h-505z" />
    <glyph glyph-name="minus" unicode="&#x2212;" 
d="M64 288v100h484v-100h-484z" />
    <glyph glyph-name="radical" unicode="&#x221a;" 
d="M256 0l-140 423h-90v103h185l57 -195q8 -27 22.5 -83.5t27.5 -96.5h2q9 35 22.5 93.5t24.5 98.5l88 342h126l-208 -685h-117z" />
    <glyph glyph-name="infinity" unicode="&#x221e;" 
d="M147 136q-68 0 -104.5 49t-36.5 119q0 78 39 124.5t106 46.5q47 0 84.5 -23t71.5 -79q34 57 71 79.5t85 22.5q66 0 105.5 -46.5t39.5 -124.5q0 -70 -37.5 -119t-103.5 -49q-103 0 -160 107q-57 -107 -160 -107zM157 232q58 0 101 73v2q-46 74 -101 74q-31 0 -48 -21
t-17 -53t17 -53.5t48 -21.5zM457 232q31 0 48 21.5t17 53.5t-17 53t-48 21q-57 0 -101 -74v-2q43 -73 101 -73z" />
    <glyph glyph-name="integral" unicode="&#x222b;" 
d="M146 -173q-51 0 -86 5l10 90q15 -3 48 -3q58 0 83.5 22t29.5 69l42 526q4 59 14 95.5t32 62t57.5 36t90.5 10.5q51 0 86 -5l-10 -90q-23 3 -48 3q-58 0 -83.5 -22t-29.5 -69l-42 -526q-10 -117 -48.5 -160.5t-145.5 -43.5z" />
    <glyph glyph-name="approxequal" unicode="&#x2248;" 
d="M414 147q-15 0 -30.5 3.5t-24 7t-26 11.5t-24.5 11l-35 16q-50 22 -71 22q-26 0 -43.5 -14.5t-40.5 -48.5l-61 51q62 109 143 109q15 0 30.5 -3.5t24 -7t26 -11.5t24.5 -11l35 -16q49 -22 71 -22q26 0 45 15t41 47l61 -51q-61 -108 -145 -108zM414 377q-15 0 -30.5 3.5
t-24 7t-26 11.5t-24.5 11l-35 16q-49 22 -71 22q-26 0 -43.5 -14.5t-40.5 -48.5l-61 51q62 109 143 109q15 0 30.5 -3.5t24 -7t26 -11.5t24.5 -11l35 -16q49 -22 71 -22q26 0 45 15t41 47l61 -51q-61 -108 -145 -108z" />
    <glyph glyph-name="notequal" unicode="&#x2260;" 
d="M88 60l79 134h-103v93h159l57 96h-216v94h272l78 131h110l-78 -131h102v-94h-158l-57 -96h215v-93h-271l-79 -134h-110z" />
    <glyph glyph-name="lessequal" unicode="&#x2264;" 
d="M504 251v-117q-67 30 -198 88t-198 88v91l396 179v-115q-217 -84 -265 -104v-3q7 -3 57.5 -23t108 -43t99.5 -41zM108 0v107h396v-107h-396z" />
    <glyph glyph-name="greaterequal" unicode="&#x2265;" 
d="M108 134v117q42 18 99.5 41t108 43t57.5 23v3q-48 20 -265 104v115l396 -179v-91q-67 -30 -198 -88t-198 -88zM108 0v107h396v-107h-396z" />
    <glyph glyph-name="lozenge" unicode="&#x25ca;" 
d="M255 0l-220 341l220 344h104l219 -344l-219 -341h-104zM307 109l142 232l-142 235l-143 -235z" />
    <glyph glyph-name="uni25CF" unicode="&#x25cf;" 
d="M175 339q0 54 38.5 93t92.5 39q56 0 94 -38.5t38 -93.5t-38 -93.5t-94 -38.5q-54 0 -92.5 39t-38.5 93z" />
    <glyph glyph-name="uniFB00" unicode="&#xfb00;" 
d="M97 0v430h-91v89h91v65q0 80 34.5 113t113.5 33h75l-2 -90h-48q-42 0 -54 -14t-12 -59v-48h180v65q0 80 34.5 113t113.5 33h75l-2 -90h-48q-42 0 -54 -14t-12 -59v-48h114v-89h-113v-430h-108v430h-179v-430h-108z" />
    <glyph glyph-name="fi" unicode="&#xfb01;" 
d="M98 0v430h-96v89h96v65q0 80 34.5 113t113.5 33h80l-2 -90h-53q-42 0 -54 -14t-12 -59v-48h327v-519h-108v430h-218v-430h-108zM408 624v106h123v-106h-123z" />
    <glyph glyph-name="fl" unicode="&#xfb02;" 
d="M102 0v429h-96v90h96v64q0 80 34.5 113.5t113.5 33.5h80l-2 -90h-53q-42 0 -54 -14t-12 -59v-48h117v-90h-116v-429h-108zM424 0v730h108v-730h-108z" />
    <glyph glyph-name="uniFB03" unicode="&#xfb03;" 
d="M26 0v430h-63v89h63v75q0 75 31.5 105.5t106.5 30.5h42l-2 -90h-15q-31 0 -44 -14q-12 -13 -12 -49v-58h120v75q0 74 34 105t114 31h31l-2 -90h-14q-31 0 -44 -14q-12 -13 -12 -49v-58h228v-519h-108v430h-119v-430h-108v430h-119v-430h-108zM471 624v106h123v-106h-123z
" />
    <glyph glyph-name="uniFB04" unicode="&#xfb04;" 
d="M26 0v430h-63v89h63v75q0 75 31.5 105.5t106.5 30.5h42l-2 -90h-15q-31 0 -44 -14q-12 -13 -12 -49v-58h120v75q0 74 34 105t114 31h31l-2 -90h-14q-31 0 -44 -14q-12 -13 -12 -49v-58h69v-89h-68v-430h-108v430h-119v-430h-108zM480 0v730h108v-730h-108z" />
    <glyph glyph-name="uniFEFF" unicode="&#xfeff;" horiz-adv-x="0" 
 />
    <glyph glyph-name="i.latn_TRK" 
d="M88 0v89h183v348h-183v89h291v-437h167v-89h-458zM257 610v111h111v-111h-111z" />
    <glyph glyph-name="Ldot.latn_CAT" 
d="M102 0v685h110v-588h302v-97h-412zM404 316v111h111v-111h-111z" />
    <glyph glyph-name="ldot.latn_CAT" 
d="M77 0v89h181v552h-181v89h290v-641h168v-89h-458zM501 318v111h111v-111h-111z" />
    <glyph glyph-name="bracketleft.subs" 
d="M245 -176v572h153v-58h-73q1 -15 1 -44v-368q0 -28 -1 -44q12 1 34 1h39v-59h-153z" />
    <glyph glyph-name="bracketright.subs" 
d="M212 -176v59h40q22 0 33 -1q-1 15 -1 42v371q0 28 1 43h-73v58h155v-572h-155z" />
    <glyph glyph-name="a.subs" 
d="M264 -90q-57 0 -90 26.5t-33 74.5q0 46 29.5 69t101.5 36l55 10q22 4 28 7.5t6 14.5q0 22 -16 34.5t-45 12.5q-59 0 -64 -55l-84 5q4 52 43.5 83.5t106.5 31.5q72 0 108 -31.5t36 -99.5v-197q0 -5 0.5 -10t0.5 -6h-76q-1 5 -1 17v13l-1 1q-37 -37 -105 -37zM286 -31
q36 0 56.5 20t20.5 58v12q0 9 1 13q-1 0 -47 -9q-63 -13 -75 -23q-11 -10 -11 -28q0 -43 55 -43z" />
    <glyph glyph-name="b.subs" 
d="M333 -92q-69 0 -106 51h-2q2 -22 2 -28v-15h-87q1 15 1 48v421h89v-107q0 -10 -0.5 -33t-0.5 -35q39 50 106 50t110 -49.5t43 -126.5q0 -80 -43 -128t-112 -48zM313 -20q39 0 62 28t23 76q0 46 -23 74t-62 28t-62 -28t-23 -74q0 -47 23 -75.5t62 -28.5z" />
    <glyph glyph-name="c.subs" 
d="M315 -92q-79 0 -126 48.5t-47 127.5q0 78 48.5 127t126.5 49q59 0 99 -29t55 -78l-83 -18q-18 52 -71 52q-40 0 -61.5 -27t-21.5 -76t22.5 -76.5t60.5 -27.5q54 0 72 54l82 -19q-15 -49 -56 -78t-100 -29z" />
    <glyph glyph-name="d.subs" 
d="M277 -92q-69 0 -112 48t-43 128q0 78 43 127t111 49q70 0 105 -47q-1 23 -1 63v109h90v-421q0 -36 1 -48h-87v13q0 14 1 29h-1q-37 -50 -107 -50zM296 -20q41 0 64 28.5t23 75.5t-23 74.5t-63 27.5q-39 0 -61.5 -28t-22.5 -74q0 -47 22.5 -75.5t60.5 -28.5z" />
    <glyph glyph-name="e.subs" 
d="M319 -92q-81 0 -129 46.5t-48 127.5q0 78 48 128t127 50q84 0 125.5 -54.5t41.5 -146.5h-254q3 -38 27.5 -60t62.5 -22q59 0 89 46l73 -29q-48 -86 -163 -86zM231 120h165q-2 32 -23 53.5t-57 21.5q-35 0 -57.5 -21t-27.5 -54z" />
    <glyph glyph-name="f.subs" 
d="M143 -84v71h105v194h-108v72h108v30q0 57 25.5 79.5t83.5 22.5h105v-69h-89q-24 0 -31 -8.5t-7 -31.5v-23h126v-72h-125v-194h111v-71h-304z" />
    <glyph glyph-name="g.subs" 
d="M313 -212q-61 0 -103.5 23.5t-60.5 65.5l75 30q27 -49 90 -49q85 0 85 84v5q0 9 2 25h-1q-37 -49 -105 -49q-67 0 -109.5 47t-42.5 121t43.5 121.5t109.5 47.5q71 0 105 -49h1q-1 8 -1 29v13h86q0 -11 -0.5 -29.5t-0.5 -33.5v-244q0 -78 -47 -118t-126 -40zM317 -6
q38 0 60.5 27t22.5 70t-22.5 70t-60.5 27t-60.5 -27t-22.5 -70t22.5 -70t60.5 -27z" />
    <glyph glyph-name="h.subs" 
d="M161 -84v469h90v-130q0 -30 -1 -41q34 46 103 46q58 0 90 -35.5t32 -103.5v-205h-89v163q0 57 -16 81.5t-48 24.5q-71 0 -71 -103v-166h-90z" />
    <glyph glyph-name="i.subs" 
d="M176 -84v71h109v195h-109v71h198v-266h104v-71h-302zM272 303v82h105v-82h-105z" />
    <glyph glyph-name="j.subs" 
d="M155 -207v71h100q26 0 33 9.5t7 40.5v268h-143v71h231v-352q0 -64 -28 -86t-99 -22h-101zM281 302v83h105v-83h-105z" />
    <glyph glyph-name="k.subs" 
d="M161 -84v469h88v-168q0 -21 -0.5 -58.5t-0.5 -50.5q17 19 43.5 49.5t30.5 34.5l51 61h109l-138 -148l148 -189h-112l-95 130l-36 -38v-92h-88z" />
    <glyph glyph-name="l.subs" 
d="M159 -84v71h110v326h-110v72h198v-398h103v-71h-301z" />
    <glyph glyph-name="m.subs" 
d="M46 -84v275q0 39 -1 62h86v-21q0 -15 -1 -23h2q31 51 101 51q69 0 101 -57q37 57 113 57q123 0 123 -146v-198h-89v179q0 90 -61 90q-67 0 -67 -99v-170h-89v177q0 92 -61 92q-37 0 -52 -28t-15 -85v-156h-90z" />
    <glyph glyph-name="n.subs" 
d="M151 -84v271q0 47 -1 66h86v-16q0 -18 -1 -27h2q32 50 105 50q58 0 90.5 -35.5t32.5 -103.5v-205h-90v161q0 58 -14 83t-49 25q-38 0 -54.5 -24.5t-16.5 -78.5v-166h-90z" />
    <glyph glyph-name="o.subs" 
d="M308 -92q-80 0 -129 48.5t-49 126.5q0 79 49.5 128t128.5 49t128 -49t49 -128q0 -78 -49 -126.5t-128 -48.5zM308 -20q41 0 63 27t22 76q0 47 -22 75.5t-63 28.5t-64 -28t-23 -76t22.5 -75.5t64.5 -27.5z" />
    <glyph glyph-name="p.subs" 
d="M143 -212v406q0 41 -1 58h89v-13q0 -18 -1 -29h1q39 50 105 50q68 0 111 -49.5t43 -127.5q0 -80 -43 -128.5t-112 -48.5q-67 0 -102 46h-2q2 -11 2 -49v-115h-90zM316 -22q38 0 60.5 28.5t22.5 74.5q0 48 -22.5 76.5t-61.5 28.5t-62 -28.5t-23 -75.5t23 -75.5t63 -28.5z
" />
    <glyph glyph-name="q.subs" 
d="M380 -212v123v44q-34 -47 -103 -47q-70 0 -112.5 48t-42.5 126q0 79 43.5 128.5t111.5 49.5q67 0 106 -50h1q-1 11 -1 31v11h87q-1 -15 -1 -65v-399h-89zM297 -20q39 0 62.5 28t23.5 74t-23.5 75t-62.5 29t-61.5 -28.5t-22.5 -76.5q0 -46 22.5 -73.5t61.5 -27.5z" />
    <glyph glyph-name="r.subs" 
d="M140 -84v70h99v197h-99v70h177v-23q0 -34 -1 -49h3q10 37 36.5 54.5t78.5 17.5h58v-81h-55q-75 0 -93.5 -30.5t-18.5 -115.5v-40h121v-70h-306z" />
    <glyph glyph-name="s.subs" 
d="M283 -92q-61 0 -100.5 24.5t-50.5 72.5l80 18q19 -51 75 -51t56 36q0 16 -12.5 24t-44.5 15l-40 11q-53 13 -78 34t-25 65q0 49 38.5 76t101.5 27q119 0 142 -90l-79 -17q-12 41 -64 41q-49 0 -49 -31q0 -16 12.5 -24t44.5 -15l34 -8q56 -14 83 -36t27 -65
q0 -52 -41.5 -79.5t-109.5 -27.5z" />
    <glyph glyph-name="t.subs" 
d="M462 -84h-125q-58 0 -81.5 22.5t-23.5 78.5v167h-103v69h103v92h87v-92h143v-70h-143v-159q0 -24 8 -31.5t30 -7.5h105v-69z" />
    <glyph glyph-name="u.subs" 
d="M275 -92q-122 0 -122 133v212h90v-190q0 -82 63 -82q69 0 69 91v181h89v-285q0 -32 1 -52h-86v14q0 17 1 26h-1q-33 -48 -104 -48z" />
    <glyph glyph-name="v.subs" 
d="M254 -84l-120 337h95l46 -151q30 -96 31 -99h2q18 64 29 100l48 150h94l-126 -337h-99z" />
    <glyph glyph-name="w.subs" 
d="M142 -84l-100 337h93l32 -130q20 -83 27 -118h3q12 56 27 115l34 133h98l33 -131q16 -62 27 -118h3q9 45 28 120l33 129h90l-101 -337h-103l-34 133q-5 20 -25 117h-3q-11 -61 -26 -117l-34 -133h-102z" />
    <glyph glyph-name="x.subs" 
d="M130 -84l123 172l-116 165h105l64 -104l65 104h101l-114 -163l124 -174h-105l-72 112l-73 -112h-102z" />
    <glyph glyph-name="y.subs" 
d="M193 -212q-17 0 -26 1l-9 68q9 -1 25 -1q30 0 47.5 12.5t28.5 46.5l-130 338h98l37 -115q11 -31 40 -132h3q7 22 18 63t20 68l37 116h94l-135 -361q-23 -58 -57 -81t-91 -23z" />
    <glyph glyph-name="z.subs" 
d="M157 -84v67l100 114q46 54 73 83v2q-32 -2 -44 -2h-122v73h275v-69l-86 -101l-84 -96v-1q35 1 79 1h99v-71h-290z" />
    <glyph glyph-name="bracketleft.sups" 
d="M245 256v572h153v-58h-73q1 -15 1 -44v-368q0 -28 -1 -44q12 1 34 1h39v-59h-153z" />
    <glyph glyph-name="bracketright.sups" 
d="M212 256v59h40q22 0 33 -1q-1 15 -1 42v371q0 28 1 43h-73v58h155v-572h-155z" />
    <glyph glyph-name="a.sups" 
d="M264 342q-57 0 -90 26.5t-33 74.5q0 46 29.5 69t101.5 36l55 10q22 4 28 7.5t6 14.5q0 22 -16 34.5t-45 12.5q-59 0 -64 -55l-84 5q4 52 43.5 83.5t106.5 31.5q72 0 108 -31.5t36 -99.5v-197q0 -5 0.5 -10t0.5 -6h-76q-1 5 -1 17v13l-1 1q-37 -37 -105 -37zM286 401
q36 0 56.5 20t20.5 58v12q0 9 1 13q-1 0 -47 -9q-63 -13 -75 -23q-11 -10 -11 -28q0 -43 55 -43z" />
    <glyph glyph-name="b.sups" 
d="M333 340q-69 0 -106 51h-2q2 -22 2 -28v-15h-87q1 15 1 48v421h89v-107q0 -10 -0.5 -33t-0.5 -35q39 50 106 50t110 -49.5t43 -126.5q0 -80 -43 -128t-112 -48zM313 412q39 0 62 28t23 76q0 46 -23 74t-62 28t-62 -28t-23 -74q0 -47 23 -75.5t62 -28.5z" />
    <glyph glyph-name="c.sups" 
d="M315 340q-79 0 -126 48.5t-47 127.5q0 78 48.5 127t126.5 49q59 0 99 -29t55 -78l-83 -18q-18 52 -71 52q-40 0 -61.5 -27t-21.5 -76t22.5 -76.5t60.5 -27.5q54 0 72 54l82 -19q-15 -49 -56 -78t-100 -29z" />
    <glyph glyph-name="d.sups" 
d="M277 340q-69 0 -112 48t-43 128q0 78 43 127t111 49q70 0 105 -47q-1 23 -1 63v109h90v-421q0 -36 1 -48h-87v13q0 14 1 29h-1q-37 -50 -107 -50zM296 412q41 0 64 28.5t23 75.5t-23 74.5t-63 27.5q-39 0 -61.5 -28t-22.5 -74q0 -47 22.5 -75.5t60.5 -28.5z" />
    <glyph glyph-name="e.sups" 
d="M319 340q-81 0 -129 46.5t-48 127.5q0 78 48 128t127 50q84 0 125.5 -54.5t41.5 -146.5h-254q3 -38 27.5 -60t62.5 -22q59 0 89 46l73 -29q-48 -86 -163 -86zM231 552h165q-2 32 -23 53.5t-57 21.5q-35 0 -57.5 -21t-27.5 -54z" />
    <glyph glyph-name="f.sups" 
d="M143 348v71h105v194h-108v72h108v30q0 57 25.5 79.5t83.5 22.5h105v-69h-89q-24 0 -31 -8.5t-7 -31.5v-23h126v-72h-125v-194h111v-71h-304z" />
    <glyph glyph-name="g.sups" 
d="M313 220q-61 0 -103.5 23.5t-60.5 65.5l75 30q27 -49 90 -49q85 0 85 84v5q0 9 2 25h-1q-37 -49 -105 -49q-67 0 -109.5 47t-42.5 121t43.5 121.5t109.5 47.5q71 0 105 -49h1q-1 8 -1 29v13h86q0 -11 -0.5 -29.5t-0.5 -33.5v-244q0 -78 -47 -118t-126 -40zM317 426
q38 0 60.5 27t22.5 70t-22.5 70t-60.5 27t-60.5 -27t-22.5 -70t22.5 -70t60.5 -27z" />
    <glyph glyph-name="h.sups" 
d="M161 348v469h90v-130q0 -30 -1 -41q34 46 103 46q58 0 90 -35.5t32 -103.5v-205h-89v163q0 57 -16 81.5t-48 24.5q-71 0 -71 -103v-166h-90z" />
    <glyph glyph-name="i.sups" 
d="M176 348v71h109v195h-109v71h198v-266h104v-71h-302zM272 735v82h105v-82h-105z" />
    <glyph glyph-name="j.sups" 
d="M155 225v71h100q26 0 33 9.5t7 40.5v268h-143v71h231v-352q0 -64 -28 -86t-99 -22h-101zM281 734v83h105v-83h-105z" />
    <glyph glyph-name="k.sups" 
d="M161 348v469h88v-168q0 -21 -0.5 -59t-0.5 -50q17 19 43.5 49.5t30.5 34.5l51 61h109l-138 -148l148 -189h-112l-95 130l-36 -38v-92h-88z" />
    <glyph glyph-name="l.sups" 
d="M159 348v71h110v326h-110v72h198v-398h103v-71h-301z" />
    <glyph glyph-name="m.sups" 
d="M46 348v275q0 39 -1 62h86v-21q0 -15 -1 -23h2q31 51 101 51q69 0 101 -57q37 57 113 57q123 0 123 -146v-198h-89v179q0 90 -61 90q-67 0 -67 -99v-170h-89v177q0 92 -61 92q-37 0 -52 -28t-15 -85v-156h-90z" />
    <glyph glyph-name="o.sups" 
d="M308 340q-80 0 -129 48.5t-49 126.5q0 79 49.5 128t128.5 49t128 -49t49 -128q0 -78 -49 -126.5t-128 -48.5zM308 412q41 0 63 27t22 76q0 47 -22 75.5t-63 28.5t-64 -28t-23 -76t22.5 -75.5t64.5 -27.5z" />
    <glyph glyph-name="p.sups" 
d="M143 220v406q0 41 -1 58h89v-13q0 -18 -1 -29h1q39 50 105 50q68 0 111 -49.5t43 -127.5q0 -80 -43 -128.5t-112 -48.5q-67 0 -102 46h-2q2 -11 2 -49v-115h-90zM316 410q38 0 60.5 28.5t22.5 74.5q0 48 -22.5 76.5t-61.5 28.5t-62 -28.5t-23 -75.5t23 -75.5t63 -28.5z
" />
    <glyph glyph-name="q.sups" 
d="M380 220v123v44q-34 -47 -103 -47q-70 0 -112.5 48t-42.5 126q0 79 43.5 128.5t111.5 49.5q67 0 106 -50h1q-1 11 -1 31v11h87q-1 -15 -1 -65v-399h-89zM297 412q39 0 62.5 28t23.5 74t-23.5 75t-62.5 29t-61.5 -28.5t-22.5 -76.5q0 -46 22.5 -73.5t61.5 -27.5z" />
    <glyph glyph-name="r.sups" 
d="M140 348v70h99v197h-99v70h177v-23q0 -34 -1 -49h3q10 37 36.5 54.5t78.5 17.5h58v-81h-55q-75 0 -93.5 -30.5t-18.5 -115.5v-40h121v-70h-306z" />
    <glyph glyph-name="s.sups" 
d="M283 340q-61 0 -100.5 24.5t-50.5 72.5l80 18q19 -51 75 -51t56 36q0 16 -12.5 24t-44.5 15l-40 11q-53 13 -78 34t-25 65q0 49 38.5 76t101.5 27q119 0 142 -90l-79 -17q-12 41 -64 41q-49 0 -49 -31q0 -16 12.5 -24t44.5 -15l34 -8q56 -14 83 -36t27 -65
q0 -52 -41.5 -79.5t-109.5 -27.5z" />
    <glyph glyph-name="t.sups" 
d="M462 348h-125q-58 0 -81.5 22.5t-23.5 78.5v167h-103v69h103v92h87v-92h143v-70h-143v-159q0 -24 8 -31.5t30 -7.5h105v-69z" />
    <glyph glyph-name="u.sups" 
d="M275 340q-122 0 -122 133v212h90v-190q0 -82 63 -82q69 0 69 91v181h89v-285q0 -32 1 -52h-86v14q0 17 1 26h-1q-33 -48 -104 -48z" />
    <glyph glyph-name="v.sups" 
d="M254 348l-120 337h95l46 -151q30 -96 31 -99h2q18 64 29 100l48 150h94l-126 -337h-99z" />
    <glyph glyph-name="w.sups" 
d="M142 348l-100 337h93l32 -130q20 -83 27 -118h3q12 56 27 115l34 133h98l33 -131q16 -62 27 -118h3q9 45 28 120l33 129h90l-101 -337h-103l-34 133q-5 20 -25 117h-3q-11 -61 -26 -117l-34 -133h-102z" />
    <glyph glyph-name="x.sups" 
d="M130 348l123 172l-116 165h105l64 -104l65 104h101l-114 -163l124 -174h-105l-72 112l-73 -112h-102z" />
    <glyph glyph-name="y.sups" 
d="M193 220q-17 0 -26 1l-9 68q9 -1 25 -1q30 0 47.5 12.5t28.5 46.5l-130 338h98l37 -115q11 -31 40 -132h3q7 22 18 63t20 68l37 116h94l-135 -361q-23 -58 -57 -81t-91 -23z" />
    <glyph glyph-name="z.sups" 
d="M157 348v67l100 114q46 54 73 83v2q-32 -2 -44 -2h-122v73h275v-69l-86 -101l-84 -96v-1q35 1 79 1h99v-71h-290z" />
    <glyph glyph-name="zero.numr" 
d="M306 210q-174 0 -174 242q0 113 42 179.5t131 66.5q90 0 132.5 -66.5t42.5 -179.5q0 -242 -174 -242zM307 289q76 0 76 164q0 82 -17 124t-60 42t-60.5 -42.5t-17.5 -124.5q0 -163 79 -163zM264 411v86h83v-86h-83z" />
    <glyph glyph-name="one.numr" 
d="M167 218v74h103v253h-113v64q60 2 88.5 18.5t34.5 59.5h81v-395h93v-74h-287z" />
    <glyph glyph-name="two.numr" 
d="M146 218v72q39 37 136 118q55 47 75 75t20 63q0 31 -17.5 50.5t-49.5 19.5q-70 0 -75 -90l-90 2q0 76 45.5 123t121.5 47q75 0 118 -39t43 -107q0 -54 -30 -97t-87 -88q-25 -20 -53 -41.5t-37 -28.5v-2h30q7 1 48 1h131v-78h-329z" />
    <glyph glyph-name="three.numr" 
d="M307 210q-78 0 -123 40.5t-48 114.5l93 3q5 -83 78 -83q35 0 55 20t20 51q0 34 -23.5 52.5t-64.5 18.5h-24v72h18q35 0 56.5 15.5t21.5 47.5q0 25 -15.5 41.5t-41.5 16.5q-68 0 -68 -74l-92 6q4 67 46.5 106.5t113.5 39.5t112.5 -35t41.5 -91q0 -76 -69 -103
q84 -31 84 -115q0 -65 -47.5 -104.5t-123.5 -39.5z" />
    <glyph glyph-name="four.numr" 
d="M328 218v93h-197v67l106 309h88l-103 -302h106v170h82v-170h72v-74h-72v-93h-82z" />
    <glyph glyph-name="five.numr" 
d="M303 210q-74 0 -116.5 37.5t-51.5 102.5l92 5q14 -69 77 -69q37 0 57 24t20 64q0 39 -19.5 61.5t-54.5 22.5q-52 0 -71 -43l-88 9l23 263h276v-78h-204q-2 -40 -5 -60l-5 -47q37 32 89 32q69 0 111 -43.5t42 -114.5q0 -75 -47 -120.5t-125 -45.5z" />
    <glyph glyph-name="six.numr" 
d="M311 210q-87 0 -133 58.5t-46 165.5q0 122 47.5 193t137.5 71q66 0 105 -36.5t48 -96.5l-92 -3q-13 56 -63 56q-42 0 -64.5 -38.5t-24.5 -101.5h2q34 48 102 48t108.5 -43t40.5 -112q0 -70 -46.5 -115.5t-121.5 -45.5zM310 283q35 0 56 23.5t21 62.5q0 38 -21 60.5
t-57 22.5t-57.5 -23t-21.5 -60q0 -38 22 -62t58 -24z" />
    <glyph glyph-name="seven.numr" 
d="M303 218h-104q55 204 171 386v1h-57h-165v82h322v-76q-50 -72 -94.5 -179.5t-72.5 -213.5z" />
    <glyph glyph-name="eight.numr" 
d="M306 210q-80 0 -127 37.5t-47 102.5q0 82 86 117q-71 38 -71 105q0 55 43.5 90.5t115.5 35.5q71 0 114 -35.5t43 -90.5q0 -70 -70 -103v-2q87 -35 87 -117q0 -65 -47.5 -102.5t-126.5 -37.5zM306 282q36 0 57.5 21t21.5 54t-21.5 53t-57.5 20q-38 0 -59.5 -20t-21.5 -53
t22 -54t59 -21zM306 500q32 0 50.5 17t18.5 46q0 27 -18.5 44t-50.5 17q-33 0 -52 -17t-19 -44q0 -29 19 -46t52 -17z" />
    <glyph glyph-name="nine.numr" 
d="M294 210q-139 0 -157 131l91 4q13 -58 66 -58q37 0 62 39t25 105h-1q-36 -47 -102 -47t-106.5 41.5t-40.5 110.5q0 70 46 116t120 46q86 0 131.5 -60t45.5 -169q0 -123 -45.5 -191t-134.5 -68zM299 456q35 0 56.5 23t21.5 59q0 38 -21.5 61t-56.5 23q-36 0 -57.5 -23
t-21.5 -60q0 -36 21.5 -59.5t57.5 -23.5z" />
    <glyph glyph-name="bracketleft.numr" 
d="M245 126v572h153v-58h-73q1 -15 1 -44v-368q0 -28 -1 -44q12 1 34 1h39v-59h-153z" />
    <glyph glyph-name="bracketright.numr" 
d="M212 126v59h40q22 0 33 -1q-1 15 -1 42v371q0 28 1 43h-73v58h155v-572h-155z" />
    <glyph glyph-name="a.numr" 
d="M264 212q-57 0 -90 26.5t-33 74.5q0 46 29.5 69t101.5 36l55 10q22 4 28 7.5t6 14.5q0 22 -16 34.5t-45 12.5q-59 0 -64 -55l-84 5q4 52 43.5 83.5t106.5 31.5q72 0 108 -31.5t36 -99.5v-197q0 -5 0.5 -10t0.5 -6h-76q-1 5 -1 17v13l-1 1q-37 -37 -105 -37zM286 271
q36 0 56.5 20t20.5 58v12q0 9 1 13q-1 0 -47 -9q-63 -13 -75 -23q-11 -10 -11 -28q0 -43 55 -43z" />
    <glyph glyph-name="b.numr" 
d="M333 210q-69 0 -106 51h-2q2 -22 2 -28v-15h-87q1 15 1 48v421h89v-107q0 -10 -0.5 -33t-0.5 -35q39 50 106 50t110 -49.5t43 -126.5q0 -80 -43 -128t-112 -48zM313 282q39 0 62 28t23 76q0 46 -23 74t-62 28t-62 -28t-23 -74q0 -47 23 -75.5t62 -28.5z" />
    <glyph glyph-name="c.numr" 
d="M315 210q-79 0 -126 48.5t-47 127.5q0 78 48.5 127t126.5 49q59 0 99 -29t55 -78l-83 -18q-18 52 -71 52q-40 0 -61.5 -27t-21.5 -76t22.5 -76.5t60.5 -27.5q54 0 72 54l82 -19q-15 -49 -56 -78t-100 -29z" />
    <glyph glyph-name="d.numr" 
d="M277 210q-69 0 -112 48t-43 128q0 78 43 127t111 49q70 0 105 -47q-1 23 -1 63v109h90v-421q0 -36 1 -48h-87v13q0 14 1 29h-1q-37 -50 -107 -50zM296 282q41 0 64 28.5t23 75.5t-23 74.5t-63 27.5q-39 0 -61.5 -28t-22.5 -74q0 -47 22.5 -75.5t60.5 -28.5z" />
    <glyph glyph-name="e.numr" 
d="M319 210q-81 0 -129 46.5t-48 127.5q0 78 48 128t127 50q84 0 125.5 -54.5t41.5 -146.5h-254q3 -38 27.5 -60t62.5 -22q59 0 89 46l73 -29q-48 -86 -163 -86zM231 422h165q-2 32 -23 53.5t-57 21.5q-35 0 -57.5 -21t-27.5 -54z" />
    <glyph glyph-name="f.numr" 
d="M143 218v71h105v194h-108v72h108v30q0 57 25.5 79.5t83.5 22.5h105v-69h-89q-24 0 -31 -8.5t-7 -31.5v-23h126v-72h-125v-194h111v-71h-304z" />
    <glyph glyph-name="g.numr" 
d="M313 90q-61 0 -103.5 23.5t-60.5 65.5l75 30q27 -49 90 -49q85 0 85 84v5q0 9 2 25h-1q-37 -49 -105 -49q-67 0 -109.5 47t-42.5 121t43.5 121.5t109.5 47.5q71 0 105 -49h1q-1 8 -1 29v13h86q0 -11 -0.5 -29.5t-0.5 -33.5v-244q0 -78 -47 -118t-126 -40zM317 296
q38 0 60.5 27t22.5 70t-22.5 70t-60.5 27t-60.5 -27t-22.5 -70t22.5 -70t60.5 -27z" />
    <glyph glyph-name="h.numr" 
d="M161 218v469h90v-130q0 -30 -1 -41q34 46 103 46q58 0 90 -35.5t32 -103.5v-205h-89v163q0 57 -16 81.5t-48 24.5q-71 0 -71 -103v-166h-90z" />
    <glyph glyph-name="i.numr" 
d="M176 218v71h109v195h-109v71h198v-266h104v-71h-302zM272 605v82h105v-82h-105z" />
    <glyph glyph-name="j.numr" 
d="M155 95v71h100q26 0 33 9.5t7 40.5v268h-143v71h231v-352q0 -64 -28 -86t-99 -22h-101zM281 604v83h105v-83h-105z" />
    <glyph glyph-name="k.numr" 
d="M161 218v469h88v-168q0 -21 -0.5 -59t-0.5 -50q17 19 43.5 49.5t30.5 34.5l51 61h109l-138 -148l148 -189h-112l-95 130l-36 -38v-92h-88z" />
    <glyph glyph-name="l.numr" 
d="M159 218v71h110v326h-110v72h198v-398h103v-71h-301z" />
    <glyph glyph-name="m.numr" 
d="M46 218v275q0 39 -1 62h86v-21q0 -15 -1 -23h2q31 51 101 51q69 0 101 -57q37 57 113 57q123 0 123 -146v-198h-89v179q0 90 -61 90q-67 0 -67 -99v-170h-89v177q0 92 -61 92q-37 0 -52 -28t-15 -85v-156h-90z" />
    <glyph glyph-name="n.numr" 
d="M151 218v271q0 47 -1 66h86v-16q0 -18 -1 -27h2q32 50 105 50q58 0 90.5 -35.5t32.5 -103.5v-205h-90v161q0 58 -14 83t-49 25q-38 0 -54.5 -24.5t-16.5 -78.5v-166h-90z" />
    <glyph glyph-name="o.numr" 
d="M308 210q-80 0 -129 48.5t-49 126.5q0 79 49.5 128t128.5 49t128 -49t49 -128q0 -78 -49 -126.5t-128 -48.5zM308 282q41 0 63 27t22 76q0 47 -22 75.5t-63 28.5t-64 -28t-23 -76t22.5 -75.5t64.5 -27.5z" />
    <glyph glyph-name="p.numr" 
d="M143 90v406q0 41 -1 58h89v-13q0 -18 -1 -29h1q39 50 105 50q68 0 111 -49.5t43 -127.5q0 -80 -43 -128.5t-112 -48.5q-67 0 -102 46h-2q2 -11 2 -49v-115h-90zM316 280q38 0 60.5 28.5t22.5 74.5q0 48 -22.5 76.5t-61.5 28.5t-62 -28.5t-23 -75.5t23 -75.5t63 -28.5z
" />
    <glyph glyph-name="q.numr" 
d="M380 90v123v44q-34 -47 -103 -47q-70 0 -112.5 48t-42.5 126q0 79 43.5 128.5t111.5 49.5q67 0 106 -50h1q-1 11 -1 31v11h87q-1 -15 -1 -65v-399h-89zM297 282q39 0 62.5 28t23.5 74t-23.5 75t-62.5 29t-61.5 -28.5t-22.5 -76.5q0 -46 22.5 -73.5t61.5 -27.5z" />
    <glyph glyph-name="r.numr" 
d="M140 218v70h99v197h-99v70h177v-23q0 -34 -1 -49h3q10 37 36.5 54.5t78.5 17.5h58v-81h-55q-75 0 -93.5 -30.5t-18.5 -115.5v-40h121v-70h-306z" />
    <glyph glyph-name="s.numr" 
d="M283 210q-61 0 -100.5 24.5t-50.5 72.5l80 18q19 -51 75 -51t56 36q0 16 -12.5 24t-44.5 15l-40 11q-53 13 -78 34t-25 65q0 49 38.5 76t101.5 27q119 0 142 -90l-79 -17q-12 41 -64 41q-49 0 -49 -31q0 -16 12.5 -24t44.5 -15l34 -8q56 -14 83 -36t27 -65
q0 -52 -41.5 -79.5t-109.5 -27.5z" />
    <glyph glyph-name="t.numr" 
d="M462 218h-125q-58 0 -81.5 22.5t-23.5 78.5v167h-103v69h103v92h87v-92h143v-70h-143v-159q0 -24 8 -31.5t30 -7.5h105v-69z" />
    <glyph glyph-name="u.numr" 
d="M275 210q-122 0 -122 133v212h90v-190q0 -82 63 -82q69 0 69 91v181h89v-285q0 -32 1 -52h-86v14q0 17 1 26h-1q-33 -48 -104 -48z" />
    <glyph glyph-name="v.numr" 
d="M254 218l-120 337h95l46 -151q30 -96 31 -99h2q18 64 29 100l48 150h94l-126 -337h-99z" />
    <glyph glyph-name="w.numr" 
d="M142 218l-100 337h93l32 -130q20 -83 27 -118h3q12 56 27 115l34 133h98l33 -131q16 -62 27 -118h3q9 45 28 120l33 129h90l-101 -337h-103l-34 133q-5 20 -25 117h-3q-11 -61 -26 -117l-34 -133h-102z" />
    <glyph glyph-name="x.numr" 
d="M130 218l123 172l-116 165h105l64 -104l65 104h101l-114 -163l124 -174h-105l-72 112l-73 -112h-102z" />
    <glyph glyph-name="y.numr" 
d="M193 90q-17 0 -26 1l-9 68q9 -1 25 -1q30 0 47.5 12.5t28.5 46.5l-130 338h98l37 -115q11 -31 40 -132h3q7 22 18 63t20 68l37 116h94l-135 -361q-23 -58 -57 -81t-91 -23z" />
    <glyph glyph-name="z.numr" 
d="M157 218v67l100 114q46 54 73 83v2q-32 -2 -44 -2h-122v73h275v-69l-86 -101l-84 -96v-1q35 1 79 1h99v-71h-290z" />
    <glyph glyph-name="uni208D.numr" 
d="M413 125l-69 -5q-104 133 -104 286q0 154 104 289l69 -5q-84 -134 -84 -283t84 -282z" />
    <glyph glyph-name="uni208E.numr" 
d="M309 120l-69 5q83 134 83 282q0 149 -83 283l69 5q103 -137 103 -289q0 -150 -103 -286z" />
    <glyph glyph-name="zero.dnom" 
d="M306 -8q-174 0 -174 242q0 113 42 179.5t131 66.5q90 0 132.5 -66.5t42.5 -179.5q0 -242 -174 -242zM307 71q76 0 76 164q0 82 -17 124t-60 42t-60.5 -42.5t-17.5 -124.5q0 -163 79 -163zM264 193v86h83v-86h-83z" />
    <glyph glyph-name="one.dnom" 
d="M167 0v74h103v253h-113v64q60 2 88.5 18.5t34.5 59.5h81v-395h93v-74h-287z" />
    <glyph glyph-name="two.dnom" 
d="M146 0v72q39 37 136 118q55 47 75 75t20 63q0 31 -17.5 50.5t-49.5 19.5q-70 0 -75 -90l-90 2q0 76 45.5 123t121.5 47q75 0 118 -39t43 -107q0 -54 -30 -97t-87 -88q-25 -20 -53 -41.5t-37 -28.5v-2h30q7 1 48 1h131v-78h-329z" />
    <glyph glyph-name="three.dnom" 
d="M307 -8q-78 0 -123 40.5t-48 114.5l93 3q5 -83 78 -83q35 0 55 20t20 51q0 34 -23.5 52.5t-64.5 18.5h-24v72h18q35 0 56.5 15.5t21.5 47.5q0 25 -15.5 41.5t-41.5 16.5q-68 0 -68 -74l-92 6q4 67 46.5 106.5t113.5 39.5t112.5 -35t41.5 -91q0 -76 -69 -103
q84 -31 84 -115q0 -65 -47.5 -104.5t-123.5 -39.5z" />
    <glyph glyph-name="four.dnom" 
d="M328 0v93h-197v67l106 309h88l-103 -302h106v170h82v-170h72v-74h-72v-93h-82z" />
    <glyph glyph-name="five.dnom" 
d="M303 -8q-74 0 -116.5 37.5t-51.5 102.5l92 5q14 -69 77 -69q37 0 57 24t20 64q0 39 -19.5 61.5t-54.5 22.5q-52 0 -71 -43l-88 9l23 263h276v-78h-204q-2 -40 -5 -60l-5 -47q37 32 89 32q69 0 111 -43.5t42 -114.5q0 -75 -47 -120.5t-125 -45.5z" />
    <glyph glyph-name="six.dnom" 
d="M311 -8q-87 0 -133 58.5t-46 165.5q0 122 47.5 193t137.5 71q66 0 105 -36.5t48 -96.5l-92 -3q-13 56 -63 56q-42 0 -64.5 -38.5t-24.5 -101.5h2q34 48 102 48t108.5 -43t40.5 -112q0 -70 -46.5 -115.5t-121.5 -45.5zM310 65q35 0 56 23.5t21 62.5q0 38 -21 60.5
t-57 22.5t-57.5 -23t-21.5 -60q0 -38 22 -62t58 -24z" />
    <glyph glyph-name="seven.dnom" 
d="M303 0h-104q55 204 171 386v1h-57h-165v82h322v-76q-50 -72 -94.5 -179.5t-72.5 -213.5z" />
    <glyph glyph-name="eight.dnom" 
d="M306 -8q-80 0 -127 37.5t-47 102.5q0 82 86 117q-71 38 -71 105q0 55 43.5 90.5t115.5 35.5q71 0 114 -35.5t43 -90.5q0 -70 -70 -103v-2q87 -35 87 -117q0 -65 -47.5 -102.5t-126.5 -37.5zM306 64q36 0 57.5 21t21.5 54t-21.5 53t-57.5 20q-38 0 -59.5 -20t-21.5 -53
t22 -54t59 -21zM306 282q32 0 50.5 17t18.5 46q0 27 -18.5 44t-50.5 17q-33 0 -52 -17t-19 -44q0 -29 19 -46t52 -17z" />
    <glyph glyph-name="nine.dnom" 
d="M294 -8q-139 0 -157 131l91 4q13 -58 66 -58q37 0 62 39t25 105h-1q-36 -47 -102 -47t-106.5 41.5t-40.5 110.5q0 70 46 116t120 46q86 0 131.5 -60t45.5 -169q0 -123 -45.5 -191t-134.5 -68zM299 238q35 0 56.5 23t21.5 59q0 38 -21.5 61t-56.5 23q-36 0 -57.5 -23
t-21.5 -60q0 -36 21.5 -59.5t57.5 -23.5z" />
    <glyph glyph-name="bracketleft.dnom" 
d="M245 -92v572h153v-58h-73q1 -15 1 -44v-368q0 -28 -1 -44q12 1 34 1h39v-59h-153z" />
    <glyph glyph-name="bracketright.dnom" 
d="M212 -92v59h40q22 0 33 -1q-1 15 -1 42v371q0 28 1 43h-73v58h155v-572h-155z" />
    <glyph glyph-name="a.dnom" 
d="M264 -6q-57 0 -90 26.5t-33 74.5q0 46 29.5 69t101.5 36l55 10q22 4 28 7.5t6 14.5q0 22 -16 34.5t-45 12.5q-59 0 -64 -55l-84 5q4 52 43.5 83.5t106.5 31.5q72 0 108 -31.5t36 -99.5v-197q0 -5 0.5 -10t0.5 -6h-76q-1 5 -1 17v13l-1 1q-37 -37 -105 -37zM286 53
q36 0 56.5 20t20.5 58v12q0 9 1 13q-1 0 -47 -9q-63 -13 -75 -23q-11 -10 -11 -28q0 -43 55 -43z" />
    <glyph glyph-name="b.dnom" 
d="M333 -8q-69 0 -106 51h-2q2 -22 2 -28v-15h-87q1 15 1 48v421h89v-107q0 -10 -0.5 -33t-0.5 -35q39 50 106 50t110 -49.5t43 -126.5q0 -80 -43 -128t-112 -48zM313 64q39 0 62 28t23 76q0 46 -23 74t-62 28t-62 -28t-23 -74q0 -47 23 -75.5t62 -28.5z" />
    <glyph glyph-name="c.dnom" 
d="M315 -8q-79 0 -126 48.5t-47 127.5q0 78 48.5 127t126.5 49q59 0 99 -29t55 -78l-83 -18q-18 52 -71 52q-40 0 -61.5 -27t-21.5 -76t22.5 -76.5t60.5 -27.5q54 0 72 54l82 -19q-15 -49 -56 -78t-100 -29z" />
    <glyph glyph-name="d.dnom" 
d="M277 -8q-69 0 -112 48t-43 128q0 78 43 127t111 49q70 0 105 -47q-1 23 -1 63v109h90v-421q0 -36 1 -48h-87v13q0 14 1 29h-1q-37 -50 -107 -50zM296 64q41 0 64 28.5t23 75.5t-23 74.5t-63 27.5q-39 0 -61.5 -28t-22.5 -74q0 -47 22.5 -75.5t60.5 -28.5z" />
    <glyph glyph-name="e.dnom" 
d="M319 -8q-81 0 -129 46.5t-48 127.5q0 78 48 128t127 50q84 0 125.5 -54.5t41.5 -146.5h-254q3 -38 27.5 -60t62.5 -22q59 0 89 46l73 -29q-48 -86 -163 -86zM231 204h165q-2 32 -23 53.5t-57 21.5q-35 0 -57.5 -21t-27.5 -54z" />
    <glyph glyph-name="f.dnom" 
d="M143 0v71h105v194h-108v72h108v30q0 57 25.5 79.5t83.5 22.5h105v-69h-89q-24 0 -31 -8.5t-7 -31.5v-23h126v-72h-125v-194h111v-71h-304z" />
    <glyph glyph-name="g.dnom" 
d="M313 -128q-61 0 -103.5 23.5t-60.5 65.5l75 30q27 -49 90 -49q85 0 85 84v5q0 9 2 25h-1q-37 -49 -105 -49q-67 0 -109.5 47t-42.5 121t43.5 121.5t109.5 47.5q71 0 105 -49h1q-1 8 -1 29v13h86q0 -11 -0.5 -29.5t-0.5 -33.5v-244q0 -78 -47 -118t-126 -40zM317 78
q38 0 60.5 27t22.5 70t-22.5 70t-60.5 27t-60.5 -27t-22.5 -70t22.5 -70t60.5 -27z" />
    <glyph glyph-name="h.dnom" 
d="M161 0v469h90v-130q0 -30 -1 -41q34 46 103 46q58 0 90 -35.5t32 -103.5v-205h-89v163q0 57 -16 81.5t-48 24.5q-71 0 -71 -103v-166h-90z" />
    <glyph glyph-name="i.dnom" 
d="M176 0v71h109v195h-109v71h198v-266h104v-71h-302zM272 387v82h105v-82h-105z" />
    <glyph glyph-name="j.dnom" 
d="M155 -123v71h100q26 0 33 9.5t7 40.5v268h-143v71h231v-352q0 -64 -28 -86t-99 -22h-101zM281 386v83h105v-83h-105z" />
    <glyph glyph-name="k.dnom" 
d="M161 0v469h88v-168q0 -21 -0.5 -59t-0.5 -50q17 19 43.5 49.5t30.5 34.5l51 61h109l-138 -148l148 -189h-112l-95 130l-36 -38v-92h-88z" />
    <glyph glyph-name="l.dnom" 
d="M159 0v71h110v326h-110v72h198v-398h103v-71h-301z" />
    <glyph glyph-name="m.dnom" 
d="M46 0v275q0 39 -1 62h86v-21q0 -15 -1 -23h2q31 51 101 51q69 0 101 -57q37 57 113 57q123 0 123 -146v-198h-89v179q0 90 -61 90q-67 0 -67 -99v-170h-89v177q0 92 -61 92q-37 0 -52 -28t-15 -85v-156h-90z" />
    <glyph glyph-name="n.dnom" 
d="M151 0v271q0 47 -1 66h86v-16q0 -18 -1 -27h2q32 50 105 50q58 0 90.5 -35.5t32.5 -103.5v-205h-90v161q0 58 -14 83t-49 25q-38 0 -54.5 -24.5t-16.5 -78.5v-166h-90z" />
    <glyph glyph-name="o.dnom" 
d="M308 -8q-80 0 -129 48.5t-49 126.5q0 79 49.5 128t128.5 49t128 -49t49 -128q0 -78 -49 -126.5t-128 -48.5zM308 64q41 0 63 27t22 76q0 47 -22 75.5t-63 28.5t-64 -28t-23 -76t22.5 -75.5t64.5 -27.5z" />
    <glyph glyph-name="p.dnom" 
d="M143 -128v406q0 41 -1 58h89v-13q0 -18 -1 -29h1q39 50 105 50q68 0 111 -49.5t43 -127.5q0 -80 -43 -128.5t-112 -48.5q-67 0 -102 46h-2q2 -11 2 -49v-115h-90zM316 62q38 0 60.5 28.5t22.5 74.5q0 48 -22.5 76.5t-61.5 28.5t-62 -28.5t-23 -75.5t23 -75.5t63 -28.5z
" />
    <glyph glyph-name="q.dnom" 
d="M380 -128v123v44q-34 -47 -103 -47q-70 0 -112.5 48t-42.5 126q0 79 43.5 128.5t111.5 49.5q67 0 106 -50h1q-1 11 -1 31v11h87q-1 -15 -1 -65v-399h-89zM297 64q39 0 62.5 28t23.5 74t-23.5 75t-62.5 29t-61.5 -28.5t-22.5 -76.5q0 -46 22.5 -73.5t61.5 -27.5z" />
    <glyph glyph-name="r.dnom" 
d="M140 0v70h99v197h-99v70h177v-23q0 -34 -1 -49h3q10 37 36.5 54.5t78.5 17.5h58v-81h-55q-75 0 -93.5 -30.5t-18.5 -115.5v-40h121v-70h-306z" />
    <glyph glyph-name="s.dnom" 
d="M283 -8q-61 0 -100.5 24.5t-50.5 72.5l80 18q19 -51 75 -51t56 36q0 16 -12.5 24t-44.5 15l-40 11q-53 13 -78 34t-25 65q0 49 38.5 76t101.5 27q119 0 142 -90l-79 -17q-12 41 -64 41q-49 0 -49 -31q0 -16 12.5 -24t44.5 -15l34 -8q56 -14 83 -36t27 -65
q0 -52 -41.5 -79.5t-109.5 -27.5z" />
    <glyph glyph-name="t.dnom" 
d="M462 0h-125q-58 0 -81.5 22.5t-23.5 78.5v167h-103v69h103v92h87v-92h143v-70h-143v-159q0 -24 8 -31.5t30 -7.5h105v-69z" />
    <glyph glyph-name="u.dnom" 
d="M275 -8q-122 0 -122 133v212h90v-190q0 -82 63 -82q69 0 69 91v181h89v-285q0 -32 1 -52h-86v14q0 17 1 26h-1q-33 -48 -104 -48z" />
    <glyph glyph-name="v.dnom" 
d="M254 0l-120 337h95l46 -151q30 -96 31 -99h2q18 64 29 100l48 150h94l-126 -337h-99z" />
    <glyph glyph-name="w.dnom" 
d="M142 0l-100 337h93l32 -130q20 -83 27 -118h3q12 56 27 115l34 133h98l33 -131q16 -62 27 -118h3q9 45 28 120l33 129h90l-101 -337h-103l-34 133q-5 20 -25 117h-3q-11 -61 -26 -117l-34 -133h-102z" />
    <glyph glyph-name="x.dnom" 
d="M130 0l123 172l-116 165h105l64 -104l65 104h101l-114 -163l124 -174h-105l-72 112l-73 -112h-102z" />
    <glyph glyph-name="y.dnom" 
d="M193 -128q-17 0 -26 1l-9 68q9 -1 25 -1q30 0 47.5 12.5t28.5 46.5l-130 338h98l37 -115q11 -31 40 -132h3q7 22 18 63t20 68l37 116h94l-135 -361q-23 -58 -57 -81t-91 -23z" />
    <glyph glyph-name="z.dnom" 
d="M157 0v67l100 114q46 54 73 83v2q-32 -2 -44 -2h-122v73h275v-69l-86 -101l-84 -96v-1q35 1 79 1h99v-71h-290z" />
    <glyph glyph-name="uni208D.dnom" 
d="M413 -93l-69 -5q-104 133 -104 286q0 154 104 289l69 -5q-84 -134 -84 -283t84 -282z" />
    <glyph glyph-name="uni208E.dnom" 
d="M309 -98l-69 5q83 134 83 282q0 149 -83 283l69 5q103 -137 103 -289q0 -150 -103 -286z" />
    <glyph glyph-name="space.frac" 
 />
    <glyph glyph-name="parenleft.case" 
d="M448 -101l-100 -4q-86 90 -135 206t-49 241q0 124 48.5 240t135.5 207l100 -5q-168 -186 -168 -442q0 -260 168 -443z" />
    <glyph glyph-name="parenright.case" 
d="M264 -115l-100 4q168 186 168 443q0 256 -168 442l100 5q87 -91 135.5 -207t48.5 -240q0 -125 -49 -241t-135 -206z" />
    <glyph glyph-name="hyphen.case" 
d="M161 289v107h290v-107h-290z" />
    <glyph glyph-name="at.case" 
d="M336 -9q-151 0 -235 93t-84 258q0 168 82 261t219 93q133 0 205.5 -80.5t72.5 -230.5q0 -125 -35 -176t-85 -51q-29 0 -47.5 15.5t-20.5 41.5h-3q-36 -57 -107 -57q-65 0 -106 49t-41 129t41.5 130t105.5 50q72 0 104 -53h1q-1 17 -1 47h68v-280q0 -16 16 -16
q11 0 20.5 14t17 51t7.5 92q0 44 -5 80t-19.5 71t-37.5 59t-61 38.5t-88 14.5q-109 0 -170.5 -76.5t-61.5 -218.5q0 -131 63 -209.5t183 -78.5q86 0 166 36l20 -53q-83 -43 -184 -43zM311 219q42 0 67.5 32.5t25.5 86.5q0 51 -25 83.5t-67 32.5q-41 0 -65.5 -32.5
t-24.5 -84.5q0 -54 24 -86t65 -32z" />
    <glyph glyph-name="bracketleft.case" 
d="M179 -104v892h263v-74h-156q1 -29 1 -84v-577q0 -54 -1 -83q25 1 73 1h83v-75h-263z" />
    <glyph glyph-name="bracketright.case" 
d="M171 -105v75h83q48 0 73 -1q-1 29 -1 83v577q0 55 1 84h-156v74h263v-892h-263z" />
    <glyph glyph-name="grave.case" 
d="M314 773l-121 129h144l83 -129h-106z" />
    <glyph glyph-name="braceleft.case" 
d="M498 -104h-101q-83 0 -109.5 34t-26.5 115v126q0 68 -30 99t-97 35v73q67 4 97 35t30 99v126q0 81 26.5 115t109.5 34h101v-74h-64q-42 0 -55.5 -20.5t-13.5 -69.5v-126q0 -77 -25.5 -110.5t-89.5 -43.5v-3q64 -10 89.5 -43.5t25.5 -110.5v-126q0 -49 13.5 -69.5
t55.5 -20.5h64v-74z" />
    <glyph glyph-name="bar.case" 
d="M257 -84v853h97v-853h-97z" />
    <glyph glyph-name="braceright.case" 
d="M124 -104v74h64q41 0 55 20t14 70v126q0 77 25.5 110.5t89.5 43.5v3q-64 10 -89.5 43.5t-25.5 110.5v126q0 49 -14 69.5t-55 20.5h-64v74h101q83 0 109.5 -34t26.5 -115v-126q0 -68 30 -99t97 -35v-73q-67 -4 -97 -35t-30 -99v-126q0 -81 -26.5 -115t-109.5 -34h-101z
" />
    <glyph glyph-name="exclamdown.case" 
d="M248 0v272l13 231h83l13 -231v-272h-109zM247 559v126h117v-126h-117z" />
    <glyph glyph-name="brokenbar.case" 
d="M257 439v330h97v-330h-97zM257 -84v330h97v-330h-97z" />
    <glyph glyph-name="dieresis.case" 
d="M351 782v111h108v-111h-108zM154 782v111h107v-111h-107z" />
    <glyph glyph-name="guillemotleft.case" 
d="M189 158l-118 184l118 185h108l-104 -185l104 -184h-108zM408 158l-118 184l118 185h108l-104 -185l104 -184h-108z" />
    <glyph glyph-name="uni00AD.case" 
d="M161 289v107h290v-107h-290z" />
    <glyph glyph-name="macron.case" 
d="M173 803v83h267v-83h-267z" />
    <glyph glyph-name="acute.case" 
d="M193 773l83 129h144l-121 -129h-106z" />
    <glyph glyph-name="periodcentered.case" 
d="M226 265v155h160v-155h-160z" />
    <glyph glyph-name="guillemotright.case" 
d="M315 158l104 184l-104 185h108l118 -185l-118 -184h-108zM97 158l104 184l-104 185h108l118 -185l-118 -184h-108z" />
    <glyph glyph-name="questiondown.case" 
d="M301 -14q-96 0 -153.5 53.5t-57.5 136.5q0 51 22 89t68 77l20 17q42 35 55 62t13 82h104q0 -70 -13 -110t-52 -76l-51 -47q-36 -32 -45 -50q-10 -20 -10 -45q0 -41 25.5 -66.5t78.5 -25.5q58 0 87.5 36t29.5 103l107 -3q0 -107 -59.5 -170t-168.5 -63zM261 559v126h117
v-126h-117z" />
    <glyph glyph-name="circumflex.case" 
d="M136 773l102 129h136l102 -129h-102l-68 71l-68 -71h-102z" />
    <glyph glyph-name="caron.case" 
d="M238 773l-102 129h102l68 -71l68 71h102l-102 -129h-136z" />
    <glyph glyph-name="breve.case" 
d="M306 772q-128 0 -161 118l71 19q24 -58 90 -58t90 58l71 -19q-33 -118 -161 -118z" />
    <glyph glyph-name="dotaccent.case" 
d="M251 782v111h111v-111h-111z" />
    <glyph glyph-name="ring.case" 
d="M306 734q-43 0 -73 30.5t-30 73.5q0 44 30 74t73 30q44 0 74 -30t30 -74q0 -43 -30 -73.5t-74 -30.5zM306 792q19 0 32.5 13.5t13.5 32.5q0 20 -13.5 33t-32.5 13t-32.5 -13t-13.5 -33q0 -19 13.5 -32.5t32.5 -13.5z" />
    <glyph glyph-name="tilde.case" 
d="M201 778l-66 13q22 109 103 109q26 0 61 -14l24 -10q38 -16 47 -16q28 0 41 42l66 -14q-21 -108 -103 -108q-26 0 -61 14l-24 10q-38 16 -47 16q-28 0 -41 -42z" />
    <glyph glyph-name="hungarumlaut.case" 
d="M290 773l85 129h134l-123 -129h-96zM103 773l82 129h134l-120 -129h-96z" />
    <glyph glyph-name="endash.case" 
d="M73 289v97h466v-97h-466z" />
    <glyph glyph-name="emdash.case" 
d="M0 289v97h612v-97h-612z" />
    <glyph glyph-name="uni2015.case" 
d="M0 289v97h612v-97h-612z" />
    <glyph glyph-name="guilsinglleft.case" 
d="M282 158l-118 184l118 185h108l-104 -185l104 -184h-108z" />
    <glyph glyph-name="guilsinglright.case" 
d="M222 158l104 184l-104 185h108l118 -185l-118 -184h-108z" />
    <glyph glyph-name="zero.zero" 
d="M306 -13q-125 0 -187 95t-62 261q0 164 61 260t188 96t188 -96t61 -260q0 -166 -62 -261t-187 -95zM306 80q129 0 129 261q0 117 -23 181l-154 -432q19 -10 48 -10zM177 341q0 -100 16 -155l148 415q-20 5 -35 5q-71 0 -100 -68t-29 -197z" />
    <glyph glyph-name="plus.ss06" 
d="M253 22v201h-195v100h195v200h102v-200h198v-100h-198v-201h-102z" />
    <glyph glyph-name="equal.ss06" 
d="M64 316v98h484v-98h-484zM64 129v97h484v-97h-484z" />
    <glyph glyph-name="logicalnot.ss06" 
d="M454 93v182q0 33 1 50h-398v98h501v-330h-104z" />
    <glyph glyph-name="plusminus.ss06" 
d="M252 180v136h-167v107h167v134h107v-134h168v-107h-168v-136h-107zM85 6v107h442v-107h-442z" />
    <glyph glyph-name="multiply.ss06" 
d="M142 34l-72 72l166 166l-166 166l72 72l166 -166l165 165l72 -72l-165 -165l165 -165l-72 -72l-165 165z" />
    <glyph glyph-name="divide.ss06" 
d="M64 224v100h484v-100h-484zM306 20q-28 0 -47 19t-19 47t19 47.5t47 19.5t47.5 -19.5t19.5 -47.5t-19.5 -47t-47.5 -19zM306 395q-28 0 -47 19t-19 47t19 47.5t47 19.5t47.5 -19.5t19.5 -47.5t-19.5 -47t-47.5 -19z" />
    <glyph glyph-name="minus.ss06" 
d="M64 224v100h484v-100h-484z" />
    <glyph glyph-name="infinity.ss06" 
d="M147 72q-68 0 -104.5 49t-36.5 119q0 78 39 124.5t106 46.5q47 0 84.5 -23t71.5 -79q34 57 71 79.5t85 22.5q66 0 105.5 -46.5t39.5 -124.5q0 -70 -37.5 -119t-103.5 -49q-103 0 -160 107q-57 -107 -160 -107zM157 168q58 0 101 73v2q-46 74 -101 74q-31 0 -48 -21
t-17 -53t17 -53.5t48 -21.5zM457 168q31 0 48 21.5t17 53.5t-17 53t-48 21q-57 0 -101 -74v-2q43 -73 101 -73z" />
    <glyph glyph-name="approxequal.ss06" 
d="M414 83q-15 0 -30.5 3.5t-24 7t-26 11.5t-24.5 11l-35 16q-50 22 -71 22q-26 0 -43.5 -14.5t-40.5 -48.5l-61 51q62 109 143 109q15 0 30.5 -3.5t24 -7t26 -11.5t24.5 -11l35 -16q49 -22 71 -22q26 0 45 15t41 47l61 -51q-61 -108 -145 -108zM414 312q-15 0 -30.5 3.5
t-24 7t-26 11.5t-24.5 11l-35 16q-50 22 -71 22q-26 0 -43.5 -14.5t-40.5 -48.5l-61 51q62 109 143 109q15 0 30.5 -3.5t24 -7t26 -11.5t24.5 -11l35 -16q49 -22 71 -22q26 0 45 15t41 47l61 -51q-61 -108 -145 -108z" />
    <glyph glyph-name="notequal.ss06" 
d="M88 -4l79 134h-103v93h159l57 96h-216v94h272l78 131h110l-78 -131h102v-94h-158l-57 -96h215v-93h-271l-79 -134h-110z" />
    <glyph glyph-name="x.ss20" 
d="M142 98l-72 72l166 166l-166 166l72 72l166 -166l165 165l72 -72l-165 -165l165 -165l-72 -72l-165 165z" />
    <glyph glyph-name="hyphen_greater" 
d="M221 80l69 70q45 46 127 126v1q-43 -2 -163 -2h-234v102h234q120 0 163 -2v1q-82 80 -127 126l-69 70h144l232 -246l-232 -246h-144z" />
    <glyph glyph-name="less_hyphen" 
d="M247 80l-232 246l232 246h144l-69 -70q-95 -95 -127 -126v-1q43 2 163 2h234v-102h-234q-120 0 -163 2v-1q32 -31 127 -126l69 -70h-144z" />
  </font>
</defs>
</svg>
