<?xml version="1.0" standalone="no"?>
<!DOCTYPE svg PUBLIC "-//W3C//DTD SVG 1.1//EN" "http://www.w3.org/Graphics/SVG/1.1/DTD/svg11.dtd" >
<svg xmlns="http://www.w3.org/2000/svg" xmlns:xlink="http://www.w3.org/1999/xlink" version="1.1">
<metadata>
Created by FontForge 20170731 at Sun Jun  9 05:19:48 2019
 By Aleksey,,,
(c) 2019, Copyright by Optimo SARL. All rights reserved. |DCNT
</metadata>
<defs>
<font id="Rand-Medium" horiz-adv-x="588" >
  <font-face 
    font-family="Rand Medium"
    font-weight="500"
    font-stretch="normal"
    units-per-em="1000"
    panose-1="2 11 6 4 2 1 1 1 1 2"
    ascent="730"
    descent="-270"
    x-height="526"
    cap-height="730"
    bbox="-373 -219 1343 1156"
    underline-thickness="50"
    underline-position="-200"
    unicode-range="U+000D-FEFF"
  />
<missing-glyph horiz-adv-x="603" 
d="M71 0v730h461v-730h-461zM149 78h305v574h-305v-574z" />
    <glyph glyph-name="f_f" unicode="ff" horiz-adv-x="651" 
d="M111 0v441h-85v85h85v46q0 89 39.5 126.5t122.5 37.5q29 0 61 -5l-5 -89q-18 7 -44 7q-39 0 -54.5 -18.5t-15.5 -59.5v-45h202v46q0 89 39.5 126.5t122.5 37.5q29 0 61 -5l-5 -89q-18 7 -44 7q-39 0 -54.5 -18.5t-15.5 -59.5v-45h113v-85h-113v-441h-104v441h-202v-441
h-104z" />
    <glyph glyph-name="f_f_i" unicode="ffi" horiz-adv-x="912" 
d="M111 0v441h-85v85h85v46q0 89 39.5 126.5t122.5 37.5q29 0 61 -5l-5 -89q-18 7 -44 7q-39 0 -54.5 -18.5t-15.5 -59.5v-45h202v46q0 89 39.5 126.5t122.5 37.5q29 0 61 -5l-5 -89q-18 7 -44 7q-39 0 -54.5 -18.5t-15.5 -59.5v-45h312v-526h-105v441h-207v-441h-104v441
h-202v-441h-104zM727 607v123h106v-123h-106z" />
    <glyph glyph-name="f_f_l" unicode="ffl" horiz-adv-x="908" 
d="M111 0v441h-85v85h85v46q0 89 39.5 126.5t122.5 37.5q29 0 61 -5l-5 -89q-18 7 -44 7q-39 0 -54.5 -18.5t-15.5 -59.5v-45h202v36q0 59 12 94t43.5 53t71.5 23.5t110 5.5q61 0 175 -8v-730h-106v652q-24 3 -76 3q-80 0 -103.5 -17t-23.5 -82v-30h114v-85h-113v-441h-104
v441h-202v-441h-104z" />
    <glyph glyph-name="f_i" unicode="fi" horiz-adv-x="606" 
d="M111 0v441h-85v85h85v46q0 89 39.5 126.5t122.5 37.5q29 0 61 -5l-5 -89q-18 7 -44 7q-39 0 -54.5 -18.5t-15.5 -59.5v-45h312v-526h-105v441h-207v-441h-104zM421 607v123h106v-123h-106z" />
    <glyph glyph-name="f_l" unicode="fl" horiz-adv-x="602" 
d="M111 0v441h-85v85h85v36q0 59 12 94t43.5 53t71.5 23.5t110 5.5q61 0 175 -8v-730h-106v652q-24 3 -76 3q-80 0 -103.5 -17t-23.5 -82v-30h114v-85h-113v-441h-104z" />
    <glyph glyph-name=".notdef" horiz-adv-x="603" 
d="M71 0v730h461v-730h-461zM149 78h305v574h-305v-574z" />
    <glyph glyph-name=".null" horiz-adv-x="0" 
 />
    <glyph glyph-name="nonmarkingreturn" horiz-adv-x="333" 
 />
    <glyph glyph-name="NULL" horiz-adv-x="0" 
 />
    <glyph glyph-name="NULL" horiz-adv-x="0" 
 />
    <glyph glyph-name="CR" unicode="&#xd;" horiz-adv-x="242" 
 />
    <glyph glyph-name="space" unicode=" " horiz-adv-x="242" 
 />
    <glyph glyph-name="exclam" unicode="!" horiz-adv-x="288" 
d="M188 194h-87q-11 166 -14 235v301h114v-301zM85 0v129h118v-129h-118z" />
    <glyph glyph-name="quotedbl" unicode="&#x22;" horiz-adv-x="400" 
d="M71 443l-12 287h102l-12 -287h-78zM251 443l-12 287h102l-12 -287h-78z" />
    <glyph glyph-name="numbersign" unicode="#" 
d="M82 0l41 227h-111l14 70h110l26 142h-113l13 70h113l40 221h77l-41 -221h140l41 221h77l-41 -221h109l-13 -70h-109l-26 -142h112l-14 -70h-111l-41 -227h-76l40 227h-140l-40 -227h-77zM212 297h140l26 142h-140z" />
    <glyph glyph-name="dollar" unicode="$" 
d="M258 -107v103q-94 8 -154.5 59t-77.5 137l104 26q23 -110 128 -130v237q-106 33 -156 77t-50 126q0 86 56.5 139t149.5 63v93h84v-93q81 -11 133 -56.5t69 -119.5l-99 -26q-25 85 -103 105v-220l13 -4q49 -15 82 -29.5t63 -37t44.5 -56t14.5 -78.5q0 -92 -59.5 -147.5
t-157.5 -63.5v-104h-84zM342 300v-211q50 8 79 36t29 73q0 39 -25.5 61.5t-82.5 40.5zM258 441v194q-95 -19 -95 -97q0 -35 22 -55.5t73 -41.5z" />
    <glyph glyph-name="percent" unicode="%" horiz-adv-x="962" 
d="M207 252q-174 0 -174 242q0 113 42 179.5t131 66.5q90 0 132.5 -66.5t42.5 -179.5q0 -242 -174 -242zM208 329q76 0 76 164q0 82 -17 124t-60 42t-60.5 -42.5t-17.5 -124.5q0 -163 79 -163zM755 -11q-174 0 -174 242q0 113 42 179.5t131 66.5q90 0 132.5 -66.5
t42.5 -179.5q0 -242 -174 -242zM756 66q76 0 76 164q0 82 -17 124t-60 42t-60.5 -42.5t-17.5 -124.5q0 -163 79 -163zM276 0l322 730h91l-322 -730h-91z" />
    <glyph glyph-name="ampersand" unicode="&#x26;" horiz-adv-x="710" 
d="M287 -14q-110 0 -176.5 59t-66.5 153q0 129 163 216q-78 85 -78 163q0 74 53.5 120.5t139.5 46.5q81 0 133 -45t52 -114q0 -67 -37.5 -110t-105.5 -83q71 -76 138 -158q37 75 49 160l108 -4q-20 -138 -86 -229q72 -82 148 -161h-139q-36 36 -76 81q-89 -95 -219 -95z
M293 78q95 0 148 74q-156 175 -170 191q-115 -57 -115 -143q0 -55 39 -88.5t98 -33.5zM304 457q100 57 100 121q0 36 -24 57t-62 21t-61 -21.5t-23 -55.5q0 -52 70 -122z" />
    <glyph glyph-name="quotesingle" unicode="'" horiz-adv-x="220" 
d="M71 443l-12 287h102l-12 -287h-78z" />
    <glyph glyph-name="parenleft" unicode="(" horiz-adv-x="308" 
d="M285 -146l-83 -7q-158 215 -158 450t157 448l83 -7q-130 -205 -130 -441q0 -237 131 -443z" />
    <glyph glyph-name="parenright" unicode=")" horiz-adv-x="309" 
d="M106 -152l-83 6q131 209 131 442q0 237 -130 442l83 6q157 -213 157 -448q0 -236 -158 -448z" />
    <glyph glyph-name="asterisk" unicode="*" horiz-adv-x="464" 
d="M156 351l-76 55q41 49 105 113v2q-67 11 -79 14l-73 15l29 91l68 -31l72 -35l1 1h1q-2 12 -5.5 35.5t-5.5 43.5l-9 75h95q-7 -78 -19 -154h1l1 -1l71 35l69 30l29 -90l-73 -15q-16 -3 -40 -6.5t-40 -7.5v-2q45 -44 56 -58l50 -55l-77 -55l-37 65l-37 71h-2
q-6 -11 -17.5 -33t-20.5 -38z" />
    <glyph glyph-name="plus" unicode="+" 
d="M245 106v204h-199v93h199v204h95v-204h201v-93h-201v-204h-95z" />
    <glyph glyph-name="comma" unicode="," horiz-adv-x="247" 
d="M63 -148v58q55 13 55 77v13h-54v126h118v-120q0 -136 -119 -154z" />
    <glyph glyph-name="hyphen" unicode="-" horiz-adv-x="409" 
d="M65 244v99h279v-99h-279z" />
    <glyph glyph-name="period" unicode="." horiz-adv-x="245" 
d="M63 0v126h119v-126h-119z" />
    <glyph glyph-name="slash" unicode="/" horiz-adv-x="428" 
d="M26 -33l278 766h97q-117 -326 -277 -766h-98z" />
    <glyph glyph-name="zero" unicode="0" horiz-adv-x="627" 
d="M312 -14q-69 0 -120 28t-81 79.5t-44.5 118.5t-14.5 151q0 111 24.5 193.5t84.5 135t151 52.5q70 0 122 -29.5t82 -82.5t44.5 -120t14.5 -149q0 -173 -64 -275t-199 -102zM313 76q142 0 142 285q0 88 -11.5 147.5t-44 98.5t-87.5 39q-42 0 -70.5 -21t-44 -62t-21.5 -90
t-6 -115q0 -86 12 -145.5t44.5 -98t86.5 -38.5z" />
    <glyph glyph-name="one" unicode="1" horiz-adv-x="491" 
d="M61 0v89h158v436h-177v78q96 4 139.5 31.5t53.5 95.5h95v-641h145v-89h-414z" />
    <glyph glyph-name="two" unicode="2" horiz-adv-x="589" 
d="M44 0v87q52 50 209 187q96 84 130 133t34 115q0 57 -31.5 90.5t-90.5 33.5q-65 0 -99.5 -40.5t-36.5 -111.5l-111 3q2 110 69 178.5t178 68.5t176 -58.5t65 -160.5q0 -79 -45 -145t-129 -137q-51 -44 -107.5 -89t-73.5 -60v-2q6 0 51.5 0.5t71.5 0.5h234v-93h-494z" />
    <glyph glyph-name="three" unicode="3" horiz-adv-x="603" 
d="M296 -14q-236 0 -257 230l111 7q6 -67 43.5 -107.5t103.5 -40.5q63 0 102 38t39 98q0 126 -164 126h-28v91h9q162 0 162 115q0 50 -32.5 78.5t-87.5 28.5q-61 0 -94 -34t-37 -93l-108 9q8 95 73 153.5t168 58.5q104 0 167 -52t63 -138q0 -120 -125 -164v-2
q69 -16 110 -64.5t41 -116.5q0 -100 -72 -160.5t-187 -60.5z" />
    <glyph glyph-name="four" unicode="4" horiz-adv-x="592" 
d="M355 0v153h-315v84l170 493h104l-162 -486h203v281h99v-281h124v-91h-124v-153h-99z" />
    <glyph glyph-name="five" unicode="5" horiz-adv-x="589" 
d="M291 -14q-110 0 -173 54.5t-76 149.5l111 8q11 -53 49 -87.5t91 -34.5q66 0 103.5 43t37.5 118q0 72 -37.5 114.5t-103.5 42.5q-95 0 -127 -78l-105 9q5 68 17.5 202.5t17.5 202.5h410v-95h-321l-12 -125l-8 -83q60 60 151 60q106 0 169.5 -69t63.5 -178q0 -114 -71 -184
t-187 -70z" />
    <glyph glyph-name="six" unicode="6" horiz-adv-x="623" 
d="M321 -14q-133 0 -201 94t-68 263q0 185 71.5 293t209.5 108q95 0 154.5 -53t75.5 -142l-113 -5q-10 49 -40 78t-79 29q-84 0 -126.5 -78t-45.5 -191l2 -2q59 97 182 97q104 0 167.5 -68t63.5 -175q0 -108 -69.5 -178t-183.5 -70zM321 75q62 0 100 44t38 113
q0 70 -37.5 111t-102.5 41q-66 0 -104.5 -41.5t-38.5 -110.5q0 -70 39.5 -113.5t105.5 -43.5z" />
    <glyph glyph-name="seven" unicode="7" horiz-adv-x="526" 
d="M236 0h-123q38 154 112 324.5t162 303.5v2q-17 0 -52 -0.5t-53 -0.5h-262v101h484v-92q-82 -120 -155.5 -300t-112.5 -338z" />
    <glyph glyph-name="eight" unicode="8" horiz-adv-x="617" 
d="M308 -14q-116 0 -188 58.5t-72 155.5q0 134 144 185v2q-120 55 -120 165q0 84 65 138t171 54q105 0 170 -54.5t65 -137.5q0 -112 -120 -164v-2q146 -55 146 -186q0 -97 -73 -155.5t-188 -58.5zM308 74q66 0 104.5 37t38.5 97q0 58 -38.5 94t-104.5 36t-105.5 -36
t-39.5 -94q0 -60 39.5 -97t105.5 -37zM308 429q58 0 91.5 30.5t33.5 81.5q0 49 -34 79.5t-91 30.5q-59 0 -92.5 -30t-33.5 -80q0 -51 33.5 -81.5t92.5 -30.5z" />
    <glyph glyph-name="nine" unicode="9" horiz-adv-x="618" 
d="M292 -14q-105 0 -163 52t-71 146l110 5q23 -114 125 -114q73 0 118.5 77.5t45.5 200.5l-1 1q-27 -43 -73.5 -68.5t-105.5 -25.5q-103 0 -165 66t-62 173q0 104 68.5 174.5t179.5 70.5q132 0 200 -94t68 -265q0 -187 -68.5 -293t-205.5 -106zM300 351q65 0 104 41.5
t39 108.5q0 66 -39.5 108t-102.5 42q-65 0 -103.5 -41t-38.5 -108q0 -68 38 -109.5t103 -41.5z" />
    <glyph glyph-name="colon" unicode=":" horiz-adv-x="247" 
d="M64 400v126h119v-126h-119zM64 0v126h119v-126h-119z" />
    <glyph glyph-name="semicolon" unicode=";" horiz-adv-x="247" 
d="M64 -148v58q55 13 55 77v13h-54v126h118v-120q0 -136 -119 -154zM64 400v126h119v-126h-119z" />
    <glyph glyph-name="less" unicode="&#x3c;" 
d="M485 182v-116q-79 42 -227 118t-169 87v97l396 209v-114q-50 -24 -156 -75t-130 -63v-3z" />
    <glyph glyph-name="equal" unicode="=" 
d="M52 403v91h484v-91h-484zM52 214v91h484v-91h-484z" />
    <glyph glyph-name="greater" unicode="&#x3e;" 
d="M103 66v116q54 27 160.5 79t124.5 61v3q-21 11 -68.5 34t-115 55.5t-101.5 48.5v114l396 -209v-97q-21 -11 -169 -87t-227 -118z" />
    <glyph glyph-name="question" unicode="?" horiz-adv-x="530" 
d="M305 194h-104q0 72 14.5 116.5t55.5 82.5l51 47q21 19 31 29.5t19.5 31.5t9.5 46q0 44 -31 72.5t-84 28.5q-62 0 -94.5 -39t-33.5 -108l-110 5q0 110 62.5 174t179.5 64q101 0 163 -55t62 -143q0 -56 -25.5 -98.5t-77.5 -83.5l-25 -20q-38 -34 -50.5 -64t-12.5 -86z
M195 0v129h118v-129h-118z" />
    <glyph glyph-name="at" unicode="@" horiz-adv-x="836" 
d="M442 -45q-177 0 -288 105.5t-111 273.5q0 165 113 276t281 111q153 0 255.5 -91.5t102.5 -230.5q0 -116 -63 -195.5t-146 -79.5q-69 0 -78 63q-51 -65 -130 -65q-69 0 -111.5 48.5t-42.5 127.5q0 96 56.5 167t141.5 71q95 0 122 -76h1q2 5 4.5 20.5t3.5 20.5l4 23h72
l-47 -228q-10 -54 -10 -71q0 -38 33 -38q49 0 87 61.5t38 142.5q0 119 -81.5 193t-210.5 74q-140 0 -233 -93t-93 -232q0 -142 93.5 -230.5t239.5 -88.5q128 0 237 74l38 -42q-116 -91 -278 -91zM395 191q57 0 92.5 52t35.5 121q0 46 -23.5 73.5t-67.5 27.5q-58 0 -94 -49.5
t-36 -116.5q0 -49 24.5 -78.5t68.5 -29.5z" />
    <glyph glyph-name="A" unicode="A" horiz-adv-x="704" 
d="M0 0l291 730h122l290 -730h-120l-77 201h-313l-78 -201h-115zM227 298h243l-58 157q-46 126 -62 174h-2q-28 -87 -62 -176z" />
    <glyph glyph-name="B" unicode="B" horiz-adv-x="669" 
d="M90 0v730h263q239 0 239 -181q0 -117 -102 -160q60 -17 97.5 -63t37.5 -115q0 -94 -63 -152.5t-199 -58.5h-273zM198 93h157q158 0 158 125q0 117 -168 117h-147v-242zM198 425h139q143 0 143 111q0 51 -34 75t-109 24h-139v-210z" />
    <glyph glyph-name="C" unicode="C" horiz-adv-x="739" 
d="M401 -14q-161 0 -258 105.5t-97 272.5t97.5 273.5t257.5 106.5q117 0 197.5 -56t108.5 -157l-111 -18q-53 134 -199 134q-108 0 -171.5 -80t-63.5 -202q0 -124 66.5 -204t175.5 -80q70 0 120 37.5t74 102.5l113 -17q-30 -102 -110.5 -160t-199.5 -58z" />
    <glyph glyph-name="D" unicode="D" horiz-adv-x="750" 
d="M90 0v730h251q180 0 270.5 -94.5t90.5 -264.5q0 -167 -87.5 -269t-267.5 -102h-257zM202 95h126q124 0 191.5 65.5t67.5 201.5q0 168 -95 229q-41 25 -93.5 34t-139.5 9h-57v-539z" />
    <glyph glyph-name="E" unicode="E" horiz-adv-x="622" 
d="M90 0v730h475v-98h-366v-208h340v-98h-340v-228h374v-98h-483z" />
    <glyph glyph-name="F" unicode="F" horiz-adv-x="584" 
d="M90 0v730h461v-98h-350v-215h323v-99h-323v-318h-111z" />
    <glyph glyph-name="G" unicode="G" horiz-adv-x="783" 
d="M397 -14q-160 0 -255.5 104t-95.5 272q0 167 100 274.5t263 107.5q116 0 197.5 -53.5t111.5 -145.5l-111 -24q-24 58 -75.5 92t-121.5 34q-114 0 -181 -79t-67 -205t68 -205.5t181 -79.5q98 0 151.5 56.5t59.5 157.5h-245v98h347v-390h-107v22q0 12 0.5 30.5t0.5 23.5h-2
q-24 -35 -85 -62.5t-134 -27.5z" />
    <glyph glyph-name="H" unicode="H" horiz-adv-x="756" 
d="M90 0v730h111v-303h354v303h111v-730h-111v330h-354v-330h-111z" />
    <glyph glyph-name="I" unicode="I" horiz-adv-x="292" 
d="M90 0v730h112v-730h-112z" />
    <glyph glyph-name="J" unicode="J" horiz-adv-x="527" 
d="M226 -14q-195 0 -212 182l107 15q12 -100 105 -100q105 0 105 145v502h112v-526q0 -104 -56 -161t-161 -57z" />
    <glyph glyph-name="K" unicode="K" horiz-adv-x="660" 
d="M90 0v730h110v-182q0 -101 -1 -161q78 87 119 131l193 212h138l-305 -326l322 -404h-140l-261 328l-65 -70v-258h-110z" />
    <glyph glyph-name="L" unicode="L" horiz-adv-x="557" 
d="M90 0v730h112v-631h340v-99h-452z" />
    <glyph glyph-name="M" unicode="M" horiz-adv-x="941" 
d="M90 0v730h171l120 -340q16 -44 45.5 -132t45.5 -132h3q71 218 87 262l120 342h169v-730h-108v371q0 51 1 135.5t1 131.5h-3q-11 -37 -28.5 -86.5t-25.5 -75.5l-166 -476h-107l-149 424q-43 121 -69 214h-4q3 -141 3 -144v-494h-106z" />
    <glyph glyph-name="N" unicode="N" horiz-adv-x="782" 
d="M90 0v730h143l246 -413q43 -72 104 -181h2q-2 112 -2 184v410h109v-730h-141l-252 421q-40 68 -102 176h-1q0 -21 1.5 -80.5t1.5 -87.5v-429h-109z" />
    <glyph glyph-name="O" unicode="O" horiz-adv-x="814" 
d="M407 -14q-162 0 -261.5 105.5t-99.5 272.5t100 273.5t261 106.5t261 -106.5t100 -273.5t-99 -272.5t-262 -105.5zM407 81q111 0 177.5 79.5t66.5 204.5q0 123 -66.5 202.5t-177.5 79.5q-112 0 -178 -79t-66 -202q0 -125 66 -205t178 -80z" />
    <glyph glyph-name="P" unicode="P" horiz-adv-x="639" 
d="M90 0v730h261q139 0 199 -60t60 -160q0 -109 -71 -164.5t-197 -55.5h-142v-290h-110zM200 385h135q166 0 166 125q0 69 -43.5 96.5t-120.5 27.5h-137v-249z" />
    <glyph glyph-name="Q" unicode="Q" horiz-adv-x="814" 
d="M663 -72l-89 94q-75 -36 -167 -36q-162 0 -261.5 105.5t-99.5 272.5t100 273.5t261 106.5t261 -106.5t100 -273.5q0 -180 -111 -285l78 -83zM407 81q52 0 94 18l-83 88l76 67l89 -95q68 79 68 206q0 123 -66.5 202.5t-177.5 79.5q-112 0 -178 -79t-66 -202
q0 -125 66 -205t178 -80z" />
    <glyph glyph-name="R" unicode="R" horiz-adv-x="685" 
d="M90 0v730h284q126 0 188.5 -51t62.5 -146q0 -142 -129 -183q46 -22 71 -60t33 -105l7 -64q10 -91 29 -114v-7h-117q-10 17 -22 99l-11 78q-10 69 -42.5 98.5t-114.5 29.5h-130v-305h-109zM199 398h159q155 0 155 122q0 63 -40 89t-115 26h-159v-237z" />
    <glyph glyph-name="S" unicode="S" horiz-adv-x="622" 
d="M311 -14q-110 0 -185 51.5t-93 145.5l107 26q13 -62 58 -96t114 -34t111 31.5t42 85.5q0 43 -31 68t-98 45l-60 18q-111 33 -164 78.5t-53 130.5q0 93 71.5 150.5t184.5 57.5q99 0 164.5 -46t85.5 -130l-102 -27q-29 107 -152 107q-61 0 -98 -28t-37 -75q0 -45 30 -67.5
t110 -48.5l71 -22q97 -30 145.5 -73t48.5 -128q0 -102 -75.5 -161t-194.5 -59z" />
    <glyph glyph-name="T" unicode="T" horiz-adv-x="585" 
d="M237 0v631h-222v99h555v-99h-220v-631h-113z" />
    <glyph glyph-name="U" unicode="U" horiz-adv-x="720" 
d="M360 -14q-139 0 -208.5 72.5t-69.5 232.5v439h112v-441q0 -109 39.5 -158.5t126.5 -49.5t126.5 49.5t39.5 158.5v441h112v-439q0 -160 -69.5 -232.5t-208.5 -72.5z" />
    <glyph glyph-name="V" unicode="V" horiz-adv-x="657" 
d="M265 0l-258 730h120l95 -285q6 -17 45.5 -140.5t62.5 -190.5h3q64 204 106 329l96 287h118l-263 -730h-125z" />
    <glyph glyph-name="W" unicode="W" horiz-adv-x="966" 
d="M198 0l-182 730h115l71 -303q19 -76 65 -311h4q43 195 73 313l75 301h136l71 -289q51 -208 74 -325h3q25 129 69 323l68 291h111l-184 -730h-132l-78 310q-31 122 -70 309h-4q-32 -153 -71 -308l-79 -311h-135z" />
    <glyph glyph-name="X" unicode="X" horiz-adv-x="648" 
d="M1 0l256 374l-240 356h131l177 -274l178 274h127l-239 -354l257 -376h-135l-192 295l-193 -295h-127z" />
    <glyph glyph-name="Y" unicode="Y" horiz-adv-x="629" 
d="M258 0v289l-253 441h125l78 -145q9 -16 108 -198h3q19 34 53.5 99.5t50.5 95.5l83 148h122l-258 -441v-289h-112z" />
    <glyph glyph-name="Z" unicode="Z" horiz-adv-x="604" 
d="M34 0v90l393 543q-27 0 -71.5 -0.5t-70.5 -0.5h-234v98h508v-93l-393 -541q39 1 118 1h288v-97h-538z" />
    <glyph glyph-name="bracketleft" unicode="[" horiz-adv-x="329" 
d="M89 -147v894h216v-69h-118q1 -25 1 -72v-612q0 -47 -1 -71q19 1 53 1h65v-71h-216z" />
    <glyph glyph-name="backslash" unicode="\" horiz-adv-x="427" 
d="M401 -33h-98q-117 326 -277 766h98q160 -440 277 -766z" />
    <glyph glyph-name="bracketright" unicode="]" horiz-adv-x="335" 
d="M25 -146v71h67q34 0 53 -1q-1 24 -1 70v615q0 46 1 70h-120v69h221v-894h-221z" />
    <glyph glyph-name="asciicircum" unicode="^" 
d="M43 350l205 383h90l206 -383h-103q-25 51 -76.5 151t-71.5 140q-62 -126 -150 -291h-100z" />
    <glyph glyph-name="underscore" unicode="_" horiz-adv-x="579" 
d="M44 -146v78h491v-78h-491z" />
    <glyph glyph-name="grave" unicode="`" horiz-adv-x="234" 
d="M238 601h-99q-13 14 -38 40.5t-45 48t-37 40.5h135z" />
    <glyph glyph-name="a" unicode="a" horiz-adv-x="566" 
d="M230 -9q-86 0 -137.5 41t-51.5 113q0 74 48.5 107.5t149.5 54.5l99 19q4 1 11 2q28 5 36 11t8 27q0 40 -29.5 63.5t-82.5 23.5q-108 0 -121 -97l-101 8q8 78 69 124.5t153 46.5q215 0 215 -197v-315q0 -5 0.5 -13t0.5 -10h-97v20q0 18 1 25q0 7 1 10h-3q-59 -64 -169 -64
zM254 66q66 0 103.5 39t37.5 106v22q0 9 2 23l-52 -11l-75 -15q-69 -13 -94.5 -28.5t-25.5 -54.5t27.5 -60t76.5 -21z" />
    <glyph glyph-name="b" unicode="b" horiz-adv-x="642" 
d="M357 -12q-120 0 -177 86h-3q2 -30 2 -45v-29h-101q1 17 1 70v660h105v-162q0 -18 -0.5 -57t-0.5 -59q60 87 175 87q104 0 172.5 -78t68.5 -199q0 -122 -68.5 -198t-173.5 -76zM337 75q70 0 111 51.5t41 134.5t-41.5 135.5t-111.5 52.5q-71 0 -113 -51.5t-42 -135.5
t42.5 -135.5t113.5 -51.5z" />
    <glyph glyph-name="c" unicode="c" horiz-adv-x="568" 
d="M303 -13q-117 0 -188.5 75.5t-71.5 198.5q0 124 71.5 201.5t189.5 77.5q92 0 152.5 -43.5t81.5 -120.5l-103 -22q-32 96 -131 96q-71 0 -110 -50.5t-39 -138.5q0 -87 39.5 -136.5t108.5 -49.5q103 0 134 97l100 -21q-20 -76 -82 -120t-152 -44z" />
    <glyph glyph-name="d" unicode="d" horiz-adv-x="642" 
d="M285 -12q-107 0 -174.5 75t-67.5 198q0 122 68 200t174 78q115 0 174 -85q-1 27 -1 77v199h105v-654q0 -60 1 -76h-101v24q0 34 1 49h-1q-61 -85 -178 -85zM304 75q72 0 115 52t43 136q0 83 -43 134.5t-114 51.5q-70 0 -111.5 -52.5t-41.5 -135.5t41 -134.5t111 -51.5z
" />
    <glyph glyph-name="e" unicode="e" horiz-adv-x="601" 
d="M310 -13q-123 0 -195 74.5t-72 199.5q0 122 72 200.5t191 78.5q128 0 191 -84.5t63 -220.5h-413q2 -70 48 -115.5t117 -45.5q106 0 155 87l89 -38q-33 -61 -95.5 -98.5t-150.5 -37.5zM148 315h303q-4 59 -42 100t-104 41q-64 0 -106 -40.5t-51 -100.5z" />
    <glyph glyph-name="f" unicode="f" horiz-adv-x="345" 
d="M111 0v441h-85v85h85v46q0 89 39.5 126.5t122.5 37.5q29 0 61 -5l-5 -89q-18 7 -44 7q-39 0 -54.5 -18.5t-15.5 -59.5v-45h113v-85h-113v-441h-104z" />
    <glyph glyph-name="g" unicode="g" horiz-adv-x="635" 
d="M302 -198q-90 0 -154 37t-88 101l96 34q39 -85 148 -85q145 0 151 153q0 6 0.5 17t1 20.5t1.5 19.5h-2q-25 -39 -71 -63t-102 -24q-105 0 -171.5 74t-66.5 188q0 117 68.5 191t172.5 74q115 0 170 -85h2q-1 15 -1 42v30h102q-1 -35 -1 -98v-381q0 -120 -70 -182.5
t-186 -62.5zM305 101q69 0 110.5 49t41.5 126q0 76 -41 125t-111 49q-68 0 -109.5 -49.5t-41.5 -125.5t41 -125t110 -49z" />
    <glyph glyph-name="h" unicode="h" horiz-adv-x="610" 
d="M79 0v730h106v-185q0 -49 -2 -87q55 81 164 81q89 0 140 -54t51 -155v-330h-105v265q0 94 -24.5 138.5t-90.5 44.5q-133 0 -133 -187v-261h-106z" />
    <glyph glyph-name="i" unicode="i" horiz-adv-x="264" 
d="M79 0v526h106v-526h-106zM78 607v123h108v-123h-108z" />
    <glyph glyph-name="j" unicode="j" horiz-adv-x="270" 
d="M40 -196q-32 0 -51 6l7 84q7 -1 18 -1q42 0 56.5 21.5t14.5 72.5v539h106v-553q0 -92 -36 -130.5t-115 -38.5zM84 607v123h107v-123h-107z" />
    <glyph glyph-name="k" unicode="k" horiz-adv-x="549" 
d="M79 0v730h104v-276q0 -34 -0.5 -91t-0.5 -76q32 29 122 129l101 110h133l-226 -232l240 -294h-135l-177 225l-57 -57v-168h-104z" />
    <glyph glyph-name="l" unicode="l" horiz-adv-x="264" 
d="M79 0v730h106v-730h-106z" />
    <glyph glyph-name="m" unicode="m" horiz-adv-x="937" 
d="M79 0v435q0 56 -1 91h101v-31q0 -29 -1 -40h2q21 38 63 61.5t97 23.5q112 0 159 -96q57 96 178 96q92 0 140 -56.5t48 -163.5v-320h-106v296q0 153 -109 153q-125 0 -125 -182v-267h-106v294q0 155 -108 155q-126 0 -126 -188v-261h-106z" />
    <glyph glyph-name="n" unicode="n" horiz-adv-x="611" 
d="M79 0v422q0 14 -0.5 52.5t-0.5 51.5h102v-22q0 -35 -1 -48h1q57 84 168 84q88 0 139.5 -54t51.5 -157v-329h-106v263q0 97 -24.5 141.5t-89.5 44.5q-134 0 -134 -189v-260h-106z" />
    <glyph glyph-name="o" unicode="o" horiz-adv-x="622" 
d="M310 -14q-120 0 -194 76.5t-74 200.5q0 123 75 200.5t195 77.5q119 0 193.5 -77.5t74.5 -200.5t-75 -200t-195 -77zM310 75q75 0 117 51t42 136q0 83 -42.5 136.5t-115.5 53.5q-75 0 -117 -52.5t-42 -136.5q0 -85 42 -136.5t116 -51.5z" />
    <glyph glyph-name="p" unicode="p" horiz-adv-x="641" 
d="M79 -188v654q0 10 -0.5 30.5t-0.5 29.5h103v-24q0 -6 -0.5 -22.5t-0.5 -24.5h2q60 84 173 84q106 0 174.5 -77t68.5 -199q0 -123 -68 -199t-175 -76q-115 0 -172 79h-1q2 -22 2 -99v-156h-105zM336 75q70 0 111 51.5t41 133.5q0 83 -41 135.5t-112 52.5t-113 -51.5
t-42 -135.5q0 -83 42.5 -134.5t113.5 -51.5z" />
    <glyph glyph-name="q" unicode="q" horiz-adv-x="640" 
d="M457 -188v172q0 53 1 84q-56 -80 -173 -80q-108 0 -175 75t-67 198q0 122 68.5 200t175.5 78q109 0 175 -85q-1 27 -1 51v21h101q-1 -20 -1 -94v-620h-104zM306 75q71 0 113.5 51.5t42.5 136.5q0 83 -43 134.5t-114 51.5t-112 -53t-41 -136t41.5 -134t112.5 -51z" />
    <glyph glyph-name="r" unicode="r" horiz-adv-x="379" 
d="M79 0v430q0 65 -1 96h100v-28q0 -37 -1 -52h2q47 91 154 91q17 0 29 -3l-3 -101q-15 4 -35 4q-74 0 -108 -43.5t-34 -133.5v-260h-103z" />
    <glyph glyph-name="s" unicode="s" horiz-adv-x="510" 
d="M257 -12q-191 0 -225 147l94 26q32 -91 137 -91q44 0 73 20t29 52q0 29 -23.5 45t-74.5 28l-60 14q-75 17 -115.5 52.5t-40.5 99.5q0 73 58 116t145 43q81 0 135 -35.5t70 -100.5l-92 -26q-24 77 -116 77q-42 0 -67.5 -18t-25.5 -46q0 -31 20.5 -45.5t72.5 -26.5l64 -15
q78 -19 117.5 -53.5t39.5 -97.5q0 -79 -59.5 -122t-155.5 -43z" />
    <glyph glyph-name="t" unicode="t" horiz-adv-x="339" 
d="M298 0h-133q-33 18 -44.5 53.5t-11.5 105.5v282h-88v85h88v144h104v-144h108v-85h-108v-248q0 -87 20 -121.5t65 -49.5v-22z" />
    <glyph glyph-name="u" unicode="u" horiz-adv-x="608" 
d="M262 -12q-88 0 -139 49t-51 149v340h106v-313q0 -138 114 -138q65 0 98 46t33 126v279h106v-448q0 -49 1 -78h-102v23q0 32 1 44h-2q-56 -79 -165 -79z" />
    <glyph glyph-name="v" unicode="v" horiz-adv-x="533" 
d="M210 0l-197 526h115l78 -234l27.5 -82.5t33.5 -102.5h3q13 40 61 185l80 234h111l-200 -526h-112z" />
    <glyph glyph-name="w" unicode="w" horiz-adv-x="808" 
d="M173 0l-157 526h109l59 -223q27 -100 48 -201h3q6 22 17 66.5t20 78.5t14 51l62 228h117l61 -226q18 -62 49 -199h3q23 99 51 204l60 221h105l-160 -526h-117l-66 240q-20 70 -43 188h-3q-23 -102 -48 -191l-65 -237h-119z" />
    <glyph glyph-name="x" unicode="x" horiz-adv-x="529" 
d="M6 0l195 271l-179 255h126l118 -182l119 182h122l-180 -254l196 -272h-128l-132 197l-133 -197h-124z" />
    <glyph glyph-name="y" unicode="y" horiz-adv-x="530" 
d="M108 -191q-19 0 -40 3l-10 83q18 -3 35 -3q45 0 73 22.5t49 85.5q-96 244 -204 526h116l80 -230q32 -90 61 -182h2q20 65 61 187l76 225h111q-58 -155 -215 -566q-33 -84 -74 -117.5t-121 -33.5z" />
    <glyph glyph-name="z" unicode="z" horiz-adv-x="501" 
d="M35 0v82l294 355v2q-62 -2 -90 -2h-191v89h407v-84l-293 -357v-1q21 0 61 1t65 1h180v-86h-433z" />
    <glyph glyph-name="braceleft" unicode="{" horiz-adv-x="320" 
d="M280 -147h-49q-79 0 -105 35.5t-26 114.5v133q0 66 -13.5 96t-53.5 36v63q41 8 54 39t13 104v130q0 77 26 111t105 34h49v-69h-11q-42 0 -55 -21.5t-13 -70.5v-132q0 -77 -16.5 -106.5t-58.5 -49.5q41 -17 58 -49.5t17 -106.5v-131q0 -49 13 -69.5t54 -20.5h12v-70z" />
    <glyph glyph-name="bar" unicode="|" horiz-adv-x="271" 
d="M89 -157v887h93v-887h-93z" />
    <glyph glyph-name="braceright" unicode="}" horiz-adv-x="319" 
d="M40 -147v70h11q42 0 54.5 20.5t12.5 69.5v131q0 73 18 106t57 50q-41 20 -58 50t-17 106v132q0 50 -13 71t-55 21h-10v69h49q80 0 105 -33.5t25 -111.5v-130q0 -72 13.5 -104t54.5 -39v-63q-44 -8 -56 -43t-12 -125v-97q0 -79 -25.5 -114.5t-104.5 -35.5h-49z" />
    <glyph glyph-name="asciitilde" unicode="~" 
d="M401 259q-12 0 -23.5 1.5t-23.5 6t-19 7.5t-21.5 10t-19.5 9l-34 16q-50 22 -73 22q-27 0 -45.5 -15.5t-39.5 -48.5l-58 48q60 107 142 107q12 0 23.5 -1.5t23.5 -6t19 -7.5t21.5 -10t19.5 -9l34 -15q52 -23 73 -23q27 0 46.5 15.5t40.5 48.5l58 -48q-60 -107 -144 -107z
" />
    <glyph glyph-name="uni00A0" unicode="&#xa0;" horiz-adv-x="242" 
 />
    <glyph glyph-name="exclamdown" unicode="&#xa1;" horiz-adv-x="276" 
d="M81 -204v301q3 69 14 235h87l13 -235v-301h-114zM79 397v129h118v-129h-118z" />
    <glyph glyph-name="cent" unicode="&#xa2;" 
d="M270 -34v124q-102 12 -162 86.5t-60 188.5q0 113 60 188t162 89v124h81v-123q77 -10 127 -54.5t65 -114.5l-105 -20q-21 77 -87 96v-369q68 19 89 98l104 -18q-17 -69 -67.5 -114.5t-125.5 -56.5v-124h-81zM270 181v369q-51 -14 -79 -63t-28 -122q0 -72 28 -120.5
t79 -63.5z" />
    <glyph glyph-name="sterling" unicode="&#xa3;" 
d="M52 0v85q112 20 112 146q0 19 -15 96h-113v86h89q-13 57 -13 113q0 99 61.5 158.5t165.5 59.5q96 0 153 -49.5t61 -142.5l-107 -8q-12 106 -109 106q-56 0 -85 -35t-29 -92q0 -50 15 -110h155v-86h-135q15 -52 15 -93q0 -93 -57 -144q18 0 51.5 0.5t49.5 0.5h228v-91
h-493z" />
    <glyph glyph-name="currency" unicode="&#xa4;" 
d="M104 105l-66 67l64 63q-39 61 -39 127q0 67 38 126l-63 64l66 66l64 -63q62 38 126 38q68 0 127 -38l64 63l65 -66q-7 -8 -63 -64q39 -61 39 -126q0 -68 -39 -127l20 -20l23.5 -23.5l19.5 -19.5l-65 -67q-12 10 -32 31.5t-32 32.5q-59 -38 -125 -38q-67 0 -128 38
q-7 -7 -19.5 -20t-23.5 -24t-21 -20zM295 218q60 0 101.5 42.5t41.5 101.5q0 58 -42 100.5t-101 42.5t-101 -42.5t-42 -100.5q0 -59 41.5 -101.5t101.5 -42.5z" />
    <glyph glyph-name="yen" unicode="&#xa5;" 
d="M238 0v216h-199v73h195l-22 44l-22 44h-151v72h110l-151 272h120q74 -137 175 -340h2q19 38 51 96.5t50 95.5l77 148h119l-156 -272h109v-72h-150l-26 -46q-4 -8 -10 -22t-9 -20h195v-73h-199v-216h-108z" />
    <glyph glyph-name="brokenbar" unicode="&#xa6;" horiz-adv-x="271" 
d="M89 385v345h93v-345h-93zM89 -157v345h93v-345h-93z" />
    <glyph glyph-name="section" unicode="&#xa7;" 
d="M291 -112q-98 0 -156.5 45t-67.5 124l108 10q12 -92 116 -92q49 0 76 18t27 52q0 29 -23 48.5t-78 42.5l-75 32q-87 37 -125 75.5t-38 106.5q0 86 98 133q-56 45 -56 108q0 70 57.5 111.5t148.5 41.5q89 0 145 -42t62 -120l-104 -8q-5 42 -33.5 63t-72.5 21
q-42 0 -67.5 -17.5t-25.5 -47.5q0 -27 17 -42.5t60 -34.5l71 -32q87 -39 133 -81t46 -105q0 -91 -89 -136q31 -27 45.5 -51.5t14.5 -62.5q0 -72 -59.5 -116t-154.5 -44zM287 247l83 -37q58 26 58 76q0 19 -7.5 34t-28.5 29.5t-38.5 23t-55.5 26.5l-75 35q-61 -23 -61 -74
q0 -36 30.5 -60t94.5 -53z" />
    <glyph glyph-name="dieresis" unicode="&#xa8;" horiz-adv-x="200" 
d="M226 610v111h102v-111h-102zM33 610v111h100v-111h-100z" />
    <glyph glyph-name="copyright" unicode="&#xa9;" horiz-adv-x="852" 
d="M425 -15q-159 0 -270 110.5t-111 268.5q0 159 111 269.5t270 110.5t271 -110.5t112 -269.5q0 -158 -112 -268.5t-271 -110.5zM429 134q-99 0 -156.5 63t-57.5 166q0 102 58.5 166t155.5 64q74 0 123.5 -36.5t65.5 -102.5q-52 -8 -76 -11q-25 85 -113 85q-63 0 -99 -46
t-36 -119t36.5 -119t99.5 -46q42 0 72 24t42 64q19 -3 77 -10q-17 -67 -67.5 -104.5t-124.5 -37.5zM425 47q132 0 224 92.5t92 224.5t-92 225t-224 93t-223 -92.5t-91 -225.5q0 -132 91 -224.5t223 -92.5z" />
    <glyph glyph-name="ordfeminine" unicode="&#xaa;" horiz-adv-x="416" 
d="M169 390q-57 0 -90 26.5t-33 74.5q0 46 29.5 69t101.5 36l55 10q22 4 28 7.5t6 14.5q0 22 -16 34.5t-45 12.5q-59 0 -64 -55l-84 5q4 52 43.5 83.5t106.5 31.5q72 0 108 -31.5t36 -99.5v-197q0 -5 0.5 -10t0.5 -6h-76q-1 5 -1 17v13l-1 1q-37 -37 -105 -37zM191 449
q36 0 56.5 20t20.5 58v12q0 9 1 13q-1 0 -47 -9q-63 -13 -75 -23q-11 -10 -11 -28q0 -43 55 -43z" />
    <glyph glyph-name="guillemotleft" unicode="&#xab;" horiz-adv-x="487" 
d="M338 87l-107 196l107 197h102l-100 -197l100 -196h-102zM139 87l-107 196l107 197h102l-100 -197l100 -196h-102z" />
    <glyph glyph-name="logicalnot" unicode="&#xac;" 
d="M437 176v178q0 38 1 57h-402v91h498v-326h-97z" />
    <glyph glyph-name="uni00AD" unicode="&#xad;" horiz-adv-x="409" 
d="M65 244v99h279v-99h-279z" />
    <glyph glyph-name="registered" unicode="&#xae;" horiz-adv-x="852" 
d="M425 -15q-159 0 -270 110.5t-111 268.5q0 159 111 269.5t270 110.5t271 -110.5t112 -269.5q0 -158 -112 -268.5t-271 -110.5zM425 47q132 0 224 92.5t92 224.5t-92 225t-224 93t-223 -92.5t-91 -225.5q0 -132 91 -224.5t223 -92.5zM273 142v444h177q77 0 116 -32t39 -90
q0 -81 -72 -111q53 -19 58 -96l3 -50q2 -38 19 -63v-2h-78q-5 9 -11 58l-3 39q-4 48 -23.5 66.5t-71.5 18.5h-80v-182h-73zM346 385h101q37 0 61 18.5t24 52.5q0 37 -23 52t-67 15h-96v-138z" />
    <glyph glyph-name="overscore" unicode="&#xaf;" horiz-adv-x="245" 
d="M-9 632v77h266v-77h-266z" />
    <glyph glyph-name="degree" unicode="&#xb0;" horiz-adv-x="398" 
d="M200 424q-68 0 -114.5 45.5t-46.5 112.5t46.5 112.5t114.5 45.5q66 0 112.5 -46t46.5 -112t-46.5 -112t-112.5 -46zM200 488q39 0 65.5 27t26.5 67q0 39 -26.5 66t-65.5 27q-41 0 -67.5 -27t-26.5 -66q0 -40 26.5 -67t67.5 -27z" />
    <glyph glyph-name="plusminus" unicode="&#xb1;" 
d="M244 244v140h-171v99h171v138h99v-138h172v-99h-172v-140h-99zM73 70v98h442v-98h-442z" />
    <glyph glyph-name="twosuperior" unicode="&#xb2;" horiz-adv-x="398" 
d="M34 393v72q39 37 136 118q55 45 75 73.5t20 64.5q0 30 -17.5 49t-49.5 19q-70 0 -75 -88l-90 2q0 75 45.5 121.5t121.5 46.5q75 0 118 -38t43 -106q0 -54 -30 -97t-87 -88q-25 -20 -53 -41.5t-37 -28.5v-2h30q7 1 48 1h131v-78h-329z" />
    <glyph glyph-name="threesuperior" unicode="&#xb3;" horiz-adv-x="402" 
d="M197 384q-78 0 -123 40.5t-48 114.5l93 3q5 -83 78 -83q35 0 55 20t20 51q0 34 -23.5 52.5t-64.5 18.5h-24v72h18q35 0 56.5 15.5t21.5 47.5q0 25 -15.5 41t-41.5 16q-68 0 -68 -73l-92 6q4 67 46.5 106t113.5 39q72 0 113 -34.5t41 -90.5q0 -76 -69 -103q84 -31 84 -115
q0 -65 -47.5 -104.5t-123.5 -39.5z" />
    <glyph glyph-name="acute" unicode="&#xb4;" horiz-adv-x="283" 
d="M87 601l84 129h135l-120 -129h-99z" />
    <glyph glyph-name="mu" unicode="&#xb5;" horiz-adv-x="624" 
d="M184 -184h-104q4 89 4 131v579h106v-313q0 -138 114 -138q65 0 98 46t33 126v279h106v-448q0 -49 1 -78h-102v23q0 32 1 44h-2q-53 -79 -165 -79q-50 0 -86 16v-66q0 -87 -4 -122z" />
    <glyph glyph-name="paragraph" unicode="&#xb6;" horiz-adv-x="628" 
d="M246 -144v495q-96 0 -157 50t-61 138q0 191 256 191h304v-77h-51q-23 0 -36 1q1 -20 1 -57v-741h-77v741q0 37 1 57q-15 -1 -42 -1h-20q-28 0 -43 1q1 -17 1 -65v-733h-76z" />
    <glyph glyph-name="middot" unicode="&#xb7;" horiz-adv-x="249" 
d="M65 219v126h119v-126h-119z" />
    <glyph glyph-name="cedilla" unicode="&#xb8;" horiz-adv-x="211" 
d="M114 -178h-121l104 129h102q-29 -43 -85 -129z" />
    <glyph glyph-name="onesuperior" unicode="&#xb9;" horiz-adv-x="347" 
d="M43 393v74h103v253h-113v64q60 2 88.5 18.5t34.5 59.5h81v-395h93v-74h-287z" />
    <glyph glyph-name="ordmasculine" unicode="&#xba;" horiz-adv-x="435" 
d="M218 384q-80 0 -129 49t-49 127q0 79 49.5 128.5t128.5 49.5t128 -49.5t49 -128.5q0 -78 -49 -127t-128 -49zM218 456q41 0 63 27.5t22 76.5q0 47 -22 76t-63 29t-64 -28.5t-23 -76.5q0 -49 22.5 -76.5t64.5 -27.5z" />
    <glyph glyph-name="guillemotright" unicode="&#xbb;" horiz-adv-x="487" 
d="M246 87l100 196l-100 197h102l107 -197l-107 -196h-102zM47 87l100 196l-100 197h102l107 -197l-107 -196h-102z" />
    <glyph glyph-name="onequarter" unicode="&#xbc;" horiz-adv-x="836" 
d="M141 260v327h-113v64q60 2 88.5 18.5t34.5 59.5h81v-469h-91zM176 0l322 730h91l-322 -730h-91zM653 0v93h-197v67l106 307h88l-103 -300h106v171h82v-171h72v-74h-72v-93h-82z" />
    <glyph glyph-name="onehalf" unicode="&#xbd;" horiz-adv-x="869" 
d="M141 260v327h-113v64q60 2 88.5 18.5t34.5 59.5h81v-469h-91zM494 1v72q39 37 136 118q55 45 75 73.5t20 64.5q0 30 -17.5 49t-49.5 19q-70 0 -75 -88l-90 2q0 75 45.5 121.5t121.5 46.5q75 0 118 -38t43 -106q0 -54 -30 -97t-87 -88q-25 -20 -53 -41.5t-37 -28.5v-2h30
q7 1 48 1h131v-78h-329zM176 0l322 730h91l-322 -730h-91z" />
    <glyph glyph-name="threequarters" unicode="&#xbe;" horiz-adv-x="940" 
d="M281 0l322 730h91l-322 -730h-91zM758 0v93h-197v67l106 307h88l-103 -300h106v171h82v-171h72v-74h-72v-93h-82zM209 251q-78 0 -123 40.5t-48 114.5l93 3q5 -83 78 -83q35 0 55 20t20 51q0 34 -23.5 52.5t-64.5 18.5h-24v72h18q35 0 56.5 15.5t21.5 47.5q0 25 -15.5 41
t-41.5 16q-68 0 -68 -73l-92 6q4 67 46.5 106t113.5 39q72 0 113 -34.5t41 -90.5q0 -76 -69 -103q84 -31 84 -115q0 -65 -47.5 -104.5t-123.5 -39.5z" />
    <glyph glyph-name="questiondown" unicode="&#xbf;" horiz-adv-x="524" 
d="M256 -219q-101 0 -163 55t-62 143q0 56 26 99t77 84l25 20q38 34 50.5 63.5t12.5 86.5h104q0 -72 -14.5 -116.5t-55.5 -82.5l-51 -47q-22 -20 -31.5 -30t-19 -31t-9.5 -47q0 -44 31 -72.5t84 -28.5q62 0 94.5 39t33.5 109l110 -5q0 -111 -62.5 -175t-179.5 -64zM214 397
v129h118v-129h-118z" />
    <glyph glyph-name="Agrave" unicode="&#xc0;" horiz-adv-x="704" 
d="M0 0l291 730h122l290 -730h-120l-77 201h-313l-78 -201h-115zM227 298h243l-58 157q-46 126 -62 174h-2q-28 -87 -62 -176zM309 803l-120 129h135l84 -129h-99z" />
    <glyph glyph-name="Aacute" unicode="&#xc1;" horiz-adv-x="704" 
d="M0 0l291 730h122l290 -730h-120l-77 201h-313l-78 -201h-115zM227 298h243l-58 157q-46 126 -62 174h-2q-28 -87 -62 -176zM299 803l84 129h135l-120 -129h-99z" />
    <glyph glyph-name="Acircumflex" unicode="&#xc2;" horiz-adv-x="704" 
d="M0 0l291 730h122l290 -730h-120l-77 201h-313l-78 -201h-115zM227 298h243l-58 157q-46 126 -62 174h-2q-28 -87 -62 -176zM182 803l101 129h132l101 -129h-96l-71 73l-71 -73h-96z" />
    <glyph glyph-name="Atilde" unicode="&#xc3;" horiz-adv-x="704" 
d="M0 0l291 730h122l290 -730h-120l-77 201h-313l-78 -201h-115zM227 298h243l-58 157q-46 126 -62 174h-2q-28 -87 -62 -176zM240 810q-10 1 -30.5 5.5t-30.5 5.5q20 106 101 106q31 0 58 -12l27 -12q36 -16 49 -16q28 0 42 43q4 -1 62 -12q-22 -106 -101 -106
q-32 0 -59 13l-26 12q-36 16 -49 16q-30 0 -43 -43z" />
    <glyph glyph-name="Adieresis" unicode="&#xc4;" horiz-adv-x="704" 
d="M0 0l291 730h122l290 -730h-120l-77 201h-313l-78 -201h-115zM227 298h243l-58 157q-46 126 -62 174h-2q-28 -87 -62 -176zM395 812v111h102v-111h-102zM202 812v111h100v-111h-100z" />
    <glyph glyph-name="Aring" unicode="&#xc5;" horiz-adv-x="704" 
d="M0 0l291 730h122l290 -730h-120l-77 201h-313l-78 -201h-115zM227 298h243l-58 157q-46 126 -62 174h-2q-28 -87 -62 -176zM349 779q-44 0 -74 30.5t-30 73.5q0 42 31 73t73 31q43 0 73.5 -30.5t30.5 -73.5t-30.5 -73.5t-73.5 -30.5zM349 833q20 0 35 14.5t15 35.5
t-14.5 35t-35.5 14t-35.5 -14t-14.5 -35t14.5 -35.5t35.5 -14.5z" />
    <glyph glyph-name="AE" unicode="&#xc6;" horiz-adv-x="976" 
d="M-20 0l402 730h537v-98h-356l11 -209h318v-98h-312l12 -228h335v-97h-443l-9 196h-268q-18 -33 -105 -196h-122zM257 292h213l-7 152l-10 188h-15l-39 -73q-6 -12 -32 -62t-41 -76z" />
    <glyph glyph-name="Ccedilla" unicode="&#xc7;" horiz-adv-x="739" 
d="M401 -14q-161 0 -258 105.5t-97 272.5t97.5 273.5t257.5 106.5q117 0 197.5 -56t108.5 -157l-111 -18q-53 134 -199 134q-108 0 -171.5 -80t-63.5 -202q0 -124 66.5 -204t175.5 -80q70 0 120 37.5t74 102.5l113 -17q-30 -102 -110.5 -160t-199.5 -58zM367 -178h-121
l104 129h102q-29 -43 -85 -129z" />
    <glyph glyph-name="Egrave" unicode="&#xc8;" horiz-adv-x="622" 
d="M90 0v730h475v-98h-366v-208h340v-98h-340v-228h374v-98h-483zM298 803l-120 129h135l84 -129h-99z" />
    <glyph glyph-name="Eacute" unicode="&#xc9;" horiz-adv-x="622" 
d="M90 0v730h475v-98h-366v-208h340v-98h-340v-228h374v-98h-483zM249 803l84 129h135l-120 -129h-99z" />
    <glyph glyph-name="Ecircumflex" unicode="&#xca;" horiz-adv-x="622" 
d="M90 0v730h475v-98h-366v-208h340v-98h-340v-228h374v-98h-483zM162 803l101 129h132l101 -129h-96l-71 73l-71 -73h-96z" />
    <glyph glyph-name="Edieresis" unicode="&#xcb;" horiz-adv-x="622" 
d="M90 0v730h475v-98h-366v-208h340v-98h-340v-228h374v-98h-483zM374 812v111h102v-111h-102zM181 812v111h100v-111h-100z" />
    <glyph glyph-name="Igrave" unicode="&#xcc;" horiz-adv-x="292" 
d="M90 0v730h112v-730h-112zM104 803l-120 129h135l84 -129h-99z" />
    <glyph glyph-name="Iacute" unicode="&#xcd;" horiz-adv-x="292" 
d="M90 0v730h112v-730h-112zM93 803l84 129h135l-120 -129h-99z" />
    <glyph glyph-name="Icircumflex" unicode="&#xce;" horiz-adv-x="292" 
d="M90 0v730h112v-730h-112zM-20 803l101 129h132l101 -129h-96l-71 73l-71 -73h-96z" />
    <glyph glyph-name="Idieresis" unicode="&#xcf;" horiz-adv-x="292" 
d="M90 0v730h112v-730h-112zM193 812v111h102v-111h-102zM0 812v111h100v-111h-100z" />
    <glyph glyph-name="Eth" unicode="&#xd0;" horiz-adv-x="757" 
d="M97 0v331h-73v87h73v312h251q180 0 270.5 -94.5t90.5 -264.5q0 -167 -87.5 -269t-267.5 -102h-257zM209 95h126q124 0 191.5 65.5t67.5 201.5q0 164 -90 226q-39 27 -92.5 36t-145.5 9h-57v-215h176v-87h-176v-236z" />
    <glyph glyph-name="Ntilde" unicode="&#xd1;" horiz-adv-x="782" 
d="M90 0v730h143l246 -413q43 -72 104 -181h2q-2 112 -2 184v410h109v-730h-141l-252 421q-40 68 -102 176h-1q0 -21 1.5 -80.5t1.5 -87.5v-429h-109zM285 810q-10 1 -30.5 5.5t-30.5 5.5q20 106 101 106q31 0 58 -12l27 -12q36 -16 49 -16q28 0 42 43q4 -1 62 -12
q-22 -106 -101 -106q-32 0 -59 13l-26 12q-36 16 -49 16q-30 0 -43 -43z" />
    <glyph glyph-name="Ograve" unicode="&#xd2;" horiz-adv-x="814" 
d="M407 -14q-162 0 -261.5 105.5t-99.5 272.5t100 273.5t261 106.5t261 -106.5t100 -273.5t-99 -272.5t-262 -105.5zM407 81q111 0 177.5 79.5t66.5 204.5q0 123 -66.5 202.5t-177.5 79.5q-112 0 -178 -79t-66 -202q0 -125 66 -205t178 -80zM372 803l-120 129h135l84 -129
h-99z" />
    <glyph glyph-name="Oacute" unicode="&#xd3;" horiz-adv-x="814" 
d="M407 -14q-162 0 -261.5 105.5t-99.5 272.5t100 273.5t261 106.5t261 -106.5t100 -273.5t-99 -272.5t-262 -105.5zM407 81q111 0 177.5 79.5t66.5 204.5q0 123 -66.5 202.5t-177.5 79.5q-112 0 -178 -79t-66 -202q0 -125 66 -205t178 -80zM344 803l84 129h135l-120 -129
h-99z" />
    <glyph glyph-name="Ocircumflex" unicode="&#xd4;" horiz-adv-x="814" 
d="M407 -14q-162 0 -261.5 105.5t-99.5 272.5t100 273.5t261 106.5t261 -106.5t100 -273.5t-99 -272.5t-262 -105.5zM407 81q111 0 177.5 79.5t66.5 204.5q0 123 -66.5 202.5t-177.5 79.5q-112 0 -178 -79t-66 -202q0 -125 66 -205t178 -80zM240 803l101 129h132l101 -129
h-96l-71 73l-71 -73h-96z" />
    <glyph glyph-name="Otilde" unicode="&#xd5;" horiz-adv-x="814" 
d="M407 -14q-162 0 -261.5 105.5t-99.5 272.5t100 273.5t261 106.5t261 -106.5t100 -273.5t-99 -272.5t-262 -105.5zM407 81q111 0 177.5 79.5t66.5 204.5q0 123 -66.5 202.5t-177.5 79.5q-112 0 -178 -79t-66 -202q0 -125 66 -205t178 -80zM300 810q-10 1 -30.5 5.5
t-30.5 5.5q20 106 101 106q31 0 58 -12l27 -12q36 -16 49 -16q28 0 42 43q4 -1 62 -12q-22 -106 -101 -106q-32 0 -59 13l-26 12q-36 16 -49 16q-30 0 -43 -43z" />
    <glyph glyph-name="Odieresis" unicode="&#xd6;" horiz-adv-x="814" 
d="M407 -14q-162 0 -261.5 105.5t-99.5 272.5t100 273.5t261 106.5t261 -106.5t100 -273.5t-99 -272.5t-262 -105.5zM407 81q111 0 177.5 79.5t66.5 204.5q0 123 -66.5 202.5t-177.5 79.5q-112 0 -178 -79t-66 -202q0 -125 66 -205t178 -80zM452 812v111h102v-111h-102z
M259 812v111h100v-111h-100z" />
    <glyph glyph-name="multiply" unicode="&#xd7;" 
d="M126 120l-67 67l168 168l-168 168l67 67l168 -168l167 167l67 -67l-167 -167l167 -167l-67 -67l-167 167z" />
    <glyph glyph-name="Oslash" unicode="&#xd8;" horiz-adv-x="811" 
d="M168 -56l-72 46l60 89q-108 106 -108 286q0 169 98.5 275.5t259.5 106.5q90 0 168 -38l52 77l73 -46l-54 -80q119 -106 119 -295q0 -170 -98 -275t-260 -105q-104 0 -181 43zM220 176l296 446q-50 26 -110 26q-110 0 -174 -78t-64 -203q0 -117 52 -191zM406 82
q109 0 172.5 79t63.5 204q0 126 -59 200l-301 -451q53 -32 124 -32z" />
    <glyph glyph-name="Ugrave" unicode="&#xd9;" horiz-adv-x="720" 
d="M360 -14q-139 0 -208.5 72.5t-69.5 232.5v439h112v-441q0 -109 39.5 -158.5t126.5 -49.5t126.5 49.5t39.5 158.5v441h112v-439q0 -160 -69.5 -232.5t-208.5 -72.5zM333 803l-120 129h135l84 -129h-99z" />
    <glyph glyph-name="Uacute" unicode="&#xda;" horiz-adv-x="720" 
d="M360 -14q-139 0 -208.5 72.5t-69.5 232.5v439h112v-441q0 -109 39.5 -158.5t126.5 -49.5t126.5 49.5t39.5 158.5v441h112v-439q0 -160 -69.5 -232.5t-208.5 -72.5zM285 803l84 129h135l-120 -129h-99z" />
    <glyph glyph-name="Ucircumflex" unicode="&#xdb;" horiz-adv-x="720" 
d="M360 -14q-139 0 -208.5 72.5t-69.5 232.5v439h112v-441q0 -109 39.5 -158.5t126.5 -49.5t126.5 49.5t39.5 158.5v441h112v-439q0 -160 -69.5 -232.5t-208.5 -72.5zM194 803l101 129h132l101 -129h-96l-71 73l-71 -73h-96z" />
    <glyph glyph-name="Udieresis" unicode="&#xdc;" horiz-adv-x="720" 
d="M360 -14q-139 0 -208.5 72.5t-69.5 232.5v439h112v-441q0 -109 39.5 -158.5t126.5 -49.5t126.5 49.5t39.5 158.5v441h112v-439q0 -160 -69.5 -232.5t-208.5 -72.5zM410 812v111h102v-111h-102zM217 812v111h100v-111h-100z" />
    <glyph glyph-name="Yacute" unicode="&#xdd;" horiz-adv-x="629" 
d="M258 0v289l-253 441h125l78 -145q9 -16 108 -198h3q19 34 53.5 99.5t50.5 95.5l83 148h122l-258 -441v-289h-112zM245 803l84 129h135l-120 -129h-99z" />
    <glyph glyph-name="Thorn" unicode="&#xde;" horiz-adv-x="641" 
d="M90 0v730h110v-111h151q259 0 259 -220q0 -110 -71.5 -165t-196.5 -55h-142v-179h-110zM200 274h135q166 0 166 125q0 69 -43.5 96.5t-120.5 27.5h-137v-249z" />
    <glyph glyph-name="germandbls" unicode="&#xdf;" horiz-adv-x="591" 
d="M311 -4q-37 0 -56 4v86q23 -6 43 -6q61 0 100.5 36.5t39.5 105.5q0 142 -181 142v83q147 0 147 105q0 46 -28.5 72.5t-78.5 26.5q-53 0 -81 -30q-30 -31 -30 -116v-505h-107v507q0 232 223 232q99 0 154 -46.5t55 -128.5q0 -113 -102 -150q140 -45 140 -192
q0 -108 -65.5 -167t-172.5 -59z" />
    <glyph glyph-name="agrave" unicode="&#xe0;" horiz-adv-x="566" 
d="M230 -9q-86 0 -137.5 41t-51.5 113q0 74 48.5 107.5t149.5 54.5l99 19q4 1 11 2q28 5 36 11t8 27q0 40 -29.5 63.5t-82.5 23.5q-108 0 -121 -97l-101 8q8 78 69 124.5t153 46.5q215 0 215 -197v-315q0 -5 0.5 -13t0.5 -10h-97v20q0 18 1 25q0 7 1 10h-3q-59 -64 -169 -64
zM254 66q66 0 103.5 39t37.5 106v22q0 9 2 23l-52 -11l-75 -15q-69 -13 -94.5 -28.5t-25.5 -54.5t27.5 -60t76.5 -21zM349 601h-99l-120 129h135z" />
    <glyph glyph-name="aacute" unicode="&#xe1;" horiz-adv-x="566" 
d="M230 -9q-86 0 -137.5 41t-51.5 113q0 74 48.5 107.5t149.5 54.5l99 19q4 1 11 2q28 5 36 11t8 27q0 40 -29.5 63.5t-82.5 23.5q-108 0 -121 -97l-101 8q8 78 69 124.5t153 46.5q215 0 215 -197v-315q0 -5 0.5 -13t0.5 -10h-97v20q0 18 1 25q0 7 1 10h-3q-59 -64 -169 -64
zM254 66q66 0 103.5 39t37.5 106v22q0 9 2 23l-52 -11l-75 -15q-69 -13 -94.5 -28.5t-25.5 -54.5t27.5 -60t76.5 -21zM216 601l84 129h135l-120 -129h-99z" />
    <glyph glyph-name="acircumflex" unicode="&#xe2;" horiz-adv-x="566" 
d="M230 -9q-86 0 -137.5 41t-51.5 113q0 74 48.5 107.5t149.5 54.5l99 19q4 1 11 2q28 5 36 11t8 27q0 40 -29.5 63.5t-82.5 23.5q-108 0 -121 -97l-101 8q8 78 69 124.5t153 46.5q215 0 215 -197v-315q0 -5 0.5 -13t0.5 -10h-97v20q0 18 1 25q0 7 1 10h-3q-59 -64 -169 -64
zM254 66q66 0 103.5 39t37.5 106v22q0 9 2 23l-52 -11l-75 -15q-69 -13 -94.5 -28.5t-25.5 -54.5t27.5 -60t76.5 -21zM210 601h-95q83 108 100 129h132l100 -129h-95l-71 73z" />
    <glyph glyph-name="atilde" unicode="&#xe3;" horiz-adv-x="566" 
d="M230 -9q-86 0 -137.5 41t-51.5 113q0 74 48.5 107.5t149.5 54.5l99 19q4 1 11 2q28 5 36 11t8 27q0 40 -29.5 63.5t-82.5 23.5q-108 0 -121 -97l-101 8q8 78 69 124.5t153 46.5q215 0 215 -197v-315q0 -5 0.5 -13t0.5 -10h-97v20q0 18 1 25q0 7 1 10h-3q-59 -64 -169 -64
zM254 66q66 0 103.5 39t37.5 106v22q0 9 2 23l-52 -11l-75 -15q-69 -13 -94.5 -28.5t-25.5 -54.5t27.5 -60t76.5 -21zM172 608q-9 1 -29.5 5t-31.5 6q22 106 101 106q28 0 61 -14l25 -11q34 -15 49 -15q27 0 41 43q12 -3 35 -7t26 -5q-20 -106 -101 -106q-26 0 -61 15
l-26 11q-36 15 -46 15q-30 0 -43 -43z" />
    <glyph glyph-name="adieresis" unicode="&#xe4;" horiz-adv-x="566" 
d="M230 -9q-86 0 -137.5 41t-51.5 113q0 74 48.5 107.5t149.5 54.5l99 19q4 1 11 2q28 5 36 11t8 27q0 40 -29.5 63.5t-82.5 23.5q-108 0 -121 -97l-101 8q8 78 69 124.5t153 46.5q215 0 215 -197v-315q0 -5 0.5 -13t0.5 -10h-97v20q0 18 1 25q0 7 1 10h-3q-59 -64 -169 -64
zM254 66q66 0 103.5 39t37.5 106v22q0 9 2 23l-52 -11l-75 -15q-69 -13 -94.5 -28.5t-25.5 -54.5t27.5 -60t76.5 -21zM330 610v111h102v-111h-102zM137 610v111h100v-111h-100z" />
    <glyph glyph-name="aring" unicode="&#xe5;" horiz-adv-x="566" 
d="M230 -9q-86 0 -137.5 41t-51.5 113q0 74 48.5 107.5t149.5 54.5l99 19q4 1 11 2q28 5 36 11t8 27q0 40 -29.5 63.5t-82.5 23.5q-108 0 -121 -97l-101 8q8 78 69 124.5t153 46.5q215 0 215 -197v-315q0 -5 0.5 -13t0.5 -10h-97v20q0 18 1 25q0 7 1 10h-3q-59 -64 -169 -64
zM254 66q66 0 103.5 39t37.5 106v22q0 9 2 23l-52 -11l-75 -15q-69 -13 -94.5 -28.5t-25.5 -54.5t27.5 -60t76.5 -21zM286 577q-43 0 -73 30.5t-30 73.5t30 73.5t73 30.5q44 0 74 -30.5t30 -73.5t-30 -73.5t-74 -30.5zM286 631q20 0 35 14.5t15 35.5t-14.5 35t-35.5 14
t-35.5 -14t-14.5 -35t15 -35.5t35 -14.5z" />
    <glyph glyph-name="ae" unicode="&#xe6;" horiz-adv-x="931" 
d="M645 -12q-131 0 -202 90h-5q-75 -87 -210 -87q-86 0 -136.5 41t-50.5 113q0 74 49.5 109t147.5 53l100 19q4 1 11 2q28 5 36 11t8 27q0 40 -29.5 63.5t-82.5 23.5q-108 0 -121 -97l-102 9q10 78 70.5 124t153.5 46q129 0 180 -72q68 74 180 74q127 0 187 -83t60 -219
h-398q2 -69 45 -114t112 -45q98 0 148 85l89 -38q-32 -61 -93 -98t-147 -37zM254 66q66 0 103.5 39t37.5 106v22q0 9 2 23q-1 0 -31 -7l-50 -10q-7 -1 -21 -4q-37 -7 -53 -10.5t-38.5 -10.5t-31 -15.5t-15.5 -21.5t-7 -31q0 -38 28 -59t76 -21zM491 314h290q-4 58 -40 99
t-100 41q-65 0 -104.5 -40t-45.5 -100z" />
    <glyph glyph-name="ccedilla" unicode="&#xe7;" horiz-adv-x="568" 
d="M303 -13q-117 0 -188.5 75.5t-71.5 198.5q0 124 71.5 201.5t189.5 77.5q92 0 152.5 -43.5t81.5 -120.5l-103 -22q-32 96 -131 96q-71 0 -110 -50.5t-39 -138.5q0 -87 39.5 -136.5t108.5 -49.5q103 0 134 97l100 -21q-20 -76 -82 -120t-152 -44zM277 -178h-121l104 129
h102q-29 -43 -85 -129z" />
    <glyph glyph-name="egrave" unicode="&#xe8;" horiz-adv-x="601" 
d="M310 -13q-123 0 -195 74.5t-72 199.5q0 122 72 200.5t191 78.5q128 0 191 -84.5t63 -220.5h-413q2 -70 48 -115.5t117 -45.5q106 0 155 87l89 -38q-33 -61 -95.5 -98.5t-150.5 -37.5zM148 315h303q-4 59 -42 100t-104 41q-64 0 -106 -40.5t-51 -100.5zM366 601h-99
l-120 129h135z" />
    <glyph glyph-name="eacute" unicode="&#xe9;" horiz-adv-x="601" 
d="M310 -13q-123 0 -195 74.5t-72 199.5q0 122 72 200.5t191 78.5q128 0 191 -84.5t63 -220.5h-413q2 -70 48 -115.5t117 -45.5q106 0 155 87l89 -38q-33 -61 -95.5 -98.5t-150.5 -37.5zM148 315h303q-4 59 -42 100t-104 41q-64 0 -106 -40.5t-51 -100.5zM244 601l84 129
h135l-120 -129h-99z" />
    <glyph glyph-name="ecircumflex" unicode="&#xea;" horiz-adv-x="601" 
d="M310 -13q-123 0 -195 74.5t-72 199.5q0 122 72 200.5t191 78.5q128 0 191 -84.5t63 -220.5h-413q2 -70 48 -115.5t117 -45.5q106 0 155 87l89 -38q-33 -61 -95.5 -98.5t-150.5 -37.5zM148 315h303q-4 59 -42 100t-104 41q-64 0 -106 -40.5t-51 -100.5zM236 601h-95
q83 108 100 129h132l100 -129h-95l-71 73z" />
    <glyph glyph-name="edieresis" unicode="&#xeb;" horiz-adv-x="601" 
d="M310 -13q-123 0 -195 74.5t-72 199.5q0 122 72 200.5t191 78.5q128 0 191 -84.5t63 -220.5h-413q2 -70 48 -115.5t117 -45.5q106 0 155 87l89 -38q-33 -61 -95.5 -98.5t-150.5 -37.5zM148 315h303q-4 59 -42 100t-104 41q-64 0 -106 -40.5t-51 -100.5zM351 610v111h102
v-111h-102zM158 610v111h100v-111h-100z" />
    <glyph glyph-name="igrave" unicode="&#xec;" horiz-adv-x="264" 
d="M191 601h-99q-13 14 -38 40.5t-45 48t-37 40.5h135zM79 0v526h106v-526h-106z" />
    <glyph glyph-name="iacute" unicode="&#xed;" horiz-adv-x="264" 
d="M80 601l84 129h135l-120 -129h-99zM79 0v526h106v-526h-106z" />
    <glyph glyph-name="icircumflex" unicode="&#xee;" horiz-adv-x="264" 
d="M79 0v526h106v-526h-106zM61 601h-95q83 108 100 129h132l100 -129h-95l-71 73z" />
    <glyph glyph-name="idieresis" unicode="&#xef;" horiz-adv-x="264" 
d="M179 610v111h102v-111h-102zM-14 610v111h100v-111h-100zM79 0v526h106v-526h-106z" />
    <glyph glyph-name="eth" unicode="&#xf0;" horiz-adv-x="608" 
d="M301 -12q-118 0 -188 73.5t-70 198.5t69.5 199.5t176.5 74.5q56 0 96 -25l4 3q-46 66 -110 105l-121 -60l-31 45l97 48q-84 43 -121 58l62 44q57 -17 146 -60l108 54l31 -44l-88 -45q201 -148 201 -386q0 -134 -69.5 -208.5t-192.5 -74.5zM301 67q72 0 111.5 52t39.5 143
t-39 142.5t-112 51.5q-72 0 -111 -52.5t-39 -141.5q0 -92 38.5 -143.5t111.5 -51.5z" />
    <glyph glyph-name="ntilde" unicode="&#xf1;" horiz-adv-x="611" 
d="M79 0v422q0 14 -0.5 52.5t-0.5 51.5h102v-22q0 -35 -1 -48h1q57 84 168 84q88 0 139.5 -54t51.5 -157v-329h-106v263q0 97 -24.5 141.5t-89.5 44.5q-134 0 -134 -189v-260h-106zM213 608q-9 1 -29.5 5t-31.5 6q22 106 101 106q28 0 61 -14l25 -11q34 -15 49 -15
q27 0 41 43q12 -3 35 -7t26 -5q-20 -106 -101 -106q-26 0 -61 15l-26 11q-36 15 -46 15q-30 0 -43 -43z" />
    <glyph glyph-name="ograve" unicode="&#xf2;" horiz-adv-x="622" 
d="M310 -14q-120 0 -194 76.5t-74 200.5q0 123 75 200.5t195 77.5q119 0 193.5 -77.5t74.5 -200.5t-75 -200t-195 -77zM310 75q75 0 117 51t42 136q0 83 -42.5 136.5t-115.5 53.5q-75 0 -117 -52.5t-42 -136.5q0 -85 42 -136.5t116 -51.5zM379 601h-99q-13 14 -38 40.5
t-45 48t-37 40.5h135z" />
    <glyph glyph-name="oacute" unicode="&#xf3;" horiz-adv-x="622" 
d="M310 -14q-120 0 -194 76.5t-74 200.5q0 123 75 200.5t195 77.5q119 0 193.5 -77.5t74.5 -200.5t-75 -200t-195 -77zM310 75q75 0 117 51t42 136q0 83 -42.5 136.5t-115.5 53.5q-75 0 -117 -52.5t-42 -136.5q0 -85 42 -136.5t116 -51.5zM240 601l84 129h135l-120 -129h-99
z" />
    <glyph glyph-name="ocircumflex" unicode="&#xf4;" horiz-adv-x="622" 
d="M310 -14q-120 0 -194 76.5t-74 200.5q0 123 75 200.5t195 77.5q119 0 193.5 -77.5t74.5 -200.5t-75 -200t-195 -77zM310 75q75 0 117 51t42 136q0 83 -42.5 136.5t-115.5 53.5q-75 0 -117 -52.5t-42 -136.5q0 -85 42 -136.5t116 -51.5zM238 601h-95q83 108 100 129h132
l100 -129h-95l-71 73z" />
    <glyph glyph-name="otilde" unicode="&#xf5;" horiz-adv-x="622" 
d="M310 -14q-120 0 -194 76.5t-74 200.5q0 123 75 200.5t195 77.5q119 0 193.5 -77.5t74.5 -200.5t-75 -200t-195 -77zM310 75q75 0 117 51t42 136q0 83 -42.5 136.5t-115.5 53.5q-75 0 -117 -52.5t-42 -136.5q0 -85 42 -136.5t116 -51.5zM201 608q-9 1 -29.5 5t-31.5 6
q22 106 101 106q28 0 61 -14l25 -11q34 -15 49 -15q27 0 41 43q12 -3 35 -7t26 -5q-20 -106 -101 -106q-26 0 -61 15l-26 11q-36 15 -46 15q-30 0 -43 -43z" />
    <glyph glyph-name="odieresis" unicode="&#xf6;" horiz-adv-x="622" 
d="M310 -14q-120 0 -194 76.5t-74 200.5q0 123 75 200.5t195 77.5q119 0 193.5 -77.5t74.5 -200.5t-75 -200t-195 -77zM310 75q75 0 117 51t42 136q0 83 -42.5 136.5t-115.5 53.5q-75 0 -117 -52.5t-42 -136.5q0 -85 42 -136.5t116 -51.5zM356 610v111h102v-111h-102z
M163 610v111h100v-111h-100z" />
    <glyph glyph-name="divide" unicode="&#xf7;" 
d="M52 310v93h484v-93h-484zM294 105q-27 0 -45.5 18.5t-18.5 45.5q0 26 18.5 45t45.5 19q26 0 45 -19t19 -45q0 -27 -19 -45.5t-45 -18.5zM294 480q-27 0 -45.5 18.5t-18.5 45.5q0 26 18.5 45t45.5 19q26 0 45 -19t19 -45q0 -27 -19 -45.5t-45 -18.5z" />
    <glyph glyph-name="oslash" unicode="&#xf8;" horiz-adv-x="625" 
d="M186 12l-47 -69q-8 5 -31 19t-35 23l49 72q-78 75 -78 207q0 126 74 203t196 77q64 0 118 -25l45 68q8 -5 31 -19t35 -23l-46 -68q85 -82 85 -213q0 -125 -74 -201.5t-196 -76.5q-69 0 -126 26zM182 147l197 293q-33 14 -66 14q-74 0 -116 -52t-42 -137q0 -71 27 -118z
M312 76q74 0 115.5 51t41.5 136q0 74 -32 124l-198 -296q31 -15 73 -15z" />
    <glyph glyph-name="ugrave" unicode="&#xf9;" horiz-adv-x="608" 
d="M262 -12q-88 0 -139 49t-51 149v340h106v-313q0 -138 114 -138q65 0 98 46t33 126v279h106v-448q0 -49 1 -78h-102v23q0 32 1 44h-2q-56 -79 -165 -79zM376 601h-99l-120 129h135z" />
    <glyph glyph-name="uacute" unicode="&#xfa;" horiz-adv-x="608" 
d="M262 -12q-88 0 -139 49t-51 149v340h106v-313q0 -138 114 -138q65 0 98 46t33 126v279h106v-448q0 -49 1 -78h-102v23q0 32 1 44h-2q-56 -79 -165 -79zM232 601l84 129h135l-120 -129h-99z" />
    <glyph glyph-name="ucircumflex" unicode="&#xfb;" horiz-adv-x="608" 
d="M262 -12q-88 0 -139 49t-51 149v340h106v-313q0 -138 114 -138q65 0 98 46t33 126v279h106v-448q0 -49 1 -78h-102v23q0 32 1 44h-2q-56 -79 -165 -79zM231 601h-95q83 108 100 129h132l100 -129h-95l-71 73z" />
    <glyph glyph-name="udieresis" unicode="&#xfc;" horiz-adv-x="608" 
d="M262 -12q-88 0 -139 49t-51 149v340h106v-313q0 -138 114 -138q65 0 98 46t33 126v279h106v-448q0 -49 1 -78h-102v23q0 32 1 44h-2q-56 -79 -165 -79zM346 610v111h102v-111h-102zM153 610v111h100v-111h-100z" />
    <glyph glyph-name="yacute" unicode="&#xfd;" horiz-adv-x="530" 
d="M108 -191q-19 0 -40 3l-10 83q18 -3 35 -3q45 0 73 22.5t49 85.5q-96 244 -204 526h116l80 -230q32 -90 61 -182h2q20 65 61 187l76 225h111q-58 -155 -215 -566q-33 -84 -74 -117.5t-121 -33.5zM199 601l84 129h135l-120 -129h-99z" />
    <glyph glyph-name="thorn" unicode="&#xfe;" horiz-adv-x="642" 
d="M79 -188v918h105v-170q0 -16 -4 -105h2q59 84 173 84q106 0 175 -77t69 -199q0 -123 -68.5 -199t-175.5 -76q-115 0 -171 79h-2q2 -22 2 -99v-156h-105zM336 75q70 0 111 51.5t41 133.5q0 83 -41 135.5t-112 52.5q-70 0 -112.5 -51.5t-42.5 -135.5q0 -83 42.5 -134.5
t113.5 -51.5z" />
    <glyph glyph-name="ydieresis" unicode="&#xff;" horiz-adv-x="530" 
d="M108 -191q-19 0 -40 3l-10 83q18 -3 35 -3q45 0 73 22.5t49 85.5q-96 244 -204 526h116l80 -230q32 -90 61 -182h2q20 65 61 187l76 225h111q-58 -155 -215 -566q-33 -84 -74 -117.5t-121 -33.5zM315 610v111h102v-111h-102zM122 610v111h100v-111h-100z" />
    <glyph glyph-name="Amacron" unicode="&#x100;" horiz-adv-x="704" 
d="M0 0l291 730h122l290 -730h-120l-77 201h-313l-78 -201h-115zM227 298h243l-58 157q-46 126 -62 174h-2q-28 -87 -62 -176zM218 836v77h268v-77h-268z" />
    <glyph glyph-name="amacron" unicode="&#x101;" horiz-adv-x="566" 
d="M230 -9q-86 0 -137.5 41t-51.5 113q0 74 48.5 107.5t149.5 54.5l99 19q4 1 11 2q28 5 36 11t8 27q0 40 -29.5 63.5t-82.5 23.5q-108 0 -121 -97l-101 8q8 78 69 124.5t153 46.5q215 0 215 -197v-315q0 -5 0.5 -13t0.5 -10h-97v20q0 18 1 25q0 7 1 10h-3q-59 -64 -169 -64
zM254 66q66 0 103.5 39t37.5 106v22q0 9 2 23l-52 -11l-75 -15q-69 -13 -94.5 -28.5t-25.5 -54.5t27.5 -60t76.5 -21zM152 632v77h266v-77h-266z" />
    <glyph glyph-name="Abreve" unicode="&#x102;" horiz-adv-x="704" 
d="M0 0l291 730h122l290 -730h-120l-77 201h-313l-78 -201h-115zM227 298h243l-58 157q-46 126 -62 174h-2q-28 -87 -62 -176zM352 802q-62 0 -103.5 30.5t-56.5 87.5l67 18q26 -62 93 -62q66 0 92 62l68 -18q-33 -118 -160 -118z" />
    <glyph glyph-name="abreve" unicode="&#x103;" horiz-adv-x="566" 
d="M230 -9q-86 0 -137.5 41t-51.5 113q0 74 48.5 107.5t149.5 54.5l99 19q4 1 11 2q28 5 36 11t8 27q0 40 -29.5 63.5t-82.5 23.5q-108 0 -121 -97l-101 8q8 78 69 124.5t153 46.5q215 0 215 -197v-315q0 -5 0.5 -13t0.5 -10h-97v20q0 18 1 25q0 7 1 10h-3q-59 -64 -169 -64
zM254 66q66 0 103.5 39t37.5 106v22q0 9 2 23l-52 -11l-75 -15q-69 -13 -94.5 -28.5t-25.5 -54.5t27.5 -60t76.5 -21zM286 600q-128 0 -160 117q39 12 67 18q26 -62 93 -62q66 0 92 62q31 -7 68 -18q-32 -117 -160 -117z" />
    <glyph glyph-name="Aogonek" unicode="&#x104;" horiz-adv-x="704" 
d="M650 -192q-55 0 -85 23.5t-30 63.5q0 53 71 105h-23l-77 201h-313l-78 -201h-115l291 730h122l290 -730q-82 -48 -82 -86q0 -36 40 -36q23 0 40 11l37 -59q-32 -22 -88 -22zM227 298h243l-58 157q-46 126 -62 174h-2q-28 -87 -62 -176z" />
    <glyph glyph-name="aogonek" unicode="&#x105;" horiz-adv-x="566" 
d="M444 -192q-55 0 -85 23.5t-30 63.5q0 53 71 105v20q0 18 1 25q0 7 1 10h-3q-59 -64 -169 -64q-86 0 -137.5 41t-51.5 113q0 74 48.5 107.5t149.5 54.5l99 19q4 1 11 2q28 5 36 11t8 27q0 40 -29.5 63.5t-82.5 23.5q-108 0 -121 -97l-101 8q8 78 69 124.5t153 46.5
q215 0 215 -197v-315q0 -5 0.5 -13t0.5 -10q-82 -48 -82 -86q0 -36 40 -36q23 0 40 11l37 -59q-32 -22 -88 -22zM254 66q66 0 103.5 39t37.5 106v22q0 9 2 23l-52 -11l-75 -15q-69 -13 -94.5 -28.5t-25.5 -54.5t27.5 -60t76.5 -21z" />
    <glyph glyph-name="Cacute" unicode="&#x106;" horiz-adv-x="739" 
d="M401 -14q-161 0 -258 105.5t-97 272.5t97.5 273.5t257.5 106.5q117 0 197.5 -56t108.5 -157l-111 -18q-53 134 -199 134q-108 0 -171.5 -80t-63.5 -202q0 -124 66.5 -204t175.5 -80q70 0 120 37.5t74 102.5l113 -17q-30 -102 -110.5 -160t-199.5 -58zM341 803l84 129h135
l-120 -129h-99z" />
    <glyph glyph-name="cacute" unicode="&#x107;" horiz-adv-x="568" 
d="M303 -13q-117 0 -188.5 75.5t-71.5 198.5q0 124 71.5 201.5t189.5 77.5q92 0 152.5 -43.5t81.5 -120.5l-103 -22q-32 96 -131 96q-71 0 -110 -50.5t-39 -138.5q0 -87 39.5 -136.5t108.5 -49.5q103 0 134 97l100 -21q-20 -76 -82 -120t-152 -44zM240 601l84 129h135
l-120 -129h-99z" />
    <glyph glyph-name="Ccircumflex" unicode="&#x108;" horiz-adv-x="739" 
d="M401 -14q-161 0 -258 105.5t-97 272.5t97.5 273.5t257.5 106.5q117 0 197.5 -56t108.5 -157l-111 -18q-53 134 -199 134q-108 0 -171.5 -80t-63.5 -202q0 -124 66.5 -204t175.5 -80q70 0 120 37.5t74 102.5l113 -17q-30 -102 -110.5 -160t-199.5 -58zM236 803l101 129
h132l101 -129h-96l-71 73l-71 -73h-96z" />
    <glyph glyph-name="ccircumflex" unicode="&#x109;" horiz-adv-x="568" 
d="M303 -13q-117 0 -188.5 75.5t-71.5 198.5q0 124 71.5 201.5t189.5 77.5q92 0 152.5 -43.5t81.5 -120.5l-103 -22q-32 96 -131 96q-71 0 -110 -50.5t-39 -138.5q0 -87 39.5 -136.5t108.5 -49.5q103 0 134 97l100 -21q-20 -76 -82 -120t-152 -44zM237 601h-95
q82 108 100 129h132l100 -129h-95l-71 73z" />
    <glyph glyph-name="Cdotaccent" unicode="&#x10a;" horiz-adv-x="739" 
d="M401 -14q-161 0 -258 105.5t-97 272.5t97.5 273.5t257.5 106.5q117 0 197.5 -56t108.5 -157l-111 -18q-53 134 -199 134q-108 0 -171.5 -80t-63.5 -202q0 -124 66.5 -204t175.5 -80q70 0 120 37.5t74 102.5l113 -17q-30 -102 -110.5 -160t-199.5 -58zM349 812v111h104
v-111h-104z" />
    <glyph glyph-name="cdotaccent" unicode="&#x10b;" horiz-adv-x="568" 
d="M303 -13q-117 0 -188.5 75.5t-71.5 198.5q0 124 71.5 201.5t189.5 77.5q92 0 152.5 -43.5t81.5 -120.5l-103 -22q-32 96 -131 96q-71 0 -110 -50.5t-39 -138.5q0 -87 39.5 -136.5t108.5 -49.5q103 0 134 97l100 -21q-20 -76 -82 -120t-152 -44zM258 610v111h104v-111
h-104z" />
    <glyph glyph-name="Ccaron" unicode="&#x10c;" horiz-adv-x="739" 
d="M401 -14q-161 0 -258 105.5t-97 272.5t97.5 273.5t257.5 106.5q117 0 197.5 -56t108.5 -157l-111 -18q-53 134 -199 134q-108 0 -171.5 -80t-63.5 -202q0 -124 66.5 -204t175.5 -80q70 0 120 37.5t74 102.5l113 -17q-30 -102 -110.5 -160t-199.5 -58zM335 803l-101 129
h96l71 -74l71 74h96l-101 -129h-132z" />
    <glyph glyph-name="ccaron" unicode="&#x10d;" horiz-adv-x="568" 
d="M303 -13q-117 0 -188.5 75.5t-71.5 198.5q0 124 71.5 201.5t189.5 77.5q92 0 152.5 -43.5t81.5 -120.5l-103 -22q-32 96 -131 96q-71 0 -110 -50.5t-39 -138.5q0 -87 39.5 -136.5t108.5 -49.5q103 0 134 97l100 -21q-20 -76 -82 -120t-152 -44zM376 601h-132
q-18 21 -100 129h95l71 -74l71 74h95z" />
    <glyph glyph-name="Dcaron" unicode="&#x10e;" horiz-adv-x="750" 
d="M90 0v730h251q180 0 270.5 -94.5t90.5 -264.5q0 -167 -87.5 -269t-267.5 -102h-257zM202 95h126q124 0 191.5 65.5t67.5 201.5q0 168 -95 229q-41 25 -93.5 34t-139.5 9h-57v-539zM287 803l-101 129h96l71 -74l71 74h96l-101 -129h-132z" />
    <glyph glyph-name="dcaron" unicode="&#x10f;" horiz-adv-x="654" 
d="M285 -12q-107 0 -174.5 75t-67.5 198q0 122 68 200t174 78q115 0 174 -85q-1 27 -1 77v199h105v-654q0 -60 1 -76h-101v24q0 34 1 49h-1q-61 -85 -178 -85zM304 75q72 0 115 52t43 136q0 83 -43 134.5t-114 51.5q-70 0 -111.5 -52.5t-41.5 -135.5t41 -134.5t111 -51.5z
M608 561l34 169h113l-62 -169h-85z" />
    <glyph glyph-name="Dcroat" unicode="&#x110;" horiz-adv-x="757" 
d="M97 0v331h-73v87h73v312h251q180 0 270.5 -94.5t90.5 -264.5q0 -167 -87.5 -269t-267.5 -102h-257zM209 95h126q124 0 191.5 65.5t67.5 201.5q0 164 -90 226q-39 27 -92.5 36t-145.5 9h-57v-215h176v-87h-176v-236z" />
    <glyph glyph-name="dslash" unicode="&#x111;" horiz-adv-x="642" 
d="M285 -12q-107 0 -174.5 75t-67.5 198q0 122 68 200t174 78q115 0 174 -85q-1 31 -1 89v46h-139v81h139v60h105v-60h35v-81h-35v-513q0 -60 1 -76h-101v24q0 34 1 49h-1q-61 -85 -178 -85zM304 75q72 0 115 52t43 136q0 83 -43 134.5t-114 51.5q-70 0 -111.5 -52.5
t-41.5 -135.5t41 -134.5t111 -51.5z" />
    <glyph glyph-name="Emacron" unicode="&#x112;" horiz-adv-x="622" 
d="M90 0v730h475v-98h-366v-208h340v-98h-340v-228h374v-98h-483zM195 836v77h268v-77h-268z" />
    <glyph glyph-name="emacron" unicode="&#x113;" horiz-adv-x="601" 
d="M310 -13q-123 0 -195 74.5t-72 199.5q0 122 72 200.5t191 78.5q128 0 191 -84.5t63 -220.5h-413q2 -70 48 -115.5t117 -45.5q106 0 155 87l89 -38q-33 -61 -95.5 -98.5t-150.5 -37.5zM148 315h303q-4 59 -42 100t-104 41q-64 0 -106 -40.5t-51 -100.5zM174 632v77h266
v-77h-266z" />
    <glyph glyph-name="Ebreve" unicode="&#x114;" horiz-adv-x="622" 
d="M90 0v730h475v-98h-366v-208h340v-98h-340v-228h374v-98h-483zM332 802q-62 0 -103.5 30.5t-56.5 87.5l67 18q26 -62 93 -62q66 0 92 62l68 -18q-33 -118 -160 -118z" />
    <glyph glyph-name="ebreve" unicode="&#x115;" horiz-adv-x="601" 
d="M310 -13q-123 0 -195 74.5t-72 199.5q0 122 72 200.5t191 78.5q128 0 191 -84.5t63 -220.5h-413q2 -70 48 -115.5t117 -45.5q106 0 155 87l89 -38q-33 -61 -95.5 -98.5t-150.5 -37.5zM148 315h303q-4 59 -42 100t-104 41q-64 0 -106 -40.5t-51 -100.5zM308 600
q-128 0 -160 117q40 12 67 18q26 -62 93 -62q66 0 92 62q31 -7 68 -18q-32 -117 -160 -117z" />
    <glyph glyph-name="Edotaccent" unicode="&#x116;" horiz-adv-x="622" 
d="M90 0v730h475v-98h-366v-208h340v-98h-340v-228h374v-98h-483zM283 812v111h104v-111h-104z" />
    <glyph glyph-name="edotaccent" unicode="&#x117;" horiz-adv-x="601" 
d="M310 -13q-123 0 -195 74.5t-72 199.5q0 122 72 200.5t191 78.5q128 0 191 -84.5t63 -220.5h-413q2 -70 48 -115.5t117 -45.5q106 0 155 87l89 -38q-33 -61 -95.5 -98.5t-150.5 -37.5zM148 315h303q-4 59 -42 100t-104 41q-64 0 -106 -40.5t-51 -100.5zM255 610v111h104
v-111h-104z" />
    <glyph glyph-name="Eogonek" unicode="&#x118;" horiz-adv-x="622" 
d="M90 0v730h475v-98h-366v-208h340v-98h-340v-228h374v-98q-82 -48 -82 -86q0 -36 40 -36q23 0 40 11l37 -59q-32 -22 -88 -22q-55 0 -85 23.5t-30 63.5q0 53 71 105h-386z" />
    <glyph glyph-name="eogonek" unicode="&#x119;" horiz-adv-x="601" 
d="M350 -192q-55 0 -85 23.5t-30 63.5q0 51 54 93q-115 6 -180.5 79t-65.5 194q0 122 72 200.5t191 78.5q128 0 191 -84.5t63 -220.5h-413q2 -70 48 -115.5t117 -45.5q106 0 155 87l89 -38q-52 -94 -154 -123q-81 -47 -81 -86q0 -36 40 -36q23 0 40 11l37 -59
q-32 -22 -88 -22zM148 315h303q-4 59 -42 100t-104 41q-64 0 -106 -40.5t-51 -100.5z" />
    <glyph glyph-name="Ecaron" unicode="&#x11a;" horiz-adv-x="622" 
d="M90 0v730h475v-98h-366v-208h340v-98h-340v-228h374v-98h-483zM264 803l-101 129h96l71 -74l71 74h96l-101 -129h-132z" />
    <glyph glyph-name="ecaron" unicode="&#x11b;" horiz-adv-x="601" 
d="M310 -13q-123 0 -195 74.5t-72 199.5q0 122 72 200.5t191 78.5q128 0 191 -84.5t63 -220.5h-413q2 -70 48 -115.5t117 -45.5q106 0 155 87l89 -38q-33 -61 -95.5 -98.5t-150.5 -37.5zM148 315h303q-4 59 -42 100t-104 41q-64 0 -106 -40.5t-51 -100.5zM373 601h-132
q-17 21 -100 129h95l71 -74l71 74h95z" />
    <glyph glyph-name="Gcircumflex" unicode="&#x11c;" horiz-adv-x="783" 
d="M397 -14q-160 0 -255.5 104t-95.5 272q0 167 100 274.5t263 107.5q116 0 197.5 -53.5t111.5 -145.5l-111 -24q-24 58 -75.5 92t-121.5 34q-114 0 -181 -79t-67 -205t68 -205.5t181 -79.5q98 0 151.5 56.5t59.5 157.5h-245v98h347v-390h-107v22q0 12 0.5 30.5t0.5 23.5h-2
q-24 -35 -85 -62.5t-134 -27.5zM245 803l101 129h132l101 -129h-96l-71 73l-71 -73h-96z" />
    <glyph glyph-name="gcircumflex" unicode="&#x11d;" horiz-adv-x="635" 
d="M302 -198q-90 0 -154 37t-88 101l96 34q39 -85 148 -85q145 0 151 153q0 6 0.5 17t1 20.5t1.5 19.5h-2q-25 -39 -71 -63t-102 -24q-105 0 -171.5 74t-66.5 188q0 117 68.5 191t172.5 74q115 0 170 -85h2q-1 15 -1 42v30h102q-1 -35 -1 -98v-381q0 -120 -70 -182.5
t-186 -62.5zM305 101q69 0 110.5 49t41.5 126q0 76 -41 125t-111 49q-68 0 -109.5 -49.5t-41.5 -125.5t41 -125t110 -49zM238 601h-95q83 108 100 129h132l100 -129h-95l-71 73z" />
    <glyph glyph-name="Gbreve" unicode="&#x11e;" horiz-adv-x="783" 
d="M397 -14q-160 0 -255.5 104t-95.5 272q0 167 100 274.5t263 107.5q116 0 197.5 -53.5t111.5 -145.5l-111 -24q-24 58 -75.5 92t-121.5 34q-114 0 -181 -79t-67 -205t68 -205.5t181 -79.5q98 0 151.5 56.5t59.5 157.5h-245v98h347v-390h-107v22q0 12 0.5 30.5t0.5 23.5h-2
q-24 -35 -85 -62.5t-134 -27.5zM411 802q-62 0 -103.5 30.5t-56.5 87.5l67 18q26 -62 93 -62q66 0 92 62l68 -18q-33 -118 -160 -118z" />
    <glyph glyph-name="gbreve" unicode="&#x11f;" horiz-adv-x="635" 
d="M302 -198q-90 0 -154 37t-88 101l96 34q39 -85 148 -85q145 0 151 153q0 6 0.5 17t1 20.5t1.5 19.5h-2q-25 -39 -71 -63t-102 -24q-105 0 -171.5 74t-66.5 188q0 117 68.5 191t172.5 74q115 0 170 -85h2q-1 15 -1 42v30h102q-1 -35 -1 -98v-381q0 -120 -70 -182.5
t-186 -62.5zM305 101q69 0 110.5 49t41.5 126q0 76 -41 125t-111 49q-68 0 -109.5 -49.5t-41.5 -125.5t41 -125t110 -49zM310 600q-128 0 -160 117q40 12 67 18q26 -62 93 -62q66 0 92 62q31 -7 68 -18q-32 -117 -160 -117z" />
    <glyph glyph-name="Gdotaccent" unicode="&#x120;" horiz-adv-x="783" 
d="M397 -14q-160 0 -255.5 104t-95.5 272q0 167 100 274.5t263 107.5q116 0 197.5 -53.5t111.5 -145.5l-111 -24q-24 58 -75.5 92t-121.5 34q-114 0 -181 -79t-67 -205t68 -205.5t181 -79.5q98 0 151.5 56.5t59.5 157.5h-245v98h347v-390h-107v22q0 12 0.5 30.5t0.5 23.5h-2
q-24 -35 -85 -62.5t-134 -27.5zM354 812v111h104v-111h-104z" />
    <glyph glyph-name="gdotaccent" unicode="&#x121;" horiz-adv-x="635" 
d="M302 -198q-90 0 -154 37t-88 101l96 34q39 -85 148 -85q145 0 151 153q0 6 0.5 17t1 20.5t1.5 19.5h-2q-25 -39 -71 -63t-102 -24q-105 0 -171.5 74t-66.5 188q0 117 68.5 191t172.5 74q115 0 170 -85h2q-1 15 -1 42v30h102q-1 -35 -1 -98v-381q0 -120 -70 -182.5
t-186 -62.5zM305 101q69 0 110.5 49t41.5 126q0 76 -41 125t-111 49q-68 0 -109.5 -49.5t-41.5 -125.5t41 -125t110 -49zM255 610v111h104v-111h-104z" />
    <glyph glyph-name="uni0122" unicode="&#x122;" horiz-adv-x="783" 
d="M397 -14q-160 0 -255.5 104t-95.5 272q0 167 100 274.5t263 107.5q116 0 197.5 -53.5t111.5 -145.5l-111 -24q-24 58 -75.5 92t-121.5 34q-114 0 -181 -79t-67 -205t68 -205.5t181 -79.5q98 0 151.5 56.5t59.5 157.5h-245v98h347v-390h-107v22q0 12 0.5 30.5t0.5 23.5h-2
q-24 -35 -85 -62.5t-134 -27.5zM350 -213v42q24 1 35 7t11 25v4h-46v87h103v-74q0 -46 -22 -68.5t-81 -22.5z" />
    <glyph glyph-name="uni0123" unicode="&#x123;" horiz-adv-x="635" 
d="M302 -198q-90 0 -154 37t-88 101l96 34q39 -85 148 -85q145 0 151 153q0 6 0.5 17t1 20.5t1.5 19.5h-2q-25 -39 -71 -63t-102 -24q-105 0 -171.5 74t-66.5 188q0 117 68.5 191t172.5 74q115 0 170 -85h2q-1 15 -1 42v30h102q-1 -35 -1 -98v-381q0 -120 -70 -182.5
t-186 -62.5zM305 101q69 0 110.5 49t41.5 126q0 76 -41 125t-111 49q-68 0 -109.5 -49.5t-41.5 -125.5t41 -125t110 -49zM266 602v74q0 45 22 68t81 23v-42q-24 -1 -35 -7t-11 -25v-4h46v-87h-103z" />
    <glyph glyph-name="Hcircumflex" unicode="&#x124;" horiz-adv-x="756" 
d="M90 0v730h111v-303h354v303h111v-730h-111v330h-354v-330h-111zM212 803l101 129h132l101 -129h-96l-71 73l-71 -73h-96z" />
    <glyph glyph-name="hcircumflex" unicode="&#x125;" horiz-adv-x="610" 
d="M79 0v730h106v-185q0 -49 -2 -87q55 81 164 81q89 0 140 -54t51 -155v-330h-105v265q0 94 -24.5 138.5t-90.5 44.5q-133 0 -133 -187v-261h-106zM148 803l101 129h132l101 -129h-96l-71 73l-71 -73h-96z" />
    <glyph glyph-name="Hbar" unicode="&#x126;" horiz-adv-x="755" 
d="M90 0v730h110v-108h354v108h111v-730h-111v330h-354v-330h-110zM200 427h354v116h-354v-116z" />
    <glyph glyph-name="hbar" unicode="&#x127;" horiz-adv-x="610" 
d="M79 0v589h-35v81h35v60h105v-60h139v-81h-139v-44q0 -68 -1 -87q55 81 164 81q89 0 140 -54t51 -155v-330h-105v253q0 103 -22.5 149t-92.5 46q-134 0 -134 -187v-261h-105z" />
    <glyph glyph-name="Itilde" unicode="&#x128;" horiz-adv-x="292" 
d="M90 0v730h112v-730h-112zM41 810q-10 1 -30.5 5.5t-30.5 5.5q20 106 101 106q31 0 58 -12l27 -12q36 -16 49 -16q28 0 42 43q4 -1 62 -12q-22 -106 -101 -106q-32 0 -59 13l-26 12q-36 16 -49 16q-30 0 -43 -43z" />
    <glyph glyph-name="itilde" unicode="&#x129;" horiz-adv-x="264" 
d="M27 608q-9 1 -29.5 5t-31.5 6q22 106 101 106q28 0 61 -14l25 -11q34 -15 49 -15q27 0 41 43q12 -3 35 -7t26 -5q-20 -106 -101 -106q-26 0 -61 15l-26 11q-36 15 -46 15q-30 0 -43 -43zM79 0v526h106v-526h-106z" />
    <glyph glyph-name="Imacron" unicode="&#x12a;" horiz-adv-x="292" 
d="M90 0v730h112v-730h-112zM13 836v77h268v-77h-268z" />
    <glyph glyph-name="imacron" unicode="&#x12b;" horiz-adv-x="264" 
d="M0 632v77h266v-77h-266zM79 0v526h106v-526h-106z" />
    <glyph glyph-name="Ibreve" unicode="&#x12c;" horiz-adv-x="292" 
d="M90 0v730h112v-730h-112zM147 802q-62 0 -103.5 30.5t-56.5 87.5l67 18q26 -62 93 -62q66 0 92 62l68 -18q-33 -118 -160 -118z" />
    <glyph glyph-name="ibreve" unicode="&#x12d;" horiz-adv-x="264" 
d="M134 600q-128 0 -160 117q39 12 67 18q26 -62 93 -62q66 0 92 62q31 -7 68 -18q-32 -117 -160 -117zM79 0v526h106v-526h-106z" />
    <glyph glyph-name="Iogonek" unicode="&#x12e;" horiz-adv-x="292" 
d="M90 0v730h112v-730q-82 -48 -82 -86q0 -36 40 -36q23 0 40 11l37 -59q-32 -22 -88 -22q-55 0 -85 23.5t-30 63.5q0 53 71 105h-15z" />
    <glyph glyph-name="iogonek" unicode="&#x12f;" horiz-adv-x="264" 
d="M79 0v526h106v-526q-82 -48 -82 -86q0 -36 40 -36q23 0 40 11l37 -59q-32 -22 -88 -22q-55 0 -85 23.5t-30 63.5q0 53 71 105h-9zM78 607v123h108v-123h-108z" />
    <glyph glyph-name="Idot" unicode="&#x130;" horiz-adv-x="292" 
d="M90 0v730h112v-730h-112zM94 812v111h104v-111h-104z" />
    <glyph glyph-name="dotlessi" unicode="&#x131;" horiz-adv-x="264" 
d="M79 0v526h106v-526h-106z" />
    <glyph glyph-name="IJ" unicode="&#x132;" horiz-adv-x="766" 
d="M90 0v730h112v-730h-112zM465 -14q-195 0 -212 182l107 15q12 -100 105 -100q105 0 105 145v502h112v-526q0 -104 -56 -161t-161 -57z" />
    <glyph glyph-name="ij" unicode="&#x133;" horiz-adv-x="509" 
d="M79 0v526h106v-526h-106zM78 607v123h108v-123h-108zM279 -196q-32 0 -51 6l7 84q7 -1 18 -1q42 0 56.5 21.5t14.5 72.5v539h106v-553q0 -92 -36 -130.5t-115 -38.5zM323 607v123h107v-123h-107z" />
    <glyph glyph-name="Jcircumflex" unicode="&#x134;" horiz-adv-x="527" 
d="M226 -14q-195 0 -212 182l107 15q12 -100 105 -100q105 0 105 145v502h112v-526q0 -104 -56 -161t-161 -57zM219 803l101 129h132l101 -129h-96l-71 73l-71 -73h-96z" />
    <glyph glyph-name="jcircumflex" unicode="&#x135;" horiz-adv-x="270" 
d="M70 601h-95q82 108 100 129h132l100 -129h-95l-71 73zM40 -196q-32 0 -51 6l7 84q7 -1 18 -1q42 0 56.5 21.5t14.5 72.5v539h106v-553q0 -92 -36 -130.5t-115 -38.5z" />
    <glyph glyph-name="uni0136" unicode="&#x136;" horiz-adv-x="660" 
d="M90 0v730h110v-182q0 -101 -1 -161q78 87 119 131l193 212h138l-305 -326l322 -404h-140l-261 328l-65 -70v-258h-110zM297 -213v42q24 1 35 7t11 25v4h-46v87h103v-74q0 -46 -22 -68.5t-81 -22.5z" />
    <glyph glyph-name="uni0137" unicode="&#x137;" horiz-adv-x="549" 
d="M79 0v730h104v-276q0 -34 -0.5 -91t-0.5 -76q32 29 122 129l101 110h133l-226 -232l240 -294h-135l-177 225l-57 -57v-168h-104zM239 -213v42q24 1 35 7t11 25v4h-46v87h103v-74q0 -46 -22 -68.5t-81 -22.5z" />
    <glyph glyph-name="kgreenlandic" unicode="&#x138;" horiz-adv-x="550" 
d="M79 0v526h105v-132q0 -23 -0.5 -58t-0.5 -49h1l118 127q14 15 50 52.5t54 59.5h133q-77 -81 -226 -232q120 -148 240 -294h-135q-35 42 -178 226l-56 -58v-168h-105z" />
    <glyph glyph-name="Lacute" unicode="&#x139;" horiz-adv-x="557" 
d="M90 0v730h112v-631h340v-99h-452zM97 803l84 129h135l-120 -129h-99z" />
    <glyph glyph-name="lacute" unicode="&#x13a;" horiz-adv-x="264" 
d="M79 0v730h106v-730h-106zM80 803l84 129h135l-120 -129h-99z" />
    <glyph glyph-name="uni013B" unicode="&#x13b;" horiz-adv-x="557" 
d="M90 0v730h112v-631h340v-99h-452zM261 -213v42q24 1 35 7t11 25v4h-46v87h103v-74q0 -46 -22 -68.5t-81 -22.5z" />
    <glyph glyph-name="uni013C" unicode="&#x13c;" horiz-adv-x="264" 
d="M79 0v730h106v-730h-106zM80 -213v42q24 1 35 7t11 25v4h-46v87h103v-74q0 -46 -22 -68.5t-81 -22.5z" />
    <glyph glyph-name="Lcaron" unicode="&#x13d;" horiz-adv-x="558" 
d="M90 0v730h112v-631h340v-99h-452zM291 561l34 169h113l-62 -169h-85z" />
    <glyph glyph-name="lcaron" unicode="&#x13e;" horiz-adv-x="276" 
d="M79 0v730h106v-730h-106zM230 561l34 169h113l-62 -169h-85z" />
    <glyph glyph-name="Ldot" unicode="&#x13f;" horiz-adv-x="560" 
d="M90 0v730h112v-631h340v-99h-452zM369 311v111h104v-111h-104z" />
    <glyph glyph-name="ldot" unicode="&#x140;" horiz-adv-x="344" 
d="M79 0v730h106v-730h-106zM252 311v111h104v-111h-104z" />
    <glyph glyph-name="Lslash" unicode="&#x141;" horiz-adv-x="585" 
d="M118 0v291l-80 -43v89l80 43v350h112v-294l149 83v-89l-149 -82v-249h339v-99h-451z" />
    <glyph glyph-name="lslash" unicode="&#x142;" horiz-adv-x="324" 
d="M107 0v316l-69 -38v85l69 38v329h106v-275l76 42v-85l-76 -42v-370h-106z" />
    <glyph glyph-name="Nacute" unicode="&#x143;" horiz-adv-x="782" 
d="M90 0v730h143l246 -413q43 -72 104 -181h2q-2 112 -2 184v410h109v-730h-141l-252 421q-40 68 -102 176h-1q0 -21 1.5 -80.5t1.5 -87.5v-429h-109zM313 803l84 129h135l-120 -129h-99z" />
    <glyph glyph-name="nacute" unicode="&#x144;" horiz-adv-x="611" 
d="M79 0v422q0 14 -0.5 52.5t-0.5 51.5h102v-22q0 -35 -1 -48h1q57 84 168 84q88 0 139.5 -54t51.5 -157v-329h-106v263q0 97 -24.5 141.5t-89.5 44.5q-134 0 -134 -189v-260h-106zM248 601l84 129h135l-120 -129h-99z" />
    <glyph glyph-name="uni0145" unicode="&#x145;" horiz-adv-x="782" 
d="M90 0v730h143l246 -413q43 -72 104 -181h2q-2 112 -2 184v410h109v-730h-141l-252 421q-40 68 -102 176h-1q0 -21 1.5 -80.5t1.5 -87.5v-429h-109zM335 -213v42q24 1 35 7t11 25v4h-46v87h103v-74q0 -46 -22 -68.5t-81 -22.5z" />
    <glyph glyph-name="uni0146" unicode="&#x146;" horiz-adv-x="611" 
d="M79 0v422q0 14 -0.5 52.5t-0.5 51.5h102v-22q0 -35 -1 -48h1q57 84 168 84q88 0 139.5 -54t51.5 -157v-329h-106v263q0 97 -24.5 141.5t-89.5 44.5q-134 0 -134 -189v-260h-106zM260 -213v42q24 1 35 7t11 25v4h-46v87h103v-74q0 -46 -22 -68.5t-81 -22.5z" />
    <glyph glyph-name="Ncaron" unicode="&#x147;" horiz-adv-x="782" 
d="M90 0v730h143l246 -413q43 -72 104 -181h2q-2 112 -2 184v410h109v-730h-141l-252 421q-40 68 -102 176h-1q0 -21 1.5 -80.5t1.5 -87.5v-429h-109zM317 803l-101 129h96l71 -74l71 74h96l-101 -129h-132z" />
    <glyph glyph-name="ncaron" unicode="&#x148;" horiz-adv-x="611" 
d="M79 0v422q0 14 -0.5 52.5t-0.5 51.5h102v-22q0 -35 -1 -48h1q57 84 168 84q88 0 139.5 -54t51.5 -157v-329h-106v263q0 97 -24.5 141.5t-89.5 44.5q-134 0 -134 -189v-260h-106zM385 601h-132q-17 21 -100 129h95l71 -74l71 74h95z" />
    <glyph glyph-name="napostrophe" unicode="&#x149;" horiz-adv-x="611" 
d="M79 0v422q0 14 -0.5 52.5t-0.5 51.5h102v-22q0 -35 -1 -48h1q57 84 168 84q88 0 139.5 -54t51.5 -157v-329h-106v263q0 97 -24.5 141.5t-89.5 44.5q-134 0 -134 -189v-260h-106zM53 566v42q24 1 35 7t11 25v4h-46v87h103v-74q0 -46 -22 -68.5t-81 -22.5z" />
    <glyph glyph-name="Eng" unicode="&#x14a;" horiz-adv-x="782" 
d="M510 -198q-168 0 -182 159l107 15q7 -77 75 -77q37 0 54 25.5t19 75.5h-32l-252 421q-21 36 -55 94t-48 82q0 -23 1 -88.5t1 -93.5v-415h-108v730h142q19 -32 96.5 -159.5t117.5 -197.5l38 -66q18 -31 52 -89t48 -82h2q-3 56 -3 183v411h109v-733q0 -93 -47 -144
t-135 -51z" />
    <glyph glyph-name="eng" unicode="&#x14b;" horiz-adv-x="610" 
d="M388 -196q-26 0 -51 5l7 85q7 -1 21 -1q40 0 54 21t14 73v262q0 106 -22.5 152.5t-92.5 46.5q-134 0 -134 -188v-260h-105v421q0 77 -1 105h101v-22q0 -36 -1 -49h2q53 84 167 84q87 0 139 -54t52 -156v-356q0 -92 -35.5 -130.5t-114.5 -38.5z" />
    <glyph glyph-name="Omacron" unicode="&#x14c;" horiz-adv-x="814" 
d="M407 -14q-162 0 -261.5 105.5t-99.5 272.5t100 273.5t261 106.5t261 -106.5t100 -273.5t-99 -272.5t-262 -105.5zM407 81q111 0 177.5 79.5t66.5 204.5q0 123 -66.5 202.5t-177.5 79.5q-112 0 -178 -79t-66 -202q0 -125 66 -205t178 -80zM273 836v77h268v-77h-268z" />
    <glyph glyph-name="omacron" unicode="&#x14d;" horiz-adv-x="622" 
d="M310 -14q-120 0 -194 76.5t-74 200.5q0 123 75 200.5t195 77.5q119 0 193.5 -77.5t74.5 -200.5t-75 -200t-195 -77zM310 75q75 0 117 51t42 136q0 83 -42.5 136.5t-115.5 53.5q-75 0 -117 -52.5t-42 -136.5q0 -85 42 -136.5t116 -51.5zM180 632v77h266v-77h-266z" />
    <glyph glyph-name="Obreve" unicode="&#x14e;" horiz-adv-x="814" 
d="M407 -14q-162 0 -261.5 105.5t-99.5 272.5t100 273.5t261 106.5t261 -106.5t100 -273.5t-99 -272.5t-262 -105.5zM407 81q111 0 177.5 79.5t66.5 204.5q0 123 -66.5 202.5t-177.5 79.5q-112 0 -178 -79t-66 -202q0 -125 66 -205t178 -80zM407 802q-62 0 -103.5 30.5
t-56.5 87.5l67 18q26 -62 93 -62q66 0 92 62l68 -18q-33 -118 -160 -118z" />
    <glyph glyph-name="obreve" unicode="&#x14f;" horiz-adv-x="622" 
d="M310 -14q-120 0 -194 76.5t-74 200.5q0 123 75 200.5t195 77.5q119 0 193.5 -77.5t74.5 -200.5t-75 -200t-195 -77zM310 75q75 0 117 51t42 136q0 83 -42.5 136.5t-115.5 53.5q-75 0 -117 -52.5t-42 -136.5q0 -85 42 -136.5t116 -51.5zM314 600q-128 0 -160 117
q39 12 67 18q26 -62 93 -62q66 0 92 62q31 -7 68 -18q-32 -117 -160 -117z" />
    <glyph glyph-name="Ohungarumlaut" unicode="&#x150;" horiz-adv-x="814" 
d="M407 -14q-162 0 -261.5 105.5t-99.5 272.5t100 273.5t261 106.5t261 -106.5t100 -273.5t-99 -272.5t-262 -105.5zM407 81q111 0 177.5 79.5t66.5 204.5q0 123 -66.5 202.5t-177.5 79.5q-112 0 -178 -79t-66 -202q0 -125 66 -205t178 -80zM440 803l86 129h126l-122 -129
h-90zM256 803l84 129h126l-120 -129h-90z" />
    <glyph glyph-name="ohungarumlaut" unicode="&#x151;" horiz-adv-x="622" 
d="M310 -14q-120 0 -194 76.5t-74 200.5q0 123 75 200.5t195 77.5q119 0 193.5 -77.5t74.5 -200.5t-75 -200t-195 -77zM310 75q75 0 117 51t42 136q0 83 -42.5 136.5t-115.5 53.5q-75 0 -117 -52.5t-42 -136.5q0 -85 42 -136.5t116 -51.5zM436 601h-90q28 43 86 129h126z
M162 601l84 129h126l-120 -129h-90z" />
    <glyph glyph-name="OE" unicode="&#x152;" horiz-adv-x="1078" 
d="M390 -6q-153 0 -248.5 103t-95.5 269q0 165 95.5 268.5t246.5 103.5q95 0 163 -38v30h470v-97h-361v-209h335v-98h-335v-228h369v-98h-478v32q-62 -38 -161 -38zM404 91q91 0 147 50v448q-55 51 -147 51q-112 0 -177 -74.5t-65 -199.5q0 -127 65.5 -201t176.5 -74z" />
    <glyph glyph-name="oe" unicode="&#x153;" horiz-adv-x="1003" 
d="M305 -12q-119 0 -190.5 75.5t-71.5 198.5q0 124 72 200.5t192 76.5q133 0 207 -99q73 97 199 97q127 0 187.5 -83t60.5 -219h-399q2 -69 45 -114t112 -45q97 0 149 85l89 -38q-73 -135 -240 -135q-135 0 -205 95q-74 -95 -207 -95zM305 76q73 0 113.5 50.5t40.5 134.5
t-40.5 137t-112.5 53q-73 0 -113.5 -52t-40.5 -136q0 -85 40 -136t113 -51zM562 314h290q-4 58 -40 99t-100 41t-104 -40t-46 -100z" />
    <glyph glyph-name="Racute" unicode="&#x154;" horiz-adv-x="685" 
d="M90 0v730h284q126 0 188.5 -51t62.5 -146q0 -142 -129 -183q46 -22 71 -60t33 -105l7 -64q10 -91 29 -114v-7h-117q-10 17 -22 99l-11 78q-10 69 -42.5 98.5t-114.5 29.5h-130v-305h-109zM199 398h159q155 0 155 122q0 63 -40 89t-115 26h-159v-237zM255 803l84 129h135
l-120 -129h-99z" />
    <glyph glyph-name="racute" unicode="&#x155;" horiz-adv-x="379" 
d="M79 0v430q0 65 -1 96h100v-28q0 -37 -1 -52h2q47 91 154 91q17 0 29 -3l-3 -101q-15 4 -35 4q-74 0 -108 -43.5t-34 -133.5v-260h-103zM122 601l84 129h135l-120 -129h-99z" />
    <glyph glyph-name="uni0156" unicode="&#x156;" horiz-adv-x="685" 
d="M90 0v730h284q126 0 188.5 -51t62.5 -146q0 -142 -129 -183q46 -22 71 -60t33 -105l7 -64q10 -91 29 -114v-7h-117q-10 17 -22 99l-11 78q-10 69 -42.5 98.5t-114.5 29.5h-130v-305h-109zM199 398h159q155 0 155 122q0 63 -40 89t-115 26h-159v-237zM301 -213v42
q24 1 35 7t11 25v4h-46v87h103v-74q0 -46 -22 -68.5t-81 -22.5z" />
    <glyph glyph-name="uni0157" unicode="&#x157;" horiz-adv-x="379" 
d="M79 0v430q0 65 -1 96h100v-28q0 -37 -1 -52h2q47 91 154 91q17 0 29 -3l-3 -101q-15 4 -35 4q-74 0 -108 -43.5t-34 -133.5v-260h-103zM79 -213v42q24 1 35 7t11 25v4h-46v87h103v-74q0 -46 -22 -68.5t-81 -22.5z" />
    <glyph glyph-name="Rcaron" unicode="&#x158;" horiz-adv-x="685" 
d="M90 0v730h284q126 0 188.5 -51t62.5 -146q0 -142 -129 -183q46 -22 71 -60t33 -105l7 -64q10 -91 29 -114v-7h-117q-10 17 -22 99l-11 78q-10 69 -42.5 98.5t-114.5 29.5h-130v-305h-109zM199 398h159q155 0 155 122q0 63 -40 89t-115 26h-159v-237zM271 803l-101 129h96
l71 -74l71 74h96l-101 -129h-132z" />
    <glyph glyph-name="rcaron" unicode="&#x159;" horiz-adv-x="379" 
d="M79 0v430q0 65 -1 96h100v-28q0 -37 -1 -52h2q47 91 154 91q17 0 29 -3l-3 -101q-15 4 -35 4q-74 0 -108 -43.5t-34 -133.5v-260h-103zM289 601h-132q-18 21 -100 129h95l71 -74l71 74h95z" />
    <glyph glyph-name="Sacute" unicode="&#x15a;" horiz-adv-x="622" 
d="M311 -14q-110 0 -185 51.5t-93 145.5l107 26q13 -62 58 -96t114 -34t111 31.5t42 85.5q0 43 -31 68t-98 45l-60 18q-111 33 -164 78.5t-53 130.5q0 93 71.5 150.5t184.5 57.5q99 0 164.5 -46t85.5 -130l-102 -27q-29 107 -152 107q-61 0 -98 -28t-37 -75q0 -45 30 -67.5
t110 -48.5l71 -22q97 -30 145.5 -73t48.5 -128q0 -102 -75.5 -161t-194.5 -59zM254 803l84 129h135l-120 -129h-99z" />
    <glyph glyph-name="sacute" unicode="&#x15b;" horiz-adv-x="510" 
d="M257 -12q-191 0 -225 147l94 26q32 -91 137 -91q44 0 73 20t29 52q0 29 -23.5 45t-74.5 28l-60 14q-75 17 -115.5 52.5t-40.5 99.5q0 73 58 116t145 43q81 0 135 -35.5t70 -100.5l-92 -26q-24 77 -116 77q-42 0 -67.5 -18t-25.5 -46q0 -31 20.5 -45.5t72.5 -26.5l64 -15
q78 -19 117.5 -53.5t39.5 -97.5q0 -79 -59.5 -122t-155.5 -43zM193 601l84 129h135l-120 -129h-99z" />
    <glyph glyph-name="Scircumflex" unicode="&#x15c;" horiz-adv-x="622" 
d="M311 -14q-110 0 -185 51.5t-93 145.5l107 26q13 -62 58 -96t114 -34t111 31.5t42 85.5q0 43 -31 68t-98 45l-60 18q-111 33 -164 78.5t-53 130.5q0 93 71.5 150.5t184.5 57.5q99 0 164.5 -46t85.5 -130l-102 -27q-29 107 -152 107q-61 0 -98 -28t-37 -75q0 -45 30 -67.5
t110 -48.5l71 -22q97 -30 145.5 -73t48.5 -128q0 -102 -75.5 -161t-194.5 -59zM153 803l101 129h132l101 -129h-96l-71 73l-71 -73h-96z" />
    <glyph glyph-name="scircumflex" unicode="&#x15d;" horiz-adv-x="510" 
d="M257 -12q-191 0 -225 147l94 26q32 -91 137 -91q44 0 73 20t29 52q0 29 -23.5 45t-74.5 28l-60 14q-75 17 -115.5 52.5t-40.5 99.5q0 73 58 116t145 43q81 0 135 -35.5t70 -100.5l-92 -26q-24 77 -116 77q-42 0 -67.5 -18t-25.5 -46q0 -31 20.5 -45.5t72.5 -26.5l64 -15
q78 -19 117.5 -53.5t39.5 -97.5q0 -79 -59.5 -122t-155.5 -43zM189 601h-95q83 108 100 129h132l100 -129h-95l-71 73z" />
    <glyph glyph-name="Scedilla" unicode="&#x15e;" horiz-adv-x="622" 
d="M311 -14q-110 0 -185 51.5t-93 145.5l107 26q13 -62 58 -96t114 -34t111 31.5t42 85.5q0 43 -31 68t-98 45l-60 18q-111 33 -164 78.5t-53 130.5q0 93 71.5 150.5t184.5 57.5q99 0 164.5 -46t85.5 -130l-102 -27q-29 107 -152 107q-61 0 -98 -28t-37 -75q0 -45 30 -67.5
t110 -48.5l71 -22q97 -30 145.5 -73t48.5 -128q0 -102 -75.5 -161t-194.5 -59zM289 -178h-121l104 129h102q-29 -43 -85 -129z" />
    <glyph glyph-name="scedilla" unicode="&#x15f;" horiz-adv-x="510" 
d="M257 -12q-191 0 -225 147l94 26q32 -91 137 -91q44 0 73 20t29 52q0 29 -23.5 45t-74.5 28l-60 14q-75 17 -115.5 52.5t-40.5 99.5q0 73 58 116t145 43q81 0 135 -35.5t70 -100.5l-92 -26q-24 77 -116 77q-42 0 -67.5 -18t-25.5 -46q0 -31 20.5 -45.5t72.5 -26.5l64 -15
q78 -19 117.5 -53.5t39.5 -97.5q0 -79 -59.5 -122t-155.5 -43zM240 -178h-121l104 129h102q-29 -43 -85 -129z" />
    <glyph glyph-name="Scaron" unicode="&#x160;" horiz-adv-x="622" 
d="M311 -14q-110 0 -185 51.5t-93 145.5l107 26q13 -62 58 -96t114 -34t111 31.5t42 85.5q0 43 -31 68t-98 45l-60 18q-111 33 -164 78.5t-53 130.5q0 93 71.5 150.5t184.5 57.5q99 0 164.5 -46t85.5 -130l-102 -27q-29 107 -152 107q-61 0 -98 -28t-37 -75q0 -45 30 -67.5
t110 -48.5l71 -22q97 -30 145.5 -73t48.5 -128q0 -102 -75.5 -161t-194.5 -59zM252 803l-101 129h96l71 -74l71 74h96l-101 -129h-132z" />
    <glyph glyph-name="scaron" unicode="&#x161;" horiz-adv-x="510" 
d="M257 -12q-191 0 -225 147l94 26q32 -91 137 -91q44 0 73 20t29 52q0 29 -23.5 45t-74.5 28l-60 14q-75 17 -115.5 52.5t-40.5 99.5q0 73 58 116t145 43q81 0 135 -35.5t70 -100.5l-92 -26q-24 77 -116 77q-42 0 -67.5 -18t-25.5 -46q0 -31 20.5 -45.5t72.5 -26.5l64 -15
q78 -19 117.5 -53.5t39.5 -97.5q0 -79 -59.5 -122t-155.5 -43zM323 601h-132q-17 21 -100 129h95l71 -74l71 74h95z" />
    <glyph glyph-name="uni0162" unicode="&#x162;" horiz-adv-x="585" 
d="M237 0v631h-222v99h555v-99h-220v-631h-113zM261 -178h-121l104 129h102q-29 -43 -85 -129z" />
    <glyph glyph-name="uni0163" unicode="&#x163;" horiz-adv-x="339" 
d="M298 0h-133q-33 18 -44.5 53.5t-11.5 105.5v282h-88v85h88v144h104v-144h108v-85h-108v-248q0 -87 20 -121.5t65 -49.5v-22zM187 -178h-121l104 129h102q-29 -43 -85 -129z" />
    <glyph glyph-name="Tcaron" unicode="&#x164;" horiz-adv-x="585" 
d="M237 0v631h-222v99h555v-99h-220v-631h-113zM229 803l-101 129h96l71 -74l71 74h96l-101 -129h-132z" />
    <glyph glyph-name="tcaron" unicode="&#x165;" horiz-adv-x="339" 
d="M298 0h-133q-33 18 -44.5 53.5t-11.5 105.5v282h-88v85h88v144h104v-144h108v-85h-108v-248q0 -87 20 -121.5t65 -49.5v-22zM271 561l34 169h113l-62 -169h-85z" />
    <glyph glyph-name="Tbar" unicode="&#x166;" horiz-adv-x="612" 
d="M250 0v332h-160v80h160v219h-222v99h556v-99h-221v-219h160v-80h-160v-332h-113z" />
    <glyph glyph-name="tbar" unicode="&#x167;" horiz-adv-x="350" 
d="M304 0h-133q-33 18 -45 54t-12 104v104h-77v81h77v98h-87v85h87v144h105v-144h108v-85h-108v-98h95v-81h-95v-62q0 -91 19.5 -126.5t65.5 -51.5v-22z" />
    <glyph glyph-name="Utilde" unicode="&#x168;" horiz-adv-x="720" 
d="M360 -14q-139 0 -208.5 72.5t-69.5 232.5v439h112v-441q0 -109 39.5 -158.5t126.5 -49.5t126.5 49.5t39.5 158.5v441h112v-439q0 -160 -69.5 -232.5t-208.5 -72.5zM254 810q-10 1 -30.5 5.5t-30.5 5.5q20 106 101 106q31 0 58 -12l27 -12q36 -16 49 -16q28 0 42 43
q4 -1 62 -12q-22 -106 -101 -106q-32 0 -59 13l-26 12q-36 16 -49 16q-30 0 -43 -43z" />
    <glyph glyph-name="utilde" unicode="&#x169;" horiz-adv-x="608" 
d="M262 -12q-88 0 -139 49t-51 149v340h106v-313q0 -138 114 -138q65 0 98 46t33 126v279h106v-448q0 -49 1 -78h-102v23q0 32 1 44h-2q-56 -79 -165 -79zM199 608q-9 1 -29.5 5t-31.5 6q22 106 101 106q28 0 61 -14l25 -11q34 -15 49 -15q27 0 41 43q12 -3 35 -7t26 -5
q-20 -106 -101 -106q-26 0 -61 15l-26 11q-36 15 -46 15q-30 0 -43 -43z" />
    <glyph glyph-name="Umacron" unicode="&#x16a;" horiz-adv-x="720" 
d="M360 -14q-139 0 -208.5 72.5t-69.5 232.5v439h112v-441q0 -109 39.5 -158.5t126.5 -49.5t126.5 49.5t39.5 158.5v441h112v-439q0 -160 -69.5 -232.5t-208.5 -72.5zM224 836v77h268v-77h-268z" />
    <glyph glyph-name="umacron" unicode="&#x16b;" horiz-adv-x="608" 
d="M262 -12q-88 0 -139 49t-51 149v340h106v-313q0 -138 114 -138q65 0 98 46t33 126v279h106v-448q0 -49 1 -78h-102v23q0 32 1 44h-2q-56 -79 -165 -79zM171 632v77h266v-77h-266z" />
    <glyph glyph-name="Ubreve" unicode="&#x16c;" horiz-adv-x="720" 
d="M360 -14q-139 0 -208.5 72.5t-69.5 232.5v439h112v-441q0 -109 39.5 -158.5t126.5 -49.5t126.5 49.5t39.5 158.5v441h112v-439q0 -160 -69.5 -232.5t-208.5 -72.5zM360 802q-62 0 -103.5 30.5t-56.5 87.5l67 18q26 -62 93 -62q66 0 92 62l68 -18q-33 -118 -160 -118z" />
    <glyph glyph-name="ubreve" unicode="&#x16d;" horiz-adv-x="608" 
d="M262 -12q-88 0 -139 49t-51 149v340h106v-313q0 -138 114 -138q65 0 98 46t33 126v279h106v-448q0 -49 1 -78h-102v23q0 32 1 44h-2q-56 -79 -165 -79zM304 600q-128 0 -160 117q40 12 67 18q26 -62 93 -62q66 0 92 62q31 -7 68 -18q-32 -117 -160 -117z" />
    <glyph glyph-name="Uring" unicode="&#x16e;" horiz-adv-x="720" 
d="M360 -14q-139 0 -208.5 72.5t-69.5 232.5v439h112v-441q0 -109 39.5 -158.5t126.5 -49.5t126.5 49.5t39.5 158.5v441h112v-439q0 -160 -69.5 -232.5t-208.5 -72.5zM362 779q-44 0 -74 30.5t-30 73.5q0 42 31 73t73 31q43 0 73.5 -30.5t30.5 -73.5t-30.5 -73.5
t-73.5 -30.5zM362 833q20 0 35 14.5t15 35.5t-14.5 35t-35.5 14t-35.5 -14t-14.5 -35t14.5 -35.5t35.5 -14.5z" />
    <glyph glyph-name="uring" unicode="&#x16f;" horiz-adv-x="608" 
d="M262 -12q-88 0 -139 49t-51 149v340h106v-313q0 -138 114 -138q65 0 98 46t33 126v279h106v-448q0 -49 1 -78h-102v23q0 32 1 44h-2q-56 -79 -165 -79zM301 577q-43 0 -73 30.5t-30 73.5t30 73.5t73 30.5q44 0 74 -30.5t30 -73.5t-30 -73.5t-74 -30.5zM301 631
q20 0 35 14.5t15 35.5t-14.5 35t-35.5 14t-35.5 -14t-14.5 -35t15 -35.5t35 -14.5z" />
    <glyph glyph-name="Uhungarumlaut" unicode="&#x170;" horiz-adv-x="720" 
d="M360 -14q-139 0 -208.5 72.5t-69.5 232.5v439h112v-441q0 -109 39.5 -158.5t126.5 -49.5t126.5 49.5t39.5 158.5v441h112v-439q0 -160 -69.5 -232.5t-208.5 -72.5zM384 803l86 129h126l-122 -129h-90zM200 803l84 129h126l-120 -129h-90z" />
    <glyph glyph-name="uhungarumlaut" unicode="&#x171;" horiz-adv-x="608" 
d="M262 -12q-88 0 -139 49t-51 149v340h106v-313q0 -138 114 -138q65 0 98 46t33 126v279h106v-448q0 -49 1 -78h-102v23q0 32 1 44h-2q-56 -79 -165 -79zM423 601h-90q28 43 86 129h126zM149 601l84 129h126l-120 -129h-90z" />
    <glyph glyph-name="Uogonek" unicode="&#x172;" horiz-adv-x="720" 
d="M379 -192q-55 0 -85 23.5t-30 63.5q0 51 54 93q-118 9 -177 82t-59 221v439h112v-441q0 -109 39.5 -158.5t126.5 -49.5t126.5 49.5t39.5 158.5v441h112v-439q0 -144 -56.5 -217t-167.5 -85q-64 -42 -64 -75q0 -36 40 -36q23 0 40 11l37 -59q-32 -22 -88 -22z" />
    <glyph glyph-name="uogonek" unicode="&#x173;" horiz-adv-x="608" 
d="M477 -192q-55 0 -85 23.5t-30 63.5q0 53 71 105h-5v23q0 32 1 44h-2q-56 -79 -165 -79q-88 0 -139 49t-51 149v340h106v-313q0 -138 114 -138q65 0 98 46t33 126v279h106v-448q0 -49 1 -78q-82 -48 -82 -86q0 -36 40 -36q23 0 40 11l37 -59q-32 -22 -88 -22z" />
    <glyph glyph-name="Wcircumflex" unicode="&#x174;" horiz-adv-x="966" 
d="M198 0l-182 730h115l71 -303q19 -76 65 -311h4q43 195 73 313l75 301h136l71 -289q51 -208 74 -325h3q25 129 69 323l68 291h111l-184 -730h-132l-78 310q-31 122 -70 309h-4q-32 -153 -71 -308l-79 -311h-135zM317 803l101 129h132l101 -129h-96l-71 73l-71 -73h-96z
" />
    <glyph glyph-name="wcircumflex" unicode="&#x175;" horiz-adv-x="808" 
d="M173 0l-157 526h109l59 -223q27 -100 48 -201h3q6 22 17 66.5t20 78.5t14 51l62 228h117l61 -226q18 -62 49 -199h3q23 99 51 204l60 221h105l-160 -526h-117l-66 240q-20 70 -43 188h-3q-23 -102 -48 -191l-65 -237h-119zM335 601h-95q82 108 100 129h132l100 -129h-95
l-71 73z" />
    <glyph glyph-name="Ycircumflex" unicode="&#x176;" horiz-adv-x="629" 
d="M258 0v289l-253 441h125l78 -145q9 -16 108 -198h3q19 34 53.5 99.5t50.5 95.5l83 148h122l-258 -441v-289h-112zM150 803l101 129h132l101 -129h-96l-71 73l-71 -73h-96z" />
    <glyph glyph-name="ycircumflex" unicode="&#x177;" horiz-adv-x="530" 
d="M108 -191q-19 0 -40 3l-10 83q18 -3 35 -3q45 0 73 22.5t49 85.5q-96 244 -204 526h116l80 -230q32 -90 61 -182h2q20 65 61 187l76 225h111q-58 -155 -215 -566q-33 -84 -74 -117.5t-121 -33.5zM199 601h-95q83 108 100 129h132l100 -129h-95l-71 73z" />
    <glyph glyph-name="Ydieresis" unicode="&#x178;" horiz-adv-x="629" 
d="M258 0v289l-253 441h125l78 -145q9 -16 108 -198h3q19 34 53.5 99.5t50.5 95.5l83 148h122l-258 -441v-289h-112zM362 812v111h102v-111h-102zM169 812v111h100v-111h-100z" />
    <glyph glyph-name="Zacute" unicode="&#x179;" horiz-adv-x="604" 
d="M34 0v90l393 543q-27 0 -71.5 -0.5t-70.5 -0.5h-234v98h508v-93l-393 -541q39 1 118 1h288v-97h-538zM228 803l84 129h135l-120 -129h-99z" />
    <glyph glyph-name="zacute" unicode="&#x17a;" horiz-adv-x="501" 
d="M35 0v82l294 355v2q-62 -2 -90 -2h-191v89h407v-84l-293 -357v-1q21 0 61 1t65 1h180v-86h-433zM181 601l84 129h135l-120 -129h-99z" />
    <glyph glyph-name="Zdotaccent" unicode="&#x17b;" horiz-adv-x="604" 
d="M34 0v90l393 543q-27 0 -71.5 -0.5t-70.5 -0.5h-234v98h508v-93l-393 -541q39 1 118 1h288v-97h-538zM245 812v111h104v-111h-104z" />
    <glyph glyph-name="zdotaccent" unicode="&#x17c;" horiz-adv-x="501" 
d="M35 0v82l294 355v2q-62 -2 -90 -2h-191v89h407v-84l-293 -357v-1q21 0 61 1t65 1h180v-86h-433zM202 610v111h104v-111h-104z" />
    <glyph glyph-name="Zcaron" unicode="&#x17d;" horiz-adv-x="604" 
d="M34 0v90l393 543q-27 0 -71.5 -0.5t-70.5 -0.5h-234v98h508v-93l-393 -541q39 1 118 1h288v-97h-538zM241 803l-101 129h96l71 -74l71 74h96l-101 -129h-132z" />
    <glyph glyph-name="zcaron" unicode="&#x17e;" horiz-adv-x="501" 
d="M35 0v82l294 355v2q-62 -2 -90 -2h-191v89h407v-84l-293 -357v-1q21 0 61 1t65 1h180v-86h-433zM320 601h-132q-17 21 -100 129h95l71 -74l71 74h95z" />
    <glyph glyph-name="uni018F" unicode="&#x18f;" horiz-adv-x="792" 
d="M390 -14q-167 0 -256 108.5t-89 292.5v10h584q-8 112 -76 180.5t-172 68.5q-85 0 -138.5 -42.5t-78.5 -105.5l-111 35q37 91 122 151t210 60q164 0 262 -104t98 -276q0 -168 -98 -273t-257 -105zM393 81q95 0 156 60.5t76 162.5h-455q10 -104 68 -163.5t155 -59.5z" />
    <glyph glyph-name="florin" unicode="&#x192;" 
d="M83 -159q-39 0 -66 9l14 86q17 -4 38 -4q42 0 64.5 25t31.5 82q51 318 59 371h-98q3 14 6.5 42.5t6.5 42.5h99l7 45q16 108 59 157t131 49q35 0 67 -8l-15 -87q-22 5 -38 5q-13 0 -24 -2t-20 -8t-15.5 -10t-12 -16t-8.5 -18t-7.5 -23.5t-6 -24t-5.5 -29t-6 -30.5h119
q-12 -81 -12 -85h-119l-61 -373q-16 -103 -59.5 -149.5t-128.5 -46.5z" />
    <glyph glyph-name="Aringacute" unicode="&#x1fa;" horiz-adv-x="704" 
d="M0 0l291 730h122l290 -730h-120l-77 201h-313l-78 -201h-115zM227 298h243l-58 157q-46 126 -62 174h-2q-28 -87 -62 -176zM352 779q-44 0 -74 30.5t-30 73.5q0 42 31 73t73 31q43 0 73.5 -30.5t30.5 -73.5t-30.5 -73.5t-73.5 -30.5zM352 833q20 0 35 14.5t15 35.5
t-14.5 35t-35.5 14t-35.5 -14t-14.5 -35t14.5 -35.5t35.5 -14.5zM303 1027l84 129h135l-120 -129h-99z" />
    <glyph glyph-name="aringacute" unicode="&#x1fb;" horiz-adv-x="566" 
d="M230 -9q-86 0 -137.5 41t-51.5 113q0 74 48.5 107.5t149.5 54.5l99 19q4 1 11 2q28 5 36 11t8 27q0 40 -29.5 63.5t-82.5 23.5q-108 0 -121 -97l-101 8q8 78 69 124.5t153 46.5q215 0 215 -197v-315q0 -5 0.5 -13t0.5 -10h-97v20q0 18 1 25q0 7 1 10h-3q-59 -64 -169 -64
zM254 66q66 0 103.5 39t37.5 106v22q0 9 2 23l-52 -11l-75 -15q-69 -13 -94.5 -28.5t-25.5 -54.5t27.5 -60t76.5 -21zM286 577q-43 0 -73 30.5t-30 73.5t30 73.5t73 30.5q44 0 74 -30.5t30 -73.5t-30 -73.5t-74 -30.5zM286 631q20 0 35 14.5t15 35.5t-14.5 35t-35.5 14
t-35.5 -14t-14.5 -35t15 -35.5t35 -14.5zM238 825l84 129h135l-120 -129h-99z" />
    <glyph glyph-name="AEacute" unicode="&#x1fc;" horiz-adv-x="976" 
d="M-20 0l402 730h537v-98h-356l11 -209h318v-98h-312l12 -228h335v-97h-443l-9 196h-268q-18 -33 -105 -196h-122zM257 292h213l-7 152l-10 188h-15l-39 -73q-6 -12 -32 -62t-41 -76zM556 803l84 129h135l-120 -129h-99z" />
    <glyph glyph-name="aeacute" unicode="&#x1fd;" horiz-adv-x="931" 
d="M645 -12q-131 0 -202 90h-5q-75 -87 -210 -87q-86 0 -136.5 41t-50.5 113q0 74 49.5 109t147.5 53l100 19q4 1 11 2q28 5 36 11t8 27q0 40 -29.5 63.5t-82.5 23.5q-108 0 -121 -97l-102 9q10 78 70.5 124t153.5 46q129 0 180 -72q68 74 180 74q127 0 187 -83t60 -219
h-398q2 -69 45 -114t112 -45q98 0 148 85l89 -38q-32 -61 -93 -98t-147 -37zM254 66q66 0 103.5 39t37.5 106v22q0 9 2 23q-1 0 -31 -7l-50 -10q-7 -1 -21 -4q-37 -7 -53 -10.5t-38.5 -10.5t-31 -15.5t-15.5 -21.5t-7 -31q0 -38 28 -59t76 -21zM491 314h290q-4 58 -40 99
t-100 41q-65 0 -104.5 -40t-45.5 -100zM409 601l84 129h135l-120 -129h-99z" />
    <glyph glyph-name="Oslashacute" unicode="&#x1fe;" horiz-adv-x="811" 
d="M168 -56l-72 46l60 89q-108 106 -108 286q0 169 98.5 275.5t259.5 106.5q90 0 168 -38l52 77l73 -46l-54 -80q119 -106 119 -295q0 -170 -98 -275t-260 -105q-104 0 -181 43zM220 176l296 446q-50 26 -110 26q-110 0 -174 -78t-64 -203q0 -117 52 -191zM406 82
q109 0 172.5 79t63.5 204q0 126 -59 200l-301 -451q53 -32 124 -32zM351 803l84 129h135l-120 -129h-99z" />
    <glyph glyph-name="oslashacute" unicode="&#x1ff;" horiz-adv-x="625" 
d="M257 601l84 129h135l-120 -129h-99zM186 12l-47 -69q-8 5 -31 19t-35 23l49 72q-78 75 -78 207q0 126 74 203t196 77q64 0 118 -25l45 68q8 -5 31 -19t35 -23l-46 -68q85 -82 85 -213q0 -125 -74 -201.5t-196 -76.5q-69 0 -126 26zM182 147l197 293q-33 14 -66 14
q-74 0 -116 -52t-42 -137q0 -71 27 -118zM312 76q74 0 115.5 51t41.5 136q0 74 -32 124l-198 -296q31 -15 73 -15z" />
    <glyph glyph-name="uni0218" unicode="&#x218;" horiz-adv-x="622" 
d="M311 -14q-110 0 -185 51.5t-93 145.5l107 26q13 -62 58 -96t114 -34t111 31.5t42 85.5q0 43 -31 68t-98 45l-60 18q-111 33 -164 78.5t-53 130.5q0 93 71.5 150.5t184.5 57.5q99 0 164.5 -46t85.5 -130l-102 -27q-29 107 -152 107q-61 0 -98 -28t-37 -75q0 -45 30 -67.5
t110 -48.5l71 -22q97 -30 145.5 -73t48.5 -128q0 -102 -75.5 -161t-194.5 -59zM245 -213v42q24 1 35 7t11 25v4h-46v87h103v-74q0 -46 -22 -68.5t-81 -22.5z" />
    <glyph glyph-name="uni0219" unicode="&#x219;" horiz-adv-x="510" 
d="M257 -12q-191 0 -225 147l94 26q32 -91 137 -91q44 0 73 20t29 52q0 29 -23.5 45t-74.5 28l-60 14q-75 17 -115.5 52.5t-40.5 99.5q0 73 58 116t145 43q81 0 135 -35.5t70 -100.5l-92 -26q-24 77 -116 77q-42 0 -67.5 -18t-25.5 -46q0 -31 20.5 -45.5t72.5 -26.5l64 -15
q78 -19 117.5 -53.5t39.5 -97.5q0 -79 -59.5 -122t-155.5 -43zM197 -213v42q24 1 35 7t11 25v4h-46v87h103v-74q0 -46 -22 -68.5t-81 -22.5z" />
    <glyph glyph-name="uni021A" unicode="&#x21a;" horiz-adv-x="585" 
d="M237 0v631h-222v99h555v-99h-220v-631h-113zM242 -213v42q24 1 35 7t11 25v4h-46v87h103v-74q0 -46 -22 -68.5t-81 -22.5z" />
    <glyph glyph-name="uni021B" unicode="&#x21b;" horiz-adv-x="339" 
d="M298 0h-133q-33 18 -44.5 53.5t-11.5 105.5v282h-88v85h88v144h104v-144h108v-85h-108v-248q0 -87 20 -121.5t65 -49.5v-22zM144 -213v42q24 1 35 7t11 25v4h-46v87h103v-74q0 -46 -22 -68.5t-81 -22.5z" />
    <glyph glyph-name="uni0237" unicode="&#x237;" horiz-adv-x="270" 
d="M40 -196q-32 0 -51 6l7 84q7 -1 18 -1q42 0 56.5 21.5t14.5 72.5v539h106v-553q0 -92 -36 -130.5t-115 -38.5z" />
    <glyph glyph-name="uni0259" unicode="&#x259;" horiz-adv-x="600" 
d="M291 543q123 0 195 -74.5t72 -199.5q0 -122 -72 -200.5t-191 -78.5q-128 0 -191 84t-63 221h413q-4 70 -49 115.5t-116 45.5q-106 0 -155 -87l-89 38q33 61 95.5 98.5t150.5 37.5zM453 215h-303q4 -59 42 -100t104 -41q64 0 106 40.5t51 100.5z" />
    <glyph glyph-name="circumflex" unicode="&#x2c6;" horiz-adv-x="276" 
d="M94 601h-95q83 108 100 129h132l100 -129h-95l-71 73z" />
    <glyph glyph-name="caron" unicode="&#x2c7;" horiz-adv-x="276" 
d="M231 601h-132q-17 21 -100 129h95l71 -74l71 74h95z" />
    <glyph glyph-name="breve" unicode="&#x2d8;" horiz-adv-x="266" 
d="M130 600q-128 0 -160 117q39 12 67 18q26 -62 93 -62q66 0 92 62q31 -7 68 -18q-32 -117 -160 -117z" />
    <glyph glyph-name="dotaccent" unicode="&#x2d9;" horiz-adv-x="194" 
d="M44 610v111h104v-111h-104z" />
    <glyph glyph-name="ring" unicode="&#x2da;" horiz-adv-x="233" 
d="M115 577q-43 0 -73 30.5t-30 73.5t30 73.5t73 30.5q44 0 74 -30.5t30 -73.5t-30 -73.5t-74 -30.5zM115 631q20 0 35 14.5t15 35.5t-14.5 35t-35.5 14t-35.5 -14t-14.5 -35t15 -35.5t35 -14.5z" />
    <glyph glyph-name="ogonek" unicode="&#x2db;" horiz-adv-x="308" 
d="M183 -192q-55 0 -85 23.5t-30 63.5q0 53 71 105h97q-82 -48 -82 -86q0 -36 40 -36q23 0 40 11l37 -59q-32 -22 -88 -22z" />
    <glyph glyph-name="tilde" unicode="&#x2dc;" horiz-adv-x="271" 
d="M40 608q-9 1 -29.5 5t-31.5 6q22 106 101 106q28 0 61 -14l25 -11q34 -15 49 -15q27 0 41 43q12 -3 35 -7t26 -5q-20 -106 -101 -106q-26 0 -61 15l-26 11q-36 15 -46 15q-30 0 -43 -43z" />
    <glyph glyph-name="hungarumlaut" unicode="&#x2dd;" horiz-adv-x="318" 
d="M299 601h-90q28 43 86 129h126zM25 601l84 129h126l-120 -129h-90z" />
    <glyph glyph-name="uni0312" unicode="&#x312;" horiz-adv-x="0" 
d="M-353 602v74q0 45 22 68t81 23v-42q-24 -1 -35 -7t-11 -25v-4h46v-87h-103z" />
    <glyph glyph-name="uni0313" unicode="&#x313;" horiz-adv-x="0" 
d="M-347 561l34 169h113l-62 -169h-85z" />
    <glyph glyph-name="uni0326" unicode="&#x326;" horiz-adv-x="0" 
d="M-373 -213v42q24 1 35 7t11 25v4h-46v87h103v-74q0 -46 -22 -68.5t-81 -22.5z" />
    <glyph glyph-name="uni0394" unicode="&#x394;" horiz-adv-x="704" 
d="M1 0l291 730h122l290 -730h-703zM287 453l-132 -354h389l-131 356q-46 126 -62 174h-2q-19 -60 -62 -176z" />
    <glyph glyph-name="uni03A9" unicode="&#x3a9;" horiz-adv-x="824" 
d="M58 0v99h65q52 0 81 -1q-74 56 -110 128.5t-36 176.5q0 91 41 168t123 125t190 48t190 -48t123 -125t41 -168q0 -104 -36 -176.5t-110 -128.5q31 1 81 1h65v-99h-301v97q181 95 181 303q0 110 -62.5 177.5t-171.5 67.5q-110 0 -172 -67.5t-62 -177.5q0 -211 181 -303v-97
h-301z" />
    <glyph glyph-name="uni03BC" unicode="&#x3bc;" horiz-adv-x="615" 
d="M180 -184h-104q4 89 4 131v579h106v-313q0 -138 114 -138q65 0 98 46t33 126v279h106v-448q0 -49 1 -78h-102v23q0 32 1 44h-2q-53 -79 -165 -79q-50 0 -86 16v-66q0 -87 -4 -122z" />
    <glyph glyph-name="pi" unicode="&#x3c0;" horiz-adv-x="647" 
d="M129 0v438h-112v88h601v-88h-104v-245q0 -87 20 -121.5t65 -49.5v-22h-133q-33 18 -44.5 53.5t-11.5 105.5v279h-176v-438h-105z" />
    <glyph glyph-name="Wgrave" unicode="&#x1e80;" horiz-adv-x="966" 
d="M198 0l-182 730h115l71 -303q19 -76 65 -311h4q43 195 73 313l75 301h136l71 -289q51 -208 74 -325h3q25 129 69 323l68 291h111l-184 -730h-132l-78 310q-31 122 -70 309h-4q-32 -153 -71 -308l-79 -311h-135zM450 803l-120 129h135l84 -129h-99z" />
    <glyph glyph-name="wgrave" unicode="&#x1e81;" horiz-adv-x="808" 
d="M173 0l-157 526h109l59 -223q27 -100 48 -201h3q6 22 17 66.5t20 78.5t14 51l62 228h117l61 -226q18 -62 49 -199h3q23 99 51 204l60 221h105l-160 -526h-117l-66 240q-20 70 -43 188h-3q-23 -102 -48 -191l-65 -237h-119zM471 601h-99q-13 14 -38 40.5t-45 48t-37 40.5
h135z" />
    <glyph glyph-name="Wacute" unicode="&#x1e82;" horiz-adv-x="966" 
d="M198 0l-182 730h115l71 -303q19 -76 65 -311h4q43 195 73 313l75 301h136l71 -289q51 -208 74 -325h3q25 129 69 323l68 291h111l-184 -730h-132l-78 310q-31 122 -70 309h-4q-32 -153 -71 -308l-79 -311h-135zM435 803l84 129h135l-120 -129h-99z" />
    <glyph glyph-name="wacute" unicode="&#x1e83;" horiz-adv-x="808" 
d="M173 0l-157 526h109l59 -223q27 -100 48 -201h3q6 22 17 66.5t20 78.5t14 51l62 228h117l61 -226q18 -62 49 -199h3q23 99 51 204l60 221h105l-160 -526h-117l-66 240q-20 70 -43 188h-3q-23 -102 -48 -191l-65 -237h-119zM353 601l84 129h135l-120 -129h-99z" />
    <glyph glyph-name="Wdieresis" unicode="&#x1e84;" horiz-adv-x="966" 
d="M198 0l-182 730h115l71 -303q19 -76 65 -311h4q43 195 73 313l75 301h136l71 -289q51 -208 74 -325h3q25 129 69 323l68 291h111l-184 -730h-132l-78 310q-31 122 -70 309h-4q-32 -153 -71 -308l-79 -311h-135zM530 812v111h102v-111h-102zM337 812v111h100v-111h-100z
" />
    <glyph glyph-name="wdieresis" unicode="&#x1e85;" horiz-adv-x="808" 
d="M173 0l-157 526h109l59 -223q27 -100 48 -201h3q6 22 17 66.5t20 78.5t14 51l62 228h117l61 -226q18 -62 49 -199h3q23 99 51 204l60 221h105l-160 -526h-117l-66 240q-20 70 -43 188h-3q-23 -102 -48 -191l-65 -237h-119zM452 610v111h102v-111h-102zM259 610v111h100
v-111h-100z" />
    <glyph glyph-name="uni1E9E" unicode="&#x1e9e;" horiz-adv-x="701" 
d="M407 -14q-99 0 -148 37l56 80q42 -28 92 -28q64 0 99 38t35 97q0 67 -39.5 101.5t-109.5 34.5q-54 0 -75 -3v78l118 152q10 13 50 61q-54 -2 -80 -2h-204v-632h-111v730h518v-87l-166 -213q95 -4 155 -61.5t60 -159.5q0 -105 -66.5 -164t-183.5 -59z" />
    <glyph glyph-name="Ygrave" unicode="&#x1ef2;" horiz-adv-x="629" 
d="M258 0v289l-253 441h125l78 -145q9 -16 108 -198h3q19 34 53.5 99.5t50.5 95.5l83 148h122l-258 -441v-289h-112zM285 803l-120 129h135l84 -129h-99z" />
    <glyph glyph-name="ygrave" unicode="&#x1ef3;" horiz-adv-x="530" 
d="M108 -191q-19 0 -40 3l-10 83q18 -3 35 -3q45 0 73 22.5t49 85.5q-96 244 -204 526h116l80 -230q32 -90 61 -182h2q20 65 61 187l76 225h111q-58 -155 -215 -566q-33 -84 -74 -117.5t-121 -33.5zM330 601h-99q-13 14 -38 40.5t-45 48t-37 40.5h135z" />
    <glyph glyph-name="uni2000" unicode="&#x2000;" horiz-adv-x="500" 
 />
    <glyph glyph-name="uni2001" unicode="&#x2001;" horiz-adv-x="1000" 
 />
    <glyph glyph-name="uni2002" unicode="&#x2002;" horiz-adv-x="500" 
 />
    <glyph glyph-name="uni2003" unicode="&#x2003;" horiz-adv-x="1000" 
 />
    <glyph glyph-name="uni2004" unicode="&#x2004;" horiz-adv-x="333" 
 />
    <glyph glyph-name="uni2005" unicode="&#x2005;" horiz-adv-x="250" 
 />
    <glyph glyph-name="uni2006" unicode="&#x2006;" horiz-adv-x="167" 
 />
    <glyph glyph-name="uni2007" unicode="&#x2007;" horiz-adv-x="627" 
 />
    <glyph glyph-name="uni2008" unicode="&#x2008;" horiz-adv-x="245" 
 />
    <glyph glyph-name="uni2009" unicode="&#x2009;" horiz-adv-x="125" 
 />
    <glyph glyph-name="uni200A" unicode="&#x200a;" horiz-adv-x="42" 
 />
    <glyph glyph-name="uni200B" unicode="&#x200b;" horiz-adv-x="0" 
 />
    <glyph glyph-name="endash" unicode="&#x2013;" horiz-adv-x="585" 
d="M63 246v93h459v-93h-459z" />
    <glyph glyph-name="emdash" unicode="&#x2014;" horiz-adv-x="930" 
d="M63 246v92h804v-92h-804z" />
    <glyph glyph-name="uni2015" unicode="&#x2015;" horiz-adv-x="930" 
d="M63 246v92h804v-92h-804z" />
    <glyph glyph-name="quoteleft" unicode="&#x2018;" horiz-adv-x="241" 
d="M59 459v119q0 137 119 155v-58q-55 -13 -55 -82v-8h54v-126h-118z" />
    <glyph glyph-name="quoteright" unicode="&#x2019;" horiz-adv-x="231" 
d="M63 455v58q55 13 55 82v8h-54v127h118v-120q0 -137 -119 -155z" />
    <glyph glyph-name="quotesinglbase" unicode="&#x201a;" horiz-adv-x="247" 
d="M63 -148v58q55 13 55 82v8h-54v127h118v-120q0 -137 -119 -155z" />
    <glyph glyph-name="quotedblleft" unicode="&#x201c;" horiz-adv-x="428" 
d="M246 459v119q0 137 119 155v-58q-55 -13 -55 -82v-8h54v-126h-118zM59 459v119q0 137 119 155v-58q-55 -13 -55 -82v-8h54v-126h-118z" />
    <glyph glyph-name="quotedblright" unicode="&#x201d;" horiz-adv-x="418" 
d="M250 455v58q55 13 55 82v8h-54v127h118v-120q0 -137 -119 -155zM63 455v58q55 13 55 82v8h-54v127h118v-120q0 -137 -119 -155z" />
    <glyph glyph-name="quotedblbase" unicode="&#x201e;" horiz-adv-x="434" 
d="M250 -149v58q55 13 55 82v8h-54v127h118v-120q0 -137 -119 -155zM63 -149v58q55 13 55 82v8h-54v127h118v-120q0 -137 -119 -155z" />
    <glyph glyph-name="dagger" unicode="&#x2020;" horiz-adv-x="519" 
d="M206 -50v495h-177v92h177v193h107v-193h177v-92h-177v-495h-107z" />
    <glyph glyph-name="daggerdbl" unicode="&#x2021;" horiz-adv-x="553" 
d="M223 -50v220h-177v91h177v189h-177v91h177v189h107v-189h177v-91h-177v-189h177v-91h-177v-220h-107z" />
    <glyph glyph-name="bullet" unicode="&#x2022;" horiz-adv-x="473" 
d="M237 189q-72 0 -122 50.5t-50 122.5q0 70 50 120.5t122 50.5q70 0 120.5 -50.5t50.5 -120.5q0 -72 -50.5 -122.5t-120.5 -50.5z" />
    <glyph glyph-name="ellipsis" unicode="&#x2026;" horiz-adv-x="922" 
d="M63 0v126h119v-126h-119zM401 0v126h119v-126h-119zM740 0v126h119v-126h-119z" />
    <glyph glyph-name="perthousand" unicode="&#x2030;" horiz-adv-x="1376" 
d="M207 253q-174 0 -174 242q0 113 42 179.5t131 66.5q90 0 132.5 -66.5t42.5 -179.5q0 -242 -174 -242zM208 330q76 0 76 164q0 82 -17 124t-60 42t-60.5 -42.5t-17.5 -124.5q0 -163 79 -163zM755 -11q-174 0 -174 242q0 113 42 179.5t131 66.5q90 0 132.5 -66.5
t42.5 -179.5q0 -242 -174 -242zM756 66q76 0 76 164q0 82 -17 124t-60 42t-60.5 -42.5t-17.5 -124.5q0 -163 79 -163zM276 0l322 730h91l-322 -730h-91zM1169 -11q-174 0 -174 242q0 113 42 179.5t131 66.5q90 0 132.5 -66.5t42.5 -179.5q0 -242 -174 -242zM1170 66
q76 0 76 164q0 82 -17 124t-60 42t-60.5 -42.5t-17.5 -124.5q0 -163 79 -163z" />
    <glyph glyph-name="guilsinglleft" unicode="&#x2039;" horiz-adv-x="288" 
d="M139 87l-107 196l107 197h102l-100 -197l100 -196h-102z" />
    <glyph glyph-name="guilsinglright" unicode="&#x203a;" horiz-adv-x="288" 
d="M47 87l100 196l-100 197h102l107 -197l-107 -196h-102z" />
    <glyph glyph-name="fraction" unicode="&#x2044;" horiz-adv-x="130" 
d="M-141 0l322 730h91l-322 -730h-91z" />
    <glyph glyph-name="uni2070" unicode="&#x2070;" horiz-adv-x="420" 
d="M210 384q-174 0 -174 242q0 113 42 179.5t131 66.5q90 0 132.5 -66.5t42.5 -179.5q0 -242 -174 -242zM211 461q76 0 76 164q0 82 -17 124t-60 42t-60.5 -42.5t-17.5 -124.5q0 -163 79 -163z" />
    <glyph glyph-name="uni2074" unicode="&#x2074;" horiz-adv-x="396" 
d="M227 393v93h-197v67l106 307h88l-103 -300h106v171h82v-171h72v-74h-72v-93h-82z" />
    <glyph glyph-name="uni2075" unicode="&#x2075;" horiz-adv-x="396" 
d="M196 384q-74 0 -117 37t-51 102l92 5q14 -68 77 -68q37 0 57 24t20 63t-19.5 61.5t-54.5 22.5q-52 0 -71 -43l-88 9l23 263h276v-78h-204q-2 -40 -5 -60l-5 -47q37 32 89 32q69 0 111 -43.5t42 -114.5q0 -75 -47 -120t-125 -45z" />
    <glyph glyph-name="uni2076" unicode="&#x2076;" horiz-adv-x="416" 
d="M215 384q-87 0 -133 58.5t-46 165.5q0 123 47.5 193t137.5 70q66 0 105 -36t48 -96l-92 -3q-12 55 -63 55q-42 0 -64.5 -38t-24.5 -101h2q34 48 102 48t108.5 -43t40.5 -112q0 -70 -46.5 -115.5t-121.5 -45.5zM214 457q35 0 56 23.5t21 62.5q0 38 -21 60.5t-57 22.5
t-57.5 -23t-21.5 -60q0 -38 22 -62t58 -24z" />
    <glyph glyph-name="uni2077" unicode="&#x2077;" horiz-adv-x="365" 
d="M176 393h-104q54 200 171 384v1h-57h-165v82h322v-76q-50 -73 -95.5 -181t-71.5 -210z" />
    <glyph glyph-name="uni2078" unicode="&#x2078;" horiz-adv-x="415" 
d="M208 384q-80 0 -127 37.5t-47 102.5q0 82 86 117q-71 38 -71 105q0 56 43.5 91.5t115.5 35.5q71 0 114 -35.5t43 -91.5q0 -70 -70 -103v-2q87 -35 87 -117q0 -65 -47.5 -102.5t-126.5 -37.5zM208 456q36 0 57.5 21t21.5 54t-21.5 53t-57.5 20q-38 0 -59.5 -20t-21.5 -53
t22 -54t59 -21zM208 674q32 0 50.5 17t18.5 46q0 27 -18.5 44.5t-50.5 17.5q-33 0 -52 -17t-19 -45q0 -29 19 -46t52 -17z" />
    <glyph glyph-name="uni2079" unicode="&#x2079;" horiz-adv-x="411" 
d="M195 384q-139 0 -157 131l91 4q13 -58 66 -58q37 0 62 39t25 105h-1q-36 -47 -102 -47t-106.5 41.5t-40.5 110.5q0 70 46 115.5t120 45.5q86 0 131.5 -59.5t45.5 -168.5q0 -123 -45.5 -191t-134.5 -68zM200 630q35 0 56.5 23t21.5 59q0 38 -21.5 60.5t-56.5 22.5
q-36 0 -57.5 -22.5t-21.5 -59.5q0 -36 21.5 -59.5t57.5 -23.5z" />
    <glyph glyph-name="uni207A" unicode="&#x207a;" horiz-adv-x="368" 
d="M144 449v123h-118v75h118v122h79v-122h119v-75h-119v-123h-79z" />
    <glyph glyph-name="uni207B" unicode="&#x207b;" horiz-adv-x="400" 
d="M45 569v79h310v-79h-310z" />
    <glyph glyph-name="uni207C" unicode="&#x207c;" horiz-adv-x="400" 
d="M45 634v73h310v-73h-310zM45 508v73h310v-73h-310z" />
    <glyph glyph-name="uni207D" unicode="&#x207d;" horiz-adv-x="227" 
d="M208 300l-69 -5q-104 133 -104 286q0 154 104 289l69 -5q-84 -133 -84 -283q0 -148 84 -282z" />
    <glyph glyph-name="uni207E" unicode="&#x207e;" horiz-adv-x="227" 
d="M89 295l-69 5q83 134 83 282q0 149 -83 283l69 5q103 -137 103 -289q0 -150 -103 -286z" />
    <glyph glyph-name="uni207F" unicode="&#x207f;" horiz-adv-x="416" 
d="M53 393v273q0 45 -1 64h86v-14q0 -18 -1 -27h2q32 50 105 50q58 0 90.5 -35.5t32.5 -103.5v-207h-90v163q0 58 -14 83t-49 25q-38 0 -54.5 -24.5t-16.5 -78.5v-168h-90z" />
    <glyph glyph-name="uni2080" unicode="&#x2080;" horiz-adv-x="420" 
d="M210 -93q-174 0 -174 242q0 113 42 179.5t131 66.5q90 0 132.5 -66.5t42.5 -179.5q0 -242 -174 -242zM211 -16q76 0 76 164q0 82 -17 124t-60 42t-60.5 -42.5t-17.5 -124.5q0 -163 79 -163z" />
    <glyph glyph-name="uni2081" unicode="&#x2081;" horiz-adv-x="347" 
d="M42 -84v74h103v253h-113v64q60 2 88.5 18.5t34.5 59.5h81v-395h93v-74h-287z" />
    <glyph glyph-name="uni2082" unicode="&#x2082;" horiz-adv-x="398" 
d="M34 -84v72q39 37 136 118q55 45 75 73.5t20 64.5q0 30 -17.5 49t-49.5 19q-70 0 -75 -88l-90 2q0 75 45.5 121.5t121.5 46.5q75 0 118 -38t43 -106q0 -54 -30 -97t-87 -88q-25 -20 -53 -41.5t-37 -28.5v-2h30q7 1 48 1h131v-78h-329z" />
    <glyph glyph-name="uni2083" unicode="&#x2083;" horiz-adv-x="402" 
d="M197 -93q-78 0 -123 40.5t-48 114.5l93 3q5 -83 78 -83q35 0 55 20t20 51q0 34 -23.5 52.5t-64.5 18.5h-24v72h18q35 0 56.5 15.5t21.5 47.5q0 25 -15.5 41t-41.5 16q-68 0 -68 -73l-92 6q4 67 46.5 106t113.5 39q72 0 113 -34.5t41 -90.5q0 -76 -69 -103q84 -31 84 -115
q0 -65 -47.5 -104.5t-123.5 -39.5z" />
    <glyph glyph-name="uni2084" unicode="&#x2084;" horiz-adv-x="396" 
d="M227 -84v93h-197v67l106 307h88l-103 -300h106v171h82v-171h72v-74h-72v-93h-82z" />
    <glyph glyph-name="uni2085" unicode="&#x2085;" horiz-adv-x="396" 
d="M196 -93q-74 0 -117 37t-51 102l92 5q14 -68 77 -68q37 0 57 24t20 63t-19.5 61.5t-54.5 22.5q-52 0 -71 -43l-88 9l23 263h276v-78h-204q-2 -40 -5 -60l-5 -47q37 32 89 32q69 0 111 -43.5t42 -114.5q0 -75 -47 -120t-125 -45z" />
    <glyph glyph-name="uni2086" unicode="&#x2086;" horiz-adv-x="416" 
d="M215 -93q-87 0 -133 58.5t-46 165.5q0 123 47.5 193t137.5 70q66 0 105 -36t48 -96l-92 -3q-12 55 -63 55q-42 0 -64.5 -38t-24.5 -101h2q34 48 102 48t108.5 -43t40.5 -112q0 -70 -46.5 -115.5t-121.5 -45.5zM214 -20q35 0 56 23.5t21 62.5q0 38 -21 60.5t-57 22.5
t-57.5 -23t-21.5 -60q0 -38 22 -62t58 -24z" />
    <glyph glyph-name="uni2087" unicode="&#x2087;" horiz-adv-x="365" 
d="M175 -84h-104q54 200 171 384v1h-57h-165v82h322v-76q-50 -73 -95.5 -181t-71.5 -210z" />
    <glyph glyph-name="uni2088" unicode="&#x2088;" horiz-adv-x="415" 
d="M208 -93q-80 0 -127 37.5t-47 102.5q0 82 86 117q-71 38 -71 105q0 56 43.5 91.5t115.5 35.5q71 0 114 -35.5t43 -91.5q0 -70 -70 -103v-2q87 -35 87 -117q0 -65 -47.5 -102.5t-126.5 -37.5zM208 -21q36 0 57.5 21t21.5 54t-21.5 53t-57.5 20q-38 0 -59.5 -20t-21.5 -53
t22 -54t59 -21zM208 197q32 0 50.5 17t18.5 46q0 27 -18.5 44.5t-50.5 17.5q-33 0 -52 -17t-19 -45q0 -29 19 -46t52 -17z" />
    <glyph glyph-name="uni2089" unicode="&#x2089;" horiz-adv-x="411" 
d="M195 -93q-139 0 -157 131l91 4q13 -58 66 -58q37 0 62 39t25 105h-1q-36 -47 -102 -47t-106.5 41.5t-40.5 110.5t46 115t120 46q86 0 131.5 -59.5t45.5 -168.5q0 -123 -45.5 -191t-134.5 -68zM200 153q35 0 56.5 23t21.5 59q0 38 -21.5 60.5t-56.5 22.5
q-36 0 -57.5 -22.5t-21.5 -59.5q0 -36 21.5 -59.5t57.5 -23.5z" />
    <glyph glyph-name="uni208A" unicode="&#x208a;" horiz-adv-x="368" 
d="M144 -28v123h-118v75h118v122h79v-122h119v-75h-119v-123h-79z" />
    <glyph glyph-name="uni208B" unicode="&#x208b;" horiz-adv-x="400" 
d="M45 92v79h310v-79h-310z" />
    <glyph glyph-name="uni208C" unicode="&#x208c;" horiz-adv-x="400" 
d="M45 157v73h310v-73h-310zM45 31v73h310v-73h-310z" />
    <glyph glyph-name="uni208D" unicode="&#x208d;" horiz-adv-x="227" 
d="M208 -177l-69 -5q-104 133 -104 286q0 154 104 289l69 -5q-84 -134 -84 -283t84 -282z" />
    <glyph glyph-name="uni208E" unicode="&#x208e;" horiz-adv-x="227" 
d="M89 -182l-69 5q83 134 83 282q0 149 -83 283l69 5q103 -137 103 -289q0 -150 -103 -286z" />
    <glyph glyph-name="Euro" unicode="&#x20ac;" 
d="M340 -14q-107 0 -168.5 67t-76.5 183h-82l24 91h51v65h-74l24 91h56q15 120 76 190.5t170 70.5q102 0 160 -58.5t71 -158.5l-108 -11q-21 132 -124 132q-113 0 -132 -165h236l-24 -91h-217v-65h201l-24 -91h-171q9 -72 41.5 -115t89.5 -43q99 0 124 132l106 -10
q-15 -100 -71.5 -157t-157.5 -57z" />
    <glyph glyph-name="uni2113" unicode="&#x2113;" horiz-adv-x="475" 
d="M286 -14q-81 0 -119.5 35.5t-38.5 109.5v67l-61 -52l-45 54l104 86v272q0 93 36 139.5t128 46.5q147 0 147 -140q0 -88 -51.5 -165.5t-152.5 -163.5v-122q0 -91 68 -91q46 0 95 41l53 -54q-66 -63 -163 -63zM233 571v-198q113 116 113 225q0 75 -54 75q-32 0 -45.5 -23
t-13.5 -79z" />
    <glyph glyph-name="uni2116" unicode="&#x2116;" horiz-adv-x="1170" 
d="M800 231v84h309v-84h-309zM90 0v730h143l246 -413q43 -72 104 -181h2q-2 112 -2 184v410h109v-730h-141l-252 421q-40 68 -102 176h-1q0 -21 1.5 -80.5t1.5 -87.5v-429h-109zM955 383q-80 0 -129 49t-49 127q0 79 49.5 128.5t128.5 49.5t128 -49.5t49 -128.5
q0 -78 -49 -127t-128 -49zM955 455q41 0 63 27.5t22 76.5q0 47 -22 76t-63 29t-64 -28.5t-23 -76.5q0 -49 22.5 -76.5t64.5 -27.5z" />
    <glyph glyph-name="uni2117" unicode="&#x2117;" horiz-adv-x="852" 
d="M425 -15q-159 0 -270 110.5t-111 268.5q0 159 111 269.5t270 110.5t271 -110.5t112 -269.5q0 -158 -112 -268.5t-271 -110.5zM425 47q132 0 224 92.5t92 224.5t-92 225t-224 93t-223 -92.5t-91 -225.5q0 -132 91 -224.5t223 -92.5zM286 142v444h181q78 0 115.5 -36.5
t37.5 -99.5q0 -62 -43.5 -98.5t-116.5 -36.5h-101v-173h-73zM359 376h88q99 0 99 74q0 75 -101 75h-86v-149z" />
    <glyph glyph-name="trademark" unicode="&#x2122;" horiz-adv-x="996" 
d="M441 288v442h119q17 -51 57.5 -169.5t60.5 -178.5h3q29 99 57 177l59 171h118v-442h-75v201q0 98 4 171h-4q-104 -300 -127 -372h-70q-108 310 -126 370h-4q3 -147 3 -167v-203h-75zM167 288v375h-138v67h353v-67h-136v-375h-79z" />
    <glyph glyph-name="Omega" unicode="&#x2126;" horiz-adv-x="820" 
d="M56 0v99h65q52 0 81 -1q-74 56 -110 128.5t-36 176.5q0 91 41 168t123 125t190 48t190 -48t123 -125t41 -168q0 -104 -36 -176.5t-110 -128.5q31 1 81 1h65v-99h-301v97q181 95 181 303q0 110 -62.5 177.5t-171.5 67.5q-110 0 -172 -67.5t-62 -177.5q0 -211 181 -303v-97
h-301z" />
    <glyph glyph-name="estimated" unicode="&#x212e;" horiz-adv-x="607" 
d="M310 -14q-120 0 -192 75.5t-72 201.5q0 120 72 199t192 79q123 0 192.5 -75.5t69.5 -204.5h-411v-133q0 -50 62 -77q35 -17 87 -17q64 0 111 28t86 92l37 -30q-46 -72 -101 -105t-133 -33zM161 308h297v104q0 39 -59 66q-42 17 -90 17t-87 -16q-61 -26 -61 -66v-105z" />
    <glyph glyph-name="onethird" unicode="&#x2153;" horiz-adv-x="867" 
d="M141 260v327h-113v64q60 2 88.5 18.5t34.5 59.5h81v-469h-91zM176 0l322 730h91l-322 -730h-91zM655 -11q-78 0 -123 40.5t-48 114.5l93 3q5 -83 78 -83q35 0 55 20t20 51q0 34 -23.5 52.5t-64.5 18.5h-24v72h18q35 0 56.5 15.5t21.5 47.5q0 25 -15.5 41t-41.5 16
q-68 0 -68 -73l-92 6q4 67 46.5 106t113.5 39q72 0 113 -34.5t41 -90.5q0 -76 -69 -103q84 -31 84 -115q0 -65 -47.5 -104.5t-123.5 -39.5z" />
    <glyph glyph-name="twothirds" unicode="&#x2154;" horiz-adv-x="984" 
d="M301 0l322 730h91l-322 -730h-91zM780 -11q-78 0 -123 40.5t-48 114.5l93 3q5 -83 78 -83q35 0 55 20t20 51q0 34 -23.5 52.5t-64.5 18.5h-24v72h18q35 0 56.5 15.5t21.5 47.5q0 25 -15.5 41t-41.5 16q-68 0 -68 -73l-92 6q4 67 46.5 106t113.5 39q72 0 113 -34.5
t41 -90.5q0 -76 -69 -103q84 -31 84 -115q0 -65 -47.5 -104.5t-123.5 -39.5zM45 261v72q39 37 136 118q55 45 75 73.5t20 64.5q0 30 -17.5 49t-49.5 19q-70 0 -75 -88l-90 2q0 75 45.5 121.5t121.5 46.5q75 0 118 -38t43 -106q0 -54 -30 -97t-87 -88q-25 -20 -53 -41.5
t-37 -28.5v-2q47 1 78 1h131v-78h-329z" />
    <glyph glyph-name="oneeighth" unicode="&#x215b;" horiz-adv-x="872" 
d="M141 260v327h-113v64q60 2 88.5 18.5t34.5 59.5h81v-469h-91zM658 -10q-80 0 -127 37.5t-47 102.5q0 82 86 117q-71 38 -71 105q0 56 43.5 91.5t115.5 35.5q71 0 114 -35.5t43 -91.5q0 -70 -70 -103v-2q87 -35 87 -117q0 -65 -47.5 -102.5t-126.5 -37.5zM658 62
q36 0 57.5 21t21.5 54t-21.5 53t-57.5 20q-38 0 -59.5 -20t-21.5 -53t22 -54t59 -21zM658 280q32 0 50.5 17t18.5 46q0 27 -18.5 44.5t-50.5 17.5q-33 0 -52 -17t-19 -45q0 -29 19 -46t52 -17zM176 0l322 730h91l-322 -730h-91z" />
    <glyph glyph-name="threeeighths" unicode="&#x215c;" horiz-adv-x="965" 
d="M757 -10q-80 0 -127 37.5t-47 102.5q0 82 86 117q-71 38 -71 105q0 56 43.5 91.5t115.5 35.5q71 0 114 -35.5t43 -91.5q0 -70 -70 -103v-2q87 -35 87 -117q0 -65 -47.5 -102.5t-126.5 -37.5zM757 62q36 0 57.5 21t21.5 54t-21.5 53t-57.5 20q-38 0 -59.5 -20t-21.5 -53
t22 -54t59 -21zM757 280q32 0 50.5 17t18.5 46q0 27 -18.5 44.5t-50.5 17.5q-33 0 -52 -17t-19 -45q0 -29 19 -46t52 -17zM275 0l322 730h91l-322 -730h-91zM203 251q-78 0 -123 40.5t-48 114.5l93 3q5 -83 78 -83q35 0 55 20t20 51q0 34 -23.5 52.5t-64.5 18.5h-24v72h18
q35 0 56.5 15.5t21.5 47.5q0 25 -15.5 41t-41.5 16q-68 0 -68 -73l-92 6q4 67 46.5 106t113.5 39q72 0 113 -34.5t41 -90.5q0 -76 -69 -103q84 -31 84 -115q0 -65 -47.5 -104.5t-123.5 -39.5z" />
    <glyph glyph-name="fiveeighths" unicode="&#x215d;" horiz-adv-x="955" 
d="M266 0l322 730h91l-322 -730h-91zM748 -10q-80 0 -127 37.5t-47 102.5q0 82 86 117q-71 38 -71 105q0 56 43.5 91.5t115.5 35.5q71 0 114 -35.5t43 -91.5q0 -70 -70 -103v-2q87 -35 87 -117q0 -65 -47.5 -102.5t-126.5 -37.5zM748 62q36 0 57.5 21t21.5 54t-21.5 53
t-57.5 20q-38 0 -59.5 -20t-21.5 -53t22 -54t59 -21zM748 280q32 0 50.5 17t18.5 46q0 27 -18.5 44.5t-50.5 17.5q-33 0 -52 -17t-19 -45q0 -29 19 -46t52 -17zM201 254q-74 0 -117 37t-51 102l92 5q14 -68 77 -68q37 0 57 24t20 63t-19.5 61.5t-54.5 22.5q-52 0 -71 -43
l-88 9l23 263h276v-78h-204q-2 -40 -5 -60l-5 -47q37 32 89 32q69 0 111 -43.5t42 -114.5q0 -75 -47 -120t-125 -45z" />
    <glyph glyph-name="seveneighths" unicode="&#x215e;" horiz-adv-x="873" 
d="M661 -10q-80 0 -127 37.5t-47 102.5q0 82 86 117q-71 38 -71 105q0 56 43.5 91.5t115.5 35.5q71 0 114 -35.5t43 -91.5q0 -70 -70 -103v-2q87 -35 87 -117q0 -65 -47.5 -102.5t-126.5 -37.5zM661 62q36 0 57.5 21t21.5 54t-21.5 53t-57.5 20q-38 0 -59.5 -20t-21.5 -53
t22 -54t59 -21zM661 280q32 0 50.5 17t18.5 46q0 27 -18.5 44.5t-50.5 17.5q-33 0 -52 -17t-19 -45q0 -29 19 -46t52 -17zM179 0l322 730h91l-322 -730h-91zM184 263h-104q54 200 171 384v1h-57h-165v82h322v-76q-50 -73 -95.5 -181t-71.5 -210z" />
    <glyph glyph-name="arrowleft" unicode="&#x2190;" horiz-adv-x="821" 
d="M332 2l-153 162q-84 90 -156 162q72 72 156 162l153 162h143l-148 -151q-22 -22 -49 -49.5t-44 -44t-31 -30.5v-1q83 1 190 1h390v-98h-392q-106 0 -189 1v-1q14 -14 31 -30.5t44 -44t49 -49.5l149 -151h-143z" />
    <glyph glyph-name="arrowup" unicode="&#x2191;" horiz-adv-x="710" 
d="M303 0v417v70q0 54 1 87q-12 -12 -50.5 -52t-71.5 -72l-151 -148v139l162 153q90 84 162 156q72 -72 162 -156l162 -153v-139l-151 148q-33 32 -72 72t-51 52q1 -33 1 -87v-70v-417h-103z" />
    <glyph glyph-name="arrowright" unicode="&#x2192;" horiz-adv-x="821" 
d="M346 2l149 151q58 60 124 124v1q-83 -1 -189 -1h-392v98h390q107 0 190 -1v1q-66 64 -124 124l-148 151h143l153 -162q84 -90 156 -162q-72 -72 -156 -162l-153 -162h-143z" />
    <glyph glyph-name="arrowdown" unicode="&#x2193;" horiz-adv-x="710" 
d="M355 -35q-90 88 -162 155l-162 153v139l152 -148q10 -13 121 -124h1q0 6 -0.5 52.5t-0.5 104.5v418h103v-418q0 -90 -1 -157q16 16 54.5 55.5t67.5 68.5l151 148v-139l-162 -153q-72 -67 -162 -155z" />
    <glyph glyph-name="uni2196" unicode="&#x2196;" horiz-adv-x="686" 
d="M587 -13l-269 267q-110 110 -141 143q0 -24 0.5 -92.5t0.5 -83.5l-3 -212l-100 101l6 223q4 111 4 225q114 0 225 4l223 6l100 -99q-279 -3 -284 -3q-23 0 -56.5 0.5t-47.5 0.5q22 -21 145 -144l268 -268z" />
    <glyph glyph-name="uni2197" unicode="&#x2197;" horiz-adv-x="686" 
d="M99 -13l-71 68l268 268q123 123 145 144q-14 0 -47.5 -0.5t-56.5 -0.5q-5 0 -284 3l100 99l223 -6q111 -4 225 -4q0 -114 4 -225l6 -223l-100 -101l-3 212q0 15 0.5 84t0.5 92q-31 -33 -141 -143z" />
    <glyph glyph-name="uni2198" unicode="&#x2198;" horiz-adv-x="686" 
d="M154 -6l-101 102h208q19 0 90 -0.5t90 -0.5h1q-30 30 -137 136l-276 276l71 69l277 -276q44 -42 132 -136l1 1q0 22 -0.5 86t-0.5 89l2 213l101 -101l-6 -223q-4 -111 -4 -225q-114 0 -225 -4z" />
    <glyph glyph-name="uni2199" unicode="&#x2199;" horiz-adv-x="686" 
d="M532 -6l-223 6q-111 4 -225 4q0 114 -4 225l-6 223l101 101l2 -213q0 -26 -0.5 -89t-0.5 -86l1 -1q88 94 132 136l277 276l71 -69l-276 -276q-107 -106 -137 -136h1q21 0 85 0.5t90 0.5l213 -2z" />
    <glyph glyph-name="partialdiff" unicode="&#x2202;" horiz-adv-x="603" 
d="M296 -12q-118 0 -188 73.5t-70 198.5t69.5 199.5t176.5 74.5q56 0 96 -25l4 3q-70 103 -291 194l68 46q176 -53 286.5 -179t110.5 -302q0 -134 -69.5 -208.5t-192.5 -74.5zM296 67q72 0 111.5 52t39.5 143t-39 142.5t-112 51.5q-72 0 -111 -52.5t-39 -141.5
q0 -92 38.5 -143.5t111.5 -51.5z" />
    <glyph glyph-name="increment" unicode="&#x2206;" horiz-adv-x="749" 
d="M23 0l291 730h122l290 -730h-703zM309 453l-132 -354h389l-131 356q-46 126 -62 174h-2q-19 -60 -62 -176z" />
    <glyph glyph-name="product" unicode="&#x220f;" horiz-adv-x="801" 
d="M141 -98v730h-111v98h742v-98h-112v-730h-114v730h-291v-730h-114z" />
    <glyph glyph-name="summation" unicode="&#x2211;" horiz-adv-x="616" 
d="M35 -94v93l256 315l-252 320v96h533v-100h-388l242 -307l-254 -316h411v-101h-548z" />
    <glyph glyph-name="minus" unicode="&#x2212;" 
d="M52 310v93h484v-93h-484z" />
    <glyph glyph-name="radical" unicode="&#x221a;" horiz-adv-x="591" 
d="M365 0h-112q-25 67 -147 431h-91v95h179l66 -211q8 -27 23.5 -84.5t28.5 -97.5h2q6 24 20.5 84.5t28.5 109.5l111 403h116z" />
    <glyph glyph-name="infinity" unicode="&#x221e;" horiz-adv-x="833" 
d="M215 180q-82 0 -125 51t-43 121q0 79 46.5 127.5t125.5 48.5q32 0 66.5 -15.5t53.5 -29.5t64 -51q3 -3 5 -4t5 -3.5t5 -4.5q4 4 13 11q41 35 62.5 51t55 31t65.5 15q79 0 125.5 -48.5t46.5 -127.5q0 -70 -43 -121t-125 -51q-38 0 -77 18.5t-63 38t-62 55.5
q-39 -38 -62.5 -57.5t-61.5 -37t-77 -17.5zM221 278q25 0 51 12.5t41.5 24.5t44.5 38q-3 3 -14.5 12.5t-15.5 12.5t-15 11.5t-16 12t-14.5 9.5t-16 9t-15.5 6t-16.5 4.5t-15.5 1.5q-33 0 -53.5 -22t-20.5 -55q0 -36 20 -56.5t56 -20.5zM611 278q36 0 56.5 21t20.5 56
q0 33 -20.5 55t-54.5 22q-50 0 -139 -79q5 -4 16.5 -13.5t16.5 -14t16 -12.5t17 -11.5t16 -9t18 -8t17.5 -4.5t19.5 -2z" />
    <glyph glyph-name="integral" unicode="&#x222b;" 
d="M102 -160q-37 0 -66 10l13 86q25 -5 38 -5q42 0 65 26t32 83l79 498q16 108 59 157t131 49q35 0 67 -8l-15 -86q-15 4 -37 4q-45 0 -66.5 -28.5t-31.5 -87.5l-81 -501q-16 -103 -59.5 -150t-127.5 -47z" />
    <glyph glyph-name="approxequal" unicode="&#x2248;" 
d="M402 396q-12 0 -23.5 1.5t-23.5 6t-19 7.5t-21.5 10t-19.5 9l-34 16q-49 22 -73 22q-27 0 -45.5 -15.5t-39.5 -48.5l-58 48q60 107 142 107q12 0 23.5 -1.5t23.5 -6t19 -7.5t21.5 -10t19.5 -9l34 -15q52 -23 73 -23q27 0 46.5 15.5t40.5 48.5l58 -48q-60 -107 -144 -107z
M401 160q-12 0 -23.5 1.5t-23.5 6t-19 7.5t-21.5 10t-19.5 9l-34 16q-50 22 -73 22q-27 0 -45.5 -15.5t-39.5 -48.5l-58 48q60 107 142 107q12 0 23.5 -1.5t23.5 -6t19 -7.5t21.5 -10t19.5 -9l34 -15q52 -23 73 -23q27 0 46.5 15.5t40.5 48.5l58 -48q-60 -107 -144 -107z
" />
    <glyph glyph-name="notequal" unicode="&#x2260;" 
d="M79 78l81 137h-108v88h160q4 7 61 102h-221v88h273l79 134h103l-80 -134h109v-88h-161l-61 -102h222v-88h-274l-81 -137h-102z" />
    <glyph glyph-name="lessequal" unicode="&#x2264;" 
d="M490 239v-108l-396 181v86l396 183v-106q-218 -88 -278 -115v-3q25 -11 128 -54.5t150 -63.5zM94 0v98h396v-98h-396z" />
    <glyph glyph-name="greaterequal" unicode="&#x2265;" 
d="M98 131v108q56 25 159.5 68.5t117.5 49.5v3q-69 31 -277 115v106l396 -183v-86zM98 0v98h396v-98h-396z" />
    <glyph glyph-name="lozenge" unicode="&#x25ca;" 
d="M343 0h-99q-37 61 -110.5 182t-110.5 181q37 62 110.5 183.5t110.5 183.5h99l221 -367zM294 112l143 251l-143 254l-147 -254z" />
    <glyph glyph-name="uni25CF" unicode="&#x25cf;" 
d="M162 339q0 54 38.5 93t92.5 39q56 0 94 -38.5t38 -93.5t-38 -93.5t-94 -38.5q-54 0 -92.5 39t-38.5 93z" />
    <glyph glyph-name="uniFB00" unicode="&#xfb00;" horiz-adv-x="651" 
d="M111 0v441h-85v85h85v46q0 89 39.5 126.5t122.5 37.5q29 0 61 -5l-5 -89q-18 7 -44 7q-39 0 -54.5 -18.5t-15.5 -59.5v-45h202v46q0 89 39.5 126.5t122.5 37.5q29 0 61 -5l-5 -89q-18 7 -44 7q-39 0 -54.5 -18.5t-15.5 -59.5v-45h113v-85h-113v-441h-104v441h-202v-441
h-104z" />
    <glyph glyph-name="fi" unicode="&#xfb01;" horiz-adv-x="606" 
d="M111 0v441h-85v85h85v46q0 89 39.5 126.5t122.5 37.5q29 0 61 -5l-5 -89q-18 7 -44 7q-39 0 -54.5 -18.5t-15.5 -59.5v-45h312v-526h-105v441h-207v-441h-104zM421 607v123h106v-123h-106z" />
    <glyph glyph-name="fl" unicode="&#xfb02;" horiz-adv-x="602" 
d="M111 0v441h-85v85h85v36q0 59 12 94t43.5 53t71.5 23.5t110 5.5q61 0 175 -8v-730h-106v652q-24 3 -76 3q-80 0 -103.5 -17t-23.5 -82v-30h114v-85h-113v-441h-104z" />
    <glyph glyph-name="uniFB03" unicode="&#xfb03;" horiz-adv-x="912" 
d="M111 0v441h-85v85h85v46q0 89 39.5 126.5t122.5 37.5q29 0 61 -5l-5 -89q-18 7 -44 7q-39 0 -54.5 -18.5t-15.5 -59.5v-45h202v46q0 89 39.5 126.5t122.5 37.5q29 0 61 -5l-5 -89q-18 7 -44 7q-39 0 -54.5 -18.5t-15.5 -59.5v-45h312v-526h-105v441h-207v-441h-104v441
h-202v-441h-104zM727 607v123h106v-123h-106z" />
    <glyph glyph-name="uniFB04" unicode="&#xfb04;" horiz-adv-x="908" 
d="M111 0v441h-85v85h85v46q0 89 39.5 126.5t122.5 37.5q29 0 61 -5l-5 -89q-18 7 -44 7q-39 0 -54.5 -18.5t-15.5 -59.5v-45h202v36q0 59 12 94t43.5 53t71.5 23.5t110 5.5q61 0 175 -8v-730h-106v652q-24 3 -76 3q-80 0 -103.5 -17t-23.5 -82v-30h114v-85h-113v-441h-104
v441h-202v-441h-104z" />
    <glyph glyph-name="uniFEFF" unicode="&#xfeff;" horiz-adv-x="0" 
 />
    <glyph glyph-name="i.latn_TRK" horiz-adv-x="264" 
d="M79 0v526h106v-526h-106zM80 610v111h104v-111h-104z" />
    <glyph glyph-name="Ldot.latn_CAT" horiz-adv-x="569" 
d="M90 0v730h112v-631h340v-99h-452zM369 311v111h104v-111h-104z" />
    <glyph glyph-name="ldot.latn_CAT" horiz-adv-x="344" 
d="M79 0v730h106v-730h-106zM252 311v111h104v-111h-104z" />
    <glyph glyph-name="bracketleft.subs" horiz-adv-x="240" 
d="M61 -178v572h153v-58h-73q1 -15 1 -44v-368q0 -28 -1 -44q12 1 34 1h39v-59h-153z" />
    <glyph glyph-name="bracketright.subs" horiz-adv-x="244" 
d="M27 -177v59h40q22 0 33 -1q-1 15 -1 42v371q0 28 1 43h-73v58h155v-572h-155z" />
    <glyph glyph-name="a.subs" horiz-adv-x="382" 
d="M151 -90q-57 0 -90 26.5t-33 74.5q0 46 29.5 69t101.5 36l55 10q22 4 28 7.5t6 14.5q0 22 -16 34.5t-45 12.5q-59 0 -64 -55l-84 5q4 52 43.5 83.5t106.5 31.5q72 0 108 -31.5t36 -99.5v-197q0 -5 0.5 -10t0.5 -6h-76q-1 5 -1 17v13l-1 1q-37 -37 -105 -37zM173 -31
q36 0 56.5 20t20.5 58v12q0 9 1 13q-1 0 -47 -9q-63 -13 -75 -23q-11 -10 -11 -28q0 -43 55 -43z" />
    <glyph glyph-name="b.subs" horiz-adv-x="429" 
d="M245 -92q-69 0 -106 51h-2q2 -22 2 -28v-15h-87q1 15 1 48v419h89v-103q0 -10 -0.5 -33t-0.5 -35q39 50 106 50t110 -50t43 -128q0 -80 -43 -128t-112 -48zM225 -20q39 0 62 28t23 76q0 47 -23 75.5t-62 28.5t-62 -28.5t-23 -75.5t23 -75.5t62 -28.5z" />
    <glyph glyph-name="c.subs" horiz-adv-x="379" 
d="M202 -92q-79 0 -126 48.5t-47 127.5t48.5 128.5t126.5 49.5q59 0 99 -29.5t55 -79.5l-83 -18q-19 54 -71 54q-39 0 -61 -28t-22 -77t22.5 -76.5t60.5 -27.5q54 0 72 54l82 -19q-15 -49 -56 -78t-100 -29z" />
    <glyph glyph-name="d.subs" horiz-adv-x="430" 
d="M184 -92q-69 0 -112 48t-43 128q0 78 43.5 128t110.5 50q68 0 105 -49q-1 23 -1 63v107h90v-419q0 -36 1 -48h-87v13q0 14 1 29h-1q-37 -50 -107 -50zM203 -20q41 0 64 28.5t23 75.5t-23 75.5t-63 28.5q-39 0 -61.5 -29t-22.5 -75q0 -47 22.5 -75.5t60.5 -28.5z" />
    <glyph glyph-name="e.subs" horiz-adv-x="399" 
d="M206 -92q-81 0 -129 47.5t-48 128.5q0 78 48 128t127 50q84 0 125.5 -54.5t41.5 -146.5h-254q3 -38 27.5 -61t62.5 -23q58 0 89 48l73 -29q-49 -88 -163 -88zM118 122h165q-2 32 -23 53.5t-57 21.5q-35 0 -57.5 -21t-27.5 -54z" />
    <glyph glyph-name="f.subs" horiz-adv-x="244" 
d="M74 -84v268h-49v69h49v23q0 60 28 85t88 25q25 0 43 -3l-4 -70q-8 4 -25 4q-23 0 -32.5 -9.5t-9.5 -32.5v-22h67v-69h-65v-268h-90z" />
    <glyph glyph-name="g.subs" horiz-adv-x="425" 
d="M199 -211q-61 0 -103.5 23.5t-60.5 65.5l75 30q27 -49 90 -49q42 0 62.5 20t22.5 64v1l2 29h-1q-37 -49 -105 -49q-67 0 -109.5 47t-42.5 121t43.5 121.5t109.5 47.5q71 0 105 -49h1q-1 8 -1 29v12h86q0 -11 -0.5 -29t-0.5 -33v-244q0 -78 -47 -118t-126 -40zM203 -5
q38 0 60.5 27t22.5 70t-22.5 70t-60.5 27t-60.5 -27t-22.5 -70t22.5 -70t60.5 -27z" />
    <glyph glyph-name="h.subs" horiz-adv-x="416" 
d="M53 -84v467h90v-126q0 -30 -1 -41q34 46 103 46q58 0 90 -35.5t32 -103.5v-207h-89v165q0 57 -16 81.5t-48 24.5q-71 0 -71 -103v-168h-90z" />
    <glyph glyph-name="i.subs" horiz-adv-x="197" 
d="M53 -84v337h91v-337h-91zM53 299v84h91v-84h-91z" />
    <glyph glyph-name="j.subs" horiz-adv-x="197" 
d="M34 -207q-23 0 -38 3l3 70q5 -1 13 -1q23 0 32 12.5t9 41.5v334h91v-345q0 -64 -26.5 -89.5t-83.5 -25.5zM53 299v84h92v-84h-92z" />
    <glyph glyph-name="k.subs" horiz-adv-x="383" 
d="M52 -84v467h89v-166q0 -21 -0.5 -58.5t-0.5 -50.5q16 19 73 84l51 61h110l-138 -149l147 -188h-113l-95 129l-34 -37v-92h-89z" />
    <glyph glyph-name="l.subs" horiz-adv-x="197" 
d="M53 -84v467h91v-467h-91z" />
    <glyph glyph-name="m.subs" horiz-adv-x="626" 
d="M53 -84v277q0 37 -1 60h86v-19q0 -15 -1 -23h2q31 51 101 51t101 -57q37 57 113 57q123 0 123 -146v-200h-89v181q0 90 -61 90q-67 0 -67 -99v-172h-89v179q0 92 -61 92q-37 0 -52 -28t-15 -85v-158h-90z" />
    <glyph glyph-name="n.subs" horiz-adv-x="416" 
d="M53 -84v273q0 45 -1 64h86v-14q0 -18 -1 -27h2q32 50 105 50q58 0 90.5 -35.5t32.5 -103.5v-207h-90v163q0 58 -14 83t-49 25q-38 0 -54.5 -24.5t-16.5 -78.5v-168h-90z" />
    <glyph glyph-name="o.subs" horiz-adv-x="411" 
d="M206 -92q-80 0 -129 49t-49 127q0 79 49.5 128.5t128.5 49.5t128 -49.5t49 -128.5q0 -78 -49 -127t-128 -49zM206 -20q41 0 63 27.5t22 76.5q0 47 -22 76t-63 29t-64 -28.5t-23 -76.5q0 -49 22.5 -76.5t64.5 -27.5z" />
    <glyph glyph-name="p.subs" horiz-adv-x="429" 
d="M53 -204v400q0 40 -1 57h89v-12q0 -18 -1 -29h1q39 50 105 50q68 0 111 -49.5t43 -127.5q0 -80 -43 -128.5t-112 -48.5q-67 0 -102 46h-2q2 -11 2 -49v-109h-90zM226 -20q38 0 60.5 28.5t22.5 74.5q0 48 -22.5 76.5t-61.5 28.5t-62 -28.5t-23 -75.5t23 -75.5t63 -28.5z
" />
    <glyph glyph-name="q.subs" horiz-adv-x="429" 
d="M287 -204v115v44q-34 -47 -103 -47q-70 0 -112.5 49t-42.5 127q0 79 43.5 128.5t111.5 49.5q67 0 106 -50h1q-1 11 -1 31v10h87q-1 -15 -1 -64v-393h-89zM204 -20q40 0 63 28.5t23 75.5q0 46 -23.5 75t-62.5 29t-61.5 -28.5t-22.5 -76.5q0 -46 22.5 -74.5t61.5 -28.5z
" />
    <glyph glyph-name="r.subs" horiz-adv-x="267" 
d="M53 -84v275q0 42 -1 62h85v-16v-32h2q25 55 95 55q16 0 19 -1l-1 -84q-9 4 -24 4q-48 0 -67 -28t-19 -93v-142h-89z" />
    <glyph glyph-name="s.subs" horiz-adv-x="352" 
d="M174 -92q-61 0 -100.5 24.5t-50.5 72.5l80 18q19 -51 75 -51t56 36q0 16 -12.5 24t-44.5 15l-40 11q-53 13 -78 34t-25 65q0 49 39 77t101 28q119 0 142 -92l-79 -17q-12 43 -64 43q-49 0 -49 -33q0 -16 12.5 -24t44.5 -15l34 -8q56 -14 83 -36t27 -65q0 -52 -41.5 -79.5
t-109.5 -27.5z" />
    <glyph glyph-name="t.subs" horiz-adv-x="248" 
d="M217 -84h-106q-21 12 -28.5 35t-7.5 71v162h-55v69h55v92h89v-92h68v-69h-68v-135q0 -60 12.5 -82.5t40.5 -34.5v-16z" />
    <glyph glyph-name="u.subs" horiz-adv-x="413" 
d="M171 -92q-122 0 -122 133v212h90v-190q0 -82 63 -82q69 0 69 91v181h89v-285q0 -32 1 -52h-86v14q0 17 1 26h-1q-33 -48 -104 -48z" />
    <glyph glyph-name="v.subs" horiz-adv-x="364" 
d="M131 -84l-120 337h95l46 -151q30 -96 31 -99h2q18 64 29 100l48 150h94l-126 -337h-99z" />
    <glyph glyph-name="w.subs" horiz-adv-x="550" 
d="M111 -84l-100 337h93l32 -130q12 -39 27 -118h3q12 56 27 115l34 133h98l33 -131q16 -62 27 -118h3q9 45 28 120l33 129h90l-101 -337h-103l-34 133q-5 20 -25 117h-3q-11 -61 -26 -117l-34 -133h-102z" />
    <glyph glyph-name="x.subs" horiz-adv-x="363" 
d="M6 -84l123 172l-116 165h105l64 -104l65 104h101l-114 -163l124 -174h-105l-72 112l-73 -112h-102z" />
    <glyph glyph-name="y.subs" horiz-adv-x="365" 
d="M73 -205q-17 0 -26 1l-9 68q9 -1 25 -1q31 0 48 10t28 42l-130 338h98l37 -115q1 -4 16.5 -54.5t23.5 -77.5h3q7 22 18 63t20 68l37 116h94l-135 -361q-21 -57 -55.5 -77t-92.5 -20z" />
    <glyph glyph-name="z.subs" horiz-adv-x="347" 
d="M29 -84v67l100 114q46 54 73 83v2q-32 -2 -44 -2h-122v73h275v-69l-86 -101l-84 -96v-1q35 1 79 1h99v-71h-290z" />
    <glyph glyph-name="bracketleft.sups" horiz-adv-x="240" 
d="M61 299v572h153v-58h-73q1 -15 1 -44v-368q0 -28 -1 -44q12 1 34 1h39v-59h-153z" />
    <glyph glyph-name="bracketright.sups" horiz-adv-x="244" 
d="M27 300v59h40q22 0 33 -1q-1 15 -1 42v371q0 28 1 43h-73v58h155v-572h-155z" />
    <glyph glyph-name="a.sups" horiz-adv-x="382" 
d="M151 387q-57 0 -90 26.5t-33 74.5q0 46 29.5 69t101.5 36l55 10q22 4 28 7.5t6 14.5q0 22 -16 34.5t-45 12.5q-59 0 -64 -55l-84 5q4 52 43.5 83.5t106.5 31.5q72 0 108 -31.5t36 -99.5v-197q0 -5 0.5 -10t0.5 -6h-76q-1 5 -1 17v13l-1 1q-37 -37 -105 -37zM173 446
q36 0 56.5 20t20.5 58v12q0 9 1 13q-1 0 -47 -9q-63 -13 -75 -23q-11 -10 -11 -28q0 -43 55 -43z" />
    <glyph glyph-name="b.sups" horiz-adv-x="429" 
d="M245 385q-69 0 -106 51h-2q2 -22 2 -28v-15h-87q1 15 1 48v419h89v-103q0 -10 -0.5 -33t-0.5 -35q39 50 106 50t110 -50t43 -128q0 -80 -43 -128t-112 -48zM225 457q39 0 62 28t23 76q0 47 -23 75.5t-62 28.5t-62 -28.5t-23 -75.5t23 -75.5t62 -28.5z" />
    <glyph glyph-name="c.sups" horiz-adv-x="379" 
d="M202 385q-79 0 -126 48.5t-47 127.5t48.5 128.5t126.5 49.5q59 0 99 -29.5t55 -79.5l-83 -18q-19 54 -71 54q-39 0 -61 -28t-22 -77t22.5 -76.5t60.5 -27.5q54 0 72 54l82 -19q-15 -49 -56 -78t-100 -29z" />
    <glyph glyph-name="d.sups" horiz-adv-x="430" 
d="M184 385q-69 0 -112 48t-43 128q0 78 43.5 128t110.5 50q68 0 105 -49q-1 23 -1 63v107h90v-419q0 -36 1 -48h-87v13q0 14 1 29h-1q-37 -50 -107 -50zM203 457q41 0 64 28.5t23 75.5t-23 75.5t-63 28.5q-39 0 -61.5 -29t-22.5 -75q0 -47 22.5 -75.5t60.5 -28.5z" />
    <glyph glyph-name="e.sups" horiz-adv-x="399" 
d="M206 385q-81 0 -129 47.5t-48 128.5q0 78 48 128t127 50q84 0 125.5 -54.5t41.5 -146.5h-254q3 -38 27.5 -61t62.5 -23q58 0 89 48l73 -29q-49 -88 -163 -88zM118 599h165q-2 32 -23 53.5t-57 21.5q-35 0 -57.5 -21t-27.5 -54z" />
    <glyph glyph-name="f.sups" horiz-adv-x="244" 
d="M74 393v268h-49v69h49v23q0 60 28 85t88 25q25 0 43 -3l-4 -70q-8 4 -25 4q-23 0 -32.5 -9.5t-9.5 -32.5v-22h67v-69h-65v-268h-90z" />
    <glyph glyph-name="g.sups" horiz-adv-x="425" 
d="M199 266q-61 0 -103.5 23.5t-60.5 65.5l75 30q27 -49 90 -49q42 0 62.5 20t22.5 64v1l2 29h-1q-37 -49 -105 -49q-67 0 -109.5 47t-42.5 121t43.5 121.5t109.5 47.5q71 0 105 -49h1q-1 8 -1 29v12h86q0 -11 -0.5 -29t-0.5 -33v-244q0 -78 -47 -118t-126 -40zM203 472
q38 0 60.5 27t22.5 70t-22.5 70t-60.5 27t-60.5 -27t-22.5 -70t22.5 -70t60.5 -27z" />
    <glyph glyph-name="h.sups" horiz-adv-x="416" 
d="M53 393v467h90v-126q0 -30 -1 -41q34 46 103 46q58 0 90 -35.5t32 -103.5v-207h-89v165q0 57 -16 81.5t-48 24.5q-71 0 -71 -103v-168h-90z" />
    <glyph glyph-name="i.sups" horiz-adv-x="197" 
d="M53 393v337h91v-337h-91zM53 776v84h91v-84h-91z" />
    <glyph glyph-name="j.sups" horiz-adv-x="197" 
d="M34 270q-23 0 -38 3l3 70q5 -1 13 -1q23 0 32 12.5t9 41.5v334h91v-345q0 -64 -26.5 -89.5t-83.5 -25.5zM53 776v84h92v-84h-92z" />
    <glyph glyph-name="k.sups" horiz-adv-x="383" 
d="M53 393v467h89v-166q0 -22 -0.5 -59t-0.5 -50q16 19 73 84l51 61h110l-138 -149l147 -188h-113l-95 129l-34 -37v-92h-89z" />
    <glyph glyph-name="l.sups" horiz-adv-x="197" 
d="M53 393v467h91v-467h-91z" />
    <glyph glyph-name="m.sups" horiz-adv-x="626" 
d="M53 393v277q0 37 -1 60h86v-19q0 -15 -1 -23h2q31 51 101 51t101 -57q37 57 113 57q123 0 123 -146v-200h-89v181q0 90 -61 90q-67 0 -67 -99v-172h-89v179q0 92 -61 92q-37 0 -52 -28t-15 -85v-158h-90z" />
    <glyph glyph-name="o.sups" horiz-adv-x="411" 
d="M206 385q-80 0 -129 49t-49 127q0 79 49.5 128.5t128.5 49.5t128 -49.5t49 -128.5q0 -78 -49 -127t-128 -49zM206 457q41 0 63 27.5t22 76.5q0 47 -22 76t-63 29t-64 -28.5t-23 -76.5q0 -49 22.5 -76.5t64.5 -27.5z" />
    <glyph glyph-name="p.sups" horiz-adv-x="429" 
d="M53 273v400q0 40 -1 57h89v-12q0 -18 -1 -29h1q39 50 105 50q68 0 111 -49.5t43 -127.5q0 -80 -43 -128.5t-112 -48.5q-67 0 -102 46h-2q2 -11 2 -49v-109h-90zM226 457q38 0 60.5 28.5t22.5 74.5q0 48 -22.5 76.5t-61.5 28.5t-62 -28.5t-23 -75.5t23 -75.5t63 -28.5z
" />
    <glyph glyph-name="q.sups" horiz-adv-x="429" 
d="M287 273v115v44q-34 -47 -103 -47q-70 0 -112.5 49t-42.5 127q0 79 43.5 128.5t111.5 49.5q67 0 106 -50h1q-1 11 -1 31v10h87q-1 -15 -1 -64v-393h-89zM204 457q40 0 63 28.5t23 75.5q0 46 -23.5 75t-62.5 29t-61.5 -28.5t-22.5 -76.5q0 -46 22.5 -74.5t61.5 -28.5z" />
    <glyph glyph-name="r.sups" horiz-adv-x="267" 
d="M53 393v275q0 42 -1 62h85v-16v-32h2q25 55 95 55q16 0 19 -1l-1 -84q-9 4 -24 4q-48 0 -67 -28t-19 -93v-142h-89z" />
    <glyph glyph-name="s.sups" horiz-adv-x="352" 
d="M174 385q-61 0 -100.5 24.5t-50.5 72.5l80 18q19 -51 75 -51t56 36q0 16 -12.5 24t-44.5 15l-40 11q-53 13 -78 34t-25 65q0 49 39 77t101 28q119 0 142 -92l-79 -17q-12 43 -64 43q-49 0 -49 -33q0 -16 12.5 -24t44.5 -15l34 -8q56 -14 83 -36t27 -65q0 -52 -41.5 -79.5
t-109.5 -27.5z" />
    <glyph glyph-name="t.sups" horiz-adv-x="248" 
d="M217 393h-106q-21 12 -28.5 34.5t-7.5 71.5v162h-55v69h55v92h89v-92h68v-69h-68v-135q0 -60 12.5 -82.5t40.5 -34.5v-16z" />
    <glyph glyph-name="u.sups" horiz-adv-x="413" 
d="M171 385q-122 0 -122 133v212h90v-190q0 -82 63 -82q69 0 69 91v181h89v-285q0 -32 1 -52h-86v14q0 17 1 26h-1q-33 -48 -104 -48z" />
    <glyph glyph-name="v.sups" horiz-adv-x="364" 
d="M131 393l-120 337h95l46 -151q30 -96 31 -99h2q18 64 29 100l48 150h94l-126 -337h-99z" />
    <glyph glyph-name="w.sups" horiz-adv-x="550" 
d="M111 393l-100 337h93l32 -130q12 -39 27 -118h3q12 56 27 115l34 133h98l33 -131q16 -62 27 -118h3q9 45 28 120l33 129h90l-101 -337h-103l-34 133q-5 20 -25 117h-3q-11 -61 -26 -117l-34 -133h-102z" />
    <glyph glyph-name="x.sups" horiz-adv-x="363" 
d="M6 393l123 172l-116 165h105l64 -104l65 104h101l-114 -163l124 -174h-105l-72 112l-73 -112h-102z" />
    <glyph glyph-name="y.sups" horiz-adv-x="365" 
d="M73 272q-17 0 -26 1l-9 68q9 -1 25 -1q31 0 48 10t28 42l-130 338h98l37 -115q1 -4 16.5 -54.5t23.5 -77.5h3q7 22 18 63t20 68l37 116h94l-135 -361q-21 -57 -55.5 -77t-92.5 -20z" />
    <glyph glyph-name="z.sups" horiz-adv-x="347" 
d="M29 393v67l100 114q46 54 73 83v2q-32 -2 -44 -2h-122v73h275v-69l-86 -101l-84 -96v-1q35 1 79 1h99v-71h-290z" />
    <glyph glyph-name="zero.numr" horiz-adv-x="420" 
d="M210 250q-174 0 -174 242q0 113 42 179.5t131 66.5q90 0 132.5 -66.5t42.5 -179.5q0 -242 -174 -242zM211 327q76 0 76 164q0 82 -17 124t-60 42t-60.5 -42.5t-17.5 -124.5q0 -163 79 -163z" />
    <glyph glyph-name="one.numr" horiz-adv-x="347" 
d="M42 263v74h103v253h-113v64q60 2 88.5 18.5t34.5 59.5h81v-395h93v-74h-287z" />
    <glyph glyph-name="two.numr" horiz-adv-x="398" 
d="M33 263v72q39 37 136 118q55 45 75 73.5t20 64.5q0 30 -17.5 49t-49.5 19q-70 0 -75 -88l-90 2q0 75 45.5 121.5t121.5 46.5q75 0 118 -38t43 -106q0 -54 -30 -97t-87 -88q-25 -20 -53 -41.5t-37 -28.5v-2q47 1 78 1h131v-78h-329z" />
    <glyph glyph-name="three.numr" horiz-adv-x="402" 
d="M197 254q-78 0 -123 40.5t-48 114.5l93 3q5 -83 78 -83q35 0 55 20t20 51q0 34 -23.5 52.5t-64.5 18.5h-24v72h18q35 0 56.5 15.5t21.5 47.5q0 25 -15.5 41t-41.5 16q-68 0 -68 -73l-92 6q4 67 46.5 106t113.5 39q72 0 113 -34.5t41 -90.5q0 -76 -69 -103q84 -31 84 -115
q0 -65 -47.5 -104.5t-123.5 -39.5z" />
    <glyph glyph-name="four.numr" horiz-adv-x="396" 
d="M226 263v93h-197v67l106 307h88l-103 -300h106v171h82v-171h72v-74h-72v-93h-82z" />
    <glyph glyph-name="five.numr" horiz-adv-x="396" 
d="M196 254q-74 0 -117 37t-51 102l92 5q14 -68 77 -68q37 0 57 24t20 63t-19.5 61.5t-54.5 22.5q-52 0 -71 -43l-88 9l23 263h276v-78h-204q-2 -40 -5 -60l-5 -47q37 32 89 32q69 0 111 -43.5t42 -114.5q0 -75 -47 -120t-125 -45z" />
    <glyph glyph-name="six.numr" horiz-adv-x="416" 
d="M215 254q-87 0 -133 58.5t-46 165.5q0 123 47.5 193t137.5 70q66 0 105 -36t48 -96l-92 -3q-12 55 -63 55q-42 0 -64.5 -38t-24.5 -101h2q34 48 102 48t108.5 -43t40.5 -112q0 -70 -46.5 -115.5t-121.5 -45.5zM214 327q35 0 56 23.5t21 62.5q0 38 -21 60.5t-57 22.5
t-57.5 -23t-21.5 -60q0 -38 22 -62t58 -24z" />
    <glyph glyph-name="seven.numr" horiz-adv-x="365" 
d="M176 263h-104q54 200 171 384v1h-57h-165v82h322v-76q-50 -73 -95.5 -181t-71.5 -210z" />
    <glyph glyph-name="eight.numr" horiz-adv-x="415" 
d="M208 254q-80 0 -127 37.5t-47 102.5q0 82 86 117q-71 38 -71 105q0 56 43.5 91.5t115.5 35.5q71 0 114 -35.5t43 -91.5q0 -70 -70 -103v-2q87 -35 87 -117q0 -65 -47.5 -102.5t-126.5 -37.5zM208 326q36 0 57.5 21t21.5 54t-21.5 53t-57.5 20q-38 0 -59.5 -20t-21.5 -53
t22 -54t59 -21zM208 544q32 0 50.5 17t18.5 46q0 27 -18.5 44.5t-50.5 17.5q-33 0 -52 -17t-19 -45q0 -29 19 -46t52 -17z" />
    <glyph glyph-name="nine.numr" horiz-adv-x="411" 
d="M195 254q-139 0 -157 131l91 4q13 -58 66 -58q37 0 62 39t25 105h-1q-36 -47 -102 -47t-106.5 41.5t-40.5 110.5q0 70 46 115.5t120 45.5q86 0 131.5 -59.5t45.5 -168.5q0 -123 -45.5 -191t-134.5 -68zM200 500q35 0 56.5 23t21.5 59q0 38 -21.5 60.5t-56.5 22.5
q-36 0 -57.5 -22.5t-21.5 -59.5q0 -36 21.5 -59.5t57.5 -23.5z" />
    <glyph glyph-name="bracketleft.numr" horiz-adv-x="240" 
d="M61 169v572h153v-58h-73q1 -15 1 -44v-368q0 -28 -1 -44q12 1 34 1h39v-59h-153z" />
    <glyph glyph-name="bracketright.numr" horiz-adv-x="244" 
d="M27 170v59h40q22 0 33 -1q-1 15 -1 42v371q0 28 1 43h-73v58h155v-572h-155z" />
    <glyph glyph-name="a.numr" horiz-adv-x="382" 
d="M151 257q-57 0 -90 26.5t-33 74.5q0 46 29.5 69t101.5 36l55 10q22 4 28 7.5t6 14.5q0 22 -16 34.5t-45 12.5q-59 0 -64 -55l-84 5q4 52 43.5 83.5t106.5 31.5q72 0 108 -31.5t36 -99.5v-197q0 -5 0.5 -10t0.5 -6h-76q-1 5 -1 17v13l-1 1q-37 -37 -105 -37zM173 316
q36 0 56.5 20t20.5 58v12q0 9 1 13q-1 0 -47 -9q-63 -13 -75 -23q-11 -10 -11 -28q0 -43 55 -43z" />
    <glyph glyph-name="b.numr" horiz-adv-x="429" 
d="M245 255q-69 0 -106 51h-2q2 -22 2 -28v-15h-87q1 15 1 48v419h89v-103q0 -10 -0.5 -33t-0.5 -35q39 50 106 50t110 -50t43 -128q0 -80 -43 -128t-112 -48zM225 327q39 0 62 28t23 76q0 47 -23 75.5t-62 28.5t-62 -28.5t-23 -75.5t23 -75.5t62 -28.5z" />
    <glyph glyph-name="c.numr" horiz-adv-x="379" 
d="M202 255q-79 0 -126 48.5t-47 127.5t48.5 128.5t126.5 49.5q59 0 99 -29.5t55 -79.5l-83 -18q-19 54 -71 54q-39 0 -61 -28t-22 -77t22.5 -76.5t60.5 -27.5q54 0 72 54l82 -19q-15 -49 -56 -78t-100 -29z" />
    <glyph glyph-name="d.numr" horiz-adv-x="430" 
d="M184 255q-69 0 -112 48t-43 128q0 78 43.5 128t110.5 50q68 0 105 -49q-1 23 -1 63v107h90v-419q0 -36 1 -48h-87v13q0 14 1 29h-1q-37 -50 -107 -50zM203 327q41 0 64 28.5t23 75.5t-23 75.5t-63 28.5q-39 0 -61.5 -29t-22.5 -75q0 -47 22.5 -75.5t60.5 -28.5z" />
    <glyph glyph-name="e.numr" horiz-adv-x="399" 
d="M206 255q-81 0 -129 47.5t-48 128.5q0 78 48 128t127 50q84 0 125.5 -54.5t41.5 -146.5h-254q3 -38 27.5 -61t62.5 -23q58 0 89 48l73 -29q-49 -88 -163 -88zM118 469h165q-2 32 -23 53.5t-57 21.5q-35 0 -57.5 -21t-27.5 -54z" />
    <glyph glyph-name="f.numr" horiz-adv-x="244" 
d="M74 263v268h-49v69h49v23q0 60 28 85t88 25q25 0 43 -3l-4 -70q-8 4 -25 4q-23 0 -32.5 -9.5t-9.5 -32.5v-22h67v-69h-65v-268h-90z" />
    <glyph glyph-name="g.numr" horiz-adv-x="425" 
d="M199 136q-61 0 -103.5 23.5t-60.5 65.5l75 30q27 -49 90 -49q42 0 62.5 20t22.5 64v1l2 29h-1q-37 -49 -105 -49q-67 0 -109.5 47t-42.5 121t43.5 121.5t109.5 47.5q71 0 105 -49h1q-1 8 -1 29v12h86q0 -11 -0.5 -29t-0.5 -33v-244q0 -78 -47 -118t-126 -40zM203 342
q38 0 60.5 27t22.5 70t-22.5 70t-60.5 27t-60.5 -27t-22.5 -70t22.5 -70t60.5 -27z" />
    <glyph glyph-name="h.numr" horiz-adv-x="416" 
d="M53 263v467h90v-126q0 -30 -1 -41q34 46 103 46q58 0 90 -35.5t32 -103.5v-207h-89v165q0 57 -16 81.5t-48 24.5q-71 0 -71 -103v-168h-90z" />
    <glyph glyph-name="i.numr" horiz-adv-x="197" 
d="M53 263v337h91v-337h-91zM53 646v84h91v-84h-91z" />
    <glyph glyph-name="j.numr" horiz-adv-x="197" 
d="M34 140q-23 0 -38 3l3 70q5 -1 13 -1q23 0 32 12.5t9 41.5v334h91v-345q0 -64 -26.5 -89.5t-83.5 -25.5zM53 646v84h92v-84h-92z" />
    <glyph glyph-name="k.numr" horiz-adv-x="383" 
d="M52 263v467h89v-166q0 -22 -0.5 -59t-0.5 -50q16 19 73 84l51 61h110l-138 -149l147 -188h-113l-95 129l-34 -37v-92h-89z" />
    <glyph glyph-name="l.numr" horiz-adv-x="197" 
d="M53 263v467h91v-467h-91z" />
    <glyph glyph-name="m.numr" horiz-adv-x="626" 
d="M53 263v277q0 37 -1 60h86v-19q0 -15 -1 -23h2q31 51 101 51t101 -57q37 57 113 57q123 0 123 -146v-200h-89v181q0 90 -61 90q-67 0 -67 -99v-172h-89v179q0 92 -61 92q-37 0 -52 -28t-15 -85v-158h-90z" />
    <glyph glyph-name="n.numr" horiz-adv-x="416" 
d="M53 263v273q0 45 -1 64h86v-14q0 -18 -1 -27h2q32 50 105 50q58 0 90.5 -35.5t32.5 -103.5v-207h-90v163q0 58 -14 83t-49 25q-38 0 -54.5 -24.5t-16.5 -78.5v-168h-90z" />
    <glyph glyph-name="o.numr" horiz-adv-x="411" 
d="M206 255q-80 0 -129 49t-49 127q0 79 49.5 128.5t128.5 49.5t128 -49.5t49 -128.5q0 -78 -49 -127t-128 -49zM206 327q41 0 63 27.5t22 76.5q0 47 -22 76t-63 29t-64 -28.5t-23 -76.5q0 -49 22.5 -76.5t64.5 -27.5z" />
    <glyph glyph-name="p.numr" horiz-adv-x="429" 
d="M53 143v400q0 40 -1 57h89v-12q0 -18 -1 -29h1q39 50 105 50q68 0 111 -49.5t43 -127.5q0 -80 -43 -128.5t-112 -48.5q-67 0 -102 46h-2q2 -11 2 -49v-109h-90zM226 327q38 0 60.5 28.5t22.5 74.5q0 48 -22.5 76.5t-61.5 28.5t-62 -28.5t-23 -75.5t23 -75.5t63 -28.5z
" />
    <glyph glyph-name="q.numr" horiz-adv-x="429" 
d="M287 143v115v44q-34 -47 -103 -47q-70 0 -112.5 49t-42.5 127q0 79 43.5 128.5t111.5 49.5q67 0 106 -50h1q-1 11 -1 31v10h87q-1 -15 -1 -64v-393h-89zM204 327q40 0 63 28.5t23 75.5q0 46 -23.5 75t-62.5 29t-61.5 -28.5t-22.5 -76.5q0 -46 22.5 -74.5t61.5 -28.5z" />
    <glyph glyph-name="r.numr" horiz-adv-x="267" 
d="M53 263v275q0 42 -1 62h85v-16v-32h2q25 55 95 55q16 0 19 -1l-1 -84q-9 4 -24 4q-48 0 -67 -28t-19 -93v-142h-89z" />
    <glyph glyph-name="s.numr" horiz-adv-x="352" 
d="M174 255q-61 0 -100.5 24.5t-50.5 72.5l80 18q19 -51 75 -51t56 36q0 16 -12.5 24t-44.5 15l-40 11q-53 13 -78 34t-25 65q0 49 39 77t101 28q119 0 142 -92l-79 -17q-12 43 -64 43q-49 0 -49 -33q0 -16 12.5 -24t44.5 -15l34 -8q56 -14 83 -36t27 -65q0 -52 -41.5 -79.5
t-109.5 -27.5z" />
    <glyph glyph-name="t.numr" horiz-adv-x="248" 
d="M217 263h-106q-21 12 -28.5 34.5t-7.5 71.5v162h-55v69h55v92h89v-92h68v-69h-68v-135q0 -60 12.5 -82.5t40.5 -34.5v-16z" />
    <glyph glyph-name="u.numr" horiz-adv-x="413" 
d="M171 255q-122 0 -122 133v212h90v-190q0 -82 63 -82q69 0 69 91v181h89v-285q0 -32 1 -52h-86v14q0 17 1 26h-1q-33 -48 -104 -48z" />
    <glyph glyph-name="v.numr" horiz-adv-x="364" 
d="M131 263l-120 337h95l46 -151q30 -96 31 -99h2q18 64 29 100l48 150h94l-126 -337h-99z" />
    <glyph glyph-name="w.numr" horiz-adv-x="550" 
d="M111 263l-100 337h93l32 -130q12 -39 27 -118h3q12 56 27 115l34 133h98l33 -131q16 -62 27 -118h3q9 45 28 120l33 129h90l-101 -337h-103l-34 133q-5 20 -25 117h-3q-11 -61 -26 -117l-34 -133h-102z" />
    <glyph glyph-name="x.numr" horiz-adv-x="363" 
d="M6 263l123 172l-116 165h105l64 -104l65 104h101l-114 -163l124 -174h-105l-72 112l-73 -112h-102z" />
    <glyph glyph-name="y.numr" horiz-adv-x="365" 
d="M73 142q-17 0 -26 1l-9 68q9 -1 25 -1q31 0 48 10t28 42l-130 338h98l37 -115q1 -4 16.5 -54.5t23.5 -77.5h3q7 22 18 63t20 68l37 116h94l-135 -361q-21 -57 -55.5 -77t-92.5 -20z" />
    <glyph glyph-name="z.numr" horiz-adv-x="347" 
d="M29 263v67l100 114q46 54 73 83v2q-32 -2 -44 -2h-122v73h275v-69l-86 -101l-84 -96v-1q35 1 79 1h99v-71h-290z" />
    <glyph glyph-name="uni208D.numr" horiz-adv-x="227" 
d="M206 170l-69 -5q-104 133 -104 286q0 154 104 289l69 -5q-84 -133 -84 -283q0 -148 84 -282z" />
    <glyph glyph-name="uni208E.numr" horiz-adv-x="227" 
d="M91 165l-69 5q83 134 83 282q0 149 -83 283l69 5q103 -137 103 -289q0 -150 -103 -286z" />
    <glyph glyph-name="zero.dnom" horiz-adv-x="420" 
d="M210 -9q-174 0 -174 242q0 113 42 179.5t131 66.5q90 0 132.5 -66.5t42.5 -179.5q0 -242 -174 -242zM211 68q76 0 76 164q0 82 -17 124t-60 42t-60.5 -42.5t-17.5 -124.5q0 -163 79 -163z" />
    <glyph glyph-name="one.dnom" horiz-adv-x="347" 
d="M42 0v74h103v253h-113v64q60 2 88.5 18.5t34.5 59.5h81v-395h93v-74h-287z" />
    <glyph glyph-name="two.dnom" horiz-adv-x="398" 
d="M34 0v72q39 37 136 118q55 45 75 73.5t20 64.5q0 30 -17.5 49t-49.5 19q-70 0 -75 -88l-90 2q0 75 45.5 121.5t121.5 46.5q75 0 118 -38t43 -106q0 -54 -30 -97t-87 -88q-25 -20 -53 -41.5t-37 -28.5v-2h30q7 1 48 1h131v-78h-329z" />
    <glyph glyph-name="three.dnom" horiz-adv-x="402" 
d="M197 -9q-78 0 -123 40.5t-48 114.5l93 3q5 -83 78 -83q35 0 55 20t20 51q0 34 -23.5 52.5t-64.5 18.5h-24v72h18q35 0 56.5 15.5t21.5 47.5q0 25 -15.5 41t-41.5 16q-68 0 -68 -73l-92 6q4 67 46.5 106t113.5 39q72 0 113 -34.5t41 -90.5q0 -76 -69 -103q84 -31 84 -115
q0 -65 -47.5 -104.5t-123.5 -39.5z" />
    <glyph glyph-name="four.dnom" horiz-adv-x="396" 
d="M227 0v93h-197v67l106 307h88l-103 -300h106v171h82v-171h72v-74h-72v-93h-82z" />
    <glyph glyph-name="five.dnom" horiz-adv-x="396" 
d="M196 -9q-74 0 -117 37t-51 102l92 5q14 -68 77 -68q37 0 57 24t20 63t-19.5 61.5t-54.5 22.5q-52 0 -71 -43l-88 9l23 263h276v-78h-204q-2 -40 -5 -60l-5 -47q37 32 89 32q69 0 111 -43.5t42 -114.5q0 -75 -47 -120t-125 -45z" />
    <glyph glyph-name="six.dnom" horiz-adv-x="416" 
d="M215 -9q-87 0 -133 58.5t-46 165.5q0 123 47.5 193t137.5 70q66 0 105 -36t48 -96l-92 -3q-12 55 -63 55q-42 0 -64.5 -38t-24.5 -101h2q34 48 102 48t108.5 -43t40.5 -112q0 -70 -46.5 -115.5t-121.5 -45.5zM214 64q35 0 56 23.5t21 62.5q0 38 -21 60.5t-57 22.5
t-57.5 -23t-21.5 -60q0 -38 22 -62t58 -24z" />
    <glyph glyph-name="seven.dnom" horiz-adv-x="365" 
d="M176 0h-104q54 200 171 384v1h-57h-165v82h322v-76q-50 -73 -95.5 -181t-71.5 -210z" />
    <glyph glyph-name="eight.dnom" horiz-adv-x="415" 
d="M208 -9q-80 0 -127 37.5t-47 102.5q0 82 86 117q-71 38 -71 105q0 56 43.5 91.5t115.5 35.5q71 0 114 -35.5t43 -91.5q0 -70 -70 -103v-2q87 -35 87 -117q0 -65 -47.5 -102.5t-126.5 -37.5zM208 63q36 0 57.5 21t21.5 54t-21.5 53t-57.5 20q-38 0 -59.5 -20t-21.5 -53
t22 -54t59 -21zM208 281q32 0 50.5 17t18.5 46q0 27 -18.5 44.5t-50.5 17.5q-33 0 -52 -17t-19 -45q0 -29 19 -46t52 -17z" />
    <glyph glyph-name="nine.dnom" horiz-adv-x="411" 
d="M195 -9q-139 0 -157 131l91 4q13 -58 66 -58q37 0 62 39t25 105h-1q-36 -47 -102 -47t-106.5 41.5t-40.5 110.5t46 115t120 46q86 0 131.5 -59.5t45.5 -168.5q0 -123 -45.5 -191t-134.5 -68zM200 237q35 0 56.5 23t21.5 59q0 38 -21.5 60.5t-56.5 22.5q-36 0 -57.5 -22.5
t-21.5 -59.5q0 -36 21.5 -59.5t57.5 -23.5z" />
    <glyph glyph-name="bracketleft.dnom" horiz-adv-x="240" 
d="M61 -94v572h153v-58h-73q1 -15 1 -44v-368q0 -28 -1 -44q12 1 34 1h39v-59h-153z" />
    <glyph glyph-name="bracketright.dnom" horiz-adv-x="244" 
d="M27 -93v59h40q22 0 33 -1q-1 15 -1 42v371q0 28 1 43h-73v58h155v-572h-155z" />
    <glyph glyph-name="a.dnom" horiz-adv-x="382" 
d="M151 -6q-57 0 -90 26.5t-33 74.5q0 46 29.5 69t101.5 36l55 10q22 4 28 7.5t6 14.5q0 22 -16 34.5t-45 12.5q-59 0 -64 -55l-84 5q4 52 43.5 83.5t106.5 31.5q72 0 108 -31.5t36 -99.5v-197q0 -5 0.5 -10t0.5 -6h-76q-1 5 -1 17v13l-1 1q-37 -37 -105 -37zM173 53
q36 0 56.5 20t20.5 58v12q0 9 1 13q-1 0 -47 -9q-63 -13 -75 -23q-11 -10 -11 -28q0 -43 55 -43z" />
    <glyph glyph-name="b.dnom" horiz-adv-x="429" 
d="M245 -8q-69 0 -106 51h-2q2 -22 2 -28v-15h-87q1 15 1 48v419h89v-103q0 -10 -0.5 -33t-0.5 -35q39 50 106 50t110 -50t43 -128q0 -80 -43 -128t-112 -48zM225 64q39 0 62 28t23 76q0 47 -23 75.5t-62 28.5t-62 -28.5t-23 -75.5t23 -75.5t62 -28.5z" />
    <glyph glyph-name="c.dnom" horiz-adv-x="379" 
d="M202 -8q-79 0 -126 48.5t-47 127.5t48.5 128.5t126.5 49.5q59 0 99 -29.5t55 -79.5l-83 -18q-19 54 -71 54q-39 0 -61 -28t-22 -77t22.5 -76.5t60.5 -27.5q54 0 72 54l82 -19q-15 -49 -56 -78t-100 -29z" />
    <glyph glyph-name="d.dnom" horiz-adv-x="430" 
d="M184 -8q-69 0 -112 48t-43 128q0 78 43.5 128t110.5 50q68 0 105 -49q-1 23 -1 63v107h90v-419q0 -36 1 -48h-87v13q0 14 1 29h-1q-37 -50 -107 -50zM203 64q41 0 64 28.5t23 75.5t-23 75.5t-63 28.5q-39 0 -61.5 -29t-22.5 -75q0 -47 22.5 -75.5t60.5 -28.5z" />
    <glyph glyph-name="e.dnom" horiz-adv-x="399" 
d="M206 -8q-81 0 -129 47.5t-48 128.5q0 78 48 128t127 50q84 0 125.5 -54.5t41.5 -146.5h-254q3 -38 27.5 -61t62.5 -23q58 0 89 48l73 -29q-49 -88 -163 -88zM118 206h165q-2 32 -23 53.5t-57 21.5q-35 0 -57.5 -21t-27.5 -54z" />
    <glyph glyph-name="f.dnom" horiz-adv-x="244" 
d="M74 0v268h-49v69h49v23q0 60 28 85t88 25q25 0 43 -3l-4 -70q-8 4 -25 4q-23 0 -32.5 -9.5t-9.5 -32.5v-22h67v-69h-65v-268h-90z" />
    <glyph glyph-name="g.dnom" horiz-adv-x="425" 
d="M199 -127q-61 0 -103.5 23.5t-60.5 65.5l75 30q27 -49 90 -49q42 0 62.5 20t22.5 64v1l2 29h-1q-37 -49 -105 -49q-67 0 -109.5 47t-42.5 121t43.5 121.5t109.5 47.5q71 0 105 -49h1q-1 8 -1 29v12h86q0 -11 -0.5 -29t-0.5 -33v-244q0 -78 -47 -118t-126 -40zM203 79
q38 0 60.5 27t22.5 70t-22.5 70t-60.5 27t-60.5 -27t-22.5 -70t22.5 -70t60.5 -27z" />
    <glyph glyph-name="h.dnom" horiz-adv-x="416" 
d="M53 0v467h90v-126q0 -30 -1 -41q34 46 103 46q58 0 90 -35.5t32 -103.5v-207h-89v165q0 57 -16 81.5t-48 24.5q-71 0 -71 -103v-168h-90z" />
    <glyph glyph-name="i.dnom" horiz-adv-x="197" 
d="M53 0v337h91v-337h-91zM53 383v84h91v-84h-91z" />
    <glyph glyph-name="j.dnom" horiz-adv-x="197" 
d="M34 -123q-23 0 -38 3l3 70q5 -1 13 -1q23 0 32 12.5t9 41.5v334h91v-345q0 -64 -26.5 -89.5t-83.5 -25.5zM53 383v84h92v-84h-92z" />
    <glyph glyph-name="k.dnom" horiz-adv-x="383" 
d="M52 0v467h89v-166q0 -21 -0.5 -59t-0.5 -50q16 19 73 84l51 61h110l-138 -149l147 -188h-113l-95 129l-34 -37v-92h-89z" />
    <glyph glyph-name="l.dnom" horiz-adv-x="197" 
d="M53 0v467h91v-467h-91z" />
    <glyph glyph-name="m.dnom" horiz-adv-x="626" 
d="M53 0v277q0 37 -1 60h86v-19q0 -15 -1 -23h2q31 51 101 51t101 -57q37 57 113 57q123 0 123 -146v-200h-89v181q0 90 -61 90q-67 0 -67 -99v-172h-89v179q0 92 -61 92q-37 0 -52 -28t-15 -85v-158h-90z" />
    <glyph glyph-name="n.dnom" horiz-adv-x="416" 
d="M53 0v273q0 45 -1 64h86v-14q0 -18 -1 -27h2q32 50 105 50q58 0 90.5 -35.5t32.5 -103.5v-207h-90v163q0 58 -14 83t-49 25q-38 0 -54.5 -24.5t-16.5 -78.5v-168h-90z" />
    <glyph glyph-name="o.dnom" horiz-adv-x="411" 
d="M206 -8q-80 0 -129 49t-49 127q0 79 49.5 128.5t128.5 49.5t128 -49.5t49 -128.5q0 -78 -49 -127t-128 -49zM206 64q41 0 63 27.5t22 76.5q0 47 -22 76t-63 29t-64 -28.5t-23 -76.5q0 -49 22.5 -76.5t64.5 -27.5z" />
    <glyph glyph-name="p.dnom" horiz-adv-x="429" 
d="M53 -120v400q0 40 -1 57h89v-12q0 -18 -1 -29h1q39 50 105 50q68 0 111 -49.5t43 -127.5q0 -80 -43 -128.5t-112 -48.5q-67 0 -102 46h-2q2 -11 2 -49v-109h-90zM226 64q38 0 60.5 28.5t22.5 74.5q0 48 -22.5 76.5t-61.5 28.5t-62 -28.5t-23 -75.5t23 -75.5t63 -28.5z
" />
    <glyph glyph-name="q.dnom" horiz-adv-x="429" 
d="M287 -120v115v44q-34 -47 -103 -47q-70 0 -112.5 49t-42.5 127q0 79 43.5 128.5t111.5 49.5q67 0 106 -50h1q-1 11 -1 31v10h87q-1 -15 -1 -64v-393h-89zM204 64q40 0 63 28.5t23 75.5q0 46 -23.5 75t-62.5 29t-61.5 -28.5t-22.5 -76.5q0 -46 22.5 -74.5t61.5 -28.5z" />
    <glyph glyph-name="r.dnom" horiz-adv-x="267" 
d="M53 0v275q0 42 -1 62h85v-16v-32h2q25 55 95 55q16 0 19 -1l-1 -84q-9 4 -24 4q-48 0 -67 -28t-19 -93v-142h-89z" />
    <glyph glyph-name="s.dnom" horiz-adv-x="352" 
d="M174 -8q-61 0 -100.5 24.5t-50.5 72.5l80 18q19 -51 75 -51t56 36q0 16 -12.5 24t-44.5 15l-40 11q-53 13 -78 34t-25 65q0 49 39 77t101 28q119 0 142 -92l-79 -17q-12 43 -64 43q-49 0 -49 -33q0 -16 12.5 -24t44.5 -15l34 -8q56 -14 83 -36t27 -65q0 -52 -41.5 -79.5
t-109.5 -27.5z" />
    <glyph glyph-name="t.dnom" horiz-adv-x="248" 
d="M217 0h-106q-21 12 -28.5 34.5t-7.5 71.5v162h-55v69h55v92h89v-92h68v-69h-68v-135q0 -60 12.5 -82.5t40.5 -34.5v-16z" />
    <glyph glyph-name="u.dnom" horiz-adv-x="413" 
d="M171 -8q-122 0 -122 133v212h90v-190q0 -82 63 -82q69 0 69 91v181h89v-285q0 -32 1 -52h-86v14q0 17 1 26h-1q-33 -48 -104 -48z" />
    <glyph glyph-name="v.dnom" horiz-adv-x="364" 
d="M131 0l-120 337h95l46 -151q30 -96 31 -99h2q18 64 29 100l48 150h94l-126 -337h-99z" />
    <glyph glyph-name="w.dnom" horiz-adv-x="550" 
d="M111 0l-100 337h93l32 -130q12 -39 27 -118h3q12 56 27 115l34 133h98l33 -131q16 -62 27 -118h3q9 45 28 120l33 129h90l-101 -337h-103l-34 133q-5 20 -25 117h-3q-11 -61 -26 -117l-34 -133h-102z" />
    <glyph glyph-name="x.dnom" horiz-adv-x="363" 
d="M6 0l123 172l-116 165h105l64 -104l65 104h101l-114 -163l124 -174h-105l-72 112l-73 -112h-102z" />
    <glyph glyph-name="y.dnom" horiz-adv-x="365" 
d="M73 -121q-17 0 -26 1l-9 68q9 -1 25 -1q31 0 48 10t28 42l-130 338h98l37 -115q1 -4 16.5 -54.5t23.5 -77.5h3q7 22 18 63t20 68l37 116h94l-135 -361q-21 -57 -55.5 -77t-92.5 -20z" />
    <glyph glyph-name="z.dnom" horiz-adv-x="347" 
d="M29 0v67l100 114q46 54 73 83v2q-32 -2 -44 -2h-122v73h275v-69l-86 -101l-84 -96v-1q35 1 79 1h99v-71h-290z" />
    <glyph glyph-name="uni208D.dnom" horiz-adv-x="227" 
d="M206 -93l-69 -5q-104 133 -104 286q0 154 104 289l69 -5q-84 -134 -84 -283t84 -282z" />
    <glyph glyph-name="uni208E.dnom" horiz-adv-x="227" 
d="M92 -98l-69 5q83 134 83 282q0 149 -83 283l69 5q103 -137 103 -289q0 -150 -103 -286z" />
    <glyph glyph-name="space.frac" horiz-adv-x="59" 
 />
    <glyph glyph-name="zero.osf" horiz-adv-x="614" 
d="M306 -14q-255 0 -255 369q0 167 61.5 268t192.5 101q91 0 150 -50.5t83 -130.5t24 -188q0 -171 -61.5 -270t-194.5 -99zM307 79q137 0 137 274q0 83 -11 140t-42.5 95t-84.5 38q-76 0 -106.5 -72.5t-30.5 -202.5q0 -272 138 -272z" />
    <glyph glyph-name="one.osf" horiz-adv-x="484" 
d="M61 0v89h154v421h-173v78q97 4 138 30t51 92h94v-621h142v-89h-406z" />
    <glyph glyph-name="two.osf" horiz-adv-x="575" 
d="M45 0v89q61 59 204 182q93 81 125.5 129t32.5 111q0 54 -31 84.5t-87 30.5q-125 0 -130 -148l-111 4q0 110 65 176t176 66q109 0 172 -57t63 -156q0 -51 -19 -97.5t-59.5 -92t-77 -77.5t-99.5 -81l-83 -67v-2q21 1 67 1h273v-95h-481z" />
    <glyph glyph-name="three.osf" horiz-adv-x="587" 
d="M287 -14q-114 0 -179.5 59.5t-71.5 165.5l112 8q12 -141 140 -141q62 0 99 35t37 92q0 60 -42.5 90t-113.5 30h-30v91h10q156 0 156 109q0 48 -32 76t-85 28q-58 0 -89 -33.5t-34 -91.5l-109 9q6 97 68.5 154t166.5 57q102 0 164 -52t62 -136q0 -56 -32 -96.5t-87 -61.5
q67 -21 104.5 -66.5t37.5 -111.5q0 -97 -69.5 -155.5t-182.5 -58.5z" />
    <glyph glyph-name="four.osf" horiz-adv-x="581" 
d="M346 0v148h-306v83l163 479h106l-157 -468h194v270h100v-270h119v-94h-119v-148h-100z" />
    <glyph glyph-name="five.osf" horiz-adv-x="578" 
d="M286 -14q-103 0 -168 53.5t-76 147.5l111 7q7 -52 43 -83.5t92 -31.5q63 0 99.5 41t36.5 112q0 68 -36.5 109t-99.5 41q-89 0 -121 -75l-107 9q7 80 35 394h403v-96h-313q-9 -114 -19 -194q58 56 144 56q103 0 165.5 -67.5t62.5 -174.5q0 -111 -69 -179.5t-183 -68.5z
" />
    <glyph glyph-name="six.osf" horiz-adv-x="607" 
d="M313 -14q-130 0 -196 92t-66 256q0 180 70 285t204 105q98 0 155 -51.5t69 -141.5l-111 -6q-15 104 -115 104q-80 0 -120 -72.5t-43 -178.5h4q24 40 68.5 63t102.5 23q101 0 163 -66t62 -171q0 -106 -67.5 -173.5t-179.5 -67.5zM313 78q60 0 97 41.5t37 105.5
q0 66 -36.5 106.5t-98.5 40.5t-99.5 -40.5t-37.5 -106.5t37.5 -106.5t100.5 -40.5z" />
    <glyph glyph-name="seven.osf" horiz-adv-x="523" 
d="M238 0h-124q38 154 107.5 314t157.5 296v2q-15 0 -48 -0.5t-51 -0.5h-256v99h474v-91q-88 -130 -156.5 -296.5t-103.5 -322.5z" />
    <glyph glyph-name="eight.osf" horiz-adv-x="603" 
d="M302 -14q-113 0 -184 57.5t-71 151.5q0 130 139 181q-115 53 -115 160q0 81 63.5 134.5t167.5 53.5q103 0 166.5 -53.5t63.5 -134.5q0 -109 -115 -159q139 -53 139 -182q0 -94 -71 -151.5t-183 -57.5zM302 77q62 0 100 35.5t38 90.5t-37.5 89.5t-100.5 34.5t-101 -34.5
t-38 -89.5t38.5 -90.5t100.5 -35.5zM302 419q55 0 87.5 29t32.5 77q0 47 -32.5 76t-87.5 29q-56 0 -88.5 -28.5t-32.5 -76.5t32.5 -77t88.5 -29z" />
    <glyph glyph-name="nine.osf" horiz-adv-x="603" 
d="M284 -14q-99 0 -158 51t-70 144l111 5q18 -109 118 -109q70 0 115 73t45 187h-4q-56 -86 -169 -86q-102 0 -163.5 64.5t-61.5 169.5q0 103 67 171t176 68q130 0 196 -91.5t66 -258.5q0 -183 -67 -285.5t-201 -102.5zM292 343q62 0 100 39.5t38 102.5q0 64 -37.5 105
t-99.5 41q-60 0 -97.5 -40.5t-37.5 -104.5q0 -63 37 -103t97 -40z" />
    <glyph glyph-name="uni2007.osf" horiz-adv-x="244" 
 />
    <glyph glyph-name="zero.tf" 
d="M294 -14q-69 0 -120 28t-81 79.5t-44.5 118.5t-14.5 151q0 111 24.5 193.5t84.5 135t151 52.5q70 0 122 -29.5t82 -82.5t44.5 -120t14.5 -149q0 -173 -64 -275t-199 -102zM295 76q142 0 142 285q0 88 -11.5 147.5t-44 98.5t-87.5 39q-42 0 -70.5 -21t-44 -62t-21.5 -90
t-6 -115q0 -86 12 -145.5t44.5 -98t86.5 -38.5z" />
    <glyph glyph-name="one.tf" 
d="M109 0v89h158v436h-177v78q96 4 139.5 31.5t53.5 95.5h95v-641h145v-89h-414z" />
    <glyph glyph-name="two.tf" 
d="M44 0v87q52 50 209 187q96 84 130 133t34 115q0 57 -31.5 90.5t-90.5 33.5q-65 0 -99.5 -40.5t-36.5 -111.5l-111 3q2 110 69 178.5t178 68.5t176 -58.5t65 -160.5q0 -79 -45 -145t-129 -137q-51 -44 -107.5 -89t-73.5 -60v-2q6 0 51.5 0.5t71.5 0.5h234v-93h-494z" />
    <glyph glyph-name="three.tf" 
d="M289 -14q-236 0 -257 230l111 7q6 -67 43.5 -107.5t103.5 -40.5q63 0 102 38t39 98q0 126 -164 126h-28v91h9q162 0 162 115q0 50 -32.5 78.5t-87.5 28.5q-61 0 -94 -34t-37 -93l-108 9q8 95 73 153.5t168 58.5q104 0 167 -52t63 -138q0 -120 -125 -164v-2
q69 -16 110 -64.5t41 -116.5q0 -100 -72 -160.5t-187 -60.5z" />
    <glyph glyph-name="four.tf" 
d="M354 0v153h-315v84l170 493h104l-162 -486h203v281h99v-281h124v-91h-124v-153h-99z" />
    <glyph glyph-name="five.tf" 
d="M291 -14q-110 0 -173 54.5t-76 149.5l111 8q11 -53 49 -87.5t91 -34.5q66 0 103.5 43t37.5 118q0 72 -37.5 114.5t-103.5 42.5q-95 0 -127 -78l-105 9q5 68 17.5 202.5t17.5 202.5h410v-95h-321l-12 -125l-8 -83q60 60 151 60q106 0 169.5 -69t63.5 -178q0 -114 -71 -184
t-187 -70z" />
    <glyph glyph-name="six.tf" 
d="M305 -14q-133 0 -201 94t-68 263q0 185 71.5 293t209.5 108q95 0 154.5 -53t75.5 -142l-113 -5q-10 49 -40 78t-79 29q-84 0 -126.5 -78t-45.5 -191l2 -2q59 97 182 97q104 0 167.5 -68t63.5 -175q0 -108 -69.5 -178t-183.5 -70zM305 75q62 0 100 44t38 113
q0 70 -37.5 111t-102.5 41q-66 0 -104.5 -41.5t-38.5 -110.5q0 -70 39.5 -113.5t105.5 -43.5z" />
    <glyph glyph-name="seven.tf" 
d="M267 0h-123q38 154 112 324.5t162 303.5v2q-17 0 -52 -0.5t-53 -0.5h-262v101h484v-92q-82 -120 -155.5 -300t-112.5 -338z" />
    <glyph glyph-name="eight.tf" 
d="M295 -14q-116 0 -188 58.5t-72 155.5q0 134 144 185v2q-120 55 -120 165q0 84 65 138t171 54q105 0 170 -54.5t65 -137.5q0 -112 -120 -164v-2q146 -55 146 -186q0 -97 -73 -155.5t-188 -58.5zM295 74q66 0 104.5 37t38.5 97q0 58 -38.5 94t-104.5 36t-105.5 -36
t-39.5 -94q0 -60 39.5 -97t105.5 -37zM295 429q58 0 91.5 30.5t33.5 81.5q0 49 -34 79.5t-91 30.5q-59 0 -92.5 -30t-33.5 -80q0 -51 33.5 -81.5t92.5 -30.5z" />
    <glyph glyph-name="nine.tf" 
d="M278 -14q-105 0 -163 52t-71 146l110 5q23 -114 125 -114q73 0 118.5 77.5t45.5 200.5l-1 1q-27 -43 -73.5 -68.5t-105.5 -25.5q-103 0 -165 66t-62 173q0 104 68.5 174.5t179.5 70.5q132 0 200 -94t68 -265q0 -187 -68.5 -293t-205.5 -106zM286 351q65 0 104 41.5
t39 108.5q0 66 -39.5 108t-102.5 42q-65 0 -103.5 -41t-38.5 -108q0 -68 38 -109.5t103 -41.5z" />
    <glyph glyph-name="uni2007.tf" 
 />
    <glyph glyph-name="zero.tosf" 
d="M295 -14q-255 0 -255 369q0 167 61.5 268t192.5 101q91 0 150 -50.5t83 -130.5t24 -188q0 -171 -61.5 -270t-194.5 -99zM296 79q137 0 137 274q0 83 -11 140t-42.5 95t-84.5 38q-76 0 -106.5 -72.5t-30.5 -202.5q0 -272 138 -272z" />
    <glyph glyph-name="one.tosf" 
d="M113 0v89h154v421h-173v78q97 4 138 30t51 92h94v-621h142v-89h-406z" />
    <glyph glyph-name="two.tosf" 
d="M51 0v89q61 59 204 182q93 81 125.5 129t32.5 111q0 54 -31 84.5t-87 30.5q-125 0 -130 -148l-111 4q0 110 65 176t176 66q109 0 172 -57t63 -156q0 -51 -19 -97.5t-59.5 -92t-77 -77.5t-99.5 -81l-83 -67v-2q21 1 67 1h273v-95h-481z" />
    <glyph glyph-name="three.tosf" 
d="M288 -14q-114 0 -179.5 59.5t-71.5 165.5l112 8q12 -141 140 -141q62 0 99 35t37 92q0 60 -42.5 90t-113.5 30h-30v91h10q156 0 156 109q0 48 -32 76t-85 28q-58 0 -89 -33.5t-34 -91.5l-109 9q6 97 68.5 154t166.5 57q102 0 164 -52t62 -136q0 -56 -32 -96.5t-87 -61.5
q67 -21 104.5 -66.5t37.5 -111.5q0 -97 -69.5 -155.5t-182.5 -58.5z" />
    <glyph glyph-name="four.tosf" 
d="M349 0v148h-306v83l163 479h106l-157 -468h194v270h100v-270h119v-94h-119v-148h-100z" />
    <glyph glyph-name="five.tosf" 
d="M291 -14q-103 0 -168 53.5t-76 147.5l111 7q7 -52 43 -83.5t92 -31.5q63 0 99.5 41t36.5 112q0 68 -36.5 109t-99.5 41q-89 0 -121 -75l-107 9q7 80 35 394h403v-96h-313q-9 -114 -19 -194q58 56 144 56q103 0 165.5 -67.5t62.5 -174.5q0 -111 -69 -179.5t-183 -68.5z
" />
    <glyph glyph-name="six.tosf" 
d="M304 -14q-130 0 -196 92t-66 256q0 180 70 285t204 105q98 0 155 -51.5t69 -141.5l-111 -6q-15 104 -115 104q-80 0 -120 -72.5t-43 -178.5h4q24 40 68.5 63t102.5 23q101 0 163 -66t62 -171q0 -106 -67.5 -173.5t-179.5 -67.5zM304 78q60 0 97 41.5t37 105.5
q0 66 -36.5 106.5t-98.5 40.5t-99.5 -40.5t-37.5 -106.5t37.5 -106.5t100.5 -40.5z" />
    <glyph glyph-name="seven.tosf" 
d="M270 0h-124q38 154 107.5 314t157.5 296v2q-15 0 -48 -0.5t-51 -0.5h-256v99h474v-91q-88 -130 -156.5 -296.5t-103.5 -322.5z" />
    <glyph glyph-name="eight.tosf" 
d="M295 -14q-113 0 -184 57.5t-71 151.5q0 130 139 181q-115 53 -115 160q0 81 63.5 134.5t167.5 53.5q103 0 166.5 -53.5t63.5 -134.5q0 -109 -115 -159q139 -53 139 -182q0 -94 -71 -151.5t-183 -57.5zM295 77q62 0 100 35.5t38 90.5t-37.5 89.5t-100.5 34.5t-101 -34.5
t-38 -89.5t38.5 -90.5t100.5 -35.5zM295 419q55 0 87.5 29t32.5 77q0 47 -32.5 76t-87.5 29q-56 0 -88.5 -28.5t-32.5 -76.5t32.5 -77t88.5 -29z" />
    <glyph glyph-name="nine.tosf" 
d="M277 -14q-99 0 -158 51t-70 144l111 5q18 -109 118 -109q70 0 115 73t45 187h-4q-56 -86 -169 -86q-102 0 -163.5 64.5t-61.5 169.5q0 103 67 171t176 68q130 0 196 -91.5t66 -258.5q0 -183 -67 -285.5t-201 -102.5zM285 343q62 0 100 39.5t38 102.5q0 64 -37.5 105
t-99.5 41q-60 0 -97.5 -40.5t-37.5 -104.5q0 -63 37 -103t97 -40z" />
    <glyph glyph-name="uni2007.tosf" 
 />
    <glyph glyph-name="parenleft.case" horiz-adv-x="317" 
d="M287 -77l-83 -7q-158 215 -158 450t157 448l83 -7q-130 -205 -130 -441q0 -237 131 -443z" />
    <glyph glyph-name="parenright.case" horiz-adv-x="318" 
d="M113 -82l-83 6q131 209 131 442q0 237 -130 442l83 6q157 -213 157 -448q0 -236 -158 -448z" />
    <glyph glyph-name="hyphen.case" horiz-adv-x="413" 
d="M67 316v99h279v-99h-279z" />
    <glyph glyph-name="at.case" horiz-adv-x="840" 
d="M444 -19q-177 0 -288 105.5t-111 273.5q0 165 113 276t281 111q153 0 255.5 -91.5t102.5 -230.5q0 -116 -63 -195.5t-146 -79.5q-69 0 -78 63q-51 -65 -130 -65q-69 0 -111.5 48.5t-42.5 127.5q0 96 56.5 167t141.5 71q95 0 122 -76h1q2 5 4.5 20.5t3.5 20.5l4 23h72
l-47 -228q-10 -54 -10 -71q0 -38 33 -38q49 0 87 61.5t38 142.5q0 119 -81.5 193t-210.5 74q-140 0 -233 -93t-93 -232q0 -142 93.5 -230.5t239.5 -88.5q128 0 237 74l38 -42q-116 -91 -278 -91zM397 217q57 0 92.5 52t35.5 121q0 46 -23.5 73.5t-67.5 27.5q-58 0 -94 -49.5
t-36 -116.5q0 -49 24.5 -78.5t68.5 -29.5z" />
    <glyph glyph-name="bracketleft.case" horiz-adv-x="334" 
d="M91 -82v894h216v-69h-118q1 -25 1 -72v-612q0 -47 -1 -71q19 1 53 1h65v-71h-216z" />
    <glyph glyph-name="bracketright.case" horiz-adv-x="339" 
d="M27 -82v71h67q34 0 53 -1q-1 24 -1 70v615q0 46 1 70h-120v69h221v-894h-221z" />
    <glyph glyph-name="grave.case" horiz-adv-x="371" 
d="M197 803l-120 129h135l84 -129h-99z" />
    <glyph glyph-name="braceleft.case" horiz-adv-x="324" 
d="M281 -83h-49q-79 0 -105 35.5t-26 114.5v133q0 66 -13.5 96t-53.5 36v63q41 8 54 39t13 104v130q0 77 26 111t105 34h49v-69h-11q-42 0 -55 -21.5t-13 -70.5v-132q0 -77 -16.5 -106.5t-58.5 -49.5q41 -17 58 -49.5t17 -106.5v-131q0 -49 13 -69.5t54 -20.5h12v-70z" />
    <glyph glyph-name="bar.case" horiz-adv-x="275" 
d="M91 -80v887h93v-887h-93z" />
    <glyph glyph-name="braceright.case" horiz-adv-x="324" 
d="M43 -83v70h11q42 0 54.5 20.5t12.5 69.5v131q0 73 18 106t57 50q-41 20 -58 50t-17 106v132q0 50 -13 71t-55 21h-10v69h49q80 0 105 -33.5t25 -111.5v-130q0 -72 13.5 -104t54.5 -39v-63q-44 -8 -56 -43t-12 -125v-97q0 -79 -25.5 -114.5t-104.5 -35.5h-49z" />
    <glyph glyph-name="exclamdown.case" horiz-adv-x="292" 
d="M89 0v301q3 69 14 235h87l13 -235v-301h-114zM87 601v129h118v-129h-118z" />
    <glyph glyph-name="brokenbar.case" horiz-adv-x="275" 
d="M91 463v345h93v-345h-93zM91 -79v345h93v-345h-93z" />
    <glyph glyph-name="dieresis.case" horiz-adv-x="372" 
d="M230 812v111h102v-111h-102zM37 812v111h100v-111h-100z" />
    <glyph glyph-name="guillemotleft.case" horiz-adv-x="484" 
d="M337 169l-107 196l107 197h102l-100 -197l100 -196h-102zM139 169l-107 196l107 197h102l-100 -197l100 -196h-102z" />
    <glyph glyph-name="uni00AD.case" horiz-adv-x="413" 
d="M67 316v99h279v-99h-279z" />
    <glyph glyph-name="macron.case" horiz-adv-x="308" 
d="M20 836v77h268v-77h-268z" />
    <glyph glyph-name="acute.case" horiz-adv-x="369" 
d="M75 803l84 129h135l-120 -129h-99z" />
    <glyph glyph-name="periodcentered.case" horiz-adv-x="253" 
d="M67 306v126h119v-126h-119z" />
    <glyph glyph-name="guillemotright.case" horiz-adv-x="484" 
d="M244 169l100 196l-100 197h102l107 -197l-107 -196h-102zM46 169l100 196l-100 197h102l107 -197l-107 -196h-102z" />
    <glyph glyph-name="questiondown.case" horiz-adv-x="529" 
d="M258 -15q-101 0 -163 55t-62 143q0 56 26 99t77 84l25 20q38 34 50.5 63.5t12.5 86.5h104q0 -72 -14.5 -116.5t-55.5 -82.5l-51 -47q-22 -20 -31.5 -30t-19 -31t-9.5 -47q0 -44 31 -72.5t84 -28.5q62 0 94.5 39t33.5 109l110 -5q0 -111 -62.5 -175t-179.5 -64zM216 601
v129h118v-129h-118z" />
    <glyph glyph-name="circumflex.case" horiz-adv-x="415" 
d="M41 803l101 129h132l101 -129h-96l-71 73l-71 -73h-96z" />
    <glyph glyph-name="caron.case" horiz-adv-x="415" 
d="M142 803l-101 129h96l71 -74l71 74h96l-101 -129h-132z" />
    <glyph glyph-name="breve.case" horiz-adv-x="370" 
d="M185 802q-62 0 -103.5 30.5t-56.5 87.5l67 18q26 -62 93 -62q66 0 92 62l68 -18q-33 -118 -160 -118z" />
    <glyph glyph-name="dotaccent.case" horiz-adv-x="255" 
d="M76 812v111h104v-111h-104z" />
    <glyph glyph-name="ring.case" horiz-adv-x="299" 
d="M150 779q-44 0 -74 30.5t-30 73.5q0 42 31 73t73 31q43 0 73.5 -30.5t30.5 -73.5t-30.5 -73.5t-73.5 -30.5zM150 833q20 0 35 14.5t15 35.5t-14.5 35t-35.5 14t-35.5 -14t-14.5 -35t14.5 -35.5t35.5 -14.5z" />
    <glyph glyph-name="tilde.case" horiz-adv-x="368" 
d="M75 810q-10 1 -30.5 5.5t-30.5 5.5q20 106 101 106q31 0 58 -12l27 -12q36 -16 49 -16q28 0 42 43q4 -1 62 -12q-22 -106 -101 -106q-32 0 -59 13l-26 12q-36 16 -49 16q-30 0 -43 -43z" />
    <glyph glyph-name="hungarumlaut.case" horiz-adv-x="484" 
d="M227 803l86 129h126l-122 -129h-90zM43 803l84 129h126l-120 -129h-90z" />
    <glyph glyph-name="endash.case" horiz-adv-x="591" 
d="M66 319v93h459v-93h-459z" />
    <glyph glyph-name="emdash.case" horiz-adv-x="936" 
d="M66 319v92h804v-92h-804z" />
    <glyph glyph-name="uni2015.case" horiz-adv-x="936" 
d="M66 319v92h804v-92h-804z" />
    <glyph glyph-name="guilsinglleft.case" horiz-adv-x="285" 
d="M139 169l-107 196l107 197h102l-100 -197l100 -196h-102z" />
    <glyph glyph-name="guilsinglright.case" horiz-adv-x="285" 
d="M46 169l100 196l-100 197h102l107 -197l-107 -196h-102z" />
    <glyph glyph-name="zero.zero" horiz-adv-x="627" 
d="M312 -14q-69 0 -120 28t-81 79.5t-44.5 118.5t-14.5 151q0 111 24.5 193.5t84.5 135t151 52.5q70 0 122 -29.5t82 -82.5t44.5 -120t14.5 -149q0 -173 -64 -275t-199 -102zM313 76q142 0 142 285q0 129 -27 198l-169 -471q24 -12 54 -12zM170 358q0 -115 21 -178l164 459
q-23 7 -43 7q-42 0 -70.5 -21t-44 -62t-21.5 -90t-6 -115z" />
    <glyph glyph-name="zero.osf.zero" horiz-adv-x="614" 
d="M306 -14q-255 0 -255 369q0 167 61.5 268t192.5 101q91 0 150 -50.5t83 -130.5t24 -188q0 -171 -61.5 -270t-194.5 -99zM307 79q137 0 137 274q0 124 -24 185l-161 -449q19 -10 48 -10zM169 351q0 -106 21 -172l157 440q-21 7 -41 7q-76 0 -106.5 -72.5t-30.5 -202.5z
" />
    <glyph glyph-name="zero.tf.zero" 
d="M294 -14q-69 0 -120 28t-81 79.5t-44.5 118.5t-14.5 151q0 111 24.5 193.5t84.5 135t151 52.5q70 0 122 -29.5t82 -82.5t44.5 -120t14.5 -149q0 -173 -64 -275t-199 -102zM295 76q142 0 142 285q0 129 -27 198l-169 -471q24 -12 54 -12zM152 358q0 -115 21 -178l164 459
q-23 7 -43 7q-42 0 -70.5 -21t-44 -62t-21.5 -90t-6 -115z" />
    <glyph glyph-name="zero.tosf.zero" 
d="M295 -14q-255 0 -255 369q0 167 61.5 268t192.5 101q91 0 150 -50.5t83 -130.5t24 -188q0 -171 -61.5 -270t-194.5 -99zM296 79q137 0 137 274q0 124 -24 185l-161 -449q19 -10 48 -10zM158 351q0 -106 21 -172l157 440q-21 7 -41 7q-76 0 -106.5 -72.5t-30.5 -202.5z
" />
    <glyph glyph-name="plus.ss06" 
d="M245 32v204h-199v93h199v204h95v-204h201v-93h-201v-204h-95z" />
    <glyph glyph-name="equal.ss06" 
d="M52 329v91h484v-91h-484zM52 140v91h484v-91h-484z" />
    <glyph glyph-name="logicalnot.ss06" 
d="M439 102v178q0 38 1 57h-402v91h498v-326h-97z" />
    <glyph glyph-name="plusminus.ss06" 
d="M244 170v140h-171v99h171v138h99v-138h172v-99h-172v-140h-99zM73 -4v98h442v-98h-442z" />
    <glyph glyph-name="multiply.ss06" 
d="M127 46l-67 67l168 168l-168 168l67 67l168 -168l167 167l67 -67l-167 -167l167 -167l-67 -67l-167 167z" />
    <glyph glyph-name="divide.ss06" 
d="M52 236v93h484v-93h-484zM294 31q-27 0 -45.5 18.5t-18.5 45.5q0 26 18.5 45t45.5 19q26 0 45 -19t19 -45q0 -27 -19 -45.5t-45 -18.5zM294 406q-27 0 -45.5 18.5t-18.5 45.5q0 26 18.5 45t45.5 19q26 0 45 -19t19 -45q0 -27 -19 -45.5t-45 -18.5z" />
    <glyph glyph-name="minus.ss06" 
d="M52 236v93h484v-93h-484z" />
    <glyph glyph-name="infinity.ss06" horiz-adv-x="833" 
d="M215 106q-82 0 -125 51t-43 121q0 79 46.5 127.5t125.5 48.5q32 0 66.5 -15.5t53.5 -29.5t64 -51q3 -3 5 -4t5 -3.5t5 -4.5q4 4 13 11q41 35 62.5 51t55 31t65.5 15q79 0 125.5 -48.5t46.5 -127.5q0 -70 -43 -121t-125 -51q-38 0 -77 18.5t-63 38t-62 55.5
q-39 -38 -62.5 -57.5t-61.5 -37t-77 -17.5zM221 204q25 0 51 12.5t41.5 24.5t44.5 38q-3 3 -14.5 12.5t-15.5 12.5t-15 11.5t-16 12t-14.5 9.5t-16 9t-15.5 6t-16.5 4.5t-15.5 1.5q-33 0 -53.5 -22t-20.5 -55q0 -36 20 -56.5t56 -20.5zM611 204q36 0 56.5 21t20.5 56
q0 33 -20.5 55t-54.5 22q-50 0 -139 -79q5 -4 16.5 -13.5t16.5 -14t16 -12.5t17 -11.5t16 -9t18 -8t17.5 -4.5t19.5 -2z" />
    <glyph glyph-name="approxequal.ss06" 
d="M401 321q-12 0 -23.5 1.5t-23.5 6t-19 7.5t-21.5 10t-19.5 9l-34 16q-50 22 -73 22q-27 0 -45.5 -15.5t-39.5 -48.5l-58 48q60 107 142 107q12 0 23.5 -1.5t23.5 -6t19 -7.5t21.5 -10t19.5 -9l34 -15q52 -23 73 -23q27 0 46.5 15.5t40.5 48.5l58 -48q-60 -107 -144 -107z
M401 86q-12 0 -23.5 1.5t-23.5 6t-19 7.5t-21.5 10t-19.5 9l-34 16q-50 22 -73 22q-27 0 -45.5 -15.5t-39.5 -48.5l-58 48q60 107 142 107q12 0 23.5 -1.5t23.5 -6t19 -7.5t21.5 -10t19.5 -9l34 -15q52 -23 73 -23q27 0 46.5 15.5t40.5 48.5l58 -48q-60 -107 -144 -107z" />
    <glyph glyph-name="notequal.ss06" 
d="M79 4l81 137h-108v88h160q4 7 61 102h-221v88h273l79 134h103l-80 -134h109v-88h-161l-61 -102h222v-88h-274l-81 -137h-102z" />
    <glyph glyph-name="x.ss20" 
d="M126 120l-67 67l168 168l-168 168l67 67l168 -168l167 167l67 -67l-167 -167l167 -167l-67 -67l-167 167z" />
    <glyph glyph-name="hyphen_greater" horiz-adv-x="821" 
d="M346 2l149 151q58 60 124 124v1q-83 -1 -189 -1h-392v98h390q107 0 190 -1v1q-66 64 -124 124l-148 151h143l153 -162q84 -90 156 -162q-72 -72 -156 -162l-153 -162h-143z" />
    <glyph glyph-name="less_hyphen" horiz-adv-x="821" 
d="M332 2l-153 162q-84 90 -156 162q72 72 156 162l153 162h143l-148 -151q-22 -22 -49 -49.5t-44 -44t-31 -30.5v-1q83 1 190 1h390v-98h-392q-106 0 -189 1v-1q14 -14 31 -30.5t44 -44t49 -49.5l149 -151h-143z" />
    </font>
</defs>
</svg>
