<?xml version="1.0" standalone="no"?>
<!DOCTYPE svg PUBLIC "-//W3C//DTD SVG 1.1//EN" "http://www.w3.org/Graphics/SVG/1.1/DTD/svg11.dtd" >
<svg xmlns="http://www.w3.org/2000/svg" xmlns:xlink="http://www.w3.org/1999/xlink" version="1.1">
<metadata>
Created by FontForge 20170731 at Sun Jun  9 05:22:05 2019
 By Aleksey,,,
(c) 2019, Copyright by Optimo SARL. All rights reserved. |DCNT
</metadata>
<defs>
<font id="Rand-ThinItalic" horiz-adv-x="588" >
  <font-face 
    font-family="Rand Thin"
    font-weight="250"
    font-style="italic"
    font-stretch="normal"
    units-per-em="1000"
    panose-1="2 11 3 4 2 1 1 1 1 2"
    ascent="730"
    descent="-270"
    x-height="526"
    cap-height="730"
    bbox="-297 -217 1241 1128"
    underline-thickness="50"
    underline-position="-200"
    slope="-11"
    unicode-range="U+000D-FEFF"
  />
<missing-glyph horiz-adv-x="595" 
d="M44 0v730h507v-730h-507zM85 41h425v648h-425v-648z" />
    <glyph glyph-name="f_f" unicode="ff" horiz-adv-x="551" 
d="M64 0l85 483h-91l8 43h91l16 88q12 66 44.5 91.5t95.5 25.5q8 0 44 -3l-8 -43q-10 2 -35 2q-44 0 -64.5 -16t-28.5 -61l-14 -84h211l16 88q12 66 44.5 91.5t95.5 25.5q8 0 44 -3l-8 -43q-10 2 -35 2q-44 0 -64.5 -16t-28.5 -61l-14 -84h114l-8 -43h-114l-85 -483h-50
l85 483h-211l-85 -483h-50z" />
    <glyph glyph-name="f_f_i" unicode="ffi" horiz-adv-x="771" 
d="M64 0l85 483h-91l8 43h91l16 88q12 66 44.5 91.5t95.5 25.5q8 0 44 -3l-8 -43q-10 2 -35 2q-44 0 -64.5 -16t-28.5 -61l-14 -84h211l16 88q12 66 44.5 91.5t95.5 25.5q8 0 44 -3l-8 -43q-10 2 -35 2q-44 0 -64.5 -16t-28.5 -61l-14 -84h259l-93 -526h-50l85 483h-209
l-85 -483h-50l85 483h-211l-85 -483h-50zM670 607l22 123h50l-22 -123h-50z" />
    <glyph glyph-name="f_f_l" unicode="ffl" horiz-adv-x="773" 
d="M64 0l85 483h-91l8 43h91l16 88q12 66 44.5 91.5t95.5 25.5q8 0 44 -3l-8 -43q-10 2 -35 2q-44 0 -64.5 -16t-28.5 -61l-14 -84h211l13 74q4 25 10 44t15.5 33t17.5 23.5t23.5 16t25.5 9.5t32 4.5t35.5 2t41.5 0.5q64 0 132 -4l-128 -729h-50l121 687q-47 3 -90 3
q-72 0 -100 -15t-37 -75l-12 -74h114l-8 -43h-114l-85 -483h-50l85 483h-211l-85 -483h-50z" />
    <glyph glyph-name="f_i" unicode="fi" horiz-adv-x="510" 
d="M64 0l85 483h-91l8 43h91l16 88q12 66 44.5 91.5t95.5 25.5q8 0 44 -3l-8 -43q-10 2 -35 2q-44 0 -64.5 -16t-28.5 -61l-14 -84h259l-93 -526h-50l85 483h-209l-85 -483h-50zM430 607l22 123h50l-22 -123h-50z" />
    <glyph glyph-name="f_l" unicode="fl" horiz-adv-x="512" 
d="M64 0l85 483h-90l8 43h90l13 74q4 25 10 44t15.5 33t17.5 23.5t23.5 16t25.5 9.5t32 4.5t35.5 2t41.5 0.5q64 0 132 -4l-128 -729h-50l121 687q-47 3 -90 3q-72 0 -100 -15t-37 -75l-12 -74h114l-8 -43h-114l-85 -483h-50z" />
    <glyph glyph-name=".notdef" horiz-adv-x="595" 
d="M44 0v730h507v-730h-507zM85 41h425v648h-425v-648z" />
    <glyph glyph-name=".null" horiz-adv-x="0" 
 />
    <glyph glyph-name="nonmarkingreturn" horiz-adv-x="333" 
 />
    <glyph glyph-name="NULL" horiz-adv-x="0" 
 />
    <glyph glyph-name="NULL" horiz-adv-x="0" 
 />
    <glyph glyph-name="CR" unicode="&#xd;" horiz-adv-x="270" 
 />
    <glyph glyph-name="space" unicode=" " horiz-adv-x="270" 
 />
    <glyph glyph-name="exclam" unicode="!" horiz-adv-x="256" 
d="M94 191l39 253l51 286h52l-51 -286l-49 -253h-42zM54 0l21 119h54l-21 -119h-54z" />
    <glyph glyph-name="quotedbl" unicode="&#x22;" horiz-adv-x="318" 
d="M109 443l44 287h48l-58 -287h-34zM234 443l44 287h48l-58 -287h-34z" />
    <glyph glyph-name="numbersign" unicode="#" 
d="M56 0l86 240h-119l11 36h121l63 175h-121l12 36h122l87 238h40l-87 -238h170l87 238h40l-87 -238h119l-12 -36h-119l-64 -175h120l-12 -36h-120l-87 -240h-40l86 240h-169l-87 -240h-40zM195 276h170l63 175h-169z" />
    <glyph glyph-name="dollar" unicode="$" 
d="M200 -107l21 113q-78 15 -125.5 61.5t-56.5 125.5l47 7q6 -62 43.5 -101t98.5 -52l55 315l-4 2q-90 46 -126 83t-36 108q0 77 59 126t157 49h14l18 95h42l-19 -99q156 -25 173 -174l-47 -7q-18 118 -133 139l-50 -289l20 -9q93 -42 131.5 -80t38.5 -111q0 -89 -65.5 -142
t-170.5 -53h-23l-20 -107h-42zM269 42h16q87 0 136.5 39.5t49.5 111.5q0 30 -11 53.5t-36 42t-44.5 29t-57.5 27.5zM292 414l48 274h-7q-76 0 -121.5 -33.5t-45.5 -97.5q0 -50 29 -79.5t97 -63.5z" />
    <glyph glyph-name="percent" unicode="%" horiz-adv-x="901" 
d="M202 256q-129 0 -129 143q0 59 8 96q8 41 17 72.5t24.5 65t35 55.5t49.5 36t67 14q131 0 131 -141q0 -60 -9 -101q-10 -52 -23 -90t-34.5 -74.5t-56 -56t-80.5 -19.5zM205 296q49 0 76 29q35 37 55.5 118t20.5 150q0 103 -87 103q-43 0 -75 -29q-36 -35 -56 -115
t-20 -150q0 -106 86 -106zM232 0l418 730h49l-418 -730h-49zM660 -8q-129 0 -129 143q0 59 8 96q8 41 17 72.5t24.5 65t35 55.5t49.5 36t67 14q131 0 131 -141q0 -60 -9 -101q-10 -52 -23 -90t-34.5 -74.5t-56 -56t-80.5 -19.5zM663 32q49 0 76 29q35 37 55.5 118t20.5 150
q0 103 -87 103q-43 0 -75 -29q-36 -35 -56 -115t-20 -150q0 -106 86 -106z" />
    <glyph glyph-name="ampersand" unicode="&#x26;" horiz-adv-x="661" 
d="M222 -14q-90 0 -139.5 48.5t-49.5 125.5q0 44 18 82t52.5 68.5t69.5 52.5t85 46q-69 93 -69 174q0 68 47.5 114.5t126.5 46.5q72 0 113.5 -35.5t41.5 -95.5q0 -74 -51.5 -123.5t-142.5 -92.5q36 -54 153 -220q57 72 114 196l46 -5q-62 -137 -133 -221q39 -59 108 -147
h-61l-79 109q-112 -123 -250 -123zM230 30q119 0 213 112q-9 12 -43 60t-65.5 93t-55.5 82q-38 -20 -55 -29t-49.5 -31.5t-47.5 -41.5t-28 -49.5t-13 -65.5q0 -61 38 -95.5t106 -34.5zM304 429q38 19 62.5 33.5t51.5 36.5t40 49.5t13 60.5q0 45 -29.5 70t-80.5 25
q-55 0 -89 -32.5t-34 -86.5q0 -30 12 -62t21.5 -46.5t32.5 -47.5z" />
    <glyph glyph-name="quotesingle" unicode="'" horiz-adv-x="193" 
d="M109 443l44 287h48l-58 -287h-34z" />
    <glyph glyph-name="parenleft" unicode="(" horiz-adv-x="266" 
d="M157 -147l-36 -5q-71 172 -71 325q0 156 55.5 293.5t163.5 277.5l40 -5q-210 -278 -210 -574q0 -157 58 -312z" />
    <glyph glyph-name="parenright" unicode=")" horiz-adv-x="265" 
d="M7 -152l-40 5q210 278 210 574q0 157 -58 312l36 5q71 -172 71 -327q0 -286 -219 -569z" />
    <glyph glyph-name="asterisk" unicode="*" horiz-adv-x="485" 
d="M350 348l-67 155l-122 -115l-31 35l126 108l-147 83l24 40l143 -87l33 164l43 -10l-37 -163l166 22l5 -48l-167 -14l72 -150z" />
    <glyph glyph-name="plus" unicode="+" 
d="M290 106v231h-227v40h227v230h40v-230h227v-40h-227v-231h-40z" />
    <glyph glyph-name="comma" unicode="," horiz-adv-x="205" 
d="M7 -146l6 31q19 11 28 34t19 78l1 3h-27l21 119h56l-21 -120q-13 -74 -25 -97q-18 -35 -58 -48z" />
    <glyph glyph-name="hyphen" unicode="-" horiz-adv-x="408" 
d="M75 272l7 43h260l-7 -43h-260z" />
    <glyph glyph-name="period" unicode="." horiz-adv-x="204" 
d="M33 0l21 119h56l-21 -119h-56z" />
    <glyph glyph-name="slash" unicode="/" horiz-adv-x="405" 
d="M-4 0l401 730h48l-400 -730h-49z" />
    <glyph glyph-name="zero" unicode="0" horiz-adv-x="610" 
d="M266 -14q-104 0 -152 54.5t-48 163.5q0 77 14 156q12 65 25.5 115.5t37.5 103t55 87t77 56.5t103 22q201 0 201 -227q0 -74 -14 -153q-11 -64 -25.5 -114.5t-39 -101.5t-55 -85t-76.5 -55.5t-103 -21.5zM269 29q73 0 127 49q64 59 99.5 190t35.5 249q0 183 -158 183
q-76 0 -128 -49q-64 -59 -97.5 -192.5t-33.5 -252.5q0 -177 155 -177z" />
    <glyph glyph-name="one" unicode="1" horiz-adv-x="443" 
d="M16 0l7 39h168l91 520h-184l5 31h20q97 0 140.5 31.5t66.5 108.5h30l-121 -691h156l-7 -39h-372z" />
    <glyph glyph-name="two" unicode="2" horiz-adv-x="558" 
d="M5 0l8 42q138 102 244 187q4 3 30.5 23.5t33.5 26.5t31.5 26.5t33 29.5t28.5 30t28 34.5t21.5 35t19 40t10 41.5t4.5 46q0 66 -41.5 102t-117.5 36q-160 0 -190 -178l-48 2q12 98 76.5 159t166.5 61q97 0 150.5 -48.5t53.5 -133.5q0 -55 -19 -104t-59 -95t-76.5 -78.5
t-95.5 -78.5q-119 -93 -219 -161h394l-8 -45h-459z" />
    <glyph glyph-name="three" unicode="3" horiz-adv-x="565" 
d="M255 -14q-103 0 -162 53.5t-62 152.5l47 4q4 -81 51 -123.5t127 -42.5q89 0 140.5 48.5t51.5 138.5q0 70 -51 110t-129 40h-25l6 43h14q89 0 151 41.5t62 127.5q0 57 -37 89t-102 32q-142 0 -173 -145l-46 5q12 82 70.5 133t148.5 51q89 0 138.5 -44t49.5 -115
q0 -73 -44 -125t-119 -67v-3q61 -18 98 -63t37 -110q0 -105 -65 -168t-177 -63z" />
    <glyph glyph-name="four" unicode="4" horiz-adv-x="539" 
d="M310 0l30 172h-312l6 39l258 519h50l-253 -514h258l52 298h48l-52 -298h118l-7 -44h-118l-30 -172h-48z" />
    <glyph glyph-name="five" unicode="5" horiz-adv-x="563" 
d="M259 -14q-99 0 -158 51.5t-66 147.5l48 4q6 -70 52.5 -114.5t125.5 -44.5q90 0 144.5 60.5t54.5 156.5q0 83 -45 131.5t-123 48.5q-100 0 -158 -80l-49 7l105 376h358l-9 -45h-319l-82 -288q58 72 167 72q88 0 146.5 -57t58.5 -158q0 -116 -69.5 -192t-181.5 -76z" />
    <glyph glyph-name="six" unicode="6" horiz-adv-x="591" 
d="M283 -14q-101 0 -159 58t-58 177q0 72 14 143q35 203 108 291.5t186 88.5q91 0 141.5 -49.5t56.5 -126.5l-47 -7q-6 65 -44.5 102.5t-109.5 37.5q-97 0 -156 -80.5t-89 -257.5l-3 -16h3q22 48 75.5 82t123.5 34q92 0 150 -56t58 -154q0 -114 -68 -190.5t-182 -76.5z
M286 29q91 0 144.5 63t53.5 159q0 80 -45 124.5t-124 44.5q-90 0 -146 -60t-56 -153q0 -89 46.5 -133.5t126.5 -44.5z" />
    <glyph glyph-name="seven" unicode="7" horiz-adv-x="476" 
d="M101 0h-57q162 373 430 685q-21 -1 -64 -1h-317l8 46h433l-7 -44q-124 -145 -238 -325.5t-188 -360.5z" />
    <glyph glyph-name="eight" unicode="8" horiz-adv-x="603" 
d="M275 -14q-103 0 -167 51t-64 142q0 83 48.5 138t137.5 79v3q-94 46 -94 149q0 84 59 140t164 56q93 0 148 -47t55 -123q0 -68 -42.5 -117.5t-107.5 -66.5v-2q124 -47 124 -172q0 -103 -71.5 -166.5t-189.5 -63.5zM277 28q97 0 153.5 50.5t56.5 142.5q0 68 -50 107.5
t-132 39.5q-89 0 -150 -50t-61 -134q0 -75 50 -115.5t133 -40.5zM336 409q75 0 124.5 44.5t49.5 116.5q0 60 -41.5 96t-111.5 36q-77 0 -124.5 -39t-47.5 -110q0 -67 39.5 -105.5t111.5 -38.5z" />
    <glyph glyph-name="nine" unicode="9" horiz-adv-x="592" 
d="M253 -14q-91 0 -143 51t-58 126l47 8q6 -65 45.5 -103.5t111.5 -38.5q97 0 155.5 79.5t89.5 255.5l3 18h-3q-21 -47 -74 -77.5t-125 -30.5q-94 0 -151 53.5t-57 154.5q0 109 68.5 185.5t181.5 76.5q100 0 158.5 -58t58.5 -177q0 -58 -14 -145q-35 -203 -108 -290.5
t-186 -87.5zM312 315q90 0 146 58.5t56 151.5q0 88 -46.5 132t-126.5 44q-91 0 -144.5 -61t-53.5 -156q0 -83 44.5 -126t124.5 -43z" />
    <glyph glyph-name="colon" unicode=":" horiz-adv-x="203" 
d="M98 407l21 119h56l-21 -119h-56zM26 0l21 119h56l-21 -119h-56z" />
    <glyph glyph-name="semicolon" unicode=";" horiz-adv-x="204" 
d="M0 -146l6 31q19 11 28 34t19 78l1 3h-27l21 119h56l-21 -120q-13 -74 -25 -97q-18 -35 -58 -48zM99 407l21 119h56l-21 -119h-56z" />
    <glyph glyph-name="less" unicode="&#x3c;" 
d="M482 98l-396 205v42l396 206v-43q-62 -30 -196 -100t-162 -84q16 -8 155 -80.5t203 -102.5v-43z" />
    <glyph glyph-name="equal" unicode="=" 
d="M65 431v40h485v-40h-485zM65 239v40h485v-40h-485z" />
    <glyph glyph-name="greater" unicode="&#x3e;" 
d="M124 98v43q64 30 203 102.5t155 80.5q-28 14 -162 84t-196 100v43l396 -206v-42z" />
    <glyph glyph-name="question" unicode="?" horiz-adv-x="494" 
d="M251 191h-49q12 71 35.5 109.5t78.5 82.5l22 18q32 26 45 38t35.5 37.5t31.5 51t9 55.5q0 55 -37.5 86t-109.5 31q-80 0 -127 -46.5t-56 -129.5l-48 4q8 96 72 156t162 60q92 0 143 -42.5t51 -113.5q0 -44 -19 -82.5t-42 -62.5t-65 -60l-18 -15q-59 -48 -81 -80t-33 -97z
M165 0l21 119h54l-21 -119h-54z" />
    <glyph glyph-name="at" unicode="@" horiz-adv-x="840" 
d="M445 -45q-169 0 -273.5 102t-104.5 266q0 165 114.5 281t285.5 116q151 0 246 -84.5t95 -216.5q0 -66 -24.5 -132t-76.5 -114t-118 -48q-36 0 -49 17t-12 50h-1q-20 -27 -56 -47.5t-79 -20.5q-68 0 -107 41t-39 120q0 99 57 177t155 78q46 0 79 -24t44 -66h2l20 74h45
q-10 -42 -34.5 -135.5t-34.5 -140.5q-8 -40 -8 -49q0 -35 32 -35q66 0 115 80.5t49 171.5q0 119 -84.5 192.5t-215.5 73.5q-145 0 -251 -100t-106 -257q0 -144 94.5 -238t244.5 -94q160 0 265 112l27 -24q-52 -60 -129 -93t-167 -33zM400 164q71 0 115.5 66.5t44.5 145.5
q0 123 -104 123q-76 0 -118.5 -65.5t-42.5 -152.5q0 -52 27.5 -84.5t77.5 -32.5z" />
    <glyph glyph-name="A" unicode="A" horiz-adv-x="663" 
d="M-39 0l429 730h51l163 -730h-53l-49 232h-353l-135 -232h-53zM176 278h315l-40 191q-8 35 -21.5 103t-21.5 103h-3q-85 -150 -120 -210z" />
    <glyph glyph-name="B" unicode="B" horiz-adv-x="647" 
d="M55 0l129 730h182q75 0 120 -10q120 -28 120 -145q0 -79 -45.5 -129.5t-112.5 -63.5v-1q55 -11 92.5 -48t37.5 -104q0 -149 -126 -202q-66 -27 -184 -27h-213zM115 45h192q90 0 140 29q81 49 81 154q0 132 -191 132h-167zM178 403h162q215 0 215 165q0 67 -47.5 92
t-149.5 25h-130z" />
    <glyph glyph-name="C" unicode="C" horiz-adv-x="741" 
d="M389 -14q-140 0 -228.5 88t-88.5 248q0 114 42 208.5t127 154t198 59.5t189.5 -51.5t109.5 -146.5l-47 -12q-28 79 -92.5 122t-159.5 43q-77 0 -139 -32t-100 -85.5t-58 -120t-20 -139.5q0 -139 70.5 -215t196.5 -76q182 0 268 157l44 -14q-97 -188 -312 -188z" />
    <glyph glyph-name="D" unicode="D" horiz-adv-x="752" 
d="M55 0l129 730h141q71 0 126.5 -7.5t106.5 -28t84.5 -54t53 -87t19.5 -125.5q0 -173 -91 -287q-68 -88 -163 -114.5t-246 -26.5h-160zM115 46h156q212 0 313 122q78 95 78 259q0 131 -74 194t-226 63h-134z" />
    <glyph glyph-name="E" unicode="E" horiz-adv-x="606" 
d="M55 0l129 730h444l-8 -46h-392l-49 -279h368l-9 -46h-368l-55 -313h404l-8 -46h-456z" />
    <glyph glyph-name="F" unicode="F" horiz-adv-x="570" 
d="M55 -1l129 731h432l-8 -46h-380l-49 -279h356l-8 -46h-356l-64 -360h-52z" />
    <glyph glyph-name="G" unicode="G" horiz-adv-x="782" 
d="M381 -14q-132 0 -220.5 87.5t-88.5 254.5q0 82 25 157t71 133t117 92t156 34q113 0 190 -52t110 -147l-46 -12q-28 79 -92.5 122.5t-161.5 43.5q-77 0 -139 -31t-100.5 -83.5t-59 -118.5t-20.5 -138q0 -142 70 -219.5t190 -77.5q56 0 103 17t79.5 45t57.5 66t39.5 76
t23.5 80h-292l8 42h335l-60 -356h-47l13 73q10 52 17 76h-3q-43 -77 -113.5 -120.5t-161.5 -43.5z" />
    <glyph glyph-name="H" unicode="H" horiz-adv-x="738" 
d="M55 0l129 730h52l-57 -324h426l57 324h53l-129 -730h-53l64 360h-426l-64 -360h-52z" />
    <glyph glyph-name="I" unicode="I" horiz-adv-x="259" 
d="M55 0l129 730h52l-129 -730h-52z" />
    <glyph glyph-name="J" unicode="J" horiz-adv-x="474" 
d="M164 -14q-81 0 -122.5 42.5t-41.5 116.5q0 10 1 18l50 4v-14q0 -124 116 -124q70 0 100 45t50 151l89 505h52l-92 -524q-10 -54 -22.5 -90.5t-35 -68t-58 -46.5t-86.5 -15z" />
    <glyph glyph-name="K" unicode="K" horiz-adv-x="608" 
d="M55 0l129 730h52l-40 -226q-3 -14 -12.5 -68t-14.5 -74q7 7 24.5 21.5t46.5 38.5t49 41l318 267h70l-392 -327l273 -403h-61l-252 370l-85 -69l-53 -301h-52z" />
    <glyph glyph-name="L" unicode="L" horiz-adv-x="528" 
d="M55 0l129 730h52l-121 -684h362l-8 -46h-414z" />
    <glyph glyph-name="M" unicode="M" horiz-adv-x="871" 
d="M55 0l129 730h79l94 -438q9 -41 23.5 -120t18.5 -100h2q111 204 122 223l247 435h78l-129 -730h-51l65 369q57 305 58 311h-3q-33 -63 -114 -207l-271 -473h-37l-102 482q-8 38 -21.5 106t-17.5 89h-3q-7 -43 -24 -148t-23 -140l-69 -389h-51z" />
    <glyph glyph-name="N" unicode="N" horiz-adv-x="765" 
d="M55 0l129 730h72l199 -420q8 -17 116 -251h2q9 58 28 166t23 129l66 376h52l-129 -730h-68l-199 421q-102 217 -120 258h-2q-5 -29 -26 -157.5t-30 -175.5l-61 -346h-52z" />
    <glyph glyph-name="O" unicode="O" horiz-adv-x="803" 
d="M390 -14q-142 0 -230 87t-88 250q0 113 42 207.5t127.5 154t198.5 59.5q149 0 237 -88t88 -237q0 -186 -101 -309.5t-274 -123.5zM390 31q107 0 182.5 56.5t109 142t33.5 189.5q0 130 -73.5 205t-201.5 75q-105 0 -179 -55.5t-107 -138.5t-33 -182q0 -140 71 -216
t198 -76z" />
    <glyph glyph-name="P" unicode="P" horiz-adv-x="583" 
d="M55 0l128 730h153q129 0 194 -41.5t65 -132.5q0 -126 -94 -185q-44 -27 -90.5 -35t-114.5 -8h-132l-59 -328h-50zM172 373h132q113 0 175.5 38.5t62.5 141.5q0 75 -51.5 103.5t-146.5 28.5h-117z" />
    <glyph glyph-name="Q" unicode="Q" horiz-adv-x="803" 
d="M636 -79l-79 104q-80 -39 -167 -39q-142 0 -230 87t-88 250q0 113 42 207.5t127.5 154t198.5 59.5q149 0 237 -88t88 -237q0 -119 -43.5 -216.5t-123.5 -153.5l75 -99zM390 31q84 0 141 28l-100 133l40 28l101 -136q71 50 107 139.5t36 195.5q0 130 -73.5 205t-201.5 75
q-105 0 -179 -55.5t-107 -138.5t-33 -182q0 -140 71 -216t198 -76z" />
    <glyph glyph-name="R" unicode="R" horiz-adv-x="659" 
d="M55 0l129 730h216q109 0 166 -33q71 -41 71 -133q0 -87 -48 -140.5t-137 -67.5v-2q53 -14 75 -50t22 -102q0 -4 -0.5 -13t-0.5 -14l-3 -65q0 -15 -1.5 -38t-1.5 -31q0 -27 9 -38l-1 -3h-58q-4 7 -4 25q0 2 2 52l4 65q2 32 2 44q0 79 -32 114t-115 35h-183l-59 -335h-52z
M174 381h174q121 0 176 43q62 46 62 135q0 69 -49 97t-146 28h-163z" />
    <glyph glyph-name="S" unicode="S" horiz-adv-x="599" 
d="M290 -14q-108 0 -177.5 51t-81.5 150l49 7q8 -78 65 -121t145 -43q91 0 143 41.5t52 115.5q0 25 -9.5 47t-21 35.5t-37.5 29.5t-41 23t-50 23l-43 19q-92 42 -131.5 83t-39.5 115q0 80 62 131t166 51t166.5 -47.5t72.5 -137.5l-49 -7q-23 148 -190 148q-80 0 -128 -34.5
t-48 -101.5q0 -55 33.5 -87t110.5 -67l51 -24q98 -45 138.5 -84t40.5 -113q0 -92 -69 -147.5t-179 -55.5z" />
    <glyph glyph-name="T" unicode="T" horiz-adv-x="558" 
d="M203 0l121 684h-239l8 46h531l-8 -46h-239l-121 -684h-53z" />
    <glyph glyph-name="U" unicode="U" horiz-adv-x="708" 
d="M316 -14q-111 0 -170 52t-59 149q0 48 8 86l81 457h52l-79 -447q-9 -56 -9 -85q0 -167 185 -167q58 0 99.5 17t68.5 52t43 79t28 108l78 443h52l-82 -463q-25 -142 -93 -211.5t-203 -69.5z" />
    <glyph glyph-name="V" unicode="V" horiz-adv-x="632" 
d="M236 0l-142 730h53l87 -457q40 -208 41 -215h3q26 53 118 218l246 454h56l-402 -730h-60z" />
    <glyph glyph-name="W" unicode="W" horiz-adv-x="931" 
d="M169 -1l-65 730h54l35 -430l20 -252h3q74 178 108 256l186 426h71l39 -427q6 -66 18 -251h3q14 33 50.5 121t58.5 137l185 420h53l-323 -730h-68l-36 406q-19 224 -22 277h-3q-59 -144 -116 -274l-179 -409h-72z" />
    <glyph glyph-name="X" unicode="X" horiz-adv-x="616" 
d="M-38 0l334 376l-189 354h58l167 -320l279 320h61l-315 -356l202 -374h-59l-179 338l-296 -338h-63z" />
    <glyph glyph-name="Y" unicode="Y" horiz-adv-x="604" 
d="M227 0l53 297l-187 433h58l79 -189q13 -33 43 -101.5t41 -93.5h2q32 43 154 197l146 187h59l-343 -433l-53 -297h-52z" />
    <glyph glyph-name="Z" unicode="Z" horiz-adv-x="585" 
d="M-16 0l7 41q20 21 67.5 75t59.5 68l305 350q126 142 133 150h-444l8 46h510l-8 -42l-125 -142l-313 -357q-7 -8 -128 -143h457l-8 -46h-521z" />
    <glyph glyph-name="bracketleft" unicode="[" horiz-adv-x="288" 
d="M29 -147l157 894h162l-7 -39h-117q-2 -17 -14 -85l-113 -646l-16 -85h117l-7 -39h-162z" />
    <glyph glyph-name="backslash" unicode="\" horiz-adv-x="386" 
d="M257 0l-143 730h47l144 -730h-48z" />
    <glyph glyph-name="bracketright" unicode="]" horiz-adv-x="289" 
d="M-47 -147l7 39h116q2 17 14 85l113 646l16 85h-117l7 39h162l-157 -894h-161z" />
    <glyph glyph-name="asciicircum" unicode="^" 
d="M94 350l198 383h41l199 -383h-47q-17 34 -84.5 165.5t-87.5 174.5q-57 -109 -172 -340h-47z" />
    <glyph glyph-name="underscore" unicode="_" horiz-adv-x="556" 
d="M-35 -129l7 41h491l-7 -41h-491z" />
    <glyph glyph-name="grave" unicode="`" horiz-adv-x="334" 
d="M212 601l-125 129h67l100 -129h-42z" />
    <glyph glyph-name="a" unicode="a" horiz-adv-x="555" 
d="M210 -12q-82 0 -131 36t-49 105q0 41 14.5 69.5t46 46.5t65 28.5t87.5 20.5l150 27q22 5 29.5 8t14 16t6.5 39q0 49 -36 80t-102 31q-70 0 -108 -29t-60 -92l-50 6q16 73 74 116t144 43q89 0 138 -41.5t49 -113.5q0 -22 -10 -85l-44 -249q-7 -34 -8 -50h-49l6 29l11 50
h-2q-30 -43 -78.5 -67t-107.5 -24zM210 31q80 0 138 44.5t70 123.5l8 53q3 23 8 34q-8 -2 -53 -10l-124 -23q-33 -6 -51.5 -10.5t-45 -14t-41 -21.5t-25 -32t-10.5 -46q0 -45 34.5 -71.5t91.5 -26.5z" />
    <glyph glyph-name="b" unicode="b" horiz-adv-x="638" 
d="M314 -13q-77 0 -131.5 40t-67.5 92h-2q-4 -29 -14 -84l-6 -35h-49l15 78l115 652h49l-30 -176q-2 -7 -9 -41.5t-16 -75.5h3q67 102 194 102q96 0 160 -63.5t64 -172.5q0 -136 -78 -226t-197 -90zM314 31q98 0 160.5 78t62.5 191q0 87 -49 141t-133 54q-106 0 -163.5 -81
t-57.5 -193q0 -86 47 -138t133 -52z" />
    <glyph glyph-name="c" unicode="c" horiz-adv-x="551" 
d="M279 -12q-108 0 -167.5 65.5t-59.5 176.5q0 132 71 221t193 89q83 0 136 -38t75 -106l-46 -19q-16 56 -58.5 87.5t-106.5 31.5q-105 0 -158 -75.5t-53 -190.5q0 -91 44 -144.5t131 -53.5q122 0 177 109l43 -19q-33 -62 -90 -98t-131 -36z" />
    <glyph glyph-name="d" unicode="d" horiz-adv-x="638" 
d="M275 -12q-98 0 -161.5 63.5t-63.5 172.5q0 136 78 226t197 90q76 0 130.5 -40t67.5 -92h2q6 47 24 146l31 176h49l-128 -730h-47l18 91h-3q-70 -103 -194 -103zM284 32q107 0 164 81t57 193q0 86 -47 138t-133 52q-98 0 -160.5 -78t-62.5 -191q0 -87 49 -141t133 -54z
" />
    <glyph glyph-name="e" unicode="e" horiz-adv-x="583" 
d="M285 -12q-112 0 -172.5 65.5t-60.5 176.5q0 130 71 220t192 90q107 0 163 -64.5t56 -171.5q0 -20 -2 -42h-429q-1 -11 -1 -32q0 -91 47 -144.5t136 -53.5q127 0 186 110l48 -14q-35 -65 -95 -102.5t-139 -37.5zM108 306h375v3q0 86 -43 136.5t-125 50.5
q-85 0 -138.5 -52.5t-68.5 -137.5z" />
    <glyph glyph-name="f" unicode="f" horiz-adv-x="290" 
d="M64 0l85 483h-91l8 43h91l16 88q12 66 44.5 91.5t95.5 25.5q8 0 44 -3l-8 -43q-10 2 -35 2q-44 0 -64.5 -16t-28.5 -61l-14 -84h114l-8 -43h-114l-85 -483h-50z" />
    <glyph glyph-name="g" unicode="g" horiz-adv-x="640" 
d="M257 -198q-101 0 -161.5 43.5t-70.5 111.5l51 11q10 -48 53 -85t128 -37q91 0 137.5 43.5t67.5 143.5q4 19 8 39.5t6.5 31.5t5.5 22h-4q-23 -45 -77.5 -77t-118.5 -32q-107 0 -166 62t-59 174q0 120 71 203.5t192 83.5q83 0 135 -38t72 -96h3l12 78l7 42h49
q-1 -3 -7.5 -37.5t-10.5 -58.5l-67 -390q-23 -124 -80 -181t-176 -57zM282 61q103 0 164.5 75.5t61.5 180.5q0 81 -51.5 130t-134.5 49q-97 0 -155 -69.5t-58 -173.5q0 -94 46.5 -143t126.5 -49z" />
    <glyph glyph-name="h" unicode="h" horiz-adv-x="590" 
d="M45 0l129 730h50l-29 -162q-3 -17 -10 -56.5t-14 -74.5h2q23 40 70.5 71.5t112.5 31.5q77 0 122.5 -39.5t45.5 -110.5q0 -30 -7 -67l-57 -323h-50l55 312q7 40 7 68q0 58 -33.5 87t-90.5 29q-77 0 -130.5 -53.5t-66.5 -126.5l-56 -316h-50z" />
    <glyph glyph-name="i" unicode="i" horiz-adv-x="232" 
d="M45 0l93 526h50l-93 -526h-50zM152 607l22 123h50l-22 -123h-50z" />
    <glyph glyph-name="j" unicode="j" horiz-adv-x="240" 
d="M-50 -190q-21 0 -39 3l9 43q18 -2 30 -2q44 0 64 20t29 72l103 580h50l-103 -581q-12 -73 -44 -104t-99 -31zM160 607l22 123h50l-22 -123h-50z" />
    <glyph glyph-name="k" unicode="k" horiz-adv-x="491" 
d="M45 0l129 730h50l-55 -312q-6 -29 -16 -87.5t-14 -75.5q33 30 125 109l186 162h68l-298 -253l226 -273h-65l-198 244l-53 -44l-35 -200h-50z" />
    <glyph glyph-name="l" unicode="l" horiz-adv-x="232" 
d="M45 0l129 730h50l-129 -730h-50z" />
    <glyph glyph-name="m" unicode="m" horiz-adv-x="939" 
d="M45 0l79 446q6 31 13 80h50l-16 -89h2q23 41 68 72t110 31t108 -28.5t54 -83.5h2q24 43 73.5 77.5t119.5 34.5q76 0 120.5 -39t44.5 -111q0 -30 -7 -67l-57 -323h-50l55 312q7 40 7 68q0 59 -32 87.5t-88 28.5q-77 0 -128.5 -53t-64.5 -127l-56 -316h-50l55 312
q7 40 7 68q0 59 -32 87.5t-88 28.5q-77 0 -128.5 -53t-64.5 -127l-56 -316h-50z" />
    <glyph glyph-name="n" unicode="n" horiz-adv-x="590" 
d="M45 0l79 446q6 31 13 80h50l-16 -89h2q23 40 70.5 71.5t112.5 31.5q77 0 122.5 -39.5t45.5 -110.5q0 -30 -7 -67l-57 -323h-50l55 312q7 40 7 68q0 58 -33.5 87t-90.5 29q-77 0 -130.5 -53.5t-66.5 -126.5l-56 -316h-50z" />
    <glyph glyph-name="o" unicode="o" horiz-adv-x="608" 
d="M285 -12q-110 0 -172 66t-62 176q0 130 74.5 220t198.5 90q109 0 172 -66t63 -175q0 -130 -75 -220.5t-199 -90.5zM285 32q106 0 163.5 77t57.5 190q0 91 -48 144t-134 53q-106 0 -163 -76.5t-57 -189.5q0 -90 47 -144t134 -54z" />
    <glyph glyph-name="p" unicode="p" horiz-adv-x="639" 
d="M12 -188l116 656l9 58h50l-4 -21q-5 -26 -14 -68h3q67 102 194 102q96 0 160 -63.5t64 -172.5q0 -136 -78 -226t-197 -90q-77 0 -131.5 40t-67.5 92h-2q-7 -54 -13 -87l-39 -220h-50zM315 31q98 0 160.5 78t62.5 191q0 87 -49 141t-133 54q-106 0 -163.5 -81t-57.5 -193
q0 -86 47 -138t133 -52z" />
    <glyph glyph-name="q" unicode="q" horiz-adv-x="639" 
d="M418 -188l31 169q8 54 23 110h-3q-70 -103 -194 -103q-98 0 -161.5 63.5t-63.5 172.5q0 136 78 226t197 90q76 0 131 -40.5t68 -91.5h2q1 10 16 93l4 25h49q-7 -29 -16 -88l-111 -626h-50zM284 32q107 0 164 81t57 193q0 86 -47 138t-133 52q-98 0 -160.5 -78t-62.5 -191
q0 -87 49 -141t133 -54z" />
    <glyph glyph-name="r" unicode="r" horiz-adv-x="329" 
d="M45 0l81 458l11 68h49l-9 -51q-8 -41 -11 -53h2q18 50 62.5 79t99.5 29q19 0 28 -1l-9 -50q-11 1 -25 1q-146 0 -180 -199l-50 -281h-49z" />
    <glyph glyph-name="s" unicode="s" horiz-adv-x="498" 
d="M234 -13q-90 0 -146.5 39.5t-65.5 114.5l50 8q8 -58 50 -88t112 -30q73 0 109.5 28.5t36.5 79.5q0 22 -7.5 37.5t-26.5 27.5t-33.5 18.5t-45.5 18.5l-46 17q-72 26 -104.5 56.5t-32.5 85.5q0 61 47.5 100.5t130.5 39.5q81 0 135.5 -37.5t60.5 -101.5l-50 -8q-9 51 -47 77
t-99 26q-127 0 -127 -95q0 -34 21.5 -53t77.5 -42l59 -23q76 -29 108 -58.5t32 -85.5q0 -73 -56.5 -112.5t-142.5 -39.5z" />
    <glyph glyph-name="t" unicode="t" horiz-adv-x="280" 
d="M189 0h-69q-43 18 -43 75q0 19 6 56l62 352h-91l7 43h92l25 144h51l-26 -144h107l-7 -43h-108l-60 -341q-7 -40 -7 -58q0 -60 63 -72z" />
    <glyph glyph-name="u" unicode="u" horiz-adv-x="582" 
d="M232 -12q-76 0 -120.5 39t-44.5 111q0 30 7 67l56 321h50l-54 -310q-7 -40 -7 -68q0 -59 32.5 -87.5t88.5 -28.5q77 0 128.5 53t64.5 127l55 314h50l-79 -446q-6 -31 -13 -80h-50l17 91h-2q-22 -41 -68 -72t-111 -31z" />
    <glyph glyph-name="v" unicode="v" horiz-adv-x="494" 
d="M174 0l-108 526h55l51 -272q29 -156 36 -197h3q54 101 112 207l141 262h57l-293 -526h-54z" />
    <glyph glyph-name="w" unicode="w" horiz-adv-x="782" 
d="M141 0l-73 526h55l30 -239q14 -117 25 -232h2q96 202 112 235l116 236h60l30 -231q4 -34 15 -118t15 -122h2q58 120 118 249l105 222h53l-257 -526h-59l-30 216q-8 54 -32 252h-2q-13 -25 -53 -112.5t-71 -148.5l-102 -207h-59z" />
    <glyph glyph-name="x" unicode="x" horiz-adv-x="499" 
d="M-31 0l252 278l-145 248h58l124 -216l192 216h62l-231 -249l162 -277h-60l-137 243l-215 -243h-62z" />
    <glyph glyph-name="y" unicode="y" horiz-adv-x="495" 
d="M33 -190q-21 0 -44 4v46q27 -4 46 -4q37 0 58.5 15t47.5 60l36 63l-112 532h56l47 -253q7 -37 21.5 -106.5t21.5 -109.5h3q58 113 117 222l134 247h56l-348 -627q-26 -48 -58.5 -68.5t-81.5 -20.5z" />
    <glyph glyph-name="z" unicode="z" horiz-adv-x="485" 
d="M-14 0l6 34l306 325q28 30 67.5 69t51.5 53q-19 0 -77 -0.5t-78 -0.5h-180l8 46h404l-6 -34l-281 -297l-149 -150q18 0 68 0.5t71 0.5h217l-8 -46h-420z" />
    <glyph glyph-name="braceleft" unicode="{" horiz-adv-x="278" 
d="M179 -147h-45q-47 0 -65.5 18t-18.5 53q0 26 6 57l24 137q9 56 9 83q0 75 -49 79l7 45q42 4 63 41t35 117l24 137q6 35 11 52t17 38t34 29.5t56 8.5h49l-6 -36h-39q-22 0 -36 -6.5t-22 -22.5t-11 -28.5t-7 -37.5l-27 -155q-15 -80 -37.5 -111t-66.5 -50q27 -14 40.5 -34
t13.5 -61q0 -32 -7 -67l-26 -149q-7 -35 -7 -54q0 -47 52 -47h35z" />
    <glyph glyph-name="bar" unicode="|" horiz-adv-x="246" 
d="M27 -157l157 887h42l-157 -887h-42z" />
    <glyph glyph-name="braceright" unicode="}" horiz-adv-x="278" 
d="M-45 -147l6 36h39q22 0 36 6.5t22 22.5t11 28.5t7 37.5l27 155q13 79 37 111.5t67 50.5q-27 14 -40.5 33.5t-13.5 60.5q0 32 7 67l26 149q7 47 7 54q0 47 -52 47h-35l6 36h45q47 0 65.5 -18t18.5 -53q0 -25 -6 -57l-24 -137q-9 -56 -9 -83q0 -73 49 -77l-7 -45
q-42 -4 -63.5 -42t-34.5 -118l-24 -137q-6 -35 -11 -52t-17 -38t-34 -29.5t-56 -8.5h-49z" />
    <glyph glyph-name="asciitilde" unicode="~" 
d="M419 281q-36 0 -108 33l-58 26q-40 17 -62 17q-29 0 -50 -19t-43 -52l-28 25q49 88 124 88q13 0 28 -3.5t24 -7t28 -12t27 -11.5l61 -27q36 -15 60 -15q30 0 51 18.5t42 51.5l29 -23q-47 -89 -125 -89z" />
    <glyph glyph-name="uni00A0" unicode="&#xa0;" horiz-adv-x="270" 
 />
    <glyph glyph-name="exclamdown" unicode="&#xa1;" horiz-adv-x="242" 
d="M12 -204l51 286l49 253h42l-39 -253l-51 -286h-52zM119 407l21 119h54l-21 -119h-54z" />
    <glyph glyph-name="cent" unicode="&#xa2;" 
d="M227 -34l24 129q-83 17 -127 79t-44 158q0 130 71 220t193 90h3l22 124h39l-22 -127q128 -18 169 -141l-45 -19q-31 102 -132 118l-81 -465h11q122 0 178 111l42 -19q-33 -62 -90 -98t-131 -36h-18l-23 -124h-39zM259 137l81 463q-104 -2 -156 -78.5t-52 -189.5
q0 -78 31.5 -129t95.5 -66z" />
    <glyph glyph-name="sterling" unicode="&#xa3;" 
d="M22 0l8 40q75 9 123 63t48 147q0 39 -12 102h-106l8 37h90q-11 64 -11 118q0 105 61 171t163 66q82 0 133 -46.5t53 -128.5l-43 -4q-11 136 -150 136q-77 0 -123 -49.5t-46 -144.5q0 -51 11 -114h177l-8 -41h-160q9 -58 9 -93q0 -161 -120 -216v-1q17 1 90 1h267l-8 -43
h-454z" />
    <glyph glyph-name="currency" unicode="&#xa4;" 
d="M311 111q-91 0 -160 58l-49 -49l-30 30l49 49q-56 69 -56 158q0 90 58 159l-51 52l30 30l51 -52q69 58 158 58q88 0 158 -57l50 50l30 -30l-50 -50q59 -69 59 -160q0 -89 -58 -158l49 -48l-30 -30l-49 48q-69 -58 -159 -58zM311 159q82 0 141 59t59 141t-59 141t-141 59
t-141 -59t-59 -141t59 -141t141 -59z" />
    <glyph glyph-name="yen" unicode="&#xa5;" 
d="M219 0l38 212h-202l6 38h202l9 47l-32 77h-157l7 38h135l-130 318h56l75 -189q48 -126 79 -198h2l151 200l141 187h58l-245 -318h133l-7 -38h-155l-59 -77l-9 -47h201l-6 -38h-201l-38 -212h-52z" />
    <glyph glyph-name="brokenbar" unicode="&#xa6;" horiz-adv-x="246" 
d="M123 384l61 346h42l-61 -346h-42zM28 -157l60 345h42l-60 -345h-42z" />
    <glyph glyph-name="section" unicode="&#xa7;" 
d="M241 -110q-78 0 -131 37.5t-64 113.5l48 10q16 -118 151 -118q71 0 110 29t39 82q0 25 -13.5 45t-31 32t-50.5 31l-3 1.5t-2.5 1.5t-3 1.5t-2.5 1.5l-69 38q-64 35 -91.5 64.5t-27.5 80.5q0 55 39 93.5t98 51.5q-67 42 -67 113q0 65 50.5 105t131.5 40q76 0 127 -34
t62 -96l-46 -8q-18 96 -145 96q-63 0 -97 -25t-34 -71q0 -37 23.5 -60t79.5 -49l70 -33q60 -29 89.5 -60.5t29.5 -79.5q0 -61 -40 -104.5t-100 -55.5q37 -24 55.5 -49.5t18.5 -65.5q0 -74 -55.5 -116.5t-148.5 -42.5zM240 237l95 -51q55 14 91 45t36 82q0 41 -27.5 67.5
t-88.5 53.5l-66 30q-50 -4 -90 -34t-40 -79q0 -41 22 -65.5t68 -48.5z" />
    <glyph glyph-name="dieresis" unicode="&#xa8;" horiz-adv-x="365" 
d="M300 610l19 111h44l-19 -111h-44zM129 610l19 111h44l-19 -111h-44z" />
    <glyph glyph-name="copyright" unicode="&#xa9;" horiz-adv-x="875" 
d="M455 -14q-159 0 -269.5 110t-110.5 269q0 157 110.5 268t269.5 111t269.5 -111t110.5 -268q0 -158 -110.5 -268.5t-269.5 -110.5zM457 132q-98 0 -156.5 64t-58.5 167q0 101 59.5 165t156.5 64q71 0 121.5 -35.5t68.5 -102.5l-39 -12q-10 49 -51.5 81.5t-99.5 32.5
q-79 0 -126.5 -55t-47.5 -138t46.5 -138t126.5 -55q60 0 99.5 31t54.5 80l38 -12q-22 -65 -72.5 -101t-119.5 -36zM455 25q142 0 240.5 98.5t98.5 241.5t-98.5 241t-240.5 98q-143 0 -241 -98t-98 -241t98 -241.5t241 -98.5z" />
    <glyph glyph-name="ordfeminine" unicode="&#xaa;" horiz-adv-x="412" 
d="M208 387q-52 0 -83 23.5t-31 66.5q0 51 34 72.5t107 35.5l80 15q27 5 33.5 10.5t6.5 22.5q0 30 -22.5 48t-60.5 18q-76 0 -98 -73l-45 5q10 49 49.5 77.5t96.5 28.5q58 0 91 -26.5t33 -74.5q0 -18 -5 -46l-27 -156l-6 -41h-46l3 15q1 3 3 13t4 14h-2q-42 -48 -115 -48z
M220 422q47 0 78.5 27t39.5 75l4 24q3 21 5 25q-21 -7 -38 -10l-68 -13q-20 -4 -30 -6.5t-25.5 -8.5t-22.5 -12.5t-13 -17.5t-6 -25q0 -25 20.5 -41.5t55.5 -16.5z" />
    <glyph glyph-name="guillemotleft" unicode="&#xab;" horiz-adv-x="420" 
d="M288 87l-76 196l142 197h47l-137 -197l68 -196h-44zM119 87l-76 196l142 197h47l-137 -197l68 -196h-44z" />
    <glyph glyph-name="logicalnot" unicode="&#xac;" 
d="M500 187v248h-445v40h485v-288h-40z" />
    <glyph glyph-name="uni00AD" unicode="&#xad;" horiz-adv-x="408" 
d="M75 272l7 43h260l-7 -43h-260z" />
    <glyph glyph-name="registered" unicode="&#xae;" horiz-adv-x="875" 
d="M455 -14q-159 0 -269.5 110t-110.5 269q0 157 110.5 268t269.5 111t269.5 -111t110.5 -268q0 -158 -110.5 -268.5t-269.5 -110.5zM455 25q142 0 240.5 98.5t98.5 241.5t-98.5 241t-240.5 98q-143 0 -241 -98t-98 -241t98 -241.5t241 -98.5zM317 141v445h156
q152 0 152 -120q0 -79 -82 -106q54 -20 63 -98l6 -50q3 -25 4.5 -33t5.5 -18.5t11 -19.5h-47q-5 7 -10 51l-5 38q-9 62 -29 87t-73 25h-112v-201h-40zM357 377h111q116 0 116 87q0 42 -23 64t-82 22h-122v-173z" />
    <glyph glyph-name="overscore" unicode="&#xaf;" horiz-adv-x="334" 
d="M38 654l7 39h254l-7 -39h-254z" />
    <glyph glyph-name="degree" unicode="&#xb0;" horiz-adv-x="417" 
d="M261 426q-67 0 -112.5 45t-45.5 112t45.5 112t112.5 45t112.5 -45t45.5 -112t-45.5 -112t-112.5 -45zM261 465q49 0 83.5 34t34.5 84q0 48 -35 83t-83 35t-83 -35t-35 -83t35 -83t83 -35z" />
    <glyph glyph-name="plusminus" unicode="&#xb1;" 
d="M277 232v172h-202v40h202v167h40v-167h201v-40h-201v-172h-40zM75 112v40h443v-40h-443z" />
    <glyph glyph-name="twosuperior" unicode="&#xb2;" horiz-adv-x="369" 
d="M59 393l6 35q86 65 155 122l35 28q26 22 40 35t33.5 35.5t28 46.5t8.5 52q0 38 -24 59t-67 21q-93 0 -111 -107l-46 1q9 65 51 105.5t110 40.5q63 0 98 -31.5t35 -85.5q0 -64 -40.5 -114t-118.5 -110q-101 -75 -128 -93v-1q35 1 110 1h129l-7 -40h-297z" />
    <glyph glyph-name="threesuperior" unicode="&#xb3;" horiz-adv-x="375" 
d="M220 385q-68 0 -107 34.5t-40 99.5l46 3q1 -46 27.5 -72.5t74.5 -26.5q53 0 83.5 29t30.5 81q0 42 -30 64.5t-77 22.5h-16l5 39h12q53 0 88 24.5t35 74.5q0 32 -21.5 51t-59.5 19q-81 0 -99 -87l-45 4q8 56 46.5 89t99.5 33q59 0 92 -28.5t33 -74.5q0 -48 -28 -80
t-74 -42v-1q85 -25 85 -107q0 -67 -43.5 -108t-117.5 -41z" />
    <glyph glyph-name="acute" unicode="&#xb4;" horiz-adv-x="333" 
d="M160 601l123 129h72l-146 -129h-49z" />
    <glyph glyph-name="mu" unicode="&#xb5;" horiz-adv-x="599" 
d="M64 -184h-49q15 85 26 140l100 570h50l-54 -310q-7 -40 -7 -68q0 -59 32.5 -87.5t88.5 -28.5q77 0 128.5 53t64.5 127l55 314h50l-79 -446q-6 -31 -13 -80h-50l17 91h-2q-22 -41 -68 -72t-111 -31q-98 0 -136 63l-26 -148q-10 -58 -17 -87z" />
    <glyph glyph-name="paragraph" unicode="&#xb6;" horiz-adv-x="598" 
d="M157 -144l99 558q-74 0 -121 41t-47 112q0 75 50 119q53 44 147 44h351l-7 -39h-89l-148 -835h-48l148 835h-139l-148 -835h-48z" />
    <glyph glyph-name="middot" unicode="&#xb7;" horiz-adv-x="203" 
d="M65 219l21 119h56l-21 -119h-56z" />
    <glyph glyph-name="cedilla" unicode="&#xb8;" horiz-adv-x="304" 
d="M69 -178l105 129h43l-88 -129h-60z" />
    <glyph glyph-name="onesuperior" unicode="&#xb9;" horiz-adv-x="301" 
d="M64 393l7 37h102l56 315h-113l4 30q71 2 97.5 19t42.5 68h35l-77 -432h98l-6 -37h-246z" />
    <glyph glyph-name="ordmasculine" unicode="&#xba;" horiz-adv-x="440" 
d="M256 385q-72 0 -113.5 40t-41.5 112q0 85 48.5 143t134.5 58q71 0 113 -40t42 -111q0 -85 -48.5 -143.5t-134.5 -58.5zM258 423q64 0 97.5 47t33.5 113q0 54 -28 85.5t-79 31.5q-65 0 -98 -46.5t-33 -112.5q0 -55 27.5 -86.5t79.5 -31.5z" />
    <glyph glyph-name="guillemotright" unicode="&#xbb;" horiz-adv-x="418" 
d="M193 87l136 196l-67 197h44l75 -197l-140 -196h-48zM24 87l136 196l-67 197h44l75 -197l-140 -196h-48z" />
    <glyph glyph-name="onequarter" unicode="&#xbc;" horiz-adv-x="736" 
d="M541 0l19 106h-200l5 33l164 326h45l-159 -319h152l32 184h40l-32 -184h75l-6 -40h-76l-19 -106h-40zM120 0l418 730h49l-418 -730h-49zM144 261l63 352h-113l4 30q71 2 97.5 19t42.5 68h35l-84 -469h-45z" />
    <glyph glyph-name="onehalf" unicode="&#xbd;" horiz-adv-x="785" 
d="M144 261l63 352h-113l4 30q71 2 97.5 19t42.5 68h35l-84 -469h-45zM394 1l6 35q86 65 155 122l35 28q26 22 40 35t33.5 35.5t28 46.5t8.5 52q0 38 -24 59t-67 21q-93 0 -111 -107l-46 1q9 65 51 105.5t110 40.5q63 0 98 -31.5t35 -85.5q0 -64 -40.5 -114t-118.5 -110
q-101 -75 -128 -93v-1q35 1 110 1h129l-7 -40h-297zM120 0l418 730h49l-418 -730h-49z" />
    <glyph glyph-name="threequarters" unicode="&#xbe;" horiz-adv-x="866" 
d="M671 0l19 106h-200l5 33l164 326h45l-159 -319h152l32 184h40l-32 -184h75l-6 -40h-76l-19 -106h-40zM250 0l418 730h49l-418 -730h-49zM214 252q-68 0 -107 34.5t-40 99.5l46 3q1 -46 27.5 -72.5t74.5 -26.5q53 0 83.5 29t30.5 81q0 42 -30 64.5t-77 22.5h-16l5 39h12
q53 0 88 24.5t35 74.5q0 32 -21.5 51t-59.5 19q-81 0 -99 -87l-45 4q8 56 46.5 89t99.5 33q59 0 92 -28.5t33 -74.5q0 -48 -28 -80t-74 -42v-1q85 -25 85 -107q0 -67 -43.5 -108t-117.5 -41z" />
    <glyph glyph-name="questiondown" unicode="&#xbf;" horiz-adv-x="486" 
d="M174 -217q-91 0 -142.5 42.5t-51.5 112.5q0 63 31.5 107.5t94.5 97.5l18 15q59 48 81 80t33 97h49q-12 -71 -35.5 -109.5t-78.5 -82.5l-22 -18q-32 -26 -45 -38t-35.5 -37.5t-31.5 -51t-9 -55.5q0 -54 38 -85t109 -31q80 0 127 46.5t56 128.5l48 -4q-10 -96 -72.5 -155.5
t-161.5 -59.5zM249 407l21 119h54l-21 -119h-54z" />
    <glyph glyph-name="Agrave" unicode="&#xc0;" horiz-adv-x="663" 
d="M-39 0l429 730h51l163 -730h-53l-49 232h-353l-135 -232h-53zM176 278h315l-40 191q-8 35 -21.5 103t-21.5 103h-3q-85 -150 -120 -210zM404 803l-125 129h67l100 -129h-42z" />
    <glyph glyph-name="Aacute" unicode="&#xc1;" horiz-adv-x="663" 
d="M-39 0l429 730h51l163 -730h-53l-49 232h-353l-135 -232h-53zM176 278h315l-40 191q-8 35 -21.5 103t-21.5 103h-3q-85 -150 -120 -210zM400 803l123 129h72l-146 -129h-49z" />
    <glyph glyph-name="Acircumflex" unicode="&#xc2;" horiz-adv-x="663" 
d="M-39 0l429 730h51l163 -730h-53l-49 232h-353l-135 -232h-53zM176 278h315l-40 191q-8 35 -21.5 103t-21.5 103h-3q-85 -150 -120 -210zM286 803l125 129h55l79 -129h-40l-70 94l-102 -94h-47z" />
    <glyph glyph-name="Atilde" unicode="&#xc3;" horiz-adv-x="663" 
d="M-39 0l429 730h51l163 -730h-53l-49 232h-353l-135 -232h-53zM176 278h315l-40 191q-8 35 -21.5 103t-21.5 103h-3q-85 -150 -120 -210zM313 825h-32q12 90 79 90q23 0 63 -18l26 -12q36 -17 52 -17q32 0 46 50h32q-12 -90 -79 -90q-23 0 -63 18l-25 11q-40 17 -53 17
q-32 0 -46 -49z" />
    <glyph glyph-name="Adieresis" unicode="&#xc4;" horiz-adv-x="663" 
d="M-39 0l429 730h51l163 -730h-53l-49 232h-353l-135 -232h-53zM176 278h315l-40 191q-8 35 -21.5 103t-21.5 103h-3q-85 -150 -120 -210zM492 813l19 111h44l-19 -111h-44zM321 813l19 111h44l-19 -111h-44z" />
    <glyph glyph-name="Aring" unicode="&#xc5;" horiz-adv-x="663" 
d="M-39 0l429 730h51l163 -730h-53l-49 232h-353l-135 -232h-53zM176 278h315l-40 191q-8 35 -21.5 103t-21.5 103h-3q-85 -150 -120 -210zM431 779q-38 0 -63.5 26.5t-25.5 64.5q0 37 26 63t64 26t63 -26.5t25 -63.5t-25.5 -63.5t-63.5 -26.5zM431 809q26 0 42.5 17.5
t16.5 43.5q0 25 -16.5 42.5t-42.5 17.5t-42.5 -17.5t-16.5 -43.5t16.5 -43t42.5 -17z" />
    <glyph glyph-name="AE" unicode="&#xc6;" horiz-adv-x="925" 
d="M-59 0l568 730h437l-8 -46h-345l-46 -279h319l-9 -46h-319l-51 -313h351l-8 -46h-405l37 221h-291l-169 -221h-61zM207 267h263l70 417h-11z" />
    <glyph glyph-name="Ccedilla" unicode="&#xc7;" horiz-adv-x="741" 
d="M389 -14q-140 0 -228.5 88t-88.5 248q0 114 42 208.5t127 154t198 59.5t189.5 -51.5t109.5 -146.5l-47 -12q-28 79 -92.5 122t-159.5 43q-77 0 -139 -32t-100 -85.5t-58 -120t-20 -139.5q0 -139 70.5 -215t196.5 -76q182 0 268 157l44 -14q-97 -188 -312 -188zM258 -178
l105 129h43l-88 -129h-60z" />
    <glyph glyph-name="Egrave" unicode="&#xc8;" horiz-adv-x="606" 
d="M55 0l129 730h444l-8 -46h-392l-49 -279h368l-9 -46h-368l-55 -313h404l-8 -46h-456zM410 803l-125 129h67l100 -129h-42z" />
    <glyph glyph-name="Eacute" unicode="&#xc9;" horiz-adv-x="606" 
d="M55 0l129 730h444l-8 -46h-392l-49 -279h368l-9 -46h-368l-55 -313h404l-8 -46h-456zM344 803l123 129h72l-146 -129h-49z" />
    <glyph glyph-name="Ecircumflex" unicode="&#xca;" horiz-adv-x="606" 
d="M55 0l129 730h444l-8 -46h-392l-49 -279h368l-9 -46h-368l-55 -313h404l-8 -46h-456zM275 803l125 129h55l79 -129h-40l-70 94l-102 -94h-47z" />
    <glyph glyph-name="Edieresis" unicode="&#xcb;" horiz-adv-x="606" 
d="M55 0l129 730h444l-8 -46h-392l-49 -279h368l-9 -46h-368l-55 -313h404l-8 -46h-456zM469 813l19 111h44l-19 -111h-44zM298 813l19 111h44l-19 -111h-44z" />
    <glyph glyph-name="Igrave" unicode="&#xcc;" horiz-adv-x="259" 
d="M55 0l129 730h52l-129 -730h-52zM203 803l-125 129h67l100 -129h-42z" />
    <glyph glyph-name="Iacute" unicode="&#xcd;" horiz-adv-x="259" 
d="M55 0l129 730h52l-129 -730h-52zM183 803l123 129h72l-146 -129h-49z" />
    <glyph glyph-name="Icircumflex" unicode="&#xce;" horiz-adv-x="259" 
d="M55 0l129 730h52l-129 -730h-52zM88 803l125 129h55l79 -129h-40l-70 94l-102 -94h-47z" />
    <glyph glyph-name="Idieresis" unicode="&#xcf;" horiz-adv-x="259" 
d="M55 0l129 730h52l-129 -730h-52zM285 813l19 111h44l-19 -111h-44zM114 813l19 111h44l-19 -111h-44z" />
    <glyph glyph-name="Eth" unicode="&#xd0;" horiz-adv-x="759" 
d="M62 0l64 361h-88l8 45h88l57 324h141q71 0 126.5 -7.5t106.5 -28t84.5 -54t53 -87t19.5 -125.5q0 -173 -91 -287q-68 -88 -163 -114.5t-246 -26.5h-160zM122 46h156q212 0 313 122q78 95 78 259q0 131 -74 194t-226 63h-134l-49 -278h233l-8 -45h-233z" />
    <glyph glyph-name="Ntilde" unicode="&#xd1;" horiz-adv-x="765" 
d="M55 0l129 730h72l199 -420q8 -17 116 -251h2q9 58 28 166t23 129l66 376h52l-129 -730h-68l-199 421q-102 217 -120 258h-2q-5 -29 -26 -157.5t-30 -175.5l-61 -346h-52zM363 825h-32q12 90 79 90q23 0 63 -18l26 -12q36 -17 52 -17q32 0 46 50h32q-12 -90 -79 -90
q-23 0 -63 18l-25 11q-40 17 -53 17q-32 0 -46 -49z" />
    <glyph glyph-name="Ograve" unicode="&#xd2;" horiz-adv-x="803" 
d="M390 -14q-142 0 -230 87t-88 250q0 113 42 207.5t127.5 154t198.5 59.5q149 0 237 -88t88 -237q0 -186 -101 -309.5t-274 -123.5zM390 31q107 0 182.5 56.5t109 142t33.5 189.5q0 130 -73.5 205t-201.5 75q-105 0 -179 -55.5t-107 -138.5t-33 -182q0 -140 71 -216
t198 -76zM460 803l-125 129h67l100 -129h-42z" />
    <glyph glyph-name="Oacute" unicode="&#xd3;" horiz-adv-x="803" 
d="M390 -14q-142 0 -230 87t-88 250q0 113 42 207.5t127.5 154t198.5 59.5q149 0 237 -88t88 -237q0 -186 -101 -309.5t-274 -123.5zM390 31q107 0 182.5 56.5t109 142t33.5 189.5q0 130 -73.5 205t-201.5 75q-105 0 -179 -55.5t-107 -138.5t-33 -182q0 -140 71 -216
t198 -76zM416 803l123 129h72l-146 -129h-49z" />
    <glyph glyph-name="Ocircumflex" unicode="&#xd4;" horiz-adv-x="803" 
d="M390 -14q-142 0 -230 87t-88 250q0 113 42 207.5t127.5 154t198.5 59.5q149 0 237 -88t88 -237q0 -186 -101 -309.5t-274 -123.5zM390 31q107 0 182.5 56.5t109 142t33.5 189.5q0 130 -73.5 205t-201.5 75q-105 0 -179 -55.5t-107 -138.5t-33 -182q0 -140 71 -216
t198 -76zM337 803l125 129h55l79 -129h-40l-70 94l-102 -94h-47z" />
    <glyph glyph-name="Otilde" unicode="&#xd5;" horiz-adv-x="803" 
d="M390 -14q-142 0 -230 87t-88 250q0 113 42 207.5t127.5 154t198.5 59.5q149 0 237 -88t88 -237q0 -186 -101 -309.5t-274 -123.5zM390 31q107 0 182.5 56.5t109 142t33.5 189.5q0 130 -73.5 205t-201.5 75q-105 0 -179 -55.5t-107 -138.5t-33 -182q0 -140 71 -216
t198 -76zM349 825h-32q12 90 79 90q23 0 63 -18l26 -12q36 -17 52 -17q32 0 46 50h32q-12 -90 -79 -90q-23 0 -63 18l-25 11q-40 17 -53 17q-32 0 -46 -49z" />
    <glyph glyph-name="Odieresis" unicode="&#xd6;" horiz-adv-x="803" 
d="M390 -14q-142 0 -230 87t-88 250q0 113 42 207.5t127.5 154t198.5 59.5q149 0 237 -88t88 -237q0 -186 -101 -309.5t-274 -123.5zM390 31q107 0 182.5 56.5t109 142t33.5 189.5q0 130 -73.5 205t-201.5 75q-105 0 -179 -55.5t-107 -138.5t-33 -182q0 -140 71 -216
t198 -76zM518 813l19 111h44l-19 -111h-44zM347 813l19 111h44l-19 -111h-44z" />
    <glyph glyph-name="multiply" unicode="&#xd7;" 
d="M117 121l-27 28l187 187l-187 187l27 28l187 -188l187 187l28 -27l-187 -187l187 -187l-28 -27l-187 186z" />
    <glyph glyph-name="Oslash" unicode="&#xd8;" horiz-adv-x="803" 
d="M77 -43l-28 25l94 109q-71 88 -71 232q0 113 42 207.5t127.5 154t198.5 59.5q127 0 210 -65l80 93l28 -24l-80 -93q87 -89 87 -236q0 -186 -101 -309.5t-274 -123.5q-137 0 -221 78zM390 31q107 0 182.5 56.5t109 142t33.5 189.5q0 124 -69 199l-446 -519q71 -68 190 -68
zM175 128l444 515q-73 56 -179 56q-105 0 -179 -55.5t-107 -138.5t-33 -182q0 -121 54 -195z" />
    <glyph glyph-name="Ugrave" unicode="&#xd9;" horiz-adv-x="708" 
d="M316 -14q-111 0 -170 52t-59 149q0 48 8 86l81 457h52l-79 -447q-9 -56 -9 -85q0 -167 185 -167q58 0 99.5 17t68.5 52t43 79t28 108l78 443h52l-82 -463q-25 -142 -93 -211.5t-203 -69.5zM429 803l-125 129h67l100 -129h-42z" />
    <glyph glyph-name="Uacute" unicode="&#xda;" horiz-adv-x="708" 
d="M316 -14q-111 0 -170 52t-59 149q0 48 8 86l81 457h52l-79 -447q-9 -56 -9 -85q0 -167 185 -167q58 0 99.5 17t68.5 52t43 79t28 108l78 443h52l-82 -463q-25 -142 -93 -211.5t-203 -69.5zM369 803l123 129h72l-146 -129h-49z" />
    <glyph glyph-name="Ucircumflex" unicode="&#xdb;" horiz-adv-x="708" 
d="M316 -14q-111 0 -170 52t-59 149q0 48 8 86l81 457h52l-79 -447q-9 -56 -9 -85q0 -167 185 -167q58 0 99.5 17t68.5 52t43 79t28 108l78 443h52l-82 -463q-25 -142 -93 -211.5t-203 -69.5zM311 803l125 129h55l79 -129h-40l-70 94l-102 -94h-47z" />
    <glyph glyph-name="Udieresis" unicode="&#xdc;" horiz-adv-x="708" 
d="M316 -14q-111 0 -170 52t-59 149q0 48 8 86l81 457h52l-79 -447q-9 -56 -9 -85q0 -167 185 -167q58 0 99.5 17t68.5 52t43 79t28 108l78 443h52l-82 -463q-25 -142 -93 -211.5t-203 -69.5zM502 813l19 111h44l-19 -111h-44zM331 813l19 111h44l-19 -111h-44z" />
    <glyph glyph-name="Yacute" unicode="&#xdd;" horiz-adv-x="604" 
d="M227 0l53 297l-187 433h58l79 -189q13 -33 43 -101.5t41 -93.5h2q32 43 154 197l146 187h59l-343 -433l-53 -297h-52zM320 803l123 129h72l-146 -129h-49z" />
    <glyph glyph-name="Thorn" unicode="&#xde;" horiz-adv-x="596" 
d="M55 0l128 730h52l-28 -157h101q129 0 194 -41.5t65 -132.5q0 -126 -94 -185q-44 -27 -90.5 -35t-114.5 -8h-132l-31 -171h-50zM144 216h132q113 0 175.5 38.5t62.5 141.5q0 75 -51.5 103.5t-146.5 28.5h-117z" />
    <glyph glyph-name="germandbls" unicode="&#xdf;" horiz-adv-x="576" 
d="M260 -4q-24 0 -49 3l6 40q8 -2 34 -2q104 0 160.5 54t56.5 149q0 73 -47.5 113t-130.5 42l6 39q85 2 137 38t52 112q0 53 -35 83.5t-98 30.5q-76 0 -113.5 -45.5t-52.5 -134.5l-91 -518h-50l91 519q19 109 71.5 164.5t149.5 55.5q83 0 130 -41.5t47 -106.5
q0 -69 -39 -115.5t-106 -58.5l-1 -4q59 -18 95 -63t36 -112q0 -115 -73.5 -178.5t-185.5 -63.5z" />
    <glyph glyph-name="agrave" unicode="&#xe0;" horiz-adv-x="555" 
d="M210 -12q-82 0 -131 36t-49 105q0 41 14.5 69.5t46 46.5t65 28.5t87.5 20.5l150 27q22 5 29.5 8t14 16t6.5 39q0 49 -36 80t-102 31q-70 0 -108 -29t-60 -92l-50 6q16 73 74 116t144 43q89 0 138 -41.5t49 -113.5q0 -22 -10 -85l-44 -249q-7 -34 -8 -50h-49l6 29l11 50
h-2q-30 -43 -78.5 -67t-107.5 -24zM210 31q80 0 138 44.5t70 123.5l8 53q3 23 8 34q-8 -2 -53 -10l-124 -23q-33 -6 -51.5 -10.5t-45 -14t-41 -21.5t-25 -32t-10.5 -46q0 -45 34.5 -71.5t91.5 -26.5zM319 601l-125 129h67l100 -129h-42z" />
    <glyph glyph-name="aacute" unicode="&#xe1;" horiz-adv-x="555" 
d="M210 -12q-82 0 -131 36t-49 105q0 41 14.5 69.5t46 46.5t65 28.5t87.5 20.5l150 27q22 5 29.5 8t14 16t6.5 39q0 49 -36 80t-102 31q-70 0 -108 -29t-60 -92l-50 6q16 73 74 116t144 43q89 0 138 -41.5t49 -113.5q0 -22 -10 -85l-44 -249q-7 -34 -8 -50h-49l6 29l11 50
h-2q-30 -43 -78.5 -67t-107.5 -24zM210 31q80 0 138 44.5t70 123.5l8 53q3 23 8 34q-8 -2 -53 -10l-124 -23q-33 -6 -51.5 -10.5t-45 -14t-41 -21.5t-25 -32t-10.5 -46q0 -45 34.5 -71.5t91.5 -26.5zM282 601l123 129h72l-146 -129h-49z" />
    <glyph glyph-name="acircumflex" unicode="&#xe2;" horiz-adv-x="555" 
d="M210 -12q-82 0 -131 36t-49 105q0 41 14.5 69.5t46 46.5t65 28.5t87.5 20.5l150 27q22 5 29.5 8t14 16t6.5 39q0 49 -36 80t-102 31q-70 0 -108 -29t-60 -92l-50 6q16 73 74 116t144 43q89 0 138 -41.5t49 -113.5q0 -22 -10 -85l-44 -249q-7 -34 -8 -50h-49l6 29l11 50
h-2q-30 -43 -78.5 -67t-107.5 -24zM210 31q80 0 138 44.5t70 123.5l8 53q3 23 8 34q-8 -2 -53 -10l-124 -23q-33 -6 -51.5 -10.5t-45 -14t-41 -21.5t-25 -32t-10.5 -46q0 -45 34.5 -71.5t91.5 -26.5zM194 601l125 129h55l79 -129h-40l-70 94l-102 -94h-47z" />
    <glyph glyph-name="atilde" unicode="&#xe3;" horiz-adv-x="555" 
d="M210 -12q-82 0 -131 36t-49 105q0 41 14.5 69.5t46 46.5t65 28.5t87.5 20.5l150 27q22 5 29.5 8t14 16t6.5 39q0 49 -36 80t-102 31q-70 0 -108 -29t-60 -92l-50 6q16 73 74 116t144 43q89 0 138 -41.5t49 -113.5q0 -22 -10 -85l-44 -249q-7 -34 -8 -50h-49l6 29l11 50
h-2q-30 -43 -78.5 -67t-107.5 -24zM210 31q80 0 138 44.5t70 123.5l8 53q3 23 8 34q-8 -2 -53 -10l-124 -23q-33 -6 -51.5 -10.5t-45 -14t-41 -21.5t-25 -32t-10.5 -46q0 -45 34.5 -71.5t91.5 -26.5zM208 625h-32q12 90 79 90q23 0 63 -18l26 -12q36 -17 52 -17q32 0 46 50
h32q-12 -90 -79 -90q-23 0 -63 18l-25 11q-40 17 -53 17q-32 0 -46 -49z" />
    <glyph glyph-name="adieresis" unicode="&#xe4;" horiz-adv-x="555" 
d="M210 -12q-82 0 -131 36t-49 105q0 41 14.5 69.5t46 46.5t65 28.5t87.5 20.5l150 27q22 5 29.5 8t14 16t6.5 39q0 49 -36 80t-102 31q-70 0 -108 -29t-60 -92l-50 6q16 73 74 116t144 43q89 0 138 -41.5t49 -113.5q0 -22 -10 -85l-44 -249q-7 -34 -8 -50h-49l6 29l11 50
h-2q-30 -43 -78.5 -67t-107.5 -24zM210 31q80 0 138 44.5t70 123.5l8 53q3 23 8 34q-8 -2 -53 -10l-124 -23q-33 -6 -51.5 -10.5t-45 -14t-41 -21.5t-25 -32t-10.5 -46q0 -45 34.5 -71.5t91.5 -26.5zM383 610l19 111h44l-19 -111h-44zM212 610l19 111h44l-19 -111h-44z" />
    <glyph glyph-name="aring" unicode="&#xe5;" horiz-adv-x="555" 
d="M210 -12q-82 0 -131 36t-49 105q0 41 14.5 69.5t46 46.5t65 28.5t87.5 20.5l150 27q22 5 29.5 8t14 16t6.5 39q0 49 -36 80t-102 31q-70 0 -108 -29t-60 -92l-50 6q16 73 74 116t144 43q89 0 138 -41.5t49 -113.5q0 -22 -10 -85l-44 -249q-7 -34 -8 -50h-49l6 29l11 50
h-2q-30 -43 -78.5 -67t-107.5 -24zM210 31q80 0 138 44.5t70 123.5l8 53q3 23 8 34q-8 -2 -53 -10l-124 -23q-33 -6 -51.5 -10.5t-45 -14t-41 -21.5t-25 -32t-10.5 -46q0 -45 34.5 -71.5t91.5 -26.5zM341 578q-38 0 -63.5 26.5t-25.5 64.5q0 37 26 63t64 26t63 -26.5
t25 -63.5t-25.5 -63.5t-63.5 -26.5zM341 608q26 0 42.5 17.5t16.5 43.5q0 25 -16.5 42.5t-42.5 17.5t-42.5 -17.5t-16.5 -43.5t16.5 -43t42.5 -17z" />
    <glyph glyph-name="ae" unicode="&#xe6;" horiz-adv-x="954" 
d="M210 -12q-82 0 -131 36t-49 105q0 41 14.5 69.5t46 46.5t65 28.5t87.5 20.5l150 27q22 5 29.5 8t14 16t6.5 39q0 49 -36 80t-102 31q-70 0 -108 -29t-60 -92l-50 6q16 73 74 116t144 43q70 0 115.5 -27.5t61.5 -76.5q74 105 204 105q107 0 163 -64.5t56 -171.5
q0 -20 -2 -42h-429q-1 -11 -1 -32q0 -91 47 -144.5t136 -53.5q127 0 186 110l48 -14q-35 -65 -95 -102.5t-139 -37.5q-80 0 -135 35t-79 98h-4q-27 -51 -86.5 -92t-141.5 -41zM210 31q80 0 138 44.5t70 123.5l8 53q3 23 8 34q-8 -2 -53 -10l-124 -23q-33 -6 -51.5 -10.5
t-45 -14t-41 -21.5t-25 -32t-10.5 -46q0 -45 34.5 -71.5t91.5 -26.5zM479 306h375v3q0 86 -43 136.5t-125 50.5q-85 0 -138.5 -52.5t-68.5 -137.5z" />
    <glyph glyph-name="ccedilla" unicode="&#xe7;" horiz-adv-x="551" 
d="M279 -12q-108 0 -167.5 65.5t-59.5 176.5q0 132 71 221t193 89q83 0 136 -38t75 -106l-46 -19q-16 56 -58.5 87.5t-106.5 31.5q-105 0 -158 -75.5t-53 -190.5q0 -91 44 -144.5t131 -53.5q122 0 177 109l43 -19q-33 -62 -90 -98t-131 -36zM155 -178l105 129h43l-88 -129
h-60z" />
    <glyph glyph-name="egrave" unicode="&#xe8;" horiz-adv-x="583" 
d="M285 -12q-112 0 -172.5 65.5t-60.5 176.5q0 130 71 220t192 90q107 0 163 -64.5t56 -171.5q0 -20 -2 -42h-429q-1 -11 -1 -32q0 -91 47 -144.5t136 -53.5q127 0 186 110l48 -14q-35 -65 -95 -102.5t-139 -37.5zM108 306h375v3q0 86 -43 136.5t-125 50.5
q-85 0 -138.5 -52.5t-68.5 -137.5zM323 601l-125 129h67l100 -129h-42z" />
    <glyph glyph-name="eacute" unicode="&#xe9;" horiz-adv-x="583" 
d="M285 -12q-112 0 -172.5 65.5t-60.5 176.5q0 130 71 220t192 90q107 0 163 -64.5t56 -171.5q0 -20 -2 -42h-429q-1 -11 -1 -32q0 -91 47 -144.5t136 -53.5q127 0 186 110l48 -14q-35 -65 -95 -102.5t-139 -37.5zM108 306h375v3q0 86 -43 136.5t-125 50.5
q-85 0 -138.5 -52.5t-68.5 -137.5zM277 601l123 129h72l-146 -129h-49z" />
    <glyph glyph-name="ecircumflex" unicode="&#xea;" horiz-adv-x="583" 
d="M285 -12q-112 0 -172.5 65.5t-60.5 176.5q0 130 71 220t192 90q107 0 163 -64.5t56 -171.5q0 -20 -2 -42h-429q-1 -11 -1 -32q0 -91 47 -144.5t136 -53.5q127 0 186 110l48 -14q-35 -65 -95 -102.5t-139 -37.5zM108 306h375v3q0 86 -43 136.5t-125 50.5
q-85 0 -138.5 -52.5t-68.5 -137.5zM187 601l125 129h55l79 -129h-40l-70 94l-102 -94h-47z" />
    <glyph glyph-name="edieresis" unicode="&#xeb;" horiz-adv-x="583" 
d="M285 -12q-112 0 -172.5 65.5t-60.5 176.5q0 130 71 220t192 90q107 0 163 -64.5t56 -171.5q0 -20 -2 -42h-429q-1 -11 -1 -32q0 -91 47 -144.5t136 -53.5q127 0 186 110l48 -14q-35 -65 -95 -102.5t-139 -37.5zM108 306h375v3q0 86 -43 136.5t-125 50.5
q-85 0 -138.5 -52.5t-68.5 -137.5zM389 610l19 111h44l-19 -111h-44zM218 610l19 111h44l-19 -111h-44z" />
    <glyph glyph-name="igrave" unicode="&#xec;" horiz-adv-x="232" 
d="M166 601l-125 129h67l100 -129h-42zM45 0l93 526h50l-93 -526h-50z" />
    <glyph glyph-name="iacute" unicode="&#xed;" horiz-adv-x="232" 
d="M144 601l123 129h72l-146 -129h-49zM45 0l93 526h50l-93 -526h-50z" />
    <glyph glyph-name="icircumflex" unicode="&#xee;" horiz-adv-x="232" 
d="M45 0l93 526h50l-93 -526h-50zM45 601l125 129h55l79 -129h-40l-70 94l-102 -94h-47z" />
    <glyph glyph-name="idieresis" unicode="&#xef;" horiz-adv-x="232" 
d="M242 610l19 111h44l-19 -111h-44zM71 610l19 111h44l-19 -111h-44zM45 0l93 526h50l-93 -526h-50z" />
    <glyph glyph-name="eth" unicode="&#xf0;" horiz-adv-x="603" 
d="M276 -11q-106 0 -166.5 60t-60.5 168q0 123 75 206.5t189 83.5q121 0 178 -86l3 2q-40 112 -148 205l-122 -55l-24 31l114 49q-27 20 -103 69l59 15q50 -30 92 -63l132 58l21 -27l-123 -56q160 -149 160 -347q0 -135 -72 -224t-204 -89zM280 31q98 0 158.5 71t60.5 177
q0 84 -48.5 134.5t-135.5 50.5q-101 0 -158.5 -72t-57.5 -176q0 -88 47 -136.5t134 -48.5z" />
    <glyph glyph-name="ntilde" unicode="&#xf1;" horiz-adv-x="590" 
d="M45 0l79 446q6 31 13 80h50l-16 -89h2q23 40 70.5 71.5t112.5 31.5q77 0 122.5 -39.5t45.5 -110.5q0 -30 -7 -67l-57 -323h-50l55 312q7 40 7 68q0 58 -33.5 87t-90.5 29q-77 0 -130.5 -53.5t-66.5 -126.5l-56 -316h-50zM247 625h-32q12 90 79 90q23 0 63 -18l26 -12
q36 -17 52 -17q32 0 46 50h32q-12 -90 -79 -90q-23 0 -63 18l-25 11q-40 17 -53 17q-32 0 -46 -49z" />
    <glyph glyph-name="ograve" unicode="&#xf2;" horiz-adv-x="608" 
d="M285 -12q-110 0 -172 66t-62 176q0 130 74.5 220t198.5 90q109 0 172 -66t63 -175q0 -130 -75 -220.5t-199 -90.5zM285 32q106 0 163.5 77t57.5 190q0 91 -48 144t-134 53q-106 0 -163 -76.5t-57 -189.5q0 -90 47 -144t134 -54zM334 601l-125 129h67l100 -129h-42z" />
    <glyph glyph-name="oacute" unicode="&#xf3;" horiz-adv-x="608" 
d="M285 -12q-110 0 -172 66t-62 176q0 130 74.5 220t198.5 90q109 0 172 -66t63 -175q0 -130 -75 -220.5t-199 -90.5zM285 32q106 0 163.5 77t57.5 190q0 91 -48 144t-134 53q-106 0 -163 -76.5t-57 -189.5q0 -90 47 -144t134 -54zM299 601l123 129h72l-146 -129h-49z" />
    <glyph glyph-name="ocircumflex" unicode="&#xf4;" horiz-adv-x="608" 
d="M285 -12q-110 0 -172 66t-62 176q0 130 74.5 220t198.5 90q109 0 172 -66t63 -175q0 -130 -75 -220.5t-199 -90.5zM285 32q106 0 163.5 77t57.5 190q0 91 -48 144t-134 53q-106 0 -163 -76.5t-57 -189.5q0 -90 47 -144t134 -54zM209 601l125 129h55l79 -129h-40l-70 94
l-102 -94h-47z" />
    <glyph glyph-name="otilde" unicode="&#xf5;" horiz-adv-x="608" 
d="M285 -12q-110 0 -172 66t-62 176q0 130 74.5 220t198.5 90q109 0 172 -66t63 -175q0 -130 -75 -220.5t-199 -90.5zM285 32q106 0 163.5 77t57.5 190q0 91 -48 144t-134 53q-106 0 -163 -76.5t-57 -189.5q0 -90 47 -144t134 -54zM236 625h-32q12 90 79 90q23 0 63 -18
l26 -12q36 -17 52 -17q32 0 46 50h32q-12 -90 -79 -90q-23 0 -63 18l-25 11q-40 17 -53 17q-32 0 -46 -49z" />
    <glyph glyph-name="odieresis" unicode="&#xf6;" horiz-adv-x="608" 
d="M285 -12q-110 0 -172 66t-62 176q0 130 74.5 220t198.5 90q109 0 172 -66t63 -175q0 -130 -75 -220.5t-199 -90.5zM285 32q106 0 163.5 77t57.5 190q0 91 -48 144t-134 53q-106 0 -163 -76.5t-57 -189.5q0 -90 47 -144t134 -54zM407 610l19 111h44l-19 -111h-44zM236 610
l19 111h44l-19 -111h-44z" />
    <glyph glyph-name="divide" unicode="&#xf7;" 
d="M67 335v40h485v-40h-485zM309 125q-18 0 -30.5 12.5t-12.5 31.5q0 17 12.5 29.5t30.5 12.5q17 0 30 -12.5t13 -29.5q0 -19 -13 -31.5t-30 -12.5zM309 501q-18 0 -30.5 12.5t-12.5 31.5q0 17 12.5 29.5t30.5 12.5q17 0 30 -12.5t13 -29.5q0 -19 -13 -31.5t-30 -12.5z" />
    <glyph glyph-name="oslash" unicode="&#xf8;" horiz-adv-x="608" 
d="M55 -48l-29 24l76 90q-51 63 -51 164q0 130 74.5 220t198.5 90q83 0 145 -43l69 81l30 -24l-70 -83q61 -67 61 -172q0 -130 -75 -220.5t-199 -90.5q-96 0 -156 51zM285 32q106 0 163.5 77t57.5 190q0 81 -41 134l-305 -358q46 -43 125 -43zM136 105l302 355
q-46 36 -114 36q-106 0 -163 -76.5t-57 -189.5q0 -75 32 -125z" />
    <glyph glyph-name="ugrave" unicode="&#xf9;" horiz-adv-x="582" 
d="M232 -12q-76 0 -120.5 39t-44.5 111q0 30 7 67l56 321h50l-54 -310q-7 -40 -7 -68q0 -59 32.5 -87.5t88.5 -28.5q77 0 128.5 53t64.5 127l55 314h50l-79 -446q-6 -31 -13 -80h-50l17 91h-2q-22 -41 -68 -72t-111 -31zM341 601l-125 129h67l100 -129h-42z" />
    <glyph glyph-name="uacute" unicode="&#xfa;" horiz-adv-x="582" 
d="M232 -12q-76 0 -120.5 39t-44.5 111q0 30 7 67l56 321h50l-54 -310q-7 -40 -7 -68q0 -59 32.5 -87.5t88.5 -28.5q77 0 128.5 53t64.5 127l55 314h50l-79 -446q-6 -31 -13 -80h-50l17 91h-2q-22 -41 -68 -72t-111 -31zM286 601l123 129h72l-146 -129h-49z" />
    <glyph glyph-name="ucircumflex" unicode="&#xfb;" horiz-adv-x="582" 
d="M232 -12q-76 0 -120.5 39t-44.5 111q0 30 7 67l56 321h50l-54 -310q-7 -40 -7 -68q0 -59 32.5 -87.5t88.5 -28.5q77 0 128.5 53t64.5 127l55 314h50l-79 -446q-6 -31 -13 -80h-50l17 91h-2q-22 -41 -68 -72t-111 -31zM214 601l125 129h55l79 -129h-40l-70 94l-102 -94
h-47z" />
    <glyph glyph-name="udieresis" unicode="&#xfc;" horiz-adv-x="582" 
d="M232 -12q-76 0 -120.5 39t-44.5 111q0 30 7 67l56 321h50l-54 -310q-7 -40 -7 -68q0 -59 32.5 -87.5t88.5 -28.5q77 0 128.5 53t64.5 127l55 314h50l-79 -446q-6 -31 -13 -80h-50l17 91h-2q-22 -41 -68 -72t-111 -31zM410 610l19 111h44l-19 -111h-44zM239 610l19 111h44
l-19 -111h-44z" />
    <glyph glyph-name="yacute" unicode="&#xfd;" horiz-adv-x="495" 
d="M33 -190q-21 0 -44 4v46q27 -4 46 -4q37 0 58.5 15t47.5 60l36 63l-112 532h56l47 -253q7 -37 21.5 -106.5t21.5 -109.5h3q58 113 117 222l134 247h56l-348 -627q-26 -48 -58.5 -68.5t-81.5 -20.5zM237 601l123 129h72l-146 -129h-49z" />
    <glyph glyph-name="thorn" unicode="&#xfe;" horiz-adv-x="639" 
d="M12 -188l162 918h50l-32 -182q-20 -100 -23 -111h3q67 102 194 102q96 0 160 -63.5t64 -172.5q0 -136 -78 -226t-197 -90q-77 0 -131.5 40t-67.5 92h-2q-7 -54 -13 -87l-39 -220h-50zM315 31q98 0 160.5 78t62.5 191q0 87 -49 141t-133 54q-106 0 -163.5 -81t-57.5 -193
q0 -86 47 -138t133 -52z" />
    <glyph glyph-name="ydieresis" unicode="&#xff;" horiz-adv-x="495" 
d="M33 -190q-21 0 -44 4v46q27 -4 46 -4q37 0 58.5 15t47.5 60l36 63l-112 532h56l47 -253q7 -37 21.5 -106.5t21.5 -109.5h3q58 113 117 222l134 247h56l-348 -627q-26 -48 -58.5 -68.5t-81.5 -20.5zM365 610l19 111h44l-19 -111h-44zM194 610l19 111h44l-19 -111h-44z" />
    <glyph glyph-name="Amacron" unicode="&#x100;" horiz-adv-x="663" 
d="M-39 0l429 730h51l163 -730h-53l-49 232h-353l-135 -232h-53zM176 278h315l-40 191q-8 35 -21.5 103t-21.5 103h-3q-85 -150 -120 -210zM292 856l7 39h254l-7 -39h-254z" />
    <glyph glyph-name="amacron" unicode="&#x101;" horiz-adv-x="555" 
d="M210 -12q-82 0 -131 36t-49 105q0 41 14.5 69.5t46 46.5t65 28.5t87.5 20.5l150 27q22 5 29.5 8t14 16t6.5 39q0 49 -36 80t-102 31q-70 0 -108 -29t-60 -92l-50 6q16 73 74 116t144 43q89 0 138 -41.5t49 -113.5q0 -22 -10 -85l-44 -249q-7 -34 -8 -50h-49l6 29l11 50
h-2q-30 -43 -78.5 -67t-107.5 -24zM210 31q80 0 138 44.5t70 123.5l8 53q3 23 8 34q-8 -2 -53 -10l-124 -23q-33 -6 -51.5 -10.5t-45 -14t-41 -21.5t-25 -32t-10.5 -46q0 -45 34.5 -71.5t91.5 -26.5zM196 654l7 39h254l-7 -39h-254z" />
    <glyph glyph-name="Abreve" unicode="&#x102;" horiz-adv-x="663" 
d="M-39 0l429 730h51l163 -730h-53l-49 232h-353l-135 -232h-53zM176 278h315l-40 191q-8 35 -21.5 103t-21.5 103h-3q-85 -150 -120 -210zM426 812q-54 0 -84.5 27t-31.5 78l33 9q5 -75 86 -75t111 75l32 -9q-39 -105 -146 -105z" />
    <glyph glyph-name="abreve" unicode="&#x103;" horiz-adv-x="555" 
d="M210 -12q-82 0 -131 36t-49 105q0 41 14.5 69.5t46 46.5t65 28.5t87.5 20.5l150 27q22 5 29.5 8t14 16t6.5 39q0 49 -36 80t-102 31q-70 0 -108 -29t-60 -92l-50 6q16 73 74 116t144 43q89 0 138 -41.5t49 -113.5q0 -22 -10 -85l-44 -249q-7 -34 -8 -50h-49l6 29l11 50
h-2q-30 -43 -78.5 -67t-107.5 -24zM210 31q80 0 138 44.5t70 123.5l8 53q3 23 8 34q-8 -2 -53 -10l-124 -23q-33 -6 -51.5 -10.5t-45 -14t-41 -21.5t-25 -32t-10.5 -46q0 -45 34.5 -71.5t91.5 -26.5zM330 609q-54 0 -84.5 27t-31.5 78l33 9q5 -75 86 -75t111 75l32 -9
q-39 -105 -146 -105z" />
    <glyph glyph-name="Aogonek" unicode="&#x104;" horiz-adv-x="663" 
d="M550 -192q-39 0 -62.5 17.5t-23.5 49.5q0 36 26.5 68.5t64.5 56.5h-4l-49 232h-353l-135 -232h-53l429 730h51l163 -730q-95 -67 -95 -117q0 -37 46 -37q15 0 35 9l18 -34q-25 -13 -58 -13zM176 278h315l-40 191q-8 35 -21.5 103t-21.5 103h-3l-120 -210z" />
    <glyph glyph-name="aogonek" unicode="&#x105;" horiz-adv-x="555" 
d="M376 -192q-39 0 -62.5 17.5t-23.5 49.5q0 36 26.5 68.5t64.5 56.5l6 29l11 50h-2q-30 -43 -78.5 -67t-107.5 -24q-82 0 -131 36t-49 105q0 41 14.5 69.5t46 46.5t65 28.5t87.5 20.5l150 27q22 5 29.5 8t14 16t6.5 39q0 49 -36 80t-102 31q-70 0 -108 -29t-60 -92l-50 6
q16 73 74 116t144 43q89 0 138 -41.5t49 -113.5q0 -22 -10 -85l-44 -249q-7 -34 -8 -50q-95 -67 -95 -117q0 -37 46 -37q15 0 35 9l18 -34q-25 -13 -58 -13zM210 31q80 0 138 44.5t70 123.5l8 53q3 23 8 34q-8 -2 -53 -10l-124 -23q-33 -6 -51.5 -10.5t-45 -14t-41 -21.5
t-25 -32t-10.5 -46q0 -45 34.5 -71.5t91.5 -26.5z" />
    <glyph glyph-name="Cacute" unicode="&#x106;" horiz-adv-x="741" 
d="M389 -14q-140 0 -228.5 88t-88.5 248q0 114 42 208.5t127 154t198 59.5t189.5 -51.5t109.5 -146.5l-47 -12q-28 79 -92.5 122t-159.5 43q-77 0 -139 -32t-100 -85.5t-58 -120t-20 -139.5q0 -139 70.5 -215t196.5 -76q182 0 268 157l44 -14q-97 -188 -312 -188zM413 803
l123 129h72l-146 -129h-49z" />
    <glyph glyph-name="cacute" unicode="&#x107;" horiz-adv-x="551" 
d="M279 -12q-108 0 -167.5 65.5t-59.5 176.5q0 132 71 221t193 89q83 0 136 -38t75 -106l-46 -19q-16 56 -58.5 87.5t-106.5 31.5q-105 0 -158 -75.5t-53 -190.5q0 -91 44 -144.5t131 -53.5q122 0 177 109l43 -19q-33 -62 -90 -98t-131 -36zM293 601l123 129h72l-146 -129
h-49z" />
    <glyph glyph-name="Ccircumflex" unicode="&#x108;" horiz-adv-x="741" 
d="M389 -14q-140 0 -228.5 88t-88.5 248q0 114 42 208.5t127 154t198 59.5t189.5 -51.5t109.5 -146.5l-47 -12q-28 79 -92.5 122t-159.5 43q-77 0 -139 -32t-100 -85.5t-58 -120t-20 -139.5q0 -139 70.5 -215t196.5 -76q182 0 268 157l44 -14q-97 -188 -312 -188zM337 803
l125 129h55l79 -129h-40l-70 94l-102 -94h-47z" />
    <glyph glyph-name="ccircumflex" unicode="&#x109;" horiz-adv-x="551" 
d="M279 -12q-108 0 -167.5 65.5t-59.5 176.5q0 132 71 221t193 89q83 0 136 -38t75 -106l-46 -19q-16 56 -58.5 87.5t-106.5 31.5q-105 0 -158 -75.5t-53 -190.5q0 -91 44 -144.5t131 -53.5q122 0 177 109l43 -19q-33 -62 -90 -98t-131 -36zM209 601l125 129h55l79 -129h-40
l-70 94l-102 -94h-47z" />
    <glyph glyph-name="Cdotaccent" unicode="&#x10a;" horiz-adv-x="741" 
d="M389 -14q-140 0 -228.5 88t-88.5 248q0 114 42 208.5t127 154t198 59.5t189.5 -51.5t109.5 -146.5l-47 -12q-28 79 -92.5 122t-159.5 43q-77 0 -139 -32t-100 -85.5t-58 -120t-20 -139.5q0 -139 70.5 -215t196.5 -76q182 0 268 157l44 -14q-97 -188 -312 -188zM440 812
l19 111h44l-19 -111h-44z" />
    <glyph glyph-name="cdotaccent" unicode="&#x10b;" horiz-adv-x="551" 
d="M279 -12q-108 0 -167.5 65.5t-59.5 176.5q0 132 71 221t193 89q83 0 136 -38t75 -106l-46 -19q-16 56 -58.5 87.5t-106.5 31.5q-105 0 -158 -75.5t-53 -190.5q0 -91 44 -144.5t131 -53.5q122 0 177 109l43 -19q-33 -62 -90 -98t-131 -36zM308 610l19 111h44l-19 -111h-44
z" />
    <glyph glyph-name="Ccaron" unicode="&#x10c;" horiz-adv-x="741" 
d="M389 -14q-140 0 -228.5 88t-88.5 248q0 114 42 208.5t127 154t198 59.5t189.5 -51.5t109.5 -146.5l-47 -12q-28 79 -92.5 122t-159.5 43q-77 0 -139 -32t-100 -85.5t-58 -120t-20 -139.5q0 -139 70.5 -215t196.5 -76q182 0 268 157l44 -14q-97 -188 -312 -188zM437 803
l-79 129h40l70 -94l102 94h47l-125 -129h-55z" />
    <glyph glyph-name="ccaron" unicode="&#x10d;" horiz-adv-x="551" 
d="M279 -12q-108 0 -167.5 65.5t-59.5 176.5q0 132 71 221t193 89q83 0 136 -38t75 -106l-46 -19q-16 56 -58.5 87.5t-106.5 31.5q-105 0 -158 -75.5t-53 -190.5q0 -91 44 -144.5t131 -53.5q122 0 177 109l43 -19q-33 -62 -90 -98t-131 -36zM302 601l-79 129h40l70 -94
l102 94h47l-125 -129h-55z" />
    <glyph glyph-name="Dcaron" unicode="&#x10e;" horiz-adv-x="752" 
d="M55 0l129 730h141q71 0 126.5 -7.5t106.5 -28t84.5 -54t53 -87t19.5 -125.5q0 -173 -91 -287q-68 -88 -163 -114.5t-246 -26.5h-160zM115 46h156q212 0 313 122q78 95 78 259q0 131 -74 194t-226 63h-134zM410 803l-79 129h40l70 -94l102 94h47l-125 -129h-55z" />
    <glyph glyph-name="dcaron" unicode="&#x10f;" horiz-adv-x="650" 
d="M658 561l70 169h57l-88 -169h-39zM275 -12q-98 0 -161.5 63.5t-63.5 172.5q0 136 78 226t197 90q76 0 130.5 -40t67.5 -92h2q6 47 24 146l31 176h49l-128 -730h-47l18 91h-3q-70 -103 -194 -103zM284 32q107 0 164 81t57 193q0 86 -47 138t-133 52q-98 0 -160.5 -78
t-62.5 -191q0 -87 49 -141t133 -54z" />
    <glyph glyph-name="Dcroat" unicode="&#x110;" horiz-adv-x="759" 
d="M62 0l64 361h-88l8 45h88l57 324h141q71 0 126.5 -7.5t106.5 -28t84.5 -54t53 -87t19.5 -125.5q0 -173 -91 -287q-68 -88 -163 -114.5t-246 -26.5h-160zM122 46h156q212 0 313 122q78 95 78 259q0 131 -74 194t-226 63h-134l-49 -278h233l-8 -45h-233z" />
    <glyph glyph-name="dslash" unicode="&#x111;" horiz-adv-x="638" 
d="M275 -12q-98 0 -161.5 63.5t-63.5 172.5q0 136 78 226t197 90q76 0 130.5 -40t67.5 -92h2q6 47 24 146l11 64h-168l7 40h168l13 72h49l-13 -72h43l-7 -40h-43l-108 -618h-47l18 91h-3q-70 -103 -194 -103zM284 32q107 0 164 81t57 193q0 86 -47 138t-133 52
q-98 0 -160.5 -78t-62.5 -191q0 -87 49 -141t133 -54z" />
    <glyph glyph-name="Emacron" unicode="&#x112;" horiz-adv-x="606" 
d="M55 0l129 730h444l-8 -46h-392l-49 -279h368l-9 -46h-368l-55 -313h404l-8 -46h-456zM284 856l7 39h254l-7 -39h-254z" />
    <glyph glyph-name="emacron" unicode="&#x113;" horiz-adv-x="583" 
d="M285 -12q-112 0 -172.5 65.5t-60.5 176.5q0 130 71 220t192 90q107 0 163 -64.5t56 -171.5q0 -20 -2 -42h-429q-1 -11 -1 -32q0 -91 47 -144.5t136 -53.5q127 0 186 110l48 -14q-35 -65 -95 -102.5t-139 -37.5zM108 306h375v3q0 86 -43 136.5t-125 50.5
q-85 0 -138.5 -52.5t-68.5 -137.5zM211 654l7 39h254l-7 -39h-254z" />
    <glyph glyph-name="Ebreve" unicode="&#x114;" horiz-adv-x="606" 
d="M55 0l129 730h444l-8 -46h-392l-49 -279h368l-9 -46h-368l-55 -313h404l-8 -46h-456zM412 812q-54 0 -84.5 27t-31.5 78l33 9q5 -75 86 -75t111 75l32 -9q-39 -105 -146 -105z" />
    <glyph glyph-name="ebreve" unicode="&#x115;" horiz-adv-x="583" 
d="M285 -12q-112 0 -172.5 65.5t-60.5 176.5q0 130 71 220t192 90q107 0 163 -64.5t56 -171.5q0 -20 -2 -42h-429q-1 -11 -1 -32q0 -91 47 -144.5t136 -53.5q127 0 186 110l48 -14q-35 -65 -95 -102.5t-139 -37.5zM108 306h375v3q0 86 -43 136.5t-125 50.5
q-85 0 -138.5 -52.5t-68.5 -137.5zM346 609q-54 0 -84.5 27t-31.5 78l33 9q5 -75 86 -75t111 75l32 -9q-39 -105 -146 -105z" />
    <glyph glyph-name="Edotaccent" unicode="&#x116;" horiz-adv-x="606" 
d="M55 0l129 730h444l-8 -46h-392l-49 -279h368l-9 -46h-368l-55 -313h404l-8 -46h-456zM377 812l19 111h44l-19 -111h-44z" />
    <glyph glyph-name="edotaccent" unicode="&#x117;" horiz-adv-x="583" 
d="M285 -12q-112 0 -172.5 65.5t-60.5 176.5q0 130 71 220t192 90q107 0 163 -64.5t56 -171.5q0 -20 -2 -42h-429q-1 -11 -1 -32q0 -91 47 -144.5t136 -53.5q127 0 186 110l48 -14q-35 -65 -95 -102.5t-139 -37.5zM108 306h375v3q0 86 -43 136.5t-125 50.5
q-85 0 -138.5 -52.5t-68.5 -137.5zM315 610l19 111h44l-19 -111h-44z" />
    <glyph glyph-name="Eogonek" unicode="&#x118;" horiz-adv-x="606" 
d="M55 0l129 730h444l-8 -46h-392l-49 -279h368l-9 -46h-368l-55 -313h404l-8 -46q-95 -67 -95 -117q0 -37 46 -37q15 0 35 9l18 -34q-25 -13 -58 -13q-39 0 -62.5 17.5t-23.5 49.5q0 36 26.5 68.5t64.5 56.5h-407z" />
    <glyph glyph-name="eogonek" unicode="&#x119;" horiz-adv-x="583" 
d="M312 -192q-39 0 -62.5 17.5t-23.5 49.5q0 59 73 114q-2 0 -6.5 -0.5t-7.5 -0.5q-112 0 -172.5 65.5t-60.5 176.5q0 130 71 220t192 90q107 0 163 -64.5t56 -171.5q0 -20 -2 -42h-429q-1 -11 -1 -32q0 -91 47 -144.5t136 -53.5q127 0 186 110l48 -14q-51 -98 -154 -128
q-94 -68 -94 -117q0 -37 46 -37q15 0 35 9l18 -34q-25 -13 -58 -13zM108 306h375v3q0 86 -43 136.5t-125 50.5q-85 0 -138.5 -52.5t-68.5 -137.5z" />
    <glyph glyph-name="Ecaron" unicode="&#x11a;" horiz-adv-x="606" 
d="M55 0l129 730h444l-8 -46h-392l-49 -279h368l-9 -46h-368l-55 -313h404l-8 -46h-456zM381 803l-79 129h40l70 -94l102 94h47l-125 -129h-55z" />
    <glyph glyph-name="ecaron" unicode="&#x11b;" horiz-adv-x="583" 
d="M285 -12q-112 0 -172.5 65.5t-60.5 176.5q0 130 71 220t192 90q107 0 163 -64.5t56 -171.5q0 -20 -2 -42h-429q-1 -11 -1 -32q0 -91 47 -144.5t136 -53.5q127 0 186 110l48 -14q-35 -65 -95 -102.5t-139 -37.5zM108 306h375v3q0 86 -43 136.5t-125 50.5
q-85 0 -138.5 -52.5t-68.5 -137.5zM308 601l-79 129h40l70 -94l102 94h47l-125 -129h-55z" />
    <glyph glyph-name="Gcircumflex" unicode="&#x11c;" horiz-adv-x="782" 
d="M381 -14q-132 0 -220.5 87.5t-88.5 254.5q0 82 25 157t71 133t117 92t156 34q113 0 190 -52t110 -147l-46 -12q-28 79 -92.5 122.5t-161.5 43.5q-77 0 -139 -31t-100.5 -83.5t-59 -118.5t-20.5 -138q0 -142 70 -219.5t190 -77.5q56 0 103 17t79.5 45t57.5 66t39.5 76
t23.5 80h-292l8 42h335l-60 -356h-47l13 73q10 52 17 76h-3q-43 -77 -113.5 -120.5t-161.5 -43.5zM334 803l125 129h55l79 -129h-40l-70 94l-102 -94h-47z" />
    <glyph glyph-name="gcircumflex" unicode="&#x11d;" horiz-adv-x="640" 
d="M257 -198q-101 0 -161.5 43.5t-70.5 111.5l51 11q10 -48 53 -85t128 -37q91 0 137.5 43.5t67.5 143.5q4 19 8 39.5t6.5 31.5t5.5 22h-4q-23 -45 -77.5 -77t-118.5 -32q-107 0 -166 62t-59 174q0 120 71 203.5t192 83.5q83 0 135 -38t72 -96h3l12 78l7 42h49
q-1 -3 -7.5 -37.5t-10.5 -58.5l-67 -390q-23 -124 -80 -181t-176 -57zM282 61q103 0 164.5 75.5t61.5 180.5q0 81 -51.5 130t-134.5 49q-97 0 -155 -69.5t-58 -173.5q0 -94 46.5 -143t126.5 -49zM210 601l125 129h55l79 -129h-40l-70 94l-102 -94h-47z" />
    <glyph glyph-name="Gbreve" unicode="&#x11e;" horiz-adv-x="782" 
d="M381 -14q-132 0 -220.5 87.5t-88.5 254.5q0 82 25 157t71 133t117 92t156 34q113 0 190 -52t110 -147l-46 -12q-28 79 -92.5 122.5t-161.5 43.5q-77 0 -139 -31t-100.5 -83.5t-59 -118.5t-20.5 -138q0 -142 70 -219.5t190 -77.5q56 0 103 17t79.5 45t57.5 66t39.5 76
t23.5 80h-292l8 42h335l-60 -356h-47l13 73q10 52 17 76h-3q-43 -77 -113.5 -120.5t-161.5 -43.5zM478 812q-54 0 -84.5 27t-31.5 78l33 9q5 -75 86 -75t111 75l32 -9q-39 -105 -146 -105z" />
    <glyph glyph-name="gbreve" unicode="&#x11f;" horiz-adv-x="640" 
d="M257 -198q-101 0 -161.5 43.5t-70.5 111.5l51 11q10 -48 53 -85t128 -37q91 0 137.5 43.5t67.5 143.5q4 19 8 39.5t6.5 31.5t5.5 22h-4q-23 -45 -77.5 -77t-118.5 -32q-107 0 -166 62t-59 174q0 120 71 203.5t192 83.5q83 0 135 -38t72 -96h3l12 78l7 42h49
q-1 -3 -7.5 -37.5t-10.5 -58.5l-67 -390q-23 -124 -80 -181t-176 -57zM282 61q103 0 164.5 75.5t61.5 180.5q0 81 -51.5 130t-134.5 49q-97 0 -155 -69.5t-58 -173.5q0 -94 46.5 -143t126.5 -49zM367 609q-54 0 -84.5 27t-31.5 78l33 9q5 -75 86 -75t111 75l32 -9
q-39 -105 -146 -105z" />
    <glyph glyph-name="Gdotaccent" unicode="&#x120;" horiz-adv-x="782" 
d="M381 -14q-132 0 -220.5 87.5t-88.5 254.5q0 82 25 157t71 133t117 92t156 34q113 0 190 -52t110 -147l-46 -12q-28 79 -92.5 122.5t-161.5 43.5q-77 0 -139 -31t-100.5 -83.5t-59 -118.5t-20.5 -138q0 -142 70 -219.5t190 -77.5q56 0 103 17t79.5 45t57.5 66t39.5 76
t23.5 80h-292l8 42h335l-60 -356h-47l13 73q10 52 17 76h-3q-43 -77 -113.5 -120.5t-161.5 -43.5zM443 812l19 111h44l-19 -111h-44z" />
    <glyph glyph-name="gdotaccent" unicode="&#x121;" horiz-adv-x="640" 
d="M257 -198q-101 0 -161.5 43.5t-70.5 111.5l51 11q10 -48 53 -85t128 -37q91 0 137.5 43.5t67.5 143.5q4 19 8 39.5t6.5 31.5t5.5 22h-4q-23 -45 -77.5 -77t-118.5 -32q-107 0 -166 62t-59 174q0 120 71 203.5t192 83.5q83 0 135 -38t72 -96h3l12 78l7 42h49
q-1 -3 -7.5 -37.5t-10.5 -58.5l-67 -390q-23 -124 -80 -181t-176 -57zM282 61q103 0 164.5 75.5t61.5 180.5q0 81 -51.5 130t-134.5 49q-97 0 -155 -69.5t-58 -173.5q0 -94 46.5 -143t126.5 -49zM325 610l19 111h44l-19 -111h-44z" />
    <glyph glyph-name="uni0122" unicode="&#x122;" horiz-adv-x="782" 
d="M381 -14q-132 0 -220.5 87.5t-88.5 254.5q0 82 25 157t71 133t117 92t156 34q113 0 190 -52t110 -147l-46 -12q-28 79 -92.5 122.5t-161.5 43.5q-77 0 -139 -31t-100.5 -83.5t-59 -118.5t-20.5 -138q0 -142 70 -219.5t190 -77.5q56 0 103 17t79.5 45t57.5 66t39.5 76
t23.5 80h-292l8 42h335l-60 -356h-47l13 73q10 52 17 76h-3q-43 -77 -113.5 -120.5t-161.5 -43.5zM311 -212l5 26q15 2 22.5 12t12.5 36h-27l16 89h56l-11 -61q-4 -23 -6 -32.5t-7.5 -25.5t-12.5 -23t-19 -13.5t-29 -7.5z" />
    <glyph glyph-name="uni0123" unicode="&#x123;" horiz-adv-x="640" 
d="M257 -198q-101 0 -161.5 43.5t-70.5 111.5l51 11q10 -48 53 -85t128 -37q91 0 137.5 43.5t67.5 143.5q4 19 8 39.5t6.5 31.5t5.5 22h-4q-23 -45 -77.5 -77t-118.5 -32q-107 0 -166 62t-59 174q0 120 71 203.5t192 83.5q83 0 135 -38t72 -96h3l12 78l7 42h49
q-1 -3 -7.5 -37.5t-10.5 -58.5l-67 -390q-23 -124 -80 -181t-176 -57zM282 61q103 0 164.5 75.5t61.5 180.5q0 81 -51.5 130t-134.5 49q-97 0 -155 -69.5t-58 -173.5q0 -94 46.5 -143t126.5 -49zM318 602l11 61q5 24 7 33t7.5 25.5t12 23t18.5 13t29 7.5l-5 -26
q-15 -2 -22.5 -12t-12.5 -36h27l-16 -89h-56z" />
    <glyph glyph-name="Hcircumflex" unicode="&#x124;" horiz-adv-x="738" 
d="M55 0l129 730h52l-57 -324h426l57 324h53l-129 -730h-53l64 360h-426l-64 -360h-52zM316 803l125 129h55l79 -129h-40l-70 94l-102 -94h-47z" />
    <glyph glyph-name="hcircumflex" unicode="&#x125;" horiz-adv-x="590" 
d="M45 0l129 730h50l-29 -162q-3 -17 -10 -56.5t-14 -74.5h2q23 40 70.5 71.5t112.5 31.5q77 0 122.5 -39.5t45.5 -110.5q0 -30 -7 -67l-57 -323h-50l55 312q7 40 7 68q0 58 -33.5 87t-90.5 29q-77 0 -130.5 -53.5t-66.5 -126.5l-56 -316h-50zM234 803l125 129h55l79 -129
h-40l-70 94l-102 -94h-47z" />
    <glyph glyph-name="Hbar" unicode="&#x126;" horiz-adv-x="738" 
d="M55 0l129 730h52l-23 -129h426l23 129h53l-129 -730h-53l64 360h-426l-64 -360h-52zM179 406h426l27 156h-426z" />
    <glyph glyph-name="hbar" unicode="&#x127;" horiz-adv-x="590" 
d="M45 0l109 618h-41l7 40h41l13 72h50l-13 -72h169l-7 -40h-169l-9 -50q-3 -17 -10 -56.5t-14 -74.5h2q23 40 70.5 71.5t112.5 31.5q77 0 122.5 -39.5t45.5 -110.5q0 -30 -7 -67l-57 -323h-50l55 312q7 40 7 68q0 58 -33.5 87t-90.5 29q-77 0 -130.5 -53.5t-66.5 -126.5
l-56 -316h-50z" />
    <glyph glyph-name="Itilde" unicode="&#x128;" horiz-adv-x="259" 
d="M55 0l129 730h52l-129 -730h-52zM116 825h-32q12 90 79 90q23 0 63 -18l26 -12q36 -17 52 -17q32 0 46 50h32q-12 -90 -79 -90q-23 0 -63 18l-25 11q-40 17 -53 17q-32 0 -46 -49z" />
    <glyph glyph-name="itilde" unicode="&#x129;" horiz-adv-x="232" 
d="M45 0l93 526h50l-93 -526h-50zM66 625h-32q12 90 79 90q23 0 63 -18l26 -12q36 -17 52 -17q32 0 46 50h32q-12 -90 -79 -90q-23 0 -63 18l-25 11q-40 17 -53 17q-32 0 -46 -49z" />
    <glyph glyph-name="Imacron" unicode="&#x12a;" horiz-adv-x="259" 
d="M55 0l129 730h52l-129 -730h-52zM102 856l7 39h254l-7 -39h-254z" />
    <glyph glyph-name="imacron" unicode="&#x12b;" horiz-adv-x="232" 
d="M45 0l93 526h50l-93 -526h-50zM53 654l7 39h254l-7 -39h-254z" />
    <glyph glyph-name="Ibreve" unicode="&#x12c;" horiz-adv-x="259" 
d="M55 0l129 730h52l-129 -730h-52zM221 812q-54 0 -84.5 27t-31.5 78l33 9q5 -75 86 -75t111 75l32 -9q-39 -105 -146 -105z" />
    <glyph glyph-name="ibreve" unicode="&#x12d;" horiz-adv-x="232" 
d="M45 0l93 526h50l-93 -526h-50zM179 609q-54 0 -84.5 27t-31.5 78l33 9q5 -75 86 -75t111 75l32 -9q-39 -105 -146 -105z" />
    <glyph glyph-name="Iogonek" unicode="&#x12e;" horiz-adv-x="259" 
d="M55 0l129 730h52l-129 -730q-95 -67 -95 -117q0 -37 46 -37q15 0 35 9l18 -34q-25 -13 -58 -13q-39 0 -62.5 17.5t-23.5 49.5q0 36 26.5 68.5t64.5 56.5h-3z" />
    <glyph glyph-name="iogonek" unicode="&#x12f;" horiz-adv-x="232" 
d="M45 0l93 526h50l-93 -526q-95 -67 -95 -117q0 -37 46 -37q15 0 35 9l18 -34q-25 -13 -58 -13q-39 0 -62.5 17.5t-23.5 49.5q0 36 26.5 68.5t64.5 56.5h-1zM152 607l22 123h50l-22 -123h-50z" />
    <glyph glyph-name="Idot" unicode="&#x130;" horiz-adv-x="259" 
d="M55 0l129 730h52l-129 -730h-52zM200 812l19 111h44l-19 -111h-44z" />
    <glyph glyph-name="dotlessi" unicode="&#x131;" horiz-adv-x="232" 
d="M45 0l93 526h50l-93 -526h-50z" />
    <glyph glyph-name="IJ" unicode="&#x132;" horiz-adv-x="678" 
d="M55 0l129 730h52l-129 -730h-52zM368 -14q-81 0 -122.5 42.5t-41.5 116.5q0 10 1 18l50 4v-14q0 -124 116 -124q70 0 100 45t50 151l89 505h52l-92 -524q-10 -54 -22.5 -90.5t-35 -68t-58 -46.5t-86.5 -15z" />
    <glyph glyph-name="ij" unicode="&#x133;" horiz-adv-x="463" 
d="M45 0l93 526h50l-93 -526h-50zM152 607l22 123h50l-22 -123h-50zM173 -190q-21 0 -39 3l9 43q18 -2 30 -2q44 0 64 20t29 72l103 580h50l-103 -581q-12 -73 -44 -104t-99 -31zM383 607l22 123h50l-22 -123h-50z" />
    <glyph glyph-name="Jcircumflex" unicode="&#x134;" horiz-adv-x="474" 
d="M164 -14q-81 0 -122.5 42.5t-41.5 116.5q0 10 1 18l50 4v-14q0 -124 116 -124q70 0 100 45t50 151l89 505h52l-92 -524q-10 -54 -22.5 -90.5t-35 -68t-58 -46.5t-86.5 -15zM306 803l125 129h55l79 -129h-40l-70 94l-102 -94h-47z" />
    <glyph glyph-name="jcircumflex" unicode="&#x135;" horiz-adv-x="240" 
d="M-50 -190q-21 0 -39 3l9 43q18 -2 30 -2q44 0 64 20t29 72l103 580h50l-103 -581q-12 -73 -44 -104t-99 -31zM51 601l125 129h55l79 -129h-40l-70 94l-102 -94h-47z" />
    <glyph glyph-name="uni0136" unicode="&#x136;" horiz-adv-x="608" 
d="M55 0l129 730h52l-40 -226q-3 -14 -12.5 -68t-14.5 -74q7 7 24.5 21.5t46.5 38.5t49 41l318 267h70l-392 -327l273 -403h-61l-252 370l-85 -69l-53 -301h-52zM245 -212l5 26q15 2 22.5 12t12.5 36h-27l16 89h56l-11 -61q-4 -23 -6 -32.5t-7.5 -25.5t-12.5 -23t-19 -13.5
t-29 -7.5z" />
    <glyph glyph-name="uni0137" unicode="&#x137;" horiz-adv-x="491" 
d="M45 0l129 730h50l-55 -312q-6 -29 -16 -87.5t-14 -75.5q33 30 125 109l186 162h68l-298 -253l226 -273h-65l-198 244l-53 -44l-35 -200h-50zM173 -212l5 26q15 2 22.5 12t12.5 36h-27l16 89h56l-11 -61q-4 -23 -6 -32.5t-7.5 -25.5t-12.5 -23t-19 -13.5t-29 -7.5z" />
    <glyph glyph-name="kgreenlandic" unicode="&#x138;" horiz-adv-x="491" 
d="M45 0l93 526h50l-19 -108q-6 -29 -16 -87.5t-14 -75.5q33 30 125 109l186 162h68l-298 -253l226 -273h-65l-198 244l-53 -44l-35 -200h-50z" />
    <glyph glyph-name="Lacute" unicode="&#x139;" horiz-adv-x="528" 
d="M55 0l129 730h52l-121 -684h362l-8 -46h-414zM180 803l123 129h72l-146 -129h-49z" />
    <glyph glyph-name="lacute" unicode="&#x13a;" horiz-adv-x="232" 
d="M45 0l129 730h50l-129 -730h-50zM182 803l123 129h72l-146 -129h-49z" />
    <glyph glyph-name="uni013B" unicode="&#x13b;" horiz-adv-x="528" 
d="M55 0l129 730h52l-121 -684h362l-8 -46h-414zM213 -212l5 26q15 2 22.5 12t12.5 36h-27l16 89h56l-11 -61q-4 -23 -6 -32.5t-7.5 -25.5t-12.5 -23t-19 -13.5t-29 -7.5z" />
    <glyph glyph-name="uni013C" unicode="&#x13c;" horiz-adv-x="232" 
d="M45 0l129 730h50l-129 -730h-50zM5 -212l5 26q15 2 22.5 12t12.5 36h-27l16 89h56l-11 -61q-4 -23 -6 -32.5t-7.5 -25.5t-12.5 -23t-19 -13.5t-29 -7.5z" />
    <glyph glyph-name="Lcaron" unicode="&#x13d;" horiz-adv-x="529" 
d="M55 0l129 730h52l-121 -684h362l-8 -46h-414zM333 561l70 169h57l-88 -169h-39z" />
    <glyph glyph-name="lcaron" unicode="&#x13e;" horiz-adv-x="244" 
d="M45 0l129 730h50l-129 -730h-50zM254 561l70 169h57l-88 -169h-39z" />
    <glyph glyph-name="Ldot" unicode="&#x13f;" horiz-adv-x="529" 
d="M55 0l129 730h52l-121 -684h362l-8 -46h-414zM359 311l19 111h44l-19 -111h-44z" />
    <glyph glyph-name="ldot" unicode="&#x140;" horiz-adv-x="262" 
d="M45 0l129 730h50l-129 -730h-50zM234 311l19 111h44l-19 -111h-44z" />
    <glyph glyph-name="Lslash" unicode="&#x141;" horiz-adv-x="541" 
d="M68 0l41 232l-79 -58l9 50l79 59l79 447h52l-72 -408l224 168l-8 -52l-225 -168l-40 -224h362l-8 -46h-414z" />
    <glyph glyph-name="lslash" unicode="&#x142;" horiz-adv-x="267" 
d="M61 0l62 353l-69 -34l6 40l70 34l60 337h50l-56 -315l76 38l-7 -40l-76 -38l-66 -375h-50z" />
    <glyph glyph-name="Nacute" unicode="&#x143;" horiz-adv-x="765" 
d="M55 0l129 730h72l199 -420q8 -17 116 -251h2q9 58 28 166t23 129l66 376h52l-129 -730h-68l-199 421q-102 217 -120 258h-2q-5 -29 -26 -157.5t-30 -175.5l-61 -346h-52zM401 803l123 129h72l-146 -129h-49z" />
    <glyph glyph-name="nacute" unicode="&#x144;" horiz-adv-x="590" 
d="M45 0l79 446q6 31 13 80h50l-16 -89h2q23 40 70.5 71.5t112.5 31.5q77 0 122.5 -39.5t45.5 -110.5q0 -30 -7 -67l-57 -323h-50l55 312q7 40 7 68q0 58 -33.5 87t-90.5 29q-77 0 -130.5 -53.5t-66.5 -126.5l-56 -316h-50zM272 601l123 129h72l-146 -129h-49z" />
    <glyph glyph-name="uni0145" unicode="&#x145;" horiz-adv-x="765" 
d="M55 0l129 730h72l199 -420q8 -17 116 -251h2q9 58 28 166t23 129l66 376h52l-129 -730h-68l-199 421q-102 217 -120 258h-2q-5 -29 -26 -157.5t-30 -175.5l-61 -346h-52zM282 -212l5 26q15 2 22.5 12t12.5 36h-27l16 89h56l-11 -61q-4 -23 -6 -32.5t-7.5 -25.5t-12.5 -23
t-19 -13.5t-29 -7.5z" />
    <glyph glyph-name="uni0146" unicode="&#x146;" horiz-adv-x="590" 
d="M45 0l79 446q6 31 13 80h50l-16 -89h2q23 40 70.5 71.5t112.5 31.5q77 0 122.5 -39.5t45.5 -110.5q0 -30 -7 -67l-57 -323h-50l55 312q7 40 7 68q0 58 -33.5 87t-90.5 29q-77 0 -130.5 -53.5t-66.5 -126.5l-56 -316h-50zM196 -212l5 26q15 2 22.5 12t12.5 36h-27l16 89
h56l-11 -61q-4 -23 -6 -32.5t-7.5 -25.5t-12.5 -23t-19 -13.5t-29 -7.5z" />
    <glyph glyph-name="Ncaron" unicode="&#x147;" horiz-adv-x="765" 
d="M55 0l129 730h72l199 -420q8 -17 116 -251h2q9 58 28 166t23 129l66 376h52l-129 -730h-68l-199 421q-102 217 -120 258h-2q-5 -29 -26 -157.5t-30 -175.5l-61 -346h-52zM429 803l-79 129h40l70 -94l102 94h47l-125 -129h-55z" />
    <glyph glyph-name="ncaron" unicode="&#x148;" horiz-adv-x="590" 
d="M45 0l79 446q6 31 13 80h50l-16 -89h2q23 40 70.5 71.5t112.5 31.5q77 0 122.5 -39.5t45.5 -110.5q0 -30 -7 -67l-57 -323h-50l55 312q7 40 7 68q0 58 -33.5 87t-90.5 29q-77 0 -130.5 -53.5t-66.5 -126.5l-56 -316h-50zM319 601l-79 129h40l70 -94l102 94h47l-125 -129
h-55z" />
    <glyph glyph-name="napostrophe" unicode="&#x149;" horiz-adv-x="590" 
d="M45 0l79 446q6 31 13 80h50l-16 -89h2q23 40 70.5 71.5t112.5 31.5q77 0 122.5 -39.5t45.5 -110.5q0 -30 -7 -67l-57 -323h-50l55 312q7 40 7 68q0 58 -33.5 87t-90.5 29q-77 0 -130.5 -53.5t-66.5 -126.5l-56 -316h-50zM121 566l5 26q15 2 22.5 12t12.5 36h-27l16 89h56
l-11 -61q-4 -23 -6 -32.5t-7.5 -25.5t-12.5 -23t-19 -13.5t-29 -7.5z" />
    <glyph glyph-name="Eng" unicode="&#x14a;" horiz-adv-x="765" 
d="M432 -190q-74 0 -111.5 40t-37.5 109q0 9 1 18l50 4v-14q0 -114 101 -114q51 0 78.5 29.5t42.5 93.5l6 24h-17l-199 421q-102 217 -120 258h-2q-5 -29 -26 -157.5t-30 -175.5l-61 -346h-52l129 730h72l199 -420q8 -17 116 -251h2q9 58 28 166t23 129l66 376h52l-124 -706
q-18 -106 -57.5 -160t-128.5 -54z" />
    <glyph glyph-name="eng" unicode="&#x14b;" horiz-adv-x="590" 
d="M307 -190q-21 0 -39 3l9 43q18 -2 30 -2q44 0 64.5 20.5t29.5 72.5l64 365q7 40 7 68q0 58 -33.5 87t-90.5 29q-77 0 -130.5 -53.5t-66.5 -126.5l-56 -316h-50l79 446q6 31 13 80h50l-16 -89h2q23 40 70.5 71.5t112.5 31.5q77 0 122.5 -39.5t45.5 -110.5q0 -30 -7 -67
l-67 -378q-12 -73 -44 -104t-99 -31z" />
    <glyph glyph-name="Omacron" unicode="&#x14c;" horiz-adv-x="803" 
d="M390 -14q-142 0 -230 87t-88 250q0 113 42 207.5t127.5 154t198.5 59.5q149 0 237 -88t88 -237q0 -186 -101 -309.5t-274 -123.5zM390 31q107 0 182.5 56.5t109 142t33.5 189.5q0 130 -73.5 205t-201.5 75q-105 0 -179 -55.5t-107 -138.5t-33 -182q0 -140 71 -216
t198 -76zM341 856l7 39h254l-7 -39h-254z" />
    <glyph glyph-name="omacron" unicode="&#x14d;" horiz-adv-x="608" 
d="M285 -12q-110 0 -172 66t-62 176q0 130 74.5 220t198.5 90q109 0 172 -66t63 -175q0 -130 -75 -220.5t-199 -90.5zM285 32q106 0 163.5 77t57.5 190q0 91 -48 144t-134 53q-106 0 -163 -76.5t-57 -189.5q0 -90 47 -144t134 -54zM218 654l7 39h254l-7 -39h-254z" />
    <glyph glyph-name="Obreve" unicode="&#x14e;" horiz-adv-x="803" 
d="M390 -14q-142 0 -230 87t-88 250q0 113 42 207.5t127.5 154t198.5 59.5q149 0 237 -88t88 -237q0 -186 -101 -309.5t-274 -123.5zM390 31q107 0 182.5 56.5t109 142t33.5 189.5q0 130 -73.5 205t-201.5 75q-105 0 -179 -55.5t-107 -138.5t-33 -182q0 -140 71 -216
t198 -76zM459 812q-54 0 -84.5 27t-31.5 78l33 9q5 -75 86 -75t111 75l32 -9q-39 -105 -146 -105z" />
    <glyph glyph-name="obreve" unicode="&#x14f;" horiz-adv-x="608" 
d="M285 -12q-110 0 -172 66t-62 176q0 130 74.5 220t198.5 90q109 0 172 -66t63 -175q0 -130 -75 -220.5t-199 -90.5zM285 32q106 0 163.5 77t57.5 190q0 91 -48 144t-134 53q-106 0 -163 -76.5t-57 -189.5q0 -90 47 -144t134 -54zM331 609q-54 0 -84.5 27t-31.5 78l33 9
q5 -75 86 -75t111 75l32 -9q-39 -105 -146 -105z" />
    <glyph glyph-name="Ohungarumlaut" unicode="&#x150;" horiz-adv-x="803" 
d="M390 -14q-142 0 -230 87t-88 250q0 113 42 207.5t127.5 154t198.5 59.5q149 0 237 -88t88 -237q0 -186 -101 -309.5t-274 -123.5zM390 31q107 0 182.5 56.5t109 142t33.5 189.5q0 130 -73.5 205t-201.5 75q-105 0 -179 -55.5t-107 -138.5t-33 -182q0 -140 71 -216
t198 -76zM484 803l125 129h72l-148 -129h-49zM333 803l123 129h72l-146 -129h-49z" />
    <glyph glyph-name="ohungarumlaut" unicode="&#x151;" horiz-adv-x="608" 
d="M285 -12q-110 0 -172 66t-62 176q0 130 74.5 220t198.5 90q109 0 172 -66t63 -175q0 -130 -75 -220.5t-199 -90.5zM285 32q106 0 163.5 77t57.5 190q0 91 -48 144t-134 53q-106 0 -163 -76.5t-57 -189.5q0 -90 47 -144t134 -54zM370 601l125 129h72l-148 -129h-49z
M219 601l123 129h72l-146 -129h-49z" />
    <glyph glyph-name="OE" unicode="&#x152;" horiz-adv-x="1073" 
d="M374 -3q-134 0 -218 85t-84 242q0 170 99.5 289.5t268.5 119.5q134 0 204 -61l11 58h440l-8 -46h-389l-49 -279h365l-9 -46h-365l-55 -313h401l-8 -46h-452l6 37q-72 -40 -158 -40zM374 41q91 0 168 49l93 530q-69 69 -195 69q-79 0 -141.5 -30.5t-100.5 -82.5
t-57.5 -116.5t-19.5 -135.5q0 -132 70 -207.5t183 -75.5z" />
    <glyph glyph-name="oe" unicode="&#x153;" horiz-adv-x="1022" 
d="M283 -12q-110 0 -170.5 66t-60.5 176q0 130 73 220t197 90q79 0 132.5 -35.5t77.5 -99.5q73 135 222 135q107 0 163 -64.5t56 -171.5q0 -20 -2 -42h-429q-1 -11 -1 -32q0 -91 47 -144.5t136 -53.5q127 0 186 110l48 -14q-35 -65 -95 -102.5t-139 -37.5q-82 0 -136.5 36
t-79.5 100q-74 -136 -225 -136zM283 32q106 0 161 76.5t55 190.5q0 91 -46 144t-131 53q-106 0 -161.5 -76t-55.5 -190q0 -91 45.5 -144.5t132.5 -53.5zM547 306h375v3q0 86 -43 136.5t-125 50.5q-85 0 -138.5 -52.5t-68.5 -137.5z" />
    <glyph glyph-name="Racute" unicode="&#x154;" horiz-adv-x="659" 
d="M55 0l129 730h216q109 0 166 -33q71 -41 71 -133q0 -87 -48 -140.5t-137 -67.5v-2q53 -14 75 -50t22 -102q0 -4 -0.5 -13t-0.5 -14l-3 -65q0 -15 -1.5 -38t-1.5 -31q0 -27 9 -38l-1 -3h-58q-4 7 -4 25q0 2 2 52l4 65q2 32 2 44q0 79 -32 114t-115 35h-183l-59 -335h-52z
M174 381h174q121 0 176 43q62 46 62 135q0 69 -49 97t-146 28h-163zM352 803l123 129h72l-146 -129h-49z" />
    <glyph glyph-name="racute" unicode="&#x155;" horiz-adv-x="329" 
d="M45 0l81 458l11 68h49l-9 -51q-8 -41 -11 -53h2q18 50 62.5 79t99.5 29q19 0 28 -1l-9 -50q-11 1 -25 1q-146 0 -180 -199l-50 -281h-49zM183 601l123 129h72l-146 -129h-49z" />
    <glyph glyph-name="uni0156" unicode="&#x156;" horiz-adv-x="659" 
d="M55 0l129 730h216q109 0 166 -33q71 -41 71 -133q0 -87 -48 -140.5t-137 -67.5v-2q53 -14 75 -50t22 -102q0 -4 -0.5 -13t-0.5 -14l-3 -65q0 -15 -1.5 -38t-1.5 -31q0 -27 9 -38l-1 -3h-58q-4 7 -4 25q0 2 2 52l4 65q2 32 2 44q0 79 -32 114t-115 35h-183l-59 -335h-52z
M174 381h174q121 0 176 43q62 46 62 135q0 69 -49 97t-146 28h-163zM240 -212l5 26q15 2 22.5 12t12.5 36h-27l16 89h56l-11 -61q-4 -23 -6 -32.5t-7.5 -25.5t-12.5 -23t-19 -13.5t-29 -7.5z" />
    <glyph glyph-name="uni0157" unicode="&#x157;" horiz-adv-x="329" 
d="M45 0l81 458l11 68h49l-9 -51q-8 -41 -11 -53h2q18 50 62.5 79t99.5 29q19 0 28 -1l-9 -50q-11 1 -25 1q-146 0 -180 -199l-50 -281h-49zM6 -212l5 26q15 2 22.5 12t12.5 36h-27l16 89h56l-11 -61q-4 -23 -6 -32.5t-7.5 -25.5t-12.5 -23t-19 -13.5t-29 -7.5z" />
    <glyph glyph-name="Rcaron" unicode="&#x158;" horiz-adv-x="659" 
d="M55 0l129 730h216q109 0 166 -33q71 -41 71 -133q0 -87 -48 -140.5t-137 -67.5v-2q53 -14 75 -50t22 -102q0 -4 -0.5 -13t-0.5 -14l-3 -65q0 -15 -1.5 -38t-1.5 -31q0 -27 9 -38l-1 -3h-58q-4 7 -4 25q0 2 2 52l4 65q2 32 2 44q0 79 -32 114t-115 35h-183l-59 -335h-52z
M174 381h174q121 0 176 43q62 46 62 135q0 69 -49 97t-146 28h-163zM386 803l-79 129h40l70 -94l102 94h47l-125 -129h-55z" />
    <glyph glyph-name="rcaron" unicode="&#x159;" horiz-adv-x="329" 
d="M45 0l81 458l11 68h49l-9 -51q-8 -41 -11 -53h2q18 50 62.5 79t99.5 29q19 0 28 -1l-9 -50q-11 1 -25 1q-146 0 -180 -199l-50 -281h-49zM226 601l-79 129h40l70 -94l102 94h47l-125 -129h-55z" />
    <glyph glyph-name="Sacute" unicode="&#x15a;" horiz-adv-x="599" 
d="M290 -14q-108 0 -177.5 51t-81.5 150l49 7q8 -78 65 -121t145 -43q91 0 143 41.5t52 115.5q0 25 -9.5 47t-21 35.5t-37.5 29.5t-41 23t-50 23l-43 19q-92 42 -131.5 83t-39.5 115q0 80 62 131t166 51t166.5 -47.5t72.5 -137.5l-49 -7q-23 148 -190 148q-80 0 -128 -34.5
t-48 -101.5q0 -55 33.5 -87t110.5 -67l51 -24q98 -45 138.5 -84t40.5 -113q0 -92 -69 -147.5t-179 -55.5zM323 803l123 129h72l-146 -129h-49z" />
    <glyph glyph-name="sacute" unicode="&#x15b;" horiz-adv-x="498" 
d="M234 -13q-90 0 -146.5 39.5t-65.5 114.5l50 8q8 -58 50 -88t112 -30q73 0 109.5 28.5t36.5 79.5q0 22 -7.5 37.5t-26.5 27.5t-33.5 18.5t-45.5 18.5l-46 17q-72 26 -104.5 56.5t-32.5 85.5q0 61 47.5 100.5t130.5 39.5q81 0 135.5 -37.5t60.5 -101.5l-50 -8q-9 51 -47 77
t-99 26q-127 0 -127 -95q0 -34 21.5 -53t77.5 -42l59 -23q76 -29 108 -58.5t32 -85.5q0 -73 -56.5 -112.5t-142.5 -39.5zM242 601l123 129h72l-146 -129h-49z" />
    <glyph glyph-name="Scircumflex" unicode="&#x15c;" horiz-adv-x="599" 
d="M290 -14q-108 0 -177.5 51t-81.5 150l49 7q8 -78 65 -121t145 -43q91 0 143 41.5t52 115.5q0 25 -9.5 47t-21 35.5t-37.5 29.5t-41 23t-50 23l-43 19q-92 42 -131.5 83t-39.5 115q0 80 62 131t166 51t166.5 -47.5t72.5 -137.5l-49 -7q-23 148 -190 148q-80 0 -128 -34.5
t-48 -101.5q0 -55 33.5 -87t110.5 -67l51 -24q98 -45 138.5 -84t40.5 -113q0 -92 -69 -147.5t-179 -55.5zM233 803l125 129h55l79 -129h-40l-70 94l-102 -94h-47z" />
    <glyph glyph-name="scircumflex" unicode="&#x15d;" horiz-adv-x="498" 
d="M234 -13q-90 0 -146.5 39.5t-65.5 114.5l50 8q8 -58 50 -88t112 -30q73 0 109.5 28.5t36.5 79.5q0 22 -7.5 37.5t-26.5 27.5t-33.5 18.5t-45.5 18.5l-46 17q-72 26 -104.5 56.5t-32.5 85.5q0 61 47.5 100.5t130.5 39.5q81 0 135.5 -37.5t60.5 -101.5l-50 -8q-9 51 -47 77
t-99 26q-127 0 -127 -95q0 -34 21.5 -53t77.5 -42l59 -23q76 -29 108 -58.5t32 -85.5q0 -73 -56.5 -112.5t-142.5 -39.5zM162 601l125 129h55l79 -129h-40l-70 94l-102 -94h-47z" />
    <glyph glyph-name="Scedilla" unicode="&#x15e;" horiz-adv-x="599" 
d="M290 -14q-108 0 -177.5 51t-81.5 150l49 7q8 -78 65 -121t145 -43q91 0 143 41.5t52 115.5q0 25 -9.5 47t-21 35.5t-37.5 29.5t-41 23t-50 23l-43 19q-92 42 -131.5 83t-39.5 115q0 80 62 131t166 51t166.5 -47.5t72.5 -137.5l-49 -7q-23 148 -190 148q-80 0 -128 -34.5
t-48 -101.5q0 -55 33.5 -87t110.5 -67l51 -24q98 -45 138.5 -84t40.5 -113q0 -92 -69 -147.5t-179 -55.5zM160 -178l105 129h43l-88 -129h-60z" />
    <glyph glyph-name="scedilla" unicode="&#x15f;" horiz-adv-x="498" 
d="M234 -13q-90 0 -146.5 39.5t-65.5 114.5l50 8q8 -58 50 -88t112 -30q73 0 109.5 28.5t36.5 79.5q0 22 -7.5 37.5t-26.5 27.5t-33.5 18.5t-45.5 18.5l-46 17q-72 26 -104.5 56.5t-32.5 85.5q0 61 47.5 100.5t130.5 39.5q81 0 135.5 -37.5t60.5 -101.5l-50 -8q-9 51 -47 77
t-99 26q-127 0 -127 -95q0 -34 21.5 -53t77.5 -42l59 -23q76 -29 108 -58.5t32 -85.5q0 -73 -56.5 -112.5t-142.5 -39.5zM104 -178l105 129h43l-88 -129h-60z" />
    <glyph glyph-name="Scaron" unicode="&#x160;" horiz-adv-x="599" 
d="M290 -14q-108 0 -177.5 51t-81.5 150l49 7q8 -78 65 -121t145 -43q91 0 143 41.5t52 115.5q0 25 -9.5 47t-21 35.5t-37.5 29.5t-41 23t-50 23l-43 19q-92 42 -131.5 83t-39.5 115q0 80 62 131t166 51t166.5 -47.5t72.5 -137.5l-49 -7q-23 148 -190 148q-80 0 -128 -34.5
t-48 -101.5q0 -55 33.5 -87t110.5 -67l51 -24q98 -45 138.5 -84t40.5 -113q0 -92 -69 -147.5t-179 -55.5zM341 803l-79 129h40l70 -94l102 94h47l-125 -129h-55z" />
    <glyph glyph-name="scaron" unicode="&#x161;" horiz-adv-x="498" 
d="M234 -13q-90 0 -146.5 39.5t-65.5 114.5l50 8q8 -58 50 -88t112 -30q73 0 109.5 28.5t36.5 79.5q0 22 -7.5 37.5t-26.5 27.5t-33.5 18.5t-45.5 18.5l-46 17q-72 26 -104.5 56.5t-32.5 85.5q0 61 47.5 100.5t130.5 39.5q81 0 135.5 -37.5t60.5 -101.5l-50 -8q-9 51 -47 77
t-99 26q-127 0 -127 -95q0 -34 21.5 -53t77.5 -42l59 -23q76 -29 108 -58.5t32 -85.5q0 -73 -56.5 -112.5t-142.5 -39.5zM259 601l-79 129h40l70 -94l102 94h47l-125 -129h-55z" />
    <glyph glyph-name="uni0162" unicode="&#x162;" horiz-adv-x="558" 
d="M203 0l121 684h-239l8 46h531l-8 -46h-239l-121 -684h-53zM94 -178l105 129h43l-88 -129h-60z" />
    <glyph glyph-name="uni0163" unicode="&#x163;" horiz-adv-x="280" 
d="M189 0h-69q-43 18 -43 75q0 19 6 56l62 352h-91l7 43h92l25 144h51l-26 -144h107l-7 -43h-108l-60 -341q-7 -40 -7 -58q0 -60 63 -72zM2 -178l105 129h43l-88 -129h-60z" />
    <glyph glyph-name="Tcaron" unicode="&#x164;" horiz-adv-x="558" 
d="M203 0l121 684h-239l8 46h531l-8 -46h-239l-121 -684h-53zM340 803l-79 129h40l70 -94l102 94h47l-125 -129h-55z" />
    <glyph glyph-name="tcaron" unicode="&#x165;" horiz-adv-x="280" 
d="M189 0h-69q-43 18 -43 75q0 19 6 56l62 352h-91l7 43h92l25 144h51l-26 -144h107l-7 -43h-108l-60 -341q-7 -40 -7 -58q0 -60 63 -72zM263 561l70 169h57l-88 -169h-39z" />
    <glyph glyph-name="Tbar" unicode="&#x166;" horiz-adv-x="579" 
d="M213 0l63 356h-151l7 39h151l51 289h-239l8 46h531l-8 -46h-239l-51 -289h152l-7 -39h-152l-63 -356h-53z" />
    <glyph glyph-name="tbar" unicode="&#x167;" horiz-adv-x="298" 
d="M199 0h-69q-43 18 -43 75q0 19 6 56l30 172h-92l7 40h92l25 140h-91l7 43h92l25 144h51l-26 -144h107l-7 -43h-108l-25 -140h108l-7 -40h-108l-28 -161q-7 -40 -7 -58q0 -60 63 -72z" />
    <glyph glyph-name="Utilde" unicode="&#x168;" horiz-adv-x="708" 
d="M316 -14q-111 0 -170 52t-59 149q0 48 8 86l81 457h52l-79 -447q-9 -56 -9 -85q0 -167 185 -167q58 0 99.5 17t68.5 52t43 79t28 108l78 443h52l-82 -463q-25 -142 -93 -211.5t-203 -69.5zM322 825h-32q12 90 79 90q23 0 63 -18l26 -12q36 -17 52 -17q32 0 46 50h32
q-12 -90 -79 -90q-23 0 -63 18l-25 11q-40 17 -53 17q-32 0 -46 -49z" />
    <glyph glyph-name="utilde" unicode="&#x169;" horiz-adv-x="582" 
d="M232 -12q-76 0 -120.5 39t-44.5 111q0 30 7 67l56 321h50l-54 -310q-7 -40 -7 -68q0 -59 32.5 -87.5t88.5 -28.5q77 0 128.5 53t64.5 127l55 314h50l-79 -446q-6 -31 -13 -80h-50l17 91h-2q-22 -41 -68 -72t-111 -31zM228 625h-32q12 90 79 90q23 0 63 -18l26 -12
q36 -17 52 -17q32 0 46 50h32q-12 -90 -79 -90q-23 0 -63 18l-25 11q-40 17 -53 17q-32 0 -46 -49z" />
    <glyph glyph-name="Umacron" unicode="&#x16a;" horiz-adv-x="708" 
d="M316 -14q-111 0 -170 52t-59 149q0 48 8 86l81 457h52l-79 -447q-9 -56 -9 -85q0 -167 185 -167q58 0 99.5 17t68.5 52t43 79t28 108l78 443h52l-82 -463q-25 -142 -93 -211.5t-203 -69.5zM319 856l7 39h254l-7 -39h-254z" />
    <glyph glyph-name="umacron" unicode="&#x16b;" horiz-adv-x="582" 
d="M232 -12q-76 0 -120.5 39t-44.5 111q0 30 7 67l56 321h50l-54 -310q-7 -40 -7 -68q0 -59 32.5 -87.5t88.5 -28.5q77 0 128.5 53t64.5 127l55 314h50l-79 -446q-6 -31 -13 -80h-50l17 91h-2q-22 -41 -68 -72t-111 -31zM219 654l7 39h254l-7 -39h-254z" />
    <glyph glyph-name="Ubreve" unicode="&#x16c;" horiz-adv-x="708" 
d="M316 -14q-111 0 -170 52t-59 149q0 48 8 86l81 457h52l-79 -447q-9 -56 -9 -85q0 -167 185 -167q58 0 99.5 17t68.5 52t43 79t28 108l78 443h52l-82 -463q-25 -142 -93 -211.5t-203 -69.5zM437 812q-54 0 -84.5 27t-31.5 78l33 9q5 -75 86 -75t111 75l32 -9
q-39 -105 -146 -105z" />
    <glyph glyph-name="ubreve" unicode="&#x16d;" horiz-adv-x="582" 
d="M232 -12q-76 0 -120.5 39t-44.5 111q0 30 7 67l56 321h50l-54 -310q-7 -40 -7 -68q0 -59 32.5 -87.5t88.5 -28.5q77 0 128.5 53t64.5 127l55 314h50l-79 -446q-6 -31 -13 -80h-50l17 91h-2q-22 -41 -68 -72t-111 -31zM336 609q-54 0 -84.5 27t-31.5 78l33 9q5 -75 86 -75
t111 75l32 -9q-39 -105 -146 -105z" />
    <glyph glyph-name="Uring" unicode="&#x16e;" horiz-adv-x="708" 
d="M316 -14q-111 0 -170 52t-59 149q0 48 8 86l81 457h52l-79 -447q-9 -56 -9 -85q0 -167 185 -167q58 0 99.5 17t68.5 52t43 79t28 108l78 443h52l-82 -463q-25 -142 -93 -211.5t-203 -69.5zM443 779q-38 0 -63.5 26.5t-25.5 64.5q0 37 26 63t64 26t63 -26.5t25 -63.5
t-25.5 -63.5t-63.5 -26.5zM443 809q26 0 42.5 17.5t16.5 43.5q0 25 -16.5 42.5t-42.5 17.5t-42.5 -17.5t-16.5 -43.5t16.5 -43t42.5 -17z" />
    <glyph glyph-name="uring" unicode="&#x16f;" horiz-adv-x="582" 
d="M232 -12q-76 0 -120.5 39t-44.5 111q0 30 7 67l56 321h50l-54 -310q-7 -40 -7 -68q0 -59 32.5 -87.5t88.5 -28.5q77 0 128.5 53t64.5 127l55 314h50l-79 -446q-6 -31 -13 -80h-50l17 91h-2q-22 -41 -68 -72t-111 -31zM347 578q-38 0 -63.5 26.5t-25.5 64.5q0 37 26 63
t64 26t63 -26.5t25 -63.5t-25.5 -63.5t-63.5 -26.5zM347 608q26 0 42.5 17.5t16.5 43.5q0 25 -16.5 42.5t-42.5 17.5t-42.5 -17.5t-16.5 -43.5t16.5 -43t42.5 -17z" />
    <glyph glyph-name="Uhungarumlaut" unicode="&#x170;" horiz-adv-x="708" 
d="M316 -14q-111 0 -170 52t-59 149q0 48 8 86l81 457h52l-79 -447q-9 -56 -9 -85q0 -167 185 -167q58 0 99.5 17t68.5 52t43 79t28 108l78 443h52l-82 -463q-25 -142 -93 -211.5t-203 -69.5zM472 803l125 129h72l-148 -129h-49zM321 803l123 129h72l-146 -129h-49z" />
    <glyph glyph-name="uhungarumlaut" unicode="&#x171;" horiz-adv-x="582" 
d="M232 -12q-76 0 -120.5 39t-44.5 111q0 30 7 67l56 321h50l-54 -310q-7 -40 -7 -68q0 -59 32.5 -87.5t88.5 -28.5q77 0 128.5 53t64.5 127l55 314h50l-79 -446q-6 -31 -13 -80h-50l17 91h-2q-22 -41 -68 -72t-111 -31zM362 601l125 129h72l-148 -129h-49zM211 601l123 129
h72l-146 -129h-49z" />
    <glyph glyph-name="Uogonek" unicode="&#x172;" horiz-adv-x="708" 
d="M307 -192q-39 0 -62.5 17.5t-23.5 49.5q0 58 71 112q-99 5 -152 57t-53 143q0 48 8 86l81 457h52l-79 -447q-9 -56 -9 -85q0 -167 185 -167q58 0 99.5 17t68.5 52t43 79t28 108l78 443h52l-82 -463q-25 -135 -87 -203.5t-182 -76.5q-77 -58 -77 -104q0 -37 46 -37
q15 0 35 9l18 -34q-25 -13 -58 -13z" />
    <glyph glyph-name="uogonek" unicode="&#x173;" horiz-adv-x="582" 
d="M392 -192q-39 0 -62.5 17.5t-23.5 49.5q0 36 26.5 68.5t64.5 56.5h-1l17 91h-2q-22 -41 -68 -72t-111 -31q-76 0 -120.5 39t-44.5 111q0 30 7 67l56 321h50l-54 -310q-7 -40 -7 -68q0 -59 32.5 -87.5t88.5 -28.5q77 0 128.5 53t64.5 127l55 314h50l-79 -446
q-6 -31 -13 -80q-95 -67 -95 -117q0 -37 46 -37q15 0 35 9l18 -34q-25 -13 -58 -13z" />
    <glyph glyph-name="Wcircumflex" unicode="&#x174;" horiz-adv-x="931" 
d="M169 -1l-65 730h54l35 -430l20 -252h3q74 178 108 256l186 426h71l39 -427q6 -66 18 -251h3q14 33 50.5 121t58.5 137l185 420h53l-323 -730h-68l-36 406q-19 224 -22 277h-3q-59 -144 -116 -274l-179 -409h-72zM416 803l125 129h55l79 -129h-40l-70 94l-102 -94h-47z
" />
    <glyph glyph-name="wcircumflex" unicode="&#x175;" horiz-adv-x="782" 
d="M141 0l-73 526h55l30 -239q14 -117 25 -232h2q96 202 112 235l116 236h60l30 -231q4 -34 15 -118t15 -122h2q58 120 118 249l105 222h53l-257 -526h-59l-30 216q-8 54 -32 252h-2q-13 -25 -53 -112.5t-71 -148.5l-102 -207h-59zM313 601l125 129h55l79 -129h-40l-70 94
l-102 -94h-47z" />
    <glyph glyph-name="Ycircumflex" unicode="&#x176;" horiz-adv-x="604" 
d="M227 0l53 297l-187 433h58l79 -189q13 -33 43 -101.5t41 -93.5h2q32 43 154 197l146 187h59l-343 -433l-53 -297h-52zM256 803l125 129h55l79 -129h-40l-70 94l-102 -94h-47z" />
    <glyph glyph-name="ycircumflex" unicode="&#x177;" horiz-adv-x="495" 
d="M33 -190q-21 0 -44 4v46q27 -4 46 -4q37 0 58.5 15t47.5 60l36 63l-112 532h56l47 -253q7 -37 21.5 -106.5t21.5 -109.5h3q58 113 117 222l134 247h56l-348 -627q-26 -48 -58.5 -68.5t-81.5 -20.5zM172 601l125 129h55l79 -129h-40l-70 94l-102 -94h-47z" />
    <glyph glyph-name="Ydieresis" unicode="&#x178;" horiz-adv-x="604" 
d="M227 0l53 297l-187 433h58l79 -189q13 -33 43 -101.5t41 -93.5h2q32 43 154 197l146 187h59l-343 -433l-53 -297h-52zM446 813l19 111h44l-19 -111h-44zM275 813l19 111h44l-19 -111h-44z" />
    <glyph glyph-name="Zacute" unicode="&#x179;" horiz-adv-x="585" 
d="M-16 0l7 41q20 21 67.5 75t59.5 68l305 350q126 142 133 150h-444l8 46h510l-8 -42l-125 -142l-313 -357q-7 -8 -128 -143h457l-8 -46h-521zM312 803l123 129h72l-146 -129h-49z" />
    <glyph glyph-name="zacute" unicode="&#x17a;" horiz-adv-x="485" 
d="M-14 0l6 34l306 325q28 30 67.5 69t51.5 53q-19 0 -77 -0.5t-78 -0.5h-180l8 46h404l-6 -34l-281 -297l-149 -150q18 0 68 0.5t71 0.5h217l-8 -46h-420zM229 601l123 129h72l-146 -129h-49z" />
    <glyph glyph-name="Zdotaccent" unicode="&#x17b;" horiz-adv-x="585" 
d="M-16 0l7 41q20 21 67.5 75t59.5 68l305 350q126 142 133 150h-444l8 46h510l-8 -42l-125 -142l-313 -357q-7 -8 -128 -143h457l-8 -46h-521zM341 812l19 111h44l-19 -111h-44z" />
    <glyph glyph-name="zdotaccent" unicode="&#x17c;" horiz-adv-x="485" 
d="M-14 0l6 34l306 325q28 30 67.5 69t51.5 53q-19 0 -77 -0.5t-78 -0.5h-180l8 46h404l-6 -34l-281 -297l-149 -150q18 0 68 0.5t71 0.5h217l-8 -46h-420zM267 610l19 111h44l-19 -111h-44z" />
    <glyph glyph-name="Zcaron" unicode="&#x17d;" horiz-adv-x="585" 
d="M-16 0l7 41q20 21 67.5 75t59.5 68l305 350q126 142 133 150h-444l8 46h510l-8 -42l-125 -142l-313 -357q-7 -8 -128 -143h457l-8 -46h-521zM331 803l-79 129h40l70 -94l102 94h47l-125 -129h-55z" />
    <glyph glyph-name="zcaron" unicode="&#x17e;" horiz-adv-x="485" 
d="M-14 0l6 34l306 325q28 30 67.5 69t51.5 53q-19 0 -77 -0.5t-78 -0.5h-180l8 46h404l-6 -34l-281 -297l-149 -150q18 0 68 0.5t71 0.5h217l-8 -46h-420zM254 601l-79 129h40l70 -94l102 94h47l-125 -129h-55z" />
    <glyph glyph-name="uni018F" unicode="&#x18f;" horiz-adv-x="782" 
d="M371 -14q-140 0 -222 86.5t-82 250.5q0 20 1 43h625q3 25 3 53q0 130 -74 205t-202 75q-103 0 -174.5 -51t-109.5 -138l-44 15q44 100 128.5 159.5t199.5 59.5q149 0 236 -88t87 -237q0 -187 -99.5 -310t-272.5 -123zM371 30q132 0 212.5 80t103.5 208h-574
q1 -139 67 -213.5t191 -74.5z" />
    <glyph glyph-name="florin" unicode="&#x192;" 
d="M103 -158q-18 0 -43 4l8 40q17 -4 35 -4q58 0 81.5 32t34.5 103l71 430h-122l6 39h123l17 92q16 90 52 129t110 39q24 0 49 -4l-6 -40q-20 4 -43 4q-58 0 -80 -31t-36 -104l-15 -85h141l-6 -39h-142l-73 -437q-16 -91 -51.5 -129.5t-110.5 -38.5z" />
    <glyph glyph-name="Aringacute" unicode="&#x1fa;" horiz-adv-x="663" 
d="M-39 0l429 730h51l163 -730h-53l-49 232h-353l-135 -232h-53zM176 278h315l-40 191q-8 35 -21.5 103t-21.5 103h-3q-85 -150 -120 -210zM432 779q-38 0 -63.5 26.5t-25.5 64.5q0 37 26 63t64 26t63 -26.5t25 -63.5t-25.5 -63.5t-63.5 -26.5zM432 809q26 0 42.5 17.5
t16.5 43.5q0 25 -16.5 42.5t-42.5 17.5t-42.5 -17.5t-16.5 -43.5t16.5 -43t42.5 -17zM423 999l123 129h72l-146 -129h-49z" />
    <glyph glyph-name="aringacute" unicode="&#x1fb;" horiz-adv-x="555" 
d="M210 -12q-82 0 -131 36t-49 105q0 41 14.5 69.5t46 46.5t65 28.5t87.5 20.5l150 27q22 5 29.5 8t14 16t6.5 39q0 49 -36 80t-102 31q-70 0 -108 -29t-60 -92l-50 6q16 73 74 116t144 43q89 0 138 -41.5t49 -113.5q0 -22 -10 -85l-44 -249q-7 -34 -8 -50h-49l6 29l11 50
h-2q-30 -43 -78.5 -67t-107.5 -24zM210 31q80 0 138 44.5t70 123.5l8 53q3 23 8 34q-8 -2 -53 -10l-124 -23q-33 -6 -51.5 -10.5t-45 -14t-41 -21.5t-25 -32t-10.5 -46q0 -45 34.5 -71.5t91.5 -26.5zM330 797l123 129h72l-146 -129h-49zM340 578q-38 0 -63.5 26.5
t-25.5 64.5q0 37 26 63t64 26t63 -26.5t25 -63.5t-25.5 -63.5t-63.5 -26.5zM340 608q26 0 42.5 17.5t16.5 43.5q0 25 -16.5 42.5t-42.5 17.5t-42.5 -17.5t-16.5 -43.5t16.5 -43t42.5 -17z" />
    <glyph glyph-name="AEacute" unicode="&#x1fc;" horiz-adv-x="925" 
d="M-59 0l568 730h437l-8 -46h-345l-46 -279h319l-9 -46h-319l-51 -313h351l-8 -46h-405l37 221h-291l-169 -221h-61zM207 267h263l70 417h-11zM655 803l123 129h72l-146 -129h-49z" />
    <glyph glyph-name="aeacute" unicode="&#x1fd;" horiz-adv-x="954" 
d="M210 -12q-82 0 -131 36t-49 105q0 41 14.5 69.5t46 46.5t65 28.5t87.5 20.5l150 27q22 5 29.5 8t14 16t6.5 39q0 49 -36 80t-102 31q-70 0 -108 -29t-60 -92l-50 6q16 73 74 116t144 43q70 0 115.5 -27.5t61.5 -76.5q74 105 204 105q107 0 163 -64.5t56 -171.5
q0 -20 -2 -42h-429q-1 -11 -1 -32q0 -91 47 -144.5t136 -53.5q127 0 186 110l48 -14q-35 -65 -95 -102.5t-139 -37.5q-80 0 -135 35t-79 98h-4q-27 -51 -86.5 -92t-141.5 -41zM210 31q80 0 138 44.5t70 123.5l8 53q3 23 8 34q-8 -2 -53 -10l-124 -23q-33 -6 -51.5 -10.5
t-45 -14t-41 -21.5t-25 -32t-10.5 -46q0 -45 34.5 -71.5t91.5 -26.5zM479 306h375v3q0 86 -43 136.5t-125 50.5q-85 0 -138.5 -52.5t-68.5 -137.5zM462 601l123 129h72l-146 -129h-49z" />
    <glyph glyph-name="Oslashacute" unicode="&#x1fe;" horiz-adv-x="803" 
d="M77 -43l-28 25l94 109q-71 88 -71 232q0 113 42 207.5t127.5 154t198.5 59.5q127 0 210 -65l80 93l28 -24l-80 -93q87 -89 87 -236q0 -186 -101 -309.5t-274 -123.5q-137 0 -221 78zM390 31q107 0 182.5 56.5t109 142t33.5 189.5q0 124 -69 199l-446 -519q71 -68 190 -68
zM175 128l444 515q-73 56 -179 56q-105 0 -179 -55.5t-107 -138.5t-33 -182q0 -121 54 -195zM424 803l123 129h72l-146 -129h-49z" />
    <glyph glyph-name="oslashacute" unicode="&#x1ff;" horiz-adv-x="608" 
d="M282 601l123 129h72l-146 -129h-49zM55 -48l-29 24l76 90q-51 63 -51 164q0 130 74.5 220t198.5 90q83 0 145 -43l69 81l30 -24l-70 -83q61 -67 61 -172q0 -130 -75 -220.5t-199 -90.5q-96 0 -156 51zM285 32q106 0 163.5 77t57.5 190q0 81 -41 134l-305 -358
q46 -43 125 -43zM136 105l302 355q-46 36 -114 36q-106 0 -163 -76.5t-57 -189.5q0 -75 32 -125z" />
    <glyph glyph-name="uni0218" unicode="&#x218;" horiz-adv-x="599" 
d="M290 -14q-108 0 -177.5 51t-81.5 150l49 7q8 -78 65 -121t145 -43q91 0 143 41.5t52 115.5q0 25 -9.5 47t-21 35.5t-37.5 29.5t-41 23t-50 23l-43 19q-92 42 -131.5 83t-39.5 115q0 80 62 131t166 51t166.5 -47.5t72.5 -137.5l-49 -7q-23 148 -190 148q-80 0 -128 -34.5
t-48 -101.5q0 -55 33.5 -87t110.5 -67l51 -24q98 -45 138.5 -84t40.5 -113q0 -92 -69 -147.5t-179 -55.5zM210 -212l5 26q15 2 22.5 12t12.5 36h-27l16 89h56l-11 -61q-4 -23 -6 -32.5t-7.5 -25.5t-12.5 -23t-19 -13.5t-29 -7.5z" />
    <glyph glyph-name="uni0219" unicode="&#x219;" horiz-adv-x="498" 
d="M234 -13q-90 0 -146.5 39.5t-65.5 114.5l50 8q8 -58 50 -88t112 -30q73 0 109.5 28.5t36.5 79.5q0 22 -7.5 37.5t-26.5 27.5t-33.5 18.5t-45.5 18.5l-46 17q-72 26 -104.5 56.5t-32.5 85.5q0 61 47.5 100.5t130.5 39.5q81 0 135.5 -37.5t60.5 -101.5l-50 -8q-9 51 -47 77
t-99 26q-127 0 -127 -95q0 -34 21.5 -53t77.5 -42l59 -23q76 -29 108 -58.5t32 -85.5q0 -73 -56.5 -112.5t-142.5 -39.5zM159 -212l5 26q15 2 22.5 12t12.5 36h-27l16 89h56l-11 -61q-4 -23 -6 -32.5t-7.5 -25.5t-12.5 -23t-19 -13.5t-29 -7.5z" />
    <glyph glyph-name="uni021A" unicode="&#x21a;" horiz-adv-x="558" 
d="M203 0l121 684h-239l8 46h531l-8 -46h-239l-121 -684h-53zM164 -212l5 26q15 2 22.5 12t12.5 36h-27l16 89h56l-11 -61q-4 -23 -6 -32.5t-7.5 -25.5t-12.5 -23t-19 -13.5t-29 -7.5z" />
    <glyph glyph-name="uni021B" unicode="&#x21b;" horiz-adv-x="280" 
d="M189 0h-69q-43 18 -43 75q0 19 6 56l62 352h-91l7 43h92l25 144h51l-26 -144h107l-7 -43h-108l-60 -341q-7 -40 -7 -58q0 -60 63 -72zM62 -212l5 26q15 2 22.5 12t12.5 36h-27l16 89h56l-11 -61q-4 -23 -6 -32.5t-7.5 -25.5t-12.5 -23t-19 -13.5t-29 -7.5z" />
    <glyph glyph-name="uni0237" unicode="&#x237;" horiz-adv-x="240" 
d="M-50 -190q-21 0 -39 3l9 43q18 -2 30 -2q44 0 64 20t29 72l103 580h50l-103 -581q-12 -73 -44 -104t-99 -31z" />
    <glyph glyph-name="uni0259" unicode="&#x259;" horiz-adv-x="582" 
d="M299 540q112 0 172.5 -65.5t60.5 -176.5q0 -130 -71 -220t-192 -90q-107 0 -163 64.5t-56 171.5q0 20 2 42h429q1 11 1 32q0 91 -47 144.5t-136 53.5q-127 0 -186 -110l-48 14q35 65 95 102.5t139 37.5zM476 222h-375v-3q0 -86 43 -136.5t125 -50.5q86 0 137.5 52
t69.5 138z" />
    <glyph glyph-name="circumflex" unicode="&#x2c6;" horiz-adv-x="371" 
d="M85 601l125 129h55l79 -129h-40l-70 94l-102 -94h-47z" />
    <glyph glyph-name="caron" unicode="&#x2c7;" horiz-adv-x="371" 
d="M154 601l-79 129h40l70 -94l102 94h47l-125 -129h-55z" />
    <glyph glyph-name="breve" unicode="&#x2d8;" horiz-adv-x="352" 
d="M151 609q-54 0 -84.5 27t-31.5 78l33 9q5 -75 86 -75t111 75l32 -9q-39 -105 -146 -105z" />
    <glyph glyph-name="dotaccent" unicode="&#x2d9;" horiz-adv-x="284" 
d="M92 610l19 111h44l-19 -111h-44z" />
    <glyph glyph-name="ring" unicode="&#x2da;" horiz-adv-x="322" 
d="M148 578q-38 0 -63.5 26.5t-25.5 64.5q0 37 26 63t64 26t63 -26.5t25 -63.5t-25.5 -63.5t-63.5 -26.5zM148 608q26 0 42.5 17.5t16.5 43.5q0 25 -16.5 42.5t-42.5 17.5t-42.5 -17.5t-16.5 -43.5t16.5 -43t42.5 -17z" />
    <glyph glyph-name="ogonek" unicode="&#x2db;" horiz-adv-x="285" 
d="M112 -192q-39 0 -62.5 17.5t-23.5 49.5q0 36 26.5 68.5t64.5 56.5h49q-95 -67 -95 -117q0 -37 46 -37q15 0 35 9l18 -34q-25 -13 -58 -13z" />
    <glyph glyph-name="tilde" unicode="&#x2dc;" horiz-adv-x="278" 
d="M22 625h-32q12 90 79 90q23 0 63 -18l26 -12q36 -17 52 -17q32 0 46 50h32q-12 -90 -79 -90q-23 0 -63 18l-25 11q-40 17 -53 17q-32 0 -46 -49z" />
    <glyph glyph-name="hungarumlaut" unicode="&#x2dd;" horiz-adv-x="426" 
d="M171 601l125 129h72l-148 -129h-49zM20 601l123 129h72l-146 -129h-49z" />
    <glyph glyph-name="uni0312" unicode="&#x312;" horiz-adv-x="0" 
d="M-285 602l11 61q5 24 7 33t7.5 25.5t12 23t18.5 13t29 7.5l-5 -26q-15 -2 -22.5 -12t-12.5 -36h27l-16 -89h-56z" />
    <glyph glyph-name="uni0313" unicode="&#x313;" horiz-adv-x="0" 
d="M-297 561l70 169h57l-88 -169h-39z" />
    <glyph glyph-name="uni0326" unicode="&#x326;" horiz-adv-x="0" 
d="M-242 -212l5 26q15 2 22.5 12t12.5 36h-27l16 89h56l-11 -61q-4 -23 -6 -32.5t-7.5 -25.5t-12.5 -23t-19 -13.5t-29 -7.5z" />
    <glyph glyph-name="uni0394" unicode="&#x394;" horiz-adv-x="661" 
d="M-11 0l301 730h51l292 -730h-644zM230 465l-171 -418h499l-163 422l-79 206h-3q-47 -122 -83 -210z" />
    <glyph glyph-name="uni03A9" unicode="&#x3a9;" horiz-adv-x="843" 
d="M79 0v46h43q32 0 61 -0.5t57 -2t42 -1.5v2q-200 113 -200 356q0 142 93.5 243t252.5 101t252.5 -101t93.5 -243q0 -243 -200 -356v-2q14 0 42 1.5t57 2t61 0.5h43v-46h-267v46q211 111 211 351q0 132 -78.5 217t-214.5 85t-214.5 -85t-78.5 -217q0 -240 211 -351v-46
h-267z" />
    <glyph glyph-name="uni03BC" unicode="&#x3bc;" horiz-adv-x="590" 
d="M62 -184h-49q15 85 26 140l100 570h50l-54 -310q-7 -40 -7 -68q0 -59 32.5 -87.5t88.5 -28.5q77 0 128.5 53t64.5 127l55 314h50l-79 -446q-6 -31 -13 -80h-50l17 91h-2q-22 -41 -68 -72t-111 -31q-98 0 -136 63l-26 -148q-10 -58 -17 -87z" />
    <glyph glyph-name="pi" unicode="&#x3c0;" horiz-adv-x="587" 
d="M86 0l85 483h-121l8 43h549l-8 -43h-107l-59 -337q-5 -25 -5 -53q0 -39 15.5 -57t47.5 -24l-2 -12h-79q-37 24 -37 74q0 24 6 57l62 352h-219l-85 -483h-51z" />
    <glyph glyph-name="Wgrave" unicode="&#x1e80;" horiz-adv-x="931" 
d="M169 -1l-65 730h54l35 -430l20 -252h3q74 178 108 256l186 426h71l39 -427q6 -66 18 -251h3q14 33 50.5 121t58.5 137l185 420h53l-323 -730h-68l-36 406q-19 224 -22 277h-3q-59 -144 -116 -274l-179 -409h-72zM536 803l-125 129h67l100 -129h-42z" />
    <glyph glyph-name="wgrave" unicode="&#x1e81;" horiz-adv-x="782" 
d="M141 0l-73 526h55l30 -239q14 -117 25 -232h2q96 202 112 235l116 236h60l30 -231q4 -34 15 -118t15 -122h2q58 120 118 249l105 222h53l-257 -526h-59l-30 216q-8 54 -32 252h-2q-13 -25 -53 -112.5t-71 -148.5l-102 -207h-59zM439 601l-125 129h67l100 -129h-42z" />
    <glyph glyph-name="Wacute" unicode="&#x1e82;" horiz-adv-x="931" 
d="M169 -1l-65 730h54l35 -430l20 -252h3q74 178 108 256l186 426h71l39 -427q6 -66 18 -251h3q14 33 50.5 121t58.5 137l185 420h53l-323 -730h-68l-36 406q-19 224 -22 277h-3q-59 -144 -116 -274l-179 -409h-72zM522 803l123 129h72l-146 -129h-49z" />
    <glyph glyph-name="wacute" unicode="&#x1e83;" horiz-adv-x="782" 
d="M141 0l-73 526h55l30 -239q14 -117 25 -232h2q96 202 112 235l116 236h60l30 -231q4 -34 15 -118t15 -122h2q58 120 118 249l105 222h53l-257 -526h-59l-30 216q-8 54 -32 252h-2q-13 -25 -53 -112.5t-71 -148.5l-102 -207h-59zM419 601l123 129h72l-146 -129h-49z" />
    <glyph glyph-name="Wdieresis" unicode="&#x1e84;" horiz-adv-x="931" 
d="M169 -1l-65 730h54l35 -430l20 -252h3q74 178 108 256l186 426h71l39 -427q6 -66 18 -251h3q14 33 50.5 121t58.5 137l185 420h53l-323 -730h-68l-36 406q-19 224 -22 277h-3q-59 -144 -116 -274l-179 -409h-72zM615 813l19 111h44l-19 -111h-44zM444 813l19 111h44
l-19 -111h-44z" />
    <glyph glyph-name="wdieresis" unicode="&#x1e85;" horiz-adv-x="782" 
d="M141 0l-73 526h55l30 -239q14 -117 25 -232h2q96 202 112 235l116 236h60l30 -231q4 -34 15 -118t15 -122h2q58 120 118 249l105 222h53l-257 -526h-59l-30 216q-8 54 -32 252h-2q-13 -25 -53 -112.5t-71 -148.5l-102 -207h-59zM511 610l19 111h44l-19 -111h-44zM340 610
l19 111h44l-19 -111h-44z" />
    <glyph glyph-name="uni1E9E" unicode="&#x1e9e;" horiz-adv-x="663" 
d="M372 -14q-123 0 -175 65l43 36q49 -56 132 -56q88 0 136.5 55.5t48.5 134.5q0 81 -48 120t-135 38q-24 0 -66 -2l7 35l199 205q12 13 67 68q-27 -1 -82 -1h-271l-121 -684h-52l129 730h466l-8 -42l-260 -268h4q110 0 166.5 -51.5t56.5 -147.5q0 -102 -64.5 -168.5
t-172.5 -66.5z" />
    <glyph glyph-name="Ygrave" unicode="&#x1ef2;" horiz-adv-x="604" 
d="M227 0l53 297l-187 433h58l79 -189q13 -33 43 -101.5t41 -93.5h2q32 43 154 197l146 187h59l-343 -433l-53 -297h-52zM384 803l-125 129h67l100 -129h-42z" />
    <glyph glyph-name="ygrave" unicode="&#x1ef3;" horiz-adv-x="495" 
d="M33 -190q-21 0 -44 4v46q27 -4 46 -4q37 0 58.5 15t47.5 60l36 63l-112 532h56l47 -253q7 -37 21.5 -106.5t21.5 -109.5h3q58 113 117 222l134 247h56l-348 -627q-26 -48 -58.5 -68.5t-81.5 -20.5zM300 601l-125 129h67l100 -129h-42z" />
    <glyph glyph-name="uni2000" unicode="&#x2000;" horiz-adv-x="500" 
 />
    <glyph glyph-name="uni2001" unicode="&#x2001;" horiz-adv-x="1000" 
 />
    <glyph glyph-name="uni2002" unicode="&#x2002;" horiz-adv-x="500" 
 />
    <glyph glyph-name="uni2003" unicode="&#x2003;" horiz-adv-x="1000" 
 />
    <glyph glyph-name="uni2004" unicode="&#x2004;" horiz-adv-x="333" 
 />
    <glyph glyph-name="uni2005" unicode="&#x2005;" horiz-adv-x="250" 
 />
    <glyph glyph-name="uni2006" unicode="&#x2006;" horiz-adv-x="167" 
 />
    <glyph glyph-name="uni2007" unicode="&#x2007;" horiz-adv-x="610" 
 />
    <glyph glyph-name="uni2008" unicode="&#x2008;" horiz-adv-x="204" 
 />
    <glyph glyph-name="uni2009" unicode="&#x2009;" horiz-adv-x="125" 
 />
    <glyph glyph-name="uni200A" unicode="&#x200a;" horiz-adv-x="42" 
 />
    <glyph glyph-name="uni200B" unicode="&#x200b;" horiz-adv-x="0" 
 />
    <glyph glyph-name="endash" unicode="&#x2013;" horiz-adv-x="606" 
d="M74 271l7 43h459l-7 -43h-459z" />
    <glyph glyph-name="emdash" unicode="&#x2014;" horiz-adv-x="950" 
d="M74 271l7 43h803l-7 -43h-803z" />
    <glyph glyph-name="uni2015" unicode="&#x2015;" horiz-adv-x="950" 
d="M74 271l7 43h803l-7 -43h-803z" />
    <glyph glyph-name="quoteleft" unicode="&#x2018;" horiz-adv-x="202" 
d="M107 469l21 120q13 74 25 97q18 35 58 48l-6 -31q-19 -11 -28 -34t-19 -78l-1 -3h27l-21 -119h-56z" />
    <glyph glyph-name="quoteright" unicode="&#x2019;" horiz-adv-x="198" 
d="M107 465l6 31q19 11 28 34t19 78l1 3h-27l21 119h56l-21 -120q-13 -74 -25 -97q-18 -35 -58 -48z" />
    <glyph glyph-name="quotesinglbase" unicode="&#x201a;" horiz-adv-x="205" 
d="M7 -146l6 31q19 11 28 34t19 78l1 3h-27l21 119h56l-21 -120q-13 -74 -25 -97q-18 -35 -58 -48z" />
    <glyph glyph-name="quotedblleft" unicode="&#x201c;" horiz-adv-x="364" 
d="M269 470l21 120q13 74 25 97q18 35 58 48l-6 -31q-19 -11 -28 -34t-19 -78l-1 -3h27l-21 -119h-56zM107 470l21 120q13 74 25 97q18 35 58 48l-6 -31q-19 -11 -28 -34t-19 -78l-1 -3h27l-21 -119h-56z" />
    <glyph glyph-name="quotedblright" unicode="&#x201d;" horiz-adv-x="360" 
d="M269 465l6 31q19 11 28 34t19 78l1 3h-27l21 119h56l-21 -120q-13 -74 -25 -97q-18 -35 -58 -48zM107 465l6 31q19 11 28 34t19 78l1 3h-27l21 119h56l-21 -120q-13 -74 -25 -97q-18 -35 -58 -48z" />
    <glyph glyph-name="quotedblbase" unicode="&#x201e;" horiz-adv-x="367" 
d="M169 -146l6 31q19 11 28 34t19 78l1 3h-27l21 119h56l-21 -120q-13 -74 -25 -97q-18 -35 -58 -48zM7 -146l6 31q19 11 28 34t19 78l1 3h-27l21 119h56l-21 -120q-13 -74 -25 -97q-18 -35 -58 -48z" />
    <glyph glyph-name="dagger" unicode="&#x2020;" horiz-adv-x="495" 
d="M169 -50l92 522h-194l7 41h194l38 217h43l-38 -217h196l-7 -41h-196l-92 -522h-43z" />
    <glyph glyph-name="daggerdbl" unicode="&#x2021;" horiz-adv-x="528" 
d="M186 -50l43 246h-194l7 41h194l42 235h-194l7 41h194l38 217h43l-38 -217h196l-7 -41h-196l-42 -235h196l-7 -41h-196l-43 -246h-43z" />
    <glyph glyph-name="bullet" unicode="&#x2022;" horiz-adv-x="428" 
d="M226 211q-56 0 -94.5 38.5t-38.5 94.5q0 54 39 93t94 39q54 0 93 -39t39 -93q0 -55 -39 -94t-93 -39z" />
    <glyph glyph-name="ellipsis" unicode="&#x2026;" horiz-adv-x="867" 
d="M33 0l21 119h56l-21 -119h-56zM364 0l21 119h56l-21 -119h-56zM696 0l21 119h56l-21 -119h-56z" />
    <glyph glyph-name="perthousand" unicode="&#x2030;" horiz-adv-x="1279" 
d="M1038 -8q-129 0 -129 143q0 59 8 96q8 41 17 72.5t24.5 65t35 55.5t49.5 36t67 14q131 0 131 -141q0 -60 -9 -101q-10 -52 -23 -90t-34.5 -74.5t-56 -56t-80.5 -19.5zM1041 32q49 0 76 29q35 37 55.5 118t20.5 150q0 103 -87 103q-43 0 -75 -29q-36 -35 -56 -115
t-20 -150q0 -106 86 -106zM202 256q-129 0 -129 143q0 59 8 96q8 41 17 72.5t24.5 65t35 55.5t49.5 36t67 14q131 0 131 -141q0 -60 -9 -101q-10 -52 -23 -90t-34.5 -74.5t-56 -56t-80.5 -19.5zM205 296q49 0 76 29q35 37 55.5 118t20.5 150q0 103 -87 103q-43 0 -75 -29
q-36 -35 -56 -115t-20 -150q0 -106 86 -106zM232 0l418 730h49l-418 -730h-49zM660 -8q-129 0 -129 143q0 59 8 96q8 41 17 72.5t24.5 65t35 55.5t49.5 36t67 14q131 0 131 -141q0 -60 -9 -101q-10 -52 -23 -90t-34.5 -74.5t-56 -56t-80.5 -19.5zM663 32q49 0 76 29
q35 37 55.5 118t20.5 150q0 103 -87 103q-43 0 -75 -29q-36 -35 -56 -115t-20 -150q0 -106 86 -106z" />
    <glyph glyph-name="guilsinglleft" unicode="&#x2039;" horiz-adv-x="251" 
d="M119 87l-76 196l142 197h47l-137 -197l68 -196h-44z" />
    <glyph glyph-name="guilsinglright" unicode="&#x203a;" horiz-adv-x="249" 
d="M24 87l136 196l-67 197h44l75 -197l-140 -196h-48z" />
    <glyph glyph-name="fraction" unicode="&#x2044;" horiz-adv-x="110" 
d="M-161 0l418 730h49l-418 -730h-49z" />
    <glyph glyph-name="uni2070" unicode="&#x2070;" horiz-adv-x="401" 
d="M227 385q-129 0 -129 143q0 59 8 96q8 41 17 72.5t24.5 65t35 55.5t49.5 36t67 14q131 0 131 -141q0 -60 -9 -101q-10 -52 -23 -90t-34.5 -74.5t-56 -56t-80.5 -19.5zM230 425q49 0 76 29q35 37 55.5 118t20.5 150q0 103 -87 103q-43 0 -75 -29q-36 -35 -56 -115
t-20 -150q0 -106 86 -106z" />
    <glyph glyph-name="uni2074" unicode="&#x2074;" horiz-adv-x="364" 
d="M256 393l19 106h-200l5 33l164 326h45l-159 -319h152l32 184h40l-32 -184h75l-6 -40h-76l-19 -106h-40z" />
    <glyph glyph-name="uni2075" unicode="&#x2075;" horiz-adv-x="373" 
d="M223 385q-66 0 -104 34t-42 94q7 0 14.5 0.5t16.5 1.5t14 1q3 -41 29 -67.5t74 -26.5q53 0 85 37t32 94q0 48 -26.5 76.5t-71.5 28.5q-59 0 -92 -49l-44 6l67 245h238l-7 -41h-204l-44 -161q38 38 98 38q56 0 94.5 -36.5t38.5 -100.5q0 -76 -45 -125t-121 -49z" />
    <glyph glyph-name="uni2076" unicode="&#x2076;" horiz-adv-x="392" 
d="M241 384q-68 0 -105.5 37.5t-37.5 115.5q0 47 10 100q23 118 70.5 174t122.5 56q61 0 93 -32t36 -83l-43 -4q-3 38 -25.5 60t-63.5 22q-66 0 -104 -68q-25 -49 -46 -138h2q14 27 45.5 46t74.5 19q61 0 98 -35.5t37 -99.5q0 -72 -45.5 -121t-118.5 -49zM243 421
q53 0 85 37.5t32 93.5q0 48 -26.5 74.5t-73.5 26.5q-53 0 -85.5 -36.5t-32.5 -90.5q0 -52 27 -78.5t74 -26.5z" />
    <glyph glyph-name="uni2077" unicode="&#x2077;" horiz-adv-x="326" 
d="M138 393h-51q102 236 266 426h-34h-203l7 41h285l-5 -37q-165 -191 -265 -430z" />
    <glyph glyph-name="uni2078" unicode="&#x2078;" horiz-adv-x="397" 
d="M232 385q-65 0 -107 32.5t-42 90.5q0 51 30.5 86.5t85.5 51.5v1q-57 33 -57 95q0 53 39 89t108 36q60 0 96 -30t36 -78q0 -44 -25.5 -74.5t-66.5 -42.5l-1 -1q75 -35 75 -109q0 -67 -46.5 -107t-124.5 -40zM236 423q57 0 89 29t32 83q0 41 -28 63.5t-77 22.5
q-52 0 -87.5 -29t-35.5 -79q0 -44 29 -67t78 -23zM273 658q45 0 73.5 25.5t28.5 69.5q0 34 -24 55t-65 21q-44 0 -71.5 -22.5t-27.5 -63.5q0 -40 22.5 -62.5t63.5 -22.5z" />
    <glyph glyph-name="uni2079" unicode="&#x2079;" horiz-adv-x="392" 
d="M219 384q-61 0 -94.5 32.5t-37.5 83.5l44 5q7 -84 91 -84q51 0 83 37.5t52 118.5q3 10 12 47h-1q-13 -26 -44 -42.5t-75 -16.5q-60 0 -97 35t-37 99q0 70 45 119t118 49q67 0 105 -38t38 -115q0 -47 -10 -100q-21 -118 -69 -174t-123 -56zM259 601q54 0 86.5 35.5
t32.5 90.5q0 52 -27 78t-74 26q-53 0 -85 -37t-32 -93q0 -48 26 -74t73 -26z" />
    <glyph glyph-name="uni207A" unicode="&#x207a;" horiz-adv-x="372" 
d="M230 461v141h-139v38h139v142h38v-142h139v-38h-139v-141h-38z" />
    <glyph glyph-name="uni207B" unicode="&#x207b;" horiz-adv-x="421" 
d="M118 602v39h310v-39h-310z" />
    <glyph glyph-name="uni207C" unicode="&#x207c;" horiz-adv-x="444" 
d="M128 540v38h310v-38h-310zM128 663v37h310v-37h-310z" />
    <glyph glyph-name="uni207D" unicode="&#x207d;" horiz-adv-x="204" 
d="M179 299l-37 -4q-49 110 -49 217q0 176 144 357l40 -4q-137 -176 -137 -366q0 -98 39 -200z" />
    <glyph glyph-name="uni207E" unicode="&#x207e;" horiz-adv-x="203" 
d="M78 295l-40 4q137 180 137 367q0 104 -39 199l37 4q49 -107 49 -211q0 -182 -144 -363z" />
    <glyph glyph-name="uni207F" unicode="&#x207f;" horiz-adv-x="396" 
d="M84 393l48 277q3 12 11 60h44l-4 -21q-1 -4 -2.5 -15.5t-3.5 -15.5h1q40 61 118 61q49 0 78 -26t29 -71q0 -25 -4 -41l-37 -208h-47l34 189q4 21 4 48q0 69 -74 69q-94 0 -119 -134l-30 -172h-46z" />
    <glyph glyph-name="uni2080" unicode="&#x2080;" horiz-adv-x="401" 
d="M143 -92q-129 0 -129 143q0 59 8 96q8 41 17 72.5t24.5 65t35 55.5t49.5 36t67 14q131 0 131 -141q0 -60 -9 -101q-10 -52 -23 -90t-34.5 -74.5t-56 -56t-80.5 -19.5zM146 -52q49 0 76 29q35 37 55.5 118t20.5 150q0 103 -87 103q-43 0 -75 -29q-36 -35 -56 -115
t-20 -150q0 -106 86 -106z" />
    <glyph glyph-name="uni2081" unicode="&#x2081;" horiz-adv-x="301" 
d="M-20 -84l7 37h102l56 315h-113l4 30q71 2 97.5 19t42.5 68h35l-77 -432h98l-6 -37h-246z" />
    <glyph glyph-name="uni2082" unicode="&#x2082;" horiz-adv-x="369" 
d="M-25 -84l6 35q86 65 155 122l35 28q26 22 40 35t33.5 35.5t28 46.5t8.5 52q0 38 -24 59t-67 21q-93 0 -111 -107l-46 1q9 65 51 105.5t110 40.5q63 0 98 -31.5t35 -85.5q0 -64 -40.5 -114t-118.5 -110q-101 -75 -128 -93v-1q35 1 110 1h129l-7 -40h-297z" />
    <glyph glyph-name="uni2083" unicode="&#x2083;" horiz-adv-x="375" 
d="M137 -92q-68 0 -107 34.5t-40 99.5l46 3q1 -46 27.5 -72.5t74.5 -26.5q53 0 83.5 29t30.5 81q0 42 -30 64.5t-77 22.5h-16l5 39h12q53 0 88 24.5t35 74.5q0 32 -21.5 51t-59.5 19q-81 0 -99 -87l-45 4q8 56 46.5 89t99.5 33q59 0 92 -28.5t33 -74.5q0 -48 -28 -80
t-74 -42v-1q85 -25 85 -107q0 -67 -43.5 -108t-117.5 -41z" />
    <glyph glyph-name="uni2084" unicode="&#x2084;" horiz-adv-x="364" 
d="M172 -84l19 106h-200l5 33l164 326h45l-159 -319h152l32 184h40l-32 -184h75l-6 -40h-76l-19 -106h-40z" />
    <glyph glyph-name="uni2085" unicode="&#x2085;" horiz-adv-x="373" 
d="M138 -92q-66 0 -104 34t-42 94l45 3q3 -41 29 -67.5t74 -26.5q53 0 85 37t32 94q0 48 -26.5 76.5t-71.5 28.5q-59 0 -92 -49l-44 6l67 245h238l-7 -41h-204l-44 -161q38 38 98 38q56 0 94.5 -36.5t38.5 -100.5q0 -76 -45 -125t-121 -49z" />
    <glyph glyph-name="uni2086" unicode="&#x2086;" horiz-adv-x="392" 
d="M157 -93q-68 0 -105.5 37.5t-37.5 115.5q0 47 10 100q23 118 70.5 174t122.5 56q61 0 93 -32t36 -83l-43 -4q-3 38 -25.5 60t-63.5 22q-66 0 -104 -68q-25 -49 -46 -138h2q14 27 45.5 46t74.5 19q61 0 98 -35.5t37 -99.5q0 -72 -45.5 -121t-118.5 -49zM159 -56
q53 0 85 37.5t32 93.5q0 48 -26.5 74.5t-73.5 26.5q-53 0 -85.5 -36.5t-32.5 -90.5q0 -52 27 -78.5t74 -26.5z" />
    <glyph glyph-name="uni2087" unicode="&#x2087;" horiz-adv-x="326" 
d="M54 -84h-51q102 236 266 426h-34h-203l7 41h285l-5 -37q-165 -191 -265 -430z" />
    <glyph glyph-name="uni2088" unicode="&#x2088;" horiz-adv-x="397" 
d="M148 -92q-65 0 -107 32.5t-42 90.5q0 51 30.5 86.5t85.5 51.5v1q-57 33 -57 95q0 53 39 89t108 36q60 0 96 -30t36 -78q0 -44 -25.5 -74.5t-66.5 -42.5l-1 -1q75 -35 75 -109q0 -67 -46.5 -107t-124.5 -40zM152 -54q57 0 89 29t32 83q0 41 -28 63.5t-77 22.5
q-52 0 -87.5 -29t-35.5 -79q0 -44 29 -67t78 -23zM189 181q45 0 73.5 25.5t28.5 69.5q0 34 -24 55t-65 21q-44 0 -71.5 -22.5t-27.5 -63.5q0 -40 22.5 -62.5t63.5 -22.5z" />
    <glyph glyph-name="uni2089" unicode="&#x2089;" horiz-adv-x="392" 
d="M134 -93q-61 0 -94.5 32.5t-37.5 83.5l44 5q7 -84 91 -84q51 0 83 37.5t52 118.5q3 10 12 47h-1q-13 -26 -44 -42.5t-75 -16.5q-60 0 -97 35t-37 99q0 70 45 119t118 49q67 0 105 -38t38 -115q0 -47 -10 -100q-21 -118 -69 -174t-123 -56zM174 124q54 0 86.5 35.5
t32.5 90.5q0 52 -27 78t-74 26q-53 0 -85 -37t-32 -93q0 -48 26 -74t73 -26z" />
    <glyph glyph-name="uni208A" unicode="&#x208a;" horiz-adv-x="372" 
d="M145 -16v141h-139v38h139v142h38v-142h139v-38h-139v-141h-38z" />
    <glyph glyph-name="uni208B" unicode="&#x208b;" horiz-adv-x="421" 
d="M33 125v39h310v-39h-310z" />
    <glyph glyph-name="uni208C" unicode="&#x208c;" horiz-adv-x="444" 
d="M44 63v38h310v-38h-310zM44 186v37h310v-37h-310z" />
    <glyph glyph-name="uni208D" unicode="&#x208d;" horiz-adv-x="204" 
d="M95 -178l-37 -4q-49 110 -49 217q0 176 144 357l40 -4q-137 -176 -137 -366q0 -98 39 -200z" />
    <glyph glyph-name="uni208E" unicode="&#x208e;" horiz-adv-x="203" 
d="M-6 -182l-40 4q137 180 137 367q0 104 -39 199l37 4q49 -107 49 -211q0 -182 -144 -363z" />
    <glyph glyph-name="Euro" unicode="&#x20ac;" 
d="M307 -14q-197 0 -199 225q0 30 3 57h-94l18 40h80q2 13 8.5 52t11.5 61h-87l17 40h79q74 283 270 283q93 0 141 -53t51 -153l-46 -6q-2 81 -36.5 124.5t-112.5 43.5q-71 0 -125 -49q-58 -56 -95 -190h277l-17 -40h-270q-13 -60 -19 -113h245l-19 -40h-230q-2 -50 -2 -59
q0 -181 153 -181q75 0 120 43t76 122l45 -5q-36 -95 -93.5 -148.5t-149.5 -53.5z" />
    <glyph glyph-name="uni2113" unicode="&#x2113;" horiz-adv-x="494" 
d="M289 -14q-75 0 -108.5 42t-33.5 137v82q-45 -38 -105 -85l-26 36q92 72 131 107l1 237q0 201 142 201q58 0 90.5 -35.5t32.5 -101.5q0 -129 -136 -246l-81 -72v-129q0 -68 23 -98.5t70 -30.5q69 0 105 80l44 -18q-19 -42 -55.5 -74t-93.5 -32zM196 548v-201l48 43
q120 108 120 216q0 43 -20.5 69t-53.5 26q-94 0 -94 -153z" />
    <glyph glyph-name="uni2116" unicode="&#x2116;" horiz-adv-x="1140" 
d="M777 265l7 43h300l-7 -43h-300zM56 0l129 730h72l199 -420q8 -17 116 -251h2q9 58 28 166t23 129l66 376h52l-129 -730h-68l-199 421q-102 217 -120 258h-2q-5 -29 -26 -157.5t-30 -175.5l-61 -346h-52zM963 384q-72 0 -113.5 40t-41.5 112q0 85 48.5 143t134.5 58
q71 0 113 -40t42 -111q0 -85 -48.5 -143.5t-134.5 -58.5zM965 422q64 0 97.5 47t33.5 113q0 54 -28 85.5t-79 31.5q-65 0 -98 -46.5t-33 -112.5q0 -55 27.5 -86.5t79.5 -31.5z" />
    <glyph glyph-name="uni2117" unicode="&#x2117;" horiz-adv-x="875" 
d="M455 -14q-159 0 -269.5 110t-110.5 269q0 157 110.5 268t269.5 111t269.5 -111t110.5 -268q0 -158 -110.5 -268.5t-269.5 -110.5zM455 25q142 0 240.5 98.5t98.5 241.5t-98.5 241t-240.5 98q-143 0 -241 -98t-98 -241t98 -241.5t241 -98.5zM325 141v445h149
q151 0 151 -124q0 -126 -146 -126h-114v-195h-40zM365 371h114q105 0 105 91q0 89 -109 89h-110v-180z" />
    <glyph glyph-name="trademark" unicode="&#x2122;" horiz-adv-x="1001" 
d="M531 288v442h71q13 -37 63 -189t67 -198q16 43 65 187t69 200h66v-442h-42v208q0 131 1 191h-2l-135 -399h-44l-136 399h-2q0 -38 0.5 -130t0.5 -134v-135h-42zM245 288v403h-136v39h317v-39h-136v-403h-45z" />
    <glyph glyph-name="Omega" unicode="&#x2126;" horiz-adv-x="865" 
d="M90 0v46h43q32 0 61 -0.5t57 -2t42 -1.5v2q-200 113 -200 356q0 142 93.5 243t252.5 101t252.5 -101t93.5 -243q0 -243 -200 -356v-2q14 0 42 1.5t57 2t61 0.5h43v-46h-267v46q211 111 211 351q0 132 -78.5 217t-214.5 85t-214.5 -85t-78.5 -217q0 -240 211 -351v-46
h-267z" />
    <glyph glyph-name="estimated" unicode="&#x212e;" horiz-adv-x="626" 
d="M320 -12q-119 0 -190.5 76t-71.5 200q0 120 71 198.5t191 78.5q123 0 192 -73t69 -202h-419v-153q0 -48 72 -81q35 -15 86 -15q134 0 209 126l24 -18q-46 -72 -100.5 -104.5t-132.5 -32.5zM162 290h318v135q0 22 -21.5 41.5t-49.5 30.5q-42 17 -90 17q-49 0 -86 -15
q-71 -30 -71 -71v-138z" />
    <glyph glyph-name="onethird" unicode="&#x2153;" horiz-adv-x="780" 
d="M143 261l63 352h-113l4 30q71 2 97.5 19t42.5 68h35l-84 -469h-45zM548 -10q-68 0 -107 34.5t-40 99.5l46 3q1 -46 27.5 -72.5t74.5 -26.5q53 0 83.5 29t30.5 81q0 42 -30 64.5t-77 22.5h-16l5 39h12q53 0 88 24.5t35 74.5q0 32 -21.5 51t-59.5 19q-81 0 -99 -87l-45 4
q8 56 46.5 89t99.5 33q59 0 92 -28.5t33 -74.5q0 -48 -28 -80t-74 -42v-1q85 -25 85 -107q0 -67 -43.5 -108t-117.5 -41zM119 0l418 730h49l-418 -730h-49z" />
    <glyph glyph-name="twothirds" unicode="&#x2154;" horiz-adv-x="898" 
d="M674 -10q-68 0 -107 34.5t-40 99.5l46 3q1 -46 27.5 -72.5t74.5 -26.5q53 0 83.5 29t30.5 81q0 42 -30 64.5t-77 22.5h-16l5 39h12q53 0 88 24.5t35 74.5q0 32 -21.5 51t-59.5 19q-81 0 -99 -87l-45 4q8 56 46.5 89t99.5 33q59 0 92 -28.5t33 -74.5q0 -48 -28 -80
t-74 -42v-1q85 -25 85 -107q0 -67 -43.5 -108t-117.5 -41zM245 0l418 730h49l-418 -730h-49zM49 261l6 35q86 65 155 122l35 28q26 22 40 35t33.5 35.5t28 46.5t8.5 52q0 38 -24 59t-67 21q-93 0 -111 -107l-46 1q9 65 51 105.5t110 40.5q63 0 98 -31.5t35 -85.5
q0 -64 -40.5 -114t-118.5 -110q-101 -75 -128 -93v-1q35 1 110 1h129l-7 -40h-297z" />
    <glyph glyph-name="oneeighth" unicode="&#x215b;" horiz-adv-x="797" 
d="M143 261l63 352h-113l4 30q71 2 97.5 19t42.5 68h35l-84 -469h-45zM119 0l418 730h49l-418 -730h-49zM554 -9q-65 0 -107 32.5t-42 90.5q0 51 30.5 86.5t85.5 51.5v1q-57 33 -57 95q0 53 39 89t108 36q60 0 96 -30t36 -78q0 -44 -25.5 -74.5t-66.5 -42.5l-1 -1
q75 -35 75 -109q0 -67 -46.5 -107t-124.5 -40zM558 29q57 0 89 29t32 83q0 41 -28 63.5t-77 22.5q-52 0 -87.5 -29t-35.5 -79q0 -44 29 -67t78 -23zM595 264q45 0 73.5 25.5t28.5 69.5q0 34 -24 55t-65 21q-44 0 -71.5 -22.5t-27.5 -63.5q0 -40 22.5 -62.5t63.5 -22.5z" />
    <glyph glyph-name="threeeighths" unicode="&#x215c;" horiz-adv-x="910" 
d="M241 0l418 730h49l-418 -730h-49zM676 -9q-65 0 -107 32.5t-42 90.5q0 51 30.5 86.5t85.5 51.5v1q-57 33 -57 95q0 53 39 89t108 36q60 0 96 -30t36 -78q0 -44 -25.5 -74.5t-66.5 -42.5l-1 -1q75 -35 75 -109q0 -67 -46.5 -107t-124.5 -40zM680 29q57 0 89 29t32 83
q0 41 -28 63.5t-77 22.5q-52 0 -87.5 -29t-35.5 -79q0 -44 29 -67t78 -23zM717 264q45 0 73.5 25.5t28.5 69.5q0 34 -24 55t-65 21q-44 0 -71.5 -22.5t-27.5 -63.5q0 -40 22.5 -62.5t63.5 -22.5zM206 252q-68 0 -107 34.5t-40 99.5l46 3q1 -46 27.5 -72.5t74.5 -26.5
q53 0 83.5 29t30.5 81q0 42 -30 64.5t-77 22.5h-16l5 39h12q53 0 88 24.5t35 74.5q0 32 -21.5 51t-59.5 19q-81 0 -99 -87l-45 4q8 56 46.5 89t99.5 33q59 0 92 -28.5t33 -74.5q0 -48 -28 -80t-74 -42v-1q85 -25 85 -107q0 -67 -43.5 -108t-117.5 -41z" />
    <glyph glyph-name="fiveeighths" unicode="&#x215d;" horiz-adv-x="900" 
d="M231 0l418 730h49l-418 -730h-49zM666 -9q-65 0 -107 32.5t-42 90.5q0 51 30.5 86.5t85.5 51.5v1q-57 33 -57 95q0 53 39 89t108 36q60 0 96 -30t36 -78q0 -44 -25.5 -74.5t-66.5 -42.5l-1 -1q75 -35 75 -109q0 -67 -46.5 -107t-124.5 -40zM670 29q57 0 89 29t32 83
q0 41 -28 63.5t-77 22.5q-52 0 -87.5 -29t-35.5 -79q0 -44 29 -67t78 -23zM707 264q45 0 73.5 25.5t28.5 69.5q0 34 -24 55t-65 21q-44 0 -71.5 -22.5t-27.5 -63.5q0 -40 22.5 -62.5t63.5 -22.5zM204 255q-66 0 -104 34t-42 94q7 0 14.5 0.5t16.5 1.5t14 1q3 -41 29 -67.5
t74 -26.5q53 0 85 37t32 94q0 48 -26.5 76.5t-71.5 28.5q-59 0 -92 -49l-44 6l67 245h238l-7 -41h-204l-44 -161q38 38 98 38q56 0 94.5 -36.5t38.5 -100.5q0 -76 -45 -125t-121 -49z" />
    <glyph glyph-name="seveneighths" unicode="&#x215e;" horiz-adv-x="792" 
d="M116 0l418 730h49l-418 -730h-49zM551 -9q-65 0 -107 32.5t-42 90.5q0 51 30.5 86.5t85.5 51.5v1q-57 33 -57 95q0 53 39 89t108 36q60 0 96 -30t36 -78q0 -44 -25.5 -74.5t-66.5 -42.5l-1 -1q75 -35 75 -109q0 -67 -46.5 -107t-124.5 -40zM555 29q57 0 89 29t32 83
q0 41 -28 63.5t-77 22.5q-52 0 -87.5 -29t-35.5 -79q0 -44 29 -67t78 -23zM592 264q45 0 73.5 25.5t28.5 69.5q0 34 -24 55t-65 21q-44 0 -71.5 -22.5t-27.5 -63.5q0 -40 22.5 -62.5t63.5 -22.5zM129 263h-51q102 236 266 426h-34h-203l7 41h285l-5 -37q-165 -191 -265 -430
z" />
    <glyph glyph-name="arrowleft" unicode="&#x2190;" horiz-adv-x="830" 
d="M350 2l-153 162q-84 90 -156 162q72 72 156 162l153 162h67l-157 -163q-130 -132 -136 -138v-1q45 0 105.5 0.5t83.5 0.5h488v-45h-490q-105 0 -188 1v-1q6 -6 136 -138l158 -164h-67z" />
    <glyph glyph-name="arrowup" unicode="&#x2191;" horiz-adv-x="724" 
d="M365 0v482q0 106 1 189h-1q-6 -6 -137 -135l-164 -157v64l162 153q90 84 162 156q58 -58 163 -156l162 -153v-64l-162 156q-22 21 -71 69t-67 66h-1q1 -83 1 -190v-480h-48z" />
    <glyph glyph-name="arrowright" unicode="&#x2192;" horiz-adv-x="830" 
d="M434 2l158 164q130 132 136 138v1q-83 -1 -188 -1h-490v45h488q106 0 189 -1v1q-6 6 -136 138l-157 163h67l153 -162q84 -90 156 -162q-72 -72 -156 -162l-153 -162h-67z" />
    <glyph glyph-name="arrowdown" unicode="&#x2193;" horiz-adv-x="723" 
d="M367 -36q-72 72 -162 156l-162 153v64l164 -157q131 -129 137 -135h1q-1 83 -1 189v482h48v-480q0 -107 -1 -190h1q18 18 67 66t71 69l162 156v-64l-162 -153q-105 -98 -163 -156z" />
    <glyph glyph-name="uni2196" unicode="&#x2196;" horiz-adv-x="743" 
d="M643 6l-346 345q-48 46 -133 135l-1 -1q1 -45 1 -192v-227l-47 45l3 223q2 166 2 225q32 0 110.5 2t115.5 2l223 3l45 -46h-225q-47 0 -111.5 -1t-81.5 -1h-1l69.5 -69.5t65.5 -64.5l345 -344z" />
    <glyph glyph-name="uni2197" unicode="&#x2197;" horiz-adv-x="665" 
d="M51 6l-34 34l345 344q105 105 135 134h-1q-19 0 -87 1t-106 1h-225l45 46l223 -3q37 0 115.5 -2t110.5 -2q0 -59 2 -225l3 -223l-47 -45v227q0 147 1 192l-1 1q-38 -40 -133 -135z" />
    <glyph glyph-name="uni2198" unicode="&#x2198;" horiz-adv-x="742" 
d="M177 -2l-45 45l225 1q47 0 111.5 1t81.5 1h1q-80 76 -135 134l-345 344l34 34l346 -345q16 -17 59 -59.5t74 -75.5l1 1q-1 45 -1 192v227l47 -45l-3 -223q-2 -166 -2 -225q-32 0 -110.5 -2t-115.5 -2z" />
    <glyph glyph-name="uni2199" unicode="&#x2199;" horiz-adv-x="665" 
d="M549 0l-223 3q-37 0 -115.5 2t-110.5 2q0 59 -2 225l-3 223l47 45v-227q0 -147 -1 -192l1 -1q38 40 133 135l346 345l34 -34l-345 -344l-135 -134h1q17 0 81.5 -1t111.5 -1l225 -1z" />
    <glyph glyph-name="partialdiff" unicode="&#x2202;" horiz-adv-x="591" 
d="M262 -11q-106 0 -166.5 60t-60.5 168q0 123 75 206.5t189 83.5q121 0 178 -86l3 2q-35 97 -104.5 165t-178.5 134l59 15q55 -31 102 -71.5t89 -94t66.5 -123.5t24.5 -146q0 -135 -72 -224t-204 -89zM266 31q98 0 158.5 71t60.5 177q0 84 -48.5 134.5t-135.5 50.5
q-101 0 -158.5 -72t-57.5 -176q0 -88 47 -136.5t134 -48.5z" />
    <glyph glyph-name="increment" unicode="&#x2206;" horiz-adv-x="720" 
d="M9 0l301 730h51l292 -730h-644zM250 465l-171 -418h499l-163 422l-79 206h-3q-47 -122 -83 -210z" />
    <glyph glyph-name="product" unicode="&#x220f;" horiz-adv-x="773" 
d="M85 -98l137 782h-119l8 46h710l-8 -46h-119l-137 -782h-53l137 782h-366l-137 -782h-53z" />
    <glyph glyph-name="summation" unicode="&#x2211;" horiz-adv-x="614" 
d="M-26 -94l7 42l366 377l-232 362l7 43h527l-8 -46h-468l235 -365l-357 -367h473l-8 -46h-542z" />
    <glyph glyph-name="minus" unicode="&#x2212;" 
d="M66 335v40h485v-40h-485z" />
    <glyph glyph-name="radical" unicode="&#x221a;" horiz-adv-x="587" 
d="M317 0l-165 484h-98v42h137l79 -239q35 -102 77 -243h2q30 100 78 251l139 435h51l-239 -730h-61z" />
    <glyph glyph-name="infinity" unicode="&#x221e;" horiz-adv-x="863" 
d="M226 195q-75 0 -114 45t-39 110q0 72 42 116t111 44q29 0 54.5 -8t57 -30.5t48 -36.5t58.5 -52q42 38 58.5 52t48 36.5t57 30.5t54.5 8q69 0 111 -44t42 -116q0 -65 -39 -110t-114 -45q-100 0 -218 131q-118 -131 -218 -131zM230 235q41 0 82.5 28.5t104.5 87.5
q-10 9 -37 34t-39.5 35t-34 25t-40 20.5t-38.5 5.5q-53 0 -82 -34t-29 -83q0 -53 29 -86t84 -33zM658 235q55 0 84 33t29 86q0 49 -29 83t-82 34q-21 0 -40 -6t-39.5 -20.5t-33.5 -25t-38.5 -34.5t-37.5 -34q60 -58 103 -87t84 -29z" />
    <glyph glyph-name="integral" unicode="&#x222b;" 
d="M97 -158q-18 0 -43 4l8 40q17 -4 35 -4q58 0 81 32t34 103l96 561q15 89 51.5 128.5t110.5 39.5q24 0 49 -4l-6 -40q-20 4 -43 4q-58 0 -80 -32.5t-36 -105.5l-95 -558q-16 -91 -51.5 -129.5t-110.5 -38.5z" />
    <glyph glyph-name="approxequal" unicode="&#x2248;" 
d="M421 209q-36 0 -108 33l-58 26q-40 17 -62 17q-29 0 -50 -19t-43 -52l-28 25q49 88 124 88q13 0 28 -3.5t24 -7t28 -12t27 -11.5l61 -27q36 -15 60 -15q30 0 51 18.5t42 51.5l29 -23q-47 -89 -125 -89zM421 387q-36 0 -108 33l-58 26q-40 17 -62 17q-29 0 -50 -19
t-43 -52l-28 25q49 88 124 88q13 0 28 -3.5t24 -7t28 -12t27 -11.5l61 -27q36 -15 60 -15q30 0 51 18.5t42 51.5l29 -23q-47 -89 -125 -89z" />
    <glyph glyph-name="notequal" unicode="&#x2260;" 
d="M120 80l93 159h-146v40h170l89 152h-259v40h283l92 156h48l-92 -156h154v-40h-178l-89 -152h267v-40h-291l-93 -159h-48z" />
    <glyph glyph-name="lessequal" unicode="&#x2264;" 
d="M481 133l-396 199v42l396 200v-43q-108 -53 -358 -178q296 -148 358 -177v-43zM85 0v40h396v-40h-396z" />
    <glyph glyph-name="greaterequal" unicode="&#x2265;" 
d="M101 133v43q62 29 358 177q-250 125 -358 178v43l396 -200v-42zM101 0v40h396v-40h-396z" />
    <glyph glyph-name="lozenge" unicode="&#x25ca;" 
d="M285 0l-237 366l237 364h52l237 -364l-237 -366h-52zM312 41l206 325l-208 322l-206 -322z" />
    <glyph glyph-name="uni25CF" unicode="&#x25cf;" 
d="M268 342q0 16 11 27t27 11q17 0 28.5 -11t11.5 -27q0 -17 -11.5 -28t-28.5 -11q-16 0 -27 11t-11 28z" />
    <glyph glyph-name="uniFB00" unicode="&#xfb00;" horiz-adv-x="551" 
d="M64 0l85 483h-91l8 43h91l16 88q12 66 44.5 91.5t95.5 25.5q8 0 44 -3l-8 -43q-10 2 -35 2q-44 0 -64.5 -16t-28.5 -61l-14 -84h211l16 88q12 66 44.5 91.5t95.5 25.5q8 0 44 -3l-8 -43q-10 2 -35 2q-44 0 -64.5 -16t-28.5 -61l-14 -84h114l-8 -43h-114l-85 -483h-50
l85 483h-211l-85 -483h-50z" />
    <glyph glyph-name="fi" unicode="&#xfb01;" horiz-adv-x="510" 
d="M64 0l85 483h-91l8 43h91l16 88q12 66 44.5 91.5t95.5 25.5q8 0 44 -3l-8 -43q-10 2 -35 2q-44 0 -64.5 -16t-28.5 -61l-14 -84h259l-93 -526h-50l85 483h-209l-85 -483h-50zM430 607l22 123h50l-22 -123h-50z" />
    <glyph glyph-name="fl" unicode="&#xfb02;" horiz-adv-x="512" 
d="M64 0l85 483h-90l8 43h90l13 74q4 25 10 44t15.5 33t17.5 23.5t23.5 16t25.5 9.5t32 4.5t35.5 2t41.5 0.5q64 0 132 -4l-128 -729h-50l121 687q-47 3 -90 3q-72 0 -100 -15t-37 -75l-12 -74h114l-8 -43h-114l-85 -483h-50z" />
    <glyph glyph-name="uniFB03" unicode="&#xfb03;" horiz-adv-x="771" 
d="M64 0l85 483h-91l8 43h91l16 88q12 66 44.5 91.5t95.5 25.5q8 0 44 -3l-8 -43q-10 2 -35 2q-44 0 -64.5 -16t-28.5 -61l-14 -84h211l16 88q12 66 44.5 91.5t95.5 25.5q8 0 44 -3l-8 -43q-10 2 -35 2q-44 0 -64.5 -16t-28.5 -61l-14 -84h259l-93 -526h-50l85 483h-209
l-85 -483h-50l85 483h-211l-85 -483h-50zM670 607l22 123h50l-22 -123h-50z" />
    <glyph glyph-name="uniFB04" unicode="&#xfb04;" horiz-adv-x="773" 
d="M64 0l85 483h-91l8 43h91l16 88q12 66 44.5 91.5t95.5 25.5q8 0 44 -3l-8 -43q-10 2 -35 2q-44 0 -64.5 -16t-28.5 -61l-14 -84h211l13 74q4 25 10 44t15.5 33t17.5 23.5t23.5 16t25.5 9.5t32 4.5t35.5 2t41.5 0.5q64 0 132 -4l-128 -729h-50l121 687q-47 3 -90 3
q-72 0 -100 -15t-37 -75l-12 -74h114l-8 -43h-114l-85 -483h-50l85 483h-211l-85 -483h-50z" />
    <glyph glyph-name="uniFEFF" unicode="&#xfeff;" horiz-adv-x="0" 
 />
    <glyph glyph-name="i.latn_TRK" horiz-adv-x="232" 
d="M45 0l93 526h50l-93 -526h-50zM155 610l19 111h44l-19 -111h-44z" />
    <glyph glyph-name="Ldot.latn_CAT" horiz-adv-x="533" 
d="M55 0l129 730h52l-121 -684h362l-8 -46h-414zM359 311l19 111h44l-19 -111h-44z" />
    <glyph glyph-name="ldot.latn_CAT" horiz-adv-x="262" 
d="M45 0l129 730h50l-129 -730h-50zM234 311l19 111h44l-19 -111h-44z" />
    <glyph glyph-name="bracketleft.subs" horiz-adv-x="212" 
d="M-7 -178l101 572h111l-5 -34h-67l-9 -50l-71 -404q-1 -7 -11 -49h67l-5 -35h-111z" />
    <glyph glyph-name="bracketright.subs" horiz-adv-x="211" 
d="M-48 -178l7 35h64l9 49l71 404q6 34 10 50h-67l5 34h111l-100 -572h-110z" />
    <glyph glyph-name="a.subs" horiz-adv-x="371" 
d="M101 -90q-52 0 -83 23.5t-31 66.5q0 51 34 72.5t107 35.5l80 15q27 5 33.5 10.5t6.5 22.5q0 30 -22.5 48t-60.5 18q-76 0 -98 -73l-45 5q10 49 49.5 77.5t96.5 28.5q58 0 91 -26.5t33 -74.5q0 -18 -5 -46l-27 -156l-6 -41h-46l3 15q1 3 3 13t4 14h-2q-42 -48 -115 -48z
M113 -55q47 0 78.5 27t39.5 75l4 24q3 21 5 25q-21 -7 -38 -10l-68 -13q-20 -4 -30 -6.5t-25.5 -8.5t-22.5 -12.5t-13 -17.5t-6 -25q0 -25 20.5 -41.5t55.5 -16.5z" />
    <glyph glyph-name="b.subs" horiz-adv-x="422" 
d="M180 -92q-48 0 -80.5 21.5t-43.5 48.5l-10 -62h-47q2 5 8 41l75 426h48l-19 -108l-14 -69h1q45 55 118 55q60 0 100 -40.5t40 -112.5q0 -83 -49 -141.5t-127 -58.5zM176 -54q60 0 95.5 47.5t35.5 114.5q0 53 -27 84.5t-77 31.5q-63 0 -97 -49t-34 -116q0 -52 27.5 -82.5
t76.5 -30.5z" />
    <glyph glyph-name="c.subs" horiz-adv-x="374" 
d="M155 -92q-70 0 -111 39.5t-41 113.5q0 85 48.5 142.5t130.5 57.5q58 0 93.5 -27t47.5 -73l-44 -13q-21 75 -98 75q-60 0 -94 -46.5t-34 -111.5q0 -55 26.5 -86.5t78.5 -31.5q71 0 107 69l42 -12q-43 -96 -152 -96z" />
    <glyph glyph-name="d.subs" horiz-adv-x="424" 
d="M143 -91q-60 0 -100.5 40t-40.5 112q0 85 49.5 142.5t126.5 57.5q50 0 81 -20.5t43 -48.5q8 54 14 80l20 111h47l-75 -424q-2 -7 -4 -22t-3 -21h-45q1 7 4.5 24t5.5 27h-2q-38 -58 -121 -58zM156 -53q64 0 97.5 48t33.5 116q0 52 -27 81.5t-77 29.5q-60 0 -95 -46.5
t-35 -113.5q0 -53 26.5 -84t76.5 -31z" />
    <glyph glyph-name="e.subs" horiz-adv-x="391" 
d="M157 -92q-71 0 -113 40t-42 114q0 84 48.5 141.5t129.5 57.5q70 0 107.5 -41t37.5 -109q0 -24 -3 -35h-274v-11q0 -55 29 -86.5t83 -31.5q72 0 110 67l43 -18q-48 -88 -156 -88zM55 115h225v1q0 49 -27 78t-75 29q-50 0 -81.5 -29t-41.5 -79z" />
    <glyph glyph-name="f.subs" horiz-adv-x="212" 
d="M14 -84l52 297h-57l8 40h56l9 47q8 49 32 67.5t71 18.5q3 0 36 -3l-9 -39q-6 2 -27 2q-28 0 -41 -11.5t-18 -40.5l-7 -41h77l-8 -40h-76l-52 -297h-46z" />
    <glyph glyph-name="g.subs" horiz-adv-x="420" 
d="M128 -209q-63 0 -101 25.5t-48 67.5l43 13q7 -28 33.5 -48t73.5 -20q103 0 127 113v4l9 38h-2q-17 -26 -49 -43t-72 -17q-62 0 -100 39.5t-38 110.5q0 76 46.5 132t123.5 56q49 0 81 -21t43 -50h1q2 25 5 35l4 27h48q-6 -25 -10 -54l-44 -252q-15 -83 -57.5 -119.5
t-116.5 -36.5zM153 -37q61 0 96 46t35 109q0 49 -28.5 77.5t-76.5 28.5q-59 0 -92.5 -43.5t-33.5 -105.5q0 -54 26 -83t74 -29z" />
    <glyph glyph-name="h.subs" horiz-adv-x="396" 
d="M0 -84l82 467h47l-18 -93l-15 -89q42 61 116 61q49 0 78 -26t29 -71q0 -25 -4 -41l-37 -208h-47l34 190q5 27 5 47q0 33 -19.5 51t-55.5 18q-94 0 -119 -133l-30 -173h-46z" />
    <glyph glyph-name="i.subs" horiz-adv-x="171" 
d="M0 -84l60 337h47l-60 -337h-47zM69 305l14 78h47l-14 -78h-47z" />
    <glyph glyph-name="j.subs" horiz-adv-x="169" 
d="M-61 -207q-17 0 -29 3l10 41q5 -1 16 -1q29 0 42 13.5t18 46.5l63 357h47l-65 -362q-10 -55 -32 -76.5t-70 -21.5zM68 305l14 78h47l-14 -78h-47z" />
    <glyph glyph-name="k.subs" horiz-adv-x="344" 
d="M-1 -84l83 467h47l-37 -209q-2 -13 -5 -28.5t-6.5 -32.5t-4.5 -23q16 14 36.5 31t29.5 25l120 107h65l-181 -156l133 -181h-58l-109 152l-45 -35l-21 -117h-47z" />
    <glyph glyph-name="l.subs" horiz-adv-x="171" 
d="M0 -84l83 467h47l-83 -467h-47z" />
    <glyph glyph-name="m.subs" horiz-adv-x="612" 
d="M0 -84l48 277q3 12 11 60h44l-4 -21q-1 -6 -2 -12.5t-2 -10.5l-2 -8h1q40 61 114 61q78 0 99 -62h2q16 26 47.5 44t73.5 18q48 0 76.5 -26t28.5 -71q0 -25 -4 -41l-37 -208h-47l34 190q5 27 5 47q0 69 -73 69q-90 0 -112 -133l-30 -173h-47l34 190q5 27 5 47q0 69 -72 69
q-93 0 -115 -133l-30 -173h-46z" />
    <glyph glyph-name="n.subs" horiz-adv-x="396" 
d="M0 -84l48 277q3 12 11 60h44l-4 -21q-1 -4 -2.5 -15.5t-3.5 -15.5h1q40 61 118 61q49 0 78 -26t29 -71q0 -25 -4 -41l-37 -208h-47l34 189q4 21 4 48q0 69 -74 69q-94 0 -119 -134l-30 -172h-46z" />
    <glyph glyph-name="o.subs" horiz-adv-x="406" 
d="M157 -92q-72 0 -113.5 40t-41.5 112q0 85 48.5 143t134.5 58q71 0 113 -40t42 -111q0 -85 -48.5 -143.5t-134.5 -58.5zM159 -54q64 0 97.5 47t33.5 113q0 54 -28 85.5t-79 31.5q-65 0 -98 -46.5t-33 -112.5q0 -55 27.5 -86.5t79.5 -31.5z" />
    <glyph glyph-name="p.subs" horiz-adv-x="422" 
d="M-21 -204l73 418q4 22 6 39h47l-9 -47h1q40 54 119 54q60 0 100 -40t40 -112q0 -83 -49 -141.5t-127 -58.5q-47 0 -81.5 22t-42.5 48l-1 -8q-1 -8 -3 -24.5t-5 -32.5l-21 -117h-47zM176 -54q60 0 95.5 48t35.5 114q0 53 -27 84t-77 31q-64 0 -98 -48t-34 -116
q0 -52 27.5 -82.5t77.5 -30.5z" />
    <glyph glyph-name="q.subs" horiz-adv-x="423" 
d="M233 -204l11 70q6 45 20 97h-2q-38 -55 -119 -55q-61 0 -101 40.5t-40 112.5q0 83 49.5 141.5t128.5 58.5q47 0 79 -21t43 -49h1q1 7 2.5 20.5t3.5 19.5l3 22h48q-1 -4 -9 -49l-72 -408h-46zM156 -54q65 0 98.5 48t33.5 116q0 52 -27.5 82.5t-77.5 30.5q-60 0 -95.5 -48
t-35.5 -114q0 -53 27 -84t77 -31z" />
    <glyph glyph-name="r.subs" horiz-adv-x="236" 
d="M0 -84l48 272l10 65h46l-4 -22q-1 -8 -8 -37h2q14 30 43 46.5t65 16.5q14 0 21 -1l-10 -46q-8 1 -21 1q-49 0 -76.5 -31t-39.5 -92l-30 -172h-46z" />
    <glyph glyph-name="s.subs" horiz-adv-x="331" 
d="M121 -92q-56 0 -93.5 25t-45.5 72l44 11q5 -31 30 -50.5t65 -19.5q43 0 65 17t22 44q0 15 -9 25.5t-20.5 16t-33.5 12.5l-38 13q-46 16 -66 34t-20 54q0 44 33 72t91 28q53 0 87.5 -23.5t41.5 -65.5l-44 -10q-16 61 -87 61q-35 0 -54.5 -16t-19.5 -40q0 -19 12.5 -30.5
t44.5 -23.5l41 -15q57 -23 71 -38q17 -17 17 -49q0 -49 -37.5 -76.5t-96.5 -27.5z" />
    <glyph glyph-name="t.subs" horiz-adv-x="205" 
d="M111 -84h-61q-25 12 -25 50q0 22 6 54l33 191h-57l7 42h58l17 92h46l-17 -92h70l-7 -42h-70l-31 -176q-7 -40 -7 -55q0 -43 40 -53z" />
    <glyph glyph-name="u.subs" horiz-adv-x="393" 
d="M119 -92q-49 0 -77 25t-28 70q0 22 4 42l36 208h47l-33 -190q-5 -27 -5 -46q0 -70 72 -70q95 0 115 121l32 185h47l-59 -337h-45l5 26q3 9 5 26h-1q-37 -60 -115 -60z" />
    <glyph glyph-name="v.subs" horiz-adv-x="338" 
d="M80 -84l-68 337h49l28 -161q3 -18 12 -60.5t13 -66.5h2q12 24 36 67.5t34 62.5l83 158h52l-187 -337h-54z" />
    <glyph glyph-name="w.subs" horiz-adv-x="520" 
d="M59 -84l-45 337h49l16 -147q1 -13 7.5 -63.5t9.5 -79.5h1q20 46 65 141l67 149h57l15 -146l16 -144h2q67 144 69 148l65 142h48l-164 -337h-57l-15 147q-2 23 -8 71.5t-8 69.5h-2q-3 -8 -66 -145l-64 -143h-58z" />
    <glyph glyph-name="x.subs" horiz-adv-x="332" 
d="M-50 -84l159 176l-92 161h49l73 -135l116 135h54l-149 -163l100 -174h-52l-78 144l-124 -144h-56z" />
    <glyph glyph-name="y.subs" horiz-adv-x="338" 
d="M-7 -205q-18 0 -27 1l2 39q6 -2 25 -2q28 0 49 17.5t45 64.5l-75 338h50l28 -155q3 -17 13 -63.5t14 -70.5h2l71 138l79 151h52l-202 -364q-29 -53 -55 -73.5t-71 -20.5z" />
    <glyph glyph-name="z.subs" horiz-adv-x="327" 
d="M-35 -84l8 38l198 203q43 43 55 56v3q-10 0 -40 -0.5t-42 -0.5h-120l8 38h259l-7 -37l-177 -180q-13 -14 -39 -40.5t-38 -39.5v-3q6 0 38 0.5t52 0.5h125l-8 -38h-272z" />
    <glyph glyph-name="bracketleft.sups" horiz-adv-x="212" 
d="M77 299l101 572h111l-5 -34h-67l-9 -50l-71 -404q-1 -7 -11 -49h67l-5 -35h-111z" />
    <glyph glyph-name="bracketright.sups" horiz-adv-x="211" 
d="M36 299l7 35h64l9 49l71 404q6 34 10 50h-67l5 34h111l-100 -572h-110z" />
    <glyph glyph-name="a.sups" horiz-adv-x="371" 
d="M185 387q-52 0 -83 23.5t-31 66.5q0 51 34 72.5t107 35.5l80 15q27 5 33.5 10.5t6.5 22.5q0 30 -22.5 48t-60.5 18q-76 0 -98 -73l-45 5q10 49 49.5 77.5t96.5 28.5q58 0 91 -26.5t33 -74.5q0 -18 -5 -46l-27 -156l-6 -41h-46l3 15q1 3 3 13t4 14h-2q-42 -48 -115 -48z
M197 422q47 0 78.5 27t39.5 75l4 24q3 21 5 25q-21 -7 -38 -10l-68 -13q-20 -4 -30 -6.5t-25.5 -8.5t-22.5 -12.5t-13 -17.5t-6 -25q0 -25 20.5 -41.5t55.5 -16.5z" />
    <glyph glyph-name="b.sups" horiz-adv-x="422" 
d="M264 385q-48 0 -80.5 21.5t-43.5 48.5l-10 -62h-47q2 5 8 41l75 426h48l-19 -108l-14 -69h1q45 55 118 55q60 0 100 -40.5t40 -112.5q0 -83 -49 -141.5t-127 -58.5zM260 423q60 0 95.5 47.5t35.5 114.5q0 53 -27 84.5t-77 31.5q-63 0 -97 -49t-34 -116q0 -52 27.5 -82.5
t76.5 -30.5z" />
    <glyph glyph-name="c.sups" horiz-adv-x="374" 
d="M239 385q-70 0 -111 39.5t-41 113.5q0 85 48.5 142.5t130.5 57.5q58 0 93.5 -27t47.5 -73l-44 -13q-21 75 -98 75q-60 0 -94 -46.5t-34 -111.5q0 -55 26.5 -86.5t78.5 -31.5q71 0 107 69l42 -12q-43 -96 -152 -96z" />
    <glyph glyph-name="d.sups" horiz-adv-x="424" 
d="M227 386q-60 0 -100.5 40t-40.5 112q0 85 49.5 142.5t126.5 57.5q50 0 81 -20.5t43 -48.5q8 54 14 80l20 111h47l-75 -424q-2 -7 -4 -22t-3 -21h-45q1 7 4.5 24t5.5 27h-2q-38 -58 -121 -58zM240 424q64 0 97.5 48t33.5 116q0 52 -27 81.5t-77 29.5q-60 0 -95 -46.5
t-35 -113.5q0 -53 26.5 -84t76.5 -31z" />
    <glyph glyph-name="e.sups" horiz-adv-x="391" 
d="M241 385q-71 0 -113 40t-42 114q0 84 48.5 141.5t129.5 57.5q70 0 107.5 -41t37.5 -109q0 -24 -3 -35h-274v-11q0 -55 29 -86.5t83 -31.5q72 0 110 67l43 -18q-48 -88 -156 -88zM139 592h225v1q0 49 -27 78t-75 29q-50 0 -81.5 -29t-41.5 -79z" />
    <glyph glyph-name="f.sups" horiz-adv-x="212" 
d="M98 393l52 297h-57l8 40h56l9 47q8 49 32 67.5t71 18.5q3 0 36 -3l-9 -39q-6 2 -27 2q-28 0 -41 -11.5t-18 -40.5l-7 -41h77l-8 -40h-76l-52 -297h-46z" />
    <glyph glyph-name="g.sups" horiz-adv-x="420" 
d="M212 268q-63 0 -101 25.5t-48 67.5l43 13q7 -28 33.5 -48t73.5 -20q103 0 127 113v4l9 38h-2q-17 -26 -49 -43t-72 -17q-62 0 -100 39.5t-38 110.5q0 76 46.5 132t123.5 56q49 0 81 -21t43 -50h1q2 25 5 35l4 27h48q-6 -25 -10 -54l-44 -252q-15 -83 -57.5 -119.5
t-116.5 -36.5zM237 440q61 0 96 46t35 109q0 49 -28.5 77.5t-76.5 28.5q-59 0 -92.5 -43.5t-33.5 -105.5q0 -54 26 -83t74 -29z" />
    <glyph glyph-name="h.sups" horiz-adv-x="396" 
d="M84 393l82 467h47l-18 -93l-15 -89q42 61 116 61q49 0 78 -26t29 -71q0 -25 -4 -41l-37 -208h-47l34 190q5 27 5 47q0 33 -19.5 51t-55.5 18q-94 0 -119 -133l-30 -173h-46z" />
    <glyph glyph-name="i.sups" horiz-adv-x="171" 
d="M84 393l60 337h47l-60 -337h-47zM153 782l14 78h47l-14 -78h-47z" />
    <glyph glyph-name="j.sups" horiz-adv-x="169" 
d="M23 270q-17 0 -29 3l10 41q5 -1 16 -1q29 0 42 13.5t18 46.5l63 357h47l-65 -362q-10 -55 -32 -76.5t-70 -21.5zM152 782l14 78h47l-14 -78h-47z" />
    <glyph glyph-name="k.sups" horiz-adv-x="344" 
d="M84 393l83 467h47l-37 -209q-2 -13 -5 -28.5t-6.5 -32.5t-4.5 -23q16 14 36.5 31t29.5 25l120 107h65l-181 -156l133 -181h-58l-109 152l-45 -35l-21 -117h-47z" />
    <glyph glyph-name="l.sups" horiz-adv-x="171" 
d="M84 393l83 467h47l-83 -467h-47z" />
    <glyph glyph-name="m.sups" horiz-adv-x="612" 
d="M84 393l48 277q3 12 11 60h44l-4 -21q-1 -6 -2 -12.5t-2 -10.5l-2 -8h1q40 61 114 61q78 0 99 -62h2q16 26 47.5 44t73.5 18q48 0 76.5 -26t28.5 -71q0 -25 -4 -41l-37 -208h-47l34 190q5 27 5 47q0 69 -73 69q-90 0 -112 -133l-30 -173h-47l34 190q5 27 5 47
q0 69 -72 69q-93 0 -115 -133l-30 -173h-46z" />
    <glyph glyph-name="o.sups" horiz-adv-x="406" 
d="M241 385q-72 0 -113.5 40t-41.5 112q0 85 48.5 143t134.5 58q71 0 113 -40t42 -111q0 -85 -48.5 -143.5t-134.5 -58.5zM243 423q64 0 97.5 47t33.5 113q0 54 -28 85.5t-79 31.5q-65 0 -98 -46.5t-33 -112.5q0 -55 27.5 -86.5t79.5 -31.5z" />
    <glyph glyph-name="p.sups" horiz-adv-x="422" 
d="M63 273l73 418q4 23 6 39h47l-9 -47h1q40 54 119 54q60 0 100 -40t40 -112q0 -83 -49 -141.5t-127 -58.5q-47 0 -81.5 22t-42.5 48l-1 -8q-1 -8 -3 -24.5t-5 -32.5l-21 -117h-47zM260 423q60 0 95.5 48t35.5 114q0 53 -27 84t-77 31q-64 0 -98 -48t-34 -116
q0 -52 27.5 -82.5t77.5 -30.5z" />
    <glyph glyph-name="q.sups" horiz-adv-x="423" 
d="M317 273l11 70q6 45 20 97h-2q-38 -55 -119 -55q-61 0 -101 40.5t-40 112.5q0 83 49.5 141.5t128.5 58.5q47 0 79 -21t43 -49h1q1 7 2.5 20.5t3.5 19.5l3 22h48q-1 -4 -9 -49l-72 -408h-46zM240 423q65 0 98.5 48t33.5 116q0 52 -27.5 82.5t-77.5 30.5q-60 0 -95.5 -48
t-35.5 -114q0 -53 27 -84t77 -31z" />
    <glyph glyph-name="r.sups" horiz-adv-x="236" 
d="M84 393l48 272l10 65h46l-4 -22q-1 -8 -8 -37h2q14 30 43 46.5t65 16.5q14 0 21 -1l-10 -46q-8 1 -21 1q-49 0 -76.5 -31t-39.5 -92l-30 -172h-46z" />
    <glyph glyph-name="s.sups" horiz-adv-x="331" 
d="M205 385q-56 0 -93.5 25t-45.5 72l44 11q5 -31 30 -50.5t65 -19.5q43 0 65 17t22 44q0 15 -9 25.5t-20.5 16t-33.5 12.5l-38 13q-46 16 -66 34t-20 54q0 44 33 72t91 28q53 0 87.5 -23.5t41.5 -65.5l-44 -10q-16 61 -87 61q-35 0 -54.5 -16t-19.5 -40q0 -19 12.5 -30.5
t44.5 -23.5l41 -15q57 -23 71 -38q17 -19 17 -49q0 -49 -37.5 -76.5t-96.5 -27.5z" />
    <glyph glyph-name="t.sups" horiz-adv-x="205" 
d="M195 393h-61q-25 12 -25 50q0 23 6 54l33 191h-57l7 42h58l17 92h46l-17 -92h70l-7 -42h-70l-31 -176q-7 -40 -7 -55q0 -43 40 -53z" />
    <glyph glyph-name="u.sups" horiz-adv-x="393" 
d="M203 385q-49 0 -77 25t-28 70q0 22 4 42l36 208h47l-33 -190q-5 -27 -5 -46q0 -70 72 -70q95 0 115 121l32 185h47l-59 -337h-45l5 26q3 9 5 26h-1q-37 -60 -115 -60z" />
    <glyph glyph-name="v.sups" horiz-adv-x="338" 
d="M164 393l-68 337h49l28 -161q3 -18 12 -60.5t13 -66.5h2q12 24 36 67.5t34 62.5l83 158h52l-187 -337h-54z" />
    <glyph glyph-name="w.sups" horiz-adv-x="520" 
d="M143 393l-45 337h49l16 -147q1 -13 7.5 -63.5t9.5 -79.5h1q20 46 65 141l67 149h57l15 -146l16 -144h2q67 144 69 148l65 142h48l-164 -337h-57l-15 147q-2 23 -8 71.5t-8 69.5h-2q-3 -8 -66 -145l-64 -143h-58z" />
    <glyph glyph-name="x.sups" horiz-adv-x="332" 
d="M34 393l159 176l-92 161h49l73 -135l116 135h54l-149 -163l100 -174h-52l-78 144l-124 -144h-56z" />
    <glyph glyph-name="y.sups" horiz-adv-x="338" 
d="M77 272q-18 0 -27 1l2 39q6 -2 25 -2q28 0 49 17.5t45 64.5l-75 338h50l28 -155q3 -17 13 -63.5t14 -70.5h2l71 138l79 151h52l-202 -364q-29 -53 -55 -73.5t-71 -20.5z" />
    <glyph glyph-name="z.sups" horiz-adv-x="327" 
d="M50 393l8 38l198 203q43 43 55 56v3q-10 0 -40 -0.5t-42 -0.5h-120l8 38h259l-7 -37l-177 -180q-12 -13 -38.5 -39.5t-38.5 -40.5v-3q6 0 38 0.5t52 0.5h125l-8 -38h-272z" />
    <glyph glyph-name="zero.numr" horiz-adv-x="401" 
d="M204 255q-129 0 -129 143q0 59 8 96q8 41 17 72.5t24.5 65t35 55.5t49.5 36t67 14q131 0 131 -141q0 -60 -9 -101q-10 -52 -23 -90t-34.5 -74.5t-56 -56t-80.5 -19.5zM207 295q49 0 76 29q35 37 55.5 118t20.5 150q0 103 -87 103q-43 0 -75 -29q-36 -35 -56 -115
t-20 -150q0 -106 86 -106z" />
    <glyph glyph-name="one.numr" horiz-adv-x="301" 
d="M41 263l7 37h102l56 315h-113l4 30q71 2 97.5 19t42.5 68h35l-77 -432h98l-6 -37h-246z" />
    <glyph glyph-name="two.numr" horiz-adv-x="369" 
d="M36 263l6 35q86 65 155 122l35 28q26 22 40 35t33.5 35.5t28 46.5t8.5 52q0 38 -24 59t-67 21q-93 0 -111 -107l-46 1q9 65 51 105.5t110 40.5q63 0 98 -31.5t35 -85.5q0 -64 -40.5 -114t-118.5 -110q-101 -75 -128 -93v-1q35 1 110 1h129l-7 -40h-297z" />
    <glyph glyph-name="three.numr" horiz-adv-x="375" 
d="M197 255q-68 0 -107 34.5t-40 99.5l46 3q1 -46 27.5 -72.5t74.5 -26.5q53 0 83.5 29t30.5 81q0 42 -30 64.5t-77 22.5h-16l5 39h12q53 0 88 24.5t35 74.5q0 32 -21.5 51t-59.5 19q-81 0 -99 -87l-45 4q8 56 46.5 89t99.5 33q59 0 92 -28.5t33 -74.5q0 -48 -28 -80
t-74 -42v-1q85 -25 85 -107q0 -67 -43.5 -108t-117.5 -41z" />
    <glyph glyph-name="four.numr" horiz-adv-x="364" 
d="M233 263l19 106h-200l5 33l164 326h45l-159 -319h152l32 184h40l-32 -184h75l-6 -40h-76l-19 -106h-40z" />
    <glyph glyph-name="five.numr" horiz-adv-x="373" 
d="M200 255q-66 0 -104 34t-42 94q7 0 14.5 0.5t16.5 1.5t14 1q3 -41 29 -67.5t74 -26.5q53 0 85 37t32 94q0 48 -26.5 76.5t-71.5 28.5q-59 0 -92 -49l-44 6l67 245h238l-7 -41h-204l-44 -161q38 38 98 38q56 0 94.5 -36.5t38.5 -100.5q0 -76 -45 -125t-121 -49z" />
    <glyph glyph-name="six.numr" horiz-adv-x="392" 
d="M218 254q-68 0 -105.5 37.5t-37.5 115.5q0 47 10 100q23 118 70.5 174t122.5 56q61 0 93 -32t36 -83l-43 -4q-3 38 -25.5 60t-63.5 22q-66 0 -104 -68q-25 -49 -46 -138h2q14 27 45.5 46t74.5 19q61 0 98 -35.5t37 -99.5q0 -72 -45.5 -121t-118.5 -49zM220 291
q53 0 85 37.5t32 93.5q0 48 -26.5 74.5t-73.5 26.5q-53 0 -85.5 -36.5t-32.5 -90.5q0 -52 27 -78.5t74 -26.5z" />
    <glyph glyph-name="seven.numr" horiz-adv-x="326" 
d="M115 263h-51q102 236 266 426h-34h-203l7 41h285l-5 -37q-165 -191 -265 -430z" />
    <glyph glyph-name="eight.numr" horiz-adv-x="397" 
d="M209 255q-65 0 -107 32.5t-42 90.5q0 51 30.5 86.5t85.5 51.5v1q-57 33 -57 95q0 53 39 89t108 36q60 0 96 -30t36 -78q0 -44 -25.5 -74.5t-66.5 -42.5l-1 -1q75 -35 75 -109q0 -67 -46.5 -107t-124.5 -40zM213 293q57 0 89 29t32 83q0 41 -28 63.5t-77 22.5
q-52 0 -87.5 -29t-35.5 -79q0 -44 29 -67t78 -23zM250 528q45 0 73.5 25.5t28.5 69.5q0 34 -24 55t-65 21q-44 0 -71.5 -22.5t-27.5 -63.5q0 -40 22.5 -62.5t63.5 -22.5z" />
    <glyph glyph-name="nine.numr" horiz-adv-x="392" 
d="M196 254q-61 0 -94.5 32.5t-37.5 83.5l44 5q7 -84 91 -84q51 0 83 37.5t52 118.5q3 10 12 47h-1q-13 -26 -44 -42.5t-75 -16.5q-60 0 -97 35t-37 99q0 70 45 119t118 49q67 0 105 -38t38 -115q0 -47 -10 -100q-21 -118 -69 -174t-123 -56zM236 471q54 0 86.5 35.5
t32.5 90.5q0 52 -27 78t-74 26q-53 0 -85 -37t-32 -93q0 -48 26 -74t73 -26z" />
    <glyph glyph-name="bracketleft.numr" horiz-adv-x="212" 
d="M54 169l101 572h111l-5 -34h-67l-9 -50l-71 -404q-1 -7 -11 -49h67l-5 -35h-111z" />
    <glyph glyph-name="bracketright.numr" horiz-adv-x="211" 
d="M13 169l7 35h64l9 49l71 404q6 34 10 50h-67l5 34h111l-100 -572h-110z" />
    <glyph glyph-name="a.numr" horiz-adv-x="371" 
d="M162 257q-52 0 -83 23.5t-31 66.5q0 51 34 72.5t107 35.5l80 15q27 5 33.5 10.5t6.5 22.5q0 30 -22.5 48t-60.5 18q-76 0 -98 -73l-45 5q10 49 49.5 77.5t96.5 28.5q58 0 91 -26.5t33 -74.5q0 -18 -5 -46l-27 -156l-6 -41h-46l3 15q1 3 3 13t4 14h-2q-42 -48 -115 -48z
M174 292q47 0 78.5 27t39.5 75l4 24q3 21 5 25q-21 -7 -38 -10l-68 -13q-20 -4 -30 -6.5t-25.5 -8.5t-22.5 -12.5t-13 -17.5t-6 -25q0 -25 20.5 -41.5t55.5 -16.5z" />
    <glyph glyph-name="b.numr" horiz-adv-x="422" 
d="M241 255q-48 0 -80.5 21.5t-43.5 48.5l-10 -62h-47q2 5 8 41l75 426h48l-19 -108l-14 -69h1q45 55 118 55q60 0 100 -40.5t40 -112.5q0 -83 -49 -141.5t-127 -58.5zM237 293q60 0 95.5 47.5t35.5 114.5q0 53 -27 84.5t-77 31.5q-63 0 -97 -49t-34 -116q0 -52 27.5 -82.5
t76.5 -30.5z" />
    <glyph glyph-name="c.numr" horiz-adv-x="374" 
d="M216 255q-70 0 -111 39.5t-41 113.5q0 85 48.5 142.5t130.5 57.5q58 0 93.5 -27t47.5 -73l-44 -13q-21 75 -98 75q-60 0 -94 -46.5t-34 -111.5q0 -55 26.5 -86.5t78.5 -31.5q71 0 107 69l42 -12q-43 -96 -152 -96z" />
    <glyph glyph-name="d.numr" horiz-adv-x="424" 
d="M204 256q-60 0 -100.5 40t-40.5 112q0 85 49.5 142.5t126.5 57.5q50 0 81 -20.5t43 -48.5q8 54 14 80l20 111h47l-75 -424q-2 -7 -4 -22t-3 -21h-45q1 7 4.5 24t5.5 27h-2q-38 -58 -121 -58zM217 294q64 0 97.5 48t33.5 116q0 52 -27 81.5t-77 29.5q-60 0 -95 -46.5
t-35 -113.5q0 -53 26.5 -84t76.5 -31z" />
    <glyph glyph-name="e.numr" horiz-adv-x="391" 
d="M218 255q-71 0 -113 40t-42 114q0 84 48.5 141.5t129.5 57.5q70 0 107.5 -41t37.5 -109q0 -24 -3 -35h-274v-11q0 -55 29 -86.5t83 -31.5q72 0 110 67l43 -18q-48 -88 -156 -88zM116 462h225v1q0 49 -27 78t-75 29q-50 0 -81.5 -29t-41.5 -79z" />
    <glyph glyph-name="f.numr" horiz-adv-x="212" 
d="M75 263l52 297h-57l8 40h56l9 47q8 49 32 67.5t71 18.5q3 0 36 -3l-9 -39q-6 2 -27 2q-28 0 -41 -11.5t-18 -40.5l-7 -41h77l-8 -40h-76l-52 -297h-46z" />
    <glyph glyph-name="g.numr" horiz-adv-x="420" 
d="M189 138q-63 0 -101 25.5t-48 67.5l43 13q7 -28 33.5 -48t73.5 -20q103 0 127 113v4l9 38h-2q-17 -26 -49 -43t-72 -17q-62 0 -100 39.5t-38 110.5q0 76 46.5 132t123.5 56q49 0 81 -21t43 -50h1q2 25 5 35l4 27h48q-6 -25 -10 -54l-44 -252q-15 -83 -57.5 -119.5
t-116.5 -36.5zM214 310q61 0 96 46t35 109q0 49 -28.5 77.5t-76.5 28.5q-59 0 -92.5 -43.5t-33.5 -105.5q0 -54 26 -83t74 -29z" />
    <glyph glyph-name="h.numr" horiz-adv-x="396" 
d="M61 263l82 467h47l-18 -93l-15 -89q42 61 116 61q49 0 78 -26t29 -71q0 -25 -4 -41l-37 -208h-47l34 190q5 27 5 47q0 33 -19.5 51t-55.5 18q-94 0 -119 -133l-30 -173h-46z" />
    <glyph glyph-name="i.numr" horiz-adv-x="171" 
d="M61 263l60 337h47l-60 -337h-47zM130 652l14 78h47l-14 -78h-47z" />
    <glyph glyph-name="j.numr" horiz-adv-x="169" 
d="M0 140q-17 0 -29 3l10 41q5 -1 16 -1q29 0 42 13.5t18 46.5l63 357h47l-65 -362q-10 -55 -32 -76.5t-70 -21.5zM129 652l14 78h47l-14 -78h-47z" />
    <glyph glyph-name="k.numr" horiz-adv-x="344" 
d="M61 263l83 467h47l-37 -209l-16 -84q16 14 36.5 31t29.5 25l120 107h65l-181 -156l133 -181h-58l-109 152l-45 -35l-21 -117h-47z" />
    <glyph glyph-name="l.numr" horiz-adv-x="171" 
d="M61 263l83 467h47l-83 -467h-47z" />
    <glyph glyph-name="m.numr" horiz-adv-x="612" 
d="M61 263l48 277q3 12 11 60h44l-4 -21q-1 -6 -2 -12.5t-2 -10.5l-2 -8h1q40 61 114 61q78 0 99 -62h2q16 26 47.5 44t73.5 18q48 0 76.5 -26t28.5 -71q0 -25 -4 -41l-37 -208h-47l34 190q5 27 5 47q0 69 -73 69q-90 0 -112 -133l-30 -173h-47l34 190q5 27 5 47
q0 69 -72 69q-93 0 -115 -133l-30 -173h-46z" />
    <glyph glyph-name="n.numr" horiz-adv-x="396" 
d="M61 263l48 277q3 12 11 60h44l-4 -21q-1 -4 -2.5 -15.5t-3.5 -15.5h1q40 61 118 61q49 0 78 -26t29 -71q0 -25 -4 -41l-37 -208h-47l34 189q4 21 4 48q0 69 -74 69q-94 0 -119 -134l-30 -172h-46z" />
    <glyph glyph-name="o.numr" horiz-adv-x="406" 
d="M218 255q-72 0 -113.5 40t-41.5 112q0 85 48.5 143t134.5 58q71 0 113 -40t42 -111q0 -85 -48.5 -143.5t-134.5 -58.5zM220 293q64 0 97.5 47t33.5 113q0 54 -28 85.5t-79 31.5q-65 0 -98 -46.5t-33 -112.5q0 -55 27.5 -86.5t79.5 -31.5z" />
    <glyph glyph-name="p.numr" horiz-adv-x="422" 
d="M40 143l73 418q5 23 6 39h47l-9 -47h1q40 54 119 54q60 0 100 -40t40 -112q0 -83 -49 -141.5t-127 -58.5q-47 0 -81.5 22t-42.5 48l-1 -8q-1 -8 -3 -24.5t-5 -32.5l-21 -117h-47zM237 293q60 0 95.5 48t35.5 114q0 53 -27 84t-77 31q-64 0 -98 -48t-34 -116
q0 -52 27.5 -82.5t77.5 -30.5z" />
    <glyph glyph-name="q.numr" horiz-adv-x="423" 
d="M294 143l11 70q6 45 20 97h-2q-38 -55 -119 -55q-61 0 -101 40.5t-40 112.5q0 83 49.5 141.5t128.5 58.5q47 0 79 -21t43 -49h1q1 7 2.5 20.5t3.5 19.5l3 22h48q-1 -3 -9 -49l-72 -408h-46zM217 293q65 0 98.5 48t33.5 116q0 52 -27.5 82.5t-77.5 30.5q-60 0 -95.5 -48
t-35.5 -114q0 -53 27 -84t77 -31z" />
    <glyph glyph-name="r.numr" horiz-adv-x="236" 
d="M61 263l48 272l10 65h46l-4 -22q-1 -8 -8 -37h2q14 30 43 46.5t65 16.5q14 0 21 -1l-10 -46q-8 1 -21 1q-49 0 -76.5 -31t-39.5 -92l-30 -172h-46z" />
    <glyph glyph-name="s.numr" horiz-adv-x="331" 
d="M182 255q-56 0 -93.5 25t-45.5 72l44 11q5 -31 30 -50.5t65 -19.5q43 0 65 17t22 44q0 15 -9 25.5t-20.5 16t-33.5 12.5l-38 13q-46 16 -66 34t-20 54q0 44 33 72t91 28q53 0 87.5 -23.5t41.5 -65.5l-44 -10q-16 61 -87 61q-35 0 -54.5 -16t-19.5 -40q0 -19 12.5 -30.5
t44.5 -23.5l41 -15q57 -23 71 -38q17 -17 17 -49q0 -49 -37.5 -76.5t-96.5 -27.5z" />
    <glyph glyph-name="t.numr" horiz-adv-x="205" 
d="M172 263h-61q-25 12 -25 50q0 23 6 54l33 191h-57l7 42h58l17 92h46l-17 -92h70l-7 -42h-70l-31 -176q-7 -40 -7 -55q0 -43 40 -53z" />
    <glyph glyph-name="u.numr" horiz-adv-x="393" 
d="M180 255q-49 0 -77 25t-28 70q0 22 4 42l36 208h47l-33 -190q-5 -27 -5 -46q0 -70 72 -70q95 0 115 121l32 185h47l-59 -337h-45l5 26q3 9 5 26h-1q-37 -60 -115 -60z" />
    <glyph glyph-name="v.numr" horiz-adv-x="338" 
d="M141 263l-68 337h49l28 -161q3 -18 12 -60.5t13 -66.5h2q12 24 36 67.5t34 62.5l83 158h52l-187 -337h-54z" />
    <glyph glyph-name="w.numr" horiz-adv-x="520" 
d="M120 263l-45 337h49l16 -147q1 -13 7.5 -63.5t9.5 -79.5h1q20 46 65 141l67 149h57l15 -146q2 -15 5.5 -44.5t6 -54t4.5 -45.5h2q67 144 69 148l65 142h48l-164 -337h-57l-15 147q-2 23 -8 71.5t-8 69.5h-2q-3 -8 -66 -145l-64 -143h-58z" />
    <glyph glyph-name="x.numr" horiz-adv-x="332" 
d="M11 263l159 176l-92 161h49l73 -135l116 135h54l-149 -163l100 -174h-52l-78 144l-124 -144h-56z" />
    <glyph glyph-name="y.numr" horiz-adv-x="338" 
d="M54 142q-18 0 -27 1l2 39q6 -2 25 -2q28 0 49 17.5t45 64.5l-75 338h50l28 -155q3 -17 13 -63.5t14 -70.5h2l71 138l79 151h52l-202 -364q-29 -53 -55 -73.5t-71 -20.5z" />
    <glyph glyph-name="z.numr" horiz-adv-x="327" 
d="M26 263l8 38l198 203q43 43 55 56v3q-10 0 -40 -0.5t-42 -0.5h-120l8 38h259l-7 -37l-177 -180q-13 -13 -39 -39.5t-38 -40.5v-3q6 0 38 0.5t52 0.5h125l-8 -38h-272z" />
    <glyph glyph-name="uni208D.numr" horiz-adv-x="204" 
d="M155 169l-37 -4q-49 110 -49 217q0 176 144 357l40 -4q-137 -176 -137 -366q0 -98 39 -200z" />
    <glyph glyph-name="uni208E.numr" horiz-adv-x="203" 
d="M55 165l-40 4q137 180 137 367q0 104 -39 199l37 4q49 -107 49 -211q0 -182 -144 -363z" />
    <glyph glyph-name="zero.dnom" horiz-adv-x="401" 
d="M158 -8q-129 0 -129 143q0 59 8 96q8 41 17 72.5t24.5 65t35 55.5t49.5 36t67 14q131 0 131 -141q0 -60 -9 -101q-10 -52 -23 -90t-34.5 -74.5t-56 -56t-80.5 -19.5zM161 32q49 0 76 29q35 37 55.5 118t20.5 150q0 103 -87 103q-43 0 -75 -29q-36 -35 -56 -115t-20 -150
q0 -106 86 -106z" />
    <glyph glyph-name="one.dnom" horiz-adv-x="301" 
d="M-6 0l7 37h102l56 315h-113l4 30q71 2 97.5 19t42.5 68h35l-77 -432h98l-6 -37h-246z" />
    <glyph glyph-name="two.dnom" horiz-adv-x="369" 
d="M-11 0l6 35q86 65 155 122l35 28q26 22 40 35t33.5 35.5t28 46.5t8.5 52q0 38 -24 59t-67 21q-93 0 -111 -107l-46 1q9 65 51 105.5t110 40.5q63 0 98 -31.5t35 -85.5q0 -64 -40.5 -114t-118.5 -110q-101 -75 -128 -93v-1q35 1 110 1h129l-7 -40h-297z" />
    <glyph glyph-name="three.dnom" horiz-adv-x="375" 
d="M151 -8q-68 0 -107 34.5t-40 99.5l46 3q1 -46 27.5 -72.5t74.5 -26.5q53 0 83.5 29t30.5 81q0 42 -30 64.5t-77 22.5h-16l5 39h12q53 0 88 24.5t35 74.5q0 32 -21.5 51t-59.5 19q-81 0 -99 -87l-45 4q8 56 46.5 89t99.5 33q59 0 92 -28.5t33 -74.5q0 -48 -28 -80t-74 -42
v-1q85 -25 85 -107q0 -67 -43.5 -108t-117.5 -41z" />
    <glyph glyph-name="four.dnom" horiz-adv-x="364" 
d="M186 0l19 106h-200l5 33l164 326h45l-159 -319h152l32 184h40l-32 -184h75l-6 -40h-76l-19 -106h-40z" />
    <glyph glyph-name="five.dnom" horiz-adv-x="373" 
d="M154 -8q-66 0 -104 34t-42 94q7 0 14.5 0.5t16.5 1.5t14 1q3 -41 29 -67.5t74 -26.5q53 0 85 37t32 94q0 48 -26.5 76.5t-71.5 28.5q-59 0 -92 -49l-44 6l67 245h238l-7 -41h-204l-44 -161q38 38 98 38q56 0 94.5 -36.5t38.5 -100.5q0 -76 -45 -125t-121 -49z" />
    <glyph glyph-name="six.dnom" horiz-adv-x="392" 
d="M171 -9q-68 0 -105.5 37.5t-37.5 115.5q0 47 10 100q23 118 70.5 174t122.5 56q61 0 93 -32t36 -83l-43 -4q-3 38 -25.5 60t-63.5 22q-66 0 -104 -68q-25 -49 -46 -138h2q14 27 45.5 46t74.5 19q61 0 98 -35.5t37 -99.5q0 -72 -45.5 -121t-118.5 -49zM173 28
q53 0 85 37.5t32 93.5q0 48 -26.5 74.5t-73.5 26.5q-53 0 -85.5 -36.5t-32.5 -90.5q0 -52 27 -78.5t74 -26.5z" />
    <glyph glyph-name="seven.dnom" horiz-adv-x="326" 
d="M69 0h-51q102 236 266 426h-34h-203l7 41h285l-5 -37q-165 -191 -265 -430z" />
    <glyph glyph-name="eight.dnom" horiz-adv-x="397" 
d="M163 -8q-65 0 -107 32.5t-42 90.5q0 51 30.5 86.5t85.5 51.5v1q-57 33 -57 95q0 53 39 89t108 36q60 0 96 -30t36 -78q0 -44 -25.5 -74.5t-66.5 -42.5l-1 -1q75 -35 75 -109q0 -67 -46.5 -107t-124.5 -40zM167 30q57 0 89 29t32 83q0 41 -28 63.5t-77 22.5
q-52 0 -87.5 -29t-35.5 -79q0 -44 29 -67t78 -23zM204 265q45 0 73.5 25.5t28.5 69.5q0 34 -24 55t-65 21q-44 0 -71.5 -22.5t-27.5 -63.5q0 -40 22.5 -62.5t63.5 -22.5z" />
    <glyph glyph-name="nine.dnom" horiz-adv-x="392" 
d="M149 -9q-61 0 -94.5 32.5t-37.5 83.5l44 5q7 -84 91 -84q51 0 83 37.5t52 118.5q3 10 12 47h-1q-13 -26 -44 -42.5t-75 -16.5q-60 0 -97 35t-37 99q0 70 45 119t118 49q67 0 105 -38t38 -115q0 -47 -10 -100q-21 -118 -69 -174t-123 -56zM189 208q54 0 86.5 35.5
t32.5 90.5q0 52 -27 78t-74 26q-53 0 -85 -37t-32 -93q0 -48 26 -74t73 -26z" />
    <glyph glyph-name="bracketleft.dnom" horiz-adv-x="212" 
d="M7 -94l101 572h111l-5 -34h-67l-9 -50l-71 -404q-1 -7 -11 -49h67l-5 -35h-111z" />
    <glyph glyph-name="bracketright.dnom" horiz-adv-x="211" 
d="M-33 -94l7 35h64l9 49l71 404q6 34 10 50h-67l5 34h111l-100 -572h-110z" />
    <glyph glyph-name="a.dnom" horiz-adv-x="371" 
d="M116 -6q-52 0 -83 23.5t-31 66.5q0 51 34 72.5t107 35.5l80 15q27 5 33.5 10.5t6.5 22.5q0 30 -22.5 48t-60.5 18q-76 0 -98 -73l-45 5q10 49 49.5 77.5t96.5 28.5q58 0 91 -26.5t33 -74.5q0 -18 -5 -46l-27 -156l-6 -41h-46l3 15q1 3 3 13t4 14h-2q-42 -48 -115 -48z
M128 29q47 0 78.5 27t39.5 75l4 24q3 21 5 25q-21 -7 -38 -10l-68 -13q-20 -4 -30 -6.5t-25.5 -8.5t-22.5 -12.5t-13 -17.5t-6 -25q0 -25 20.5 -41.5t55.5 -16.5z" />
    <glyph glyph-name="b.dnom" horiz-adv-x="422" 
d="M195 -8q-48 0 -80.5 21.5t-43.5 48.5l-10 -62h-47q2 5 8 41l75 426h48l-19 -108l-14 -69h1q45 55 118 55q60 0 100 -40.5t40 -112.5q0 -83 -49 -141.5t-127 -58.5zM191 30q60 0 95.5 47.5t35.5 114.5q0 53 -27 84.5t-77 31.5q-63 0 -97 -49t-34 -116q0 -52 27.5 -82.5
t76.5 -30.5z" />
    <glyph glyph-name="c.dnom" horiz-adv-x="374" 
d="M170 -8q-70 0 -111 39.5t-41 113.5q0 85 48.5 142.5t130.5 57.5q58 0 93.5 -27t47.5 -73l-44 -13q-21 75 -98 75q-60 0 -94 -46.5t-34 -111.5q0 -55 26.5 -86.5t78.5 -31.5q71 0 107 69l42 -12q-43 -96 -152 -96z" />
    <glyph glyph-name="d.dnom" horiz-adv-x="424" 
d="M158 -7q-60 0 -100.5 40t-40.5 112q0 85 49.5 142.5t126.5 57.5q50 0 81 -20.5t43 -48.5q8 54 14 80l20 111h47l-75 -424q-2 -7 -4 -22t-3 -21h-45q1 7 4.5 24t5.5 27h-2q-38 -58 -121 -58zM171 31q64 0 97.5 48t33.5 116q0 52 -27 81.5t-77 29.5q-60 0 -95 -46.5
t-35 -113.5q0 -53 26.5 -84t76.5 -31z" />
    <glyph glyph-name="e.dnom" horiz-adv-x="391" 
d="M171 -8q-71 0 -113 40t-42 114q0 84 48.5 141.5t129.5 57.5q70 0 107.5 -41t37.5 -109q0 -24 -3 -35h-274v-11q0 -55 29 -86.5t83 -31.5q72 0 110 67l43 -18q-48 -88 -156 -88zM69 199h225v1q0 49 -27 78t-75 29q-50 0 -81.5 -29t-41.5 -79z" />
    <glyph glyph-name="f.dnom" horiz-adv-x="212" 
d="M29 0l52 297h-57l8 40h56l9 47q8 49 32 67.5t71 18.5q3 0 36 -3l-9 -39q-6 2 -27 2q-28 0 -41 -11.5t-18 -40.5l-7 -41h77l-8 -40h-76l-52 -297h-46z" />
    <glyph glyph-name="g.dnom" horiz-adv-x="420" 
d="M143 -125q-63 0 -101 25.5t-48 67.5l43 13q7 -28 33.5 -48t73.5 -20q103 0 127 113v4l9 38h-2q-17 -26 -49 -43t-72 -17q-62 0 -100 39.5t-38 110.5q0 76 46.5 132t123.5 56q49 0 81 -21t43 -50h1q2 25 5 35l4 27h48q-6 -25 -10 -54l-44 -252q-15 -83 -57.5 -119.5
t-116.5 -36.5zM168 47q61 0 96 46t35 109q0 49 -28.5 77.5t-76.5 28.5q-59 0 -92.5 -43.5t-33.5 -105.5q0 -54 26 -83t74 -29z" />
    <glyph glyph-name="h.dnom" horiz-adv-x="396" 
d="M14 0l82 467h47l-18 -93l-15 -89q42 61 116 61q49 0 78 -26t29 -71q0 -25 -4 -41l-37 -208h-47l34 190q5 27 5 47q0 33 -19.5 51t-55.5 18q-94 0 -119 -133l-30 -173h-46z" />
    <glyph glyph-name="i.dnom" horiz-adv-x="171" 
d="M15 0l60 337h47l-60 -337h-47zM84 389l14 78h47l-14 -78h-47z" />
    <glyph glyph-name="j.dnom" horiz-adv-x="169" 
d="M-46 -123q-17 0 -29 3l10 41q5 -1 16 -1q29 0 42 13.5t18 46.5l63 357h47l-65 -362q-10 -55 -32 -76.5t-70 -21.5zM83 389l14 78h47l-14 -78h-47z" />
    <glyph glyph-name="k.dnom" horiz-adv-x="344" 
d="M14 0l83 467h47l-37 -209l-16 -84q16 14 36.5 31t29.5 25l120 107h65l-181 -156l133 -181h-58l-109 152l-45 -35l-21 -117h-47z" />
    <glyph glyph-name="l.dnom" horiz-adv-x="171" 
d="M15 0l83 467h47l-83 -467h-47z" />
    <glyph glyph-name="m.dnom" horiz-adv-x="612" 
d="M15 0l48 277q3 12 11 60h44l-4 -21q-1 -6 -2 -12.5t-2 -10.5l-2 -8h1q40 61 114 61q78 0 99 -62h2q16 26 47.5 44t73.5 18q48 0 76.5 -26t28.5 -71q0 -25 -4 -41l-37 -208h-47l34 190q5 27 5 47q0 69 -73 69q-90 0 -112 -133l-30 -173h-47l34 190q5 27 5 47q0 69 -72 69
q-93 0 -115 -133l-30 -173h-46z" />
    <glyph glyph-name="n.dnom" horiz-adv-x="396" 
d="M15 0l48 277q3 12 11 60h44l-4 -21q-1 -4 -2.5 -15.5t-3.5 -15.5h1q40 61 118 61q49 0 78 -26t29 -71q0 -25 -4 -41l-37 -208h-47l34 189q4 21 4 48q0 69 -74 69q-94 0 -119 -134l-30 -172h-46z" />
    <glyph glyph-name="o.dnom" horiz-adv-x="406" 
d="M172 -8q-72 0 -113.5 40t-41.5 112q0 85 48.5 143t134.5 58q71 0 113 -40t42 -111q0 -85 -48.5 -143.5t-134.5 -58.5zM174 30q64 0 97.5 47t33.5 113q0 54 -28 85.5t-79 31.5q-65 0 -98 -46.5t-33 -112.5q0 -55 27.5 -86.5t79.5 -31.5z" />
    <glyph glyph-name="p.dnom" horiz-adv-x="422" 
d="M-6 -120l73 418q5 22 6 39h47l-9 -47h1q40 54 119 54q60 0 100 -40t40 -112q0 -83 -49 -141.5t-127 -58.5q-47 0 -81.5 22t-42.5 48l-1 -8q-1 -8 -3 -24.5t-5 -32.5l-21 -117h-47zM191 30q60 0 95.5 48t35.5 114q0 53 -27 84t-77 31q-64 0 -98 -48t-34 -116
q0 -52 27.5 -82.5t77.5 -30.5z" />
    <glyph glyph-name="q.dnom" horiz-adv-x="423" 
d="M247 -120l11 70q6 45 20 97h-2q-38 -55 -119 -55q-61 0 -101 40.5t-40 112.5q0 83 49.5 141.5t128.5 58.5q47 0 79 -21t43 -49h1q1 7 2.5 20.5t3.5 19.5l3 22h48q-1 -3 -9 -49l-72 -408h-46zM170 30q65 0 98.5 48t33.5 116q0 52 -27.5 82.5t-77.5 30.5q-60 0 -95.5 -48
t-35.5 -114q0 -53 27 -84t77 -31z" />
    <glyph glyph-name="r.dnom" horiz-adv-x="236" 
d="M15 0l48 272l10 65h46l-4 -22q-1 -8 -8 -37h2q14 30 43 46.5t65 16.5q14 0 21 -1l-10 -46q-8 1 -21 1q-49 0 -76.5 -31t-39.5 -92l-30 -172h-46z" />
    <glyph glyph-name="s.dnom" horiz-adv-x="331" 
d="M136 -8q-56 0 -93.5 25t-45.5 72l44 11q5 -31 30 -50.5t65 -19.5q43 0 65 17t22 44q0 15 -9 25.5t-20.5 16t-33.5 12.5l-38 13q-46 16 -66 34t-20 54q0 44 33 72t91 28q53 0 87.5 -23.5t41.5 -65.5l-44 -10q-16 61 -87 61q-35 0 -54.5 -16t-19.5 -40q0 -19 12.5 -30.5
t44.5 -23.5l41 -15q57 -23 71 -38q17 -17 17 -49q0 -49 -37.5 -76.5t-96.5 -27.5z" />
    <glyph glyph-name="t.dnom" horiz-adv-x="205" 
d="M125 0h-61q-25 12 -25 50q0 22 6 54l33 191h-57l7 42h58l17 92h46l-17 -92h70l-7 -42h-70l-31 -176q-7 -40 -7 -55q0 -43 40 -53z" />
    <glyph glyph-name="u.dnom" horiz-adv-x="393" 
d="M134 -8q-49 0 -77 25t-28 70q0 22 4 42l36 208h47l-33 -190q-5 -27 -5 -46q0 -70 72 -70q95 0 115 121l32 185h47l-59 -337h-45l5 26q3 9 5 26h-1q-37 -60 -115 -60z" />
    <glyph glyph-name="v.dnom" horiz-adv-x="338" 
d="M95 0l-68 337h49l28 -161q3 -18 12 -60.5t13 -66.5h2q12 24 36 67.5t34 62.5l83 158h52l-187 -337h-54z" />
    <glyph glyph-name="w.dnom" horiz-adv-x="520" 
d="M74 0l-45 337h49l16 -147q1 -13 7.5 -63.5t9.5 -79.5h1q20 46 65 141l67 149h57l15 -146l16 -144h2q67 144 69 148l65 142h48l-164 -337h-57l-15 147q-2 23 -8 71.5t-8 69.5h-2q-3 -8 -66 -145l-64 -143h-58z" />
    <glyph glyph-name="x.dnom" horiz-adv-x="332" 
d="M-35 0l159 176l-92 161h49l73 -135l116 135h54l-149 -163l100 -174h-52l-78 144l-124 -144h-56z" />
    <glyph glyph-name="y.dnom" horiz-adv-x="338" 
d="M8 -121q-18 0 -27 1l2 39q6 -2 25 -2q28 0 49 17.5t45 64.5l-75 338h50l28 -155q3 -17 13 -63.5t14 -70.5h2l71 138l79 151h52l-202 -364q-29 -53 -55 -73.5t-71 -20.5z" />
    <glyph glyph-name="z.dnom" horiz-adv-x="327" 
d="M-20 0l8 38l198 203q43 43 55 56v3q-10 0 -40 -0.5t-42 -0.5h-120l8 38h259l-7 -37l-177 -180q-12 -14 -38.5 -40.5t-38.5 -39.5v-3q6 0 38 0.5t52 0.5h125l-8 -38h-272z" />
    <glyph glyph-name="uni208D.dnom" horiz-adv-x="204" 
d="M109 -94l-37 -4q-49 110 -49 217q0 176 144 357l40 -4q-137 -176 -137 -366q0 -98 39 -200z" />
    <glyph glyph-name="uni208E.dnom" horiz-adv-x="203" 
d="M9 -98l-40 4q137 180 137 367q0 104 -39 199l37 4q49 -107 49 -211q0 -182 -144 -363z" />
    <glyph glyph-name="space.frac" horiz-adv-x="54" 
 />
    <glyph glyph-name="zero.osf" horiz-adv-x="606" 
d="M262 -14q-104 0 -152 53.5t-48 158.5q0 77 14 153q12 63 25.5 112t37.5 100t55 84.5t77 55t103 21.5q201 0 201 -219q0 -74 -14 -150q-11 -62 -25.5 -111.5t-39 -99.5t-55 -83t-76.5 -54t-103 -21zM265 27q75 0 127 47q64 57 99.5 186.5t35.5 244.5q0 83 -38.5 129.5
t-119.5 46.5q-76 0 -128 -47q-63 -58 -97 -188t-34 -246q0 -173 155 -173z" />
    <glyph glyph-name="one.osf" horiz-adv-x="440" 
d="M12 0l7 38h168l89 504h-184l5 30h20q97 0 140 31t67 107h30l-119 -672h156l-7 -38h-372z" />
    <glyph glyph-name="two.osf" horiz-adv-x="554" 
d="M1 0l8 41q156 114 244 184q9 7 43.5 33.5t48.5 38.5t43 38t43 46t31 47.5t24 57t7 62.5q0 63 -41.5 98t-117.5 35q-160 0 -190 -172l-48 2q12 95 76.5 154t166.5 59q97 0 150.5 -47t53.5 -129q0 -43 -15 -84.5t-35 -72t-58 -68t-65.5 -60.5t-76.5 -61q-110 -84 -219 -158
h394l-8 -44h-459z" />
    <glyph glyph-name="three.osf" horiz-adv-x="561" 
d="M251 -14q-103 0 -162 52t-62 148l47 4q4 -79 51 -120t127 -41q89 0 140.5 47t51.5 135q0 68 -51 107t-129 39h-25l6 42h14q90 0 151.5 40t61.5 124q0 56 -37 87t-102 31q-142 0 -173 -141l-46 5q12 79 70.5 129t148.5 50q89 0 138.5 -42.5t49.5 -112.5q0 -72 -44 -122
t-119 -65v-3q61 -16 98 -60t37 -108q0 -103 -65 -164t-177 -61z" />
    <glyph glyph-name="four.osf" horiz-adv-x="536" 
d="M308 0l30 169h-312l6 38l256 503h50l-251 -498h258l52 292h48l-52 -292h118l-7 -43h-118l-30 -169h-48z" />
    <glyph glyph-name="five.osf" horiz-adv-x="559" 
d="M255 -14q-99 0 -158 51t-66 144l48 4q6 -69 52.5 -112.5t125.5 -43.5q90 0 144.5 58.5t54.5 152.5q0 81 -45 128t-123 47q-97 0 -158 -77l-49 7l105 365h358l-9 -45h-319l-82 -279q22 29 65.5 50t101.5 21q88 0 146.5 -56.5t58.5 -153.5q0 -113 -69.5 -187t-181.5 -74z
" />
    <glyph glyph-name="six.osf" 
d="M280 -14q-101 0 -159 56.5t-58 172.5q0 71 14 141q37 196 109.5 282t184.5 86q91 0 141.5 -48t56.5 -121l-47 -7q-6 62 -44.5 98t-109.5 36q-97 0 -155 -78t-90 -249l-3 -16h3q22 48 75.5 81t123.5 33q92 0 150 -55t58 -151q0 -110 -68.5 -185.5t-181.5 -75.5zM283 28
q91 0 144.5 61t53.5 156q0 78 -45 122t-124 44q-90 0 -146 -59t-56 -150q0 -87 46.5 -130.5t126.5 -43.5z" />
    <glyph glyph-name="seven.osf" horiz-adv-x="481" 
d="M101 0h-57q158 357 429 666q-21 -1 -64 -1h-317l8 45h433l-7 -43q-125 -143 -238 -317t-187 -350z" />
    <glyph glyph-name="eight.osf" horiz-adv-x="600" 
d="M272 -14q-103 0 -167 49.5t-64 137.5q0 80 48.5 135t137.5 77v3q-94 46 -94 146q0 82 59 136t164 54q93 0 148 -45t55 -119q0 -67 -42 -115.5t-108 -65.5v-2q124 -47 124 -167q0 -101 -71.5 -162.5t-189.5 -61.5zM274 27q97 0 153.5 49t56.5 138q0 67 -50.5 105.5
t-131.5 38.5q-89 0 -150 -48.5t-61 -131.5q0 -73 50 -112t133 -39zM333 398q75 0 124.5 44t49.5 114q0 58 -41.5 92.5t-111.5 34.5q-76 0 -124 -38t-48 -106q0 -65 39.5 -103t111.5 -38z" />
    <glyph glyph-name="nine.osf" horiz-adv-x="589" 
d="M249 -14q-91 0 -143 49.5t-58 122.5l47 7q6 -61 46 -99t111 -38q97 0 156 77.5t89 248.5l3 17h-3q-21 -47 -74 -76.5t-125 -29.5q-93 0 -150.5 53t-57.5 151q0 106 68.5 180.5t181.5 74.5q100 0 158.5 -56.5t58.5 -171.5q0 -56 -14 -142q-33 -195 -106.5 -281.5
t-187.5 -86.5zM308 306q90 0 146 57.5t56 147.5q0 85 -46.5 128t-126.5 43q-91 0 -144.5 -59.5t-53.5 -151.5q0 -81 44.5 -123t124.5 -42z" />
    <glyph glyph-name="uni2007.osf" horiz-adv-x="274" 
 />
    <glyph glyph-name="zero.tf" 
d="M256 -14q-104 0 -152 54.5t-48 163.5q0 77 14 156q12 65 25.5 115.5t37.5 103t55 87t77 56.5t103 22q201 0 201 -227q0 -74 -14 -153q-11 -64 -25.5 -114.5t-39 -101.5t-55 -85t-76.5 -55.5t-103 -21.5zM259 29q73 0 127 49q64 59 99.5 190t35.5 249q0 183 -158 183
q-76 0 -128 -49q-64 -59 -97.5 -192.5t-33.5 -252.5q0 -177 155 -177z" />
    <glyph glyph-name="one.tf" 
d="M88 0l7 39h168l91 520h-184l5 31h20q97 0 140.5 31.5t66.5 108.5h30l-121 -691h156l-7 -39h-372z" />
    <glyph glyph-name="two.tf" 
d="M20 0l8 42q138 102 244 187q4 3 30.5 23.5t33.5 26.5t31.5 26.5t33 29.5t28.5 30t28 34.5t21.5 35t19 40t10 41.5t4.5 46q0 66 -41.5 102t-117.5 36q-160 0 -190 -178l-48 2q12 98 76.5 159t166.5 61q97 0 150.5 -48.5t53.5 -133.5q0 -55 -19 -104t-59 -95t-76.5 -78.5
t-95.5 -78.5q-119 -93 -219 -161h394l-8 -45h-459z" />
    <glyph glyph-name="three.tf" 
d="M267 -14q-103 0 -162 53.5t-62 152.5l47 4q4 -81 51 -123.5t127 -42.5q89 0 140.5 48.5t51.5 138.5q0 70 -51 110t-129 40h-25l6 43h14q89 0 151 41.5t62 127.5q0 57 -37 89t-102 32q-142 0 -173 -145l-46 5q12 82 70.5 133t148.5 51q89 0 138.5 -44t49.5 -115
q0 -73 -44 -125t-119 -67v-3q61 -18 98 -63t37 -110q0 -105 -65 -168t-177 -63z" />
    <glyph glyph-name="four.tf" 
d="M335 0l30 172h-312l6 39l258 519h50l-253 -514h258l52 298h48l-52 -298h118l-7 -44h-118l-30 -172h-48z" />
    <glyph glyph-name="five.tf" 
d="M272 -14q-99 0 -158 51.5t-66 147.5l48 4q6 -70 52.5 -114.5t125.5 -44.5q90 0 144.5 60.5t54.5 156.5q0 83 -45 131.5t-123 48.5q-100 0 -158 -80l-49 7l105 376h358l-9 -45h-319l-82 -288q58 72 167 72q88 0 146.5 -57t58.5 -158q0 -116 -69.5 -192t-181.5 -76z" />
    <glyph glyph-name="six.tf" 
d="M282 -14q-101 0 -159 58t-58 177q0 72 14 143q35 203 108 291.5t186 88.5q91 0 141.5 -49.5t56.5 -126.5l-47 -7q-6 65 -44.5 102.5t-109.5 37.5q-97 0 -156 -80.5t-89 -257.5l-3 -16h3q22 48 75.5 82t123.5 34q92 0 150 -56t58 -154q0 -114 -68 -190.5t-182 -76.5z
M285 29q91 0 144.5 63t53.5 159q0 80 -45 124.5t-124 44.5q-90 0 -146 -60t-56 -153q0 -89 46.5 -133.5t126.5 -44.5z" />
    <glyph glyph-name="seven.tf" 
d="M157 0h-57q162 373 430 685q-21 -1 -64 -1h-317l8 46h433l-7 -44q-124 -145 -238 -325.5t-188 -360.5z" />
    <glyph glyph-name="eight.tf" 
d="M269 -14q-103 0 -167 51t-64 142q0 83 48.5 138t137.5 79v3q-94 46 -94 149q0 84 59 140t164 56q93 0 148 -47t55 -123q0 -68 -42.5 -117.5t-107.5 -66.5v-2q124 -47 124 -172q0 -103 -71.5 -166.5t-189.5 -63.5zM271 28q97 0 153.5 50.5t56.5 142.5q0 68 -50 107.5
t-132 39.5q-89 0 -150 -50t-61 -134q0 -75 50 -115.5t133 -40.5zM330 409q75 0 124.5 44.5t49.5 116.5q0 60 -41.5 96t-111.5 36q-77 0 -124.5 -39t-47.5 -110q0 -67 39.5 -105.5t111.5 -38.5z" />
    <glyph glyph-name="nine.tf" 
d="M252 -14q-91 0 -143 51t-58 126l47 8q6 -65 45.5 -103.5t111.5 -38.5q97 0 155.5 79.5t89.5 255.5l3 18h-3q-21 -47 -74 -77.5t-125 -30.5q-94 0 -151 53.5t-57 154.5q0 109 68.5 185.5t181.5 76.5q101 0 159 -58t58 -177q0 -58 -14 -145q-35 -203 -108 -290.5
t-186 -87.5zM311 315q90 0 146 58.5t56 151.5q0 88 -46.5 132t-126.5 44q-91 0 -144.5 -61t-53.5 -156q0 -83 44.5 -126t124.5 -43z" />
    <glyph glyph-name="uni2007.tf" 
 />
    <glyph glyph-name="zero.tosf" 
d="M254 -14q-104 0 -152 53.5t-48 158.5q0 77 14 153q12 63 25.5 112t37.5 100t55 84.5t77 55t103 21.5q201 0 201 -219q0 -74 -14 -150q-11 -62 -25.5 -111.5t-39 -99.5t-55 -83t-76.5 -54t-103 -21zM257 27q75 0 127 47q64 57 99.5 186.5t35.5 244.5q0 83 -38.5 129.5
t-119.5 46.5q-76 0 -128 -47q-63 -58 -97 -188t-34 -246q0 -173 155 -173z" />
    <glyph glyph-name="one.tosf" 
d="M86 0l7 38h168l89 504h-184l5 30h20q97 0 140 31t67 107h30l-119 -672h156l-7 -38h-372z" />
    <glyph glyph-name="two.tosf" 
d="M18 0l8 41q156 114 244 184q9 7 43.5 33.5t48.5 38.5t43 38t43 46t31 47.5t24 57t7 62.5q0 63 -41.5 98t-117.5 35q-160 0 -190 -172l-48 2q12 95 76.5 154t166.5 59q97 0 150.5 -47t53.5 -129q0 -43 -15 -84.5t-35 -72t-58 -68t-65.5 -60.5t-76.5 -61
q-110 -84 -219 -158h394l-8 -44h-459z" />
    <glyph glyph-name="three.tosf" 
d="M264 -14q-103 0 -162 52t-62 148l47 4q4 -79 51 -120t127 -41q89 0 140.5 47t51.5 135q0 68 -51 107t-129 39h-25l6 42h14q90 0 151.5 40t61.5 124q0 56 -37 87t-102 31q-142 0 -173 -141l-46 5q12 79 70.5 129t148.5 50q89 0 138.5 -42.5t49.5 -112.5q0 -72 -44 -122
t-119 -65v-3q61 -16 98 -60t37 -108q0 -103 -65 -164t-177 -61z" />
    <glyph glyph-name="four.tosf" 
d="M334 0l30 169h-312l6 38l256 503h50l-251 -498h258l52 292h48l-52 -292h118l-7 -43h-118l-30 -169h-48z" />
    <glyph glyph-name="five.tosf" 
d="M269 -14q-99 0 -158 51t-66 144l48 4q6 -69 52.5 -112.5t125.5 -43.5q90 0 144.5 58.5t54.5 152.5q0 81 -45 128t-123 47q-97 0 -158 -77l-49 7l105 365h358l-9 -45h-319l-82 -279q22 29 65.5 50t101.5 21q88 0 146.5 -56.5t58.5 -153.5q0 -113 -69.5 -187t-181.5 -74z
" />
    <glyph glyph-name="six.tosf" 
d="M280 -14q-101 0 -159 56.5t-58 172.5q0 71 14 141q37 196 109.5 282t184.5 86q91 0 141.5 -48t56.5 -121l-47 -7q-6 62 -44.5 98t-109.5 36q-97 0 -155 -78t-90 -249l-3 -16h3q22 48 75.5 81t123.5 33q92 0 150 -55t58 -151q0 -110 -68.5 -185.5t-181.5 -75.5zM283 28
q91 0 144.5 61t53.5 156q0 78 -45 122t-124 44q-90 0 -146 -59t-56 -150q0 -87 46.5 -130.5t126.5 -43.5z" />
    <glyph glyph-name="seven.tosf" 
d="M155 0h-57q158 357 429 666q-21 -1 -64 -1h-317l8 45h433l-7 -43q-125 -143 -238 -317t-187 -350z" />
    <glyph glyph-name="eight.tosf" 
d="M267 -14q-103 0 -167 49.5t-64 137.5q0 80 48.5 135t137.5 77v3q-94 46 -94 146q0 82 59 136t164 54q93 0 148 -45t55 -119q0 -67 -42 -115.5t-108 -65.5v-2q124 -47 124 -167q0 -101 -71.5 -162.5t-189.5 -61.5zM269 27q97 0 153.5 49t56.5 138q0 67 -50.5 105.5
t-131.5 38.5q-89 0 -150 -48.5t-61 -131.5q0 -73 50 -112t133 -39zM328 398q75 0 124.5 44t49.5 114q0 58 -41.5 92.5t-111.5 34.5q-76 0 -124 -38t-48 -106q0 -65 39.5 -103t111.5 -38z" />
    <glyph glyph-name="nine.tosf" 
d="M249 -14q-91 0 -143 49.5t-58 122.5l47 7q6 -61 46 -99t111 -38q97 0 156 77.5t89 248.5l3 17h-3q-21 -47 -74 -76.5t-125 -29.5q-93 0 -150.5 53t-57.5 151q0 106 68.5 180.5t181.5 74.5q100 0 158.5 -56.5t58.5 -171.5q0 -56 -14 -142q-33 -195 -106.5 -281.5
t-187.5 -86.5zM308 306q90 0 146 57.5t56 147.5q0 85 -46.5 128t-126.5 43q-91 0 -144.5 -59.5t-53.5 -151.5q0 -81 44.5 -123t124.5 -42z" />
    <glyph glyph-name="uni2007.tosf" 
 />
    <glyph glyph-name="parenleft.case" horiz-adv-x="268" 
d="M171 -78l-36 -5q-71 172 -71 325q0 156 55.5 293.5t163.5 277.5l40 -5q-210 -278 -210 -574q0 -157 58 -312z" />
    <glyph glyph-name="parenright.case" horiz-adv-x="268" 
d="M20 -83l-40 5q210 278 210 574q0 157 -58 312l36 5q71 -172 71 -327q0 -286 -219 -569z" />
    <glyph glyph-name="hyphen.case" horiz-adv-x="417" 
d="M90 344l7 43h260l-7 -43h-260z" />
    <glyph glyph-name="at.case" horiz-adv-x="843" 
d="M451 -17q-169 0 -273.5 102t-104.5 266q0 165 114.5 281t285.5 116q151 0 246 -84.5t95 -216.5q0 -66 -24.5 -132t-76.5 -114t-118 -48q-36 0 -49 17t-12 50h-1q-20 -27 -56 -47.5t-79 -20.5q-68 0 -107 41t-39 120q0 99 57 177t155 78q46 0 79 -24t44 -66h2l20 74h45
q-10 -42 -34.5 -135.5t-34.5 -140.5q-8 -40 -8 -49q0 -35 32 -35q66 0 115 80.5t49 171.5q0 119 -84.5 192.5t-215.5 73.5q-145 0 -251 -100t-106 -257q0 -144 94.5 -238t244.5 -94q160 0 265 112l27 -24q-52 -60 -129 -93t-167 -33zM406 192q71 0 115.5 66.5t44.5 145.5
q0 123 -104 123q-76 0 -118.5 -65.5t-42.5 -152.5q0 -52 27.5 -84.5t77.5 -32.5z" />
    <glyph glyph-name="bracketleft.case" horiz-adv-x="292" 
d="M42 -82l157 894h162l-7 -39h-117q-2 -17 -14 -85l-113 -646l-16 -85h117l-7 -39h-162z" />
    <glyph glyph-name="bracketright.case" horiz-adv-x="292" 
d="M-34 -82l7 39h116q2 17 14 85l113 646l16 85h-117l7 39h162l-157 -894h-161z" />
    <glyph glyph-name="grave.case" horiz-adv-x="223" 
d="M234 803l-125 129h67l100 -129h-42z" />
    <glyph glyph-name="braceleft.case" horiz-adv-x="284" 
d="M192 -83h-45q-47 0 -65.5 18t-18.5 53q0 26 6 57l24 137q9 56 9 83q0 75 -49 79l7 45q42 4 63 41t35 117l24 137q6 35 11 52t17 38t34 29.5t56 8.5h49l-6 -36h-39q-22 0 -36 -6.5t-22 -22.5t-11 -28.5t-7 -37.5l-27 -155q-15 -80 -37.5 -111t-66.5 -50q27 -14 40.5 -34
t13.5 -61q0 -32 -7 -67l-26 -149q-7 -35 -7 -54q0 -47 52 -47h35z" />
    <glyph glyph-name="bar.case" horiz-adv-x="249" 
d="M42 -80l157 887h42l-157 -887h-42z" />
    <glyph glyph-name="braceright.case" horiz-adv-x="284" 
d="M-30 -83l6 36h39q22 0 36 6.5t22 22.5t11 28.5t7 37.5l27 155q13 79 37 111.5t67 50.5q-27 14 -40.5 33.5t-13.5 60.5q0 32 7 67l26 149q7 47 7 54q0 47 -52 47h-35l6 36h45q47 0 65.5 -18t18.5 -53q0 -25 -6 -57l-24 -137q-9 -56 -9 -83q0 -73 49 -77l-7 -45
q-42 -4 -63.5 -42t-34.5 -118l-24 -137q-6 -35 -11 -52t-17 -38t-34 -29.5t-56 -8.5h-49z" />
    <glyph glyph-name="exclamdown.case" horiz-adv-x="260" 
d="M57 0l51 286l49 253h42l-39 -253l-51 -286h-52zM164 611l21 119h54l-21 -119h-54z" />
    <glyph glyph-name="brokenbar.case" horiz-adv-x="249" 
d="M138 462l61 346h42l-61 -346h-42zM43 -79l60 345h42l-60 -345h-42z" />
    <glyph glyph-name="dieresis.case" horiz-adv-x="191" 
d="M238 813l19 111h44l-19 -111h-44zM67 813l19 111h44l-19 -111h-44z" />
    <glyph glyph-name="guillemotleft.case" horiz-adv-x="418" 
d="M301 169l-76 196l142 197h47l-137 -197l68 -196h-44zM132 169l-76 196l142 197h47l-137 -197l68 -196h-44z" />
    <glyph glyph-name="uni00AD.case" horiz-adv-x="417" 
d="M90 344l7 43h260l-7 -43h-260z" />
    <glyph glyph-name="macron.case" horiz-adv-x="233" 
d="M2 856l7 39h254l-7 -39h-254z" />
    <glyph glyph-name="acute.case" horiz-adv-x="271" 
d="M75 803l123 129h72l-146 -129h-49z" />
    <glyph glyph-name="periodcentered.case" horiz-adv-x="210" 
d="M83 306l21 119h56l-21 -119h-56z" />
    <glyph glyph-name="guillemotright.case" horiz-adv-x="416" 
d="M206 169l136 196l-67 197h44l75 -197l-140 -196h-48zM37 169l136 196l-67 197h44l75 -197l-140 -196h-48z" />
    <glyph glyph-name="questiondown.case" horiz-adv-x="493" 
d="M213 -13q-91 0 -142.5 42.5t-51.5 112.5q0 63 31.5 107.5t94.5 97.5l18 15q59 48 81 80t33 97h49q-12 -71 -35.5 -109.5t-78.5 -82.5l-22 -18q-32 -26 -45 -38t-35.5 -37.5t-31.5 -51t-9 -55.5q0 -54 38 -85t109 -31q80 0 127 46.5t56 128.5l48 -4q-10 -96 -72.5 -155.5
t-161.5 -59.5zM288 611l21 119h54l-21 -119h-54z" />
    <glyph glyph-name="circumflex.case" horiz-adv-x="266" 
d="M75 803l125 129h55l79 -129h-40l-70 94l-102 -94h-47z" />
    <glyph glyph-name="caron.case" horiz-adv-x="266" 
d="M164 803l-79 129h40l70 -94l102 94h47l-125 -129h-55z" />
    <glyph glyph-name="breve.case" horiz-adv-x="255" 
d="M151 812q-54 0 -84.5 27t-31.5 78l33 9q5 -75 86 -75t111 75l32 -9q-39 -105 -146 -105z" />
    <glyph glyph-name="dotaccent.case" horiz-adv-x="181" 
d="M98 812l19 111h44l-19 -111h-44z" />
    <glyph glyph-name="ring.case" horiz-adv-x="221" 
d="M151 779q-38 0 -63.5 26.5t-25.5 64.5q0 37 26 63t64 26t63 -26.5t25 -63.5t-25.5 -63.5t-63.5 -26.5zM151 809q26 0 42.5 17.5t16.5 43.5q0 25 -16.5 42.5t-42.5 17.5t-42.5 -17.5t-16.5 -43.5t16.5 -43t42.5 -17z" />
    <glyph glyph-name="tilde.case" horiz-adv-x="260" 
d="M58 825h-32q12 90 79 90q23 0 63 -18l26 -12q36 -17 52 -17q32 0 46 50h32q-12 -90 -79 -90q-23 0 -63 18l-25 11q-40 17 -53 17q-32 0 -46 -49z" />
    <glyph glyph-name="hungarumlaut.case" horiz-adv-x="312" 
d="M217 803l125 129h72l-148 -129h-49zM66 803l123 129h72l-146 -129h-49z" />
    <glyph glyph-name="endash.case" horiz-adv-x="616" 
d="M90 344l7 43h459l-7 -43h-459z" />
    <glyph glyph-name="emdash.case" horiz-adv-x="960" 
d="M90 344l7 43h803l-7 -43h-803z" />
    <glyph glyph-name="uni2015.case" horiz-adv-x="960" 
d="M90 344l7 43h803l-7 -43h-803z" />
    <glyph glyph-name="guilsinglleft.case" horiz-adv-x="249" 
d="M132 169l-76 196l142 197h47l-137 -197l68 -196h-44z" />
    <glyph glyph-name="guilsinglright.case" horiz-adv-x="247" 
d="M37 169l136 196l-67 197h44l75 -197l-140 -196h-48z" />
    <glyph glyph-name="zero.zero" horiz-adv-x="610" 
d="M266 -14q-104 0 -152 54.5t-48 163.5q0 77 14 156q12 65 25.5 115.5t37.5 103t55 87t77 56.5t103 22q201 0 201 -227q0 -74 -14 -153q-11 -64 -25.5 -114.5t-39 -101.5t-55 -85t-76.5 -55.5t-103 -21.5zM114 206q0 -83 33 -127l318 597q-38 24 -92 24q-76 0 -128 -49
q-64 -59 -97.5 -192.5t-33.5 -252.5zM269 29q73 0 127 49q64 59 99.5 190t35.5 249q0 83 -34 129l-318 -596q35 -21 90 -21z" />
    <glyph glyph-name="zero.osf.zero" horiz-adv-x="606" 
d="M262 -14q-104 0 -152 53.5t-48 158.5q0 77 14 153q12 63 25.5 112t37.5 100t55 84.5t77 55t103 21.5q201 0 201 -219q0 -74 -14 -150q-11 -62 -25.5 -111.5t-39 -99.5t-55 -83t-76.5 -54t-103 -21zM110 200q0 -84 35 -127l312 587q-35 21 -88 21q-76 0 -128 -47
q-63 -58 -97 -188t-34 -246zM265 27q75 0 127 47q64 57 99.5 186.5t35.5 244.5q0 85 -37 127l-313 -586q36 -19 88 -19z" />
    <glyph glyph-name="zero.tf.zero" 
d="M256 -14q-104 0 -152 54.5t-48 163.5q0 77 14 156q12 65 25.5 115.5t37.5 103t55 87t77 56.5t103 22q201 0 201 -227q0 -74 -14 -153q-11 -64 -25.5 -114.5t-39 -101.5t-55 -85t-76.5 -55.5t-103 -21.5zM104 206q0 -83 33 -127l318 597q-38 24 -92 24q-76 0 -128 -49
q-64 -59 -97.5 -192.5t-33.5 -252.5zM259 29q73 0 127 49q64 59 99.5 190t35.5 249q0 83 -34 129l-318 -596q35 -21 90 -21z" />
    <glyph glyph-name="zero.tosf.zero" 
d="M254 -14q-104 0 -152 53.5t-48 158.5q0 77 14 153q12 63 25.5 112t37.5 100t55 84.5t77 55t103 21.5q201 0 201 -219q0 -74 -14 -150q-11 -62 -25.5 -111.5t-39 -99.5t-55 -83t-76.5 -54t-103 -21zM102 200q0 -84 35 -127l312 587q-34 21 -88 21q-76 0 -128 -47
q-63 -58 -97 -188t-34 -246zM257 27q75 0 127 47q64 57 99.5 186.5t35.5 244.5q0 85 -37 127l-313 -586q36 -19 88 -19z" />
    <glyph glyph-name="plus.ss06" 
d="M278 31v231h-227v40h227v230h40v-230h227v-40h-227v-231h-40z" />
    <glyph glyph-name="equal.ss06" 
d="M54 357v40h485v-40h-485zM54 165v40h485v-40h-485z" />
    <glyph glyph-name="logicalnot.ss06" 
d="M492 113v248h-445v40h485v-288h-40z" />
    <glyph glyph-name="plusminus.ss06" 
d="M266 158v172h-202v40h202v167h40v-167h201v-40h-201v-172h-40zM64 38v40h443v-40h-443z" />
    <glyph glyph-name="multiply.ss06" 
d="M107 47l-27 28l187 187l-187 187l27 28l187 -188l187 187l28 -27l-187 -187l187 -187l-28 -27l-187 186z" />
    <glyph glyph-name="divide.ss06" 
d="M55 261v40h485v-40h-485zM297 51q-18 0 -30.5 12.5t-12.5 31.5q0 17 12.5 29.5t30.5 12.5q17 0 30 -12.5t13 -29.5q0 -19 -13 -31.5t-30 -12.5zM297 427q-18 0 -30.5 12.5t-12.5 31.5q0 17 12.5 29.5t30.5 12.5q17 0 30 -12.5t13 -29.5q0 -19 -13 -31.5t-30 -12.5z" />
    <glyph glyph-name="minus.ss06" 
d="M55 261v40h485v-40h-485z" />
    <glyph glyph-name="infinity.ss06" horiz-adv-x="863" 
d="M216 121q-75 0 -114 45t-39 110q0 72 42 116t111 44q29 0 54.5 -8t57 -30.5t48 -36.5t58.5 -52q42 38 58.5 52t48 36.5t57 30.5t54.5 8q69 0 111 -44t42 -116q0 -65 -39 -110t-114 -45q-100 0 -218 131q-118 -131 -218 -131zM220 161q41 0 82.5 28.5t104.5 87.5
q-10 9 -37 34t-39.5 35t-34 25t-40 20.5t-38.5 5.5q-53 0 -82 -34t-29 -83q0 -53 29 -86t84 -33zM648 161q55 0 84 33t29 86q0 49 -29 83t-82 34q-21 0 -40 -6t-39.5 -20.5t-33.5 -25t-38.5 -34.5t-37.5 -34q60 -58 103 -87t84 -29z" />
    <glyph glyph-name="approxequal.ss06" 
d="M409 309q-36 0 -108 33l-58 26q-40 17 -62 17q-29 0 -50 -19t-43 -52l-28 25q49 88 124 88q13 0 28 -3.5t24 -7t28 -12t27 -11.5l61 -27q36 -15 60 -15q30 0 51 18.5t42 51.5l29 -23q-47 -89 -125 -89zM409 132q-36 0 -108 33l-58 26q-40 17 -62 17q-29 0 -50 -19
t-43 -52l-28 25q49 88 124 88q13 0 28 -3.5t24 -7t28 -12t27 -11.5l61 -27q36 -15 60 -15q30 0 51 18.5t42 51.5l29 -23q-47 -89 -125 -89z" />
    <glyph glyph-name="notequal.ss06" 
d="M107 6l93 159h-146v40h170l89 152h-259v40h283l92 156h48l-92 -156h154v-40h-178l-89 -152h267v-40h-291l-93 -159h-48z" />
    <glyph glyph-name="x.ss20" 
d="M116 121l-27 28l187 187l-187 187l27 28l187 -188l187 187l28 -27l-187 -187l187 -187l-28 -27l-187 186z" />
    <glyph glyph-name="hyphen_greater" horiz-adv-x="830" 
d="M434 2l158 164q130 132 136 138v1q-83 -1 -188 -1h-490v45h488q106 0 189 -1v1q-6 6 -136 138l-157 163h67l153 -162q84 -90 156 -162q-72 -72 -156 -162l-153 -162h-67z" />
    <glyph glyph-name="less_hyphen" horiz-adv-x="830" 
d="M350 2l-153 162q-84 90 -156 162q72 72 156 162l153 162h67l-157 -163q-130 -132 -136 -138v-1q45 0 105.5 0.5t83.5 0.5h488v-45h-490q-105 0 -188 1v-1q6 -6 136 -138l158 -164h-67z" />
    </font>
</defs>
</svg>
