<?xml version="1.0" standalone="no"?>
<!DOCTYPE svg PUBLIC "-//W3C//DTD SVG 1.1//EN" "http://www.w3.org/Graphics/SVG/1.1/DTD/svg11.dtd" >
<svg xmlns="http://www.w3.org/2000/svg" xmlns:xlink="http://www.w3.org/1999/xlink" version="1.1">
<metadata>
Created by FontForge 20170731 at Tue Jun 11 00:34:36 2019
 By Aleksey,,,
Copyright (c) 2019, Copyright by Optimo SARL. All rights reserved. |DCNT
</metadata>
<defs>
<font id="RandMono-Regular" horiz-adv-x="612" >
  <font-face 
    font-family="Rand Mono"
    font-weight="400"
    font-stretch="normal"
    units-per-em="1000"
    panose-1="2 11 5 9 2 1 1 1 1 2"
    ascent="730"
    descent="-270"
    x-height="526"
    cap-height="685"
    bbox="-354 -213 624 1109"
    underline-thickness="50"
    underline-position="-200"
    unicode-range="U+000D-FEFF"
  />
<missing-glyph 
d="M93 0v685h426v-685h-426zM156 63h300v559h-300v-559z" />
    <glyph glyph-name="f_f" unicode="ff" 
d="M106 0v447h-104v65h104v79q0 79 30 109t108 30h74v-66h-69q-43 0 -54.5 -15t-11.5 -58v-79h228v79q0 80 31 109.5t108 29.5h74v-66h-69q-39 0 -53 -14t-14 -59v-79h131v-65h-130v-447h-78v447h-227v-447h-78z" />
    <glyph glyph-name="f_f_i" unicode="ffi" 
d="M49 0v447h-83v65h83v79q0 80 31 109.5t108 29.5h29v-66h-24q-39 0 -53 -14t-14 -59v-79h141v79q0 79 30 109t108 30h29v-66h-24q-43 0 -54.5 -15t-11.5 -58v-79h222v-512h-79v447h-142v-447h-78v447h-140v-447h-78zM478 622v108h88v-108h-88z" />
    <glyph glyph-name="f_f_l" unicode="ffl" 
d="M49 0v447h-83v65h83v79q0 80 31 109.5t108 29.5h29v-66h-24q-39 0 -53 -14t-14 -59v-79h141v79q0 79 30 109t108 30h29v-66h-24q-43 0 -54.5 -15t-11.5 -58v-79h85v-65h-84v-447h-78v447h-140v-447h-78zM487 0v730h79v-730h-79z" />
    <glyph glyph-name="f_i" unicode="fi" 
d="M117 0v447h-104v65h104v79q0 79 30 109t108 30h74v-66h-69q-43 0 -54.5 -15t-11.5 -58v-79h317v-512h-79v447h-237v-447h-78zM423 622v108h88v-108h-88z" />
    <glyph glyph-name="f_l" unicode="fl" 
d="M119 0v447h-103v65h103v79q0 80 31 109.5t108 29.5h74v-66h-69q-39 0 -53 -14t-14 -59v-79h131v-65h-130v-447h-78zM432 0v730h79v-730h-79z" />
    <glyph glyph-name=".notdef" 
d="M93 0v685h426v-685h-426zM156 63h300v559h-300v-559z" />
    <glyph glyph-name=".null" horiz-adv-x="0" 
 />
    <glyph glyph-name="nonmarkingreturn" horiz-adv-x="333" 
 />
    <glyph glyph-name="NULL" horiz-adv-x="0" 
 />
    <glyph glyph-name="NULL" horiz-adv-x="0" 
 />
    <glyph glyph-name="CR" unicode="&#xd;" 
 />
    <glyph glyph-name="space" unicode=" " 
 />
    <glyph glyph-name="exclam" unicode="!" 
d="M273 186l-9 221v278h80v-278l-10 -221h-61zM263 0v126h85v-126h-85z" />
    <glyph glyph-name="quotedbl" unicode="&#x22;" 
d="M160 448l-9 282h94l-10 -282h-75zM376 448l-9 282h94l-10 -282h-75z" />
    <glyph glyph-name="numbersign" unicode="#" 
d="M96 0l39 216h-108l10 53h108l29 155h-111l10 52h111l37 208h57l-38 -208h152l38 208h57l-38 -208h105l-10 -52h-105l-28 -155h107l-9 -53h-108l-39 -216h-57l40 216h-153l-39 -216h-57zM202 269h153l28 155h-153z" />
    <glyph glyph-name="dollar" unicode="$" 
d="M279 -102v103q-158 12 -214 147l67 31q49 -100 147 -111v251l-10 3q-93 25 -136 67t-43 115q0 75 51 123t138 56v108h67v-109q138 -13 185 -128l-63 -33q-37 79 -122 95v-238l26 -7q88 -25 128.5 -64.5t40.5 -112.5q0 -79 -54.5 -131t-140.5 -60v-105h-67zM346 301v-232
q54 8 84 39.5t30 80.5q0 43 -28.5 69t-85.5 43zM279 398v219q-52 -8 -80.5 -36.5t-28.5 -73.5q0 -43 25 -67t84 -42z" />
    <glyph glyph-name="percent" unicode="%" 
d="M130 0l293 685h57l-292 -685h-58zM137 302q-127 0 -127 194q0 196 127 196t127 -196q0 -194 -127 -194zM137 355q67 0 67 140q0 71 -15 107t-52 36t-52 -36t-15 -107q0 -140 67 -140zM474 -8q-127 0 -127 194q0 196 127 196t127 -196q0 -194 -127 -194zM474 45
q67 0 67 140q0 71 -15 107t-52 36t-52 -36t-15 -107q0 -140 67 -140z" />
    <glyph glyph-name="ampersand" unicode="&#x26;" 
d="M244 -13q-93 0 -150 54t-57 142q0 66 39.5 113t115.5 91q-78 85 -78 159q0 67 46 110t117 43q72 0 115.5 -40.5t43.5 -104.5q0 -63 -35 -103.5t-104 -79.5v-1l147 -170q42 75 54 166l74 -3q-21 -120 -80 -216q38 -46 131 -147h-94q-65 70 -81 90q-86 -103 -204 -103z
M249 51q95 0 155 88v2q-120 134 -171 195q-120 -63 -120 -151q0 -61 39 -97.5t97 -36.5zM255 417l12 7q29 17 47 31t35 39.5t17 54.5q0 41 -25 65t-65 24q-41 0 -65 -24t-24 -65q0 -25 11.5 -51t23 -41t33.5 -40z" />
    <glyph glyph-name="quotesingle" unicode="'" 
d="M268 448l-9 282h94l-10 -282h-75z" />
    <glyph glyph-name="parenleft" unicode="(" 
d="M427 -142l-68 -4q-158 209 -158 449q0 237 155 445l69 -5q-143 -194 -143 -440q0 -242 145 -445z" />
    <glyph glyph-name="parenright" unicode=")" 
d="M252 -146l-68 4q146 205 146 445q0 246 -143 440l68 5q156 -210 156 -445q0 -241 -159 -449z" />
    <glyph glyph-name="asterisk" unicode="*" 
d="M213 282l-64 47q44 52 114 132q-25 6 -82.5 19.5t-88.5 21.5l25 76l160 -68l1 1q0 5 -3.5 53.5t-10.5 120.5h80l-15 -174l1 -1q33 12 160 68l25 -77q-129 -28 -170 -40q60 -73 114 -132l-63 -47l-92 149h-1q-25 -44 -45 -76.5t-30 -48t-15 -24.5z" />
    <glyph glyph-name="plus" unicode="+" 
d="M269 87v216h-210v70h210v215h71v-215h211v-70h-211v-216h-71z" />
    <glyph glyph-name="comma" unicode="," 
d="M244 -163v59q32 8 45.5 31t13.5 66v7h-58v155h123v-147q0 -78 -29 -120.5t-95 -50.5z" />
    <glyph glyph-name="hyphen" unicode="-" 
d="M162 253v75h288v-75h-288z" />
    <glyph glyph-name="period" unicode="." 
d="M245 0v155h122v-155h-122z" />
    <glyph glyph-name="slash" unicode="/" 
d="M135 0l268 730h74l-267 -730h-75z" />
    <glyph glyph-name="zero" unicode="0" 
d="M306 -13q-65 0 -112.5 27.5t-74.5 77.5t-39.5 112t-12.5 139q0 76 12.5 137.5t39 112t74 78.5t113.5 28q65 0 113 -28t74.5 -78.5t39 -112t12.5 -137.5q0 -77 -12.5 -139t-39.5 -112t-74.5 -77.5t-112.5 -27.5zM306 54q45 0 76 22.5t47.5 64t23 90t6.5 111.5
q0 50 -3.5 90t-14 78.5t-27 64.5t-44 41.5t-64.5 15.5q-46 0 -77.5 -22.5t-47.5 -65t-22.5 -90.5t-6.5 -112q0 -63 7 -111.5t23 -90t47.5 -64t76.5 -22.5zM257 286v115h97v-115h-97z" />
    <glyph glyph-name="one" unicode="1" 
d="M113 0v65h167v436h-184v58q109 0 149 27.5t50 98.5h65v-620h153v-65h-400z" />
    <glyph glyph-name="two" unicode="2" 
d="M76 0v64l206 191q88 82 121 131t33 113q0 59 -35 94t-95 35q-65 0 -101.5 -40.5t-40.5 -113.5l-80 3q4 102 64 162t158 60q99 0 156.5 -54t57.5 -144q0 -126 -146 -257l-52 -46l-142 -127v-2q19 0 75 0.5t78 0.5h190v-70h-447z" />
    <glyph glyph-name="three" unicode="3" 
d="M307 -13q-102 0 -162.5 55t-69.5 151l80 6q20 -144 152 -144q68 0 107.5 38.5t39.5 100.5q0 66 -45.5 99.5t-123.5 33.5h-26v67h19q68 0 110.5 30t42.5 91q0 52 -33.5 83t-90.5 31q-63 0 -96 -34.5t-39 -93.5l-77 7q6 84 62.5 137.5t151.5 53.5q92 0 147.5 -48t55.5 -127
q0 -119 -116 -156v-2q66 -16 103.5 -63t37.5 -113q0 -90 -62.5 -146.5t-167.5 -56.5z" />
    <glyph glyph-name="four" unicode="4" 
d="M362 0v151h-301v61q26 80 78.5 237t78.5 236h78l-153 -464h219v272h73v-272h116v-70h-116v-151h-73z" />
    <glyph glyph-name="five" unicode="5" 
d="M304 -13q-90 0 -151.5 50.5t-75.5 132.5l83 6q10 -53 48.5 -86.5t96.5 -33.5q66 0 107.5 45t41.5 122q0 72 -40 116.5t-105 44.5q-90 0 -132 -74l-78 7l30 368h372v-71h-306l-9 -106l-12 -115h2q54 59 146 59q98 0 156.5 -63t58.5 -167q0 -107 -65 -171t-168 -64z" />
    <glyph glyph-name="six" unicode="6" 
d="M312 -13q-123 0 -182 88.5t-59 245.5q0 177 63 277.5t189 100.5q86 0 138 -46t67 -125l-83 -7q-21 109 -123 109q-85 0 -128.5 -79t-43.5 -211h3q23 45 67 74t108 29q96 0 154.5 -62.5t58.5 -162.5q0 -99 -61.5 -165t-167.5 -66zM312 54q67 0 106 46t39 117t-39 115
t-107 44q-65 0 -106 -44.5t-41 -113.5q0 -72 40 -118t108 -46z" />
    <glyph glyph-name="seven" unicode="7" 
d="M261 0h-89q43 156 114 317.5t159 296.5q-27 -1 -76 -1h-275v72h435v-66q-83 -129 -155 -296.5t-113 -322.5z" />
    <glyph glyph-name="eight" unicode="8" 
d="M305 -13q-107 0 -170.5 54t-63.5 145q0 66 36.5 112.5t102.5 64.5v2q-55 17 -85 57.5t-30 96.5q0 79 57.5 129.5t152.5 50.5q94 0 151.5 -50.5t57.5 -129.5q0 -57 -29.5 -97t-85.5 -57v-2q66 -18 103 -64.5t37 -112.5q0 -91 -64 -145t-170 -54zM305 53q69 0 109.5 37.5
t40.5 100.5q0 62 -41 99.5t-109 37.5q-69 0 -110 -37.5t-41 -99.5q0 -63 41 -100.5t110 -37.5zM305 394q59 0 94 34t35 86t-35 84.5t-94 32.5t-94.5 -32.5t-35.5 -84.5t35.5 -86t94.5 -34z" />
    <glyph glyph-name="nine" unicode="9" 
d="M288 -13q-87 0 -139.5 46t-67.5 127l82 6q25 -112 125 -112q81 0 125 75t46 206v12h-2q-53 -102 -175 -102q-96 0 -154 62t-58 161q0 97 62 164t165 67q123 0 181.5 -88.5t58.5 -247.5q0 -179 -61.5 -277.5t-187.5 -98.5zM297 312q66 0 107 43t41 112q0 72 -40 118
t-108 46q-67 0 -106 -45.5t-39 -116.5q0 -70 38.5 -113.5t106.5 -43.5z" />
    <glyph glyph-name="colon" unicode=":" 
d="M245 371v155h123v-155h-123zM245 0v155h123v-155h-123z" />
    <glyph glyph-name="semicolon" unicode=";" 
d="M244 -163v59q32 8 45.5 31t13.5 66v7h-58v155h123v-147q0 -78 -29 -120.5t-95 -50.5zM245 371v155h123v-155h-123z" />
    <glyph glyph-name="less" unicode="&#x3c;" 
d="M502 80l-394 205v73l394 207v-84l-317 -157l317 -159v-85z" />
    <glyph glyph-name="equal" unicode="=" 
d="M65 396v69h482v-69h-482zM65 206v69h482v-69h-482z" />
    <glyph glyph-name="greater" unicode="&#x3e;" 
d="M108 80v85l317 159l-317 157v84l394 -207v-73z" />
    <glyph glyph-name="question" unicode="?" 
d="M332 182h-75q0 72 14.5 110.5t58.5 79.5l41 39q27 25 41 48.5t14 59.5q0 50 -30 80.5t-89 30.5q-128 0 -133 -152l-77 4q2 102 58 159.5t154 57.5q90 0 143.5 -49.5t53.5 -130.5q0 -52 -22 -88.5t-68 -78.5l-22 -21q-37 -33 -49.5 -63.5t-12.5 -85.5zM252 0v126h85v-126
h-85z" />
    <glyph glyph-name="at" unicode="@" 
d="M335 -25q-150 0 -233 92.5t-83 258.5q0 169 80.5 261.5t217.5 92.5q133 0 204.5 -81t71.5 -232q0 -124 -33.5 -173t-80.5 -49q-64 0 -68 62h-3q-36 -62 -111 -62q-64 0 -103.5 47.5t-39.5 127.5q0 78 41 127.5t104 49.5q76 0 107 -61h2q-1 11 -1 31v23h57
q0 -7 -0.5 -26.5t-0.5 -34.5v-212q0 -27 23 -27q54 0 54 170q0 269 -221 269q-113 0 -177.5 -79t-64.5 -225q0 -137 66 -219t190 -82q85 0 165 36l16 -44q-84 -41 -179 -41zM310 194q45 0 72.5 35.5t27.5 92.5q0 55 -27 89.5t-72 34.5t-71.5 -35t-26.5 -90q0 -57 26.5 -92
t70.5 -35z" />
    <glyph glyph-name="A" unicode="A" 
d="M29 0l228 685h99l226 -685h-84l-65 198h-256l-67 -198h-81zM196 267h216q-21 65 -58.5 186t-46.5 150h-5q-68 -220 -106 -336z" />
    <glyph glyph-name="B" unicode="B" 
d="M88 0v685h227q92 0 146.5 -43t54.5 -129q0 -58 -28.5 -96t-75.5 -54v-2q57 -13 93.5 -57t36.5 -111q0 -90 -55.5 -141.5t-153.5 -51.5h-245zM165 66h153q72 0 106.5 31t34.5 98q0 130 -144 130h-150v-259zM165 390h137q70 0 101.5 29.5t31.5 88.5q0 111 -135 111h-135
v-229z" />
    <glyph glyph-name="C" unicode="C" 
d="M322 -13q-267 0 -267 354q0 176 67.5 267t199.5 91q96 0 155.5 -51t80.5 -143l-76 -18q-19 71 -57.5 107.5t-104.5 36.5q-183 0 -183 -290q0 -143 44.5 -214.5t141.5 -71.5q123 0 161 142l74 -18q-46 -192 -236 -192z" />
    <glyph glyph-name="D" unicode="D" 
d="M78 0v685h192q159 0 228 -86t69 -252q0 -159 -70.5 -253t-225.5 -94h-193zM158 68h105q107 0 163.5 64t56.5 212q0 145 -55.5 209t-180.5 64h-89v-549z" />
    <glyph glyph-name="E" unicode="E" 
d="M102 0v685h410v-69h-332v-227h311v-69h-311v-251h339v-69h-417z" />
    <glyph glyph-name="F" unicode="F" 
d="M110 0v685h407v-69h-329v-231h304v-69h-304v-316h-78z" />
    <glyph glyph-name="G" unicode="G" 
d="M309 -13q-128 0 -194.5 89.5t-66.5 262.5q0 177 68 268.5t200 91.5q97 0 157.5 -51.5t79.5 -141.5l-75 -18q-41 143 -162 143q-186 0 -186 -290q0 -144 45.5 -215.5t144.5 -71.5q165 0 165 236h-200v69h271v-359h-72v36q0 9 0.5 26t0.5 22h-3q-49 -97 -173 -97z" />
    <glyph glyph-name="H" unicode="H" 
d="M78 0v685h80v-297h295v297h81v-685h-81v319h-295v-319h-80z" />
    <glyph glyph-name="I" unicode="I" 
d="M90 0v63h175v558h-175v64h431v-64h-176v-558h176v-63h-431z" />
    <glyph glyph-name="J" unicode="J" 
d="M279 -13q-83 0 -132 45.5t-59 127.5l78 12q6 -54 33 -86t78 -32q59 0 84.5 39t25.5 114v478h80v-487q0 -94 -46 -152.5t-142 -58.5z" />
    <glyph glyph-name="K" unicode="K" 
d="M104 0v685h80v-129q0 -42 -0.5 -116.5t-0.5 -96.5h2q16 18 111 131l188 211h99l-278 -308l289 -377h-99l-246 319l-65 -73v-246h-80z" />
    <glyph glyph-name="L" unicode="L" 
d="M109 0v685h79v-616h324v-69h-403z" />
    <glyph glyph-name="M" unicode="M" 
d="M68 0v685h122l62 -281q43 -193 47 -216h5q7 35 52 215l74 282h114v-685h-74v387q0 50 2 128t2 105h-6q-39 -183 -61 -265l-71 -258h-75l-62 253q-17 66 -54 270h-6q2 -37 2 -197v-423h-73z" />
    <glyph glyph-name="N" unicode="N" 
d="M74 0v685h107l185 -385q71 -151 94 -202h4q-2 130 -2 208v379h76v-685h-106l-154 320q-31 64 -128 273h-4q0 -31 2 -120.5t2 -124.5v-348h-76z" />
    <glyph glyph-name="O" unicode="O" 
d="M305 -13q-130 0 -196 90.5t-66 263.5t66.5 265.5t195.5 92.5q130 0 196.5 -91.5t66.5 -266.5q0 -172 -66.5 -263t-196.5 -91zM305 55q94 0 137.5 71.5t43.5 215.5q0 289 -181 289q-93 0 -136.5 -72.5t-43.5 -216.5q0 -287 180 -287z" />
    <glyph glyph-name="P" unicode="P" 
d="M97 -2v687h237q102 0 155 -52t53 -149q0 -98 -56.5 -150t-157.5 -52h-152v-284h-79zM176 350h137q148 0 148 133q0 73 -38 103.5t-115 30.5h-132v-267z" />
    <glyph glyph-name="Q" unicode="Q" 
d="M490 -166h-88q-83 0 -110 29.5t-27 116.5v13q-222 26 -222 348q0 173 66.5 265.5t195.5 92.5q130 0 196.5 -91.5t66.5 -266.5q0 -325 -227 -349v-21q0 -47 12 -59t52 -12h85v-66zM305 55q94 0 137.5 71.5t43.5 215.5q0 289 -181 289q-93 0 -136.5 -72.5t-43.5 -216.5
q0 -287 180 -287z" />
    <glyph glyph-name="R" unicode="R" 
d="M78 0v685h231q222 0 222 -181q0 -137 -125 -172v-2q46 -15 70.5 -51t31.5 -103l5 -53q12 -99 29 -118v-5h-86q-4 6 -6.5 14.5t-3.5 16t-3 24.5t-4 30l-8 66q-10 81 -41.5 114t-110.5 33h-123v-298h-78zM156 365h137q159 0 159 133q0 61 -36 90t-116 29h-144v-252z" />
    <glyph glyph-name="S" unicode="S" 
d="M297 -13q-189 0 -251 153l69 32q58 -117 183 -117q73 0 115.5 34t42.5 93q0 49 -32 75t-100 46l-69 19q-97 27 -140 69.5t-43 118.5q0 87 62.5 138t166.5 51q171 0 228 -136l-66 -34q-52 102 -163 102q-68 0 -107 -30.5t-39 -85.5q0 -49 31 -74.5t103 -46.5l76 -22
q90 -25 132.5 -66.5t42.5 -117.5q0 -92 -67.5 -146.5t-174.5 -54.5z" />
    <glyph glyph-name="T" unicode="T" 
d="M265 0v616h-215v69h511v-69h-215v-616h-81z" />
    <glyph glyph-name="U" unicode="U" 
d="M306 -13q-123 0 -180 64.5t-57 207.5v426h81v-423q0 -102 35 -154.5t121 -52.5q85 0 120.5 53.5t35.5 153.5v423h81v-427q0 -142 -57.5 -206.5t-179.5 -64.5z" />
    <glyph glyph-name="V" unicode="V" 
d="M257 0l-220 685h85l124 -399q18 -56 59 -202h4q23 87 60 203l123 398h83l-221 -685h-97z" />
    <glyph glyph-name="W" unicode="W" 
d="M109 0l-88 685h82l32 -295q22 -203 30 -302h5q6 63 40 261l48 270h100l44 -268q22 -139 37 -263h5q9 102 33 300l35 297h79l-93 -685h-106l-53 326q-14 82 -30 212h-5q-13 -105 -32 -212l-56 -326h-107z" />
    <glyph glyph-name="X" unicode="X" 
d="M36 0l221 351l-209 334h94l163 -271h3l164 271h90l-209 -333l221 -352h-97l-172 289h-3l-174 -289h-92z" />
    <glyph glyph-name="Y" unicode="Y" 
d="M263 0v267l-226 418h89l88 -172q58 -112 90 -169h3q12 25 44.5 85t45.5 85l89 171h86l-229 -418v-267h-80z" />
    <glyph glyph-name="Z" unicode="Z" 
d="M65 0v66l377 551q-20 0 -63.5 -0.5t-73.5 -0.5h-228v69h456v-66l-376 -551q44 1 128 1h256v-69h-476z" />
    <glyph glyph-name="bracketleft" unicode="[" 
d="M195 -142v892h256v-57h-181q1 -28 1 -84v-611q0 -56 -1 -84q36 1 106 1h75v-57h-256z" />
    <glyph glyph-name="backslash" unicode="\" 
d="M404 0l-268 730h74l268 -730h-74z" />
    <glyph glyph-name="bracketright" unicode="]" 
d="M161 -142v57h75q70 0 106 -1q-1 28 -1 84v611q0 56 1 84h-181v57h256v-892h-256z" />
    <glyph glyph-name="asciicircum" unicode="^" 
d="M69 302l202 383h68l203 -383h-78l-159 311l-159 -311h-77z" />
    <glyph glyph-name="underscore" unicode="_" 
d="M61 -139v63h490v-63h-490z" />
    <glyph glyph-name="grave" unicode="`" 
d="M329 601l-122 129h106l92 -129h-76z" />
    <glyph glyph-name="a" unicode="a" 
d="M251 -9q-86 0 -135.5 40t-49.5 111q0 75 53 107.5t173 55.5l89 17q26 6 34.5 13t8.5 29q0 48 -33.5 77t-90.5 29q-120 0 -137 -108l-79 7q8 72 68.5 118.5t147.5 46.5q98 0 151 -49.5t53 -147.5v-314q0 -18 1 -23h-74v38q0 6 0.5 19t0.5 20h-2q-57 -86 -179 -86zM267 50
q73 0 116 41.5t43 112.5v30q0 21 3 36q-11 -3 -49 -10l-93 -19q-78 -15 -107.5 -34t-29.5 -64t31 -69t86 -24z" />
    <glyph glyph-name="b" unicode="b" 
d="M324 -12q-124 0 -178 103h-3q3 -48 3 -59v-32h-77q1 7 1 38v692h79v-129q0 -27 -1 -89.5t-1 -79.5h3q23 43 67.5 72.5t106.5 29.5q102 0 166.5 -76t64.5 -198q0 -124 -65 -198t-166 -74zM312 55q74 0 117 55.5t43 148.5q0 92 -43.5 148.5t-117.5 56.5q-79 0 -122 -55.5
t-43 -147.5q0 -94 43.5 -150t122.5 -56z" />
    <glyph glyph-name="c" unicode="c" 
d="M317 -14q-112 0 -179 74.5t-67 200.5q0 124 68.5 199t180.5 75q86 0 144 -44.5t76 -119.5l-76 -19q-35 114 -145 114q-80 0 -122.5 -55t-42.5 -150q0 -98 42 -152t123 -54q111 0 147 114l74 -18q-21 -75 -80 -120t-143 -45z" />
    <glyph glyph-name="d" unicode="d" 
d="M288 -12q-102 0 -166.5 74t-64.5 198q0 122 64.5 198t166.5 76q62 0 106 -29.5t67 -72.5h3q0 11 -1 76t-1 121v101h79v-649q0 -62 1 -81h-76v32q0 27 2 59h-2q-54 -103 -178 -103zM300 55q79 0 122.5 56t43.5 150q0 91 -43.5 147t-122.5 56q-74 0 -117.5 -56.5
t-43.5 -147.5q0 -94 43 -149.5t118 -55.5z" />
    <glyph glyph-name="e" unicode="e" 
d="M315 -13q-117 0 -184.5 74t-67.5 198q0 120 67.5 198t181.5 78q82 0 137.5 -42.5t78.5 -106t23 -143.5h-409q2 -88 50 -138t124 -50q110 0 164 101l67 -27q-29 -64 -89.5 -103t-142.5 -39zM144 305h326q-6 73 -47.5 118.5t-111.5 45.5q-71 0 -115.5 -44.5t-51.5 -119.5z
" />
    <glyph glyph-name="f" unicode="f" 
d="M55 0v65h184v375h-194v66h194v85q0 79 30.5 109t109.5 30h162v-66h-156q-42 0 -54.5 -15.5t-12.5 -57.5v-85h222v-66h-222v-375h201v-65h-464z" />
    <glyph glyph-name="g" unicode="g" 
d="M299 -193q-89 0 -148.5 40t-81.5 107l74 26q39 -105 158 -105q84 0 122 48t39 145q0 10 2 31t2 23h-4q-21 -47 -68 -77.5t-109 -30.5q-101 0 -164 72.5t-63 185.5q0 116 65 189t166 73q121 0 173 -100h3q-2 15 -2 59v33h77q-1 -37 -1 -92v-375q0 -120 -63 -186t-177 -66z
M299 83q73 0 119.5 53.5t46.5 139.5q0 83 -45 136t-120 53q-73 0 -116.5 -53.5t-43.5 -137.5t43 -137.5t116 -53.5z" />
    <glyph glyph-name="h" unicode="h" 
d="M94 0v730h79v-155q0 -80 -2 -138h2q21 42 62.5 70t101.5 28q86 0 134.5 -53.5t48.5 -155.5v-326h-79v275q0 98 -29 144t-95 46q-71 0 -107.5 -49t-36.5 -138v-278h-79z" />
    <glyph glyph-name="i" unicode="i" 
d="M89 0v65h195v395h-195v66h274v-461h182v-65h-456zM272 621v109h96v-109h-96z" />
    <glyph glyph-name="j" unicode="j" 
d="M100 -188v66h186q44 0 55.5 14.5t11.5 66.5v501h-256v66h334v-569q0 -86 -31 -115.5t-118 -29.5h-182zM341 621v109h95v-109h-95z" />
    <glyph glyph-name="k" unicode="k" 
d="M122 0v730h79v-285q0 -28 -0.5 -85.5t-0.5 -90.5h2q12 13 41 43t51 54l157 160h102l-229 -229l246 -297h-103l-200 246l-66 -64v-182h-79z" />
    <glyph glyph-name="l" unicode="l" 
d="M78 0v65h194v600h-194v65h273v-665h183v-65h-456z" />
    <glyph glyph-name="m" unicode="m" 
d="M65 0v448q0 54 -1 78h70v-23q0 -24 -1 -35h3q29 67 100 67q73 0 94 -68h3q32 68 106 68q58 0 83.5 -40t25.5 -122v-373h-73v365q0 59 -14.5 82.5t-47.5 23.5q-31 0 -51.5 -26t-20.5 -68v-377h-71v365q0 59 -14.5 82.5t-47.5 23.5q-31 0 -51.5 -26.5t-20.5 -68.5v-376h-71
z" />
    <glyph glyph-name="n" unicode="n" 
d="M94 0v429q0 12 -0.5 47.5t-0.5 49.5h77v-38q0 -28 -1 -55h2q19 42 62 72t106 30q86 0 134 -53.5t48 -155.5v-326h-79v276q0 98 -29.5 144t-95.5 46q-70 0 -107 -49t-37 -138v-279h-79z" />
    <glyph glyph-name="o" unicode="o" 
d="M305 -14q-115 0 -182 75t-67 198q0 124 67 200t183 76q115 0 182 -76.5t67 -199.5t-68 -198t-182 -75zM305 54q80 0 123.5 54t43.5 151q0 99 -43 153.5t-123 54.5t-123.5 -54.5t-43.5 -153.5t42.5 -152t123.5 -53z" />
    <glyph glyph-name="p" unicode="p" 
d="M70 -188v644q0 12 -0.5 36t-0.5 34h79v-35q0 -35 -1 -62h3q20 43 66.5 74t108.5 31q102 0 165.5 -73.5t63.5 -198.5q0 -126 -63.5 -199.5t-164.5 -73.5q-126 0 -177 101h-3q0 -13 1.5 -71t1.5 -72v-135h-79zM310 55q75 0 118.5 55.5t43.5 148.5t-43.5 149t-118.5 56
q-79 0 -122 -55.5t-43 -147.5q0 -94 43.5 -150t121.5 -56z" />
    <glyph glyph-name="q" unicode="q" 
d="M461 -188v141q0 7 1 55t1 81h-3q-50 -101 -175 -101q-102 0 -165 73.5t-63 199.5q0 125 63.5 199t165.5 74q61 0 106 -30.5t68 -74.5h3q-1 19 -1 59v38h79q-1 -31 -1 -101v-613h-79zM299 55q79 0 122.5 56t43.5 150q0 92 -43 147.5t-122 55.5q-75 0 -118 -56.5
t-43 -148.5q0 -93 43 -148.5t117 -55.5z" />
    <glyph glyph-name="r" unicode="r" 
d="M36 0v65h195v395h-195v66h266v-115h4q18 62 61 88.5t119 26.5h98v-74h-97q-41 0 -71 -7t-49.5 -23.5t-31 -34.5t-17 -50.5t-7 -60t-1.5 -72.5v-139h202v-65h-476z" />
    <glyph glyph-name="s" unicode="s" 
d="M308 -15q-179 0 -227 138l68 31q43 -102 162 -102q58 0 91.5 22t33.5 63q0 36 -27.5 53t-91.5 34l-46 12q-43 12 -67 21t-50 25.5t-37.5 41.5t-11.5 60q0 70 56 110.5t145 40.5q79 0 131.5 -32t73.5 -89l-67 -30q-33 84 -140 84q-56 0 -86.5 -20.5t-30.5 -58.5
q0 -35 27.5 -52.5t92.5 -33.5l48 -12q40 -11 65 -20t49.5 -25.5t36 -41t11.5 -58.5q0 -75 -57.5 -118t-151.5 -43z" />
    <glyph glyph-name="t" unicode="t" 
d="M540 0h-187q-79 0 -109.5 30t-30.5 109v323h-184v64h184v144h79v-144h248v-66h-249v-291q0 -67 13 -85.5t61 -18.5h175v-65z" />
    <glyph glyph-name="u" unicode="u" 
d="M271 -12q-86 0 -133.5 51.5t-47.5 151.5v335h79v-313q0 -157 125 -157q70 0 105.5 44.5t35.5 124.5v301h79v-438v-41q0 -28 1 -47h-78v40q0 28 1 47h-2q-52 -99 -165 -99z" />
    <glyph glyph-name="v" unicode="v" 
d="M349 0h-91q-81 222 -193 526h90l84 -252q9 -28 31 -92t34 -102h4q12 42 38 115t30 84l82 247h85z" />
    <glyph glyph-name="w" unicode="w" 
d="M125 0l-102 526h79l43 -259q6 -42 30 -196h4q4 21 15 91t17 102l55 262h82l52 -255q13 -72 34 -200h3q19 123 32 199l45 256h75l-105 -526h-92l-51 252q-12 56 -32 195h-4q-24 -144 -35 -195l-53 -252h-92z" />
    <glyph glyph-name="x" unicode="x" 
d="M58 0l199 272l-184 254h99l135 -201l137 201h93l-184 -251l202 -275h-99l-152 219l-153 -219h-93z" />
    <glyph glyph-name="y" unicode="y" 
d="M137 -192q-13 0 -35 2l-2 68q11 -2 48 -2q50 0 71 23t48 101q-172 440 -207 526h89l80 -221q38 -100 77 -217h5q25 80 76 223l76 215h85q-114 -294 -222 -578q-34 -88 -69 -114t-120 -26z" />
    <glyph glyph-name="z" unicode="z" 
d="M87 0v62l256 314q52 63 67 82v2q-23 -2 -126 -2h-185v68h409v-62l-323 -396v-2q17 0 56 1t56 1h224v-68h-434z" />
    <glyph glyph-name="braceleft" unicode="{" 
d="M486 -141h-102q-41 0 -65.5 10t-35.5 33.5t-14 47t-3 66.5v103q0 87 -28.5 122.5t-109.5 35.5v56q79 0 108.5 31t29.5 107v140q0 74 22.5 106.5t95.5 32.5h102v-55h-63q-54 0 -67.5 -20.5t-13.5 -75.5v-136q0 -76 -22.5 -109.5t-71.5 -46.5v-2q50 -17 72 -50t22 -109
v-137q0 -55 13.5 -75t67.5 -20h63v-55z" />
    <glyph glyph-name="bar" unicode="|" 
d="M271 -168v853h69v-853h-69z" />
    <glyph glyph-name="braceright" unicode="}" 
d="M125 -141v55h63q54 0 67.5 20t13.5 75v137q0 76 22 109t72 50v2q-49 13 -71.5 46.5t-22.5 109.5v136q0 55 -13.5 75.5t-67.5 20.5h-63v55h102q73 0 95.5 -32.5t22.5 -106.5v-140q0 -76 29.5 -107t108.5 -31v-56q-81 0 -109.5 -35.5t-28.5 -122.5v-103q0 -43 -3 -66.5
t-14 -47t-35.5 -33.5t-65.5 -10h-102z" />
    <glyph glyph-name="asciitilde" unicode="~" 
d="M416 269q-35 0 -105 32l-37 17q-52 24 -75 24q-27 0 -47 -17t-42 -50l-44 38q53 97 133 97q35 0 105 -32l37 -17q52 -24 75 -24q46 0 91 68l44 -38q-53 -98 -135 -98z" />
    <glyph glyph-name="uni00A0" unicode="&#xa0;" 
 />
    <glyph glyph-name="exclamdown" unicode="&#xa1;" 
d="M264 -159v278l9 221h61l10 -221v-278h-80zM263 400v126h85v-126h-85z" />
    <glyph glyph-name="cent" unicode="&#xa2;" 
d="M294 -44v116q-98 12 -154.5 84t-56.5 186q0 113 57 186t154 85v117h71v-116q73 -8 121 -51t66 -111l-74 -18q-28 93 -113 110v-403q45 8 74 38.5t41 72.5l72 -18q-19 -67 -67.5 -110t-119.5 -52v-116h-71zM294 142v401q-62 -12 -95 -64.5t-33 -136.5t33 -136t95 -64z" />
    <glyph glyph-name="sterling" unicode="&#xa3;" 
d="M83 0v66q111 15 111 142q0 32 -17 109h-106v64h87q-21 71 -21 121q0 87 57 142t154 55q83 0 134.5 -42t64.5 -117l-70 -18q-27 108 -131 108q-64 0 -96.5 -35.5t-32.5 -96.5q0 -53 23 -116h168v-65h-150q14 -64 14 -101q0 -97 -65 -148q20 1 78 1h256v-69h-458z" />
    <glyph glyph-name="currency" unicode="&#xa4;" 
d="M500 118l-61 62q-61 -44 -132 -44q-74 0 -133 43l-59 -60l-50 50l60 59q-45 62 -45 135q0 71 44 134q-30 29 -59 59l50 50l58 -60q61 44 133 44q73 0 134 -45l60 61l50 -50l-61 -60q44 -63 44 -133q0 -75 -45 -134l62 -61zM306 202q66 0 113 47.5t47 113.5t-47 113.5
t-113 47.5t-112.5 -47.5t-46.5 -113.5t46.5 -113.5t112.5 -47.5z" />
    <glyph glyph-name="yen" unicode="&#xa5;" 
d="M264 0v142h-201v56h201v72l-35 63h-166v56h137l-164 296h91l87 -173q48 -95 91 -171h3q16 30 46.5 86.5t45.5 85.5l89 172h86l-166 -296h135v-56h-165l-35 -63v-72h200v-56h-200v-142h-80z" />
    <glyph glyph-name="brokenbar" unicode="&#xa6;" 
d="M271 355v330h70v-330h-70zM271 -168v330h70v-330h-70z" />
    <glyph glyph-name="section" unicode="&#xa7;" 
d="M298 -154q-79 0 -139.5 34.5t-80.5 98.5l74 25q32 -91 146 -91q57 0 92 23.5t35 62.5q0 34 -25 55t-82 44l-101 41q-70 29 -101.5 64t-31.5 91q0 93 113 133q-40 22 -60.5 50t-20.5 73q0 69 57.5 109t143.5 40q73 0 127 -31.5t71 -91.5l-70 -22q-28 79 -129 79
q-55 0 -87 -20.5t-32 -58.5q0 -35 23.5 -53.5t84.5 -44.5l75 -32q74 -31 111 -67t37 -90q0 -49 -28 -85.5t-74 -54.5q39 -23 59.5 -50.5t20.5 -71.5q0 -71 -58.5 -115t-149.5 -44zM274 196l98 -40q77 36 77 96q0 38 -24.5 61.5t-80.5 45.5l-95 38q-36 -11 -60.5 -34.5
t-24.5 -57.5q0 -39 25.5 -62t84.5 -47z" />
    <glyph glyph-name="dieresis" unicode="&#xa8;" 
d="M360 610v111h75v-111h-75zM177 610v111h75v-111h-75z" />
    <glyph glyph-name="copyright" unicode="&#xa9;" 
d="M303 166q-110 0 -187 77t-77 189q0 111 77.5 189t188.5 78q112 0 190 -78t78 -189q0 -112 -78.5 -189t-191.5 -77zM307 270q-70 0 -110.5 44t-40.5 117q0 72 41 117t109 45q54 0 90 -28t47 -77l-65 -9q-18 59 -71 59q-40 0 -63 -29.5t-23 -77.5t23 -77t63 -29q53 0 72 60
l65 -10q-12 -49 -48 -77t-89 -28zM307 210q91 0 154 65t63 157q0 93 -63.5 157t-155.5 64t-154.5 -64t-62.5 -157q0 -94 63 -158t156 -64z" />
    <glyph glyph-name="ordfeminine" unicode="&#xaa;" 
d="M266 350q-55 0 -88 26t-33 73t32.5 70t94.5 34l63 12q3 1 8.5 1.5t7.5 1l6 1.5t5 1.5t3.5 2t3 3t2 3.5t1.5 4.5v6.5q0 26 -19.5 41.5t-53.5 15.5q-66 0 -78 -63l-64 5q5 51 43.5 80.5t98.5 29.5q137 0 137 -127v-201q0 -4 0.5 -9t0.5 -6h-61v13v16q0 5 1 6h-2
q-38 -41 -109 -41zM282 398q43 0 67 25t24 68v15q0 11 1 15q-6 -2 -17 -4t-17 -3l-48 -10q-44 -9 -61 -19.5t-17 -34.5t18.5 -38t49.5 -14z" />
    <glyph glyph-name="guillemotleft" unicode="&#xab;" 
d="M224 91l-121 184l121 185h78l-110 -185l110 -184h-78zM416 91l-121 184l121 185h78l-110 -185l110 -184h-78z" />
    <glyph glyph-name="logicalnot" unicode="&#xac;" 
d="M484 162v174q0 43 1 66h-427v69h498v-309h-72z" />
    <glyph glyph-name="uni00AD" unicode="&#xad;" 
d="M162 253v75h288v-75h-288z" />
    <glyph glyph-name="registered" unicode="&#xae;" 
d="M303 166q-110 0 -187 77t-77 189q0 111 77.5 189t188.5 78q112 0 190 -78t78 -189q0 -112 -78.5 -189t-191.5 -77zM307 210q91 0 154 65t63 157q0 93 -63.5 157t-155.5 64t-154.5 -64t-62.5 -157q0 -94 63 -158t156 -64zM193 273v315h127q113 0 113 -89q0 -53 -41 -76
q28 -18 33 -68l2 -31q2 -25 17 -51h-68q-6 17 -8 46l-2 28q-2 27 -15 39t-46 12h-50v-125h-62zM255 449h66q23 0 37 12t14 33q0 23 -14 32t-43 9h-60v-86z" />
    <glyph glyph-name="overscore" unicode="&#xaf;" 
d="M177 641v61h259v-61h-259z" />
    <glyph glyph-name="degree" unicode="&#xb0;" 
d="M306 369q-70 0 -118.5 48t-48.5 118t48 118.5t119 48.5q69 0 117.5 -48.5t48.5 -118.5t-48.5 -118t-117.5 -48zM306 426q45 0 75.5 31.5t30.5 77.5t-30.5 77.5t-75.5 31.5t-76.5 -31.5t-31.5 -77.5t31.5 -77.5t76.5 -31.5z" />
    <glyph glyph-name="plusminus" unicode="&#xb1;" 
d="M269 243v154h-183v74h183v150h74v-150h183v-74h-183v-154h-74zM86 90v73h440v-73h-440z" />
    <glyph glyph-name="twosuperior" unicode="&#xb2;" 
d="M137 348v56q92 86 134 121q60 49 82.5 83.5t22.5 75.5q0 37 -20.5 59t-57.5 22q-82 0 -87 -99l-71 2q2 71 44.5 115.5t113.5 44.5q70 0 112 -38t42 -104q0 -51 -28.5 -94t-82.5 -87q-27 -23 -50 -42t-40.5 -33.5t-25.5 -21.5v-1q3 0 32.5 0.5t45.5 0.5h150v-60h-316z" />
    <glyph glyph-name="threesuperior" unicode="&#xb3;" 
d="M296 340q-76 0 -117 39t-47 110l71 4q4 -43 27.5 -69.5t66.5 -26.5q41 0 65.5 25t24.5 64q0 80 -105 80h-18v59q2 0 3 -0.5t3 -0.5q104 0 104 74q0 33 -20.5 51.5t-56.5 18.5q-38 0 -60 -23t-24 -60l-69 6q5 61 46 99t108 38q66 0 106.5 -33.5t40.5 -89.5q0 -75 -80 -105
v-1q45 -11 71 -41.5t26 -74.5q0 -64 -46.5 -103.5t-119.5 -39.5z" />
    <glyph glyph-name="acute" unicode="&#xb4;" 
d="M207 601l92 129h106l-122 -129h-76z" />
    <glyph glyph-name="mu" unicode="&#xb5;" 
d="M170 -184h-80q3 61 3 135v575h79v-316q0 -154 125 -154q70 0 106.5 46t36.5 130v294h79v-445q0 -49 1 -81h-78v33v38v16q-59 -99 -165 -99q-69 0 -104 35v-121q0 -59 -3 -86z" />
    <glyph glyph-name="paragraph" unicode="&#xb6;" 
d="M246 -141v471q-81 0 -136 49t-55 129q0 85 55 131t157 46h289v-59h-37q-21 0 -33 1q1 -31 1 -87v-681h-64v766q-19 -1 -54 -1h-4q-36 0 -55 1q1 -28 1 -89v-677h-65z" />
    <glyph glyph-name="middot" unicode="&#xb7;" 
d="M245 199v155h122v-155h-122z" />
    <glyph glyph-name="cedilla" unicode="&#xb8;" 
d="M222 -178l96 129h73l-77 -129h-92z" />
    <glyph glyph-name="onesuperior" unicode="&#xb9;" 
d="M181 348v55h103v283h-115v47q62 3 89.5 20.5t34.5 61.5h58v-412h95v-55h-265z" />
    <glyph glyph-name="ordmasculine" unicode="&#xba;" 
d="M305 345q-76 0 -123.5 48.5t-47.5 126.5q0 79 48 127.5t125 48.5q76 0 123.5 -48.5t47.5 -127.5q0 -78 -48 -126.5t-125 -48.5zM305 402q48 0 75 31.5t27 86.5q0 54 -27 86.5t-74 32.5q-48 0 -75 -32.5t-27 -86.5q0 -55 26.5 -86.5t74.5 -31.5z" />
    <glyph glyph-name="guillemotright" unicode="&#xbb;" 
d="M311 91l110 184l-110 185h79l120 -185l-120 -184h-79zM119 91l110 184l-110 185h79l120 -185l-120 -184h-79z" />
    <glyph glyph-name="onequarter" unicode="&#xbc;" 
d="M116 0l293 685h57l-292 -685h-58zM128 305v274h-91v41q55 0 78 15t27 50h44v-380h-58zM474 0v81h-164v41l89 258h56l-84 -251h103v146h53v-146h54v-48h-54v-81h-53z" />
    <glyph glyph-name="onehalf" unicode="&#xbd;" 
d="M317 0v42l112 106q76 70 76 123q0 29 -16.5 46t-44.5 17q-58 0 -63 -80l-60 1q2 62 34.5 96t88.5 34q57 0 89 -30t32 -82q0 -18 -3.5 -34t-13.5 -33t-16 -27.5t-23 -28t-22 -22.5t-26 -23.5t-22 -19.5l-39 -33h168v-52h-251zM88 0l293 685h57l-292 -685h-58zM100 305v273
h-91v42q55 0 78 15t27 50h44v-380h-58z" />
    <glyph glyph-name="threequarters" unicode="&#xbe;" 
d="M149 0l293 685h57l-292 -685h-58zM144 302q-118 0 -131 120l59 4q9 -75 72 -75q32 0 50.5 18t18.5 48q0 31 -21.5 48t-57.5 17h-19v48q87 0 87 58q0 24 -16.5 39.5t-41.5 15.5q-29 0 -45.5 -18.5t-19.5 -49.5l-55 5q4 50 35 81t86 31q54 0 83.5 -27t29.5 -74
q0 -56 -59 -81q74 -24 74 -94q0 -50 -35.5 -82t-93.5 -32zM496 0v81h-164v41l89 258h56l-84 -251h103v146h53v-146h54v-48h-54v-81h-53z" />
    <glyph glyph-name="questiondown" unicode="&#xbf;" 
d="M299 -173q-90 0 -143.5 49.5t-53.5 130.5q0 52 22 88.5t68 78.5l22 21q37 33 49.5 63.5t12.5 85.5h75q0 -72 -14.5 -110.5t-58.5 -79.5l-41 -39q-27 -25 -41 -48.5t-14 -59.5q0 -50 30 -80.5t89 -30.5q128 0 133 152l77 -4q-2 -102 -58 -159.5t-154 -57.5zM271 400v126
h85v-126h-85z" />
    <glyph glyph-name="Agrave" unicode="&#xc0;" 
d="M29 0l228 685h99l226 -685h-84l-65 198h-256l-67 -198h-81zM196 267h216q-21 65 -58.5 186t-46.5 150h-5q-68 -220 -106 -336zM278 773l-122 129h107l91 -129h-76z" />
    <glyph glyph-name="Aacute" unicode="&#xc1;" 
d="M29 0l228 685h99l226 -685h-84l-65 198h-256l-67 -198h-81zM196 267h216q-21 65 -58.5 186t-46.5 150h-5q-68 -220 -106 -336zM257 773l92 129h106l-122 -129h-76z" />
    <glyph glyph-name="Acircumflex" unicode="&#xc2;" 
d="M29 0l228 685h99l226 -685h-84l-65 198h-256l-67 -198h-81zM196 267h216q-21 65 -58.5 186t-46.5 150h-5q-68 -220 -106 -336zM156 773l101 129h96l101 -129h-73l-76 82l-76 -82h-73z" />
    <glyph glyph-name="Atilde" unicode="&#xc3;" 
d="M29 0l228 685h99l226 -685h-84l-65 198h-256l-67 -198h-81zM196 267h216q-21 65 -58.5 186t-46.5 150h-5q-68 -220 -106 -336zM197 786l-49 7q19 99 90 99q25 0 67 -18l21 -10q30 -14 49 -14q29 0 42 45l49 -7q-15 -99 -90 -99q-25 0 -62 16l-24 10q-40 16 -52 16
q-28 0 -41 -45z" />
    <glyph glyph-name="Adieresis" unicode="&#xc4;" 
d="M29 0l228 685h99l226 -685h-84l-65 198h-256l-67 -198h-81zM196 267h216q-21 65 -58.5 186t-46.5 150h-5q-68 -220 -106 -336zM360 782v111h75v-111h-75zM177 782v111h75v-111h-75z" />
    <glyph glyph-name="Aring" unicode="&#xc5;" 
d="M29 0l228 685h99l226 -685h-84l-65 198h-256l-67 -198h-81zM196 267h216q-21 65 -58.5 186t-46.5 150h-5q-68 -220 -106 -336zM305 741q-39 0 -67.5 29.5t-28.5 68.5q0 40 28 68t69 28t68.5 -28t27.5 -69q0 -40 -28.5 -68.5t-68.5 -28.5zM305 785q23 0 38 15.5t15 38.5
q0 22 -15 37.5t-38 15.5q-22 0 -37 -15.5t-15 -38.5q0 -22 15 -37.5t37 -15.5z" />
    <glyph glyph-name="AE" unicode="&#xc6;" 
d="M25 0l181 685h377v-70h-199v-226h177v-70h-177v-250h202v-69h-278v197h-152l-51 -197h-80zM173 261h135v359h-49z" />
    <glyph glyph-name="Ccedilla" unicode="&#xc7;" 
d="M322 -13q-267 0 -267 354q0 176 67.5 267t199.5 91q96 0 155.5 -51t80.5 -143l-76 -18q-19 71 -57.5 107.5t-104.5 36.5q-183 0 -183 -290q0 -143 44.5 -214.5t141.5 -71.5q123 0 161 142l74 -18q-46 -192 -236 -192zM197 -178l96 129h73l-77 -129h-92z" />
    <glyph glyph-name="Egrave" unicode="&#xc8;" 
d="M102 0v685h410v-69h-332v-227h311v-69h-311v-251h339v-69h-417zM283 773l-122 129h107l91 -129h-76z" />
    <glyph glyph-name="Eacute" unicode="&#xc9;" 
d="M102 0v685h410v-69h-332v-227h311v-69h-311v-251h339v-69h-417zM247 773l92 129h106l-122 -129h-76z" />
    <glyph glyph-name="Ecircumflex" unicode="&#xca;" 
d="M102 0v685h410v-69h-332v-227h311v-69h-311v-251h339v-69h-417zM157 773l101 129h96l101 -129h-73l-76 82l-76 -82h-73z" />
    <glyph glyph-name="Edieresis" unicode="&#xcb;" 
d="M102 0v685h410v-69h-332v-227h311v-69h-311v-251h339v-69h-417zM363 782v111h75v-111h-75zM180 782v111h75v-111h-75z" />
    <glyph glyph-name="Igrave" unicode="&#xcc;" 
d="M90 0v63h175v558h-175v64h431v-64h-176v-558h176v-63h-431zM280 773l-122 129h107l91 -129h-76z" />
    <glyph glyph-name="Iacute" unicode="&#xcd;" 
d="M90 0v63h175v558h-175v64h431v-64h-176v-558h176v-63h-431zM255 773l92 129h106l-122 -129h-76z" />
    <glyph glyph-name="Icircumflex" unicode="&#xce;" 
d="M90 0v63h175v558h-175v64h431v-64h-176v-558h176v-63h-431zM157 773l101 129h96l101 -129h-73l-76 82l-76 -82h-73z" />
    <glyph glyph-name="Idieresis" unicode="&#xcf;" 
d="M90 0v63h175v558h-175v64h431v-64h-176v-558h176v-63h-431zM360 782v111h75v-111h-75zM177 782v111h75v-111h-75z" />
    <glyph glyph-name="Eth" unicode="&#xd0;" 
d="M78 0v315h-53v65h53v305h192q159 0 228 -86t69 -252q0 -159 -70.5 -253t-225.5 -94h-193zM158 68h105q107 0 163.5 64t56.5 212q0 145 -55.5 209t-180.5 64h-89v-237h171v-65h-171v-247z" />
    <glyph glyph-name="Ntilde" unicode="&#xd1;" 
d="M74 0v685h107l185 -385q71 -151 94 -202h4q-2 130 -2 208v379h76v-685h-106l-154 320q-31 64 -128 273h-4q0 -31 2 -120.5t2 -124.5v-348h-76zM201 786l-49 7q19 99 90 99q25 0 67 -18l21 -10q30 -14 49 -14q29 0 42 45l49 -7q-15 -99 -90 -99q-25 0 -62 16l-24 10
q-40 16 -52 16q-28 0 -41 -45z" />
    <glyph glyph-name="Ograve" unicode="&#xd2;" 
d="M305 -13q-130 0 -196 90.5t-66 263.5t66.5 265.5t195.5 92.5q130 0 196.5 -91.5t66.5 -266.5q0 -172 -66.5 -263t-196.5 -91zM305 55q94 0 137.5 71.5t43.5 215.5q0 289 -181 289q-93 0 -136.5 -72.5t-43.5 -216.5q0 -287 180 -287zM287 773l-122 129h107l91 -129h-76z
" />
    <glyph glyph-name="Oacute" unicode="&#xd3;" 
d="M305 -13q-130 0 -196 90.5t-66 263.5t66.5 265.5t195.5 92.5q130 0 196.5 -91.5t66.5 -266.5q0 -172 -66.5 -263t-196.5 -91zM305 55q94 0 137.5 71.5t43.5 215.5q0 289 -181 289q-93 0 -136.5 -72.5t-43.5 -216.5q0 -287 180 -287zM246 773l92 129h106l-122 -129h-76z
" />
    <glyph glyph-name="Ocircumflex" unicode="&#xd4;" 
d="M305 -13q-130 0 -196 90.5t-66 263.5t66.5 265.5t195.5 92.5q130 0 196.5 -91.5t66.5 -266.5q0 -172 -66.5 -263t-196.5 -91zM305 55q94 0 137.5 71.5t43.5 215.5q0 289 -181 289q-93 0 -136.5 -72.5t-43.5 -216.5q0 -287 180 -287zM157 773l101 129h96l101 -129h-73
l-76 82l-76 -82h-73z" />
    <glyph glyph-name="Otilde" unicode="&#xd5;" 
d="M305 -13q-130 0 -196 90.5t-66 263.5t66.5 265.5t195.5 92.5q130 0 196.5 -91.5t66.5 -266.5q0 -172 -66.5 -263t-196.5 -91zM305 55q94 0 137.5 71.5t43.5 215.5q0 289 -181 289q-93 0 -136.5 -72.5t-43.5 -216.5q0 -287 180 -287zM203 786l-49 7q19 99 90 99
q25 0 67 -18l21 -10q30 -14 49 -14q29 0 42 45l49 -7q-15 -99 -90 -99q-25 0 -62 16l-24 10q-40 16 -52 16q-28 0 -41 -45z" />
    <glyph glyph-name="Odieresis" unicode="&#xd6;" 
d="M305 -13q-130 0 -196 90.5t-66 263.5t66.5 265.5t195.5 92.5q130 0 196.5 -91.5t66.5 -266.5q0 -172 -66.5 -263t-196.5 -91zM305 55q94 0 137.5 71.5t43.5 215.5q0 289 -181 289q-93 0 -136.5 -72.5t-43.5 -216.5q0 -287 180 -287zM363 782v111h75v-111h-75zM180 782
v111h75v-111h-75z" />
    <glyph glyph-name="multiply" unicode="&#xd7;" 
d="M131 109l-49 50l175 177l-175 176l49 50l176 -177l175 176l50 -49l-175 -176l175 -176l-50 -50l-175 176z" />
    <glyph glyph-name="Oslash" unicode="&#xd8;" 
d="M88 -43l-55 33l63 99q-62 92 -62 252q0 172 70 265t201 93q89 0 148 -45l51 81l55 -33q-57 -88 -58 -90q76 -92 76 -271q0 -171 -70 -262.5t-202 -91.5q-100 0 -163 54zM305 55q189 0 189 286q0 129 -38 200l-275 -438q43 -48 124 -48zM143 163l271 430q-40 36 -109 36
q-189 0 -189 -288q0 -111 27 -178z" />
    <glyph glyph-name="Ugrave" unicode="&#xd9;" 
d="M306 -13q-123 0 -180 64.5t-57 207.5v426h81v-423q0 -102 35 -154.5t121 -52.5q85 0 120.5 53.5t35.5 153.5v423h81v-427q0 -142 -57.5 -206.5t-179.5 -64.5zM288 773l-122 129h107l91 -129h-76z" />
    <glyph glyph-name="Uacute" unicode="&#xda;" 
d="M306 -13q-123 0 -180 64.5t-57 207.5v426h81v-423q0 -102 35 -154.5t121 -52.5q85 0 120.5 53.5t35.5 153.5v423h81v-427q0 -142 -57.5 -206.5t-179.5 -64.5zM243 773l92 129h106l-122 -129h-76z" />
    <glyph glyph-name="Ucircumflex" unicode="&#xdb;" 
d="M306 -13q-123 0 -180 64.5t-57 207.5v426h81v-423q0 -102 35 -154.5t121 -52.5q85 0 120.5 53.5t35.5 153.5v423h81v-427q0 -142 -57.5 -206.5t-179.5 -64.5zM157 773l101 129h96l101 -129h-73l-76 82l-76 -82h-73z" />
    <glyph glyph-name="Udieresis" unicode="&#xdc;" 
d="M306 -13q-123 0 -180 64.5t-57 207.5v426h81v-423q0 -102 35 -154.5t121 -52.5q85 0 120.5 53.5t35.5 153.5v423h81v-427q0 -142 -57.5 -206.5t-179.5 -64.5zM360 782v111h75v-111h-75zM177 782v111h75v-111h-75z" />
    <glyph glyph-name="Yacute" unicode="&#xdd;" 
d="M263 0v267l-226 418h89l88 -172q58 -112 90 -169h3q12 25 44.5 85t45.5 85l89 171h86l-229 -418v-267h-80zM248 773l92 129h106l-122 -129h-76z" />
    <glyph glyph-name="Thorn" unicode="&#xde;" 
d="M87 0v685h79v-102h160q105 0 159 -51.5t54 -148.5q0 -98 -57.5 -150.5t-161.5 -52.5h-154v-180h-79zM166 249h141q150 0 150 133q0 72 -38.5 103t-117.5 31h-135v-267z" />
    <glyph glyph-name="germandbls" unicode="&#xdf;" 
d="M304 -4q-27 0 -42 3v62q7 -2 35 -2q73 0 117 40t44 118q0 47 -15.5 80t-44 49.5t-60 24t-71.5 8.5v60q150 5 150 122q0 54 -31.5 82.5t-88.5 28.5q-74 0 -100.5 -44.5t-26.5 -146.5v-481h-79v508q0 230 210 230q92 0 143 -45t51 -125q0 -114 -107 -150v-3
q151 -44 151 -198q0 -105 -64.5 -163t-170.5 -58z" />
    <glyph glyph-name="agrave" unicode="&#xe0;" 
d="M251 -9q-86 0 -135.5 40t-49.5 111q0 75 53 107.5t173 55.5l89 17q26 6 34.5 13t8.5 29q0 48 -33.5 77t-90.5 29q-120 0 -137 -108l-79 7q8 72 68.5 118.5t147.5 46.5q98 0 151 -49.5t53 -147.5v-314q0 -18 1 -23h-74v38q0 6 0.5 19t0.5 20h-2q-57 -86 -179 -86zM267 50
q73 0 116 41.5t43 112.5v30q0 21 3 36q-11 -3 -49 -10l-93 -19q-78 -15 -107.5 -34t-29.5 -64t31 -69t86 -24zM287 601l-122 129h106l92 -129h-76z" />
    <glyph glyph-name="aacute" unicode="&#xe1;" 
d="M251 -9q-86 0 -135.5 40t-49.5 111q0 75 53 107.5t173 55.5l89 17q26 6 34.5 13t8.5 29q0 48 -33.5 77t-90.5 29q-120 0 -137 -108l-79 7q8 72 68.5 118.5t147.5 46.5q98 0 151 -49.5t53 -147.5v-314q0 -18 1 -23h-74v38q0 6 0.5 19t0.5 20h-2q-57 -86 -179 -86zM267 50
q73 0 116 41.5t43 112.5v30q0 21 3 36q-11 -3 -49 -10l-93 -19q-78 -15 -107.5 -34t-29.5 -64t31 -69t86 -24zM239 601l92 129h106l-122 -129h-76z" />
    <glyph glyph-name="acircumflex" unicode="&#xe2;" 
d="M251 -9q-86 0 -135.5 40t-49.5 111q0 75 53 107.5t173 55.5l89 17q26 6 34.5 13t8.5 29q0 48 -33.5 77t-90.5 29q-120 0 -137 -108l-79 7q8 72 68.5 118.5t147.5 46.5q98 0 151 -49.5t53 -147.5v-314q0 -18 1 -23h-74v38q0 6 0.5 19t0.5 20h-2q-57 -86 -179 -86zM267 50
q73 0 116 41.5t43 112.5v30q0 21 3 36q-11 -3 -49 -10l-93 -19q-78 -15 -107.5 -34t-29.5 -64t31 -69t86 -24zM156 601l101 129h95l101 -129h-72l-77 82l-76 -82h-72z" />
    <glyph glyph-name="atilde" unicode="&#xe3;" 
d="M251 -9q-86 0 -135.5 40t-49.5 111q0 75 53 107.5t173 55.5l89 17q26 6 34.5 13t8.5 29q0 48 -33.5 77t-90.5 29q-120 0 -137 -108l-79 7q8 72 68.5 118.5t147.5 46.5q98 0 151 -49.5t53 -147.5v-314q0 -18 1 -23h-74v38q0 6 0.5 19t0.5 20h-2q-57 -86 -179 -86zM267 50
q73 0 116 41.5t43 112.5v30q0 21 3 36q-11 -3 -49 -10l-93 -19q-78 -15 -107.5 -34t-29.5 -64t31 -69t86 -24zM192 615l-49 7q19 99 90 99q25 0 67 -18l21 -10q30 -14 49 -14q29 0 42 45l49 -7q-15 -99 -90 -99q-25 0 -62 16l-24 10q-40 16 -52 16q-28 0 -41 -45z" />
    <glyph glyph-name="adieresis" unicode="&#xe4;" 
d="M251 -9q-86 0 -135.5 40t-49.5 111q0 75 53 107.5t173 55.5l89 17q26 6 34.5 13t8.5 29q0 48 -33.5 77t-90.5 29q-120 0 -137 -108l-79 7q8 72 68.5 118.5t147.5 46.5q98 0 151 -49.5t53 -147.5v-314q0 -18 1 -23h-74v38q0 6 0.5 19t0.5 20h-2q-57 -86 -179 -86zM267 50
q73 0 116 41.5t43 112.5v30q0 21 3 36q-11 -3 -49 -10l-93 -19q-78 -15 -107.5 -34t-29.5 -64t31 -69t86 -24zM359 610v111h75v-111h-75zM176 610v111h75v-111h-75z" />
    <glyph glyph-name="aring" unicode="&#xe5;" 
d="M251 -9q-86 0 -135.5 40t-49.5 111q0 75 53 107.5t173 55.5l89 17q26 6 34.5 13t8.5 29q0 48 -33.5 77t-90.5 29q-120 0 -137 -108l-79 7q8 72 68.5 118.5t147.5 46.5q98 0 151 -49.5t53 -147.5v-314q0 -18 1 -23h-74v38q0 6 0.5 19t0.5 20h-2q-57 -86 -179 -86zM267 50
q73 0 116 41.5t43 112.5v30q0 21 3 36q-11 -3 -49 -10l-93 -19q-78 -15 -107.5 -34t-29.5 -64t31 -69t86 -24zM305 577q-41 0 -68.5 28.5t-27.5 69.5q0 40 28 68t69 28t68.5 -28t27.5 -69q0 -40 -28.5 -68.5t-68.5 -28.5zM305 621q23 0 38 15.5t15 38.5q0 22 -15 37.5
t-38 15.5q-22 0 -37 -15.5t-15 -38.5q0 -22 15 -37.5t37 -15.5z" />
    <glyph glyph-name="ae" unicode="&#xe6;" 
d="M152 -10q-65 0 -98.5 39.5t-33.5 109.5t37.5 104.5t105.5 56.5l62 20q19 6 24.5 14t5.5 31q0 100 -74 100q-77 0 -82 -104q-11 1 -34 3t-34 4q2 76 42 121t108 45q88 0 118 -73q43 73 120 73q83 0 121 -63t38 -194v-34h-256q0 -193 97 -193q36 0 57 25t34 72l65 -15
q-37 -142 -158 -142q-91 0 -127 87h-2q-39 -87 -136 -87zM162 52q45 0 69.5 34t24.5 99v52q0 21 3 32q-17 -8 -33 -12l-46 -15q-47 -15 -67.5 -37t-20.5 -65q0 -88 70 -88zM322 305h183q-2 88 -22.5 125.5t-65.5 37.5q-90 0 -95 -163z" />
    <glyph glyph-name="ccedilla" unicode="&#xe7;" 
d="M317 -14q-112 0 -179 74.5t-67 200.5q0 124 68.5 199t180.5 75q86 0 144 -44.5t76 -119.5l-76 -19q-35 114 -145 114q-80 0 -122.5 -55t-42.5 -150q0 -98 42 -152t123 -54q111 0 147 114l74 -18q-21 -75 -80 -120t-143 -45zM195 -178l96 129h73l-77 -129h-92z" />
    <glyph glyph-name="egrave" unicode="&#xe8;" 
d="M315 -13q-117 0 -184.5 74t-67.5 198q0 120 67.5 198t181.5 78q82 0 137.5 -42.5t78.5 -106t23 -143.5h-409q2 -88 50 -138t124 -50q110 0 164 101l67 -27q-29 -64 -89.5 -103t-142.5 -39zM144 305h326q-6 73 -47.5 118.5t-111.5 45.5q-71 0 -115.5 -44.5t-51.5 -119.5z
M292 601l-122 129h106l92 -129h-76z" />
    <glyph glyph-name="eacute" unicode="&#xe9;" 
d="M315 -13q-117 0 -184.5 74t-67.5 198q0 120 67.5 198t181.5 78q82 0 137.5 -42.5t78.5 -106t23 -143.5h-409q2 -88 50 -138t124 -50q110 0 164 101l67 -27q-29 -64 -89.5 -103t-142.5 -39zM144 305h326q-6 73 -47.5 118.5t-111.5 45.5q-71 0 -115.5 -44.5t-51.5 -119.5z
M262 601l92 129h106l-122 -129h-76z" />
    <glyph glyph-name="ecircumflex" unicode="&#xea;" 
d="M315 -13q-117 0 -184.5 74t-67.5 198q0 120 67.5 198t181.5 78q82 0 137.5 -42.5t78.5 -106t23 -143.5h-409q2 -88 50 -138t124 -50q110 0 164 101l67 -27q-29 -64 -89.5 -103t-142.5 -39zM144 305h326q-6 73 -47.5 118.5t-111.5 45.5q-71 0 -115.5 -44.5t-51.5 -119.5z
M165 601l101 129h95l101 -129h-72l-77 82l-76 -82h-72z" />
    <glyph glyph-name="edieresis" unicode="&#xeb;" 
d="M315 -13q-117 0 -184.5 74t-67.5 198q0 120 67.5 198t181.5 78q82 0 137.5 -42.5t78.5 -106t23 -143.5h-409q2 -88 50 -138t124 -50q110 0 164 101l67 -27q-29 -64 -89.5 -103t-142.5 -39zM144 305h326q-6 73 -47.5 118.5t-111.5 45.5q-71 0 -115.5 -44.5t-51.5 -119.5z
M366 610v111h75v-111h-75zM183 610v111h75v-111h-75z" />
    <glyph glyph-name="igrave" unicode="&#xec;" 
d="M292 601l-122 129h106l92 -129h-76zM89 0v65h196v395h-196v66h275v-461h181v-65h-456z" />
    <glyph glyph-name="iacute" unicode="&#xed;" 
d="M265 601l92 129h106l-122 -129h-76zM89 0v65h196v395h-196v66h275v-461h181v-65h-456z" />
    <glyph glyph-name="icircumflex" unicode="&#xee;" 
d="M89 0v65h196v395h-196v66h275v-461h181v-65h-456zM163 601l101 129h95l101 -129h-72l-77 82l-76 -82h-72z" />
    <glyph glyph-name="idieresis" unicode="&#xef;" 
d="M369 610v111h75v-111h-75zM186 610v111h75v-111h-75zM89 0v65h196v395h-196v66h275v-461h181v-65h-456z" />
    <glyph glyph-name="eth" unicode="&#xf0;" 
d="M299 -12q-113 0 -180.5 71.5t-67.5 190.5q0 120 65.5 191t168.5 71q87 0 145 -68l3 2q-57 109 -140 173l-116 -62l-30 38l104 56q-67 47 -111 68l79 22q48 -21 97 -56l97 52l31 -36l-87 -48q82 -66 135 -165.5t53 -219.5q0 -133 -65 -206.5t-181 -73.5zM298 54
q78 0 123 52t45 145q0 91 -44.5 144t-122.5 53q-79 0 -123.5 -52t-44.5 -144q0 -93 44.5 -145.5t122.5 -52.5z" />
    <glyph glyph-name="ntilde" unicode="&#xf1;" 
d="M94 0v429q0 12 -0.5 47.5t-0.5 49.5h77v-38q0 -28 -1 -55h2q19 42 62 72t106 30q86 0 134 -53.5t48 -155.5v-326h-79v276q0 98 -29.5 144t-95.5 46q-70 0 -107 -49t-37 -138v-279h-79zM203 615l-49 7q19 99 90 99q25 0 67 -18l21 -10q30 -14 49 -14q29 0 42 45l49 -7
q-15 -99 -90 -99q-25 0 -62 16l-24 10q-40 16 -52 16q-28 0 -41 -45z" />
    <glyph glyph-name="ograve" unicode="&#xf2;" 
d="M305 -14q-115 0 -182 75t-67 198q0 124 67 200t183 76q115 0 182 -76.5t67 -199.5t-68 -198t-182 -75zM305 54q80 0 123.5 54t43.5 151q0 99 -43 153.5t-123 54.5t-123.5 -54.5t-43.5 -153.5t42.5 -152t123.5 -53zM277 601l-122 129h106l92 -129h-76z" />
    <glyph glyph-name="oacute" unicode="&#xf3;" 
d="M305 -14q-115 0 -182 75t-67 198q0 124 67 200t183 76q115 0 182 -76.5t67 -199.5t-68 -198t-182 -75zM305 54q80 0 123.5 54t43.5 151q0 99 -43 153.5t-123 54.5t-123.5 -54.5t-43.5 -153.5t42.5 -152t123.5 -53zM249 601l92 129h106l-122 -129h-76z" />
    <glyph glyph-name="ocircumflex" unicode="&#xf4;" 
d="M305 -14q-115 0 -182 75t-67 198q0 124 67 200t183 76q115 0 182 -76.5t67 -199.5t-68 -198t-182 -75zM305 54q80 0 123.5 54t43.5 151q0 99 -43 153.5t-123 54.5t-123.5 -54.5t-43.5 -153.5t42.5 -152t123.5 -53zM158 601l101 129h95l101 -129h-72l-77 82l-76 -82h-72z
" />
    <glyph glyph-name="otilde" unicode="&#xf5;" 
d="M305 -14q-115 0 -182 75t-67 198q0 124 67 200t183 76q115 0 182 -76.5t67 -199.5t-68 -198t-182 -75zM305 54q80 0 123.5 54t43.5 151q0 99 -43 153.5t-123 54.5t-123.5 -54.5t-43.5 -153.5t42.5 -152t123.5 -53zM198 615l-49 7q19 99 90 99q25 0 67 -18l21 -10
q30 -14 49 -14q29 0 42 45l49 -7q-15 -99 -90 -99q-25 0 -62 16l-24 10q-40 16 -52 16q-28 0 -41 -45z" />
    <glyph glyph-name="odieresis" unicode="&#xf6;" 
d="M305 -14q-115 0 -182 75t-67 198q0 124 67 200t183 76q115 0 182 -76.5t67 -199.5t-68 -198t-182 -75zM305 54q80 0 123.5 54t43.5 151q0 99 -43 153.5t-123 54.5t-123.5 -54.5t-43.5 -153.5t42.5 -152t123.5 -53zM362 610v111h75v-111h-75zM179 610v111h75v-111h-75z
" />
    <glyph glyph-name="divide" unicode="&#xf7;" 
d="M64 302v70h483v-70h-483zM305 95q-23 0 -38.5 16t-15.5 39t15.5 38.5t38.5 15.5t39 -16t16 -38q0 -23 -16 -39t-39 -16zM305 470q-23 0 -38.5 16t-15.5 39t15.5 39t38.5 16t39 -16t16 -39t-16 -39t-39 -16z" />
    <glyph glyph-name="oslash" unicode="&#xf8;" 
d="M117 -46l-47 33l53 73q-67 73 -67 199q0 124 67 200t183 76q76 0 134 -37l50 70l49 -33l-54 -74q70 -76 70 -202q0 -123 -68 -198t-182 -75q-78 0 -137 38zM169 124l230 316q-38 26 -93 26q-81 0 -124 -54t-43 -153q0 -87 30 -135zM305 53q81 0 124 53t43 153
q0 88 -33 139l-231 -319q38 -26 97 -26z" />
    <glyph glyph-name="ugrave" unicode="&#xf9;" 
d="M271 -12q-86 0 -133.5 51.5t-47.5 151.5v335h79v-313q0 -157 125 -157q70 0 105.5 44.5t35.5 124.5v301h79v-438v-41q0 -28 1 -47h-78v40q0 28 1 47h-2q-52 -99 -165 -99zM295 601l-122 129h106l92 -129h-76z" />
    <glyph glyph-name="uacute" unicode="&#xfa;" 
d="M271 -12q-86 0 -133.5 51.5t-47.5 151.5v335h79v-313q0 -157 125 -157q70 0 105.5 44.5t35.5 124.5v301h79v-438v-41q0 -28 1 -47h-78v40q0 28 1 47h-2q-52 -99 -165 -99zM235 601l92 129h106l-122 -129h-76z" />
    <glyph glyph-name="ucircumflex" unicode="&#xfb;" 
d="M271 -12q-86 0 -133.5 51.5t-47.5 151.5v335h79v-313q0 -157 125 -157q70 0 105.5 44.5t35.5 124.5v301h79v-438v-41q0 -28 1 -47h-78v40q0 28 1 47h-2q-52 -99 -165 -99zM156 601l101 129h95l101 -129h-72l-77 82l-76 -82h-72z" />
    <glyph glyph-name="udieresis" unicode="&#xfc;" 
d="M271 -12q-86 0 -133.5 51.5t-47.5 151.5v335h79v-313q0 -157 125 -157q70 0 105.5 44.5t35.5 124.5v301h79v-438v-41q0 -28 1 -47h-78v40q0 28 1 47h-2q-52 -99 -165 -99zM360 610v111h75v-111h-75zM177 610v111h75v-111h-75z" />
    <glyph glyph-name="yacute" unicode="&#xfd;" 
d="M137 -192q-13 0 -35 2l-2 68q11 -2 48 -2q50 0 71 23t48 101q-172 440 -207 526h89l80 -221q38 -100 77 -217h5q25 80 76 223l76 215h85q-114 -294 -222 -578q-34 -88 -69 -114t-120 -26zM244 601l92 129h106l-122 -129h-76z" />
    <glyph glyph-name="thorn" unicode="&#xfe;" 
d="M70 -188v918h79v-162v-58q0 -45 -1 -78h3q19 43 65.5 72.5t108.5 29.5q102 0 165.5 -73.5t63.5 -198.5q0 -126 -63.5 -199.5t-164.5 -73.5q-126 0 -176 99h-3q2 -54 2 -84v-192h-79zM310 55q75 0 118.5 55.5t43.5 148.5t-43.5 149t-118.5 56q-79 0 -122 -55.5t-43 -147.5
q0 -94 43.5 -150t121.5 -56z" />
    <glyph glyph-name="ydieresis" unicode="&#xff;" 
d="M137 -192q-13 0 -35 2l-2 68q11 -2 48 -2q50 0 71 23t48 101q-172 440 -207 526h89l80 -221q38 -100 77 -217h5q25 80 76 223l76 215h85q-114 -294 -222 -578q-34 -88 -69 -114t-120 -26zM363 610v111h75v-111h-75zM180 610v111h75v-111h-75z" />
    <glyph glyph-name="Amacron" unicode="&#x100;" 
d="M29 0l228 685h99l226 -685h-84l-65 198h-256l-67 -198h-81zM196 267h216q-21 65 -58.5 186t-46.5 150h-5q-68 -220 -106 -336zM176 814v61h258v-61h-258z" />
    <glyph glyph-name="amacron" unicode="&#x101;" 
d="M251 -9q-86 0 -135.5 40t-49.5 111q0 75 53 107.5t173 55.5l89 17q26 6 34.5 13t8.5 29q0 48 -33.5 77t-90.5 29q-120 0 -137 -108l-79 7q8 72 68.5 118.5t147.5 46.5q98 0 151 -49.5t53 -147.5v-314q0 -18 1 -23h-74v38q0 6 0.5 19t0.5 20h-2q-57 -86 -179 -86zM267 50
q73 0 116 41.5t43 112.5v30q0 21 3 36q-11 -3 -49 -10l-93 -19q-78 -15 -107.5 -34t-29.5 -64t31 -69t86 -24zM176 641v61h259v-61h-259z" />
    <glyph glyph-name="Abreve" unicode="&#x102;" 
d="M29 0l228 685h99l226 -685h-84l-65 198h-256l-67 -198h-81zM196 267h216q-21 65 -58.5 186t-46.5 150h-5q-68 -220 -106 -336zM306 777q-119 0 -145 111l51 14q20 -66 94 -66q73 0 93 66l52 -14q-26 -111 -145 -111z" />
    <glyph glyph-name="abreve" unicode="&#x103;" 
d="M251 -9q-86 0 -135.5 40t-49.5 111q0 75 53 107.5t173 55.5l89 17q26 6 34.5 13t8.5 29q0 48 -33.5 77t-90.5 29q-120 0 -137 -108l-79 7q8 72 68.5 118.5t147.5 46.5q98 0 151 -49.5t53 -147.5v-314q0 -18 1 -23h-74v38q0 6 0.5 19t0.5 20h-2q-57 -86 -179 -86zM267 50
q73 0 116 41.5t43 112.5v30q0 21 3 36q-11 -3 -49 -10l-93 -19q-78 -15 -107.5 -34t-29.5 -64t31 -69t86 -24zM304 604q-58 0 -95 29t-50 83l52 14q19 -67 93 -67q75 0 94 67l51 -14q-13 -54 -50 -83t-95 -29z" />
    <glyph glyph-name="Aogonek" unicode="&#x104;" 
d="M540 -192q-46 0 -74 22t-28 60q0 57 70 110h-10l-65 198h-256l-67 -198h-81l228 685h99l226 -685q-82 -55 -82 -98q0 -41 49 -41q22 0 39 11l26 -48q-30 -16 -74 -16zM196 267h216q-21 65 -58.5 186t-46.5 150h-5q-68 -220 -106 -336z" />
    <glyph glyph-name="aogonek" unicode="&#x105;" 
d="M505 0q-82 -55 -82 -98q0 -41 49 -41q22 0 39 11l26 -48q-30 -16 -74 -16q-46 0 -74 22t-28 60q0 57 70 110v38q0 6 0.5 19t0.5 20h-2q-57 -86 -179 -86q-86 0 -135.5 40t-49.5 111q0 75 53 107.5t173 55.5l89 17q26 6 34.5 13t8.5 29q0 48 -33.5 77t-90.5 29
q-120 0 -137 -108l-79 7q8 72 68.5 118.5t147.5 46.5q98 0 151 -49.5t53 -147.5v-314q0 -18 1 -23zM267 50q73 0 116 41.5t43 112.5v30q0 21 3 36q-11 -3 -49 -10l-93 -19q-78 -15 -107.5 -34t-29.5 -64t31 -69t86 -24z" />
    <glyph glyph-name="Cacute" unicode="&#x106;" 
d="M322 -13q-267 0 -267 354q0 176 67.5 267t199.5 91q96 0 155.5 -51t80.5 -143l-76 -18q-19 71 -57.5 107.5t-104.5 36.5q-183 0 -183 -290q0 -143 44.5 -214.5t141.5 -71.5q123 0 161 142l74 -18q-46 -192 -236 -192zM266 773l92 129h106l-122 -129h-76z" />
    <glyph glyph-name="cacute" unicode="&#x107;" 
d="M317 -14q-112 0 -179 74.5t-67 200.5q0 124 68.5 199t180.5 75q86 0 144 -44.5t76 -119.5l-76 -19q-35 114 -145 114q-80 0 -122.5 -55t-42.5 -150q0 -98 42 -152t123 -54q111 0 147 114l74 -18q-21 -75 -80 -120t-143 -45zM256 601l92 129h106l-122 -129h-76z" />
    <glyph glyph-name="Ccircumflex" unicode="&#x108;" 
d="M322 -13q-267 0 -267 354q0 176 67.5 267t199.5 91q96 0 155.5 -51t80.5 -143l-76 -18q-19 71 -57.5 107.5t-104.5 36.5q-183 0 -183 -290q0 -143 44.5 -214.5t141.5 -71.5q123 0 161 142l74 -18q-46 -192 -236 -192zM171 773l101 129h96l101 -129h-73l-76 82l-76 -82
h-73z" />
    <glyph glyph-name="ccircumflex" unicode="&#x109;" 
d="M317 -14q-112 0 -179 74.5t-67 200.5q0 124 68.5 199t180.5 75q86 0 144 -44.5t76 -119.5l-76 -19q-35 114 -145 114q-80 0 -122.5 -55t-42.5 -150q0 -98 42 -152t123 -54q111 0 147 114l74 -18q-21 -75 -80 -120t-143 -45zM172 601l101 129h95l101 -129h-72l-77 82
l-76 -82h-72z" />
    <glyph glyph-name="Cdotaccent" unicode="&#x10a;" 
d="M322 -13q-267 0 -267 354q0 176 67.5 267t199.5 91q96 0 155.5 -51t80.5 -143l-76 -18q-19 71 -57.5 107.5t-104.5 36.5q-183 0 -183 -290q0 -143 44.5 -214.5t141.5 -71.5q123 0 161 142l74 -18q-46 -192 -236 -192zM283 782v111h77v-111h-77z" />
    <glyph glyph-name="cdotaccent" unicode="&#x10b;" 
d="M317 -14q-112 0 -179 74.5t-67 200.5q0 124 68.5 199t180.5 75q86 0 144 -44.5t76 -119.5l-76 -19q-35 114 -145 114q-80 0 -122.5 -55t-42.5 -150q0 -98 42 -152t123 -54q111 0 147 114l74 -18q-21 -75 -80 -120t-143 -45zM282 610v111h77v-111h-77z" />
    <glyph glyph-name="Ccaron" unicode="&#x10c;" 
d="M322 -13q-267 0 -267 354q0 176 67.5 267t199.5 91q96 0 155.5 -51t80.5 -143l-76 -18q-19 71 -57.5 107.5t-104.5 36.5q-183 0 -183 -290q0 -143 44.5 -214.5t141.5 -71.5q123 0 161 142l74 -18q-46 -192 -236 -192zM273 773l-101 129h72l76 -83l77 83h72l-101 -129h-95
z" />
    <glyph glyph-name="ccaron" unicode="&#x10d;" 
d="M317 -14q-112 0 -179 74.5t-67 200.5q0 124 68.5 199t180.5 75q86 0 144 -44.5t76 -119.5l-76 -19q-35 114 -145 114q-80 0 -122.5 -55t-42.5 -150q0 -98 42 -152t123 -54q111 0 147 114l74 -18q-21 -75 -80 -120t-143 -45zM273 601l-101 129h72l76 -83l77 83h72
l-101 -129h-95z" />
    <glyph glyph-name="Dcaron" unicode="&#x10e;" 
d="M78 0v685h192q159 0 228 -86t69 -252q0 -159 -70.5 -253t-225.5 -94h-193zM158 68h105q107 0 163.5 64t56.5 212q0 145 -55.5 209t-180.5 64h-89v-549zM233 773l-101 129h72l76 -83l77 83h72l-101 -129h-95z" />
    <glyph glyph-name="dcaron" unicode="&#x10f;" 
d="M220 -12q-96 0 -149 72.5t-53 199.5q0 125 53.5 199.5t150.5 74.5q55 0 94 -28.5t59 -71.5h1q-1 27 -1 78v218h79v-649q0 -62 1 -81h-76v32q0 39 1 56h-1q-48 -100 -159 -100zM233 55q73 0 109 54.5t36 151.5q0 94 -36 148.5t-108 54.5q-68 0 -104.5 -55.5t-36.5 -148.5
q0 -97 35.5 -151t104.5 -54zM484 561l38 169h86l-62 -169h-62z" />
    <glyph glyph-name="Dcroat" unicode="&#x110;" 
d="M78 0v315h-53v65h53v305h192q159 0 228 -86t69 -252q0 -159 -70.5 -253t-225.5 -94h-193zM158 68h105q107 0 163.5 64t56.5 212q0 145 -55.5 209t-180.5 64h-89v-237h171v-65h-171v-247z" />
    <glyph glyph-name="dslash" unicode="&#x111;" 
d="M288 -12q-102 0 -166.5 74t-64.5 198q0 122 64.5 198t166.5 76q62 0 107 -28.5t67 -71.5h1q-1 29 -1 84v69h-153v60h153v83h79v-83h37v-60h-37v-506q0 -62 1 -81h-76v32q0 22 2 56h-1q-57 -100 -179 -100zM300 55q79 0 122.5 56t43.5 150q0 91 -43.5 147t-122.5 56
q-74 0 -117.5 -56.5t-43.5 -147.5q0 -94 43 -149.5t118 -55.5z" />
    <glyph glyph-name="Emacron" unicode="&#x112;" 
d="M102 0v685h410v-69h-332v-227h311v-69h-311v-251h339v-69h-417zM174 814v61h258v-61h-258z" />
    <glyph glyph-name="emacron" unicode="&#x113;" 
d="M315 -13q-117 0 -184.5 74t-67.5 198q0 120 67.5 198t181.5 78q82 0 137.5 -42.5t78.5 -106t23 -143.5h-409q2 -88 50 -138t124 -50q110 0 164 101l67 -27q-29 -64 -89.5 -103t-142.5 -39zM144 305h326q-6 73 -47.5 118.5t-111.5 45.5q-71 0 -115.5 -44.5t-51.5 -119.5z
M183 641v61h259v-61h-259z" />
    <glyph glyph-name="Ebreve" unicode="&#x114;" 
d="M102 0v685h410v-69h-332v-227h311v-69h-311v-251h339v-69h-417zM306 777q-119 0 -145 111l51 14q20 -66 94 -66q73 0 93 66l52 -14q-26 -111 -145 -111z" />
    <glyph glyph-name="ebreve" unicode="&#x115;" 
d="M315 -13q-117 0 -184.5 74t-67.5 198q0 120 67.5 198t181.5 78q82 0 137.5 -42.5t78.5 -106t23 -143.5h-409q2 -88 50 -138t124 -50q110 0 164 101l67 -27q-29 -64 -89.5 -103t-142.5 -39zM144 305h326q-6 73 -47.5 118.5t-111.5 45.5q-71 0 -115.5 -44.5t-51.5 -119.5z
M314 604q-58 0 -95 29t-50 83l52 14q19 -67 93 -67q75 0 94 67l51 -14q-13 -54 -50 -83t-95 -29z" />
    <glyph glyph-name="Edotaccent" unicode="&#x116;" 
d="M102 0v685h410v-69h-332v-227h311v-69h-311v-251h339v-69h-417zM268 782v111h77v-111h-77z" />
    <glyph glyph-name="edotaccent" unicode="&#x117;" 
d="M315 -13q-117 0 -184.5 74t-67.5 198q0 120 67.5 198t181.5 78q82 0 137.5 -42.5t78.5 -106t23 -143.5h-409q2 -88 50 -138t124 -50q110 0 164 101l67 -27q-29 -64 -89.5 -103t-142.5 -39zM144 305h326q-6 73 -47.5 118.5t-111.5 45.5q-71 0 -115.5 -44.5t-51.5 -119.5z
M275 610v111h77v-111h-77z" />
    <glyph glyph-name="Eogonek" unicode="&#x118;" 
d="M102 0v685h410v-69h-332v-227h311v-69h-311v-251h339v-69q-82 -55 -82 -98q0 -41 49 -41q22 0 39 11l26 -48q-30 -16 -74 -16q-46 0 -74 22t-28 60q0 57 70 110h-343z" />
    <glyph glyph-name="eogonek" unicode="&#x119;" 
d="M358 -192q-46 0 -74 22t-28 60q0 54 53 97q-114 2 -180 76t-66 196q0 120 67.5 198t181.5 78q82 0 137.5 -42.5t78.5 -106t23 -143.5h-409q2 -88 50 -138t124 -50q110 0 164 101l67 -27q-44 -98 -148 -129q-81 -55 -81 -98q0 -41 49 -41q22 0 39 11l26 -48
q-30 -16 -74 -16zM144 305h326q-6 73 -47.5 118.5t-111.5 45.5q-71 0 -115.5 -44.5t-51.5 -119.5z" />
    <glyph glyph-name="Ecaron" unicode="&#x11a;" 
d="M102 0v685h410v-69h-332v-227h311v-69h-311v-251h339v-69h-417zM263 773l-101 129h72l76 -83l77 83h72l-101 -129h-95z" />
    <glyph glyph-name="ecaron" unicode="&#x11b;" 
d="M315 -13q-117 0 -184.5 74t-67.5 198q0 120 67.5 198t181.5 78q82 0 137.5 -42.5t78.5 -106t23 -143.5h-409q2 -88 50 -138t124 -50q110 0 164 101l67 -27q-29 -64 -89.5 -103t-142.5 -39zM144 305h326q-6 73 -47.5 118.5t-111.5 45.5q-71 0 -115.5 -44.5t-51.5 -119.5z
M265 601l-101 129h72l76 -83l77 83h72l-101 -129h-95z" />
    <glyph glyph-name="Gcircumflex" unicode="&#x11c;" 
d="M309 -13q-128 0 -194.5 89.5t-66.5 262.5q0 177 68 268.5t200 91.5q97 0 157.5 -51.5t79.5 -141.5l-75 -18q-41 143 -162 143q-186 0 -186 -290q0 -144 45.5 -215.5t144.5 -71.5q165 0 165 236h-200v69h271v-359h-72v36q0 9 0.5 26t0.5 22h-3q-49 -97 -173 -97zM172 773
l101 129h96l101 -129h-73l-76 82l-76 -82h-73z" />
    <glyph glyph-name="gcircumflex" unicode="&#x11d;" 
d="M299 -193q-89 0 -148.5 40t-81.5 107l74 26q39 -105 158 -105q84 0 122 48t39 145q0 10 2 31t2 23h-4q-21 -47 -68 -77.5t-109 -30.5q-101 0 -164 72.5t-63 185.5q0 116 65 189t166 73q121 0 173 -100h3q-2 15 -2 59v33h77q-1 -37 -1 -92v-375q0 -120 -63 -186t-177 -66z
M299 83q73 0 119.5 53.5t46.5 139.5q0 83 -45 136t-120 53q-73 0 -116.5 -53.5t-43.5 -137.5t43 -137.5t116 -53.5zM151 601l101 129h95l101 -129h-72l-77 82l-76 -82h-72z" />
    <glyph glyph-name="Gbreve" unicode="&#x11e;" 
d="M309 -13q-128 0 -194.5 89.5t-66.5 262.5q0 177 68 268.5t200 91.5q97 0 157.5 -51.5t79.5 -141.5l-75 -18q-41 143 -162 143q-186 0 -186 -290q0 -144 45.5 -215.5t144.5 -71.5q165 0 165 236h-200v69h271v-359h-72v36q0 9 0.5 26t0.5 22h-3q-49 -97 -173 -97zM319 777
q-119 0 -145 111l51 14q20 -66 94 -66q73 0 93 66l52 -14q-26 -111 -145 -111z" />
    <glyph glyph-name="gbreve" unicode="&#x11f;" 
d="M299 -193q-89 0 -148.5 40t-81.5 107l74 26q39 -105 158 -105q84 0 122 48t39 145q0 10 2 31t2 23h-4q-21 -47 -68 -77.5t-109 -30.5q-101 0 -164 72.5t-63 185.5q0 116 65 189t166 73q121 0 173 -100h3q-2 15 -2 59v33h77q-1 -37 -1 -92v-375q0 -120 -63 -186t-177 -66z
M299 83q73 0 119.5 53.5t46.5 139.5q0 83 -45 136t-120 53q-73 0 -116.5 -53.5t-43.5 -137.5t43 -137.5t116 -53.5zM308 604q-58 0 -95 29t-50 83l52 14q19 -67 93 -67q75 0 94 67l51 -14q-13 -54 -50 -83t-95 -29z" />
    <glyph glyph-name="Gdotaccent" unicode="&#x120;" 
d="M309 -13q-128 0 -194.5 89.5t-66.5 262.5q0 177 68 268.5t200 91.5q97 0 157.5 -51.5t79.5 -141.5l-75 -18q-41 143 -162 143q-186 0 -186 -290q0 -144 45.5 -215.5t144.5 -71.5q165 0 165 236h-200v69h271v-359h-72v36q0 9 0.5 26t0.5 22h-3q-49 -97 -173 -97zM281 782
v111h77v-111h-77z" />
    <glyph glyph-name="gdotaccent" unicode="&#x121;" 
d="M299 -193q-89 0 -148.5 40t-81.5 107l74 26q39 -105 158 -105q84 0 122 48t39 145q0 10 2 31t2 23h-4q-21 -47 -68 -77.5t-109 -30.5q-101 0 -164 72.5t-63 185.5q0 116 65 189t166 73q121 0 173 -100h3q-2 15 -2 59v33h77q-1 -37 -1 -92v-375q0 -120 -63 -186t-177 -66z
M299 83q73 0 119.5 53.5t46.5 139.5q0 83 -45 136t-120 53q-73 0 -116.5 -53.5t-43.5 -137.5t43 -137.5t116 -53.5zM256 610v111h77v-111h-77z" />
    <glyph glyph-name="uni0122" unicode="&#x122;" 
d="M309 -13q-128 0 -194.5 89.5t-66.5 262.5q0 177 68 268.5t200 91.5q97 0 157.5 -51.5t79.5 -141.5l-75 -18q-41 143 -162 143q-186 0 -186 -290q0 -144 45.5 -215.5t144.5 -71.5q165 0 165 236h-200v69h271v-359h-72v36q0 9 0.5 26t0.5 22h-3q-49 -97 -173 -97zM275 -213
v35q22 2 30 9.5t8 31.5h-38v88h83v-67q0 -49 -15.5 -72t-67.5 -25z" />
    <glyph glyph-name="uni0123" unicode="&#x123;" 
d="M299 -193q-89 0 -148.5 40t-81.5 107l74 26q39 -105 158 -105q84 0 122 48t39 145q0 10 2 31t2 23h-4q-21 -47 -68 -77.5t-109 -30.5q-101 0 -164 72.5t-63 185.5q0 116 65 189t166 73q121 0 173 -100h3q-2 15 -2 59v33h77q-1 -37 -1 -92v-375q0 -120 -63 -186t-177 -66z
M299 83q73 0 119.5 53.5t46.5 139.5q0 83 -45 136t-120 53q-73 0 -116.5 -53.5t-43.5 -137.5t43 -137.5t116 -53.5zM252 603v67q0 49 15.5 72t67.5 25v-35q-22 -2 -30 -9.5t-8 -31.5h38v-88h-83z" />
    <glyph glyph-name="Hcircumflex" unicode="&#x124;" 
d="M78 0v685h80v-297h295v297h81v-685h-81v319h-295v-319h-80zM158 773l101 129h96l101 -129h-73l-76 82l-76 -82h-73z" />
    <glyph glyph-name="hcircumflex" unicode="&#x125;" 
d="M94 0v730h79v-155q0 -80 -2 -138h2q21 42 62.5 70t101.5 28q86 0 134.5 -53.5t48.5 -155.5v-326h-79v275q0 98 -29 144t-95 46q-71 0 -107.5 -49t-36.5 -138v-278h-79zM172 773l101 129h96l101 -129h-73l-76 82l-76 -82h-73z" />
    <glyph glyph-name="Hbar" unicode="&#x126;" 
d="M71 0v685h81v-97h306v97h82v-685h-82v319h-306v-319h-81zM152 388h306v141h-306v-141z" />
    <glyph glyph-name="hbar" unicode="&#x127;" 
d="M94 0v587h-37v60h37v83h78v-83h154v-60h-154v-70q0 -48 -1 -77h2q52 95 164 95q86 0 134.5 -53.5t48.5 -155.5v-326h-79v275q0 98 -29.5 144t-94.5 46q-71 0 -107.5 -49t-36.5 -138v-278h-79z" />
    <glyph glyph-name="Itilde" unicode="&#x128;" 
d="M90 0v63h175v558h-175v64h431v-64h-176v-558h176v-63h-431zM196 786l-49 7q19 99 90 99q25 0 67 -18l21 -10q30 -14 49 -14q29 0 42 45l49 -7q-15 -99 -90 -99q-25 0 -62 16l-24 10q-40 16 -52 16q-28 0 -41 -45z" />
    <glyph glyph-name="itilde" unicode="&#x129;" 
d="M196 615l-49 7q19 99 90 99q25 0 67 -18l21 -10q30 -14 49 -14q29 0 42 45l49 -7q-15 -99 -90 -99q-25 0 -62 16l-24 10q-40 16 -52 16q-28 0 -41 -45zM89 0v65h196v395h-196v66h275v-461h181v-65h-456z" />
    <glyph glyph-name="Imacron" unicode="&#x12a;" 
d="M90 0v63h175v558h-175v64h431v-64h-176v-558h176v-63h-431zM177 814v61h258v-61h-258z" />
    <glyph glyph-name="imacron" unicode="&#x12b;" 
d="M190 641v61h259v-61h-259zM89 0v65h196v395h-196v66h275v-461h181v-65h-456z" />
    <glyph glyph-name="Ibreve" unicode="&#x12c;" 
d="M90 0v63h175v558h-175v64h431v-64h-176v-558h176v-63h-431zM306 777q-119 0 -145 111l51 14q20 -66 94 -66q73 0 93 66l52 -14q-26 -111 -145 -111z" />
    <glyph glyph-name="ibreve" unicode="&#x12d;" 
d="M316 604q-58 0 -95 29t-50 83l52 14q19 -67 93 -67q75 0 94 67l51 -14q-13 -54 -50 -83t-95 -29zM89 0v65h196v395h-196v66h275v-461h181v-65h-456z" />
    <glyph glyph-name="Iogonek" unicode="&#x12e;" 
d="M90 0v63h175v558h-175v64h431v-64h-176v-558h176v-63h-181q-82 -55 -82 -98q0 -41 49 -41q22 0 39 11l26 -48q-30 -16 -74 -16q-46 0 -74 22t-28 60q0 57 70 110h-176z" />
    <glyph glyph-name="iogonek" unicode="&#x12f;" 
d="M89 0v65h195v395h-195v66h274v-461h182v-65h-184q-82 -55 -82 -98q0 -41 49 -41q22 0 39 11l26 -48q-30 -16 -74 -16q-46 0 -74 22t-28 60q0 57 70 110h-198zM272 621v109h96v-109h-96z" />
    <glyph glyph-name="Idot" unicode="&#x130;" 
d="M90 0v63h175v558h-175v64h431v-64h-176v-558h176v-63h-431zM268 782v111h77v-111h-77z" />
    <glyph glyph-name="dotlessi" unicode="&#x131;" 
d="M89 0v65h196v395h-196v66h275v-461h181v-65h-456z" />
    <glyph glyph-name="IJ" unicode="&#x132;" 
d="M242 0v69h146q43 0 54.5 14.5t11.5 66.5v535h80v-540q0 -85 -31.5 -115t-118.5 -30h-142zM78 0v685h81v-685h-81z" />
    <glyph glyph-name="ij" unicode="&#x133;" 
d="M286 -188v66h88q42 0 53.5 14.5t11.5 66.5v501h-156v66h235v-569q0 -86 -31 -115.5t-118 -29.5h-83zM98 0v526h79v-526h-79zM94 622v108h88v-108h-88zM430 622v108h91v-108h-91z" />
    <glyph glyph-name="Jcircumflex" unicode="&#x134;" 
d="M279 -13q-83 0 -132 45.5t-59 127.5l78 12q6 -54 33 -86t78 -32q59 0 84.5 39t25.5 114v478h80v-487q0 -94 -46 -152.5t-142 -58.5zM281 773l101 129h96l101 -129h-73l-76 82l-76 -82h-73z" />
    <glyph glyph-name="jcircumflex" unicode="&#x135;" 
d="M100 -188v66h186q44 0 55.5 14.5t11.5 66.5v501h-256v66h334v-569q0 -86 -31 -115.5t-118 -29.5h-182zM232 601l101 129h95l101 -129h-72l-77 82l-76 -82h-72z" />
    <glyph glyph-name="uni0136" unicode="&#x136;" 
d="M104 0v685h80v-129q0 -42 -0.5 -116.5t-0.5 -96.5h2q16 18 111 131l188 211h99l-278 -308l289 -377h-99l-246 319l-65 -73v-246h-80zM292 -213v35q22 2 30 9.5t8 31.5h-38v88h83v-67q0 -49 -15.5 -72t-67.5 -25z" />
    <glyph glyph-name="uni0137" unicode="&#x137;" 
d="M122 0v730h79v-285q0 -28 -0.5 -85.5t-0.5 -90.5h2q12 13 41 43t51 54l157 160h102l-229 -229l246 -297h-103l-200 246l-66 -64v-182h-79zM283 -213v35q22 2 30 9.5t8 31.5h-38v88h83v-67q0 -49 -15.5 -72t-67.5 -25z" />
    <glyph glyph-name="kgreenlandic" unicode="&#x138;" 
d="M122 0v527h79v-126q0 -21 -0.5 -63t-0.5 -69h2q12 13 41 43t51 54l157 160h102l-229 -229l246 -297h-103l-200 246l-66 -64v-182h-79z" />
    <glyph glyph-name="Lacute" unicode="&#x139;" 
d="M109 0v685h79v-616h324v-69h-403zM116 773l92 129h106l-122 -129h-76z" />
    <glyph glyph-name="lacute" unicode="&#x13a;" 
d="M78 0v65h194v600h-194v65h273v-665h183v-65h-456zM242 773l92 129h106l-122 -129h-76z" />
    <glyph glyph-name="uni013B" unicode="&#x13b;" 
d="M109 0v685h79v-616h324v-69h-403zM283 -213v35q22 2 30 9.5t8 31.5h-38v88h83v-67q0 -49 -15.5 -72t-67.5 -25z" />
    <glyph glyph-name="uni013C" unicode="&#x13c;" 
d="M78 0v65h194v600h-194v65h273v-665h183v-65h-456zM270 -213v35q22 2 30 9.5t8 31.5h-38v88h83v-67q0 -49 -15.5 -72t-67.5 -25z" />
    <glyph glyph-name="Lcaron" unicode="&#x13d;" 
d="M109 0v685h79v-616h324v-69h-403zM303 516l38 169h86l-62 -169h-62z" />
    <glyph glyph-name="lcaron" unicode="&#x13e;" 
d="M78 0v65h194v600h-194v65h273v-665h183v-65h-456zM423 561l38 169h86l-62 -169h-62z" />
    <glyph glyph-name="Ldot" unicode="&#x13f;" 
d="M109 0v685h79v-616h324v-69h-403zM414 316v111h77v-111h-77z" />
    <glyph glyph-name="ldot" unicode="&#x140;" 
d="M78 0v65h194v600h-194v65h273v-665h183v-65h-456zM535 318v111h77v-111h-77z" />
    <glyph glyph-name="Lslash" unicode="&#x141;" 
d="M109 0v288l-83 -38v68l83 38v329h78v-297l173 80v-69l-173 -80v-250h325v-69h-403z" />
    <glyph glyph-name="lslash" unicode="&#x142;" 
d="M78 0v65h194v253l-113 -50v63l113 50v284h-194v65h273v-320l121 54v-63l-121 -54v-282h183v-65h-456z" />
    <glyph glyph-name="Nacute" unicode="&#x143;" 
d="M74 0v685h107l185 -385q71 -151 94 -202h4q-2 130 -2 208v379h76v-685h-106l-154 320q-31 64 -128 273h-4q0 -31 2 -120.5t2 -124.5v-348h-76zM244 773l92 129h106l-122 -129h-76z" />
    <glyph glyph-name="nacute" unicode="&#x144;" 
d="M94 0v429q0 12 -0.5 47.5t-0.5 49.5h77v-38q0 -28 -1 -55h2q19 42 62 72t106 30q86 0 134 -53.5t48 -155.5v-326h-79v276q0 98 -29.5 144t-95.5 46q-70 0 -107 -49t-37 -138v-279h-79zM246 601l92 129h106l-122 -129h-76z" />
    <glyph glyph-name="uni0145" unicode="&#x145;" 
d="M74 0v685h107l185 -385q71 -151 94 -202h4q-2 130 -2 208v379h76v-685h-106l-154 320q-31 64 -128 273h-4q0 -31 2 -120.5t2 -124.5v-348h-76zM273 -213v35q22 2 30 9.5t8 31.5h-38v88h83v-67q0 -49 -15.5 -72t-67.5 -25z" />
    <glyph glyph-name="uni0146" unicode="&#x146;" 
d="M94 0v429q0 12 -0.5 47.5t-0.5 49.5h77v-38q0 -28 -1 -55h2q19 42 62 72t106 30q86 0 134 -53.5t48 -155.5v-326h-79v276q0 98 -29.5 144t-95.5 46q-70 0 -107 -49t-37 -138v-279h-79zM267 -213v35q22 2 30 9.5t8 31.5h-38v88h83v-67q0 -49 -15.5 -72t-67.5 -25z" />
    <glyph glyph-name="Ncaron" unicode="&#x147;" 
d="M74 0v685h107l185 -385q71 -151 94 -202h4q-2 130 -2 208v379h76v-685h-106l-154 320q-31 64 -128 273h-4q0 -31 2 -120.5t2 -124.5v-348h-76zM261 773l-101 129h72l76 -83l77 83h72l-101 -129h-95z" />
    <glyph glyph-name="ncaron" unicode="&#x148;" 
d="M94 0v429q0 12 -0.5 47.5t-0.5 49.5h77v-38q0 -28 -1 -55h2q19 42 62 72t106 30q86 0 134 -53.5t48 -155.5v-326h-79v276q0 98 -29.5 144t-95.5 46q-70 0 -107 -49t-37 -138v-279h-79zM271 601l-101 129h72l76 -83l77 83h72l-101 -129h-95z" />
    <glyph glyph-name="napostrophe" unicode="&#x149;" 
d="M94 0v429q0 12 -0.5 47.5t-0.5 49.5h77v-38q0 -28 -1 -55h2q19 42 62 72t106 30q86 0 134 -53.5t48 -155.5v-326h-79v276q0 98 -29.5 144t-95.5 46q-70 0 -107 -49t-37 -138v-279h-79zM74 566v35q22 2 30 9.5t8 31.5h-38v88h83v-67q0 -49 -15.5 -72t-67.5 -25z" />
    <glyph glyph-name="Eng" unicode="&#x14a;" 
d="M389 -193q-71 0 -107.5 37t-40.5 102l76 12q3 -36 19.5 -60.5t52.5 -24.5q43 0 62 32t19 95h-28q-13 25 -74 142t-86.5 167t-67.5 135t-71 149h-4q0 -32 1 -116t1 -118v-359h-78v685h108l202 -390q23 -45 96 -195h5q-3 192 -3 201v384h77v-676q0 -44 -6.5 -77.5t-23 -63
t-49 -45.5t-80.5 -16z" />
    <glyph glyph-name="eng" unicode="&#x14b;" 
d="M252 -188v66h124q46 0 56 18.5t10 89.5v290q0 98 -29.5 144t-95.5 46q-70 0 -107 -49t-37 -138v-279h-79v429q0 12 -0.5 47.5t-0.5 49.5h77v-38q0 -28 -1 -55h2q19 42 62 72t106 30q86 0 134 -53.5t48 -155.5v-369q0 -86 -31 -115.5t-118 -29.5h-120z" />
    <glyph glyph-name="Omacron" unicode="&#x14c;" 
d="M305 -13q-130 0 -196 90.5t-66 263.5t66.5 265.5t195.5 92.5q130 0 196.5 -91.5t66.5 -266.5q0 -172 -66.5 -263t-196.5 -91zM305 55q94 0 137.5 71.5t43.5 215.5q0 289 -181 289q-93 0 -136.5 -72.5t-43.5 -216.5q0 -287 180 -287zM179 814v61h258v-61h-258z" />
    <glyph glyph-name="omacron" unicode="&#x14d;" 
d="M305 -14q-115 0 -182 75t-67 198q0 124 67 200t183 76q115 0 182 -76.5t67 -199.5t-68 -198t-182 -75zM305 54q80 0 123.5 54t43.5 151q0 99 -43 153.5t-123 54.5t-123.5 -54.5t-43.5 -153.5t42.5 -152t123.5 -53zM178 641v61h259v-61h-259z" />
    <glyph glyph-name="Obreve" unicode="&#x14e;" 
d="M305 -13q-130 0 -196 90.5t-66 263.5t66.5 265.5t195.5 92.5q130 0 196.5 -91.5t66.5 -266.5q0 -172 -66.5 -263t-196.5 -91zM305 55q94 0 137.5 71.5t43.5 215.5q0 289 -181 289q-93 0 -136.5 -72.5t-43.5 -216.5q0 -287 180 -287zM308 777q-119 0 -145 111l51 14
q20 -66 94 -66q73 0 93 66l52 -14q-26 -111 -145 -111z" />
    <glyph glyph-name="obreve" unicode="&#x14f;" 
d="M305 -14q-115 0 -182 75t-67 198q0 124 67 200t183 76q115 0 182 -76.5t67 -199.5t-68 -198t-182 -75zM305 54q80 0 123.5 54t43.5 151q0 99 -43 153.5t-123 54.5t-123.5 -54.5t-43.5 -153.5t42.5 -152t123.5 -53zM308 604q-58 0 -95 29t-50 83l52 14q19 -67 93 -67
q75 0 94 67l51 -14q-13 -54 -50 -83t-95 -29z" />
    <glyph glyph-name="Ohungarumlaut" unicode="&#x150;" 
d="M305 -13q-130 0 -196 90.5t-66 263.5t66.5 265.5t195.5 92.5q130 0 196.5 -91.5t66.5 -266.5q0 -172 -66.5 -263t-196.5 -91zM305 55q94 0 137.5 71.5t43.5 215.5q0 289 -181 289q-93 0 -136.5 -72.5t-43.5 -216.5q0 -287 180 -287zM404 773h-71l92 129h101zM163 773
l90 129h102l-121 -129h-71z" />
    <glyph glyph-name="ohungarumlaut" unicode="&#x151;" 
d="M305 -14q-115 0 -182 75t-67 198q0 124 67 200t183 76q115 0 182 -76.5t67 -199.5t-68 -198t-182 -75zM305 54q80 0 123.5 54t43.5 151q0 99 -43 153.5t-123 54.5t-123.5 -54.5t-43.5 -153.5t42.5 -152t123.5 -53zM338 601l93 129h100l-122 -129h-71zM169 601l90 129h101
l-120 -129h-71z" />
    <glyph glyph-name="OE" unicode="&#x152;" 
d="M230 -1q-193 0 -193 345q0 164 48 253t145 89q45 0 83 -23v22h271v-69h-197v-227h176v-69h-176v-251h200v-69h-274v21q-37 -22 -83 -22zM241 64q47 0 70 31v495q-23 31 -72 31q-64 0 -92 -69t-28 -208q0 -144 29.5 -212t92.5 -68z" />
    <glyph glyph-name="oe" unicode="&#x153;" 
d="M184 -10q-78 0 -119.5 70t-41.5 203q0 131 41.5 201.5t119.5 70.5q80 0 119 -87h5q17 41 50 64t74 23q154 0 154 -233v-59h-248q0 -193 96 -193q34 0 53.5 25t31.5 72l65 -15q-37 -142 -150 -142q-95 0 -128 88h-4q-42 -88 -118 -88zM183 50q41 0 61.5 56t20.5 153
q0 98 -20 155t-61 57q-81 0 -81 -212q0 -209 80 -209zM338 307h171q-2 92 -22 128.5t-59 36.5q-37 0 -61.5 -45t-28.5 -120z" />
    <glyph glyph-name="Racute" unicode="&#x154;" 
d="M78 0v685h231q222 0 222 -181q0 -137 -125 -172v-2q46 -15 70.5 -51t31.5 -103l5 -53q12 -99 29 -118v-5h-86q-4 6 -6.5 14.5t-3.5 16t-3 24.5t-4 30l-8 66q-10 81 -41.5 114t-110.5 33h-123v-298h-78zM156 365h137q159 0 159 133q0 61 -36 90t-116 29h-144v-252z
M219 773l92 129h106l-122 -129h-76z" />
    <glyph glyph-name="racute" unicode="&#x155;" 
d="M36 0v65h195v395h-195v66h266v-115h4q18 62 61 88.5t119 26.5h98v-74h-97q-41 0 -71 -7t-49.5 -23.5t-31 -34.5t-17 -50.5t-7 -60t-1.5 -72.5v-139h202v-65h-476zM249 601l92 129h106l-122 -129h-76z" />
    <glyph glyph-name="uni0156" unicode="&#x156;" 
d="M78 0v685h231q222 0 222 -181q0 -137 -125 -172v-2q46 -15 70.5 -51t31.5 -103l5 -53q12 -99 29 -118v-5h-86q-4 6 -6.5 14.5t-3.5 16t-3 24.5t-4 30l-8 66q-10 81 -41.5 114t-110.5 33h-123v-298h-78zM156 365h137q159 0 159 133q0 61 -36 90t-116 29h-144v-252z
M266 -213v35q22 2 30 9.5t8 31.5h-38v88h83v-67q0 -49 -15.5 -72t-67.5 -25z" />
    <glyph glyph-name="uni0157" unicode="&#x157;" 
d="M36 0v65h195v395h-195v66h266v-115h4q18 62 61 88.5t119 26.5h98v-74h-97q-41 0 -71 -7t-49.5 -23.5t-31 -34.5t-17 -50.5t-7 -60t-1.5 -72.5v-139h202v-65h-476zM229 -213v35q22 2 30 9.5t8 31.5h-38v88h83v-67q0 -49 -15.5 -72t-67.5 -25z" />
    <glyph glyph-name="Rcaron" unicode="&#x158;" 
d="M78 0v685h231q222 0 222 -181q0 -137 -125 -172v-2q46 -15 70.5 -51t31.5 -103l5 -53q12 -99 29 -118v-5h-86q-4 6 -6.5 14.5t-3.5 16t-3 24.5t-4 30l-8 66q-10 81 -41.5 114t-110.5 33h-123v-298h-78zM156 365h137q159 0 159 133q0 61 -36 90t-116 29h-144v-252z
M240 773l-101 129h72l76 -83l77 83h72l-101 -129h-95z" />
    <glyph glyph-name="rcaron" unicode="&#x159;" 
d="M36 0v65h195v395h-195v66h266v-115h4q18 62 61 88.5t119 26.5h98v-74h-97q-41 0 -71 -7t-49.5 -23.5t-31 -34.5t-17 -50.5t-7 -60t-1.5 -72.5v-139h202v-65h-476zM288 601l-101 129h72l76 -83l77 83h72l-101 -129h-95z" />
    <glyph glyph-name="Sacute" unicode="&#x15a;" 
d="M297 -13q-189 0 -251 153l69 32q58 -117 183 -117q73 0 115.5 34t42.5 93q0 49 -32 75t-100 46l-69 19q-97 27 -140 69.5t-43 118.5q0 87 62.5 138t166.5 51q171 0 228 -136l-66 -34q-52 102 -163 102q-68 0 -107 -30.5t-39 -85.5q0 -49 31 -74.5t103 -46.5l76 -22
q90 -25 132.5 -66.5t42.5 -117.5q0 -92 -67.5 -146.5t-174.5 -54.5zM262 773l92 129h106l-122 -129h-76z" />
    <glyph glyph-name="sacute" unicode="&#x15b;" 
d="M308 -15q-179 0 -227 138l68 31q43 -102 162 -102q58 0 91.5 22t33.5 63q0 36 -27.5 53t-91.5 34l-46 12q-43 12 -67 21t-50 25.5t-37.5 41.5t-11.5 60q0 70 56 110.5t145 40.5q79 0 131.5 -32t73.5 -89l-67 -30q-33 84 -140 84q-56 0 -86.5 -20.5t-30.5 -58.5
q0 -35 27.5 -52.5t92.5 -33.5l48 -12q40 -11 65 -20t49.5 -25.5t36 -41t11.5 -58.5q0 -75 -57.5 -118t-151.5 -43zM250 601l92 129h106l-122 -129h-76z" />
    <glyph glyph-name="Scircumflex" unicode="&#x15c;" 
d="M297 -13q-189 0 -251 153l69 32q58 -117 183 -117q73 0 115.5 34t42.5 93q0 49 -32 75t-100 46l-69 19q-97 27 -140 69.5t-43 118.5q0 87 62.5 138t166.5 51q171 0 228 -136l-66 -34q-52 102 -163 102q-68 0 -107 -30.5t-39 -85.5q0 -49 31 -74.5t103 -46.5l76 -22
q90 -25 132.5 -66.5t42.5 -117.5q0 -92 -67.5 -146.5t-174.5 -54.5zM159 773l101 129h96l101 -129h-73l-76 82l-76 -82h-73z" />
    <glyph glyph-name="scircumflex" unicode="&#x15d;" 
d="M308 -15q-179 0 -227 138l68 31q43 -102 162 -102q58 0 91.5 22t33.5 63q0 36 -27.5 53t-91.5 34l-46 12q-43 12 -67 21t-50 25.5t-37.5 41.5t-11.5 60q0 70 56 110.5t145 40.5q79 0 131.5 -32t73.5 -89l-67 -30q-33 84 -140 84q-56 0 -86.5 -20.5t-30.5 -58.5
q0 -35 27.5 -52.5t92.5 -33.5l48 -12q40 -11 65 -20t49.5 -25.5t36 -41t11.5 -58.5q0 -75 -57.5 -118t-151.5 -43zM161 601l101 129h95l101 -129h-72l-77 82l-76 -82h-72z" />
    <glyph glyph-name="Scedilla" unicode="&#x15e;" 
d="M297 -13q-189 0 -251 153l69 32q58 -117 183 -117q73 0 115.5 34t42.5 93q0 49 -32 75t-100 46l-69 19q-97 27 -140 69.5t-43 118.5q0 87 62.5 138t166.5 51q171 0 228 -136l-66 -34q-52 102 -163 102q-68 0 -107 -30.5t-39 -85.5q0 -49 31 -74.5t103 -46.5l76 -22
q90 -25 132.5 -66.5t42.5 -117.5q0 -92 -67.5 -146.5t-174.5 -54.5zM176 -178l96 129h73l-77 -129h-92z" />
    <glyph glyph-name="scedilla" unicode="&#x15f;" 
d="M308 -15q-179 0 -227 138l68 31q43 -102 162 -102q58 0 91.5 22t33.5 63q0 36 -27.5 53t-91.5 34l-46 12q-43 12 -67 21t-50 25.5t-37.5 41.5t-11.5 60q0 70 56 110.5t145 40.5q79 0 131.5 -32t73.5 -89l-67 -30q-33 84 -140 84q-56 0 -86.5 -20.5t-30.5 -58.5
q0 -35 27.5 -52.5t92.5 -33.5l48 -12q40 -11 65 -20t49.5 -25.5t36 -41t11.5 -58.5q0 -75 -57.5 -118t-151.5 -43zM189 -178l96 129h73l-77 -129h-92z" />
    <glyph glyph-name="Scaron" unicode="&#x160;" 
d="M297 -13q-189 0 -251 153l69 32q58 -117 183 -117q73 0 115.5 34t42.5 93q0 49 -32 75t-100 46l-69 19q-97 27 -140 69.5t-43 118.5q0 87 62.5 138t166.5 51q171 0 228 -136l-66 -34q-52 102 -163 102q-68 0 -107 -30.5t-39 -85.5q0 -49 31 -74.5t103 -46.5l76 -22
q90 -25 132.5 -66.5t42.5 -117.5q0 -92 -67.5 -146.5t-174.5 -54.5zM254 773l-101 129h72l76 -83l77 83h72l-101 -129h-95z" />
    <glyph glyph-name="scaron" unicode="&#x161;" 
d="M308 -15q-179 0 -227 138l68 31q43 -102 162 -102q58 0 91.5 22t33.5 63q0 36 -27.5 53t-91.5 34l-46 12q-43 12 -67 21t-50 25.5t-37.5 41.5t-11.5 60q0 70 56 110.5t145 40.5q79 0 131.5 -32t73.5 -89l-67 -30q-33 84 -140 84q-56 0 -86.5 -20.5t-30.5 -58.5
q0 -35 27.5 -52.5t92.5 -33.5l48 -12q40 -11 65 -20t49.5 -25.5t36 -41t11.5 -58.5q0 -75 -57.5 -118t-151.5 -43zM258 601l-101 129h72l76 -83l77 83h72l-101 -129h-95z" />
    <glyph glyph-name="uni0162" unicode="&#x162;" 
d="M265 0v616h-215v69h511v-69h-215v-616h-81zM171 -178l96 129h73l-77 -129h-92z" />
    <glyph glyph-name="uni0163" unicode="&#x163;" 
d="M540 0h-187q-79 0 -109.5 30t-30.5 109v323h-184v64h184v144h79v-144h248v-66h-249v-291q0 -67 13 -85.5t61 -18.5h175v-65zM278 -178l96 129h73l-77 -129h-92z" />
    <glyph glyph-name="Tcaron" unicode="&#x164;" 
d="M265 0v616h-215v69h511v-69h-215v-616h-81zM259 773l-101 129h72l76 -83l77 83h72l-101 -129h-95z" />
    <glyph glyph-name="tcaron" unicode="&#x165;" 
d="M540 0h-187q-79 0 -109.5 30t-30.5 109v323h-184v64h184v144h79v-144h248v-66h-249v-291q0 -67 13 -85.5t61 -18.5h175v-65zM373 561l38 169h86l-62 -169h-62z" />
    <glyph glyph-name="Tbar" unicode="&#x166;" 
d="M265 0v309h-151v60h151v247h-219v69h519v-69h-219v-247h153v-60h-153v-309h-81z" />
    <glyph glyph-name="tbar" unicode="&#x167;" 
d="M540 0h-175q-89 0 -120.5 27.5t-31.5 112.5v110h-184v60h184v152h-184v64h184v144h79v-144h248v-66h-249v-150h249v-60h-249v-104q0 -51 13.5 -66t57.5 -15h178v-65z" />
    <glyph glyph-name="Utilde" unicode="&#x168;" 
d="M306 -13q-123 0 -180 64.5t-57 207.5v426h81v-423q0 -102 35 -154.5t121 -52.5q85 0 120.5 53.5t35.5 153.5v423h81v-427q0 -142 -57.5 -206.5t-179.5 -64.5zM196 786l-49 7q19 99 90 99q25 0 67 -18l21 -10q30 -14 49 -14q29 0 42 45l49 -7q-15 -99 -90 -99
q-25 0 -62 16l-24 10q-40 16 -52 16q-28 0 -41 -45z" />
    <glyph glyph-name="utilde" unicode="&#x169;" 
d="M271 -12q-86 0 -133.5 51.5t-47.5 151.5v335h79v-313q0 -157 125 -157q70 0 105.5 44.5t35.5 124.5v301h79v-438v-41q0 -28 1 -47h-78v40q0 28 1 47h-2q-52 -99 -165 -99zM194 615l-49 7q19 99 90 99q25 0 67 -18l21 -10q30 -14 49 -14q29 0 42 45l49 -7q-15 -99 -90 -99
q-25 0 -62 16l-24 10q-40 16 -52 16q-28 0 -41 -45z" />
    <glyph glyph-name="Umacron" unicode="&#x16a;" 
d="M306 -13q-123 0 -180 64.5t-57 207.5v426h81v-423q0 -102 35 -154.5t121 -52.5q85 0 120.5 53.5t35.5 153.5v423h81v-427q0 -142 -57.5 -206.5t-179.5 -64.5zM178 814v61h258v-61h-258z" />
    <glyph glyph-name="umacron" unicode="&#x16b;" 
d="M271 -12q-86 0 -133.5 51.5t-47.5 151.5v335h79v-313q0 -157 125 -157q70 0 105.5 44.5t35.5 124.5v301h79v-438v-41q0 -28 1 -47h-78v40q0 28 1 47h-2q-52 -99 -165 -99zM177 641v61h259v-61h-259z" />
    <glyph glyph-name="Ubreve" unicode="&#x16c;" 
d="M306 -13q-123 0 -180 64.5t-57 207.5v426h81v-423q0 -102 35 -154.5t121 -52.5q85 0 120.5 53.5t35.5 153.5v423h81v-427q0 -142 -57.5 -206.5t-179.5 -64.5zM306 777q-119 0 -145 111l51 14q20 -66 94 -66q73 0 93 66l52 -14q-26 -111 -145 -111z" />
    <glyph glyph-name="ubreve" unicode="&#x16d;" 
d="M271 -12q-86 0 -133.5 51.5t-47.5 151.5v335h79v-313q0 -157 125 -157q70 0 105.5 44.5t35.5 124.5v301h79v-438v-41q0 -28 1 -47h-78v40q0 28 1 47h-2q-52 -99 -165 -99zM303 604q-58 0 -95 29t-50 83l52 14q19 -67 93 -67q75 0 94 67l51 -14q-13 -54 -50 -83t-95 -29z
" />
    <glyph glyph-name="Uring" unicode="&#x16e;" 
d="M306 -13q-123 0 -180 64.5t-57 207.5v426h81v-423q0 -102 35 -154.5t121 -52.5q85 0 120.5 53.5t35.5 153.5v423h81v-427q0 -142 -57.5 -206.5t-179.5 -64.5zM307 741q-39 0 -67.5 29.5t-28.5 68.5q0 40 28 68t69 28t68.5 -28t27.5 -69q0 -40 -28.5 -68.5t-68.5 -28.5z
M307 785q23 0 38 15.5t15 38.5q0 22 -15 37.5t-38 15.5q-22 0 -37 -15.5t-15 -38.5q0 -22 15 -37.5t37 -15.5z" />
    <glyph glyph-name="uring" unicode="&#x16f;" 
d="M271 -12q-86 0 -133.5 51.5t-47.5 151.5v335h79v-313q0 -157 125 -157q70 0 105.5 44.5t35.5 124.5v301h79v-438v-41q0 -28 1 -47h-78v40q0 28 1 47h-2q-52 -99 -165 -99zM309 577q-41 0 -68.5 28.5t-27.5 69.5q0 40 28 68t69 28t68.5 -28t27.5 -69q0 -40 -28.5 -68.5
t-68.5 -28.5zM309 621q23 0 38 15.5t15 38.5q0 22 -15 37.5t-38 15.5q-22 0 -37 -15.5t-15 -38.5q0 -22 15 -37.5t37 -15.5z" />
    <glyph glyph-name="Uhungarumlaut" unicode="&#x170;" 
d="M306 -13q-123 0 -180 64.5t-57 207.5v426h81v-423q0 -102 35 -154.5t121 -52.5q85 0 120.5 53.5t35.5 153.5v423h81v-427q0 -142 -57.5 -206.5t-179.5 -64.5zM400 773h-71l92 129h101zM159 773l90 129h102l-121 -129h-71z" />
    <glyph glyph-name="uhungarumlaut" unicode="&#x171;" 
d="M271 -12q-86 0 -133.5 51.5t-47.5 151.5v335h79v-313q0 -157 125 -157q70 0 105.5 44.5t35.5 124.5v301h79v-438v-41q0 -28 1 -47h-78v40q0 28 1 47h-2q-52 -99 -165 -99zM324 601l93 129h100l-122 -129h-71zM155 601l90 129h101l-120 -129h-71z" />
    <glyph glyph-name="Uogonek" unicode="&#x172;" 
d="M314 -192q-46 0 -74 22t-28 60q0 51 55 99q-103 9 -150.5 73.5t-47.5 196.5v426h81v-423q0 -102 35 -154.5t121 -52.5q85 0 120.5 53.5t35.5 153.5v423h81v-427q0 -131 -50 -196t-154 -73q-65 -50 -65 -87q0 -41 49 -41q22 0 39 11l26 -48q-30 -16 -74 -16z" />
    <glyph glyph-name="uogonek" unicode="&#x173;" 
d="M473 -192q-46 0 -74 22t-28 60q0 57 70 110h-4v40q0 28 1 47h-2q-52 -99 -165 -99q-86 0 -133.5 51.5t-47.5 151.5v335h79v-313q0 -157 125 -157q70 0 105.5 44.5t35.5 124.5v301h79v-479q0 -28 1 -47q-82 -55 -82 -98q0 -41 49 -41q22 0 39 11l26 -48q-30 -16 -74 -16z
" />
    <glyph glyph-name="Wcircumflex" unicode="&#x174;" 
d="M109 0l-88 685h82l32 -295q22 -203 30 -302h5q6 63 40 261l48 270h100l44 -268q22 -139 37 -263h5q9 102 33 300l35 297h79l-93 -685h-106l-53 326q-14 82 -30 212h-5q-13 -105 -32 -212l-56 -326h-107zM158 773l101 129h96l101 -129h-73l-76 82l-76 -82h-73z" />
    <glyph glyph-name="wcircumflex" unicode="&#x175;" 
d="M125 0l-102 526h79l43 -259q6 -42 30 -196h4q4 21 15 91t17 102l55 262h82l52 -255q13 -72 34 -200h3q19 123 32 199l45 256h75l-105 -526h-92l-51 252q-12 56 -32 195h-4q-24 -144 -35 -195l-53 -252h-92zM160 601l101 129h95l101 -129h-72l-77 82l-76 -82h-72z" />
    <glyph glyph-name="Ycircumflex" unicode="&#x176;" 
d="M263 0v267l-226 418h89l88 -172q58 -112 90 -169h3q12 25 44.5 85t45.5 85l89 171h86l-229 -418v-267h-80zM157 773l101 129h96l101 -129h-73l-76 82l-76 -82h-73z" />
    <glyph glyph-name="ycircumflex" unicode="&#x177;" 
d="M137 -192q-13 0 -35 2l-2 68q11 -2 48 -2q50 0 71 23t48 101q-172 440 -207 526h89l80 -221q38 -100 77 -217h5q25 80 76 223l76 215h85q-114 -294 -222 -578q-34 -88 -69 -114t-120 -26zM160 601l101 129h95l101 -129h-72l-77 82l-76 -82h-72z" />
    <glyph glyph-name="Ydieresis" unicode="&#x178;" 
d="M263 0v267l-226 418h89l88 -172q58 -112 90 -169h3q12 25 44.5 85t45.5 85l89 171h86l-229 -418v-267h-80zM360 782v111h75v-111h-75zM177 782v111h75v-111h-75z" />
    <glyph glyph-name="Zacute" unicode="&#x179;" 
d="M65 0v66l377 551q-20 0 -63.5 -0.5t-73.5 -0.5h-228v69h456v-66l-376 -551q44 1 128 1h256v-69h-476zM243 773l92 129h106l-122 -129h-76z" />
    <glyph glyph-name="zacute" unicode="&#x17a;" 
d="M87 0v62l256 314q52 63 67 82v2q-23 -2 -126 -2h-185v68h409v-62l-323 -396v-2q17 0 56 1t56 1h224v-68h-434zM235 601l92 129h106l-122 -129h-76z" />
    <glyph glyph-name="Zdotaccent" unicode="&#x17b;" 
d="M65 0v66l377 551q-20 0 -63.5 -0.5t-73.5 -0.5h-228v69h456v-66l-376 -551q44 1 128 1h256v-69h-476zM264 782v111h77v-111h-77z" />
    <glyph glyph-name="zdotaccent" unicode="&#x17c;" 
d="M87 0v62l256 314q52 63 67 82v2q-23 -2 -126 -2h-185v68h409v-62l-323 -396v-2q17 0 56 1t56 1h224v-68h-434zM263 610v111h77v-111h-77z" />
    <glyph glyph-name="Zcaron" unicode="&#x17d;" 
d="M65 0v66l377 551q-20 0 -63.5 -0.5t-73.5 -0.5h-228v69h456v-66l-376 -551q44 1 128 1h256v-69h-476zM261 773l-101 129h72l76 -83l77 83h72l-101 -129h-95z" />
    <glyph glyph-name="zcaron" unicode="&#x17e;" 
d="M87 0v62l256 314q52 63 67 82v2q-23 -2 -126 -2h-185v68h409v-62l-323 -396v-2q17 0 56 1t56 1h224v-68h-434zM261 601l-101 129h72l76 -83l77 83h72l-101 -129h-95z" />
    <glyph glyph-name="uni018F" unicode="&#x18f;" 
d="M303 -13q-130 0 -197 91t-67 263v23h454q-8 266 -189 266q-134 0 -177 -147l-77 16q24 95 89 147.5t164 52.5q133 0 202 -90.5t69 -265.5q0 -172 -69.5 -264t-201.5 -92zM303 54q178 0 189 245h-372q8 -245 183 -245z" />
    <glyph glyph-name="florin" unicode="&#x192;" 
d="M95 -173l-42 4l12 65q21 -3 44 -3q57 0 81 27t33 85l63 401h-123l10 64h124l12 67q14 85 54.5 121t123.5 36q37 0 68 -4l-11 -65q-15 3 -48 3q-59 0 -81 -26t-33 -87l-8 -45h145l-10 -64h-145l-56 -354q-21 -133 -61.5 -179t-151.5 -46z" />
    <glyph glyph-name="Aringacute" unicode="&#x1fa;" 
d="M29 0l228 685h99l226 -685h-84l-65 198h-256l-67 -198h-81zM196 267h216q-21 65 -58.5 186t-46.5 150h-5q-68 -220 -106 -336zM304 741q-39 0 -67.5 29.5t-28.5 68.5q0 40 28 68t69 28t68.5 -28t27.5 -69q0 -40 -28.5 -68.5t-68.5 -28.5zM304 785q23 0 38 15.5t15 38.5
q0 22 -15 37.5t-38 15.5q-22 0 -37 -15.5t-15 -38.5q0 -22 15 -37.5t37 -15.5zM260 980l92 129h106l-122 -129h-76z" />
    <glyph glyph-name="aringacute" unicode="&#x1fb;" 
d="M251 -9q-86 0 -135.5 40t-49.5 111q0 75 53 107.5t173 55.5l89 17q26 6 34.5 13t8.5 29q0 48 -33.5 77t-90.5 29q-120 0 -137 -108l-79 7q8 72 68.5 118.5t147.5 46.5q98 0 151 -49.5t53 -147.5v-314q0 -18 1 -23h-74v38q0 6 0.5 19t0.5 20h-2q-57 -86 -179 -86zM267 50
q73 0 116 41.5t43 112.5v30q0 21 3 36q-11 -3 -49 -10l-93 -19q-78 -15 -107.5 -34t-29.5 -64t31 -69t86 -24zM304 577q-41 0 -68.5 28.5t-27.5 69.5q0 40 28 68t69 28t68.5 -28t27.5 -69q0 -40 -28.5 -68.5t-68.5 -28.5zM304 621q23 0 38 15.5t15 38.5q0 22 -15 37.5
t-38 15.5q-22 0 -37 -15.5t-15 -38.5q0 -22 15 -37.5t37 -15.5zM255 818l92 129h106l-122 -129h-76z" />
    <glyph glyph-name="AEacute" unicode="&#x1fc;" 
d="M25 0l181 685h377v-70h-199v-226h177v-70h-177v-250h202v-69h-278v197h-152l-51 -197h-80zM173 261h135v359h-49zM316 773l92 129h106l-122 -129h-76z" />
    <glyph glyph-name="aeacute" unicode="&#x1fd;" 
d="M152 -10q-65 0 -98.5 39.5t-33.5 109.5t37.5 104.5t105.5 56.5l62 20q19 6 24.5 14t5.5 31q0 100 -74 100q-77 0 -82 -104q-11 1 -34 3t-34 4q2 76 42 121t108 45q88 0 118 -73q43 73 120 73q83 0 121 -63t38 -194v-34h-256q0 -193 97 -193q36 0 57 25t34 72l65 -15
q-37 -142 -158 -142q-91 0 -127 87h-2q-39 -87 -136 -87zM162 52q45 0 69.5 34t24.5 99v52q0 21 3 32q-17 -8 -33 -12l-46 -15q-47 -15 -67.5 -37t-20.5 -65q0 -88 70 -88zM322 305h183q-2 88 -22.5 125.5t-65.5 37.5q-90 0 -95 -163zM244 601l92 129h106l-122 -129h-76z
" />
    <glyph glyph-name="Oslashacute" unicode="&#x1fe;" 
d="M88 -43l-55 33l63 99q-62 92 -62 252q0 172 70 265t201 93q89 0 148 -45l51 81l55 -33q-57 -88 -58 -90q76 -92 76 -271q0 -171 -70 -262.5t-202 -91.5q-100 0 -163 54zM305 55q189 0 189 286q0 129 -38 200l-275 -438q43 -48 124 -48zM143 163l271 430q-40 36 -109 36
q-189 0 -189 -288q0 -111 27 -178zM254 773l92 129h106l-122 -129h-76z" />
    <glyph glyph-name="oslashacute" unicode="&#x1ff;" 
d="M234 601l92 129h106l-122 -129h-76zM117 -46l-47 33l53 73q-67 73 -67 199q0 124 67 200t183 76q76 0 134 -37l50 70l49 -33l-54 -74q70 -76 70 -202q0 -123 -68 -198t-182 -75q-78 0 -137 38zM169 124l230 316q-38 26 -93 26q-81 0 -124 -54t-43 -153q0 -87 30 -135z
M305 53q81 0 124 53t43 153q0 88 -33 139l-231 -319q38 -26 97 -26z" />
    <glyph glyph-name="uni0218" unicode="&#x218;" 
d="M297 -13q-189 0 -251 153l69 32q58 -117 183 -117q73 0 115.5 34t42.5 93q0 49 -32 75t-100 46l-69 19q-97 27 -140 69.5t-43 118.5q0 87 62.5 138t166.5 51q171 0 228 -136l-66 -34q-52 102 -163 102q-68 0 -107 -30.5t-39 -85.5q0 -49 31 -74.5t103 -46.5l76 -22
q90 -25 132.5 -66.5t42.5 -117.5q0 -92 -67.5 -146.5t-174.5 -54.5zM256 -213v35q22 2 30 9.5t8 31.5h-38v88h83v-67q0 -49 -15.5 -72t-67.5 -25z" />
    <glyph glyph-name="uni0219" unicode="&#x219;" 
d="M308 -15q-179 0 -227 138l68 31q43 -102 162 -102q58 0 91.5 22t33.5 63q0 36 -27.5 53t-91.5 34l-46 12q-43 12 -67 21t-50 25.5t-37.5 41.5t-11.5 60q0 70 56 110.5t145 40.5q79 0 131.5 -32t73.5 -89l-67 -30q-33 84 -140 84q-56 0 -86.5 -20.5t-30.5 -58.5
q0 -35 27.5 -52.5t92.5 -33.5l48 -12q40 -11 65 -20t49.5 -25.5t36 -41t11.5 -58.5q0 -75 -57.5 -118t-151.5 -43zM266 -213v35q22 2 30 9.5t8 31.5h-38v88h83v-67q0 -49 -15.5 -72t-67.5 -25z" />
    <glyph glyph-name="uni021A" unicode="&#x21a;" 
d="M265 0v616h-215v69h511v-69h-215v-616h-81zM264 -213v35q22 2 30 9.5t8 31.5h-38v88h83v-67q0 -49 -15.5 -72t-67.5 -25z" />
    <glyph glyph-name="uni021B" unicode="&#x21b;" 
d="M540 0h-187q-79 0 -109.5 30t-30.5 109v323h-184v64h184v144h79v-144h248v-66h-249v-291q0 -67 13 -85.5t61 -18.5h175v-65zM322 -213v35q22 2 30 9.5t8 31.5h-38v88h83v-67q0 -49 -15.5 -72t-67.5 -25z" />
    <glyph glyph-name="uni0237" unicode="&#x237;" 
d="M100 -188v66h186q44 0 55.5 14.5t11.5 66.5v501h-256v66h334v-569q0 -86 -31 -115.5t-118 -29.5h-182z" />
    <glyph glyph-name="uni0259" unicode="&#x259;" 
d="M298 539q117 0 184.5 -74t67.5 -198q0 -120 -67.5 -198t-181.5 -78q-121 0 -180 83t-59 209h409q-2 88 -50 138t-124 50q-110 0 -164 -101l-67 27q29 64 89.5 103t142.5 39zM469 221h-326q6 -73 47.5 -118.5t111.5 -45.5q71 0 115.5 44.5t51.5 119.5z" />
    <glyph glyph-name="circumflex" unicode="&#x2c6;" 
d="M158 601l101 129h95l101 -129h-72l-77 82l-76 -82h-72z" />
    <glyph glyph-name="caron" unicode="&#x2c7;" 
d="M259 601l-101 129h72l76 -83l77 83h72l-101 -129h-95z" />
    <glyph glyph-name="breve" unicode="&#x2d8;" 
d="M306 604q-58 0 -95 29t-50 83l52 14q19 -67 93 -67q75 0 94 67l51 -14q-13 -54 -50 -83t-95 -29z" />
    <glyph glyph-name="dotaccent" unicode="&#x2d9;" 
d="M268 610v111h77v-111h-77z" />
    <glyph glyph-name="ring" unicode="&#x2da;" 
d="M306 577q-41 0 -68.5 28.5t-27.5 69.5q0 40 28 68t69 28t68.5 -28t27.5 -69q0 -40 -28.5 -68.5t-68.5 -28.5zM306 621q23 0 38 15.5t15 38.5q0 22 -15 37.5t-38 15.5q-22 0 -37 -15.5t-15 -38.5q0 -22 15 -37.5t37 -15.5z" />
    <glyph glyph-name="ogonek" unicode="&#x2db;" 
d="M320 -192q-46 0 -74 22t-28 60q0 57 70 110h74q-82 -55 -82 -98q0 -41 49 -41q22 0 39 11l26 -48q-30 -16 -74 -16z" />
    <glyph glyph-name="tilde" unicode="&#x2dc;" 
d="M196 615l-49 7q19 99 90 99q25 0 67 -18l21 -10q30 -14 49 -14q29 0 42 45l49 -7q-15 -99 -90 -99q-25 0 -62 16l-24 10q-40 16 -52 16q-28 0 -41 -45z" />
    <glyph glyph-name="hungarumlaut" unicode="&#x2dd;" 
d="M294 601l93 129h100l-122 -129h-71zM125 601l90 129h101l-120 -129h-71z" />
    <glyph glyph-name="uni0312" unicode="&#x312;" horiz-adv-x="0" 
d="M-338 602v67q0 49 15.5 72t67.5 25v-35q-22 -2 -30 -9.5t-8 -31.5h38v-88h-83z" />
    <glyph glyph-name="uni0313" unicode="&#x313;" horiz-adv-x="0" 
d="M-354 561l38 169h86l-62 -169h-62z" />
    <glyph glyph-name="uni0326" unicode="&#x326;" horiz-adv-x="0" 
d="M-338 -213v35q22 2 30 9.5t8 31.5h-38v88h83v-67q0 -49 -15.5 -72t-67.5 -25z" />
    <glyph glyph-name="uni0394" unicode="&#x394;" 
d="M13 0l246 687h94l245 -687h-585zM122 70h367q-30 89 -90.5 264t-90.5 264h-4z" />
    <glyph glyph-name="uni03A9" unicode="&#x3a9;" 
d="M18 -2v71h43q7 0 103 -3v4q-143 101 -143 307q0 87 31.5 159t97.5 117.5t156 45.5q134 0 209 -93t75 -229q0 -207 -143 -307v-4q96 3 104 3h42v-71h-234v81q150 85 150 291q0 112 -53 183.5t-150 71.5t-150.5 -71.5t-53.5 -183.5q0 -206 150 -291v-81h-234z" />
    <glyph glyph-name="uni03BC" unicode="&#x3bc;" 
d="M170 -184h-80q3 61 3 135v575h79v-316q0 -154 125 -154q70 0 106.5 46t36.5 130v294h79v-445q0 -49 1 -81h-78v33v38v16q-59 -99 -165 -99q-69 0 -104 35v-121q0 -59 -3 -86z" />
    <glyph glyph-name="pi" unicode="&#x3c0;" 
d="M134 0v457h-112v69h564v-69h-105v-248q0 -102 17.5 -141t65.5 -51v-17h-108q-31 17 -42 49t-11 97v311h-190v-457h-79z" />
    <glyph glyph-name="Wgrave" unicode="&#x1e80;" 
d="M109 0l-88 685h82l32 -295q22 -203 30 -302h5q6 63 40 261l48 270h100l44 -268q22 -139 37 -263h5q9 102 33 300l35 297h79l-93 -685h-106l-53 326q-14 82 -30 212h-5q-13 -105 -32 -212l-56 -326h-107zM294 773l-122 129h107l91 -129h-76z" />
    <glyph glyph-name="wgrave" unicode="&#x1e81;" 
d="M125 0l-102 526h79l43 -259q6 -42 30 -196h4q4 21 15 91t17 102l55 262h82l52 -255q13 -72 34 -200h3q19 123 32 199l45 256h75l-105 -526h-92l-51 252q-12 56 -32 195h-4q-24 -144 -35 -195l-53 -252h-92zM285 601l-122 129h106l92 -129h-76z" />
    <glyph glyph-name="Wacute" unicode="&#x1e82;" 
d="M109 0l-88 685h82l32 -295q22 -203 30 -302h5q6 63 40 261l48 270h100l44 -268q22 -139 37 -263h5q9 102 33 300l35 297h79l-93 -685h-106l-53 326q-14 82 -30 212h-5q-13 -105 -32 -212l-56 -326h-107zM268 773l92 129h106l-122 -129h-76z" />
    <glyph glyph-name="wacute" unicode="&#x1e83;" 
d="M125 0l-102 526h79l43 -259q6 -42 30 -196h4q4 21 15 91t17 102l55 262h82l52 -255q13 -72 34 -200h3q19 123 32 199l45 256h75l-105 -526h-92l-51 252q-12 56 -32 195h-4q-24 -144 -35 -195l-53 -252h-92zM263 601l92 129h106l-122 -129h-76z" />
    <glyph glyph-name="Wdieresis" unicode="&#x1e84;" 
d="M109 0l-88 685h82l32 -295q22 -203 30 -302h5q6 63 40 261l48 270h100l44 -268q22 -139 37 -263h5q9 102 33 300l35 297h79l-93 -685h-106l-53 326q-14 82 -30 212h-5q-13 -105 -32 -212l-56 -326h-107zM361 782v111h75v-111h-75zM178 782v111h75v-111h-75z" />
    <glyph glyph-name="wdieresis" unicode="&#x1e85;" 
d="M125 0l-102 526h79l43 -259q6 -42 30 -196h4q4 21 15 91t17 102l55 262h82l52 -255q13 -72 34 -200h3q19 123 32 199l45 256h75l-105 -526h-92l-51 252q-12 56 -32 195h-4q-24 -144 -35 -195l-53 -252h-92zM362 610v111h75v-111h-75zM179 610v111h75v-111h-75z" />
    <glyph glyph-name="uni1E9E" unicode="&#x1e9e;" 
d="M352 -13q-94 0 -144 38l43 61q43 -30 101 -30q64 0 101 39t37 99q0 71 -42 106.5t-119 35.5q-32 0 -70 -2v57l130 166q16 21 49 59h-74h-192v-616h-81v685h436v-65l-173 -219h1q99 0 158.5 -54.5t59.5 -153.5q0 -95 -59 -150.5t-162 -55.5z" />
    <glyph glyph-name="Ygrave" unicode="&#x1ef2;" 
d="M263 0v267l-226 418h89l88 -172q58 -112 90 -169h3q12 25 44.5 85t45.5 85l89 171h86l-229 -418v-267h-80zM285 773l-122 129h107l91 -129h-76z" />
    <glyph glyph-name="ygrave" unicode="&#x1ef3;" 
d="M137 -192q-13 0 -35 2l-2 68q11 -2 48 -2q50 0 71 23t48 101q-172 440 -207 526h89l80 -221q38 -100 77 -217h5q25 80 76 223l76 215h85q-114 -294 -222 -578q-34 -88 -69 -114t-120 -26zM289 601l-122 129h106l92 -129h-76z" />
    <glyph glyph-name="uni2000" unicode="&#x2000;" 
 />
    <glyph glyph-name="uni2001" unicode="&#x2001;" 
 />
    <glyph glyph-name="uni2002" unicode="&#x2002;" 
 />
    <glyph glyph-name="uni2003" unicode="&#x2003;" 
 />
    <glyph glyph-name="uni2004" unicode="&#x2004;" 
 />
    <glyph glyph-name="uni2005" unicode="&#x2005;" 
 />
    <glyph glyph-name="uni2006" unicode="&#x2006;" 
 />
    <glyph glyph-name="uni2007" unicode="&#x2007;" 
 />
    <glyph glyph-name="uni2008" unicode="&#x2008;" 
 />
    <glyph glyph-name="uni2009" unicode="&#x2009;" 
 />
    <glyph glyph-name="uni200A" unicode="&#x200a;" 
 />
    <glyph glyph-name="uni200B" unicode="&#x200b;" horiz-adv-x="0" 
 />
    <glyph glyph-name="endash" unicode="&#x2013;" 
d="M74 253v70h464v-70h-464z" />
    <glyph glyph-name="emdash" unicode="&#x2014;" 
d="M2 253v70h608v-70h-608z" />
    <glyph glyph-name="uni2015" unicode="&#x2015;" 
d="M2 253v70h608v-70h-608z" />
    <glyph glyph-name="quoteleft" unicode="&#x2018;" 
d="M244 415v147q0 78 29 120.5t95 50.5v-59q-32 -8 -45.5 -31t-13.5 -66v-7h58v-155h-123z" />
    <glyph glyph-name="quoteright" unicode="&#x2019;" 
d="M244 412v59q32 8 45.5 31t13.5 66v7h-58v155h123v-147q0 -78 -29 -120.5t-95 -50.5z" />
    <glyph glyph-name="quotesinglbase" unicode="&#x201a;" 
d="M244 -163v59q32 8 45.5 31t13.5 66v7h-58v155h123v-147q0 -78 -29 -120.5t-95 -50.5z" />
    <glyph glyph-name="quotedblleft" unicode="&#x201c;" 
d="M355 412v147q0 78 29 120.5t95 50.5v-59q-32 -8 -45.5 -31t-13.5 -66v-7h58v-155h-123zM133 412v147q0 78 29 120.5t95 50.5v-59q-32 -8 -45.5 -31t-13.5 -66v-7h58v-155h-123z" />
    <glyph glyph-name="quotedblright" unicode="&#x201d;" 
d="M133 412v59q32 8 45.5 31t13.5 66v7h-58v155h123v-147q0 -78 -29 -120.5t-95 -50.5zM355 412v59q32 8 45.5 31t13.5 66v7h-58v155h123v-147q0 -78 -29 -120.5t-95 -50.5z" />
    <glyph glyph-name="quotedblbase" unicode="&#x201e;" 
d="M134 -163v59q32 8 45.5 31t13.5 66v7h-58v155h123v-147q0 -78 -29 -120.5t-95 -50.5zM356 -163v59q32 8 45.5 31t13.5 66v7h-58v155h123v-147q0 -78 -29 -120.5t-95 -50.5z" />
    <glyph glyph-name="dagger" unicode="&#x2020;" 
d="M267 -110v519h-184v66h184v210h75v-210h186v-66h-186v-519h-75z" />
    <glyph glyph-name="daggerdbl" unicode="&#x2021;" 
d="M267 -110v225h-185v67h185v226h-185v67h185v210h75v-210h185v-67h-185v-226h185v-67h-185v-225h-75z" />
    <glyph glyph-name="bullet" unicode="&#x2022;" 
d="M306 188q-60 0 -102.5 43t-42.5 103t42.5 102.5t102.5 42.5q59 0 101.5 -42.5t42.5 -102.5t-42.5 -103t-101.5 -43z" />
    <glyph glyph-name="ellipsis" unicode="&#x2026;" 
d="M459 0v155h98v-155h-98zM55 0v155h98v-155h-98zM256 0v155h98v-155h-98z" />
    <glyph glyph-name="perthousand" unicode="&#x2030;" 
d="M26 0l293 685h52l-293 -685h-52zM298 -7q-98 0 -98 155q0 157 97 157q99 0 99 -157q0 -155 -98 -155zM298 40q51 0 51 107q0 111 -52 111q-50 0 -50 -112q0 -106 51 -106zM94 380q-98 0 -98 155q0 157 97 157q99 0 99 -157q0 -155 -98 -155zM94 427q50 0 50 107
q0 111 -51 111q-50 0 -50 -112q0 -106 51 -106zM520 -7q-98 0 -98 155q0 157 97 157q99 0 99 -157q0 -155 -98 -155zM520 40q51 0 51 107q0 111 -52 111q-49 0 -49 -112q0 -106 50 -106z" />
    <glyph glyph-name="guilsinglleft" unicode="&#x2039;" 
d="M301 91l-121 184l121 185h78l-110 -185l110 -184h-78z" />
    <glyph glyph-name="guilsinglright" unicode="&#x203a;" 
d="M233 91l110 184l-110 185h79l120 -185l-120 -184h-79z" />
    <glyph glyph-name="fraction" unicode="&#x2044;" 
d="M15 0l522 685h60l-520 -685h-62z" />
    <glyph glyph-name="uni2070" unicode="&#x2070;" 
d="M306 340q-167 0 -167 242q0 111 40.5 178.5t126.5 67.5q87 0 127.5 -68t40.5 -178q0 -111 -41 -176.5t-127 -65.5zM306 400q91 0 91 183q0 88 -20 136.5t-71 48.5q-50 0 -70 -48.5t-20 -137.5q0 -182 90 -182zM266 543v81h82v-81h-82z" />
    <glyph glyph-name="uni2074" unicode="&#x2074;" 
d="M326 348v98h-202v54l109 315h67l-101 -301l-3 -10h130v181h63v-181h80v-58h-80v-98h-63z" />
    <glyph glyph-name="uni2075" unicode="&#x2075;" 
d="M296 340q-71 0 -110.5 34.5t-48.5 95.5l71 5q7 -33 31 -55t58 -22q42 0 66.5 27t24.5 74q0 46 -24.5 73.5t-66.5 27.5q-60 0 -81 -50l-67 6l22 259h263v-61h-206l-8 -80q-2 -9 -3 -26.5t-2 -26.5q40 38 97 38q68 0 108.5 -44.5t40.5 -113.5q0 -72 -45.5 -116.5
t-119.5 -44.5z" />
    <glyph glyph-name="uni2076" unicode="&#x2076;" 
d="M301 340q-86 0 -129 60t-43 168q0 119 46 189.5t134 70.5q61 0 99.5 -35.5t47.5 -92.5l-72 -3q-15 72 -76 72q-54 0 -81 -51t-30 -125q1 -1 2 -1q39 62 117 62q67 0 107 -43.5t40 -112.5t-44.5 -113.5t-117.5 -44.5zM301 397q41 0 65 27.5t24 72.5t-24 71t-66 26
t-66.5 -26.5t-24.5 -70.5q0 -45 25 -72.5t67 -27.5z" />
    <glyph glyph-name="uni2077" unicode="&#x2077;" 
d="M280 348h-76q25 101 71 210t102 191v2q-11 0 -33 -0.5t-34 -0.5h-168v65h310v-59q-52 -76 -99 -190.5t-73 -217.5z" />
    <glyph glyph-name="uni2078" unicode="&#x2078;" 
d="M306 340q-74 0 -120.5 37.5t-46.5 100.5q0 86 92 119v1q-76 36 -76 106q0 54 41.5 89t109.5 35t109 -34.5t41 -89.5q0 -71 -77 -105v-2q94 -35 94 -119q0 -63 -47 -100.5t-120 -37.5zM306 397q42 0 66.5 24t24.5 63q0 37 -24.5 60t-66.5 23t-67.5 -23t-25.5 -60
q0 -39 25.5 -63t67.5 -24zM306 625q37 0 58.5 20t21.5 52t-21.5 51.5t-58.5 19.5q-38 0 -59.5 -19t-21.5 -52t21.5 -52.5t59.5 -19.5z" />
    <glyph glyph-name="uni2079" unicode="&#x2079;" 
d="M291 340q-132 0 -150 128l70 3q16 -74 80 -74q46 0 75.5 50.5t29.5 128.5v1q-38 -60 -115 -60q-66 0 -105.5 42t-39.5 111q0 67 44 112.5t115 45.5q84 0 127.5 -60.5t43.5 -170.5q0 -120 -44 -188.5t-131 -68.5zM296 575q42 0 66.5 26.5t24.5 69.5t-24.5 70t-66.5 27
q-41 0 -65.5 -27t-24.5 -70t24 -69.5t66 -26.5z" />
    <glyph glyph-name="uni207A" unicode="&#x207a;" 
d="M275 416v131h-127v59h127v131h61v-131h129v-59h-129v-131h-61z" />
    <glyph glyph-name="uni207B" unicode="&#x207b;" 
d="M151 547v59h310v-59h-310z" />
    <glyph glyph-name="uni207C" unicode="&#x207c;" 
d="M151 606v58h310v-58h-310zM151 485v58h310v-58h-310z" />
    <glyph glyph-name="uni207D" unicode="&#x207d;" 
d="M397 255l-53 -5q-101 137 -101 288q0 150 101 287l53 -5q-83 -131 -83 -282q0 -152 83 -283z" />
    <glyph glyph-name="uni207E" unicode="&#x207e;" 
d="M268 251l-53 4q84 132 84 283t-83 282l53 4q101 -132 101 -286q0 -152 -102 -287z" />
    <glyph glyph-name="uni207F" unicode="&#x207f;" 
d="M162 348v270q0 50 -1 67h66v-14q0 -26 -1 -34h1q37 54 107 54q57 0 89.5 -34.5t32.5 -100.5v-208h-67v165q0 63 -16 91.5t-57 28.5q-86 0 -86 -121v-164h-68z" />
    <glyph glyph-name="uni2080" unicode="&#x2080;" 
d="M306 -92q-167 0 -167 242q0 111 40.5 178.5t126.5 67.5q87 0 127.5 -68t40.5 -178q0 -111 -41 -176.5t-127 -65.5zM306 -32q91 0 91 183q0 88 -20 136.5t-71 48.5q-50 0 -70 -48.5t-20 -137.5q0 -182 90 -182zM266 111v81h82v-81h-82z" />
    <glyph glyph-name="uni2081" unicode="&#x2081;" 
d="M181 -84v55h103v283h-115v47q62 3 89.5 20.5t34.5 61.5h58v-412h95v-55h-265z" />
    <glyph glyph-name="uni2082" unicode="&#x2082;" 
d="M137 -84v56q92 86 134 121q60 49 82.5 83.5t22.5 75.5q0 37 -20.5 59t-57.5 22q-82 0 -87 -99l-71 2q2 71 44.5 115.5t113.5 44.5q70 0 112 -38t42 -104q0 -51 -28.5 -94t-82.5 -87q-27 -23 -50 -42t-40.5 -33.5t-25.5 -21.5v-1q3 0 32.5 0.5t45.5 0.5h150v-60h-316z" />
    <glyph glyph-name="uni2083" unicode="&#x2083;" 
d="M296 -92q-76 0 -117 39t-47 110l71 4q4 -43 27.5 -69.5t66.5 -26.5q41 0 65.5 25t24.5 64q0 80 -105 80h-18v59q2 0 3 -0.5t3 -0.5q104 0 104 74q0 33 -20.5 51.5t-56.5 18.5q-38 0 -60 -23t-24 -60l-69 6q5 61 46 99t108 38q66 0 106.5 -33.5t40.5 -89.5q0 -75 -80 -105
v-1q45 -11 71 -41.5t26 -74.5q0 -64 -46.5 -103.5t-119.5 -39.5z" />
    <glyph glyph-name="uni2084" unicode="&#x2084;" 
d="M326 -84v98h-202v54l109 315h67l-101 -301l-3 -10h130v181h63v-181h80v-58h-80v-98h-63z" />
    <glyph glyph-name="uni2085" unicode="&#x2085;" 
d="M296 -92q-71 0 -110.5 34.5t-48.5 95.5l71 5q7 -33 31 -55t58 -22q42 0 66.5 27t24.5 74q0 46 -24.5 73.5t-66.5 27.5q-60 0 -81 -50l-67 6l22 259h263v-61h-206l-8 -80q-2 -9 -3 -26.5t-2 -26.5q40 38 97 38q68 0 108.5 -44.5t40.5 -113.5q0 -72 -45.5 -116.5
t-119.5 -44.5z" />
    <glyph glyph-name="uni2086" unicode="&#x2086;" 
d="M301 -92q-86 0 -129 60t-43 168q0 119 46 189.5t134 70.5q61 0 99.5 -35.5t47.5 -92.5l-72 -3q-15 72 -76 72q-54 0 -81 -51t-30 -125q1 -1 2 -1q39 62 117 62q67 0 107 -43.5t40 -112.5t-44.5 -113.5t-117.5 -44.5zM301 -35q41 0 65 27.5t24 72.5t-24 71t-66 26
t-66.5 -26.5t-24.5 -70.5q0 -45 25 -72.5t67 -27.5z" />
    <glyph glyph-name="uni2087" unicode="&#x2087;" 
d="M280 -84h-76q25 101 71 210t102 191v2q-11 0 -33 -0.5t-34 -0.5h-168v65h310v-59q-52 -76 -99 -190.5t-73 -217.5z" />
    <glyph glyph-name="uni2088" unicode="&#x2088;" 
d="M306 -92q-74 0 -120.5 37.5t-46.5 100.5q0 86 92 119v1q-76 36 -76 106q0 54 41.5 89t109.5 35t109 -34.5t41 -89.5q0 -71 -77 -105v-2q94 -35 94 -119q0 -63 -47 -100.5t-120 -37.5zM306 -35q42 0 66.5 24t24.5 63q0 37 -24.5 60t-66.5 23t-67.5 -23t-25.5 -60
q0 -39 25.5 -63t67.5 -24zM306 193q37 0 58.5 20t21.5 52t-21.5 51.5t-58.5 19.5q-38 0 -59.5 -19t-21.5 -52t21.5 -52.5t59.5 -19.5z" />
    <glyph glyph-name="uni2089" unicode="&#x2089;" 
d="M291 -92q-132 0 -150 128l70 3q16 -74 80 -74q46 0 75.5 50.5t29.5 128.5v1q-38 -60 -115 -60q-66 0 -105.5 42t-39.5 111q0 67 44 112.5t115 45.5q84 0 127.5 -60.5t43.5 -170.5q0 -120 -44 -188.5t-131 -68.5zM296 143q42 0 66.5 26.5t24.5 69.5t-24.5 70t-66.5 27
q-41 0 -65.5 -27t-24.5 -70t24 -69.5t66 -26.5z" />
    <glyph glyph-name="uni208A" unicode="&#x208a;" 
d="M275 -16v131h-127v59h127v131h61v-131h129v-59h-129v-131h-61z" />
    <glyph glyph-name="uni208B" unicode="&#x208b;" 
d="M151 115v59h310v-59h-310z" />
    <glyph glyph-name="uni208C" unicode="&#x208c;" 
d="M151 174v58h310v-58h-310zM151 53v58h310v-58h-310z" />
    <glyph glyph-name="uni208D" unicode="&#x208d;" 
d="M397 -177l-53 -5q-101 137 -101 288q0 150 101 287l53 -5q-83 -131 -83 -282q0 -152 83 -283z" />
    <glyph glyph-name="uni208E" unicode="&#x208e;" 
d="M268 -181l-53 4q84 132 84 283t-83 282l53 4q101 -132 101 -286q0 -152 -102 -287z" />
    <glyph glyph-name="Euro" unicode="&#x20ac;" 
d="M339 -13q-197 0 -230 247h-75l13 62h55v90h-68l13 62h61q36 251 231 251q90 0 142 -50t69 -133l-72 -19q-29 134 -139 134q-130 0 -150 -183h240l-13 -62h-232v-90h215l-13 -62h-197q20 -180 150 -180q106 0 138 132l72 -18q-43 -181 -210 -181z" />
    <glyph glyph-name="uni2113" unicode="&#x2113;" 
d="M341 -14q-75 0 -110 35.5t-35 109.5v63l-80 -67l-33 48l112 89v242q0 94 32.5 143.5t117.5 49.5q137 0 137 -134q0 -137 -208 -317v-105q0 -96 82 -96q54 0 91 39l45 -43q-54 -57 -151 -57zM274 517v-190q72 67 104 122t32 111q0 81 -67 81q-38 0 -53.5 -30.5
t-15.5 -93.5z" />
    <glyph glyph-name="uni2116" unicode="&#x2116;" 
d="M27 0v685h115l72 -401q7 -40 20 -117t20 -111h3q-2 154 -2 237v392h65v-685h-112l-73 396q-8 44 -41 239h-3q0 -38 1 -143.5t1 -147.5v-344h-66zM378 231v63h193v-63h-193zM476 330q-118 0 -118 178q0 177 118 177q119 0 119 -177q0 -178 -119 -178zM476 390q54 0 54 118
q0 117 -54 117q-32 0 -42.5 -32t-10.5 -85q0 -25 1.5 -43t6.5 -36.5t16.5 -28.5t28.5 -10z" />
    <glyph glyph-name="uni2117" unicode="&#x2117;" 
d="M303 166q-110 0 -187 77t-77 189q0 111 77.5 189t188.5 78q112 0 190 -78t78 -189q0 -112 -78.5 -189t-191.5 -77zM307 210q91 0 154 65t63 157q0 93 -63.5 157t-155.5 64t-154.5 -64t-62.5 -157q0 -94 63 -158t156 -64zM202 272v315h130q110 0 110 -98q0 -44 -36 -75
q-29 -24 -80 -24h-62v-118h-62zM264 443h54q62 0 62 46q0 45 -64 45h-52v-91z" />
    <glyph glyph-name="trademark" unicode="&#x2122;" 
d="M262 375v310h88l37 -115q28 -89 37 -113h2q23 78 34 111l38 117h88v-310h-57v109q0 93 3 130h-3q-6 -21 -39 -119l-41 -120h-52l-40 121q-7 21 -18.5 58.5t-19.5 59.5h-3q3 -105 3 -125v-114h-57zM94 375v256h-85v54h233v-54h-86v-256h-62z" />
    <glyph glyph-name="Omega" unicode="&#x2126;" 
d="M18 -2v71h43q7 0 103 -3v4q-143 101 -143 307q0 87 31.5 159t97.5 117.5t156 45.5q134 0 209 -93t75 -229q0 -207 -143 -307v-4q96 3 104 3h42v-71h-234v81q150 85 150 291q0 112 -53 183.5t-150 71.5t-150.5 -71.5t-53.5 -183.5q0 -206 150 -291v-81h-234z" />
    <glyph glyph-name="estimated" unicode="&#x212e;" 
d="M312 -13q-120 0 -191 75t-71 198q0 120 71 197.5t191 77.5q123 0 191 -73t68 -199h-410v-143q0 -53 65 -81q27 -13 86 -13q128 0 199 123l32 -26q-47 -71 -100.5 -103.5t-130.5 -32.5zM161 299h301v114q0 43 -63 68q-39 17 -89 17t-85 -16q-64 -30 -64 -68v-115z" />
    <glyph glyph-name="onethird" unicode="&#x2153;" 
d="M88 0l293 685h57l-292 -685h-58zM105 305v274h-91v41q55 0 78 15t27 50h44v-380h-58zM447 -7q-118 0 -131 120l59 4q9 -75 72 -75q32 0 50.5 18t18.5 48q0 31 -21.5 48t-57.5 17h-19v48q87 0 87 58q0 24 -16.5 39.5t-41.5 15.5q-29 0 -45.5 -18.5t-19.5 -49.5l-55 5
q4 50 34.5 81t86.5 31q54 0 83.5 -27t29.5 -74q0 -56 -59 -81q74 -24 74 -94q0 -50 -35.5 -82t-93.5 -32z" />
    <glyph glyph-name="twothirds" unicode="&#x2154;" 
d="M-1 307v42l112 106q76 70 76 123q0 29 -16.5 46t-44.5 17q-59 0 -64 -81l-59 2q2 62 34.5 96t88.5 34q57 0 89 -30t32 -82q0 -18 -3.5 -34t-13.5 -33t-16 -27.5t-23 -28t-22 -22.5t-26 -23.5t-22 -19.5l-39 -33h168v-52h-251zM477 -7q-118 0 -131 120l59 4q9 -75 72 -75
q32 0 50.5 18t18.5 48q0 31 -21.5 48t-57.5 17h-19v48q87 0 87 58q0 24 -16.5 39.5t-41.5 15.5q-29 0 -45.5 -18.5t-19.5 -49.5l-55 5q4 50 34.5 81t86.5 31q54 0 83.5 -27t29.5 -74q0 -56 -59 -81q74 -24 74 -94q0 -50 -35.5 -82t-93.5 -32zM146 0l293 685h57l-292 -685
h-58z" />
    <glyph glyph-name="oneeighth" unicode="&#x215b;" 
d="M95 0l293 685h57l-292 -685h-58zM456 40q33 0 53 18.5t20 48.5t-20 48t-53 18t-52.5 -18t-19.5 -48t19.5 -48.5t52.5 -18.5zM111 305v274h-91v41q55 0 78 15t27 50h44v-380h-58zM456 -7q-60 0 -96.5 30t-36.5 81q0 70 67 95q-53 24 -53 84q0 43 33 71.5t86 28.5
q52 0 86.5 -29t34.5 -71q0 -59 -54 -84q67 -23 67 -95q0 -51 -37 -81t-97 -30zM456 223q28 0 45 16t17 41t-16.5 40.5t-45.5 15.5t-46 -16t-17 -40q0 -25 17.5 -41t45.5 -16z" />
    <glyph glyph-name="threeeighths" unicode="&#x215c;" 
d="M132 0l293 685h57l-292 -685h-58zM469 40q33 0 53 18.5t20 48.5t-20 48t-53 18t-52.5 -18t-19.5 -48t19.5 -48.5t52.5 -18.5zM135 302q-118 0 -131 120l59 4q9 -75 72 -75q32 0 50.5 18t18.5 48q0 31 -21.5 48t-57.5 17h-19v48q87 0 87 58q0 24 -16.5 39.5t-41.5 15.5
q-29 0 -45.5 -18.5t-19.5 -49.5l-55 5q4 50 34.5 81t86.5 31q54 0 83.5 -27t29.5 -74q0 -56 -59 -81q74 -24 74 -94q0 -50 -35.5 -82t-93.5 -32zM469 -7q-60 0 -96.5 30t-36.5 81q0 70 67 95q-53 24 -53 84q0 43 33 71.5t86 28.5q52 0 86.5 -29t34.5 -71q0 -59 -54 -84
q67 -23 67 -95q0 -51 -37 -81t-97 -30zM469 223q28 0 45 16t17 41t-16.5 40.5t-45.5 15.5t-46 -16t-17 -40q0 -25 17.5 -41t45.5 -16z" />
    <glyph glyph-name="fiveeighths" unicode="&#x215d;" 
d="M460 -7q-60 0 -96.5 30t-36.5 81q0 70 67 95q-53 24 -53 84q0 43 33 71.5t86 28.5q52 0 86.5 -29t34.5 -71q0 -59 -54 -84q67 -23 67 -95q0 -51 -37 -81t-97 -30zM114 300q-52 0 -86.5 29.5t-41.5 78.5l60 5q12 -64 68 -64q32 0 50.5 22.5t18.5 59.5q0 36 -18.5 59.5
t-48.5 23.5q-40 0 -63 -40l-55 5l15 206h211v-51h-164l-8 -96q26 23 70 23q56 0 89 -35.5t33 -93.5q0 -60 -36 -96t-94 -36zM114 0l293 685h57l-292 -685h-58zM460 40q33 0 53 18.5t20 48.5t-20 48t-53 18t-52.5 -18t-19.5 -48t19.5 -48.5t52.5 -18.5zM460 223q28 0 45 16
t17 41t-16.5 40.5t-45.5 15.5t-46 -16t-17 -40q0 -25 17.5 -41t45.5 -16z" />
    <glyph glyph-name="seveneighths" unicode="&#x215e;" 
d="M456 -7q-60 0 -96.5 30t-36.5 81q0 70 67 95q-53 24 -53 84q0 43 33 71.5t86 28.5q52 0 86.5 -29t34.5 -71q0 -59 -54 -84q67 -23 67 -95q0 -51 -37 -81t-97 -30zM84 0l293 685h57l-292 -685h-58zM120 305h-63q44 167 141 328h-184v52h249v-42q-97 -160 -143 -338z
M456 40q33 0 53 18.5t20 48.5t-20 48t-53 18t-52.5 -18t-19.5 -48t19.5 -48.5t52.5 -18.5zM456 223q28 0 45 16t17 41t-16.5 40.5t-45.5 15.5t-46 -16t-17 -40q0 -25 17.5 -41t45.5 -16z" />
    <glyph glyph-name="arrowleft" unicode="&#x2190;" 
d="M353 80h-105q-20 21 -106 112.5t-127 133.5q14 14 233 246h105l-76 -78l-130 -133q43 2 155 2h289v-74h-289q-118 0 -156 2l131 -133z" />
    <glyph glyph-name="arrowup" unicode="&#x2191;" 
d="M268 56v293q0 102 1 157l-57.5 -57.5l-73.5 -73.5l-78 -76v102l88 84q112 106 157 151q148 -142 158 -151l89 -84v-102l-78 75q-35 33 -79 77.5t-53 53.5q2 -43 2 -157v-292h-76z" />
    <glyph glyph-name="arrowright" unicode="&#x2192;" 
d="M258 80l76 78l131 133q-43 -2 -155 -2h-290v74h289q112 0 155 -2l-130 133l-76 78h105l82 -88q9 -10 151 -158q-41 -42 -127 -133.5t-106 -112.5h-105z" />
    <glyph glyph-name="arrowdown" unicode="&#x2193;" 
d="M305 25l-245 234v102l78 -75q28 -28 71 -71.5t60 -59.5q-1 32 -1 85v71v294h76v-293q0 -114 -2 -157q16 16 59 58.5t73 72.5l78 76v-102l-96 -90q-14 -14 -69.5 -67t-81.5 -78z" />
    <glyph glyph-name="uni2196" unicode="&#x2196;" 
d="M480 123l-205 205q-65 65 -110 112l-1 -1q1 -31 1 -118q0 -24 -0.5 -84.5t-0.5 -91.5l-71 72l2 123l4 218l339 8l71 -72q-50 0 -134.5 -1t-108.5 -1q-10 0 -26.5 0.5t-23.5 0.5l-1 -1q71 -68 114 -111l205 -206z" />
    <glyph glyph-name="uni2197" unicode="&#x2197;" 
d="M131 123l-54 52l205 206q66 66 114 111l-1 1q-6 0 -21 -0.5t-23 -0.5q-14 0 -52 0.5t-62 0.5h-47q-14 0 -43 0.5t-45 0.5l71 72l106 -3q41 -1 119 -2t114 -3q0 -125 4 -233l2 -108l-71 -72q0 15 -0.5 45t-0.5 45v48q0 117 1 156l-1 1q-45 -47 -110 -112z" />
    <glyph glyph-name="uni2198" unicode="&#x2198;" 
d="M296 117l-121 -3l-22.5 22.5t-26.5 26t-22 22.5q73 0 172.5 1t120.5 1q-47 45 -113 111l-205 206q9 10 26.5 27t26.5 26l205 -206q81 -81 110 -112l1 1q-1 23 -1 78q0 24 1 99.5t1 116.5l71 -72l-7 -340q-33 -2 -106.5 -3t-110.5 -2z" />
    <glyph glyph-name="uni2199" unicode="&#x2199;" 
d="M437 114l-106 2q-43 1 -121.5 3.5t-110.5 2.5l-7 340l71 72q0 -41 1 -116.5t1 -99.5q0 -16 -0.5 -41.5t-0.5 -36.5l1 -1q44 46 89 91.5t74 75t77 77t75 74.5q9 -9 27 -26.5t26 -26.5l-205 -206q-66 -66 -113 -111q20 0 120.5 -1t172.5 -1z" />
    <glyph glyph-name="partialdiff" unicode="&#x2202;" 
d="M306 -12q-113 0 -180.5 71.5t-67.5 190.5t66 191t167 72q90 0 146 -69l3 2q-70 144 -291 264l80 22q141 -70 232 -187t91 -277q0 -133 -65 -206.5t-181 -73.5zM305 54q78 0 123 52t45 145q0 91 -44.5 144t-122.5 53q-79 0 -123.5 -52t-44.5 -144q0 -93 44.5 -145.5
t122.5 -52.5z" />
    <glyph glyph-name="increment" unicode="&#x2206;" 
d="M13 0l246 687h94l245 -687h-585zM122 70h367q-30 89 -90.5 264t-90.5 264h-4z" />
    <glyph glyph-name="product" unicode="&#x220f;" 
d="M70 -70v683h-68v72h608v-72h-67v-683h-83v684h-307v-684h-83z" />
    <glyph glyph-name="summation" unicode="&#x2211;" 
d="M52 -135v69l267 339q-44 58 -132 170.5t-132 170.5v71h497v-73h-395q42 -56 130 -167t130 -167q-50 -63 -138 -175.5t-128 -164.5h410v-73h-509z" />
    <glyph glyph-name="minus" unicode="&#x2212;" 
d="M65 302v70h482v-70h-482z" />
    <glyph glyph-name="radical" unicode="&#x221a;" 
d="M272 0l-151 453h-94v73h161l67 -217q11 -34 31 -105.5t31 -107.5h4q28 106 62 223l106 366h88l-216 -685h-89z" />
    <glyph glyph-name="infinity" unicode="&#x221e;" 
d="M148 138q-70 0 -105.5 48t-35.5 116q0 73 37 119.5t106 46.5q94 0 157 -111q62 111 155 111q69 0 106 -46.5t37 -119.5q0 -68 -35.5 -116t-105.5 -48q-98 0 -159 114q-60 -114 -157 -114zM155 205q68 0 117 98q-49 99 -117 99q-40 0 -62 -27.5t-22 -70.5
q0 -44 21.5 -71.5t62.5 -27.5zM457 205q41 0 62.5 27.5t21.5 71.5q0 43 -22 70.5t-62 27.5q-67 0 -117 -99q49 -98 117 -98z" />
    <glyph glyph-name="integral" unicode="&#x222b;" 
d="M120 -173q-30 0 -56 5l9 65q17 -4 41 -4q58 0 82.5 27.5t30.5 85.5l73 579q10 82 50 118.5t123 36.5q37 0 68 -4l-8 -65q-23 3 -46 3q-57 0 -81.5 -28t-31.5 -86l-64 -519q-15 -119 -53 -166.5t-137 -47.5z" />
    <glyph glyph-name="approxequal" unicode="&#x2248;" 
d="M416 159q-35 0 -105 32l-37 17q-52 24 -75 24q-27 0 -47 -17t-42 -50l-44 38q53 97 133 97q35 0 105 -32l37 -17q52 -24 75 -24q46 0 91 68l44 -38q-53 -98 -135 -98zM416 389q-35 0 -105 32l-37 17q-52 24 -75 24q-27 0 -47 -17t-42 -50l-44 38q53 97 133 97
q35 0 105 -32l37 -17q52 -24 75 -24q46 0 91 68l44 -38q-53 -98 -135 -98z" />
    <glyph glyph-name="notequal" unicode="&#x2260;" 
d="M103 60l86 147h-124v66h163l73 124h-236v67h276l84 144h79l-85 -144h128v-67h-167l-73 -124h240v-66h-280l-85 -147h-79z" />
    <glyph glyph-name="lessequal" unicode="&#x2264;" 
d="M503 133l-394 188v66l394 190v-79l-310 -141v-2l310 -142v-80zM109 0v73h394v-73h-394z" />
    <glyph glyph-name="greaterequal" unicode="&#x2265;" 
d="M109 133v80q78 35 309 142v2q-91 44 -309 141v79l394 -190v-66zM109 0v73h394v-73h-394z" />
    <glyph glyph-name="lozenge" unicode="&#x25ca;" 
d="M266 0l-213 342l213 343h78l213 -343l-213 -342h-78zM306 79l157 263l-158 263l-158 -263z" />
    <glyph glyph-name="uni25CF" unicode="&#x25cf;" 
d="M189 343q0 49 34 83t83 34t83 -34t34 -83t-34 -83t-83 -34t-83 34t-34 83z" />
    <glyph glyph-name="uniFB00" unicode="&#xfb00;" 
d="M106 0v447h-104v65h104v79q0 79 30 109t108 30h74v-66h-69q-43 0 -54.5 -15t-11.5 -58v-79h228v79q0 80 31 109.5t108 29.5h74v-66h-69q-39 0 -53 -14t-14 -59v-79h131v-65h-130v-447h-78v447h-227v-447h-78z" />
    <glyph glyph-name="fi" unicode="&#xfb01;" 
d="M117 0v447h-104v65h104v79q0 79 30 109t108 30h74v-66h-69q-43 0 -54.5 -15t-11.5 -58v-79h317v-512h-79v447h-237v-447h-78zM423 622v108h88v-108h-88z" />
    <glyph glyph-name="fl" unicode="&#xfb02;" 
d="M119 0v447h-103v65h103v79q0 80 31 109.5t108 29.5h74v-66h-69q-39 0 -53 -14t-14 -59v-79h131v-65h-130v-447h-78zM432 0v730h79v-730h-79z" />
    <glyph glyph-name="uniFB03" unicode="&#xfb03;" 
d="M49 0v447h-83v65h83v79q0 80 31 109.5t108 29.5h29v-66h-24q-39 0 -53 -14t-14 -59v-79h141v79q0 79 30 109t108 30h29v-66h-24q-43 0 -54.5 -15t-11.5 -58v-79h222v-512h-79v447h-142v-447h-78v447h-140v-447h-78zM478 622v108h88v-108h-88z" />
    <glyph glyph-name="uniFB04" unicode="&#xfb04;" 
d="M49 0v447h-83v65h83v79q0 80 31 109.5t108 29.5h29v-66h-24q-39 0 -53 -14t-14 -59v-79h141v79q0 79 30 109t108 30h29v-66h-24q-43 0 -54.5 -15t-11.5 -58v-79h85v-65h-84v-447h-78v447h-140v-447h-78zM487 0v730h79v-730h-79z" />
    <glyph glyph-name="uniFEFF" unicode="&#xfeff;" horiz-adv-x="0" 
 />
    <glyph glyph-name="i.latn_TRK" 
d="M89 0v65h196v395h-196v66h275v-461h181v-65h-456zM286 610v111h77v-111h-77z" />
    <glyph glyph-name="Ldot.latn_CAT" 
d="M109 0v685h79v-616h324v-69h-403zM414 316v111h77v-111h-77z" />
    <glyph glyph-name="ldot.latn_CAT" 
d="M78 0v65h194v600h-194v65h273v-665h183v-65h-456zM535 318v111h77v-111h-77z" />
    <glyph glyph-name="bracketleft.subs" 
d="M259 -176v572h138v-44h-75q1 -16 1 -46v-392q0 -30 -1 -45q11 1 34 1h41v-46h-138z" />
    <glyph glyph-name="bracketright.subs" 
d="M215 -176v45h43h34v44v394v45h-77v44h142v-572h-142z" />
    <glyph glyph-name="a.subs" 
d="M271 -90q-55 0 -88 26t-33 73t32.5 70t94.5 34l63 12q3 1 8.5 1.5t7.5 1l6 1.5t5 1.5t3.5 2t3 3t2 3.5t1.5 4.5v6.5q0 26 -19.5 41.5t-53.5 15.5q-66 0 -78 -63l-64 5q5 51 43.5 80.5t98.5 29.5q137 0 137 -127v-201q0 -4 0.5 -9t0.5 -6h-61v13v16q0 5 1 6h-2
q-38 -41 -109 -41zM287 -42q43 0 67 25t24 68v15q0 11 1 15q-6 -2 -17 -4t-17 -3l-48 -10q-44 -9 -61 -19.5t-17 -34.5t18.5 -38t49.5 -14z" />
    <glyph glyph-name="b.subs" 
d="M322 -92q-77 0 -113 56h-2q0 -6 0.5 -15t0.5 -14v-19h-65q1 11 1 45v422h67v-105v-75q39 56 112 56q67 0 110.5 -49t43.5 -126q0 -79 -43.5 -127.5t-111.5 -48.5zM309 -36q45 0 71 33t26 86q0 54 -26 86.5t-71 32.5q-47 0 -73.5 -32.5t-26.5 -87.5q0 -54 27 -86t73 -32z
" />
    <glyph glyph-name="c.subs" 
d="M319 -92q-75 0 -120.5 48.5t-45.5 126.5q0 79 45.5 127.5t121.5 48.5q59 0 97 -28t53 -77l-66 -14q-20 61 -84 61q-45 0 -70 -32t-25 -86q0 -55 24.5 -87t69.5 -32q69 0 86 62l64 -13q-13 -49 -52.5 -77t-97.5 -28z" />
    <glyph glyph-name="d.subs" 
d="M288 -92q-69 0 -112 48.5t-43 126.5t43.5 127t111.5 49q73 0 111 -54q-1 16 -1 49v129h68v-418v-49h-64v12q0 4 0.5 19t0.5 16h-1q-42 -55 -114 -55zM300 -36q47 0 74 32.5t27 87.5q0 52 -27.5 85t-72.5 33t-71.5 -32.5t-26.5 -86.5t26 -86.5t71 -32.5z" />
    <glyph glyph-name="e.subs" 
d="M313 -92q-80 0 -125.5 46.5t-45.5 126.5q0 77 46 127.5t122 50.5q81 0 122 -54t41 -140h-265q2 -45 31 -73t75 -28q70 0 99 53l57 -24q-47 -85 -157 -85zM209 116h194q-4 38 -27 63.5t-66 25.5q-41 0 -68.5 -25.5t-32.5 -63.5z" />
    <glyph glyph-name="f.subs" 
d="M131 -84v55h112v227h-118v55h118v36q0 51 21.5 72.5t72.5 21.5h107v-56h-91q-26 0 -36 -11q-8 -9 -8 -38v-25h135v-55h-134v-227h120v-55h-299z" />
    <glyph glyph-name="g.subs" 
d="M297 -211q-58 0 -98.5 23.5t-56.5 65.5l62 22q24 -55 95 -55q96 0 96 98q0 7 2 37h-1q-36 -56 -111 -56q-67 0 -109.5 47t-42.5 121q0 75 43.5 121t110.5 46q75 0 109 -52h1v27v19h65q-1 -23 -1 -63v-244q0 -78 -44.5 -117.5t-119.5 -39.5zM299 -19q44 0 71 31.5t27 80.5
t-26.5 79t-71.5 30q-44 0 -70 -30.5t-26 -79.5t26 -80t70 -31z" />
    <glyph glyph-name="h.subs" 
d="M152 -84v467h68v-120q0 -9 -0.5 -30t-0.5 -26q34 52 105 52q56 0 89 -34.5t33 -99.5v-209h-67v168q0 60 -16 88.5t-58 28.5q-85 0 -85 -120v-165h-68z" />
    <glyph glyph-name="i.subs" 
d="M171 -84v55h119v226h-119v56h186v-282h107v-55h-293zM279 314v69h81v-69h-81z" />
    <glyph glyph-name="j.subs" 
d="M152 -205v56h111q30 0 36.5 10.5t6.5 48.5v287h-158v56h226v-357q0 -59 -23.5 -80t-84.5 -21h-114zM297 313v70h81v-70h-81z" />
    <glyph glyph-name="k.subs" 
d="M182 -84v467h67v-176q0 -22 -0.5 -58.5t-0.5 -48.5q17 17 78 82l65 71h85l-145 -149l154 -188h-87l-113 144l-36 -36v-108h-67z" />
    <glyph glyph-name="l.subs" 
d="M155 -84v56h117v355h-117v56h185v-411h108v-56h-293z" />
    <glyph glyph-name="m.subs" 
d="M57 -84v279q0 35 -1 58h65v-23q0 -19 -1 -26h2q12 24 39.5 39.5t62.5 15.5q73 0 102 -62q36 62 114 62q120 0 120 -141v-202h-68v187q0 98 -69 98q-80 0 -80 -117v-168h-68v185q0 100 -69 100q-81 0 -81 -121v-164h-68z" />
    <glyph glyph-name="n.subs" 
d="M162 -84v270q0 50 -1 67h66v-14q0 -26 -1 -34h1q37 54 107 54q57 0 89.5 -34.5t32.5 -100.5v-208h-67v165q0 63 -16 91.5t-57 28.5q-86 0 -86 -121v-164h-68z" />
    <glyph glyph-name="o.subs" 
d="M305 -92q-76 0 -123.5 48.5t-47.5 126.5q0 79 48 127.5t125 48.5q76 0 123.5 -48.5t47.5 -127.5q0 -78 -48 -126.5t-125 -48.5zM305 -35q48 0 75 31.5t27 86.5q0 54 -27 86.5t-74 32.5q-48 0 -75 -32.5t-27 -86.5q0 -55 26.5 -86.5t74.5 -31.5z" />
    <glyph glyph-name="p.subs" 
d="M152 -205v419q0 7 -0.5 20t-0.5 19h66v-18v-30h1q39 54 111 54q69 0 112 -48.5t43 -126.5q0 -80 -43 -128t-112 -48q-73 0 -110 51h-1q1 -21 1 -63v-101h-67zM317 -36q44 0 70.5 33t26.5 86q0 54 -26.5 86t-71.5 32q-46 0 -72.5 -32t-26.5 -86t26.5 -86.5t73.5 -32.5z
" />
    <glyph glyph-name="q.subs" 
d="M398 -205v111v54q-36 -52 -110 -52q-69 0 -112 48t-43 127q0 78 43.5 127t112.5 49q70 0 112 -54q-1 16 -1 34v14h65q-1 -13 -1 -60v-398h-66zM301 -36q47 0 73.5 32.5t26.5 87.5q0 52 -27.5 85t-72.5 33q-46 0 -72 -33t-26 -86q0 -54 26 -86.5t72 -32.5z" />
    <glyph glyph-name="r.subs" 
d="M122 -84v55h119v227h-119v55h177v-74h2q12 41 39 57.5t77 16.5h57v-63h-57q-67 0 -88.5 -31.5t-21.5 -109.5v-78h122v-55h-307z" />
    <glyph glyph-name="s.subs" 
d="M308 -92q-122 0 -144 93l61 16q20 -56 87 -56q29 0 47 12t18 32q0 19 -15 29.5t-47 17.5l-39 9q-49 12 -74 33.5t-25 63.5q0 47 36.5 74t92.5 27q52 0 86.5 -22t45.5 -64l-59 -17q-13 48 -74 48q-27 0 -43.5 -11t-16.5 -29q0 -20 13.5 -29.5t46.5 -16.5l40 -9
q51 -12 76 -34t25 -63q0 -50 -38 -77t-100 -27z" />
    <glyph glyph-name="t.subs" 
d="M473 -84h-125q-51 0 -73 21.5t-22 72.5v189h-110v54h110v92h67v-92h154v-55h-154v-179q0 -29 7 -37q8 -10 35 -10h111v-56z" />
    <glyph glyph-name="u.subs" 
d="M279 -92q-56 0 -89 31.5t-33 95.5v218h68v-201q0 -88 73 -88q42 0 63 29t21 81v179h67v-287q0 -31 1 -50h-65v15v28h-1q-38 -51 -105 -51z" />
    <glyph glyph-name="v.subs" 
d="M270 -84l-127 337h74l50 -150q35 -105 39 -118h2q20 68 39 118l51 150h71l-128 -337h-71z" />
    <glyph glyph-name="w.subs" 
d="M157 -84l-100 337h69l38 -143q6 -23 17 -70.5t14 -58.5h2q22 79 33 126l39 146h75l39 -145q14 -53 31 -127h2l33 130l38 142h68l-103 -337h-75l-42 154q-14 54 -27 120h-2q-26 -103 -31 -122l-42 -152h-76z" />
    <glyph glyph-name="x.subs" 
d="M141 -84l125 174l-115 163h81l75 -117l77 117h78l-116 -163l126 -174h-82l-85 126l-85 -126h-79z" />
    <glyph glyph-name="y.subs" 
d="M210 -211q-8 0 -26 2l-6 53q16 -2 22 -2q28 0 47 16.5t31 57.5l-130 337h74l51 -147q19 -52 39 -117h2q26 83 39 120l48 144h71l-137 -362q-21 -55 -48 -78.5t-77 -23.5z" />
    <glyph glyph-name="z.subs" 
d="M169 -84v53l188 227v1q-20 -1 -58 -1h-122v57h261v-54l-188 -228v-1q14 0 39.5 0.5t41.5 0.5h115v-55h-277z" />
    <glyph glyph-name="bracketleft.sups" 
d="M259 256v572h138v-44h-75q1 -16 1 -46v-392q0 -30 -1 -45q11 1 34 1h41v-46h-138z" />
    <glyph glyph-name="bracketright.sups" 
d="M215 256v45h43h34v44v394v45h-77v44h142v-572h-142z" />
    <glyph glyph-name="a.sups" 
d="M271 342q-55 0 -88 26t-33 73t32.5 70t94.5 34l63 12q3 1 8.5 1.5t7.5 1l6 1.5t5 1.5t3.5 2t3 3t2 3.5t1.5 4.5v6.5q0 26 -19.5 41.5t-53.5 15.5q-66 0 -78 -63l-64 5q5 51 43.5 80.5t98.5 29.5q137 0 137 -127v-201q0 -4 0.5 -9t0.5 -6h-61v13v16q0 5 1 6h-2
q-38 -41 -109 -41zM287 390q43 0 67 25t24 68v15q0 11 1 15q-6 -2 -17 -4t-17 -3l-48 -10q-44 -9 -61 -19.5t-17 -34.5t18.5 -38t49.5 -14z" />
    <glyph glyph-name="b.sups" 
d="M322 340q-77 0 -113 56h-2q0 -6 0.5 -15t0.5 -14v-19h-65q1 11 1 45v422h67v-105v-75q39 56 112 56q67 0 110.5 -49t43.5 -126q0 -79 -43.5 -127.5t-111.5 -48.5zM309 396q45 0 71 33t26 86q0 54 -26 86.5t-71 32.5q-47 0 -73.5 -32.5t-26.5 -87.5q0 -54 27 -86t73 -32z
" />
    <glyph glyph-name="c.sups" 
d="M319 340q-75 0 -120.5 48.5t-45.5 126.5q0 79 45.5 127.5t121.5 48.5q59 0 97 -28t53 -77l-66 -14q-20 61 -84 61q-45 0 -70 -32t-25 -86q0 -55 24.5 -87t69.5 -32q69 0 86 62l64 -13q-13 -49 -52.5 -77t-97.5 -28z" />
    <glyph glyph-name="d.sups" 
d="M288 340q-69 0 -112 48.5t-43 126.5t43.5 127t111.5 49q73 0 111 -54q-1 16 -1 49v129h68v-418v-49h-64v12q0 4 0.5 19t0.5 16h-1q-42 -55 -114 -55zM300 396q47 0 74 32.5t27 87.5q0 52 -27.5 85t-72.5 33t-71.5 -32.5t-26.5 -86.5t26 -86.5t71 -32.5z" />
    <glyph glyph-name="e.sups" 
d="M313 340q-80 0 -125.5 46.5t-45.5 126.5q0 77 46 127.5t122 50.5q81 0 122 -54t41 -140h-265q2 -45 31 -73t75 -28q70 0 99 53l57 -24q-47 -85 -157 -85zM209 548h194q-4 38 -27 63.5t-66 25.5q-41 0 -68.5 -25.5t-32.5 -63.5z" />
    <glyph glyph-name="f.sups" 
d="M131 348v55h112v227h-118v55h118v36q0 51 21.5 72.5t72.5 21.5h107v-56h-91q-26 0 -36 -11q-8 -9 -8 -38v-25h135v-55h-134v-227h120v-55h-299z" />
    <glyph glyph-name="g.sups" 
d="M297 221q-58 0 -98.5 23.5t-56.5 65.5l62 22q24 -55 95 -55q96 0 96 98q0 7 2 37h-1q-36 -56 -111 -56q-67 0 -109.5 47t-42.5 121q0 75 43.5 121t110.5 46q75 0 109 -52h1v27v19h65q-1 -23 -1 -63v-244q0 -78 -44.5 -117.5t-119.5 -39.5zM299 413q44 0 71 31.5t27 80.5
t-26.5 79t-71.5 30q-44 0 -70 -30.5t-26 -79.5t26 -80t70 -31z" />
    <glyph glyph-name="h.sups" 
d="M152 348v467h68v-120q0 -9 -0.5 -30t-0.5 -26q34 52 105 52q56 0 89 -34.5t33 -99.5v-209h-67v168q0 60 -16 88.5t-58 28.5q-85 0 -85 -120v-165h-68z" />
    <glyph glyph-name="i.sups" 
d="M171 348v55h119v226h-119v56h186v-282h107v-55h-293zM279 746v69h81v-69h-81z" />
    <glyph glyph-name="j.sups" 
d="M152 227v56h111q30 0 36.5 10.5t6.5 48.5v287h-158v56h226v-357q0 -59 -23.5 -80t-84.5 -21h-114zM297 745v70h81v-70h-81z" />
    <glyph glyph-name="k.sups" 
d="M182 348v467h67v-176q0 -22 -0.5 -58.5t-0.5 -48.5q17 17 78 82l65 71h85l-145 -149l154 -188h-87l-113 144l-36 -36v-108h-67z" />
    <glyph glyph-name="l.sups" 
d="M155 348v56h117v355h-117v56h185v-411h108v-56h-293z" />
    <glyph glyph-name="m.sups" 
d="M57 348v279q0 35 -1 58h65v-23q0 -19 -1 -26h2q12 24 39.5 39.5t62.5 15.5q73 0 102 -62q36 62 114 62q120 0 120 -141v-202h-68v187q0 98 -69 98q-80 0 -80 -117v-168h-68v185q0 100 -69 100q-81 0 -81 -121v-164h-68z" />
    <glyph glyph-name="o.sups" 
d="M305 340q-76 0 -123.5 48.5t-47.5 126.5q0 79 48 127.5t125 48.5q76 0 123.5 -48.5t47.5 -127.5q0 -78 -48 -126.5t-125 -48.5zM305 397q48 0 75 31.5t27 86.5q0 54 -27 86.5t-74 32.5q-48 0 -75 -32.5t-27 -86.5q0 -55 26.5 -86.5t74.5 -31.5z" />
    <glyph glyph-name="p.sups" 
d="M152 227v419q0 7 -0.5 20t-0.5 19h66v-18v-30h1q39 54 111 54q69 0 112 -48.5t43 -126.5q0 -80 -43 -128t-112 -48q-73 0 -110 51h-1q1 -21 1 -63v-101h-67zM317 396q44 0 70.5 33t26.5 86q0 54 -26.5 86t-71.5 32q-46 0 -72.5 -32t-26.5 -86t26.5 -86.5t73.5 -32.5z" />
    <glyph glyph-name="q.sups" 
d="M398 227v111v54q-36 -52 -110 -52q-69 0 -112 48t-43 127q0 78 43.5 127t112.5 49q70 0 112 -54q-1 16 -1 34v14h65q-1 -13 -1 -60v-398h-66zM301 396q47 0 73.5 32.5t26.5 87.5q0 52 -27.5 85t-72.5 33q-46 0 -72 -33t-26 -86q0 -54 26 -86.5t72 -32.5z" />
    <glyph glyph-name="r.sups" 
d="M122 348v55h119v227h-119v55h177v-74h2q12 41 39 57.5t77 16.5h57v-63h-57q-67 0 -88.5 -31.5t-21.5 -109.5v-78h122v-55h-307z" />
    <glyph glyph-name="s.sups" 
d="M308 340q-122 0 -144 93l61 16q20 -56 87 -56q29 0 47 12t18 32q0 19 -15 29.5t-47 17.5l-39 9q-49 12 -74 33.5t-25 63.5q0 47 36.5 74t92.5 27q52 0 86.5 -22t45.5 -64l-59 -17q-13 48 -74 48q-27 0 -43.5 -11t-16.5 -29q0 -20 13.5 -29.5t46.5 -16.5l40 -9
q51 -12 76 -34t25 -63q0 -50 -38 -77t-100 -27z" />
    <glyph glyph-name="t.sups" 
d="M473 348h-125q-51 0 -73 21.5t-22 72.5v189h-110v54h110v92h67v-92h154v-55h-154v-179q0 -29 7 -37q8 -10 35 -10h111v-56z" />
    <glyph glyph-name="u.sups" 
d="M279 340q-56 0 -89 31.5t-33 95.5v218h68v-201q0 -88 73 -88q42 0 63 29t21 81v179h67v-287q0 -31 1 -50h-65v15v28h-1q-38 -51 -105 -51z" />
    <glyph glyph-name="v.sups" 
d="M270 348l-127 337h74l50 -150q35 -105 39 -118h2q20 68 39 118l51 150h71l-128 -337h-71z" />
    <glyph glyph-name="w.sups" 
d="M157 348l-100 337h69l38 -143q6 -23 17 -70.5t14 -58.5h2q22 79 33 126l39 146h75l39 -145q14 -53 31 -127h2l33 130l38 142h68l-103 -337h-75l-42 154q-14 54 -27 120h-2q-26 -103 -31 -122l-42 -152h-76z" />
    <glyph glyph-name="x.sups" 
d="M141 348l125 174l-115 163h81l75 -117l77 117h78l-116 -163l126 -174h-82l-85 126l-85 -126h-79z" />
    <glyph glyph-name="y.sups" 
d="M210 221q-8 0 -26 2l-6 53q16 -2 22 -2q28 0 47 16.5t31 57.5l-130 337h74l51 -147q19 -52 39 -117h2q26 83 39 120l48 144h71l-137 -362q-21 -55 -48 -78.5t-77 -23.5z" />
    <glyph glyph-name="z.sups" 
d="M169 348v53l188 227v1q-20 -1 -58 -1h-122v57h261v-54l-188 -228v-1q14 0 39.5 0.5t41.5 0.5h115v-55h-277z" />
    <glyph glyph-name="zero.numr" 
d="M306 210q-167 0 -167 242q0 111 40.5 178.5t126.5 67.5q87 0 127.5 -68t40.5 -178q0 -111 -41 -176.5t-127 -65.5zM306 270q91 0 91 183q0 88 -20 136.5t-71 48.5q-50 0 -70 -48.5t-20 -137.5q0 -182 90 -182zM266 413v81h82v-81h-82z" />
    <glyph glyph-name="one.numr" 
d="M181 218v55h103v283h-115v47q62 3 89.5 20.5t34.5 61.5h58v-412h95v-55h-265z" />
    <glyph glyph-name="two.numr" 
d="M137 218v56q92 86 134 121q60 49 82.5 83.5t22.5 75.5q0 37 -20.5 59t-57.5 22q-82 0 -87 -99l-71 2q2 71 44.5 115.5t113.5 44.5q70 0 112 -38t42 -104q0 -51 -28.5 -94t-82.5 -87q-27 -23 -50 -42t-40.5 -33.5t-25.5 -21.5v-1q3 0 32.5 0.5t45.5 0.5h150v-60h-316z" />
    <glyph glyph-name="three.numr" 
d="M296 210q-76 0 -117 39t-47 110l71 4q4 -43 27.5 -69.5t66.5 -26.5q41 0 65.5 25t24.5 64q0 80 -105 80h-18v59q2 0 3 -0.5t3 -0.5q104 0 104 74q0 33 -20.5 51.5t-56.5 18.5q-38 0 -60 -23t-24 -60l-69 6q5 61 46 99t108 38q66 0 106.5 -33.5t40.5 -89.5q0 -75 -80 -105
v-1q45 -11 71 -41.5t26 -74.5q0 -64 -46.5 -103.5t-119.5 -39.5z" />
    <glyph glyph-name="four.numr" 
d="M326 218v98h-202v54l109 315h67l-101 -301l-3 -10h130v181h63v-181h80v-58h-80v-98h-63z" />
    <glyph glyph-name="five.numr" 
d="M296 210q-71 0 -110.5 34.5t-48.5 95.5l71 5q7 -33 31 -55t58 -22q42 0 66.5 27t24.5 74q0 46 -24.5 73.5t-66.5 27.5q-60 0 -81 -50l-67 6l22 259h263v-61h-206l-8 -80q-2 -9 -3 -26.5t-2 -26.5q40 38 97 38q68 0 108.5 -44.5t40.5 -113.5q0 -72 -45.5 -116.5
t-119.5 -44.5z" />
    <glyph glyph-name="six.numr" 
d="M301 210q-86 0 -129 60t-43 168q0 119 46 189.5t134 70.5q61 0 99.5 -35.5t47.5 -92.5l-72 -3q-15 72 -76 72q-54 0 -81 -51t-30 -125q1 -1 2 -1q39 62 117 62q67 0 107 -43.5t40 -112.5t-44.5 -113.5t-117.5 -44.5zM301 267q41 0 65 27.5t24 72.5t-24 71t-66 26
t-66.5 -26.5t-24.5 -70.5q0 -45 25 -72.5t67 -27.5z" />
    <glyph glyph-name="seven.numr" 
d="M280 218h-76q25 101 71 210t102 191v2q-11 0 -33 -0.5t-34 -0.5h-168v65h310v-59q-52 -76 -99 -190.5t-73 -217.5z" />
    <glyph glyph-name="eight.numr" 
d="M306 210q-74 0 -120.5 37.5t-46.5 100.5q0 86 92 119v1q-76 36 -76 106q0 54 41.5 89t109.5 35t109 -34.5t41 -89.5q0 -71 -77 -105v-2q94 -35 94 -119q0 -63 -47 -100.5t-120 -37.5zM306 267q42 0 66.5 24t24.5 63q0 37 -24.5 60t-66.5 23t-67.5 -23t-25.5 -60
q0 -39 25.5 -63t67.5 -24zM306 495q37 0 58.5 20t21.5 52t-21.5 51.5t-58.5 19.5q-38 0 -59.5 -19t-21.5 -52t21.5 -52.5t59.5 -19.5z" />
    <glyph glyph-name="nine.numr" 
d="M291 210q-132 0 -150 128l70 3q16 -74 80 -74q46 0 75.5 50.5t29.5 128.5v1q-38 -60 -115 -60q-66 0 -105.5 42t-39.5 111q0 67 44 112.5t115 45.5q84 0 127.5 -60.5t43.5 -170.5q0 -120 -44 -188.5t-131 -68.5zM296 445q42 0 66.5 26.5t24.5 69.5t-24.5 70t-66.5 27
q-41 0 -65.5 -27t-24.5 -70t24 -69.5t66 -26.5z" />
    <glyph glyph-name="bracketleft.numr" 
d="M259 126v572h138v-44h-75q1 -16 1 -46v-392q0 -30 -1 -45q11 1 34 1h41v-46h-138z" />
    <glyph glyph-name="bracketright.numr" 
d="M215 126v45h43h34v44v394v45h-77v44h142v-572h-142z" />
    <glyph glyph-name="a.numr" 
d="M271 212q-55 0 -88 26t-33 73t32.5 70t94.5 34l63 12q3 1 8.5 1.5t7.5 1l6 1.5t5 1.5t3.5 2t3 3t2 3.5t1.5 4.5v6.5q0 26 -19.5 41.5t-53.5 15.5q-66 0 -78 -63l-64 5q5 51 43.5 80.5t98.5 29.5q137 0 137 -127v-201q0 -4 0.5 -9t0.5 -6h-61v13v16q0 5 1 6h-2
q-38 -41 -109 -41zM287 260q43 0 67 25t24 68v15q0 11 1 15q-6 -2 -17 -4t-17 -3l-48 -10q-44 -9 -61 -19.5t-17 -34.5t18.5 -38t49.5 -14z" />
    <glyph glyph-name="b.numr" 
d="M322 210q-77 0 -113 56h-2q0 -6 0.5 -15t0.5 -14v-19h-65q1 11 1 45v422h67v-105v-75q39 56 112 56q67 0 110.5 -49t43.5 -126q0 -79 -43.5 -127.5t-111.5 -48.5zM309 266q45 0 71 33t26 86q0 54 -26 86.5t-71 32.5q-47 0 -73.5 -32.5t-26.5 -87.5q0 -54 27 -86t73 -32z
" />
    <glyph glyph-name="c.numr" 
d="M319 210q-75 0 -120.5 48.5t-45.5 126.5q0 79 45.5 127.5t121.5 48.5q59 0 97 -28t53 -77l-66 -14q-20 61 -84 61q-45 0 -70 -32t-25 -86q0 -55 24.5 -87t69.5 -32q69 0 86 62l64 -13q-13 -49 -52.5 -77t-97.5 -28z" />
    <glyph glyph-name="d.numr" 
d="M288 210q-69 0 -112 48.5t-43 126.5t43.5 127t111.5 49q73 0 111 -54q-1 16 -1 49v129h68v-418v-49h-64v12q0 4 0.5 19t0.5 16h-1q-42 -55 -114 -55zM300 266q47 0 74 32.5t27 87.5q0 52 -27.5 85t-72.5 33t-71.5 -32.5t-26.5 -86.5t26 -86.5t71 -32.5z" />
    <glyph glyph-name="e.numr" 
d="M313 210q-80 0 -125.5 46.5t-45.5 126.5q0 77 46 127.5t122 50.5q81 0 122 -54t41 -140h-265q2 -45 31 -73t75 -28q70 0 99 53l57 -24q-47 -85 -157 -85zM209 418h194q-4 38 -27 63.5t-66 25.5q-41 0 -68.5 -25.5t-32.5 -63.5z" />
    <glyph glyph-name="f.numr" 
d="M131 218v55h112v227h-118v55h118v36q0 51 21.5 72.5t72.5 21.5h107v-56h-91q-26 0 -36 -11q-8 -9 -8 -38v-25h135v-55h-134v-227h120v-55h-299z" />
    <glyph glyph-name="g.numr" 
d="M297 91q-58 0 -98.5 23.5t-56.5 65.5l62 22q24 -55 95 -55q96 0 96 98q0 7 2 37h-1q-36 -56 -111 -56q-67 0 -109.5 47t-42.5 121q0 75 43.5 121t110.5 46q75 0 109 -52h1v27v19h65q-1 -23 -1 -63v-244q0 -78 -44.5 -117.5t-119.5 -39.5zM299 283q44 0 71 31.5t27 80.5
t-26.5 79t-71.5 30q-44 0 -70 -30.5t-26 -79.5t26 -80t70 -31z" />
    <glyph glyph-name="h.numr" 
d="M152 218v467h68v-120q0 -9 -0.5 -30t-0.5 -26q34 52 105 52q56 0 89 -34.5t33 -99.5v-209h-67v168q0 60 -16 88.5t-58 28.5q-85 0 -85 -120v-165h-68z" />
    <glyph glyph-name="i.numr" 
d="M171 218v55h119v226h-119v56h186v-282h107v-55h-293zM279 616v69h81v-69h-81z" />
    <glyph glyph-name="j.numr" 
d="M152 97v56h111q30 0 36.5 10.5t6.5 48.5v287h-158v56h226v-357q0 -59 -23.5 -80t-84.5 -21h-114zM297 615v70h81v-70h-81z" />
    <glyph glyph-name="k.numr" 
d="M182 218v467h67v-176q0 -22 -0.5 -58.5t-0.5 -48.5q17 17 78 82l65 71h85l-145 -149l154 -188h-87l-113 144l-36 -36v-108h-67z" />
    <glyph glyph-name="l.numr" 
d="M155 218v56h117v355h-117v56h185v-411h108v-56h-293z" />
    <glyph glyph-name="m.numr" 
d="M57 218v279q0 35 -1 58h65v-23q0 -19 -1 -26h2q12 24 39.5 39.5t62.5 15.5q73 0 102 -62q36 62 114 62q120 0 120 -141v-202h-68v187q0 98 -69 98q-80 0 -80 -117v-168h-68v185q0 100 -69 100q-81 0 -81 -121v-164h-68z" />
    <glyph glyph-name="n.numr" 
d="M162 218v270q0 50 -1 67h66v-14q0 -26 -1 -34h1q37 54 107 54q57 0 89.5 -34.5t32.5 -100.5v-208h-67v165q0 63 -16 91.5t-57 28.5q-86 0 -86 -121v-164h-68z" />
    <glyph glyph-name="o.numr" 
d="M305 210q-76 0 -123.5 48.5t-47.5 126.5q0 79 48 127.5t125 48.5q76 0 123.5 -48.5t47.5 -127.5q0 -78 -48 -126.5t-125 -48.5zM305 267q48 0 75 31.5t27 86.5q0 54 -27 86.5t-74 32.5q-48 0 -75 -32.5t-27 -86.5q0 -55 26.5 -86.5t74.5 -31.5z" />
    <glyph glyph-name="p.numr" 
d="M152 97v419q0 7 -0.5 20t-0.5 19h66v-18v-30h1q39 54 111 54q69 0 112 -48.5t43 -126.5q0 -80 -43 -128t-112 -48q-73 0 -110 51h-1q1 -21 1 -63v-101h-67zM317 266q44 0 70.5 33t26.5 86q0 54 -26.5 86t-71.5 32q-46 0 -72.5 -32t-26.5 -86t26.5 -86.5t73.5 -32.5z" />
    <glyph glyph-name="q.numr" 
d="M398 97v111v54q-36 -52 -110 -52q-69 0 -112 48t-43 127q0 78 43.5 127t112.5 49q70 0 112 -54q-1 16 -1 34v14h65q-1 -13 -1 -60v-398h-66zM301 266q47 0 73.5 32.5t26.5 87.5q0 52 -27.5 85t-72.5 33q-46 0 -72 -33t-26 -86q0 -54 26 -86.5t72 -32.5z" />
    <glyph glyph-name="r.numr" 
d="M122 218v55h119v227h-119v55h177v-74h2q12 41 39 57.5t77 16.5h57v-63h-57q-67 0 -88.5 -31.5t-21.5 -109.5v-78h122v-55h-307z" />
    <glyph glyph-name="s.numr" 
d="M308 210q-122 0 -144 93l61 16q20 -56 87 -56q29 0 47 12t18 32q0 19 -15 29.5t-47 17.5l-39 9q-49 12 -74 33.5t-25 63.5q0 47 36.5 74t92.5 27q52 0 86.5 -22t45.5 -64l-59 -17q-13 48 -74 48q-27 0 -43.5 -11t-16.5 -29q0 -20 13.5 -29.5t46.5 -16.5l40 -9
q51 -12 76 -34t25 -63q0 -50 -38 -77t-100 -27z" />
    <glyph glyph-name="t.numr" 
d="M473 218h-125q-51 0 -73 21.5t-22 72.5v189h-110v54h110v92h67v-92h154v-55h-154v-179q0 -29 7 -37q8 -10 35 -10h111v-56z" />
    <glyph glyph-name="u.numr" 
d="M279 210q-56 0 -89 31.5t-33 95.5v218h68v-201q0 -88 73 -88q42 0 63 29t21 81v179h67v-287q0 -31 1 -50h-65v15v28h-1q-38 -51 -105 -51z" />
    <glyph glyph-name="v.numr" 
d="M270 218l-127 337h74l50 -150q35 -105 39 -118h2q20 68 39 118l51 150h71l-128 -337h-71z" />
    <glyph glyph-name="w.numr" 
d="M157 218l-100 337h69l38 -143q6 -23 17 -70.5t14 -58.5h2q22 79 33 126l39 146h75l39 -145q14 -53 31 -127h2l33 130l38 142h68l-103 -337h-75l-42 154q-14 54 -27 120h-2q-26 -103 -31 -122l-42 -152h-76z" />
    <glyph glyph-name="x.numr" 
d="M141 218l125 174l-115 163h81l75 -117l77 117h78l-116 -163l126 -174h-82l-85 126l-85 -126h-79z" />
    <glyph glyph-name="y.numr" 
d="M210 91q-8 0 -26 2l-6 53q16 -2 22 -2q28 0 47 16.5t31 57.5l-130 337h74l51 -147q19 -52 39 -117h2q26 83 39 120l48 144h71l-137 -362q-21 -55 -48 -78.5t-77 -23.5z" />
    <glyph glyph-name="z.numr" 
d="M169 218v53l188 227v1q-20 -1 -58 -1h-122v57h261v-54l-188 -228v-1q14 0 39.5 0.5t41.5 0.5h115v-55h-277z" />
    <glyph glyph-name="uni208D.numr" 
d="M397 125l-53 -5q-101 137 -101 288q0 150 101 287l53 -5q-83 -131 -83 -282q0 -152 83 -283z" />
    <glyph glyph-name="uni208E.numr" 
d="M268 121l-53 4q84 132 84 283t-83 282l53 4q101 -132 101 -286q0 -152 -102 -287z" />
    <glyph glyph-name="zero.dnom" 
d="M306 -8q-167 0 -167 242q0 111 40.5 178.5t126.5 67.5q87 0 127.5 -68t40.5 -178q0 -111 -41 -176.5t-127 -65.5zM306 52q91 0 91 183q0 88 -20 136.5t-71 48.5q-50 0 -70 -48.5t-20 -137.5q0 -182 90 -182zM266 195v81h82v-81h-82z" />
    <glyph glyph-name="one.dnom" 
d="M181 0v55h103v283h-115v47q62 3 89.5 20.5t34.5 61.5h58v-412h95v-55h-265z" />
    <glyph glyph-name="two.dnom" 
d="M137 0v56q92 86 134 121q60 49 82.5 83.5t22.5 75.5q0 37 -20.5 59t-57.5 22q-82 0 -87 -99l-71 2q2 71 44.5 115.5t113.5 44.5q70 0 112 -38t42 -104q0 -51 -28.5 -94t-82.5 -87q-27 -23 -50 -42t-40.5 -33.5t-25.5 -21.5v-1q3 0 32.5 0.5t45.5 0.5h150v-60h-316z" />
    <glyph glyph-name="three.dnom" 
d="M296 -8q-76 0 -117 39t-47 110l71 4q4 -43 27.5 -69.5t66.5 -26.5q41 0 65.5 25t24.5 64q0 80 -105 80h-18v59q2 0 3 -0.5t3 -0.5q104 0 104 74q0 33 -20.5 51.5t-56.5 18.5q-38 0 -60 -23t-24 -60l-69 6q5 61 46 99t108 38q66 0 106.5 -33.5t40.5 -89.5q0 -75 -80 -105
v-1q45 -11 71 -41.5t26 -74.5q0 -64 -46.5 -103.5t-119.5 -39.5z" />
    <glyph glyph-name="four.dnom" 
d="M326 0v98h-202v54l109 315h67l-101 -301l-3 -10h130v181h63v-181h80v-58h-80v-98h-63z" />
    <glyph glyph-name="five.dnom" 
d="M296 -8q-71 0 -110.5 34.5t-48.5 95.5l71 5q7 -33 31 -55t58 -22q42 0 66.5 27t24.5 74q0 46 -24.5 73.5t-66.5 27.5q-60 0 -81 -50l-67 6l22 259h263v-61h-206l-8 -80q-2 -9 -3 -26.5t-2 -26.5q40 38 97 38q68 0 108.5 -44.5t40.5 -113.5q0 -72 -45.5 -116.5
t-119.5 -44.5z" />
    <glyph glyph-name="six.dnom" 
d="M301 -8q-86 0 -129 60t-43 168q0 119 46 189.5t134 70.5q61 0 99.5 -35.5t47.5 -92.5l-72 -3q-15 72 -76 72q-54 0 -81 -51t-30 -125q1 -1 2 -1q39 62 117 62q67 0 107 -43.5t40 -112.5t-44.5 -113.5t-117.5 -44.5zM301 49q41 0 65 27.5t24 72.5t-24 71t-66 26
t-66.5 -26.5t-24.5 -70.5q0 -45 25 -72.5t67 -27.5z" />
    <glyph glyph-name="seven.dnom" 
d="M280 0h-76q25 101 71 210t102 191v2q-11 0 -33 -0.5t-34 -0.5h-168v65h310v-59q-52 -76 -99 -190.5t-73 -217.5z" />
    <glyph glyph-name="eight.dnom" 
d="M306 -8q-74 0 -120.5 37.5t-46.5 100.5q0 86 92 119v1q-76 36 -76 106q0 54 41.5 89t109.5 35t109 -34.5t41 -89.5q0 -71 -77 -105v-2q94 -35 94 -119q0 -63 -47 -100.5t-120 -37.5zM306 49q42 0 66.5 24t24.5 63q0 37 -24.5 60t-66.5 23t-67.5 -23t-25.5 -60
q0 -39 25.5 -63t67.5 -24zM306 277q37 0 58.5 20t21.5 52t-21.5 51.5t-58.5 19.5q-38 0 -59.5 -19t-21.5 -52t21.5 -52.5t59.5 -19.5z" />
    <glyph glyph-name="nine.dnom" 
d="M291 -8q-132 0 -150 128l70 3q16 -74 80 -74q46 0 75.5 50.5t29.5 128.5v1q-38 -60 -115 -60q-66 0 -105.5 42t-39.5 111q0 67 44 112.5t115 45.5q84 0 127.5 -60.5t43.5 -170.5q0 -120 -44 -188.5t-131 -68.5zM296 227q42 0 66.5 26.5t24.5 69.5t-24.5 70t-66.5 27
q-41 0 -65.5 -27t-24.5 -70t24 -69.5t66 -26.5z" />
    <glyph glyph-name="bracketleft.dnom" 
d="M259 -92v572h138v-44h-75q1 -16 1 -46v-392q0 -30 -1 -45q11 1 34 1h41v-46h-138z" />
    <glyph glyph-name="bracketright.dnom" 
d="M215 -92v45h43h34v44v394v45h-77v44h142v-572h-142z" />
    <glyph glyph-name="a.dnom" 
d="M271 -6q-55 0 -88 26t-33 73t32.5 70t94.5 34l63 12q3 1 8.5 1.5t7.5 1l6 1.5t5 1.5t3.5 2t3 3t2 3.5t1.5 4.5v6.5q0 26 -19.5 41.5t-53.5 15.5q-66 0 -78 -63l-64 5q5 51 43.5 80.5t98.5 29.5q137 0 137 -127v-201q0 -4 0.5 -9t0.5 -6h-61v13v16q0 5 1 6h-2
q-38 -41 -109 -41zM287 42q43 0 67 25t24 68v15q0 11 1 15q-6 -2 -17 -4t-17 -3l-48 -10q-44 -9 -61 -19.5t-17 -34.5t18.5 -38t49.5 -14z" />
    <glyph glyph-name="b.dnom" 
d="M322 -8q-77 0 -113 56h-2q0 -6 0.5 -15t0.5 -14v-19h-65q1 11 1 45v422h67v-105v-75q39 56 112 56q67 0 110.5 -49t43.5 -126q0 -79 -43.5 -127.5t-111.5 -48.5zM309 48q45 0 71 33t26 86q0 54 -26 86.5t-71 32.5q-47 0 -73.5 -32.5t-26.5 -87.5q0 -54 27 -86t73 -32z
" />
    <glyph glyph-name="c.dnom" 
d="M319 -8q-75 0 -120.5 48.5t-45.5 126.5q0 79 45.5 127.5t121.5 48.5q59 0 97 -28t53 -77l-66 -14q-20 61 -84 61q-45 0 -70 -32t-25 -86q0 -55 24.5 -87t69.5 -32q69 0 86 62l64 -13q-13 -49 -52.5 -77t-97.5 -28z" />
    <glyph glyph-name="d.dnom" 
d="M288 -8q-69 0 -112 48.5t-43 126.5t43.5 127t111.5 49q73 0 111 -54q-1 16 -1 49v129h68v-418v-49h-64v12q0 4 0.5 19t0.5 16h-1q-42 -55 -114 -55zM300 48q47 0 74 32.5t27 87.5q0 52 -27.5 85t-72.5 33t-71.5 -32.5t-26.5 -86.5t26 -86.5t71 -32.5z" />
    <glyph glyph-name="e.dnom" 
d="M313 -8q-80 0 -125.5 46.5t-45.5 126.5q0 77 46 127.5t122 50.5q81 0 122 -54t41 -140h-265q2 -45 31 -73t75 -28q70 0 99 53l57 -24q-47 -85 -157 -85zM209 200h194q-4 38 -27 63.5t-66 25.5q-41 0 -68.5 -25.5t-32.5 -63.5z" />
    <glyph glyph-name="f.dnom" 
d="M131 0v55h112v227h-118v55h118v36q0 51 21.5 72.5t72.5 21.5h107v-56h-91q-26 0 -36 -11q-8 -9 -8 -38v-25h135v-55h-134v-227h120v-55h-299z" />
    <glyph glyph-name="g.dnom" 
d="M297 -127q-58 0 -98.5 23.5t-56.5 65.5l62 22q24 -55 95 -55q96 0 96 98q0 7 2 37h-1q-36 -56 -111 -56q-67 0 -109.5 47t-42.5 121q0 75 43.5 121t110.5 46q75 0 109 -52h1v27v19h65q-1 -23 -1 -63v-244q0 -78 -44.5 -117.5t-119.5 -39.5zM299 65q44 0 71 31.5t27 80.5
t-26.5 79t-71.5 30q-44 0 -70 -30.5t-26 -79.5t26 -80t70 -31z" />
    <glyph glyph-name="h.dnom" 
d="M152 0v467h68v-120q0 -8 -0.5 -29.5t-0.5 -26.5q34 52 105 52q56 0 89 -34.5t33 -99.5v-209h-67v168q0 60 -16 88.5t-58 28.5q-85 0 -85 -120v-165h-68z" />
    <glyph glyph-name="i.dnom" 
d="M171 0v55h119v226h-119v56h186v-282h107v-55h-293zM279 398v69h81v-69h-81z" />
    <glyph glyph-name="j.dnom" 
d="M152 -121v56h111q30 0 36.5 10.5t6.5 48.5v287h-158v56h226v-357q0 -59 -23.5 -80t-84.5 -21h-114zM297 397v70h81v-70h-81z" />
    <glyph glyph-name="k.dnom" 
d="M182 0v467h67v-176q0 -22 -0.5 -58.5t-0.5 -48.5q17 17 78 82l65 71h85l-145 -149l154 -188h-87l-113 144l-36 -36v-108h-67z" />
    <glyph glyph-name="l.dnom" 
d="M155 0v56h117v355h-117v56h185v-411h108v-56h-293z" />
    <glyph glyph-name="m.dnom" 
d="M57 0v279q0 35 -1 58h65v-23q0 -19 -1 -26h2q12 24 39.5 39.5t62.5 15.5q73 0 102 -62q36 62 114 62q120 0 120 -141v-202h-68v187q0 98 -69 98q-80 0 -80 -117v-168h-68v185q0 100 -69 100q-81 0 -81 -121v-164h-68z" />
    <glyph glyph-name="n.dnom" 
d="M162 0v270q0 50 -1 67h66v-14q0 -26 -1 -34h1q37 54 107 54q57 0 89.5 -34.5t32.5 -100.5v-208h-67v165q0 63 -16 91.5t-57 28.5q-86 0 -86 -121v-164h-68z" />
    <glyph glyph-name="o.dnom" 
d="M305 -8q-76 0 -123.5 48.5t-47.5 126.5q0 79 48 127.5t125 48.5q76 0 123.5 -48.5t47.5 -127.5q0 -78 -48 -126.5t-125 -48.5zM305 49q48 0 75 31.5t27 86.5q0 54 -27 86.5t-74 32.5q-48 0 -75 -32.5t-27 -86.5q0 -55 26.5 -86.5t74.5 -31.5z" />
    <glyph glyph-name="p.dnom" 
d="M152 -121v419q0 7 -0.5 20t-0.5 19h66v-18v-30h1q39 54 111 54q69 0 112 -48.5t43 -126.5q0 -80 -43 -128t-112 -48q-73 0 -110 51h-1q1 -21 1 -63v-101h-67zM317 48q44 0 70.5 33t26.5 86q0 54 -26.5 86t-71.5 32q-46 0 -72.5 -32t-26.5 -86t26.5 -86.5t73.5 -32.5z" />
    <glyph glyph-name="q.dnom" 
d="M398 -121v111v54q-36 -52 -110 -52q-69 0 -112 48t-43 127q0 78 43.5 127t112.5 49q70 0 112 -54q-1 16 -1 34v14h65q-1 -13 -1 -60v-398h-66zM301 48q47 0 73.5 32.5t26.5 87.5q0 52 -27.5 85t-72.5 33q-46 0 -72 -33t-26 -86q0 -54 26 -86.5t72 -32.5z" />
    <glyph glyph-name="r.dnom" 
d="M122 0v55h119v227h-119v55h177v-74h2q12 41 39 57.5t77 16.5h57v-63h-57q-67 0 -88.5 -31.5t-21.5 -109.5v-78h122v-55h-307z" />
    <glyph glyph-name="s.dnom" 
d="M308 -8q-122 0 -144 93l61 16q20 -56 87 -56q29 0 47 12t18 32q0 19 -15 29.5t-47 17.5l-39 9q-49 12 -74 33.5t-25 63.5q0 47 36.5 74t92.5 27q52 0 86.5 -22t45.5 -64l-59 -17q-13 48 -74 48q-27 0 -43.5 -11t-16.5 -29q0 -20 13.5 -29.5t46.5 -16.5l40 -9
q51 -12 76 -34t25 -63q0 -50 -38 -77t-100 -27z" />
    <glyph glyph-name="t.dnom" 
d="M473 0h-125q-51 0 -73 21.5t-22 72.5v189h-110v54h110v92h67v-92h154v-55h-154v-179q0 -29 7 -37q8 -10 35 -10h111v-56z" />
    <glyph glyph-name="u.dnom" 
d="M279 -8q-56 0 -89 31.5t-33 95.5v218h68v-201q0 -88 73 -88q42 0 63 29t21 81v179h67v-287q0 -31 1 -50h-65v15v28h-1q-38 -51 -105 -51z" />
    <glyph glyph-name="v.dnom" 
d="M270 0l-127 337h74l50 -150q35 -105 39 -118h2q20 68 39 118l51 150h71l-128 -337h-71z" />
    <glyph glyph-name="w.dnom" 
d="M157 0l-100 337h69l38 -143q6 -23 17 -70.5t14 -58.5h2q22 79 33 126l39 146h75l39 -145q14 -53 31 -127h2l33 130l38 142h68l-103 -337h-75l-42 154q-14 54 -27 120h-2q-26 -103 -31 -122l-42 -152h-76z" />
    <glyph glyph-name="x.dnom" 
d="M141 0l125 174l-115 163h81l75 -117l77 117h78l-116 -163l126 -174h-82l-85 126l-85 -126h-79z" />
    <glyph glyph-name="y.dnom" 
d="M210 -127q-8 0 -26 2l-6 53q16 -2 22 -2q28 0 47 16.5t31 57.5l-130 337h74l51 -147q19 -52 39 -117h2q26 83 39 120l48 144h71l-137 -362q-21 -55 -48 -78.5t-77 -23.5z" />
    <glyph glyph-name="z.dnom" 
d="M169 0v53l188 227v1q-20 -1 -58 -1h-122v57h261v-54l-188 -228v-1q14 0 39.5 0.5t41.5 0.5h115v-55h-277z" />
    <glyph glyph-name="uni208D.dnom" 
d="M397 -93l-53 -5q-101 137 -101 288q0 150 101 287l53 -5q-83 -131 -83 -282q0 -152 83 -283z" />
    <glyph glyph-name="uni208E.dnom" 
d="M268 -97l-53 4q84 132 84 283t-83 282l53 4q101 -132 101 -286q0 -152 -102 -287z" />
    <glyph glyph-name="space.frac" 
 />
    <glyph glyph-name="parenleft.case" 
d="M427 -101l-68 -4q-158 209 -158 449q0 237 155 445l69 -5q-143 -194 -143 -440q0 -242 145 -445z" />
    <glyph glyph-name="parenright.case" 
d="M261 -115l-68 4q146 205 146 445q0 246 -143 440l68 5q156 -210 156 -445q0 -241 -159 -449z" />
    <glyph glyph-name="hyphen.case" 
d="M162 305v75h288v-75h-288z" />
    <glyph glyph-name="at.case" 
d="M335 -9q-150 0 -233 92.5t-83 258.5q0 169 80.5 261.5t217.5 92.5q133 0 204.5 -81t71.5 -232q0 -124 -33.5 -173t-80.5 -49q-64 0 -68 62h-3q-36 -62 -111 -62q-64 0 -103.5 47.5t-39.5 127.5q0 78 41 127.5t104 49.5q76 0 107 -61h2q-1 11 -1 31v23h57q0 -7 -0.5 -26.5
t-0.5 -34.5v-212q0 -27 23 -27q54 0 54 170q0 269 -221 269q-113 0 -177.5 -79t-64.5 -225q0 -137 66 -219t190 -82q85 0 165 36l16 -44q-84 -41 -179 -41zM310 210q45 0 72.5 35.5t27.5 92.5q0 55 -27 89.5t-72 34.5t-71.5 -35t-26.5 -90q0 -57 26.5 -92t70.5 -35z" />
    <glyph glyph-name="bracketleft.case" 
d="M195 -104v892h256v-57h-181q1 -28 1 -84v-611q0 -56 -1 -84q36 1 106 1h75v-57h-256z" />
    <glyph glyph-name="bracketright.case" 
d="M161 -105v57h75q70 0 106 -1q-1 28 -1 84v611q0 56 1 84h-181v57h256v-892h-256z" />
    <glyph glyph-name="grave.case" 
d="M329 773l-122 129h107l91 -129h-76z" />
    <glyph glyph-name="braceleft.case" 
d="M496 -104h-102q-41 0 -65.5 10t-35.5 33.5t-14 47t-3 66.5v103q0 87 -28.5 122.5t-109.5 35.5v56q79 0 108.5 31t29.5 107v140q0 74 22.5 106.5t95.5 32.5h102v-55h-63q-54 0 -67.5 -20.5t-13.5 -75.5v-136q0 -76 -22.5 -109.5t-71.5 -46.5v-2q50 -17 72 -50t22 -109
v-137q0 -55 13.5 -75t67.5 -20h63v-55z" />
    <glyph glyph-name="bar.case" 
d="M271 -84v853h69v-853h-69z" />
    <glyph glyph-name="braceright.case" 
d="M125 -104v55h63q54 0 67.5 20t13.5 75v137q0 76 22 109t72 50v2q-49 13 -71.5 46.5t-22.5 109.5v136q0 55 -13.5 75.5t-67.5 20.5h-63v55h102q73 0 95.5 -32.5t22.5 -106.5v-140q0 -76 29.5 -107t108.5 -31v-56q-81 0 -109.5 -35.5t-28.5 -122.5v-103q0 -43 -3 -66.5
t-14 -47t-35.5 -33.5t-65.5 -10h-102z" />
    <glyph glyph-name="exclamdown.case" 
d="M264 0v278l9 221h61l10 -221v-278h-80zM263 559v126h85v-126h-85z" />
    <glyph glyph-name="brokenbar.case" 
d="M272 440v330h70v-330h-70zM272 -83v330h70v-330h-70z" />
    <glyph glyph-name="dieresis.case" 
d="M360 782v111h75v-111h-75zM177 782v111h75v-111h-75z" />
    <glyph glyph-name="guillemotleft.case" 
d="M224 158l-121 184l121 185h78l-110 -185l110 -184h-78zM416 158l-121 184l121 185h78l-110 -185l110 -184h-78z" />
    <glyph glyph-name="uni00AD.case" 
d="M162 305v75h288v-75h-288z" />
    <glyph glyph-name="macron.case" 
d="M177 814v61h258v-61h-258z" />
    <glyph glyph-name="acute.case" 
d="M207 773l92 129h106l-122 -129h-76z" />
    <glyph glyph-name="periodcentered.case" 
d="M245 265v155h122v-155h-122z" />
    <glyph glyph-name="guillemotright.case" 
d="M311 158l110 184l-110 185h79l120 -185l-120 -184h-79zM119 158l110 184l-110 185h79l120 -185l-120 -184h-79z" />
    <glyph glyph-name="questiondown.case" 
d="M290 -14q-90 0 -143.5 49.5t-53.5 130.5q0 52 22 88.5t68 78.5l22 21q37 33 49.5 63.5t12.5 85.5h75q0 -72 -14.5 -110.5t-58.5 -79.5l-41 -39q-27 -25 -41 -48.5t-14 -59.5q0 -50 30 -80.5t89 -30.5q128 0 133 152l77 -4q-2 -102 -58 -159.5t-154 -57.5zM262 559v126h85
v-126h-85z" />
    <glyph glyph-name="circumflex.case" 
d="M157 773l101 129h96l101 -129h-73l-76 82l-76 -82h-73z" />
    <glyph glyph-name="caron.case" 
d="M259 773l-101 129h72l76 -83l77 83h72l-101 -129h-95z" />
    <glyph glyph-name="breve.case" 
d="M306 777q-119 0 -145 111l51 14q20 -66 94 -66q73 0 93 66l52 -14q-26 -111 -145 -111z" />
    <glyph glyph-name="dotaccent.case" 
d="M268 782v111h77v-111h-77z" />
    <glyph glyph-name="ring.case" 
d="M306 741q-39 0 -67.5 29.5t-28.5 68.5q0 40 28 68t69 28t68.5 -28t27.5 -69q0 -40 -28.5 -68.5t-68.5 -28.5zM306 785q23 0 38 15.5t15 38.5q0 22 -15 37.5t-38 15.5q-22 0 -37 -15.5t-15 -38.5q0 -22 15 -37.5t37 -15.5z" />
    <glyph glyph-name="tilde.case" 
d="M196 786l-49 7q19 99 90 99q25 0 67 -18l21 -10q30 -14 49 -14q29 0 42 45l49 -7q-15 -99 -90 -99q-25 0 -62 16l-24 10q-40 16 -52 16q-28 0 -41 -45z" />
    <glyph glyph-name="hungarumlaut.case" 
d="M366 773h-71l92 129h101zM125 773l90 129h102l-121 -129h-71z" />
    <glyph glyph-name="endash.case" 
d="M74 305v70h464v-70h-464z" />
    <glyph glyph-name="emdash.case" 
d="M2 305v70h608v-70h-608z" />
    <glyph glyph-name="uni2015.case" 
d="M2 305v70h608v-70h-608z" />
    <glyph glyph-name="guilsinglleft.case" 
d="M301 158l-121 184l121 185h78l-110 -185l110 -184h-78z" />
    <glyph glyph-name="guilsinglright.case" 
d="M233 158l110 184l-110 185h79l120 -185l-120 -184h-79z" />
    <glyph glyph-name="zero.zero" 
d="M306 -13q-65 0 -112.5 27.5t-74.5 77.5t-39.5 112t-12.5 139q0 76 12.5 137.5t39 112t74 78.5t113.5 28q65 0 113 -28t74.5 -78.5t39 -112t12.5 -137.5q0 -77 -12.5 -139t-39.5 -112t-74.5 -77.5t-112.5 -27.5zM306 54q45 0 76 22.5t47.5 64t23 90t6.5 111.5
q0 171 -49 238l-180 -504q31 -22 76 -22zM152 342q0 -129 27 -196l171 479q-17 7 -44 7q-46 0 -77.5 -22.5t-47.5 -65t-22.5 -90.5t-6.5 -112z" />
    <glyph glyph-name="plus.ss06" 
d="M269 22v216h-210v70h210v215h71v-215h211v-70h-211v-216h-71z" />
    <glyph glyph-name="equal.ss06" 
d="M65 332v69h482v-69h-482zM65 142v69h482v-69h-482z" />
    <glyph glyph-name="logicalnot.ss06" 
d="M484 98v174q0 43 1 66h-427v69h498v-309h-72z" />
    <glyph glyph-name="plusminus.ss06" 
d="M269 179v154h-183v74h183v150h74v-150h183v-74h-183v-154h-74zM86 26v73h440v-73h-440z" />
    <glyph glyph-name="multiply.ss06" 
d="M131 45l-49 50l175 177l-175 176l49 50l176 -177l175 176l50 -49l-175 -176l175 -176l-50 -50l-175 176z" />
    <glyph glyph-name="divide.ss06" 
d="M64 238v70h483v-70h-483zM305 31q-23 0 -38.5 16t-15.5 39t15.5 38.5t38.5 15.5t39 -16t16 -38q0 -23 -16 -39t-39 -16zM305 406q-23 0 -38.5 16t-15.5 39t15.5 39t38.5 16t39 -16t16 -39t-16 -39t-39 -16z" />
    <glyph glyph-name="minus.ss06" 
d="M65 238v70h482v-70h-482z" />
    <glyph glyph-name="infinity.ss06" 
d="M148 74q-70 0 -105.5 48t-35.5 116q0 73 37 119.5t106 46.5q94 0 157 -111q62 111 155 111q69 0 106 -46.5t37 -119.5q0 -68 -35.5 -116t-105.5 -48q-98 0 -159 114q-60 -114 -157 -114zM155 141q68 0 117 98q-49 99 -117 99q-40 0 -62 -27.5t-22 -70.5q0 -44 21.5 -71.5
t62.5 -27.5zM457 141q41 0 62.5 27.5t21.5 71.5q0 43 -22 70.5t-62 27.5q-67 0 -117 -99q49 -98 117 -98z" />
    <glyph glyph-name="approxequal.ss06" 
d="M416 95q-35 0 -105 32l-37 17q-52 24 -75 24q-27 0 -47 -17t-42 -50l-44 38q53 97 133 97q35 0 105 -32l37 -17q52 -24 75 -24q46 0 91 68l44 -38q-53 -98 -135 -98zM416 324q-35 0 -105 32l-37 17q-52 24 -75 24q-27 0 -47 -17t-42 -50l-44 38q53 97 133 97
q35 0 105 -32l37 -17q52 -24 75 -24q46 0 91 68l44 -38q-53 -98 -135 -98z" />
    <glyph glyph-name="notequal.ss06" 
d="M103 -4l86 147h-124v66h163l73 124h-236v67h276l84 144h79l-85 -144h128v-67h-167l-73 -124h240v-66h-280l-85 -147h-79z" />
    <glyph glyph-name="x.ss20" 
d="M131 109l-49 50l175 177l-175 176l49 50l176 -177l175 176l50 -49l-175 -176l175 -176l-50 -50l-175 176z" />
    <glyph glyph-name="hyphen_greater" 
d="M258 80l76 78l131 133q-43 -2 -155 -2h-290v74h289q112 0 155 -2l-130 133l-76 78h105l82 -88q9 -10 151 -158q-41 -42 -127 -133.5t-106 -112.5h-105z" />
    <glyph glyph-name="less_hyphen" 
d="M353 80h-105q-20 21 -106 112.5t-127 133.5q14 14 233 246h105l-76 -78l-130 -133q43 2 155 2h289v-74h-289q-118 0 -156 2l131 -133z" />
  </font>
</defs>
</svg>
