<?xml version="1.0" standalone="no"?>
<!DOCTYPE svg PUBLIC "-//W3C//DTD SVG 1.1//EN" "http://www.w3.org/Graphics/SVG/1.1/DTD/svg11.dtd" >
<svg xmlns="http://www.w3.org/2000/svg" xmlns:xlink="http://www.w3.org/1999/xlink" version="1.1">
<metadata>
Created by FontForge 20170731 at Sun Jun  9 05:09:51 2019
 By Aleksey,,,
(c) 2019, Copyright by Optimo SARL. All rights reserved. |DCNT
</metadata>
<defs>
<font id="Rand-Bold" horiz-adv-x="588" >
  <font-face 
    font-family="Rand"
    font-weight="700"
    font-stretch="normal"
    units-per-em="1000"
    panose-1="2 11 8 4 2 1 1 1 1 2"
    ascent="730"
    descent="-270"
    x-height="526"
    cap-height="730"
    bbox="-383 -233 1370 1161"
    underline-thickness="50"
    underline-position="-200"
    unicode-range="U+000D-FEFF"
  />
<missing-glyph horiz-adv-x="617" 
d="M63 0v730h491v-730h-491zM163 100h291v530h-291v-530z" />
    <glyph glyph-name="f_f" unicode="ff" horiz-adv-x="678" 
d="M102 0v418h-76v108h76v36q0 95 43.5 133.5t137.5 38.5q35 0 67 -5l-5 -109q-18 6 -40 6q-35 0 -50 -15.5t-15 -50.5v-34h180v36q0 95 43.5 133.5t137.5 38.5q35 0 67 -5l-5 -109q-18 6 -40 6q-35 0 -50 -15.5t-15 -50.5v-34h105v-108h-103v-418h-140v418h-178v-418h-140z
" />
    <glyph glyph-name="f_f_i" unicode="ffi" horiz-adv-x="947" 
d="M102 0v418h-76v108h76v36q0 95 43.5 133.5t137.5 38.5q35 0 67 -5l-5 -109q-18 6 -40 6q-35 0 -50 -15.5t-15 -50.5v-34h180v37q0 94 43.5 132.5t136.5 38.5q39 0 67 -5l-4 -108q-20 5 -41 5q-35 0 -50 -15.5t-15 -50.5v-34h321v-526h-140v419h-180v-419h-138v419h-75v-1
h-103v-418h-140zM738 598v132h140v-132h-140z" />
    <glyph glyph-name="f_f_l" unicode="ffl" horiz-adv-x="944" 
d="M102 0v418h-76v108h76v36q0 95 43.5 133.5t137.5 38.5q35 0 67 -5l-5 -109q-18 6 -40 6q-35 0 -50 -15.5t-15 -50.5v-34h180v31q0 59 13 94.5t46.5 54.5t78 25t120.5 6q121 0 197 -7v-730h-139v629q-15 2 -71 2q-67 0 -88 -14t-21 -66v-25h107v-108h-105v-418h-138v418
h-178v-418h-140z" />
    <glyph glyph-name="f_i" unicode="fi" horiz-adv-x="629" 
d="M102 0v419h-76v107h76v37q0 94 43.5 132.5t136.5 38.5q39 0 67 -5l-4 -108q-20 5 -41 5q-35 0 -50 -15.5t-15 -50.5v-34h321v-526h-140v419h-180v-419h-138zM420 598v132h140v-132h-140z" />
    <glyph glyph-name="f_l" unicode="fl" horiz-adv-x="626" 
d="M102 0v418h-76v108h76v31q0 59 13 94.5t46.5 54.5t78 25t120.5 6q121 0 197 -7v-730h-139v629q-15 2 -71 2q-67 0 -88 -14t-21 -66v-25h107v-108h-105v-418h-138z" />
    <glyph glyph-name=".notdef" horiz-adv-x="617" 
d="M63 0v730h491v-730h-491zM163 100h291v530h-291v-530z" />
    <glyph glyph-name=".null" horiz-adv-x="0" 
 />
    <glyph glyph-name="nonmarkingreturn" horiz-adv-x="333" 
 />
    <glyph glyph-name="NULL" horiz-adv-x="0" 
 />
    <glyph glyph-name="NULL" horiz-adv-x="0" 
 />
    <glyph glyph-name="CR" unicode="&#xd;" horiz-adv-x="222" 
 />
    <glyph glyph-name="space" unicode=" " horiz-adv-x="222" 
 />
    <glyph glyph-name="exclam" unicode="!" horiz-adv-x="298" 
d="M92 197l-15 229v304h144v-304l-15 -229h-114zM76 0v142h146v-142h-146z" />
    <glyph glyph-name="quotedbl" unicode="&#x22;" horiz-adv-x="439" 
d="M63 443l-12 287h134l-13 -287h-109zM267 443l-12 287h134l-13 -287h-109z" />
    <glyph glyph-name="numbersign" unicode="#" 
d="M67 0l39 212h-102l18 92h101l21 116h-104l18 92h103l40 213h103l-39 -213h117l39 213h104l-40 -213h100l-17 -92h-100l-22 -116h103l-18 -92h-102l-38 -212h-104l39 212h-117l-39 -212h-103zM226 304h117l21 116h-116z" />
    <glyph glyph-name="dollar" unicode="$" 
d="M238 -107v108q-88 12 -144 63t-73 134l139 32q25 -114 139 -114q55 0 87 23.5t32 65.5q0 34 -20.5 51t-74.5 36l-71 25q-112 41 -160 83t-48 126q0 83 51 136t143 68v97h128v-98q156 -32 185 -176l-132 -29q-22 94 -122 94q-50 0 -78 -24t-28 -57q0 -36 25 -56t91 -41
l58 -18q101 -33 150 -76t49 -129q0 -87 -52.5 -142.5t-145.5 -71.5v-110h-128z" />
    <glyph glyph-name="percent" unicode="%" horiz-adv-x="980" 
d="M206 252q-176 0 -176 241q0 247 176 247t176 -247q0 -241 -176 -241zM206 347q62 0 62 146q0 73 -13.5 111t-48.5 38q-36 0 -49.5 -38t-13.5 -111q0 -71 14 -108.5t49 -37.5zM774 -11q-176 0 -176 241q0 247 176 247t176 -247q0 -241 -176 -241zM774 84q62 0 62 146
q0 73 -13.5 111t-48.5 38q-36 0 -49.5 -38t-13.5 -111q0 -71 14 -108.5t49 -37.5zM281 0l303 730h116l-303 -730h-116z" />
    <glyph glyph-name="ampersand" unicode="&#x26;" horiz-adv-x="735" 
d="M294 -15q-117 0 -186 59t-69 158q0 134 157 212q-74 76 -74 157q0 78 57 126t151 48q88 0 144 -46t56 -119q0 -65 -36.5 -109.5t-100.5 -82.5q30 -33 67.5 -75t46.5 -52q30 61 41 139l138 -5q-24 -145 -87 -229q130 -141 155 -166h-177q-31 29 -65 71q-86 -86 -218 -86z
M303 100q78 0 125 58q-140 155 -150 166q-92 -47 -92 -120q0 -47 32.5 -75.5t84.5 -28.5zM316 465q84 52 84 108q0 30 -20 48.5t-53 18.5t-52.5 -19t-19.5 -49q0 -46 61 -107z" />
    <glyph glyph-name="quotesingle" unicode="'" horiz-adv-x="235" 
d="M63 443l-12 287h134l-13 -287h-109z" />
    <glyph glyph-name="parenleft" unicode="(" horiz-adv-x="326" 
d="M308 -146l-108 -7q-162 210 -162 447t162 451l108 -7q-131 -209 -131 -443q0 -232 131 -441z" />
    <glyph glyph-name="parenright" unicode=")" horiz-adv-x="326" 
d="M126 -153l-108 7q131 209 131 441q0 234 -131 443l108 7q162 -214 162 -451t-162 -447z" />
    <glyph glyph-name="asterisk" unicode="*" horiz-adv-x="475" 
d="M171 334l-100 73l57 59l35 37l7 7q-2 0 -6 0.5t-5 0.5l-48 8l-82 14l37 118l76 -36q11 -6 26 -13t20 -10h-1l9 -5l-2 11q-1 5 -2 12.5t-2.5 18.5t-2.5 18l-11 83h123l-11 -83q-6 -43 -8 -49q0 -4 -1 -11l9 5h-1l46 23l76 36l37 -118l-83 -14l-44 -7h1l-16 -3l6 -6
q32 -32 36 -37l58 -59l-101 -73l-39 73l-23 46q0 1 -1 2q-2 2 -3 5l-4 -6l-23 -47z" />
    <glyph glyph-name="plus" unicode="+" 
d="M232 87v192h-185v118h185v191h122v-191h187v-118h-187v-192h-122z" />
    <glyph glyph-name="comma" unicode="," horiz-adv-x="267" 
d="M55 -153v73q36 5 53.5 23t17.5 52v5h-71v152h156v-143q0 -78 -36.5 -117.5t-119.5 -44.5z" />
    <glyph glyph-name="hyphen" unicode="-" horiz-adv-x="404" 
d="M59 229v128h286v-128h-286z" />
    <glyph glyph-name="period" unicode="." horiz-adv-x="264" 
d="M54 0v152h156v-152h-156z" />
    <glyph glyph-name="slash" unicode="/" horiz-adv-x="434" 
d="M21 0l263 730h130l-263 -730h-130z" />
    <glyph glyph-name="zero" unicode="0" horiz-adv-x="636" 
d="M318 -14q-271 0 -271 376q0 175 65.5 278.5t204.5 103.5q72 0 125.5 -28.5t85 -81t47 -120t15.5 -152.5q0 -176 -65.5 -276t-206.5 -100zM319 106q65 0 92 65.5t27 189.5q0 126 -26.5 191.5t-93.5 65.5t-94 -66t-27 -193q0 -122 28 -187.5t94 -65.5z" />
    <glyph glyph-name="one" unicode="1" horiz-adv-x="520" 
d="M58 0v115h157v390h-173v104q94 4 138.5 29.5t53.5 91.5h127v-615h145v-115h-448z" />
    <glyph glyph-name="two" unicode="2" horiz-adv-x="605" 
d="M44 0v113q57 54 213 183q85 69 116.5 114.5t31.5 102.5q0 45 -27.5 74.5t-76.5 29.5q-112 0 -117 -136l-141 3q0 117 70.5 188.5t190.5 71.5q117 0 184 -59t67 -164q0 -83 -46.5 -149t-136.5 -140q-38 -31 -82.5 -64.5t-57.5 -44.5v-3q10 0 50 0.5t71 0.5h206v-121h-515z
" />
    <glyph glyph-name="three" unicode="3" horiz-adv-x="610" 
d="M299 -14q-122 0 -192 63t-75 178l146 5q3 -60 33.5 -94.5t88.5 -34.5q55 0 86 30.5t31 79.5q0 53 -37 82t-101 29h-38v112h29q55 0 88 24t33 73q0 40 -24 64t-65 24q-104 0 -106 -111l-143 9q6 103 72 164t177 61q113 0 177 -54t64 -141q0 -59 -29.5 -100.5t-77.5 -59.5
q131 -46 131 -180q0 -101 -73.5 -162t-194.5 -61z" />
    <glyph glyph-name="four" unicode="4" horiz-adv-x="597" 
d="M344 0v141h-309v108l166 481h138l-159 -472h164v270h130v-270h109v-117h-109v-141h-130z" />
    <glyph glyph-name="five" unicode="5" horiz-adv-x="601" 
d="M298 -14q-115 0 -182.5 58t-79.5 159l144 8q10 -48 40 -77.5t81 -29.5q58 0 89 37.5t31 99.5q0 60 -31 95.5t-85 35.5q-79 0 -111 -68l-138 15l36 411h431v-122h-318l-8 -94l-7 -73q58 50 139 50q106 0 172 -69t66 -179q0 -116 -73.5 -186.5t-195.5 -70.5z" />
    <glyph glyph-name="six" unicode="6" horiz-adv-x="630" 
d="M325 -14q-135 0 -207 91.5t-72 257.5q0 190 74.5 299.5t214.5 109.5q103 0 164.5 -56.5t74.5 -147.5l-145 -6q-20 86 -98 86q-65 0 -101 -60t-38 -156h3q57 74 159 74q105 0 169 -67t64 -174q0 -109 -72.5 -180t-189.5 -71zM324 101q53 0 86 37.5t33 95.5t-32.5 93.5
t-88.5 35.5t-89.5 -35.5t-33.5 -93.5t34.5 -95.5t90.5 -37.5z" />
    <glyph glyph-name="seven" unicode="7" horiz-adv-x="545" 
d="M262 0h-162q40 149 110 307.5t156 292.5v2q-16 0 -45 -0.5t-44 -0.5h-257v129h503v-119q-78 -116 -147.5 -282t-113.5 -329z" />
    <glyph glyph-name="eight" unicode="8" horiz-adv-x="629" 
d="M315 -14q-124 0 -198 58.5t-74 157.5q0 129 134 182q-110 57 -110 163q0 87 68 142t180 55q111 0 178.5 -55.5t67.5 -141.5q0 -106 -110 -163q136 -54 136 -182q0 -99 -75.5 -157.5t-196.5 -58.5zM315 98q56 0 90 32t34 84q0 51 -33.5 82t-90.5 31q-59 0 -93 -31t-34 -82
q0 -52 34.5 -84t92.5 -32zM315 435q51 0 79.5 26.5t28.5 71.5q0 43 -29 69.5t-79 26.5q-52 0 -81.5 -26.5t-29.5 -69.5q0 -45 29.5 -71.5t81.5 -26.5z" />
    <glyph glyph-name="nine" unicode="9" horiz-adv-x="626" 
d="M298 -14q-112 0 -172 54.5t-73 150.5l143 6q19 -90 103 -90q59 0 97.5 60.5t38.5 162.5h-2q-53 -74 -159 -74q-104 0 -167 65t-63 173t71.5 179t187.5 71q134 0 205.5 -92.5t71.5 -261.5q0 -191 -72 -297.5t-210 -106.5zM306 369q56 0 89 35.5t33 92.5q0 58 -33.5 93.5
t-88.5 35.5q-56 0 -89.5 -35t-33.5 -92q0 -58 33.5 -94t89.5 -36z" />
    <glyph glyph-name="colon" unicode=":" horiz-adv-x="275" 
d="M59 371v155h157v-155h-157zM59 0v155h157v-155h-157z" />
    <glyph glyph-name="semicolon" unicode=";" horiz-adv-x="275" 
d="M60 -153v73q36 5 53.5 23t17.5 52v5h-71v152h156v-143q0 -78 -36.5 -117.5t-119.5 -44.5zM59 371v155h157v-155h-157z" />
    <glyph glyph-name="less" unicode="&#x3c;" 
d="M485 57l-396 201v120l396 205v-145q-33 -15 -127.5 -59t-118.5 -56v-3q17 -8 246 -115v-148z" />
    <glyph glyph-name="equal" unicode="=" 
d="M52 376v115h484v-115h-484zM52 179v115h484v-115h-484z" />
    <glyph glyph-name="greater" unicode="&#x3e;" 
d="M103 57v148l245 115v3q-19 9 -109.5 51.5t-135.5 63.5v145q337 -175 396 -205v-120z" />
    <glyph glyph-name="question" unicode="?" horiz-adv-x="559" 
d="M335 197h-136q0 75 14.5 116.5t58.5 80.5l50 45q21 18 28.5 26t17.5 27.5t10 42.5q0 37 -25.5 60t-72.5 23q-55 0 -82 -33.5t-26 -93.5l-146 6q0 114 67.5 180.5t190.5 66.5q112 0 178 -57t66 -148q0 -59 -26 -101.5t-81 -84.5l-19 -15q-40 -33 -53.5 -60.5t-13.5 -80.5z
M195 0v142h146v-142h-146z" />
    <glyph glyph-name="at" unicode="@" horiz-adv-x="828" 
d="M439 -45q-180 0 -291 104.5t-111 274.5q0 165 113 275.5t283 110.5q156 0 258 -91t102 -232q0 -115 -63 -192.5t-147 -77.5q-69 0 -83 55q-50 -57 -125 -57q-72 0 -115 49t-43 130q0 95 56.5 162.5t141.5 67.5t118 -65h1q2 19 6 30l4 21h86l-46 -235q-7 -33 -7 -50
q0 -30 27 -30q43 0 75.5 54t32.5 129q0 116 -76 185.5t-202 69.5q-134 0 -222 -88.5t-88 -221.5q0 -137 89 -220.5t229 -83.5q123 0 227 66l46 -54q-116 -86 -276 -86zM397 210q50 0 80.5 42t30.5 102q0 43 -22 68t-61 25q-49 0 -80.5 -41.5t-31.5 -98.5q0 -44 22.5 -70.5
t61.5 -26.5z" />
    <glyph glyph-name="A" unicode="A" horiz-adv-x="724" 
d="M-4 0l283 730h165l284 -730h-157l-69 181h-286l-68 -181h-152zM257 304h203l-43 123q-35 91 -56 167h-4q-3 -10 -24.5 -76t-30.5 -91z" />
    <glyph glyph-name="B" unicode="B" horiz-adv-x="682" 
d="M80 0v730h290q242 0 242 -179q0 -61 -29 -103.5t-77 -61.5q57 -15 97.5 -60.5t40.5 -115.5q0 -100 -67.5 -155t-200.5 -55h-296zM224 119h135q133 0 133 104q0 96 -138 96h-130v-200zM224 433h118q122 0 122 91q0 43 -28.5 64t-92.5 21h-119v-176z" />
    <glyph glyph-name="C" unicode="C" horiz-adv-x="745" 
d="M403 -14q-164 0 -263.5 104.5t-99.5 273.5q0 167 102 273.5t263 106.5q119 0 202 -57.5t113 -158.5l-144 -31q-45 117 -175 117q-95 0 -150.5 -70.5t-55.5 -178.5q0 -112 57 -182.5t153 -70.5q62 0 105.5 31.5t65.5 86.5l147 -27q-31 -102 -115 -159.5t-205 -57.5z" />
    <glyph glyph-name="D" unicode="D" horiz-adv-x="762" 
d="M80 0v730h267q181 0 276.5 -90t96.5 -266q0 -177 -97.5 -275.5t-291.5 -98.5h-251zM230 123h106q109 0 170.5 60.5t61.5 189.5q0 117 -58.5 174.5t-188.5 57.5h-91v-482z" />
    <glyph glyph-name="E" unicode="E" horiz-adv-x="633" 
d="M80 0v730h499v-126h-352v-167h325v-126h-325v-185h360v-126h-507z" />
    <glyph glyph-name="F" unicode="F" horiz-adv-x="595" 
d="M80 0v730h482v-126h-333v-171h308v-129h-308v-304h-149z" />
    <glyph glyph-name="G" unicode="G" horiz-adv-x="789" 
d="M391 -14q-156 0 -253.5 106t-97.5 274t102 273t267 105q121 0 204.5 -54.5t116.5 -146.5l-142 -37q-23 50 -68.5 79.5t-111.5 29.5q-98 0 -155.5 -69.5t-57.5 -181.5q0 -115 60 -185t161 -70q83 0 130.5 44t55.5 124h-222v124h355v-401h-137v17q0 8 0.5 22.5t0.5 20.5h-2
q-20 -28 -78.5 -51t-127.5 -23z" />
    <glyph glyph-name="H" unicode="H" horiz-adv-x="765" 
d="M80 -1v731h150v-286h305v286h150v-731h-150v312h-305v-312h-150z" />
    <glyph glyph-name="I" unicode="I" horiz-adv-x="312" 
d="M80 0v730h152v-730h-152z" />
    <glyph glyph-name="J" unicode="J" horiz-adv-x="549" 
d="M237 -14q-109 0 -165 49.5t-64 147.5l139 15q9 -89 89 -89q49 0 68 33t19 96v492h152v-481q0 -126 -54.5 -194.5t-183.5 -68.5z" />
    <glyph glyph-name="K" unicode="K" horiz-adv-x="690" 
d="M80 0v730h149v-171q0 -101 -1 -153q45 55 140 165l138 159h182l-292 -329l303 -401h-186l-220 299l-64 -74v-225h-149z" />
    <glyph glyph-name="L" unicode="L" horiz-adv-x="570" 
d="M80 0v730h151v-602h324v-128h-475z" />
    <glyph glyph-name="M" unicode="M" horiz-adv-x="966" 
d="M80 0v730h231l83 -263q37 -116 90 -309h3q49 178 91 315l78 257h230v-730h-146v368q0 132 4 240h-4q-35 -134 -72 -250l-111 -358h-151l-125 394q-30 96 -58 214h-4q3 -93 3 -203l-1 -405h-141z" />
    <glyph glyph-name="N" unicode="N" horiz-adv-x="794" 
d="M80 0v730h195l201 -365q38 -67 94 -186h3q-3 71 -3 216v335h144v-730h-189l-188 336q-61 109 -114 222h-2q0 -22 2 -94t2 -100v-364h-145z" />
    <glyph glyph-name="O" unicode="O" horiz-adv-x="817" 
d="M409 -14q-166 0 -267.5 104t-101.5 274q0 169 102.5 274.5t265.5 105.5q164 0 266.5 -105.5t102.5 -274.5q0 -170 -101 -274t-267 -104zM408 111q98 0 156 71t58 184q0 110 -58 180t-156 70t-155.5 -70t-57.5 -180q0 -113 57.5 -184t155.5 -71z" />
    <glyph glyph-name="P" unicode="P" horiz-adv-x="653" 
d="M80 0v730h279q139 0 204 -62t65 -167q0 -115 -72.5 -172t-207.5 -57h-121v-272h-147zM227 395h112q142 0 142 106q0 107 -140 107h-114v-213z" />
    <glyph glyph-name="Q" unicode="Q" horiz-adv-x="817" 
d="M658 -75l-88 93q-75 -32 -161 -32q-166 0 -267.5 104t-101.5 274q0 169 102.5 274.5t265.5 105.5q164 0 266.5 -105.5t102.5 -274.5q0 -171 -104 -277l75 -80zM408 108q38 0 69 9l-69 73l92 82l78 -83q44 68 44 177q0 110 -58 180t-156 70t-155.5 -70t-57.5 -180
q0 -113 57.5 -185.5t155.5 -72.5z" />
    <glyph glyph-name="R" unicode="R" horiz-adv-x="696" 
d="M80 0v730h308q128 0 192.5 -52.5t64.5 -150.5q0 -138 -121 -185q42 -19 64 -57t31 -107l7 -54q0 -4 2.5 -24t4 -28t4.5 -23t7.5 -24.5t10.5 -16.5v-8h-153q-14 26 -22 102l-4 36q-9 82 -38.5 116t-113.5 34h-98v-288h-146zM226 405h136q131 0 131 105q0 98 -131 98h-136
v-203z" />
    <glyph glyph-name="S" unicode="S" horiz-adv-x="640" 
d="M317 -14q-117 0 -193.5 54t-97.5 151l149 34q27 -117 147 -117q58 0 92.5 24t34.5 66q0 36 -22.5 55t-78.5 35l-75 24q-117 35 -169.5 81t-52.5 135q0 99 74 157.5t200 58.5q106 0 176 -49t89 -139l-140 -30q-23 97 -130 97q-53 0 -82.5 -24.5t-29.5 -59.5q0 -38 27 -59
t95 -40l62 -18q107 -32 160 -77t53 -134q0 -104 -78.5 -164.5t-209.5 -60.5z" />
    <glyph glyph-name="T" unicode="T" horiz-adv-x="597" 
d="M223 0v602h-208v128h567v-128h-207v-602h-152z" />
    <glyph glyph-name="U" unicode="U" horiz-adv-x="732" 
d="M366 -14q-148 0 -220.5 70.5t-72.5 231.5v442h151v-442q0 -88 34 -131.5t108 -43.5t108 43.5t34 131.5v442h151v-442q0 -162 -73.5 -232t-219.5 -70z" />
    <glyph glyph-name="V" unicode="V" horiz-adv-x="682" 
d="M253 0l-251 730h162l84 -269q13 -42 45 -147t49 -159h3q77 257 94 308l86 267h158l-256 -730h-174z" />
    <glyph glyph-name="W" unicode="W" horiz-adv-x="985" 
d="M185 0l-174 730h157l57 -267q28 -128 57 -300h4q24 119 63 290l63 277h170l60 -266q33 -144 62 -300h4q23 137 59 299l58 267h150l-176 -730h-179l-64 277q-25 109 -61 295h-4q-23 -135 -61 -296l-65 -276h-180z" />
    <glyph glyph-name="X" unicode="X" horiz-adv-x="673" 
d="M-5 0l251 374l-235 356h177l150 -243l151 243h172l-236 -351l253 -379h-182l-163 264l-165 -264h-173z" />
    <glyph glyph-name="Y" unicode="Y" horiz-adv-x="645" 
d="M246 0v282l-247 448h166l70 -139q7 -15 39.5 -77t49.5 -97h2l89 175l72 138h162l-252 -448v-282h-151z" />
    <glyph glyph-name="Z" unicode="Z" horiz-adv-x="628" 
d="M34 0v115l363 488v1q-112 -2 -139 -2h-209v128h534v-118l-362 -486v-1q39 1 109 1h266v-126h-562z" />
    <glyph glyph-name="bracketleft" unicode="[" horiz-adv-x="342" 
d="M79 -147v894h239v-91h-113q1 -24 1 -69v-575q0 -44 -1 -68q19 1 52 1h61v-92h-239z" />
    <glyph glyph-name="backslash" unicode="\" horiz-adv-x="434" 
d="M283 0l-263 730h130l263 -730h-130z" />
    <glyph glyph-name="bracketright" unicode="]" horiz-adv-x="347" 
d="M25 -146v92h63q34 0 51 -1q-1 23 -1 66v579q0 44 1 67h-114v91h243v-894h-243z" />
    <glyph glyph-name="asciicircum" unicode="^" 
d="M167 351h-132l203 382h111q85 -161 204 -382h-136q-10 20 -38 78t-48 96.5t-38 68.5l-40 -78q-15 -30 -44.5 -85.5t-41.5 -79.5z" />
    <glyph glyph-name="underscore" unicode="_" horiz-adv-x="568" 
d="M39 -157v100h490v-100h-490z" />
    <glyph glyph-name="grave" unicode="`" horiz-adv-x="234" 
d="M132 598l-118 132h168l75 -132h-125z" />
    <glyph glyph-name="a" unicode="a" horiz-adv-x="575" 
d="M228 -10q-89 0 -140.5 42t-51.5 116q0 71 46.5 107t157.5 57l86 16q42 8 48 15q5 7 5 20q0 33 -24.5 52.5t-69.5 19.5q-93 0 -100 -85l-132 8q6 82 68 130.5t166 48.5q113 0 169.5 -49.5t56.5 -154.5v-308q0 -7 0.5 -15.5t0.5 -9.5h-119q-1 8 -1 27v20h-1
q-59 -57 -165 -57zM263 83q57 0 88 31t31 90v19q0 16 2 21q-14 -4 -38 -8.5t-35 -6.5q-90 -18 -111 -31q-24 -16 -24 -48q0 -67 87 -67z" />
    <glyph glyph-name="b" unicode="b" horiz-adv-x="648" 
d="M369 -12q-112 0 -166 79h-2q2 -30 2 -44v-23h-135q1 21 1 75v655h139v-161q0 -17 -0.5 -52t-0.5 -54q58 78 165 78q105 0 172 -78.5t67 -199.5q0 -123 -67.5 -199t-174.5 -76zM338 100q61 0 96.5 44.5t35.5 117.5t-36 118t-96 45q-62 0 -97.5 -44.5t-35.5 -117.5
q0 -74 35.5 -118.5t97.5 -44.5z" />
    <glyph glyph-name="c" unicode="c" horiz-adv-x="574" 
d="M306 -13q-123 0 -196 76t-73 199q0 124 75 201.5t198 77.5q92 0 156 -47t85 -124l-130 -28q-27 84 -111 84q-63 0 -96.5 -43t-33.5 -121q0 -77 35 -119.5t95 -42.5q87 0 113 84l128 -29q-22 -77 -87 -122.5t-158 -45.5z" />
    <glyph glyph-name="d" unicode="d" horiz-adv-x="649" 
d="M279 -12q-107 0 -174.5 75.5t-67.5 198.5t67 201t173 78q108 0 164 -77q-1 35 -1 98v168h140v-655q0 -56 1 -75h-135v20q0 22 1 45h-1q-58 -77 -167 -77zM309 100q62 0 98.5 45t36.5 118t-36 117.5t-98 44.5q-61 0 -96 -45t-35 -118t35 -117.5t95 -44.5z" />
    <glyph glyph-name="e" unicode="e" horiz-adv-x="606" 
d="M312 -13q-126 0 -201 74.5t-75 200.5q0 121 75.5 199.5t197.5 78.5q131 0 196 -84t65 -229h-397q5 -61 43.5 -96.5t97.5 -35.5q95 0 139 75l114 -45q-32 -61 -97.5 -99.5t-157.5 -38.5zM174 321h258q-4 50 -36.5 84t-87.5 34t-90 -32.5t-44 -85.5z" />
    <glyph glyph-name="f" unicode="f" horiz-adv-x="360" 
d="M102 0v418h-76v108h76v36q0 95 43.5 133.5t137.5 38.5q35 0 67 -5l-5 -109q-18 6 -40 6q-35 0 -50 -15.5t-15 -50.5v-34h105v-108h-103v-418h-140z" />
    <glyph glyph-name="g" unicode="g" horiz-adv-x="642" 
d="M304 -199q-95 0 -161.5 37.5t-94.5 102.5l118 46q42 -76 140 -76q129 0 133 131v2l3 45h-2q-55 -76 -164 -76q-104 0 -170.5 73.5t-66.5 188.5q0 116 68 190t171 74q110 0 164 -76h2q-2 8 -2 45v18h134q0 -16 -0.5 -44.5t-0.5 -51.5v-382q0 -121 -74 -184t-197 -63z
M311 123q57 0 93.5 43t36.5 109t-35.5 109t-94.5 43t-94.5 -43t-35.5 -109q0 -68 35 -110t95 -42z" />
    <glyph glyph-name="h" unicode="h" horiz-adv-x="623" 
d="M69 0v730h141v-197q0 -27 -2 -65q54 72 161 72q92 0 141.5 -55t49.5 -162v-323h-140v257q0 88 -25 127t-75 39q-110 0 -110 -161v-262h-141z" />
    <glyph glyph-name="i" unicode="i" horiz-adv-x="280" 
d="M69 0v526h142v-526h-142zM69 598v132h142v-132h-142z" />
    <glyph glyph-name="j" unicode="j" horiz-adv-x="284" 
d="M43 -192q-30 0 -59 5l4 108q8 -1 21 -1q37 0 50.5 19t13.5 65v522h142v-539q0 -100 -41.5 -139.5t-130.5 -39.5zM72 598v132h144v-132h-144z" />
    <glyph glyph-name="k" unicode="k" horiz-adv-x="578" 
d="M69 0v730h139v-260q0 -34 -0.5 -92t-0.5 -78q22 27 60 69.5t53 61.5l81 95h171l-215 -232l230 -294h-177l-148 202l-54 -58v-144h-139z" />
    <glyph glyph-name="l" unicode="l" horiz-adv-x="280" 
d="M69 0v730h142v-730h-142z" />
    <glyph glyph-name="m" unicode="m" horiz-adv-x="951" 
d="M69 0v433q0 57 -1 93h134v-30q0 -23 -1 -35h2q22 35 63 57t95 22q110 0 158 -88q59 88 176 88q95 0 144 -57.5t49 -169.5v-313h-140v282q0 73 -22 107t-72 34q-105 0 -105 -154v-269h-140v280q0 73 -22.5 108t-72.5 35q-58 0 -81.5 -43.5t-23.5 -133.5v-246h-140z" />
    <glyph glyph-name="n" unicode="n" horiz-adv-x="622" 
d="M69 0v426q0 72 -1 100h134v-21q0 -29 -1 -42h2q51 77 165 77q91 0 141 -54.5t50 -162.5v-323h-140v254q0 90 -21.5 129.5t-76.5 39.5q-59 0 -85.5 -38.5t-26.5 -121.5v-263h-140z" />
    <glyph glyph-name="o" unicode="o" horiz-adv-x="626" 
d="M313 -13q-124 0 -200.5 76.5t-76.5 199.5t77 200.5t201 77.5q123 0 199.5 -77.5t76.5 -200.5t-77 -199.5t-200 -76.5zM313 100q64 0 99 43.5t35 118.5q0 74 -35 119.5t-99 45.5q-65 0 -100.5 -45t-35.5 -119q0 -76 35.5 -119.5t100.5 -43.5z" />
    <glyph glyph-name="p" unicode="p" horiz-adv-x="648" 
d="M69 -188v625q0 62 -1 89h138v-18q0 -30 -1 -46h1q61 79 165 79q105 0 172.5 -77t67.5 -200q0 -124 -67 -200t-175 -76q-107 0 -160 71h-2q2 -18 2 -76v-171h-140zM339 100q60 0 95 44t35 117t-35 118t-96 45t-97 -44.5t-36 -117.5t36 -117.5t98 -44.5z" />
    <glyph glyph-name="q" unicode="q" horiz-adv-x="648" 
d="M439 -188v180q0 43 1 68q-53 -72 -161 -72q-109 0 -175.5 76t-66.5 199q0 122 68 200t174 78q104 0 165 -79h1q-1 17 -1 48v16h136q-1 -23 -1 -99v-615h-140zM310 100q62 0 98 44.5t36 118.5q0 72 -36.5 117t-97.5 45t-96 -45.5t-35 -118.5t35 -117t96 -44z" />
    <glyph glyph-name="r" unicode="r" horiz-adv-x="398" 
d="M69 0v429q0 66 -1 97h133v-24q0 -34 -1 -50h3q41 86 149 86q14 0 30 -2l-2 -131q-16 5 -37 5q-75 0 -105 -43t-30 -145v-222h-139z" />
    <glyph glyph-name="s" unicode="s" horiz-adv-x="530" 
d="M263 -13q-95 0 -157 38.5t-79 113.5l125 28q30 -80 117 -80q37 0 62 14t25 43q0 25 -19.5 37t-69.5 24l-62 16q-83 23 -122 55.5t-39 99.5q0 76 61 120t158 44q90 0 147.5 -37t73.5 -107l-123 -26q-20 68 -100 68q-34 0 -55.5 -14t-21.5 -38q0 -25 19.5 -37t69.5 -24
l53 -13q88 -22 130 -56.5t42 -100.5q0 -81 -64.5 -124.5t-170.5 -43.5z" />
    <glyph glyph-name="t" unicode="t" horiz-adv-x="362" 
d="M328 0h-167q-32 18 -44 54.5t-12 111.5v252h-86v108h86v144h140v-144h105v-108h-105v-210q0 -64 10.5 -102t26.5 -54t46 -28v-24z" />
    <glyph glyph-name="u" unicode="u" horiz-adv-x="618" 
d="M253 -12q-91 0 -140.5 51t-49.5 156v331h140v-296q0 -67 24.5 -97.5t73.5 -30.5q108 0 108 141v283h140v-445q0 -50 1 -81h-134v21q0 26 1 41h-2q-50 -74 -162 -74z" />
    <glyph glyph-name="v" unicode="v" horiz-adv-x="551" 
d="M196 0l-188 526h148l73 -235q7 -23 23.5 -75t24.5 -80h3q45 153 46 156l75 234h146l-196 -526h-155z" />
    <glyph glyph-name="w" unicode="w" horiz-adv-x="841" 
d="M164 0l-155 526h144l51 -203q23 -90 42 -184h4q27 119 43 180l53 207h153l52 -205q26 -107 42 -183h4q18 80 44 187l51 201h141l-157 -526h-161l-53 208q-12 48 -39 183h-5q-23 -116 -41 -184l-53 -207h-160z" />
    <glyph glyph-name="x" unicode="x" horiz-adv-x="550" 
d="M0 0l192 269l-180 257h164l100 -162l101 162h158l-178 -254l194 -272h-165l-113 174l-113 -174h-160z" />
    <glyph glyph-name="y" unicode="y" horiz-adv-x="552" 
d="M105 -190q-12 0 -42 2l-13 106q15 -1 39 -1q50 0 75.5 15t42.5 66l-202 528h152l58 -180q48 -152 63 -205h4q43 149 60 204l57 181h148l-212 -563q-34 -89 -86.5 -121t-143.5 -32z" />
    <glyph glyph-name="z" unicode="z" horiz-adv-x="518" 
d="M34 0v105l155 178q20 23 60 68.5t54 61.5v2q-48 -2 -68 -2h-190v113h429v-108l-135 -157q-24 -29 -69 -79.5t-62 -70.5v-2q27 0 64 0.5t60 0.5h155v-110h-453z" />
    <glyph glyph-name="braceleft" unicode="{" horiz-adv-x="338" 
d="M299 -147h-61q-83 0 -112.5 33t-29.5 111v137q0 67 -13.5 93.5t-54.5 33.5v80q41 7 54.5 33.5t13.5 93.5v138q0 79 28.5 111.5t113.5 32.5h61v-91h-9q-40 0 -53.5 -20t-13.5 -66v-124q0 -74 -15.5 -103t-55.5 -44v-1q40 -17 55.5 -47t15.5 -104v-122q0 -47 13 -65.5
t53 -18.5h10v-91z" />
    <glyph glyph-name="bar" unicode="|" horiz-adv-x="282" 
d="M79 -157v887h124v-887h-124z" />
    <glyph glyph-name="braceright" unicode="}" horiz-adv-x="338" 
d="M39 -147v91h10q40 0 53 18.5t13 65.5v122q0 74 15.5 104t55.5 47v1q-40 15 -55.5 44t-15.5 103v124q0 46 -13.5 66t-53.5 20h-9v91h61q85 0 113.5 -32.5t28.5 -111.5v-138q0 -67 13.5 -93.5t54.5 -33.5v-80q-41 -7 -54.5 -33.5t-13.5 -93.5v-137q0 -78 -29.5 -111
t-112.5 -33h-61z" />
    <glyph glyph-name="asciitilde" unicode="~" 
d="M396 245q-10 0 -20 1.5t-16 3t-18.5 6t-15.5 5.5t-18 8t-16 8l-34 16q-40 19 -59 19q-44 0 -80 -61l-77 61q63 119 151 119q10 0 20 -1.5t16 -3t18.5 -6t15.5 -5.5t18 -8t16 -8l34 -16q40 -19 59 -19q44 0 80 61l77 -61q-63 -119 -151 -119z" />
    <glyph glyph-name="uni00A0" unicode="&#xa0;" horiz-adv-x="222" 
 />
    <glyph glyph-name="exclamdown" unicode="&#xa1;" horiz-adv-x="286" 
d="M71 -204v304l15 229h114l15 -229v-304h-144zM70 384v142h146v-142h-146z" />
    <glyph glyph-name="cent" unicode="&#xa2;" 
d="M245 -34v130q-97 19 -151.5 90t-54.5 177q0 105 56 177.5t150 92.5v133h140v-135q131 -32 168 -160l-130 -28q-27 84 -111 84q-63 0 -96.5 -43t-33.5 -121q0 -77 35 -119.5t95 -42.5q87 0 113 84l128 -29q-17 -59 -60.5 -100t-107.5 -57v-133h-140z" />
    <glyph glyph-name="sterling" unicode="&#xa3;" 
d="M42 0v104q114 17 114 129q0 25 -14 83h-118v107h85q-11 49 -11 100q0 102 65.5 161.5t176.5 59.5q106 0 165.5 -52.5t61.5 -149.5l-137 -13q-11 92 -92 92q-47 0 -70 -28.5t-23 -79.5q0 -46 12 -89h158v-108h-128q14 -42 14 -82q0 -70 -43 -122q52 3 172 3h128v-115h-516
z" />
    <glyph glyph-name="currency" unicode="&#xa4;" 
d="M114 93l-89 89l64 64q-31 57 -31 116q0 62 31 117l-64 64l89 90l64 -65q56 31 116 31q62 0 117 -31l64 65l88 -90l-64 -64q34 -56 34 -116q0 -62 -33 -117l63 -64l-88 -89l-63 64q-52 -31 -117 -31q-63 0 -118 31zM295 239q51 0 87 36.5t36 86.5q0 51 -36 87t-87 36
t-87 -36t-36 -87q0 -50 36 -86.5t87 -36.5z" />
    <glyph glyph-name="yen" unicode="&#xa5;" 
d="M221 0v191h-198v97h193l-43 80h-150v97h101l-140 265h158l87 -176q15 -28 34.5 -74t30.5 -68h3q32 70 70 148l83 170h157l-145 -265h93v-97h-143l-42 -80h185v-97h-191v-191h-143z" />
    <glyph glyph-name="brokenbar" unicode="&#xa6;" horiz-adv-x="282" 
d="M79 385v345h124v-345h-124zM79 -157v345h124v-345h-124z" />
    <glyph glyph-name="section" unicode="&#xa7;" 
d="M286 -104q-104 0 -165.5 43.5t-73.5 124.5l137 15q12 -80 103 -80q38 0 63 14.5t25 41.5q0 23 -20 39t-69 35l-77 30q-85 33 -126.5 74t-41.5 112q0 85 89 132q-51 41 -51 107q0 74 60.5 117t160.5 43q96 0 155.5 -42t68.5 -121l-131 -14q-10 74 -95 74q-33 0 -55 -14
t-22 -37q0 -22 14.5 -34.5t54.5 -28.5l95 -39q81 -33 121.5 -73.5t40.5 -103.5q0 -89 -84 -139q56 -46 56 -113q0 -77 -63 -120t-170 -43zM259 277l108 -46q43 19 43 61q0 28 -21 46t-73 40l-93 40q-45 -16 -45 -58q0 -47 81 -83z" />
    <glyph glyph-name="dieresis" unicode="&#xa8;" horiz-adv-x="280" 
d="M222 604v117h118v-117h-118zM27 604v117h117v-117h-117z" />
    <glyph glyph-name="copyright" unicode="&#xa9;" horiz-adv-x="839" 
d="M416 -14q-157 0 -267.5 110.5t-110.5 268.5t111 268.5t270 110.5t270.5 -110.5t111.5 -268.5q0 -160 -111.5 -269.5t-273.5 -109.5zM424 136q-99 0 -158.5 62.5t-59.5 164.5q0 100 60.5 164t157.5 64q74 0 124.5 -36.5t67.5 -100.5l-92 -18q-24 74 -100 74
q-56 0 -87.5 -40t-31.5 -107q0 -66 32 -106.5t87 -40.5q75 0 100 74l94 -16q-18 -66 -68.5 -102t-125.5 -36zM420 54q127 0 216.5 91t89.5 220q0 128 -89.5 218t-217.5 90t-217 -90t-89 -218q0 -129 89 -220t218 -91z" />
    <glyph glyph-name="ordfeminine" unicode="&#xaa;" horiz-adv-x="408" 
d="M160 391q-55 0 -88.5 27t-33.5 75q0 42 26 63.5t81 34.5q46 10 77 15q19 4 24 7t5 14q0 33 -47 33q-49 0 -54 -44l-102 5q4 52 46.5 85t111.5 33q146 0 146 -134v-193v-16h-87q-1 3 -1 16v12h-1q-33 -33 -103 -33zM186 462q31 0 49 15t18 45v10q0 13 2 15q-12 -4 -42 -9
l-30 -7q-23 -6 -32 -13t-9 -24q0 -32 44 -32z" />
    <glyph glyph-name="guillemotleft" unicode="&#xab;" horiz-adv-x="522" 
d="M354 87l-108 196l108 197h129l-99 -197l99 -196h-129zM133 87l-108 196l108 197h129l-99 -197l99 -196h-129z" />
    <glyph glyph-name="logicalnot" unicode="&#xac;" 
d="M407 152v149q0 40 1 63h-373v122h504v-334h-132z" />
    <glyph glyph-name="uni00AD" unicode="&#xad;" horiz-adv-x="404" 
d="M59 229v128h286v-128h-286z" />
    <glyph glyph-name="registered" unicode="&#xae;" horiz-adv-x="839" 
d="M416 -14q-157 0 -267.5 110.5t-110.5 268.5t111 268.5t270 110.5t270.5 -110.5t111.5 -268.5q0 -160 -111.5 -269.5t-273.5 -109.5zM420 54q127 0 216.5 91t89.5 220q0 128 -89.5 218t-217.5 90t-217 -90t-89 -218q0 -129 89 -220t218 -91zM258 144v442h189
q77 0 117.5 -32.5t40.5 -92.5q0 -78 -68 -110q48 -21 54 -96l3 -41q6 -48 19 -67v-3h-98q-6 12 -11 60l-3 35q-4 42 -21 59.5t-66 17.5h-62v-172h-94zM352 391h86q33 0 52 16t19 45q0 57 -76 57h-81v-118z" />
    <glyph glyph-name="overscore" unicode="&#xaf;" horiz-adv-x="289" 
d="M8 622v94h274v-94h-274z" />
    <glyph glyph-name="degree" unicode="&#xb0;" horiz-adv-x="390" 
d="M195 422q-69 0 -116 45.5t-47 114.5q0 68 47 114t116 46q68 0 115 -46.5t47 -113.5q0 -69 -46.5 -114.5t-115.5 -45.5zM195 503q32 0 54.5 22.5t22.5 56.5q0 33 -22.5 55.5t-54.5 22.5q-34 0 -56.5 -22.5t-22.5 -55.5q0 -34 22.5 -56.5t56.5 -22.5z" />
    <glyph glyph-name="plusminus" unicode="&#xb1;" 
d="M232 247v127h-168v122h168v134h125v-134h168v-122h-168v-127h-125zM64 75v121h461v-121h-461z" />
    <glyph glyph-name="twosuperior" unicode="&#xb2;" horiz-adv-x="402" 
d="M32 393v89q29 27 137 116q47 41 65.5 65.5t18.5 54.5q0 22 -14 38t-39 16q-59 0 -61 -74l-109 2q1 79 46 125t127 46q78 0 121 -38t43 -107q0 -52 -24.5 -92t-73.5 -82q-19 -15 -35 -27.5t-30 -22.5l-21 -15v-1q13 1 48 1h26h113v-94h-338z" />
    <glyph glyph-name="threesuperior" unicode="&#xb3;" horiz-adv-x="402" 
d="M197 384q-80 0 -125.5 40.5t-49.5 115.5l111 6q5 -69 65 -69q28 0 43.5 16t15.5 42q0 60 -75 60h-25v82h22q66 0 66 53q0 21 -12.5 33t-33.5 12q-51 0 -53 -57l-112 7q4 67 47.5 106.5t117.5 39.5q73 0 115 -35t42 -93q0 -71 -62 -100q79 -34 79 -114q0 -67 -48 -106
t-128 -39z" />
    <glyph glyph-name="acute" unicode="&#xb4;" horiz-adv-x="351" 
d="M98 598l75 132h168l-118 -132h-125z" />
    <glyph glyph-name="mu" unicode="&#xb5;" horiz-adv-x="637" 
d="M209 -184h-139q5 72 5 129v581h140v-296q0 -129 99 -129q108 0 108 141v284h141v-446q0 -49 1 -80h-135v21q0 27 1 40q-56 -71 -156 -71q-26 0 -61 7v-50q0 -96 -4 -131z" />
    <glyph glyph-name="paragraph" unicode="&#xb6;" horiz-adv-x="655" 
d="M252 -135v455q-98 0 -162 52.5t-64 146.5q0 203 274 203h317v-101h-46q-23 0 -36 1q1 -20 1 -57v-700h-99v700q0 37 1 57q-15 -1 -36 -1h-14q-25 0 -40 1q1 -16 1 -65v-692h-97z" />
    <glyph glyph-name="middot" unicode="&#xb7;" horiz-adv-x="272" 
d="M58 219v152h156v-152h-156z" />
    <glyph glyph-name="cedilla" unicode="&#xb8;" horiz-adv-x="236" 
d="M-32 -179l108 132h127l-77 -132h-158z" />
    <glyph glyph-name="onesuperior" unicode="&#xb9;" horiz-adv-x="357" 
d="M41 393v87h100v229h-111v80q56 0 85.5 16t34.5 57h100v-382h92v-87h-301z" />
    <glyph glyph-name="ordmasculine" unicode="&#xba;" horiz-adv-x="427" 
d="M214 384q-81 0 -131 49t-50 127q0 80 50 129t131 49t130.5 -49.5t49.5 -128.5q0 -78 -49.5 -127t-130.5 -49zM214 471q71 0 71 89q0 41 -18.5 65.5t-52.5 24.5t-53 -24.5t-19 -65.5q0 -42 18.5 -65.5t53.5 -23.5z" />
    <glyph glyph-name="guillemotright" unicode="&#xbb;" horiz-adv-x="523" 
d="M261 87l99 196l-99 197h129l108 -197l-108 -196h-129zM39 87l99 196l-99 197h129l108 -197l-108 -196h-129z" />
    <glyph glyph-name="onequarter" unicode="&#xbc;" horiz-adv-x="865" 
d="M676 0v89h-190v75l104 305h105l-98 -294h79v163h99v-163h63v-86h-63v-89h-99zM193 0l303 730h116l-303 -730h-116zM137 261v316h-111v80q56 0 85.5 16t34.5 57h100v-469h-109z" />
    <glyph glyph-name="onehalf" unicode="&#xbd;" horiz-adv-x="897" 
d="M137 261v316h-111v80q56 0 85.5 16t34.5 57h100v-469h-109zM518 1v89q29 27 137 116q47 41 65.5 65.5t18.5 54.5q0 22 -14 38t-39 16q-59 0 -61 -74l-109 2q1 79 46 125t127 46q78 0 121 -38t43 -107q0 -52 -24.5 -92t-73.5 -82q-19 -15 -35 -27.5t-30 -22.5l-21 -15v-1
q13 1 48 1h26h113v-94h-338zM193 0l303 730h116l-303 -730h-116z" />
    <glyph glyph-name="threequarters" unicode="&#xbe;" horiz-adv-x="962" 
d="M291 0l303 730h116l-303 -730h-116zM774 0v89h-190v75l104 305h105l-98 -294h79v163h99v-163h63v-86h-63v-89h-99zM208 251q-80 0 -125.5 40.5t-49.5 115.5l111 6q5 -69 65 -69q28 0 43.5 16t15.5 42q0 60 -75 60h-25v82h22q66 0 66 53q0 21 -12.5 33t-33.5 12
q-51 0 -53 -57l-112 7q4 67 47.5 106.5t117.5 39.5q73 0 115 -35t42 -93q0 -71 -62 -100q79 -34 79 -114q0 -67 -48 -106t-128 -39z" />
    <glyph glyph-name="questiondown" unicode="&#xbf;" horiz-adv-x="553" 
d="M272 -220q-113 0 -178.5 57t-65.5 149q0 59 26 102t81 85l19 15q40 32 53.5 59.5t13.5 81.5h136q0 -75 -14.5 -117t-58.5 -80l-50 -45q-18 -15 -28 -25.5t-19 -29.5t-9 -42q0 -37 25.5 -60.5t72.5 -23.5q110 0 108 129l146 -6q0 -114 -67.5 -181.5t-190.5 -67.5zM215 384
v142h146v-142h-146z" />
    <glyph glyph-name="Agrave" unicode="&#xc0;" horiz-adv-x="724" 
d="M-4 0l283 730h165l284 -730h-157l-69 181h-286l-68 -181h-152zM257 304h203l-43 123q-35 91 -56 167h-4q-3 -10 -24.5 -76t-30.5 -91zM300 800l-118 132h169q24 -44 74 -132h-125z" />
    <glyph glyph-name="Aacute" unicode="&#xc1;" horiz-adv-x="724" 
d="M-4 0l283 730h165l284 -730h-157l-69 181h-286l-68 -181h-152zM257 304h203l-43 123q-35 91 -56 167h-4q-3 -10 -24.5 -76t-30.5 -91zM418 800h-125q50 88 74 132h169z" />
    <glyph glyph-name="Acircumflex" unicode="&#xc2;" horiz-adv-x="724" 
d="M-4 0l283 730h165l284 -730h-157l-69 181h-286l-68 -181h-152zM257 304h203l-43 123q-35 91 -56 167h-4q-3 -10 -24.5 -76t-30.5 -91zM178 800l101 132h161l102 -132h-121l-61 64h-1l-60 -64h-121z" />
    <glyph glyph-name="Atilde" unicode="&#xc3;" horiz-adv-x="724" 
d="M-4 0l283 730h165l284 -730h-157l-69 181h-286l-68 -181h-152zM257 304h203l-43 123q-35 91 -56 167h-4q-3 -10 -24.5 -76t-30.5 -91zM425 802q-33 0 -60 13l-14 6q-45 19 -55 19q-27 0 -37 -37l-79 9q7 54 34.5 86.5t73.5 32.5q30 0 60 -13l14 -6q45 -19 55 -19
q27 0 37 37l79 -9q-7 -54 -34.5 -86.5t-73.5 -32.5z" />
    <glyph glyph-name="Adieresis" unicode="&#xc4;" horiz-adv-x="724" 
d="M-4 0l283 730h165l284 -730h-157l-69 181h-286l-68 -181h-152zM257 304h203l-43 123q-35 91 -56 167h-4q-3 -10 -24.5 -76t-30.5 -91zM397 806v117h118v-117h-118zM203 806v117h117v-117h-117z" />
    <glyph glyph-name="Aring" unicode="&#xc5;" horiz-adv-x="724" 
d="M-4 0l283 730h165l284 -730h-157l-69 181h-286l-68 -181h-152zM257 304h203l-43 123q-35 91 -56 167h-4q-3 -10 -24.5 -76t-30.5 -91zM359 775q-45 0 -75.5 31.5t-30.5 76.5q0 44 31 75t75 31q45 0 76.5 -31t31.5 -75q0 -45 -31.5 -76.5t-76.5 -31.5zM359 840
q17 0 30 12.5t13 30.5q0 17 -13 29t-30 12h-4q-16 -2 -27 -13.5t-11 -27.5q0 -18 12.5 -30.5t29.5 -12.5z" />
    <glyph glyph-name="AE" unicode="&#xc6;" horiz-adv-x="1000" 
d="M-24 0l401 730h569v-126h-341l10 -167h303v-126h-298l10 -186h324v-125h-467l-8 178h-252l-94 -178h-157zM290 300h183q-1 19 -3 54t-2 52l-8 199h-10q-1 -3 -39.5 -78.5t-59.5 -113.5z" />
    <glyph glyph-name="Ccedilla" unicode="&#xc7;" horiz-adv-x="745" 
d="M403 -14q-164 0 -263.5 104.5t-99.5 273.5q0 167 102 273.5t263 106.5q119 0 202 -57.5t113 -158.5l-144 -31q-45 117 -175 117q-95 0 -150.5 -70.5t-55.5 -178.5q0 -112 57 -182.5t153 -70.5q62 0 105.5 31.5t65.5 86.5l147 -27q-31 -102 -115 -159.5t-205 -57.5z
M236 -179l108 132h127l-77 -132h-158z" />
    <glyph glyph-name="Egrave" unicode="&#xc8;" horiz-adv-x="633" 
d="M80 0v730h499v-126h-352v-167h325v-126h-325v-185h360v-126h-507zM286 800l-118 132h169q24 -44 74 -132h-125z" />
    <glyph glyph-name="Eacute" unicode="&#xc9;" horiz-adv-x="633" 
d="M80 0v730h499v-126h-352v-167h325v-126h-325v-185h360v-126h-507zM362 800h-125q50 88 74 132h169z" />
    <glyph glyph-name="Ecircumflex" unicode="&#xca;" horiz-adv-x="633" 
d="M80 0v730h499v-126h-352v-167h325v-126h-325v-185h360v-126h-507zM148 800l101 132h161l102 -132h-121l-61 64h-1l-60 -64h-121z" />
    <glyph glyph-name="Edieresis" unicode="&#xcb;" horiz-adv-x="633" 
d="M80 0v730h499v-126h-352v-167h325v-126h-325v-185h360v-126h-507zM366 806v117h118v-117h-118zM172 806v117h117v-117h-117z" />
    <glyph glyph-name="Igrave" unicode="&#xcc;" horiz-adv-x="312" 
d="M80 0v730h152v-730h-152zM100 800l-118 132h169q24 -44 74 -132h-125z" />
    <glyph glyph-name="Iacute" unicode="&#xcd;" horiz-adv-x="312" 
d="M80 0v730h152v-730h-152zM213 800h-125q50 88 74 132h169z" />
    <glyph glyph-name="Icircumflex" unicode="&#xce;" horiz-adv-x="312" 
d="M80 0v730h152v-730h-152zM-25 800l101 132h161l102 -132h-121l-61 64h-1l-60 -64h-121z" />
    <glyph glyph-name="Idieresis" unicode="&#xcf;" horiz-adv-x="312" 
d="M80 0v730h152v-730h-152zM194 806v117h118v-117h-118zM0 806v117h117v-117h-117z" />
    <glyph glyph-name="Eth" unicode="&#xd0;" horiz-adv-x="772" 
d="M89 0v312h-66v118h66v300h270q180 0 275 -92.5t95 -269.5q0 -169 -89 -266.5t-265 -101.5h-286zM238 123h107q232 0 232 238q0 126 -61 185t-216 59h-62v-175h147v-118h-147v-189z" />
    <glyph glyph-name="Ntilde" unicode="&#xd1;" horiz-adv-x="794" 
d="M80 0v730h195l201 -365q38 -67 94 -186h3q-3 71 -3 216v335h144v-730h-189l-188 336q-61 109 -114 222h-2q0 -22 2 -94t2 -100v-364h-145zM468 802q-33 0 -60 13l-14 6q-45 19 -55 19q-27 0 -37 -37l-79 9q7 54 34.5 86.5t73.5 32.5q30 0 60 -13l14 -6q45 -19 55 -19
q27 0 37 37l79 -9q-7 -54 -34.5 -86.5t-73.5 -32.5z" />
    <glyph glyph-name="Ograve" unicode="&#xd2;" horiz-adv-x="817" 
d="M409 -14q-166 0 -267.5 104t-101.5 274q0 169 102.5 274.5t265.5 105.5q164 0 266.5 -105.5t102.5 -274.5q0 -170 -101 -274t-267 -104zM408 111q98 0 156 71t58 184q0 110 -58 180t-156 70t-155.5 -70t-57.5 -180q0 -113 57.5 -184t155.5 -71zM363 800l-118 132h169
q24 -44 74 -132h-125z" />
    <glyph glyph-name="Oacute" unicode="&#xd3;" horiz-adv-x="817" 
d="M409 -14q-166 0 -267.5 104t-101.5 274q0 169 102.5 274.5t265.5 105.5q164 0 266.5 -105.5t102.5 -274.5q0 -170 -101 -274t-267 -104zM408 111q98 0 156 71t58 184q0 110 -58 180t-156 70t-155.5 -70t-57.5 -180q0 -113 57.5 -184t155.5 -71zM459 800h-125
q50 88 74 132h169z" />
    <glyph glyph-name="Ocircumflex" unicode="&#xd4;" horiz-adv-x="817" 
d="M409 -14q-166 0 -267.5 104t-101.5 274q0 169 102.5 274.5t265.5 105.5q164 0 266.5 -105.5t102.5 -274.5q0 -170 -101 -274t-267 -104zM408 111q98 0 156 71t58 184q0 110 -58 180t-156 70t-155.5 -70t-57.5 -180q0 -113 57.5 -184t155.5 -71zM227 800l101 132h161
l102 -132h-121l-61 64h-1l-60 -64h-121z" />
    <glyph glyph-name="Otilde" unicode="&#xd5;" horiz-adv-x="817" 
d="M409 -14q-166 0 -267.5 104t-101.5 274q0 169 102.5 274.5t265.5 105.5q164 0 266.5 -105.5t102.5 -274.5q0 -170 -101 -274t-267 -104zM408 111q98 0 156 71t58 184q0 110 -58 180t-156 70t-155.5 -70t-57.5 -180q0 -113 57.5 -184t155.5 -71zM476 802q-33 0 -60 13
l-14 6q-45 19 -55 19q-27 0 -37 -37l-79 9q7 54 34.5 86.5t73.5 32.5q30 0 60 -13l14 -6q45 -19 55 -19q27 0 37 37l79 -9q-7 -54 -34.5 -86.5t-73.5 -32.5z" />
    <glyph glyph-name="Odieresis" unicode="&#xd6;" horiz-adv-x="817" 
d="M409 -14q-166 0 -267.5 104t-101.5 274q0 169 102.5 274.5t265.5 105.5q164 0 266.5 -105.5t102.5 -274.5q0 -170 -101 -274t-267 -104zM408 111q98 0 156 71t58 184q0 110 -58 180t-156 70t-155.5 -70t-57.5 -180q0 -113 57.5 -184t155.5 -71zM447 806v117h118v-117
h-118zM253 806v117h117v-117h-117z" />
    <glyph glyph-name="multiply" unicode="&#xd7;" 
d="M136 93l-85 85l159 159l-159 159l85 85l159 -160l158 159l85 -85l-158 -158l158 -159l-85 -84l-158 158z" />
    <glyph glyph-name="Oslash" unicode="&#xd8;" horiz-adv-x="815" 
d="M189 -62l-99 61l57 85q-105 105 -105 282q0 169 101 274.5t264 105.5q89 0 155 -31l51 78l100 -62q-31 -49 -52 -79q113 -107 113 -286q0 -172 -100 -276t-267 -104q-89 0 -164 33zM233 216l254 385q-37 17 -80 17q-99 0 -153 -71t-54 -187q0 -86 33 -144zM405 113
q98 0 154.5 69t56.5 184q0 96 -40 158l-258 -392q39 -19 87 -19z" />
    <glyph glyph-name="Ugrave" unicode="&#xd9;" horiz-adv-x="732" 
d="M366 -14q-148 0 -220.5 70.5t-72.5 231.5v442h151v-442q0 -88 34 -131.5t108 -43.5t108 43.5t34 131.5v442h151v-442q0 -162 -73.5 -232t-219.5 -70zM322 800l-118 132h169q24 -44 74 -132h-125z" />
    <glyph glyph-name="Uacute" unicode="&#xda;" horiz-adv-x="732" 
d="M366 -14q-148 0 -220.5 70.5t-72.5 231.5v442h151v-442q0 -88 34 -131.5t108 -43.5t108 43.5t34 131.5v442h151v-442q0 -162 -73.5 -232t-219.5 -70zM408 800h-125q50 88 74 132h169z" />
    <glyph glyph-name="Ucircumflex" unicode="&#xdb;" horiz-adv-x="732" 
d="M366 -14q-148 0 -220.5 70.5t-72.5 231.5v442h151v-442q0 -88 34 -131.5t108 -43.5t108 43.5t34 131.5v442h151v-442q0 -162 -73.5 -232t-219.5 -70zM185 800l101 132h161l102 -132h-121l-61 64h-1l-60 -64h-121z" />
    <glyph glyph-name="Udieresis" unicode="&#xdc;" horiz-adv-x="732" 
d="M366 -14q-148 0 -220.5 70.5t-72.5 231.5v442h151v-442q0 -88 34 -131.5t108 -43.5t108 43.5t34 131.5v442h151v-442q0 -162 -73.5 -232t-219.5 -70zM408 806v117h118v-117h-118zM214 806v117h117v-117h-117z" />
    <glyph glyph-name="Yacute" unicode="&#xdd;" horiz-adv-x="645" 
d="M246 0v282l-247 448h166l70 -139q7 -15 39.5 -77t49.5 -97h2l89 175l72 138h162l-252 -448v-282h-151zM372 800h-125q50 88 74 132h169z" />
    <glyph glyph-name="Thorn" unicode="&#xde;" horiz-adv-x="660" 
d="M80 0v730h147v-111h132q139 0 204 -62t65 -167q0 -229 -280 -229h-121v-161h-147zM227 284h112q142 0 142 106q0 107 -140 107h-114v-213z" />
    <glyph glyph-name="germandbls" unicode="&#xdf;" horiz-adv-x="608" 
d="M325 -4q-30 0 -55 4v108q15 -3 30 -3q56 0 91.5 30t35.5 92q0 36 -13 60.5t-37 36.5t-49 16.5t-58 4.5v110q119 0 119 91q0 38 -23.5 62t-64.5 24q-44 0 -68 -26q-23 -24 -23 -84v-522h-141v496q0 127 58 186t180 59q108 0 167 -47.5t59 -131.5q0 -111 -98 -150
q137 -44 137 -190q0 -110 -68.5 -168t-178.5 -58z" />
    <glyph glyph-name="agrave" unicode="&#xe0;" horiz-adv-x="575" 
d="M228 -10q-89 0 -140.5 42t-51.5 116q0 71 46.5 107t157.5 57l86 16q42 8 48 15q5 7 5 20q0 33 -24.5 52.5t-69.5 19.5q-93 0 -100 -85l-132 8q6 82 68 130.5t166 48.5q113 0 169.5 -49.5t56.5 -154.5v-308q0 -7 0.5 -15.5t0.5 -9.5h-119q-1 8 -1 27v20h-1
q-59 -57 -165 -57zM263 83q57 0 88 31t31 90v19q0 16 2 21q-14 -4 -38 -8.5t-35 -6.5q-90 -18 -111 -31q-24 -16 -24 -48q0 -67 87 -67zM242 598l-118 132h168l75 -132h-125z" />
    <glyph glyph-name="aacute" unicode="&#xe1;" horiz-adv-x="575" 
d="M228 -10q-89 0 -140.5 42t-51.5 116q0 71 46.5 107t157.5 57l86 16q42 8 48 15q5 7 5 20q0 33 -24.5 52.5t-69.5 19.5q-93 0 -100 -85l-132 8q6 82 68 130.5t166 48.5q113 0 169.5 -49.5t56.5 -154.5v-308q0 -7 0.5 -15.5t0.5 -9.5h-119q-1 8 -1 27v20h-1
q-59 -57 -165 -57zM263 83q57 0 88 31t31 90v19q0 16 2 21q-14 -4 -38 -8.5t-35 -6.5q-90 -18 -111 -31q-24 -16 -24 -48q0 -67 87 -67zM200 598l75 132h168l-118 -132h-125z" />
    <glyph glyph-name="acircumflex" unicode="&#xe2;" horiz-adv-x="575" 
d="M228 -10q-89 0 -140.5 42t-51.5 116q0 71 46.5 107t157.5 57l86 16q42 8 48 15q5 7 5 20q0 33 -24.5 52.5t-69.5 19.5q-93 0 -100 -85l-132 8q6 82 68 130.5t166 48.5q113 0 169.5 -49.5t56.5 -154.5v-308q0 -7 0.5 -15.5t0.5 -9.5h-119q-1 8 -1 27v20h-1
q-59 -57 -165 -57zM263 83q57 0 88 31t31 90v19q0 16 2 21q-14 -4 -38 -8.5t-35 -6.5q-90 -18 -111 -31q-24 -16 -24 -48q0 -67 87 -67zM104 598l102 132h161l101 -132h-120l-62 64l-61 -64h-121z" />
    <glyph glyph-name="atilde" unicode="&#xe3;" horiz-adv-x="575" 
d="M228 -10q-89 0 -140.5 42t-51.5 116q0 71 46.5 107t157.5 57l86 16q42 8 48 15q5 7 5 20q0 33 -24.5 52.5t-69.5 19.5q-93 0 -100 -85l-132 8q6 82 68 130.5t166 48.5q113 0 169.5 -49.5t56.5 -154.5v-308q0 -7 0.5 -15.5t0.5 -9.5h-119q-1 8 -1 27v20h-1
q-59 -57 -165 -57zM263 83q57 0 88 31t31 90v19q0 16 2 21q-14 -4 -38 -8.5t-35 -6.5q-90 -18 -111 -31q-24 -16 -24 -48q0 -67 87 -67zM355 600q-30 0 -60 13l-14 6q-45 19 -55 19q-27 0 -37 -37l-79 9q7 54 34.5 86.5t73.5 32.5q30 0 60 -13l14 -6q45 -19 55 -19
q27 0 37 37l79 -9q-7 -54 -34.5 -86.5t-73.5 -32.5z" />
    <glyph glyph-name="adieresis" unicode="&#xe4;" horiz-adv-x="575" 
d="M228 -10q-89 0 -140.5 42t-51.5 116q0 71 46.5 107t157.5 57l86 16q42 8 48 15q5 7 5 20q0 33 -24.5 52.5t-69.5 19.5q-93 0 -100 -85l-132 8q6 82 68 130.5t166 48.5q113 0 169.5 -49.5t56.5 -154.5v-308q0 -7 0.5 -15.5t0.5 -9.5h-119q-1 8 -1 27v20h-1
q-59 -57 -165 -57zM263 83q57 0 88 31t31 90v19q0 16 2 21q-14 -4 -38 -8.5t-35 -6.5q-90 -18 -111 -31q-24 -16 -24 -48q0 -67 87 -67zM327 604v117h118v-117h-118zM132 604v117h117v-117h-117z" />
    <glyph glyph-name="aring" unicode="&#xe5;" horiz-adv-x="575" 
d="M228 -10q-89 0 -140.5 42t-51.5 116q0 71 46.5 107t157.5 57l86 16q42 8 48 15q5 7 5 20q0 33 -24.5 52.5t-69.5 19.5q-93 0 -100 -85l-132 8q6 82 68 130.5t166 48.5q113 0 169.5 -49.5t56.5 -154.5v-308q0 -7 0.5 -15.5t0.5 -9.5h-119q-1 8 -1 27v20h-1
q-59 -57 -165 -57zM263 83q57 0 88 31t31 90v19q0 16 2 21q-14 -4 -38 -8.5t-35 -6.5q-90 -18 -111 -31q-24 -16 -24 -48q0 -67 87 -67zM288 573q-45 0 -75.5 31.5t-30.5 76.5q0 44 31 75t75 31q45 0 76.5 -31t31.5 -75q0 -45 -31.5 -76.5t-76.5 -31.5zM288 638
q17 0 30 12.5t13 30.5q0 17 -13 29t-30 12t-29.5 -12t-12.5 -29q0 -18 12.5 -30.5t29.5 -12.5z" />
    <glyph glyph-name="ae" unicode="&#xe6;" horiz-adv-x="930" 
d="M641 -13q-127 0 -200 82h-6q-37 -37 -83 -57.5t-125 -20.5q-89 0 -140 40.5t-51 114.5q0 37 13.5 64t33 43.5t57 29.5t70 20.5t88.5 17.5q18 3 28 5q41 8 46 15q6 7 6 20q0 33 -24.5 52t-68.5 19q-46 0 -71.5 -23t-28.5 -61l-131 8q6 80 68.5 128.5t163.5 48.5
q124 0 177 -62q72 64 176 64q125 0 189.5 -80t64.5 -215v-15h-385q4 -60 40.5 -95t94.5 -35q90 0 134 73l114 -44q-79 -137 -250 -137zM260 82q57 0 89 31.5t32 88.5v20q0 16 2 21q-10 -3 -73 -17q-42 -7 -61.5 -11.5t-40 -13t-28 -21t-7.5 -31.5q0 -32 23 -49.5t64 -17.5z
M509 318h248q-4 49 -35 83t-85 34q-55 0 -88 -32t-40 -85z" />
    <glyph glyph-name="ccedilla" unicode="&#xe7;" horiz-adv-x="574" 
d="M306 -13q-123 0 -196 76t-73 199q0 124 75 201.5t198 77.5q92 0 156 -47t85 -124l-130 -28q-27 84 -111 84q-63 0 -96.5 -43t-33.5 -121q0 -77 35 -119.5t95 -42.5q87 0 113 84l128 -29q-22 -77 -87 -122.5t-158 -45.5zM144 -179l108 132h127l-77 -132h-158z" />
    <glyph glyph-name="egrave" unicode="&#xe8;" horiz-adv-x="606" 
d="M312 -13q-126 0 -201 74.5t-75 200.5q0 121 75.5 199.5t197.5 78.5q131 0 196 -84t65 -229h-397q5 -61 43.5 -96.5t97.5 -35.5q95 0 139 75l114 -45q-32 -61 -97.5 -99.5t-157.5 -38.5zM174 321h258q-4 50 -36.5 84t-87.5 34t-90 -32.5t-44 -85.5zM257 598l-118 132h168
l75 -132h-125z" />
    <glyph glyph-name="eacute" unicode="&#xe9;" horiz-adv-x="606" 
d="M312 -13q-126 0 -201 74.5t-75 200.5q0 121 75.5 199.5t197.5 78.5q131 0 196 -84t65 -229h-397q5 -61 43.5 -96.5t97.5 -35.5q95 0 139 75l114 -45q-32 -61 -97.5 -99.5t-157.5 -38.5zM174 321h258q-4 50 -36.5 84t-87.5 34t-90 -32.5t-44 -85.5zM235 598l75 132h168
l-118 -132h-125z" />
    <glyph glyph-name="ecircumflex" unicode="&#xea;" horiz-adv-x="606" 
d="M312 -13q-126 0 -201 74.5t-75 200.5q0 121 75.5 199.5t197.5 78.5q131 0 196 -84t65 -229h-397q5 -61 43.5 -96.5t97.5 -35.5q95 0 139 75l114 -45q-32 -61 -97.5 -99.5t-157.5 -38.5zM174 321h258q-4 50 -36.5 84t-87.5 34t-90 -32.5t-44 -85.5zM125 598l102 132h161
l101 -132h-120l-62 64l-61 -64h-121z" />
    <glyph glyph-name="edieresis" unicode="&#xeb;" horiz-adv-x="606" 
d="M312 -13q-126 0 -201 74.5t-75 200.5q0 121 75.5 199.5t197.5 78.5q131 0 196 -84t65 -229h-397q5 -61 43.5 -96.5t97.5 -35.5q95 0 139 75l114 -45q-32 -61 -97.5 -99.5t-157.5 -38.5zM174 321h258q-4 50 -36.5 84t-87.5 34t-90 -32.5t-44 -85.5zM348 604v117h118v-117
h-118zM153 604v117h117v-117h-117z" />
    <glyph glyph-name="igrave" unicode="&#xec;" horiz-adv-x="280" 
d="M85 598l-118 132h168l75 -132h-125zM69 0v526h142v-526h-142z" />
    <glyph glyph-name="iacute" unicode="&#xed;" horiz-adv-x="280" 
d="M72 598l75 132h168l-118 -132h-125zM69 0v526h142v-526h-142z" />
    <glyph glyph-name="icircumflex" unicode="&#xee;" horiz-adv-x="280" 
d="M69 0v526h142v-526h-142zM-43 598l102 132h161l101 -132h-120l-62 64l-61 -64h-121z" />
    <glyph glyph-name="idieresis" unicode="&#xef;" horiz-adv-x="280" 
d="M179 604v117h118v-117h-118zM-16 604v117h117v-117h-117zM69 0v526h142v-526h-142z" />
    <glyph glyph-name="eth" unicode="&#xf0;" horiz-adv-x="614" 
d="M304 -13q-120 0 -193.5 73.5t-73.5 198.5q0 126 71.5 200.5t180.5 74.5q41 0 72 -16l2 2q-34 44 -86 78q-92 -42 -111 -52l-49 55q44 21 91 41q-51 26 -114 54l74 61q77 -21 156 -64l101 48l46 -55l-82 -39q186 -143 186 -369q0 -139 -73 -215t-198 -76zM304 92
q62 0 95.5 45t33.5 124t-33.5 124t-95.5 45t-95 -45t-33 -124q0 -80 33 -124.5t95 -44.5z" />
    <glyph glyph-name="ntilde" unicode="&#xf1;" horiz-adv-x="622" 
d="M69 0v426q0 72 -1 100h134v-21q0 -29 -1 -42h2q51 77 165 77q91 0 141 -54.5t50 -162.5v-323h-140v254q0 90 -21.5 129.5t-76.5 39.5q-59 0 -85.5 -38.5t-26.5 -121.5v-263h-140zM389 600q-30 0 -60 13l-14 6q-45 19 -55 19q-27 0 -37 -37l-79 9q7 54 34.5 86.5
t73.5 32.5q30 0 60 -13l14 -6q45 -19 55 -19q27 0 37 37l79 -9q-7 -54 -34.5 -86.5t-73.5 -32.5z" />
    <glyph glyph-name="ograve" unicode="&#xf2;" horiz-adv-x="626" 
d="M313 -13q-124 0 -200.5 76.5t-76.5 199.5t77 200.5t201 77.5q123 0 199.5 -77.5t76.5 -200.5t-77 -199.5t-200 -76.5zM313 100q64 0 99 43.5t35 118.5q0 74 -35 119.5t-99 45.5q-65 0 -100.5 -45t-35.5 -119q0 -76 35.5 -119.5t100.5 -43.5zM266 598l-118 132h168
l75 -132h-125z" />
    <glyph glyph-name="oacute" unicode="&#xf3;" horiz-adv-x="626" 
d="M313 -13q-124 0 -200.5 76.5t-76.5 199.5t77 200.5t201 77.5q123 0 199.5 -77.5t76.5 -200.5t-77 -199.5t-200 -76.5zM313 100q64 0 99 43.5t35 118.5q0 74 -35 119.5t-99 45.5q-65 0 -100.5 -45t-35.5 -119q0 -76 35.5 -119.5t100.5 -43.5zM232 598l75 132h168
l-118 -132h-125z" />
    <glyph glyph-name="ocircumflex" unicode="&#xf4;" horiz-adv-x="626" 
d="M313 -13q-124 0 -200.5 76.5t-76.5 199.5t77 200.5t201 77.5q123 0 199.5 -77.5t76.5 -200.5t-77 -199.5t-200 -76.5zM313 100q64 0 99 43.5t35 118.5q0 74 -35 119.5t-99 45.5q-65 0 -100.5 -45t-35.5 -119q0 -76 35.5 -119.5t100.5 -43.5zM132 598l102 132h161
l101 -132h-120l-62 64l-61 -64h-121z" />
    <glyph glyph-name="otilde" unicode="&#xf5;" horiz-adv-x="626" 
d="M313 -13q-124 0 -200.5 76.5t-76.5 199.5t77 200.5t201 77.5q123 0 199.5 -77.5t76.5 -200.5t-77 -199.5t-200 -76.5zM313 100q64 0 99 43.5t35 118.5q0 74 -35 119.5t-99 45.5q-65 0 -100.5 -45t-35.5 -119q0 -76 35.5 -119.5t100.5 -43.5zM384 600q-30 0 -60 13l-14 6
q-45 19 -55 19q-27 0 -37 -37l-79 9q7 54 34.5 86.5t73.5 32.5q30 0 60 -13l14 -6q45 -19 55 -19q27 0 37 37l79 -9q-7 -54 -34.5 -86.5t-73.5 -32.5z" />
    <glyph glyph-name="odieresis" unicode="&#xf6;" horiz-adv-x="626" 
d="M313 -13q-124 0 -200.5 76.5t-76.5 199.5t77 200.5t201 77.5q123 0 199.5 -77.5t76.5 -200.5t-77 -199.5t-200 -76.5zM313 100q64 0 99 43.5t35 118.5q0 74 -35 119.5t-99 45.5q-65 0 -100.5 -45t-35.5 -119q0 -76 35.5 -119.5t100.5 -43.5zM354 604v117h118v-117h-118z
M159 604v117h117v-117h-117z" />
    <glyph glyph-name="divide" unicode="&#xf7;" 
d="M52 278v119h484v-119h-484zM294 68q-32 0 -53.5 21t-21.5 53q0 31 21.5 53t53.5 22q31 0 53 -22t22 -53q0 -32 -22 -53t-53 -21zM294 459q-32 0 -53.5 21t-21.5 53q0 31 21.5 53t53.5 22q31 0 53 -22t22 -53q0 -32 -22 -53t-53 -21z" />
    <glyph glyph-name="oslash" unicode="&#xf8;" horiz-adv-x="626" 
d="M149 -62l-85 52l48 73q-76 78 -76 200q0 123 77 200.5t201 77.5q56 0 104 -18l46 70l88 -54l-46 -69q84 -81 84 -207q0 -123 -77 -199.5t-200 -76.5q-60 0 -117 21zM190 181l160 241q-20 5 -37 5q-65 0 -101 -45t-36 -119q0 -45 14 -82zM313 100q64 0 99.5 43.5
t35.5 118.5q0 51 -20 93l-165 -247q26 -8 50 -8z" />
    <glyph glyph-name="ugrave" unicode="&#xf9;" horiz-adv-x="618" 
d="M253 -12q-91 0 -140.5 51t-49.5 156v331h140v-296q0 -67 24.5 -97.5t73.5 -30.5q108 0 108 141v283h140v-445q0 -50 1 -81h-134v21q0 26 1 41h-2q-50 -74 -162 -74zM268 598l-118 132h168l75 -132h-125z" />
    <glyph glyph-name="uacute" unicode="&#xfa;" horiz-adv-x="618" 
d="M253 -12q-91 0 -140.5 51t-49.5 156v331h140v-296q0 -67 24.5 -97.5t73.5 -30.5q108 0 108 141v283h140v-445q0 -50 1 -81h-134v21q0 26 1 41h-2q-50 -74 -162 -74zM229 598l75 132h168l-118 -132h-125z" />
    <glyph glyph-name="ucircumflex" unicode="&#xfb;" horiz-adv-x="618" 
d="M253 -12q-91 0 -140.5 51t-49.5 156v331h140v-296q0 -67 24.5 -97.5t73.5 -30.5q108 0 108 141v283h140v-445q0 -50 1 -81h-134v21q0 26 1 41h-2q-50 -74 -162 -74zM126 598l102 132h161l101 -132h-120l-62 64l-61 -64h-121z" />
    <glyph glyph-name="udieresis" unicode="&#xfc;" horiz-adv-x="618" 
d="M253 -12q-91 0 -140.5 51t-49.5 156v331h140v-296q0 -67 24.5 -97.5t73.5 -30.5q108 0 108 141v283h140v-445q0 -50 1 -81h-134v21q0 26 1 41h-2q-50 -74 -162 -74zM343 604v117h118v-117h-118zM148 604v117h117v-117h-117z" />
    <glyph glyph-name="yacute" unicode="&#xfd;" horiz-adv-x="552" 
d="M105 -190q-12 0 -42 2l-13 106q15 -1 39 -1q50 0 75.5 15t42.5 66l-202 528h152l58 -180q48 -152 63 -205h4q43 149 60 204l57 181h148l-212 -563q-34 -89 -86.5 -121t-143.5 -32zM198 598l75 132h168l-118 -132h-125z" />
    <glyph glyph-name="thorn" unicode="&#xfe;" horiz-adv-x="648" 
d="M69 -188v918h139v-152q0 -54 -3 -116q63 79 165 79q105 0 173 -77.5t68 -199.5q0 -123 -67.5 -199.5t-175.5 -76.5q-106 0 -159 71h-2q1 -27 1 -76v-171h-139zM338 100q61 0 96 44t35 117t-35 118t-97 45q-61 0 -97 -44.5t-36 -117.5t36 -117.5t98 -44.5z" />
    <glyph glyph-name="ydieresis" unicode="&#xff;" horiz-adv-x="552" 
d="M105 -190q-12 0 -42 2l-13 106q15 -1 39 -1q50 0 75.5 15t42.5 66l-202 528h152l58 -180q48 -152 63 -205h4q43 149 60 204l57 181h148l-212 -563q-34 -89 -86.5 -121t-143.5 -32zM318 604v117h118v-117h-118zM123 604v117h117v-117h-117z" />
    <glyph glyph-name="Amacron" unicode="&#x100;" horiz-adv-x="724" 
d="M-4 0l283 730h165l284 -730h-157l-69 181h-286l-68 -181h-152zM257 304h203l-43 123q-35 91 -56 167h-4q-3 -10 -24.5 -76t-30.5 -91zM221 825v94h274v-94h-274z" />
    <glyph glyph-name="amacron" unicode="&#x101;" horiz-adv-x="575" 
d="M228 -10q-89 0 -140.5 42t-51.5 116q0 71 46.5 107t157.5 57l86 16q42 8 48 15q5 7 5 20q0 33 -24.5 52.5t-69.5 19.5q-93 0 -100 -85l-132 8q6 82 68 130.5t166 48.5q113 0 169.5 -49.5t56.5 -154.5v-308q0 -7 0.5 -15.5t0.5 -9.5h-119q-1 8 -1 27v20h-1
q-59 -57 -165 -57zM263 83q57 0 88 31t31 90v19q0 16 2 21q-14 -4 -38 -8.5t-35 -6.5q-90 -18 -111 -31q-24 -16 -24 -48q0 -67 87 -67zM148 622v94h274v-94h-274z" />
    <glyph glyph-name="Abreve" unicode="&#x102;" horiz-adv-x="724" 
d="M-4 0l283 730h165l284 -730h-157l-69 181h-286l-68 -181h-152zM257 304h203l-43 123q-35 91 -56 167h-4q-3 -10 -24.5 -76t-30.5 -91zM357 797q-64 0 -107 31.5t-57 91.5q13 3 82 16q21 -50 82 -50q59 0 82 50q63 -11 82 -16q-14 -60 -56.5 -91.5t-107.5 -31.5z" />
    <glyph glyph-name="abreve" unicode="&#x103;" horiz-adv-x="575" 
d="M228 -10q-89 0 -140.5 42t-51.5 116q0 71 46.5 107t157.5 57l86 16q42 8 48 15q5 7 5 20q0 33 -24.5 52.5t-69.5 19.5q-93 0 -100 -85l-132 8q6 82 68 130.5t166 48.5q113 0 169.5 -49.5t56.5 -154.5v-308q0 -7 0.5 -15.5t0.5 -9.5h-119q-1 8 -1 27v20h-1
q-59 -57 -165 -57zM263 83q57 0 88 31t31 90v19q0 16 2 21q-14 -4 -38 -8.5t-35 -6.5q-90 -18 -111 -31q-24 -16 -24 -48q0 -67 87 -67zM308 595q-66 0 -108 31.5t-55 91.5q19 5 81 16q21 -50 82 -50q59 0 82 50q69 -13 82 -16q-14 -60 -56.5 -91.5t-107.5 -31.5z" />
    <glyph glyph-name="Aogonek" unicode="&#x104;" horiz-adv-x="724" 
d="M660 -192q-54 0 -88 23.5t-34 66.5q0 53 71 102h-38l-69 181h-286l-68 -181h-152l283 730h165l284 -730q-91 -41 -91 -79q0 -31 40 -31q22 0 41 12l45 -70q-41 -24 -103 -24zM257 304h203l-43 123q-35 91 -56 167h-4q-3 -10 -24.5 -76t-30.5 -91z" />
    <glyph glyph-name="aogonek" unicode="&#x105;" horiz-adv-x="575" 
d="M446 -192q-54 0 -88 23.5t-34 66.5q0 53 71 102q-1 8 -1 27v20h-1q-59 -57 -165 -57q-89 0 -140.5 42t-51.5 116q0 71 46.5 107t157.5 57l86 16q42 8 48 15q5 7 5 20q0 33 -24.5 52.5t-69.5 19.5q-93 0 -100 -85l-132 8q6 82 68 130.5t166 48.5q113 0 169.5 -49.5
t56.5 -154.5v-308q0 -7 0.5 -15.5t0.5 -9.5q-91 -41 -91 -79q0 -31 40 -31q22 0 41 12l45 -70q-41 -24 -103 -24zM263 83q57 0 88 31t31 90v19q0 16 2 21q-14 -4 -38 -8.5t-35 -6.5q-90 -18 -111 -31q-24 -16 -24 -48q0 -67 87 -67z" />
    <glyph glyph-name="Cacute" unicode="&#x106;" horiz-adv-x="745" 
d="M403 -14q-164 0 -263.5 104.5t-99.5 273.5q0 167 102 273.5t263 106.5q119 0 202 -57.5t113 -158.5l-144 -31q-45 117 -175 117q-95 0 -150.5 -70.5t-55.5 -178.5q0 -112 57 -182.5t153 -70.5q62 0 105.5 31.5t65.5 86.5l147 -27q-31 -102 -115 -159.5t-205 -57.5z
M463 800h-125q50 88 74 132h169z" />
    <glyph glyph-name="cacute" unicode="&#x107;" horiz-adv-x="574" 
d="M306 -13q-123 0 -196 76t-73 199q0 124 75 201.5t198 77.5q92 0 156 -47t85 -124l-130 -28q-27 84 -111 84q-63 0 -96.5 -43t-33.5 -121q0 -77 35 -119.5t95 -42.5q87 0 113 84l128 -29q-22 -77 -87 -122.5t-158 -45.5zM242 598l75 132h168l-118 -132h-125z" />
    <glyph glyph-name="Ccircumflex" unicode="&#x108;" horiz-adv-x="745" 
d="M403 -14q-164 0 -263.5 104.5t-99.5 273.5q0 167 102 273.5t263 106.5q119 0 202 -57.5t113 -158.5l-144 -31q-45 117 -175 117q-95 0 -150.5 -70.5t-55.5 -178.5q0 -112 57 -182.5t153 -70.5q62 0 105.5 31.5t65.5 86.5l147 -27q-31 -102 -115 -159.5t-205 -57.5z
M227 800l101 132h161l102 -132h-121l-61 64h-1l-60 -64h-121z" />
    <glyph glyph-name="ccircumflex" unicode="&#x109;" horiz-adv-x="574" 
d="M306 -13q-123 0 -196 76t-73 199q0 124 75 201.5t198 77.5q92 0 156 -47t85 -124l-130 -28q-27 84 -111 84q-63 0 -96.5 -43t-33.5 -121q0 -77 35 -119.5t95 -42.5q87 0 113 84l128 -29q-22 -77 -87 -122.5t-158 -45.5zM132 598l102 132h161l101 -132h-120l-62 64
l-61 -64h-121z" />
    <glyph glyph-name="Cdotaccent" unicode="&#x10a;" horiz-adv-x="745" 
d="M403 -14q-164 0 -263.5 104.5t-99.5 273.5q0 167 102 273.5t263 106.5q119 0 202 -57.5t113 -158.5l-144 -31q-45 117 -175 117q-95 0 -150.5 -70.5t-55.5 -178.5q0 -112 57 -182.5t153 -70.5q62 0 105.5 31.5t65.5 86.5l147 -27q-31 -102 -115 -159.5t-205 -57.5z
M348 806v117h122v-117h-122z" />
    <glyph glyph-name="cdotaccent" unicode="&#x10b;" horiz-adv-x="574" 
d="M306 -13q-123 0 -196 76t-73 199q0 124 75 201.5t198 77.5q92 0 156 -47t85 -124l-130 -28q-27 84 -111 84q-63 0 -96.5 -43t-33.5 -121q0 -77 35 -119.5t95 -42.5q87 0 113 84l128 -29q-22 -77 -87 -122.5t-158 -45.5zM246 604v117h121v-117h-121z" />
    <glyph glyph-name="Ccaron" unicode="&#x10c;" horiz-adv-x="745" 
d="M403 -14q-164 0 -263.5 104.5t-99.5 273.5q0 167 102 273.5t263 106.5q119 0 202 -57.5t113 -158.5l-144 -31q-45 117 -175 117q-95 0 -150.5 -70.5t-55.5 -178.5q0 -112 57 -182.5t153 -70.5q62 0 105.5 31.5t65.5 86.5l147 -27q-31 -102 -115 -159.5t-205 -57.5z
M326 800l-102 132h121q45 -49 62 -64l61 64h120l-101 -132h-161z" />
    <glyph glyph-name="ccaron" unicode="&#x10d;" horiz-adv-x="574" 
d="M306 -13q-123 0 -196 76t-73 199q0 124 75 201.5t198 77.5q92 0 156 -47t85 -124l-130 -28q-27 84 -111 84q-63 0 -96.5 -43t-33.5 -121q0 -77 35 -119.5t95 -42.5q87 0 113 84l128 -29q-22 -77 -87 -122.5t-158 -45.5zM234 598l-102 132h121q45 -49 62 -64l61 64h120
l-101 -132h-161z" />
    <glyph glyph-name="Dcaron" unicode="&#x10e;" horiz-adv-x="762" 
d="M80 0v730h267q181 0 276.5 -90t96.5 -266q0 -177 -97.5 -275.5t-291.5 -98.5h-251zM230 123h106q109 0 170.5 60.5t61.5 189.5q0 117 -58.5 174.5t-188.5 57.5h-91v-482zM286 800l-102 132h121q45 -49 62 -64l61 64h120l-101 -132h-161z" />
    <glyph glyph-name="dcaron" unicode="&#x10f;" horiz-adv-x="672" 
d="M279 -12q-107 0 -174.5 75.5t-67.5 198.5t67 201t173 78q108 0 164 -77q-1 35 -1 98v168h140v-655q0 -56 1 -75h-135v20q0 22 1 45h-1q-58 -77 -167 -77zM309 100q62 0 98.5 45t36.5 118t-36 117.5t-98 44.5q-61 0 -96 -45t-35 -118t35 -117.5t95 -44.5zM626 557l33 173
h150l-61 -173h-122z" />
    <glyph glyph-name="Dcroat" unicode="&#x110;" horiz-adv-x="772" 
d="M89 0v312h-66v118h66v300h270q180 0 275 -92.5t95 -269.5q0 -169 -89 -266.5t-265 -101.5h-286zM238 123h107q232 0 232 238q0 126 -61 185t-216 59h-62v-175h147v-118h-147v-189z" />
    <glyph glyph-name="dslash" unicode="&#x111;" horiz-adv-x="649" 
d="M279 -12q-107 0 -174.5 75.5t-67.5 198.5t67 201t173 78q109 0 165 -77q-1 35 -1 98v19h-119v99h119v50h139v-50h36v-99h-36v-506q0 -56 1 -75h-135v20q0 22 1 45h-1q-58 -77 -167 -77zM309 100q62 0 98.5 45t36.5 118t-36 117.5t-98 44.5q-61 0 -96 -45t-35 -118
t35 -117.5t95 -44.5z" />
    <glyph glyph-name="Emacron" unicode="&#x112;" horiz-adv-x="633" 
d="M80 0v730h499v-126h-352v-167h325v-126h-325v-185h360v-126h-507zM191 825v94h274v-94h-274z" />
    <glyph glyph-name="emacron" unicode="&#x113;" horiz-adv-x="606" 
d="M312 -13q-126 0 -201 74.5t-75 200.5q0 121 75.5 199.5t197.5 78.5q131 0 196 -84t65 -229h-397q5 -61 43.5 -96.5t97.5 -35.5q95 0 139 75l114 -45q-32 -61 -97.5 -99.5t-157.5 -38.5zM174 321h258q-4 50 -36.5 84t-87.5 34t-90 -32.5t-44 -85.5zM176 622v94h274v-94
h-274z" />
    <glyph glyph-name="Ebreve" unicode="&#x114;" horiz-adv-x="633" 
d="M80 0v730h499v-126h-352v-167h325v-126h-325v-185h360v-126h-507zM328 797q-64 0 -107 31.5t-57 91.5q13 3 82 16q21 -50 82 -50q59 0 82 50q63 -11 82 -16q-14 -60 -56.5 -91.5t-107.5 -31.5z" />
    <glyph glyph-name="ebreve" unicode="&#x115;" horiz-adv-x="606" 
d="M312 -13q-126 0 -201 74.5t-75 200.5q0 121 75.5 199.5t197.5 78.5q131 0 196 -84t65 -229h-397q5 -61 43.5 -96.5t97.5 -35.5q95 0 139 75l114 -45q-32 -61 -97.5 -99.5t-157.5 -38.5zM174 321h258q-4 50 -36.5 84t-87.5 34t-90 -32.5t-44 -85.5zM330 595
q-66 0 -108 31.5t-55 91.5q19 5 81 16q21 -50 82 -50q59 0 82 50q69 -13 82 -16q-14 -60 -56.5 -91.5t-107.5 -31.5z" />
    <glyph glyph-name="Edotaccent" unicode="&#x116;" horiz-adv-x="633" 
d="M80 0v730h499v-126h-352v-167h325v-126h-325v-185h360v-126h-507zM271 806v117h122v-117h-122z" />
    <glyph glyph-name="edotaccent" unicode="&#x117;" horiz-adv-x="606" 
d="M312 -13q-126 0 -201 74.5t-75 200.5q0 121 75.5 199.5t197.5 78.5q131 0 196 -84t65 -229h-397q5 -61 43.5 -96.5t97.5 -35.5q95 0 139 75l114 -45q-32 -61 -97.5 -99.5t-157.5 -38.5zM174 321h258q-4 50 -36.5 84t-87.5 34t-90 -32.5t-44 -85.5zM243 604v117h121v-117
h-121z" />
    <glyph glyph-name="Eogonek" unicode="&#x118;" horiz-adv-x="633" 
d="M80 0v730h499v-126h-352v-167h325v-126h-325v-185h360v-126q-91 -41 -91 -79q0 -31 40 -31q22 0 41 12l45 -70q-41 -24 -103 -24q-54 0 -88 23.5t-34 66.5q0 53 71 102h-388z" />
    <glyph glyph-name="eogonek" unicode="&#x119;" horiz-adv-x="606" 
d="M339 -192q-54 0 -88 23.5t-34 66.5q0 48 55 91q-110 12 -173 84.5t-63 188.5q0 121 75.5 199.5t197.5 78.5q131 0 196 -84t65 -229h-397q5 -61 43.5 -96.5t97.5 -35.5q95 0 139 75l114 -45q-54 -97 -163 -126q-88 -40 -88 -78q0 -31 40 -31q22 0 41 12l45 -70
q-41 -24 -103 -24zM174 321h258q-4 50 -36.5 84t-87.5 34t-90 -32.5t-44 -85.5z" />
    <glyph glyph-name="Ecaron" unicode="&#x11a;" horiz-adv-x="633" 
d="M80 0v730h499v-126h-352v-167h325v-126h-325v-185h360v-126h-507zM252 800l-102 132h121q45 -49 62 -64l61 64h120l-101 -132h-161z" />
    <glyph glyph-name="ecaron" unicode="&#x11b;" horiz-adv-x="606" 
d="M312 -13q-126 0 -201 74.5t-75 200.5q0 121 75.5 199.5t197.5 78.5q131 0 196 -84t65 -229h-397q5 -61 43.5 -96.5t97.5 -35.5q95 0 139 75l114 -45q-32 -61 -97.5 -99.5t-157.5 -38.5zM174 321h258q-4 50 -36.5 84t-87.5 34t-90 -32.5t-44 -85.5zM230 598l-102 132h121
q45 -49 62 -64l61 64h120l-101 -132h-161z" />
    <glyph glyph-name="Gcircumflex" unicode="&#x11c;" horiz-adv-x="789" 
d="M391 -14q-156 0 -253.5 106t-97.5 274t102 273t267 105q121 0 204.5 -54.5t116.5 -146.5l-142 -37q-23 50 -68.5 79.5t-111.5 29.5q-98 0 -155.5 -69.5t-57.5 -181.5q0 -115 60 -185t161 -70q83 0 130.5 44t55.5 124h-222v124h355v-401h-137v17q0 8 0.5 22.5t0.5 20.5h-2
q-20 -28 -78.5 -51t-127.5 -23zM234 800l101 132h161l102 -132h-121l-61 64h-1l-60 -64h-121z" />
    <glyph glyph-name="gcircumflex" unicode="&#x11d;" horiz-adv-x="642" 
d="M304 -199q-95 0 -161.5 37.5t-94.5 102.5l118 46q42 -76 140 -76q129 0 133 131v2l3 45h-2q-55 -76 -164 -76q-104 0 -170.5 73.5t-66.5 188.5q0 116 68 190t171 74q110 0 164 -76h2q-2 8 -2 45v18h134q0 -16 -0.5 -44.5t-0.5 -51.5v-382q0 -121 -74 -184t-197 -63z
M311 123q57 0 93.5 43t36.5 109t-35.5 109t-94.5 43t-94.5 -43t-35.5 -109q0 -68 35 -110t95 -42zM138 598l102 132h161l101 -132h-120l-62 64l-61 -64h-121z" />
    <glyph glyph-name="Gbreve" unicode="&#x11e;" horiz-adv-x="789" 
d="M391 -14q-156 0 -253.5 106t-97.5 274t102 273t267 105q121 0 204.5 -54.5t116.5 -146.5l-142 -37q-23 50 -68.5 79.5t-111.5 29.5q-98 0 -155.5 -69.5t-57.5 -181.5q0 -115 60 -185t161 -70q83 0 130.5 44t55.5 124h-222v124h355v-401h-137v17q0 8 0.5 22.5t0.5 20.5h-2
q-20 -28 -78.5 -51t-127.5 -23zM415 797q-64 0 -107 31.5t-57 91.5q13 3 82 16q21 -50 82 -50q59 0 82 50q63 -11 82 -16q-14 -60 -56.5 -91.5t-107.5 -31.5z" />
    <glyph glyph-name="gbreve" unicode="&#x11f;" horiz-adv-x="642" 
d="M304 -199q-95 0 -161.5 37.5t-94.5 102.5l118 46q42 -76 140 -76q129 0 133 131v2l3 45h-2q-55 -76 -164 -76q-104 0 -170.5 73.5t-66.5 188.5q0 116 68 190t171 74q110 0 164 -76h2q-2 8 -2 45v18h134q0 -16 -0.5 -44.5t-0.5 -51.5v-382q0 -121 -74 -184t-197 -63z
M311 123q57 0 93.5 43t36.5 109t-35.5 109t-94.5 43t-94.5 -43t-35.5 -109q0 -68 35 -110t95 -42zM324 595q-66 0 -108 31.5t-55 91.5q19 5 81 16q21 -50 82 -50q59 0 82 50q69 -13 82 -16q-14 -60 -56.5 -91.5t-107.5 -31.5z" />
    <glyph glyph-name="Gdotaccent" unicode="&#x120;" horiz-adv-x="789" 
d="M391 -14q-156 0 -253.5 106t-97.5 274t102 273t267 105q121 0 204.5 -54.5t116.5 -146.5l-142 -37q-23 50 -68.5 79.5t-111.5 29.5q-98 0 -155.5 -69.5t-57.5 -181.5q0 -115 60 -185t161 -70q83 0 130.5 44t55.5 124h-222v124h355v-401h-137v17q0 8 0.5 22.5t0.5 20.5h-2
q-20 -28 -78.5 -51t-127.5 -23zM350 806v117h122v-117h-122z" />
    <glyph glyph-name="gdotaccent" unicode="&#x121;" horiz-adv-x="642" 
d="M304 -199q-95 0 -161.5 37.5t-94.5 102.5l118 46q42 -76 140 -76q129 0 133 131v2l3 45h-2q-55 -76 -164 -76q-104 0 -170.5 73.5t-66.5 188.5q0 116 68 190t171 74q110 0 164 -76h2q-2 8 -2 45v18h134q0 -16 -0.5 -44.5t-0.5 -51.5v-382q0 -121 -74 -184t-197 -63z
M311 123q57 0 93.5 43t36.5 109t-35.5 109t-94.5 43t-94.5 -43t-35.5 -109q0 -68 35 -110t95 -42zM254 604v117h121v-117h-121z" />
    <glyph glyph-name="uni0122" unicode="&#x122;" horiz-adv-x="789" 
d="M391 -14q-156 0 -253.5 106t-97.5 274t102 273t267 105q121 0 204.5 -54.5t116.5 -146.5l-142 -37q-23 50 -68.5 79.5t-111.5 29.5q-98 0 -155.5 -69.5t-57.5 -181.5q0 -115 60 -185t161 -70q83 0 130.5 44t55.5 124h-222v124h355v-401h-137v17q0 8 0.5 22.5t0.5 20.5h-2
q-20 -28 -78.5 -51t-127.5 -23zM358 -233v51q30 1 43 8.5t13 27.5v2h-56v97h128v-79q0 -57 -26.5 -82t-101.5 -25z" />
    <glyph glyph-name="uni0123" unicode="&#x123;" horiz-adv-x="642" 
d="M304 -199q-95 0 -161.5 37.5t-94.5 102.5l118 46q42 -76 140 -76q129 0 133 131v2l3 45h-2q-55 -76 -164 -76q-104 0 -170.5 73.5t-66.5 188.5q0 116 68 190t171 74q110 0 164 -76h2q-2 8 -2 45v18h134q0 -16 -0.5 -44.5t-0.5 -51.5v-382q0 -121 -74 -184t-197 -63z
M311 123q57 0 93.5 43t36.5 109t-35.5 109t-94.5 43t-94.5 -43t-35.5 -109q0 -68 35 -110t95 -42zM269 599v79q0 57 26.5 82t101.5 25v-51q-30 -1 -43 -8.5t-13 -27.5v-2h56v-97h-128z" />
    <glyph glyph-name="Hcircumflex" unicode="&#x124;" horiz-adv-x="765" 
d="M80 -1v731h150v-286h305v286h150v-731h-150v312h-305v-312h-150zM200 800l101 132h161l102 -132h-121l-61 64h-1l-60 -64h-121z" />
    <glyph glyph-name="hcircumflex" unicode="&#x125;" horiz-adv-x="623" 
d="M69 0v730h141v-197q0 -27 -2 -65q54 72 161 72q92 0 141.5 -55t49.5 -162v-323h-140v257q0 88 -25 127t-75 39q-110 0 -110 -161v-262h-141zM140 800l101 132h161l102 -132h-121l-61 64h-1l-60 -64h-121z" />
    <glyph glyph-name="Hbar" unicode="&#x126;" horiz-adv-x="765" 
d="M80 0v730h149v-87h306v87h150v-730h-150v311h-306v-311h-149zM229 441h306v97h-306v-97z" />
    <glyph glyph-name="hbar" unicode="&#x127;" horiz-adv-x="623" 
d="M69 0v581h-37v99h37v50h140v-50h117v-99h-117v-48q0 -27 -2 -65q54 72 162 72q92 0 141.5 -55t49.5 -162v-323h-140v257q0 88 -25 127t-75 39q-110 0 -110 -161v-262h-141z" />
    <glyph glyph-name="Itilde" unicode="&#x128;" horiz-adv-x="312" 
d="M80 0v730h152v-730h-152zM226 802q-33 0 -60 13l-14 6q-45 19 -55 19q-27 0 -37 -37l-79 9q7 54 34.5 86.5t73.5 32.5q30 0 60 -13l14 -6q45 -19 55 -19q27 0 37 37l79 -9q-7 -54 -34.5 -86.5t-73.5 -32.5z" />
    <glyph glyph-name="itilde" unicode="&#x129;" horiz-adv-x="280" 
d="M210 600q-30 0 -60 13l-14 6q-45 19 -55 19q-27 0 -37 -37l-79 9q7 54 34.5 86.5t73.5 32.5q30 0 60 -13l14 -6q45 -19 55 -19q27 0 37 37l79 -9q-7 -54 -34.5 -86.5t-73.5 -32.5zM69 0v526h142v-526h-142z" />
    <glyph glyph-name="Imacron" unicode="&#x12a;" horiz-adv-x="312" 
d="M80 0v730h152v-730h-152zM20 825v94h274v-94h-274z" />
    <glyph glyph-name="imacron" unicode="&#x12b;" horiz-adv-x="280" 
d="M4 622v94h274v-94h-274zM69 0v526h142v-526h-142z" />
    <glyph glyph-name="Ibreve" unicode="&#x12c;" horiz-adv-x="312" 
d="M80 0v730h152v-730h-152zM157 797q-64 0 -107 31.5t-57 91.5q13 3 82 16q21 -50 82 -50q59 0 82 50q63 -11 82 -16q-14 -60 -56.5 -91.5t-107.5 -31.5z" />
    <glyph glyph-name="ibreve" unicode="&#x12d;" horiz-adv-x="280" 
d="M160 595q-66 0 -108 31.5t-55 91.5q19 5 81 16q21 -50 82 -50q59 0 82 50q69 -13 82 -16q-14 -60 -56.5 -91.5t-107.5 -31.5zM69 0v526h142v-526h-142z" />
    <glyph glyph-name="Iogonek" unicode="&#x12e;" horiz-adv-x="312" 
d="M80 0v730h152v-730q-91 -41 -91 -79q0 -31 40 -31q22 0 41 12l45 -70q-41 -24 -103 -24q-54 0 -88 23.5t-34 66.5q0 53 71 102h-33z" />
    <glyph glyph-name="iogonek" unicode="&#x12f;" horiz-adv-x="280" 
d="M69 0v526h142v-526q-91 -41 -91 -79q0 -31 40 -31q22 0 41 12l45 -70q-41 -24 -103 -24q-54 0 -88 23.5t-34 66.5q0 53 71 102h-23zM69 598v132h142v-132h-142z" />
    <glyph glyph-name="Idot" unicode="&#x130;" horiz-adv-x="312" 
d="M80 0v730h152v-730h-152zM93 806v117h122v-117h-122z" />
    <glyph glyph-name="dotlessi" unicode="&#x131;" horiz-adv-x="280" 
d="M69 0v526h142v-526h-142z" />
    <glyph glyph-name="IJ" unicode="&#x132;" horiz-adv-x="807" 
d="M80 0v730h152v-730h-152zM495 -14q-109 0 -165 49.5t-64 147.5l139 15q9 -89 89 -89q49 0 68 33t19 96v492h152v-481q0 -126 -54.5 -194.5t-183.5 -68.5z" />
    <glyph glyph-name="ij" unicode="&#x133;" horiz-adv-x="543" 
d="M69 0v526h142v-526h-142zM69 598v132h142v-132h-142zM302 -192q-30 0 -59 5l4 108q8 -1 21 -1q37 0 50.5 19t13.5 65v522h142v-539q0 -100 -41.5 -139.5t-130.5 -39.5zM331 598v132h144v-132h-144z" />
    <glyph glyph-name="Jcircumflex" unicode="&#x134;" horiz-adv-x="549" 
d="M237 -14q-109 0 -165 49.5t-64 147.5l139 15q9 -89 89 -89q49 0 68 33t19 96v492h152v-481q0 -126 -54.5 -194.5t-183.5 -68.5zM213 800l101 132h161l102 -132h-121l-61 64h-1l-60 -64h-121z" />
    <glyph glyph-name="jcircumflex" unicode="&#x135;" horiz-adv-x="284" 
d="M43 -192q-30 0 -59 5l4 108q8 -1 21 -1q37 0 50.5 19t13.5 65v522h142v-539q0 -100 -41.5 -139.5t-130.5 -39.5zM-37 598l102 132h161l101 -132h-120l-62 64l-61 -64h-121z" />
    <glyph glyph-name="uni0136" unicode="&#x136;" horiz-adv-x="690" 
d="M80 0v730h149v-171q0 -101 -1 -153q45 55 140 165l138 159h182l-292 -329l303 -401h-186l-220 299l-64 -74v-225h-149zM286 -233v51q30 1 43 8.5t13 27.5v2h-56v97h128v-79q0 -57 -26.5 -82t-101.5 -25z" />
    <glyph glyph-name="uni0137" unicode="&#x137;" horiz-adv-x="578" 
d="M69 0v730h139v-260q0 -34 -0.5 -92t-0.5 -78q22 27 60 69.5t53 61.5l81 95h171l-215 -232l230 -294h-177l-148 202l-54 -58v-144h-139zM214 -233v51q30 1 43 8.5t13 27.5v2h-56v97h128v-79q0 -57 -26.5 -82t-101.5 -25z" />
    <glyph glyph-name="kgreenlandic" unicode="&#x138;" horiz-adv-x="578" 
d="M69 0v526h139v-116q0 -69 -1 -110q22 27 60 69.5t53 61.5l81 95h171l-215 -232l230 -294h-177l-148 202l-54 -58v-144h-139z" />
    <glyph glyph-name="Lacute" unicode="&#x139;" horiz-adv-x="570" 
d="M80 0v730h151v-602h324v-128h-475zM218 800h-125q50 88 74 132h169z" />
    <glyph glyph-name="lacute" unicode="&#x13a;" horiz-adv-x="280" 
d="M69 0v730h142v-730h-142zM199 800h-125q50 88 74 132h169z" />
    <glyph glyph-name="uni013B" unicode="&#x13b;" horiz-adv-x="570" 
d="M80 0v730h151v-602h324v-128h-475zM247 -233v51q30 1 43 8.5t13 27.5v2h-56v97h128v-79q0 -57 -26.5 -82t-101.5 -25z" />
    <glyph glyph-name="uni013C" unicode="&#x13c;" horiz-adv-x="280" 
d="M69 0v730h142v-730h-142zM76 -233v51q30 1 43 8.5t13 27.5v2h-56v97h128v-79q0 -57 -26.5 -82t-101.5 -25z" />
    <glyph glyph-name="Lcaron" unicode="&#x13d;" horiz-adv-x="572" 
d="M80 0v730h151v-602h324v-128h-475zM307 557l33 173h150l-61 -173h-122z" />
    <glyph glyph-name="lcaron" unicode="&#x13e;" horiz-adv-x="303" 
d="M69 0v730h142v-730h-142zM257 557l33 173h150l-61 -173h-122z" />
    <glyph glyph-name="Ldot" unicode="&#x13f;" horiz-adv-x="573" 
d="M80 0v730h151v-602h324v-128h-475zM375 305v117h121v-117h-121z" />
    <glyph glyph-name="ldot" unicode="&#x140;" horiz-adv-x="375" 
d="M69 0v730h142v-730h-142zM267 305v117h121v-117h-121z" />
    <glyph glyph-name="Lslash" unicode="&#x141;" horiz-adv-x="596" 
d="M107 0v262l-71 -38v113l71 38v355h150v-278l141 77v-113l-141 -77v-211h324v-128h-474z" />
    <glyph glyph-name="lslash" unicode="&#x142;" horiz-adv-x="344" 
d="M97 0v292l-62 -34v110l62 35v327h141v-256l69 38v-110l-69 -39v-363h-141z" />
    <glyph glyph-name="Nacute" unicode="&#x143;" horiz-adv-x="794" 
d="M80 0v730h195l201 -365q38 -67 94 -186h3q-3 71 -3 216v335h144v-730h-189l-188 336q-61 109 -114 222h-2q0 -22 2 -94t2 -100v-364h-145zM428 800h-125q50 88 74 132h169z" />
    <glyph glyph-name="nacute" unicode="&#x144;" horiz-adv-x="622" 
d="M69 0v426q0 72 -1 100h134v-21q0 -29 -1 -42h2q51 77 165 77q91 0 141 -54.5t50 -162.5v-323h-140v254q0 90 -21.5 129.5t-76.5 39.5q-59 0 -85.5 -38.5t-26.5 -121.5v-263h-140zM242 598l75 132h168l-118 -132h-125z" />
    <glyph glyph-name="uni0145" unicode="&#x145;" horiz-adv-x="794" 
d="M80 0v730h195l201 -365q38 -67 94 -186h3q-3 71 -3 216v335h144v-730h-189l-188 336q-61 109 -114 222h-2q0 -22 2 -94t2 -100v-364h-145zM321 -233v51q30 1 43 8.5t13 27.5v2h-56v97h128v-79q0 -57 -26.5 -82t-101.5 -25z" />
    <glyph glyph-name="uni0146" unicode="&#x146;" horiz-adv-x="622" 
d="M69 0v426q0 72 -1 100h134v-21q0 -29 -1 -42h2q51 77 165 77q91 0 141 -54.5t50 -162.5v-323h-140v254q0 90 -21.5 129.5t-76.5 39.5q-59 0 -85.5 -38.5t-26.5 -121.5v-263h-140zM245 -233v51q30 1 43 8.5t13 27.5v2h-56v97h128v-79q0 -57 -26.5 -82t-101.5 -25z" />
    <glyph glyph-name="Ncaron" unicode="&#x147;" horiz-adv-x="794" 
d="M80 0v730h195l201 -365q38 -67 94 -186h3q-3 71 -3 216v335h144v-730h-189l-188 336q-61 109 -114 222h-2q0 -22 2 -94t2 -100v-364h-145zM310 800l-102 132h121q45 -49 62 -64l61 64h120l-101 -132h-161z" />
    <glyph glyph-name="ncaron" unicode="&#x148;" horiz-adv-x="622" 
d="M69 0v426q0 72 -1 100h134v-21q0 -29 -1 -42h2q51 77 165 77q91 0 141 -54.5t50 -162.5v-323h-140v254q0 90 -21.5 129.5t-76.5 39.5q-59 0 -85.5 -38.5t-26.5 -121.5v-263h-140zM252 598l-102 132h121q45 -49 62 -64l61 64h120l-101 -132h-161z" />
    <glyph glyph-name="napostrophe" unicode="&#x149;" horiz-adv-x="622" 
d="M69 0v426q0 72 -1 100h134v-21q0 -29 -1 -42h2q51 77 165 77q91 0 141 -54.5t50 -162.5v-323h-140v254q0 90 -21.5 129.5t-76.5 39.5q-59 0 -85.5 -38.5t-26.5 -121.5v-263h-140zM44 545v51q30 1 43 8.5t13 27.5v2h-56v97h128v-79q0 -57 -26.5 -82t-101.5 -25z" />
    <glyph glyph-name="Eng" unicode="&#x14a;" horiz-adv-x="794" 
d="M496 -192q-195 0 -209 170l139 15q7 -67 70 -67q34 0 49.5 18.5t21.5 55.5h-42l-188 336q-61 109 -114 222h-2q0 -22 2 -94t2 -100v-364h-145v730h195l201 -365q38 -67 94 -186h3q-3 71 -3 216v335h144v-686q0 -113 -49.5 -174.5t-168.5 -61.5z" />
    <glyph glyph-name="eng" unicode="&#x14b;" horiz-adv-x="622" 
d="M387 -192q-30 0 -59 5l4 108q8 -1 21 -1q37 0 51.5 17.5t14.5 57.5v259q0 90 -21.5 129.5t-76.5 39.5q-59 0 -85.5 -38.5t-26.5 -121.5v-263h-140v426q0 72 -1 100h134v-21q0 -29 -1 -42h2q51 77 165 77q91 0 141 -54.5t50 -162.5v-336q0 -100 -41.5 -139.5t-130.5 -39.5
z" />
    <glyph glyph-name="Omacron" unicode="&#x14c;" horiz-adv-x="817" 
d="M409 -14q-166 0 -267.5 104t-101.5 274q0 169 102.5 274.5t265.5 105.5q164 0 266.5 -105.5t102.5 -274.5q0 -170 -101 -274t-267 -104zM408 111q98 0 156 71t58 184q0 110 -58 180t-156 70t-155.5 -70t-57.5 -180q0 -113 57.5 -184t155.5 -71zM275 825v94h274v-94h-274z
" />
    <glyph glyph-name="omacron" unicode="&#x14d;" horiz-adv-x="626" 
d="M313 -13q-124 0 -200.5 76.5t-76.5 199.5t77 200.5t201 77.5q123 0 199.5 -77.5t76.5 -200.5t-77 -199.5t-200 -76.5zM313 100q64 0 99 43.5t35 118.5q0 74 -35 119.5t-99 45.5q-65 0 -100.5 -45t-35.5 -119q0 -76 35.5 -119.5t100.5 -43.5zM178 622v94h274v-94h-274z
" />
    <glyph glyph-name="Obreve" unicode="&#x14e;" horiz-adv-x="817" 
d="M409 -14q-166 0 -267.5 104t-101.5 274q0 169 102.5 274.5t265.5 105.5q164 0 266.5 -105.5t102.5 -274.5q0 -170 -101 -274t-267 -104zM408 111q98 0 156 71t58 184q0 110 -58 180t-156 70t-155.5 -70t-57.5 -180q0 -113 57.5 -184t155.5 -71zM413 797q-64 0 -107 31.5
t-57 91.5q13 3 82 16q21 -50 82 -50q59 0 82 50q63 -11 82 -16q-14 -60 -56.5 -91.5t-107.5 -31.5z" />
    <glyph glyph-name="obreve" unicode="&#x14f;" horiz-adv-x="626" 
d="M313 -13q-124 0 -200.5 76.5t-76.5 199.5t77 200.5t201 77.5q123 0 199.5 -77.5t76.5 -200.5t-77 -199.5t-200 -76.5zM313 100q64 0 99 43.5t35 118.5q0 74 -35 119.5t-99 45.5q-65 0 -100.5 -45t-35.5 -119q0 -76 35.5 -119.5t100.5 -43.5zM313 595q-66 0 -108 31.5
t-55 91.5q19 5 81 16q21 -50 82 -50q59 0 82 50q69 -13 82 -16q-14 -60 -56.5 -91.5t-107.5 -31.5z" />
    <glyph glyph-name="Ohungarumlaut" unicode="&#x150;" horiz-adv-x="817" 
d="M409 -14q-166 0 -267.5 104t-101.5 274q0 169 102.5 274.5t265.5 105.5q164 0 266.5 -105.5t102.5 -274.5q0 -170 -101 -274t-267 -104zM408 111q98 0 156 71t58 184q0 110 -58 180t-156 70t-155.5 -70t-57.5 -180q0 -113 57.5 -184t155.5 -71zM438 800l78 132h160
l-121 -132h-117zM228 800l73 132h161l-118 -132h-116z" />
    <glyph glyph-name="ohungarumlaut" unicode="&#x151;" horiz-adv-x="626" 
d="M313 -13q-124 0 -200.5 76.5t-76.5 199.5t77 200.5t201 77.5q123 0 199.5 -77.5t76.5 -200.5t-77 -199.5t-200 -76.5zM313 100q64 0 99 43.5t35 118.5q0 74 -35 119.5t-99 45.5q-65 0 -100.5 -45t-35.5 -119q0 -76 35.5 -119.5t100.5 -43.5zM338 598l78 132h161
l-122 -132h-117zM245 598h-117q24 44 74 132h160z" />
    <glyph glyph-name="OE" unicode="&#x152;" horiz-adv-x="1098" 
d="M396 -8q-158 0 -257 102.5t-99 271.5q0 165 99.5 269.5t253.5 104.5q91 0 162 -38v28h489v-126h-349v-167h321v-126h-321v-186h357v-125h-497v27q-65 -35 -159 -35zM409 119q89 0 140 51v392q-53 49 -140 49q-100 0 -157.5 -66.5t-57.5 -178.5q0 -113 57.5 -180
t157.5 -67z" />
    <glyph glyph-name="oe" unicode="&#x153;" horiz-adv-x="993" 
d="M309 -12q-123 0 -197.5 76t-74.5 199q0 124 75 200.5t198 76.5t199 -84q76 82 192 82q126 0 190.5 -79.5t64.5 -214.5v-17h-385q4 -60 40 -95.5t95 -35.5q50 0 80 20t54 54l114 -44q-34 -62 -97 -100t-154 -38q-126 0 -197 80q-74 -80 -197 -80zM309 100q63 0 96.5 43
t33.5 119q0 74 -34 119t-96 45t-96.5 -45t-34.5 -118q0 -77 33.5 -120t97.5 -43zM571 320h248q-4 50 -34.5 84t-85.5 34t-88 -32.5t-40 -85.5z" />
    <glyph glyph-name="Racute" unicode="&#x154;" horiz-adv-x="696" 
d="M80 0v730h308q128 0 192.5 -52.5t64.5 -150.5q0 -138 -121 -185q42 -19 64 -57t31 -107l7 -54q0 -4 2.5 -24t4 -28t4.5 -23t7.5 -24.5t10.5 -16.5v-8h-153q-14 26 -22 102l-4 36q-9 82 -38.5 116t-113.5 34h-98v-288h-146zM226 405h136q131 0 131 105q0 98 -131 98h-136
v-203zM368 800h-125q50 88 74 132h169z" />
    <glyph glyph-name="racute" unicode="&#x155;" horiz-adv-x="398" 
d="M69 0v429q0 66 -1 97h133v-24q0 -34 -1 -50h3q41 86 149 86q14 0 30 -2l-2 -131q-16 5 -37 5q-75 0 -105 -43t-30 -145v-222h-139zM101 598l75 132h168l-118 -132h-125z" />
    <glyph glyph-name="uni0156" unicode="&#x156;" horiz-adv-x="696" 
d="M80 0v730h308q128 0 192.5 -52.5t64.5 -150.5q0 -138 -121 -185q42 -19 64 -57t31 -107l7 -54q0 -4 2.5 -24t4 -28t4.5 -23t7.5 -24.5t10.5 -16.5v-8h-153q-14 26 -22 102l-4 36q-9 82 -38.5 116t-113.5 34h-98v-288h-146zM226 405h136q131 0 131 105q0 98 -131 98h-136
v-203zM295 -233v51q30 1 43 8.5t13 27.5v2h-56v97h128v-79q0 -57 -26.5 -82t-101.5 -25z" />
    <glyph glyph-name="uni0157" unicode="&#x157;" horiz-adv-x="398" 
d="M69 0v429q0 66 -1 97h133v-24q0 -34 -1 -50h3q41 86 149 86q14 0 30 -2l-2 -131q-16 5 -37 5q-75 0 -105 -43t-30 -145v-222h-139zM74 -233v51q30 1 43 8.5t13 27.5v2h-56v97h128v-79q0 -57 -26.5 -82t-101.5 -25z" />
    <glyph glyph-name="Rcaron" unicode="&#x158;" horiz-adv-x="696" 
d="M80 0v730h308q128 0 192.5 -52.5t64.5 -150.5q0 -138 -121 -185q42 -19 64 -57t31 -107l7 -54q0 -4 2.5 -24t4 -28t4.5 -23t7.5 -24.5t10.5 -16.5v-8h-153q-14 26 -22 102l-4 36q-9 82 -38.5 116t-113.5 34h-98v-288h-146zM226 405h136q131 0 131 105q0 98 -131 98h-136
v-203zM258 800l-102 132h121q45 -49 62 -64l61 64h120l-101 -132h-161z" />
    <glyph glyph-name="rcaron" unicode="&#x159;" horiz-adv-x="398" 
d="M69 0v429q0 66 -1 97h133v-24q0 -34 -1 -50h3q41 86 149 86q14 0 30 -2l-2 -131q-16 5 -37 5q-75 0 -105 -43t-30 -145v-222h-139zM140 598l-102 132h121q45 -49 62 -64l61 64h120l-101 -132h-161z" />
    <glyph glyph-name="Sacute" unicode="&#x15a;" horiz-adv-x="640" 
d="M317 -14q-117 0 -193.5 54t-97.5 151l149 34q27 -117 147 -117q58 0 92.5 24t34.5 66q0 36 -22.5 55t-78.5 35l-75 24q-117 35 -169.5 81t-52.5 135q0 99 74 157.5t200 58.5q106 0 176 -49t89 -139l-140 -30q-23 97 -130 97q-53 0 -82.5 -24.5t-29.5 -59.5q0 -38 27 -59
t95 -40l62 -18q107 -32 160 -77t53 -134q0 -104 -78.5 -164.5t-209.5 -60.5zM360 800h-125q50 88 74 132h169z" />
    <glyph glyph-name="sacute" unicode="&#x15b;" horiz-adv-x="530" 
d="M263 -13q-95 0 -157 38.5t-79 113.5l125 28q30 -80 117 -80q37 0 62 14t25 43q0 25 -19.5 37t-69.5 24l-62 16q-83 23 -122 55.5t-39 99.5q0 76 61 120t158 44q90 0 147.5 -37t73.5 -107l-123 -26q-20 68 -100 68q-34 0 -55.5 -14t-21.5 -38q0 -25 19.5 -37t69.5 -24
l53 -13q88 -22 130 -56.5t42 -100.5q0 -81 -64.5 -124.5t-170.5 -43.5zM185 598l75 132h168l-118 -132h-125z" />
    <glyph glyph-name="Scircumflex" unicode="&#x15c;" horiz-adv-x="640" 
d="M317 -14q-117 0 -193.5 54t-97.5 151l149 34q27 -117 147 -117q58 0 92.5 24t34.5 66q0 36 -22.5 55t-78.5 35l-75 24q-117 35 -169.5 81t-52.5 135q0 99 74 157.5t200 58.5q106 0 176 -49t89 -139l-140 -30q-23 97 -130 97q-53 0 -82.5 -24.5t-29.5 -59.5q0 -38 27 -59
t95 -40l62 -18q107 -32 160 -77t53 -134q0 -104 -78.5 -164.5t-209.5 -60.5zM147 800l101 132h161l102 -132h-121l-61 64h-1l-60 -64h-121z" />
    <glyph glyph-name="scircumflex" unicode="&#x15d;" horiz-adv-x="530" 
d="M263 -13q-95 0 -157 38.5t-79 113.5l125 28q30 -80 117 -80q37 0 62 14t25 43q0 25 -19.5 37t-69.5 24l-62 16q-83 23 -122 55.5t-39 99.5q0 76 61 120t158 44q90 0 147.5 -37t73.5 -107l-123 -26q-20 68 -100 68q-34 0 -55.5 -14t-21.5 -38q0 -25 19.5 -37t69.5 -24
l53 -13q88 -22 130 -56.5t42 -100.5q0 -81 -64.5 -124.5t-170.5 -43.5zM82 598l102 132h161l101 -132h-120l-62 64l-61 -64h-121z" />
    <glyph glyph-name="Scedilla" unicode="&#x15e;" horiz-adv-x="640" 
d="M317 -14q-117 0 -193.5 54t-97.5 151l149 34q27 -117 147 -117q58 0 92.5 24t34.5 66q0 36 -22.5 55t-78.5 35l-75 24q-117 35 -169.5 81t-52.5 135q0 99 74 157.5t200 58.5q106 0 176 -49t89 -139l-140 -30q-23 97 -130 97q-53 0 -82.5 -24.5t-29.5 -59.5q0 -38 27 -59
t95 -40l62 -18q107 -32 160 -77t53 -134q0 -104 -78.5 -164.5t-209.5 -60.5zM167 -179l108 132h127l-77 -132h-158z" />
    <glyph glyph-name="scedilla" unicode="&#x15f;" horiz-adv-x="530" 
d="M263 -13q-95 0 -157 38.5t-79 113.5l125 28q30 -80 117 -80q37 0 62 14t25 43q0 25 -19.5 37t-69.5 24l-62 16q-83 23 -122 55.5t-39 99.5q0 76 61 120t158 44q90 0 147.5 -37t73.5 -107l-123 -26q-20 68 -100 68q-34 0 -55.5 -14t-21.5 -38q0 -25 19.5 -37t69.5 -24
l53 -13q88 -22 130 -56.5t42 -100.5q0 -81 -64.5 -124.5t-170.5 -43.5zM99 -179l108 132h127l-77 -132h-158z" />
    <glyph glyph-name="Scaron" unicode="&#x160;" horiz-adv-x="640" 
d="M317 -14q-117 0 -193.5 54t-97.5 151l149 34q27 -117 147 -117q58 0 92.5 24t34.5 66q0 36 -22.5 55t-78.5 35l-75 24q-117 35 -169.5 81t-52.5 135q0 99 74 157.5t200 58.5q106 0 176 -49t89 -139l-140 -30q-23 97 -130 97q-53 0 -82.5 -24.5t-29.5 -59.5q0 -38 27 -59
t95 -40l62 -18q107 -32 160 -77t53 -134q0 -104 -78.5 -164.5t-209.5 -60.5zM248 800l-102 132h121q45 -49 62 -64l61 64h120l-101 -132h-161z" />
    <glyph glyph-name="scaron" unicode="&#x161;" horiz-adv-x="530" 
d="M263 -13q-95 0 -157 38.5t-79 113.5l125 28q30 -80 117 -80q37 0 62 14t25 43q0 25 -19.5 37t-69.5 24l-62 16q-83 23 -122 55.5t-39 99.5q0 76 61 120t158 44q90 0 147.5 -37t73.5 -107l-123 -26q-20 68 -100 68q-34 0 -55.5 -14t-21.5 -38q0 -25 19.5 -37t69.5 -24
l53 -13q88 -22 130 -56.5t42 -100.5q0 -81 -64.5 -124.5t-170.5 -43.5zM186 598l-102 132h121q45 -49 62 -64l61 64h120l-101 -132h-161z" />
    <glyph glyph-name="uni0162" unicode="&#x162;" horiz-adv-x="597" 
d="M223 0v602h-208v128h567v-128h-207v-602h-152zM127 -179l108 132h127l-77 -132h-158z" />
    <glyph glyph-name="uni0163" unicode="&#x163;" horiz-adv-x="362" 
d="M328 0h-167q-32 18 -44 54.5t-12 111.5v252h-86v108h86v144h140v-144h105v-108h-105v-210q0 -64 10.5 -102t26.5 -54t46 -28v-24zM54 -179l108 132h127l-77 -132h-158z" />
    <glyph glyph-name="Tcaron" unicode="&#x164;" horiz-adv-x="597" 
d="M223 0v602h-208v128h567v-128h-207v-602h-152zM219 800l-102 132h121q45 -49 62 -64l61 64h120l-101 -132h-161z" />
    <glyph glyph-name="tcaron" unicode="&#x165;" horiz-adv-x="362" 
d="M328 0h-167q-32 18 -44 54.5t-12 111.5v252h-86v108h86v144h140v-144h105v-108h-105v-210q0 -64 10.5 -102t26.5 -54t46 -28v-24zM300 557l33 173h150l-61 -173h-122z" />
    <glyph glyph-name="Tbar" unicode="&#x166;" horiz-adv-x="621" 
d="M235 0v322h-157v100h157v180h-208v128h567v-128h-207v-180h155v-100h-155v-322h-152z" />
    <glyph glyph-name="tbar" unicode="&#x167;" horiz-adv-x="375" 
d="M333 0h-167q-33 20 -44.5 60t-11.5 127v57h-76v99h76v75h-86v108h86v144h140v-144h105v-108h-106v-75h95v-99h-95v-1v-35q0 -64 10.5 -102t27 -54t46.5 -28v-24z" />
    <glyph glyph-name="Utilde" unicode="&#x168;" horiz-adv-x="732" 
d="M366 -14q-148 0 -220.5 70.5t-72.5 231.5v442h151v-442q0 -88 34 -131.5t108 -43.5t108 43.5t34 131.5v442h151v-442q0 -162 -73.5 -232t-219.5 -70zM434 802q-33 0 -60 13l-14 6q-45 19 -55 19q-27 0 -37 -37l-79 9q7 54 34.5 86.5t73.5 32.5q30 0 60 -13l14 -6
q45 -19 55 -19q27 0 37 37l79 -9q-7 -54 -34.5 -86.5t-73.5 -32.5z" />
    <glyph glyph-name="utilde" unicode="&#x169;" horiz-adv-x="618" 
d="M253 -12q-91 0 -140.5 51t-49.5 156v331h140v-296q0 -67 24.5 -97.5t73.5 -30.5q108 0 108 141v283h140v-445q0 -50 1 -81h-134v21q0 26 1 41h-2q-50 -74 -162 -74zM380 600q-30 0 -60 13l-14 6q-45 19 -55 19q-27 0 -37 -37l-79 9q7 54 34.5 86.5t73.5 32.5q30 0 60 -13
l14 -6q45 -19 55 -19q27 0 37 37l79 -9q-7 -54 -34.5 -86.5t-73.5 -32.5z" />
    <glyph glyph-name="Umacron" unicode="&#x16a;" horiz-adv-x="732" 
d="M366 -14q-148 0 -220.5 70.5t-72.5 231.5v442h151v-442q0 -88 34 -131.5t108 -43.5t108 43.5t34 131.5v442h151v-442q0 -162 -73.5 -232t-219.5 -70zM230 825v94h274v-94h-274z" />
    <glyph glyph-name="umacron" unicode="&#x16b;" horiz-adv-x="618" 
d="M253 -12q-91 0 -140.5 51t-49.5 156v331h140v-296q0 -67 24.5 -97.5t73.5 -30.5q108 0 108 141v283h140v-445q0 -50 1 -81h-134v21q0 26 1 41h-2q-50 -74 -162 -74zM168 622v94h274v-94h-274z" />
    <glyph glyph-name="Ubreve" unicode="&#x16c;" horiz-adv-x="732" 
d="M366 -14q-148 0 -220.5 70.5t-72.5 231.5v442h151v-442q0 -88 34 -131.5t108 -43.5t108 43.5t34 131.5v442h151v-442q0 -162 -73.5 -232t-219.5 -70zM366 797q-64 0 -107 31.5t-57 91.5q13 3 82 16q21 -50 82 -50q59 0 82 50q63 -11 82 -16q-14 -60 -56.5 -91.5
t-107.5 -31.5z" />
    <glyph glyph-name="ubreve" unicode="&#x16d;" horiz-adv-x="618" 
d="M253 -12q-91 0 -140.5 51t-49.5 156v331h140v-296q0 -67 24.5 -97.5t73.5 -30.5q108 0 108 141v283h140v-445q0 -50 1 -81h-134v21q0 26 1 41h-2q-50 -74 -162 -74zM330 595q-66 0 -108 31.5t-55 91.5q19 5 81 16q21 -50 82 -50q59 0 82 50q69 -13 82 -16
q-14 -60 -56.5 -91.5t-107.5 -31.5z" />
    <glyph glyph-name="Uring" unicode="&#x16e;" horiz-adv-x="732" 
d="M366 -14q-148 0 -220.5 70.5t-72.5 231.5v442h151v-442q0 -88 34 -131.5t108 -43.5t108 43.5t34 131.5v442h151v-442q0 -162 -73.5 -232t-219.5 -70zM363 775q-45 0 -75.5 31.5t-30.5 76.5q0 44 31 75t75 31q45 0 76.5 -31t31.5 -75q0 -45 -31.5 -76.5t-76.5 -31.5z
M363 840q17 0 30 12.5t13 30.5q0 17 -13 29t-30 12h-4q-16 -2 -27 -13.5t-11 -27.5q0 -18 12.5 -30.5t29.5 -12.5z" />
    <glyph glyph-name="uring" unicode="&#x16f;" horiz-adv-x="618" 
d="M253 -12q-91 0 -140.5 51t-49.5 156v331h140v-296q0 -67 24.5 -97.5t73.5 -30.5q108 0 108 141v283h140v-445q0 -50 1 -81h-134v21q0 26 1 41h-2q-50 -74 -162 -74zM310 573q-45 0 -75.5 31.5t-30.5 76.5q0 44 31 75t75 31q45 0 76.5 -31t31.5 -75q0 -45 -31.5 -76.5
t-76.5 -31.5zM310 638q17 0 30 12.5t13 30.5q0 17 -13 29t-30 12t-29.5 -12t-12.5 -29q0 -18 12.5 -30.5t29.5 -12.5z" />
    <glyph glyph-name="Uhungarumlaut" unicode="&#x170;" horiz-adv-x="732" 
d="M366 -14q-148 0 -220.5 70.5t-72.5 231.5v442h151v-442q0 -88 34 -131.5t108 -43.5t108 43.5t34 131.5v442h151v-442q0 -162 -73.5 -232t-219.5 -70zM380 800l78 132h160l-121 -132h-117zM170 800l73 132h161l-118 -132h-116z" />
    <glyph glyph-name="uhungarumlaut" unicode="&#x171;" horiz-adv-x="618" 
d="M253 -12q-91 0 -140.5 51t-49.5 156v331h140v-296q0 -67 24.5 -97.5t73.5 -30.5q108 0 108 141v283h140v-445q0 -50 1 -81h-134v21q0 26 1 41h-2q-50 -74 -162 -74zM327 598l78 132h161l-122 -132h-117zM234 598h-117q24 44 74 132h160z" />
    <glyph glyph-name="Uogonek" unicode="&#x172;" horiz-adv-x="732" 
d="M379 -192q-54 0 -88 23.5t-34 66.5q0 49 54 91q-120 10 -179 81.5t-59 217.5v442h151v-442q0 -88 34 -131.5t108 -43.5t108 43.5t34 131.5v442h151v-442q0 -145 -59 -216t-176 -83q-68 -34 -68 -68q0 -31 40 -31q22 0 41 12l45 -70q-41 -24 -103 -24z" />
    <glyph glyph-name="uogonek" unicode="&#x173;" horiz-adv-x="618" 
d="M482 -192q-54 0 -88 23.5t-34 66.5q0 53 71 102h-15v21q0 26 1 41h-2q-50 -74 -162 -74q-91 0 -140.5 51t-49.5 156v331h140v-296q0 -67 24.5 -97.5t73.5 -30.5q108 0 108 141v283h140v-445q0 -50 1 -81q-91 -41 -91 -79q0 -31 40 -31q22 0 41 12l45 -70
q-41 -24 -103 -24z" />
    <glyph glyph-name="Wcircumflex" unicode="&#x174;" horiz-adv-x="985" 
d="M185 0l-174 730h157l57 -267q28 -128 57 -300h4q24 119 63 290l63 277h170l60 -266q33 -144 62 -300h4q23 137 59 299l58 267h150l-176 -730h-179l-64 277q-25 109 -61 295h-4q-23 -135 -61 -296l-65 -276h-180zM310 800l101 132h161l102 -132h-121l-61 64h-1l-60 -64
h-121z" />
    <glyph glyph-name="wcircumflex" unicode="&#x175;" horiz-adv-x="841" 
d="M164 0l-155 526h144l51 -203q23 -90 42 -184h4q27 119 43 180l53 207h153l52 -205q26 -107 42 -183h4q18 80 44 187l51 201h141l-157 -526h-161l-53 208q-12 48 -39 183h-5q-23 -116 -41 -184l-53 -207h-160zM239 598l102 132h161l101 -132h-120l-62 64l-61 -64h-121z
" />
    <glyph glyph-name="Ycircumflex" unicode="&#x176;" horiz-adv-x="645" 
d="M246 0v282l-247 448h166l70 -139q7 -15 39.5 -77t49.5 -97h2l89 175l72 138h162l-252 -448v-282h-151zM142 800l101 132h161l102 -132h-121l-61 64h-1l-60 -64h-121z" />
    <glyph glyph-name="ycircumflex" unicode="&#x177;" horiz-adv-x="552" 
d="M105 -190q-12 0 -42 2l-13 106q15 -1 39 -1q50 0 75.5 15t42.5 66l-202 528h152l58 -180q48 -152 63 -205h4q43 149 60 204l57 181h148l-212 -563q-34 -89 -86.5 -121t-143.5 -32zM97 598l102 132h161l101 -132h-120l-62 64l-61 -64h-121z" />
    <glyph glyph-name="Ydieresis" unicode="&#x178;" horiz-adv-x="645" 
d="M246 0v282l-247 448h166l70 -139q7 -15 39.5 -77t49.5 -97h2l89 175l72 138h162l-252 -448v-282h-151zM363 806v117h118v-117h-118zM169 806v117h117v-117h-117z" />
    <glyph glyph-name="Zacute" unicode="&#x179;" horiz-adv-x="628" 
d="M34 0v115l363 488v1q-112 -2 -139 -2h-209v128h534v-118l-362 -486v-1q39 1 109 1h266v-126h-562zM353 800h-125q50 88 74 132h169z" />
    <glyph glyph-name="zacute" unicode="&#x17a;" horiz-adv-x="518" 
d="M34 0v105l155 178q20 23 60 68.5t54 61.5v2q-48 -2 -68 -2h-190v113h429v-108l-135 -157q-24 -29 -69 -79.5t-62 -70.5v-2q27 0 64 0.5t60 0.5h155v-110h-453zM172 598l75 132h168l-118 -132h-125z" />
    <glyph glyph-name="Zdotaccent" unicode="&#x17b;" horiz-adv-x="628" 
d="M34 0v115l363 488v1q-112 -2 -139 -2h-209v128h534v-118l-362 -486v-1q39 1 109 1h266v-126h-562zM251 806v117h122v-117h-122z" />
    <glyph glyph-name="zdotaccent" unicode="&#x17c;" horiz-adv-x="518" 
d="M34 0v105l155 178q20 23 60 68.5t54 61.5v2q-48 -2 -68 -2h-190v113h429v-108l-135 -157q-24 -29 -69 -79.5t-62 -70.5v-2q27 0 64 0.5t60 0.5h155v-110h-453zM199 604v117h121v-117h-121z" />
    <glyph glyph-name="Zcaron" unicode="&#x17d;" horiz-adv-x="628" 
d="M34 0v115l363 488v1q-112 -2 -139 -2h-209v128h534v-118l-362 -486v-1q39 1 109 1h266v-126h-562zM234 800l-102 132h121q45 -49 62 -64l61 64h120l-101 -132h-161z" />
    <glyph glyph-name="zcaron" unicode="&#x17e;" horiz-adv-x="518" 
d="M34 0v105l155 178q20 23 60 68.5t54 61.5v2q-48 -2 -68 -2h-190v113h429v-108l-135 -157q-24 -29 -69 -79.5t-62 -70.5v-2q27 0 64 0.5t60 0.5h155v-110h-453zM181 598l-102 132h121q45 -49 62 -64l61 64h120l-101 -132h-161z" />
    <glyph glyph-name="uni018F" unicode="&#x18f;" horiz-adv-x="785" 
d="M385 -14q-168 0 -256.5 107t-88.5 296q0 7 1 19h547q-8 94 -65.5 150t-146.5 56q-131 0 -189 -121l-140 47q38 86 124 145t211 59q165 0 263.5 -102t98.5 -275q0 -171 -98.5 -276t-260.5 -105zM389 106q82 0 133 50.5t63 138.5h-381q8 -89 56 -139t129 -50z" />
    <glyph glyph-name="florin" unicode="&#x192;" 
d="M100 -167q-47 0 -87 14l17 110q22 -6 40 -6q38 0 59 22.5t29 73.5l52 335h-92l17 113h92q2 7 3.5 19.5t2.5 19.5l3 18q18 101 63.5 146.5t135.5 45.5q55 0 88 -10l-19 -113q-20 5 -38 5q-45 0 -63.5 -30.5t-29.5 -100.5h112l-16 -113h-113l-57 -353l-4 -19
q-21 -95 -64.5 -136t-130.5 -41z" />
    <glyph glyph-name="Aringacute" unicode="&#x1fa;" horiz-adv-x="724" 
d="M-4 0l283 730h165l284 -730h-157l-69 181h-286l-68 -181h-152zM257 304h203l-43 123q-35 91 -56 167h-4q-3 -10 -24.5 -76t-30.5 -91zM361 775q-45 0 -75.5 31.5t-30.5 76.5q0 44 31 75t75 31q45 0 76.5 -31t31.5 -75q0 -45 -31.5 -76.5t-76.5 -31.5zM361 840
q17 0 30 12.5t13 30.5q0 17 -13 29t-30 12h-4q-16 -2 -27 -13.5t-11 -27.5q0 -18 12.5 -30.5t29.5 -12.5zM423 1029h-125q50 88 74 132h169z" />
    <glyph glyph-name="aringacute" unicode="&#x1fb;" horiz-adv-x="575" 
d="M228 -10q-89 0 -140.5 42t-51.5 116q0 71 46.5 107t157.5 57l86 16q42 8 48 15q5 7 5 20q0 33 -24.5 52.5t-69.5 19.5q-93 0 -100 -85l-132 8q6 82 68 130.5t166 48.5q113 0 169.5 -49.5t56.5 -154.5v-308q0 -7 0.5 -15.5t0.5 -9.5h-119q-1 8 -1 27v20h-1
q-59 -57 -165 -57zM263 83q57 0 88 31t31 90v19q0 16 2 21q-14 -4 -38 -8.5t-35 -6.5q-90 -18 -111 -31q-24 -16 -24 -48q0 -67 87 -67zM288 573q-45 0 -75.5 31.5t-30.5 76.5q0 44 31 75t75 31q45 0 76.5 -31t31.5 -75q0 -45 -31.5 -76.5t-76.5 -31.5zM288 638
q17 0 30 12.5t13 30.5q0 17 -13 29t-30 12t-29.5 -12t-12.5 -29q0 -18 12.5 -30.5t29.5 -12.5zM225 827l75 132h168l-118 -132h-125z" />
    <glyph glyph-name="AEacute" unicode="&#x1fc;" horiz-adv-x="1000" 
d="M-24 0l401 730h569v-126h-341l10 -167h303v-126h-298l10 -186h324v-125h-467l-8 178h-252l-94 -178h-157zM290 300h183q-1 19 -3 54t-2 52l-8 199h-10q-1 -3 -39.5 -78.5t-59.5 -113.5zM674 800h-125q50 88 74 132h169z" />
    <glyph glyph-name="aeacute" unicode="&#x1fd;" horiz-adv-x="930" 
d="M641 -13q-127 0 -200 82h-6q-37 -37 -83 -57.5t-125 -20.5q-89 0 -140 40.5t-51 114.5q0 37 13.5 64t33 43.5t57 29.5t70 20.5t88.5 17.5q18 3 28 5q41 8 46 15q6 7 6 20q0 33 -24.5 52t-68.5 19q-46 0 -71.5 -23t-28.5 -61l-131 8q6 80 68.5 128.5t163.5 48.5
q124 0 177 -62q72 64 176 64q125 0 189.5 -80t64.5 -215v-15h-385q4 -60 40.5 -95t94.5 -35q90 0 134 73l114 -44q-79 -137 -250 -137zM260 82q57 0 89 31.5t32 88.5v20q0 16 2 21q-10 -3 -73 -17q-42 -7 -61.5 -11.5t-40 -13t-28 -21t-7.5 -31.5q0 -32 23 -49.5t64 -17.5z
M509 318h248q-4 49 -35 83t-85 34q-55 0 -88 -32t-40 -85zM401 598l75 132h168l-118 -132h-125z" />
    <glyph glyph-name="Oslashacute" unicode="&#x1fe;" horiz-adv-x="815" 
d="M189 -62l-99 61l57 85q-105 105 -105 282q0 169 101 274.5t264 105.5q89 0 155 -31l51 78l100 -62q-31 -49 -52 -79q113 -107 113 -286q0 -172 -100 -276t-267 -104q-89 0 -164 33zM233 216l254 385q-37 17 -80 17q-99 0 -153 -71t-54 -187q0 -86 33 -144zM405 113
q98 0 154.5 69t56.5 184q0 96 -40 158l-258 -392q39 -19 87 -19zM454 800h-125q50 88 74 132h169z" />
    <glyph glyph-name="oslashacute" unicode="&#x1ff;" horiz-adv-x="626" 
d="M221 598l75 132h168l-118 -132h-125zM149 -62l-85 52l48 73q-76 78 -76 200q0 123 77 200.5t201 77.5q56 0 104 -18l46 70l88 -54l-46 -69q84 -81 84 -207q0 -123 -77 -199.5t-200 -76.5q-60 0 -117 21zM190 181l160 241q-20 5 -37 5q-65 0 -101 -45t-36 -119
q0 -45 14 -82zM313 100q64 0 99.5 43.5t35.5 118.5q0 51 -20 93l-165 -247q26 -8 50 -8z" />
    <glyph glyph-name="uni0218" unicode="&#x218;" horiz-adv-x="640" 
d="M317 -14q-117 0 -193.5 54t-97.5 151l149 34q27 -117 147 -117q58 0 92.5 24t34.5 66q0 36 -22.5 55t-78.5 35l-75 24q-117 35 -169.5 81t-52.5 135q0 99 74 157.5t200 58.5q106 0 176 -49t89 -139l-140 -30q-23 97 -130 97q-53 0 -82.5 -24.5t-29.5 -59.5q0 -38 27 -59
t95 -40l62 -18q107 -32 160 -77t53 -134q0 -104 -78.5 -164.5t-209.5 -60.5zM239 -233v51q30 1 43 8.5t13 27.5v2h-56v97h128v-79q0 -57 -26.5 -82t-101.5 -25z" />
    <glyph glyph-name="uni0219" unicode="&#x219;" horiz-adv-x="530" 
d="M263 -13q-95 0 -157 38.5t-79 113.5l125 28q30 -80 117 -80q37 0 62 14t25 43q0 25 -19.5 37t-69.5 24l-62 16q-83 23 -122 55.5t-39 99.5q0 76 61 120t158 44q90 0 147.5 -37t73.5 -107l-123 -26q-20 68 -100 68q-34 0 -55.5 -14t-21.5 -38q0 -25 19.5 -37t69.5 -24
l53 -13q88 -22 130 -56.5t42 -100.5q0 -81 -64.5 -124.5t-170.5 -43.5zM191 -233v51q30 1 43 8.5t13 27.5v2h-56v97h128v-79q0 -57 -26.5 -82t-101.5 -25z" />
    <glyph glyph-name="uni021A" unicode="&#x21a;" horiz-adv-x="597" 
d="M223 0v602h-208v128h567v-128h-207v-602h-152zM235 -233v51q30 1 43 8.5t13 27.5v2h-56v97h128v-79q0 -57 -26.5 -82t-101.5 -25z" />
    <glyph glyph-name="uni021B" unicode="&#x21b;" horiz-adv-x="362" 
d="M328 0h-167q-32 18 -44 54.5t-12 111.5v252h-86v108h86v144h140v-144h105v-108h-105v-210q0 -64 10.5 -102t26.5 -54t46 -28v-24zM119 -233v51q30 1 43 8.5t13 27.5v2h-56v97h128v-79q0 -57 -26.5 -82t-101.5 -25z" />
    <glyph glyph-name="uni0237" unicode="&#x237;" horiz-adv-x="284" 
d="M43 -192q-30 0 -59 5l4 108q8 -1 21 -1q37 0 50.5 19t13.5 65v522h142v-539q0 -100 -41.5 -139.5t-130.5 -39.5z" />
    <glyph glyph-name="uni0259" unicode="&#x259;" horiz-adv-x="606" 
d="M294 543q126 0 201 -74.5t75 -200.5q0 -121 -75.5 -199.5t-197.5 -78.5q-131 0 -196 84t-65 229h397q-5 61 -43.5 96.5t-97.5 35.5q-95 0 -139 -75l-114 45q33 61 98 99.5t157 38.5zM432 209h-258q4 -50 36.5 -84t87.5 -34t90 32.5t44 85.5z" />
    <glyph glyph-name="circumflex" unicode="&#x2c6;" horiz-adv-x="329" 
d="M3 598l102 132h161l101 -132h-120l-62 64l-61 -64h-121z" />
    <glyph glyph-name="caron" unicode="&#x2c7;" horiz-adv-x="329" 
d="M105 598l-102 132h121q45 -49 62 -64l61 64h120l-101 -132h-161z" />
    <glyph glyph-name="breve" unicode="&#x2d8;" horiz-adv-x="327" 
d="M173 595q-66 0 -108 31.5t-55 91.5q19 5 81 16q21 -50 82 -50q59 0 82 50q69 -13 82 -16q-14 -60 -56.5 -91.5t-107.5 -31.5z" />
    <glyph glyph-name="dotaccent" unicode="&#x2d9;" horiz-adv-x="221" 
d="M54 604v117h121v-117h-121z" />
    <glyph glyph-name="ring" unicode="&#x2da;" horiz-adv-x="269" 
d="M140 573q-45 0 -75.5 31.5t-30.5 76.5q0 44 31 75t75 31q45 0 76.5 -31t31.5 -75q0 -45 -31.5 -76.5t-76.5 -31.5zM140 638q17 0 30 12.5t13 30.5q0 17 -13 29t-30 12t-29.5 -12t-12.5 -29q0 -18 12.5 -30.5t29.5 -12.5z" />
    <glyph glyph-name="ogonek" unicode="&#x2db;" horiz-adv-x="281" 
d="M153 -192q-54 0 -88 23.5t-34 66.5q0 53 71 102h119q-91 -41 -91 -79q0 -31 40 -31q22 0 41 12l45 -70q-41 -24 -103 -24z" />
    <glyph glyph-name="tilde" unicode="&#x2dc;" horiz-adv-x="363" 
d="M245 600q-30 0 -60 13l-14 6q-45 19 -55 19q-27 0 -37 -37l-79 9q7 54 34.5 86.5t73.5 32.5q30 0 60 -13l14 -6q45 -19 55 -19q27 0 37 37l79 -9q-7 -54 -34.5 -86.5t-73.5 -32.5z" />
    <glyph glyph-name="hungarumlaut" unicode="&#x2dd;" horiz-adv-x="389" 
d="M238 598l78 132h161l-122 -132h-117zM145 598h-117q24 44 74 132h160z" />
    <glyph glyph-name="uni0312" unicode="&#x312;" horiz-adv-x="0" 
d="M-378 598v79q0 57 26.5 82t101.5 25v-51q-30 -1 -43 -8.5t-13 -27.5v-2h56v-97h-128z" />
    <glyph glyph-name="uni0313" unicode="&#x313;" horiz-adv-x="0" 
d="M-383 557l33 173h150l-61 -173h-122z" />
    <glyph glyph-name="uni0326" unicode="&#x326;" horiz-adv-x="0" 
d="M-378 -233v51q30 1 43 8.5t13 27.5v2h-56v97h128v-79q0 -57 -26.5 -82t-101.5 -25z" />
    <glyph glyph-name="uni0394" unicode="&#x394;" horiz-adv-x="724" 
d="M-3 0l283 730h165l284 -730h-732zM303 427l-110 -301h330l-105 301q-36 94 -56 167h-4q-47 -144 -55 -167z" />
    <glyph glyph-name="uni03A9" unicode="&#x3a9;" horiz-adv-x="840" 
d="M56 0v123h57q15 0 63 -2v3q-120 90 -120 277q0 143 99 243t265 100t265.5 -100t99.5 -243q0 -175 -121 -277v-3q48 2 63 2h58v-123h-325v117q82 33 126.5 103t44.5 169q0 98 -56 161t-155 63t-154.5 -63t-55.5 -161q0 -99 44.5 -169.5t125.5 -102.5v-117h-324z" />
    <glyph glyph-name="uni03BC" unicode="&#x3bc;" horiz-adv-x="626" 
d="M204 -184h-139q5 72 5 129v581h140v-296q0 -129 99 -129q108 0 108 141v284h141v-446q0 -49 1 -80h-135v21q0 27 1 40q-56 -71 -156 -71q-26 0 -61 7v-50q0 -96 -4 -131z" />
    <glyph glyph-name="pi" unicode="&#x3c0;" horiz-adv-x="662" 
d="M117 0v415h-100v111h619v-111h-103v-207q0 -64 10.5 -102t26.5 -54t46 -28v-24h-161q-32 18 -44 54.5t-12 111.5v249h-147v-415h-135z" />
    <glyph glyph-name="Wgrave" unicode="&#x1e80;" horiz-adv-x="985" 
d="M185 0l-174 730h157l57 -267q28 -128 57 -300h4q24 119 63 290l63 277h170l60 -266q33 -144 62 -300h4q23 137 59 299l58 267h150l-176 -730h-179l-64 277q-25 109 -61 295h-4q-23 -135 -61 -296l-65 -276h-180zM436 800l-118 132h169q24 -44 74 -132h-125z" />
    <glyph glyph-name="wgrave" unicode="&#x1e81;" horiz-adv-x="841" 
d="M164 0l-155 526h144l51 -203q23 -90 42 -184h4q27 119 43 180l53 207h153l52 -205q26 -107 42 -183h4q18 80 44 187l51 201h141l-157 -526h-161l-53 208q-12 48 -39 183h-5q-23 -116 -41 -184l-53 -207h-160zM367 598l-118 132h168l75 -132h-125z" />
    <glyph glyph-name="Wacute" unicode="&#x1e82;" horiz-adv-x="985" 
d="M185 0l-174 730h157l57 -267q28 -128 57 -300h4q24 119 63 290l63 277h170l60 -266q33 -144 62 -300h4q23 137 59 299l58 267h150l-176 -730h-179l-64 277q-25 109 -61 295h-4q-23 -135 -61 -296l-65 -276h-180zM555 800h-125q50 88 74 132h169z" />
    <glyph glyph-name="wacute" unicode="&#x1e83;" horiz-adv-x="841" 
d="M164 0l-155 526h144l51 -203q23 -90 42 -184h4q27 119 43 180l53 207h153l52 -205q26 -107 42 -183h4q18 80 44 187l51 201h141l-157 -526h-161l-53 208q-12 48 -39 183h-5q-23 -116 -41 -184l-53 -207h-160zM359 598l75 132h168l-118 -132h-125z" />
    <glyph glyph-name="Wdieresis" unicode="&#x1e84;" horiz-adv-x="985" 
d="M185 0l-174 730h157l57 -267q28 -128 57 -300h4q24 119 63 290l63 277h170l60 -266q33 -144 62 -300h4q23 137 59 299l58 267h150l-176 -730h-179l-64 277q-25 109 -61 295h-4q-23 -135 -61 -296l-65 -276h-180zM530 806v117h118v-117h-118zM336 806v117h117v-117h-117z
" />
    <glyph glyph-name="wdieresis" unicode="&#x1e85;" horiz-adv-x="841" 
d="M164 0l-155 526h144l51 -203q23 -90 42 -184h4q27 119 43 180l53 207h153l52 -205q26 -107 42 -183h4q18 80 44 187l51 201h141l-157 -526h-161l-53 208q-12 48 -39 183h-5q-23 -116 -41 -184l-53 -207h-160zM459 604v117h118v-117h-118zM264 604v117h117v-117h-117z" />
    <glyph glyph-name="uni1E9E" unicode="&#x1e9e;" horiz-adv-x="720" 
d="M432 -14q-102 0 -157 36l64 107q36 -20 78 -20q53 0 82 29.5t29 75.5q0 105 -122 105q-51 0 -74 -3v111l86 115q20 29 50 64q-27 -1 -79 -1h-158v-605h-151v730h552v-117l-143 -186q84 -9 138 -62.5t54 -150.5q0 -112 -65.5 -170t-183.5 -58z" />
    <glyph glyph-name="Ygrave" unicode="&#x1ef2;" horiz-adv-x="645" 
d="M246 0v282l-247 448h166l70 -139q7 -15 39.5 -77t49.5 -97h2l89 175l72 138h162l-252 -448v-282h-151zM271 800l-118 132h169q24 -44 74 -132h-125z" />
    <glyph glyph-name="ygrave" unicode="&#x1ef3;" horiz-adv-x="552" 
d="M105 -190q-12 0 -42 2l-13 106q15 -1 39 -1q50 0 75.5 15t42.5 66l-202 528h152l58 -180q48 -152 63 -205h4q43 149 60 204l57 181h148l-212 -563q-34 -89 -86.5 -121t-143.5 -32zM222 598l-118 132h168l75 -132h-125z" />
    <glyph glyph-name="uni2000" unicode="&#x2000;" horiz-adv-x="500" 
 />
    <glyph glyph-name="uni2001" unicode="&#x2001;" horiz-adv-x="1000" 
 />
    <glyph glyph-name="uni2002" unicode="&#x2002;" horiz-adv-x="500" 
 />
    <glyph glyph-name="uni2003" unicode="&#x2003;" horiz-adv-x="1000" 
 />
    <glyph glyph-name="uni2004" unicode="&#x2004;" horiz-adv-x="333" 
 />
    <glyph glyph-name="uni2005" unicode="&#x2005;" horiz-adv-x="250" 
 />
    <glyph glyph-name="uni2006" unicode="&#x2006;" horiz-adv-x="167" 
 />
    <glyph glyph-name="uni2007" unicode="&#x2007;" horiz-adv-x="636" 
 />
    <glyph glyph-name="uni2008" unicode="&#x2008;" horiz-adv-x="264" 
 />
    <glyph glyph-name="uni2009" unicode="&#x2009;" horiz-adv-x="125" 
 />
    <glyph glyph-name="uni200A" unicode="&#x200a;" horiz-adv-x="42" 
 />
    <glyph glyph-name="uni200B" unicode="&#x200b;" horiz-adv-x="0" 
 />
    <glyph glyph-name="endash" unicode="&#x2013;" horiz-adv-x="577" 
d="M59 232v119h459v-119h-459z" />
    <glyph glyph-name="emdash" unicode="&#x2014;" horiz-adv-x="952" 
d="M59 232v119h834v-119h-834z" />
    <glyph glyph-name="uni2015" unicode="&#x2015;" horiz-adv-x="952" 
d="M59 232v119h834v-119h-834z" />
    <glyph glyph-name="quoteleft" unicode="&#x2018;" horiz-adv-x="256" 
d="M51 433v136q0 155 150 164v-71q-67 -10 -67 -83h66v-146h-149z" />
    <glyph glyph-name="quoteright" unicode="&#x2019;" horiz-adv-x="257" 
d="M57 425v73q36 5 53.5 23t17.5 52v5h-71v152h156v-143q0 -78 -36.5 -117.5t-119.5 -44.5z" />
    <glyph glyph-name="quotesinglbase" unicode="&#x201a;" horiz-adv-x="267" 
d="M55 -153v73q36 5 53.5 23t17.5 52v5h-71v152h156v-143q0 -78 -36.5 -117.5t-119.5 -44.5z" />
    <glyph glyph-name="quotedblleft" unicode="&#x201c;" horiz-adv-x="467" 
d="M51 433v136q0 155 150 164v-71q-67 -10 -67 -83h66v-146h-149zM262 433v136q0 155 150 164v-71q-67 -10 -67 -83h66v-146h-149z" />
    <glyph glyph-name="quotedblright" unicode="&#x201d;" horiz-adv-x="475" 
d="M57 425v73q36 5 53.5 23t17.5 52v5h-71v152h156v-143q0 -78 -36.5 -117.5t-119.5 -44.5zM275 425v73q36 5 53.5 23t17.5 52v5h-71v152h156v-143q0 -78 -36.5 -117.5t-119.5 -44.5z" />
    <glyph glyph-name="quotedblbase" unicode="&#x201e;" horiz-adv-x="485" 
d="M55 -153v73q36 5 53.5 23t17.5 52v5h-71v152h156v-143q0 -78 -36.5 -117.5t-119.5 -44.5zM273 -153v73q36 5 53.5 23t17.5 52v5h-71v152h156v-143q0 -78 -36.5 -117.5t-119.5 -44.5z" />
    <glyph glyph-name="dagger" unicode="&#x2020;" horiz-adv-x="515" 
d="M187 -50v479h-160v122h160v179h142v-179h159v-122h-159v-479h-142z" />
    <glyph glyph-name="daggerdbl" unicode="&#x2021;" horiz-adv-x="547" 
d="M203 -50v203h-160v122h160v157h-160v122h160v176h142v-176h159v-122h-159v-157h159v-122h-159v-203h-142z" />
    <glyph glyph-name="bullet" unicode="&#x2022;" horiz-adv-x="501" 
d="M251 170q-80 0 -136 56t-56 136q0 79 56 135t136 56q79 0 135 -56t56 -135q0 -80 -56 -136t-135 -56z" />
    <glyph glyph-name="ellipsis" unicode="&#x2026;" horiz-adv-x="944" 
d="M54 0v152h156v-152h-156zM394 0v152h156v-152h-156zM734 0v152h156v-152h-156z" />
    <glyph glyph-name="perthousand" unicode="&#x2030;" horiz-adv-x="1400" 
d="M206 252q-176 0 -176 241q0 247 176 247t176 -247q0 -241 -176 -241zM206 347q62 0 62 146q0 73 -13.5 111t-48.5 38q-36 0 -49.5 -38t-13.5 -111q0 -71 14 -108.5t49 -37.5zM774 -11q-176 0 -176 241q0 247 176 247t176 -247q0 -241 -176 -241zM774 84q62 0 62 146
q0 73 -13.5 111t-48.5 38q-36 0 -49.5 -38t-13.5 -111q0 -71 14 -108.5t49 -37.5zM281 0l303 730h116l-303 -730h-116zM1194 -11q-176 0 -176 241q0 247 176 247t176 -247q0 -241 -176 -241zM1194 84q62 0 62 146q0 73 -13.5 111t-48.5 38q-36 0 -49.5 -38t-13.5 -111
q0 -71 14 -108.5t49 -37.5z" />
    <glyph glyph-name="guilsinglleft" unicode="&#x2039;" horiz-adv-x="301" 
d="M133 87l-108 196l108 197h129l-99 -197l99 -196h-129z" />
    <glyph glyph-name="guilsinglright" unicode="&#x203a;" horiz-adv-x="301" 
d="M39 87l99 196l-99 197h129l108 -197l-108 -196h-129z" />
    <glyph glyph-name="fraction" unicode="&#x2044;" horiz-adv-x="150" 
d="M-135 0l303 730h116l-303 -730h-116z" />
    <glyph glyph-name="uni2070" unicode="&#x2070;" horiz-adv-x="416" 
d="M208 384q-176 0 -176 241q0 247 176 247t176 -247q0 -241 -176 -241zM208 479q62 0 62 146q0 73 -13.5 111t-48.5 38q-36 0 -49.5 -38t-13.5 -111q0 -71 14 -108.5t49 -37.5z" />
    <glyph glyph-name="uni2074" unicode="&#x2074;" horiz-adv-x="393" 
d="M216 393v89h-190v75l104 305h105l-98 -294h79v163h99v-163h63v-86h-63v-89h-99z" />
    <glyph glyph-name="uni2075" unicode="&#x2075;" horiz-adv-x="397" 
d="M196 385q-75 0 -119.5 38t-52.5 105l111 4q4 -25 21 -41t42 -16q31 0 47 20.5t16 52.5q0 31 -17 50.5t-47 19.5q-36 0 -53 -30l-107 8l25 264h282v-93h-194q-2 -8 -4 -44l-4 -39q0 -1 1 -1q31 26 75 26q68 0 111 -43.5t43 -115.5q0 -75 -48 -120t-128 -45z" />
    <glyph glyph-name="uni2076" unicode="&#x2076;" horiz-adv-x="414" 
d="M212 384q-87 0 -133.5 57t-46.5 163q0 124 48 195.5t138 71.5q70 0 109 -36.5t48 -95.5l-112 -6q-8 39 -48 39q-34 0 -51.5 -32.5t-17.5 -78.5q34 39 89 39q68 0 109 -41.5t41 -111.5q0 -71 -48 -117t-125 -46zM211 473q29 0 47 19.5t18 50.5t-17.5 50t-47.5 19
t-48.5 -19t-18.5 -49q0 -32 18.5 -51.5t48.5 -19.5z" />
    <glyph glyph-name="uni2077" unicode="&#x2077;" horiz-adv-x="367" 
d="M182 393h-125q51 185 167 373v1q-9 0 -25.5 -0.5t-24.5 -0.5h-155v94h328v-88q-92 -125 -165 -379z" />
    <glyph glyph-name="uni2078" unicode="&#x2078;" horiz-adv-x="415" 
d="M207 384q-82 0 -130 37.5t-48 103.5q0 79 82 117q-66 35 -66 104q0 56 44 91t118 35t118.5 -35t44.5 -91q0 -68 -67 -104q82 -38 82 -117q0 -66 -48 -103.5t-130 -37.5zM207 472q30 0 48 17.5t18 45.5q0 27 -18 43.5t-48 16.5q-29 0 -47 -17t-18 -43q0 -28 17.5 -45.5
t47.5 -17.5zM207 682q26 0 41.5 14.5t15.5 37.5q0 22 -15.5 37t-41.5 15q-25 0 -40 -15t-15 -37q0 -24 14.5 -38t40.5 -14z" />
    <glyph glyph-name="uni2079" unicode="&#x2079;" horiz-adv-x="415" 
d="M196 384q-71 0 -112 36.5t-47 95.5l112 5q9 -41 50 -41q34 0 51.5 33.5t17.5 81.5q-29 -39 -89 -39q-67 0 -108 41.5t-41 110.5q0 72 48 117.5t125 45.5q87 0 133.5 -58t46.5 -163q0 -124 -48 -195t-139 -71zM204 643q29 0 47 19t18 50q0 30 -18.5 49t-47.5 19
t-46.5 -18.5t-17.5 -48.5q0 -32 17.5 -51t47.5 -19z" />
    <glyph glyph-name="uni207A" unicode="&#x207a;" horiz-adv-x="362" 
d="M136 449v118h-113v86h113v116h89v-116h114v-86h-114v-118h-89z" />
    <glyph glyph-name="uni207B" unicode="&#x207b;" horiz-adv-x="392" 
d="M41 562v92h310v-92h-310z" />
    <glyph glyph-name="uni207C" unicode="&#x207c;" horiz-adv-x="392" 
d="M41 631v83h310v-83h-310zM41 501v82h310v-82h-310z" />
    <glyph glyph-name="uni207D" unicode="&#x207d;" horiz-adv-x="231" 
d="M215 300l-81 -5q-103 136 -103 285q0 150 103 290l81 -5q-82 -133 -82 -284q0 -148 82 -281z" />
    <glyph glyph-name="uni207E" unicode="&#x207e;" horiz-adv-x="230" 
d="M97 295l-81 5q82 133 82 281q0 151 -82 284l81 5q102 -140 102 -290q0 -148 -102 -285z" />
    <glyph glyph-name="uni207F" unicode="&#x207f;" horiz-adv-x="420" 
d="M47 393v277q0 41 -1 60h102v-12q0 -15 -1 -26h1q32 47 108 47q121 0 121 -142v-204h-105v165q0 54 -13 75t-45 21q-62 0 -62 -89v-172h-105z" />
    <glyph glyph-name="uni2080" unicode="&#x2080;" horiz-adv-x="416" 
d="M208 -93q-176 0 -176 241q0 247 176 247t176 -247q0 -241 -176 -241zM208 2q62 0 62 146q0 73 -13.5 111t-48.5 38q-36 0 -49.5 -38t-13.5 -111q0 -71 14 -108.5t49 -37.5z" />
    <glyph glyph-name="uni2081" unicode="&#x2081;" horiz-adv-x="357" 
d="M41 -84v87h100v229h-111v80q56 0 85.5 16t34.5 57h100v-382h92v-87h-301z" />
    <glyph glyph-name="uni2082" unicode="&#x2082;" horiz-adv-x="402" 
d="M31 -84v89q29 27 137 116q47 41 65.5 65.5t18.5 54.5q0 22 -14 38t-39 16q-59 0 -61 -74l-109 2q1 79 46 125t127 46q78 0 121 -38t43 -107q0 -52 -24.5 -92t-73.5 -82q-19 -15 -35 -27.5t-30 -22.5l-21 -15v-1q13 1 48 1h26h113v-94h-338z" />
    <glyph glyph-name="uni2083" unicode="&#x2083;" horiz-adv-x="402" 
d="M197 -93q-80 0 -125.5 40.5t-49.5 115.5l111 6q5 -69 65 -69q28 0 43.5 16t15.5 42q0 60 -75 60h-25v82h22q66 0 66 53q0 21 -12.5 33t-33.5 12q-51 0 -53 -57l-112 7q4 67 47.5 106.5t117.5 39.5q73 0 115 -35t42 -93q0 -71 -62 -100q79 -34 79 -114q0 -67 -48 -106
t-128 -39z" />
    <glyph glyph-name="uni2084" unicode="&#x2084;" horiz-adv-x="393" 
d="M216 -84v89h-190v75l104 305h105l-98 -294h79v163h99v-163h63v-86h-63v-89h-99z" />
    <glyph glyph-name="uni2085" unicode="&#x2085;" horiz-adv-x="397" 
d="M196 -92q-75 0 -119.5 38t-52.5 105l111 4q4 -25 21 -41t42 -16q31 0 47 20.5t16 52.5q0 31 -17 50.5t-47 19.5q-36 0 -53 -30l-107 8l25 264h282v-93h-194q-2 -8 -4 -44l-4 -39q0 -1 1 -1q31 26 75 26q68 0 111 -43.5t43 -115.5q0 -75 -48 -120t-128 -45z" />
    <glyph glyph-name="uni2086" unicode="&#x2086;" horiz-adv-x="414" 
d="M212 -93q-87 0 -133.5 57t-46.5 163q0 124 48 195.5t138 71.5q70 0 109 -36.5t48 -95.5l-112 -6q-8 39 -48 39q-34 0 -51.5 -32.5t-17.5 -78.5q34 39 89 39q68 0 109 -41.5t41 -111.5q0 -71 -48 -117t-125 -46zM211 -4q29 0 47 19.5t18 50.5t-17.5 50t-47.5 19t-48.5 -19
t-18.5 -49q0 -32 18.5 -51.5t48.5 -19.5z" />
    <glyph glyph-name="uni2087" unicode="&#x2087;" horiz-adv-x="367" 
d="M182 -84h-125q51 185 167 373v1q-9 0 -25.5 -0.5t-24.5 -0.5h-155v94h328v-88q-92 -125 -165 -379z" />
    <glyph glyph-name="uni2088" unicode="&#x2088;" horiz-adv-x="415" 
d="M207 -93q-82 0 -130 37.5t-48 103.5q0 79 82 117q-66 35 -66 104q0 56 44 91t118 35t118.5 -35t44.5 -91q0 -68 -67 -104q82 -38 82 -117q0 -66 -48 -103.5t-130 -37.5zM207 -5q30 0 48 17.5t18 45.5q0 27 -18 43.5t-48 16.5q-29 0 -47 -17t-18 -43q0 -28 17.5 -45.5
t47.5 -17.5zM207 205q26 0 41.5 14.5t15.5 37.5q0 22 -15.5 37t-41.5 15q-25 0 -40 -14.5t-15 -37.5q0 -24 14.5 -38t40.5 -14z" />
    <glyph glyph-name="uni2089" unicode="&#x2089;" horiz-adv-x="415" 
d="M196 -93q-71 0 -112 36.5t-47 95.5l112 5q9 -41 50 -41q34 0 51.5 33.5t17.5 81.5q-29 -39 -89 -39q-67 0 -108 41.5t-41 110.5q0 72 48 117.5t125 45.5q87 0 133.5 -58t46.5 -163q0 -124 -48 -195t-139 -71zM204 166q29 0 47 19t18 50q0 30 -18.5 49t-47.5 19
t-46.5 -18.5t-17.5 -48.5q0 -32 17.5 -51t47.5 -19z" />
    <glyph glyph-name="uni208A" unicode="&#x208a;" horiz-adv-x="362" 
d="M136 -28v118h-113v86h113v116h89v-116h114v-86h-114v-118h-89z" />
    <glyph glyph-name="uni208B" unicode="&#x208b;" horiz-adv-x="392" 
d="M41 85v92h310v-92h-310z" />
    <glyph glyph-name="uni208C" unicode="&#x208c;" horiz-adv-x="392" 
d="M41 154v83h310v-83h-310zM41 24v82h310v-82h-310z" />
    <glyph glyph-name="uni208D" unicode="&#x208d;" horiz-adv-x="231" 
d="M215 -177l-81 -5q-103 136 -103 285q0 150 103 290l81 -5q-82 -133 -82 -284q0 -148 82 -281z" />
    <glyph glyph-name="uni208E" unicode="&#x208e;" horiz-adv-x="230" 
d="M97 -182l-81 5q82 133 82 281q0 151 -82 284l81 5q102 -139 102 -290q0 -149 -102 -285z" />
    <glyph glyph-name="Euro" unicode="&#x20ac;" 
d="M338 -14q-217 0 -251 249h-77l29 102h40v47h-68l28 102h48q15 121 78 189.5t173 68.5q105 0 164 -56.5t74 -158.5l-135 -14q-20 105 -103 105q-91 0 -109 -134h222l-29 -102h-199v-47h187l-28 -102h-152q18 -129 108 -129q44 0 68 27t36 82l135 -15q-34 -214 -239 -214z
" />
    <glyph glyph-name="uni2113" unicode="&#x2113;" horiz-adv-x="505" 
d="M294 -14q-97 0 -134.5 47t-37.5 143l-41 -34l-59 85l99 85v198q0 69 8.5 109.5t31.5 69.5q44 55 145 55q162 0 162 -155q0 -157 -195 -318v-97q0 -67 58 -67q38 0 76 35l79 -84q-80 -72 -192 -72zM269 579v-171q76 88 76 177q0 60 -35 60q-41 0 -41 -66z" />
    <glyph glyph-name="uni2116" unicode="&#x2116;" horiz-adv-x="1191" 
d="M813 214v105h326v-105h-326zM80 0v730h195l201 -365q38 -67 94 -186h3q-3 71 -3 216v335h144v-730h-189l-188 336q-61 109 -114 222h-2q0 -22 2 -94t2 -100v-364h-145zM976 383q-81 0 -131 49t-50 127q0 80 50 129t131 49t130.5 -49.5t49.5 -128.5q0 -78 -49.5 -127
t-130.5 -49zM976 470q71 0 71 89q0 41 -18.5 65.5t-52.5 24.5t-53 -24.5t-19 -65.5q0 -42 18.5 -65.5t53.5 -23.5z" />
    <glyph glyph-name="uni2117" unicode="&#x2117;" horiz-adv-x="839" 
d="M416 -14q-157 0 -267.5 110.5t-110.5 268.5t111 268.5t270 110.5t270.5 -110.5t111.5 -268.5q0 -160 -111.5 -269.5t-273.5 -109.5zM420 54q127 0 216.5 91t89.5 220q0 128 -89.5 218t-217.5 90t-217 -90t-89 -218q0 -129 89 -220t218 -91zM275 142v443h183
q80 0 120.5 -37t40.5 -102q0 -67 -46 -103t-124 -36h-81v-165h-93zM368 383h72q84 0 84 64q0 62 -85 62h-71v-126z" />
    <glyph glyph-name="trademark" unicode="&#x2122;" horiz-adv-x="1008" 
d="M436 288v442h150q77 -253 99 -327h4q24 94 97 327h148v-442h-95v246l3 106h-3q-13 -39 -31.5 -101.5t-25.5 -83.5l-51 -167h-91l-52 167q-33 103 -55 182h-4q3 -129 3 -143v-206h-96zM157 288v359h-130v83h357v-83h-127v-359h-100z" />
    <glyph glyph-name="Omega" unicode="&#x2126;" horiz-adv-x="831" 
d="M51 0v123h57q15 0 63 -2v3q-120 90 -120 277q0 143 99 243t265 100t265.5 -100t99.5 -243q0 -175 -121 -277v-3q48 2 63 2h58v-123h-325v117q82 33 126.5 103t44.5 169q0 98 -56 161t-155 63t-154.5 -63t-55.5 -161q0 -99 44.5 -169.5t125.5 -102.5v-117h-324z" />
    <glyph glyph-name="estimated" unicode="&#x212e;" horiz-adv-x="609" 
d="M311 -14q-123 0 -197 75.5t-74 203.5q0 120 73 197.5t198 77.5t196 -80.5t71 -218.5h-388v-107q0 -31 22 -49.5t46 -23.5t53 -5q61 0 107.5 25t86.5 90l54 -43q-48 -74 -107.5 -108t-140.5 -34zM190 310h244v94q0 30 -37 49.5t-86 19.5q-50 0 -85.5 -18.5t-35.5 -49.5
v-95z" />
    <glyph glyph-name="onethird" unicode="&#x2153;" horiz-adv-x="886" 
d="M136 261v316h-111v80q56 0 85.5 16t34.5 57h100v-469h-109zM192 0l303 730h116l-303 -730h-116zM674 -11q-80 0 -125.5 40.5t-49.5 115.5l111 6q5 -69 65 -69q28 0 43.5 16t15.5 42q0 60 -75 60h-25v82h22q66 0 66 53q0 21 -12.5 33t-33.5 12q-51 0 -53 -57l-112 7
q4 67 47.5 106.5t117.5 39.5q73 0 115 -35t42 -93q0 -71 -62 -100q79 -34 79 -114q0 -67 -48 -106t-128 -39z" />
    <glyph glyph-name="twothirds" unicode="&#x2154;" horiz-adv-x="995" 
d="M307 0l303 730h116l-303 -730h-116zM789 -11q-80 0 -125.5 40.5t-49.5 115.5l111 6q5 -69 65 -69q28 0 43.5 16t15.5 42q0 60 -75 60h-25v82h22q66 0 66 53q0 21 -12.5 33t-33.5 12q-51 0 -53 -57l-112 7q4 67 47.5 106.5t117.5 39.5q73 0 115 -35t42 -93q0 -71 -62 -100
q79 -34 79 -114q0 -67 -48 -106t-128 -39zM41 261v89q29 27 137 116q47 41 65.5 65.5t18.5 54.5q0 22 -14 38t-39 16q-59 0 -61 -74l-109 2q1 79 46 125t127 46q78 0 121 -38t43 -107q0 -52 -24.5 -92t-73.5 -82q-19 -15 -35 -27.5t-30 -22.5l-21 -15v-1q13 1 48 1h26h113
v-94h-338z" />
    <glyph glyph-name="oneeighth" unicode="&#x215b;" horiz-adv-x="900" 
d="M136 261v316h-111v80q56 0 85.5 16t34.5 57h100v-469h-109zM192 0l303 730h116l-303 -730h-116zM686 -10q-82 0 -130 37.5t-48 103.5q0 79 82 117q-66 35 -66 104q0 56 44 91t118 35t118.5 -35t44.5 -91q0 -68 -67 -104q82 -38 82 -117q0 -66 -48 -103.5t-130 -37.5z
M686 78q30 0 48 17.5t18 45.5q0 27 -18 43.5t-48 16.5q-29 0 -47 -17t-18 -43q0 -28 17.5 -45.5t47.5 -17.5zM686 288q26 0 41.5 14.5t15.5 37.5q0 22 -15.5 37t-41.5 15t-40.5 -15t-14.5 -37q0 -24 14.5 -38t40.5 -14z" />
    <glyph glyph-name="threeeighths" unicode="&#x215c;" horiz-adv-x="990" 
d="M781 -10q-82 0 -130 37.5t-48 103.5q0 79 82 117q-66 35 -66 104q0 56 44 91t118 35t118.5 -35t44.5 -91q0 -68 -67 -104q82 -38 82 -117q0 -66 -48 -103.5t-130 -37.5zM781 78q30 0 48 17.5t18 45.5q0 27 -18 43.5t-48 16.5q-29 0 -47 -17t-18 -43q0 -28 17.5 -45.5
t47.5 -17.5zM781 288q26 0 41.5 14.5t15.5 37.5q0 22 -15.5 37t-41.5 15q-25 0 -40 -15t-15 -37q0 -24 14.5 -38t40.5 -14zM287 0l303 730h116l-303 -730h-116zM204 251q-80 0 -125.5 40.5t-49.5 115.5l111 6q5 -69 65 -69q28 0 43.5 16t15.5 42q0 60 -75 60h-25v82h22
q66 0 66 53q0 21 -12.5 33t-33.5 12q-51 0 -53 -57l-112 7q4 67 47.5 106.5t117.5 39.5q73 0 115 -35t42 -93q0 -71 -62 -100q79 -34 79 -114q0 -67 -48 -106t-128 -39z" />
    <glyph glyph-name="fiveeighths" unicode="&#x215d;" horiz-adv-x="980" 
d="M277 0l303 730h116l-303 -730h-116zM771 -10q-82 0 -130 37.5t-48 103.5q0 79 82 117q-66 35 -66 104q0 56 44 91t118 35t118.5 -35t44.5 -91q0 -68 -67 -104q82 -38 82 -117q0 -66 -48 -103.5t-130 -37.5zM771 78q30 0 48 17.5t18 45.5q0 27 -18 43.5t-48 16.5
q-29 0 -47 -17t-18 -43q0 -28 17.5 -45.5t47.5 -17.5zM771 288q26 0 41.5 14.5t15.5 37.5q0 22 -15.5 37t-41.5 15q-25 0 -40 -15t-15 -37q0 -24 14.5 -38t40.5 -14zM201 255q-75 0 -119.5 38t-52.5 105l111 4q4 -25 21 -41t42 -16q31 0 47 20.5t16 52.5q0 31 -17 50.5
t-47 19.5q-36 0 -53 -30l-107 8l25 264h282v-93h-194q-2 -8 -4 -44l-4 -39q0 -1 1 -1q31 26 75 26q68 0 111 -43.5t43 -115.5q0 -75 -48 -120t-128 -45z" />
    <glyph glyph-name="seveneighths" unicode="&#x215e;" horiz-adv-x="903" 
d="M691 -10q-82 0 -130 37.5t-48 103.5q0 79 82 117q-66 35 -66 104q0 56 44 91t118 35t118.5 -35t44.5 -91q0 -68 -67 -104q82 -38 82 -117q0 -66 -48 -103.5t-130 -37.5zM691 78q30 0 48 17.5t18 45.5q0 27 -18 43.5t-48 16.5q-29 0 -47 -17t-18 -43q0 -28 17.5 -45.5
t47.5 -17.5zM691 288q26 0 41.5 14.5t15.5 37.5q0 22 -15.5 37t-41.5 15q-25 0 -40 -15t-15 -37q0 -24 14.5 -38t40.5 -14zM197 0l303 730h116l-303 -730h-116zM191 263h-125q51 185 167 373v1q-9 0 -25.5 -0.5t-24.5 -0.5h-155v94h328v-88q-92 -125 -165 -379z" />
    <glyph glyph-name="arrowleft" unicode="&#x2190;" horiz-adv-x="820" 
d="M329 2l-153 162q-84 90 -156 162q72 72 156 162l153 162h187l-144 -147l-108 -108v-1q80 1 188 1h328v-139h-329q-108 0 -187 1v-1q57 -55 108 -107l144 -147h-187z" />
    <glyph glyph-name="arrowup" unicode="&#x2191;" horiz-adv-x="706" 
d="M280 0v357q0 90 1 158q-4 -4 -39 -41t-67 -67l-146 -145v179l162 153q90 84 162 156q72 -72 162 -156l162 -153v-179l-147 145q-32 32 -61 62t-45 46q1 -67 1 -158v-357h-145z" />
    <glyph glyph-name="arrowright" unicode="&#x2192;" horiz-adv-x="820" 
d="M304 2l144 147q51 52 108 107v1q-79 -1 -187 -1h-329v139h328q108 0 188 -1v1q-17 16 -30 28.5t-34.5 35t-43.5 44.5l-144 147h187l153 -162q84 -90 156 -162q-72 -72 -156 -162l-153 -162h-187z" />
    <glyph glyph-name="arrowdown" unicode="&#x2193;" horiz-adv-x="706" 
d="M353 -35q-22 22 -162 155l-162 154v178l147 -145q22 -22 56 -57.5t50 -50.5q-1 33 -1 87v71v358h144v-358v-71q0 -54 -1 -87q38 41 107 108l146 145v-178l-162 -154q-147 -140 -162 -155z" />
    <glyph glyph-name="uni2196" unicode="&#x2196;" horiz-adv-x="682" 
d="M654 72l-100 -98q-42 40 -117.5 117t-87.5 89q-98 95 -160 160v-30q0 -15 0.5 -53t0.5 -69q0 -69 -2 -205l-129 127l6 223q4 111 4 225q114 0 225 4l223 6l128 -126q-35 0 -104 -1t-103 -1q-45 0 -88 0.5t-65 0.5q25 -25 62 -61t52 -52l79 -80q22 -23 83 -82.5t93 -93.5z
" />
    <glyph glyph-name="uni2197" unicode="&#x2197;" horiz-adv-x="683" 
d="M129 -26l-101 99l235 234q115 116 135 134h-1q-27 -1 -76 -1q-12 0 -37.5 0.5t-39.5 0.5l-206 2l128 125l223 -5q111 -4 225 -4q0 -114 4 -225l6 -223l-129 -128l-3 206q0 42 1 89t1 63v1q-23 -24 -65.5 -67.5t-64.5 -65.5z" />
    <glyph glyph-name="uni2198" unicode="&#x2198;" horiz-adv-x="692" 
d="M168 -5l-128 125l206 2h92h61h1q-19 19 -135 134l-235 234l101 99l235 -235q22 -21 64.5 -65t65.5 -68v1q0 16 -1 63t-1 89l3 206l129 -128l-6 -223q-4 -111 -4 -225q-114 0 -225 -4z" />
    <glyph glyph-name="uni2199" unicode="&#x2199;" horiz-adv-x="691" 
d="M652 119l-128 -124q-54 1 -151.5 3.5t-172 4t-124.5 1.5q0 113 -4 224l-6 223l129 129l3 -207q0 -41 -1 -89t-1 -64q19 20 55.5 57.5t54.5 55.5l255 255l100 -99l-245 -245q-90 -90 -125 -123h1h31q19 0 52.5 0.5t68.5 0.5z" />
    <glyph glyph-name="partialdiff" unicode="&#x2202;" horiz-adv-x="613" 
d="M303 -13q-121 0 -194.5 73.5t-73.5 198.5q0 126 72 200.5t181 74.5q41 0 72 -16l2 2q-74 97 -274 174l78 63q83 -23 155.5 -65.5t129.5 -102t90 -140.5t33 -171q0 -139 -73 -215t-198 -76zM303 92q62 0 95.5 45t33.5 124t-33.5 124t-95.5 45t-95 -45t-33 -124
q0 -80 33 -124.5t95 -44.5z" />
    <glyph glyph-name="increment" unicode="&#x2206;" horiz-adv-x="773" 
d="M21 0l283 730h165l284 -730h-732zM327 427l-110 -301h330l-105 301q-36 94 -56 167h-4q-47 -144 -55 -167z" />
    <glyph glyph-name="product" unicode="&#x220f;" horiz-adv-x="812" 
d="M131 -98v702h-100v126h750v-126h-102v-702h-150v702h-248v-702h-150z" />
    <glyph glyph-name="summation" unicode="&#x2211;" horiz-adv-x="624" 
d="M32 -92v110l241 297l-237 302v113h547v-128h-355l219 -277l-231 -288h377v-129h-561z" />
    <glyph glyph-name="minus" unicode="&#x2212;" 
d="M52 275v123h484v-123h-484z" />
    <glyph glyph-name="radical" unicode="&#x221a;" horiz-adv-x="594" 
d="M374 0h-128q-19 52 -78 222t-64 184h-90v120h200l48 -152q7 -23 22.5 -80.5t28.5 -99.5h2q9 35 22.5 93.5t24.5 98.5l91 344h145z" />
    <glyph glyph-name="infinity" unicode="&#x221e;" horiz-adv-x="824" 
d="M216 154q-85 0 -129.5 53t-44.5 128q0 83 46.5 133t129.5 50q50 0 94.5 -25t100.5 -74q58 50 100.5 74.5t92.5 24.5q83 0 130 -50t47 -133q0 -75 -45 -128t-130 -53q-56 0 -100.5 27t-95.5 76q-52 -50 -96 -76.5t-100 -26.5zM224 274q20 0 42 10.5t35.5 20.5t37.5 31
q-25 20 -40 31.5t-37 21.5t-40 10q-27 0 -44 -17.5t-17 -44.5q0 -29 17 -46t46 -17zM600 274q29 0 46 17t17 46q0 27 -17 44.5t-44 17.5q-18 0 -40 -10t-37 -21.5t-40 -31.5q55 -46 80 -55q18 -7 35 -7z" />
    <glyph glyph-name="integral" unicode="&#x222b;" 
d="M116 -166q-56 0 -89 13l17 110q22 -6 40 -6q73 0 88 96l69 446q16 134 61 193.5t144 59.5q55 0 91 -12l-19 -113q-20 5 -38 5q-41 0 -60 -24t-28 -80q-13 -79 -37 -229.5t-36 -222.5q-16 -126 -61 -181t-142 -55z" />
    <glyph glyph-name="approxequal" unicode="&#x2248;" 
d="M397 369q-10 0 -20 1.5t-16 3t-18.5 6t-15.5 5.5t-18 8t-16 8l-34 16q-40 19 -59 19q-44 0 -80 -61l-77 61q63 119 151 119q10 0 20 -1.5t16 -3t18.5 -6t15.5 -5.5t18 -8t16 -8l34 -16q40 -19 59 -19q44 0 80 61l77 -61q-63 -119 -151 -119zM396 113q-10 0 -20 1.5t-16 3
t-18.5 6t-15.5 5.5t-18 8t-16 8l-34 16q-40 19 -59 19q-44 0 -80 -61l-77 61q63 119 151 119q10 0 20 -1.5t16 -3t18.5 -6t15.5 -5.5t18 -8t16 -8l34 -16q40 -19 59 -19q44 0 80 61l77 -61q-63 -119 -151 -119z" />
    <glyph glyph-name="notequal" unicode="&#x2260;" 
d="M193 60h-124q9 15 33 56t37 64h-87v110h153l54 90h-207v110h273q18 32 70 118h124q-52 -86 -70 -118h87v-110h-153l-54 -90h207v-110h-273q-13 -23 -37 -64t-33 -56z" />
    <glyph glyph-name="lessequal" unicode="&#x2264;" 
d="M488 289v-141q-371 170 -396 182v110q225 106 396 185v-139q-150 -56 -241 -96v-3zM92 0v125h396v-125h-396z" />
    <glyph glyph-name="greaterequal" unicode="&#x2265;" 
d="M100 148v141q37 16 85.5 35.5t95.5 38.5t59 24v3q-123 52 -240 96v139q171 -79 396 -185v-110q-25 -12 -396 -182zM100 0v125h396v-125h-396z" />
    <glyph glyph-name="lozenge" unicode="&#x25ca;" 
d="M239 0l-220 363l220 367h110l219 -367l-219 -363h-110zM294 147l123 216l-123 221l-125 -221z" />
    <glyph glyph-name="uni25CF" unicode="&#x25cf;" 
d="M87 340q0 86 60.5 146.5t146.5 60.5t146.5 -60.5t60.5 -146.5t-60.5 -146.5t-146.5 -60.5t-146.5 60.5t-60.5 146.5z" />
    <glyph glyph-name="uniFB00" unicode="&#xfb00;" horiz-adv-x="678" 
d="M102 0v418h-76v108h76v36q0 95 43.5 133.5t137.5 38.5q35 0 67 -5l-5 -109q-18 6 -40 6q-35 0 -50 -15.5t-15 -50.5v-34h180v36q0 95 43.5 133.5t137.5 38.5q35 0 67 -5l-5 -109q-18 6 -40 6q-35 0 -50 -15.5t-15 -50.5v-34h105v-108h-103v-418h-140v418h-178v-418h-140z
" />
    <glyph glyph-name="fi" unicode="&#xfb01;" horiz-adv-x="629" 
d="M102 0v419h-76v107h76v37q0 94 43.5 132.5t136.5 38.5q39 0 67 -5l-4 -108q-20 5 -41 5q-35 0 -50 -15.5t-15 -50.5v-34h321v-526h-140v419h-180v-419h-138zM420 598v132h140v-132h-140z" />
    <glyph glyph-name="fl" unicode="&#xfb02;" horiz-adv-x="626" 
d="M102 0v418h-76v108h76v31q0 59 13 94.5t46.5 54.5t78 25t120.5 6q121 0 197 -7v-730h-139v629q-15 2 -71 2q-67 0 -88 -14t-21 -66v-25h107v-108h-105v-418h-138z" />
    <glyph glyph-name="uniFB03" unicode="&#xfb03;" horiz-adv-x="947" 
d="M102 0v418h-76v108h76v36q0 95 43.5 133.5t137.5 38.5q35 0 67 -5l-5 -109q-18 6 -40 6q-35 0 -50 -15.5t-15 -50.5v-34h180v37q0 94 43.5 132.5t136.5 38.5q39 0 67 -5l-4 -108q-20 5 -41 5q-35 0 -50 -15.5t-15 -50.5v-34h321v-526h-140v419h-180v-419h-138v419h-75v-1
h-103v-418h-140zM738 598v132h140v-132h-140z" />
    <glyph glyph-name="uniFB04" unicode="&#xfb04;" horiz-adv-x="944" 
d="M102 0v418h-76v108h76v36q0 95 43.5 133.5t137.5 38.5q35 0 67 -5l-5 -109q-18 6 -40 6q-35 0 -50 -15.5t-15 -50.5v-34h180v31q0 59 13 94.5t46.5 54.5t78 25t120.5 6q121 0 197 -7v-730h-139v629q-15 2 -71 2q-67 0 -88 -14t-21 -66v-25h107v-108h-105v-418h-138v418
h-178v-418h-140z" />
    <glyph glyph-name="uniFEFF" unicode="&#xfeff;" horiz-adv-x="0" 
 />
    <glyph glyph-name="i.latn_TRK" horiz-adv-x="280" 
d="M69 0v526h142v-526h-142zM80 604v117h121v-117h-121z" />
    <glyph glyph-name="Ldot.latn_CAT" horiz-adv-x="583" 
d="M80 0v730h151v-602h324v-128h-475zM375 305v117h121v-117h-121z" />
    <glyph glyph-name="ldot.latn_CAT" horiz-adv-x="375" 
d="M69 0v730h142v-730h-142zM267 305v117h121v-117h-121z" />
    <glyph glyph-name="bracketleft.subs" horiz-adv-x="242" 
d="M55 -178v572h162v-67h-69q1 -15 1 -44v-350q0 -28 -1 -43h69v-68h-162z" />
    <glyph glyph-name="bracketright.subs" horiz-adv-x="243" 
d="M25 -177v67h70q-1 15 -1 43v351q0 28 1 43h-70v67h163v-571h-163z" />
    <glyph glyph-name="a.subs" horiz-adv-x="381" 
d="M146 -89q-55 0 -88.5 27t-33.5 75q0 42 26 63.5t81 34.5q46 10 77 15q19 4 24 7t5 14q0 33 -47 33q-49 0 -54 -44l-102 5q4 52 46.5 85t111.5 33q146 0 146 -134v-193v-16h-87q-1 3 -1 16v12h-1q-33 -33 -103 -33zM172 -18q31 0 49 15t18 45v10q0 13 2 15q-12 -4 -42 -9
l-30 -7q-23 -6 -32 -13t-9 -24q0 -32 44 -32z" />
    <glyph glyph-name="b.subs" horiz-adv-x="431" 
d="M250 -92q-62 0 -95 47h-2q0 -4 0.5 -13t0.5 -15v-11h-108q1 15 1 48v419h110v-103q0 -41 -1 -64q38 46 97 46q68 0 110.5 -49.5t42.5 -128.5q0 -78 -43.5 -127t-112.5 -49zM226 -5q32 0 51 24.5t19 64.5t-18.5 64.5t-51.5 24.5t-52 -24.5t-19 -64.5t19 -64.5t52 -24.5z
" />
    <glyph glyph-name="c.subs" horiz-adv-x="380" 
d="M201 -92q-80 0 -128 49t-48 127q0 80 49.5 129t128.5 49q61 0 103.5 -30t56.5 -82l-100 -20q-14 44 -60 44q-33 0 -50.5 -24t-17.5 -66q0 -89 69 -89q45 0 60 43l99 -21q-15 -49 -57.5 -79t-104.5 -30z" />
    <glyph glyph-name="d.subs" horiz-adv-x="431" 
d="M181 -92q-70 0 -113 48.5t-43 127.5t42.5 128.5t110.5 49.5q63 0 101 -44v73v92h105v-419v-48h-102v10v29h-1q-35 -47 -100 -47zM204 -5q33 0 52.5 24.5t19.5 64.5t-19.5 64.5t-52.5 24.5q-32 0 -51 -24.5t-19 -64.5t19 -64.5t51 -24.5z" />
    <glyph glyph-name="e.subs" horiz-adv-x="399" 
d="M205 -92q-81 0 -130.5 47.5t-49.5 128.5q0 79 49 128.5t130 49.5q83 0 126.5 -52.5t43.5 -141.5v-10h-245q3 -32 24 -51t54 -19q47 0 79 41l88 -30q-50 -91 -169 -91zM130 124h139q-1 29 -18.5 46.5t-48.5 17.5t-49.5 -17.5t-22.5 -46.5z" />
    <glyph glyph-name="f.subs" horiz-adv-x="255" 
d="M69 -84v254h-44v83h44v23q0 62 29 86.5t94 24.5q37 0 46 -3l-2 -81q-10 3 -24 3q-34 0 -34 -31v-22h58v-83h-57v-254h-110z" />
    <glyph glyph-name="g.subs" horiz-adv-x="427" 
d="M198 -211q-125 0 -169 89l88 35q27 -41 83 -41q38 0 55.5 17t19.5 56q0 16 1 24h-2q-35 -44 -97 -44q-66 0 -109 47.5t-43 119.5q0 73 43 121t109 48q65 0 99 -45h1q-1 7 -1 21v16h105q-1 -21 -1 -60v-245q0 -81 -49 -120t-133 -39zM205 7q32 0 51 24t19 61t-19 60.5
t-51 23.5q-33 0 -52.5 -23.5t-19.5 -60.5q0 -38 19.5 -61.5t52.5 -23.5z" />
    <glyph glyph-name="h.subs" horiz-adv-x="420" 
d="M47 -84v467h111v-117q0 -37 -1 -46h1q31 42 97 42q122 0 122 -142v-204h-110v165q0 50 -12 70.5t-41 20.5q-56 0 -56 -84v-172h-111z" />
    <glyph glyph-name="i.subs" horiz-adv-x="205" 
d="M47 -84v337h111v-337h-111zM47 294v89h111v-89h-111z" />
    <glyph glyph-name="j.subs" horiz-adv-x="205" 
d="M39 -206q-30 0 -43 2l2 84q3 -1 11 -1q21 0 29.5 10.5t8.5 35.5v328h111v-341q0 -66 -28.5 -92t-90.5 -26zM47 294v89h111v-89h-111z" />
    <glyph glyph-name="k.subs" horiz-adv-x="398" 
d="M46 -84v467h111v-165q0 -15 -0.5 -48.5t-0.5 -53.5q13 17 109 137h127l-132 -153l141 -184h-131l-80 121l-33 -38v-83h-111z" />
    <glyph glyph-name="l.subs" horiz-adv-x="205" 
d="M47 -84v467h111v-467h-111z" />
    <glyph glyph-name="m.subs" horiz-adv-x="632" 
d="M47 -84v279q0 35 -1 58h107v-12q0 -15 -1 -28h1q29 49 96 49q69 0 101 -54q39 54 114 54q125 0 125 -148v-198h-108v175q0 44 -12.5 62t-39.5 18q-57 0 -57 -81v-174h-109v175q0 43 -12.5 61.5t-39.5 18.5q-32 0 -43.5 -25.5t-11.5 -80.5v-149h-109z" />
    <glyph glyph-name="n.subs" horiz-adv-x="420" 
d="M47 -84v277q0 41 -1 60h102v-12q0 -15 -1 -26h1q32 47 108 47q121 0 121 -142v-204h-105v165q0 54 -13 75t-45 21q-62 0 -62 -89v-172h-105z" />
    <glyph glyph-name="o.subs" horiz-adv-x="409" 
d="M205 -92q-81 0 -131 49t-50 127q0 80 50 129t131 49t130.5 -49.5t49.5 -128.5q0 -78 -49.5 -127t-130.5 -49zM205 -5q71 0 71 89q0 41 -18.5 65.5t-52.5 24.5t-53 -24.5t-19 -65.5q0 -42 18.5 -65.5t53.5 -23.5z" />
    <glyph glyph-name="p.subs" horiz-adv-x="431" 
d="M47 -204v396q0 44 -1 61h109v-12v-25q38 46 97 46q68 0 111 -49.5t43 -127.5q0 -79 -43.5 -128t-112.5 -49q-59 0 -92 43h-2q0 -6 0.5 -18.5t0.5 -19.5v-117h-110zM226 -5q32 0 51 24.5t19 64.5t-18.5 64.5t-51.5 24.5t-52.5 -24.5t-19.5 -64.5t19.5 -64.5t52.5 -24.5z
" />
    <glyph glyph-name="q.subs" horiz-adv-x="430" 
d="M273 -204v120q0 5 0.5 17t0.5 18h-1q-33 -43 -92 -43q-70 0 -113 49t-43 127q0 79 42.5 128.5t110.5 49.5q60 0 98 -46v25v12h108q-1 -16 -1 -65v-392h-110zM205 -5q33 0 52 24.5t19 64.5t-19 64.5t-52 24.5t-51.5 -24t-18.5 -65t18.5 -65t51.5 -24z" />
    <glyph glyph-name="r.subs" horiz-adv-x="272" 
d="M47 -84v276q0 40 -1 61h105v-14q0 -20 -1 -31h1q25 54 89 54q9 0 19 -2l-1 -101q-10 3 -24 3q-45 0 -61.5 -27t-16.5 -95v-124h-109z" />
    <glyph glyph-name="s.subs" horiz-adv-x="359" 
d="M178 -92q-137 0 -159 99l98 18q14 -44 63 -44q47 0 47 30q0 12 -9.5 19t-34.5 13l-39 9q-58 13 -86 35.5t-28 67.5q0 50 40 78t108 28q127 0 149 -95l-95 -17q-9 39 -55 39q-40 0 -40 -26q0 -14 10.5 -21t37.5 -13l38 -9q57 -14 85 -37.5t28 -66.5q0 -53 -42 -80
t-116 -27z" />
    <glyph glyph-name="t.subs" horiz-adv-x="264" 
d="M231 -84h-121q-21 12 -29 36t-8 74v143h-54v84h54v92h110v-92h62v-84h-62v-114q0 -61 11.5 -85.5t36.5 -33.5v-20z" />
    <glyph glyph-name="u.subs" horiz-adv-x="418" 
d="M166 -92q-123 0 -123 139v206h111v-180q0 -76 51 -76q55 0 55 77v179h111v-283q0 -34 1 -54h-107v14q0 13 1 24h-1q-31 -46 -99 -46z" />
    <glyph glyph-name="v.subs" horiz-adv-x="369" 
d="M124 -84l-118 337h113l31 -113q6 -19 16 -59.5t18 -69.5h2l35 129l30 113h113q-70 -193 -121 -337h-119z" />
    <glyph glyph-name="w.subs" horiz-adv-x="565" 
d="M106 -84l-99 337h112l27 -119q21 -99 24 -113h2q11 64 23 110l30 122h116l30 -121q9 -37 23 -111h2q15 77 24 113l27 119h111l-100 -337h-125l-28 117q-2 8 -23 113h-2q-15 -85 -23 -113l-28 -117h-123z" />
    <glyph glyph-name="x.subs" horiz-adv-x="371" 
d="M2 -84l121 173l-116 164h126l53 -89h1l52 89h121l-112 -164l123 -173h-125l-61 96h-1l-61 -96h-121z" />
    <glyph glyph-name="y.subs" horiz-adv-x="373" 
d="M72 -207q-23 0 -31 2l-9 82q11 -1 32 -1q31 0 46 7t23 31l-128 339h119l32 -115q13 -42 31 -119h2q6 31 30 119l31 115h118l-135 -360q-22 -61 -60 -80.5t-101 -19.5z" />
    <glyph glyph-name="z.subs" horiz-adv-x="354" 
d="M27 -84v77l95 106l61 66h-30h-120v88h287v-78l-74 -84q-13 -15 -39.5 -44t-40.5 -44h161v-87h-300z" />
    <glyph glyph-name="bracketleft.sups" horiz-adv-x="242" 
d="M55 299v572h162v-67h-69q1 -15 1 -44v-350q0 -28 -1 -43h69v-68h-162z" />
    <glyph glyph-name="bracketright.sups" horiz-adv-x="243" 
d="M25 300v67h70q-1 15 -1 43v351q0 28 1 43h-70v67h163v-571h-163z" />
    <glyph glyph-name="a.sups" horiz-adv-x="381" 
d="M146 388q-55 0 -88.5 27t-33.5 75q0 42 26 63.5t81 34.5q46 10 77 15q19 4 24 7t5 14q0 33 -47 33q-49 0 -54 -44l-102 5q4 52 46.5 85t111.5 33q146 0 146 -134v-193v-16h-87q-1 3 -1 16v12h-1q-33 -33 -103 -33zM172 459q31 0 49 15t18 45v10q0 13 2 15q-12 -4 -42 -9
l-30 -7q-23 -6 -32 -13t-9 -24q0 -32 44 -32z" />
    <glyph glyph-name="b.sups" horiz-adv-x="431" 
d="M250 385q-62 0 -95 47h-2q0 -4 0.5 -13t0.5 -15v-11h-108q1 15 1 48v419h110v-103q0 -41 -1 -64q38 46 97 46q68 0 110.5 -49.5t42.5 -128.5q0 -78 -43.5 -127t-112.5 -49zM226 472q32 0 51 24.5t19 64.5t-18.5 64.5t-51.5 24.5t-52 -24.5t-19 -64.5t19 -64.5t52 -24.5z
" />
    <glyph glyph-name="c.sups" horiz-adv-x="380" 
d="M201 385q-80 0 -128 49t-48 127q0 79 49.5 128.5t128.5 49.5q61 0 103.5 -30t56.5 -82l-100 -20q-14 44 -60 44q-33 0 -50.5 -24t-17.5 -66q0 -89 69 -89q45 0 60 43l99 -21q-15 -49 -57.5 -79t-104.5 -30z" />
    <glyph glyph-name="d.sups" horiz-adv-x="431" 
d="M181 385q-70 0 -113 48.5t-43 127.5t42.5 128.5t110.5 49.5q63 0 101 -44v73v92h105v-419v-48h-102v10v29h-1q-35 -47 -100 -47zM204 472q33 0 52.5 24.5t19.5 64.5t-19.5 64.5t-52.5 24.5q-32 0 -51 -24.5t-19 -64.5t19 -64.5t51 -24.5z" />
    <glyph glyph-name="e.sups" horiz-adv-x="399" 
d="M205 385q-81 0 -130.5 47.5t-49.5 128.5q0 79 49 128.5t130 49.5q83 0 126.5 -52.5t43.5 -141.5v-10h-245q3 -32 24 -51t54 -19q47 0 79 41l88 -30q-50 -91 -169 -91zM130 601h139q-1 29 -18.5 46.5t-48.5 17.5t-49.5 -17.5t-22.5 -46.5z" />
    <glyph glyph-name="f.sups" horiz-adv-x="255" 
d="M69 393v254h-44v83h44v23q0 62 29 86.5t94 24.5q37 0 46 -3l-2 -81q-10 3 -24 3q-34 0 -34 -31v-22h58v-83h-57v-254h-110z" />
    <glyph glyph-name="g.sups" horiz-adv-x="427" 
d="M198 266q-125 0 -169 89l88 35q27 -41 83 -41q38 0 55.5 17t19.5 56q0 16 1 24h-2q-35 -44 -97 -44q-66 0 -109 47.5t-43 119.5q0 73 43 121t109 48q65 0 99 -45h1q-1 7 -1 21v16h105q-1 -21 -1 -60v-245q0 -81 -49 -120t-133 -39zM205 484q32 0 51 24t19 61t-19 60.5
t-51 23.5q-33 0 -52.5 -23.5t-19.5 -60.5t19.5 -61t52.5 -24z" />
    <glyph glyph-name="h.sups" horiz-adv-x="420" 
d="M47 393v467h111v-117q0 -37 -1 -46h1q31 42 97 42q122 0 122 -142v-204h-110v165q0 50 -12 70.5t-41 20.5q-56 0 -56 -84v-172h-111z" />
    <glyph glyph-name="i.sups" horiz-adv-x="205" 
d="M47 393v337h111v-337h-111zM47 771v89h111v-89h-111z" />
    <glyph glyph-name="j.sups" horiz-adv-x="205" 
d="M39 271q-30 0 -43 2l2 84q3 -1 11 -1q21 0 29.5 10.5t8.5 35.5v328h111v-341q0 -66 -28.5 -92t-90.5 -26zM47 771v89h111v-89h-111z" />
    <glyph glyph-name="k.sups" horiz-adv-x="398" 
d="M47 393v467h111v-165q0 -15 -0.5 -48.5t-0.5 -53.5q13 17 109 137h127l-132 -153l141 -184h-131l-80 121l-33 -38v-83h-111z" />
    <glyph glyph-name="l.sups" horiz-adv-x="205" 
d="M47 393v467h111v-467h-111z" />
    <glyph glyph-name="m.sups" horiz-adv-x="632" 
d="M47 393v279q0 35 -1 58h107v-12q0 -15 -1 -28h1q29 49 96 49q69 0 101 -54q39 54 114 54q125 0 125 -148v-198h-108v175q0 44 -12.5 62t-39.5 18q-57 0 -57 -81v-174h-109v175q0 43 -12.5 61.5t-39.5 18.5q-32 0 -43.5 -25t-11.5 -81v-149h-109z" />
    <glyph glyph-name="o.sups" horiz-adv-x="409" 
d="M205 385q-81 0 -131 49t-50 127q0 80 50 129t131 49t130.5 -49.5t49.5 -128.5q0 -78 -49.5 -127t-130.5 -49zM205 472q71 0 71 89q0 41 -18.5 65.5t-52.5 24.5t-53 -24.5t-19 -65.5q0 -42 18.5 -65.5t53.5 -23.5z" />
    <glyph glyph-name="p.sups" horiz-adv-x="431" 
d="M47 273v396q0 44 -1 61h109v-12v-25q38 46 97 46q68 0 111 -49.5t43 -127.5q0 -79 -43.5 -128t-112.5 -49q-59 0 -92 43h-2q0 -6 0.5 -18.5t0.5 -19.5v-117h-110zM226 472q32 0 51 24.5t19 64.5t-18.5 64.5t-51.5 24.5t-52.5 -24.5t-19.5 -64.5t19.5 -64.5t52.5 -24.5z
" />
    <glyph glyph-name="q.sups" horiz-adv-x="430" 
d="M273 273v120q0 5 0.5 17t0.5 18h-1q-33 -43 -92 -43q-70 0 -113 49t-43 127q0 79 42.5 128.5t110.5 49.5q60 0 98 -46v25v12h108q-1 -16 -1 -65v-392h-110zM205 472q33 0 52 24.5t19 64.5t-19 64.5t-52 24.5t-51.5 -24t-18.5 -65t18.5 -65t51.5 -24z" />
    <glyph glyph-name="r.sups" horiz-adv-x="272" 
d="M47 393v276q0 40 -1 61h105v-14q0 -20 -1 -31h1q25 54 89 54q9 0 19 -2l-1 -101q-10 3 -24 3q-45 0 -61.5 -27t-16.5 -95v-124h-109z" />
    <glyph glyph-name="s.sups" horiz-adv-x="359" 
d="M178 385q-137 0 -159 99l98 18q14 -44 63 -44q47 0 47 30q0 12 -9.5 19t-34.5 13l-39 9q-58 13 -86 35.5t-28 67.5q0 50 40 78t108 28q127 0 149 -95l-95 -17q-9 39 -55 39q-40 0 -40 -26q0 -14 10.5 -21t37.5 -13l38 -9q57 -14 85 -37.5t28 -66.5q0 -53 -42 -80
t-116 -27z" />
    <glyph glyph-name="t.sups" horiz-adv-x="264" 
d="M231 393h-121q-21 12 -29 36t-8 74v143h-54v84h54v92h110v-92h62v-84h-62v-114q0 -61 11.5 -85.5t36.5 -33.5v-20z" />
    <glyph glyph-name="u.sups" horiz-adv-x="418" 
d="M166 385q-123 0 -123 139v206h111v-180q0 -76 51 -76q55 0 55 77v179h111v-283q0 -34 1 -54h-107v14q0 13 1 24h-1q-31 -46 -99 -46z" />
    <glyph glyph-name="v.sups" horiz-adv-x="369" 
d="M124 393l-118 337h113l31 -113q6 -18 16 -59t18 -70h2l35 129l30 113h113q-70 -193 -121 -337h-119z" />
    <glyph glyph-name="w.sups" horiz-adv-x="565" 
d="M106 393l-99 337h112l27 -119q21 -99 24 -113h2q11 64 23 110l30 122h116l30 -121q9 -37 23 -111h2q15 77 24 113l27 119h111l-100 -337h-125l-28 117q-2 8 -23 113h-2q-15 -85 -23 -113l-28 -117h-123z" />
    <glyph glyph-name="x.sups" horiz-adv-x="371" 
d="M2 393l121 173l-116 164h126l53 -89h1l52 89h121l-112 -164l123 -173h-125l-61 96h-1l-61 -96h-121z" />
    <glyph glyph-name="y.sups" horiz-adv-x="373" 
d="M72 270q-23 0 -31 2l-9 82q11 -1 32 -1q31 0 46 7t23 31l-128 339h119l32 -115q13 -42 31 -119h2q6 31 30 119l31 115h118l-135 -360q-22 -61 -60 -80.5t-101 -19.5z" />
    <glyph glyph-name="z.sups" horiz-adv-x="354" 
d="M27 393v77l95 106l61 66h-30h-120v88h287v-78l-74 -84q-13 -16 -39.5 -44.5t-40.5 -43.5h161v-87h-300z" />
    <glyph glyph-name="zero.numr" horiz-adv-x="416" 
d="M208 254q-176 0 -176 241q0 247 176 247t176 -247q0 -241 -176 -241zM208 349q62 0 62 146q0 73 -13.5 111t-48.5 38q-36 0 -49.5 -38t-13.5 -111q0 -71 14 -108.5t49 -37.5z" />
    <glyph glyph-name="one.numr" horiz-adv-x="357" 
d="M41 263v87h100v229h-111v80q56 0 85.5 16t34.5 57h100v-382h92v-87h-301z" />
    <glyph glyph-name="two.numr" horiz-adv-x="402" 
d="M31 263v89q29 27 137 116q47 41 65.5 65.5t18.5 54.5q0 22 -14 38t-39 16q-59 0 -61 -74l-109 2q1 79 46 125t127 46q78 0 121 -38t43 -107q0 -52 -24.5 -92t-73.5 -82q-19 -15 -35 -27.5t-30 -22.5l-21 -15v-1q13 1 48 1h26h113v-94h-338z" />
    <glyph glyph-name="three.numr" horiz-adv-x="402" 
d="M197 254q-80 0 -125.5 40.5t-49.5 115.5l111 6q5 -69 65 -69q28 0 43.5 16t15.5 42q0 60 -75 60h-25v82h22q66 0 66 53q0 21 -12.5 33t-33.5 12q-51 0 -53 -57l-112 7q4 67 47.5 106.5t117.5 39.5q73 0 115 -35t42 -93q0 -71 -62 -100q79 -34 79 -114q0 -67 -48 -106
t-128 -39z" />
    <glyph glyph-name="four.numr" horiz-adv-x="393" 
d="M216 263v89h-190v75l104 305h105l-98 -294h79v163h99v-163h63v-86h-63v-89h-99z" />
    <glyph glyph-name="five.numr" horiz-adv-x="397" 
d="M196 255q-75 0 -119.5 38t-52.5 105l111 4q4 -25 21 -41t42 -16q31 0 47 20.5t16 52.5q0 31 -17 50.5t-47 19.5q-36 0 -53 -30l-107 8l25 264h282v-93h-194q-2 -8 -4 -44l-4 -39q0 -1 1 -1q31 26 75 26q68 0 111 -43.5t43 -115.5q0 -75 -48 -120t-128 -45z" />
    <glyph glyph-name="six.numr" horiz-adv-x="414" 
d="M212 254q-87 0 -133.5 57t-46.5 163q0 124 48 195.5t138 71.5q70 0 109 -36.5t48 -95.5l-112 -6q-8 39 -48 39q-34 0 -51.5 -32.5t-17.5 -78.5q34 39 89 39q68 0 109 -41.5t41 -111.5q0 -71 -48 -117t-125 -46zM211 343q29 0 47 19.5t18 50.5t-17.5 50t-47.5 19
t-48.5 -19t-18.5 -49q0 -32 18.5 -51.5t48.5 -19.5z" />
    <glyph glyph-name="seven.numr" horiz-adv-x="367" 
d="M183 263h-125q51 185 167 373v1q-9 0 -25.5 -0.5t-24.5 -0.5h-155v94h328v-88q-92 -125 -165 -379z" />
    <glyph glyph-name="eight.numr" horiz-adv-x="415" 
d="M207 254q-82 0 -130 37.5t-48 103.5q0 79 82 117q-66 35 -66 104q0 56 44 91t118 35t118.5 -35t44.5 -91q0 -68 -67 -104q82 -38 82 -117q0 -66 -48 -103.5t-130 -37.5zM207 342q30 0 48 17.5t18 45.5q0 27 -18 43.5t-48 16.5q-29 0 -47 -17t-18 -43q0 -28 17.5 -45.5
t47.5 -17.5zM207 552q26 0 41.5 14.5t15.5 37.5q0 22 -15.5 37t-41.5 15q-25 0 -40 -15t-15 -37q0 -24 14.5 -38t40.5 -14z" />
    <glyph glyph-name="nine.numr" horiz-adv-x="415" 
d="M196 254q-71 0 -112 36.5t-47 95.5l112 5q9 -41 50 -41q34 0 51.5 33.5t17.5 81.5q-29 -39 -89 -39q-67 0 -108 41.5t-41 110.5q0 72 48 117.5t125 45.5q87 0 133.5 -58t46.5 -163q0 -124 -48 -195t-139 -71zM204 513q29 0 47 19t18 50q0 30 -18.5 49t-47.5 19
t-46.5 -18.5t-17.5 -48.5q0 -32 17.5 -51t47.5 -19z" />
    <glyph glyph-name="bracketleft.numr" horiz-adv-x="242" 
d="M55 169v572h162v-67h-69q1 -15 1 -44v-350q0 -28 -1 -43h69v-68h-162z" />
    <glyph glyph-name="bracketright.numr" horiz-adv-x="243" 
d="M25 170v67h70q-1 15 -1 43v351q0 28 1 43h-70v67h163v-571h-163z" />
    <glyph glyph-name="a.numr" horiz-adv-x="381" 
d="M146 258q-55 0 -88.5 27t-33.5 75q0 42 26 63.5t81 34.5q46 10 77 15q19 4 24 7t5 14q0 33 -47 33q-49 0 -54 -44l-102 5q4 52 46.5 85t111.5 33q146 0 146 -134v-193v-16h-87q-1 3 -1 16v12h-1q-33 -33 -103 -33zM172 329q31 0 49 15t18 45v10q0 13 2 15q-12 -4 -42 -9
l-30 -7q-23 -6 -32 -13t-9 -24q0 -32 44 -32z" />
    <glyph glyph-name="b.numr" horiz-adv-x="431" 
d="M250 255q-62 0 -95 47h-2q0 -4 0.5 -13t0.5 -15v-11h-108q1 15 1 48v419h110v-103q0 -41 -1 -64q38 46 97 46q68 0 110.5 -49.5t42.5 -128.5q0 -78 -43.5 -127t-112.5 -49zM226 342q32 0 51 24.5t19 64.5t-18.5 64.5t-51.5 24.5t-52 -24.5t-19 -64.5t19 -64.5t52 -24.5z
" />
    <glyph glyph-name="c.numr" horiz-adv-x="380" 
d="M201 255q-80 0 -128 49t-48 127q0 79 49.5 128.5t128.5 49.5q61 0 103.5 -30t56.5 -82l-100 -20q-14 44 -60 44q-33 0 -50.5 -24t-17.5 -66q0 -89 69 -89q45 0 60 43l99 -21q-15 -49 -57.5 -79t-104.5 -30z" />
    <glyph glyph-name="d.numr" horiz-adv-x="431" 
d="M181 255q-70 0 -113 48.5t-43 127.5t42.5 128.5t110.5 49.5q63 0 101 -44v73v92h105v-419v-48h-102v10v29h-1q-35 -47 -100 -47zM204 342q33 0 52.5 24.5t19.5 64.5t-19.5 64.5t-52.5 24.5q-32 0 -51 -24.5t-19 -64.5t19 -64.5t51 -24.5z" />
    <glyph glyph-name="e.numr" horiz-adv-x="399" 
d="M205 255q-81 0 -130.5 47.5t-49.5 128.5q0 79 49 128.5t130 49.5q83 0 126.5 -52.5t43.5 -141.5v-10h-245q3 -32 24 -51t54 -19q47 0 79 41l88 -30q-50 -91 -169 -91zM130 471h139q-1 29 -18.5 46.5t-48.5 17.5t-49.5 -17.5t-22.5 -46.5z" />
    <glyph glyph-name="f.numr" horiz-adv-x="255" 
d="M69 263v254h-44v83h44v23q0 62 29 86.5t94 24.5q37 0 46 -3l-2 -81q-10 3 -24 3q-34 0 -34 -31v-22h58v-83h-57v-254h-110z" />
    <glyph glyph-name="g.numr" horiz-adv-x="427" 
d="M198 136q-125 0 -169 89l88 35q27 -41 83 -41q38 0 55.5 17t19.5 56q0 16 1 24h-2q-35 -44 -97 -44q-66 0 -109 47.5t-43 119.5q0 73 43 121t109 48q65 0 99 -45h1q-1 7 -1 21v16h105q-1 -21 -1 -60v-245q0 -81 -49 -120t-133 -39zM205 354q32 0 51 24t19 61t-19 60.5
t-51 23.5q-33 0 -52.5 -23.5t-19.5 -60.5t19.5 -61t52.5 -24z" />
    <glyph glyph-name="h.numr" horiz-adv-x="420" 
d="M47 263v467h111v-117q0 -37 -1 -46h1q31 42 97 42q122 0 122 -142v-204h-110v165q0 50 -12 70.5t-41 20.5q-56 0 -56 -84v-172h-111z" />
    <glyph glyph-name="i.numr" horiz-adv-x="205" 
d="M47 263v337h111v-337h-111zM47 641v89h111v-89h-111z" />
    <glyph glyph-name="j.numr" horiz-adv-x="205" 
d="M39 141q-30 0 -43 2l2 84q3 -1 11 -1q21 0 29.5 10.5t8.5 35.5v328h111v-341q0 -66 -28.5 -92t-90.5 -26zM47 641v89h111v-89h-111z" />
    <glyph glyph-name="k.numr" horiz-adv-x="398" 
d="M47 263v467h111v-165q0 -15 -0.5 -48.5t-0.5 -53.5q13 17 109 137h127l-132 -153l141 -184h-131l-80 121l-33 -38v-83h-111z" />
    <glyph glyph-name="l.numr" horiz-adv-x="205" 
d="M47 263v467h111v-467h-111z" />
    <glyph glyph-name="m.numr" horiz-adv-x="632" 
d="M47 263v279q0 35 -1 58h107v-12q0 -15 -1 -28h1q29 49 96 49q69 0 101 -54q39 54 114 54q125 0 125 -148v-198h-108v175q0 44 -12.5 62t-39.5 18q-57 0 -57 -81v-174h-109v175q0 43 -12.5 61.5t-39.5 18.5q-32 0 -43.5 -25t-11.5 -81v-149h-109z" />
    <glyph glyph-name="n.numr" horiz-adv-x="420" 
d="M47 263v277q0 41 -1 60h102v-12q0 -15 -1 -26h1q32 47 108 47q121 0 121 -142v-204h-105v165q0 54 -13 75t-45 21q-62 0 -62 -89v-172h-105z" />
    <glyph glyph-name="o.numr" horiz-adv-x="409" 
d="M205 255q-81 0 -131 49t-50 127q0 80 50 129t131 49t130.5 -49.5t49.5 -128.5q0 -78 -49.5 -127t-130.5 -49zM205 342q71 0 71 89q0 41 -18.5 65.5t-52.5 24.5t-53 -24.5t-19 -65.5q0 -42 18.5 -65.5t53.5 -23.5z" />
    <glyph glyph-name="p.numr" horiz-adv-x="431" 
d="M47 143v396q0 44 -1 61h109v-12v-25q38 46 97 46q68 0 111 -49.5t43 -127.5q0 -79 -43.5 -128t-112.5 -49q-59 0 -92 43h-2q0 -6 0.5 -18.5t0.5 -19.5v-117h-110zM226 342q32 0 51 24.5t19 64.5t-18.5 64.5t-51.5 24.5t-52.5 -24.5t-19.5 -64.5t19.5 -64.5t52.5 -24.5z
" />
    <glyph glyph-name="q.numr" horiz-adv-x="430" 
d="M273 143v120q0 5 0.5 17t0.5 18h-1q-33 -43 -92 -43q-70 0 -113 49t-43 127q0 79 42.5 128.5t110.5 49.5q60 0 98 -46v25v12h108q-1 -16 -1 -65v-392h-110zM205 342q33 0 52 24.5t19 64.5t-19 64.5t-52 24.5t-51.5 -24t-18.5 -65t18.5 -65t51.5 -24z" />
    <glyph glyph-name="r.numr" horiz-adv-x="272" 
d="M47 263v276q0 40 -1 61h105v-14q0 -20 -1 -31h1q25 54 89 54q9 0 19 -2l-1 -101q-10 3 -24 3q-45 0 -61.5 -27t-16.5 -95v-124h-109z" />
    <glyph glyph-name="s.numr" horiz-adv-x="359" 
d="M178 255q-137 0 -159 99l98 18q14 -44 63 -44q47 0 47 30q0 12 -9.5 19t-34.5 13l-39 9q-58 13 -86 35.5t-28 67.5q0 50 40 78t108 28q127 0 149 -95l-95 -17q-9 39 -55 39q-40 0 -40 -26q0 -14 10.5 -21t37.5 -13l38 -9q57 -14 85 -37.5t28 -66.5q0 -53 -42 -80
t-116 -27z" />
    <glyph glyph-name="t.numr" horiz-adv-x="264" 
d="M231 263h-121q-21 12 -29 36t-8 74v143h-54v84h54v92h110v-92h62v-84h-62v-114q0 -61 11.5 -85.5t36.5 -33.5v-20z" />
    <glyph glyph-name="u.numr" horiz-adv-x="418" 
d="M166 255q-123 0 -123 139v206h111v-180q0 -76 51 -76q55 0 55 77v179h111v-283q0 -34 1 -54h-107v14q0 13 1 24h-1q-31 -46 -99 -46z" />
    <glyph glyph-name="v.numr" horiz-adv-x="369" 
d="M124 263l-118 337h113l31 -113q6 -18 16 -59t18 -70h2l35 129l30 113h113q-70 -193 -121 -337h-119z" />
    <glyph glyph-name="w.numr" horiz-adv-x="565" 
d="M106 263l-99 337h112l27 -119q21 -99 24 -113h2q11 64 23 110l30 122h116l30 -121q9 -37 23 -111h2q15 77 24 113l27 119h111l-100 -337h-125l-28 117q-2 8 -23 113h-2q-15 -85 -23 -113l-28 -117h-123z" />
    <glyph glyph-name="x.numr" horiz-adv-x="371" 
d="M2 263l121 173l-116 164h126l53 -89h1l52 89h121l-112 -164l123 -173h-125l-61 96h-1l-61 -96h-121z" />
    <glyph glyph-name="y.numr" horiz-adv-x="373" 
d="M72 140q-23 0 -31 2l-9 82q11 -1 32 -1q31 0 46 7t23 31l-128 339h119l32 -115q13 -42 31 -119h2q6 31 30 119l31 115h118l-135 -360q-22 -61 -60 -80.5t-101 -19.5z" />
    <glyph glyph-name="z.numr" horiz-adv-x="354" 
d="M27 263v77l95 106l61 66h-30h-120v88h287v-78l-74 -84q-13 -16 -39.5 -44t-40.5 -44h161v-87h-300z" />
    <glyph glyph-name="uni208D.numr" horiz-adv-x="231" 
d="M214 170l-81 -5q-103 136 -103 285q0 150 103 290l81 -5q-82 -133 -82 -284q0 -148 82 -281z" />
    <glyph glyph-name="uni208E.numr" horiz-adv-x="230" 
d="M99 165l-81 5q82 133 82 281q0 151 -82 284l81 5q102 -140 102 -290q0 -148 -102 -285z" />
    <glyph glyph-name="zero.dnom" horiz-adv-x="416" 
d="M208 -9q-176 0 -176 241q0 247 176 247t176 -247q0 -241 -176 -241zM208 86q62 0 62 146q0 73 -13.5 111t-48.5 38q-36 0 -49.5 -38t-13.5 -111q0 -71 14 -108.5t49 -37.5z" />
    <glyph glyph-name="one.dnom" horiz-adv-x="357" 
d="M41 0v87h100v229h-111v80q56 0 85.5 16t34.5 57h100v-382h92v-87h-301z" />
    <glyph glyph-name="two.dnom" horiz-adv-x="402" 
d="M31 0v89q29 27 137 116q47 41 65.5 65.5t18.5 54.5q0 22 -14 38t-39 16q-59 0 -61 -74l-109 2q1 79 46 125t127 46q78 0 121 -38t43 -107q0 -52 -24.5 -92t-73.5 -82q-19 -15 -35 -27.5t-30 -22.5l-21 -15v-1q13 1 48 1h26h113v-94h-338z" />
    <glyph glyph-name="three.dnom" horiz-adv-x="402" 
d="M197 -9q-80 0 -125.5 40.5t-49.5 115.5l111 6q5 -69 65 -69q28 0 43.5 16t15.5 42q0 60 -75 60h-25v82h22q66 0 66 53q0 21 -12.5 33t-33.5 12q-51 0 -53 -57l-112 7q4 67 47.5 106.5t117.5 39.5q73 0 115 -35t42 -93q0 -71 -62 -100q79 -34 79 -114q0 -67 -48 -106
t-128 -39z" />
    <glyph glyph-name="four.dnom" horiz-adv-x="393" 
d="M217 0v89h-190v75l104 305h105l-98 -294h79v163h99v-163h63v-86h-63v-89h-99z" />
    <glyph glyph-name="five.dnom" horiz-adv-x="397" 
d="M196 -8q-75 0 -119.5 38t-52.5 105l111 4q4 -25 21 -41t42 -16q31 0 47 20.5t16 52.5q0 31 -17 50.5t-47 19.5q-36 0 -53 -30l-107 8l25 264h282v-93h-194q-2 -8 -4 -44l-4 -39q0 -1 1 -1q31 26 75 26q68 0 111 -43.5t43 -115.5q0 -75 -48 -120t-128 -45z" />
    <glyph glyph-name="six.dnom" horiz-adv-x="414" 
d="M212 -9q-87 0 -133.5 57t-46.5 163q0 124 48 195.5t138 71.5q70 0 109 -36.5t48 -95.5l-112 -6q-8 39 -48 39q-34 0 -51.5 -32.5t-17.5 -78.5q34 39 89 39q68 0 109 -41.5t41 -111.5q0 -71 -48 -117t-125 -46zM211 80q29 0 47 19.5t18 50.5t-17.5 50t-47.5 19t-48.5 -19
t-18.5 -49q0 -32 18.5 -51.5t48.5 -19.5z" />
    <glyph glyph-name="seven.dnom" horiz-adv-x="367" 
d="M182 0h-125q51 185 167 373v1q-9 0 -25.5 -0.5t-24.5 -0.5h-155v94h328v-88q-92 -125 -165 -379z" />
    <glyph glyph-name="eight.dnom" horiz-adv-x="415" 
d="M207 -9q-82 0 -130 37.5t-48 103.5q0 79 82 117q-66 35 -66 104q0 56 44 91t118 35t118.5 -35t44.5 -91q0 -68 -67 -104q82 -38 82 -117q0 -66 -48 -103.5t-130 -37.5zM207 79q30 0 48 17.5t18 45.5q0 27 -18 43.5t-48 16.5q-29 0 -47 -17t-18 -43q0 -28 17.5 -45.5
t47.5 -17.5zM207 289q26 0 41.5 14.5t15.5 37.5q0 22 -15.5 37t-41.5 15q-25 0 -40 -14.5t-15 -37.5q0 -24 14.5 -38t40.5 -14z" />
    <glyph glyph-name="nine.dnom" horiz-adv-x="415" 
d="M196 -9q-71 0 -112 36.5t-47 95.5l112 5q9 -41 50 -41q34 0 51.5 33.5t17.5 81.5q-29 -39 -89 -39q-67 0 -108 41.5t-41 110.5q0 72 48 117.5t125 45.5q87 0 133.5 -58t46.5 -163q0 -124 -48 -195t-139 -71zM204 250q29 0 47 19t18 50q0 30 -18.5 49t-47.5 19
t-46.5 -18.5t-17.5 -48.5q0 -32 17.5 -51t47.5 -19z" />
    <glyph glyph-name="bracketleft.dnom" horiz-adv-x="242" 
d="M55 -94v572h162v-67h-69q1 -15 1 -44v-350q0 -28 -1 -43h69v-68h-162z" />
    <glyph glyph-name="bracketright.dnom" horiz-adv-x="243" 
d="M25 -93v67h70q-1 15 -1 43v351q0 28 1 43h-70v67h163v-571h-163z" />
    <glyph glyph-name="a.dnom" horiz-adv-x="381" 
d="M146 -5q-55 0 -88.5 27t-33.5 75q0 42 26 63.5t81 34.5q46 10 77 15q19 4 24 7t5 14q0 33 -47 33q-49 0 -54 -44l-102 5q4 52 46.5 85t111.5 33q146 0 146 -134v-193v-16h-87q-1 3 -1 16v12h-1q-33 -33 -103 -33zM172 66q31 0 49 15t18 45v10q0 13 2 15q-12 -4 -42 -9
l-30 -7q-23 -6 -32 -13t-9 -24q0 -32 44 -32z" />
    <glyph glyph-name="b.dnom" horiz-adv-x="431" 
d="M250 -8q-62 0 -95 47h-2q0 -4 0.5 -13t0.5 -15v-11h-108q1 15 1 48v419h110v-103q0 -41 -1 -64q38 46 97 46q68 0 110.5 -49.5t42.5 -128.5q0 -78 -43.5 -127t-112.5 -49zM226 79q32 0 51 24.5t19 64.5t-18.5 64.5t-51.5 24.5t-52 -24.5t-19 -64.5t19 -64.5t52 -24.5z
" />
    <glyph glyph-name="c.dnom" horiz-adv-x="380" 
d="M201 -8q-80 0 -128 49t-48 127q0 80 49.5 129t128.5 49q61 0 103.5 -30t56.5 -82l-100 -20q-14 44 -60 44q-33 0 -50.5 -24t-17.5 -66q0 -89 69 -89q45 0 60 43l99 -21q-15 -49 -57.5 -79t-104.5 -30z" />
    <glyph glyph-name="d.dnom" horiz-adv-x="431" 
d="M181 -8q-70 0 -113 48.5t-43 127.5t42.5 128.5t110.5 49.5q63 0 101 -44v73v92h105v-419v-48h-102v10v29h-1q-35 -47 -100 -47zM204 79q33 0 52.5 24.5t19.5 64.5t-19.5 64.5t-52.5 24.5q-32 0 -51 -24.5t-19 -64.5t19 -64.5t51 -24.5z" />
    <glyph glyph-name="e.dnom" horiz-adv-x="399" 
d="M205 -8q-81 0 -130.5 47.5t-49.5 128.5q0 79 49 128.5t130 49.5q83 0 126.5 -52.5t43.5 -141.5v-10h-245q3 -32 24 -51t54 -19q47 0 79 41l88 -30q-50 -91 -169 -91zM130 208h139q-1 29 -18.5 46.5t-48.5 17.5t-49.5 -17.5t-22.5 -46.5z" />
    <glyph glyph-name="f.dnom" horiz-adv-x="255" 
d="M69 0v254h-44v83h44v23q0 62 29 86.5t94 24.5q37 0 46 -3l-2 -81q-10 3 -24 3q-34 0 -34 -31v-22h58v-83h-57v-254h-110z" />
    <glyph glyph-name="g.dnom" horiz-adv-x="427" 
d="M198 -127q-125 0 -169 89l88 35q27 -41 83 -41q38 0 55.5 17t19.5 56q0 16 1 24h-2q-35 -44 -97 -44q-66 0 -109 47.5t-43 119.5q0 73 43 121t109 48q65 0 99 -45h1q-1 7 -1 21v16h105q-1 -21 -1 -60v-245q0 -81 -49 -120t-133 -39zM205 91q32 0 51 24t19 61t-19 60.5
t-51 23.5q-33 0 -52.5 -23.5t-19.5 -60.5q0 -38 19.5 -61.5t52.5 -23.5z" />
    <glyph glyph-name="h.dnom" horiz-adv-x="420" 
d="M47 0v467h111v-117q0 -37 -1 -46h1q31 42 97 42q122 0 122 -142v-204h-110v165q0 50 -12 70.5t-41 20.5q-56 0 -56 -84v-172h-111z" />
    <glyph glyph-name="i.dnom" horiz-adv-x="205" 
d="M47 0v337h111v-337h-111zM47 378v89h111v-89h-111z" />
    <glyph glyph-name="j.dnom" horiz-adv-x="205" 
d="M39 -122q-30 0 -43 2l2 84q3 -1 11 -1q21 0 29.5 10.5t8.5 35.5v328h111v-341q0 -66 -28.5 -92t-90.5 -26zM47 378v89h111v-89h-111z" />
    <glyph glyph-name="k.dnom" horiz-adv-x="398" 
d="M46 0v467h111v-165q0 -15 -0.5 -48.5t-0.5 -53.5q13 17 109 137h127l-132 -153l141 -184h-131l-80 121l-33 -38v-83h-111z" />
    <glyph glyph-name="l.dnom" horiz-adv-x="205" 
d="M47 0v467h111v-467h-111z" />
    <glyph glyph-name="m.dnom" horiz-adv-x="632" 
d="M47 0v279q0 35 -1 58h107v-12q0 -15 -1 -28h1q29 49 96 49q69 0 101 -54q39 54 114 54q125 0 125 -148v-198h-108v175q0 44 -12.5 62t-39.5 18q-57 0 -57 -81v-174h-109v175q0 43 -12.5 61.5t-39.5 18.5q-32 0 -43.5 -25.5t-11.5 -80.5v-149h-109z" />
    <glyph glyph-name="n.dnom" horiz-adv-x="420" 
d="M47 0v277q0 41 -1 60h102v-12q0 -15 -1 -26h1q32 47 108 47q121 0 121 -142v-204h-105v165q0 54 -13 75t-45 21q-62 0 -62 -89v-172h-105z" />
    <glyph glyph-name="o.dnom" horiz-adv-x="409" 
d="M205 -8q-81 0 -131 49t-50 127q0 80 50 129t131 49t130.5 -49.5t49.5 -128.5q0 -78 -49.5 -127t-130.5 -49zM205 79q71 0 71 89q0 41 -18.5 65.5t-52.5 24.5t-53 -24.5t-19 -65.5q0 -42 18.5 -65.5t53.5 -23.5z" />
    <glyph glyph-name="p.dnom" horiz-adv-x="431" 
d="M47 -120v396q0 44 -1 61h109v-12v-25q38 46 97 46q68 0 111 -49.5t43 -127.5q0 -79 -43.5 -128t-112.5 -49q-59 0 -92 43h-2q0 -6 0.5 -18.5t0.5 -19.5v-117h-110zM226 79q32 0 51 24.5t19 64.5t-18.5 64.5t-51.5 24.5t-52.5 -24.5t-19.5 -64.5t19.5 -64.5t52.5 -24.5z
" />
    <glyph glyph-name="q.dnom" horiz-adv-x="430" 
d="M273 -120v120q0 5 0.5 17t0.5 18h-1q-33 -43 -92 -43q-70 0 -113 49t-43 127q0 79 42.5 128.5t110.5 49.5q60 0 98 -46v25v12h108q-1 -16 -1 -65v-392h-110zM205 79q33 0 52 24.5t19 64.5t-19 64.5t-52 24.5t-51.5 -24t-18.5 -65t18.5 -65t51.5 -24z" />
    <glyph glyph-name="r.dnom" horiz-adv-x="272" 
d="M47 0v276q0 40 -1 61h105v-14q0 -20 -1 -31h1q25 54 89 54q9 0 19 -2l-1 -101q-10 3 -24 3q-45 0 -61.5 -27t-16.5 -95v-124h-109z" />
    <glyph glyph-name="s.dnom" horiz-adv-x="359" 
d="M178 -8q-137 0 -159 99l98 18q14 -44 63 -44q47 0 47 30q0 12 -9.5 19t-34.5 13l-39 9q-58 13 -86 35.5t-28 67.5q0 50 40 78t108 28q127 0 149 -95l-95 -17q-9 39 -55 39q-40 0 -40 -26q0 -14 10.5 -21t37.5 -13l38 -9q57 -14 85 -37.5t28 -66.5q0 -53 -42 -80t-116 -27
z" />
    <glyph glyph-name="t.dnom" horiz-adv-x="264" 
d="M231 0h-121q-21 12 -29 36t-8 74v143h-54v84h54v92h110v-92h62v-84h-62v-114q0 -61 11.5 -85.5t36.5 -33.5v-20z" />
    <glyph glyph-name="u.dnom" horiz-adv-x="418" 
d="M166 -8q-123 0 -123 139v206h111v-180q0 -76 51 -76q55 0 55 77v179h111v-283q0 -34 1 -54h-107v14q0 13 1 24h-1q-31 -46 -99 -46z" />
    <glyph glyph-name="v.dnom" horiz-adv-x="369" 
d="M124 0l-118 337h113l31 -113q6 -19 16 -60t18 -69h2l35 129l30 113h113q-70 -193 -121 -337h-119z" />
    <glyph glyph-name="w.dnom" horiz-adv-x="565" 
d="M106 0l-99 337h112l27 -119q21 -99 24 -113h2q11 64 23 110l30 122h116l30 -121q9 -37 23 -111h2q15 76 24 113l27 119h111l-100 -337h-125l-28 117q-2 8 -23 113h-2q-15 -85 -23 -113l-28 -117h-123z" />
    <glyph glyph-name="x.dnom" horiz-adv-x="371" 
d="M2 0l121 173l-116 164h126l53 -89h1l52 89h121l-112 -164l123 -173h-125l-61 96h-1l-61 -96h-121z" />
    <glyph glyph-name="y.dnom" horiz-adv-x="373" 
d="M72 -123q-23 0 -31 2l-9 82q11 -1 32 -1q31 0 46 7t23 31l-128 339h119l32 -115q13 -42 31 -119h2q6 31 30 119l31 115h118l-135 -360q-22 -61 -60 -80.5t-101 -19.5z" />
    <glyph glyph-name="z.dnom" horiz-adv-x="354" 
d="M27 0v77l95 106l61 66h-30h-120v88h287v-78l-74 -84q-13 -15 -39.5 -44t-40.5 -44h161v-87h-300z" />
    <glyph glyph-name="uni208D.dnom" horiz-adv-x="231" 
d="M213 -93l-81 -5q-103 136 -103 285q0 150 103 290l81 -5q-82 -133 -82 -284q0 -148 82 -281z" />
    <glyph glyph-name="uni208E.dnom" horiz-adv-x="230" 
d="M100 -98l-81 5q82 133 82 281q0 151 -82 284l81 5q102 -139 102 -290q0 -149 -102 -285z" />
    <glyph glyph-name="space.frac" horiz-adv-x="59" 
 />
    <glyph glyph-name="zero.osf" horiz-adv-x="623" 
d="M311 -14q-265 0 -265 366q0 171 64 271t201 100q71 0 123.5 -27.5t83.5 -78.5t45.5 -117t14.5 -148q0 -366 -267 -366zM312 107q116 0 116 245q0 119 -26 182.5t-91 63.5q-64 0 -89.5 -64t-25.5 -184q0 -117 26.5 -180t89.5 -63z" />
    <glyph glyph-name="one.osf" horiz-adv-x="514" 
d="M56 0v114h155v375h-171v104q93 4 137 28.5t52 87.5h127v-595h142v-114h-442z" />
    <glyph glyph-name="two.osf" horiz-adv-x="591" 
d="M42 0v113q13 12 191 164q95 80 127 123t32 99q0 46 -25 73.5t-74 27.5q-110 0 -110 -134l-142 3q0 119 67.5 188t189.5 69q115 0 180 -58t65 -162q0 -80 -40.5 -140.5t-122.5 -127.5q-37 -30 -86 -68.5t-60 -47.5v-2q3 0 40 0.5t86 0.5h187v-121h-505z" />
    <glyph glyph-name="three.osf" horiz-adv-x="601" 
d="M294 -14q-121 0 -190 61.5t-74 173.5l144 8q7 -126 121 -126q53 0 84.5 30.5t31.5 76.5q0 50 -36.5 77.5t-100.5 27.5h-37v109q9 -1 28 -1q55 0 87.5 23t32.5 70q0 39 -23.5 62.5t-64.5 23.5q-103 0 -105 -108l-142 9q6 101 71.5 160.5t175.5 59.5q111 0 175 -52.5
t64 -137.5q0 -58 -29.5 -98t-76.5 -57q129 -47 129 -175q0 -99 -73 -158t-192 -59z" />
    <glyph glyph-name="four.osf" 
d="M338 0v140h-302v102l160 467h136l-154 -454h160v259h127v-259h109v-115h-109v-140h-127z" />
    <glyph glyph-name="five.osf" horiz-adv-x="591" 
d="M292 -14q-108 0 -177.5 58t-79.5 156l144 7q6 -46 37 -74t79 -28q56 0 86.5 35.5t30.5 93.5q0 57 -31.5 91.5t-85.5 34.5q-73 0 -103 -63l-139 12l36 400h426v-122h-311l-8 -88l-7 -67q53 47 134 47q104 0 169 -66.5t65 -175.5q0 -113 -72.5 -182t-192.5 -69z" />
    <glyph glyph-name="six.osf" horiz-adv-x="618" 
d="M317 -14q-132 0 -202.5 89.5t-70.5 251.5q0 183 73 289.5t210 106.5q105 0 165 -54.5t70 -145.5l-144 -7q-13 84 -97 84q-65 0 -98 -59t-33 -144h2q49 68 154 68q103 0 166 -64.5t63 -169.5q0 -107 -71 -176t-187 -69zM316 102q51 0 83.5 35.5t32.5 89.5q0 55 -32.5 90
t-85.5 35q-56 0 -86.5 -34t-30.5 -90q0 -55 33 -90.5t86 -35.5z" />
    <glyph glyph-name="seven.osf" horiz-adv-x="542" 
d="M263 0h-162q83 307 258 581v2q-14 0 -41 -0.5t-43 -0.5h-252v127h495v-118q-163 -240 -255 -591z" />
    <glyph glyph-name="eight.osf" horiz-adv-x="618" 
d="M309 -14q-121 0 -194 57t-73 154q0 125 131 178q-107 53 -107 157q0 85 66.5 138t176.5 53t177 -53t67 -138q0 -104 -108 -156q131 -58 131 -179q0 -97 -73 -154t-194 -57zM309 100q54 0 87 30.5t33 78.5t-32.5 77.5t-87.5 29.5q-54 0 -87.5 -29.5t-33.5 -77.5
t33.5 -78.5t87.5 -30.5zM309 425q48 0 76.5 25.5t28.5 67.5q0 40 -28.5 66t-76.5 26t-76.5 -26t-28.5 -66q0 -42 28.5 -67.5t76.5 -25.5z" />
    <glyph glyph-name="nine.osf" horiz-adv-x="616" 
d="M293 -14q-108 0 -169.5 53.5t-70.5 146.5l144 6q6 -39 31 -62t66 -23q58 0 94.5 57t36.5 152h-2q-53 -69 -152 -69q-102 0 -165 64t-63 169q0 106 70 174.5t185 68.5q132 0 202.5 -89t70.5 -254q0 -188 -70.5 -291t-207.5 -103zM301 361q54 0 86 34t32 88t-32.5 88.5
t-85.5 34.5q-52 0 -84.5 -34t-32.5 -88t32 -88.5t85 -34.5z" />
    <glyph glyph-name="uni2007.osf" horiz-adv-x="225" 
 />
    <glyph glyph-name="zero.tf" 
d="M295 -14q-271 0 -271 376q0 175 65.5 278.5t204.5 103.5q72 0 125.5 -28.5t85 -81t47 -120t15.5 -152.5q0 -176 -65.5 -276t-206.5 -100zM296 106q65 0 92 65.5t27 189.5q0 126 -26.5 191.5t-93.5 65.5t-94 -66t-27 -193q0 -122 28 -187.5t94 -65.5z" />
    <glyph glyph-name="one.tf" 
d="M91 0v115h157v390h-173v104q94 4 138.5 29.5t53.5 91.5h127v-615h145v-115h-448z" />
    <glyph glyph-name="two.tf" 
d="M36 0v113q57 54 213 183q85 69 116.5 114.5t31.5 102.5q0 45 -27.5 74.5t-76.5 29.5q-112 0 -117 -136l-141 3q0 117 70.5 188.5t190.5 71.5q117 0 184 -59t67 -164q0 -83 -46.5 -149t-136.5 -140q-38 -31 -82.5 -64.5t-57.5 -44.5v-3q10 0 50 0.5t71 0.5h206v-121h-515z
" />
    <glyph glyph-name="three.tf" 
d="M289 -14q-122 0 -192 63t-75 178l146 5q3 -60 33.5 -94.5t88.5 -34.5q55 0 86 30.5t31 79.5q0 53 -37 82t-101 29h-38v112h29q55 0 88 24t33 73q0 40 -24 64t-65 24q-104 0 -106 -111l-143 9q6 103 72 164t177 61q113 0 177 -54t64 -141q0 -59 -29.5 -100.5t-77.5 -59.5
q131 -46 131 -180q0 -101 -73.5 -162t-194.5 -61z" />
    <glyph glyph-name="four.tf" 
d="M341 0v141h-309v108l166 481h138l-159 -472h164v270h130v-270h109v-117h-109v-141h-130z" />
    <glyph glyph-name="five.tf" 
d="M292 -14q-115 0 -182.5 58t-79.5 159l144 8q10 -48 40 -77.5t81 -29.5q58 0 89 37.5t31 99.5q0 60 -31 95.5t-85 35.5q-79 0 -111 -68l-138 15l36 411h431v-122h-318l-8 -94l-7 -73q58 50 139 50q106 0 172 -69t66 -179q0 -116 -73.5 -186.5t-195.5 -70.5z" />
    <glyph glyph-name="six.tf" 
d="M305 -14q-135 0 -207 91.5t-72 257.5q0 190 74.5 299.5t214.5 109.5q103 0 164.5 -56.5t74.5 -147.5l-145 -6q-20 86 -98 86q-65 0 -101 -60t-38 -156h3q57 74 159 74q105 0 169 -67t64 -174q0 -109 -72.5 -180t-189.5 -71zM304 101q53 0 86 37.5t33 95.5t-32.5 93.5
t-88.5 35.5t-89.5 -35.5t-33.5 -93.5t34.5 -95.5t90.5 -37.5z" />
    <glyph glyph-name="seven.tf" 
d="M284 0h-162q40 149 110 307.5t156 292.5v2q-16 0 -45 -0.5t-44 -0.5h-257v129h503v-119q-78 -116 -147.5 -282t-113.5 -329z" />
    <glyph glyph-name="eight.tf" 
d="M295 -14q-124 0 -198 58.5t-74 157.5q0 129 134 182q-110 57 -110 163q0 87 68 142t180 55q111 0 178.5 -55.5t67.5 -141.5q0 -106 -110 -163q136 -54 136 -182q0 -99 -75.5 -157.5t-196.5 -58.5zM295 98q56 0 90 32t34 84q0 51 -33.5 82t-90.5 31q-59 0 -93 -31t-34 -82
q0 -52 34.5 -84t92.5 -32zM295 435q51 0 79.5 26.5t28.5 71.5q0 43 -29 69.5t-79 26.5q-52 0 -81.5 -26.5t-29.5 -69.5q0 -45 29.5 -71.5t81.5 -26.5z" />
    <glyph glyph-name="nine.tf" 
d="M280 -14q-112 0 -172 54.5t-73 150.5l143 6q19 -90 103 -90q59 0 97.5 60.5t38.5 162.5h-2q-53 -74 -159 -74q-104 0 -167 65t-63 173t71.5 179t187.5 71q134 0 205.5 -92.5t71.5 -261.5q0 -191 -72 -297.5t-210 -106.5zM288 369q56 0 89 35.5t33 92.5q0 58 -33.5 93.5
t-88.5 35.5q-56 0 -89.5 -35t-33.5 -92q0 -58 33.5 -94t89.5 -36z" />
    <glyph glyph-name="uni2007.tf" 
 />
    <glyph glyph-name="zero.tosf" 
d="M294 -14q-265 0 -265 366q0 171 64 271t201 100q71 0 123.5 -27.5t83.5 -78.5t45.5 -117t14.5 -148q0 -366 -267 -366zM295 107q116 0 116 245q0 119 -26 182.5t-91 63.5q-64 0 -89.5 -64t-25.5 -184q0 -117 26.5 -180t89.5 -63z" />
    <glyph glyph-name="one.tosf" 
d="M93 0v114h155v375h-171v104q93 4 137 28.5t52 87.5h127v-595h142v-114h-442z" />
    <glyph glyph-name="two.tosf" 
d="M42 0v113q13 12 191 164q95 80 127 123t32 99q0 46 -25 73.5t-74 27.5q-110 0 -110 -134l-142 3q0 119 67.5 188t189.5 69q115 0 180 -58t65 -162q0 -80 -40.5 -140.5t-122.5 -127.5q-37 -30 -86 -68.5t-60 -47.5v-2q3 0 40 0.5t86 0.5h187v-121h-505z" />
    <glyph glyph-name="three.tosf" 
d="M289 -14q-121 0 -190 61.5t-74 173.5l144 8q7 -126 121 -126q53 0 84.5 30.5t31.5 76.5q0 50 -36.5 77.5t-100.5 27.5h-37v109q9 -1 28 -1q55 0 87.5 23t32.5 70q0 39 -23.5 62.5t-64.5 23.5q-103 0 -105 -108l-142 9q6 101 71.5 160.5t175.5 59.5q111 0 175 -52.5
t64 -137.5q0 -58 -29.5 -98t-76.5 -57q129 -47 129 -175q0 -99 -73 -158t-192 -59z" />
    <glyph glyph-name="four.tosf" 
d="M338 0v140h-302v102l160 467h136l-154 -454h160v259h127v-259h109v-115h-109v-140h-127z" />
    <glyph glyph-name="five.tosf" 
d="M291 -14q-108 0 -177.5 58t-79.5 156l144 7q6 -46 37 -74t79 -28q56 0 86.5 35.5t30.5 93.5q0 57 -31.5 91.5t-85.5 34.5q-73 0 -103 -63l-139 12l36 400h426v-122h-311l-8 -88l-7 -67q53 47 134 47q104 0 169 -66.5t65 -175.5q0 -113 -72.5 -182t-192.5 -69z" />
    <glyph glyph-name="six.tosf" 
d="M303 -14q-132 0 -202.5 89.5t-70.5 251.5q0 183 73 289.5t210 106.5q105 0 165 -54.5t70 -145.5l-144 -7q-13 84 -97 84q-65 0 -98 -59t-33 -144h2q49 68 154 68q103 0 166 -64.5t63 -169.5q0 -107 -71 -176t-187 -69zM302 102q51 0 83.5 35.5t32.5 89.5q0 55 -32.5 90
t-85.5 35q-56 0 -86.5 -34t-30.5 -90q0 -55 33 -90.5t86 -35.5z" />
    <glyph glyph-name="seven.tosf" 
d="M286 0h-162q83 307 258 581v2q-14 0 -41 -0.5t-43 -0.5h-252v127h495v-118q-163 -240 -255 -591z" />
    <glyph glyph-name="eight.tosf" 
d="M295 -14q-121 0 -194 57t-73 154q0 125 131 178q-107 53 -107 157q0 85 66.5 138t176.5 53t177 -53t67 -138q0 -104 -108 -156q131 -58 131 -179q0 -97 -73 -154t-194 -57zM295 100q54 0 87 30.5t33 78.5t-32.5 77.5t-87.5 29.5q-54 0 -87.5 -29.5t-33.5 -77.5
t33.5 -78.5t87.5 -30.5zM295 425q48 0 76.5 25.5t28.5 67.5q0 40 -28.5 66t-76.5 26t-76.5 -26t-28.5 -66q0 -42 28.5 -67.5t76.5 -25.5z" />
    <glyph glyph-name="nine.tosf" 
d="M280 -14q-108 0 -169.5 53.5t-70.5 146.5l144 6q6 -39 31 -62t66 -23q58 0 94.5 57t36.5 152h-2q-53 -69 -152 -69q-102 0 -165 64t-63 169q0 106 70 174.5t185 68.5q132 0 202.5 -89t70.5 -254q0 -188 -70.5 -291t-207.5 -103zM288 361q54 0 86 34t32 88t-32.5 88.5
t-85.5 34.5q-52 0 -84.5 -34t-32.5 -88t32 -88.5t85 -34.5z" />
    <glyph glyph-name="uni2007.tosf" 
 />
    <glyph glyph-name="parenleft.case" horiz-adv-x="334" 
d="M310 -77l-108 -7q-162 210 -162 447t162 451l108 -7q-131 -209 -131 -443q0 -232 131 -441z" />
    <glyph glyph-name="parenright.case" horiz-adv-x="334" 
d="M132 -84l-108 7q131 209 131 441q0 234 -131 443l108 7q162 -214 162 -451t-162 -447z" />
    <glyph glyph-name="hyphen.case" horiz-adv-x="408" 
d="M61 301v128h286v-128h-286z" />
    <glyph glyph-name="at.case" horiz-adv-x="832" 
d="M441 -19q-180 0 -291 104.5t-111 274.5q0 165 113 275.5t283 110.5q156 0 258 -91t102 -232q0 -115 -63 -192.5t-147 -77.5q-69 0 -83 55q-50 -57 -125 -57q-72 0 -115 49t-43 130q0 95 56.5 162.5t141.5 67.5t118 -65h1q2 19 6 30l4 21h86l-46 -235q-7 -33 -7 -50
q0 -30 27 -30q43 0 75.5 54t32.5 129q0 116 -76 185.5t-202 69.5q-134 0 -222 -88.5t-88 -221.5q0 -137 89 -220.5t229 -83.5q123 0 227 66l46 -54q-116 -86 -276 -86zM399 236q50 0 80.5 42t30.5 102q0 43 -22 68t-61 25q-49 0 -80.5 -41.5t-31.5 -98.5q0 -44 22.5 -70.5
t61.5 -26.5z" />
    <glyph glyph-name="bracketleft.case" horiz-adv-x="347" 
d="M81 -82v894h239v-91h-113q1 -24 1 -69v-575q0 -44 -1 -68q19 1 52 1h61v-92h-239z" />
    <glyph glyph-name="bracketright.case" horiz-adv-x="351" 
d="M27 -82v92h63q34 0 51 -1q-1 23 -1 66v579q0 44 1 67h-114v91h243v-894h-243z" />
    <glyph glyph-name="grave.case" horiz-adv-x="366" 
d="M181 800l-118 132h169q24 -44 74 -132h-125z" />
    <glyph glyph-name="braceleft.case" horiz-adv-x="342" 
d="M301 -83h-61q-83 0 -112.5 33t-29.5 111v137q0 67 -13.5 93.5t-54.5 33.5v80q41 7 54.5 33.5t13.5 93.5v138q0 79 28.5 111.5t113.5 32.5h61v-91h-9q-40 0 -53.5 -20t-13.5 -66v-124q0 -74 -15.5 -103t-55.5 -44v-1q40 -17 55.5 -47t15.5 -104v-122q0 -47 13 -65.5
t53 -18.5h10v-91z" />
    <glyph glyph-name="bar.case" horiz-adv-x="286" 
d="M81 -80v887h124v-887h-124z" />
    <glyph glyph-name="braceright.case" horiz-adv-x="342" 
d="M41 -83v91h10q40 0 53 18.5t13 65.5v122q0 74 15.5 104t55.5 47v1q-40 15 -55.5 44t-15.5 103v124q0 46 -13.5 66t-53.5 20h-9v91h61q85 0 113.5 -32.5t28.5 -111.5v-138q0 -67 13.5 -93.5t54.5 -33.5v-80q-41 -7 -54.5 -33.5t-13.5 -93.5v-137q0 -78 -29.5 -111
t-112.5 -33h-61z" />
    <glyph glyph-name="exclamdown.case" horiz-adv-x="302" 
d="M79 0v304l15 229h114l15 -229v-304h-144zM78 588v142h146v-142h-146z" />
    <glyph glyph-name="brokenbar.case" horiz-adv-x="286" 
d="M81 463v345h124v-345h-124zM81 -79v345h124v-345h-124z" />
    <glyph glyph-name="dieresis.case" horiz-adv-x="376" 
d="M228 806v117h118v-117h-118zM34 806v117h117v-117h-117z" />
    <glyph glyph-name="guillemotleft.case" horiz-adv-x="521" 
d="M355 165l-108 196l108 197h129l-99 -197l99 -196h-129zM133 165l-108 196l108 197h129l-99 -197l99 -196h-129z" />
    <glyph glyph-name="uni00AD.case" horiz-adv-x="408" 
d="M61 301v128h286v-128h-286z" />
    <glyph glyph-name="macron.case" horiz-adv-x="334" 
d="M30 825v94h274v-94h-274z" />
    <glyph glyph-name="acute.case" horiz-adv-x="375" 
d="M191 800h-125q50 88 74 132h169z" />
    <glyph glyph-name="periodcentered.case" horiz-adv-x="278" 
d="M61 289v152h156v-152h-156z" />
    <glyph glyph-name="guillemotright.case" horiz-adv-x="521" 
d="M259 165l99 196l-99 197h129l108 -197l-108 -196h-129zM38 165l99 196l-99 197h129l108 -197l-108 -196h-129z" />
    <glyph glyph-name="questiondown.case" horiz-adv-x="558" 
d="M274 -16q-113 0 -178.5 57t-65.5 149q0 59 26 102t81 85l19 15q40 32 53.5 59.5t13.5 81.5h136q0 -75 -14.5 -117t-58.5 -80l-50 -45q-18 -15 -28 -25.5t-19 -29.5t-9 -42q0 -37 25.5 -60.5t72.5 -23.5q110 0 108 129l146 -6q0 -114 -67.5 -181.5t-190.5 -67.5zM217 588
v142h146v-142h-146z" />
    <glyph glyph-name="circumflex.case" horiz-adv-x="415" 
d="M26 800l101 132h161l102 -132h-121l-61 64h-1l-60 -64h-121z" />
    <glyph glyph-name="caron.case" horiz-adv-x="404" 
d="M122 598l-102 132h121q45 -49 62 -64l61 64h120l-101 -132h-161z" />
    <glyph glyph-name="breve.case" horiz-adv-x="350" 
d="M176 797q-64 0 -107 31.5t-57 91.5q13 3 82 16q21 -50 82 -50q59 0 82 50q63 -11 82 -16q-14 -60 -56.5 -91.5t-107.5 -31.5z" />
    <glyph glyph-name="dotaccent.case" horiz-adv-x="262" 
d="M70 806v117h122v-117h-122z" />
    <glyph glyph-name="ring.case" horiz-adv-x="325" 
d="M162 775q-45 0 -75.5 31.5t-30.5 76.5q0 44 31 75t75 31q45 0 76.5 -31t31.5 -75q0 -45 -31.5 -76.5t-76.5 -31.5zM162 840q17 0 30 12.5t13 30.5q0 17 -13 29t-30 12h-4q-16 -2 -27 -13.5t-11 -27.5q0 -18 12.5 -30.5t29.5 -12.5z" />
    <glyph glyph-name="tilde.case" horiz-adv-x="399" 
d="M268 802q-33 0 -60 13l-14 6q-45 19 -55 19q-27 0 -37 -37l-79 9q7 54 34.5 86.5t73.5 32.5q30 0 60 -13l14 -6q45 -19 55 -19q27 0 37 37l79 -9q-7 -54 -34.5 -86.5t-73.5 -32.5z" />
    <glyph glyph-name="hungarumlaut.case" horiz-adv-x="500" 
d="M235 800l78 132h160l-121 -132h-117zM25 800l73 132h161l-118 -132h-116z" />
    <glyph glyph-name="endash.case" horiz-adv-x="581" 
d="M61 305v119h459v-119h-459z" />
    <glyph glyph-name="emdash.case" horiz-adv-x="956" 
d="M61 305v119h834v-119h-834z" />
    <glyph glyph-name="uni2015.case" horiz-adv-x="956" 
d="M61 305v119h834v-119h-834z" />
    <glyph glyph-name="guilsinglleft.case" horiz-adv-x="299" 
d="M133 165l-108 196l108 197h129l-99 -197l99 -196h-129z" />
    <glyph glyph-name="guilsinglright.case" horiz-adv-x="299" 
d="M38 165l99 196l-99 197h129l108 -197l-108 -196h-129z" />
    <glyph glyph-name="zero.zero" horiz-adv-x="636" 
d="M318 -14q-271 0 -271 376q0 175 65.5 278.5t204.5 103.5q72 0 125.5 -28.5t85 -81t47 -120t15.5 -152.5q0 -176 -65.5 -276t-206.5 -100zM197 362q0 -83 11 -137l141 393q-18 5 -31 5q-67 0 -94 -66.5t-27 -194.5zM319 107q65 0 92 66t27 191q0 85 -11 139l-140 -392
q12 -4 32 -4z" />
    <glyph glyph-name="zero.osf.zero" horiz-adv-x="623" 
d="M311 -14q-265 0 -265 366q0 171 64 271t201 100q71 0 123.5 -27.5t83.5 -78.5t45.5 -117t14.5 -148q0 -366 -267 -366zM189 352q0 -95 13 -141l140 393q-17 5 -31 5q-68 0 -95 -66t-27 -191zM312 101q67 0 95 64.5t28 188.5q0 84 -13 142l-140 -391q11 -4 30 -4z" />
    <glyph glyph-name="zero.tf.zero" 
d="M295 -14q-271 0 -271 376q0 175 65.5 278.5t204.5 103.5q72 0 125.5 -28.5t85 -81t47 -120t15.5 -152.5q0 -176 -65.5 -276t-206.5 -100zM174 362q0 -83 11 -137l141 393q-18 5 -31 5q-67 0 -94 -66.5t-27 -194.5zM296 107q65 0 92 66t27 191q0 85 -11 139l-140 -392
q12 -4 32 -4z" />
    <glyph glyph-name="zero.tosf.zero" 
d="M294 -14q-265 0 -265 366q0 171 64 271t201 100q71 0 123.5 -27.5t83.5 -78.5t45.5 -117t14.5 -148q0 -366 -267 -366zM172 352q0 -95 13 -141l140 393q-17 5 -31 5q-68 0 -95 -66t-27 -191zM295 101q67 0 95 64.5t28 188.5q0 84 -13 142l-140 -391q11 -4 30 -4z" />
    <glyph glyph-name="plus.ss06" 
d="M232 12v192h-185v118h185v191h122v-191h187v-118h-187v-192h-122z" />
    <glyph glyph-name="equal.ss06" 
d="M52 302v115h484v-115h-484zM52 105v115h484v-115h-484z" />
    <glyph glyph-name="logicalnot.ss06" 
d="M408 78v149q0 40 1 63h-373v122h504v-334h-132z" />
    <glyph glyph-name="plusminus.ss06" 
d="M232 173v127h-168v122h168v134h125v-134h168v-122h-168v-127h-125zM64 1v121h461v-121h-461z" />
    <glyph glyph-name="multiply.ss06" 
d="M136 19l-85 85l159 159l-159 159l85 85l159 -160l158 159l85 -85l-158 -158l158 -159l-85 -84l-158 158z" />
    <glyph glyph-name="divide.ss06" 
d="M52 204v119h484v-119h-484zM294 -6q-32 0 -53.5 21t-21.5 53q0 31 21.5 53t53.5 22q31 0 53 -22t22 -53q0 -32 -22 -53t-53 -21zM294 385q-32 0 -53.5 21t-21.5 53q0 31 21.5 53t53.5 22q31 0 53 -22t22 -53q0 -32 -22 -53t-53 -21z" />
    <glyph glyph-name="minus.ss06" 
d="M52 201v123h484v-123h-484z" />
    <glyph glyph-name="infinity.ss06" horiz-adv-x="824" 
d="M216 80q-85 0 -129.5 53t-44.5 128q0 83 46.5 133t129.5 50q50 0 94.5 -25t100.5 -74q58 50 100.5 74.5t92.5 24.5q83 0 130 -50t47 -133q0 -75 -45 -128t-130 -53q-56 0 -100.5 27t-95.5 76q-52 -50 -96 -76.5t-100 -26.5zM224 200q20 0 42 10.5t35.5 20.5t37.5 31
q-25 20 -40 31.5t-37 21.5t-40 10q-27 0 -44 -17.5t-17 -44.5q0 -29 17 -46t46 -17zM600 200q29 0 46 17t17 46q0 27 -17 44.5t-44 17.5q-18 0 -40 -10t-37 -21.5t-40 -31.5q55 -46 80 -55q18 -7 35 -7z" />
    <glyph glyph-name="approxequal.ss06" 
d="M396 294q-10 0 -20 1.5t-16 3t-18.5 6t-15.5 5.5t-18 8t-16 8l-34 16q-40 19 -59 19q-44 0 -80 -61l-77 61q63 119 151 119q10 0 20 -1.5t16 -3t18.5 -6t15.5 -5.5t18 -8t16 -8l34 -16q40 -19 59 -19q44 0 80 61l77 -61q-63 -119 -151 -119zM396 39q-10 0 -20 1.5t-16 3
t-18.5 6t-15.5 5.5t-18 8t-16 8l-34 16q-40 19 -59 19q-44 0 -80 -61l-77 61q63 119 151 119q10 0 20 -1.5t16 -3t18.5 -6t15.5 -5.5t18 -8t16 -8l34 -16q40 -19 59 -19q44 0 80 61l77 -61q-63 -119 -151 -119z" />
    <glyph glyph-name="notequal.ss06" 
d="M193 -14h-124q9 15 33 56t37 64h-87v110h153l54 90h-207v110h273q18 32 70 118h124q-52 -86 -70 -118h87v-110h-153l-54 -90h207v-110h-273q-13 -23 -37 -64t-33 -56z" />
    <glyph glyph-name="x.ss20" 
d="M136 93l-85 85l159 159l-159 159l85 85l159 -160l158 159l85 -85l-158 -158l158 -159l-85 -84l-158 158z" />
    <glyph glyph-name="hyphen_greater" horiz-adv-x="820" 
d="M304 2l144 147q51 52 108 107v1q-79 -1 -187 -1h-329v139h328q108 0 188 -1v1q-17 16 -30 28.5t-34.5 35t-43.5 44.5l-144 147h187l153 -162q84 -90 156 -162q-72 -72 -156 -162l-153 -162h-187z" />
    <glyph glyph-name="less_hyphen" horiz-adv-x="820" 
d="M329 2l-153 162q-84 90 -156 162q72 72 156 162l153 162h187l-144 -147l-108 -108v-1q80 1 188 1h328v-139h-329q-108 0 -187 1v-1q57 -55 108 -107l144 -147h-187z" />
    </font>
</defs>
</svg>
