<?xml version="1.0" standalone="no"?>
<!DOCTYPE svg PUBLIC "-//W3C//DTD SVG 1.1//EN" "http://www.w3.org/Graphics/SVG/1.1/DTD/svg11.dtd" >
<svg xmlns="http://www.w3.org/2000/svg" xmlns:xlink="http://www.w3.org/1999/xlink" version="1.1">
<metadata>
Created by FontForge 20170731 at Mon Nov  2 20:41:05 2020
 By Aleksey,,,
Copyright (c) 2015 ParaType, Inc., ParaType Ltd. All rights reserved.
</metadata>
<defs>
<font id="KudryashevDisplay" horiz-adv-x="1060" >
  <font-face 
    font-family="Kudryashev Display"
    font-weight="400"
    font-stretch="normal"
    units-per-em="2048"
    panose-1="2 3 5 3 9 5 6 2 3 3"
    ascent="1577"
    descent="-471"
    x-height="985"
    cap-height="1481"
    bbox="-954 -727 2333 1989"
    underline-thickness="102"
    underline-position="-307"
    unicode-range="U+0020-FEFF"
  />
<missing-glyph horiz-adv-x="450" 
 />
    <glyph glyph-name="afii10017.var.accented" unicode="&#x410;`" horiz-adv-x="1427" 
d="M1427 0h-522v12h66q20 0 34 1.5t33 8t29 22t10 40.5q0 26 -104 330q-39 117 -64 190h-528l-72 -188q-3 -9 -20.5 -54.5t-25.5 -68.5t-20.5 -61.5t-18 -66.5t-5.5 -48q0 -86 76 -105h86v-12h-381v12h57q43 26 81.5 82t99.5 195.5t155 392.5q2 5 293 799h43l498 -1329
q24 -69 60 -104.5t110 -35.5h30v-12zM901 616l-258 709l-258 -709h516zM1028 1872q0 -39 -84 -90l-301 -187h-31l260 263q40 40 61.5 52.5t47.5 12.5q47 0 47 -51z" />
    <glyph glyph-name="afii10022.var.accented" unicode="&#x415;`" horiz-adv-x="1333" 
d="M94 1481h1112l21 -299h-13l-22 166q-33 59 -175.5 89.5t-326.5 30.5q-142 0 -186.5 -22.5t-44.5 -97.5v-566h123q83 0 148.5 5t107 12.5t71 20t44 23t22.5 27t9 26t1 26.5v41h12v-373h-12v47q0 23 -3 36.5t-24 34.5t-60.5 32.5t-120 20.5t-195.5 9h-123v-639
q0 -71 35.5 -95t101.5 -24q317 0 463 41q151 41 198 164l23 88h12l-55 -305h-1143v12h66q85 0 112 24.5t27 94.5v1219q0 73 -34 95.5t-105 22.5h-66v13zM1010 1872q0 -39 -84 -90l-301 -187h-31l260 263q40 40 61.5 52.5t47.5 12.5q47 0 47 -51z" />
    <glyph glyph-name="afii10026.var.accented" unicode="&#x418;`" horiz-adv-x="1740" 
d="M1647 0h-572v12h70q78 0 107.5 25t29.5 94v1186l-823 -1184q0 -72 24 -96.5t111 -24.5h72v-12h-572v12h66q86 0 112.5 26t26.5 93v1223q0 62 -27.5 88t-111.5 26h-66v13h572v-13h-72q-88 0 -111.5 -22t-23.5 -92v-1188l823 1182q0 68 -29.5 94t-107.5 26h-70v13h572v-13
h-66q-81 0 -110 -24t-29 -90v-1223q0 -70 27.5 -94.5t111.5 -24.5h66v-12zM1184 1872q0 -39 -84 -90l-301 -187h-31l260 263q40 40 61.5 52.5t47.5 12.5q47 0 47 -51z" />
    <glyph glyph-name="afii10032.var.accented" unicode="&#x41e;`" horiz-adv-x="1746" 
d="M1626 743q0 -98 -22 -198t-77.5 -205t-138 -185.5t-216.5 -132t-300 -51.5q-120 0 -223.5 27t-178.5 72.5t-136 108.5t-100 132t-65 145.5t-37 147.5t-11 139q0 72 12.5 145.5t40 149.5t68.5 145t102.5 129.5t136.5 105t175.5 70t215.5 25.5q161 0 292 -47t215.5 -123
t141.5 -178t81 -207t24 -215zM1450 743q0 164 -38 302t-110 239.5t-182 159t-248 57.5q-276 0 -425.5 -203.5t-149.5 -554.5q0 -149 36.5 -283.5t106 -241.5t181.5 -170.5t251 -63.5q141 0 253.5 63.5t182 171t106 241.5t36.5 283zM1163 1872q0 -39 -84 -90l-301 -187h-30
l260 263q40 40 61.5 52.5t46.5 12.5q47 0 47 -51z" />
    <glyph glyph-name="afii10037.var.accented" unicode="&#x423;`" horiz-adv-x="1507" 
d="M1507 1468h-53q-72 -23 -137 -139q-19 -33 -36.5 -69t-27.5 -57.5t-33 -73.5t-34 -78q-3 -7 -73 -168.5t-142 -317.5q-149 -322 -242 -456q-48 -67 -109.5 -102.5t-123.5 -35.5q-42 0 -77.5 7t-72.5 24.5t-58.5 54.5t-21.5 90q0 51 28.5 79t74.5 28q41 0 67.5 -22.5
t26.5 -65.5q0 -21 -10.5 -45t-10.5 -41q0 -32 24.5 -52t55.5 -20q30 0 54 5.5t63 31.5t76 72q29 36 106 182l-577 1049q-69 120 -191 120h-22v13h538v-13h-71q-43 0 -63.5 -16.5t-20.5 -40.5q0 -27 12 -51l479 -897q38 74 172 375q76 168 140.5 341.5t64.5 215.5q0 21 -7 36
t-15 22t-22.5 10.5t-21.5 4t-20 0.5h-74v13h385v-13zM1106 1872q0 -39 -84 -90l-301 -187h-31l260 263q40 40 61.5 52.5t47.5 12.5q47 0 47 -51z" />
    <glyph glyph-name="afii10045.var.accented" unicode="&#x42b;`" horiz-adv-x="2070" 
d="M1976 0h-569v12h70q73 0 104 25t31 94v1219q0 63 -29.5 90.5t-105.5 27.5h-70v13h569v-13h-69q-46 0 -73.5 -6.5t-41 -23t-17 -35.5t-3.5 -53v-1219q0 -68 25.5 -93.5t109.5 -25.5h69v-12zM459 1350v-504q155 59 307 59q127 0 225 -24.5t159.5 -64.5t101.5 -97.5
t55.5 -118t15.5 -131.5q0 -69 -17 -133t-59.5 -128t-107.5 -111.5t-169.5 -77t-236.5 -29.5q-45 0 -155 5t-152 5h-332v12h66q72 0 105.5 28t33.5 91v1219q0 64 -30.5 91t-108.5 27h-66v13h570v-13h-70q-79 0 -107 -27t-28 -91zM1147 461q0 432 -416 432q-133 0 -272 -59
v-773q108 -59 266 -59q186 0 304 124.5t118 334.5zM1298 1872q0 -39 -84 -90l-301 -187h-30l260 263q40 40 61.5 52.5t46.5 12.5q47 0 47 -51z" />
    <glyph glyph-name="afii10047.var.accented" unicode="&#x42d;`" horiz-adv-x="1490" 
d="M1370 797q0 -405 -195 -615.5t-544 -210.5q-227 0 -377 86.5t-150 206.5q0 63 33.5 93t79.5 30t71 -28t25 -64t-20.5 -73.5t-20.5 -63.5q0 -54 61 -95.5t140.5 -60t157.5 -18.5q82 0 152 16.5t122.5 44.5t95.5 69.5t72.5 87t51.5 101.5t35 108.5t21 112.5t10.5 109
t2.5 102v29h-236q-113 0 -173 -1t-159.5 -8.5t-201.5 -23.5v78q260 -33 534 -33h236v49q0 50 -5.5 104.5t-21 122t-39.5 129t-65 121t-93 103t-127 70t-165 26.5q-162 0 -300.5 -86.5t-191.5 -206.5q0 -5 -6 -46t-6 -46h-12l26 365h13l-2 -80q112 58 245 85t234 27
q137 0 251.5 -38.5t195 -105.5t136.5 -158t82.5 -195.5t26.5 -218.5zM934 1872q0 -39 -84 -90l-301 -187h-31l260 263q40 40 61.5 52.5t47.5 12.5q47 0 47 -51z" />
    <glyph glyph-name="afii10048.var.accented" unicode="&#x42e;`" horiz-adv-x="2422" 
d="M2302 743q0 -98 -22.5 -198t-79 -205t-140 -185.5t-218 -132t-300.5 -51.5q-165 0 -298 50t-217 129.5t-140.5 185.5t-79.5 212t-23 214h-325v-631q0 -70 29 -94.5t104 -24.5h70v-12h-568v12h68q80 0 108.5 24.5t28.5 94.5v1219q0 66 -29.5 92t-107.5 26h-68v13h568v-13
h-70q-76 0 -104.5 -24t-28.5 -94v-576h327q4 110 33 213t89 199.5t145 168.5t211 115t278 43q161 0 293 -47t217 -123t143 -178t82.5 -207t24.5 -215zM2126 743q0 163 -39 301.5t-112 240t-184 159t-249 57.5q-277 0 -429 -204t-152 -554q0 -118 23 -228.5t71 -207
t116 -168.5t163.5 -113.5t207.5 -41.5q113 0 209.5 41.5t164.5 113.5t116 168.5t71 207t23 228.5zM1421 1872q0 -39 -84 -90l-301 -187h-30l260 263q40 40 61.5 52.5t46.5 12.5q47 0 47 -51z" />
    <glyph glyph-name="afii10049.var.accented" unicode="&#x42f;`" horiz-adv-x="1513" 
d="M1417 0h-567v12h68q88 0 112.5 25t24.5 94v619q-140 -6 -233 -42.5t-163 -123.5q-13 -16 -24 -31.5t-23 -36.5l-18 -31.5t-19 -38t-15.5 -33.5t-17.5 -39.5t-16 -35.5q-27 -55 -41 -84t-40 -75t-44 -70t-46 -55t-54.5 -46t-60.5 -26t-72 -11q-37 0 -66 12t-45 29t-27 41
t-15 42.5t-5 39.5h13q4 -50 24 -88.5t59 -38.5q41 0 77 43.5t85 163.5q42 100 76 160q61 111 176.5 206t274.5 136v6q-1 0 -42 -2t-61 -2q-79 1 -151 16t-136 47.5t-111 80t-74 116t-27 151.5q0 34 6 66.5t22 70.5t40.5 71t66 64t94 53t128 35t165.5 13q68 0 223 -11
t221 -11h260v-13h-69q-80 0 -108 -26t-28 -92v-1219q0 -64 28 -91.5t108 -27.5h67v-12zM1055 762v674q-121 55 -269 55q-85 0 -159.5 -22.5t-132.5 -66t-91.5 -115t-33.5 -163.5q0 -182 101 -281.5t300 -99.5q30 0 172 9q61 3 113 10zM1069 1872q0 -39 -84 -90l-301 -187
h-31l260 263q40 40 61.5 52.5t47.5 12.5q47 0 47 -51z" />
    <glyph glyph-name="afii10023.var.accented" unicode="&#x401;`" horiz-adv-x="1380" 
d="M1159 1677q0 -40 -27.5 -68t-68.5 -28t-68.5 28t-27.5 68q0 42 28.5 69.5t67.5 27.5t67.5 -27.5t28.5 -69.5zM479 1677q0 -40 -27.5 -68t-68.5 -28t-68.5 28t-27.5 68q0 42 28.5 69.5t67.5 27.5t67.5 -27.5t28.5 -69.5zM946 1847q0 -39 -84 -90l-301 -186h-31l261 262
q40 40 61.5 52.5t46.5 12.5q47 0 47 -51zM98 1481h1112l21 -299h-12l-23 166q-33 59 -175.5 89.5t-326.5 30.5q-142 0 -186.5 -22.5t-44.5 -97.5v-566h123q83 0 148.5 5t107 12.5t71 20t44 23t22.5 27t9 26t1 26.5v41h12v-373h-12v47q0 23 -3 36.5t-24 34.5t-60.5 32.5
t-120 20.5t-195.5 9h-123v-639q0 -71 35.5 -95t101.5 -24q317 0 463 41q152 42 199 164l22 88h12l-55 -305h-1143v12h66q85 0 112 24.5t27 94.5v1219q0 73 -34 95.5t-105 22.5h-66v13z" />
    <glyph glyph-name="afii10065.var.accented" unicode="&#x430;`" horiz-adv-x="962" 
d="M868 14q27 0 49.5 28.5t32.5 80.5h13q-13 -81 -50.5 -113.5t-95.5 -32.5q-149 0 -149 222q-66 -71 -127 -118.5t-111.5 -68.5t-85 -28t-70.5 -7q-113 0 -171 57t-58 148q0 272 565 381l58 10v111q0 161 -56.5 237t-203.5 76q-69 0 -120.5 -27t-51.5 -81q0 -20 8 -40.5
t8 -37.5q0 -34 -20 -56t-58 -22q-31 0 -51.5 23t-20.5 59q0 77 92 136t226 59q78 0 141.5 -15.5t118.5 -50.5t86 -101t31 -159v-549q0 -121 71 -121zM668 217v344q-103 -19 -180.5 -43.5t-147 -64.5t-106.5 -101.5t-37 -142.5q0 -91 46 -134.5t119 -43.5q70 0 157.5 59
t148.5 127zM788 1442q0 -39 -83 -90l-302 -187h-30l260 262q41 41 62 53.5t46 12.5q47 0 47 -51z" />
    <glyph glyph-name="afii10070.var.accented" unicode="&#x435;`" horiz-adv-x="931" 
d="M498 1010q94 0 169 -37t120 -99t68.5 -136t25.5 -154h-678q0 -142 20.5 -248.5t51.5 -166.5t76.5 -96t86.5 -47.5t90 -11.5q204 0 332 203l10 -6q-137 -234 -381 -234q-58 0 -115.5 14.5t-117 51.5t-104 93t-73 146.5t-28.5 204.5q0 239 119.5 381t327.5 142zM203 596
h534q0 111 -26 199t-85.5 145t-144.5 57q-252 0 -278 -401zM801 1442q0 -39 -84 -90l-301 -187h-31l260 262q40 40 62 53t47 13q47 0 47 -51z" />
    <glyph glyph-name="afii10074.var.accented" unicode="&#x438;`" horiz-adv-x="1171" 
d="M1139 0h-437v12h39q61 0 83 21.5t22 75.5v710l-520 -667v-43q0 -52 20 -74.5t82 -22.5h41v-12h-436v12h59q59 0 82 22t23 75v768q0 54 -21 75t-84 21h-59v12h436v-12h-41q-63 0 -82.5 -21t-19.5 -75v-699l520 668v31q0 55 -19.5 75.5t-83.5 20.5h-41v12h437v-12h-58
q-64 0 -85 -20.5t-21 -75.5v-768q0 -54 21 -75.5t83 -21.5h60v-12zM907 1442q0 -39 -84 -90l-301 -187h-30l260 262q41 41 62 53.5t46 12.5q47 0 47 -51z" />
    <glyph glyph-name="afii10080.var.accented" unicode="&#x43e;`" 
d="M1010 492q0 -229 -136 -372t-344 -143q-209 0 -344 141.5t-135 373.5q0 251 132.5 384.5t346.5 133.5q105 0 191 -31t151.5 -92.5t101.5 -162t36 -232.5zM858 492q0 139 -27.5 241t-75 157.5t-103.5 81t-122 25.5q-53 0 -99 -15t-88.5 -51.5t-73 -93t-48.5 -144.5
t-18 -201q0 -139 27 -240t74.5 -156.5t103 -80.5t122.5 -25q66 0 122 25t103.5 80.5t75 156.5t27.5 240zM858 1442q0 -39 -84 -90l-301 -187h-31l260 262q40 40 62 53t47 13q47 0 47 -51z" />
    <glyph glyph-name="afii10085.var.accented" unicode="&#x443;`" horiz-adv-x="1077" 
d="M1077 973h-14q-43 0 -66 -18.5t-45 -57.5q-36 -78 -75 -180l-150 -414q-77 -205 -143 -364q-7 -17 -29 -71t-32.5 -78t-29 -63.5t-35.5 -67.5t-36 -52q-71 -88 -178 -88q-71 0 -114.5 34.5t-43.5 92.5q0 38 23.5 60t54.5 22q34 0 56 -17.5t22 -52.5q0 -10 -1 -24.5
t-1 -24t2 -15.5q10 -38 61 -38q54 0 105 63q74 98 163 340l-409 922q-9 22 -16 34.5t-22 28t-39.5 22.5t-59.5 7h-25v12h434v-12h-59q-76 0 -76 -60q0 -21 12 -49l328 -755q252 687 252 768q0 96 -82 96h-49v12h317v-12zM901 1442q0 -39 -84 -90l-301 -187h-31l260 262
q40 40 62 53t47 13q47 0 47 -51z" />
    <glyph glyph-name="afii10093.var.accented" unicode="&#x44b;`" horiz-adv-x="1452" 
d="M1419 0h-456v12h61q61 0 81.5 20.5t20.5 73.5v771q0 54 -20.5 75t-81.5 21h-61v12h456v-12h-61q-62 0 -82.5 -21.5t-20.5 -74.5v-771q0 -52 20.5 -73t82.5 -21h61v-12zM326 877v-279q90 29 221 29q83 0 149 -20t108 -52t69.5 -74t39 -84t11.5 -84q0 -49 -11.5 -93.5
t-40 -88.5t-71 -76t-110 -51.5t-152.5 -19.5q-62 0 -129 6q-152 10 -377 10v12h61q56 0 79.5 21t23.5 76v768q0 55 -22 75.5t-81 20.5h-61v12h456v-12h-61q-59 0 -80.5 -21t-21.5 -75zM772 313q0 40 -4.5 74.5t-22 78.5t-46.5 74.5t-83 52t-127 21.5q-84 0 -163 -28v-543
q73 -47 178 -47q131 0 199.5 84t68.5 233zM1018 1442q0 -39 -84 -90l-301 -187h-31l260 262q40 40 62 53t47 13q47 0 47 -51z" />
    <glyph glyph-name="afii10095.var.accented" unicode="&#x44d;`" horiz-adv-x="913" 
d="M862 524q0 -136 -36.5 -241.5t-102 -171.5t-153.5 -100t-195 -34q-145 0 -238.5 56t-93.5 145q0 42 22.5 64t55.5 22q36 0 58 -21.5t22 -62.5q0 -16 -9.5 -38.5t-9.5 -41.5q0 -55 62 -82.5t131 -27.5q61 0 110.5 17t83.5 45.5t60 70.5t41.5 87.5t25 103t12.5 109t3 112.5
q-27 2 -119 2q-246 0 -365 -27v53q99 -18 312 -18q109 0 172 2q0 73 -7 133t-26.5 121t-51.5 102.5t-86 67.5t-126 26q-56 0 -108.5 -19.5t-89.5 -49.5t-65.5 -63.5t-42.5 -62.5t-14 -46v-8h-12q1 15 2 39.5t3 76.5t3.5 86t1.5 33h12v-59q45 31 134 58.5t172 27.5
q208 0 330 -132.5t122 -353.5zM711 1442q0 -39 -84 -90l-301 -187h-31l260 262q40 40 62 53t47 13q47 0 47 -51z" />
    <glyph glyph-name="afii10096.var.accented" unicode="&#x44e;`" horiz-adv-x="1566" 
d="M1516 492q0 -239 -133.5 -377t-344.5 -138q-103 0 -186 32t-136 84t-89 122t-51 142t-15 149v35h-235v-432q0 -57 20.5 -77t83.5 -20h59v-12h-456v12h59q63 0 84 20t21 77v768q0 65 -19 80.5t-86 15.5h-59v12h456v-12h-59q-67 0 -85.5 -15.5t-18.5 -80.5v-324h237
q8 88 41 167.5t90 145.5t146 105t198 39q210 0 344 -139.5t134 -378.5zM1364 492q0 112 -18 200.5t-48.5 145t-73 93t-88.5 51.5t-98 15t-97.5 -15t-88 -51.5t-73 -93t-48.5 -145t-18 -200.5q0 -139 27 -240t74 -156.5t102.5 -80.5t121.5 -25t121.5 25t103 80.5t74.5 156.5
t27 240zM1042 1442q0 -39 -84 -90l-301 -187h-30l260 262q41 41 62 53.5t46 12.5q47 0 47 -51z" />
    <glyph glyph-name="afii10097.var.accented" unicode="&#x44f;`" horiz-adv-x="1091" 
d="M1057 0h-457v12h64q56 0 78 22t22 75v372h-55q-71 0 -118 -12t-84.5 -45.5t-62 -71t-63.5 -110.5q-30 -56 -49.5 -89t-45 -68t-49.5 -52.5t-55 -29t-69 -11.5q-58 0 -85.5 36t-27.5 95h12q9 -94 58 -94q52 0 123 166q36 82 100 153q42 46 97.5 73.5t133.5 53.5v6
q-194 4 -289.5 74.5t-95.5 181.5q0 49 20 92t61.5 80.5t115.5 59.5t172 22q9 0 240 -6h311v-12h-62q-62 0 -83 -20t-21 -76v-768q0 -55 19.5 -76t84.5 -21h60v-12zM764 508v410q-35 31 -93.5 46t-99.5 15q-128 0 -204 -64t-76 -186q0 -28 4.5 -54.5t22 -62t46.5 -61.5
t83.5 -44t127.5 -18q127 0 189 19zM958 1442q0 -39 -84 -90l-301 -187h-30l260 262q41 41 62 53.5t46 12.5q47 0 47 -51z" />
    <glyph glyph-name="afii10071.var.accented" unicode="&#x451;`" horiz-adv-x="931" 
d="M877 1315q0 -40 -28 -68t-69 -28t-68.5 28t-27.5 68q0 42 28.5 69t67.5 27t68 -27t29 -69zM266 1315q0 -40 -27.5 -68t-68.5 -28t-68.5 28t-27.5 68q0 42 28.5 69t67.5 27t67.5 -27t28.5 -69zM664 1442q0 -39 -84 -90l-301 -187h-31l260 262q41 41 62 53.5t46 12.5
q22 0 35 -13.5t13 -37.5zM498 1010q94 0 169 -37t120 -99t68.5 -136t25.5 -154h-678q0 -142 20.5 -248.5t51.5 -166.5t76.5 -96t86.5 -47.5t90 -11.5q204 0 332 203l10 -6q-137 -234 -381 -234q-58 0 -115.5 14.5t-117 51.5t-104 93t-73 146.5t-28.5 204.5q0 239 119.5 381
t327.5 142zM203 596h534q0 111 -26 199t-85.5 145t-144.5 57q-252 0 -278 -401z" />
    <glyph glyph-name="fi" unicode="fi" horiz-adv-x="1159" 
d="M1126 0h-448v12h51q63 0 84 21t21 76v727q0 32 -2 48.5t-11 35t-27.5 26.5t-52 13.5t-84.5 5.5h-292v-856q0 -55 20 -76t82 -21h49v-12h-444v12h61q63 0 83 20t20 77v856h-164v20h164q0 108 15 196.5t40.5 151.5t63 111t78 77.5t89.5 48t94.5 25.5t96.5 7q79 0 138 -21.5
t91 -56t47 -71.5t15 -75q0 -54 -27.5 -86t-71.5 -32q-48 0 -73 25.5t-25 64.5q0 53 39 86q1 1 5.5 4.5t7 5.5t6.5 6t6.5 7t4 7.5t1.5 8.5q0 57 -50 85.5t-135 28.5q-79 0 -137.5 -31t-102 -100t-65.5 -187t-22 -286h264q258 0 334 16v-892q0 -54 20 -75.5t82 -21.5h61v-12z
" />
    <glyph glyph-name="fl" unicode="fl" horiz-adv-x="1216" 
d="M670 1595q-68 0 -113 -11t-85.5 -42.5t-63 -89.5t-35.5 -152t-13 -229v-86h287v-20h-287v-856q0 -55 21 -76t84 -21h59v-12h-452v12h61q63 0 83 20t20 77v856h-164v20h164q0 233 53 365q103 258 364 258q34 0 97 -2t98 -2q94 0 172 10v-1505q0 -55 18.5 -76t81.5 -21h64
v-12h-457v12h61q57 0 80 22t23 75v1331q0 37 -7 61.5t-28.5 47.5t-67.5 34.5t-118 11.5z" />
    <glyph glyph-name=".notdef" horiz-adv-x="450" 
 />
    <glyph glyph-name=".null" horiz-adv-x="0" 
 />
    <glyph glyph-name="nonmarkingreturn" horiz-adv-x="682" 
 />
    <glyph glyph-name="space" unicode=" " horiz-adv-x="450" 
 />
    <glyph glyph-name="exclam" unicode="!" horiz-adv-x="563" 
d="M283 1513q38 0 66 -15t34 -36q-3 -23 -15.5 -115t-17 -130t-14 -116t-16 -151.5t-13.5 -158.5q-4 -51 -10.5 -250t-7.5 -213h-13q-1 26 -5 128t-7.5 195t-7.5 140q-27 334 -76 671q5 22 32 36.5t71 14.5zM379 63q0 -39 -27.5 -66.5t-68.5 -27.5q-39 0 -69 27t-30 67
q0 41 30 70t69 29q41 0 68.5 -29.5t27.5 -69.5z" />
    <glyph glyph-name="quotedbl" unicode="&#x22;" horiz-adv-x="591" 
d="M225 1491l-65 -363h-13q-12 63 -32.5 182t-32.5 181q33 22 72 22q34 0 71 -22zM510 1491l-66 -363h-12q-12 63 -33 182t-32 181q33 22 71 22q35 0 72 -22z" />
    <glyph glyph-name="numbersign" unicode="#" horiz-adv-x="1433" 
d="M793 0l81 444h-450l-82 -444h-20l81 444h-362l4 21h363l108 590h-362l4 20h362l74 406h20l-75 -406h452l74 406h20l-75 -406h383l-4 -20h-383l-107 -590h381l-4 -21h-381l-82 -444h-20zM535 1055l-107 -590h451l108 590h-452z" />
    <glyph glyph-name="dollar" unicode="$" 
d="M543 -207h-15v178q-227 0 -454 117l2 -88h-13l-30 389h12l10 -86q57 -129 184.5 -222t288.5 -97v706q-27 16 -28 17q-77 41 -128 72t-110 76.5t-94 88.5t-58.5 101t-23.5 122q0 71 22 130t70.5 109t136 78.5t207.5 28.5h6v156h15v-156q200 -5 383 -108v76h12l18 -348h-12
l-6 71q-14 53 -40.5 100.5t-71.5 93t-118 73.5t-165 30v-620q30 -19 53 -29q56 -30 90 -49.5t84.5 -52t81 -58.5t66.5 -64t55.5 -75.5t33 -85.5t13.5 -100q0 -164 -127.5 -280t-347.5 -116h-2v-178zM887 276q0 63 -26.5 121.5t-76.5 109.5t-108 93t-133 84v-700
q90 0 158.5 26t107.5 69.5t58.5 93.5t19.5 103zM219 1266q0 -54 16 -101.5t41.5 -83.5t68 -71.5t83.5 -61.5t100 -59v612q-74 0 -130 -14.5t-89.5 -37.5t-54 -55t-28 -62.5t-7.5 -65.5z" />
    <glyph glyph-name="percent" unicode="%" horiz-adv-x="1554" 
d="M662 1206q0 -82 -27 -144t-70.5 -96t-90 -50.5t-93.5 -16.5q-75 0 -131.5 28t-88 74.5t-46.5 98t-15 106.5t15 107t46.5 98t88 74t131.5 28q48 0 95 -16.5t90 -51t69.5 -96.5t26.5 -143zM547 1206q0 22 -1 41.5t-5.5 58.5t-15.5 69t-28 61t-47 48t-69 17t-68.5 -16.5
t-46.5 -46t-28.5 -59.5t-16 -68t-5.5 -59.5t-1 -45.5q0 -32 1.5 -59t10.5 -74t25 -79.5t49.5 -57.5t79.5 -25q39 0 69 17t47 47.5t28 60.5t15.5 69t5.5 58.5t1 42.5zM1454 279q0 -82 -27 -144t-70 -96.5t-89.5 -51t-93.5 -16.5q-75 0 -131.5 28.5t-88 75t-46.5 98t-15 106.5
t15 107t46.5 98t88 74t131.5 28q47 0 93.5 -17t89.5 -51t70 -96t27 -143zM1339 279q0 23 -1 42t-5 58t-15 68.5t-28 60.5t-47 48t-69 17q-33 0 -60 -13.5t-44 -33t-29.5 -49t-18.5 -54.5t-9.5 -57t-4 -49.5t-0.5 -37.5q0 -32 1.5 -59t10.5 -74t25 -79.5t49.5 -57.5t79.5 -25
q39 0 69 17t47 48t28 60.5t15 68.5t5 58.5t1 42.5zM1266 1503l-1008 -1534l-18 13l1007 1534z" />
    <glyph glyph-name="ampersand" unicode="&#x26;" horiz-adv-x="1488" 
d="M1454 659h-53q-56 0 -87 -22t-52 -86q-32 -104 -77 -188t-134 -175q59 -95 101.5 -137t88.5 -41q40 1 88 33.5t86 81.5l10 -6q-61 -77 -134 -112.5t-136 -35.5q-138 0 -229 125q-37 -26 -67 -43.5t-78 -38.5t-107.5 -32t-128.5 -11q-221 0 -349 99.5t-128 287.5
q0 81 28.5 149.5t85.5 124t125 99t162 88.5q-131 204 -131 379q0 79 36 150t110.5 118t172.5 47q127 0 194 -72t67 -177q0 -194 -320 -390l446 -675q59 59 108.5 158.5t49.5 193.5q0 62 -33 85t-108 23h-49v13h442v-13zM836 1294q0 86 -48 146.5t-124 60.5
q-88 0 -144.5 -72.5t-56.5 -181.5q0 -183 125 -360q133 97 190.5 195t57.5 212zM920 106l-445 701q-33 -20 -68.5 -52.5t-74 -81.5t-63.5 -117t-25 -140q0 -64 12 -121t40.5 -110.5t72 -92t111 -61.5t153.5 -23q153 0 287 98z" />
    <glyph glyph-name="quotesingle" unicode="'" horiz-adv-x="307" 
d="M225 1491l-65 -363h-13q-12 63 -32.5 182t-32.5 181q33 22 72 22q34 0 71 -22z" />
    <glyph glyph-name="parenleft" unicode="(" horiz-adv-x="710" 
d="M686 -199l-6 -10q-126 77 -232.5 179.5t-188.5 226t-128.5 271t-46.5 300.5t47 297t131 263.5t189.5 217.5t230.5 174q0 -1 3 -5t3 -5q-90 -69 -162.5 -156.5t-117.5 -177.5t-77 -178t-47.5 -173t-21.5 -145.5t-6 -111.5q0 -65 8 -142.5t36 -193t72 -221.5t126 -218
t188 -192z" />
    <glyph glyph-name="parenright" unicode=")" horiz-adv-x="710" 
d="M90 -209l-6 10q106 80 188 192t126 218t72 221.5t36 193t8 142.5q0 51 -6 111.5t-21.5 145.5t-47.5 173t-77 178t-117.5 177.5t-162.5 156.5q0 1 3 5t3 5q125 -76 230.5 -174t189.5 -217.5t131 -263.5t47 -297t-46.5 -300.5t-128.5 -271t-188.5 -226t-232.5 -179.5z" />
    <glyph glyph-name="asterisk" unicode="*" horiz-adv-x="999" 
d="M836 1253l-281 -96q4 -16 4 -22q0 -11 -4 -23l281 -96q0 -43 -19 -70q-21 -33 -57 -51l-213 205q-18 -25 -43 -25l67 -299q-30 -20 -71 -20q-40 0 -72 20q52 229 68 299q-27 0 -45 25l-211 -205q-37 19 -58 51q-18 26 -18 70l280 96q-4 6 -4 23q0 14 4 22l-280 96
q0 44 18 70q21 32 58 51l211 -205q18 22 45 25l-68 299q32 20 72 20q41 0 71 -20l-67 -299q24 -3 43 -25l213 205q36 -18 57 -51q19 -27 19 -70z" />
    <glyph glyph-name="plus" unicode="+" 
d="M1044 700h-503v-503h-21v503h-504v21h504v504h21v-504h503v-21z" />
    <glyph glyph-name="comma" unicode="," horiz-adv-x="425" 
d="M317 61q0 -101 -54 -206t-136 -183l-8 9q125 131 125 243q0 42 -19 62.5t-69 50.5q-47 35 -47 84q0 36 27.5 61t70.5 25q47 0 78.5 -38t31.5 -108z" />
    <glyph glyph-name="hyphen" unicode="-" horiz-adv-x="708" 
d="M102 565v21h504v-21h-504z" />
    <glyph glyph-name="period" unicode="." horiz-adv-x="409" 
d="M301 66q0 -39 -27.5 -67t-68.5 -28q-39 0 -67.5 27.5t-28.5 67.5q0 41 28.5 69.5t67.5 28.5q41 0 68.5 -29t27.5 -69z" />
    <glyph glyph-name="slash" unicode="/" horiz-adv-x="1134" 
d="M1176 1632l-1199 -1822l-18 12l1198 1823z" />
    <glyph glyph-name="zero" unicode="0" 
d="M989 743q0 -84 -11 -170.5t-33 -174.5t-59.5 -164.5t-86.5 -136t-118.5 -94t-150.5 -34.5t-150 34.5t-118 94t-86.5 136t-59.5 164.5t-33 174t-11 171t11 171t33 173.5t59.5 163t86.5 135t118 93.5t150 34q97 0 176.5 -49.5t130.5 -128.5t86.5 -182t50.5 -206t15 -204z
M829 743q0 55 -2 108t-7 120.5t-15.5 127t-25 121.5t-38 111t-52.5 88t-70 60.5t-89 21.5t-89 -22t-70 -61.5t-52.5 -89.5t-38 -112t-25 -122t-15.5 -127t-7 -119t-2 -105q0 -166 17.5 -298.5t46 -217.5t68 -141.5t81 -80t86.5 -23.5t86.5 24t81 80.5t68 142t46 217.5
t17.5 297z" />
    <glyph glyph-name="one" unicode="1" 
d="M760 0h-492v12h39q27 0 47 3.5t42 15t34 37.5t12 65v1122q-128 -137 -260 -229l-8 12q121 95 223 217.5t158 249.5h31v-1372q0 -121 139 -121h35v-12z" />
    <glyph glyph-name="two" unicode="2" 
d="M946 272l-28 -272h-863v20l371 398q70 76 113.5 126t95.5 122t80.5 131.5t48.5 135t20 152.5q0 90 -19 162t-49.5 118.5t-73 78t-87 44.5t-92.5 13q-187 0 -187 -147q0 -14 6.5 -42t6.5 -40q0 -40 -27 -61t-65 -21q-34 0 -58 25t-24 77q0 84 95.5 152.5t264.5 68.5
q225 0 347 -109t122 -308q0 -121 -98 -271q-68 -105 -223 -256l-455 -446h489q139 0 197 26.5t72 86.5l8 36h12z" />
    <glyph glyph-name="three" unicode="3" 
d="M975 418q0 -203 -129.5 -326t-380.5 -123q-106 0 -191.5 25.5t-135.5 66t-76.5 87.5t-26.5 94q0 48 27 71t63 23q34 0 59 -23t25 -67q0 -23 -10.5 -56.5t-10.5 -64.5q0 -62 79 -102.5t175 -40.5q91 0 160 31t108.5 77.5t64 111.5t32.5 123t8 121q0 76 -14.5 137t-37 101
t-57 69.5t-66.5 45t-73.5 24.5t-70.5 11t-64 2q-70 0 -135 -15v41q61 -16 160 -16q135 0 234.5 91.5t99.5 236.5q0 151 -83 239t-231 88q-66 0 -110 -15.5t-63 -36.5t-30 -52q-7 -27 -6.5 -37.5t4.5 -31.5t4 -36q0 -43 -27 -64.5t-63 -21.5q-34 0 -55.5 24.5t-21.5 76.5
q0 33 18 66.5t57.5 66t115 53t177.5 20.5q108 0 191 -20t132.5 -52t80.5 -77t42 -89t11 -95q0 -58 -25.5 -113.5t-71.5 -101.5t-116.5 -77t-155.5 -38v-6q175 -18 292.5 -131.5t117.5 -294.5z" />
    <glyph glyph-name="four" unicode="4" 
d="M31 348h631v592l143 117v-709h205v-12h-205v-203q0 -71 33 -96t104 -25h64v-12h-547v12h63q30 0 51.5 4t43.5 15.5t33.5 37t11.5 64.5v203h-642v16q300 443 525 844q152 272 174 317q27 -16 71.5 -40t67.5 -37z" />
    <glyph glyph-name="five" unicode="5" 
d="M963 494q0 -154 -71 -275.5t-186 -185.5t-251 -64q-159 0 -268 66.5t-109 167.5q0 54 26.5 78t63.5 24q43 0 63.5 -23t20.5 -57q0 -23 -10.5 -57t-10.5 -59q0 -47 34.5 -77t79 -40t97.5 -10q93 0 164.5 43.5t113.5 117.5t62.5 163t20.5 190q0 44 -4 82.5t-19 88t-40 89.5
t-70.5 80.5t-106.5 68t-153 45t-205 17.5l65 514h441q96 0 138.5 15t51.5 52l2 8h12l-41 -198h-606l-49 -371h84q153 0 271.5 -29t190.5 -75.5t118 -112.5t63 -132.5t17 -143.5z" />
    <glyph glyph-name="six" unicode="6" 
d="M993 469q0 -139 -52.5 -252t-155 -180.5t-236.5 -67.5q-94 0 -169 26.5t-124.5 67.5t-86 102.5t-55.5 119t-30 130.5t-13.5 123t-2.5 109q0 131 22.5 255t70 235.5t115 194.5t165.5 132t214 49q135 0 208 -49t73 -123q0 -48 -24.5 -72t-61.5 -24q-92 0 -92 92q0 12 5 39
t5 41q0 38 -30.5 61t-82.5 23q-202 0 -314 -186t-118 -524q88 70 174 97t185 27q87 0 161 -28t130 -82t88 -140t32 -196zM834 461q0 103 -21.5 181t-54 122t-78.5 71t-87 35.5t-87 8.5q-134 0 -283 -109q-5 -70 4 -254q11 -255 91.5 -394.5t230.5 -139.5q285 0 285 479z" />
    <glyph glyph-name="seven" unicode="7" 
d="M963 1516l-181 -402q-90 -209 -164 -430q-74 -222 -131 -553q-13 -81 -29 -110q-29 -52 -89 -52q-84 0 -84 105q0 45 31.5 131.5t123.5 277.5q18 37 48 99.5t96 197.5t133 273q28 58 57 113.5t59.5 111t43.5 80.5h-437q-49 0 -81 -1.5t-69.5 -6.5t-62.5 -16t-49 -28.5
t-39 -45t-24 -64.5h-11l43 285h787l16 35h13z" />
    <glyph glyph-name="eight" unicode="8" 
d="M1006 383q0 -76 -30.5 -149t-87 -132.5t-147.5 -96t-202 -36.5q-236 0 -359 112t-123 288q0 299 346 422q-151 84 -211.5 175.5t-60.5 198.5q0 71 24 132.5t72 110.5t128 77t184 28q189 0 290 -89.5t101 -221.5q0 -128 -87 -220t-233 -130q46 -24 73.5 -39t67.5 -38.5
t63.5 -40.5t53.5 -42t48 -47.5t37.5 -52.5t29.5 -60.5t16.5 -68.5t6.5 -80zM825 1202q0 145 -75.5 222t-217.5 77q-294 0 -294 -282q0 -59 34.5 -117t89 -104t111.5 -79.5t113 -56.5q239 100 239 340zM885 332q0 77 -47.5 156.5t-126.5 134.5q-7 5 -13.5 9t-16 10t-17 10
t-22.5 12.5t-26.5 14.5t-35.5 18.5t-41.5 22t-53 28t-63.5 32.5q-123 -72 -187.5 -181t-64.5 -234q0 -93 31 -167.5t84 -120.5t119.5 -70.5t140.5 -24.5q87 0 154 29t106.5 79t59.5 111t20 131z" />
    <glyph glyph-name="nine" unicode="9" 
d="M68 1014q0 139 52.5 251.5t155 180t236.5 67.5q94 0 169 -26.5t124.5 -67.5t86 -102.5t55.5 -119t30 -130t13.5 -122.5t2.5 -109q0 -131 -22.5 -255t-70 -235.5t-115 -195t-165.5 -132.5t-214 -49q-135 0 -208 49t-73 123q0 48 24.5 72.5t61.5 24.5q92 0 92 -93
q0 -12 -5 -38.5t-5 -40.5q0 -38 30.5 -61t82.5 -23q202 0 314 186t118 524q-88 -70 -174.5 -97.5t-184.5 -27.5q-87 0 -161 28t-130 82t-88 140.5t-32 196.5zM227 1022q0 -103 21.5 -181t54 -122t78.5 -71t87 -35.5t87 -8.5q134 0 283 109q5 70 -4 254q-11 255 -91.5 394.5
t-230.5 139.5q-285 0 -285 -479z" />
    <glyph glyph-name="colon" unicode=":" horiz-adv-x="512" 
d="M352 938q0 -39 -27.5 -67.5t-68.5 -28.5q-39 0 -67.5 27.5t-28.5 68.5t28.5 68.5t67.5 27.5q41 0 68.5 -28.5t27.5 -67.5zM352 66q0 -39 -27.5 -67t-68.5 -28q-39 0 -67.5 27.5t-28.5 67.5q0 41 28.5 69.5t67.5 28.5q41 0 68.5 -29t27.5 -69z" />
    <glyph glyph-name="semicolon" unicode=";" horiz-adv-x="425" 
d="M309 938q0 -39 -27.5 -67.5t-68.5 -28.5q-39 0 -67.5 27.5t-28.5 68.5t28.5 68.5t67.5 27.5q41 0 68.5 -28.5t27.5 -67.5zM317 61q0 -101 -54 -206t-136 -183l-8 9q125 131 125 243q0 42 -19 62.5t-69 50.5q-47 35 -47 84q0 36 27.5 61t70.5 25q47 0 78.5 -38t31.5 -108z
" />
    <glyph glyph-name="less" unicode="&#x3c;" 
d="M1047 174l-13 -20l-1016 544l1014 543l12 -20l-974 -523z" />
    <glyph glyph-name="equal" unicode="=" 
d="M1044 887h-1028v20h1028v-20zM1044 498h-1028v20h1028v-20z" />
    <glyph glyph-name="greater" unicode="&#x3e;" 
d="M31 154l-13 20l977 524l-975 523l13 20l1014 -543z" />
    <glyph glyph-name="question" unicode="?" horiz-adv-x="952" 
d="M877 1038q0 -66 -19 -126.5t-49 -109t-82 -102.5t-103 -96.5t-128 -99.5q-31 -25 -41 -33.5t-30 -29t-27 -41t-7 -46.5v-65h-12v252q0 39 14.5 61.5t46.5 46.5q5 4 36.5 28.5t42.5 33.5t42 35t44.5 41t39.5 43.5t39 50t31.5 53.5t27 61t15 65t6.5 73q0 72 -22.5 137
t-66.5 117t-115 83t-161 31q-56 0 -93 -16t-51.5 -41t-19 -42t-4.5 -32q0 -13 4.5 -34.5t4.5 -30.5q0 -38 -24 -62t-64 -24q-38 0 -63.5 23.5t-25.5 66.5q0 80 87 142t245 62q211 0 346.5 -131.5t135.5 -343.5zM483 63q0 -39 -27.5 -66.5t-68.5 -27.5q-39 0 -68.5 27
t-29.5 67q0 41 29.5 70t68.5 29q41 0 68.5 -29.5t27.5 -69.5z" />
    <glyph glyph-name="at" unicode="@" horiz-adv-x="1826" 
d="M1776 801q0 -148 -47.5 -272.5t-121.5 -205.5t-165 -138t-176 -82t-158 -25q-108 0 -113 88q-6 81 47 217l-12 4q-84 -131 -180 -213q-110 -94 -219 -94q-85 0 -129.5 58.5t-44.5 166.5q0 104 44 227.5t120 227.5q107 139 214.5 203.5t254.5 64.5q78 0 143 -35
q7 19 20 62h111l-207 -664q-45 -153 -45 -209q0 -71 68 -71q51 0 111.5 19.5t126 56t126 95.5t109 131.5t77.5 171.5t29 208q0 64 -10.5 128.5t-35 139.5t-74.5 147t-121 127q-205 162 -551 162q-303 0 -531 -158q-175 -122 -274 -324.5t-99 -475.5q0 -185 62.5 -341.5
t175.5 -273.5q127 -130 297 -202t356 -72q158 0 288 25t226.5 72.5t166 101.5t134.5 126l11 -8q-62 -73 -132.5 -129t-168 -104.5t-229.5 -74.5t-292 -26q-135 0 -265.5 37t-247 112.5t-205.5 181t-141 253.5t-52 318q0 267 98 476.5t277 336.5q229 165 547 165
q345 0 563 -170q244 -193 244 -542zM1112 602l102 332q-18 82 -131 82q-88 0 -193 -94.5t-190 -239.5q-66 -115 -104.5 -234.5t-38.5 -203.5q0 -152 90 -152q87 0 197 92q91 78 160 187q71 110 108 231z" />
    <glyph glyph-name="A" unicode="A" horiz-adv-x="1427" 
d="M1427 0h-522v12h66q20 0 34 1.5t33 8t29 22t10 40.5q0 26 -104 330q-39 117 -64 190h-528l-72 -188q-3 -9 -20.5 -54.5t-25.5 -68.5t-20.5 -61.5t-18 -66.5t-5.5 -48q0 -86 76 -105h86v-12h-381v12h57q43 26 81.5 82t99.5 195.5t155 392.5q2 5 293 799h43l498 -1329
q24 -69 60 -104.5t110 -35.5h30v-12zM901 616l-258 709l-258 -709h516z" />
    <glyph glyph-name="B" unicode="B" horiz-adv-x="1464" 
d="M1124 1145q0 84 -31.5 148t-75.5 98t-102.5 55.5t-101 27t-82.5 5.5q-67 0 -142.5 -15.5t-129.5 -40.5v-600h299q18 0 38 1.5t58 8.5t71.5 19t71.5 36t64.5 57t44.5 84.5t18 115.5zM1176 436q0 30 -4 60t-16.5 68.5t-33 72t-56.5 66t-83 56t-117 38t-155 14.5h-252v-729
q54 -40 139 -60t160 -20q52 0 104.5 11.5t110.5 42t102 77.5t72.5 125.5t28.5 177.5zM299 1350q0 118 -139 118h-66v13h334q58 0 183 5t180 5q135 0 234 -24t155 -68t82 -98t26 -121q0 -149 -108 -246.5t-301 -112.5v-6q96 -8 180.5 -36.5t150.5 -75.5t104 -118t38 -157
q0 -207 -143 -322.5t-380 -115.5q-87 0 -227.5 5t-220.5 5h-287v16h66q84 0 111.5 25t27.5 94v1215z" />
    <glyph glyph-name="C" unicode="C" horiz-adv-x="1492" 
d="M1337 86q-71 -46 -177 -73.5t-176 -34.5t-126 -7q-146 0 -266 36.5t-207 103.5t-146.5 161t-88.5 208.5t-29 246.5q0 90 16 177.5t50.5 178t94 166.5t139.5 136t196 94t255 34q207 0 455 -112q0 8 -1 38t-1 42h12q4 -65 13.5 -182.5t13.5 -182.5h-12l-13 92
q-62 130 -187 211.5t-310 81.5q-112 0 -203.5 -40.5t-154 -111.5t-105.5 -168t-62.5 -208t-19.5 -234q0 -152 30 -278.5t82.5 -213.5t124 -147t153 -88t171.5 -28q165 0 304.5 70.5t189.5 174.5l26 119h13l-48 -348h-12z" />
    <glyph glyph-name="D" unicode="D" horiz-adv-x="1708" 
d="M1417 776q0 59 -7.5 120.5t-27 131.5t-49 133t-78 122t-109.5 102t-148 68.5t-189 25.5q-207 0 -350 -62v-1345q126 -70 344 -70q126 0 229 40.5t174 111.5t119 170t70 212t22 240zM299 1350q0 67 -32 92.5t-107 25.5h-66v13h312q58 0 202.5 5t200.5 5q148 0 269.5 -30
t201 -76.5t139.5 -112t92 -128t51.5 -134t25 -120t5.5 -95.5q0 -64 -7.5 -129t-29.5 -146.5t-57 -153.5t-96 -142.5t-140.5 -121t-196 -81.5t-257.5 -31q-55 0 -190 5t-177 5h-348v12h66q85 0 112 24.5t27 94.5v1219z" />
    <glyph glyph-name="E" unicode="E" horiz-adv-x="1333" 
d="M94 1481h1112l21 -299h-13l-22 166q-33 59 -175.5 89.5t-326.5 30.5q-142 0 -186.5 -22.5t-44.5 -97.5v-566h123q83 0 148.5 5t107 12.5t71 20t44 23t22.5 27t9 26t1 26.5v41h12v-373h-12v47q0 23 -3 36.5t-24 34.5t-60.5 32.5t-120 20.5t-195.5 9h-123v-639
q0 -71 35.5 -95t101.5 -24q317 0 463 41q151 41 198 164l23 88h12l-55 -305h-1143v12h66q85 0 112 24.5t27 94.5v1219q0 73 -34 95.5t-105 22.5h-66v13z" />
    <glyph glyph-name="F" unicode="F" horiz-adv-x="1298" 
d="M690 1468q-142 0 -186.5 -22.5t-44.5 -97.5v-566h123q83 0 148.5 5t107 12t71 19.5t44 22.5t22.5 27t9 26.5t1 25.5v43h12v-373h-12v47q0 23 -3 36.5t-24 34.5t-60.5 32.5t-120 20.5t-195.5 9h-123v-639q0 -69 24 -94t111 -25h70v-12h-570v12h66q85 0 112 24.5t27 94.5
v1219q0 73 -32.5 95.5t-106.5 22.5h-66v13h1112l21 -299h-13l-22 166q-33 59 -175.5 89.5t-326.5 30.5z" />
    <glyph glyph-name="G" unicode="G" horiz-adv-x="1650" 
d="M1640 692h-49q-28 0 -43 -1t-36.5 -6.5t-32 -16.5t-19 -32.5t-8.5 -53.5v-394q-103 -98 -262.5 -158.5t-317.5 -60.5t-286 44t-213.5 118t-143 174t-83 209t-25.5 227q0 221 98.5 398t273 275.5t392.5 98.5q105 0 208 -21.5t259 -90.5l-2 80h12q3 -61 13.5 -182.5
t13.5 -182.5h-13l-12 92q-63 128 -188.5 210.5t-298.5 82.5q-125 0 -231 -51.5t-183.5 -147.5t-121.5 -242t-44 -327q0 -162 36 -293.5t93.5 -215t134 -139.5t153.5 -79.5t156 -23.5q99 0 177 23.5t122.5 58t73.5 77.5t39 77t10 63v301q0 68 -33 89t-102 21h-43v13h526v-13z
" />
    <glyph glyph-name="H" unicode="H" horiz-adv-x="1734" 
d="M1640 0h-569v12h66q80 0 109.5 24.5t29.5 94.5v629h-817v-629q0 -70 29 -94.5t106 -24.5h70v-12h-570v12h66q80 0 109.5 24.5t29.5 94.5v1219q0 65 -30 91.5t-109 26.5h-66v13h570v-13h-70q-77 0 -106 -24t-29 -94v-578h817v578q0 70 -29.5 94t-109.5 24h-66v13h569v-13
h-69q-77 0 -106 -24t-29 -94v-1219q0 -70 29 -94.5t106 -24.5h69v-12z" />
    <glyph glyph-name="I" unicode="I" horiz-adv-x="757" 
d="M664 0h-570v12h66q82 0 110.5 26t28.5 93v1219q0 69 -30 93.5t-109 24.5h-66v13h570v-13h-70q-79 0 -107 -25t-28 -93v-1219q0 -66 26 -92.5t109 -26.5h70v-12z" />
    <glyph glyph-name="J" unicode="J" horiz-adv-x="956" 
d="M895 1468h-66q-82 0 -110.5 -27t-28.5 -91v-725q0 -145 -23 -259.5t-61 -187.5t-91.5 -120.5t-111 -67t-122.5 -19.5q-130 0 -195.5 54.5t-65.5 126.5q0 41 22 67.5t71 26.5q39 0 64.5 -24.5t25.5 -65.5q0 -12 -7.5 -38t-7.5 -38q0 -96 111 -96q41 0 73.5 12t56 37.5
t41 55t28 76t17.5 88t10 103.5t4 110t1 120v764q0 66 -29 92t-110 26h-65v13h569v-13z" />
    <glyph glyph-name="K" unicode="K" horiz-adv-x="1595" 
d="M1559 0h-345l-682 778l328 309q155 147 211.5 213.5t56.5 106.5q0 61 -96 61h-65v13h493v-13h-47q-52 0 -121.5 -36t-201.5 -150l-435 -412l656 -739q49 -55 76 -74q66 -46 172 -49v-8zM664 0h-570v12h66q83 0 111 28t28 91v1219q0 70 -28.5 94t-110.5 24h-66v13h570v-13
h-70q-78 0 -106.5 -26.5t-28.5 -91.5v-1219q0 -63 30 -91t105 -28h70v-12z" />
    <glyph glyph-name="L" unicode="L" horiz-adv-x="1302" 
d="M692 12q198 0 369 41q79 19 125.5 61t73.5 107l30 119h13l-62 -340h-1147v12h68q139 0 139 119v1219q0 69 -30.5 93.5t-108.5 24.5h-66v13h570v-13h-70q-81 0 -108 -24.5t-27 -93.5v-1219q0 -46 15 -69.5t65.5 -36.5t150.5 -13z" />
    <glyph glyph-name="M" unicode="M" horiz-adv-x="2017" 
d="M1923 0h-569v12h65q80 0 110 24.5t30 94.5v1262l-605 -1149h-34l-613 1159v-889q0 -395 72 -502h119v-12h-398v12h119q72 105 72 566v782q0 60 -23.5 84t-68.5 24h-105v13h348l572 -1082l569 1082h340v-13h-68q-31 0 -45 -0.5t-36 -6.5t-31.5 -17.5t-17 -34t-7.5 -55.5
v-1223q0 -69 25 -94t110 -25h70v-12z" />
    <glyph glyph-name="N" unicode="N" horiz-adv-x="1599" 
d="M1505 1468h-119q-71 -114 -71 -505v-992h-19l-995 1262v-733q0 -383 72 -488h112v-12h-391v12h119q24 36 39.5 96.5t21.5 146t8 127t3 118.5v753l-176 228h200l989 -1264v807q0 137 -19.5 269t-51.5 175h-119v13h397v-13z" />
    <glyph glyph-name="O" unicode="O" horiz-adv-x="1746" 
d="M1626 743q0 -98 -22 -198t-77.5 -205t-138 -185.5t-216.5 -132t-300 -51.5q-120 0 -223.5 27t-178.5 72.5t-136 108.5t-100 132t-65 145.5t-37 147.5t-11 139q0 72 12.5 145.5t40 149.5t68.5 145t102.5 129.5t136.5 105t175.5 70t215.5 25.5q161 0 292 -47t215.5 -123
t141.5 -178t81 -207t24 -215zM1450 743q0 164 -38 302t-110 239.5t-182 159t-248 57.5q-276 0 -425.5 -203.5t-149.5 -554.5q0 -149 36.5 -283.5t106 -241.5t181.5 -170.5t251 -63.5q141 0 253.5 63.5t182 171t106 241.5t36.5 283z" />
    <glyph glyph-name="P" unicode="P" horiz-adv-x="1361" 
d="M1280 1067q0 -92 -38 -176t-108.5 -149.5t-180.5 -104.5t-244 -39q-142 0 -250 27v-494q0 -70 26.5 -94.5t108.5 -24.5h70v-12h-570v12h66q83 0 111 25t28 94v1219q0 69 -28 93.5t-111 24.5h-66v13h217q65 0 211.5 11t208.5 11q123 0 219.5 -26t157.5 -68t100.5 -100
t55.5 -117.5t16 -124.5zM1104 1067q0 205 -107 314.5t-301 109.5q-125 0 -237 -59v-795q106 -27 241 -27q184 0 294 119.5t110 337.5z" />
    <glyph glyph-name="Q" unicode="Q" horiz-adv-x="1767" 
d="M899 -29q-33 -23 -64 -43.5t-54.5 -35t-48 -27.5t-40 -20.5t-35.5 -15.5t-28 -11t-24 -8.5t-19 -6.5q35 2 86 2q69 0 139 -21.5t117 -48t114.5 -66.5t110.5 -60q132 -62 219 -62q39 0 83.5 14.5t102 56.5t103.5 106l10 -9q-33 -48 -72 -85t-79 -59t-76.5 -36.5t-77 -20.5
t-67.5 -8t-60 -2q-213 0 -457 152q-13 8 -55.5 37t-69 45t-68 31t-77.5 14h-72v12q128 16 219 55t215 121h1h1h1h1h1h1h1h2h1h2h2h2h9zM1626 743q0 -98 -22 -198t-77.5 -205t-138 -185.5t-216.5 -132t-300 -51.5q-120 0 -223.5 27t-178.5 72.5t-136 108.5t-100 132
t-65 145.5t-37 147.5t-11 139q0 72 12.5 145.5t40 149.5t68.5 145t102.5 129.5t136.5 105t175.5 70t215.5 25.5q161 0 292 -47t215.5 -123t141.5 -178t81 -207t24 -215zM1450 743q0 164 -38 302t-110 239.5t-182 159t-248 57.5q-276 0 -425.5 -203.5t-149.5 -554.5
q0 -149 36.5 -283.5t106 -241.5t181.5 -170.5t251 -63.5q141 0 253.5 63.5t182 171t106 241.5t36.5 283z" />
    <glyph glyph-name="R" unicode="R" horiz-adv-x="1507" 
d="M1403 8q40 0 60 38.5t22 88.5h12q-1 -23 -3.5 -40.5t-12.5 -42.5t-26.5 -41t-48.5 -28t-75 -12q-49 0 -93 22t-76.5 53.5t-68.5 88t-60 103.5t-58 122v-2l-19 43q-61 133 -100 181q-80 100 -174.5 143t-222.5 43v-637q0 -62 32 -90.5t103 -28.5h72v-12h-572v12h66
q74 0 106.5 28.5t32.5 90.5v1219q0 75 -29.5 96.5t-109.5 21.5h-66v13h228q66 0 217 11t219 11q133 0 234 -23t159.5 -58.5t95 -86.5t48.5 -98.5t12 -101.5q0 -122 -74.5 -213.5t-191 -136t-253.5 -44.5l-75 2v-6q86 -22 164 -64.5t134.5 -94.5t97 -102.5t67.5 -100.5
q48 -91 108 -236q12 -27 21.5 -45t25 -40.5t34 -34t38.5 -11.5zM1130 1124q0 180 -105 273.5t-290 93.5q-150 0 -276 -57v-654q18 -2 59 -5.5t55 -4.5q110 -12 166 -12q177 0 284 102t107 264z" />
    <glyph glyph-name="S" unicode="S" horiz-adv-x="1183" 
d="M1077 367q0 -164 -127.5 -280t-347.5 -116q-244 0 -471 117l2 -88h-12l-31 389h12l11 -86q58 -132 190 -225.5t297 -93.5q90 0 158.5 24t108 66t58.5 92.5t19 109.5q0 68 -30.5 130.5t-87.5 116.5t-121 97.5t-148 88.5q-54 29 -92 51t-84.5 52.5t-78 57t-64 61t-52 69.5
t-31.5 78t-12 89q0 71 22.5 130t71 109t136 78.5t207.5 28.5q210 0 403 -108v76h12l19 -348h-13l-6 71q-11 42 -29.5 81.5t-52 79.5t-77 69.5t-108.5 48t-142 18.5q-92 0 -155.5 -19t-96 -54t-45.5 -73.5t-13 -88.5q0 -44 11 -83.5t27 -70.5t47 -63t56.5 -54t72 -51
t77 -46.5t86.5 -47.5q54 -29 90 -49.5t85 -52.5t80.5 -59t66.5 -64.5t55 -75t33.5 -84.5t13.5 -98z" />
    <glyph glyph-name="T" unicode="T" horiz-adv-x="1335" 
d="M39 1481h1253l23 -320h-12l-17 154q-49 91 -148.5 122t-269.5 31q-72 0 -96 -19t-24 -54v-1264q0 -68 26 -93.5t113 -25.5h65v-12h-569v12h68q83 0 110 25t27 94v1262q0 35 -24.5 55t-98.5 20q-169 0 -267 -31t-147 -122l-18 -154h-13z" />
    <glyph glyph-name="U" unicode="U" horiz-adv-x="1638" 
d="M1577 1468h-119q-37 -61 -51.5 -158.5t-20.5 -305.5v-355q0 -119 -15.5 -216t-53 -183.5t-97 -144.5t-151.5 -91.5t-213 -33.5t-217 23.5t-156 57t-103.5 87.5t-64 97t-31.5 104t-12.5 90t-1.5 72v1.5v1.5v836q0 63 -33 90.5t-106 27.5h-70v13h578v-13h-74
q-135 0 -135 -118v-871q0 -114 31.5 -203t78.5 -139.5t108 -83t111.5 -43t98.5 -10.5q120 0 211 34t147.5 91t91.5 142.5t48.5 177t13.5 204.5v373q0 177 -24 298.5t-48 147.5h-118v13h397v-13z" />
    <glyph glyph-name="V" unicode="V" horiz-adv-x="1525" 
d="M1526 1468h-64q-69 -44 -168 -268q-21 -48 -71 -173.5t-99 -240.5l-340 -815h-18l-578 1366q-12 29 -16 38t-19.5 31.5t-32 31.5t-48 18.5t-72.5 11.5v13h508v-13h-70q-92 0 -92 -75q0 -21 19 -72l481 -1157l336 813q57 140 91 251t34 154q0 45 -24 65.5t-58 20.5h-86v13
h387v-13z" />
    <glyph glyph-name="W" unicode="W" horiz-adv-x="2222" 
d="M2222 1468h-70q-60 -51 -113.5 -163.5t-174.5 -421.5l-332 -912h-19l-370 1033l-391 -1033h-21q-78 227 -263 691t-261 684q-15 40 -36 65.5t-46.5 37t-46.5 15.5t-49 4h-29v13h547v-13h-84q-98 0 -98 -69q0 -24 12 -66l436 -1151l320 846l-105 318q-13 38 -35.5 64.5
t-49 38t-46 15.5t-39.5 4h-47v13h567v-13h-98q-53 0 -74.5 -17t-21.5 -52q0 -28 18 -80l385 -1137q39 104 131.5 359.5t136.5 371.5q142 375 142 480q0 46 -26.5 60.5t-69.5 14.5h-70v13h391v-13z" />
    <glyph glyph-name="X" unicode="X" horiz-adv-x="1568" 
d="M1538 0h-588v12h78q96 0 96 60q0 25 -32 71l-363 551q-34 -45 -81 -106.5t-75.5 -99t-66 -86.5t-60 -80t-49 -68t-41 -61t-28.5 -48t-19.5 -40.5t-5.5 -28.5q0 -26 15.5 -41.5t29.5 -19t27 -3.5h92v-12h-436v12h71q20 10 55.5 39.5t114 110.5t174.5 196q57 69 275 351
l-375 571q-51 76 -82.5 111t-75 54.5t-110.5 22.5v13h561v-13h-107q-63 0 -63 -53q0 -26 37 -86l321 -500q52 70 169 235.5t159 231.5q43 69 43 113q0 37 -25 48t-79 11h-76v13h450v-13h-57q-81 -28 -151.5 -98.5t-153.5 -183.5q-42 -58 -102.5 -142.5t-98.5 -137t-67 -89.5
l391 -594q20 -31 37.5 -55t47 -55t58.5 -51.5t68 -35t80 -14.5h18v-12z" />
    <glyph glyph-name="Y" unicode="Y" horiz-adv-x="1456" 
d="M1456 1468h-59q-47 -22 -88 -64t-92 -130l-193 -328l-197 -332v-483q0 -62 33 -90.5t107 -28.5h65v-12h-569v12h67q74 0 106 29.5t32 89.5v467l-432 725q-15 26 -23 38t-29.5 35.5t-43 35t-58.5 23t-82 13.5v13h549v-13h-78q-34 0 -59 -17t-25 -46q0 -22 23 -62l411 -710
l187 317q79 134 135 244q71 142 71 203q0 71 -100 71h-51v13h393v-13z" />
    <glyph glyph-name="Z" unicode="Z" horiz-adv-x="1316" 
d="M274 12h144h50h56.5t55 0.5t61.5 1t58 2t62 4t57 5.5t59 7.5t51.5 10t50.5 12.5q85 18 128.5 59.5t72.5 104.5l30 121h13q-13 -62 -36.5 -189.5t-27.5 -150.5h-1065v20l895 1448h-254q-146 0 -233.5 -6.5t-148 -25.5t-92.5 -45.5t-64 -75.5l-19 -154h-12l18 320h987v-27z
" />
    <glyph glyph-name="bracketleft" unicode="[" horiz-adv-x="780" 
d="M606 -340h-446v1892h446v-12h-168q-41 0 -67.5 -10.5t-36.5 -30t-12.5 -33t-2.5 -34.5v-1643q0 -18 1 -29.5t7.5 -30t18 -29.5t35.5 -19.5t57 -8.5h168v-12z" />
    <glyph glyph-name="backslash" unicode="\" horiz-adv-x="1134" 
d="M1157 -190l-1198 1822l18 13l1199 -1823z" />
    <glyph glyph-name="bracketright" unicode="]" horiz-adv-x="780" 
d="M621 -340h-447v12h168q33 0 57 8.5t35.5 19.5t18 29.5t7.5 30t1 29.5v1643q0 21 -2.5 34.5t-12.5 33t-36.5 30t-67.5 10.5h-168v12h447v-1892z" />
    <glyph glyph-name="asciicircum" unicode="^" 
d="M926 1176h-39l-357 284l-356 -284h-39l395 317z" />
    <glyph glyph-name="underscore" unicode="_" horiz-adv-x="1175" 
d="M1198 -416h-1221v21h1221v-21z" />
    <glyph glyph-name="grave" unicode="`" horiz-adv-x="659" 
d="M49 1442q0 51 47 51q25 0 47 -13t62 -53l260 -262h-31q-203 124 -301 187q-84 51 -84 90z" />
    <glyph glyph-name="a" unicode="a" horiz-adv-x="962" 
d="M868 14q27 0 49.5 28.5t32.5 80.5h13q-13 -81 -50.5 -113.5t-95.5 -32.5q-149 0 -149 222q-66 -71 -127 -118.5t-111.5 -68.5t-85 -28t-70.5 -7q-113 0 -171 57t-58 148q0 272 565 381l58 10v111q0 161 -56.5 237t-203.5 76q-69 0 -120.5 -27t-51.5 -81q0 -20 8 -40.5
t8 -37.5q0 -34 -20 -56t-58 -22q-31 0 -51.5 23t-20.5 59q0 77 92 136t226 59q78 0 141.5 -15.5t118.5 -50.5t86 -101t31 -159v-549q0 -121 71 -121zM668 217v344q-103 -19 -180.5 -43.5t-147 -64.5t-106.5 -101.5t-37 -142.5q0 -91 46 -134.5t119 -43.5q70 0 157.5 59
t148.5 127z" />
    <glyph glyph-name="b" unicode="b" horiz-adv-x="1146" 
d="M1096 524q0 -113 -29 -206t-77.5 -155t-114.5 -105t-137 -62t-148 -19q-184 0 -316 121q-7 -16 -32.5 -61.5t-32.5 -59.5h-12v1459q0 41 -10 57.5t-42.5 24t-111.5 8.5v12q159 9 293 76v-711q73 59 154 83t147 24q97 0 181 -30.5t148.5 -89.5t102 -153t37.5 -213z
M944 504q0 72 -13.5 138.5t-43 127t-72.5 105.5t-107 71.5t-141 26.5q-141 0 -241 -82v-668q0 -79 42 -134t100.5 -77t125.5 -22q68 0 129.5 32t111.5 93t79.5 161.5t29.5 227.5z" />
    <glyph glyph-name="c" unicode="c" horiz-adv-x="901" 
d="M541 14q104 0 189 58.5t138 183.5l13 -4q-112 -275 -375 -275q-94 0 -176.5 34.5t-144.5 97.5t-98 159.5t-36 214.5q0 82 18 158t57 143.5t95 117.5t136.5 79t177.5 29q137 0 220 -49.5t83 -120.5q0 -47 -21.5 -69.5t-54.5 -22.5q-86 0 -86 90q0 8 3 29.5t3 33.5
q0 37 -42.5 66.5t-113.5 29.5q-53 0 -98.5 -15.5t-87.5 -52.5t-72 -94.5t-47.5 -147.5t-17.5 -204q0 -119 26.5 -211t73.5 -147t107 -83t131 -28z" />
    <glyph glyph-name="d" unicode="d" horiz-adv-x="1142" 
d="M1110 0h-293v119q-49 -58 -133 -100t-180 -42q-54 0 -110.5 13.5t-119.5 49.5t-111 90.5t-80 146t-32 206.5q0 117 39.5 215.5t108 165.5t161 105.5t197.5 40.5q128 0 260 -49v477q0 39 -10 55.5t-43 24t-111 8.5v12q161 8 293 76v-1505q0 -51 21.5 -74t83.5 -23h59v-12z
M817 133v731q-29 68 -97.5 100.5t-152.5 32.5q-178 0 -271 -127t-93 -370q0 -115 23 -204t59 -141t85.5 -85t96.5 -44.5t98 -11.5q133 0 252 119z" />
    <glyph glyph-name="e" unicode="e" horiz-adv-x="931" 
d="M498 1010q94 0 169 -37t120 -99t68.5 -136t25.5 -154h-678q0 -142 20.5 -248.5t51.5 -166.5t76.5 -96t86.5 -47.5t90 -11.5q204 0 332 203l10 -6q-137 -234 -381 -234q-58 0 -115.5 14.5t-117 51.5t-104 93t-73 146.5t-28.5 204.5q0 239 119.5 381t327.5 142zM203 596
h534q0 111 -26 199t-85.5 145t-144.5 57q-252 0 -278 -401z" />
    <glyph glyph-name="f" unicode="f" horiz-adv-x="673" 
d="M694 1499q0 -34 -17.5 -57t-53.5 -23q-35 0 -57 23.5t-25 66.5q-1 22 -4 34.5t-16.5 25t-39.5 12.5q-42 0 -73.5 -50t-49 -129t-26 -163t-8.5 -166v-88h278v-20h-278v-856q0 -55 20 -76t82 -21h61v-12h-456v12h61q63 0 83 20t20 77v856h-164v20h164q0 245 59 387
q49 118 128.5 174t178.5 56q58 0 95.5 -30.5t37.5 -72.5z" />
    <glyph glyph-name="g" unicode="g" horiz-adv-x="1058" 
d="M1059 1102q0 -34 -20 -58t-54 -24q-55 0 -74 49q0 1 -3.5 9t-4 9t-3.5 6.5t-6 6.5t-8 2.5t-12 1.5q-9 0 -20.5 -10.5t-24 -28.5t-22.5 -35t-22 -39t-17 -30q201 -89 201 -275q0 -78 -30 -140t-76 -99t-107 -61.5t-117.5 -34t-112.5 -9.5h-41q-98 0 -133 -6
q-46 -8 -69 -34.5t-23 -55.5q0 -22 8.5 -39.5t27 -30t34.5 -21.5t46 -16.5t44.5 -10.5t46.5 -9l178 -33q379 -65 379 -264q0 -45 -12.5 -85t-47 -81t-88.5 -70.5t-144 -48t-206 -18.5q-122 0 -215 17t-147 43t-87.5 62t-45 69t-11.5 69q0 90 74 159.5t238 98.5
q-67 17 -111.5 57.5t-44.5 102.5q0 66 56 110t157 45q-140 35 -218.5 124t-78.5 210q0 150 118 237t320 87q121 0 226 -45q4 7 23 44.5t33.5 60t38.5 52.5t54 45t64 15q37 0 63.5 -24t26.5 -56zM817 682q0 90 -23.5 154t-66 99t-93 50.5t-112.5 15.5q-67 0 -118 -21.5
t-80.5 -54.5t-48 -79.5t-25 -89t-6.5 -90.5q0 -29 4.5 -61.5t22.5 -79.5t46 -83t82 -62t125 -26q73 0 130.5 27.5t92 74t52.5 104t18 122.5zM924 -236q0 30 -13 59t-43 59t-87 55t-136 40l-299 54q-99 -21 -165 -84.5t-66 -153.5q0 -262 420 -262q191 0 290 63.5t99 169.5z
" />
    <glyph glyph-name="h" unicode="h" horiz-adv-x="1148" 
d="M1116 0h-457v12h62q62 0 82 21.5t20 75.5v557q0 61 -8.5 109.5t-21.5 80.5t-33.5 54.5t-39.5 34.5t-46 18.5t-45.5 8t-44.5 1.5q-112 0 -258 -99v-765q0 -59 19 -78t83 -19h61v-12h-456v12h59q62 0 83.5 20t21.5 77v1331q0 37 -11.5 53.5t-44.5 24t-108 8.5v12
q167 11 293 76v-725q163 121 317 121q61 0 109 -12.5t80 -32.5t55 -51.5t35 -62t19.5 -72t9 -73t1.5 -73.5v-524q0 -54 20.5 -75.5t82.5 -21.5h61v-12z" />
    <glyph glyph-name="i" unicode="i" horiz-adv-x="522" 
d="M489 0h-456v12h61q62 0 82.5 21t20.5 76v722q0 59 -27.5 74.5t-136.5 16.5v12q158 10 293 76v-901q0 -54 20 -75.5t82 -21.5h61v-12zM358 1315q0 -38 -27.5 -67t-70.5 -29q-41 0 -68.5 29t-27.5 67q0 40 27 69t69 29q43 0 70.5 -29t27.5 -69z" />
    <glyph glyph-name="j" unicode="j" horiz-adv-x="544" 
d="M219 831q0 58 -28 74t-136 17v12q163 13 293 76v-1030q0 -122 -31.5 -214.5t-83.5 -144.5t-112 -77t-125 -25q-70 0 -115 37t-45 92q0 34 19.5 57t56.5 23q33 0 52.5 -18.5t19.5 -47.5q0 -8 -4.5 -29t-4.5 -28q0 -37 17.5 -55.5t44.5 -18.5q21 0 39 4t46.5 25t48 57
t34 107.5t14.5 169.5v937zM377 1315q0 -38 -27.5 -67t-70.5 -29q-41 0 -69 29t-28 67q0 39 27.5 68.5t69.5 29.5q43 0 70.5 -29t27.5 -69z" />
    <glyph glyph-name="k" unicode="k" horiz-adv-x="1116" 
d="M197 1440q0 35 -9 51t-44.5 25t-110.5 10v12q162 11 293 76v-1274q287 325 366 434q44 61 62 91t18 50q0 33 -27 45.5t-88 12.5h-24v12h368v-12h-26q-32 0 -63 -18.5t-103 -90.5q-25 -25 -56.5 -59.5t-87.5 -97.5t-96 -107l381 -502q41 -54 76.5 -70t81.5 -16h8v-12h-465
v12h60q92 0 92 54q0 27 -23 57l-288 387l-166 -184v-217q0 -58 20 -77.5t82 -19.5h61v-12h-456v12h61q63 0 83 19t20 78v1331z" />
    <glyph glyph-name="l" unicode="l" horiz-adv-x="522" 
d="M197 1440q0 35 -9 51t-44.5 25t-110.5 10v12q153 10 293 76v-1505q0 -55 18.5 -76t81.5 -21h63v-12h-456v12h61q56 0 79.5 22.5t23.5 74.5v1331z" />
    <glyph glyph-name="m" unicode="m" horiz-adv-x="1697" 
d="M618 1010q175 0 252 -125q70 54 157.5 89.5t168.5 35.5q76 0 136 -22t93 -58q27 -29 44 -65.5t23 -79.5t7.5 -68.5t1.5 -65.5v-542q0 -54 19.5 -75.5t83.5 -21.5h61v-12h-436v12h41q59 0 80.5 22t21.5 75v522q0 3 0.5 36t0 46t-3 45t-8 51.5t-15.5 45t-25 44.5
q-60 74 -186 74q-52 0 -124 -28t-134 -73q36 -70 36 -184v-579q0 -54 19.5 -75.5t83.5 -21.5h41v-12h-416v12h41q59 0 80.5 22t21.5 75v579q0 160 -58.5 222.5t-168.5 62.5q-117 0 -231 -84v-780q0 -54 19 -75.5t83 -21.5h41v-12h-436v12h59q60 0 82.5 22t22.5 75v722
q0 58 -28 74t-136 17v12q165 16 293 76v-107q133 107 292 107z" />
    <glyph glyph-name="n" unicode="n" horiz-adv-x="1148" 
d="M1116 0h-457v12h62q62 0 82 21.5t20 75.5v557q0 61 -8.5 109.5t-21.5 80.5t-33.5 54.5t-39.5 34.5t-46 18.5t-45.5 8t-44.5 1.5q-112 0 -258 -99v-765q0 -59 19 -78t83 -19h61v-12h-456v12h59q62 0 83.5 20t21.5 77v722q0 58 -28 74t-136 17v12q151 9 293 76v-121
q163 121 317 121q61 0 109 -12.5t80 -32.5t55 -51.5t35 -62t19.5 -72t9 -73t1.5 -73.5v-524q0 -54 20.5 -75.5t82.5 -21.5h61v-12z" />
    <glyph glyph-name="o" unicode="o" 
d="M1010 492q0 -229 -136 -372t-344 -143q-209 0 -344 141.5t-135 373.5q0 251 132.5 384.5t346.5 133.5q105 0 191 -31t151.5 -92.5t101.5 -162t36 -232.5zM858 492q0 139 -27.5 241t-75 157.5t-103.5 81t-122 25.5q-53 0 -99 -15t-88.5 -51.5t-73 -93t-48.5 -144.5
t-18 -201q0 -139 27 -240t74.5 -156.5t103 -80.5t122.5 -25q66 0 122 25t103.5 80.5t75 156.5t27.5 240z" />
    <glyph glyph-name="p" unicode="p" horiz-adv-x="1130" 
d="M928 489q0 247 -89.5 365.5t-254.5 118.5q-123 0 -258 -115v-790q83 -54 235 -54q161 0 264 124.5t103 350.5zM197 831q0 58 -28 74t-136 17v12q143 9 293 76v-140q57 57 137 98.5t170 41.5q63 0 122.5 -15t119.5 -52.5t104 -94.5t72 -147.5t28 -204.5q0 -143 -54 -259
t-163 -187t-256 -73q-162 0 -280 78v-407q0 -59 18.5 -78t83.5 -19h61v-12h-456v12h59q63 0 84 20t21 77v1183z" />
    <glyph glyph-name="q" unicode="q" horiz-adv-x="1132" 
d="M1100 -461h-457v12h59q63 0 84 20t21 77v407q-34 -26 -113 -52t-170 -26q-64 0 -125 12.5t-126 47t-112.5 88t-78.5 143.5t-31 205q0 128 39 231.5t107 169.5t157 101t191 35q105 0 171.5 -26t135.5 -95l72 121h12v-1362q0 -59 18.5 -78t83.5 -19h62v-12zM807 68v694
q0 16 -0.5 28t-5.5 38t-14.5 46t-29 44.5t-46 40.5t-69.5 27t-97 11q-87 0 -154 -39.5t-107.5 -110.5t-60.5 -161.5t-20 -198.5q0 -126 32.5 -220.5t88.5 -148t122 -79t142 -25.5q128 0 219 54z" />
    <glyph glyph-name="r" unicode="r" horiz-adv-x="778" 
d="M197 831q0 58 -28 74t-136 17v12q152 11 293 76v-240q34 115 103.5 177.5t160.5 62.5q71 0 109 -35.5t38 -83.5q0 -42 -24 -64t-56 -22q-28 0 -47.5 16t-19.5 43q0 7 2 18t2 17q0 38 -18.5 54t-61.5 16q-48 0 -92.5 -48t-70 -116.5t-25.5 -132.5v-563q0 -57 20.5 -77
t83.5 -20h59v-12h-456v12h59q63 0 84 20t21 77v722z" />
    <glyph glyph-name="s" unicode="s" horiz-adv-x="833" 
d="M752 258q0 -124 -84 -202.5t-246 -78.5q-145 0 -318 84v-61h-12q-1 47 -5 131t-5 127h12q31 -114 131.5 -191t206.5 -77q94 0 151.5 62t57.5 145q0 32 -11.5 62t-27.5 51t-42.5 42.5t-46.5 34t-50 29.5l-144 80q-110 61 -157 120t-47 142q0 67 26.5 118t69.5 79
t90.5 41.5t97.5 13.5q131 0 283 -82l-2 55h12q1 -47 5 -131t5 -127h-10l-4 43q-13 36 -33.5 70.5t-54 73t-85 62t-112.5 23.5q-82 0 -126 -49t-44 -117q0 -62 25.5 -99t69.5 -66q38 -26 145 -78q137 -68 208 -143t71 -187z" />
    <glyph glyph-name="t" unicode="t" horiz-adv-x="765" 
d="M530 14q63 0 130.5 45.5t113.5 155.5l12 -4q-35 -95 -109 -164.5t-183 -69.5q-136 0 -207.5 77.5t-71.5 219.5v699h-205v12h56q72 10 125.5 55.5t82 113.5t42 138.5t14.5 147.5h14v-455h59q188 0 277 19l6 -31h-342v-729q0 -124 52 -177t134 -53z" />
    <glyph glyph-name="u" unicode="u" horiz-adv-x="1142" 
d="M1110 0h-293v119q-168 -142 -338 -142q-81 0 -139 27.5t-87.5 74t-42.5 96t-13 106.5v550q0 40 -9.5 56.5t-43.5 25t-111 9.5v12q158 10 293 76v-734q0 -70 16 -121t38.5 -77.5t57 -41.5t60 -18.5t59.5 -3.5q59 0 130.5 35t129.5 84v698q0 40 -9.5 56.5t-43.5 25
t-111 9.5v12q153 12 293 76v-901q0 -51 21.5 -74t83.5 -23h59v-12z" />
    <glyph glyph-name="v" unicode="v" horiz-adv-x="1054" 
d="M1055 973h-66q-49 -44 -88.5 -119.5t-126.5 -294.5q-26 -65 -72 -183.5t-84 -216.5t-73 -182h-13q-62 150 -187.5 447t-186.5 446q-40 103 -125 103h-33v12h446v-12h-55q-96 0 -96 -74q0 -19 24 -82l277 -676q18 48 75.5 193.5t80.5 208.5q104 278 104 344q0 54 -22 70
t-80 16h-31v12h332v-12z" />
    <glyph glyph-name="w" unicode="w" horiz-adv-x="1566" 
d="M1567 973h-60q-43 -34 -91.5 -123.5t-135.5 -321.5l-195 -551h-20l-268 699q-17 -46 -265 -699h-20l-373 910q-32 86 -125 86h-14v12h375v-12h-13q-94 0 -94 -62q0 -20 8 -41l299 -739l213 565l-69 189q-11 29 -25.5 48t-33.5 27t-34.5 10.5t-39.5 2.5h-15v12h377v-12
h-14q-54 0 -74 -11.5t-20 -39.5q0 -11 10.5 -44t75 -208.5t200.5 -538.5l150 428q94 268 94 352q0 33 -19.5 47.5t-62.5 14.5h-47v12h326v-12z" />
    <glyph glyph-name="x" unicode="x" horiz-adv-x="1105" 
d="M1096 0h-488v12h70q39 0 62.5 15t23.5 45q0 27 -25 63l-227 326q-25 -35 -94 -124.5t-101 -135.5q-55 -82 -55 -117q0 -72 115 -72h24v-12h-391v12h41q42 0 86 31.5t111 108.5q19 21 90 108q81 101 166 211l-281 385q-31 42 -48 61.5t-51.5 36.5t-82.5 19v12h444v-12h-73
q-34 0 -48 -10t-14 -33q0 -22 25 -60l211 -307l65 84.5t66 87t49 69t39.5 67.5t11.5 47q0 55 -69 55h-58v12h348v-12h-22q-51 0 -96.5 -36t-143.5 -149l-182 -233l317 -446q59 -92 185 -97v-12z" />
    <glyph glyph-name="y" unicode="y" horiz-adv-x="1077" 
d="M1077 973h-14q-43 0 -66 -18.5t-45 -57.5q-36 -78 -75 -180l-150 -414q-77 -205 -143 -364q-7 -17 -29 -71t-32.5 -78t-29 -63.5t-35.5 -67.5t-36 -52q-71 -88 -178 -88q-71 0 -114.5 34.5t-43.5 92.5q0 38 23.5 60t54.5 22q34 0 56 -17.5t22 -52.5q0 -10 -1 -24.5
t-1 -24t2 -15.5q10 -38 61 -38q54 0 105 63q74 98 163 340l-409 922q-9 22 -16 34.5t-22 28t-39.5 22.5t-59.5 7h-25v12h434v-12h-59q-76 0 -76 -60q0 -21 12 -49l328 -755q252 687 252 768q0 96 -82 96h-49v12h317v-12z" />
    <glyph glyph-name="z" unicode="z" horiz-adv-x="813" 
d="M774 231l-18 -231h-756v20l631 953q-98 0 -160.5 -1.5t-136 -9t-119 -20.5t-83.5 -37t-56 -59l-10 -94h-13l15 233h704v-16l-625 -957h142q80 0 150 6.5t141.5 22t117.5 47.5t56 78l8 65h12z" />
    <glyph glyph-name="braceleft" unicode="{" horiz-adv-x="696" 
d="M92 569v13q211 16 211 409q0 32 -7 126t-7 124q0 20 1 36t7 48t17 58t34 59t54.5 57.5t81.5 46t112 31.5l2 -12q-41 -12 -65 -23.5t-50.5 -34.5t-38.5 -62t-12 -97t11.5 -171t11.5 -171q0 -166 -77 -272t-235 -159q158 -53 235 -158.5t77 -271.5q0 -59 -11.5 -171
t-11.5 -171q0 -58 12 -97t38.5 -62t50.5 -34.5t65 -23.5l-2 -12q-62 10 -112 31.5t-81.5 46t-54.5 57.5t-34 59t-17 58t-7 48t-1 36q0 30 7 124t7 126q0 393 -211 409z" />
    <glyph glyph-name="bar" unicode="|" horiz-adv-x="430" 
d="M225 -190h-20v1671h20v-1671z" />
    <glyph glyph-name="braceright" unicode="}" horiz-adv-x="696" 
d="M604 582v-13q-211 -16 -211 -409q0 -32 7.5 -126t7.5 -124q0 -19 -1 -35.5t-7.5 -48.5t-17.5 -58t-34 -59t-54.5 -57.5t-81.5 -46t-112 -31.5l-2 12q41 12 65 23.5t50.5 34.5t38.5 62t12 97q0 59 -11 171t-11 171q0 166 77 271.5t234 158.5q-157 53 -234 158.5t-77 272.5
q0 58 11 171t11 171t-12 97t-38.5 62t-50.5 34.5t-65 23.5l2 12q62 -10 112 -31.5t81.5 -46t54.5 -57.5t34 -59t17.5 -58t7.5 -48.5t1 -35.5q0 -30 -7.5 -124t-7.5 -126q0 -393 211 -409z" />
    <glyph glyph-name="asciitilde" unicode="~" 
d="M791 676q123 0 196 115h12q-36 -88 -110.5 -147.5t-165.5 -59.5q-85 0 -215 53q-113 45 -160.5 58.5t-79.5 13.5q-119 0 -194 -115h-13q37 85 112 146t163 61q73 0 182 -41q137 -51 188.5 -67.5t84.5 -16.5z" />
    <glyph glyph-name="uni00A0" unicode="&#xa0;" horiz-adv-x="450" 
 />
    <glyph glyph-name="exclamdown" unicode="&#xa1;" horiz-adv-x="565" 
d="M180 -451l2 -4v2zM285 -479q-44 0 -71 14.5t-32 36.5q49 336 76 672q4 47 8 139t8 197t5 127h12q1 -14 7.5 -213t10.5 -250q18 -233 76 -672q-6 -21 -34 -36t-66 -15zM381 971q0 -40 -27.5 -69.5t-68.5 -29.5q-39 0 -69 29t-30 70q0 40 30 67t69 27q41 0 68.5 -27.5
t27.5 -66.5z" />
    <glyph glyph-name="cent" unicode="&#xa2;" 
d="M592 -201h-12v178q-92 3 -172 38.5t-140 98t-94.5 157.5t-34.5 210q0 100 28.5 190.5t82.5 162.5t139 118.5t191 55.5v200h12v-200q12 2 39 2q137 0 218 -49t81 -121q0 -47 -21.5 -69.5t-54.5 -22.5q-86 0 -86 90q0 8 3 29.5t3 33.5q0 37 -40.5 66.5t-110.5 29.5
q-5 0 -15.5 -1t-15.5 -1v-979q12 -2 37 -2q104 0 189 58.5t138 183.5l13 -4q-112 -275 -375 -275h-2v-178zM291 481q0 -213 79.5 -329t209.5 -136v977q-60 -8 -110 -39t-91 -89.5t-64.5 -156.5t-23.5 -227z" />
    <glyph glyph-name="sterling" unicode="&#xa3;" 
d="M59 793h224q0 140 2 249q2 224 101.5 347.5t297.5 123.5q112 0 178 -56.5t66 -137.5q0 -43 -24 -76t-64 -33q-36 0 -54 20.5t-18 47.5q0 25 13 44t28 28t28 23t13 30q0 35 -41 66.5t-117 31.5q-181 0 -239 -180q-17 -51 -23 -113t-5 -111.5t4.5 -144.5t4.5 -159h322v-13
h-322q0 -116 -4 -184q-5 -95 -32.5 -178.5t-71.5 -147t-93.5 -111t-107.5 -85.5v-13l92 35q130 45 232 45q56 0 113.5 -12.5t85 -22.5t79.5 -32q81 -33 150 -33q55 0 103.5 58.5t47.5 181.5h12q1 -100 -28.5 -165t-73.5 -98q-63 -47 -201 -47q-16 0 -34.5 2t-31.5 4t-37 7.5
t-33 7.5t-39 10t-36 10q-172 47 -264 47q-125 0 -246 -47v17q70 25 113 71q73 80 117 213q18 55 26 129.5t9.5 137.5t1.5 200h-224v13z" />
    <glyph glyph-name="currency" unicode="&#xa4;" horiz-adv-x="1085" 
d="M59 668q0 97 36 183.5t100 152.5l-187 190l15 16l186 -190q66 63 152.5 98t181.5 35q191 0 334 -133l186 190l14 -16l-186 -188q137 -144 137 -338q0 -199 -139 -338l188 -189l-14 -16l-189 188q-142 -129 -331 -129q-195 0 -332 131l-188 -190l-15 16l187 189
q-136 142 -136 338zM80 668q0 -192 135.5 -327.5t327.5 -135.5t328.5 135.5t136.5 327.5t-136.5 328.5t-328.5 136.5t-327.5 -136.5t-135.5 -328.5z" />
    <glyph glyph-name="yen" unicode="&#xa5;" 
d="M205 424h264v172h-264v12h258l-322 717q-28 62 -79.5 101t-155.5 42v13h549v-13h-78q-84 0 -84 -59q0 -19 20 -66l312 -706l139 313q3 7 100 244q51 122 51 203q0 37 -24 54t-78 17h-51v13h393v-13h-59q-32 -15 -46 -22.5t-40.5 -29t-48 -56t-43.5 -86.5l-140 -328
l-149 -338h272v-12h-272v-172h272v-12h-272v-281q0 -62 32.5 -90.5t106.5 -28.5h66v-12h-570v12h68q74 0 105.5 29t31.5 90v281h-264v12z" />
    <glyph glyph-name="brokenbar" unicode="&#xa6;" horiz-adv-x="430" 
d="M225 795h-20v686h20v-686zM225 -190h-20v686h20v-686z" />
    <glyph glyph-name="section" unicode="&#xa7;" horiz-adv-x="1085" 
d="M997 492q0 -210 -241 -386q41 -41 62 -86t22.5 -63t1.5 -45q0 -54 -23.5 -108t-66.5 -100t-113.5 -74.5t-155.5 -28.5q-119 0 -198.5 49t-79.5 121q0 47 24.5 70.5t61.5 23.5q49 0 68.5 -24.5t19.5 -53.5q0 -3 -1 -19t-1 -38t4.5 -38.5t19 -36.5t50.5 -31t90 -11
q79 0 139.5 61.5t60.5 157.5q0 122 -102 197l-371 288q-92 69 -136 137.5t-44 174.5q0 110 68 209.5t176 175.5q-47 55 -64.5 97.5t-17.5 105.5q0 116 94.5 206t261.5 90q122 0 200.5 -47.5t78.5 -122.5q0 -48 -24.5 -71t-61.5 -23q-49 0 -68.5 24.5t-19.5 51.5l2 59
q0 117 -158 117q-81 0 -147 -61.5t-66 -157.5q0 -58 29 -110.5t116 -116.5l328 -248q59 -46 98 -91t56 -86.5t22.5 -71.5t5.5 -66zM905 403q0 167 -168 293l-397 308q-160 -137 -160 -295q0 -85 35 -149.5t150 -151.5l380 -293q82 63 121 138t39 150z" />
    <glyph glyph-name="dieresis" unicode="&#xa8;" horiz-adv-x="700" 
d="M643 1315q0 -40 -27.5 -68t-68.5 -28t-68.5 28t-27.5 68q0 42 28.5 69t67.5 27t67.5 -27t28.5 -69zM250 1315q0 -40 -27.5 -68t-68.5 -28t-69 28t-28 68q0 42 29 69t68 27t67.5 -27t28.5 -69z" />
    <glyph glyph-name="copyright" unicode="&#xa9;" horiz-adv-x="1533" 
d="M1047 367q-56 -36 -133.5 -50t-131.5 -14q-197 0 -302 115.5t-105 304.5q0 60 12.5 117t43 114.5t76.5 100.5t119.5 69.5t164.5 26.5q117 0 249 -61q0 5 -1 21t-1 22h15q2 -34 7 -104t7 -107h-12l-8 51q-34 73 -103 119.5t-170 46.5q-77 0 -134.5 -33t-91 -91
t-49.5 -130.5t-16 -159.5q0 -204 84 -307t215 -103q89 0 168.5 50.5t110.5 117.5l8 37h12l-26 -201h-13zM20 717q0 152 59 290t159 238.5t238 159.5t290 59t290 -59t238.5 -159.5t159.5 -238.5t59 -290t-59 -290t-159.5 -238t-238.5 -159t-290 -59q-203 0 -374.5 100
t-271.5 271.5t-100 374.5zM41 717q0 -197 97 -364t264 -264t364 -97t364.5 97t265 264t97.5 364t-97.5 364.5t-265 265t-364.5 97.5t-364 -97.5t-264 -265t-97 -364.5z" />
    <glyph glyph-name="ordfeminine" unicode="&#xaa;" horiz-adv-x="696" 
d="M295 1501q-29 0 -56.5 -12.5t-27.5 -36.5q0 -13 5 -27t5 -22q0 -22 -12.5 -34.5t-34.5 -12.5q-21 0 -34 15t-13 36q0 44 54.5 75t119.5 31q248 0 248 -192v-330q0 -71 45 -71q19 0 32.5 18t18.5 47h12q-13 -86 -96 -86q-90 0 -94 125q-105 -125 -246 -125q-65 0 -97 34
t-32 89q0 52 34.5 94t94 69t119 43t127.5 27v66q0 72 -14 104q-21 44 -70 64q-28 12 -88 12zM467 1038v205q-130 -19 -201 -65.5t-71 -139.5q0 -52 26.5 -78t67.5 -26q42 0 93 32.5t85 71.5z" />
    <glyph glyph-name="guillemotleft" unicode="&#xab;" horiz-adv-x="1048" 
d="M68 487q32 19 68.5 43.5t66 45t72.5 53.5t67 52t72 58.5t65.5 54t69.5 58.5t63 53l109 92l10 -8q-178 -219 -336 -377l-125 -125l125 -125q163 -163 336 -376l-10 -9l-109 93q-6 5 -56 47t-62 52t-57.5 47.5t-64 52t-59 47t-65 50t-59 42t-63.5 43.5t-58 36zM481 487
q165 113 275 218l121 114l8 -8q-39 -54 -154 -193l-29 -32q-65 -74 -90 -99q32 -32 90 -98l29 -33q120 -145 154 -192l-8 -8l-121 114q-26 25 -51.5 47.5t-49.5 42t-43 34.5t-41.5 31t-33.5 24t-32 22z" />
    <glyph glyph-name="logicalnot" unicode="&#xac;" 
d="M1042 449h-20v233h-1006v20h1026v-253z" />
    <glyph glyph-name="uni00AD" unicode="&#xad;" horiz-adv-x="708" 
d="M102 565v21h504v-21h-504z" />
    <glyph glyph-name="registered" unicode="&#xae;" horiz-adv-x="1234" 
d="M61 907q0 113 44 216t118 178t177 119t216 44q151 0 279.5 -74.5t203.5 -203t75 -279.5t-75 -279t-203.5 -202t-279.5 -74q-113 0 -216 44t-177 118t-118 177t-44 216zM82 907q0 -146 71 -269t194 -194t269 -71t269.5 71t195.5 194t72 269t-72 269.5t-195.5 195.5
t-269.5 72t-269 -72t-194 -195.5t-71 -269.5zM866 657q14 0 22.5 10t8.5 23h12q0 -23 -16.5 -42t-54.5 -19q-41 0 -70 36t-63 109q-24 52 -48 82q-58 66 -147 66v-226q0 -24 12 -34.5t39 -10.5h27v-12h-215v12h24q29 0 40.5 10.5t11.5 34.5v445q0 29 -10.5 36t-41.5 7h-24
v12h86q24 0 81 4t83 4q206 0 206 -137q0 -69 -56.5 -109t-137.5 -40l-31 2v-7q107 -27 176 -133q27 -42 39 -80q21 -43 47 -43zM758 1063q0 129 -146 129q-52 0 -102 -21v-235q41 -8 100 -8q67 0 107.5 36.5t40.5 98.5z" />
    <glyph glyph-name="macron" unicode="&#xaf;" horiz-adv-x="841" 
d="M711 1192h-580v20h580v-20z" />
    <glyph glyph-name="degree" unicode="&#xb0;" horiz-adv-x="630" 
d="M106 1296q0 91 62.5 154t153.5 63t154 -63t63 -154t-63 -153t-154 -62t-153.5 62t-62.5 153zM127 1296q0 -82 56.5 -138t138.5 -56t139 56t57 138t-57 139.5t-139 57.5t-138.5 -57.5t-56.5 -139.5z" />
    <glyph glyph-name="plusminus" unicode="&#xb1;" 
d="M1044 690h-503v-459h-21v459h-502v21h502v442h21v-442h503v-21zM1044 88h-1028v21h1028v-21z" />
    <glyph glyph-name="twosuperior" unicode="&#xb2;" horiz-adv-x="696" 
d="M602 766l-16 -166h-527v12l224 242q106 113 161.5 205.5t55.5 195.5q0 128 -57 187t-138 59q-115 0 -115 -84q0 -8 5.5 -25t5.5 -24q0 -25 -16 -38t-40 -13q-21 0 -36 15t-15 46q0 54 58.5 94.5t160.5 40.5q136 0 209.5 -65.5t73.5 -185.5q0 -76 -53 -152.5t-142 -165.5
l-270 -270h295q85 0 120 15.5t40 49.5l4 27h12z" />
    <glyph glyph-name="threesuperior" unicode="&#xb3;" horiz-adv-x="696" 
d="M651 866q0 -122 -81 -197t-234 -75q-122 0 -190 50.5t-68 111.5q0 30 15.5 43.5t37.5 13.5q21 0 36 -14t15 -41q0 -14 -6 -33t-6 -39q0 -36 48.5 -59t107.5 -23q55 0 95.5 18.5t62 45.5t34.5 67.5t16 72.5t3 73q0 63 -15.5 107t-36 66t-54.5 34t-55 14t-54 2
q-46 0 -82 -8v30q41 -10 96 -10q79 0 132.5 53.5t53.5 141.5q0 92 -43.5 142.5t-130.5 47.5q-100 -3 -121 -53q-7 -5 -2.5 -33.5t4.5 -32.5q0 -27 -15.5 -40t-37.5 -13q-21 0 -36 15.5t-15 46.5q0 45 53.5 83.5t169.5 38.5q80 0 137 -17.5t86.5 -47.5t42.5 -62.5t13 -70.5
q0 -72 -63 -131t-163 -68v-4q106 -11 178 -75t72 -171z" />
    <glyph glyph-name="acute" unicode="&#xb4;" horiz-adv-x="659" 
d="M610 1442q0 -39 -84 -90l-301 -187h-30l260 262q41 41 62 53.5t46 12.5q47 0 47 -51z" />
    <glyph glyph-name="mu" unicode="&#xb5;" horiz-adv-x="1142" 
d="M1110 0h-293v119q-168 -142 -338 -142q-106 0 -175 58.5t-89 173.5h-6q8 -196 47 -377q25 -119 25 -143q0 -61 -24.5 -85t-51.5 -24t-51.5 24t-24.5 85q0 24 25 143q43 215 43 428v571q0 40 -9.5 56.5t-43.5 25t-111 9.5v12q158 10 293 76v-734q0 -70 16 -121t38.5 -77.5
t57 -41.5t60 -18.5t59.5 -3.5q59 0 130.5 35t129.5 84v698q0 40 -9.5 56.5t-43.5 25t-111 9.5v12q153 12 293 76v-901q0 -51 21.5 -74t83.5 -23h59v-12z" />
    <glyph glyph-name="mu" unicode="&#x3bc;" horiz-adv-x="1142" 
d="M1110 0h-293v119q-168 -142 -338 -142q-106 0 -175 58.5t-89 173.5h-6q8 -196 47 -377q25 -119 25 -143q0 -61 -24.5 -85t-51.5 -24t-51.5 24t-24.5 85q0 24 25 143q43 215 43 428v571q0 40 -9.5 56.5t-43.5 25t-111 9.5v12q158 10 293 76v-734q0 -70 16 -121t38.5 -77.5
t57 -41.5t60 -18.5t59.5 -3.5q59 0 130.5 35t129.5 84v698q0 40 -9.5 56.5t-43.5 25t-111 9.5v12q153 12 293 76v-901q0 -51 21.5 -74t83.5 -23h59v-12z" />
    <glyph glyph-name="paragraph" unicode="&#xb6;" horiz-adv-x="921" 
d="M698 -207h-20v1688h20v-1688zM424 -207h-21v1182h-18q-131 0 -210 65t-79 189q0 120 79.5 186t209.5 66h39v-1688z" />
    <glyph glyph-name="periodcentered" unicode="&#xb7;" horiz-adv-x="450" 
d="M322 580q0 -39 -28 -67t-69 -28q-39 0 -67.5 27.5t-28.5 67.5q0 41 28.5 69.5t67.5 28.5q41 0 69 -29t28 -69z" />
    <glyph glyph-name="cedilla" unicode="&#xb8;" horiz-adv-x="620" 
d="M272 -418q-90 0 -170 39l4 10q76 -37 154 -37q79 0 117.5 41.5t38.5 98.5q0 58 -29 84t-88 26q-25 0 -66 -12l-12 6l76 182h16l-69 -170q56 21 116 21q66 0 112 -30t46 -91q0 -76 -72 -122t-174 -46z" />
    <glyph glyph-name="onesuperior" unicode="&#xb9;" horiz-adv-x="696" 
d="M502 596h-318v12h31q17 0 27.5 1.5t25 8t22 23t7.5 41.5v676q-18 -26 -70 -72t-80 -65h-12q98 95 150.5 159.5t83.5 132.5h20v-831q0 -74 80 -74h33v-12z" />
    <glyph glyph-name="ordmasculine" unicode="&#xba;" horiz-adv-x="696" 
d="M674 1198q0 -83 -32 -146.5t-82.5 -98t-104.5 -51.5t-107 -17q-82 0 -147 29t-102.5 76t-56.5 100t-19 108q0 56 19 110t57 101t102.5 75.5t146.5 28.5q41 0 84 -10t87 -34t78 -59t55.5 -90t21.5 -122zM559 1198q0 17 -1 35t-5.5 49.5t-12.5 59t-24 58t-37.5 52t-55 35.5
t-75.5 14q-41 0 -74.5 -13.5t-55 -34t-37.5 -50.5t-24 -57t-13 -58.5t-6 -51t-1 -38.5q0 -20 1 -39t6 -51t13 -58.5t24 -56t37.5 -49.5t55 -33.5t74.5 -13.5q48 0 85.5 17.5t59.5 48.5t36.5 62.5t20 70t7.5 60t2 42.5z" />
    <glyph glyph-name="guillemotright" unicode="&#xbb;" horiz-adv-x="1048" 
d="M981 487q-76 -45 -173 -117t-168 -130t-171 -142q-7 -6 -11 -9.5t-10.5 -9t-11.5 -9.5l-108 -93l-11 9q173 213 336 376l125 125l-125 125q-158 158 -336 377l11 8l108 -92q8 -7 56 -47t61.5 -51.5t58 -48.5t64.5 -52.5t59.5 -47t64.5 -49.5t59 -42.5t63.5 -43.5
t58.5 -36zM567 487q-165 -113 -274 -217l-121 -114l-8 8q40 56 153 192l29 33q58 66 90 98q-25 25 -90 99l-29 32q-108 130 -153 193l8 8l121 -114q20 -19 40 -37t39.5 -34.5t35 -29.5t34.5 -27.5t30 -23t29.5 -21t24.5 -17t23 -16t18 -12.5z" />
    <glyph glyph-name="onequarter" unicode="&#xbc;" horiz-adv-x="1683" 
d="M985 207h361v358q15 13 47 35t45 33v-426h102v-12h-102v-107q0 -44 20 -60t64 -16h18v-12h-307v12h29q54 0 69 15t15 61v107h-371v18q48 70 293 506q9 14 110 207l86 -54zM1341 1503l-1007 -1534l-19 13l1008 1534zM500 596h-318v12h31q17 0 27.5 1.5t25 8t22 23
t7.5 41.5v676q-18 -26 -70 -72t-80 -65h-12q98 95 150.5 159.5t83.5 132.5h20v-831q0 -74 80 -74h33v-12z" />
    <glyph glyph-name="onehalf" unicode="&#xbd;" horiz-adv-x="1683" 
d="M1343 1503l-1007 -1534l-19 13l1008 1534zM1597 166l-16 -166h-526v12l223 242q106 113 161.5 205.5t55.5 195.5q0 128 -57 187t-138 59q-114 0 -114 -84q0 -8 5 -25t5 -24q0 -25 -16 -38t-39 -13q-21 0 -36 15t-15 46q0 54 58.5 94.5t160.5 40.5q136 0 209 -65.5
t73 -185.5q0 -76 -53 -153t-141 -165l-271 -270h295q85 0 120 15.5t40 49.5l4 27h12zM500 596h-318v12h31q17 0 27.5 1.5t25 8t22 23t7.5 41.5v676q-18 -26 -70 -72t-80 -65h-12q98 95 150.5 159.5t83.5 132.5h20v-831q0 -74 80 -74h33v-12z" />
    <glyph glyph-name="threequarters" unicode="&#xbe;" horiz-adv-x="1683" 
d="M985 207h361v358q15 13 47 35t45 33v-426h102v-12h-102v-107q0 -44 20 -60t64 -16h18v-12h-307v12h29q54 0 69 15t15 61v107h-371v18q-1 0 41.5 71.5t117.5 200t134 234.5q112 205 110 207l86 -54zM1374 1503l-1007 -1534l-19 13l1008 1534zM651 866q0 -122 -81 -197
t-234 -75q-122 0 -190 50.5t-68 111.5q0 30 15.5 43.5t37.5 13.5q21 0 36 -14t15 -41q0 -14 -6 -33t-6 -39q0 -36 48.5 -59t107.5 -23q55 0 95.5 18.5t62 45.5t34.5 67.5t16 72.5t3 73q0 63 -15.5 107t-36 66t-54.5 34t-55 14t-54 2q-46 0 -82 -8v30q41 -10 96 -10
q79 0 132.5 53.5t53.5 141.5q0 92 -43.5 142.5t-130.5 47.5q-100 -3 -121 -53q-7 -5 -2.5 -33.5t4.5 -32.5q0 -27 -15.5 -40t-37.5 -13q-21 0 -36 15.5t-15 46.5q0 45 53.5 83.5t169.5 38.5q80 0 137 -17.5t86.5 -47.5t42.5 -62.5t13 -70.5q0 -72 -63 -131t-163 -68v-4
q106 -11 178 -75t72 -171z" />
    <glyph glyph-name="questiondown" unicode="&#xbf;" horiz-adv-x="952" 
d="M76 -4q0 66 19 126.5t49 109t82 102.5t103 96.5t128 99.5q30 24 41 33t30 29.5t26 41t7 46.5v65h12v-251q0 -39 -14.5 -62t-46.5 -47q-6 -5 -36.5 -28.5t-42.5 -33t-42 -35t-44.5 -41t-40 -43.5t-39 -50t-31 -53.5t-26.5 -60.5t-15.5 -65t-6.5 -73q0 -72 22.5 -137
t66.5 -117.5t115 -83.5t161 -31q56 0 93 16t51.5 41t19 42t4.5 32q0 13 -4 35t-4 31q0 38 24 62t64 24q38 0 63 -23t25 -67q0 -80 -87.5 -142.5t-244.5 -62.5q-211 0 -346 131.5t-135 343.5zM469 971q0 39 27.5 66.5t68.5 27.5q39 0 69 -27t30 -67q0 -41 -30 -70t-69 -29
q-41 0 -68.5 29.5t-27.5 69.5z" />
    <glyph glyph-name="Agrave" unicode="&#xc0;" horiz-adv-x="1427" 
d="M1427 0h-522v12h66q20 0 34 1.5t33 8t29 22t10 40.5q0 26 -104 330q-39 117 -64 190h-528l-72 -188q-3 -9 -20.5 -54.5t-25.5 -68.5t-20.5 -61.5t-18 -66.5t-5.5 -48q0 -86 76 -105h86v-12h-381v12h57q43 26 81.5 82t99.5 195.5t155 392.5q2 5 293 799h43l498 -1329
q24 -69 60 -104.5t110 -35.5h30v-12zM901 616l-258 709l-258 -709h516zM416 1872q0 51 47 51q25 0 46.5 -12.5t61.5 -52.5l260 -263h-30q-203 124 -301 187q-84 51 -84 90z" />
    <glyph glyph-name="Aacute" unicode="&#xc1;" horiz-adv-x="1427" 
d="M1427 0h-522v12h66q20 0 34 1.5t33 8t29 22t10 40.5q0 26 -104 330q-39 117 -64 190h-528l-72 -188q-3 -9 -20.5 -54.5t-25.5 -68.5t-20.5 -61.5t-18 -66.5t-5.5 -48q0 -86 76 -105h86v-12h-381v12h57q43 26 81.5 82t99.5 195.5t155 392.5q2 5 293 799h43l498 -1329
q24 -69 60 -104.5t110 -35.5h30v-12zM901 616l-258 709l-258 -709h516zM1053 1872q0 -39 -84 -90l-301 -187h-31l260 263q40 40 61.5 52.5t47.5 12.5q47 0 47 -51z" />
    <glyph glyph-name="Acircumflex" unicode="&#xc2;" horiz-adv-x="1427" 
d="M1427 0h-522v12h66q20 0 34 1.5t33 8t29 22t10 40.5q0 26 -104 330q-39 117 -64 190h-528l-72 -188q-3 -9 -20.5 -54.5t-25.5 -68.5t-20.5 -61.5t-18 -66.5t-5.5 -48q0 -86 76 -105h86v-12h-381v12h57q43 26 81.5 82t99.5 195.5t155 392.5q2 5 293 799h43l498 -1329
q24 -69 60 -104.5t110 -35.5h30v-12zM901 616l-258 709l-258 -709h516zM711 1774q-95 -80 -146 -121l-121 -92h-12q38 38 113 127q26 31 60.5 77t55.5 77l21 30h57q79 -114 138 -184q80 -95 112 -127h-12q-72 53 -121 92z" />
    <glyph glyph-name="Atilde" unicode="&#xc3;" horiz-adv-x="1427" 
d="M1427 0h-522v12h66q20 0 34 1.5t33 8t29 22t10 40.5q0 26 -104 330q-39 117 -64 190h-528l-72 -188q-3 -9 -20.5 -54.5t-25.5 -68.5t-20.5 -61.5t-18 -66.5t-5.5 -48q0 -86 76 -105h86v-12h-381v12h57q43 26 81.5 82t99.5 195.5t155 392.5q2 5 293 799h43l498 -1329
q24 -69 60 -104.5t110 -35.5h30v-12zM901 616l-258 709l-258 -709h516zM750 1731q107 -64 157 -64q113 0 189 102l10 -6q-100 -174 -232 -174q-39 0 -77 17t-92 51q-98 63 -158 63q-113 0 -189 -102l-10 6q100 174 232 174q58 0 170 -67z" />
    <glyph glyph-name="Adieresis" unicode="&#xc4;" horiz-adv-x="1427" 
d="M1427 0h-522v12h66q20 0 34 1.5t33 8t29 22t10 40.5q0 26 -104 330q-39 117 -64 190h-528l-72 -188q-3 -9 -20.5 -54.5t-25.5 -68.5t-20.5 -61.5t-18 -66.5t-5.5 -48q0 -86 76 -105h86v-12h-381v12h57q43 26 81.5 82t99.5 195.5t155 392.5q2 5 293 799h43l498 -1329
q24 -69 60 -104.5t110 -35.5h30v-12zM901 616l-258 709l-258 -709h516zM995 1677q0 -40 -27.5 -68t-68.5 -28t-68.5 28t-27.5 68q0 42 28.5 69.5t67.5 27.5t67.5 -27.5t28.5 -69.5zM602 1677q0 -40 -27.5 -68t-68.5 -28t-68.5 28t-27.5 68q0 42 28.5 69.5t67.5 27.5
t67.5 -27.5t28.5 -69.5z" />
    <glyph glyph-name="Aring" unicode="&#xc5;" horiz-adv-x="1427" 
d="M535 1642q0 71 50 122t120 51t121 -51t51 -122q0 -64 -42 -111t-104 -56l496 -1323q24 -69 60 -104.5t110 -35.5h30v-12h-522v12h66q20 0 34 1.5t33 8t29 22t10 40.5q0 26 -104 330q-39 117 -64 190h-528l-72 -188q-3 -9 -20.5 -54.5t-25.5 -68.5t-20.5 -61.5t-18 -66.5
t-5.5 -48q0 -86 76 -105h86v-12h-381v12h57q43 26 81.5 82t99.5 195.5t155 392.5q28 77 289 791q-63 8 -105 55.5t-42 113.5zM901 616l-258 709l-258 -709h516zM555 1642q0 -63 43.5 -106t106.5 -43t107 43t44 106t-44 107.5t-107 44.5t-106.5 -44.5t-43.5 -107.5z" />
    <glyph glyph-name="AE" unicode="&#xc6;" horiz-adv-x="1992" 
d="M780 1481h1086l20 -299h-12l-23 166q-33 59 -175 89.5t-326 30.5q-142 0 -187 -23t-45 -97v-566h123q83 0 148.5 5t107.5 12.5t71.5 20t44 23t22.5 27t9 26.5t1 26v41h12v-373h-12v47q0 23 -3 36.5t-24 34.5t-61 32.5t-120.5 20.5t-195.5 9h-123v-639q0 -71 35.5 -95
t101.5 -24q317 0 463 41q152 42 199 164l22 88h13l-56 -305h-1142v12h65q85 0 112 24.5t27 94.5v469h-466l-97 -170q-157 -285 -157 -352q0 -23 6.5 -37.5t19.5 -20t22.5 -7t26.5 -1.5h74v-12h-387v12h59q103 63 316 418q37 61 125.5 216t142.5 247l242 422q49 90 49 106
q0 47 -78 47h-76v13zM958 612v801l-323 -563l-137 -238h460z" />
    <glyph glyph-name="Ccedilla" unicode="&#xc7;" horiz-adv-x="1492" 
d="M838 -477q-95 0 -179 43l5 10q77 -41 159 -41q79 0 123.5 51t44.5 111q0 61 -34 94t-93 33q-32 0 -67 -12l-13 8l60 151q-178 2 -317 59t-227 158.5t-133.5 238t-45.5 300.5q0 90 16 177.5t50.5 178t94 166.5t139.5 136t196 94t255 34q207 0 455 -112q0 8 -1 38t-1 42h12
q4 -65 13.5 -182.5t13.5 -182.5h-12l-13 92q-62 130 -187 211.5t-310 81.5q-112 0 -203.5 -40.5t-154 -111.5t-105.5 -168t-62.5 -208t-19.5 -234q0 -152 30 -278.5t82.5 -213.5t124 -147t153 -88t171.5 -28q165 0 304.5 70.5t189.5 174.5l26 119h13l-48 -348h-12l6 86
q-70 -45 -174 -72.5t-174.5 -35t-126.5 -7.5l-57 -139q69 27 123 27q72 0 127 -37t55 -107q0 -86 -77 -139t-195 -53z" />
    <glyph glyph-name="Egrave" unicode="&#xc8;" horiz-adv-x="1333" 
d="M94 1481h1112l21 -299h-13l-22 166q-33 59 -175.5 89.5t-326.5 30.5q-142 0 -186.5 -22.5t-44.5 -97.5v-566h123q83 0 148.5 5t107 12.5t71 20t44 23t22.5 27t9 26t1 26.5v41h12v-373h-12v47q0 23 -3 36.5t-24 34.5t-60.5 32.5t-120 20.5t-195.5 9h-123v-639
q0 -71 35.5 -95t101.5 -24q317 0 463 41q151 41 198 164l23 88h12l-55 -305h-1143v12h66q85 0 112 24.5t27 94.5v1219q0 73 -34 95.5t-105 22.5h-66v13zM487 1872q0 24 13 37.5t35 13.5q25 0 46.5 -12.5t61.5 -52.5l260 -263h-31q-203 124 -301 187q-84 51 -84 90z" />
    <glyph glyph-name="Eacute" unicode="&#xc9;" horiz-adv-x="1333" 
d="M94 1481h1112l21 -299h-13l-22 166q-33 59 -175.5 89.5t-326.5 30.5q-142 0 -186.5 -22.5t-44.5 -97.5v-566h123q83 0 148.5 5t107 12.5t71 20t44 23t22.5 27t9 26t1 26.5v41h12v-373h-12v47q0 23 -3 36.5t-24 34.5t-60.5 32.5t-120 20.5t-195.5 9h-123v-639
q0 -71 35.5 -95t101.5 -24q317 0 463 41q151 41 198 164l23 88h12l-55 -305h-1143v12h66q85 0 112 24.5t27 94.5v1219q0 73 -34 95.5t-105 22.5h-66v13zM1059 1872q0 -39 -84 -90l-301 -187h-31l260 263q40 40 61.5 52.5t47.5 12.5q47 0 47 -51z" />
    <glyph glyph-name="Ecircumflex" unicode="&#xca;" horiz-adv-x="1333" 
d="M94 1481h1112l21 -299h-13l-22 166q-33 59 -175.5 89.5t-326.5 30.5q-142 0 -186.5 -22.5t-44.5 -97.5v-566h123q83 0 148.5 5t107 12.5t71 20t44 23t22.5 27t9 26t1 26.5v41h12v-373h-12v47q0 23 -3 36.5t-24 34.5t-60.5 32.5t-120 20.5t-195.5 9h-123v-639
q0 -71 35.5 -95t101.5 -24q317 0 463 41q151 41 198 164l23 88h12l-55 -305h-1143v12h66q85 0 112 24.5t27 94.5v1219q0 73 -34 95.5t-105 22.5h-66v13zM743 1774q-94 -80 -145 -121l-121 -92h-12q38 38 113 127q26 31 60.5 77t55.5 77l21 30h57q78 -114 137 -184
q75 -89 113 -127h-12q-72 53 -121 92z" />
    <glyph glyph-name="Edieresis" unicode="&#xcb;" horiz-adv-x="1333" 
d="M94 1481h1112l21 -299h-13l-22 166q-33 59 -175.5 89.5t-326.5 30.5q-142 0 -186.5 -22.5t-44.5 -97.5v-566h123q83 0 148.5 5t107 12.5t71 20t44 23t22.5 27t9 26t1 26.5v41h12v-373h-12v47q0 23 -3 36.5t-24 34.5t-60.5 32.5t-120 20.5t-195.5 9h-123v-639
q0 -71 35.5 -95t101.5 -24q317 0 463 41q151 41 198 164l23 88h12l-55 -305h-1143v12h66q85 0 112 24.5t27 94.5v1219q0 73 -34 95.5t-105 22.5h-66v13zM1022 1677q0 -40 -27.5 -68t-68.5 -28t-69 28t-28 68q0 42 29 69.5t68 27.5t67.5 -27.5t28.5 -69.5zM629 1677
q0 -40 -28 -68t-69 -28t-68.5 28t-27.5 68q0 42 28.5 69.5t67.5 27.5t68 -27.5t29 -69.5z" />
    <glyph glyph-name="Igrave" unicode="&#xcc;" horiz-adv-x="757" 
d="M664 0h-570v12h66q82 0 110.5 26t28.5 93v1219q0 69 -30 93.5t-109 24.5h-66v13h570v-13h-70q-79 0 -107 -25t-28 -93v-1219q0 -66 26 -92.5t109 -26.5h70v-12zM152 1872q0 51 47 51q25 0 46.5 -12.5t61.5 -52.5l260 -263h-30q-203 124 -301 187q-84 51 -84 90z" />
    <glyph glyph-name="Iacute" unicode="&#xcd;" horiz-adv-x="757" 
d="M664 0h-570v12h66q82 0 110.5 26t28.5 93v1219q0 69 -30 93.5t-109 24.5h-66v13h570v-13h-70q-79 0 -107 -25t-28 -93v-1219q0 -66 26 -92.5t109 -26.5h70v-12zM702 1872q0 -39 -84 -90l-301 -187h-30l260 263q40 40 61.5 52.5t46.5 12.5q47 0 47 -51z" />
    <glyph glyph-name="Icircumflex" unicode="&#xce;" horiz-adv-x="757" 
d="M664 0h-570v12h66q82 0 110.5 26t28.5 93v1219q0 69 -30 93.5t-109 24.5h-66v13h570v-13h-70q-79 0 -107 -25t-28 -93v-1219q0 -66 26 -92.5t109 -26.5h70v-12zM379 1774q-95 -80 -146 -121l-120 -92h-13q38 38 113 127q26 31 60.5 77t55.5 77l21 30h58q78 -114 137 -184
q80 -95 112 -127h-12q-72 53 -121 92z" />
    <glyph glyph-name="Idieresis" unicode="&#xcf;" horiz-adv-x="757" 
d="M664 0h-570v12h66q82 0 110.5 26t28.5 93v1219q0 69 -30 93.5t-109 24.5h-66v13h570v-13h-70q-79 0 -107 -25t-28 -93v-1219q0 -66 26 -92.5t109 -26.5h70v-12zM672 1677q0 -40 -28 -68t-69 -28t-68.5 28t-27.5 68q0 42 28.5 69.5t67.5 27.5t68 -27.5t29 -69.5zM279 1677
q0 -40 -28 -68t-69 -28t-68.5 28t-27.5 68q0 42 28.5 69.5t67.5 27.5t68 -27.5t29 -69.5z" />
    <glyph glyph-name="Eth" unicode="&#xd0;" horiz-adv-x="1712" 
d="M61 766v20h242v564q0 67 -32 92.5t-107 25.5h-66v13h312q58 0 202.5 5t200.5 5q148 0 269.5 -30t201 -76.5t139.5 -112t92 -128t51.5 -134t25 -120t5.5 -95.5q0 -64 -7.5 -129t-29.5 -146.5t-57 -153.5t-96 -142.5t-140.5 -121t-196 -81.5t-257.5 -31q-55 0 -190 5
t-177 5h-348v12h66q85 0 112 24.5t27 94.5v635h-242zM1421 776q0 59 -7.5 120.5t-27 131.5t-49 133t-78 122t-109.5 102t-148 68.5t-189 25.5q-207 0 -350 -62v-631h348v-20h-348v-694q126 -70 344 -70q126 0 229 40.5t174 111.5t119 170t70 212t22 240z" />
    <glyph glyph-name="Ntilde" unicode="&#xd1;" horiz-adv-x="1599" 
d="M1505 1468h-119q-71 -114 -71 -505v-992h-19l-995 1262v-733q0 -383 72 -488h112v-12h-391v12h119q24 36 39.5 96.5t21.5 146t8 127t3 118.5v753l-176 228h200l989 -1264v807q0 137 -19.5 269t-51.5 175h-119v13h397v-13zM813 1731q107 -64 158 -64q112 0 188 102l10 -6
q-100 -174 -231 -174q-62 0 -170 68q-98 63 -158 63q-112 0 -188 -102l-10 6q100 174 231 174q58 0 170 -67z" />
    <glyph glyph-name="Ograve" unicode="&#xd2;" horiz-adv-x="1746" 
d="M1626 743q0 -98 -22 -198t-77.5 -205t-138 -185.5t-216.5 -132t-300 -51.5q-120 0 -223.5 27t-178.5 72.5t-136 108.5t-100 132t-65 145.5t-37 147.5t-11 139q0 72 12.5 145.5t40 149.5t68.5 145t102.5 129.5t136.5 105t175.5 70t215.5 25.5q161 0 292 -47t215.5 -123
t141.5 -178t81 -207t24 -215zM1450 743q0 164 -38 302t-110 239.5t-182 159t-248 57.5q-276 0 -425.5 -203.5t-149.5 -554.5q0 -149 36.5 -283.5t106 -241.5t181.5 -170.5t251 -63.5q141 0 253.5 63.5t182 171t106 241.5t36.5 283zM647 1872q0 51 47 51q26 0 47.5 -12.5
t61.5 -52.5l260 -263h-31q-203 124 -301 187q-84 51 -84 90z" />
    <glyph glyph-name="Oacute" unicode="&#xd3;" horiz-adv-x="1746" 
d="M1626 743q0 -98 -22 -198t-77.5 -205t-138 -185.5t-216.5 -132t-300 -51.5q-120 0 -223.5 27t-178.5 72.5t-136 108.5t-100 132t-65 145.5t-37 147.5t-11 139q0 72 12.5 145.5t40 149.5t68.5 145t102.5 129.5t136.5 105t175.5 70t215.5 25.5q161 0 292 -47t215.5 -123
t141.5 -178t81 -207t24 -215zM1450 743q0 164 -38 302t-110 239.5t-182 159t-248 57.5q-276 0 -425.5 -203.5t-149.5 -554.5q0 -149 36.5 -283.5t106 -241.5t181.5 -170.5t251 -63.5q141 0 253.5 63.5t182 171t106 241.5t36.5 283zM1217 1872q0 -39 -84 -90l-302 -187h-30
l260 263q40 40 61.5 52.5t46.5 12.5q22 0 35 -13.5t13 -37.5z" />
    <glyph glyph-name="Ocircumflex" unicode="&#xd4;" horiz-adv-x="1746" 
d="M1626 743q0 -98 -22 -198t-77.5 -205t-138 -185.5t-216.5 -132t-300 -51.5q-120 0 -223.5 27t-178.5 72.5t-136 108.5t-100 132t-65 145.5t-37 147.5t-11 139q0 72 12.5 145.5t40 149.5t68.5 145t102.5 129.5t136.5 105t175.5 70t215.5 25.5q161 0 292 -47t215.5 -123
t141.5 -178t81 -207t24 -215zM1450 743q0 164 -38 302t-110 239.5t-182 159t-248 57.5q-276 0 -425.5 -203.5t-149.5 -554.5q0 -149 36.5 -283.5t106 -241.5t181.5 -170.5t251 -63.5q141 0 253.5 63.5t182 171t106 241.5t36.5 283zM870 1774q-94 -80 -145 -121l-121 -92h-12
q38 38 113 127q26 31 60.5 77t55.5 77l21 30h57q78 -114 137 -184q75 -89 113 -127h-12q-72 53 -121 92z" />
    <glyph glyph-name="Otilde" unicode="&#xd5;" horiz-adv-x="1746" 
d="M1626 743q0 -98 -22 -198t-77.5 -205t-138 -185.5t-216.5 -132t-300 -51.5q-120 0 -223.5 27t-178.5 72.5t-136 108.5t-100 132t-65 145.5t-37 147.5t-11 139q0 72 12.5 145.5t40 149.5t68.5 145t102.5 129.5t136.5 105t175.5 70t215.5 25.5q161 0 292 -47t215.5 -123
t141.5 -178t81 -207t24 -215zM1450 743q0 164 -38 302t-110 239.5t-182 159t-248 57.5q-276 0 -425.5 -203.5t-149.5 -554.5q0 -149 36.5 -283.5t106 -241.5t181.5 -170.5t251 -63.5q141 0 253.5 63.5t182 171t106 241.5t36.5 283zM907 1731q107 -64 158 -64q112 0 188 102
l11 -6q-100 -174 -232 -174q-62 0 -170 68q-98 63 -157 63q-113 0 -189 -102l-10 6q100 174 231 174q58 0 170 -67z" />
    <glyph glyph-name="Odieresis" unicode="&#xd6;" horiz-adv-x="1746" 
d="M1626 743q0 -98 -22 -198t-77.5 -205t-138 -185.5t-216.5 -132t-300 -51.5q-120 0 -223.5 27t-178.5 72.5t-136 108.5t-100 132t-65 145.5t-37 147.5t-11 139q0 72 12.5 145.5t40 149.5t68.5 145t102.5 129.5t136.5 105t175.5 70t215.5 25.5q161 0 292 -47t215.5 -123
t141.5 -178t81 -207t24 -215zM1450 743q0 164 -38 302t-110 239.5t-182 159t-248 57.5q-276 0 -425.5 -203.5t-149.5 -554.5q0 -149 36.5 -283.5t106 -241.5t181.5 -170.5t251 -63.5q141 0 253.5 63.5t182 171t106 241.5t36.5 283zM1163 1677q0 -40 -27.5 -68t-68.5 -28
t-68.5 28t-27.5 68q0 42 28.5 69.5t67.5 27.5t67.5 -27.5t28.5 -69.5zM770 1677q0 -40 -27.5 -68t-68.5 -28t-68.5 28t-27.5 68q0 42 28.5 69.5t67.5 27.5t67.5 -27.5t28.5 -69.5z" />
    <glyph glyph-name="multiply" unicode="&#xd7;" 
d="M915 246l-383 383l-385 -383l-16 18l383 383l-385 383l18 19l385 -385l383 385l17 -19l-383 -383l383 -385z" />
    <glyph glyph-name="Oslash" unicode="&#xd8;" horiz-adv-x="1746" 
d="M1626 743q0 -98 -22 -198t-77.5 -205t-138 -185.5t-216.5 -132t-300 -51.5q-307 0 -501 172l-148 -172l-16 19l145 170q-81 78 -134.5 183.5t-75 204t-21.5 195.5q0 72 12.5 145.5t40 149.5t68.5 145t102.5 129.5t136.5 105t175.5 70t215.5 25.5q304 0 496 -161l137 161
l19 -18l-138 -160q122 -109 181 -266.5t59 -325.5zM1450 743q0 310 -129 514l-885 -1036q159 -237 436 -237q141 0 253.5 63.5t182 171t106 241.5t36.5 283zM297 743q0 -297 127 -499l881 1034q-74 107 -183.5 165t-249.5 58q-276 0 -425.5 -203.5t-149.5 -554.5z" />
    <glyph glyph-name="Ugrave" unicode="&#xd9;" horiz-adv-x="1638" 
d="M1577 1468h-119q-37 -61 -51.5 -158.5t-20.5 -305.5v-355q0 -119 -15.5 -216t-53 -183.5t-97 -144.5t-151.5 -91.5t-213 -33.5t-217 23.5t-156 57t-103.5 87.5t-64 97t-31.5 104t-12.5 90t-1.5 72v1.5v1.5v836q0 63 -33 90.5t-106 27.5h-70v13h578v-13h-74
q-135 0 -135 -118v-871q0 -114 31.5 -203t78.5 -139.5t108 -83t111.5 -43t98.5 -10.5q120 0 211 34t147.5 91t91.5 142.5t48.5 177t13.5 204.5v373q0 177 -24 298.5t-48 147.5h-118v13h397v-13zM606 1872q0 51 47 51q26 0 47.5 -12.5t61.5 -52.5l260 -263h-31
q-203 124 -301 187q-84 51 -84 90z" />
    <glyph glyph-name="Uacute" unicode="&#xda;" horiz-adv-x="1638" 
d="M1577 1468h-119q-37 -61 -51.5 -158.5t-20.5 -305.5v-355q0 -119 -15.5 -216t-53 -183.5t-97 -144.5t-151.5 -91.5t-213 -33.5t-217 23.5t-156 57t-103.5 87.5t-64 97t-31.5 104t-12.5 90t-1.5 72v1.5v1.5v836q0 63 -33 90.5t-106 27.5h-70v13h578v-13h-74
q-135 0 -135 -118v-871q0 -114 31.5 -203t78.5 -139.5t108 -83t111.5 -43t98.5 -10.5q120 0 211 34t147.5 91t91.5 142.5t48.5 177t13.5 204.5v373q0 177 -24 298.5t-48 147.5h-118v13h397v-13zM1237 1872q0 -39 -84 -90l-301 -187h-31l260 263q40 40 61.5 52.5t47.5 12.5
q47 0 47 -51z" />
    <glyph glyph-name="Ucircumflex" unicode="&#xdb;" horiz-adv-x="1638" 
d="M1577 1468h-119q-37 -61 -51.5 -158.5t-20.5 -305.5v-355q0 -119 -15.5 -216t-53 -183.5t-97 -144.5t-151.5 -91.5t-213 -33.5t-217 23.5t-156 57t-103.5 87.5t-64 97t-31.5 104t-12.5 90t-1.5 72v1.5v1.5v836q0 63 -33 90.5t-106 27.5h-70v13h578v-13h-74
q-135 0 -135 -118v-871q0 -114 31.5 -203t78.5 -139.5t108 -83t111.5 -43t98.5 -10.5q120 0 211 34t147.5 91t91.5 142.5t48.5 177t13.5 204.5v373q0 177 -24 298.5t-48 147.5h-118v13h397v-13zM897 1774q-94 -80 -145 -121l-121 -92h-13q38 38 113 127q26 31 60.5 77
t55.5 77l21 30h58q78 -114 137 -184q75 -89 113 -127h-13q-72 53 -121 92z" />
    <glyph glyph-name="Udieresis" unicode="&#xdc;" horiz-adv-x="1638" 
d="M1577 1468h-119q-37 -61 -51.5 -158.5t-20.5 -305.5v-355q0 -119 -15.5 -216t-53 -183.5t-97 -144.5t-151.5 -91.5t-213 -33.5t-217 23.5t-156 57t-103.5 87.5t-64 97t-31.5 104t-12.5 90t-1.5 72v1.5v1.5v836q0 63 -33 90.5t-106 27.5h-70v13h578v-13h-74
q-135 0 -135 -118v-871q0 -114 31.5 -203t78.5 -139.5t108 -83t111.5 -43t98.5 -10.5q120 0 211 34t147.5 91t91.5 142.5t48.5 177t13.5 204.5v373q0 177 -24 298.5t-48 147.5h-118v13h397v-13zM1178 1677q0 -40 -28 -68t-69 -28t-68.5 28t-27.5 68q0 42 28.5 69.5
t67.5 27.5t68 -27.5t29 -69.5zM784 1677q0 -40 -27.5 -68t-68.5 -28t-68.5 28t-27.5 68q0 42 28.5 69.5t67.5 27.5t67.5 -27.5t28.5 -69.5z" />
    <glyph glyph-name="Yacute" unicode="&#xdd;" horiz-adv-x="1456" 
d="M1456 1468h-59q-47 -22 -88 -64t-92 -130l-193 -328l-197 -332v-483q0 -62 33 -90.5t107 -28.5h65v-12h-569v12h67q74 0 106 29.5t32 89.5v467l-432 725q-15 26 -23 38t-29.5 35.5t-43 35t-58.5 23t-82 13.5v13h549v-13h-78q-34 0 -59 -17t-25 -46q0 -22 23 -62l411 -710
l187 317q79 134 135 244q71 142 71 203q0 71 -100 71h-51v13h393v-13zM1120 1872q0 -39 -84 -90l-301 -187h-30l260 263q40 40 61.5 52.5t46.5 12.5q47 0 47 -51z" />
    <glyph glyph-name="Thorn" unicode="&#xde;" horiz-adv-x="1341" 
d="M664 0h-570v12h66q82 0 110.5 26t28.5 93v1219q0 69 -30 93.5t-109 24.5h-66v13h570v-13h-70q-79 0 -107 -25t-28 -93v-142q119 31 258 31q123 0 219 -23.5t156 -62.5t98.5 -93.5t54 -110.5t15.5 -120q0 -192 -148 -318t-414 -126q-132 0 -239 21v-275q0 -66 26 -92.5
t109 -26.5h70v-12zM1083 829q0 190 -104.5 294t-282.5 104q-135 0 -237 -31v-778q122 -19 229 -19q177 0 286 108.5t109 321.5z" />
    <glyph glyph-name="germandbls" unicode="&#xdf;" horiz-adv-x="1120" 
d="M1110 313q0 -80 -45 -157.5t-126.5 -128t-176.5 -50.5q-101 0 -154 35.5t-53 91.5q0 38 20 60t48 22q37 0 58 -18.5t21 -48.5q0 -8 -3 -31t-3 -31q0 -27 27 -47t74 -20q99 0 150.5 64.5t51.5 181.5q0 84 -51 179t-155 160l-88 56q-96 61 -135.5 101.5t-39.5 84.5
q0 22 5 43t9.5 34t19.5 35t21 29.5t28.5 33.5t27.5 32q29 34 48.5 61t43 68t35.5 87.5t12 96.5q0 127 -47.5 189.5t-159.5 62.5q-108 0 -169.5 -117.5t-61.5 -367.5v-995q0 -54 20 -75.5t82 -21.5h21v-12h-416v12h62q55 0 78.5 22t23.5 75v864h-164v12l164 27v20
q0 52 2.5 95.5t9 97t20 96.5t34 88t52.5 78t73 60t98.5 41t126.5 14q37 0 76 -7.5t80.5 -25.5t73.5 -45t52.5 -70.5t20.5 -97.5q0 -36 -10.5 -69.5t-33.5 -65t-40.5 -51.5t-50 -52t-43.5 -43q-13 -14 -36 -37.5t-35 -37t-26.5 -31.5t-21 -34t-6.5 -32q0 -35 39 -72t110 -81
q14 -9 45 -28t58.5 -37t52.5 -36q176 -124 176 -336z" />
    <glyph glyph-name="agrave" unicode="&#xe0;" horiz-adv-x="962" 
d="M868 14q27 0 49.5 28.5t32.5 80.5h13q-13 -81 -50.5 -113.5t-95.5 -32.5q-149 0 -149 222q-66 -71 -127 -118.5t-111.5 -68.5t-85 -28t-70.5 -7q-113 0 -171 57t-58 148q0 272 565 381l58 10v111q0 161 -56.5 237t-203.5 76q-69 0 -120.5 -27t-51.5 -81q0 -20 8 -40.5
t8 -37.5q0 -34 -20 -56t-58 -22q-31 0 -51.5 23t-20.5 59q0 77 92 136t226 59q78 0 141.5 -15.5t118.5 -50.5t86 -101t31 -159v-549q0 -121 71 -121zM668 217v344q-103 -19 -180.5 -43.5t-147 -64.5t-106.5 -101.5t-37 -142.5q0 -91 46 -134.5t119 -43.5q70 0 157.5 59
t148.5 127zM201 1442q0 51 47 51q25 0 46 -12.5t62 -53.5l260 -262h-30q-203 124 -301 187q-84 51 -84 90z" />
    <glyph glyph-name="aacute" unicode="&#xe1;" horiz-adv-x="962" 
d="M868 14q27 0 49.5 28.5t32.5 80.5h13q-13 -81 -50.5 -113.5t-95.5 -32.5q-149 0 -149 222q-66 -71 -127 -118.5t-111.5 -68.5t-85 -28t-70.5 -7q-113 0 -171 57t-58 148q0 272 565 381l58 10v111q0 161 -56.5 237t-203.5 76q-69 0 -120.5 -27t-51.5 -81q0 -20 8 -40.5
t8 -37.5q0 -34 -20 -56t-58 -22q-31 0 -51.5 23t-20.5 59q0 77 92 136t226 59q78 0 141.5 -15.5t118.5 -50.5t86 -101t31 -159v-549q0 -121 71 -121zM668 217v344q-103 -19 -180.5 -43.5t-147 -64.5t-106.5 -101.5t-37 -142.5q0 -91 46 -134.5t119 -43.5q70 0 157.5 59
t148.5 127zM780 1442q0 -39 -84 -90l-301 -187h-30l260 262q41 41 62 53.5t46 12.5q47 0 47 -51z" />
    <glyph glyph-name="acircumflex" unicode="&#xe2;" horiz-adv-x="962" 
d="M868 14q27 0 49.5 28.5t32.5 80.5h13q-13 -81 -50.5 -113.5t-95.5 -32.5q-149 0 -149 222q-66 -71 -127 -118.5t-111.5 -68.5t-85 -28t-70.5 -7q-113 0 -171 57t-58 148q0 272 565 381l58 10v111q0 161 -56.5 237t-203.5 76q-69 0 -120.5 -27t-51.5 -81q0 -20 8 -40.5
t8 -37.5q0 -34 -20 -56t-58 -22q-31 0 -51.5 23t-20.5 59q0 77 92 136t226 59q78 0 141.5 -15.5t118.5 -50.5t86 -101t31 -159v-549q0 -121 71 -121zM668 217v344q-103 -19 -180.5 -43.5t-147 -64.5t-106.5 -101.5t-37 -142.5q0 -91 46 -134.5t119 -43.5q70 0 157.5 59
t148.5 127zM471 1364q-94 -80 -145 -121l-121 -92h-12q32 32 112 127q26 31 60.5 77t55.5 77l21 30h58q78 -114 137 -184q75 -89 113 -127h-13q-72 53 -121 92z" />
    <glyph glyph-name="atilde" unicode="&#xe3;" horiz-adv-x="962" 
d="M868 14q27 0 49.5 28.5t32.5 80.5h13q-13 -81 -50.5 -113.5t-95.5 -32.5q-149 0 -149 222q-66 -71 -127 -118.5t-111.5 -68.5t-85 -28t-70.5 -7q-113 0 -171 57t-58 148q0 272 565 381l58 10v111q0 161 -56.5 237t-203.5 76q-69 0 -120.5 -27t-51.5 -81q0 -20 8 -40.5
t8 -37.5q0 -34 -20 -56t-58 -22q-31 0 -51.5 23t-20.5 59q0 77 92 136t226 59q78 0 141.5 -15.5t118.5 -50.5t86 -101t31 -159v-549q0 -121 71 -121zM668 217v344q-103 -19 -180.5 -43.5t-147 -64.5t-106.5 -101.5t-37 -142.5q0 -91 46 -134.5t119 -43.5q70 0 157.5 59
t148.5 127zM489 1313q107 -64 158 -64q112 0 189 103l10 -6q-101 -175 -232 -175q-62 0 -170 68q-99 64 -157 64q-112 0 -189 -103l-10 6q100 174 231 174q58 0 170 -67z" />
    <glyph glyph-name="adieresis" unicode="&#xe4;" horiz-adv-x="962" 
d="M868 14q27 0 49.5 28.5t32.5 80.5h13q-13 -81 -50.5 -113.5t-95.5 -32.5q-149 0 -149 222q-66 -71 -127 -118.5t-111.5 -68.5t-85 -28t-70.5 -7q-113 0 -171 57t-58 148q0 272 565 381l58 10v111q0 161 -56.5 237t-203.5 76q-69 0 -120.5 -27t-51.5 -81q0 -20 8 -40.5
t8 -37.5q0 -34 -20 -56t-58 -22q-31 0 -51.5 23t-20.5 59q0 77 92 136t226 59q78 0 141.5 -15.5t118.5 -50.5t86 -101t31 -159v-549q0 -121 71 -121zM668 217v344q-103 -19 -180.5 -43.5t-147 -64.5t-106.5 -101.5t-37 -142.5q0 -91 46 -134.5t119 -43.5q70 0 157.5 59
t148.5 127zM743 1315q0 -40 -27.5 -68t-68.5 -28t-68.5 28t-27.5 68q0 42 28.5 69t67.5 27t67.5 -27t28.5 -69zM350 1315q0 -40 -27.5 -68t-68.5 -28t-68.5 28t-27.5 68q0 42 28.5 69t67.5 27t67.5 -27t28.5 -69z" />
    <glyph glyph-name="aring" unicode="&#xe5;" horiz-adv-x="962" 
d="M868 14q27 0 49.5 28.5t32.5 80.5h13q-13 -81 -50.5 -113.5t-95.5 -32.5q-149 0 -149 222q-66 -71 -127 -118.5t-111.5 -68.5t-85 -28t-70.5 -7q-113 0 -171 57t-58 148q0 272 565 381l58 10v111q0 161 -56.5 237t-203.5 76q-69 0 -120.5 -27t-51.5 -81q0 -20 8 -40.5
t8 -37.5q0 -34 -20 -56t-58 -22q-31 0 -51.5 23t-20.5 59q0 77 92 136t226 59q78 0 141.5 -15.5t118.5 -50.5t86 -101t31 -159v-549q0 -121 71 -121zM668 217v344q-103 -19 -180.5 -43.5t-147 -64.5t-106.5 -101.5t-37 -142.5q0 -91 46 -134.5t119 -43.5q70 0 157.5 59
t148.5 127zM281 1300q0 71 50 122t120 51t121 -51t51 -122q0 -70 -50.5 -120t-121.5 -50t-120.5 50t-49.5 120zM301 1300q0 -63 43.5 -106t106.5 -43t107 43t44 106t-44 107.5t-107 44.5t-106.5 -44.5t-43.5 -107.5z" />
    <glyph glyph-name="ae" unicode="&#xe6;" horiz-adv-x="1533" 
d="M1104 1010q94 0 168.5 -37t118.5 -99t67 -135.5t25 -154.5h-672q0 -142 20.5 -248.5t51.5 -166.5t76 -96t86 -47.5t90 -11.5q199 0 327 203l11 -6q-65 -111 -154.5 -172.5t-222.5 -61.5q-53 0 -108 13t-111 41t-104 78.5t-77 117.5q-43 -67 -100.5 -118t-114.5 -78
t-107 -40.5t-91 -13.5q-118 0 -178 57t-60 148q0 51 20.5 96.5t53.5 79.5t82 64t96.5 50.5t107.5 38.5t106 29t99 21l58 12v111q0 161 -56.5 237t-203.5 76q-69 0 -120.5 -27t-51.5 -81q0 -20 8 -40.5t8 -37.5q0 -34 -20 -56t-58 -22q-31 0 -51.5 23t-20.5 59q0 77 92 136
t226 59q116 0 205.5 -40.5t132.5 -127.5q112 168 346 168zM668 299v262q-103 -19 -180.5 -43.5t-147 -64.5t-106.5 -101.5t-37 -142.5q0 -93 46 -137.5t128 -44.5q106 0 201.5 80.5t95.5 191.5zM811 596h528q0 111 -25 199t-83.5 145t-143.5 57q-250 0 -276 -401z" />
    <glyph glyph-name="ccedilla" unicode="&#xe7;" horiz-adv-x="901" 
d="M504 -418q-90 0 -170 39l4 10q76 -37 154 -37q79 0 117 41.5t38 98.5q0 58 -29 84t-88 26q-24 0 -65 -12l-12 6l57 139h-4q-94 0 -176.5 34.5t-144.5 97.5t-98 159.5t-36 214.5q0 82 18 158t57 143.5t95 117.5t136.5 79t177.5 29q137 0 220 -49.5t83 -120.5
q0 -47 -21.5 -69.5t-54.5 -22.5q-86 0 -86 90q0 8 3 29.5t3 33.5q0 37 -42.5 66.5t-113.5 29.5q-53 0 -98.5 -15.5t-87.5 -52.5t-72 -94.5t-47.5 -147.5t-17.5 -204q0 -119 26.5 -211t73.5 -147t107 -83t131 -28q104 0 189 58.5t138 183.5l13 -4q-109 -264 -355 -275
l-51 -127q55 21 117 21q66 0 112 -30t46 -91q0 -76 -72 -122t-174 -46z" />
    <glyph glyph-name="egrave" unicode="&#xe8;" horiz-adv-x="931" 
d="M498 1010q94 0 169 -37t120 -99t68.5 -136t25.5 -154h-678q0 -142 20.5 -248.5t51.5 -166.5t76.5 -96t86.5 -47.5t90 -11.5q204 0 332 203l10 -6q-137 -234 -381 -234q-58 0 -115.5 14.5t-117 51.5t-104 93t-73 146.5t-28.5 204.5q0 239 119.5 381t327.5 142zM203 596
h534q0 111 -26 199t-85.5 145t-144.5 57q-252 0 -278 -401zM190 1442q0 24 13 37.5t35 13.5q25 0 46 -12.5t62 -53.5l260 -262h-31q-203 124 -301 187q-84 51 -84 90z" />
    <glyph glyph-name="eacute" unicode="&#xe9;" horiz-adv-x="931" 
d="M498 1010q94 0 169 -37t120 -99t68.5 -136t25.5 -154h-678q0 -142 20.5 -248.5t51.5 -166.5t76.5 -96t86.5 -47.5t90 -11.5q204 0 332 203l10 -6q-137 -234 -381 -234q-58 0 -115.5 14.5t-117 51.5t-104 93t-73 146.5t-28.5 204.5q0 239 119.5 381t327.5 142zM203 596
h534q0 111 -26 199t-85.5 145t-144.5 57q-252 0 -278 -401zM782 1442q0 -39 -84 -90l-301 -187h-30l260 262q41 41 62 53.5t46 12.5q47 0 47 -51z" />
    <glyph glyph-name="ecircumflex" unicode="&#xea;" horiz-adv-x="931" 
d="M498 1010q94 0 169 -37t120 -99t68.5 -136t25.5 -154h-678q0 -142 20.5 -248.5t51.5 -166.5t76.5 -96t86.5 -47.5t90 -11.5q204 0 332 203l10 -6q-137 -234 -381 -234q-58 0 -115.5 14.5t-117 51.5t-104 93t-73 146.5t-28.5 204.5q0 239 119.5 381t327.5 142zM203 596
h534q0 111 -26 199t-85.5 145t-144.5 57q-252 0 -278 -401zM475 1364q-94 -80 -145 -121l-121 -92h-12q32 32 112 127q26 31 60.5 77t55.5 77l21 30h58q78 -114 137 -184q75 -89 113 -127h-13q-71 53 -120 92z" />
    <glyph glyph-name="edieresis" unicode="&#xeb;" horiz-adv-x="931" 
d="M498 1010q94 0 169 -37t120 -99t68.5 -136t25.5 -154h-678q0 -142 20.5 -248.5t51.5 -166.5t76.5 -96t86.5 -47.5t90 -11.5q204 0 332 203l10 -6q-137 -234 -381 -234q-58 0 -115.5 14.5t-117 51.5t-104 93t-73 146.5t-28.5 204.5q0 239 119.5 381t327.5 142zM203 596
h534q0 111 -26 199t-85.5 145t-144.5 57q-252 0 -278 -401zM766 1315q0 -40 -27.5 -68t-68.5 -28t-69 28t-28 68q0 42 29 69t68 27t67.5 -27t28.5 -69zM373 1315q0 -40 -28 -68t-69 -28t-68.5 28t-27.5 68q0 42 28.5 69t67.5 27t68 -27t29 -69z" />
    <glyph glyph-name="igrave" unicode="&#xec;" horiz-adv-x="522" 
d="M489 0h-456v12h61q62 0 82.5 21t20.5 76v722q0 59 -27.5 74.5t-136.5 16.5v12q158 10 293 76v-901q0 -54 20 -75.5t82 -21.5h61v-12zM-49 1442q0 51 47 51q25 0 46 -12.5t62 -53.5l261 -262h-31q-203 124 -301 187q-84 51 -84 90z" />
    <glyph glyph-name="iacute" unicode="&#xed;" horiz-adv-x="522" 
d="M489 0h-456v12h61q62 0 82.5 21t20.5 76v722q0 59 -27.5 74.5t-136.5 16.5v12q158 10 293 76v-901q0 -54 20 -75.5t82 -21.5h61v-12zM547 1442q0 -39 -84 -90l-301 -187h-31l260 262q40 40 62 53t47 13q47 0 47 -51z" />
    <glyph glyph-name="icircumflex" unicode="&#xee;" horiz-adv-x="522" 
d="M489 0h-456v12h61q62 0 82.5 21t20.5 76v722q0 59 -27.5 74.5t-136.5 16.5v12q158 10 293 76v-901q0 -54 20 -75.5t82 -21.5h61v-12zM266 1364q-94 -80 -145 -121l-121 -92h-12q32 32 112 127q26 31 60.5 77t55.5 77l22 30h57q78 -114 137 -184q75 -89 113 -127h-13
q-71 53 -120 92z" />
    <glyph glyph-name="idieresis" unicode="&#xef;" horiz-adv-x="559" 
d="M508 0h-457v12h62q62 0 82 21t20 76v722q0 59 -27.5 74.5t-136.5 16.5v12q158 10 293 76v-901q0 -54 20 -75.5t82 -21.5h62v-12zM520 1315q0 -40 -27.5 -68t-68.5 -28t-68.5 28t-27.5 68q0 42 28.5 69t67.5 27t67.5 -27t28.5 -69zM201 1315q0 -40 -28 -68t-69 -28
t-68.5 28t-27.5 68q0 42 28.5 69t67.5 27t68 -27t29 -69z" />
    <glyph glyph-name="eth" unicode="&#xf0;" 
d="M758 1448l12 -16l-127 -105q367 -246 367 -768q0 -249 -137.5 -415.5t-342.5 -166.5q-209 0 -344 141.5t-135 373.5q0 251 130.5 384.5t344.5 133.5q154 0 297 -103q-21 107 -88.5 207.5t-144.5 169.5l-125 -100l-12 16l120 98q-71 58 -170 103t-202 59v13
q80 -2 198.5 -34t225.5 -100zM858 516q0 132 -28 229t-76.5 150t-105 77.5t-122.5 24.5q-53 0 -98.5 -15t-87.5 -51.5t-72 -93t-47.5 -144.5t-17.5 -201q0 -139 27 -240t74.5 -156.5t103 -80.5t122.5 -25q64 0 121.5 31t104.5 92.5t74.5 165.5t27.5 237z" />
    <glyph glyph-name="ntilde" unicode="&#xf1;" horiz-adv-x="1148" 
d="M1116 0h-457v12h62q62 0 82 21.5t20 75.5v557q0 61 -8.5 109.5t-21.5 80.5t-33.5 54.5t-39.5 34.5t-46 18.5t-45.5 8t-44.5 1.5q-112 0 -258 -99v-765q0 -59 19 -78t83 -19h61v-12h-456v12h59q62 0 83.5 20t21.5 77v722q0 58 -28 74t-136 17v12q151 9 293 76v-121
q163 121 317 121q61 0 109 -12.5t80 -32.5t55 -51.5t35 -62t19.5 -72t9 -73t1.5 -73.5v-524q0 -54 20.5 -75.5t82.5 -21.5h61v-12zM604 1313q107 -64 158 -64q111 0 188 103l11 -6q-101 -175 -232 -175q-62 0 -170 68q-99 64 -158 64q-111 0 -188 -103l-10 6
q100 174 231 174q58 0 170 -67z" />
    <glyph glyph-name="ograve" unicode="&#xf2;" 
d="M1010 492q0 -229 -136 -372t-344 -143q-209 0 -344 141.5t-135 373.5q0 251 132.5 384.5t346.5 133.5q105 0 191 -31t151.5 -92.5t101.5 -162t36 -232.5zM858 492q0 139 -27.5 241t-75 157.5t-103.5 81t-122 25.5q-53 0 -99 -15t-88.5 -51.5t-73 -93t-48.5 -144.5
t-18 -201q0 -139 27 -240t74.5 -156.5t103 -80.5t122.5 -25q66 0 122 25t103.5 80.5t75 156.5t27.5 240zM240 1442q0 51 47 51q25 0 46 -12.5t62 -53.5l260 -262h-30q-203 124 -301 187q-84 51 -84 90z" />
    <glyph glyph-name="oacute" unicode="&#xf3;" 
d="M1010 492q0 -229 -136 -372t-344 -143q-209 0 -344 141.5t-135 373.5q0 251 132.5 384.5t346.5 133.5q105 0 191 -31t151.5 -92.5t101.5 -162t36 -232.5zM858 492q0 139 -27.5 241t-75 157.5t-103.5 81t-122 25.5q-53 0 -99 -15t-88.5 -51.5t-73 -93t-48.5 -144.5
t-18 -201q0 -139 27 -240t74.5 -156.5t103 -80.5t122.5 -25q66 0 122 25t103.5 80.5t75 156.5t27.5 240zM784 1442q0 -39 -84 -90l-301 -187h-30l260 262q41 41 62 53.5t46 12.5q47 0 47 -51z" />
    <glyph glyph-name="ocircumflex" unicode="&#xf4;" 
d="M1010 492q0 -229 -136 -372t-344 -143q-209 0 -344 141.5t-135 373.5q0 251 132.5 384.5t346.5 133.5q105 0 191 -31t151.5 -92.5t101.5 -162t36 -232.5zM858 492q0 139 -27.5 241t-75 157.5t-103.5 81t-122 25.5q-53 0 -99 -15t-88.5 -51.5t-73 -93t-48.5 -144.5
t-18 -201q0 -139 27 -240t74.5 -156.5t103 -80.5t122.5 -25q66 0 122 25t103.5 80.5t75 156.5t27.5 240zM530 1364q-94 -80 -145 -121l-121 -92h-12q38 38 113 127q26 31 60.5 77t55.5 77l21 30h57q78 -114 137 -184q75 -89 113 -127h-12q-72 53 -121 92z" />
    <glyph glyph-name="otilde" unicode="&#xf5;" 
d="M1010 492q0 -229 -136 -372t-344 -143q-209 0 -344 141.5t-135 373.5q0 251 132.5 384.5t346.5 133.5q105 0 191 -31t151.5 -92.5t101.5 -162t36 -232.5zM858 492q0 139 -27.5 241t-75 157.5t-103.5 81t-122 25.5q-53 0 -99 -15t-88.5 -51.5t-73 -93t-48.5 -144.5
t-18 -201q0 -139 27 -240t74.5 -156.5t103 -80.5t122.5 -25q66 0 122 25t103.5 80.5t75 156.5t27.5 240zM565 1313q107 -64 158 -64q111 0 188 103l11 -6q-101 -175 -232 -175q-62 0 -170 68q-99 64 -158 64q-111 0 -188 -103l-10 6q100 174 231 174q58 0 170 -67z" />
    <glyph glyph-name="odieresis" unicode="&#xf6;" 
d="M1010 492q0 -229 -136 -372t-344 -143q-209 0 -344 141.5t-135 373.5q0 251 132.5 384.5t346.5 133.5q105 0 191 -31t151.5 -92.5t101.5 -162t36 -232.5zM858 492q0 139 -27.5 241t-75 157.5t-103.5 81t-122 25.5q-53 0 -99 -15t-88.5 -51.5t-73 -93t-48.5 -144.5
t-18 -201q0 -139 27 -240t74.5 -156.5t103 -80.5t122.5 -25q66 0 122 25t103.5 80.5t75 156.5t27.5 240zM823 1315q0 -40 -27.5 -68t-68.5 -28t-68.5 28t-27.5 68q0 42 28.5 69t67.5 27t67.5 -27t28.5 -69zM430 1315q0 -40 -27.5 -68t-68.5 -28t-68.5 28t-27.5 68
q0 42 28.5 69t67.5 27t67.5 -27t28.5 -69z" />
    <glyph glyph-name="divide" unicode="&#xf7;" 
d="M1044 682h-1028v20h1028v-20zM627 393q0 -39 -28 -66.5t-69 -27.5q-39 0 -67.5 27t-28.5 67q0 41 28.5 70t67.5 29q41 0 69 -29.5t28 -69.5zM627 991q0 -39 -28 -66.5t-69 -27.5q-39 0 -67.5 27t-28.5 67q0 41 28.5 70t67.5 29q41 0 69 -29.5t28 -69.5z" />
    <glyph glyph-name="oslash" unicode="&#xf8;" 
d="M1010 492q0 -229 -136 -372t-344 -143q-201 0 -331 127l-113 -127l-12 13l112 129q-135 138 -135 373q0 251 132.5 384.5t346.5 133.5q211 0 336 -119l107 121l12 -13l-106 -120q131 -134 131 -387zM858 492q0 187 -49 307l-551 -627q82 -182 272 -182q66 0 122 25
t103.5 80.5t75 156.5t27.5 240zM203 492q0 -190 47 -302l551 625q-43 94 -114.5 138t-156.5 44q-53 0 -99 -15t-88.5 -51.5t-73 -93t-48.5 -144.5t-18 -201z" />
    <glyph glyph-name="ugrave" unicode="&#xf9;" horiz-adv-x="1142" 
d="M1110 0h-293v119q-168 -142 -338 -142q-81 0 -139 27.5t-87.5 74t-42.5 96t-13 106.5v550q0 40 -9.5 56.5t-43.5 25t-111 9.5v12q158 10 293 76v-734q0 -70 16 -121t38.5 -77.5t57 -41.5t60 -18.5t59.5 -3.5q59 0 130.5 35t129.5 84v698q0 40 -9.5 56.5t-43.5 25
t-111 9.5v12q153 12 293 76v-901q0 -51 21.5 -74t83.5 -23h59v-12zM262 1442q0 51 47 51q25 0 47 -13t62 -53l260 -262h-31q-203 124 -301 187q-84 51 -84 90z" />
    <glyph glyph-name="uacute" unicode="&#xfa;" horiz-adv-x="1142" 
d="M1110 0h-293v119q-168 -142 -338 -142q-81 0 -139 27.5t-87.5 74t-42.5 96t-13 106.5v550q0 40 -9.5 56.5t-43.5 25t-111 9.5v12q158 10 293 76v-734q0 -70 16 -121t38.5 -77.5t57 -41.5t60 -18.5t59.5 -3.5q59 0 130.5 35t129.5 84v698q0 40 -9.5 56.5t-43.5 25
t-111 9.5v12q153 12 293 76v-901q0 -51 21.5 -74t83.5 -23h59v-12zM891 1442q0 -39 -84 -90l-301 -187h-31l260 262q40 40 62 53t47 13q47 0 47 -51z" />
    <glyph glyph-name="ucircumflex" unicode="&#xfb;" horiz-adv-x="1142" 
d="M1110 0h-293v119q-168 -142 -338 -142q-81 0 -139 27.5t-87.5 74t-42.5 96t-13 106.5v550q0 40 -9.5 56.5t-43.5 25t-111 9.5v12q158 10 293 76v-734q0 -70 16 -121t38.5 -77.5t57 -41.5t60 -18.5t59.5 -3.5q59 0 130.5 35t129.5 84v698q0 40 -9.5 56.5t-43.5 25
t-111 9.5v12q153 12 293 76v-901q0 -51 21.5 -74t83.5 -23h59v-12zM563 1364q-94 -80 -145 -121l-121 -92h-12q32 32 112 127q26 31 60.5 77t56.5 77l21 30h57q78 -114 137 -184q75 -89 113 -127h-13q-71 53 -120 92z" />
    <glyph glyph-name="udieresis" unicode="&#xfc;" horiz-adv-x="1142" 
d="M1110 0h-293v119q-168 -142 -338 -142q-81 0 -139 27.5t-87.5 74t-42.5 96t-13 106.5v550q0 40 -9.5 56.5t-43.5 25t-111 9.5v12q158 10 293 76v-734q0 -70 16 -121t38.5 -77.5t57 -41.5t60 -18.5t59.5 -3.5q59 0 130.5 35t129.5 84v698q0 40 -9.5 56.5t-43.5 25
t-111 9.5v12q153 12 293 76v-901q0 -51 21.5 -74t83.5 -23h59v-12zM864 1315q0 -40 -27.5 -68t-68.5 -28t-68.5 28t-27.5 68q0 42 28.5 69t67.5 27t67.5 -27t28.5 -69zM471 1315q0 -40 -27.5 -68t-68.5 -28t-68.5 28t-27.5 68q0 42 28.5 69t67.5 27t67.5 -27t28.5 -69z" />
    <glyph glyph-name="yacute" unicode="&#xfd;" horiz-adv-x="1077" 
d="M1077 973h-14q-43 0 -66 -18.5t-45 -57.5q-36 -78 -75 -180l-150 -414q-77 -205 -143 -364q-7 -17 -29 -71t-32.5 -78t-29 -63.5t-35.5 -67.5t-36 -52q-71 -88 -178 -88q-71 0 -114.5 34.5t-43.5 92.5q0 38 23.5 60t54.5 22q34 0 56 -17.5t22 -52.5q0 -10 -1 -24.5
t-1 -24t2 -15.5q10 -38 61 -38q54 0 105 63q74 98 163 340l-409 922q-9 22 -16 34.5t-22 28t-39.5 22.5t-59.5 7h-25v12h434v-12h-59q-76 0 -76 -60q0 -21 12 -49l328 -755q252 687 252 768q0 96 -82 96h-49v12h317v-12zM901 1442q0 -39 -84 -90l-301 -187h-31l260 262
q40 40 62 53t47 13q47 0 47 -51z" />
    <glyph glyph-name="thorn" unicode="&#xfe;" horiz-adv-x="1130" 
d="M197 1440q0 35 -9 51t-44.5 25t-110.5 10v12q153 10 293 76v-744q57 57 137 98.5t170 41.5q63 0 122.5 -15t119.5 -52.5t104 -94.5t72 -147.5t28 -204.5q0 -143 -54 -259t-163 -187t-256 -73q-162 0 -280 78v-407q0 -59 18.5 -78t83.5 -19h61v-12h-456v12h59q63 0 84 20
t21 77v1792zM928 489q0 247 -89.5 365.5t-254.5 118.5q-123 0 -258 -115v-790q83 -54 235 -54q161 0 264 124.5t103 350.5z" />
    <glyph glyph-name="ydieresis" unicode="&#xff;" horiz-adv-x="1077" 
d="M1077 973h-14q-43 0 -66 -18.5t-45 -57.5q-36 -78 -75 -180l-150 -414q-77 -205 -143 -364q-7 -17 -29 -71t-32.5 -78t-29 -63.5t-35.5 -67.5t-36 -52q-71 -88 -178 -88q-71 0 -114.5 34.5t-43.5 92.5q0 38 23.5 60t54.5 22q34 0 56 -17.5t22 -52.5q0 -10 -1 -24.5
t-1 -24t2 -15.5q10 -38 61 -38q54 0 105 63q74 98 163 340l-409 922q-9 22 -16 34.5t-22 28t-39.5 22.5t-59.5 7h-25v12h434v-12h-59q-76 0 -76 -60q0 -21 12 -49l328 -755q252 687 252 768q0 96 -82 96h-49v12h317v-12zM866 1315q0 -40 -27.5 -68t-68.5 -28t-68.5 28
t-27.5 68q0 42 28.5 69t67.5 27t67.5 -27t28.5 -69zM473 1315q0 -40 -27.5 -68t-68.5 -28t-68.5 28t-27.5 68q0 42 28.5 69t67.5 27t67.5 -27t28.5 -69z" />
    <glyph glyph-name="Amacron" unicode="&#x100;" horiz-adv-x="1427" 
d="M1427 0h-522v12h66q20 0 34 1.5t33 8t29 22t10 40.5q0 26 -104 330q-39 117 -64 190h-528l-72 -188q-3 -9 -20.5 -54.5t-25.5 -68.5t-20.5 -61.5t-18 -66.5t-5.5 -48q0 -86 76 -105h86v-12h-381v12h57q43 26 81.5 82t99.5 195.5t155 392.5q2 5 293 799h43l498 -1329
q24 -69 60 -104.5t110 -35.5h30v-12zM901 616l-258 709l-258 -709h516zM997 1624h-579v21h579v-21z" />
    <glyph glyph-name="amacron" unicode="&#x101;" horiz-adv-x="962" 
d="M868 14q27 0 49.5 28.5t32.5 80.5h13q-13 -81 -50.5 -113.5t-95.5 -32.5q-149 0 -149 222q-66 -71 -127 -118.5t-111.5 -68.5t-85 -28t-70.5 -7q-113 0 -171 57t-58 148q0 272 565 381l58 10v111q0 161 -56.5 237t-203.5 76q-69 0 -120.5 -27t-51.5 -81q0 -20 8 -40.5
t8 -37.5q0 -34 -20 -56t-58 -22q-31 0 -51.5 23t-20.5 59q0 77 92 136t226 59q78 0 141.5 -15.5t118.5 -50.5t86 -101t31 -159v-549q0 -121 71 -121zM668 217v344q-103 -19 -180.5 -43.5t-147 -64.5t-106.5 -101.5t-37 -142.5q0 -91 46 -134.5t119 -43.5q70 0 157.5 59
t148.5 127zM733 1192h-579v20h579v-20z" />
    <glyph glyph-name="Abreve" unicode="&#x102;" horiz-adv-x="1427" 
d="M1427 0h-522v12h66q20 0 34 1.5t33 8t29 22t10 40.5q0 26 -104 330q-39 117 -64 190h-528l-72 -188q-3 -9 -20.5 -54.5t-25.5 -68.5t-20.5 -61.5t-18 -66.5t-5.5 -48q0 -86 76 -105h86v-12h-381v12h57q43 26 81.5 82t99.5 195.5t155 392.5q2 5 293 799h43l498 -1329
q24 -69 60 -104.5t110 -35.5h30v-12zM901 616l-258 709l-258 -709h516zM707 1614q-119 0 -205.5 62t-100.5 177h17q14 -44 44 -75.5t70.5 -48.5t83.5 -25t91 -8t91 8t83 25t70 48.5t44 75.5h17q-14 -115 -100 -177t-205 -62z" />
    <glyph glyph-name="abreve" unicode="&#x103;" horiz-adv-x="962" 
d="M868 14q27 0 49.5 28.5t32.5 80.5h13q-13 -81 -50.5 -113.5t-95.5 -32.5q-149 0 -149 222q-66 -71 -127 -118.5t-111.5 -68.5t-85 -28t-70.5 -7q-113 0 -171 57t-58 148q0 272 565 381l58 10v111q0 161 -56.5 237t-203.5 76q-69 0 -120.5 -27t-51.5 -81q0 -20 8 -40.5
t8 -37.5q0 -34 -20 -56t-58 -22q-31 0 -51.5 23t-20.5 59q0 77 92 136t226 59q78 0 141.5 -15.5t118.5 -50.5t86 -101t31 -159v-549q0 -121 71 -121zM668 217v344q-103 -19 -180.5 -43.5t-147 -64.5t-106.5 -101.5t-37 -142.5q0 -91 46 -134.5t119 -43.5q70 0 157.5 59
t148.5 127zM457 1151q-129 0 -212.5 85.5t-94.5 209.5h16q26 -94 104 -153.5t187 -59.5t187 59.5t104 153.5h16q-11 -124 -94.5 -209.5t-212.5 -85.5z" />
    <glyph glyph-name="Aogonek" unicode="&#x104;" horiz-adv-x="1427" 
d="M1360 -317q43 0 90 23t84 58l8 -10q-119 -119 -248 -119q-67 0 -105 37.5t-38 96.5q0 56 34 117.5t91 113.5h-371v12h66q20 0 34 1.5t33 8t29 22t10 40.5q0 26 -104 330q-39 117 -64 190h-528l-72 -188q-3 -9 -20.5 -54.5t-25.5 -68.5t-20.5 -61.5t-18 -66.5t-5.5 -48
q0 -86 76 -105h86v-12h-381v12h57q43 26 81.5 82t99.5 195.5t155 392.5q2 5 293 799h43l498 -1329q24 -69 60 -104.5t110 -35.5h30v-12h-131q-61 -91 -61 -193q0 -56 33 -90t92 -34zM901 616l-258 709l-258 -709h516z" />
    <glyph glyph-name="aogonek" unicode="&#x105;" horiz-adv-x="962" 
d="M965 -268q76 0 149 69l8 -8q-102 -102 -207 -102q-58 0 -90 31.5t-32 82.5q0 90 84 181q-24 -9 -54 -9q-149 0 -149 222q-66 -71 -127 -118.5t-111 -68.5t-84.5 -28t-70.5 -7q-113 0 -171.5 57t-58.5 148q0 272 565 381l58 10v111q0 161 -56.5 237t-203.5 76
q-69 0 -120.5 -27t-51.5 -81q0 -20 8 -40.5t8 -37.5q0 -34 -20 -56t-58 -22q-31 0 -51 23t-20 59q0 77 91.5 136t225.5 59q78 0 141.5 -15.5t118.5 -50.5t86 -101t31 -159v-549q0 -121 71 -121q27 0 49.5 28.5t32.5 80.5h13q-13 -74 -51 -115q-60 -69 -60 -172
q0 -48 27.5 -76t79.5 -28zM674 217v344q-103 -19 -180.5 -43.5t-147 -64.5t-106.5 -101.5t-37 -142.5q0 -91 46.5 -134.5t119.5 -43.5q70 0 157 59t148 127z" />
    <glyph glyph-name="Cacute" unicode="&#x106;" horiz-adv-x="1492" 
d="M1337 86q-71 -46 -177 -73.5t-176 -34.5t-126 -7q-146 0 -266 36.5t-207 103.5t-146.5 161t-88.5 208.5t-29 246.5q0 90 16 177.5t50.5 178t94 166.5t139.5 136t196 94t255 34q207 0 455 -112q0 8 -1 38t-1 42h12q4 -65 13.5 -182.5t13.5 -182.5h-12l-13 92
q-62 130 -187 211.5t-310 81.5q-112 0 -203.5 -40.5t-154 -111.5t-105.5 -168t-62.5 -208t-19.5 -234q0 -152 30 -278.5t82.5 -213.5t124 -147t153 -88t171.5 -28q165 0 304.5 70.5t189.5 174.5l26 119h13l-48 -348h-12zM1151 1872q0 -39 -84 -90l-301 -187h-31l260 263
q40 40 61.5 52.5t47.5 12.5q47 0 47 -51z" />
    <glyph glyph-name="cacute" unicode="&#x107;" horiz-adv-x="901" 
d="M541 14q104 0 189 58.5t138 183.5l13 -4q-112 -275 -375 -275q-94 0 -176.5 34.5t-144.5 97.5t-98 159.5t-36 214.5q0 82 18 158t57 143.5t95 117.5t136.5 79t177.5 29q137 0 220 -49.5t83 -120.5q0 -47 -21.5 -69.5t-54.5 -22.5q-86 0 -86 90q0 8 3 29.5t3 33.5
q0 37 -42.5 66.5t-113.5 29.5q-53 0 -98.5 -15.5t-87.5 -52.5t-72 -94.5t-47.5 -147.5t-17.5 -204q0 -119 26.5 -211t73.5 -147t107 -83t131 -28zM788 1442q0 -39 -83 -90l-302 -187h-30l260 262q41 41 62 53.5t46 12.5q47 0 47 -51z" />
    <glyph glyph-name="Cdotaccent" unicode="&#x10a;" horiz-adv-x="1492" 
d="M1337 86q-71 -46 -177 -73.5t-176 -34.5t-126 -7q-146 0 -266 36.5t-207 103.5t-146.5 161t-88.5 208.5t-29 246.5q0 90 16 177.5t50.5 178t94 166.5t139.5 136t196 94t255 34q207 0 455 -112q0 8 -1 38t-1 42h12q4 -65 13.5 -182.5t13.5 -182.5h-12l-13 92
q-62 130 -187 211.5t-310 81.5q-112 0 -203.5 -40.5t-154 -111.5t-105.5 -168t-62.5 -208t-19.5 -234q0 -152 30 -278.5t82.5 -213.5t124 -147t153 -88t171.5 -28q165 0 304.5 70.5t189.5 174.5l26 119h13l-48 -348h-12zM971 1718q0 -38 -28 -67t-71 -29q-41 0 -68.5 29
t-27.5 67q0 40 27.5 69.5t68.5 29.5q43 0 71 -29.5t28 -69.5z" />
    <glyph glyph-name="cdotaccent" unicode="&#x10b;" horiz-adv-x="901" 
d="M541 14q104 0 189 58.5t138 183.5l13 -4q-112 -275 -375 -275q-94 0 -176.5 34.5t-144.5 97.5t-98 159.5t-36 214.5q0 82 18 158t57 143.5t95 117.5t136.5 79t177.5 29q137 0 220 -49.5t83 -120.5q0 -47 -21.5 -69.5t-54.5 -22.5q-86 0 -86 90q0 8 3 29.5t3 33.5
q0 37 -42.5 66.5t-113.5 29.5q-53 0 -98.5 -15.5t-87.5 -52.5t-72 -94.5t-47.5 -147.5t-17.5 -204q0 -119 26.5 -211t73.5 -147t107 -83t131 -28zM616 1315q0 -38 -27.5 -67t-70.5 -29q-41 0 -68.5 29t-27.5 67q0 40 27 69t69 29q43 0 70.5 -29t27.5 -69z" />
    <glyph glyph-name="Ccaron" unicode="&#x10c;" horiz-adv-x="1492" 
d="M1337 86q-71 -46 -177 -73.5t-176 -34.5t-126 -7q-146 0 -266 36.5t-207 103.5t-146.5 161t-88.5 208.5t-29 246.5q0 90 16 177.5t50.5 178t94 166.5t139.5 136t196 94t255 34q207 0 455 -112q0 8 -1 38t-1 42h12q4 -65 13.5 -182.5t13.5 -182.5h-12l-13 92
q-62 130 -187 211.5t-310 81.5q-112 0 -203.5 -40.5t-154 -111.5t-105.5 -168t-62.5 -208t-19.5 -234q0 -152 30 -278.5t82.5 -213.5t124 -147t153 -88t171.5 -28q165 0 304.5 70.5t189.5 174.5l26 119h13l-48 -348h-12zM879 1679q94 80 145 121l121 92h12
q-38 -38 -113 -127q-26 -31 -60.5 -77t-55.5 -76l-21 -31h-57q-78 114 -137 184q-75 89 -113 127h12q72 -53 121 -92z" />
    <glyph glyph-name="ccaron" unicode="&#x10d;" horiz-adv-x="901" 
d="M541 14q104 0 189 58.5t138 183.5l13 -4q-112 -275 -375 -275q-94 0 -176.5 34.5t-144.5 97.5t-98 159.5t-36 214.5q0 82 18 158t57 143.5t95 117.5t136.5 79t177.5 29q137 0 220 -49.5t83 -120.5q0 -47 -21.5 -69.5t-54.5 -22.5q-86 0 -86 90q0 8 3 29.5t3 33.5
q0 37 -42.5 66.5t-113.5 29.5q-53 0 -98.5 -15.5t-87.5 -52.5t-72 -94.5t-47.5 -147.5t-17.5 -204q0 -119 26.5 -211t73.5 -147t107 -83t131 -28zM496 1270q94 80 145 121l121 92h12q-32 -32 -112 -127q-26 -31 -60.5 -77.5t-55.5 -76.5l-22 -31h-57q-78 115 -137 185
q-75 89 -113 127h12q72 -53 121 -92z" />
    <glyph glyph-name="Dcaron" unicode="&#x10e;" horiz-adv-x="1708" 
d="M1417 776q0 59 -7.5 120.5t-27 131.5t-49 133t-78 122t-109.5 102t-148 68.5t-189 25.5q-207 0 -350 -62v-1345q126 -70 344 -70q126 0 229 40.5t174 111.5t119 170t70 212t22 240zM299 1350q0 67 -32 92.5t-107 25.5h-66v13h312q58 0 202.5 5t200.5 5q148 0 269.5 -30
t201 -76.5t139.5 -112t92 -128t51.5 -134t25 -120t5.5 -95.5q0 -64 -7.5 -129t-29.5 -146.5t-57 -153.5t-96 -142.5t-140.5 -121t-196 -81.5t-257.5 -31q-55 0 -190 5t-177 5h-348v12h66q85 0 112 24.5t27 94.5v1219zM805 1679q94 80 145 121l121 92h12q-32 -32 -112 -127
q-26 -31 -60.5 -77t-55.5 -76l-21 -31h-58q-78 114 -137 184q-75 89 -113 127h13q71 -53 120 -92z" />
    <glyph glyph-name="dcaron" unicode="&#x10f;" horiz-adv-x="1148" 
d="M1110 0h-293v119q-49 -58 -133 -100t-180 -42q-54 0 -110.5 13.5t-119.5 49.5t-111 90.5t-80 146t-32 206.5q0 117 39.5 215.5t108 165.5t161 105.5t197.5 40.5q128 0 260 -49v477q0 39 -10 55.5t-43 24t-111 8.5v12q161 8 293 76v-1505q0 -51 21.5 -74t83.5 -23h59v-12z
M817 133v731q-29 68 -97.5 100.5t-152.5 32.5q-178 0 -271 -127t-93 -370q0 -115 23 -204t59 -141t85.5 -85t96.5 -44.5t98 -11.5q133 0 252 119zM1079 1075l-10 8q76 125 76 252q0 100 -62 178l9 19h118q15 -59 15 -102q0 -174 -146 -355z" />
    <glyph glyph-name="Dcroat" unicode="&#x110;" horiz-adv-x="1712" 
d="M61 766v20h242v564q0 67 -32 92.5t-107 25.5h-66v13h312q58 0 202.5 5t200.5 5q148 0 269.5 -30t201 -76.5t139.5 -112t92 -128t51.5 -134t25 -120t5.5 -95.5q0 -64 -7.5 -129t-29.5 -146.5t-57 -153.5t-96 -142.5t-140.5 -121t-196 -81.5t-257.5 -31q-55 0 -190 5
t-177 5h-348v12h66q85 0 112 24.5t27 94.5v635h-242zM1421 776q0 59 -7.5 120.5t-27 131.5t-49 133t-78 122t-109.5 102t-148 68.5t-189 25.5q-207 0 -350 -62v-631h348v-20h-348v-694q126 -70 344 -70q126 0 229 40.5t174 111.5t119 170t70 212t22 240z" />
    <glyph glyph-name="dcroat" unicode="&#x111;" horiz-adv-x="1142" 
d="M440 1315v20h377v103q0 39 -10 55.5t-43 24t-111 8.5v12q161 8 293 76v-279h129v-20h-129v-1206q0 -51 21.5 -74t83.5 -23h59v-12h-293v119q-49 -58 -133 -100t-180 -42q-54 0 -110.5 13.5t-119.5 49.5t-111 90.5t-80 146t-32 206.5q0 117 39.5 215.5t108 165.5
t161 105.5t197.5 40.5q128 0 260 -49v354h-377zM817 133v731q-29 68 -97.5 100.5t-152.5 32.5q-178 0 -271 -127t-93 -370q0 -115 23 -204t59 -141t85.5 -85t96.5 -44.5t98 -11.5q133 0 252 119z" />
    <glyph glyph-name="Emacron" unicode="&#x112;" horiz-adv-x="1333" 
d="M94 1481h1112l21 -299h-13l-22 166q-33 59 -175.5 89.5t-326.5 30.5q-142 0 -186.5 -22.5t-44.5 -97.5v-566h123q83 0 148.5 5t107 12.5t71 20t44 23t22.5 27t9 26t1 26.5v41h12v-373h-12v47q0 23 -3 36.5t-24 34.5t-60.5 32.5t-120 20.5t-195.5 9h-123v-639
q0 -71 35.5 -95t101.5 -24q317 0 463 41q151 41 198 164l23 88h12l-55 -305h-1143v12h66q85 0 112 24.5t27 94.5v1219q0 73 -34 95.5t-105 22.5h-66v13zM1012 1624h-580v21h580v-21z" />
    <glyph glyph-name="emacron" unicode="&#x113;" horiz-adv-x="931" 
d="M498 1010q94 0 169 -37t120 -99t68.5 -136t25.5 -154h-678q0 -142 20.5 -248.5t51.5 -166.5t76.5 -96t86.5 -47.5t90 -11.5q204 0 332 203l10 -6q-137 -234 -381 -234q-58 0 -115.5 14.5t-117 51.5t-104 93t-73 146.5t-28.5 204.5q0 239 119.5 381t327.5 142zM203 596
h534q0 111 -26 199t-85.5 145t-144.5 57q-252 0 -278 -401zM768 1192h-580v20h580v-20z" />
    <glyph glyph-name="Edotaccent" unicode="&#x116;" horiz-adv-x="1333" 
d="M94 1481h1112l21 -299h-13l-22 166q-33 59 -175.5 89.5t-326.5 30.5q-142 0 -186.5 -22.5t-44.5 -97.5v-566h123q83 0 148.5 5t107 12.5t71 20t44 23t22.5 27t9 26t1 26.5v41h12v-373h-12v47q0 23 -3 36.5t-24 34.5t-60.5 32.5t-120 20.5t-195.5 9h-123v-639
q0 -71 35.5 -95t101.5 -24q317 0 463 41q151 41 198 164l23 88h12l-55 -305h-1143v12h66q85 0 112 24.5t27 94.5v1219q0 73 -34 95.5t-105 22.5h-66v13zM823 1718q0 -38 -27.5 -67t-70.5 -29q-41 0 -68.5 29t-27.5 67q0 40 27.5 69.5t68.5 29.5q43 0 70.5 -29.5t27.5 -69.5z
" />
    <glyph glyph-name="edotaccent" unicode="&#x117;" horiz-adv-x="931" 
d="M498 1010q94 0 169 -37t120 -99t68.5 -136t25.5 -154h-678q0 -142 20.5 -248.5t51.5 -166.5t76.5 -96t86.5 -47.5t90 -11.5q204 0 332 203l10 -6q-137 -234 -381 -234q-58 0 -115.5 14.5t-117 51.5t-104 93t-73 146.5t-28.5 204.5q0 239 119.5 381t327.5 142zM203 596
h534q0 111 -26 199t-85.5 145t-144.5 57q-252 0 -278 -401zM578 1315q0 -38 -28 -67t-71 -29q-41 0 -68.5 29t-27.5 67q0 40 27 69t69 29q43 0 71 -29t28 -69z" />
    <glyph glyph-name="Eogonek" unicode="&#x118;" horiz-adv-x="1333" 
d="M1208 -317q43 0 90 23t84 58l9 -10q-119 -119 -248 -119q-67 0 -105.5 37.5t-38.5 96.5q0 56 34 117.5t91 113.5h-1030v12h66q85 0 112 24.5t27 94.5v1219q0 73 -34 95.5t-105 22.5h-66v13h1112l21 -299h-13l-22 166q-33 59 -175.5 89.5t-326.5 30.5q-142 0 -186.5 -22.5
t-44.5 -97.5v-566h123q83 0 148.5 5t107 12.5t71 20t44 23t22.5 27t9 26t1 26.5v41h12v-373h-12v47q0 23 -3 36.5t-24 34.5t-60.5 32.5t-120 20.5t-195.5 9h-123v-639q0 -71 35.5 -95t101.5 -24q317 0 463 41q151 41 198 164l23 88h12l-55 -305h-92q-62 -92 -62 -193
q0 -56 33 -90t92 -34z" />
    <glyph glyph-name="eogonek" unicode="&#x119;" horiz-adv-x="931" 
d="M715 -268q76 0 149 69l8 -8q-50 -50 -98.5 -76t-107.5 -26q-58 0 -90.5 31.5t-32.5 82.5q0 48 28.5 101.5t75.5 97.5q-79 -27 -158 -27q-58 0 -115.5 14.5t-117 51.5t-104 93t-73 146.5t-28.5 204.5q0 239 119.5 381t327.5 142q94 0 169 -37t120 -99t68.5 -136t25.5 -154
h-678q0 -142 20.5 -248.5t51.5 -166.5t76.5 -96t86.5 -47.5t90 -11.5q204 0 332 203l10 -6q-60 -103 -157 -172q-44 -31 -64 -64q-41 -67 -41 -139q0 -48 27.5 -76t79.5 -28zM203 596h534q0 111 -26 199t-85.5 145t-144.5 57q-252 0 -278 -401z" />
    <glyph glyph-name="Ecaron" unicode="&#x11a;" horiz-adv-x="1333" 
d="M94 1481h1112l21 -299h-13l-22 166q-33 59 -175.5 89.5t-326.5 30.5q-142 0 -186.5 -22.5t-44.5 -97.5v-566h123q83 0 148.5 5t107 12.5t71 20t44 23t22.5 27t9 26t1 26.5v41h12v-373h-12v47q0 23 -3 36.5t-24 34.5t-60.5 32.5t-120 20.5t-195.5 9h-123v-639
q0 -71 35.5 -95t101.5 -24q317 0 463 41q151 41 198 164l23 88h12l-55 -305h-1143v12h66q85 0 112 24.5t27 94.5v1219q0 73 -34 95.5t-105 22.5h-66v13zM729 1679q94 80 145 121l121 92h13q-38 -38 -113 -127q-26 -31 -60.5 -77t-55.5 -76l-21 -31h-58q-78 114 -137 184
q-80 95 -112 127h12q72 -53 121 -92z" />
    <glyph glyph-name="ecaron" unicode="&#x11b;" horiz-adv-x="931" 
d="M498 1010q94 0 169 -37t120 -99t68.5 -136t25.5 -154h-678q0 -142 20.5 -248.5t51.5 -166.5t76.5 -96t86.5 -47.5t90 -11.5q204 0 332 203l10 -6q-137 -234 -381 -234q-58 0 -115.5 14.5t-117 51.5t-104 93t-73 146.5t-28.5 204.5q0 239 119.5 381t327.5 142zM203 596
h534q0 111 -26 199t-85.5 145t-144.5 57q-252 0 -278 -401zM446 1270q95 80 146 121l121 92h12q-38 -38 -113 -127q-26 -31 -60.5 -77.5t-55.5 -76.5l-21 -31h-57q-78 115 -137 185q-75 89 -113 127h12q72 -53 121 -92z" />
    <glyph glyph-name="Gbreve" unicode="&#x11e;" horiz-adv-x="1650" 
d="M1640 692h-49q-28 0 -43 -1t-36.5 -6.5t-32 -16.5t-19 -32.5t-8.5 -53.5v-394q-103 -98 -262.5 -158.5t-317.5 -60.5t-286 44t-213.5 118t-143 174t-83 209t-25.5 227q0 221 98.5 398t273 275.5t392.5 98.5q105 0 208 -21.5t259 -90.5l-2 80h12q3 -61 13.5 -182.5
t13.5 -182.5h-13l-12 92q-63 128 -188.5 210.5t-298.5 82.5q-125 0 -231 -51.5t-183.5 -147.5t-121.5 -242t-44 -327q0 -162 36 -293.5t93.5 -215t134 -139.5t153.5 -79.5t156 -23.5q99 0 177 23.5t122.5 58t73.5 77.5t39 77t10 63v301q0 68 -33 89t-102 21h-43v13h526v-13z
M877 1614q-119 0 -205.5 62t-100.5 177h17q14 -44 44 -75.5t70.5 -48.5t83.5 -25t91 -8t91 8t83 25t70 48.5t44 75.5h17q-14 -115 -100 -177t-205 -62z" />
    <glyph glyph-name="gbreve" unicode="&#x11f;" horiz-adv-x="1058" 
d="M1059 1102q0 -34 -20 -58t-54 -24q-55 0 -74 49q0 1 -3.5 9t-4 9t-3.5 6.5t-6 6.5t-8 2.5t-12 1.5q-9 0 -20.5 -10.5t-24 -28.5t-22.5 -35t-22 -39t-17 -30q201 -89 201 -275q0 -78 -30 -140t-76 -99t-107 -61.5t-117.5 -34t-112.5 -9.5h-41q-98 0 -133 -6
q-46 -8 -69 -34.5t-23 -55.5q0 -22 8.5 -39.5t27 -30t34.5 -21.5t46 -16.5t44.5 -10.5t46.5 -9l178 -33q379 -65 379 -264q0 -45 -12.5 -85t-47 -81t-88.5 -70.5t-144 -48t-206 -18.5q-122 0 -215 17t-147 43t-87.5 62t-45 69t-11.5 69q0 90 74 159.5t238 98.5
q-67 17 -111.5 57.5t-44.5 102.5q0 66 56 110t157 45q-140 35 -218.5 124t-78.5 210q0 150 118 237t320 87q121 0 226 -45q4 7 23 44.5t33.5 60t38.5 52.5t54 45t64 15q37 0 63.5 -24t26.5 -56zM817 682q0 90 -23.5 154t-66 99t-93 50.5t-112.5 15.5q-67 0 -118 -21.5
t-80.5 -54.5t-48 -79.5t-25 -89t-6.5 -90.5q0 -29 4.5 -61.5t22.5 -79.5t46 -83t82 -62t125 -26q73 0 130.5 27.5t92 74t52.5 104t18 122.5zM924 -236q0 30 -13 59t-43 59t-87 55t-136 40l-299 54q-99 -21 -165 -84.5t-66 -153.5q0 -262 420 -262q191 0 290 63.5t99 169.5z
M520 1151q-129 0 -212.5 85.5t-94.5 209.5h16q26 -94 104 -153.5t187 -59.5t187 59.5t104 153.5h16q-11 -124 -94.5 -209.5t-212.5 -85.5z" />
    <glyph glyph-name="Gdotaccent" unicode="&#x120;" horiz-adv-x="1650" 
d="M1640 692h-49q-28 0 -43 -1t-36.5 -6.5t-32 -16.5t-19 -32.5t-8.5 -53.5v-394q-103 -98 -262.5 -158.5t-317.5 -60.5t-286 44t-213.5 118t-143 174t-83 209t-25.5 227q0 221 98.5 398t273 275.5t392.5 98.5q105 0 208 -21.5t259 -90.5l-2 80h12q3 -61 13.5 -182.5
t13.5 -182.5h-13l-12 92q-63 128 -188.5 210.5t-298.5 82.5q-125 0 -231 -51.5t-183.5 -147.5t-121.5 -242t-44 -327q0 -162 36 -293.5t93.5 -215t134 -139.5t153.5 -79.5t156 -23.5q99 0 177 23.5t122.5 58t73.5 77.5t39 77t10 63v301q0 68 -33 89t-102 21h-43v13h526v-13z
M979 1718q0 -38 -27.5 -67t-70.5 -29q-41 0 -69 29t-28 67q0 40 27.5 69.5t69.5 29.5q43 0 70.5 -29.5t27.5 -69.5z" />
    <glyph glyph-name="gdotaccent" unicode="&#x121;" horiz-adv-x="1058" 
d="M1059 1102q0 -34 -20 -58t-54 -24q-55 0 -74 49q0 1 -3.5 9t-4 9t-3.5 6.5t-6 6.5t-8 2.5t-12 1.5q-9 0 -20.5 -10.5t-24 -28.5t-22.5 -35t-22 -39t-17 -30q201 -89 201 -275q0 -78 -30 -140t-76 -99t-107 -61.5t-117.5 -34t-112.5 -9.5h-41q-98 0 -133 -6
q-46 -8 -69 -34.5t-23 -55.5q0 -22 8.5 -39.5t27 -30t34.5 -21.5t46 -16.5t44.5 -10.5t46.5 -9l178 -33q379 -65 379 -264q0 -45 -12.5 -85t-47 -81t-88.5 -70.5t-144 -48t-206 -18.5q-122 0 -215 17t-147 43t-87.5 62t-45 69t-11.5 69q0 90 74 159.5t238 98.5
q-67 17 -111.5 57.5t-44.5 102.5q0 66 56 110t157 45q-140 35 -218.5 124t-78.5 210q0 150 118 237t320 87q121 0 226 -45q4 7 23 44.5t33.5 60t38.5 52.5t54 45t64 15q37 0 63.5 -24t26.5 -56zM817 682q0 90 -23.5 154t-66 99t-93 50.5t-112.5 15.5q-67 0 -118 -21.5
t-80.5 -54.5t-48 -79.5t-25 -89t-6.5 -90.5q0 -29 4.5 -61.5t22.5 -79.5t46 -83t82 -62t125 -26q73 0 130.5 27.5t92 74t52.5 104t18 122.5zM924 -236q0 30 -13 59t-43 59t-87 55t-136 40l-299 54q-99 -21 -165 -84.5t-66 -153.5q0 -262 420 -262q191 0 290 63.5t99 169.5z
M625 1315q0 -38 -28 -67t-71 -29q-41 0 -68.5 29t-27.5 67q0 40 27 69t69 29q43 0 71 -29t28 -69z" />
    <glyph glyph-name="Gcommaaccent" unicode="&#x122;" horiz-adv-x="1650" 
d="M1640 692h-49q-28 0 -43 -1t-36.5 -6.5t-32 -16.5t-19 -32.5t-8.5 -53.5v-394q-103 -98 -262.5 -158.5t-317.5 -60.5t-286 44t-213.5 118t-143 174t-83 209t-25.5 227q0 221 98.5 398t273 275.5t392.5 98.5q105 0 208 -21.5t259 -90.5l-2 80h12q3 -61 13.5 -182.5
t13.5 -182.5h-13l-12 92q-63 128 -188.5 210.5t-298.5 82.5q-125 0 -231 -51.5t-183.5 -147.5t-121.5 -242t-44 -327q0 -162 36 -293.5t93.5 -215t134 -139.5t153.5 -79.5t156 -23.5q99 0 177 23.5t122.5 58t73.5 77.5t39 77t10 63v301q0 68 -33 89t-102 21h-43v13h526v-13z
M971 -338q0 -101 -54 -206t-137 -183l-8 8q125 131 125 244q0 22 -5 38t-19.5 30t-25.5 21.5t-38 23.5q-24 17 -35.5 35t-11.5 48q0 36 27.5 61t70.5 25q47 0 79 -37.5t32 -107.5z" />
    <glyph glyph-name="gcommaaccent" unicode="&#x123;" horiz-adv-x="1058" 
d="M1059 1102q0 -34 -20 -58t-54 -24q-55 0 -74 49q0 1 -3.5 9t-4 9t-3.5 6.5t-6 6.5t-8 2.5t-12 1.5q-9 0 -20.5 -10.5t-24 -28.5t-22.5 -35t-22 -39t-17 -30q201 -89 201 -275q0 -78 -30 -140t-76 -99t-107 -61.5t-117.5 -34t-112.5 -9.5h-41q-98 0 -133 -6
q-46 -8 -69 -34.5t-23 -55.5q0 -22 8.5 -39.5t27 -30t34.5 -21.5t46 -16.5t44.5 -10.5t46.5 -9l178 -33q379 -65 379 -264q0 -45 -12.5 -85t-47 -81t-88.5 -70.5t-144 -48t-206 -18.5q-122 0 -215 17t-147 43t-87.5 62t-45 69t-11.5 69q0 90 74 159.5t238 98.5
q-67 17 -111.5 57.5t-44.5 102.5q0 66 56 110t157 45q-140 35 -218.5 124t-78.5 210q0 150 118 237t320 87q121 0 226 -45q4 7 23 44.5t33.5 60t38.5 52.5t54 45t64 15q37 0 63.5 -24t26.5 -56zM817 682q0 90 -23.5 154t-66 99t-93 50.5t-112.5 15.5q-67 0 -118 -21.5
t-80.5 -54.5t-48 -79.5t-25 -89t-6.5 -90.5q0 -29 4.5 -61.5t22.5 -79.5t46 -83t82 -62t125 -26q73 0 130.5 27.5t92 74t52.5 104t18 122.5zM924 -236q0 30 -13 59t-43 59t-87 55t-136 40l-299 54q-99 -21 -165 -84.5t-66 -153.5q0 -262 420 -262q191 0 290 63.5t99 169.5z
M442 1323q0 80 38.5 162t101.5 151l10 -8q-40 -48 -63 -102t-23 -92q0 -16 7.5 -29t14.5 -18.5t29 -20t31 -20.5q43 -28 43 -74q0 -33 -23.5 -56.5t-62.5 -23.5q-45 0 -74 34t-29 97z" />
    <glyph glyph-name="Hbar" unicode="&#x126;" horiz-adv-x="1734" 
d="M1640 0h-569v12h66q80 0 109.5 24.5t29.5 94.5v629h-817v-629q0 -70 29 -94.5t106 -24.5h70v-12h-570v12h66q80 0 109.5 24.5t29.5 94.5v995h-203v13h203v211q0 65 -30 91.5t-109 26.5h-66v13h570v-13h-70q-77 0 -106 -24t-29 -94v-211h817v211q0 70 -29.5 94t-109.5 24
h-66v13h569v-13h-69q-77 0 -106 -24t-29 -94v-211h202v-13h-202v-995q0 -70 29 -94.5t106 -24.5h69v-12zM459 772h817v354h-817v-354z" />
    <glyph glyph-name="hbar" unicode="&#x127;" horiz-adv-x="1134" 
d="M1116 0h-457v12h62q62 0 82 21.5t20 75.5v557q0 61 -8.5 109.5t-21.5 80.5t-33.5 54.5t-39.5 34.5t-46 18.5t-45.5 8t-44.5 1.5q-112 0 -258 -99v-765q0 -59 19 -78t83 -19h61v-12h-456v12h59q62 0 83.5 20t21.5 77v1132h-146v21h146v178q0 37 -11.5 53.5t-44.5 24
t-108 8.5v12q167 11 293 76v-352h485v-21h-485v-352q163 121 317 121q61 0 109 -12.5t80 -32.5t55 -51.5t35 -62t19.5 -72t9 -73t1.5 -73.5v-524q0 -54 20.5 -75.5t82.5 -21.5h61v-12z" />
    <glyph glyph-name="Imacron" unicode="&#x12a;" horiz-adv-x="757" 
d="M664 0h-570v12h66q82 0 110.5 26t28.5 93v1219q0 69 -30 93.5t-109 24.5h-66v13h570v-13h-70q-79 0 -107 -25t-28 -93v-1219q0 -66 26 -92.5t109 -26.5h70v-12zM670 1624h-580v21h580v-21z" />
    <glyph glyph-name="imacron" unicode="&#x12b;" horiz-adv-x="522" 
d="M489 0h-456v12h61q62 0 82.5 21t20.5 76v722q0 59 -27.5 74.5t-136.5 16.5v12q158 10 293 76v-901q0 -54 20 -75.5t82 -21.5h61v-12zM551 1192h-580v20h580v-20z" />
    <glyph glyph-name="Iogonek" unicode="&#x12e;" horiz-adv-x="757" 
d="M567 -317q43 0 90 23t84 58l9 -10q-119 -119 -248 -119q-67 0 -105.5 37.5t-38.5 96.5q0 56 34 117.5t91 113.5h-389v12h66q82 0 110.5 26t28.5 93v1219q0 69 -30 93.5t-109 24.5h-66v13h570v-13h-70q-79 0 -107 -25t-28 -93v-1219q0 -49 11.5 -75t47.5 -36h2
q24 -8 74 -8h70v-12h-160q-62 -92 -62 -193q0 -56 33 -90t92 -34z" />
    <glyph glyph-name="iogonek" unicode="&#x12f;" horiz-adv-x="522" 
d="M408 -268q76 0 149 69l8 -8q-102 -102 -207 -102q-58 0 -90 31.5t-32 82.5q0 47 26.5 99.5t71.5 95.5h-301v12h61q62 0 82.5 21t20.5 76v722q0 59 -27.5 74.5t-136.5 16.5v12q158 10 293 76v-901q0 -54 20 -75.5t82 -21.5h61v-12h-137q-51 -77 -51 -164q0 -48 27.5 -76
t79.5 -28zM358 1315q0 -38 -27.5 -67t-70.5 -29q-41 0 -68.5 29t-27.5 67q0 40 27 69t69 29q43 0 70.5 -29t27.5 -69z" />
    <glyph glyph-name="Idotaccent" unicode="&#x130;" horiz-adv-x="757" 
d="M664 0h-570v12h66q82 0 110.5 26t28.5 93v1219q0 69 -30 93.5t-109 24.5h-66v13h570v-13h-70q-79 0 -107 -25t-28 -93v-1219q0 -66 26 -92.5t109 -26.5h70v-12zM477 1718q0 -38 -27.5 -67t-70.5 -29q-41 0 -68.5 29t-27.5 67q0 40 27.5 69.5t68.5 29.5q43 0 70.5 -29.5
t27.5 -69.5z" />
    <glyph glyph-name="dotlessi" unicode="&#x131;" horiz-adv-x="522" 
d="M489 0h-456v12h61q62 0 82.5 21t20.5 76v722q0 59 -27.5 74.5t-136.5 16.5v12q158 10 293 76v-901q0 -54 20 -75.5t82 -21.5h61v-12z" />
    <glyph glyph-name="Kcommaaccent" unicode="&#x136;" horiz-adv-x="1595" 
d="M1559 0h-345l-682 778l328 309q155 147 211.5 213.5t56.5 106.5q0 61 -96 61h-65v13h493v-13h-47q-52 0 -121.5 -36t-201.5 -150l-435 -412l656 -739q49 -55 76 -74q66 -46 172 -49v-8zM664 0h-570v12h66q83 0 111 28t28 91v1219q0 70 -28.5 94t-110.5 24h-66v13h570v-13
h-70q-78 0 -106.5 -26.5t-28.5 -91.5v-1219q0 -63 30 -91t105 -28h70v-12zM969 -338q0 -101 -54 -206t-137 -183l-8 8q125 131 125 244q0 22 -5 38t-19.5 30t-25.5 21.5t-38 23.5q-24 17 -35.5 35t-11.5 48q0 36 27.5 61t70.5 25q47 0 79 -37.5t32 -107.5z" />
    <glyph glyph-name="kcommaaccent" unicode="&#x137;" horiz-adv-x="1116" 
d="M197 1440q0 35 -9 51t-44.5 25t-110.5 10v12q162 11 293 76v-1274q287 325 366 434q44 61 62 91t18 50q0 33 -27 45.5t-88 12.5h-24v12h368v-12h-26q-32 0 -63 -18.5t-103 -90.5q-25 -25 -56.5 -59.5t-87.5 -97.5t-96 -107l381 -502q41 -54 76.5 -70t81.5 -16h8v-12h-465
v12h60q92 0 92 54q0 27 -23 57l-288 387l-166 -184v-217q0 -58 20 -77.5t82 -19.5h61v-12h-456v12h61q63 0 83 19t20 78v1331zM633 -324q0 -81 -38.5 -162.5t-100.5 -150.5l-11 8q40 48 63 102t23 93q0 16 -7.5 29t-14.5 18.5t-29 20t-31 20.5q-43 28 -43 74q0 33 23.5 56
t62.5 23q45 0 74 -34t29 -97z" />
    <glyph glyph-name="Lacute" unicode="&#x139;" horiz-adv-x="1302" 
d="M692 12q198 0 369 41q79 19 125.5 61t73.5 107l30 119h13l-62 -340h-1147v12h68q139 0 139 119v1219q0 69 -30.5 93.5t-108.5 24.5h-66v13h570v-13h-70q-81 0 -108 -24.5t-27 -93.5v-1219q0 -46 15 -69.5t65.5 -36.5t150.5 -13zM766 1872q0 -39 -84 -90l-301 -187h-31
l260 263q40 40 61.5 52.5t47.5 12.5q47 0 47 -51z" />
    <glyph glyph-name="lacute" unicode="&#x13a;" horiz-adv-x="522" 
d="M197 1440q0 35 -9 51t-44.5 25t-110.5 10v12q153 10 293 76v-1505q0 -55 18.5 -76t81.5 -21h63v-12h-456v12h61q56 0 79.5 22.5t23.5 74.5v1331zM602 1937q0 -39 -84 -90l-301 -186h-31l260 262q40 40 62 53t47 13q22 0 34.5 -13.5t12.5 -38.5z" />
    <glyph glyph-name="Lcommaaccent" unicode="&#x13b;" horiz-adv-x="1302" 
d="M692 12q198 0 369 41q79 19 125.5 61t73.5 107l30 119h13l-62 -340h-1147v12h68q139 0 139 119v1219q0 69 -30.5 93.5t-108.5 24.5h-66v13h570v-13h-70q-81 0 -108 -24.5t-27 -93.5v-1219q0 -46 15 -69.5t65.5 -36.5t150.5 -13zM825 -338q0 -101 -54 -206t-136 -183l-8 8
q125 131 125 244q0 22 -5 38t-19.5 30t-25.5 21.5t-38 23.5q-24 18 -36 36t-12 47q0 36 28 61t71 25q47 0 78.5 -37.5t31.5 -107.5z" />
    <glyph glyph-name="lcommaaccent" unicode="&#x13c;" horiz-adv-x="522" 
d="M197 1440q0 35 -9 51t-44.5 25t-110.5 10v12q153 10 293 76v-1505q0 -55 18.5 -76t81.5 -21h63v-12h-456v12h61q56 0 79.5 22.5t23.5 74.5v1331zM356 -324q0 -81 -38.5 -162.5t-100.5 -150.5l-10 8q40 48 63 102t23 93q0 16 -7.5 29t-14.5 18.5t-29 20t-31 20.5
q-43 28 -43 74q0 33 23.5 56t62.5 23q45 0 73.5 -34t28.5 -97z" />
    <glyph glyph-name="Lcaron" unicode="&#x13d;" horiz-adv-x="1302" 
d="M692 12q198 0 369 41q79 19 125.5 61t73.5 107l30 119h13l-62 -340h-1147v12h68q139 0 139 119v1219q0 69 -30.5 93.5t-108.5 24.5h-66v13h570v-13h-70q-81 0 -108 -24.5t-27 -93.5v-1219q0 -46 15 -69.5t65.5 -36.5t150.5 -13zM1085 1382q0 -81 -38.5 -162.5
t-100.5 -150.5l-10 8q40 48 63 102t23 93q0 16 -7.5 29t-14.5 18.5t-29 20t-31 20.5q-43 28 -43 74q0 33 23.5 56t62.5 23q45 0 73.5 -34t28.5 -97z" />
    <glyph glyph-name="lcaron" unicode="&#x13e;" horiz-adv-x="645" 
d="M197 1440q0 35 -9 51t-44.5 25t-110.5 10v12q153 10 293 76v-1505q0 -55 18.5 -76t81.5 -21h63v-12h-456v12h61q56 0 79.5 22.5t23.5 74.5v1331zM500 1075l-11 8q76 125 76 252q0 101 -61 178l8 19h119q14 -55 14 -102q0 -175 -145 -355z" />
    <glyph glyph-name="Ldot" unicode="&#x13f;" horiz-adv-x="1302" 
d="M692 12q198 0 369 41q79 19 125.5 61t73.5 107l30 119h13l-62 -340h-1147v12h68q139 0 139 119v1219q0 69 -30.5 93.5t-108.5 24.5h-66v13h570v-13h-70q-81 0 -108 -24.5t-27 -93.5v-1219q0 -46 15 -69.5t65.5 -36.5t150.5 -13zM1028 762q0 -38 -27.5 -67t-70.5 -29
q-41 0 -68.5 29t-27.5 67q0 40 27 69t69 29q43 0 70.5 -29t27.5 -69z" />
    <glyph glyph-name="ldot" unicode="&#x140;" horiz-adv-x="616" 
d="M197 1440q0 35 -9 51t-44.5 25t-110.5 10v12q153 10 293 76v-1505q0 -55 18.5 -76t81.5 -21h63v-12h-456v12h61q56 0 79.5 22.5t23.5 74.5v1331zM686 793q0 -38 -27.5 -67.5t-70.5 -29.5q-41 0 -68.5 29.5t-27.5 67.5q0 40 27 69t69 29q43 0 70.5 -29t27.5 -69z" />
    <glyph glyph-name="Lslash" unicode="&#x141;" horiz-adv-x="1331" 
d="M711 12q197 0 368 41q79 19 125.5 61t73.5 107l31 119h12l-61 -340h-1147v12h67q139 0 139 119v490l-192 -164l-14 18l206 176v699q0 69 -30.5 93.5t-108.5 24.5h-65v13h569v-13h-70q-81 0 -108 -24.5t-27 -93.5v-562l318 273l14 -19l-332 -284v-627q0 -46 15.5 -69.5
t66 -36.5t150.5 -13z" />
    <glyph glyph-name="lslash" unicode="&#x142;" horiz-adv-x="595" 
d="M563 899l-201 -172v-618q0 -55 19 -76t82 -21h63v-12h-456v12h61q55 0 78.5 22t23.5 75v507l-186 -159l-14 18l200 172v793q0 35 -9 51t-44 25t-110 10v12q151 10 292 76v-856l187 160z" />
    <glyph glyph-name="Nacute" unicode="&#x143;" horiz-adv-x="1599" 
d="M1505 1468h-119q-71 -114 -71 -505v-992h-19l-995 1262v-733q0 -383 72 -488h112v-12h-391v12h119q24 36 39.5 96.5t21.5 146t8 127t3 118.5v753l-176 228h200l989 -1264v807q0 137 -19.5 269t-51.5 175h-119v13h397v-13zM1073 1872q0 -39 -84 -90l-301 -187h-31l261 263
q40 40 61.5 52.5t46.5 12.5q47 0 47 -51z" />
    <glyph glyph-name="nacute" unicode="&#x144;" horiz-adv-x="1148" 
d="M1116 0h-457v12h62q62 0 82 21.5t20 75.5v557q0 61 -8.5 109.5t-21.5 80.5t-33.5 54.5t-39.5 34.5t-46 18.5t-45.5 8t-44.5 1.5q-112 0 -258 -99v-765q0 -59 19 -78t83 -19h61v-12h-456v12h59q62 0 83.5 20t21.5 77v722q0 58 -28 74t-136 17v12q151 9 293 76v-121
q163 121 317 121q61 0 109 -12.5t80 -32.5t55 -51.5t35 -62t19.5 -72t9 -73t1.5 -73.5v-524q0 -54 20.5 -75.5t82.5 -21.5h61v-12zM889 1442q0 -39 -84 -90l-301 -187h-31l260 262q40 40 62 53t47 13q47 0 47 -51z" />
    <glyph glyph-name="Ncommaaccent" unicode="&#x145;" horiz-adv-x="1599" 
d="M1505 1468h-119q-71 -114 -71 -505v-992h-19l-995 1262v-733q0 -383 72 -488h112v-12h-391v12h119q24 36 39.5 96.5t21.5 146t8 127t3 118.5v753l-176 228h200l989 -1264v807q0 137 -19.5 269t-51.5 175h-119v13h397v-13zM862 -338q0 -101 -54 -206t-136 -183l-8 8
q124 130 124 244q0 22 -5 38t-19.5 30t-25.5 21.5t-38 23.5q-24 17 -35.5 35t-11.5 48q0 36 28 61t71 25q47 0 78.5 -37.5t31.5 -107.5z" />
    <glyph glyph-name="ncommaaccent" unicode="&#x146;" horiz-adv-x="1148" 
d="M1116 0h-457v12h62q62 0 82 21.5t20 75.5v557q0 61 -8.5 109.5t-21.5 80.5t-33.5 54.5t-39.5 34.5t-46 18.5t-45.5 8t-44.5 1.5q-112 0 -258 -99v-765q0 -59 19 -78t83 -19h61v-12h-456v12h59q62 0 83.5 20t21.5 77v722q0 58 -28 74t-136 17v12q151 9 293 76v-121
q163 121 317 121q61 0 109 -12.5t80 -32.5t55 -51.5t35 -62t19.5 -72t9 -73t1.5 -73.5v-524q0 -54 20.5 -75.5t82.5 -21.5h61v-12zM653 -324q0 -81 -38.5 -162.5t-100.5 -150.5l-10 8q40 48 63 102t23 93q0 16 -7.5 29t-14.5 18.5t-29 20t-31 20.5q-43 28 -43 74
q0 33 23.5 56t62.5 23q45 0 73.5 -34t28.5 -97z" />
    <glyph glyph-name="Ncaron" unicode="&#x147;" horiz-adv-x="1599" 
d="M1505 1468h-119q-71 -114 -71 -505v-992h-19l-995 1262v-733q0 -383 72 -488h112v-12h-391v12h119q24 36 39.5 96.5t21.5 146t8 127t3 118.5v753l-176 228h200l989 -1264v807q0 137 -19.5 269t-51.5 175h-119v13h397v-13zM782 1679q95 80 146 121l121 92h12
q-38 -38 -113 -127q-26 -31 -60.5 -77t-55.5 -76l-21 -31h-57q-79 114 -138 184q-80 95 -112 127h12q72 -53 121 -92z" />
    <glyph glyph-name="ncaron" unicode="&#x148;" horiz-adv-x="1148" 
d="M1116 0h-457v12h62q62 0 82 21.5t20 75.5v557q0 61 -8.5 109.5t-21.5 80.5t-33.5 54.5t-39.5 34.5t-46 18.5t-45.5 8t-44.5 1.5q-112 0 -258 -99v-765q0 -59 19 -78t83 -19h61v-12h-456v12h59q62 0 83.5 20t21.5 77v722q0 58 -28 74t-136 17v12q151 9 293 76v-121
q163 121 317 121q61 0 109 -12.5t80 -32.5t55 -51.5t35 -62t19.5 -72t9 -73t1.5 -73.5v-524q0 -54 20.5 -75.5t82.5 -21.5h61v-12zM528 1270q95 80 146 121l121 92h12q-38 -38 -113 -127q-26 -31 -60.5 -77.5t-55.5 -76.5l-21 -31h-57q-79 115 -138 185q-80 95 -112 127h12
q72 -53 121 -92z" />
    <glyph glyph-name="Omacron" unicode="&#x14c;" horiz-adv-x="1746" 
d="M1626 743q0 -98 -22 -198t-77.5 -205t-138 -185.5t-216.5 -132t-300 -51.5q-120 0 -223.5 27t-178.5 72.5t-136 108.5t-100 132t-65 145.5t-37 147.5t-11 139q0 72 12.5 145.5t40 149.5t68.5 145t102.5 129.5t136.5 105t175.5 70t215.5 25.5q161 0 292 -47t215.5 -123
t141.5 -178t81 -207t24 -215zM1450 743q0 164 -38 302t-110 239.5t-182 159t-248 57.5q-276 0 -425.5 -203.5t-149.5 -554.5q0 -149 36.5 -283.5t106 -241.5t181.5 -170.5t251 -63.5q141 0 253.5 63.5t182 171t106 241.5t36.5 283zM1161 1624h-579v21h579v-21z" />
    <glyph glyph-name="omacron" unicode="&#x14d;" 
d="M1010 492q0 -229 -136 -372t-344 -143q-209 0 -344 141.5t-135 373.5q0 251 132.5 384.5t346.5 133.5q105 0 191 -31t151.5 -92.5t101.5 -162t36 -232.5zM858 492q0 139 -27.5 241t-75 157.5t-103.5 81t-122 25.5q-53 0 -99 -15t-88.5 -51.5t-73 -93t-48.5 -144.5
t-18 -201q0 -139 27 -240t74.5 -156.5t103 -80.5t122.5 -25q66 0 122 25t103.5 80.5t75 156.5t27.5 240zM821 1192h-579v20h579v-20z" />
    <glyph glyph-name="Ohungarumlaut" unicode="&#x150;" horiz-adv-x="1746" 
d="M1626 743q0 -98 -22 -198t-77.5 -205t-138 -185.5t-216.5 -132t-300 -51.5q-120 0 -223.5 27t-178.5 72.5t-136 108.5t-100 132t-65 145.5t-37 147.5t-11 139q0 72 12.5 145.5t40 149.5t68.5 145t102.5 129.5t136.5 105t175.5 70t215.5 25.5q161 0 292 -47t215.5 -123
t141.5 -178t81 -207t24 -215zM1450 743q0 164 -38 302t-110 239.5t-182 159t-248 57.5q-276 0 -425.5 -203.5t-149.5 -554.5q0 -149 36.5 -283.5t106 -241.5t181.5 -170.5t251 -63.5q141 0 253.5 63.5t182 171t106 241.5t36.5 283zM1008 1876q0 -39 -84 -90l-301 -187h-31
l260 263q40 40 61.5 52.5t47.5 12.5q47 0 47 -51zM1358 1876q0 -39 -84 -90l-301 -187h-31l260 263q40 40 61.5 52.5t47.5 12.5q47 0 47 -51z" />
    <glyph glyph-name="ohungarumlaut" unicode="&#x151;" 
d="M1010 492q0 -229 -136 -372t-344 -143q-209 0 -344 141.5t-135 373.5q0 251 132.5 384.5t346.5 133.5q105 0 191 -31t151.5 -92.5t101.5 -162t36 -232.5zM858 492q0 139 -27.5 241t-75 157.5t-103.5 81t-122 25.5q-53 0 -99 -15t-88.5 -51.5t-73 -93t-48.5 -144.5
t-18 -201q0 -139 27 -240t74.5 -156.5t103 -80.5t122.5 -25q66 0 122 25t103.5 80.5t75 156.5t27.5 240zM684 1473q0 -40 -84 -91l-301 -186h-31l260 262q40 40 62 53t47 13q47 0 47 -51zM1034 1473q0 -40 -84 -91l-301 -186h-31l261 262q41 41 62 53.5t46 12.5q47 0 47 -51
z" />
    <glyph glyph-name="OE" unicode="&#x152;" horiz-adv-x="2330" 
d="M1296 78v1337q-179 86 -407 86q-279 0 -435.5 -204.5t-156.5 -553.5q0 -149 36.5 -283.5t106 -241.5t181.5 -170.5t251 -63.5q304 0 424 94zM2234 0h-870q-52 0 -248.5 -14.5t-243.5 -14.5q-167 0 -300 47.5t-215.5 123.5t-137.5 179.5t-76.5 207t-21.5 214.5
q0 72 11.5 145t37.5 150t65 145t99 129t133.5 105.5t173.5 70t215 25.5q113 0 308 -16t298 -16h742l20 -299h-12l-23 166q-33 59 -175 89.5t-326 30.5q-143 0 -187.5 -22.5t-44.5 -97.5v-566h123q83 0 148.5 5t107 12.5t71 20.5t44 23.5t22.5 27.5t9 26.5t1 26.5v39h13v-373
h-13v45q0 16 -1 25.5t-9 26t-22.5 26t-44 22t-71 19t-107 11.5t-148.5 5h-123v-639q0 -71 35.5 -95t101.5 -24q311 0 467 56q89 37 131 66.5t64 82.5l22 88h13q-55 -298 -56 -305z" />
    <glyph glyph-name="oe" unicode="&#x153;" horiz-adv-x="1736" 
d="M1303 1010q94 0 169 -37t120 -99t68.5 -136t25.5 -154h-678q0 -142 20.5 -248.5t51.5 -166.5t76.5 -96t86.5 -47.5t90 -11.5q204 0 332 203l10 -6q-137 -234 -381 -234q-52 0 -102 12.5t-100 38.5t-93 73.5t-71 111.5q-58 -112 -161 -174t-237 -62q-209 0 -344 141.5
t-135 373.5q0 251 132.5 384.5t346.5 133.5q143 0 247.5 -58.5t158.5 -175.5q53 112 147.5 173t219.5 61zM858 492q0 139 -27.5 241t-75 157.5t-103.5 81t-122 25.5q-53 0 -99 -15t-88.5 -51.5t-73 -93t-48.5 -144.5t-18 -201q0 -139 27 -240t74.5 -156.5t103 -80.5
t122.5 -25q66 0 122 25t103.5 80.5t75 156.5t27.5 240zM1008 596h534q0 111 -26 199t-85.5 145t-144.5 57q-252 0 -278 -401z" />
    <glyph glyph-name="Racute" unicode="&#x154;" horiz-adv-x="1507" 
d="M1403 8q40 0 60 38.5t22 88.5h12q-1 -23 -3.5 -40.5t-12.5 -42.5t-26.5 -41t-48.5 -28t-75 -12q-49 0 -93 22t-76.5 53.5t-68.5 88t-60 103.5t-58 122v-2l-19 43q-61 133 -100 181q-80 100 -174.5 143t-222.5 43v-637q0 -62 32 -90.5t103 -28.5h72v-12h-572v12h66
q74 0 106.5 28.5t32.5 90.5v1219q0 75 -29.5 96.5t-109.5 21.5h-66v13h228q66 0 217 11t219 11q133 0 234 -23t159.5 -58.5t95 -86.5t48.5 -98.5t12 -101.5q0 -122 -74.5 -213.5t-191 -136t-253.5 -44.5l-75 2v-6q86 -22 164 -64.5t134.5 -94.5t97 -102.5t67.5 -100.5
q48 -91 108 -236q12 -27 21.5 -45t25 -40.5t34 -34t38.5 -11.5zM1130 1124q0 180 -105 273.5t-290 93.5q-150 0 -276 -57v-654q18 -2 59 -5.5t55 -4.5q110 -12 166 -12q177 0 284 102t107 264zM1081 1872q0 -39 -84 -90l-301 -187h-30l260 263q40 40 61.5 52.5t46.5 12.5
q47 0 47 -51z" />
    <glyph glyph-name="racute" unicode="&#x155;" horiz-adv-x="778" 
d="M197 831q0 58 -28 74t-136 17v12q152 11 293 76v-240q34 115 103.5 177.5t160.5 62.5q71 0 109 -35.5t38 -83.5q0 -42 -24 -64t-56 -22q-28 0 -47.5 16t-19.5 43q0 7 2 18t2 17q0 38 -18.5 54t-61.5 16q-48 0 -92.5 -48t-70 -116.5t-25.5 -132.5v-563q0 -57 20.5 -77
t83.5 -20h59v-12h-456v12h59q63 0 84 20t21 77v722zM745 1442q0 -39 -83 -90l-302 -187h-30l260 262q41 41 62 53.5t46 12.5q47 0 47 -51z" />
    <glyph glyph-name="Rcommaaccent" unicode="&#x156;" horiz-adv-x="1507" 
d="M1403 8q40 0 60 38.5t22 88.5h12q-1 -23 -3.5 -40.5t-12.5 -42.5t-26.5 -41t-48.5 -28t-75 -12q-49 0 -93 22t-76.5 53.5t-68.5 88t-60 103.5t-58 122v-2l-19 43q-61 133 -100 181q-80 100 -174.5 143t-222.5 43v-637q0 -62 32 -90.5t103 -28.5h72v-12h-572v12h66
q74 0 106.5 28.5t32.5 90.5v1219q0 75 -29.5 96.5t-109.5 21.5h-66v13h228q66 0 217 11t219 11q133 0 234 -23t159.5 -58.5t95 -86.5t48.5 -98.5t12 -101.5q0 -122 -74.5 -213.5t-191 -136t-253.5 -44.5l-75 2v-6q86 -22 164 -64.5t134.5 -94.5t97 -102.5t67.5 -100.5
q48 -91 108 -236q12 -27 21.5 -45t25 -40.5t34 -34t38.5 -11.5zM1130 1124q0 180 -105 273.5t-290 93.5q-150 0 -276 -57v-654q18 -2 59 -5.5t55 -4.5q110 -12 166 -12q177 0 284 102t107 264zM928 -338q0 -101 -54 -206t-137 -183l-8 8q125 131 125 244q0 22 -5 38
t-19.5 30t-25.5 21.5t-38 23.5q-24 17 -35.5 35t-11.5 48q0 36 27.5 61t70.5 25q47 0 79 -37.5t32 -107.5z" />
    <glyph glyph-name="rcommaaccent" unicode="&#x157;" horiz-adv-x="778" 
d="M197 831q0 58 -28 74t-136 17v12q152 11 293 76v-240q34 115 103.5 177.5t160.5 62.5q71 0 109 -35.5t38 -83.5q0 -42 -24 -64t-56 -22q-28 0 -47.5 16t-19.5 43q0 7 2 18t2 17q0 38 -18.5 54t-61.5 16q-48 0 -92.5 -48t-70 -116.5t-25.5 -132.5v-563q0 -57 20.5 -77
t83.5 -20h59v-12h-456v12h59q63 0 84 20t21 77v722zM356 -324q0 -81 -38.5 -162.5t-100.5 -150.5l-10 8q40 48 63 102t23 93q0 16 -7.5 29t-14.5 18.5t-29 20t-31 20.5q-43 28 -43 74q0 33 23.5 56t62.5 23q45 0 73.5 -34t28.5 -97z" />
    <glyph glyph-name="Rcaron" unicode="&#x158;" horiz-adv-x="1507" 
d="M1403 8q40 0 60 38.5t22 88.5h12q-1 -23 -3.5 -40.5t-12.5 -42.5t-26.5 -41t-48.5 -28t-75 -12q-49 0 -93 22t-76.5 53.5t-68.5 88t-60 103.5t-58 122v-2l-19 43q-61 133 -100 181q-80 100 -174.5 143t-222.5 43v-637q0 -62 32 -90.5t103 -28.5h72v-12h-572v12h66
q74 0 106.5 28.5t32.5 90.5v1219q0 75 -29.5 96.5t-109.5 21.5h-66v13h228q66 0 217 11t219 11q133 0 234 -23t159.5 -58.5t95 -86.5t48.5 -98.5t12 -101.5q0 -122 -74.5 -213.5t-191 -136t-253.5 -44.5l-75 2v-6q86 -22 164 -64.5t134.5 -94.5t97 -102.5t67.5 -100.5
q48 -91 108 -236q12 -27 21.5 -45t25 -40.5t34 -34t38.5 -11.5zM1130 1124q0 180 -105 273.5t-290 93.5q-150 0 -276 -57v-654q18 -2 59 -5.5t55 -4.5q110 -12 166 -12q177 0 284 102t107 264zM692 1679q95 80 146 121l120 92h13q-38 -38 -113 -127q-26 -31 -60.5 -77
t-55.5 -76l-21 -31h-57q-79 114 -138 184q-80 95 -112 127h12q72 -53 121 -92z" />
    <glyph glyph-name="rcaron" unicode="&#x159;" horiz-adv-x="778" 
d="M197 831q0 58 -28 74t-136 17v12q152 11 293 76v-240q34 115 103.5 177.5t160.5 62.5q71 0 109 -35.5t38 -83.5q0 -42 -24 -64t-56 -22q-28 0 -47.5 16t-19.5 43q0 7 2 18t2 17q0 38 -18.5 54t-61.5 16q-48 0 -92.5 -48t-70 -116.5t-25.5 -132.5v-563q0 -57 20.5 -77
t83.5 -20h59v-12h-456v12h59q63 0 84 20t21 77v722zM360 1270q95 80 146 121l121 92h12q-38 -38 -113 -127q-26 -31 -60.5 -77.5t-55.5 -76.5l-21 -31h-57q-78 115 -137 185q-75 89 -113 127h12q72 -53 121 -92z" />
    <glyph glyph-name="Sacute" unicode="&#x15a;" horiz-adv-x="1183" 
d="M1077 367q0 -164 -127.5 -280t-347.5 -116q-244 0 -471 117l2 -88h-12l-31 389h12l11 -86q58 -132 190 -225.5t297 -93.5q90 0 158.5 24t108 66t58.5 92.5t19 109.5q0 68 -30.5 130.5t-87.5 116.5t-121 97.5t-148 88.5q-54 29 -92 51t-84.5 52.5t-78 57t-64 61t-52 69.5
t-31.5 78t-12 89q0 71 22.5 130t71 109t136 78.5t207.5 28.5q210 0 403 -108v76h12l19 -348h-13l-6 71q-11 42 -29.5 81.5t-52 79.5t-77 69.5t-108.5 48t-142 18.5q-92 0 -155.5 -19t-96 -54t-45.5 -73.5t-13 -88.5q0 -44 11 -83.5t27 -70.5t47 -63t56.5 -54t72 -51
t77 -46.5t86.5 -47.5q54 -29 90 -49.5t85 -52.5t80.5 -59t66.5 -64.5t55 -75t33.5 -84.5t13.5 -98zM907 1872q0 -39 -84 -90l-301 -187h-30l260 263q40 40 61.5 52.5t46.5 12.5q47 0 47 -51z" />
    <glyph glyph-name="sacute" unicode="&#x15b;" horiz-adv-x="833" 
d="M752 258q0 -124 -84 -202.5t-246 -78.5q-145 0 -318 84v-61h-12q-1 47 -5 131t-5 127h12q31 -114 131.5 -191t206.5 -77q94 0 151.5 62t57.5 145q0 32 -11.5 62t-27.5 51t-42.5 42.5t-46.5 34t-50 29.5l-144 80q-110 61 -157 120t-47 142q0 67 26.5 118t69.5 79
t90.5 41.5t97.5 13.5q131 0 283 -82l-2 55h12q1 -47 5 -131t5 -127h-10l-4 43q-13 36 -33.5 70.5t-54 73t-85 62t-112.5 23.5q-82 0 -126 -49t-44 -117q0 -62 25.5 -99t69.5 -66q38 -26 145 -78q137 -68 208 -143t71 -187zM743 1442q0 -39 -84 -90l-301 -187h-30l260 262
q41 41 62 53.5t46 12.5q47 0 47 -51z" />
    <glyph glyph-name="Scedilla" unicode="&#x15e;" horiz-adv-x="1183" 
d="M571 -477q-94 0 -178 43l4 10q77 -41 160 -41q79 0 123.5 51t44.5 111q0 61 -34 94t-93 33q-33 0 -68 -12l-12 8l60 151q-230 6 -447 117l2 -88h-12l-31 389h12l11 -86q58 -132 190 -225.5t297 -93.5q90 0 158.5 26t107.5 69.5t58.5 93.5t19.5 103q0 68 -30.5 130.5
t-87.5 116.5t-121 97.5t-148 88.5q-54 29 -92 51t-84.5 52.5t-78 57t-64 61t-52 69.5t-31.5 78t-12 89q0 71 22.5 130t71 109t136 78.5t207.5 28.5q210 0 403 -108v76h12l19 -348h-13l-6 71q-11 42 -29.5 81.5t-52 79.5t-77 69.5t-108.5 48t-142 18.5q-91 0 -155.5 -21
t-96.5 -57.5t-45 -74.5t-13 -82t11 -83.5t27 -70.5t47 -63t56.5 -54t72 -51t77 -46.5t86.5 -47.5q57 -31 90 -49.5t84.5 -51.5t81.5 -58.5t66 -63.5t55.5 -75t33 -85t13.5 -100q0 -164 -127.5 -280t-347.5 -116h-6l-57 -139q69 27 123 27q72 0 127 -37t55 -107
q0 -86 -77.5 -139t-195.5 -53z" />
    <glyph glyph-name="scedilla" unicode="&#x15f;" horiz-adv-x="833" 
d="M406 -418q-90 0 -170 39l4 10q76 -37 153 -37q79 0 117.5 41.5t38.5 98.5q0 58 -29 84t-88 26q-24 0 -65 -12l-13 6l58 139q-142 3 -308 84v-61h-12q-1 47 -5 131t-5 127h12q31 -114 131.5 -191t206.5 -77q94 0 151.5 62t57.5 145q0 32 -11.5 62t-27.5 51t-42.5 42.5
t-46.5 34t-50 29.5l-144 80q-110 61 -157 120t-47 142q0 67 26.5 118t69.5 79t90.5 41.5t97.5 13.5q131 0 283 -82l-2 55h12q1 -47 5 -131t5 -127h-10l-4 43q-13 36 -33.5 70.5t-54 73t-85 62t-112.5 23.5q-82 0 -126 -49t-44 -117q0 -62 25 -96.5t70 -64.5q60 -40 145 -82
q137 -68 208 -143t71 -187q0 -122 -82.5 -200t-241.5 -81l-51 -127q55 21 117 21q66 0 111.5 -30t45.5 -91q0 -76 -71.5 -122t-173.5 -46z" />
    <glyph glyph-name="Scaron" unicode="&#x160;" horiz-adv-x="1183" 
d="M1077 367q0 -164 -127.5 -280t-347.5 -116q-244 0 -471 117l2 -88h-12l-31 389h12l11 -86q58 -132 190 -225.5t297 -93.5q90 0 158.5 24t108 66t58.5 92.5t19 109.5q0 68 -30.5 130.5t-87.5 116.5t-121 97.5t-148 88.5q-54 29 -92 51t-84.5 52.5t-78 57t-64 61t-52 69.5
t-31.5 78t-12 89q0 71 22.5 130t71 109t136 78.5t207.5 28.5q210 0 403 -108v76h12l19 -348h-13l-6 71q-11 42 -29.5 81.5t-52 79.5t-77 69.5t-108.5 48t-142 18.5q-92 0 -155.5 -19t-96 -54t-45.5 -73.5t-13 -88.5q0 -44 11 -83.5t27 -70.5t47 -63t56.5 -54t72 -51
t77 -46.5t86.5 -47.5q54 -29 90 -49.5t85 -52.5t80.5 -59t66.5 -64.5t55 -75t33.5 -84.5t13.5 -98zM565 1679q95 80 146 121l120 92h13q-38 -38 -113 -127q-26 -31 -60.5 -77t-55.5 -76l-21 -31h-57q-79 114 -138 184q-80 95 -112 127h12q72 -53 121 -92z" />
    <glyph glyph-name="scaron" unicode="&#x161;" horiz-adv-x="833" 
d="M752 258q0 -124 -84 -202.5t-246 -78.5q-145 0 -318 84v-61h-12q-1 47 -5 131t-5 127h12q31 -114 131.5 -191t206.5 -77q94 0 151.5 62t57.5 145q0 32 -11.5 62t-27.5 51t-42.5 42.5t-46.5 34t-50 29.5l-144 80q-110 61 -157 120t-47 142q0 67 26.5 118t69.5 79
t90.5 41.5t97.5 13.5q131 0 283 -82l-2 55h12q1 -47 5 -131t5 -127h-10l-4 43q-13 36 -33.5 70.5t-54 73t-85 62t-112.5 23.5q-82 0 -126 -49t-44 -117q0 -62 25.5 -99t69.5 -66q38 -26 145 -78q137 -68 208 -143t71 -187zM422 1270q94 80 145 121l121 92h12
q-32 -32 -112 -127q-26 -31 -60.5 -77.5t-55.5 -76.5l-21 -31h-58q-78 115 -137 185q-75 89 -113 127h13q71 -53 120 -92z" />
    <glyph glyph-name="Tcedilla" unicode="&#x162;" horiz-adv-x="1335" 
d="M639 -477q-94 0 -178 43l4 10q77 -41 160 -41q79 0 123.5 51t44.5 111q0 61 -34 94t-93 33q-33 0 -68 -12l-12 8l71 180h-274v12h68q83 0 110 25t27 94v1262q0 35 -24.5 55t-98.5 20q-169 0 -267 -31t-147 -122l-18 -154h-13l19 320h1253l23 -320h-12l-17 154
q-49 91 -148.5 122t-269.5 31q-72 0 -96 -19t-24 -54v-1264q0 -68 26 -93.5t113 -25.5h65v-12h-278l-68 -168q69 27 123 27q72 0 127 -37t55 -107q0 -86 -77 -139t-195 -53z" />
    <glyph glyph-name="tcedilla" unicode="&#x163;" horiz-adv-x="765" 
d="M467 -418q-90 0 -170 39l4 10q76 -37 154 -37q79 0 117 41.5t38 98.5q0 58 -28.5 84t-87.5 26q-26 0 -66 -12l-12 6l57 139q-127 6 -192.5 82.5t-65.5 214.5v699h-205v12h56q72 10 125.5 55.5t82 113.5t42 138.5t14.5 147.5h14v-455h59q188 0 277 19l6 -31h-342v-729
q0 -203 145 -228l3 4h16l-2 -6h24q63 0 130.5 45.5t113.5 155.5l12 -4q-35 -95 -109 -164.5t-183 -69.5h-5l-51 -127q56 21 117 21q66 0 112 -30t46 -91q0 -76 -72 -122t-174 -46z" />
    <glyph glyph-name="Tcaron" unicode="&#x164;" horiz-adv-x="1335" 
d="M39 1481h1253l23 -320h-12l-17 154q-49 91 -148.5 122t-269.5 31q-72 0 -96 -19t-24 -54v-1264q0 -68 26 -93.5t113 -25.5h65v-12h-569v12h68q83 0 110 25t27 94v1262q0 35 -24.5 55t-98.5 20q-169 0 -267 -31t-147 -122l-18 -154h-13zM668 1679q94 80 145 121l121 92h12
q-32 -32 -112 -127q-26 -31 -60.5 -77t-55.5 -76l-22 -31h-57q-78 114 -137 184q-75 89 -113 127h12q72 -53 121 -92z" />
    <glyph glyph-name="tcaron" unicode="&#x165;" horiz-adv-x="765" 
d="M530 14q63 0 130.5 45.5t113.5 155.5l12 -4q-35 -95 -109 -164.5t-183 -69.5q-136 0 -207.5 77.5t-71.5 219.5v699h-205v12h56q72 10 125.5 55.5t82 113.5t42 138.5t14.5 147.5h14v-455h59q188 0 277 19l6 -31h-342v-729q0 -124 52 -177t134 -53zM514 1075l-10 8
q76 125 76 252q0 100 -62 178l8 19h119q14 -55 14 -102q0 -175 -145 -355z" />
    <glyph glyph-name="Umacron" unicode="&#x16a;" horiz-adv-x="1638" 
d="M1577 1468h-119q-37 -61 -51.5 -158.5t-20.5 -305.5v-355q0 -119 -15.5 -216t-53 -183.5t-97 -144.5t-151.5 -91.5t-213 -33.5t-217 23.5t-156 57t-103.5 87.5t-64 97t-31.5 104t-12.5 90t-1.5 72v1.5v1.5v836q0 63 -33 90.5t-106 27.5h-70v13h578v-13h-74
q-135 0 -135 -118v-871q0 -114 31.5 -203t78.5 -139.5t108 -83t111.5 -43t98.5 -10.5q120 0 211 34t147.5 91t91.5 142.5t48.5 177t13.5 204.5v373q0 177 -24 298.5t-48 147.5h-118v13h397v-13zM1186 1624h-580v21h580v-21z" />
    <glyph glyph-name="umacron" unicode="&#x16b;" horiz-adv-x="1142" 
d="M1110 0h-293v119q-168 -142 -338 -142q-81 0 -139 27.5t-87.5 74t-42.5 96t-13 106.5v550q0 40 -9.5 56.5t-43.5 25t-111 9.5v12q158 10 293 76v-734q0 -70 16 -121t38.5 -77.5t57 -41.5t60 -18.5t59.5 -3.5q59 0 130.5 35t129.5 84v698q0 40 -9.5 56.5t-43.5 25
t-111 9.5v12q153 12 293 76v-901q0 -51 21.5 -74t83.5 -23h59v-12zM848 1192h-580v20h580v-20z" />
    <glyph glyph-name="Uring" unicode="&#x16e;" horiz-adv-x="1638" 
d="M1577 1468h-119q-37 -61 -51.5 -158.5t-20.5 -305.5v-355q0 -119 -15.5 -216t-53 -183.5t-97 -144.5t-151.5 -91.5t-213 -33.5t-217 23.5t-156 57t-103.5 87.5t-64 97t-31.5 104t-12.5 90t-1.5 72v1.5v1.5v836q0 63 -33 90.5t-106 27.5h-70v13h578v-13h-74
q-135 0 -135 -118v-871q0 -114 31.5 -203t78.5 -139.5t108 -83t111.5 -43t98.5 -10.5q120 0 211 34t147.5 91t91.5 142.5t48.5 177t13.5 204.5v373q0 177 -24 298.5t-48 147.5h-118v13h397v-13zM723 1716q0 71 50 121.5t120 50.5q71 0 121.5 -51t50.5 -121t-50.5 -120
t-121.5 -50t-120.5 50t-49.5 120zM743 1716q0 -63 43.5 -106t106.5 -43t107 43t44 106t-44 107.5t-107 44.5t-106.5 -44.5t-43.5 -107.5z" />
    <glyph glyph-name="uring" unicode="&#x16f;" horiz-adv-x="1142" 
d="M1110 0h-293v119q-168 -142 -338 -142q-81 0 -139 27.5t-87.5 74t-42.5 96t-13 106.5v550q0 40 -9.5 56.5t-43.5 25t-111 9.5v12q158 10 293 76v-734q0 -70 16 -121t38.5 -77.5t57 -41.5t60 -18.5t59.5 -3.5q59 0 130.5 35t129.5 84v698q0 40 -9.5 56.5t-43.5 25
t-111 9.5v12q153 12 293 76v-901q0 -51 21.5 -74t83.5 -23h59v-12zM389 1300q0 71 50 122t120 51t121 -51t51 -122q0 -70 -50.5 -120t-121.5 -50t-120.5 50t-49.5 120zM410 1300q0 -63 43 -106t106 -43t107.5 43t44.5 106t-44.5 107.5t-107.5 44.5t-106 -44.5t-43 -107.5z
" />
    <glyph glyph-name="Uhungarumlaut" unicode="&#x170;" horiz-adv-x="1638" 
d="M1577 1468h-119q-37 -61 -51.5 -158.5t-20.5 -305.5v-355q0 -119 -15.5 -216t-53 -183.5t-97 -144.5t-151.5 -91.5t-213 -33.5t-217 23.5t-156 57t-103.5 87.5t-64 97t-31.5 104t-12.5 90t-1.5 72v1.5v1.5v836q0 63 -33 90.5t-106 27.5h-70v13h578v-13h-74
q-135 0 -135 -118v-871q0 -114 31.5 -203t78.5 -139.5t108 -83t111.5 -43t98.5 -10.5q120 0 211 34t147.5 91t91.5 142.5t48.5 177t13.5 204.5v373q0 177 -24 298.5t-48 147.5h-118v13h397v-13zM1032 1876q0 -39 -84 -90l-301 -187h-31l261 263q40 40 61.5 52.5t46.5 12.5
q47 0 47 -51zM1382 1876q0 -39 -84 -90l-301 -187h-30l260 263q40 40 61.5 52.5t46.5 12.5q47 0 47 -51z" />
    <glyph glyph-name="uhungarumlaut" unicode="&#x171;" horiz-adv-x="1142" 
d="M1110 0h-293v119q-168 -142 -338 -142q-81 0 -139 27.5t-87.5 74t-42.5 96t-13 106.5v550q0 40 -9.5 56.5t-43.5 25t-111 9.5v12q158 10 293 76v-734q0 -70 16 -121t38.5 -77.5t57 -41.5t60 -18.5t59.5 -3.5q59 0 130.5 35t129.5 84v698q0 40 -9.5 56.5t-43.5 25
t-111 9.5v12q153 12 293 76v-901q0 -51 21.5 -74t83.5 -23h59v-12zM688 1473q0 -40 -84 -91l-301 -186h-31l260 262q40 40 62 53t47 13q47 0 47 -51zM1038 1473q0 -40 -84 -91l-301 -186h-30l260 262q41 41 62 53.5t46 12.5q47 0 47 -51z" />
    <glyph glyph-name="Uogonek" unicode="&#x172;" horiz-adv-x="1638" 
d="M958 -317q43 0 90.5 23t84.5 58l8 -10q-119 -119 -248 -119q-67 0 -105 37.5t-38 96.5q0 107 104 211q-94 0 -173.5 14t-136 35.5t-101.5 55.5t-73 65.5t-48.5 75.5t-30 75t-15 74.5t-6 64.5t-0.5 53v3v854q0 63 -33 90.5t-106 27.5h-70v13h578v-13h-74q-135 0 -135 -118
v-889q0 -114 32 -201t78 -135t108 -77.5t111.5 -38.5t98.5 -9q120 0 211 35.5t147.5 94.5t91.5 146t48.5 179.5t13.5 206.5v360q0 177 -24 298.5t-48 147.5h-118v13h397v-13h-119q-37 -61 -51.5 -158.5t-20.5 -305.5v-342q0 -117 -14.5 -213.5t-50 -183t-91.5 -146.5
t-143.5 -96.5t-201.5 -40.5q-51 -84 -51 -175q0 -57 32.5 -90.5t91.5 -33.5z" />
    <glyph glyph-name="uogonek" unicode="&#x173;" horiz-adv-x="1220" 
d="M1028 -268q77 0 150 69l8 -8q-102 -102 -207 -102q-58 0 -90.5 31.5t-32.5 82.5q0 47 26.5 99.5t71.5 95.5h-137v119q-168 -142 -338 -142q-81 0 -139 27.5t-87.5 74t-42.5 96t-13 106.5v550q0 40 -9.5 56.5t-43.5 25t-111 9.5v12q158 10 293 76v-734q0 -70 16 -121
t38.5 -77.5t57 -41.5t60 -18.5t59.5 -3.5q59 0 130.5 35t129.5 84v698q0 40 -9.5 56.5t-43.5 25t-111 9.5v12q153 12 293 76v-901q0 -51 21.5 -74t83.5 -23h59v-12h-137q-51 -77 -51 -164q0 -48 27.5 -76t78.5 -28z" />
    <glyph glyph-name="Ydieresis" unicode="&#x178;" horiz-adv-x="1456" 
d="M1456 1468h-59q-47 -22 -88 -64t-92 -130l-193 -328l-197 -332v-483q0 -62 33 -90.5t107 -28.5h65v-12h-569v12h67q74 0 106 29.5t32 89.5v467l-432 725q-15 26 -23 38t-29.5 35.5t-43 35t-58.5 23t-82 13.5v13h549v-13h-78q-34 0 -59 -17t-25 -46q0 -22 23 -62l411 -710
l187 317q79 134 135 244q71 142 71 203q0 71 -100 71h-51v13h393v-13zM1081 1677q0 -40 -27.5 -68t-68.5 -28t-68.5 28t-27.5 68q0 42 28.5 69.5t67.5 27.5t67.5 -27.5t28.5 -69.5zM688 1677q0 -40 -27.5 -68t-68.5 -28t-68.5 28t-27.5 68q0 42 28.5 69.5t67.5 27.5
t67.5 -27.5t28.5 -69.5z" />
    <glyph glyph-name="Zacute" unicode="&#x179;" horiz-adv-x="1316" 
d="M274 12h144h50h56.5t55 0.5t61.5 1t58 2t62 4t57 5.5t59 7.5t51.5 10t50.5 12.5q85 18 128.5 59.5t72.5 104.5l30 121h13q-13 -62 -36.5 -189.5t-27.5 -150.5h-1065v20l895 1448h-254q-146 0 -233.5 -6.5t-148 -25.5t-92.5 -45.5t-64 -75.5l-19 -154h-12l18 320h987v-27z
M1026 1872q0 -39 -84 -90l-301 -187h-31l260 263q40 40 61.5 52.5t47.5 12.5q47 0 47 -51z" />
    <glyph glyph-name="zacute" unicode="&#x17a;" horiz-adv-x="813" 
d="M774 231l-18 -231h-756v20l631 953q-98 0 -160.5 -1.5t-136 -9t-119 -20.5t-83.5 -37t-56 -59l-10 -94h-13l15 233h704v-16l-625 -957h142q80 0 150 6.5t141.5 22t117.5 47.5t56 78l8 65h12zM721 1442q0 -39 -84 -90l-301 -187h-31l260 262q40 40 62 53t47 13
q47 0 47 -51z" />
    <glyph glyph-name="Zdotaccent" unicode="&#x17b;" horiz-adv-x="1316" 
d="M274 12h144h50h56.5t55 0.5t61.5 1t58 2t62 4t57 5.5t59 7.5t51.5 10t50.5 12.5q85 18 128.5 59.5t72.5 104.5l30 121h13q-13 -62 -36.5 -189.5t-27.5 -150.5h-1065v20l895 1448h-254q-146 0 -233.5 -6.5t-148 -25.5t-92.5 -45.5t-64 -75.5l-19 -154h-12l18 320h987v-27z
M768 1718q0 -38 -27.5 -67t-70.5 -29q-41 0 -69 29t-28 67q0 40 27.5 69.5t69.5 29.5q43 0 70.5 -29.5t27.5 -69.5z" />
    <glyph glyph-name="zdotaccent" unicode="&#x17c;" horiz-adv-x="813" 
d="M774 231l-18 -231h-756v20l631 953q-98 0 -160.5 -1.5t-136 -9t-119 -20.5t-83.5 -37t-56 -59l-10 -94h-13l15 233h704v-16l-625 -957h142q80 0 150 6.5t141.5 22t117.5 47.5t56 78l8 65h12zM500 1315q0 -38 -28 -67t-71 -29q-41 0 -68.5 29t-27.5 67q0 40 27 69t69 29
q43 0 71 -29t28 -69z" />
    <glyph glyph-name="Zcaron" unicode="&#x17d;" horiz-adv-x="1316" 
d="M274 12h144h50h56.5t55 0.5t61.5 1t58 2t62 4t57 5.5t59 7.5t51.5 10t50.5 12.5q85 18 128.5 59.5t72.5 104.5l30 121h13q-13 -62 -36.5 -189.5t-27.5 -150.5h-1065v20l895 1448h-254q-146 0 -233.5 -6.5t-148 -25.5t-92.5 -45.5t-64 -75.5l-19 -154h-12l18 320h987v-27z
M668 1679q94 80 145 121l121 92h12q-32 -32 -112 -127q-26 -31 -60.5 -77t-55.5 -76l-22 -31h-57q-78 114 -137 184q-75 89 -113 127h12q72 -53 121 -92z" />
    <glyph glyph-name="zcaron" unicode="&#x17e;" horiz-adv-x="813" 
d="M774 231l-18 -231h-756v20l631 953q-98 0 -160.5 -1.5t-136 -9t-119 -20.5t-83.5 -37t-56 -59l-10 -94h-13l15 233h704v-16l-625 -957h142q80 0 150 6.5t141.5 22t117.5 47.5t56 78l8 65h12zM399 1270q95 80 146 121l121 92h12q-38 -38 -113 -127q-26 -31 -60.5 -77.5
t-55.5 -76.5l-21 -31h-57q-79 115 -138 185q-80 95 -112 127h12q72 -53 121 -92z" />
    <glyph glyph-name="uni018F" unicode="&#x18f;" horiz-adv-x="1615" 
d="M121 727v33h1198q0 160 -35 294t-102.5 234.5t-174 156.5t-243.5 56q-169 0 -305.5 -74.5t-212.5 -218.5l-13 -92h-12l27 365h12l-2 -80q74 40 154.5 65t161.5 34t124 11t107 2q156 0 278.5 -44.5t198.5 -116t125.5 -169.5t68.5 -197t19 -208q0 -79 -8.5 -153.5
t-30.5 -156.5t-56 -152.5t-89.5 -135t-127 -110t-172 -72.5t-220.5 -27q-117 0 -214 26t-165 70t-120.5 106t-84 128t-51.5 143t-27.5 144.5t-7.5 138.5zM793 -16q110 0 199.5 42t149.5 114t100.5 170.5t58.5 207.5t18 230h-1022q0 -123 15 -230t51 -207t91.5 -171
t142 -113.5t196.5 -42.5z" />
    <glyph glyph-name="florin" unicode="&#x192;" 
d="M1030 1528q0 -35 -22.5 -58.5t-53.5 -23.5q-39 0 -59.5 20.5t-22.5 53.5q0 10 2.5 23t2.5 18t-3 16q-9 18 -40 18q-151 0 -234 -321l-68 -270h216l-5 -13h-213l-397 -1452h-108l397 1452h-209l4 13h207q53 180 111.5 305.5t120.5 194t122.5 97.5t128.5 29q57 0 90 -29
t33 -73z" />
    <glyph glyph-name="uni01DD" unicode="&#x1dd;" horiz-adv-x="933" 
d="M434 1010q65 0 125.5 -14t120.5 -50.5t104 -92t71.5 -145.5t27.5 -204q0 -240 -120.5 -383.5t-326.5 -143.5q-193 0 -289 135t-96 367h680q0 103 -12 185.5t-30 136t-45.5 92t-52 58t-57.5 31t-54 13.5t-48 2q-123 0 -216.5 -73.5t-113.5 -167.5v-8h-12q1 45 5 118t5 117
h13v-59q142 86 321 86zM195 467v-27q0 -204 64 -327t192 -123q122 0 201 137t79 340h-536z" />
    <glyph glyph-name="Scommaaccent" unicode="&#x218;" horiz-adv-x="1183" 
d="M1077 367q0 -164 -127.5 -280t-347.5 -116q-244 0 -471 117l2 -88h-12l-31 389h12l11 -86q58 -132 190 -225.5t297 -93.5q90 0 158.5 24t108 66t58.5 92.5t19 109.5q0 68 -30.5 130.5t-87.5 116.5t-121 97.5t-148 88.5q-54 29 -92 51t-84.5 52.5t-78 57t-64 61t-52 69.5
t-31.5 78t-12 89q0 71 22.5 130t71 109t136 78.5t207.5 28.5q210 0 403 -108v76h12l19 -348h-13l-6 71q-11 42 -29.5 81.5t-52 79.5t-77 69.5t-108.5 48t-142 18.5q-92 0 -155.5 -19t-96 -54t-45.5 -73.5t-13 -88.5q0 -44 11 -83.5t27 -70.5t47 -63t56.5 -54t72 -51
t77 -46.5t86.5 -47.5q54 -29 90 -49.5t85 -52.5t80.5 -59t66.5 -64.5t55 -75t33.5 -84.5t13.5 -98zM711 -338q0 -101 -54 -206t-137 -183l-8 8q125 131 125 244q0 22 -5 38t-19.5 30t-25.5 21.5t-38 23.5q-24 17 -35.5 35t-11.5 48q0 36 27.5 61t70.5 25q47 0 79 -37.5
t32 -107.5z" />
    <glyph glyph-name="scommaaccent" unicode="&#x219;" horiz-adv-x="833" 
d="M752 258q0 -124 -84 -202.5t-246 -78.5q-145 0 -318 84v-61h-12q-1 47 -5 131t-5 127h12q31 -114 131.5 -191t206.5 -77q94 0 151.5 62t57.5 145q0 32 -11.5 62t-27.5 51t-42.5 42.5t-46.5 34t-50 29.5l-144 80q-110 61 -157 120t-47 142q0 67 26.5 118t69.5 79
t90.5 41.5t97.5 13.5q131 0 283 -82l-2 55h12q1 -47 5 -131t5 -127h-10l-4 43q-13 36 -33.5 70.5t-54 73t-85 62t-112.5 23.5q-82 0 -126 -49t-44 -117q0 -62 25.5 -99t69.5 -66q38 -26 145 -78q137 -68 208 -143t71 -187zM494 -324q0 -80 -38.5 -162t-101.5 -151l-10 8
q40 48 63 102t23 93q0 16 -7.5 29t-14.5 18.5t-29 20t-31 20.5q-43 28 -43 74q0 33 23.5 56t62.5 23q45 0 74 -34t29 -97z" />
    <glyph glyph-name="Tcommaaccent" unicode="&#x21a;" horiz-adv-x="1335" 
d="M39 1481h1253l23 -320h-12l-17 154q-49 91 -148.5 122t-269.5 31q-72 0 -96 -19t-24 -54v-1264q0 -68 26 -93.5t113 -25.5h65v-12h-569v12h68q83 0 110 25t27 94v1262q0 35 -24.5 55t-98.5 20q-169 0 -267 -31t-147 -122l-18 -154h-13zM733 -338q0 -101 -54 -206
t-136 -183l-8 8q124 130 124 244q0 22 -5 38t-19.5 30t-25.5 21.5t-38 23.5q-24 17 -35.5 35t-11.5 48q0 36 28 61t71 25q47 0 78.5 -37.5t31.5 -107.5z" />
    <glyph glyph-name="tcommaaccent" unicode="&#x21b;" horiz-adv-x="765" 
d="M530 14q63 0 130.5 45.5t113.5 155.5l12 -4q-35 -95 -109 -164.5t-183 -69.5q-136 0 -207.5 77.5t-71.5 219.5v699h-205v12h56q72 10 125.5 55.5t82 113.5t42 138.5t14.5 147.5h14v-455h59q188 0 277 19l6 -31h-342v-729q0 -124 52 -177t134 -53zM539 -324
q0 -80 -38.5 -162t-101.5 -151l-10 8q40 48 63 102t23 93q0 16 -7.5 29t-14.5 18.5t-29 20t-31 20.5q-43 28 -43 74q0 33 23.5 56t62.5 23q45 0 74 -34t29 -97z" />
    <glyph glyph-name="uni0259" unicode="&#x259;" horiz-adv-x="933" 
d="M434 1010q65 0 125.5 -14t120.5 -50.5t104 -92t71.5 -145.5t27.5 -204q0 -240 -120.5 -383.5t-326.5 -143.5q-193 0 -289 135t-96 367h680q0 103 -12 185.5t-30 136t-45.5 92t-52 58t-57.5 31t-54 13.5t-48 2q-123 0 -216.5 -73.5t-113.5 -167.5v-8h-12q1 45 5 118t5 117
h13v-59q142 86 321 86zM195 467v-27q0 -204 64 -327t192 -123q122 0 201 137t79 340h-536z" />
    <glyph glyph-name="afii57929" unicode="&#x2bc;" horiz-adv-x="450" 
d="M158 1075l-11 8q76 125 76 252q0 101 -61 178l8 19h119q14 -55 14 -102q0 -175 -145 -355z" />
    <glyph glyph-name="circumflex" unicode="&#x2c6;" horiz-adv-x="847" 
d="M424 1364q-94 -80 -145 -121l-121 -92h-13q38 38 113 127q26 31 60.5 77t55.5 77l21 30h58q78 -114 137 -184q80 -95 112 -127h-12q-72 53 -121 92z" />
    <glyph glyph-name="caron" unicode="&#x2c7;" horiz-adv-x="847" 
d="M424 1270q94 80 145 121l121 92h12q-32 -32 -112 -127q-26 -31 -60.5 -77.5t-55.5 -76.5l-21 -31h-58q-78 115 -137 185q-75 89 -113 127h13q72 -53 121 -92z" />
    <glyph glyph-name="breve" unicode="&#x2d8;" horiz-adv-x="839" 
d="M420 1151q-129 0 -212.5 85.5t-94.5 209.5h16q26 -94 104 -153.5t187 -59.5t187 59.5t104 153.5h16q-11 -124 -94.5 -209.5t-212.5 -85.5z" />
    <glyph glyph-name="dotaccent" unicode="&#x2d9;" horiz-adv-x="391" 
d="M293 1315q0 -38 -27.5 -67t-70.5 -29q-41 0 -69 29t-28 67q0 39 27.5 68.5t69.5 29.5q43 0 70.5 -29t27.5 -69z" />
    <glyph glyph-name="ring" unicode="&#x2da;" horiz-adv-x="620" 
d="M139 1300q0 71 50 122t120 51t121 -51t51 -122q0 -70 -50.5 -120t-121.5 -50t-120.5 50t-49.5 120zM160 1300q0 -63 43 -106t106 -43t107.5 43t44.5 106t-44.5 107.5t-107.5 44.5t-106 -44.5t-43 -107.5z" />
    <glyph glyph-name="ogonek" unicode="&#x2db;" horiz-adv-x="534" 
d="M274 -268q77 0 150 69l8 -8q-102 -102 -207 -102q-58 0 -90.5 31.5t-32.5 82.5q0 52 33.5 110t87.5 105h13q-68 -89 -68 -184q0 -48 27.5 -76t78.5 -28z" />
    <glyph glyph-name="tilde" unicode="&#x2dc;" horiz-adv-x="815" 
d="M430 1104q107 -64 158 -64q111 0 188 103l10 -6q-100 -174 -231 -174q-63 0 -170 67q-99 64 -158 64q-111 0 -188 -103l-10 6q100 174 231 174q58 0 170 -67z" />
    <glyph glyph-name="hungarumlaut" unicode="&#x2dd;" horiz-adv-x="1001" 
d="M539 1473q0 -40 -84 -91l-301 -186h-31l260 262q40 40 62 53t47 13q47 0 47 -51zM889 1473q0 -40 -84 -91l-301 -186h-31l260 262q40 40 62 53t47 13q47 0 47 -51z" />
    <glyph glyph-name="acutecomb" unicode="&#x301;" horiz-adv-x="0" 
d="M-268 1442q0 -39 -84 -90l-301 -187h-31l260 262q40 40 62 53t47 13q47 0 47 -51z" />
    <glyph glyph-name="uni0394" unicode="&#x394;" horiz-adv-x="1255" 
d="M1071 12l-526 1286l-494 -1286h1020zM1223 0h-1190v8l565 1473h12l613 -1471v-10z" />
    <glyph glyph-name="uni0394" unicode="&#x2206;" horiz-adv-x="1255" 
d="M1071 12l-526 1286l-494 -1286h1020zM1223 0h-1190v8l565 1473h12l613 -1471v-10z" />
    <glyph glyph-name="uni03A9" unicode="&#x3a9;" horiz-adv-x="1519" 
d="M541 0h-439l-20 342h12l6 -53q5 -58 82 -106t203 -48h133l-8 113q-109 38 -191 106t-128.5 152.5t-68.5 174t-22 183.5q0 148 54 272t145 205.5t211 126.5t252 45q108 0 203.5 -23t179.5 -74t144.5 -125.5t95 -183.5t34.5 -243q0 -93 -24.5 -183.5t-72.5 -174
t-128.5 -152t-183.5 -106.5l-9 -113h134q127 0 204 47t80 107l6 53h13l-21 -342h-438q3 47 10 134.5t10 137.5q49 26 87 60.5t63.5 70t43.5 83.5t27.5 89.5t15 100t6.5 102.5t1 109q0 95 -18 183.5t-56.5 167t-94.5 137t-136.5 92.5t-177.5 34q-102 0 -185 -35t-138 -93.5
t-92 -138t-53 -166t-16 -181.5q0 -87 4.5 -152.5t19 -140t40.5 -130t71.5 -107t108.5 -85.5z" />
    <glyph glyph-name="uni03A9" unicode="&#x2126;" horiz-adv-x="1519" 
d="M541 0h-439l-20 342h12l6 -53q5 -58 82 -106t203 -48h133l-8 113q-109 38 -191 106t-128.5 152.5t-68.5 174t-22 183.5q0 148 54 272t145 205.5t211 126.5t252 45q108 0 203.5 -23t179.5 -74t144.5 -125.5t95 -183.5t34.5 -243q0 -93 -24.5 -183.5t-72.5 -174
t-128.5 -152t-183.5 -106.5l-9 -113h134q127 0 204 47t80 107l6 53h13l-21 -342h-438q3 47 10 134.5t10 137.5q49 26 87 60.5t63.5 70t43.5 83.5t27.5 89.5t15 100t6.5 102.5t1 109q0 95 -18 183.5t-56.5 167t-94.5 137t-136.5 92.5t-177.5 34q-102 0 -185 -35t-138 -93.5
t-92 -138t-53 -166t-16 -181.5q0 -87 4.5 -152.5t19 -140t40.5 -130t71.5 -107t108.5 -85.5z" />
    <glyph glyph-name="pi" unicode="&#x3c0;" horiz-adv-x="1069" 
d="M1036 0h-293v868h-395q0 -240 -10.5 -374.5t-44.5 -243.5q-11 -35 -15 -46.5t-18 -48.5t-24 -54t-28.5 -45.5t-36 -42.5t-43 -25t-52.5 -11q-46 0 -71 22.5t-25 63.5q0 26 15.5 49t51.5 31l43 11q116 29 162 106q30 48 57 154q13 45 19 112t7 123.5t1 179.5v39h-19
q-181 0 -274 -194q-3 0 -6.5 2t-5.5 2q41 147 121 227q25 25 46 39.5t72 27.5t123 13h643v-117h-164v-759q0 -51 21.5 -74t83.5 -23h59v-12z" />
    <glyph glyph-name="afii10023" unicode="&#x401;" horiz-adv-x="1333" 
d="M94 1481h1112l21 -299h-13l-22 166q-33 59 -175.5 89.5t-326.5 30.5q-142 0 -186.5 -22.5t-44.5 -97.5v-566h123q83 0 148.5 5t107 12.5t71 20t44 23t22.5 27t9 26t1 26.5v41h12v-373h-12v47q0 23 -3 36.5t-24 34.5t-60.5 32.5t-120 20.5t-195.5 9h-123v-639
q0 -71 35.5 -95t101.5 -24q317 0 463 41q151 41 198 164l23 88h12l-55 -305h-1143v12h66q85 0 112 24.5t27 94.5v1219q0 73 -34 95.5t-105 22.5h-66v13zM1020 1677q0 -40 -27.5 -68t-68.5 -28t-69 28t-28 68q0 42 29 69.5t68 27.5t67.5 -27.5t28.5 -69.5zM627 1677
q0 -40 -28 -68t-69 -28t-68.5 28t-27.5 68q0 42 28.5 69.5t67.5 27.5t68 -27.5t29 -69.5z" />
    <glyph glyph-name="afii10051" unicode="&#x402;" horiz-adv-x="1572" 
d="M647 838v-707q0 -71 17 -95t77 -24h15v-12h-473v12h67q83 0 110 25t27 94v1241q0 96 -102 96q-143 0 -221.5 -36.5t-112.5 -116.5l-18 -154h-13l19 320h1223l22 -320h-12l-17 154q-20 38 -58.5 66t-84.5 44.5t-106.5 26.5t-115.5 13t-122 3q-121 0 -121 -94v-524
q121 39 266 39q90 0 169.5 -12t158.5 -44.5t134.5 -83.5t90.5 -134t35 -191q0 -61 -16 -122t-50.5 -117.5t-82.5 -99.5t-116.5 -69t-148.5 -26q-108 0 -158 38.5t-50 92.5q0 35 20 57.5t62 22.5q38 0 58.5 -21t20.5 -55q0 -6 -5 -29t-5 -30q0 -14 3.5 -26t20.5 -25t46 -13
q225 0 225 410q0 111 -28.5 196t-72.5 134.5t-105 81t-117.5 42.5t-118.5 11t-121 -9.5t-87 -19.5z" />
    <glyph glyph-name="afii10052" unicode="&#x403;" horiz-adv-x="1144" 
d="M1102 1481l22 -320h-12l-16 154q-13 25 -31.5 45.5t-36.5 35.5t-46.5 27t-49 19.5t-57.5 12.5t-59 7.5t-66 4t-65 1.5h-70h-9.5h-8.5h-9q-129 0 -129 -73v-1264q0 -70 29.5 -94.5t105.5 -24.5h82v-12h-582v12h68q80 0 108.5 24.5t28.5 94.5v1219q0 65 -28.5 91.5
t-108.5 26.5h-68v13h1008zM987 1872q0 -39 -84 -90l-301 -187h-31l260 263q40 40 61.5 52.5t47.5 12.5q47 0 47 -51z" />
    <glyph glyph-name="afii10053" unicode="&#x404;" horiz-adv-x="1492" 
d="M1337 86q-71 -46 -177 -73.5t-176 -34.5t-126 -7q-146 0 -266 36.5t-207 103.5t-146.5 161t-88.5 208.5t-29 246.5q0 90 16 177.5t50.5 178t94 166.5t139.5 136t196 94t255 34q207 0 455 -112q0 8 -1 38t-1 42h12q4 -65 13.5 -182.5t13.5 -182.5h-12l-13 92
q-62 130 -187 211.5t-310 81.5q-108 0 -198 -38.5t-152.5 -105t-106 -159t-65 -198.5t-23.5 -224h238q258 0 534 35v-76q-42 6 -83 10.5t-72 8t-71 5.5t-61 3t-63.5 1.5t-58 0.5h-63.5h-62h-238v-25q0 -152 30 -278.5t82.5 -213.5t124 -147t153 -88t171.5 -28
q165 0 304.5 70.5t189.5 174.5l26 119h13l-48 -348h-12z" />
    <glyph glyph-name="afii10054" unicode="&#x405;" horiz-adv-x="1183" 
d="M1077 367q0 -164 -127.5 -280t-347.5 -116q-244 0 -471 117l2 -88h-12l-31 389h12l11 -86q58 -132 190 -225.5t297 -93.5q90 0 158.5 24t108 66t58.5 92.5t19 109.5q0 68 -30.5 130.5t-87.5 116.5t-121 97.5t-148 88.5q-54 29 -92 51t-84.5 52.5t-78 57t-64 61t-52 69.5
t-31.5 78t-12 89q0 71 22.5 130t71 109t136 78.5t207.5 28.5q210 0 403 -108v76h12l19 -348h-13l-6 71q-11 42 -29.5 81.5t-52 79.5t-77 69.5t-108.5 48t-142 18.5q-92 0 -155.5 -19t-96 -54t-45.5 -73.5t-13 -88.5q0 -44 11 -83.5t27 -70.5t47 -63t56.5 -54t72 -51
t77 -46.5t86.5 -47.5q54 -29 90 -49.5t85 -52.5t80.5 -59t66.5 -64.5t55 -75t33.5 -84.5t13.5 -98z" />
    <glyph glyph-name="afii10055" unicode="&#x406;" horiz-adv-x="757" 
d="M664 0h-570v12h66q82 0 110.5 26t28.5 93v1219q0 69 -30 93.5t-109 24.5h-66v13h570v-13h-70q-79 0 -107 -25t-28 -93v-1219q0 -66 26 -92.5t109 -26.5h70v-12z" />
    <glyph glyph-name="afii10056" unicode="&#x407;" horiz-adv-x="757" 
d="M664 0h-570v12h66q82 0 110.5 26t28.5 93v1219q0 69 -30 93.5t-109 24.5h-66v13h570v-13h-70q-79 0 -107 -25t-28 -93v-1219q0 -66 26 -92.5t109 -26.5h70v-12zM672 1677q0 -40 -28 -68t-69 -28t-68.5 28t-27.5 68q0 42 28.5 69.5t67.5 27.5t68 -27.5t29 -69.5zM279 1677
q0 -40 -28 -68t-69 -28t-68.5 28t-27.5 68q0 42 28.5 69.5t67.5 27.5t68 -27.5t29 -69.5z" />
    <glyph glyph-name="afii10057" unicode="&#x408;" horiz-adv-x="956" 
d="M895 1468h-66q-82 0 -110.5 -27t-28.5 -91v-725q0 -145 -23 -259.5t-61 -187.5t-91.5 -120.5t-111 -67t-122.5 -19.5q-130 0 -195.5 54.5t-65.5 126.5q0 41 22 67.5t71 26.5q39 0 64.5 -24.5t25.5 -65.5q0 -12 -7.5 -38t-7.5 -38q0 -96 111 -96q41 0 73.5 12t56 37.5
t41 55t28 76t17.5 88t10 103.5t4 110t1 120v764q0 66 -29 92t-110 26h-65v13h569v-13z" />
    <glyph glyph-name="afii10058" unicode="&#x409;" horiz-adv-x="2197" 
d="M1233 1354v-508q155 59 321 59q127 0 225.5 -24.5t161 -64.5t103 -97.5t56.5 -118.5t16 -131q0 -68 -17.5 -132.5t-60.5 -128.5t-108.5 -111.5t-170.5 -77t-237 -29.5q-44 0 -158 5t-156 5h-340v12h66q72 0 105.5 28t33.5 91v1219v10v2q-3 55 -30.5 79t-94.5 27h-14h-146
q-51 0 -85.5 -7t-55 -17.5t-32.5 -32t-16 -42.5t-7 -56q-5 -61 -12.5 -182.5t-12.5 -182.5q-2 -22 -6.5 -81.5t-7.5 -91.5t-8.5 -82t-12.5 -93.5t-16 -85.5q-56 -323 -162 -455q-73 -88 -198 -88q-79 0 -127.5 46t-48.5 110q0 45 23.5 79t76.5 34q48 0 73 -25.5t25 -67.5
q0 -10 -6 -34.5t-6 -42.5q0 -22 15 -42t48 -20q65 0 117 68q93 123 152 432q7 38 14 80t11 73t9 81t7 72t7 81t7 76q10 123 10 323q0 26 -2 45.5t-10.5 45.5t-23 42.5t-42 28.5t-65.5 12h-90v13h1108v-13h-70q-73 0 -102.5 -24t-32.5 -78v-12zM1939 461q0 432 -417 432
q-148 0 -289 -59v-773q108 -59 280 -59q187 0 306.5 124.5t119.5 334.5z" />
    <glyph glyph-name="afii10059" unicode="&#x40a;" horiz-adv-x="2400" 
d="M1436 1350v-504q155 59 321 59q127 0 225.5 -24.5t160.5 -64.5t102.5 -97.5t56.5 -118.5t16 -131q0 -68 -17.5 -132.5t-60.5 -128.5t-108.5 -111.5t-170.5 -77t-237 -29.5q-44 0 -158 5t-155 5h-340v12h66q72 0 105.5 28t33.5 91v629h-817v-629q0 -70 29 -94.5t106 -24.5
h70v-12h-570v12h66q80 0 109.5 24.5t29.5 94.5v1219q0 65 -30 91.5t-109 26.5h-66v13h570v-13h-70q-77 0 -106 -24t-29 -94v-578h817v578q0 64 -30.5 91t-108.5 27h-66v13h569v-13h-69q-79 0 -107 -27t-28 -91zM1436 61q108 -59 280 -59q187 0 306.5 124.5t119.5 334.5
q0 214 -108 323t-310 109q-141 0 -288 -59v-773z" />
    <glyph glyph-name="afii10060" unicode="&#x40b;" horiz-adv-x="1695" 
d="M39 1481h1223l22 -320h-12l-17 154q-20 38 -58.5 66t-84.5 44.5t-106.5 26.5t-115.5 13t-122 3q-121 0 -121 -94v-624q234 157 498 157q77 0 135.5 -20.5t94 -52.5t57.5 -77.5t30 -90t8 -95.5v-440q0 -71 28 -95t112 -24h65v-12h-557v12h56q82 0 109.5 26.5t27.5 92.5
v467q0 272 -242 272q-205 0 -422 -137v-602q0 -68 29.5 -93.5t107.5 -25.5h56v-12h-557v12h67q83 0 110 25t27 94v1241q0 96 -102 96q-143 0 -221.5 -36.5t-112.5 -116.5l-18 -154h-13z" />
    <glyph glyph-name="afii10061" unicode="&#x40c;" horiz-adv-x="1568" 
d="M758 811v-6q131 -26 210 -74.5t146 -128.5q32 -38 58.5 -78t54 -99t42.5 -95t50 -123q2 -5 13.5 -35t15.5 -40t15.5 -35.5t20 -36.5t21 -25.5t26.5 -20.5t29 -6q79 0 86 127h13q-7 -164 -152 -164q-52 0 -98 23.5t-78.5 56.5t-68 92.5t-57 105.5t-54.5 122
q-61 138 -93 200q-66 128 -121.5 180t-138.5 52h-237v-672q0 -67 27.5 -93t107.5 -26h70v-12h-570v12h66q82 0 110.5 26t28.5 93v1219q0 69 -31 93.5t-108 24.5h-66v13h570v-13h-70q-79 0 -107 -27.5t-28 -90.5v-535h237q92 0 174 55q42 29 85 87t65 108l94 223
q54 126 103 175.5t133 49.5q66 0 100.5 -35t34.5 -81q0 -41 -23 -69t-69 -28q-41 0 -63.5 23.5t-22.5 56.5q0 7 7 31.5t7 32.5q0 21 -7.5 31t-27.5 10q-44 0 -85 -61t-85 -169q-68 -167 -92 -215q-102 -209 -268 -229zM1212 1872q0 -39 -84 -90l-301 -187h-30l260 263
q40 40 61.5 52.5t46.5 12.5q47 0 47 -51z" />
    <glyph glyph-name="afii10062" unicode="&#x40e;" horiz-adv-x="1507" 
d="M1507 1468h-53q-72 -23 -137 -139q-19 -33 -36.5 -69t-27.5 -57.5t-33 -73.5t-34 -78q-3 -7 -73 -168.5t-142 -317.5q-149 -322 -242 -456q-48 -67 -109.5 -102.5t-123.5 -35.5q-42 0 -77.5 7t-72.5 24.5t-58.5 54.5t-21.5 90q0 51 28.5 79t74.5 28q41 0 67.5 -22.5
t26.5 -65.5q0 -21 -10.5 -45t-10.5 -41q0 -32 24.5 -52t55.5 -20q30 0 54 5.5t63 31.5t76 72q29 36 106 182l-577 1049q-69 120 -191 120h-22v13h538v-13h-71q-43 0 -63.5 -16.5t-20.5 -40.5q0 -27 12 -51l479 -897q38 74 172 375q76 168 140.5 341.5t64.5 215.5q0 21 -7 36
t-15 22t-22.5 10.5t-21.5 4t-20 0.5h-74v13h385v-13zM1178 1804q0 -35 -21.5 -72.5t-63 -72.5t-115 -57.5t-165.5 -22.5t-165 22.5t-114 57.5t-62 72.5t-21 72.5q0 41 26.5 64.5t57.5 23.5t55 -16.5t24 -52.5q0 -23 -26 -62q-21 -28 -21 -61q0 -15 10.5 -31.5t35.5 -35
t77 -30.5t123 -12t123.5 12t77.5 30.5t36 35t11 31.5q0 23 -19 61q-28 36 -28 62q0 36 23.5 52.5t56.5 16.5q31 0 57.5 -23.5t26.5 -64.5z" />
    <glyph glyph-name="afii10145" unicode="&#x40f;" horiz-adv-x="1669" 
d="M997 1481h578v-13h-72q-77 0 -107 -27.5t-30 -90.5v-1223q0 -71 31 -93t106 -22h72v-12h-576q-65 -18 -112 -120t-47 -255h-13q0 151 -47 254t-112 121h-574v12h70q89 0 114 25.5t25 93.5v1219q0 64 -29.5 91t-109.5 27h-70v13h578v-13h-74q-81 0 -108 -26.5t-27 -91.5
v-1221q0 -72 30.5 -94.5t106.5 -22.5h467q79 0 109 23t30 94v1221q0 64 -28.5 91t-108.5 27h-72v13z" />
    <glyph glyph-name="afii10017" unicode="&#x410;" horiz-adv-x="1427" 
d="M1427 0h-522v12h66q20 0 34 1.5t33 8t29 22t10 40.5q0 26 -104 330q-39 117 -64 190h-528l-72 -188q-3 -9 -20.5 -54.5t-25.5 -68.5t-20.5 -61.5t-18 -66.5t-5.5 -48q0 -86 76 -105h86v-12h-381v12h57q43 26 81.5 82t99.5 195.5t155 392.5q2 5 293 799h43l498 -1329
q24 -69 60 -104.5t110 -35.5h30v-12zM901 616l-258 709l-258 -709h516z" />
    <glyph glyph-name="afii10018" unicode="&#x411;" horiz-adv-x="1454" 
d="M299 1350q0 73 -34 95.5t-105 22.5h-66v13h1125l20 -299h-12l-23 166q-37 60 -173.5 90t-332.5 30q-143 0 -191 -23t-48 -97v-502q155 59 321 59q127 0 225.5 -24.5t160.5 -64.5t102.5 -97.5t56.5 -118.5t16 -131q0 -68 -17 -132.5t-60.5 -128.5t-109 -111.5t-170 -77
t-236.5 -29.5q-44 0 -158 5t-156 5h-340v12h66q72 0 105.5 28t33.5 91v1219zM1165 461q0 215 -108.5 321.5t-317.5 106.5q-143 0 -280 -55v-773q108 -59 280 -59q187 0 306.5 124.5t119.5 334.5z" />
    <glyph glyph-name="afii10019" unicode="&#x412;" horiz-adv-x="1464" 
d="M1124 1145q0 84 -31.5 148t-75.5 98t-102.5 55.5t-101 27t-82.5 5.5q-67 0 -142.5 -15.5t-129.5 -40.5v-600h299q18 0 38 1.5t58 8.5t71.5 19t71.5 36t64.5 57t44.5 84.5t18 115.5zM1176 436q0 30 -4 60t-16.5 68.5t-33 72t-56.5 66t-83 56t-117 38t-155 14.5h-252v-729
q54 -40 139 -60t160 -20q52 0 104.5 11.5t110.5 42t102 77.5t72.5 125.5t28.5 177.5zM299 1350q0 118 -139 118h-66v13h334q58 0 183 5t180 5q135 0 234 -24t155 -68t82 -98t26 -121q0 -149 -108 -246.5t-301 -112.5v-6q96 -8 180.5 -36.5t150.5 -75.5t104 -118t38 -157
q0 -207 -143 -322.5t-380 -115.5q-87 0 -227.5 5t-220.5 5h-287v16h66q84 0 111.5 25t27.5 94v1215z" />
    <glyph glyph-name="afii10020" unicode="&#x413;" horiz-adv-x="1144" 
d="M1102 1481l22 -320h-12l-16 154q-13 25 -31.5 45.5t-36.5 35.5t-46.5 27t-49 19.5t-57.5 12.5t-59 7.5t-66 4t-65 1.5h-70h-9.5h-8.5h-9q-129 0 -129 -73v-1264q0 -70 29.5 -94.5t105.5 -24.5h82v-12h-582v12h68q80 0 108.5 24.5t28.5 94.5v1219q0 65 -28.5 91.5
t-108.5 26.5h-68v13h1008z" />
    <glyph glyph-name="afii10021" unicode="&#x414;" horiz-adv-x="1480" 
d="M1460 -338h-12v88q0 250 -420 250h-575q-104 0 -180.5 -14.5t-121.5 -36.5t-72 -56.5t-36 -67.5t-10 -75v-88h-13v350h123q34 0 81.5 50t78.5 100q119 202 186 588q25 141 39.5 306.5t14.5 239.5q0 172 -160 172h-57v13h1095v-13h-92q-61 0 -86.5 -23.5t-25.5 -90.5
v-1202v-9q0 -24 0.5 -35t5 -28.5t13.5 -25t26 -17.5t43 -14.5t64.5 -7.5t90.5 -3v-350zM1057 150v1202q0 59 -25 87.5t-94 28.5h-219q-83 0 -114 -33t-38 -102q0 -1 -4.5 -90.5t-14.5 -201.5t-26 -216q-39 -243 -86.5 -405t-130.5 -295q-39 -61 -100 -113h737q63 0 89 29
t26 109z" />
    <glyph glyph-name="afii10022" unicode="&#x415;" horiz-adv-x="1333" 
d="M94 1481h1112l21 -299h-13l-22 166q-33 59 -175.5 89.5t-326.5 30.5q-142 0 -186.5 -22.5t-44.5 -97.5v-566h123q83 0 148.5 5t107 12.5t71 20t44 23t22.5 27t9 26t1 26.5v41h12v-373h-12v47q0 23 -3 36.5t-24 34.5t-60.5 32.5t-120 20.5t-195.5 9h-123v-639
q0 -71 35.5 -95t101.5 -24q317 0 463 41q151 41 198 164l23 88h12l-55 -305h-1143v12h66q85 0 112 24.5t27 94.5v1219q0 73 -34 95.5t-105 22.5h-66v13z" />
    <glyph glyph-name="afii10024" unicode="&#x416;" horiz-adv-x="2146" 
d="M811 805v6q-166 20 -268 229q-24 48 -92 215q-44 108 -85 169t-85 61q-20 0 -27.5 -10t-7.5 -31q0 -8 7 -32.5t7 -31.5q0 -33 -22.5 -56.5t-63.5 -23.5q-46 0 -69 28t-23 69q0 46 34.5 81t100.5 35q84 0 133 -49.5t103 -175.5l94 -223q22 -51 64.5 -108.5t84.5 -86.5
q82 -55 174 -55h123v535q0 69 -31 93.5t-108 24.5h-66v13h570v-13h-70q-79 0 -107 -27.5t-28 -90.5v-535h123q92 0 174 55q42 29 84.5 86.5t64.5 108.5l95 223q54 126 102.5 175.5t132.5 49.5q66 0 100.5 -35t34.5 -81q0 -41 -23 -69t-69 -28q-41 0 -63.5 23.5t-22.5 56.5
q0 7 7.5 31.5t7.5 32.5q0 21 -7.5 31t-27.5 10q-44 0 -85 -61t-85 -169q-68 -167 -92 -215q-102 -209 -269 -229v-6q132 -26 211 -74.5t146 -128.5q42 -49 80.5 -118t57.5 -114.5t66 -162.5q3 -7 10.5 -27.5t11.5 -30.5t12 -29t14 -29.5t14.5 -25.5t17 -23.5t18.5 -17
t21 -12.5t23 -4q79 0 86 127h12q-7 -164 -151 -164q-43 0 -81.5 14.5t-71.5 45t-59 62.5t-53.5 84.5t-46 92t-45.5 101.5q-67 152 -92 200q-66 128 -121.5 180t-138.5 52h-123v-672q0 -67 27.5 -93t107.5 -26h70v-12h-570v12h66q82 0 110.5 26t28.5 93v672h-123
q-83 0 -138.5 -52t-121.5 -180q-25 -48 -92 -200q-33 -76 -54.5 -122t-57 -105.5t-68 -92.5t-78.5 -56.5t-98 -23.5q-145 0 -152 164h13q7 -127 86 -127q15 0 29 6t26.5 20.5t21 25.5t20 36.5t15.5 35.5t15.5 40t13.5 35q35 87 50 123t42.5 95t54 99t58.5 78
q67 80 146 128.5t210 74.5z" />
    <glyph glyph-name="afii10025" unicode="&#x417;" horiz-adv-x="1341" 
d="M225 1481h13l-5 -74q205 106 441 106q110 0 198 -21.5t143.5 -56.5t93 -82.5t52.5 -95t15 -98.5q0 -130 -110 -227t-298 -111v-6q91 -10 169 -36t146.5 -71.5t108 -119.5t39.5 -170q0 -202 -156.5 -324.5t-433.5 -122.5q-108 0 -195.5 15t-142.5 37t-95.5 53.5t-60 59
t-30.5 59.5t-13 47.5t-2 31.5q0 53 32 83t79 30q49 0 73.5 -27.5t24.5 -72.5q0 -28 -21.5 -69.5t-21.5 -70.5q0 -66 99 -114.5t262 -48.5q189 0 307.5 116.5t118.5 321.5q0 176 -118 282.5t-308 106.5q-82 0 -164 -20v45q80 -13 168 -13q186 0 284.5 90.5t98.5 245.5
t-96 248.5t-248 93.5q-143 0 -265 -70.5t-182 -205.5q-2 -13 -6 -46.5t-6 -45.5h-12q4 65 12 179.5t12 168.5z" />
    <glyph glyph-name="afii10026" unicode="&#x418;" horiz-adv-x="1740" 
d="M1647 0h-572v12h70q78 0 107.5 25t29.5 94v1186l-823 -1184q0 -72 24 -96.5t111 -24.5h72v-12h-572v12h66q86 0 112.5 26t26.5 93v1223q0 62 -27.5 88t-111.5 26h-66v13h572v-13h-72q-88 0 -111.5 -22t-23.5 -92v-1188l823 1182q0 68 -29.5 94t-107.5 26h-70v13h572v-13
h-66q-81 0 -110 -24t-29 -90v-1223q0 -70 27.5 -94.5t111.5 -24.5h66v-12z" />
    <glyph glyph-name="afii10027" unicode="&#x419;" horiz-adv-x="1740" 
d="M1647 0h-572v12h70q78 0 107.5 25t29.5 94v1186l-823 -1184q0 -72 24 -96.5t111 -24.5h72v-12h-572v12h66q86 0 112.5 26t26.5 93v1223q0 62 -27.5 88t-111.5 26h-66v13h572v-13h-72q-88 0 -111.5 -22t-23.5 -92v-1188l823 1182q0 68 -29.5 94t-107.5 26h-70v13h572v-13
h-66q-81 0 -110 -24t-29 -90v-1223q0 -70 27.5 -94.5t111.5 -24.5h66v-12zM1235 1804q0 -35 -21.5 -72.5t-63 -72.5t-115 -57.5t-165.5 -22.5t-165 22.5t-114 57.5t-62 72.5t-21 72.5q0 41 26.5 64.5t57.5 23.5q32 0 56 -16.5t24 -52.5q0 -21 -27 -62q-20 -27 -20 -61
q0 -15 10.5 -31.5t35 -35t76.5 -30.5t123 -12t123.5 12t77.5 30.5t36 35t11 31.5q0 25 -18 61q-29 37 -29 62q0 36 23.5 52.5t56.5 16.5q31 0 57.5 -23.5t26.5 -64.5z" />
    <glyph glyph-name="afii10028" unicode="&#x41a;" horiz-adv-x="1568" 
d="M758 811v-6q131 -26 210 -74.5t146 -128.5q32 -38 58.5 -78t54 -99t42.5 -95t50 -123q2 -5 13.5 -35t15.5 -40t15.5 -35.5t20 -36.5t21 -25.5t26.5 -20.5t29 -6q79 0 86 127h13q-7 -164 -152 -164q-52 0 -98 23.5t-78.5 56.5t-68 92.5t-57 105.5t-54.5 122
q-61 138 -93 200q-66 128 -121.5 180t-138.5 52h-237v-672q0 -67 27.5 -93t107.5 -26h70v-12h-570v12h66q82 0 110.5 26t28.5 93v1219q0 69 -31 93.5t-108 24.5h-66v13h570v-13h-70q-79 0 -107 -27.5t-28 -90.5v-535h237q92 0 174 55q42 29 85 87t65 108l94 223
q54 126 103 175.5t133 49.5q66 0 100.5 -35t34.5 -81q0 -41 -23 -69t-69 -28q-41 0 -63.5 23.5t-22.5 56.5q0 7 7 31.5t7 32.5q0 21 -7.5 31t-27.5 10q-44 0 -85 -61t-85 -169q-68 -167 -92 -215q-102 -209 -268 -229z" />
    <glyph glyph-name="afii10029" unicode="&#x41b;" horiz-adv-x="1531" 
d="M1438 0h-572v12h72q72 0 103.5 29.5t31.5 89.5v1229q0 39 -7 61t-27 32t-41 12.5t-64 2.5h-146q-51 0 -85.5 -7t-55 -17.5t-32.5 -32t-16 -42.5t-7 -56q-5 -61 -12.5 -182.5t-12.5 -182.5q-2 -22 -6.5 -81.5t-7.5 -91.5t-8.5 -82t-12.5 -93.5t-16 -85.5
q-56 -323 -162 -455q-73 -88 -198 -88q-79 0 -127.5 46t-48.5 110q0 45 23.5 79t76.5 34q48 0 73 -25.5t25 -67.5q0 -10 -6 -34.5t-6 -42.5q0 -22 15 -42t48 -20q65 0 117 68q93 123 152 432q7 38 14 80t11 73t9 81t7 72t7 81t7 76q10 123 10 323q0 26 -2 45.5t-10.5 45.5
t-23 42.5t-42 28.5t-65.5 12h-90v13h1108v-13h-74q-70 0 -100.5 -24.5t-30.5 -89.5v-1223q0 -67 24 -93t107 -26h74v-12z" />
    <glyph glyph-name="afii10030" unicode="&#x41c;" horiz-adv-x="2017" 
d="M1923 0h-569v12h65q80 0 110 24.5t30 94.5v1262l-605 -1149h-34l-613 1159v-889q0 -395 72 -502h119v-12h-398v12h119q72 105 72 566v782q0 60 -23.5 84t-68.5 24h-105v13h348l572 -1082l569 1082h340v-13h-68q-31 0 -45 -0.5t-36 -6.5t-31.5 -17.5t-17 -34t-7.5 -55.5
v-1223q0 -69 25 -94t110 -25h70v-12z" />
    <glyph glyph-name="afii10031" unicode="&#x41d;" horiz-adv-x="1734" 
d="M1640 0h-569v12h66q80 0 109.5 24.5t29.5 94.5v629h-817v-629q0 -70 29 -94.5t106 -24.5h70v-12h-570v12h66q80 0 109.5 24.5t29.5 94.5v1219q0 65 -30 91.5t-109 26.5h-66v13h570v-13h-70q-77 0 -106 -24t-29 -94v-578h817v578q0 70 -29.5 94t-109.5 24h-66v13h569v-13
h-69q-77 0 -106 -24t-29 -94v-1219q0 -70 29 -94.5t106 -24.5h69v-12z" />
    <glyph glyph-name="afii10032" unicode="&#x41e;" horiz-adv-x="1746" 
d="M1626 743q0 -98 -22 -198t-77.5 -205t-138 -185.5t-216.5 -132t-300 -51.5q-120 0 -223.5 27t-178.5 72.5t-136 108.5t-100 132t-65 145.5t-37 147.5t-11 139q0 72 12.5 145.5t40 149.5t68.5 145t102.5 129.5t136.5 105t175.5 70t215.5 25.5q161 0 292 -47t215.5 -123
t141.5 -178t81 -207t24 -215zM1450 743q0 164 -38 302t-110 239.5t-182 159t-248 57.5q-276 0 -425.5 -203.5t-149.5 -554.5q0 -149 36.5 -283.5t106 -241.5t181.5 -170.5t251 -63.5q141 0 253.5 63.5t182 171t106 241.5t36.5 283z" />
    <glyph glyph-name="afii10033" unicode="&#x41f;" horiz-adv-x="1669" 
d="M1575 0h-578v12h72q80 0 108.5 27t28.5 92v1221q0 71 -29.5 93.5t-107.5 22.5h-469q-76 0 -106.5 -22t-30.5 -94v-1221q0 -65 27 -92t108 -27h74v-12h-578v12h70q80 0 109.5 27.5t29.5 91.5v1219q0 68 -25 93t-114 25h-70v13h1481v-13h-72q-75 0 -106 -21.5t-31 -92.5
v-1223q0 -64 30 -91.5t107 -27.5h72v-12z" />
    <glyph glyph-name="afii10034" unicode="&#x420;" horiz-adv-x="1361" 
d="M1280 1067q0 -92 -38 -176t-108.5 -149.5t-180.5 -104.5t-244 -39q-142 0 -250 27v-494q0 -70 26.5 -94.5t108.5 -24.5h70v-12h-570v12h66q83 0 111 25t28 94v1219q0 69 -28 93.5t-111 24.5h-66v13h217q65 0 211.5 11t208.5 11q123 0 219.5 -26t157.5 -68t100.5 -100
t55.5 -117.5t16 -124.5zM1104 1067q0 205 -107 314.5t-301 109.5q-125 0 -237 -59v-795q106 -27 241 -27q184 0 294 119.5t110 337.5z" />
    <glyph glyph-name="afii10035" unicode="&#x421;" horiz-adv-x="1492" 
d="M1337 86q-71 -46 -177 -73.5t-176 -34.5t-126 -7q-146 0 -266 36.5t-207 103.5t-146.5 161t-88.5 208.5t-29 246.5q0 90 16 177.5t50.5 178t94 166.5t139.5 136t196 94t255 34q207 0 455 -112q0 8 -1 38t-1 42h12q4 -65 13.5 -182.5t13.5 -182.5h-12l-13 92
q-62 130 -187 211.5t-310 81.5q-112 0 -203.5 -40.5t-154 -111.5t-105.5 -168t-62.5 -208t-19.5 -234q0 -152 30 -278.5t82.5 -213.5t124 -147t153 -88t171.5 -28q165 0 304.5 70.5t189.5 174.5l26 119h13l-48 -348h-12z" />
    <glyph glyph-name="afii10036" unicode="&#x422;" horiz-adv-x="1335" 
d="M39 1481h1253l23 -320h-12l-17 154q-49 91 -148.5 122t-269.5 31q-72 0 -96 -19t-24 -54v-1264q0 -68 26 -93.5t113 -25.5h65v-12h-569v12h68q83 0 110 25t27 94v1262q0 35 -24.5 55t-98.5 20q-169 0 -267 -31t-147 -122l-18 -154h-13z" />
    <glyph glyph-name="afii10037" unicode="&#x423;" horiz-adv-x="1507" 
d="M1507 1468h-53q-72 -23 -137 -139q-19 -33 -36.5 -69t-27.5 -57.5t-33 -73.5t-34 -78q-3 -7 -73 -168.5t-142 -317.5q-149 -322 -242 -456q-48 -67 -109.5 -102.5t-123.5 -35.5q-42 0 -77.5 7t-72.5 24.5t-58.5 54.5t-21.5 90q0 51 28.5 79t74.5 28q41 0 67.5 -22.5
t26.5 -65.5q0 -21 -10.5 -45t-10.5 -41q0 -32 24.5 -52t55.5 -20q30 0 54 5.5t63 31.5t76 72q29 36 106 182l-577 1049q-69 120 -191 120h-22v13h538v-13h-71q-43 0 -63.5 -16.5t-20.5 -40.5q0 -27 12 -51l479 -897q38 74 172 375q76 168 140.5 341.5t64.5 215.5q0 21 -7 36
t-15 22t-22.5 10.5t-21.5 4t-20 0.5h-74v13h385v-13z" />
    <glyph glyph-name="afii10038" unicode="&#x424;" horiz-adv-x="1966" 
d="M1884 733q0 -77 -17.5 -148t-63 -143t-115.5 -124.5t-184.5 -85.5t-260.5 -33q-114 0 -180 8v-72q0 -77 23.5 -100t115.5 -23h66v-12h-570v12h66q87 0 113 26.5t26 96.5v72q-68 -8 -178 -8q-147 0 -261.5 33t-185 85.5t-116 124.5t-63 143t-17.5 148q0 67 13 129.5
t41.5 125.5t78 114.5t117 92t165 63t216.5 22.5q125 0 190 -12v86q0 69 -26.5 91.5t-112.5 22.5h-66v13h570v-13h-66q-80 0 -109.5 -26t-29.5 -88v-86q67 12 192 12q102 0 188 -17t149.5 -46.5t114 -71.5t83.5 -89.5t54.5 -102.5t30.5 -109t9 -111zM1708 737
q0 269 -124.5 400t-399.5 131q-58 0 -121 -13v-1036q82 -8 113 -8q86 0 161 15.5t144.5 54t118.5 97t78.5 150.5t29.5 209zM903 219v1036q-60 13 -131 13q-265 0 -389.5 -132t-124.5 -399q0 -117 29.5 -209t79 -150.5t119.5 -97t145 -54t162 -15.5q32 0 110 8z" />
    <glyph glyph-name="afii10039" unicode="&#x425;" horiz-adv-x="1568" 
d="M1538 0h-588v12h78q96 0 96 60q0 25 -32 71l-363 551q-34 -45 -81 -106.5t-75.5 -99t-66 -86.5t-60 -80t-49 -68t-41 -61t-28.5 -48t-19.5 -40.5t-5.5 -28.5q0 -26 15.5 -41.5t29.5 -19t27 -3.5h92v-12h-436v12h71q20 10 55.5 39.5t114 110.5t174.5 196q57 69 275 351
l-375 571q-51 76 -82.5 111t-75 54.5t-110.5 22.5v13h561v-13h-107q-63 0 -63 -53q0 -26 37 -86l321 -500q52 70 169 235.5t159 231.5q43 69 43 113q0 37 -25 48t-79 11h-76v13h450v-13h-57q-81 -28 -151.5 -98.5t-153.5 -183.5q-42 -58 -102.5 -142.5t-98.5 -137t-67 -89.5
l391 -594q20 -31 37.5 -55t47 -55t58.5 -51.5t68 -35t80 -14.5h18v-12z" />
    <glyph glyph-name="afii10040" unicode="&#x426;" horiz-adv-x="1642" 
d="M1622 -338h-12v88q0 119 -106.5 184.5t-329.5 65.5h-1080v12h66q73 0 106 28.5t33 90.5v1219q0 61 -29 89.5t-110 28.5h-66v13h570v-13h-70q-81 0 -108 -24.5t-27 -93.5v-1219q0 -68 25.5 -93.5t111.5 -25.5h469q85 0 111 29t26 90v1219q0 68 -30.5 93t-106.5 25h-68v13
h570v-13h-68q-82 0 -109.5 -24.5t-27.5 -93.5v-1198q0 -57 14.5 -83.5t71 -41.5t174.5 -15v-350z" />
    <glyph glyph-name="afii10041" unicode="&#x427;" horiz-adv-x="1507" 
d="M1413 0h-579v12h77q83 0 110.5 28.5t27.5 90.5v600q-235 -158 -498 -158q-77 0 -136 20.5t-94 52.5t-57.5 77.5t-30.5 90t-8 95.5v441q0 71 -27.5 94.5t-111.5 23.5h-66v13h558v-13h-56q-82 0 -109.5 -26t-27.5 -92v-467q0 -273 242 -273q203 0 422 138v602
q0 67 -30 92.5t-108 25.5h-55v13h557v-13h-67q-83 0 -110.5 -24.5t-27.5 -93.5v-1219q0 -64 26.5 -91.5t111.5 -27.5h67v-12z" />
    <glyph glyph-name="afii10042" unicode="&#x428;" horiz-adv-x="2373" 
d="M2277 0h-2183v12h66q80 0 109.5 26.5t29.5 96.5v1215q0 70 -30 94t-109 24h-66v13h557v-13h-55q-84 0 -110.5 -24.5t-26.5 -93.5v-1219q0 -66 32.5 -92.5t104.5 -26.5h373q79 0 108 27t29 92v1219q0 67 -30 92.5t-105 25.5h-58v13h545v-13h-55q-81 0 -109 -25t-28 -93
v-1219q0 -68 26 -93.5t111 -25.5h375q77 0 106 30.5t29 88.5v1219q0 62 -32.5 90t-104.5 28h-56v13h559v-13h-67q-78 0 -108.5 -27.5t-30.5 -90.5v-1219q0 -72 28 -95.5t111 -23.5h65v-12z" />
    <glyph glyph-name="afii10043" unicode="&#x429;" horiz-adv-x="2353" 
d="M2073 152q0 -34 4 -54t18 -39t43 -27.5t76 -14t119 -5.5v-350h-13v88q0 119 -106.5 184.5t-329.5 65.5h-1790v12h68q79 0 108 26t29 97v1215q0 70 -29.5 94t-107.5 24h-68v13h557v-13h-57q-83 0 -109 -24.5t-26 -93.5v-1219q0 -66 32 -92.5t103 -26.5h373q81 0 110 27
t29 92v1219q0 67 -30.5 92.5t-106.5 25.5h-56v13h545v-13h-53q-81 0 -110 -25t-29 -93v-1219q0 -68 26.5 -93.5t112.5 -25.5h371q85 0 111 29t26 90v1219q0 62 -32.5 90t-104.5 28h-56v13h557v-13h-65q-78 0 -108.5 -27.5t-30.5 -90.5v-1198z" />
    <glyph glyph-name="afii10044" unicode="&#x42a;" horiz-adv-x="1681" 
d="M39 1481h885v-13h-70q-79 0 -107 -27t-28 -91v-504q155 59 321 59q127 0 225.5 -24.5t161 -64.5t103 -97.5t56.5 -118.5t16 -131q0 -68 -17.5 -132.5t-60.5 -128.5t-108.5 -111.5t-170.5 -77t-237 -29.5q-44 0 -158 5t-156 5h-340v12h66q72 0 105.5 28t33.5 91v1241
q0 96 -123 96q-164 0 -249.5 -30t-135.5 -123l-18 -154h-13zM1425 461q0 432 -417 432q-62 0 -142.5 -15.5t-146.5 -43.5v-773q108 -59 280 -59q187 0 306.5 124.5t119.5 334.5z" />
    <glyph glyph-name="afii10045" unicode="&#x42b;" horiz-adv-x="2070" 
d="M1976 0h-569v12h70q73 0 104 25t31 94v1219q0 63 -29.5 90.5t-105.5 27.5h-70v13h569v-13h-69q-46 0 -73.5 -6.5t-41 -23t-17 -35.5t-3.5 -53v-1219q0 -68 25.5 -93.5t109.5 -25.5h69v-12zM459 1350v-504q155 59 307 59q127 0 225 -24.5t159.5 -64.5t101.5 -97.5
t55.5 -118t15.5 -131.5q0 -69 -17 -133t-59.5 -128t-107.5 -111.5t-169.5 -77t-236.5 -29.5q-45 0 -155 5t-152 5h-332v12h66q72 0 105.5 28t33.5 91v1219q0 64 -30.5 91t-108.5 27h-66v13h570v-13h-70q-79 0 -107 -27t-28 -91zM1147 461q0 432 -416 432q-133 0 -272 -59
v-773q108 -59 266 -59q186 0 304 124.5t118 334.5z" />
    <glyph glyph-name="afii10046" unicode="&#x42c;" horiz-adv-x="1423" 
d="M459 1350v-504q155 59 321 59q127 0 225.5 -24.5t160.5 -64.5t102.5 -97.5t56.5 -118.5t16 -131q0 -68 -17 -132.5t-60.5 -128.5t-109 -111.5t-170 -77t-236.5 -29.5q-44 0 -158 5t-156 5h-340v12h66q72 0 105.5 28t33.5 91v1219q0 64 -30.5 91t-108.5 27h-66v13h570v-13
h-70q-79 0 -107 -27t-28 -91zM1165 461q0 432 -417 432q-148 0 -289 -59v-773q108 -59 280 -59q187 0 306.5 124.5t119.5 334.5z" />
    <glyph glyph-name="afii10047" unicode="&#x42d;" horiz-adv-x="1490" 
d="M1370 797q0 -405 -195 -615.5t-544 -210.5q-227 0 -377 86.5t-150 206.5q0 63 33.5 93t79.5 30t71 -28t25 -64t-20.5 -73.5t-20.5 -63.5q0 -54 61 -95.5t140.5 -60t157.5 -18.5q82 0 152 16.5t122.5 44.5t95.5 69.5t72.5 87t51.5 101.5t35 108.5t21 112.5t10.5 109
t2.5 102v29h-236q-113 0 -173 -1t-159.5 -8.5t-201.5 -23.5v78q260 -33 534 -33h236v49q0 50 -5.5 104.5t-21 122t-39.5 129t-65 121t-93 103t-127 70t-165 26.5q-162 0 -300.5 -86.5t-191.5 -206.5q0 -5 -6 -46t-6 -46h-12l26 365h13l-2 -80q112 58 245 85t234 27
q137 0 251.5 -38.5t195 -105.5t136.5 -158t82.5 -195.5t26.5 -218.5z" />
    <glyph glyph-name="afii10048" unicode="&#x42e;" horiz-adv-x="2422" 
d="M2302 743q0 -98 -22.5 -198t-79 -205t-140 -185.5t-218 -132t-300.5 -51.5q-165 0 -298 50t-217 129.5t-140.5 185.5t-79.5 212t-23 214h-325v-631q0 -70 29 -94.5t104 -24.5h70v-12h-568v12h68q80 0 108.5 24.5t28.5 94.5v1219q0 66 -29.5 92t-107.5 26h-68v13h568v-13
h-70q-76 0 -104.5 -24t-28.5 -94v-576h327q4 110 33 213t89 199.5t145 168.5t211 115t278 43q161 0 293 -47t217 -123t143 -178t82.5 -207t24.5 -215zM2126 743q0 163 -39 301.5t-112 240t-184 159t-249 57.5q-277 0 -429 -204t-152 -554q0 -118 23 -228.5t71 -207
t116 -168.5t163.5 -113.5t207.5 -41.5q113 0 209.5 41.5t164.5 113.5t116 168.5t71 207t23 228.5z" />
    <glyph glyph-name="afii10049" unicode="&#x42f;" horiz-adv-x="1513" 
d="M1417 0h-567v12h68q88 0 112.5 25t24.5 94v619q-140 -6 -233 -42.5t-163 -123.5q-13 -16 -24 -31.5t-23 -36.5l-18 -31.5t-19 -38t-15.5 -33.5t-17.5 -39.5t-16 -35.5q-27 -55 -41 -84t-40 -75t-44 -70t-46 -55t-54.5 -46t-60.5 -26t-72 -11q-37 0 -66 12t-45 29t-27 41
t-15 42.5t-5 39.5h13q4 -50 24 -88.5t59 -38.5q41 0 77 43.5t85 163.5q42 100 76 160q61 111 176.5 206t274.5 136v6q-1 0 -42 -2t-61 -2q-79 1 -151 16t-136 47.5t-111 80t-74 116t-27 151.5q0 34 6 66.5t22 70.5t40.5 71t66 64t94 53t128 35t165.5 13q68 0 223 -11
t221 -11h260v-13h-69q-80 0 -108 -26t-28 -92v-1219q0 -64 28 -91.5t108 -27.5h67v-12zM1055 762v674q-121 55 -269 55q-85 0 -159.5 -22.5t-132.5 -66t-91.5 -115t-33.5 -163.5q0 -182 101 -281.5t300 -99.5q30 0 172 9q61 3 113 10z" />
    <glyph glyph-name="afii10065" unicode="&#x430;" horiz-adv-x="962" 
d="M868 14q27 0 49.5 28.5t32.5 80.5h13q-13 -81 -50.5 -113.5t-95.5 -32.5q-149 0 -149 222q-66 -71 -127 -118.5t-111.5 -68.5t-85 -28t-70.5 -7q-113 0 -171 57t-58 148q0 272 565 381l58 10v111q0 161 -56.5 237t-203.5 76q-69 0 -120.5 -27t-51.5 -81q0 -20 8 -40.5
t8 -37.5q0 -34 -20 -56t-58 -22q-31 0 -51.5 23t-20.5 59q0 77 92 136t226 59q78 0 141.5 -15.5t118.5 -50.5t86 -101t31 -159v-549q0 -121 71 -121zM668 217v344q-103 -19 -180.5 -43.5t-147 -64.5t-106.5 -101.5t-37 -142.5q0 -91 46 -134.5t119 -43.5q70 0 157.5 59
t148.5 127z" />
    <glyph glyph-name="afii10066" unicode="&#x431;" horiz-adv-x="1056" 
d="M1006 516q0 -107 -31.5 -198.5t-82 -153t-115.5 -105t-131.5 -63t-129.5 -19.5q-59 0 -121 21t-124.5 68t-111 115t-78.5 171t-30 226q0 231 29.5 366t107.5 232q38 47 84.5 85t114.5 73.5t114.5 56t145.5 59.5t146 59q34 14 55 41t26 56h13q9 -125 -64 -191
q-13 -12 -27 -23t-33 -22t-32.5 -19t-40 -19t-39 -16.5t-46.5 -18t-45.5 -16.5t-52.5 -18t-52 -18q-122 -43 -198 -94t-124 -145q-27 -54 -43 -146.5t-18 -187.5h12q29 86 79 151t100 99.5t106.5 55.5t92 26.5t62.5 5.5q158 0 268.5 -66t162 -175.5t51.5 -252.5zM854 516
q0 96 -15 173t-37 126t-55 85t-61.5 54t-64 28.5t-55.5 12.5t-42 2q-77 0 -136.5 -34.5t-94 -87t-56 -123t-29 -133t-7.5 -127.5q0 -32 1 -57t7 -80.5t17.5 -98.5t36 -95.5t58 -87.5t87 -59t120.5 -24q65 0 117 23t85.5 57.5t58 85.5t36.5 96.5t19 102t8.5 89.5t1.5 72z" />
    <glyph glyph-name="afii10067" unicode="&#x432;" horiz-adv-x="1030" 
d="M643 539v-7q137 -8 225 -78t88 -188q0 -110 -97.5 -188t-260.5 -78h-565v12h59q67 0 86 16t19 81v768q0 56 -21 76t-84 20h-59v12h532q183 0 268 -56t85 -151q0 -53 -24.5 -97.5t-64.5 -73.5t-88 -46.5t-98 -21.5zM776 774q0 52 -21.5 91t-51 59t-70 32t-68.5 14.5
t-57 2.5q-180 0 -180 -101v-333h194q132 0 193 56t61 179zM805 270q0 256 -291 256h-186v-420q0 -25 7 -42.5t18 -27.5t31 -15.5t40 -7t51 -1.5q29 0 49 0.5t57.5 6t64 14.5t59 28t52.5 45.5t34 68.5t14 95z" />
    <glyph glyph-name="afii10068" unicode="&#x433;" horiz-adv-x="833" 
d="M420 973q-20 0 -32 -2t-28.5 -9t-25 -25.5t-8.5 -47.5v-780q0 -56 21.5 -76.5t82.5 -20.5h59v-12h-456v12h61q63 0 83 20t20 77v768q0 58 -19.5 77t-83.5 19h-61v12h776q2 -42 7 -116t7 -113h-12l-10 100q-90 117 -381 117z" />
    <glyph glyph-name="afii10069" unicode="&#x434;" horiz-adv-x="1073" 
d="M1053 -272h-13v65q0 113 -78.5 160t-222.5 47h-405q-164 0 -232.5 -53.5t-68.5 -153.5v-65h-13v284h68q55 0 105.5 59t87.5 162q36 98 61 267q31 198 31 327q0 23 -1.5 39t-8 38t-19 35.5t-36 23.5t-56.5 10h-39v12h829v-12h-59q-62 0 -83 -19.5t-21 -74.5v-773
q0 -48 20.5 -71t77.5 -23h76v-284zM750 94v799q0 80 -107 80h-88q-32 0 -51 -1.5t-38.5 -8t-29.5 -17.5t-20 -31.5t-14.5 -49.5t-8.5 -72q-16 -191 -33 -301q-30 -182 -69 -279q-53 -148 -129 -201h495q27 0 39.5 1.5t27.5 8.5t20.5 24.5t5.5 47.5z" />
    <glyph glyph-name="afii10070" unicode="&#x435;" horiz-adv-x="931" 
d="M498 1010q94 0 169 -37t120 -99t68.5 -136t25.5 -154h-678q0 -142 20.5 -248.5t51.5 -166.5t76.5 -96t86.5 -47.5t90 -11.5q204 0 332 203l10 -6q-137 -234 -381 -234q-58 0 -115.5 14.5t-117 51.5t-104 93t-73 146.5t-28.5 204.5q0 239 119.5 381t327.5 142zM203 596
h534q0 111 -26 199t-85.5 145t-144.5 57q-252 0 -278 -401z" />
    <glyph glyph-name="afii10072" unicode="&#x436;" horiz-adv-x="1583" 
d="M227 987q-26 0 -26 -29q0 -5 5 -22.5t5 -32.5q0 -20 -18.5 -35.5t-47.5 -15.5q-33 0 -50 22.5t-17 53.5q0 35 26 58.5t74 23.5q39 0 68 -13q21 -11 39.5 -30.5t33.5 -48.5t24 -48.5t22 -54t16 -41.5q16 -39 28.5 -66t34 -62t44 -56t55 -36t69.5 -15h115v340q0 66 -18 81
t-86 15h-60v10h457v-10h-59q-68 0 -86.5 -15.5t-18.5 -80.5v-340h115q37 0 69.5 15t55 36t44 56t34 62t28.5 66q3 7 16 41.5t22 54t24 48.5t33.5 48.5t39.5 30.5q29 13 68 13q48 0 74 -23.5t26 -58.5q0 -31 -17 -53.5t-50 -22.5q-29 0 -47.5 15.5t-18.5 35.5q0 15 5 32.5
t5 22.5q0 29 -26 29q-25 0 -53.5 -38t-44.5 -74t-27 -70q-20 -55 -34.5 -87.5t-40 -76.5t-58.5 -70t-74 -36v-7q93 -16 168 -73q34 -26 62 -59t52 -76.5t36.5 -71t33.5 -77.5q5 -13 8 -19q25 -65 49.5 -101.5t57.5 -36.5q56 0 70 109h12q-4 -73 -38.5 -109.5t-88.5 -36.5
q-82 0 -141.5 61t-106.5 177l-61 150q-47 103 -125 147q-27 14 -86 14h-70v-417q0 -51 21.5 -74t83.5 -23h59v-12h-457v12h60q63 0 83.5 21.5t20.5 75.5v417h-70q-59 0 -86 -14q-78 -44 -125 -147l-61 -150q-47 -116 -106.5 -177t-141.5 -61q-54 0 -88.5 36.5t-38.5 109.5
h13q14 -109 69 -109q33 0 57.5 36.5t49.5 101.5q3 6 8 19q21 50 34 78t36.5 71t51.5 76t62 59q75 57 168 73v7q-41 10 -74 36t-58.5 70t-40 76.5t-34.5 87.5q-11 34 -27 70t-44.5 74t-53.5 38z" />
    <glyph glyph-name="afii10073" unicode="&#x437;" horiz-adv-x="907" 
d="M543 547v-6q53 -5 102.5 -22.5t93.5 -48t70.5 -79.5t26.5 -110q0 -57 -19 -104.5t-49 -78t-70.5 -54t-78.5 -36t-79 -20t-66 -9.5t-44 -2q-196 0 -292.5 57t-96.5 136q0 94 80 94q78 0 78 -80q0 -16 -9.5 -41.5t-9.5 -48.5q0 -42 55.5 -73t163.5 -31q76 0 133 26.5
t89 70.5t47.5 94.5t15.5 105.5q0 61 -16 107t-41 71.5t-61.5 41t-70.5 20.5t-75 5q-43 0 -101 -8v27q46 -6 121 -6q70 0 111 24q100 50 100 205q0 63 -19.5 109t-52 70t-68 35t-75.5 11q-61 0 -117.5 -23.5t-96 -59.5t-65.5 -77t-34 -79v-12h-12q1 24 6 106t6 131h12v-51
q170 78 301 78q175 0 269 -64t94 -166q0 -98 -71 -159.5t-185 -75.5z" />
    <glyph glyph-name="afii10074" unicode="&#x438;" horiz-adv-x="1171" 
d="M1139 0h-437v12h39q61 0 83 21.5t22 75.5v710l-520 -667v-43q0 -52 20 -74.5t82 -22.5h41v-12h-436v12h59q59 0 82 22t23 75v768q0 54 -21 75t-84 21h-59v12h436v-12h-41q-63 0 -82.5 -21t-19.5 -75v-699l520 668v31q0 55 -19.5 75.5t-83.5 20.5h-41v12h437v-12h-58
q-64 0 -85 -20.5t-21 -75.5v-768q0 -54 21 -75.5t83 -21.5h60v-12z" />
    <glyph glyph-name="afii10075" unicode="&#x439;" horiz-adv-x="1171" 
d="M1139 0h-437v12h39q61 0 83 21.5t22 75.5v710l-520 -667v-43q0 -52 20 -74.5t82 -22.5h41v-12h-436v12h59q59 0 82 22t23 75v768q0 54 -21 75t-84 21h-59v12h436v-12h-41q-63 0 -82.5 -21t-19.5 -75v-699l520 668v31q0 55 -19.5 75.5t-83.5 20.5h-41v12h437v-12h-58
q-64 0 -85 -20.5t-21 -75.5v-768q0 -54 21 -75.5t83 -21.5h60v-12zM895 1376q0 -88 -84 -161.5t-225 -73.5t-225.5 73.5t-84.5 161.5q0 41 25.5 65.5t63.5 24.5q29 0 47 -19t18 -46q0 -35 -22 -62q-31 -42 -31 -65q0 -55 55 -88t154 -33t154 33t55 88q0 22 -21 53
q-33 42 -33 74q0 27 19 46t49 19q38 0 62 -24t24 -66z" />
    <glyph glyph-name="afii10076" unicode="&#x43a;" horiz-adv-x="1081" 
d="M854 987q-25 0 -53.5 -38t-44.5 -74t-27 -70q-20 -55 -34.5 -87.5t-40 -76.5t-58.5 -70t-74 -36v-7q93 -16 168 -73q36 -28 65 -62t55.5 -84.5t36.5 -73t36 -83.5q25 -66 49 -102t57 -36q56 0 70 109h12q-4 -73 -38.5 -109.5t-88.5 -36.5q-82 0 -141.5 61t-106.5 177
l-61 150q-47 103 -125 147q-27 14 -86 14h-98v-417q0 -51 21 -74t83 -23h59v-12h-456v12h59q63 0 84 21.5t21 75.5v770q0 65 -18.5 80.5t-86.5 15.5h-59v10h456v-10h-59q-68 0 -86 -15t-18 -81v-340h143q37 0 69.5 15t55 36t44 56t34 62t28.5 66q2 5 16 41t22.5 54.5t24 48
t34 49t39.5 30.5q29 13 67 13q48 0 74.5 -23.5t26.5 -58.5q0 -31 -17.5 -53.5t-50.5 -22.5q-29 0 -47.5 15.5t-18.5 35.5q0 15 5.5 32.5t5.5 22.5q0 29 -27 29z" />
    <glyph glyph-name="afii10077" unicode="&#x43b;" horiz-adv-x="1067" 
d="M1034 0h-456v12h59q64 0 84 19t20 75v781q0 52 -19 69t-58 17h-132q-60 0 -83 -35t-33 -119q-5 -43 -13.5 -147t-17.5 -172q-20 -172 -39 -246q-39 -154 -92.5 -213t-136.5 -59q-68 0 -102.5 35t-34.5 81q0 39 21.5 62.5t57.5 23.5q51 0 66 -45q2 -7 2 -59
q0 -31 14 -47.5t39 -16.5q43 0 86.5 75t71.5 198q20 98 31 198q20 173 20 353q0 133 -125 133h-37v12h807v-12h-63q-64 0 -82.5 -18.5t-18.5 -75.5v-770q0 -54 20.5 -75.5t82.5 -21.5h61v-12z" />
    <glyph glyph-name="afii10078" unicode="&#x43c;" horiz-adv-x="1314" 
d="M1282 0h-457v12h60q64 0 84 19.5t20 77.5v817l-379 -752h-16l-379 752l-2 -578q0 -144 18 -216t58 -120h71v-12h-323v12h72q79 107 84 336l10 529q0 52 -19 74t-80 22h-71v12h295l334 -672q51 109 169 338t168 334h283v-12h-63q-62 0 -81.5 -19.5t-19.5 -76.5v-768
q0 -58 19.5 -77.5t81.5 -19.5h63v-12z" />
    <glyph glyph-name="afii10079" unicode="&#x43d;" horiz-adv-x="1161" 
d="M1128 0h-438v12h45q61 0 81 19.5t20 77.5v417h-510v-417q0 -58 20 -77.5t82 -19.5h41v-12h-436v12h59q63 0 84 20t21 77v768q0 58 -20.5 77t-84.5 19h-59v12h436v-12h-41q-64 0 -83 -18.5t-19 -77.5v-338h510v338q0 58 -18.5 77t-82.5 19h-43v12h436v-12h-59
q-63 0 -83.5 -19t-20.5 -77v-768q0 -56 21 -76.5t83 -20.5h59v-12z" />
    <glyph glyph-name="afii10080" unicode="&#x43e;" 
d="M1010 492q0 -229 -136 -372t-344 -143q-209 0 -344 141.5t-135 373.5q0 251 132.5 384.5t346.5 133.5q105 0 191 -31t151.5 -92.5t101.5 -162t36 -232.5zM858 492q0 139 -27.5 241t-75 157.5t-103.5 81t-122 25.5q-53 0 -99 -15t-88.5 -51.5t-73 -93t-48.5 -144.5
t-18 -201q0 -139 27 -240t74.5 -156.5t103 -80.5t122.5 -25q66 0 122 25t103.5 80.5t75 156.5t27.5 240z" />
    <glyph glyph-name="afii10081" unicode="&#x43f;" horiz-adv-x="1150" 
d="M1118 0h-436v12h41q65 0 83.5 16t18.5 81v768q0 65 -19 80.5t-85 15.5h-293q-68 0 -85 -15t-17 -81v-768q0 -66 17 -81.5t85 -15.5h41v-12h-436v12h59q67 0 86 16t19 81v768q0 65 -19 80.5t-86 15.5h-59v12h1085v-12h-61q-66 0 -84.5 -15.5t-18.5 -80.5v-768
q0 -65 18.5 -81t84.5 -16h61v-12z" />
    <glyph glyph-name="afii10082" unicode="&#x440;" horiz-adv-x="1130" 
d="M928 489q0 247 -89.5 365.5t-254.5 118.5q-123 0 -258 -115v-790q83 -54 235 -54q161 0 264 124.5t103 350.5zM197 831q0 58 -28 74t-136 17v12q143 9 293 76v-140q57 57 137 98.5t170 41.5q63 0 122.5 -15t119.5 -52.5t104 -94.5t72 -147.5t28 -204.5q0 -143 -54 -259
t-163 -187t-256 -73q-162 0 -280 78v-407q0 -59 18.5 -78t83.5 -19h61v-12h-456v12h59q63 0 84 20t21 77v1183z" />
    <glyph glyph-name="afii10083" unicode="&#x441;" horiz-adv-x="901" 
d="M541 14q104 0 189 58.5t138 183.5l13 -4q-112 -275 -375 -275q-94 0 -176.5 34.5t-144.5 97.5t-98 159.5t-36 214.5q0 82 18 158t57 143.5t95 117.5t136.5 79t177.5 29q137 0 220 -49.5t83 -120.5q0 -47 -21.5 -69.5t-54.5 -22.5q-86 0 -86 90q0 8 3 29.5t3 33.5
q0 37 -42.5 66.5t-113.5 29.5q-53 0 -98.5 -15.5t-87.5 -52.5t-72 -94.5t-47.5 -147.5t-17.5 -204q0 -119 26.5 -211t73.5 -147t107 -83t131 -28z" />
    <glyph glyph-name="afii10084" unicode="&#x442;" horiz-adv-x="901" 
d="M514 899v-790q0 -65 18.5 -81t83.5 -16h62v-12h-457v12h64q67 0 83.5 15.5t16.5 81.5v790q0 74 -74 74q-75 0 -155.5 -25t-122.5 -86l-10 -106h-13q2 40 5 114t5 115h861q2 -40 5 -114t5 -115h-12l-13 106q-42 61 -122.5 86t-155.5 25q-74 0 -74 -74z" />
    <glyph glyph-name="afii10085" unicode="&#x443;" horiz-adv-x="1077" 
d="M1077 973h-14q-43 0 -66 -18.5t-45 -57.5q-36 -78 -75 -180l-150 -414q-77 -205 -143 -364q-7 -17 -29 -71t-32.5 -78t-29 -63.5t-35.5 -67.5t-36 -52q-71 -88 -178 -88q-71 0 -114.5 34.5t-43.5 92.5q0 38 23.5 60t54.5 22q34 0 56 -17.5t22 -52.5q0 -10 -1 -24.5
t-1 -24t2 -15.5q10 -38 61 -38q54 0 105 63q74 98 163 340l-409 922q-9 22 -16 34.5t-22 28t-39.5 22.5t-59.5 7h-25v12h434v-12h-59q-76 0 -76 -60q0 -21 12 -49l328 -755q252 687 252 768q0 96 -82 96h-49v12h317v-12z" />
    <glyph glyph-name="afii10086" unicode="&#x444;" horiz-adv-x="1554" 
d="M842 1614v-694q93 90 223 90q198 0 318 -140t120 -391q0 -137 -47 -250.5t-139.5 -182.5t-212.5 -69q-64 0 -134.5 21t-127.5 65v-417q0 -49 19.5 -72t84.5 -23h64v-12h-465v12h63q68 0 86.5 20.5t18.5 72.5v419q-57 -44 -127.5 -65t-134.5 -21q-120 0 -212.5 69
t-140 182.5t-47.5 250.5q0 251 120 391t318 140q131 0 224 -90v520q0 35 -9 51t-44.5 25t-110.5 10v12q179 14 293 76zM713 76v829q-43 40 -103 62t-121 22q-68 0 -120 -32.5t-83 -83t-50 -119.5t-26 -133t-7 -132q0 -475 323 -475q101 0 187 62zM842 905v-829
q86 -62 186 -62q324 0 324 475q0 68 -7 132t-26.5 133t-50 119.5t-83 83t-120.5 32.5q-133 0 -223 -84z" />
    <glyph glyph-name="afii10087" unicode="&#x445;" horiz-adv-x="1105" 
d="M1096 0h-488v12h70q39 0 62.5 15t23.5 45q0 27 -25 63l-227 326q-25 -35 -94 -124.5t-101 -135.5q-55 -82 -55 -117q0 -72 115 -72h24v-12h-391v12h41q42 0 86 31.5t111 108.5q19 21 90 108q81 101 166 211l-281 385q-31 42 -48 61.5t-51.5 36.5t-82.5 19v12h444v-12h-73
q-34 0 -48 -10t-14 -33q0 -22 25 -60l211 -307l65 84.5t66 87t49 69t39.5 67.5t11.5 47q0 55 -69 55h-58v12h348v-12h-22q-51 0 -96.5 -36t-143.5 -149l-182 -233l317 -446q59 -92 185 -97v-12z" />
    </font>
</defs>
</svg>
