<?xml version="1.0" standalone="no"?>
<!DOCTYPE svg PUBLIC "-//W3C//DTD SVG 1.1//EN" "http://www.w3.org/Graphics/SVG/1.1/DTD/svg11.dtd" >
<svg xmlns="http://www.w3.org/2000/svg" xmlns:xlink="http://www.w3.org/1999/xlink" version="1.1">
<metadata>
Created by FontForge 20170731 at Mon Nov  2 20:41:02 2020
 By Aleksey,,,
Copyright (c) 2015 Monotype Imaging Inc.  All rights reserved.
</metadata>
<defs>
<font id="NeueHaasUnicaW1G-Medium" horiz-adv-x="1204" >
  <font-face 
    font-family="Neue Haas Unica W1G Medium"
    font-weight="500"
    font-stretch="normal"
    units-per-em="2048"
    panose-1="2 11 6 4 3 2 6 2 2 3"
    ascent="1565"
    descent="-483"
    x-height="1040"
    cap-height="1458"
    bbox="-1024 -563 2327 2263"
    underline-thickness="102"
    underline-position="-307"
    unicode-range="U+0020-FEFF"
  />
<missing-glyph horiz-adv-x="1296" 
d="M309 1591h678q125 0 197.5 -73t72.5 -199v-1180q0 -126 -72.5 -199t-197.5 -73h-678q-126 0 -199 73t-73 199v1180q0 126 73 199t199 73zM987 1477h-678q-72 0 -113.5 -43t-41.5 -115v-1180q0 -72 41.5 -114.5t113.5 -42.5h678q72 0 114 42.5t42 114.5v1180q0 72 -42 115
t-114 43zM647 1325q165 0 262 -82.5t97 -222.5q0 -86 -31 -145t-125 -144q-84 -76 -109.5 -131t-25.5 -168h-178q-2 20 -2 60q0 117 28 180t119 151q67 65 86.5 102t19.5 91q0 62 -37 96.5t-104 34.5q-156 0 -162 -182h-213q4 176 101.5 268t273.5 92zM739 133h-227v209h227
v-209z" />
    <glyph glyph-name="f_f" unicode="ff" horiz-adv-x="1259" 
d="M1180 1294q-77 0 -113.5 -40t-36.5 -130v-84h201v-178h-201v-862h-231v862h-367v-862h-231v862h-176v178h176v111q0 160 80 241t235 81q46 0 123 -15v-172q-28 8 -57 8q-77 0 -113.5 -40t-36.5 -130v-84h367v111q0 160 80 241t235 81q48 0 121 -15v-172q-24 8 -55 8z" />
    <glyph glyph-name="f_f_i" unicode="ffi" horiz-adv-x="1792" 
d="M799 1040v111q0 160 80 241t235 81q48 0 121 -15v-172q-24 8 -55 8q-77 0 -113.5 -40t-36.5 -130v-84h201v-178h-201v-862h-231v862h-367v-862h-231v862h-176v178h176v111q0 160 80 241t235 81q46 0 123 -15v-172q-28 8 -57 8q-77 0 -113.5 -40t-36.5 -130v-84h367z
M1642 1458v-223h-233v223h233zM1409 1040h233v-1040h-233v1040z" />
    <glyph glyph-name="f_f_l" unicode="ffl" horiz-adv-x="1792" 
d="M799 1040v111q0 160 80 241t235 81q48 0 121 -15v-172q-24 8 -55 8q-77 0 -113.5 -40t-36.5 -130v-84h201v-178h-201v-862h-231v862h-367v-862h-231v862h-176v178h176v111q0 160 80 241t235 81q46 0 123 -15v-172q-28 8 -57 8q-77 0 -113.5 -40t-36.5 -130v-84h367z
M1642 1458v-1458h-233v1458h233z" />
    <glyph glyph-name="f_i" unicode="fi" horiz-adv-x="1193" 
d="M201 1040v111q0 160 80 241t235 81q46 0 123 -15v-172q-28 8 -57 8q-77 0 -113.5 -40t-36.5 -130v-84h201v-178h-201v-862h-231v862h-176v178h176zM1044 1458v-223h-233v223h233zM811 1040h233v-1040h-233v1040z" />
    <glyph glyph-name="f_l" unicode="fl" horiz-adv-x="1193" 
d="M201 1040v111q0 160 80 241t235 81q46 0 123 -15v-172q-28 8 -57 8q-77 0 -113.5 -40t-36.5 -130v-84h201v-178h-201v-862h-231v862h-176v178h176zM1044 1458v-1458h-233v1458h233z" />
    <glyph glyph-name=".notdef" horiz-adv-x="1296" 
d="M309 1591h678q125 0 197.5 -73t72.5 -199v-1180q0 -126 -72.5 -199t-197.5 -73h-678q-126 0 -199 73t-73 199v1180q0 126 73 199t199 73zM987 1477h-678q-72 0 -113.5 -43t-41.5 -115v-1180q0 -72 41.5 -114.5t113.5 -42.5h678q72 0 114 42.5t42 114.5v1180q0 72 -42 115
t-114 43zM647 1325q165 0 262 -82.5t97 -222.5q0 -86 -31 -145t-125 -144q-84 -76 -109.5 -131t-25.5 -168h-178q-2 20 -2 60q0 117 28 180t119 151q67 65 86.5 102t19.5 91q0 62 -37 96.5t-104 34.5q-156 0 -162 -182h-213q4 176 101.5 268t273.5 92zM739 133h-227v209h227
v-209z" />
    <glyph glyph-name=".null" horiz-adv-x="0" 
 />
    <glyph glyph-name="nonmarkingreturn" horiz-adv-x="682" 
 />
    <glyph glyph-name="space" unicode=" " horiz-adv-x="471" 
 />
    <glyph glyph-name="exclam" unicode="!" horiz-adv-x="614" 
d="M397 383h-182l-53 1075h289zM438 0h-264v244h264v-244z" />
    <glyph glyph-name="quotedbl" unicode="&#x22;" horiz-adv-x="827" 
d="M328 909h-170l-27 549h223zM670 909h-170l-27 549h223z" />
    <glyph glyph-name="numbersign" unicode="#" horiz-adv-x="1351" 
d="M1032 842l-47 -299h221l-26 -170h-222l-59 -373h-201l60 373h-262l-60 -373h-200l59 373h-223l26 170h224l47 299h-224l27 170h223l60 368h200l-59 -368h262l60 368h200l-59 -368h221l-27 -170h-221zM831 842h-262l-47 -299h262z" />
    <glyph glyph-name="dollar" unicode="$" horiz-adv-x="1189" 
d="M1110 377q0 -170 -119 -278.5t-323 -125.5v-176h-148v174q-213 19 -326.5 141t-113.5 339h227q0 -254 213 -293v458q-51 14 -87.5 26t-83.5 31.5t-80 40t-67 51.5t-55 66t-34 83t-13 104q0 167 113 271.5t307 119.5v156h148v-158q200 -19 302.5 -132t102.5 -321h-225
q0 230 -180 269v-420q58 -15 95 -26.5t88.5 -31.5t84 -41t69 -53t57.5 -70t34.5 -90t13.5 -114zM334 1036q0 -80 44 -121t142 -73v385q-90 -12 -138 -60.5t-48 -130.5zM668 573v-417q103 13 157 68.5t54 142.5q0 83 -50 126.5t-161 79.5z" />
    <glyph glyph-name="percent" unicode="%" horiz-adv-x="1814" 
d="M598 -61h-154l773 1503h153zM418 1411q157 0 241 -103t84 -294t-84.5 -294.5t-240.5 -103.5q-157 0 -241.5 103.5t-84.5 294.5t84.5 294t241.5 103zM418 1266q-135 0 -135 -252t135 -252t135 252t-135 252zM1397 764q157 0 241 -103t84 -294t-84.5 -294.5t-240.5 -103.5
q-157 0 -241.5 103.5t-84.5 294.5t84.5 294t241.5 103zM1397 618q-135 0 -135 -251q0 -252 135 -252q137 0 137 252q0 251 -137 251z" />
    <glyph glyph-name="ampersand" unicode="&#x26;" horiz-adv-x="1521" 
d="M1202 0l-137 139q-79 -81 -196.5 -125.5t-250.5 -44.5q-243 0 -380.5 114.5t-137.5 307.5q0 287 312 426q-91 96 -124.5 166t-33.5 168q0 152 107 245t282 93t279 -89.5t104 -238.5q0 -122 -61 -213t-205 -174l307 -313q78 144 78 358h233q-3 -310 -151 -518l295 -301
h-320zM643 1294q-74 0 -117 -41t-43 -114q0 -58 29 -107t111 -133q180 109 180 244q0 68 -44 109.5t-116 41.5zM639 172q160 0 287 109l-385 391q-106 -58 -149.5 -121t-43.5 -145q0 -102 78.5 -168t212.5 -66z" />
    <glyph glyph-name="quotesingle" unicode="'" horiz-adv-x="485" 
d="M328 909h-170l-27 549h223z" />
    <glyph glyph-name="parenleft" unicode="(" horiz-adv-x="634" 
d="M377 1518h196q-119 -230 -173 -445.5t-54 -464.5q0 -248 54 -463.5t173 -445.5h-196q-145 213 -214 430.5t-69 478.5q0 262 69 481t214 429z" />
    <glyph glyph-name="parenright" unicode=")" horiz-adv-x="634" 
d="M61 1518h197q145 -210 214 -429t69 -481q0 -261 -69 -478.5t-214 -430.5h-197q120 229 174 444.5t54 464.5q0 250 -54 465.5t-174 444.5z" />
    <glyph glyph-name="asterisk" unicode="*" horiz-adv-x="854" 
d="M485 1182l254 114l56 -176l-273 -51l187 -201l-148 -108l-135 241l-135 -241l-148 108l187 201l-271 51l56 176l254 -114l-33 276h182z" />
    <glyph glyph-name="plus" unicode="+" horiz-adv-x="1159" 
d="M672 741h350v-186h-350v-348h-185v348h-350v186h350v351h185v-351z" />
    <glyph glyph-name="comma" unicode="," horiz-adv-x="495" 
d="M383 0l-129 -324h-145l94 324h-90v291h270v-291z" />
    <glyph glyph-name="hyphen" unicode="-" horiz-adv-x="634" 
d="M573 502h-512v192h512v-192z" />
    <glyph glyph-name="period" unicode="." horiz-adv-x="495" 
d="M383 0h-270v291h270v-291z" />
    <glyph glyph-name="slash" unicode="/" horiz-adv-x="968" 
d="M254 -182h-193l611 1708h192z" />
    <glyph glyph-name="zero" unicode="0" horiz-adv-x="1189" 
d="M596 1411q253 0 388.5 -186.5t135.5 -534.5t-135.5 -534.5t-388.5 -186.5q-255 0 -390.5 186.5t-135.5 534.5t135.5 534.5t390.5 186.5zM596 1204q-133 0 -203.5 -132.5t-70.5 -381.5q0 -251 70.5 -384.5t203.5 -133.5q132 0 202 133.5t70 384.5q0 249 -70 381.5
t-202 132.5z" />
    <glyph glyph-name="one" unicode="1" horiz-adv-x="1189" 
d="M768 0h-242v971h-321v176q168 0 248.5 54t99.5 179h215v-1380z" />
    <glyph glyph-name="two" unicode="2" horiz-adv-x="1189" 
d="M594 1411q211 0 337 -106t126 -283q0 -72 -18.5 -133t-47.5 -106.5t-79.5 -90.5t-98.5 -77t-121 -74q-131 -77 -199.5 -134t-93 -102t-26.5 -104h717v-201h-996q-2 16 -2 43q0 84 10 148t36 127.5t71.5 117.5t115.5 109.5t169 113.5q69 40 112 67.5t85 62t64.5 66t36 71
t13.5 86.5q0 88 -56.5 141t-154.5 53q-231 0 -240 -243h-243q6 215 134 331.5t349 116.5z" />
    <glyph glyph-name="three" unicode="3" horiz-adv-x="1189" 
d="M592 1411q217 0 344 -104.5t127 -278.5q0 -119 -58 -194.5t-182 -120.5v-4q134 -45 198 -127t64 -215q0 -180 -135 -289t-356 -109q-243 0 -374.5 121t-131.5 344h246q0 -129 65.5 -195.5t194.5 -66.5q110 0 178 56.5t68 148.5q0 217 -303 217h-50v199h50q131 0 207.5 58
t76.5 155q0 91 -65 146.5t-172 55.5q-114 0 -176 -63t-62 -187h-244q0 213 130.5 333t359.5 120z" />
    <glyph glyph-name="four" unicode="4" horiz-adv-x="1189" 
d="M1145 332h-211v-332h-242v332h-657v209l575 839h324v-854h211v-194zM262 526h436v179q0 188 11 485h-4q-84 -137 -297 -455z" />
    <glyph glyph-name="five" unicode="5" horiz-adv-x="1189" 
d="M1018 1180h-629l-37 -375h4q48 53 120.5 80.5t154.5 27.5q204 0 329 -125.5t125 -330.5q0 -222 -139 -355t-368 -133q-215 0 -343.5 109t-128.5 295h244q3 -94 67.5 -147.5t160.5 -53.5q122 0 189 72t67 202q0 129 -67 200t-181 71q-90 0 -150 -45t-80 -125l-239 16
l78 817h823v-200z" />
    <glyph glyph-name="six" unicode="6" horiz-adv-x="1189" 
d="M639 1411q195 0 311.5 -105.5t130.5 -291.5h-245q-13 95 -66 144.5t-141 49.5q-135 0 -216 -115t-87 -352h4q125 160 327 160q199 0 322 -125.5t123 -326.5q0 -215 -138 -347.5t-358 -132.5q-247 0 -378.5 170.5t-131.5 503.5q0 371 142.5 569.5t400.5 198.5zM610 711
q-110 0 -176.5 -75.5t-66.5 -197.5t63.5 -194t175.5 -72q111 0 177.5 73t66.5 197q0 122 -65.5 195.5t-174.5 73.5z" />
    <glyph glyph-name="seven" unicode="7" horiz-adv-x="1189" 
d="M1081 1380v-211q-160 -229 -283 -530t-184 -639h-266q81 370 214 673t280 501h-754v206h993z" />
    <glyph glyph-name="eight" unicode="8" horiz-adv-x="1189" 
d="M596 1411q209 0 342 -105t133 -274q0 -113 -65.5 -194.5t-180.5 -118.5v-4q130 -37 202.5 -126t72.5 -216q0 -185 -138.5 -294.5t-365.5 -109.5q-229 0 -367.5 109.5t-138.5 294.5q0 127 72.5 216t202.5 126v4q-115 37 -180.5 118.5t-65.5 194.5q0 169 133.5 274
t343.5 105zM596 1210q-109 0 -175.5 -52.5t-66.5 -141.5q0 -95 65 -151t177 -56q110 0 175 56t65 151q0 89 -66 141.5t-174 52.5zM596 612q-118 0 -189 -61t-71 -158q0 -101 70 -160t190 -59q119 0 189.5 59t70.5 160q0 97 -72 158t-188 61z" />
    <glyph glyph-name="nine" unicode="9" horiz-adv-x="1189" 
d="M522 -31q-193 0 -310.5 106t-131.5 292h246q14 -95 67 -145t142 -50q135 0 216 115t87 352h-4q-125 -160 -328 -160q-199 0 -322 126t-123 327q0 215 137 347t359 132q246 0 377 -170.5t131 -503.5q0 -371 -142 -569.5t-401 -198.5zM553 670q109 0 176.5 75.5t67.5 196.5
q0 122 -65 194t-175 72q-113 0 -178.5 -73t-65.5 -197q0 -122 65 -195t175 -73z" />
    <glyph glyph-name="colon" unicode=":" horiz-adv-x="495" 
d="M383 750h-270v290h270v-290zM383 0h-270v291h270v-291z" />
    <glyph glyph-name="semicolon" unicode=";" horiz-adv-x="495" 
d="M383 750h-270v290h270v-290zM383 0l-129 -324h-145l94 324h-90v291h270v-291z" />
    <glyph glyph-name="less" unicode="&#x3c;" horiz-adv-x="1159" 
d="M1022 922l-668 -271v-4l668 -270v-205l-885 369v217l885 368v-204z" />
    <glyph glyph-name="equal" unicode="=" horiz-adv-x="1159" 
d="M1022 737h-885v187h885v-187zM1022 373h-885v186h885v-186z" />
    <glyph glyph-name="greater" unicode="&#x3e;" horiz-adv-x="1159" 
d="M1022 758v-217l-885 -369v205l668 270v4l-668 271v204z" />
    <glyph glyph-name="question" unicode="?" horiz-adv-x="1089" 
d="M551 1487q212 0 336.5 -101.5t124.5 -273.5q0 -107 -43 -181t-170 -181q-79 -67 -115.5 -116t-51 -109.5t-14.5 -164.5h-202q-2 23 -2 64q0 155 38.5 237.5t163.5 192.5q94 85 122 133.5t28 118.5q0 80 -57.5 128t-157.5 48q-232 0 -244 -235h-241q7 217 132 328.5
t353 111.5zM647 0h-264v244h264v-244z" />
    <glyph glyph-name="at" unicode="@" horiz-adv-x="1781" 
d="M913 1432q355 0 568 -208t213 -552q0 -130 -33 -232.5t-89.5 -165t-128 -95t-153.5 -32.5q-201 0 -239 177h-4q-86 -177 -275 -177q-142 0 -223 104t-82 296q1 228 110.5 371t280.5 143q165 0 227 -150h5q18 103 24 129h191q-36 -172 -60 -342t-24 -252q0 -72 25 -104.5
t77 -32.5q91 0 153 93t62 270q0 275 -170.5 440.5t-454.5 165.5q-158 0 -286 -55t-211 -151.5t-127.5 -225.5t-44.5 -279q0 -300 173 -471.5t466 -171.5q269 0 448 111l70 -135q-221 -129 -518 -129q-365 0 -580 212.5t-215 583.5q0 142 35.5 271.5t106 237.5t169 187.5
t230.5 124t284 44.5zM891 883q-95 0 -156 -89t-61 -241q0 -109 40.5 -167t114.5 -58q90 0 150.5 90t60.5 262q0 97 -38.5 150t-110.5 53z" />
    <glyph glyph-name="A" unicode="A" horiz-adv-x="1406" 
d="M1006 395h-605l-135 -395h-258l531 1458h329l531 -1458h-258zM932 608l-39 115q-118 349 -188 580h-5q-107 -352 -186 -580l-39 -115h457z" />
    <glyph glyph-name="B" unicode="B" horiz-adv-x="1306" 
d="M180 1458h502q253 0 381.5 -100.5t128.5 -272.5q0 -248 -248 -340v-4q281 -65 281 -342q0 -184 -133 -291.5t-369 -107.5h-543v1458zM426 1255v-415h242q149 0 217.5 52.5t68.5 156.5t-65.5 155t-208.5 51h-254zM426 643v-438h260q149 0 219 53.5t70 163.5t-72.5 165.5
t-232.5 55.5h-244z" />
    <glyph glyph-name="C" unicode="C" horiz-adv-x="1423" 
d="M735 1489q263 0 422 -147.5t170 -383.5h-248q-15 145 -106.5 228.5t-237.5 83.5q-186 0 -292.5 -144.5t-106.5 -396.5t105 -396.5t288 -144.5q146 0 239 84t113 234h252q-22 -251 -182 -394t-422 -143q-301 0 -474 203.5t-173 556.5q0 354 174.5 557t478.5 203z" />
    <glyph glyph-name="D" unicode="D" horiz-adv-x="1492" 
d="M180 1458h467q366 0 565 -189.5t199 -539.5t-199 -539.5t-565 -189.5h-467v1458zM424 1245v-1032h219q255 0 384.5 130.5t129.5 385.5t-129.5 385.5t-384.5 130.5h-219z" />
    <glyph glyph-name="E" unicode="E" horiz-adv-x="1280" 
d="M1155 1245h-729v-395h684v-211h-684v-426h750v-213h-996v1458h975v-213z" />
    <glyph glyph-name="F" unicode="F" horiz-adv-x="1185" 
d="M1124 1245h-698v-448h649v-211h-649v-586h-246v1458h944v-213z" />
    <glyph glyph-name="G" unicode="G" horiz-adv-x="1509" 
d="M758 1489q257 0 414.5 -128.5t179.5 -348.5h-262q-22 125 -107.5 191.5t-224.5 66.5q-195 0 -308.5 -146.5t-113.5 -400.5q0 -256 110.5 -403.5t301.5 -147.5q173 0 271 103t99 309h-373v204h603v-788h-211v180h-4q-59 -96 -175.5 -151.5t-265.5 -55.5
q-281 0 -445.5 200.5t-164.5 549.5q0 356 181 561t495 205z" />
    <glyph glyph-name="H" unicode="H" horiz-adv-x="1523" 
d="M1341 0h-243v651h-672v-651h-246v1458h246v-594h672v594h243v-1458z" />
    <glyph glyph-name="I" unicode="I" horiz-adv-x="606" 
d="M426 0h-246v1458h246v-1458z" />
    <glyph glyph-name="J" unicode="J" horiz-adv-x="765" 
d="M596 1458v-1016q0 -232 -110 -343t-339 -111q-62 0 -116 14v211q44 -8 92 -8q119 0 173 61t54 219v973h246z" />
    <glyph glyph-name="K" unicode="K" horiz-adv-x="1318" 
d="M662 764l649 -764h-318l-563 702h-4v-702h-246v1458h246v-649h4l533 649h294z" />
    <glyph glyph-name="L" unicode="L" horiz-adv-x="1163" 
d="M426 213h717v-213h-963v1458h246v-1245z" />
    <glyph glyph-name="M" unicode="M" horiz-adv-x="1964" 
d="M1784 0h-238v733q0 308 8 553h-4q-66 -221 -176 -549l-252 -737h-280l-252 737q-110 328 -176 549h-4q8 -245 8 -553v-733h-238v1458h395l236 -694q98 -290 168 -549h4q77 274 170 549l236 694h395v-1458z" />
    <glyph glyph-name="N" unicode="N" horiz-adv-x="1568" 
d="M1386 0h-352l-315 610q-178 347 -309 627h-4q12 -332 12 -664v-573h-238v1458h355l313 -610q178 -347 309 -627h4q-10 368 -10 664v573h235v-1458z" />
    <glyph glyph-name="O" unicode="O" horiz-adv-x="1515" 
d="M758 1489q313 0 494.5 -204t181.5 -556t-181.5 -556t-494.5 -204t-494.5 204t-181.5 556t181.5 556t494.5 204zM758 1270q-195 0 -308.5 -145.5t-113.5 -395.5t113.5 -395.5t308.5 -145.5t308.5 145.5t113.5 395.5t-113.5 395.5t-308.5 145.5z" />
    <glyph glyph-name="P" unicode="P" horiz-adv-x="1282" 
d="M180 1458h527q252 0 387 -122.5t135 -331.5q0 -211 -135 -334t-387 -123h-281v-547h-246v1458zM426 1251v-497h252q152 0 225.5 65t73.5 185q0 119 -73.5 183t-225.5 64h-252z" />
    <glyph glyph-name="Q" unicode="Q" horiz-adv-x="1515" 
d="M1434 729q0 -347 -179 -551l164 -182l-137 -129l-172 188q-153 -86 -350 -86q-314 0 -496 204t-182 556t182 556t496 204q312 0 493 -204t181 -556zM764 178q107 0 192 45l-198 219l141 131l197 -219q92 143 92 369q0 252 -114 399.5t-310 147.5q-198 0 -313 -147.5
t-115 -399.5t115 -398.5t313 -146.5z" />
    <glyph glyph-name="R" unicode="R" horiz-adv-x="1337" 
d="M180 1458h502q263 0 391.5 -104t128.5 -299q0 -136 -72.5 -233t-197.5 -128v-4q78 -26 122.5 -83.5t94.5 -194.5l149 -412h-268l-123 367q-43 124 -100.5 171.5t-169.5 47.5h-211v-586h-246v1458zM426 1255v-469h244q147 0 216.5 65t67.5 179q0 225 -299 225h-229z" />
    <glyph glyph-name="S" unicode="S" horiz-adv-x="1269" 
d="M604 1489q265 0 401 -122t136 -357h-248q0 137 -75.5 207.5t-217.5 70.5q-118 0 -187 -52.5t-69 -141.5q0 -94 72.5 -140t261.5 -92q53 -13 89.5 -23t84 -25t79.5 -29.5t69.5 -35.5t62 -43.5t49 -52.5t39 -64.5t23 -78.5t8.5 -94q0 -202 -149.5 -324.5t-395.5 -122.5
q-267 0 -417 132t-150 380h252q0 -155 81.5 -232t235.5 -77q136 0 212.5 59t76.5 162q0 37 -8 64.5t-29 50t-43.5 38t-65.5 31t-81 26t-103 26.5q-56 14 -91 23.5t-83.5 25t-79.5 29.5t-70 34.5t-62.5 42.5t-49 52t-39 64t-22.5 77.5t-9 93.5q0 187 140.5 302.5t371.5 115.5
z" />
    <glyph glyph-name="T" unicode="T" horiz-adv-x="1243" 
d="M1223 1245h-480v-1245h-243v1245h-480v213h1203v-213z" />
    <glyph glyph-name="U" unicode="U" horiz-adv-x="1458" 
d="M1288 1458v-907q0 -283 -144 -432.5t-415 -149.5t-416 149.5t-145 432.5v907h246v-899q0 -183 81.5 -277t233.5 -94t233.5 94t81.5 277v899h244z" />
    <glyph glyph-name="V" unicode="V" horiz-adv-x="1292" 
d="M803 0h-311l-480 1458h252l199 -608q88 -261 182 -610h4q75 286 180 610l199 608h252z" />
    <glyph glyph-name="W" unicode="W" horiz-adv-x="1916" 
d="M1575 0h-330l-145 606q-82 344 -139 641h-5q-57 -297 -139 -641l-145 -606h-330l-322 1458h242l119 -561q80 -368 129 -657h4q69 332 148 659l135 559h323l135 -559q79 -327 148 -659h4q43 251 127 657l121 561h241z" />
    <glyph glyph-name="X" unicode="X" horiz-adv-x="1282" 
d="M791 745l479 -745h-287l-340 557h-4l-340 -557h-289l482 745l-457 713h284l320 -534h4l320 534h282z" />
    <glyph glyph-name="Y" unicode="Y" horiz-adv-x="1282" 
d="M764 586v-586h-246v586l-512 872h279l159 -289q110 -199 195 -376h4q92 191 197 376l157 289h277z" />
    <glyph glyph-name="Z" unicode="Z" horiz-adv-x="1175" 
d="M1100 1235l-770 -1022v-4h807v-209h-1098v223l770 1022v4h-741v209h1032v-223z" />
    <glyph glyph-name="bracketleft" unicode="[" horiz-adv-x="641" 
d="M606 1374h-235v-1536h235v-143h-456v1823h456v-144z" />
    <glyph glyph-name="backslash" unicode="\" horiz-adv-x="968" 
d="M297 1526l610 -1708h-192l-611 1708h193z" />
    <glyph glyph-name="bracketright" unicode="]" horiz-adv-x="641" 
d="M492 1518v-1823h-457v143h235v1536h-235v144h457z" />
    <glyph glyph-name="asciicircum" unicode="^" horiz-adv-x="968" 
d="M948 760h-217l-246 514h-4l-245 -514h-216l340 698h248z" />
    <glyph glyph-name="underscore" unicode="_" horiz-adv-x="1024" 
d="M1024 -231h-1024v129h1024v-129z" />
    <glyph glyph-name="grave" unicode="`" horiz-adv-x="665" 
d="M395 1458l168 -295h-190l-271 295h293z" />
    <glyph glyph-name="a" unicode="a" horiz-adv-x="1103" 
d="M539 1071q208 0 318 -102.5t110 -304.5v-390q0 -167 26 -274h-211q-14 63 -14 145h-4q-115 -168 -350 -168q-160 0 -256.5 87t-96.5 223q0 133 91.5 213t308.5 114q141 23 280 31v41q0 111 -54 163t-148 52q-95 0 -147.5 -48.5t-57.5 -133.5h-230q8 155 120.5 253.5
t314.5 98.5zM741 442v52q-122 -7 -239 -27q-112 -19 -158.5 -56t-46.5 -108q0 -70 48 -111.5t136 -41.5q120 0 189 69q41 42 56 90.5t15 132.5z" />
    <glyph glyph-name="b" unicode="b" horiz-adv-x="1202" 
d="M383 905h4q44 76 126 119t179 43q198 0 315 -149t117 -398t-118 -397t-316 -148q-99 0 -181 44.5t-128 123.5h-4v-143h-227v1458h233v-553zM623 885q-115 0 -183.5 -98t-68.5 -267q0 -168 68.5 -266t183.5 -98q118 0 188 99t70 265t-70 265.5t-188 99.5z" />
    <glyph glyph-name="c" unicode="c" horiz-adv-x="1122" 
d="M584 1071q197 0 325.5 -113.5t143.5 -293.5h-244q-8 101 -69 162t-156 61q-122 0 -191 -98t-69 -269t68.5 -268.5t191.5 -97.5q94 0 154.5 67t68.5 174h246q-15 -191 -142.5 -308.5t-326.5 -117.5q-231 0 -368.5 149t-137.5 402t137.5 402t368.5 149z" />
    <glyph glyph-name="d" unicode="d" horiz-adv-x="1202" 
d="M1053 0h-228v143h-4q-46 -79 -128 -123.5t-181 -44.5q-198 0 -316 148t-118 397t117 398t315 149q97 0 179 -43t126 -119h4v553h234v-1458zM580 885q-118 0 -188 -99.5t-70 -265.5t70 -265t188 -99q115 0 183 98t68 266q0 169 -68 267t-183 98z" />
    <glyph glyph-name="e" unicode="e" horiz-adv-x="1150" 
d="M582 141q97 0 160.5 47.5t78.5 124.5h240q-31 -148 -157.5 -246t-321.5 -98q-235 0 -369.5 154t-134.5 409q0 236 134.5 387.5t365.5 151.5q177 0 300 -95t166 -259q29 -96 29 -244h-764q6 -168 81 -250t192 -82zM578 899q-108 0 -179 -70t-86 -202h527q-12 132 -83 202
t-179 70z" />
    <glyph glyph-name="f" unicode="f" horiz-adv-x="661" 
d="M582 1294q-77 0 -113.5 -40t-36.5 -130v-84h201v-178h-201v-862h-231v862h-176v178h176v111q0 160 80 241t235 81q46 0 123 -15v-172q-28 8 -57 8z" />
    <glyph glyph-name="g" unicode="g" horiz-adv-x="1191" 
d="M514 1069q189 0 303 -174h4v145h221v-974q0 -229 -124 -345t-349 -116q-207 0 -322.5 87t-123.5 242h233q4 -75 61.5 -116t155.5 -41q121 0 181.5 69.5t60.5 227.5v102h-4q-112 -164 -301 -164q-198 0 -315 143t-117 386q0 242 118.5 385t317.5 143zM567 874
q-113 0 -179 -89.5t-66 -243.5t66.5 -245t178.5 -91q118 0 187 91t69 245q0 153 -69 243t-187 90z" />
    <glyph glyph-name="h" unicode="h" 
d="M383 918h4q109 147 299 147q180 0 279.5 -109t99.5 -319v-637h-234v616q0 261 -210 261q-105 0 -171.5 -77.5t-66.5 -221.5v-578h-233v1458h233v-540z" />
    <glyph glyph-name="i" unicode="i" horiz-adv-x="532" 
d="M383 1235h-233v223h233v-223zM383 0h-233v1040h233v-1040z" />
    <glyph glyph-name="j" unicode="j" horiz-adv-x="540" 
d="M391 1235h-233v223h233v-223zM391 1040v-1081q0 -179 -87.5 -263.5t-240.5 -84.5q-53 0 -118 14v174q27 -6 57 -6q79 0 117.5 44.5t38.5 152.5v1050h233z" />
    <glyph glyph-name="k" unicode="k" horiz-adv-x="1069" 
d="M1087 0h-294l-406 504h-4v-504h-233v1458h233v-844h4l379 426h272l-430 -475z" />
    <glyph glyph-name="l" unicode="l" horiz-adv-x="532" 
d="M383 0h-233v1458h233v-1458z" />
    <glyph glyph-name="m" unicode="m" horiz-adv-x="1802" 
d="M1307 1065q169 0 262.5 -108t93.5 -316v-641h-233v618q0 259 -189 259q-103 0 -161 -83.5t-58 -232.5v-561h-234v643q0 111 -48 172.5t-138 61.5q-104 0 -161.5 -84.5t-57.5 -235.5v-557h-233v1040h223v-125h4q111 150 289 150q108 0 188 -48t119 -140q60 93 140 140.5
t194 47.5z" />
    <glyph glyph-name="n" unicode="n" 
d="M686 1065q180 0 279.5 -109t99.5 -319v-637h-234v616q0 261 -210 261q-105 0 -171.5 -77.5t-66.5 -221.5v-578h-233v1040h221v-135h4q52 74 132 117t179 43z" />
    <glyph glyph-name="o" unicode="o" horiz-adv-x="1181" 
d="M592 1071q236 0 374 -148.5t138 -402.5t-138 -402.5t-374 -148.5t-375 149t-139 402t139 402t375 149zM592 887q-124 0 -196 -99t-72 -268t72 -267.5t196 -98.5t196 98.5t72 267.5t-72 268t-196 99z" />
    <glyph glyph-name="p" unicode="p" horiz-adv-x="1202" 
d="M690 1067q198 0 316 -149t118 -398t-117 -397t-315 -148q-97 0 -179 42.5t-126 117.5h-4v-514h-233v1419h227v-143h4q46 79 128.5 124.5t180.5 45.5zM623 885q-115 0 -183.5 -98t-68.5 -267q0 -168 68.5 -266t183.5 -98q118 0 188 99t70 265t-70 265.5t-188 99.5z" />
    <glyph glyph-name="q" unicode="q" horiz-adv-x="1202" 
d="M512 1067q98 0 180.5 -45.5t128.5 -124.5h4v143h228v-1419h-234v514h-4q-44 -75 -126 -117.5t-179 -42.5q-198 0 -315 148t-117 397t118 398t316 149zM580 885q-118 0 -188 -99.5t-70 -265.5t70 -265t188 -99q115 0 183 98t68 266q0 169 -68 267t-183 98z" />
    <glyph glyph-name="r" unicode="r" horiz-adv-x="772" 
d="M668 1055q36 0 86 -11v-206q-39 8 -82 8q-140 0 -214.5 -86.5t-74.5 -249.5v-510h-233v1040h217v-153h4q104 168 297 168z" />
    <glyph glyph-name="s" unicode="s" horiz-adv-x="1042" 
d="M508 1071q200 0 310.5 -91t111.5 -263h-225q0 92 -51.5 138t-147.5 46q-81 0 -126.5 -33t-45.5 -90q0 -62 47 -88t188 -61q157 -41 217 -69q144 -66 170 -200q7 -34 7 -73q0 -142 -119 -230t-318 -88q-213 0 -331 95t-119 278h237q0 -95 56.5 -147t160.5 -52
q88 0 138.5 35t50.5 94q0 20 -3 36t-13 29.5t-19 23.5t-29.5 20t-35 16.5t-46.5 15.5t-52.5 14.5t-63.5 16.5q-147 36 -205 65q-134 65 -150 207q-2 21 -2 44q0 138 112.5 224.5t295.5 86.5z" />
    <glyph glyph-name="t" unicode="t" horiz-adv-x="694" 
d="M567 178q45 0 72 10v-182q-63 -18 -131 -18q-165 0 -240 75t-75 244v555h-175v178h175v260h233v-260h203v-178h-203v-520q0 -88 32.5 -126t108.5 -38z" />
    <glyph glyph-name="u" unicode="u" 
d="M518 -25q-180 0 -279.5 109t-99.5 319v637h234v-616q0 -260 211 -260q104 0 170.5 77.5t66.5 221.5v577h234v-1040h-221v135h-5q-52 -74 -132 -117t-179 -43z" />
    <glyph glyph-name="v" unicode="v" horiz-adv-x="1003" 
d="M653 0h-303l-362 1040h243l136 -424q70 -216 133 -454h4q63 238 133 454l135 424h244z" />
    <glyph glyph-name="w" unicode="w" horiz-adv-x="1617" 
d="M1352 0h-334l-107 430q-44 176 -100 449h-4q-56 -273 -100 -449l-107 -430h-334l-254 1040h234l94 -417q53 -230 94 -461h4q36 178 103 452l104 426h328l104 -426q67 -274 103 -452h4q41 231 94 461l94 417h234z" />
    <glyph glyph-name="x" unicode="x" horiz-adv-x="1011" 
d="M649 539l371 -539h-275l-237 385h-4l-238 -385h-274l370 539l-344 501h273l213 -338h4l213 338h272z" />
    <glyph glyph-name="y" unicode="y" horiz-adv-x="999" 
d="M1012 1040l-402 -1085q-73 -196 -172 -270t-282 -74q-63 0 -117 14v191q51 -15 98 -15q95 0 145 41.5t87 149.5l-381 1048h250l260 -774h4l268 774h242z" />
    <glyph glyph-name="z" unicode="z" horiz-adv-x="974" 
d="M899 846l-561 -656v-4h582v-186h-865v195l561 655v4h-540v186h823v-194z" />
    <glyph glyph-name="braceleft" unicode="{" horiz-adv-x="655" 
d="M604 1518v-140q-93 -3 -132.5 -46t-39.5 -148v-316q0 -111 -42 -171.5t-140 -88.5v-6q98 -29 140 -89.5t42 -172.5v-313q0 -106 39.5 -149.5t132.5 -45.5v-141h-47q-185 0 -262.5 81.5t-77.5 266.5v297q0 89 -29 130.5t-106 61.5v152q77 22 106 63.5t29 130.5v297
q0 184 77.5 265.5t262.5 81.5h47z" />
    <glyph glyph-name="bar" unicode="|" horiz-adv-x="579" 
d="M395 -420h-211v1919h211v-1919z" />
    <glyph glyph-name="braceright" unicode="}" horiz-adv-x="655" 
d="M49 1518h49q184 0 261 -81.5t77 -265.5v-297q0 -89 30 -130.5t107 -63.5v-152q-77 -20 -107 -61.5t-30 -130.5v-297q0 -185 -77 -266.5t-261 -81.5h-49v141q94 2 133 45t39 150v313q0 112 42.5 172.5t139.5 89.5v6q-97 28 -139.5 89t-42.5 171v316q0 105 -39 148t-133 46
v140z" />
    <glyph glyph-name="asciitilde" unicode="~" horiz-adv-x="1206" 
d="M371 848q59 0 115.5 -22t99.5 -53t83.5 -62.5t84 -53.5t84.5 -22q72 0 115.5 53t43.5 141h158q0 -170 -89 -275t-230 -105q-59 0 -115.5 22t-100 53.5t-84.5 62.5t-84.5 53t-84.5 22q-72 0 -116 -52.5t-44 -140.5h-156q0 169 89 274t231 105z" />
    <glyph glyph-name="nbspace" unicode="&#xa0;" horiz-adv-x="471" 
 />
    <glyph glyph-name="exclamdown" unicode="&#xa1;" horiz-adv-x="614" 
d="M174 1040h264v-243h-264v243zM215 657h182l54 -1075h-289z" />
    <glyph glyph-name="cent" unicode="&#xa2;" horiz-adv-x="1189" 
d="M684 1038v-710q66 22 107 82.5t47 146.5h245q-15 -173 -122 -287.5t-277 -134.5v-186h-147v186q-199 25 -313.5 170.5t-114.5 376.5q0 229 114.5 375t313.5 172v182h147v-182q169 -20 276.5 -131t122.5 -275h-243q-7 81 -48 137t-108 78zM352 682q0 -141 48.5 -233.5
t136.5 -120.5v708q-88 -28 -136.5 -120.5t-48.5 -233.5z" />
    <glyph glyph-name="sterling" unicode="&#xa3;" horiz-adv-x="1189" 
d="M367 197h743v-197h-1061v199q96 0 143.5 63.5t47.5 208.5v113h-191v198h191v160q0 234 115.5 351.5t336.5 117.5q201 0 315.5 -115.5t114.5 -316.5h-235q0 110 -51 168.5t-144 58.5q-103 0 -156 -67t-53 -197v-160h254v-198h-254v-111q0 -110 -26.5 -171t-89.5 -101v-4z
" />
    <glyph glyph-name="currency" unicode="&#xa4;" horiz-adv-x="1189" 
d="M1038 596q0 -143 -67 -252l151 -160l-149 -139l-150 162q-94 -55 -227 -55q-129 0 -229 53l-150 -160l-147 139l149 160q-67 109 -67 252t67 252l-149 160l147 139l150 -160q100 53 229 53q133 0 227 -55l150 162l149 -139l-151 -160q67 -109 67 -252zM596 336
q112 0 179 71.5t67 188.5t-67 188.5t-179 71.5q-113 0 -180.5 -71t-67.5 -189t67.5 -189t180.5 -71z" />
    <glyph glyph-name="yen" unicode="&#xa5;" horiz-adv-x="1189" 
d="M795 725h264v-133h-340v-98h340v-132h-340v-362h-248v362h-340v132h340v98h-340v133h264l-372 655h274l109 -202q99 -188 188 -379h4q80 178 186 379l109 202h274z" />
    <glyph glyph-name="brokenbar" unicode="&#xa6;" horiz-adv-x="579" 
d="M395 782h-211v717h211v-717zM395 -420h-211v717h211v-717z" />
    <glyph glyph-name="section" unicode="&#xa7;" horiz-adv-x="1253" 
d="M621 1489q197 0 303.5 -92.5t115.5 -274.5h-235q-6 174 -184 174q-73 0 -117.5 -35t-44.5 -96q0 -69 43.5 -101t210.5 -99q64 -26 105.5 -44.5t89 -43.5t76.5 -47t58 -52.5t45 -63.5t25.5 -75t9.5 -92q0 -189 -176 -299v-4q98 -76 98 -221q0 -157 -113.5 -246.5
t-305.5 -89.5q-207 0 -324 92.5t-121 277.5h236q12 -178 205 -178q83 0 131.5 38t48.5 106q0 73 -54.5 113t-244.5 122q-78 34 -126.5 58.5t-100 60t-80 72.5t-46.5 88.5t-18 115.5q0 93 45 170t131 129v4q-92 75 -92 205q0 148 113.5 238t292.5 90zM453 850
q-95 -62 -95 -162q0 -79 52.5 -132.5t201.5 -117.5q89 -35 189 -88q44 27 70 71.5t26 98.5q0 74 -51 127.5t-191 112.5q-119 51 -202 90z" />
    <glyph glyph-name="dieresis" unicode="&#xa8;" horiz-adv-x="835" 
d="M311 1235h-209v223h209v-223zM733 1235h-209v223h209v-223z" />
    <glyph glyph-name="copyright" unicode="&#xa9;" horiz-adv-x="1650" 
d="M825 1485q331 0 533.5 -208t202.5 -548t-202.5 -548t-533.5 -208q-218 0 -385 94t-258.5 266t-91.5 396t91.5 396t258.5 266t385 94zM825 1380q-285 0 -458.5 -178.5t-173.5 -472.5t173.5 -472.5t458.5 -178.5q286 0 460.5 179t174.5 472t-174.5 472t-460.5 179z
M829 1214q172 0 276 -95t112 -251h-175q-8 91 -64.5 145t-148.5 54q-114 0 -178.5 -90.5t-64.5 -249.5q0 -155 64.5 -245.5t174.5 -90.5q93 0 152 56t70 149h176q-13 -163 -120.5 -257.5t-277.5 -94.5q-193 0 -304 129.5t-111 353.5q0 227 112 357t307 130z" />
    <glyph glyph-name="ordfeminine" unicode="&#xaa;" horiz-adv-x="823" 
d="M401 1425q324 0 324 -290v-258q0 -119 20 -201h-180q-12 47 -12 98h-2q-83 -115 -250 -115q-119 0 -188.5 62t-69.5 160q0 95 68 151t229 80q141 19 190 21v28q0 133 -129 133q-62 0 -95.5 -30.5t-35.5 -85.5h-196q6 108 89 177.5t238 69.5zM530 983v33q-60 -3 -155 -19
q-71 -12 -101 -36.5t-30 -67.5q0 -45 30 -71.5t86 -26.5q81 0 123 45q28 27 37.5 57.5t9.5 85.5z" />
    <glyph glyph-name="guillemetleft" unicode="&#xab;" horiz-adv-x="1019" 
d="M313 520l224 -409h-209l-234 409l234 410h209zM700 520l226 -409h-209l-234 409l234 410h209z" />
    <glyph glyph-name="logicalnot" unicode="&#xac;" horiz-adv-x="1159" 
d="M1022 279h-186v471h-699v188h885v-659z" />
    <glyph glyph-name="softhyphen" unicode="&#xad;" horiz-adv-x="634" 
d="M573 502h-512v192h512v-192z" />
    <glyph glyph-name="registered" unicode="&#xae;" horiz-adv-x="1206" 
d="M604 1489q230 0 370 -144.5t140 -381.5q0 -236 -140 -380.5t-370 -144.5t-371 144.5t-141 380.5t141 381t371 145zM604 1417q-198 0 -319 -125t-121 -329t121 -329.5t319 -125.5t319 125.5t121 329.5t-121 329t-319 125zM367 1296h249q110 0 167 -49t57 -137
q0 -56 -32 -100.5t-85 -57.5v-4q32 -7 51.5 -31t40.5 -77l68 -193h-133l-56 162q-15 50 -42 70t-77 20h-83v-252h-125v649zM492 1192v-191h94q129 0 129 101q0 42 -31 66t-92 24h-100z" />
    <glyph glyph-name="macron" unicode="&#xaf;" horiz-adv-x="829" 
d="M727 1243h-625v160h625v-160z" />
    <glyph glyph-name="degree" unicode="&#xb0;" horiz-adv-x="673" 
d="M338 1479q107 0 183.5 -76.5t76.5 -185.5q0 -107 -76.5 -184t-183.5 -77q-108 0 -185 77t-77 184q0 109 76.5 185.5t185.5 76.5zM338 1352q-57 0 -96 -39t-39 -96q0 -56 39 -95t96 -39q56 0 95.5 39.5t39.5 94.5q0 57 -39.5 96t-95.5 39z" />
    <glyph glyph-name="plusminus" unicode="&#xb1;" horiz-adv-x="1159" 
d="M672 811h350v-186h-350v-336h-185v336h-350v186h350v334h185v-334zM1022 0h-885v186h885v-186z" />
    <glyph glyph-name="twosuperior" unicode="&#xb2;" horiz-adv-x="899" 
d="M453 1665q160 0 256 -78.5t96 -204.5q0 -62 -19 -111.5t-58.5 -89t-82.5 -68t-108 -62.5q-132 -68 -177 -111t-47 -94h516v-170h-751q-4 12 -4 41q0 152 61 248t230 188q123 65 174 111.5t51 115.5q0 53 -36.5 86t-100.5 33q-150 0 -156 -158h-209q3 154 100.5 239
t264.5 85z" />
    <glyph glyph-name="threesuperior" unicode="&#xb3;" horiz-adv-x="886" 
d="M442 1665q167 0 263 -73.5t96 -198.5q0 -81 -41 -132t-131 -85v-5q97 -32 141.5 -87.5t44.5 -145.5q0 -129 -102 -207t-269 -78q-184 0 -283.5 86.5t-99.5 245.5h211q0 -166 172 -166q72 0 116 34.5t44 92.5q0 137 -201 137h-30v160h35q85 0 135.5 35t50.5 96
q0 57 -42 91t-114 34q-157 0 -157 -160h-207q0 154 97.5 240t270.5 86z" />
    <glyph glyph-name="acute" unicode="&#xb4;" horiz-adv-x="665" 
d="M293 1163h-191l166 295h295z" />
    <glyph glyph-name="micro" unicode="&#xb5;" horiz-adv-x="1224" 
d="M1059 1040v-721q0 -85 21.5 -116t70.5 -31q25 0 49 6v-172q-59 -20 -147 -20q-92 0 -143 40.5t-66 125.5h-4q-32 -77 -105 -121.5t-166 -44.5q-124 0 -186 65v-430h-233v1419h233v-614q0 -262 205 -262q104 0 170.5 78.5t66.5 222.5v575h234z" />
    <glyph glyph-name="paragraph" unicode="&#xb6;" horiz-adv-x="1273" 
d="M1227 1296h-164v-1542h-174v1542h-172v-1542h-174v858h-58q-186 0 -294.5 114t-108.5 308q0 195 108.5 309.5t294.5 114.5h742v-162z" />
    <glyph glyph-name="periodcentered" unicode="&#xb7;" horiz-adv-x="495" 
d="M383 481h-270v289h270v-289z" />
    <glyph glyph-name="cedilla" unicode="&#xb8;" horiz-adv-x="667" 
d="M416 0l-80 -127q19 8 59 8q71 0 120.5 -41t49.5 -110q0 -81 -62.5 -134t-176.5 -53q-117 0 -224 60l41 82q79 -43 162 -43q51 0 80 20t29 57t-28 59.5t-77 22.5q-35 0 -65 -12l-39 43l106 168h105z" />
    <glyph glyph-name="onesuperior" unicode="&#xb9;" horiz-adv-x="614" 
d="M477 676h-209v649h-245v152q131 0 194 38t78 127h182v-966z" />
    <glyph glyph-name="ordmasculine" unicode="&#xba;" horiz-adv-x="874" 
d="M438 1425q175 0 278 -104t103 -281q0 -178 -103 -282.5t-278 -104.5t-279 104.5t-104 282.5q0 177 104 281t279 104zM438 1270q-80 0 -126 -61.5t-46 -168.5t46 -169t126 -62q79 0 124.5 62t45.5 169t-45.5 168.5t-124.5 61.5z" />
    <glyph glyph-name="guillemetright" unicode="&#xbb;" horiz-adv-x="1019" 
d="M303 930l234 -410l-234 -409h-209l223 409l-223 410h209zM692 930l234 -410l-234 -409h-209l224 409l-224 410h209z" />
    <glyph glyph-name="onequarter" unicode="&#xbc;" horiz-adv-x="1558" 
d="M221 1096h-203v141q101 0 154.5 35t71.5 108h174v-827h-197v543zM1149 1380l-770 -1380h-170l772 1380h168zM1540 180h-137v-180h-191v180h-403v158l342 489h252v-495h137v-152zM983 332h238v94q0 133 6 262h-2q-76 -124 -160 -242z" />
    <glyph glyph-name="onehalf" unicode="&#xbd;" horiz-adv-x="1622" 
d="M418 553h-197v543h-203v141q101 0 154.5 35t71.5 108h174v-827zM379 0h-170l772 1380h168zM1231 848q141 0 225 -68.5t84 -177.5q0 -100 -60.5 -166t-172.5 -119t-150 -86.5t-41 -74.5h449v-156h-668q-2 12 -2 39q0 133 53.5 216.5t200.5 160.5q56 29 83 45t57.5 39.5
t42 48t11.5 55.5q0 41 -30 66.5t-82 25.5q-124 0 -127 -131h-195q1 134 87 208.5t235 74.5z" />
    <glyph glyph-name="threequarters" unicode="&#xbe;" horiz-adv-x="1812" 
d="M721 776q0 -112 -88.5 -178t-239.5 -66q-162 0 -251 74.5t-89 212.5h195q0 -133 145 -133q60 0 97.5 27.5t37.5 72.5q0 54 -43 82.5t-125 28.5h-28v145h26q72 0 116 30t44 81q0 43 -35 69.5t-94 26.5q-135 0 -135 -127h-191q0 130 87.5 204.5t238.5 74.5
q147 0 233.5 -64.5t86.5 -171.5q0 -67 -34.5 -111t-111.5 -73v-2q83 -28 120.5 -76.5t37.5 -126.5zM1403 1380l-770 -1380h-170l772 1380h168zM1794 180h-137v-180h-191v180h-403v158l342 489h252v-495h137v-152zM1237 332h238v94q0 133 6 262h-2q-76 -124 -160 -242z" />
    <glyph glyph-name="questiondown" unicode="&#xbf;" horiz-adv-x="1024" 
d="M442 1040h265v-243h-265v243zM539 -446q-212 0 -336.5 101t-124.5 273q0 108 42 182t169 181q116 97 149 167.5t33 221.5h203v-64q0 -155 -38.5 -237t-162.5 -193q-95 -84 -122 -132.5t-27 -119.5q0 -80 57.5 -128t157.5 -48q229 0 241 236h244q-7 -216 -133 -328
t-352 -112z" />
    <glyph glyph-name="Agrave" unicode="&#xc0;" horiz-adv-x="1406" 
d="M670 1556l-271 291h293l168 -291h-190zM1006 395h-605l-135 -395h-258l531 1458h329l531 -1458h-258zM932 608l-39 115q-118 349 -188 580h-5q-107 -352 -186 -580l-39 -115h457z" />
    <glyph glyph-name="Aacute" unicode="&#xc1;" horiz-adv-x="1406" 
d="M737 1556h-190l166 291h295zM1006 395h-605l-135 -395h-258l531 1458h329l531 -1458h-258zM932 608l-39 115q-118 349 -188 580h-5q-107 -352 -186 -580l-39 -115h457z" />
    <glyph glyph-name="Acircumflex" unicode="&#xc2;" horiz-adv-x="1406" 
d="M565 1556h-221l234 291h251l234 -291h-221l-140 168zM1006 395h-605l-135 -395h-258l531 1458h329l531 -1458h-258zM932 608l-39 115q-118 349 -188 580h-5q-107 -352 -186 -580l-39 -115h457z" />
    <glyph glyph-name="Atilde" unicode="&#xc3;" horiz-adv-x="1406" 
d="M567 1686q-82 0 -94 -101h-139q6 121 65 188.5t160 67.5q54 0 106 -24.5t95.5 -49t77.5 -24.5q85 0 94 98h139q-6 -121 -64 -188.5t-159 -67.5q-43 0 -85.5 16t-70.5 34.5t-62 34.5t-63 16zM1006 395h-605l-135 -395h-258l531 1458h329l531 -1458h-258zM932 608l-39 115
q-118 349 -188 580h-5q-107 -352 -186 -580l-39 -115h457z" />
    <glyph glyph-name="Adieresis" unicode="&#xc4;" horiz-adv-x="1406" 
d="M596 1581h-209v223h209v-223zM1018 1581h-209v223h209v-223zM1006 395h-605l-135 -395h-258l531 1458h329l531 -1458h-258zM932 608l-39 115q-118 349 -188 580h-5q-107 -352 -186 -580l-39 -115h457z" />
    <glyph glyph-name="Aring" unicode="&#xc5;" horiz-adv-x="1406" 
d="M702 1538q-89 0 -151 62t-62 151t62 151t151 62t151 -62t62 -151t-62 -151t-151 -62zM702 1866q-47 0 -80.5 -34t-33.5 -81t33.5 -81t80.5 -34t81 34t34 81t-34 81t-81 34zM1006 395h-605l-135 -395h-258l531 1458h329l531 -1458h-258zM932 608l-39 115
q-118 349 -188 580h-5q-107 -352 -186 -580l-39 -115h457z" />
    <glyph glyph-name="AE" unicode="&#xc6;" horiz-adv-x="1947" 
d="M1843 213v-213h-788l-62 414h-540l-189 -414h-276l696 1458h1139v-213h-713l57 -395h611v-211h-580l64 -426h581zM963 623l-93 634h-30l-291 -634h414z" />
    <glyph glyph-name="Ccedilla" unicode="&#xc7;" horiz-adv-x="1423" 
d="M1081 506h252q-20 -234 -162 -375t-376 -160l-62 -98q19 8 60 8q71 0 120.5 -41t49.5 -110q0 -80 -63 -133.5t-177 -53.5q-116 0 -223 60l41 82q79 -43 161 -43q51 0 80 20t29 57t-27.5 59.5t-76.5 22.5q-36 0 -66 -12l-39 43l88 137q-284 13 -446 216t-162 544
q0 354 174.5 557t478.5 203q263 0 422 -147.5t170 -383.5h-248q-15 145 -106.5 228.5t-237.5 83.5q-186 0 -292.5 -144.5t-106.5 -396.5t105 -396.5t288 -144.5q146 0 239 84t113 234z" />
    <glyph glyph-name="Egrave" unicode="&#xc8;" horiz-adv-x="1280" 
d="M655 1847l168 -291h-190l-271 291h293zM1155 1245h-729v-395h684v-211h-684v-426h750v-213h-996v1458h975v-213z" />
    <glyph glyph-name="Eacute" unicode="&#xc9;" horiz-adv-x="1280" 
d="M702 1556h-190l166 291h295zM1155 1245h-729v-395h684v-211h-684v-426h750v-213h-996v1458h975v-213z" />
    <glyph glyph-name="Ecircumflex" unicode="&#xca;" horiz-adv-x="1280" 
d="M541 1847h252l233 -291h-221l-139 168l-138 -168h-221zM1155 1245h-729v-395h684v-211h-684v-426h750v-213h-996v1458h975v-213z" />
    <glyph glyph-name="Edieresis" unicode="&#xcb;" horiz-adv-x="1280" 
d="M561 1581h-209v223h209v-223zM983 1581h-209v223h209v-223zM1155 1245h-729v-395h684v-211h-684v-426h750v-213h-996v1458h975v-213z" />
    <glyph glyph-name="Igrave" unicode="&#xcc;" horiz-adv-x="606" 
d="M293 1847l168 -291h-191l-270 291h293zM426 0h-246v1458h246v-1458z" />
    <glyph glyph-name="Iacute" unicode="&#xcd;" horiz-adv-x="606" 
d="M340 1556h-190l165 291h295zM426 0h-246v1458h246v-1458z" />
    <glyph glyph-name="Icircumflex" unicode="&#xce;" horiz-adv-x="606" 
d="M178 1847h252l234 -291h-222l-139 168l-137 -168h-221zM426 0h-246v1458h246v-1458z" />
    <glyph glyph-name="Idieresis" unicode="&#xcf;" horiz-adv-x="606" 
d="M197 1581h-209v223h209v-223zM618 1581h-208v223h208v-223zM426 0h-246v1458h246v-1458z" />
    <glyph glyph-name="Eth" unicode="&#xd0;" horiz-adv-x="1492" 
d="M180 1458h467q366 0 565 -189.5t199 -539.5t-199 -539.5t-565 -189.5h-467v647h-131v182h131v629zM424 213h219q255 0 384.5 130.5t129.5 385.5t-129.5 385.5t-384.5 130.5h-219v-416h377v-182h-377v-434z" />
    <glyph glyph-name="Ntilde" unicode="&#xd1;" horiz-adv-x="1568" 
d="M1014 1841h139q-6 -121 -64 -188.5t-159 -67.5q-43 0 -85.5 16t-70.5 34.5t-62 34.5t-63 16q-82 0 -94 -101h-139q6 121 65 188.5t160 67.5q54 0 106 -24.5t95.5 -49t77.5 -24.5q85 0 94 98zM1386 0h-352l-315 610q-178 347 -309 627h-4q12 -332 12 -664v-573h-238v1458
h355l313 -610q178 -347 309 -627h4q-10 368 -10 664v573h235v-1458z" />
    <glyph glyph-name="Ograve" unicode="&#xd2;" horiz-adv-x="1515" 
d="M745 1847l168 -291h-190l-270 291h292zM758 1489q313 0 494.5 -204t181.5 -556t-181.5 -556t-494.5 -204t-494.5 204t-181.5 556t181.5 556t494.5 204zM758 1270q-195 0 -308.5 -145.5t-113.5 -395.5t113.5 -395.5t308.5 -145.5t308.5 145.5t113.5 395.5t-113.5 395.5
t-308.5 145.5z" />
    <glyph glyph-name="Oacute" unicode="&#xd3;" horiz-adv-x="1515" 
d="M793 1556h-191l166 291h295zM758 1489q313 0 494.5 -204t181.5 -556t-181.5 -556t-494.5 -204t-494.5 204t-181.5 556t181.5 556t494.5 204zM758 1270q-195 0 -308.5 -145.5t-113.5 -395.5t113.5 -395.5t308.5 -145.5t308.5 145.5t113.5 395.5t-113.5 395.5t-308.5 145.5
z" />
    <glyph glyph-name="Ocircumflex" unicode="&#xd4;" horiz-adv-x="1515" 
d="M631 1847h252l233 -291h-221l-139 168l-138 -168h-221zM758 1489q313 0 494.5 -204t181.5 -556t-181.5 -556t-494.5 -204t-494.5 204t-181.5 556t181.5 556t494.5 204zM758 1270q-195 0 -308.5 -145.5t-113.5 -395.5t113.5 -395.5t308.5 -145.5t308.5 145.5t113.5 395.5
t-113.5 395.5t-308.5 145.5z" />
    <glyph glyph-name="Otilde" unicode="&#xd5;" horiz-adv-x="1515" 
d="M987 1841h139q-6 -121 -64 -188.5t-159 -67.5q-55 0 -106.5 25.5t-94.5 50.5t-79 25q-83 0 -95 -101h-139q6 121 65 188.5t160 67.5q54 0 106 -24.5t95.5 -49t77.5 -24.5q85 0 94 98zM758 1489q313 0 494.5 -204t181.5 -556t-181.5 -556t-494.5 -204t-494.5 204
t-181.5 556t181.5 556t494.5 204zM758 1270q-195 0 -308.5 -145.5t-113.5 -395.5t113.5 -395.5t308.5 -145.5t308.5 145.5t113.5 395.5t-113.5 395.5t-308.5 145.5z" />
    <glyph glyph-name="Odieresis" unicode="&#xd6;" horiz-adv-x="1515" 
d="M651 1581h-209v223h209v-223zM1073 1581h-209v223h209v-223zM758 1489q313 0 494.5 -204t181.5 -556t-181.5 -556t-494.5 -204t-494.5 204t-181.5 556t181.5 556t494.5 204zM758 1270q-195 0 -308.5 -145.5t-113.5 -395.5t113.5 -395.5t308.5 -145.5t308.5 145.5
t113.5 395.5t-113.5 395.5t-308.5 145.5z" />
    <glyph glyph-name="multiply" unicode="&#xd7;" horiz-adv-x="1159" 
d="M1098 1014l-387 -385l387 -387l-131 -131l-387 387l-385 -387l-134 131l388 387l-388 385l134 131l385 -385l387 385z" />
    <glyph glyph-name="Oslash" unicode="&#xd8;" horiz-adv-x="1515" 
d="M1386 1448l-126 -170q174 -202 174 -549q0 -352 -181.5 -556t-494.5 -204q-233 0 -393 115l-121 -162l-115 90l127 170q-174 202 -174 547q0 352 181.5 556t494.5 204q230 0 395 -115l121 162zM328 729q0 -210 78 -348l610 811q-108 88 -258 88q-199 0 -314.5 -148
t-115.5 -403zM758 178q199 0 314.5 148t115.5 403q0 210 -78 348l-608 -811q105 -88 256 -88z" />
    <glyph glyph-name="Ugrave" unicode="&#xd9;" horiz-adv-x="1458" 
d="M717 1847l168 -291h-191l-270 291h293zM1288 1458v-907q0 -283 -144 -432.5t-415 -149.5t-416 149.5t-145 432.5v907h246v-899q0 -183 81.5 -277t233.5 -94t233.5 94t81.5 277v899h244z" />
    <glyph glyph-name="Uacute" unicode="&#xda;" horiz-adv-x="1458" 
d="M764 1556h-191l166 291h295zM1288 1458v-907q0 -283 -144 -432.5t-415 -149.5t-416 149.5t-145 432.5v907h246v-899q0 -183 81.5 -277t233.5 -94t233.5 94t81.5 277v899h244z" />
    <glyph glyph-name="Ucircumflex" unicode="&#xdb;" horiz-adv-x="1458" 
d="M602 1847h252l233 -291h-221l-139 168l-137 -168h-221zM1288 1458v-907q0 -283 -144 -432.5t-415 -149.5t-416 149.5t-145 432.5v907h246v-899q0 -183 81.5 -277t233.5 -94t233.5 94t81.5 277v899h244z" />
    <glyph glyph-name="Udieresis" unicode="&#xdc;" horiz-adv-x="1458" 
d="M623 1581h-209v223h209v-223zM1044 1581h-208v223h208v-223zM1288 1458v-907q0 -283 -144 -432.5t-415 -149.5t-416 149.5t-145 432.5v907h246v-899q0 -183 81.5 -277t233.5 -94t233.5 94t81.5 277v899h244z" />
    <glyph glyph-name="Yacute" unicode="&#xdd;" horiz-adv-x="1282" 
d="M676 1556h-191l166 291h295zM764 586v-586h-246v586l-512 872h279l159 -289q110 -199 195 -376h4q92 191 197 376l157 289h277z" />
    <glyph glyph-name="Thorn" unicode="&#xde;" horiz-adv-x="1282" 
d="M426 1206h281q253 0 387.5 -123t134.5 -333t-134.5 -332.5t-387.5 -122.5h-281v-295h-246v1458h246v-252zM426 999v-497h252q151 0 225 64.5t74 183.5q0 120 -73.5 184.5t-225.5 64.5h-252z" />
    <glyph glyph-name="germandbls" unicode="&#xdf;" horiz-adv-x="1159" 
d="M590 1489q195 0 310.5 -97t115.5 -259q0 -241 -242 -318v-4q151 -29 231 -128.5t80 -260.5q0 -203 -128 -317.5t-339 -114.5q-52 0 -104 10v193q23 -7 64 -7q130 0 198 65.5t68 192.5q0 124 -72 193.5t-203 69.5h-26v196q128 0 188 51.5t60 155.5q0 90 -52 140t-145 50
q-107 0 -159 -67t-52 -205v-1028h-233v1044q0 211 115.5 328t324.5 117z" />
    <glyph glyph-name="agrave" unicode="&#xe0;" horiz-adv-x="1103" 
d="M514 1458l168 -295h-190l-271 295h293zM539 1071q208 0 318 -102.5t110 -304.5v-390q0 -167 26 -274h-211q-14 63 -14 145h-4q-115 -168 -350 -168q-160 0 -256.5 87t-96.5 223q0 133 91.5 213t308.5 114q141 23 280 31v41q0 111 -54 163t-148 52q-95 0 -147.5 -48.5
t-57.5 -133.5h-230q8 155 120.5 253.5t314.5 98.5zM741 442v52q-122 -7 -239 -27q-112 -19 -158.5 -56t-46.5 -108q0 -70 48 -111.5t136 -41.5q120 0 189 69q41 42 56 90.5t15 132.5z" />
    <glyph glyph-name="aacute" unicode="&#xe1;" horiz-adv-x="1103" 
d="M561 1163h-190l166 295h294zM539 1071q208 0 318 -102.5t110 -304.5v-390q0 -167 26 -274h-211q-14 63 -14 145h-4q-115 -168 -350 -168q-160 0 -256.5 87t-96.5 223q0 133 91.5 213t308.5 114q141 23 280 31v41q0 111 -54 163t-148 52q-95 0 -147.5 -48.5t-57.5 -133.5
h-230q8 155 120.5 253.5t314.5 98.5zM741 442v52q-122 -7 -239 -27q-112 -19 -158.5 -56t-46.5 -108q0 -70 48 -111.5t136 -41.5q120 0 189 69q41 42 56 90.5t15 132.5z" />
    <glyph glyph-name="acircumflex" unicode="&#xe2;" horiz-adv-x="1103" 
d="M664 1163l-138 172l-139 -172h-221l233 295h252l234 -295h-221zM539 1071q208 0 318 -102.5t110 -304.5v-390q0 -167 26 -274h-211q-14 63 -14 145h-4q-115 -168 -350 -168q-160 0 -256.5 87t-96.5 223q0 133 91.5 213t308.5 114q141 23 280 31v41q0 111 -54 163t-148 52
q-95 0 -147.5 -48.5t-57.5 -133.5h-230q8 155 120.5 253.5t314.5 98.5zM741 442v52q-122 -7 -239 -27q-112 -19 -158.5 -56t-46.5 -108q0 -70 48 -111.5t136 -41.5q120 0 189 69q41 42 56 90.5t15 132.5z" />
    <glyph glyph-name="atilde" unicode="&#xe3;" horiz-adv-x="1103" 
d="M756 1452h139q-6 -121 -64 -188.5t-159 -67.5q-55 0 -106.5 24.5t-95 49t-79.5 24.5q-82 0 -94 -98h-139q6 121 65 188.5t160 67.5q54 0 106 -25t95.5 -50t77.5 -25q85 0 94 100zM539 1071q208 0 318 -102.5t110 -304.5v-390q0 -167 26 -274h-211q-14 63 -14 145h-4
q-115 -168 -350 -168q-160 0 -256.5 87t-96.5 223q0 133 91.5 213t308.5 114q141 23 280 31v41q0 111 -54 163t-148 52q-95 0 -147.5 -48.5t-57.5 -133.5h-230q8 155 120.5 253.5t314.5 98.5zM741 442v52q-122 -7 -239 -27q-112 -19 -158.5 -56t-46.5 -108q0 -70 48 -111.5
t136 -41.5q120 0 189 69q41 42 56 90.5t15 132.5z" />
    <glyph glyph-name="adieresis" unicode="&#xe4;" horiz-adv-x="1103" 
d="M420 1235h-209v223h209v-223zM842 1235h-209v223h209v-223zM539 1071q208 0 318 -102.5t110 -304.5v-390q0 -167 26 -274h-211q-14 63 -14 145h-4q-115 -168 -350 -168q-160 0 -256.5 87t-96.5 223q0 133 91.5 213t308.5 114q141 23 280 31v41q0 111 -54 163t-148 52
q-95 0 -147.5 -48.5t-57.5 -133.5h-230q8 155 120.5 253.5t314.5 98.5zM741 442v52q-122 -7 -239 -27q-112 -19 -158.5 -56t-46.5 -108q0 -70 48 -111.5t136 -41.5q120 0 189 69q41 42 56 90.5t15 132.5z" />
    <glyph glyph-name="aring" unicode="&#xe5;" horiz-adv-x="1103" 
d="M526 1575q89 0 151 -62t62 -151t-62 -151t-151 -62t-151 62t-62 151t62 151t151 62zM526 1477q-47 0 -80.5 -34t-33.5 -81t33.5 -81t80.5 -34t81 34t34 81t-34 81t-81 34zM539 1071q208 0 318 -102.5t110 -304.5v-390q0 -167 26 -274h-211q-14 63 -14 145h-4
q-115 -168 -350 -168q-160 0 -256.5 87t-96.5 223q0 133 91.5 213t308.5 114q141 23 280 31v41q0 111 -54 163t-148 52q-95 0 -147.5 -48.5t-57.5 -133.5h-230q8 155 120.5 253.5t314.5 98.5zM741 442v52q-122 -7 -239 -27q-112 -19 -158.5 -56t-46.5 -108q0 -70 48 -111.5
t136 -41.5q120 0 189 69q41 42 56 90.5t15 132.5z" />
    <glyph glyph-name="ae" unicode="&#xe6;" horiz-adv-x="1783" 
d="M1229 141q92 0 151.5 47.5t73.5 124.5h240q-28 -147 -151.5 -245.5t-313.5 -98.5q-252 0 -379 201q-61 -99 -165 -150t-236 -51q-177 0 -282.5 89.5t-105.5 228.5q0 161 118 247.5t384 86.5h193v65q0 215 -209 215q-98 0 -153 -48.5t-58 -133.5h-232q9 155 123.5 253.5
t319.5 98.5q239 0 344 -141q128 141 334 141q170 0 291.5 -95.5t164.5 -258.5q25 -103 25 -244h-735q4 -168 75 -250t183 -82zM1225 899q-105 0 -172 -71.5t-80 -206.5h500q-9 135 -76.5 206.5t-171.5 71.5zM756 473h-166q-161 0 -227 -42t-66 -128q0 -74 49.5 -118
t138.5 -44q124 0 195 74q44 44 60 92.5t16 134.5v31z" />
    <glyph glyph-name="ccedilla" unicode="&#xe7;" horiz-adv-x="1122" 
d="M584 154q94 0 154.5 67t68.5 174h246q-14 -174 -123 -288.5t-281 -133.5l-63 -100q19 8 59 8q71 0 120.5 -41t49.5 -110q0 -80 -63 -133.5t-177 -53.5q-116 0 -223 60l41 82q79 -43 162 -43q51 0 80 20t29 57t-28 59.5t-77 22.5q-35 0 -65 -12l-39 43l88 139
q-215 14 -340 160.5t-125 388.5q0 253 137.5 402t368.5 149q197 0 325.5 -113.5t143.5 -293.5h-244q-8 101 -69 162t-156 61q-122 0 -191 -98t-69 -269t68.5 -268.5t191.5 -97.5z" />
    <glyph glyph-name="egrave" unicode="&#xe8;" horiz-adv-x="1150" 
d="M541 1163l-271 295h293l168 -295h-190zM582 141q97 0 160.5 47.5t78.5 124.5h240q-31 -148 -157.5 -246t-321.5 -98q-235 0 -369.5 154t-134.5 409q0 236 134.5 387.5t365.5 151.5q177 0 300 -95t166 -259q29 -96 29 -244h-764q6 -168 81 -250t192 -82zM578 899
q-108 0 -179 -70t-86 -202h527q-12 132 -83 202t-179 70z" />
    <glyph glyph-name="eacute" unicode="&#xe9;" horiz-adv-x="1150" 
d="M608 1163h-190l166 295h295zM582 141q97 0 160.5 47.5t78.5 124.5h240q-31 -148 -157.5 -246t-321.5 -98q-235 0 -369.5 154t-134.5 409q0 236 134.5 387.5t365.5 151.5q177 0 300 -95t166 -259q29 -96 29 -244h-764q6 -168 81 -250t192 -82zM578 899q-108 0 -179 -70
t-86 -202h527q-12 132 -83 202t-179 70z" />
    <glyph glyph-name="ecircumflex" unicode="&#xea;" horiz-adv-x="1150" 
d="M436 1163h-221l234 295h251l234 -295h-221l-138 172zM582 141q97 0 160.5 47.5t78.5 124.5h240q-31 -148 -157.5 -246t-321.5 -98q-235 0 -369.5 154t-134.5 409q0 236 134.5 387.5t365.5 151.5q177 0 300 -95t166 -259q29 -96 29 -244h-764q6 -168 81 -250t192 -82z
M578 899q-108 0 -179 -70t-86 -202h527q-12 132 -83 202t-179 70z" />
    <glyph glyph-name="edieresis" unicode="&#xeb;" horiz-adv-x="1150" 
d="M467 1235h-209v223h209v-223zM889 1235h-209v223h209v-223zM582 141q97 0 160.5 47.5t78.5 124.5h240q-31 -148 -157.5 -246t-321.5 -98q-235 0 -369.5 154t-134.5 409q0 236 134.5 387.5t365.5 151.5q177 0 300 -95t166 -259q29 -96 29 -244h-764q6 -168 81 -250
t192 -82zM578 899q-108 0 -179 -70t-86 -202h527q-12 132 -83 202t-179 70z" />
    <glyph glyph-name="igrave" unicode="&#xec;" horiz-adv-x="532" 
d="M254 1458l168 -295h-191l-270 295h293zM383 0h-233v1040h233v-1040z" />
    <glyph glyph-name="iacute" unicode="&#xed;" horiz-adv-x="532" 
d="M301 1163h-190l165 295h295zM383 0h-233v1040h233v-1040z" />
    <glyph glyph-name="icircumflex" unicode="&#xee;" horiz-adv-x="532" 
d="M594 1165h-209l-119 174l-119 -174h-210l206 293h244zM383 0h-233v1040h233v-1040z" />
    <glyph glyph-name="idieresis" unicode="&#xef;" horiz-adv-x="532" 
d="M203 1235h-209v223h209v-223zM539 1235h-211v223h211v-223zM383 0h-233v1040h233v-1040z" />
    <glyph glyph-name="eth" unicode="&#xf0;" horiz-adv-x="1183" 
d="M909 1083q100 -133 148.5 -266.5t48.5 -288.5q0 -257 -138 -408t-374 -151q-238 0 -377 145t-139 392q0 248 124.5 393t336.5 145q100 0 182 -53v4q-77 98 -197 205l-266 -113l-47 111l211 90q-75 58 -137 101l178 100q78 -50 160 -117l256 109l47 -111l-203 -86
q103 -95 186 -201zM592 154q124 0 196 98t72 266q0 169 -72 268t-196 99t-196 -99t-72 -268q0 -168 72 -266t196 -98z" />
    <glyph glyph-name="ntilde" unicode="&#xf1;" 
d="M838 1452h139q-6 -121 -64 -188.5t-159 -67.5q-55 0 -106.5 24.5t-95 49t-79.5 24.5q-82 0 -94 -98h-139q6 121 65 188.5t160 67.5q43 0 85 -15.5t70 -34.5t61.5 -34.5t61.5 -15.5q86 0 95 100zM686 1065q180 0 279.5 -109t99.5 -319v-637h-234v616q0 261 -210 261
q-105 0 -171.5 -77.5t-66.5 -221.5v-578h-233v1040h221v-135h4q52 74 132 117t179 43z" />
    <glyph glyph-name="ograve" unicode="&#xf2;" horiz-adv-x="1181" 
d="M580 1458l168 -295h-191l-270 295h293zM592 1071q236 0 374 -148.5t138 -402.5t-138 -402.5t-374 -148.5t-375 149t-139 402t139 402t375 149zM592 887q-124 0 -196 -99t-72 -268t72 -267.5t196 -98.5t196 98.5t72 267.5t-72 268t-196 99z" />
    <glyph glyph-name="oacute" unicode="&#xf3;" horiz-adv-x="1181" 
d="M627 1163h-191l166 295h295zM592 1071q236 0 374 -148.5t138 -402.5t-138 -402.5t-374 -148.5t-375 149t-139 402t139 402t375 149zM592 887q-124 0 -196 -99t-72 -268t72 -267.5t196 -98.5t196 98.5t72 267.5t-72 268t-196 99z" />
    <glyph glyph-name="ocircumflex" unicode="&#xf4;" horiz-adv-x="1181" 
d="M729 1163l-137 172l-139 -172h-222l234 295h252l233 -295h-221zM592 1071q236 0 374 -148.5t138 -402.5t-138 -402.5t-374 -148.5t-375 149t-139 402t139 402t375 149zM592 887q-124 0 -196 -99t-72 -268t72 -267.5t196 -98.5t196 98.5t72 267.5t-72 268t-196 99z" />
    <glyph glyph-name="otilde" unicode="&#xf5;" horiz-adv-x="1181" 
d="M821 1452h140q-6 -121 -64.5 -188.5t-159.5 -67.5q-55 0 -106.5 24.5t-94.5 49t-79 24.5q-83 0 -95 -98h-139q6 120 65.5 188t160.5 68q43 0 85 -15.5t70 -34.5t61.5 -34.5t61.5 -15.5q85 0 94 100zM592 1071q236 0 374 -148.5t138 -402.5t-138 -402.5t-374 -148.5
t-375 149t-139 402t139 402t375 149zM592 887q-124 0 -196 -99t-72 -268t72 -267.5t196 -98.5t196 98.5t72 267.5t-72 268t-196 99z" />
    <glyph glyph-name="odieresis" unicode="&#xf6;" horiz-adv-x="1181" 
d="M483 1235h-209v223h209v-223zM905 1235h-209v223h209v-223zM592 1071q236 0 374 -148.5t138 -402.5t-138 -402.5t-374 -148.5t-375 149t-139 402t139 402t375 149zM592 887q-124 0 -196 -99t-72 -268t72 -267.5t196 -98.5t196 98.5t72 267.5t-72 268t-196 99z" />
    <glyph glyph-name="divide" unicode="&#xf7;" horiz-adv-x="1159" 
d="M682 903h-205v199h205v-199zM1022 555h-885v186h885v-186zM682 195h-205v198h205v-198z" />
    <glyph glyph-name="oslash" unicode="&#xf8;" horiz-adv-x="1183" 
d="M1079 1061l-108 -143q135 -148 135 -398q0 -253 -139 -402t-375 -149q-165 0 -283 74l-104 -139l-99 73l109 144q-137 146 -137 399t139 402t375 149q162 0 285 -74l104 140zM592 895q-129 0 -205 -101.5t-76 -273.5q0 -128 41 -215l404 533q-69 57 -164 57zM592 145
q129 0 204.5 101t75.5 274q0 118 -41 215l-403 -534q69 -56 164 -56z" />
    <glyph glyph-name="ugrave" unicode="&#xf9;" 
d="M590 1458l168 -295h-191l-270 295h293zM518 -25q-180 0 -279.5 109t-99.5 319v637h234v-616q0 -260 211 -260q104 0 170.5 77.5t66.5 221.5v577h234v-1040h-221v135h-5q-52 -74 -132 -117t-179 -43z" />
    <glyph glyph-name="uacute" unicode="&#xfa;" 
d="M637 1163h-191l166 295h295zM518 -25q-180 0 -279.5 109t-99.5 319v637h234v-616q0 -260 211 -260q104 0 170.5 77.5t66.5 221.5v577h234v-1040h-221v135h-5q-52 -74 -132 -117t-179 -43z" />
    <glyph glyph-name="ucircumflex" unicode="&#xfb;" 
d="M739 1163l-137 172l-139 -172h-221l233 295h252l234 -295h-222zM518 -25q-180 0 -279.5 109t-99.5 319v637h234v-616q0 -260 211 -260q104 0 170.5 77.5t66.5 221.5v577h234v-1040h-221v135h-5q-52 -74 -132 -117t-179 -43z" />
    <glyph glyph-name="udieresis" unicode="&#xfc;" 
d="M496 1235h-209v223h209v-223zM918 1235h-209v223h209v-223zM518 -25q-180 0 -279.5 109t-99.5 319v637h234v-616q0 -260 211 -260q104 0 170.5 77.5t66.5 221.5v577h234v-1040h-221v135h-5q-52 -74 -132 -117t-179 -43z" />
    <glyph glyph-name="yacute" unicode="&#xfd;" horiz-adv-x="999" 
d="M535 1163h-191l166 295h295zM1012 1040l-402 -1085q-73 -196 -172 -270t-282 -74q-63 0 -117 14v191q51 -15 98 -15q95 0 145 41.5t87 149.5l-381 1048h250l260 -774h4l268 774h242z" />
    <glyph glyph-name="thorn" unicode="&#xfe;" horiz-adv-x="1202" 
d="M383 905h4q44 76 125.5 119t177.5 43q198 0 316 -149t118 -398t-117 -397t-315 -148q-97 0 -179 42.5t-126 117.5h-4v-514h-233v1837h233v-553zM623 885q-115 0 -183.5 -98t-68.5 -267q0 -168 68.5 -266t183.5 -98q118 0 188 99t70 265t-70 265.5t-188 99.5z" />
    <glyph glyph-name="ydieresis" unicode="&#xff;" horiz-adv-x="999" 
d="M393 1235h-209v223h209v-223zM815 1235h-209v223h209v-223zM1012 1040l-402 -1085q-73 -196 -172 -270t-282 -74q-63 0 -117 14v191q51 -15 98 -15q95 0 145 41.5t87 149.5l-381 1048h250l260 -774h4l268 774h242z" />
    <glyph glyph-name="Amacron" unicode="&#x100;" horiz-adv-x="1406" 
d="M1016 1604h-625v159h625v-159zM1006 395h-605l-135 -395h-258l531 1458h329l531 -1458h-258zM932 608l-39 115q-118 349 -188 580h-5q-107 -352 -186 -580l-39 -115h457z" />
    <glyph glyph-name="amacron" unicode="&#x101;" horiz-adv-x="1103" 
d="M838 1243h-625v160h625v-160zM539 1071q208 0 318 -102.5t110 -304.5v-390q0 -167 26 -274h-211q-14 63 -14 145h-4q-115 -168 -350 -168q-160 0 -256.5 87t-96.5 223q0 133 91.5 213t308.5 114q141 23 280 31v41q0 111 -54 163t-148 52q-95 0 -147.5 -48.5t-57.5 -133.5
h-230q8 155 120.5 253.5t314.5 98.5zM741 442v52q-122 -7 -239 -27q-112 -19 -158.5 -56t-46.5 -108q0 -70 48 -111.5t136 -41.5q120 0 189 69q41 42 56 90.5t15 132.5z" />
    <glyph glyph-name="Abreve" unicode="&#x102;" horiz-adv-x="1406" 
d="M702 1546q-150 0 -238 79t-99 222h163q7 -70 53 -108.5t121 -38.5t121.5 38.5t53.5 108.5h165q-11 -143 -100 -222t-240 -79zM1006 395h-605l-135 -395h-258l531 1458h329l531 -1458h-258zM932 608l-39 115q-118 349 -188 580h-5q-107 -352 -186 -580l-39 -115h457z" />
    <glyph glyph-name="abreve" unicode="&#x103;" horiz-adv-x="1103" 
d="M700 1458h166q-11 -143 -100 -222t-240 -79q-150 0 -238.5 79t-99.5 222h164q7 -70 53 -108.5t121 -38.5t121 38.5t53 108.5zM539 1071q208 0 318 -102.5t110 -304.5v-390q0 -167 26 -274h-211q-14 63 -14 145h-4q-115 -168 -350 -168q-160 0 -256.5 87t-96.5 223
q0 133 91.5 213t308.5 114q141 23 280 31v41q0 111 -54 163t-148 52q-95 0 -147.5 -48.5t-57.5 -133.5h-230q8 155 120.5 253.5t314.5 98.5zM741 442v52q-122 -7 -239 -27q-112 -19 -158.5 -56t-46.5 -108q0 -70 48 -111.5t136 -41.5q120 0 189 69q41 42 56 90.5t15 132.5z
" />
    <glyph glyph-name="Aogonek" unicode="&#x104;" horiz-adv-x="1406" 
d="M1327 -262q41 0 76 12v-127q-55 -22 -139 -22q-108 0 -162.5 44.5t-54.5 125.5q0 66 38 117t121 112h-65l-135 395h-605l-135 -395h-258l531 1458h329l531 -1458h-2q-82 -58 -115 -103.5t-33 -91.5q0 -67 78 -67zM932 608l-39 115q-118 349 -188 580h-5
q-107 -352 -186 -580l-39 -115h457z" />
    <glyph glyph-name="aogonek" unicode="&#x105;" horiz-adv-x="1103" 
d="M924 -262q40 0 75 12v-127q-55 -22 -139 -22q-108 0 -162.5 44.5t-54.5 125.5q0 65 38 116.5t122 112.5h-21q-14 63 -14 145h-4q-115 -168 -350 -168q-160 0 -256.5 87t-96.5 223q0 133 91.5 213t308.5 114q141 23 280 31v41q0 111 -54 163t-148 52q-95 0 -147.5 -48.5
t-57.5 -133.5h-230q8 155 120.5 253.5t314.5 98.5q208 0 318 -102.5t110 -304.5v-390q0 -167 26 -274q-81 -58 -114 -103.5t-33 -91.5q0 -67 78 -67zM741 442v52q-122 -7 -239 -27q-112 -19 -158.5 -56t-46.5 -108q0 -70 48 -111.5t136 -41.5q120 0 189 69q41 42 56 90.5
t15 132.5z" />
    <glyph glyph-name="Cacute" unicode="&#x106;" horiz-adv-x="1423" 
d="M770 1556h-190l165 291h295zM735 1489q263 0 422 -147.5t170 -383.5h-248q-15 145 -106.5 228.5t-237.5 83.5q-186 0 -292.5 -144.5t-106.5 -396.5t105 -396.5t288 -144.5q146 0 239 84t113 234h252q-22 -251 -182 -394t-422 -143q-301 0 -474 203.5t-173 556.5
q0 354 174.5 557t478.5 203z" />
    <glyph glyph-name="cacute" unicode="&#x107;" horiz-adv-x="1122" 
d="M618 1163h-190l166 295h295zM584 1071q197 0 325.5 -113.5t143.5 -293.5h-244q-8 101 -69 162t-156 61q-122 0 -191 -98t-69 -269t68.5 -268.5t191.5 -97.5q94 0 154.5 67t68.5 174h246q-15 -191 -142.5 -308.5t-326.5 -117.5q-231 0 -368.5 149t-137.5 402t137.5 402
t368.5 149z" />
    <glyph glyph-name="Ccircumflex" unicode="&#x108;" horiz-adv-x="1423" 
d="M608 1847h252l234 -291h-222l-139 168l-137 -168h-221zM735 1489q263 0 422 -147.5t170 -383.5h-248q-15 145 -106.5 228.5t-237.5 83.5q-186 0 -292.5 -144.5t-106.5 -396.5t105 -396.5t288 -144.5q146 0 239 84t113 234h252q-22 -251 -182 -394t-422 -143
q-301 0 -474 203.5t-173 556.5q0 354 174.5 557t478.5 203z" />
    <glyph glyph-name="ccircumflex" unicode="&#x109;" horiz-adv-x="1122" 
d="M723 1163l-137 172l-140 -172h-221l234 295h252l233 -295h-221zM584 1071q197 0 325.5 -113.5t143.5 -293.5h-244q-8 101 -69 162t-156 61q-122 0 -191 -98t-69 -269t68.5 -268.5t191.5 -97.5q94 0 154.5 67t68.5 174h246q-15 -191 -142.5 -308.5t-326.5 -117.5
q-231 0 -368.5 149t-137.5 402t137.5 402t368.5 149z" />
    <glyph glyph-name="Cdotaccent" unicode="&#x10a;" horiz-adv-x="1423" 
d="M852 1575h-234v223h234v-223zM735 1489q263 0 422 -147.5t170 -383.5h-248q-15 145 -106.5 228.5t-237.5 83.5q-186 0 -292.5 -144.5t-106.5 -396.5t105 -396.5t288 -144.5q146 0 239 84t113 234h252q-22 -251 -182 -394t-422 -143q-301 0 -474 203.5t-173 556.5
q0 354 174.5 557t478.5 203z" />
    <glyph glyph-name="cdotaccent" unicode="&#x10b;" horiz-adv-x="1122" 
d="M700 1235h-233v223h233v-223zM584 1071q197 0 325.5 -113.5t143.5 -293.5h-244q-8 101 -69 162t-156 61q-122 0 -191 -98t-69 -269t68.5 -268.5t191.5 -97.5q94 0 154.5 67t68.5 174h246q-15 -191 -142.5 -308.5t-326.5 -117.5q-231 0 -368.5 149t-137.5 402t137.5 402
t368.5 149z" />
    <glyph glyph-name="Ccaron" unicode="&#x10c;" horiz-adv-x="1423" 
d="M860 1556h-252l-233 291h221l139 -168l137 168h222zM735 1489q263 0 422 -147.5t170 -383.5h-248q-15 145 -106.5 228.5t-237.5 83.5q-186 0 -292.5 -144.5t-106.5 -396.5t105 -396.5t288 -144.5q146 0 239 84t113 234h252q-22 -251 -182 -394t-422 -143
q-301 0 -474 203.5t-173 556.5q0 354 174.5 557t478.5 203z" />
    <glyph glyph-name="ccaron" unicode="&#x10d;" horiz-adv-x="1122" 
d="M711 1163h-252l-234 295h221l140 -172l137 172h221zM584 1071q197 0 325.5 -113.5t143.5 -293.5h-244q-8 101 -69 162t-156 61q-122 0 -191 -98t-69 -269t68.5 -268.5t191.5 -97.5q94 0 154.5 67t68.5 174h246q-15 -191 -142.5 -308.5t-326.5 -117.5q-231 0 -368.5 149
t-137.5 402t137.5 402t368.5 149z" />
    <glyph glyph-name="Dcaron" unicode="&#x10e;" horiz-adv-x="1492" 
d="M805 1556h-252l-234 291h222l139 -168l137 168h221zM180 1458h467q366 0 565 -189.5t199 -539.5t-199 -539.5t-565 -189.5h-467v1458zM424 1245v-1032h219q255 0 384.5 130.5t129.5 385.5t-129.5 385.5t-384.5 130.5h-219z" />
    <glyph glyph-name="dcaron" unicode="&#x10f;" horiz-adv-x="1202" 
d="M1053 0h-228v143h-4q-46 -79 -128 -123.5t-181 -44.5q-198 0 -316 148t-118 397t117 398t315 149q97 0 179 -43t126 -119h4v553h234v-1458zM1251 1096h-135l58 362h194zM580 885q-118 0 -188 -99.5t-70 -265.5t70 -265t188 -99q115 0 183 98t68 266q0 169 -68 267
t-183 98z" />
    <glyph glyph-name="Dcroat" unicode="&#x110;" horiz-adv-x="1492" 
d="M180 1458h467q366 0 565 -189.5t199 -539.5t-199 -539.5t-565 -189.5h-467v647h-131v182h131v629zM424 213h219q255 0 384.5 130.5t129.5 385.5t-129.5 385.5t-384.5 130.5h-219v-416h377v-182h-377v-434z" />
    <glyph glyph-name="dcroat" unicode="&#x111;" horiz-adv-x="1187" 
d="M1186 1184h-133v-1184h-228v143h-4q-46 -79 -128 -123.5t-181 -44.5q-198 0 -316 148t-118 397t117 398t315 149q97 0 179 -43t126 -119h4v279h-258v131h258v143h234v-143h133v-131zM580 156q115 0 183 98t68 266q0 169 -68 267t-183 98q-118 0 -188 -99.5t-70 -265.5
t70 -265t188 -99z" />
    <glyph glyph-name="Emacron" unicode="&#x112;" horiz-adv-x="1280" 
d="M979 1604h-625v159h625v-159zM1155 1245h-729v-395h684v-211h-684v-426h750v-213h-996v1458h975v-213z" />
    <glyph glyph-name="emacron" unicode="&#x113;" horiz-adv-x="1150" 
d="M887 1243h-625v160h625v-160zM582 141q97 0 160.5 47.5t78.5 124.5h240q-31 -148 -157.5 -246t-321.5 -98q-235 0 -369.5 154t-134.5 409q0 236 134.5 387.5t365.5 151.5q177 0 300 -95t166 -259q29 -96 29 -244h-764q6 -168 81 -250t192 -82zM578 899q-108 0 -179 -70
t-86 -202h527q-12 132 -83 202t-179 70z" />
    <glyph glyph-name="Ebreve" unicode="&#x114;" horiz-adv-x="1280" 
d="M842 1847h166q-11 -143 -100 -222t-240 -79q-150 0 -238.5 79t-99.5 222h164q7 -70 53 -108.5t121 -38.5t121 38.5t53 108.5zM1155 1245h-729v-395h684v-211h-684v-426h750v-213h-996v1458h975v-213z" />
    <glyph glyph-name="ebreve" unicode="&#x115;" horiz-adv-x="1150" 
d="M573 1157q-150 0 -238 79t-99 222h163q7 -70 53 -108.5t121 -38.5t121.5 38.5t53.5 108.5h165q-11 -143 -100 -222t-240 -79zM582 141q97 0 160.5 47.5t78.5 124.5h240q-31 -148 -157.5 -246t-321.5 -98q-235 0 -369.5 154t-134.5 409q0 236 134.5 387.5t365.5 151.5
q177 0 300 -95t166 -259q29 -96 29 -244h-764q6 -168 81 -250t192 -82zM578 899q-108 0 -179 -70t-86 -202h527q-12 132 -83 202t-179 70z" />
    <glyph glyph-name="Edotaccent" unicode="&#x116;" horiz-adv-x="1280" 
d="M784 1575h-233v223h233v-223zM1155 1245h-729v-395h684v-211h-684v-426h750v-213h-996v1458h975v-213z" />
    <glyph glyph-name="edotaccent" unicode="&#x117;" horiz-adv-x="1150" 
d="M690 1235h-233v223h233v-223zM582 141q97 0 160.5 47.5t78.5 124.5h240q-31 -148 -157.5 -246t-321.5 -98q-235 0 -369.5 154t-134.5 409q0 236 134.5 387.5t365.5 151.5q177 0 300 -95t166 -259q29 -96 29 -244h-764q6 -168 81 -250t192 -82zM578 899q-108 0 -179 -70
t-86 -202h527q-12 132 -83 202t-179 70z" />
    <glyph glyph-name="Eogonek" unicode="&#x118;" horiz-adv-x="1280" 
d="M1106 -262q42 0 76 12v-127q-55 -22 -140 -22q-108 0 -162.5 44.5t-54.5 125.5q0 65 38 116.5t122 112.5h-805v1458h975v-213h-729v-395h684v-211h-684v-426h750v-213q-82 -58 -115 -103.5t-33 -91.5q0 -67 78 -67z" />
    <glyph glyph-name="eogonek" unicode="&#x119;" horiz-adv-x="1150" 
d="M582 141q97 0 160.5 47.5t78.5 124.5h240q-25 -133 -162 -264q-84 -75 -116.5 -127.5t-32.5 -107.5q0 -76 77 -76q41 0 76 12v-127q-55 -22 -139 -22q-108 0 -162.5 44.5t-54.5 125.5q0 109 110 200v4q-35 -6 -75 -6q-235 0 -369.5 154t-134.5 409q0 236 134.5 387.5
t365.5 151.5q177 0 300 -95t166 -259q29 -96 29 -244h-764q6 -168 81 -250t192 -82zM578 899q-108 0 -179 -70t-86 -202h527q-12 132 -83 202t-179 70z" />
    <glyph glyph-name="Ecaron" unicode="&#x11a;" horiz-adv-x="1280" 
d="M793 1556h-252l-234 291h221l140 -168l137 168h221zM1155 1245h-729v-395h684v-211h-684v-426h750v-213h-996v1458h975v-213z" />
    <glyph glyph-name="ecaron" unicode="&#x11b;" horiz-adv-x="1150" 
d="M449 1163l-234 295h221l139 -172l138 172h221l-234 -295h-251zM582 141q97 0 160.5 47.5t78.5 124.5h240q-31 -148 -157.5 -246t-321.5 -98q-235 0 -369.5 154t-134.5 409q0 236 134.5 387.5t365.5 151.5q177 0 300 -95t166 -259q29 -96 29 -244h-764q6 -168 81 -250
t192 -82zM578 899q-108 0 -179 -70t-86 -202h527q-12 132 -83 202t-179 70z" />
    <glyph glyph-name="Gcircumflex" unicode="&#x11c;" horiz-adv-x="1509" 
d="M616 1847h252l234 -291h-221l-140 168l-137 -168h-221zM758 1489q257 0 414.5 -128.5t179.5 -348.5h-262q-22 125 -107.5 191.5t-224.5 66.5q-195 0 -308.5 -146.5t-113.5 -400.5q0 -256 110.5 -403.5t301.5 -147.5q173 0 271 103t99 309h-373v204h603v-788h-211v180h-4
q-59 -96 -175.5 -151.5t-265.5 -55.5q-281 0 -445.5 200.5t-164.5 549.5q0 356 181 561t495 205z" />
    <glyph glyph-name="gcircumflex" unicode="&#x11d;" horiz-adv-x="1191" 
d="M702 1163l-137 172l-139 -172h-221l233 295h252l234 -295h-222zM514 1069q189 0 303 -174h4v145h221v-974q0 -229 -124 -345t-349 -116q-207 0 -322.5 87t-123.5 242h233q4 -75 61.5 -116t155.5 -41q121 0 181.5 69.5t60.5 227.5v102h-4q-112 -164 -301 -164
q-198 0 -315 143t-117 386q0 242 118.5 385t317.5 143zM567 874q-113 0 -179 -89.5t-66 -243.5t66.5 -245t178.5 -91q118 0 187 91t69 245q0 153 -69 243t-187 90z" />
    <glyph glyph-name="Gbreve" unicode="&#x11e;" horiz-adv-x="1509" 
d="M918 1847h165q-11 -143 -100 -222t-240 -79q-150 0 -238 79t-99 222h163q7 -70 53 -108.5t121 -38.5t121.5 38.5t53.5 108.5zM758 1489q257 0 414.5 -128.5t179.5 -348.5h-262q-22 125 -107.5 191.5t-224.5 66.5q-195 0 -308.5 -146.5t-113.5 -400.5q0 -256 110.5 -403.5
t301.5 -147.5q173 0 271 103t99 309h-373v204h603v-788h-211v180h-4q-59 -96 -175.5 -151.5t-265.5 -55.5q-281 0 -445.5 200.5t-164.5 549.5q0 356 181 561t495 205z" />
    <glyph glyph-name="gbreve" unicode="&#x11f;" horiz-adv-x="1191" 
d="M737 1458h166q-11 -143 -100 -222t-240 -79q-150 0 -238.5 79t-99.5 222h164q7 -70 53 -108.5t121 -38.5t121 38.5t53 108.5zM514 1069q189 0 303 -174h4v145h221v-974q0 -229 -124 -345t-349 -116q-207 0 -322.5 87t-123.5 242h233q4 -75 61.5 -116t155.5 -41
q121 0 181.5 69.5t60.5 227.5v102h-4q-112 -164 -301 -164q-198 0 -315 143t-117 386q0 242 118.5 385t317.5 143zM567 874q-113 0 -179 -89.5t-66 -243.5t66.5 -245t178.5 -91q118 0 187 91t69 245q0 153 -69 243t-187 90z" />
    <glyph glyph-name="Gdotaccent" unicode="&#x120;" horiz-adv-x="1509" 
d="M860 1575h-233v223h233v-223zM758 1489q257 0 414.5 -128.5t179.5 -348.5h-262q-22 125 -107.5 191.5t-224.5 66.5q-195 0 -308.5 -146.5t-113.5 -400.5q0 -256 110.5 -403.5t301.5 -147.5q173 0 271 103t99 309h-373v204h603v-788h-211v180h-4q-59 -96 -175.5 -151.5
t-265.5 -55.5q-281 0 -445.5 200.5t-164.5 549.5q0 356 181 561t495 205z" />
    <glyph glyph-name="gdotaccent" unicode="&#x121;" horiz-adv-x="1191" 
d="M682 1235h-233v223h233v-223zM514 1069q189 0 303 -174h4v145h221v-974q0 -229 -124 -345t-349 -116q-207 0 -322.5 87t-123.5 242h233q4 -75 61.5 -116t155.5 -41q121 0 181.5 69.5t60.5 227.5v102h-4q-112 -164 -301 -164q-198 0 -315 143t-117 386q0 242 118.5 385
t317.5 143zM567 874q-113 0 -179 -89.5t-66 -243.5t66.5 -245t178.5 -91q118 0 187 91t69 245q0 153 -69 243t-187 90z" />
    <glyph glyph-name="Gcommaaccent" unicode="&#x122;" horiz-adv-x="1509" 
d="M758 1489q257 0 414.5 -128.5t179.5 -348.5h-262q-22 125 -107.5 191.5t-224.5 66.5q-195 0 -308.5 -146.5t-113.5 -400.5q0 -256 110.5 -403.5t301.5 -147.5q173 0 271 103t99 309h-373v204h603v-788h-211v180h-4q-59 -96 -175.5 -151.5t-265.5 -55.5
q-281 0 -445.5 200.5t-164.5 549.5q0 356 181 561t495 205zM852 -324l-127 -217h-96l86 217h-82v197h219v-197z" />
    <glyph glyph-name="gcommaaccent" unicode="&#x123;" horiz-adv-x="1191" 
d="M590 1384h80v-196h-217v196l127 218h96zM514 1069q189 0 303 -174h4v145h221v-974q0 -229 -124 -345t-349 -116q-207 0 -322.5 87t-123.5 242h233q4 -75 61.5 -116t155.5 -41q121 0 181.5 69.5t60.5 227.5v102h-4q-112 -164 -301 -164q-198 0 -315 143t-117 386
q0 242 118.5 385t317.5 143zM567 874q-113 0 -179 -89.5t-66 -243.5t66.5 -245t178.5 -91q118 0 187 91t69 245q0 153 -69 243t-187 90z" />
    <glyph glyph-name="Hcircumflex" unicode="&#x124;" horiz-adv-x="1523" 
d="M635 1847h252l233 -291h-221l-139 168l-137 -168h-222zM1341 0h-243v651h-672v-651h-246v1458h246v-594h672v594h243v-1458z" />
    <glyph glyph-name="hcircumflex" unicode="&#x125;" 
d="M475 1847h252l234 -291h-222l-139 168l-137 -168h-221zM383 918h4q109 147 299 147q180 0 279.5 -109t99.5 -319v-637h-234v616q0 261 -210 261q-105 0 -171.5 -77.5t-66.5 -221.5v-578h-233v1458h233v-540z" />
    <glyph glyph-name="Hbar" unicode="&#x126;" horiz-adv-x="1523" 
d="M1458 1169h-117v-1169h-243v651h-672v-651h-246v1169h-114v134h114v155h246v-155h672v155h243v-155h117v-134zM1098 1169h-672v-305h672v305z" />
    <glyph glyph-name="hbar" unicode="&#x127;" 
d="M686 1065q180 0 279.5 -109t99.5 -319v-637h-234v616q0 261 -210 261q-105 0 -171.5 -77.5t-66.5 -221.5v-578h-233v1184h-148v119h148v155h233v-155h244v-119h-244v-266h4q109 147 299 147z" />
    <glyph glyph-name="Itilde" unicode="&#x128;" horiz-adv-x="606" 
d="M532 1841h140q-6 -121 -64 -188.5t-159 -67.5q-43 0 -85.5 16t-70.5 34.5t-62 34.5t-63 16q-82 0 -94 -101h-140q6 120 65.5 188t160.5 68q43 0 85 -15.5t70 -33.5t61.5 -33.5t61.5 -15.5q85 0 94 98zM426 0h-246v1458h246v-1458z" />
    <glyph glyph-name="itilde" unicode="&#x129;" horiz-adv-x="532" 
d="M469 1452h123q-6 -121 -60 -188.5t-147 -67.5q-39 0 -75 16t-59 35t-51 35t-53 16q-75 0 -84 -102h-120q6 122 58 189t146 67q39 0 75 -16t59 -35t51 -35t53 -16q75 0 84 102zM383 0h-233v1040h233v-1040z" />
    <glyph glyph-name="Imacron" unicode="&#x12a;" horiz-adv-x="606" 
d="M616 1604h-624v159h624v-159zM426 0h-246v1458h246v-1458z" />
    <glyph glyph-name="imacron" unicode="&#x12b;" horiz-adv-x="532" 
d="M543 1249h-555v160h555v-160zM383 0h-233v1040h233v-1040z" />
    <glyph glyph-name="Ibreve" unicode="&#x12c;" horiz-adv-x="606" 
d="M477 1847h166q-11 -143 -100 -222t-240 -79q-150 0 -238.5 79t-99.5 222h164q7 -70 53 -108.5t121 -38.5t121 38.5t53 108.5zM426 0h-246v1458h246v-1458z" />
    <glyph glyph-name="ibreve" unicode="&#x12d;" horiz-adv-x="532" 
d="M416 1458h155q-6 -142 -86 -221.5t-219 -79.5t-219 79t-86 222h154q6 -73 45 -113t106 -40t106 40.5t44 112.5zM383 0h-233v1040h233v-1040z" />
    <glyph glyph-name="Iogonek" unicode="&#x12e;" horiz-adv-x="606" 
d="M356 -262q41 0 76 12v-127q-55 -22 -139 -22q-108 0 -162.5 44.5t-54.5 125.5q0 65 38 116.5t122 112.5h-56v1458h246v-1458q-81 -58 -114 -103.5t-33 -91.5q0 -67 77 -67z" />
    <glyph glyph-name="iogonek" unicode="&#x12f;" horiz-adv-x="532" 
d="M383 1235h-233v223h233v-223zM313 -262q41 0 76 12v-127q-55 -22 -139 -22q-108 0 -162.5 44.5t-54.5 125.5q0 65 38 116.5t122 112.5h-43v1040h233v-1040q-81 -58 -114 -103.5t-33 -91.5q0 -67 77 -67z" />
    <glyph glyph-name="Idotaccent" unicode="&#x130;" horiz-adv-x="606" 
d="M420 1575h-234v223h234v-223zM426 0h-246v1458h246v-1458z" />
    <glyph glyph-name="dotlessi" unicode="&#x131;" horiz-adv-x="532" 
d="M383 0h-233v1040h233v-1040z" />
    <glyph glyph-name="IJ" unicode="&#x132;" horiz-adv-x="1372" 
d="M426 0h-246v1458h246v-1458zM1202 1458v-1016q0 -232 -109.5 -343t-338.5 -111q-63 0 -117 14v211q44 -8 92 -8q119 0 173 61t54 219v973h246z" />
    <glyph glyph-name="ij" unicode="&#x133;" horiz-adv-x="1073" 
d="M383 1235h-233v223h233v-223zM924 1235h-234v223h234v-223zM383 0h-233v1040h233v-1040zM924 1040v-1081q0 -179 -87.5 -263.5t-240.5 -84.5q-54 0 -119 14v174q27 -6 58 -6q79 0 117 44.5t38 152.5v1050h234z" />
    <glyph glyph-name="Jcircumflex" unicode="&#x134;" horiz-adv-x="765" 
d="M346 1847h252l233 -291h-221l-139 168l-137 -168h-221zM596 1458v-1016q0 -232 -110 -343t-339 -111q-62 0 -116 14v211q44 -8 92 -8q119 0 173 61t54 219v973h246z" />
    <glyph glyph-name="jcircumflex" unicode="&#x135;" horiz-adv-x="540" 
d="M602 1165h-209l-119 174l-118 -174h-211l207 293h243zM391 1040v-1081q0 -179 -87.5 -263.5t-240.5 -84.5q-53 0 -118 14v174q27 -6 57 -6q79 0 117.5 44.5t38.5 152.5v1050h233z" />
    <glyph glyph-name="Kcommaaccent" unicode="&#x136;" horiz-adv-x="1318" 
d="M662 764l649 -764h-318l-563 702h-4v-702h-246v1458h246v-649h4l533 649h294zM784 -324l-127 -217h-96l86 217h-82v197h219v-197z" />
    <glyph glyph-name="kcommaaccent" unicode="&#x137;" horiz-adv-x="1069" 
d="M1087 0h-294l-406 504h-4v-504h-233v1458h233v-844h4l379 426h272l-430 -475zM469 -127h219v-197l-127 -217h-96l86 217h-82v197z" />
    <glyph glyph-name="kgreenlandic" unicode="&#x138;" horiz-adv-x="1103" 
d="M1087 0h-294l-406 504h-4v-504h-233v1040h233v-426h4l379 426h272l-430 -475z" />
    <glyph glyph-name="Lacute" unicode="&#x139;" horiz-adv-x="1163" 
d="M401 1556h-190l166 291h295zM426 213h717v-213h-963v1458h246v-1245z" />
    <glyph glyph-name="lacute" unicode="&#x13a;" horiz-adv-x="532" 
d="M336 1581h-191l166 295h295zM383 0h-233v1458h233v-1458z" />
    <glyph glyph-name="Lcommaaccent" unicode="&#x13b;" horiz-adv-x="1163" 
d="M426 213h717v-213h-963v1458h246v-1245zM772 -324l-127 -217h-96l86 217h-82v197h219v-197z" />
    <glyph glyph-name="lcommaaccent" unicode="&#x13c;" horiz-adv-x="532" 
d="M383 0h-233v1458h233v-1458zM377 -324l-127 -217h-96l86 217h-82v197h219v-197z" />
    <glyph glyph-name="Lcaron" unicode="&#x13d;" horiz-adv-x="1163" 
d="M426 213h717v-213h-963v1458h246v-1245zM662 1006h-136l58 452h194z" />
    <glyph glyph-name="lcaron" unicode="&#x13e;" horiz-adv-x="532" 
d="M383 0h-233v1458h233v-1458zM584 1096h-135l57 362h194z" />
    <glyph glyph-name="Ldot" unicode="&#x13f;" horiz-adv-x="1327" 
d="M426 213h717v-213h-963v1458h246v-1245zM1092 719h-271v291h271v-291z" />
    <glyph glyph-name="ldot" unicode="&#x140;" horiz-adv-x="903" 
d="M383 0h-233v1458h233v-1458zM854 584h-270v290h270v-290z" />
    <glyph glyph-name="Lslash" unicode="&#x141;" horiz-adv-x="1163" 
d="M1143 213v-213h-963v598l-151 -90v209l151 90v651h246v-522l293 176v-211l-293 -176v-512h717z" />
    <glyph glyph-name="lslash" unicode="&#x142;" horiz-adv-x="632" 
d="M612 846l-180 -107v-739h-233v629l-179 -107v199l179 106v631h233v-520l180 106v-198z" />
    <glyph glyph-name="Nacute" unicode="&#x143;" horiz-adv-x="1568" 
d="M819 1556h-190l166 291h295zM1386 0h-352l-315 610q-178 347 -309 627h-4q12 -332 12 -664v-573h-238v1458h355l313 -610q178 -347 309 -627h4q-10 368 -10 664v573h235v-1458z" />
    <glyph glyph-name="nacute" unicode="&#x144;" 
d="M643 1163h-190l165 295h295zM686 1065q180 0 279.5 -109t99.5 -319v-637h-234v616q0 261 -210 261q-105 0 -171.5 -77.5t-66.5 -221.5v-578h-233v1040h221v-135h4q52 74 132 117t179 43z" />
    <glyph glyph-name="Ncommaaccent" unicode="&#x145;" horiz-adv-x="1568" 
d="M1386 0h-352l-315 610q-178 347 -309 627h-4q12 -332 12 -664v-573h-238v1458h355l313 -610q178 -347 309 -627h4q-10 368 -10 664v573h235v-1458zM895 -324l-127 -217h-96l86 217h-82v197h219v-197z" />
    <glyph glyph-name="ncommaaccent" unicode="&#x146;" 
d="M686 1065q180 0 279.5 -109t99.5 -319v-637h-234v616q0 261 -210 261q-105 0 -171.5 -77.5t-66.5 -221.5v-578h-233v1040h221v-135h4q52 74 132 117t179 43zM717 -324l-127 -217h-96l86 217h-82v197h219v-197z" />
    <glyph glyph-name="Ncaron" unicode="&#x147;" horiz-adv-x="1568" 
d="M909 1556h-252l-233 291h221l139 -168l138 168h221zM1386 0h-352l-315 610q-178 347 -309 627h-4q12 -332 12 -664v-573h-238v1458h355l313 -610q178 -347 309 -627h4q-10 368 -10 664v573h235v-1458z" />
    <glyph glyph-name="ncaron" unicode="&#x148;" 
d="M733 1163h-252l-233 295h221l139 -172l137 172h222zM686 1065q180 0 279.5 -109t99.5 -319v-637h-234v616q0 261 -210 261q-105 0 -171.5 -77.5t-66.5 -221.5v-578h-233v1040h221v-135h4q52 74 132 117t179 43z" />
    <glyph glyph-name="napostrophe" unicode="&#x149;" horiz-adv-x="1478" 
d="M369 1202l-113 -287h-127l84 287h-80v256h236v-256zM961 1065q180 0 279 -108.5t99 -319.5v-637h-233v616q0 261 -211 261q-105 0 -171.5 -77.5t-66.5 -221.5v-578h-233v1040h221v-135h4q52 74 132.5 117t179.5 43z" />
    <glyph glyph-name="Eng" unicode="&#x14a;" horiz-adv-x="1525" 
d="M1346 1458v-1509q0 -177 -87.5 -259.5t-242.5 -82.5q-54 0 -119 14v174q30 -6 61 -6q77 0 114.5 40.5t37.5 139.5v31l-397 664q-163 270 -305 534h-5q15 -292 15 -584v-614h-238v1458h318l315 -528q191 -323 305 -537h4q-14 273 -14 584v481h238z" />
    <glyph glyph-name="eng" unicode="&#x14b;" 
d="M692 1065q173 0 266 -100q57 -57 82 -139t25 -216v-655q0 -177 -87.5 -259.5t-240.5 -82.5q-67 0 -119 14v174q27 -6 58 -6q79 0 117 42.5t38 146.5v606q0 94 -13 144.5t-46 86.5q-52 58 -149 58q-105 0 -172.5 -78t-67.5 -223v-578h-233v1040h223v-135h4
q55 81 137 120.5t178 39.5z" />
    <glyph glyph-name="Omacron" unicode="&#x14c;" horiz-adv-x="1515" 
d="M1069 1604h-625v159h625v-159zM758 1489q313 0 494.5 -204t181.5 -556t-181.5 -556t-494.5 -204t-494.5 204t-181.5 556t181.5 556t494.5 204zM758 1270q-195 0 -308.5 -145.5t-113.5 -395.5t113.5 -395.5t308.5 -145.5t308.5 145.5t113.5 395.5t-113.5 395.5
t-308.5 145.5z" />
    <glyph glyph-name="omacron" unicode="&#x14d;" horiz-adv-x="1181" 
d="M903 1243h-624v160h624v-160zM592 1071q236 0 374 -148.5t138 -402.5t-138 -402.5t-374 -148.5t-375 149t-139 402t139 402t375 149zM592 887q-124 0 -196 -99t-72 -268t72 -267.5t196 -98.5t196 98.5t72 267.5t-72 268t-196 99z" />
    <glyph glyph-name="Obreve" unicode="&#x14e;" horiz-adv-x="1515" 
d="M932 1847h166q-11 -143 -100 -222t-240 -79q-150 0 -238.5 79t-99.5 222h164q7 -70 53 -108.5t121 -38.5t121 38.5t53 108.5zM758 1489q313 0 494.5 -204t181.5 -556t-181.5 -556t-494.5 -204t-494.5 204t-181.5 556t181.5 556t494.5 204zM758 1270q-195 0 -308.5 -145.5
t-113.5 -395.5t113.5 -395.5t308.5 -145.5t308.5 145.5t113.5 395.5t-113.5 395.5t-308.5 145.5z" />
    <glyph glyph-name="obreve" unicode="&#x14f;" horiz-adv-x="1181" 
d="M764 1458h166q-11 -143 -100 -222t-240 -79q-150 0 -238.5 79t-99.5 222h164q7 -70 53 -108.5t121 -38.5t121 38.5t53 108.5zM592 1071q236 0 374 -148.5t138 -402.5t-138 -402.5t-374 -148.5t-375 149t-139 402t139 402t375 149zM592 887q-124 0 -196 -99t-72 -268
t72 -267.5t196 -98.5t196 98.5t72 267.5t-72 268t-196 99z" />
    <glyph glyph-name="Ohungarumlaut" unicode="&#x150;" horiz-adv-x="1515" 
d="M598 1552h-188l206 295h265zM956 1552h-188l207 295h264zM758 1489q313 0 494.5 -204t181.5 -556t-181.5 -556t-494.5 -204t-494.5 204t-181.5 556t181.5 556t494.5 204zM758 1270q-195 0 -308.5 -145.5t-113.5 -395.5t113.5 -395.5t308.5 -145.5t308.5 145.5
t113.5 395.5t-113.5 395.5t-308.5 145.5z" />
    <glyph glyph-name="ohungarumlaut" unicode="&#x151;" horiz-adv-x="1181" 
d="M461 1163h-189l207 295h264zM819 1163h-188l207 295h264zM592 1071q236 0 374 -148.5t138 -402.5t-138 -402.5t-374 -148.5t-375 149t-139 402t139 402t375 149zM592 887q-124 0 -196 -99t-72 -268t72 -267.5t196 -98.5t196 98.5t72 267.5t-72 268t-196 99z" />
    <glyph glyph-name="OE" unicode="&#x152;" horiz-adv-x="2068" 
d="M1942 1245h-730v-395h684v-211h-684v-426h750v-213h-1114q-367 0 -566.5 189.5t-199.5 539.5t199.5 539.5t566.5 189.5h1094v-213zM967 1245h-119q-253 0 -382.5 -130.5t-129.5 -385.5t129.5 -385.5t382.5 -130.5h119v1032z" />
    <glyph glyph-name="oe" unicode="&#x153;" horiz-adv-x="1869" 
d="M1313 141q93 0 153 47.5t74 124.5h238q-28 -147 -151.5 -245.5t-313.5 -98.5q-239 0 -365 181q-129 -181 -366 -181q-232 0 -368 149t-136 402t136 402t368 149q240 0 364 -178q128 178 363 178q170 0 291.5 -95.5t164.5 -258.5q27 -111 27 -244h-737q4 -168 75 -250
t183 -82zM1309 899q-102 0 -168.5 -70t-81.5 -202h500q-10 132 -78 202t-172 70zM582 154q119 0 188.5 98.5t69.5 267.5t-69.5 268t-188.5 99q-120 0 -189 -99t-69 -268t69 -267.5t189 -98.5z" />
    <glyph glyph-name="Racute" unicode="&#x154;" horiz-adv-x="1337" 
d="M690 1556h-190l166 291h295zM180 1458h502q263 0 391.5 -104t128.5 -299q0 -136 -72.5 -233t-197.5 -128v-4q78 -26 122.5 -83.5t94.5 -194.5l149 -412h-268l-123 367q-43 124 -100.5 171.5t-169.5 47.5h-211v-586h-246v1458zM426 1255v-469h244q147 0 216.5 65t67.5 179
q0 225 -299 225h-229z" />
    <glyph glyph-name="racute" unicode="&#x155;" horiz-adv-x="772" 
d="M461 1163h-191l166 295h295zM668 1055q36 0 86 -11v-206q-39 8 -82 8q-140 0 -214.5 -86.5t-74.5 -249.5v-510h-233v1040h217v-153h4q104 168 297 168z" />
    <glyph glyph-name="Rcommaaccent" unicode="&#x156;" horiz-adv-x="1337" 
d="M180 1458h502q263 0 391.5 -104t128.5 -299q0 -136 -72.5 -233t-197.5 -128v-4q78 -26 122.5 -83.5t94.5 -194.5l149 -412h-268l-123 367q-43 124 -100.5 171.5t-169.5 47.5h-211v-586h-246v1458zM426 1255v-469h244q147 0 216.5 65t67.5 179q0 225 -299 225h-229z
M813 -324l-127 -217h-96l86 217h-82v197h219v-197z" />
    <glyph glyph-name="rcommaaccent" unicode="&#x157;" horiz-adv-x="772" 
d="M668 1055q36 0 86 -11v-206q-39 8 -82 8q-140 0 -214.5 -86.5t-74.5 -249.5v-510h-233v1040h217v-153h4q104 168 297 168zM377 -324l-127 -217h-96l86 217h-82v197h219v-197z" />
    <glyph glyph-name="Rcaron" unicode="&#x158;" horiz-adv-x="1337" 
d="M780 1556h-252l-233 291h221l139 -168l138 168h221zM180 1458h502q263 0 391.5 -104t128.5 -299q0 -136 -72.5 -233t-197.5 -128v-4q78 -26 122.5 -83.5t94.5 -194.5l149 -412h-268l-123 367q-43 124 -100.5 171.5t-169.5 47.5h-211v-586h-246v1458zM426 1255v-469h244
q147 0 216.5 65t67.5 179q0 225 -299 225h-229z" />
    <glyph glyph-name="rcaron" unicode="&#x159;" horiz-adv-x="772" 
d="M551 1163h-252l-233 295h221l139 -172l137 172h221zM668 1055q36 0 86 -11v-206q-39 8 -82 8q-140 0 -214.5 -86.5t-74.5 -249.5v-510h-233v1040h217v-153h4q104 168 297 168z" />
    <glyph glyph-name="Sacute" unicode="&#x15a;" horiz-adv-x="1269" 
d="M639 1556h-190l165 291h295zM604 1489q265 0 401 -122t136 -357h-248q0 137 -75.5 207.5t-217.5 70.5q-118 0 -187 -52.5t-69 -141.5q0 -94 72.5 -140t261.5 -92q53 -13 89.5 -23t84 -25t79.5 -29.5t69.5 -35.5t62 -43.5t49 -52.5t39 -64.5t23 -78.5t8.5 -94
q0 -202 -149.5 -324.5t-395.5 -122.5q-267 0 -417 132t-150 380h252q0 -155 81.5 -232t235.5 -77q136 0 212.5 59t76.5 162q0 37 -8 64.5t-29 50t-43.5 38t-65.5 31t-81 26t-103 26.5q-56 14 -91 23.5t-83.5 25t-79.5 29.5t-70 34.5t-62.5 42.5t-49 52t-39 64t-22.5 77.5
t-9 93.5q0 187 140.5 302.5t371.5 115.5z" />
    <glyph glyph-name="sacute" unicode="&#x15b;" horiz-adv-x="1042" 
d="M543 1163h-191l166 295h295zM508 1071q200 0 310.5 -91t111.5 -263h-225q0 92 -51.5 138t-147.5 46q-81 0 -126.5 -33t-45.5 -90q0 -62 47 -88t188 -61q157 -41 217 -69q144 -66 170 -200q7 -34 7 -73q0 -142 -119 -230t-318 -88q-213 0 -331 95t-119 278h237
q0 -95 56.5 -147t160.5 -52q88 0 138.5 35t50.5 94q0 20 -3 36t-13 29.5t-19 23.5t-29.5 20t-35 16.5t-46.5 15.5t-52.5 14.5t-63.5 16.5q-147 36 -205 65q-134 65 -150 207q-2 21 -2 44q0 138 112.5 224.5t295.5 86.5z" />
    <glyph glyph-name="Scircumflex" unicode="&#x15c;" horiz-adv-x="1269" 
d="M477 1847h252l234 -291h-222l-139 168l-137 -168h-221zM604 1489q265 0 401 -122t136 -357h-248q0 137 -75.5 207.5t-217.5 70.5q-118 0 -187 -52.5t-69 -141.5q0 -94 72.5 -140t261.5 -92q53 -13 89.5 -23t84 -25t79.5 -29.5t69.5 -35.5t62 -43.5t49 -52.5t39 -64.5
t23 -78.5t8.5 -94q0 -202 -149.5 -324.5t-395.5 -122.5q-267 0 -417 132t-150 380h252q0 -155 81.5 -232t235.5 -77q136 0 212.5 59t76.5 162q0 37 -8 64.5t-29 50t-43.5 38t-65.5 31t-81 26t-103 26.5q-56 14 -91 23.5t-83.5 25t-79.5 29.5t-70 34.5t-62.5 42.5t-49 52
t-39 64t-22.5 77.5t-9 93.5q0 187 140.5 302.5t371.5 115.5z" />
    <glyph glyph-name="scircumflex" unicode="&#x15d;" horiz-adv-x="1042" 
d="M645 1163l-137 172l-139 -172h-222l234 295h252l233 -295h-221zM508 1071q200 0 310.5 -91t111.5 -263h-225q0 92 -51.5 138t-147.5 46q-81 0 -126.5 -33t-45.5 -90q0 -62 47 -88t188 -61q157 -41 217 -69q144 -66 170 -200q7 -34 7 -73q0 -142 -119 -230t-318 -88
q-213 0 -331 95t-119 278h237q0 -95 56.5 -147t160.5 -52q88 0 138.5 35t50.5 94q0 20 -3 36t-13 29.5t-19 23.5t-29.5 20t-35 16.5t-46.5 15.5t-52.5 14.5t-63.5 16.5q-147 36 -205 65q-134 65 -150 207q-2 21 -2 44q0 138 112.5 224.5t295.5 86.5z" />
    <glyph glyph-name="Scedilla" unicode="&#x15e;" horiz-adv-x="1269" 
d="M1182 416q0 -192 -134.5 -312.5t-359.5 -132.5l-61 -98q19 8 59 8q71 0 120.5 -41t49.5 -110q0 -80 -63 -133.5t-177 -53.5q-116 0 -223 60l41 82q79 -43 162 -43q51 0 80 20t29 57t-28 59.5t-77 22.5q-35 0 -65 -12l-39 43l88 139q-244 12 -379 143.5t-135 366.5h252
q0 -155 81.5 -232t235.5 -77q136 0 212.5 59t76.5 162q0 37 -8 64.5t-29 50t-43.5 38t-65.5 31t-81 26t-103 26.5q-56 14 -91 23.5t-83.5 25t-79.5 29.5t-70 34.5t-62.5 42.5t-49 52t-39 64t-22.5 77.5t-9 93.5q0 187 140.5 302.5t371.5 115.5q265 0 401 -122t136 -357h-248
q0 137 -75.5 207.5t-217.5 70.5q-118 0 -187 -52.5t-69 -141.5q0 -94 72.5 -140t261.5 -92q53 -13 89.5 -23t84 -25t79.5 -29.5t69.5 -35.5t62 -43.5t49 -52.5t39 -64.5t23 -78.5t8.5 -94z" />
    <glyph glyph-name="scedilla" unicode="&#x15f;" horiz-adv-x="1042" 
d="M963 287q0 -131 -100.5 -217t-274.5 -99l-62 -98q19 8 60 8q71 0 120.5 -41t49.5 -110q0 -80 -63 -133.5t-177 -53.5q-116 0 -223 60l41 82q79 -43 162 -43q51 0 79.5 20t28.5 57t-27.5 59.5t-76.5 22.5q-36 0 -66 -12l-39 43l88 139q-194 9 -300 103t-107 268h237
q0 -95 56.5 -147t160.5 -52q88 0 138.5 35t50.5 94q0 20 -3 36t-13 29.5t-19 23.5t-29.5 20t-35 16.5t-46.5 15.5t-52.5 14.5t-63.5 16.5q-147 36 -205 65q-134 65 -150 207q-2 21 -2 44q0 138 112.5 224.5t295.5 86.5q200 0 310.5 -91t111.5 -263h-225q0 92 -51.5 138
t-147.5 46q-81 0 -126.5 -33t-45.5 -90q0 -62 47 -88t188 -61q157 -41 217 -69q144 -66 170 -200q7 -34 7 -73z" />
    <glyph glyph-name="Scaron" unicode="&#x160;" horiz-adv-x="1269" 
d="M729 1556h-252l-233 291h221l139 -168l137 168h222zM604 1489q265 0 401 -122t136 -357h-248q0 137 -75.5 207.5t-217.5 70.5q-118 0 -187 -52.5t-69 -141.5q0 -94 72.5 -140t261.5 -92q53 -13 89.5 -23t84 -25t79.5 -29.5t69.5 -35.5t62 -43.5t49 -52.5t39 -64.5
t23 -78.5t8.5 -94q0 -202 -149.5 -324.5t-395.5 -122.5q-267 0 -417 132t-150 380h252q0 -155 81.5 -232t235.5 -77q136 0 212.5 59t76.5 162q0 37 -8 64.5t-29 50t-43.5 38t-65.5 31t-81 26t-103 26.5q-56 14 -91 23.5t-83.5 25t-79.5 29.5t-70 34.5t-62.5 42.5t-49 52
t-39 64t-22.5 77.5t-9 93.5q0 187 140.5 302.5t371.5 115.5z" />
    <glyph glyph-name="scaron" unicode="&#x161;" horiz-adv-x="1042" 
d="M633 1163h-252l-234 295h222l139 -172l137 172h221zM508 1071q200 0 310.5 -91t111.5 -263h-225q0 92 -51.5 138t-147.5 46q-81 0 -126.5 -33t-45.5 -90q0 -62 47 -88t188 -61q157 -41 217 -69q144 -66 170 -200q7 -34 7 -73q0 -142 -119 -230t-318 -88q-213 0 -331 95
t-119 278h237q0 -95 56.5 -147t160.5 -52q88 0 138.5 35t50.5 94q0 20 -3 36t-13 29.5t-19 23.5t-29.5 20t-35 16.5t-46.5 15.5t-52.5 14.5t-63.5 16.5q-147 36 -205 65q-134 65 -150 207q-2 21 -2 44q0 138 112.5 224.5t295.5 86.5z" />
    <glyph glyph-name="Tcedilla" unicode="&#x162;" horiz-adv-x="1243" 
d="M1223 1245h-480v-1245h-243v1245h-480v213h1203v-213zM733 -324l-127 -217h-96l86 217h-82v197h219v-197z" />
    <glyph glyph-name="tcedilla" unicode="&#x163;" horiz-adv-x="694" 
d="M567 178q45 0 72 10v-182q-63 -18 -131 -18q-165 0 -240 75t-75 244v555h-175v178h175v260h233v-260h203v-178h-203v-520q0 -88 32.5 -126t108.5 -38zM279 -127h219v-197l-127 -217h-97l86 217h-81v197z" />
    <glyph glyph-name="Tcaron" unicode="&#x164;" horiz-adv-x="1243" 
d="M748 1556h-252l-234 291h221l140 -168l137 168h221zM1223 1245h-480v-1245h-243v1245h-480v213h1203v-213z" />
    <glyph glyph-name="tcaron" unicode="&#x165;" horiz-adv-x="694" 
d="M627 1096h-135l57 362h194zM426 862v-520q0 -88 32.5 -126t108.5 -38q45 0 72 10v-182q-63 -18 -131 -18q-165 0 -240 75t-75 244v555h-175v178h175v260h233v-260h203v-178h-203z" />
    <glyph glyph-name="Tbar" unicode="&#x166;" horiz-adv-x="1243" 
d="M743 1245v-418h285v-180h-285v-647h-243v647h-283v180h283v418h-480v213h1203v-213h-480z" />
    <glyph glyph-name="tbar" unicode="&#x167;" horiz-adv-x="690" 
d="M567 178q45 0 72 10v-182q-63 -18 -131 -18q-165 0 -239 74.5t-74 244.5v172h-170v146h170v237h-177v178h177v260h231v-260h203v-178h-203v-237h197v-146h-197v-137q0 -88 32.5 -126t108.5 -38z" />
    <glyph glyph-name="Utilde" unicode="&#x168;" horiz-adv-x="1458" 
d="M958 1841h140q-6 -121 -64.5 -188.5t-159.5 -67.5q-55 0 -106.5 25.5t-94.5 50.5t-79 25q-82 0 -94 -101h-140q6 120 65.5 188t160.5 68q43 0 85 -15.5t70 -33.5t61.5 -33.5t61.5 -15.5q85 0 94 98zM1288 1458v-907q0 -283 -144 -432.5t-415 -149.5t-416 149.5
t-145 432.5v907h246v-899q0 -183 81.5 -277t233.5 -94t233.5 94t81.5 277v899h244z" />
    <glyph glyph-name="utilde" unicode="&#x169;" 
d="M831 1452h140q-6 -121 -64 -188.5t-159 -67.5q-55 0 -106.5 24.5t-95 49t-79.5 24.5q-82 0 -94 -98h-140q6 120 65.5 188t160.5 68q43 0 85 -15.5t70 -34.5t61.5 -34.5t61.5 -15.5q85 0 94 100zM518 -25q-180 0 -279.5 109t-99.5 319v637h234v-616q0 -260 211 -260
q104 0 170.5 77.5t66.5 221.5v577h234v-1040h-221v135h-5q-52 -74 -132 -117t-179 -43z" />
    <glyph glyph-name="Umacron" unicode="&#x16a;" horiz-adv-x="1458" 
d="M1040 1604h-624v159h624v-159zM1288 1458v-907q0 -283 -144 -432.5t-415 -149.5t-416 149.5t-145 432.5v907h246v-899q0 -183 81.5 -277t233.5 -94t233.5 94t81.5 277v899h244z" />
    <glyph glyph-name="umacron" unicode="&#x16b;" 
d="M913 1243h-624v160h624v-160zM518 -25q-180 0 -279.5 109t-99.5 319v637h234v-616q0 -260 211 -260q104 0 170.5 77.5t66.5 221.5v577h234v-1040h-221v135h-5q-52 -74 -132 -117t-179 -43z" />
    <glyph glyph-name="Ubreve" unicode="&#x16c;" horiz-adv-x="1458" 
d="M903 1847h166q-11 -143 -100 -222t-240 -79q-150 0 -238.5 79t-99.5 222h164q7 -70 53 -108.5t121 -38.5t121 38.5t53 108.5zM1288 1458v-907q0 -283 -144 -432.5t-415 -149.5t-416 149.5t-145 432.5v907h246v-899q0 -183 81.5 -277t233.5 -94t233.5 94t81.5 277v899h244
z" />
    <glyph glyph-name="ubreve" unicode="&#x16d;" 
d="M776 1458h166q-11 -143 -100 -222t-240 -79q-150 0 -238.5 79t-99.5 222h164q7 -70 53 -108.5t121 -38.5t121 38.5t53 108.5zM518 -25q-180 0 -279.5 109t-99.5 319v637h234v-616q0 -260 211 -260q104 0 170.5 77.5t66.5 221.5v577h234v-1040h-221v135h-5
q-52 -74 -132 -117t-179 -43z" />
    <glyph glyph-name="Uring" unicode="&#x16e;" horiz-adv-x="1458" 
d="M729 1964q89 0 151 -62t62 -151t-62 -151t-151 -62t-151 62t-62 151t62 151t151 62zM729 1866q-47 0 -81 -34t-34 -81t34 -81t81 -34t81 34t34 81t-34 81t-81 34zM1288 1458v-907q0 -283 -144 -432.5t-415 -149.5t-416 149.5t-145 432.5v907h246v-899q0 -183 81.5 -277
t233.5 -94t233.5 94t81.5 277v899h244z" />
    <glyph glyph-name="uring" unicode="&#x16f;" 
d="M602 1575q89 0 151 -62t62 -151t-62 -151t-151 -62t-151 62t-62 151t62 151t151 62zM602 1477q-47 0 -81 -34t-34 -81t34 -81t81 -34t81 34t34 81t-34 81t-81 34zM518 -25q-180 0 -279.5 109t-99.5 319v637h234v-616q0 -260 211 -260q104 0 170.5 77.5t66.5 221.5v577
h234v-1040h-221v135h-5q-52 -74 -132 -117t-179 -43z" />
    <glyph glyph-name="Uhungarumlaut" unicode="&#x170;" horiz-adv-x="1458" 
d="M569 1552h-188l207 295h264zM928 1552h-189l207 295h264zM1288 1458v-907q0 -283 -144 -432.5t-415 -149.5t-416 149.5t-145 432.5v907h246v-899q0 -183 81.5 -277t233.5 -94t233.5 94t81.5 277v899h244z" />
    <glyph glyph-name="uhungarumlaut" unicode="&#x171;" 
d="M471 1163h-188l206 295h265zM829 1163h-188l207 295h264zM518 -25q-180 0 -279.5 109t-99.5 319v637h234v-616q0 -260 211 -260q104 0 170.5 77.5t66.5 221.5v577h234v-1040h-221v135h-5q-52 -74 -132 -117t-179 -43z" />
    <glyph glyph-name="Uogonek" unicode="&#x172;" horiz-adv-x="1458" 
d="M1288 1458v-907q0 -181 -58 -306.5t-175 -217.5q-82 -62 -114 -109.5t-32 -97.5q0 -82 78 -82q41 0 76 12v-127q-55 -22 -139 -22q-108 0 -162.5 46.5t-54.5 131.5q0 58 27.5 102.5t88.5 93.5v5q-53 -11 -94 -11q-271 0 -416 149.5t-145 432.5v907h246v-899
q0 -183 81.5 -277t233.5 -94t233.5 94t81.5 277v899h244z" />
    <glyph glyph-name="uogonek" unicode="&#x173;" 
d="M983 -262q41 0 76 12v-127q-55 -22 -139 -22q-108 0 -163 44.5t-55 125.5q0 65 38 116.5t122 112.5h-28v135h-5q-52 -74 -132 -117t-179 -43q-180 0 -279.5 109t-99.5 319v637h234v-616q0 -260 211 -260q104 0 170.5 77.5t66.5 221.5v577h234v-1040h-2
q-82 -58 -115 -103.5t-33 -91.5q0 -67 78 -67z" />
    <glyph glyph-name="Wcircumflex" unicode="&#x174;" horiz-adv-x="1916" 
d="M829 1847h252l234 -291h-221l-140 168l-137 -168h-221zM1575 0h-330l-145 606q-82 344 -139 641h-5q-57 -297 -139 -641l-145 -606h-330l-322 1458h242l119 -561q80 -368 129 -657h4q69 332 148 659l135 559h323l135 -559q79 -327 148 -659h4q43 251 127 657l121 561h241
z" />
    <glyph glyph-name="wcircumflex" unicode="&#x175;" horiz-adv-x="1617" 
d="M946 1163l-137 172l-139 -172h-221l233 295h252l233 -295h-221zM1352 0h-334l-107 430q-44 176 -100 449h-4q-56 -273 -100 -449l-107 -430h-334l-254 1040h234l94 -417q53 -230 94 -461h4q36 178 103 452l104 426h328l104 -426q67 -274 103 -452h4q41 231 94 461l94 417
h234z" />
    <glyph glyph-name="Ycircumflex" unicode="&#x176;" horiz-adv-x="1282" 
d="M514 1847h252l233 -291h-221l-139 168l-137 -168h-221zM764 586v-586h-246v586l-512 872h279l159 -289q110 -199 195 -376h4q92 191 197 376l157 289h277z" />
    <glyph glyph-name="ycircumflex" unicode="&#x177;" horiz-adv-x="999" 
d="M637 1163l-137 172l-140 -172h-221l234 295h252l233 -295h-221zM1012 1040l-402 -1085q-73 -196 -172 -270t-282 -74q-63 0 -117 14v191q51 -15 98 -15q95 0 145 41.5t87 149.5l-381 1048h250l260 -774h4l268 774h242z" />
    <glyph glyph-name="Ydieresis" unicode="&#x178;" horiz-adv-x="1282" 
d="M535 1581h-209v223h209v-223zM956 1581h-208v223h208v-223zM764 586v-586h-246v586l-512 872h279l159 -289q110 -199 195 -376h4q92 191 197 376l157 289h277z" />
    <glyph glyph-name="Zacute" unicode="&#x179;" horiz-adv-x="1175" 
d="M618 1556h-190l166 291h295zM1100 1235l-770 -1022v-4h807v-209h-1098v223l770 1022v4h-741v209h1032v-223z" />
    <glyph glyph-name="zacute" unicode="&#x17a;" horiz-adv-x="974" 
d="M506 1163h-191l166 295h295zM899 846l-561 -656v-4h582v-186h-865v195l561 655v4h-540v186h823v-194z" />
    <glyph glyph-name="Zdotaccent" unicode="&#x17b;" horiz-adv-x="1175" 
d="M700 1575h-233v223h233v-223zM1100 1235l-770 -1022v-4h807v-209h-1098v223l770 1022v4h-741v209h1032v-223z" />
    <glyph glyph-name="zdotaccent" unicode="&#x17c;" horiz-adv-x="974" 
d="M588 1235h-234v223h234v-223zM899 846l-561 -656v-4h582v-186h-865v195l561 655v4h-540v186h823v-194z" />
    <glyph glyph-name="Zcaron" unicode="&#x17d;" horiz-adv-x="1175" 
d="M709 1556h-252l-234 291h221l140 -168l137 168h221zM1100 1235l-770 -1022v-4h807v-209h-1098v223l770 1022v4h-741v209h1032v-223z" />
    <glyph glyph-name="zcaron" unicode="&#x17e;" horiz-adv-x="974" 
d="M596 1163h-252l-233 295h221l139 -172l137 172h221zM899 846l-561 -656v-4h582v-186h-865v195l561 655v4h-540v186h823v-194z" />
    <glyph glyph-name="longs" unicode="&#x17f;" horiz-adv-x="661" 
d="M516 1473q46 0 123 -15v-172q-28 8 -57 8q-77 0 -113.5 -40t-36.5 -130v-1124h-231v862h-176v178h176v111q0 160 80 241t235 81z" />
    <glyph glyph-name="Schwa" unicode="&#x18f;" horiz-adv-x="1540" 
d="M748 1489q330 0 521 -205.5t191 -552.5q0 -219 -83 -391t-243 -271.5t-372 -99.5q-313 0 -496.5 204.5t-183.5 553.5q0 46 4 86h1118q-6 116 -44 206t-100.5 145t-142 82.5t-172.5 27.5q-150 0 -244 -70.5t-120 -185.5h-262q20 97 69.5 181t126.5 149.5t188.5 103
t244.5 37.5zM762 188q181 0 297 110t139 308h-860q21 -202 136.5 -310t287.5 -108z" />
    <glyph glyph-name="florin" unicode="&#x192;" horiz-adv-x="1189" 
d="M1008 1477q73 0 139 -17v-186q-41 12 -96 12q-87 0 -135.5 -45t-75.5 -156l-33 -127h225v-176h-266l-199 -782q-54 -214 -144.5 -301.5t-260.5 -87.5q-71 0 -117 14v187q41 -13 90 -13q81 0 126 45.5t79 175.5l192 762h-206v176h247l39 148q50 197 142 284t254 87z" />
    <glyph glyph-name="Aringacute" unicode="&#x1fa;" horiz-adv-x="1406" 
d="M739 1970h-192l168 293h293zM702 1501q-88 0 -150.5 62t-62.5 151t62.5 151t150.5 62q90 0 153 -62t63 -151t-63 -151t-153 -62zM702 1829q-47 0 -80.5 -34t-33.5 -81t33.5 -81t80.5 -34q49 0 82 33.5t33 81.5t-33 81.5t-82 33.5zM1006 395h-605l-135 -395h-258l531 1458
h329l531 -1458h-258zM932 608l-39 115q-118 349 -188 580h-5q-107 -352 -186 -580l-39 -115h457z" />
    <glyph glyph-name="aringacute" unicode="&#x1fb;" horiz-adv-x="1103" 
d="M561 1591h-190l166 297h294zM526 1544q89 0 151 -62t62 -151t-62 -151t-151 -62t-151 62t-62 151t62 151t151 62zM526 1446q-47 0 -80.5 -34t-33.5 -81t33.5 -80.5t80.5 -33.5t81 33.5t34 80.5t-34 81t-81 34zM539 1071q208 0 318 -102.5t110 -304.5v-390q0 -167 26 -274
h-211q-14 63 -14 145h-4q-115 -168 -350 -168q-160 0 -256.5 87t-96.5 223q0 133 91.5 213t308.5 114q141 23 280 31v41q0 111 -54 163t-148 52q-95 0 -147.5 -48.5t-57.5 -133.5h-230q8 155 120.5 253.5t314.5 98.5zM741 442v52q-122 -7 -239 -27q-112 -19 -158.5 -56
t-46.5 -108q0 -70 48 -111.5t136 -41.5q120 0 189 69q41 42 56 90.5t15 132.5z" />
    <glyph glyph-name="AEacute" unicode="&#x1fc;" horiz-adv-x="1947" 
d="M1085 1556h-190l166 291h295zM1843 213v-213h-788l-62 414h-540l-189 -414h-276l696 1458h1139v-213h-713l57 -395h611v-211h-580l64 -426h581zM963 623l-93 634h-30l-291 -634h414z" />
    <glyph glyph-name="aeacute" unicode="&#x1fd;" horiz-adv-x="1783" 
d="M920 1163h-191l166 295h295zM1229 141q92 0 151.5 47.5t73.5 124.5h240q-28 -147 -151.5 -245.5t-313.5 -98.5q-252 0 -379 201q-61 -99 -165 -150t-236 -51q-177 0 -282.5 89.5t-105.5 228.5q0 161 118 247.5t384 86.5h193v65q0 215 -209 215q-98 0 -153 -48.5
t-58 -133.5h-232q9 155 123.5 253.5t319.5 98.5q239 0 344 -141q128 141 334 141q170 0 291.5 -95.5t164.5 -258.5q25 -103 25 -244h-735q4 -168 75 -250t183 -82zM1225 899q-105 0 -172 -71.5t-80 -206.5h500q-9 135 -76.5 206.5t-171.5 71.5zM756 473h-166
q-161 0 -227 -42t-66 -128q0 -74 49.5 -118t138.5 -44q124 0 195 74q44 44 60 92.5t16 134.5v31z" />
    <glyph glyph-name="Oslashacute" unicode="&#x1fe;" horiz-adv-x="1515" 
d="M793 1556h-191l166 291h295zM1386 1448l-126 -170q174 -202 174 -549q0 -352 -181.5 -556t-494.5 -204q-233 0 -393 115l-121 -162l-115 90l127 170q-174 202 -174 547q0 352 181.5 556t494.5 204q230 0 395 -115l121 162zM328 729q0 -210 78 -348l610 811
q-108 88 -258 88q-199 0 -314.5 -148t-115.5 -403zM758 178q199 0 314.5 148t115.5 403q0 210 -78 348l-608 -811q105 -88 256 -88z" />
    <glyph glyph-name="oslashacute" unicode="&#x1ff;" horiz-adv-x="1183" 
d="M627 1163h-191l166 295h295zM1079 1061l-108 -143q135 -148 135 -398q0 -253 -139 -402t-375 -149q-165 0 -283 74l-104 -139l-99 73l109 144q-137 146 -137 399t139 402t375 149q162 0 285 -74l104 140zM592 895q-129 0 -205 -101.5t-76 -273.5q0 -128 41 -215l404 533
q-69 57 -164 57zM592 145q129 0 204.5 101t75.5 274q0 118 -41 215l-403 -534q69 -56 164 -56z" />
    <glyph glyph-name="Scommaaccent" unicode="&#x218;" horiz-adv-x="1269" 
d="M604 1489q265 0 401 -122t136 -357h-248q0 137 -75.5 207.5t-217.5 70.5q-118 0 -187 -52.5t-69 -141.5q0 -94 72.5 -140t261.5 -92q53 -13 89.5 -23t84 -25t79.5 -29.5t69.5 -35.5t62 -43.5t49 -52.5t39 -64.5t23 -78.5t8.5 -94q0 -202 -149.5 -324.5t-395.5 -122.5
q-267 0 -417 132t-150 380h252q0 -155 81.5 -232t235.5 -77q136 0 212.5 59t76.5 162q0 37 -8 64.5t-29 50t-43.5 38t-65.5 31t-81 26t-103 26.5q-56 14 -91 23.5t-83.5 25t-79.5 29.5t-70 34.5t-62.5 42.5t-49 52t-39 64t-22.5 77.5t-9 93.5q0 187 140.5 302.5t371.5 115.5
zM735 -324l-127 -217h-96l86 217h-82v197h219v-197z" />
    <glyph glyph-name="scommaaccent" unicode="&#x219;" horiz-adv-x="1042" 
d="M508 1071q200 0 310.5 -91t111.5 -263h-225q0 92 -51.5 138t-147.5 46q-81 0 -126.5 -33t-45.5 -90q0 -62 47 -88t188 -61q157 -41 217 -69q144 -66 170 -200q7 -34 7 -73q0 -142 -119 -230t-318 -88q-213 0 -331 95t-119 278h237q0 -95 56.5 -147t160.5 -52
q88 0 138.5 35t50.5 94q0 20 -3 36t-13 29.5t-19 23.5t-29.5 20t-35 16.5t-46.5 15.5t-52.5 14.5t-63.5 16.5q-147 36 -205 65q-134 65 -150 207q-2 21 -2 44q0 138 112.5 224.5t295.5 86.5zM635 -324l-127 -217h-96l86 217h-82v197h219v-197z" />
    <glyph glyph-name="Tcommaaccent" unicode="&#x21a;" horiz-adv-x="1243" 
d="M1223 1245h-480v-1245h-243v1245h-480v213h1203v-213zM733 -324l-127 -217h-96l86 217h-82v197h219v-197z" />
    <glyph glyph-name="tcommaaccent" unicode="&#x21b;" horiz-adv-x="694" 
d="M567 178q45 0 72 10v-182q-63 -18 -131 -18q-165 0 -240 75t-75 244v555h-175v178h175v260h233v-260h203v-178h-203v-520q0 -88 32.5 -126t108.5 -38zM279 -127h219v-197l-127 -217h-97l86 217h-81v197z" />
    <glyph glyph-name="dotlessj" unicode="&#x237;" horiz-adv-x="540" 
d="M391 1040v-1081q0 -179 -87.5 -263.5t-240.5 -84.5q-53 0 -118 14v174q27 -6 57 -6q79 0 117.5 44.5t38.5 152.5v1050h233z" />
    <glyph glyph-name="schwa" unicode="&#x259;" horiz-adv-x="1150" 
d="M561 1071q240 0 376 -150t136 -401q0 -157 -59 -281.5t-174 -197t-269 -72.5q-227 0 -360 148.5t-133 402.5q0 32 4 60h760q-6 162 -83 240.5t-198 78.5q-90 0 -147.5 -46t-71.5 -120h-240q31 145 151.5 241.5t307.5 96.5zM571 141q110 0 182 73.5t85 211.5h-527
q12 -138 82.5 -211.5t177.5 -73.5z" />
    <glyph glyph-name="apostrophemod" unicode="&#x2bc;" horiz-adv-x="503" 
d="M369 1202l-113 -287h-127l84 287h-80v256h236v-256z" />
    <glyph glyph-name="circumflex" unicode="&#x2c6;" horiz-adv-x="923" 
d="M600 1163l-137 172l-139 -172h-222l234 295h252l233 -295h-221z" />
    <glyph glyph-name="caron" unicode="&#x2c7;" horiz-adv-x="923" 
d="M588 1163h-252l-234 295h222l139 -172l137 172h221z" />
    <glyph glyph-name="firsttonechinese" unicode="&#x2c9;" horiz-adv-x="829" 
d="M727 1243h-625v160h625v-160z" />
    <glyph glyph-name="breve" unicode="&#x2d8;" horiz-adv-x="882" 
d="M614 1458h166q-11 -143 -100 -222t-240 -79q-150 0 -238.5 79t-99.5 222h164q7 -70 53 -108.5t121 -38.5t121 38.5t53 108.5z" />
    <glyph glyph-name="dotaccent" unicode="&#x2d9;" horiz-adv-x="438" 
d="M336 1235h-234v223h234v-223z" />
    <glyph glyph-name="ring" unicode="&#x2da;" horiz-adv-x="630" 
d="M315 1575q89 0 151 -62t62 -151t-62 -151t-151 -62t-151 62t-62 151t62 151t151 62zM315 1477q-47 0 -80.5 -34t-33.5 -81t33.5 -81t80.5 -34t81 34t34 81t-34 81t-81 34z" />
    <glyph glyph-name="ogonek" unicode="&#x2db;" horiz-adv-x="561" 
d="M264 2l189 -2q-82 -58 -115 -103.5t-33 -91.5q0 -67 78 -67q41 0 76 12v-127q-55 -22 -140 -22q-108 0 -162.5 44.5t-54.5 125.5q0 66 39 118t123 113z" />
    <glyph glyph-name="tilde" unicode="&#x2dc;" horiz-adv-x="942" 
d="M700 1452h140q-6 -121 -64.5 -188.5t-159.5 -67.5q-55 0 -106.5 24.5t-94.5 49t-79 24.5q-82 0 -94 -98h-140q6 120 65.5 188t160.5 68q43 0 85 -15.5t70 -34.5t61.5 -34.5t61.5 -15.5q85 0 94 100z" />
    <glyph glyph-name="hungarumlaut" unicode="&#x2dd;" horiz-adv-x="1034" 
d="M291 1163h-189l207 295h264zM649 1163h-188l207 295h264z" />
    <glyph glyph-name="commaturnedabovecomb" unicode="&#x312;" horiz-adv-x="0" 
d="M240 1384h79v-196h-217v196l127 218h97z" />
    <glyph glyph-name="commaaccent" unicode="&#x326;" horiz-adv-x="0" 
d="M326 -324l-127 -217h-97l86 217h-82v197h220v-197z" />
    <glyph glyph-name="dbllowlinecomb" unicode="&#x333;" horiz-adv-x="0" 
d="M0 -225h-1024v123h1024v-123zM0 -506h-1024v123h1024v-123z" />
    <glyph glyph-name="numeralgreek" unicode="&#x374;" horiz-adv-x="403" 
d="M211 1040h-150l68 418h213z" />
    <glyph glyph-name="lowernumeralgreek" unicode="&#x375;" horiz-adv-x="403" 
d="M211 -188h-150l68 417h213z" />
    <glyph glyph-name="questiongreek" unicode="&#x37e;" horiz-adv-x="495" 
d="M383 750h-270v290h270v-290zM383 0l-129 -324h-145l94 324h-90v291h270v-291z" />
    <glyph glyph-name="tonos" unicode="&#x384;" horiz-adv-x="512" 
d="M279 1167h-179l80 332h230z" />
    <glyph glyph-name="dieresistonos" unicode="&#x385;" horiz-adv-x="1021" 
d="M547 1167h-162l72 310h196zM297 1194h-195v223h195v-223zM920 1194h-195v223h195v-223z" />
    <glyph glyph-name="Alphatonos" unicode="&#x386;" horiz-adv-x="1406" 
d="M1006 395h-605l-135 -395h-258l531 1458h329l531 -1458h-258zM227 1044h-178l80 414h229zM932 608l-39 115q-118 349 -188 580h-5q-107 -352 -186 -580l-39 -115h457z" />
    <glyph glyph-name="anoteleia" unicode="&#x387;" horiz-adv-x="495" 
d="M383 750h-270v290h270v-290z" />
    <glyph glyph-name="Epsilontonos" unicode="&#x388;" horiz-adv-x="1280" 
d="M-57 1044h-179l80 414h230zM1155 1245h-729v-395h684v-211h-684v-426h750v-213h-996v1458h975v-213z" />
    <glyph glyph-name="Etatonos" unicode="&#x389;" horiz-adv-x="1523" 
d="M-57 1044h-179l80 414h230zM1341 0h-243v651h-672v-651h-246v1458h246v-594h672v594h243v-1458z" />
    <glyph glyph-name="Iotatonos" unicode="&#x38a;" horiz-adv-x="606" 
d="M-57 1044h-179l80 414h230zM426 0h-246v1458h246v-1458z" />
    <glyph glyph-name="Omicrontonos" unicode="&#x38c;" horiz-adv-x="1515" 
d="M758 1489q313 0 494.5 -204t181.5 -556t-181.5 -556t-494.5 -204t-494.5 204t-181.5 556t181.5 556t494.5 204zM23 1044h-179l80 414h230zM758 1270q-195 0 -308.5 -145.5t-113.5 -395.5t113.5 -395.5t308.5 -145.5t308.5 145.5t113.5 395.5t-113.5 395.5t-308.5 145.5z
" />
    <glyph glyph-name="Upsilontonos" unicode="&#x38e;" horiz-adv-x="1282" 
d="M-176 1044h-178l80 414h229zM764 586v-586h-246v586l-512 872h279l159 -289q110 -199 195 -376h4q92 191 197 376l157 289h277z" />
    <glyph glyph-name="Omegatonos" unicode="&#x38f;" horiz-adv-x="1497" 
d="M750 1489q145 0 264 -40t207 -118.5t136 -202.5t48 -284q0 -186 -79.5 -335.5t-225.5 -295.5v-4h327v-209h-563v219q66 68 113.5 127.5t89 133t63 156.5t21.5 175q0 224 -109.5 341.5t-291.5 117.5q-184 0 -293 -117t-109 -342q0 -176 73.5 -313.5t211.5 -278.5v-219
h-563v209h327v4q-94 95 -156.5 181.5t-105.5 204t-43 245.5q0 160 48.5 284t137 202.5t208 118.5t264.5 40zM8 1044h-178l80 414h229z" />
    <glyph glyph-name="iotadieresistonos" unicode="&#x390;" horiz-adv-x="608" 
d="M293 1167h-162l72 310h196zM43 1194h-195v223h195v-223zM666 1194h-195v223h195v-223zM373 1040v-663q0 -106 32 -152.5t107 -46.5q44 0 74 10v-184q-56 -16 -133 -16q-165 0 -239.5 82t-74.5 270v700h234z" />
    <glyph glyph-name="Alpha" unicode="&#x391;" horiz-adv-x="1406" 
d="M1006 395h-605l-135 -395h-258l531 1458h329l531 -1458h-258zM932 608l-39 115q-118 349 -188 580h-5q-107 -352 -186 -580l-39 -115h457z" />
    <glyph glyph-name="Beta" unicode="&#x392;" horiz-adv-x="1306" 
d="M180 1458h502q253 0 381.5 -100.5t128.5 -272.5q0 -248 -248 -340v-4q281 -65 281 -342q0 -184 -133 -291.5t-369 -107.5h-543v1458zM426 1255v-415h242q149 0 217.5 52.5t68.5 156.5t-65.5 155t-208.5 51h-254zM426 643v-438h260q149 0 219 53.5t70 163.5t-72.5 165.5
t-232.5 55.5h-244z" />
    <glyph glyph-name="Gamma" unicode="&#x393;" horiz-adv-x="1019" 
d="M180 0v1458h819v-213h-573v-1245h-246z" />
    <glyph glyph-name="Delta" unicode="&#x394;" horiz-adv-x="1406" 
d="M1399 0h-1391l533 1458h331zM1065 213l-174 510q-99 293 -186 580h-5q-70 -231 -188 -580l-174 -510h727z" />
    <glyph glyph-name="Epsilon" unicode="&#x395;" horiz-adv-x="1280" 
d="M1155 1245h-729v-395h684v-211h-684v-426h750v-213h-996v1458h975v-213z" />
    <glyph glyph-name="Zeta" unicode="&#x396;" horiz-adv-x="1175" 
d="M1100 1235l-770 -1022v-4h807v-209h-1098v223l770 1022v4h-741v209h1032v-223z" />
    <glyph glyph-name="Eta" unicode="&#x397;" horiz-adv-x="1523" 
d="M1341 0h-243v651h-672v-651h-246v1458h246v-594h672v594h243v-1458z" />
    <glyph glyph-name="Theta" unicode="&#x398;" horiz-adv-x="1515" 
d="M758 1489q313 0 494.5 -203.5t181.5 -554.5q0 -353 -181.5 -557.5t-494.5 -204.5t-494.5 204.5t-181.5 557.5q0 351 181.5 554.5t494.5 203.5zM758 1278q-199 0 -314.5 -147.5t-115.5 -399.5q0 -254 115.5 -401.5t314.5 -147.5t314.5 147.5t115.5 401.5
q0 252 -115.5 399.5t-314.5 147.5zM1040 631h-565v198h565v-198z" />
    <glyph glyph-name="Iota" unicode="&#x399;" horiz-adv-x="606" 
d="M426 0h-246v1458h246v-1458z" />
    <glyph glyph-name="Kappa" unicode="&#x39a;" horiz-adv-x="1318" 
d="M662 764l649 -764h-318l-563 702h-4v-702h-246v1458h246v-649h4l533 649h294z" />
    <glyph glyph-name="Lambda" unicode="&#x39b;" horiz-adv-x="1376" 
d="M1368 0h-266l-236 715q-96 293 -176 575h-4q-80 -282 -176 -575l-236 -715h-266l512 1458h336z" />
    <glyph glyph-name="Mu" unicode="&#x39c;" horiz-adv-x="1964" 
d="M1784 0h-238v733q0 308 8 553h-4q-66 -221 -176 -549l-252 -737h-280l-252 737q-110 328 -176 549h-4q8 -245 8 -553v-733h-238v1458h395l236 -694q98 -290 168 -549h4q77 274 170 549l236 694h395v-1458z" />
    <glyph glyph-name="Nu" unicode="&#x39d;" horiz-adv-x="1568" 
d="M1386 0h-352l-315 610q-178 347 -309 627h-4q12 -332 12 -664v-573h-238v1458h355l313 -610q178 -347 309 -627h4q-10 368 -10 664v573h235v-1458z" />
    <glyph glyph-name="Xi" unicode="&#x39e;" horiz-adv-x="1368" 
d="M1231 1212h-1094v246h1094v-246zM1196 610h-1024v246h1024v-246zM1260 0h-1151v246h1151v-246z" />
    <glyph glyph-name="Omicron" unicode="&#x39f;" horiz-adv-x="1515" 
d="M758 1489q313 0 494.5 -204t181.5 -556t-181.5 -556t-494.5 -204t-494.5 204t-181.5 556t181.5 556t494.5 204zM758 1270q-195 0 -308.5 -145.5t-113.5 -395.5t113.5 -395.5t308.5 -145.5t308.5 145.5t113.5 395.5t-113.5 395.5t-308.5 145.5z" />
    <glyph glyph-name="Pi" unicode="&#x3a0;" horiz-adv-x="1501" 
d="M1321 0h-244v1245h-651v-1245h-246v1458h1141v-1458z" />
    <glyph glyph-name="Rho" unicode="&#x3a1;" horiz-adv-x="1282" 
d="M180 1458h527q252 0 387 -122.5t135 -331.5q0 -211 -135 -334t-387 -123h-281v-547h-246v1458zM426 1251v-497h252q152 0 225.5 65t73.5 185q0 119 -73.5 183t-225.5 64h-252z" />
    <glyph glyph-name="Sigma" unicode="&#x3a3;" horiz-adv-x="1173" 
d="M1106 1249h-739v-4l372 -504l-399 -526v-6h795v-209h-1090v217l399 524l-376 508v209h1038v-209z" />
    <glyph glyph-name="Tau" unicode="&#x3a4;" horiz-adv-x="1243" 
d="M1223 1245h-480v-1245h-243v1245h-480v213h1203v-213z" />
    <glyph glyph-name="Upsilon" unicode="&#x3a5;" horiz-adv-x="1282" 
d="M764 586v-586h-246v586l-512 872h279l159 -289q110 -199 195 -376h4q92 191 197 376l157 289h277z" />
    <glyph glyph-name="Phi" unicode="&#x3a6;" horiz-adv-x="1662" 
d="M950 1516v-144q298 -18 464.5 -179.5t166.5 -457.5q0 -295 -166.5 -457t-464.5 -180v-155h-237v155q-299 18 -465 181t-166 462q0 294 166 453.5t465 177.5v144h237zM713 303v864q-183 -11 -281 -118.5t-98 -307.5q0 -205 98.5 -316t280.5 -122zM950 1167v-864
q181 11 280 121t99 311q0 202 -99 311.5t-280 120.5z" />
    <glyph glyph-name="Chi" unicode="&#x3a7;" horiz-adv-x="1282" 
d="M791 745l479 -745h-287l-340 557h-4l-340 -557h-289l482 745l-457 713h284l320 -534h4l320 534h282z" />
    <glyph glyph-name="Psi" unicode="&#x3a8;" horiz-adv-x="1660" 
d="M1573 1458v-461q0 -319 -150.5 -473.5t-470.5 -171.5v-352h-243v352q-320 17 -470.5 171.5t-150.5 473.5v461h246v-454q0 -223 86 -324t289 -111v889h243v-889q204 10 289.5 111t85.5 324v454h246z" />
    <glyph glyph-name="Omega" unicode="&#x3a9;" horiz-adv-x="1497" 
d="M750 1489q145 0 264 -40t207 -118.5t136 -202.5t48 -284q0 -186 -79.5 -335.5t-225.5 -295.5v-4h327v-209h-563v219q66 68 113.5 127.5t89 133t63 156.5t21.5 175q0 224 -109.5 341.5t-291.5 117.5q-184 0 -293 -117t-109 -342q0 -176 73.5 -313.5t211.5 -278.5v-219
h-563v209h327v4q-94 95 -156.5 181.5t-105.5 204t-43 245.5q0 160 48.5 284t137 202.5t208 118.5t264.5 40z" />
    <glyph glyph-name="Iotadieresis" unicode="&#x3aa;" horiz-adv-x="606" 
d="M197 1653h-209v223h209v-223zM618 1653h-208v223h208v-223zM426 0h-246v1458h246v-1458z" />
    <glyph glyph-name="Upsilondieresis" unicode="&#x3ab;" horiz-adv-x="1282" 
d="M535 1581h-209v223h209v-223zM956 1581h-208v223h208v-223zM764 586v-586h-246v586l-512 872h279l159 -289q110 -199 195 -376h4q92 191 197 376l157 289h277z" />
    <glyph glyph-name="alphatonos" unicode="&#x3ac;" horiz-adv-x="1228" 
d="M668 1167h-179l80 332h230zM512 1067q101 0 184.5 -47t128.5 -131h4q3 74 17 151h227q-20 -147 -20 -368v-353q0 -85 21.5 -117t70.5 -32q25 0 49 6v-170q-61 -20 -147 -20q-187 0 -216 168h-4q-45 -85 -130 -132t-187 -47q-198 0 -315 148t-117 397t118 398t316 149z
M580 885q-118 0 -188 -99.5t-70 -265.5t70 -265t188 -99q115 0 183 98t68 266q0 169 -68 267t-183 98z" />
    <glyph glyph-name="epsilontonos" unicode="&#x3ad;" horiz-adv-x="1034" 
d="M594 1167h-178l80 332h229zM510 1071q202 0 318 -94t116 -260h-233q0 87 -51 131.5t-144 44.5q-82 0 -129 -36.5t-47 -102.5t55.5 -105t149.5 -39h102v-174h-102q-230 0 -230 -149q0 -64 54 -102t145 -38q215 0 215 183h236q0 -176 -116.5 -268.5t-334.5 -92.5
q-199 0 -315.5 82.5t-116.5 227.5q0 100 52.5 161.5t158.5 94.5v4q-95 34 -139.5 90.5t-44.5 144.5q0 138 108 217.5t293 79.5z" />
    <glyph glyph-name="etatonos" unicode="&#x3ae;" horiz-adv-x="1230" 
d="M633 1167h-178l80 332h229zM723 1065q176 0 272.5 -109t96.5 -321v-1014h-234v989q0 271 -209 271q-104 0 -170.5 -79.5t-66.5 -221.5v-580h-234v713q0 91 -22.5 126t-71.5 35q-28 0 -49 -6v164q71 23 137 23q90 0 142 -43t69 -140h4q53 92 140 142.5t196 50.5z" />
    <glyph glyph-name="iotatonos" unicode="&#x3af;" horiz-adv-x="608" 
d="M342 1167h-178l80 332h229zM373 1040v-663q0 -106 32 -152.5t107 -46.5q44 0 74 10v-184q-56 -16 -133 -16q-165 0 -239.5 82t-74.5 270v700h234z" />
    <glyph glyph-name="upsilondieresistonos" unicode="&#x3b0;" horiz-adv-x="1206" 
d="M612 1167h-161l71 310h197zM362 1194h-194v223h194v-223zM985 1194h-194v223h194v-223zM170 1055q124 0 182 -67t58 -232v-371q0 -120 52 -174.5t156 -54.5q248 0 248 370q0 288 -73 514h227q78 -239 78 -530q0 -262 -117.5 -401.5t-357.5 -139.5q-222 0 -335.5 96
t-113.5 302v335q0 96 -21.5 131t-70.5 35q-27 0 -51 -6v170q74 23 139 23z" />
    <glyph glyph-name="alpha" unicode="&#x3b1;" horiz-adv-x="1228" 
d="M512 1067q101 0 184.5 -47t128.5 -131h4q3 74 17 151h227q-20 -147 -20 -368v-353q0 -85 21.5 -117t70.5 -32q25 0 49 6v-170q-61 -20 -147 -20q-187 0 -216 168h-4q-45 -85 -130 -132t-187 -47q-198 0 -315 148t-117 397t118 398t316 149zM580 885q-118 0 -188 -99.5
t-70 -265.5t70 -265t188 -99q115 0 183 98t68 266q0 169 -68 267t-183 98z" />
    <glyph glyph-name="beta" unicode="&#x3b2;" horiz-adv-x="1218" 
d="M618 1489q208 0 328.5 -98.5t120.5 -266.5q0 -131 -65.5 -215t-190.5 -118v-5q156 -29 245 -124.5t89 -264.5q0 -192 -125 -304.5t-340 -112.5q-216 0 -293 122h-4v-481h-233l2 1360q0 246 120 377t346 131zM625 1309q-126 0 -184 -78t-58 -244v-594q0 -110 62.5 -171.5
t189.5 -61.5t198.5 69t71.5 193q0 136 -87 200t-263 64h-31v188h31q144 0 216.5 59.5t72.5 168.5q0 98 -57 152.5t-162 54.5z" />
    <glyph glyph-name="gamma" unicode="&#x3b3;" horiz-adv-x="1103" 
d="M838 1040h241q-30 -292 -126 -526t-287 -502v-24q0 -175 -23 -367h-233q22 183 22 367q0 146 -49.5 350.5t-136.5 374.5q-48 95 -89.5 128t-93.5 33q-19 0 -47 -4v166q68 21 129 21q93 0 156.5 -48.5t124.5 -177.5q64 -130 107 -280t59 -281h4q107 194 164.5 374
t77.5 396z" />
    <glyph glyph-name="delta" unicode="&#x3b4;" horiz-adv-x="1183" 
d="M567 1479q227 0 428 -58v-198q-202 80 -399 80q-77 0 -107 -17.5t-30 -50.5q0 -41 55.5 -80.5t192.5 -110.5q199 -105 298 -240.5t99 -336.5q0 -228 -139.5 -363t-372.5 -135t-373.5 134.5t-140.5 363.5q0 183 97 310t276 188v4q-129 80 -183.5 139.5t-54.5 144.5
q0 226 354 226zM594 860q-129 -45 -199.5 -144.5t-70.5 -248.5q0 -145 73 -230t195 -85t195 86t73 233q0 135 -66 230t-200 159z" />
    <glyph glyph-name="epsilon" unicode="&#x3b5;" horiz-adv-x="1034" 
d="M510 1071q202 0 318 -94t116 -260h-233q0 87 -51 131.5t-144 44.5q-82 0 -129 -36.5t-47 -102.5t55.5 -105t149.5 -39h102v-174h-102q-230 0 -230 -149q0 -64 54 -102t145 -38q215 0 215 183h236q0 -176 -116.5 -268.5t-334.5 -92.5q-199 0 -315.5 82.5t-116.5 227.5
q0 100 52.5 161.5t158.5 94.5v4q-95 34 -139.5 90.5t-44.5 144.5q0 138 108 217.5t293 79.5z" />
    <glyph glyph-name="zeta" unicode="&#x3b6;" horiz-adv-x="958" 
d="M909 1458v-174q-587 -339 -587 -797q0 -131 72 -198.5t249 -91.5q159 -24 223 -93.5t64 -189.5q0 -116 -56 -211h-190q37 75 37 152q0 71 -43 108.5t-164 50.5q-233 27 -334.5 130.5t-101.5 297.5q0 246 147.5 461t403.5 377v4h-498v174h778z" />
    <glyph glyph-name="eta" unicode="&#x3b7;" horiz-adv-x="1230" 
d="M723 1065q176 0 272.5 -109t96.5 -321v-1014h-234v989q0 271 -209 271q-104 0 -170.5 -79.5t-66.5 -221.5v-580h-234v713q0 91 -22.5 126t-71.5 35q-28 0 -49 -6v164q71 23 137 23q90 0 142 -43t69 -140h4q53 92 140 142.5t196 50.5z" />
    <glyph glyph-name="theta" unicode="&#x3b8;" horiz-adv-x="1245" 
d="M621 1487q260 0 402 -199t142 -559t-142 -559t-402 -199q-256 0 -398.5 199.5t-142.5 558.5t142.5 558.5t398.5 199.5zM621 1311q-133 0 -211.5 -130t-90.5 -368h605q-12 239 -90.5 368.5t-212.5 129.5zM621 147q134 0 212.5 129.5t90.5 368.5h-605q12 -238 90.5 -368
t211.5 -130z" />
    <glyph glyph-name="iota" unicode="&#x3b9;" horiz-adv-x="608" 
d="M373 1040v-663q0 -106 32 -152.5t107 -46.5q44 0 74 10v-184q-56 -16 -133 -16q-165 0 -239.5 82t-74.5 270v700h234z" />
    <glyph glyph-name="kappa" unicode="&#x3ba;" horiz-adv-x="1107" 
d="M840 0l-369 410l-94 -105v-305h-234v1040h234v-467h4l203 232q123 143 212 195.5t201 52.5q32 0 86 -13v-194q-21 8 -61 8q-88 0 -172.5 -56t-208.5 -198l-27 -31l512 -569h-286z" />
    <glyph glyph-name="lambda" unicode="&#x3bb;" horiz-adv-x="1187" 
d="M270 1475q80 0 138 -19t110.5 -67t97.5 -129t93 -207l256 -682q47 -122 86 -163.5t90 -41.5q14 0 30 4v-170q-47 -14 -98 -14q-58 0 -99 11.5t-79 43t-69 87t-62 142.5q-140 376 -189 516h-2l-190 -450l-145 -336h-250l471 1036q-52 143 -104.5 197.5t-135.5 54.5
q-55 0 -98 -16v178q61 25 149 25z" />
    <glyph glyph-name="mu" unicode="&#x3bc;" horiz-adv-x="1224" 
d="M1059 1040v-721q0 -85 21.5 -116t70.5 -31q25 0 49 6v-172q-59 -20 -147 -20q-92 0 -143 40.5t-66 125.5h-4q-32 -77 -105 -121.5t-166 -44.5q-124 0 -186 65v-430h-233v1419h233v-614q0 -262 205 -262q104 0 170.5 78.5t66.5 222.5v575h234z" />
    <glyph glyph-name="nu" unicode="&#x3bd;" horiz-adv-x="1077" 
d="M133 1055q106 0 173.5 -68.5t107.5 -228.5l151 -570h4q140 290 191 458.5t51 314.5q0 41 -6 79h229q10 -39 10 -92q0 -172 -66.5 -361t-268.5 -587h-306l-208 690q-32 105 -63 144.5t-79 39.5q-24 0 -39 -6v164q51 23 119 23z" />
    <glyph glyph-name="xi" unicode="&#x3be;" horiz-adv-x="970" 
d="M936 1284h-178q-185 0 -281 -63.5t-96 -182.5q0 -94 76 -144t202 -50h197v-172h-172q-185 0 -273.5 -67.5t-88.5 -182.5q0 -103 74 -154.5t261 -72.5q159 -19 223 -89t64 -192q0 -117 -55 -211h-191q39 80 39 152q0 35 -10 60.5t-35 47.5t-72 36t-118 21
q-217 20 -320.5 112t-103.5 253q0 297 307 369v4q-102 28 -159.5 96.5t-57.5 169.5q0 94 44 159.5t128 96.5v4h-219v174h815v-174z" />
    <glyph glyph-name="omicron" unicode="&#x3bf;" horiz-adv-x="1181" 
d="M592 1071q236 0 374 -148.5t138 -402.5t-138 -402.5t-374 -148.5t-375 149t-139 402t139 402t375 149zM592 887q-124 0 -196 -99t-72 -268t72 -267.5t196 -98.5t196 98.5t72 267.5t-72 268t-196 99z" />
    <glyph glyph-name="pi" unicode="&#x3c0;" horiz-adv-x="1355" 
d="M1319 862h-223v-524q0 -97 32 -134.5t97 -37.5q38 0 59 8v-170q-67 -18 -143 -18q-142 0 -210.5 73t-68.5 250v553h-405v-862h-234v862h-203v178h1299v-178z" />
    <glyph glyph-name="rho" unicode="&#x3c1;" horiz-adv-x="1208" 
d="M625 1071q232 0 368.5 -150t136.5 -409q0 -248 -129 -392.5t-350 -144.5q-195 0 -274 125h-4v-479h-234v899q0 253 132 402t354 149zM614 885q-117 0 -184.5 -98.5t-67.5 -266.5q0 -166 67.5 -263t184.5 -97q127 0 199 95.5t72 264.5q0 171 -72 268t-199 97z" />
    <glyph glyph-name="sigmafinal" unicode="&#x3c2;" horiz-adv-x="1093" 
d="M569 1071q221 0 344.5 -114.5t137.5 -311.5h-242q-9 112 -71.5 178t-168.5 66q-119 0 -186.5 -85.5t-67.5 -238.5t80 -235t254 -107q170 -24 236.5 -100t66.5 -209q0 -116 -53 -211h-192q36 73 36 152q0 81 -48 124.5t-185 59.5q-220 23 -330 150.5t-110 353.5
q0 248 133 388t366 140z" />
    <glyph glyph-name="sigma" unicode="&#x3c3;" horiz-adv-x="1243" 
d="M1221 866h-281v-4q76 -53 118 -147t42 -219q0 -243 -136.5 -385t-371.5 -142q-236 0 -375 145t-139 392t138.5 390.5t375.5 143.5h629v-174zM590 870q-126 0 -196 -94.5t-70 -263.5q0 -170 70 -264t196 -94q129 0 199.5 94t70.5 264q0 169 -70.5 263.5t-199.5 94.5z" />
    <glyph glyph-name="tau" unicode="&#x3c4;" horiz-adv-x="956" 
d="M936 866h-354v-528q0 -97 32 -134.5t97 -37.5q38 0 59 8v-170q-67 -18 -143 -18q-142 0 -210.5 73t-68.5 250v557h-328v174h916v-174z" />
    <glyph glyph-name="upsilon" unicode="&#x3c5;" horiz-adv-x="1206" 
d="M170 1055q124 0 182 -67t58 -232v-371q0 -120 52 -174.5t156 -54.5q248 0 248 370q0 288 -73 514h227q78 -239 78 -530q0 -262 -117.5 -401.5t-357.5 -139.5q-222 0 -335.5 96t-113.5 302v335q0 96 -21.5 131t-70.5 35q-27 0 -51 -6v170q74 23 139 23z" />
    <glyph glyph-name="phi" unicode="&#x3c6;" horiz-adv-x="1587" 
d="M1509 520q0 -250 -162 -396t-442 -155v-348h-223v348q-280 9 -442 155t-162 396t162 396t442 155v285h223v-285q280 -9 442 -155t162 -396zM315 520q0 -174 96 -272.5t271 -104.5v754q-175 -6 -271 -104.5t-96 -272.5zM905 897v-754q175 6 270 104t95 273t-95 273
t-270 104z" />
    <glyph glyph-name="chi" unicode="&#x3c7;" horiz-adv-x="1202" 
d="M162 1065q123 0 192.5 -54.5t130.5 -193.5l125 -289h4l312 512h260l-449 -712l166 -363q50 -108 93.5 -143t109.5 -35q41 0 72 8v-166q-62 -22 -144 -22q-118 0 -188 54t-133 196l-117 268h-4l-324 -504h-260l467 698l-176 383q-50 110 -93 146.5t-114 36.5
q-39 0 -76 -13v164q63 29 146 29z" />
    <glyph glyph-name="psi" unicode="&#x3c8;" horiz-adv-x="1630" 
d="M1520 524q0 -253 -144 -391.5t-436 -150.5v-361h-233v359q-282 11 -425 126.5t-143 352.5v581h234v-557q0 -157 83.5 -234.5t250.5 -86.5v1194h233v-1194q346 23 346 379q0 272 -82 499h232q84 -232 84 -516z" />
    <glyph glyph-name="omega" unicode="&#x3c9;" horiz-adv-x="1652" 
d="M1165 1040h244q133 -260 133 -581q0 -236 -97.5 -362t-295.5 -126q-260 0 -322 207h-4q-62 -207 -319 -207q-198 0 -295.5 126t-97.5 362q0 321 133 581h243q-135 -252 -135 -555q0 -333 195 -333q162 0 162 217v417h233v-417q0 -217 164 -217q194 0 194 333
q0 303 -135 555z" />
    <glyph glyph-name="iotadieresis" unicode="&#x3ca;" horiz-adv-x="608" 
d="M150 1235h-209v223h209v-223zM571 1235h-209v223h209v-223zM373 1040v-663q0 -106 32 -152.5t107 -46.5q44 0 74 10v-184q-56 -16 -133 -16q-165 0 -239.5 82t-74.5 270v700h234z" />
    <glyph glyph-name="upsilondieresis" unicode="&#x3cb;" horiz-adv-x="1206" 
d="M469 1235h-209v223h209v-223zM891 1235h-209v223h209v-223zM170 1055q124 0 182 -67t58 -232v-371q0 -120 52 -174.5t156 -54.5q248 0 248 370q0 288 -73 514h227q78 -239 78 -530q0 -262 -117.5 -401.5t-357.5 -139.5q-222 0 -335.5 96t-113.5 302v335q0 96 -21.5 131
t-70.5 35q-27 0 -51 -6v170q74 23 139 23z" />
    <glyph glyph-name="omicrontonos" unicode="&#x3cc;" horiz-adv-x="1181" 
d="M678 1167h-178l80 332h229zM592 1071q236 0 374 -148.5t138 -402.5t-138 -402.5t-374 -148.5t-375 149t-139 402t139 402t375 149zM592 887q-124 0 -196 -99t-72 -268t72 -267.5t196 -98.5t196 98.5t72 267.5t-72 268t-196 99z" />
    <glyph glyph-name="upsilontonos" unicode="&#x3cd;" horiz-adv-x="1206" 
d="M664 1167h-179l80 332h230zM170 1055q124 0 182 -67t58 -232v-371q0 -120 52 -174.5t156 -54.5q248 0 248 370q0 288 -73 514h227q78 -239 78 -530q0 -262 -117.5 -401.5t-357.5 -139.5q-222 0 -335.5 96t-113.5 302v335q0 96 -21.5 131t-70.5 35q-27 0 -51 -6v170
q74 23 139 23z" />
    <glyph glyph-name="omegatonos" unicode="&#x3ce;" horiz-adv-x="1652" 
d="M913 1167h-178l80 332h229zM1165 1040h244q133 -260 133 -581q0 -236 -97.5 -362t-295.5 -126q-260 0 -322 207h-4q-62 -207 -319 -207q-198 0 -295.5 126t-97.5 362q0 321 133 581h243q-135 -252 -135 -555q0 -333 195 -333q162 0 162 217v417h233v-417q0 -217 164 -217
q194 0 194 333q0 303 -135 555z" />
    <glyph glyph-name="Iegravecy" unicode="&#x400;" horiz-adv-x="1280" 
d="M655 1847l168 -291h-190l-271 291h293zM1155 1245h-729v-395h684v-211h-684v-426h750v-213h-996v1458h975v-213z" />
    <glyph glyph-name="Iocy" unicode="&#x401;" horiz-adv-x="1280" 
d="M561 1581h-209v223h209v-223zM983 1581h-209v223h209v-223zM1155 1245h-729v-395h684v-211h-684v-426h750v-213h-996v1458h975v-213z" />
    <glyph glyph-name="Djecy" unicode="&#x402;" horiz-adv-x="1613" 
d="M1223 1245h-480v-379q144 72 320 72q237 0 367.5 -127.5t130.5 -355.5q0 -220 -131.5 -350t-360.5 -130q-111 0 -184 25v207q68 -19 153 -19q134 0 205.5 69t71.5 196q0 272 -291 272q-154 0 -281 -68v-657h-243v1245h-480v213h1203v-213z" />
    <glyph glyph-name="Gjecy" unicode="&#x403;" horiz-adv-x="1019" 
d="M625 1556h-191l166 291h295zM180 0v1458h819v-213h-573v-1245h-246z" />
    <glyph glyph-name="Ecy" unicode="&#x404;" horiz-adv-x="1437" 
d="M1096 506h252q-23 -251 -185.5 -394t-425.5 -143q-304 0 -479.5 203.5t-175.5 556.5t177 556.5t484 203.5q264 0 425.5 -147.5t172.5 -383.5h-249q-15 145 -108 228.5t-241 83.5q-168 0 -273.5 -114.5t-127.5 -319.5h578v-213h-578q22 -205 125.5 -320t269.5 -115
q149 0 243 84t116 234z" />
    <glyph glyph-name="Dzecy" unicode="&#x405;" horiz-adv-x="1269" 
d="M604 1489q265 0 401 -122t136 -357h-248q0 137 -75.5 207.5t-217.5 70.5q-118 0 -187 -52.5t-69 -141.5q0 -94 72.5 -140t261.5 -92q53 -13 89.5 -23t84 -25t79.5 -29.5t69.5 -35.5t62 -43.5t49 -52.5t39 -64.5t23 -78.5t8.5 -94q0 -202 -149.5 -324.5t-395.5 -122.5
q-267 0 -417 132t-150 380h252q0 -155 81.5 -232t235.5 -77q136 0 212.5 59t76.5 162q0 37 -8 64.5t-29 50t-43.5 38t-65.5 31t-81 26t-103 26.5q-56 14 -91 23.5t-83.5 25t-79.5 29.5t-70 34.5t-62.5 42.5t-49 52t-39 64t-22.5 77.5t-9 93.5q0 187 140.5 302.5t371.5 115.5
z" />
    <glyph glyph-name="Icy" unicode="&#x406;" horiz-adv-x="606" 
d="M426 0h-246v1458h246v-1458z" />
    <glyph glyph-name="Yicy" unicode="&#x407;" horiz-adv-x="606" 
d="M197 1581h-209v223h209v-223zM618 1581h-208v223h208v-223zM426 0h-246v1458h246v-1458z" />
    <glyph glyph-name="Jecy" unicode="&#x408;" horiz-adv-x="765" 
d="M596 1458v-1016q0 -232 -110 -343t-339 -111q-62 0 -116 14v211q44 -8 92 -8q119 0 173 61t54 219v973h246z" />
    <glyph glyph-name="Ljecy" unicode="&#x409;" horiz-adv-x="2152" 
d="M1296 911h281q253 0 387.5 -123t134.5 -333q0 -209 -135 -332t-387 -123h-526v1245h-467q-8 -269 -23.5 -462.5t-42.5 -335t-61.5 -229t-87.5 -139t-113 -70.5t-145 -19q-57 0 -88 10v203q20 -4 36 -4q54 0 90.5 17.5t68.5 69.5t52 137t36 229.5t25.5 337t16.5 468.5h948
v-547zM1296 705v-498h252q151 0 225 64.5t74 183.5q0 120 -73.5 185t-225.5 65h-252z" />
    <glyph glyph-name="Njecy" unicode="&#x40a;" horiz-adv-x="2197" 
d="M1341 911h283q253 0 387.5 -123t134.5 -333q0 -209 -135 -332t-387 -123h-526v662h-672v-662h-246v1458h246v-586h672v586h243v-547zM1341 207h254q151 0 225 64.5t74 183.5q0 120 -73.5 185t-225.5 65h-254v-498z" />
    <glyph glyph-name="Tshecy" unicode="&#x40b;" horiz-adv-x="1611" 
d="M1090 893q218 0 334 -115t116 -329v-449h-246v406q0 134 -67 204t-197 70q-159 0 -287 -41v-639h-243v1245h-480v213h1203v-213h-480v-401q148 49 347 49z" />
    <glyph glyph-name="Kjecy" unicode="&#x40c;" horiz-adv-x="1318" 
d="M705 1556h-191l166 291h295zM662 764l649 -764h-318l-563 702h-4v-702h-246v1458h246v-649h4l533 649h294z" />
    <glyph glyph-name="Iigravecy" unicode="&#x40d;" horiz-adv-x="1568" 
d="M758 1847l168 -291h-191l-270 291h293zM418 1458v-573q0 -333 -12 -664h4q131 280 309 627l315 610h352v-1458h-235v573q0 296 10 664h-4q-131 -280 -309 -627l-313 -610h-355v1458h238z" />
    <glyph glyph-name="Ushortcy" unicode="&#x40e;" horiz-adv-x="1363" 
d="M856 1847h166q-11 -143 -100 -222t-240 -79q-150 0 -238.5 79t-99.5 222h164q7 -70 53 -108.5t121 -38.5t121 38.5t53 108.5zM1356 1458l-574 -1175q-80 -163 -180 -231t-235 -68q-97 0 -152 16v207q40 -12 100 -12q84 0 138.5 39.5t93.5 134.5l-541 1089h266l205 -444
q83 -179 203 -453h4q148 337 203 451l203 446h266z" />
    <glyph glyph-name="Dzhecy" unicode="&#x40f;" horiz-adv-x="1503" 
d="M1321 0h-461v-328h-233v328h-447v1458h246v-1245h651v1245h244v-1458z" />
    <glyph glyph-name="Acy" unicode="&#x410;" horiz-adv-x="1406" 
d="M1006 395h-605l-135 -395h-258l531 1458h329l531 -1458h-258zM932 608l-39 115q-118 349 -188 580h-5q-107 -352 -186 -580l-39 -115h457z" />
    <glyph glyph-name="Becy" unicode="&#x411;" horiz-adv-x="1327" 
d="M1161 1251h-735v-368h324q234 0 366.5 -119.5t132.5 -323.5t-132 -322t-367 -118h-570v1458h981v-207zM426 676v-469h276q144 0 219.5 60t75.5 173q0 114 -75.5 175t-219.5 61h-276z" />
    <glyph glyph-name="Vecy" unicode="&#x412;" horiz-adv-x="1306" 
d="M180 1458h502q253 0 381.5 -100.5t128.5 -272.5q0 -248 -248 -340v-4q281 -65 281 -342q0 -184 -133 -291.5t-369 -107.5h-543v1458zM426 1255v-415h242q149 0 217.5 52.5t68.5 156.5t-65.5 155t-208.5 51h-254zM426 643v-438h260q149 0 219 53.5t70 163.5t-72.5 165.5
t-232.5 55.5h-244z" />
    <glyph glyph-name="Gecy" unicode="&#x413;" horiz-adv-x="1019" 
d="M180 0v1458h819v-213h-573v-1245h-246z" />
    <glyph glyph-name="Decy" unicode="&#x414;" horiz-adv-x="1560" 
d="M1526 213v-541h-234v328h-1022v-328h-233v541h162q69 131 107 406t48 839h996v-1245h176zM1104 1245h-514q-18 -725 -131 -1032h645v1032z" />
    <glyph glyph-name="Iecy" unicode="&#x415;" horiz-adv-x="1280" 
d="M1155 1245h-729v-395h684v-211h-684v-426h750v-213h-996v1458h975v-213z" />
    <glyph glyph-name="Zhecy" unicode="&#x416;" horiz-adv-x="1837" 
d="M1280 764l549 -764h-295l-490 735h-4v-735h-241v735h-4l-492 -735h-295l549 764l-494 694h285l447 -682h4v682h241v-682h4l445 682h287z" />
    <glyph glyph-name="Zecy" unicode="&#x417;" horiz-adv-x="1280" 
d="M639 1487q250 0 391 -108t141 -296q0 -126 -64 -205t-196 -126v-4q145 -45 216 -132t71 -229q0 -190 -152.5 -304t-404.5 -114q-279 0 -429.5 127t-150.5 361h263q0 -135 80.5 -206t236.5 -71q134 0 213.5 59t79.5 158q0 232 -348 232h-103v207h103q151 0 238 60.5
t87 162.5q0 100 -76 158.5t-206 58.5q-139 0 -213 -66.5t-74 -199.5h-264q0 225 148.5 351t412.5 126z" />
    <glyph glyph-name="Iicy" unicode="&#x418;" horiz-adv-x="1568" 
d="M418 1458v-573q0 -333 -12 -664h4q131 280 309 627l315 610h352v-1458h-235v573q0 296 10 664h-4q-131 -280 -309 -627l-313 -610h-355v1458h238z" />
    <glyph glyph-name="Iishortcy" unicode="&#x419;" horiz-adv-x="1568" 
d="M944 1847h166q-11 -143 -100 -222t-240 -79q-150 0 -238.5 79t-99.5 222h164q7 -70 53 -108.5t121 -38.5t121 38.5t53 108.5zM418 1458v-573q0 -333 -12 -664h4q131 280 309 627l315 610h352v-1458h-235v573q0 296 10 664h-4q-131 -280 -309 -627l-313 -610h-355v1458
h238z" />
    <glyph glyph-name="Kacy" unicode="&#x41a;" horiz-adv-x="1318" 
d="M662 764l649 -764h-318l-563 702h-4v-702h-246v1458h246v-649h4l533 649h294z" />
    <glyph glyph-name="Elcy" unicode="&#x41b;" horiz-adv-x="1476" 
d="M1296 0h-245v1245h-467q-8 -269 -23.5 -462.5t-42.5 -335t-61.5 -229t-87.5 -139t-113 -70.5t-145 -19q-57 0 -88 10v203q20 -4 36 -4q54 0 90.5 17.5t68.5 69.5t52 137t36 229.5t25.5 337t16.5 468.5h948v-1458z" />
    <glyph glyph-name="Emcy" unicode="&#x41c;" horiz-adv-x="1964" 
d="M1784 0h-238v733q0 308 8 553h-4q-66 -221 -176 -549l-252 -737h-280l-252 737q-110 328 -176 549h-4q8 -245 8 -553v-733h-238v1458h395l236 -694q98 -290 168 -549h4q77 274 170 549l236 694h395v-1458z" />
    <glyph glyph-name="Ency" unicode="&#x41d;" horiz-adv-x="1523" 
d="M1341 0h-243v651h-672v-651h-246v1458h246v-594h672v594h243v-1458z" />
    <glyph glyph-name="Ocy" unicode="&#x41e;" horiz-adv-x="1515" 
d="M758 1489q313 0 494.5 -204t181.5 -556t-181.5 -556t-494.5 -204t-494.5 204t-181.5 556t181.5 556t494.5 204zM758 1270q-195 0 -308.5 -145.5t-113.5 -395.5t113.5 -395.5t308.5 -145.5t308.5 145.5t113.5 395.5t-113.5 395.5t-308.5 145.5z" />
    <glyph glyph-name="Pecy" unicode="&#x41f;" horiz-adv-x="1501" 
d="M1321 0h-244v1245h-651v-1245h-246v1458h1141v-1458z" />
    <glyph glyph-name="Ercy" unicode="&#x420;" horiz-adv-x="1282" 
d="M180 1458h527q252 0 387 -122.5t135 -331.5q0 -211 -135 -334t-387 -123h-281v-547h-246v1458zM426 1251v-497h252q152 0 225.5 65t73.5 185q0 119 -73.5 183t-225.5 64h-252z" />
    <glyph glyph-name="Escy" unicode="&#x421;" horiz-adv-x="1423" 
d="M735 1489q263 0 422 -147.5t170 -383.5h-248q-15 145 -106.5 228.5t-237.5 83.5q-186 0 -292.5 -144.5t-106.5 -396.5t105 -396.5t288 -144.5q146 0 239 84t113 234h252q-22 -251 -182 -394t-422 -143q-301 0 -474 203.5t-173 556.5q0 354 174.5 557t478.5 203z" />
    <glyph glyph-name="Tecy" unicode="&#x422;" horiz-adv-x="1243" 
d="M1223 1245h-480v-1245h-243v1245h-480v213h1203v-213z" />
    <glyph glyph-name="Ucy" unicode="&#x423;" horiz-adv-x="1363" 
d="M1356 1458l-574 -1175q-80 -163 -180 -231t-235 -68q-97 0 -152 16v207q40 -12 100 -12q84 0 138.5 39.5t93.5 134.5l-541 1089h266l205 -444q83 -179 203 -453h4q148 337 203 451l203 446h266z" />
    <glyph glyph-name="Efcy" unicode="&#x424;" horiz-adv-x="1728" 
d="M1649 729q0 -282 -174.5 -443.5t-491.5 -176.5v-160h-240v160q-315 15 -488 177t-173 443t173 443.5t488 177.5v159h240v-159q317 -15 491.5 -177t174.5 -444zM983 1143v-828q196 17 304 125t108 289t-108 289t-304 125zM336 729q0 -181 106.5 -289t300.5 -125v828
q-194 -17 -300.5 -125t-106.5 -289z" />
    <glyph glyph-name="Hacy" unicode="&#x425;" horiz-adv-x="1282" 
d="M791 745l479 -745h-287l-340 557h-4l-340 -557h-289l482 745l-457 713h284l320 -534h4l320 534h282z" />
    <glyph glyph-name="Tsecy" unicode="&#x426;" horiz-adv-x="1544" 
d="M1321 213h176v-541h-233v328h-1084v1458h246v-1245h651v1245h244v-1245z" />
    <glyph glyph-name="Checy" unicode="&#x427;" horiz-adv-x="1353" 
d="M1174 0h-246v578q-169 -48 -367 -48q-237 0 -363 114.5t-126 328.5v485h243v-440q0 -134 78.5 -204.5t227.5 -70.5q166 0 307 41v674h246v-1458z" />
    <glyph glyph-name="Shacy" unicode="&#x428;" horiz-adv-x="2097" 
d="M1917 0h-1737v1458h246v-1245h502v1245h243v-1245h502v1245h244v-1458z" />
    <glyph glyph-name="Shchacy" unicode="&#x429;" horiz-adv-x="2127" 
d="M1917 213h176v-541h-233v328h-1680v1458h246v-1245h502v1245h243v-1245h502v1245h244v-1245z" />
    <glyph glyph-name="Hardsigncy" unicode="&#x42a;" horiz-adv-x="1538" 
d="M682 911h281q254 0 389 -122.5t135 -333.5q0 -209 -135 -332t-389 -123h-525v1245h-418v213h662v-547zM682 705v-498h254q151 0 225 64.5t74 183.5q0 120 -73.5 185t-225.5 65h-254z" />
    <glyph glyph-name="Yerucy" unicode="&#x42b;" horiz-adv-x="1888" 
d="M180 0v1458h246v-547h281q253 0 387.5 -123t134.5 -333q0 -209 -135 -332t-387 -123h-527zM1708 0h-246v1458h246v-1458zM426 207h252q151 0 225 64.5t74 183.5q0 120 -73.5 185t-225.5 65h-252v-498z" />
    <glyph glyph-name="Softsigncy" unicode="&#x42c;" horiz-adv-x="1282" 
d="M180 0v1458h246v-547h281q253 0 387.5 -123t134.5 -333q0 -209 -135 -332t-387 -123h-527zM426 207h252q151 0 225 64.5t74 183.5q0 120 -73.5 185t-225.5 65h-252v-498z" />
    <glyph glyph-name="Ereversedcy" unicode="&#x42d;" horiz-adv-x="1437" 
d="M694 1489q308 0 485 -203.5t177 -556.5t-175.5 -556.5t-480.5 -203.5q-263 0 -425 143t-185 394h252q20 -150 114.5 -234t243.5 -84q165 0 269.5 115t126.5 320h-578v213h578q-22 204 -128.5 319t-273.5 115q-148 0 -241.5 -83.5t-108.5 -228.5h-248q11 236 172.5 383.5
t425.5 147.5z" />
    <glyph glyph-name="Iucy" unicode="&#x42e;" horiz-adv-x="2068" 
d="M1337 1489q301 0 475.5 -204t174.5 -556t-174.5 -556t-475.5 -204q-276 0 -447.5 174.5t-197.5 479.5h-266v-623h-246v1458h246v-622h266q26 305 197.5 479t447.5 174zM1337 188q183 0 289.5 145.5t106.5 395.5t-106.5 395.5t-289.5 145.5t-289 -145t-106 -396t106 -396
t289 -145z" />
    <glyph glyph-name="Iacy" unicode="&#x42f;" horiz-adv-x="1323" 
d="M1141 1458v-1458h-244v575h-291l-47 3l-283 -578h-268l324 621q-246 102 -246 399q0 209 131 323.5t389 114.5h535zM897 1255h-264q-299 0 -299 -235q-2 -114 68 -180t216 -66h279v481z" />
    <glyph glyph-name="acy" unicode="&#x430;" horiz-adv-x="1103" 
d="M539 1071q208 0 318 -102.5t110 -304.5v-390q0 -167 26 -274h-211q-14 63 -14 145h-4q-115 -168 -350 -168q-160 0 -256.5 87t-96.5 223q0 133 91.5 213t308.5 114q141 23 280 31v41q0 111 -54 163t-148 52q-95 0 -147.5 -48.5t-57.5 -133.5h-230q8 155 120.5 253.5
t314.5 98.5zM741 442v52q-122 -7 -239 -27q-112 -19 -158.5 -56t-46.5 -108q0 -70 48 -111.5t136 -41.5q120 0 189 69q41 42 56 90.5t15 132.5z" />
    <glyph glyph-name="becy" unicode="&#x431;" horiz-adv-x="1202" 
d="M1065 1489v-201q-99 -27 -334 -43q-128 -9 -211.5 -36t-135.5 -82.5t-77.5 -129t-40.5 -188.5h4q87 211 363 211q221 0 351 -136t130 -370q0 -252 -138.5 -398.5t-375.5 -146.5q-245 0 -379.5 156t-134.5 444q0 164 15.5 290t49 220t81 159t116.5 107t149.5 64t186.5 31
q268 20 381 49zM594 846q-139 0 -202.5 -89.5t-63.5 -244.5q0 -169 71.5 -263.5t200.5 -94.5q128 0 198 90t70 254t-72.5 256t-201.5 92z" />
    <glyph glyph-name="vecy" unicode="&#x432;" horiz-adv-x="1101" 
d="M150 1040h442q201 0 302 -70.5t101 -205.5q0 -92 -46.5 -147t-139.5 -80v-5q102 -20 156.5 -81.5t54.5 -159.5q0 -138 -104 -214.5t-293 -76.5h-473v1040zM377 881v-279h184q203 0 203 139q0 140 -203 140h-184zM377 453v-293h188q110 0 163.5 36t53.5 111
q0 146 -217 146h-188z" />
    <glyph glyph-name="gecy" unicode="&#x433;" horiz-adv-x="878" 
d="M856 862h-473v-862h-233v1040h706v-178z" />
    <glyph glyph-name="decy" unicode="&#x434;" horiz-adv-x="1253" 
d="M1231 178v-506h-234v328h-743v-328h-234v506h127q57 90 91 277.5t53 584.5h799v-862h141zM856 862h-342q-27 -471 -102 -684h444v684z" />
    <glyph glyph-name="iecy" unicode="&#x435;" horiz-adv-x="1150" 
d="M582 141q97 0 160.5 47.5t78.5 124.5h240q-31 -148 -157.5 -246t-321.5 -98q-235 0 -369.5 154t-134.5 409q0 236 134.5 387.5t365.5 151.5q177 0 300 -95t166 -259q29 -96 29 -244h-764q6 -168 81 -250t192 -82zM578 899q-108 0 -179 -70t-86 -202h527q-12 132 -83 202
t-179 70z" />
    <glyph glyph-name="zhecy" unicode="&#x436;" horiz-adv-x="1482" 
d="M1503 0h-286l-357 539h-4v-539h-229v539h-4l-357 -539h-286l415 565l-372 475h266l334 -460h4v460h229v-460h4l334 460h266l-373 -475z" />
    <glyph glyph-name="zecy" unicode="&#x437;" horiz-adv-x="1030" 
d="M520 1071q185 0 293.5 -79.5t108.5 -217.5q0 -88 -45 -144.5t-140 -90.5v-4q106 -33 157.5 -94.5t51.5 -161.5q0 -145 -115.5 -227.5t-314.5 -82.5q-218 0 -334 92.5t-116 268.5h235q0 -183 215 -183q91 0 145 38t54 102q0 149 -230 149h-102v174h102q94 0 149.5 39
t55.5 105t-47 102.5t-129 36.5q-95 0 -145 -44.5t-50 -131.5h-233q0 167 115.5 260.5t318.5 93.5z" />
    <glyph glyph-name="iicy" unicode="&#x438;" horiz-adv-x="1323" 
d="M1174 0h-236v393q0 196 10 438h-4q-86 -191 -209 -409l-239 -422h-346v1040h235v-395q0 -219 -12 -436h4q93 200 211 409l239 422h347v-1040z" />
    <glyph glyph-name="iishortcy" unicode="&#x439;" horiz-adv-x="1323" 
d="M836 1458h165q-11 -143 -99.5 -222t-239.5 -79q-150 0 -238.5 79t-99.5 222h163q7 -70 53.5 -108.5t121.5 -38.5t121 38.5t53 108.5zM1174 0h-236v393q0 196 10 438h-4q-86 -191 -209 -409l-239 -422h-346v1040h235v-395q0 -219 -12 -436h4q93 200 211 409l239 422h347
v-1040z" />
    <glyph glyph-name="kacy" unicode="&#x43a;" horiz-adv-x="1103" 
d="M1087 0h-294l-406 504h-4v-504h-233v1040h233v-426h4l379 426h272l-430 -475z" />
    <glyph glyph-name="elcy" unicode="&#x43b;" horiz-adv-x="1153" 
d="M1004 0h-234v862h-299q-4 -184 -16 -320.5t-34 -233t-50.5 -158.5t-71 -97.5t-88.5 -49t-109 -13.5q-45 0 -90 10v170q20 -4 39 -4q54 0 87 31t59 124.5t38 265.5t17 453h752v-1040z" />
    <glyph glyph-name="emcy" unicode="&#x43c;" horiz-adv-x="1640" 
d="M1491 0h-219v492q0 190 6 380h-2q-47 -146 -133 -378l-185 -494h-278l-182 494q-86 232 -133 378h-5q7 -222 7 -380v-492h-217v1040h370l172 -460q59 -162 125 -392h4q59 204 127 392l170 460h373v-1040z" />
    <glyph glyph-name="ency" unicode="&#x43d;" horiz-adv-x="1230" 
d="M1081 0h-233v436h-465v-436h-233v1040h233v-426h465v426h233v-1040z" />
    <glyph glyph-name="ocy" unicode="&#x43e;" horiz-adv-x="1181" 
d="M592 1071q236 0 374 -148.5t138 -402.5t-138 -402.5t-374 -148.5t-375 149t-139 402t139 402t375 149zM592 887q-124 0 -196 -99t-72 -268t72 -267.5t196 -98.5t196 98.5t72 267.5t-72 268t-196 99z" />
    <glyph glyph-name="pecy" unicode="&#x43f;" horiz-adv-x="1214" 
d="M1065 0h-234v862h-448v-862h-233v1040h915v-1040z" />
    <glyph glyph-name="ercy" unicode="&#x440;" horiz-adv-x="1202" 
d="M690 1067q198 0 316 -149t118 -398t-117 -397t-315 -148q-97 0 -179 42.5t-126 117.5h-4v-514h-233v1419h227v-143h4q46 79 128.5 124.5t180.5 45.5zM623 885q-115 0 -183.5 -98t-68.5 -267q0 -168 68.5 -266t183.5 -98q118 0 188 99t70 265t-70 265.5t-188 99.5z" />
    <glyph glyph-name="escy" unicode="&#x441;" horiz-adv-x="1122" 
d="M584 1071q197 0 325.5 -113.5t143.5 -293.5h-244q-8 101 -69 162t-156 61q-122 0 -191 -98t-69 -269t68.5 -268.5t191.5 -97.5q94 0 154.5 67t68.5 174h246q-15 -191 -142.5 -308.5t-326.5 -117.5q-231 0 -368.5 149t-137.5 402t137.5 402t368.5 149z" />
    <glyph glyph-name="tecy" unicode="&#x442;" horiz-adv-x="946" 
d="M934 862h-342v-862h-236v862h-344v178h922v-178z" />
    <glyph glyph-name="ucy" unicode="&#x443;" horiz-adv-x="999" 
d="M1012 1040l-402 -1085q-73 -196 -172 -270t-282 -74q-63 0 -117 14v191q51 -15 98 -15q95 0 145 41.5t87 149.5l-381 1048h250l260 -774h4l268 774h242z" />
    <glyph glyph-name="efcy" unicode="&#x444;" horiz-adv-x="1644" 
d="M940 1458v-469q90 78 211 78q190 0 303 -149t113 -398t-113 -397t-305 -148q-116 0 -209 74v-428h-233v428q-96 -74 -209 -74q-193 0 -306.5 147.5t-113.5 397.5q0 249 113 398t303 149q120 0 213 -78v469h233zM565 885q-112 0 -177.5 -99t-65.5 -266q0 -166 65.5 -265
t177.5 -99q81 0 142 61v604q-61 64 -142 64zM1079 885q-81 0 -139 -64v-604q58 -61 139 -61q112 0 179 99t67 265t-67 265.5t-179 99.5z" />
    <glyph glyph-name="hacy" unicode="&#x445;" horiz-adv-x="1011" 
d="M649 539l371 -539h-275l-237 385h-4l-238 -385h-274l370 539l-344 501h273l213 -338h4l213 338h272z" />
    <glyph glyph-name="tsecy" unicode="&#x446;" horiz-adv-x="1228" 
d="M1065 178h141v-506h-233v328h-823v1040h233v-862h448v862h234v-862z" />
    <glyph glyph-name="checy" unicode="&#x447;" horiz-adv-x="1105" 
d="M956 0h-233v395q-137 -39 -289 -39q-179 0 -276 84.5t-97 237.5v362h234v-317q0 -91 55 -139.5t160 -48.5q113 0 213 34v471h233v-1040z" />
    <glyph glyph-name="shacy" unicode="&#x448;" horiz-adv-x="1732" 
d="M1583 0h-1433v1040h233v-862h367v862h233v-862h367v862h233v-1040z" />
    <glyph glyph-name="shchacy" unicode="&#x449;" horiz-adv-x="1744" 
d="M1583 178h133v-506h-233v328h-1333v1040h233v-862h367v862h233v-862h367v862h233v-862z" />
    <glyph glyph-name="hardsigncy" unicode="&#x44a;" horiz-adv-x="1247" 
d="M535 680h241q199 0 304.5 -88.5t105.5 -251.5t-105.5 -251.5t-304.5 -88.5h-475v862h-289v178h523v-360zM535 506v-332h217q198 0 198 166t-198 166h-217z" />
    <glyph glyph-name="yerucy" unicode="&#x44b;" horiz-adv-x="1566" 
d="M383 680h242q199 0 304 -88t105 -252t-105 -252t-304 -88h-475v1040h233v-360zM1417 0h-233v1040h233v-1040zM383 506v-332h217q199 0 199 166t-199 166h-217z" />
    <glyph glyph-name="softsigncy" unicode="&#x44c;" horiz-adv-x="1101" 
d="M383 680h242q199 0 304 -88t105 -252t-105 -252t-304 -88h-475v1040h233v-360zM383 506v-332h217q199 0 199 166t-199 166h-217z" />
    <glyph glyph-name="ereversedcy" unicode="&#x44d;" horiz-adv-x="1122" 
d="M539 1071q231 0 368 -149t137 -402t-137 -402t-368 -149q-198 0 -325 115.5t-144 302.5h239q8 -106 71.5 -173t160.5 -67q109 0 177 79t83 218h-400v172h398q-19 130 -86 203.5t-172 73.5q-99 0 -162.5 -62.5t-71.5 -158.5h-237q15 172 143 285.5t326 113.5z" />
    <glyph glyph-name="iucy" unicode="&#x44e;" horiz-adv-x="1673" 
d="M1083 1071q236 0 374 -148.5t138 -402.5t-138 -402.5t-374 -148.5q-214 0 -349.5 123t-160.5 338h-190v-430h-233v1040h233v-432l190 2q25 215 160.5 338t349.5 123zM1083 154q124 0 196.5 98.5t72.5 267.5t-72.5 268t-196.5 99t-196 -99t-72 -268t72 -267.5t196 -98.5z
" />
    <glyph glyph-name="iacy" unicode="&#x44f;" horiz-adv-x="1118" 
d="M969 1040v-1040h-230v365h-227h-29l-207 -365h-251l247 406q-188 81 -188 303q0 161 108.5 246t323.5 85h453zM739 864h-200q-228 0 -228 -162q0 -78 52.5 -122.5t164.5 -44.5h211v329z" />
    <glyph glyph-name="iegravecy" unicode="&#x450;" horiz-adv-x="1150" 
d="M541 1163l-271 295h293l168 -295h-190zM582 141q97 0 160.5 47.5t78.5 124.5h240q-31 -148 -157.5 -246t-321.5 -98q-235 0 -369.5 154t-134.5 409q0 236 134.5 387.5t365.5 151.5q177 0 300 -95t166 -259q29 -96 29 -244h-764q6 -168 81 -250t192 -82zM578 899
q-108 0 -179 -70t-86 -202h527q-12 132 -83 202t-179 70z" />
    <glyph glyph-name="iocy" unicode="&#x451;" horiz-adv-x="1150" 
d="M467 1235h-209v223h209v-223zM889 1235h-209v223h209v-223zM582 141q97 0 160.5 47.5t78.5 124.5h240q-31 -148 -157.5 -246t-321.5 -98q-235 0 -369.5 154t-134.5 409q0 236 134.5 387.5t365.5 151.5q177 0 300 -95t166 -259q29 -96 29 -244h-764q6 -168 81 -250
t192 -82zM578 899q-108 0 -179 -70t-86 -202h527q-12 132 -83 202t-179 70z" />
    <glyph glyph-name="djecy" unicode="&#x452;" 
d="M686 954q180 0 279.5 -109t99.5 -319v-573q0 -177 -87.5 -259.5t-240.5 -82.5q-54 0 -119 14v174q27 -6 58 -6q79 0 117 43t38 148v522q0 260 -210 260q-105 0 -171.5 -77.5t-66.5 -221.5v-467h-233v1130h-148v152h148v176h233v-176h448v-152h-448v-323h4
q109 147 299 147z" />
    <glyph glyph-name="gjecy" unicode="&#x453;" horiz-adv-x="878" 
d="M539 1163h-191l166 295h295zM856 862h-473v-862h-233v1040h706v-178z" />
    <glyph glyph-name="ecy" unicode="&#x454;" horiz-adv-x="1122" 
d="M584 147q96 0 158.5 67t70.5 173h240q-15 -187 -142.5 -302.5t-326.5 -115.5q-231 0 -368.5 149t-137.5 402t137.5 402t368.5 149q199 0 326.5 -113.5t142.5 -285.5h-238q-8 96 -70.5 158.5t-160.5 62.5q-106 0 -173.5 -73t-86.5 -204h397v-172h-399q15 -140 83 -218.5
t179 -78.5z" />
    <glyph glyph-name="dzecy" unicode="&#x455;" horiz-adv-x="1042" 
d="M508 1071q200 0 310.5 -91t111.5 -263h-225q0 92 -51.5 138t-147.5 46q-81 0 -126.5 -33t-45.5 -90q0 -62 47 -88t188 -61q157 -41 217 -69q144 -66 170 -200q7 -34 7 -73q0 -142 -119 -230t-318 -88q-213 0 -331 95t-119 278h237q0 -95 56.5 -147t160.5 -52
q88 0 138.5 35t50.5 94q0 20 -3 36t-13 29.5t-19 23.5t-29.5 20t-35 16.5t-46.5 15.5t-52.5 14.5t-63.5 16.5q-147 36 -205 65q-134 65 -150 207q-2 21 -2 44q0 138 112.5 224.5t295.5 86.5z" />
    <glyph glyph-name="icy" unicode="&#x456;" horiz-adv-x="532" 
d="M383 1235h-233v223h233v-223zM383 0h-233v1040h233v-1040z" />
    <glyph glyph-name="yicy" unicode="&#x457;" horiz-adv-x="532" 
d="M203 1235h-209v223h209v-223zM539 1235h-211v223h211v-223zM383 0h-233v1040h233v-1040z" />
    <glyph glyph-name="jecy" unicode="&#x458;" horiz-adv-x="540" 
d="M391 1235h-233v223h233v-223zM391 1040v-1081q0 -179 -87.5 -263.5t-240.5 -84.5q-53 0 -118 14v174q27 -6 57 -6q79 0 117.5 44.5t38.5 152.5v1050h233z" />
    <glyph glyph-name="ljecy" unicode="&#x459;" horiz-adv-x="1722" 
d="M1004 680h241q198 0 304 -88.5t106 -251.5t-106 -251.5t-304 -88.5h-475v862h-299q-4 -184 -16 -320.5t-34 -233t-50.5 -158.5t-71 -97.5t-88.5 -49t-109 -13.5q-45 0 -90 10v170q20 -4 39 -4q54 0 87 31t59 124.5t38 265.5t17 453h752v-360zM1004 506v-332h217
q198 0 198 166t-198 166h-217z" />
    <glyph glyph-name="njecy" unicode="&#x45a;" horiz-adv-x="1800" 
d="M1081 680h242q198 0 304 -88.5t106 -251.5t-106 -251.5t-304 -88.5h-475v455h-465v-455h-233v1040h233v-407h465v407h233v-360zM1081 506v-332h217q199 0 199 166t-199 166h-217z" />
    <glyph glyph-name="tshecy" unicode="&#x45b;" 
d="M686 954q180 0 279.5 -109t99.5 -319v-526h-234v506q0 260 -210 260q-105 0 -171.5 -77.5t-66.5 -221.5v-467h-233v1130h-148v152h148v176h233v-176h448v-152h-448v-323h4q109 147 299 147z" />
    <glyph glyph-name="kjecy" unicode="&#x45c;" horiz-adv-x="1103" 
d="M608 1163h-190l166 295h295zM1087 0h-294l-406 504h-4v-504h-233v1040h233v-426h4l379 426h272l-430 -475z" />
    <glyph glyph-name="iigravecy" unicode="&#x45d;" horiz-adv-x="1323" 
d="M651 1458l168 -295h-190l-271 295h293zM1174 0h-236v393q0 196 10 438h-4q-86 -191 -209 -409l-239 -422h-346v1040h235v-395q0 -219 -12 -436h4q93 200 211 409l239 422h347v-1040z" />
    <glyph glyph-name="ushortcy" unicode="&#x45e;" horiz-adv-x="999" 
d="M674 1458h166q-11 -143 -100 -222t-240 -79q-150 0 -238.5 79t-99.5 222h164q7 -70 53 -108.5t121 -38.5t121 38.5t53 108.5zM1012 1040l-402 -1085q-73 -196 -172 -270t-282 -74q-63 0 -117 14v191q51 -15 98 -15q95 0 145 41.5t87 149.5l-381 1048h250l260 -774h4
l268 774h242z" />
    <glyph glyph-name="dzhecy" unicode="&#x45f;" horiz-adv-x="1214" 
d="M1065 0h-344v-328h-234v328h-337v1040h233v-862h448v862h234v-1040z" />
    <glyph glyph-name="Gheupturncy" unicode="&#x490;" horiz-adv-x="1019" 
d="M999 1245h-573v-1245h-246v1458h586v293h233v-506z" />
    <glyph glyph-name="gheupturncy" unicode="&#x491;" horiz-adv-x="878" 
d="M856 862h-473v-862h-233v1040h485v328h221v-506z" />
    <glyph glyph-name="Ghestrokecy" unicode="&#x492;" horiz-adv-x="1019" 
d="M426 1245v-473h297v-182h-297v-590h-246v590h-131v182h131v686h819v-213h-573z" />
    <glyph glyph-name="ghestrokecy" unicode="&#x493;" horiz-adv-x="886" 
d="M389 862v-295h264v-164h-264v-403h-233v403h-121v164h121v473h706v-178h-473z" />
    <glyph glyph-name="Zhedescendercy" unicode="&#x496;" horiz-adv-x="1837" 
d="M1829 213v-541h-234v328h-61l-490 735h-4v-735h-241v735h-4l-492 -735h-295l549 764l-494 694h285l447 -682h4v682h241v-682h4l445 682h287l-496 -694l395 -551h154z" />
    <glyph glyph-name="zhedescendercy" unicode="&#x497;" horiz-adv-x="1482" 
d="M1503 178v-506h-233v328h-53l-357 539h-4v-539h-229v539h-4l-357 -539h-286l415 565l-372 475h266l334 -460h4v460h229v-460h4l334 460h266l-373 -475l285 -387h131z" />
    <glyph glyph-name="Kadescendercy" unicode="&#x49a;" horiz-adv-x="1318" 
d="M1311 213v-541h-234v328h-84l-563 702h-4v-702h-246v1458h246v-649h4l533 649h294l-595 -694l468 -551h181z" />
    <glyph glyph-name="kadescendercy" unicode="&#x49b;" horiz-adv-x="1103" 
d="M1087 178v-506h-233v328h-61l-406 504h-4v-504h-233v1040h233v-426h4l379 426h272l-430 -475l328 -387h151z" />
    <glyph glyph-name="Kaverticalstrokecy" unicode="&#x49c;" horiz-adv-x="1464" 
d="M727 651h-8v-334h-193v334h-104v-651h-242v1458h242v-594h104v334h193v-334h10l387 594h287l-492 -694l545 -764h-295z" />
    <glyph glyph-name="kaverticalstrokecy" unicode="&#x49d;" horiz-adv-x="1214" 
d="M635 471h-8v-260h-158v260h-92v-471h-227v1040h227v-391h92v254h158v-254h12l283 391h266l-371 -475l416 -565h-289z" />
    <glyph glyph-name="Endescendercy" unicode="&#x4a2;" horiz-adv-x="1564" 
d="M1518 -328h-234v328h-186v651h-672v-651h-246v1458h246v-594h672v594h243v-1245h177v-541z" />
    <glyph glyph-name="endescendercy" unicode="&#x4a3;" horiz-adv-x="1243" 
d="M1223 -328h-234v328h-141v436h-465v-436h-233v1040h233v-426h465v426h233v-862h142v-506z" />
    <glyph glyph-name="Ustraitcy" unicode="&#x4ae;" horiz-adv-x="1282" 
d="M764 586v-586h-246v586l-512 872h279l159 -289q110 -199 195 -376h4q92 191 197 376l157 289h277z" />
    <glyph glyph-name="ustraitcy" unicode="&#x4af;" horiz-adv-x="1003" 
d="M1016 1040l-398 -1063v-356h-233v356l-397 1063h243l136 -385q66 -184 133 -415h4q67 231 133 415l135 385h244z" />
    <glyph glyph-name="Hadescendercy" unicode="&#x4b2;" horiz-adv-x="1282" 
d="M1274 213v-541h-234v328h-57l-340 557h-4l-340 -557h-289l482 745l-457 713h284l320 -534h4l320 534h282l-454 -713l342 -532h141z" />
    <glyph glyph-name="hadescendercy" unicode="&#x4b3;" horiz-adv-x="1011" 
d="M1020 178v-506h-234v328h-41l-237 385h-4l-238 -385h-274l370 539l-344 501h273l213 -338h4l213 338h272l-344 -501l248 -361h123z" />
    <glyph glyph-name="Cheverticalstrokecy" unicode="&#x4b8;" horiz-adv-x="1353" 
d="M1174 1458v-1458h-246v578q-88 -25 -199 -37v-287h-209v276q-218 10 -333 124.5t-115 318.5v485h243v-440q0 -219 205 -264v407h209v-411q111 9 199 34v674h246z" />
    <glyph glyph-name="cheverticalstrokecy" unicode="&#x4b9;" horiz-adv-x="1105" 
d="M956 1040v-1040h-233v395q-71 -20 -135 -28v-199h-160v188q-176 1 -271.5 86t-95.5 236v362h234v-317q0 -151 133 -180v313h160v-317q78 10 135 30v471h233z" />
    <glyph glyph-name="Shhacy" unicode="&#x4ba;" horiz-adv-x="1353" 
d="M180 1458h246v-577q169 47 367 47q238 0 364.5 -114.5t126.5 -328.5v-485h-246v440q0 134 -78 204.5t-227 70.5q-166 0 -307 -41v-674h-246v1458z" />
    <glyph glyph-name="shhacy" unicode="&#x4bb;" 
d="M383 918h4q109 147 299 147q180 0 279.5 -109t99.5 -319v-637h-234v616q0 261 -210 261q-105 0 -171.5 -77.5t-66.5 -221.5v-578h-233v1458h233v-540z" />
    <glyph glyph-name="Palochkacy" unicode="&#x4c0;" horiz-adv-x="606" 
d="M426 0h-246v1458h246v-1458z" />
    <glyph glyph-name="palochkacy" unicode="&#x4cf;" horiz-adv-x="532" 
d="M383 0h-233v1458h233v-1458z" />
    <glyph glyph-name="Schwacy" unicode="&#x4d8;" horiz-adv-x="1540" 
d="M748 1489q330 0 521 -205.5t191 -552.5q0 -219 -83 -391t-243 -271.5t-372 -99.5q-313 0 -496.5 204.5t-183.5 553.5q0 46 4 86h1118q-6 116 -44 206t-100.5 145t-142 82.5t-172.5 27.5q-150 0 -244 -70.5t-120 -185.5h-262q20 97 69.5 181t126.5 149.5t188.5 103
t244.5 37.5zM762 188q181 0 297 110t139 308h-860q21 -202 136.5 -310t287.5 -108z" />
    <glyph glyph-name="schwacy" unicode="&#x4d9;" horiz-adv-x="1150" 
d="M561 1071q240 0 376 -150t136 -401q0 -157 -59 -281.5t-174 -197t-269 -72.5q-227 0 -360 148.5t-133 402.5q0 32 4 60h760q-6 162 -83 240.5t-198 78.5q-90 0 -147.5 -46t-71.5 -120h-240q31 145 151.5 241.5t307.5 96.5zM571 141q110 0 182 73.5t85 211.5h-527
q12 -138 82.5 -211.5t177.5 -73.5z" />
    <glyph glyph-name="Obarredcy" unicode="&#x4e8;" horiz-adv-x="1515" 
d="M758 1489q313 0 494.5 -204t181.5 -556t-181.5 -556t-494.5 -204t-494.5 204t-181.5 556t181.5 556t494.5 204zM758 1280q-179 0 -292 -118t-138 -326h860q-23 208 -137 326t-293 118zM758 178q179 0 293 118.5t137 326.5h-860q25 -208 138 -326.5t292 -118.5z" />
    <glyph glyph-name="obarredcy" unicode="&#x4e9;" horiz-adv-x="1183" 
d="M592 1071q236 0 375 -149t139 -402t-139 -402t-375 -149t-375 149t-139 402t139 402t375 149zM592 895q-113 0 -186.5 -79t-90.5 -216h551q-17 137 -89.5 216t-184.5 79zM592 145q113 0 186 79t90 218h-553q17 -139 90.5 -218t186.5 -79z" />
    <glyph glyph-name="Wgrave" unicode="&#x1e80;" horiz-adv-x="1916" 
d="M944 1847l168 -291h-190l-271 291h293zM1575 0h-330l-145 606q-82 344 -139 641h-5q-57 -297 -139 -641l-145 -606h-330l-322 1458h242l119 -561q80 -368 129 -657h4q69 332 148 659l135 559h323l135 -559q79 -327 148 -659h4q43 251 127 657l121 561h241z" />
    <glyph glyph-name="wgrave" unicode="&#x1e81;" horiz-adv-x="1617" 
d="M797 1458l168 -295h-191l-270 295h293zM1352 0h-334l-107 430q-44 176 -100 449h-4q-56 -273 -100 -449l-107 -430h-334l-254 1040h234l94 -417q53 -230 94 -461h4q36 178 103 452l104 426h328l104 -426q67 -274 103 -452h4q41 231 94 461l94 417h234z" />
    <glyph glyph-name="Wacute" unicode="&#x1e82;" horiz-adv-x="1916" 
d="M991 1556h-190l166 291h295zM1575 0h-330l-145 606q-82 344 -139 641h-5q-57 -297 -139 -641l-145 -606h-330l-322 1458h242l119 -561q80 -368 129 -657h4q69 332 148 659l135 559h323l135 -559q79 -327 148 -659h4q43 251 127 657l121 561h241z" />
    <glyph glyph-name="wacute" unicode="&#x1e83;" horiz-adv-x="1617" 
d="M844 1163h-191l166 295h295zM1352 0h-334l-107 430q-44 176 -100 449h-4q-56 -273 -100 -449l-107 -430h-334l-254 1040h234l94 -417q53 -230 94 -461h4q36 178 103 452l104 426h328l104 -426q67 -274 103 -452h4q41 231 94 461l94 417h234z" />
    <glyph glyph-name="Wdieresis" unicode="&#x1e84;" horiz-adv-x="1916" 
d="M850 1581h-209v223h209v-223zM1272 1581h-209v223h209v-223zM1575 0h-330l-145 606q-82 344 -139 641h-5q-57 -297 -139 -641l-145 -606h-330l-322 1458h242l119 -561q80 -368 129 -657h4q69 332 148 659l135 559h323l135 -559q79 -327 148 -659h4q43 251 127 657
l121 561h241z" />
    <glyph glyph-name="wdieresis" unicode="&#x1e85;" horiz-adv-x="1617" 
d="M702 1235h-208v223h208v-223zM1124 1235h-209v223h209v-223zM1352 0h-334l-107 430q-44 176 -100 449h-4q-56 -273 -100 -449l-107 -430h-334l-254 1040h234l94 -417q53 -230 94 -461h4q36 178 103 452l104 426h328l104 -426q67 -274 103 -452h4q41 231 94 461l94 417
h234z" />
    <glyph glyph-name="Germandbls" unicode="&#x1e9e;" horiz-adv-x="1607" 
d="M1409 1217l-322 -349q435 -99 435 -473q0 -200 -133 -311t-357 -111q-227 0 -347 104.5t-120 305.5h240q0 -100 56 -152.5t167 -52.5t174.5 57t63.5 164q0 144 -112 217.5t-333 88.5v172l281 301q-113 104 -295 104q-197 0 -299 -107.5t-102 -318.5v-856h-246v852
q0 310 170.5 472.5t490.5 162.5q182 0 335 -73t253 -197z" />
    <glyph glyph-name="Ygrave" unicode="&#x1ef2;" horiz-adv-x="1282" 
d="M629 1847l168 -291h-191l-270 291h293zM764 586v-586h-246v586l-512 872h279l159 -289q110 -199 195 -376h4q92 191 197 376l157 289h277z" />
    <glyph glyph-name="ygrave" unicode="&#x1ef3;" horiz-adv-x="999" 
d="M487 1458l168 -295h-190l-270 295h292zM1012 1040l-402 -1085q-73 -196 -172 -270t-282 -74q-63 0 -117 14v191q51 -15 98 -15q95 0 145 41.5t87 149.5l-381 1048h250l260 -774h4l268 774h242z" />
    <glyph glyph-name="hyphentwo" unicode="&#x2010;" horiz-adv-x="634" 
d="M573 502h-512v192h512v-192z" />
    <glyph glyph-name="endash" unicode="&#x2013;" horiz-adv-x="1024" 
d="M983 502h-942v192h942v-192z" />
    <glyph glyph-name="emdash" unicode="&#x2014;" horiz-adv-x="2048" 
d="M2007 502h-1966v192h1966v-192z" />
    <glyph glyph-name="horizontalbar" unicode="&#x2015;" horiz-adv-x="2048" 
d="M2007 502h-1966v192h1966v-192z" />
    <glyph glyph-name="underscoredbl" unicode="&#x2017;" horiz-adv-x="1024" 
d="M1024 -225h-1024v123h1024v-123zM1024 -506h-1024v123h1024v-123z" />
    <glyph glyph-name="quoteleft" unicode="&#x2018;" horiz-adv-x="503" 
d="M133 1171l115 287h127l-84 -287h80v-256h-238v256z" />
    <glyph glyph-name="quoteright" unicode="&#x2019;" horiz-adv-x="503" 
d="M369 1202l-113 -287h-127l84 287h-80v256h236v-256z" />
    <glyph glyph-name="quotesinglbase" unicode="&#x201a;" horiz-adv-x="503" 
d="M369 0l-113 -287h-127l84 287h-80v256h236v-256z" />
    <glyph glyph-name="quotereversed" unicode="&#x201b;" horiz-adv-x="503" 
d="M371 1458v-256h-80l84 -287h-127l-115 287v256h238z" />
    <glyph glyph-name="quotedblleft" unicode="&#x201c;" horiz-adv-x="854" 
d="M133 1171l115 287h127l-84 -287h80v-256h-238v256zM485 1171l113 287h127l-84 -287h80v-256h-236v256z" />
    <glyph glyph-name="quotedblright" unicode="&#x201d;" horiz-adv-x="854" 
d="M369 1202l-113 -287h-127l84 287h-80v256h236v-256zM719 1202l-113 -287h-127l84 287h-80v256h236v-256z" />
    <glyph glyph-name="quotedblbase" unicode="&#x201e;" horiz-adv-x="854" 
d="M369 0l-113 -287h-127l84 287h-80v256h236v-256zM719 0l-113 -287h-127l84 287h-80v256h236v-256z" />
    <glyph glyph-name="dagger" unicode="&#x2020;" horiz-adv-x="1126" 
d="M682 1083h334v-188h-334v-1141h-236v1141h-335v188h335v375h236v-375z" />
    <glyph glyph-name="daggerdbl" unicode="&#x2021;" horiz-adv-x="1126" 
d="M682 1083h334v-188h-334v-535h334v-190h-334v-416h-236v416h-335v190h335v535h-335v188h335v375h236v-375z" />
    <glyph glyph-name="bullet" unicode="&#x2022;" horiz-adv-x="710" 
d="M356 469q-107 0 -184.5 76.5t-77.5 183.5q0 108 77 184t185 76q109 0 184.5 -75.5t75.5 -184.5q0 -108 -76 -184t-184 -76z" />
    <glyph glyph-name="ellipsis" unicode="&#x2026;" horiz-adv-x="1691" 
d="M383 0h-270v291h270v-291zM979 0h-268v291h268v-291zM1577 0h-268v291h268v-291z" />
    <glyph glyph-name="perthousand" unicode="&#x2030;" horiz-adv-x="2154" 
d="M379 -61h-158l862 1503h158zM348 1411q138 0 213.5 -90t75.5 -254q0 -165 -75.5 -254.5t-213.5 -89.5q-137 0 -212 89.5t-75 254.5q0 164 75 254t212 90zM348 1274q-54 0 -84.5 -54.5t-30.5 -152.5q0 -99 30.5 -153t84.5 -54q56 0 86.5 54t30.5 153q0 98 -30.5 152.5
t-86.5 54.5zM1112 659q138 0 213.5 -90t75.5 -256q0 -164 -75.5 -254t-213.5 -90q-137 0 -212 90t-75 254q0 165 75 255.5t212 90.5zM1806 659q137 0 212 -90.5t75 -255.5q0 -164 -75 -254t-212 -90t-211.5 90t-74.5 254q0 166 74.5 256t211.5 90zM1112 520q-54 0 -84.5 -54
t-30.5 -153q0 -98 30.5 -152.5t84.5 -54.5q56 0 86.5 54.5t30.5 152.5q0 99 -30.5 153t-86.5 54zM1806 520q-55 0 -84.5 -53.5t-29.5 -153.5q0 -99 29.5 -153t84.5 -54t85 54t30 153q0 100 -30 153.5t-85 53.5z" />
    <glyph glyph-name="minute" unicode="&#x2032;" horiz-adv-x="411" 
d="M211 909h-150l74 471h215z" />
    <glyph glyph-name="second" unicode="&#x2033;" horiz-adv-x="747" 
d="M211 909h-150l74 471h215zM553 909h-150l74 471h215z" />
    <glyph glyph-name="guilsinglleft" unicode="&#x2039;" horiz-adv-x="630" 
d="M313 520l224 -409h-209l-234 409l234 410h209z" />
    <glyph glyph-name="guilsinglright" unicode="&#x203a;" horiz-adv-x="630" 
d="M303 930l234 -410l-234 -409h-209l223 409l-223 410h209z" />
    <glyph glyph-name="exclamdouble" unicode="&#x203c;" horiz-adv-x="1099" 
d="M397 383h-182l-53 1075h289zM885 383h-183l-53 1075h289zM438 0h-264v244h264v-244zM926 0h-264v244h264v-244z" />
    <glyph glyph-name="interrobang" unicode="&#x203d;" horiz-adv-x="1089" 
d="M662 1458l-7 -125q166 -22 261.5 -113.5t95.5 -230.5q0 -112 -41.5 -186t-169.5 -172q-99 -77 -129.5 -126.5t-30.5 -144.5h-192l-29 748q-104 -49 -113 -193h-241q6 172 95.5 276.5t250.5 135.5l-4 131h254zM686 797q48 50 64 86.5t16 93.5q0 52 -31 90t-88 55l-16 -379
h4q21 24 51 54zM408 244h264v-244h-264v244z" />
    <glyph glyph-name="overline" unicode="&#x203e;" horiz-adv-x="1024" 
d="M1024 1604h-1024v159h1024v-159z" />
    <glyph glyph-name="fraction" unicode="&#x2044;" horiz-adv-x="303" 
d="M-150 0h-169l772 1380h168z" />
    <glyph glyph-name="zerosuperior" unicode="&#x2070;" horiz-adv-x="923" 
d="M463 1665q189 0 291 -131.5t102 -374.5t-102 -374.5t-291 -131.5q-191 0 -292 131t-101 375t101 375t292 131zM463 1499q-89 0 -135.5 -88t-46.5 -252q0 -165 46.5 -253.5t135.5 -88.5q87 0 133.5 88.5t46.5 253.5q0 163 -46.5 251.5t-133.5 88.5z" />
    <glyph glyph-name="foursuperior" unicode="&#x2074;" horiz-adv-x="874" 
d="M852 893h-160v-217h-203v217h-466v170l399 579h270v-589h160v-160zM209 1053h287v114q0 108 8 316h-4q-53 -87 -191 -287z" />
    <glyph glyph-name="fivesuperior" unicode="&#x2075;" horiz-adv-x="886" 
d="M762 1473h-453l-22 -226h4q72 72 194 72q148 0 239 -88.5t91 -231.5q0 -157 -103.5 -251.5t-273.5 -94.5q-167 0 -265.5 78.5t-98.5 214.5h209q1 -61 43.5 -95t109.5 -34q77 0 121.5 45.5t44.5 128.5q0 80 -44.5 125t-117.5 45q-60 0 -98.5 -28.5t-52.5 -79.5l-205 12
l55 577h623v-169z" />
    <glyph glyph-name="sixsuperior" unicode="&#x2076;" horiz-adv-x="884" 
d="M471 1665q149 0 239.5 -76.5t100.5 -212.5h-211q-19 127 -137 127q-186 0 -197 -299h4q84 101 232 101q142 0 231.5 -87t89.5 -225q0 -151 -103 -245.5t-267 -94.5q-185 0 -284 121t-99 356q0 255 105.5 395t295.5 140zM455 1153q-71 0 -115.5 -47.5t-44.5 -122.5
t44 -120.5t116 -45.5q70 0 113.5 46.5t43.5 121.5t-42.5 121.5t-114.5 46.5z" />
    <glyph glyph-name="sevensuperior" unicode="&#x2077;" horiz-adv-x="784" 
d="M762 1642v-169q-114 -156 -200 -362.5t-130 -434.5h-225q54 242 148 448t200 344h-532v174h739z" />
    <glyph glyph-name="eightsuperior" unicode="&#x2078;" horiz-adv-x="888" 
d="M444 1665q159 0 258 -74.5t99 -195.5q0 -76 -46.5 -132t-129.5 -83v-4q93 -25 145.5 -87.5t52.5 -150.5q0 -130 -103.5 -207.5t-275.5 -77.5t-275 77.5t-103 207.5q0 89 51.5 151t144.5 87v4q-83 27 -129.5 83t-46.5 132q0 121 99 195.5t259 74.5zM444 1503
q-72 0 -115.5 -33.5t-43.5 -89.5q0 -60 43 -95.5t116 -35.5q72 0 115 35.5t43 95.5q0 55 -43.5 89t-114.5 34zM444 1094q-76 0 -123 -38.5t-47 -101.5t46.5 -100t123.5 -37t122.5 37t45.5 100t-46 101.5t-122 38.5z" />
    <glyph glyph-name="ninesuperior" unicode="&#x2079;" horiz-adv-x="884" 
d="M414 653q-148 0 -238 76.5t-100 212.5h209q19 -127 137 -127q187 0 196 299h-4q-80 -100 -231 -100q-143 0 -232.5 86.5t-89.5 224.5q0 151 103.5 245.5t267.5 94.5q185 0 285 -121t100 -356q0 -256 -106 -395.5t-297 -139.5zM430 1165q72 0 116 47.5t44 122.5t-44 120.5
t-116 45.5q-71 0 -114.5 -46.5t-43.5 -121.5t43 -121.5t115 -46.5z" />
    <glyph glyph-name="plussuperior" unicode="&#x207a;" horiz-adv-x="839" 
d="M502 1208h241v-157h-241v-236h-162v236h-244v157h244v238h162v-238z" />
    <glyph glyph-name="minussuperior" unicode="&#x207b;" horiz-adv-x="839" 
d="M743 1051h-647v157h647v-157z" />
    <glyph glyph-name="equalsuperior" unicode="&#x207c;" horiz-adv-x="839" 
d="M743 1190h-647v153h647v-153zM743 915h-647v154h647v-154z" />
    <glyph glyph-name="parenleftsuperior" unicode="&#x207d;" horiz-adv-x="481" 
d="M272 1739h166q-83 -165 -120 -316t-37 -321t37 -321t120 -316h-166q-107 152 -156.5 304.5t-49.5 332.5q0 181 50 334t156 303z" />
    <glyph glyph-name="parenrightsuperior" unicode="&#x207e;" horiz-adv-x="481" 
d="M209 465h-166q83 165 120.5 316.5t37.5 320.5t-37.5 320.5t-120.5 316.5h166q107 -152 157 -304.5t50 -332.5t-50 -333.5t-157 -303.5z" />
    <glyph glyph-name="zeroinferior" unicode="&#x2080;" horiz-adv-x="923" 
d="M463 637q189 0 291 -131.5t102 -374.5t-102 -374.5t-291 -131.5q-191 0 -292 131t-101 375t101 375t292 131zM463 471q-89 0 -135.5 -88t-46.5 -252q0 -165 46.5 -253.5t135.5 -88.5q87 0 133.5 88.5t46.5 253.5q0 163 -46.5 251.5t-133.5 88.5z" />
    <glyph glyph-name="oneinferior" unicode="&#x2081;" horiz-adv-x="614" 
d="M475 -352h-209v649h-246v152q131 0 194.5 38t78.5 127h182v-966z" />
    <glyph glyph-name="twoinferior" unicode="&#x2082;" horiz-adv-x="899" 
d="M453 637q160 0 256 -78.5t96 -204.5q0 -62 -19 -111.5t-58.5 -89t-82.5 -68t-108 -62.5q-132 -68 -177 -111t-47 -94h516v-170h-751q-4 12 -4 41q0 152 61 248t230 188q123 65 174 111.5t51 115.5q0 53 -36.5 86t-100.5 33q-150 0 -156 -158h-209q3 154 100.5 239
t264.5 85z" />
    <glyph glyph-name="threeinferior" unicode="&#x2083;" horiz-adv-x="886" 
d="M442 637q167 0 263 -73.5t96 -198.5q0 -81 -41 -132.5t-131 -85.5v-4q97 -32 141.5 -87.5t44.5 -145.5q0 -129 -102 -207t-269 -78q-184 0 -283.5 86.5t-99.5 245.5h211q0 -166 172 -166q72 0 116 34.5t44 92.5q0 137 -201 137h-30v160h35q85 0 135.5 35t50.5 96
q0 57 -42 91t-114 34q-157 0 -157 -160h-207q0 154 97.5 240t270.5 86z" />
    <glyph glyph-name="fourinferior" unicode="&#x2084;" horiz-adv-x="874" 
d="M850 -135h-160v-217h-203v217h-467v170l400 579h270v-589h160v-160zM207 25h287v114q0 108 8 316h-4q-53 -87 -191 -287z" />
    <glyph glyph-name="fiveinferior" unicode="&#x2085;" horiz-adv-x="886" 
d="M762 444h-453l-22 -225h4q72 72 194 72q148 0 239 -88.5t91 -231.5q0 -157 -103.5 -251.5t-273.5 -94.5q-167 0 -265.5 78.5t-98.5 214.5h209q1 -61 43.5 -95t109.5 -34q77 0 121.5 45.5t44.5 128.5q0 80 -44.5 125t-117.5 45q-60 0 -98.5 -28.5t-52.5 -79.5l-205 12
l55 577h623v-170z" />
    <glyph glyph-name="sixinferior" unicode="&#x2086;" horiz-adv-x="884" 
d="M471 637q149 0 239.5 -76.5t100.5 -212.5h-211q-19 127 -137 127q-186 0 -197 -299h4q83 100 232 100q142 0 231.5 -86.5t89.5 -224.5q0 -151 -103 -245.5t-267 -94.5q-185 0 -284 121t-99 356q0 255 105.5 395t295.5 140zM455 125q-71 0 -115.5 -47.5t-44.5 -122.5
t44 -120.5t116 -45.5q70 0 113.5 46.5t43.5 121.5t-42.5 121.5t-114.5 46.5z" />
    <glyph glyph-name="seveninferior" unicode="&#x2087;" horiz-adv-x="784" 
d="M760 614v-170q-114 -156 -200 -362t-130 -434h-225q54 242 148 448t200 344h-533v174h740z" />
    <glyph glyph-name="eightinferior" unicode="&#x2088;" horiz-adv-x="888" 
d="M444 637q159 0 258 -74.5t99 -195.5q0 -76 -46.5 -132t-129.5 -83v-5q93 -25 145.5 -87t52.5 -150q0 -130 -103.5 -207.5t-275.5 -77.5t-275 77.5t-103 207.5q0 89 51.5 150.5t144.5 86.5v5q-83 27 -129.5 83t-46.5 132q0 121 99 195.5t259 74.5zM444 475
q-72 0 -115.5 -33.5t-43.5 -89.5q0 -60 43 -95.5t116 -35.5q72 0 115 35.5t43 95.5q0 55 -43.5 89t-114.5 34zM444 66q-76 0 -123 -38.5t-47 -101.5t46.5 -100t123.5 -37t122.5 37t45.5 100t-46 101.5t-122 38.5z" />
    <glyph glyph-name="nineinferior" unicode="&#x2089;" horiz-adv-x="884" 
d="M414 -375q-148 0 -238 76.5t-100 212.5h209q19 -127 137 -127q187 0 196 299h-4q-80 -100 -231 -100q-143 0 -232.5 86.5t-89.5 224.5q0 151 103.5 245.5t267.5 94.5q185 0 285 -121t100 -356q0 -256 -106 -395.5t-297 -139.5zM430 137q72 0 116 47.5t44 122.5t-44 120.5
t-116 45.5q-71 0 -114.5 -46.5t-43.5 -121.5t43 -121.5t115 -46.5z" />
    <glyph glyph-name="plusinferior" unicode="&#x208a;" horiz-adv-x="841" 
d="M502 180h241v-157h-241v-236h-162v236h-242v157h242v238h162v-238z" />
    <glyph glyph-name="minusinferior" unicode="&#x208b;" horiz-adv-x="841" 
d="M743 23h-645v157h645v-157z" />
    <glyph glyph-name="equalinferior" unicode="&#x208c;" horiz-adv-x="841" 
d="M743 162h-645v153h645v-153zM743 -113h-645v154h645v-154z" />
    <glyph glyph-name="parenleftinferior" unicode="&#x208d;" horiz-adv-x="481" 
d="M272 711h166q-83 -165 -120 -316t-37 -321t37 -321t120 -316h-166q-107 152 -156.5 304.5t-49.5 332.5q0 181 50 334t156 303z" />
    <glyph glyph-name="parenrightinferior" unicode="&#x208e;" horiz-adv-x="481" 
d="M209 -563h-166q83 165 120.5 316.5t37.5 320.5t-37.5 320.5t-120.5 316.5h166q107 -152 157 -304.5t50 -332.5t-50 -333.5t-157 -303.5z" />
    <glyph glyph-name="ninferior" unicode="&#x2099;" horiz-adv-x="888" 
d="M518 395q131 0 202 -76.5t71 -224.5v-446h-199v426q0 162 -133 162q-69 0 -111.5 -50.5t-42.5 -146.5v-391h-201v729h191v-90h2q81 108 221 108z" />
    <glyph glyph-name="franc" unicode="&#x20a3;" horiz-adv-x="1189" 
d="M461 1167v-321h620v-213h-620v-215h344v-182h-344v-236h-246v236h-166v182h166v962h915v-213h-669z" />
    <glyph glyph-name="lira" unicode="&#x20a4;" horiz-adv-x="1189" 
d="M367 197h743v-197h-1061v199q96 0 143.5 63.5t47.5 208.5v16h-191v131h191v99h-191v133h191v92q0 234 115.5 351.5t336.5 117.5q201 0 315.5 -115.5t114.5 -316.5h-235q0 110 -51 168.5t-144 58.5q-103 0 -156 -67t-53 -197v-92h254v-133h-254v-99h254v-131h-254v-14
q0 -110 -26.5 -171t-89.5 -101v-4z" />
    <glyph glyph-name="peseta" unicode="&#x20a7;" horiz-adv-x="1775" 
d="M1649 178q43 0 73 10v-182q-63 -18 -133 -18q-165 0 -239 74.5t-74 244.5v555h-119q-19 -184 -152 -288.5t-366 -104.5h-213v-469h-246v1380h459q215 0 345 -90.5t165 -249.5h127v260h233v-260h203v-178h-203v-520q0 -88 32.5 -126t107.5 -38zM426 676h184
q152 0 225.5 65t73.5 185q0 119 -74 183.5t-225 64.5h-184v-498z" />
    <glyph glyph-name="euro" unicode="&#x20ac;" horiz-adv-x="1189" 
d="M922 424h239q-22 -215 -153.5 -335t-345.5 -120q-226 0 -365 137t-176 396h-119l25 131h84l-2 57v41h-107l25 133h92q34 266 174.5 406.5t372.5 140.5q218 0 345.5 -118t141.5 -330h-233q-15 116 -80.5 179.5t-173.5 63.5q-125 0 -203 -87.5t-103 -254.5h486l-25 -133
h-473v-41q0 -39 2 -57h453l-25 -131h-416q26 -161 103 -244.5t197 -83.5q107 0 175 65.5t85 184.5z" />
    <glyph glyph-name="rupeeIndian" unicode="&#x20b9;" horiz-adv-x="1189" 
d="M772 1227v-4q105 -45 131 -156h232l-43 -154h-187q-23 -108 -109 -180t-225 -98v-4q71 -28 125.5 -87.5t106.5 -166.5l184 -377h-278l-166 354q-56 120 -126.5 172t-172.5 52h-33v163h92q131 0 214.5 45.5t113.5 126.5h-574l43 154h537q-43 160 -315 160h-265l43 153
h1035l-43 -153h-320z" />
    <glyph glyph-name="liraTurkish" unicode="&#x20ba;" horiz-adv-x="1189" 
d="M893 655h254q0 -328 -181 -497.5t-515 -169.5q-123 0 -234 12v530l-184 -100v164l184 100v158l-184 -100v163l184 101v364h246v-247l340 184v-164l-340 -184v-156l340 184v-163l-340 -185v-446q208 0 319 114.5t111 337.5z" />
    <glyph glyph-name="uni20BC" unicode="&#x20bc;" horiz-adv-x="1404" 
d="M88 0v623q0 310 121.5 459.5t380.5 166.5v209h225v-209q259 -17 380.5 -166.5t121.5 -459.5v-623h-225v616q0 214 -63 310t-214 106v-1032h-225v1032q-150 -10 -213.5 -106.5t-63.5 -309.5v-616h-225z" />
    <glyph glyph-name="ruble" unicode="&#x20bd;" horiz-adv-x="1189" 
d="M186 1380h476q233 0 356 -112t123 -307q0 -196 -123 -309t-356 -113h-234v-125h387v-183h-387v-231h-242v231h-166v183h166v125h-166v190h166v651zM428 1190v-461h205q129 0 193.5 61t64.5 171q0 109 -64.5 169t-193.5 60h-205z" />
    <glyph glyph-name="careof" unicode="&#x2105;" horiz-adv-x="1880" 
d="M430 1411q150 0 246 -83t108 -212h-209q-5 59 -43.5 98t-99.5 39q-77 0 -121.5 -60t-44.5 -167t44.5 -169t121.5 -62q59 0 98.5 43t44.5 108h209q-11 -138 -107 -222.5t-247 -84.5q-172 0 -273.5 104.5t-101.5 282.5q0 177 101.5 281t273.5 104zM623 0h-168l770 1380h170
zM1444 741q177 0 280 -104t103 -281q0 -180 -103 -283.5t-280 -103.5q-174 0 -277.5 104t-103.5 283q0 177 103.5 281t277.5 104zM1444 586q-78 0 -124 -62t-46 -168q0 -107 46 -169t124 -62q80 0 126 62t46 169q0 106 -46.5 168t-125.5 62z" />
    <glyph glyph-name="literSign" unicode="&#x2113;" horiz-adv-x="911" 
d="M426 416v-90q0 -91 34.5 -132.5t110.5 -41.5q53 0 99 16v-166q-71 -22 -156 -22q-164 0 -241.5 82.5t-77.5 259.5v65q-45 2 -109 14v136q72 -13 109 -15v449q0 168 33 265.5t95 136t164 38.5q134 0 215.5 -95.5t81.5 -303.5q0 -249 -94.5 -396.5t-263.5 -199.5zM524 1255
q-54 0 -76 -50t-22 -187v-453q213 102 213 447q0 243 -115 243z" />
    <glyph glyph-name="numero" unicode="&#x2116;" horiz-adv-x="2379" 
d="M1386 0h-352l-315 610q-178 347 -309 627h-4q12 -332 12 -664v-573h-238v1458h355l313 -610q178 -347 309 -627h4q-10 368 -10 664v573h235v-1458zM1944 1266q177 0 280 -104t103 -281q0 -180 -103 -283.5t-280 -103.5q-174 0 -277.5 104t-103.5 283q0 177 103.5 281
t277.5 104zM1944 1110q-78 0 -124 -61t-46 -168t46 -169.5t124 -62.5q80 0 126 62.5t46 169.5t-46 168t-126 61zM2286 201h-689v180h689v-180z" />
    <glyph glyph-name="published" unicode="&#x2117;" horiz-adv-x="1650" 
d="M825 1485q331 0 533.5 -208t202.5 -548t-202.5 -548t-533.5 -208q-218 0 -385 94t-258.5 266t-91.5 396t91.5 396t258.5 266t385 94zM825 1380q-285 0 -458.5 -178.5t-173.5 -472.5t173.5 -472.5t458.5 -178.5q286 0 460.5 179t174.5 472t-174.5 472t-460.5 179z
M539 1190h352q175 0 265.5 -80t90.5 -223q0 -141 -90.5 -222t-265.5 -81h-182v-336h-170v942zM709 1044v-313h163q197 0 197 156q0 157 -197 157h-163z" />
    <glyph glyph-name="trademark" unicode="&#x2122;" horiz-adv-x="1669" 
d="M635 1313h-227v-584h-170v584h-228v145h625v-145zM1579 729h-158v340q0 90 4 262h-4q-12 -43 -35 -129t-36 -129l-101 -344h-194l-101 344q-25 86 -71 258h-4q4 -172 4 -262v-340h-158v729h264l88 -305q44 -142 72 -270h4q28 128 72 270l90 305h264v-729z" />
    <glyph glyph-name="Ohm" unicode="&#x2126;" horiz-adv-x="1497" 
d="M750 1489q145 0 264 -40t207 -118.5t136 -202.5t48 -284q0 -186 -79.5 -335.5t-225.5 -295.5v-4h327v-209h-563v219q66 68 113.5 127.5t89 133t63 156.5t21.5 175q0 224 -109.5 341.5t-291.5 117.5q-184 0 -293 -117t-109 -342q0 -176 73.5 -313.5t211.5 -278.5v-219
h-563v209h327v4q-94 95 -156.5 181.5t-105.5 204t-43 245.5q0 160 48.5 284t137 202.5t208 118.5t264.5 40z" />
    <glyph glyph-name="estimated" unicode="&#x212e;" horiz-adv-x="1765" 
d="M883 1411q182 0 332 -60t247.5 -162t151 -235.5t53.5 -283.5h-1251q-12 0 -20.5 -7.5t-8.5 -17.5v-342q0 -32 7 -52t26 -38q189 -186 463 -186q147 0 277 62t212 163h141q-37 -52 -91.5 -98.5t-131.5 -88t-182 -66t-225 -24.5q-175 0 -323 53.5t-249.5 148.5t-158 227
t-56.5 286q0 152 55 284t154.5 229t249 152.5t328.5 55.5zM883 1358q-270 0 -463 -193q-19 -17 -26 -35t-7 -49v-340q0 -12 8.5 -19t20.5 -7h932q26 0 26 26v340q0 55 -31 84q-196 193 -460 193z" />
    <glyph glyph-name="oneeighth" unicode="&#x215b;" horiz-adv-x="1611" 
d="M418 553h-197v543h-203v141q101 0 154.5 35t71.5 108h174v-827zM379 0h-170l772 1380h168zM1221 848q141 0 229 -66t88 -170q0 -64 -39 -111t-110 -69v-4q79 -20 123 -72.5t44 -126.5q0 -115 -90.5 -182t-244.5 -67t-244 67t-90 182q0 73 45 126t125 73v4q-72 22 -112 69
t-40 111q0 104 88 170t228 66zM1221 700q-59 0 -94 -27t-35 -73q0 -47 35 -75.5t94 -28.5q61 0 97 28.5t36 75.5q0 46 -36 73t-97 27zM1221 352q-62 0 -101 -30.5t-39 -81.5t38 -80t102 -29q65 0 103 29t38 80t-39 81.5t-102 30.5z" />
    <glyph glyph-name="threeeighths" unicode="&#x215c;" horiz-adv-x="1865" 
d="M389 1401q147 0 233.5 -64.5t86.5 -171.5q0 -67 -34.5 -111t-111.5 -73v-2q83 -28 120.5 -76.5t37.5 -126.5q0 -112 -88.5 -178t-239.5 -66q-162 0 -251 74.5t-89 212.5h195q0 -133 145 -133q60 0 97.5 27.5t37.5 72.5q0 54 -43 82.5t-125 28.5h-28v145h26q72 0 116 30
t44 81q0 43 -35 69.5t-94 26.5q-135 0 -135 -127h-191q0 130 87.5 204.5t238.5 74.5zM633 0h-170l772 1380h168zM1475 848q141 0 229 -66t88 -170q0 -64 -39.5 -111t-110.5 -69v-4q79 -20 123.5 -72.5t44.5 -126.5q0 -115 -90.5 -182t-244.5 -67t-244 67t-90 182
q0 73 45 126t125 73v4q-72 22 -112 69t-40 111q0 104 88 170t228 66zM1475 700q-59 0 -94 -27t-35 -73q0 -47 35 -75.5t94 -28.5q61 0 97 28.5t36 75.5q0 46 -36 73t-97 27zM1475 352q-62 0 -101 -30.5t-39 -81.5t38 -80t102 -29q65 0 103 29t38 80t-39 81.5t-102 30.5z" />
    <glyph glyph-name="fiveeighths" unicode="&#x215d;" horiz-adv-x="1865" 
d="M674 1223h-393l-19 -174h4q63 57 168 57q129 0 208 -77.5t79 -203.5q0 -133 -90.5 -213t-241.5 -80q-147 0 -235 68t-88 186h194q1 -50 36 -77t91 -27q66 0 103.5 38.5t37.5 104.5q0 64 -36.5 100t-98.5 36q-52 0 -85 -23.5t-44 -65.5l-190 11l49 497h551v-157zM633 0
h-170l772 1380h168zM1473 848q141 0 229 -66t88 -170q0 -64 -39.5 -111t-110.5 -69v-4q79 -20 123.5 -72.5t44.5 -126.5q0 -115 -90.5 -182t-244.5 -67t-244 67t-90 182q0 73 45 126t125 73v4q-72 22 -112 69t-40 111q0 104 88 170t228 66zM1473 700q-59 0 -94.5 -27
t-35.5 -73q0 -47 35.5 -75.5t94.5 -28.5q61 0 97 28.5t36 75.5q0 46 -36 73t-97 27zM1473 352q-62 0 -101 -30.5t-39 -81.5t38 -80t102 -29q65 0 103 29t38 80t-39 81.5t-102 30.5z" />
    <glyph glyph-name="seveneighths" unicode="&#x215e;" horiz-adv-x="1669" 
d="M668 1380v-155q-97 -129 -171 -305t-112 -367h-207q47 205 127 380t170 288h-457v159h650zM436 0h-170l772 1380h168zM1278 848q141 0 229 -66t88 -170q0 -64 -39 -111t-110 -69v-4q79 -20 123.5 -72.5t44.5 -126.5q0 -115 -91 -182t-245 -67t-244 67t-90 182
q0 73 45 126t125 73v4q-72 22 -111.5 69t-39.5 111q0 104 88 170t227 66zM1278 700q-59 0 -94 -27t-35 -73q0 -47 35 -75.5t94 -28.5q61 0 97 28.5t36 75.5q0 46 -36 73t-97 27zM1278 352q-62 0 -100.5 -30.5t-38.5 -81.5t38 -80t101 -29q65 0 103 29t38 80t-39 81.5
t-102 30.5z" />
    <glyph glyph-name="Sevenroman" unicode="&#x2166;" horiz-adv-x="2465" 
d="M803 0h-311l-480 1458h252l199 -608q88 -261 182 -610h4q75 286 180 610l199 608h252zM1677 0h-245v1458h245v-1458zM2284 0h-246v1458h246v-1458z" />
    <glyph glyph-name="partialdiff" unicode="&#x2202;" horiz-adv-x="1255" 
d="M573 1489q266 0 405.5 -182.5t139.5 -532.5q0 -167 -28 -302t-77 -227.5t-118 -155.5t-149.5 -91.5t-172.5 -28.5q-233 0 -360 133t-127 355q0 149 57.5 267t169.5 187.5t262 69.5q107 0 183.5 -39t120.5 -102h4q2 18 2 55q0 177 -84.5 285t-216.5 108q-180 0 -205 -180
h-246q18 177 129 279t311 102zM600 797q-123 0 -196.5 -96t-73.5 -246q0 -134 64.5 -209.5t187.5 -75.5q127 0 199.5 92t72.5 240q0 135 -67.5 215t-186.5 80z" />
    <glyph glyph-name="increment" unicode="&#x2206;" horiz-adv-x="1406" 
d="M1399 0h-1391l533 1458h331zM1065 213l-174 510q-99 293 -186 580h-5q-70 -231 -188 -580l-174 -510h727z" />
    <glyph glyph-name="product" unicode="&#x220f;" horiz-adv-x="1372" 
d="M1192 -246h-244v1491h-522v-1491h-246v1704h1012v-1704z" />
    <glyph glyph-name="summation" unicode="&#x2211;" horiz-adv-x="1024" 
d="M952 1243h-610l383 -641l-383 -633h610v-215h-880v215l387 633l-387 641v215h880v-215z" />
    <glyph glyph-name="minus" unicode="&#x2212;" horiz-adv-x="1159" 
d="M1022 555h-885v186h885v-186z" />
    <glyph glyph-name="divisionslash" unicode="&#x2215;" horiz-adv-x="968" 
d="M254 -182h-193l611 1708h192z" />
    <glyph glyph-name="bulletoperator" unicode="&#x2219;" horiz-adv-x="722" 
d="M496 481h-269v289h269v-289z" />
    <glyph glyph-name="radical" unicode="&#x221a;" horiz-adv-x="1245" 
d="M717 -246h-305l-193 813h-168v189h326l190 -797h4l428 1499h205z" />
    <glyph glyph-name="infinity" unicode="&#x221e;" horiz-adv-x="1333" 
d="M999 961q136 0 220 -90.5t84 -239.5t-84 -239.5t-220 -90.5q-108 0 -184.5 50.5t-148.5 140.5q-70 -90 -146 -140.5t-184 -50.5q-138 0 -221.5 90.5t-83.5 239.5t83.5 239.5t221.5 90.5q108 0 184 -50.5t146 -140.5q72 90 148.5 140.5t184.5 50.5zM354 479q62 0 110.5 39
t102.5 113q-53 74 -102 112.5t-111 38.5q-67 0 -104 -40.5t-37 -110.5t37 -111t104 -41zM979 479q67 0 104 41t37 111t-37 110.5t-104 40.5q-62 0 -111 -38.5t-102 -112.5q54 -74 102.5 -113t110.5 -39z" />
    <glyph glyph-name="integral" unicode="&#x222b;" horiz-adv-x="681" 
d="M541 1473q45 0 123 -15v-172q-24 8 -58 8q-77 0 -113 -39.5t-36 -130.5v-1196q0 -160 -80.5 -240.5t-235.5 -80.5q-51 0 -123 14v172q24 -8 56 -8q77 0 114 40t37 130v1196q0 160 80.5 241t235.5 81z" />
    <glyph glyph-name="approxequal" unicode="&#x2248;" horiz-adv-x="1159" 
d="M391 1028q47 0 92 -17.5t79.5 -42.5t66.5 -50t66.5 -42.5t66.5 -17.5q55 0 85 38.5t30 104.5h153q0 -144 -71.5 -232.5t-190.5 -88.5q-57 0 -112.5 27t-92.5 59t-82.5 59t-83.5 27q-55 0 -84.5 -39t-29.5 -106h-154q0 145 71 233t191 88zM391 618q57 0 113 -27t92.5 -59
t82 -59t83.5 -27q55 0 85 39.5t30 106.5h153q0 -145 -71.5 -233.5t-190.5 -88.5q-46 0 -91 17.5t-79.5 42.5t-67 50t-67 42.5t-66.5 17.5q-55 0 -84.5 -38.5t-29.5 -104.5h-154q0 144 71.5 232.5t190.5 88.5z" />
    <glyph glyph-name="notequal" unicode="&#x2260;" horiz-adv-x="1159" 
d="M723 737l-109 -178h408v-186h-518l-150 -250h-178l150 250h-189v186h299l109 178h-408v187h518l150 250h178l-149 -250h188v-187h-299z" />
    <glyph glyph-name="lessequal" unicode="&#x2264;" horiz-adv-x="1159" 
d="M1022 934l-668 -244v-4l668 -246v-192l-885 321v236l885 321v-192zM1022 182v-182h-885v182h885z" />
    <glyph glyph-name="greaterequal" unicode="&#x2265;" horiz-adv-x="1159" 
d="M1022 805v-236l-885 -321v192l668 246v4l-668 244v192zM1022 0h-885v182h885v-182z" />
    <glyph glyph-name="lozenge" unicode="&#x25ca;" horiz-adv-x="1271" 
d="M1190 729l-399 -729h-310l-399 729l399 729h310zM324 729l311 -561l313 561l-313 561z" />
    <glyph glyph-name="apple" unicode="&#xf8ff;" horiz-adv-x="1296" 
d="M309 1591h678q125 0 197.5 -73t72.5 -199v-1180q0 -126 -72.5 -199t-197.5 -73h-678q-126 0 -199 73t-73 199v1180q0 126 73 199t199 73zM987 1477h-678q-72 0 -113.5 -43t-41.5 -115v-1180q0 -72 41.5 -114.5t113.5 -42.5h678q72 0 114 42.5t42 114.5v1180q0 72 -42 115
t-114 43zM647 1325q165 0 262 -82.5t97 -222.5q0 -86 -31 -145t-125 -144q-84 -76 -109.5 -131t-25.5 -168h-178q-2 20 -2 60q0 117 28 180t119 151q67 65 86.5 102t19.5 91q0 62 -37 96.5t-104 34.5q-156 0 -162 -182h-213q4 176 101.5 268t273.5 92zM739 133h-227v209h227
v-209z" />
    <glyph glyph-name="ff" unicode="&#xfb00;" horiz-adv-x="1259" 
d="M1180 1294q-77 0 -113.5 -40t-36.5 -130v-84h201v-178h-201v-862h-231v862h-367v-862h-231v862h-176v178h176v111q0 160 80 241t235 81q46 0 123 -15v-172q-28 8 -57 8q-77 0 -113.5 -40t-36.5 -130v-84h367v111q0 160 80 241t235 81q48 0 121 -15v-172q-24 8 -55 8z" />
    <glyph glyph-name="fi" unicode="&#xfb01;" horiz-adv-x="1193" 
d="M201 1040v111q0 160 80 241t235 81q46 0 123 -15v-172q-28 8 -57 8q-77 0 -113.5 -40t-36.5 -130v-84h201v-178h-201v-862h-231v862h-176v178h176zM1044 1458v-223h-233v223h233zM811 1040h233v-1040h-233v1040z" />
    <glyph glyph-name="fl" unicode="&#xfb02;" horiz-adv-x="1193" 
d="M201 1040v111q0 160 80 241t235 81q46 0 123 -15v-172q-28 8 -57 8q-77 0 -113.5 -40t-36.5 -130v-84h201v-178h-201v-862h-231v862h-176v178h176zM1044 1458v-1458h-233v1458h233z" />
    <glyph glyph-name="ffi" unicode="&#xfb03;" horiz-adv-x="1792" 
d="M799 1040v111q0 160 80 241t235 81q48 0 121 -15v-172q-24 8 -55 8q-77 0 -113.5 -40t-36.5 -130v-84h201v-178h-201v-862h-231v862h-367v-862h-231v862h-176v178h176v111q0 160 80 241t235 81q46 0 123 -15v-172q-28 8 -57 8q-77 0 -113.5 -40t-36.5 -130v-84h367z
M1642 1458v-223h-233v223h233zM1409 1040h233v-1040h-233v1040z" />
    <glyph glyph-name="ffl" unicode="&#xfb04;" horiz-adv-x="1792" 
d="M799 1040v111q0 160 80 241t235 81q48 0 121 -15v-172q-24 8 -55 8q-77 0 -113.5 -40t-36.5 -130v-84h201v-178h-201v-862h-231v862h-367v-862h-231v862h-176v178h176v111q0 160 80 241t235 81q46 0 123 -15v-172q-28 8 -57 8q-77 0 -113.5 -40t-36.5 -130v-84h367z
M1642 1458v-1458h-233v1458h233z" />
    <glyph glyph-name="uniFEFF" unicode="&#xfeff;" horiz-adv-x="0" 
 />
    <glyph glyph-name="NULL" horiz-adv-x="1228" 
 />
    <glyph glyph-name="J.acute.loclNLD" horiz-adv-x="765" 
d="M508 1581h-191l166 295h295zM596 1458v-1016q0 -232 -110 -343t-339 -111q-62 0 -116 14v211q44 -8 92 -8q119 0 173 61t54 219v973h246z" />
    <glyph glyph-name="Ccedilla.ss01" horiz-adv-x="1423" 
d="M735 1489q263 0 422 -147.5t170 -383.5h-248q-15 145 -106.5 228.5t-237.5 83.5q-186 0 -292.5 -144.5t-106.5 -396.5t105 -396.5t288 -144.5q146 0 239 84t113 234h252q-22 -251 -182 -394t-422 -143q-301 0 -474 203.5t-173 556.5q0 354 174.5 557t478.5 203zM657 -438
h-278l276 338h205z" />
    <glyph glyph-name="Scedilla.ss01" horiz-adv-x="1269" 
d="M604 1489q265 0 401 -122t136 -357h-248q0 137 -75.5 207.5t-217.5 70.5q-118 0 -187 -52.5t-69 -141.5q0 -94 72.5 -140t261.5 -92q53 -13 89.5 -23t84 -25t79.5 -29.5t69.5 -35.5t62 -43.5t49 -52.5t39 -64.5t23 -78.5t8.5 -94q0 -202 -149.5 -324.5t-395.5 -122.5
q-267 0 -417 132t-150 380h252q0 -155 81.5 -232t235.5 -77q136 0 212.5 59t76.5 162q0 37 -8 64.5t-29 50t-43.5 38t-65.5 31t-81 26t-103 26.5q-56 14 -91 23.5t-83.5 25t-79.5 29.5t-70 34.5t-62.5 42.5t-49 52t-39 64t-22.5 77.5t-9 93.5q0 187 140.5 302.5t371.5 115.5
zM553 -438h-279l277 338h205z" />
    <glyph glyph-name="Tcedilla.ss01" horiz-adv-x="1243" 
d="M1223 1245h-480v-1245h-243v1245h-480v213h1203v-213zM549 -438h-279l277 338h205z" />
    <glyph glyph-name="idotaccent" horiz-adv-x="532" 
d="M383 1235h-233v223h233v-223zM383 0h-233v1040h233v-1040z" />
    <glyph glyph-name="j.acute.loclNLD" horiz-adv-x="540" 
d="M309 1163h-190l166 295h295zM391 1040v-1081q0 -179 -87.5 -263.5t-240.5 -84.5q-53 0 -118 14v174q27 -6 57 -6q79 0 117.5 44.5t38.5 152.5v1050h233z" />
    <glyph glyph-name="ccedilla.ss01" horiz-adv-x="1122" 
d="M584 1071q197 0 325.5 -113.5t143.5 -293.5h-244q-8 101 -69 162t-156 61q-122 0 -191 -98t-69 -269t68.5 -268.5t191.5 -97.5q94 0 154.5 67t68.5 174h246q-15 -191 -142.5 -308.5t-326.5 -117.5q-231 0 -368.5 149t-137.5 402t137.5 402t368.5 149zM512 -438h-279
l277 338h205z" />
    <glyph glyph-name="scedilla.ss01" horiz-adv-x="1042" 
d="M508 1071q200 0 310.5 -91t111.5 -263h-225q0 92 -51.5 138t-147.5 46q-81 0 -126.5 -33t-45.5 -90q0 -62 47 -88t188 -61q157 -41 217 -69q144 -66 170 -200q7 -34 7 -73q0 -142 -119 -230t-318 -88q-213 0 -331 95t-119 278h237q0 -95 56.5 -147t160.5 -52
q88 0 138.5 35t50.5 94q0 20 -3 36t-13 29.5t-19 23.5t-29.5 20t-35 16.5t-46.5 15.5t-52.5 14.5t-63.5 16.5q-147 36 -205 65q-134 65 -150 207q-2 21 -2 44q0 138 112.5 224.5t295.5 86.5zM451 -438h-279l277 338h204z" />
    <glyph glyph-name="tcedilla.ss01" horiz-adv-x="694" 
d="M567 178q45 0 72 10v-182q-63 -18 -131 -18q-165 0 -240 75t-75 244v555h-175v178h175v260h233v-260h203v-178h-203v-520q0 -88 32.5 -126t108.5 -38zM311 -100h205l-203 -338h-278z" />
    <glyph glyph-name="a.sups" horiz-adv-x="823" 
d="M401 1425q324 0 324 -290v-258q0 -119 20 -201h-180q-12 47 -12 98h-2q-83 -115 -250 -115q-119 0 -188.5 62t-69.5 160q0 95 68 151t229 80q141 19 190 21v28q0 133 -129 133q-62 0 -95.5 -30.5t-35.5 -85.5h-196q6 108 89 177.5t238 69.5zM530 983v33q-60 -3 -155 -19
q-71 -12 -101 -36.5t-30 -67.5q0 -45 30 -71.5t86 -26.5q81 0 123 45q28 27 37.5 57.5t9.5 85.5z" />
    <glyph glyph-name="b.sups" horiz-adv-x="890" 
d="M305 1319h4q32 49 89 77.5t122 28.5q144 0 230 -105t86 -280q0 -174 -86.5 -278.5t-231.5 -104.5q-68 0 -125.5 30t-89.5 83h-4v-94h-195v1020h201v-377zM459 1270q-74 0 -119 -62.5t-45 -167.5q0 -104 45 -166.5t119 -62.5q76 0 122 63t46 166q0 104 -46 167t-122 63z
" />
    <glyph glyph-name="c.sups" horiz-adv-x="833" 
d="M430 1425q150 0 246 -82t108 -210h-209q-5 58 -43.5 97.5t-99.5 39.5q-77 0 -121.5 -61t-44.5 -167q0 -108 44.5 -169.5t121.5 -61.5q59 0 98.5 42.5t44.5 107.5h209q-11 -138 -107 -223t-247 -85q-172 0 -273.5 104.5t-101.5 284.5q0 175 101.5 279t273.5 104z" />
    <glyph glyph-name="d.sups" horiz-adv-x="890" 
d="M786 1696v-1020h-194v94h-4q-30 -53 -88 -83t-127 -30q-145 0 -231.5 104.5t-86.5 278.5q0 175 86 280t230 105q65 0 122 -28.5t89 -77.5h4v377h200zM432 1270q-76 0 -122 -63t-46 -167q0 -103 46 -166t122 -63q74 0 119 62.5t45 166.5q0 105 -45 167.5t-119 62.5z" />
    <glyph glyph-name="e.sups" horiz-adv-x="849" 
d="M428 795q63 0 104 28t50 74h204q-23 -104 -117.5 -174t-238.5 -70q-176 0 -275.5 109t-99.5 285q0 166 99 272t272 106q131 0 220.5 -63t125.5 -176q23 -73 23 -189h-543q4 -104 52.5 -153t123.5 -49zM426 1288q-69 0 -114.5 -42t-55.5 -128h340q-9 84 -54.5 127
t-115.5 43z" />
    <glyph glyph-name="egrave.sups" horiz-adv-x="849" 
d="M373 1489l-221 207h260l143 -207h-182zM428 795q63 0 104 28t50 74h204q-23 -104 -117.5 -174t-238.5 -70q-176 0 -275.5 109t-99.5 285q0 166 99 272t272 106q131 0 220.5 -63t125.5 -176q23 -73 23 -189h-543q4 -104 52.5 -153t123.5 -49zM426 1288q-69 0 -114.5 -42
t-55.5 -128h340q-9 84 -54.5 127t-115.5 43z" />
    <glyph glyph-name="f.sups" horiz-adv-x="503" 
d="M446 1559q-55 0 -80.5 -26t-25.5 -85v-43h141v-150h-141v-579h-201v579h-123v150h123v65q0 119 63.5 178.5t184.5 59.5q46 0 100 -12v-142q-25 5 -41 5z" />
    <glyph glyph-name="g.sups" horiz-adv-x="880" 
d="M369 1425q137 0 215 -116h4v96h188v-682q0 -163 -92.5 -244.5t-267.5 -81.5q-150 0 -236 62t-92 172h195q3 -47 39 -73t96 -26q82 0 123 45t41 146v80h-4q-76 -109 -213 -109q-141 0 -225.5 99.5t-84.5 265.5q0 168 85 267t229 99zM422 1270q-73 0 -116.5 -57.5
t-43.5 -153.5q0 -95 43.5 -152t116.5 -57q76 0 121 56.5t45 152.5q0 97 -45 154t-121 57z" />
    <glyph glyph-name="h.sups" horiz-adv-x="888" 
d="M305 1327h4q75 96 209 96q131 0 202 -76.5t71 -224.5v-446h-199v426q0 162 -133 162q-69 0 -111.5 -50t-42.5 -147v-391h-201v1020h201v-369z" />
    <glyph glyph-name="i.sups" horiz-adv-x="409" 
d="M305 1526h-201v170h201v-170zM305 676h-201v729h201v-729z" />
    <glyph glyph-name="j.sups" horiz-adv-x="417" 
d="M313 1526h-200v170h200v-170zM313 1405v-748q0 -131 -67.5 -192.5t-184.5 -61.5q-43 0 -100 11v147q14 -4 43 -4q55 0 82 28.5t27 100.5v719h200z" />
    <glyph glyph-name="k.sups" horiz-adv-x="802" 
d="M817 676h-252l-256 342h-4v-342h-201v1022h201v-584h4l236 291h239l-292 -336z" />
    <glyph glyph-name="l.sups" horiz-adv-x="409" 
d="M305 676h-201v1020h201v-1020z" />
    <glyph glyph-name="m.sups" horiz-adv-x="1323" 
d="M967 1423q123 0 191.5 -76.5t68.5 -222.5v-448h-201v428q0 160 -119 160q-67 0 -104 -53t-37 -150v-385h-201v440q0 72 -31 110t-88 38q-68 0 -104.5 -53.5t-36.5 -151.5v-383h-201v729h191v-86h4q78 104 207 104q76 0 133.5 -33.5t89.5 -97.5q81 131 238 131z" />
    <glyph glyph-name="n.sups" horiz-adv-x="888" 
d="M518 1423q131 0 202 -76.5t71 -224.5v-446h-199v426q0 162 -133 162q-69 0 -111.5 -50.5t-42.5 -146.5v-391h-201v729h191v-90h2q81 108 221 108z" />
    <glyph glyph-name="o.sups" horiz-adv-x="874" 
d="M438 1425q175 0 278 -104t103 -281q0 -178 -103 -282.5t-278 -104.5t-279 104.5t-104 282.5q0 177 104 281t279 104zM438 1270q-80 0 -126 -61.5t-46 -168.5t46 -169t126 -62q79 0 124.5 62t45.5 169t-45.5 168.5t-124.5 61.5z" />
    <glyph glyph-name="p.sups" horiz-adv-x="890" 
d="M518 1425q145 0 231.5 -105t86.5 -280q0 -174 -86 -278.5t-230 -104.5q-65 0 -122 28t-89 77h-4v-350h-201v993h195v-94h4q32 54 89.5 84t125.5 30zM459 1270q-74 0 -119 -62.5t-45 -167.5q0 -104 45 -166.5t119 -62.5q76 0 122 63t46 166q0 104 -46 167t-122 63z" />
    <glyph glyph-name="q.sups" horiz-adv-x="890" 
d="M373 1425q68 0 126.5 -30.5t88.5 -83.5h4v94h194v-993h-200v350h-4q-32 -49 -89 -77t-122 -28q-144 0 -230 104.5t-86 278.5q0 175 86.5 280t231.5 105zM432 1270q-76 0 -122 -63t-46 -167q0 -103 46 -166t122 -63q74 0 119 62.5t45 166.5q0 105 -45 167.5t-119 62.5z
" />
    <glyph glyph-name="r.sups" horiz-adv-x="589" 
d="M512 1413q36 0 66 -6v-176q-27 8 -68 8q-99 0 -152 -60t-53 -169v-334h-201v729h189v-105h4q74 113 215 113z" />
    <glyph glyph-name="s.sups" horiz-adv-x="780" 
d="M383 1425q150 0 233.5 -61.5t83.5 -181.5h-194q0 110 -125 110q-53 0 -82 -18.5t-29 -52.5q0 -40 32 -56.5t132 -40.5q35 -9 47 -12t44.5 -12.5t46 -15.5t39.5 -18.5t38.5 -23.5t30 -28.5t25.5 -36t14 -42.5t6 -52q0 -104 -88 -167t-240 -63q-165 0 -254 66.5t-90 195.5
h203q0 -122 143 -122q57 0 90 20t33 55q0 44 -37.5 63.5t-148.5 47.5q-117 30 -156 49q-106 57 -108 176q0 99 83 160t228 61z" />
    <glyph glyph-name="t.sups" horiz-adv-x="526" 
d="M434 827q32 0 53 7v-154q-51 -14 -106 -14q-129 0 -186.5 54t-57.5 177v358h-123v150h123v188h199v-188h143v-150h-143v-317q0 -60 22 -85.5t76 -25.5z" />
    <glyph glyph-name="u.sups" horiz-adv-x="886" 
d="M371 657q-131 0 -203 77t-72 224v447h201v-426q0 -162 133 -162q69 0 111.5 50.5t42.5 146.5v391h198v-729h-188v90h-2q-37 -50 -94.5 -79.5t-126.5 -29.5z" />
    <glyph glyph-name="v.sups" horiz-adv-x="753" 
d="M510 676h-266l-254 729h215l86 -277q37 -127 84 -311h4q29 123 84 311l86 277h213z" />
    <glyph glyph-name="w.sups" horiz-adv-x="1208" 
d="M1020 676h-277l-69 285q-31 118 -68 309h-4q-39 -203 -65 -309l-72 -285h-275l-180 729h197l61 -279q7 -34 20 -99t23 -117t17 -97h4q35 178 67 309l72 283h268l70 -283q36 -137 70 -309h2q32 184 61 313l59 279h199z" />
    <glyph glyph-name="x.sups" horiz-adv-x="759" 
d="M504 1053l262 -377h-231l-152 254h-4l-154 -254h-231l262 377l-242 352h230l135 -227h4l133 227h229z" />
    <glyph glyph-name="y.sups" horiz-adv-x="755" 
d="M764 1405l-270 -733q-55 -154 -127.5 -211.5t-208.5 -57.5q-64 0 -101 11v153q29 -10 68 -10q61 0 93 26.5t54 94.5l-280 727h217l174 -531h4l170 531h207z" />
    <glyph glyph-name="z.sups" horiz-adv-x="718" 
d="M668 1243l-381 -405v-4h393v-158h-641v162l381 405v4h-367v158h615v-162z" />
    <glyph glyph-name="a.smcp" horiz-adv-x="1177" 
d="M825 260h-471l-90 -260h-256l420 1122h322l419 -1122h-256zM758 463l-29 80q-71 198 -137 415h-4q-66 -217 -137 -415l-27 -80h334z" />
    <glyph glyph-name="aacute.smcp" horiz-adv-x="1177" 
d="M625 1245h-191l166 295h295zM825 260h-471l-90 -260h-256l420 1122h322l419 -1122h-256zM758 463l-29 80q-71 198 -137 415h-4q-66 -217 -137 -415l-27 -80h334z" />
    <glyph glyph-name="abreve.smcp" horiz-adv-x="1177" 
d="M588 1239q-150 0 -238.5 79t-99.5 222h164q7 -70 53 -108.5t121 -38.5t121 38.5t53 108.5h166q-11 -143 -100 -222t-240 -79zM825 260h-471l-90 -260h-256l420 1122h322l419 -1122h-256zM758 463l-29 80q-71 198 -137 415h-4q-66 -217 -137 -415l-27 -80h334z" />
    <glyph glyph-name="acircumflex.smcp" horiz-adv-x="1177" 
d="M451 1245h-222l234 295h252l233 -295h-221l-137 172zM825 260h-471l-90 -260h-256l420 1122h322l419 -1122h-256zM758 463l-29 80q-71 198 -137 415h-4q-66 -217 -137 -415l-27 -80h334z" />
    <glyph glyph-name="adieresis.smcp" horiz-adv-x="1177" 
d="M481 1317h-209v223h209v-223zM903 1317h-209v223h209v-223zM825 260h-471l-90 -260h-256l420 1122h322l419 -1122h-256zM758 463l-29 80q-71 198 -137 415h-4q-66 -217 -137 -415l-27 -80h334z" />
    <glyph glyph-name="agrave.smcp" horiz-adv-x="1177" 
d="M555 1245l-270 295h293l167 -295h-190zM825 260h-471l-90 -260h-256l420 1122h322l419 -1122h-256zM758 463l-29 80q-71 198 -137 415h-4q-66 -217 -137 -415l-27 -80h334z" />
    <glyph glyph-name="amacron.smcp" horiz-adv-x="1177" 
d="M901 1325h-625v160h625v-160zM825 260h-471l-90 -260h-256l420 1122h322l419 -1122h-256zM758 463l-29 80q-71 198 -137 415h-4q-66 -217 -137 -415l-27 -80h334z" />
    <glyph glyph-name="aogonek.smcp" horiz-adv-x="1177" 
d="M1100 -262q42 0 76 12v-127q-55 -22 -140 -22q-108 0 -162.5 44.5t-54.5 125.5q0 65 38 116.5t122 112.5h-66l-88 260h-471l-90 -260h-256l420 1122h322l419 -1122q-81 -58 -114 -103.5t-33 -91.5q0 -67 78 -67zM758 463l-29 80q-71 198 -137 415h-4q-66 -217 -137 -415
l-27 -80h334z" />
    <glyph glyph-name="aring.smcp" horiz-adv-x="1177" 
d="M588 1231q-89 0 -151 62t-62 151t62 151t151 62t151 -62t62 -151t-62 -151t-151 -62zM588 1559q-47 0 -81 -34t-34 -81t34 -81t81 -34t80.5 34t33.5 81t-33.5 81t-80.5 34zM825 260h-471l-90 -260h-256l420 1122h322l419 -1122h-256zM758 463l-29 80q-71 198 -137 415h-4
q-66 -217 -137 -415l-27 -80h334z" />
    <glyph glyph-name="atilde.smcp" horiz-adv-x="1177" 
d="M455 1376q-83 0 -95 -98h-139q6 121 65 188.5t160 67.5q54 0 106 -25t95.5 -50t77.5 -25q85 0 94 100h139q-6 -121 -64 -188.5t-159 -67.5q-55 0 -106.5 24.5t-94.5 49t-79 24.5zM825 260h-471l-90 -260h-256l420 1122h322l419 -1122h-256zM758 463l-29 80
q-71 198 -137 415h-4q-66 -217 -137 -415l-27 -80h334z" />
    <glyph glyph-name="ae.smcp" horiz-adv-x="1624" 
d="M1526 205v-205h-668l-43 279h-428l-131 -279h-266l549 1122h974v-204h-561l39 -246h484v-203h-451l43 -264h459zM782 479l-69 445h-25l-209 -445h303z" />
    <glyph glyph-name="b.smcp" horiz-adv-x="1138" 
d="M162 1122h434q209 0 315.5 -77t106.5 -211q0 -198 -205 -256v-5q231 -47 231 -262q0 -144 -111 -227.5t-308 -83.5h-463v1122zM401 932v-273h164q112 0 163.5 34.5t51.5 103.5q0 70 -48.5 102.5t-156.5 32.5h-174zM401 477v-284h177q117 0 167 32t50 107q0 76 -53 110.5
t-175 34.5h-166z" />
    <glyph glyph-name="c.smcp" horiz-adv-x="1224" 
d="M614 1153q224 0 358.5 -114.5t145.5 -309.5h-252q-10 100 -77.5 155.5t-174.5 55.5q-134 0 -210 -101t-76 -278q0 -178 76 -278.5t210 -100.5q105 0 173 57t81 160h256q-19 -203 -154 -316.5t-356 -113.5q-252 0 -396 157.5t-144 434.5q0 276 144.5 434t395.5 158z" />
    <glyph glyph-name="cacute.smcp" horiz-adv-x="1224" 
d="M649 1245h-190l166 295h295zM614 1153q224 0 358.5 -114.5t145.5 -309.5h-252q-10 100 -77.5 155.5t-174.5 55.5q-134 0 -210 -101t-76 -278q0 -178 76 -278.5t210 -100.5q105 0 173 57t81 160h256q-19 -203 -154 -316.5t-356 -113.5q-252 0 -396 157.5t-144 434.5
q0 276 144.5 434t395.5 158z" />
    <glyph glyph-name="ccaron.smcp" horiz-adv-x="1224" 
d="M739 1245h-252l-233 295h221l139 -172l138 172h221zM614 1153q224 0 358.5 -114.5t145.5 -309.5h-252q-10 100 -77.5 155.5t-174.5 55.5q-134 0 -210 -101t-76 -278q0 -178 76 -278.5t210 -100.5q105 0 173 57t81 160h256q-19 -203 -154 -316.5t-356 -113.5
q-252 0 -396 157.5t-144 434.5q0 276 144.5 434t395.5 158z" />
    <glyph glyph-name="ccedilla.smcp" horiz-adv-x="1224" 
d="M868 399h256q-17 -188 -134 -299.5t-312 -128.5l-62 -98q19 8 60 8q71 0 120.5 -41t49.5 -110q0 -80 -63 -133.5t-177 -53.5q-116 0 -223 60l41 82q79 -43 162 -43q51 0 79.5 20t28.5 57t-27.5 59.5t-76.5 22.5q-36 0 -66 -12l-39 43l88 139q-234 12 -366.5 168.5
t-132.5 421.5q0 276 144.5 434t395.5 158q224 0 358.5 -114.5t145.5 -309.5h-252q-10 100 -77.5 155.5t-174.5 55.5q-134 0 -210 -101t-76 -278q0 -178 76 -278.5t210 -100.5q105 0 173 57t81 160z" />
    <glyph glyph-name="ccircumflex.smcp" horiz-adv-x="1224" 
d="M752 1245l-138 172l-139 -172h-221l233 295h252l234 -295h-221zM614 1153q224 0 358.5 -114.5t145.5 -309.5h-252q-10 100 -77.5 155.5t-174.5 55.5q-134 0 -210 -101t-76 -278q0 -178 76 -278.5t210 -100.5q105 0 173 57t81 160h256q-19 -203 -154 -316.5t-356 -113.5
q-252 0 -396 157.5t-144 434.5q0 276 144.5 434t395.5 158z" />
    <glyph glyph-name="cdotaccent.smcp" horiz-adv-x="1224" 
d="M729 1317h-233v223h233v-223zM614 1153q224 0 358.5 -114.5t145.5 -309.5h-252q-10 100 -77.5 155.5t-174.5 55.5q-134 0 -210 -101t-76 -278q0 -178 76 -278.5t210 -100.5q105 0 173 57t81 160h256q-19 -203 -154 -316.5t-356 -113.5q-252 0 -396 157.5t-144 434.5
q0 276 144.5 434t395.5 158z" />
    <glyph glyph-name="d.smcp" horiz-adv-x="1259" 
d="M162 1122h399q301 0 464 -145.5t163 -415.5q0 -269 -163 -415t-464 -146h-399v1122zM403 913v-704h154q185 0 281 89.5t96 262.5t-96 262.5t-281 89.5h-154z" />
    <glyph glyph-name="eth.smcp" horiz-adv-x="1265" 
d="M168 1122h399q301 0 464 -145.5t163 -415.5q0 -269 -163 -415t-464 -146h-399v487h-127v162h127v473zM410 209h153q185 0 281 89.5t96 262.5t-96 262.5t-281 89.5h-153v-264h262v-162h-262v-278z" />
    <glyph glyph-name="dcaron.smcp" horiz-adv-x="1259" 
d="M705 1245h-252l-234 295h221l140 -172l137 172h221zM162 1122h399q301 0 464 -145.5t163 -415.5q0 -269 -163 -415t-464 -146h-399v1122zM403 913v-704h154q185 0 281 89.5t96 262.5t-96 262.5t-281 89.5h-154z" />
    <glyph glyph-name="dcroat.smcp" horiz-adv-x="1265" 
d="M168 1122h399q301 0 464 -145.5t163 -415.5q0 -269 -163 -415t-464 -146h-399v487h-127v162h127v473zM410 209h153q185 0 281 89.5t96 262.5t-96 262.5t-281 89.5h-153v-264h262v-162h-262v-278z" />
    <glyph glyph-name="e.smcp" horiz-adv-x="1087" 
d="M979 918h-576v-246h537v-203h-537v-264h588v-205h-827v1122h815v-204z" />
    <glyph glyph-name="eacute.smcp" horiz-adv-x="1087" 
d="M606 1245h-190l166 295h295zM979 918h-576v-246h537v-203h-537v-264h588v-205h-827v1122h815v-204z" />
    <glyph glyph-name="ebreve.smcp" horiz-adv-x="1087" 
d="M745 1540h166q-11 -143 -100 -222t-240 -79q-150 0 -238.5 79t-99.5 222h164q7 -70 53 -108.5t121 -38.5t121 38.5t53 108.5zM979 918h-576v-246h537v-203h-537v-264h588v-205h-827v1122h815v-204z" />
    <glyph glyph-name="ecaron.smcp" horiz-adv-x="1087" 
d="M696 1245h-252l-233 295h221l139 -172l138 172h221zM979 918h-576v-246h537v-203h-537v-264h588v-205h-827v1122h815v-204z" />
    <glyph glyph-name="ecircumflex.smcp" horiz-adv-x="1087" 
d="M709 1245l-138 172l-139 -172h-221l233 295h252l234 -295h-221zM979 918h-576v-246h537v-203h-537v-264h588v-205h-827v1122h815v-204z" />
    <glyph glyph-name="edieresis.smcp" horiz-adv-x="1087" 
d="M465 1317h-209v223h209v-223zM887 1317h-209v223h209v-223zM979 918h-576v-246h537v-203h-537v-264h588v-205h-827v1122h815v-204z" />
    <glyph glyph-name="edotaccent.smcp" horiz-adv-x="1087" 
d="M688 1317h-233v223h233v-223zM979 918h-576v-246h537v-203h-537v-264h588v-205h-827v1122h815v-204z" />
    <glyph glyph-name="egrave.smcp" horiz-adv-x="1087" 
d="M559 1540l168 -295h-190l-271 295h293zM979 918h-576v-246h537v-203h-537v-264h588v-205h-827v1122h815v-204z" />
    <glyph glyph-name="emacron.smcp" horiz-adv-x="1087" 
d="M883 1325h-625v160h625v-160zM979 918h-576v-246h537v-203h-537v-264h588v-205h-827v1122h815v-204z" />
    <glyph glyph-name="eogonek.smcp" horiz-adv-x="1087" 
d="M922 -262q41 0 75 12v-127q-55 -22 -139 -22q-108 0 -162.5 44.5t-54.5 125.5q0 65 38 116.5t122 112.5h-637v1122h815v-204h-576v-246h537v-203h-537v-264h588v-205q-81 -58 -114 -103.5t-33 -91.5q0 -67 78 -67z" />
    <glyph glyph-name="f.smcp" horiz-adv-x="1001" 
d="M954 915h-551v-288h512v-207h-512v-420h-241v1122h792v-207z" />
    <glyph glyph-name="fi.smcp" horiz-adv-x="1566" 
d="M954 915h-551v-288h512v-207h-512v-420h-241v1122h792v-207zM1405 0h-240v1122h240v-1122z" />
    <glyph glyph-name="fl.smcp" horiz-adv-x="1986" 
d="M954 915h-551v-288h512v-207h-512v-420h-241v1122h792v-207zM1405 207h561v-207h-801v1122h240v-915z" />
    <glyph glyph-name="g.smcp" horiz-adv-x="1275" 
d="M637 1153q209 0 341.5 -101t154.5 -276h-256q-38 170 -240 170q-142 0 -225.5 -103.5t-83.5 -285.5q0 -183 80.5 -287t220.5 -104q128 0 199.5 68t72.5 200h-278v191h507v-625h-208v115h-4q-52 -66 -143 -103t-200 -37q-231 0 -366 156.5t-135 425.5q0 277 151.5 436.5
t411.5 159.5z" />
    <glyph glyph-name="gbreve.smcp" horiz-adv-x="1275" 
d="M797 1540h166q-11 -143 -100 -222t-240 -79q-150 0 -238.5 79t-99.5 222h164q7 -70 53 -108.5t121 -38.5t121 38.5t53 108.5zM637 1153q209 0 341.5 -101t154.5 -276h-256q-38 170 -240 170q-142 0 -225.5 -103.5t-83.5 -285.5q0 -183 80.5 -287t220.5 -104
q128 0 199.5 68t72.5 200h-278v191h507v-625h-208v115h-4q-52 -66 -143 -103t-200 -37q-231 0 -366 156.5t-135 425.5q0 277 151.5 436.5t411.5 159.5z" />
    <glyph glyph-name="gcircumflex.smcp" horiz-adv-x="1275" 
d="M760 1245l-137 172l-140 -172h-221l234 295h252l233 -295h-221zM637 1153q209 0 341.5 -101t154.5 -276h-256q-38 170 -240 170q-142 0 -225.5 -103.5t-83.5 -285.5q0 -183 80.5 -287t220.5 -104q128 0 199.5 68t72.5 200h-278v191h507v-625h-208v115h-4
q-52 -66 -143 -103t-200 -37q-231 0 -366 156.5t-135 425.5q0 277 151.5 436.5t411.5 159.5z" />
    <glyph glyph-name="gcommaaccent.smcp" horiz-adv-x="1275" 
d="M637 1153q209 0 341.5 -101t154.5 -276h-256q-38 170 -240 170q-142 0 -225.5 -103.5t-83.5 -285.5q0 -183 80.5 -287t220.5 -104q128 0 199.5 68t72.5 200h-278v191h507v-625h-208v115h-4q-52 -66 -143 -103t-200 -37q-231 0 -366 156.5t-135 425.5q0 277 151.5 436.5
t411.5 159.5zM737 -324l-127 -217h-96l86 217h-82v197h219v-197z" />
    <glyph glyph-name="gdotaccent.smcp" horiz-adv-x="1275" 
d="M739 1317h-233v223h233v-223zM637 1153q209 0 341.5 -101t154.5 -276h-256q-38 170 -240 170q-142 0 -225.5 -103.5t-83.5 -285.5q0 -183 80.5 -287t220.5 -104q128 0 199.5 68t72.5 200h-278v191h507v-625h-208v115h-4q-52 -66 -143 -103t-200 -37q-231 0 -366 156.5
t-135 425.5q0 277 151.5 436.5t411.5 159.5z" />
    <glyph glyph-name="h.smcp" horiz-adv-x="1302" 
d="M1139 0h-240v477h-496v-477h-239v1122h239v-438h496v438h240v-1122z" />
    <glyph glyph-name="hbar.smcp" horiz-adv-x="1302" 
d="M1227 891h-88v-891h-240v477h-496v-477h-239v891h-88v121h88v110h239v-110h496v110h240v-110h88v-121zM899 891h-496v-207h496v207z" />
    <glyph glyph-name="hcircumflex.smcp" horiz-adv-x="1302" 
d="M788 1245l-137 172l-139 -172h-221l233 295h252l234 -295h-222zM1139 0h-240v477h-496v-477h-239v1122h239v-438h496v438h240v-1122z" />
    <glyph glyph-name="i.smcp" horiz-adv-x="567" 
d="M403 0h-239v1122h239v-1122z" />
    <glyph glyph-name="iacute.smcp" horiz-adv-x="567" 
d="M319 1245h-190l166 295h295zM403 0h-239v1122h239v-1122z" />
    <glyph glyph-name="ibreve.smcp" horiz-adv-x="567" 
d="M434 1540h156q-6 -142 -86 -221.5t-219 -79.5t-219 79t-86 222h153q6 -73 45.5 -113.5t106.5 -40.5t105.5 40.5t43.5 113.5zM403 0h-239v1122h239v-1122z" />
    </font>
</defs>
</svg>
