<?xml version="1.0" standalone="no"?>
<!DOCTYPE svg PUBLIC "-//W3C//DTD SVG 1.1//EN" "http://www.w3.org/Graphics/SVG/1.1/DTD/svg11.dtd" >
<svg xmlns="http://www.w3.org/2000/svg" xmlns:xlink="http://www.w3.org/1999/xlink" version="1.1">
<metadata>
Created by FontForge 20170731 at Mon Nov  2 20:41:00 2020
 By Aleksey,,,
Copyright (c) 2015 Monotype Imaging Inc.  All rights reserved.
</metadata>
<defs>
<font id="NeueHaasUnicaW1G-Light" horiz-adv-x="1153" >
  <font-face 
    font-family="Neue Haas Unica W1G Light"
    font-weight="350"
    font-stretch="normal"
    units-per-em="2048"
    panose-1="2 11 4 4 3 2 6 2 2 3"
    ascent="1565"
    descent="-483"
    x-height="1040"
    cap-height="1458"
    bbox="-1024 -563 2230 2216"
    underline-thickness="102"
    underline-position="-307"
    unicode-range="U+0020-FEFF"
  />
<missing-glyph horiz-adv-x="1257" 
d="M309 1591h639q122 0 192 -70.5t70 -191.5v-1200q0 -121 -70 -191.5t-192 -70.5h-639q-121 0 -191.5 70.5t-70.5 191.5v1200q0 121 70.5 191.5t191.5 70.5zM948 1507h-639q-82 0 -130 -48t-48 -130v-1200q0 -82 48 -130t130 -48h639q82 0 130 48t48 130v1200q0 82 -48 130
t-130 48zM618 1323q152 0 246 -82.5t94 -214.5q0 -89 -33 -149.5t-139 -151.5q-92 -76 -116.5 -133.5t-24.5 -194.5h-117v52q0 128 31.5 195t132.5 159q82 71 104.5 114t22.5 109q0 83 -53.5 130.5t-147.5 47.5q-103 0 -160 -56t-63 -163h-129q9 165 99.5 251.5t252.5 86.5z
M666 133h-158v166h158v-166z" />
    <glyph glyph-name="f_f" unicode="ff" horiz-adv-x="1107" 
d="M1014 1358q-77 0 -113.5 -43t-36.5 -141v-134h209v-106h-209v-934h-127v934h-393v-934h-127v934h-186v106h186v146q0 280 256 280q40 0 86 -8v-108q-28 8 -65 8q-77 0 -113.5 -43t-36.5 -141v-134h393v146q0 280 256 280q44 0 84 -8v-108q-28 8 -63 8z" />
    <glyph glyph-name="f_f_i" unicode="ffi" horiz-adv-x="1574" 
d="M737 1040v146q0 280 256 280q44 0 84 -8v-108q-28 8 -63 8q-77 0 -113.5 -43t-36.5 -141v-134h209v-106h-209v-934h-127v934h-393v-934h-127v934h-186v106h186v146q0 280 256 280q40 0 86 -8v-108q-28 8 -65 8q-77 0 -113.5 -43t-36.5 -141v-134h393zM1405 1458v-180
h-127v180h127zM1278 1040h127v-1040h-127v1040z" />
    <glyph glyph-name="f_f_l" unicode="ffl" horiz-adv-x="1574" 
d="M737 1040v146q0 280 256 280q44 0 84 -8v-108q-28 8 -63 8q-77 0 -113.5 -43t-36.5 -141v-134h209v-106h-209v-934h-127v934h-393v-934h-127v934h-186v106h186v146q0 280 256 280q40 0 86 -8v-108q-28 8 -65 8q-77 0 -113.5 -43t-36.5 -141v-134h393zM1405 1458v-1458
h-127v1458h127z" />
    <glyph glyph-name="f_i" unicode="fi" horiz-adv-x="1056" 
d="M217 1040v146q0 280 256 280q40 0 86 -8v-108q-28 8 -65 8q-77 0 -113.5 -43t-36.5 -141v-134h211v-106h-211v-934h-127v934h-186v106h186zM885 1458v-180h-127v180h127zM758 1040h127v-1040h-127v1040z" />
    <glyph glyph-name="f_l" unicode="fl" horiz-adv-x="1056" 
d="M217 1040v146q0 280 256 280q40 0 86 -8v-108q-28 8 -65 8q-77 0 -113.5 -43t-36.5 -141v-134h211v-106h-211v-934h-127v934h-186v106h186zM885 1458v-1458h-127v1458h127z" />
    <glyph glyph-name=".notdef" horiz-adv-x="1257" 
d="M309 1591h639q122 0 192 -70.5t70 -191.5v-1200q0 -121 -70 -191.5t-192 -70.5h-639q-121 0 -191.5 70.5t-70.5 191.5v1200q0 121 70.5 191.5t191.5 70.5zM948 1507h-639q-82 0 -130 -48t-48 -130v-1200q0 -82 48 -130t130 -48h639q82 0 130 48t48 130v1200q0 82 -48 130
t-130 48zM618 1323q152 0 246 -82.5t94 -214.5q0 -89 -33 -149.5t-139 -151.5q-92 -76 -116.5 -133.5t-24.5 -194.5h-117v52q0 128 31.5 195t132.5 159q82 71 104.5 114t22.5 109q0 83 -53.5 130.5t-147.5 47.5q-103 0 -160 -56t-63 -163h-129q9 165 99.5 251.5t252.5 86.5z
M666 133h-158v166h158v-166z" />
    <glyph glyph-name=".null" horiz-adv-x="0" 
 />
    <glyph glyph-name="nonmarkingreturn" horiz-adv-x="682" 
 />
    <glyph glyph-name="space" unicode=" " horiz-adv-x="471" 
 />
    <glyph glyph-name="exclam" unicode="!" horiz-adv-x="514" 
d="M309 336h-104l-33 1122h170zM338 0h-162v190h162v-190z" />
    <glyph glyph-name="quotedbl" unicode="&#x22;" horiz-adv-x="696" 
d="M258 930h-92l-21 528h134zM532 930h-94l-18 528h131z" />
    <glyph glyph-name="numbersign" unicode="#" horiz-adv-x="1304" 
d="M958 879l-59 -371h260l-16 -100h-258l-66 -408h-110l65 408h-330l-65 -408h-113l66 408h-260l16 100h258l60 371h-261l17 100h260l63 401h113l-63 -401h329l64 401h110l-63 -401h258l-16 -100h-259zM848 879h-330l-59 -371h329z" />
    <glyph glyph-name="dollar" unicode="$" horiz-adv-x="1114" 
d="M1020 358q0 -164 -108.5 -267.5t-299.5 -115.5v-178h-110v178q-198 15 -303.5 136.5t-106.5 339.5h139q0 -325 271 -355v561q-49 14 -84 25.5t-77.5 30t-72.5 38t-60 49t-48 64t-29.5 81.5t-11.5 102q0 157 101 252.5t282 105.5v160h110v-160q385 -30 385 -451h-137
q0 160 -61 239t-187 91v-514q56 -16 91.5 -27t83.5 -31t77.5 -39.5t62.5 -50.5t51 -67.5t30 -86.5t12 -110zM258 1047q0 -109 57 -160t187 -88v487q-244 -18 -244 -239zM612 627v-533q130 11 199.5 78t69.5 184q0 52 -13 91.5t-33.5 65.5t-58 48t-73 35.5t-91.5 30.5z" />
    <glyph glyph-name="percent" unicode="%" horiz-adv-x="1722" 
d="M537 -61h-123l772 1503h125zM393 1407q145 0 223 -99.5t78 -283.5q0 -182 -78 -280.5t-223 -98.5t-223 98.5t-78 280.5q0 184 78 283.5t223 99.5zM393 1296q-80 0 -124 -70.5t-44 -201.5q0 -130 44 -200t124 -70t125 70.5t45 199.5q0 131 -45 201.5t-125 70.5zM1329 735
q145 0 223 -99t78 -282t-78 -282t-223 -99t-223 99t-78 282t78 282t223 99zM1329 627q-80 0 -124 -71.5t-44 -201.5q0 -131 44 -200.5t124 -69.5t125 69.5t45 200.5q0 130 -45 201.5t-125 71.5z" />
    <glyph glyph-name="ampersand" unicode="&#x26;" horiz-adv-x="1482" 
d="M1282 0l-190 190q-89 -104 -211 -161.5t-263 -57.5q-221 0 -358 115.5t-137 298.5q0 279 336 440q-105 108 -141.5 180.5t-36.5 170.5q0 137 92.5 223t238.5 86q152 0 243 -85.5t91 -223.5q0 -126 -63 -211.5t-224 -165.5l418 -414q101 179 101 428h133q0 -301 -140 -520
l295 -293h-184zM612 1370q-96 0 -151 -52t-55 -144q0 -71 34.5 -131t139.5 -166q141 69 191 137t50 160q0 88 -55.5 142t-153.5 54zM621 90q229 0 385 186l-469 469q-154 -75 -214.5 -158.5t-60.5 -199.5q0 -129 99.5 -213t259.5 -84z" />
    <glyph glyph-name="quotesingle" unicode="'" horiz-adv-x="423" 
d="M258 930h-92l-21 528h134z" />
    <glyph glyph-name="parenleft" unicode="(" horiz-adv-x="561" 
d="M383 1518h117q-128 -224 -187 -439.5t-59 -470.5t59 -470t187 -439h-117q-136 206 -203 424t-67 485t67 485.5t203 424.5z" />
    <glyph glyph-name="parenright" unicode=")" horiz-adv-x="561" 
d="M61 1518h119q135 -206 202 -425t67 -485t-67 -484t-202 -425h-119q129 223 187.5 438t58.5 471t-58.5 471.5t-187.5 438.5z" />
    <glyph glyph-name="asterisk" unicode="*" horiz-adv-x="815" 
d="M444 1176l256 114l45 -135l-274 -47l186 -201l-114 -88l-135 250l-136 -250l-116 88l186 201l-272 47l45 135l256 -114l-33 282h139z" />
    <glyph glyph-name="plus" unicode="+" horiz-adv-x="1159" 
d="M637 707h371v-117h-371v-369h-115v369h-370v117h370v370h115v-370z" />
    <glyph glyph-name="comma" unicode="," horiz-adv-x="430" 
d="M303 0l-84 -266h-92l61 266h-61v188h176v-188z" />
    <glyph glyph-name="hyphen" unicode="-" horiz-adv-x="593" 
d="M532 535h-471v127h471v-127z" />
    <glyph glyph-name="period" unicode="." horiz-adv-x="430" 
d="M303 0h-176v188h176v-188z" />
    <glyph glyph-name="slash" unicode="/" horiz-adv-x="905" 
d="M193 -182h-132l609 1708h131z" />
    <glyph glyph-name="zero" unicode="0" horiz-adv-x="1114" 
d="M557 1407q230 0 351.5 -183.5t121.5 -533.5q0 -349 -121.5 -533t-351.5 -184q-232 0 -353.5 184t-121.5 533q0 350 121.5 533.5t353.5 183.5zM557 1282q-163 0 -248.5 -151t-85.5 -441q0 -291 85.5 -443.5t248.5 -152.5t248.5 152.5t85.5 443.5q0 290 -85.5 441
t-248.5 151z" />
    <glyph glyph-name="one" unicode="1" horiz-adv-x="1114" 
d="M653 0h-133v1042h-297v109q157 0 230.5 51.5t93.5 177.5h106v-1380z" />
    <glyph glyph-name="two" unicode="2" horiz-adv-x="1114" 
d="M557 1407q187 0 302.5 -105.5t115.5 -273.5q0 -70 -20.5 -130.5t-51 -105t-87 -91t-106 -79t-130.5 -79.5q-107 -63 -175 -115t-105 -102.5t-50.5 -97t-13.5 -107.5h770v-121h-906q-2 14 -2 39q0 104 15 176t59 145.5t125 140.5t211 144q75 43 118 70t89 64t69 70.5
t37.5 78t14.5 98.5q0 115 -77 185.5t-204 70.5q-142 0 -216 -76t-83 -217h-139q9 194 128 306t312 112z" />
    <glyph glyph-name="three" unicode="3" horiz-adv-x="1114" 
d="M541 1407q200 0 318 -102t118 -269q0 -125 -58.5 -203.5t-179.5 -123.5v-4q133 -45 197.5 -129t64.5 -218q0 -169 -128 -277t-330 -108q-211 0 -330 114t-119 312h139q0 -149 79.5 -226t230.5 -77q142 0 230.5 73.5t88.5 192.5q0 135 -92.5 207t-263.5 72h-60v121h60
q155 0 244.5 71t89.5 193q0 117 -83.5 187.5t-221.5 70.5q-140 0 -216.5 -74.5t-76.5 -220.5h-138q0 196 118.5 307t318.5 111z" />
    <glyph glyph-name="four" unicode="4" horiz-adv-x="1114" 
d="M1061 379h-244v-379h-131v379h-641v131l596 870h176v-884h244v-117zM178 496h510v200v541h-4q-67 -99 -192.5 -283t-145.5 -213z" />
    <glyph glyph-name="five" unicode="5" horiz-adv-x="1114" 
d="M938 1260h-621l-43 -478h5q45 57 121 89t161 32q201 0 319.5 -122.5t118.5 -331.5q0 -217 -124.5 -346.5t-333.5 -129.5q-193 0 -308.5 104t-115.5 285h137q3 -125 81 -195.5t204 -70.5q148 0 234.5 94.5t86.5 253.5q0 155 -83 245.5t-224 90.5q-113 0 -188.5 -56.5
t-104.5 -164.5l-135 10l76 811h737v-120z" />
    <glyph glyph-name="six" unicode="6" horiz-adv-x="1114" 
d="M590 1407q173 0 280 -99t127 -272h-139q-45 248 -268 248q-166 0 -260.5 -144.5t-100.5 -432.5h4q125 192 353 192q194 0 313 -125.5t119 -329.5q0 -210 -124.5 -340.5t-324.5 -130.5q-227 0 -347 166.5t-120 493.5q0 377 127.5 575.5t360.5 198.5zM571 778
q-138 0 -225.5 -93.5t-87.5 -238.5q0 -161 83.5 -255.5t227.5 -94.5q139 0 224.5 95.5t85.5 252.5q0 149 -85 241.5t-223 92.5z" />
    <glyph glyph-name="seven" unicode="7" horiz-adv-x="1114" 
d="M1006 1380v-123q-170 -245 -304.5 -562t-212.5 -695h-151q175 743 522 1260h-772v120h918z" />
    <glyph glyph-name="eight" unicode="8" horiz-adv-x="1114" 
d="M557 1407q189 0 311.5 -106t122.5 -271q0 -213 -237 -313v-4q264 -90 264 -338q0 -179 -129 -290.5t-332 -111.5q-205 0 -333 111t-128 291q0 249 262 338v4q-235 100 -235 313q0 165 122.5 271t311.5 106zM557 1284q-133 0 -215 -69.5t-82 -184.5q0 -117 80.5 -187.5
t216.5 -70.5q135 0 215 70.5t80 187.5q0 115 -82 184.5t-213 69.5zM557 651q-142 0 -231.5 -76.5t-89.5 -195.5q0 -128 88 -204.5t233 -76.5q144 0 233 76.5t89 204.5q0 119 -90.5 195.5t-231.5 76.5z" />
    <glyph glyph-name="nine" unicode="9" horiz-adv-x="1114" 
d="M520 -27q-173 0 -280 99t-127 272h139q45 -248 270 -248q165 0 259 145t100 433h-4q-122 -193 -353 -193q-192 0 -312 125.5t-120 329.5q0 211 125 341t326 130q227 0 347 -166t120 -493q0 -377 -128 -576t-362 -199zM541 602q137 0 224 93.5t87 238.5q0 161 -82.5 255.5
t-226.5 94.5q-140 0 -225 -95t-85 -253q0 -150 84.5 -242t223.5 -92z" />
    <glyph glyph-name="colon" unicode=":" horiz-adv-x="430" 
d="M303 852h-176v188h176v-188zM303 0h-176v188h176v-188z" />
    <glyph glyph-name="semicolon" unicode=";" horiz-adv-x="430" 
d="M303 852h-176v188h176v-188zM303 0l-84 -266h-92l61 266h-61v188h176v-188z" />
    <glyph glyph-name="less" unicode="&#x3c;" horiz-adv-x="1159" 
d="M1008 961l-736 -310v-4l736 -309v-127l-856 360v156l856 360v-126z" />
    <glyph glyph-name="equal" unicode="=" horiz-adv-x="1159" 
d="M1008 748h-856v114h856v-114zM1008 434h-856v115h856v-115z" />
    <glyph glyph-name="greater" unicode="&#x3e;" horiz-adv-x="1159" 
d="M1008 727v-156l-856 -360v127l735 309v4l-735 310v126z" />
    <glyph glyph-name="question" unicode="?" horiz-adv-x="1026" 
d="M516 1485q190 0 309 -101.5t119 -263.5q0 -111 -44 -187t-181 -190q-85 -70 -122.5 -120.5t-52 -116.5t-14.5 -189h-118v60q0 112 18.5 182t62 128t134.5 136q112 97 145 153.5t33 141.5q0 112 -79 179t-210 67q-143 0 -223.5 -75.5t-89.5 -217.5h-131q10 201 126 307.5
t318 106.5zM551 0h-160v190h160v-190z" />
    <glyph glyph-name="at" unicode="@" horiz-adv-x="1771" 
d="M905 1409q344 0 551 -202t207 -539q0 -126 -30.5 -225t-83 -159.5t-119 -92t-142.5 -31.5q-186 0 -213 190h-4q-87 -190 -289 -190q-138 0 -217 102t-80 291q1 225 108 366.5t275 141.5q182 0 248 -172h4q8 59 27 151h119q-37 -173 -61.5 -347t-24.5 -259
q0 -166 127 -166q101 0 170 102t69 298q0 287 -174.5 459.5t-466.5 172.5q-159 0 -288.5 -57t-214 -157t-130 -234t-45.5 -289q0 -308 175 -484.5t472 -176.5q268 0 453 116l51 -94q-212 -131 -504 -131q-351 0 -557 205.5t-206 564.5q0 175 54.5 329t154 269t251 181.5
t334.5 66.5zM885 950q-119 0 -195 -109t-76 -288q0 -137 52.5 -209t148.5 -72q111 0 185.5 109t74.5 324q0 117 -49 181t-141 64z" />
    <glyph glyph-name="A" unicode="A" horiz-adv-x="1359" 
d="M1022 471h-684l-182 -471h-144l578 1458h182l576 -1458h-144zM973 594l-58 151q-149 384 -233 605h-4q-162 -424 -234 -605l-59 -151h588z" />
    <glyph glyph-name="B" unicode="B" horiz-adv-x="1259" 
d="M207 1458h452q232 0 351.5 -99t119.5 -269q0 -122 -61 -210.5t-176 -129.5v-5q123 -31 195.5 -123t72.5 -221q0 -185 -124 -293t-345 -108h-485v1458zM340 1341v-538h301q184 0 269 71t85 197q0 270 -348 270h-307zM340 686v-569h336q171 0 258.5 73t87.5 213
q0 135 -92.5 209t-288.5 74h-301z" />
    <glyph glyph-name="C" unicode="C" horiz-adv-x="1398" 
d="M719 1485q127 0 232 -39t176 -108t112 -163t47 -204h-139q-15 177 -131 283t-297 106q-226 0 -356 -169t-130 -462t129 -462t353 -169q179 0 297 107.5t143 290.5h139q-24 -238 -178 -380.5t-401 -142.5q-289 0 -456 202.5t-167 553.5t168 553.5t459 202.5z" />
    <glyph glyph-name="D" unicode="D" horiz-adv-x="1470" 
d="M207 1458h426q357 0 551 -189.5t194 -539.5t-194 -539.5t-551 -189.5h-426v1458zM340 1337v-1216h293q292 0 448 157.5t156 450.5t-156 450.5t-448 157.5h-293z" />
    <glyph glyph-name="E" unicode="E" horiz-adv-x="1249" 
d="M1114 1337h-774v-528h735v-121h-735v-567h799v-121h-932v1458h907v-121z" />
    <glyph glyph-name="F" unicode="F" horiz-adv-x="1163" 
d="M1094 1337h-754v-551h709v-120h-709v-666h-133v1458h887v-121z" />
    <glyph glyph-name="G" unicode="G" horiz-adv-x="1482" 
d="M737 1485q241 0 394 -124.5t172 -332.5h-140q-26 158 -137 245t-289 87q-235 0 -369.5 -170t-134.5 -465q0 -293 129.5 -460t354.5 -167q99 0 179.5 29.5t144.5 91.5t99.5 169.5t35.5 252.5h-428v121h557v-762h-125v223h-4q-55 -114 -184.5 -181t-289.5 -67
q-281 0 -445.5 200.5t-164.5 549.5q0 353 173 556.5t472 203.5z" />
    <glyph glyph-name="H" unicode="H" horiz-adv-x="1497" 
d="M1290 0h-133v696h-817v-696h-133v1458h133v-641h817v641h133v-1458z" />
    <glyph glyph-name="I" unicode="I" horiz-adv-x="546" 
d="M340 0h-133v1458h133v-1458z" />
    <glyph glyph-name="J" unicode="J" horiz-adv-x="690" 
d="M496 1458v-1063q0 -200 -98 -301.5t-281 -101.5q-48 0 -86 10v123q44 -8 84 -8q122 0 183.5 68t61.5 214v1059h136z" />
    <glyph glyph-name="K" unicode="K" horiz-adv-x="1243" 
d="M489 762l744 -762h-186l-703 731h-4v-731h-133v1458h133v-665h4l643 665h180z" />
    <glyph glyph-name="L" unicode="L" horiz-adv-x="1132" 
d="M340 121h772v-121h-905v1458h133v-1337z" />
    <glyph glyph-name="M" unicode="M" horiz-adv-x="1861" 
d="M1655 0h-133v748q0 377 2 565h-4q-34 -86 -71 -181t-81.5 -210.5t-69.5 -178.5l-290 -743h-156l-289 743q-158 405 -221 570h-4q2 -188 2 -565v-748h-133v1458h215l289 -745l217 -570h4q153 399 219 570l289 745h215v-1458z" />
    <glyph glyph-name="N" unicode="N" horiz-adv-x="1525" 
d="M1319 0h-203l-379 647q-71 121 -202.5 348t-192.5 330h-4q0 -122 1 -364.5t1 -364.5v-596h-133v1458h203l378 -647q72 -123 204.5 -350.5t191.5 -327.5h4q-2 244 -2 729v596h133v-1458z" />
    <glyph glyph-name="O" unicode="O" horiz-adv-x="1482" 
d="M741 1485q296 0 472 -205t176 -551t-176 -551t-472 -205t-472.5 205t-176.5 551t176.5 551t472.5 205zM741 1360q-233 0 -370.5 -171t-137.5 -460t137.5 -460t370.5 -171q232 0 370 171t138 460t-138 460t-370 171z" />
    <glyph glyph-name="P" unicode="P" horiz-adv-x="1241" 
d="M207 1458h475q240 0 369 -114t129 -310q0 -197 -129 -311.5t-369 -114.5h-342v-608h-133v1458zM340 1337v-608h340q176 0 268 80t92 225q0 143 -92 223t-268 80h-340z" />
    <glyph glyph-name="Q" unicode="Q" horiz-adv-x="1480" 
d="M1386 729q0 -354 -182 -561l162 -172l-92 -88l-162 176q-154 -111 -364 -111q-299 0 -477.5 205t-178.5 551t178.5 551t477.5 205q293 0 465.5 -205t172.5 -551zM748 98q156 0 272 84l-186 201l92 86l186 -201q135 174 135 461q0 288 -135.5 459.5t-363.5 171.5
q-236 0 -375.5 -171.5t-139.5 -459.5q0 -289 139.5 -460t375.5 -171z" />
    <glyph glyph-name="R" unicode="R" horiz-adv-x="1284" 
d="M207 1458h428q252 0 376 -100.5t124 -288.5q0 -141 -77.5 -241t-205.5 -126v-4q81 -24 125 -80.5t92 -191.5l154 -426h-146l-139 406q-47 136 -111 186.5t-186 50.5h-301v-643h-133v1458zM340 1337v-573h303q178 0 267 83.5t87 219.5q0 270 -364 270h-293z" />
    <glyph glyph-name="S" unicode="S" horiz-adv-x="1226" 
d="M578 1485q253 0 380 -121t127 -358h-135q0 358 -372 358q-153 0 -237.5 -70t-84.5 -194q0 -52 16 -91t43 -67t76 -51.5t101 -40t133 -35.5q69 -17 115 -30t101.5 -33.5t91.5 -42t73.5 -53t58 -68.5t34 -87.5t13.5 -111.5q0 -191 -134.5 -303.5t-363.5 -112.5
q-250 0 -386 130.5t-136 381.5h133q0 -198 102.5 -293.5t286.5 -95.5q177 0 270 76t93 215q0 45 -10.5 80t-34.5 62.5t-52.5 48t-76.5 39t-94.5 32t-116.5 31.5q-68 17 -115 30.5t-100.5 34t-88.5 42t-69.5 52t-54 67t-31.5 85t-12 107.5q0 173 122.5 280t334.5 107z" />
    <glyph glyph-name="T" unicode="T" horiz-adv-x="1212" 
d="M1192 1337h-520v-1337h-133v1337h-519v121h1172v-121z" />
    <glyph glyph-name="U" unicode="U" horiz-adv-x="1431" 
d="M1237 1458v-917q0 -278 -133 -423t-387 -145t-388 145t-134 423v917h133v-915q0 -221 102 -333t287 -112t286 111.5t101 333.5v915h133z" />
    <glyph glyph-name="V" unicode="V" horiz-adv-x="1263" 
d="M723 0h-180l-529 1458h142l247 -690l228 -639h4q38 106 112.5 319t112.5 320l248 690h141z" />
    <glyph glyph-name="W" unicode="W" horiz-adv-x="1835" 
d="M1456 0h-209l-164 666q-110 446 -163 669h-5q-53 -223 -163 -669l-164 -666h-209l-356 1458h135l151 -620q96 -385 174 -713h4q30 119 89 358.5t88 358.5l151 616h205l151 -616q29 -119 88 -358.5t89 -358.5h4l172 713l153 620h135z" />
    <glyph glyph-name="X" unicode="X" horiz-adv-x="1263" 
d="M715 752l528 -752h-164l-446 641h-4l-447 -641h-162l529 752l-500 706h162l418 -598h4l420 598h161z" />
    <glyph glyph-name="Y" unicode="Y" horiz-adv-x="1232" 
d="M684 623v-623h-135v623l-539 835h158l201 -315q17 -26 245 -391h4q164 262 248 391l199 315h158z" />
    <glyph glyph-name="Z" unicode="Z" horiz-adv-x="1142" 
d="M1067 1319l-879 -1194v-4h918v-121h-1071v139l878 1194v4h-860v121h1014v-139z" />
    <glyph glyph-name="bracketleft" unicode="[" horiz-adv-x="575" 
d="M535 1419h-248v-1624h248v-98h-373v1821h373v-99z" />
    <glyph glyph-name="backslash" unicode="\" horiz-adv-x="905" 
d="M236 1526l608 -1708h-131l-609 1708h132z" />
    <glyph glyph-name="bracketright" unicode="]" horiz-adv-x="575" 
d="M414 1518v-1821h-373v98h248v1624h-248v99h373z" />
    <glyph glyph-name="asciicircum" unicode="^" horiz-adv-x="872" 
d="M846 760h-121l-287 594h-4l-287 -594h-120l340 698h139z" />
    <glyph glyph-name="underscore" unicode="_" horiz-adv-x="1024" 
d="M1024 -180h-1024v78h1024v-78z" />
    <glyph glyph-name="grave" unicode="`" horiz-adv-x="561" 
d="M274 1458l185 -289h-121l-236 289h172z" />
    <glyph glyph-name="a" unicode="a" horiz-adv-x="1073" 
d="M524 1067q181 0 285 -100t104 -299v-412q0 -143 23 -256h-119q-14 69 -14 158h-4q-107 -178 -371 -178q-158 0 -255 83.5t-97 215.5t89 208.5t306 110.5q159 27 320 37v49q0 140 -71.5 207t-195.5 67q-128 0 -197 -63t-75 -168h-133q9 151 115.5 245.5t289.5 94.5z
M791 449v79q-136 -9 -304 -36q-154 -23 -215 -70t-61 -135q0 -92 65 -146.5t179 -54.5q150 0 239 92q55 58 76 114t21 157z" />
    <glyph glyph-name="b" unicode="b" horiz-adv-x="1157" 
d="M297 887h4q40 82 128 131t200 49q201 0 319.5 -148t118.5 -397t-118.5 -397t-319.5 -148q-112 0 -200 49t-128 132h-4v-158h-127v1458h127v-571zM608 961q-145 0 -231 -119.5t-86 -319.5t86 -319t231 -119q149 0 237.5 119t88.5 319t-88.5 319.5t-237.5 119.5z" />
    <glyph glyph-name="c" unicode="c" horiz-adv-x="1067" 
d="M561 1067q176 0 292 -107t130 -278h-133q-9 121 -89.5 197.5t-199.5 76.5q-156 0 -245 -116.5t-89 -319.5q0 -204 88.5 -320t245.5 -116q117 0 197.5 83.5t91.5 203.5h133q-14 -173 -129 -285.5t-293 -112.5q-219 0 -345 146t-126 401t126 401t345 146z" />
    <glyph glyph-name="d" unicode="d" horiz-adv-x="1157" 
d="M987 0h-127v158h-4q-40 -83 -128 -132t-200 -49q-201 0 -319.5 148t-118.5 397t118.5 397t319.5 148q112 0 200 -49t128 -131h4v571h127v-1458zM549 961q-149 0 -237.5 -119.5t-88.5 -319.5t88.5 -319t237.5 -119q145 0 231 119t86 319t-86 319.5t-231 119.5z" />
    <glyph glyph-name="e" unicode="e" horiz-adv-x="1103" 
d="M565 82q124 0 204.5 62t104.5 165h132q-27 -144 -141 -240t-300 -96q-221 0 -348 153t-127 413q0 235 125.5 381.5t341.5 146.5q174 0 290 -99t150 -272q17 -78 17 -200h-795q4 -200 99.5 -307t246.5 -107zM557 958q-144 0 -235.5 -96t-100.5 -262h670q-10 170 -101 264
t-233 94z" />
    <glyph glyph-name="f" unicode="f" horiz-adv-x="587" 
d="M494 1358q-77 0 -113.5 -43t-36.5 -141v-134h211v-106h-211v-934h-127v934h-186v106h186v146q0 280 256 280q40 0 86 -8v-108q-28 8 -65 8z" />
    <glyph glyph-name="g" unicode="g" horiz-adv-x="1157" 
d="M537 1067q103 0 185 -46.5t134 -135.5h4v155h127v-977q0 -225 -111 -340.5t-325 -115.5q-194 0 -305.5 87t-112.5 240h129q3 -105 80 -163t209 -58q158 0 233.5 87t75.5 270v123h-4q-53 -88 -135.5 -135.5t-183.5 -47.5q-204 0 -325.5 144.5t-121.5 384.5t121.5 384
t325.5 144zM541 958q-146 0 -232 -114t-86 -305t86 -305.5t232 -114.5q152 0 238.5 112.5t86.5 307.5t-86.5 307t-238.5 112z" />
    <glyph glyph-name="h" unicode="h" 
d="M297 901h4q52 80 137.5 121t184.5 41q181 0 275.5 -108t94.5 -322v-633h-127v627q0 177 -67 251t-199 74q-128 0 -215.5 -89t-87.5 -247v-616h-127v1458h127v-557z" />
    <glyph glyph-name="i" unicode="i" horiz-adv-x="466" 
d="M297 1278h-127v180h127v-180zM297 0h-127v1040h127v-1040z" />
    <glyph glyph-name="j" unicode="j" horiz-adv-x="481" 
d="M311 1278h-127v180h127v-180zM311 1040v-1116q0 -311 -272 -311q-38 0 -74 8v111q35 -6 62 -6q79 0 118 46t39 154v1114h127z" />
    <glyph glyph-name="k" unicode="k" horiz-adv-x="980" 
d="M995 0h-176l-518 537h-4v-537h-127v1458h127v-854h4l463 436h172l-504 -467z" />
    <glyph glyph-name="l" unicode="l" horiz-adv-x="466" 
d="M297 0h-127v1458h127v-1458z" />
    <glyph glyph-name="m" unicode="m" horiz-adv-x="1730" 
d="M1231 1063q166 0 253 -105.5t87 -312.5v-645h-127v637q0 171 -59 243t-175 72q-125 0 -200.5 -92.5t-75.5 -243.5v-616h-127v670q0 133 -62 207.5t-172 74.5q-125 0 -200.5 -96t-75.5 -256v-600h-127v1040h127v-135h4q115 158 291 158q107 0 189 -54t120 -153
q50 100 134 153.5t196 53.5z" />
    <glyph glyph-name="n" unicode="n" 
d="M623 1063q181 0 275.5 -108t94.5 -322v-633h-127v627q0 177 -67 251t-199 74q-128 0 -215.5 -89t-87.5 -247v-616h-127v1040h125v-141h4q48 75 133.5 119.5t190.5 44.5z" />
    <glyph glyph-name="o" unicode="o" horiz-adv-x="1130" 
d="M565 1067q221 0 348 -146t127 -401t-127 -401t-348 -146t-348 146t-127 401t127 401t348 146zM565 956q-161 0 -251.5 -116.5t-90.5 -319.5t90.5 -319.5t251.5 -116.5t252.5 116.5t91.5 319.5t-91.5 319.5t-252.5 116.5z" />
    <glyph glyph-name="p" unicode="p" horiz-adv-x="1157" 
d="M629 1067q201 0 319.5 -148t118.5 -397t-118.5 -397t-319.5 -148q-112 0 -200 49t-128 132h-4v-537h-127v1419h127v-153h4q40 81 128.5 130.5t199.5 49.5zM608 961q-145 0 -231 -119.5t-86 -319.5t86 -319t231 -119q149 0 237.5 119t88.5 319t-88.5 319.5t-237.5 119.5z
" />
    <glyph glyph-name="q" unicode="q" horiz-adv-x="1157" 
d="M528 1067q111 0 199.5 -49.5t128.5 -130.5h4v153h127v-1419h-127v537h-4q-40 -83 -128 -132t-200 -49q-201 0 -319.5 148t-118.5 397t118.5 397t319.5 148zM549 961q-149 0 -237.5 -119.5t-88.5 -319.5t88.5 -319t237.5 -119q145 0 231 119t86 319t-86 319.5t-231 119.5z
" />
    <glyph glyph-name="r" unicode="r" horiz-adv-x="710" 
d="M616 1049q35 0 70 -7v-120q-32 4 -65 4q-155 0 -239.5 -98t-84.5 -279v-549h-127v1040h125v-163h4q107 172 317 172z" />
    <glyph glyph-name="s" unicode="s" horiz-adv-x="980" 
d="M471 1067q185 0 287.5 -93t103.5 -263h-127q0 118 -69.5 181.5t-194.5 63.5q-107 0 -171 -47t-64 -125q0 -37 10 -63t27.5 -43t50 -30.5t68.5 -23.5t92 -23q9 -2 14 -3q163 -38 226 -66q140 -63 164 -194q5 -29 5 -62q0 -136 -106 -219.5t-283 -83.5q-197 0 -307 98
t-113 279h129q0 -127 76.5 -196.5t214.5 -69.5q117 0 189.5 50.5t72.5 133.5q0 41 -12.5 70.5t-31.5 48.5t-63.5 36.5t-84 28.5t-117.5 29q-147 35 -202 61q-126 58 -143 186q-3 22 -3 46q0 131 100.5 212t261.5 81z" />
    <glyph glyph-name="t" unicode="t" horiz-adv-x="618" 
d="M487 104q36 0 72 9v-109q-45 -10 -94 -10q-134 0 -194 65t-60 215v660h-186v106h186v242h127v-242h211v-106h-211v-658q0 -93 34 -132.5t115 -39.5z" />
    <glyph glyph-name="u" unicode="u" 
d="M530 -23q-180 0 -275 109t-95 322v632h127v-626q0 -177 67.5 -251.5t198.5 -74.5q128 0 215.5 89t87.5 247v616h127v-1040h-125v141h-4q-47 -75 -133 -119.5t-191 -44.5z" />
    <glyph glyph-name="v" unicode="v" horiz-adv-x="921" 
d="M543 0h-164l-389 1040h137l164 -450q24 -66 80.5 -222t87.5 -245h4q31 89 87.5 245t80.5 222l164 450h137z" />
    <glyph glyph-name="w" unicode="w" horiz-adv-x="1536" 
d="M1219 0h-183l-135 471q-89 305 -131 455h-4q-42 -150 -131 -455l-135 -471h-183l-301 1040h131l127 -450q69 -240 134 -475h4l129 460l131 465h192l131 -465l129 -460h4q65 235 134 475l127 450h131z" />
    <glyph glyph-name="x" unicode="x" horiz-adv-x="956" 
d="M553 545l403 -545h-157l-320 449h-4l-319 -449h-156l401 545l-364 495h156l282 -405h4l285 405h154z" />
    <glyph glyph-name="y" unicode="y" horiz-adv-x="933" 
d="M944 1040l-430 -1089q-55 -137 -109 -209t-120.5 -100.5t-171.5 -28.5q-45 0 -76 8v113q31 -8 74 -8q114 0 168.5 52.5t119.5 221.5l-409 1040h137l338 -878h4l338 878h137z" />
    <glyph glyph-name="z" unicode="z" horiz-adv-x="944" 
d="M872 922l-663 -807v-4h684v-111h-842v119l664 807v4h-643v110h800v-118z" />
    <glyph glyph-name="braceleft" unicode="{" horiz-adv-x="579" 
d="M530 1518v-91q-102 -2 -145 -51t-43 -166v-354q0 -105 -35.5 -160.5t-126.5 -85.5v-6q91 -30 126.5 -85.5t35.5 -160.5v-354q0 -117 43 -166t145 -51v-90h-45q-137 0 -201.5 75.5t-64.5 239.5v342q0 91 -30.5 136.5t-106.5 68.5v96q76 23 106.5 68.5t30.5 136.5v342
q0 164 64.5 240t201.5 76h45z" />
    <glyph glyph-name="bar" unicode="|" horiz-adv-x="536" 
d="M328 -420h-119v1919h119v-1919z" />
    <glyph glyph-name="braceright" unicode="}" horiz-adv-x="579" 
d="M47 1518h45q137 0 202.5 -76.5t65.5 -239.5v-342q0 -92 30.5 -137t107.5 -68v-96q-77 -23 -107.5 -68t-30.5 -137v-342q0 -163 -65.5 -239t-202.5 -76h-45v90q103 2 146 51t43 166v354q0 104 35.5 160t125.5 86v6q-90 30 -125.5 86t-35.5 160v354q0 117 -43 166t-146 51
v91z" />
    <glyph glyph-name="asciitilde" unicode="~" horiz-adv-x="1183" 
d="M340 829q63 0 122 -25t104.5 -61.5t89 -72.5t93 -61t99.5 -25q84 0 134 61.5t50 161.5h101q0 -152 -79.5 -246t-207.5 -94q-64 0 -123 25.5t-105 62t-89.5 73t-93 62t-99.5 25.5q-84 0 -134 -61.5t-50 -161.5h-101q0 152 80 244.5t209 92.5z" />
    <glyph glyph-name="nbspace" unicode="&#xa0;" horiz-adv-x="471" 
 />
    <glyph glyph-name="exclamdown" unicode="&#xa1;" horiz-adv-x="514" 
d="M176 1040h162v-190h-162v190zM205 705h104l33 -1123h-170z" />
    <glyph glyph-name="cent" unicode="&#xa2;" horiz-adv-x="1114" 
d="M639 1114v-860q95 20 158 99t71 182h136q-12 -157 -111 -266t-254 -128v-188h-111v186q-196 19 -306.5 163t-110.5 382t110.5 382t306.5 163v178h111v-180q154 -17 253.5 -121t111.5 -260h-134q-7 104 -70.5 177.5t-160.5 90.5zM246 684q0 -185 74.5 -298.5t207.5 -133.5
v864q-132 -20 -207 -134t-75 -298z" />
    <glyph glyph-name="sterling" unicode="&#xa3;" horiz-adv-x="1114" 
d="M285 115h731v-115h-967v115q205 0 205 278v223h-205v115h205v250q0 210 101 318t288 108q178 0 279.5 -109t101.5 -301h-127q0 138 -67 212.5t-187 74.5q-127 0 -193.5 -77.5t-66.5 -225.5v-250h260v-115h-260v-223q0 -107 -22.5 -170t-75.5 -104v-4z" />
    <glyph glyph-name="currency" unicode="&#xa4;" horiz-adv-x="1114" 
d="M983 596q0 -165 -86 -281l162 -168l-92 -88l-158 170q-109 -73 -252 -73q-146 0 -252 73l-160 -170l-90 88l160 170q-84 117 -84 279q0 161 84 278l-160 170l90 89l160 -170q106 73 252 73q143 0 252 -73l158 170l92 -89l-162 -167q86 -116 86 -281zM557 276
q137 0 218 87t81 233t-81 232.5t-218 86.5q-138 0 -219.5 -86.5t-81.5 -232.5t81.5 -233t219.5 -87z" />
    <glyph glyph-name="yen" unicode="&#xa5;" horiz-adv-x="1114" 
d="M692 752h297v-109h-366v-133h366v-109h-366v-401h-134v401h-366v109h366v133h-366v109h297l-406 628h158l137 -217l246 -393h4l246 393l137 217h156z" />
    <glyph glyph-name="brokenbar" unicode="&#xa6;" horiz-adv-x="536" 
d="M328 782h-119v717h119v-717zM328 -420h-119v717h119v-717z" />
    <glyph glyph-name="section" unicode="&#xa7;" horiz-adv-x="1116" 
d="M539 1485q167 0 258 -86.5t94 -249.5h-129q-3 223 -223 223q-98 0 -154.5 -49t-56.5 -135q0 -31 4 -53.5t19.5 -43.5t30.5 -35t52 -35t68.5 -36l94.5 -45q9 -4 13 -6q92 -43 150.5 -74.5t105.5 -65.5t71 -70t36 -78.5t12 -98.5q0 -192 -172 -295v-4q102 -83 102 -232
t-97.5 -233t-268.5 -84q-182 0 -280 90t-99 268h129q2 -122 62 -183.5t188 -61.5q112 0 172.5 53.5t60.5 150.5q0 26 -3 46.5t-13 40t-19.5 33.5t-32 31.5t-40 29.5t-54 32t-64 33.5t-79.5 38.5q-82 39 -133.5 68t-96.5 63t-68 69t-35.5 78.5t-12.5 100.5q0 188 164 287v4
q-100 81 -100 217q0 132 95 214.5t249 82.5zM381 911q-127 -98 -127 -217q0 -87 61 -148.5t224 -137.5q104 -46 188 -101q135 93 135 225q0 89 -57.5 147t-224.5 134q-111 48 -199 98z" />
    <glyph glyph-name="dieresis" unicode="&#xa8;" horiz-adv-x="706" 
d="M227 1278h-125v180h125v-180zM604 1278h-125v180h125v-180z" />
    <glyph glyph-name="copyright" unicode="&#xa9;" horiz-adv-x="1667" 
d="M834 1481q330 0 531.5 -207t201.5 -545t-201.5 -545t-531.5 -207q-217 0 -384 93.5t-258.5 264.5t-91.5 394t91.5 394t258.5 264.5t384 93.5zM834 1393q-292 0 -470 -182.5t-178 -481.5t178 -481t470 -182q291 0 469 182t178 481t-178 481.5t-469 182.5zM836 1239
q172 0 273.5 -96.5t109.5 -249.5h-129q-9 103 -77.5 165t-176.5 62q-135 0 -212 -104.5t-77 -286.5t77 -286.5t210 -104.5q107 0 176.5 63.5t83.5 171.5h131q-15 -162 -119.5 -258t-271.5 -96q-195 0 -307.5 137t-112.5 373t113.5 373t308.5 137z" />
    <glyph glyph-name="ordfeminine" unicode="&#xaa;" horiz-adv-x="784" 
d="M383 1423q137 0 213 -70t76 -212v-279q0 -109 18 -186h-100q-10 58 -10 108h-5q-77 -122 -264 -122q-117 0 -187.5 59.5t-70.5 152.5q0 94 66.5 149t226.5 79q127 18 219 24v29q0 91 -49 134.5t-133 43.5q-87 0 -134 -40t-50 -107h-115q6 104 85 170.5t214 66.5zM565 989
v47q-94 -6 -205 -24q-106 -17 -148 -45.5t-42 -85.5q0 -59 43.5 -94t120.5 -35q107 0 164 57q39 39 53 76t14 104z" />
    <glyph glyph-name="guillemetleft" unicode="&#xab;" horiz-adv-x="880" 
d="M233 520l230 -409h-127l-234 409l234 410h127zM547 520l231 -409h-129l-233 409l233 410h129z" />
    <glyph glyph-name="logicalnot" unicode="&#xac;" horiz-adv-x="1159" 
d="M1008 295h-115v510h-741v117h856v-627z" />
    <glyph glyph-name="softhyphen" unicode="&#xad;" horiz-adv-x="593" 
d="M532 535h-471v127h471v-127z" />
    <glyph glyph-name="registered" unicode="&#xae;" horiz-adv-x="1196" 
d="M598 1485q227 0 366.5 -143.5t139.5 -376.5t-139.5 -377t-366.5 -144t-366.5 144t-139.5 377t139.5 376.5t366.5 143.5zM598 1419q-198 0 -319 -125t-121 -329t121 -329.5t319 -125.5t319 125.5t121 329.5t-121 329t-319 125zM377 1300h229q107 0 163 -49.5t56 -138.5
q0 -56 -31.5 -102t-82.5 -56v-4q31 -8 50 -29.5t36 -70.5l69 -205h-106l-55 174q-15 52 -43 73t-80 21h-109v-268h-96v655zM473 1214v-215h109q143 0 143 113q0 102 -135 102h-117z" />
    <glyph glyph-name="macron" unicode="&#xaf;" horiz-adv-x="743" 
d="M641 1278h-539v106h539v-106z" />
    <glyph glyph-name="degree" unicode="&#xb0;" horiz-adv-x="632" 
d="M315 1479q96 0 164 -68t68 -164q0 -95 -67.5 -163t-164.5 -68q-95 0 -162 68t-67 163q0 96 67 164t162 68zM315 1386q-57 0 -97 -41t-40 -98t40 -97t97 -40t99.5 40t42.5 97t-42.5 98t-99.5 41z" />
    <glyph glyph-name="plusminus" unicode="&#xb1;" horiz-adv-x="1159" 
d="M637 750h371v-115h-371v-369h-115v369h-370v115h370v368h115v-368zM1008 0h-856v115h856v-115z" />
    <glyph glyph-name="twosuperior" unicode="&#xb2;" horiz-adv-x="823" 
d="M418 1663q138 0 222.5 -75t84.5 -195q0 -61 -20.5 -111t-64.5 -92.5t-87 -71.5t-113 -69q-142 -80 -191.5 -138.5t-49.5 -132.5h549v-102h-664q-4 10 -4 31q0 74 11 126t43 104.5t90.5 99.5t152.5 100q63 36 97.5 58.5t67.5 53.5t46.5 65.5t13.5 78.5q0 73 -50.5 118
t-135.5 45q-188 0 -201 -192h-121q6 138 94.5 218.5t229.5 80.5z" />
    <glyph glyph-name="threesuperior" unicode="&#xb3;" horiz-adv-x="811" 
d="M395 1663q148 0 234 -72t86 -192q0 -84 -39.5 -138.5t-126.5 -89.5v-4q96 -35 139 -91t43 -148q0 -120 -94 -196.5t-240 -76.5q-156 0 -243.5 82t-87.5 224h118q0 -201 213 -201q95 0 154 47.5t59 124.5q0 89 -62.5 135.5t-182.5 46.5h-37v103h37q106 0 168.5 46.5
t62.5 127.5q0 76 -55.5 120.5t-149.5 44.5q-198 0 -198 -194h-119q0 141 86.5 221t234.5 80z" />
    <glyph glyph-name="acute" unicode="&#xb4;" horiz-adv-x="561" 
d="M223 1169h-121l185 289h172z" />
    <glyph glyph-name="micro" unicode="&#xb5;" horiz-adv-x="1163" 
d="M985 1040v-768q0 -101 21.5 -136.5t76.5 -35.5q26 0 50 9v-105q-41 -14 -97 -14q-83 0 -123 38.5t-49 129.5h-4q-40 -80 -124 -127t-189 -47q-177 0 -250 108v-471h-127v1419h127v-620q0 -177 65.5 -252.5t194.5 -75.5q126 0 213.5 90t87.5 248v610h127z" />
    <glyph glyph-name="paragraph" unicode="&#xb6;" horiz-adv-x="1136" 
d="M1092 1366h-164v-1612h-99v1612h-182v-1612h-98v893h-82q-177 0 -281 110.5t-104 295.5q0 186 104 295.5t281 109.5h625v-92z" />
    <glyph glyph-name="periodcentered" unicode="&#xb7;" horiz-adv-x="430" 
d="M303 532h-176v187h176v-187z" />
    <glyph glyph-name="cedilla" unicode="&#xb8;" horiz-adv-x="624" 
d="M401 0l-86 -129q20 4 47 4q68 0 114 -40t46 -107q0 -74 -56 -124t-159 -50q-110 0 -205 55l31 65q75 -41 160 -41q58 0 90.5 24t32.5 67q0 41 -30.5 64.5t-84.5 23.5q-30 0 -63 -11l-33 37l108 162h88z" />
    <glyph glyph-name="onesuperior" unicode="&#xb9;" horiz-adv-x="507" 
d="M352 676h-114v713h-215v92q115 0 169.5 36.5t67.5 124.5h92v-966z" />
    <glyph glyph-name="ordmasculine" unicode="&#xba;" horiz-adv-x="829" 
d="M416 1423q163 0 256.5 -102.5t93.5 -280.5q0 -180 -93.5 -282.5t-256.5 -102.5q-162 0 -257.5 103t-95.5 282q0 178 95.5 280.5t257.5 102.5zM416 1329q-109 0 -171.5 -77.5t-62.5 -211.5t62.5 -211t171.5 -77q110 0 172.5 77t62.5 211t-62.5 211.5t-172.5 77.5z" />
    <glyph glyph-name="guillemetright" unicode="&#xbb;" horiz-adv-x="880" 
d="M229 930l234 -410l-234 -409h-127l230 409l-230 410h127zM545 930l233 -410l-233 -409h-129l231 409l-231 410h129z" />
    <glyph glyph-name="onequarter" unicode="&#xbc;" horiz-adv-x="1396" 
d="M203 1149h-185v94q99 0 147 31.5t60 105.5h92v-827h-114v596zM1069 1380l-803 -1380h-133l803 1380h133zM1376 211h-137v-211h-115v211h-395v113l356 503h154v-514h137v-102zM846 313h280v109v280h-4q-48 -69 -186 -262z" />
    <glyph glyph-name="onehalf" unicode="&#xbd;" horiz-adv-x="1468" 
d="M317 553h-114v596h-185v94q99 0 147 31.5t60 105.5h92v-827zM266 0h-133l803 1380h133zM1116 846q121 0 194.5 -64.5t73.5 -169.5q0 -51 -18.5 -95.5t-56 -81t-76 -63.5t-94.5 -59q-116 -64 -157.5 -110t-41.5 -101h465v-102h-582q-2 8 -2 29q0 65 9.5 110t37.5 90
t78.5 86t132.5 88q52 29 80 47.5t56 44.5t39.5 54.5t11.5 64.5q0 56 -41 90.5t-111 34.5q-152 0 -162 -153h-116q4 121 81 190.5t199 69.5z" />
    <glyph glyph-name="threequarters" unicode="&#xbe;" horiz-adv-x="1654" 
d="M639 770q0 -104 -81 -169.5t-210 -65.5q-138 0 -215.5 71t-77.5 197h117q0 -85 44 -123.5t132 -38.5q78 0 125 36t47 97q0 71 -53 109.5t-154 38.5h-26v102h26q88 0 140.5 37.5t52.5 101.5q0 60 -42.5 94.5t-117.5 34.5q-83 0 -124.5 -37.5t-41.5 -117.5h-117
q0 123 77 192.5t208 69.5q129 0 203 -62t74 -166q0 -70 -31.5 -115t-104.5 -77v-4q79 -32 114.5 -81t35.5 -124zM1327 1380l-803 -1380h-133l803 1380h133zM1634 211h-137v-211h-115v211h-395v113l356 503h154v-514h137v-102zM1104 313h280v109v280h-4q-48 -69 -186 -262z
" />
    <glyph glyph-name="questiondown" unicode="&#xbf;" horiz-adv-x="954" 
d="M473 1040h162v-190h-162v190zM510 -444q-190 0 -309 101.5t-119 262.5q0 111 44 187t181 190q85 70 122.5 120.5t52 116.5t14.5 189h118v-59q0 -112 -18.5 -182t-62 -128.5t-134.5 -136.5q-112 -97 -145 -153.5t-33 -141.5q0 -112 79 -179t210 -67q143 0 223.5 75.5
t89.5 217.5h131q-12 -201 -127 -307t-317 -106z" />
    <glyph glyph-name="Agrave" unicode="&#xc0;" horiz-adv-x="1359" 
d="M678 1556l-236 277h172l185 -277h-121zM1022 471h-684l-182 -471h-144l578 1458h182l576 -1458h-144zM973 594l-58 151q-149 384 -233 605h-4q-162 -424 -234 -605l-59 -151h588z" />
    <glyph glyph-name="Aacute" unicode="&#xc1;" horiz-adv-x="1359" 
d="M682 1556h-121l184 277h173zM1022 471h-684l-182 -471h-144l578 1458h182l576 -1458h-144zM973 594l-58 151q-149 384 -233 605h-4q-162 -424 -234 -605l-59 -151h588z" />
    <glyph glyph-name="Acircumflex" unicode="&#xc2;" horiz-adv-x="1359" 
d="M516 1556h-141l233 277h146l233 -277h-141l-166 195zM1022 471h-684l-182 -471h-144l578 1458h182l576 -1458h-144zM973 594l-58 151q-149 384 -233 605h-4q-162 -424 -234 -605l-59 -151h588z" />
    <glyph glyph-name="Atilde" unicode="&#xc3;" horiz-adv-x="1359" 
d="M537 1708q-41 0 -66 -28.5t-29 -82.5h-98q6 103 56.5 159t134.5 56q50 0 104 -27t102 -54t84 -27q41 0 66 28t29 80h98q-6 -103 -56.5 -159t-134.5 -56q-40 0 -83 17.5t-73 38t-67 38t-67 17.5zM1022 471h-684l-182 -471h-144l578 1458h182l576 -1458h-144zM973 594
l-58 151q-149 384 -233 605h-4q-162 -424 -234 -605l-59 -151h588z" />
    <glyph glyph-name="Adieresis" unicode="&#xc4;" horiz-adv-x="1359" 
d="M553 1593h-125v181h125v-181zM930 1593h-125v181h125v-181zM1022 471h-684l-182 -471h-144l578 1458h182l576 -1458h-144zM973 594l-58 151q-149 384 -233 605h-4q-162 -424 -234 -605l-59 -151h588z" />
    <glyph glyph-name="Aring" unicode="&#xc5;" horiz-adv-x="1359" 
d="M680 1542q-83 0 -141 58t-58 141q0 82 58 139t141 57q82 0 139.5 -57t57.5 -139q0 -83 -57.5 -141t-139.5 -58zM680 1862q-51 0 -87 -35.5t-36 -85.5q0 -52 36 -87.5t87 -35.5t86 35.5t35 87.5q0 50 -35 85.5t-86 35.5zM1022 471h-684l-182 -471h-144l578 1458h182
l576 -1458h-144zM973 594l-58 151q-149 384 -233 605h-4q-162 -424 -234 -605l-59 -151h588z" />
    <glyph glyph-name="AE" unicode="&#xc6;" horiz-adv-x="1892" 
d="M1780 121v-121h-736l-75 506h-576l-254 -506h-151l731 1458h1036v-121h-778l80 -528h659v-121h-641l86 -567h619zM950 627l-106 710h-35l-356 -710h497z" />
    <glyph glyph-name="Ccedilla" unicode="&#xc7;" horiz-adv-x="1398" 
d="M1155 496h139q-22 -222 -159 -362t-359 -159l-69 -104q20 4 47 4q68 0 113.5 -40t45.5 -107q0 -74 -56 -124t-159 -50q-109 0 -204 55l30 65q75 -41 160 -41q58 0 90.5 24t32.5 67q0 41 -30.5 64.5t-84.5 23.5q-30 0 -63 -11l-33 37l90 135q-277 11 -435.5 212
t-158.5 544q0 351 168 553.5t459 202.5q127 0 232 -39t176 -108t112 -163t47 -204h-139q-15 177 -131 283t-297 106q-226 0 -356 -169t-130 -462t129 -462t353 -169q179 0 297 107.5t143 290.5z" />
    <glyph glyph-name="Egrave" unicode="&#xc8;" horiz-adv-x="1249" 
d="M594 1833l184 -277h-121l-235 277h172zM1114 1337h-774v-528h735v-121h-735v-567h799v-121h-932v1458h907v-121z" />
    <glyph glyph-name="Eacute" unicode="&#xc9;" horiz-adv-x="1249" 
d="M664 1556h-121l184 277h172zM1114 1337h-774v-528h735v-121h-735v-567h799v-121h-932v1458h907v-121z" />
    <glyph glyph-name="Ecircumflex" unicode="&#xca;" horiz-adv-x="1249" 
d="M588 1833h145l234 -277h-142l-166 195l-163 -195h-142zM1114 1337h-774v-528h735v-121h-735v-567h799v-121h-932v1458h907v-121z" />
    <glyph glyph-name="Edieresis" unicode="&#xcb;" horiz-adv-x="1249" 
d="M532 1593h-124v181h124v-181zM909 1593h-125v181h125v-181zM1114 1337h-774v-528h735v-121h-735v-567h799v-121h-932v1458h907v-121z" />
    <glyph glyph-name="Igrave" unicode="&#xcc;" horiz-adv-x="546" 
d="M207 1833l184 -277h-121l-235 277h172zM340 0h-133v1458h133v-1458z" />
    <glyph glyph-name="Iacute" unicode="&#xcd;" horiz-adv-x="546" 
d="M276 1556h-120l184 277h172zM340 0h-133v1458h133v-1458z" />
    <glyph glyph-name="Icircumflex" unicode="&#xce;" horiz-adv-x="546" 
d="M201 1833h145l234 -277h-142l-166 195l-163 -195h-142zM340 0h-133v1458h133v-1458z" />
    <glyph glyph-name="Idieresis" unicode="&#xcf;" horiz-adv-x="546" 
d="M145 1593h-125v181h125v-181zM522 1593h-125v181h125v-181zM340 0h-133v1458h133v-1458z" />
    <glyph glyph-name="Eth" unicode="&#xd0;" horiz-adv-x="1470" 
d="M207 1458h426q357 0 551 -189.5t194 -539.5t-194 -539.5t-551 -189.5h-426v682h-135v113h135v663zM340 121h293q292 0 448 157.5t156 450.5t-156 450.5t-448 157.5h-293v-542h451v-113h-451v-561z" />
    <glyph glyph-name="Ntilde" unicode="&#xd1;" horiz-adv-x="1525" 
d="M1001 1812h99q-6 -103 -56.5 -159t-134.5 -56q-40 0 -83 17.5t-73.5 38t-67.5 38t-67 17.5q-85 0 -94 -111h-98q6 103 56 159t134 56q50 0 104.5 -27t102.5 -54t84 -27q85 0 94 108zM1319 0h-203l-379 647q-71 121 -202.5 348t-192.5 330h-4q0 -122 1 -364.5t1 -364.5
v-596h-133v1458h203l378 -647q72 -123 204.5 -350.5t191.5 -327.5h4q-2 244 -2 729v596h133v-1458z" />
    <glyph glyph-name="Ograve" unicode="&#xd2;" horiz-adv-x="1482" 
d="M676 1833l184 -277h-121l-235 277h172zM741 1485q296 0 472 -205t176 -551t-176 -551t-472 -205t-472.5 205t-176.5 551t176.5 551t472.5 205zM741 1360q-233 0 -370.5 -171t-137.5 -460t137.5 -460t370.5 -171q232 0 370 171t138 460t-138 460t-370 171z" />
    <glyph glyph-name="Oacute" unicode="&#xd3;" horiz-adv-x="1482" 
d="M743 1556h-120l184 277h172zM741 1485q296 0 472 -205t176 -551t-176 -551t-472 -205t-472.5 205t-176.5 551t176.5 551t472.5 205zM741 1360q-233 0 -370.5 -171t-137.5 -460t137.5 -460t370.5 -171q232 0 370 171t138 460t-138 460t-370 171z" />
    <glyph glyph-name="Ocircumflex" unicode="&#xd4;" horiz-adv-x="1482" 
d="M668 1833h145l234 -277h-142l-166 195l-164 -195h-141zM741 1485q296 0 472 -205t176 -551t-176 -551t-472 -205t-472.5 205t-176.5 551t176.5 551t472.5 205zM741 1360q-233 0 -370.5 -171t-137.5 -460t137.5 -460t370.5 -171q232 0 370 171t138 460t-138 460t-370 171z
" />
    <glyph glyph-name="Otilde" unicode="&#xd5;" horiz-adv-x="1482" 
d="M979 1812h98q-6 -103 -56 -159t-134 -56q-40 0 -83 17.5t-73.5 38t-67.5 38t-67 17.5q-85 0 -94 -111h-99q6 103 56.5 159t134.5 56q50 0 104.5 -27t102.5 -54t84 -27q85 0 94 108zM741 1485q296 0 472 -205t176 -551t-176 -551t-472 -205t-472.5 205t-176.5 551
t176.5 551t472.5 205zM741 1360q-233 0 -370.5 -171t-137.5 -460t137.5 -460t370.5 -171q232 0 370 171t138 460t-138 460t-370 171z" />
    <glyph glyph-name="Odieresis" unicode="&#xd6;" horiz-adv-x="1482" 
d="M614 1593h-125v181h125v-181zM991 1593h-125v181h125v-181zM741 1485q296 0 472 -205t176 -551t-176 -551t-472 -205t-472.5 205t-176.5 551t176.5 551t472.5 205zM741 1360q-233 0 -370.5 -171t-137.5 -460t137.5 -460t370.5 -171q232 0 370 171t138 460t-138 460
t-370 171z" />
    <glyph glyph-name="multiply" unicode="&#xd7;" horiz-adv-x="1159" 
d="M1061 1028l-404 -401l404 -402l-80 -80l-401 404l-402 -404l-80 80l404 402l-404 401l80 80l402 -401l401 401z" />
    <glyph glyph-name="Oslash" unicode="&#xd8;" horiz-adv-x="1482" 
d="M1356 1446l-133 -176q166 -205 166 -541q0 -346 -176 -551t-472 -205q-235 0 -399 133l-123 -163l-92 71l133 174q-168 202 -168 541q0 346 176.5 551t472.5 205q237 0 398 -133l125 164zM231 729q0 -261 115 -426l713 942q-131 115 -318 115q-233 0 -371.5 -171
t-138.5 -460zM741 98q233 0 370.5 171t137.5 460q0 266 -112 426l-713 -942q131 -115 317 -115z" />
    <glyph glyph-name="Ugrave" unicode="&#xd9;" horiz-adv-x="1431" 
d="M649 1833l185 -277h-121l-236 277h172zM1237 1458v-917q0 -278 -133 -423t-387 -145t-388 145t-134 423v917h133v-915q0 -221 102 -333t287 -112t286 111.5t101 333.5v915h133z" />
    <glyph glyph-name="Uacute" unicode="&#xda;" horiz-adv-x="1431" 
d="M719 1556h-121l184 277h172zM1237 1458v-917q0 -278 -133 -423t-387 -145t-388 145t-134 423v917h133v-915q0 -221 102 -333t287 -112t286 111.5t101 333.5v915h133z" />
    <glyph glyph-name="Ucircumflex" unicode="&#xdb;" horiz-adv-x="1431" 
d="M643 1833h145l234 -277h-141l-166 195l-164 -195h-141zM1237 1458v-917q0 -278 -133 -423t-387 -145t-388 145t-134 423v917h133v-915q0 -221 102 -333t287 -112t286 111.5t101 333.5v915h133z" />
    <glyph glyph-name="Udieresis" unicode="&#xdc;" horiz-adv-x="1431" 
d="M590 1593h-125v181h125v-181zM967 1593h-125v181h125v-181zM1237 1458v-917q0 -278 -133 -423t-387 -145t-388 145t-134 423v917h133v-915q0 -221 102 -333t287 -112t286 111.5t101 333.5v915h133z" />
    <glyph glyph-name="Yacute" unicode="&#xdd;" horiz-adv-x="1232" 
d="M618 1556h-120l184 277h172zM684 623v-623h-135v623l-539 835h158l201 -315q17 -26 245 -391h4q164 262 248 391l199 315h158z" />
    <glyph glyph-name="Thorn" unicode="&#xde;" horiz-adv-x="1241" 
d="M340 1180h342q240 0 369 -113.5t129 -310.5t-129 -311.5t-369 -114.5h-342v-330h-133v1458h133v-278zM340 1059v-608h340q176 0 268 80t92 225q0 143 -92 223t-268 80h-340z" />
    <glyph glyph-name="germandbls" unicode="&#xdf;" horiz-adv-x="1122" 
d="M575 1485q177 0 283.5 -95.5t106.5 -252.5q0 -242 -228 -316v-4q136 -27 216.5 -128.5t80.5 -264.5q0 -206 -125 -321t-350 -115q-57 0 -106 12v115q44 -13 100 -13q165 0 257.5 85.5t92.5 238.5q0 154 -90 243t-246 89h-30v119q148 0 223.5 65t75.5 186q0 113 -71 178.5
t-190 65.5q-135 0 -206.5 -85t-71.5 -249v-1038h-127v1044q0 210 105.5 325.5t299.5 115.5z" />
    <glyph glyph-name="agrave" unicode="&#xe0;" horiz-adv-x="1073" 
d="M444 1458l185 -289h-121l-236 289h172zM524 1067q181 0 285 -100t104 -299v-412q0 -143 23 -256h-119q-14 69 -14 158h-4q-107 -178 -371 -178q-158 0 -255 83.5t-97 215.5t89 208.5t306 110.5q159 27 320 37v49q0 140 -71.5 207t-195.5 67q-128 0 -197 -63t-75 -168
h-133q9 151 115.5 245.5t289.5 94.5zM791 449v79q-136 -9 -304 -36q-154 -23 -215 -70t-61 -135q0 -92 65 -146.5t179 -54.5q150 0 239 92q55 58 76 114t21 157z" />
    <glyph glyph-name="aacute" unicode="&#xe1;" horiz-adv-x="1073" 
d="M512 1169h-121l184 289h173zM524 1067q181 0 285 -100t104 -299v-412q0 -143 23 -256h-119q-14 69 -14 158h-4q-107 -178 -371 -178q-158 0 -255 83.5t-97 215.5t89 208.5t306 110.5q159 27 320 37v49q0 140 -71.5 207t-195.5 67q-128 0 -197 -63t-75 -168h-133
q9 151 115.5 245.5t289.5 94.5zM791 449v79q-136 -9 -304 -36q-154 -23 -215 -70t-61 -135q0 -92 65 -146.5t179 -54.5q150 0 239 92q55 58 76 114t21 157z" />
    <glyph glyph-name="acircumflex" unicode="&#xe2;" horiz-adv-x="1073" 
d="M674 1169l-164 207l-166 -207h-141l233 289h146l233 -289h-141zM524 1067q181 0 285 -100t104 -299v-412q0 -143 23 -256h-119q-14 69 -14 158h-4q-107 -178 -371 -178q-158 0 -255 83.5t-97 215.5t89 208.5t306 110.5q159 27 320 37v49q0 140 -71.5 207t-195.5 67
q-128 0 -197 -63t-75 -168h-133q9 151 115.5 245.5t289.5 94.5zM791 449v79q-136 -9 -304 -36q-154 -23 -215 -70t-61 -135q0 -92 65 -146.5t179 -54.5q150 0 239 92q55 58 76 114t21 157z" />
    <glyph glyph-name="atilde" unicode="&#xe3;" horiz-adv-x="1073" 
d="M748 1440h98q-6 -103 -56.5 -159t-134.5 -56q-50 0 -103.5 27t-101.5 54t-85 27q-41 0 -66 -28t-29 -80h-98q6 103 56 159t134 56q40 0 83 -17.5t74 -38t68 -38t66 -17.5q41 0 66 28.5t29 82.5zM524 1067q181 0 285 -100t104 -299v-412q0 -143 23 -256h-119
q-14 69 -14 158h-4q-107 -178 -371 -178q-158 0 -255 83.5t-97 215.5t89 208.5t306 110.5q159 27 320 37v49q0 140 -71.5 207t-195.5 67q-128 0 -197 -63t-75 -168h-133q9 151 115.5 245.5t289.5 94.5zM791 449v79q-136 -9 -304 -36q-154 -23 -215 -70t-61 -135
q0 -92 65 -146.5t179 -54.5q150 0 239 92q55 58 76 114t21 157z" />
    <glyph glyph-name="adieresis" unicode="&#xe4;" horiz-adv-x="1073" 
d="M383 1278h-125v180h125v-180zM760 1278h-125v180h125v-180zM524 1067q181 0 285 -100t104 -299v-412q0 -143 23 -256h-119q-14 69 -14 158h-4q-107 -178 -371 -178q-158 0 -255 83.5t-97 215.5t89 208.5t306 110.5q159 27 320 37v49q0 140 -71.5 207t-195.5 67
q-128 0 -197 -63t-75 -168h-133q9 151 115.5 245.5t289.5 94.5zM791 449v79q-136 -9 -304 -36q-154 -23 -215 -70t-61 -135q0 -92 65 -146.5t179 -54.5q150 0 239 92q55 58 76 114t21 157z" />
    <glyph glyph-name="aring" unicode="&#xe5;" horiz-adv-x="1073" 
d="M510 1565q82 0 139.5 -58.5t57.5 -140.5q0 -83 -57.5 -141t-139.5 -58q-83 0 -141 58t-58 141q0 82 58 140.5t141 58.5zM510 1487q-51 0 -87 -35t-36 -86q0 -52 36 -87.5t87 -35.5t86 35.5t35 87.5q0 51 -35 86t-86 35zM524 1067q181 0 285 -100t104 -299v-412
q0 -143 23 -256h-119q-14 69 -14 158h-4q-107 -178 -371 -178q-158 0 -255 83.5t-97 215.5t89 208.5t306 110.5q159 27 320 37v49q0 140 -71.5 207t-195.5 67q-128 0 -197 -63t-75 -168h-133q9 151 115.5 245.5t289.5 94.5zM791 449v79q-136 -9 -304 -36q-154 -23 -215 -70
t-61 -135q0 -92 65 -146.5t179 -54.5q150 0 239 92q55 58 76 114t21 157z" />
    <glyph glyph-name="ae" unicode="&#xe6;" horiz-adv-x="1748" 
d="M1229 82q117 0 191.5 62t97.5 165h131q-23 -144 -132 -240t-288 -96q-130 0 -227 64.5t-152 183.5q-53 -118 -162 -183t-256 -65q-160 0 -258 86t-98 222q0 319 459 319h256v84q0 136 -70.5 205t-196.5 69q-124 0 -195 -63.5t-77 -167.5h-133q9 150 117 245t288 95
q262 0 342 -201q55 96 145.5 148.5t209.5 52.5q162 0 274.5 -100.5t146.5 -270.5q15 -83 15 -202h-754q6 -200 95.5 -306t230.5 -106zM1221 958q-137 0 -223 -96t-95 -262h629q-9 170 -93.5 264t-217.5 94zM791 494h-240q-184 0 -262 -52t-78 -157q0 -93 65 -149t179 -56
q154 0 239 94q55 57 76 114t21 161v45z" />
    <glyph glyph-name="ccedilla" unicode="&#xe7;" horiz-adv-x="1067" 
d="M561 84q117 0 197.5 83.5t91.5 203.5h133q-12 -153 -105.5 -260.5t-242.5 -130.5l-72 -109q20 4 47 4q68 0 114 -40t46 -107q0 -74 -56 -124t-159 -50q-110 0 -205 55l31 65q75 -41 160 -41q58 0 90.5 24t32.5 67q0 41 -30.5 64.5t-84.5 23.5q-31 0 -64 -11l-32 37
l90 135q-211 6 -332 151.5t-121 395.5q0 255 126 401t345 146q176 0 292 -107t130 -278h-133q-9 121 -89.5 197.5t-199.5 76.5q-156 0 -245 -116.5t-89 -319.5q0 -204 88.5 -320t245.5 -116z" />
    <glyph glyph-name="egrave" unicode="&#xe8;" horiz-adv-x="1103" 
d="M549 1169l-236 289h172l185 -289h-121zM565 82q124 0 204.5 62t104.5 165h132q-27 -144 -141 -240t-300 -96q-221 0 -348 153t-127 413q0 235 125.5 381.5t341.5 146.5q174 0 290 -99t150 -272q17 -78 17 -200h-795q4 -200 99.5 -307t246.5 -107zM557 958
q-144 0 -235.5 -96t-100.5 -262h670q-10 170 -101 264t-233 94z" />
    <glyph glyph-name="eacute" unicode="&#xe9;" horiz-adv-x="1103" 
d="M553 1169h-121l184 289h172zM565 82q124 0 204.5 62t104.5 165h132q-27 -144 -141 -240t-300 -96q-221 0 -348 153t-127 413q0 235 125.5 381.5t341.5 146.5q174 0 290 -99t150 -272q17 -78 17 -200h-795q4 -200 99.5 -307t246.5 -107zM557 958q-144 0 -235.5 -96
t-100.5 -262h670q-10 170 -101 264t-233 94z" />
    <glyph glyph-name="ecircumflex" unicode="&#xea;" horiz-adv-x="1103" 
d="M387 1169h-141l233 289h146l233 -289h-141l-164 207zM565 82q124 0 204.5 62t104.5 165h132q-27 -144 -141 -240t-300 -96q-221 0 -348 153t-127 413q0 235 125.5 381.5t341.5 146.5q174 0 290 -99t150 -272q17 -78 17 -200h-795q4 -200 99.5 -307t246.5 -107zM557 958
q-144 0 -235.5 -96t-100.5 -262h670q-10 170 -101 264t-233 94z" />
    <glyph glyph-name="edieresis" unicode="&#xeb;" horiz-adv-x="1103" 
d="M424 1278h-125v180h125v-180zM801 1278h-125v180h125v-180zM565 82q124 0 204.5 62t104.5 165h132q-27 -144 -141 -240t-300 -96q-221 0 -348 153t-127 413q0 235 125.5 381.5t341.5 146.5q174 0 290 -99t150 -272q17 -78 17 -200h-795q4 -200 99.5 -307t246.5 -107z
M557 958q-144 0 -235.5 -96t-100.5 -262h670q-10 170 -101 264t-233 94z" />
    <glyph glyph-name="igrave" unicode="&#xec;" horiz-adv-x="466" 
d="M168 1458l184 -289h-121l-235 289h172zM297 0h-127v1040h127v-1040z" />
    <glyph glyph-name="iacute" unicode="&#xed;" horiz-adv-x="466" 
d="M238 1169h-121l184 289h172zM297 0h-127v1040h127v-1040z" />
    <glyph glyph-name="icircumflex" unicode="&#xee;" horiz-adv-x="466" 
d="M510 1171h-137l-140 207l-137 -207h-139l201 287h151zM297 0h-127v1040h127v-1040z" />
    <glyph glyph-name="idieresis" unicode="&#xef;" horiz-adv-x="466" 
d="M150 1278h-125v180h125v-180zM444 1278h-125v180h125v-180zM297 0h-127v1040h127v-1040z" />
    <glyph glyph-name="eth" unicode="&#xf0;" horiz-adv-x="1132" 
d="M825 1102q111 -139 164 -279t53 -303q0 -255 -127.5 -401t-349.5 -146q-221 0 -348 145t-127 398q0 249 123 392t336 143q142 0 246 -93v5q-96 136 -256 276l-279 -133l-41 88l238 113q-73 59 -150 108l84 70q63 -40 172 -127l246 119l41 -88l-207 -99q122 -111 182 -188
zM565 84q161 0 253.5 115.5t92.5 316.5t-92.5 316.5t-253.5 115.5q-160 0 -251 -115.5t-91 -316.5t91 -316.5t251 -115.5z" />
    <glyph glyph-name="ntilde" unicode="&#xf1;" 
d="M821 1440h99q-6 -103 -56.5 -159t-134.5 -56q-50 0 -104 27t-102 54t-85 27q-85 0 -94 -108h-98q6 103 56 159t134 56q40 0 83 -17.5t74 -38t68 -38t66 -17.5q85 0 94 111zM623 1063q181 0 275.5 -108t94.5 -322v-633h-127v627q0 177 -67 251t-199 74q-128 0 -215.5 -89
t-87.5 -247v-616h-127v1040h125v-141h4q48 75 133.5 119.5t190.5 44.5z" />
    <glyph glyph-name="ograve" unicode="&#xf2;" horiz-adv-x="1130" 
d="M500 1458l184 -289h-121l-235 289h172zM565 1067q221 0 348 -146t127 -401t-127 -401t-348 -146t-348 146t-127 401t127 401t348 146zM565 956q-161 0 -251.5 -116.5t-90.5 -319.5t90.5 -319.5t251.5 -116.5t252.5 116.5t91.5 319.5t-91.5 319.5t-252.5 116.5z" />
    <glyph glyph-name="oacute" unicode="&#xf3;" horiz-adv-x="1130" 
d="M567 1169h-121l185 289h172zM565 1067q221 0 348 -146t127 -401t-127 -401t-348 -146t-348 146t-127 401t127 401t348 146zM565 956q-161 0 -251.5 -116.5t-90.5 -319.5t90.5 -319.5t251.5 -116.5t252.5 116.5t91.5 319.5t-91.5 319.5t-252.5 116.5z" />
    <glyph glyph-name="ocircumflex" unicode="&#xf4;" horiz-adv-x="1130" 
d="M731 1169l-164 207l-166 -207h-141l234 289h145l233 -289h-141zM565 1067q221 0 348 -146t127 -401t-127 -401t-348 -146t-348 146t-127 401t127 401t348 146zM565 956q-161 0 -251.5 -116.5t-90.5 -319.5t90.5 -319.5t251.5 -116.5t252.5 116.5t91.5 319.5t-91.5 319.5
t-252.5 116.5z" />
    <glyph glyph-name="otilde" unicode="&#xf5;" horiz-adv-x="1130" 
d="M805 1440h98q-6 -103 -56 -159t-134 -56q-50 0 -104 27t-102 54t-85 27q-85 0 -94 -108h-99q6 103 56.5 159t134.5 56q40 0 83 -17.5t74 -38t68 -38t66 -17.5q85 0 94 111zM565 1067q221 0 348 -146t127 -401t-127 -401t-348 -146t-348 146t-127 401t127 401t348 146z
M565 956q-161 0 -251.5 -116.5t-90.5 -319.5t90.5 -319.5t251.5 -116.5t252.5 116.5t91.5 319.5t-91.5 319.5t-252.5 116.5z" />
    <glyph glyph-name="odieresis" unicode="&#xf6;" horiz-adv-x="1130" 
d="M438 1278h-125v180h125v-180zM815 1278h-125v180h125v-180zM565 1067q221 0 348 -146t127 -401t-127 -401t-348 -146t-348 146t-127 401t127 401t348 146zM565 956q-161 0 -251.5 -116.5t-90.5 -319.5t90.5 -319.5t251.5 -116.5t252.5 116.5t91.5 319.5t-91.5 319.5
t-252.5 116.5z" />
    <glyph glyph-name="divide" unicode="&#xf7;" horiz-adv-x="1159" 
d="M647 903h-135v148h135v-148zM1008 590h-856v117h856v-117zM647 248h-135v147h135v-147z" />
    <glyph glyph-name="oslash" unicode="&#xf8;" horiz-adv-x="1132" 
d="M1036 1055l-112 -146q118 -142 118 -389q0 -255 -127.5 -401t-349.5 -146q-165 0 -284 86l-105 -135l-80 64l111 143q-117 145 -117 389q0 255 127 401t348 146q167 0 287 -88l104 139zM565 956q-160 0 -252 -117t-92 -319q0 -169 66 -280l491 643q-85 73 -213 73z
M565 84q161 0 253.5 116.5t92.5 319.5q0 176 -67 283l-490 -645q87 -74 211 -74z" />
    <glyph glyph-name="ugrave" unicode="&#xf9;" 
d="M512 1458l184 -289h-121l-235 289h172zM530 -23q-180 0 -275 109t-95 322v632h127v-626q0 -177 67.5 -251.5t198.5 -74.5q128 0 215.5 89t87.5 247v616h127v-1040h-125v141h-4q-47 -75 -133 -119.5t-191 -44.5z" />
    <glyph glyph-name="uacute" unicode="&#xfa;" 
d="M580 1169h-121l184 289h172zM530 -23q-180 0 -275 109t-95 322v632h127v-626q0 -177 67.5 -251.5t198.5 -74.5q128 0 215.5 89t87.5 247v616h127v-1040h-125v141h-4q-47 -75 -133 -119.5t-191 -44.5z" />
    <glyph glyph-name="ucircumflex" unicode="&#xfb;" 
d="M743 1169l-163 207l-166 -207h-142l234 289h145l234 -289h-142zM530 -23q-180 0 -275 109t-95 322v632h127v-626q0 -177 67.5 -251.5t198.5 -74.5q128 0 215.5 89t87.5 247v616h127v-1040h-125v141h-4q-47 -75 -133 -119.5t-191 -44.5z" />
    <glyph glyph-name="udieresis" unicode="&#xfc;" 
d="M451 1278h-125v180h125v-180zM827 1278h-125v180h125v-180zM530 -23q-180 0 -275 109t-95 322v632h127v-626q0 -177 67.5 -251.5t198.5 -74.5q128 0 215.5 89t87.5 247v616h127v-1040h-125v141h-4q-47 -75 -133 -119.5t-191 -44.5z" />
    <glyph glyph-name="yacute" unicode="&#xfd;" horiz-adv-x="933" 
d="M471 1169h-121l185 289h172zM944 1040l-430 -1089q-55 -137 -109 -209t-120.5 -100.5t-171.5 -28.5q-45 0 -76 8v113q31 -8 74 -8q114 0 168.5 52.5t119.5 221.5l-409 1040h137l338 -878h4l338 878h137z" />
    <glyph glyph-name="thorn" unicode="&#xfe;" horiz-adv-x="1157" 
d="M297 887h4q40 82 128 131t200 49q201 0 319.5 -148t118.5 -397t-118.5 -397t-319.5 -148q-112 0 -200 49t-128 132h-4v-537h-127v1837h127v-571zM608 961q-145 0 -231 -119.5t-86 -319.5t86 -319t231 -119q149 0 237.5 119t88.5 319t-88.5 319.5t-237.5 119.5z" />
    <glyph glyph-name="ydieresis" unicode="&#xff;" horiz-adv-x="933" 
d="M340 1278h-125v180h125v-180zM717 1278h-125v180h125v-180zM944 1040l-430 -1089q-55 -137 -109 -209t-120.5 -100.5t-171.5 -28.5q-45 0 -76 8v113q31 -8 74 -8q114 0 168.5 52.5t119.5 221.5l-409 1040h137l338 -878h4l338 878h137z" />
    <glyph glyph-name="Amacron" unicode="&#x100;" horiz-adv-x="1359" 
d="M948 1624h-538v107h538v-107zM1022 471h-684l-182 -471h-144l578 1458h182l576 -1458h-144zM973 594l-58 151q-149 384 -233 605h-4q-162 -424 -234 -605l-59 -151h588z" />
    <glyph glyph-name="amacron" unicode="&#x101;" horiz-adv-x="1073" 
d="M778 1278h-538v106h538v-106zM524 1067q181 0 285 -100t104 -299v-412q0 -143 23 -256h-119q-14 69 -14 158h-4q-107 -178 -371 -178q-158 0 -255 83.5t-97 215.5t89 208.5t306 110.5q159 27 320 37v49q0 140 -71.5 207t-195.5 67q-128 0 -197 -63t-75 -168h-133
q9 151 115.5 245.5t289.5 94.5zM791 449v79q-136 -9 -304 -36q-154 -23 -215 -70t-61 -135q0 -92 65 -146.5t179 -54.5q150 0 239 92q55 58 76 114t21 157z" />
    <glyph glyph-name="Abreve" unicode="&#x102;" horiz-adv-x="1359" 
d="M680 1548q-131 0 -209 74.5t-90 210.5h104q12 -89 62.5 -136.5t132.5 -47.5q81 0 130.5 47t63.5 137h105q-12 -136 -90 -210.5t-209 -74.5zM1022 471h-684l-182 -471h-144l578 1458h182l576 -1458h-144zM973 594l-58 151q-149 384 -233 605h-4q-162 -424 -234 -605
l-59 -151h588z" />
    <glyph glyph-name="abreve" unicode="&#x103;" horiz-adv-x="1073" 
d="M705 1458h104q-12 -135 -89.5 -209.5t-209.5 -74.5t-209.5 74.5t-89.5 209.5h104q12 -89 62.5 -135.5t132.5 -46.5t132 46.5t63 135.5zM524 1067q181 0 285 -100t104 -299v-412q0 -143 23 -256h-119q-14 69 -14 158h-4q-107 -178 -371 -178q-158 0 -255 83.5t-97 215.5
t89 208.5t306 110.5q159 27 320 37v49q0 140 -71.5 207t-195.5 67q-128 0 -197 -63t-75 -168h-133q9 151 115.5 245.5t289.5 94.5zM791 449v79q-136 -9 -304 -36q-154 -23 -215 -70t-61 -135q0 -92 65 -146.5t179 -54.5q150 0 239 92q55 58 76 114t21 157z" />
    <glyph glyph-name="Aogonek" unicode="&#x104;" horiz-adv-x="1359" 
d="M1272 -301q44 0 82 14v-90q-40 -16 -101 -16q-94 0 -141 40t-47 113q0 66 37.5 120.5t122.5 119.5h-21l-182 471h-684l-182 -471h-144l578 1458h182l576 -1458q-91 -69 -127.5 -120t-36.5 -105q0 -36 23 -56t65 -20zM973 594l-58 151q-149 384 -233 605h-4
q-162 -424 -234 -605l-59 -151h588z" />
    <glyph glyph-name="aogonek" unicode="&#x105;" horiz-adv-x="1073" 
d="M860 -301q44 0 82 14v-90q-40 -16 -100 -16q-94 0 -141.5 40.5t-47.5 112.5q0 66 38.5 122t125.5 120q-14 69 -14 156h-4q-107 -178 -371 -178q-158 0 -255 83.5t-97 215.5t89 208.5t306 110.5q159 27 320 37v49q0 140 -71.5 207t-195.5 67q-128 0 -197 -63t-75 -168
h-133q9 151 115.5 245.5t289.5 94.5q181 0 285 -100t104 -299v-412q0 -143 23 -256q-91 -69 -127.5 -120t-36.5 -105q0 -36 23 -56t65 -20zM791 449v79q-136 -9 -304 -36q-154 -23 -215 -70t-61 -135q0 -92 65 -146.5t179 -54.5q150 0 239 92q55 58 76 114t21 157z" />
    <glyph glyph-name="Cacute" unicode="&#x106;" horiz-adv-x="1398" 
d="M721 1556h-121l184 277h172zM719 1485q127 0 232 -39t176 -108t112 -163t47 -204h-139q-15 177 -131 283t-297 106q-226 0 -356 -169t-130 -462t129 -462t353 -169q179 0 297 107.5t143 290.5h139q-24 -238 -178 -380.5t-401 -142.5q-289 0 -456 202.5t-167 553.5
t168 553.5t459 202.5z" />
    <glyph glyph-name="cacute" unicode="&#x107;" horiz-adv-x="1067" 
d="M563 1169h-121l185 289h172zM561 1067q176 0 292 -107t130 -278h-133q-9 121 -89.5 197.5t-199.5 76.5q-156 0 -245 -116.5t-89 -319.5q0 -204 88.5 -320t245.5 -116q117 0 197.5 83.5t91.5 203.5h133q-14 -173 -129 -285.5t-293 -112.5q-219 0 -345 146t-126 401
t126 401t345 146z" />
    <glyph glyph-name="Ccircumflex" unicode="&#x108;" horiz-adv-x="1398" 
d="M645 1833h146l233 -277h-141l-166 195l-164 -195h-141zM719 1485q127 0 232 -39t176 -108t112 -163t47 -204h-139q-15 177 -131 283t-297 106q-226 0 -356 -169t-130 -462t129 -462t353 -169q179 0 297 107.5t143 290.5h139q-24 -238 -178 -380.5t-401 -142.5
q-289 0 -456 202.5t-167 553.5t168 553.5t459 202.5z" />
    <glyph glyph-name="ccircumflex" unicode="&#x109;" horiz-adv-x="1067" 
d="M727 1169l-164 207l-166 -207h-141l233 289h146l233 -289h-141zM561 1067q176 0 292 -107t130 -278h-133q-9 121 -89.5 197.5t-199.5 76.5q-156 0 -245 -116.5t-89 -319.5q0 -204 88.5 -320t245.5 -116q117 0 197.5 83.5t91.5 203.5h133q-14 -173 -129 -285.5
t-293 -112.5q-219 0 -345 146t-126 401t126 401t345 146z" />
    <glyph glyph-name="Cdotaccent" unicode="&#x10a;" horiz-adv-x="1398" 
d="M780 1575h-127v180h127v-180zM719 1485q127 0 232 -39t176 -108t112 -163t47 -204h-139q-15 177 -131 283t-297 106q-226 0 -356 -169t-130 -462t129 -462t353 -169q179 0 297 107.5t143 290.5h139q-24 -238 -178 -380.5t-401 -142.5q-289 0 -456 202.5t-167 553.5
t168 553.5t459 202.5z" />
    <glyph glyph-name="cdotaccent" unicode="&#x10b;" horiz-adv-x="1067" 
d="M625 1278h-127v180h127v-180zM561 1067q176 0 292 -107t130 -278h-133q-9 121 -89.5 197.5t-199.5 76.5q-156 0 -245 -116.5t-89 -319.5q0 -204 88.5 -320t245.5 -116q117 0 197.5 83.5t91.5 203.5h133q-14 -173 -129 -285.5t-293 -112.5q-219 0 -345 146t-126 401
t126 401t345 146z" />
    <glyph glyph-name="Ccaron" unicode="&#x10c;" horiz-adv-x="1398" 
d="M791 1556h-146l-233 277h141l166 -195l164 195h141zM719 1485q127 0 232 -39t176 -108t112 -163t47 -204h-139q-15 177 -131 283t-297 106q-226 0 -356 -169t-130 -462t129 -462t353 -169q179 0 297 107.5t143 290.5h139q-24 -238 -178 -380.5t-401 -142.5
q-289 0 -456 202.5t-167 553.5t168 553.5t459 202.5z" />
    <glyph glyph-name="ccaron" unicode="&#x10d;" horiz-adv-x="1067" 
d="M635 1169h-146l-233 289h141l166 -207l164 207h141zM561 1067q176 0 292 -107t130 -278h-133q-9 121 -89.5 197.5t-199.5 76.5q-156 0 -245 -116.5t-89 -319.5q0 -204 88.5 -320t245.5 -116q117 0 197.5 83.5t91.5 203.5h133q-14 -173 -129 -285.5t-293 -112.5
q-219 0 -345 146t-126 401t126 401t345 146z" />
    <glyph glyph-name="Dcaron" unicode="&#x10e;" horiz-adv-x="1470" 
d="M741 1556h-145l-234 277h142l166 -195l164 195h141zM207 1458h426q357 0 551 -189.5t194 -539.5t-194 -539.5t-551 -189.5h-426v1458zM340 1337v-1216h293q292 0 448 157.5t156 450.5t-156 450.5t-448 157.5h-293z" />
    <glyph glyph-name="dcaron" unicode="&#x10f;" horiz-adv-x="1157" 
d="M987 0h-127v158h-4q-40 -83 -128 -132t-200 -49q-201 0 -319.5 148t-118.5 397t118.5 397t319.5 148q112 0 200 -49t128 -131h4v571h127v-1458zM1147 1098h-84l63 360h131zM549 961q-149 0 -237.5 -119.5t-88.5 -319.5t88.5 -319t237.5 -119q145 0 231 119t86 319
t-86 319.5t-231 119.5z" />
    <glyph glyph-name="Dcroat" unicode="&#x110;" horiz-adv-x="1470" 
d="M207 1458h426q357 0 551 -189.5t194 -539.5t-194 -539.5t-551 -189.5h-426v682h-135v113h135v663zM340 121h293q292 0 448 157.5t156 450.5t-156 450.5t-448 157.5h-293v-542h451v-113h-451v-561z" />
    <glyph glyph-name="dcroat" unicode="&#x111;" horiz-adv-x="1146" 
d="M1118 1194h-131v-1194h-127v158h-4q-40 -83 -128 -132t-200 -49q-201 0 -319.5 148t-118.5 397t118.5 397t319.5 148q112 0 200 -49t128 -131h4v307h-280v94h280v170h127v-170h131v-94zM549 84q145 0 231 119t86 319t-86 319.5t-231 119.5q-149 0 -237.5 -119.5
t-88.5 -319.5t88.5 -319t237.5 -119z" />
    <glyph glyph-name="Emacron" unicode="&#x112;" horiz-adv-x="1249" 
d="M928 1624h-539v107h539v-107zM1114 1337h-774v-528h735v-121h-735v-567h799v-121h-932v1458h907v-121z" />
    <glyph glyph-name="emacron" unicode="&#x113;" horiz-adv-x="1103" 
d="M819 1278h-538v106h538v-106zM565 82q124 0 204.5 62t104.5 165h132q-27 -144 -141 -240t-300 -96q-221 0 -348 153t-127 413q0 235 125.5 381.5t341.5 146.5q174 0 290 -99t150 -272q17 -78 17 -200h-795q4 -200 99.5 -307t246.5 -107zM557 958q-144 0 -235.5 -96
t-100.5 -262h670q-10 170 -101 264t-233 94z" />
    <glyph glyph-name="Ebreve" unicode="&#x114;" horiz-adv-x="1249" 
d="M854 1833h104q-12 -136 -90 -210.5t-209 -74.5t-209 74.5t-90 210.5h105q12 -89 62 -136.5t132 -47.5t131.5 47.5t63.5 136.5zM1114 1337h-774v-528h735v-121h-735v-567h799v-121h-932v1458h907v-121z" />
    <glyph glyph-name="ebreve" unicode="&#x115;" horiz-adv-x="1103" 
d="M551 1174q-132 0 -209.5 74.5t-89.5 209.5h104q12 -89 62.5 -135.5t132.5 -46.5q166 0 194 182h105q-12 -135 -89.5 -209.5t-209.5 -74.5zM565 82q124 0 204.5 62t104.5 165h132q-27 -144 -141 -240t-300 -96q-221 0 -348 153t-127 413q0 235 125.5 381.5t341.5 146.5
q174 0 290 -99t150 -272q17 -78 17 -200h-795q4 -200 99.5 -307t246.5 -107zM557 958q-144 0 -235.5 -96t-100.5 -262h670q-10 170 -101 264t-233 94z" />
    <glyph glyph-name="Edotaccent" unicode="&#x116;" horiz-adv-x="1249" 
d="M723 1575h-127v180h127v-180zM1114 1337h-774v-528h735v-121h-735v-567h799v-121h-932v1458h907v-121z" />
    <glyph glyph-name="edotaccent" unicode="&#x117;" horiz-adv-x="1103" 
d="M614 1278h-127v180h127v-180zM565 82q124 0 204.5 62t104.5 165h132q-27 -144 -141 -240t-300 -96q-221 0 -348 153t-127 413q0 235 125.5 381.5t341.5 146.5q174 0 290 -99t150 -272q17 -78 17 -200h-795q4 -200 99.5 -307t246.5 -107zM557 958q-144 0 -235.5 -96
t-100.5 -262h670q-10 170 -101 264t-233 94z" />
    <glyph glyph-name="Eogonek" unicode="&#x118;" horiz-adv-x="1249" 
d="M1063 -301q44 0 82 14v-90q-40 -16 -101 -16q-94 0 -141 40t-47 113q0 66 37.5 120.5t122.5 119.5h-809v1458h907v-121h-774v-528h735v-121h-735v-567h799v-121q-91 -69 -127.5 -120t-36.5 -105q0 -36 23 -56t65 -20z" />
    <glyph glyph-name="eogonek" unicode="&#x119;" horiz-adv-x="1103" 
d="M565 82q124 0 204.5 62t104.5 165h132q-26 -145 -158 -260q-99 -87 -136.5 -145t-37.5 -121q0 -84 88 -84q44 0 82 14v-90q-43 -16 -101 -16q-188 0 -188 153q0 113 107 220v4q-57 -11 -97 -11q-221 0 -348 153t-127 413q0 235 125.5 381.5t341.5 146.5q174 0 290 -99
t150 -272q17 -78 17 -200h-795q4 -200 99.5 -307t246.5 -107zM557 958q-144 0 -235.5 -96t-100.5 -262h670q-10 170 -101 264t-233 94z" />
    <glyph glyph-name="Ecaron" unicode="&#x11a;" horiz-adv-x="1249" 
d="M733 1556h-145l-234 277h142l166 -195l163 195h142zM1114 1337h-774v-528h735v-121h-735v-567h799v-121h-932v1458h907v-121z" />
    <glyph glyph-name="ecaron" unicode="&#x11b;" horiz-adv-x="1103" 
d="M479 1169l-233 289h141l166 -207l164 207h141l-233 -289h-146zM565 82q124 0 204.5 62t104.5 165h132q-27 -144 -141 -240t-300 -96q-221 0 -348 153t-127 413q0 235 125.5 381.5t341.5 146.5q174 0 290 -99t150 -272q17 -78 17 -200h-795q4 -200 99.5 -307t246.5 -107z
M557 958q-144 0 -235.5 -96t-100.5 -262h670q-10 170 -101 264t-233 94z" />
    <glyph glyph-name="Gcircumflex" unicode="&#x11c;" horiz-adv-x="1482" 
d="M655 1833h146l233 -277h-141l-166 195l-164 -195h-141zM737 1485q241 0 394 -124.5t172 -332.5h-140q-26 158 -137 245t-289 87q-235 0 -369.5 -170t-134.5 -465q0 -293 129.5 -460t354.5 -167q99 0 179.5 29.5t144.5 91.5t99.5 169.5t35.5 252.5h-428v121h557v-762h-125
v223h-4q-55 -114 -184.5 -181t-289.5 -67q-281 0 -445.5 200.5t-164.5 549.5q0 353 173 556.5t472 203.5z" />
    <glyph glyph-name="gcircumflex" unicode="&#x11d;" horiz-adv-x="1157" 
d="M725 1169l-164 207l-166 -207h-141l233 289h146l233 -289h-141zM537 1067q103 0 185 -46.5t134 -135.5h4v155h127v-977q0 -225 -111 -340.5t-325 -115.5q-194 0 -305.5 87t-112.5 240h129q3 -105 80 -163t209 -58q158 0 233.5 87t75.5 270v123h-4q-53 -88 -135.5 -135.5
t-183.5 -47.5q-204 0 -325.5 144.5t-121.5 384.5t121.5 384t325.5 144zM541 958q-146 0 -232 -114t-86 -305t86 -305.5t232 -114.5q152 0 238.5 112.5t86.5 307.5t-86.5 307t-238.5 112z" />
    <glyph glyph-name="Gbreve" unicode="&#x11e;" horiz-adv-x="1482" 
d="M924 1833h104q-12 -136 -90 -210.5t-209 -74.5t-209 74.5t-90 210.5h105q12 -89 62 -136.5t132 -47.5t131.5 47.5t63.5 136.5zM737 1485q241 0 394 -124.5t172 -332.5h-140q-26 158 -137 245t-289 87q-235 0 -369.5 -170t-134.5 -465q0 -293 129.5 -460t354.5 -167
q99 0 179.5 29.5t144.5 91.5t99.5 169.5t35.5 252.5h-428v121h557v-762h-125v223h-4q-55 -114 -184.5 -181t-289.5 -67q-281 0 -445.5 200.5t-164.5 549.5q0 353 173 556.5t472 203.5z" />
    <glyph glyph-name="gbreve" unicode="&#x11f;" horiz-adv-x="1157" 
d="M754 1458h104q-12 -135 -89.5 -209.5t-209.5 -74.5t-209.5 74.5t-89.5 209.5h105q12 -89 62 -135.5t132 -46.5t132 46.5t63 135.5zM537 1067q103 0 185 -46.5t134 -135.5h4v155h127v-977q0 -225 -111 -340.5t-325 -115.5q-194 0 -305.5 87t-112.5 240h129q3 -105 80 -163
t209 -58q158 0 233.5 87t75.5 270v123h-4q-53 -88 -135.5 -135.5t-183.5 -47.5q-204 0 -325.5 144.5t-121.5 384.5t121.5 384t325.5 144zM541 958q-146 0 -232 -114t-86 -305t86 -305.5t232 -114.5q152 0 238.5 112.5t86.5 307.5t-86.5 307t-238.5 112z" />
    <glyph glyph-name="Gdotaccent" unicode="&#x120;" horiz-adv-x="1482" 
d="M791 1575h-127v180h127v-180zM737 1485q241 0 394 -124.5t172 -332.5h-140q-26 158 -137 245t-289 87q-235 0 -369.5 -170t-134.5 -465q0 -293 129.5 -460t354.5 -167q99 0 179.5 29.5t144.5 91.5t99.5 169.5t35.5 252.5h-428v121h557v-762h-125v223h-4
q-55 -114 -184.5 -181t-289.5 -67q-281 0 -445.5 200.5t-164.5 549.5q0 353 173 556.5t472 203.5z" />
    <glyph glyph-name="gdotaccent" unicode="&#x121;" horiz-adv-x="1157" 
d="M623 1278h-127v180h127v-180zM537 1067q103 0 185 -46.5t134 -135.5h4v155h127v-977q0 -225 -111 -340.5t-325 -115.5q-194 0 -305.5 87t-112.5 240h129q3 -105 80 -163t209 -58q158 0 233.5 87t75.5 270v123h-4q-53 -88 -135.5 -135.5t-183.5 -47.5q-204 0 -325.5 144.5
t-121.5 384.5t121.5 384t325.5 144zM541 958q-146 0 -232 -114t-86 -305t86 -305.5t232 -114.5q152 0 238.5 112.5t86.5 307.5t-86.5 307t-238.5 112z" />
    <glyph glyph-name="Gcommaaccent" unicode="&#x122;" horiz-adv-x="1482" 
d="M737 1485q241 0 394 -124.5t172 -332.5h-140q-26 158 -137 245t-289 87q-235 0 -369.5 -170t-134.5 -465q0 -293 129.5 -460t354.5 -167q99 0 179.5 29.5t144.5 91.5t99.5 169.5t35.5 252.5h-428v121h557v-762h-125v223h-4q-55 -114 -184.5 -181t-289.5 -67
q-281 0 -445.5 200.5t-164.5 549.5q0 353 173 556.5t472 203.5zM801 -305l-101 -209h-59l72 209h-58v166h146v-166z" />
    <glyph glyph-name="gcommaaccent" unicode="&#x123;" horiz-adv-x="1157" 
d="M567 1366h58v-166h-146v166l101 209h59zM537 1067q103 0 185 -46.5t134 -135.5h4v155h127v-977q0 -225 -111 -340.5t-325 -115.5q-194 0 -305.5 87t-112.5 240h129q3 -105 80 -163t209 -58q158 0 233.5 87t75.5 270v123h-4q-53 -88 -135.5 -135.5t-183.5 -47.5
q-204 0 -325.5 144.5t-121.5 384.5t121.5 384t325.5 144zM541 958q-146 0 -232 -114t-86 -305t86 -305.5t232 -114.5q152 0 238.5 112.5t86.5 307.5t-86.5 307t-238.5 112z" />
    <glyph glyph-name="Hcircumflex" unicode="&#x124;" horiz-adv-x="1497" 
d="M676 1833h145l234 -277h-142l-165 195l-164 -195h-142zM1290 0h-133v696h-817v-696h-133v1458h133v-641h817v641h133v-1458z" />
    <glyph glyph-name="hcircumflex" unicode="&#x125;" 
d="M506 1833h145l234 -277h-142l-165 195l-164 -195h-142zM297 901h4q52 80 137.5 121t184.5 41q181 0 275.5 -108t94.5 -322v-633h-127v627q0 177 -67 251t-199 74q-128 0 -215.5 -89t-87.5 -247v-616h-127v1458h127v-557z" />
    <glyph glyph-name="Hbar" unicode="&#x126;" horiz-adv-x="1497" 
d="M1413 1180h-123v-1180h-133v696h-817v-696h-133v1180h-123v108h123v170h133v-170h817v170h133v-170h123v-108zM1157 1180h-817v-363h817v363z" />
    <glyph glyph-name="hbar" unicode="&#x127;" 
d="M623 1063q181 0 275.5 -108t94.5 -322v-633h-127v627q0 177 -67 251t-199 74q-128 0 -215.5 -89t-87.5 -247v-616h-127v1194h-141v94h141v170h127v-170h270v-94h-270v-293h4q52 80 137.5 121t184.5 41z" />
    <glyph glyph-name="Itilde" unicode="&#x128;" horiz-adv-x="546" 
d="M512 1812h98q-6 -103 -56 -159t-134 -56q-40 0 -83 17.5t-73.5 38t-67.5 38t-67 17.5q-85 0 -94 -111h-98q6 103 56 159t134 56q50 0 104.5 -27t102.5 -54t84 -27q85 0 94 108zM340 0h-133v1458h133v-1458z" />
    <glyph glyph-name="itilde" unicode="&#x129;" horiz-adv-x="466" 
d="M438 1440h90q-4 -103 -51 -159t-125 -56q-35 0 -70.5 17t-59.5 38t-54 38t-55 17q-75 0 -84 -110h-90q4 103 50.5 159t123.5 56q36 0 71.5 -17.5t59.5 -39t53.5 -39t54.5 -17.5q77 0 86 113zM297 0h-127v1040h127v-1040z" />
    <glyph glyph-name="Imacron" unicode="&#x12a;" horiz-adv-x="546" 
d="M541 1624h-539v107h539v-107zM340 0h-133v1458h133v-1458z" />
    <glyph glyph-name="imacron" unicode="&#x12b;" horiz-adv-x="466" 
d="M481 1280h-495v104h495v-104zM297 0h-127v1040h127v-1040z" />
    <glyph glyph-name="Ibreve" unicode="&#x12c;" horiz-adv-x="546" 
d="M469 1833h104q-12 -136 -90 -210.5t-209 -74.5t-209 74.5t-90 210.5h105q12 -89 62 -136.5t132 -47.5t131.5 47.5t63.5 136.5zM340 0h-133v1458h133v-1458z" />
    <glyph glyph-name="ibreve" unicode="&#x12d;" horiz-adv-x="466" 
d="M395 1458h105q-5 -134 -73.5 -209t-190.5 -75q-123 0 -191.5 74.5t-73.5 209.5h103q6 -89 48 -136.5t114 -47.5t113.5 47.5t45.5 136.5zM297 0h-127v1040h127v-1040z" />
    <glyph glyph-name="Iogonek" unicode="&#x12e;" horiz-adv-x="546" 
d="M264 -301q44 0 82 14v-90q-40 -16 -100 -16q-94 0 -141.5 40.5t-47.5 112.5q0 66 37.5 120.5t122.5 119.5h-10v1458h133v-1458q-91 -69 -127.5 -120t-36.5 -105q0 -36 23 -56t65 -20z" />
    <glyph glyph-name="iogonek" unicode="&#x12f;" horiz-adv-x="466" 
d="M297 1278h-127v180h127v-180zM221 -301q44 0 82 14v-90q-40 -16 -100 -16q-94 0 -141.5 40.5t-47.5 112.5q0 66 37.5 120.5t122.5 119.5h-4v1040h127v-1040q-91 -69 -127.5 -120t-36.5 -105q0 -36 23 -56t65 -20z" />
    <glyph glyph-name="Idotaccent" unicode="&#x130;" horiz-adv-x="546" 
d="M336 1575h-127v180h127v-180zM340 0h-133v1458h133v-1458z" />
    <glyph glyph-name="dotlessi" unicode="&#x131;" horiz-adv-x="466" 
d="M297 0h-127v1040h127v-1040z" />
    <glyph glyph-name="IJ" unicode="&#x132;" horiz-adv-x="1236" 
d="M340 0h-133v1458h133v-1458zM1042 1458v-1063q0 -200 -98 -301.5t-280 -101.5q-48 0 -86 10v123q44 -8 84 -8q122 0 183.5 68t61.5 214v1059h135z" />
    <glyph glyph-name="ij" unicode="&#x133;" horiz-adv-x="948" 
d="M297 1278h-127v180h127v-180zM778 1278h-127v180h127v-180zM297 0h-127v1040h127v-1040zM778 1040v-1116q0 -311 -272 -311q-38 0 -74 8v111q34 -6 62 -6q79 0 118 46t39 154v1114h127z" />
    <glyph glyph-name="Jcircumflex" unicode="&#x134;" horiz-adv-x="690" 
d="M356 1833h146l233 -277h-141l-166 195l-164 -195h-141zM496 1458v-1063q0 -200 -98 -301.5t-281 -101.5q-48 0 -86 10v123q44 -8 84 -8q122 0 183.5 68t61.5 214v1059h136z" />
    <glyph glyph-name="jcircumflex" unicode="&#x135;" horiz-adv-x="481" 
d="M524 1171h-137l-139 207l-137 -207h-140l201 287h152zM311 1040v-1116q0 -311 -272 -311q-38 0 -74 8v111q35 -6 62 -6q79 0 118 46t39 154v1114h127z" />
    <glyph glyph-name="Kcommaaccent" unicode="&#x136;" horiz-adv-x="1243" 
d="M489 762l744 -762h-186l-703 731h-4v-731h-133v1458h133v-665h4l643 665h180zM739 -305l-100 -209h-59l71 209h-57v166h145v-166z" />
    <glyph glyph-name="kcommaaccent" unicode="&#x137;" horiz-adv-x="980" 
d="M995 0h-176l-518 537h-4v-537h-127v1458h127v-854h4l463 436h172l-504 -467zM471 -139h145v-166l-100 -209h-59l71 209h-57v166z" />
    <glyph glyph-name="kgreenlandic" unicode="&#x138;" horiz-adv-x="1015" 
d="M995 0h-176l-518 537h-4v-537h-127v1040h127v-436h4l463 436h172l-504 -467z" />
    <glyph glyph-name="Lacute" unicode="&#x139;" horiz-adv-x="1132" 
d="M342 1556h-121l185 277h172zM340 121h772v-121h-905v1458h133v-1337z" />
    <glyph glyph-name="lacute" unicode="&#x13a;" horiz-adv-x="466" 
d="M281 1587h-121l184 289h172zM297 0h-127v1458h127v-1458z" />
    <glyph glyph-name="Lcommaaccent" unicode="&#x13b;" horiz-adv-x="1132" 
d="M340 121h772v-121h-905v1458h133v-1337zM733 -305l-100 -209h-60l72 209h-57v166h145v-166z" />
    <glyph glyph-name="lcommaaccent" unicode="&#x13c;" horiz-adv-x="466" 
d="M297 0h-127v1458h127v-1458zM307 -305l-100 -209h-60l72 209h-57v166h145v-166z" />
    <glyph glyph-name="Lcaron" unicode="&#x13d;" horiz-adv-x="1132" 
d="M340 121h772v-121h-905v1458h133v-1337zM563 1018h-84l64 440h131z" />
    <glyph glyph-name="lcaron" unicode="&#x13e;" horiz-adv-x="466" 
d="M297 0h-127v1458h127v-1458zM461 1098h-84l63 360h131z" />
    <glyph glyph-name="Ldot" unicode="&#x13f;" horiz-adv-x="1296" 
d="M340 121h772v-121h-905v1458h133v-1337zM1010 731h-176v189h176v-189z" />
    <glyph glyph-name="ldot" unicode="&#x140;" horiz-adv-x="729" 
d="M297 0h-127v1458h127v-1458zM686 635h-176v188h176v-188z" />
    <glyph glyph-name="Lslash" unicode="&#x141;" horiz-adv-x="1132" 
d="M1112 121v-121h-905v647l-172 -102v129l172 102v682h133v-616l311 186v-129l-311 -186v-592h772z" />
    <glyph glyph-name="lslash" unicode="&#x142;" horiz-adv-x="536" 
d="M516 918l-184 -109v-809h-127v743l-185 -108v121l185 108v594h127v-528l184 108v-120z" />
    <glyph glyph-name="Nacute" unicode="&#x143;" horiz-adv-x="1525" 
d="M766 1556h-121l184 277h172zM1319 0h-203l-379 647q-71 121 -202.5 348t-192.5 330h-4q0 -122 1 -364.5t1 -364.5v-596h-133v1458h203l378 -647q72 -123 204.5 -350.5t191.5 -327.5h4q-2 244 -2 729v596h133v-1458z" />
    <glyph glyph-name="nacute" unicode="&#x144;" 
d="M584 1169h-121l184 289h172zM623 1063q181 0 275.5 -108t94.5 -322v-633h-127v627q0 177 -67 251t-199 74q-128 0 -215.5 -89t-87.5 -247v-616h-127v1040h125v-141h4q48 75 133.5 119.5t190.5 44.5z" />
    <glyph glyph-name="Ncommaaccent" unicode="&#x145;" horiz-adv-x="1525" 
d="M1319 0h-203l-379 647q-71 121 -202.5 348t-192.5 330h-4q0 -122 1 -364.5t1 -364.5v-596h-133v1458h203l378 -647q72 -123 204.5 -350.5t191.5 -327.5h4q-2 244 -2 729v596h133v-1458zM838 -305l-101 -209h-59l72 209h-58v166h146v-166z" />
    <glyph glyph-name="ncommaaccent" unicode="&#x146;" 
d="M623 1063q181 0 275.5 -108t94.5 -322v-633h-127v627q0 177 -67 251t-199 74q-128 0 -215.5 -89t-87.5 -247v-616h-127v1040h125v-141h4q48 75 133.5 119.5t190.5 44.5zM655 -305l-100 -209h-59l71 209h-57v166h145v-166z" />
    <glyph glyph-name="Ncaron" unicode="&#x147;" horiz-adv-x="1525" 
d="M836 1556h-146l-233 277h141l166 -195l164 195h141zM1319 0h-203l-379 647q-71 121 -202.5 348t-192.5 330h-4q0 -122 1 -364.5t1 -364.5v-596h-133v1458h203l378 -647q72 -123 204.5 -350.5t191.5 -327.5h4q-2 244 -2 729v596h133v-1458z" />
    <glyph glyph-name="ncaron" unicode="&#x148;" 
d="M655 1169h-145l-234 289h142l166 -207l164 207h141zM623 1063q181 0 275.5 -108t94.5 -322v-633h-127v627q0 177 -67 251t-199 74q-128 0 -215.5 -89t-87.5 -247v-616h-127v1040h125v-141h4q48 75 133.5 119.5t190.5 44.5z" />
    <glyph glyph-name="napostrophe" unicode="&#x149;" horiz-adv-x="1363" 
d="M319 1274l-81 -262h-91l60 262h-60v184h172v-184zM834 1063q181 0 275.5 -108t94.5 -322v-633h-127v627q0 177 -67 251t-199 74q-128 0 -215.5 -89t-87.5 -247v-616h-127v1040h127v-141h4q47 75 132 119.5t190 44.5z" />
    <glyph glyph-name="Eng" unicode="&#x14a;" horiz-adv-x="1521" 
d="M1315 1458v-1554q0 -291 -277 -291q-40 0 -73 8v111q34 -6 61 -6q79 0 118.5 41.5t39.5 138.5v94l-436 682l-406 639h-4q0 -118 1 -354.5t1 -354.5v-612h-133v1458h199l368 -581q41 -65 184.5 -290t221.5 -349h4v708v512h131z" />
    <glyph glyph-name="eng" unicode="&#x14b;" 
d="M623 1063q168 0 270 -105q56 -59 78 -138t22 -208v-708q0 -291 -270 -291q-41 0 -74 8v111q30 -6 60 -6q79 0 118 41.5t39 140.5v696q0 111 -15 171t-52 102q-71 77 -199 77t-215.5 -90t-87.5 -248v-616h-127v1040h127v-141h4q52 82 137 123t185 41z" />
    <glyph glyph-name="Omacron" unicode="&#x14c;" horiz-adv-x="1482" 
d="M1010 1624h-539v107h539v-107zM741 1485q296 0 472 -205t176 -551t-176 -551t-472 -205t-472.5 205t-176.5 551t176.5 551t472.5 205zM741 1360q-233 0 -370.5 -171t-137.5 -460t137.5 -460t370.5 -171q232 0 370 171t138 460t-138 460t-370 171z" />
    <glyph glyph-name="omacron" unicode="&#x14d;" horiz-adv-x="1130" 
d="M834 1278h-539v106h539v-106zM565 1067q221 0 348 -146t127 -401t-127 -401t-348 -146t-348 146t-127 401t127 401t348 146zM565 956q-161 0 -251.5 -116.5t-90.5 -319.5t90.5 -319.5t251.5 -116.5t252.5 116.5t91.5 319.5t-91.5 319.5t-252.5 116.5z" />
    <glyph glyph-name="Obreve" unicode="&#x14e;" horiz-adv-x="1482" 
d="M936 1833h104q-12 -136 -90 -210.5t-209 -74.5t-209 74.5t-90 210.5h105q12 -89 62 -136.5t132 -47.5t131.5 47.5t63.5 136.5zM741 1485q296 0 472 -205t176 -551t-176 -551t-472 -205t-472.5 205t-176.5 551t176.5 551t472.5 205zM741 1360q-233 0 -370.5 -171
t-137.5 -460t137.5 -460t370.5 -171q232 0 370 171t138 460t-138 460t-370 171z" />
    <glyph glyph-name="obreve" unicode="&#x14f;" horiz-adv-x="1130" 
d="M760 1458h104q-12 -135 -89.5 -209.5t-209.5 -74.5t-209.5 74.5t-89.5 209.5h105q12 -89 62 -135.5t132 -46.5t132 46.5t63 135.5zM565 1067q221 0 348 -146t127 -401t-127 -401t-348 -146t-348 146t-127 401t127 401t348 146zM565 956q-161 0 -251.5 -116.5
t-90.5 -319.5t90.5 -319.5t251.5 -116.5t252.5 116.5t91.5 319.5t-91.5 319.5t-252.5 116.5z" />
    <glyph glyph-name="Ohungarumlaut" unicode="&#x150;" horiz-adv-x="1482" 
d="M604 1542h-115l226 291h164zM901 1542h-115l226 291h164zM741 1485q296 0 472 -205t176 -551t-176 -551t-472 -205t-472.5 205t-176.5 551t176.5 551t472.5 205zM741 1360q-233 0 -370.5 -171t-137.5 -460t137.5 -460t370.5 -171q232 0 370 171t138 460t-138 460
t-370 171z" />
    <glyph glyph-name="ohungarumlaut" unicode="&#x151;" horiz-adv-x="1130" 
d="M432 1169h-115l226 289h164zM729 1169h-115l226 289h164zM565 1067q221 0 348 -146t127 -401t-127 -401t-348 -146t-348 146t-127 401t127 401t348 146zM565 956q-161 0 -251.5 -116.5t-90.5 -319.5t90.5 -319.5t251.5 -116.5t252.5 116.5t91.5 319.5t-91.5 319.5
t-252.5 116.5z" />
    <glyph glyph-name="OE" unicode="&#x152;" horiz-adv-x="2025" 
d="M1888 1337h-772v-528h733v-121h-733v-567h797v-121h-1086q-352 0 -543.5 189.5t-191.5 539.5t191.5 539.5t543.5 189.5h1061v-121zM981 1337h-154q-286 0 -440 -157.5t-154 -450.5t154 -450.5t440 -157.5h154v1216z" />
    <glyph glyph-name="oe" unicode="&#x153;" horiz-adv-x="1806" 
d="M1286 82q118 0 193 62t96 165h131q-23 -144 -132 -240t-288 -96q-133 0 -229.5 66.5t-149.5 189.5q-51 -124 -146 -190t-226 -66q-206 0 -325.5 146.5t-119.5 400.5t119.5 400.5t325.5 146.5q128 0 223.5 -64.5t146.5 -185.5q51 118 146.5 184t226.5 66q162 0 275 -100.5
t147 -270.5q16 -88 16 -200h-755q4 -200 94 -307t231 -107zM1278 958q-137 0 -222.5 -95.5t-94.5 -262.5h628q-7 170 -91.5 264t-219.5 94zM535 84q146 0 230.5 117t84.5 319t-84.5 319t-230.5 117q-145 0 -228.5 -117t-83.5 -319t83.5 -319t228.5 -117z" />
    <glyph glyph-name="Racute" unicode="&#x154;" horiz-adv-x="1284" 
d="M639 1556h-121l184 277h172zM207 1458h428q252 0 376 -100.5t124 -288.5q0 -141 -77.5 -241t-205.5 -126v-4q81 -24 125 -80.5t92 -191.5l154 -426h-146l-139 406q-47 136 -111 186.5t-186 50.5h-301v-643h-133v1458zM340 1337v-573h303q178 0 267 83.5t87 219.5
q0 270 -364 270h-293z" />
    <glyph glyph-name="racute" unicode="&#x155;" horiz-adv-x="710" 
d="M424 1169h-121l184 289h172zM616 1049q35 0 70 -7v-120q-32 4 -65 4q-155 0 -239.5 -98t-84.5 -279v-549h-127v1040h125v-163h4q107 172 317 172z" />
    <glyph glyph-name="Rcommaaccent" unicode="&#x156;" horiz-adv-x="1284" 
d="M207 1458h428q252 0 376 -100.5t124 -288.5q0 -141 -77.5 -241t-205.5 -126v-4q81 -24 125 -80.5t92 -191.5l154 -426h-146l-139 406q-47 136 -111 186.5t-186 50.5h-301v-643h-133v1458zM340 1337v-573h303q178 0 267 83.5t87 219.5q0 270 -364 270h-293zM762 -305
l-100 -209h-60l72 209h-58v166h146v-166z" />
    <glyph glyph-name="rcommaaccent" unicode="&#x157;" horiz-adv-x="710" 
d="M616 1049q35 0 70 -7v-120q-32 4 -65 4q-155 0 -239.5 -98t-84.5 -279v-549h-127v1040h125v-163h4q107 172 317 172zM307 -305l-100 -209h-60l72 209h-57v166h145v-166z" />
    <glyph glyph-name="Rcaron" unicode="&#x158;" horiz-adv-x="1284" 
d="M709 1556h-146l-233 277h141l166 -195l164 195h141zM207 1458h428q252 0 376 -100.5t124 -288.5q0 -141 -77.5 -241t-205.5 -126v-4q81 -24 125 -80.5t92 -191.5l154 -426h-146l-139 406q-47 136 -111 186.5t-186 50.5h-301v-643h-133v1458zM340 1337v-573h303
q178 0 267 83.5t87 219.5q0 270 -364 270h-293z" />
    <glyph glyph-name="rcaron" unicode="&#x159;" horiz-adv-x="710" 
d="M496 1169h-146l-233 289h141l166 -207l164 207h141zM616 1049q35 0 70 -7v-120q-32 4 -65 4q-155 0 -239.5 -98t-84.5 -279v-549h-127v1040h125v-163h4q107 172 317 172z" />
    <glyph glyph-name="Sacute" unicode="&#x15a;" horiz-adv-x="1226" 
d="M580 1556h-121l184 277h172zM578 1485q253 0 380 -121t127 -358h-135q0 358 -372 358q-153 0 -237.5 -70t-84.5 -194q0 -52 16 -91t43 -67t76 -51.5t101 -40t133 -35.5q69 -17 115 -30t101.5 -33.5t91.5 -42t73.5 -53t58 -68.5t34 -87.5t13.5 -111.5
q0 -191 -134.5 -303.5t-363.5 -112.5q-250 0 -386 130.5t-136 381.5h133q0 -198 102.5 -293.5t286.5 -95.5q177 0 270 76t93 215q0 45 -10.5 80t-34.5 62.5t-52.5 48t-76.5 39t-94.5 32t-116.5 31.5q-68 17 -115 30.5t-100.5 34t-88.5 42t-69.5 52t-54 67t-31.5 85
t-12 107.5q0 173 122.5 280t334.5 107z" />
    <glyph glyph-name="sacute" unicode="&#x15b;" horiz-adv-x="980" 
d="M473 1169h-121l185 289h172zM471 1067q185 0 287.5 -93t103.5 -263h-127q0 118 -69.5 181.5t-194.5 63.5q-107 0 -171 -47t-64 -125q0 -37 10 -63t27.5 -43t50 -30.5t68.5 -23.5t92 -23q9 -2 14 -3q163 -38 226 -66q140 -63 164 -194q5 -29 5 -62q0 -136 -106 -219.5
t-283 -83.5q-197 0 -307 98t-113 279h129q0 -127 76.5 -196.5t214.5 -69.5q117 0 189.5 50.5t72.5 133.5q0 41 -12.5 70.5t-31.5 48.5t-63.5 36.5t-84 28.5t-117.5 29q-147 35 -202 61q-126 58 -143 186q-3 22 -3 46q0 131 100.5 212t261.5 81z" />
    <glyph glyph-name="Scircumflex" unicode="&#x15c;" horiz-adv-x="1226" 
d="M506 1833h145l234 -277h-142l-165 195l-164 -195h-142zM578 1485q253 0 380 -121t127 -358h-135q0 358 -372 358q-153 0 -237.5 -70t-84.5 -194q0 -52 16 -91t43 -67t76 -51.5t101 -40t133 -35.5q69 -17 115 -30t101.5 -33.5t91.5 -42t73.5 -53t58 -68.5t34 -87.5
t13.5 -111.5q0 -191 -134.5 -303.5t-363.5 -112.5q-250 0 -386 130.5t-136 381.5h133q0 -198 102.5 -293.5t286.5 -95.5q177 0 270 76t93 215q0 45 -10.5 80t-34.5 62.5t-52.5 48t-76.5 39t-94.5 32t-116.5 31.5q-68 17 -115 30.5t-100.5 34t-88.5 42t-69.5 52t-54 67
t-31.5 85t-12 107.5q0 173 122.5 280t334.5 107z" />
    <glyph glyph-name="scircumflex" unicode="&#x15d;" horiz-adv-x="980" 
d="M635 1169l-164 207l-166 -207h-141l233 289h146l233 -289h-141zM471 1067q185 0 287.5 -93t103.5 -263h-127q0 118 -69.5 181.5t-194.5 63.5q-107 0 -171 -47t-64 -125q0 -37 10 -63t27.5 -43t50 -30.5t68.5 -23.5t92 -23q9 -2 14 -3q163 -38 226 -66q140 -63 164 -194
q5 -29 5 -62q0 -136 -106 -219.5t-283 -83.5q-197 0 -307 98t-113 279h129q0 -127 76.5 -196.5t214.5 -69.5q117 0 189.5 50.5t72.5 133.5q0 41 -12.5 70.5t-31.5 48.5t-63.5 36.5t-84 28.5t-117.5 29q-147 35 -202 61q-126 58 -143 186q-3 22 -3 46q0 131 100.5 212
t261.5 81z" />
    <glyph glyph-name="Scedilla" unicode="&#x15e;" horiz-adv-x="1226" 
d="M1112 389q0 -175 -114 -285t-312 -127l-70 -106q20 4 48 4q68 0 113.5 -40t45.5 -107q0 -74 -56 -124t-159 -50q-110 0 -205 55l31 65q75 -41 160 -41q58 0 90.5 24t32.5 67q0 41 -30.5 64.5t-84.5 23.5q-30 0 -63 -11l-33 37l90 135q-241 5 -372.5 135.5t-131.5 376.5
h133q0 -198 102.5 -293.5t286.5 -95.5q177 0 270 76t93 215q0 45 -10.5 80t-34.5 62.5t-52.5 48t-76.5 39t-94.5 32t-116.5 31.5q-68 17 -115 30.5t-100.5 34t-88.5 42t-69.5 52t-54 67t-31.5 85t-12 107.5q0 173 122.5 280t334.5 107q253 0 380 -121t127 -358h-135
q0 358 -372 358q-153 0 -237.5 -70t-84.5 -194q0 -52 16 -91t43 -67t76 -51.5t101 -40t133 -35.5q69 -17 115 -30t101.5 -33.5t91.5 -42t73.5 -53t58 -68.5t34 -87.5t13.5 -111.5z" />
    <glyph glyph-name="scedilla" unicode="&#x15f;" horiz-adv-x="980" 
d="M893 276q0 -122 -84.5 -202t-230.5 -97l-72 -106q20 4 47 4q68 0 114 -40t46 -107q0 -74 -56 -124t-159 -50q-110 0 -205 55l31 65q75 -41 159 -41q58 0 90.5 24t32.5 67q0 41 -30 64.5t-84 23.5q-31 0 -64 -11l-33 37l90 135q-188 5 -293 103t-108 274h129
q0 -127 76.5 -196.5t214.5 -69.5q117 0 189.5 50.5t72.5 133.5q0 41 -12.5 70.5t-31.5 48.5t-63.5 36.5t-84 28.5t-117.5 29q-147 35 -202 61q-126 58 -143 186q-3 22 -3 46q0 131 100.5 212t261.5 81q185 0 287.5 -93t103.5 -263h-127q0 118 -69.5 181.5t-194.5 63.5
q-107 0 -171 -47t-64 -125q0 -37 10 -63t27.5 -43t50 -30.5t68.5 -23.5t92 -23q9 -2 14 -3q163 -38 226 -66q140 -63 164 -194q5 -29 5 -62z" />
    <glyph glyph-name="Scaron" unicode="&#x160;" horiz-adv-x="1226" 
d="M651 1556h-145l-234 277h142l166 -195l163 195h142zM578 1485q253 0 380 -121t127 -358h-135q0 358 -372 358q-153 0 -237.5 -70t-84.5 -194q0 -52 16 -91t43 -67t76 -51.5t101 -40t133 -35.5q69 -17 115 -30t101.5 -33.5t91.5 -42t73.5 -53t58 -68.5t34 -87.5
t13.5 -111.5q0 -191 -134.5 -303.5t-363.5 -112.5q-250 0 -386 130.5t-136 381.5h133q0 -198 102.5 -293.5t286.5 -95.5q177 0 270 76t93 215q0 45 -10.5 80t-34.5 62.5t-52.5 48t-76.5 39t-94.5 32t-116.5 31.5q-68 17 -115 30.5t-100.5 34t-88.5 42t-69.5 52t-54 67
t-31.5 85t-12 107.5q0 173 122.5 280t334.5 107z" />
    <glyph glyph-name="scaron" unicode="&#x161;" horiz-adv-x="980" 
d="M543 1169h-146l-233 289h141l166 -207l164 207h141zM471 1067q185 0 287.5 -93t103.5 -263h-127q0 118 -69.5 181.5t-194.5 63.5q-107 0 -171 -47t-64 -125q0 -37 10 -63t27.5 -43t50 -30.5t68.5 -23.5t92 -23q9 -2 14 -3q163 -38 226 -66q140 -63 164 -194q5 -29 5 -62
q0 -136 -106 -219.5t-283 -83.5q-197 0 -307 98t-113 279h129q0 -127 76.5 -196.5t214.5 -69.5q117 0 189.5 50.5t72.5 133.5q0 41 -12.5 70.5t-31.5 48.5t-63.5 36.5t-84 28.5t-117.5 29q-147 35 -202 61q-126 58 -143 186q-3 22 -3 46q0 131 100.5 212t261.5 81z" />
    <glyph glyph-name="Tcedilla" unicode="&#x162;" horiz-adv-x="1212" 
d="M1192 1337h-520v-1337h-133v1337h-519v121h1172v-121zM680 -305l-100 -209h-60l72 209h-57v166h145v-166z" />
    <glyph glyph-name="tcedilla" unicode="&#x163;" horiz-adv-x="618" 
d="M487 104q36 0 72 9v-109q-45 -10 -94 -10q-134 0 -194 65t-60 215v660h-186v106h186v242h127v-242h211v-106h-211v-658q0 -93 34 -132.5t115 -39.5zM274 -139h146v-166l-101 -209h-59l72 209h-58v166z" />
    <glyph glyph-name="Tcaron" unicode="&#x164;" horiz-adv-x="1212" 
d="M678 1556h-146l-233 277h141l166 -195l164 195h141zM1192 1337h-520v-1337h-133v1337h-519v121h1172v-121z" />
    <glyph glyph-name="tcaron" unicode="&#x165;" horiz-adv-x="618" 
d="M500 1098h-84l63 360h131zM338 934v-658q0 -93 34 -132.5t115 -39.5q36 0 72 9v-109q-45 -10 -94 -10q-134 0 -194 65t-60 215v660h-186v106h186v242h127v-242h211v-106h-211z" />
    <glyph glyph-name="Tbar" unicode="&#x166;" horiz-adv-x="1212" 
d="M672 1337v-491h297v-111h-297v-735h-133v735h-295v111h295v491h-519v121h1172v-121h-520z" />
    <glyph glyph-name="tbar" unicode="&#x167;" horiz-adv-x="610" 
d="M487 104q36 0 72 9v-109q-45 -10 -94 -10q-134 0 -194 65t-60 215v240h-180v98h180v322h-186v106h186v242h127v-242h211v-106h-211v-322h205v-98h-205v-238q0 -93 34 -132.5t115 -39.5z" />
    <glyph glyph-name="Utilde" unicode="&#x168;" horiz-adv-x="1431" 
d="M954 1812h99q-6 -103 -56.5 -159t-134.5 -56q-40 0 -83 17.5t-73.5 38t-67.5 38t-67 17.5q-85 0 -94 -111h-98q6 103 56 159t134 56q50 0 104.5 -27t102.5 -54t84 -27q85 0 94 108zM1237 1458v-917q0 -278 -133 -423t-387 -145t-388 145t-134 423v917h133v-915
q0 -221 102 -333t287 -112t286 111.5t101 333.5v915h133z" />
    <glyph glyph-name="utilde" unicode="&#x169;" 
d="M817 1440h98q-6 -103 -56 -159t-134 -56q-50 0 -104 27t-102 54t-85 27q-85 0 -94 -108h-98q6 103 56 159t134 56q40 0 83 -17.5t74 -38t68 -38t66 -17.5q85 0 94 111zM530 -23q-180 0 -275 109t-95 322v632h127v-626q0 -177 67.5 -251.5t198.5 -74.5q128 0 215.5 89
t87.5 247v616h127v-1040h-125v141h-4q-47 -75 -133 -119.5t-191 -44.5z" />
    <glyph glyph-name="Umacron" unicode="&#x16a;" horiz-adv-x="1431" 
d="M985 1624h-539v107h539v-107zM1237 1458v-917q0 -278 -133 -423t-387 -145t-388 145t-134 423v917h133v-915q0 -221 102 -333t287 -112t286 111.5t101 333.5v915h133z" />
    <glyph glyph-name="umacron" unicode="&#x16b;" 
d="M846 1278h-539v106h539v-106zM530 -23q-180 0 -275 109t-95 322v632h127v-626q0 -177 67.5 -251.5t198.5 -74.5q128 0 215.5 89t87.5 247v616h127v-1040h-125v141h-4q-47 -75 -133 -119.5t-191 -44.5z" />
    <glyph glyph-name="Ubreve" unicode="&#x16c;" horiz-adv-x="1431" 
d="M911 1833h105q-12 -136 -90 -210.5t-209 -74.5t-209 74.5t-90 210.5h104q12 -89 62.5 -136.5t132.5 -47.5q81 0 130.5 47t63.5 137zM1237 1458v-917q0 -278 -133 -423t-387 -145t-388 145t-134 423v917h133v-915q0 -221 102 -333t287 -112t286 111.5t101 333.5v915h133z
" />
    <glyph glyph-name="ubreve" unicode="&#x16d;" 
d="M772 1458h105q-12 -135 -89.5 -209.5t-209.5 -74.5t-209.5 74.5t-89.5 209.5h104q12 -89 62.5 -135.5t132.5 -46.5q166 0 194 182zM530 -23q-180 0 -275 109t-95 322v632h127v-626q0 -177 67.5 -251.5t198.5 -74.5q128 0 215.5 89t87.5 247v616h127v-1040h-125v141h-4
q-47 -75 -133 -119.5t-191 -44.5z" />
    <glyph glyph-name="Uring" unicode="&#x16e;" horiz-adv-x="1431" 
d="M717 1937q82 0 139 -57t57 -139q0 -83 -57 -141t-139 -58q-83 0 -141 58t-58 141q0 82 58 139t141 57zM717 1862q-51 0 -87 -35.5t-36 -85.5q0 -52 36 -87.5t87 -35.5t86 35.5t35 87.5q0 50 -35 85.5t-86 35.5zM1237 1458v-917q0 -278 -133 -423t-387 -145t-388 145
t-134 423v917h133v-915q0 -221 102 -333t287 -112t286 111.5t101 333.5v915h133z" />
    <glyph glyph-name="uring" unicode="&#x16f;" 
d="M578 1565q81 0 138.5 -58.5t57.5 -140.5q0 -83 -57 -141t-139 -58q-83 0 -141 58t-58 141q0 82 58 140.5t141 58.5zM578 1487q-51 0 -87 -35t-36 -86q0 -52 36 -87.5t87 -35.5t85.5 35.5t34.5 87.5q0 51 -34.5 86t-85.5 35zM530 -23q-180 0 -275 109t-95 322v632h127
v-626q0 -177 67.5 -251.5t198.5 -74.5q128 0 215.5 89t87.5 247v616h127v-1040h-125v141h-4q-47 -75 -133 -119.5t-191 -44.5z" />
    <glyph glyph-name="Uhungarumlaut" unicode="&#x170;" horiz-adv-x="1431" 
d="M580 1542h-115l225 291h164zM877 1542h-115l225 291h164zM1237 1458v-917q0 -278 -133 -423t-387 -145t-388 145t-134 423v917h133v-915q0 -221 102 -333t287 -112t286 111.5t101 333.5v915h133z" />
    <glyph glyph-name="uhungarumlaut" unicode="&#x171;" 
d="M444 1169h-114l225 289h164zM741 1169h-114l225 289h164zM530 -23q-180 0 -275 109t-95 322v632h127v-626q0 -177 67.5 -251.5t198.5 -74.5q128 0 215.5 89t87.5 247v616h127v-1040h-125v141h-4q-47 -75 -133 -119.5t-191 -44.5z" />
    <glyph glyph-name="Uogonek" unicode="&#x172;" horiz-adv-x="1431" 
d="M1237 1458v-917q0 -185 -57.5 -308.5t-175.5 -216.5q-92 -72 -128 -122.5t-36 -104.5q0 -44 23.5 -67t66.5 -23q45 0 80 14v-90q-40 -16 -99 -16q-96 0 -143 43.5t-47 122.5q0 60 30.5 108.5t100.5 108.5v4q-72 -21 -135 -21q-254 0 -388 145t-134 423v917h133v-915
q0 -221 102 -333t287 -112t286 111.5t101 333.5v915h133z" />
    <glyph glyph-name="uogonek" unicode="&#x173;" 
d="M907 -301q44 0 82 14v-90q-40 -16 -100 -16q-94 0 -141.5 40.5t-47.5 112.5q0 66 37.5 120.5t122.5 119.5h-2v141h-4q-47 -75 -133 -119.5t-191 -44.5q-180 0 -275 109t-95 322v632h127v-626q0 -177 67.5 -251.5t198.5 -74.5q128 0 215.5 89t87.5 247v616h127v-1040
q-91 -69 -127.5 -120t-36.5 -105q0 -36 23 -56t65 -20z" />
    <glyph glyph-name="Wcircumflex" unicode="&#x174;" horiz-adv-x="1835" 
d="M846 1833h145l234 -277h-142l-165 195l-164 -195h-142zM1456 0h-209l-164 666q-110 446 -163 669h-5q-53 -223 -163 -669l-164 -666h-209l-356 1458h135l151 -620q96 -385 174 -713h4q30 119 89 358.5t88 358.5l151 616h205l151 -616q29 -119 88 -358.5t89 -358.5h4
l172 713l153 620h135z" />
    <glyph glyph-name="wcircumflex" unicode="&#x175;" horiz-adv-x="1536" 
d="M932 1169l-164 207l-166 -207h-141l233 289h146l233 -289h-141zM1219 0h-183l-135 471q-89 305 -131 455h-4q-42 -150 -131 -455l-135 -471h-183l-301 1040h131l127 -450q69 -240 134 -475h4l129 460l131 465h192l131 -465l129 -460h4q65 235 134 475l127 450h131z" />
    <glyph glyph-name="Ycircumflex" unicode="&#x176;" horiz-adv-x="1232" 
d="M545 1833h145l234 -277h-142l-166 195l-163 -195h-142zM684 623v-623h-135v623l-539 835h158l201 -315q17 -26 245 -391h4q164 262 248 391l199 315h158z" />
    <glyph glyph-name="ycircumflex" unicode="&#x177;" horiz-adv-x="933" 
d="M633 1169l-164 207l-166 -207h-141l233 289h146l233 -289h-141zM944 1040l-430 -1089q-55 -137 -109 -209t-120.5 -100.5t-171.5 -28.5q-45 0 -76 8v113q31 -8 74 -8q114 0 168.5 52.5t119.5 221.5l-409 1040h137l338 -878h4l338 878h137z" />
    <glyph glyph-name="Ydieresis" unicode="&#x178;" horiz-adv-x="1232" 
d="M489 1593h-124v181h124v-181zM866 1593h-125v181h125v-181zM684 623v-623h-135v623l-539 835h158l201 -315q17 -26 245 -391h4q164 262 248 391l199 315h158z" />
    <glyph glyph-name="Zacute" unicode="&#x179;" horiz-adv-x="1142" 
d="M561 1556h-121l185 277h172zM1067 1319l-879 -1194v-4h918v-121h-1071v139l878 1194v4h-860v121h1014v-139z" />
    <glyph glyph-name="zacute" unicode="&#x17a;" horiz-adv-x="944" 
d="M455 1169h-121l184 289h172zM872 922l-663 -807v-4h684v-111h-842v119l664 807v4h-643v110h800v-118z" />
    <glyph glyph-name="Zdotaccent" unicode="&#x17b;" horiz-adv-x="1142" 
d="M623 1575h-127v180h127v-180zM1067 1319l-879 -1194v-4h918v-121h-1071v139l878 1194v4h-860v121h1014v-139z" />
    <glyph glyph-name="zdotaccent" unicode="&#x17c;" horiz-adv-x="944" 
d="M514 1278h-127v180h127v-180zM872 922l-663 -807v-4h684v-111h-842v119l664 807v4h-643v110h800v-118z" />
    <glyph glyph-name="Zcaron" unicode="&#x17d;" horiz-adv-x="1142" 
d="M633 1556h-146l-233 277h141l166 -195l164 195h141zM1067 1319l-879 -1194v-4h918v-121h-1071v139l878 1194v4h-860v121h1014v-139z" />
    <glyph glyph-name="zcaron" unicode="&#x17e;" horiz-adv-x="944" 
d="M524 1169h-145l-234 289h142l166 -207l163 207h142zM872 922l-663 -807v-4h684v-111h-842v119l664 807v4h-643v110h800v-118z" />
    <glyph glyph-name="longs" unicode="&#x17f;" horiz-adv-x="587" 
d="M473 1466q40 0 86 -8v-108q-28 8 -65 8q-77 0 -113.5 -43t-36.5 -141v-1174h-127v934h-186v106h186v146q0 280 256 280z" />
    <glyph glyph-name="Schwa" unicode="&#x18f;" horiz-adv-x="1492" 
d="M719 1485q316 0 499 -205t183 -551q0 -223 -79.5 -393.5t-231 -266.5t-355.5 -96q-296 0 -469.5 203.5t-173.5 552.5q0 21 4 49h1164q-7 277 -155.5 429.5t-385.5 152.5q-181 0 -298 -92t-149 -244h-147q17 97 63.5 179.5t120 146t179 99.5t231.5 36zM735 98
q230 0 370.5 151t151.5 408h-1024q12 -264 149 -411.5t353 -147.5z" />
    <glyph glyph-name="florin" unicode="&#x192;" horiz-adv-x="1114" 
d="M979 1468q45 0 90 -10v-117q-46 11 -82 11q-93 0 -144.5 -51.5t-80.5 -174.5l-43 -168h225v-102h-250l-223 -883q-52 -201 -126.5 -280.5t-217.5 -79.5q-47 0 -80 10v117q33 -10 72 -10q59 0 97 20.5t70.5 77.5t59.5 162l217 866h-207v102h232l47 185q44 180 121 252.5
t223 72.5z" />
    <glyph glyph-name="Aringacute" unicode="&#x1fa;" horiz-adv-x="1359" 
d="M684 1939h-123l184 277h173zM680 1501q-82 0 -140.5 58t-58.5 141q0 81 58.5 138.5t140.5 57.5q83 0 141 -57t58 -139q0 -83 -58 -141t-141 -58zM680 1821q-51 0 -87 -35t-36 -86q0 -52 36 -87.5t87 -35.5q52 0 87.5 35.5t35.5 87.5q0 51 -35.5 86t-87.5 35zM1022 471
h-684l-182 -471h-144l578 1458h182l576 -1458h-144zM973 594l-58 151q-149 384 -233 605h-4q-162 -424 -234 -605l-59 -151h588z" />
    <glyph glyph-name="aringacute" unicode="&#x1fb;" horiz-adv-x="1073" 
d="M512 1573h-121l184 289h173zM510 1518q82 0 140.5 -57.5t58.5 -139.5q0 -83 -58.5 -141t-140.5 -58q-83 0 -141 58t-58 141q0 82 58 139.5t141 57.5zM510 1442q-51 0 -87 -35.5t-36 -85.5q0 -52 36 -87.5t87 -35.5q52 0 86.5 35t34.5 88q0 50 -34.5 85.5t-86.5 35.5z
M524 1067q181 0 285 -100t104 -299v-412q0 -143 23 -256h-119q-14 69 -14 158h-4q-107 -178 -371 -178q-158 0 -255 83.5t-97 215.5t89 208.5t306 110.5q159 27 320 37v49q0 140 -71.5 207t-195.5 67q-128 0 -197 -63t-75 -168h-133q9 151 115.5 245.5t289.5 94.5zM791 449
v79q-136 -9 -304 -36q-154 -23 -215 -70t-61 -135q0 -92 65 -146.5t179 -54.5q150 0 239 92q55 58 76 114t21 157z" />
    <glyph glyph-name="AEacute" unicode="&#x1fc;" horiz-adv-x="1892" 
d="M1030 1556h-121l185 277h172zM1780 121v-121h-736l-75 506h-576l-254 -506h-151l731 1458h1036v-121h-778l80 -528h659v-121h-641l86 -567h619zM950 627l-106 710h-35l-356 -710h497z" />
    <glyph glyph-name="aeacute" unicode="&#x1fd;" horiz-adv-x="1748" 
d="M872 1169h-120l184 289h172zM1229 82q117 0 191.5 62t97.5 165h131q-23 -144 -132 -240t-288 -96q-130 0 -227 64.5t-152 183.5q-53 -118 -162 -183t-256 -65q-160 0 -258 86t-98 222q0 319 459 319h256v84q0 136 -70.5 205t-196.5 69q-124 0 -195 -63.5t-77 -167.5h-133
q9 150 117 245t288 95q262 0 342 -201q55 96 145.5 148.5t209.5 52.5q162 0 274.5 -100.5t146.5 -270.5q15 -83 15 -202h-754q6 -200 95.5 -306t230.5 -106zM1221 958q-137 0 -223 -96t-95 -262h629q-9 170 -93.5 264t-217.5 94zM791 494h-240q-184 0 -262 -52t-78 -157
q0 -93 65 -149t179 -56q154 0 239 94q55 57 76 114t21 161v45z" />
    <glyph glyph-name="Oslashacute" unicode="&#x1fe;" horiz-adv-x="1482" 
d="M743 1556h-120l184 277h172zM1356 1446l-133 -176q166 -205 166 -541q0 -346 -176 -551t-472 -205q-235 0 -399 133l-123 -163l-92 71l133 174q-168 202 -168 541q0 346 176.5 551t472.5 205q237 0 398 -133l125 164zM231 729q0 -261 115 -426l713 942q-131 115 -318 115
q-233 0 -371.5 -171t-138.5 -460zM741 98q233 0 370.5 171t137.5 460q0 266 -112 426l-713 -942q131 -115 317 -115z" />
    <glyph glyph-name="oslashacute" unicode="&#x1ff;" horiz-adv-x="1132" 
d="M569 1169h-120l184 289h172zM1036 1055l-112 -146q118 -142 118 -389q0 -255 -127.5 -401t-349.5 -146q-165 0 -284 86l-105 -135l-80 64l111 143q-117 145 -117 389q0 255 127 401t348 146q167 0 287 -88l104 139zM565 956q-160 0 -252 -117t-92 -319q0 -169 66 -280
l491 643q-85 73 -213 73zM565 84q161 0 253.5 116.5t92.5 319.5q0 176 -67 283l-490 -645q87 -74 211 -74z" />
    <glyph glyph-name="Scommaaccent" unicode="&#x218;" horiz-adv-x="1226" 
d="M578 1485q253 0 380 -121t127 -358h-135q0 358 -372 358q-153 0 -237.5 -70t-84.5 -194q0 -52 16 -91t43 -67t76 -51.5t101 -40t133 -35.5q69 -17 115 -30t101.5 -33.5t91.5 -42t73.5 -53t58 -68.5t34 -87.5t13.5 -111.5q0 -191 -134.5 -303.5t-363.5 -112.5
q-250 0 -386 130.5t-136 381.5h133q0 -198 102.5 -293.5t286.5 -95.5q177 0 270 76t93 215q0 45 -10.5 80t-34.5 62.5t-52.5 48t-76.5 39t-94.5 32t-116.5 31.5q-68 17 -115 30.5t-100.5 34t-88.5 42t-69.5 52t-54 67t-31.5 85t-12 107.5q0 173 122.5 280t334.5 107z
M686 -305l-100 -209h-60l72 209h-57v166h145v-166z" />
    <glyph glyph-name="scommaaccent" unicode="&#x219;" horiz-adv-x="980" 
d="M471 1067q185 0 287.5 -93t103.5 -263h-127q0 118 -69.5 181.5t-194.5 63.5q-107 0 -171 -47t-64 -125q0 -37 10 -63t27.5 -43t50 -30.5t68.5 -23.5t92 -23q9 -2 14 -3q163 -38 226 -66q140 -63 164 -194q5 -29 5 -62q0 -136 -106 -219.5t-283 -83.5q-197 0 -307 98
t-113 279h129q0 -127 76.5 -196.5t214.5 -69.5q117 0 189.5 50.5t72.5 133.5q0 41 -12.5 70.5t-31.5 48.5t-63.5 36.5t-84 28.5t-117.5 29q-147 35 -202 61q-126 58 -143 186q-3 22 -3 46q0 131 100.5 212t261.5 81zM578 -305l-101 -209h-59l71 209h-57v166h146v-166z" />
    <glyph glyph-name="Tcommaaccent" unicode="&#x21a;" horiz-adv-x="1212" 
d="M1192 1337h-520v-1337h-133v1337h-519v121h1172v-121zM680 -305l-100 -209h-60l72 209h-57v166h145v-166z" />
    <glyph glyph-name="tcommaaccent" unicode="&#x21b;" horiz-adv-x="618" 
d="M487 104q36 0 72 9v-109q-45 -10 -94 -10q-134 0 -194 65t-60 215v660h-186v106h186v242h127v-242h211v-106h-211v-658q0 -93 34 -132.5t115 -39.5zM274 -139h146v-166l-101 -209h-59l72 209h-58v166z" />
    <glyph glyph-name="dotlessj" unicode="&#x237;" horiz-adv-x="481" 
d="M311 1040v-1116q0 -311 -272 -311q-38 0 -74 8v111q35 -6 62 -6q79 0 118 46t39 154v1114h127z" />
    <glyph glyph-name="schwa" unicode="&#x259;" horiz-adv-x="1103" 
d="M530 1067q226 0 355 -148t129 -399q0 -160 -55.5 -283t-163 -193.5t-252.5 -70.5q-209 0 -331 147.5t-122 399.5q0 29 2 41h793q-6 193 -103.5 295t-251.5 102q-117 0 -191 -62t-95 -165h-131q25 144 132.5 240t284.5 96zM543 82q147 0 239 100.5t101 274.5h-670
q10 -179 99 -277t231 -98z" />
    <glyph glyph-name="apostrophemod" unicode="&#x2bc;" horiz-adv-x="468" 
d="M319 1274l-81 -262h-91l60 262h-60v184h172v-184z" />
    <glyph glyph-name="circumflex" unicode="&#x2c6;" horiz-adv-x="817" 
d="M573 1169l-163 207l-166 -207h-142l234 289h145l234 -289h-142z" />
    <glyph glyph-name="caron" unicode="&#x2c7;" horiz-adv-x="817" 
d="M481 1169h-145l-234 289h142l166 -207l163 207h142z" />
    <glyph glyph-name="firsttonechinese" unicode="&#x2c9;" horiz-adv-x="743" 
d="M641 1278h-539v106h539v-106z" />
    <glyph glyph-name="breve" unicode="&#x2d8;" horiz-adv-x="802" 
d="M596 1458h104q-12 -135 -89.5 -209.5t-209.5 -74.5t-209.5 74.5t-89.5 209.5h105q12 -89 62 -135.5t132 -46.5t132 46.5t63 135.5z" />
    <glyph glyph-name="dotaccent" unicode="&#x2d9;" horiz-adv-x="331" 
d="M229 1278h-127v180h127v-180z" />
    <glyph glyph-name="ring" unicode="&#x2da;" horiz-adv-x="600" 
d="M301 1565q82 0 139.5 -58.5t57.5 -140.5q0 -83 -57.5 -141t-139.5 -58q-83 0 -141 58t-58 141q0 82 58 140.5t141 58.5zM301 1487q-51 0 -87 -35t-36 -86q0 -52 36 -87.5t87 -35.5t86 35.5t35 87.5q0 51 -35 86t-86 35z" />
    <glyph glyph-name="ogonek" unicode="&#x2db;" horiz-adv-x="493" 
d="M270 6l115 -6q-91 -69 -127.5 -120t-36.5 -105q0 -36 23 -56t65 -20q44 0 82 14v-90q-40 -16 -100 -16q-94 0 -141.5 40.5t-47.5 112.5q0 67 39.5 123t128.5 123z" />
    <glyph glyph-name="tilde" unicode="&#x2dc;" horiz-adv-x="878" 
d="M678 1440h98q-6 -103 -56 -159t-134 -56q-50 0 -104 27t-102 54t-85 27q-85 0 -94 -108h-99q6 103 56.5 159t134.5 56q40 0 83 -17.5t74 -38t68 -38t66 -17.5q85 0 94 111z" />
    <glyph glyph-name="hungarumlaut" unicode="&#x2dd;" horiz-adv-x="890" 
d="M217 1169h-115l226 289h164zM514 1169h-115l226 289h163z" />
    <glyph glyph-name="commaturnedabovecomb" unicode="&#x312;" horiz-adv-x="0" 
d="M190 1366h58v-166h-146v166l101 209h59z" />
    <glyph glyph-name="commaaccent" unicode="&#x326;" horiz-adv-x="0" 
d="M262 -305l-100 -209h-60l72 209h-57v166h145v-166z" />
    <glyph glyph-name="dbllowlinecomb" unicode="&#x333;" horiz-adv-x="0" 
d="M0 -180h-1024v78h1024v-78zM0 -430h-1024v78h1024v-78z" />
    <glyph glyph-name="numeralgreek" unicode="&#x374;" horiz-adv-x="331" 
d="M147 1040h-86l78 418h131z" />
    <glyph glyph-name="lowernumeralgreek" unicode="&#x375;" horiz-adv-x="331" 
d="M147 -188h-86l78 417h131z" />
    <glyph glyph-name="questiongreek" unicode="&#x37e;" horiz-adv-x="430" 
d="M303 852h-176v188h176v-188zM303 0l-84 -266h-92l61 266h-61v188h176v-188z" />
    <glyph glyph-name="tonos" unicode="&#x384;" horiz-adv-x="419" 
d="M203 1178h-105l92 321h132z" />
    <glyph glyph-name="dieresistonos" unicode="&#x385;" horiz-adv-x="854" 
d="M434 1178h-100l80 288h118zM225 1206h-123v189h123v-189zM752 1206h-123v189h123v-189z" />
    <glyph glyph-name="Alphatonos" unicode="&#x386;" horiz-adv-x="1359" 
d="M1022 471h-684l-182 -471h-144l578 1458h182l576 -1458h-144zM240 1055h-105l92 403h131zM973 594l-58 151q-149 384 -233 605h-4q-162 -424 -234 -605l-59 -151h588z" />
    <glyph glyph-name="anoteleia" unicode="&#x387;" horiz-adv-x="430" 
d="M303 852h-176v188h176v-188z" />
    <glyph glyph-name="Epsilontonos" unicode="&#x388;" horiz-adv-x="1249" 
d="M-53 1055h-105l92 403h132zM1114 1337h-774v-528h735v-121h-735v-567h799v-121h-932v1458h907v-121z" />
    <glyph glyph-name="Etatonos" unicode="&#x389;" horiz-adv-x="1497" 
d="M-53 1055h-105l92 403h132zM1290 0h-133v696h-817v-696h-133v1458h133v-641h817v641h133v-1458z" />
    <glyph glyph-name="Iotatonos" unicode="&#x38a;" horiz-adv-x="546" 
d="M-53 1055h-105l92 403h132zM340 0h-133v1458h133v-1458z" />
    <glyph glyph-name="Omicrontonos" unicode="&#x38c;" horiz-adv-x="1482" 
d="M741 1485q296 0 472 -205t176 -551t-176 -551t-472 -205t-472.5 205t-176.5 551t176.5 551t472.5 205zM10 1055h-104l92 403h131zM741 1360q-233 0 -370.5 -171t-137.5 -460t137.5 -460t370.5 -171q232 0 370 171t138 460t-138 460t-370 171z" />
    <glyph glyph-name="Upsilontonos" unicode="&#x38e;" horiz-adv-x="1232" 
d="M-174 1055h-105l93 403h131zM684 623v-623h-135v623l-539 835h158l201 -315q17 -26 245 -391h4q164 262 248 391l199 315h158z" />
    <glyph glyph-name="Omegatonos" unicode="&#x38f;" horiz-adv-x="1486" 
d="M743 1485q142 0 257.5 -40t200.5 -118.5t132 -203t47 -285.5q0 -107 -25.5 -206t-75.5 -187.5t-108 -163t-137 -156.5v-4h369v-121h-518v125q83 86 141 157.5t110.5 159.5t78.5 184.5t26 202.5q0 260 -135.5 395.5t-362.5 135.5q-225 0 -360 -135.5t-135 -395.5
q0 -106 26 -202.5t78 -184.5t109.5 -160t140.5 -157v-125h-518v121h369v4q-80 82 -138 156.5t-108 163t-75.5 187.5t-25.5 206q0 161 47 285.5t132.5 203t201 118.5t256.5 40zM4 1055h-104l92 403h131z" />
    <glyph glyph-name="iotadieresistonos" unicode="&#x390;" horiz-adv-x="530" 
d="M233 1178h-100l80 288h119zM25 1206h-123v189h123v-189zM551 1206h-123v189h123v-189zM287 1040v-743q0 -104 34 -149.5t115 -45.5q37 0 74 11v-109q-54 -12 -96 -12q-134 0 -194 70.5t-60 230.5v747h127z" />
    <glyph glyph-name="Alpha" unicode="&#x391;" horiz-adv-x="1359" 
d="M1022 471h-684l-182 -471h-144l578 1458h182l576 -1458h-144zM973 594l-58 151q-149 384 -233 605h-4q-162 -424 -234 -605l-59 -151h588z" />
    <glyph glyph-name="Beta" unicode="&#x392;" horiz-adv-x="1259" 
d="M207 1458h452q232 0 351.5 -99t119.5 -269q0 -122 -61 -210.5t-176 -129.5v-5q123 -31 195.5 -123t72.5 -221q0 -185 -124 -293t-345 -108h-485v1458zM340 1341v-538h301q184 0 269 71t85 197q0 270 -348 270h-307zM340 686v-569h336q171 0 258.5 73t87.5 213
q0 135 -92.5 209t-288.5 74h-301z" />
    <glyph glyph-name="Gamma" unicode="&#x393;" horiz-adv-x="978" 
d="M207 0v1458h751v-121h-618v-1337h-133z" />
    <glyph glyph-name="Delta" unicode="&#x394;" horiz-adv-x="1359" 
d="M1348 0h-1336l578 1458h182zM1157 121l-242 624q-149 384 -233 605h-4q-47 -123 -133.5 -346t-100.5 -259l-241 -624h954z" />
    <glyph glyph-name="Epsilon" unicode="&#x395;" horiz-adv-x="1249" 
d="M1114 1337h-774v-528h735v-121h-735v-567h799v-121h-932v1458h907v-121z" />
    <glyph glyph-name="Zeta" unicode="&#x396;" horiz-adv-x="1142" 
d="M1067 1319l-879 -1194v-4h918v-121h-1071v139l878 1194v4h-860v121h1014v-139z" />
    <glyph glyph-name="Eta" unicode="&#x397;" horiz-adv-x="1497" 
d="M1290 0h-133v696h-817v-696h-133v1458h133v-641h817v641h133v-1458z" />
    <glyph glyph-name="Theta" unicode="&#x398;" horiz-adv-x="1482" 
d="M741 1485q296 0 472 -205t176 -551t-176 -551t-472 -205t-472.5 205t-176.5 551t176.5 551t472.5 205zM741 1360q-233 0 -371.5 -171t-138.5 -460t138.5 -460t371.5 -171t370.5 171t137.5 460t-137.5 460t-370.5 171zM1044 666h-608v131h608v-131z" />
    <glyph glyph-name="Iota" unicode="&#x399;" horiz-adv-x="546" 
d="M340 0h-133v1458h133v-1458z" />
    <glyph glyph-name="Kappa" unicode="&#x39a;" horiz-adv-x="1243" 
d="M489 762l744 -762h-186l-703 731h-4v-731h-133v1458h133v-665h4l643 665h180z" />
    <glyph glyph-name="Lambda" unicode="&#x39b;" horiz-adv-x="1325" 
d="M1315 0h-150l-276 743q-39 103 -111.5 300t-111.5 300h-4q-39 -104 -112 -300.5t-112 -299.5l-278 -743h-148l557 1458h189z" />
    <glyph glyph-name="Mu" unicode="&#x39c;" horiz-adv-x="1861" 
d="M1655 0h-133v748q0 377 2 565h-4q-34 -86 -71 -181t-81.5 -210.5t-69.5 -178.5l-290 -743h-156l-289 743q-158 405 -221 570h-4q2 -188 2 -565v-748h-133v1458h215l289 -745l217 -570h4q153 399 219 570l289 745h215v-1458z" />
    <glyph glyph-name="Nu" unicode="&#x39d;" horiz-adv-x="1525" 
d="M1319 0h-203l-379 647q-71 121 -202.5 348t-192.5 330h-4q0 -122 1 -364.5t1 -364.5v-596h-133v1458h203l378 -647q72 -123 204.5 -350.5t191.5 -327.5h4q-2 244 -2 729v596h133v-1458z" />
    <glyph glyph-name="Xi" unicode="&#x39e;" horiz-adv-x="1339" 
d="M1190 1325h-1040v133h1040v-133zM1155 664h-971v133h971v-133zM1219 0h-1098v133h1098v-133z" />
    <glyph glyph-name="Omicron" unicode="&#x39f;" horiz-adv-x="1482" 
d="M741 1485q296 0 472 -205t176 -551t-176 -551t-472 -205t-472.5 205t-176.5 551t176.5 551t472.5 205zM741 1360q-233 0 -370.5 -171t-137.5 -460t137.5 -460t370.5 -171q232 0 370 171t138 460t-138 460t-370 171z" />
    <glyph glyph-name="Pi" unicode="&#x3a0;" horiz-adv-x="1476" 
d="M1270 0h-133v1337h-797v-1337h-133v1458h1063v-1458z" />
    <glyph glyph-name="Rho" unicode="&#x3a1;" horiz-adv-x="1241" 
d="M207 1458h475q240 0 369 -114t129 -310q0 -197 -129 -311.5t-369 -114.5h-342v-608h-133v1458zM340 1337v-608h340q176 0 268 80t92 225q0 143 -92 223t-268 80h-340z" />
    <glyph glyph-name="Sigma" unicode="&#x3a3;" horiz-adv-x="1122" 
d="M1059 1337h-828v-4l431 -592l-451 -614v-6h876v-121h-1046v121l455 620l-433 596v121h996v-121z" />
    <glyph glyph-name="Tau" unicode="&#x3a4;" horiz-adv-x="1212" 
d="M1192 1337h-520v-1337h-133v1337h-519v121h1172v-121z" />
    <glyph glyph-name="Upsilon" unicode="&#x3a5;" horiz-adv-x="1232" 
d="M684 623v-623h-135v623l-539 835h158l201 -315q17 -26 245 -391h4q164 262 248 391l199 315h158z" />
    <glyph glyph-name="Phi" unicode="&#x3a6;" horiz-adv-x="1576" 
d="M854 1507v-145q296 -11 463.5 -173t167.5 -454q0 -293 -167 -454t-464 -172v-158h-131v158q-297 11 -464 172t-167 454q0 292 167.5 454t463.5 173v145h131zM723 231v1008q-232 -6 -361 -135.5t-129 -368.5t129 -368.5t361 -135.5zM854 1239v-1008q233 6 361 135.5
t128 368.5t-128 368.5t-361 135.5z" />
    <glyph glyph-name="Chi" unicode="&#x3a7;" horiz-adv-x="1263" 
d="M715 752l528 -752h-164l-446 641h-4l-447 -641h-162l529 752l-500 706h162l418 -598h4l420 598h161z" />
    <glyph glyph-name="Psi" unicode="&#x3a8;" horiz-adv-x="1540" 
d="M1438 1458v-446q0 -322 -144 -469t-458 -156v-387h-134v387q-313 9 -457.5 156.5t-144.5 468.5v446h136v-444q0 -262 107.5 -375t358.5 -121v940h134v-940q253 8 361 121t108 375v444h133z" />
    <glyph glyph-name="Omega" unicode="&#x3a9;" horiz-adv-x="1486" 
d="M743 1485q142 0 257.5 -40t200.5 -118.5t132 -203t47 -285.5q0 -107 -25.5 -206t-75.5 -187.5t-108 -163t-137 -156.5v-4h369v-121h-518v125q83 86 141 157.5t110.5 159.5t78.5 184.5t26 202.5q0 260 -135.5 395.5t-362.5 135.5q-225 0 -360 -135.5t-135 -395.5
q0 -106 26 -202.5t78 -184.5t109.5 -160t140.5 -157v-125h-518v121h369v4q-80 82 -138 156.5t-108 163t-75.5 187.5t-25.5 206q0 161 47 285.5t132.5 203t201 118.5t256.5 40z" />
    <glyph glyph-name="Iotadieresis" unicode="&#x3aa;" horiz-adv-x="546" 
d="M145 1696h-125v180h125v-180zM522 1696h-125v180h125v-180zM340 0h-133v1458h133v-1458z" />
    <glyph glyph-name="Upsilondieresis" unicode="&#x3ab;" horiz-adv-x="1232" 
d="M489 1593h-124v181h124v-181zM866 1593h-125v181h125v-181zM684 623v-623h-135v623l-539 835h158l201 -315q17 -26 245 -391h4q164 262 248 391l199 315h158z" />
    <glyph glyph-name="alphatonos" unicode="&#x3ac;" horiz-adv-x="1175" 
d="M614 1178h-104l92 321h131zM528 1067q115 0 204.5 -52.5t129.5 -140.5h4q3 78 17 166h127q-23 -145 -23 -368v-404q0 -101 21.5 -136.5t76.5 -35.5q29 0 50 8v-100q-43 -14 -99 -14q-80 0 -121 41t-51 137h-4q-40 -88 -129 -139.5t-203 -51.5q-201 0 -319.5 148
t-118.5 397t118.5 397t319.5 148zM549 961q-149 0 -237.5 -119.5t-88.5 -319.5t88.5 -319t237.5 -119q145 0 231 119t86 319t-86 319.5t-231 119.5z" />
    <glyph glyph-name="epsilontonos" unicode="&#x3ad;" horiz-adv-x="983" 
d="M543 1178h-105l92 321h132zM492 1067q178 0 283.5 -88t105.5 -242h-133q0 106 -64.5 160.5t-185.5 54.5q-110 0 -172 -47t-62 -137q0 -85 74.5 -136.5t196.5 -51.5h104v-107h-104q-145 0 -222 -51.5t-77 -149.5q0 -85 69 -134.5t195 -49.5q264 0 264 219h137
q0 -158 -106 -246t-295 -88q-186 0 -293 80.5t-107 218.5q0 190 207 258v5q-178 70 -178 243q0 133 97.5 211t265.5 78z" />
    <glyph glyph-name="etatonos" unicode="&#x3ae;" horiz-adv-x="1171" 
d="M571 1178h-104l92 321h131zM641 1063q180 0 275.5 -108.5t95.5 -321.5v-1012h-127v1004q0 178 -67.5 253.5t-199.5 75.5q-128 0 -215.5 -90t-87.5 -248v-616h-127v758q0 104 -24 143t-74 39q-28 0 -49 -8v104q47 15 80 15q76 0 120.5 -39.5t57.5 -132.5h4
q53 88 140.5 136t197.5 48z" />
    <glyph glyph-name="iotatonos" unicode="&#x3af;" horiz-adv-x="530" 
d="M272 1178h-104l92 321h131zM287 1040v-743q0 -104 34 -149.5t115 -45.5q37 0 74 11v-109q-54 -12 -96 -12q-134 0 -194 70.5t-60 230.5v747h127z" />
    <glyph glyph-name="upsilondieresistonos" unicode="&#x3b0;" horiz-adv-x="1155" 
d="M555 1178h-100l80 288h118zM346 1206h-123v189h123v-189zM872 1206h-122v189h122v-189zM125 1051q100 0 145 -57t45 -203v-424q0 -148 69.5 -215.5t207.5 -67.5q311 0 311 426q0 295 -80 530h125q82 -241 82 -532q0 -259 -108.5 -397t-329.5 -138q-200 0 -303 93.5
t-103 293.5v410q0 100 -21 135t-75 35q-28 0 -49 -8v104q41 15 84 15z" />
    <glyph glyph-name="alpha" unicode="&#x3b1;" horiz-adv-x="1175" 
d="M528 1067q115 0 204.5 -52.5t129.5 -140.5h4q3 78 17 166h127q-23 -145 -23 -368v-404q0 -101 21.5 -136.5t76.5 -35.5q29 0 50 8v-100q-43 -14 -99 -14q-80 0 -121 41t-51 137h-4q-40 -88 -129 -139.5t-203 -51.5q-201 0 -319.5 148t-118.5 397t118.5 397t319.5 148z
M549 961q-149 0 -237.5 -119.5t-88.5 -319.5t88.5 -319t237.5 -119q145 0 231 119t86 319t-86 319.5t-231 119.5z" />
    <glyph glyph-name="beta" unicode="&#x3b2;" horiz-adv-x="1171" 
d="M600 1485q189 0 295 -96t106 -259q0 -129 -65 -216t-176 -117v-4q146 -22 235.5 -120.5t89.5 -277.5q0 -192 -124.5 -303.5t-339.5 -111.5q-245 0 -320 141h-4v-500h-127v1350q0 255 108 384.5t322 129.5zM602 1372q-159 0 -232 -95.5t-73 -299.5v-590
q0 -138 79.5 -216.5t239.5 -78.5q159 0 248.5 83.5t89.5 232.5q0 167 -108 244t-332 77h-35v119h35q181 0 269.5 70t88.5 202q0 119 -70 185.5t-200 66.5z" />
    <glyph glyph-name="gamma" unicode="&#x3b3;" horiz-adv-x="1034" 
d="M870 1040h131q-30 -292 -125.5 -525.5t-285.5 -500.5v-26q0 -175 -23 -367h-127q23 192 23 367q0 159 -57.5 384.5t-155.5 411.5q-49 92 -90.5 124t-93.5 32q-27 0 -48 -6v104q44 13 84 13q75 0 130 -41.5t114 -155.5q83 -160 138 -347.5t69 -342.5h4
q142 226 215.5 427.5t97.5 448.5z" />
    <glyph glyph-name="delta" unicode="&#x3b4;" horiz-adv-x="1132" 
d="M510 1479q226 0 430 -68v-121q-203 78 -418 78q-170 0 -170 -90q0 -22 14 -43.5t33 -39.5t61 -44t75.5 -44.5t99.5 -53.5q208 -111 306.5 -249t98.5 -343q0 -223 -129 -355.5t-344 -132.5q-216 0 -346.5 132.5t-130.5 355.5q0 199 100 334.5t285 199.5v4q-60 34 -92 54
t-68.5 48t-53.5 52t-28.5 56t-11.5 71q0 199 289 199zM588 936q-174 -54 -269.5 -174t-95.5 -301q0 -173 94 -275t250 -102q157 0 250.5 102.5t93.5 276.5q0 162 -78.5 273t-244.5 200z" />
    <glyph glyph-name="epsilon" unicode="&#x3b5;" horiz-adv-x="983" 
d="M492 1067q178 0 283.5 -88t105.5 -242h-133q0 106 -64.5 160.5t-185.5 54.5q-110 0 -172 -47t-62 -137q0 -85 74.5 -136.5t196.5 -51.5h104v-107h-104q-145 0 -222 -51.5t-77 -149.5q0 -85 69 -134.5t195 -49.5q264 0 264 219h137q0 -158 -106 -246t-295 -88
q-186 0 -293 80.5t-107 218.5q0 190 207 258v5q-178 70 -178 243q0 133 97.5 211t265.5 78z" />
    <glyph glyph-name="zeta" unicode="&#x3b6;" horiz-adv-x="899" 
d="M836 1458v-106q-290 -173 -452.5 -395.5t-162.5 -475.5q0 -155 78.5 -232t261.5 -99q167 -20 240 -83.5t73 -170.5q0 -105 -51 -193h-116q43 82 43 164q0 72 -45 110.5t-168 51.5q-449 49 -449 442q0 175 76.5 340.5t201 296t293.5 240.5v4h-516v106h693z" />
    <glyph glyph-name="eta" unicode="&#x3b7;" horiz-adv-x="1171" 
d="M641 1063q180 0 275.5 -108.5t95.5 -321.5v-1012h-127v1004q0 178 -67.5 253.5t-199.5 75.5q-128 0 -215.5 -90t-87.5 -248v-616h-127v758q0 104 -24 143t-74 39q-28 0 -49 -8v104q47 15 80 15q76 0 120.5 -39.5t57.5 -132.5h4q53 88 140.5 136t197.5 48z" />
    <glyph glyph-name="theta" unicode="&#x3b8;" horiz-adv-x="1185" 
d="M590 1485q236 0 368 -200.5t132 -555.5t-132 -555.5t-368 -200.5q-232 0 -364 201t-132 555t132 555t364 201zM590 1374q-164 0 -261 -156t-106 -436h735q-8 280 -104.5 436t-263.5 156zM590 84q167 0 263.5 156t104.5 436h-735q9 -280 106 -436t261 -156z" />
    <glyph glyph-name="iota" unicode="&#x3b9;" horiz-adv-x="530" 
d="M287 1040v-743q0 -104 34 -149.5t115 -45.5q37 0 74 11v-109q-54 -12 -96 -12q-134 0 -194 70.5t-60 230.5v747h127z" />
    <glyph glyph-name="kappa" unicode="&#x3ba;" horiz-adv-x="1030" 
d="M858 0l-457 477l-104 -117v-360h-127v1040h127v-512h4l236 267q132 151 217 202.5t190 51.5q24 0 64 -9v-112q-24 6 -52 6q-85 0 -165 -54t-213 -204l-97 -109l553 -567h-176z" />
    <glyph glyph-name="lambda" unicode="&#x3bb;" horiz-adv-x="1120" 
d="M199 1468q142 0 229.5 -87t179.5 -328l285 -754q43 -116 82 -156.5t90 -40.5q15 0 35 4v-106q-32 -8 -60 -8q-91 0 -148 51.5t-114 204.5q-69 185 -239 635h-4q-78 -168 -230 -500l-176 -383h-139l483 1047q-67 179 -129 245t-160 66q-54 0 -94 -15v107q40 18 109 18z
" />
    <glyph glyph-name="mu" unicode="&#x3bc;" horiz-adv-x="1163" 
d="M985 1040v-768q0 -101 21.5 -136.5t76.5 -35.5q26 0 50 9v-105q-41 -14 -97 -14q-83 0 -123 38.5t-49 129.5h-4q-40 -80 -124 -127t-189 -47q-177 0 -250 108v-471h-127v1419h127v-620q0 -177 65.5 -252.5t194.5 -75.5q126 0 213.5 90t87.5 248v610h127z" />
    <glyph glyph-name="nu" unicode="&#x3bd;" horiz-adv-x="1013" 
d="M92 1049q85 0 138 -57.5t102 -205.5l217 -653h4q175 320 237 496t62 329q0 42 -6 82h125q8 -39 8 -86q0 -172 -73 -362.5t-294 -591.5h-151l-252 748q-36 110 -69.5 150t-84.5 40q-19 0 -35 -4v102q29 13 72 13z" />
    <glyph glyph-name="xi" unicode="&#x3be;" horiz-adv-x="917" 
d="M874 1352h-137q-212 0 -327 -75.5t-115 -215.5q0 -76 45 -129.5t117.5 -78t167.5 -24.5h170v-106h-146q-219 0 -322.5 -82t-103.5 -223q0 -125 81.5 -188t270.5 -80q166 -14 240 -79t74 -175q0 -105 -51 -193h-117q43 82 43 164q0 74 -46 114t-169 50q-461 40 -461 381
q0 141 76 234t225 126v4q-100 28 -159.5 101.5t-59.5 177.5q0 100 49 176t141 117v4h-231v106h745v-106z" />
    <glyph glyph-name="omicron" unicode="&#x3bf;" horiz-adv-x="1130" 
d="M565 1067q221 0 348 -146t127 -401t-127 -401t-348 -146t-348 146t-127 401t127 401t348 146zM565 956q-161 0 -251.5 -116.5t-90.5 -319.5t90.5 -319.5t251.5 -116.5t252.5 116.5t91.5 319.5t-91.5 319.5t-252.5 116.5z" />
    <glyph glyph-name="pi" unicode="&#x3c0;" horiz-adv-x="1314" 
d="M1276 934h-256v-627q0 -117 37.5 -162t113.5 -45q26 0 62 9v-105q-44 -14 -103 -14q-118 0 -177.5 69.5t-59.5 235.5v639h-516v-934h-127v934h-223v106h1249v-106z" />
    <glyph glyph-name="rho" unicode="&#x3c1;" horiz-adv-x="1157" 
d="M598 1067q217 0 343 -146.5t126 -400.5q0 -252 -124.5 -397.5t-338.5 -145.5q-227 0 -313 162h-4v-518h-127v899q0 251 119 399t319 148zM598 956q-145 0 -228 -116.5t-83 -319.5q0 -201 83 -316.5t228 -115.5q157 0 247.5 115t90.5 317q0 204 -90.5 320t-247.5 116z" />
    <glyph glyph-name="sigmafinal" unicode="&#x3c2;" horiz-adv-x="1017" 
d="M545 1067q194 0 305 -105t125 -284h-131q-11 128 -88.5 203t-210.5 75q-154 0 -241 -103t-87 -288q0 -181 79 -272.5t261 -114.5q169 -21 242 -91t73 -191q0 -103 -49 -193h-118q43 82 43 164q0 85 -46 130.5t-170 59.5q-448 52 -448 498q0 241 123 376.5t338 135.5z" />
    <glyph glyph-name="sigma" unicode="&#x3c3;" horiz-adv-x="1189" 
d="M1163 934h-309v-4q88 -55 137 -163.5t49 -262.5q0 -246 -127.5 -388.5t-347.5 -142.5t-347.5 143.5t-127.5 391.5q0 247 127.5 389.5t347.5 142.5h598v-106zM565 936q-160 0 -250 -113t-90 -313q0 -201 90 -313.5t250 -112.5q164 0 255 112.5t91 313.5q0 200 -91 313
t-255 113z" />
    <glyph glyph-name="tau" unicode="&#x3c4;" horiz-adv-x="954" 
d="M928 934h-402v-627q0 -116 38 -161.5t114 -45.5q25 0 61 9v-105q-44 -14 -102 -14q-119 0 -178.5 69.5t-59.5 235.5v639h-372v106h901v-106z" />
    <glyph glyph-name="upsilon" unicode="&#x3c5;" horiz-adv-x="1155" 
d="M125 1051q100 0 145 -57t45 -203v-424q0 -148 69.5 -215.5t207.5 -67.5q311 0 311 426q0 295 -80 530h125q82 -241 82 -532q0 -259 -108.5 -397t-329.5 -138q-200 0 -303 93.5t-103 293.5v410q0 100 -21 135t-75 35q-28 0 -49 -8v104q41 15 84 15z" />
    <glyph glyph-name="phi" unicode="&#x3c6;" horiz-adv-x="1505" 
d="M1413 520q0 -250 -160.5 -396t-437.5 -151v-352h-125v352q-277 5 -438.5 151t-161.5 396t161.5 396t438.5 151v289h125v-289q277 -5 437.5 -151t160.5 -396zM221 520q0 -203 124 -318t345 -118v872q-221 -3 -345 -118t-124 -318zM815 956v-872q221 3 344 118t123 318
t-123 318t-344 118z" />
    <glyph glyph-name="chi" unicode="&#x3c7;" horiz-adv-x="1142" 
d="M121 1059q112 0 177.5 -50t123.5 -186l158 -374h4l377 591h147l-459 -712l180 -418q50 -116 93.5 -152.5t113.5 -36.5q34 0 84 11v-107q-46 -14 -104 -14q-106 0 -171 49t-124 190l-156 367h-4l-385 -596h-145l471 709l-189 432q-49 115 -92 150.5t-119 35.5
q-49 0 -84 -14v104q43 21 103 21z" />
    <glyph glyph-name="psi" unicode="&#x3c8;" horiz-adv-x="1517" 
d="M1391 510q0 -250 -138.5 -385.5t-418.5 -144.5v-359h-127v359q-270 6 -408.5 116t-138.5 338v606h127v-587q0 -182 105 -269.5t315 -93.5v1266h127v-1266q430 17 430 426q0 289 -84 524h127q84 -238 84 -530z" />
    <glyph glyph-name="omega" unicode="&#x3c9;" horiz-adv-x="1548" 
d="M1155 1040h133q133 -260 133 -581q0 -486 -354 -486q-227 0 -293 187h-2q-66 -187 -291 -187q-354 0 -354 486q0 321 133 581h131q-135 -258 -135 -569q0 -387 244 -387q211 0 211 274v418h127v-418q0 -274 211 -274q241 0 241 387q0 311 -135 569z" />
    <glyph glyph-name="iotadieresis" unicode="&#x3ca;" horiz-adv-x="530" 
d="M96 1278h-125v180h125v-180zM473 1278h-125v180h125v-180zM287 1040v-743q0 -104 34 -149.5t115 -45.5q37 0 74 11v-109q-54 -12 -96 -12q-134 0 -194 70.5t-60 230.5v747h127z" />
    <glyph glyph-name="upsilondieresis" unicode="&#x3cb;" horiz-adv-x="1155" 
d="M420 1278h-125v180h125v-180zM797 1278h-125v180h125v-180zM125 1051q100 0 145 -57t45 -203v-424q0 -148 69.5 -215.5t207.5 -67.5q311 0 311 426q0 295 -80 530h125q82 -241 82 -532q0 -259 -108.5 -397t-329.5 -138q-200 0 -303 93.5t-103 293.5v410q0 100 -21 135
t-75 35q-28 0 -49 -8v104q41 15 84 15z" />
    <glyph glyph-name="omicrontonos" unicode="&#x3cc;" horiz-adv-x="1130" 
d="M612 1178h-104l92 321h131zM565 1067q221 0 348 -146t127 -401t-127 -401t-348 -146t-348 146t-127 401t127 401t348 146zM565 956q-161 0 -251.5 -116.5t-90.5 -319.5t90.5 -319.5t251.5 -116.5t252.5 116.5t91.5 319.5t-91.5 319.5t-252.5 116.5z" />
    <glyph glyph-name="upsilontonos" unicode="&#x3cd;" horiz-adv-x="1155" 
d="M596 1178h-104l92 321h131zM125 1051q100 0 145 -57t45 -203v-424q0 -148 69.5 -215.5t207.5 -67.5q311 0 311 426q0 295 -80 530h125q82 -241 82 -532q0 -259 -108.5 -397t-329.5 -138q-200 0 -303 93.5t-103 293.5v410q0 100 -21 135t-75 35q-28 0 -49 -8v104
q41 15 84 15z" />
    <glyph glyph-name="omegatonos" unicode="&#x3ce;" horiz-adv-x="1548" 
d="M823 1178h-104l92 321h131zM1155 1040h133q133 -260 133 -581q0 -486 -354 -486q-227 0 -293 187h-2q-66 -187 -291 -187q-354 0 -354 486q0 321 133 581h131q-135 -258 -135 -569q0 -387 244 -387q211 0 211 274v418h127v-418q0 -274 211 -274q241 0 241 387
q0 311 -135 569z" />
    <glyph glyph-name="Iegravecy" unicode="&#x400;" horiz-adv-x="1249" 
d="M594 1833l184 -277h-121l-235 277h172zM1114 1337h-774v-528h735v-121h-735v-567h799v-121h-932v1458h907v-121z" />
    <glyph glyph-name="Iocy" unicode="&#x401;" horiz-adv-x="1249" 
d="M532 1593h-124v181h124v-181zM909 1593h-125v181h125v-181zM1114 1337h-774v-528h735v-121h-735v-567h799v-121h-932v1458h907v-121z" />
    <glyph glyph-name="Djecy" unicode="&#x402;" horiz-adv-x="1556" 
d="M1192 1337h-520v-497q154 80 332 80q236 0 363.5 -124t127.5 -347q0 -215 -132.5 -342t-358.5 -127q-109 0 -173 20v123q71 -23 170 -23q168 0 264.5 94t96.5 255q0 170 -92.5 260t-270.5 90q-174 0 -327 -84v-715h-133v1337h-519v121h1172v-121z" />
    <glyph glyph-name="Gjecy" unicode="&#x403;" horiz-adv-x="978" 
d="M586 1556h-121l184 277h172zM207 0v1458h751v-121h-618v-1337h-133z" />
    <glyph glyph-name="Ecy" unicode="&#x404;" horiz-adv-x="1400" 
d="M1155 496h139q-24 -238 -177.5 -380.5t-401.5 -142.5q-289 0 -456 202.5t-167 553.5t168 553.5t459 202.5q128 0 233 -39t176.5 -108t112.5 -163t47 -204h-141q-15 177 -131 283t-297 106q-213 0 -341 -151.5t-142 -417.5h714v-121h-714q12 -267 139.5 -419.5
t339.5 -152.5q179 0 297 107.5t143 290.5z" />
    <glyph glyph-name="Dzecy" unicode="&#x405;" horiz-adv-x="1226" 
d="M578 1485q253 0 380 -121t127 -358h-135q0 358 -372 358q-153 0 -237.5 -70t-84.5 -194q0 -52 16 -91t43 -67t76 -51.5t101 -40t133 -35.5q69 -17 115 -30t101.5 -33.5t91.5 -42t73.5 -53t58 -68.5t34 -87.5t13.5 -111.5q0 -191 -134.5 -303.5t-363.5 -112.5
q-250 0 -386 130.5t-136 381.5h133q0 -198 102.5 -293.5t286.5 -95.5q177 0 270 76t93 215q0 45 -10.5 80t-34.5 62.5t-52.5 48t-76.5 39t-94.5 32t-116.5 31.5q-68 17 -115 30.5t-100.5 34t-88.5 42t-69.5 52t-54 67t-31.5 85t-12 107.5q0 173 122.5 280t334.5 107z" />
    <glyph glyph-name="Icy" unicode="&#x406;" horiz-adv-x="546" 
d="M340 0h-133v1458h133v-1458z" />
    <glyph glyph-name="Yicy" unicode="&#x407;" horiz-adv-x="546" 
d="M145 1593h-125v181h125v-181zM522 1593h-125v181h125v-181zM340 0h-133v1458h133v-1458z" />
    <glyph glyph-name="Jecy" unicode="&#x408;" horiz-adv-x="690" 
d="M496 1458v-1063q0 -200 -98 -301.5t-281 -101.5q-48 0 -86 10v123q44 -8 84 -8q122 0 183.5 68t61.5 214v1059h136z" />
    <glyph glyph-name="Ljecy" unicode="&#x409;" horiz-adv-x="2115" 
d="M1214 850h342q240 0 369 -114.5t129 -311.5q0 -196 -129 -310t-369 -114h-475v1337h-585q-6 -288 -19 -496t-36.5 -359.5t-53 -245t-76 -149t-99 -75.5t-126.5 -20q-40 0 -61 8v115q20 -4 36 -4q58 0 97 19t73 74.5t55 146.5t38 245t27 360.5t16 501.5h847v-608z
M1214 729v-608h340q176 0 268.5 80t92.5 223q0 145 -92.5 225t-268.5 80h-340z" />
    <glyph glyph-name="Njecy" unicode="&#x40a;" horiz-adv-x="2191" 
d="M1290 850h344q239 0 368.5 -114.5t129.5 -311.5q0 -196 -129.5 -310t-368.5 -114h-477v725h-817v-725h-133v1458h133v-612h817v612h133v-608zM1290 121h340q177 0 269 79.5t92 223.5q0 145 -92 225t-269 80h-340v-608z" />
    <glyph glyph-name="Tshecy" unicode="&#x40b;" horiz-adv-x="1552" 
d="M1034 885q214 0 327.5 -113t113.5 -321v-451h-134v440q0 157 -81.5 240.5t-239.5 83.5q-191 0 -348 -53v-711h-133v1337h-519v121h1172v-121h-520v-506q174 54 362 54z" />
    <glyph glyph-name="Kjecy" unicode="&#x40c;" horiz-adv-x="1243" 
d="M649 1556h-121l185 277h172zM489 762l744 -762h-186l-703 731h-4v-731h-133v1458h133v-665h4l643 665h180z" />
    <glyph glyph-name="Iigravecy" unicode="&#x40d;" horiz-adv-x="1525" 
d="M696 1833l185 -277h-121l-236 277h172zM340 1458v-596q0 -122 -1 -364.5t-1 -364.5h4q61 103 192.5 330t202.5 348l379 647h203v-1458h-133v596q0 485 2 729h-4q-59 -100 -191.5 -327.5t-204.5 -350.5l-378 -647h-203v1458h133z" />
    <glyph glyph-name="Ushortcy" unicode="&#x40e;" horiz-adv-x="1296" 
d="M844 1833h104q-12 -136 -90 -210.5t-209 -74.5t-209 74.5t-90 210.5h105q12 -89 62 -136.5t132 -47.5t131.5 47.5t63.5 136.5zM1284 1458l-586 -1184q-77 -156 -169 -222t-216 -66q-70 0 -116 14v119q44 -13 100 -13q94 0 158.5 46.5t122.5 160.5l-566 1145h148l237 -493
q164 -344 248 -516h4q205 424 248 512l240 497h147z" />
    <glyph glyph-name="Dzhecy" unicode="&#x40f;" horiz-adv-x="1476" 
d="M1270 0h-469v-328h-127v328h-467v1458h133v-1337h797v1337h133v-1458z" />
    <glyph glyph-name="Acy" unicode="&#x410;" horiz-adv-x="1359" 
d="M1022 471h-684l-182 -471h-144l578 1458h182l576 -1458h-144zM973 594l-58 151q-149 384 -233 605h-4q-162 -424 -234 -605l-59 -151h588z" />
    <glyph glyph-name="Becy" unicode="&#x411;" horiz-adv-x="1259" 
d="M1094 1337h-754v-506h367q221 0 345 -111t124 -304t-124 -304.5t-345 -111.5h-500v1458h887v-121zM340 711v-590h344q168 0 260 78t92 217q0 140 -92 217.5t-260 77.5h-344z" />
    <glyph glyph-name="Vecy" unicode="&#x412;" horiz-adv-x="1259" 
d="M207 1458h452q232 0 351.5 -99t119.5 -269q0 -122 -61 -210.5t-176 -129.5v-5q123 -31 195.5 -123t72.5 -221q0 -185 -124 -293t-345 -108h-485v1458zM340 1341v-538h301q184 0 269 71t85 197q0 270 -348 270h-307zM340 686v-569h336q171 0 258.5 73t87.5 213
q0 135 -92.5 209t-288.5 74h-301z" />
    <glyph glyph-name="Gecy" unicode="&#x413;" horiz-adv-x="978" 
d="M207 0v1458h751v-121h-618v-1337h-133z" />
    <glyph glyph-name="Decy" unicode="&#x414;" horiz-adv-x="1431" 
d="M1382 121v-449h-127v328h-1097v-328h-127v449h133q51 85 86 220t61 416t33 701h879v-1337h159zM1090 1337h-617q-18 -909 -156 -1216h773v1216z" />
    <glyph glyph-name="Iecy" unicode="&#x415;" horiz-adv-x="1249" 
d="M1114 1337h-774v-528h735v-121h-735v-567h799v-121h-932v1458h907v-121z" />
    <glyph glyph-name="Zhecy" unicode="&#x416;" horiz-adv-x="1753" 
d="M1098 762l645 -762h-172l-623 745h-4v-745h-135v745h-4l-623 -745h-172l643 762l-583 696h166l569 -682h4v682h135v-682h4l570 682h165z" />
    <glyph glyph-name="Zecy" unicode="&#x417;" horiz-adv-x="1234" 
d="M604 1483q234 0 368 -105t134 -284q0 -136 -70 -219t-200 -127v-5q147 -42 224 -128.5t77 -235.5q0 -183 -143 -294.5t-386 -111.5q-250 0 -391 120t-141 327h147q0 -157 98 -239.5t287 -82.5q180 0 280.5 77t100.5 208q0 142 -111.5 218.5t-314.5 76.5h-117v123h117
q185 0 292.5 76t107.5 204t-98 202.5t-267 74.5q-173 0 -269 -81t-96 -235h-145q0 207 140 324t376 117z" />
    <glyph glyph-name="Iicy" unicode="&#x418;" horiz-adv-x="1525" 
d="M340 1458v-596q0 -122 -1 -364.5t-1 -364.5h4q61 103 192.5 330t202.5 348l379 647h203v-1458h-133v596q0 485 2 729h-4q-59 -100 -191.5 -327.5t-204.5 -350.5l-378 -647h-203v1458h133z" />
    <glyph glyph-name="Iishortcy" unicode="&#x419;" horiz-adv-x="1525" 
d="M956 1833h105q-12 -136 -90 -210.5t-209 -74.5t-209 74.5t-90 210.5h104q12 -89 62.5 -136.5t132.5 -47.5q81 0 130.5 47t63.5 137zM340 1458v-596q0 -122 -1 -364.5t-1 -364.5h4q61 103 192.5 330t202.5 348l379 647h203v-1458h-133v596q0 485 2 729h-4
q-59 -100 -191.5 -327.5t-204.5 -350.5l-378 -647h-203v1458h133z" />
    <glyph glyph-name="Kacy" unicode="&#x41a;" horiz-adv-x="1243" 
d="M489 762l744 -762h-186l-703 731h-4v-731h-133v1458h133v-665h4l643 665h180z" />
    <glyph glyph-name="Elcy" unicode="&#x41b;" horiz-adv-x="1421" 
d="M1214 0h-133v1337h-585q-6 -288 -19 -496t-36.5 -359.5t-53 -245t-76 -149t-99 -75.5t-126.5 -20q-40 0 -61 8v115q20 -4 36 -4q58 0 97 19t73 74.5t55 146.5t38 245t27 360.5t16 501.5h847v-1458z" />
    <glyph glyph-name="Emcy" unicode="&#x41c;" horiz-adv-x="1861" 
d="M1655 0h-133v748q0 377 2 565h-4q-34 -86 -71 -181t-81.5 -210.5t-69.5 -178.5l-290 -743h-156l-289 743q-158 405 -221 570h-4q2 -188 2 -565v-748h-133v1458h215l289 -745l217 -570h4q153 399 219 570l289 745h215v-1458z" />
    <glyph glyph-name="Ency" unicode="&#x41d;" horiz-adv-x="1497" 
d="M1290 0h-133v696h-817v-696h-133v1458h133v-641h817v641h133v-1458z" />
    <glyph glyph-name="Ocy" unicode="&#x41e;" horiz-adv-x="1482" 
d="M741 1485q296 0 472 -205t176 -551t-176 -551t-472 -205t-472.5 205t-176.5 551t176.5 551t472.5 205zM741 1360q-233 0 -370.5 -171t-137.5 -460t137.5 -460t370.5 -171q232 0 370 171t138 460t-138 460t-370 171z" />
    <glyph glyph-name="Pecy" unicode="&#x41f;" horiz-adv-x="1476" 
d="M1270 0h-133v1337h-797v-1337h-133v1458h1063v-1458z" />
    <glyph glyph-name="Ercy" unicode="&#x420;" horiz-adv-x="1241" 
d="M207 1458h475q240 0 369 -114t129 -310q0 -197 -129 -311.5t-369 -114.5h-342v-608h-133v1458zM340 1337v-608h340q176 0 268 80t92 225q0 143 -92 223t-268 80h-340z" />
    <glyph glyph-name="Escy" unicode="&#x421;" horiz-adv-x="1398" 
d="M719 1485q127 0 232 -39t176 -108t112 -163t47 -204h-139q-15 177 -131 283t-297 106q-226 0 -356 -169t-130 -462t129 -462t353 -169q179 0 297 107.5t143 290.5h139q-24 -238 -178 -380.5t-401 -142.5q-289 0 -456 202.5t-167 553.5t168 553.5t459 202.5z" />
    <glyph glyph-name="Tecy" unicode="&#x422;" horiz-adv-x="1212" 
d="M1192 1337h-520v-1337h-133v1337h-519v121h1172v-121z" />
    <glyph glyph-name="Ucy" unicode="&#x423;" horiz-adv-x="1296" 
d="M1284 1458l-586 -1184q-77 -156 -169 -222t-216 -66q-70 0 -116 14v119q44 -13 100 -13q94 0 158.5 46.5t122.5 160.5l-566 1145h148l237 -493q164 -344 248 -516h4q205 424 248 512l240 497h147z" />
    <glyph glyph-name="Efcy" unicode="&#x424;" horiz-adv-x="1656" 
d="M1565 729q0 -277 -178 -439t-492 -173v-164h-133v164q-314 11 -492 173t-178 439t178 439t492 173v164h133v-164q314 -11 492 -173t178 -439zM233 729q0 -217 141.5 -348t387.5 -141v979q-246 -10 -387.5 -141.5t-141.5 -348.5zM895 1219v-979q246 11 388 141.5
t142 347.5t-142 348.5t-388 141.5z" />
    <glyph glyph-name="Hacy" unicode="&#x425;" horiz-adv-x="1263" 
d="M715 752l528 -752h-164l-446 641h-4l-447 -641h-162l529 752l-500 706h162l418 -598h4l420 598h161z" />
    <glyph glyph-name="Tsecy" unicode="&#x426;" horiz-adv-x="1480" 
d="M1270 121h160v-449h-127v328h-1096v1458h133v-1337h797v1337h133v-1337z" />
    <glyph glyph-name="Checy" unicode="&#x427;" horiz-adv-x="1280" 
d="M1075 0h-135v633q-181 -53 -385 -53q-231 0 -354 112t-123 318v448h133v-434q0 -157 92 -240.5t270 -83.5q197 0 367 54v704h135v-1458z" />
    <glyph glyph-name="Shacy" unicode="&#x428;" horiz-adv-x="2082" 
d="M1876 0h-1669v1458h133v-1337h635v1337h133v-1337h635v1337h133v-1458z" />
    <glyph glyph-name="Shchacy" unicode="&#x429;" horiz-adv-x="2084" 
d="M1876 121h160v-449h-127v328h-1702v1458h133v-1337h635v1337h133v-1337h635v1337h133v-1337z" />
    <glyph glyph-name="Hardsigncy" unicode="&#x42a;" horiz-adv-x="1511" 
d="M610 850h342q240 0 370 -114.5t130 -311.5q0 -196 -130 -310t-370 -114h-475v1337h-457v121h590v-608zM610 729v-608h340q177 0 269 79.5t92 223.5q0 145 -92 225t-269 80h-340z" />
    <glyph glyph-name="Yerucy" unicode="&#x42b;" horiz-adv-x="1787" 
d="M207 0v1458h133v-608h342q240 0 369 -114.5t129 -311.5q0 -196 -129 -310t-369 -114h-475zM1581 0h-133v1458h133v-1458zM340 121h340q176 0 268 80t92 223q0 145 -92 225t-268 80h-340v-608z" />
    <glyph glyph-name="Softsigncy" unicode="&#x42c;" horiz-adv-x="1241" 
d="M207 0v1458h133v-608h342q240 0 369 -114.5t129 -311.5q0 -196 -129 -310t-369 -114h-475zM340 121h340q176 0 268 80t92 223q0 145 -92 225t-268 80h-340v-608z" />
    <glyph glyph-name="Ereversedcy" unicode="&#x42d;" horiz-adv-x="1400" 
d="M682 1485q290 0 457.5 -202t167.5 -554t-166 -554t-455 -202q-249 0 -403.5 142.5t-178.5 380.5h142q23 -182 142 -290t298 -108q212 0 339.5 152.5t139.5 419.5h-716v121h716q-14 266 -142.5 417.5t-340.5 151.5q-181 0 -298 -106t-132 -283h-139q6 110 47 204
t112.5 163t176.5 108t233 39z" />
    <glyph glyph-name="Iucy" unicode="&#x42e;" horiz-adv-x="1964" 
d="M1255 1485q281 0 448 -205t167 -551t-167 -551t-448 -205q-268 0 -434 188.5t-180 508.5h-301v-670h-133v1458h133v-667h301q15 320 180.5 507t433.5 187zM1255 98q218 0 347 171t129 460t-129 460t-347 171t-346.5 -171t-128.5 -460t128.5 -460t346.5 -171z" />
    <glyph glyph-name="Iacy" unicode="&#x42f;" horiz-adv-x="1255" 
d="M1049 1458v-1458h-134v643h-323q-36 0 -98 4l-322 -647h-154l347 674q-136 42 -204.5 140t-68.5 241q0 192 126 297.5t374 105.5h457zM915 1337h-321q-365 0 -365 -282q-2 -131 87.5 -211t267.5 -80h331v573z" />
    <glyph glyph-name="acy" unicode="&#x430;" horiz-adv-x="1073" 
d="M524 1067q181 0 285 -100t104 -299v-412q0 -143 23 -256h-119q-14 69 -14 158h-4q-107 -178 -371 -178q-158 0 -255 83.5t-97 215.5t89 208.5t306 110.5q159 27 320 37v49q0 140 -71.5 207t-195.5 67q-128 0 -197 -63t-75 -168h-133q9 151 115.5 245.5t289.5 94.5z
M791 449v79q-136 -9 -304 -36q-154 -23 -215 -70t-61 -135q0 -92 65 -146.5t179 -54.5q150 0 239 92q55 58 76 114t21 157z" />
    <glyph glyph-name="becy" unicode="&#x431;" horiz-adv-x="1150" 
d="M1020 1485v-121q-73 -20 -336 -47q-127 -13 -210 -46t-136 -98t-80.5 -151t-44.5 -221h4q92 237 363 237q221 0 351 -141.5t130 -384.5q0 -251 -127.5 -395t-347.5 -144q-226 0 -351.5 153.5t-125.5 428.5q0 199 21.5 343t62.5 242.5t109.5 159.5t154 91.5t205.5 42.5
q251 24 358 51zM578 932q-92 0 -159 -31t-105 -88t-56 -128.5t-18 -160.5q0 -206 92 -323t254 -117q161 0 251.5 111t90.5 309q0 200 -94 314t-256 114z" />
    <glyph glyph-name="vecy" unicode="&#x432;" horiz-adv-x="1056" 
d="M170 1040h391q182 0 277.5 -72t95.5 -198q0 -179 -174 -235v-5q87 -20 141.5 -83t54.5 -156q0 -137 -95 -214t-265 -77h-426v1040zM297 934v-352h246q256 0 256 176t-256 176h-246zM297 479v-373h260q264 0 264 187q0 186 -264 186h-260z" />
    <glyph glyph-name="gecy" unicode="&#x433;" horiz-adv-x="829" 
d="M801 934h-504v-934h-127v1040h631v-106z" />
    <glyph glyph-name="decy" unicode="&#x434;" horiz-adv-x="1138" 
d="M1106 106v-434h-127v328h-825v-328h-127v434h116q62 88 99 292t55 642h672v-934h137zM842 934h-424q-30 -614 -131 -828h555v828z" />
    <glyph glyph-name="iecy" unicode="&#x435;" horiz-adv-x="1103" 
d="M565 82q124 0 204.5 62t104.5 165h132q-27 -144 -141 -240t-300 -96q-221 0 -348 153t-127 413q0 235 125.5 381.5t341.5 146.5q174 0 290 -99t150 -272q17 -78 17 -200h-795q4 -200 99.5 -307t246.5 -107zM557 958q-144 0 -235.5 -96t-100.5 -262h670q-10 170 -101 264
t-233 94z" />
    <glyph glyph-name="zhecy" unicode="&#x436;" horiz-adv-x="1335" 
d="M1350 0h-176l-439 555h-4v-555h-127v555h-4l-438 -555h-176l477 573l-426 467h172l391 -454h4v454h127v-454h4l391 454h172l-426 -467z" />
    <glyph glyph-name="zecy" unicode="&#x437;" horiz-adv-x="976" 
d="M485 1067q168 0 264.5 -78t96.5 -211q0 -93 -45.5 -151t-132.5 -92v-5q206 -68 206 -258q0 -139 -106 -219t-291 -80q-190 0 -295.5 88t-105.5 246h135q0 -219 266 -219q126 0 195 49.5t69 134.5q0 98 -78 149.5t-223 51.5h-104v107h104q122 0 197.5 52t75.5 136
q0 90 -62 137t-172 47q-123 0 -187.5 -54.5t-64.5 -160.5h-131q0 154 104.5 242t284.5 88z" />
    <glyph glyph-name="iicy" unicode="&#x438;" horiz-adv-x="1224" 
d="M1055 0h-133v408v497h-4q-48 -81 -141 -234t-134 -222l-270 -449h-203v1040h133v-407q0 -332 -2 -498h4q48 82 141.5 236t133.5 221l272 448h203v-1040z" />
    <glyph glyph-name="iishortcy" unicode="&#x439;" horiz-adv-x="1224" 
d="M807 1458h104q-12 -135 -89.5 -209.5t-209.5 -74.5t-209.5 74.5t-89.5 209.5h105q12 -89 62 -135.5t132 -46.5t132 46.5t63 135.5zM1055 0h-133v408v497h-4q-48 -81 -141 -234t-134 -222l-270 -449h-203v1040h133v-407q0 -332 -2 -498h4q48 82 141.5 236t133.5 221
l272 448h203v-1040z" />
    <glyph glyph-name="kacy" unicode="&#x43a;" horiz-adv-x="1015" 
d="M995 0h-176l-518 537h-4v-537h-127v1040h127v-436h4l463 436h172l-504 -467z" />
    <glyph glyph-name="elcy" unicode="&#x43b;" horiz-adv-x="1105" 
d="M936 0h-127v934h-410q-3 -198 -13 -345.5t-29 -251.5t-43.5 -171t-62 -105t-78.5 -52.5t-97 -14.5q-40 0 -64 6v104q20 -4 41 -4q63 0 100.5 33.5t66 135t41.5 285t18 486.5h657v-1040z" />
    <glyph glyph-name="emcy" unicode="&#x43c;" horiz-adv-x="1503" 
d="M1333 0h-125v522v391h-4q-31 -79 -92 -227t-70 -170l-213 -516h-155l-211 516q-103 244 -164 397h-4v-391v-522h-125v1040h211l203 -495q72 -174 166 -410h4q26 67 82.5 205t83.5 205l204 495h209v-1040z" />
    <glyph glyph-name="ency" unicode="&#x43d;" horiz-adv-x="1179" 
d="M1010 0h-127v467h-586v-467h-127v1040h127v-467h586v467h127v-1040z" />
    <glyph glyph-name="ocy" unicode="&#x43e;" horiz-adv-x="1130" 
d="M565 1067q221 0 348 -146t127 -401t-127 -401t-348 -146t-348 146t-127 401t127 401t348 146zM565 956q-161 0 -251.5 -116.5t-90.5 -319.5t90.5 -319.5t251.5 -116.5t252.5 116.5t91.5 319.5t-91.5 319.5t-252.5 116.5z" />
    <glyph glyph-name="pecy" unicode="&#x43f;" horiz-adv-x="1163" 
d="M993 0h-127v934h-569v-934h-127v1040h823v-1040z" />
    <glyph glyph-name="ercy" unicode="&#x440;" horiz-adv-x="1157" 
d="M629 1067q201 0 319.5 -148t118.5 -397t-118.5 -397t-319.5 -148q-112 0 -200 49t-128 132h-4v-537h-127v1419h127v-153h4q40 81 128.5 130.5t199.5 49.5zM608 961q-145 0 -231 -119.5t-86 -319.5t86 -319t231 -119q149 0 237.5 119t88.5 319t-88.5 319.5t-237.5 119.5z
" />
    <glyph glyph-name="escy" unicode="&#x441;" horiz-adv-x="1067" 
d="M561 1067q176 0 292 -107t130 -278h-133q-9 121 -89.5 197.5t-199.5 76.5q-156 0 -245 -116.5t-89 -319.5q0 -204 88.5 -320t245.5 -116q117 0 197.5 83.5t91.5 203.5h133q-14 -173 -129 -285.5t-293 -112.5q-219 0 -345 146t-126 401t126 401t345 146z" />
    <glyph glyph-name="tecy" unicode="&#x442;" horiz-adv-x="899" 
d="M885 934h-369v-934h-131v934h-371v106l871 -2v-104z" />
    <glyph glyph-name="ucy" unicode="&#x443;" horiz-adv-x="933" 
d="M944 1040l-430 -1089q-55 -137 -109 -209t-120.5 -100.5t-171.5 -28.5q-45 0 -76 8v113q31 -8 74 -8q114 0 168.5 52.5t119.5 221.5l-409 1040h137l338 -878h4l338 878h137z" />
    <glyph glyph-name="efcy" unicode="&#x444;" horiz-adv-x="1576" 
d="M852 1458v-475q93 84 217 84q192 0 305 -148t113 -397t-113 -397t-305 -148q-124 0 -217 78v-434h-127v434q-93 -78 -217 -78q-191 0 -304.5 148t-113.5 397t113.5 397t304.5 148q124 0 217 -84v475h127zM530 961q-140 0 -223.5 -120t-83.5 -319t83.5 -318.5
t223.5 -119.5q112 0 195 86v698q-84 93 -195 93zM1049 961q-113 0 -197 -93v-698q83 -86 197 -86q140 0 223.5 119.5t83.5 318.5t-83.5 319t-223.5 120z" />
    <glyph glyph-name="hacy" unicode="&#x445;" horiz-adv-x="956" 
d="M553 545l403 -545h-157l-320 449h-4l-319 -449h-156l401 545l-364 495h156l282 -405h4l285 405h154z" />
    <glyph glyph-name="tsecy" unicode="&#x446;" horiz-adv-x="1165" 
d="M993 106h137v-434h-126v328h-834v1040h127v-934h569v934h127v-934z" />
    <glyph glyph-name="checy" unicode="&#x447;" horiz-adv-x="1030" 
d="M860 0h-127v432q-131 -41 -284 -41q-185 0 -283 85t-98 241v323h127v-311q0 -111 68.5 -170t199.5 -59q146 0 270 43v497h127v-1040z" />
    <glyph glyph-name="shacy" unicode="&#x448;" horiz-adv-x="1697" 
d="M1528 0h-1358v1040h127v-934h487v934h127v-934h490v934h127v-1040z" />
    <glyph glyph-name="shchacy" unicode="&#x449;" horiz-adv-x="1697" 
d="M1528 106h117v-434h-127v328h-1348v1040h127v-934h487v934h127v-934h490v934h127v-934z" />
    <glyph glyph-name="hardsigncy" unicode="&#x44a;" horiz-adv-x="1181" 
d="M469 631h266q187 0 288 -84t101 -232t-101 -231.5t-288 -83.5h-393v934h-328v106h455v-409zM469 524v-418h272q252 0 252 209t-252 209h-272z" />
    <glyph glyph-name="yerucy" unicode="&#x44b;" horiz-adv-x="1415" 
d="M297 631h266q187 0 288 -84t101 -232t-101 -231.5t-288 -83.5h-393v1040h127v-409zM1245 0h-127v1040h127v-1040zM297 524v-418h272q252 0 252 209t-252 209h-272z" />
    <glyph glyph-name="softsigncy" unicode="&#x44c;" horiz-adv-x="1028" 
d="M297 631h266q187 0 288 -84t101 -232t-101 -231.5t-288 -83.5h-393v1040h127v-409zM297 524v-418h272q252 0 252 209t-252 209h-272z" />
    <glyph glyph-name="ereversedcy" unicode="&#x44d;" horiz-adv-x="1067" 
d="M506 1067q217 0 343 -146.5t126 -400.5t-126 -400.5t-343 -146.5q-179 0 -294 112.5t-130 285.5h133q11 -120 92.5 -203.5t198.5 -83.5q147 0 235 104t97 287h-510v107h510q-14 176 -101 275t-231 99q-123 0 -203 -81.5t-88 -192.5h-133q7 77 39 146t85 122.5t130.5 85
t169.5 31.5z" />
    <glyph glyph-name="iucy" unicode="&#x44e;" horiz-adv-x="1556" 
d="M991 1067q221 0 348 -146t127 -401t-127 -401t-348 -146q-209 0 -334 130.5t-139 361.5h-221v-465h-127v1040h127v-467l221 2q14 231 139 361.5t334 130.5zM991 84q161 0 252.5 116.5t91.5 319.5t-91.5 319.5t-252.5 116.5q-160 0 -251 -116.5t-91 -319.5t91 -319.5
t251 -116.5z" />
    <glyph glyph-name="iacy" unicode="&#x44f;" horiz-adv-x="1046" 
d="M877 1040v-1040h-132v414h-264h-32l-252 -414h-158l276 434q-110 33 -165.5 109.5t-55.5 187.5q0 146 100 227.5t295 81.5h388zM745 934h-253q-261 0 -261 -203q-2 -96 60.5 -153.5t189.5 -57.5h264v414z" />
    <glyph glyph-name="iegravecy" unicode="&#x450;" horiz-adv-x="1103" 
d="M549 1169l-236 289h172l185 -289h-121zM565 82q124 0 204.5 62t104.5 165h132q-27 -144 -141 -240t-300 -96q-221 0 -348 153t-127 413q0 235 125.5 381.5t341.5 146.5q174 0 290 -99t150 -272q17 -78 17 -200h-795q4 -200 99.5 -307t246.5 -107zM557 958
q-144 0 -235.5 -96t-100.5 -262h670q-10 170 -101 264t-233 94z" />
    <glyph glyph-name="iocy" unicode="&#x451;" horiz-adv-x="1103" 
d="M424 1278h-125v180h125v-180zM801 1278h-125v180h125v-180zM565 82q124 0 204.5 62t104.5 165h132q-27 -144 -141 -240t-300 -96q-221 0 -348 153t-127 413q0 235 125.5 381.5t341.5 146.5q174 0 290 -99t150 -272q17 -78 17 -200h-795q4 -200 99.5 -307t246.5 -107z
M557 958q-144 0 -235.5 -96t-100.5 -262h670q-10 170 -101 264t-233 94z" />
    <glyph glyph-name="djecy" unicode="&#x452;" 
d="M623 952q181 0 275.5 -108t94.5 -322v-618q0 -291 -270 -291q-41 0 -74 8v111q30 -6 60 -6q79 0 118 41.5t39 140.5v608q0 177 -67.5 251.5t-198.5 74.5q-128 0 -215.5 -89t-87.5 -247v-506h-127v1161h-141v99h141v198h127v-198h475v-99h-475v-370h4q52 80 137 120.5
t185 40.5z" />
    <glyph glyph-name="gjecy" unicode="&#x453;" horiz-adv-x="829" 
d="M487 1169h-120l184 289h172zM801 934h-504v-934h-127v1040h631v-106z" />
    <glyph glyph-name="ecy" unicode="&#x454;" horiz-adv-x="1067" 
d="M561 84q117 0 197.5 83.5t91.5 203.5h133q-14 -173 -129 -285.5t-293 -112.5q-219 0 -345 146t-126 401t126 401t345 146q181 0 295 -112.5t127 -272.5h-133q-8 110 -87.5 192t-201.5 82q-144 0 -232 -99.5t-102 -274.5h510v-107h-510q9 -183 97.5 -287t236.5 -104z" />
    <glyph glyph-name="dzecy" unicode="&#x455;" horiz-adv-x="980" 
d="M471 1067q185 0 287.5 -93t103.5 -263h-127q0 118 -69.5 181.5t-194.5 63.5q-107 0 -171 -47t-64 -125q0 -37 10 -63t27.5 -43t50 -30.5t68.5 -23.5t92 -23q9 -2 14 -3q163 -38 226 -66q140 -63 164 -194q5 -29 5 -62q0 -136 -106 -219.5t-283 -83.5q-197 0 -307 98
t-113 279h129q0 -127 76.5 -196.5t214.5 -69.5q117 0 189.5 50.5t72.5 133.5q0 41 -12.5 70.5t-31.5 48.5t-63.5 36.5t-84 28.5t-117.5 29q-147 35 -202 61q-126 58 -143 186q-3 22 -3 46q0 131 100.5 212t261.5 81z" />
    <glyph glyph-name="icy" unicode="&#x456;" horiz-adv-x="466" 
d="M297 1278h-127v180h127v-180zM297 0h-127v1040h127v-1040z" />
    <glyph glyph-name="yicy" unicode="&#x457;" horiz-adv-x="466" 
d="M150 1278h-125v180h125v-180zM444 1278h-125v180h125v-180zM297 0h-127v1040h127v-1040z" />
    <glyph glyph-name="jecy" unicode="&#x458;" horiz-adv-x="481" 
d="M311 1278h-127v180h127v-180zM311 1040v-1116q0 -311 -272 -311q-38 0 -74 8v111q35 -6 62 -6q79 0 118 46t39 154v1114h127z" />
    <glyph glyph-name="ljecy" unicode="&#x459;" horiz-adv-x="1667" 
d="M936 631h266q187 0 288 -84t101 -232t-101 -231.5t-288 -83.5h-393v934h-410q-3 -198 -13 -345.5t-29 -251.5t-43.5 -171t-62 -105t-78.5 -52.5t-97 -14.5q-40 0 -64 6v104q20 -4 41 -4q63 0 100.5 33.5t66 135t41.5 285t18 486.5h657v-409zM936 524v-418h272
q252 0 252 209t-252 209h-272z" />
    <glyph glyph-name="njecy" unicode="&#x45a;" horiz-adv-x="1740" 
d="M1010 631h266q187 0 288 -84t101 -232t-101 -231.5t-288 -83.5h-393v520h-586v-520h-127v1040h127v-413h586v413h127v-409zM1010 524v-418h272q252 0 252 209t-252 209h-272z" />
    <glyph glyph-name="tshecy" unicode="&#x45b;" 
d="M623 952q181 0 275.5 -108t94.5 -322v-522h-127v516q0 177 -67.5 251.5t-198.5 74.5q-128 0 -215.5 -89t-87.5 -247v-506h-127v1161h-141v99h141v198h127v-198h475v-99h-475v-370h4q52 80 137 120.5t185 40.5z" />
    <glyph glyph-name="kjecy" unicode="&#x45c;" horiz-adv-x="1015" 
d="M532 1169h-120l184 289h172zM995 0h-176l-518 537h-4v-537h-127v1040h127v-436h4l463 436h172l-504 -467z" />
    <glyph glyph-name="iigravecy" unicode="&#x45d;" horiz-adv-x="1224" 
d="M547 1458l184 -289h-121l-235 289h172zM1055 0h-133v408v497h-4q-48 -81 -141 -234t-134 -222l-270 -449h-203v1040h133v-407q0 -332 -2 -498h4q48 82 141.5 236t133.5 221l272 448h203v-1040z" />
    <glyph glyph-name="ushortcy" unicode="&#x45e;" horiz-adv-x="933" 
d="M664 1458h104q-12 -135 -89.5 -209.5t-209.5 -74.5t-209.5 74.5t-89.5 209.5h104q12 -89 62.5 -135.5t132.5 -46.5t132 46.5t63 135.5zM944 1040l-430 -1089q-55 -137 -109 -209t-120.5 -100.5t-171.5 -28.5q-45 0 -76 8v113q31 -8 74 -8q114 0 168.5 52.5t119.5 221.5
l-409 1040h137l338 -878h4l338 878h137z" />
    <glyph glyph-name="dzhecy" unicode="&#x45f;" horiz-adv-x="1163" 
d="M993 0h-348v-328h-127v328h-348v1040h127v-934h569v934h127v-1040z" />
    <glyph glyph-name="Gheupturncy" unicode="&#x490;" horiz-adv-x="978" 
d="M958 1337h-618v-1337h-133v1458h624v314h127v-435z" />
    <glyph glyph-name="gheupturncy" unicode="&#x491;" horiz-adv-x="829" 
d="M801 934h-504v-934h-127v1040h504v328h127v-434z" />
    <glyph glyph-name="Ghestrokecy" unicode="&#x492;" horiz-adv-x="978" 
d="M340 1337v-569h295v-111h-295v-657h-133v657h-135v111h135v690h751v-121h-618z" />
    <glyph glyph-name="ghestrokecy" unicode="&#x493;" horiz-adv-x="831" 
d="M297 934v-371h276v-98h-276v-465h-127v465h-119v98h119v477h631v-106h-504z" />
    <glyph glyph-name="Zhedescendercy" unicode="&#x496;" horiz-adv-x="1753" 
d="M1743 121v-449h-127v328h-45l-623 745h-4v-745h-135v745h-4l-623 -745h-172l643 762l-583 696h166l569 -682h4v682h135v-682h4l570 682h165l-585 -696l542 -641h103z" />
    <glyph glyph-name="zhedescendercy" unicode="&#x497;" horiz-adv-x="1335" 
d="M1350 106v-434h-127v328h-49l-439 555h-4v-555h-127v555h-4l-438 -555h-176l477 573l-426 467h172l391 -454h4v454h127v-454h4l391 454h172l-426 -467l390 -467h88z" />
    <glyph glyph-name="Kadescendercy" unicode="&#x49a;" horiz-adv-x="1243" 
d="M1233 121v-449h-127v328h-59l-703 731h-4v-731h-133v1458h133v-665h4l643 665h180l-678 -696l625 -641h119z" />
    <glyph glyph-name="kadescendercy" unicode="&#x49b;" horiz-adv-x="1015" 
d="M995 106v-434h-127v328h-49l-518 537h-4v-537h-127v1040h127v-436h4l463 436h172l-504 -467l459 -467h104z" />
    <glyph glyph-name="Kaverticalstrokecy" unicode="&#x49c;" horiz-adv-x="1376" 
d="M604 696h-2v-366h-129v366h-133v-696h-133v1458h133v-641h133v367h129v-367h4l535 641h166l-588 -702l647 -756h-172z" />
    <glyph glyph-name="kaverticalstrokecy" unicode="&#x49d;" horiz-adv-x="1110" 
d="M543 518h-4v-297h-121v297h-121v-518h-127v1040h127v-415h121v276h121v-276h4l358 415h170l-422 -465l475 -575h-176z" />
    <glyph glyph-name="Endescendercy" unicode="&#x4a2;" horiz-adv-x="1501" 
d="M1450 -328h-127v328h-166v696h-817v-696h-133v1458h133v-641h817v641h133v-1337h160v-449z" />
    <glyph glyph-name="endescendercy" unicode="&#x4a3;" horiz-adv-x="1179" 
d="M1147 -328h-127v328h-137v467h-586v-467h-127v1040h127v-467h586v467h127v-934h137v-434z" />
    <glyph glyph-name="Ustraitcy" unicode="&#x4ae;" horiz-adv-x="1232" 
d="M684 623v-623h-135v623l-539 835h158l201 -315q17 -26 245 -391h4q164 262 248 391l199 315h158z" />
    <glyph glyph-name="ustraitcy" unicode="&#x4af;" horiz-adv-x="921" 
d="M932 1040l-410 -1054v-365h-125v365l-407 1054h137l164 -432l168 -448h4l168 448l164 432h137z" />
    <glyph glyph-name="Hadescendercy" unicode="&#x4b2;" horiz-adv-x="1263" 
d="M1253 121v-449h-127v328h-47l-446 641h-4l-447 -641h-162l529 752l-500 706h162l418 -598h4l420 598h161l-499 -706l444 -631h94z" />
    <glyph glyph-name="hadescendercy" unicode="&#x4b3;" horiz-adv-x="956" 
d="M956 106v-434h-127v328h-30l-320 449h-4l-319 -449h-156l401 545l-364 495h156l282 -405h4l285 405h154l-365 -495l324 -439h79z" />
    <glyph glyph-name="Cheverticalstrokecy" unicode="&#x4b8;" horiz-adv-x="1280" 
d="M1075 1458v-1458h-135v633q-139 -40 -291 -51v-314h-131v312q-214 9 -327 120t-113 310v448h133v-434q0 -145 78.5 -227.5t228.5 -94.5v453h131v-453q157 9 291 52v704h135z" />
    <glyph glyph-name="cheverticalstrokecy" unicode="&#x4b9;" horiz-adv-x="1030" 
d="M860 1040v-1040h-127v432q-101 -31 -211 -39v-213h-121v213q-162 10 -247.5 94t-85.5 230v323h127v-311q0 -98 52 -155.5t154 -69.5v340h121v-342q102 5 211 41v497h127z" />
    <glyph glyph-name="Shhacy" unicode="&#x4ba;" horiz-adv-x="1280" 
d="M207 1458h133v-633q188 54 385 54q231 0 355 -112t124 -318v-449h-135v434q0 157 -92 240.5t-270 83.5q-200 0 -367 -53v-705h-133v1458z" />
    <glyph glyph-name="shhacy" unicode="&#x4bb;" 
d="M297 901h4q52 80 137.5 121t184.5 41q181 0 275.5 -108t94.5 -322v-633h-127v627q0 177 -67 251t-199 74q-128 0 -215.5 -89t-87.5 -247v-616h-127v1458h127v-557z" />
    <glyph glyph-name="Palochkacy" unicode="&#x4c0;" horiz-adv-x="546" 
d="M340 0h-133v1458h133v-1458z" />
    <glyph glyph-name="palochkacy" unicode="&#x4cf;" horiz-adv-x="466" 
d="M297 0h-127v1458h127v-1458z" />
    <glyph glyph-name="Schwacy" unicode="&#x4d8;" horiz-adv-x="1492" 
d="M719 1485q316 0 499 -205t183 -551q0 -223 -79.5 -393.5t-231 -266.5t-355.5 -96q-296 0 -469.5 203.5t-173.5 552.5q0 21 4 49h1164q-7 277 -155.5 429.5t-385.5 152.5q-181 0 -298 -92t-149 -244h-147q17 97 63.5 179.5t120 146t179 99.5t231.5 36zM735 98
q230 0 370.5 151t151.5 408h-1024q12 -264 149 -411.5t353 -147.5z" />
    <glyph glyph-name="schwacy" unicode="&#x4d9;" horiz-adv-x="1103" 
d="M530 1067q226 0 355 -148t129 -399q0 -160 -55.5 -283t-163 -193.5t-252.5 -70.5q-209 0 -331 147.5t-122 399.5q0 29 2 41h793q-6 193 -103.5 295t-251.5 102q-117 0 -191 -62t-95 -165h-131q25 144 132.5 240t284.5 96zM543 82q147 0 239 100.5t101 274.5h-670
q10 -179 99 -277t231 -98z" />
    <glyph glyph-name="Obarredcy" unicode="&#x4e8;" horiz-adv-x="1482" 
d="M741 1485q296 0 472 -205t176 -551t-176 -551t-472 -205t-472.5 205t-176.5 551t176.5 551t472.5 205zM741 1360q-221 0 -357 -153t-151 -416h1014q-14 263 -149.5 416t-356.5 153zM741 98q221 0 356.5 154.5t149.5 417.5h-1014q15 -263 151 -417.5t357 -154.5z" />
    <glyph glyph-name="obarredcy" unicode="&#x4e9;" horiz-adv-x="1132" 
d="M565 1067q222 0 349.5 -146t127.5 -401t-127.5 -401t-349.5 -146q-221 0 -348 146t-127 401t127 401t348 146zM565 956q-149 0 -239.5 -101.5t-102.5 -281.5h686q-12 180 -103 281.5t-241 101.5zM565 84q151 0 242 102.5t102 282.5h-686q12 -180 102.5 -282.5
t239.5 -102.5z" />
    <glyph glyph-name="Wgrave" unicode="&#x1e80;" horiz-adv-x="1835" 
d="M854 1833l184 -277h-120l-236 277h172zM1456 0h-209l-164 666q-110 446 -163 669h-5q-53 -223 -163 -669l-164 -666h-209l-356 1458h135l151 -620q96 -385 174 -713h4q30 119 89 358.5t88 358.5l151 616h205l151 -616q29 -119 88 -358.5t89 -358.5h4l172 713l153 620h135
z" />
    <glyph glyph-name="wgrave" unicode="&#x1e81;" horiz-adv-x="1536" 
d="M702 1458l185 -289h-121l-236 289h172zM1219 0h-183l-135 471q-89 305 -131 455h-4q-42 -150 -131 -455l-135 -471h-183l-301 1040h131l127 -450q69 -240 134 -475h4l129 460l131 465h192l131 -465l129 -460h4q65 235 134 475l127 450h131z" />
    <glyph glyph-name="Wacute" unicode="&#x1e82;" horiz-adv-x="1835" 
d="M922 1556h-121l184 277h172zM1456 0h-209l-164 666q-110 446 -163 669h-5q-53 -223 -163 -669l-164 -666h-209l-356 1458h135l151 -620q96 -385 174 -713h4q30 119 89 358.5t88 358.5l151 616h205l151 -616q29 -119 88 -358.5t89 -358.5h4l172 713l153 620h135z" />
    <glyph glyph-name="wacute" unicode="&#x1e83;" horiz-adv-x="1536" 
d="M770 1169h-121l185 289h172zM1219 0h-183l-135 471q-89 305 -131 455h-4q-42 -150 -131 -455l-135 -471h-183l-301 1040h131l127 -450q69 -240 134 -475h4l129 460l131 465h192l131 -465l129 -460h4q65 235 134 475l127 450h131z" />
    <glyph glyph-name="Wdieresis" unicode="&#x1e84;" horiz-adv-x="1835" 
d="M793 1593h-125v181h125v-181zM1169 1593h-125v181h125v-181zM1456 0h-209l-164 666q-110 446 -163 669h-5q-53 -223 -163 -669l-164 -666h-209l-356 1458h135l151 -620q96 -385 174 -713h4q30 119 89 358.5t88 358.5l151 616h205l151 -616q29 -119 88 -358.5t89 -358.5h4
l172 713l153 620h135z" />
    <glyph glyph-name="wdieresis" unicode="&#x1e85;" horiz-adv-x="1536" 
d="M641 1278h-125v180h125v-180zM1018 1278h-125v180h125v-180zM1219 0h-183l-135 471q-89 305 -131 455h-4q-42 -150 -131 -455l-135 -471h-183l-301 1040h131l127 -450q69 -240 134 -475h4l129 460l131 465h192l131 -465l129 -460h4q65 235 134 475l127 450h131z" />
    <glyph glyph-name="Germandbls" unicode="&#x1e9e;" horiz-adv-x="1540" 
d="M1321 1235l-356 -375q233 -42 354 -157t121 -314q0 -197 -125.5 -304.5t-337.5 -107.5q-207 0 -318.5 98.5t-111.5 284.5h137q0 -126 74 -193t219 -67q151 0 237 75t86 214q0 174 -123 262t-368 109v106l340 359q-66 64 -161.5 100.5t-207.5 36.5q-227 0 -344 -121.5
t-117 -359.5v-881h-133v881q0 289 155 446.5t441 157.5q167 0 307.5 -68t231.5 -182z" />
    <glyph glyph-name="Ygrave" unicode="&#x1ef2;" horiz-adv-x="1232" 
d="M551 1833l184 -277h-121l-235 277h172zM684 623v-623h-135v623l-539 835h158l201 -315q17 -26 245 -391h4q164 262 248 391l199 315h158z" />
    <glyph glyph-name="ygrave" unicode="&#x1ef3;" horiz-adv-x="933" 
d="M401 1458l185 -289h-121l-236 289h172zM944 1040l-430 -1089q-55 -137 -109 -209t-120.5 -100.5t-171.5 -28.5q-45 0 -76 8v113q31 -8 74 -8q114 0 168.5 52.5t119.5 221.5l-409 1040h137l338 -878h4l338 878h137z" />
    <glyph glyph-name="hyphentwo" unicode="&#x2010;" horiz-adv-x="593" 
d="M532 535h-471v127h471v-127z" />
    <glyph glyph-name="endash" unicode="&#x2013;" horiz-adv-x="1024" 
d="M983 535h-942v127h942v-127z" />
    <glyph glyph-name="emdash" unicode="&#x2014;" horiz-adv-x="2048" 
d="M2007 535h-1966v127h1966v-127z" />
    <glyph glyph-name="horizontalbar" unicode="&#x2015;" horiz-adv-x="2048" 
d="M2007 535h-1966v127h1966v-127z" />
    <glyph glyph-name="underscoredbl" unicode="&#x2017;" horiz-adv-x="1024" 
d="M1024 -180h-1024v78h1024v-78zM1024 -430h-1024v78h1024v-78z" />
    <glyph glyph-name="quoteleft" unicode="&#x2018;" horiz-adv-x="468" 
d="M147 1196l84 262h91l-62 -262h59v-184h-172v184z" />
    <glyph glyph-name="quoteright" unicode="&#x2019;" horiz-adv-x="468" 
d="M319 1274l-81 -262h-91l60 262h-60v184h172v-184z" />
    <glyph glyph-name="quotesinglbase" unicode="&#x201a;" horiz-adv-x="468" 
d="M319 0l-81 -262h-91l60 262h-60v184h172v-184z" />
    <glyph glyph-name="quotereversed" unicode="&#x201b;" horiz-adv-x="468" 
d="M319 1458v-184h-59l62 -262h-91l-84 262v184h172z" />
    <glyph glyph-name="quotedblleft" unicode="&#x201c;" horiz-adv-x="776" 
d="M147 1196l84 262h91l-62 -262h59v-184h-172v184zM455 1196l84 262h90l-62 -262h60v-184h-172v184z" />
    <glyph glyph-name="quotedblright" unicode="&#x201d;" horiz-adv-x="776" 
d="M319 1274l-81 -262h-91l60 262h-60v184h172v-184zM627 1274l-82 -262h-90l59 262h-59v184h172v-184z" />
    <glyph glyph-name="quotedblbase" unicode="&#x201e;" horiz-adv-x="776" 
d="M319 0l-81 -262h-91l60 262h-60v184h172v-184zM627 0l-82 -262h-90l59 262h-59v184h172v-184z" />
    <glyph glyph-name="dagger" unicode="&#x2020;" horiz-adv-x="1071" 
d="M602 1055h359v-113h-359v-1188h-133v1188h-358v113h358v403h133v-403z" />
    <glyph glyph-name="daggerdbl" unicode="&#x2021;" horiz-adv-x="1071" 
d="M602 1057h359v-113h-359v-549h359v-112h-359v-529h-133v529h-358v112h358v549h-358v113h358v401h133v-401z" />
    <glyph glyph-name="bullet" unicode="&#x2022;" horiz-adv-x="659" 
d="M330 520q-86 0 -147.5 61.5t-61.5 147.5t61.5 147.5t147.5 61.5q88 0 149.5 -61.5t61.5 -147.5t-61.5 -147.5t-149.5 -61.5z" />
    <glyph glyph-name="ellipsis" unicode="&#x2026;" horiz-adv-x="1394" 
d="M303 0h-176v188h176v-188zM784 0h-174v188h174v-188zM1268 0h-176v188h176v-188z" />
    <glyph glyph-name="perthousand" unicode="&#x2030;" horiz-adv-x="1996" 
d="M303 -61h-127l866 1503h129zM326 1407q126 0 195 -86.5t69 -245.5q0 -161 -69 -247.5t-195 -86.5t-195.5 86.5t-69.5 247.5q0 159 69.5 245.5t195.5 86.5zM326 1303q-66 0 -104 -60t-38 -168q0 -109 37.5 -168t104.5 -59t104 59t37 168q0 108 -37.5 168t-103.5 60z
M1020 641q126 0 195 -86.5t69 -247.5q0 -159 -69 -245.5t-195 -86.5q-125 0 -194.5 86.5t-69.5 245.5q0 160 69.5 247t194.5 87zM1671 641q126 0 195 -86.5t69 -247.5q0 -159 -69 -245.5t-195 -86.5q-125 0 -194.5 86.5t-69.5 245.5q0 160 69.5 247t194.5 87zM1020 535
q-66 0 -102.5 -59t-36.5 -169q0 -109 36.5 -168t102.5 -59q68 0 104.5 59t36.5 168q0 110 -36.5 169t-104.5 59zM1671 535q-66 0 -102.5 -59t-36.5 -169q0 -109 36.5 -168t102.5 -59q68 0 104.5 59t36.5 168q0 110 -36.5 169t-104.5 59z" />
    <glyph glyph-name="minute" unicode="&#x2032;" horiz-adv-x="352" 
d="M147 930h-86l97 450h133z" />
    <glyph glyph-name="second" unicode="&#x2033;" horiz-adv-x="606" 
d="M147 930h-86l97 450h133zM420 930h-86l96 450h133z" />
    <glyph glyph-name="guilsinglleft" unicode="&#x2039;" horiz-adv-x="565" 
d="M233 520l230 -409h-127l-234 409l234 410h127z" />
    <glyph glyph-name="guilsinglright" unicode="&#x203a;" horiz-adv-x="565" 
d="M229 930l234 -410l-234 -409h-127l230 409l-230 410h127z" />
    <glyph glyph-name="exclamdouble" unicode="&#x203c;" horiz-adv-x="948" 
d="M309 336h-104l-33 1122h170zM745 336h-106l-33 1122h172zM338 0h-162v190h162v-190zM772 0h-162v190h162v-190z" />
    <glyph glyph-name="interrobang" unicode="&#x203d;" horiz-adv-x="1026" 
d="M578 1458l-5 -137q167 -9 269 -98t102 -226q0 -112 -43.5 -186.5t-181.5 -185.5q-71 -55 -102 -90.5t-45.5 -84.5t-14.5 -133h-106l-23 875q-102 -22 -160 -90t-65 -176h-131q9 166 101 265t253 124l-4 143h156zM643 702q101 95 131.5 152.5t30.5 140.5q0 87 -63 142
t-171 63l-16 -577h4q19 22 84 79zM422 190h162v-190h-162v190z" />
    <glyph glyph-name="overline" unicode="&#x203e;" horiz-adv-x="1024" 
d="M1024 1624h-1024v107h1024v-107z" />
    <glyph glyph-name="fraction" unicode="&#x2044;" horiz-adv-x="301" 
d="M-184 0h-133l802 1380h133z" />
    <glyph glyph-name="zerosuperior" unicode="&#x2070;" horiz-adv-x="851" 
d="M426 1663q169 0 258.5 -129t89.5 -375q0 -243 -89.5 -373.5t-258.5 -130.5q-168 0 -257 130t-89 374q0 246 88.5 375t257.5 129zM426 1556q-109 0 -168 -102t-59 -295q0 -194 59 -297.5t168 -103.5t168 103.5t59 297.5q0 193 -59 295t-168 102z" />
    <glyph glyph-name="foursuperior" unicode="&#x2074;" horiz-adv-x="786" 
d="M764 930h-168v-254h-113v254h-460v112l421 600h152v-610h168v-102zM137 1032h348v133v353h-4q-27 -39 -106.5 -151t-122.5 -175z" />
    <glyph glyph-name="fivesuperior" unicode="&#x2075;" horiz-adv-x="811" 
d="M686 1540h-440l-31 -303h4q33 35 85.5 54.5t107.5 19.5q148 0 233.5 -85.5t85.5 -232.5q0 -155 -91 -246.5t-245 -91.5q-141 0 -227 74.5t-86 202.5h119q1 -80 55 -125t139 -45q100 0 158.5 61.5t58.5 165.5q0 101 -56 160t-150 59q-76 0 -128.5 -38t-72.5 -107l-117 8
l55 571h543v-102z" />
    <glyph glyph-name="sixsuperior" unicode="&#x2076;" horiz-adv-x="821" 
d="M436 1663q130 0 209 -71.5t90 -196.5h-119q-27 161 -182 161q-110 0 -174 -92t-70 -276h5q82 119 243 119q139 0 225.5 -88t86.5 -232q0 -148 -91 -240t-237 -92q-167 0 -254.5 117.5t-87.5 347.5q0 264 92.5 403.5t263.5 139.5zM424 1204q-95 0 -154 -61t-59 -158
q0 -104 57 -163.5t154 -59.5q93 0 151 62t58 163q0 97 -57 157t-150 60z" />
    <glyph glyph-name="sevensuperior" unicode="&#x2077;" horiz-adv-x="712" 
d="M690 1642v-104q-118 -164 -212 -385t-146 -477h-131q123 510 364 864h-542v102h667z" />
    <glyph glyph-name="eightsuperior" unicode="&#x2078;" horiz-adv-x="817" 
d="M410 1663q139 0 228 -75.5t89 -192.5q0 -141 -162 -217v-4q183 -65 183 -234q0 -126 -94.5 -205.5t-243.5 -79.5q-150 0 -244 79.5t-94 205.5q0 170 180 234v4q-162 76 -162 217q0 117 89.5 192.5t230.5 75.5zM410 1556q-90 0 -145.5 -44t-55.5 -117q0 -78 54.5 -124
t146.5 -46q91 0 145.5 46t54.5 124q0 73 -55 117t-145 44zM410 1124q-96 0 -158 -51t-62 -129q0 -84 60.5 -133t159.5 -49q98 0 157.5 49t59.5 133q0 78 -61 129t-156 51z" />
    <glyph glyph-name="ninesuperior" unicode="&#x2079;" horiz-adv-x="821" 
d="M385 655q-130 0 -209 72t-90 197h119q28 -162 182 -162q110 0 174 92t70 276h-4q-81 -118 -244 -118q-139 0 -225 87.5t-86 231.5q0 148 91 240t238 92q166 0 253 -117.5t87 -347.5q0 -264 -92.5 -403.5t-263.5 -139.5zM397 1114q95 0 154 61t59 158q0 104 -57 163.5
t-154 59.5q-93 0 -151 -62t-58 -163q0 -97 57 -157t150 -60z" />
    <glyph glyph-name="plussuperior" unicode="&#x207a;" horiz-adv-x="829" 
d="M463 1178h260v-97h-260v-252h-96v252h-261v97h261v254h96v-254z" />
    <glyph glyph-name="minussuperior" unicode="&#x207b;" horiz-adv-x="829" 
d="M723 1081h-617v97h617v-97z" />
    <glyph glyph-name="equalsuperior" unicode="&#x207c;" horiz-adv-x="829" 
d="M723 1196h-617v96h617v-96zM723 967h-617v96h617v-96z" />
    <glyph glyph-name="parenleftsuperior" unicode="&#x207d;" horiz-adv-x="417" 
d="M274 1739h101q-91 -159 -132.5 -310t-41.5 -327t41.5 -327t132.5 -310h-101q-196 287 -196 637q0 184 49 338t147 299z" />
    <glyph glyph-name="parenrightsuperior" unicode="&#x207e;" horiz-adv-x="417" 
d="M143 465h-100q91 159 132.5 310t41.5 327t-41.5 327t-132.5 310h100q98 -144 147.5 -298.5t49.5 -338.5t-49 -337.5t-148 -299.5z" />
    <glyph glyph-name="zeroinferior" unicode="&#x2080;" horiz-adv-x="851" 
d="M424 635q169 0 258.5 -129t89.5 -375q0 -243 -89.5 -373.5t-258.5 -130.5q-168 0 -257 130t-89 374q0 246 88.5 375t257.5 129zM424 528q-109 0 -168 -102t-59 -295q0 -194 59 -297.5t168 -103.5t168 103.5t59 297.5q0 193 -59 295t-168 102z" />
    <glyph glyph-name="oneinferior" unicode="&#x2081;" horiz-adv-x="507" 
d="M350 -352h-114v712h-216v93q115 0 170 36.5t68 124.5h92v-966z" />
    <glyph glyph-name="twoinferior" unicode="&#x2082;" horiz-adv-x="823" 
d="M418 635q138 0 222.5 -75t84.5 -195q0 -49 -15.5 -92.5t-38.5 -76t-63.5 -65.5t-76.5 -56t-91 -55q-142 -80 -191.5 -138t-49.5 -132h549v-102h-664q-4 10 -4 30q0 74 11 126t43 104.5t90.5 100t152.5 100.5q63 36 97.5 58.5t67.5 53.5t46.5 65.5t13.5 78.5
q0 73 -50.5 118t-135.5 45q-188 0 -201 -192h-121q6 138 94.5 218.5t229.5 80.5z" />
    <glyph glyph-name="threeinferior" unicode="&#x2083;" horiz-adv-x="811" 
d="M395 635q148 0 234 -72t86 -192q0 -84 -39.5 -138.5t-126.5 -89.5v-4q96 -35 139 -91t43 -148q0 -120 -94 -196.5t-240 -76.5q-156 0 -243.5 81.5t-87.5 223.5h118q0 -200 213 -200q95 0 154 47.5t59 124.5q0 89 -62.5 135.5t-182.5 46.5h-37v102h37q106 0 168.5 46.5
t62.5 127.5q0 76 -55.5 121t-149.5 45q-198 0 -198 -194h-119q0 141 86.5 221t234.5 80z" />
    <glyph glyph-name="fourinferior" unicode="&#x2084;" horiz-adv-x="786" 
d="M762 -98h-168v-254h-113v254h-461v112l422 600h152v-610h168v-102zM135 4h348v133v352h-4q-29 -42 -107.5 -152.5t-121.5 -172.5z" />
    <glyph glyph-name="fiveinferior" unicode="&#x2085;" horiz-adv-x="811" 
d="M686 512h-440l-31 -303h4q33 35 85.5 54.5t107.5 19.5q148 0 233.5 -85.5t85.5 -232.5q0 -155 -91 -246.5t-245 -91.5q-141 0 -227 74.5t-86 202.5h119q1 -80 55 -125t139 -45q100 0 158.5 61.5t58.5 165.5q0 101 -56 160t-150 59q-76 0 -128.5 -38t-72.5 -107l-117 8
l55 571h543v-102z" />
    <glyph glyph-name="sixinferior" unicode="&#x2086;" horiz-adv-x="821" 
d="M434 635q130 0 209 -71.5t90 -196.5h-119q-27 161 -182 161q-110 0 -174 -92t-70 -276h5q82 119 243 119q139 0 225.5 -88t86.5 -232q0 -148 -91 -240t-237 -92q-167 0 -254.5 117.5t-87.5 347.5q0 264 92.5 403.5t263.5 139.5zM422 176q-95 0 -154 -61t-59 -158
q0 -104 57 -163.5t154 -59.5q93 0 151 62t58 163q0 97 -57 157t-150 60z" />
    <glyph glyph-name="seveninferior" unicode="&#x2087;" horiz-adv-x="712" 
d="M688 614v-104q-118 -164 -212 -385t-146 -477h-131q123 510 364 864h-543v102h668z" />
    <glyph glyph-name="eightinferior" unicode="&#x2088;" horiz-adv-x="817" 
d="M410 635q139 0 228 -75.5t89 -192.5q0 -141 -162 -217v-5q183 -65 183 -233q0 -126 -94.5 -205.5t-243.5 -79.5q-150 0 -244 79.5t-94 205.5q0 169 180 233v5q-162 76 -162 217q0 117 89.5 192.5t230.5 75.5zM410 528q-90 0 -145.5 -44t-55.5 -117q0 -78 54.5 -124
t146.5 -46q91 0 145.5 46t54.5 124q0 73 -55 117t-145 44zM410 96q-96 0 -158 -51t-62 -129q0 -84 60.5 -133t159.5 -49q98 0 157.5 49t59.5 133q0 78 -61 129t-156 51z" />
    <glyph glyph-name="nineinferior" unicode="&#x2089;" horiz-adv-x="821" 
d="M385 -373q-130 0 -209 72t-90 197h119q28 -162 182 -162q110 0 174 92t70 276h-4q-81 -118 -244 -118q-139 0 -225 87.5t-86 231.5q0 148 91 240t238 92q166 0 253 -117.5t87 -347.5q0 -264 -92.5 -403.5t-263.5 -139.5zM397 86q95 0 154 61t59 158q0 104 -57 163.5
t-154 59.5q-93 0 -151 -62t-58 -163q0 -97 57 -157t150 -60z" />
    <glyph glyph-name="plusinferior" unicode="&#x208a;" horiz-adv-x="831" 
d="M465 150h260v-97h-260v-252h-96v252h-260v97h260v253h96v-253z" />
    <glyph glyph-name="minusinferior" unicode="&#x208b;" horiz-adv-x="831" 
d="M725 53h-616v97h616v-97z" />
    <glyph glyph-name="equalinferior" unicode="&#x208c;" horiz-adv-x="831" 
d="M725 168h-616v96h616v-96zM725 -61h-616v96h616v-96z" />
    <glyph glyph-name="parenleftinferior" unicode="&#x208d;" horiz-adv-x="417" 
d="M274 711h101q-91 -159 -132.5 -310t-41.5 -327t41.5 -327t132.5 -310h-101q-196 287 -196 637q0 184 49 338t147 299z" />
    <glyph glyph-name="parenrightinferior" unicode="&#x208e;" horiz-adv-x="417" 
d="M143 -563h-100q91 159 132.5 310t41.5 327t-41.5 327t-132.5 310h100q98 -144 147.5 -298.5t49.5 -338.5t-49 -337.5t-148 -299.5z" />
    <glyph glyph-name="ninferior" unicode="&#x2099;" horiz-adv-x="837" 
d="M457 393q270 0 270 -303v-442h-109v436q0 120 -45 167.5t-137 47.5q-89 0 -148 -58.5t-59 -168.5v-424h-110v729h108v-92h4q34 48 94 78t132 30z" />
    <glyph glyph-name="franc" unicode="&#x20a3;" horiz-adv-x="1114" 
d="M362 1260v-449h637v-123h-637v-268h363v-113h-363v-307h-135v307h-178v113h178v960h815v-120h-680z" />
    <glyph glyph-name="lira" unicode="&#x20a4;" horiz-adv-x="1114" 
d="M285 115h731v-115h-967v115q205 0 205 278v105h-205v110h205v131h-205v109h205v133q0 210 101 318t288 108q178 0 279.5 -109t101.5 -301h-127q0 138 -67 212.5t-187 74.5q-127 0 -193.5 -77.5t-66.5 -225.5v-133h260v-109h-260v-131h260v-110h-260v-105
q0 -107 -22.5 -170t-75.5 -104v-4z" />
    <glyph glyph-name="peseta" unicode="&#x20a7;" horiz-adv-x="1660" 
d="M1532 104q36 0 72 9v-109q-45 -10 -95 -10q-134 0 -194 65t-60 215v660h-155q-8 -188 -137 -296t-361 -108h-262v-530h-133v1380h395q213 0 339 -90t153 -250h161v242h127v-242h211v-106h-211v-658q0 -93 34.5 -132.5t115.5 -39.5zM340 651h260q176 0 268.5 80t92.5 225
q0 143 -92.5 223.5t-268.5 80.5h-260v-609z" />
    <glyph glyph-name="euro" unicode="&#x20ac;" horiz-adv-x="1114" 
d="M942 414h139q-26 -215 -144 -328t-314 -113q-213 0 -343.5 137.5t-164.5 399.5h-113l21 108h83l-2 72q0 42 2 60h-104l21 108h90q32 268 163 408.5t347 140.5q200 0 316.5 -111t133.5 -321h-139q-12 149 -93 228t-218 79q-155 0 -249 -108.5t-120 -315.5h561l-20 -108
h-549l-2 -60q0 -49 2 -72h526l-22 -108h-494q28 -202 121 -307t246 -105q134 0 216.5 81.5t102.5 234.5z" />
    <glyph glyph-name="rupeeIndian" unicode="&#x20b9;" horiz-adv-x="1114" 
d="M682 1270v-4q124 -48 145 -193h230l-31 -110h-199q-19 -117 -111 -198t-241 -110v-4q70 -30 124.5 -91t107.5 -165l192 -395h-149l-177 365q-65 135 -144 192t-196 57h-32v113h88q169 0 272 63.5t125 172.5h-629l31 110h600q-40 197 -381 197h-250l31 110h969l-31 -110
h-344z" />
    <glyph glyph-name="liraTurkish" unicode="&#x20ba;" horiz-adv-x="1114" 
d="M915 647h138q0 -322 -177.5 -487.5t-506.5 -165.5q-69 0 -127 6v594l-195 -107v125l195 107v196l-195 -106v125l195 106v340h133v-278l344 184v-123l-344 -184v-199l344 187v-123l-344 -187v-542q260 0 400 134t140 398z" />
    <glyph glyph-name="uni20BC" unicode="&#x20bc;" horiz-adv-x="1282" 
d="M100 0v647q0 291 113.5 424.5t361.5 142.5v244h132v-244q248 -9 360.5 -142.5t112.5 -424.5v-647h-131v647q0 230 -78.5 329t-263.5 107v-1083h-132v1083q-185 -8 -263.5 -107t-78.5 -329v-647h-133z" />
    <glyph glyph-name="ruble" unicode="&#x20bd;" horiz-adv-x="1114" 
d="M197 1380h397q221 0 339 -107t118 -296q0 -188 -118.5 -297t-338.5 -109h-270v-151h419v-113h-419v-307h-127v307h-170v113h170v151h-170v115h170v694zM324 1266v-580h270q157 0 240.5 76.5t83.5 214.5t-83.5 213.5t-240.5 75.5h-270z" />
    <glyph glyph-name="careof" unicode="&#x2105;" horiz-adv-x="1765" 
d="M410 1407q134 0 217.5 -81.5t93.5 -195.5h-115q-5 69 -59 124t-137 55q-106 0 -167 -76.5t-61 -208.5t61 -208.5t167 -76.5q79 0 134.5 55.5t61.5 131.5h115q-9 -123 -94 -205t-217 -82q-160 0 -252 102.5t-92 282.5q0 178 92 280.5t252 102.5zM530 0h-131l803 1380h133z
M1352 741q163 0 256.5 -102.5t93.5 -280.5q0 -180 -93.5 -282.5t-256.5 -102.5q-162 0 -257.5 103t-95.5 282q0 178 95.5 280.5t257.5 102.5zM1352 647q-109 0 -171.5 -77.5t-62.5 -211.5t62.5 -211t171.5 -77q110 0 172.5 77t62.5 211t-62.5 211.5t-172.5 77.5z" />
    <glyph glyph-name="literSign" unicode="&#x2113;" horiz-adv-x="890" 
d="M365 414v-127q0 -103 37 -149t122 -46q50 0 103 17v-109q-55 -18 -127 -18q-134 0 -198 73.5t-64 231.5v112h-9q-58 0 -112 13v90q58 -10 112 -10h9v509q0 227 58 316.5t185 89.5q111 0 178.5 -93.5t67.5 -297.5q0 -266 -96 -414t-266 -188zM365 1020v-510
q266 84 266 506q0 153 -39 221t-103 68q-68 0 -96 -61t-28 -224z" />
    <glyph glyph-name="numero" unicode="&#x2116;" horiz-adv-x="2293" 
d="M1319 0h-203l-379 647q-71 121 -202.5 348t-192.5 330h-4q0 -122 1 -364.5t1 -364.5v-596h-133v1458h203l378 -647q72 -123 204.5 -350.5t191.5 -327.5h4q-2 244 -2 729v596h133v-1458zM1880 1255q163 0 256.5 -103t93.5 -282q0 -180 -93.5 -282.5t-256.5 -102.5
q-162 0 -257 103t-95 282q0 178 95 281.5t257 103.5zM1880 1161q-109 0 -171 -78t-62 -213q0 -134 62 -211t171 -77q110 0 173 77t63 211q0 135 -63 213t-173 78zM2193 238h-628v108h628v-108z" />
    <glyph glyph-name="published" unicode="&#x2117;" horiz-adv-x="1667" 
d="M834 1481q330 0 531.5 -207t201.5 -545t-201.5 -545t-531.5 -207q-217 0 -384 93.5t-258.5 264.5t-91.5 394t91.5 394t258.5 264.5t384 93.5zM834 1393q-292 0 -470 -182.5t-178 -481.5t178 -481t470 -182q291 0 469 182t178 481t-178 481.5t-469 182.5zM557 1204h332
q178 0 273 -79t95 -224q0 -142 -95.5 -221.5t-272.5 -79.5h-203v-375h-129v979zM686 1087v-368h201q237 0 237 182q0 93 -61 139.5t-176 46.5h-201z" />
    <glyph glyph-name="trademark" unicode="&#x2122;" horiz-adv-x="1611" 
d="M610 1364h-248v-635h-104v635h-248v94h600v-94zM1507 729h-102v354v258h-4q-16 -43 -45.5 -128t-46.5 -128l-135 -356h-117l-133 356q-12 31 -93 256h-4q0 -43 1 -129.5t1 -128.5v-354h-104v729h168l121 -336q18 -46 100 -276h4l99 276l124 336h166v-729z" />
    <glyph glyph-name="Ohm" unicode="&#x2126;" horiz-adv-x="1486" 
d="M743 1485q142 0 257.5 -40t200.5 -118.5t132 -203t47 -285.5q0 -107 -25.5 -206t-75.5 -187.5t-108 -163t-137 -156.5v-4h369v-121h-518v125q83 86 141 157.5t110.5 159.5t78.5 184.5t26 202.5q0 260 -135.5 395.5t-362.5 135.5q-225 0 -360 -135.5t-135 -395.5
q0 -106 26 -202.5t78 -184.5t109.5 -160t140.5 -157v-125h-518v121h369v4q-80 82 -138 156.5t-108 163t-75.5 187.5t-25.5 206q0 161 47 285.5t132.5 203t201 118.5t256.5 40z" />
    <glyph glyph-name="estimated" unicode="&#x212e;" horiz-adv-x="1759" 
d="M881 1407q181 0 330.5 -59.5t247 -161t151 -235t53.5 -283.5h-1249q-12 0 -19.5 -7t-7.5 -18v-340q0 -34 6 -54t25 -36q189 -186 463 -186q147 0 276 61t211 162h141q-37 -52 -91.5 -98t-131 -87.5t-181.5 -65.5t-224 -24q-175 0 -322.5 53.5t-248.5 147.5t-157.5 226
t-56.5 286q0 152 54.5 283.5t154 228t248 152t328.5 55.5zM881 1354q-272 0 -463 -191q-19 -18 -25 -35.5t-6 -48.5v-340q0 -26 27 -26h929q27 0 27 26v340q0 31 -6 48.5t-25 35.5q-194 191 -458 191z" />
    <glyph glyph-name="oneeighth" unicode="&#x215b;" horiz-adv-x="1466" 
d="M317 553h-114v596h-185v94q99 0 147 31.5t60 105.5h92v-827zM266 0h-133l803 1380h133zM1110 846q123 0 202 -65.5t79 -166.5q0 -120 -134 -184v-2q148 -56 148 -201q0 -109 -82 -177t-213 -68q-133 0 -215 68t-82 177q0 144 148 201v2q-134 64 -134 184
q0 101 79.5 166.5t203.5 65.5zM1110 739q-76 0 -121 -33.5t-45 -91.5q0 -64 45 -100.5t121 -36.5t120 36.5t44 100.5q0 58 -45 91.5t-119 33.5zM1110 375q-80 0 -130 -40t-50 -106t49 -103.5t131 -37.5q80 0 129 38t49 103q0 66 -49.5 106t-128.5 40z" />
    <glyph glyph-name="threeeighths" unicode="&#x215c;" horiz-adv-x="1724" 
d="M348 1399q129 0 203 -62t74 -166q0 -70 -31.5 -115t-104.5 -77v-4q79 -32 114.5 -81t35.5 -124q0 -104 -81 -169.5t-210 -65.5q-138 0 -215.5 71t-77.5 197h117q0 -85 44 -123.5t132 -38.5q78 0 125 36t47 97q0 71 -53 109.5t-154 38.5h-26v102h26q88 0 140.5 37.5
t52.5 101.5q0 60 -42.5 94.5t-117.5 34.5q-83 0 -124.5 -37.5t-41.5 -117.5h-117q0 123 77 192.5t208 69.5zM524 0h-133l803 1380h133zM1368 846q123 0 202 -65.5t79 -166.5q0 -121 -133 -184v-2q147 -55 147 -201q0 -109 -82 -177t-213 -68q-133 0 -215 68t-82 177
q0 144 148 201v2q-134 64 -134 184q0 101 79.5 166.5t203.5 65.5zM1368 739q-76 0 -121 -33.5t-45 -91.5q0 -64 45 -100.5t121 -36.5t120 36.5t44 100.5q0 58 -45 91.5t-119 33.5zM1368 375q-80 0 -130 -40t-50 -106t49 -103.5t131 -37.5q80 0 129 38t49 103q0 66 -49.5 106
t-128.5 40z" />
    <glyph glyph-name="fiveeighths" unicode="&#x215d;" horiz-adv-x="1728" 
d="M602 1276h-377l-20 -232h2q55 58 158 58q128 0 203 -76t75 -205q0 -131 -80.5 -208.5t-214.5 -77.5q-126 0 -202 64t-76 175h116q1 -63 46.5 -98t113.5 -35q83 0 130.5 48.5t47.5 133.5q0 79 -45.5 125.5t-122.5 46.5q-133 0 -163 -112l-115 6l45 491h479v-104zM526 0
h-133l803 1380h133zM1370 846q123 0 202 -65.5t79 -166.5q0 -121 -133 -184v-2q147 -55 147 -201q0 -109 -82 -177t-213 -68q-133 0 -215 68t-82 177q0 144 148 201v2q-134 64 -134 184q0 101 79.5 166.5t203.5 65.5zM1370 739q-76 0 -121 -33.5t-45 -91.5q0 -64 45 -100.5
t121 -36.5t120 36.5t44 100.5q0 58 -45 91.5t-119 33.5zM1370 375q-80 0 -130 -40t-50 -106t49 -103.5t131 -37.5q80 0 129 38t49 103q0 66 -49.5 106t-128.5 40z" />
    <glyph glyph-name="seveneighths" unicode="&#x215e;" horiz-adv-x="1536" 
d="M600 1380v-104q-99 -131 -179.5 -321t-123.5 -402h-123q57 233 137 417t164 306h-457v104h582zM334 0h-133l803 1380h133zM1178 846q123 0 201.5 -65.5t78.5 -166.5q0 -121 -133 -184v-2q148 -56 148 -201q0 -109 -82 -177t-213 -68q-133 0 -215 68t-82 177
q0 145 147 201v2q-133 63 -133 184q0 101 79.5 166.5t203.5 65.5zM1178 739q-76 0 -121 -33.5t-45 -91.5q0 -64 45 -100.5t121 -36.5q75 0 119 36.5t44 100.5q0 58 -44.5 91.5t-118.5 33.5zM1178 375q-80 0 -130.5 -40t-50.5 -106q0 -65 49.5 -103t131.5 -38q80 0 129 38
t49 103q0 66 -49.5 106t-128.5 40z" />
    <glyph glyph-name="Sevenroman" unicode="&#x2166;" horiz-adv-x="2316" 
d="M723 0h-180l-529 1458h142l247 -690l228 -639h4q38 106 112.5 319t112.5 320l248 690h141zM1563 0h-133v1458h133v-1458zM2109 0h-133v1458h133v-1458z" />
    <glyph glyph-name="partialdiff" unicode="&#x2202;" horiz-adv-x="1206" 
d="M551 1485q247 0 380.5 -183.5t133.5 -535.5q0 -204 -40.5 -359.5t-112 -248.5t-161.5 -139t-196 -46q-215 0 -335 130t-120 348q0 148 55 267.5t162 190t248 70.5q136 0 226 -58.5t131 -148.5h4q2 23 2 68q0 237 -102 379.5t-273 142.5q-230 0 -262 -236h-139
q18 167 117.5 263t281.5 96zM573 856q-150 0 -241.5 -115.5t-91.5 -296.5q0 -163 80.5 -255.5t234.5 -92.5q157 0 247.5 115.5t90.5 288.5q0 161 -85.5 258.5t-234.5 97.5z" />
    <glyph glyph-name="increment" unicode="&#x2206;" horiz-adv-x="1359" 
d="M1348 0h-1336l578 1458h182zM1157 121l-242 624q-149 384 -233 605h-4q-47 -123 -133.5 -346t-100.5 -259l-241 -624h954z" />
    <glyph glyph-name="product" unicode="&#x220f;" horiz-adv-x="1335" 
d="M1128 -246h-133v1583h-655v-1583h-133v1704h921v-1704z" />
    <glyph glyph-name="summation" unicode="&#x2211;" horiz-adv-x="964" 
d="M893 1339h-674l438 -741l-438 -725h674v-119h-821v119l442 725l-442 741v119h821v-119z" />
    <glyph glyph-name="minus" unicode="&#x2212;" horiz-adv-x="1159" 
d="M1008 590h-856v117h856v-117z" />
    <glyph glyph-name="divisionslash" unicode="&#x2215;" horiz-adv-x="905" 
d="M193 -182h-132l609 1708h131z" />
    <glyph glyph-name="bulletoperator" unicode="&#x2219;" horiz-adv-x="686" 
d="M430 532h-174v187h174v-187z" />
    <glyph glyph-name="radical" unicode="&#x221a;" horiz-adv-x="1107" 
d="M580 -246h-158l-205 860h-166v107h252l199 -832h4l446 1569h115z" />
    <glyph glyph-name="infinity" unicode="&#x221e;" horiz-adv-x="1241" 
d="M942 924q119 0 193.5 -81.5t74.5 -211.5t-74.5 -211.5t-193.5 -81.5q-56 0 -104 16t-87.5 46.5t-68 62t-61.5 76.5q-33 -45 -61.5 -76.5t-68 -62t-87.5 -46.5t-103 -16q-120 0 -195 81.5t-75 211.5t75 211.5t195 81.5q55 0 103 -16t87.5 -46.5t68 -62t61.5 -76.5
q33 45 61.5 76.5t68 62t87.5 46.5t104 16zM311 453q75 0 129.5 45t116.5 133q-62 88 -116.5 133t-129.5 45q-77 0 -120.5 -47.5t-43.5 -130.5t43.5 -130.5t120.5 -47.5zM930 453q78 0 121 47t43 131t-43 131t-121 47q-75 0 -129.5 -45t-116.5 -133q62 -88 116.5 -133
t129.5 -45z" />
    <glyph glyph-name="integral" unicode="&#x222b;" horiz-adv-x="604" 
d="M494 1466q40 0 86 -8v-108q-24 8 -66 8q-77 0 -113 -43t-36 -141v-1280q0 -281 -254 -281q-46 0 -86 8v109q27 -9 63 -9q77 0 113.5 43.5t36.5 141.5v1280q0 280 256 280z" />
    <glyph glyph-name="approxequal" unicode="&#x2248;" horiz-adv-x="1159" 
d="M379 993q52 0 100 -20.5t84 -49.5t70 -58t72 -49.5t75 -20.5q61 0 96 46.5t35 125.5h109q0 -128 -66 -206.5t-174 -78.5q-51 0 -99 20.5t-84 49t-70 57.5t-72.5 49.5t-75.5 20.5q-61 0 -96 -46.5t-35 -123.5h-109q0 127 66 205.5t174 78.5zM379 616q52 0 100 -20t84 -49
t70 -58t72 -49t75 -20q61 0 96 46.5t35 123.5h109q0 -127 -66 -206t-174 -79q-51 0 -99 20.5t-84 49.5t-70 58.5t-72.5 50t-75.5 20.5q-61 0 -96 -46.5t-35 -125.5h-109q0 128 65.5 206t174.5 78z" />
    <glyph glyph-name="notequal" unicode="&#x2260;" horiz-adv-x="1159" 
d="M711 748l-131 -199h428v-115h-504l-180 -270h-129l178 270h-221v115h297l133 199h-430v114h505l179 271h131l-181 -271h222v-114h-297z" />
    <glyph glyph-name="lessequal" unicode="&#x2264;" horiz-adv-x="1159" 
d="M1008 963l-736 -308v-4l736 -307v-127l-856 358v154l856 358v-124zM1008 115v-115h-856v115h856z" />
    <glyph glyph-name="greaterequal" unicode="&#x2265;" horiz-adv-x="1159" 
d="M1008 729v-154l-856 -358v127l735 307v4l-735 308v124zM1008 0h-856v115h856v-115z" />
    <glyph glyph-name="lozenge" unicode="&#x25ca;" horiz-adv-x="1175" 
d="M1094 729l-424 -729h-164l-424 729l424 729h164zM215 729l373 -635l370 635l-370 635z" />
    <glyph glyph-name="apple" unicode="&#xf8ff;" horiz-adv-x="1257" 
d="M309 1591h639q122 0 192 -70.5t70 -191.5v-1200q0 -121 -70 -191.5t-192 -70.5h-639q-121 0 -191.5 70.5t-70.5 191.5v1200q0 121 70.5 191.5t191.5 70.5zM948 1507h-639q-82 0 -130 -48t-48 -130v-1200q0 -82 48 -130t130 -48h639q82 0 130 48t48 130v1200q0 82 -48 130
t-130 48zM618 1323q152 0 246 -82.5t94 -214.5q0 -89 -33 -149.5t-139 -151.5q-92 -76 -116.5 -133.5t-24.5 -194.5h-117v52q0 128 31.5 195t132.5 159q82 71 104.5 114t22.5 109q0 83 -53.5 130.5t-147.5 47.5q-103 0 -160 -56t-63 -163h-129q9 165 99.5 251.5t252.5 86.5z
M666 133h-158v166h158v-166z" />
    <glyph glyph-name="ff" unicode="&#xfb00;" horiz-adv-x="1107" 
d="M1014 1358q-77 0 -113.5 -43t-36.5 -141v-134h209v-106h-209v-934h-127v934h-393v-934h-127v934h-186v106h186v146q0 280 256 280q40 0 86 -8v-108q-28 8 -65 8q-77 0 -113.5 -43t-36.5 -141v-134h393v146q0 280 256 280q44 0 84 -8v-108q-28 8 -63 8z" />
    <glyph glyph-name="fi" unicode="&#xfb01;" horiz-adv-x="1056" 
d="M217 1040v146q0 280 256 280q40 0 86 -8v-108q-28 8 -65 8q-77 0 -113.5 -43t-36.5 -141v-134h211v-106h-211v-934h-127v934h-186v106h186zM885 1458v-180h-127v180h127zM758 1040h127v-1040h-127v1040z" />
    <glyph glyph-name="fl" unicode="&#xfb02;" horiz-adv-x="1056" 
d="M217 1040v146q0 280 256 280q40 0 86 -8v-108q-28 8 -65 8q-77 0 -113.5 -43t-36.5 -141v-134h211v-106h-211v-934h-127v934h-186v106h186zM885 1458v-1458h-127v1458h127z" />
    <glyph glyph-name="ffi" unicode="&#xfb03;" horiz-adv-x="1574" 
d="M737 1040v146q0 280 256 280q44 0 84 -8v-108q-28 8 -63 8q-77 0 -113.5 -43t-36.5 -141v-134h209v-106h-209v-934h-127v934h-393v-934h-127v934h-186v106h186v146q0 280 256 280q40 0 86 -8v-108q-28 8 -65 8q-77 0 -113.5 -43t-36.5 -141v-134h393zM1405 1458v-180
h-127v180h127zM1278 1040h127v-1040h-127v1040z" />
    <glyph glyph-name="ffl" unicode="&#xfb04;" horiz-adv-x="1574" 
d="M737 1040v146q0 280 256 280q44 0 84 -8v-108q-28 8 -63 8q-77 0 -113.5 -43t-36.5 -141v-134h209v-106h-209v-934h-127v934h-393v-934h-127v934h-186v106h186v146q0 280 256 280q40 0 86 -8v-108q-28 8 -65 8q-77 0 -113.5 -43t-36.5 -141v-134h393zM1405 1458v-1458
h-127v1458h127z" />
    <glyph glyph-name="uniFEFF" unicode="&#xfeff;" horiz-adv-x="0" 
 />
    <glyph glyph-name="NULL" horiz-adv-x="1228" 
 />
    <glyph glyph-name="J.acute.loclNLD" horiz-adv-x="690" 
d="M430 1587h-121l185 289h172zM496 1458v-1063q0 -200 -98 -301.5t-281 -101.5q-48 0 -86 10v123q44 -8 84 -8q122 0 183.5 68t61.5 214v1059h136z" />
    <glyph glyph-name="Ccedilla.ss01" horiz-adv-x="1398" 
d="M719 1485q127 0 232 -39t176 -108t112 -163t47 -204h-139q-15 177 -131 283t-297 106q-226 0 -356 -169t-130 -462t129 -462t353 -169q179 0 297 107.5t143 290.5h139q-24 -238 -178 -380.5t-401 -142.5q-289 0 -456 202.5t-167 553.5t168 553.5t459 202.5zM586 -426
h-170l254 326h123z" />
    <glyph glyph-name="Scedilla.ss01" horiz-adv-x="1226" 
d="M578 1485q253 0 380 -121t127 -358h-135q0 358 -372 358q-153 0 -237.5 -70t-84.5 -194q0 -52 16 -91t43 -67t76 -51.5t101 -40t133 -35.5q69 -17 115 -30t101.5 -33.5t91.5 -42t73.5 -53t58 -68.5t34 -87.5t13.5 -111.5q0 -191 -134.5 -303.5t-363.5 -112.5
q-250 0 -386 130.5t-136 381.5h133q0 -198 102.5 -293.5t286.5 -95.5q177 0 270 76t93 215q0 45 -10.5 80t-34.5 62.5t-52.5 48t-76.5 39t-94.5 32t-116.5 31.5q-68 17 -115 30.5t-100.5 34t-88.5 42t-69.5 52t-54 67t-31.5 85t-12 107.5q0 173 122.5 280t334.5 107z
M496 -426h-170l254 326h122z" />
    <glyph glyph-name="Tcedilla.ss01" horiz-adv-x="1212" 
d="M1192 1337h-520v-1337h-133v1337h-519v121h1172v-121zM487 -426h-170l254 326h123z" />
    <glyph glyph-name="idotaccent" horiz-adv-x="466" 
d="M297 1278h-127v180h127v-180zM297 0h-127v1040h127v-1040z" />
    <glyph glyph-name="j.acute.loclNLD" horiz-adv-x="481" 
d="M250 1169h-121l184 289h172zM311 1040v-1116q0 -311 -272 -311q-38 0 -74 8v111q35 -6 62 -6q79 0 118 46t39 154v1114h127z" />
    <glyph glyph-name="ccedilla.ss01" horiz-adv-x="1067" 
d="M561 1067q176 0 292 -107t130 -278h-133q-9 121 -89.5 197.5t-199.5 76.5q-156 0 -245 -116.5t-89 -319.5q0 -204 88.5 -320t245.5 -116q117 0 197.5 83.5t91.5 203.5h133q-14 -173 -129 -285.5t-293 -112.5q-219 0 -345 146t-126 401t126 401t345 146zM442 -426h-170
l254 326h123z" />
    <glyph glyph-name="scedilla.ss01" horiz-adv-x="980" 
d="M471 1067q185 0 287.5 -93t103.5 -263h-127q0 118 -69.5 181.5t-194.5 63.5q-107 0 -171 -47t-64 -125q0 -37 10 -63t27.5 -43t50 -30.5t68.5 -23.5t92 -23q9 -2 14 -3q163 -38 226 -66q140 -63 164 -194q5 -29 5 -62q0 -136 -106 -219.5t-283 -83.5q-197 0 -307 98
t-113 279h129q0 -127 76.5 -196.5t214.5 -69.5q117 0 189.5 50.5t72.5 133.5q0 41 -12.5 70.5t-31.5 48.5t-63.5 36.5t-84 28.5t-117.5 29q-147 35 -202 61q-126 58 -143 186q-3 22 -3 46q0 131 100.5 212t261.5 81zM385 -426h-170l254 326h123z" />
    <glyph glyph-name="tcedilla.ss01" horiz-adv-x="618" 
d="M487 104q36 0 72 9v-109q-45 -10 -94 -10q-134 0 -194 65t-60 215v660h-186v106h186v242h127v-242h211v-106h-211v-658q0 -93 34 -132.5t115 -39.5zM311 -100h123l-207 -326h-170z" />
    <glyph glyph-name="a.sups" horiz-adv-x="784" 
d="M383 1423q137 0 213 -70t76 -212v-279q0 -109 18 -186h-100q-10 58 -10 108h-5q-77 -122 -264 -122q-117 0 -187.5 59.5t-70.5 152.5q0 94 66.5 149t226.5 79q127 18 219 24v29q0 91 -49 134.5t-133 43.5q-87 0 -134 -40t-50 -107h-115q6 104 85 170.5t214 66.5zM565 989
v47q-94 -6 -205 -24q-106 -17 -148 -45.5t-42 -85.5q0 -59 43.5 -94t120.5 -35q107 0 164 57q39 39 53 76t14 104z" />
    <glyph glyph-name="b.sups" horiz-adv-x="841" 
d="M229 1305h4q28 53 90.5 86.5t137.5 33.5q146 0 231.5 -104.5t85.5 -278.5t-85.5 -278.5t-231.5 -104.5q-75 0 -137.5 33.5t-92.5 87.5h-4v-104h-108v1020h110v-391zM442 1333q-100 0 -160.5 -80t-60.5 -211t60.5 -210.5t160.5 -79.5t161 80t61 210q0 131 -61 211t-161 80
z" />
    <glyph glyph-name="c.sups" horiz-adv-x="778" 
d="M410 1423q134 0 217.5 -81.5t93.5 -194.5h-115q-5 68 -59 123t-137 55q-106 0 -167 -76.5t-61 -208.5t61 -208t167 -76q79 0 134.5 55t61.5 131h115q-9 -123 -94 -205t-217 -82q-160 0 -252 102.5t-92 282.5q0 178 92 280.5t252 102.5z" />
    <glyph glyph-name="d.sups" horiz-adv-x="841" 
d="M723 1696v-1020h-109v104h-4q-28 -53 -90.5 -87t-136.5 -34q-146 0 -231.5 104.5t-85.5 278.5t85.5 278.5t229.5 104.5q75 0 137 -33t92 -87h4v391h109zM401 1333q-101 0 -162 -80t-61 -211t61 -210.5t162 -79.5q98 0 159 80t61 210t-61 210.5t-159 80.5z" />
    <glyph glyph-name="e.sups" horiz-adv-x="804" 
d="M412 748q85 0 139 39t72 106h112q-19 -100 -101 -169t-222 -69q-163 0 -254.5 107.5t-91.5 290.5q0 164 91.5 267t250.5 103q126 0 210.5 -68.5t110.5 -189.5q12 -62 12 -149h-565q4 -134 69 -201t167 -67zM408 1331q-99 0 -162 -60.5t-70 -168.5h457q-9 109 -69.5 169
t-155.5 60z" />
    <glyph glyph-name="egrave.sups" horiz-adv-x="804" 
d="M412 748q85 0 139 39t72 106h112q-19 -100 -101 -169t-222 -69q-163 0 -254.5 107.5t-91.5 290.5q0 151 78 252t216 116l-178 191h158l137 -195q99 -17 164 -82.5t88 -169.5q12 -62 12 -149h-565q4 -134 69 -201t167 -67zM408 1331q-99 0 -162 -60.5t-70 -168.5h457
q-9 109 -69.5 169t-155.5 60z" />
    <glyph glyph-name="f.sups" horiz-adv-x="438" 
d="M369 1612q-54 0 -79.5 -29t-25.5 -96v-82h150v-92h-150v-637h-110v637h-131v92h131v96q0 201 196 201q38 0 66 -8v-88q-21 6 -47 6z" />
    <glyph glyph-name="g.sups" horiz-adv-x="841" 
d="M387 1423q69 0 127 -29t96 -85h4v96h109v-684q0 -159 -83 -240.5t-245 -81.5q-139 0 -218 62t-79 170h109q3 -68 52.5 -105t135.5 -37q114 0 165.5 56.5t51.5 179.5v80h-4q-36 -55 -94.5 -85t-126.5 -30q-147 0 -234 100t-87 267q0 166 87 266t234 100zM391 1333
q-96 0 -154.5 -76t-58.5 -200q0 -123 58.5 -199t154.5 -76q107 0 167 73t60 202t-60 202.5t-167 73.5z" />
    <glyph glyph-name="h.sups" horiz-adv-x="837" 
d="M229 1315h4q36 53 96.5 79.5t127.5 26.5q270 0 270 -303v-442h-109v436q0 120 -45 167.5t-137 47.5q-89 0 -148 -58.5t-59 -168.5v-424h-110v1020h110v-381z" />
    <glyph glyph-name="i.sups" horiz-adv-x="348" 
d="M229 1565h-110v131h110v-131zM229 676h-110v729h110v-729z" />
    <glyph glyph-name="j.sups" horiz-adv-x="360" 
d="M240 1565h-109v131h109v-131zM240 1405v-797q0 -106 -53.5 -155.5t-149.5 -49.5q-22 0 -62 7v96q18 -4 50 -4q53 0 79.5 25t26.5 83v795h109z" />
    <glyph glyph-name="k.sups" horiz-adv-x="722" 
d="M733 676h-151l-349 373h-4v-373h-110v1020h110v-592h4l310 301h147l-348 -326z" />
    <glyph glyph-name="l.sups" horiz-adv-x="348" 
d="M229 676h-110v1020h110v-1020z" />
    <glyph glyph-name="m.sups" horiz-adv-x="1257" 
d="M895 1421q123 0 187.5 -74.5t64.5 -220.5v-450h-111v442q0 116 -39 162.5t-120 46.5q-87 0 -138 -63.5t-51 -167.5v-420h-110v463q0 91 -41.5 139.5t-118.5 48.5q-87 0 -138 -65t-51 -172v-414h-110v729h108v-88h4q82 104 203 104q75 0 135 -36.5t90 -104.5
q75 141 236 141z" />
    <glyph glyph-name="n.sups" horiz-adv-x="839" 
d="M457 1421q270 0 270 -303v-442h-109v436q0 120 -45 167.5t-137 47.5q-89 0 -148 -58.5t-59 -168.5v-424h-110v729h108v-92h4q34 48 94 78t132 30z" />
    <glyph glyph-name="o.sups" horiz-adv-x="829" 
d="M416 1423q163 0 256.5 -102.5t93.5 -280.5q0 -180 -93.5 -282.5t-256.5 -102.5q-162 0 -257.5 103t-95.5 282q0 178 95.5 280.5t257.5 102.5zM416 1329q-109 0 -171.5 -77.5t-62.5 -211.5t62.5 -211t171.5 -77q110 0 172.5 77t62.5 211t-62.5 211.5t-172.5 77.5z" />
    <glyph glyph-name="p.sups" horiz-adv-x="841" 
d="M461 1425q146 0 231.5 -104.5t85.5 -278.5t-85.5 -278.5t-231.5 -104.5q-75 0 -137.5 34t-90.5 87h-4v-368h-110v993h108v-102h4q30 54 92.5 88t137.5 34zM442 1333q-100 0 -160.5 -80t-60.5 -211t60.5 -210.5t160.5 -79.5t161 80t61 210q0 131 -61 211t-161 80z" />
    <glyph glyph-name="q.sups" horiz-adv-x="841" 
d="M383 1425q74 0 136.5 -34.5t90.5 -87.5h4v102h109v-993h-109v368h-4q-30 -54 -92 -87.5t-137 -33.5q-144 0 -229.5 104.5t-85.5 278.5t85.5 278.5t231.5 104.5zM401 1333q-101 0 -162 -80t-61 -211t61 -210.5t162 -79.5q98 0 159 80t61 210t-61 210.5t-159 80.5z" />
    <glyph glyph-name="r.sups" horiz-adv-x="524" 
d="M455 1411q23 0 51 -4v-104q-24 4 -49 4q-111 0 -169.5 -68t-58.5 -190v-373h-110v729h108v-113h4q79 119 224 119z" />
    <glyph glyph-name="s.sups" horiz-adv-x="718" 
d="M346 1423q136 0 212 -64t77 -183h-111q0 75 -46.5 115t-131.5 40q-74 0 -117 -28.5t-43 -77.5q0 -29 7.5 -47t34.5 -31.5t46.5 -19t75.5 -18.5q14 -3 21 -5q124 -28 170 -51q116 -56 116 -181q0 -98 -78 -157.5t-210 -59.5q-145 0 -226 69.5t-84 195.5h111q0 -82 52 -126
t147 -44q80 0 130 31t50 83q0 63 -42.5 87t-172.5 55q-9 2 -35.5 8.5t-37 9t-34.5 9.5t-35 12t-30 15t-28.5 19.5t-22 23.5t-18.5 30t-10.5 36.5t-4.5 44.5q0 94 74 151.5t194 57.5z" />
    <glyph glyph-name="t.sups" horiz-adv-x="456" 
d="M362 766q22 0 52 6v-94q-27 -6 -70 -6q-104 0 -150.5 47t-46.5 155v439h-131v92h131v170h111v-170h150v-92h-150v-434q0 -61 23.5 -87t80.5 -26z" />
    <glyph glyph-name="u.sups" horiz-adv-x="837" 
d="M381 659q-132 0 -201 77t-69 227v442h110v-436q0 -120 45 -167.5t135 -47.5q89 0 149 58.5t60 168.5v424h109v-729h-109v92h-4q-34 -48 -93.5 -78.5t-131.5 -30.5z" />
    <glyph glyph-name="v.sups" horiz-adv-x="677" 
d="M412 676h-144l-276 729h119l112 -307q21 -56 58 -158.5t57 -157.5h4l113 316l112 307h119z" />
    <glyph glyph-name="w.sups" horiz-adv-x="1114" 
d="M895 676h-158l-88 315q-19 60 -50 171t-40 143h-4q-60 -220 -90 -314l-88 -315h-156l-209 729h113l84 -305q14 -53 44.5 -163t45.5 -163h4q13 46 41.5 151.5t44.5 159.5l88 320h162l88 -320q15 -52 42.5 -157.5t41.5 -153.5h4l92 326l84 305h113z" />
    <glyph glyph-name="x.sups" horiz-adv-x="702" 
d="M416 1059l286 -383h-135l-215 301h-4l-215 -301h-133l287 383l-260 346h133l188 -270h4l191 270h131z" />
    <glyph glyph-name="y.sups" horiz-adv-x="690" 
d="M696 1405l-307 -768q-57 -136 -119 -183.5t-180 -47.5q-29 0 -53 6v96q24 -6 51 -6q84 0 121.5 33.5t79.5 140.5l-295 729h119l233 -594h4l230 594h116z" />
    <glyph glyph-name="z.sups" horiz-adv-x="684" 
d="M635 1307l-461 -533v-4h475v-94h-612v98l459 533v4h-445v94h584v-98z" />
    <glyph glyph-name="a.smcp" horiz-adv-x="1134" 
d="M842 340h-549l-137 -340h-144l465 1122h180l465 -1122h-143zM793 461l-41 102q-17 42 -81.5 200t-101.5 251h-4q-5 -13 -182 -451l-41 -102h451z" />
    <glyph glyph-name="aacute.smcp" horiz-adv-x="1134" 
d="M569 1251h-120l184 289h172zM842 340h-549l-137 -340h-144l465 1122h180l465 -1122h-143zM793 461l-41 102q-17 42 -81.5 200t-101.5 251h-4q-5 -13 -182 -451l-41 -102h451z" />
    <glyph glyph-name="abreve.smcp" horiz-adv-x="1134" 
d="M567 1255q-131 0 -209 74.5t-90 210.5h105q12 -89 62 -135.5t132 -46.5t132 46.5t63 135.5h104q-12 -136 -90 -210.5t-209 -74.5zM842 340h-549l-137 -340h-144l465 1122h180l465 -1122h-143zM793 461l-41 102q-17 42 -81.5 200t-101.5 251h-4q-5 -13 -182 -451l-41 -102
h451z" />
    <glyph glyph-name="acircumflex.smcp" horiz-adv-x="1134" 
d="M401 1251h-141l234 289h145l233 -289h-141l-164 207zM842 340h-549l-137 -340h-144l465 1122h180l465 -1122h-143zM793 461l-41 102q-17 42 -81.5 200t-101.5 251h-4q-5 -13 -182 -451l-41 -102h451z" />
    <glyph glyph-name="adieresis.smcp" horiz-adv-x="1134" 
d="M440 1360h-125v180h125v-180zM817 1360h-125v180h125v-180zM842 340h-549l-137 -340h-144l465 1122h180l465 -1122h-143zM793 461l-41 102q-17 42 -81.5 200t-101.5 251h-4q-5 -13 -182 -451l-41 -102h451z" />
    <glyph glyph-name="agrave.smcp" horiz-adv-x="1134" 
d="M565 1251l-235 289h172l184 -289h-121zM842 340h-549l-137 -340h-144l465 1122h180l465 -1122h-143zM793 461l-41 102q-17 42 -81.5 200t-101.5 251h-4q-5 -13 -182 -451l-41 -102h451z" />
    <glyph glyph-name="amacron.smcp" horiz-adv-x="1134" 
d="M836 1360h-539v106h539v-106zM842 340h-549l-137 -340h-144l465 1122h180l465 -1122h-143zM793 461l-41 102q-17 42 -81.5 200t-101.5 251h-4q-5 -13 -182 -451l-41 -102h451z" />
    <glyph glyph-name="aogonek.smcp" horiz-adv-x="1134" 
d="M1047 -301q43 0 81 14v-90q-40 -16 -100 -16q-94 0 -141 40t-47 113q0 66 37.5 120.5t121.5 119.5h-20l-137 340h-549l-137 -340h-144l465 1122h180l465 -1122q-91 -69 -127.5 -120t-36.5 -105q0 -36 23.5 -56t65.5 -20zM793 461l-41 102q-17 42 -81.5 200t-101.5 251h-4
q-5 -13 -182 -451l-41 -102h451z" />
    <glyph glyph-name="aring.smcp" horiz-adv-x="1134" 
d="M567 1249q-83 0 -140.5 58t-57.5 141q0 82 57.5 140.5t140.5 58.5q82 0 139.5 -58.5t57.5 -140.5q0 -83 -57.5 -141t-139.5 -58zM567 1569q-51 0 -87 -35t-36 -86q0 -52 36 -87.5t87 -35.5t86 35.5t35 87.5q0 51 -35 86t-86 35zM842 340h-549l-137 -340h-144l465 1122
h180l465 -1122h-143zM793 461l-41 102q-17 42 -81.5 200t-101.5 251h-4q-5 -13 -182 -451l-41 -102h451z" />
    <glyph glyph-name="atilde.smcp" horiz-adv-x="1134" 
d="M424 1415q-85 0 -94 -108h-99q6 103 56.5 159t134.5 56q40 0 83 -17.5t74 -38t68 -38t66 -17.5q85 0 94 111h98q-6 -103 -56 -159t-134 -56q-50 0 -104 27t-102 54t-85 27zM842 340h-549l-137 -340h-144l465 1122h180l465 -1122h-143zM793 461l-41 102q-17 42 -81.5 200
t-101.5 251h-4q-5 -13 -182 -451l-41 -102h451z" />
    <glyph glyph-name="ae.smcp" horiz-adv-x="1579" 
d="M1470 121v-121h-618l-59 365h-463l-191 -365h-149l588 1122h874v-121h-625l60 -364h532v-121h-512l64 -395h499zM774 485l-84 516h-26l-271 -516h381z" />
    <glyph glyph-name="b.smcp" horiz-adv-x="1099" 
d="M184 1122h383q195 0 295.5 -78.5t100.5 -212.5q0 -90 -49 -154.5t-142 -98.5v-5q99 -26 156 -95.5t57 -164.5q0 -144 -103.5 -228.5t-287.5 -84.5h-410v1122zM317 1008v-379h230q280 0 280 186q0 96 -65.5 144.5t-208.5 48.5h-236zM317 514v-397h256q138 0 205.5 48.5
t67.5 149.5q0 98 -71.5 148.5t-227.5 50.5h-230z" />
    <glyph glyph-name="c.smcp" horiz-adv-x="1181" 
d="M600 1149q212 0 338 -111t137 -290h-141q-12 130 -103.5 203t-230.5 73q-177 0 -277 -123t-100 -340q0 -218 100 -340.5t275 -122.5q138 0 230 76.5t112 210.5h141q-19 -189 -147.5 -300.5t-335.5 -111.5q-240 0 -377 156.5t-137 431.5t137 431.5t379 156.5z" />
    <glyph glyph-name="cacute.smcp" horiz-adv-x="1181" 
d="M602 1251h-121l185 289h172zM600 1149q212 0 338 -111t137 -290h-141q-12 130 -103.5 203t-230.5 73q-177 0 -277 -123t-100 -340q0 -218 100 -340.5t275 -122.5q138 0 230 76.5t112 210.5h141q-19 -189 -147.5 -300.5t-335.5 -111.5q-240 0 -377 156.5t-137 431.5
t137 431.5t379 156.5z" />
    <glyph glyph-name="ccaron.smcp" horiz-adv-x="1181" 
d="M672 1251h-146l-233 289h141l166 -207l164 207h141zM600 1149q212 0 338 -111t137 -290h-141q-12 130 -103.5 203t-230.5 73q-177 0 -277 -123t-100 -340q0 -218 100 -340.5t275 -122.5q138 0 230 76.5t112 210.5h141q-19 -189 -147.5 -300.5t-335.5 -111.5
q-240 0 -377 156.5t-137 431.5t137 431.5t379 156.5z" />
    <glyph glyph-name="ccedilla.smcp" horiz-adv-x="1181" 
d="M940 385h141q-17 -171 -125 -279.5t-284 -128.5l-72 -106q20 4 47 4q68 0 114 -40t46 -107q0 -74 -56 -124t-159 -50q-110 0 -205 55l31 65q75 -41 160 -41q58 0 90 24t32 67q0 41 -30 64.5t-84 23.5q-31 0 -64 -11l-33 37l91 135q-232 6 -364 162t-132 426
q0 275 137 431.5t379 156.5q212 0 338 -111t137 -290h-141q-12 130 -103.5 203t-230.5 73q-177 0 -277 -123t-100 -340q0 -218 100 -340.5t275 -122.5q138 0 230 76.5t112 210.5z" />
    <glyph glyph-name="ccircumflex.smcp" horiz-adv-x="1181" 
d="M764 1251l-164 207l-166 -207h-141l233 289h146l233 -289h-141zM600 1149q212 0 338 -111t137 -290h-141q-12 130 -103.5 203t-230.5 73q-177 0 -277 -123t-100 -340q0 -218 100 -340.5t275 -122.5q138 0 230 76.5t112 210.5h141q-19 -189 -147.5 -300.5t-335.5 -111.5
q-240 0 -377 156.5t-137 431.5t137 431.5t379 156.5z" />
    <glyph glyph-name="cdotaccent.smcp" horiz-adv-x="1181" 
d="M662 1360h-127v180h127v-180zM600 1149q212 0 338 -111t137 -290h-141q-12 130 -103.5 203t-230.5 73q-177 0 -277 -123t-100 -340q0 -218 100 -340.5t275 -122.5q138 0 230 76.5t112 210.5h141q-19 -189 -147.5 -300.5t-335.5 -111.5q-240 0 -377 156.5t-137 431.5
t137 431.5t379 156.5z" />
    <glyph glyph-name="d.smcp" horiz-adv-x="1236" 
d="M184 1122h355q294 0 454 -146t160 -415t-160 -415t-454 -146h-355v1122zM317 1001v-880h222q228 0 350.5 113.5t122.5 326.5t-122.5 326.5t-350.5 113.5h-222z" />
    <glyph glyph-name="eth.smcp" horiz-adv-x="1239" 
d="M186 1122h355q294 0 454 -146t160 -415t-160 -415t-454 -146h-355v514h-131v109h131v499zM319 121h222q228 0 351.5 113.5t123.5 326.5t-123.5 326.5t-351.5 113.5h-222v-378h338v-109h-338v-393z" />
    <glyph glyph-name="dcaron.smcp" horiz-adv-x="1236" 
d="M641 1251h-145l-234 289h141l166 -207l164 207h141zM184 1122h355q294 0 454 -146t160 -415t-160 -415t-454 -146h-355v1122zM317 1001v-880h222q228 0 350.5 113.5t122.5 326.5t-122.5 326.5t-350.5 113.5h-222z" />
    <glyph glyph-name="dcroat.smcp" horiz-adv-x="1239" 
d="M186 1122h355q294 0 454 -146t160 -415t-160 -415t-454 -146h-355v514h-131v109h131v499zM319 121h222q228 0 351.5 113.5t123.5 326.5t-123.5 326.5t-351.5 113.5h-222v-378h338v-109h-338v-393z" />
    <glyph glyph-name="e.smcp" horiz-adv-x="1064" 
d="M948 1001h-629v-364h594v-121h-594v-395h646v-121h-779v1122h762v-121z" />
    <glyph glyph-name="eacute.smcp" horiz-adv-x="1064" 
d="M569 1251h-120l184 289h172zM948 1001h-629v-364h594v-121h-594v-395h646v-121h-779v1122h762v-121z" />
    <glyph glyph-name="ebreve.smcp" horiz-adv-x="1064" 
d="M762 1540h104q-12 -136 -90 -210.5t-209 -74.5t-209 74.5t-90 210.5h105q12 -89 62 -135.5t132 -46.5t132 46.5t63 135.5zM948 1001h-629v-364h594v-121h-594v-395h646v-121h-779v1122h762v-121z" />
    <glyph glyph-name="ecaron.smcp" horiz-adv-x="1064" 
d="M641 1251h-145l-234 289h141l166 -207l164 207h141zM948 1001h-629v-364h594v-121h-594v-395h646v-121h-779v1122h762v-121z" />
    <glyph glyph-name="ecircumflex.smcp" horiz-adv-x="1064" 
d="M733 1251l-164 207l-166 -207h-141l234 289h145l233 -289h-141zM948 1001h-629v-364h594v-121h-594v-395h646v-121h-779v1122h762v-121z" />
    <glyph glyph-name="edieresis.smcp" horiz-adv-x="1064" 
d="M440 1360h-125v180h125v-180zM817 1360h-125v180h125v-180zM948 1001h-629v-364h594v-121h-594v-395h646v-121h-779v1122h762v-121z" />
    <glyph glyph-name="edotaccent.smcp" horiz-adv-x="1064" 
d="M631 1360h-127v180h127v-180zM948 1001h-629v-364h594v-121h-594v-395h646v-121h-779v1122h762v-121z" />
    <glyph glyph-name="egrave.smcp" horiz-adv-x="1064" 
d="M502 1540l184 -289h-121l-235 289h172zM948 1001h-629v-364h594v-121h-594v-395h646v-121h-779v1122h762v-121z" />
    <glyph glyph-name="emacron.smcp" horiz-adv-x="1064" 
d="M836 1360h-539v106h539v-106zM948 1001h-629v-364h594v-121h-594v-395h646v-121h-779v1122h762v-121z" />
    <glyph glyph-name="eogonek.smcp" horiz-adv-x="1064" 
d="M889 -301q44 0 82 14v-90q-40 -16 -101 -16q-94 0 -141 40t-47 113q0 66 37.5 120.5t122.5 119.5h-656v1122h762v-121h-629v-364h594v-121h-594v-395h646v-121q-91 -69 -127.5 -120t-36.5 -105q0 -36 23 -56t65 -20z" />
    <glyph glyph-name="f.smcp" horiz-adv-x="991" 
d="M928 1001h-611v-391h574v-121h-574v-489h-133v1122h744v-121z" />
    <glyph glyph-name="fi.smcp" horiz-adv-x="1497" 
d="M928 1001h-611v-391h574v-121h-574v-489h-133v1122h744v-121zM1311 0h-133v1122h133v-1122z" />
    <glyph glyph-name="fl.smcp" horiz-adv-x="1953" 
d="M928 1001h-611v-391h574v-121h-574v-489h-133v1122h744v-121zM1311 121h622v-121h-755v1122h133v-1001z" />
    <glyph glyph-name="g.smcp" horiz-adv-x="1249" 
d="M614 1149q201 0 331 -96.5t145 -259.5h-142q-23 113 -109.5 172t-224.5 59q-182 0 -286.5 -124t-104.5 -341q0 -213 101 -335t276 -122q165 0 263 91t98 286h-338v119h467v-598h-125v145h-4q-49 -77 -151.5 -121t-223.5 -44q-231 0 -366.5 155t-135.5 424
q0 275 141.5 432.5t388.5 157.5z" />
    <glyph glyph-name="gbreve.smcp" horiz-adv-x="1249" 
d="M799 1540h104q-12 -136 -90 -210.5t-209 -74.5t-209 74.5t-90 210.5h105q12 -89 62 -135.5t132 -46.5t132 46.5t63 135.5zM614 1149q201 0 331 -96.5t145 -259.5h-142q-23 113 -109.5 172t-224.5 59q-182 0 -286.5 -124t-104.5 -341q0 -213 101 -335t276 -122
q165 0 263 91t98 286h-338v119h467v-598h-125v145h-4q-49 -77 -151.5 -121t-223.5 -44q-231 0 -366.5 155t-135.5 424q0 275 141.5 432.5t388.5 157.5z" />
    <glyph glyph-name="gcircumflex.smcp" horiz-adv-x="1249" 
d="M768 1251l-164 207l-166 -207h-141l233 289h146l233 -289h-141zM614 1149q201 0 331 -96.5t145 -259.5h-142q-23 113 -109.5 172t-224.5 59q-182 0 -286.5 -124t-104.5 -341q0 -213 101 -335t276 -122q165 0 263 91t98 286h-338v119h467v-598h-125v145h-4
q-49 -77 -151.5 -121t-223.5 -44q-231 0 -366.5 155t-135.5 424q0 275 141.5 432.5t388.5 157.5z" />
    </font>
</defs>
</svg>
