<?xml version="1.0" standalone="no"?>
<!DOCTYPE svg PUBLIC "-//W3C//DTD SVG 1.1//EN" "http://www.w3.org/Graphics/SVG/1.1/DTD/svg11.dtd" >
<svg xmlns="http://www.w3.org/2000/svg" xmlns:xlink="http://www.w3.org/1999/xlink" version="1.1">
<metadata>
Created by FontForge 20170731 at Mon Nov  2 20:40:56 2020
 By Aleksey,,,
Copyright (c) 2015 Monotype Imaging Inc.  All rights reserved.
</metadata>
<defs>
<font id="NeueHaasUnicaW1G-BlackIt" horiz-adv-x="1300" >
  <font-face 
    font-family="Neue Haas Unica W1G Black"
    font-weight="900"
    font-style="italic"
    font-stretch="normal"
    units-per-em="2048"
    panose-1="2 11 10 4 3 2 6 9 2 3"
    ascent="1565"
    descent="-483"
    x-height="1040"
    cap-height="1458"
    bbox="-1315 -645 2845 2353"
    underline-thickness="102"
    underline-position="-307"
    slope="-14"
    unicode-range="U+0020-FEFF"
  />
<missing-glyph horiz-adv-x="1339" 
d="M307 1591h725q131 0 207 -76t76 -206v-1159q0 -130 -76.5 -206.5t-206.5 -76.5h-725q-130 0 -206 76t-76 207v1159q0 131 75.5 206.5t206.5 75.5zM1032 1438h-725q-60 0 -94.5 -34.5t-34.5 -94.5v-1159q0 -60 34.5 -95t94.5 -35h725q60 0 94.5 35t34.5 95v1159
q0 60 -34.5 94.5t-94.5 34.5zM668 1325q183 0 286 -83.5t103 -231.5q0 -82 -30.5 -140.5t-111.5 -134.5t-108 -127.5t-27 -132.5h-241q-7 51 -7 90q0 89 23.5 142.5t99.5 130.5q60 61 78.5 94t18.5 76q0 41 -22.5 64.5t-61.5 23.5q-103 0 -103 -152h-297q1 185 106 283
t294 98zM807 133h-295v258h295v-258z" />
    <glyph glyph-name="f_f" unicode="ff" horiz-adv-x="1488" 
d="M1520 1479q92 0 190 -25l-65 -262q-15 6 -48 6q-77 0 -122.5 -34.5t-65.5 -114.5l-2 -9h188l-69 -280h-189l-188 -760h-393l190 760h-319l-189 -760h-393l191 760h-162l69 280h162l23 93q44 172 167.5 259t313.5 87q92 0 190 -25l-65 -262q-15 6 -47 6q-77 0 -123 -34.5
t-66 -114.5l-2 -9h320l22 93q44 172 168 259t314 87z" />
    <glyph glyph-name="f_f_i" unicode="ffi" horiz-adv-x="2103" 
d="M1337 760l-188 -760h-393l190 760h-319l-189 -760h-393l191 760h-162l69 280h162l23 93q44 172 167.5 259t313.5 87q92 0 190 -25l-65 -262q-15 6 -47 6q-77 0 -123 -34.5t-66 -114.5l-2 -9h320l22 93q44 172 168 259t314 87q92 0 190 -25l-65 -262q-15 6 -48 6
q-77 0 -122.5 -34.5t-65.5 -114.5l-2 -9h188l-69 -280h-189zM2226 1458l-72 -289h-393l72 289h393zM1729 1040h393l-258 -1040h-394z" />
    <glyph glyph-name="f_f_l" unicode="ffl" horiz-adv-x="2103" 
d="M1337 760l-188 -760h-393l190 760h-319l-189 -760h-393l191 760h-162l69 280h162l23 93q44 172 167.5 259t313.5 87q92 0 190 -25l-65 -262q-15 6 -47 6q-77 0 -123 -34.5t-66 -114.5l-2 -9h320l22 93q44 172 168 259t314 87q92 0 190 -25l-65 -262q-15 6 -48 6
q-77 0 -122.5 -34.5t-65.5 -114.5l-2 -9h188l-69 -280h-189zM2226 1458l-362 -1458h-394l363 1458h393z" />
    <glyph glyph-name="f_i" unicode="fi" horiz-adv-x="1392" 
d="M627 760l-189 -760h-393l191 760h-162l69 280h162l23 93q44 172 167.5 259t313.5 87q92 0 190 -25l-65 -262q-15 6 -47 6q-77 0 -123 -34.5t-66 -114.5l-2 -9h189l-70 -280h-188zM1516 1458l-72 -289h-393l71 289h394zM1018 1040h393l-258 -1040h-393z" />
    <glyph glyph-name="f_l" unicode="fl" horiz-adv-x="1392" 
d="M627 760l-189 -760h-393l191 760h-162l69 280h162l23 93q44 172 167.5 259t313.5 87q92 0 190 -25l-65 -262q-15 6 -47 6q-77 0 -123 -34.5t-66 -114.5l-2 -9h189l-70 -280h-188zM1516 1458l-363 -1458h-393l362 1458h394z" />
    <glyph glyph-name=".notdef" horiz-adv-x="1339" 
d="M307 1591h725q131 0 207 -76t76 -206v-1159q0 -130 -76.5 -206.5t-206.5 -76.5h-725q-130 0 -206 76t-76 207v1159q0 131 75.5 206.5t206.5 75.5zM1032 1438h-725q-60 0 -94.5 -34.5t-34.5 -94.5v-1159q0 -60 34.5 -95t94.5 -35h725q60 0 94.5 35t34.5 95v1159
q0 60 -34.5 94.5t-94.5 34.5zM668 1325q183 0 286 -83.5t103 -231.5q0 -82 -30.5 -140.5t-111.5 -134.5t-108 -127.5t-27 -132.5h-241q-7 51 -7 90q0 89 23.5 142.5t99.5 130.5q60 61 78.5 94t18.5 76q0 41 -22.5 64.5t-61.5 23.5q-103 0 -103 -152h-297q1 185 106 283
t294 98zM807 133h-295v258h295v-258z" />
    <glyph glyph-name=".null" horiz-adv-x="0" 
 />
    <glyph glyph-name="nonmarkingreturn" horiz-adv-x="682" 
 />
    <glyph glyph-name="space" unicode=" " horiz-adv-x="471" 
 />
    <glyph glyph-name="exclam" unicode="!" horiz-adv-x="751" 
d="M524 457h-327l188 1001h451zM453 0h-410l84 330h408z" />
    <glyph glyph-name="quotedbl" unicode="&#x22;" horiz-adv-x="1005" 
d="M508 870h-287l103 588h374zM956 870h-284l100 588h377z" />
    <glyph glyph-name="numbersign" unicode="#" horiz-adv-x="1472" 
d="M1233 803l-92 -223h196l-108 -265h-195l-129 -315h-305l129 315h-207l-129 -315h-305l129 315h-197l107 265h197l92 223h-197l109 264h196l127 313h305l-127 -313h207l127 313h305l-127 -313h195l-109 -264h-194zM926 803h-207l-90 -223h207z" />
    <glyph glyph-name="dollar" unicode="$" horiz-adv-x="1343" 
d="M1346 963h-404q4 16 4 43q0 118 -151 118q-80 0 -126 -36.5t-46 -88.5t45.5 -81.5t167.5 -67.5q61 -20 104 -36.5t92.5 -40.5t82.5 -52.5t61.5 -66t42.5 -86t14 -107.5q0 -65 -20.5 -129.5t-66 -126.5t-110.5 -111t-161.5 -82t-212.5 -41l-44 -174h-266l47 189
q-167 34 -255.5 125t-88.5 235q0 51 8 98h416q-8 -40 -8 -53q0 -125 170 -125q86 0 135 38t49 95t-43.5 85.5t-165.5 70.5q-52 18 -88 31.5t-80 34.5t-73.5 40.5t-59.5 48t-48 59.5t-29 72t-11 89q0 79 32.5 156t94.5 145t166 115.5t234 60.5l39 158h266l-41 -168
q163 -28 249.5 -114t86.5 -226q0 -50 -8 -94z" />
    <glyph glyph-name="percent" unicode="%" horiz-adv-x="1957" 
d="M582 -61h-242l1120 1503h242zM641 1423q159 0 241.5 -80t82.5 -231q0 -95 -28 -189.5t-80.5 -176t-139.5 -132.5t-193 -51q-159 0 -241 80.5t-82 233.5q0 75 17 150.5t53 147t86.5 126.5t124 88.5t159.5 33.5zM635 1221q-40 0 -73.5 -40t-52.5 -97.5t-29.5 -112.5
t-10.5 -94q0 -109 61 -109q40 0 73.5 40t52.5 97.5t29.5 112.5t10.5 94q0 109 -61 109zM1520 817q159 0 241 -79.5t82 -231.5q0 -76 -16.5 -152t-52.5 -147.5t-86.5 -127t-124.5 -89t-160 -33.5q-159 0 -241.5 80t-82.5 231q0 95 28 189.5t80.5 176t139.5 132.5t193 51z
M1513 612q-39 0 -72 -39.5t-51.5 -97t-29 -113t-10.5 -94.5q0 -108 61 -108q40 0 73 40t52 97.5t29 112.5t10 94q0 108 -62 108z" />
    <glyph glyph-name="ampersand" unicode="&#x26;" horiz-adv-x="1617" 
d="M1161 780h371q-69 -276 -260 -473l248 -307h-430l-89 109q-210 -142 -464 -142q-239 0 -364.5 101t-125.5 282q0 140 97.5 265t304.5 214q-89 140 -89 256q0 71 33.5 141.5t94.5 130t160 97t218 37.5q191 0 299.5 -91t108.5 -247q0 -111 -88 -219t-268 -189l147 -182
q59 74 96 217zM831 1229q-54 0 -89 -41t-35 -98q0 -61 53 -146q162 100 162 199q0 39 -24.5 62.5t-66.5 23.5zM623 248q114 0 202 80l-217 272q-162 -88 -162 -211q0 -65 46.5 -103t130.5 -38z" />
    <glyph glyph-name="quotesingle" unicode="'" horiz-adv-x="555" 
d="M508 870h-287l103 588h374z" />
    <glyph glyph-name="parenleft" unicode="(" horiz-adv-x="757" 
d="M616 1518h328q-483 -677 -483 -1330q0 -222 31 -489h-299q-117 322 -117 635q0 291 132.5 597t407.5 587z" />
    <glyph glyph-name="parenright" unicode=")" horiz-adv-x="757" 
d="M184 -301h-327q483 677 483 1329q0 223 -31 490h299q117 -322 117 -635q0 -291 -133 -597t-408 -587z" />
    <glyph glyph-name="asterisk" unicode="*" horiz-adv-x="962" 
d="M725 1137l291 80l18 -291l-297 39l166 -254l-270 -109l-58 295l-186 -233l-188 223l264 145l-281 105l154 247l219 -204l14 299l285 -70z" />
    <glyph glyph-name="plus" unicode="+" horiz-adv-x="1159" 
d="M737 803h310v-305h-310v-318h-315v318h-309v305h309v315h315v-315z" />
    <glyph glyph-name="comma" unicode="," horiz-adv-x="595" 
d="M373 0l-314 -379h-231l266 379h-131l103 410h409z" />
    <glyph glyph-name="hyphen" unicode="-" horiz-adv-x="722" 
d="M647 461h-600l68 274h602z" />
    <glyph glyph-name="period" unicode="." horiz-adv-x="593" 
d="M373 0h-410l103 410h407z" />
    <glyph glyph-name="slash" unicode="/" horiz-adv-x="1079" 
d="M199 -182h-314l1026 1708h314z" />
    <glyph glyph-name="zero" unicode="0" horiz-adv-x="1320" 
d="M825 1413q246 0 372 -136t126 -396q0 -121 -28 -246t-88.5 -245.5t-145.5 -214t-209 -151t-268 -57.5q-246 0 -373 136.5t-127 394.5q0 121 28.5 246t89 245.5t146 214.5t209.5 151.5t268 57.5zM795 1114q-59 0 -111.5 -48t-88 -121t-62 -160t-38.5 -165t-12 -135
q0 -219 129 -219q60 0 112.5 48t88 121t61.5 159.5t38 164t12 134.5q0 221 -129 221z" />
    <glyph glyph-name="one" unicode="1" horiz-adv-x="1320" 
d="M805 0h-408l211 846h-336l74 291q182 0 284.5 57t153.5 186h365z" />
    <glyph glyph-name="two" unicode="2" horiz-adv-x="1320" 
d="M821 1413q236 0 366 -102.5t130 -272.5q0 -161 -111.5 -286t-353.5 -220q-128 -51 -197.5 -87.5t-96.5 -63t-42 -62.5h672l-78 -319h-1159q48 278 180 436t397 277q88 40 133 62t101.5 54t82 56t44 56t18.5 67q0 50 -28.5 78t-83.5 28q-68 0 -117 -49t-70 -143h-413
q55 236 218.5 363.5t407.5 127.5z" />
    <glyph glyph-name="three" unicode="3" horiz-adv-x="1320" 
d="M817 1413q241 0 374.5 -96t133.5 -264q0 -258 -317 -359v-4q180 -75 180 -266q0 -82 -38.5 -161t-111 -146t-192 -108.5t-266.5 -41.5q-268 0 -406.5 99t-138.5 290q0 52 12 111h410q-11 -46 -11 -68q0 -133 156 -133q88 0 138.5 50t50.5 106q0 127 -185 127h-35l72 291
h45q109 0 170.5 47t61.5 114q0 53 -35 83t-101 30q-79 0 -131.5 -49t-74.5 -141h-398q53 231 220.5 360t416.5 129z" />
    <glyph glyph-name="four" unicode="4" horiz-adv-x="1320" 
d="M1225 266h-230l-65 -266h-393l65 266h-645l84 334l700 780h533l-203 -817h227zM377 563h315l35 139q50 204 109 379h-5q-126 -162 -278 -327z" />
    <glyph glyph-name="five" unicode="5" horiz-adv-x="1320" 
d="M1282 1061h-635l-74 -211h5q118 78 256 78q180 0 285.5 -108t105.5 -288q0 -74 -26 -151t-82 -151.5t-133 -133t-188.5 -94t-240.5 -35.5q-236 0 -370 93.5t-134 261.5q0 43 8 84h408q-4 -12 -4 -35q0 -52 37.5 -81.5t101.5 -29.5q104 0 159.5 74t55.5 168
q0 70 -36.5 106.5t-102.5 36.5q-59 0 -105.5 -34.5t-70.5 -90.5l-387 25l284 835h963z" />
    <glyph glyph-name="six" unicode="6" horiz-adv-x="1320" 
d="M852 1413q230 0 358.5 -99t128.5 -280q0 -35 -2 -53h-403q0 4 1 10.5t1 9.5q0 123 -117 123q-81 0 -150 -74.5t-116 -230.5h4q125 84 283 84q177 0 281 -109t104 -292q0 -90 -40.5 -182.5t-114 -172t-192 -130t-260.5 -50.5q-247 0 -378 132.5t-131 389.5q0 96 21.5 200
t62 208t105 196.5t144 164t186 113.5t224.5 42zM696 629q-58 0 -103.5 -35.5t-67 -84t-21.5 -95.5q0 -70 33.5 -110t95.5 -40q80 0 136 65.5t56 145.5q0 71 -34 112.5t-95 41.5z" />
    <glyph glyph-name="seven" unicode="7" horiz-adv-x="1320" 
d="M1421 1380l-78 -313q-197 -209 -370 -487.5t-299 -579.5h-463q136 306 324 585t376 464h-692l84 331h1118z" />
    <glyph glyph-name="eight" unicode="8" horiz-adv-x="1320" 
d="M825 1413q232 0 366 -101t134 -274q0 -121 -87.5 -221.5t-244.5 -128.5v-4q94 -32 147.5 -112t53.5 -187q0 -59 -22 -116.5t-70 -112.5t-117.5 -96.5t-173 -67t-227.5 -25.5q-252 0 -390.5 103.5t-138.5 291.5q0 133 99 243t274 136v4q-86 35 -132 106t-46 165
q0 69 37.5 138t107 127.5t182 95t248.5 36.5zM799 1126q-89 0 -139 -48.5t-50 -108.5q0 -59 38 -92t108 -33q84 0 135 47.5t51 109.5q0 59 -37.5 92t-105.5 33zM655 561q-96 0 -146 -54.5t-50 -117.5q0 -61 40 -96t111 -35q87 0 143 52.5t56 121.5q0 62 -40.5 95.5
t-113.5 33.5z" />
    <glyph glyph-name="nine" unicode="9" horiz-adv-x="1320" 
d="M541 -31q-230 0 -360 99.5t-130 279.5q0 19 4 51h402v-20q0 -123 116 -123q80 0 149.5 75t117.5 230h-4q-122 -82 -283 -82q-179 0 -283 108.5t-104 291.5q0 71 24.5 145t76 144t122 125t170 88.5t213.5 33.5q248 0 379 -133t131 -391q0 -116 -29.5 -241.5t-91.5 -247
t-147.5 -218t-208.5 -156t-264 -59.5zM696 754q86 0 139.5 69t53.5 146q0 69 -33.5 109t-95.5 40q-82 0 -137.5 -65.5t-55.5 -145.5q0 -72 34 -112.5t95 -40.5z" />
    <glyph glyph-name="colon" unicode=":" horiz-adv-x="595" 
d="M530 631h-409l102 409h408zM373 0h-408l103 410h407z" />
    <glyph glyph-name="semicolon" unicode=";" horiz-adv-x="595" 
d="M528 631h-407l100 409h410zM373 0l-314 -379h-231l266 379h-131l103 410h409z" />
    <glyph glyph-name="less" unicode="&#x3c;" horiz-adv-x="1159" 
d="M1047 864l-572 -213v-4l572 -213v-319l-934 350v369l934 350v-320z" />
    <glyph glyph-name="equal" unicode="=" horiz-adv-x="1159" 
d="M1047 727h-934v287h934v-287zM1047 283h-934v286h934v-286z" />
    <glyph glyph-name="greater" unicode="&#x3e;" horiz-adv-x="1159" 
d="M1047 834v-369l-934 -350v319l571 213v4l-571 213v320z" />
    <glyph glyph-name="question" unicode="?" horiz-adv-x="1212" 
d="M784 1491q238 0 368 -98t130 -277q0 -110 -62 -202t-219 -193q-134 -87 -186.5 -144.5t-77.5 -144.5h-331q17 94 34 150.5t50 106.5t74 86t118 91q120 87 156 136t36 106q0 46 -29 71t-83 25q-138 0 -182 -196h-406q55 236 213.5 359.5t396.5 123.5zM670 0h-410l84 330
h408z" />
    <glyph glyph-name="at" unicode="@" horiz-adv-x="1775" 
d="M1032 1458q346 0 541.5 -175.5t195.5 -481.5q0 -125 -39 -244t-109 -213.5t-178 -152.5t-235 -58q-100 0 -157 39.5t-66 114.5h-4q-117 -154 -274 -154q-130 0 -200.5 85.5t-70.5 248.5q0 90 36 192.5t98 192.5t158.5 149.5t205.5 59.5q169 0 199 -150h4q29 68 57 129
h279q-94 -208 -165 -393t-71 -233q0 -56 57 -56q64 0 118 42.5t86.5 109t50.5 141t18 144.5q0 214 -140.5 336t-390.5 122q-152 0 -282 -50.5t-217.5 -131.5t-149.5 -185t-90.5 -209.5t-28.5 -205.5q0 -250 133 -386t375 -136q266 0 469 104l72 -182q-238 -127 -531 -127
q-342 0 -532.5 187.5t-190.5 529.5q0 132 39.5 270t121 268.5t194 232.5t272.5 164t342 62zM948 803q-60 0 -110 -54t-74.5 -121.5t-24.5 -123.5t21 -85.5t61 -29.5q54 0 104 56t76.5 125.5t26.5 121.5q0 111 -80 111z" />
    <glyph glyph-name="A" unicode="A" horiz-adv-x="1497" 
d="M958 262h-493l-139 -262h-459l852 1458h526l127 -1458h-405zM948 584l-4 100q-9 243 -6 492h-4q-140 -295 -246 -492l-53 -100h313z" />
    <glyph glyph-name="B" unicode="B" horiz-adv-x="1386" 
d="M375 1458h590q233 0 349 -87t116 -241q0 -127 -78 -233.5t-250 -155.5v-4q198 -53 198 -274q0 -65 -22.5 -128.5t-71.5 -124.5t-119.5 -107.5t-176 -74.5t-230.5 -28h-668zM696 1157l-69 -276h172q119 0 169 45t50 114q0 117 -168 117h-154zM555 594l-72 -291h181
q223 0 223 168q0 65 -43.5 94t-138.5 29h-150z" />
    <glyph glyph-name="C" unicode="C" horiz-adv-x="1492" 
d="M946 1491q263 0 416.5 -136.5t153.5 -379.5q0 -36 -7 -90h-430q4 36 4 57q0 95 -46.5 148t-133.5 53q-71 0 -133 -36t-105 -94t-74 -131t-46 -147.5t-15 -142.5q0 -127 52 -202t151 -75q86 0 159.5 56t108.5 151h435q-81 -263 -278 -409t-466 -146q-280 0 -435 158
t-155 436q0 89 16 180t50 182.5t83 174.5t119.5 155t154.5 125t192 83t229 30z" />
    <glyph glyph-name="D" unicode="D" horiz-adv-x="1538" 
d="M375 1458h436q351 0 533 -162.5t182 -470.5q0 -96 -23 -191.5t-68 -189t-119 -173t-169.5 -140.5t-226.5 -96t-283 -35h-625zM698 1114l-192 -770h149q91 0 167.5 28.5t127 75.5t86 107.5t51 123t15.5 124.5q0 151 -81.5 231t-236.5 80h-86z" />
    <glyph glyph-name="E" unicode="E" 
d="M1346 1120h-646l-55 -219h602l-84 -330h-600l-57 -233h657l-84 -338h-1067l363 1458h1055z" />
    <glyph glyph-name="F" unicode="F" horiz-adv-x="1222" 
d="M1325 1110h-627l-69 -274h585l-86 -347h-585l-121 -489h-410l363 1458h1036z" />
    <glyph glyph-name="G" unicode="G" horiz-adv-x="1552" 
d="M985 1491q262 0 411.5 -123.5t149.5 -335.5q0 -38 -6 -76h-434q2 10 2 29q0 84 -47 130t-133 46q-94 0 -172 -57.5t-126 -146.5t-74 -189.5t-26 -194.5q0 -137 57.5 -218t166.5 -81q97 0 176.5 64t111.5 170h-280l76 301h661l-201 -809h-350l27 111h-4
q-154 -142 -375 -142q-233 0 -362.5 155t-129.5 417q0 135 34 268t106.5 256.5t174 218t248.5 151t318 56.5z" />
    <glyph glyph-name="H" unicode="H" horiz-adv-x="1579" 
d="M1309 0h-410l143 578h-477l-143 -578h-410l363 1458h409l-133 -536h477l134 536h409z" />
    <glyph glyph-name="I" unicode="I" horiz-adv-x="692" 
d="M422 0h-410l363 1458h409z" />
    <glyph glyph-name="J" unicode="J" horiz-adv-x="876" 
d="M979 1458l-244 -975q-66 -259 -220 -381t-413 -122q-102 0 -198 28l80 328q50 -8 84 -8q123 0 187 62.5t105 230.5l209 837h410z" />
    <glyph glyph-name="K" unicode="K" horiz-adv-x="1466" 
d="M981 748l350 -748h-473l-262 690h-4l-170 -690h-410l363 1458h409l-143 -579h4l485 579h533z" />
    <glyph glyph-name="L" unicode="L" horiz-adv-x="1200" 
d="M508 344h631l-84 -344h-1043l363 1458h409z" />
    <glyph glyph-name="M" unicode="M" horiz-adv-x="2134" 
d="M1864 0h-381l174 698q80 318 145 535h-4q-130 -284 -254 -528l-358 -705h-496l-6 705q-3 283 8 528h-4q-66 -317 -121 -535l-174 -698h-381l363 1458h633l6 -627q0 -284 -17 -536h4q104 271 236 536l319 627h670z" />
    <glyph glyph-name="N" unicode="N" horiz-adv-x="1693" 
d="M1421 0h-569l-100 559q-44 257 -88 565h-5q-47 -283 -124 -596l-132 -528h-391l363 1458h571l98 -559q47 -261 91 -565h4q49 295 123 596l131 528h391z" />
    <glyph glyph-name="O" unicode="O" horiz-adv-x="1568" 
d="M942 1491q291 0 454 -172.5t163 -472.5q0 -118 -32.5 -239.5t-101.5 -236.5t-164.5 -204.5t-233 -144t-296.5 -54.5q-291 0 -453.5 173.5t-162.5 475.5q0 118 32.5 239t101 235.5t164.5 203.5t233 143t296 54zM913 1143q-92 0 -167.5 -53.5t-119.5 -136t-67.5 -172
t-23.5 -171.5q0 -143 57.5 -219t167.5 -76q75 0 139 36t107 93t74 128.5t45 142.5t14 135q0 143 -58 218t-168 75z" />
    <glyph glyph-name="P" unicode="P" horiz-adv-x="1378" 
d="M375 1458h514q279 0 416 -116.5t137 -331.5q0 -76 -21 -150.5t-70 -147t-120.5 -128t-181 -89.5t-242.5 -34h-270l-115 -461h-410zM705 1137l-89 -355h179q116 0 172.5 57.5t56.5 135.5q0 162 -188 162h-131z" />
    <glyph glyph-name="Q" unicode="Q" horiz-adv-x="1570" 
d="M1567 868q0 -192 -83 -385.5t-237 -326.5l117 -181l-231 -149l-123 190q-133 -49 -283 -49q-293 0 -457 167.5t-164 457.5q0 121 33.5 245.5t103.5 242t167 209t236.5 147t299.5 55.5q293 0 457 -167t164 -456zM766 289q33 0 63 6l-131 203l232 151l121 -188
q53 82 80.5 184.5t27.5 194.5q0 148 -58.5 225.5t-172.5 77.5q-78 0 -144.5 -37t-111 -95.5t-76.5 -132.5t-46.5 -147t-14.5 -139q0 -148 58.5 -225.5t172.5 -77.5z" />
    <glyph glyph-name="R" unicode="R" horiz-adv-x="1443" 
d="M375 1458h614q477 0 477 -346q0 -154 -98 -280.5t-285 -176.5v-4q67 -28 102.5 -90.5t55.5 -193.5l55 -367h-419l-37 313q-12 107 -53.5 150t-137.5 43h-102l-125 -506h-410zM709 1151l-86 -348h194q63 0 110 19t71.5 49.5t36.5 62t12 63.5q0 154 -181 154h-157z" />
    <glyph glyph-name="S" unicode="S" horiz-adv-x="1353" 
d="M856 1491q262 0 401.5 -95.5t139.5 -281.5q0 -50 -11 -98h-430q5 35 5 41q0 61 -41 93t-119 32q-82 0 -128 -36.5t-46 -84.5q0 -55 47.5 -86t177.5 -72q55 -18 94 -32t86 -36t79.5 -44t65 -53.5t52 -67t31.5 -83t12 -102.5q0 -73 -24.5 -144.5t-78.5 -139.5t-131 -119.5
t-191.5 -83t-250.5 -31.5q-275 0 -426.5 105t-151.5 297q0 44 13 104h442q-6 -30 -6 -53q0 -133 178 -133q88 0 138.5 39t50.5 92q0 60 -46 90t-172 74q-57 20 -93 33.5t-84.5 36t-78.5 43t-63.5 51.5t-52 65t-31 79.5t-12.5 98.5q0 70 24 139.5t77 135t128 116t185.5 81
t240.5 30.5z" />
    <glyph glyph-name="T" unicode="T" horiz-adv-x="1306" 
d="M1440 1114h-434l-277 -1114h-410l279 1114h-434l86 344h1274z" />
    <glyph glyph-name="U" unicode="U" horiz-adv-x="1497" 
d="M1602 1458l-242 -969q-63 -250 -240.5 -386t-441.5 -136q-260 0 -400.5 130t-140.5 364q0 88 27 196l198 801h410l-213 -858q-14 -55 -14 -100q0 -176 170 -176q95 0 160 59.5t94 173.5l223 901h410z" />
    <glyph glyph-name="V" unicode="V" horiz-adv-x="1406" 
d="M850 0h-549l-61 1458h405l4 -559q7 -299 -10 -551h4q115 283 252 551l283 559h458z" />
    <glyph glyph-name="W" unicode="W" horiz-adv-x="2099" 
d="M1673 0h-555l35 588q13 237 47 551h-4q-101 -282 -221 -551l-256 -588h-551l78 1458h379l-39 -520q-20 -274 -60 -590h4q120 321 242 590l232 520h526l-29 -520q-15 -297 -45 -590h4q99 280 228 590l219 520h413z" />
    <glyph glyph-name="X" unicode="X" horiz-adv-x="1452" 
d="M1047 741l274 -741h-444l-132 475h-4l-350 -475h-520l649 770l-256 688h432l119 -454h4l328 454h508z" />
    <glyph glyph-name="Y" unicode="Y" horiz-adv-x="1411" 
d="M913 532l-133 -532h-409l133 532l-271 926h410l51 -256q44 -221 58 -360h4q84 166 221 360l178 256h487z" />
    <glyph glyph-name="Z" unicode="Z" horiz-adv-x="1239" 
d="M1300 1085l-792 -745v-4h641l-84 -336h-1153l92 373l795 745v4h-580l84 336h1090z" />
    <glyph glyph-name="bracketleft" unicode="[" horiz-adv-x="794" 
d="M926 1253h-252l-326 -1308h250l-63 -260h-619l455 1833h620z" />
    <glyph glyph-name="backslash" unicode="\" horiz-adv-x="1062" 
d="M584 1526l198 -1708h-272l-199 1708h273z" />
    <glyph glyph-name="bracketright" unicode="]" horiz-adv-x="794" 
d="M-90 -51h250l325 1308h-249l65 261h619l-457 -1833h-619z" />
    <glyph glyph-name="asciicircum" unicode="^" horiz-adv-x="1112" 
d="M1102 760h-361l-182 393h-4l-182 -393h-363l340 698h412z" />
    <glyph glyph-name="underscore" unicode="_" horiz-adv-x="1024" 
d="M815 -317h-1024l53 215h1024z" />
    <glyph glyph-name="grave" unicode="`" horiz-adv-x="796" 
d="M748 1458l102 -307h-285l-229 307h412z" />
    <glyph glyph-name="a" unicode="a" horiz-adv-x="1179" 
d="M664 1073q452 0 452 -338q0 -63 -18 -137l-72 -295q-48 -200 -43 -303h-352q-3 53 12 115h-4q-153 -144 -346 -144q-150 0 -231.5 78t-81.5 207q0 51 14 97t50 92t92 82t145 65.5t204 44.5q123 19 250 27l6 18q7 35 7 55q0 107 -105 107q-112 0 -139 -133h-377
q35 156 173.5 259t363.5 103zM674 410l14 57q-98 -9 -166 -23q-147 -32 -147 -137q0 -43 25.5 -67.5t74.5 -24.5q76 0 126 52t73 143z" />
    <glyph glyph-name="b" unicode="b" horiz-adv-x="1273" 
d="M616 973h5q113 98 262 98q169 0 260.5 -109.5t91.5 -306.5q0 -90 -24 -184.5t-73 -184.5t-116.5 -160.5t-163.5 -113.5t-205 -43q-91 0 -159.5 41.5t-98.5 120.5h-4l-33 -131h-376l362 1458h393zM696 774q-50 0 -93 -32.5t-70 -83t-42.5 -108t-15.5 -110.5
q0 -82 31.5 -128t89.5 -46q66 0 119 56.5t78.5 132t25.5 147.5q0 82 -31.5 127t-91.5 45z" />
    <glyph glyph-name="c" unicode="c" horiz-adv-x="1206" 
d="M705 1073q225 0 353 -108t128 -295q0 -40 -4 -60h-408q4 24 4 39q0 64 -27 97.5t-75 33.5q-53 0 -97 -37t-69.5 -93t-39 -113t-13.5 -105q0 -172 112 -172q55 0 98.5 39t65.5 109h406q-63 -205 -224 -323t-374 -118q-231 0 -361.5 126.5t-130.5 348.5q0 85 26 172.5
t80.5 170t130.5 146.5t185 103t234 39z" />
    <glyph glyph-name="d" unicode="d" horiz-adv-x="1271" 
d="M1032 0h-377l21 84h-4q-60 -56 -134.5 -85.5t-148.5 -29.5q-169 0 -260.5 109.5t-91.5 306.5q0 90 23.5 184.5t73 184.5t117 160.5t163 113.5t204.5 43q84 0 149.5 -35.5t98.5 -103.5h4l131 526h394zM676 774q-66 0 -119 -56.5t-78.5 -132t-25.5 -147.5q0 -82 31 -127
t91 -45q65 0 118 56t78.5 131t25.5 147q0 82 -31.5 128t-89.5 46z" />
    <glyph glyph-name="e" unicode="e" horiz-adv-x="1216" 
d="M1147 440h-727q-6 -41 -6 -69q0 -150 135 -150q54 0 95.5 28t55.5 73h400q-63 -154 -214 -254.5t-335 -100.5q-246 0 -373 130.5t-127 351.5q0 82 24 167.5t75 167.5t122.5 146.5t175 103.5t224.5 39q239 0 367 -123t128 -338q0 -66 -20 -172zM670 827q-135 0 -199 -180
h328q4 28 4 41q0 139 -133 139z" />
    <glyph glyph-name="f" unicode="f" horiz-adv-x="778" 
d="M809 1479q92 0 190 -25l-65 -262q-15 6 -47 6q-77 0 -123 -34.5t-66 -114.5l-2 -9h189l-70 -280h-188l-189 -760h-393l191 760h-162l69 280h162l23 93q44 172 167.5 259t313.5 87z" />
    <glyph glyph-name="g" unicode="g" horiz-adv-x="1255" 
d="M584 1071q101 0 176 -52t104 -134h4l39 155h367l-260 -1044q-50 -204 -207 -301.5t-404 -97.5q-222 0 -339 74.5t-117 213.5q0 13 4 49h364q-2 -8 -2 -22q0 -37 29.5 -57.5t85.5 -20.5q78 0 131.5 45.5t81.5 153.5l18 71h-4q-120 -90 -252 -90q-168 0 -260 114t-92 318
q0 80 21.5 165.5t67 167.5t107 147t149.5 105t188 40zM664 772q-63 0 -112.5 -51t-72 -115.5t-22.5 -120.5q0 -81 32.5 -127.5t92.5 -46.5q47 0 87.5 29.5t65 74.5t38 93.5t13.5 91.5q0 80 -32 126t-90 46z" />
    <glyph glyph-name="h" unicode="h" horiz-adv-x="1261" 
d="M614 967h4q123 102 269 102q151 0 234 -79t83 -230q0 -71 -20 -152l-152 -608h-393l147 596q13 50 13 82q0 88 -92 88q-141 0 -203 -244l-129 -522h-393l362 1458h393z" />
    <glyph glyph-name="i" unicode="i" horiz-adv-x="614" 
d="M666 1169h-394l72 289h393zM375 0h-393l258 1040h393z" />
    <glyph glyph-name="j" unicode="j" horiz-adv-x="614" 
d="M666 1169h-394l72 289h393zM633 1040l-262 -1056q-49 -189 -174.5 -282t-296.5 -93q-126 0 -215 29l67 262q20 -4 35 -4q89 0 140 47t81 170l232 927h393z" />
    <glyph glyph-name="k" unicode="k" horiz-adv-x="1206" 
d="M842 518l250 -518h-435l-159 479h-4l-119 -479h-393l362 1458h393l-196 -790h4l284 372h498z" />
    <glyph glyph-name="l" unicode="l" horiz-adv-x="614" 
d="M375 0h-393l362 1458h393z" />
    <glyph glyph-name="m" unicode="m" horiz-adv-x="1882" 
d="M1524 1069q143 0 222 -78.5t79 -230.5q0 -61 -23 -158l-149 -602h-393l149 598q10 55 10 82q0 86 -80 86q-135 0 -196 -246l-129 -520h-393l151 604q10 48 10 76q0 41 -21 63.5t-61 22.5q-137 0 -196 -246l-129 -520h-393l258 1040h364l-24 -102h4q128 131 299 131
q221 0 272 -190q152 190 369 190z" />
    <glyph glyph-name="n" unicode="n" horiz-adv-x="1261" 
d="M887 1069q152 0 234.5 -79t82.5 -230q0 -71 -20 -152l-152 -608h-393l147 596q13 50 13 82q0 88 -92 88q-141 0 -203 -244l-129 -522h-393l258 1040h366l-24 -102h4q128 131 301 131z" />
    <glyph glyph-name="o" unicode="o" horiz-adv-x="1265" 
d="M682 1073q250 0 390 -130t140 -357q0 -69 -17.5 -140.5t-51.5 -141t-88 -130t-121.5 -107t-157.5 -73.5t-192 -27q-252 0 -391.5 130t-139.5 358q0 83 24.5 168.5t76.5 166.5t124.5 144t177.5 101t226 38zM672 780q-53 0 -96 -34t-67.5 -87t-37 -108.5t-12.5 -106.5
q0 -184 133 -184q55 0 98 34t67 87t36 108.5t12 106.5q0 184 -133 184z" />
    <glyph glyph-name="p" unicode="p" horiz-adv-x="1273" 
d="M883 1071q169 0 260.5 -109.5t91.5 -306.5q0 -90 -24 -184.5t-73 -184.5t-116.5 -160.5t-163.5 -113.5t-205 -43q-83 0 -148.5 36t-98.5 104h-5l-120 -488h-394l353 1419h376l-20 -84h4q60 56 134.5 85.5t148.5 29.5zM696 774q-50 0 -93 -32.5t-70 -83t-42.5 -108
t-15.5 -110.5q0 -82 31.5 -128t89.5 -46q66 0 119 56.5t78.5 132t25.5 147.5q0 82 -31.5 127t-91.5 45z" />
    <glyph glyph-name="q" unicode="q" horiz-adv-x="1271" 
d="M618 1071q91 0 160 -41.5t99 -120.5h4l32 131h377l-352 -1419h-393l110 447h-4q-114 -99 -262 -99q-169 0 -260.5 109.5t-91.5 306.5q0 90 23.5 184.5t73 184.5t117 160.5t163 113.5t204.5 43zM676 774q-66 0 -119 -56.5t-78.5 -132t-25.5 -147.5q0 -82 31 -127t91 -45
q65 0 118 56t78.5 131t25.5 147q0 82 -31.5 128t-89.5 46z" />
    <glyph glyph-name="r" unicode="r" horiz-adv-x="894" 
d="M915 1057q54 0 101 -13l-84 -335q-49 12 -117 12q-126 0 -213.5 -77.5t-122.5 -223.5l-104 -420h-393l258 1040h364l-29 -125h5q148 142 335 142z" />
    <glyph glyph-name="s" unicode="s" horiz-adv-x="1144" 
d="M672 1073q210 0 325 -72t115 -215q0 -30 -8 -57h-371q4 24 4 37q0 78 -102 78q-54 0 -78.5 -21.5t-24.5 -50.5q0 -35 34 -58t132 -57q45 -16 70 -25.5t66 -28t65 -34.5t53.5 -41.5t45.5 -52.5t27 -64t11 -79q0 -69 -34 -133t-100 -116.5t-174 -84t-243 -31.5
q-485 0 -485 303q0 39 10 68h391q-6 -21 -6 -41q0 -88 121 -88q58 0 89.5 22t31.5 58q0 41 -40 64.5t-161 64.5q-46 15 -75 25.5t-68.5 28.5t-63.5 39t-47 50t-34 68.5t-11 87.5q0 55 19.5 105.5t62.5 96.5t104.5 80t151 54t197.5 20z" />
    <glyph glyph-name="t" unicode="t" horiz-adv-x="815" 
d="M623 760l-76 -301q-10 -48 -10 -72q0 -52 27 -75t89 -23q32 0 56 6l-74 -297q-86 -16 -156 -16q-184 0 -270 71.5t-86 227.5q0 61 24 159l80 320h-157l69 280h158l74 291h393l-72 -291h191l-70 -280h-190z" />
    <glyph glyph-name="u" unicode="u" horiz-adv-x="1261" 
d="M375 -29q-152 0 -235 79.5t-83 230.5q0 65 21 151l151 608h394l-148 -596q-12 -47 -12 -82q0 -88 92 -88q141 0 203 244l129 522h393l-258 -1040h-367l25 102h-4q-128 -131 -301 -131z" />
    <glyph glyph-name="v" unicode="v" horiz-adv-x="1136" 
d="M707 0h-535l-61 1040h401l-6 -350q-7 -250 -25 -434h4q90 235 185 434l170 350h444z" />
    <glyph glyph-name="w" unicode="w" horiz-adv-x="1814" 
d="M1444 0h-522l18 371q7 168 29 432h-4q-78 -230 -168 -432l-168 -371h-516l24 1040h361l-35 -362q-31 -326 -45 -432h4q84 230 182 436l168 358h494l-9 -358q-7 -257 -22 -436h4q55 179 154 432l147 362h395z" />
    <glyph glyph-name="x" unicode="x" horiz-adv-x="1148" 
d="M815 520l217 -520h-409l-82 301h-4l-205 -301h-473l481 547l-201 493h412l63 -274h4l179 274h471z" />
    <glyph glyph-name="y" unicode="y" horiz-adv-x="1140" 
d="M1288 1040l-573 -1003q-139 -245 -273 -337.5t-338 -92.5q-108 0 -196 20l72 283q43 -12 94 -12q76 0 116.5 38.5t40.5 102.5q0 55 -18 174l-109 827h390l12 -346q10 -238 2 -432h4q81 213 180 434l158 344h438z" />
    <glyph glyph-name="z" unicode="z" horiz-adv-x="1067" 
d="M1042 731l-538 -430l-2 -4h446l-71 -297h-945l76 309l541 430l2 4h-418l74 297h913z" />
    <glyph glyph-name="braceleft" unicode="{" horiz-adv-x="784" 
d="M971 1518l-56 -224q-80 -3 -122 -33.5t-62 -109.5l-69 -287q-29 -111 -98.5 -172t-188.5 -86l-2 -6q80 -24 119.5 -74.5t39.5 -136.5q0 -46 -14 -98l-53 -205q-10 -48 -10 -72q0 -56 27.5 -79t88.5 -25l-57 -225h-33q-208 0 -295.5 63t-87.5 203q0 60 23 164l51 200
q10 48 10 72q0 52 -23.5 81t-78.5 48l57 232q84 17 122.5 49.5t57.5 103.5l64 256q33 133 89 209.5t158.5 114t268.5 37.5h74z" />
    <glyph glyph-name="bar" unicode="|" horiz-adv-x="612" 
d="M469 -420h-324v1919h324v-1919z" />
    <glyph glyph-name="braceright" unicode="}" horiz-adv-x="784" 
d="M-145 -315l53 223q81 3 122.5 33.5t61.5 109.5l72 287q29 111 98.5 172t188.5 86l2 6q-81 24 -120.5 74.5t-39.5 136.5q0 46 14 98l51 205q13 47 13 72q0 55 -28 78.5t-89 25.5l55 226h33q208 0 296.5 -63.5t88.5 -203.5q0 -66 -25 -164l-49 -200q-10 -48 -10 -72
q0 -52 23 -81t77 -48l-57 -231q-84 -17 -122.5 -50t-55.5 -104l-64 -256q-34 -133 -90.5 -209t-158.5 -113.5t-267 -37.5h-73z" />
    <glyph glyph-name="asciitilde" unicode="~" horiz-adv-x="1241" 
d="M479 883q56 0 106 -16.5t86.5 -39.5t69 -46t67 -39.5t66.5 -16.5q51 0 93 39.5t59 103.5h250q-50 -211 -172 -329.5t-277 -118.5q-56 0 -106.5 16t-87 39t-69.5 45.5t-67.5 38.5t-66.5 16q-51 0 -91.5 -37.5t-57.5 -103.5h-252q52 211 174 330t276 119z" />
    <glyph glyph-name="nbspace" unicode="&#xa0;" horiz-adv-x="471" 
 />
    <glyph glyph-name="exclamdown" unicode="&#xa1;" horiz-adv-x="751" 
d="M301 1040h408l-82 -329h-410zM227 584h328l-186 -1002h-451z" />
    <glyph glyph-name="cent" unicode="&#xa2;" horiz-adv-x="1343" 
d="M1284 768h-405q4 24 4 37q0 64 -28 98.5t-75 34.5q-53 0 -97.5 -37.5t-70 -93.5t-39.5 -113.5t-14 -105.5q0 -170 115 -170q55 0 98.5 39t63.5 108h407q-60 -191 -204.5 -307t-336.5 -131l-47 -186h-247l51 209q-146 44 -225.5 161t-79.5 289q0 79 22.5 161t70.5 160.5
t114.5 142t161 107.5t204.5 56l47 190h248l-49 -205q151 -35 234 -136t83 -251q0 -27 -6 -57z" />
    <glyph glyph-name="sterling" unicode="&#xa3;" horiz-adv-x="1343" 
d="M1374 946h-377q2 16 2 41q0 115 -108 115q-130 0 -178 -189l-19 -75h264l-69 -287h-266q-41 -168 -168 -229v-5h753l-78 -317h-1212l78 317q91 0 146.5 51.5t86.5 178.5l2 4h-176l70 287h178l35 141q52 209 209 321.5t385 112.5q212 0 332 -99.5t120 -271.5
q0 -52 -10 -96z" />
    <glyph glyph-name="currency" unicode="&#xa4;" horiz-adv-x="1343" 
d="M1026 27l-164 176q-87 -35 -190 -35q-107 0 -191 35l-166 -176l-196 180l162 172q-52 96 -52 217q0 119 52 215l-162 174l196 180l166 -176q84 35 191 35q103 0 190 -35l164 176l197 -180l-162 -172q49 -100 49 -217q0 -124 -49 -215l164 -174zM670 401q85 0 136.5 53.5
t51.5 141.5t-51.5 141.5t-136.5 53.5t-136 -53.5t-51 -141.5t51 -141.5t136 -53.5z" />
    <glyph glyph-name="yen" unicode="&#xa5;" horiz-adv-x="1343" 
d="M999 690h232l-37 -158h-313l-19 -73h312l-39 -156h-312l-75 -303h-410l76 303h-314l39 156h314l18 73h-313l39 158h233l-174 690h408l22 -161q29 -214 39 -359h4q85 177 203 359l104 161h482z" />
    <glyph glyph-name="brokenbar" unicode="&#xa6;" horiz-adv-x="612" 
d="M469 782h-324v717h324v-717zM469 -420h-324v717h324v-717z" />
    <glyph glyph-name="section" unicode="&#xa7;" horiz-adv-x="1361" 
d="M874 1491q218 0 328.5 -82t110.5 -240q0 -31 -6 -65h-371q2 8 2 24q0 42 -26 65.5t-76 23.5q-46 0 -74.5 -27t-28.5 -70q0 -35 37 -61.5t150 -79.5q39 -18 59 -28t56 -28.5t56 -33.5t47.5 -38t42.5 -46t31 -53t22.5 -65t6.5 -75q0 -111 -60.5 -214.5t-185.5 -170.5v-4
q62 -62 62 -160q0 -70 -35 -142t-100.5 -133.5t-173 -100.5t-238.5 -39q-221 0 -335 78.5t-114 234.5q0 42 9 88h376q-4 -24 -4 -37q0 -86 99 -86q53 0 85.5 26.5t32.5 70.5q0 40 -39.5 73t-164.5 103q-42 23 -61 34t-54.5 32.5t-53 36t-43.5 37.5t-39 44t-27 48.5t-19.5 59
t-5.5 66.5q0 110 62.5 212t180.5 155v4q-53 62 -53 147q0 71 33.5 142.5t96 133.5t167.5 101t235 39zM582 784q-86 -57 -86 -143q0 -43 31.5 -76.5t113.5 -81.5q27 -17 88.5 -51.5t91.5 -54.5q43 24 65.5 63t22.5 82q0 45 -31.5 81t-111.5 77q-120 63 -184 104z" />
    <glyph glyph-name="dieresis" unicode="&#xa8;" horiz-adv-x="1021" 
d="M596 1169h-332l72 289h334zM1081 1169h-333l73 289h332z" />
    <glyph glyph-name="copyright" unicode="&#xa9;" horiz-adv-x="1626" 
d="M813 1491q165 0 303 -55t234.5 -154t150 -241.5t53.5 -311.5t-53.5 -311.5t-150 -241.5t-234.5 -154t-303 -55t-303 55t-234.5 154t-150 241.5t-53.5 311.5t53.5 311.5t150 241.5t234.5 154t303 55zM813 1343q-269 0 -433.5 -169t-164.5 -445t164.5 -445t433.5 -169
t433.5 169t164.5 445t-164.5 445t-433.5 169zM817 1180q180 0 287.5 -91.5t114.5 -254.5h-269q-6 63 -40.5 98t-92.5 35q-67 0 -107 -63.5t-40 -174.5q0 -108 40.5 -172.5t106.5 -64.5q57 0 92 37t41 102h273q-12 -169 -121 -260.5t-285 -91.5q-194 0 -304 119.5t-110 330.5
t110.5 331t303.5 120z" />
    <glyph glyph-name="ordfeminine" unicode="&#xaa;" horiz-adv-x="872" 
d="M616 1427q340 0 340 -241q0 -46 -12 -96l-49 -197q-34 -145 -29 -217h-280q0 42 8 78h-4q-111 -99 -248 -99q-108 0 -166.5 55t-58.5 148q0 46 17.5 85.5t57.5 77t114.5 65t178.5 40.5q97 14 174 17l3 12q4 24 4 35q0 67 -66 67q-69 0 -86 -86h-295q24 109 125 182.5
t272 73.5zM614 963l9 36q-59 -4 -107 -16q-92 -20 -92 -86q0 -59 65 -59q94 0 125 125z" />
    <glyph glyph-name="guillemetleft" unicode="&#xab;" horiz-adv-x="1247" 
d="M436 512l113 -401h-318l-145 417l320 402h348zM946 512l113 -401h-318l-143 417l317 402h349z" />
    <glyph glyph-name="logicalnot" unicode="&#xac;" horiz-adv-x="1159" 
d="M1047 246h-304v418h-630v307h934v-725z" />
    <glyph glyph-name="softhyphen" unicode="&#xad;" horiz-adv-x="722" 
d="M647 461h-600l68 274h602z" />
    <glyph glyph-name="registered" unicode="&#xae;" horiz-adv-x="1212" 
d="M715 1491q232 0 373 -145t141 -383t-141 -383.5t-373 -145.5t-373 145.5t-141 383.5t141 383t373 145zM715 1409q-194 0 -313 -122.5t-119 -323.5t119 -324t313 -123t313 123t119 324t-119 323.5t-313 122.5zM446 1290h306q109 0 166 -47.5t57 -132.5q0 -118 -125 -158
v-4q35 -10 57 -37.5t47 -89.5l64 -166h-187l-53 140q-15 46 -39.5 65t-68.5 19h-45v-224h-179v635zM625 1159v-153h73q105 0 105 81q0 33 -25 52.5t-73 19.5h-80z" />
    <glyph glyph-name="macron" unicode="&#xaf;" horiz-adv-x="1009" 
d="M1073 1190h-803l58 235h805z" />
    <glyph glyph-name="degree" unicode="&#xb0;" horiz-adv-x="729" 
d="M528 1479q125 0 213 -88t88 -215q0 -125 -88.5 -213.5t-212.5 -88.5q-126 0 -214.5 88.5t-88.5 213.5q0 127 88.5 215t214.5 88zM528 1300q-53 0 -89 -36t-36 -88q0 -51 36.5 -88t88.5 -37t88.5 37t36.5 88q0 52 -36 88t-89 36z" />
    <glyph glyph-name="plusminus" unicode="&#xb1;" horiz-adv-x="1159" 
d="M733 932h314v-297h-314v-266h-307v266h-313v297h313v266h307v-266zM1047 0h-934v297h934v-297z" />
    <glyph glyph-name="twosuperior" unicode="&#xb2;" horiz-adv-x="991" 
d="M737 1665q181 0 279 -74.5t98 -195.5q0 -231 -334 -342q-129 -43 -174.5 -69.5t-60.5 -59.5h487l-59 -248h-869q33 203 129.5 317.5t282.5 190.5q160 66 197 88q82 46 82 102q0 30 -20 47t-56 17q-43 0 -74 -31.5t-43 -91.5h-330q38 167 159.5 258.5t305.5 91.5z" />
    <glyph glyph-name="threesuperior" unicode="&#xb3;" horiz-adv-x="976" 
d="M729 1665q183 0 284 -68.5t101 -189.5q0 -81 -53.5 -145t-169.5 -99v-2q131 -58 131 -186q0 -58 -29 -114t-83.5 -103t-143.5 -76t-199 -29q-202 0 -306.5 71t-104.5 206q0 42 8 78h323q-6 -18 -6 -41q0 -86 103 -86q59 0 91 30t32 64q0 78 -123 78h-25l55 221h35
q67 0 107.5 26t40.5 68q0 70 -90 70q-54 0 -90 -32t-48 -89h-313q38 163 163 255.5t310 92.5z" />
    <glyph glyph-name="acute" unicode="&#xb4;" horiz-adv-x="794" 
d="M573 1151h-313l223 307h443z" />
    <glyph glyph-name="micro" unicode="&#xb5;" horiz-adv-x="1310" 
d="M1286 1040l-162 -655q-8 -31 -8 -55q0 -58 64 -58q22 0 53 7l-70 -279q-90 -23 -188 -23q-196 0 -234 144h-4q-43 -63 -105 -97t-134 -34q-71 0 -119 33l-100 -402h-394l355 1419h393l-144 -575q-12 -56 -12 -90q0 -101 92 -101q134 0 191 228l133 538h393z" />
    <glyph glyph-name="paragraph" unicode="&#xb6;" horiz-adv-x="1460" 
d="M1563 1204h-164l-363 -1450h-272l360 1450h-145l-361 -1450h-272l201 809q-338 56 -338 402q0 67 19.5 136t60.5 133t97 114t136 80t172 30h930z" />
    <glyph glyph-name="periodcentered" unicode="&#xb7;" horiz-adv-x="593" 
d="M477 420h-409l102 411h408z" />
    <glyph glyph-name="cedilla" unicode="&#xb8;" horiz-adv-x="729" 
d="M324 0l-103 -117q21 6 43 6q77 0 119.5 -39.5t42.5 -109.5q0 -97 -89 -163t-220 -66q-145 0 -248 71l74 127q74 -47 166 -47q43 0 67.5 16.5t24.5 45.5q0 51 -66 51q-31 0 -65 -15l-66 62l152 178h168z" />
    <glyph glyph-name="onesuperior" unicode="&#xb9;" horiz-adv-x="696" 
d="M625 676h-322l141 563h-243l57 229q133 0 209 41.5t113 132.5h286z" />
    <glyph glyph-name="ordmasculine" unicode="&#xba;" horiz-adv-x="933" 
d="M635 1427q183 0 286 -94t103 -258q0 -73 -30 -145.5t-85.5 -135.5t-147.5 -102t-204 -39q-183 0 -286 94.5t-103 258.5q0 57 18 115t56.5 113.5t92.5 98t132 68.5t168 26zM621 1198q-44 0 -75.5 -36t-44 -81t-12.5 -88q0 -112 82 -112q45 0 76 36t43 80t12 88
q0 113 -81 113z" />
    <glyph glyph-name="guillemetright" unicode="&#xbb;" horiz-adv-x="1247" 
d="M299 528l-113 402h320l143 -418l-319 -401h-348zM811 528l-113 402h318l143 -418l-317 -401h-348z" />
    <glyph glyph-name="onequarter" unicode="&#xbc;" horiz-adv-x="1732" 
d="M360 1034h-210l47 199q109 0 175.5 36t102.5 111h260l-207 -827h-290zM1460 1380l-1073 -1380h-225l1073 1380h225zM1618 147h-148l-36 -147h-265l37 147h-399l53 222l424 458h356l-120 -483h147zM1085 344h181l18 76q31 121 64 213h-5q-79 -96 -151 -176z" />
    <glyph glyph-name="onehalf" unicode="&#xbd;" horiz-adv-x="1775" 
d="M528 553h-290l122 481h-210l47 199q109 0 175.5 36t102.5 111h260zM387 0h-225l1073 1380h225zM1393 848q155 0 239 -64.5t84 -167.5q0 -194 -286 -292q-112 -39 -151 -61.5t-52 -49.5h418l-48 -213h-749q28 175 110 272t244 164q143 58 180 81q58 37 58 83q0 51 -62 51
q-39 0 -66.5 -26.5t-37.5 -79.5h-283q34 146 138.5 224.5t263.5 78.5z" />
    <glyph glyph-name="threequarters" unicode="&#xbe;" horiz-adv-x="1955" 
d="M852 811q0 -50 -24.5 -98.5t-70.5 -89.5t-122.5 -66t-169.5 -25q-176 0 -266 61t-90 177q0 35 8 68h276q-4 -20 -4 -35q0 -74 90 -74q51 0 78 25.5t27 54.5q0 68 -107 68h-22l47 188h28q60 0 94.5 23t34.5 59q0 57 -75 57q-100 0 -119 -102h-270q32 141 139 220t268 79
q158 0 245 -58.5t87 -160.5q0 -152 -193 -211v-4q111 -45 111 -156zM1683 1380l-1073 -1380h-225l1073 1380h225zM1841 147h-147l-37 -147h-264l37 147h-400l53 222l424 458h357l-121 -483h147zM1309 344h180l18 76q31 121 64 213h-4q-68 -83 -152 -176z" />
    <glyph glyph-name="questiondown" unicode="&#xbf;" horiz-adv-x="1161" 
d="M545 1040h407l-82 -329h-409zM428 -451q-238 0 -368 98t-130 277q0 110 62 202t221 193q133 87 185 144.5t77 144.5h332q-22 -125 -50.5 -193.5t-76 -118.5t-148.5 -122q-121 -86 -156.5 -135t-35.5 -107q0 -46 28.5 -71t82.5 -25q138 0 182 197h405
q-55 -236 -213.5 -360t-396.5 -124z" />
    <glyph glyph-name="Agrave" unicode="&#xc0;" horiz-adv-x="1497" 
d="M940 1556l-225 320h411l99 -320h-285zM958 262h-493l-139 -262h-459l852 1458h526l127 -1458h-405zM948 584l-4 100q-9 243 -6 492h-4q-140 -295 -246 -492l-53 -100h313z" />
    <glyph glyph-name="Aacute" unicode="&#xc1;" horiz-adv-x="1497" 
d="M1102 1556h-314l228 320h442zM1245 1458l127 -1458h-405l-9 262h-493l-139 -262h-459l852 1458h526zM948 584l-4 100q-9 243 -6 492h-4q-140 -295 -246 -492l-53 -100h313z" />
    <glyph glyph-name="Acircumflex" unicode="&#xc2;" horiz-adv-x="1497" 
d="M913 1556h-333l340 320h331l181 -320h-275l-86 166zM1245 1458l127 -1458h-405l-9 262h-493l-139 -262h-459l852 1458h526zM948 584l-4 100q-9 243 -6 492h-4q-140 -295 -246 -492l-53 -100h313z" />
    <glyph glyph-name="Atilde" unicode="&#xc3;" horiz-adv-x="1497" 
d="M1294 1876h205q-41 -146 -124.5 -228.5t-200.5 -82.5q-58 0 -107.5 21t-89 42t-72.5 21q-71 0 -102 -84h-207q42 147 125.5 229t200.5 82q58 0 108.5 -20.5t90 -41t71.5 -20.5q73 0 102 82zM1245 1458l127 -1458h-405l-9 262h-493l-139 -262h-459l852 1458h526zM948 584
l-4 100q-9 243 -6 492h-4q-140 -295 -246 -492l-53 -100h313z" />
    <glyph glyph-name="Adieresis" unicode="&#xc4;" horiz-adv-x="1497" 
d="M934 1575h-332l72 289h334zM1491 1864l-72 -289h-334l74 289h332zM1245 1458l127 -1458h-405l-9 262h-493l-139 -262h-459l852 1458h526zM948 584l-4 100q-9 243 -6 492h-4q-140 -295 -246 -492l-53 -100h313z" />
    <glyph glyph-name="Aring" unicode="&#xc5;" horiz-adv-x="1497" 
d="M1044 1542q-101 0 -173 72.5t-72 173.5t72 173.5t173 72.5q102 0 174 -72t72 -174t-72 -174t-174 -72zM1044 1907q-49 0 -83.5 -34.5t-34.5 -84.5t34.5 -84.5t83.5 -34.5q50 0 84.5 34.5t34.5 84.5t-34.5 84.5t-84.5 34.5zM958 262h-493l-139 -262h-459l852 1458h526
l127 -1458h-405zM948 584l-4 100q-9 243 -6 492h-4q-140 -295 -246 -492l-53 -100h313z" />
    <glyph glyph-name="AE" unicode="&#xc6;" horiz-adv-x="2025" 
d="M1446 1120l-23 -219h547l-84 -330h-500l-22 -233h524l-84 -338h-846l31 291h-483l-189 -291h-458l985 1458h1317l-84 -338h-631zM1024 618l53 506h-28l-330 -506h305z" />
    <glyph glyph-name="Ccedilla" unicode="&#xc7;" horiz-adv-x="1492" 
d="M1509 885h-430q4 36 4 57q0 95 -46.5 148t-133.5 53q-71 0 -133 -36t-105 -94t-74 -131t-46 -147.5t-15 -142.5q0 -127 52 -202t151 -75q86 0 159.5 56t108.5 151h435q-78 -253 -262.5 -397.5t-438.5 -155.5l-73 -86q21 6 43 6q77 0 119 -39.5t42 -109.5q0 -97 -89 -163
t-220 -66q-145 0 -248 71l74 127q74 -47 166 -47q43 0 67.5 16.5t24.5 45.5q0 51 -66 51q-31 0 -65 -15l-66 62l131 153q-226 32 -349.5 186t-123.5 400q0 89 16 180t50 182.5t83 174.5t119.5 155t154.5 125t192 83t229 30q263 0 416.5 -136.5t153.5 -379.5q0 -36 -7 -90z
" />
    <glyph glyph-name="Egrave" unicode="&#xc8;" 
d="M1128 1556h-284l-226 320h412zM1346 1120h-646l-55 -219h602l-84 -330h-600l-57 -233h657l-84 -338h-1067l363 1458h1055z" />
    <glyph glyph-name="Eacute" unicode="&#xc9;" 
d="M1006 1556h-314l228 320h442zM1346 1120h-646l-55 -219h602l-84 -330h-600l-57 -233h657l-84 -338h-1067l363 1458h1055z" />
    <glyph glyph-name="Ecircumflex" unicode="&#xca;" 
d="M823 1876h332l180 -320h-274l-86 166l-158 -166h-334zM1346 1120h-646l-55 -219h602l-84 -330h-600l-57 -233h657l-84 -338h-1067l363 1458h1055z" />
    <glyph glyph-name="Edieresis" unicode="&#xcb;" 
d="M838 1575h-332l72 289h333zM1323 1575h-334l74 289h332zM1346 1120h-646l-55 -219h602l-84 -330h-600l-57 -233h657l-84 -338h-1067l363 1458h1055z" />
    <glyph glyph-name="Igrave" unicode="&#xcc;" horiz-adv-x="692" 
d="M821 1556h-284l-226 320h412zM422 0h-410l363 1458h409z" />
    <glyph glyph-name="Iacute" unicode="&#xcd;" horiz-adv-x="692" 
d="M698 1556h-313l227 320h443zM422 0h-410l363 1458h409z" />
    <glyph glyph-name="Icircumflex" unicode="&#xce;" horiz-adv-x="692" 
d="M516 1876h332l180 -320h-274l-86 166l-158 -166h-334zM422 0h-410l363 1458h409z" />
    <glyph glyph-name="Idieresis" unicode="&#xcf;" horiz-adv-x="692" 
d="M530 1575h-331l71 289h334zM1016 1575h-334l74 289h331zM422 0h-410l363 1458h409z" />
    <glyph glyph-name="Eth" unicode="&#xd0;" horiz-adv-x="1546" 
d="M383 1458h436q350 0 531.5 -162.5t181.5 -470.5q0 -116 -31.5 -230t-101 -222.5t-170.5 -190.5t-252 -132t-332 -50h-625l152 610h-123l62 250h122zM514 344h150q91 0 167.5 29t126.5 75.5t84.5 107t50 123t15.5 124.5q0 151 -81 231t-236 80h-86l-64 -254h287l-62 -250
h-286z" />
    <glyph glyph-name="Ntilde" unicode="&#xd1;" horiz-adv-x="1693" 
d="M1391 1876h204q-41 -146 -124.5 -228.5t-200.5 -82.5q-58 0 -107.5 21t-89 42t-72.5 21q-71 0 -102 -84h-207q42 147 125.5 229t200.5 82q58 0 108.5 -20.5t90 -41t71.5 -20.5q74 0 103 82zM1421 0h-569l-100 559q-44 257 -88 565h-5q-47 -283 -124 -596l-132 -528h-391
l363 1458h571l98 -559q47 -261 91 -565h4q49 295 123 596l131 528h391z" />
    <glyph glyph-name="Ograve" unicode="&#xd2;" horiz-adv-x="1568" 
d="M1212 1556h-284l-226 320h412zM942 1491q291 0 454 -172.5t163 -472.5q0 -118 -32.5 -239.5t-101.5 -236.5t-164.5 -204.5t-233 -144t-296.5 -54.5q-291 0 -453.5 173.5t-162.5 475.5q0 118 32.5 239t101 235.5t164.5 203.5t233 143t296 54zM913 1143q-92 0 -167.5 -53.5
t-119.5 -136t-67.5 -172t-23.5 -171.5q0 -143 57.5 -219t167.5 -76q75 0 139 36t107 93t74 128.5t45 142.5t14 135q0 143 -58 218t-168 75z" />
    <glyph glyph-name="Oacute" unicode="&#xd3;" horiz-adv-x="1568" 
d="M1090 1556h-314l228 320h442zM942 1491q291 0 454 -172.5t163 -472.5q0 -118 -32.5 -239.5t-101.5 -236.5t-164.5 -204.5t-233 -144t-296.5 -54.5q-291 0 -453.5 173.5t-162.5 475.5q0 118 32.5 239t101 235.5t164.5 203.5t233 143t296 54zM913 1143q-92 0 -167.5 -53.5
t-119.5 -136t-67.5 -172t-23.5 -171.5q0 -143 57.5 -219t167.5 -76q75 0 139 36t107 93t74 128.5t45 142.5t14 135q0 143 -58 218t-168 75z" />
    <glyph glyph-name="Ocircumflex" unicode="&#xd4;" horiz-adv-x="1568" 
d="M907 1876h332l180 -320h-274l-86 166l-158 -166h-334zM942 1491q291 0 454 -172.5t163 -472.5q0 -118 -32.5 -239.5t-101.5 -236.5t-164.5 -204.5t-233 -144t-296.5 -54.5q-291 0 -453.5 173.5t-162.5 475.5q0 118 32.5 239t101 235.5t164.5 203.5t233 143t296 54z
M913 1143q-92 0 -167.5 -53.5t-119.5 -136t-67.5 -172t-23.5 -171.5q0 -143 57.5 -219t167.5 -76q75 0 139 36t107 93t74 128.5t45 142.5t14 135q0 143 -58 218t-168 75z" />
    <glyph glyph-name="Otilde" unicode="&#xd5;" horiz-adv-x="1568" 
d="M1280 1876h205q-41 -146 -124.5 -228.5t-201.5 -82.5q-58 0 -107.5 21t-88.5 42t-72 21q-72 0 -103 -84h-206q42 148 125.5 229.5t199.5 81.5q58 0 108.5 -20.5t90.5 -41t72 -20.5q73 0 102 82zM942 1491q291 0 454 -172.5t163 -472.5q0 -118 -32.5 -239.5t-101.5 -236.5
t-164.5 -204.5t-233 -144t-296.5 -54.5q-291 0 -453.5 173.5t-162.5 475.5q0 118 32.5 239t101 235.5t164.5 203.5t233 143t296 54zM913 1143q-92 0 -167.5 -53.5t-119.5 -136t-67.5 -172t-23.5 -171.5q0 -143 57.5 -219t167.5 -76q75 0 139 36t107 93t74 128.5t45 142.5
t14 135q0 143 -58 218t-168 75z" />
    <glyph glyph-name="Odieresis" unicode="&#xd6;" horiz-adv-x="1568" 
d="M922 1575h-332l72 289h333zM1407 1575h-334l74 289h332zM942 1491q291 0 454 -172.5t163 -472.5q0 -118 -32.5 -239.5t-101.5 -236.5t-164.5 -204.5t-233 -144t-296.5 -54.5q-291 0 -453.5 173.5t-162.5 475.5q0 118 32.5 239t101 235.5t164.5 203.5t233 143t296 54z
M913 1143q-92 0 -167.5 -53.5t-119.5 -136t-67.5 -172t-23.5 -171.5q0 -143 57.5 -219t167.5 -76q75 0 139 36t107 93t74 128.5t45 142.5t14 135q0 143 -58 218t-168 75z" />
    <glyph glyph-name="multiply" unicode="&#xd7;" horiz-adv-x="1159" 
d="M1137 989l-340 -338l340 -340l-215 -217l-340 340l-340 -340l-217 217l342 340l-342 338l217 217l340 -340l340 340z" />
    <glyph glyph-name="Oslash" unicode="&#xd8;" horiz-adv-x="1570" 
d="M1616 1380l-152 -153q95 -159 95 -381q0 -118 -32.5 -239.5t-101.5 -236.5t-164.5 -204.5t-233 -144t-296.5 -54.5q-238 0 -391 119l-143 -145l-138 137l150 153q-94 157 -94 385q0 118 32.5 239t101 235.5t164.5 203.5t233 143t296 54q239 0 393 -117l142 144zM530 610
q0 -35 2 -51l529 537q-56 53 -148 53q-75 0 -140 -36t-108.5 -93.5t-74.5 -129.5t-45.5 -143.5t-14.5 -136.5zM1143 850q0 33 -2 49l-529 -537q56 -53 148 -53q75 0 140 36t108.5 94t74.5 130.5t45.5 144t14.5 136.5z" />
    <glyph glyph-name="Ugrave" unicode="&#xd9;" horiz-adv-x="1497" 
d="M1202 1556h-284l-226 320h412zM1602 1458l-242 -969q-63 -250 -240.5 -386t-441.5 -136q-260 0 -400.5 130t-140.5 364q0 88 27 196l198 801h410l-213 -858q-14 -55 -14 -100q0 -176 170 -176q95 0 160 59.5t94 173.5l223 901h410z" />
    <glyph glyph-name="Uacute" unicode="&#xda;" horiz-adv-x="1497" 
d="M1081 1556h-313l227 320h443zM1602 1458l-242 -969q-63 -250 -240.5 -386t-441.5 -136q-260 0 -400.5 130t-140.5 364q0 88 27 196l198 801h410l-213 -858q-14 -55 -14 -100q0 -176 170 -176q95 0 160 59.5t94 173.5l223 901h410z" />
    <glyph glyph-name="Ucircumflex" unicode="&#xdb;" horiz-adv-x="1497" 
d="M899 1876h332l180 -320h-274l-86 166l-158 -166h-334zM1602 1458l-242 -969q-63 -250 -240.5 -386t-441.5 -136q-260 0 -400.5 130t-140.5 364q0 88 27 196l198 801h410l-213 -858q-14 -55 -14 -100q0 -176 170 -176q95 0 160 59.5t94 173.5l223 901h410z" />
    <glyph glyph-name="Udieresis" unicode="&#xdc;" horiz-adv-x="1497" 
d="M913 1575h-331l71 289h334zM1399 1575h-334l74 289h331zM1602 1458l-242 -969q-63 -250 -240.5 -386t-441.5 -136q-260 0 -400.5 130t-140.5 364q0 88 27 196l198 801h410l-213 -858q-14 -55 -14 -100q0 -176 170 -176q95 0 160 59.5t94 173.5l223 901h410z" />
    <glyph glyph-name="Yacute" unicode="&#xdd;" horiz-adv-x="1411" 
d="M999 1556h-313l227 320h443zM913 532l-133 -532h-409l133 532l-271 926h410l51 -256q44 -221 58 -360h4q84 166 221 360l178 256h487z" />
    <glyph glyph-name="Thorn" unicode="&#xde;" horiz-adv-x="1378" 
d="M731 1237h111q274 0 410.5 -116t136.5 -326q0 -77 -21 -152.5t-70.5 -149t-121 -129t-181 -90t-243.5 -34.5h-269l-59 -240h-412l363 1458h411zM651 915l-90 -354h178q117 0 173.5 56.5t56.5 134.5q0 163 -189 163h-129z" />
    <glyph glyph-name="germandbls" unicode="&#xdf;" horiz-adv-x="1226" 
d="M823 1491q209 0 329 -89t120 -243q0 -123 -81.5 -223.5t-252.5 -147.5v-4q215 -80 215 -303q0 -58 -14.5 -115t-43.5 -112t-78 -101.5t-113.5 -82.5t-154.5 -56t-196 -20q-58 0 -96 10l71 291q12 -4 35 -4q41 0 75.5 13.5t57 35t38.5 49.5t23 56t7 55q0 139 -143 139h-7
l76 309q57 0 99 15.5t64 40t32 49t10 49.5q0 49 -26 74.5t-74 25.5q-64 0 -103.5 -44.5t-64.5 -141.5l-252 -1016h-393l266 1071q51 198 203.5 309t371.5 111z" />
    <glyph glyph-name="agrave" unicode="&#xe0;" horiz-adv-x="1179" 
d="M821 1458l103 -307h-285l-229 307h411zM664 1073q452 0 452 -338q0 -63 -18 -137l-72 -295q-48 -200 -43 -303h-352q-3 53 12 115h-4q-153 -144 -346 -144q-150 0 -231.5 78t-81.5 207q0 51 14 97t50 92t92 82t145 65.5t204 44.5q123 19 250 27l6 18q7 35 7 55
q0 107 -105 107q-112 0 -139 -133h-377q35 156 173.5 259t363.5 103zM674 410l14 57q-98 -9 -166 -23q-147 -32 -147 -137q0 -43 25.5 -67.5t74.5 -24.5q76 0 126 52t73 143z" />
    <glyph glyph-name="aacute" unicode="&#xe1;" horiz-adv-x="1179" 
d="M801 1151h-314l224 307h442zM664 1073q452 0 452 -338q0 -63 -18 -137l-72 -295q-48 -200 -43 -303h-352q-3 53 12 115h-4q-153 -144 -346 -144q-150 0 -231.5 78t-81.5 207q0 51 14 97t50 92t92 82t145 65.5t204 44.5q123 19 250 27l6 18q7 35 7 55q0 107 -105 107
q-112 0 -139 -133h-377q35 156 173.5 259t363.5 103zM674 410l14 57q-98 -9 -166 -23q-147 -32 -147 -137q0 -43 25.5 -67.5t74.5 -24.5q76 0 126 52t73 143z" />
    <glyph glyph-name="acircumflex" unicode="&#xe2;" horiz-adv-x="1179" 
d="M1122 1151h-278l-78 154l-148 -154h-329l327 307h332zM664 1073q452 0 452 -338q0 -63 -18 -137l-72 -295q-48 -200 -43 -303h-352q-3 53 12 115h-4q-153 -144 -346 -144q-150 0 -231.5 78t-81.5 207q0 51 14 97t50 92t92 82t145 65.5t204 44.5q123 19 250 27l6 18
q7 35 7 55q0 107 -105 107q-112 0 -139 -133h-377q35 156 173.5 259t363.5 103zM674 410l14 57q-98 -9 -166 -23q-147 -32 -147 -137q0 -43 25.5 -67.5t74.5 -24.5q76 0 126 52t73 143z" />
    <glyph glyph-name="atilde" unicode="&#xe3;" horiz-adv-x="1179" 
d="M989 1458h205q-41 -146 -124.5 -228.5t-201.5 -82.5q-58 0 -107.5 21t-88.5 42t-72 21q-73 0 -100 -84h-209q42 148 125.5 229.5t199.5 81.5q58 0 108.5 -20.5t90.5 -41t72 -20.5q73 0 102 82zM664 1073q452 0 452 -338q0 -63 -18 -137l-72 -295q-48 -200 -43 -303h-352
q-3 53 12 115h-4q-153 -144 -346 -144q-150 0 -231.5 78t-81.5 207q0 51 14 97t50 92t92 82t145 65.5t204 44.5q123 19 250 27l6 18q7 35 7 55q0 107 -105 107q-112 0 -139 -133h-377q35 156 173.5 259t363.5 103zM674 410l14 57q-98 -9 -166 -23q-147 -32 -147 -137
q0 -43 25.5 -67.5t74.5 -24.5q76 0 126 52t73 143z" />
    <glyph glyph-name="adieresis" unicode="&#xe4;" horiz-adv-x="1179" 
d="M633 1169h-332l72 289h334zM1118 1169h-334l74 289h332zM664 1073q452 0 452 -338q0 -63 -18 -137l-72 -295q-48 -200 -43 -303h-352q-3 53 12 115h-4q-153 -144 -346 -144q-150 0 -231.5 78t-81.5 207q0 51 14 97t50 92t92 82t145 65.5t204 44.5q123 19 250 27l6 18
q7 35 7 55q0 107 -105 107q-112 0 -139 -133h-377q35 156 173.5 259t363.5 103zM674 410l14 57q-98 -9 -166 -23q-147 -32 -147 -137q0 -43 25.5 -67.5t74.5 -24.5q76 0 126 52t73 143z" />
    <glyph glyph-name="aring" unicode="&#xe5;" horiz-adv-x="1179" 
d="M739 1616q102 0 174 -72t72 -174t-72 -174t-174 -72q-101 0 -173 72.5t-72 173.5t72 173.5t173 72.5zM739 1489q-49 0 -83.5 -34.5t-34.5 -84.5t34.5 -84.5t83.5 -34.5t84 34.5t35 84.5t-35 84.5t-84 34.5zM664 1073q452 0 452 -338q0 -63 -18 -137l-72 -295
q-48 -200 -43 -303h-352q-3 53 12 115h-4q-153 -144 -346 -144q-150 0 -231.5 78t-81.5 207q0 51 14 97t50 92t92 82t145 65.5t204 44.5q123 19 250 27l6 18q7 35 7 55q0 107 -105 107q-112 0 -139 -133h-377q35 156 173.5 259t363.5 103zM674 410l14 57q-98 -9 -166 -23
q-147 -32 -147 -137q0 -43 25.5 -67.5t74.5 -24.5q76 0 126 52t73 143z" />
    <glyph glyph-name="ae" unicode="&#xe6;" horiz-adv-x="1863" 
d="M1794 440h-721q-6 -40 -6 -69q0 -150 131 -150q54 0 95 28t55 73h399q-64 -154 -218 -254.5t-341 -100.5q-264 0 -379 183q-160 -183 -424 -183q-195 0 -297 82.5t-102 220.5q0 65 20.5 119.5t69 103t124 82t191 53t264.5 19.5h101l8 31q10 42 10 61q0 105 -117 105
q-126 0 -153 -133h-375q19 75 61 138.5t106.5 114.5t160 80t211.5 29q232 0 336 -104q145 104 331 104q231 0 355.5 -123.5t124.5 -337.5q0 -61 -21 -172zM1319 827q-131 0 -195 -180h322q4 28 4 41q0 139 -131 139zM709 457h-84q-141 0 -197.5 -44.5t-56.5 -109.5
q0 -98 112 -98q163 0 217 219z" />
    <glyph glyph-name="ccedilla" unicode="&#xe7;" horiz-adv-x="1206" 
d="M1182 610h-408q4 24 4 39q0 64 -27 97.5t-75 33.5q-53 0 -97 -37t-69.5 -93t-39 -113t-13.5 -105q0 -172 112 -172q55 0 98.5 39t65.5 109h406q-58 -192 -204 -308.5t-341 -130.5l-76 -86q21 6 43 6q77 0 119.5 -39.5t42.5 -109.5q0 -97 -89 -163t-220 -66
q-145 0 -248 71l74 127q74 -47 166 -47q43 0 67.5 16.5t24.5 45.5q0 51 -66 51q-31 0 -65 -15l-66 62l131 153q-183 29 -283 151t-100 316q0 85 26 172.5t80.5 170t130.5 146.5t185 103t234 39q225 0 353 -108t128 -295q0 -40 -4 -60z" />
    <glyph glyph-name="egrave" unicode="&#xe8;" horiz-adv-x="1216" 
d="M657 1151l-229 307h412l102 -307h-285zM1147 440h-727q-6 -41 -6 -69q0 -150 135 -150q54 0 95.5 28t55.5 73h400q-63 -154 -214 -254.5t-335 -100.5q-246 0 -373 130.5t-127 351.5q0 82 24 167.5t75 167.5t122.5 146.5t175 103.5t224.5 39q239 0 367 -123t128 -338
q0 -66 -20 -172zM670 827q-135 0 -199 -180h328q4 28 4 41q0 139 -133 139z" />
    <glyph glyph-name="eacute" unicode="&#xe9;" horiz-adv-x="1216" 
d="M819 1151h-313l223 307h442zM672 1073q239 0 367 -123t128 -338q0 -66 -20 -172h-727q-6 -41 -6 -69q0 -150 135 -150q54 0 95.5 28t55.5 73h400q-63 -154 -214 -254.5t-335 -100.5q-246 0 -373 130.5t-127 351.5q0 82 24 167.5t75 167.5t122.5 146.5t175 103.5t224.5 39
zM670 827q-135 0 -199 -180h328q4 28 4 41q0 139 -133 139z" />
    <glyph glyph-name="ecircumflex" unicode="&#xea;" horiz-adv-x="1216" 
d="M637 1151h-330l328 307h332l174 -307h-279l-78 154zM1147 440h-727q-6 -41 -6 -69q0 -150 135 -150q54 0 95.5 28t55.5 73h400q-63 -154 -214 -254.5t-335 -100.5q-246 0 -373 130.5t-127 351.5q0 82 24 167.5t75 167.5t122.5 146.5t175 103.5t224.5 39q239 0 367 -123
t128 -338q0 -66 -20 -172zM670 827q-135 0 -199 -180h328q4 28 4 41q0 139 -133 139z" />
    <glyph glyph-name="edieresis" unicode="&#xeb;" horiz-adv-x="1216" 
d="M651 1169h-332l72 289h334zM1137 1169h-334l74 289h331zM672 1073q239 0 367 -123t128 -338q0 -66 -20 -172h-727q-6 -41 -6 -69q0 -150 135 -150q54 0 95.5 28t55.5 73h400q-63 -154 -214 -254.5t-335 -100.5q-246 0 -373 130.5t-127 351.5q0 82 24 167.5t75 167.5
t122.5 146.5t175 103.5t224.5 39zM670 827q-135 0 -199 -180h328q4 28 4 41q0 139 -133 139z" />
    <glyph glyph-name="igrave" unicode="&#xec;" horiz-adv-x="614" 
d="M580 1458l102 -307h-285l-229 307h412zM375 0h-393l258 1040h393z" />
    <glyph glyph-name="iacute" unicode="&#xed;" horiz-adv-x="614" 
d="M561 1151h-313l223 307h442zM375 0h-393l258 1040h393z" />
    <glyph glyph-name="icircumflex" unicode="&#xee;" horiz-adv-x="614" 
d="M852 1157h-270l-66 131l-129 -131h-309l307 301h311zM375 0h-393l258 1040h393z" />
    <glyph glyph-name="idieresis" unicode="&#xef;" horiz-adv-x="614" 
d="M420 1169h-291l72 289h293zM807 1169h-293l74 289h291zM375 0h-393l258 1040h393z" />
    <glyph glyph-name="eth" unicode="&#xf0;" horiz-adv-x="1239" 
d="M1212 1325l-206 -68q196 -270 196 -583q0 -101 -25 -199.5t-78.5 -191t-129.5 -162.5t-186.5 -112t-241.5 -42q-232 0 -363 125.5t-131 343.5q0 78 22 159t68.5 157.5t111 136t158.5 95.5t203 36q62 0 129 -19l2 5q-37 62 -94 135l-287 -94l-51 157l217 72q-56 52 -86 78
l340 137q46 -36 109 -96l270 88zM578 252q51 0 94 37.5t67.5 93.5t38 113.5t13.5 105.5q0 84 -31 129t-92 45q-51 0 -93 -38t-66.5 -95t-37.5 -116t-14 -109q3 -166 121 -166z" />
    <glyph glyph-name="ntilde" unicode="&#xf1;" horiz-adv-x="1261" 
d="M1077 1458h205q-41 -146 -124.5 -228.5t-201.5 -82.5q-58 0 -107.5 21t-88.5 42t-72 21q-73 0 -100 -84h-209q42 147 125.5 229t200.5 82q58 0 108.5 -20.5t90 -41t71.5 -20.5q73 0 102 82zM887 1069q152 0 234.5 -79t82.5 -230q0 -71 -20 -152l-152 -608h-393l147 596
q13 50 13 82q0 88 -92 88q-141 0 -203 -244l-129 -522h-393l258 1040h366l-24 -102h4q128 131 301 131z" />
    <glyph glyph-name="ograve" unicode="&#xf2;" horiz-adv-x="1265" 
d="M864 1458l103 -307h-285l-229 307h411zM682 1073q250 0 390 -130t140 -357q0 -69 -17.5 -140.5t-51.5 -141t-88 -130t-121.5 -107t-157.5 -73.5t-192 -27q-252 0 -391.5 130t-139.5 358q0 83 24.5 168.5t76.5 166.5t124.5 144t177.5 101t226 38zM672 780q-53 0 -96 -34
t-67.5 -87t-37 -108.5t-12.5 -106.5q0 -184 133 -184q55 0 98 34t67 87t36 108.5t12 106.5q0 184 -133 184z" />
    <glyph glyph-name="oacute" unicode="&#xf3;" horiz-adv-x="1265" 
d="M846 1151h-314l224 307h442zM682 1073q250 0 390 -130t140 -357q0 -69 -17.5 -140.5t-51.5 -141t-88 -130t-121.5 -107t-157.5 -73.5t-192 -27q-252 0 -391.5 130t-139.5 358q0 83 24.5 168.5t76.5 166.5t124.5 144t177.5 101t226 38zM672 780q-53 0 -96 -34t-67.5 -87
t-37 -108.5t-12.5 -106.5q0 -184 133 -184q55 0 98 34t67 87t36 108.5t12 106.5q0 184 -133 184z" />
    <glyph glyph-name="ocircumflex" unicode="&#xf4;" horiz-adv-x="1265" 
d="M1165 1151h-278l-78 154l-147 -154h-330l327 307h332zM682 1073q250 0 390 -130t140 -357q0 -69 -17.5 -140.5t-51.5 -141t-88 -130t-121.5 -107t-157.5 -73.5t-192 -27q-252 0 -391.5 130t-139.5 358q0 83 24.5 168.5t76.5 166.5t124.5 144t177.5 101t226 38zM672 780
q-53 0 -96 -34t-67.5 -87t-37 -108.5t-12.5 -106.5q0 -184 133 -184q55 0 98 34t67 87t36 108.5t12 106.5q0 184 -133 184z" />
    <glyph glyph-name="otilde" unicode="&#xf5;" horiz-adv-x="1265" 
d="M1032 1458h205q-41 -146 -124.5 -228.5t-201.5 -82.5q-58 0 -107.5 21t-88.5 42t-72 21q-73 0 -100 -84h-209q42 148 125.5 229.5t199.5 81.5q58 0 108.5 -20.5t90.5 -41t72 -20.5q73 0 102 82zM682 1073q250 0 390 -130t140 -357q0 -69 -17.5 -140.5t-51.5 -141
t-88 -130t-121.5 -107t-157.5 -73.5t-192 -27q-252 0 -391.5 130t-139.5 358q0 83 24.5 168.5t76.5 166.5t124.5 144t177.5 101t226 38zM672 780q-53 0 -96 -34t-67.5 -87t-37 -108.5t-12.5 -106.5q0 -184 133 -184q55 0 98 34t67 87t36 108.5t12 106.5q0 184 -133 184z" />
    <glyph glyph-name="odieresis" unicode="&#xf6;" horiz-adv-x="1265" 
d="M676 1169h-332l72 289h334zM1161 1169h-334l74 289h332zM682 1073q250 0 390 -130t140 -357q0 -69 -17.5 -140.5t-51.5 -141t-88 -130t-121.5 -107t-157.5 -73.5t-192 -27q-252 0 -391.5 130t-139.5 358q0 83 24.5 168.5t76.5 166.5t124.5 144t177.5 101t226 38zM672 780
q-53 0 -96 -34t-67.5 -87t-37 -108.5t-12.5 -106.5q0 -184 133 -184q55 0 98 34t67 87t36 108.5t12 106.5q0 184 -133 184z" />
    <glyph glyph-name="divide" unicode="&#xf7;" horiz-adv-x="1159" 
d="M748 901h-336v258h336v-258zM1047 498h-934v305h934v-305zM748 139h-336v258h336v-258z" />
    <glyph glyph-name="oslash" unicode="&#xf8;" horiz-adv-x="1265" 
d="M1235 1014l-117 -121q94 -123 94 -307q0 -69 -17.5 -140.5t-51.5 -141t-88 -130t-121.5 -107t-157.5 -73.5t-192 -27q-180 0 -308 70l-124 -129l-121 119l116 120q-94 123 -94 308q0 83 24.5 168.5t76.5 166.5t124.5 144t177.5 101t226 38q181 0 307 -69l125 129z
M672 799q-60 0 -108 -37t-75 -93.5t-41 -115t-14 -109.5v-24l338 344q-38 35 -100 35zM592 242q61 0 109 37t74.5 93.5t40 114t13.5 109.5v20l-335 -342q40 -32 98 -32z" />
    <glyph glyph-name="ugrave" unicode="&#xf9;" horiz-adv-x="1261" 
d="M885 1458l102 -307h-285l-229 307h412zM375 -29q-152 0 -235 79.5t-83 230.5q0 65 21 151l151 608h394l-148 -596q-12 -47 -12 -82q0 -88 92 -88q141 0 203 244l129 522h393l-258 -1040h-367l25 102h-4q-128 -131 -301 -131z" />
    <glyph glyph-name="uacute" unicode="&#xfa;" horiz-adv-x="1261" 
d="M864 1151h-313l223 307h443zM375 -29q-152 0 -235 79.5t-83 230.5q0 65 21 151l151 608h394l-148 -596q-12 -47 -12 -82q0 -88 92 -88q141 0 203 244l129 522h393l-258 -1040h-367l25 102h-4q-128 -131 -301 -131z" />
    <glyph glyph-name="ucircumflex" unicode="&#xfb;" horiz-adv-x="1261" 
d="M1186 1151h-279l-78 154l-147 -154h-330l328 307h332zM375 -29q-152 0 -235 79.5t-83 230.5q0 65 21 151l151 608h394l-148 -596q-12 -47 -12 -82q0 -88 92 -88q141 0 203 244l129 522h393l-258 -1040h-367l25 102h-4q-128 -131 -301 -131z" />
    <glyph glyph-name="udieresis" unicode="&#xfc;" horiz-adv-x="1261" 
d="M696 1169h-331l71 289h334zM1182 1169h-334l74 289h331zM375 -29q-152 0 -235 79.5t-83 230.5q0 65 21 151l151 608h394l-148 -596q-12 -47 -12 -82q0 -88 92 -88q141 0 203 244l129 522h393l-258 -1040h-367l25 102h-4q-128 -131 -301 -131z" />
    <glyph glyph-name="yacute" unicode="&#xfd;" horiz-adv-x="1140" 
d="M791 1151h-314l223 307h443zM1288 1040l-573 -1003q-139 -245 -273 -337.5t-338 -92.5q-108 0 -196 20l72 283q43 -12 94 -12q76 0 116.5 38.5t40.5 102.5q0 55 -18 174l-109 827h390l12 -346q10 -238 2 -432h4q81 213 180 434l158 344h438z" />
    <glyph glyph-name="thorn" unicode="&#xfe;" horiz-adv-x="1271" 
d="M618 975h5q119 96 260 96q169 0 260.5 -109.5t91.5 -306.5q0 -90 -24 -184.5t-73 -184.5t-116.5 -160.5t-163.5 -113.5t-205 -43q-83 0 -148.5 36t-98.5 104h-5l-120 -488h-394l457 1837h393zM696 774q-50 0 -93 -32.5t-70 -83t-42.5 -108t-15.5 -110.5q0 -82 31.5 -128
t89.5 -46q66 0 119 56.5t78.5 132t25.5 147.5q0 82 -31.5 127t-91.5 45z" />
    <glyph glyph-name="ydieresis" unicode="&#xff;" horiz-adv-x="1140" 
d="M621 1169h-332l71 289h334zM1106 1169h-334l74 289h332zM1288 1040l-573 -1003q-139 -245 -273 -337.5t-338 -92.5q-108 0 -196 20l72 283q43 -12 94 -12q76 0 116.5 38.5t40.5 102.5q0 55 -18 174l-109 827h390l12 -346q10 -238 2 -432h4q81 213 180 434l158 344h438z
" />
    <glyph glyph-name="Amacron" unicode="&#x100;" horiz-adv-x="1497" 
d="M1475 1823l-60 -236h-803l58 236h805zM1245 1458l127 -1458h-405l-9 262h-493l-139 -262h-459l852 1458h526zM948 584l-4 100q-9 243 -6 492h-4q-140 -295 -246 -492l-53 -100h313z" />
    <glyph glyph-name="amacron" unicode="&#x101;" horiz-adv-x="1179" 
d="M1116 1190h-803l58 235h805zM664 1073q452 0 452 -338q0 -63 -18 -137l-72 -295q-48 -200 -43 -303h-352q-3 53 12 115h-4q-153 -144 -346 -144q-150 0 -231.5 78t-81.5 207q0 51 14 97t50 92t92 82t145 65.5t204 44.5q123 19 250 27l6 18q7 35 7 55q0 107 -105 107
q-112 0 -139 -133h-377q35 156 173.5 259t363.5 103zM674 410l14 57q-98 -9 -166 -23q-147 -32 -147 -137q0 -43 25.5 -67.5t74.5 -24.5q76 0 126 52t73 143z" />
    <glyph glyph-name="Abreve" unicode="&#x102;" horiz-adv-x="1497" 
d="M1018 1554q-150 0 -228.5 65.5t-78.5 188.5q0 31 6 68h217q-2 -8 -2 -23q0 -81 108 -81q127 0 156 104h262q-43 -154 -156.5 -238t-283.5 -84zM1245 1458l127 -1458h-405l-9 262h-493l-139 -262h-459l852 1458h526zM948 584l-4 100q-9 243 -6 492h-4q-140 -295 -246 -492
l-53 -100h313z" />
    <glyph glyph-name="abreve" unicode="&#x103;" horiz-adv-x="1179" 
d="M891 1458h262q-43 -154 -156.5 -237.5t-283.5 -83.5q-150 0 -228.5 65.5t-78.5 188.5q0 29 6 67h217q-2 -8 -2 -22q0 -82 108 -82q127 0 156 104zM664 1073q452 0 452 -338q0 -63 -18 -137l-72 -295q-48 -200 -43 -303h-352q-3 53 12 115h-4q-153 -144 -346 -144
q-150 0 -231.5 78t-81.5 207q0 51 14 97t50 92t92 82t145 65.5t204 44.5q123 19 250 27l6 18q7 35 7 55q0 107 -105 107q-112 0 -139 -133h-377q35 156 173.5 259t363.5 103zM674 410l14 57q-98 -9 -166 -23q-147 -32 -147 -137q0 -43 25.5 -67.5t74.5 -24.5q76 0 126 52
t73 143z" />
    <glyph glyph-name="Aogonek" unicode="&#x104;" horiz-adv-x="1497" 
d="M1208 -162q0 -39 54 -39q34 0 67 13l-49 -199q-102 -25 -203 -25q-125 0 -186.5 43t-61.5 121q0 76 58.5 135.5t183.5 112.5h-104l-9 262h-493l-139 -262h-459l852 1458h526l127 -1458q-93 -51 -128.5 -89.5t-35.5 -72.5zM948 584l-4 100q-9 243 -6 492h-4
q-140 -295 -246 -492l-53 -100h313z" />
    <glyph glyph-name="aogonek" unicode="&#x105;" horiz-adv-x="1179" 
d="M664 1073q452 0 452 -338q0 -63 -18 -137l-72 -295q-48 -200 -43 -303q-93 -51 -128.5 -89.5t-35.5 -72.5q0 -39 53 -39q36 0 68 13l-49 -199q-102 -25 -203 -25q-125 0 -186.5 43t-61.5 121q0 76 58.5 135.5t183.5 112.5h-51q-3 53 12 115h-4q-153 -144 -346 -144
q-150 0 -231.5 78t-81.5 207q0 51 14 97t50 92t92 82t145 65.5t204 44.5q123 19 250 27l6 18q7 35 7 55q0 107 -105 107q-112 0 -139 -133h-377q35 156 173.5 259t363.5 103zM674 410l14 57q-98 -9 -166 -23q-147 -32 -147 -137q0 -43 25.5 -67.5t74.5 -24.5q76 0 126 52
t73 143z" />
    <glyph glyph-name="Cacute" unicode="&#x106;" horiz-adv-x="1492" 
d="M1071 1556h-313l227 320h442zM946 1491q263 0 416.5 -136.5t153.5 -379.5q0 -36 -7 -90h-430q4 36 4 57q0 95 -46.5 148t-133.5 53q-71 0 -133 -36t-105 -94t-74 -131t-46 -147.5t-15 -142.5q0 -127 52 -202t151 -75q86 0 159.5 56t108.5 151h435q-81 -263 -278 -409
t-466 -146q-280 0 -435 158t-155 436q0 89 16 180t50 182.5t83 174.5t119.5 155t154.5 125t192 83t229 30z" />
    <glyph glyph-name="cacute" unicode="&#x107;" horiz-adv-x="1206" 
d="M825 1151h-313l223 307h443zM705 1073q225 0 353 -108t128 -295q0 -40 -4 -60h-408q4 24 4 39q0 64 -27 97.5t-75 33.5q-53 0 -97 -37t-69.5 -93t-39 -113t-13.5 -105q0 -172 112 -172q55 0 98.5 39t65.5 109h406q-63 -205 -224 -323t-374 -118q-231 0 -361.5 126.5
t-130.5 348.5q0 85 26 172.5t80.5 170t130.5 146.5t185 103t234 39z" />
    <glyph glyph-name="Ccircumflex" unicode="&#x108;" horiz-adv-x="1492" 
d="M889 1876h332l180 -320h-275l-86 166l-157 -166h-334zM946 1491q263 0 416.5 -136.5t153.5 -379.5q0 -36 -7 -90h-430q4 36 4 57q0 95 -46.5 148t-133.5 53q-71 0 -133 -36t-105 -94t-74 -131t-46 -147.5t-15 -142.5q0 -127 52 -202t151 -75q86 0 159.5 56t108.5 151h435
q-81 -263 -278 -409t-466 -146q-280 0 -435 158t-155 436q0 89 16 180t50 182.5t83 174.5t119.5 155t154.5 125t192 83t229 30z" />
    <glyph glyph-name="ccircumflex" unicode="&#x109;" horiz-adv-x="1206" 
d="M1147 1151h-279l-77 154l-148 -154h-330l328 307h332zM705 1073q225 0 353 -108t128 -295q0 -40 -4 -60h-408q4 24 4 39q0 64 -27 97.5t-75 33.5q-53 0 -97 -37t-69.5 -93t-39 -113t-13.5 -105q0 -172 112 -172q55 0 98.5 39t65.5 109h406q-63 -205 -224 -323t-374 -118
q-231 0 -361.5 126.5t-130.5 348.5q0 85 26 172.5t80.5 170t130.5 146.5t185 103t234 39z" />
    <glyph glyph-name="Cdotaccent" unicode="&#x10a;" horiz-adv-x="1492" 
d="M1174 1575h-394l72 289h393zM946 1491q263 0 416.5 -136.5t153.5 -379.5q0 -36 -7 -90h-430q4 36 4 57q0 95 -46.5 148t-133.5 53q-71 0 -133 -36t-105 -94t-74 -131t-46 -147.5t-15 -142.5q0 -127 52 -202t151 -75q86 0 159.5 56t108.5 151h435q-81 -263 -278 -409
t-466 -146q-280 0 -435 158t-155 436q0 89 16 180t50 182.5t83 174.5t119.5 155t154.5 125t192 83t229 30z" />
    <glyph glyph-name="cdotaccent" unicode="&#x10b;" horiz-adv-x="1206" 
d="M930 1169h-393l71 289h393zM705 1073q225 0 353 -108t128 -295q0 -40 -4 -60h-408q4 24 4 39q0 64 -27 97.5t-75 33.5q-53 0 -97 -37t-69.5 -93t-39 -113t-13.5 -105q0 -172 112 -172q55 0 98.5 39t65.5 109h406q-63 -205 -224 -323t-374 -118q-231 0 -361.5 126.5
t-130.5 348.5q0 85 26 172.5t80.5 170t130.5 146.5t185 103t234 39z" />
    <glyph glyph-name="Ccaron" unicode="&#x10c;" horiz-adv-x="1492" 
d="M1143 1556h-334l-180 320h276l84 -166l160 166h332zM946 1491q263 0 416.5 -136.5t153.5 -379.5q0 -36 -7 -90h-430q4 36 4 57q0 95 -46.5 148t-133.5 53q-71 0 -133 -36t-105 -94t-74 -131t-46 -147.5t-15 -142.5q0 -127 52 -202t151 -75q86 0 159.5 56t108.5 151h435
q-81 -263 -278 -409t-466 -146q-280 0 -435 158t-155 436q0 89 16 180t50 182.5t83 174.5t119.5 155t154.5 125t192 83t229 30z" />
    <glyph glyph-name="ccaron" unicode="&#x10d;" horiz-adv-x="1206" 
d="M897 1151h-332l-176 307h279l77 -153l150 153h330zM705 1073q225 0 353 -108t128 -295q0 -40 -4 -60h-408q4 24 4 39q0 64 -27 97.5t-75 33.5q-53 0 -97 -37t-69.5 -93t-39 -113t-13.5 -105q0 -172 112 -172q55 0 98.5 39t65.5 109h406q-63 -205 -224 -323t-374 -118
q-231 0 -361.5 126.5t-130.5 348.5q0 85 26 172.5t80.5 170t130.5 146.5t185 103t234 39z" />
    <glyph glyph-name="Dcaron" unicode="&#x10e;" horiz-adv-x="1538" 
d="M1137 1556h-334l-180 320h276l84 -166l160 166h332zM375 1458h436q351 0 533 -162.5t182 -470.5q0 -96 -23 -191.5t-68 -189t-119 -173t-169.5 -140.5t-226.5 -96t-283 -35h-625zM698 1114l-192 -770h149q91 0 167.5 28.5t127 75.5t86 107.5t51 123t15.5 124.5
q0 151 -81.5 231t-236.5 80h-86z" />
    <glyph glyph-name="dcaron" unicode="&#x10f;" horiz-adv-x="1271" 
d="M1032 0h-377l21 84h-4q-60 -56 -134.5 -85.5t-148.5 -29.5q-169 0 -260.5 109.5t-91.5 306.5q0 90 23.5 184.5t73 184.5t117 160.5t163 113.5t204.5 43q84 0 149.5 -35.5t98.5 -103.5h4l131 526h394zM1583 1094h-221l133 364h309zM676 774q-66 0 -119 -56.5t-78.5 -132
t-25.5 -147.5q0 -82 31 -127t91 -45q65 0 118 56t78.5 131t25.5 147q0 82 -31.5 128t-89.5 46z" />
    <glyph glyph-name="Dcroat" unicode="&#x110;" horiz-adv-x="1546" 
d="M383 1458h436q350 0 531.5 -162.5t181.5 -470.5q0 -116 -31.5 -230t-101 -222.5t-170.5 -190.5t-252 -132t-332 -50h-625l152 610h-123l62 250h122zM514 344h150q91 0 167.5 29t126.5 75.5t84.5 107t50 123t15.5 124.5q0 151 -81 231t-236 80h-86l-64 -254h287l-62 -250
h-286z" />
    <glyph glyph-name="dcroat" unicode="&#x111;" horiz-adv-x="1267" 
d="M1456 1163h-135l-289 -1163h-377l21 84h-4q-60 -56 -134.5 -85.5t-148.5 -29.5q-169 0 -260.5 109.5t-91.5 306.5q0 90 23.5 184.5t73 184.5t117 160.5t163 113.5t204.5 43q84 0 149.5 -35.5t98.5 -103.5h4l58 231h-275l43 174h275l30 121h394l-31 -121h137zM575 266
q65 0 118 56t78.5 131t25.5 147q0 82 -31.5 128t-89.5 46q-66 0 -119 -56.5t-78.5 -132t-25.5 -147.5q0 -82 31 -127t91 -45z" />
    <glyph glyph-name="Emacron" unicode="&#x112;" 
d="M1319 1587h-803l57 236h805zM1346 1120h-646l-55 -219h602l-84 -330h-600l-57 -233h657l-84 -338h-1067l363 1458h1055z" />
    <glyph glyph-name="emacron" unicode="&#x113;" horiz-adv-x="1216" 
d="M1135 1190h-803l57 235h805zM672 1073q239 0 367 -123t128 -338q0 -66 -20 -172h-727q-6 -41 -6 -69q0 -150 135 -150q54 0 95.5 28t55.5 73h400q-63 -154 -214 -254.5t-335 -100.5q-246 0 -373 130.5t-127 351.5q0 82 24 167.5t75 167.5t122.5 146.5t175 103.5t224.5 39
zM670 827q-135 0 -199 -180h328q4 28 4 41q0 139 -133 139z" />
    <glyph glyph-name="Ebreve" unicode="&#x114;" 
d="M1100 1876h262q-43 -154 -156.5 -238t-283.5 -84q-150 0 -229 65.5t-79 188.5q0 24 7 68h217q-2 -8 -2 -23q0 -81 108 -81q127 0 156 104zM1346 1120h-646l-55 -219h602l-84 -330h-600l-57 -233h657l-84 -338h-1067l363 1458h1055z" />
    <glyph glyph-name="ebreve" unicode="&#x115;" horiz-adv-x="1216" 
d="M731 1137q-150 0 -228.5 65.5t-78.5 188.5q0 29 6 67h217q-2 -8 -2 -22q0 -82 109 -82q126 0 155 104h262q-43 -154 -156.5 -237.5t-283.5 -83.5zM672 1073q239 0 367 -123t128 -338q0 -66 -20 -172h-727q-6 -41 -6 -69q0 -150 135 -150q54 0 95.5 28t55.5 73h400
q-63 -154 -214 -254.5t-335 -100.5q-246 0 -373 130.5t-127 351.5q0 82 24 167.5t75 167.5t122.5 146.5t175 103.5t224.5 39zM670 827q-135 0 -199 -180h328q4 28 4 41q0 139 -133 139z" />
    <glyph glyph-name="Edotaccent" unicode="&#x116;" 
d="M1110 1575h-393l71 289h394zM1346 1120h-646l-55 -219h602l-84 -330h-600l-57 -233h657l-84 -338h-1067l363 1458h1055z" />
    <glyph glyph-name="edotaccent" unicode="&#x117;" horiz-adv-x="1216" 
d="M924 1169h-394l72 289h393zM1147 440h-727q-6 -41 -6 -69q0 -150 135 -150q54 0 95.5 28t55.5 73h400q-63 -154 -214 -254.5t-335 -100.5q-246 0 -373 130.5t-127 351.5q0 82 24 167.5t75 167.5t122.5 146.5t175 103.5t224.5 39q239 0 367 -123t128 -338q0 -66 -20 -172z
M670 827q-135 0 -199 -180h328q4 28 4 41q0 139 -133 139z" />
    <glyph glyph-name="Eogonek" unicode="&#x118;" 
d="M700 1120l-55 -219h602l-84 -330h-600l-57 -233h657l-84 -338q-93 -51 -128.5 -89.5t-35.5 -72.5q0 -39 54 -39q35 0 67 13l-49 -199q-102 -25 -203 -25q-125 0 -186 42.5t-61 121.5q0 76 58 135.5t183 112.5h-766l363 1458h1055l-84 -338h-646z" />
    <glyph glyph-name="eogonek" unicode="&#x119;" horiz-adv-x="1216" 
d="M1147 440h-727q-6 -41 -6 -69q0 -150 135 -150q54 0 95.5 28t55.5 73h400q-56 -130 -209 -259q-92 -77 -126 -127t-34 -94q0 -43 53 -43q36 0 68 13l-49 -199q-95 -25 -189 -25q-125 0 -186 42.5t-61 121.5q0 66 42.5 116t133.5 95v4h-6q-239 0 -362.5 130.5
t-123.5 351.5q0 82 24 167.5t75 167.5t122.5 146.5t175 103.5t224.5 39q239 0 367 -123t128 -338q0 -66 -20 -172zM670 827q-135 0 -199 -180h328q4 28 4 41q0 139 -133 139z" />
    <glyph glyph-name="Ecaron" unicode="&#x11a;" 
d="M1077 1556h-334l-180 320h277l84 -166l159 166h332zM1346 1120h-646l-55 -219h602l-84 -330h-600l-57 -233h657l-84 -338h-1067l363 1458h1055z" />
    <glyph glyph-name="ecaron" unicode="&#x11b;" horiz-adv-x="1216" 
d="M559 1151l-176 307h279l77 -153l150 153h330l-328 -307h-332zM672 1073q239 0 367 -123t128 -338q0 -66 -20 -172h-727q-6 -41 -6 -69q0 -150 135 -150q54 0 95.5 28t55.5 73h400q-63 -154 -214 -254.5t-335 -100.5q-246 0 -373 130.5t-127 351.5q0 82 24 167.5t75 167.5
t122.5 146.5t175 103.5t224.5 39zM670 827q-135 0 -199 -180h328q4 28 4 41q0 139 -133 139z" />
    <glyph glyph-name="Gcircumflex" unicode="&#x11c;" horiz-adv-x="1552" 
d="M903 1876h332l180 -320h-274l-86 166l-158 -166h-334zM985 1491q262 0 411.5 -123.5t149.5 -335.5q0 -38 -6 -76h-434q2 10 2 29q0 84 -47 130t-133 46q-94 0 -172 -57.5t-126 -146.5t-74 -189.5t-26 -194.5q0 -137 57.5 -218t166.5 -81q97 0 176.5 64t111.5 170h-280
l76 301h661l-201 -809h-350l27 111h-4q-154 -142 -375 -142q-233 0 -362.5 155t-129.5 417q0 135 34 268t106.5 256.5t174 218t248.5 151t318 56.5z" />
    <glyph glyph-name="gcircumflex" unicode="&#x11d;" horiz-adv-x="1255" 
d="M1167 1151h-278l-78 154l-147 -154h-330l328 307h331zM584 1071q101 0 176 -52t104 -134h4l39 155h367l-260 -1044q-50 -204 -207 -301.5t-404 -97.5q-222 0 -339 74.5t-117 213.5q0 13 4 49h364q-2 -8 -2 -22q0 -37 29.5 -57.5t85.5 -20.5q78 0 131.5 45.5t81.5 153.5
l18 71h-4q-120 -90 -252 -90q-168 0 -260 114t-92 318q0 80 21.5 165.5t67 167.5t107 147t149.5 105t188 40zM664 772q-63 0 -112.5 -51t-72 -115.5t-22.5 -120.5q0 -81 32.5 -127.5t92.5 -46.5q47 0 87.5 29.5t65 74.5t38 93.5t13.5 91.5q0 80 -32 126t-90 46z" />
    <glyph glyph-name="Gbreve" unicode="&#x11e;" horiz-adv-x="1552" 
d="M1178 1876h262q-43 -154 -157 -238t-284 -84q-150 0 -228.5 65.5t-78.5 188.5q0 31 6 68h217q-2 -8 -2 -23q0 -81 109 -81q127 0 156 104zM985 1491q262 0 411.5 -123.5t149.5 -335.5q0 -38 -6 -76h-434q2 10 2 29q0 84 -47 130t-133 46q-94 0 -172 -57.5t-126 -146.5
t-74 -189.5t-26 -194.5q0 -137 57.5 -218t166.5 -81q97 0 176.5 64t111.5 170h-280l76 301h661l-201 -809h-350l27 111h-4q-154 -142 -375 -142q-233 0 -362.5 155t-129.5 417q0 135 34 268t106.5 256.5t174 218t248.5 151t318 56.5z" />
    <glyph glyph-name="gbreve" unicode="&#x11f;" horiz-adv-x="1255" 
d="M936 1458h262q-43 -154 -156.5 -237.5t-283.5 -83.5q-150 0 -228.5 65.5t-78.5 188.5q0 29 6 67h217q-2 -8 -2 -22q0 -82 108 -82q127 0 156 104zM584 1071q101 0 176 -52t104 -134h4l39 155h367l-260 -1044q-50 -204 -207 -301.5t-404 -97.5q-222 0 -339 74.5
t-117 213.5q0 13 4 49h364q-2 -8 -2 -22q0 -37 29.5 -57.5t85.5 -20.5q78 0 131.5 45.5t81.5 153.5l18 71h-4q-120 -90 -252 -90q-168 0 -260 114t-92 318q0 80 21.5 165.5t67 167.5t107 147t149.5 105t188 40zM664 772q-63 0 -112.5 -51t-72 -115.5t-22.5 -120.5
q0 -81 32.5 -127.5t92.5 -46.5q47 0 87.5 29.5t65 74.5t38 93.5t13.5 91.5q0 80 -32 126t-90 46z" />
    <glyph glyph-name="Gdotaccent" unicode="&#x120;" horiz-adv-x="1552" 
d="M1188 1575h-393l71 289h394zM985 1491q262 0 411.5 -123.5t149.5 -335.5q0 -38 -6 -76h-434q2 10 2 29q0 84 -47 130t-133 46q-94 0 -172 -57.5t-126 -146.5t-74 -189.5t-26 -194.5q0 -137 57.5 -218t166.5 -81q97 0 176.5 64t111.5 170h-280l76 301h661l-201 -809h-350
l27 111h-4q-154 -142 -375 -142q-233 0 -362.5 155t-129.5 417q0 135 34 268t106.5 256.5t174 218t248.5 151t318 56.5z" />
    <glyph glyph-name="gdotaccent" unicode="&#x121;" horiz-adv-x="1255" 
d="M950 1169h-393l72 289h393zM584 1071q101 0 176 -52t104 -134h4l39 155h367l-260 -1044q-50 -204 -207 -301.5t-404 -97.5q-222 0 -339 74.5t-117 213.5q0 13 4 49h364q-2 -8 -2 -22q0 -37 29.5 -57.5t85.5 -20.5q78 0 131.5 45.5t81.5 153.5l18 71h-4q-120 -90 -252 -90
q-168 0 -260 114t-92 318q0 80 21.5 165.5t67 167.5t107 147t149.5 105t188 40zM664 772q-63 0 -112.5 -51t-72 -115.5t-22.5 -120.5q0 -81 32.5 -127.5t92.5 -46.5q47 0 87.5 29.5t65 74.5t38 93.5t13.5 91.5q0 80 -32 126t-90 46z" />
    <glyph glyph-name="Gcommaaccent" unicode="&#x122;" horiz-adv-x="1552" 
d="M985 1491q262 0 411.5 -123.5t149.5 -335.5q0 -38 -6 -76h-434q2 10 2 29q0 84 -47 130t-133 46q-94 0 -172 -57.5t-126 -146.5t-74 -189.5t-26 -194.5q0 -137 57.5 -218t166.5 -81q97 0 176.5 64t111.5 170h-280l76 301h661l-201 -809h-350l27 111h-4
q-154 -142 -375 -142q-233 0 -362.5 155t-129.5 417q0 135 34 268t106.5 256.5t174 218t248.5 151t318 56.5zM711 -348l-207 -225h-144l154 225h-96l61 248h293z" />
    <glyph glyph-name="gcommaaccent" unicode="&#x123;" horiz-adv-x="1255" 
d="M864 1409h97l-62 -248h-293l62 248l206 225h144zM584 1071q101 0 176 -52t104 -134h4l39 155h367l-260 -1044q-50 -204 -207 -301.5t-404 -97.5q-222 0 -339 74.5t-117 213.5q0 13 4 49h364q-2 -8 -2 -22q0 -37 29.5 -57.5t85.5 -20.5q78 0 131.5 45.5t81.5 153.5l18 71
h-4q-120 -90 -252 -90q-168 0 -260 114t-92 318q0 80 21.5 165.5t67 167.5t107 147t149.5 105t188 40zM664 772q-63 0 -112.5 -51t-72 -115.5t-22.5 -120.5q0 -81 32.5 -127.5t92.5 -46.5q47 0 87.5 29.5t65 74.5t38 93.5t13.5 91.5q0 80 -32 126t-90 46z" />
    <glyph glyph-name="Hcircumflex" unicode="&#x124;" horiz-adv-x="1579" 
d="M961 1876h331l181 -320h-275l-86 166l-158 -166h-333zM1309 0h-410l143 578h-477l-143 -578h-410l363 1458h409l-133 -536h477l134 536h409z" />
    <glyph glyph-name="hcircumflex" unicode="&#x125;" horiz-adv-x="1261" 
d="M801 1876h332l180 -320h-275l-86 166l-157 -166h-334zM614 967h4q123 102 269 102q151 0 234 -79t83 -230q0 -71 -20 -152l-152 -608h-393l147 596q13 50 13 82q0 88 -92 88q-141 0 -203 -244l-129 -522h-393l362 1458h393z" />
    <glyph glyph-name="Hbar" unicode="&#x126;" horiz-adv-x="1579" 
d="M1696 1145h-103l-284 -1145h-410l143 578h-477l-143 -578h-410l285 1145h-102l45 184h102l33 129h409l-32 -129h477l33 129h409l-33 -129h103zM1184 1145h-477l-56 -223h477z" />
    <glyph glyph-name="hbar" unicode="&#x127;" horiz-adv-x="1261" 
d="M887 1069q151 0 234 -79t83 -230q0 -71 -20 -152l-152 -608h-393l147 596q13 50 13 82q0 88 -92 88q-141 0 -203 -244l-129 -522h-393l288 1163h-141l43 168h141l31 127h393l-30 -127h270l-43 -168h-270l-50 -196h4q123 102 269 102z" />
    <glyph glyph-name="Itilde" unicode="&#x128;" horiz-adv-x="692" 
d="M891 1876h205q-41 -146 -124.5 -228.5t-201.5 -82.5q-58 0 -107.5 21t-88.5 42t-72 21q-72 0 -103 -84h-206q42 148 125.5 229.5t199.5 81.5q58 0 108.5 -20.5t90 -41t71.5 -20.5q74 0 103 82zM422 0h-410l363 1458h409z" />
    <glyph glyph-name="itilde" unicode="&#x129;" horiz-adv-x="614" 
d="M715 1458h203q-44 -147 -123 -229t-189 -82q-51 0 -95.5 21t-79 42t-62.5 21q-62 0 -86 -84h-203q44 148 123.5 229.5t187.5 81.5q51 0 96.5 -20.5t81 -41t62.5 -20.5q58 0 84 82zM375 0h-393l258 1040h393z" />
    <glyph glyph-name="Imacron" unicode="&#x12a;" horiz-adv-x="692" 
d="M1012 1587h-803l57 236h805zM422 0h-410l363 1458h409z" />
    <glyph glyph-name="imacron" unicode="&#x12b;" horiz-adv-x="614" 
d="M795 1190h-643l59 235h643zM375 0h-393l258 1040h393z" />
    <glyph glyph-name="Ibreve" unicode="&#x12c;" horiz-adv-x="692" 
d="M793 1876h262q-43 -154 -157 -238t-284 -84q-150 0 -228.5 65.5t-78.5 188.5q0 31 6 68h217q-2 -8 -2 -23q0 -81 109 -81q127 0 156 104zM422 0h-410l363 1458h409z" />
    <glyph glyph-name="ibreve" unicode="&#x12d;" horiz-adv-x="614" 
d="M629 1458h250q-41 -154 -146.5 -237.5t-261.5 -83.5q-137 0 -206.5 62.5t-69.5 182.5q0 43 8 76h213q-2 -8 -2 -26q0 -78 86 -78q101 0 129 104zM375 0h-393l258 1040h393z" />
    <glyph glyph-name="Iogonek" unicode="&#x12e;" horiz-adv-x="692" 
d="M784 1458l-362 -1458q-93 -51 -128.5 -89.5t-35.5 -72.5q0 -39 53 -39q35 0 68 13l-49 -199q-102 -25 -203 -25q-125 0 -186.5 43t-61.5 121q0 76 58.5 135.5t183.5 112.5h-109l363 1458h409z" />
    <glyph glyph-name="iogonek" unicode="&#x12f;" horiz-adv-x="614" 
d="M737 1458l-71 -289h-394l72 289h393zM240 1040h393l-258 -1040q-93 -51 -128.5 -89.5t-35.5 -72.5q0 -39 53 -39q36 0 68 13l-49 -199q-102 -25 -203 -25q-125 0 -186.5 43t-61.5 121q0 76 58.5 135.5t183.5 112.5h-92z" />
    <glyph glyph-name="Idotaccent" unicode="&#x130;" horiz-adv-x="692" 
d="M803 1575h-393l71 289h393zM422 0h-410l363 1458h409z" />
    <glyph glyph-name="dotlessi" unicode="&#x131;" horiz-adv-x="614" 
d="M375 0h-393l258 1040h393z" />
    <glyph glyph-name="IJ" unicode="&#x132;" horiz-adv-x="1568" 
d="M422 0h-410l363 1458h409zM1671 1458l-244 -975q-66 -259 -219.5 -381t-412.5 -122q-103 0 -199 28l80 328q50 -8 84 -8q124 0 188 62.5t105 230.5l209 837h409z" />
    <glyph glyph-name="ij" unicode="&#x133;" horiz-adv-x="1228" 
d="M666 1169h-394l72 289h393zM1280 1169h-393l71 289h394zM375 0h-393l258 1040h393zM1247 1040l-262 -1056q-49 -189 -174.5 -282t-296.5 -93q-126 0 -215 29l68 262q20 -4 34 -4q89 0 140.5 47t81.5 170l231 927h393z" />
    <glyph glyph-name="Jcircumflex" unicode="&#x134;" horiz-adv-x="876" 
d="M717 1876h332l180 -320h-275l-86 166l-157 -166h-334zM979 1458l-244 -975q-66 -259 -220 -381t-413 -122q-102 0 -198 28l80 328q50 -8 84 -8q123 0 187 62.5t105 230.5l209 837h410z" />
    <glyph glyph-name="jcircumflex" unicode="&#x135;" horiz-adv-x="614" 
d="M852 1157h-270l-66 131l-129 -131h-309l307 301h311zM633 1040l-262 -1056q-49 -189 -174.5 -282t-296.5 -93q-126 0 -215 29l67 262q20 -4 35 -4q89 0 140 47t81 170l232 927h393z" />
    <glyph glyph-name="Kcommaaccent" unicode="&#x136;" horiz-adv-x="1466" 
d="M981 748l350 -748h-473l-262 690h-4l-170 -690h-410l363 1458h409l-143 -579h4l485 579h533zM434 -100h293l-61 -248l-207 -225h-144l154 225h-96z" />
    <glyph glyph-name="kcommaaccent" unicode="&#x137;" horiz-adv-x="1206" 
d="M842 518l250 -518h-435l-159 479h-4l-119 -479h-393l362 1458h393l-196 -790h4l284 372h498zM340 -100h293l-62 -248l-206 -225h-144l154 225h-96z" />
    <glyph glyph-name="kgreenlandic" unicode="&#x138;" horiz-adv-x="1218" 
d="M842 518l250 -518h-435l-159 479h-4l-119 -479h-393l258 1040h393l-92 -372h4l284 372h498z" />
    <glyph glyph-name="Lacute" unicode="&#x139;" horiz-adv-x="1200" 
d="M762 1556h-313l227 320h442zM508 344h631l-84 -344h-1043l363 1458h409z" />
    <glyph glyph-name="lacute" unicode="&#x13a;" horiz-adv-x="614" 
d="M688 1569h-313l223 307h442zM375 0h-393l362 1458h393z" />
    <glyph glyph-name="Lcommaaccent" unicode="&#x13b;" horiz-adv-x="1200" 
d="M508 344h631l-84 -344h-1043l363 1458h409zM594 -348l-207 -225h-143l153 225h-96l61 248h293z" />
    <glyph glyph-name="lcommaaccent" unicode="&#x13c;" horiz-adv-x="614" 
d="M375 0h-393l362 1458h393zM250 -348l-207 -225h-143l153 225h-96l61 248h293z" />
    <glyph glyph-name="Lcaron" unicode="&#x13d;" horiz-adv-x="1200" 
d="M508 344h631l-84 -344h-1043l363 1458h409zM954 979h-221l162 479h309z" />
    <glyph glyph-name="lcaron" unicode="&#x13e;" horiz-adv-x="614" 
d="M375 0h-393l362 1458h393zM926 1094h-221l133 364h309z" />
    <glyph glyph-name="Ldot" unicode="&#x13f;" horiz-adv-x="1374" 
d="M508 344h631l-84 -344h-1043l363 1458h409zM1286 698h-409l102 410h407z" />
    <glyph glyph-name="ldot" unicode="&#x140;" horiz-adv-x="1124" 
d="M375 0h-393l362 1458h393zM1075 522h-409l102 410h408z" />
    <glyph glyph-name="Lslash" unicode="&#x141;" horiz-adv-x="1228" 
d="M1167 344l-84 -344h-1042l137 549l-172 -88l82 330l172 88l143 579h410l-94 -377l348 181l-80 -332l-350 -180l-100 -406h630z" />
    <glyph glyph-name="lslash" unicode="&#x142;" horiz-adv-x="761" 
d="M809 797l-186 -97l-174 -700h-394l127 514l-188 -98l80 317l188 98l156 627h393l-111 -442l189 96z" />
    <glyph glyph-name="Nacute" unicode="&#x143;" horiz-adv-x="1693" 
d="M1200 1556h-313l227 320h442zM1421 0h-569l-100 559q-44 257 -88 565h-5q-47 -283 -124 -596l-132 -528h-391l363 1458h571l98 -559q47 -261 91 -565h4q49 295 123 596l131 528h391z" />
    <glyph glyph-name="nacute" unicode="&#x144;" horiz-adv-x="1261" 
d="M891 1151h-313l223 307h442zM887 1069q152 0 234.5 -79t82.5 -230q0 -71 -20 -152l-152 -608h-393l147 596q13 50 13 82q0 88 -92 88q-141 0 -203 -244l-129 -522h-393l258 1040h366l-24 -102h4q128 131 301 131z" />
    <glyph glyph-name="Ncommaaccent" unicode="&#x145;" horiz-adv-x="1693" 
d="M1421 0h-569l-100 559q-44 257 -88 565h-5q-47 -283 -124 -596l-132 -528h-391l363 1458h571l98 -559q47 -261 91 -565h4q49 295 123 596l131 528h391zM776 -348l-207 -225h-143l154 225h-97l62 248h293z" />
    <glyph glyph-name="ncommaaccent" unicode="&#x146;" horiz-adv-x="1261" 
d="M887 1069q152 0 234.5 -79t82.5 -230q0 -71 -20 -152l-152 -608h-393l147 596q13 50 13 82q0 88 -92 88q-141 0 -203 -244l-129 -522h-393l258 1040h366l-24 -102h4q128 131 301 131zM567 -348l-207 -225h-143l154 225h-97l62 248h293z" />
    <glyph glyph-name="Ncaron" unicode="&#x147;" horiz-adv-x="1693" 
d="M1272 1556h-334l-180 320h276l84 -166l160 166h332zM1421 0h-569l-100 559q-44 257 -88 565h-5q-47 -283 -124 -596l-132 -528h-391l363 1458h571l98 -559q47 -261 91 -565h4q49 295 123 596l131 528h391z" />
    <glyph glyph-name="ncaron" unicode="&#x148;" horiz-adv-x="1261" 
d="M961 1151h-332l-176 307h278l78 -153l149 153h330zM887 1069q152 0 234.5 -79t82.5 -230q0 -71 -20 -152l-152 -608h-393l147 596q13 50 13 82q0 88 -92 88q-141 0 -203 -244l-129 -522h-393l258 1040h366l-24 -102h4q128 131 301 131z" />
    <glyph glyph-name="napostrophe" unicode="&#x149;" horiz-adv-x="1648" 
d="M602 1108l-266 -320h-197l228 320h-113l88 350h346zM1274 1069q152 0 234.5 -79t82.5 -230q0 -71 -20 -152l-152 -608h-393l150 596q10 52 10 82q0 88 -92 88q-141 0 -201 -244l-131 -522h-393l260 1040h364l-24 -102h4q131 131 301 131z" />
    <glyph glyph-name="Eng" unicode="&#x14a;" horiz-adv-x="1583" 
d="M1675 1458l-360 -1448q-27 -107 -78 -186.5t-119.5 -127.5t-148.5 -71.5t-172 -23.5q-110 0 -174 20l63 260q18 -6 51 -6q78 0 121 37t43 111q0 33 -7 63t-34 125l-112 387q-62 202 -103 449h-4q-43 -271 -104 -515l-134 -532h-391l363 1458h483l123 -426
q61 -209 104 -450h5q37 237 104 514l90 362h391z" />
    <glyph glyph-name="eng" unicode="&#x14b;" horiz-adv-x="1261" 
d="M887 1069q151 0 234 -79t83 -230q0 -71 -20 -152l-156 -624q-49 -189 -174.5 -282t-296.5 -93q-126 0 -215 29l68 262q20 -4 34 -4q89 0 140.5 47t81.5 170l120 483q13 50 13 82q0 88 -92 88q-141 0 -203 -244l-129 -522h-393l258 1040h366l-24 -102h4q128 131 301 131z
" />
    <glyph glyph-name="Omacron" unicode="&#x14c;" horiz-adv-x="1568" 
d="M1403 1587h-803l57 236h805zM942 1491q291 0 454 -172.5t163 -472.5q0 -118 -32.5 -239.5t-101.5 -236.5t-164.5 -204.5t-233 -144t-296.5 -54.5q-291 0 -453.5 173.5t-162.5 475.5q0 118 32.5 239t101 235.5t164.5 203.5t233 143t296 54zM913 1143q-92 0 -167.5 -53.5
t-119.5 -136t-67.5 -172t-23.5 -171.5q0 -143 57.5 -219t167.5 -76q75 0 139 36t107 93t74 128.5t45 142.5t14 135q0 143 -58 218t-168 75z" />
    <glyph glyph-name="omacron" unicode="&#x14d;" horiz-adv-x="1265" 
d="M1159 1190h-803l58 235h805zM682 1073q250 0 390 -130t140 -357q0 -69 -17.5 -140.5t-51.5 -141t-88 -130t-121.5 -107t-157.5 -73.5t-192 -27q-252 0 -391.5 130t-139.5 358q0 83 24.5 168.5t76.5 166.5t124.5 144t177.5 101t226 38zM672 780q-53 0 -96 -34t-67.5 -87
t-37 -108.5t-12.5 -106.5q0 -184 133 -184q55 0 98 34t67 87t36 108.5t12 106.5q0 184 -133 184z" />
    <glyph glyph-name="Obreve" unicode="&#x14e;" horiz-adv-x="1568" 
d="M1182 1876h262q-43 -154 -156.5 -238t-283.5 -84q-150 0 -229 65.5t-79 188.5q0 31 6 68h218q-2 -8 -2 -23q0 -81 108 -81q127 0 156 104zM942 1491q291 0 454 -172.5t163 -472.5q0 -118 -32.5 -239.5t-101.5 -236.5t-164.5 -204.5t-233 -144t-296.5 -54.5
q-291 0 -453.5 173.5t-162.5 475.5q0 118 32.5 239t101 235.5t164.5 203.5t233 143t296 54zM913 1143q-92 0 -167.5 -53.5t-119.5 -136t-67.5 -172t-23.5 -171.5q0 -143 57.5 -219t167.5 -76q75 0 139 36t107 93t74 128.5t45 142.5t14 135q0 143 -58 218t-168 75z" />
    <glyph glyph-name="obreve" unicode="&#x14f;" horiz-adv-x="1265" 
d="M934 1458h262q-43 -154 -156.5 -237.5t-283.5 -83.5q-150 0 -228.5 65.5t-78.5 188.5q0 29 6 67h217q-2 -8 -2 -22q0 -82 108 -82q127 0 156 104zM682 1073q250 0 390 -130t140 -357q0 -69 -17.5 -140.5t-51.5 -141t-88 -130t-121.5 -107t-157.5 -73.5t-192 -27
q-252 0 -391.5 130t-139.5 358q0 83 24.5 168.5t76.5 166.5t124.5 144t177.5 101t226 38zM672 780q-53 0 -96 -34t-67.5 -87t-37 -108.5t-12.5 -106.5q0 -184 133 -184q55 0 98 34t67 87t36 108.5t12 106.5q0 184 -133 184z" />
    <glyph glyph-name="Ohungarumlaut" unicode="&#x150;" horiz-adv-x="1568" 
d="M864 1556h-295l269 320h383zM1317 1556h-295l268 320h381zM942 1491q291 0 454 -172.5t163 -472.5q0 -118 -32.5 -239.5t-101.5 -236.5t-164.5 -204.5t-233 -144t-296.5 -54.5q-291 0 -453.5 173.5t-162.5 475.5q0 118 32.5 239t101 235.5t164.5 203.5t233 143t296 54z
M913 1143q-92 0 -167.5 -53.5t-119.5 -136t-67.5 -172t-23.5 -171.5q0 -143 57.5 -219t167.5 -76q75 0 139 36t107 93t74 128.5t45 142.5t14 135q0 143 -58 218t-168 75z" />
    <glyph glyph-name="ohungarumlaut" unicode="&#x151;" horiz-adv-x="1265" 
d="M618 1151h-294l264 307h383zM1069 1151h-295l266 307h381zM682 1073q250 0 390 -130t140 -357q0 -69 -17.5 -140.5t-51.5 -141t-88 -130t-121.5 -107t-157.5 -73.5t-192 -27q-252 0 -391.5 130t-139.5 358q0 83 24.5 168.5t76.5 166.5t124.5 144t177.5 101t226 38z
M672 780q-53 0 -96 -34t-67.5 -87t-37 -108.5t-12.5 -106.5q0 -184 133 -184q55 0 98 34t67 87t36 108.5t12 106.5q0 184 -133 184z" />
    <glyph glyph-name="OE" unicode="&#x152;" horiz-adv-x="2093" 
d="M2142 1120h-649l-55 -219h600l-84 -330h-598l-58 -233h658l-84 -338h-1073q-335 0 -508.5 162.5t-173.5 470.5q0 96 23 191.5t68 189t119.5 173t170.5 140.5t228.5 96t285.5 35h1214zM1098 1120h-113q-91 0 -167.5 -29t-126.5 -76t-84.5 -108.5t-50 -125t-15.5 -126.5
q0 -154 74 -235.5t216 -81.5h72z" />
    <glyph glyph-name="oe" unicode="&#x153;" horiz-adv-x="1941" 
d="M1870 440h-719q-6 -40 -6 -69q0 -150 127 -150q55 0 96 28t55 73h402q-63 -154 -214 -254.5t-335 -100.5q-223 0 -342 131q-154 -131 -371 -131q-241 0 -375.5 130.5t-134.5 357.5q0 83 24.5 168.5t75.5 166.5t123 144t175 101t223 38q232 0 362 -133q153 133 367 133
q234 0 361.5 -123.5t127.5 -337.5q0 -70 -22 -172zM1393 827q-129 0 -191 -180h324q2 14 2 41q0 139 -135 139zM592 260q55 0 98 34t67 87t36 108.5t12 106.5q0 184 -133 184q-53 0 -96 -34t-67.5 -87t-37 -108.5t-12.5 -106.5q0 -184 133 -184z" />
    <glyph glyph-name="Racute" unicode="&#x154;" horiz-adv-x="1443" 
d="M1012 1556h-314l228 320h442zM375 1458h614q477 0 477 -346q0 -154 -98 -280.5t-285 -176.5v-4q67 -28 102.5 -90.5t55.5 -193.5l55 -367h-419l-37 313q-12 107 -53.5 150t-137.5 43h-102l-125 -506h-410zM709 1151l-86 -348h194q63 0 110 19t71.5 49.5t36.5 62t12 63.5
q0 154 -181 154h-157z" />
    <glyph glyph-name="racute" unicode="&#x155;" horiz-adv-x="894" 
d="M725 1151h-313l223 307h442zM915 1057q54 0 101 -13l-84 -335q-49 12 -117 12q-126 0 -213.5 -77.5t-122.5 -223.5l-104 -420h-393l258 1040h364l-29 -125h5q148 142 335 142z" />
    <glyph glyph-name="Rcommaaccent" unicode="&#x156;" horiz-adv-x="1443" 
d="M375 1458h614q477 0 477 -346q0 -154 -98 -280.5t-285 -176.5v-4q67 -28 102.5 -90.5t55.5 -193.5l55 -367h-419l-37 313q-12 107 -53.5 150t-137.5 43h-102l-125 -506h-410zM709 1151l-86 -348h194q63 0 110 19t71.5 49.5t36.5 62t12 63.5q0 154 -181 154h-157z
M709 -348l-207 -225h-144l154 225h-96l61 248h293z" />
    <glyph glyph-name="rcommaaccent" unicode="&#x157;" horiz-adv-x="894" 
d="M915 1057q54 0 101 -13l-84 -335q-49 12 -117 12q-126 0 -213.5 -77.5t-122.5 -223.5l-104 -420h-393l258 1040h364l-29 -125h5q148 142 335 142zM250 -348l-207 -225h-143l153 225h-96l61 248h293z" />
    <glyph glyph-name="Rcaron" unicode="&#x158;" horiz-adv-x="1443" 
d="M1083 1556h-333l-181 320h277l84 -166l160 166h331zM375 1458h614q477 0 477 -346q0 -154 -98 -280.5t-285 -176.5v-4q67 -28 102.5 -90.5t55.5 -193.5l55 -367h-419l-37 313q-12 107 -53.5 150t-137.5 43h-102l-125 -506h-410zM709 1151l-86 -348h194q63 0 110 19
t71.5 49.5t36.5 62t12 63.5q0 154 -181 154h-157z" />
    <glyph glyph-name="rcaron" unicode="&#x159;" horiz-adv-x="894" 
d="M795 1151h-332l-176 307h278l78 -153l150 153h329zM915 1057q54 0 101 -13l-84 -335q-49 12 -117 12q-126 0 -213.5 -77.5t-122.5 -223.5l-104 -420h-393l258 1040h364l-29 -125h5q148 142 335 142z" />
    <glyph glyph-name="Sacute" unicode="&#x15a;" horiz-adv-x="1353" 
d="M985 1556h-313l227 320h442zM856 1491q262 0 401.5 -95.5t139.5 -281.5q0 -50 -11 -98h-430q5 35 5 41q0 61 -41 93t-119 32q-82 0 -128 -36.5t-46 -84.5q0 -55 47.5 -86t177.5 -72q55 -18 94 -32t86 -36t79.5 -44t65 -53.5t52 -67t31.5 -83t12 -102.5
q0 -73 -24.5 -144.5t-78.5 -139.5t-131 -119.5t-191.5 -83t-250.5 -31.5q-275 0 -426.5 105t-151.5 297q0 44 13 104h442q-6 -30 -6 -53q0 -133 178 -133q88 0 138.5 39t50.5 92q0 60 -46 90t-172 74q-57 20 -93 33.5t-84.5 36t-78.5 43t-63.5 51.5t-52 65t-31 79.5
t-12.5 98.5q0 70 24 139.5t77 135t128 116t185.5 81t240.5 30.5z" />
    <glyph glyph-name="sacute" unicode="&#x15b;" horiz-adv-x="1144" 
d="M801 1151h-314l224 307h442zM672 1073q210 0 325 -72t115 -215q0 -30 -8 -57h-371q4 24 4 37q0 78 -102 78q-54 0 -78.5 -21.5t-24.5 -50.5q0 -35 34 -58t132 -57q45 -16 70 -25.5t66 -28t65 -34.5t53.5 -41.5t45.5 -52.5t27 -64t11 -79q0 -69 -34 -133t-100 -116.5
t-174 -84t-243 -31.5q-485 0 -485 303q0 39 10 68h391q-6 -21 -6 -41q0 -88 121 -88q58 0 89.5 22t31.5 58q0 41 -40 64.5t-161 64.5q-46 15 -75 25.5t-68.5 28.5t-63.5 39t-47 50t-34 68.5t-11 87.5q0 55 19.5 105.5t62.5 96.5t104.5 80t151 54t197.5 20z" />
    <glyph glyph-name="Scircumflex" unicode="&#x15c;" horiz-adv-x="1353" 
d="M803 1876h332l180 -320h-275l-86 166l-157 -166h-334zM856 1491q262 0 401.5 -95.5t139.5 -281.5q0 -50 -11 -98h-430q5 35 5 41q0 61 -41 93t-119 32q-82 0 -128 -36.5t-46 -84.5q0 -55 47.5 -86t177.5 -72q55 -18 94 -32t86 -36t79.5 -44t65 -53.5t52 -67t31.5 -83
t12 -102.5q0 -73 -24.5 -144.5t-78.5 -139.5t-131 -119.5t-191.5 -83t-250.5 -31.5q-275 0 -426.5 105t-151.5 297q0 44 13 104h442q-6 -30 -6 -53q0 -133 178 -133q88 0 138.5 39t50.5 92q0 60 -46 90t-172 74q-57 20 -93 33.5t-84.5 36t-78.5 43t-63.5 51.5t-52 65
t-31 79.5t-12.5 98.5q0 70 24 139.5t77 135t128 116t185.5 81t240.5 30.5z" />
    <glyph glyph-name="scircumflex" unicode="&#x15d;" horiz-adv-x="1144" 
d="M1122 1151h-278l-78 154l-148 -154h-329l327 307h332zM672 1073q210 0 325 -72t115 -215q0 -30 -8 -57h-371q4 24 4 37q0 78 -102 78q-54 0 -78.5 -21.5t-24.5 -50.5q0 -35 34 -58t132 -57q45 -16 70 -25.5t66 -28t65 -34.5t53.5 -41.5t45.5 -52.5t27 -64t11 -79
q0 -69 -34 -133t-100 -116.5t-174 -84t-243 -31.5q-485 0 -485 303q0 39 10 68h391q-6 -21 -6 -41q0 -88 121 -88q58 0 89.5 22t31.5 58q0 41 -40 64.5t-161 64.5q-46 15 -75 25.5t-68.5 28.5t-63.5 39t-47 50t-34 68.5t-11 87.5q0 55 19.5 105.5t62.5 96.5t104.5 80t151 54
t197.5 20z" />
    <glyph glyph-name="Scedilla" unicode="&#x15e;" horiz-adv-x="1353" 
d="M1386 1016h-430q5 35 5 41q0 61 -41 93t-119 32q-82 0 -128 -36.5t-46 -84.5q0 -55 47.5 -86t177.5 -72q55 -18 94 -32t86 -36t79.5 -44t65 -53.5t52 -67t31.5 -83t12 -102.5q0 -70 -23 -139t-73 -135.5t-121.5 -118t-177.5 -85t-232 -38.5l-74 -86q21 6 43 6
q77 0 119.5 -39.5t42.5 -109.5q0 -97 -89 -163t-220 -66q-145 0 -248 71l74 127q74 -47 166 -47q43 0 67.5 16.5t24.5 45.5q0 51 -66 51q-31 0 -65 -15l-66 62l129 149q-223 22 -344 125t-121 273q0 44 13 104h442q-6 -30 -6 -53q0 -133 178 -133q88 0 138.5 39t50.5 92
q0 60 -46 90t-172 74q-57 20 -93 33.5t-84.5 36t-78.5 43t-63.5 51.5t-52 65t-31 79.5t-12.5 98.5q0 70 24 139.5t77 135t128 116t185.5 81t240.5 30.5q262 0 401.5 -95.5t139.5 -281.5q0 -50 -11 -98z" />
    <glyph glyph-name="scedilla" unicode="&#x15f;" horiz-adv-x="1144" 
d="M1104 729h-371q4 24 4 37q0 78 -102 78q-54 0 -78.5 -21.5t-24.5 -50.5q0 -35 34 -58t132 -57q45 -16 70 -25.5t66 -28t65 -34.5t53.5 -41.5t45.5 -52.5t27 -64t11 -79q0 -65 -30.5 -126.5t-89 -112.5t-155.5 -84.5t-218 -39.5l-76 -86q21 6 43 6q77 0 119.5 -39.5
t42.5 -109.5q0 -97 -89.5 -163t-220.5 -66q-144 0 -247 71l73 127q74 -47 166 -47q43 0 67.5 16.5t24.5 45.5q0 51 -65 51q-32 0 -66 -15l-65 62l127 149q-377 35 -377 299q0 39 10 68h391q-6 -21 -6 -41q0 -88 121 -88q58 0 89.5 22t31.5 58q0 41 -40 64.5t-161 64.5
q-46 15 -75 25.5t-68.5 28.5t-63.5 39t-47 50t-34 68.5t-11 87.5q0 55 19.5 105.5t62.5 96.5t104.5 80t151 54t197.5 20q210 0 325 -72t115 -215q0 -30 -8 -57z" />
    <glyph glyph-name="Scaron" unicode="&#x160;" horiz-adv-x="1353" 
d="M1057 1556h-334l-180 320h276l84 -166l160 166h332zM856 1491q262 0 401.5 -95.5t139.5 -281.5q0 -50 -11 -98h-430q5 35 5 41q0 61 -41 93t-119 32q-82 0 -128 -36.5t-46 -84.5q0 -55 47.5 -86t177.5 -72q55 -18 94 -32t86 -36t79.5 -44t65 -53.5t52 -67t31.5 -83
t12 -102.5q0 -73 -24.5 -144.5t-78.5 -139.5t-131 -119.5t-191.5 -83t-250.5 -31.5q-275 0 -426.5 105t-151.5 297q0 44 13 104h442q-6 -30 -6 -53q0 -133 178 -133q88 0 138.5 39t50.5 92q0 60 -46 90t-172 74q-57 20 -93 33.5t-84.5 36t-78.5 43t-63.5 51.5t-52 65
t-31 79.5t-12.5 98.5q0 70 24 139.5t77 135t128 116t185.5 81t240.5 30.5z" />
    <glyph glyph-name="scaron" unicode="&#x161;" horiz-adv-x="1144" 
d="M872 1151h-331l-176 307h278l78 -153l149 153h330zM672 1073q210 0 325 -72t115 -215q0 -30 -8 -57h-371q4 24 4 37q0 78 -102 78q-54 0 -78.5 -21.5t-24.5 -50.5q0 -35 34 -58t132 -57q45 -16 70 -25.5t66 -28t65 -34.5t53.5 -41.5t45.5 -52.5t27 -64t11 -79
q0 -69 -34 -133t-100 -116.5t-174 -84t-243 -31.5q-485 0 -485 303q0 39 10 68h391q-6 -21 -6 -41q0 -88 121 -88q58 0 89.5 22t31.5 58q0 41 -40 64.5t-161 64.5q-46 15 -75 25.5t-68.5 28.5t-63.5 39t-47 50t-34 68.5t-11 87.5q0 55 19.5 105.5t62.5 96.5t104.5 80t151 54
t197.5 20z" />
    <glyph glyph-name="Tcedilla" unicode="&#x162;" horiz-adv-x="1091" 
d="M1440 1114h-434l-277 -1114h-410l279 1114h-434l86 344h1274zM594 -348l-207 -225h-143l153 225h-96l61 248h293z" />
    <glyph glyph-name="tcedilla" unicode="&#x163;" horiz-adv-x="815" 
d="M623 760l-76 -301q-10 -48 -10 -72q0 -52 27 -75t89 -23q32 0 56 6l-74 -297q-86 -16 -156 -16q-184 0 -270 71.5t-86 227.5q0 61 24 159l80 320h-157l69 280h158l74 291h393l-72 -291h191l-70 -280h-190zM178 -100h293l-61 -248l-207 -225h-144l154 225h-96z" />
    <glyph glyph-name="Tcaron" unicode="&#x164;" horiz-adv-x="1306" 
d="M1057 1556h-334l-180 320h276l84 -166l160 166h332zM1440 1114h-434l-277 -1114h-410l279 1114h-434l86 344h1274z" />
    <glyph glyph-name="tcaron" unicode="&#x165;" horiz-adv-x="815" 
d="M1202 1458l-221 -364h-221l133 364h309zM692 1040h191l-70 -280h-190l-76 -301q-10 -48 -10 -72q0 -52 27 -75t89 -23q32 0 56 6l-74 -297q-86 -16 -156 -16q-184 0 -270 71.5t-86 227.5q0 61 24 159l80 320h-157l69 280h158l74 291h393z" />
    <glyph glyph-name="Tbar" unicode="&#x166;" horiz-adv-x="1306" 
d="M1006 1114l-82 -328h262l-62 -249h-262l-133 -537h-410l136 537h-265l62 249h264l82 328h-434l86 344h1274l-84 -344h-434z" />
    <glyph glyph-name="tbar" unicode="&#x167;" horiz-adv-x="815" 
d="M625 772l-35 -139h180l-47 -195h-182q-9 -56 -9 -65q0 -52 24 -75.5t79 -23.5q27 0 72 9l-72 -285q-86 -16 -156 -16q-184 0 -270 71.5t-86 227.5q0 61 27 157h-148l47 195h148l34 139h-157l65 268h160l72 291h393l-72 -291h191l-66 -268h-192z" />
    <glyph glyph-name="Utilde" unicode="&#x168;" horiz-adv-x="1497" 
d="M1272 1876h205q-41 -146 -124.5 -228.5t-201.5 -82.5q-58 0 -107.5 21t-88.5 42t-72 21q-72 0 -103 -84h-207q42 147 125.5 229t200.5 82q58 0 108.5 -20.5t90 -41t71.5 -20.5q74 0 103 82zM1602 1458l-242 -969q-63 -250 -240.5 -386t-441.5 -136q-260 0 -400.5 130
t-140.5 364q0 88 27 196l198 801h410l-213 -858q-14 -55 -14 -100q0 -176 170 -176q95 0 160 59.5t94 173.5l223 901h410z" />
    <glyph glyph-name="utilde" unicode="&#x169;" horiz-adv-x="1261" 
d="M1053 1458h204q-41 -146 -124.5 -228.5t-200.5 -82.5q-58 0 -107.5 21t-88.5 42t-72 21q-74 0 -101 -84h-209q42 147 125.5 229t200.5 82q58 0 108.5 -20.5t90 -41t71.5 -20.5q74 0 103 82zM375 -29q-152 0 -235 79.5t-83 230.5q0 65 21 151l151 608h394l-148 -596
q-12 -47 -12 -82q0 -88 92 -88q141 0 203 244l129 522h393l-258 -1040h-367l25 102h-4q-128 -131 -301 -131z" />
    <glyph glyph-name="Umacron" unicode="&#x16a;" horiz-adv-x="1497" 
d="M1395 1587h-803l57 236h805zM1602 1458l-242 -969q-63 -250 -240.5 -386t-441.5 -136q-260 0 -400.5 130t-140.5 364q0 88 27 196l198 801h410l-213 -858q-14 -55 -14 -100q0 -176 170 -176q95 0 160 59.5t94 173.5l223 901h410z" />
    <glyph glyph-name="umacron" unicode="&#x16b;" horiz-adv-x="1261" 
d="M1180 1190h-803l57 235h805zM375 -29q-152 0 -235 79.5t-83 230.5q0 65 21 151l151 608h394l-148 -596q-12 -47 -12 -82q0 -88 92 -88q141 0 203 244l129 522h393l-258 -1040h-367l25 102h-4q-128 -131 -301 -131z" />
    <glyph glyph-name="Ubreve" unicode="&#x16c;" horiz-adv-x="1497" 
d="M1174 1876h262q-43 -154 -157 -238t-284 -84q-150 0 -228.5 65.5t-78.5 188.5q0 31 6 68h217q-2 -8 -2 -23q0 -81 109 -81q127 0 156 104zM1602 1458l-242 -969q-63 -250 -240.5 -386t-441.5 -136q-260 0 -400.5 130t-140.5 364q0 88 27 196l198 801h410l-213 -858
q-14 -55 -14 -100q0 -176 170 -176q95 0 160 59.5t94 173.5l223 901h410z" />
    <glyph glyph-name="ubreve" unicode="&#x16d;" horiz-adv-x="1261" 
d="M954 1458h263q-43 -154 -157 -237.5t-284 -83.5q-150 0 -228.5 65.5t-78.5 188.5q0 29 6 67h217q-2 -8 -2 -22q0 -82 109 -82q126 0 155 104zM375 -29q-152 0 -235 79.5t-83 230.5q0 65 21 151l151 608h394l-148 -596q-12 -47 -12 -82q0 -88 92 -88q141 0 203 244
l129 522h393l-258 -1040h-367l25 102h-4q-128 -131 -301 -131z" />
    <glyph glyph-name="Uring" unicode="&#x16e;" horiz-adv-x="1497" 
d="M1022 2034q102 0 174 -72t72 -174t-72 -174t-174 -72q-101 0 -173.5 72.5t-72.5 173.5t72.5 173.5t173.5 72.5zM1022 1907q-50 0 -84.5 -34.5t-34.5 -84.5t34.5 -84.5t84.5 -34.5t84.5 34.5t34.5 84.5t-34.5 84.5t-84.5 34.5zM1602 1458l-242 -969q-63 -250 -240.5 -386
t-441.5 -136q-260 0 -400.5 130t-140.5 364q0 88 27 196l198 801h410l-213 -858q-14 -55 -14 -100q0 -176 170 -176q95 0 160 59.5t94 173.5l223 901h410z" />
    <glyph glyph-name="uring" unicode="&#x16f;" horiz-adv-x="1261" 
d="M803 1616q102 0 174 -72t72 -174t-72 -174t-174 -72q-101 0 -173.5 72.5t-72.5 173.5t72.5 173.5t173.5 72.5zM803 1489q-49 0 -84 -34.5t-35 -84.5t35 -84.5t84 -34.5t84 34.5t35 84.5t-35 84.5t-84 34.5zM375 -29q-152 0 -235 79.5t-83 230.5q0 65 21 151l151 608h394
l-148 -596q-12 -47 -12 -82q0 -88 92 -88q141 0 203 244l129 522h393l-258 -1040h-367l25 102h-4q-128 -131 -301 -131z" />
    <glyph glyph-name="Uhungarumlaut" unicode="&#x170;" horiz-adv-x="1497" 
d="M854 1556h-295l268 320h383zM1307 1556h-295l268 320h381zM1602 1458l-242 -969q-63 -250 -240.5 -386t-441.5 -136q-260 0 -400.5 130t-140.5 364q0 88 27 196l198 801h410l-213 -858q-14 -55 -14 -100q0 -176 170 -176q95 0 160 59.5t94 173.5l223 901h410z" />
    <glyph glyph-name="uhungarumlaut" unicode="&#x171;" horiz-adv-x="1261" 
d="M639 1151h-295l264 307h383zM1090 1151h-295l266 307h381zM375 -29q-152 0 -235 79.5t-83 230.5q0 65 21 151l151 608h394l-148 -596q-12 -47 -12 -82q0 -88 92 -88q141 0 203 244l129 522h393l-258 -1040h-367l25 102h-4q-128 -131 -301 -131z" />
    <glyph glyph-name="Uogonek" unicode="&#x172;" horiz-adv-x="1497" 
d="M1602 1458l-242 -969q-62 -255 -254 -399q-132 -101 -177.5 -153.5t-45.5 -98.5q0 -39 53 -39q36 0 68 13l-50 -199q-102 -25 -202 -25q-125 0 -186.5 43t-61.5 121q0 125 170 211v4h-10q-249 0 -388 129t-139 365q0 88 27 196l198 801h410l-213 -858q-14 -55 -14 -100
q0 -176 170 -176q95 0 160 59.5t94 173.5l223 901h410z" />
    <glyph glyph-name="uogonek" unicode="&#x173;" horiz-adv-x="1261" 
d="M1280 1040l-258 -1040q-93 -51 -128.5 -89.5t-35.5 -72.5q0 -39 53 -39q35 0 68 13l-49 -199q-102 -25 -203 -25q-125 0 -186.5 43t-61.5 121q0 76 58.5 135.5t183.5 112.5h-66l25 102h-4q-128 -131 -301 -131q-152 0 -235 79.5t-83 230.5q0 65 21 151l151 608h394
l-148 -596q-12 -47 -12 -82q0 -88 92 -88q141 0 203 244l129 522h393z" />
    <glyph glyph-name="Wcircumflex" unicode="&#x174;" horiz-adv-x="2099" 
d="M1204 1876h332l180 -320h-274l-86 166l-158 -166h-334zM1673 0h-555l35 588q13 237 47 551h-4q-101 -282 -221 -551l-256 -588h-551l78 1458h379l-39 -520q-20 -274 -60 -590h4q120 321 242 590l232 520h526l-29 -520q-15 -297 -45 -590h4q99 280 228 590l219 520h413z
" />
    <glyph glyph-name="wcircumflex" unicode="&#x175;" horiz-adv-x="1814" 
d="M1464 1151h-278l-78 154l-147 -154h-330l327 307h332zM1444 0h-522l18 371q7 168 29 432h-4q-78 -230 -168 -432l-168 -371h-516l24 1040h361l-35 -362q-31 -326 -45 -432h4q84 230 182 436l168 358h494l-9 -358q-7 -257 -22 -436h4q55 179 154 432l147 362h395z" />
    <glyph glyph-name="Ycircumflex" unicode="&#x176;" horiz-adv-x="1411" 
d="M817 1876h332l180 -320h-274l-86 166l-158 -166h-334zM913 532l-133 -532h-409l133 532l-271 926h410l51 -256q44 -221 58 -360h4q84 166 221 360l178 256h487z" />
    <glyph glyph-name="ycircumflex" unicode="&#x177;" horiz-adv-x="1140" 
d="M1110 1151h-279l-77 154l-148 -154h-330l328 307h332zM1288 1040l-573 -1003q-139 -245 -273 -337.5t-338 -92.5q-108 0 -196 20l72 283q43 -12 94 -12q76 0 116.5 38.5t40.5 102.5q0 55 -18 174l-109 827h390l12 -346q10 -238 2 -432h4q81 213 180 434l158 344h438z" />
    <glyph glyph-name="Ydieresis" unicode="&#x178;" horiz-adv-x="1411" 
d="M831 1575h-331l71 289h334zM1317 1575h-334l74 289h332zM913 532l-133 -532h-409l133 532l-271 926h410l51 -256q44 -221 58 -360h4q84 166 221 360l178 256h487z" />
    <glyph glyph-name="Zacute" unicode="&#x179;" horiz-adv-x="1239" 
d="M950 1556h-313l227 320h443zM1300 1085l-792 -745v-4h641l-84 -336h-1153l92 373l795 745v4h-580l84 336h1090z" />
    <glyph glyph-name="zacute" unicode="&#x17a;" horiz-adv-x="1067" 
d="M772 1151h-313l223 307h442zM1042 731l-538 -430l-2 -4h446l-71 -297h-945l76 309l541 430l2 4h-418l74 297h913z" />
    <glyph glyph-name="Zdotaccent" unicode="&#x17b;" horiz-adv-x="1239" 
d="M1053 1575h-394l72 289h393zM1300 1085l-792 -745v-4h641l-84 -336h-1153l92 373l795 745v4h-580l84 336h1090z" />
    <glyph glyph-name="zdotaccent" unicode="&#x17c;" horiz-adv-x="1067" 
d="M877 1169h-394l72 289h393zM1042 731l-538 -430l-2 -4h446l-71 -297h-945l76 309l541 430l2 4h-418l74 297h913z" />
    <glyph glyph-name="Zcaron" unicode="&#x17d;" horiz-adv-x="1239" 
d="M1022 1556h-334l-180 320h276l84 -166l160 166h332zM1300 1085l-792 -745v-4h641l-84 -336h-1153l92 373l795 745v4h-580l84 336h1090z" />
    <glyph glyph-name="zcaron" unicode="&#x17e;" horiz-adv-x="1067" 
d="M844 1151h-332l-176 307h278l78 -153l150 153h329zM1042 731l-538 -430l-2 -4h446l-71 -297h-945l76 309l541 430l2 4h-418l74 297h913z" />
    <glyph glyph-name="longs" unicode="&#x17f;" horiz-adv-x="778" 
d="M809 1479q92 0 190 -25l-65 -262q-15 6 -47 6q-77 0 -123 -34.5t-66 -114.5l-260 -1049h-393l191 760h-162l69 280h162l23 93q44 172 167.5 259t313.5 87z" />
    <glyph glyph-name="Schwa" unicode="&#x18f;" horiz-adv-x="1613" 
d="M961 1491q318 0 482.5 -168.5t164.5 -460.5q0 -98 -24.5 -200.5t-71 -202.5t-120.5 -189t-166 -156.5t-215.5 -107t-262.5 -39.5q-316 0 -481 163t-165 445q0 146 45 271h1024q7 51 7 80q0 131 -66.5 190.5t-171.5 59.5q-97 0 -169.5 -47.5t-100.5 -124.5h-469
q89 209 294.5 348t465.5 139zM768 281q107 0 195.5 70t140.5 216h-572q-4 -46 -4 -61q0 -113 65.5 -169t174.5 -56z" />
    <glyph glyph-name="florin" unicode="&#x192;" horiz-adv-x="1343" 
d="M1333 1485q99 0 187 -25l-66 -264q-39 8 -100 8q-79 0 -133.5 -37.5t-94.5 -117.5l-45 -91h213l-65 -270h-281l-317 -635q-117 -232 -268.5 -339t-350.5 -107q-99 0 -176 22l66 267q50 -11 88 -11q84 0 140.5 43.5t115.5 159.5l301 600h-193l68 270h256l65 125
q102 203 246.5 302.5t343.5 99.5z" />
    <glyph glyph-name="Aringacute" unicode="&#x1fa;" horiz-adv-x="1497" 
d="M1137 2034h-314l228 319h442zM1010 1501q-101 0 -173.5 72t-72.5 172q0 101 72.5 173.5t173.5 72.5q102 0 172.5 -72t70.5 -174q0 -101 -70.5 -172.5t-172.5 -71.5zM1010 1864q-50 0 -84.5 -35t-34.5 -84t34.5 -84t84.5 -35q49 0 83.5 34.5t34.5 84.5t-34.5 84.5
t-83.5 34.5zM1245 1458l127 -1458h-405l-9 262h-493l-139 -262h-459l852 1458h526zM948 584l-4 100q-9 243 -6 492h-4q-140 -295 -246 -492l-53 -100h313z" />
    <glyph glyph-name="aringacute" unicode="&#x1fb;" horiz-adv-x="1179" 
d="M862 1649h-313l225 307h440zM748 1606q102 0 172.5 -72t70.5 -174q0 -101 -70.5 -172.5t-172.5 -71.5q-101 0 -173.5 72t-72.5 172q0 101 72.5 173.5t173.5 72.5zM748 1479q-50 0 -84.5 -34.5t-34.5 -84.5t34.5 -84.5t84.5 -34.5q49 0 83.5 34.5t34.5 84.5t-34.5 84.5
t-83.5 34.5zM664 1073q452 0 452 -338q0 -63 -18 -137l-72 -295q-48 -200 -43 -303h-352q-3 53 12 115h-4q-153 -144 -346 -144q-150 0 -231.5 78t-81.5 207q0 51 14 97t50 92t92 82t145 65.5t204 44.5q123 19 250 27l6 18q7 35 7 55q0 107 -105 107q-112 0 -139 -133h-377
q35 156 173.5 259t363.5 103zM674 410l14 57q-98 -9 -166 -23q-147 -32 -147 -137q0 -43 25.5 -67.5t74.5 -24.5q76 0 126 52t73 143z" />
    <glyph glyph-name="AEacute" unicode="&#x1fc;" horiz-adv-x="2025" 
d="M1407 1556h-313l227 320h442zM1446 1120l-23 -219h547l-84 -330h-500l-22 -233h524l-84 -338h-846l31 291h-483l-189 -291h-458l985 1458h1317l-84 -338h-631zM1024 618l53 506h-28l-330 -506h305z" />
    <glyph glyph-name="aeacute" unicode="&#x1fd;" horiz-adv-x="1863" 
d="M1180 1151h-314l224 307h442zM1794 440h-721q-6 -40 -6 -69q0 -150 131 -150q54 0 95 28t55 73h399q-64 -154 -218 -254.5t-341 -100.5q-264 0 -379 183q-160 -183 -424 -183q-195 0 -297 82.5t-102 220.5q0 65 20.5 119.5t69 103t124 82t191 53t264.5 19.5h101l8 31
q10 42 10 61q0 105 -117 105q-126 0 -153 -133h-375q19 75 61 138.5t106.5 114.5t160 80t211.5 29q232 0 336 -104q145 104 331 104q231 0 355.5 -123.5t124.5 -337.5q0 -61 -21 -172zM1319 827q-131 0 -195 -180h322q4 28 4 41q0 139 -131 139zM709 457h-84
q-141 0 -197.5 -44.5t-56.5 -109.5q0 -98 112 -98q163 0 217 219z" />
    <glyph glyph-name="Oslashacute" unicode="&#x1fe;" horiz-adv-x="1570" 
d="M1139 1556h-314l228 320h442zM1616 1380l-152 -153q95 -159 95 -381q0 -118 -32.5 -239.5t-101.5 -236.5t-164.5 -204.5t-233 -144t-296.5 -54.5q-238 0 -391 119l-143 -145l-138 137l150 153q-94 157 -94 385q0 118 32.5 239t101 235.5t164.5 203.5t233 143t296 54
q239 0 393 -117l142 144zM530 610q0 -35 2 -51l529 537q-56 53 -148 53q-75 0 -140 -36t-108.5 -93.5t-74.5 -129.5t-45.5 -143.5t-14.5 -136.5zM1143 850q0 33 -2 49l-529 -537q56 -53 148 -53q75 0 140 36t108.5 94t74.5 130.5t45.5 144t14.5 136.5z" />
    <glyph glyph-name="oslashacute" unicode="&#x1ff;" horiz-adv-x="1265" 
d="M887 1151h-314l224 307h442zM1235 1014l-117 -121q94 -123 94 -307q0 -69 -17.5 -140.5t-51.5 -141t-88 -130t-121.5 -107t-157.5 -73.5t-192 -27q-180 0 -308 70l-124 -129l-121 119l116 120q-94 123 -94 308q0 83 24.5 168.5t76.5 166.5t124.5 144t177.5 101t226 38
q181 0 307 -69l125 129zM672 799q-60 0 -108 -37t-75 -93.5t-41 -115t-14 -109.5v-24l338 344q-38 35 -100 35zM592 242q61 0 109 37t74.5 93.5t40 114t13.5 109.5v20l-335 -342q40 -32 98 -32z" />
    <glyph glyph-name="Scommaaccent" unicode="&#x218;" horiz-adv-x="1353" 
d="M856 1491q262 0 401.5 -95.5t139.5 -281.5q0 -50 -11 -98h-430q5 35 5 41q0 61 -41 93t-119 32q-82 0 -128 -36.5t-46 -84.5q0 -55 47.5 -86t177.5 -72q55 -18 94 -32t86 -36t79.5 -44t65 -53.5t52 -67t31.5 -83t12 -102.5q0 -73 -24.5 -144.5t-78.5 -139.5t-131 -119.5
t-191.5 -83t-250.5 -31.5q-275 0 -426.5 105t-151.5 297q0 44 13 104h442q-6 -30 -6 -53q0 -133 178 -133q88 0 138.5 39t50.5 92q0 60 -46 90t-172 74q-57 20 -93 33.5t-84.5 36t-78.5 43t-63.5 51.5t-52 65t-31 79.5t-12.5 98.5q0 70 24 139.5t77 135t128 116t185.5 81
t240.5 30.5zM639 -348l-207 -225h-143l153 225h-96l62 248h292z" />
    <glyph glyph-name="scommaaccent" unicode="&#x219;" horiz-adv-x="1144" 
d="M672 1073q210 0 325 -72t115 -215q0 -30 -8 -57h-371q4 24 4 37q0 78 -102 78q-54 0 -78.5 -21.5t-24.5 -50.5q0 -35 34 -58t132 -57q45 -16 70 -25.5t66 -28t65 -34.5t53.5 -41.5t45.5 -52.5t27 -64t11 -79q0 -69 -34 -133t-100 -116.5t-174 -84t-243 -31.5
q-485 0 -485 303q0 39 10 68h391q-6 -21 -6 -41q0 -88 121 -88q58 0 89.5 22t31.5 58q0 41 -40 64.5t-161 64.5q-46 15 -75 25.5t-68.5 28.5t-63.5 39t-47 50t-34 68.5t-11 87.5q0 55 19.5 105.5t62.5 96.5t104.5 80t151 54t197.5 20zM532 -348l-206 -225h-144l154 225h-96
l61 248h293z" />
    <glyph glyph-name="Tcommaaccent" unicode="&#x21a;" horiz-adv-x="1306" 
d="M1440 1114h-434l-277 -1114h-410l279 1114h-434l86 344h1274zM594 -348l-207 -225h-143l153 225h-96l61 248h293z" />
    <glyph glyph-name="tcommaaccent" unicode="&#x21b;" horiz-adv-x="815" 
d="M623 760l-76 -301q-10 -48 -10 -72q0 -52 27 -75t89 -23q32 0 56 6l-74 -297q-86 -16 -156 -16q-184 0 -270 71.5t-86 227.5q0 61 24 159l80 320h-157l69 280h158l74 291h393l-72 -291h191l-70 -280h-190zM178 -100h293l-61 -248l-207 -225h-144l154 225h-96z" />
    <glyph glyph-name="dotlessj" unicode="&#x237;" horiz-adv-x="614" 
d="M633 1040l-262 -1056q-49 -189 -174.5 -282t-296.5 -93q-126 0 -215 29l67 262q20 -4 35 -4q89 0 140 47t81 170l232 927h393z" />
    <glyph glyph-name="schwa" unicode="&#x259;" horiz-adv-x="1216" 
d="M666 1073q247 0 373 -129.5t126 -351.5q0 -82 -23.5 -167.5t-74.5 -168t-122 -146.5t-175 -103.5t-225 -39.5q-238 0 -367 123.5t-129 337.5q0 94 27 176h721q6 37 6 66q0 81 -35.5 115t-99.5 34q-55 0 -95.5 -27.5t-54.5 -70.5h-401q64 154 214.5 253t334.5 99zM549 213
q134 0 199 184h-330q-4 -32 -4 -45q0 -139 135 -139z" />
    <glyph glyph-name="apostrophemod" unicode="&#x2bc;" horiz-adv-x="569" 
d="M602 1108l-266 -320h-195l226 320h-111l86 350h348z" />
    <glyph glyph-name="circumflex" unicode="&#x2c6;" horiz-adv-x="1040" 
d="M1094 1151h-279l-78 154l-147 -154h-330l328 307h332z" />
    <glyph glyph-name="caron" unicode="&#x2c7;" horiz-adv-x="1040" 
d="M844 1151h-332l-176 307h278l78 -153l150 153h329z" />
    <glyph glyph-name="firsttonechinese" unicode="&#x2c9;" horiz-adv-x="1009" 
d="M1073 1190h-803l58 235h805z" />
    <glyph glyph-name="breve" unicode="&#x2d8;" horiz-adv-x="946" 
d="M815 1458h262q-43 -154 -156.5 -237.5t-283.5 -83.5q-150 0 -228.5 65.5t-78.5 188.5q0 29 6 67h217q-2 -8 -2 -22q0 -82 108 -82q127 0 156 104z" />
    <glyph glyph-name="dotaccent" unicode="&#x2d9;" horiz-adv-x="598" 
d="M657 1169h-393l72 289h393z" />
    <glyph glyph-name="ring" unicode="&#x2da;" horiz-adv-x="710" 
d="M567 1616q102 0 174 -72t72 -174t-72 -174t-174 -72q-101 0 -173 72.5t-72 173.5t72 173.5t173 72.5zM567 1489q-49 0 -83.5 -34.5t-34.5 -84.5t34.5 -84.5t83.5 -34.5t84 34.5t35 84.5t-35 84.5t-84 34.5z" />
    <glyph glyph-name="ogonek" unicode="&#x2db;" horiz-adv-x="698" 
d="M158 0h301q-93 -51 -128.5 -89.5t-35.5 -72.5q0 -39 53 -39q36 0 68 13l-49 -199q-102 -25 -203 -25q-125 0 -186.5 43t-61.5 121q0 76 58.5 135.5t183.5 112.5z" />
    <glyph glyph-name="tilde" unicode="&#x2dc;" horiz-adv-x="1030" 
d="M956 1458h205q-41 -146 -124.5 -228.5t-200.5 -82.5q-58 0 -107.5 21t-89 42t-72.5 21q-73 0 -100 -84h-209q42 147 125.5 229t200.5 82q58 0 108.5 -20.5t90 -41t71.5 -20.5q73 0 102 82z" />
    <glyph glyph-name="hungarumlaut" unicode="&#x2dd;" horiz-adv-x="1226" 
d="M555 1151h-295l264 307h383zM1006 1151h-295l266 307h381z" />
    <glyph glyph-name="commaturnedabovecomb" unicode="&#x312;" horiz-adv-x="0" 
d="M520 1409h96l-61 -248h-293l62 248l206 225h144z" />
    <glyph glyph-name="commaaccent" unicode="&#x326;" horiz-adv-x="0" 
d="M180 -348l-207 -225h-143l154 225h-97l62 248h293z" />
    <glyph glyph-name="dbllowlinecomb" unicode="&#x333;" horiz-adv-x="0" 
d="M-205 -301h-1024l49 199h1024zM-291 -645h-1024l49 199h1024z" />
    <glyph glyph-name="numeralgreek" unicode="&#x374;" horiz-adv-x="518" 
d="M438 1040h-248l156 418h344z" />
    <glyph glyph-name="lowernumeralgreek" unicode="&#x375;" horiz-adv-x="518" 
d="M131 -188h-248l156 417h344z" />
    <glyph glyph-name="questiongreek" unicode="&#x37e;" horiz-adv-x="595" 
d="M528 631h-407l100 409h410zM373 0l-314 -379h-231l266 379h-131l103 410h409z" />
    <glyph glyph-name="tonos" unicode="&#x384;" horiz-adv-x="649" 
d="M551 1155h-289l146 344h383z" />
    <glyph glyph-name="dieresistonos" unicode="&#x385;" horiz-adv-x="1253" 
d="M866 1155h-256l144 338h313zM565 1174h-299l68 274h299zM1315 1174h-299l67 274h299z" />
    <glyph glyph-name="Alphatonos" unicode="&#x386;" horiz-adv-x="1497" 
d="M958 262h-493l-139 -262h-459l852 1458h526l127 -1458h-405zM342 1032h-289l166 426h383zM948 584l-4 100q-9 243 -6 492h-4q-140 -295 -246 -492l-53 -100h313z" />
    <glyph glyph-name="anoteleia" unicode="&#x387;" horiz-adv-x="595" 
d="M530 631h-409l102 409h408z" />
    <glyph glyph-name="Epsilontonos" unicode="&#x388;" 
d="M63 1032h-288l166 426h383zM1346 1120h-646l-55 -219h602l-84 -330h-600l-57 -233h657l-84 -338h-1067l363 1458h1055z" />
    <glyph glyph-name="Etatonos" unicode="&#x389;" horiz-adv-x="1579" 
d="M63 1032h-288l166 426h383zM1309 0h-410l143 578h-477l-143 -578h-410l363 1458h409l-133 -536h477l134 536h409z" />
    <glyph glyph-name="Iotatonos" unicode="&#x38a;" horiz-adv-x="692" 
d="M63 1032h-288l166 426h383zM422 0h-410l363 1458h409z" />
    <glyph glyph-name="Omicrontonos" unicode="&#x38c;" horiz-adv-x="1568" 
d="M942 1491q291 0 454 -172.5t163 -472.5q0 -118 -32.5 -239.5t-101.5 -236.5t-164.5 -204.5t-233 -144t-296.5 -54.5q-291 0 -453.5 173.5t-162.5 475.5q0 118 32.5 239t101 235.5t164.5 203.5t233 143t296 54zM160 1032h-289l166 426h383zM913 1143q-92 0 -167.5 -53.5
t-119.5 -136t-67.5 -172t-23.5 -171.5q0 -143 57.5 -219t167.5 -76q75 0 139 36t107 93t74 128.5t45 142.5t14 135q0 143 -58 218t-168 75z" />
    <glyph glyph-name="Upsilontonos" unicode="&#x38e;" horiz-adv-x="1411" 
d="M-53 1032h-289l166 426h383zM913 532l-133 -532h-409l133 532l-271 926h410l51 -256q44 -221 58 -360h4q84 166 221 360l178 256h487z" />
    <glyph glyph-name="Omegatonos" unicode="&#x38f;" horiz-adv-x="1554" 
d="M952 1491q286 0 448.5 -124t162.5 -366q0 -194 -93 -352t-282 -303v-4h272l-86 -342h-655l88 354q146 115 225.5 257t79.5 284q0 120 -57 183t-158 63q-69 0 -128 -30t-99.5 -78.5t-70 -109.5t-43 -123.5t-13.5 -121.5q0 -169 90 -324l-88 -354h-623l86 342h281v4
q-154 201 -154 410q0 101 31 203t97.5 198t160.5 170t231 119t297 45zM131 1032h-289l166 426h383z" />
    <glyph glyph-name="iotadieresistonos" unicode="&#x390;" horiz-adv-x="718" 
d="M537 1155h-256l143 338h313zM236 1174h-299l67 274h299zM985 1174h-299l68 274h299zM623 1040l-140 -559q-16 -82 -16 -102q0 -52 27 -76t86 -24q35 0 59 6l-74 -289q-72 -14 -155 -14q-179 0 -264 75.5t-85 237.5q0 63 27 174l141 571h394z" />
    <glyph glyph-name="Alpha" unicode="&#x391;" horiz-adv-x="1497" 
d="M958 262h-493l-139 -262h-459l852 1458h526l127 -1458h-405zM948 584l-4 100q-9 243 -6 492h-4q-140 -295 -246 -492l-53 -100h313z" />
    <glyph glyph-name="Beta" unicode="&#x392;" horiz-adv-x="1386" 
d="M375 1458h590q233 0 349 -87t116 -241q0 -127 -78 -233.5t-250 -155.5v-4q198 -53 198 -274q0 -65 -22.5 -128.5t-71.5 -124.5t-119.5 -107.5t-176 -74.5t-230.5 -28h-668zM696 1157l-69 -276h172q119 0 169 45t50 114q0 117 -168 117h-154zM555 594l-72 -291h181
q223 0 223 168q0 65 -43.5 94t-138.5 29h-150z" />
    <glyph glyph-name="Gamma" unicode="&#x393;" horiz-adv-x="1085" 
d="M12 0l363 1458h928l-86 -344h-519l-276 -1114h-410z" />
    <glyph glyph-name="Delta" unicode="&#x394;" horiz-adv-x="1495" 
d="M1370 0h-1503l860 1458h512zM958 322l-12 362q-9 240 -12 496h-4q-92 -210 -244 -496l-192 -362h464z" />
    <glyph glyph-name="Epsilon" unicode="&#x395;" 
d="M1346 1120h-646l-55 -219h602l-84 -330h-600l-57 -233h657l-84 -338h-1067l363 1458h1055z" />
    <glyph glyph-name="Zeta" unicode="&#x396;" horiz-adv-x="1239" 
d="M1300 1085l-792 -745v-4h641l-84 -336h-1153l92 373l795 745v4h-580l84 336h1090z" />
    <glyph glyph-name="Eta" unicode="&#x397;" horiz-adv-x="1579" 
d="M1309 0h-410l143 578h-477l-143 -578h-410l363 1458h409l-133 -536h477l134 536h409z" />
    <glyph glyph-name="Theta" unicode="&#x398;" horiz-adv-x="1570" 
d="M946 1491q293 0 457 -167t164 -456q0 -121 -33 -245.5t-103 -242.5t-167 -209.5t-236.5 -147.5t-300.5 -56q-293 0 -457 167.5t-164 457.5q0 121 33.5 245.5t103.5 242t167 209t236.5 147t299.5 55.5zM913 1161q-80 0 -148.5 -37.5t-113.5 -96.5t-77.5 -133t-47 -146.5
t-14.5 -137.5q0 -149 64.5 -231t183.5 -82q80 0 148.5 37.5t113.5 97t77.5 134t47 147t14.5 137.5q0 148 -64 229.5t-184 81.5zM1042 598h-479l68 262h479z" />
    <glyph glyph-name="Iota" unicode="&#x399;" horiz-adv-x="692" 
d="M422 0h-410l363 1458h409z" />
    <glyph glyph-name="Kappa" unicode="&#x39a;" horiz-adv-x="1466" 
d="M981 748l350 -748h-473l-262 690h-4l-170 -690h-410l363 1458h409l-143 -579h4l485 579h533z" />
    <glyph glyph-name="Lambda" unicode="&#x39b;" horiz-adv-x="1470" 
d="M1346 0h-414l-17 674q-5 179 3 485h-5q-135 -305 -229 -485l-350 -674h-467l835 1458h533z" />
    <glyph glyph-name="Mu" unicode="&#x39c;" horiz-adv-x="2134" 
d="M1864 0h-381l174 698q80 318 145 535h-4q-130 -284 -254 -528l-358 -705h-496l-6 705q-3 283 8 528h-4q-66 -317 -121 -535l-174 -698h-381l363 1458h633l6 -627q0 -284 -17 -536h4q104 271 236 536l319 627h670z" />
    <glyph glyph-name="Nu" unicode="&#x39d;" horiz-adv-x="1693" 
d="M1421 0h-569l-100 559q-44 257 -88 565h-5q-47 -283 -124 -596l-132 -528h-391l363 1458h571l98 -559q47 -261 91 -565h4q49 295 123 596l131 528h391z" />
    <glyph glyph-name="Xi" unicode="&#x39e;" horiz-adv-x="1386" 
d="M1411 1102h-1147l90 356h1145zM1241 557h-1077l90 356h1075zM1165 0h-1202l88 356h1204z" />
    <glyph glyph-name="Omicron" unicode="&#x39f;" horiz-adv-x="1568" 
d="M942 1491q291 0 454 -172.5t163 -472.5q0 -118 -32.5 -239.5t-101.5 -236.5t-164.5 -204.5t-233 -144t-296.5 -54.5q-291 0 -453.5 173.5t-162.5 475.5q0 118 32.5 239t101 235.5t164.5 203.5t233 143t296 54zM913 1143q-92 0 -167.5 -53.5t-119.5 -136t-67.5 -172
t-23.5 -171.5q0 -143 57.5 -219t167.5 -76q75 0 139 36t107 93t74 128.5t45 142.5t14 135q0 143 -58 218t-168 75z" />
    <glyph glyph-name="Pi" unicode="&#x3a0;" horiz-adv-x="1558" 
d="M1288 0h-409l278 1114h-459l-276 -1114h-410l363 1458h1276z" />
    <glyph glyph-name="Rho" unicode="&#x3a1;" horiz-adv-x="1378" 
d="M375 1458h514q279 0 416 -116.5t137 -331.5q0 -76 -21 -150.5t-70 -147t-120.5 -128t-181 -89.5t-242.5 -34h-270l-115 -461h-410zM705 1137l-89 -355h179q116 0 172.5 57.5t56.5 135.5q0 162 -188 162h-131z" />
    <glyph glyph-name="Sigma" unicode="&#x3a3;" horiz-adv-x="1232" 
d="M1307 1116h-648v-4l226 -395l-400 -371v-4h658l-84 -342h-1137l96 387l406 391l-195 367l78 313h1086z" />
    <glyph glyph-name="Tau" unicode="&#x3a4;" horiz-adv-x="1306" 
d="M1440 1114h-434l-277 -1114h-410l279 1114h-434l86 344h1274z" />
    <glyph glyph-name="Upsilon" unicode="&#x3a5;" horiz-adv-x="1411" 
d="M913 532l-133 -532h-409l133 532l-271 926h410l51 -256q44 -221 58 -360h4q84 166 221 360l178 256h487z" />
    <glyph glyph-name="Phi" unicode="&#x3a6;" horiz-adv-x="1818" 
d="M1804 819q0 -106 -28 -208t-91 -198.5t-155 -170t-231 -120t-308 -50.5l-35 -142h-389l39 154q-241 37 -364 180.5t-123 386.5q0 104 28 205.5t91.5 198t155.5 170.5t231.5 121t308.5 51l33 131h387l-35 -144q239 -37 362 -181t123 -384zM526 672q0 -227 170 -279
l174 694q-89 -11 -157.5 -53t-108 -101.5t-59 -126t-19.5 -134.5zM1229 1075l-172 -692q88 12 156 54.5t106 103t57 126t19 132.5q0 224 -166 276z" />
    <glyph glyph-name="Chi" unicode="&#x3a7;" horiz-adv-x="1452" 
d="M1047 741l274 -741h-444l-132 475h-4l-350 -475h-520l649 770l-256 688h432l119 -454h4l328 454h508z" />
    <glyph glyph-name="Psi" unicode="&#x3a8;" horiz-adv-x="1800" 
d="M1970 1458l-141 -565q-143 -575 -780 -584l-78 -309h-400l80 317q-493 62 -493 486q0 95 30 215l109 440h399l-110 -442q-25 -95 -25 -162q0 -94 41.5 -143.5t130.5 -63.5l201 811h399l-203 -815q130 5 202.5 75.5t113.5 233.5l125 506h399z" />
    <glyph glyph-name="Omega" unicode="&#x3a9;" horiz-adv-x="1554" 
d="M952 1491q286 0 448.5 -124t162.5 -366q0 -194 -93 -352t-282 -303v-4h272l-86 -342h-655l88 354q146 115 225.5 257t79.5 284q0 120 -57 183t-158 63q-69 0 -128 -30t-99.5 -78.5t-70 -109.5t-43 -123.5t-13.5 -121.5q0 -169 90 -324l-88 -354h-623l86 342h281v4
q-154 201 -154 410q0 101 31 203t97.5 198t160.5 170t231 119t297 45z" />
    <glyph glyph-name="Iotadieresis" unicode="&#x3aa;" horiz-adv-x="692" 
d="M535 1587h-332l71 289h334zM1020 1587h-334l74 289h332zM422 0h-410l363 1458h409z" />
    <glyph glyph-name="Upsilondieresis" unicode="&#x3ab;" horiz-adv-x="1411" 
d="M831 1575h-331l71 289h334zM1317 1575h-334l74 289h332zM913 532l-133 -532h-409l133 532l-271 926h410l51 -256q44 -221 58 -360h4q84 166 221 360l178 256h487z" />
    <glyph glyph-name="alphatonos" unicode="&#x3ac;" horiz-adv-x="1335" 
d="M911 1155h-288l145 344h383zM621 1071q90 0 159 -42.5t99 -123.5h4q21 69 47 135h393q-57 -142 -113 -368l-69 -287q-8 -31 -8 -55q0 -31 16 -44.5t49 -13.5q20 0 51 7l-69 -273q-98 -29 -211 -29q-210 0 -252 146h-4q-69 -75 -153 -114.5t-169 -39.5
q-169 0 -260.5 109.5t-91.5 306.5q0 90 24 184.5t73 184.5t116.5 160.5t163.5 113.5t205 43zM678 774q-66 0 -119 -56.5t-78.5 -132t-25.5 -147.5q0 -82 31.5 -127t91.5 -45q50 0 93 32.5t70 83t42.5 108t15.5 110.5q0 82 -31.5 128t-89.5 46z" />
    <glyph glyph-name="epsilontonos" unicode="&#x3ad;" horiz-adv-x="1124" 
d="M854 1155h-289l146 344h383zM664 1073q207 0 324.5 -88.5t117.5 -247.5q0 -19 -4 -59h-350q2 10 2 24q0 51 -32 80t-95 29q-65 0 -99 -29t-34 -67q0 -78 118 -78h93l-56 -223h-114q-75 0 -116.5 -28.5t-41.5 -70.5q0 -40 33 -62t92 -22q143 0 170 119h366
q-44 -188 -193.5 -285.5t-381.5 -97.5q-225 0 -343 74.5t-118 218.5q0 101 63.5 179.5t200.5 119.5v4q-125 51 -125 168q0 63 33 123t95 109.5t164.5 79.5t230.5 30z" />
    <glyph glyph-name="etatonos" unicode="&#x3ae;" horiz-adv-x="1314" 
d="M874 1155h-288l145 344h383zM938 1069q152 0 235.5 -79t83.5 -230q0 -71 -20 -152l-246 -987h-393l242 975q12 46 12 82q0 88 -92 88q-141 0 -203 -244l-129 -522h-393l158 639q12 43 12 70q0 61 -66 61q-29 0 -53 -6l70 274q97 23 180 23q217 0 244 -166h4
q153 174 354 174z" />
    <glyph glyph-name="iotatonos" unicode="&#x3af;" horiz-adv-x="718" 
d="M600 1155h-289l146 344h383zM623 1040l-140 -559q-16 -82 -16 -102q0 -52 27 -76t86 -24q35 0 59 6l-74 -289q-72 -14 -155 -14q-179 0 -264 75.5t-85 237.5q0 63 27 174l141 571h394z" />
    <glyph glyph-name="upsilondieresistonos" unicode="&#x3b0;" horiz-adv-x="1275" 
d="M819 1155h-256l144 338h313zM518 1174h-299l68 274h299zM1268 1174h-299l67 274h299zM330 1061q139 0 207.5 -57t68.5 -191q0 -60 -22 -156l-60 -235q-8 -36 -8 -70q0 -90 90 -90q67 0 119 67.5t80 169t41.5 200.5t13.5 182q0 70 -14 159h379q14 -80 14 -180
q0 -132 -19.5 -252.5t-68 -240t-122.5 -206t-192 -140.5t-268 -54q-222 0 -335 87t-113 274q0 60 18 137l37 145q14 65 14 86q0 38 -15 54t-46 16q-29 0 -53 -6l69 276q92 25 185 25z" />
    <glyph glyph-name="alpha" unicode="&#x3b1;" horiz-adv-x="1335" 
d="M621 1071q90 0 159 -42.5t99 -123.5h4q21 69 47 135h393q-57 -142 -113 -368l-69 -287q-8 -31 -8 -55q0 -31 16 -44.5t49 -13.5q20 0 51 7l-69 -273q-98 -29 -211 -29q-210 0 -252 146h-4q-69 -75 -153 -114.5t-169 -39.5q-169 0 -260.5 109.5t-91.5 306.5q0 90 24 184.5
t73 184.5t116.5 160.5t163.5 113.5t205 43zM678 774q-66 0 -119 -56.5t-78.5 -132t-25.5 -147.5q0 -82 31.5 -127t91.5 -45q50 0 93 32.5t70 83t42.5 108t15.5 110.5q0 82 -31.5 128t-89.5 46z" />
    <glyph glyph-name="beta" unicode="&#x3b2;" horiz-adv-x="1271" 
d="M823 1491q223 0 349 -96.5t126 -268.5q0 -117 -82 -215t-243 -141v-4q223 -80 223 -311q0 -65 -20.5 -130.5t-64.5 -128t-106 -110.5t-152.5 -77t-197.5 -29q-186 0 -256 98h-4l-114 -457h-394l361 1442q49 202 202.5 315t372.5 113zM807 1206q-71 0 -112 -45t-66 -145
l-146 -578q-6 -27 -6 -51q0 -119 135 -119q92 0 141.5 60.5t49.5 130.5q0 159 -180 159h-13l76 304h33q103 0 155 52.5t52 117.5q0 55 -31.5 84.5t-87.5 29.5z" />
    <glyph glyph-name="gamma" unicode="&#x3b3;" horiz-adv-x="1206" 
d="M899 1040h424q-102 -292 -256.5 -527t-413.5 -503q-55 -220 -118 -389h-394q75 206 112.5 363.5t37.5 326.5q0 62 -3.5 118t-14 121t-28.5 111.5t-49 77.5t-73 31q-17 0 -49 -4l69 274q91 25 160 25q162 0 235.5 -124t73.5 -406q0 -39 -4 -105h4q185 296 287 610z" />
    <glyph glyph-name="delta" unicode="&#x3b4;" horiz-adv-x="1243" 
d="M850 1479q242 0 446 -52l-71 -288q-176 67 -355 67q-102 0 -102 -51q0 -35 144 -121q10 -7 16 -10q132 -81 197 -186t65 -256q0 -87 -25.5 -173.5t-78.5 -166t-128 -141t-182.5 -98t-232.5 -36.5q-235 0 -370.5 115t-135.5 317q0 81 28 161.5t82.5 155t147 131
t209.5 79.5v4q-71 63 -105 119.5t-34 121.5q0 43 13 83.5t47.5 82t87.5 72.5t140 50.5t197 19.5zM659 721q-65 0 -114 -51.5t-70.5 -119t-21.5 -132.5q0 -80 30 -124t86 -44q64 0 113.5 51.5t71.5 119t22 132.5q0 80 -31 124t-86 44z" />
    <glyph glyph-name="epsilon" unicode="&#x3b5;" horiz-adv-x="1124" 
d="M664 1073q207 0 324.5 -88.5t117.5 -247.5q0 -19 -4 -59h-350q2 10 2 24q0 51 -32 80t-95 29q-65 0 -99 -29t-34 -67q0 -78 118 -78h93l-56 -223h-114q-75 0 -116.5 -28.5t-41.5 -70.5q0 -40 33 -62t92 -22q143 0 170 119h366q-44 -188 -193.5 -285.5t-381.5 -97.5
q-225 0 -343 74.5t-118 218.5q0 101 63.5 179.5t200.5 119.5v4q-125 51 -125 168q0 63 33 123t95 109.5t164.5 79.5t230.5 30z" />
    <glyph glyph-name="zeta" unicode="&#x3b6;" horiz-adv-x="1038" 
d="M1245 1458l-69 -278q-359 -165 -538 -355.5t-179 -363.5q0 -82 49 -126.5t164 -74.5q110 -30 157.5 -90.5t47.5 -157.5q0 -73 -28.5 -155.5t-78.5 -153.5h-321q55 93 55 164q0 47 -33 76t-117 47q-178 37 -256 116t-78 226q0 102 43 211t126 218.5t216 217t304 197.5v4
h-441l70 278h907z" />
    <glyph glyph-name="eta" unicode="&#x3b7;" horiz-adv-x="1314" 
d="M938 1069q152 0 235.5 -79t83.5 -230q0 -71 -20 -152l-246 -987h-393l242 975q12 46 12 82q0 88 -92 88q-141 0 -203 -244l-129 -522h-393l158 639q12 43 12 70q0 61 -66 61q-29 0 -53 -6l70 274q97 23 180 23q217 0 244 -166h4q153 174 354 174z" />
    <glyph glyph-name="theta" unicode="&#x3b8;" horiz-adv-x="1337" 
d="M854 1489q245 0 370.5 -135.5t125.5 -395.5q0 -92 -15 -188.5t-46 -193t-76 -185.5t-108.5 -166t-139 -134t-172 -89.5t-203.5 -32.5q-247 0 -373.5 133.5t-126.5 389.5q0 108 21 221t61 225t105 211t147 175t193 120.5t237 44.5zM831 1208q-90 0 -162 -98.5t-122 -251.5
h403q13 83 13 131q0 219 -132 219zM610 250q47 0 90 28.5t78 79t63.5 110.5t51.5 132h-406q-10 -82 -10 -127q0 -223 133 -223z" />
    <glyph glyph-name="iota" unicode="&#x3b9;" horiz-adv-x="718" 
d="M623 1040l-140 -559q-16 -82 -16 -102q0 -52 27 -76t86 -24q35 0 59 6l-74 -289q-72 -14 -155 -14q-179 0 -264 75.5t-85 237.5q0 63 27 174l141 571h394z" />
    <glyph glyph-name="kappa" unicode="&#x3ba;" horiz-adv-x="1245" 
d="M1204 1059q64 0 127 -25l-78 -311q-24 8 -65 8q-80 0 -169 -46t-208 -146l328 -539h-441l-166 293l-110 -96l-49 -197h-393l260 1040h393l-94 -368h4l176 162q138 128 247.5 176.5t237.5 48.5z" />
    <glyph glyph-name="lambda" unicode="&#x3bb;" horiz-adv-x="1296" 
d="M569 1483q130 0 216 -45.5t142 -156.5t79 -298l61 -504q14 -124 43.5 -166.5t81.5 -42.5q13 0 29 4l-68 -280q-59 -17 -121 -17q-82 0 -135 14t-93.5 50.5t-62 100t-28.5 163.5q-19 247 -23 326h-4q-94 -161 -219 -365l-166 -266h-448l712 1024q-7 85 -40.5 120.5
t-100.5 35.5q-49 0 -102 -17l73 293q83 27 174 27z" />
    <glyph glyph-name="mu" unicode="&#x3bc;" horiz-adv-x="1310" 
d="M1286 1040l-162 -655q-8 -31 -8 -55q0 -58 64 -58q22 0 53 7l-70 -279q-90 -23 -188 -23q-196 0 -234 144h-4q-43 -63 -105 -97t-134 -34q-71 0 -119 33l-100 -402h-394l355 1419h393l-144 -575q-12 -56 -12 -90q0 -101 92 -101q134 0 191 228l133 538h393z" />
    <glyph glyph-name="nu" unicode="&#x3bd;" horiz-adv-x="1185" 
d="M309 1061q139 0 200 -82.5t44 -265.5l-37 -445h4q158 255 234.5 410.5t107.5 284.5q9 37 12 77h398q0 -50 -12 -102q-41 -170 -146.5 -355t-386.5 -583h-539v604q0 96 -18 131t-66 35q-18 0 -36 -6l67 270q79 27 174 27z" />
    <glyph glyph-name="xi" unicode="&#x3be;" horiz-adv-x="1048" 
d="M1186 1180h-234q-88 0 -153 -17t-100 -45t-51.5 -60t-16.5 -67q0 -59 43 -90t125 -31h229l-70 -278h-217q-154 0 -227.5 -52.5t-73.5 -129.5q0 -60 42.5 -93t144.5 -55q134 -28 192 -95t58 -179q0 -145 -93 -285h-321q55 86 55 158q0 51 -40 81t-144 48
q-166 29 -244 106.5t-78 208.5q0 71 24.5 140.5t73 133t131.5 111.5t191 68v4q-164 42 -164 178q0 75 44.5 142t133.5 94v4h-180l70 278h919z" />
    <glyph glyph-name="omicron" unicode="&#x3bf;" horiz-adv-x="1265" 
d="M682 1073q250 0 390 -130t140 -357q0 -69 -17.5 -140.5t-51.5 -141t-88 -130t-121.5 -107t-157.5 -73.5t-192 -27q-252 0 -391.5 130t-139.5 358q0 83 24.5 168.5t76.5 166.5t124.5 144t177.5 101t226 38zM672 780q-53 0 -96 -34t-67.5 -87t-37 -108.5t-12.5 -106.5
q0 -184 133 -184q55 0 98 34t67 87t36 108.5t12 106.5q0 184 -133 184z" />
    <glyph glyph-name="pi" unicode="&#x3c0;" horiz-adv-x="1415" 
d="M1442 760h-172l-82 -336q-12 -46 -12 -72q0 -43 21 -62.5t65 -19.5q12 0 36 4l-69 -276q-77 -18 -166 -18q-154 0 -227.5 58.5t-73.5 194.5q0 66 26 168l89 359h-240l-188 -760h-394l189 760h-170l69 280h1368z" />
    <glyph glyph-name="rho" unicode="&#x3c1;" horiz-adv-x="1273" 
d="M702 1073q245 0 382 -130t137 -357q0 -83 -23.5 -168t-72.5 -166t-117 -144t-166 -101t-211 -38q-161 0 -244 109h-4l-113 -457h-393l242 975q23 93 70 176t118 152t173 109t222 40zM680 780q-54 0 -97 -34t-67 -86.5t-36.5 -108t-12.5 -105.5q0 -184 133 -184
q54 0 97 34t67 86.5t36.5 108t12.5 105.5q0 184 -133 184z" />
    <glyph glyph-name="sigmafinal" unicode="&#x3c2;" horiz-adv-x="1204" 
d="M702 1073q239 0 357.5 -107.5t118.5 -299.5q0 -36 -7 -97h-405q4 36 4 54q0 157 -111 157q-59 0 -104.5 -47.5t-65.5 -106t-20 -110.5q0 -98 45 -151t148 -76q149 -31 210.5 -96.5t61.5 -174.5q0 -158 -109 -315h-321q25 38 41 84.5t16 77.5q0 53 -37.5 83.5t-132.5 47.5
q-178 31 -264 129.5t-86 277.5q0 94 25 187t78.5 180.5t129.5 154.5t187 107.5t241 40.5z" />
    <glyph glyph-name="sigma" unicode="&#x3c3;" horiz-adv-x="1325" 
d="M1370 762h-264v-4q72 -101 72 -232q0 -76 -23 -153.5t-72 -150.5t-117.5 -129.5t-167.5 -91t-214 -34.5q-253 0 -394 128t-141 351q0 80 24.5 162.5t76 160t123.5 138t176 97t225 36.5h764zM668 760q-53 0 -95.5 -32.5t-66.5 -82.5t-36.5 -103t-12.5 -102
q0 -180 135 -180q54 0 96.5 32.5t66.5 83.5t36 104t12 102q0 178 -135 178z" />
    <glyph glyph-name="tau" unicode="&#x3c4;" horiz-adv-x="1017" 
d="M1065 762h-309l-84 -338q-13 -50 -13 -72q0 -43 21 -62.5t65 -19.5q13 0 37 4l-69 -276q-77 -18 -166 -18q-154 0 -227.5 58.5t-73.5 194.5q0 66 26 168l90 361h-288l69 278h990z" />
    <glyph glyph-name="upsilon" unicode="&#x3c5;" horiz-adv-x="1275" 
d="M330 1061q139 0 207.5 -57t68.5 -191q0 -60 -22 -156l-60 -235q-8 -36 -8 -70q0 -90 90 -90q67 0 119 67.5t80 169t41.5 200.5t13.5 182q0 70 -14 159h379q14 -80 14 -180q0 -132 -19.5 -252.5t-68 -240t-122.5 -206t-192 -140.5t-268 -54q-222 0 -335 87t-113 274
q0 60 18 137l37 145q14 65 14 86q0 38 -15 54t-46 16q-29 0 -53 -6l69 276q92 25 185 25z" />
    <glyph glyph-name="phi" unicode="&#x3c6;" horiz-adv-x="1697" 
d="M1243 1356l-72 -289q227 -28 351.5 -152.5t124.5 -328.5q0 -85 -26.5 -170.5t-84.5 -166.5t-140.5 -143.5t-205 -100.5t-266.5 -38h-27l-86 -346h-371l88 352q-227 28 -352 153.5t-125 328.5q0 85 26.5 170.5t84.5 166.5t140.5 143t204 100t265.5 38h31l69 283h371z
M446 446q0 -174 150 -198l137 549h-10q-71 -4 -126.5 -37.5t-87 -86t-47.5 -110.5t-16 -117zM967 244h8q71 3 126.5 38t86.5 88t47 111t16 115q0 173 -147 197z" />
    <glyph glyph-name="chi" unicode="&#x3c7;" horiz-adv-x="1294" 
d="M317 1071q148 0 213.5 -61t98.5 -219l33 -158h4l307 407h463l-602 -733l63 -258q25 -94 62 -126t98 -32q27 0 55 7l-68 -277q-79 -20 -165 -20q-142 0 -208.5 62t-105.5 220l-30 125h-5l-315 -387h-463l619 698l-72 293q-24 99 -59 133.5t-99 34.5q-25 0 -65 -8l69 275
q77 24 172 24z" />
    <glyph glyph-name="psi" unicode="&#x3c8;" horiz-adv-x="1781" 
d="M1749 907q0 -158 -23.5 -290t-80 -251t-145 -202t-225.5 -132.5t-314 -51.5l-91 -359h-393l92 367q-235 25 -355 132t-120 304q0 58 25 170l110 446h394l-117 -473q-14 -49 -14 -94q0 -153 149 -192l268 1075h394l-269 -1082q326 52 326 635q0 49 -8 131h389
q8 -86 8 -133z" />
    <glyph glyph-name="omega" unicode="&#x3c9;" horiz-adv-x="1787" 
d="M1280 1040h406q43 -139 43 -303q0 -111 -18 -216t-60.5 -207t-106.5 -177t-163.5 -121.5t-223.5 -46.5q-278 0 -323 217h-5q-114 -217 -397 -217q-381 0 -381 350q0 149 74 352t194 369h426q-122 -152 -201 -344.5t-79 -314.5q0 -121 84 -121q86 0 115 123l104 420h393
l-98 -393q-8 -33 -8 -66q0 -84 73 -84q53 0 94.5 54.5t62.5 137t31.5 160t10.5 142.5q0 153 -47 286z" />
    <glyph glyph-name="iotadieresis" unicode="&#x3ca;" horiz-adv-x="718" 
d="M381 1169h-332l72 289h334zM866 1169h-334l74 289h332zM623 1040l-140 -559q-16 -82 -16 -102q0 -52 27 -76t86 -24q35 0 59 6l-74 -289q-72 -14 -155 -14q-179 0 -264 75.5t-85 237.5q0 63 27 174l141 571h394z" />
    <glyph glyph-name="upsilondieresis" unicode="&#x3cb;" horiz-adv-x="1275" 
d="M666 1169h-332l72 289h333zM1151 1169h-334l74 289h332zM330 1061q139 0 207.5 -57t68.5 -191q0 -60 -22 -156l-60 -235q-8 -36 -8 -70q0 -90 90 -90q67 0 119 67.5t80 169t41.5 200.5t13.5 182q0 70 -14 159h379q14 -80 14 -180q0 -132 -19.5 -252.5t-68 -240
t-122.5 -206t-192 -140.5t-268 -54q-222 0 -335 87t-113 274q0 60 18 137l37 145q14 65 14 86q0 38 -15 54t-46 16q-29 0 -53 -6l69 276q92 25 185 25z" />
    <glyph glyph-name="omicrontonos" unicode="&#x3cc;" horiz-adv-x="1265" 
d="M895 1155h-289l146 344h383zM682 1073q250 0 390 -130t140 -357q0 -69 -17.5 -140.5t-51.5 -141t-88 -130t-121.5 -107t-157.5 -73.5t-192 -27q-252 0 -391.5 130t-139.5 358q0 83 24.5 168.5t76.5 166.5t124.5 144t177.5 101t226 38zM672 780q-53 0 -96 -34t-67.5 -87
t-37 -108.5t-12.5 -106.5q0 -184 133 -184q55 0 98 34t67 87t36 108.5t12 106.5q0 184 -133 184z" />
    <glyph glyph-name="upsilontonos" unicode="&#x3cd;" horiz-adv-x="1275" 
d="M883 1155h-289l145 344h383zM330 1061q139 0 207.5 -57t68.5 -191q0 -60 -22 -156l-60 -235q-8 -36 -8 -70q0 -90 90 -90q67 0 119 67.5t80 169t41.5 200.5t13.5 182q0 70 -14 159h379q14 -80 14 -180q0 -132 -19.5 -252.5t-68 -240t-122.5 -206t-192 -140.5t-268 -54
q-222 0 -335 87t-113 274q0 60 18 137l37 145q14 65 14 86q0 38 -15 54t-46 16q-29 0 -53 -6l69 276q92 25 185 25z" />
    <glyph glyph-name="omegatonos" unicode="&#x3ce;" horiz-adv-x="1787" 
d="M1196 1155h-289l146 344h383zM1280 1040h406q43 -139 43 -303q0 -111 -18 -216t-60.5 -207t-106.5 -177t-163.5 -121.5t-223.5 -46.5q-278 0 -323 217h-5q-114 -217 -397 -217q-381 0 -381 350q0 149 74 352t194 369h426q-122 -152 -201 -344.5t-79 -314.5
q0 -121 84 -121q86 0 115 123l104 420h393l-98 -393q-8 -33 -8 -66q0 -84 73 -84q53 0 94.5 54.5t62.5 137t31.5 160t10.5 142.5q0 153 -47 286z" />
    <glyph glyph-name="Iegravecy" unicode="&#x400;" 
d="M1128 1556h-284l-226 320h412zM1346 1120h-646l-55 -219h602l-84 -330h-600l-57 -233h657l-84 -338h-1067l363 1458h1055z" />
    <glyph glyph-name="Iocy" unicode="&#x401;" 
d="M838 1575h-332l72 289h333zM1323 1575h-334l74 289h332zM1346 1120h-646l-55 -219h602l-84 -330h-600l-57 -233h657l-84 -338h-1067l363 1458h1055z" />
    <glyph glyph-name="Djecy" unicode="&#x402;" horiz-adv-x="1710" 
d="M1440 1114h-434l-52 -213q120 47 260 47q215 0 328 -108.5t115 -296.5q0 -87 -22.5 -168t-70.5 -154.5t-118 -128.5t-172 -87t-225 -32q-116 0 -207 33l76 301q50 -16 116 -16q58 0 100.5 17t65 45.5t33 59.5t10.5 66q0 73 -46 111.5t-136 38.5q-99 0 -184 -39l-148 -590
h-410l279 1114h-434l86 344h1274z" />
    <glyph glyph-name="Gjecy" unicode="&#x403;" horiz-adv-x="1085" 
d="M940 1556h-313l227 320h442zM12 0l363 1458h928l-86 -344h-519l-276 -1114h-410z" />
    <glyph glyph-name="Ecy" unicode="&#x404;" horiz-adv-x="1523" 
d="M1544 897h-430q4 36 4 55q0 96 -50.5 150.5t-143.5 54.5q-113 0 -198.5 -74t-139.5 -194h430l-80 -318h-416q5 -125 63.5 -197.5t164.5 -72.5q91 0 167.5 56t112.5 153h436q-84 -258 -283 -400.5t-472 -142.5q-287 0 -446 158.5t-159 435.5q0 104 23 210.5t68 211.5
t117.5 196t165 161t217.5 110.5t268 40.5q271 0 429 -134.5t158 -371.5q0 -57 -6 -88z" />
    <glyph glyph-name="Dzecy" unicode="&#x405;" horiz-adv-x="1353" 
d="M856 1491q262 0 401.5 -95.5t139.5 -281.5q0 -50 -11 -98h-430q5 35 5 41q0 61 -41 93t-119 32q-82 0 -128 -36.5t-46 -84.5q0 -55 47.5 -86t177.5 -72q55 -18 94 -32t86 -36t79.5 -44t65 -53.5t52 -67t31.5 -83t12 -102.5q0 -73 -24.5 -144.5t-78.5 -139.5t-131 -119.5
t-191.5 -83t-250.5 -31.5q-275 0 -426.5 105t-151.5 297q0 44 13 104h442q-6 -30 -6 -53q0 -133 178 -133q88 0 138.5 39t50.5 92q0 60 -46 90t-172 74q-57 20 -93 33.5t-84.5 36t-78.5 43t-63.5 51.5t-52 65t-31 79.5t-12.5 98.5q0 70 24 139.5t77 135t128 116t185.5 81
t240.5 30.5z" />
    <glyph glyph-name="Icy" unicode="&#x406;" horiz-adv-x="692" 
d="M422 0h-410l363 1458h409z" />
    <glyph glyph-name="Yicy" unicode="&#x407;" horiz-adv-x="692" 
d="M530 1575h-331l71 289h334zM1016 1575h-334l74 289h331zM422 0h-410l363 1458h409z" />
    <glyph glyph-name="Jecy" unicode="&#x408;" horiz-adv-x="876" 
d="M979 1458l-244 -975q-66 -259 -220 -381t-413 -122q-102 0 -198 28l80 328q50 -8 84 -8q123 0 187 62.5t105 230.5l209 837h410z" />
    <glyph glyph-name="Ljecy" unicode="&#x409;" horiz-adv-x="2230" 
d="M1522 997h104q279 0 417 -117.5t138 -330.5q0 -76 -21.5 -151t-71 -147.5t-121 -127.5t-181.5 -89t-244 -34h-678l279 1116h-307q-69 -239 -131 -415.5t-125 -302.5t-122 -206.5t-129 -126.5t-138.5 -63.5t-157.5 -17.5q-78 0 -139 22l79 322q16 -4 35 -4q44 0 78.5 16
t73 62t75 123.5t83.5 206.5t99.5 303.5t121.5 422.5h1097zM1442 676l-88 -354h176q117 0 173 56t56 134q0 164 -188 164h-129z" />
    <glyph glyph-name="Njecy" unicode="&#x40a;" horiz-adv-x="2263" 
d="M1556 997h105q277 0 415 -117.5t138 -330.5q0 -76 -21.5 -151t-70.5 -147.5t-121 -127.5t-181.5 -89t-242.5 -34h-678l143 578h-477l-143 -578h-410l363 1458h409l-133 -536h477l134 536h409zM1389 322h176q117 0 173 56t56 134q0 164 -188 164h-129z" />
    <glyph glyph-name="Tshecy" unicode="&#x40b;" horiz-adv-x="1714" 
d="M1440 1114h-434l-60 -240q127 29 254 29q217 0 327.5 -97.5t110.5 -285.5q0 -55 -26 -168l-86 -352h-410l84 336q8 33 8 65q0 158 -174 158q-89 0 -172 -27l-133 -532h-410l279 1114h-434l86 344h1274z" />
    <glyph glyph-name="Kjecy" unicode="&#x40c;" horiz-adv-x="1466" 
d="M1087 1556h-313l227 320h443zM981 748l350 -748h-473l-262 690h-4l-170 -690h-410l363 1458h409l-143 -579h4l485 579h533z" />
    <glyph glyph-name="Iigravecy" unicode="&#x40d;" horiz-adv-x="1708" 
d="M1331 1556h-284l-226 320h412zM1438 0h-391l131 528q72 293 165 596h-4q-257 -435 -340 -565l-356 -559h-633l365 1458h391l-133 -528q-63 -266 -164 -596h4q227 391 338 565l358 559h633z" />
    <glyph glyph-name="Ushortcy" unicode="&#x40e;" horiz-adv-x="1466" 
d="M1139 1876h262q-43 -154 -156.5 -238t-283.5 -84q-150 0 -229 65.5t-79 188.5q0 31 6 68h218q-3 -12 -3 -23q0 -81 109 -81q127 0 156 104zM1700 1458l-848 -1163q-127 -174 -258.5 -244.5t-286.5 -70.5q-123 0 -190 20l80 328q37 -11 77 -11q80 0 132.5 45.5t52.5 118.5
q0 36 -6.5 74.5t-32.5 142.5l-187 760h412l60 -364q37 -217 53 -355h4q102 175 219 357l238 362h481z" />
    <glyph glyph-name="Dzhecy" unicode="&#x40f;" horiz-adv-x="1558" 
d="M1288 0h-446l-82 -328h-393l82 328h-437l363 1458h411l-276 -1114h453l276 1114h412z" />
    <glyph glyph-name="Acy" unicode="&#x410;" horiz-adv-x="1497" 
d="M958 262h-493l-139 -262h-459l852 1458h526l127 -1458h-405zM948 584l-4 100q-9 243 -6 492h-4q-140 -295 -246 -492l-53 -100h313z" />
    <glyph glyph-name="Becy" unicode="&#x411;" horiz-adv-x="1404" 
d="M1395 1137h-703l-59 -228h174q242 0 375 -111.5t133 -310.5q0 -69 -21.5 -136.5t-68 -131t-113 -112t-163.5 -78t-212 -29.5h-725l363 1458h1100zM559 610l-78 -313h197q118 0 167.5 50t49.5 124q0 139 -180 139h-156z" />
    <glyph glyph-name="Vecy" unicode="&#x412;" horiz-adv-x="1386" 
d="M375 1458h590q233 0 349 -87t116 -241q0 -127 -78 -233.5t-250 -155.5v-4q198 -53 198 -274q0 -65 -22.5 -128.5t-71.5 -124.5t-119.5 -107.5t-176 -74.5t-230.5 -28h-668zM696 1157l-69 -276h172q119 0 169 45t50 114q0 117 -168 117h-154zM555 594l-72 -291h181
q223 0 223 168q0 65 -43.5 94t-138.5 29h-150z" />
    <glyph glyph-name="Gecy" unicode="&#x413;" horiz-adv-x="1085" 
d="M12 0l363 1458h928l-86 -344h-519l-276 -1114h-410z" />
    <glyph glyph-name="Decy" unicode="&#x414;" horiz-adv-x="1681" 
d="M1444 344h176l-168 -672h-393l82 328h-854l-82 -328h-393l165 672h185q90 128 182 372t225 742h1153zM1227 1116h-359q-139 -491 -288 -772h456z" />
    <glyph glyph-name="Iecy" unicode="&#x415;" 
d="M1346 1120h-646l-55 -219h602l-84 -330h-600l-57 -233h657l-84 -338h-1067l363 1458h1055z" />
    <glyph glyph-name="Zhecy" unicode="&#x416;" horiz-adv-x="2023" 
d="M1638 737l250 -737h-458l-162 719h-4l-181 -719h-401l168 676h-4l-465 -676h-504l631 780l-250 678h451l165 -667h5l165 667h402l-154 -622h4l443 622h493z" />
    <glyph glyph-name="Zecy" unicode="&#x417;" horiz-adv-x="1370" 
d="M860 1489q267 0 415 -103t148 -284q0 -267 -350 -371v-6q205 -77 205 -283q0 -68 -25 -135t-78.5 -129t-129.5 -109.5t-186.5 -75.5t-240.5 -28q-296 0 -450 106t-154 308q0 57 15 115h436q-8 -36 -8 -68q0 -137 182 -137q105 0 161 50.5t56 109.5q0 129 -213 129h-65
l77 309h72q126 0 196 47t70 119q0 56 -42.5 86t-121.5 30q-90 0 -149 -50.5t-82 -145.5h-430q56 242 238.5 379t453.5 137z" />
    <glyph glyph-name="Iicy" unicode="&#x418;" horiz-adv-x="1708" 
d="M1438 0h-391l131 528q72 293 165 596h-4q-257 -435 -340 -565l-356 -559h-633l365 1458h391l-133 -528q-63 -266 -164 -596h4q227 391 338 565l358 559h633z" />
    <glyph glyph-name="Iishortcy" unicode="&#x419;" horiz-adv-x="1708" 
d="M1303 1876h262q-43 -154 -157 -238t-284 -84q-150 0 -228.5 65.5t-78.5 188.5q0 31 6 68h217q-2 -8 -2 -23q0 -81 109 -81q127 0 156 104zM1438 0h-391l131 528q72 293 165 596h-4q-257 -435 -340 -565l-356 -559h-633l365 1458h391l-133 -528q-63 -266 -164 -596h4
q227 391 338 565l358 559h633z" />
    <glyph glyph-name="Kacy" unicode="&#x41a;" horiz-adv-x="1466" 
d="M981 748l350 -748h-473l-262 690h-4l-170 -690h-410l363 1458h409l-143 -579h4l485 579h533z" />
    <glyph glyph-name="Elcy" unicode="&#x41b;" horiz-adv-x="1544" 
d="M1274 0h-410l279 1116h-307q-69 -239 -131 -415.5t-125 -302.5t-122 -206.5t-129 -126.5t-138.5 -63.5t-157.5 -17.5q-78 0 -139 22l79 322q16 -4 35 -4q44 0 78.5 16t73 62t75 123.5t83.5 206.5t99.5 303.5t121.5 422.5h1097z" />
    <glyph glyph-name="Emcy" unicode="&#x41c;" horiz-adv-x="2134" 
d="M1864 0h-381l174 698q80 318 145 535h-4q-130 -284 -254 -528l-358 -705h-496l-6 705q-3 283 8 528h-4q-66 -317 -121 -535l-174 -698h-381l363 1458h633l6 -627q0 -284 -17 -536h4q104 271 236 536l319 627h670z" />
    <glyph glyph-name="Ency" unicode="&#x41d;" horiz-adv-x="1579" 
d="M1309 0h-410l143 578h-477l-143 -578h-410l363 1458h409l-133 -536h477l134 536h409z" />
    <glyph glyph-name="Ocy" unicode="&#x41e;" horiz-adv-x="1568" 
d="M942 1491q291 0 454 -172.5t163 -472.5q0 -118 -32.5 -239.5t-101.5 -236.5t-164.5 -204.5t-233 -144t-296.5 -54.5q-291 0 -453.5 173.5t-162.5 475.5q0 118 32.5 239t101 235.5t164.5 203.5t233 143t296 54zM913 1143q-92 0 -167.5 -53.5t-119.5 -136t-67.5 -172
t-23.5 -171.5q0 -143 57.5 -219t167.5 -76q75 0 139 36t107 93t74 128.5t45 142.5t14 135q0 143 -58 218t-168 75z" />
    <glyph glyph-name="Pecy" unicode="&#x41f;" horiz-adv-x="1558" 
d="M1288 0h-409l278 1114h-459l-276 -1114h-410l363 1458h1276z" />
    <glyph glyph-name="Ercy" unicode="&#x420;" horiz-adv-x="1378" 
d="M375 1458h514q279 0 416 -116.5t137 -331.5q0 -76 -21 -150.5t-70 -147t-120.5 -128t-181 -89.5t-242.5 -34h-270l-115 -461h-410zM705 1137l-89 -355h179q116 0 172.5 57.5t56.5 135.5q0 162 -188 162h-131z" />
    <glyph glyph-name="Escy" unicode="&#x421;" horiz-adv-x="1492" 
d="M946 1491q263 0 416.5 -136.5t153.5 -379.5q0 -36 -7 -90h-430q4 36 4 57q0 95 -46.5 148t-133.5 53q-71 0 -133 -36t-105 -94t-74 -131t-46 -147.5t-15 -142.5q0 -127 52 -202t151 -75q86 0 159.5 56t108.5 151h435q-81 -263 -278 -409t-466 -146q-280 0 -435 158
t-155 436q0 89 16 180t50 182.5t83 174.5t119.5 155t154.5 125t192 83t229 30z" />
    <glyph glyph-name="Tecy" unicode="&#x422;" horiz-adv-x="1306" 
d="M1440 1114h-434l-277 -1114h-410l279 1114h-434l86 344h1274z" />
    <glyph glyph-name="Ucy" unicode="&#x423;" horiz-adv-x="1466" 
d="M1700 1458l-848 -1163q-127 -174 -258.5 -244.5t-286.5 -70.5q-123 0 -190 20l80 328q37 -11 77 -11q80 0 132.5 45.5t52.5 118.5q0 36 -6.5 74.5t-32.5 142.5l-187 760h412l60 -364q37 -217 53 -355h4q102 175 219 357l238 362h481z" />
    <glyph glyph-name="Efcy" unicode="&#x424;" horiz-adv-x="1839" 
d="M1823 799q0 -100 -28 -196t-91 -187t-155 -160.5t-231 -113.5t-308 -48l-37 -147h-393l41 159q-248 35 -375 176.5t-127 379.5q0 98 28 193.5t91 186.5t155 160.5t231.5 113.5t309.5 48l37 147h393l-39 -159q246 -35 372 -175.5t126 -377.5zM530 676q0 -212 181 -258
l157 631q-88 -11 -156 -49t-106 -91.5t-57 -112.5t-19 -120zM1231 1040l-158 -630q71 9 129 36t96.5 64.5t64.5 84.5t37 94t11 95q0 209 -180 256z" />
    <glyph glyph-name="Hacy" unicode="&#x425;" horiz-adv-x="1452" 
d="M1047 741l274 -741h-444l-132 475h-4l-350 -475h-520l649 770l-256 688h432l119 -454h4l328 454h508z" />
    <glyph glyph-name="Tsecy" unicode="&#x426;" horiz-adv-x="1615" 
d="M1374 344h174l-168 -672h-393l82 328h-1057l363 1458h411l-276 -1114h453l276 1114h412z" />
    <glyph glyph-name="Checy" unicode="&#x427;" horiz-adv-x="1462" 
d="M1192 0h-410l125 498q-134 -31 -282 -31q-231 0 -349 98t-118 285q0 71 26 170l109 438h409l-106 -422q-8 -33 -8 -65q0 -77 51.5 -118.5t151.5 -41.5q105 0 200 29l154 618h409z" />
    <glyph glyph-name="Shacy" unicode="&#x428;" horiz-adv-x="2168" 
d="M1898 0h-1886l363 1458h411l-276 -1114h326l276 1114h412l-277 -1114h326l276 1114h412z" />
    <glyph glyph-name="Shchacy" unicode="&#x429;" horiz-adv-x="2220" 
d="M1985 344h174l-168 -672h-394l82 328h-1667l363 1458h411l-276 -1114h326l276 1114h412l-277 -1114h326l276 1114h412z" />
    <glyph glyph-name="Hardsigncy" unicode="&#x42a;" horiz-adv-x="1622" 
d="M915 997h105q277 0 415 -117.5t138 -330.5q0 -76 -21.5 -151t-70.5 -147.5t-121 -127.5t-181.5 -89t-242.5 -34h-678l279 1114h-373l86 344h780zM836 676l-88 -354h176q117 0 173 56t56 134q0 164 -188 164h-129z" />
    <glyph glyph-name="Yerucy" unicode="&#x42b;" horiz-adv-x="2070" 
d="M670 997h104q277 0 415 -117.5t138 -330.5q0 -76 -21.5 -151t-70.5 -147.5t-121 -127.5t-181.5 -89t-242.5 -34h-678l363 1458h409zM1798 0h-409l362 1458h410zM590 676l-88 -354h176q117 0 173 56t56 134q0 164 -188 164h-129z" />
    <glyph glyph-name="Softsigncy" unicode="&#x42c;" horiz-adv-x="1376" 
d="M670 997h104q277 0 415 -117.5t138 -330.5q0 -76 -21.5 -151t-70.5 -147.5t-121 -127.5t-181.5 -89t-242.5 -34h-678l363 1458h409zM590 676l-88 -354h176q117 0 173 56t56 134q0 164 -188 164h-129z" />
    <glyph glyph-name="Ereversedcy" unicode="&#x42d;" horiz-adv-x="1519" 
d="M915 1491q288 0 447.5 -158.5t159.5 -435.5q0 -89 -16.5 -180t-51 -182.5t-84.5 -174.5t-122 -155t-157.5 -125t-195.5 -83t-233 -30q-272 0 -432 134.5t-160 371.5q0 41 6 88h430q-4 -36 -4 -55q0 -96 52 -150.5t148 -54.5q112 0 198 75t140 195h-426l80 318h410
q-5 124 -62 196t-163 72q-90 0 -166.5 -56t-114.5 -153h-434q84 259 282 401t469 142z" />
    <glyph glyph-name="Iucy" unicode="&#x42e;" horiz-adv-x="2199" 
d="M1606 1491q276 0 429.5 -169.5t153.5 -465.5q0 -119 -32 -242t-99.5 -239t-160.5 -207t-226.5 -146t-286.5 -55q-266 0 -418.5 157t-164.5 433h-240l-139 -557h-410l363 1458h409l-139 -557h203q39 119 105.5 222.5t159.5 187t220.5 132t272.5 48.5zM1417 315
q70 0 130 36.5t100 94.5t68 130.5t41 143.5t13 136q0 140 -50 213.5t-148 73.5q-86 0 -156 -54.5t-110.5 -138.5t-62 -174.5t-21.5 -173.5q0 -139 50 -213t146 -74z" />
    <glyph glyph-name="Iacy" unicode="&#x42f;" horiz-adv-x="1427" 
d="M1518 1458l-363 -1458h-407l120 489h-145q-35 0 -70 3l-334 -492h-452l442 610q-121 109 -121 316q0 79 20.5 153t68 144t118 121.5t178.5 82.5t242 31h703zM1034 1151h-225q-116 0 -171.5 -60.5t-55.5 -146.5q0 -158 194 -158h166z" />
    <glyph glyph-name="acy" unicode="&#x430;" horiz-adv-x="1179" 
d="M664 1073q452 0 452 -338q0 -63 -18 -137l-72 -295q-48 -200 -43 -303h-352q-3 53 12 115h-4q-153 -144 -346 -144q-150 0 -231.5 78t-81.5 207q0 51 14 97t50 92t92 82t145 65.5t204 44.5q123 19 250 27l6 18q7 35 7 55q0 107 -105 107q-112 0 -139 -133h-377
q35 156 173.5 259t363.5 103zM674 410l14 57q-98 -9 -166 -23q-147 -32 -147 -137q0 -43 25.5 -67.5t74.5 -24.5q76 0 126 52t73 143z" />
    <glyph glyph-name="becy" unicode="&#x431;" horiz-adv-x="1255" 
d="M1378 1491l-78 -309q-114 -30 -342 -37q-121 -3 -205 -20t-141.5 -52t-93 -80.5t-65.5 -115.5h4q117 124 325 124q196 0 307 -111t111 -308q0 -80 -25.5 -164t-80 -165t-130.5 -144.5t-185.5 -102.5t-235.5 -39q-235 0 -356 120t-121 357q0 104 30 230
q43 173 102.5 300.5t133 214t170.5 141t205 80.5t247 34q276 14 424 47zM666 739q-45 0 -82 -24t-61 -61t-41 -84t-24 -90t-7 -81q0 -151 118 -151q54 0 98 35.5t69 88.5t38.5 108.5t13.5 103.5q0 155 -122 155z" />
    <glyph glyph-name="vecy" unicode="&#x432;" horiz-adv-x="1204" 
d="M240 1040h542q383 0 383 -241q0 -215 -247 -275v-4q81 -17 125 -71t44 -136q0 -59 -27.5 -112.5t-83 -99.5t-151 -73.5t-219.5 -27.5h-624zM557 815l-47 -186h137q75 0 107 29.5t32 72.5q0 84 -122 84h-107zM459 424l-47 -199h139q79 0 115 31.5t36 75.5q0 92 -135 92
h-108z" />
    <glyph glyph-name="gecy" unicode="&#x433;" horiz-adv-x="946" 
d="M991 760h-428l-188 -760h-393l258 1040h821z" />
    <glyph glyph-name="decy" unicode="&#x434;" horiz-adv-x="1427" 
d="M1214 281h138l-152 -609h-387l82 328h-621l-81 -328h-388l152 609h119q76 90 147 252.5t174 506.5h1006zM946 760h-254q-96 -303 -188 -479h323z" />
    <glyph glyph-name="iecy" unicode="&#x435;" horiz-adv-x="1216" 
d="M1147 440h-727q-6 -41 -6 -69q0 -150 135 -150q54 0 95.5 28t55.5 73h400q-63 -154 -214 -254.5t-335 -100.5q-246 0 -373 130.5t-127 351.5q0 82 24 167.5t75 167.5t122.5 146.5t175 103.5t224.5 39q239 0 367 -123t128 -338q0 -66 -20 -172zM670 827q-135 0 -199 -180
h328q4 28 4 41q0 139 -133 139z" />
    <glyph glyph-name="zhecy" unicode="&#x436;" horiz-adv-x="1697" 
d="M1384 535l207 -535h-436l-111 522h-4l-131 -522h-379l119 479h-4l-317 -479h-480l480 565l-189 475h420l111 -465h4l114 465h379l-102 -419h4l287 419h461z" />
    <glyph glyph-name="zecy" unicode="&#x437;" horiz-adv-x="1124" 
d="M657 1073q211 0 328 -77t117 -212q0 -87 -63 -154.5t-199 -105.5v-4q168 -60 168 -205q0 -63 -32.5 -123.5t-94 -111.5t-163 -82t-226.5 -31q-244 0 -371 80t-127 232q0 43 10 77h361q-3 -21 -3 -39q0 -94 140 -94q71 0 108 32.5t37 74.5q0 84 -145 84h-78l55 223h84
q82 0 125 29t43 71q0 35 -27.5 54.5t-80.5 19.5q-125 0 -164 -119h-353q40 179 185 280t366 101z" />
    <glyph glyph-name="iicy" unicode="&#x438;" horiz-adv-x="1452" 
d="M1212 0h-372l86 352q54 207 127 412h-4q-133 -248 -220 -381l-258 -383h-589l258 1040h372l-86 -350q-55 -215 -129 -414h4q133 249 222 381l256 383h591z" />
    <glyph glyph-name="iishortcy" unicode="&#x439;" horiz-adv-x="1452" 
d="M1069 1458h262q-43 -154 -156.5 -237.5t-283.5 -83.5q-150 0 -228.5 65.5t-78.5 188.5q0 29 6 67h217q-2 -8 -2 -22q0 -82 108 -82q127 0 156 104zM1212 0h-372l86 352q54 207 127 412h-4q-133 -248 -220 -381l-258 -383h-589l258 1040h372l-86 -350q-55 -215 -129 -414
h4q133 249 222 381l256 383h591z" />
    <glyph glyph-name="kacy" unicode="&#x43a;" horiz-adv-x="1218" 
d="M842 518l250 -518h-435l-159 479h-4l-119 -479h-393l258 1040h393l-92 -372h4l284 372h498z" />
    <glyph glyph-name="elcy" unicode="&#x43b;" horiz-adv-x="1259" 
d="M1020 0h-393l188 760h-186q-54 -194 -108 -331.5t-108 -224t-119 -135.5t-129 -67t-149 -18q-81 0 -131 20l68 270q16 -4 39 -4q66 0 115 54.5t111.5 222t148.5 493.5h911z" />
    <glyph glyph-name="emcy" unicode="&#x43c;" horiz-adv-x="1763" 
d="M1524 0h-344l110 449q33 130 101 364h-5q-74 -167 -172 -360l-229 -453h-465l-6 453q0 196 8 360h-4q-45 -219 -80 -364l-112 -449h-344l258 1040h571l4 -419q3 -213 -10 -381h4q59 188 156 381l215 419h602z" />
    <glyph glyph-name="ency" unicode="&#x43d;" horiz-adv-x="1290" 
d="M1051 0h-394l97 387h-283l-96 -387h-393l258 1040h393l-92 -370h282l92 370h394z" />
    <glyph glyph-name="ocy" unicode="&#x43e;" horiz-adv-x="1265" 
d="M682 1073q250 0 390 -130t140 -357q0 -69 -17.5 -140.5t-51.5 -141t-88 -130t-121.5 -107t-157.5 -73.5t-192 -27q-252 0 -391.5 130t-139.5 358q0 83 24.5 168.5t76.5 166.5t124.5 144t177.5 101t226 38zM672 780q-53 0 -96 -34t-67.5 -87t-37 -108.5t-12.5 -106.5
q0 -184 133 -184q55 0 98 34t67 87t36 108.5t12 106.5q0 184 -133 184z" />
    <glyph glyph-name="pecy" unicode="&#x43f;" horiz-adv-x="1280" 
d="M1040 0h-393l189 760h-273l-188 -760h-393l258 1040h1058z" />
    <glyph glyph-name="ercy" unicode="&#x440;" horiz-adv-x="1273" 
d="M883 1071q169 0 260.5 -109.5t91.5 -306.5q0 -90 -24 -184.5t-73 -184.5t-116.5 -160.5t-163.5 -113.5t-205 -43q-83 0 -148.5 36t-98.5 104h-5l-120 -488h-394l353 1419h376l-20 -84h4q60 56 134.5 85.5t148.5 29.5zM696 774q-50 0 -93 -32.5t-70 -83t-42.5 -108
t-15.5 -110.5q0 -82 31.5 -128t89.5 -46q66 0 119 56.5t78.5 132t25.5 147.5q0 82 -31.5 127t-91.5 45z" />
    <glyph glyph-name="escy" unicode="&#x441;" horiz-adv-x="1206" 
d="M705 1073q225 0 353 -108t128 -295q0 -40 -4 -60h-408q4 24 4 39q0 64 -27 97.5t-75 33.5q-53 0 -97 -37t-69.5 -93t-39 -113t-13.5 -105q0 -172 112 -172q55 0 98.5 39t65.5 109h406q-63 -205 -224 -323t-374 -118q-231 0 -361.5 126.5t-130.5 348.5q0 85 26 172.5
t80.5 170t130.5 146.5t185 103t234 39z" />
    <glyph glyph-name="tecy" unicode="&#x442;" horiz-adv-x="1024" 
d="M1077 760h-309l-188 -760h-394l189 760h-309l69 280h1012z" />
    <glyph glyph-name="ucy" unicode="&#x443;" horiz-adv-x="1140" 
d="M1288 1040l-573 -1003q-139 -245 -273 -337.5t-338 -92.5q-108 0 -196 20l72 283q43 -12 94 -12q76 0 116.5 38.5t40.5 102.5q0 55 -18 174l-109 827h390l12 -346q10 -238 2 -432h4q81 213 180 434l158 344h438z" />
    <glyph glyph-name="efcy" unicode="&#x444;" horiz-adv-x="1767" 
d="M1401 1071q157 0 243.5 -106.5t86.5 -296.5q0 -74 -16.5 -153t-48 -157.5t-81 -148.5t-110.5 -123.5t-141 -85t-169 -31.5q-133 0 -204 92l-109 -440h-383l102 416q-95 -68 -202 -68q-159 0 -245.5 107t-86.5 297q0 89 23 184.5t70.5 187t112.5 164.5t158 117.5t199 44.5
q138 0 205 -98l121 485h383l-111 -448q94 61 203 61zM559 260q36 0 76 29l110 442q-25 49 -86 49q-51 0 -93.5 -36.5t-68 -90.5t-39.5 -111.5t-14 -105.5q0 -84 29.5 -130t85.5 -46zM1106 260q51 0 94 36t68.5 90.5t39 111.5t13.5 106q0 84 -29 130t-84 46q-38 0 -73 -24
l-113 -451q19 -45 84 -45z" />
    <glyph glyph-name="hacy" unicode="&#x445;" horiz-adv-x="1148" 
d="M815 520l217 -520h-409l-82 301h-4l-205 -301h-473l481 547l-201 493h412l63 -274h4l179 274h471z" />
    <glyph glyph-name="tsecy" unicode="&#x446;" horiz-adv-x="1314" 
d="M1102 281h137l-152 -609h-393l82 328h-794l258 1040h393l-189 -759h265l188 759h393z" />
    <glyph glyph-name="checy" unicode="&#x447;" horiz-adv-x="1218" 
d="M963 0h-394l84 336q-108 -23 -219 -23q-174 0 -263 78t-89 227q0 38 18 115l76 307h393l-73 -297q-7 -28 -7 -45q0 -102 119 -102q55 0 113 14l106 430h394z" />
    <glyph glyph-name="shacy" unicode="&#x448;" horiz-adv-x="1847" 
d="M1608 0h-1626l258 1040h393l-189 -759h224l188 759h393l-188 -759h223l189 759h393z" />
    <glyph glyph-name="shchacy" unicode="&#x449;" horiz-adv-x="1890" 
d="M1677 281h138l-152 -609h-393l82 328h-1370l258 1040h393l-189 -759h224l188 759h393l-188 -759h223l189 759h393z" />
    <glyph glyph-name="hardsigncy" unicode="&#x44a;" horiz-adv-x="1380" 
d="M715 743h121q454 0 454 -329q0 -62 -17.5 -120t-58 -112t-100 -94t-150 -64t-202.5 -24h-625l189 760h-260l69 280h653zM594 258h158q74 0 108.5 39t34.5 90q0 98 -121 98h-123z" />
    <glyph glyph-name="yerucy" unicode="&#x44b;" horiz-adv-x="1792" 
d="M559 743h121q455 0 455 -329q0 -62 -18 -120t-58.5 -112t-100.5 -94t-150.5 -64t-201.5 -24h-624l258 1040h393zM1552 0h-393l258 1040h393zM496 485l-58 -227h156q76 0 110.5 39t34.5 90q0 98 -121 98h-122z" />
    <glyph glyph-name="softsigncy" unicode="&#x44c;" horiz-adv-x="1222" 
d="M559 743h121q455 0 455 -329q0 -62 -18 -120t-58.5 -112t-100.5 -94t-150.5 -64t-201.5 -24h-624l258 1040h393zM496 485l-58 -227h156q76 0 110.5 39t34.5 90q0 98 -121 98h-122z" />
    <glyph glyph-name="ereversedcy" unicode="&#x44d;" horiz-adv-x="1206" 
d="M666 1073q231 0 360 -126.5t129 -348.5q0 -85 -25.5 -172.5t-80 -170t-129.5 -146.5t-184 -103t-234 -39q-227 0 -357.5 104t-130.5 283q0 36 4 54h373q-4 -20 -4 -33q0 -71 36 -108.5t97 -37.5q76 0 132 54.5t91 138.5h-297l56 217h282q-12 170 -149 170
q-63 0 -116 -40.5t-77 -113.5h-370q63 194 222.5 306t371.5 112z" />
    <glyph glyph-name="iucy" unicode="&#x44e;" horiz-adv-x="1816" 
d="M1245 1073q246 0 383 -128.5t137 -354.5q0 -84 -24 -170t-75.5 -167.5t-123 -145t-174.5 -102t-223 -38.5q-225 0 -359.5 110.5t-154.5 305.5h-162l-94 -383h-393l258 1040h393l-92 -374h125q30 83 81 154t122 129t168 91t208 33zM1157 260q51 0 91.5 34.5t63 88
t34.5 109.5t12 106q0 182 -125 182q-50 0 -90.5 -34.5t-63.5 -88t-35 -109.5t-12 -106q0 -182 125 -182z" />
    <glyph glyph-name="iacy" unicode="&#x44f;" horiz-adv-x="1232" 
d="M1251 1040l-258 -1040h-391l76 305h-115h-37l-213 -305h-442l326 416q-91 85 -91 241q0 60 16 114t53.5 104t94 86t142.5 57.5t194 21.5h645zM797 780h-138q-92 0 -134 -35t-42 -86q0 -102 158 -102h100z" />
    <glyph glyph-name="iegravecy" unicode="&#x450;" horiz-adv-x="1216" 
d="M657 1151l-229 307h412l102 -307h-285zM1147 440h-727q-6 -41 -6 -69q0 -150 135 -150q54 0 95.5 28t55.5 73h400q-63 -154 -214 -254.5t-335 -100.5q-246 0 -373 130.5t-127 351.5q0 82 24 167.5t75 167.5t122.5 146.5t175 103.5t224.5 39q239 0 367 -123t128 -338
q0 -66 -20 -172zM670 827q-135 0 -199 -180h328q4 28 4 41q0 139 -133 139z" />
    <glyph glyph-name="iocy" unicode="&#x451;" horiz-adv-x="1216" 
d="M651 1169h-332l72 289h334zM1137 1169h-334l74 289h331zM672 1073q239 0 367 -123t128 -338q0 -66 -20 -172h-727q-6 -41 -6 -69q0 -150 135 -150q54 0 95.5 28t55.5 73h400q-63 -154 -214 -254.5t-335 -100.5q-246 0 -373 130.5t-127 351.5q0 82 24 167.5t75 167.5
t122.5 146.5t175 103.5t224.5 39zM670 827q-135 0 -199 -180h328q4 28 4 41q0 139 -133 139z" />
    <glyph glyph-name="djecy" unicode="&#x452;" horiz-adv-x="1269" 
d="M864 954q152 0 236 -79t84 -230q0 -68 -21 -151l-127 -510q-49 -189 -174.5 -282t-296.5 -93q-126 0 -215 29l68 262q20 -4 35 -4q89 0 140 47t81 170l92 368q12 47 12 82q0 88 -94 88q-145 0 -207 -243l-102 -408h-393l270 1085h-141l55 224h141l37 149h393l-37 -149
h445l-55 -224h-445l-59 -233h4q123 102 274 102z" />
    <glyph glyph-name="gjecy" unicode="&#x453;" horiz-adv-x="946" 
d="M762 1151h-313l223 307h442zM991 760h-428l-188 -760h-393l258 1040h821z" />
    <glyph glyph-name="ecy" unicode="&#x454;" horiz-adv-x="1206" 
d="M1186 633h-371q4 20 4 33q0 70 -35.5 107.5t-97.5 37.5q-70 0 -125 -47.5t-92 -124.5h295l-55 -217h-289q1 -95 40 -143t109 -48q65 0 117.5 40.5t75.5 113.5h371q-61 -194 -221 -306t-371 -112q-231 0 -361.5 126.5t-130.5 348.5q0 85 26 172.5t80.5 170t130.5 146.5
t185 103t234 39q227 0 357 -104t130 -283q0 -26 -6 -53z" />
    <glyph glyph-name="dzecy" unicode="&#x455;" horiz-adv-x="1144" 
d="M672 1073q210 0 325 -72t115 -215q0 -30 -8 -57h-371q4 24 4 37q0 78 -102 78q-54 0 -78.5 -21.5t-24.5 -50.5q0 -35 34 -58t132 -57q45 -16 70 -25.5t66 -28t65 -34.5t53.5 -41.5t45.5 -52.5t27 -64t11 -79q0 -69 -34 -133t-100 -116.5t-174 -84t-243 -31.5
q-485 0 -485 303q0 39 10 68h391q-6 -21 -6 -41q0 -88 121 -88q58 0 89.5 22t31.5 58q0 41 -40 64.5t-161 64.5q-46 15 -75 25.5t-68.5 28.5t-63.5 39t-47 50t-34 68.5t-11 87.5q0 55 19.5 105.5t62.5 96.5t104.5 80t151 54t197.5 20z" />
    <glyph glyph-name="icy" unicode="&#x456;" horiz-adv-x="614" 
d="M666 1169h-394l72 289h393zM375 0h-393l258 1040h393z" />
    <glyph glyph-name="yicy" unicode="&#x457;" horiz-adv-x="614" 
d="M420 1169h-291l72 289h293zM807 1169h-293l74 289h291zM375 0h-393l258 1040h393z" />
    <glyph glyph-name="jecy" unicode="&#x458;" horiz-adv-x="614" 
d="M666 1169h-394l72 289h393zM633 1040l-262 -1056q-49 -189 -174.5 -282t-296.5 -93q-126 0 -215 29l67 262q20 -4 35 -4q89 0 140 47t81 170l232 927h393z" />
    <glyph glyph-name="ljecy" unicode="&#x459;" horiz-adv-x="1867" 
d="M1202 743h123q220 0 337.5 -81t117.5 -248q0 -62 -18 -120t-58.5 -112t-100.5 -94t-151 -64t-203 -24h-622l188 760h-186q-54 -194 -108 -331.5t-108 -224t-119 -135.5t-129 -67t-149 -18q-81 0 -131 20l68 270q16 -4 39 -4q66 0 115 54.5t111.5 222t148.5 493.5h911z
M1139 485l-56 -227h156q76 0 110.5 39t34.5 90q0 98 -120 98h-125z" />
    <glyph glyph-name="njecy" unicode="&#x45a;" horiz-adv-x="1892" 
d="M1229 743h121q454 0 454 -329q0 -79 -29.5 -150t-90 -131.5t-165.5 -96.5t-243 -36h-625l97 387h-277l-96 -387h-393l258 1040h393l-92 -370h276l92 370h394zM1165 485l-57 -227h156q76 0 110.5 39t34.5 90q0 98 -121 98h-123z" />
    <glyph glyph-name="tshecy" unicode="&#x45b;" horiz-adv-x="1269" 
d="M864 954q152 0 236 -79t84 -230q0 -68 -21 -151l-123 -494h-393l119 481q12 47 12 82q0 88 -94 88q-145 0 -207 -243l-102 -408h-393l270 1085h-141l55 224h141l37 149h393l-37 -149h445l-55 -224h-445l-59 -233h4q123 102 274 102z" />
    <glyph glyph-name="kjecy" unicode="&#x45c;" horiz-adv-x="1218" 
d="M850 1151h-313l223 307h442zM842 518l250 -518h-435l-159 479h-4l-119 -479h-393l258 1040h393l-92 -372h4l284 372h498z" />
    <glyph glyph-name="iigravecy" unicode="&#x45d;" horiz-adv-x="1452" 
d="M999 1458l103 -307h-285l-229 307h411zM1212 0h-372l86 352q54 207 127 412h-4q-133 -248 -220 -381l-258 -383h-589l258 1040h372l-86 -350q-55 -215 -129 -414h4q133 249 222 381l256 383h591z" />
    <glyph glyph-name="ushortcy" unicode="&#x45e;" horiz-adv-x="1140" 
d="M879 1458h262q-43 -154 -157 -237.5t-284 -83.5q-150 0 -228.5 65.5t-78.5 188.5q0 29 6 67h217q-2 -8 -2 -22q0 -82 109 -82q127 0 156 104zM1288 1040l-573 -1003q-139 -245 -273 -337.5t-338 -92.5q-108 0 -196 20l72 283q43 -12 94 -12q76 0 116.5 38.5t40.5 102.5
q0 55 -18 174l-109 827h390l12 -346q10 -238 2 -432h4q81 213 180 434l158 344h438z" />
    <glyph glyph-name="dzhecy" unicode="&#x45f;" horiz-adv-x="1280" 
d="M1040 0h-335l-82 -328h-394l82 328h-329l258 1040h393l-189 -759h273l188 759h393z" />
    <glyph glyph-name="Gheupturncy" unicode="&#x490;" horiz-adv-x="1085" 
d="M1217 1114h-519l-276 -1114h-410l363 1458h534l66 264h393z" />
    <glyph glyph-name="gheupturncy" unicode="&#x491;" horiz-adv-x="946" 
d="M991 760h-428l-188 -760h-393l258 1040h462l82 328h359z" />
    <glyph glyph-name="Ghestrokecy" unicode="&#x492;" horiz-adv-x="1091" 
d="M707 1114l-91 -358h252l-63 -250h-250l-127 -506h-408l125 506h-122l61 250h125l174 702h926l-84 -344h-518z" />
    <glyph glyph-name="ghestrokecy" unicode="&#x493;" horiz-adv-x="964" 
d="M580 760l-52 -209h244l-53 -217h-246l-82 -334h-393l82 334h-105l54 217h106l121 489h821l-69 -280h-428z" />
    <glyph glyph-name="Zhedescendercy" unicode="&#x496;" horiz-adv-x="2023" 
d="M1972 344l-84 -344l-82 -328h-393l82 328h-65l-162 719h-4l-181 -719h-401l168 676h-4l-465 -676h-504l631 780l-250 678h451l165 -667h5l165 667h402l-154 -622h4l443 622h493l-594 -721l134 -393h200z" />
    <glyph glyph-name="zhedescendercy" unicode="&#x497;" horiz-adv-x="1697" 
d="M1661 281l-70 -281l-82 -328h-393l82 328h-43l-111 522h-4l-131 -522h-379l119 479h-4l-317 -479h-480l480 565l-189 475h420l111 -465h4l114 465h379l-102 -419h4l287 419h461l-433 -505l99 -254h178z" />
    <glyph glyph-name="Kadescendercy" unicode="&#x49a;" horiz-adv-x="1466" 
d="M1169 344h248l-168 -672h-393l82 328h-80l-262 690h-4l-170 -690h-410l363 1458h409l-143 -579h4l485 579h533l-682 -710z" />
    <glyph glyph-name="kadescendercy" unicode="&#x49b;" horiz-adv-x="1218" 
d="M956 281h211l-151 -609h-393l82 328h-48l-159 479h-4l-119 -479h-393l258 1040h393l-92 -372h4l284 372h498l-485 -522z" />
    <glyph glyph-name="Kaverticalstrokecy" unicode="&#x49c;" horiz-adv-x="1601" 
d="M1219 709l247 -709h-458l-138 578h-10l-74 -297h-211l74 297h-92l-143 -578h-402l363 1458h401l-133 -536h92l74 299h211l-74 -299h10l361 536h493z" />
    <glyph glyph-name="kaverticalstrokecy" unicode="&#x49d;" horiz-adv-x="1370" 
d="M1057 530l205 -530h-439l-88 410h-26l-52 -211h-178l51 211h-67l-103 -410h-378l258 1040h378l-86 -350h68l55 223h179l-56 -223h10l238 350h461z" />
    <glyph glyph-name="Endescendercy" unicode="&#x4a2;" horiz-adv-x="1636" 
d="M1401 -328h-393l82 328h-191l143 578h-477l-143 -578h-410l363 1458h409l-133 -536h477l134 536h409l-276 -1114h174z" />
    <glyph glyph-name="endescendercy" unicode="&#x4a3;" horiz-adv-x="1333" 
d="M1106 -328h-393l82 328h-138l97 387h-283l-96 -387h-393l258 1040h393l-92 -370h282l92 370h394l-189 -759h137z" />
    <glyph glyph-name="Ustraitcy" unicode="&#x4ae;" horiz-adv-x="1411" 
d="M913 532l-133 -532h-409l133 532l-271 926h410l51 -256q44 -221 58 -360h4q84 166 221 360l178 256h487z" />
    <glyph glyph-name="ustraitcy" unicode="&#x4af;" horiz-adv-x="1136" 
d="M111 1040h393l6 -307q0 -228 -10 -389h4q72 197 170 389l157 307h453l-657 -1077l-84 -342h-393l83 342z" />
    <glyph glyph-name="Hadescendercy" unicode="&#x4b2;" horiz-adv-x="1452" 
d="M1194 344h213l-168 -672h-393l82 328h-51l-132 475h-4l-350 -475h-520l649 770l-256 688h432l119 -454h4l328 454h508l-608 -717z" />
    <glyph glyph-name="hadescendercy" unicode="&#x4b3;" horiz-adv-x="1148" 
d="M1102 281l-70 -281l-82 -328h-393l82 328h-16l-82 301h-4l-205 -301h-473l481 547l-201 493h412l63 -274h4l179 274h471l-453 -520l100 -239h187z" />
    <glyph glyph-name="Cheverticalstrokecy" unicode="&#x4b8;" horiz-adv-x="1462" 
d="M1554 1458l-362 -1458h-410l125 498q-73 -17 -119 -21l-61 -246h-217l59 238q-202 10 -306.5 108t-104.5 273q0 71 26 170l109 438h409l-106 -422q-8 -33 -8 -65q0 -92 71 -133l82 329h220l-89 -352q55 8 119 25l154 618h409z" />
    <glyph glyph-name="cheverticalstrokecy" unicode="&#x4b9;" horiz-adv-x="1243" 
d="M1262 1040l-258 -1040h-379l86 346q-44 -10 -80 -18l-41 -166h-178l39 151q-182 3 -275.5 80.5t-93.5 224.5q0 38 18 115l76 307h379l-74 -299q-6 -27 -6 -47q0 -60 49 -84l64 252h178l-66 -258q52 7 78 14l105 422h379z" />
    <glyph glyph-name="Shhacy" unicode="&#x4ba;" horiz-adv-x="1462" 
d="M375 1458h409l-125 -497q130 30 283 30q232 0 349.5 -98t117.5 -285q0 -61 -25 -170l-110 -438h-408l105 422q8 33 8 65q0 77 -51.5 118.5t-151.5 41.5q-106 0 -201 -29l-153 -618h-410z" />
    <glyph glyph-name="shhacy" unicode="&#x4bb;" horiz-adv-x="1261" 
d="M614 967h4q123 102 269 102q151 0 234 -79t83 -230q0 -71 -20 -152l-152 -608h-393l147 596q13 50 13 82q0 88 -92 88q-141 0 -203 -244l-129 -522h-393l362 1458h393z" />
    <glyph glyph-name="Palochkacy" unicode="&#x4c0;" horiz-adv-x="692" 
d="M422 0h-410l363 1458h409z" />
    <glyph glyph-name="palochkacy" unicode="&#x4cf;" horiz-adv-x="614" 
d="M375 0h-393l362 1458h393z" />
    <glyph glyph-name="Schwacy" unicode="&#x4d8;" horiz-adv-x="1613" 
d="M961 1491q318 0 482.5 -168.5t164.5 -460.5q0 -98 -24.5 -200.5t-71 -202.5t-120.5 -189t-166 -156.5t-215.5 -107t-262.5 -39.5q-316 0 -481 163t-165 445q0 146 45 271h1024q7 51 7 80q0 131 -66.5 190.5t-171.5 59.5q-97 0 -169.5 -47.5t-100.5 -124.5h-469
q89 209 294.5 348t465.5 139zM768 281q107 0 195.5 70t140.5 216h-572q-4 -46 -4 -61q0 -113 65.5 -169t174.5 -56z" />
    <glyph glyph-name="schwacy" unicode="&#x4d9;" horiz-adv-x="1216" 
d="M666 1073q247 0 373 -129.5t126 -351.5q0 -82 -23.5 -167.5t-74.5 -168t-122 -146.5t-175 -103.5t-225 -39.5q-238 0 -367 123.5t-129 337.5q0 94 27 176h721q6 37 6 66q0 81 -35.5 115t-99.5 34q-55 0 -95.5 -27.5t-54.5 -70.5h-401q64 154 214.5 253t334.5 99zM549 213
q134 0 199 184h-330q-4 -32 -4 -45q0 -139 135 -139z" />
    <glyph glyph-name="Obarredcy" unicode="&#x4e8;" horiz-adv-x="1568" 
d="M942 1491q291 0 454 -172.5t163 -472.5q0 -118 -32.5 -239.5t-101.5 -236.5t-164.5 -204.5t-233 -144t-296.5 -54.5q-291 0 -453.5 173.5t-162.5 475.5q0 118 32.5 239t101 235.5t164.5 203.5t233 143t296 54zM913 1163q-125 0 -215 -83t-139 -212h606
q-5 140 -69.5 217.5t-182.5 77.5zM760 295q125 0 215 84t139 213h-606q5 -140 70 -218.5t182 -78.5z" />
    <glyph glyph-name="obarredcy" unicode="&#x4e9;" horiz-adv-x="1265" 
d="M682 1073q250 0 390 -130t140 -357q0 -69 -17.5 -140.5t-51.5 -141t-88 -130t-121.5 -107t-157.5 -73.5t-192 -27q-252 0 -391.5 130t-139.5 358q0 83 24.5 168.5t76.5 166.5t124.5 144t177.5 101t226 38zM672 813q-80 0 -136 -56t-87 -143h397q-5 92 -47.5 145.5
t-126.5 53.5zM592 227q81 0 137 56.5t86 142.5h-397q3 -91 46.5 -145t127.5 -54z" />
    <glyph glyph-name="Wgrave" unicode="&#x1e80;" horiz-adv-x="2099" 
d="M1509 1556h-284l-226 320h412zM1673 0h-555l35 588q13 237 47 551h-4q-101 -282 -221 -551l-256 -588h-551l78 1458h379l-39 -520q-20 -274 -60 -590h4q120 321 242 590l232 520h526l-29 -520q-15 -297 -45 -590h4q99 280 228 590l219 520h413z" />
    <glyph glyph-name="wgrave" unicode="&#x1e81;" horiz-adv-x="1814" 
d="M1161 1458l103 -307h-285l-229 307h411zM1444 0h-522l18 371q7 168 29 432h-4q-78 -230 -168 -432l-168 -371h-516l24 1040h361l-35 -362q-31 -326 -45 -432h4q84 230 182 436l168 358h494l-9 -358q-7 -257 -22 -436h4q55 179 154 432l147 362h395z" />
    <glyph glyph-name="Wacute" unicode="&#x1e82;" horiz-adv-x="2099" 
d="M1386 1556h-313l227 320h443zM1673 0h-555l35 588q13 237 47 551h-4q-101 -282 -221 -551l-256 -588h-551l78 1458h379l-39 -520q-20 -274 -60 -590h4q120 321 242 590l232 520h526l-29 -520q-15 -297 -45 -590h4q99 280 228 590l219 520h413z" />
    <glyph glyph-name="wacute" unicode="&#x1e83;" horiz-adv-x="1814" 
d="M1143 1151h-314l224 307h442zM1444 0h-522l18 371q7 168 29 432h-4q-78 -230 -168 -432l-168 -371h-516l24 1040h361l-35 -362q-31 -326 -45 -432h4q84 230 182 436l168 358h494l-9 -358q-7 -257 -22 -436h4q55 179 154 432l147 362h395z" />
    <glyph glyph-name="Wdieresis" unicode="&#x1e84;" horiz-adv-x="2099" 
d="M1219 1575h-332l71 289h334zM1704 1575h-334l74 289h332zM1673 0h-555l35 588q13 237 47 551h-4q-101 -282 -221 -551l-256 -588h-551l78 1458h379l-39 -520q-20 -274 -60 -590h4q120 321 242 590l232 520h526l-29 -520q-15 -297 -45 -590h4q99 280 228 590l219 520h413z
" />
    <glyph glyph-name="wdieresis" unicode="&#x1e85;" horiz-adv-x="1814" 
d="M975 1169h-332l72 289h334zM1460 1169h-334l74 289h332zM1444 0h-522l18 371q7 168 29 432h-4q-78 -230 -168 -432l-168 -371h-516l24 1040h361l-35 -362q-31 -326 -45 -432h4q84 230 182 436l168 358h494l-9 -358q-7 -257 -22 -436h4q55 179 154 432l147 362h395z" />
    <glyph glyph-name="Germandbls" unicode="&#x1e9e;" horiz-adv-x="1693" 
d="M1698 1182l-373 -330q283 -115 283 -401q0 -90 -37.5 -174.5t-109.5 -154.5t-190 -112.5t-265 -42.5q-439 0 -439 324q0 59 15 129h350q-6 -27 -6 -47q0 -97 114 -97q77 0 116.5 46t39.5 106q0 180 -322 205l68 270l248 219q-56 47 -170 47q-160 0 -266 -89t-150 -263
l-203 -817h-409l211 846q79 318 301 481.5t569 163.5q218 0 380.5 -83.5t244.5 -225.5z" />
    <glyph glyph-name="Ygrave" unicode="&#x1ef2;" horiz-adv-x="1411" 
d="M1120 1556h-284l-226 320h412zM913 532l-133 -532h-409l133 532l-271 926h410l51 -256q44 -221 58 -360h4q84 166 221 360l178 256h487z" />
    <glyph glyph-name="ygrave" unicode="&#x1ef3;" horiz-adv-x="1140" 
d="M809 1458l102 -307h-284l-230 307h412zM1288 1040l-573 -1003q-139 -245 -273 -337.5t-338 -92.5q-108 0 -196 20l72 283q43 -12 94 -12q76 0 116.5 38.5t40.5 102.5q0 55 -18 174l-109 827h390l12 -346q10 -238 2 -432h4q81 213 180 434l158 344h438z" />
    <glyph glyph-name="hyphentwo" unicode="&#x2010;" horiz-adv-x="722" 
d="M647 461h-600l68 274h602z" />
    <glyph glyph-name="endash" unicode="&#x2013;" horiz-adv-x="1024" 
d="M969 461h-942l67 274h942z" />
    <glyph glyph-name="emdash" unicode="&#x2014;" horiz-adv-x="2048" 
d="M1993 461h-1966l67 274h1966z" />
    <glyph glyph-name="horizontalbar" unicode="&#x2015;" horiz-adv-x="2048" 
d="M1864 461h-1966l67 274h1966z" />
    <glyph glyph-name="underscoredbl" unicode="&#x2017;" horiz-adv-x="1024" 
d="M819 -301h-1024l49 199h1024zM733 -645h-1024l49 199h1024z" />
    <glyph glyph-name="quoteleft" unicode="&#x2018;" horiz-adv-x="567" 
d="M266 1137l266 321h197l-227 -321h112l-86 -349h-348z" />
    <glyph glyph-name="quoteright" unicode="&#x2019;" horiz-adv-x="569" 
d="M602 1108l-266 -320h-197l228 320h-113l88 350h346z" />
    <glyph glyph-name="quotesinglbase" unicode="&#x201a;" horiz-adv-x="569" 
d="M326 0l-267 -322h-194l225 322h-110l86 350h348z" />
    <glyph glyph-name="quotereversed" unicode="&#x201b;" horiz-adv-x="567" 
d="M266 1137l266 321h197l-227 -321h112l-86 -349h-348z" />
    <glyph glyph-name="quotedblleft" unicode="&#x201c;" horiz-adv-x="1013" 
d="M266 1137l266 321h197l-227 -321h112l-86 -349h-348zM713 1137l266 321h197l-228 -321h113l-86 -349h-348z" />
    <glyph glyph-name="quotedblright" unicode="&#x201d;" horiz-adv-x="1013" 
d="M602 1108l-266 -320h-197l228 320h-113l88 350h346zM1049 1108l-267 -320h-196l227 320h-113l88 350h347z" />
    <glyph glyph-name="quotedblbase" unicode="&#x201e;" horiz-adv-x="1013" 
d="M326 0l-267 -319h-196l227 319h-113l89 350h346zM772 0l-266 -319h-197l228 319h-113l88 350h346z" />
    <glyph glyph-name="dagger" unicode="&#x2020;" horiz-adv-x="1327" 
d="M1016 1141h342l-84 -340h-342l-260 -1047h-398l263 1047h-344l83 338h345l77 319h398z" />
    <glyph glyph-name="daggerdbl" unicode="&#x2021;" horiz-adv-x="1327" 
d="M1016 1141h342l-80 -328h-344l-103 -414h343l-80 -327h-344l-78 -318h-398l80 318h-342l80 327h344l103 414h-342l79 328h345l77 317h398z" />
    <glyph glyph-name="bullet" unicode="&#x2022;" horiz-adv-x="858" 
d="M428 383q-143 0 -244.5 101t-101.5 245t101.5 245t244.5 101t245.5 -101t102.5 -245t-102.5 -245t-245.5 -101z" />
    <glyph glyph-name="ellipsis" unicode="&#x2026;" horiz-adv-x="2025" 
d="M373 0h-410l103 410h407zM1087 0h-407l100 410h410zM1802 0h-407l102 410h408z" />
    <glyph glyph-name="perthousand" unicode="&#x2030;" horiz-adv-x="2340" 
d="M389 -61h-244l1162 1503h243zM571 1423q140 0 212.5 -69.5t72.5 -200.5q0 -66 -14.5 -132.5t-46 -129t-75.5 -111t-108 -77.5t-139 -29q-142 0 -214.5 70t-72.5 204q0 81 24.5 163t70 152.5t121.5 115t169 44.5zM565 1233q-43 0 -78 -57.5t-50 -121.5t-15 -108
q0 -82 53 -82q34 0 62.5 33.5t45.5 82t26 95t9 78.5q0 80 -53 80zM1231 702q141 0 213 -69t72 -201q0 -66 -14.5 -132.5t-46 -129t-75.5 -111t-108 -77.5t-139 -29q-141 0 -214 70t-73 204q0 81 24.5 163t70 152.5t121.5 115t169 44.5zM1952 702q141 0 212.5 -69t71.5 -201
q0 -66 -14.5 -132.5t-46 -129t-75.5 -111t-108 -77.5t-139 -29q-141 0 -213.5 70t-72.5 204q0 81 24.5 163t70 152.5t121.5 115t169 44.5zM1227 512q-34 0 -63 -33.5t-46.5 -81.5t-27 -94.5t-9.5 -77.5q0 -82 54 -82q34 0 63 33.5t45.5 82t25.5 95t9 78.5q0 80 -51 80z
M1948 512q-34 0 -63 -33.5t-46.5 -81.5t-27 -94.5t-9.5 -77.5q0 -82 53 -82q45 0 80 57.5t49.5 121.5t14.5 110q0 80 -51 80z" />
    <glyph glyph-name="minute" unicode="&#x2032;" horiz-adv-x="532" 
d="M397 870h-247l188 510h348z" />
    <glyph glyph-name="second" unicode="&#x2033;" horiz-adv-x="944" 
d="M397 870h-247l188 510h348zM823 870h-248l189 510h348z" />
    <glyph glyph-name="guilsinglleft" unicode="&#x2039;" horiz-adv-x="735" 
d="M436 512l113 -401h-318l-145 417l320 402h348z" />
    <glyph glyph-name="guilsinglright" unicode="&#x203a;" horiz-adv-x="735" 
d="M299 530l-113 402h320l143 -418l-319 -401h-348z" />
    <glyph glyph-name="exclamdouble" unicode="&#x203c;" horiz-adv-x="1333" 
d="M524 457h-327l188 1001h451zM1104 457h-328l189 1001h450zM453 0h-410l84 330h408zM1032 0h-407l82 330h407z" />
    <glyph glyph-name="interrobang" unicode="&#x203d;" horiz-adv-x="1212" 
d="M1057 1458l-47 -149q117 -41 178 -125t61 -203q0 -109 -65 -200.5t-226 -172.5q-122 -59 -165.5 -93t-55.5 -83h-331q14 80 33.5 125t70 92.5t152.5 110.5q107 64 140.5 107t33.5 94q0 48 -29 75t-84 27q-68 0 -111 -41t-63 -129h-406q44 182 158 294t287 146l22 125h447
zM344 330h408l-82 -330h-410z" />
    <glyph glyph-name="overline" unicode="&#x203e;" horiz-adv-x="1024" 
d="M1290 1587h-1024l58 236h1024z" />
    <glyph glyph-name="fraction" unicode="&#x2044;" horiz-adv-x="307" 
d="M-227 0h-226l1074 1380h225z" />
    <glyph glyph-name="zerosuperior" unicode="&#x2070;" horiz-adv-x="1007" 
d="M745 1665q185 0 280 -98.5t95 -284.5q0 -86 -20.5 -172.5t-64.5 -169t-106 -146.5t-152.5 -102.5t-196.5 -38.5q-186 0 -281.5 97.5t-95.5 283.5q0 86 20.5 173.5t64.5 170t106.5 146.5t153 102.5t197.5 38.5zM723 1440q-49 0 -90.5 -48t-65.5 -117.5t-37.5 -137.5
t-13.5 -117q0 -141 86 -141q48 0 89.5 48t66 116.5t38 136.5t13.5 116q0 144 -86 144z" />
    <glyph glyph-name="foursuperior" unicode="&#x2074;" horiz-adv-x="989" 
d="M1049 848h-177l-43 -172h-307l43 172h-461l62 256l491 538h414l-141 -565h174zM428 1077h207l22 88q35 143 72 248h-4q-40 -52 -176 -203z" />
    <glyph glyph-name="fivesuperior" unicode="&#x2075;" horiz-adv-x="978" 
d="M1071 1393h-459l-45 -119h4q85 55 185 55q131 0 208.5 -76.5t77.5 -201.5q0 -52 -19 -106t-59.5 -106.5t-97 -93.5t-139 -66.5t-178.5 -25.5q-180 0 -281.5 67.5t-101.5 190.5q0 29 8 56h320q-2 -8 -2 -21q0 -34 24.5 -53t67.5 -19q67 0 103 45.5t36 106.5
q0 43 -23.5 66.5t-66.5 23.5q-39 0 -70 -23t-47 -59l-305 19l203 589h719z" />
    <glyph glyph-name="sixsuperior" unicode="&#x2076;" horiz-adv-x="966" 
d="M743 1665q173 0 272 -71t99 -199q0 -27 -2 -39h-317v14q0 38 -19.5 59t-56.5 21q-110 0 -172 -195h4q88 54 201 54q130 0 206 -77t76 -204q0 -64 -29 -129t-82.5 -120.5t-140 -90.5t-190.5 -35q-188 0 -289.5 97t-101.5 284q0 81 21.5 167t66.5 169t108 148.5t153 106
t193 40.5zM637 1100q-54 0 -88.5 -41t-34.5 -86t22.5 -70.5t63.5 -25.5q49 0 86 39.5t37 89.5q0 44 -23 69t-63 25z" />
    <glyph glyph-name="sevensuperior" unicode="&#x2077;" horiz-adv-x="876" 
d="M1130 1642l-57 -237q-141 -145 -262 -335.5t-207 -393.5h-364q94 199 225 388t266 320h-495l65 258h829z" />
    <glyph glyph-name="eightsuperior" unicode="&#x2078;" horiz-adv-x="968" 
d="M727 1665q175 0 275 -72.5t100 -195.5q0 -85 -62.5 -153.5t-175.5 -86.5v-4q68 -22 109 -78.5t41 -128.5q0 -53 -26.5 -103.5t-79 -94t-142 -69.5t-203.5 -26q-190 0 -293.5 73.5t-103.5 207.5q0 93 71 168.5t197 93.5v4q-63 25 -96 73t-33 113q0 51 26.5 99.5t77 89
t133 65.5t185.5 25zM709 1450q-57 0 -90 -31t-33 -69q0 -36 24.5 -57t69.5 -21q53 0 88 28.5t35 69.5q0 37 -24.5 58.5t-69.5 21.5zM610 1059q-64 0 -95.5 -33t-31.5 -72q0 -37 26 -59.5t73 -22.5q56 0 91.5 29t35.5 76q0 38 -25.5 60t-73.5 22z" />
    <glyph glyph-name="ninesuperior" unicode="&#x2079;" horiz-adv-x="966" 
d="M541 653q-173 0 -272 71.5t-99 199.5q0 27 2 39h317v-15q0 -38 19.5 -59t56.5 -21q110 0 172 195h-4q-86 -53 -201 -53q-130 0 -206 76.5t-76 203.5q0 64 29 129t82.5 120.5t140 90.5t190.5 35q188 0 289.5 -97t101.5 -284q0 -81 -21.5 -167t-66.5 -169t-108 -148.5
t-153 -106t-193 -40.5zM647 1219q54 0 88.5 41t34.5 86t-22.5 70.5t-63.5 25.5q-49 0 -86 -39.5t-37 -89.5q0 -44 23 -69t63 -25z" />
    <glyph glyph-name="plussuperior" unicode="&#x207a;" horiz-adv-x="841" 
d="M547 1251h217v-239h-217v-215h-250v215h-219v239h219v213h250v-213z" />
    <glyph glyph-name="minussuperior" unicode="&#x207b;" horiz-adv-x="841" 
d="M764 1012h-686v239h686v-239z" />
    <glyph glyph-name="equalsuperior" unicode="&#x207c;" horiz-adv-x="841" 
d="M764 1184h-686v219h686v-219zM764 856h-686v219h686v-219z" />
    <glyph glyph-name="parenleftsuperior" unicode="&#x207d;" horiz-adv-x="565" 
d="M569 1739h256q-342 -483 -342 -940q0 -145 25 -334h-232q-92 232 -92 450q0 200 94.5 413t290.5 411z" />
    <glyph glyph-name="parenrightsuperior" unicode="&#x207e;" horiz-adv-x="565" 
d="M287 465h-254q340 480 340 940q0 145 -25 334h234q90 -235 90 -451q0 -200 -94 -412.5t-291 -410.5z" />
    <glyph glyph-name="zeroinferior" unicode="&#x2080;" horiz-adv-x="1007" 
d="M489 637q185 0 280 -98.5t95 -284.5q0 -86 -20.5 -172.5t-64.5 -169t-106 -146.5t-152.5 -102.5t-196.5 -38.5q-186 0 -281.5 97.5t-95.5 283.5q0 86 20.5 173.5t64.5 170t106.5 146.5t153 102.5t197.5 38.5zM467 412q-49 0 -90.5 -48t-65.5 -117.5t-37.5 -137.5
t-13.5 -117q0 -142 86 -142q48 0 89.5 48t66 117t38 137t13.5 116q0 144 -86 144z" />
    <glyph glyph-name="oneinferior" unicode="&#x2081;" horiz-adv-x="694" 
d="M367 -352h-322l141 563h-243l57 229q133 0 209 41.5t113 132.5h286z" />
    <glyph glyph-name="twoinferior" unicode="&#x2082;" horiz-adv-x="991" 
d="M481 637q181 0 279 -74.5t98 -195.5q0 -231 -334 -342q-129 -43 -174.5 -69.5t-60.5 -59.5h487l-59 -248h-869q33 203 129.5 317.5t282.5 190.5q160 66 197 88q81 47 82 102q0 30 -20 47t-56 17q-43 0 -74 -31.5t-43 -91.5h-330q38 167 159.5 258.5t305.5 91.5z" />
    <glyph glyph-name="threeinferior" unicode="&#x2083;" horiz-adv-x="976" 
d="M471 637q183 0 285 -68.5t102 -189.5q0 -81 -54 -145t-171 -99v-2q68 -29 99.5 -74t31.5 -112q0 -58 -29 -114t-83 -103t-143 -76t-198 -29q-203 0 -308 71t-105 206q0 33 10 78h323q-6 -18 -6 -41q0 -86 101 -86q60 0 92.5 30t32.5 64q0 78 -125 78h-23l53 221h35
q67 0 107.5 26t40.5 68q0 70 -90 70q-54 0 -90 -32t-48 -89h-313q38 163 163 255.5t310 92.5z" />
    <glyph glyph-name="fourinferior" unicode="&#x2084;" horiz-adv-x="989" 
d="M793 -180h-177l-43 -172h-309l43 172h-461l64 256l489 538h416l-141 -565h174zM170 49h209l22 88q35 143 72 248h-4q-56 -69 -176 -203z" />
    <glyph glyph-name="fiveinferior" unicode="&#x2085;" horiz-adv-x="978" 
d="M815 365h-459l-45 -119h4q85 55 185 55q131 0 208.5 -76.5t77.5 -201.5q0 -52 -19 -106t-59.5 -106.5t-97 -93.5t-139 -66.5t-178.5 -25.5q-180 0 -281.5 67.5t-101.5 190.5q0 29 8 56h320q-2 -8 -2 -21q0 -34 24.5 -53t67.5 -19q67 0 103 45.5t36 106.5q0 43 -23.5 66.5
t-66.5 23.5q-39 0 -70 -23t-47 -59l-305 19l203 589h719z" />
    <glyph glyph-name="sixinferior" unicode="&#x2086;" horiz-adv-x="966" 
d="M487 637q173 0 272 -71t99 -199q0 -27 -2 -39h-317v14q0 80 -78 80q-52 0 -96 -48.5t-74 -146.5h4q88 54 199 54q131 0 207.5 -77t76.5 -204q0 -64 -29.5 -129t-83 -120.5t-140.5 -90.5t-191 -35q-187 0 -288 97t-101 284q0 81 21.5 167t66.5 169t108 148.5t153 106
t193 40.5zM379 72q-53 0 -88 -41.5t-35 -85.5t23 -70.5t63 -26.5q50 0 87.5 39.5t37.5 89.5q0 44 -23.5 69.5t-64.5 25.5z" />
    <glyph glyph-name="seveninferior" unicode="&#x2087;" horiz-adv-x="874" 
d="M874 614l-59 -237q-139 -146 -260.5 -336.5t-208.5 -392.5h-364q93 198 224.5 387t266.5 321h-493l63 258h831z" />
    <glyph glyph-name="eightinferior" unicode="&#x2088;" horiz-adv-x="968" 
d="M471 637q174 0 274.5 -73t100.5 -195q0 -85 -62.5 -153.5t-175.5 -86.5v-4q67 -22 107.5 -78.5t40.5 -128.5q0 -54 -26.5 -104t-78.5 -93.5t-141.5 -69.5t-204.5 -26q-190 0 -292.5 73.5t-102.5 207.5q0 94 70.5 169t197.5 93v4q-63 25 -97 73t-34 113q0 51 27 99.5
t77.5 89t133.5 65.5t186 25zM453 422q-59 0 -92 -31t-33 -69q0 -36 25 -57t71 -21q53 0 88 28.5t35 69.5q0 37 -25 58.5t-69 21.5zM352 31q-63 0 -95 -33t-32 -72q0 -37 27 -59.5t74 -22.5q55 0 91 29t36 76q0 38 -25.5 60t-75.5 22z" />
    <glyph glyph-name="nineinferior" unicode="&#x2089;" horiz-adv-x="966" 
d="M285 -375q-173 0 -272 71.5t-99 199.5q0 26 2 38h317v-14q0 -38 19.5 -59t56.5 -21q110 0 172 195h-4q-86 -53 -201 -53q-130 0 -206 76.5t-76 203.5q0 64 29 129t82.5 120.5t140 90.5t190.5 35q188 0 289.5 -97t101.5 -284q0 -81 -21.5 -167t-66.5 -169t-108 -148.5
t-153 -106t-193 -40.5zM391 190q54 0 88.5 41t34.5 86t-22.5 71t-63.5 26q-49 0 -86 -39.5t-37 -89.5q0 -44 23 -69.5t63 -25.5z" />
    <glyph glyph-name="plusinferior" unicode="&#x208a;" horiz-adv-x="841" 
d="M547 223h217v-239h-217v-215h-250v215h-219v239h219v213h250v-213z" />
    <glyph glyph-name="minusinferior" unicode="&#x208b;" horiz-adv-x="841" 
d="M764 -16h-686v239h686v-239z" />
    <glyph glyph-name="equalinferior" unicode="&#x208c;" horiz-adv-x="841" 
d="M764 156h-686v219h686v-219zM764 -172h-686v219h686v-219z" />
    <glyph glyph-name="parenleftinferior" unicode="&#x208d;" horiz-adv-x="565" 
d="M313 711h254q-340 -480 -340 -940q0 -166 25 -334h-234q-92 232 -92 450q0 201 94.5 413.5t292.5 410.5z" />
    <glyph glyph-name="parenrightinferior" unicode="&#x208e;" horiz-adv-x="565" 
d="M31 -563h-256q342 483 342 940q0 145 -25 334h232q92 -232 92 -451q0 -200 -94 -412.5t-291 -410.5z" />
    <glyph glyph-name="ninferior" unicode="&#x2099;" horiz-adv-x="925" 
d="M528 397q110 0 171 -56t61 -161q0 -48 -15 -106l-106 -426h-309l102 413q8 24 8 50q0 51 -55 51q-86 0 -127 -160l-88 -354h-309l180 729h289l-19 -70h4q90 90 213 90z" />
    <glyph glyph-name="franc" unicode="&#x20a3;" horiz-adv-x="1343" 
d="M737 1047l-45 -177h584l-84 -331h-582l-32 -136h335l-67 -264h-334l-35 -139h-409l34 139h-151l67 264h150l244 977h1032l-82 -333h-625z" />
    <glyph glyph-name="lira" unicode="&#x20a4;" horiz-adv-x="1343" 
d="M1374 946h-377q2 16 2 41q0 115 -108 115q-130 0 -178 -189l-15 -61h265l-39 -158h-267l-18 -73h266l-39 -158h-274q-44 -95 -137 -141v-5h753l-78 -317h-1212l78 317q75 0 124.5 33.5t82.5 112.5h-170l39 158h176l18 73h-176l39 158h176l33 127q52 209 209 321.5
t385 112.5q212 0 332 -99.5t120 -271.5q0 -52 -10 -96z" />
    <glyph glyph-name="peseta" unicode="&#x20a7;" horiz-adv-x="2002" 
d="M1810 760l-75 -301q-11 -53 -11 -72q0 -51 27.5 -74.5t89.5 -23.5q31 0 55 6l-73 -297q-86 -16 -156 -16q-184 0 -270 71.5t-86 227.5q0 61 24 159l80 320h-67q-27 -77 -75 -142t-121 -119t-179 -85t-234 -31h-223l-94 -383h-410l342 1380h469q241 0 376 -88t167 -252
h119l74 291h393l-72 -291h191l-70 -280h-191zM596 705h131q117 0 173 57t56 135q0 162 -188 162h-84z" />
    <glyph glyph-name="euro" unicode="&#x20ac;" horiz-adv-x="1343" 
d="M1016 936v14q0 140 -146 140q-87 0 -154 -58.5t-112 -154.5h412l-70 -158h-395q-6 -27 -14 -74h376l-67 -158h-311q18 -196 161 -196q70 0 121.5 40t79.5 113h401q-73 -226 -240.5 -351.5t-391.5 -125.5q-238 0 -371.5 135.5t-144.5 384.5h-156l69 158h91q2 13 6 37t6 37
h-115l70 158h88q41 110 103 203t148 169.5t202 120t249 43.5q243 0 373.5 -109t130.5 -305q0 -17 -4 -63h-395z" />
    <glyph glyph-name="rupeeIndian" unicode="&#x20b9;" horiz-adv-x="1343" 
d="M1057 1178v-4q74 -36 98 -103h256l-106 -203h-162q-41 -103 -147.5 -178.5t-276.5 -103.5v-4q62 -25 102.5 -81t71.5 -159l102 -342h-434l-90 336q-26 96 -74.5 138t-128.5 42h-28l59 244h131q184 0 264 108h-536l106 203h455q-47 107 -215 107h-271l109 202h1147
l-109 -202h-323z" />
    <glyph glyph-name="liraTurkish" unicode="&#x20ba;" horiz-adv-x="1343" 
d="M909 670h430q-65 -341 -283.5 -517t-563.5 -176q-214 0 -422 37l112 455l-192 -94l51 205l192 92l27 106l-192 -94l49 205l192 92l101 399h413l-53 -211l365 174l-52 -202l-362 -174l-27 -105l363 174l-49 -202l-365 -177l-84 -333q142 0 231.5 87.5t118.5 258.5z" />
    <glyph glyph-name="uni20BC" unicode="&#x20bc;" horiz-adv-x="1640" 
d="M1235 1458l-47 -190q432 -66 432 -484q0 -91 -31 -215l-141 -569h-363l142 571q24 95 24 168q0 90 -35 138t-110 63l-234 -940h-362l235 946q-118 -6 -182.5 -76t-105.5 -235l-158 -635h-365l175 694q72 287 247.5 433.5t470.5 150.5l45 180h363z" />
    <glyph glyph-name="ruble" unicode="&#x20bd;" horiz-adv-x="1343" 
d="M385 1380h535q236 0 353.5 -100.5t117.5 -282.5q0 -66 -18 -130.5t-60.5 -127.5t-103.5 -110.5t-155 -77t-208 -29.5h-268l-23 -96h346l-61 -246h-346l-45 -180h-408l45 180h-139l61 246h139l23 96h-137l67 271h140zM725 1110l-78 -317h123q103 0 152 51.5t49 122.5
q0 143 -162 143h-84z" />
    <glyph glyph-name="careof" unicode="&#x2105;" horiz-adv-x="2033" 
d="M641 1413q169 0 267 -77.5t98 -213.5q0 -6 -5 -41h-321q4 16 4 27q0 39 -18 58.5t-48 19.5q-33 0 -60.5 -24t-43.5 -59t-24.5 -71t-8.5 -65q0 -101 70 -101q33 0 58.5 22.5t37.5 63.5h320q-45 -148 -163 -230.5t-278 -82.5q-171 0 -267.5 90.5t-96.5 249.5q0 60 19 120
t59 117t95 100.5t134.5 70t171.5 26.5zM614 0h-225l1073 1380h226zM1565 741q182 0 285.5 -94.5t103.5 -257.5q0 -73 -30 -145.5t-85.5 -135.5t-147.5 -102t-204 -39q-183 0 -286 94t-103 258q0 72 30 145t85.5 135.5t147.5 102t204 39.5zM1548 512q-62 0 -96.5 -67
t-34.5 -138q0 -112 84 -112q45 0 76 36t43 80t12 88q0 113 -84 113z" />
    <glyph glyph-name="literSign" unicode="&#x2113;" horiz-adv-x="931" 
d="M987 1079q0 -95 -31 -191.5t-90 -186.5t-156.5 -164t-220.5 -115q-12 -38 -12 -66q0 -52 25.5 -77t79.5 -25q46 0 86 12l-70 -274q-70 -15 -152 -15q-183 0 -270.5 72.5t-87.5 224.5q0 46 12 105q-59 7 -90 14l45 182q45 -10 90 -10l107 430q60 232 161 325t269 93
q142 0 223.5 -80.5t81.5 -253.5zM737 1192q-29 0 -51 -30.5t-41 -106.5l-96 -393q116 75 177.5 192t61.5 231q0 107 -51 107z" />
    <glyph glyph-name="numero" unicode="&#x2116;" horiz-adv-x="2557" 
d="M1421 0h-569l-100 559q-44 257 -88 565h-5q-47 -283 -124 -596l-132 -528h-391l363 1458h571l98 -559q47 -261 91 -565h4q49 295 123 596l131 528h391zM2247 1294q183 0 286 -94t103 -258q0 -73 -30 -145.5t-85.5 -135.5t-147.5 -102t-204 -39q-183 0 -286 94t-103 258
q0 72 30 145t85.5 135.5t147.5 102t204 39.5zM2232 1065q-44 0 -75 -36.5t-43.5 -81.5t-12.5 -89q0 -110 82 -110q45 0 76 36t43 80t12 88q0 113 -82 113zM2386 164h-748l64 256h747z" />
    <glyph glyph-name="published" unicode="&#x2117;" horiz-adv-x="1626" 
d="M813 1491q165 0 303 -55t234.5 -154t150 -241.5t53.5 -311.5t-53.5 -311.5t-150 -241.5t-234.5 -154t-303 -55t-303 55t-234.5 154t-150 241.5t-53.5 311.5t53.5 311.5t150 241.5t234.5 154t303 55zM813 1343q-269 0 -433.5 -169t-164.5 -445t164.5 -445t433.5 -169
t433.5 169t164.5 445t-164.5 445t-433.5 169zM496 1155h383q179 0 268.5 -81t89.5 -226t-89.5 -226t-268.5 -81h-125v-252h-258v866zM754 948v-198h90q127 0 127 98q0 100 -131 100h-86z" />
    <glyph glyph-name="trademark" unicode="&#x2122;" horiz-adv-x="1810" 
d="M858 1245h-205l-129 -516h-256l129 516h-207l54 213h667zM1790 729h-221l84 328q34 143 65 256h-4q-52 -126 -115 -254l-155 -330h-301l10 330q2 88 10 254h-4q-8 -41 -59 -256l-84 -328h-221l182 729h375l-6 -295q-2 -108 -17 -268h4q38 116 109 268l139 295h391z" />
    <glyph glyph-name="Ohm" unicode="&#x2126;" horiz-adv-x="1554" 
d="M952 1491q286 0 448.5 -124t162.5 -366q0 -194 -93 -352t-282 -303v-4h272l-86 -342h-655l88 354q146 115 225.5 257t79.5 284q0 120 -57 183t-158 63q-69 0 -128 -30t-99.5 -78.5t-70 -109.5t-43 -123.5t-13.5 -121.5q0 -169 90 -324l-88 -354h-623l86 342h281v4
q-154 201 -154 410q0 101 31 203t97.5 198t160.5 170t231 119t297 45z" />
    <glyph glyph-name="estimated" unicode="&#x212e;" horiz-adv-x="1767" 
d="M885 1413q182 0 332 -60t247.5 -162t151 -235.5t53.5 -283.5h-1253q-12 0 -20.5 -8t-8.5 -19v-342q0 -32 7 -52t26 -38q189 -186 465 -186q147 0 277 62t212 163h142q-37 -52 -92 -98.5t-131.5 -88t-182 -66t-225.5 -24.5q-176 0 -324 53.5t-250 148.5t-158.5 227
t-56.5 286q0 153 54.5 285t154.5 229.5t249.5 153t330.5 55.5zM885 1360q-272 0 -465 -193q-19 -17 -26 -35t-7 -49v-342q0 -10 8.5 -17t20.5 -7h934q26 0 26 24v342q0 31 -6 49t-24 35q-196 193 -461 193z" />
    <glyph glyph-name="oneeighth" unicode="&#x215b;" horiz-adv-x="1755" 
d="M528 553h-290l122 481h-210l47 199q109 0 175.5 36t102.5 111h260zM387 0h-225l1073 1380h225zM1382 848q151 0 237.5 -62.5t86.5 -169.5q0 -72 -53.5 -131t-151.5 -73v-4q60 -17 94.5 -66t34.5 -115q0 -44 -22.5 -86.5t-67.5 -79t-122.5 -59t-176.5 -22.5
q-164 0 -252 62.5t-88 178.5q0 79 60.5 144.5t168.5 78.5v5q-112 41 -112 161q0 92 96.5 165t267.5 73zM1366 662q-50 0 -78 -25.5t-28 -58.5q0 -32 21.5 -50t61.5 -18q45 0 75 25t30 61q0 31 -21.5 48.5t-60.5 17.5zM1284 330q-55 0 -82.5 -28.5t-27.5 -61.5t22 -52.5
t61 -19.5q49 0 80 26.5t31 65.5q0 33 -21.5 51.5t-62.5 18.5z" />
    <glyph glyph-name="threeeighths" unicode="&#x215c;" horiz-adv-x="1978" 
d="M602 1401q158 0 245 -58.5t87 -160.5q0 -152 -193 -211v-4q111 -45 111 -156q0 -50 -24.5 -98.5t-70.5 -89.5t-122.5 -66t-169.5 -25q-176 0 -266 61t-90 177q0 35 8 68h276q-4 -20 -4 -35q0 -74 90 -74q51 0 78 25.5t27 54.5q0 68 -107 68h-22l47 188h28q60 0 94.5 23
t34.5 59q0 57 -75 57q-100 0 -119 -102h-270q32 141 139 220t268 79zM610 0h-225l1073 1380h225zM1606 848q151 0 237 -62.5t86 -169.5q0 -72 -53.5 -131t-151.5 -73v-4q60 -17 94.5 -66t34.5 -115q0 -44 -22.5 -86.5t-67.5 -79t-122.5 -59t-176.5 -22.5q-164 0 -252 62.5
t-88 178.5q0 79 61 144.5t169 78.5v5q-55 20 -84 62t-29 99q0 92 97 165t268 73zM1589 662q-50 0 -78 -25.5t-28 -58.5q0 -31 22 -49.5t62 -18.5q45 0 74.5 25t29.5 61q0 31 -21.5 48.5t-60.5 17.5zM1507 330q-55 0 -82.5 -28.5t-27.5 -61.5t22.5 -52.5t61.5 -19.5
q49 0 79.5 26.5t30.5 65.5q0 33 -21.5 51.5t-62.5 18.5z" />
    <glyph glyph-name="fiveeighths" unicode="&#x215d;" horiz-adv-x="1982" 
d="M895 1167h-397l-39 -100h4q76 43 160 43q114 0 180.5 -64.5t66.5 -171.5q0 -56 -27 -114.5t-77.5 -110.5t-134.5 -84.5t-187 -32.5q-154 0 -240.5 58.5t-86.5 163.5q0 31 6 49h274q-2 -6 -2 -19q0 -28 21 -44.5t59 -16.5q57 0 88 39t31 90q0 36 -21 57t-57 21
q-66 0 -100 -70l-262 17l174 503h618zM614 0h-225l1073 1380h226zM1610 848q151 0 237 -62.5t86 -169.5q0 -73 -53.5 -131.5t-150.5 -72.5v-4q60 -17 94.5 -66t34.5 -115q0 -44 -23 -86.5t-68 -79t-122.5 -59t-176.5 -22.5q-164 0 -252 62.5t-88 178.5q0 79 61 144.5
t169 78.5v5q-55 20 -84 62t-29 99q0 92 97 165t268 73zM1593 662q-50 0 -78 -25.5t-28 -58.5q0 -31 22 -49.5t62 -18.5q45 0 74.5 25t29.5 61q0 31 -21.5 48.5t-60.5 17.5zM1511 330q-55 0 -82.5 -28.5t-27.5 -61.5t22.5 -52.5t61.5 -19.5q49 0 79.5 26.5t30.5 65.5
q0 33 -21.5 51.5t-62.5 18.5z" />
    <glyph glyph-name="seveneighths" unicode="&#x215e;" horiz-adv-x="1794" 
d="M946 1380l-47 -204q-121 -121 -225 -284.5t-178 -338.5h-316q82 172 195 334t229 272h-426l55 221h713zM424 0h-225l1073 1380h225zM1419 848q151 0 237.5 -62.5t86.5 -169.5q0 -72 -53.5 -131t-151.5 -73v-4q60 -17 94.5 -66t34.5 -115q0 -44 -22.5 -86.5t-67.5 -79
t-122.5 -59t-176.5 -22.5q-164 0 -252 62.5t-88 178.5q0 79 60.5 144.5t168.5 78.5v5q-112 41 -112 161q0 92 96.5 165t267.5 73zM1403 662q-50 0 -78.5 -25.5t-28.5 -58.5q0 -31 22 -49.5t62 -18.5q45 0 75 25t30 61q0 31 -21.5 48.5t-60.5 17.5zM1321 330q-55 0 -83 -29
t-28 -61q0 -33 22.5 -52.5t61.5 -19.5q49 0 80 26.5t31 65.5q0 33 -21.5 51.5t-62.5 18.5z" />
    <glyph glyph-name="Sevenroman" unicode="&#x2166;" horiz-adv-x="2752" 
d="M850 0h-549l-61 1458h405l4 -559q7 -299 -10 -551h4q115 283 252 551l283 559h458zM1788 0h-410l363 1458h409zM2482 0h-409l362 1458h410z" />
    <glyph glyph-name="partialdiff" unicode="&#x2202;" horiz-adv-x="1310" 
d="M770 1491q247 0 374.5 -136t127.5 -386q0 -85 -14 -177.5t-44 -190.5t-73.5 -189t-105.5 -172.5t-136 -142t-170 -95.5t-203 -35q-240 0 -361.5 116.5t-121.5 322.5q0 67 20 141t67 152t113 140.5t168.5 102t223.5 39.5q170 0 254 -100h4q27 71 27 143q0 87 -36 133.5
t-102 46.5q-104 0 -139 -127h-405q42 191 182 302.5t350 111.5zM676 731q-55 0 -101 -35t-73.5 -87t-42.5 -108t-15 -104q0 -143 115 -143q55 0 101 36t72.5 90t41 108.5t14.5 99.5q0 143 -112 143z" />
    <glyph glyph-name="increment" unicode="&#x2206;" horiz-adv-x="1495" 
d="M1370 0h-1503l860 1458h512zM958 322l-12 362q-9 240 -12 496h-4q-92 -210 -244 -496l-192 -362h464z" />
    <glyph glyph-name="product" unicode="&#x220f;" horiz-adv-x="1486" 
d="M1343 -246h-409v1360h-381v-1360h-412v1704h1202v-1704z" />
    <glyph glyph-name="summation" unicode="&#x2211;" horiz-adv-x="1105" 
d="M1034 1114h-526l305 -506l-303 -508h524v-346h-962v346l313 508l-313 506v344h962v-344z" />
    <glyph glyph-name="minus" unicode="&#x2212;" horiz-adv-x="1159" 
d="M1047 498h-934v305h934v-305z" />
    <glyph glyph-name="divisionslash" unicode="&#x2215;" horiz-adv-x="1062" 
d="M70 -182h-314l1026 1708h314z" />
    <glyph glyph-name="bulletoperator" unicode="&#x2219;" horiz-adv-x="780" 
d="M594 420h-408v411h408v-411z" />
    <glyph glyph-name="radical" unicode="&#x221a;" horiz-adv-x="1447" 
d="M920 -246h-523l-174 742h-172v311h434l179 -746h4l397 1397h342z" />
    <glyph glyph-name="infinity" unicode="&#x221e;" horiz-adv-x="1513" 
d="M1110 1034q170 0 271.5 -109.5t101.5 -293.5t-101.5 -294t-271.5 -110q-114 0 -198.5 46t-155.5 128q-149 -174 -353 -174q-170 0 -271 109.5t-101 294.5q0 184 101 293.5t271 109.5q204 0 353 -174q71 82 155.5 128t198.5 46zM438 522q73 0 154 109q-81 108 -154 108
q-52 0 -79 -29t-27 -79q0 -49 27.5 -79t78.5 -30zM1075 522q50 0 78.5 30.5t28.5 78.5q0 50 -28 79t-79 29q-43 0 -79.5 -27.5t-75.5 -80.5q40 -53 76 -81t79 -28z" />
    <glyph glyph-name="integral" unicode="&#x222b;" horiz-adv-x="802" 
d="M610 1479q84 0 183 -21v-266q-15 6 -48 6q-77 0 -114 -33.5t-37 -111.5v-1073q0 -189 -102 -284t-299 -95q-89 0 -183 20v266q15 -6 47 -6q77 0 114.5 34t37.5 112v1073q0 189 102 284t299 95z" />
    <glyph glyph-name="approxequal" unicode="&#x2248;" horiz-adv-x="1159" 
d="M412 1085q48 0 98 -20t85 -44.5t74 -44.5t66 -20q42 0 65 28t23 75h226q0 -170 -82 -274.5t-219 -104.5q-47 0 -97 20t-85 44.5t-74.5 44.5t-67.5 20q-43 0 -66.5 -27.5t-23.5 -74.5h-223q0 170 82 274t219 104zM412 618q48 0 98 -20t85 -44.5t74 -44.5t66 -20
q42 0 65 28t23 75h226q0 -170 -82 -274.5t-219 -104.5q-47 0 -97 20t-85 44.5t-74.5 44.5t-67.5 20q-43 0 -66.5 -27.5t-23.5 -74.5h-223q0 170 82 274t219 104z" />
    <glyph glyph-name="notequal" unicode="&#x2260;" horiz-adv-x="1159" 
d="M754 727l-84 -158h377v-286h-525l-114 -220h-267l113 220h-141v286h290l82 158h-372v287h522l115 223h268l-117 -223h146v-287h-293z" />
    <glyph glyph-name="lessequal" unicode="&#x2264;" horiz-adv-x="1159" 
d="M1047 924l-572 -170v-4l572 -172v-281l-934 289v329l934 289v-280zM1047 266v-266h-934v266h934z" />
    <glyph glyph-name="greaterequal" unicode="&#x2265;" horiz-adv-x="1159" 
d="M1047 915v-329l-934 -289v281l571 172v4l-571 170v280zM1047 0h-934v266h934v-266z" />
    <glyph glyph-name="lozenge" unicode="&#x25ca;" horiz-adv-x="1415" 
d="M1333 729l-362 -729h-527l-362 729l362 729h527zM485 729l222 -450l223 450l-223 451z" />
    <glyph glyph-name="apple" unicode="&#xf8ff;" horiz-adv-x="1339" 
d="M307 1591h725q131 0 207 -76t76 -206v-1159q0 -130 -76.5 -206.5t-206.5 -76.5h-725q-130 0 -206 76t-76 207v1159q0 131 75.5 206.5t206.5 75.5zM1032 1438h-725q-60 0 -94.5 -34.5t-34.5 -94.5v-1159q0 -60 34.5 -95t94.5 -35h725q60 0 94.5 35t34.5 95v1159
q0 60 -34.5 94.5t-94.5 34.5zM668 1325q183 0 286 -83.5t103 -231.5q0 -82 -30.5 -140.5t-111.5 -134.5t-108 -127.5t-27 -132.5h-241q-7 51 -7 90q0 89 23.5 142.5t99.5 130.5q60 61 78.5 94t18.5 76q0 41 -22.5 64.5t-61.5 23.5q-103 0 -103 -152h-297q1 185 106 283
t294 98zM807 133h-295v258h295v-258z" />
    <glyph glyph-name="ff" unicode="&#xfb00;" horiz-adv-x="1488" 
d="M1520 1479q92 0 190 -25l-65 -262q-15 6 -48 6q-77 0 -122.5 -34.5t-65.5 -114.5l-2 -9h188l-69 -280h-189l-188 -760h-393l190 760h-319l-189 -760h-393l191 760h-162l69 280h162l23 93q44 172 167.5 259t313.5 87q92 0 190 -25l-65 -262q-15 6 -47 6q-77 0 -123 -34.5
t-66 -114.5l-2 -9h320l22 93q44 172 168 259t314 87z" />
    <glyph glyph-name="fi" unicode="&#xfb01;" horiz-adv-x="1392" 
d="M627 760l-189 -760h-393l191 760h-162l69 280h162l23 93q44 172 167.5 259t313.5 87q92 0 190 -25l-65 -262q-15 6 -47 6q-77 0 -123 -34.5t-66 -114.5l-2 -9h189l-70 -280h-188zM1516 1458l-72 -289h-393l71 289h394zM1018 1040h393l-258 -1040h-393z" />
    <glyph glyph-name="fl" unicode="&#xfb02;" horiz-adv-x="1392" 
d="M627 760l-189 -760h-393l191 760h-162l69 280h162l23 93q44 172 167.5 259t313.5 87q92 0 190 -25l-65 -262q-15 6 -47 6q-77 0 -123 -34.5t-66 -114.5l-2 -9h189l-70 -280h-188zM1516 1458l-363 -1458h-393l362 1458h394z" />
    <glyph glyph-name="ffi" unicode="&#xfb03;" horiz-adv-x="2103" 
d="M1337 760l-188 -760h-393l190 760h-319l-189 -760h-393l191 760h-162l69 280h162l23 93q44 172 167.5 259t313.5 87q92 0 190 -25l-65 -262q-15 6 -47 6q-77 0 -123 -34.5t-66 -114.5l-2 -9h320l22 93q44 172 168 259t314 87q92 0 190 -25l-65 -262q-15 6 -48 6
q-77 0 -122.5 -34.5t-65.5 -114.5l-2 -9h188l-69 -280h-189zM2226 1458l-72 -289h-393l72 289h393zM1729 1040h393l-258 -1040h-394z" />
    <glyph glyph-name="ffl" unicode="&#xfb04;" horiz-adv-x="2103" 
d="M1337 760l-188 -760h-393l190 760h-319l-189 -760h-393l191 760h-162l69 280h162l23 93q44 172 167.5 259t313.5 87q92 0 190 -25l-65 -262q-15 6 -47 6q-77 0 -123 -34.5t-66 -114.5l-2 -9h320l22 93q44 172 168 259t314 87q92 0 190 -25l-65 -262q-15 6 -48 6
q-77 0 -122.5 -34.5t-65.5 -114.5l-2 -9h188l-69 -280h-189zM2226 1458l-362 -1458h-394l363 1458h393z" />
    <glyph glyph-name="uniFEFF" unicode="&#xfeff;" horiz-adv-x="0" 
 />
    <glyph glyph-name="NULL" horiz-adv-x="1228" 
 />
    <glyph glyph-name="J.acute.loclNLD" horiz-adv-x="876" 
d="M903 1569h-313l223 307h442zM979 1458l-244 -975q-66 -259 -220 -381t-413 -122q-102 0 -198 28l80 328q50 -8 84 -8q123 0 187 62.5t105 230.5l209 837h410z" />
    <glyph glyph-name="Ccedilla.ss01" horiz-adv-x="1492" 
d="M946 1491q263 0 416.5 -136.5t153.5 -379.5q0 -36 -7 -90h-430q4 36 4 57q0 95 -46.5 148t-133.5 53q-71 0 -133 -36t-105 -94t-74 -131t-46 -147.5t-15 -142.5q0 -127 52 -202t151 -75q86 0 159.5 56t108.5 151h435q-81 -263 -278 -409t-466 -146q-280 0 -435 158
t-155 436q0 89 16 180t50 182.5t83 174.5t119.5 155t154.5 125t192 83t229 30zM569 -444h-401l360 344h316z" />
    <glyph glyph-name="Scedilla.ss01" horiz-adv-x="1353" 
d="M856 1491q262 0 401.5 -95.5t139.5 -281.5q0 -50 -11 -98h-430q5 35 5 41q0 61 -41 93t-119 32q-82 0 -128 -36.5t-46 -84.5q0 -55 47.5 -86t177.5 -72q55 -18 94 -32t86 -36t79.5 -44t65 -53.5t52 -67t31.5 -83t12 -102.5q0 -73 -24.5 -144.5t-78.5 -139.5t-131 -119.5
t-191.5 -83t-250.5 -31.5q-275 0 -426.5 105t-151.5 297q0 44 13 104h442q-6 -30 -6 -53q0 -133 178 -133q88 0 138.5 39t50.5 92q0 60 -46 90t-172 74q-57 20 -93 33.5t-84.5 36t-78.5 43t-63.5 51.5t-52 65t-31 79.5t-12.5 98.5q0 70 24 139.5t77 135t128 116t185.5 81
t240.5 30.5zM479 -444h-401l360 344h316z" />
    <glyph glyph-name="Tcedilla.ss01" horiz-adv-x="1306" 
d="M1440 1114h-434l-277 -1114h-410l279 1114h-434l86 344h1274zM434 -444h-401l360 344h316z" />
    <glyph glyph-name="idotaccent" horiz-adv-x="614" 
d="M666 1169h-394l72 289h393zM375 0h-393l258 1040h393z" />
    <glyph glyph-name="j.acute.loclNLD" horiz-adv-x="614" 
d="M561 1151h-313l223 307h442zM633 1040l-262 -1056q-49 -189 -174.5 -282t-296.5 -93q-126 0 -215 29l67 262q20 -4 35 -4q89 0 140 47t81 170l232 927h393z" />
    <glyph glyph-name="ccedilla.ss01" horiz-adv-x="1206" 
d="M705 1073q225 0 353 -108t128 -295q0 -40 -4 -60h-408q4 24 4 39q0 64 -27 97.5t-75 33.5q-53 0 -97 -37t-69.5 -93t-39 -113t-13.5 -105q0 -172 112 -172q55 0 98.5 39t65.5 109h406q-63 -205 -224 -323t-374 -118q-231 0 -361.5 126.5t-130.5 348.5q0 85 26 172.5
t80.5 170t130.5 146.5t185 103t234 39zM426 -444h-401l360 344h315z" />
    <glyph glyph-name="scedilla.ss01" horiz-adv-x="1144" 
d="M672 1073q210 0 325 -72t115 -215q0 -30 -8 -57h-371q4 24 4 37q0 78 -102 78q-54 0 -78.5 -21.5t-24.5 -50.5q0 -35 34 -58t132 -57q45 -16 70 -25.5t66 -28t65 -34.5t53.5 -41.5t45.5 -52.5t27 -64t11 -79q0 -69 -34 -133t-100 -116.5t-174 -84t-243 -31.5
q-485 0 -485 303q0 39 10 68h391q-6 -21 -6 -41q0 -88 121 -88q58 0 89.5 22t31.5 58q0 41 -40 64.5t-161 64.5q-46 15 -75 25.5t-68.5 28.5t-63.5 39t-47 50t-34 68.5t-11 87.5q0 55 19.5 105.5t62.5 96.5t104.5 80t151 54t197.5 20zM373 -444h-402l361 344h315z" />
    </font>
</defs>
</svg>
