<?xml version="1.0" standalone="no"?>
<!DOCTYPE svg PUBLIC "-//W3C//DTD SVG 1.1//EN" "http://www.w3.org/Graphics/SVG/1.1/DTD/svg11.dtd" >
<svg xmlns="http://www.w3.org/2000/svg" xmlns:xlink="http://www.w3.org/1999/xlink" version="1.1">
<metadata>
Created by FontForge 20170731 at Mon Nov  2 20:41:07 2020
 By Aleksey,,,
Copyright (c) 2013 by Matthieu Cortat. All rights reserved.
</metadata>
<defs>
<font id="Louize-MediumItalic" horiz-adv-x="512" >
  <font-face 
    font-family="Louize"
    font-weight="500"
    font-style="italic"
    font-stretch="normal"
    units-per-em="2048"
    panose-1="2 10 6 2 5 0 0 2 0 3"
    ascent="1499"
    descent="-549"
    x-height="922"
    cap-height="1440"
    bbox="-416 -565 3043 2191"
    underline-thickness="102"
    underline-position="-307"
    slope="-12"
    unicode-range="U+0020-FB06"
  />
<missing-glyph horiz-adv-x="614" 
 />
    <glyph glyph-name="ff" unicode="ff" horiz-adv-x="1083" 
d="M711 772h-305l-107 -668q-102 -643 -397 -643q-73 0 -121.5 34.5t-48.5 88.5q0 41 25.5 67.5t64.5 26.5q51 0 90 -57q23 -39 61 -39q26 -2 44 16.5t37.5 84.5t39.5 190l131 899h-153v96l170 11q57 259 84 340q50 148 137 227.5t199 79.5q73 0 122.5 -42t49.5 -98
q0 -45 -23 -72.5t-61 -27.5q-60 0 -95 66q-20 37 -32.5 49t-36.5 12q-99 0 -123 -239q-1 -10 -39 -291l307 2q48 218 113 348q69 134 174 213.5t231 79.5q97 0 163.5 -54.5t66.5 -130.5q0 -45 -27.5 -73.5t-71.5 -28.5q-73 0 -110 98q-30 76 -94 76q-184 0 -267 -526
q139 4 213 8l17 -35l-27 -88h-221l-107 -668q-102 -643 -397 -643q-73 0 -121.5 34.5t-48.5 88.5q0 41 25.5 67.5t64.5 26.5q51 0 90 -57q23 -39 62 -39q26 -2 44 16.5t37.5 84.5t39.5 190z" />
    <glyph glyph-name="fi" unicode="fi" horiz-adv-x="1013" 
d="M840 594l-82 -375q-10 -62 -10 -63q0 -29 24 -29q30 0 66 34t102 128l45 -33q-144 -276 -301 -276q-51 0 -85 32.5t-34 85.5q0 71 33 203l72 315q16 75 16 103q0 53 -108 53h-172l-107 -668q-102 -643 -397 -643q-73 0 -121.5 34.5t-48.5 88.5q0 41 25.5 67.5t64.5 26.5
q51 0 90 -57q23 -39 61 -39q26 -2 44 16.5t37.5 84.5t39.5 190l131 899h-153v96l170 13q50 226 114 352q69 135 174 214t234 79q107 0 178.5 -52t71.5 -137q0 -50 -29 -78t-80 -28q-42 0 -68.5 25t-50.5 83q-27 74 -96 74q-180 0 -266 -528l172 6q160 6 276 47l54 -23
q-73 -251 -86 -321z" />
    <glyph glyph-name="fl" unicode="fl" horiz-adv-x="1052" 
d="M991 1153l-229 -944q-6 -30 -6 -41q0 -25 24 -25q59 0 197 179l45 -33q-184 -309 -350 -309q-46 0 -77.5 28t-31.5 74q0 62 39 219l203 856q64 258 -92 258q-99 0 -170 -117q-74 -122 -119 -411q49 0 172 8l16 -35l-26 -88h-180l-107 -668q-102 -643 -397 -643
q-73 0 -121.5 34.5t-48.5 88.5q0 41 25.5 67.5t64.5 26.5q51 0 90 -57q23 -39 61 -39q26 -2 44 16.5t37.5 84.5t39.5 190l131 899h-153v96l170 13q50 226 114 352q69 135 174 214t234 79q107 0 170 -51q114 59 127 65l31 -33q-57 -177 -101 -354z" />
    <glyph glyph-name="ffi" unicode="ffi" horiz-adv-x="1503" 
d="M584 -127l131 899h-309l-107 -668q-102 -643 -397 -643q-73 0 -121.5 34.5t-48.5 88.5q0 41 25.5 67.5t64.5 26.5q51 0 90 -57q23 -39 61 -39q26 -2 44 16.5t37.5 84.5t39.5 190l131 899h-153v96l170 11q57 259 84 340q50 148 137 227.5t199 79.5q73 0 122.5 -42
t49.5 -98q0 -45 -23 -72.5t-61 -27.5q-60 0 -95 66q-20 37 -32.5 49t-36.5 12q-99 0 -123 -239q-1 -10 -39 -291l309 2q48 218 113 348q69 135 173.5 214t233.5 79q107 0 178.5 -52t71.5 -137q0 -50 -28.5 -78t-79.5 -28q-42 0 -68.5 25t-50.5 83q-27 74 -96 74
q-182 0 -267 -528l172 6q161 6 277 47l53 -23q-73 -251 -86 -321l-82 -375q-10 -62 -10 -63q0 -29 25 -29q30 0 66 34t102 128l45 -33q-144 -276 -301 -276q-51 0 -85 32.5t-34 85.5q0 75 32 203l72 315q17 80 17 103q0 53 -109 53h-172l-107 -668q-102 -643 -397 -643
q-73 0 -121.5 34.5t-48.5 88.5q0 41 25.5 67.5t64.5 26.5q51 0 90 -57q23 -39 62 -39q26 -2 44 16.5t37.5 84.5t39.5 190z" />
    <glyph glyph-name="ffl" unicode="ffl" horiz-adv-x="1540" 
d="M582 -127l131 899h-307l-107 -668q-102 -643 -397 -643q-73 0 -121.5 34.5t-48.5 88.5q0 41 25.5 67.5t64.5 26.5q51 0 90 -57q23 -39 61 -39q26 -2 44 16.5t37.5 84.5t39.5 190l131 899h-153v96l170 11q57 259 84 340q50 148 137 227.5t199 79.5q73 0 122.5 -42
t49.5 -98q0 -45 -23 -72.5t-61 -27.5q-60 0 -95 66q-20 37 -32.5 49t-36.5 12q-99 0 -123 -239q-1 -10 -39 -291l307 2q48 218 113 348q69 135 173.5 214t233.5 79q107 0 170 -51q114 59 127 65l31 -33q-53 -164 -100 -354l-230 -944q-6 -30 -6 -41q0 -25 25 -25
q58 0 196 179l45 -33q-184 -309 -350 -309q-46 0 -77 28t-31 74q0 62 39 219l202 856q64 258 -92 258q-100 0 -170 -117q-74 -122 -119 -411q49 0 172 8l17 -35l-27 -88h-180l-107 -668q-102 -643 -397 -643q-74 0 -122 34.5t-48 88.5q0 41 25.5 67.5t64.5 26.5q51 0 90 -57
q23 -39 62 -39q26 -2 44 16.5t37.5 84.5t39.5 190z" />
    <glyph glyph-name="longsi" unicode="&#x17f;i" horiz-adv-x="1019" 
d="M424 887l-125 -783q-102 -643 -397 -643q-73 0 -121.5 34.5t-48.5 88.5q0 41 25.5 67.5t64.5 26.5q53 0 92 -57q23 -39 59 -39q26 -2 44 16.5t37.5 84.5t39.5 190l131 899h-153v96l170 13q50 226 114 352q68 135 174.5 214t237.5 79q106 0 177 -52t71 -133q0 -50 -29 -81
t-78 -31q-83 0 -123 108q-30 76 -96 76q-183 0 -266 -526zM594 299l119 324q35 96 35 120q0 23 -21 23q-34 0 -149 -127l-41 35q175 254 292 254q47 0 75 -31.5t28 -85.5q0 -71 -51 -205l-140 -391q-20 -56 -20 -70q0 -20 20 -20q46 0 162 162l45 -33q-145 -274 -301 -274
q-47 0 -77.5 32t-30.5 80q0 55 55 207z" />
    <glyph glyph-name="longsl" unicode="&#x17f;l" horiz-adv-x="1050" 
d="M991 1153l-229 -944q-6 -30 -6 -41q0 -25 24 -25q59 0 197 179l45 -33q-184 -309 -350 -309q-46 0 -77.5 28t-31.5 74q0 62 39 219l203 856q64 258 -92 258q-99 0 -170 -117q-74 -122 -119 -411l-125 -783q-102 -643 -397 -643q-73 0 -121.5 34.5t-48.5 88.5
q0 41 25.5 67.5t64.5 26.5q51 0 90 -57q23 -39 61 -39q26 -2 44 16.5t37.5 84.5t39.5 190l131 899h-153v96l170 13q50 226 114 352q69 135 174 214t234 79q107 0 170 -51q114 59 127 65l31 -33q-57 -177 -101 -354z" />
    <glyph glyph-name="fb" unicode="fb" horiz-adv-x="1402" 
d="M1061 1343l-64 -190l-155 -506l4 -2q184 289 336 289q79 0 128.5 -69t49.5 -185q0 -334 -307 -592q-139 -115 -269 -115q-96 0 -153.5 62.5t-57.5 165.5q0 97 43 245l195 697q25 86 25 145q0 54 -36 90.5t-87 36.5q-99 0 -170 -117q-74 -122 -119 -411q49 0 172 8l16 -35
l-26 -88h-180l-107 -668q-102 -643 -397 -643q-73 0 -121.5 34.5t-48.5 88.5q0 41 25.5 67.5t64.5 26.5q51 0 90 -57q23 -39 61 -39q26 -2 44 16.5t37.5 84.5t39.5 190l131 899h-153v96l170 13q50 226 114 352q69 135 174 214t234 79q107 0 170 -51q80 27 151 65l31 -33z
M1186 651q0 56 -23.5 89.5t-62.5 33.5q-103 0 -226 -196q-120 -194 -120 -353q0 -49 27 -77.5t69 -28.5q79 0 156 80q82 85 131 208t49 244z" />
    <glyph glyph-name="flslash" unicode="f&#x142;" horiz-adv-x="1126" 
d="M1102 770l26 -102l-241 -70l-94 -389q-7 -35 -7 -41q0 -25 25 -25q59 0 197 179l45 -33q-184 -309 -351 -309q-46 0 -77 28t-31 74q0 62 39 219l57 242l-164 -45l-26 102l217 62l119 495q20 79 20 123q0 63 -34.5 99t-94.5 36q-109 0 -182 -117q-75 -117 -121 -411
q49 0 172 8l16 -35l-26 -88h-180l-107 -668q-102 -643 -397 -643q-73 0 -121.5 34.5t-48.5 88.5q0 41 25.5 67.5t64.5 26.5q51 0 90 -57q23 -39 61 -39q26 -2 44 16.5t37.5 84.5t39.5 190l131 899h-153v96l170 13q50 226 114 352q69 136 176.5 214.5t243.5 78.5
q126 0 189 -51q114 59 127 65l30 -33q-53 -164 -100 -354l-107 -436z" />
    <glyph glyph-name="fscaron" unicode="f&#x161;" horiz-adv-x="1249" 
d="M627 772h-221l-107 -668q-102 -643 -397 -643q-73 0 -121.5 34.5t-48.5 88.5q0 41 25.5 67.5t64.5 26.5q51 0 90 -57q23 -39 61 -39q26 -2 44 16.5t37.5 84.5t39.5 190l131 899h-153v96l170 13q49 227 86 338q105 307 334 307q73 0 122.5 -42t49.5 -98q0 -45 -23 -72.5
t-61 -27.5q-60 0 -95 66q-20 37 -32.5 49t-36.5 12q-99 0 -123 -239q-10 -87 -39 -287q139 4 213 8l16 -35zM971 152q0 40 -27 90q-21 44 -98 166q-101 157 -101 262q0 112 75.5 186t195.5 74q94 0 159.5 -49t65.5 -121q0 -41 -24 -67.5t-62 -26.5q-73 0 -94 82
q-21 83 -84 83q-39 0 -62.5 -25t-23.5 -67q0 -64 113 -247q72 -118 90 -166q24 -56 24 -119q0 -106 -68 -173t-176 -67q-119 0 -193.5 58.5t-74.5 136.5q0 42 25 70t65 28q68 0 92 -94q13 -54 34.5 -79.5t62.5 -25.5q86 0 86 91zM1386 1530l50 -45l-291 -410
q-39 -51 -74 -51q-44 0 -53 51l-92 436l61 19l127 -264z" />
    <glyph glyph-name="fthorn" unicode="f&#xfe;" horiz-adv-x="1427" 
d="M758 846l49 248q29 148 29 198q0 57 -32 90t-91 33q-99 0 -170 -117q-74 -122 -119 -411q25 0 151 8l17 -35l-27 -88h-159l-107 -668q-102 -643 -397 -643q-73 0 -121.5 34.5t-48.5 88.5q0 41 25.5 67.5t64.5 26.5q51 0 90 -57q23 -39 61 -39q26 -2 44 16.5t37.5 84.5
t39.5 190l131 899h-153v96l170 13q50 226 114 352q69 135 174 214t234 79q107 0 170 -51l125 65l31 -33q-52 -147 -95 -356l-47 -233q59 16 105 16q136 0 219.5 -94.5t83.5 -253.5q0 -238 -168 -412q-169 -172 -426 -178q-64 -311 -64 -377q0 -79 123 -106l-6 -54
q-86 6 -221 6q-100 0 -180 -6l-4 52q39 20 59 49.5t39 91.5q10 38 24 110q4 22 9 42.5t8 33t4 15.5l184 874l-219 -127l-31 51q171 132 271 195zM926 786l-138 -692q157 9 271 135q115 127 115 328q0 242 -179 242q-22 0 -69 -13z" />
    <glyph glyph-name="fzcaron" unicode="f&#x17e;" horiz-adv-x="1617" 
d="M942 928q76 0 193 -60q113 -58 184 -61q58 63 86.5 83.5t60.5 20.5q25 0 41.5 -18t16.5 -47q0 -66 -123 -107l-557 -516l2 -2q50 15 94 15q81 0 215 -84q134 -82 227 -82q80 0 80 69q0 30 -47 80t-47 90q0 37 23.5 60.5t60.5 23.5q52 0 90.5 -51t38.5 -123
q0 -131 -90 -215t-205 -84q-72 0 -145 31.5t-127 75.5q-124 108 -187 108q-60 0 -75 -69q-12 -58 -70 -58q-27 0 -45.5 19.5t-18.5 48.5q0 72 80 143l555 496q-2 2 -2 4q-56 -17 -90 -17q-75 0 -168 43q-93 46 -135 46q-57 0 -57 -56q0 -15 20 -51q23 -41 23 -66
q0 -35 -21.5 -56t-56.5 -21q-41 0 -68.5 31.5t-27.5 78.5q0 109 82 191q83 86 190 86zM1475 1530l49 -45l-291 -410q-39 -51 -74 -51q-44 0 -53 51l-92 436l61 19l127 -264zM627 772h-221l-107 -668q-102 -643 -397 -643q-73 0 -121.5 34.5t-48.5 88.5q0 41 25.5 67.5
t64.5 26.5q51 0 90 -57q23 -39 61 -39q26 -2 44 16.5t37.5 84.5t39.5 190l131 899h-153v96l170 13q49 227 86 338q105 307 334 307q73 0 122.5 -42t49.5 -98q0 -45 -23 -72.5t-61 -27.5q-60 0 -95 66q-20 37 -32.5 49t-36.5 12q-99 0 -123 -239q-10 -87 -39 -287
q139 4 213 8l16 -35z" />
    <glyph glyph-name="fh" unicode="fh" horiz-adv-x="1449" 
d="M991 1153l-125 -469l4 -2q91 136 159.5 191t148.5 55q68 0 110.5 -47.5t42.5 -122.5q0 -85 -26 -162q-81 -239 -134 -408q-6 -24 -6 -36q0 -21 19 -21q44 0 166 152q28 -25 45 -35q-167 -268 -308 -268q-47 0 -77.5 31.5t-30.5 80.5q0 71 45 207l100 313q19 62 19 101
q0 24 -14.5 38.5t-38.5 14.5q-79 0 -160.5 -99.5t-122.5 -269.5l-94 -397q-53 -16 -90 -16q-70 0 -99 57q82 278 99 350l182 766q64 258 -92 258q-99 0 -170 -117q-74 -122 -119 -411q49 0 172 8l16 -35l-26 -88h-180l-107 -668q-102 -643 -397 -643q-73 0 -121.5 34.5
t-48.5 88.5q0 41 25.5 67.5t64.5 26.5q51 0 90 -57q23 -39 61 -39q26 -2 44 16.5t37.5 84.5t39.5 190l131 899h-153v96l170 13q50 226 114 352q69 135 174 214t234 79q107 0 170 -51q114 59 127 65l31 -33q-30 -88 -101 -354z" />
    <glyph glyph-name="fj" unicode="fj" horiz-adv-x="985" 
d="M856 596l-102 -543q-62 -323 -154 -456q-89 -136 -225 -136q-64 0 -107 31.5t-43 81.5q0 38 23.5 63t58.5 25q39 0 84 -51q26 -33 64 -33q26 0 43.5 25t29.5 80q12 53 21 108q4 21 20 146q8 62 25 161l92 520q14 74 14 97q0 57 -116 57h-178l-107 -668
q-102 -643 -397 -643q-73 0 -121.5 34.5t-48.5 88.5q0 41 25.5 67.5t64.5 26.5q51 0 90 -57q23 -39 61 -39q26 -2 44 16.5t37.5 84.5t39.5 190l131 899h-153v96l170 13q50 226 114 352q69 135 174 214t234 79q107 0 178.5 -52t71.5 -137q0 -50 -29 -78t-80 -28
q-42 0 -68.5 25t-50.5 83q-27 74 -96 74q-180 0 -266 -528l172 6q160 6 276 47l54 -23q-38 -152 -70 -319z" />
    <glyph glyph-name="fk" unicode="fk" horiz-adv-x="1411" 
d="M991 1153l-119 -469h5q88 133 156.5 188.5t146.5 55.5q73 0 122.5 -50.5t49.5 -127.5q0 -98 -72 -163.5t-240 -115.5q23 -115 68 -233q43 -113 80 -113q24 0 49 37.5t68 132.5l51 -19q-82 -296 -215 -296q-109 0 -176 149q-55 129 -91 279l21 75q283 99 283 226
q0 31 -20 53t-52 22q-76 0 -164 -102q-88 -101 -131 -285l-94 -397q-53 -16 -90 -16q-67 0 -97 55q56 182 97 352l178 760q35 122 10.5 190.5t-102.5 73.5q-99 0 -170 -117q-74 -122 -119 -411q49 0 172 8l16 -35l-26 -88h-180l-107 -668q-102 -643 -397 -643
q-73 0 -121.5 34.5t-48.5 88.5q0 41 25.5 67.5t64.5 26.5q51 0 90 -57q23 -39 61 -39q26 -2 44 16.5t37.5 84.5t39.5 190l131 899h-153v96l170 13q50 226 114 352q69 135 174 214t234 79q107 0 170 -51l65 32q14 6 27 13t23 12.5t14 7.5l31 -33q-65 -199 -103 -354z" />
    <glyph glyph-name="fadieresis" unicode="f&#xe4;" horiz-adv-x="1544" 
d="M627 772h-221l-107 -668q-102 -643 -397 -643q-73 0 -121.5 34.5t-48.5 88.5q0 41 25.5 67.5t64.5 26.5q51 0 90 -57q23 -39 61 -39q26 -2 44 16.5t37.5 84.5t39.5 190l131 899h-153v96l170 13q49 227 86 338q105 307 334 307q73 0 122.5 -42t49.5 -98q0 -45 -23 -72.5
t-61 -27.5q-60 0 -95 66q-20 37 -32.5 49t-36.5 12q-99 0 -123 -239q-10 -87 -39 -287q139 4 213 8l16 -35zM803 227q0 -104 69 -104q54 0 135.5 96t153.5 260q40 91 66 201q-35 92 -107 92q-81 0 -159 -96q-75 -93 -117 -223q-41 -128 -41 -226zM629 164q0 120 61 266
q59 145 158 270q179 226 336 226q14 0 26 -1.5l20 -2.5t18 -5.5t14 -6t14.5 -9.5t12 -9t13.5 -12t13 -12l53 82q64 -9 107 -47q-81 -245 -117 -377l-31 -106l-31 -109q-24 -123 -24 -155q0 -25 22 -25q52 0 172 166l45 -35q-92 -153 -162.5 -219t-140.5 -66
q-51 0 -79.5 30.5t-28.5 84.5q0 77 35 193l-5 4q-176 -324 -335 -324q-77 0 -121.5 54t-44.5 145zM952 1333q0 49 34 83t83 34q51 0 85 -33.5t34 -83.5q0 -51 -34 -85t-85 -34q-50 0 -83.5 34t-33.5 85zM1292 1333q0 49 34 83t83 34q51 0 86 -34t35 -83q0 -51 -35 -85
t-86 -34q-50 0 -83.5 34t-33.5 85z" />
    <glyph glyph-name="fatilde" unicode="f&#xe3;" horiz-adv-x="1544" 
d="M627 772h-221l-107 -668q-102 -643 -397 -643q-73 0 -121.5 34.5t-48.5 88.5q0 41 25.5 67.5t64.5 26.5q51 0 90 -57q23 -39 61 -39q26 -2 44 16.5t37.5 84.5t39.5 190l131 899h-153v96l170 13q49 227 86 338q105 307 334 307q73 0 122.5 -42t49.5 -98q0 -45 -23 -72.5
t-61 -27.5q-60 0 -95 66q-20 37 -32.5 49t-36.5 12q-99 0 -123 -239q-10 -87 -39 -287q139 4 213 8l16 -35zM803 227q0 -104 69 -104q54 0 135.5 96t153.5 260q40 91 66 201q-35 92 -107 92q-81 0 -159 -96q-75 -93 -117 -223q-41 -128 -41 -226zM629 164q0 120 61 266
q59 145 158 270q179 226 336 226q14 0 26 -1.5l20 -2.5t18 -5.5t14 -6t14.5 -9.5t12 -9t13.5 -12t13 -12l53 82q64 -9 107 -47q-81 -245 -117 -377l-31 -106l-31 -109q-24 -123 -24 -155q0 -25 22 -25q52 0 172 166l45 -35q-92 -153 -162.5 -219t-140.5 -66
q-51 0 -79.5 30.5t-28.5 84.5q0 77 35 193l-5 4q-176 -324 -335 -324q-77 0 -121.5 54t-44.5 145zM1270 1386q58 -38 106 -38q68 0 142 59l38 -33q-38 -75 -98 -118.5t-123 -43.5q-41 0 -121 41q-77 41 -114 41q-64 0 -137 -61l-39 33q38 77 96.5 120.5t122.5 43.5
q59 0 127 -44z" />
    <glyph glyph-name="fegrave" unicode="f&#xe8;" horiz-adv-x="1335" 
d="M627 772h-221l-107 -668q-102 -643 -397 -643q-73 0 -121.5 34.5t-48.5 88.5q0 41 25.5 67.5t64.5 26.5q51 0 90 -57q23 -39 61 -39q26 -2 44 16.5t37.5 84.5t39.5 190l131 899h-153v96l170 13q49 227 86 338q105 307 334 307q73 0 122.5 -42t49.5 -98q0 -45 -23 -72.5
t-61 -27.5q-60 0 -95 66q-20 37 -32.5 49t-36.5 12q-99 0 -123 -239q-10 -87 -39 -287q139 4 213 8l16 -35zM1327 766q0 -120 -119.5 -212.5t-369.5 -137.5q-19 -71 -19 -144q0 -137 99 -137q52 0 107 44t132 149l51 -31q-154 -330 -344 -330q-103 0 -162 68.5t-59 187.5
q0 258 182 496q163 211 332 211q77 0 123.5 -47t46.5 -117zM1098 807q-67 0 -135 -87.5t-109 -232.5q303 85 303 250q0 31 -16.5 50.5t-42.5 19.5zM1214 1393l-2 -392l-61 -10l-117 344q-18 53 -18 88q0 45 29.5 78t70.5 33q45 0 71.5 -37t26.5 -104z" />
    <glyph glyph-name="fecircumflex" unicode="f&#xea;" horiz-adv-x="1335" 
d="M627 772h-221l-107 -668q-102 -643 -397 -643q-73 0 -121.5 34.5t-48.5 88.5q0 41 25.5 67.5t64.5 26.5q51 0 90 -57q23 -39 61 -39q26 -2 44 16.5t37.5 84.5t39.5 190l131 899h-153v96l170 13q49 227 86 338q105 307 334 307q73 0 122.5 -42t49.5 -98q0 -45 -23 -72.5
t-61 -27.5q-60 0 -95 66q-20 37 -32.5 49t-36.5 12q-99 0 -123 -239q-10 -87 -39 -287q139 4 213 8l16 -35zM1327 766q0 -120 -119.5 -212.5t-369.5 -137.5q-19 -71 -19 -144q0 -137 99 -137q52 0 107 44t132 149l51 -31q-154 -330 -344 -330q-103 0 -162 68.5t-59 187.5
q0 258 182 496q163 211 332 211q77 0 123.5 -47t46.5 -117zM1098 807q-67 0 -135 -87.5t-109 -232.5q303 85 303 250q0 31 -16.5 50.5t-42.5 19.5zM936 1024l-49 45l293 410q34 51 73 51q43 0 52 -51l92 -437l-62 -20l-125 264z" />
    <glyph glyph-name="fedieresis" unicode="f&#xeb;" horiz-adv-x="1335" 
d="M627 772h-221l-107 -668q-102 -643 -397 -643q-73 0 -121.5 34.5t-48.5 88.5q0 41 25.5 67.5t64.5 26.5q51 0 90 -57q23 -39 61 -39q26 -2 44 16.5t37.5 84.5t39.5 190l131 899h-153v96l170 13q49 227 86 338q105 307 334 307q73 0 122.5 -42t49.5 -98q0 -45 -23 -72.5
t-61 -27.5q-60 0 -95 66q-20 37 -32.5 49t-36.5 12q-99 0 -123 -239q-10 -87 -39 -287q139 4 213 8l16 -35zM1327 766q0 -120 -119.5 -212.5t-369.5 -137.5q-19 -71 -19 -144q0 -137 99 -137q52 0 107 44t132 149l51 -31q-154 -330 -344 -330q-103 0 -162 68.5t-59 187.5
q0 258 182 496q163 211 332 211q77 0 123.5 -47t46.5 -117zM1098 807q-67 0 -135 -87.5t-109 -232.5q303 85 303 250q0 31 -16.5 50.5t-42.5 19.5zM911 1333q0 49 33.5 83t83.5 34q51 0 85 -33.5t34 -83.5q0 -51 -34 -85t-85 -34q-50 0 -83.5 34t-33.5 85zM1251 1333
q0 49 33.5 83t83.5 34q51 0 86 -34t35 -83q0 -51 -35 -85t-86 -34q-50 0 -83.5 34t-33.5 85z" />
    <glyph glyph-name="fiacute" unicode="f&#xed;" horiz-adv-x="1013" 
d="M424 885l172 6q160 6 276 47l54 -23q-73 -251 -86 -321l-82 -375q-10 -62 -10 -63q0 -29 24 -29q30 0 66 34t102 128l45 -33q-144 -276 -301 -276q-51 0 -85 32.5t-34 85.5q0 71 33 203l72 315q16 75 16 103q0 53 -108 53h-172l-107 -668q-102 -643 -397 -643
q-73 0 -121.5 34.5t-48.5 88.5q0 41 25.5 67.5t64.5 26.5q51 0 90 -57q23 -39 61 -39q26 -2 44 16.5t37.5 84.5t39.5 190l131 899h-153v96l170 13q49 227 86 338q105 307 334 307q73 0 122.5 -42t49.5 -98q0 -45 -23 -72.5t-61 -27.5q-60 0 -95 66q-20 37 -32.5 49t-36.5 12
q-99 0 -123 -239q-9 -89 -39 -289zM825 991l-51 37l174 383q30 64 60.5 92.5t72.5 28.5q41 0 67 -27t26 -69q0 -50 -70 -129z" />
    <glyph glyph-name="ficircumflex" unicode="f&#xee;" horiz-adv-x="1148" 
d="M627 772h-221l-107 -668q-102 -643 -397 -643q-73 0 -121.5 34.5t-48.5 88.5q0 41 25.5 67.5t64.5 26.5q51 0 90 -57q23 -39 61 -39q26 -2 44 16.5t37.5 84.5t39.5 190l131 899h-153v96l170 13q49 227 86 338q105 307 334 307q73 0 122.5 -42t49.5 -98q0 -45 -23 -72.5
t-61 -27.5q-60 0 -95 66q-20 37 -32.5 49t-36.5 12q-99 0 -123 -239q-10 -87 -39 -287q139 4 213 8l16 -35zM723 299l119 324q35 96 35 120q0 23 -21 23q-34 0 -149 -127l-41 35q175 254 292 254q47 0 75 -31.5t28 -85.5q0 -71 -51 -205l-140 -391q-20 -56 -20 -70
q0 -20 20 -20q46 0 162 162l45 -33q-145 -274 -301 -274q-47 0 -77.5 32t-30.5 80q0 55 55 207zM784 1024l-49 45l293 410q34 51 74 51q42 0 51 -51l92 -437l-61 -20l-125 264z" />
    <glyph glyph-name="fidieresis" unicode="f&#xef;" horiz-adv-x="1169" 
d="M627 772h-221l-107 -668q-102 -643 -397 -643q-73 0 -121.5 34.5t-48.5 88.5q0 41 25.5 67.5t64.5 26.5q51 0 90 -57q23 -39 61 -39q26 -2 44 16.5t37.5 84.5t39.5 190l131 899h-153v96l170 13q49 227 86 338q105 307 334 307q73 0 122.5 -42t49.5 -98q0 -45 -23 -72.5
t-61 -27.5q-60 0 -95 66q-20 37 -32.5 49t-36.5 12q-99 0 -123 -239q-10 -87 -39 -287q139 4 213 8l16 -35zM743 299l119 324q35 96 35 120q0 23 -20 23q-35 0 -150 -127l-41 35q175 254 293 254q47 0 74.5 -31.5t27.5 -85.5q0 -71 -51 -205l-139 -391q-21 -59 -21 -70
q0 -20 21 -20q46 0 162 162l45 -33q-145 -274 -301 -274q-47 0 -78 32t-31 80q0 55 55 207zM774 1169q0 49 34 83t83 34q51 0 85 -33.5t34 -83.5q0 -51 -34 -84.5t-85 -33.5q-50 0 -83.5 33.5t-33.5 84.5zM1114 1169q0 49 34 83t83 34q51 0 86 -34t35 -83q0 -51 -35 -84.5
t-86 -33.5q-50 0 -83.5 33.5t-33.5 84.5z" />
    <glyph glyph-name="fntilde" unicode="f&#xf1;" horiz-adv-x="1587" 
d="M991 651l4 -2q165 281 318 281q68 0 114 -49.5t46 -122.5q0 -62 -31 -160q-57 -171 -131 -410q-8 -24 -8 -38q0 -19 20 -19q43 0 166 156l45 -35q-163 -272 -307 -272q-44 0 -77.5 33t-33.5 75q0 66 47 209l103 315q16 59 16 101q0 55 -53 55q-74 0 -155.5 -100
t-121.5 -269l-94 -399q-43 -16 -88 -16q-66 0 -100 55q85 284 100 356l64 267q14 60 14 88q0 26 -21 26q-45 0 -127 -125l-47 37q76 132 137.5 187t124.5 55q43 0 73 -36t30 -91q0 -44 -27 -152zM627 772h-221l-107 -668q-102 -643 -397 -643q-73 0 -121.5 34.5t-48.5 88.5
q0 41 25.5 67.5t64.5 26.5q51 0 90 -57q23 -39 61 -39q26 -2 44 16.5t37.5 84.5t39.5 190l131 899h-153v96l170 13q49 227 86 338q105 307 334 307q73 0 122.5 -42t49.5 -98q0 -45 -23 -72.5t-61 -27.5q-60 0 -95 66q-20 37 -32.5 49t-36.5 12q-99 0 -123 -239
q-10 -87 -39 -287q139 4 213 8l16 -35zM1290 1386q58 -38 107 -38q67 0 141 59l39 -33q-38 -75 -98 -118.5t-123 -43.5q-41 0 -121 41q-77 41 -115 41q-64 0 -137 -61l-39 33q38 77 96.5 120.5t122.5 43.5q59 0 127 -44z" />
    <glyph glyph-name="focircumflex" unicode="f&#xf4;" horiz-adv-x="1464" 
d="M627 772h-221l-107 -668q-102 -643 -397 -643q-73 0 -121.5 34.5t-48.5 88.5q0 41 25.5 67.5t64.5 26.5q51 0 90 -57q23 -39 61 -39q26 -2 44 16.5t37.5 84.5t39.5 190l131 899h-153v96l170 13q49 227 86 338q105 307 334 307q73 0 122.5 -42t49.5 -98q0 -45 -23 -72.5
t-61 -27.5q-60 0 -95 66q-20 37 -32.5 49t-36.5 12q-99 0 -123 -239q-10 -87 -39 -287q139 4 213 8l16 -35zM1208 582q0 245 -121 245q-59 0 -114 -61q-129 -144 -129 -465q0 -238 119 -238q64 0 122 70q123 150 123 449zM963 -33q-137 0 -222.5 102t-85.5 271
q0 159 63.5 297t168.5 217q95 74 203 74q126 0 217 -101q92 -103 92 -288q0 -155 -60.5 -287t-160.5 -209q-101 -76 -215 -76zM938 1024l-49 45l293 410q34 51 73 51q43 0 52 -51l92 -437l-62 -20l-125 264z" />
    <glyph glyph-name="fodieresis" unicode="f&#xf6;" horiz-adv-x="1464" 
d="M627 772h-221l-107 -668q-102 -643 -397 -643q-73 0 -121.5 34.5t-48.5 88.5q0 41 25.5 67.5t64.5 26.5q51 0 90 -57q23 -39 61 -39q26 -2 44 16.5t37.5 84.5t39.5 190l131 899h-153v96l170 13q49 227 86 338q105 307 334 307q73 0 122.5 -42t49.5 -98q0 -45 -23 -72.5
t-61 -27.5q-60 0 -95 66q-20 37 -32.5 49t-36.5 12q-99 0 -123 -239q-10 -87 -39 -287q139 4 213 8l16 -35zM1208 582q0 245 -121 245q-59 0 -114 -61q-129 -144 -129 -465q0 -238 119 -238q64 0 122 70q123 150 123 449zM963 -33q-137 0 -222.5 102t-85.5 271
q0 159 63.5 297t168.5 217q95 74 203 74q126 0 217 -101q92 -103 92 -288q0 -155 -60.5 -287t-160.5 -209q-101 -76 -215 -76zM918 1333q0 50 33.5 83.5t82.5 33.5q51 0 85 -33.5t34 -83.5q0 -51 -34 -85t-85 -34q-50 0 -83 34t-33 85zM1257 1333q0 49 33.5 83t83.5 34
q51 0 86 -34t35 -83q0 -51 -35 -85t-86 -34q-50 0 -83.5 34t-33.5 85z" />
    <glyph glyph-name="fotilde" unicode="f&#xf5;" horiz-adv-x="1464" 
d="M627 772h-221l-107 -668q-102 -643 -397 -643q-73 0 -121.5 34.5t-48.5 88.5q0 41 25.5 67.5t64.5 26.5q51 0 90 -57q23 -39 61 -39q26 -2 44 16.5t37.5 84.5t39.5 190l131 899h-153v96l170 13q49 227 86 338q105 307 334 307q73 0 122.5 -42t49.5 -98q0 -45 -23 -72.5
t-61 -27.5q-60 0 -95 66q-20 37 -32.5 49t-36.5 12q-99 0 -123 -239q-10 -87 -39 -287q139 4 213 8l16 -35zM1208 582q0 245 -121 245q-59 0 -114 -61q-129 -144 -129 -465q0 -238 119 -238q64 0 122 70q123 150 123 449zM963 -33q-137 0 -222.5 102t-85.5 271
q0 159 63.5 297t168.5 217q95 74 203 74q126 0 217 -101q92 -103 92 -288q0 -155 -60.5 -287t-160.5 -209q-101 -76 -215 -76zM1243 1386q58 -38 107 -38q67 0 141 59l39 -33q-38 -75 -98 -118.5t-123 -43.5q-41 0 -121 41q-77 41 -115 41q-64 0 -137 -61l-39 33
q38 77 96.5 120.5t122.5 43.5q59 0 127 -44z" />
    <glyph glyph-name="fudieresis" unicode="f&#xfc;" horiz-adv-x="1607" 
d="M1217 410q-128 -262 -207 -344q-80 -86 -176 -86q-66 0 -107 43t-41 106q0 77 51 205l123 313q25 67 25 96q0 35 -27 35q-40 0 -160 -147l-45 37q98 143 165.5 201.5t133.5 58.5q48 0 80.5 -36t32.5 -95q0 -66 -51 -197l-123 -328q-21 -55 -21 -86q0 -47 48 -47
q65 0 161 135q115 166 252 547l29 80q21 12 51 12q80 0 117 -67q-83 -227 -113 -328q-61 -199 -78 -305q-6 -40 -6 -53q0 -27 23 -27q43 0 162 146q11 -7 43 -35q-167 -264 -293 -264q-51 0 -80 33.5t-29 90.5q0 100 64 304q-4 0 -4 2zM627 772h-221l-107 -668
q-102 -643 -397 -643q-73 0 -121.5 34.5t-48.5 88.5q0 41 25.5 67.5t64.5 26.5q51 0 90 -57q23 -39 61 -39q26 -2 44 16.5t37.5 84.5t39.5 190l131 899h-153v96l170 13q49 227 86 338q105 307 334 307q73 0 122.5 -42t49.5 -98q0 -45 -23 -72.5t-61 -27.5q-60 0 -95 66
q-20 37 -32.5 49t-36.5 12q-99 0 -123 -239q-10 -87 -39 -287q139 4 213 8l16 -35zM989 1333q0 49 33.5 83t83.5 34q51 0 85 -33.5t34 -83.5q0 -51 -34 -85t-85 -34q-50 0 -83.5 34t-33.5 85zM1329 1333q0 49 33.5 83t83.5 34q51 0 86 -34t35 -83q0 -51 -35 -85t-86 -34
q-50 0 -83.5 34t-33.5 85z" />
    <glyph glyph-name="fydieresis" unicode="f&#xff;" horiz-adv-x="1511" 
d="M627 772h-221l-107 -668q-102 -643 -397 -643q-73 0 -121.5 34.5t-48.5 88.5q0 41 25.5 67.5t64.5 26.5q51 0 90 -57q23 -39 61 -39q26 -2 44 16.5t37.5 84.5t39.5 190l131 899h-153v96l170 13q49 227 86 338q105 307 334 307q73 0 122.5 -42t49.5 -98q0 -45 -23 -72.5
t-61 -27.5q-60 0 -95 66q-20 37 -32.5 49t-36.5 12q-99 0 -123 -239q-10 -87 -39 -287q139 4 213 8l16 -35zM958 72q0 164 -34 346q-36 194 -76 287q-21 55 -45 55q-55 0 -125 -211l-55 16q83 363 235 363q103 0 162 -164q100 -274 100 -625q0 -63 -8 -131h4
q168 381 168 766q0 71 -12 133q29 29 86 29q34 0 53 -8q10 -45 10 -103q0 -372 -180 -753q-151 -318 -377 -492q-189 -145 -403 -145q-65 0 -104.5 28t-39.5 70q0 39 27.5 64.5t71.5 25.5q28 0 84 -24q61 -25 114 -25q140 0 242 141q102 138 102 357zM881 1282
q0 50 33.5 83.5t82.5 33.5q51 0 85 -33.5t34 -83.5q0 -51 -34 -85t-85 -34q-50 0 -83 34t-33 85zM1221 1282q0 50 33.5 83.5t82.5 33.5q51 0 86 -34t35 -83q0 -51 -35 -85t-86 -34q-50 0 -83 34t-33 85z" />
    <glyph glyph-name="flcaron" unicode="f&#x13e;" horiz-adv-x="1128" 
d="M991 1153l-229 -944q-6 -30 -6 -41q0 -25 24 -25q59 0 197 179l45 -33q-184 -309 -350 -309q-46 0 -77.5 28t-31.5 74q0 62 39 219l203 856q64 258 -92 258q-99 0 -170 -117q-74 -122 -119 -411q49 0 172 8l16 -35l-26 -88h-180l-107 -668q-102 -643 -397 -643
q-73 0 -121.5 34.5t-48.5 88.5q0 41 25.5 67.5t64.5 26.5q51 0 90 -57q23 -39 61 -39q26 -2 44 16.5t37.5 84.5t39.5 190l131 899h-153v96l170 13q50 226 114 352q69 135 174 214t234 79q107 0 170 -51q114 59 127 65l31 -33q-57 -177 -101 -354zM1305 1563q56 0 93.5 -47.5
t37.5 -120.5q0 -110 -77 -187.5t-220 -109.5l-21 57q101 38 144 73.5t43 78.5q0 32 -39 61q-64 46 -64 98q0 42 28.5 69.5t74.5 27.5z" />
    <glyph glyph-name="fabreve" unicode="f&#x103;" horiz-adv-x="1544" 
d="M803 227q0 -104 69 -104q54 0 135.5 96t153.5 260q40 91 66 201q-35 92 -107 92q-81 0 -159 -96q-75 -93 -117 -223q-41 -128 -41 -226zM629 164q0 120 61 266q59 145 158 270q179 226 336 226q14 0 26 -1.5l20 -2.5t18 -5.5t14 -6t14.5 -9.5t12 -9t13.5 -12t13 -12
l53 82q64 -9 107 -47q-81 -245 -117 -377l-31 -106l-31 -109q-24 -123 -24 -155q0 -25 22 -25q52 0 172 166l45 -35q-92 -153 -162.5 -219t-140.5 -66q-51 0 -79.5 30.5t-28.5 84.5q0 77 35 193l-5 4q-176 -324 -335 -324q-77 0 -121.5 54t-44.5 145zM1223 1075
q-98 0 -152.5 70t-54.5 194q0 69 16 170h68v-39q0 -123 31 -176t98 -53q156 0 258 268l67 -12q-40 -207 -128.5 -314.5t-202.5 -107.5zM627 772h-221l-107 -668q-102 -643 -397 -643q-73 0 -121.5 34.5t-48.5 88.5q0 41 25.5 67.5t64.5 26.5q51 0 90 -57q23 -39 61 -39
q26 -2 44 16.5t37.5 84.5t39.5 190l131 899h-153v96l170 13q49 227 86 338q105 307 334 307q73 0 122.5 -42t49.5 -98q0 -45 -23 -72.5t-61 -27.5q-60 0 -95 66q-20 37 -32.5 49t-36.5 12q-99 0 -123 -239q-10 -87 -39 -287q139 4 213 8l16 -35z" />
    <glyph glyph-name="flacute" unicode="f&#x13a;" horiz-adv-x="1052" 
d="M991 1153l-229 -944q-6 -30 -6 -41q0 -25 24 -25q59 0 197 179l45 -33q-184 -309 -350 -309q-46 0 -77.5 28t-31.5 74q0 62 39 219l203 856q64 258 -92 258q-99 0 -170 -117q-74 -122 -119 -411q49 0 172 8l16 -35l-26 -88h-180l-107 -668q-102 -643 -397 -643
q-73 0 -121.5 34.5t-48.5 88.5q0 41 25.5 67.5t64.5 26.5q51 0 90 -57q23 -39 61 -39q26 -2 44 16.5t37.5 84.5t39.5 190l131 899h-153v96l170 13q50 226 114 352q69 135 174 214t234 79q107 0 170 -51q114 59 127 65l31 -33q-57 -177 -101 -354zM764 1563l-21 57l312 184
q65 39 110 39q38 0 64 -25t26 -63q0 -83 -127 -110z" />
    <glyph glyph-name="fccaron" unicode="f&#x10d;" horiz-adv-x="1308" 
d="M1239 662q-36 0 -58 22.5t-29.5 49t-24 49t-42.5 22.5q-55 0 -113 -63t-98 -173q-57 -149 -57 -301q0 -133 109 -133q103 0 241 193l52 -31q-151 -330 -369 -330q-93 0 -150 68t-57 180q0 256 162 485q164 232 346 232q74 0 125 -47.5t51 -120.5q0 -43 -25.5 -72.5
t-62.5 -29.5zM1475 1530l49 -45l-291 -410q-39 -51 -74 -51q-44 0 -53 51l-92 436l61 19l127 -264zM627 772h-221l-107 -668q-102 -643 -397 -643q-73 0 -121.5 34.5t-48.5 88.5q0 41 25.5 67.5t64.5 26.5q51 0 90 -57q23 -39 61 -39q26 -2 44 16.5t37.5 84.5t39.5 190
l131 899h-153v96l170 13q49 227 86 338q105 307 334 307q73 0 122.5 -42t49.5 -98q0 -45 -23 -72.5t-61 -27.5q-60 0 -95 66q-20 37 -32.5 49t-36.5 12q-99 0 -123 -239q-10 -87 -39 -287q139 4 213 8l16 -35z" />
    <glyph glyph-name="fecaron" unicode="f&#x11b;" horiz-adv-x="1335" 
d="M1327 766q0 -120 -119.5 -212.5t-369.5 -137.5q-19 -71 -19 -144q0 -137 99 -137q52 0 107 44t132 149l51 -31q-154 -330 -344 -330q-103 0 -162 68.5t-59 187.5q0 258 182 496q163 211 332 211q77 0 123.5 -47t46.5 -117zM1098 807q-67 0 -135 -87.5t-109 -232.5
q303 85 303 250q0 31 -16.5 50.5t-42.5 19.5zM1460 1530l49 -45l-290 -410q-39 -51 -74 -51q-44 0 -53 51l-93 436l62 19l127 -264zM627 772h-221l-107 -668q-102 -643 -397 -643q-73 0 -121.5 34.5t-48.5 88.5q0 41 25.5 67.5t64.5 26.5q51 0 90 -57q23 -39 61 -39
q26 -2 44 16.5t37.5 84.5t39.5 190l131 899h-153v96l170 13q49 227 86 338q105 307 334 307q73 0 122.5 -42t49.5 -98q0 -45 -23 -72.5t-61 -27.5q-60 0 -95 66q-20 37 -32.5 49t-36.5 12q-99 0 -123 -239q-10 -87 -39 -287q139 4 213 8l16 -35z" />
    <glyph glyph-name="fohungarumlaut" unicode="f&#x151;" horiz-adv-x="1464" 
d="M627 772h-221l-107 -668q-102 -643 -397 -643q-73 0 -121.5 34.5t-48.5 88.5q0 41 25.5 67.5t64.5 26.5q51 0 90 -57q23 -39 61 -39q26 -2 44 16.5t37.5 84.5t39.5 190l131 899h-153v96l170 13q49 227 86 338q105 307 334 307q73 0 122.5 -42t49.5 -98q0 -45 -23 -72.5
t-61 -27.5q-60 0 -95 66q-20 37 -32.5 49t-36.5 12q-99 0 -123 -239q-10 -87 -39 -287q139 4 213 8l16 -35zM1208 582q0 245 -121 245q-59 0 -114 -61q-129 -144 -129 -465q0 -238 119 -238q64 0 122 70q123 150 123 449zM963 -33q-137 0 -222.5 102t-85.5 271
q0 159 63.5 297t168.5 217q95 74 203 74q126 0 217 -101q92 -103 92 -288q0 -155 -60.5 -287t-160.5 -209q-101 -76 -215 -76zM1227 1012l-47 35l168 383q44 102 114 102q37 0 61.5 -27t24.5 -65q0 -49 -53 -111zM950 1012l-47 35l168 383q43 102 115 102q37 0 61.5 -27
t24.5 -65q0 -49 -53 -111z" />
    <glyph glyph-name="frcaron" unicode="f&#x159;" horiz-adv-x="1349" 
d="M1288 670q-49 0 -76 49q-22 36 -34 39q-4 2 -13 2q-28 0 -61 -39q-38 -40 -84.5 -159t-81.5 -286l-18 -92q-32 -166 -35 -184q-37 -16 -94 -16q-69 0 -95 51q42 170 80 356l55 273q12 50 10.5 80t-24.5 30q-42 0 -125 -121q-13 10 -24.5 18.5t-16.5 12t-6 4.5
q77 131 138.5 185.5t123.5 54.5q45 0 74 -35.5t29 -91.5q0 -52 -29 -187h4q66 169 127 241.5t129 72.5q56 0 94.5 -41.5t38.5 -102.5q0 -53 -24 -83.5t-62 -30.5zM1393 1530l49 -45l-291 -410q-39 -51 -74 -51q-44 0 -53 51l-92 436l61 19l127 -264zM627 772h-221l-107 -668
q-102 -643 -397 -643q-73 0 -121.5 34.5t-48.5 88.5q0 41 25.5 67.5t64.5 26.5q51 0 90 -57q23 -39 61 -39q26 -2 44 16.5t37.5 84.5t39.5 190l131 899h-153v96l170 13q49 227 86 338q105 307 334 307q73 0 122.5 -42t49.5 -98q0 -45 -23 -72.5t-61 -27.5q-60 0 -95 66
q-20 37 -32.5 49t-36.5 12q-99 0 -123 -239q-10 -87 -39 -287q139 4 213 8l16 -35z" />
    <glyph glyph-name="furing" unicode="f&#x16f;" horiz-adv-x="1607" 
d="M1217 410q-128 -262 -207 -344q-80 -86 -176 -86q-66 0 -107 43t-41 106q0 77 51 205l123 313q25 67 25 96q0 35 -27 35q-40 0 -160 -147l-45 37q98 143 165.5 201.5t133.5 58.5q48 0 80.5 -36t32.5 -95q0 -66 -51 -197l-123 -328q-21 -55 -21 -86q0 -47 48 -47
q65 0 161 135q115 166 252 547l29 80q21 12 51 12q80 0 117 -67q-83 -227 -113 -328q-61 -199 -78 -305q-6 -40 -6 -53q0 -27 23 -27q43 0 162 146q11 -7 43 -35q-167 -264 -293 -264q-51 0 -80 33.5t-29 90.5q0 100 64 304q-4 0 -4 2zM1044 1317q0 90 66 156q64 67 158 67
q91 0 155 -67q68 -65 68 -156q0 -93 -68 -158q-65 -65 -155 -65q-92 0 -158 65.5t-66 157.5zM1266 1202q47 0 78.5 32.5t31.5 80.5t-31.5 81.5t-78.5 33.5q-44 0 -76.5 -34t-32.5 -81t32 -80t77 -33zM627 772h-221l-107 -668q-102 -643 -397 -643q-73 0 -121.5 34.5
t-48.5 88.5q0 41 25.5 67.5t64.5 26.5q51 0 90 -57q23 -39 61 -39q26 -2 44 16.5t37.5 84.5t39.5 190l131 899h-153v96l170 13q49 227 86 338q105 307 334 307q73 0 122.5 -42t49.5 -98q0 -45 -23 -72.5t-61 -27.5q-60 0 -95 66q-20 37 -32.5 49t-36.5 12q-99 0 -123 -239
q-10 -87 -39 -287q139 4 213 8l16 -35z" />
    <glyph glyph-name="famacron" unicode="f&#x101;" horiz-adv-x="1544" 
d="M627 772h-221l-107 -668q-102 -643 -397 -643q-73 0 -121.5 34.5t-48.5 88.5q0 41 25.5 67.5t64.5 26.5q51 0 90 -57q23 -39 61 -39q26 -2 44 16.5t37.5 84.5t39.5 190l131 899h-153v96l170 13q49 227 86 338q105 307 334 307q73 0 122.5 -42t49.5 -98q0 -45 -23 -72.5
t-61 -27.5q-60 0 -95 66q-20 37 -32.5 49t-36.5 12q-99 0 -123 -239q-10 -87 -39 -287q139 4 213 8l16 -35zM803 227q0 -104 69 -104q54 0 135.5 96t153.5 260q40 91 66 201q-35 92 -107 92q-81 0 -159 -96q-75 -93 -117 -223q-41 -128 -41 -226zM629 164q0 120 61 266
q59 145 158 270q179 226 336 226q14 0 26 -1.5l20 -2.5t18 -5.5t14 -6t14.5 -9.5t12 -9t13.5 -12t13 -12l53 82q64 -9 107 -47q-81 -245 -117 -377l-31 -106l-31 -109q-24 -123 -24 -155q0 -25 22 -25q52 0 172 166l45 -35q-92 -153 -162.5 -219t-140.5 -66
q-51 0 -79.5 30.5t-28.5 84.5q0 77 35 193l-5 4q-176 -324 -335 -324q-77 0 -121.5 54t-44.5 145zM1503 1253h-538l24 129h539z" />
    <glyph glyph-name="femacron" unicode="f&#x113;" horiz-adv-x="1335" 
d="M627 772h-221l-107 -668q-102 -643 -397 -643q-73 0 -121.5 34.5t-48.5 88.5q0 41 25.5 67.5t64.5 26.5q51 0 90 -57q23 -39 61 -39q26 -2 44 16.5t37.5 84.5t39.5 190l131 899h-153v96l170 13q49 227 86 338q105 307 334 307q73 0 122.5 -42t49.5 -98q0 -45 -23 -72.5
t-61 -27.5q-60 0 -95 66q-20 37 -32.5 49t-36.5 12q-99 0 -123 -239q-10 -87 -39 -287q139 4 213 8l16 -35zM1327 766q0 -120 -119.5 -212.5t-369.5 -137.5q-19 -71 -19 -144q0 -137 99 -137q52 0 107 44t132 149l51 -31q-154 -330 -344 -330q-103 0 -162 68.5t-59 187.5
q0 258 182 496q163 211 332 211q77 0 123.5 -47t46.5 -117zM1098 807q-67 0 -135 -87.5t-109 -232.5q303 85 303 250q0 31 -16.5 50.5t-42.5 19.5zM1450 1233h-539l25 129h539z" />
    <glyph glyph-name="fedotaccent" unicode="f&#x117;" horiz-adv-x="1335" 
d="M627 772h-221l-107 -668q-102 -643 -397 -643q-73 0 -121.5 34.5t-48.5 88.5q0 41 25.5 67.5t64.5 26.5q51 0 90 -57q23 -39 61 -39q26 -2 44 16.5t37.5 84.5t39.5 190l131 899h-153v96l170 13q49 227 86 338q105 307 334 307q73 0 122.5 -42t49.5 -98q0 -45 -23 -72.5
t-61 -27.5q-60 0 -95 66q-20 37 -32.5 49t-36.5 12q-99 0 -123 -239q-10 -87 -39 -287q139 4 213 8l16 -35zM1327 766q0 -120 -119.5 -212.5t-369.5 -137.5q-19 -71 -19 -144q0 -137 99 -137q52 0 107 44t132 149l51 -31q-154 -330 -344 -330q-103 0 -162 68.5t-59 187.5
q0 258 182 496q163 211 332 211q77 0 123.5 -47t46.5 -117zM1098 807q-67 0 -135 -87.5t-109 -232.5q303 85 303 250q0 31 -16.5 50.5t-42.5 19.5zM1079 1276q-37 37 -37 92t37 90q37 37 92.5 37t90.5 -37q37 -35 37 -90t-37 -92q-35 -37 -90.5 -37t-92.5 37z" />
    <glyph glyph-name="fgcommaaccent" unicode="f&#x123;" horiz-adv-x="1462" 
d="M983 242q-85 0 -147 30q-21 -27 -21 -53q0 -51 111 -98l209 -88q202 -82 202 -262q0 -141 -120 -236q-119 -98 -318 -98q-183 0 -295 80t-112 204q0 195 245 297q-61 52 -61 129q0 98 100 170q-69 72 -69 191q0 168 114 291q117 123 264 123q119 0 209 -84q88 22 199 61
l31 -29v-98q-165 -25 -178 -27q14 -41 14 -106q0 -160 -115 -281q-113 -116 -262 -116zM1069 -137q-204 81 -268 114q-148 -77 -148 -219q0 -89 85.5 -144.5t226.5 -55.5q112 0 172.5 45t60.5 114q0 93 -129 146zM983 336q82 0 137 98q58 98 58 221q0 174 -95 174
q-79 0 -139 -100q-59 -100 -59 -231q0 -162 98 -162zM627 772h-221l-107 -668q-102 -643 -397 -643q-73 0 -121.5 34.5t-48.5 88.5q0 41 25.5 67.5t64.5 26.5q51 0 90 -57q23 -39 61 -39q26 -2 44 16.5t37.5 84.5t39.5 190l131 899h-153v96l170 13q49 227 86 338
q105 307 334 307q73 0 122.5 -42t49.5 -98q0 -45 -23 -72.5t-61 -27.5q-60 0 -95 66q-20 37 -32.5 49t-36.5 12q-99 0 -123 -239q-10 -87 -39 -287q139 4 213 8l16 -35zM1188 1053q-56 0 -93.5 47.5t-37.5 120.5q0 110 77.5 187.5t219.5 109.5l20 -58q-101 -38 -143.5 -73
t-42.5 -78q0 -33 39 -62q63 -45 63 -98q0 -39 -29.5 -67.5t-72.5 -28.5z" />
    <glyph glyph-name="fiogonek" unicode="f&#x12f;" horiz-adv-x="1013" 
d="M784 -215l45 -23q-64 -178 -211 -178q-67 0 -111 40t-44 102q0 139 192 258q-40 8 -65 38t-25 76q0 71 33 203l72 315q16 75 16 103q0 53 -108 53h-172l-107 -668q-102 -643 -397 -643q-73 0 -121.5 34.5t-48.5 88.5q0 41 25.5 67.5t64.5 26.5q51 0 90 -57q23 -39 61 -39
q26 -2 44 16.5t37.5 84.5t39.5 190l131 899h-153v96l170 13q50 226 114 352q69 135 174 214t234 79q107 0 178.5 -52t71.5 -137q0 -50 -29 -78t-80 -28q-42 0 -68.5 25t-50.5 83q-27 74 -96 74q-180 0 -266 -528l172 6q160 6 276 47l54 -23q-73 -251 -86 -321l-82 -375
q-10 -62 -10 -63q0 -29 24 -29q30 0 66 34t102 128l45 -33q-105 -203 -221 -258q-172 -120 -172 -238q0 -65 67 -65q72 0 125 90z" />
    <glyph glyph-name="flcommaaccent" unicode="f&#x13c;" horiz-adv-x="1052" 
d="M991 1153l-229 -944q-6 -30 -6 -41q0 -25 24 -25q59 0 197 179l45 -33q-184 -309 -350 -309q-46 0 -77.5 28t-31.5 74q0 62 39 219l203 856q64 258 -92 258q-99 0 -170 -117q-74 -122 -119 -411q49 0 172 8l16 -35l-26 -88h-180l-107 -668q-102 -643 -397 -643
q-73 0 -121.5 34.5t-48.5 88.5q0 41 25.5 67.5t64.5 26.5q51 0 90 -57q23 -39 61 -39q26 -2 44 16.5t37.5 84.5t39.5 190l131 899h-153v96l170 13q50 226 114 352q69 135 174 214t234 79q107 0 170 -51q114 59 127 65l31 -33q-57 -177 -101 -354zM602 -98q56 0 93.5 -47.5
t37.5 -120.5q0 -110 -77 -187.5t-220 -109.5l-20 57q101 38 143.5 73t42.5 79q0 32 -39 61q-63 45 -63 98q0 39 29.5 68t72.5 29z" />
    <glyph glyph-name="fimacron" unicode="f&#x12b;" horiz-adv-x="1148" 
d="M627 772h-221l-107 -668q-102 -643 -397 -643q-73 0 -121.5 34.5t-48.5 88.5q0 41 25.5 67.5t64.5 26.5q51 0 90 -57q23 -39 61 -39q26 -2 44 16.5t37.5 84.5t39.5 190l131 899h-153v96l170 13q49 227 86 338q105 307 334 307q73 0 122.5 -42t49.5 -98q0 -45 -23 -72.5
t-61 -27.5q-60 0 -95 66q-20 37 -32.5 49t-36.5 12q-99 0 -123 -239q-10 -87 -39 -287q139 4 213 8l16 -35zM723 299l119 324q35 96 35 120q0 23 -21 23q-34 0 -149 -127l-41 35q175 254 292 254q47 0 75 -31.5t28 -85.5q0 -71 -51 -205l-140 -391q-20 -56 -20 -70
q0 -20 20 -20q46 0 162 162l45 -33q-145 -274 -301 -274q-47 0 -77.5 32t-30.5 80q0 55 55 207zM1282 1090h-539l25 129h539z" />
    <glyph glyph-name="fomacron" unicode="f&#x14d;" horiz-adv-x="1464" 
d="M627 772h-221l-107 -668q-102 -643 -397 -643q-73 0 -121.5 34.5t-48.5 88.5q0 41 25.5 67.5t64.5 26.5q51 0 90 -57q23 -39 61 -39q26 -2 44 16.5t37.5 84.5t39.5 190l131 899h-153v96l170 13q49 227 86 338q105 307 334 307q73 0 122.5 -42t49.5 -98q0 -45 -23 -72.5
t-61 -27.5q-60 0 -95 66q-20 37 -32.5 49t-36.5 12q-99 0 -123 -239q-10 -87 -39 -287q139 4 213 8l16 -35zM1208 582q0 245 -121 245q-59 0 -114 -61q-129 -144 -129 -465q0 -238 119 -238q64 0 122 70q123 150 123 449zM963 -33q-137 0 -222.5 102t-85.5 271
q0 159 63.5 297t168.5 217q95 74 203 74q126 0 217 -101q92 -103 92 -288q0 -155 -60.5 -287t-160.5 -209q-101 -76 -215 -76zM1448 1233h-539l25 129h539z" />
    <glyph glyph-name="fumacron" unicode="f&#x16b;" horiz-adv-x="1607" 
d="M1217 410q-128 -262 -207 -344q-80 -86 -176 -86q-66 0 -107 43t-41 106q0 77 51 205l123 313q25 67 25 96q0 35 -27 35q-40 0 -160 -147l-45 37q98 143 165.5 201.5t133.5 58.5q48 0 80.5 -36t32.5 -95q0 -66 -51 -197l-123 -328q-21 -55 -21 -86q0 -47 48 -47
q65 0 161 135q115 166 252 547l29 80q21 12 51 12q80 0 117 -67q-83 -227 -113 -328q-61 -199 -78 -305q-6 -40 -6 -53q0 -27 23 -27q43 0 162 146q11 -7 43 -35q-167 -264 -293 -264q-51 0 -80 33.5t-29 90.5q0 100 64 304q-4 0 -4 2zM627 772h-221l-107 -668
q-102 -643 -397 -643q-73 0 -121.5 34.5t-48.5 88.5q0 41 25.5 67.5t64.5 26.5q51 0 90 -57q23 -39 61 -39q26 -2 44 16.5t37.5 84.5t39.5 190l131 899h-153v96l170 13q49 227 86 338q105 307 334 307q73 0 122.5 -42t49.5 -98q0 -45 -23 -72.5t-61 -27.5q-60 0 -95 66
q-20 37 -32.5 49t-36.5 12q-99 0 -123 -239q-10 -87 -39 -287q139 4 213 8l16 -35zM1542 1253h-538l24 129h539z" />
    <glyph glyph-name="fkcommaaccent" unicode="f&#x137;" horiz-adv-x="1411" 
d="M991 1153l-119 -469h5q88 133 156.5 188.5t146.5 55.5q73 0 122.5 -50.5t49.5 -127.5q0 -98 -72 -163.5t-240 -115.5q23 -115 68 -233q43 -113 80 -113q24 0 49 37.5t68 132.5l51 -19q-82 -296 -215 -296q-109 0 -176 149q-55 129 -91 279l21 75q283 99 283 226
q0 31 -20 53t-52 22q-76 0 -164 -102q-88 -101 -131 -285l-94 -397q-53 -16 -90 -16q-67 0 -97 55q56 182 97 352l178 760q35 122 10.5 190.5t-102.5 73.5q-99 0 -170 -117q-74 -122 -119 -411q49 0 172 8l16 -35l-26 -88h-180l-107 -668q-102 -643 -397 -643
q-73 0 -121.5 34.5t-48.5 88.5q0 41 25.5 67.5t64.5 26.5q51 0 90 -57q23 -39 61 -39q26 -2 44 16.5t37.5 84.5t39.5 190l131 899h-153v96l170 13q50 226 114 352q69 135 174 214t234 79q107 0 170 -51l65 32q14 6 27 13t23 12.5t14 7.5l31 -33q-65 -199 -103 -354zM856 -98
q56 0 93.5 -47.5t37.5 -120.5q0 -110 -77 -187.5t-220 -109.5l-20 57q101 38 143.5 73t42.5 79q0 32 -39 61q-63 45 -63 98q0 39 29.5 68t72.5 29z" />
    <glyph glyph-name="fgbreve" unicode="f&#x11f;" horiz-adv-x="1462" 
d="M983 242q-85 0 -147 30q-21 -27 -21 -53q0 -51 111 -98l209 -88q202 -82 202 -262q0 -141 -120 -236q-119 -98 -318 -98q-183 0 -295 80t-112 204q0 195 245 297q-61 52 -61 129q0 98 100 170q-69 72 -69 191q0 168 114 291q117 123 264 123q119 0 209 -84q88 22 199 61
l31 -29v-98q-165 -25 -178 -27q14 -41 14 -106q0 -160 -115 -281q-113 -116 -262 -116zM1069 -137q-204 81 -268 114q-148 -77 -148 -219q0 -89 85.5 -144.5t226.5 -55.5q112 0 172.5 45t60.5 114q0 93 -129 146zM983 336q82 0 137 98q58 98 58 221q0 174 -95 174
q-79 0 -139 -100q-59 -100 -59 -231q0 -162 98 -162zM627 772h-221l-107 -668q-102 -643 -397 -643q-73 0 -121.5 34.5t-48.5 88.5q0 41 25.5 67.5t64.5 26.5q51 0 90 -57q23 -39 61 -39q26 -2 44 16.5t37.5 84.5t39.5 190l131 899h-153v96l170 13q49 227 86 338
q105 307 334 307q73 0 122.5 -42t49.5 -98q0 -45 -23 -72.5t-61 -27.5q-60 0 -95 66q-20 37 -32.5 49t-36.5 12q-99 0 -123 -239q-10 -87 -39 -287q139 4 213 8l16 -35zM1153 1075q-98 0 -152.5 70t-54.5 194q0 63 17 170h67v-39q0 -123 31 -176t98 -53q156 0 258 268
l68 -12q-40 -207 -129 -314.5t-203 -107.5z" />
    <glyph glyph-name="fgcircumflex" unicode="f&#x11d;" horiz-adv-x="1462" 
d="M983 242q-85 0 -147 30q-21 -27 -21 -53q0 -51 111 -98l209 -88q202 -82 202 -262q0 -141 -120 -236q-119 -98 -318 -98q-183 0 -295 80t-112 204q0 195 245 297q-61 52 -61 129q0 98 100 170q-69 72 -69 191q0 168 114 291q117 123 264 123q119 0 209 -84q88 22 199 61
l31 -29v-98q-165 -25 -178 -27q14 -41 14 -106q0 -160 -115 -281q-113 -116 -262 -116zM1069 -137q-204 81 -268 114q-148 -77 -148 -219q0 -89 85.5 -144.5t226.5 -55.5q112 0 172.5 45t60.5 114q0 93 -129 146zM983 336q82 0 137 98q58 98 58 221q0 174 -95 174
q-79 0 -139 -100q-59 -100 -59 -231q0 -162 98 -162zM627 772h-221l-107 -668q-102 -643 -397 -643q-73 0 -121.5 34.5t-48.5 88.5q0 41 25.5 67.5t64.5 26.5q51 0 90 -57q23 -39 61 -39q26 -2 44 16.5t37.5 84.5t39.5 190l131 899h-153v96l170 13q49 227 86 338
q105 307 334 307q73 0 122.5 -42t49.5 -98q0 -45 -23 -72.5t-61 -27.5q-60 0 -95 66q-20 37 -32.5 49t-36.5 12q-99 0 -123 -239q-10 -87 -39 -287q139 4 213 8l16 -35zM938 1024l-49 45l293 410q34 51 73 51q43 0 52 -51l92 -437l-62 -20l-125 264z" />
    <glyph glyph-name="fgdotaccent" unicode="f&#x121;" horiz-adv-x="1462" 
d="M983 242q-85 0 -147 30q-21 -27 -21 -53q0 -51 111 -98l209 -88q202 -82 202 -262q0 -141 -120 -236q-119 -98 -318 -98q-183 0 -295 80t-112 204q0 195 245 297q-61 52 -61 129q0 98 100 170q-69 72 -69 191q0 168 114 291q117 123 264 123q119 0 209 -84q88 22 199 61
l31 -29v-98q-165 -25 -178 -27q14 -41 14 -106q0 -160 -115 -281q-113 -116 -262 -116zM1069 -137q-204 81 -268 114q-148 -77 -148 -219q0 -89 85.5 -144.5t226.5 -55.5q112 0 172.5 45t60.5 114q0 93 -129 146zM983 336q82 0 137 98q58 98 58 221q0 174 -95 174
q-79 0 -139 -100q-59 -100 -59 -231q0 -162 98 -162zM627 772h-221l-107 -668q-102 -643 -397 -643q-73 0 -121.5 34.5t-48.5 88.5q0 41 25.5 67.5t64.5 26.5q51 0 90 -57q23 -39 61 -39q26 -2 44 16.5t37.5 84.5t39.5 190l131 899h-153v96l170 13q49 227 86 338
q105 307 334 307q73 0 122.5 -42t49.5 -98q0 -45 -23 -72.5t-61 -27.5q-60 0 -95 66q-20 37 -32.5 49t-36.5 12q-99 0 -123 -239q-10 -87 -39 -287q139 4 213 8l16 -35zM1079 1276q-37 37 -37 92t37 90q37 37 92.5 37t90.5 -37q37 -35 37 -90t-37 -92q-35 -37 -90.5 -37
t-92.5 37z" />
    <glyph glyph-name="fhcircumflex" unicode="f&#x125;" horiz-adv-x="1449" 
d="M991 1153l-125 -469l4 -2q91 136 159.5 191t148.5 55q68 0 110.5 -47.5t42.5 -122.5q0 -85 -26 -162q-81 -239 -134 -408q-6 -24 -6 -36q0 -21 19 -21q44 0 166 152q28 -25 45 -35q-167 -268 -308 -268q-47 0 -77.5 31.5t-30.5 80.5q0 71 45 207l100 313q19 62 19 101
q0 24 -14.5 38.5t-38.5 14.5q-79 0 -160.5 -99.5t-122.5 -269.5l-94 -397q-53 -16 -90 -16q-70 0 -99 57q82 278 99 350l182 766q64 258 -92 258q-99 0 -170 -117q-74 -122 -119 -411q49 0 172 8l16 -35l-26 -88h-180l-107 -668q-102 -643 -397 -643q-73 0 -121.5 34.5
t-48.5 88.5q0 41 25.5 67.5t64.5 26.5q51 0 90 -57q23 -39 61 -39q26 -2 44 16.5t37.5 84.5t39.5 190l131 899h-153v96l170 13q50 226 114 352q69 135 174 214t234 79q107 0 170 -51q114 59 127 65l31 -33q-30 -88 -101 -354zM686 1573l-33 57l287 199q64 43 92 43t76 -45
l219 -203l-35 -55l-274 131z" />
    <glyph glyph-name="fhbar" unicode="f&#x127;" horiz-adv-x="1447" 
d="M784 1075h-100l21 119h108q12 64 12 100q0 54 -30.5 87.5t-81.5 33.5q-99 0 -170 -117q-74 -122 -119 -411q49 0 172 8l16 -35l-26 -88h-180l-107 -668q-102 -643 -397 -643q-73 0 -121.5 34.5t-48.5 88.5q0 41 25.5 67.5t64.5 26.5q51 0 90 -57q23 -39 61 -39
q26 -2 44 16.5t37.5 84.5t39.5 190l131 899h-153v96l170 13q50 226 114 352q69 135 174 214t234 79q107 0 170 -51q114 59 127 65l31 -33q-49 -147 -91 -313h338l-20 -119h-348l-105 -391l4 -2q91 136 159.5 191t148.5 55q68 0 110.5 -47.5t42.5 -122.5q0 -85 -26 -162
q-81 -239 -134 -408q-6 -24 -6 -36q0 -21 19 -21q44 0 166 152q28 -25 45 -35q-167 -268 -308 -268q-47 0 -77.5 31.5t-30.5 80.5q0 71 45 207l100 313q19 62 19 101q0 24 -14.5 38.5t-38.5 14.5q-79 0 -160.5 -99.5t-122.5 -269.5l-94 -397q-53 -16 -90 -16q-70 0 -99 57
q82 278 99 350z" />
    <glyph glyph-name="fitilde" unicode="f&#x129;" horiz-adv-x="1148" 
d="M627 772h-221l-107 -668q-102 -643 -397 -643q-73 0 -121.5 34.5t-48.5 88.5q0 41 25.5 67.5t64.5 26.5q51 0 90 -57q23 -39 61 -39q26 -2 44 16.5t37.5 84.5t39.5 190l131 899h-153v96l170 13q49 227 86 338q105 307 334 307q73 0 122.5 -42t49.5 -98q0 -45 -23 -72.5
t-61 -27.5q-60 0 -95 66q-20 37 -32.5 49t-36.5 12q-99 0 -123 -239q-10 -87 -39 -287q139 4 213 8l16 -35zM723 299l119 324q35 96 35 120q0 23 -21 23q-34 0 -149 -127l-41 35q175 254 292 254q47 0 75 -31.5t28 -85.5q0 -71 -51 -205l-140 -391q-20 -56 -20 -70
q0 -20 20 -20q46 0 162 162l45 -33q-145 -274 -301 -274q-47 0 -77.5 32t-30.5 80q0 55 55 207zM1081 1253q59 -39 107 -39q66 0 141 60l39 -33q-38 -75 -98 -118.5t-123 -43.5q-41 0 -121 41q-77 41 -115 41q-64 0 -137 -61l-39 33q38 77 96.5 120t122.5 43q60 0 127 -43z
" />
    <glyph glyph-name="fibreve" unicode="f&#x12d;" horiz-adv-x="1013" 
d="M881 1075q-184 0 -205 234q-12 104 -82 104q-107 0 -131 -239q-9 -89 -39 -289l172 6q160 6 276 47l54 -23q-73 -251 -86 -321l-82 -375q-10 -62 -10 -63q0 -29 24 -29q30 0 66 34t102 128l45 -33q-144 -276 -301 -276q-51 0 -85 32.5t-34 85.5q0 71 33 203l72 315
q16 75 16 103q0 53 -108 53h-172l-107 -668q-102 -643 -397 -643q-73 0 -121.5 34.5t-48.5 88.5q0 41 25.5 67.5t64.5 26.5q51 0 90 -57q23 -39 61 -39q26 -2 44 16.5t37.5 84.5t39.5 190l131 899h-153v96l170 13q49 227 86 338q105 307 334 307q73 0 122.5 -43.5
t49.5 -102.5q0 -61 -62 -82q26 -57 115 -57q156 0 258 268l67 -12q-40 -207 -128.5 -314.5t-202.5 -107.5z" />
    <glyph glyph-name="fij" unicode="f&#x133;" horiz-adv-x="1527" 
d="M840 594l-82 -375q-10 -62 -10 -63q0 -29 24 -29q30 0 66 34t102 128l45 -33q-144 -276 -301 -276q-51 0 -85 32.5t-34 85.5q0 71 33 203l72 315q16 75 16 103q0 53 -108 53h-172l-107 -668q-102 -643 -397 -643q-73 0 -121.5 34.5t-48.5 88.5q0 41 25.5 67.5t64.5 26.5
q51 0 90 -57q23 -39 61 -39q26 -2 44 16.5t37.5 84.5t39.5 190l131 899h-153v96l170 13q50 226 114 352q69 135 174 214t234 79q107 0 178.5 -52t71.5 -137q0 -50 -29 -78t-80 -28q-42 0 -68.5 25t-50.5 83q-27 74 -96 74q-180 0 -266 -528l172 6q160 6 276 47l54 -23
q-73 -251 -86 -321zM1303 1368q0 54 36 90.5t91 36.5q56 0 92.5 -36t36.5 -91q0 -56 -36.5 -92.5t-92.5 -36.5q-55 0 -91 36.5t-36 92.5zM1073 -113l178 766q15 67 15 88q0 33 -23 33q-39 0 -127 -135l-47 31q138 258 260 258q52 0 84.5 -36.5t32.5 -98.5q0 -69 -25 -172
l-125 -517q-78 -329 -198.5 -486t-263.5 -157q-64 0 -107 31.5t-43 81.5q0 38 23.5 63t58.5 25q39 0 84 -51q26 -33 63 -33q27 -2 49.5 20t51.5 93t59 196z" />
    <glyph glyph-name="fjcircumflex" unicode="f&#x135;" horiz-adv-x="1130" 
d="M627 772h-221l-107 -668q-102 -643 -397 -643q-73 0 -121.5 34.5t-48.5 88.5q0 41 25.5 67.5t64.5 26.5q51 0 90 -57q23 -39 61 -39q26 -2 44 16.5t37.5 84.5t39.5 190l131 899h-153v96l170 13q49 227 86 338q105 307 334 307q73 0 122.5 -42t49.5 -98q0 -45 -23 -72.5
t-61 -27.5q-60 0 -95 66q-20 37 -32.5 49t-36.5 12q-99 0 -123 -239q-10 -87 -39 -287q139 4 213 8l16 -35zM676 -113l178 766q14 63 14 88q0 33 -22 33q-38 0 -127 -135l-47 31q138 258 260 258q52 0 84.5 -36.5t32.5 -98.5q0 -69 -25 -172l-125 -517q-78 -329 -199 -486
t-264 -157q-64 0 -106.5 31.5t-42.5 81.5q0 38 23.5 63t58.5 25q39 0 84 -51q26 -33 63 -33q27 -2 49.5 20t51.5 93t59 196zM770 1024l-49 45l293 410q34 51 73 51q43 0 52 -51l92 -437l-62 -20l-125 264z" />
    <glyph glyph-name="fldot" unicode="f&#x140;" horiz-adv-x="1296" 
d="M991 1153l-229 -944q-6 -30 -6 -41q0 -25 24 -25q59 0 197 179l45 -33q-184 -309 -350 -309q-46 0 -77.5 28t-31.5 74q0 62 39 219l203 856q64 258 -92 258q-99 0 -170 -117q-74 -122 -119 -411q49 0 172 8l16 -35l-26 -88h-180l-107 -668q-102 -643 -397 -643
q-73 0 -121.5 34.5t-48.5 88.5q0 41 25.5 67.5t64.5 26.5q51 0 90 -57q23 -39 61 -39q26 -2 44 16.5t37.5 84.5t39.5 190l131 899h-153v96l170 13q50 226 114 352q69 135 174 214t234 79q107 0 170 -51q114 59 127 65l31 -33q-57 -177 -101 -354zM1047 401q-37 37 -37 92.5
t37 90.5q37 37 92 37t90 -37q37 -35 37 -90.5t-37 -92.5q-35 -37 -90 -37t-92 37z" />
    <glyph glyph-name="fnapostrophe" unicode="f&#x149;" horiz-adv-x="1587" 
d="M991 651l4 -2q165 281 318 281q68 0 114 -49.5t46 -122.5q0 -62 -31 -160q-57 -171 -131 -410q-8 -24 -8 -38q0 -19 20 -19q43 0 166 156l45 -35q-163 -272 -307 -272q-44 0 -77.5 33t-33.5 75q0 66 47 209l103 315q16 59 16 101q0 55 -53 55q-74 0 -155.5 -100
t-121.5 -269l-94 -399q-43 -16 -88 -16q-66 0 -100 55q85 284 100 356l64 267q14 60 14 88q0 26 -21 26q-45 0 -127 -125l-47 37q76 132 137.5 187t124.5 55q43 0 73 -36t30 -91q0 -44 -27 -152zM627 772h-221l-107 -668q-102 -643 -397 -643q-73 0 -121.5 34.5t-48.5 88.5
q0 41 25.5 67.5t64.5 26.5q51 0 90 -57q23 -39 61 -39q26 -2 44 16.5t37.5 84.5t39.5 190l131 899h-153v96l170 13q49 227 86 338q105 307 334 307q73 0 122.5 -42t49.5 -98q0 -45 -23 -72.5t-61 -27.5q-60 0 -95 66q-20 37 -32.5 49t-36.5 12q-99 0 -123 -239
q-10 -87 -39 -287q139 4 213 8l16 -35zM1036 1565q56 0 93.5 -47.5t37.5 -120.5q0 -110 -77 -187.5t-220 -109.5l-20 57q101 38 143.5 73t42.5 79q0 32 -39 61q-63 45 -63 98q0 39 29.5 68t72.5 29z" />
    <glyph glyph-name="fobreve" unicode="f&#x14f;" horiz-adv-x="1464" 
d="M1208 582q0 245 -121 245q-59 0 -114 -61q-129 -144 -129 -465q0 -238 119 -238q64 0 122 70q123 150 123 449zM963 -33q-137 0 -222.5 102t-85.5 271q0 159 63.5 297t168.5 217q95 74 203 74q126 0 217 -101q92 -103 92 -288q0 -155 -60.5 -287t-160.5 -209
q-101 -76 -215 -76zM1149 1075q-98 0 -152.5 70t-54.5 194q0 69 16 170h68v-39q0 -123 31 -176t98 -53q156 0 258 268l68 -12q-40 -207 -129 -314.5t-203 -107.5zM627 772h-221l-107 -668q-102 -643 -397 -643q-73 0 -121.5 34.5t-48.5 88.5q0 41 25.5 67.5t64.5 26.5
q51 0 90 -57q23 -39 61 -39q26 -2 44 16.5t37.5 84.5t39.5 190l131 899h-153v96l170 13q49 227 86 338q105 307 334 307q73 0 122.5 -42t49.5 -98q0 -45 -23 -72.5t-61 -27.5q-60 0 -95 66q-20 37 -32.5 49t-36.5 12q-99 0 -123 -239q-10 -87 -39 -287q139 4 213 8l16 -35z
" />
    <glyph glyph-name="fscircumflex" unicode="f&#x15d;" horiz-adv-x="1249" 
d="M627 772h-221l-107 -668q-102 -643 -397 -643q-73 0 -121.5 34.5t-48.5 88.5q0 41 25.5 67.5t64.5 26.5q51 0 90 -57q23 -39 61 -39q26 -2 44 16.5t37.5 84.5t39.5 190l131 899h-153v96l170 13q49 227 86 338q105 307 334 307q73 0 122.5 -42t49.5 -98q0 -45 -23 -72.5
t-61 -27.5q-60 0 -95 66q-20 37 -32.5 49t-36.5 12q-99 0 -123 -239q-10 -87 -39 -287q139 4 213 8l16 -35zM971 152q0 40 -27 90q-21 44 -98 166q-101 157 -101 262q0 112 75.5 186t195.5 74q94 0 159.5 -49t65.5 -121q0 -41 -24 -67.5t-62 -26.5q-73 0 -94 82
q-21 83 -84 83q-39 0 -62.5 -25t-23.5 -67q0 -64 113 -247q72 -118 90 -166q24 -56 24 -119q0 -106 -68 -173t-176 -67q-119 0 -193.5 58.5t-74.5 136.5q0 42 25 70t65 28q68 0 92 -94q13 -54 34.5 -79.5t62.5 -25.5q86 0 86 91zM858 1024l-49 45l293 410q34 51 74 51
q42 0 51 -51l92 -437l-62 -20l-124 264z" />
    <glyph glyph-name="futilde" unicode="f&#x169;" horiz-adv-x="1607" 
d="M1217 410q-128 -262 -207 -344q-80 -86 -176 -86q-66 0 -107 43t-41 106q0 77 51 205l123 313q25 67 25 96q0 35 -27 35q-40 0 -160 -147l-45 37q98 143 165.5 201.5t133.5 58.5q48 0 80.5 -36t32.5 -95q0 -66 -51 -197l-123 -328q-21 -55 -21 -86q0 -47 48 -47
q65 0 161 135q115 166 252 547l29 80q21 12 51 12q80 0 117 -67q-83 -227 -113 -328q-61 -199 -78 -305q-6 -40 -6 -53q0 -27 23 -27q43 0 162 146q11 -7 43 -35q-167 -264 -293 -264q-51 0 -80 33.5t-29 90.5q0 100 64 304q-4 0 -4 2zM627 772h-221l-107 -668
q-102 -643 -397 -643q-73 0 -121.5 34.5t-48.5 88.5q0 41 25.5 67.5t64.5 26.5q51 0 90 -57q23 -39 61 -39q26 -2 44 16.5t37.5 84.5t39.5 190l131 899h-153v96l170 13q49 227 86 338q105 307 334 307q73 0 122.5 -42t49.5 -98q0 -45 -23 -72.5t-61 -27.5q-60 0 -95 66
q-20 37 -32.5 49t-36.5 12q-99 0 -123 -239q-10 -87 -39 -287q139 4 213 8l16 -35zM1307 1386q58 -38 106 -38q67 0 141 59l39 -33q-38 -75 -98 -118.5t-123 -43.5q-41 0 -121 41q-77 41 -114 41q-65 0 -138 -61l-38 33q38 77 96.5 120.5t122.5 43.5q59 0 127 -44z" />
    <glyph glyph-name="fycircumflex" unicode="f&#x177;" horiz-adv-x="1511" 
d="M627 772h-221l-107 -668q-102 -643 -397 -643q-73 0 -121.5 34.5t-48.5 88.5q0 41 25.5 67.5t64.5 26.5q51 0 90 -57q23 -39 61 -39q26 -2 44 16.5t37.5 84.5t39.5 190l131 899h-153v96l170 13q49 227 86 338q105 307 334 307q73 0 122.5 -42t49.5 -98q0 -45 -23 -72.5
t-61 -27.5q-60 0 -95 66q-20 37 -32.5 49t-36.5 12q-99 0 -123 -239q-10 -87 -39 -287q139 4 213 8l16 -35zM958 72q0 164 -34 346q-36 194 -76 287q-21 55 -45 55q-55 0 -125 -211l-55 16q83 363 235 363q103 0 162 -164q100 -274 100 -625q0 -63 -8 -131h4
q168 381 168 766q0 71 -12 133q29 29 86 29q34 0 53 -8q10 -45 10 -103q0 -372 -180 -753q-151 -318 -377 -492q-189 -145 -403 -145q-65 0 -104.5 28t-39.5 70q0 39 27.5 64.5t71.5 25.5q28 0 84 -24q61 -25 114 -25q140 0 242 141q102 138 102 357zM928 1024l-49 45
l292 410q34 51 74 51q42 0 51 -51l93 -437l-62 -20l-125 264z" />
    <glyph glyph-name="ffb" unicode="ffb" horiz-adv-x="1892" 
d="M424 883l309 2q48 218 113 348q69 135 173.5 214t233.5 79q107 0 170 -51q82 28 152 65l31 -33l-56 -164l-63 -190l-156 -506l4 -2q184 289 336 289q79 0 128.5 -69t49.5 -185q0 -334 -307 -592q-139 -115 -268 -115q-96 0 -153.5 62.5t-57.5 165.5q0 97 43 245l194 697
q25 86 25 145q0 54 -36 90.5t-87 36.5q-100 0 -170 -117q-74 -122 -119 -411q49 0 172 8l17 -35l-27 -88h-180l-107 -668q-102 -643 -397 -643q-73 0 -121.5 34.5t-48.5 88.5q0 41 25.5 67.5t64.5 26.5q51 0 90 -57q23 -39 62 -39q26 -2 44 16.5t37.5 84.5t39.5 190l131 899
h-309l-107 -668q-102 -643 -397 -643q-73 0 -121.5 34.5t-48.5 88.5q0 41 25.5 67.5t64.5 26.5q51 0 90 -57q23 -39 61 -39q26 -2 44 16.5t37.5 84.5t39.5 190l131 899h-153v96l170 11q57 259 84 340q50 148 137 227.5t199 79.5q73 0 122.5 -42t49.5 -98q0 -45 -23 -72.5
t-61 -27.5q-60 0 -95 66q-20 37 -32.5 49t-36.5 12q-99 0 -123 -239q-1 -10 -39 -291zM1675 651q0 56 -23.5 89.5t-62.5 33.5q-102 0 -225 -196q-121 -195 -121 -353q0 -49 27 -77.5t69 -28.5q79 0 156 80q82 85 131 208t49 244z" />
    <glyph glyph-name="fflslash" unicode="ff&#x142;" horiz-adv-x="1615" 
d="M424 883l309 2q48 218 113 348q69 136 176.5 214.5t243.5 78.5q125 0 188 -51q114 59 127 65l31 -33q-57 -177 -101 -354l-106 -436l186 53l27 -102l-242 -70l-94 -389q-6 -30 -6 -41q0 -25 24 -25q59 0 197 179l45 -33q-184 -309 -350 -309q-46 0 -77.5 28t-31.5 74
q0 62 39 219l58 242l-164 -45l-27 102l217 62l119 495q21 83 21 123q0 63 -34.5 99t-94.5 36q-109 0 -183 -117q-75 -117 -121 -411q49 0 172 8l17 -35l-27 -88h-180l-107 -668q-102 -643 -397 -643q-73 0 -121.5 34.5t-48.5 88.5q0 41 25.5 67.5t64.5 26.5q51 0 90 -57
q23 -39 62 -39q26 -2 44 16.5t37.5 84.5t39.5 190l131 899h-309l-107 -668q-102 -643 -397 -643q-73 0 -121.5 34.5t-48.5 88.5q0 41 25.5 67.5t64.5 26.5q51 0 90 -57q23 -39 61 -39q26 -2 44 16.5t37.5 84.5t39.5 190l131 899h-153v96l170 11q57 259 84 340
q50 148 137 227.5t199 79.5q73 0 122.5 -42t49.5 -98q0 -45 -23 -72.5t-61 -27.5q-60 0 -95 66q-20 37 -32.5 49t-36.5 12q-99 0 -123 -239q-1 -10 -39 -291z" />
    <glyph glyph-name="ffscaron" unicode="ff&#x161;" horiz-adv-x="1734" 
d="M424 883l309 2q45 220 84 334q105 307 334 307q73 0 122.5 -42t49.5 -98q0 -45 -23 -72.5t-61 -27.5q-59 0 -94 66q-20 37 -33 49t-37 12q-99 0 -123 -239q-10 -87 -39 -287q139 4 213 8l17 -35l-27 -88h-221l-107 -668q-102 -643 -397 -643q-73 0 -121.5 34.5
t-48.5 88.5q0 41 25.5 67.5t64.5 26.5q51 0 90 -57q23 -39 62 -39q26 -2 44 16.5t37.5 84.5t39.5 190l131 899h-309l-107 -668q-102 -643 -397 -643q-73 0 -121.5 34.5t-48.5 88.5q0 41 25.5 67.5t64.5 26.5q51 0 90 -57q23 -39 61 -39q26 -2 44 16.5t37.5 84.5t39.5 190
l131 899h-153v96l170 11q57 259 84 340q50 148 137 227.5t199 79.5q73 0 122.5 -42t49.5 -98q0 -45 -23 -72.5t-61 -27.5q-60 0 -95 66q-20 37 -32.5 49t-36.5 12q-99 0 -123 -239q-1 -10 -39 -291zM1456 152q0 42 -26 90q-18 37 -99 166q-100 156 -100 262q0 112 75 186
t195 74q94 0 159.5 -49t65.5 -121q0 -41 -24 -67.5t-62 -26.5q-73 0 -94 82q-21 83 -84 83q-39 0 -62.5 -25t-23.5 -67q0 -64 113 -247q72 -118 90 -166q25 -58 25 -119q0 -106 -68 -173t-176 -67q-119 0 -193.5 58.5t-74.5 136.5q0 42 25 70t65 28q68 0 92 -94
q13 -54 34 -79.5t62 -25.5q86 0 86 91zM1872 1530l49 -45l-291 -410q-39 -51 -74 -51q-44 0 -53 51l-92 436l62 19l126 -264z" />
    <glyph glyph-name="ffthorn" unicode="ff&#xfe;" horiz-adv-x="1916" 
d="M424 883l307 2q42 199 115 348q69 135 173.5 214t233.5 79q107 0 170 -51l125 65l31 -33q-49 -140 -94 -356l-47 -233q59 16 104 16q136 0 219.5 -94.5t83.5 -253.5q0 -238 -168 -412q-169 -172 -426 -178q-63 -306 -63 -377q0 -79 123 -106l-6 -54q-85 6 -222 6
q-101 0 -180 -6l-4 52q39 20 59 49.5t39 91.5q14 53 25 110q4 22 8.5 42.5t7.5 33t4 15.5l185 874l-219 -127l-31 51q176 135 270 195l49 248q29 148 29 198q0 57 -32 90t-91 33q-100 0 -170 -117q-74 -122 -119 -411q26 0 152 8l16 -35l-26 -88h-160l-107 -668
q-102 -643 -397 -643q-73 0 -121.5 34.5t-48.5 88.5q0 41 25.5 67.5t64.5 26.5q51 0 90 -57q23 -39 62 -39q26 -2 44 16.5t37.5 84.5t39.5 190l131 899h-309l-107 -668q-102 -643 -397 -643q-73 0 -121.5 34.5t-48.5 88.5q0 41 25.5 67.5t64.5 26.5q51 0 90 -57
q23 -39 61 -39q26 -2 44 16.5t37.5 84.5t39.5 190l131 899h-153v96l170 11q57 259 84 340q50 148 137 227.5t199 79.5q73 0 122.5 -42t49.5 -98q0 -45 -23 -72.5t-61 -27.5q-60 0 -95 66q-20 37 -32.5 49t-36.5 12q-99 0 -123 -239q-1 -10 -39 -291zM1415 786l-137 -692
q156 9 270 135q115 127 115 328q0 242 -178 242q-23 0 -70 -13z" />
    <glyph glyph-name="ffzcaron" unicode="ff&#x17e;" horiz-adv-x="2105" 
d="M1430 928q75 0 192 -60q113 -58 184 -61q58 62 87 83t61 21q25 0 41 -18t16 -47q0 -66 -123 -107l-557 -516l2 -2q49 15 94 15q81 0 215 -84q134 -82 228 -82q80 0 80 69q0 30 -47 80q-48 51 -48 90q0 37 23.5 60.5t60.5 23.5q52 0 90.5 -51t38.5 -123q0 -131 -90 -215
t-204 -84q-72 0 -145.5 31.5t-127.5 75.5q-124 108 -186 108q-61 0 -76 -69q-12 -58 -70 -58q-26 0 -44.5 19.5t-18.5 48.5q0 72 80 143l555 496q-2 2 -2 4q-56 -17 -90 -17q-75 0 -168 43q-93 46 -135 46q-58 0 -58 -56q0 -13 21 -51q22 -39 22 -66q0 -35 -21.5 -56
t-56.5 -21q-41 0 -68.5 31.5t-27.5 78.5q0 109 82 191q83 86 191 86zM1962 1530l49 -45l-291 -410q-39 -51 -73 -51q-45 0 -54 51l-92 436l62 19l127 -264zM424 883l309 2q45 220 84 334q105 307 334 307q73 0 122.5 -42t49.5 -98q0 -45 -23 -72.5t-61 -27.5q-59 0 -94 66
q-20 37 -33 49t-37 12q-99 0 -123 -239q-10 -87 -39 -287q139 4 213 8l17 -35l-27 -88h-221l-107 -668q-102 -643 -397 -643q-73 0 -121.5 34.5t-48.5 88.5q0 41 25.5 67.5t64.5 26.5q51 0 90 -57q23 -39 62 -39q26 -2 44 16.5t37.5 84.5t39.5 190l131 899h-309l-107 -668
q-102 -643 -397 -643q-73 0 -121.5 34.5t-48.5 88.5q0 41 25.5 67.5t64.5 26.5q51 0 90 -57q23 -39 61 -39q26 -2 44 16.5t37.5 84.5t39.5 190l131 899h-153v96l170 11q57 259 84 340q50 148 137 227.5t199 79.5q73 0 122.5 -42t49.5 -98q0 -45 -23 -72.5t-61 -27.5
q-60 0 -95 66q-20 37 -32.5 49t-36.5 12q-99 0 -123 -239q-1 -10 -39 -291z" />
    <glyph glyph-name="ffh" unicode="ffh" horiz-adv-x="1937" 
d="M424 883l309 2q48 218 113 348q69 135 173.5 214t233.5 79q107 0 170 -51q114 59 127 65l31 -33q-25 -74 -100 -354l-125 -469l4 -2q91 136 159 191t148 55q68 0 111 -47.5t43 -122.5q0 -82 -27 -162q-67 -198 -133 -408q-6 -24 -6 -36q0 -21 18 -21q44 0 166 152
q28 -25 45 -35q-167 -268 -307 -268q-47 0 -78 31.5t-31 80.5q0 71 45 207l101 313q18 59 18 101q0 24 -14.5 38.5t-38.5 14.5q-79 0 -160.5 -99.5t-122.5 -269.5l-94 -397q-53 -16 -90 -16q-69 0 -98 57q77 261 98 350l182 766q64 258 -92 258q-100 0 -170 -117
q-74 -122 -119 -411q49 0 172 8l17 -35l-27 -88h-180l-107 -668q-102 -643 -397 -643q-73 0 -121.5 34.5t-48.5 88.5q0 41 25.5 67.5t64.5 26.5q51 0 90 -57q23 -39 62 -39q26 -2 44 16.5t37.5 84.5t39.5 190l131 899h-309l-107 -668q-102 -643 -397 -643q-73 0 -121.5 34.5
t-48.5 88.5q0 41 25.5 67.5t64.5 26.5q51 0 90 -57q23 -39 61 -39q26 -2 44 16.5t37.5 84.5t39.5 190l131 899h-153v96l170 11q57 259 84 340q50 148 137 227.5t199 79.5q73 0 122.5 -42t49.5 -98q0 -45 -23 -72.5t-61 -27.5q-60 0 -95 66q-20 37 -32.5 49t-36.5 12
q-99 0 -123 -239q-1 -10 -39 -291z" />
    <glyph glyph-name="ffj" unicode="ffj" horiz-adv-x="1474" 
d="M424 883l309 2q48 218 113 348q69 135 173.5 214t233.5 79q107 0 178.5 -52t71.5 -137q0 -50 -28.5 -78t-79.5 -28q-42 0 -68.5 25t-50.5 83q-27 74 -96 74q-182 0 -267 -528l172 6q161 6 277 47l53 -23q-34 -135 -69 -319l-103 -543q-62 -325 -153 -456
q-89 -136 -226 -136q-64 0 -106.5 31.5t-42.5 81.5q0 38 23.5 63t58.5 25q39 0 84 -51q26 -33 63 -33q51 0 74 105q9 37 20 108q8 46 21 146q11 87 24 161l93 520q14 74 14 97q0 57 -117 57h-178l-107 -668q-102 -643 -397 -643q-73 0 -121.5 34.5t-48.5 88.5
q0 41 25.5 67.5t64.5 26.5q51 0 90 -57q23 -39 62 -39q26 -2 44 16.5t37.5 84.5t39.5 190l131 899h-309l-107 -668q-102 -643 -397 -643q-73 0 -121.5 34.5t-48.5 88.5q0 41 25.5 67.5t64.5 26.5q51 0 90 -57q23 -39 61 -39q26 -2 44 16.5t37.5 84.5t39.5 190l131 899h-153
v96l170 11q57 259 84 340q50 148 137 227.5t199 79.5q73 0 122.5 -42t49.5 -98q0 -45 -23 -72.5t-61 -27.5q-60 0 -95 66q-20 37 -32.5 49t-36.5 12q-99 0 -123 -239q-1 -10 -39 -291z" />
    <glyph glyph-name="ffk" unicode="ffk" horiz-adv-x="1900" 
d="M424 883l309 2q48 218 113 348q69 135 173.5 214t233.5 79q107 0 170 -51l66 32q19 8 41 21l22 12l31 -33q-61 -187 -102 -354l-119 -469h4q88 133 156.5 188.5t146.5 55.5q73 0 122.5 -50.5t49.5 -127.5q0 -98 -71.5 -163.5t-239.5 -115.5q24 -121 67 -233
q43 -113 80 -113q24 0 49 37.5t68 132.5l51 -19q-82 -296 -215 -296q-109 0 -176 149q-53 124 -90 279l20 75q283 99 283 226q0 31 -20 53t-52 22q-75 0 -163 -102q-89 -103 -132 -285l-94 -397q-53 -16 -90 -16q-66 0 -96 55q52 167 96 352l178 760q35 122 10.5 190.5
t-102.5 73.5q-100 0 -170 -117q-74 -122 -119 -411q49 0 172 8l17 -35l-27 -88h-180l-107 -668q-102 -643 -397 -643q-73 0 -121.5 34.5t-48.5 88.5q0 41 25.5 67.5t64.5 26.5q51 0 90 -57q23 -39 62 -39q26 -2 44 16.5t37.5 84.5t39.5 190l131 899h-309l-107 -668
q-102 -643 -397 -643q-73 0 -121.5 34.5t-48.5 88.5q0 41 25.5 67.5t64.5 26.5q51 0 90 -57q23 -39 61 -39q26 -2 44 16.5t37.5 84.5t39.5 190l131 899h-153v96l170 11q57 259 84 340q50 148 137 227.5t199 79.5q73 0 122.5 -42t49.5 -98q0 -45 -23 -72.5t-61 -27.5
q-60 0 -95 66q-20 37 -32.5 49t-36.5 12q-99 0 -123 -239q-1 -10 -39 -291z" />
    <glyph glyph-name="ffadieresis" unicode="ff&#xe4;" horiz-adv-x="2031" 
d="M424 883l309 2q45 220 84 334q105 307 334 307q73 0 122.5 -42t49.5 -98q0 -45 -23 -72.5t-61 -27.5q-59 0 -94 66q-20 37 -33 49t-37 12q-99 0 -123 -239q-10 -87 -39 -287q139 4 213 8l17 -35l-27 -88h-221l-107 -668q-102 -643 -397 -643q-73 0 -121.5 34.5
t-48.5 88.5q0 41 25.5 67.5t64.5 26.5q51 0 90 -57q23 -39 62 -39q26 -2 44 16.5t37.5 84.5t39.5 190l131 899h-309l-107 -668q-102 -643 -397 -643q-73 0 -121.5 34.5t-48.5 88.5q0 41 25.5 67.5t64.5 26.5q51 0 90 -57q23 -39 61 -39q26 -2 44 16.5t37.5 84.5t39.5 190
l131 899h-153v96l170 11q57 259 84 340q50 148 137 227.5t199 79.5q73 0 122.5 -42t49.5 -98q0 -45 -23 -72.5t-61 -27.5q-60 0 -95 66q-20 37 -32.5 49t-36.5 12q-99 0 -123 -239q-1 -10 -39 -291zM1290 227q0 -104 70 -104q54 0 135.5 96t153.5 260q38 86 65 201
q-35 92 -106 92q-82 0 -160 -96q-75 -93 -117 -223q-41 -128 -41 -226zM1116 164q0 118 62 266q60 147 157 270q179 226 336 226q14 0 26 -1.5l20 -2.5t18 -5.5t14 -6t14.5 -9.5t12 -9t13.5 -12t13 -12l53 82q64 -9 107 -47q-81 -245 -117 -377l-30 -106l-31 -109
q-25 -128 -25 -155q0 -25 23 -25q52 0 172 166l45 -35q-92 -153 -162.5 -219t-140.5 -66q-51 0 -80 30.5t-29 84.5q0 77 35 193l-4 4q-176 -324 -336 -324q-77 0 -121.5 54t-44.5 145zM1442 1333q0 49 34 83t83 34q51 0 84.5 -33.5t33.5 -83.5q0 -51 -33.5 -85t-84.5 -34
q-50 0 -83.5 34t-33.5 85zM1782 1333q0 50 33.5 83.5t82.5 33.5q51 0 86 -34t35 -83q0 -51 -35 -85t-86 -34q-50 0 -83 34t-33 85z" />
    <glyph glyph-name="ffatilde" unicode="ff&#xe3;" horiz-adv-x="2031" 
d="M1290 227q0 -104 70 -104q54 0 135.5 96t153.5 260q38 86 65 201q-35 92 -106 92q-82 0 -160 -96q-75 -93 -117 -223q-41 -128 -41 -226zM1116 164q0 118 62 266q60 147 157 270q179 226 336 226q14 0 26 -1.5l20 -2.5t18 -5.5t14 -6t14.5 -9.5t12 -9t13.5 -12t13 -12
l53 82q64 -9 107 -47q-81 -245 -117 -377l-30 -106l-31 -109q-25 -128 -25 -155q0 -25 23 -25q52 0 172 166l45 -35q-92 -153 -162.5 -219t-140.5 -66q-51 0 -80 30.5t-29 84.5q0 77 35 193l-4 4q-176 -324 -336 -324q-77 0 -121.5 54t-44.5 145zM1763 1386q58 -38 107 -38
q67 0 141 59l39 -33q-38 -75 -98 -118.5t-123 -43.5q-41 0 -121 41q-77 41 -115 41q-64 0 -137 -61l-39 33q38 77 96.5 120.5t122.5 43.5q59 0 127 -44zM424 883l309 2q45 220 84 334q105 307 334 307q73 0 122.5 -42t49.5 -98q0 -45 -23 -72.5t-61 -27.5q-59 0 -94 66
q-20 37 -33 49t-37 12q-99 0 -123 -239q-10 -87 -39 -287q139 4 213 8l17 -35l-27 -88h-221l-107 -668q-102 -643 -397 -643q-73 0 -121.5 34.5t-48.5 88.5q0 41 25.5 67.5t64.5 26.5q51 0 90 -57q23 -39 62 -39q26 -2 44 16.5t37.5 84.5t39.5 190l131 899h-309l-107 -668
q-102 -643 -397 -643q-73 0 -121.5 34.5t-48.5 88.5q0 41 25.5 67.5t64.5 26.5q51 0 90 -57q23 -39 61 -39q26 -2 44 16.5t37.5 84.5t39.5 190l131 899h-153v96l170 11q57 259 84 340q50 148 137 227.5t199 79.5q73 0 122.5 -42t49.5 -98q0 -45 -23 -72.5t-61 -27.5
q-60 0 -95 66q-20 37 -32.5 49t-36.5 12q-99 0 -123 -239q-1 -10 -39 -291z" />
    <glyph glyph-name="ffegrave" unicode="ff&#xe8;" horiz-adv-x="1822" 
d="M1815 766q0 -120 -120 -212.5t-370 -137.5q-18 -68 -18 -144q0 -137 98 -137q52 0 107.5 44.5t132.5 148.5l51 -31q-154 -330 -344 -330q-103 0 -162.5 69t-59.5 187q0 257 183 496q163 211 332 211q77 0 123.5 -47t46.5 -117zM1585 807q-67 0 -135 -87.5t-109 -232.5
q304 85 304 250q0 31 -17 50.5t-43 19.5zM1702 1393l-2 -392l-62 -10l-116 344q-19 55 -19 88q0 44 30 77.5t71 33.5q45 0 71.5 -37t26.5 -104zM424 883l309 2q45 220 84 334q105 307 334 307q73 0 122.5 -42t49.5 -98q0 -45 -23 -72.5t-61 -27.5q-59 0 -94 66
q-20 37 -33 49t-37 12q-99 0 -123 -239q-10 -87 -39 -287q139 4 213 8l17 -35l-27 -88h-221l-107 -668q-102 -643 -397 -643q-73 0 -121.5 34.5t-48.5 88.5q0 41 25.5 67.5t64.5 26.5q51 0 90 -57q23 -39 62 -39q26 -2 44 16.5t37.5 84.5t39.5 190l131 899h-309l-107 -668
q-102 -643 -397 -643q-73 0 -121.5 34.5t-48.5 88.5q0 41 25.5 67.5t64.5 26.5q51 0 90 -57q23 -39 61 -39q26 -2 44 16.5t37.5 84.5t39.5 190l131 899h-153v96l170 11q57 259 84 340q50 148 137 227.5t199 79.5q73 0 122.5 -42t49.5 -98q0 -45 -23 -72.5t-61 -27.5
q-60 0 -95 66q-20 37 -32.5 49t-36.5 12q-99 0 -123 -239q-1 -10 -39 -291z" />
    <glyph glyph-name="ffecircumflex" unicode="ff&#xea;" horiz-adv-x="1822" 
d="M424 883l309 2q45 220 84 334q105 307 334 307q73 0 122.5 -42t49.5 -98q0 -45 -23 -72.5t-61 -27.5q-59 0 -94 66q-20 37 -33 49t-37 12q-99 0 -123 -239q-10 -87 -39 -287q139 4 213 8l17 -35l-27 -88h-221l-107 -668q-102 -643 -397 -643q-73 0 -121.5 34.5
t-48.5 88.5q0 41 25.5 67.5t64.5 26.5q51 0 90 -57q23 -39 62 -39q26 -2 44 16.5t37.5 84.5t39.5 190l131 899h-309l-107 -668q-102 -643 -397 -643q-73 0 -121.5 34.5t-48.5 88.5q0 41 25.5 67.5t64.5 26.5q51 0 90 -57q23 -39 61 -39q26 -2 44 16.5t37.5 84.5t39.5 190
l131 899h-153v96l170 11q57 259 84 340q50 148 137 227.5t199 79.5q73 0 122.5 -42t49.5 -98q0 -45 -23 -72.5t-61 -27.5q-60 0 -95 66q-20 37 -32.5 49t-36.5 12q-99 0 -123 -239q-1 -10 -39 -291zM1815 766q0 -120 -120 -212.5t-370 -137.5q-18 -68 -18 -144
q0 -137 98 -137q52 0 107.5 44.5t132.5 148.5l51 -31q-154 -330 -344 -330q-103 0 -162.5 69t-59.5 187q0 257 183 496q163 211 332 211q77 0 123.5 -47t46.5 -117zM1585 807q-67 0 -135 -87.5t-109 -232.5q304 85 304 250q0 31 -17 50.5t-43 19.5zM1425 1024l-49 45
l293 410q34 51 74 51q42 0 51 -51l92 -437l-61 -20l-125 264z" />
    <glyph glyph-name="ffedieresis" unicode="ff&#xeb;" horiz-adv-x="1822" 
d="M424 883l309 2q45 220 84 334q105 307 334 307q73 0 122.5 -42t49.5 -98q0 -45 -23 -72.5t-61 -27.5q-59 0 -94 66q-20 37 -33 49t-37 12q-99 0 -123 -239q-10 -87 -39 -287q139 4 213 8l17 -35l-27 -88h-221l-107 -668q-102 -643 -397 -643q-73 0 -121.5 34.5
t-48.5 88.5q0 41 25.5 67.5t64.5 26.5q51 0 90 -57q23 -39 62 -39q26 -2 44 16.5t37.5 84.5t39.5 190l131 899h-309l-107 -668q-102 -643 -397 -643q-73 0 -121.5 34.5t-48.5 88.5q0 41 25.5 67.5t64.5 26.5q51 0 90 -57q23 -39 61 -39q26 -2 44 16.5t37.5 84.5t39.5 190
l131 899h-153v96l170 11q57 259 84 340q50 148 137 227.5t199 79.5q73 0 122.5 -42t49.5 -98q0 -45 -23 -72.5t-61 -27.5q-60 0 -95 66q-20 37 -32.5 49t-36.5 12q-99 0 -123 -239q-1 -10 -39 -291zM1815 766q0 -120 -120 -212.5t-370 -137.5q-18 -68 -18 -144
q0 -137 98 -137q52 0 107.5 44.5t132.5 148.5l51 -31q-154 -330 -344 -330q-103 0 -162.5 69t-59.5 187q0 257 183 496q163 211 332 211q77 0 123.5 -47t46.5 -117zM1585 807q-67 0 -135 -87.5t-109 -232.5q304 85 304 250q0 31 -17 50.5t-43 19.5zM1399 1333q0 49 33.5 83
t83.5 34q51 0 84.5 -33.5t33.5 -83.5q0 -51 -33.5 -85t-84.5 -34q-50 0 -83.5 34t-33.5 85zM1739 1333q0 50 33.5 83.5t82.5 33.5q51 0 86 -34t35 -83q0 -51 -35 -85t-86 -34q-50 0 -83 34t-33 85z" />
    <glyph glyph-name="ffiacute" unicode="ff&#xed;" horiz-adv-x="1503" 
d="M584 -127l131 899h-309l-107 -668q-102 -643 -397 -643q-73 0 -121.5 34.5t-48.5 88.5q0 41 25.5 67.5t64.5 26.5q51 0 90 -57q23 -39 61 -39q26 -2 44 16.5t37.5 84.5t39.5 190l131 899h-153v96l170 11q57 259 84 340q50 148 137 227.5t199 79.5q73 0 122.5 -42
t49.5 -98q0 -45 -23 -72.5t-61 -27.5q-60 0 -95 66q-20 37 -32.5 49t-36.5 12q-99 0 -123 -239q-1 -10 -39 -291l309 2q45 220 84 334q105 307 334 307q73 0 122.5 -42t49.5 -98q0 -45 -23 -72.5t-61 -27.5q-59 0 -94 66q-20 37 -33 49t-37 12q-99 0 -123 -239
q-9 -89 -39 -289l172 6q161 6 277 47l53 -23q-73 -251 -86 -321l-82 -375q-10 -62 -10 -63q0 -29 25 -29q30 0 66 34t102 128l45 -33q-144 -276 -301 -276q-51 0 -85 32.5t-34 85.5q0 75 32 203l72 315q17 80 17 103q0 53 -109 53h-172l-107 -668q-102 -643 -397 -643
q-73 0 -121.5 34.5t-48.5 88.5q0 41 25.5 67.5t64.5 26.5q51 0 90 -57q23 -39 62 -39q26 -2 44 16.5t37.5 84.5t39.5 190zM1315 991l-51 37l174 383q30 64 60.5 92.5t72.5 28.5q41 0 66.5 -27t25.5 -69q0 -50 -70 -129z" />
    <glyph glyph-name="fficircumflex" unicode="ff&#xee;" horiz-adv-x="1636" 
d="M424 883l309 2q45 220 84 334q105 307 334 307q73 0 122.5 -42t49.5 -98q0 -45 -23 -72.5t-61 -27.5q-59 0 -94 66q-20 37 -33 49t-37 12q-99 0 -123 -239q-10 -87 -39 -287q139 4 213 8l17 -35l-27 -88h-221l-107 -668q-102 -643 -397 -643q-73 0 -121.5 34.5
t-48.5 88.5q0 41 25.5 67.5t64.5 26.5q51 0 90 -57q23 -39 62 -39q26 -2 44 16.5t37.5 84.5t39.5 190l131 899h-309l-107 -668q-102 -643 -397 -643q-73 0 -121.5 34.5t-48.5 88.5q0 41 25.5 67.5t64.5 26.5q51 0 90 -57q23 -39 61 -39q26 -2 44 16.5t37.5 84.5t39.5 190
l131 899h-153v96l170 11q57 259 84 340q50 148 137 227.5t199 79.5q73 0 122.5 -42t49.5 -98q0 -45 -23 -72.5t-61 -27.5q-60 0 -95 66q-20 37 -32.5 49t-36.5 12q-99 0 -123 -239q-1 -10 -39 -291zM1210 299l119 324q35 96 35 120q0 23 -21 23q-34 0 -149 -127l-41 35
q175 254 293 254q47 0 74.5 -31.5t27.5 -85.5q0 -71 -51 -205l-139 -391q-21 -58 -21 -70q0 -20 21 -20q46 0 162 162l45 -33q-145 -274 -301 -274q-47 0 -78 32t-31 80q0 55 55 207zM1274 1024l-49 45l293 410q34 51 73 51q42 0 51 -51l93 -437l-62 -20l-125 264z" />
    <glyph glyph-name="ffidieresis" unicode="ff&#xef;" horiz-adv-x="1658" 
d="M424 883l309 2q45 220 84 334q105 307 334 307q73 0 122.5 -42t49.5 -98q0 -45 -23 -72.5t-61 -27.5q-59 0 -94 66q-20 37 -33 49t-37 12q-99 0 -123 -239q-10 -87 -39 -287q139 4 213 8l17 -35l-27 -88h-221l-107 -668q-102 -643 -397 -643q-73 0 -121.5 34.5
t-48.5 88.5q0 41 25.5 67.5t64.5 26.5q51 0 90 -57q23 -39 62 -39q26 -2 44 16.5t37.5 84.5t39.5 190l131 899h-309l-107 -668q-102 -643 -397 -643q-73 0 -121.5 34.5t-48.5 88.5q0 41 25.5 67.5t64.5 26.5q51 0 90 -57q23 -39 61 -39q26 -2 44 16.5t37.5 84.5t39.5 190
l131 899h-153v96l170 11q57 259 84 340q50 148 137 227.5t199 79.5q73 0 122.5 -42t49.5 -98q0 -45 -23 -72.5t-61 -27.5q-60 0 -95 66q-20 37 -32.5 49t-36.5 12q-99 0 -123 -239q-1 -10 -39 -291zM1233 299l119 324q34 93 34 120q0 23 -20 23q-34 0 -149 -127l-41 35
q175 254 292 254q47 0 75 -31.5t28 -85.5q0 -71 -51 -205l-140 -391q-20 -56 -20 -70q0 -20 20 -20q46 0 162 162l45 -33q-145 -274 -301 -274q-47 0 -77.5 32t-30.5 80q0 55 55 207zM1266 1180q0 50 33 83t83 33q51 0 85 -33t34 -83q0 -51 -34 -85t-85 -34q-50 0 -83 34
t-33 85zM1606 1180q0 50 33 83t83 33q51 0 86 -33.5t35 -82.5q0 -51 -35 -85t-86 -34q-50 0 -83 34t-33 85z" />
    <glyph glyph-name="ffntilde" unicode="ff&#xf1;" horiz-adv-x="2074" 
d="M1479 651l4 -2q165 281 317 281q68 0 114 -49.5t46 -122.5q0 -62 -31 -160q-57 -171 -131 -410q-8 -24 -8 -38q0 -19 20 -19q43 0 166 156l45 -35q-163 -272 -307 -272q-44 0 -77 33t-33 75q0 66 47 209l102 315q16 59 16 101q0 55 -53 55q-74 0 -155 -100t-121 -269
l-94 -399q-43 -16 -89 -16q-66 0 -100 55q85 284 100 356l64 267q14 60 14 88q0 26 -20 26q-45 0 -127 -125l-47 37q76 132 137.5 187t124.5 55q43 0 72.5 -36t29.5 -91q0 -48 -26 -152zM1778 1386q58 -38 106 -38q67 0 141 59l39 -33q-38 -75 -98 -118.5t-123 -43.5
q-41 0 -121 41q-77 41 -114 41q-65 0 -138 -61l-38 33q38 77 96.5 120.5t122.5 43.5q59 0 127 -44zM424 883l309 2q45 220 84 334q105 307 334 307q73 0 122.5 -42t49.5 -98q0 -45 -23 -72.5t-61 -27.5q-59 0 -94 66q-20 37 -33 49t-37 12q-99 0 -123 -239q-10 -87 -39 -287
q139 4 213 8l17 -35l-27 -88h-221l-107 -668q-102 -643 -397 -643q-73 0 -121.5 34.5t-48.5 88.5q0 41 25.5 67.5t64.5 26.5q51 0 90 -57q23 -39 62 -39q26 -2 44 16.5t37.5 84.5t39.5 190l131 899h-309l-107 -668q-102 -643 -397 -643q-73 0 -121.5 34.5t-48.5 88.5
q0 41 25.5 67.5t64.5 26.5q51 0 90 -57q23 -39 61 -39q26 -2 44 16.5t37.5 84.5t39.5 190l131 899h-153v96l170 11q57 259 84 340q50 148 137 227.5t199 79.5q73 0 122.5 -42t49.5 -98q0 -45 -23 -72.5t-61 -27.5q-60 0 -95 66q-20 37 -32.5 49t-36.5 12q-99 0 -123 -239
q-1 -10 -39 -291z" />
    <glyph glyph-name="ffocircumflex" unicode="ff&#xf4;" horiz-adv-x="1951" 
d="M424 883l309 2q45 220 84 334q105 307 334 307q73 0 122.5 -42t49.5 -98q0 -45 -23 -72.5t-61 -27.5q-59 0 -94 66q-20 37 -33 49t-37 12q-99 0 -123 -239q-10 -87 -39 -287q139 4 213 8l17 -35l-27 -88h-221l-107 -668q-102 -643 -397 -643q-73 0 -121.5 34.5
t-48.5 88.5q0 41 25.5 67.5t64.5 26.5q51 0 90 -57q23 -39 62 -39q26 -2 44 16.5t37.5 84.5t39.5 190l131 899h-309l-107 -668q-102 -643 -397 -643q-73 0 -121.5 34.5t-48.5 88.5q0 41 25.5 67.5t64.5 26.5q51 0 90 -57q23 -39 61 -39q26 -2 44 16.5t37.5 84.5t39.5 190
l131 899h-153v96l170 11q57 259 84 340q50 148 137 227.5t199 79.5q73 0 122.5 -42t49.5 -98q0 -45 -23 -72.5t-61 -27.5q-60 0 -95 66q-20 37 -32.5 49t-36.5 12q-99 0 -123 -239q-1 -10 -39 -291zM1696 582q0 245 -121 245q-60 0 -115 -61q-129 -144 -129 -465
q0 -238 119 -238q65 0 123 70q123 150 123 449zM1450 -33q-137 0 -222 102t-85 271q0 159 63 297t168 217q95 74 203 74q126 0 217 -101q92 -103 92 -288q0 -155 -60.5 -287t-160.5 -209q-101 -76 -215 -76zM1427 1024l-49 45l293 410q34 51 74 51q42 0 51 -51l92 -437
l-61 -20l-125 264z" />
    <glyph glyph-name="ffodieresis" unicode="ff&#xf6;" horiz-adv-x="1951" 
d="M424 883l309 2q45 220 84 334q105 307 334 307q73 0 122.5 -42t49.5 -98q0 -45 -23 -72.5t-61 -27.5q-59 0 -94 66q-20 37 -33 49t-37 12q-99 0 -123 -239q-10 -87 -39 -287q139 4 213 8l17 -35l-27 -88h-221l-107 -668q-102 -643 -397 -643q-73 0 -121.5 34.5
t-48.5 88.5q0 41 25.5 67.5t64.5 26.5q51 0 90 -57q23 -39 62 -39q26 -2 44 16.5t37.5 84.5t39.5 190l131 899h-309l-107 -668q-102 -643 -397 -643q-73 0 -121.5 34.5t-48.5 88.5q0 41 25.5 67.5t64.5 26.5q51 0 90 -57q23 -39 61 -39q26 -2 44 16.5t37.5 84.5t39.5 190
l131 899h-153v96l170 11q57 259 84 340q50 148 137 227.5t199 79.5q73 0 122.5 -42t49.5 -98q0 -45 -23 -72.5t-61 -27.5q-60 0 -95 66q-20 37 -32.5 49t-36.5 12q-99 0 -123 -239q-1 -10 -39 -291zM1696 582q0 245 -121 245q-60 0 -115 -61q-129 -144 -129 -465
q0 -238 119 -238q65 0 123 70q123 150 123 449zM1450 -33q-137 0 -222 102t-85 271q0 159 63 297t168 217q95 74 203 74q126 0 217 -101q92 -103 92 -288q0 -155 -60.5 -287t-160.5 -209q-101 -76 -215 -76zM1407 1333q0 49 33.5 83t83.5 34q51 0 84.5 -33.5t33.5 -83.5
q0 -51 -33.5 -85t-84.5 -34q-50 0 -83.5 34t-33.5 85zM1747 1333q0 49 33.5 83t83.5 34q51 0 86 -34t35 -83q0 -51 -35 -85t-86 -34q-50 0 -83.5 34t-33.5 85z" />
    <glyph glyph-name="ffotilde" unicode="ff&#xf5;" horiz-adv-x="1951" 
d="M424 883l309 2q45 220 84 334q105 307 334 307q73 0 122.5 -42t49.5 -98q0 -45 -23 -72.5t-61 -27.5q-59 0 -94 66q-20 37 -33 49t-37 12q-99 0 -123 -239q-10 -87 -39 -287q139 4 213 8l17 -35l-27 -88h-221l-107 -668q-102 -643 -397 -643q-73 0 -121.5 34.5
t-48.5 88.5q0 41 25.5 67.5t64.5 26.5q51 0 90 -57q23 -39 62 -39q26 -2 44 16.5t37.5 84.5t39.5 190l131 899h-309l-107 -668q-102 -643 -397 -643q-73 0 -121.5 34.5t-48.5 88.5q0 41 25.5 67.5t64.5 26.5q51 0 90 -57q23 -39 61 -39q26 -2 44 16.5t37.5 84.5t39.5 190
l131 899h-153v96l170 11q57 259 84 340q50 148 137 227.5t199 79.5q73 0 122.5 -42t49.5 -98q0 -45 -23 -72.5t-61 -27.5q-60 0 -95 66q-20 37 -32.5 49t-36.5 12q-99 0 -123 -239q-1 -10 -39 -291zM1696 582q0 245 -121 245q-60 0 -115 -61q-129 -144 -129 -465
q0 -238 119 -238q65 0 123 70q123 150 123 449zM1450 -33q-137 0 -222 102t-85 271q0 159 63 297t168 217q95 74 203 74q126 0 217 -101q92 -103 92 -288q0 -155 -60.5 -287t-160.5 -209q-101 -76 -215 -76zM1733 1386q58 -38 106 -38q67 0 141 59l39 -33
q-38 -75 -98 -118.5t-123 -43.5q-41 0 -121 41q-77 41 -114 41q-65 0 -138 -61l-39 33q38 77 97 120.5t123 43.5q59 0 127 -44z" />
    <glyph glyph-name="ffudieresis" unicode="ff&#xfc;" horiz-adv-x="2095" 
d="M424 883l309 2q45 220 84 334q105 307 334 307q73 0 122.5 -42t49.5 -98q0 -45 -23 -72.5t-61 -27.5q-59 0 -94 66q-20 37 -33 49t-37 12q-99 0 -123 -239q-10 -87 -39 -287q139 4 213 8l17 -35l-27 -88h-221l-107 -668q-102 -643 -397 -643q-73 0 -121.5 34.5
t-48.5 88.5q0 41 25.5 67.5t64.5 26.5q51 0 90 -57q23 -39 62 -39q26 -2 44 16.5t37.5 84.5t39.5 190l131 899h-309l-107 -668q-102 -643 -397 -643q-73 0 -121.5 34.5t-48.5 88.5q0 41 25.5 67.5t64.5 26.5q51 0 90 -57q23 -39 61 -39q26 -2 44 16.5t37.5 84.5t39.5 190
l131 899h-153v96l170 11q57 259 84 340q50 148 137 227.5t199 79.5q73 0 122.5 -42t49.5 -98q0 -45 -23 -72.5t-61 -27.5q-60 0 -95 66q-20 37 -32.5 49t-36.5 12q-99 0 -123 -239q-1 -10 -39 -291zM1704 410q-128 -262 -207 -344q-80 -86 -176 -86q-66 0 -106.5 43
t-40.5 106q0 77 51 205l123 313q24 65 24 96q0 35 -26 35q-40 0 -160 -147l-45 37q98 143 165.5 201.5t133.5 58.5q48 0 80 -36t32 -95q0 -66 -51 -197l-123 -328q-20 -53 -20 -86q0 -47 47 -47q66 0 162 135q115 166 252 547l28 80q21 12 51 12q80 0 117 -67
q-77 -211 -112 -328q-61 -199 -78 -305q-6 -40 -6 -53q0 -27 22 -27q43 0 162 146q11 -7 43 -35q-166 -264 -293 -264q-51 0 -79.5 33.5t-28.5 90.5q0 103 63 304q-4 0 -4 2zM1479 1333q0 50 33.5 83.5t82.5 33.5q51 0 85 -33.5t34 -83.5q0 -51 -34 -85t-85 -34
q-50 0 -83 34t-33 85zM1819 1333q0 50 33.5 83.5t82.5 33.5q51 0 86 -34t35 -83q0 -51 -35 -85t-86 -34q-50 0 -83 34t-33 85z" />
    <glyph glyph-name="ffydieresis" unicode="ff&#xff;" horiz-adv-x="1998" 
d="M424 883l309 2q45 220 84 334q105 307 334 307q73 0 122.5 -42t49.5 -98q0 -45 -23 -72.5t-61 -27.5q-59 0 -94 66q-20 37 -33 49t-37 12q-99 0 -123 -239q-10 -87 -39 -287q139 4 213 8l17 -35l-27 -88h-221l-107 -668q-102 -643 -397 -643q-73 0 -121.5 34.5
t-48.5 88.5q0 41 25.5 67.5t64.5 26.5q51 0 90 -57q23 -39 62 -39q26 -2 44 16.5t37.5 84.5t39.5 190l131 899h-309l-107 -668q-102 -643 -397 -643q-73 0 -121.5 34.5t-48.5 88.5q0 41 25.5 67.5t64.5 26.5q51 0 90 -57q23 -39 61 -39q26 -2 44 16.5t37.5 84.5t39.5 190
l131 899h-153v96l170 11q57 259 84 340q50 148 137 227.5t199 79.5q73 0 122.5 -42t49.5 -98q0 -45 -23 -72.5t-61 -27.5q-60 0 -95 66q-20 37 -32.5 49t-36.5 12q-99 0 -123 -239q-1 -10 -39 -291zM1446 72q0 159 -35 346q-36 194 -76 287q-21 55 -45 55q-55 0 -125 -211
l-55 16q82 363 236 363q102 0 161 -164q101 -276 101 -625q0 -55 -9 -131h5q168 381 168 766q0 66 -13 133q29 29 86 29q34 0 53 -8q11 -50 11 -103q0 -372 -180 -753q-151 -318 -377 -492q-189 -145 -404 -145q-65 0 -104 28t-39 70q0 39 27 64.5t71 25.5q29 0 84 -24
q61 -25 115 -25q139 0 241 141q103 139 103 357zM1358 1282q0 50 34 83.5t83 33.5q51 0 84.5 -33.5t33.5 -83.5q0 -51 -33.5 -85t-84.5 -34q-50 0 -83.5 34t-33.5 85zM1698 1282q0 50 34 83.5t83 33.5q51 0 85.5 -33.5t34.5 -83.5q0 -51 -34.5 -85t-85.5 -34q-50 0 -83.5 34
t-33.5 85z" />
    <glyph glyph-name="fflcaron" unicode="ff&#x13e;" horiz-adv-x="1617" 
d="M582 -127l131 899h-307l-107 -668q-102 -643 -397 -643q-73 0 -121.5 34.5t-48.5 88.5q0 41 25.5 67.5t64.5 26.5q51 0 90 -57q23 -39 61 -39q26 -2 44 16.5t37.5 84.5t39.5 190l131 899h-153v96l170 11q57 259 84 340q50 148 137 227.5t199 79.5q73 0 122.5 -42
t49.5 -98q0 -45 -23 -72.5t-61 -27.5q-60 0 -95 66q-20 37 -32.5 49t-36.5 12q-99 0 -123 -239q-1 -10 -39 -291l307 2q48 218 113 348q69 135 173.5 214t233.5 79q107 0 170 -51q114 59 127 65l31 -33q-53 -164 -100 -354l-230 -944q-6 -30 -6 -41q0 -25 25 -25
q58 0 196 179l45 -33q-184 -309 -350 -309q-46 0 -77 28t-31 74q0 62 39 219l202 856q64 258 -92 258q-100 0 -170 -117q-74 -122 -119 -411q49 0 172 8l17 -35l-27 -88h-180l-107 -668q-102 -643 -397 -643q-74 0 -122 34.5t-48 88.5q0 41 25.5 67.5t64.5 26.5q51 0 90 -57
q23 -39 62 -39q26 -2 44 16.5t37.5 84.5t39.5 190zM1794 1563q56 0 93.5 -47.5t37.5 -120.5q0 -110 -77 -187.5t-220 -109.5l-20 57q101 38 143.5 73t42.5 79q0 32 -39 61q-63 45 -63 98q0 41 29 69t73 28z" />
    <glyph glyph-name="ffabreve" unicode="ff&#x103;" horiz-adv-x="2031" 
d="M424 883l309 2q45 220 84 334q105 307 334 307q73 0 122.5 -42t49.5 -98q0 -45 -23 -72.5t-61 -27.5q-59 0 -94 66q-20 37 -33 49t-37 12q-99 0 -123 -239q-10 -87 -39 -287q139 4 213 8l17 -35l-27 -88h-221l-107 -668q-102 -643 -397 -643q-73 0 -121.5 34.5
t-48.5 88.5q0 41 25.5 67.5t64.5 26.5q51 0 90 -57q23 -39 62 -39q26 -2 44 16.5t37.5 84.5t39.5 190l131 899h-309l-107 -668q-102 -643 -397 -643q-73 0 -121.5 34.5t-48.5 88.5q0 41 25.5 67.5t64.5 26.5q51 0 90 -57q23 -39 61 -39q26 -2 44 16.5t37.5 84.5t39.5 190
l131 899h-153v96l170 11q57 259 84 340q50 148 137 227.5t199 79.5q73 0 122.5 -42t49.5 -98q0 -45 -23 -72.5t-61 -27.5q-60 0 -95 66q-20 37 -32.5 49t-36.5 12q-99 0 -123 -239q-1 -10 -39 -291zM1290 227q0 -104 70 -104q54 0 135.5 96t153.5 260q38 86 65 201
q-35 92 -106 92q-82 0 -160 -96q-75 -93 -117 -223q-41 -128 -41 -226zM1116 164q0 118 62 266q60 147 157 270q179 226 336 226q14 0 26 -1.5l20 -2.5t18 -5.5t14 -6t14.5 -9.5t12 -9t13.5 -12t13 -12l53 82q64 -9 107 -47q-81 -245 -117 -377l-30 -106l-31 -109
q-25 -128 -25 -155q0 -25 23 -25q52 0 172 166l45 -35q-92 -153 -162.5 -219t-140.5 -66q-51 0 -80 30.5t-29 84.5q0 77 35 193l-4 4q-176 -324 -336 -324q-77 0 -121.5 54t-44.5 145zM1712 1075q-98 0 -152.5 70t-54.5 194q0 63 17 170h67v-39q0 -123 31 -176t98 -53
q156 0 258 268l68 -12q-40 -207 -129 -314.5t-203 -107.5z" />
    <glyph glyph-name="fflacute" unicode="ff&#x13a;" horiz-adv-x="1540" 
d="M582 -127l131 899h-307l-107 -668q-102 -643 -397 -643q-73 0 -121.5 34.5t-48.5 88.5q0 41 25.5 67.5t64.5 26.5q51 0 90 -57q23 -39 61 -39q26 -2 44 16.5t37.5 84.5t39.5 190l131 899h-153v96l170 11q57 259 84 340q50 148 137 227.5t199 79.5q73 0 122.5 -42
t49.5 -98q0 -45 -23 -72.5t-61 -27.5q-60 0 -95 66q-20 37 -32.5 49t-36.5 12q-99 0 -123 -239q-1 -10 -39 -291l307 2q48 218 113 348q69 135 173.5 214t233.5 79q107 0 170 -51q114 59 127 65l31 -33q-53 -164 -100 -354l-230 -944q-6 -30 -6 -41q0 -25 25 -25
q58 0 196 179l45 -33q-184 -309 -350 -309q-46 0 -77 28t-31 74q0 62 39 219l202 856q64 258 -92 258q-100 0 -170 -117q-74 -122 -119 -411q49 0 172 8l17 -35l-27 -88h-180l-107 -668q-102 -643 -397 -643q-74 0 -122 34.5t-48 88.5q0 41 25.5 67.5t64.5 26.5q51 0 90 -57
q23 -39 62 -39q26 -2 44 16.5t37.5 84.5t39.5 190zM1266 1563l-21 57l311 184q65 39 111 39q38 0 64 -25t26 -63q0 -83 -127 -110z" />
    <glyph glyph-name="ffccaron" unicode="ff&#x10d;" horiz-adv-x="1796" 
d="M424 883l309 2q45 220 84 334q105 307 334 307q73 0 122.5 -42t49.5 -98q0 -45 -23 -72.5t-61 -27.5q-59 0 -94 66q-20 37 -33 49t-37 12q-99 0 -123 -239q-10 -87 -39 -287q139 4 213 8l17 -35l-27 -88h-221l-107 -668q-102 -643 -397 -643q-73 0 -121.5 34.5
t-48.5 88.5q0 41 25.5 67.5t64.5 26.5q51 0 90 -57q23 -39 62 -39q26 -2 44 16.5t37.5 84.5t39.5 190l131 899h-309l-107 -668q-102 -643 -397 -643q-73 0 -121.5 34.5t-48.5 88.5q0 41 25.5 67.5t64.5 26.5q51 0 90 -57q23 -39 61 -39q26 -2 44 16.5t37.5 84.5t39.5 190
l131 899h-153v96l170 11q57 259 84 340q50 148 137 227.5t199 79.5q73 0 122.5 -42t49.5 -98q0 -45 -23 -72.5t-61 -27.5q-60 0 -95 66q-20 37 -32.5 49t-36.5 12q-99 0 -123 -239q-1 -10 -39 -291zM1726 662q-36 0 -57.5 22.5t-29.5 49t-24 49t-42 22.5q-55 0 -113 -63
t-98 -173q-57 -149 -57 -301q0 -133 108 -133q104 0 242 193l51 -31q-151 -330 -369 -330q-93 0 -150 68t-57 180q0 256 162 485q164 232 346 232q74 0 125.5 -47.5t51.5 -120.5q0 -43 -26 -72.5t-63 -29.5zM1964 1530l49 -45l-291 -410q-39 -51 -73 -51q-45 0 -54 51
l-92 436l62 19l127 -264z" />
    <glyph glyph-name="ffecaron" unicode="ff&#x11b;" horiz-adv-x="1822" 
d="M1815 766q0 -120 -120 -212.5t-370 -137.5q-18 -68 -18 -144q0 -137 98 -137q52 0 107.5 44.5t132.5 148.5l51 -31q-154 -330 -344 -330q-103 0 -162.5 69t-59.5 187q0 257 183 496q163 211 332 211q77 0 123.5 -47t46.5 -117zM1585 807q-67 0 -135 -87.5t-109 -232.5
q304 85 304 250q0 31 -17 50.5t-43 19.5zM1948 1530l49 -45l-291 -410q-39 -51 -74 -51q-44 0 -53 51l-92 436l61 19l127 -264zM424 883l309 2q45 220 84 334q105 307 334 307q73 0 122.5 -42t49.5 -98q0 -45 -23 -72.5t-61 -27.5q-59 0 -94 66q-20 37 -33 49t-37 12
q-99 0 -123 -239q-10 -87 -39 -287q139 4 213 8l17 -35l-27 -88h-221l-107 -668q-102 -643 -397 -643q-73 0 -121.5 34.5t-48.5 88.5q0 41 25.5 67.5t64.5 26.5q51 0 90 -57q23 -39 62 -39q26 -2 44 16.5t37.5 84.5t39.5 190l131 899h-309l-107 -668q-102 -643 -397 -643
q-73 0 -121.5 34.5t-48.5 88.5q0 41 25.5 67.5t64.5 26.5q51 0 90 -57q23 -39 61 -39q26 -2 44 16.5t37.5 84.5t39.5 190l131 899h-153v96l170 11q57 259 84 340q50 148 137 227.5t199 79.5q73 0 122.5 -42t49.5 -98q0 -45 -23 -72.5t-61 -27.5q-60 0 -95 66
q-20 37 -32.5 49t-36.5 12q-99 0 -123 -239q-1 -10 -39 -291z" />
    <glyph glyph-name="ffohungarumlaut" unicode="ff&#x151;" horiz-adv-x="1951" 
d="M424 883l309 2q45 220 84 334q105 307 334 307q73 0 122.5 -42t49.5 -98q0 -45 -23 -72.5t-61 -27.5q-59 0 -94 66q-20 37 -33 49t-37 12q-99 0 -123 -239q-10 -87 -39 -287q139 4 213 8l17 -35l-27 -88h-221l-107 -668q-102 -643 -397 -643q-73 0 -121.5 34.5
t-48.5 88.5q0 41 25.5 67.5t64.5 26.5q51 0 90 -57q23 -39 62 -39q26 -2 44 16.5t37.5 84.5t39.5 190l131 899h-309l-107 -668q-102 -643 -397 -643q-73 0 -121.5 34.5t-48.5 88.5q0 41 25.5 67.5t64.5 26.5q51 0 90 -57q23 -39 61 -39q26 -2 44 16.5t37.5 84.5t39.5 190
l131 899h-153v96l170 11q57 259 84 340q50 148 137 227.5t199 79.5q73 0 122.5 -42t49.5 -98q0 -45 -23 -72.5t-61 -27.5q-60 0 -95 66q-20 37 -32.5 49t-36.5 12q-99 0 -123 -239q-1 -10 -39 -291zM1696 582q0 245 -121 245q-60 0 -115 -61q-129 -144 -129 -465
q0 -238 119 -238q65 0 123 70q123 150 123 449zM1450 -33q-137 0 -222 102t-85 271q0 159 63 297t168 217q95 74 203 74q126 0 217 -101q92 -103 92 -288q0 -155 -60.5 -287t-160.5 -209q-101 -76 -215 -76zM1716 1012l-47 35l168 383q43 102 115 102q37 0 61.5 -27
t24.5 -65q0 -49 -53 -111zM1440 1012l-47 35l168 383q43 102 114 102q37 0 61.5 -27t24.5 -65q0 -49 -53 -111z" />
    <glyph glyph-name="ffrcaron" unicode="ff&#x159;" horiz-adv-x="1837" 
d="M1776 670q-49 0 -76 49q-22 36 -35 39q-4 2 -12 2q-29 0 -62 -39q-38 -40 -84.5 -159t-81.5 -286l-18 -92q-32 -165 -35 -184q-37 -16 -94 -16q-68 0 -94 51q42 170 80 356l55 273q12 50 10.5 80t-24.5 30q-42 0 -125 -121q-13 10 -24.5 18.5t-16.5 12t-6 4.5
q77 131 138.5 185.5t123.5 54.5q45 0 73.5 -35t28.5 -92q0 -52 -29 -187h5q66 169 127 241.5t129 72.5q56 0 94.5 -41.5t38.5 -102.5q0 -53 -24 -83.5t-62 -30.5zM1870 1530l49 -45l-291 -410q-39 -51 -74 -51q-44 0 -53 51l-92 436l61 19l127 -264zM424 883l309 2
q45 220 84 334q105 307 334 307q73 0 122.5 -42t49.5 -98q0 -45 -23 -72.5t-61 -27.5q-59 0 -94 66q-20 37 -33 49t-37 12q-99 0 -123 -239q-10 -87 -39 -287q139 4 213 8l17 -35l-27 -88h-221l-107 -668q-102 -643 -397 -643q-73 0 -121.5 34.5t-48.5 88.5q0 41 25.5 67.5
t64.5 26.5q51 0 90 -57q23 -39 62 -39q26 -2 44 16.5t37.5 84.5t39.5 190l131 899h-309l-107 -668q-102 -643 -397 -643q-73 0 -121.5 34.5t-48.5 88.5q0 41 25.5 67.5t64.5 26.5q51 0 90 -57q23 -39 61 -39q26 -2 44 16.5t37.5 84.5t39.5 190l131 899h-153v96l170 11
q57 259 84 340q50 148 137 227.5t199 79.5q73 0 122.5 -42t49.5 -98q0 -45 -23 -72.5t-61 -27.5q-60 0 -95 66q-20 37 -32.5 49t-36.5 12q-99 0 -123 -239q-1 -10 -39 -291z" />
    <glyph glyph-name="ffuring" unicode="ff&#x16f;" horiz-adv-x="2095" 
d="M1704 410q-128 -262 -207 -344q-80 -86 -176 -86q-66 0 -106.5 43t-40.5 106q0 77 51 205l123 313q24 65 24 96q0 35 -26 35q-40 0 -160 -147l-45 37q98 143 165.5 201.5t133.5 58.5q48 0 80 -36t32 -95q0 -66 -51 -197l-123 -328q-20 -53 -20 -86q0 -47 47 -47
q66 0 162 135q115 166 252 547l28 80q21 12 51 12q80 0 117 -67q-77 -211 -112 -328q-61 -199 -78 -305q-6 -40 -6 -53q0 -27 22 -27q43 0 162 146q11 -7 43 -35q-166 -264 -293 -264q-51 0 -79.5 33.5t-28.5 90.5q0 103 63 304q-4 0 -4 2zM1532 1317q0 91 65 156
q64 67 158 67q92 0 156 -67q67 -64 67 -156q0 -94 -67 -158q-65 -65 -156 -65q-92 0 -157.5 65.5t-65.5 157.5zM1753 1202q47 0 79 33t32 80q0 48 -32 81.5t-79 33.5q-44 0 -76 -34t-32 -81t32 -80t76 -33zM424 883l309 2q45 220 84 334q105 307 334 307q73 0 122.5 -42
t49.5 -98q0 -45 -23 -72.5t-61 -27.5q-59 0 -94 66q-20 37 -33 49t-37 12q-99 0 -123 -239q-10 -87 -39 -287q139 4 213 8l17 -35l-27 -88h-221l-107 -668q-102 -643 -397 -643q-73 0 -121.5 34.5t-48.5 88.5q0 41 25.5 67.5t64.5 26.5q51 0 90 -57q23 -39 62 -39
q26 -2 44 16.5t37.5 84.5t39.5 190l131 899h-309l-107 -668q-102 -643 -397 -643q-73 0 -121.5 34.5t-48.5 88.5q0 41 25.5 67.5t64.5 26.5q51 0 90 -57q23 -39 61 -39q26 -2 44 16.5t37.5 84.5t39.5 190l131 899h-153v96l170 11q57 259 84 340q50 148 137 227.5t199 79.5
q73 0 122.5 -42t49.5 -98q0 -45 -23 -72.5t-61 -27.5q-60 0 -95 66q-20 37 -32.5 49t-36.5 12q-99 0 -123 -239q-1 -10 -39 -291z" />
    <glyph glyph-name="ffamacron" unicode="ff&#x101;" horiz-adv-x="2031" 
d="M424 883l309 2q45 220 84 334q105 307 334 307q73 0 122.5 -42t49.5 -98q0 -45 -23 -72.5t-61 -27.5q-59 0 -94 66q-20 37 -33 49t-37 12q-99 0 -123 -239q-10 -87 -39 -287q139 4 213 8l17 -35l-27 -88h-221l-107 -668q-102 -643 -397 -643q-73 0 -121.5 34.5
t-48.5 88.5q0 41 25.5 67.5t64.5 26.5q51 0 90 -57q23 -39 62 -39q26 -2 44 16.5t37.5 84.5t39.5 190l131 899h-309l-107 -668q-102 -643 -397 -643q-73 0 -121.5 34.5t-48.5 88.5q0 41 25.5 67.5t64.5 26.5q51 0 90 -57q23 -39 61 -39q26 -2 44 16.5t37.5 84.5t39.5 190
l131 899h-153v96l170 11q57 259 84 340q50 148 137 227.5t199 79.5q73 0 122.5 -42t49.5 -98q0 -45 -23 -72.5t-61 -27.5q-60 0 -95 66q-20 37 -32.5 49t-36.5 12q-99 0 -123 -239q-1 -10 -39 -291zM1290 227q0 -104 70 -104q54 0 135.5 96t153.5 260q38 86 65 201
q-35 92 -106 92q-82 0 -160 -96q-75 -93 -117 -223q-41 -128 -41 -226zM1116 164q0 118 62 266q60 147 157 270q179 226 336 226q14 0 26 -1.5l20 -2.5t18 -5.5t14 -6t14.5 -9.5t12 -9t13.5 -12t13 -12l53 82q64 -9 107 -47q-81 -245 -117 -377l-30 -106l-31 -109
q-25 -128 -25 -155q0 -25 23 -25q52 0 172 166l45 -35q-92 -153 -162.5 -219t-140.5 -66q-51 0 -80 30.5t-29 84.5q0 77 35 193l-4 4q-176 -324 -336 -324q-77 0 -121.5 54t-44.5 145zM1993 1253h-539l25 129h538z" />
    <glyph glyph-name="ffemacron" unicode="ff&#x113;" horiz-adv-x="1822" 
d="M424 883l309 2q45 220 84 334q105 307 334 307q73 0 122.5 -42t49.5 -98q0 -45 -23 -72.5t-61 -27.5q-59 0 -94 66q-20 37 -33 49t-37 12q-99 0 -123 -239q-10 -87 -39 -287q139 4 213 8l17 -35l-27 -88h-221l-107 -668q-102 -643 -397 -643q-73 0 -121.5 34.5
t-48.5 88.5q0 41 25.5 67.5t64.5 26.5q51 0 90 -57q23 -39 62 -39q26 -2 44 16.5t37.5 84.5t39.5 190l131 899h-309l-107 -668q-102 -643 -397 -643q-73 0 -121.5 34.5t-48.5 88.5q0 41 25.5 67.5t64.5 26.5q51 0 90 -57q23 -39 61 -39q26 -2 44 16.5t37.5 84.5t39.5 190
l131 899h-153v96l170 11q57 259 84 340q50 148 137 227.5t199 79.5q73 0 122.5 -42t49.5 -98q0 -45 -23 -72.5t-61 -27.5q-60 0 -95 66q-20 37 -32.5 49t-36.5 12q-99 0 -123 -239q-1 -10 -39 -291zM1815 766q0 -120 -120 -212.5t-370 -137.5q-18 -68 -18 -144
q0 -137 98 -137q52 0 107.5 44.5t132.5 148.5l51 -31q-154 -330 -344 -330q-103 0 -162.5 69t-59.5 187q0 257 183 496q163 211 332 211q77 0 123.5 -47t46.5 -117zM1585 807q-67 0 -135 -87.5t-109 -232.5q304 85 304 250q0 31 -17 50.5t-43 19.5zM1929 1233h-538l24 129
h539z" />
    <glyph glyph-name="ffedotaccent" unicode="ff&#x117;" horiz-adv-x="1822" 
d="M424 883l309 2q45 220 84 334q105 307 334 307q73 0 122.5 -42t49.5 -98q0 -45 -23 -72.5t-61 -27.5q-59 0 -94 66q-20 37 -33 49t-37 12q-99 0 -123 -239q-10 -87 -39 -287q139 4 213 8l17 -35l-27 -88h-221l-107 -668q-102 -643 -397 -643q-73 0 -121.5 34.5
t-48.5 88.5q0 41 25.5 67.5t64.5 26.5q51 0 90 -57q23 -39 62 -39q26 -2 44 16.5t37.5 84.5t39.5 190l131 899h-309l-107 -668q-102 -643 -397 -643q-73 0 -121.5 34.5t-48.5 88.5q0 41 25.5 67.5t64.5 26.5q51 0 90 -57q23 -39 61 -39q26 -2 44 16.5t37.5 84.5t39.5 190
l131 899h-153v96l170 11q57 259 84 340q50 148 137 227.5t199 79.5q73 0 122.5 -42t49.5 -98q0 -45 -23 -72.5t-61 -27.5q-60 0 -95 66q-20 37 -32.5 49t-36.5 12q-99 0 -123 -239q-1 -10 -39 -291zM1815 766q0 -120 -120 -212.5t-370 -137.5q-18 -68 -18 -144
q0 -137 98 -137q52 0 107.5 44.5t132.5 148.5l51 -31q-154 -330 -344 -330q-103 0 -162.5 69t-59.5 187q0 257 183 496q163 211 332 211q77 0 123.5 -47t46.5 -117zM1585 807q-67 0 -135 -87.5t-109 -232.5q304 85 304 250q0 31 -17 50.5t-43 19.5zM1567 1276q-37 37 -37 92
t37 90q37 37 92 37t90 -37q37 -35 37 -90t-37 -92q-35 -37 -90 -37t-92 37z" />
    <glyph glyph-name="ffgcommaaccent" unicode="ff&#x123;" horiz-adv-x="1949" 
d="M1470 242q-86 0 -147 30q-20 -26 -20 -53q0 -52 110 -98l209 -88q203 -83 203 -262q0 -141 -121 -236q-119 -98 -318 -98q-183 0 -295 80t-112 204q0 195 246 297q-62 53 -62 129q0 97 101 170q-70 73 -70 191q0 167 115 291q117 123 264 123q119 0 209 -84q85 21 198 61
l31 -29v-98q-165 -25 -178 -27q14 -41 14 -106q0 -161 -114 -281q-113 -116 -263 -116zM1556 -137q-204 81 -268 114q-147 -77 -147 -219q0 -89 85 -144.5t226 -55.5q112 0 173 45t61 114q0 93 -130 146zM1470 336q83 0 138 98q57 96 57 221q0 174 -94 174q-79 0 -139 -100
q-60 -102 -60 -231q0 -162 98 -162zM424 883l309 2q45 220 84 334q105 307 334 307q73 0 122.5 -42t49.5 -98q0 -45 -23 -72.5t-61 -27.5q-59 0 -94 66q-20 37 -33 49t-37 12q-99 0 -123 -239q-10 -87 -39 -287q139 4 213 8l17 -35l-27 -88h-221l-107 -668
q-102 -643 -397 -643q-73 0 -121.5 34.5t-48.5 88.5q0 41 25.5 67.5t64.5 26.5q51 0 90 -57q23 -39 62 -39q26 -2 44 16.5t37.5 84.5t39.5 190l131 899h-309l-107 -668q-102 -643 -397 -643q-73 0 -121.5 34.5t-48.5 88.5q0 41 25.5 67.5t64.5 26.5q51 0 90 -57
q23 -39 61 -39q26 -2 44 16.5t37.5 84.5t39.5 190l131 899h-153v96l170 11q57 259 84 340q50 148 137 227.5t199 79.5q73 0 122.5 -42t49.5 -98q0 -45 -23 -72.5t-61 -27.5q-60 0 -95 66q-20 37 -32.5 49t-36.5 12q-99 0 -123 -239q-1 -10 -39 -291zM1675 1053
q-56 0 -93.5 47.5t-37.5 120.5q0 110 77 187.5t220 109.5l21 -58q-102 -38 -144.5 -73t-42.5 -78q0 -33 39 -62q64 -46 64 -98q0 -39 -29.5 -67.5t-73.5 -28.5z" />
    <glyph glyph-name="ffiogonek" unicode="ff&#x12f;" horiz-adv-x="1503" 
d="M1276 -215l45 -23q-64 -178 -211 -178q-68 0 -112 40.5t-44 101.5q0 141 191 258q-40 8 -65 38t-25 76q0 75 32 203l72 315q17 80 17 103q0 53 -109 53h-172l-107 -668q-102 -643 -397 -643q-73 0 -121.5 34.5t-48.5 88.5q0 41 25.5 67.5t64.5 26.5q51 0 90 -57
q23 -39 62 -39q26 -2 44 16.5t37.5 84.5t39.5 190l131 899h-309l-107 -668q-102 -643 -397 -643q-73 0 -121.5 34.5t-48.5 88.5q0 41 25.5 67.5t64.5 26.5q51 0 90 -57q23 -39 61 -39q26 -2 44 16.5t37.5 84.5t39.5 190l131 899h-153v96l170 11q57 259 84 340
q50 148 137 227.5t199 79.5q73 0 122.5 -42t49.5 -98q0 -45 -23 -72.5t-61 -27.5q-60 0 -95 66q-20 37 -32.5 49t-36.5 12q-99 0 -123 -239q-1 -10 -39 -291l309 2q48 218 113 348q69 135 173.5 214t233.5 79q107 0 178.5 -52t71.5 -137q0 -50 -28.5 -78t-79.5 -28
q-42 0 -68.5 25t-50.5 83q-27 74 -96 74q-182 0 -267 -528l172 6q161 6 277 47l53 -23q-73 -251 -86 -321l-82 -375q-10 -62 -10 -63q0 -29 25 -29q30 0 66 34t102 128l45 -33q-105 -196 -215 -254q-177 -124 -177 -242q0 -65 68 -65q72 0 125 90z" />
    <glyph glyph-name="fflcommaaccent" unicode="ff&#x13c;" horiz-adv-x="1540" 
d="M582 -127l131 899h-307l-107 -668q-102 -643 -397 -643q-73 0 -121.5 34.5t-48.5 88.5q0 41 25.5 67.5t64.5 26.5q51 0 90 -57q23 -39 61 -39q26 -2 44 16.5t37.5 84.5t39.5 190l131 899h-153v96l170 11q57 259 84 340q50 148 137 227.5t199 79.5q73 0 122.5 -42
t49.5 -98q0 -45 -23 -72.5t-61 -27.5q-60 0 -95 66q-20 37 -32.5 49t-36.5 12q-99 0 -123 -239q-1 -10 -39 -291l307 2q48 218 113 348q69 135 173.5 214t233.5 79q107 0 170 -51q114 59 127 65l31 -33q-53 -164 -100 -354l-230 -944q-6 -30 -6 -41q0 -25 25 -25
q58 0 196 179l45 -33q-184 -309 -350 -309q-46 0 -77 28t-31 74q0 62 39 219l202 856q64 258 -92 258q-100 0 -170 -117q-74 -122 -119 -411q49 0 172 8l17 -35l-27 -88h-180l-107 -668q-102 -643 -397 -643q-74 0 -122 34.5t-48 88.5q0 41 25.5 67.5t64.5 26.5q51 0 90 -57
q23 -39 62 -39q26 -2 44 16.5t37.5 84.5t39.5 190zM1106 -98q56 0 93.5 -47.5t37.5 -120.5q0 -110 -77.5 -187.5t-219.5 -109.5l-20 57q101 38 143.5 73t42.5 79q0 32 -39 61q-63 45 -63 98q0 39 29.5 68t72.5 29z" />
    <glyph glyph-name="ffimacron" unicode="ff&#x12b;" horiz-adv-x="1638" 
d="M424 883l309 2q45 220 84 334q105 307 334 307q73 0 122.5 -42t49.5 -98q0 -45 -23 -72.5t-61 -27.5q-59 0 -94 66q-20 37 -33 49t-37 12q-99 0 -123 -239q-10 -87 -39 -287q139 4 213 8l17 -35l-27 -88h-221l-107 -668q-102 -643 -397 -643q-73 0 -121.5 34.5
t-48.5 88.5q0 41 25.5 67.5t64.5 26.5q51 0 90 -57q23 -39 62 -39q26 -2 44 16.5t37.5 84.5t39.5 190l131 899h-309l-107 -668q-102 -643 -397 -643q-73 0 -121.5 34.5t-48.5 88.5q0 41 25.5 67.5t64.5 26.5q51 0 90 -57q23 -39 61 -39q26 -2 44 16.5t37.5 84.5t39.5 190
l131 899h-153v96l170 11q57 259 84 340q50 148 137 227.5t199 79.5q73 0 122.5 -42t49.5 -98q0 -45 -23 -72.5t-61 -27.5q-60 0 -95 66q-20 37 -32.5 49t-36.5 12q-99 0 -123 -239q-1 -10 -39 -291zM1212 299l119 324q35 96 35 120q0 23 -20 23q-35 0 -150 -127l-41 35
q175 254 293 254q47 0 74.5 -31.5t27.5 -85.5q0 -71 -51 -205l-139 -391q-21 -58 -21 -70q0 -20 21 -20q46 0 162 162l45 -33q-145 -274 -301 -274q-47 0 -78 32t-31 80q0 55 55 207zM1772 1090h-539l24 129h539z" />
    <glyph glyph-name="ffomacron" unicode="ff&#x14d;" horiz-adv-x="1951" 
d="M424 883l309 2q45 220 84 334q105 307 334 307q73 0 122.5 -42t49.5 -98q0 -45 -23 -72.5t-61 -27.5q-59 0 -94 66q-20 37 -33 49t-37 12q-99 0 -123 -239q-10 -87 -39 -287q139 4 213 8l17 -35l-27 -88h-221l-107 -668q-102 -643 -397 -643q-73 0 -121.5 34.5
t-48.5 88.5q0 41 25.5 67.5t64.5 26.5q51 0 90 -57q23 -39 62 -39q26 -2 44 16.5t37.5 84.5t39.5 190l131 899h-309l-107 -668q-102 -643 -397 -643q-73 0 -121.5 34.5t-48.5 88.5q0 41 25.5 67.5t64.5 26.5q51 0 90 -57q23 -39 61 -39q26 -2 44 16.5t37.5 84.5t39.5 190
l131 899h-153v96l170 11q57 259 84 340q50 148 137 227.5t199 79.5q73 0 122.5 -42t49.5 -98q0 -45 -23 -72.5t-61 -27.5q-60 0 -95 66q-20 37 -32.5 49t-36.5 12q-99 0 -123 -239q-1 -10 -39 -291zM1696 582q0 245 -121 245q-60 0 -115 -61q-129 -144 -129 -465
q0 -238 119 -238q65 0 123 70q123 150 123 449zM1450 -33q-137 0 -222 102t-85 271q0 159 63 297t168 217q95 74 203 74q126 0 217 -101q92 -103 92 -288q0 -155 -60.5 -287t-160.5 -209q-101 -76 -215 -76zM1946 1253h-539l25 129h538z" />
    <glyph glyph-name="ffumacron" unicode="ff&#x16b;" horiz-adv-x="2095" 
d="M424 883l309 2q45 220 84 334q105 307 334 307q73 0 122.5 -42t49.5 -98q0 -45 -23 -72.5t-61 -27.5q-59 0 -94 66q-20 37 -33 49t-37 12q-99 0 -123 -239q-10 -87 -39 -287q139 4 213 8l17 -35l-27 -88h-221l-107 -668q-102 -643 -397 -643q-73 0 -121.5 34.5
t-48.5 88.5q0 41 25.5 67.5t64.5 26.5q51 0 90 -57q23 -39 62 -39q26 -2 44 16.5t37.5 84.5t39.5 190l131 899h-309l-107 -668q-102 -643 -397 -643q-73 0 -121.5 34.5t-48.5 88.5q0 41 25.5 67.5t64.5 26.5q51 0 90 -57q23 -39 61 -39q26 -2 44 16.5t37.5 84.5t39.5 190
l131 899h-153v96l170 11q57 259 84 340q50 148 137 227.5t199 79.5q73 0 122.5 -42t49.5 -98q0 -45 -23 -72.5t-61 -27.5q-60 0 -95 66q-20 37 -32.5 49t-36.5 12q-99 0 -123 -239q-1 -10 -39 -291zM1704 410q-128 -262 -207 -344q-80 -86 -176 -86q-66 0 -106.5 43
t-40.5 106q0 77 51 205l123 313q24 65 24 96q0 35 -26 35q-40 0 -160 -147l-45 37q98 143 165.5 201.5t133.5 58.5q48 0 80 -36t32 -95q0 -66 -51 -197l-123 -328q-20 -53 -20 -86q0 -47 47 -47q66 0 162 135q115 166 252 547l28 80q21 12 51 12q80 0 117 -67
q-77 -211 -112 -328q-61 -199 -78 -305q-6 -40 -6 -53q0 -27 22 -27q43 0 162 146q11 -7 43 -35q-166 -264 -293 -264q-51 0 -79.5 33.5t-28.5 90.5q0 103 63 304q-4 0 -4 2zM2030 1253h-539l25 129h538z" />
    <glyph glyph-name="ffkcommaaccent" unicode="ff&#x137;" horiz-adv-x="1900" 
d="M424 883l309 2q48 218 113 348q69 135 173.5 214t233.5 79q107 0 170 -51l66 32q19 8 41 21l22 12l31 -33q-61 -187 -102 -354l-119 -469h4q88 133 156.5 188.5t146.5 55.5q73 0 122.5 -50.5t49.5 -127.5q0 -98 -71.5 -163.5t-239.5 -115.5q24 -121 67 -233
q43 -113 80 -113q24 0 49 37.5t68 132.5l51 -19q-82 -296 -215 -296q-109 0 -176 149q-53 124 -90 279l20 75q283 99 283 226q0 31 -20 53t-52 22q-75 0 -163 -102q-89 -103 -132 -285l-94 -397q-53 -16 -90 -16q-66 0 -96 55q52 167 96 352l178 760q35 122 10.5 190.5
t-102.5 73.5q-100 0 -170 -117q-74 -122 -119 -411q49 0 172 8l17 -35l-27 -88h-180l-107 -668q-102 -643 -397 -643q-73 0 -121.5 34.5t-48.5 88.5q0 41 25.5 67.5t64.5 26.5q51 0 90 -57q23 -39 62 -39q26 -2 44 16.5t37.5 84.5t39.5 190l131 899h-309l-107 -668
q-102 -643 -397 -643q-73 0 -121.5 34.5t-48.5 88.5q0 41 25.5 67.5t64.5 26.5q51 0 90 -57q23 -39 61 -39q26 -2 44 16.5t37.5 84.5t39.5 190l131 899h-153v96l170 11q57 259 84 340q50 148 137 227.5t199 79.5q73 0 122.5 -42t49.5 -98q0 -45 -23 -72.5t-61 -27.5
q-60 0 -95 66q-20 37 -32.5 49t-36.5 12q-99 0 -123 -239q-1 -10 -39 -291zM1343 -98q56 0 94 -47.5t38 -120.5q0 -110 -77.5 -187.5t-219.5 -109.5l-21 57q101 38 143.5 73t42.5 79q0 33 -38 61q-64 46 -64 98q0 39 29.5 68t72.5 29z" />
    <glyph glyph-name="ffgbreve" unicode="ff&#x11f;" horiz-adv-x="1949" 
d="M1470 242q-86 0 -147 30q-20 -26 -20 -53q0 -52 110 -98l209 -88q203 -83 203 -262q0 -141 -121 -236q-119 -98 -318 -98q-183 0 -295 80t-112 204q0 195 246 297q-62 53 -62 129q0 97 101 170q-70 73 -70 191q0 167 115 291q117 123 264 123q119 0 209 -84q85 21 198 61
l31 -29v-98q-165 -25 -178 -27q14 -41 14 -106q0 -161 -114 -281q-113 -116 -263 -116zM1556 -137q-204 81 -268 114q-147 -77 -147 -219q0 -89 85 -144.5t226 -55.5q112 0 173 45t61 114q0 93 -130 146zM1470 336q83 0 138 98q57 96 57 221q0 174 -94 174q-79 0 -139 -100
q-60 -102 -60 -231q0 -162 98 -162zM1630 1075q-98 0 -152.5 70t-54.5 194q0 63 17 170h67v-39q0 -123 31 -176t98 -53q156 0 258 268l68 -12q-40 -207 -129 -314.5t-203 -107.5zM424 883l309 2q45 220 84 334q105 307 334 307q73 0 122.5 -42t49.5 -98q0 -45 -23 -72.5
t-61 -27.5q-59 0 -94 66q-20 37 -33 49t-37 12q-99 0 -123 -239q-10 -87 -39 -287q139 4 213 8l17 -35l-27 -88h-221l-107 -668q-102 -643 -397 -643q-73 0 -121.5 34.5t-48.5 88.5q0 41 25.5 67.5t64.5 26.5q51 0 90 -57q23 -39 62 -39q26 -2 44 16.5t37.5 84.5t39.5 190
l131 899h-309l-107 -668q-102 -643 -397 -643q-73 0 -121.5 34.5t-48.5 88.5q0 41 25.5 67.5t64.5 26.5q51 0 90 -57q23 -39 61 -39q26 -2 44 16.5t37.5 84.5t39.5 190l131 899h-153v96l170 11q57 259 84 340q50 148 137 227.5t199 79.5q73 0 122.5 -42t49.5 -98
q0 -45 -23 -72.5t-61 -27.5q-60 0 -95 66q-20 37 -32.5 49t-36.5 12q-99 0 -123 -239q-1 -10 -39 -291z" />
    <glyph glyph-name="ffgcircumflex" unicode="ff&#x11d;" horiz-adv-x="1949" 
d="M424 883l309 2q45 220 84 334q105 307 334 307q73 0 122.5 -42t49.5 -98q0 -45 -23 -72.5t-61 -27.5q-59 0 -94 66q-20 37 -33 49t-37 12q-99 0 -123 -239q-10 -87 -39 -287q139 4 213 8l17 -35l-27 -88h-221l-107 -668q-102 -643 -397 -643q-73 0 -121.5 34.5
t-48.5 88.5q0 41 25.5 67.5t64.5 26.5q51 0 90 -57q23 -39 62 -39q26 -2 44 16.5t37.5 84.5t39.5 190l131 899h-309l-107 -668q-102 -643 -397 -643q-73 0 -121.5 34.5t-48.5 88.5q0 41 25.5 67.5t64.5 26.5q51 0 90 -57q23 -39 61 -39q26 -2 44 16.5t37.5 84.5t39.5 190
l131 899h-153v96l170 11q57 259 84 340q50 148 137 227.5t199 79.5q73 0 122.5 -42t49.5 -98q0 -45 -23 -72.5t-61 -27.5q-60 0 -95 66q-20 37 -32.5 49t-36.5 12q-99 0 -123 -239q-1 -10 -39 -291zM1470 242q-86 0 -147 30q-20 -26 -20 -53q0 -52 110 -98l209 -88
q203 -83 203 -262q0 -141 -121 -236q-119 -98 -318 -98q-183 0 -295 80t-112 204q0 195 246 297q-62 53 -62 129q0 97 101 170q-70 73 -70 191q0 167 115 291q117 123 264 123q119 0 209 -84q85 21 198 61l31 -29v-98q-165 -25 -178 -27q14 -41 14 -106q0 -161 -114 -281
q-113 -116 -263 -116zM1556 -137q-204 81 -268 114q-147 -77 -147 -219q0 -89 85 -144.5t226 -55.5q112 0 173 45t61 114q0 93 -130 146zM1470 336q83 0 138 98q57 96 57 221q0 174 -94 174q-79 0 -139 -100q-60 -102 -60 -231q0 -162 98 -162zM1425 1024l-49 45l293 410
q34 51 74 51q42 0 51 -51l92 -437l-61 -20l-125 264z" />
    <glyph glyph-name="ffgdotaccent" unicode="ff&#x121;" horiz-adv-x="1949" 
d="M424 883l309 2q45 220 84 334q105 307 334 307q73 0 122.5 -42t49.5 -98q0 -45 -23 -72.5t-61 -27.5q-59 0 -94 66q-20 37 -33 49t-37 12q-99 0 -123 -239q-10 -87 -39 -287q139 4 213 8l17 -35l-27 -88h-221l-107 -668q-102 -643 -397 -643q-73 0 -121.5 34.5
t-48.5 88.5q0 41 25.5 67.5t64.5 26.5q51 0 90 -57q23 -39 62 -39q26 -2 44 16.5t37.5 84.5t39.5 190l131 899h-309l-107 -668q-102 -643 -397 -643q-73 0 -121.5 34.5t-48.5 88.5q0 41 25.5 67.5t64.5 26.5q51 0 90 -57q23 -39 61 -39q26 -2 44 16.5t37.5 84.5t39.5 190
l131 899h-153v96l170 11q57 259 84 340q50 148 137 227.5t199 79.5q73 0 122.5 -42t49.5 -98q0 -45 -23 -72.5t-61 -27.5q-60 0 -95 66q-20 37 -32.5 49t-36.5 12q-99 0 -123 -239q-1 -10 -39 -291zM1470 242q-86 0 -147 30q-20 -26 -20 -53q0 -52 110 -98l209 -88
q203 -83 203 -262q0 -141 -121 -236q-119 -98 -318 -98q-183 0 -295 80t-112 204q0 195 246 297q-62 53 -62 129q0 97 101 170q-70 73 -70 191q0 167 115 291q117 123 264 123q119 0 209 -84q85 21 198 61l31 -29v-98q-165 -25 -178 -27q14 -41 14 -106q0 -161 -114 -281
q-113 -116 -263 -116zM1556 -137q-204 81 -268 114q-147 -77 -147 -219q0 -89 85 -144.5t226 -55.5q112 0 173 45t61 114q0 93 -130 146zM1470 336q83 0 138 98q57 96 57 221q0 174 -94 174q-79 0 -139 -100q-60 -102 -60 -231q0 -162 98 -162zM1567 1276q-37 37 -37 92
t37 90q37 37 92 37t90 -37q37 -35 37 -90t-37 -92q-35 -37 -90 -37t-92 37z" />
    <glyph glyph-name="ffhcircumflex" unicode="ff&#x125;" horiz-adv-x="1937" 
d="M424 883l309 2q48 218 113 348q69 135 173.5 214t233.5 79q107 0 170 -51q114 59 127 65l31 -33q-25 -74 -100 -354l-125 -469l4 -2q91 136 159 191t148 55q68 0 111 -47.5t43 -122.5q0 -82 -27 -162q-67 -198 -133 -408q-6 -24 -6 -36q0 -21 18 -21q44 0 166 152
q28 -25 45 -35q-167 -268 -307 -268q-47 0 -78 31.5t-31 80.5q0 71 45 207l101 313q18 59 18 101q0 24 -14.5 38.5t-38.5 14.5q-79 0 -160.5 -99.5t-122.5 -269.5l-94 -397q-53 -16 -90 -16q-69 0 -98 57q77 261 98 350l182 766q64 258 -92 258q-100 0 -170 -117
q-74 -122 -119 -411q49 0 172 8l17 -35l-27 -88h-180l-107 -668q-102 -643 -397 -643q-73 0 -121.5 34.5t-48.5 88.5q0 41 25.5 67.5t64.5 26.5q51 0 90 -57q23 -39 62 -39q26 -2 44 16.5t37.5 84.5t39.5 190l131 899h-309l-107 -668q-102 -643 -397 -643q-73 0 -121.5 34.5
t-48.5 88.5q0 41 25.5 67.5t64.5 26.5q51 0 90 -57q23 -39 61 -39q26 -2 44 16.5t37.5 84.5t39.5 190l131 899h-153v96l170 11q57 259 84 340q50 148 137 227.5t199 79.5q73 0 122.5 -42t49.5 -98q0 -45 -23 -72.5t-61 -27.5q-60 0 -95 66q-20 37 -32.5 49t-36.5 12
q-99 0 -123 -239q-1 -10 -39 -291zM1159 1573l-33 57l287 199q64 43 92 43t76 -45l219 -203l-35 -55l-274 131z" />
    <glyph glyph-name="ffhbar" unicode="ff&#x127;" horiz-adv-x="1937" 
d="M424 883l309 2q48 218 113 348q69 135 173.5 214t233.5 79q107 0 170 -51q114 59 127 65l31 -33q-44 -134 -90 -313h338l-21 -119h-348l-104 -391l4 -2q91 136 159 191t148 55q68 0 111 -47.5t43 -122.5q0 -82 -27 -162q-67 -198 -133 -408q-6 -24 -6 -36q0 -21 18 -21
q44 0 166 152q28 -25 45 -35q-167 -268 -307 -268q-47 0 -78 31.5t-31 80.5q0 71 45 207l101 313q18 59 18 101q0 24 -14.5 38.5t-38.5 14.5q-79 0 -160.5 -99.5t-122.5 -269.5l-94 -397q-53 -16 -90 -16q-69 0 -98 57q77 261 98 350l162 684h-100l20 119h109q12 64 12 100
q0 54 -31 87.5t-82 33.5q-100 0 -170 -117q-74 -122 -119 -411q49 0 172 8l17 -35l-27 -88h-180l-107 -668q-102 -643 -397 -643q-73 0 -121.5 34.5t-48.5 88.5q0 41 25.5 67.5t64.5 26.5q51 0 90 -57q23 -39 62 -39q26 -2 44 16.5t37.5 84.5t39.5 190l131 899h-309
l-107 -668q-102 -643 -397 -643q-73 0 -121.5 34.5t-48.5 88.5q0 41 25.5 67.5t64.5 26.5q51 0 90 -57q23 -39 61 -39q26 -2 44 16.5t37.5 84.5t39.5 190l131 899h-153v96l170 11q57 259 84 340q50 148 137 227.5t199 79.5q73 0 122.5 -42t49.5 -98q0 -45 -23 -72.5
t-61 -27.5q-60 0 -95 66q-20 37 -32.5 49t-36.5 12q-99 0 -123 -239q-1 -10 -39 -291z" />
    <glyph glyph-name="ffitilde" unicode="ff&#x129;" horiz-adv-x="1638" 
d="M424 883l309 2q45 220 84 334q105 307 334 307q73 0 122.5 -42t49.5 -98q0 -45 -23 -72.5t-61 -27.5q-59 0 -94 66q-20 37 -33 49t-37 12q-99 0 -123 -239q-10 -87 -39 -287q139 4 213 8l17 -35l-27 -88h-221l-107 -668q-102 -643 -397 -643q-73 0 -121.5 34.5
t-48.5 88.5q0 41 25.5 67.5t64.5 26.5q51 0 90 -57q23 -39 62 -39q26 -2 44 16.5t37.5 84.5t39.5 190l131 899h-309l-107 -668q-102 -643 -397 -643q-73 0 -121.5 34.5t-48.5 88.5q0 41 25.5 67.5t64.5 26.5q51 0 90 -57q23 -39 61 -39q26 -2 44 16.5t37.5 84.5t39.5 190
l131 899h-153v96l170 11q57 259 84 340q50 148 137 227.5t199 79.5q73 0 122.5 -42t49.5 -98q0 -45 -23 -72.5t-61 -27.5q-60 0 -95 66q-20 37 -32.5 49t-36.5 12q-99 0 -123 -239q-1 -10 -39 -291zM1212 299l119 324q35 96 35 120q0 23 -20 23q-35 0 -150 -127l-41 35
q175 254 293 254q47 0 74.5 -31.5t27.5 -85.5q0 -71 -51 -205l-139 -391q-21 -58 -21 -70q0 -20 21 -20q46 0 162 162l45 -33q-145 -274 -301 -274q-47 0 -78 32t-31 80q0 55 55 207zM1573 1253q59 -39 106 -39q67 0 142 60l39 -33q-38 -75 -98.5 -118.5t-123.5 -43.5
q-40 0 -120 41q-77 41 -115 41q-64 0 -137 -61l-39 33q38 77 96.5 120t122.5 43q60 0 127 -43z" />
    <glyph glyph-name="ffibreve" unicode="ff&#x12d;" horiz-adv-x="1499" 
d="M424 883l299 2q25 135 90 334q105 307 334 307q73 0 122.5 -43.5t49.5 -102.5q0 -61 -62 -82q26 -57 115 -57q156 0 258 268l68 -12q-40 -207 -129 -314.5t-203 -107.5q-184 0 -205 234q-12 104 -82 104q-107 0 -131 -239q-9 -89 -39 -289l172 6q161 6 277 47l53 -23
q-73 -251 -86 -321l-82 -375q-10 -62 -10 -63q0 -29 24 -29q30 0 66 34t102 128l45 -33q-144 -276 -301 -276q-51 0 -84.5 32.5t-33.5 85.5q0 75 32 203l72 315q16 75 16 103q0 53 -108 53h-172l-107 -668q-102 -643 -397 -643q-73 0 -121.5 34.5t-48.5 88.5q0 41 25.5 67.5
t64.5 26.5q51 0 90 -57q23 -39 62 -39q26 -2 44 16.5t37.5 84.5t39.5 190l131 899h-305l-107 -668q-102 -643 -397 -643q-73 0 -121.5 34.5t-48.5 88.5q0 41 25.5 67.5t64.5 26.5q51 0 90 -57q23 -39 61 -39q26 -2 44 16.5t37.5 84.5t39.5 190l131 899h-153v96l170 11
q57 259 84 340q50 148 137 227.5t199 79.5q73 0 122.5 -42t49.5 -98q0 -45 -23 -72.5t-61 -27.5q-60 0 -95 66q-20 37 -32.5 49t-36.5 12q-99 0 -123 -239q-1 -10 -39 -291z" />
    <glyph glyph-name="ffij" unicode="ff&#x133;" horiz-adv-x="2017" 
d="M584 -127l131 899h-309l-107 -668q-102 -643 -397 -643q-73 0 -121.5 34.5t-48.5 88.5q0 41 25.5 67.5t64.5 26.5q51 0 90 -57q23 -39 61 -39q26 -2 44 16.5t37.5 84.5t39.5 190l131 899h-153v96l170 11q57 259 84 340q50 148 137 227.5t199 79.5q73 0 122.5 -42
t49.5 -98q0 -45 -23 -72.5t-61 -27.5q-60 0 -95 66q-20 37 -32.5 49t-36.5 12q-99 0 -123 -239q-1 -10 -39 -291l309 2q48 218 113 348q69 135 173.5 214t233.5 79q107 0 178.5 -52t71.5 -137q0 -50 -28.5 -78t-79.5 -28q-42 0 -68.5 25t-50.5 83q-27 74 -96 74
q-182 0 -267 -528l172 6q161 6 277 47l53 -23q-73 -251 -86 -321l-82 -375q-10 -62 -10 -63q0 -29 25 -29q30 0 66 34t102 128l45 -33q-144 -276 -301 -276q-51 0 -85 32.5t-34 85.5q0 75 32 203l72 315q17 80 17 103q0 53 -109 53h-172l-107 -668q-102 -643 -397 -643
q-73 0 -121.5 34.5t-48.5 88.5q0 41 25.5 67.5t64.5 26.5q51 0 90 -57q23 -39 62 -39q26 -2 44 16.5t37.5 84.5t39.5 190zM1792 1368q0 54 36 90.5t91 36.5q56 0 92.5 -36t36.5 -91q0 -56 -37 -92.5t-92 -36.5t-91 36.5t-36 92.5zM1563 -113l178 766q14 63 14 88
q0 33 -22 33q-39 0 -127 -135l-47 31q138 258 260 258q52 0 84 -36.5t32 -98.5q0 -73 -24 -172l-125 -517q-78 -329 -199 -486t-264 -157q-64 0 -106.5 31.5t-42.5 81.5q0 38 23 63t58 25q39 0 84 -51q26 -33 64 -33q27 -2 49.5 20t51.5 93t59 196z" />
    <glyph glyph-name="ffjcircumflex" unicode="ff&#x135;" horiz-adv-x="1619" 
d="M424 883l309 2q45 220 84 334q105 307 334 307q73 0 122.5 -42t49.5 -98q0 -45 -23 -72.5t-61 -27.5q-59 0 -94 66q-20 37 -33 49t-37 12q-99 0 -123 -239q-10 -87 -39 -287q139 4 213 8l17 -35l-27 -88h-221l-107 -668q-102 -643 -397 -643q-73 0 -121.5 34.5
t-48.5 88.5q0 41 25.5 67.5t64.5 26.5q51 0 90 -57q23 -39 62 -39q26 -2 44 16.5t37.5 84.5t39.5 190l131 899h-309l-107 -668q-102 -643 -397 -643q-73 0 -121.5 34.5t-48.5 88.5q0 41 25.5 67.5t64.5 26.5q51 0 90 -57q23 -39 61 -39q26 -2 44 16.5t37.5 84.5t39.5 190
l131 899h-153v96l170 11q57 259 84 340q50 148 137 227.5t199 79.5q73 0 122.5 -42t49.5 -98q0 -45 -23 -72.5t-61 -27.5q-60 0 -95 66q-20 37 -32.5 49t-36.5 12q-99 0 -123 -239q-1 -10 -39 -291zM1165 -113l178 766q15 67 15 88q0 33 -23 33q-39 0 -127 -135l-47 31
q138 258 260 258q52 0 84.5 -36.5t32.5 -98.5q0 -69 -25 -172l-124 -517q-78 -329 -199 -486t-264 -157q-64 0 -107 31.5t-43 81.5q0 38 23.5 63t58.5 25q39 0 84 -51q26 -33 64 -33q27 -2 49.5 20t51 93t58.5 196zM1260 1024l-50 45l293 410q34 51 74 51q42 0 51 -51
l92 -437l-61 -20l-125 264z" />
    <glyph glyph-name="ffldot" unicode="ff&#x140;" horiz-adv-x="1785" 
d="M582 -127l131 899h-307l-107 -668q-102 -643 -397 -643q-73 0 -121.5 34.5t-48.5 88.5q0 41 25.5 67.5t64.5 26.5q51 0 90 -57q23 -39 61 -39q26 -2 44 16.5t37.5 84.5t39.5 190l131 899h-153v96l170 11q57 259 84 340q50 148 137 227.5t199 79.5q73 0 122.5 -42
t49.5 -98q0 -45 -23 -72.5t-61 -27.5q-60 0 -95 66q-20 37 -32.5 49t-36.5 12q-99 0 -123 -239q-1 -10 -39 -291l307 2q48 218 113 348q69 135 173.5 214t233.5 79q107 0 170 -51q114 59 127 65l31 -33q-53 -164 -100 -354l-230 -944q-6 -30 -6 -41q0 -25 25 -25
q58 0 196 179l45 -33q-184 -309 -350 -309q-46 0 -77 28t-31 74q0 62 39 219l202 856q64 258 -92 258q-100 0 -170 -117q-74 -122 -119 -411q49 0 172 8l17 -35l-27 -88h-180l-107 -668q-102 -643 -397 -643q-74 0 -122 34.5t-48 88.5q0 41 25.5 67.5t64.5 26.5q51 0 90 -57
q23 -39 62 -39q26 -2 44 16.5t37.5 84.5t39.5 190zM1536 401q-37 37 -37 92.5t37 90.5q37 37 92 37t90 -37q37 -35 37 -90.5t-37 -92.5q-35 -37 -90 -37t-92 37z" />
    <glyph glyph-name="ffnapostrophe" unicode="ff&#x149;" horiz-adv-x="2074" 
d="M1479 651l4 -2q165 281 317 281q68 0 114 -49.5t46 -122.5q0 -62 -31 -160q-57 -171 -131 -410q-8 -24 -8 -38q0 -19 20 -19q43 0 166 156l45 -35q-163 -272 -307 -272q-44 0 -77 33t-33 75q0 66 47 209l102 315q16 59 16 101q0 55 -53 55q-74 0 -155 -100t-121 -269
l-94 -399q-43 -16 -89 -16q-66 0 -100 55q85 284 100 356l64 267q14 60 14 88q0 26 -20 26q-45 0 -127 -125l-47 37q76 132 137.5 187t124.5 55q43 0 72.5 -36t29.5 -91q0 -48 -26 -152zM424 883l309 2q45 220 84 334q105 307 334 307q73 0 122.5 -42t49.5 -98
q0 -45 -23 -72.5t-61 -27.5q-59 0 -94 66q-20 37 -33 49t-37 12q-99 0 -123 -239q-10 -87 -39 -287q139 4 213 8l17 -35l-27 -88h-221l-107 -668q-102 -643 -397 -643q-73 0 -121.5 34.5t-48.5 88.5q0 41 25.5 67.5t64.5 26.5q51 0 90 -57q23 -39 62 -39q26 -2 44 16.5
t37.5 84.5t39.5 190l131 899h-309l-107 -668q-102 -643 -397 -643q-73 0 -121.5 34.5t-48.5 88.5q0 41 25.5 67.5t64.5 26.5q51 0 90 -57q23 -39 61 -39q26 -2 44 16.5t37.5 84.5t39.5 190l131 899h-153v96l170 11q57 259 84 340q50 148 137 227.5t199 79.5q73 0 122.5 -42
t49.5 -98q0 -45 -23 -72.5t-61 -27.5q-60 0 -95 66q-20 37 -32.5 49t-36.5 12q-99 0 -123 -239q-1 -10 -39 -291zM1526 1565q56 0 93.5 -47.5t37.5 -120.5q0 -110 -77 -187.5t-220 -109.5l-21 57q101 38 144 73.5t43 78.5q0 32 -39 61q-64 46 -64 98q0 40 28.5 68.5
t74.5 28.5z" />
    <glyph glyph-name="ffobreve" unicode="ff&#x14f;" horiz-adv-x="1951" 
d="M424 883l309 2q45 220 84 334q105 307 334 307q73 0 122.5 -42t49.5 -98q0 -45 -23 -72.5t-61 -27.5q-59 0 -94 66q-20 37 -33 49t-37 12q-99 0 -123 -239q-10 -87 -39 -287q139 4 213 8l17 -35l-27 -88h-221l-107 -668q-102 -643 -397 -643q-73 0 -121.5 34.5
t-48.5 88.5q0 41 25.5 67.5t64.5 26.5q51 0 90 -57q23 -39 62 -39q26 -2 44 16.5t37.5 84.5t39.5 190l131 899h-309l-107 -668q-102 -643 -397 -643q-73 0 -121.5 34.5t-48.5 88.5q0 41 25.5 67.5t64.5 26.5q51 0 90 -57q23 -39 61 -39q26 -2 44 16.5t37.5 84.5t39.5 190
l131 899h-153v96l170 11q57 259 84 340q50 148 137 227.5t199 79.5q73 0 122.5 -42t49.5 -98q0 -45 -23 -72.5t-61 -27.5q-60 0 -95 66q-20 37 -32.5 49t-36.5 12q-99 0 -123 -239q-1 -10 -39 -291zM1696 582q0 245 -121 245q-60 0 -115 -61q-129 -144 -129 -465
q0 -238 119 -238q65 0 123 70q123 150 123 449zM1450 -33q-137 0 -222 102t-85 271q0 159 63 297t168 217q95 74 203 74q126 0 217 -101q92 -103 92 -288q0 -155 -60.5 -287t-160.5 -209q-101 -76 -215 -76zM1649 1075q-98 0 -152.5 70t-54.5 194q0 69 16 170h68v-39
q0 -123 31 -176t98 -53q156 0 258 268l67 -12q-40 -207 -128.5 -314.5t-202.5 -107.5z" />
    <glyph glyph-name="ffscircumflex" unicode="ff&#x15d;" horiz-adv-x="1734" 
d="M424 883l309 2q45 220 84 334q105 307 334 307q73 0 122.5 -42t49.5 -98q0 -45 -23 -72.5t-61 -27.5q-59 0 -94 66q-20 37 -33 49t-37 12q-99 0 -123 -239q-10 -87 -39 -287q139 4 213 8l17 -35l-27 -88h-221l-107 -668q-102 -643 -397 -643q-73 0 -121.5 34.5
t-48.5 88.5q0 41 25.5 67.5t64.5 26.5q51 0 90 -57q23 -39 62 -39q26 -2 44 16.5t37.5 84.5t39.5 190l131 899h-309l-107 -668q-102 -643 -397 -643q-73 0 -121.5 34.5t-48.5 88.5q0 41 25.5 67.5t64.5 26.5q51 0 90 -57q23 -39 61 -39q26 -2 44 16.5t37.5 84.5t39.5 190
l131 899h-153v96l170 11q57 259 84 340q50 148 137 227.5t199 79.5q73 0 122.5 -42t49.5 -98q0 -45 -23 -72.5t-61 -27.5q-60 0 -95 66q-20 37 -32.5 49t-36.5 12q-99 0 -123 -239q-1 -10 -39 -291zM1456 152q0 42 -26 90q-18 37 -99 166q-100 156 -100 262q0 112 75 186
t195 74q94 0 159.5 -49t65.5 -121q0 -41 -24 -67.5t-62 -26.5q-73 0 -94 82q-21 83 -84 83q-39 0 -62.5 -25t-23.5 -67q0 -64 113 -247q72 -118 90 -166q25 -58 25 -119q0 -106 -68 -173t-176 -67q-119 0 -193.5 58.5t-74.5 136.5q0 42 25 70t65 28q68 0 92 -94
q13 -54 34 -79.5t62 -25.5q86 0 86 91zM1343 1024l-49 45l293 410q34 51 74 51q42 0 51 -51l92 -437l-61 -20l-125 264z" />
    <glyph glyph-name="ffutilde" unicode="ff&#x169;" horiz-adv-x="2095" 
d="M424 883l309 2q45 220 84 334q105 307 334 307q73 0 122.5 -42t49.5 -98q0 -45 -23 -72.5t-61 -27.5q-59 0 -94 66q-20 37 -33 49t-37 12q-99 0 -123 -239q-10 -87 -39 -287q139 4 213 8l17 -35l-27 -88h-221l-107 -668q-102 -643 -397 -643q-73 0 -121.5 34.5
t-48.5 88.5q0 41 25.5 67.5t64.5 26.5q51 0 90 -57q23 -39 62 -39q26 -2 44 16.5t37.5 84.5t39.5 190l131 899h-309l-107 -668q-102 -643 -397 -643q-73 0 -121.5 34.5t-48.5 88.5q0 41 25.5 67.5t64.5 26.5q51 0 90 -57q23 -39 61 -39q26 -2 44 16.5t37.5 84.5t39.5 190
l131 899h-153v96l170 11q57 259 84 340q50 148 137 227.5t199 79.5q73 0 122.5 -42t49.5 -98q0 -45 -23 -72.5t-61 -27.5q-60 0 -95 66q-20 37 -32.5 49t-36.5 12q-99 0 -123 -239q-1 -10 -39 -291zM1704 410q-128 -262 -207 -344q-80 -86 -176 -86q-66 0 -106.5 43
t-40.5 106q0 77 51 205l123 313q24 65 24 96q0 35 -26 35q-40 0 -160 -147l-45 37q98 143 165.5 201.5t133.5 58.5q48 0 80 -36t32 -95q0 -66 -51 -197l-123 -328q-20 -53 -20 -86q0 -47 47 -47q66 0 162 135q115 166 252 547l28 80q21 12 51 12q80 0 117 -67
q-77 -211 -112 -328q-61 -199 -78 -305q-6 -40 -6 -53q0 -27 22 -27q43 0 162 146q11 -7 43 -35q-166 -264 -293 -264q-51 0 -79.5 33.5t-28.5 90.5q0 103 63 304q-4 0 -4 2zM1796 1386q58 -38 107 -38q67 0 141 59l39 -33q-38 -75 -98 -118.5t-123 -43.5q-41 0 -121 41
q-77 41 -115 41q-64 0 -137 -61l-39 33q38 77 96.5 120.5t122.5 43.5q59 0 127 -44z" />
    <glyph glyph-name="ffycircumflex" unicode="ff&#x177;" horiz-adv-x="1998" 
d="M424 883l309 2q45 220 84 334q105 307 334 307q73 0 122.5 -42t49.5 -98q0 -45 -23 -72.5t-61 -27.5q-59 0 -94 66q-20 37 -33 49t-37 12q-99 0 -123 -239q-10 -87 -39 -287q139 4 213 8l17 -35l-27 -88h-221l-107 -668q-102 -643 -397 -643q-73 0 -121.5 34.5
t-48.5 88.5q0 41 25.5 67.5t64.5 26.5q51 0 90 -57q23 -39 62 -39q26 -2 44 16.5t37.5 84.5t39.5 190l131 899h-309l-107 -668q-102 -643 -397 -643q-73 0 -121.5 34.5t-48.5 88.5q0 41 25.5 67.5t64.5 26.5q51 0 90 -57q23 -39 61 -39q26 -2 44 16.5t37.5 84.5t39.5 190
l131 899h-153v96l170 11q57 259 84 340q50 148 137 227.5t199 79.5q73 0 122.5 -42t49.5 -98q0 -45 -23 -72.5t-61 -27.5q-60 0 -95 66q-20 37 -32.5 49t-36.5 12q-99 0 -123 -239q-1 -10 -39 -291zM1446 72q0 159 -35 346q-36 194 -76 287q-21 55 -45 55q-55 0 -125 -211
l-55 16q82 363 236 363q102 0 161 -164q101 -276 101 -625q0 -55 -9 -131h5q168 381 168 766q0 66 -13 133q29 29 86 29q34 0 53 -8q11 -50 11 -103q0 -372 -180 -753q-151 -318 -377 -492q-189 -145 -404 -145q-65 0 -104 28t-39 70q0 39 27 64.5t71 25.5q29 0 84 -24
q61 -25 115 -25q139 0 241 141q103 139 103 357zM1415 1024l-49 45l293 410q34 51 74 51q42 0 51 -51l92 -437l-61 -20l-125 264z" />
    <glyph glyph-name="longsb" unicode="&#x17f;b" horiz-adv-x="1402" 
d="M1061 1343l-64 -190l-155 -506l4 -2q184 289 336 289q79 0 128.5 -69t49.5 -185q0 -334 -307 -592q-139 -115 -269 -115q-96 0 -153.5 62.5t-57.5 165.5q0 97 43 245l195 697q25 86 25 145q0 54 -36 90.5t-87 36.5q-99 0 -170 -117q-74 -122 -119 -411l-125 -783
q-102 -643 -397 -643q-73 0 -121.5 34.5t-48.5 88.5q0 41 25.5 67.5t64.5 26.5q51 0 90 -57q23 -39 61 -39q26 -2 44 16.5t37.5 84.5t39.5 190l131 899h-153v96l170 13q50 226 114 352q69 135 174 214t234 79q107 0 170 -51q80 27 151 65l31 -33zM1186 651q0 56 -23.5 89.5
t-62.5 33.5q-103 0 -226 -196q-120 -194 -120 -353q0 -49 27 -77.5t69 -28.5q79 0 156 80q82 85 131 208t49 244z" />
    <glyph glyph-name="longslslash" unicode="&#x17f;&#x142;" horiz-adv-x="1126" 
d="M1102 770l26 -102l-241 -70l-94 -389q-7 -35 -7 -41q0 -25 25 -25q59 0 197 179l45 -33q-184 -309 -351 -309q-46 0 -77 28t-31 74q0 62 39 219l57 242l-164 -45l-26 102l217 62l119 495q20 79 20 123q0 63 -34.5 99t-94.5 36q-109 0 -182 -117q-75 -117 -121 -411
l-125 -783q-102 -643 -397 -643q-73 0 -121.5 34.5t-48.5 88.5q0 41 25.5 67.5t64.5 26.5q51 0 90 -57q23 -39 61 -39q26 -2 44 16.5t37.5 84.5t39.5 190l131 899h-153v96l170 13q50 226 114 352q69 136 176.5 214.5t243.5 78.5q126 0 189 -51q114 59 127 65l30 -33
q-53 -164 -100 -354l-107 -436z" />
    <glyph glyph-name="longsthorn" unicode="&#x17f;&#xfe;" horiz-adv-x="1427" 
d="M758 846l49 248q29 148 29 198q0 57 -32 90t-91 33q-99 0 -170 -117q-74 -122 -119 -411l-125 -783q-102 -643 -397 -643q-73 0 -121.5 34.5t-48.5 88.5q0 41 25.5 67.5t64.5 26.5q51 0 90 -57q23 -39 61 -39q26 -2 44 16.5t37.5 84.5t39.5 190l131 899h-153v96l170 13
q50 226 114 352q69 135 174 214t234 79q107 0 170 -51l125 65l31 -33q-52 -147 -95 -356l-47 -233q59 16 105 16q136 0 219.5 -94.5t83.5 -253.5q0 -238 -168 -412q-169 -172 -426 -178q-64 -311 -64 -377q0 -79 123 -106l-6 -54q-86 6 -221 6q-100 0 -180 -6l-4 52
q39 20 59 49.5t39 91.5q10 38 24 110q4 22 9 42.5t8 33t4 15.5l184 874l-219 -127l-31 51q171 132 271 195zM926 786l-138 -692q157 9 271 135q115 127 115 328q0 242 -179 242q-22 0 -69 -13z" />
    <glyph glyph-name="longszcaron" unicode="&#x17f;&#x17e;" horiz-adv-x="1576" 
d="M901 928q76 0 193 -60q113 -58 184 -61q58 63 86.5 83.5t60.5 20.5q25 0 41.5 -18t16.5 -47q0 -66 -123 -107l-557 -516l2 -2q49 15 94 15q81 0 215 -84q134 -82 227 -82q80 0 80 69q0 30 -47 80t-47 90q0 37 23.5 60.5t60.5 23.5q52 0 90.5 -51t38.5 -123
q0 -131 -90 -215t-205 -84q-72 0 -145 31.5t-127 75.5q-124 108 -187 108q-60 0 -75 -69q-12 -58 -70 -58q-26 0 -44.5 19.5t-18.5 48.5q0 73 79 143l555 496q-2 2 -2 4q-56 -17 -90 -17q-75 0 -168 43q-93 46 -135 46q-57 0 -57 -56q0 -15 20 -51q23 -41 23 -66
q0 -35 -21.5 -56t-56.5 -21q-41 0 -68.5 31.5t-27.5 78.5q0 109 82 191q83 86 190 86zM1434 1530l49 -45l-291 -410q-39 -51 -74 -51q-44 0 -53 51l-92 436l61 19l127 -264zM414 821l-115 -717q-102 -643 -397 -643q-73 0 -121.5 34.5t-48.5 88.5q0 41 25.5 67.5t64.5 26.5
q51 0 90 -57q23 -39 61 -39q26 -2 44 16.5t37.5 84.5t39.5 190l131 899h-153v96l170 13q49 227 86 338q105 307 334 307q73 0 122.5 -42t49.5 -98q0 -45 -23 -72.5t-61 -27.5q-60 0 -95 66q-20 37 -32.5 49t-36.5 12q-99 0 -123 -239q-17 -146 -49 -353z" />
    <glyph glyph-name="longsh" unicode="&#x17f;h" horiz-adv-x="1449" 
d="M991 1153l-125 -469l4 -2q91 136 159.5 191t148.5 55q68 0 110.5 -47.5t42.5 -122.5q0 -85 -26 -162q-81 -239 -134 -408q-6 -24 -6 -36q0 -21 19 -21q44 0 166 152q28 -25 45 -35q-167 -268 -308 -268q-47 0 -77.5 31.5t-30.5 80.5q0 71 45 207l100 313q19 62 19 101
q0 24 -14.5 38.5t-38.5 14.5q-79 0 -160.5 -99.5t-122.5 -269.5l-94 -397q-53 -16 -90 -16q-70 0 -99 57q82 278 99 350l182 766q64 258 -92 258q-99 0 -170 -117q-74 -122 -119 -411l-125 -783q-102 -643 -397 -643q-73 0 -121.5 34.5t-48.5 88.5q0 41 25.5 67.5t64.5 26.5
q51 0 90 -57q23 -39 61 -39q26 -2 44 16.5t37.5 84.5t39.5 190l131 899h-153v96l170 13q50 226 114 352q69 135 174 214t234 79q107 0 170 -51q114 59 127 65l31 -33q-30 -88 -101 -354z" />
    <glyph glyph-name="longsj" unicode="&#x17f;j" horiz-adv-x="1132" 
d="M907 1368q0 54 36 90.5t91 36.5q56 0 92.5 -36t36.5 -91q0 -56 -36.5 -92.5t-92.5 -36.5q-55 0 -91 36.5t-36 92.5zM678 -113l178 766q14 63 14 88q0 33 -22 33q-38 0 -127 -135l-47 31q138 258 260 258q52 0 84.5 -36.5t32.5 -98.5q0 -69 -25 -172l-125 -517
q-78 -329 -199 -486t-264 -157q-64 0 -106.5 31.5t-42.5 81.5q0 38 23.5 63t58.5 25q39 0 84 -51q26 -33 63 -33q27 -2 49.5 20t51.5 93t59 196zM414 821l-115 -717q-102 -643 -397 -643q-73 0 -121.5 34.5t-48.5 88.5q0 41 25.5 67.5t64.5 26.5q51 0 90 -57q23 -39 61 -39
q26 -2 44 16.5t37.5 84.5t39.5 190l131 899h-153v96l170 13q49 227 86 338q105 307 334 307q73 0 122.5 -42t49.5 -98q0 -45 -23 -72.5t-61 -27.5q-60 0 -95 66q-20 37 -32.5 49t-36.5 12q-99 0 -123 -239q-17 -146 -49 -353z" />
    <glyph glyph-name="longsk" unicode="&#x17f;k" horiz-adv-x="1411" 
d="M991 1153l-119 -469h5q88 133 156.5 188.5t146.5 55.5q73 0 122.5 -50.5t49.5 -127.5q0 -98 -72 -163.5t-240 -115.5q23 -115 68 -233q43 -113 80 -113q24 0 49 37.5t68 132.5l51 -19q-82 -296 -215 -296q-109 0 -176 149q-55 129 -91 279l21 75q283 99 283 226
q0 31 -20 53t-52 22q-76 0 -164 -102q-88 -101 -131 -285l-94 -397q-53 -16 -90 -16q-67 0 -97 55q56 182 97 352l178 760q35 122 10.5 190.5t-102.5 73.5q-99 0 -170 -117q-74 -122 -119 -411l-125 -783q-102 -643 -397 -643q-73 0 -121.5 34.5t-48.5 88.5q0 41 25.5 67.5
t64.5 26.5q51 0 90 -57q23 -39 61 -39q26 -2 44 16.5t37.5 84.5t39.5 190l131 899h-153v96l170 13q50 226 114 352q69 135 174 214t234 79q107 0 170 -51l65 32q14 6 27 13t23 12.5t14 7.5l31 -33q-65 -199 -103 -354z" />
    <glyph glyph-name="longsadieresis" unicode="&#x17f;&#xe4;" horiz-adv-x="1503" 
d="M414 821l-115 -717q-102 -643 -397 -643q-73 0 -121.5 34.5t-48.5 88.5q0 41 25.5 67.5t64.5 26.5q51 0 90 -57q23 -39 61 -39q26 -2 44 16.5t37.5 84.5t39.5 190l131 899h-153v96l170 13q49 227 86 338q105 307 334 307q73 0 122.5 -42t49.5 -98q0 -45 -23 -72.5
t-61 -27.5q-60 0 -95 66q-20 37 -32.5 49t-36.5 12q-99 0 -123 -239q-17 -146 -49 -353zM762 227q0 -104 69 -104q54 0 135.5 96t153.5 260q40 91 66 201q-35 92 -107 92q-81 0 -159 -96q-75 -93 -117 -223q-41 -128 -41 -226zM588 164q0 120 61 266q59 145 158 270
q179 226 336 226q14 0 26 -1.5l20 -2.5t18 -5.5t14 -6t14.5 -9.5t12 -9t13.5 -12t13 -12l53 82q64 -9 107 -47q-81 -245 -117 -377l-31 -106l-31 -109q-24 -123 -24 -155q0 -25 22 -25q52 0 172 166l45 -35q-92 -153 -162.5 -219t-140.5 -66q-51 0 -79.5 30.5t-28.5 84.5
q0 77 35 193l-4 4q-176 -324 -336 -324q-77 0 -121.5 54t-44.5 145zM913 1333q0 49 33.5 83t83.5 34q51 0 85 -33.5t34 -83.5q0 -51 -34 -85t-85 -34q-50 0 -83.5 34t-33.5 85zM1253 1333q0 49 33.5 83t83.5 34q51 0 86 -34t35 -83q0 -51 -35 -85t-86 -34q-50 0 -83.5 34
t-33.5 85z" />
    <glyph glyph-name="longsatilde" unicode="&#x17f;&#xe3;" horiz-adv-x="1503" 
d="M762 227q0 -104 69 -104q54 0 135.5 96t153.5 260q40 91 66 201q-35 92 -107 92q-81 0 -159 -96q-75 -93 -117 -223q-41 -128 -41 -226zM588 164q0 120 61 266q59 145 158 270q179 226 336 226q14 0 26 -1.5l20 -2.5t18 -5.5t14 -6t14.5 -9.5t12 -9t13.5 -12t13 -12
l53 82q64 -9 107 -47q-81 -245 -117 -377l-31 -106l-31 -109q-24 -123 -24 -155q0 -25 22 -25q52 0 172 166l45 -35q-92 -153 -162.5 -219t-140.5 -66q-51 0 -79.5 30.5t-28.5 84.5q0 77 35 193l-4 4q-176 -324 -336 -324q-77 0 -121.5 54t-44.5 145zM1235 1386
q58 -38 106 -38q68 0 142 59l39 -33q-38 -75 -98.5 -118.5t-123.5 -43.5q-40 0 -120 41q-77 41 -115 41q-64 0 -137 -61l-39 33q38 77 96.5 120.5t122.5 43.5q59 0 127 -44zM414 821l-115 -717q-102 -643 -397 -643q-73 0 -121.5 34.5t-48.5 88.5q0 41 25.5 67.5t64.5 26.5
q51 0 90 -57q23 -39 61 -39q26 -2 44 16.5t37.5 84.5t39.5 190l131 899h-153v96l170 13q49 227 86 338q105 307 334 307q73 0 122.5 -42t49.5 -98q0 -45 -23 -72.5t-61 -27.5q-60 0 -95 66q-20 37 -32.5 49t-36.5 12q-99 0 -123 -239q-17 -146 -49 -353z" />
    <glyph glyph-name="longsegrave" unicode="&#x17f;&#xe8;" horiz-adv-x="1294" 
d="M1286 766q0 -120 -119.5 -212.5t-369.5 -137.5q-19 -71 -19 -144q0 -137 99 -137q52 0 107 44t132 149l51 -31q-154 -330 -344 -330q-103 0 -162 68.5t-59 187.5q0 258 182 496q163 211 332 211q77 0 123.5 -47t46.5 -117zM1057 807q-67 0 -135 -87.5t-109 -232.5
q303 85 303 250q0 31 -16.5 50.5t-42.5 19.5zM1174 1393l-3 -392l-61 -10l-117 344q-18 53 -18 88q0 45 29.5 78t70.5 33q45 0 72 -37.5t27 -103.5zM414 821l-115 -717q-102 -643 -397 -643q-73 0 -121.5 34.5t-48.5 88.5q0 41 25.5 67.5t64.5 26.5q51 0 90 -57
q23 -39 61 -39q26 -2 44 16.5t37.5 84.5t39.5 190l131 899h-153v96l170 13q49 227 86 338q105 307 334 307q73 0 122.5 -42t49.5 -98q0 -45 -23 -72.5t-61 -27.5q-60 0 -95 66q-20 37 -32.5 49t-36.5 12q-99 0 -123 -239q-17 -146 -49 -353z" />
    <glyph glyph-name="longsecircumflex" unicode="&#x17f;&#xea;" horiz-adv-x="1294" 
d="M414 821l-115 -717q-102 -643 -397 -643q-73 0 -121.5 34.5t-48.5 88.5q0 41 25.5 67.5t64.5 26.5q51 0 90 -57q23 -39 61 -39q26 -2 44 16.5t37.5 84.5t39.5 190l131 899h-153v96l170 13q49 227 86 338q105 307 334 307q73 0 122.5 -42t49.5 -98q0 -45 -23 -72.5
t-61 -27.5q-60 0 -95 66q-20 37 -32.5 49t-36.5 12q-99 0 -123 -239q-17 -146 -49 -353zM1286 766q0 -120 -119.5 -212.5t-369.5 -137.5q-19 -71 -19 -144q0 -137 99 -137q52 0 107 44t132 149l51 -31q-154 -330 -344 -330q-103 0 -162 68.5t-59 187.5q0 258 182 496
q163 211 332 211q77 0 123.5 -47t46.5 -117zM1057 807q-67 0 -135 -87.5t-109 -232.5q303 85 303 250q0 31 -16.5 50.5t-42.5 19.5zM897 1024l-49 45l293 410q34 51 73 51q43 0 52 -51l92 -437l-62 -20l-125 264z" />
    <glyph glyph-name="longsedieresis" unicode="&#x17f;&#xeb;" horiz-adv-x="1294" 
d="M414 821l-115 -717q-102 -643 -397 -643q-73 0 -121.5 34.5t-48.5 88.5q0 41 25.5 67.5t64.5 26.5q51 0 90 -57q23 -39 61 -39q26 -2 44 16.5t37.5 84.5t39.5 190l131 899h-153v96l170 13q49 227 86 338q105 307 334 307q73 0 122.5 -42t49.5 -98q0 -45 -23 -72.5
t-61 -27.5q-60 0 -95 66q-20 37 -32.5 49t-36.5 12q-99 0 -123 -239q-17 -146 -49 -353zM1286 766q0 -120 -119.5 -212.5t-369.5 -137.5q-19 -71 -19 -144q0 -137 99 -137q52 0 107 44t132 149l51 -31q-154 -330 -344 -330q-103 0 -162 68.5t-59 187.5q0 258 182 496
q163 211 332 211q77 0 123.5 -47t46.5 -117zM1057 807q-67 0 -135 -87.5t-109 -232.5q303 85 303 250q0 31 -16.5 50.5t-42.5 19.5zM901 1333q0 49 33.5 83t83.5 34q51 0 85 -33.5t34 -83.5q0 -51 -34 -85t-85 -34q-50 0 -83.5 34t-33.5 85zM1241 1333q0 49 33.5 83t83.5 34
q51 0 86 -34t35 -83q0 -51 -35 -85t-86 -34q-50 0 -83.5 34t-33.5 85z" />
    <glyph glyph-name="longsiacute" unicode="&#x17f;&#xed;" horiz-adv-x="1107" 
d="M414 821l-115 -717q-102 -643 -397 -643q-73 0 -121.5 34.5t-48.5 88.5q0 41 25.5 67.5t64.5 26.5q51 0 90 -57q23 -39 61 -39q26 -2 44 16.5t37.5 84.5t39.5 190l131 899h-153v96l170 13q49 227 86 338q105 307 334 307q73 0 122.5 -42t49.5 -98q0 -45 -23 -72.5
t-61 -27.5q-60 0 -95 66q-20 37 -32.5 49t-36.5 12q-99 0 -123 -239q-17 -146 -49 -353zM682 299l119 324q35 96 35 120q0 23 -21 23q-34 0 -149 -127l-41 35q175 254 293 254q47 0 74.5 -31.5t27.5 -85.5q0 -71 -51 -205l-140 -391q-20 -56 -20 -70q0 -20 20 -20
q46 0 162 162l45 -33q-145 -274 -301 -274q-47 0 -77.5 32t-30.5 80q0 55 55 207zM864 991l-51 37l174 383q30 64 60.5 92.5t72.5 28.5q41 0 66.5 -27t25.5 -69q0 -51 -69 -129z" />
    <glyph glyph-name="longsicircumflex" unicode="&#x17f;&#xee;" horiz-adv-x="1107" 
d="M414 821l-115 -717q-102 -643 -397 -643q-73 0 -121.5 34.5t-48.5 88.5q0 41 25.5 67.5t64.5 26.5q51 0 90 -57q23 -39 61 -39q26 -2 44 16.5t37.5 84.5t39.5 190l131 899h-153v96l170 13q49 227 86 338q105 307 334 307q73 0 122.5 -42t49.5 -98q0 -45 -23 -72.5
t-61 -27.5q-60 0 -95 66q-20 37 -32.5 49t-36.5 12q-99 0 -123 -239q-17 -146 -49 -353zM682 299l119 324q35 96 35 120q0 23 -21 23q-34 0 -149 -127l-41 35q175 254 293 254q47 0 74.5 -31.5t27.5 -85.5q0 -71 -51 -205l-140 -391q-20 -56 -20 -70q0 -20 20 -20
q46 0 162 162l45 -33q-145 -274 -301 -274q-47 0 -77.5 32t-30.5 80q0 55 55 207zM766 1024l-49 45l293 410q34 51 73 51q43 0 52 -51l92 -437l-62 -20l-125 264z" />
    <glyph glyph-name="longsidieresis" unicode="&#x17f;&#xef;" horiz-adv-x="1157" 
d="M414 821l-115 -717q-102 -643 -397 -643q-73 0 -121.5 34.5t-48.5 88.5q0 41 25.5 67.5t64.5 26.5q51 0 90 -57q23 -39 61 -39q26 -2 44 16.5t37.5 84.5t39.5 190l131 899h-153v96l170 13q49 227 86 338q105 307 334 307q73 0 122.5 -42t49.5 -98q0 -45 -23 -72.5
t-61 -27.5q-60 0 -95 66q-20 37 -32.5 49t-36.5 12q-99 0 -123 -239q-17 -146 -49 -353zM731 299l119 324q35 96 35 120q0 23 -21 23q-34 0 -149 -127l-41 35q175 254 293 254q47 0 74.5 -31.5t27.5 -85.5q0 -71 -51 -205l-139 -391q-21 -59 -21 -70q0 -20 21 -20
q45 0 161 162l45 -33q-145 -274 -301 -274q-47 0 -77.5 32t-30.5 80q0 55 55 207zM774 1190q0 50 34 83.5t83 33.5q51 0 85 -33.5t34 -83.5q0 -51 -34 -85t-85 -34q-50 0 -83.5 34t-33.5 85zM1114 1190q0 50 34 83.5t83 33.5q51 0 86 -34t35 -83q0 -51 -35 -85t-86 -34
q-50 0 -83.5 34t-33.5 85z" />
    <glyph glyph-name="longsntilde" unicode="&#x17f;&#xf1;" horiz-adv-x="1548" 
d="M952 651l4 -2q165 281 318 281q68 0 114 -49.5t46 -122.5q0 -62 -31 -160q-57 -171 -131 -410q-8 -24 -8 -38q0 -19 20 -19q43 0 166 156l45 -35q-163 -272 -307 -272q-44 0 -77.5 33t-33.5 75q0 66 47 209l103 315q16 59 16 101q0 55 -53 55q-74 0 -155.5 -100
t-121.5 -269l-94 -399q-43 -16 -88 -16q-66 0 -100 55q85 284 100 356l64 267q14 60 14 88q0 26 -21 26q-44 0 -126 -125l-48 37q76 131 138 186.5t125 55.5q43 0 72.5 -36t29.5 -91q0 -44 -27 -152zM1251 1386q58 -38 107 -38q67 0 141 59l39 -33q-38 -75 -98 -118.5
t-123 -43.5q-41 0 -121 41q-77 41 -115 41q-64 0 -137 -61l-39 33q38 77 96.5 120.5t122.5 43.5q59 0 127 -44zM414 821l-115 -717q-102 -643 -397 -643q-73 0 -121.5 34.5t-48.5 88.5q0 41 25.5 67.5t64.5 26.5q51 0 90 -57q23 -39 61 -39q26 -2 44 16.5t37.5 84.5
t39.5 190l131 899h-153v96l170 13q49 227 86 338q105 307 334 307q73 0 122.5 -42t49.5 -98q0 -45 -23 -72.5t-61 -27.5q-60 0 -95 66q-20 37 -32.5 49t-36.5 12q-99 0 -123 -239q-17 -146 -49 -353z" />
    <glyph glyph-name="longsocircumflex" unicode="&#x17f;&#xf4;" horiz-adv-x="1425" 
d="M414 821l-115 -717q-102 -643 -397 -643q-73 0 -121.5 34.5t-48.5 88.5q0 41 25.5 67.5t64.5 26.5q51 0 90 -57q23 -39 61 -39q26 -2 44 16.5t37.5 84.5t39.5 190l131 899h-153v96l170 13q49 227 86 338q105 307 334 307q73 0 122.5 -42t49.5 -98q0 -45 -23 -72.5
t-61 -27.5q-60 0 -95 66q-20 37 -32.5 49t-36.5 12q-99 0 -123 -239q-17 -146 -49 -353zM1169 582q0 245 -120 245q-60 0 -115 -61q-129 -144 -129 -465q0 -238 119 -238q65 0 123 70q122 149 122 449zM924 -33q-137 0 -222.5 102t-85.5 271q0 159 63.5 297t168.5 217
q95 74 203 74q126 0 217 -101q92 -103 92 -288q0 -155 -60.5 -287t-160.5 -209q-101 -76 -215 -76zM899 1024l-49 45l293 410q34 51 74 51q42 0 51 -51l92 -437l-62 -20l-124 264z" />
    <glyph glyph-name="longsodieresis" unicode="&#x17f;&#xf6;" horiz-adv-x="1425" 
d="M414 821l-115 -717q-102 -643 -397 -643q-73 0 -121.5 34.5t-48.5 88.5q0 41 25.5 67.5t64.5 26.5q51 0 90 -57q23 -39 61 -39q26 -2 44 16.5t37.5 84.5t39.5 190l131 899h-153v96l170 13q49 227 86 338q105 307 334 307q73 0 122.5 -42t49.5 -98q0 -45 -23 -72.5
t-61 -27.5q-60 0 -95 66q-20 37 -32.5 49t-36.5 12q-99 0 -123 -239q-17 -146 -49 -353zM1169 582q0 245 -120 245q-60 0 -115 -61q-129 -144 -129 -465q0 -238 119 -238q65 0 123 70q122 149 122 449zM924 -33q-137 0 -222.5 102t-85.5 271q0 159 63.5 297t168.5 217
q95 74 203 74q126 0 217 -101q92 -103 92 -288q0 -155 -60.5 -287t-160.5 -209q-101 -76 -215 -76zM899 1333q0 49 33.5 83t83.5 34q51 0 85 -33.5t34 -83.5q0 -51 -34 -85t-85 -34q-50 0 -83.5 34t-33.5 85zM1239 1333q0 49 33.5 83t83.5 34q51 0 86 -34t35 -83
q0 -51 -35 -85t-86 -34q-50 0 -83.5 34t-33.5 85z" />
    <glyph glyph-name="longsotilde" unicode="&#x17f;&#xf5;" horiz-adv-x="1425" 
d="M414 821l-115 -717q-102 -643 -397 -643q-73 0 -121.5 34.5t-48.5 88.5q0 41 25.5 67.5t64.5 26.5q51 0 90 -57q23 -39 61 -39q26 -2 44 16.5t37.5 84.5t39.5 190l131 899h-153v96l170 13q49 227 86 338q105 307 334 307q73 0 122.5 -42t49.5 -98q0 -45 -23 -72.5
t-61 -27.5q-60 0 -95 66q-20 37 -32.5 49t-36.5 12q-99 0 -123 -239q-17 -146 -49 -353zM1169 582q0 245 -120 245q-60 0 -115 -61q-129 -144 -129 -465q0 -238 119 -238q65 0 123 70q122 149 122 449zM924 -33q-137 0 -222.5 102t-85.5 271q0 159 63.5 297t168.5 217
q95 74 203 74q126 0 217 -101q92 -103 92 -288q0 -155 -60.5 -287t-160.5 -209q-101 -76 -215 -76zM1225 1386q58 -38 106 -38q68 0 142 59l38 -33q-38 -75 -98 -118.5t-123 -43.5q-41 0 -121 41q-77 41 -114 41q-64 0 -137 -61l-39 33q38 77 96.5 120.5t122.5 43.5
q59 0 127 -44z" />
    <glyph glyph-name="longsudieresis" unicode="&#x17f;&#xfc;" horiz-adv-x="1568" 
d="M1178 410q-128 -262 -207 -344q-80 -86 -176 -86q-66 0 -107 43t-41 106q0 77 51 205l123 313q25 67 25 96q0 35 -27 35q-40 0 -160 -147l-45 37q98 143 165.5 201.5t133.5 58.5q48 0 80.5 -36t32.5 -95q0 -66 -51 -197l-123 -328q-21 -55 -21 -86q0 -47 48 -47
q65 0 161 135q115 166 252 547l29 80q21 12 51 12q80 0 117 -67q-83 -227 -113 -328q-61 -199 -78 -305q-6 -40 -6 -53q0 -27 23 -27q43 0 162 146q11 -7 43 -35q-166 -264 -293 -264q-51 0 -80 33.5t-29 90.5q0 100 64 304q-4 0 -4 2zM950 1333q0 49 34 83t83 34
q51 0 85 -33.5t34 -83.5q0 -51 -34 -85t-85 -34q-50 0 -83.5 34t-33.5 85zM1290 1333q0 49 34 83t83 34q51 0 86 -34t35 -83q0 -51 -35 -85t-86 -34q-50 0 -83.5 34t-33.5 85zM414 821l-115 -717q-102 -643 -397 -643q-73 0 -121.5 34.5t-48.5 88.5q0 41 25.5 67.5
t64.5 26.5q51 0 90 -57q23 -39 61 -39q26 -2 44 16.5t37.5 84.5t39.5 190l131 899h-153v96l170 13q49 227 86 338q105 307 334 307q73 0 122.5 -42t49.5 -98q0 -45 -23 -72.5t-61 -27.5q-60 0 -95 66q-20 37 -32.5 49t-36.5 12q-99 0 -123 -239q-17 -146 -49 -353z" />
    <glyph glyph-name="longsydieresis" unicode="&#x17f;&#xff;" horiz-adv-x="1460" 
d="M414 821l-115 -717q-102 -643 -397 -643q-73 0 -121.5 34.5t-48.5 88.5q0 41 25.5 67.5t64.5 26.5q51 0 90 -57q23 -39 61 -39q26 -2 44 16.5t37.5 84.5t39.5 190l131 899h-153v96l170 13q49 227 86 338q105 307 334 307q73 0 122.5 -42t49.5 -98q0 -45 -23 -72.5
t-61 -27.5q-60 0 -95 66q-20 37 -32.5 49t-36.5 12q-99 0 -123 -239q-17 -146 -49 -353zM907 72q0 159 -35 346q-37 198 -75 287q-21 55 -45 55q-55 0 -125 -211l-56 16q83 363 236 363q103 0 162 -164q100 -274 100 -625q0 -63 -8 -131h4q168 381 168 766q0 71 -12 133
q29 29 86 29q34 0 53 -8q10 -45 10 -103q0 -372 -180 -753q-151 -318 -377 -492q-189 -145 -403 -145q-65 0 -104.5 28t-39.5 70q0 39 27.5 64.5t71.5 25.5q29 0 84 -24q61 -25 114 -25q140 0 242 141q102 138 102 357zM840 1272q0 50 33.5 83.5t82.5 33.5q51 0 85 -33.5
t34 -83.5q0 -51 -34 -85t-85 -34q-50 0 -83 34t-33 85zM1180 1272q0 50 33.5 83.5t82.5 33.5q51 0 86 -34t35 -83q0 -51 -35 -85t-86 -34q-50 0 -83 34t-33 85z" />
    <glyph glyph-name="longslcaron" unicode="&#x17f;&#x13e;" horiz-adv-x="1128" 
d="M991 1153l-229 -944q-6 -30 -6 -41q0 -25 24 -25q59 0 197 179l45 -33q-184 -309 -350 -309q-46 0 -77.5 28t-31.5 74q0 62 39 219l203 856q64 258 -92 258q-99 0 -170 -117q-74 -122 -119 -411l-125 -783q-102 -643 -397 -643q-73 0 -121.5 34.5t-48.5 88.5
q0 41 25.5 67.5t64.5 26.5q51 0 90 -57q23 -39 61 -39q26 -2 44 16.5t37.5 84.5t39.5 190l131 899h-153v96l170 13q50 226 114 352q69 135 174 214t234 79q107 0 170 -51q114 59 127 65l31 -33q-57 -177 -101 -354zM1305 1563q56 0 93.5 -47.5t37.5 -120.5
q0 -110 -77 -187.5t-220 -109.5l-21 57q101 38 144 73.5t43 78.5q0 32 -39 61q-64 46 -64 98q0 42 28.5 69.5t74.5 27.5z" />
    <glyph glyph-name="longsabreve" unicode="&#x17f;&#x103;" horiz-adv-x="1503" 
d="M414 821l-115 -717q-102 -643 -397 -643q-73 0 -121.5 34.5t-48.5 88.5q0 41 25.5 67.5t64.5 26.5q51 0 90 -57q23 -39 61 -39q26 -2 44 16.5t37.5 84.5t39.5 190l131 899h-153v96l170 13q49 227 86 338q105 307 334 307q73 0 122.5 -42t49.5 -98q0 -45 -23 -72.5
t-61 -27.5q-60 0 -95 66q-20 37 -32.5 49t-36.5 12q-99 0 -123 -239q-17 -146 -49 -353zM762 227q0 -104 69 -104q54 0 135.5 96t153.5 260q40 91 66 201q-35 92 -107 92q-81 0 -159 -96q-75 -93 -117 -223q-41 -128 -41 -226zM588 164q0 120 61 266q59 145 158 270
q179 226 336 226q14 0 26 -1.5l20 -2.5t18 -5.5t14 -6t14.5 -9.5t12 -9t13.5 -12t13 -12l53 82q64 -9 107 -47q-81 -245 -117 -377l-31 -106l-31 -109q-24 -123 -24 -155q0 -25 22 -25q52 0 172 166l45 -35q-92 -153 -162.5 -219t-140.5 -66q-51 0 -79.5 30.5t-28.5 84.5
q0 77 35 193l-4 4q-176 -324 -336 -324q-77 0 -121.5 54t-44.5 145zM1184 1075q-98 0 -152.5 70t-54.5 194q0 69 16 170h68v-39q0 -123 31 -176t98 -53q156 0 258 268l68 -12q-40 -207 -129 -314.5t-203 -107.5z" />
    <glyph glyph-name="longslacute" unicode="&#x17f;&#x13a;" horiz-adv-x="1052" 
d="M991 1153l-229 -944q-6 -30 -6 -41q0 -25 24 -25q59 0 197 179l45 -33q-184 -309 -350 -309q-46 0 -77.5 28t-31.5 74q0 62 39 219l203 856q64 258 -92 258q-99 0 -170 -117q-74 -122 -119 -411l-125 -783q-102 -643 -397 -643q-73 0 -121.5 34.5t-48.5 88.5
q0 41 25.5 67.5t64.5 26.5q51 0 90 -57q23 -39 61 -39q26 -2 44 16.5t37.5 84.5t39.5 190l131 899h-153v96l170 13q50 226 114 352q69 135 174 214t234 79q107 0 170 -51q114 59 127 65l31 -33q-57 -177 -101 -354zM764 1563l-21 57l312 184q65 39 110 39q38 0 64 -25
t26 -63q0 -83 -127 -110z" />
    <glyph glyph-name="longsecaron" unicode="&#x17f;&#x11b;" horiz-adv-x="1294" 
d="M1286 766q0 -120 -119.5 -212.5t-369.5 -137.5q-19 -71 -19 -144q0 -137 99 -137q52 0 107 44t132 149l51 -31q-154 -330 -344 -330q-103 0 -162 68.5t-59 187.5q0 258 182 496q163 211 332 211q77 0 123.5 -47t46.5 -117zM1057 807q-67 0 -135 -87.5t-109 -232.5
q303 85 303 250q0 31 -16.5 50.5t-42.5 19.5zM1419 1530l49 -45l-290 -410q-39 -51 -74 -51q-44 0 -53 51l-93 436l62 19l127 -264zM414 821l-115 -717q-102 -643 -397 -643q-73 0 -121.5 34.5t-48.5 88.5q0 41 25.5 67.5t64.5 26.5q51 0 90 -57q23 -39 61 -39
q26 -2 44 16.5t37.5 84.5t39.5 190l131 899h-153v96l170 13q49 227 86 338q105 307 334 307q73 0 122.5 -42t49.5 -98q0 -45 -23 -72.5t-61 -27.5q-60 0 -95 66q-20 37 -32.5 49t-36.5 12q-99 0 -123 -239q-17 -146 -49 -353z" />
    <glyph glyph-name="longsohungarumlaut" unicode="&#x17f;&#x151;" horiz-adv-x="1423" 
d="M414 821l-115 -717q-102 -643 -397 -643q-73 0 -121.5 34.5t-48.5 88.5q0 41 25.5 67.5t64.5 26.5q51 0 90 -57q23 -39 61 -39q26 -2 44 16.5t37.5 84.5t39.5 190l131 899h-153v96l170 13q49 227 86 338q105 307 334 307q73 0 122.5 -42t49.5 -98q0 -45 -23 -72.5
t-61 -27.5q-60 0 -95 66q-20 37 -32.5 49t-36.5 12q-99 0 -123 -239q-17 -146 -49 -353zM1167 582q0 245 -120 245q-60 0 -115 -61q-129 -144 -129 -465q0 -238 119 -238q64 0 122 70q123 150 123 449zM922 -33q-137 0 -222.5 102t-85.5 271q0 159 63.5 297t168.5 217
q95 74 203 74q126 0 217 -101q92 -103 92 -288q0 -155 -60.5 -287t-160.5 -209q-101 -76 -215 -76zM1188 1012l-47 35l168 383q43 102 114 102q37 0 61.5 -27t24.5 -65q0 -49 -53 -111zM911 1012l-47 35l168 383q44 102 115 102q37 0 61.5 -27t24.5 -65q0 -49 -53 -111z" />
    <glyph glyph-name="longsrcaron" unicode="&#x17f;&#x159;" horiz-adv-x="1308" 
d="M1247 670q-49 0 -76 49q-22 36 -34 39q-4 2 -13 2q-28 0 -61 -39q-38 -40 -84.5 -159t-81.5 -286l-18 -92q-32 -166 -35 -184q-37 -16 -94 -16q-69 0 -95 51q42 170 80 356l56 273q12 50 10 80t-25 30q-42 0 -125 -121q-13 10 -24.5 18.5t-16.5 12t-6 4.5
q77 131 138.5 185.5t123.5 54.5q45 0 74 -35.5t29 -91.5q0 -52 -29 -187h4q66 169 127 241.5t129 72.5q56 0 94.5 -41.5t38.5 -102.5q0 -53 -24 -83.5t-62 -30.5zM1352 1530l49 -45l-291 -410q-39 -51 -74 -51q-44 0 -53 51l-92 436l61 19l127 -264zM414 821l-115 -717
q-102 -643 -397 -643q-73 0 -121.5 34.5t-48.5 88.5q0 41 25.5 67.5t64.5 26.5q51 0 90 -57q23 -39 61 -39q26 -2 44 16.5t37.5 84.5t39.5 190l131 899h-153v96l170 13q49 227 86 338q105 307 334 307q73 0 122.5 -42t49.5 -98q0 -45 -23 -72.5t-61 -27.5q-60 0 -95 66
q-20 37 -32.5 49t-36.5 12q-99 0 -123 -239q-17 -146 -49 -353z" />
    <glyph glyph-name="longsuring" unicode="&#x17f;&#x16f;" horiz-adv-x="1566" 
d="M1176 410q-128 -262 -207 -344q-80 -86 -176 -86q-66 0 -107 43t-41 106q0 77 51 205l123 313q25 67 25 96q0 35 -27 35q-40 0 -160 -147l-45 37q98 143 165.5 201.5t133.5 58.5q48 0 80.5 -36t32.5 -95q0 -66 -51 -197l-123 -328q-21 -55 -21 -86q0 -47 48 -47
q65 0 161 135q115 166 252 547l29 80q21 12 51 12q80 0 117 -67q-83 -227 -113 -328q-61 -199 -78 -305q-6 -40 -6 -53q0 -27 23 -27q43 0 162 146q11 -7 43 -35q-167 -264 -293 -264q-51 0 -80 33.5t-29 90.5q0 100 64 304q-4 0 -4 2zM1004 1317q0 91 65 156q64 67 158 67
q91 0 155 -67q68 -65 68 -156q0 -93 -68 -158q-65 -65 -155 -65q-92 0 -157.5 65.5t-65.5 157.5zM1225 1202q47 0 78.5 32.5t31.5 80.5t-31.5 81.5t-78.5 33.5q-44 0 -76.5 -34t-32.5 -81t32 -80t77 -33zM414 821l-115 -717q-102 -643 -397 -643q-73 0 -121.5 34.5
t-48.5 88.5q0 41 25.5 67.5t64.5 26.5q51 0 90 -57q23 -39 61 -39q26 -2 44 16.5t37.5 84.5t39.5 190l131 899h-153v96l170 13q49 227 86 338q105 307 334 307q73 0 122.5 -42t49.5 -98q0 -45 -23 -72.5t-61 -27.5q-60 0 -95 66q-20 37 -32.5 49t-36.5 12q-99 0 -123 -239
q-17 -146 -49 -353z" />
    <glyph glyph-name="longsamacron" unicode="&#x17f;&#x101;" horiz-adv-x="1503" 
d="M414 821l-115 -717q-102 -643 -397 -643q-73 0 -121.5 34.5t-48.5 88.5q0 41 25.5 67.5t64.5 26.5q51 0 90 -57q23 -39 61 -39q26 -2 44 16.5t37.5 84.5t39.5 190l131 899h-153v96l170 13q49 227 86 338q105 307 334 307q73 0 122.5 -42t49.5 -98q0 -45 -23 -72.5
t-61 -27.5q-60 0 -95 66q-20 37 -32.5 49t-36.5 12q-99 0 -123 -239q-17 -146 -49 -353zM762 227q0 -104 69 -104q54 0 135.5 96t153.5 260q40 91 66 201q-35 92 -107 92q-81 0 -159 -96q-75 -93 -117 -223q-41 -128 -41 -226zM588 164q0 120 61 266q59 145 158 270
q179 226 336 226q14 0 26 -1.5l20 -2.5t18 -5.5t14 -6t14.5 -9.5t12 -9t13.5 -12t13 -12l53 82q64 -9 107 -47q-81 -245 -117 -377l-31 -106l-31 -109q-24 -123 -24 -155q0 -25 22 -25q52 0 172 166l45 -35q-92 -153 -162.5 -219t-140.5 -66q-51 0 -79.5 30.5t-28.5 84.5
q0 77 35 193l-4 4q-176 -324 -336 -324q-77 0 -121.5 54t-44.5 145zM1464 1253h-538l24 129h539z" />
    <glyph glyph-name="longsemacron" unicode="&#x17f;&#x113;" horiz-adv-x="1294" 
d="M414 821l-115 -717q-102 -643 -397 -643q-73 0 -121.5 34.5t-48.5 88.5q0 41 25.5 67.5t64.5 26.5q51 0 90 -57q23 -39 61 -39q26 -2 44 16.5t37.5 84.5t39.5 190l131 899h-153v96l170 13q49 227 86 338q105 307 334 307q73 0 122.5 -42t49.5 -98q0 -45 -23 -72.5
t-61 -27.5q-60 0 -95 66q-20 37 -32.5 49t-36.5 12q-99 0 -123 -239q-17 -146 -49 -353zM1286 766q0 -120 -119.5 -212.5t-369.5 -137.5q-19 -71 -19 -144q0 -137 99 -137q52 0 107 44t132 149l51 -31q-154 -330 -344 -330q-103 0 -162 68.5t-59 187.5q0 258 182 496
q163 211 332 211q77 0 123.5 -47t46.5 -117zM1057 807q-67 0 -135 -87.5t-109 -232.5q303 85 303 250q0 31 -16.5 50.5t-42.5 19.5zM1411 1192h-539l25 129h539z" />
    <glyph glyph-name="longsedotaccent" unicode="&#x17f;&#x117;" horiz-adv-x="1294" 
d="M1286 766q0 -120 -119.5 -212.5t-369.5 -137.5q-19 -71 -19 -144q0 -137 99 -137q52 0 107 44t132 149l51 -31q-154 -330 -344 -330q-103 0 -162 68.5t-59 187.5q0 258 182 496q163 211 332 211q77 0 123.5 -47t46.5 -117zM1057 807q-67 0 -135 -87.5t-109 -232.5
q303 85 303 250q0 31 -16.5 50.5t-42.5 19.5zM1038 1276q-37 37 -37 92t37 90q37 37 92.5 37t90.5 -37q37 -35 37 -90t-37 -92q-35 -37 -90.5 -37t-92.5 37zM414 821l-115 -717q-102 -643 -397 -643q-73 0 -121.5 34.5t-48.5 88.5q0 41 25.5 67.5t64.5 26.5q51 0 90 -57
q23 -39 61 -39q26 -2 44 16.5t37.5 84.5t39.5 190l131 899h-153v96l170 13q49 227 86 338q105 307 334 307q73 0 122.5 -42t49.5 -98q0 -45 -23 -72.5t-61 -27.5q-60 0 -95 66q-20 37 -32.5 49t-36.5 12q-99 0 -123 -239q-17 -146 -49 -353z" />
    <glyph glyph-name="longsgcommaaccent" unicode="&#x17f;&#x123;" horiz-adv-x="1421" 
d="M942 242q-86 0 -147 30q-21 -27 -21 -53q0 -51 111 -98l209 -88q202 -82 202 -262q0 -141 -120 -236q-119 -98 -318 -98q-183 0 -295 80t-112 204q0 195 245 297q-61 52 -61 129q0 98 100 170q-69 72 -69 191q0 168 114 291q117 123 264 123q119 0 209 -84q88 22 199 61
l31 -29v-98q-165 -25 -178 -27q14 -41 14 -106q0 -160 -115 -281q-113 -116 -262 -116zM1028 -137q-204 81 -268 114q-148 -77 -148 -219q0 -89 85.5 -144.5t226.5 -55.5q112 0 172.5 45t60.5 114q0 93 -129 146zM942 336q82 0 137 98q58 98 58 221q0 174 -95 174
q-79 0 -139 -100q-59 -100 -59 -231q0 -162 98 -162zM414 821l-115 -717q-102 -643 -397 -643q-73 0 -121.5 34.5t-48.5 88.5q0 41 25.5 67.5t64.5 26.5q51 0 90 -57q23 -39 61 -39q26 -2 44 16.5t37.5 84.5t39.5 190l131 899h-153v96l170 13q49 227 86 338q105 307 334 307
q73 0 122.5 -42t49.5 -98q0 -45 -23 -72.5t-61 -27.5q-60 0 -95 66q-20 37 -32.5 49t-36.5 12q-99 0 -123 -239q-17 -146 -49 -353zM1147 1053q-56 0 -93.5 47.5t-37.5 120.5q0 110 77 187.5t220 109.5l20 -58q-101 -38 -143.5 -73t-42.5 -78q0 -33 39 -62q63 -45 63 -98
q0 -39 -29.5 -67.5t-72.5 -28.5z" />
    <glyph glyph-name="longsiogonek" unicode="&#x17f;&#x12f;" horiz-adv-x="1019" 
d="M424 887l-125 -783q-102 -643 -397 -643q-74 0 -124 35t-50 90q0 43 25.5 71t66.5 28q52 0 94 -60q27 -43 59 -43q26 -2 44 16.5t37.5 84.5t39.5 190l131 899h-153v96l170 13q50 226 114 352q69 135 174 214t234 79q97 0 163 -54.5t66 -130.5q0 -45 -27 -73.5t-71 -28.5
q-74 0 -111 98q-30 76 -94 76q-183 0 -266 -526zM745 -215l46 -23q-64 -178 -211 -178q-68 0 -112 40.5t-44 101.5q0 145 192 258q-77 24 -77 108q0 55 55 207l119 324q35 96 35 120q0 23 -21 23q-34 0 -149 -127l-41 35q175 254 292 254q47 0 75 -31.5t28 -85.5
q0 -71 -51 -205l-140 -391q-20 -56 -20 -70q0 -20 20 -20q46 0 162 162l45 -33q-116 -215 -233 -262q-162 -116 -162 -232q0 -65 68 -65q71 0 124 90z" />
    <glyph glyph-name="longslcommaaccent" unicode="&#x17f;&#x13c;" horiz-adv-x="1050" 
d="M991 1153l-229 -944q-6 -30 -6 -41q0 -25 24 -25q59 0 197 179l45 -33q-184 -309 -350 -309q-46 0 -77.5 28t-31.5 74q0 62 39 219l203 856q64 258 -92 258q-99 0 -170 -117q-74 -122 -119 -411l-125 -783q-102 -643 -397 -643q-73 0 -121.5 34.5t-48.5 88.5
q0 41 25.5 67.5t64.5 26.5q51 0 90 -57q23 -39 61 -39q26 -2 44 16.5t37.5 84.5t39.5 190l131 899h-153v96l170 13q50 226 114 352q69 135 174 214t234 79q107 0 170 -51q114 59 127 65l31 -33q-57 -177 -101 -354zM618 -98q56 0 94 -47.5t38 -120.5q0 -110 -77 -187.5
t-220 -109.5l-21 57q101 38 143.5 73t42.5 79q0 33 -38 61q-64 46 -64 98q0 39 29.5 68t72.5 29z" />
    <glyph glyph-name="longsimacron" unicode="&#x17f;&#x12b;" horiz-adv-x="1148" 
d="M414 821l-115 -717q-102 -643 -397 -643q-73 0 -121.5 34.5t-48.5 88.5q0 41 25.5 67.5t64.5 26.5q51 0 90 -57q23 -39 61 -39q26 -2 44 16.5t37.5 84.5t39.5 190l131 899h-153v96l170 13q49 227 86 338q105 307 334 307q73 0 122.5 -42t49.5 -98q0 -45 -23 -72.5
t-61 -27.5q-60 0 -95 66q-20 37 -32.5 49t-36.5 12q-99 0 -123 -239q-17 -146 -49 -353zM723 299l119 324q35 96 35 120q0 23 -21 23q-34 0 -149 -127l-41 35q175 254 292 254q47 0 75 -31.5t28 -85.5q0 -71 -51 -205l-140 -391q-20 -56 -20 -70q0 -20 20 -20q46 0 162 162
l45 -33q-145 -274 -301 -274q-47 0 -77.5 32t-30.5 80q0 55 55 207zM1282 1090h-539l25 129h539z" />
    <glyph glyph-name="longsomacron" unicode="&#x17f;&#x14d;" horiz-adv-x="1423" 
d="M414 821l-115 -717q-102 -643 -397 -643q-73 0 -121.5 34.5t-48.5 88.5q0 41 25.5 67.5t64.5 26.5q51 0 90 -57q23 -39 61 -39q26 -2 44 16.5t37.5 84.5t39.5 190l131 899h-153v96l170 13q49 227 86 338q105 307 334 307q73 0 122.5 -42t49.5 -98q0 -45 -23 -72.5
t-61 -27.5q-60 0 -95 66q-20 37 -32.5 49t-36.5 12q-99 0 -123 -239q-17 -146 -49 -353zM1167 582q0 245 -120 245q-60 0 -115 -61q-129 -144 -129 -465q0 -238 119 -238q64 0 122 70q123 150 123 449zM922 -33q-137 0 -222.5 102t-85.5 271q0 159 63.5 297t168.5 217
q95 74 203 74q126 0 217 -101q92 -103 92 -288q0 -155 -60.5 -287t-160.5 -209q-101 -76 -215 -76zM1407 1182h-539l25 129h539z" />
    <glyph glyph-name="longsumacron" unicode="&#x17f;&#x16b;" horiz-adv-x="1566" 
d="M1176 410q-128 -262 -207 -344q-80 -86 -176 -86q-66 0 -107 43t-41 106q0 77 51 205l123 313q25 67 25 96q0 35 -27 35q-40 0 -160 -147l-45 37q98 143 165.5 201.5t133.5 58.5q48 0 80.5 -36t32.5 -95q0 -66 -51 -197l-123 -328q-21 -55 -21 -86q0 -47 48 -47
q65 0 161 135q115 166 252 547l29 80q21 12 51 12q80 0 117 -67q-83 -227 -113 -328q-61 -199 -78 -305q-6 -40 -6 -53q0 -27 23 -27q43 0 162 146q11 -7 43 -35q-167 -264 -293 -264q-51 0 -80 33.5t-29 90.5q0 100 64 304q-4 0 -4 2zM1501 1253h-538l24 129h539zM414 821
l-115 -717q-102 -643 -397 -643q-73 0 -121.5 34.5t-48.5 88.5q0 41 25.5 67.5t64.5 26.5q51 0 90 -57q23 -39 61 -39q26 -2 44 16.5t37.5 84.5t39.5 190l131 899h-153v96l170 13q49 227 86 338q105 307 334 307q73 0 122.5 -42t49.5 -98q0 -45 -23 -72.5t-61 -27.5
q-60 0 -95 66q-20 37 -32.5 49t-36.5 12q-99 0 -123 -239q-17 -146 -49 -353z" />
    <glyph glyph-name="longskcommaaccent" unicode="&#x17f;&#x137;" horiz-adv-x="1411" 
d="M991 1153l-119 -469h5q88 133 156.5 188.5t146.5 55.5q73 0 122.5 -50.5t49.5 -127.5q0 -98 -72 -163.5t-240 -115.5q23 -115 68 -233q43 -113 80 -113q24 0 49 37.5t68 132.5l51 -19q-82 -296 -215 -296q-109 0 -176 149q-55 129 -91 279l21 75q283 99 283 226
q0 31 -20 53t-52 22q-76 0 -164 -102q-88 -101 -131 -285l-94 -397q-53 -16 -90 -16q-67 0 -97 55q56 182 97 352l178 760q35 122 10.5 190.5t-102.5 73.5q-99 0 -170 -117q-74 -122 -119 -411l-125 -783q-102 -643 -397 -643q-73 0 -121.5 34.5t-48.5 88.5q0 41 25.5 67.5
t64.5 26.5q51 0 90 -57q23 -39 61 -39q26 -2 44 16.5t37.5 84.5t39.5 190l131 899h-153v96l170 13q50 226 114 352q69 135 174 214t234 79q107 0 170 -51l65 32q14 6 27 13t23 12.5t14 7.5l31 -33q-65 -199 -103 -354zM850 -98q56 0 93.5 -47.5t37.5 -120.5
q0 -110 -77 -187.5t-220 -109.5l-20 57q101 38 143.5 73t42.5 79q0 32 -39 61q-63 45 -63 98q0 40 28 68.5t74 28.5z" />
    <glyph glyph-name="longsgbreve" unicode="&#x17f;&#x11f;" horiz-adv-x="1421" 
d="M942 242q-86 0 -147 30q-21 -27 -21 -53q0 -51 111 -98l209 -88q202 -82 202 -262q0 -141 -120 -236q-119 -98 -318 -98q-183 0 -295 80t-112 204q0 195 245 297q-61 52 -61 129q0 98 100 170q-69 72 -69 191q0 168 114 291q117 123 264 123q119 0 209 -84q88 22 199 61
l31 -29v-98q-165 -25 -178 -27q14 -41 14 -106q0 -160 -115 -281q-113 -116 -262 -116zM1028 -137q-204 81 -268 114q-148 -77 -148 -219q0 -89 85.5 -144.5t226.5 -55.5q112 0 172.5 45t60.5 114q0 93 -129 146zM942 336q82 0 137 98q58 98 58 221q0 174 -95 174
q-79 0 -139 -100q-59 -100 -59 -231q0 -162 98 -162zM414 821l-115 -717q-102 -643 -397 -643q-73 0 -121.5 34.5t-48.5 88.5q0 41 25.5 67.5t64.5 26.5q51 0 90 -57q23 -39 61 -39q26 -2 44 16.5t37.5 84.5t39.5 190l131 899h-153v96l170 13q49 227 86 338q105 307 334 307
q73 0 122.5 -42t49.5 -98q0 -45 -23 -72.5t-61 -27.5q-60 0 -95 66q-20 37 -32.5 49t-36.5 12q-99 0 -123 -239q-17 -146 -49 -353zM1118 1075q-98 0 -152.5 70t-54.5 194q0 63 17 170h67v-39q0 -123 31 -176t98 -53q156 0 258 268l68 -12q-40 -207 -129 -314.5t-203 -107.5
z" />
    <glyph glyph-name="longsgcircumflex" unicode="&#x17f;&#x11d;" horiz-adv-x="1421" 
d="M942 242q-86 0 -147 30q-21 -27 -21 -53q0 -51 111 -98l209 -88q202 -82 202 -262q0 -141 -120 -236q-119 -98 -318 -98q-183 0 -295 80t-112 204q0 195 245 297q-61 52 -61 129q0 98 100 170q-69 72 -69 191q0 168 114 291q117 123 264 123q119 0 209 -84q88 22 199 61
l31 -29v-98q-165 -25 -178 -27q14 -41 14 -106q0 -160 -115 -281q-113 -116 -262 -116zM1028 -137q-204 81 -268 114q-148 -77 -148 -219q0 -89 85.5 -144.5t226.5 -55.5q112 0 172.5 45t60.5 114q0 93 -129 146zM942 336q82 0 137 98q58 98 58 221q0 174 -95 174
q-79 0 -139 -100q-59 -100 -59 -231q0 -162 98 -162zM414 821l-115 -717q-102 -643 -397 -643q-73 0 -121.5 34.5t-48.5 88.5q0 41 25.5 67.5t64.5 26.5q51 0 90 -57q23 -39 61 -39q26 -2 44 16.5t37.5 84.5t39.5 190l131 899h-153v96l170 13q49 227 86 338q105 307 334 307
q73 0 122.5 -42t49.5 -98q0 -45 -23 -72.5t-61 -27.5q-60 0 -95 66q-20 37 -32.5 49t-36.5 12q-99 0 -123 -239q-17 -146 -49 -353zM897 1024l-49 45l293 410q34 51 73 51q43 0 52 -51l92 -437l-62 -20l-125 264z" />
    <glyph glyph-name="longsgdotaccent" unicode="&#x17f;&#x121;" horiz-adv-x="1421" 
d="M942 242q-86 0 -147 30q-21 -27 -21 -53q0 -51 111 -98l209 -88q202 -82 202 -262q0 -141 -120 -236q-119 -98 -318 -98q-183 0 -295 80t-112 204q0 195 245 297q-61 52 -61 129q0 98 100 170q-69 72 -69 191q0 168 114 291q117 123 264 123q119 0 209 -84q88 22 199 61
l31 -29v-98q-165 -25 -178 -27q14 -41 14 -106q0 -160 -115 -281q-113 -116 -262 -116zM1028 -137q-204 81 -268 114q-148 -77 -148 -219q0 -89 85.5 -144.5t226.5 -55.5q112 0 172.5 45t60.5 114q0 93 -129 146zM942 336q82 0 137 98q58 98 58 221q0 174 -95 174
q-79 0 -139 -100q-59 -100 -59 -231q0 -162 98 -162zM1038 1276q-37 37 -37 92t37 90q37 37 92.5 37t90.5 -37q37 -35 37 -90t-37 -92q-35 -37 -90.5 -37t-92.5 37zM414 821l-115 -717q-102 -643 -397 -643q-73 0 -121.5 34.5t-48.5 88.5q0 41 25.5 67.5t64.5 26.5
q51 0 90 -57q23 -39 61 -39q26 -2 44 16.5t37.5 84.5t39.5 190l131 899h-153v96l170 13q49 227 86 338q105 307 334 307q73 0 122.5 -42t49.5 -98q0 -45 -23 -72.5t-61 -27.5q-60 0 -95 66q-20 37 -32.5 49t-36.5 12q-99 0 -123 -239q-17 -146 -49 -353z" />
    <glyph glyph-name="longshcircumflex" unicode="&#x17f;&#x125;" horiz-adv-x="1449" 
d="M991 1153l-125 -469l4 -2q91 136 159.5 191t148.5 55q68 0 110.5 -47.5t42.5 -122.5q0 -85 -26 -162q-81 -239 -134 -408q-6 -24 -6 -36q0 -21 19 -21q44 0 166 152q28 -25 45 -35q-167 -268 -308 -268q-47 0 -77.5 31.5t-30.5 80.5q0 71 45 207l100 313q19 62 19 101
q0 24 -14.5 38.5t-38.5 14.5q-79 0 -160.5 -99.5t-122.5 -269.5l-94 -397q-53 -16 -90 -16q-70 0 -99 57q82 278 99 350l182 766q64 258 -92 258q-99 0 -170 -117q-74 -122 -119 -411l-125 -783q-102 -643 -397 -643q-73 0 -121.5 34.5t-48.5 88.5q0 41 25.5 67.5t64.5 26.5
q51 0 90 -57q23 -39 61 -39q26 -2 44 16.5t37.5 84.5t39.5 190l131 899h-153v96l170 13q50 226 114 352q69 135 174 214t234 79q107 0 170 -51q114 59 127 65l31 -33q-30 -88 -101 -354zM662 1573l-33 57l286 199q64 43 93 43q27 0 75 -45l220 -203l-35 -55l-275 131z" />
    <glyph glyph-name="longshbar" unicode="&#x17f;&#x127;" horiz-adv-x="1447" 
d="M784 1075h-100l21 119h108q12 64 12 100q0 54 -30.5 87.5t-81.5 33.5q-99 0 -170 -117q-74 -122 -119 -411l-125 -783q-102 -643 -397 -643q-73 0 -121.5 34.5t-48.5 88.5q0 41 25.5 67.5t64.5 26.5q51 0 90 -57q23 -39 61 -39q26 -2 44 16.5t37.5 84.5t39.5 190l131 899
h-153v96l170 13q50 226 114 352q69 135 174 214t234 79q107 0 170 -51q114 59 127 65l31 -33q-49 -147 -91 -313h338l-20 -119h-348l-105 -391l4 -2q91 136 159.5 191t148.5 55q68 0 110.5 -47.5t42.5 -122.5q0 -85 -26 -162q-81 -239 -134 -408q-6 -24 -6 -36q0 -21 19 -21
q44 0 166 152q28 -25 45 -35q-167 -268 -308 -268q-47 0 -77.5 31.5t-30.5 80.5q0 71 45 207l100 313q19 62 19 101q0 24 -14.5 38.5t-38.5 14.5q-79 0 -160.5 -99.5t-122.5 -269.5l-94 -397q-53 -16 -90 -16q-70 0 -99 57q82 278 99 350z" />
    <glyph glyph-name="longsitilde" unicode="&#x17f;&#x129;" horiz-adv-x="1136" 
d="M414 821l-115 -717q-102 -643 -397 -643q-73 0 -121.5 34.5t-48.5 88.5q0 41 25.5 67.5t64.5 26.5q51 0 90 -57q23 -39 61 -39q26 -2 44 16.5t37.5 84.5t39.5 190l131 899h-153v96l170 13q49 227 86 338q105 307 334 307q73 0 122.5 -42t49.5 -98q0 -45 -23 -72.5
t-61 -27.5q-60 0 -95 66q-20 37 -32.5 49t-36.5 12q-99 0 -123 -239q-17 -146 -49 -353zM711 299l118 324q35 96 35 120q0 23 -20 23q-35 0 -150 -127l-41 35q175 254 293 254q47 0 75 -31.5t28 -85.5q0 -68 -52 -205l-139 -391q-20 -56 -20 -70q0 -20 20 -20q46 0 162 162
l45 -33q-145 -274 -301 -274q-47 0 -78 32t-31 80q0 53 56 207zM1071 1253q59 -39 107 -39q66 0 141 60l39 -33q-38 -75 -98 -118.5t-123 -43.5q-41 0 -121 41q-77 41 -115 41q-64 0 -137 -61l-39 33q38 77 96.5 120t122.5 43q60 0 127 -43z" />
    <glyph glyph-name="longsibreve" unicode="&#x17f;&#x12d;" horiz-adv-x="1013" 
d="M299 104q-102 -643 -397 -643q-73 0 -121.5 34.5t-48.5 88.5q0 41 25.5 67.5t64.5 26.5q51 0 90 -57q23 -39 61 -39q26 -2 44 16.5t37.5 84.5t39.5 190l131 899h-153v96l170 13q49 227 86 338q105 307 334 307q73 0 122.5 -43.5t49.5 -102.5q0 -61 -62 -82
q26 -57 115 -57q156 0 258 268l67 -12q-40 -207 -128.5 -314.5t-202.5 -107.5q-184 0 -205 234q-12 104 -82 104q-107 0 -131 -239q-6 -70 -164 -1070zM588 299l119 324q34 93 34 120q0 23 -20 23q-35 0 -150 -127l-41 35q175 254 293 254q47 0 75 -31.5t28 -85.5
q0 -68 -52 -205l-139 -391q-20 -56 -20 -70q0 -20 20 -20q46 0 162 162l45 -33q-145 -274 -301 -274q-47 0 -78 32t-31 80q0 53 56 207z" />
    <glyph glyph-name="longsij" unicode="&#x17f;&#x133;" horiz-adv-x="1533" 
d="M424 887l-125 -783q-102 -643 -397 -643q-73 0 -121.5 34.5t-48.5 88.5q0 41 25.5 67.5t64.5 26.5q53 0 92 -57q23 -39 59 -39q26 -2 44 16.5t37.5 84.5t39.5 190l131 899h-153v96l170 13q50 226 114 352q68 135 174.5 214t237.5 79q106 0 177 -52t71 -133q0 -50 -29 -81
t-78 -31q-83 0 -123 108q-30 76 -96 76q-183 0 -266 -526zM594 299l119 324q35 96 35 120q0 23 -21 23q-34 0 -149 -127l-41 35q175 254 292 254q47 0 75 -31.5t28 -85.5q0 -71 -51 -205l-140 -391q-20 -56 -20 -70q0 -20 20 -20q46 0 162 162l45 -33q-145 -274 -301 -274
q-47 0 -77.5 32t-30.5 80q0 55 55 207zM1309 1368q0 54 36 90.5t91 36.5q56 0 92.5 -36t36.5 -91q0 -56 -36.5 -92.5t-92.5 -36.5q-55 0 -91 36.5t-36 92.5zM1079 -113l178 766q15 67 15 88q0 33 -23 33q-39 0 -127 -135l-47 31q138 258 260 258q52 0 84.5 -36.5t32.5 -98.5
q0 -69 -25 -172l-124 -517q-78 -329 -199 -486t-264 -157q-64 0 -107 31.5t-43 81.5q0 38 23.5 63t58.5 25q39 0 84 -51q26 -33 64 -33q27 -2 49.5 20t51 93t58.5 196z" />
    <glyph glyph-name="longsjcircumflex" unicode="&#x17f;&#x135;" horiz-adv-x="557" 
d="M676 -113l178 766q14 63 14 88q0 33 -22 33q-38 0 -127 -135l-47 31q138 258 260 258q52 0 84.5 -36.5t32.5 -98.5q0 -69 -25 -172l-125 -517q-78 -329 -199 -486t-264 -157q-64 0 -106.5 31.5t-42.5 81.5q0 38 23.5 63t58.5 25q39 0 84 -51q26 -33 63 -33q27 -2 49.5 20
t51.5 93t59 196zM770 1024l-49 45l293 410q34 51 73 51q43 0 52 -51l92 -437l-62 -20l-125 264zM414 821l-115 -717q-102 -643 -397 -643q-73 0 -121.5 34.5t-48.5 88.5q0 41 25.5 67.5t64.5 26.5q51 0 90 -57q23 -39 61 -39q26 -2 44 16.5t37.5 84.5t39.5 190l131 899h-153
v96l170 13q49 227 86 338q105 307 334 307q73 0 122.5 -42t49.5 -98q0 -45 -23 -72.5t-61 -27.5q-60 0 -95 66q-20 37 -32.5 49t-36.5 12q-99 0 -123 -239q-17 -146 -49 -353z" />
    <glyph glyph-name="longsldot" unicode="&#x17f;&#x140;" horiz-adv-x="1294" 
d="M991 1153l-229 -944q-6 -30 -6 -41q0 -25 24 -25q59 0 197 179l45 -33q-184 -309 -350 -309q-46 0 -77.5 28t-31.5 74q0 62 39 219l203 856q64 258 -92 258q-99 0 -170 -117q-74 -122 -119 -411l-125 -783q-102 -643 -397 -643q-73 0 -121.5 34.5t-48.5 88.5
q0 41 25.5 67.5t64.5 26.5q51 0 90 -57q23 -39 61 -39q26 -2 44 16.5t37.5 84.5t39.5 190l131 899h-153v96l170 13q50 226 114 352q69 135 174 214t234 79q107 0 170 -51q114 59 127 65l31 -33q-57 -177 -101 -354zM1044 401q-37 37 -37 92.5t37 90.5q37 37 92.5 37
t90.5 -37q37 -35 37 -90.5t-37 -92.5q-35 -37 -90.5 -37t-92.5 37z" />
    <glyph glyph-name="longsnapostrophe" unicode="&#x17f;&#x149;" horiz-adv-x="1546" 
d="M950 651l4 -2q165 281 318 281q68 0 114 -49.5t46 -122.5q0 -62 -31 -160q-57 -171 -131 -410q-8 -24 -8 -38q0 -19 20 -19q43 0 166 156l45 -35q-163 -272 -307 -272q-44 0 -77.5 33t-33.5 75q0 66 47 209l103 315q16 59 16 101q0 55 -53 55q-74 0 -155.5 -100
t-121.5 -269l-94 -399q-43 -16 -88 -16q-66 0 -100 55q85 284 100 356l64 267q14 60 14 88q0 26 -21 26q-45 0 -127 -125l-47 37q76 132 137.5 187t124.5 55q43 0 73 -36t30 -91q0 -44 -27 -152zM414 821l-115 -717q-102 -643 -397 -643q-73 0 -121.5 34.5t-48.5 88.5
q0 41 25.5 67.5t64.5 26.5q51 0 90 -57q23 -39 61 -39q26 -2 44 16.5t37.5 84.5t39.5 190l131 899h-153v96l170 13q49 227 86 338q105 307 334 307q73 0 122.5 -42t49.5 -98q0 -45 -23 -72.5t-61 -27.5q-60 0 -95 66q-20 37 -32.5 49t-36.5 12q-99 0 -123 -239
q-17 -146 -49 -353zM1008 1565q56 0 93.5 -47.5t37.5 -120.5q0 -110 -77.5 -187.5t-219.5 -109.5l-21 57q101 38 144 73.5t43 78.5q0 32 -39 61q-64 46 -64 98q0 39 30 68t73 29z" />
    <glyph glyph-name="longsobreve" unicode="&#x17f;&#x14f;" horiz-adv-x="1423" 
d="M414 821l-115 -717q-102 -643 -397 -643q-73 0 -121.5 34.5t-48.5 88.5q0 41 25.5 67.5t64.5 26.5q51 0 90 -57q23 -39 61 -39q26 -2 44 16.5t37.5 84.5t39.5 190l131 899h-153v96l170 13q49 227 86 338q105 307 334 307q73 0 122.5 -42t49.5 -98q0 -45 -23 -72.5
t-61 -27.5q-60 0 -95 66q-20 37 -32.5 49t-36.5 12q-99 0 -123 -239q-17 -146 -49 -353zM1167 582q0 245 -120 245q-60 0 -115 -61q-129 -144 -129 -465q0 -238 119 -238q64 0 122 70q123 150 123 449zM922 -33q-137 0 -222.5 102t-85.5 271q0 159 63.5 297t168.5 217
q95 74 203 74q126 0 217 -101q92 -103 92 -288q0 -155 -60.5 -287t-160.5 -209q-101 -76 -215 -76zM1120 1075q-98 0 -152.5 70t-54.5 194q0 63 17 170h67v-39q0 -123 31 -176t98 -53q156 0 258 268l68 -12q-40 -207 -129 -314.5t-203 -107.5z" />
    <glyph glyph-name="longsutilde" unicode="&#x17f;&#x169;" horiz-adv-x="1566" 
d="M1176 410q-128 -262 -207 -344q-80 -86 -176 -86q-66 0 -107 43t-41 106q0 77 51 205l123 313q25 67 25 96q0 35 -27 35q-40 0 -160 -147l-45 37q98 143 165.5 201.5t133.5 58.5q48 0 80.5 -36t32.5 -95q0 -66 -51 -197l-123 -328q-21 -55 -21 -86q0 -47 48 -47
q65 0 161 135q115 166 252 547l29 80q21 12 51 12q80 0 117 -67q-83 -227 -113 -328q-61 -199 -78 -305q-6 -40 -6 -53q0 -27 23 -27q43 0 162 146q11 -7 43 -35q-167 -264 -293 -264q-51 0 -80 33.5t-29 90.5q0 100 64 304q-4 0 -4 2zM414 821l-115 -717
q-102 -643 -397 -643q-73 0 -121.5 34.5t-48.5 88.5q0 41 25.5 67.5t64.5 26.5q51 0 90 -57q23 -39 61 -39q26 -2 44 16.5t37.5 84.5t39.5 190l131 899h-153v96l170 13q49 227 86 338q105 307 334 307q73 0 122.5 -42t49.5 -98q0 -45 -23 -72.5t-61 -27.5q-60 0 -95 66
q-20 37 -32.5 49t-36.5 12q-99 0 -123 -239q-17 -146 -49 -353zM1268 1386q58 -38 106 -38q68 0 142 59l38 -33q-38 -75 -98 -118.5t-123 -43.5q-41 0 -121 41q-77 41 -114 41q-64 0 -137 -61l-39 33q38 77 96.5 120.5t122.5 43.5q59 0 127 -44z" />
    <glyph glyph-name="longsycircumflex" unicode="&#x17f;&#x177;" horiz-adv-x="1460" 
d="M414 821l-115 -717q-102 -643 -397 -643q-73 0 -121.5 34.5t-48.5 88.5q0 41 25.5 67.5t64.5 26.5q51 0 90 -57q23 -39 61 -39q26 -2 44 16.5t37.5 84.5t39.5 190l131 899h-153v96l170 13q49 227 86 338q105 307 334 307q73 0 122.5 -42t49.5 -98q0 -45 -23 -72.5
t-61 -27.5q-60 0 -95 66q-20 37 -32.5 49t-36.5 12q-99 0 -123 -239q-17 -146 -49 -353zM907 72q0 159 -35 346q-37 198 -75 287q-21 55 -45 55q-55 0 -125 -211l-56 16q83 363 236 363q103 0 162 -164q100 -274 100 -625q0 -63 -8 -131h4q168 381 168 766q0 71 -12 133
q29 29 86 29q34 0 53 -8q10 -45 10 -103q0 -372 -180 -753q-151 -318 -377 -492q-189 -145 -403 -145q-65 0 -104.5 28t-39.5 70q0 39 27.5 64.5t71.5 25.5q29 0 84 -24q61 -25 114 -25q140 0 242 141q102 138 102 357zM877 1024l-50 45l293 410q34 51 74 51q42 0 51 -51
l92 -437l-61 -20l-125 264z" />
    <glyph glyph-name="longsccaron" unicode="&#x17f;&#x10d;" horiz-adv-x="1267" 
d="M414 821l-115 -717q-102 -643 -397 -643q-73 0 -121.5 34.5t-48.5 88.5q0 41 25.5 67.5t64.5 26.5q51 0 90 -57q23 -39 61 -39q26 -2 44 16.5t37.5 84.5t39.5 190l131 899h-153v96l170 13q49 227 86 338q105 307 334 307q73 0 122.5 -42t49.5 -98q0 -45 -23 -72.5
t-61 -27.5q-60 0 -95 66q-20 37 -32.5 49t-36.5 12q-99 0 -123 -239q-17 -146 -49 -353zM1198 662q-36 0 -58 22.5t-29.5 49t-24 49t-42.5 22.5q-55 0 -112.5 -63t-97.5 -173q-58 -152 -58 -301q0 -133 109 -133q103 0 241 193l52 -31q-151 -330 -369 -330q-93 0 -150 68
t-57 180q0 256 162 485q164 232 346 232q74 0 125 -47.5t51 -120.5q0 -43 -25.5 -72.5t-62.5 -29.5zM1436 1530l49 -45l-291 -410q-39 -51 -74 -51q-44 0 -53 51l-92 436l61 19l127 -264z" />
    <glyph glyph-name="gy" unicode="gy" horiz-adv-x="1789" 
d="M1237 72q0 159 -35 346q-36 194 -76 287q-21 55 -45 55q-55 0 -125 -211l-55 16q83 363 236 363q102 0 161 -164q101 -276 101 -625q0 -63 -8 -131h4q168 381 168 766q0 66 -13 133q29 29 86 29q35 0 54 -8q10 -45 10 -103q0 -372 -180 -753q-151 -318 -377 -492
q-189 -145 -404 -145q-59 0 -97 23t-46 61q-119 -82 -295 -82q-183 0 -295 80t-112 204q0 195 245 297q-61 52 -61 129q0 98 100 170q-69 72 -69 191q0 168 114 291q117 123 264 123q119 0 209 -84q88 22 199 61l31 -29v-98q-165 -25 -178 -27q14 -41 14 -106
q0 -160 -115 -281q-113 -116 -262 -116q-85 0 -147 30q-21 -27 -21 -53q0 -51 111 -98l209 -88q202 -82 202 -262q0 -77 -41 -148q24 0 80 -24q61 -25 115 -25q140 0 242 141q102 138 102 357zM471 -137q-204 81 -268 114q-148 -77 -148 -219q0 -89 85.5 -144.5t226.5 -55.5
q112 0 172.5 45t60.5 114q0 93 -129 146zM385 336q82 0 137 98q58 98 58 221q0 174 -95 174q-79 0 -139 -100q-59 -100 -59 -231q0 -162 98 -162z" />
    <glyph glyph-name="fi.trk" unicode="fi" horiz-adv-x="1148" 
d="M627 772h-221l-107 -668q-102 -643 -397 -643q-73 0 -121.5 34.5t-48.5 88.5q0 41 25.5 67.5t64.5 26.5q51 0 90 -57q23 -39 61 -39q26 -2 44 16.5t37.5 84.5t39.5 190l131 899h-153v96l170 13q49 227 86 338q105 307 334 307q73 0 122.5 -42t49.5 -98q0 -45 -23 -72.5
t-61 -27.5q-60 0 -95 66q-20 37 -32.5 49t-36.5 12q-99 0 -123 -239q-10 -87 -39 -287q139 4 213 8l16 -35zM723 299l119 324q35 96 35 120q0 23 -21 23q-34 0 -149 -127l-41 35q175 254 292 254q47 0 75 -31.5t28 -85.5q0 -71 -51 -205l-140 -391q-20 -56 -20 -70
q0 -20 20 -20q46 0 162 162l45 -33q-145 -274 -301 -274q-47 0 -77.5 32t-30.5 80q0 55 55 207zM899 1368q0 54 37 90.5t92 36.5q56 0 91.5 -35.5t35.5 -91.5t-36 -92.5t-91 -36.5q-56 0 -92.5 36.5t-36.5 92.5z" />
    <glyph glyph-name="ffi.trk" unicode="ffi" horiz-adv-x="1650" 
d="M424 883l309 2q45 220 84 334q105 307 334 307q73 0 122.5 -42t49.5 -98q0 -45 -23 -72.5t-61 -27.5q-59 0 -94 66q-20 37 -33 49t-37 12q-99 0 -123 -239q-10 -87 -39 -287q139 4 213 8l17 -35l-27 -88h-221l-107 -668q-102 -643 -397 -643q-73 0 -121.5 34.5
t-48.5 88.5q0 41 25.5 67.5t64.5 26.5q51 0 90 -57q23 -39 62 -39q26 -2 44 16.5t37.5 84.5t39.5 190l131 899h-309l-107 -668q-102 -643 -397 -643q-73 0 -121.5 34.5t-48.5 88.5q0 41 25.5 67.5t64.5 26.5q51 0 90 -57q23 -39 61 -39q26 -2 44 16.5t37.5 84.5t39.5 190
l131 899h-153v96l170 11q57 259 84 340q50 148 137 227.5t199 79.5q73 0 122.5 -42t49.5 -98q0 -45 -23 -72.5t-61 -27.5q-60 0 -95 66q-20 37 -32.5 49t-36.5 12q-99 0 -123 -239q-1 -10 -39 -291zM1225 299l118 324q35 96 35 120q0 23 -20 23q-35 0 -150 -127l-41 35
q175 254 293 254q47 0 75 -31.5t28 -85.5q0 -68 -52 -205l-139 -391q-20 -56 -20 -70q0 -20 20 -20q46 0 162 162l45 -33q-145 -274 -301 -274q-47 0 -78 32t-31 80q0 53 56 207zM1401 1368q0 54 37 90.5t92 36.5q56 0 91.5 -35.5t35.5 -91.5t-36 -92.5t-91 -36.5
q-56 0 -92.5 36.5t-36.5 92.5z" />
    <glyph glyph-name="fadblgrave" unicode="f&#x201;" horiz-adv-x="1544" 
d="M627 772h-221l-107 -668q-102 -643 -397 -643q-73 0 -121.5 34.5t-48.5 88.5q0 41 25.5 67.5t64.5 26.5q51 0 90 -57q23 -39 61 -39q26 -2 44 16.5t37.5 84.5t39.5 190l131 899h-153v96l170 13q49 227 86 338q105 307 334 307q73 0 122.5 -42t49.5 -98q0 -45 -23 -72.5
t-61 -27.5q-60 0 -95 66q-20 37 -32.5 49t-36.5 12q-99 0 -123 -239q-10 -87 -39 -287q139 4 213 8l16 -35zM803 227q0 -104 69 -104q54 0 135.5 96t153.5 260q40 91 66 201q-35 92 -107 92q-81 0 -159 -96q-75 -93 -117 -223q-41 -128 -41 -226zM629 164q0 120 61 266
q59 145 158 270q179 226 336 226q14 0 26 -1.5l20 -2.5t18 -5.5t14 -6t14.5 -9.5t12 -9t13.5 -12t13 -12l53 82q64 -9 107 -47q-81 -245 -117 -377l-31 -106l-31 -109q-24 -123 -24 -155q0 -25 22 -25q52 0 172 166l45 -35q-92 -153 -162.5 -219t-140.5 -66
q-51 0 -79.5 30.5t-28.5 84.5q0 77 35 193l-5 4q-176 -324 -335 -324q-77 0 -121.5 54t-44.5 145zM1167 1407l-2 -377l-59 -10l-107 328q-16 75 -16 82q0 45 25 73.5t67 28.5t67 -33t25 -92zM1415 1407l-2 -377l-59 -10l-107 328q-16 75 -16 82q0 45 25 73.5t67 28.5t67 -33
t25 -92z" />
    <glyph glyph-name="ffadblgrave" unicode="ff&#x201;" horiz-adv-x="2033" 
d="M424 883l309 2q45 220 84 334q105 307 334 307q73 0 122.5 -42t49.5 -98q0 -45 -23 -72.5t-61 -27.5q-59 0 -94 66q-20 37 -33 49t-37 12q-99 0 -123 -239q-10 -87 -39 -287q139 4 213 8l17 -35l-27 -88h-221l-107 -668q-102 -643 -397 -643q-73 0 -121.5 34.5
t-48.5 88.5q0 41 25.5 67.5t64.5 26.5q51 0 90 -57q23 -39 62 -39q26 -2 44 16.5t37.5 84.5t39.5 190l131 899h-309l-107 -668q-102 -643 -397 -643q-73 0 -121.5 34.5t-48.5 88.5q0 41 25.5 67.5t64.5 26.5q51 0 90 -57q23 -39 61 -39q26 -2 44 16.5t37.5 84.5t39.5 190
l131 899h-153v96l170 11q57 259 84 340q50 148 137 227.5t199 79.5q73 0 122.5 -42t49.5 -98q0 -45 -23 -72.5t-61 -27.5q-60 0 -95 66q-20 37 -32.5 49t-36.5 12q-99 0 -123 -239q-1 -10 -39 -291zM1292 227q0 -104 70 -104q54 0 135.5 96t153.5 260q38 86 65 201
q-35 92 -106 92q-82 0 -160 -96q-75 -93 -117 -223q-41 -128 -41 -226zM1118 164q0 118 62 266q60 147 157 270q179 226 336 226q14 0 26 -1.5l20 -2.5t18 -5.5t14 -6t14.5 -9.5t12 -9t13.5 -12t13 -12l54 82q63 -9 106 -47q-81 -245 -117 -377l-30 -106l-31 -109
q-25 -128 -25 -155q0 -25 23 -25q52 0 172 166l45 -35q-92 -153 -162.5 -219t-140.5 -66q-51 0 -80 30.5t-29 84.5q0 77 35 193l-4 4q-176 -324 -336 -324q-77 0 -121.5 54t-44.5 145zM1657 1407l-2 -377l-60 -10l-106 328q-16 75 -16 82q0 45 25 73.5t67 28.5t67 -33
t25 -92zM1905 1407l-2 -377l-60 -10l-106 328q-17 80 -17 82q0 45 25 73.5t67 28.5t67.5 -33t25.5 -92z" />
    <glyph glyph-name="longsadblgrave" unicode="&#x17f;&#x201;" horiz-adv-x="1544" 
d="M803 227q0 -104 69 -104q54 0 135.5 96t153.5 260q40 91 66 201q-35 92 -107 92q-81 0 -159 -96q-75 -93 -117 -223q-41 -128 -41 -226zM629 164q0 120 61 266q59 145 158 270q179 226 336 226q14 0 26 -1.5l20 -2.5t18 -5.5t14 -6t14.5 -9.5t12 -9t13.5 -12t13 -12
l53 82q64 -9 107 -47q-81 -245 -117 -377l-31 -106l-31 -109q-24 -123 -24 -155q0 -25 22 -25q52 0 172 166l45 -35q-92 -153 -162.5 -219t-140.5 -66q-51 0 -79.5 30.5t-28.5 84.5q0 77 35 193l-5 4q-176 -324 -335 -324q-77 0 -121.5 54t-44.5 145zM1167 1407l-2 -377
l-59 -10l-107 328q-16 75 -16 82q0 45 25 73.5t67 28.5t67 -33t25 -92zM1415 1407l-2 -377l-59 -10l-107 328q-16 75 -16 82q0 45 25 73.5t67 28.5t67 -33t25 -92zM414 821l-115 -717q-102 -643 -397 -643q-73 0 -121.5 34.5t-48.5 88.5q0 41 25.5 67.5t64.5 26.5
q51 0 90 -57q23 -39 61 -39q26 -2 44 16.5t37.5 84.5t39.5 190l131 899h-153v96l170 13q49 227 86 338q105 307 334 307q73 0 122.5 -42t49.5 -98q0 -45 -23 -72.5t-61 -27.5q-60 0 -95 66q-20 37 -32.5 49t-36.5 12q-99 0 -123 -239q-17 -146 -49 -353z" />
    <glyph glyph-name="fetilde" unicode="f&#x1ebd;" horiz-adv-x="1335" 
d="M627 772h-221l-107 -668q-102 -643 -397 -643q-73 0 -121.5 34.5t-48.5 88.5q0 41 25.5 67.5t64.5 26.5q51 0 90 -57q23 -39 61 -39q26 -2 44 16.5t37.5 84.5t39.5 190l131 899h-153v96l170 13q49 227 86 338q105 307 334 307q73 0 122.5 -42t49.5 -98q0 -45 -23 -72.5
t-61 -27.5q-60 0 -95 66q-20 37 -32.5 49t-36.5 12q-99 0 -123 -239q-10 -87 -39 -287q139 4 213 8l16 -35zM1327 766q0 -120 -119.5 -212.5t-369.5 -137.5q-19 -71 -19 -144q0 -137 99 -137q52 0 107 44t132 149l51 -31q-154 -330 -344 -330q-103 0 -162 68.5t-59 187.5
q0 258 182 496q163 211 332 211q77 0 123.5 -47t46.5 -117zM1098 807q-67 0 -135 -87.5t-109 -232.5q303 85 303 250q0 31 -16.5 50.5t-42.5 19.5zM1198 1386q58 -38 107 -38q67 0 141 59l39 -33q-38 -75 -98 -118.5t-123 -43.5q-41 0 -121 41q-77 41 -115 41
q-64 0 -137 -61l-39 33q38 77 96.5 120.5t122.5 43.5q59 0 127 -44z" />
    <glyph glyph-name="ffetilde" unicode="ff&#x1ebd;" horiz-adv-x="1824" 
d="M424 883l309 2q45 220 84 334q105 307 334 307q73 0 122.5 -42t49.5 -98q0 -45 -23 -72.5t-61 -27.5q-59 0 -94 66q-20 37 -33 49t-37 12q-99 0 -123 -239q-10 -87 -39 -287q139 4 213 8l17 -35l-27 -88h-221l-107 -668q-102 -643 -397 -643q-73 0 -121.5 34.5
t-48.5 88.5q0 41 25.5 67.5t64.5 26.5q51 0 90 -57q23 -39 62 -39q26 -2 44 16.5t37.5 84.5t39.5 190l131 899h-309l-107 -668q-102 -643 -397 -643q-73 0 -121.5 34.5t-48.5 88.5q0 41 25.5 67.5t64.5 26.5q51 0 90 -57q23 -39 61 -39q26 -2 44 16.5t37.5 84.5t39.5 190
l131 899h-153v96l170 11q57 259 84 340q50 148 137 227.5t199 79.5q73 0 122.5 -42t49.5 -98q0 -45 -23 -72.5t-61 -27.5q-60 0 -95 66q-20 37 -32.5 49t-36.5 12q-99 0 -123 -239q-1 -10 -39 -291zM1817 766q0 -120 -120 -212.5t-370 -137.5q-18 -68 -18 -144
q0 -137 98 -137q52 0 107.5 44.5t132.5 148.5l51 -31q-154 -330 -344 -330q-103 0 -162 68.5t-59 187.5q0 258 182 496q163 211 332 211q77 0 123.5 -47t46.5 -117zM1587 807q-67 0 -135 -87.5t-109 -232.5q304 85 304 250q0 31 -17 50.5t-43 19.5zM1688 1386
q58 -38 106 -38q67 0 141 59l39 -33q-38 -75 -98 -118.5t-123 -43.5q-41 0 -121 41q-77 41 -114 41q-65 0 -138 -61l-39 33q38 77 97 120.5t123 43.5q59 0 127 -44z" />
    <glyph glyph-name="longsetilde" unicode="&#x17f;&#x1ebd;" horiz-adv-x="1335" 
d="M1327 766q0 -120 -119.5 -212.5t-369.5 -137.5q-19 -71 -19 -144q0 -137 99 -137q52 0 107 44t132 149l51 -31q-154 -330 -344 -330q-103 0 -162 68.5t-59 187.5q0 258 182 496q163 211 332 211q77 0 123.5 -47t46.5 -117zM1098 807q-67 0 -135 -87.5t-109 -232.5
q303 85 303 250q0 31 -16.5 50.5t-42.5 19.5zM1198 1386q58 -38 107 -38q67 0 141 59l39 -33q-38 -75 -98 -118.5t-123 -43.5q-41 0 -121 41q-77 41 -115 41q-64 0 -137 -61l-39 33q38 77 96.5 120.5t122.5 43.5q59 0 127 -44zM414 821l-115 -717q-102 -643 -397 -643
q-73 0 -121.5 34.5t-48.5 88.5q0 41 25.5 67.5t64.5 26.5q51 0 90 -57q23 -39 61 -39q26 -2 44 16.5t37.5 84.5t39.5 190l131 899h-153v96l170 13q49 227 86 338q105 307 334 307q73 0 122.5 -42t49.5 -98q0 -45 -23 -72.5t-61 -27.5q-60 0 -95 66q-20 37 -32.5 49t-36.5 12
q-99 0 -123 -239q-17 -146 -49 -353z" />
    <glyph glyph-name="fedblgrave" unicode="f&#x205;" horiz-adv-x="1335" 
d="M627 772h-221l-107 -668q-102 -643 -397 -643q-73 0 -121.5 34.5t-48.5 88.5q0 41 25.5 67.5t64.5 26.5q51 0 90 -57q23 -39 61 -39q26 -2 44 16.5t37.5 84.5t39.5 190l131 899h-153v96l170 13q49 227 86 338q105 307 334 307q73 0 122.5 -42t49.5 -98q0 -45 -23 -72.5
t-61 -27.5q-60 0 -95 66q-20 37 -32.5 49t-36.5 12q-99 0 -123 -239q-10 -87 -39 -287q139 4 213 8l16 -35zM1327 766q0 -120 -119.5 -212.5t-369.5 -137.5q-19 -71 -19 -144q0 -137 99 -137q52 0 107 44t132 149l51 -31q-154 -330 -344 -330q-103 0 -162 68.5t-59 187.5
q0 258 182 496q163 211 332 211q77 0 123.5 -47t46.5 -117zM1098 807q-67 0 -135 -87.5t-109 -232.5q303 85 303 250q0 31 -16.5 50.5t-42.5 19.5zM1096 1407l-2 -377l-60 -10l-106 328q-17 80 -17 82q0 45 25.5 73.5t67.5 28.5t67 -33t25 -92zM1343 1407l-2 -377l-59 -10
l-106 328q-17 80 -17 82q0 45 25 73.5t67 28.5t67 -33t25 -92z" />
    <glyph glyph-name="ffedblgrave" unicode="ff&#x205;" horiz-adv-x="1824" 
d="M424 883l309 2q45 220 84 334q105 307 334 307q73 0 122.5 -42t49.5 -98q0 -45 -23 -72.5t-61 -27.5q-59 0 -94 66q-20 37 -33 49t-37 12q-99 0 -123 -239q-10 -87 -39 -287q139 4 213 8l17 -35l-27 -88h-221l-107 -668q-102 -643 -397 -643q-73 0 -121.5 34.5
t-48.5 88.5q0 41 25.5 67.5t64.5 26.5q51 0 90 -57q23 -39 62 -39q26 -2 44 16.5t37.5 84.5t39.5 190l131 899h-309l-107 -668q-102 -643 -397 -643q-73 0 -121.5 34.5t-48.5 88.5q0 41 25.5 67.5t64.5 26.5q51 0 90 -57q23 -39 61 -39q26 -2 44 16.5t37.5 84.5t39.5 190
l131 899h-153v96l170 11q57 259 84 340q50 148 137 227.5t199 79.5q73 0 122.5 -42t49.5 -98q0 -45 -23 -72.5t-61 -27.5q-60 0 -95 66q-20 37 -32.5 49t-36.5 12q-99 0 -123 -239q-1 -10 -39 -291zM1817 766q0 -120 -120 -212.5t-370 -137.5q-18 -68 -18 -144
q0 -137 98 -137q52 0 107.5 44.5t132.5 148.5l51 -31q-154 -330 -344 -330q-103 0 -162 68.5t-59 187.5q0 258 182 496q163 211 332 211q77 0 123.5 -47t46.5 -117zM1587 807q-67 0 -135 -87.5t-109 -232.5q304 85 304 250q0 31 -17 50.5t-43 19.5zM1585 1407l-2 -377
l-59 -10l-107 328q-16 75 -16 82q0 45 25 73.5t67 28.5t67 -33t25 -92zM1833 1407l-2 -377l-59 -10l-107 328q-16 75 -16 82q0 45 25 73.5t67 28.5t67 -33t25 -92z" />
    <glyph glyph-name="longsedblgrave" unicode="&#x17f;&#x205;" horiz-adv-x="1335" 
d="M1327 766q0 -120 -119.5 -212.5t-369.5 -137.5q-19 -71 -19 -144q0 -137 99 -137q52 0 107 44t132 149l51 -31q-154 -330 -344 -330q-103 0 -162 68.5t-59 187.5q0 258 182 496q163 211 332 211q77 0 123.5 -47t46.5 -117zM1098 807q-67 0 -135 -87.5t-109 -232.5
q303 85 303 250q0 31 -16.5 50.5t-42.5 19.5zM1096 1407l-2 -377l-60 -10l-106 328q-17 80 -17 82q0 45 25.5 73.5t67.5 28.5t67 -33t25 -92zM1343 1407l-2 -377l-59 -10l-106 328q-17 80 -17 82q0 45 25 73.5t67 28.5t67 -33t25 -92zM414 821l-115 -717
q-102 -643 -397 -643q-73 0 -121.5 34.5t-48.5 88.5q0 41 25.5 67.5t64.5 26.5q51 0 90 -57q23 -39 61 -39q26 -2 44 16.5t37.5 84.5t39.5 190l131 899h-153v96l170 13q49 227 86 338q105 307 334 307q73 0 122.5 -42t49.5 -98q0 -45 -23 -72.5t-61 -27.5q-60 0 -95 66
q-20 37 -32.5 49t-36.5 12q-99 0 -123 -239q-17 -146 -49 -353z" />
    <glyph glyph-name="feinvbreve" unicode="f&#x207;" horiz-adv-x="1335" 
d="M627 772h-221l-107 -668q-102 -643 -397 -643q-73 0 -121.5 34.5t-48.5 88.5q0 41 25.5 67.5t64.5 26.5q51 0 90 -57q23 -39 61 -39q26 -2 44 16.5t37.5 84.5t39.5 190l131 899h-153v96l170 13q49 227 86 338q105 307 334 307q73 0 122.5 -42t49.5 -98q0 -45 -23 -72.5
t-61 -27.5q-60 0 -95 66q-20 37 -32.5 49t-36.5 12q-99 0 -123 -239q-10 -87 -39 -287q139 4 213 8l16 -35zM1327 766q0 -120 -119.5 -212.5t-369.5 -137.5q-19 -71 -19 -144q0 -137 99 -137q52 0 107 44t132 149l51 -31q-154 -330 -344 -330q-103 0 -162 68.5t-59 187.5
q0 258 182 496q163 211 332 211q77 0 123.5 -47t46.5 -117zM1098 807q-67 0 -135 -87.5t-109 -232.5q303 85 303 250q0 31 -16.5 50.5t-42.5 19.5zM1233 1509q98 0 152.5 -70t54.5 -194q0 -63 -17 -170h-67v39q0 123 -31 176t-98 53q-156 0 -258 -268l-68 12
q40 207 129 314.5t203 107.5z" />
    <glyph glyph-name="ffeinvbreve" unicode="ff&#x207;" horiz-adv-x="1824" 
d="M424 883l309 2q45 220 84 334q105 307 334 307q73 0 122.5 -42t49.5 -98q0 -45 -23 -72.5t-61 -27.5q-59 0 -94 66q-20 37 -33 49t-37 12q-99 0 -123 -239q-10 -87 -39 -287q139 4 213 8l17 -35l-27 -88h-221l-107 -668q-102 -643 -397 -643q-73 0 -121.5 34.5
t-48.5 88.5q0 41 25.5 67.5t64.5 26.5q51 0 90 -57q23 -39 62 -39q26 -2 44 16.5t37.5 84.5t39.5 190l131 899h-309l-107 -668q-102 -643 -397 -643q-73 0 -121.5 34.5t-48.5 88.5q0 41 25.5 67.5t64.5 26.5q51 0 90 -57q23 -39 61 -39q26 -2 44 16.5t37.5 84.5t39.5 190
l131 899h-153v96l170 11q57 259 84 340q50 148 137 227.5t199 79.5q73 0 122.5 -42t49.5 -98q0 -45 -23 -72.5t-61 -27.5q-60 0 -95 66q-20 37 -32.5 49t-36.5 12q-99 0 -123 -239q-1 -10 -39 -291zM1817 766q0 -120 -120 -212.5t-370 -137.5q-18 -68 -18 -144
q0 -137 98 -137q52 0 107.5 44.5t132.5 148.5l51 -31q-154 -330 -344 -330q-103 0 -162 68.5t-59 187.5q0 258 182 496q163 211 332 211q77 0 123.5 -47t46.5 -117zM1587 807q-67 0 -135 -87.5t-109 -232.5q304 85 304 250q0 31 -17 50.5t-43 19.5zM1722 1509
q98 0 152.5 -70t54.5 -194q0 -69 -16 -170h-68v39q0 123 -31 176t-98 53q-156 0 -258 -268l-67 12q40 207 128.5 314.5t202.5 107.5z" />
    <glyph glyph-name="longseinvbreve" unicode="&#x17f;&#x207;" horiz-adv-x="1335" 
d="M1327 766q0 -120 -119.5 -212.5t-369.5 -137.5q-19 -71 -19 -144q0 -137 99 -137q52 0 107 44t132 149l51 -31q-154 -330 -344 -330q-103 0 -162 68.5t-59 187.5q0 258 182 496q163 211 332 211q77 0 123.5 -47t46.5 -117zM1098 807q-67 0 -135 -87.5t-109 -232.5
q303 85 303 250q0 31 -16.5 50.5t-42.5 19.5zM1233 1509q98 0 152.5 -70t54.5 -194q0 -63 -17 -170h-67v39q0 123 -31 176t-98 53q-156 0 -258 -268l-68 12q40 207 129 314.5t203 107.5zM414 821l-115 -717q-102 -643 -397 -643q-73 0 -121.5 34.5t-48.5 88.5
q0 41 25.5 67.5t64.5 26.5q51 0 90 -57q23 -39 61 -39q26 -2 44 16.5t37.5 84.5t39.5 190l131 899h-153v96l170 13q49 227 86 338q105 307 334 307q73 0 122.5 -42t49.5 -98q0 -45 -23 -72.5t-61 -27.5q-60 0 -95 66q-20 37 -32.5 49t-36.5 12q-99 0 -123 -239
q-17 -146 -49 -353z" />
    <glyph glyph-name="fhdotbelow" unicode="f&#x1e25;" horiz-adv-x="1449" 
d="M991 1153l-125 -469l4 -2q91 136 159.5 191t148.5 55q68 0 110.5 -47.5t42.5 -122.5q0 -85 -26 -162q-81 -239 -134 -408q-6 -24 -6 -36q0 -21 19 -21q44 0 166 152q28 -25 45 -35q-167 -268 -308 -268q-47 0 -77.5 31.5t-30.5 80.5q0 71 45 207l100 313q19 62 19 101
q0 24 -14.5 38.5t-38.5 14.5q-79 0 -160.5 -99.5t-122.5 -269.5l-94 -397q-53 -16 -90 -16q-70 0 -99 57q82 278 99 350l182 766q64 258 -92 258q-99 0 -170 -117q-74 -122 -119 -411q49 0 172 8l16 -35l-26 -88h-180l-107 -668q-102 -643 -397 -643q-73 0 -121.5 34.5
t-48.5 88.5q0 41 25.5 67.5t64.5 26.5q51 0 90 -57q23 -39 61 -39q26 -2 44 16.5t37.5 84.5t39.5 190l131 899h-153v96l170 13q50 226 114 352q69 135 174 214t234 79q107 0 170 -51q114 59 127 65l31 -33q-30 -88 -101 -354zM717 -362q-37 37 -37 92t37 92q37 35 92 35
t90 -35q37 -37 37 -92t-37 -92q-35 -37 -90 -37t-92 37z" />
    <glyph glyph-name="ffhdotbelow" unicode="ff&#x1e25;" horiz-adv-x="1937" 
d="M424 883l309 2q48 218 113 348q69 135 173.5 214t233.5 79q107 0 170 -51q114 59 127 65l31 -33q-25 -74 -100 -354l-125 -469l4 -2q91 136 159 191t148 55q68 0 111 -47.5t43 -122.5q0 -82 -27 -162q-67 -198 -133 -408q-6 -24 -6 -36q0 -21 18 -21q44 0 166 152
q28 -25 45 -35q-167 -268 -307 -268q-47 0 -78 31.5t-31 80.5q0 71 45 207l101 313q18 59 18 101q0 24 -14.5 38.5t-38.5 14.5q-79 0 -160.5 -99.5t-122.5 -269.5l-94 -397q-53 -16 -90 -16q-69 0 -98 57q77 261 98 350l182 766q64 258 -92 258q-100 0 -170 -117
q-74 -122 -119 -411q49 0 172 8l17 -35l-27 -88h-180l-107 -668q-102 -643 -397 -643q-73 0 -121.5 34.5t-48.5 88.5q0 41 25.5 67.5t64.5 26.5q51 0 90 -57q23 -39 62 -39q26 -2 44 16.5t37.5 84.5t39.5 190l131 899h-309l-107 -668q-102 -643 -397 -643q-73 0 -121.5 34.5
t-48.5 88.5q0 41 25.5 67.5t64.5 26.5q51 0 90 -57q23 -39 61 -39q26 -2 44 16.5t37.5 84.5t39.5 190l131 899h-153v96l170 11q57 259 84 340q50 148 137 227.5t199 79.5q73 0 122.5 -42t49.5 -98q0 -45 -23 -72.5t-61 -27.5q-60 0 -95 66q-20 37 -32.5 49t-36.5 12
q-99 0 -123 -239q-1 -10 -39 -291zM1208 -362q-37 37 -37 92t37 92q37 35 92.5 35t90.5 -35q37 -37 37 -92t-37 -92q-35 -37 -90.5 -37t-92.5 37z" />
    <glyph glyph-name="longshdotbelow" unicode="&#x17f;&#x1e25;" horiz-adv-x="1449" 
d="M991 1153l-125 -469l4 -2q91 136 159.5 191t148.5 55q68 0 110.5 -47.5t42.5 -122.5q0 -85 -26 -162q-81 -239 -134 -408q-6 -24 -6 -36q0 -21 19 -21q44 0 166 152q28 -25 45 -35q-167 -268 -308 -268q-47 0 -77.5 31.5t-30.5 80.5q0 71 45 207l100 313q19 62 19 101
q0 24 -14.5 38.5t-38.5 14.5q-79 0 -160.5 -99.5t-122.5 -269.5l-94 -397q-53 -16 -90 -16q-70 0 -99 57q82 278 99 350l182 766q64 258 -92 258q-99 0 -170 -117q-74 -122 -119 -411l-125 -783q-102 -643 -397 -643q-73 0 -121.5 34.5t-48.5 88.5q0 41 25.5 67.5t64.5 26.5
q51 0 90 -57q23 -39 61 -39q26 -2 44 16.5t37.5 84.5t39.5 190l131 899h-153v96l170 13q50 226 114 352q69 135 174 214t234 79q107 0 170 -51q114 59 127 65l31 -33q-30 -88 -101 -354zM717 -362q-37 37 -37 92t37 92q37 35 92 35t90 -35q37 -37 37 -92t-37 -92
q-35 -37 -90 -37t-92 37z" />
    <glyph glyph-name="fidotbelow" unicode="f&#x1ecb;" horiz-adv-x="1013" 
d="M840 594l-82 -375q-10 -62 -10 -63q0 -29 24 -29q30 0 66 34t102 128l45 -33q-144 -276 -301 -276q-51 0 -85 32.5t-34 85.5q0 71 33 203l72 315q16 75 16 103q0 53 -108 53h-172l-107 -668q-102 -643 -397 -643q-73 0 -121.5 34.5t-48.5 88.5q0 41 25.5 67.5t64.5 26.5
q51 0 90 -57q23 -39 61 -39q26 -2 44 16.5t37.5 84.5t39.5 190l131 899h-153v96l170 13q50 226 114 352q69 135 174 214t234 79q107 0 178.5 -52t71.5 -137q0 -50 -29 -78t-80 -28q-42 0 -68.5 25t-50.5 83q-27 74 -96 74q-180 0 -266 -528l172 6q160 6 276 47l54 -23
q-73 -251 -86 -321zM512 -362q-37 37 -37 92t37 92q37 35 92 35t90 -35q37 -37 37 -92t-37 -92q-35 -37 -90 -37t-92 37z" />
    <glyph glyph-name="ffidotbelow" unicode="ff&#x1ecb;" horiz-adv-x="1503" 
d="M584 -127l131 899h-309l-107 -668q-102 -643 -397 -643q-73 0 -121.5 34.5t-48.5 88.5q0 41 25.5 67.5t64.5 26.5q51 0 90 -57q23 -39 61 -39q26 -2 44 16.5t37.5 84.5t39.5 190l131 899h-153v96l170 11q57 259 84 340q50 148 137 227.5t199 79.5q73 0 122.5 -42
t49.5 -98q0 -45 -23 -72.5t-61 -27.5q-60 0 -95 66q-20 37 -32.5 49t-36.5 12q-99 0 -123 -239q-1 -10 -39 -291l309 2q48 218 113 348q69 135 173.5 214t233.5 79q107 0 178.5 -52t71.5 -137q0 -50 -28.5 -78t-79.5 -28q-42 0 -68.5 25t-50.5 83q-27 74 -96 74
q-182 0 -267 -528l172 6q161 6 277 47l53 -23q-73 -251 -86 -321l-82 -375q-10 -62 -10 -63q0 -29 25 -29q30 0 66 34t102 128l45 -33q-144 -276 -301 -276q-51 0 -85 32.5t-34 85.5q0 75 32 203l72 315q17 80 17 103q0 53 -109 53h-172l-107 -668q-102 -643 -397 -643
q-73 0 -121.5 34.5t-48.5 88.5q0 41 25.5 67.5t64.5 26.5q51 0 90 -57q23 -39 62 -39q26 -2 44 16.5t37.5 84.5t39.5 190zM1024 -362q-37 37 -37 92t37 92q37 35 92 35t90 -35q37 -37 37 -92t-37 -92q-35 -37 -90 -37t-92 37z" />
    <glyph glyph-name="longsidotbelow" unicode="&#x17f;&#x1ecb;" horiz-adv-x="1019" 
d="M424 887l-125 -783q-102 -643 -397 -643q-73 0 -121.5 34.5t-48.5 88.5q0 41 25.5 67.5t64.5 26.5q53 0 92 -57q23 -39 59 -39q26 -2 44 16.5t37.5 84.5t39.5 190l131 899h-153v96l170 13q50 226 114 352q68 135 174.5 214t237.5 79q106 0 177 -52t71 -133q0 -50 -29 -81
t-78 -31q-83 0 -123 108q-30 76 -96 76q-183 0 -266 -526zM594 299l119 324q35 96 35 120q0 23 -21 23q-34 0 -149 -127l-41 35q175 254 292 254q47 0 75 -31.5t28 -85.5q0 -71 -51 -205l-140 -391q-20 -56 -20 -70q0 -20 20 -20q46 0 162 162l45 -33q-145 -274 -301 -274
q-47 0 -77.5 32t-30.5 80q0 55 55 207zM512 -362q-37 37 -37 92t37 92q37 35 92 35t90 -35q37 -37 37 -92t-37 -92q-35 -37 -90 -37t-92 37z" />
    <glyph glyph-name="fidblgrave" unicode="f&#x209;" horiz-adv-x="1230" 
d="M627 772h-221l-107 -668q-102 -643 -397 -643q-73 0 -121.5 34.5t-48.5 88.5q0 41 25.5 67.5t64.5 26.5q51 0 90 -57q23 -39 61 -39q26 -2 44 16.5t37.5 84.5t39.5 190l131 899h-153v96l170 13q49 227 86 338q105 307 334 307q73 0 122.5 -42t49.5 -98q0 -45 -23 -72.5
t-61 -27.5q-60 0 -95 66q-20 37 -32.5 49t-36.5 12q-99 0 -123 -239q-10 -87 -39 -287q139 4 213 8l16 -35zM805 299l119 324q34 93 34 120q0 23 -20 23q-35 0 -150 -127l-40 35q175 254 292 254q47 0 75 -31.5t28 -85.5q0 -71 -51 -205l-140 -391q-20 -56 -20 -70
q0 -20 20 -20q46 0 162 162l45 -33q-145 -274 -301 -274q-47 0 -77.5 32t-30.5 80q0 55 55 207zM1061 1407l-2 -377l-60 -10l-106 328q-16 75 -16 82q0 45 25 73.5t67 28.5t67 -33t25 -92zM1309 1407l-2 -377l-60 -10l-106 328q-17 80 -17 82q0 45 25.5 73.5t67.5 28.5
t67 -33t25 -92z" />
    <glyph glyph-name="ffidblgrave" unicode="ff&#x209;" horiz-adv-x="1720" 
d="M424 883l309 2q45 220 84 334q105 307 334 307q73 0 122.5 -42t49.5 -98q0 -45 -23 -72.5t-61 -27.5q-59 0 -94 66q-20 37 -33 49t-37 12q-99 0 -123 -239q-10 -87 -39 -287q139 4 213 8l17 -35l-27 -88h-221l-107 -668q-102 -643 -397 -643q-73 0 -121.5 34.5
t-48.5 88.5q0 41 25.5 67.5t64.5 26.5q51 0 90 -57q23 -39 62 -39q26 -2 44 16.5t37.5 84.5t39.5 190l131 899h-309l-107 -668q-102 -643 -397 -643q-73 0 -121.5 34.5t-48.5 88.5q0 41 25.5 67.5t64.5 26.5q51 0 90 -57q23 -39 61 -39q26 -2 44 16.5t37.5 84.5t39.5 190
l131 899h-153v96l170 11q57 259 84 340q50 148 137 227.5t199 79.5q73 0 122.5 -42t49.5 -98q0 -45 -23 -72.5t-61 -27.5q-60 0 -95 66q-20 37 -32.5 49t-36.5 12q-99 0 -123 -239q-1 -10 -39 -291zM1294 299l119 324q35 96 35 120q0 23 -21 23q-34 0 -149 -127l-41 35
q175 254 293 254q47 0 74.5 -31.5t27.5 -85.5q0 -71 -51 -205l-139 -391q-21 -58 -21 -70q0 -20 21 -20q46 0 162 162l45 -33q-145 -274 -301 -274q-47 0 -78 32t-31 80q0 55 55 207zM1550 1407l-2 -377l-59 -10l-107 328q-16 75 -16 82q0 45 25 73.5t67 28.5t67 -33t25 -92
zM1798 1407l-2 -377l-59 -10l-107 328q-16 75 -16 82q0 45 25 73.5t67 28.5t67 -33t25 -92z" />
    <glyph glyph-name="longsidblgrave" unicode="&#x17f;&#x209;" horiz-adv-x="1230" 
d="M414 821l-115 -717q-102 -643 -397 -643q-73 0 -121.5 34.5t-48.5 88.5q0 41 25.5 67.5t64.5 26.5q51 0 90 -57q23 -39 61 -39q26 -2 44 16.5t37.5 84.5t39.5 190l131 899h-153v96l170 13q49 227 86 338q105 307 334 307q73 0 122.5 -42t49.5 -98q0 -45 -23 -72.5
t-61 -27.5q-60 0 -95 66q-20 37 -32.5 49t-36.5 12q-99 0 -123 -239q-17 -146 -49 -353zM805 299l119 324q34 93 34 120q0 23 -20 23q-35 0 -150 -127l-40 35q175 254 292 254q47 0 75 -31.5t28 -85.5q0 -71 -51 -205l-140 -391q-20 -56 -20 -70q0 -20 20 -20q46 0 162 162
l45 -33q-145 -274 -301 -274q-47 0 -77.5 32t-30.5 80q0 55 55 207zM1061 1407l-2 -377l-60 -10l-106 328q-16 75 -16 82q0 45 25 73.5t67 28.5t67 -33t25 -92zM1309 1407l-2 -377l-60 -10l-106 328q-17 80 -17 82q0 45 25.5 73.5t67.5 28.5t67 -33t25 -92z" />
    <glyph glyph-name="fiinvbreve" unicode="f&#x20b;" horiz-adv-x="1189" 
d="M627 772h-221l-107 -668q-102 -643 -397 -643q-73 0 -121.5 34.5t-48.5 88.5q0 41 25.5 67.5t64.5 26.5q51 0 90 -57q23 -39 61 -39q26 -2 44 16.5t37.5 84.5t39.5 190l131 899h-153v96l170 13q49 227 86 338q105 307 334 307q73 0 122.5 -42t49.5 -98q0 -45 -23 -72.5
t-61 -27.5q-60 0 -95 66q-20 37 -32.5 49t-36.5 12q-99 0 -123 -239q-10 -87 -39 -287q139 4 213 8l16 -35zM764 299l119 324q35 96 35 120q0 23 -21 23q-34 0 -149 -127l-41 35q175 254 292 254q47 0 75 -31.5t28 -85.5q0 -71 -51 -205l-140 -391q-20 -56 -20 -70
q0 -20 20 -20q46 0 162 162l45 -33q-145 -274 -301 -274q-47 0 -77.5 32t-30.5 80q0 55 55 207zM1116 1509q98 0 152.5 -70t54.5 -194q0 -69 -16 -170h-68v39q0 123 -31 176t-98 53q-156 0 -258 -268l-68 12q40 207 129 314.5t203 107.5z" />
    <glyph glyph-name="ffiinvbreve" unicode="ff&#x20b;" horiz-adv-x="1679" 
d="M424 883l309 2q45 220 84 334q105 307 334 307q73 0 122.5 -42t49.5 -98q0 -45 -23 -72.5t-61 -27.5q-59 0 -94 66q-20 37 -33 49t-37 12q-99 0 -123 -239q-10 -87 -39 -287q139 4 213 8l17 -35l-27 -88h-221l-107 -668q-102 -643 -397 -643q-73 0 -121.5 34.5
t-48.5 88.5q0 41 25.5 67.5t64.5 26.5q51 0 90 -57q23 -39 62 -39q26 -2 44 16.5t37.5 84.5t39.5 190l131 899h-309l-107 -668q-102 -643 -397 -643q-73 0 -121.5 34.5t-48.5 88.5q0 41 25.5 67.5t64.5 26.5q51 0 90 -57q23 -39 61 -39q26 -2 44 16.5t37.5 84.5t39.5 190
l131 899h-153v96l170 11q57 259 84 340q50 148 137 227.5t199 79.5q73 0 122.5 -42t49.5 -98q0 -45 -23 -72.5t-61 -27.5q-60 0 -95 66q-20 37 -32.5 49t-36.5 12q-99 0 -123 -239q-1 -10 -39 -291zM1253 299l119 324q35 96 35 120q0 23 -21 23q-34 0 -149 -127l-41 35
q175 254 293 254q47 0 74.5 -31.5t27.5 -85.5q0 -71 -51 -205l-139 -391q-21 -58 -21 -70q0 -20 21 -20q46 0 162 162l45 -33q-145 -274 -301 -274q-47 0 -78 32t-31 80q0 55 55 207zM1606 1509q98 0 152 -70t54 -194q0 -69 -16 -170h-67v39q0 122 -31.5 175.5t-98.5 53.5
q-156 0 -258 -268l-67 12q40 207 129 314.5t203 107.5z" />
    <glyph glyph-name="longsiinvbreve" unicode="&#x17f;&#x20b;" horiz-adv-x="1189" 
d="M764 299l119 324q35 96 35 120q0 23 -21 23q-34 0 -149 -127l-41 35q175 254 292 254q47 0 75 -31.5t28 -85.5q0 -71 -51 -205l-140 -391q-20 -56 -20 -70q0 -20 20 -20q46 0 162 162l45 -33q-145 -274 -301 -274q-47 0 -77.5 32t-30.5 80q0 55 55 207zM1116 1509
q98 0 152.5 -70t54.5 -194q0 -69 -16 -170h-68v39q0 123 -31 176t-98 53q-156 0 -258 -268l-68 12q40 207 129 314.5t203 107.5zM414 821l-115 -717q-102 -643 -397 -643q-73 0 -121.5 34.5t-48.5 88.5q0 41 25.5 67.5t64.5 26.5q51 0 90 -57q23 -39 61 -39q26 -2 44 16.5
t37.5 84.5t39.5 190l131 899h-153v96l170 13q49 227 86 338q105 307 334 307q73 0 122.5 -42t49.5 -98q0 -45 -23 -72.5t-61 -27.5q-60 0 -95 66q-20 37 -32.5 49t-36.5 12q-99 0 -123 -239q-17 -146 -49 -353z" />
    <glyph glyph-name="fodblgrave" unicode="f&#x20d;" horiz-adv-x="1464" 
d="M627 772h-221l-107 -668q-102 -643 -397 -643q-73 0 -121.5 34.5t-48.5 88.5q0 41 25.5 67.5t64.5 26.5q51 0 90 -57q23 -39 61 -39q26 -2 44 16.5t37.5 84.5t39.5 190l131 899h-153v96l170 13q49 227 86 338q105 307 334 307q73 0 122.5 -42t49.5 -98q0 -45 -23 -72.5
t-61 -27.5q-60 0 -95 66q-20 37 -32.5 49t-36.5 12q-99 0 -123 -239q-10 -87 -39 -287q139 4 213 8l16 -35zM1208 582q0 245 -121 245q-59 0 -114 -61q-129 -144 -129 -465q0 -238 119 -238q64 0 122 70q123 150 123 449zM963 -33q-137 0 -222.5 102t-85.5 271
q0 159 63.5 297t168.5 217q95 74 203 74q126 0 217 -101q92 -103 92 -288q0 -155 -60.5 -287t-160.5 -209q-101 -76 -215 -76zM1102 1407l-2 -377l-60 -10l-106 328q-16 75 -16 82q0 45 25 73.5t67 28.5t67 -33t25 -92zM1350 1407l-2 -377l-60 -10l-106 328q-17 80 -17 82
q0 45 25 73.5t67 28.5t67.5 -33t25.5 -92z" />
    <glyph glyph-name="ffodblgrave" unicode="ff&#x20d;" horiz-adv-x="1953" 
d="M424 883l309 2q45 220 84 334q105 307 334 307q73 0 122.5 -42t49.5 -98q0 -45 -23 -72.5t-61 -27.5q-59 0 -94 66q-20 37 -33 49t-37 12q-99 0 -123 -239q-10 -87 -39 -287q139 4 213 8l17 -35l-27 -88h-221l-107 -668q-102 -643 -397 -643q-73 0 -121.5 34.5
t-48.5 88.5q0 41 25.5 67.5t64.5 26.5q51 0 90 -57q23 -39 62 -39q26 -2 44 16.5t37.5 84.5t39.5 190l131 899h-309l-107 -668q-102 -643 -397 -643q-73 0 -121.5 34.5t-48.5 88.5q0 41 25.5 67.5t64.5 26.5q51 0 90 -57q23 -39 61 -39q26 -2 44 16.5t37.5 84.5t39.5 190
l131 899h-153v96l170 11q57 259 84 340q50 148 137 227.5t199 79.5q73 0 122.5 -42t49.5 -98q0 -45 -23 -72.5t-61 -27.5q-60 0 -95 66q-20 37 -32.5 49t-36.5 12q-99 0 -123 -239q-1 -10 -39 -291zM1698 582q0 245 -121 245q-60 0 -115 -61q-129 -144 -129 -465
q0 -238 119 -238q65 0 123 70q123 150 123 449zM1452 -33q-137 0 -222 102t-85 271q0 159 63 297t168 217q95 74 203 74q126 0 217 -101q92 -103 92 -288q0 -155 -60.5 -287t-160.5 -209q-101 -76 -215 -76zM1591 1407l-2 -377l-59 -10l-107 328q-16 75 -16 82q0 45 25 73.5
t67 28.5t67 -33t25 -92zM1839 1407l-2 -377l-59 -10l-107 328q-16 75 -16 82q0 45 25 73.5t67 28.5t67 -33t25 -92z" />
    <glyph glyph-name="longsodblgrave" unicode="&#x17f;&#x20d;" horiz-adv-x="1464" 
d="M1208 582q0 245 -121 245q-59 0 -114 -61q-129 -144 -129 -465q0 -238 119 -238q64 0 122 70q123 150 123 449zM963 -33q-137 0 -222.5 102t-85.5 271q0 159 63.5 297t168.5 217q95 74 203 74q126 0 217 -101q92 -103 92 -288q0 -155 -60.5 -287t-160.5 -209
q-101 -76 -215 -76zM1102 1407l-2 -377l-60 -10l-106 328q-16 75 -16 82q0 45 25 73.5t67 28.5t67 -33t25 -92zM1350 1407l-2 -377l-60 -10l-106 328q-17 80 -17 82q0 45 25 73.5t67 28.5t67.5 -33t25.5 -92zM414 821l-115 -717q-102 -643 -397 -643q-73 0 -121.5 34.5
t-48.5 88.5q0 41 25.5 67.5t64.5 26.5q51 0 90 -57q23 -39 61 -39q26 -2 44 16.5t37.5 84.5t39.5 190l131 899h-153v96l170 13q49 227 86 338q105 307 334 307q73 0 122.5 -42t49.5 -98q0 -45 -23 -72.5t-61 -27.5q-60 0 -95 66q-20 37 -32.5 49t-36.5 12q-99 0 -123 -239
q-17 -146 -49 -353z" />
    <glyph glyph-name="frdblgrave" unicode="f&#x211;" horiz-adv-x="1349" 
d="M627 772h-221l-107 -668q-102 -643 -397 -643q-73 0 -121.5 34.5t-48.5 88.5q0 41 25.5 67.5t64.5 26.5q51 0 90 -57q23 -39 61 -39q26 -2 44 16.5t37.5 84.5t39.5 190l131 899h-153v96l170 13q49 227 86 338q105 307 334 307q73 0 122.5 -42t49.5 -98q0 -45 -23 -72.5
t-61 -27.5q-60 0 -95 66q-20 37 -32.5 49t-36.5 12q-99 0 -123 -239q-10 -87 -39 -287q139 4 213 8l16 -35zM1288 670q-49 0 -76 49q-22 36 -34 39q-4 2 -13 2q-28 0 -61 -39q-38 -40 -84.5 -159t-81.5 -286l-18 -92q-32 -166 -35 -184q-37 -16 -94 -16q-69 0 -95 51
q42 170 80 356l55 273q12 50 10.5 80t-24.5 30q-42 0 -125 -121q-13 10 -24.5 18.5t-16.5 12t-6 4.5q77 131 138.5 185.5t123.5 54.5q45 0 74 -35.5t29 -91.5q0 -52 -29 -187h4q66 169 127 241.5t129 72.5q56 0 94.5 -41.5t38.5 -102.5q0 -53 -24 -83.5t-62 -30.5z
M1106 1407l-2 -377l-60 -10l-106 328q-16 75 -16 82q0 45 25 73.5t67 28.5t67 -33t25 -92zM1354 1407l-2 -377l-60 -10l-106 328q-17 80 -17 82q0 45 25.5 73.5t67.5 28.5t67 -33t25 -92z" />
    <glyph glyph-name="ffrdblgrave" unicode="ff&#x211;" horiz-adv-x="1839" 
d="M424 883l309 2q45 220 84 334q105 307 334 307q73 0 122.5 -42t49.5 -98q0 -45 -23 -72.5t-61 -27.5q-59 0 -94 66q-20 37 -33 49t-37 12q-99 0 -123 -239q-10 -87 -39 -287q139 4 213 8l17 -35l-27 -88h-221l-107 -668q-102 -643 -397 -643q-73 0 -121.5 34.5
t-48.5 88.5q0 41 25.5 67.5t64.5 26.5q51 0 90 -57q23 -39 62 -39q26 -2 44 16.5t37.5 84.5t39.5 190l131 899h-309l-107 -668q-102 -643 -397 -643q-73 0 -121.5 34.5t-48.5 88.5q0 41 25.5 67.5t64.5 26.5q51 0 90 -57q23 -39 61 -39q26 -2 44 16.5t37.5 84.5t39.5 190
l131 899h-153v96l170 11q57 259 84 340q50 148 137 227.5t199 79.5q73 0 122.5 -42t49.5 -98q0 -45 -23 -72.5t-61 -27.5q-60 0 -95 66q-20 37 -32.5 49t-36.5 12q-99 0 -123 -239q-1 -10 -39 -291zM1778 670q-49 0 -76 49q-22 36 -35 39q-4 2 -12 2q-29 0 -62 -39
q-38 -40 -84.5 -159t-81.5 -286l-18 -92q-32 -165 -35 -184q-37 -16 -94 -16q-68 0 -94 51q42 170 80 356l55 273q12 50 10.5 80t-24.5 30q-42 0 -125 -121q-13 10 -24.5 18.5t-16.5 12t-6 4.5q77 131 138.5 185.5t123.5 54.5q45 0 73.5 -35t28.5 -92q0 -52 -29 -187h5
q66 169 127 241.5t129 72.5q56 0 94.5 -41.5t38.5 -102.5q0 -53 -24 -83.5t-62 -30.5zM1595 1407l-2 -377l-59 -10l-107 328q-16 75 -16 82q0 45 25 73.5t67 28.5t67 -33t25 -92zM1843 1407l-2 -377l-59 -10l-107 328q-16 75 -16 82q0 45 25 73.5t67 28.5t67 -33t25 -92z
" />
    <glyph glyph-name="longsrdblgrave" unicode="&#x17f;&#x211;" horiz-adv-x="1349" 
d="M1288 670q-49 0 -76 49q-22 36 -34 39q-4 2 -13 2q-28 0 -61 -39q-38 -40 -84.5 -159t-81.5 -286l-18 -92q-32 -166 -35 -184q-37 -16 -94 -16q-69 0 -95 51q42 170 80 356l55 273q12 50 10.5 80t-24.5 30q-42 0 -125 -121q-13 10 -24.5 18.5t-16.5 12t-6 4.5
q77 131 138.5 185.5t123.5 54.5q45 0 74 -35.5t29 -91.5q0 -52 -29 -187h4q66 169 127 241.5t129 72.5q56 0 94.5 -41.5t38.5 -102.5q0 -53 -24 -83.5t-62 -30.5zM1106 1407l-2 -377l-60 -10l-106 328q-16 75 -16 82q0 45 25 73.5t67 28.5t67 -33t25 -92zM1354 1407l-2 -377
l-60 -10l-106 328q-17 80 -17 82q0 45 25.5 73.5t67.5 28.5t67 -33t25 -92zM414 821l-115 -717q-102 -643 -397 -643q-73 0 -121.5 34.5t-48.5 88.5q0 41 25.5 67.5t64.5 26.5q51 0 90 -57q23 -39 61 -39q26 -2 44 16.5t37.5 84.5t39.5 190l131 899h-153v96l170 13
q49 227 86 338q105 307 334 307q73 0 122.5 -42t49.5 -98q0 -45 -23 -72.5t-61 -27.5q-60 0 -95 66q-20 37 -32.5 49t-36.5 12q-99 0 -123 -239q-17 -146 -49 -353z" />
    <glyph glyph-name="frinvbreve" unicode="f&#x213;" horiz-adv-x="1349" 
d="M627 772h-221l-107 -668q-102 -643 -397 -643q-73 0 -121.5 34.5t-48.5 88.5q0 41 25.5 67.5t64.5 26.5q51 0 90 -57q23 -39 61 -39q26 -2 44 16.5t37.5 84.5t39.5 190l131 899h-153v96l170 13q49 227 86 338q105 307 334 307q73 0 122.5 -42t49.5 -98q0 -45 -23 -72.5
t-61 -27.5q-60 0 -95 66q-20 37 -32.5 49t-36.5 12q-99 0 -123 -239q-10 -87 -39 -287q139 4 213 8l16 -35zM1288 670q-49 0 -76 49q-22 36 -34 39q-4 2 -13 2q-28 0 -61 -39q-38 -40 -84.5 -159t-81.5 -286l-18 -92q-32 -166 -35 -184q-37 -16 -94 -16q-69 0 -95 51
q42 170 80 356l55 273q12 50 10.5 80t-24.5 30q-42 0 -125 -121q-13 10 -24.5 18.5t-16.5 12t-6 4.5q77 131 138.5 185.5t123.5 54.5q45 0 74 -35.5t29 -91.5q0 -52 -29 -187h4q66 169 127 241.5t129 72.5q56 0 94.5 -41.5t38.5 -102.5q0 -53 -24 -83.5t-62 -30.5z
M1202 1509q98 0 152.5 -70t54.5 -194q0 -69 -16 -170h-68v39q0 123 -31 176t-98 53q-156 0 -258 -268l-68 12q40 207 129 314.5t203 107.5z" />
    <glyph glyph-name="ffrinvbreve" unicode="ff&#x213;" horiz-adv-x="1839" 
d="M424 883l309 2q45 220 84 334q105 307 334 307q73 0 122.5 -42t49.5 -98q0 -45 -23 -72.5t-61 -27.5q-59 0 -94 66q-20 37 -33 49t-37 12q-99 0 -123 -239q-10 -87 -39 -287q139 4 213 8l17 -35l-27 -88h-221l-107 -668q-102 -643 -397 -643q-73 0 -121.5 34.5
t-48.5 88.5q0 41 25.5 67.5t64.5 26.5q51 0 90 -57q23 -39 62 -39q26 -2 44 16.5t37.5 84.5t39.5 190l131 899h-309l-107 -668q-102 -643 -397 -643q-73 0 -121.5 34.5t-48.5 88.5q0 41 25.5 67.5t64.5 26.5q51 0 90 -57q23 -39 61 -39q26 -2 44 16.5t37.5 84.5t39.5 190
l131 899h-153v96l170 11q57 259 84 340q50 148 137 227.5t199 79.5q73 0 122.5 -42t49.5 -98q0 -45 -23 -72.5t-61 -27.5q-60 0 -95 66q-20 37 -32.5 49t-36.5 12q-99 0 -123 -239q-1 -10 -39 -291zM1778 670q-49 0 -76 49q-22 36 -35 39q-4 2 -12 2q-29 0 -62 -39
q-38 -40 -84.5 -159t-81.5 -286l-18 -92q-32 -165 -35 -184q-37 -16 -94 -16q-68 0 -94 51q42 170 80 356l55 273q12 50 10.5 80t-24.5 30q-42 0 -125 -121q-13 10 -24.5 18.5t-16.5 12t-6 4.5q77 131 138.5 185.5t123.5 54.5q45 0 73.5 -35t28.5 -92q0 -52 -29 -187h5
q66 169 127 241.5t129 72.5q56 0 94.5 -41.5t38.5 -102.5q0 -53 -24 -83.5t-62 -30.5zM1692 1509q98 0 152 -70t54 -194q0 -69 -16 -170h-67v39q0 123 -31 176t-98 53q-157 0 -259 -268l-67 12q40 207 129 314.5t203 107.5z" />
    <glyph glyph-name="longsrinvbreve" unicode="&#x17f;&#x213;" horiz-adv-x="1349" 
d="M1288 670q-49 0 -76 49q-22 36 -34 39q-4 2 -13 2q-28 0 -61 -39q-38 -40 -84.5 -159t-81.5 -286l-18 -92q-32 -166 -35 -184q-37 -16 -94 -16q-69 0 -95 51q42 170 80 356l55 273q12 50 10.5 80t-24.5 30q-42 0 -125 -121q-13 10 -24.5 18.5t-16.5 12t-6 4.5
q77 131 138.5 185.5t123.5 54.5q45 0 74 -35.5t29 -91.5q0 -52 -29 -187h4q66 169 127 241.5t129 72.5q56 0 94.5 -41.5t38.5 -102.5q0 -53 -24 -83.5t-62 -30.5zM1202 1509q98 0 152.5 -70t54.5 -194q0 -69 -16 -170h-68v39q0 123 -31 176t-98 53q-156 0 -258 -268l-68 12
q40 207 129 314.5t203 107.5zM414 821l-115 -717q-102 -643 -397 -643q-73 0 -121.5 34.5t-48.5 88.5q0 41 25.5 67.5t64.5 26.5q51 0 90 -57q23 -39 61 -39q26 -2 44 16.5t37.5 84.5t39.5 190l131 899h-153v96l170 13q49 227 86 338q105 307 334 307q73 0 122.5 -42
t49.5 -98q0 -45 -23 -72.5t-61 -27.5q-60 0 -95 66q-20 37 -32.5 49t-36.5 12q-99 0 -123 -239q-17 -146 -49 -353z" />
    </font>
</defs>
</svg>
