<?xml version="1.0" standalone="no"?>
<!DOCTYPE svg PUBLIC "-//W3C//DTD SVG 1.1//EN" "http://www.w3.org/Graphics/SVG/1.1/DTD/svg11.dtd" >
<svg xmlns="http://www.w3.org/2000/svg" xmlns:xlink="http://www.w3.org/1999/xlink" version="1.1">
<metadata>
Created by FontForge 20170731 at Mon Nov  2 20:47:42 2020
 By Aleksey,,,
Copyright (c) 2013 by Matthieu Cortat. All rights reserved.
</metadata>
<defs>
<font id="LouizeDisplay" horiz-adv-x="430" >
  <font-face 
    font-family="Louize Display"
    font-weight="400"
    font-stretch="normal"
    units-per-em="2048"
    panose-1="2 10 5 2 5 0 0 2 0 3"
    ascent="1497"
    descent="-551"
    x-height="887"
    cap-height="1440"
    bbox="-350 -565 4049 2154"
    underline-thickness="102"
    underline-position="-307"
    unicode-range="U+000B-FB06"
  />
<missing-glyph horiz-adv-x="614" 
 />
    <glyph glyph-name=".notdef" horiz-adv-x="614" 
 />
    <glyph glyph-name=".null" horiz-adv-x="0" 
 />
    <glyph glyph-name="nonmarkingreturn" horiz-adv-x="682" 
 />
    <glyph glyph-name="VT" horiz-adv-x="2207" 
d="M377 991l252 -663l260 663q94 236 94 338q0 54 -45 111h20q4 0 21.5 -0.5t52 -1.5t70.5 -2q84 -2 227 -2h649q152 0 232 6q4 -54 4 -127q0 -115 -10 -193q-47 103 -101.5 156.5t-136.5 66.5q-79 11 -141 11q-71 0 -90.5 -17.5t-24.5 -81.5q-6 -64 -6 -211v-598
q0 -49 4 -229q1 -79 24 -126t76 -93h-24q-4 0 -13.5 0.5t-27 1.5t-31.5 2q-56 6 -88 6t-90 -6q-14 -1 -31.5 -2t-27 -1.5t-13.5 -0.5h-24q87 78 96 219q6 102 6 229v598q0 146 -6 211q-5 64 -24.5 81.5t-90.5 17.5q-62 0 -141 -11q-132 -21 -207 -174q-30 -67 -72 -178
l-405 -1024l-391 1024q-75 192 -92 230q-8 14 -27 59q-13 42 -25 61q-21 51 -59 99h31q18 0 67 -3t64 -3q14 0 63.5 3t71.5 3h20q-41 -53 -41 -111q0 -80 101 -338z" />
    <glyph glyph-name="space" unicode=" " 
 />
    <glyph glyph-name="exclam" unicode="!" 
d="M344 1434l-127 -1102l-127 1102h254zM365 109l-148 -152l-151 152l151 149z" />
    <glyph glyph-name="quotedbl" unicode="&#x22;" horiz-adv-x="798" 
d="M133 1505h223l-110 -608zM442 1505h224l-111 -608z" />
    <glyph glyph-name="numbersign" unicode="#" horiz-adv-x="942" 
d="M621 555h210v-74h-227l-129 -481h-82l129 481h-246l-129 -481h-79l129 481h-197v74h213l92 334h-194v74h213l125 471h79l-125 -471h246l125 471h82l-125 -471h211v-74h-229zM631 889h-246l-92 -334h246z" />
    <glyph glyph-name="dollar" unicode="$" horiz-adv-x="913" 
d="M514 -231h-72v198h-20q-194 0 -336 68q-31 133 -31 270q0 25 6 117q31 -76 66 -148q26 -51 70 -106q46 -59 104 -84t141 -25v592q-6 2 -12 8q-106 74 -180 134q-47 39 -90 94q-72 93 -72 221q0 142 98 240q98 101 256 116v197h72v-195q170 -3 320 -84q6 -50 6 -100
q0 -132 -19 -219q-66 155 -133.5 226t-173.5 81v-561q200 -139 260 -207q96 -116 96 -258q0 -151 -95.5 -249.5t-260.5 -121.5v-204zM309 969q49 -49 133 -109v510q-94 -10 -149 -71.5t-55 -155.5q0 -100 71 -174zM631 496q-44 44 -117 102v-530q90 20 142.5 84.5
t52.5 152.5q0 113 -78 191z" />
    <glyph glyph-name="percent" unicode="%" horiz-adv-x="1443" 
d="M41 1196q0 137 94 231q95 95 234 95q140 0 235 -95q96 -96 96 -231q0 -137 -96 -233q-95 -95 -229 -95q-144 0 -240 93q-94 94 -94 235zM127 1196q0 -117 67.5 -185.5t180.5 -68.5q104 0 169.5 70t65.5 184q0 113 -66.5 182.5t-174.5 69.5q-106 0 -174 -70t-68 -182z
M1182 1565l65 -47l-1030 -1622l-65 45zM743 295q0 136 95 231t233 95q141 0 236 -95q96 -96 96 -231q0 -138 -96 -234q-94 -94 -230 -94q-144 0 -239 92q-95 95 -95 236zM829 295q0 -117 67.5 -185.5t180.5 -68.5q104 0 170 70t66 184q0 113 -66.5 182.5t-175.5 69.5
q-106 0 -174 -70t-68 -182z" />
    <glyph glyph-name="ampersand" unicode="&#x26;" horiz-adv-x="1499" 
d="M303 788q-110 -171 -110 -331q0 -156 100.5 -251t269.5 -95q198 0 342 196l-504 567q-131 149 -131 295q0 123 92 209q94 88 230 88q140 0 229 -80q90 -81 90 -192q0 -200 -237 -250q90 122 90 236q0 86 -49 138t-127 52q-72 0 -120 -49t-48 -119q0 -63 29 -119t108 -147
l436 -494l51 82q95 151 95 244q0 59 -54 119h21q23 0 66 -3t57 -3q13 0 53 3t53 3h25q-48 -73 -129 -217l-117 -203l-59 -96l73 -82q104 -119 162 -162q59 -41 131 -41q27 0 86 16q-13 -64 -60.5 -97.5t-111.5 -33.5q-80 0 -145 45q-65 47 -186 183l-33 37
q-183 -263 -459 -263q-207 0 -344 131t-137 320q0 127 70.5 227t201.5 137z" />
    <glyph glyph-name="quotesingle" unicode="'" 
d="M102 1505h224l-111 -608z" />
    <glyph glyph-name="parenleft" unicode="(" horiz-adv-x="737" 
d="M625 1536l47 -61q-467 -347 -467 -934t467 -934l-47 -62q-240 163 -374 419t-134 577t134 576.5t374 418.5z" />
    <glyph glyph-name="parenright" unicode=")" horiz-adv-x="737" 
d="M113 -455l-47 62q466 346 466 934t-466 934l47 61q240 -163 374 -418.5t134 -576.5t-134 -577t-374 -419z" />
    <glyph glyph-name="asterisk" unicode="*" horiz-adv-x="819" 
d="M483 1536l-49 -340l309 152l45 -142l-342 -53l240 -244l-119 -86l-157 301l-156 -301l-119 86l240 244l-342 53l45 142l309 -152l-51 340h147z" />
    <glyph glyph-name="plus" unicode="+" horiz-adv-x="942" 
d="M436 516v373h72v-373h373v-72h-373v-374h-72v374h-375v72h375z" />
    <glyph glyph-name="comma" unicode="," 
d="M360 195l-274 -541l68 606z" />
    <glyph glyph-name="hyphen" unicode="-" 
d="M430 424h-430v113h430v-113z" />
    <glyph glyph-name="period" unicode="." 
d="M362 109l-147 -152l-152 152l152 149z" />
    <glyph glyph-name="slash" unicode="/" horiz-adv-x="645" 
d="M537 1542l75 -24l-503 -1706l-76 24z" />
    <glyph glyph-name="zero" unicode="0" horiz-adv-x="1150" 
d="M57 483q0 220 150 367t366 147q227 0 373 -149q148 -148 148 -365q0 -216 -150 -366q-147 -150 -358 -150q-229 0 -381 146q-148 145 -148 370zM203 481q0 -176 106 -282q109 -109 275 -109q151 0 258 113q106 112 106 278q0 170 -106 279q-106 112 -269 112
q-158 0 -264 -112q-106 -109 -106 -279z" />
    <glyph glyph-name="one" unicode="1" horiz-adv-x="559" 
d="M352 551v-131q0 -120 6 -215q9 -125 113 -207h-29q-12 0 -90 4q-14 1 -31.5 2t-27 1.5t-14.5 0.5l-74 -4q-74 -4 -88 -4h-29q104 82 113 207q6 94 6 215v131q0 121 -6 215q-9 125 -113 207h29q14 0 88 -4l74 -4q5 0 14.5 0.5t27 1.5t31.5 2q78 4 90 4h29
q-104 -82 -113 -207q-6 -95 -6 -215z" />
    <glyph glyph-name="two" unicode="2" horiz-adv-x="808" 
d="M360 995q150 0 232 -98q78 -90 78 -221q0 -137 -88 -256q-84 -118 -295 -279h219q95 0 153 19t121 67q-21 -123 -86 -233q-82 6 -219 6h-235q-15 0 -108.5 -4t-117.5 -4l60 55q269 251 350 367q82 113 82 245q0 86 -50 139.5t-130 53.5q-137 0 -256 -137q0 123 83 201.5
t207 78.5z" />
    <glyph glyph-name="three" unicode="3" horiz-adv-x="747" 
d="M18 -473q508 135 508 457q0 263 -358 321l37 27q256 185 256 342q0 79 -50 128.5t-128 49.5q-129 0 -252 -117q12 117 91.5 188.5t196.5 71.5q143 0 224 -90q78 -84 78 -194q0 -171 -230 -320q129 -21 215 -127q86 -103 86 -246q0 -211 -174 -354q-171 -143 -432 -143
q-10 0 -38 3t-30 3z" />
    <glyph glyph-name="four" unicode="4" horiz-adv-x="1058" 
d="M1063 236q-15 -128 -78 -242q-83 6 -217 6q0 -105 2 -160l4 -188l6 -162l-162 -33v543h-233q-144 0 -414 -6q392 608 797 1032v-885h82q57 0 99.5 20t113.5 75zM209 141h409v570q-197 -228 -409 -570z" />
    <glyph glyph-name="five" unicode="5" horiz-adv-x="747" 
d="M90 446l92 521h295q89 0 242 10l-78 -164h-387l-39 -233q179 -40 287 -172t108 -302q0 -238 -166 -401q-165 -162 -464 -180q243 108 353.5 236.5t110.5 297.5q0 307 -354 387z" />
    <glyph glyph-name="six" unicode="6" horiz-adv-x="1024" 
d="M336 745q50 146 231 146q145 0 246 -90q133 -121 133 -352q0 -208 -123 -334q-124 -127 -295 -127q-200 0 -331 155q-129 156 -129 430q0 348 258 615q259 271 675 323q-205 -92 -374 -225q-166 -131 -275 -315q-108 -187 -108 -393q0 -237 80 -366.5t204 -129.5
q119 0 184.5 89.5t65.5 254.5q0 162 -74.5 258t-193.5 96q-96 0 -174 -35z" />
    <glyph glyph-name="seven" unicode="7" horiz-adv-x="917" 
d="M739 813h-446q-88 0 -150 -33.5t-129 -117.5q17 157 99 311q83 -6 217 -6h252q80 0 350 6q-353 -688 -674 -1479h-199q246 501 680 1319z" />
    <glyph glyph-name="eight" unicode="8" horiz-adv-x="929" 
d="M344 668q-104 -155 -104 -322q0 -119 64.5 -191.5t178.5 -72.5q103 0 163.5 66.5t60.5 168.5q0 92 -60 170q-62 81 -221 189l-68 45q-225 150 -225 362q0 145 109 248t256 103q144 0 239 -95q97 -97 97 -223q0 -219 -238 -272q84 125 84 258q0 105 -55.5 171t-145.5 66
q-88 0 -144 -62t-56 -159q0 -78 53 -147.5t180 -155.5l68 -45q159 -106 222.5 -205.5t63.5 -226.5q0 -149 -110 -250q-109 -100 -279 -100q-180 0 -293 98q-112 100 -112 258q0 106 71 201q75 96 201 123z" />
    <glyph glyph-name="nine" unicode="9" horiz-adv-x="1024" 
d="M684 231q-47 -139 -231 -139q-173 0 -277 125q-102 126 -102 318q0 206 125 331q126 129 293 129q211 0 335.5 -155.5t124.5 -429.5q0 -348 -258 -615q-259 -271 -676 -323q207 93 375 225t273 315q110 186 110 394q0 243 -77.5 369t-206.5 126q-113 0 -182.5 -94.5
t-69.5 -261.5q0 -159 75.5 -253.5t202.5 -94.5q91 0 166 34z" />
    <glyph glyph-name="colon" unicode=":" 
d="M365 109l-148 -152l-151 152l151 149zM365 772l-148 -151l-151 151l151 150z" />
    <glyph glyph-name="semicolon" unicode=";" 
d="M360 195l-274 -541l68 606zM365 772l-148 -151l-151 151l151 150z" />
    <glyph glyph-name="less" unicode="&#x3c;" horiz-adv-x="942" 
d="M881 203v-86l-846 356l846 385v-80l-674 -299z" />
    <glyph glyph-name="equal" unicode="=" horiz-adv-x="942" 
d="M61 598v72h820v-72h-820zM61 291v71h820v-71h-820z" />
    <glyph glyph-name="greater" unicode="&#x3e;" horiz-adv-x="942" 
d="M61 858l846 -385l-846 -356v86l674 276l-674 299v80z" />
    <glyph glyph-name="question" unicode="?" horiz-adv-x="655" 
d="M74 1231v213q41 14 94 14q181 0 311 -145q131 -143 131 -348q0 -153 -89 -231.5t-255 -80.5l-49 -323l-74 473q226 0 306 41q81 40 81 139q0 131 -92 205t-213 74q-78 0 -151 -31zM365 109l-148 -152l-151 152l151 149z" />
    <glyph glyph-name="at" unicode="@" horiz-adv-x="1484" 
d="M842 334v90q-74 -28 -97 -39q-141 -65 -141 -145q0 -37 22 -61.5t62 -24.5q59 0 106.5 51t47.5 129zM856 199q-70 -156 -199 -156q-81 0 -132.5 47.5t-51.5 120.5q0 109 105 176q71 48 264 107v57q0 103 -33 147q-35 47 -102 47q-99 0 -189 -75q4 84 66.5 137t144.5 53
q136 0 195 -90q47 -71 47 -190v-168q0 -110 6 -162q9 -82 102 -82q98 0 165 97.5t67 269.5q0 228 -152 389q-148 161 -389 161q-265 0 -432 -182q-164 -182 -164 -469q0 -284 170 -454q168 -168 455 -168q204 0 420 86q-59 -93 -191 -136q-128 -45 -280 -45q-289 0 -488 199
t-199 522q0 317 203 535q202 217 506 217q292 0 467 -193q178 -190 178 -462q0 -213 -102 -342q-103 -127 -254 -127q-84 0 -130 31.5t-73 101.5z" />
    <glyph glyph-name="A" unicode="A" horiz-adv-x="1206" 
d="M197 446l415 1024l398 -1024q72 -185 92 -229q69 -164 115 -219h-31q-18 0 -69 3t-66 3q-14 0 -64 -3t-72 -3h-20q41 53 41 111q0 39 -21 106q-16 52 -24 76l-17 45q-3 13 -18.5 55.5t-19.5 54.5l-17 41h-500l-14 -41q-88 -230 -88 -315q0 -69 55 -133h-22q-19 0 -64 3
t-55 3q-18 0 -63.5 -3t-55.5 -3h-22q60 91 114 219q27 61 93 229zM786 575l-208 535l-222 -535h430z" />
    <glyph glyph-name="B" unicode="B" horiz-adv-x="1093" 
d="M528 817q293 27 293 264q0 132 -78 204.5t-213 72.5q-106 0 -147.5 -25t-46.5 -84q-6 -64 -6 -211v-229q133 0 198 8zM528 723q-37 2 -198 2v-291q0 -162 6 -223q7 -78 46.5 -103.5t152.5 -25.5q172 0 263 83.5t91 242.5q0 303 -361 315zM250 1430q58 0 153 6q84 8 146 8
q199 0 314.5 -91.5t115.5 -250.5q0 -242 -258 -324q152 -25 242 -122t90 -244q0 -188 -140.5 -303t-388.5 -115q-14 0 -106 6q-79 8 -168 8q-24 0 -78 -5t-63 -5h-25q67 70 76 219q6 102 6 229v545q0 128 -6 230q-9 149 -76 219h25q9 0 63 -5t78 -5z" />
    <glyph glyph-name="C" unicode="C" horiz-adv-x="1394" 
d="M872 59q180 0 271 99q95 103 176 313q8 -52 8 -129q0 -157 -20 -260q-195 -115 -461 -115q-120 0 -235 30t-217 93t-179 151t-121.5 212t-44.5 268q0 330 232 536q232 209 563 209q244 0 452 -102q4 -70 4 -121q0 -133 -16 -227q-77 188 -170 272t-268 84
q-270 0 -438 -180q-166 -181 -166 -469q0 -299 188 -481q192 -183 442 -183z" />
    <glyph glyph-name="D" unicode="D" horiz-adv-x="1445" 
d="M608 84q285 0 441.5 164t156.5 463q0 296 -174 467q-171 174 -440 174q-153 0 -205 -19q-48 -15 -51 -78q-6 -65 -6 -211v-618q0 -162 6 -223q9 -79 59 -99t213 -20zM166 446v545q0 128 -6 230q-9 149 -76 219h25q9 0 63 -5t78 -5q60 0 174 6q101 8 184 8
q125 0 240.5 -29t215.5 -89.5t173.5 -146t115.5 -205.5t42 -261q0 -326 -213 -527q-210 -198 -559 -198q-83 0 -220 10q-133 10 -153 10q-24 0 -78 -5t-63 -5h-25q67 70 76 219q6 102 6 229z" />
    <glyph glyph-name="E" unicode="E" horiz-adv-x="1003" 
d="M608 793q137 15 201 106v-25q-5 -38 -5 -131t5 -133v-24q-61 88 -201 106q-92 10 -278 10v-276q0 -100 6 -223q1 -71 29 -95t102 -24q139 0 217 10q156 21 238 252q8 -49 8 -94q0 -123 -33 -258q-208 10 -647 10q-24 0 -78 -3t-63 -3h-25q67 70 76 219q6 102 6 229v545
q0 128 -6 230q-9 149 -76 219h25q9 0 63 -3t78 -3h377q147 0 227 6q16 -88 16 -178q0 -60 -10 -138q-89 195 -233 219q-79 11 -176 11q-71 0 -90.5 -17.5t-24.5 -81.5q-6 -65 -6 -211v-262q177 0 278 11z" />
    <glyph glyph-name="F" unicode="F" horiz-adv-x="915" 
d="M330 702v-256q0 -49 4 -229q1 -79 24 -127t76 -92h-24q-4 0 -13.5 0.5t-27 1.5t-31.5 2q-56 6 -88 6q-24 0 -78 -5t-63 -5h-25q67 70 76 219q6 102 6 229v545q0 128 -6 230q-9 149 -76 219h25q9 0 63 -3t78 -3h377q147 0 227 6q16 -88 16 -178q0 -60 -10 -138
q-89 195 -233 219q-79 11 -176 11q-71 0 -90.5 -17.5t-24.5 -81.5q-6 -65 -6 -211v-262q142 0 243 11q137 15 201 106v-25q-4 -38 -4 -131t4 -133v-24q-61 88 -201 106q-92 10 -243 10z" />
    <glyph glyph-name="G" unicode="G" horiz-adv-x="1433" 
d="M1141 244q0 96 -4 186q-9 141 -99 219h25q15 0 67 -6q70 -4 84 -4q24 0 77.5 5t62.5 5h24q-43 -44 -61 -90t-19 -125q-4 -180 -4 -196q0 -67 11 -164q-195 -107 -451 -107q-316 0 -553 180q-118 93 -185 242t-67 332q0 331 230 536q232 209 563 209q228 0 452 -82
q9 -64 9 -120q0 -117 -21 -228q-83 191 -172 262q-89 74 -266 74q-271 0 -436 -180q-166 -181 -166 -469q0 -299 188 -481q190 -181 455 -181q135 0 195.5 43t60.5 140z" />
    <glyph glyph-name="H" unicode="H" horiz-adv-x="1431" 
d="M1264 991v-545q0 -49 4 -229q3 -139 80 -219h-25q-9 0 -62 5t-77 5t-78.5 -5t-63.5 -5h-24q67 70 76 219q6 102 6 229v265h-770v-265q0 -49 4 -229q3 -139 80 -219h-25q-9 0 -62 5t-77 5t-78 -5t-63 -5h-25q67 70 76 219q6 102 6 229v545q0 128 -6 230q-9 149 -76 219h25
q9 0 63 -5t78 -5t77 5t62 5h25q-77 -80 -80 -219q-4 -180 -4 -230v-188h770v188q0 128 -6 230q-9 149 -76 219h24q9 0 63.5 -5t78.5 -5t77 5t62 5h25q-77 -80 -80 -219q-4 -180 -4 -230z" />
    <glyph glyph-name="I" unicode="I" horiz-adv-x="497" 
d="M330 991v-545q0 -49 4 -229q3 -139 80 -219h-25q-9 0 -62 5t-77 5t-78 -5t-63 -5h-25q67 70 76 219q6 102 6 229v545q0 128 -6 230q-9 149 -76 219h25q9 0 63 -5t78 -5t77 5t62 5h25q-77 -80 -80 -219q-4 -180 -4 -230z" />
    <glyph glyph-name="J" unicode="J" horiz-adv-x="747" 
d="M596 991v-362q0 -230 2 -291q-6 -178 -94 -274.5t-238 -96.5q-104 0 -172.5 54.5t-87.5 152.5q56 -60 110.5 -84t129.5 -24q111 0 157 110q29 69 29 240v575q0 128 -6 230q-9 149 -76 219h25q9 0 63 -5t78 -5t77 5t62 5h25q-77 -80 -80 -219q-4 -180 -4 -230z" />
    <glyph glyph-name="K" unicode="K" horiz-adv-x="1206" 
d="M961 1225l-228 -234l-192 -194q255 -355 499 -625q128 -142 191 -178q-41 -27 -105 -27q-124 0 -268 170q-219 255 -479 625l229 231q167 172 217 232q58 70 58 112q0 50 -47 103h28q26 0 80.5 -5t65.5 -5q12 0 59 5t68 5h30zM330 991v-545q0 -49 4 -229q3 -139 80 -219
h-25q-9 0 -62 5t-77 5t-78 -5t-63 -5h-25q67 70 76 219q6 102 6 229v545q0 128 -6 230q-9 149 -76 219h25q9 0 63 -5t78 -5t77 5t62 5h25q-77 -80 -80 -219q-4 -180 -4 -230z" />
    <glyph glyph-name="L" unicode="L" horiz-adv-x="958" 
d="M330 991v-565q0 -100 6 -223q1 -71 29 -95t102 -24q139 0 217 10q79 12 135.5 81.5t102.5 199.5q12 -49 12 -123q0 -104 -37 -258q-208 10 -647 10q-24 0 -78 -3t-63 -3h-25q67 70 76 219q6 102 6 229v545q0 128 -6 230q-9 149 -76 219h25q9 0 63 -5t78 -5t77 5t62 5h25
q-77 -80 -80 -219q-4 -180 -4 -230z" />
    <glyph glyph-name="M" unicode="M" horiz-adv-x="1771" 
d="M1450 444l-18 813l-570 -1290l-569 1245l-27 -768q-4 -126 -4 -161q0 -122 17.5 -184t70.5 -103h-24q-17 0 -63.5 5t-59.5 5t-56.5 -5t-60.5 -5h-25q72 78 84 219l7 121q4 107 4 108l24 547q2 31 2 162q0 126 -20 182q-18 58 -80 105h35q23 0 116.5 -3t147.5 -3
l514 -1145l487 1145q103 0 158 2q114 4 117 4h24q-70 -76 -79 -219q-5 -165 -5 -170v-35q7 -150 15 -572q2 -126 8 -229q4 -84 20.5 -127.5t59.5 -91.5h-27q-23 0 -74 5t-63 5t-62 -5t-73 -5h-29q54 45 66 96q14 52 14 187q0 130 -2 165z" />
    <glyph glyph-name="N" unicode="N" horiz-adv-x="1490" 
d="M170 444v547q0 149 -6 217q-15 155 -92 232h24q12 0 83 -3t112 -3l930 -1086v643q0 111 -7 230q-9 150 -75 219h16q12 0 59.5 -5t61.5 -5t61.5 5t59.5 5h16q-77 -80 -80 -219q-4 -180 -4 -230v-692q0 -225 8 -350l-1058 1237v-742q0 -49 4 -229q3 -140 79 -219h-16
q-12 0 -59.5 5t-61.5 5t-61.5 -5t-59.5 -5h-16q67 70 76 219q6 102 6 229z" />
    <glyph glyph-name="O" unicode="O" horiz-adv-x="1595" 
d="M53 717q0 324 215 536q216 213 527 213q322 0 534 -215q213 -213 213 -534t-213 -537q-213 -213 -516 -213q-335 0 -547 209q-213 210 -213 541zM764 1364q-224 0 -371 -166t-147 -455q0 -302 172 -489q174 -186 422 -186q223 0 366 174q144 176 144 450q0 294 -170 482
q-169 190 -416 190z" />
    <glyph glyph-name="P" unicode="P" horiz-adv-x="993" 
d="M506 1438q215 0 343 -105.5t128 -283.5q0 -180 -119 -287q-120 -105 -297 -105q-112 0 -190 60q50 -4 63 -4q371 0 371 336q0 151 -93.5 230t-260.5 79q-68 0 -89 -19.5t-26 -83.5q-6 -65 -6 -211v-598q0 -49 4 -229q3 -139 80 -219h-25q-9 0 -62 5t-77 5t-78 -5t-63 -5
h-25q67 70 76 219q6 102 6 229v545q0 128 -6 230q-9 149 -76 219h25q9 0 63 -5t78 -5q15 0 107.5 4t148.5 4z" />
    <glyph glyph-name="Q" unicode="Q" horiz-adv-x="1595" 
d="M53 717q0 324 215 536q216 213 527 213q322 0 534 -215q213 -213 213 -534q0 -264 -151 -465q-149 -195 -387 -260q529 -443 1146 -443q333 0 603 117q-246 -231 -687 -231q-335 0 -673 131q-350 136 -629 403q-314 15 -514 221q-197 206 -197 527zM764 1364
q-224 0 -371 -166t-147 -455q0 -302 172 -489q174 -186 422 -186q223 0 366 174q144 176 144 450q0 294 -170 482q-169 190 -416 190z" />
    <glyph glyph-name="R" unicode="R" horiz-adv-x="1202" 
d="M451 1358q-68 0 -89 -19.5t-26 -83.5q-6 -65 -6 -211v-286q10 -2 94 -2q164 0 251 78t87 219q0 144 -80 224.5t-231 80.5zM250 1430q19 0 105.5 4t133.5 4q209 0 328 -107q119 -104 119 -258q0 -252 -231 -354q187 -345 346 -545q104 -124 188 -178q-37 -29 -104 -29
q-138 0 -258 170q-162 219 -314 545q-36 -8 -112 -8q-90 0 -121 8v-236q0 -49 4 -229q3 -139 80 -219h-25q-9 0 -62 5t-77 5t-78 -5t-63 -5h-25q67 70 76 219q6 102 6 229v545q0 128 -6 230q-9 149 -76 219h25q9 0 63 -5t78 -5z" />
    <glyph glyph-name="S" unicode="S" horiz-adv-x="913" 
d="M434 59q121 0 197 69.5t76 176.5q0 113 -78 191q-73 73 -201 163q-106 74 -180 134q-47 39 -90 94q-72 93 -72 221q0 153 115 256q117 102 295 102q176 0 335 -84q7 -58 7 -100q0 -132 -19 -219q-69 166 -143 237.5t-197 71.5q-109 0 -176 -62.5t-67 -166.5
q0 -100 71 -174q50 -50 197 -154q128 -89 178 -129q50 -38 90 -84q96 -116 96 -258q0 -171 -122.5 -274t-325.5 -103q-194 0 -336 68q-31 133 -31 270q0 25 6 117l52 -119q14 -31 53 -94q47 -76 107.5 -109t162.5 -41z" />
    <glyph glyph-name="T" unicode="T" horiz-adv-x="1171" 
d="M668 1044v-598q0 -49 4 -229q1 -79 24 -126t76 -93h-24q-4 0 -13.5 0.5t-27 1.5t-31.5 2q-56 6 -88 6t-90 -6q-14 -1 -31.5 -2t-27 -1.5t-13.5 -0.5h-25q88 79 97 219q6 102 6 229v598q0 146 -6 211q-5 64 -24.5 81.5t-90.5 17.5q-62 0 -141 -11q-82 -13 -136.5 -66.5
t-101.5 -156.5q-10 78 -10 193q0 73 4 127q79 -6 231 -6h713q152 0 232 6q4 -54 4 -127q0 -107 -11 -193q-47 103 -101 156.5t-136 66.5q-79 11 -142 11q-71 0 -90 -17.5t-24 -81.5q-6 -64 -6 -211z" />
    <glyph glyph-name="U" unicode="U" horiz-adv-x="1320" 
d="M1190 991v-471q0 -240 -148 -397q-147 -156 -385 -156q-246 0 -384 137.5t-138 384.5v502q0 128 -6 230q-9 149 -76 219h25q9 0 63 -5t78 -5t77 5t62 5h25q-77 -80 -80 -219q-4 -180 -4 -230v-497q0 -196 98.5 -305t272.5 -109q191 0 301 123t110 344v444q0 128 -6 230
q-9 149 -76 219h17q12 0 59.5 -5t61.5 -5t61 5t59 5h17q-77 -80 -80 -219q-4 -180 -4 -230z" />
    <glyph glyph-name="V" unicode="V" horiz-adv-x="1185" 
d="M367 991l251 -663l261 663q90 235 90 316q0 68 -56 133h23q19 0 64 -3t55 -3q16 0 61.5 3t57.5 3h22q-63 -95 -115 -219q-17 -38 -92 -230l-405 -1024l-391 1024q-69 176 -93 230q-5 9 -26 59q-13 42 -25 61q-21 51 -59 99h30q18 0 67.5 -3t64.5 -3q14 0 63.5 3t71.5 3
h20q-41 -53 -41 -111q0 -80 101 -338z" />
    <glyph glyph-name="W" unicode="W" horiz-adv-x="1959" 
d="M1686 1440h28q21 0 65.5 -3t55.5 -3q17 0 59.5 3t55.5 3h20q-55 -64 -117 -215q-47 -126 -47 -127q-25 -79 -37 -107l-391 -1024l-401 1080l-410 -1080l-379 1024l-86 230q-53 128 -112 219h30q18 0 67.5 -3t64.5 -3q14 0 63.5 3t71.5 3h20q-43 -58 -43 -119
q0 -60 98 -330l236 -663l250 663q55 143 55 260q0 93 -96 189h37q21 0 70 -3t61 -3q14 0 63.5 3t71.5 3h20q-47 -59 -47 -129q0 -78 88 -320l240 -661l250 661q84 225 84 326q0 70 -59 123z" />
    <glyph glyph-name="X" unicode="X" horiz-adv-x="1212" 
d="M356 1331q0 -40 40 -110.5t149 -229.5l96 -143l96 145q13 21 47.5 72t42.5 65l60 89q39 68 39 114q0 54 -47 107h24q26 0 72 -3t57 -3q13 0 59.5 3t63.5 3h29q-7 -8 -164 -217l-168 -232l-156 -225l215 -320l80 -122q65 -98 72 -107l151 -219h-32q-22 0 -72.5 3t-62.5 3
q-10 0 -66 -3t-80 -3h-35q47 59 47 106q0 43 -32 97q-32 63 -133 211l-156 229l-137 -195q-183 -263 -183 -331q0 -52 47 -117h-26q-23 0 -68 3t-59 3q-13 0 -67.5 -3t-71.5 -3h-29l162 217q15 23 92 121q59 75 82 110l203 277l-181 268q-6 8 -15.5 23.5t-25.5 42t-30 47.5
l-74 117q-69 110 -154 219h31q22 0 73.5 -3t63.5 -3q11 0 70 3t86 3h22q-47 -59 -47 -109z" />
    <glyph glyph-name="Y" unicode="Y" horiz-adv-x="1067" 
d="M803 989l-182 -309v-234q0 -49 4 -229q3 -139 80 -219h-25q-9 0 -62 5t-77 5t-78.5 -5t-63.5 -5h-24q67 70 76 219q6 102 6 229v232l-193 313l-139 230q-75 114 -148 219h29q19 0 74.5 -4t66.5 -4q6 0 72 4t74 4h22q-49 -49 -49 -97q0 -35 31 -102q37 -68 147 -250
l129 -209l121 209q158 273 158 346q0 48 -49 103h24q13 0 58 -4t61 -4q19 0 66 4t53 4h22l-141 -217q-66 -103 -143 -234z" />
    <glyph glyph-name="Z" unicode="Z" horiz-adv-x="1173" 
d="M530 82h175q128 0 210 12q89 12 138 82q47 64 104 203q8 -55 8 -107q0 -148 -37 -278q-80 6 -294 6h-519q-217 0 -309 -6l897 1352q-125 8 -260 8h-154q-97 0 -176 -11q-83 -12 -137 -75q-41 -47 -106 -174q-7 65 -7 116q0 112 23 230q79 -6 227 -6h525q220 0 311 6
l-885 -1348q143 -10 266 -10z" />
    <glyph glyph-name="bracketleft" unicode="[" horiz-adv-x="737" 
d="M625 -379v-78h-394v1991h394v-78h-312v-1835h312z" />
    <glyph glyph-name="backslash" unicode="\" horiz-adv-x="645" 
d="M612 -164l-75 -24l-504 1706l76 24z" />
    <glyph glyph-name="bracketright" unicode="]" horiz-adv-x="737" 
d="M506 1534v-1991h-393v78h311v1835h-311v78h393z" />
    <glyph glyph-name="asciicircum" unicode="^" horiz-adv-x="942" 
d="M186 639h-86l359 846l383 -846h-80l-301 674z" />
    <glyph glyph-name="underscore" unicode="_" horiz-adv-x="1024" 
d="M1024 -199h-1024v72h1024v-72z" />
    <glyph glyph-name="grave" unicode="`" 
d="M90 1479l172 57l78 -506z" />
    <glyph glyph-name="a" unicode="a" horiz-adv-x="741" 
d="M78 711q18 94 90.5 156.5t169.5 62.5q144 0 217 -107q61 -91 61 -221v-196q0 -80 5 -187q6 -96 25 -143.5t65 -79.5q-27 -6 -49 -6q-75 0 -122 43t-61 114q-83 -176 -237 -176q-96 0 -154.5 54.5t-58.5 140.5q0 122 129 205q112 72 315 125v100q0 92 -43 147
q-43 58 -129 58q-107 0 -223 -90zM473 311v113q-29 -8 -119 -47q-180 -76 -180 -176q0 -46 26.5 -75.5t75.5 -29.5q73 0 134 58q63 57 63 157z" />
    <glyph glyph-name="b" unicode="b" horiz-adv-x="985" 
d="M496 61q134 0 212 102t78 271q0 167 -70.5 266t-189.5 99q-115 0 -178 -69t-63 -187v-262q0 -220 211 -220zM141 49v995q0 128 -6 193q-5 66 -20.5 97.5t-59.5 62.5q124 53 240 127q-3 -97 -5.5 -191t-3.5 -134t-1 -46v-418q43 92 118.5 145.5t167.5 53.5q159 0 263 -125
q106 -124 106 -320q0 -227 -135 -374q-133 -148 -324 -148q-221 0 -340 82z" />
    <glyph glyph-name="c" unicode="c" horiz-adv-x="831" 
d="M457 842q-122 0 -194.5 -101t-72.5 -274q0 -163 82.5 -258.5t210.5 -95.5q168 0 318 196q-12 -150 -106.5 -246t-239.5 -96q-191 0 -308 135q-114 138 -114 332q0 214 131 357t325 143q159 0 283 -80q6 -38 6 -80q0 -129 -43 -227q-99 295 -278 295z" />
    <glyph glyph-name="d" unicode="d" horiz-adv-x="1007" 
d="M455 842q-110 0 -185 -95.5t-75 -257.5q0 -180 80.5 -285.5t207.5 -105.5q102 0 162 65.5t60 176.5v213q0 141 -70.5 215t-179.5 74zM705 866v178q0 118 -7 193q-5 66 -20.5 97.5t-59.5 62.5q124 53 240 127q-3 -97 -5.5 -191t-3.5 -134t-1 -46v-715q0 -120 6 -184
q9 -113 80 -160q-127 -58 -217 -117l-6 179q-43 -81 -119 -135t-150 -54q-162 0 -280 127q-117 126 -117 344t127 357t299 139q142 0 234 -68z" />
    <glyph glyph-name="e" unicode="e" horiz-adv-x="874" 
d="M33 434q0 213 129 357q128 143 319 143q148 0 246 -98q100 -93 100 -244q0 -27 -4 -47h-630q-5 -40 -5 -78q0 -160 84 -257t220 -97q94 0 168.5 44t148.5 146q-12 -147 -107 -242q-94 -94 -237 -94q-192 0 -311 137q-121 139 -121 330zM207 627h440q-1 98 -60 156.5
t-151 58.5q-88 0 -149 -59t-80 -156z" />
    <glyph glyph-name="f" unicode="f" horiz-adv-x="489" 
d="M489 1425q-194 0 -194 -385v-153q102 2 235 8l-43 -111h-192v-401q1 -193 8 -234q10 -61 53 -115q12 -15 31 -36h-22q-21 0 -76 4t-66 4q-12 0 -57 -4t-66 -4h-20q56 65 65 195q7 75 7 198v303q0 63 -17.5 96t-60.5 50l12 16q26 34 39 70q14 39 22 96l19 92
q94 418 387 418q111 0 197 -45q6 -37 6 -80q0 -106 -45 -195q-38 111 -92 162t-130 51z" />
    <glyph glyph-name="g" unicode="g" horiz-adv-x="854" 
d="M913 895l-55 -125l-176 35q84 -84 84 -221q0 -147 -96 -248q-96 -96 -232 -96q-129 0 -219 75q-78 -60 -78 -143q0 -96 140 -102l247 -9q140 -4 217.5 -79t77.5 -199q0 -143 -131 -244q-129 -102 -336 -102q-165 0 -256.5 65.5t-91.5 175.5q0 138 164 252
q-147 52 -147 195q0 134 141 242q-70 94 -70 217q0 141 99 243q98 101 235 101q60 0 133 -21q73 -20 133 -20q133 0 217 8zM711 -252q0 158 -219 158q-168 0 -250 6q-101 -94 -101 -199q0 -74 64 -118t184 -44q157 0 239.5 55.5t82.5 141.5zM426 846q-80 0 -126 -64
t-46 -186q0 -133 48 -203.5t136 -70.5q172 0 172 251q0 127 -49.5 200t-134.5 73z" />
    <glyph glyph-name="h" unicode="h" horiz-adv-x="995" 
d="M301 1153l-4 -414q103 195 278 195q157 0 234 -127q43 -76 43 -180v-236q0 -112 4 -198q9 -127 68 -195h-23q-21 0 -65.5 4t-55.5 4q-12 0 -57 -4t-66 -4h-20q56 65 65 195q7 75 7 198v217q0 87 -49 140t-130 53q-103 0 -166 -63.5t-63 -164.5v-182q0 -112 4 -198
q9 -127 68 -195h-23q-21 0 -65.5 4t-55.5 4q-12 0 -57 -4t-66 -4h-20q57 66 66 195q6 65 6 198v653q0 128 -6 193q-5 66 -20.5 97.5t-59.5 62.5q121 52 239 127q-10 -195 -10 -371z" />
    <glyph glyph-name="i" unicode="i" horiz-adv-x="454" 
d="M305 551v-160q0 -112 4 -198q9 -127 68 -195h-23q-21 0 -65.5 4t-55.5 4q-12 0 -56.5 -4t-65.5 -4h-21q57 66 66 195q6 65 6 198v51q0 128 -6 193q-5 66 -20.5 97.5t-59.5 62.5q121 52 239 127q-3 -97 -5.5 -191t-3.5 -134t-1 -46zM377 1389l-144 -144l-143 144l143 143z
" />
    <glyph glyph-name="j" unicode="j" horiz-adv-x="425" 
d="M293 551v-518q0 -162 2 -205q-12 -121 -85 -221.5t-187 -147.5q72 124 100 226q27 99 27 252v505q0 118 -7 193q-5 66 -20.5 97.5t-59.5 62.5q124 53 240 127q-3 -97 -5.5 -191t-3.5 -134t-1 -46zM365 1389l-144 -144l-143 144l143 143z" />
    <glyph glyph-name="k" unicode="k" horiz-adv-x="856" 
d="M397 381l-69 115l61 57q113 104 156 160q41 51 41 90.5t-43 83.5h16q19 0 68.5 -5t60.5 -5q20 0 70 5t69 5h19l-199 -191q-23 -20 -176 -180q137 -214 246 -350q70 -91 170 -168q-53 -16 -76 -16q-63 0 -112.5 25t-104.5 91q-24 29 -50 64t-49.5 69t-29.5 41zM301 1153
v-762q0 -112 4 -198q9 -127 68 -195h-23q-21 0 -65.5 4t-55.5 4q-12 0 -57 -4t-66 -4h-20q57 66 66 195q6 65 6 198v653q0 128 -6 193q-5 66 -20.5 97.5t-59.5 62.5q121 52 239 127q-3 -97 -5.5 -191t-3.5 -134t-1 -46z" />
    <glyph glyph-name="l" unicode="l" horiz-adv-x="450" 
d="M301 1153v-762q0 -112 4 -198q9 -127 68 -195h-23q-21 0 -65.5 4t-55.5 4q-12 0 -57 -4t-66 -4h-20q57 66 66 195q6 65 6 198v653q0 128 -6 193q-5 66 -20.5 97.5t-59.5 62.5q121 52 239 127q-3 -97 -5.5 -191t-3.5 -134t-1 -46z" />
    <glyph glyph-name="m" unicode="m" horiz-adv-x="1427" 
d="M162 391v51q0 128 -6 193q-5 66 -20.5 97.5t-59.5 62.5q121 52 239 127q-14 -106 -14 -164q102 176 250 176q135 0 205 -117q20 -33 26 -69q101 186 258 186q134 0 205 -117q39 -62 39 -166v-260q0 -112 4 -198q9 -127 68 -195h-23q-21 0 -65.5 4t-55.5 4q-12 0 -56.5 -4
t-65.5 -4h-21q57 66 66 195q6 65 6 198v236q0 78 -41.5 127t-110.5 49q-90 0 -142 -57.5t-52 -151.5v-203q0 -112 4 -198q9 -128 67 -195h-22q-21 0 -65.5 4t-55.5 4q-12 0 -57 -4t-66 -4h-20q56 65 65 195q6 65 6 198v236q0 79 -41 127.5t-110 48.5q-90 0 -142.5 -58
t-52.5 -151v-203q0 -112 4 -198q9 -127 68 -195h-23q-21 0 -65.5 4t-55.5 4q-12 0 -56.5 -4t-65.5 -4h-21q57 66 66 195q6 65 6 198z" />
    <glyph glyph-name="n" unicode="n" horiz-adv-x="999" 
d="M856 627v-236q0 -112 4 -198q9 -127 68 -195h-23q-21 0 -65.5 4t-55.5 4q-12 0 -56.5 -4t-65.5 -4h-21q57 66 66 195q6 65 6 198v217q0 87 -48.5 140t-129.5 53q-103 0 -166.5 -63.5t-63.5 -164.5v-182q0 -112 4 -198q9 -127 68 -195h-23q-21 0 -65.5 4t-55.5 4
q-12 0 -56.5 -4t-65.5 -4h-21q57 66 66 195q6 65 6 198v51q0 128 -6 193q-5 66 -20.5 97.5t-59.5 62.5q121 52 239 127q-12 -99 -12 -181q102 193 277 193q156 0 233 -127q43 -76 43 -180z" />
    <glyph glyph-name="o" unicode="o" horiz-adv-x="983" 
d="M33 451q0 198 133 340q131 143 321 143q196 0 326 -139q131 -137 131 -344q0 -202 -131 -342q-130 -142 -315 -142q-201 0 -334 139q-131 137 -131 345zM481 840q-126 0 -203 -98.5t-77 -272.5q0 -187 82.5 -295t220.5 -108q123 0 197.5 99t74.5 273q0 178 -84 291
q-82 111 -211 111z" />
    <glyph glyph-name="p" unicode="p" horiz-adv-x="997" 
d="M543 57q120 0 190 87.5t70 250.5q0 187 -78.5 295.5t-202.5 108.5q-107 0 -169 -62.5t-62 -163.5v-241q0 -129 68 -202t184 -73zM147 -147v589q0 128 -6 193q-5 66 -20.5 97.5t-59.5 62.5q124 53 240 127q-12 -99 -12 -177q44 84 119.5 136.5t158.5 52.5q158 0 271 -131
q114 -132 114 -344q0 -217 -123 -355q-122 -137 -292 -137q-157 0 -246 74q0 -69 1 -162.5t2 -158.5l1 -66q1 -67 19.5 -107t68.5 -88h-23q-21 0 -75.5 4.5t-65.5 4.5q-12 0 -57 -4.5t-66 -4.5h-20q56 65 65 195q6 64 6 199z" />
    <glyph glyph-name="q" unicode="q" horiz-adv-x="960" 
d="M483 836q-129 0 -209.5 -106t-80.5 -279q0 -166 70 -259.5t190 -93.5q117 0 179 75.5t62 213.5v166q0 134 -57.5 208.5t-153.5 74.5zM690 -346l1 66q1 65 2 158.5t1 162.5v119q-42 -88 -115 -140.5t-159 -52.5q-162 0 -273 123q-108 126 -108 313q0 235 131 381
q132 150 322 150q136 0 237 -64q57 31 111 72q-2 -104 -2 -483v-606q0 -135 6 -199q9 -130 65 -195h-20q-21 0 -66 4.5t-57 4.5q-11 0 -65.5 -4.5t-75.5 -4.5h-23q88 70 88 195z" />
    <glyph glyph-name="r" unicode="r" horiz-adv-x="628" 
d="M481 797q-79 0 -127.5 -83t-48.5 -227v-96q0 -112 4 -198q9 -122 88 -195h-22q-21 0 -76 4t-66 4q-12 0 -56.5 -4t-65.5 -4h-21q57 66 66 195q6 65 6 198v51q0 128 -6 193q-5 66 -20.5 97.5t-59.5 62.5q121 52 239 127q-12 -99 -12 -207q43 106 108.5 162.5t139.5 56.5
q53 0 96 -19q10 -38 10 -81q0 -90 -24 -148q-59 111 -152 111z" />
    <glyph glyph-name="s" unicode="s" horiz-adv-x="604" 
d="M299 53q69 0 108 34.5t39 102.5q0 63 -40 108.5t-140 96.5q-225 114 -225 279q0 107 78 182q79 76 190 76q113 0 219 -53q4 -54 4 -68q0 -108 -34 -186q-95 221 -219 221q-51 0 -85 -33t-34 -84q0 -61 43 -109.5t149 -101.5q119 -57 171 -124t52 -165q0 -116 -80 -189
t-204 -73q-143 0 -256 64q-4 32 -4 69q0 97 41 193q49 -132 98 -186t129 -54z" />
    <glyph glyph-name="t" unicode="t" horiz-adv-x="477" 
d="M436 784h-192v-481q0 -135 32 -178q26 -33 86 -33q53 0 119 60v-13q0 -75 -46.5 -121.5t-119.5 -46.5q-97 0 -157 72q-56 68 -56 236v415q0 63 -17 96t-60 50q134 128 239 247l-18 -200q98 2 233 8z" />
    <glyph glyph-name="u" unicode="u" horiz-adv-x="980" 
d="M135 274v224q0 128 -6 192q-9 103 -72 195q108 2 236 10q-14 -304 -14 -369v-233q0 -95 42.5 -144t118.5 -49q108 0 173 70.5t65 183.5v144q0 128 -6 192q-9 103 -72 195q108 2 236 10q-15 -325 -15 -369v-67q0 -141 6 -205q9 -111 82 -160q-127 -58 -217 -117l-4 195
q-39 -92 -114.5 -148.5t-165.5 -56.5q-158 0 -232 121q-41 68 -41 186z" />
    <glyph glyph-name="v" unicode="v" horiz-adv-x="786" 
d="M299 518l115 -287l129 289q71 157 71 244q0 61 -45 123h21q6 0 45.5 -4t56.5 -4q10 0 47 4t43 4h25l-86 -191l-41 -94l-45 -100l-260 -559l-232 571l-84 207q-17 37 -35.5 77.5t-28 60.5t-13.5 28h30q14 0 55.5 -4t53.5 -4q13 0 57.5 4t61.5 4h20q-41 -59 -41 -99
q0 -69 80 -270z" />
    <glyph glyph-name="w" unicode="w" horiz-adv-x="1296" 
d="M825 518l109 -285l119 283q67 158 67 248q0 61 -45 123h21q6 0 48.5 -4t59.5 -4q10 0 48 4t44 4h25l-90 -193l-47 -104l-33 -78l-254 -569l-250 632l-280 -632l-226 571q-76 197 -82 207q-48 106 -82 166h31q14 0 55.5 -4t53.5 -4q13 0 57.5 4t61.5 4h20q-41 -59 -41 -99
q0 -62 78 -268l110 -287l121 283q64 149 64 227q0 74 -64 144h33q7 0 46.5 -4t49.5 -4q2 0 56 4t55 4h27q-43 -52 -43 -101q0 -58 77 -268z" />
    <glyph glyph-name="x" unicode="x" horiz-adv-x="792" 
d="M287 795q0 -48 137 -252q139 195 139 248q0 41 -22 96h18q18 0 54 -2t46 -2q7 0 41.5 2t51.5 2h22q-21 -37 -110 -162l-187 -258l205 -311l49 -80l51 -78h-20q-70 6 -113 6q-11 0 -61 -3t-68 -3h-18q28 54 28 88q0 63 -102 213l-51 76l-29 -37q-143 -183 -143 -256
q0 -30 22 -82h-14q-19 0 -52.5 2t-35.5 2q-13 0 -59.5 -2t-63.5 -2h-18q94 130 120 164l220 289l-174 270l-109 164h20q19 0 64.5 -2t56.5 -2t56.5 2t62.5 2h18q-32 -49 -32 -92z" />
    <glyph glyph-name="y" unicode="y" horiz-adv-x="811" 
d="M-53 -528q-10 52 -10 96q0 70 12 110q63 -75 135 -75q44 0 72 23.5t57 86.5l139 307l-198 494l-84 207q-49 109 -80 166h28q14 0 57.5 -4t55.5 -4q13 0 57.5 4t61.5 4h20q-41 -59 -41 -99q0 -70 78 -270l127 -319l135 317q72 173 72 248q0 61 -45 123h20q6 0 46 -4t57 -4
q9 0 46 4t44 4h22l-83 -191l-43 -96l-35 -86l-353 -799q-64 -140 -116 -198q-62 -62 -158 -62q-54 0 -96 17z" />
    <glyph glyph-name="z" unicode="z" horiz-adv-x="745" 
d="M319 881h197q112 0 217 6q-99 -140 -182 -269l-342 -530h135q78 0 156 10q57 9 104 62q42 48 92 157q9 -53 9 -102q0 -88 -25 -225q-72 3 -134.5 5.5t-89.5 3.5t-28 1h-195q-27 0 -245 -4q33 45 180 276l332 521h-109q-91 0 -147 -9q-101 -15 -183 -170q-4 40 -4 86
q0 101 19 191q153 -10 243 -10z" />
    <glyph glyph-name="braceleft" unicode="{" horiz-adv-x="737" 
d="M279 541q118 -55 118 -232q0 -92 -18 -248q-19 -165 -19 -229q0 -95 66 -150t192 -59v-78q-165 0 -255.5 74.5t-90.5 220.5q0 73 19 238q18 156 18 225q0 102 -47 151t-160 56v61q113 7 160 56t47 151q0 70 -18 226q-19 165 -19 237q0 146 90.5 220.5t255.5 74.5v-78
q-126 -4 -192 -59t-66 -150q0 -66 19 -231q18 -156 18 -246q0 -176 -118 -231z" />
    <glyph glyph-name="bar" unicode="|" 
d="M176 -535v2075h74v-2075h-74z" />
    <glyph glyph-name="braceright" unicode="}" horiz-adv-x="737" 
d="M459 541q-119 55 -119 231q0 90 18 246q19 165 19 231q0 95 -66 150t-192 59v78q165 0 255.5 -74.5t90.5 -220.5q0 -72 -19 -237q-18 -156 -18 -226q0 -102 47 -151t160 -56v-61q-113 -7 -160 -56t-47 -151q0 -69 18 -225q19 -165 19 -238q0 -146 -90.5 -220.5
t-255.5 -74.5v78q126 4 192 59t66 150q0 64 -19 229q-18 156 -18 248q0 177 119 232z" />
    <glyph glyph-name="asciitilde" unicode="~" horiz-adv-x="942" 
d="M457 444q-119 58 -172 58q-55 0 -95 -30.5t-79 -100.5l-56 32q82 175 230 175q71 0 198 -62q128 -61 174 -61q101 0 172 133l60 -31q-83 -176 -232 -176q-74 0 -200 63z" />
    <glyph glyph-name="uni00A0" unicode="&#xa0;" 
 />
    <glyph glyph-name="exclamdown" unicode="&#xa1;" 
d="M344 8h-254l127 1102zM217 1184l-151 149l151 152l148 -152z" />
    <glyph glyph-name="cent" unicode="&#xa2;" horiz-adv-x="831" 
d="M201 -356l-68 22l117 352q-102 57 -159.5 168.5t-57.5 247.5q0 214 131 357t325 143q6 0 68 -4l115 342l67 -23l-110 -329q59 -14 143 -66q6 -38 6 -80q0 -129 -43 -227q-61 181 -149 248l-221 -658q55 -24 118 -24q168 0 318 196q-12 -150 -106.5 -246t-239.5 -96
q-66 0 -140 23zM457 842q-122 0 -194.5 -101t-72.5 -274q0 -193 113 -291l219 653q-33 13 -65 13z" />
    <glyph glyph-name="sterling" unicode="&#xa3;" horiz-adv-x="1107" 
d="M573 1370q-98 0 -158.5 -74.5t-60.5 -197.5q0 -105 92 -318h398v-71h-369q45 -119 45 -224q0 -104 -40.5 -171t-145.5 -134q70 27 125 27q69 0 198 -57q133 -56 199 -56q47 0 73.5 24t26.5 58q0 72 -114 152q46 88 119 139q118 -75 118 -209q0 -101 -59 -178
q-38 -53 -101.5 -85t-130.5 -32q-92 0 -229 64q-139 65 -203 65q-63 0 -133 -33l-45 -20q-12 -4 -56 -27t-56 -28q-52 46 -52 120q0 25 2 31q167 25 261 106t94 183q0 130 -76 285h-209v71h182q-63 166 -63 273q0 170 114 290q117 123 293 123q179 0 308 -69q12 -47 12 -103
q0 -128 -60 -254q-57 179 -125.5 254.5t-173.5 75.5z" />
    <glyph glyph-name="yen" unicode="&#xa5;" horiz-adv-x="1067" 
d="M457 659h-334v72h301l-160 260l-139 230q-75 114 -148 219h29q19 0 74.5 -4t66.5 -4q6 0 72 4t74 4h22q-49 -49 -49 -97q0 -35 31 -102q37 -68 147 -250l129 -209l121 209q158 273 158 346q0 48 -49 103h24q13 0 58 -4t61 -4q19 0 66 4t53 4h22l-141 -217
q-66 -103 -143 -234l-154 -258h293v-72h-321v-174h321v-71h-321q0 -45 4 -197q3 -139 80 -219h-25q-9 0 -62 5t-77 5t-78.5 -5t-63.5 -5h-24q67 70 76 219q6 85 6 197h-334v71h334v174z" />
    <glyph glyph-name="brokenbar" unicode="&#xa6;" 
d="M178 815v725h74v-725h-74zM252 188v-723h-74v723h74z" />
    <glyph glyph-name="section" unicode="&#xa7;" horiz-adv-x="942" 
d="M72 539q0 76 46 151t120 123q-39 31 -66 72q-76 94 -76 225q0 151 115 254q117 102 289 102q175 0 334 -84q2 -18 2 -88q0 -134 -19 -245q-63 153 -127 229q-79 94 -209 94q-60 3 -112 -22.5t-82.5 -70.5t-42 -98.5t7.5 -111.5t67 -104q39 -42 195 -146
q185 -126 266 -215q99 -108 99 -248q0 -171 -148 -274l23 -23q98 -107 98 -260q0 -162 -117 -264q-115 -100 -309 -100q-192 0 -332 67q-26 110 -26 281q0 88 2 111q70 -143 118 -216q51 -81 108 -116t146 -35q119 0 189.5 63t70.5 172q0 115 -84 199q-39 39 -73 62l-33 22
q-65 47 -98 66q-114 75 -187 131q-52 40 -86 86q-69 90 -69 211zM403 319l84 -55q136 -91 187 -129q67 73 67 182q0 107 -90 191q-81 75 -211 160l-135 92q-94 -70 -94 -187q0 -79 70 -155q42 -42 69 -62z" />
    <glyph glyph-name="dieresis" unicode="&#xa8;" 
d="M197 1333l-127 -127l-127 127l127 127zM485 1333l-127 -127l-127 127l127 127z" />
    <glyph glyph-name="copyright" unicode="&#xa9;" horiz-adv-x="1642" 
d="M870 334q69 0 109 22t78 82t90 174q8 -55 8 -94q0 -104 -25 -184q-125 -70 -276 -70q-194 0 -336 121q-141 120 -141 334q0 200 137 325t340 125q157 0 279 -61q6 -35 6 -86q0 -80 -17 -160q-61 129 -96 166q-61 70 -172 70q-153 0 -252 -105q-98 -104 -98 -272
q0 -173 108 -281q109 -106 258 -106zM66 719q0 321 217 532q218 215 534 215q328 0 543 -215q217 -214 217 -532t-217 -535q-214 -217 -524 -217q-336 0 -555 213q-215 212 -215 539zM184 719q0 -284 183 -467q180 -180 471 -180q260 0 440 186q182 188 182 461
q0 277 -182 459q-181 184 -461 184q-265 0 -450 -182q-183 -183 -183 -461z" />
    <glyph glyph-name="ordfeminine" unicode="&#xaa;" horiz-adv-x="524" 
d="M51 999q1 75 53.5 121.5t124.5 46.5q109 0 162 -77q41 -65 41 -154v-137q0 -113 2 -140q3 -97 55 -155q-140 0 -161 94q-57 -106 -158 -106q-67 0 -110.5 40.5t-43.5 100.5q0 85 84 145q73 50 219 86v68q0 66 -24 100q-27 37 -84 37q-84 0 -160 -70zM319 731v74l-73 -31
q-117 -46 -117 -117q0 -69 66 -69q50 0 87 40t37 103z" />
    <glyph glyph-name="guillemotleft" unicode="&#xab;" horiz-adv-x="798" 
d="M461 889l-228 -410l228 -409l-451 409zM788 889l-227 -410l227 -409l-450 409z" />
    <glyph glyph-name="logicalnot" unicode="&#xac;" horiz-adv-x="942" 
d="M61 670h820v-389h-72v317h-748v72z" />
    <glyph glyph-name="registered" unicode="&#xae;" horiz-adv-x="1642" 
d="M737 709q-53 0 -63 2v-129q0 -34 4 -136q3 -77 45 -139h-21q-12 0 -45.5 2t-40.5 2t-41.5 -2t-46.5 -2h-18q36 50 45 139q2 25 2 136v323q0 108 -2 135q-3 80 -45 138h20q15 0 48 -1t38 -1q32 0 67.5 0.5t59 1t25.5 0.5q120 0 192 -64.5t72 -159.5q0 -150 -133 -215
q87 -172 199 -311q79 -102 116 -127q-27 -12 -71 -12q-91 0 -166 106q-92 124 -182 316q-10 -2 -58 -2zM737 1114q-36 0 -45 -8.5t-14 -44.5q-4 -98 -4 -123v-164h47q93 0 143.5 44t50.5 124t-46.5 126t-131.5 46zM66 719q0 321 217 532q218 215 534 215q328 0 543 -215
q217 -214 217 -532t-217 -535q-214 -217 -524 -217q-336 0 -555 213q-215 212 -215 539zM184 719q0 -284 183 -467q180 -180 471 -180q260 0 440 186q182 188 182 461q0 277 -182 459q-181 184 -461 184q-265 0 -450 -182q-183 -183 -183 -461z" />
    <glyph glyph-name="overscore" unicode="&#xaf;" 
d="M492 1264h-553v110h553v-110z" />
    <glyph glyph-name="degree" unicode="&#xb0;" horiz-adv-x="655" 
d="M53 1171q0 115 80 195q82 82 195 82t192 -82q82 -82 82 -195t-82 -192q-80 -80 -192 -80q-115 0 -195 80t-80 192zM324 967q91 0 146.5 55.5t55.5 146.5t-56 150t-146 59q-87 0 -142 -59t-55 -150t54.5 -146.5t142.5 -55.5z" />
    <glyph glyph-name="plusminus" unicode="&#xb1;" horiz-adv-x="942" 
d="M61 250v72h375v247h-375v72h375v248h72v-248h373v-72h-373v-247h373v-72h-820z" />
    <glyph glyph-name="twosuperior" unicode="&#xb2;" horiz-adv-x="550" 
d="M244 1212q109 0 166 -69q55 -64 55 -156q0 -179 -254 -369h151q86 0 177 66q-11 -90 -60 -176q-74 4 -155 4h-125q-9 0 -115 -4q-51 -2 -96 -2l51 45q162 143 235 244q66 91 66 180q0 57 -33.5 93t-87.5 36q-92 0 -176 -96q0 87 59 145.5t142 58.5z" />
    <glyph glyph-name="threesuperior" unicode="&#xb3;" horiz-adv-x="507" 
d="M35 244h-41q185 60 272.5 133.5t87.5 169.5q0 78 -65.5 132.5t-188.5 80.5l33 22q176 120 176 217q0 47 -33.5 76t-85.5 29q-100 0 -182 -88q4 90 62.5 143t146.5 53q102 0 158 -59q53 -59 53 -135q0 -105 -149 -199q88 -20 144 -91t56 -163q0 -132 -114 -227
q-113 -94 -330 -94z" />
    <glyph glyph-name="acute" unicode="&#xb4;" 
d="M340 1479l-250 -449l78 506z" />
    <glyph glyph-name="mu" unicode="&#xb5;" horiz-adv-x="980" 
d="M408 -33q-96 0 -154 43l4 -82q9 -187 55 -413q-98 -26 -178 -58v1041q0 128 -6 192q-9 103 -72 195q108 2 236 10q-14 -304 -14 -369v-233q0 -95 42.5 -144t118.5 -49q108 0 173 70.5t65 183.5v144q0 128 -6 192q-9 103 -72 195q108 2 236 10q-15 -325 -15 -369v-67
q0 -141 6 -205q9 -111 82 -160q-127 -58 -217 -117l-4 195q-39 -92 -114.5 -148.5t-165.5 -56.5z" />
    <glyph glyph-name="paragraph" unicode="&#xb6;" horiz-adv-x="942" 
d="M707 991v-964q0 -259 -94 -406t-246 -147q-67 0 -113 16q-10 52 -10 88q0 60 16 119q75 -84 170 -84q67 0 94 65q29 69 29 267v608q-199 3 -340 117q-139 115 -139 329q0 217 151 326t383 109q43 0 90 2q94 4 111 4h22q-117 -73 -120 -219q-4 -180 -4 -230z" />
    <glyph glyph-name="middot" unicode="&#xb7;" 
d="M362 492l-147 -152l-152 152l152 149z" />
    <glyph glyph-name="cedilla" unicode="&#xb8;" 
d="M229 33h54l-50 -131q134 -62 134 -178q0 -72 -45.5 -117t-120.5 -45q-79 0 -144 30q0 3 -1 13.5t-1 13.5q0 61 31 109q74 -99 135 -99q29 0 45.5 15.5t16.5 40.5q0 40 -34.5 72.5t-119.5 68.5z" />
    <glyph glyph-name="onesuperior" unicode="&#xb9;" horiz-adv-x="374" 
d="M244 899v-90q0 -85 6 -150q5 -55 17.5 -84t51.5 -65q-66 4 -133 4q-61 0 -131 -4q66 66 72 149q4 110 4 150v90q0 34 -4 152q-5 50 -19 80t-53 67q133 -11 264 0q-39 -36 -51.5 -65t-17.5 -82q-6 -68 -6 -152z" />
    <glyph glyph-name="ordmasculine" unicode="&#xba;" horiz-adv-x="681" 
d="M16 829q0 139 93 240q93 100 229 100q138 0 229 -98q92 -95 92 -242q0 -138 -92 -241q-91 -99 -223 -99q-140 0 -235 99q-93 101 -93 241zM334 1096q-86 0 -137.5 -66.5t-51.5 -187.5q0 -127 55 -202t148 -75q83 0 132.5 68t49.5 188q0 124 -54.5 199.5t-141.5 75.5z" />
    <glyph glyph-name="guillemotright" unicode="&#xbb;" horiz-adv-x="798" 
d="M461 479l-451 -409l228 409l-228 410zM788 479l-450 -409l227 409l-227 410z" />
    <glyph glyph-name="onequarter" unicode="&#xbc;" horiz-adv-x="1347" 
d="M244 1083v-90q0 -85 6 -149q5 -55 17.5 -84.5t51.5 -65.5q-66 4 -133 4q-61 0 -131 -4q66 66 72 150q4 110 4 149v90q0 34 -4 152q-5 50 -19 80t-53 67q133 -11 264 0q-39 -36 -51.5 -65t-17.5 -82q-6 -68 -6 -152zM1020 1454l67 -47l-954 -1503l-67 47zM1368 170v-10
q0 -90 -45 -164q-78 4 -147 4q0 -40 4 -158q4 -122 4 -139l-125 -27v324h-158q-127 0 -295 -4q253 385 574 723q-4 -114 -4 -248v-365h49q73 0 143 64zM780 106h279v371q-191 -235 -279 -371z" />
    <glyph glyph-name="onehalf" unicode="&#xbd;" horiz-adv-x="1325" 
d="M244 1083v-90q0 -85 6 -149q5 -55 17.5 -84.5t51.5 -65.5q-66 4 -133 4q-61 0 -131 -4q66 66 72 150q4 110 4 149v90q0 34 -4 152q-5 50 -19 80t-53 67q133 -11 264 0q-39 -36 -51.5 -65t-17.5 -82q-6 -68 -6 -152zM1020 1454l67 -47l-954 -1503l-67 47zM1018 700
q109 0 166 -69q55 -64 55 -156q0 -179 -254 -369h152q85 0 176 66q-11 -90 -60 -176q-74 4 -155 4h-125q-62 0 -115 -2q-20 -1 -43 -2t-35.5 -1.5t-17.5 -0.5l51 45q165 146 236 244q65 89 65 180q0 57 -33.5 93t-87.5 36q-92 0 -176 -96q0 87 59 145.5t142 58.5z" />
    <glyph glyph-name="threequarters" unicode="&#xbe;" horiz-adv-x="1542" 
d="M35 428h-41q185 60 272.5 133.5t87.5 169.5q0 78 -65.5 132.5t-188.5 80.5l33 23q176 120 176 217q0 47 -33.5 75.5t-85.5 28.5q-100 0 -182 -88q4 91 62.5 144t146.5 53q101 0 158 -60q53 -59 53 -135q0 -104 -149 -198q88 -20 144 -91t56 -163q0 -134 -114 -228
q-113 -94 -330 -94zM1563 170v-10q0 -90 -45 -164q-78 4 -148 4q0 -40 4 -158q4 -122 4 -139l-125 -27v324h-157q-127 0 -295 -4q256 388 573 723q-4 -114 -4 -248v-365h49q74 0 144 64zM975 106h278v371q-186 -229 -278 -371zM1214 1454l68 -47l-954 -1503l-68 47z" />
    <glyph glyph-name="questiondown" unicode="&#xbf;" horiz-adv-x="655" 
d="M582 211v-213q-41 -14 -95 -14q-182 0 -313 143q-129 144 -129 350q0 153 88.5 231t255.5 80l49 324l74 -473q-223 0 -307 -41q-80 -41 -80 -139q0 -131 92 -205t213 -74q79 0 152 31zM291 1333l147 152l152 -152l-152 -149z" />
    <glyph glyph-name="Agrave" unicode="&#xc0;" horiz-adv-x="1206" 
d="M197 446l415 1024l398 -1024q72 -185 92 -229q69 -164 115 -219h-31q-18 0 -69 3t-66 3q-14 0 -64 -3t-72 -3h-20q41 53 41 111q0 39 -21 106q-16 52 -24 76l-17 45q-3 13 -18.5 55.5t-19.5 54.5l-17 41h-500l-14 -41q-88 -230 -88 -315q0 -69 55 -133h-22q-19 0 -64 3
t-55 3q-18 0 -63.5 -3t-55.5 -3h-22q60 91 114 219q27 61 93 229zM786 575l-208 535l-222 -535h430zM322 1645l81 161l414 -297z" />
    <glyph glyph-name="Aacute" unicode="&#xc1;" horiz-adv-x="1206" 
d="M197 446l415 1024l398 -1024q72 -185 92 -229q69 -164 115 -219h-31q-18 0 -69 3t-66 3q-14 0 -64 -3t-72 -3h-20q41 53 41 111q0 39 -21 106q-16 52 -24 76l-17 45q-3 13 -18.5 55.5t-19.5 54.5l-17 41h-500l-14 -41q-88 -230 -88 -315q0 -69 55 -133h-22q-19 0 -64 3
t-55 3q-18 0 -63.5 -3t-55.5 -3h-22q60 91 114 219q27 61 93 229zM786 575l-208 535l-222 -535h430zM899 1645l-496 -136l414 297z" />
    <glyph glyph-name="Acircumflex" unicode="&#xc2;" horiz-adv-x="1206" 
d="M197 446l415 1024l398 -1024q72 -185 92 -229q69 -164 115 -219h-31q-18 0 -69 3t-66 3q-14 0 -64 -3t-72 -3h-20q41 53 41 111q0 39 -21 106q-16 52 -24 76l-17 45q-3 13 -18.5 55.5t-19.5 54.5l-17 41h-500l-14 -41q-88 -230 -88 -315q0 -69 55 -133h-22q-19 0 -64 3
t-55 3q-18 0 -63.5 -3t-55.5 -3h-22q60 91 114 219q27 61 93 229zM786 575l-208 535l-222 -535h430zM909 1516l-299 120l-299 -120l299 311z" />
    <glyph glyph-name="Atilde" unicode="&#xc3;" horiz-adv-x="1206" 
d="M197 446l415 1024l398 -1024q72 -185 92 -229q69 -164 115 -219h-31q-18 0 -69 3t-66 3q-14 0 -64 -3t-72 -3h-20q41 53 41 111q0 39 -21 106q-16 52 -24 76l-17 45q-3 13 -18.5 55.5t-19.5 54.5l-17 41h-500l-14 -41q-88 -230 -88 -315q0 -69 55 -133h-22q-19 0 -64 3
t-55 3q-18 0 -63.5 -3t-55.5 -3h-22q60 91 114 219q27 61 93 229zM786 575l-208 535l-222 -535h430zM625 1724q83 -38 139 -38q73 0 156 65q-17 -82 -76.5 -136t-132.5 -54q-49 0 -119 30q-85 39 -139 39q-73 0 -156 -65q17 82 76.5 136t132.5 54q46 0 119 -31z" />
    <glyph glyph-name="Adieresis" unicode="&#xc4;" horiz-adv-x="1206" 
d="M197 446l415 1024l398 -1024q72 -185 92 -229q69 -164 115 -219h-31q-18 0 -69 3t-66 3q-14 0 -64 -3t-72 -3h-20q41 53 41 111q0 39 -21 106q-16 52 -24 76l-17 45q-3 13 -18.5 55.5t-19.5 54.5l-17 41h-500l-14 -41q-88 -230 -88 -315q0 -69 55 -133h-22q-19 0 -64 3
t-55 3q-18 0 -63.5 -3t-55.5 -3h-22q60 91 114 219q27 61 93 229zM786 575l-208 535l-222 -535h430zM592 1663l-127 -127l-127 127l127 127zM881 1663l-127 -127l-127 127l127 127z" />
    <glyph glyph-name="Aring" unicode="&#xc5;" horiz-adv-x="1206" 
d="M408 1661q0 88 61.5 150.5t148.5 62.5q88 0 150.5 -62.5t62.5 -150.5q0 -86 -60.5 -147.5t-145.5 -63.5l389 -1004q72 -185 92 -229q69 -164 115 -219h-31q-18 0 -69 3t-66 3q-14 0 -63.5 -3t-71.5 -3h-21q41 53 41 111q0 42 -20 106q-11 36 -25 76l-16 45q-3 13 -19 55
t-20 55l-17 41h-499l-15 -41q-88 -230 -88 -315q0 -69 55 -133h-22q-19 0 -64 3t-55 3q-18 0 -63.5 -3t-55.5 -3h-22q63 95 115 219q16 35 53 131l39 98l407 1004q-85 5 -142.5 65t-57.5 146zM791 575l-209 535l-222 -535h431zM616 1534q54 0 89.5 35.5t35.5 89.5
t-35.5 91.5t-89.5 37.5q-51 0 -85.5 -37.5t-34.5 -91.5t34.5 -89.5t85.5 -35.5z" />
    <glyph glyph-name="AE" unicode="&#xc6;" horiz-adv-x="1714" 
d="M1319 793q137 15 201 106v-25q-4 -38 -4 -131t4 -133v-24q-61 88 -201 106q-92 10 -279 10v-276q0 -80 7 -223q1 -71 29 -95t102 -24q139 0 217 10q155 21 237 252q8 -49 8 -94q0 -127 -32 -258q-208 10 -647 10q-24 0 -78.5 -3t-63.5 -3h-24q66 69 75 219q7 119 7 229
v41h-435l-22 -36q-162 -262 -162 -342q0 -58 53 -111h-22q-21 0 -79 3t-73 3q-12 0 -60 -3t-69 -3h-24q101 135 159 219q115 171 150 229l459 728q67 101 67 157q0 63 -61 109h22q5 0 18 -0.5t38 -1.5t47 -2q57 -2 121 -2h333q149 0 228 6q16 -88 16 -178q0 -60 -10 -138
q-89 195 -234 219q-79 11 -176 11q-71 0 -90 -17.5t-24 -81.5q-7 -75 -7 -211v-262q178 0 279 11zM877 575v609l-377 -609h377z" />
    <glyph glyph-name="Ccedilla" unicode="&#xc7;" horiz-adv-x="1394" 
d="M872 59q180 0 271 99q95 103 176 313q8 -52 8 -129q0 -157 -20 -260q-195 -115 -461 -115l-25 -65q133 -62 133 -178q0 -72 -45.5 -117t-120.5 -45q-78 0 -143 30q0 3 -1 13.5t-1 13.5q0 61 31 109q74 -99 135 -99q29 0 45 15.5t16 40.5q0 40 -34 72.5t-119 68.5l69 143
q-191 12 -358 99q-163 85 -272 256q-107 168 -107 397q0 330 232 536q232 209 563 209q244 0 452 -102q4 -70 4 -121q0 -133 -16 -227q-77 188 -170 272t-268 84q-270 0 -438 -180q-166 -181 -166 -469q0 -299 188 -481q192 -183 442 -183z" />
    <glyph glyph-name="Egrave" unicode="&#xc8;" horiz-adv-x="1003" 
d="M608 793q137 15 201 106v-25q-5 -38 -5 -131t5 -133v-24q-61 88 -201 106q-92 10 -278 10v-276q0 -100 6 -223q1 -71 29 -95t102 -24q139 0 217 10q156 21 238 252q8 -49 8 -94q0 -123 -33 -258q-208 10 -647 10q-24 0 -78 -3t-63 -3h-25q67 70 76 219q6 102 6 229v545
q0 128 -6 230q-9 149 -76 219h25q9 0 63 -3t78 -3h377q147 0 227 6q16 -88 16 -178q0 -60 -10 -138q-89 195 -233 219q-79 11 -176 11q-71 0 -90.5 -17.5t-24.5 -81.5q-6 -65 -6 -211v-262q177 0 278 11zM201 1645l82 161l413 -297z" />
    <glyph glyph-name="Eacute" unicode="&#xc9;" horiz-adv-x="1003" 
d="M608 793q137 15 201 106v-25q-5 -38 -5 -131t5 -133v-24q-61 88 -201 106q-92 10 -278 10v-276q0 -100 6 -223q1 -71 29 -95t102 -24q139 0 217 10q156 21 238 252q8 -49 8 -94q0 -123 -33 -258q-208 10 -647 10q-24 0 -78 -3t-63 -3h-25q67 70 76 219q6 102 6 229v545
q0 128 -6 230q-9 149 -76 219h25q9 0 63 -3t78 -3h377q147 0 227 6q16 -88 16 -178q0 -60 -10 -138q-89 195 -233 219q-79 11 -176 11q-71 0 -90.5 -17.5t-24.5 -81.5q-6 -65 -6 -211v-262q177 0 278 11zM778 1645l-495 -136l413 297z" />
    <glyph glyph-name="Ecircumflex" unicode="&#xca;" horiz-adv-x="1003" 
d="M608 793q137 15 201 106v-25q-5 -38 -5 -131t5 -133v-24q-61 88 -201 106q-92 10 -278 10v-276q0 -100 6 -223q1 -71 29 -95t102 -24q139 0 217 10q156 21 238 252q8 -49 8 -94q0 -123 -33 -258q-208 10 -647 10q-24 0 -78 -3t-63 -3h-25q67 70 76 219q6 102 6 229v545
q0 128 -6 230q-9 149 -76 219h25q9 0 63 -3t78 -3h377q147 0 227 6q16 -88 16 -178q0 -60 -10 -138q-89 195 -233 219q-79 11 -176 11q-71 0 -90.5 -17.5t-24.5 -81.5q-6 -65 -6 -211v-262q177 0 278 11zM788 1516l-299 120l-299 -120l299 311z" />
    <glyph glyph-name="Edieresis" unicode="&#xcb;" horiz-adv-x="1003" 
d="M608 793q137 15 201 106v-25q-5 -38 -5 -131t5 -133v-24q-61 88 -201 106q-92 10 -278 10v-276q0 -100 6 -223q1 -71 29 -95t102 -24q139 0 217 10q156 21 238 252q8 -49 8 -94q0 -123 -33 -258q-208 10 -647 10q-24 0 -78 -3t-63 -3h-25q67 70 76 219q6 102 6 229v545
q0 128 -6 230q-9 149 -76 219h25q9 0 63 -3t78 -3h377q147 0 227 6q16 -88 16 -178q0 -60 -10 -138q-89 195 -233 219q-79 11 -176 11q-71 0 -90.5 -17.5t-24.5 -81.5q-6 -65 -6 -211v-262q177 0 278 11zM471 1663l-127 -127l-127 127l127 127zM760 1663l-127 -127l-127 127
l127 127z" />
    <glyph glyph-name="Igrave" unicode="&#xcc;" horiz-adv-x="497" 
d="M330 991v-545q0 -49 4 -229q3 -139 80 -219h-25q-9 0 -62 5t-77 5t-78 -5t-63 -5h-25q67 70 76 219q6 102 6 229v545q0 128 -6 230q-9 149 -76 219h25q9 0 63 -5t78 -5t77 5t62 5h25q-77 -80 -80 -219q-4 -180 -4 -230zM-43 1645l82 161l414 -297z" />
    <glyph glyph-name="Iacute" unicode="&#xcd;" horiz-adv-x="497" 
d="M330 991v-545q0 -49 4 -229q3 -139 80 -219h-25q-9 0 -62 5t-77 5t-78 -5t-63 -5h-25q67 70 76 219q6 102 6 229v545q0 128 -6 230q-9 149 -76 219h25q9 0 63 -5t78 -5t77 5t62 5h25q-77 -80 -80 -219q-4 -180 -4 -230zM535 1645l-496 -136l414 297z" />
    <glyph glyph-name="Icircumflex" unicode="&#xce;" horiz-adv-x="497" 
d="M330 991v-545q0 -49 4 -229q3 -139 80 -219h-25q-9 0 -62 5t-77 5t-78 -5t-63 -5h-25q67 70 76 219q6 102 6 229v545q0 128 -6 230q-9 149 -76 219h25q9 0 63 -5t78 -5t77 5t62 5h25q-77 -80 -80 -219q-4 -180 -4 -230zM545 1516l-299 120l-299 -120l299 311z" />
    <glyph glyph-name="Idieresis" unicode="&#xcf;" horiz-adv-x="497" 
d="M330 991v-545q0 -49 4 -229q3 -139 80 -219h-25q-9 0 -62 5t-77 5t-78 -5t-63 -5h-25q67 70 76 219q6 102 6 229v545q0 128 -6 230q-9 149 -76 219h25q9 0 63 -5t78 -5t77 5t62 5h25q-77 -80 -80 -219q-4 -180 -4 -230zM227 1663l-127 -127l-127 127l127 127zM516 1663
l-127 -127l-127 127l127 127z" />
    <glyph glyph-name="Eth" unicode="&#xd0;" horiz-adv-x="1445" 
d="M170 676h-170v72h170v243q0 128 -6 230q-9 149 -76 219h25q9 0 63 -5t78 -5q60 0 174 6q101 8 184 8q125 0 240.5 -29t215.5 -89.5t173.5 -146t115.5 -205.5t42 -261q0 -326 -213 -527q-210 -198 -559 -198q-82 0 -219 10q-133 10 -154 10q-24 0 -78 -5t-63 -5h-25
q67 70 76 219q6 102 6 229v230zM612 84q285 0 441.5 164t156.5 463q0 296 -174 467q-171 174 -440 174q-153 0 -205 -19q-48 -15 -51 -78q-6 -65 -6 -211v-296h446v-72h-446v-250q0 -162 6 -223q9 -79 59 -99t213 -20z" />
    <glyph glyph-name="Ntilde" unicode="&#xd1;" horiz-adv-x="1490" 
d="M170 444v547q0 149 -6 217q-15 155 -92 232h24q12 0 83 -3t112 -3l930 -1086v643q0 111 -7 230q-9 150 -75 219h16q12 0 59.5 -5t61.5 -5t61.5 5t59.5 5h16q-77 -80 -80 -219q-4 -180 -4 -230v-692q0 -225 8 -350l-1058 1237v-742q0 -49 4 -229q3 -140 79 -219h-16
q-12 0 -59.5 5t-61.5 5t-61.5 -5t-59.5 -5h-16q67 70 76 219q6 102 6 229zM778 1724q83 -38 140 -38q72 0 155 65q-17 -82 -76.5 -136t-132.5 -54q-48 0 -119 30q-85 39 -139 39q-72 0 -155 -65q17 82 76 136t132 54q46 0 119 -31z" />
    <glyph glyph-name="Ograve" unicode="&#xd2;" horiz-adv-x="1595" 
d="M53 717q0 324 215 536q216 213 527 213q322 0 534 -215q213 -213 213 -534t-213 -537q-213 -213 -516 -213q-335 0 -547 209q-213 210 -213 541zM764 1364q-224 0 -371 -166t-147 -455q0 -302 172 -489q174 -186 422 -186q223 0 366 174q144 176 144 450q0 294 -170 482
q-169 190 -416 190zM508 1645l82 161l414 -297z" />
    <glyph glyph-name="Oacute" unicode="&#xd3;" horiz-adv-x="1595" 
d="M53 717q0 324 215 536q216 213 527 213q322 0 534 -215q213 -213 213 -534t-213 -537q-213 -213 -516 -213q-335 0 -547 209q-213 210 -213 541zM764 1364q-224 0 -371 -166t-147 -455q0 -302 172 -489q174 -186 422 -186q223 0 366 174q144 176 144 450q0 294 -170 482
q-169 190 -416 190zM1085 1645l-495 -136l414 297z" />
    <glyph glyph-name="Ocircumflex" unicode="&#xd4;" horiz-adv-x="1595" 
d="M53 717q0 324 215 536q216 213 527 213q322 0 534 -215q213 -213 213 -534t-213 -537q-213 -213 -516 -213q-335 0 -547 209q-213 210 -213 541zM764 1364q-224 0 -371 -166t-147 -455q0 -302 172 -489q174 -186 422 -186q223 0 366 174q144 176 144 450q0 294 -170 482
q-169 190 -416 190zM1096 1516l-299 120l-299 -120l299 311z" />
    <glyph glyph-name="Otilde" unicode="&#xd5;" horiz-adv-x="1595" 
d="M53 717q0 324 215 536q216 213 527 213q322 0 534 -215q213 -213 213 -534t-213 -537q-213 -213 -516 -213q-335 0 -547 209q-213 210 -213 541zM764 1364q-224 0 -371 -166t-147 -455q0 -302 172 -489q174 -186 422 -186q223 0 366 174q144 176 144 450q0 294 -170 482
q-169 190 -416 190zM811 1724q83 -38 139 -38q73 0 156 65q-17 -82 -76.5 -136t-132.5 -54q-49 0 -119 30q-85 39 -139 39q-73 0 -156 -65q17 82 76.5 136t132.5 54q46 0 119 -31z" />
    <glyph glyph-name="Odieresis" unicode="&#xd6;" horiz-adv-x="1595" 
d="M53 717q0 324 215 536q216 213 527 213q322 0 534 -215q213 -213 213 -534t-213 -537q-213 -213 -516 -213q-335 0 -547 209q-213 210 -213 541zM764 1364q-224 0 -371 -166t-147 -455q0 -302 172 -489q174 -186 422 -186q223 0 366 174q144 176 144 450q0 294 -170 482
q-169 190 -416 190zM778 1663l-127 -127l-127 127l127 127zM1067 1663l-127 -127l-127 127l127 127z" />
    <glyph glyph-name="multiply" unicode="&#xd7;" horiz-adv-x="942" 
d="M420 481l-262 262l49 52l264 -265l264 265l49 -52l-262 -262l264 -266l-51 -49l-264 264l-264 -264l-51 49z" />
    <glyph glyph-name="Oslash" unicode="&#xd8;" horiz-adv-x="1636" 
d="M78 717q0 323 213 536t524 213q236 0 408 -112l141 200l61 -47l-141 -198q131 -103 203 -256.5t72 -335.5q0 -323 -211 -537q-213 -213 -514 -213q-243 0 -420 113l-140 -199l-59 41l137 195q-274 212 -274 600zM784 1364q-223 0 -372 -168q-152 -169 -152 -453
q0 -298 184 -497l695 987q-149 131 -355 131zM1376 692q0 298 -182 492l-698 -989q165 -127 364 -127q228 0 371 174q145 177 145 450z" />
    <glyph glyph-name="Ugrave" unicode="&#xd9;" horiz-adv-x="1320" 
d="M1190 991v-471q0 -240 -148 -397q-147 -156 -385 -156q-246 0 -384 137.5t-138 384.5v502q0 128 -6 230q-9 149 -76 219h25q9 0 63 -5t78 -5t77 5t62 5h25q-77 -80 -80 -219q-4 -180 -4 -230v-497q0 -196 98.5 -305t272.5 -109q191 0 301 123t110 344v444q0 128 -6 230
q-9 149 -76 219h17q12 0 59.5 -5t61.5 -5t61 5t59 5h17q-77 -80 -80 -219q-4 -180 -4 -230zM401 1645l82 161l414 -297z" />
    <glyph glyph-name="Uacute" unicode="&#xda;" horiz-adv-x="1320" 
d="M1190 991v-471q0 -240 -148 -397q-147 -156 -385 -156q-246 0 -384 137.5t-138 384.5v502q0 128 -6 230q-9 149 -76 219h25q9 0 63 -5t78 -5t77 5t62 5h25q-77 -80 -80 -219q-4 -180 -4 -230v-497q0 -196 98.5 -305t272.5 -109q191 0 301 123t110 344v444q0 128 -6 230
q-9 149 -76 219h17q12 0 59.5 -5t61.5 -5t61 5t59 5h17q-77 -80 -80 -219q-4 -180 -4 -230zM979 1645l-496 -136l414 297z" />
    <glyph glyph-name="Ucircumflex" unicode="&#xdb;" horiz-adv-x="1320" 
d="M1190 991v-471q0 -240 -148 -397q-147 -156 -385 -156q-246 0 -384 137.5t-138 384.5v502q0 128 -6 230q-9 149 -76 219h25q9 0 63 -5t78 -5t77 5t62 5h25q-77 -80 -80 -219q-4 -180 -4 -230v-497q0 -196 98.5 -305t272.5 -109q191 0 301 123t110 344v444q0 128 -6 230
q-9 149 -76 219h17q12 0 59.5 -5t61.5 -5t61 5t59 5h17q-77 -80 -80 -219q-4 -180 -4 -230zM989 1516l-299 120l-299 -120l299 311z" />
    <glyph glyph-name="Udieresis" unicode="&#xdc;" horiz-adv-x="1320" 
d="M1190 991v-471q0 -240 -148 -397q-147 -156 -385 -156q-246 0 -384 137.5t-138 384.5v502q0 128 -6 230q-9 149 -76 219h25q9 0 63 -5t78 -5t77 5t62 5h25q-77 -80 -80 -219q-4 -180 -4 -230v-497q0 -196 98.5 -305t272.5 -109q191 0 301 123t110 344v444q0 128 -6 230
q-9 149 -76 219h17q12 0 59.5 -5t61.5 -5t61 5t59 5h17q-77 -80 -80 -219q-4 -180 -4 -230zM672 1663l-127 -127l-127 127l127 127zM961 1663l-127 -127l-127 127l127 127z" />
    <glyph glyph-name="Yacute" unicode="&#xdd;" horiz-adv-x="1067" 
d="M803 989l-182 -309v-234q0 -49 4 -229q3 -139 80 -219h-25q-9 0 -62 5t-77 5t-78.5 -5t-63.5 -5h-24q67 70 76 219q6 102 6 229v232l-193 313l-139 230q-75 114 -148 219h29q19 0 74.5 -4t66.5 -4q6 0 72 4t74 4h22q-49 -49 -49 -97q0 -35 31 -102q37 -68 147 -250
l129 -209l121 209q158 273 158 346q0 48 -49 103h24q13 0 58 -4t61 -4q19 0 66 4t53 4h22l-141 -217q-66 -103 -143 -234zM862 1645l-495 -136l413 297z" />
    <glyph glyph-name="Thorn" unicode="&#xde;" horiz-adv-x="987" 
d="M166 449v542q0 128 -6 230q-9 149 -76 219h25q9 0 63 -5t78 -5t77 5t62 5h25q-39 -42 -56 -87t-24 -130q-2 -16 -2 -76q129 6 174 6q215 0 343 -105.5t128 -283.5q0 -180 -119 -287q-119 -104 -297 -104q-113 0 -190 59q50 -4 63 -4q371 0 371 336q0 151 -93.5 230
t-260.5 79q-68 0 -89 -19t-26 -83q-6 -65 -6 -211v-311q0 -50 4 -230q3 -139 80 -219h-25q-9 0 -62 5t-77 5t-78 -5t-63 -5h-25q67 70 76 219q6 102 6 230z" />
    <glyph glyph-name="germandbls" unicode="&#xdf;" horiz-adv-x="1032" 
d="M776 53q52 0 84.5 34.5t32.5 94.5q0 56 -41.5 104.5t-142.5 110.5q-108 66 -154.5 136t-46.5 159q0 61 20 111q4 12 8.5 22t10.5 20.5t9 17t11 17.5t10.5 15t13 16.5t13 15.5t16.5 19t17 19l53 65q22 29 38.5 71.5t16.5 82.5q0 102 -61 164.5t-158 62.5q-117 0 -173 -85
t-56 -286v-657q1 -193 8 -234q10 -61 53 -115q12 -15 31 -36h-22q-21 0 -76 4t-66 4q-12 0 -57 -4t-66 -4h-20q56 65 65 195q7 75 7 198v303q0 63 -17.5 96t-60.5 50l12 16q28 36 37 70q14 39 22 96q8 56 19 92q45 196 151 307t261 111q127 0 219 -86q94 -82 94 -221
q0 -68 -29 -131q-17 -39 -38 -67.5t-37 -44t-64 -58.5q-100 -87 -100 -174q0 -73 37 -122t139 -110q122 -74 170.5 -140.5t48.5 -162.5q0 -105 -71 -176.5t-179 -71.5q-130 0 -242 53q-4 32 -4 70q0 97 41 193q44 -128 91 -179t122 -51z" />
    <glyph glyph-name="agrave" unicode="&#xe0;" horiz-adv-x="741" 
d="M78 711q18 94 90.5 156.5t169.5 62.5q144 0 217 -107q61 -91 61 -221v-196q0 -80 5 -187q6 -96 25 -143.5t65 -79.5q-27 -6 -49 -6q-75 0 -122 43t-61 114q-83 -176 -237 -176q-96 0 -154.5 54.5t-58.5 140.5q0 122 129 205q112 72 315 125v100q0 92 -43 147
q-43 58 -129 58q-107 0 -223 -90zM473 311v113q-29 -8 -119 -47q-180 -76 -180 -176q0 -46 26.5 -75.5t75.5 -29.5q73 0 134 58q63 57 63 157zM172 1479l172 57l78 -506z" />
    <glyph glyph-name="aacute" unicode="&#xe1;" horiz-adv-x="741" 
d="M78 711q18 94 90.5 156.5t169.5 62.5q144 0 217 -107q61 -91 61 -221v-196q0 -80 5 -187q6 -96 25 -143.5t65 -79.5q-27 -6 -49 -6q-75 0 -122 43t-61 114q-83 -176 -237 -176q-96 0 -154.5 54.5t-58.5 140.5q0 122 129 205q112 72 315 125v100q0 92 -43 147
q-43 58 -129 58q-107 0 -223 -90zM473 311v113q-29 -8 -119 -47q-180 -76 -180 -176q0 -46 26.5 -75.5t75.5 -29.5q73 0 134 58q63 57 63 157zM500 1479l-250 -449l78 506z" />
    <glyph glyph-name="acircumflex" unicode="&#xe2;" horiz-adv-x="741" 
d="M78 711q18 94 90.5 156.5t169.5 62.5q144 0 217 -107q61 -91 61 -221v-196q0 -80 5 -187q6 -96 25 -143.5t65 -79.5q-27 -6 -49 -6q-75 0 -122 43t-61 114q-83 -176 -237 -176q-96 0 -154.5 54.5t-58.5 140.5q0 122 129 205q112 72 315 125v100q0 92 -43 147
q-43 58 -129 58q-107 0 -223 -90zM473 311v113q-29 -8 -119 -47q-180 -76 -180 -176q0 -46 26.5 -75.5t75.5 -29.5q73 0 134 58q63 57 63 157zM123 1034l215 516l215 -516l-215 226z" />
    <glyph glyph-name="atilde" unicode="&#xe3;" horiz-adv-x="741" 
d="M78 711q18 94 90.5 156.5t169.5 62.5q144 0 217 -107q61 -91 61 -221v-196q0 -80 5 -187q6 -96 25 -143.5t65 -79.5q-27 -6 -49 -6q-75 0 -122 43t-61 114q-83 -176 -237 -176q-96 0 -154.5 54.5t-58.5 140.5q0 122 129 205q112 72 315 125v100q0 92 -43 147
q-43 58 -129 58q-107 0 -223 -90zM473 311v113q-29 -8 -119 -47q-180 -76 -180 -176q0 -46 26.5 -75.5t75.5 -29.5q73 0 134 58q63 57 63 157zM352 1389q85 -39 140 -39q72 0 155 65q-17 -82 -76.5 -136t-132.5 -54q-48 0 -119 30q-85 39 -139 39q-72 0 -155 -65
q17 82 76 136t132 54q49 0 119 -30z" />
    <glyph glyph-name="adieresis" unicode="&#xe4;" horiz-adv-x="741" 
d="M78 711q18 94 90.5 156.5t169.5 62.5q144 0 217 -107q61 -91 61 -221v-196q0 -80 5 -187q6 -96 25 -143.5t65 -79.5q-27 -6 -49 -6q-75 0 -122 43t-61 114q-83 -176 -237 -176q-96 0 -154.5 54.5t-58.5 140.5q0 122 129 205q112 72 315 125v100q0 92 -43 147
q-43 58 -129 58q-107 0 -223 -90zM473 311v113q-29 -8 -119 -47q-180 -76 -180 -176q0 -46 26.5 -75.5t75.5 -29.5q73 0 134 58q63 57 63 157zM319 1333l-126 -127l-127 127l127 127zM608 1333l-127 -127l-127 127l127 127z" />
    <glyph glyph-name="aring" unicode="&#xe5;" horiz-adv-x="741" 
d="M78 711q18 94 90.5 156.5t169.5 62.5q144 0 217 -107q61 -91 61 -221v-196q0 -80 5 -187q6 -96 25 -143.5t65 -79.5q-27 -6 -49 -6q-75 0 -122 43t-61 114q-83 -176 -237 -176q-96 0 -154.5 54.5t-58.5 140.5q0 122 129 205q112 72 315 125v100q0 92 -43 147
q-43 58 -129 58q-107 0 -223 -90zM473 311v113q-29 -8 -119 -47q-180 -76 -180 -176q0 -46 26.5 -75.5t75.5 -29.5q73 0 134 58q63 57 63 157zM188 1167q-62 61 -62 149t62 150q61 63 149.5 63t149.5 -63q63 -62 63 -150t-63 -149q-61 -61 -149 -61t-150 61zM336 1190
q54 0 89.5 35.5t35.5 89.5t-35.5 91.5t-89.5 37.5q-51 0 -86 -37.5t-35 -91.5t35 -89.5t86 -35.5z" />
    <glyph glyph-name="ae" unicode="&#xe6;" horiz-adv-x="1304" 
d="M70 711q18 94 90.5 156.5t169.5 62.5q144 0 217 -107l24 -47q134 158 334 158q148 0 246 -98q100 -93 100 -244q0 -27 -4 -47h-631q-4 -32 -4 -78q0 -160 83.5 -257t219.5 -97q94 0 169 44t149 146q-12 -147 -107 -242q-94 -94 -237 -94q-131 0 -233 68.5t-154 185.5
q-74 -250 -269 -250q-96 0 -154.5 54.5t-58.5 140.5q0 122 130 205q112 72 315 125v100q0 92 -43 147q-43 58 -129 58q-107 0 -223 -90zM631 627h440q-1 98 -60 156.5t-151 58.5q-88 0 -149 -59t-80 -156zM465 311v113q-29 -8 -119 -47q-180 -76 -180 -176q0 -46 26.5 -75.5
t75.5 -29.5q72 0 133 58q64 58 64 157z" />
    <glyph glyph-name="ccedilla" unicode="&#xe7;" horiz-adv-x="831" 
d="M457 842q-122 0 -194.5 -101t-72.5 -274q0 -163 82.5 -258.5t210.5 -95.5q168 0 318 196q-12 -143 -99.5 -238t-220.5 -102l-24 -67q133 -62 133 -178q0 -72 -45.5 -117t-120.5 -45q-78 0 -143 30q0 3 -1 13.5t-1 13.5q0 63 30 109q73 -99 135 -99q29 0 45.5 15.5
t16.5 40.5q0 40 -34.5 72.5t-119.5 68.5l70 143q-175 12 -285 146q-104 131 -104 319q0 214 131 357t325 143q159 0 283 -80q6 -38 6 -80q0 -129 -43 -227q-99 295 -278 295z" />
    <glyph glyph-name="egrave" unicode="&#xe8;" horiz-adv-x="874" 
d="M33 434q0 213 129 357q128 143 319 143q148 0 246 -98q100 -93 100 -244q0 -27 -4 -47h-630q-5 -40 -5 -78q0 -160 84 -257t220 -97q94 0 168.5 44t148.5 146q-12 -147 -107 -242q-94 -94 -237 -94q-192 0 -311 137q-121 139 -121 330zM207 627h440q-1 98 -60 156.5
t-151 58.5q-88 0 -149 -59t-80 -156zM293 1479l172 57l78 -506z" />
    <glyph glyph-name="eacute" unicode="&#xe9;" horiz-adv-x="874" 
d="M33 434q0 213 129 357q128 143 319 143q148 0 246 -98q100 -93 100 -244q0 -27 -4 -47h-630q-5 -40 -5 -78q0 -160 84 -257t220 -97q94 0 168.5 44t148.5 146q-12 -147 -107 -242q-94 -94 -237 -94q-192 0 -311 137q-121 139 -121 330zM207 627h440q-1 98 -60 156.5
t-151 58.5q-88 0 -149 -59t-80 -156zM625 1479l-250 -449l78 506z" />
    <glyph glyph-name="ecircumflex" unicode="&#xea;" horiz-adv-x="874" 
d="M33 434q0 213 129 357q128 143 319 143q148 0 246 -98q100 -93 100 -244q0 -27 -4 -47h-630q-5 -40 -5 -78q0 -160 84 -257t220 -97q94 0 168.5 44t148.5 146q-12 -147 -107 -242q-94 -94 -237 -94q-192 0 -311 137q-121 139 -121 330zM207 627h440q-1 98 -60 156.5
t-151 58.5q-88 0 -149 -59t-80 -156zM244 1034l215 516l215 -516l-215 226z" />
    <glyph glyph-name="edieresis" unicode="&#xeb;" horiz-adv-x="874" 
d="M33 434q0 213 129 357q128 143 319 143q148 0 246 -98q100 -93 100 -244q0 -27 -4 -47h-630q-5 -40 -5 -78q0 -160 84 -257t220 -97q94 0 168.5 44t148.5 146q-12 -147 -107 -242q-94 -94 -237 -94q-192 0 -311 137q-121 139 -121 330zM207 627h440q-1 98 -60 156.5
t-151 58.5q-88 0 -149 -59t-80 -156zM440 1333l-127 -127l-127 127l127 127zM729 1333l-127 -127l-127 127l127 127z" />
    <glyph glyph-name="igrave" unicode="&#xec;" horiz-adv-x="454" 
d="M305 551v-160q0 -112 4 -198q9 -127 68 -195h-23q-21 0 -65.5 4t-55.5 4q-12 0 -56.5 -4t-65.5 -4h-21q57 66 66 195q6 65 6 198v51q0 128 -6 193q-5 66 -20.5 97.5t-59.5 62.5q121 52 239 127q-3 -97 -5.5 -191t-3.5 -134t-1 -46zM76 1479l172 57l78 -506z" />
    <glyph glyph-name="iacute" unicode="&#xed;" horiz-adv-x="454" 
d="M305 551v-160q0 -112 4 -198q9 -127 68 -195h-23q-21 0 -65.5 4t-55.5 4q-12 0 -56.5 -4t-65.5 -4h-21q57 66 66 195q6 65 6 198v51q0 128 -6 193q-5 66 -20.5 97.5t-59.5 62.5q121 52 239 127q-3 -97 -5.5 -191t-3.5 -134t-1 -46zM408 1479l-250 -449l78 506z" />
    <glyph glyph-name="icircumflex" unicode="&#xee;" horiz-adv-x="454" 
d="M305 551v-160q0 -112 4 -198q9 -127 68 -195h-23q-21 0 -65.5 4t-55.5 4q-12 0 -56.5 -4t-65.5 -4h-21q57 66 66 195q6 65 6 198v51q0 128 -6 193q-5 66 -20.5 97.5t-59.5 62.5q121 52 239 127q-3 -97 -5.5 -191t-3.5 -134t-1 -46zM27 1034l215 516l215 -516l-215 226z
" />
    <glyph glyph-name="idieresis" unicode="&#xef;" horiz-adv-x="454" 
d="M305 551v-160q0 -112 4 -198q9 -127 68 -195h-23q-21 0 -65.5 4t-55.5 4q-12 0 -56.5 -4t-65.5 -4h-21q57 66 66 195q6 65 6 198v51q0 128 -6 193q-5 66 -20.5 97.5t-59.5 62.5q121 52 239 127q-3 -97 -5.5 -191t-3.5 -134t-1 -46zM223 1333l-127 -127l-127 127l127 127z
M512 1333l-127 -127l-127 127l127 127z" />
    <glyph glyph-name="eth" unicode="&#xf0;" horiz-adv-x="980" 
d="M489 1337l199 113l39 -66l-162 -92q183 -148 281 -348.5t98 -427.5q0 -248 -127 -399q-126 -150 -330 -150q-196 0 -329 139q-131 137 -131 345q0 200 131 340q131 143 319 143q127 0 221 -64q-82 210 -239 361l-273 -150l-36 64l249 139q-162 137 -342 225
q99 -3 183 -36q86 -33 135 -62q42 -24 114 -74zM494 66q124 0 201 109.5t77 303.5q0 163 -80.5 262t-204.5 99q-133 0 -217 -99t-84 -272q0 -184 85 -293.5t223 -109.5z" />
    <glyph glyph-name="ntilde" unicode="&#xf1;" horiz-adv-x="999" 
d="M856 627v-236q0 -112 4 -198q9 -127 68 -195h-23q-21 0 -65.5 4t-55.5 4q-12 0 -56.5 -4t-65.5 -4h-21q57 66 66 195q6 65 6 198v217q0 87 -48.5 140t-129.5 53q-103 0 -166.5 -63.5t-63.5 -164.5v-182q0 -112 4 -198q9 -127 68 -195h-23q-21 0 -65.5 4t-55.5 4
q-12 0 -56.5 -4t-65.5 -4h-21q57 66 66 195q6 65 6 198v51q0 128 -6 193q-5 66 -20.5 97.5t-59.5 62.5q121 52 239 127q-12 -99 -12 -181q102 193 277 193q156 0 233 -127q43 -76 43 -180zM522 1389q85 -39 140 -39q72 0 155 65q-17 -82 -76.5 -136t-132.5 -54
q-48 0 -119 30q-85 39 -139 39q-72 0 -155 -65q17 82 76 136t132 54q49 0 119 -30z" />
    <glyph glyph-name="ograve" unicode="&#xf2;" horiz-adv-x="983" 
d="M33 451q0 198 133 340q131 143 321 143q196 0 326 -139q131 -137 131 -344q0 -202 -131 -342q-130 -142 -315 -142q-201 0 -334 139q-131 137 -131 345zM481 840q-126 0 -203 -98.5t-77 -272.5q0 -187 82.5 -295t220.5 -108q123 0 197.5 99t74.5 273q0 178 -84 291
q-82 111 -211 111zM319 1479l173 57l77 -506z" />
    <glyph glyph-name="oacute" unicode="&#xf3;" horiz-adv-x="983" 
d="M33 451q0 198 133 340q131 143 321 143q196 0 326 -139q131 -137 131 -344q0 -202 -131 -342q-130 -142 -315 -142q-201 0 -334 139q-131 137 -131 345zM481 840q-126 0 -203 -98.5t-77 -272.5q0 -187 82.5 -295t220.5 -108q123 0 197.5 99t74.5 273q0 178 -84 291
q-82 111 -211 111zM649 1479l-250 -449l78 506z" />
    <glyph glyph-name="ocircumflex" unicode="&#xf4;" horiz-adv-x="983" 
d="M33 451q0 198 133 340q131 143 321 143q196 0 326 -139q131 -137 131 -344q0 -202 -131 -342q-130 -142 -315 -142q-201 0 -334 139q-131 137 -131 345zM481 840q-126 0 -203 -98.5t-77 -272.5q0 -187 82.5 -295t220.5 -108q123 0 197.5 99t74.5 273q0 178 -84 291
q-82 111 -211 111zM270 1034l215 516l215 -516l-215 226z" />
    <glyph glyph-name="otilde" unicode="&#xf5;" horiz-adv-x="983" 
d="M33 451q0 198 133 340q131 143 321 143q196 0 326 -139q131 -137 131 -344q0 -202 -131 -342q-130 -142 -315 -142q-201 0 -334 139q-131 137 -131 345zM481 840q-126 0 -203 -98.5t-77 -272.5q0 -187 82.5 -295t220.5 -108q123 0 197.5 99t74.5 273q0 178 -84 291
q-82 111 -211 111zM500 1389q85 -39 139 -39q73 0 156 65q-17 -82 -76.5 -136t-132.5 -54q-48 0 -119 30q-85 39 -139 39q-73 0 -156 -65q17 82 76.5 136t132.5 54q48 0 119 -30z" />
    <glyph glyph-name="odieresis" unicode="&#xf6;" horiz-adv-x="983" 
d="M33 451q0 198 133 340q131 143 321 143q196 0 326 -139q131 -137 131 -344q0 -202 -131 -342q-130 -142 -315 -142q-201 0 -334 139q-131 137 -131 345zM481 840q-126 0 -203 -98.5t-77 -272.5q0 -187 82.5 -295t220.5 -108q123 0 197.5 99t74.5 273q0 178 -84 291
q-82 111 -211 111zM467 1333l-127 -127l-127 127l127 127zM756 1333l-127 -127l-127 127l127 127z" />
    <glyph glyph-name="divide" unicode="&#xf7;" horiz-adv-x="942" 
d="M61 444v72h820v-72h-820zM590 188l-119 -122l-123 122l123 121zM590 772l-119 -123l-123 123l123 121z" />
    <glyph glyph-name="oslash" unicode="&#xf8;" horiz-adv-x="983" 
d="M268 27l-118 -207l-64 37l121 211q-174 137 -174 383q0 198 133 340q134 143 321 143q113 0 193 -45l119 207l67 -39l-118 -207q93 -68 144.5 -172.5t51.5 -226.5q0 -202 -131 -342q-130 -142 -315 -142q-113 0 -230 60zM778 438q0 189 -96 305l-356 -620q69 -57 178 -57
q124 0 199 99t75 273zM481 840q-126 0 -204 -99t-78 -272q0 -181 75 -287l353 615q-64 43 -146 43z" />
    <glyph glyph-name="ugrave" unicode="&#xf9;" horiz-adv-x="980" 
d="M135 274v224q0 128 -6 192q-9 103 -72 195q108 2 236 10q-14 -304 -14 -369v-233q0 -95 42.5 -144t118.5 -49q108 0 173 70.5t65 183.5v144q0 128 -6 192q-9 103 -72 195q108 2 236 10q-15 -325 -15 -369v-67q0 -141 6 -205q9 -111 82 -160q-127 -58 -217 -117l-4 195
q-39 -92 -114.5 -148.5t-165.5 -56.5q-158 0 -232 121q-41 68 -41 186zM309 1479l172 57l78 -506z" />
    <glyph glyph-name="uacute" unicode="&#xfa;" horiz-adv-x="980" 
d="M135 274v224q0 128 -6 192q-9 103 -72 195q108 2 236 10q-14 -304 -14 -369v-233q0 -95 42.5 -144t118.5 -49q108 0 173 70.5t65 183.5v144q0 128 -6 192q-9 103 -72 195q108 2 236 10q-15 -325 -15 -369v-67q0 -141 6 -205q9 -111 82 -160q-127 -58 -217 -117l-4 195
q-39 -92 -114.5 -148.5t-165.5 -56.5q-158 0 -232 121q-41 68 -41 186zM641 1479l-250 -449l78 506z" />
    <glyph glyph-name="ucircumflex" unicode="&#xfb;" horiz-adv-x="980" 
d="M135 274v224q0 128 -6 192q-9 103 -72 195q108 2 236 10q-14 -304 -14 -369v-233q0 -95 42.5 -144t118.5 -49q108 0 173 70.5t65 183.5v144q0 128 -6 192q-9 103 -72 195q108 2 236 10q-15 -325 -15 -369v-67q0 -141 6 -205q9 -111 82 -160q-127 -58 -217 -117l-4 195
q-39 -92 -114.5 -148.5t-165.5 -56.5q-158 0 -232 121q-41 68 -41 186zM260 1034l215 516l215 -516l-215 226z" />
    <glyph glyph-name="udieresis" unicode="&#xfc;" horiz-adv-x="980" 
d="M135 274v224q0 128 -6 192q-9 103 -72 195q108 2 236 10q-14 -304 -14 -369v-233q0 -95 42.5 -144t118.5 -49q108 0 173 70.5t65 183.5v144q0 128 -6 192q-9 103 -72 195q108 2 236 10q-15 -325 -15 -369v-67q0 -141 6 -205q9 -111 82 -160q-127 -58 -217 -117l-4 195
q-39 -92 -114.5 -148.5t-165.5 -56.5q-158 0 -232 121q-41 68 -41 186zM457 1333l-127 -127l-127 127l127 127zM745 1333l-127 -127l-126 127l126 127z" />
    <glyph glyph-name="yacute" unicode="&#xfd;" horiz-adv-x="811" 
d="M-55 -528q-11 57 -11 96q0 66 13 110q63 -75 135 -75q44 0 72 23.5t57 86.5l139 307l-198 494l-84 207q-49 109 -80 166h28q14 0 57.5 -4t55.5 -4q13 0 57.5 4t61.5 4h20q-41 -59 -41 -99q0 -70 78 -270l127 -319l135 317q72 173 72 248q0 61 -45 123h20q6 0 46 -4t57 -4
q9 0 46 4t44 4h22l-84 -191l-43 -96l-34 -86l-353 -799q-64 -140 -116 -198q-62 -62 -158 -62q-53 0 -96 17zM596 1479l-250 -449l78 506z" />
    <glyph glyph-name="thorn" unicode="&#xfe;" horiz-adv-x="991" 
d="M537 57q120 0 190 87.5t70 250.5q0 187 -78.5 295.5t-202.5 108.5q-107 0 -169 -62.5t-62 -163.5v-241q0 -129 68 -202t184 -73zM141 -147v1191q0 128 -6 193q-5 66 -20.5 97.5t-59.5 62.5q124 53 240 127q-3 -97 -5.5 -191t-3.5 -134t-1 -46l-2 -408q44 84 119.5 136.5
t158.5 52.5q157 0 270 -131q115 -133 115 -344q0 -217 -123 -355q-122 -137 -293 -137q-156 0 -245 74q0 -69 1 -162.5t2 -158.5l1 -66q1 -67 19.5 -107t68.5 -88h-23q-21 0 -75.5 4.5t-65.5 4.5q-12 0 -57 -4.5t-66 -4.5h-20q56 65 65 195q6 64 6 199z" />
    <glyph glyph-name="ydieresis" unicode="&#xff;" horiz-adv-x="811" 
d="M-55 -528q-11 57 -11 96q0 66 13 110q63 -75 135 -75q44 0 72 23.5t57 86.5l139 307l-198 494l-84 207q-49 109 -80 166h28q14 0 57.5 -4t55.5 -4q13 0 57.5 4t61.5 4h20q-41 -59 -41 -99q0 -70 78 -270l127 -319l135 317q72 173 72 248q0 61 -45 123h20q6 0 46 -4t57 -4
q9 0 46 4t44 4h22l-84 -191l-43 -96l-34 -86l-353 -799q-64 -140 -116 -198q-62 -62 -158 -62q-53 0 -96 17zM410 1333l-127 -127l-127 127l127 127zM698 1333l-127 -127l-127 127l127 127z" />
    <glyph glyph-name="Amacron" unicode="&#x100;" horiz-adv-x="1206" 
d="M197 446l415 1024l398 -1024q72 -185 92 -229q69 -164 115 -219h-31q-18 0 -69 3t-66 3q-14 0 -64 -3t-72 -3h-20q41 53 41 111q0 39 -21 106q-16 52 -24 76l-17 45q-3 13 -18.5 55.5t-19.5 54.5l-17 41h-500l-14 -41q-88 -230 -88 -315q0 -69 55 -133h-22q-19 0 -64 3
t-55 3q-18 0 -63.5 -3t-55.5 -3h-22q60 91 114 219q27 61 93 229zM786 575l-208 535l-222 -535h430zM885 1606h-553v110h553v-110z" />
    <glyph glyph-name="amacron" unicode="&#x101;" horiz-adv-x="741" 
d="M78 711q18 94 90.5 156.5t169.5 62.5q144 0 217 -107q61 -91 61 -221v-196q0 -80 5 -187q6 -96 25 -143.5t65 -79.5q-27 -6 -49 -6q-75 0 -122 43t-61 114q-83 -176 -237 -176q-96 0 -154.5 54.5t-58.5 140.5q0 122 129 205q112 72 315 125v100q0 92 -43 147
q-43 58 -129 58q-107 0 -223 -90zM473 311v113q-29 -8 -119 -47q-180 -76 -180 -176q0 -46 26.5 -75.5t75.5 -29.5q73 0 134 58q63 57 63 157zM614 1264h-553v110h553v-110z" />
    <glyph glyph-name="Abreve" unicode="&#x102;" horiz-adv-x="1206" 
d="M197 446l415 1024l398 -1024q72 -185 92 -229q69 -164 115 -219h-31q-18 0 -69 3t-66 3q-14 0 -64 -3t-72 -3h-20q41 53 41 111q0 39 -21 106q-16 52 -24 76l-17 45q-3 13 -18.5 55.5t-19.5 54.5l-17 41h-500l-14 -41q-88 -230 -88 -315q0 -69 55 -133h-22q-19 0 -64 3
t-55 3q-18 0 -63.5 -3t-55.5 -3h-22q60 91 114 219q27 61 93 229zM786 575l-208 535l-222 -535h430zM940 1804q-24 -125 -117 -198.5t-215 -73.5q-121 0 -212 73.5t-115 198.5q84 -77 154.5 -105t174.5 -28t175 28t155 105z" />
    <glyph glyph-name="abreve" unicode="&#x103;" horiz-adv-x="741" 
d="M78 711q18 94 90.5 156.5t169.5 62.5q144 0 217 -107q61 -91 61 -221v-196q0 -80 5 -187q6 -96 25 -143.5t65 -79.5q-27 -6 -49 -6q-75 0 -122 43t-61 114q-83 -176 -237 -176q-96 0 -154.5 54.5t-58.5 140.5q0 122 129 205q112 72 315 125v100q0 92 -43 147
q-43 58 -129 58q-107 0 -223 -90zM473 311v113q-29 -8 -119 -47q-180 -76 -180 -176q0 -46 26.5 -75.5t75.5 -29.5q73 0 134 58q63 57 63 157zM586 1524q4 -78 4 -80q0 -176 -67.5 -272.5t-184.5 -96.5t-184.5 96.5t-67.5 272.5q0 2 4 80q44 -159 103.5 -232t144.5 -73
t144.5 73t103.5 232z" />
    <glyph glyph-name="Aogonek" unicode="&#x104;" horiz-adv-x="1206" 
d="M1186 -217q4 -32 4 -39q0 -74 -41 -118t-109 -44q-72 0 -120 48t-48 122q0 134 154 252q-105 -6 -111 -6h-20q41 53 41 111q0 39 -21 106q-16 52 -24 76l-17 45q-3 13 -18.5 55.5t-19.5 54.5l-17 41h-500l-14 -41q-88 -230 -88 -315q0 -69 55 -133h-22q-19 0 -64 3t-55 3
q-18 0 -63.5 -3t-55.5 -3h-22q60 91 114 219q24 54 54 131l39 98l415 1024l398 -1024q72 -185 92 -229q69 -164 115 -219h-31q-14 0 -92 4q-119 -107 -119 -209q0 -46 26 -71t68 -25q70 0 117 86zM786 575l-208 535l-222 -535h430z" />
    <glyph glyph-name="aogonek" unicode="&#x105;" horiz-adv-x="741" 
d="M692 -217q4 -32 4 -39q0 -75 -40.5 -118.5t-108.5 -43.5q-73 0 -120.5 48t-47.5 122q0 142 178 268q-61 42 -78 127q-83 -176 -237 -176q-96 0 -154.5 54.5t-58.5 140.5q0 122 129 205q112 72 315 125v100q0 92 -43 147q-43 58 -129 58q-107 0 -223 -90q18 94 90.5 156.5
t169.5 62.5q144 0 217 -107q61 -91 61 -221v-196q0 -80 5 -187q6 -96 25 -143.5t65 -79.5q-27 -6 -49 -6q-31 0 -64 10q-117 -102 -117 -207q0 -46 26 -71t68 -25q70 0 117 86zM473 311v113q-29 -8 -119 -47q-180 -76 -180 -176q0 -46 26.5 -75.5t75.5 -29.5q73 0 134 58
q63 57 63 157z" />
    <glyph glyph-name="Cacute" unicode="&#x106;" horiz-adv-x="1394" 
d="M872 59q180 0 271 99q95 103 176 313q8 -52 8 -129q0 -157 -20 -260q-195 -115 -461 -115q-120 0 -235 30t-217 93t-179 151t-121.5 212t-44.5 268q0 330 232 536q232 209 563 209q244 0 452 -102q4 -70 4 -121q0 -133 -16 -227q-77 188 -170 272t-268 84
q-270 0 -438 -180q-166 -181 -166 -469q0 -299 188 -481q192 -183 442 -183zM1110 1645l-496 -136l414 297z" />
    <glyph glyph-name="cacute" unicode="&#x107;" horiz-adv-x="831" 
d="M457 842q-122 0 -194.5 -101t-72.5 -274q0 -163 82.5 -258.5t210.5 -95.5q168 0 318 196q-12 -150 -106.5 -246t-239.5 -96q-191 0 -308 135q-114 138 -114 332q0 214 131 357t325 143q159 0 283 -80q6 -38 6 -80q0 -129 -43 -227q-99 295 -278 295zM637 1479l-250 -449
l78 506z" />
    <glyph glyph-name="Ccircumflex" unicode="&#x108;" horiz-adv-x="1394" 
d="M872 59q180 0 271 99q95 103 176 313q8 -52 8 -129q0 -157 -20 -260q-195 -115 -461 -115q-120 0 -235 30t-217 93t-179 151t-121.5 212t-44.5 268q0 330 232 536q232 209 563 209q244 0 452 -102q4 -70 4 -121q0 -133 -16 -227q-77 188 -170 272t-268 84
q-270 0 -438 -180q-166 -181 -166 -469q0 -299 188 -481q192 -183 442 -183zM1120 1516l-299 120l-299 -120l299 311z" />
    <glyph glyph-name="ccircumflex" unicode="&#x109;" horiz-adv-x="831" 
d="M457 842q-122 0 -194.5 -101t-72.5 -274q0 -163 82.5 -258.5t210.5 -95.5q168 0 318 196q-12 -150 -106.5 -246t-239.5 -96q-191 0 -308 135q-114 138 -114 332q0 214 131 357t325 143q159 0 283 -80q6 -38 6 -80q0 -129 -43 -227q-99 295 -278 295zM256 1034l215 516
l215 -516l-215 226z" />
    <glyph glyph-name="Cdotaccent" unicode="&#x10a;" horiz-adv-x="1394" 
d="M872 59q180 0 271 99q95 103 176 313q8 -52 8 -129q0 -157 -20 -260q-195 -115 -461 -115q-120 0 -235 30t-217 93t-179 151t-121.5 212t-44.5 268q0 330 232 536q232 209 563 209q244 0 452 -102q4 -70 4 -121q0 -133 -16 -227q-77 188 -170 272t-268 84
q-270 0 -438 -180q-166 -181 -166 -469q0 -299 188 -481q192 -183 442 -183zM965 1661l-144 -143l-143 143l143 143z" />
    <glyph glyph-name="cdotaccent" unicode="&#x10b;" horiz-adv-x="831" 
d="M457 842q-122 0 -194.5 -101t-72.5 -274q0 -163 82.5 -258.5t210.5 -95.5q168 0 318 196q-12 -150 -106.5 -246t-239.5 -96q-191 0 -308 135q-114 138 -114 332q0 214 131 357t325 143q159 0 283 -80q6 -38 6 -80q0 -129 -43 -227q-99 295 -278 295zM614 1389l-143 -144
l-143 144l143 143z" />
    <glyph glyph-name="Ccaron" unicode="&#x10c;" horiz-adv-x="1394" 
d="M872 59q180 0 271 99q95 103 176 313q8 -52 8 -129q0 -157 -20 -260q-195 -115 -461 -115q-120 0 -235 30t-217 93t-179 151t-121.5 212t-44.5 268q0 330 232 536q232 209 563 209q244 0 452 -102q4 -70 4 -121q0 -133 -16 -227q-77 188 -170 272t-268 84
q-270 0 -438 -180q-166 -181 -166 -469q0 -299 188 -481q192 -183 442 -183zM821 1491l-299 311l299 -121l299 121z" />
    <glyph glyph-name="ccaron" unicode="&#x10d;" horiz-adv-x="831" 
d="M457 842q-122 0 -194.5 -101t-72.5 -274q0 -163 82.5 -258.5t210.5 -95.5q168 0 318 196q-12 -150 -106.5 -246t-239.5 -96q-191 0 -308 135q-114 138 -114 332q0 214 131 357t325 143q159 0 283 -80q6 -38 6 -80q0 -129 -43 -227q-99 295 -278 295zM471 1305l215 225
l-215 -516l-215 516z" />
    <glyph glyph-name="Dcaron" unicode="&#x10e;" horiz-adv-x="1445" 
d="M608 84q285 0 441.5 164t156.5 463q0 296 -174 467q-171 174 -440 174q-153 0 -205 -19q-48 -15 -51 -78q-6 -65 -6 -211v-618q0 -162 6 -223q9 -79 59 -99t213 -20zM166 446v545q0 128 -6 230q-9 149 -76 219h25q9 0 63 -5t78 -5q60 0 174 6q101 8 184 8
q125 0 240.5 -29t215.5 -89.5t173.5 -146t115.5 -205.5t42 -261q0 -326 -213 -527q-210 -198 -559 -198q-83 0 -220 10q-133 10 -153 10q-24 0 -78 -5t-63 -5h-25q67 70 76 219q6 102 6 229zM635 1491l-299 311l299 -121l299 121z" />
    <glyph glyph-name="dcaron" unicode="&#x10f;" horiz-adv-x="1058" 
d="M455 842q-110 0 -185 -95.5t-75 -257.5q0 -180 80.5 -285.5t207.5 -105.5q102 0 162 65.5t60 176.5v213q0 141 -70.5 215t-179.5 74zM705 866v178q0 118 -7 193q-5 66 -20.5 97.5t-59.5 62.5q124 53 240 127q-3 -97 -5.5 -191t-3.5 -134t-1 -46v-715q0 -120 6 -184
q9 -113 80 -160q-127 -58 -217 -117l-6 179q-43 -81 -119 -135t-150 -54q-162 0 -280 127q-117 126 -117 344t127 357t299 139q142 0 234 -68zM1139 1464l-211 -348l20 412z" />
    <glyph glyph-name="Dcroat" unicode="&#x110;" horiz-adv-x="1445" 
d="M170 676h-170v72h170v243q0 128 -6 230q-9 149 -76 219h25q9 0 63 -5t78 -5q60 0 174 6q101 8 184 8q125 0 240.5 -29t215.5 -89.5t173.5 -146t115.5 -205.5t42 -261q0 -326 -213 -527q-210 -198 -559 -198q-82 0 -219 10q-133 10 -154 10q-24 0 -78 -5t-63 -5h-25
q67 70 76 219q6 102 6 229v230zM612 84q285 0 441.5 164t156.5 463q0 296 -174 467q-171 174 -440 174q-153 0 -205 -19q-48 -15 -51 -78q-6 -65 -6 -211v-296h446v-72h-446v-250q0 -162 6 -223q9 -79 59 -99t213 -20z" />
    <glyph glyph-name="dslash" unicode="&#x111;" horiz-adv-x="1007" 
d="M705 1106h-345v78h342l-4 53q-5 66 -20.5 97.5t-59.5 62.5q124 53 240 127q-3 -92 -5.5 -177.5t-3.5 -122t-1 -40.5h106v-78h-106v-668q0 -120 6 -184q9 -113 80 -160q-127 -58 -217 -117l-6 179q-43 -81 -119 -135t-150 -54q-162 0 -280 127q-117 126 -117 344t127 357
t299 139q142 0 234 -68v240zM455 842q-110 0 -185 -95.5t-75 -257.5q0 -180 80.5 -285.5t207.5 -105.5q102 0 162 65.5t60 176.5v213q0 141 -70.5 215t-179.5 74z" />
    <glyph glyph-name="Emacron" unicode="&#x112;" horiz-adv-x="1003" 
d="M608 793q137 15 201 106v-25q-5 -38 -5 -131t5 -133v-24q-61 88 -201 106q-92 10 -278 10v-276q0 -100 6 -223q1 -71 29 -95t102 -24q139 0 217 10q156 21 238 252q8 -49 8 -94q0 -123 -33 -258q-208 10 -647 10q-24 0 -78 -3t-63 -3h-25q67 70 76 219q6 102 6 229v545
q0 128 -6 230q-9 149 -76 219h25q9 0 63 -3t78 -3h377q147 0 227 6q16 -88 16 -178q0 -60 -10 -138q-89 195 -233 219q-79 11 -176 11q-71 0 -90.5 -17.5t-24.5 -81.5q-6 -65 -6 -211v-262q177 0 278 11zM766 1606h-553v110h553v-110z" />
    <glyph glyph-name="emacron" unicode="&#x113;" horiz-adv-x="874" 
d="M33 434q0 213 129 357q128 143 319 143q148 0 246 -98q100 -93 100 -244q0 -27 -4 -47h-630q-5 -40 -5 -78q0 -160 84 -257t220 -97q94 0 168.5 44t148.5 146q-12 -147 -107 -242q-94 -94 -237 -94q-192 0 -311 137q-121 139 -121 330zM207 627h440q-1 98 -60 156.5
t-151 58.5q-88 0 -149 -59t-80 -156zM735 1264h-553v110h553v-110z" />
    <glyph glyph-name="Ebreve" unicode="&#x114;" horiz-adv-x="1003" 
d="M608 793q137 15 201 106v-25q-5 -38 -5 -131t5 -133v-24q-61 88 -201 106q-92 10 -278 10v-276q0 -100 6 -223q1 -71 29 -95t102 -24q139 0 217 10q156 21 238 252q8 -49 8 -94q0 -123 -33 -258q-208 10 -647 10q-24 0 -78 -3t-63 -3h-25q67 70 76 219q6 102 6 229v545
q0 128 -6 230q-9 149 -76 219h25q9 0 63 -3t78 -3h377q147 0 227 6q16 -88 16 -178q0 -60 -10 -138q-89 195 -233 219q-79 11 -176 11q-71 0 -90.5 -17.5t-24.5 -81.5q-6 -65 -6 -211v-262q177 0 278 11zM821 1804q-24 -125 -117.5 -198.5t-214.5 -73.5t-212 73.5
t-115 198.5q84 -77 155 -105t175 -28t174.5 28t154.5 105z" />
    <glyph glyph-name="ebreve" unicode="&#x115;" horiz-adv-x="874" 
d="M33 434q0 213 129 357q128 143 319 143q148 0 246 -98q100 -93 100 -244q0 -27 -4 -47h-630q-5 -40 -5 -78q0 -160 84 -257t220 -97q94 0 168.5 44t148.5 146q-12 -147 -107 -242q-94 -94 -237 -94q-192 0 -311 137q-121 139 -121 330zM207 627h440q-1 98 -60 156.5
t-151 58.5q-88 0 -149 -59t-80 -156zM707 1524q4 -78 4 -80q0 -176 -67.5 -272.5t-184.5 -96.5t-184.5 96.5t-67.5 272.5q0 2 4 80q44 -159 103.5 -232t144.5 -73t144.5 73t103.5 232z" />
    <glyph glyph-name="Edotaccent" unicode="&#x116;" horiz-adv-x="1003" 
d="M608 793q137 15 201 106v-25q-5 -38 -5 -131t5 -133v-24q-61 88 -201 106q-92 10 -278 10v-276q0 -100 6 -223q1 -71 29 -95t102 -24q139 0 217 10q156 21 238 252q8 -49 8 -94q0 -123 -33 -258q-208 10 -647 10q-24 0 -78 -3t-63 -3h-25q67 70 76 219q6 102 6 229v545
q0 128 -6 230q-9 149 -76 219h25q9 0 63 -3t78 -3h377q147 0 227 6q16 -88 16 -178q0 -60 -10 -138q-89 195 -233 219q-79 11 -176 11q-71 0 -90.5 -17.5t-24.5 -81.5q-6 -65 -6 -211v-262q177 0 278 11zM633 1661l-144 -143l-143 143l143 143z" />
    <glyph glyph-name="edotaccent" unicode="&#x117;" horiz-adv-x="874" 
d="M33 434q0 213 129 357q128 143 319 143q148 0 246 -98q100 -93 100 -244q0 -27 -4 -47h-630q-5 -40 -5 -78q0 -160 84 -257t220 -97q94 0 168.5 44t148.5 146q-12 -147 -107 -242q-94 -94 -237 -94q-192 0 -311 137q-121 139 -121 330zM207 627h440q-1 98 -60 156.5
t-151 58.5q-88 0 -149 -59t-80 -156zM602 1389l-143 -144l-144 144l144 143z" />
    <glyph glyph-name="Eogonek" unicode="&#x118;" horiz-adv-x="1003" 
d="M680 -217q4 -32 4 -39q0 -75 -40.5 -118.5t-108.5 -43.5q-73 0 -120.5 48t-47.5 122q0 136 153 250q-57 2 -270 2q-24 0 -78 -3t-63 -3h-25q67 70 76 219q6 102 6 229v545q0 128 -6 230q-9 149 -76 219h25q9 0 63 -3t78 -3h377q147 0 227 6q16 -88 16 -178
q0 -60 -10 -138q-89 195 -233 219q-79 11 -176 11q-71 0 -90.5 -17.5t-24.5 -81.5q-6 -65 -6 -211v-262q177 0 278 11q137 15 201 106v-25q-5 -38 -5 -131t5 -133v-24q-61 88 -201 106q-92 10 -278 10v-276q0 -100 6 -223q1 -71 29 -95t102 -24q139 0 217 10q156 21 238 252
q8 -49 8 -94q0 -123 -33 -258q-145 8 -309 8q-119 -107 -119 -209q0 -46 26 -71t68 -25q70 0 117 86z" />
    <glyph glyph-name="eogonek" unicode="&#x119;" horiz-adv-x="874" 
d="M598 -217q4 -32 4 -39q0 -75 -40.5 -118.5t-108.5 -43.5q-73 0 -120.5 48t-47.5 122q0 117 116 221q-165 21 -268 154q-100 129 -100 307q0 213 129 357q128 143 319 143q148 0 246 -98q100 -93 100 -244q0 -27 -4 -47h-630q-5 -40 -5 -78q0 -160 84 -257t220 -97
q94 0 168.5 44t148.5 146q-12 -145 -105.5 -240t-232.5 -96q-84 -87 -84 -174q0 -46 26 -71t68 -25q70 0 117 86zM207 627h440q-1 98 -60 156.5t-151 58.5q-88 0 -149 -59t-80 -156z" />
    <glyph glyph-name="Ecaron" unicode="&#x11a;" horiz-adv-x="1003" 
d="M608 793q137 15 201 106v-25q-5 -38 -5 -131t5 -133v-24q-61 88 -201 106q-92 10 -278 10v-276q0 -100 6 -223q1 -71 29 -95t102 -24q139 0 217 10q156 21 238 252q8 -49 8 -94q0 -123 -33 -258q-208 10 -647 10q-24 0 -78 -3t-63 -3h-25q67 70 76 219q6 102 6 229v545
q0 128 -6 230q-9 149 -76 219h25q9 0 63 -3t78 -3h377q147 0 227 6q16 -88 16 -178q0 -60 -10 -138q-89 195 -233 219q-79 11 -176 11q-71 0 -90.5 -17.5t-24.5 -81.5q-6 -65 -6 -211v-262q177 0 278 11zM489 1491l-299 311l299 -121l299 121z" />
    <glyph glyph-name="ecaron" unicode="&#x11b;" horiz-adv-x="874" 
d="M33 434q0 213 129 357q128 143 319 143q148 0 246 -98q100 -93 100 -244q0 -27 -4 -47h-630q-5 -40 -5 -78q0 -160 84 -257t220 -97q94 0 168.5 44t148.5 146q-12 -147 -107 -242q-94 -94 -237 -94q-192 0 -311 137q-121 139 -121 330zM207 627h440q-1 98 -60 156.5
t-151 58.5q-88 0 -149 -59t-80 -156zM459 1305l215 225l-215 -516l-215 516z" />
    <glyph glyph-name="Gcircumflex" unicode="&#x11c;" horiz-adv-x="1433" 
d="M1141 244q0 96 -4 186q-9 141 -99 219h25q15 0 67 -6q70 -4 84 -4q24 0 77.5 5t62.5 5h24q-43 -44 -61 -90t-19 -125q-4 -180 -4 -196q0 -67 11 -164q-195 -107 -451 -107q-316 0 -553 180q-118 93 -185 242t-67 332q0 331 230 536q232 209 563 209q228 0 452 -82
q9 -64 9 -120q0 -117 -21 -228q-83 191 -172 262q-89 74 -266 74q-271 0 -436 -180q-166 -181 -166 -469q0 -299 188 -481q190 -181 455 -181q135 0 195.5 43t60.5 140zM1118 1516l-299 120l-299 -120l299 311z" />
    <glyph glyph-name="gcircumflex" unicode="&#x11d;" horiz-adv-x="854" 
d="M913 895l-55 -125l-176 35q84 -84 84 -221q0 -147 -96 -248q-96 -96 -232 -96q-129 0 -219 75q-78 -60 -78 -143q0 -96 140 -102l247 -9q140 -4 217.5 -79t77.5 -199q0 -143 -131 -244q-129 -102 -336 -102q-165 0 -256.5 65.5t-91.5 175.5q0 138 164 252
q-147 52 -147 195q0 134 141 242q-70 94 -70 217q0 141 99 243q98 101 235 101q60 0 133 -21q73 -20 133 -20q133 0 217 8zM711 -252q0 158 -219 158q-168 0 -250 6q-101 -94 -101 -199q0 -74 64 -118t184 -44q157 0 239.5 55.5t82.5 141.5zM426 846q-80 0 -126 -64
t-46 -186q0 -133 48 -203.5t136 -70.5q172 0 172 251q0 127 -49.5 200t-134.5 73zM215 1034l215 516l215 -516l-215 226z" />
    <glyph glyph-name="Gbreve" unicode="&#x11e;" horiz-adv-x="1433" 
d="M1141 244q0 96 -4 186q-9 141 -99 219h25q15 0 67 -6q70 -4 84 -4q24 0 77.5 5t62.5 5h24q-43 -44 -61 -90t-19 -125q-4 -180 -4 -196q0 -67 11 -164q-195 -107 -451 -107q-316 0 -553 180q-118 93 -185 242t-67 332q0 331 230 536q232 209 563 209q228 0 452 -82
q9 -64 9 -120q0 -117 -21 -228q-83 191 -172 262q-89 74 -266 74q-271 0 -436 -180q-166 -181 -166 -469q0 -299 188 -481q190 -181 455 -181q135 0 195.5 43t60.5 140zM1151 1804q-24 -125 -117.5 -198.5t-214.5 -73.5t-212 73.5t-115 198.5q84 -77 154.5 -105t174.5 -28
t175 28t155 105z" />
    <glyph glyph-name="gbreve" unicode="&#x11f;" horiz-adv-x="854" 
d="M913 895l-55 -125l-176 35q84 -84 84 -221q0 -147 -96 -248q-96 -96 -232 -96q-129 0 -219 75q-78 -60 -78 -143q0 -96 140 -102l247 -9q140 -4 217.5 -79t77.5 -199q0 -143 -131 -244q-129 -102 -336 -102q-165 0 -256.5 65.5t-91.5 175.5q0 138 164 252
q-147 52 -147 195q0 134 141 242q-70 94 -70 217q0 141 99 243q98 101 235 101q60 0 133 -21q73 -20 133 -20q133 0 217 8zM711 -252q0 158 -219 158q-168 0 -250 6q-101 -94 -101 -199q0 -74 64 -118t184 -44q157 0 239.5 55.5t82.5 141.5zM426 846q-80 0 -126 -64
t-46 -186q0 -133 48 -203.5t136 -70.5q172 0 172 251q0 127 -49.5 200t-134.5 73zM678 1524q4 -78 4 -80q0 -176 -67.5 -272.5t-184.5 -96.5t-184.5 96.5t-67.5 272.5q0 2 4 80q44 -159 103.5 -232t144.5 -73t144.5 73t103.5 232z" />
    <glyph glyph-name="Gdotaccent" unicode="&#x120;" horiz-adv-x="1433" 
d="M1141 244q0 96 -4 186q-9 141 -99 219h25q15 0 67 -6q70 -4 84 -4q24 0 77.5 5t62.5 5h24q-43 -44 -61 -90t-19 -125q-4 -180 -4 -196q0 -67 11 -164q-195 -107 -451 -107q-316 0 -553 180q-118 93 -185 242t-67 332q0 331 230 536q232 209 563 209q228 0 452 -82
q9 -64 9 -120q0 -117 -21 -228q-83 191 -172 262q-89 74 -266 74q-271 0 -436 -180q-166 -181 -166 -469q0 -299 188 -481q190 -181 455 -181q135 0 195.5 43t60.5 140zM963 1661l-144 -143l-143 143l143 143z" />
    <glyph glyph-name="gdotaccent" unicode="&#x121;" horiz-adv-x="854" 
d="M913 895l-55 -125l-176 35q84 -84 84 -221q0 -147 -96 -248q-96 -96 -232 -96q-129 0 -219 75q-78 -60 -78 -143q0 -96 140 -102l247 -9q140 -4 217.5 -79t77.5 -199q0 -143 -131 -244q-129 -102 -336 -102q-165 0 -256.5 65.5t-91.5 175.5q0 138 164 252
q-147 52 -147 195q0 134 141 242q-70 94 -70 217q0 141 99 243q98 101 235 101q60 0 133 -21q73 -20 133 -20q133 0 217 8zM711 -252q0 158 -219 158q-168 0 -250 6q-101 -94 -101 -199q0 -74 64 -118t184 -44q157 0 239.5 55.5t82.5 141.5zM426 846q-80 0 -126 -64
t-46 -186q0 -133 48 -203.5t136 -70.5q172 0 172 251q0 127 -49.5 200t-134.5 73zM573 1389l-143 -144l-143 144l143 143z" />
    <glyph glyph-name="Gcommaaccent" unicode="&#x122;" horiz-adv-x="1433" 
d="M1141 244q0 96 -4 186q-9 141 -99 219h25q15 0 67 -6q70 -4 84 -4q24 0 77.5 5t62.5 5h24q-43 -44 -61 -90t-19 -125q-4 -180 -4 -196q0 -67 11 -164q-195 -107 -451 -107q-316 0 -553 180q-118 93 -185 242t-67 332q0 331 230 536q232 209 563 209q228 0 452 -82
q9 -64 9 -120q0 -117 -21 -228q-83 191 -172 262q-89 74 -266 74q-271 0 -436 -180q-166 -181 -166 -469q0 -299 188 -481q190 -181 455 -181q135 0 195.5 43t60.5 140zM950 -197l-211 -348l21 412z" />
    <glyph glyph-name="gcommaaccent" unicode="&#x123;" horiz-adv-x="854" 
d="M913 895l-55 -125l-176 35q84 -84 84 -221q0 -147 -96 -248q-96 -96 -232 -96q-129 0 -219 75q-78 -60 -78 -143q0 -96 140 -102l247 -9q140 -4 217.5 -79t77.5 -199q0 -143 -131 -244q-129 -102 -336 -102q-165 0 -256.5 65.5t-91.5 175.5q0 138 164 252
q-147 52 -147 195q0 134 141 242q-70 94 -70 217q0 141 99 243q98 101 235 101q60 0 133 -21q73 -20 133 -20q133 0 217 8zM711 -252q0 158 -219 158q-168 0 -250 6q-101 -94 -101 -199q0 -74 64 -118t184 -44q157 0 239.5 55.5t82.5 141.5zM426 846q-80 0 -126 -64
t-46 -186q0 -133 48 -203.5t136 -70.5q172 0 172 251q0 127 -49.5 200t-134.5 73zM401 1151l211 348l-20 -412z" />
    <glyph glyph-name="Hcircumflex" unicode="&#x124;" horiz-adv-x="1431" 
d="M1264 991v-545q0 -49 4 -229q3 -139 80 -219h-25q-9 0 -62 5t-77 5t-78.5 -5t-63.5 -5h-24q67 70 76 219q6 102 6 229v265h-770v-265q0 -49 4 -229q3 -139 80 -219h-25q-9 0 -62 5t-77 5t-78 -5t-63 -5h-25q67 70 76 219q6 102 6 229v545q0 128 -6 230q-9 149 -76 219h25
q9 0 63 -5t78 -5t77 5t62 5h25q-77 -80 -80 -219q-4 -180 -4 -230v-188h770v188q0 128 -6 230q-9 149 -76 219h24q9 0 63.5 -5t78.5 -5t77 5t62 5h25q-77 -80 -80 -219q-4 -180 -4 -230zM1016 1516l-299 120l-299 -120l299 311z" />
    <glyph glyph-name="hcircumflex" unicode="&#x125;" horiz-adv-x="995" 
d="M301 1153l-4 -414q103 195 278 195q157 0 234 -127q43 -76 43 -180v-236q0 -112 4 -198q9 -127 68 -195h-23q-21 0 -65.5 4t-55.5 4q-12 0 -57 -4t-66 -4h-20q56 65 65 195q7 75 7 198v217q0 87 -49 140t-130 53q-103 0 -166 -63.5t-63 -164.5v-182q0 -112 4 -198
q9 -127 68 -195h-23q-21 0 -65.5 4t-55.5 4q-12 0 -57 -4t-66 -4h-20q57 66 66 195q6 65 6 198v653q0 128 -6 193q-5 66 -20.5 97.5t-59.5 62.5q121 52 239 127q-10 -195 -10 -371zM524 1516l-299 120l-299 -120l299 311z" />
    <glyph glyph-name="Hbar" unicode="&#x126;" horiz-adv-x="1452" 
d="M176 1055h-178v71h176l-4 95q-6 146 -76 219h25q9 0 63 -5t78 -5t77 5t62 5h25q-77 -77 -80 -219l-4 -95h768l-4 95q-6 146 -76 219h25q9 0 63 -5t78 -5t77 5t62 5h25q-77 -77 -80 -219l-4 -95h178v-71h-178v-609q0 -49 4 -229q3 -139 80 -219h-25q-9 0 -62 5t-77 5
t-78 -5t-63 -5h-25q67 70 76 219q6 102 6 229v265h-770v-265q0 -49 4 -229q3 -139 80 -219h-25q-9 0 -62 5t-77 5t-78 -5t-63 -5h-25q67 70 76 219q6 102 6 229v609zM340 803h770v252h-770v-252z" />
    <glyph glyph-name="hbar" unicode="&#x127;" horiz-adv-x="1019" 
d="M172 1106h-106v78h104l-4 53q-5 66 -20.5 97.5t-59.5 62.5q124 53 240 127q-11 -200 -11 -340h344v-78h-344l-4 -367q103 195 279 195q156 0 233 -127q43 -76 43 -180v-236q0 -112 4 -198q9 -127 68 -195h-23q-21 0 -65 4t-55 4q-12 0 -57 -4t-66 -4h-21q57 66 66 195
q6 65 6 198v217q0 87 -48.5 140t-129.5 53q-103 0 -166.5 -63.5t-63.5 -164.5v-182q0 -112 4 -198q9 -127 68 -195h-22q-21 0 -65.5 4t-55.5 4q-12 0 -57 -4t-66 -4h-21q57 66 66 195q6 65 6 198v715z" />
    <glyph glyph-name="Itilde" unicode="&#x128;" horiz-adv-x="497" 
d="M330 991v-545q0 -49 4 -229q3 -139 80 -219h-25q-9 0 -62 5t-77 5t-78 -5t-63 -5h-25q67 70 76 219q6 102 6 229v545q0 128 -6 230q-9 149 -76 219h25q9 0 63 -5t78 -5t77 5t62 5h25q-77 -80 -80 -219q-4 -180 -4 -230zM260 1724q83 -38 139 -38q73 0 156 65
q-17 -82 -76.5 -136t-132.5 -54q-48 0 -119 30q-85 39 -139 39q-73 0 -156 -65q17 82 76.5 136t132.5 54q46 0 119 -31z" />
    <glyph glyph-name="itilde" unicode="&#x129;" horiz-adv-x="454" 
d="M305 551v-160q0 -112 4 -198q9 -127 68 -195h-23q-21 0 -65.5 4t-55.5 4q-12 0 -56.5 -4t-65.5 -4h-21q57 66 66 195q6 65 6 198v51q0 128 -6 193q-5 66 -20.5 97.5t-59.5 62.5q121 52 239 127q-3 -97 -5.5 -191t-3.5 -134t-1 -46zM256 1389q85 -39 139 -39q73 0 156 65
q-17 -82 -76.5 -136t-132.5 -54q-48 0 -119 30q-85 39 -139 39q-73 0 -156 -65q17 82 76.5 136t132.5 54q49 0 119 -30z" />
    <glyph glyph-name="Imacron" unicode="&#x12a;" horiz-adv-x="497" 
d="M330 991v-545q0 -49 4 -229q3 -139 80 -219h-25q-9 0 -62 5t-77 5t-78 -5t-63 -5h-25q67 70 76 219q6 102 6 229v545q0 128 -6 230q-9 149 -76 219h25q9 0 63 -5t78 -5t77 5t62 5h25q-77 -80 -80 -219q-4 -180 -4 -230zM522 1606h-553v110h553v-110z" />
    <glyph glyph-name="imacron" unicode="&#x12b;" horiz-adv-x="454" 
d="M305 551v-160q0 -112 4 -198q9 -127 68 -195h-23q-21 0 -65.5 4t-55.5 4q-12 0 -56.5 -4t-65.5 -4h-21q57 66 66 195q6 65 6 198v51q0 128 -6 193q-5 66 -20.5 97.5t-59.5 62.5q121 52 239 127q-3 -97 -5.5 -191t-3.5 -134t-1 -46zM518 1264h-553v110h553v-110z" />
    <glyph glyph-name="Ibreve" unicode="&#x12c;" horiz-adv-x="497" 
d="M330 991v-545q0 -49 4 -229q3 -139 80 -219h-25q-9 0 -62 5t-77 5t-78 -5t-63 -5h-25q67 70 76 219q6 102 6 229v545q0 128 -6 230q-9 149 -76 219h25q9 0 63 -5t78 -5t77 5t62 5h25q-77 -80 -80 -219q-4 -180 -4 -230zM578 1804q-24 -125 -117 -198.5t-215 -73.5
q-121 0 -212.5 73.5t-115.5 198.5q84 -77 155 -105t175 -28t175 28t155 105z" />
    <glyph glyph-name="ibreve" unicode="&#x12d;" horiz-adv-x="454" 
d="M305 551v-160q0 -112 4 -198q9 -127 68 -195h-23q-21 0 -65.5 4t-55.5 4q-12 0 -56.5 -4t-65.5 -4h-21q57 66 66 195q6 65 6 198v51q0 128 -6 193q-5 66 -20.5 97.5t-59.5 62.5q121 52 239 127q-3 -97 -5.5 -191t-3.5 -134t-1 -46zM489 1524q1 -19 3 -46t2 -34
q0 -176 -67.5 -272.5t-184.5 -96.5t-184.5 96.5t-67.5 272.5q0 2 4 80q44 -159 103.5 -232t144.5 -73t144 72.5t103 232.5z" />
    <glyph glyph-name="Iogonek" unicode="&#x12e;" horiz-adv-x="497" 
d="M393 -217q4 -32 4 -39q0 -75 -40.5 -118.5t-108.5 -43.5q-72 0 -120 48t-48 122q0 138 160 256q-19 0 -69.5 -5t-61.5 -5h-25q67 70 76 219q6 102 6 229v545q0 128 -6 230q-9 149 -76 219h25q9 0 63 -5t78 -5t77 5t62 5h25q-77 -80 -80 -219q-4 -180 -4 -230v-545
q0 -49 4 -229q3 -139 80 -219h-25q-27 0 -84 8q-123 -108 -123 -213q0 -46 26 -71t68 -25q70 0 117 86z" />
    <glyph glyph-name="iogonek" unicode="&#x12f;" horiz-adv-x="454" 
d="M381 -217q4 -32 4 -39q0 -75 -40.5 -118.5t-108.5 -43.5q-72 0 -120 48t-48 122q0 139 157 254q-4 0 -47.5 -4t-66.5 -4h-21q57 66 66 195q6 65 6 198v51q0 128 -6 193q-5 66 -20.5 97.5t-59.5 62.5q121 52 239 127q-3 -97 -5.5 -191t-3.5 -134t-1 -46v-160
q0 -112 4 -198q9 -127 68 -195h-23q-15 0 -65 4q-119 -107 -119 -209q0 -46 26 -71t68 -25q70 0 117 86zM377 1389l-144 -144l-143 144l143 143z" />
    <glyph glyph-name="Idot" unicode="&#x130;" horiz-adv-x="497" 
d="M330 991v-545q0 -49 4 -229q3 -139 80 -219h-25q-9 0 -62 5t-77 5t-78 -5t-63 -5h-25q67 70 76 219q6 102 6 229v545q0 128 -6 230q-9 149 -76 219h25q9 0 63 -5t78 -5t77 5t62 5h25q-77 -80 -80 -219q-4 -180 -4 -230zM389 1661l-143 -143l-144 143l144 143z" />
    <glyph glyph-name="dotlessi" unicode="&#x131;" horiz-adv-x="454" 
d="M305 551v-160q0 -112 4 -198q9 -127 68 -195h-23q-21 0 -65.5 4t-55.5 4q-12 0 -56.5 -4t-65.5 -4h-21q57 66 66 195q6 65 6 198v51q0 128 -6 193q-5 66 -20.5 97.5t-59.5 62.5q121 52 239 127q-3 -97 -5.5 -191t-3.5 -134t-1 -46z" />
    <glyph glyph-name="IJ" unicode="&#x132;" horiz-adv-x="1245" 
d="M330 991v-545q0 -49 4 -229q3 -139 80 -219h-25q-9 0 -62 5t-77 5t-78 -5t-63 -5h-25q67 70 76 219q6 102 6 229v545q0 128 -6 230q-9 149 -76 219h25q9 0 63 -5t78 -5t77 5t62 5h25q-77 -80 -80 -219q-4 -180 -4 -230zM1094 991v-362q0 -230 2 -291q-6 -178 -94 -274.5
t-238 -96.5q-104 0 -172.5 54.5t-87.5 152.5q56 -60 110 -84t129 -24q112 0 158 110q29 69 29 240v575q0 128 -6 230q-9 149 -76 219h24q9 0 63.5 -5t78.5 -5t77 5t62 5h25q-77 -80 -80 -219q-4 -180 -4 -230z" />
    <glyph glyph-name="ij" unicode="&#x133;" horiz-adv-x="880" 
d="M305 551v-160q0 -112 4 -198q9 -127 68 -195h-23q-21 0 -65.5 4t-55.5 4q-12 0 -56.5 -4t-65.5 -4h-21q57 66 66 195q6 65 6 198v51q0 128 -6 193q-5 66 -20.5 97.5t-59.5 62.5q121 52 239 127q-3 -97 -5.5 -191t-3.5 -134t-1 -46zM377 1389l-144 -144l-143 144l143 143z
M748 551v-518q0 -162 2 -205q-12 -120 -85.5 -221t-187.5 -148q74 127 101 226q26 95 26 252v505q0 128 -6 193q-5 66 -20.5 97.5t-59.5 62.5q124 53 240 127q-3 -97 -5.5 -191t-3.5 -134t-1 -46zM819 1389l-143 -144l-144 144l144 143z" />
    <glyph glyph-name="Jcircumflex" unicode="&#x134;" horiz-adv-x="747" 
d="M596 991v-362q0 -230 2 -291q-6 -178 -94 -274.5t-238 -96.5q-104 0 -172.5 54.5t-87.5 152.5q56 -60 110.5 -84t129.5 -24q111 0 157 110q29 69 29 240v575q0 128 -6 230q-9 149 -76 219h25q9 0 63 -5t78 -5t77 5t62 5h25q-77 -80 -80 -219q-4 -180 -4 -230zM811 1516
l-299 120l-299 -120l299 311z" />
    <glyph glyph-name="jcircumflex" unicode="&#x135;" horiz-adv-x="425" 
d="M293 551v-518q0 -162 2 -205q-12 -121 -85 -221.5t-187 -147.5q72 124 100 226q27 99 27 252v505q0 118 -7 193q-5 66 -20.5 97.5t-59.5 62.5q124 53 240 127q-3 -97 -5.5 -191t-3.5 -134t-1 -46zM6 1034l215 516l215 -516l-215 226z" />
    <glyph glyph-name="Kcommaaccent" unicode="&#x136;" horiz-adv-x="1206" 
d="M961 1225l-228 -234l-192 -194q255 -355 499 -625q128 -142 191 -178q-41 -27 -105 -27q-124 0 -268 170q-219 255 -479 625l229 231q167 172 217 232q58 70 58 112q0 50 -47 103h28q26 0 80.5 -5t65.5 -5q12 0 59 5t68 5h30zM330 991v-545q0 -49 4 -229q3 -139 80 -219
h-25q-9 0 -62 5t-77 5t-78 -5t-63 -5h-25q67 70 76 219q6 102 6 229v545q0 128 -6 230q-9 149 -76 219h25q9 0 63 -5t78 -5t77 5t62 5h25q-77 -80 -80 -219q-4 -180 -4 -230zM713 -197l-211 -348l20 412z" />
    <glyph glyph-name="kcommaaccent" unicode="&#x137;" horiz-adv-x="856" 
d="M397 381l-69 115l61 57q113 104 156 160q41 51 41 90.5t-43 83.5h16q19 0 68.5 -5t60.5 -5q20 0 70 5t69 5h19l-199 -191q-23 -20 -176 -180q137 -214 246 -350q70 -91 170 -168q-53 -16 -76 -16q-63 0 -112.5 25t-104.5 91q-24 29 -50 64t-49.5 69t-29.5 41zM301 1153
v-762q0 -112 4 -198q9 -127 68 -195h-23q-21 0 -65.5 4t-55.5 4q-12 0 -57 -4t-66 -4h-20q57 66 66 195q6 65 6 198v653q0 128 -6 193q-5 66 -20.5 97.5t-59.5 62.5q121 52 239 127q-3 -97 -5.5 -191t-3.5 -134t-1 -46zM590 -197l-211 -348l20 412z" />
    <glyph glyph-name="kgreenlandic" unicode="&#x138;" horiz-adv-x="860" 
d="M401 381l-69 115l61 57q113 104 156 160q41 51 41 90.5t-43 83.5h16q19 0 68.5 -5t60.5 -5q20 0 70 5t69 5h19l-199 -191q-23 -20 -176 -180q137 -214 246 -350q70 -91 170 -168q-53 -16 -76 -16q-63 0 -112.5 25t-104.5 91q-24 29 -50 64t-49.5 69t-29.5 41zM305 551
v-160q0 -112 4 -198q9 -127 68 -195h-23q-21 0 -65.5 4t-55.5 4q-12 0 -56.5 -4t-65.5 -4h-21q57 66 66 195q6 65 6 198v51q0 128 -6 193q-5 66 -20.5 97.5t-59.5 62.5q121 52 239 127q-3 -97 -5.5 -191t-3.5 -134t-1 -46z" />
    <glyph glyph-name="Lacute" unicode="&#x139;" horiz-adv-x="958" 
d="M330 991v-565q0 -100 6 -223q1 -71 29 -95t102 -24q139 0 217 10q79 12 135.5 81.5t102.5 199.5q12 -49 12 -123q0 -104 -37 -258q-208 10 -647 10q-24 0 -78 -3t-63 -3h-25q67 70 76 219q6 102 6 229v545q0 128 -6 230q-9 149 -76 219h25q9 0 63 -5t78 -5t77 5t62 5h25
q-77 -80 -80 -219q-4 -180 -4 -230zM535 1645l-496 -136l414 297z" />
    <glyph glyph-name="lacute" unicode="&#x13a;" horiz-adv-x="450" 
d="M301 1153v-762q0 -112 4 -198q9 -127 68 -195h-23q-21 0 -65.5 4t-55.5 4q-12 0 -57 -4t-66 -4h-20q57 66 66 195q6 65 6 198v653q0 128 -6 193q-5 66 -20.5 97.5t-59.5 62.5q121 52 239 127q-3 -97 -5.5 -191t-3.5 -134t-1 -46zM475 1686l-495 -136l413 297z" />
    <glyph glyph-name="Lcommaaccent" unicode="&#x13b;" horiz-adv-x="958" 
d="M330 991v-565q0 -100 6 -223q1 -71 29 -95t102 -24q139 0 217 10q79 12 135.5 81.5t102.5 199.5q12 -49 12 -123q0 -104 -37 -258q-208 10 -647 10q-24 0 -78 -3t-63 -3h-25q67 70 76 219q6 102 6 229v545q0 128 -6 230q-9 149 -76 219h25q9 0 63 -5t78 -5t77 5t62 5h25
q-77 -80 -80 -219q-4 -180 -4 -230zM598 -197l-211 -348l21 412z" />
    <glyph glyph-name="lcommaaccent" unicode="&#x13c;" horiz-adv-x="450" 
d="M301 1153v-762q0 -112 4 -198q9 -127 68 -195h-23q-21 0 -65.5 4t-55.5 4q-12 0 -57 -4t-66 -4h-20q57 66 66 195q6 65 6 198v653q0 128 -6 193q-5 66 -20.5 97.5t-59.5 62.5q121 52 239 127q-3 -97 -5.5 -191t-3.5 -134t-1 -46zM334 -197l-211 -348l20 412z" />
    <glyph glyph-name="Lcaron" unicode="&#x13d;" horiz-adv-x="958" 
d="M330 991v-565q0 -100 6 -223q1 -71 29 -95t102 -24q139 0 217 10q79 12 135.5 81.5t102.5 199.5q12 -49 12 -123q0 -104 -37 -258q-208 10 -647 10q-24 0 -78 -3t-63 -3h-25q67 70 76 219q6 102 6 229v545q0 128 -6 230q-9 149 -76 219h25q9 0 63 -5t78 -5t77 5t62 5h25
q-77 -80 -80 -219q-4 -180 -4 -230zM717 1393l-211 -349l20 412z" />
    <glyph glyph-name="lcaron" unicode="&#x13e;" horiz-adv-x="512" 
d="M301 1153v-762q0 -112 4 -198q9 -127 68 -195h-23q-21 0 -65.5 4t-55.5 4q-12 0 -57 -4t-66 -4h-20q57 66 66 195q6 65 6 198v653q0 128 -6 193q-5 66 -20.5 97.5t-59.5 62.5q121 52 239 127q-3 -97 -5.5 -191t-3.5 -134t-1 -46zM592 1464l-211 -348l20 412z" />
    <glyph glyph-name="Ldot" unicode="&#x13f;" horiz-adv-x="958" 
d="M330 991v-565q0 -100 6 -223q1 -71 29 -95t102 -24q139 0 217 10q79 12 135.5 81.5t102.5 199.5q12 -49 12 -123q0 -104 -37 -258q-208 10 -647 10q-24 0 -78 -3t-63 -3h-25q67 70 76 219q6 102 6 229v545q0 128 -6 230q-9 149 -76 219h25q9 0 63 -5t78 -5t77 5t62 5h25
q-77 -80 -80 -219q-4 -180 -4 -230zM866 758l-143 -144l-143 144l143 143z" />
    <glyph glyph-name="ldot" unicode="&#x140;" horiz-adv-x="681" 
d="M301 1153v-762q0 -112 4 -198q9 -127 68 -195h-23q-21 0 -65.5 4t-55.5 4q-12 0 -57 -4t-66 -4h-20q57 66 66 195q6 65 6 198v653q0 128 -6 193q-5 66 -20.5 97.5t-59.5 62.5q121 52 239 127q-3 -97 -5.5 -191t-3.5 -134t-1 -46zM711 479l-144 -143l-143 143l143 144z
" />
    <glyph glyph-name="Lslash" unicode="&#x141;" horiz-adv-x="950" 
d="M709 881l26 -66l-405 -166v-223q0 -100 6 -223q1 -71 29 -95t102 -24q139 0 217 10q79 12 135.5 81.5t102.5 199.5q12 -49 12 -123q0 -104 -37 -258q-208 10 -647 10q-24 0 -78 -3t-63 -3h-25q67 70 76 219q6 102 6 229v138l-150 -62l-26 68l176 72v329q0 128 -6 230
q-9 149 -76 219h25q9 0 63 -5t78 -5t77 5t62 5h25q-77 -80 -80 -219q-4 -180 -4 -230v-264z" />
    <glyph glyph-name="lslash" unicode="&#x142;" horiz-adv-x="501" 
d="M326 1153v-405l151 92l37 -64l-188 -112v-273q0 -112 4 -198q9 -128 67 -195h-22q-21 0 -65.5 4t-55.5 4q-12 0 -57 -4t-66 -4h-20q56 65 65 195q6 65 6 198v189l-145 -86l-35 63l180 107v380q0 128 -6 193q-5 66 -20.5 97.5t-59.5 62.5q124 53 240 127q-3 -97 -5.5 -191
t-3.5 -134t-1 -46z" />
    <glyph glyph-name="Nacute" unicode="&#x143;" horiz-adv-x="1490" 
d="M170 444v547q0 149 -6 217q-15 155 -92 232h24q12 0 83 -3t112 -3l930 -1086v643q0 111 -7 230q-9 150 -75 219h16q12 0 59.5 -5t61.5 -5t61.5 5t59.5 5h16q-77 -80 -80 -219q-4 -180 -4 -230v-692q0 -225 8 -350l-1058 1237v-742q0 -49 4 -229q3 -140 79 -219h-16
q-12 0 -59.5 5t-61.5 5t-61.5 -5t-59.5 -5h-16q67 70 76 219q6 102 6 229zM1032 1645l-495 -136l413 297z" />
    <glyph glyph-name="nacute" unicode="&#x144;" horiz-adv-x="999" 
d="M856 627v-236q0 -112 4 -198q9 -127 68 -195h-23q-21 0 -65.5 4t-55.5 4q-12 0 -56.5 -4t-65.5 -4h-21q57 66 66 195q6 65 6 198v217q0 87 -48.5 140t-129.5 53q-103 0 -166.5 -63.5t-63.5 -164.5v-182q0 -112 4 -198q9 -127 68 -195h-23q-21 0 -65.5 4t-55.5 4
q-12 0 -56.5 -4t-65.5 -4h-21q57 66 66 195q6 65 6 198v51q0 128 -6 193q-5 66 -20.5 97.5t-59.5 62.5q121 52 239 127q-12 -99 -12 -181q102 193 277 193q156 0 233 -127q43 -76 43 -180zM664 1479l-250 -449l78 506z" />
    <glyph glyph-name="Ncommaaccent" unicode="&#x145;" horiz-adv-x="1490" 
d="M170 444v547q0 149 -6 217q-15 155 -92 232h24q12 0 83 -3t112 -3l930 -1086v643q0 111 -7 230q-9 150 -75 219h16q12 0 59.5 -5t61.5 -5t61.5 5t59.5 5h16q-77 -80 -80 -219q-4 -180 -4 -230v-692q0 -225 8 -350l-1058 1237v-742q0 -49 4 -229q3 -140 79 -219h-16
q-12 0 -59.5 5t-61.5 5t-61.5 -5t-59.5 -5h-16q67 70 76 219q6 102 6 229zM868 -197l-211 -348l21 412z" />
    <glyph glyph-name="ncommaaccent" unicode="&#x146;" horiz-adv-x="999" 
d="M856 627v-236q0 -112 4 -198q9 -127 68 -195h-23q-21 0 -65.5 4t-55.5 4q-12 0 -56.5 -4t-65.5 -4h-21q57 66 66 195q6 65 6 198v217q0 87 -48.5 140t-129.5 53q-103 0 -166.5 -63.5t-63.5 -164.5v-182q0 -112 4 -198q9 -127 68 -195h-23q-21 0 -65.5 4t-55.5 4
q-12 0 -56.5 -4t-65.5 -4h-21q57 66 66 195q6 65 6 198v51q0 128 -6 193q-5 66 -20.5 97.5t-59.5 62.5q121 52 239 127q-12 -99 -12 -181q102 193 277 193q156 0 233 -127q43 -76 43 -180zM608 -197l-211 -348l21 412z" />
    <glyph glyph-name="Ncaron" unicode="&#x147;" horiz-adv-x="1490" 
d="M170 444v547q0 149 -6 217q-15 155 -92 232h24q12 0 83 -3t112 -3l930 -1086v643q0 111 -7 230q-9 150 -75 219h16q12 0 59.5 -5t61.5 -5t61.5 5t59.5 5h16q-77 -80 -80 -219q-4 -180 -4 -230v-692q0 -225 8 -350l-1058 1237v-742q0 -49 4 -229q3 -140 79 -219h-16
q-12 0 -59.5 5t-61.5 5t-61.5 -5t-59.5 -5h-16q67 70 76 219q6 102 6 229zM743 1491l-299 311l299 -121l299 121z" />
    <glyph glyph-name="ncaron" unicode="&#x148;" horiz-adv-x="999" 
d="M856 627v-236q0 -112 4 -198q9 -127 68 -195h-23q-21 0 -65.5 4t-55.5 4q-12 0 -56.5 -4t-65.5 -4h-21q57 66 66 195q6 65 6 198v217q0 87 -48.5 140t-129.5 53q-103 0 -166.5 -63.5t-63.5 -164.5v-182q0 -112 4 -198q9 -127 68 -195h-23q-21 0 -65.5 4t-55.5 4
q-12 0 -56.5 -4t-65.5 -4h-21q57 66 66 195q6 65 6 198v51q0 128 -6 193q-5 66 -20.5 97.5t-59.5 62.5q121 52 239 127q-12 -99 -12 -181q102 193 277 193q156 0 233 -127q43 -76 43 -180zM498 1305l215 225l-215 -516l-215 516z" />
    <glyph glyph-name="napostrophe" unicode="&#x149;" horiz-adv-x="999" 
d="M856 627v-236q0 -112 4 -198q9 -127 68 -195h-23q-21 0 -65.5 4t-55.5 4q-12 0 -56.5 -4t-65.5 -4h-21q57 66 66 195q6 65 6 198v217q0 87 -48.5 140t-129.5 53q-103 0 -166.5 -63.5t-63.5 -164.5v-182q0 -112 4 -198q9 -127 68 -195h-23q-21 0 -65.5 4t-55.5 4
q-12 0 -56.5 -4t-65.5 -4h-21q57 66 66 195q6 65 6 198v51q0 128 -6 193q-5 66 -20.5 97.5t-59.5 62.5q121 52 239 127q-12 -99 -12 -181q102 193 277 193q156 0 233 -127q43 -76 43 -180zM326 1466l-211 -348l20 412z" />
    <glyph glyph-name="Eng" unicode="&#x14a;" horiz-adv-x="1495" 
d="M1331 991v-1032q0 -170 -89 -271.5t-232 -101.5q-119 0 -199.5 55.5t-105.5 153.5q140 -110 282 -110q143 0 199 127q32 71 35 237l-942 1137v-742q0 -49 4 -229q3 -140 79 -219h-16q-12 0 -59.5 5t-61.5 5t-61.5 -5t-59.5 -5h-16q67 70 76 219q6 102 6 229v547
q0 149 -6 217q-15 155 -92 232h24q12 0 83 -3t112 -3l930 -1117v674q0 111 -7 230q-9 150 -75 219h16q12 0 59.5 -5t61.5 -5t62.5 5t60.5 5h16q-77 -80 -80 -219q-4 -180 -4 -230z" />
    <glyph glyph-name="eng" unicode="&#x14b;" horiz-adv-x="976" 
d="M702 -63v671q0 86 -46 139.5t-121 53.5q-103 0 -166.5 -63.5t-63.5 -164.5v-182q0 -112 4 -198q9 -127 68 -195h-23q-21 0 -65.5 4t-55.5 4q-12 0 -56.5 -4t-65.5 -4h-21q57 66 66 195q6 65 6 198v51q0 128 -6 193q-5 66 -20.5 97.5t-59.5 62.5q121 52 239 127
q-12 -99 -12 -181q102 193 277 193q146 0 223 -127q43 -73 43 -180v-594q0 -162 2 -205q-12 -120 -85.5 -221t-187.5 -148q74 127 101 226q26 95 26 252z" />
    <glyph glyph-name="Omacron" unicode="&#x14c;" horiz-adv-x="1595" 
d="M53 717q0 324 215 536q216 213 527 213q322 0 534 -215q213 -213 213 -534t-213 -537q-213 -213 -516 -213q-335 0 -547 209q-213 210 -213 541zM764 1364q-224 0 -371 -166t-147 -455q0 -302 172 -489q174 -186 422 -186q223 0 366 174q144 176 144 450q0 294 -170 482
q-169 190 -416 190zM1073 1606h-553v110h553v-110z" />
    <glyph glyph-name="omacron" unicode="&#x14d;" horiz-adv-x="983" 
d="M33 451q0 198 133 340q131 143 321 143q196 0 326 -139q131 -137 131 -344q0 -202 -131 -342q-130 -142 -315 -142q-201 0 -334 139q-131 137 -131 345zM481 840q-126 0 -203 -98.5t-77 -272.5q0 -187 82.5 -295t220.5 -108q123 0 197.5 99t74.5 273q0 178 -84 291
q-82 111 -211 111zM762 1264h-553v110h553v-110z" />
    <glyph glyph-name="Obreve" unicode="&#x14e;" horiz-adv-x="1595" 
d="M53 717q0 324 215 536q216 213 527 213q322 0 534 -215q213 -213 213 -534t-213 -537q-213 -213 -516 -213q-335 0 -547 209q-213 210 -213 541zM764 1364q-224 0 -371 -166t-147 -455q0 -302 172 -489q174 -186 422 -186q223 0 366 174q144 176 144 450q0 294 -170 482
q-169 190 -416 190zM1128 1804q-24 -125 -117 -198.5t-214 -73.5t-212.5 73.5t-115.5 198.5q84 -77 155 -105t175 -28t174.5 28t154.5 105z" />
    <glyph glyph-name="obreve" unicode="&#x14f;" horiz-adv-x="983" 
d="M33 451q0 198 133 340q131 143 321 143q196 0 326 -139q131 -137 131 -344q0 -202 -131 -342q-130 -142 -315 -142q-201 0 -334 139q-131 137 -131 345zM481 840q-126 0 -203 -98.5t-77 -272.5q0 -187 82.5 -295t220.5 -108q123 0 197.5 99t74.5 273q0 178 -84 291
q-82 111 -211 111zM733 1524q4 -78 4 -80q0 -176 -67.5 -272.5t-184.5 -96.5t-184.5 96.5t-67.5 272.5q0 7 2 34t3 46q44 -160 103 -232.5t144 -72.5t144.5 73t103.5 232z" />
    <glyph glyph-name="Ohungarumlaut" unicode="&#x150;" horiz-adv-x="1595" 
d="M53 717q0 324 215 536q216 213 527 213q322 0 534 -215q213 -213 213 -534t-213 -537q-213 -213 -516 -213q-335 0 -547 209q-213 210 -213 541zM764 1364q-224 0 -371 -166t-147 -455q0 -302 172 -489q174 -186 422 -186q223 0 366 174q144 176 144 450q0 294 -170 482
q-169 190 -416 190zM881 1675l-418 -166l334 303zM1235 1675l-418 -166l334 303z" />
    <glyph glyph-name="ohungarumlaut" unicode="&#x151;" horiz-adv-x="983" 
d="M33 451q0 198 133 340q131 143 321 143q196 0 326 -139q131 -137 131 -344q0 -202 -131 -342q-130 -142 -315 -142q-201 0 -334 139q-131 137 -131 345zM481 840q-126 0 -203 -98.5t-77 -272.5q0 -187 82.5 -295t220.5 -108q123 0 197.5 99t74.5 273q0 178 -84 291
q-82 111 -211 111zM530 1479l-235 -424l80 479zM758 1479l-236 -424l80 479z" />
    <glyph glyph-name="OE" unicode="&#x152;" horiz-adv-x="1927" 
d="M836 68q130 0 187 36t62 113q5 112 5 229v545q0 79 -5 201q-4 90 -74.5 131t-217.5 41q-246 0 -402 -166q-155 -162 -155 -455q0 -301 176 -489q174 -186 424 -186zM1821 -6q-208 10 -598 10q-82 0 -211 -18q-133 -19 -203 -19q-333 0 -545 209q-211 208 -211 541
q0 325 217 536q219 213 543 213q45 0 205 -16q163 -16 254 -16h278q149 0 228 6q16 -88 16 -178q0 -60 -10 -138q-89 195 -234 219q-79 11 -176 11q-71 0 -90 -17.5t-24 -81.5q-7 -75 -7 -211v-262q178 0 279 11q137 15 201 106v-25q-5 -38 -5 -131t5 -133v-24
q-61 88 -201 106q-92 10 -279 10v-276q0 -80 7 -223q1 -71 29 -95t102 -24q139 0 217 10q155 21 237 252q8 -49 8 -94q0 -127 -32 -258z" />
    <glyph glyph-name="oe" unicode="&#x153;" horiz-adv-x="1632" 
d="M31 451q0 198 133 340q131 143 321 143q120 0 218 -56.5t159 -156.5q62 101 159.5 157t213.5 56q148 0 246 -98q100 -93 100 -244q0 -27 -4 -47h-631q-4 -32 -4 -78q0 -160 83.5 -257t219.5 -97q94 0 169 44t149 146q-12 -147 -107 -242q-94 -94 -237 -94
q-240 0 -363 205q-60 -97 -154 -151t-206 -54q-201 0 -334 139q-131 137 -131 345zM479 840q-126 0 -203 -98.5t-77 -272.5q0 -187 82.5 -295t220.5 -108q123 0 197.5 99t74.5 273q0 178 -84 291q-82 111 -211 111zM961 627h440q-1 98 -60 156.5t-151 58.5q-88 0 -149 -59
t-80 -156z" />
    <glyph glyph-name="Racute" unicode="&#x154;" horiz-adv-x="1202" 
d="M451 1358q-68 0 -89 -19.5t-26 -83.5q-6 -65 -6 -211v-286q10 -2 94 -2q164 0 251 78t87 219q0 144 -80 224.5t-231 80.5zM250 1430q19 0 105.5 4t133.5 4q209 0 328 -107q119 -104 119 -258q0 -252 -231 -354q187 -345 346 -545q104 -124 188 -178q-37 -29 -104 -29
q-138 0 -258 170q-162 219 -314 545q-36 -8 -112 -8q-90 0 -121 8v-236q0 -49 4 -229q3 -139 80 -219h-25q-9 0 -62 5t-77 5t-78 -5t-63 -5h-25q67 70 76 219q6 102 6 229v545q0 128 -6 230q-9 149 -76 219h25q9 0 63 -5t78 -5zM780 1645l-495 -136l413 297z" />
    <glyph glyph-name="racute" unicode="&#x155;" horiz-adv-x="628" 
d="M481 797q-79 0 -127.5 -83t-48.5 -227v-96q0 -112 4 -198q9 -122 88 -195h-22q-21 0 -76 4t-66 4q-12 0 -56.5 -4t-65.5 -4h-21q57 66 66 195q6 65 6 198v51q0 128 -6 193q-5 66 -20.5 97.5t-59.5 62.5q121 52 239 127q-12 -99 -12 -207q43 106 108.5 162.5t139.5 56.5
q53 0 96 -19q10 -38 10 -81q0 -90 -24 -148q-59 111 -152 111zM535 1479l-250 -449l77 506z" />
    <glyph glyph-name="Rcommaaccent" unicode="&#x156;" horiz-adv-x="1202" 
d="M451 1358q-68 0 -89 -19.5t-26 -83.5q-6 -65 -6 -211v-286q10 -2 94 -2q164 0 251 78t87 219q0 144 -80 224.5t-231 80.5zM250 1430q19 0 105.5 4t133.5 4q209 0 328 -107q119 -104 119 -258q0 -252 -231 -354q187 -345 346 -545q104 -124 188 -178q-37 -29 -104 -29
q-138 0 -258 170q-162 219 -314 545q-36 -8 -112 -8q-90 0 -121 8v-236q0 -49 4 -229q3 -139 80 -219h-25q-9 0 -62 5t-77 5t-78 -5t-63 -5h-25q67 70 76 219q6 102 6 229v545q0 128 -6 230q-9 149 -76 219h25q9 0 63 -5t78 -5zM733 -197l-211 -348l21 412z" />
    <glyph glyph-name="rcommaaccent" unicode="&#x157;" horiz-adv-x="628" 
d="M481 797q-79 0 -127.5 -83t-48.5 -227v-96q0 -112 4 -198q9 -122 88 -195h-22q-21 0 -76 4t-66 4q-12 0 -56.5 -4t-65.5 -4h-21q57 66 66 195q6 65 6 198v51q0 128 -6 193q-5 66 -20.5 97.5t-59.5 62.5q121 52 239 127q-12 -99 -12 -207q43 106 108.5 162.5t139.5 56.5
q53 0 96 -19q10 -38 10 -81q0 -90 -24 -148q-59 111 -152 111zM338 -197l-211 -348l20 412z" />
    <glyph glyph-name="Rcaron" unicode="&#x158;" horiz-adv-x="1202" 
d="M451 1358q-68 0 -89 -19.5t-26 -83.5q-6 -65 -6 -211v-286q10 -2 94 -2q164 0 251 78t87 219q0 144 -80 224.5t-231 80.5zM250 1430q19 0 105.5 4t133.5 4q209 0 328 -107q119 -104 119 -258q0 -252 -231 -354q187 -345 346 -545q104 -124 188 -178q-37 -29 -104 -29
q-138 0 -258 170q-162 219 -314 545q-36 -8 -112 -8q-90 0 -121 8v-236q0 -49 4 -229q3 -139 80 -219h-25q-9 0 -62 5t-77 5t-78 -5t-63 -5h-25q67 70 76 219q6 102 6 229v545q0 128 -6 230q-9 149 -76 219h25q9 0 63 -5t78 -5zM492 1491l-299 311l299 -121l299 121z" />
    <glyph glyph-name="rcaron" unicode="&#x159;" horiz-adv-x="628" 
d="M481 797q-79 0 -127.5 -83t-48.5 -227v-96q0 -112 4 -198q9 -122 88 -195h-22q-21 0 -76 4t-66 4q-12 0 -56.5 -4t-65.5 -4h-21q57 66 66 195q6 65 6 198v51q0 128 -6 193q-5 66 -20.5 97.5t-59.5 62.5q121 52 239 127q-12 -99 -12 -207q43 106 108.5 162.5t139.5 56.5
q53 0 96 -19q10 -38 10 -81q0 -90 -24 -148q-59 111 -152 111zM369 1305l215 225l-215 -516l-215 516z" />
    <glyph glyph-name="Sacute" unicode="&#x15a;" horiz-adv-x="913" 
d="M434 59q121 0 197 69.5t76 176.5q0 113 -78 191q-73 73 -201 163q-106 74 -180 134q-47 39 -90 94q-72 93 -72 221q0 153 115 256q117 102 295 102q176 0 335 -84q7 -58 7 -100q0 -132 -19 -219q-69 166 -143 237.5t-197 71.5q-109 0 -176 -62.5t-67 -166.5
q0 -100 71 -174q50 -50 197 -154q128 -89 178 -129q50 -38 90 -84q96 -116 96 -258q0 -171 -122.5 -274t-325.5 -103q-194 0 -336 68q-31 133 -31 270q0 25 6 117l52 -119q14 -31 53 -94q47 -76 107.5 -109t162.5 -41zM784 1645l-495 -136l413 297z" />
    <glyph glyph-name="sacute" unicode="&#x15b;" horiz-adv-x="604" 
d="M299 53q69 0 108 34.5t39 102.5q0 63 -40 108.5t-140 96.5q-225 114 -225 279q0 107 78 182q79 76 190 76q113 0 219 -53q4 -54 4 -68q0 -108 -34 -186q-95 221 -219 221q-51 0 -85 -33t-34 -84q0 -61 43 -109.5t149 -101.5q119 -57 171 -124t52 -165q0 -116 -80 -189
t-204 -73q-143 0 -256 64q-4 32 -4 69q0 97 41 193q49 -132 98 -186t129 -54zM473 1479l-250 -449l78 506z" />
    <glyph glyph-name="Scircumflex" unicode="&#x15c;" horiz-adv-x="913" 
d="M434 59q121 0 197 69.5t76 176.5q0 113 -78 191q-73 73 -201 163q-106 74 -180 134q-47 39 -90 94q-72 93 -72 221q0 153 115 256q117 102 295 102q176 0 335 -84q7 -58 7 -100q0 -132 -19 -219q-69 166 -143 237.5t-197 71.5q-109 0 -176 -62.5t-67 -166.5
q0 -100 71 -174q50 -50 197 -154q128 -89 178 -129q50 -38 90 -84q96 -116 96 -258q0 -171 -122.5 -274t-325.5 -103q-194 0 -336 68q-31 133 -31 270q0 25 6 117l52 -119q14 -31 53 -94q47 -76 107.5 -109t162.5 -41zM795 1516l-299 120l-299 -120l299 311z" />
    <glyph glyph-name="scircumflex" unicode="&#x15d;" horiz-adv-x="604" 
d="M299 53q69 0 108 34.5t39 102.5q0 63 -40 108.5t-140 96.5q-225 114 -225 279q0 107 78 182q79 76 190 76q113 0 219 -53q4 -54 4 -68q0 -108 -34 -186q-95 221 -219 221q-51 0 -85 -33t-34 -84q0 -61 43 -109.5t149 -101.5q119 -57 171 -124t52 -165q0 -116 -80 -189
t-204 -73q-143 0 -256 64q-4 32 -4 69q0 97 41 193q49 -132 98 -186t129 -54zM92 1034l215 516l215 -516l-215 226z" />
    <glyph glyph-name="Scedilla" unicode="&#x15e;" horiz-adv-x="913" 
d="M434 59q121 0 197 69.5t76 176.5q0 113 -78 191q-73 73 -201 163q-106 74 -180 134q-47 39 -90 94q-72 93 -72 221q0 153 115 256q117 102 295 102q176 0 335 -84q7 -58 7 -100q0 -132 -19 -219q-69 166 -143 237.5t-197 71.5q-109 0 -176 -62.5t-67 -166.5
q0 -100 71 -174q50 -50 197 -154q128 -89 178 -129q50 -38 90 -84q96 -116 96 -258q0 -157 -104.5 -257.5t-282.5 -117.5l-24 -67q133 -62 133 -178q0 -72 -45.5 -117t-120.5 -45q-78 0 -143 30q0 3 -1 13.5t-1 13.5q0 63 30 109q73 -99 135 -99q29 0 45.5 15.5t16.5 40.5
q0 40 -34.5 72.5t-119.5 68.5l68 141q-194 0 -336 68q-31 133 -31 270q0 25 6 117l52 -119q14 -31 53 -94q47 -76 107.5 -109t162.5 -41z" />
    <glyph glyph-name="scedilla" unicode="&#x15f;" horiz-adv-x="604" 
d="M299 53q69 0 108 34.5t39 102.5q0 63 -40 108.5t-140 96.5q-225 114 -225 279q0 107 78 182q79 76 190 76q113 0 219 -53q4 -54 4 -68q0 -108 -34 -186q-95 221 -219 221q-51 0 -85 -33t-34 -84q0 -61 43 -109.5t149 -101.5q119 -57 171 -124t52 -165q0 -108 -69 -178.5
t-182 -81.5l-25 -67q133 -62 133 -178q0 -72 -45.5 -117t-120.5 -45q-78 0 -143 30q0 3 -1 13.5t-1 13.5q0 61 31 109q74 -99 135 -99q29 0 45 15.5t16 40.5q0 40 -34 72.5t-119 68.5l67 141q-120 6 -227 64q-4 32 -4 69q0 97 41 193q49 -132 98 -186t129 -54z" />
    <glyph glyph-name="Scaron" unicode="&#x160;" horiz-adv-x="913" 
d="M434 59q121 0 197 69.5t76 176.5q0 113 -78 191q-73 73 -201 163q-106 74 -180 134q-47 39 -90 94q-72 93 -72 221q0 153 115 256q117 102 295 102q176 0 335 -84q7 -58 7 -100q0 -132 -19 -219q-69 166 -143 237.5t-197 71.5q-109 0 -176 -62.5t-67 -166.5
q0 -100 71 -174q50 -50 197 -154q128 -89 178 -129q50 -38 90 -84q96 -116 96 -258q0 -171 -122.5 -274t-325.5 -103q-194 0 -336 68q-31 133 -31 270q0 25 6 117l52 -119q14 -31 53 -94q47 -76 107.5 -109t162.5 -41zM496 1491l-299 311l299 -121l299 121z" />
    <glyph glyph-name="scaron" unicode="&#x161;" horiz-adv-x="604" 
d="M299 53q69 0 108 34.5t39 102.5q0 63 -40 108.5t-140 96.5q-225 114 -225 279q0 107 78 182q79 76 190 76q113 0 219 -53q4 -54 4 -68q0 -108 -34 -186q-95 221 -219 221q-51 0 -85 -33t-34 -84q0 -61 43 -109.5t149 -101.5q119 -57 171 -124t52 -165q0 -116 -80 -189
t-204 -73q-143 0 -256 64q-4 32 -4 69q0 97 41 193q49 -132 98 -186t129 -54zM307 1305l215 225l-215 -516l-215 516z" />
    <glyph glyph-name="Tcedilla" unicode="&#x162;" horiz-adv-x="1171" 
d="M496 -182l-9 22l80 164q-83 0 -188 -6l-6 55q73 20 96.5 52t28.5 112q6 203 6 229v598q0 146 -6 211q-5 64 -24.5 81.5t-90.5 17.5q-81 0 -160 -11q-77 -12 -117 -55q-45 -45 -75 -151l-60 4q11 184 21 299q80 -6 231 -6h740q151 0 231 6q6 -147 6 -299l-59 -4
q-28 102 -74 151q-40 43 -117 55q-79 11 -162 11q-71 0 -90 -17.5t-24 -81.5q-6 -64 -6 -211v-598q0 -26 6 -229q5 -80 28.5 -112t96.5 -52l-6 -55q-95 6 -170 6l-37 -102q133 -65 133 -176q0 -62 -46 -103t-120 -41q-60 0 -99.5 25.5t-39.5 62.5q0 20 14.5 33.5t34.5 13.5
q34 0 57 -39q19 -32 60 -32q49 0 49 45q0 34 -29 63t-104 64z" />
    <glyph glyph-name="tcedilla" unicode="&#x163;" horiz-adv-x="477" 
d="M436 784h-192v-481q0 -135 32 -178q26 -33 86 -33q53 0 119 60v-13q0 -68 -38 -111.5t-101 -54.5l-27 -71q134 -62 134 -178q0 -72 -45.5 -117t-120.5 -45q-79 0 -144 30q0 3 -1 13.5t-1 13.5q0 61 31 109q74 -99 135 -99q29 0 45.5 15.5t16.5 40.5q0 40 -34.5 72.5
t-119.5 68.5l72 147q-79 12 -125 70q-56 68 -56 236v415q0 63 -17 96t-60 50q134 128 239 247l-18 -200q98 2 233 8z" />
    <glyph glyph-name="Tcaron" unicode="&#x164;" horiz-adv-x="1171" 
d="M668 1044v-598q0 -49 4 -229q1 -79 24 -126t76 -93h-24q-4 0 -13.5 0.5t-27 1.5t-31.5 2q-56 6 -88 6t-90 -6q-14 -1 -31.5 -2t-27 -1.5t-13.5 -0.5h-25q88 79 97 219q6 102 6 229v598q0 146 -6 211q-5 64 -24.5 81.5t-90.5 17.5q-62 0 -141 -11q-82 -13 -136.5 -66.5
t-101.5 -156.5q-10 78 -10 193q0 73 4 127q79 -6 231 -6h713q152 0 232 6q4 -54 4 -127q0 -107 -11 -193q-47 103 -101 156.5t-136 66.5q-79 11 -142 11q-71 0 -90 -17.5t-24 -81.5q-6 -64 -6 -211zM588 1491l-299 311l299 -121l299 121z" />
    <glyph glyph-name="tcaron" unicode="&#x165;" horiz-adv-x="477" 
d="M436 784h-192v-481q0 -135 32 -178q26 -33 86 -33q53 0 119 60v-13q0 -75 -46.5 -121.5t-119.5 -46.5q-97 0 -157 72q-56 68 -56 236v415q0 63 -17 96t-60 50q134 128 239 247l-18 -200q98 2 233 8zM621 1395l-211 -348l20 411z" />
    <glyph glyph-name="Tbar" unicode="&#x166;" horiz-adv-x="1171" 
d="M504 680h-334v72h334v292q0 146 -6 211q-5 64 -24.5 81.5t-90.5 17.5q-62 0 -141 -11q-82 -13 -136.5 -66.5t-101.5 -156.5q-10 78 -10 193q0 73 4 127q79 -6 231 -6h713q152 0 232 6q4 -54 4 -127q0 -107 -11 -193q-47 103 -101 156.5t-136 66.5q-79 11 -142 11
q-71 0 -90 -17.5t-24 -81.5q-6 -64 -6 -211v-292h321v-72h-321v-234q0 -49 4 -229q1 -79 24 -126t76 -93h-24q-4 0 -13.5 0.5t-27 1.5t-31.5 2q-56 6 -88 6t-90 -6q-14 -1 -31.5 -2t-27 -1.5t-13.5 -0.5h-25q88 79 97 219q6 102 6 229v234z" />
    <glyph glyph-name="tbar" unicode="&#x167;" horiz-adv-x="503" 
d="M129 442h-100v72h100v180q0 63 -17.5 96t-60.5 50q140 133 240 247l-19 -200q100 2 234 8l-43 -111h-193v-270h217v-72h-217v-139q0 -134 33 -178q26 -33 86 -33q53 0 119 60v-13q0 -75 -47 -121.5t-119 -46.5q-98 0 -158 72q-55 67 -55 236v163z" />
    <glyph glyph-name="Utilde" unicode="&#x168;" horiz-adv-x="1320" 
d="M1190 991v-471q0 -240 -148 -397q-147 -156 -385 -156q-246 0 -384 137.5t-138 384.5v502q0 128 -6 230q-9 149 -76 219h25q9 0 63 -5t78 -5t77 5t62 5h25q-77 -80 -80 -219q-4 -180 -4 -230v-497q0 -196 98.5 -305t272.5 -109q191 0 301 123t110 344v444q0 128 -6 230
q-9 149 -76 219h17q12 0 59.5 -5t61.5 -5t61 5t59 5h17q-77 -80 -80 -219q-4 -180 -4 -230zM702 1724q83 -38 140 -38q72 0 155 65q-17 -82 -76.5 -136t-132.5 -54q-48 0 -118 30q-85 39 -140 39q-72 0 -155 -65q17 82 76.5 136t132.5 54q45 0 118 -31z" />
    <glyph glyph-name="utilde" unicode="&#x169;" horiz-adv-x="980" 
d="M135 274v224q0 128 -6 192q-9 103 -72 195q108 2 236 10q-14 -304 -14 -369v-233q0 -95 42.5 -144t118.5 -49q108 0 173 70.5t65 183.5v144q0 128 -6 192q-9 103 -72 195q108 2 236 10q-15 -325 -15 -369v-67q0 -141 6 -205q9 -111 82 -160q-127 -58 -217 -117l-4 195
q-39 -92 -114.5 -148.5t-165.5 -56.5q-158 0 -232 121q-41 68 -41 186zM489 1389q85 -39 140 -39q72 0 155 65q-17 -82 -76.5 -136t-132.5 -54q-47 0 -118 30q-85 39 -140 39q-72 0 -155 -65q17 82 76.5 136t132.5 54q47 0 118 -30z" />
    <glyph glyph-name="Umacron" unicode="&#x16a;" horiz-adv-x="1320" 
d="M1190 991v-471q0 -240 -148 -397q-147 -156 -385 -156q-246 0 -384 137.5t-138 384.5v502q0 128 -6 230q-9 149 -76 219h25q9 0 63 -5t78 -5t77 5t62 5h25q-77 -80 -80 -219q-4 -180 -4 -230v-497q0 -196 98.5 -305t272.5 -109q191 0 301 123t110 344v444q0 128 -6 230
q-9 149 -76 219h17q12 0 59.5 -5t61.5 -5t61 5t59 5h17q-77 -80 -80 -219q-4 -180 -4 -230zM965 1606h-553v110h553v-110z" />
    <glyph glyph-name="umacron" unicode="&#x16b;" horiz-adv-x="980" 
d="M135 274v224q0 128 -6 192q-9 103 -72 195q108 2 236 10q-14 -304 -14 -369v-233q0 -95 42.5 -144t118.5 -49q108 0 173 70.5t65 183.5v144q0 128 -6 192q-9 103 -72 195q108 2 236 10q-15 -325 -15 -369v-67q0 -141 6 -205q9 -111 82 -160q-127 -58 -217 -117l-4 195
q-39 -92 -114.5 -148.5t-165.5 -56.5q-158 0 -232 121q-41 68 -41 186zM752 1264h-553v110h553v-110z" />
    <glyph glyph-name="Ubreve" unicode="&#x16c;" horiz-adv-x="1320" 
d="M1190 991v-471q0 -240 -148 -397q-147 -156 -385 -156q-246 0 -384 137.5t-138 384.5v502q0 128 -6 230q-9 149 -76 219h25q9 0 63 -5t78 -5t77 5t62 5h25q-77 -80 -80 -219q-4 -180 -4 -230v-497q0 -196 98.5 -305t272.5 -109q191 0 301 123t110 344v444q0 128 -6 230
q-9 149 -76 219h17q12 0 59.5 -5t61.5 -5t61 5t59 5h17q-77 -80 -80 -219q-4 -180 -4 -230zM1020 1804q-24 -125 -117 -198.5t-215 -73.5q-121 0 -212.5 73.5t-115.5 198.5q84 -77 155 -105t175 -28t175 28t155 105z" />
    <glyph glyph-name="ubreve" unicode="&#x16d;" horiz-adv-x="980" 
d="M135 274v224q0 128 -6 192q-9 103 -72 195q108 2 236 10q-14 -304 -14 -369v-233q0 -95 42.5 -144t118.5 -49q108 0 173 70.5t65 183.5v144q0 128 -6 192q-9 103 -72 195q108 2 236 10q-15 -325 -15 -369v-67q0 -141 6 -205q9 -111 82 -160q-127 -58 -217 -117l-4 195
q-39 -92 -114.5 -148.5t-165.5 -56.5q-158 0 -232 121q-41 68 -41 186zM723 1524q4 -78 4 -80q0 -176 -67.5 -272.5t-184.5 -96.5t-184.5 96.5t-67.5 272.5q0 2 4 80q44 -159 103.5 -232t144.5 -73t144.5 73t103.5 232z" />
    <glyph glyph-name="Uring" unicode="&#x16e;" horiz-adv-x="1320" 
d="M1190 991v-471q0 -240 -148 -397q-147 -156 -385 -156q-246 0 -384 137.5t-138 384.5v502q0 128 -6 230q-9 149 -76 219h25q9 0 63 -5t78 -5t77 5t62 5h25q-77 -80 -80 -219q-4 -180 -4 -230v-497q0 -196 98.5 -305t272.5 -109q191 0 301 123t110 344v444q0 128 -6 230
q-9 149 -76 219h17q12 0 59.5 -5t61.5 -5t61 5t59 5h17q-77 -80 -80 -219q-4 -180 -4 -230zM539 1511q-61 61 -61 149t61 150q61 63 149 63t150 -63q63 -62 63 -150t-63 -149q-62 -61 -150 -61t-149 61zM686 1534q54 0 89.5 35.5t35.5 89.5t-35.5 91.5t-89.5 37.5
q-51 0 -86 -37.5t-35 -91.5t35 -89.5t86 -35.5z" />
    <glyph glyph-name="uring" unicode="&#x16f;" horiz-adv-x="980" 
d="M135 274v224q0 128 -6 192q-9 103 -72 195q108 2 236 10q-14 -304 -14 -369v-233q0 -95 42.5 -144t118.5 -49q108 0 173 70.5t65 183.5v144q0 128 -6 192q-9 103 -72 195q108 2 236 10q-15 -325 -15 -369v-67q0 -141 6 -205q9 -111 82 -160q-127 -58 -217 -117l-4 195
q-39 -92 -114.5 -148.5t-165.5 -56.5q-158 0 -232 121q-41 68 -41 186zM326 1167q-62 61 -62 149t62 150q62 63 149.5 63t149.5 -63q63 -61 63 -149.5t-63 -149.5q-61 -61 -149 -61t-150 61zM473 1190q54 0 89.5 35.5t35.5 89.5t-35.5 91.5t-89.5 37.5q-51 0 -86 -37.5
t-35 -91.5t35 -89.5t86 -35.5z" />
    <glyph glyph-name="Uhungarumlaut" unicode="&#x170;" horiz-adv-x="1320" 
d="M1190 991v-471q0 -240 -148 -397q-147 -156 -385 -156q-246 0 -384 137.5t-138 384.5v502q0 128 -6 230q-9 149 -76 219h25q9 0 63 -5t78 -5t77 5t62 5h25q-77 -80 -80 -219q-4 -180 -4 -230v-497q0 -196 98.5 -305t272.5 -109q191 0 301 123t110 344v444q0 128 -6 230
q-9 149 -76 219h17q12 0 59.5 -5t61.5 -5t61 5t59 5h17q-77 -80 -80 -219q-4 -180 -4 -230zM793 1675l-418 -166l334 303zM1147 1675l-418 -166l334 303z" />
    <glyph glyph-name="uhungarumlaut" unicode="&#x171;" horiz-adv-x="980" 
d="M135 274v224q0 128 -6 192q-9 103 -72 195q108 2 236 10q-14 -304 -14 -369v-233q0 -95 42.5 -144t118.5 -49q108 0 173 70.5t65 183.5v144q0 128 -6 192q-9 103 -72 195q108 2 236 10q-15 -325 -15 -369v-67q0 -141 6 -205q9 -111 82 -160q-127 -58 -217 -117l-4 195
q-39 -92 -114.5 -148.5t-165.5 -56.5q-158 0 -232 121q-41 68 -41 186zM520 1479l-235 -424l80 479zM748 1479l-236 -424l80 479z" />
    <glyph glyph-name="Uogonek" unicode="&#x172;" horiz-adv-x="1320" 
d="M815 -217q4 -32 4 -39q0 -75 -40.5 -118.5t-108.5 -43.5q-72 0 -120 48t-48 122q0 116 110 217q-227 12 -352 148.5t-125 371.5v502q0 128 -6 230q-9 149 -76 219h25q9 0 63 -5t78 -5t77 5t62 5h25q-77 -80 -80 -219q-4 -180 -4 -230v-497q0 -196 98.5 -305t272.5 -109
q191 0 301 123t110 344v444q0 128 -6 230q-9 149 -76 219h17q12 0 59.5 -5t61.5 -5t61 5t59 5h17q-77 -80 -80 -219q-4 -180 -4 -230v-471q0 -233 -139 -387q-140 -155 -363 -164q-84 -87 -84 -176q0 -46 26 -71t68 -25q70 0 117 86z" />
    <glyph glyph-name="uogonek" unicode="&#x173;" horiz-adv-x="980" 
d="M870 -217q4 -32 4 -39q0 -75 -40.5 -118.5t-108.5 -43.5q-73 0 -120.5 48t-47.5 122q0 128 135 236l-4 184q-39 -92 -114.5 -148.5t-165.5 -56.5q-158 0 -232 121q-41 68 -41 186v224q0 128 -6 192q-9 103 -72 195q108 2 236 10q-14 -304 -14 -369v-233q0 -95 42.5 -144
t118.5 -49q108 0 173 70.5t65 183.5v144q0 128 -6 192q-9 103 -72 195q108 2 236 10q-15 -325 -15 -369v-67q0 -141 6 -205q9 -111 82 -160q-77 -47 -94 -61q-156 -129 -156 -240q0 -46 26 -71t69 -25q69 0 116 86z" />
    <glyph glyph-name="Wcircumflex" unicode="&#x174;" horiz-adv-x="1959" 
d="M1686 1440h28q21 0 65.5 -3t55.5 -3q17 0 59.5 3t55.5 3h20q-55 -64 -117 -215q-47 -126 -47 -127q-25 -79 -37 -107l-391 -1024l-401 1080l-410 -1080l-379 1024l-86 230q-53 128 -112 219h30q18 0 67.5 -3t64.5 -3q14 0 63.5 3t71.5 3h20q-43 -58 -43 -119
q0 -60 98 -330l236 -663l250 663q55 143 55 260q0 93 -96 189h37q21 0 70 -3t61 -3q14 0 63.5 3t71.5 3h20q-47 -59 -47 -129q0 -78 88 -320l240 -661l250 661q84 225 84 326q0 70 -59 123zM1278 1516l-299 120l-299 -120l299 311z" />
    <glyph glyph-name="wcircumflex" unicode="&#x175;" horiz-adv-x="1296" 
d="M825 518l109 -285l119 283q67 158 67 248q0 61 -45 123h21q6 0 48.5 -4t59.5 -4q10 0 48 4t44 4h25l-90 -193l-47 -104l-33 -78l-254 -569l-250 632l-280 -632l-226 571q-76 197 -82 207q-48 106 -82 166h31q14 0 55.5 -4t53.5 -4q13 0 57.5 4t61.5 4h20q-41 -59 -41 -99
q0 -62 78 -268l110 -287l121 283q64 149 64 227q0 74 -64 144h33q7 0 46.5 -4t49.5 -4q2 0 56 4t55 4h27q-43 -52 -43 -101q0 -58 77 -268zM432 1034l215 516l215 -516l-215 226z" />
    <glyph glyph-name="Ycircumflex" unicode="&#x176;" horiz-adv-x="1067" 
d="M803 989l-182 -309v-234q0 -49 4 -229q3 -139 80 -219h-25q-9 0 -62 5t-77 5t-78.5 -5t-63.5 -5h-24q67 70 76 219q6 102 6 229v232l-193 313l-139 230q-75 114 -148 219h29q19 0 74.5 -4t66.5 -4q6 0 72 4t74 4h22q-49 -49 -49 -97q0 -35 31 -102q37 -68 147 -250
l129 -209l121 209q158 273 158 346q0 48 -49 103h24q13 0 58 -4t61 -4q19 0 66 4t53 4h22l-141 -217q-66 -103 -143 -234zM874 1516l-299 120l-299 -120l299 311z" />
    <glyph glyph-name="ycircumflex" unicode="&#x177;" horiz-adv-x="811" 
d="M-55 -528q-11 57 -11 96q0 66 13 110q63 -75 135 -75q44 0 72 23.5t57 86.5l139 307l-198 494l-84 207q-49 109 -80 166h28q14 0 57.5 -4t55.5 -4q13 0 57.5 4t61.5 4h20q-41 -59 -41 -99q0 -70 78 -270l127 -319l135 317q72 173 72 248q0 61 -45 123h20q6 0 46 -4t57 -4
q9 0 46 4t44 4h22l-84 -191l-43 -96l-34 -86l-353 -799q-64 -140 -116 -198q-62 -62 -158 -62q-53 0 -96 17zM213 1034l215 516l215 -516l-215 226z" />
    <glyph glyph-name="Ydieresis" unicode="&#x178;" horiz-adv-x="1067" 
d="M803 989l-182 -309v-234q0 -49 4 -229q3 -139 80 -219h-25q-9 0 -62 5t-77 5t-78.5 -5t-63.5 -5h-24q67 70 76 219q6 102 6 229v232l-193 313l-139 230q-75 114 -148 219h29q19 0 74.5 -4t66.5 -4q6 0 72 4t74 4h22q-49 -49 -49 -97q0 -35 31 -102q37 -68 147 -250
l129 -209l121 209q158 273 158 346q0 48 -49 103h24q13 0 58 -4t61 -4q19 0 66 4t53 4h22l-141 -217q-66 -103 -143 -234zM557 1663l-127 -127l-127 127l127 127zM846 1663l-127 -127l-127 127l127 127z" />
    <glyph glyph-name="Zacute" unicode="&#x179;" horiz-adv-x="1173" 
d="M530 82h175q128 0 210 12q89 12 138 82q47 64 104 203q8 -55 8 -107q0 -148 -37 -278q-80 6 -294 6h-519q-217 0 -309 -6l897 1352q-125 8 -260 8h-154q-97 0 -176 -11q-83 -12 -137 -75q-41 -47 -106 -174q-7 65 -7 116q0 112 23 230q79 -6 227 -6h525q220 0 311 6
l-885 -1348q143 -10 266 -10zM879 1645l-496 -136l414 297z" />
    <glyph glyph-name="zacute" unicode="&#x17a;" horiz-adv-x="745" 
d="M319 881h197q112 0 217 6q-99 -140 -182 -269l-342 -530h135q78 0 156 10q57 9 104 62q42 48 92 157q9 -53 9 -102q0 -88 -25 -225q-72 3 -134.5 5.5t-89.5 3.5t-28 1h-195q-27 0 -245 -4q33 45 180 276l332 521h-109q-91 0 -147 -9q-101 -15 -183 -170q-4 40 -4 86
q0 101 19 191q153 -10 243 -10zM537 1479l-250 -449l78 506z" />
    <glyph glyph-name="Zdotaccent" unicode="&#x17b;" horiz-adv-x="1173" 
d="M530 82h175q128 0 210 12q89 12 138 82q47 64 104 203q8 -55 8 -107q0 -148 -37 -278q-80 6 -294 6h-519q-217 0 -309 -6l897 1352q-125 8 -260 8h-154q-97 0 -176 -11q-83 -12 -137 -75q-41 -47 -106 -174q-7 65 -7 116q0 112 23 230q79 -6 227 -6h525q220 0 311 6
l-885 -1348q143 -10 266 -10zM733 1661l-143 -143l-144 143l144 143z" />
    <glyph glyph-name="zdotaccent" unicode="&#x17c;" horiz-adv-x="745" 
d="M319 881h197q112 0 217 6q-99 -140 -182 -269l-342 -530h135q78 0 156 10q57 9 104 62q42 48 92 157q9 -53 9 -102q0 -88 -25 -225q-72 3 -134.5 5.5t-89.5 3.5t-28 1h-195q-27 0 -245 -4q33 45 180 276l332 521h-109q-91 0 -147 -9q-101 -15 -183 -170q-4 40 -4 86
q0 101 19 191q153 -10 243 -10zM514 1389l-143 -144l-144 144l144 143z" />
    <glyph glyph-name="Zcaron" unicode="&#x17d;" horiz-adv-x="1173" 
d="M530 82h175q128 0 210 12q89 12 138 82q47 64 104 203q8 -55 8 -107q0 -148 -37 -278q-80 6 -294 6h-519q-217 0 -309 -6l897 1352q-125 8 -260 8h-154q-97 0 -176 -11q-83 -12 -137 -75q-41 -47 -106 -174q-7 65 -7 116q0 112 23 230q79 -6 227 -6h525q220 0 311 6
l-885 -1348q143 -10 266 -10zM590 1491l-299 311l299 -121l299 121z" />
    <glyph glyph-name="zcaron" unicode="&#x17e;" horiz-adv-x="745" 
d="M319 881h197q112 0 217 6q-99 -140 -182 -269l-342 -530h135q78 0 156 10q57 9 104 62q42 48 92 157q9 -53 9 -102q0 -88 -25 -225q-72 3 -134.5 5.5t-89.5 3.5t-28 1h-195q-27 0 -245 -4q33 45 180 276l332 521h-109q-91 0 -147 -9q-101 -15 -183 -170q-4 40 -4 86
q0 101 19 191q153 -10 243 -10zM371 1305l215 225l-215 -516l-215 516z" />
    <glyph glyph-name="longs" unicode="&#x17f;" horiz-adv-x="475" 
d="M489 1425q-194 0 -194 -385v-657q1 -193 8 -234q10 -61 53 -115q12 -15 31 -36h-22q-21 0 -76 4t-66 4q-12 0 -57 -4t-66 -4h-20q56 65 65 195q7 75 7 198v303q0 63 -17.5 96t-60.5 50l12 16q26 34 39 70q14 39 22 96l19 92q94 418 387 418q111 0 197 -45q6 -37 6 -80
q0 -106 -45 -195q-38 111 -92 162t-130 51z" />
    <glyph glyph-name="Schwa" unicode="&#x18f;" horiz-adv-x="1400" 
d="M1348 717q0 -323 -207 -539q-207 -213 -523 -213q-239 0 -411 152q-166 150 -166 379q0 51 6 75h1100q8 36 8 131q0 279 -149 441q-147 164 -381 164q-122 0 -221.5 -39.5t-178.5 -111.5t-159 -187q12 215 178 356q170 141 407 141q309 0 502 -217q195 -219 195 -532z
M1130 479h-899q3 -175 115 -293q114 -114 287 -114q192 0 318.5 107t178.5 300z" />
    <glyph glyph-name="florin" unicode="&#x192;" horiz-adv-x="942" 
d="M-4 -426q42 0 65.5 20.5t46.5 96.5t46 231l125 862h-136v84l150 13q46 228 110 352q69 136 174 217.5t228 81.5q104 0 172 -39q4 -50 4 -59q0 -114 -53 -209q-47 112 -92 156t-111 44q-209 0 -295 -538l219 8l-41 -111h-196l-103 -651q-22 -142 -50.5 -253t-59 -185.5
t-67.5 -124t-72.5 -74.5t-77.5 -32t-79 -1t-81 23q-4 36 -4 43q0 75 41 162q61 -117 137 -117z" />
    <glyph glyph-name="DZcaron" unicode="&#x1c4;" horiz-adv-x="2619" 
d="M608 84q285 0 441.5 164t156.5 463q0 296 -174 467q-171 174 -440 174q-153 0 -205 -19q-48 -15 -51 -78q-6 -65 -6 -211v-618q0 -162 6 -223q9 -79 59 -99t213 -20zM166 446v545q0 128 -6 230q-9 149 -76 219h25q9 0 63 -5t78 -5q60 0 174 6q101 8 184 8
q125 0 240.5 -29t215.5 -89.5t173.5 -146t115.5 -205.5t42 -261q0 -326 -213 -527q-210 -198 -559 -198q-83 0 -220 10q-133 10 -153 10q-24 0 -78 -5t-63 -5h-25q67 70 76 219q6 102 6 229zM1976 82h174q128 0 211 12q89 12 138 82q47 64 104 203q8 -55 8 -107
q0 -148 -37 -278q-80 6 -295 6h-518q-217 0 -309 -6l897 1352q-125 8 -260 8h-154q-97 0 -176 -11q-83 -12 -137 -75q-41 -47 -106 -174q-7 65 -7 116q0 112 23 230q80 -6 227 -6h525q220 0 311 6l-885 -1348q143 -10 266 -10zM2036 1491l-299 311l299 -121l299 121z" />
    <glyph glyph-name="Dzcaron" unicode="&#x1c5;" horiz-adv-x="2191" 
d="M1765 881h197q112 0 217 6q-99 -140 -182 -269l-342 -530h135q78 0 156 10q57 9 104 62q42 48 92 157q8 -47 8 -102q0 -93 -24 -225q-72 3 -134.5 5.5t-89.5 3.5t-28 1h-195q-27 0 -245 -4q33 45 180 276l332 521h-109q-91 0 -147 -9q-101 -15 -183 -170q-4 40 -4 86
q0 101 19 191q153 -10 243 -10zM608 84q285 0 441.5 164t156.5 463q0 296 -174 467q-171 174 -440 174q-153 0 -205 -19q-48 -15 -51 -78q-6 -65 -6 -211v-618q0 -162 6 -223q9 -79 59 -99t213 -20zM166 446v545q0 128 -6 230q-9 149 -76 219h25q9 0 63 -5t78 -5q60 0 174 6
q101 8 184 8q125 0 240.5 -29t215.5 -89.5t173.5 -146t115.5 -205.5t42 -261q0 -326 -213 -527q-210 -198 -559 -198q-83 0 -220 10q-133 10 -153 10q-24 0 -78 -5t-63 -5h-25q67 70 76 219q6 102 6 229zM1817 1305l215 225l-215 -516l-215 516z" />
    <glyph glyph-name="dzcaron" unicode="&#x1c6;" horiz-adv-x="1753" 
d="M1327 881h197q112 0 217 6q-99 -140 -182 -269l-342 -530h135q77 0 155 10q58 9 105 62q42 48 92 157q8 -47 8 -102q0 -93 -24 -225q-72 3 -134.5 5.5t-89.5 3.5t-28 1h-195q-28 0 -246 -4q40 54 181 276l331 521h-108q-93 0 -148 -9q-100 -15 -182 -170q-4 40 -4 86
q0 106 18 191q153 -10 244 -10zM455 842q-110 0 -185 -95.5t-75 -257.5q0 -180 80.5 -285.5t207.5 -105.5q102 0 162 65.5t60 176.5v213q0 141 -70.5 215t-179.5 74zM705 866v178q0 118 -7 193q-5 66 -20.5 97.5t-59.5 62.5q124 53 240 127q-3 -97 -5.5 -191t-3.5 -134
t-1 -46v-715q0 -120 6 -184q9 -113 80 -160q-127 -58 -217 -117l-6 179q-43 -81 -119 -135t-150 -54q-162 0 -280 127q-117 126 -117 344t127 357t299 139q142 0 234 -68zM1378 1305l215 225l-215 -516l-215 516z" />
    <glyph glyph-name="LJ" unicode="&#x1c7;" horiz-adv-x="1705" 
d="M330 991v-565q0 -100 6 -223q1 -71 29 -95t102 -24q139 0 217 10q79 12 135.5 81.5t102.5 199.5q12 -49 12 -123q0 -104 -37 -258q-208 10 -647 10q-24 0 -78 -3t-63 -3h-25q67 70 76 219q6 102 6 229v545q0 128 -6 230q-9 149 -76 219h25q9 0 63 -5t78 -5t77 5t62 5h25
q-77 -80 -80 -219q-4 -180 -4 -230zM1554 991v-362q0 -230 2 -291q-6 -178 -94 -274.5t-237 -96.5q-104 0 -172.5 54.5t-87.5 152.5q56 -60 110 -84t129 -24q112 0 158 110q29 69 29 240v575q0 111 -7 230q-9 150 -75 219h24q9 0 63.5 -5t78.5 -5t77 5t62 5h24
q-76 -79 -79 -219q-5 -225 -5 -230z" />
    <glyph glyph-name="Lj" unicode="&#x1c8;" horiz-adv-x="1384" 
d="M330 991v-565q0 -100 6 -223q1 -71 29 -95t102 -24q139 0 217 10q79 12 135.5 81.5t102.5 199.5q12 -49 12 -123q0 -104 -37 -258q-208 10 -647 10q-24 0 -78 -3t-63 -3h-25q67 70 76 219q6 102 6 229v545q0 128 -6 230q-9 149 -76 219h25q9 0 63 -5t78 -5t77 5t62 5h25
q-77 -80 -80 -219q-4 -180 -4 -230zM1251 551v-518q0 -162 2 -205q-12 -121 -85 -221.5t-187 -147.5q72 124 100 226q27 99 27 252v505q0 128 -6 193q-5 66 -20.5 97.5t-59.5 62.5q124 53 240 127q-3 -100 -5.5 -191.5t-4 -133t-1.5 -46.5zM1323 1389l-143 -144l-144 144
l144 143z" />
    <glyph glyph-name="lj" unicode="&#x1c9;" horiz-adv-x="876" 
d="M301 1153v-762q0 -112 4 -198q9 -127 68 -195h-23q-21 0 -65.5 4t-55.5 4q-12 0 -57 -4t-66 -4h-20q57 66 66 195q6 65 6 198v653q0 128 -6 193q-5 66 -20.5 97.5t-59.5 62.5q121 52 239 127q-3 -97 -5.5 -191t-3.5 -134t-1 -46zM743 551v-518q0 -162 2 -205
q-12 -121 -85 -221.5t-187 -147.5q72 124 100 226q27 99 27 252v505q0 128 -6 193q-5 66 -20.5 97.5t-59.5 62.5q124 53 240 127q-3 -100 -5.5 -191.5t-4 -133t-1.5 -46.5zM815 1389l-143 -144l-144 144l144 143z" />
    <glyph glyph-name="NJ" unicode="&#x1ca;" horiz-adv-x="2238" 
d="M170 444v547q0 149 -6 217q-15 155 -92 232h24q12 0 83 -3t112 -3l930 -1086v643q0 111 -7 230q-9 150 -75 219h16q12 0 59.5 -5t61.5 -5t61.5 5t59.5 5h16q-77 -80 -80 -219q-4 -180 -4 -230v-692q0 -225 8 -350l-1058 1237v-742q0 -49 4 -229q3 -140 79 -219h-16
q-12 0 -59.5 5t-61.5 5t-61.5 -5t-59.5 -5h-16q67 70 76 219q6 102 6 229zM2087 991v-362q0 -230 2 -291q-6 -178 -94 -274.5t-238 -96.5q-104 0 -172.5 54.5t-87.5 152.5q56 -60 110.5 -84t129.5 -24q111 0 157 110q29 69 29 240v575q0 128 -6 230q-9 149 -76 219h25
q9 0 63 -5t78 -5t77 5t62 5h25q-77 -80 -80 -219q-4 -180 -4 -230z" />
    <glyph glyph-name="Nj" unicode="&#x1cb;" horiz-adv-x="1916" 
d="M170 444v547q0 149 -6 217q-15 155 -92 232h24q12 0 83 -3t112 -3l930 -1086v643q0 111 -7 230q-9 150 -75 219h16q12 0 59.5 -5t61.5 -5t61.5 5t59.5 5h16q-77 -80 -80 -219q-4 -180 -4 -230v-692q0 -225 8 -350l-1058 1237v-742q0 -49 4 -229q3 -140 79 -219h-16
q-12 0 -59.5 5t-61.5 5t-61.5 -5t-59.5 -5h-16q67 70 76 219q6 102 6 229zM1784 551v-518q0 -162 2 -205q-12 -120 -85.5 -221t-187.5 -148q74 127 101 226q26 95 26 252v505q0 128 -6 193q-5 66 -20.5 97.5t-59.5 62.5q124 53 240 127q-3 -97 -5.5 -191t-3.5 -134t-1 -46z
M1855 1389l-143 -144l-143 144l143 143z" />
    <glyph glyph-name="nj" unicode="&#x1cc;" horiz-adv-x="1425" 
d="M856 627v-236q0 -112 4 -198q9 -127 68 -195h-23q-21 0 -65.5 4t-55.5 4q-12 0 -56.5 -4t-65.5 -4h-21q57 66 66 195q6 65 6 198v217q0 87 -48.5 140t-129.5 53q-103 0 -166.5 -63.5t-63.5 -164.5v-182q0 -112 4 -198q9 -127 68 -195h-23q-21 0 -65.5 4t-55.5 4
q-12 0 -56.5 -4t-65.5 -4h-21q57 66 66 195q6 65 6 198v51q0 128 -6 193q-5 66 -20.5 97.5t-59.5 62.5q121 52 239 127q-12 -99 -12 -181q102 193 277 193q156 0 233 -127q43 -76 43 -180zM1292 551v-518q0 -162 2 -205q-12 -121 -85 -221.5t-187 -147.5q72 124 100 226
q27 99 27 252v505q0 128 -6 193q-5 66 -20.5 97.5t-59.5 62.5q124 53 240 127q-3 -100 -5.5 -191.5t-4 -133t-1.5 -46.5zM1364 1389l-143 -144l-144 144l144 143z" />
    <glyph glyph-name="Oogonek" unicode="&#x1ea;" horiz-adv-x="1595" 
d="M956 -217q1 -6 2 -14.5t2 -14.5t1 -10q0 -74 -41 -118t-109 -44q-73 0 -120.5 48t-47.5 122q0 116 113 217q-315 21 -508 226q-195 207 -195 522q0 324 215 536q216 213 527 213q322 0 534 -215q213 -213 213 -534q0 -316 -207 -529t-506 -219q-84 -87 -84 -176
q0 -46 26 -71t69 -25q69 0 116 86zM764 1364q-224 0 -371 -166t-147 -455q0 -302 172 -489q174 -186 422 -186q223 0 366 174q144 176 144 450q0 294 -170 482q-169 190 -416 190z" />
    <glyph glyph-name="oogonek" unicode="&#x1eb;" horiz-adv-x="983" 
d="M610 -231l47 -15q-27 -172 -163 -172q-72 0 -120 48t-48 122q0 114 108 219q-175 21 -289 156q-112 133 -112 324q0 198 133 340q131 143 321 143q196 0 326 -139q131 -137 131 -344q0 -196 -127 -338q-128 -140 -305 -146q-84 -87 -84 -174q0 -46 25 -71t63 -25
q66 0 94 72zM481 840q-126 0 -203 -98.5t-77 -272.5q0 -187 82.5 -295t220.5 -108q123 0 197.5 99t74.5 273q0 178 -84 291q-82 111 -211 111z" />
    <glyph glyph-name="DZ" unicode="&#x1f1;" horiz-adv-x="2619" 
d="M608 84q285 0 441.5 164t156.5 463q0 296 -174 467q-171 174 -440 174q-153 0 -205 -19q-48 -15 -51 -78q-6 -65 -6 -211v-618q0 -162 6 -223q9 -79 59 -99t213 -20zM166 446v545q0 128 -6 230q-9 149 -76 219h25q9 0 63 -5t78 -5q60 0 174 6q101 8 184 8
q125 0 240.5 -29t215.5 -89.5t173.5 -146t115.5 -205.5t42 -261q0 -326 -213 -527q-210 -198 -559 -198q-83 0 -220 10q-133 10 -153 10q-24 0 -78 -5t-63 -5h-25q67 70 76 219q6 102 6 229zM1976 82h174q128 0 211 12q89 12 138 82q47 64 104 203q8 -55 8 -107
q0 -148 -37 -278q-80 6 -295 6h-518q-217 0 -309 -6l897 1352q-125 8 -260 8h-154q-97 0 -176 -11q-83 -12 -137 -75q-41 -47 -106 -174q-7 65 -7 116q0 112 23 230q80 -6 227 -6h525q220 0 311 6l-885 -1348q143 -10 266 -10z" />
    <glyph glyph-name="Dz" unicode="&#x1f2;" horiz-adv-x="2191" 
d="M1765 881h197q112 0 217 6q-99 -140 -182 -269l-342 -530h135q78 0 156 10q57 9 104 62q42 48 92 157q8 -47 8 -102q0 -93 -24 -225q-72 3 -134.5 5.5t-89.5 3.5t-28 1h-195q-27 0 -245 -4q33 45 180 276l332 521h-109q-91 0 -147 -9q-101 -15 -183 -170q-4 40 -4 86
q0 101 19 191q153 -10 243 -10zM608 84q285 0 441.5 164t156.5 463q0 296 -174 467q-171 174 -440 174q-153 0 -205 -19q-48 -15 -51 -78q-6 -65 -6 -211v-618q0 -162 6 -223q9 -79 59 -99t213 -20zM166 446v545q0 128 -6 230q-9 149 -76 219h25q9 0 63 -5t78 -5q60 0 174 6
q101 8 184 8q125 0 240.5 -29t215.5 -89.5t173.5 -146t115.5 -205.5t42 -261q0 -326 -213 -527q-210 -198 -559 -198q-83 0 -220 10q-133 10 -153 10q-24 0 -78 -5t-63 -5h-25q67 70 76 219q6 102 6 229z" />
    <glyph glyph-name="dz" unicode="&#x1f3;" horiz-adv-x="1753" 
d="M1327 881h197q112 0 217 6q-99 -140 -182 -269l-342 -530h135q77 0 155 10q58 9 105 62q42 48 92 157q8 -47 8 -102q0 -93 -24 -225q-72 3 -134.5 5.5t-89.5 3.5t-28 1h-195q-28 0 -246 -4q40 54 181 276l331 521h-108q-93 0 -148 -9q-100 -15 -182 -170q-4 40 -4 86
q0 106 18 191q153 -10 244 -10zM455 842q-110 0 -185 -95.5t-75 -257.5q0 -180 80.5 -285.5t207.5 -105.5q102 0 162 65.5t60 176.5v213q0 141 -70.5 215t-179.5 74zM705 866v178q0 118 -7 193q-5 66 -20.5 97.5t-59.5 62.5q124 53 240 127q-3 -97 -5.5 -191t-3.5 -134
t-1 -46v-715q0 -120 6 -184q9 -113 80 -160q-127 -58 -217 -117l-6 179q-43 -81 -119 -135t-150 -54q-162 0 -280 127q-117 126 -117 344t127 357t299 139q142 0 234 -68z" />
    <glyph glyph-name="Gacute" unicode="&#x1f4;" horiz-adv-x="1433" 
d="M1141 244q0 96 -4 186q-9 141 -99 219h25q15 0 67 -6q70 -4 84 -4q24 0 77.5 5t62.5 5h24q-43 -44 -61 -90t-19 -125q-4 -180 -4 -196q0 -67 11 -164q-195 -107 -451 -107q-316 0 -553 180q-118 93 -185 242t-67 332q0 331 230 536q232 209 563 209q228 0 452 -82
q9 -64 9 -120q0 -117 -21 -228q-83 191 -172 262q-89 74 -266 74q-271 0 -436 -180q-166 -181 -166 -469q0 -299 188 -481q190 -181 455 -181q135 0 195.5 43t60.5 140zM1108 1645l-496 -136l414 297z" />
    <glyph glyph-name="gacute" unicode="&#x1f5;" horiz-adv-x="854" 
d="M913 895l-55 -125l-176 35q84 -84 84 -221q0 -147 -96 -248q-96 -96 -232 -96q-129 0 -219 75q-78 -60 -78 -143q0 -96 140 -102l247 -9q140 -4 217.5 -79t77.5 -199q0 -143 -131 -244q-129 -102 -336 -102q-165 0 -256.5 65.5t-91.5 175.5q0 138 164 252
q-147 52 -147 195q0 134 141 242q-70 94 -70 217q0 141 99 243q98 101 235 101q60 0 133 -21q73 -20 133 -20q133 0 217 8zM711 -252q0 158 -219 158q-168 0 -250 6q-101 -94 -101 -199q0 -74 64 -118t184 -44q157 0 239.5 55.5t82.5 141.5zM426 846q-80 0 -126 -64
t-46 -186q0 -133 48 -203.5t136 -70.5q172 0 172 251q0 127 -49.5 200t-134.5 73zM592 1479l-250 -449l78 506z" />
    <glyph glyph-name="Aringacute" unicode="&#x1fa;" horiz-adv-x="1206" 
d="M403 1661q0 88 61.5 150.5t149.5 62.5t150.5 -62.5t62.5 -150.5q0 -86 -60.5 -147.5t-145.5 -63.5l389 -1004q72 -185 92 -229q69 -164 115 -219h-31q-18 0 -69 3t-66 3q-14 0 -64 -3t-72 -3h-20q41 53 41 111q0 39 -21 106q-16 52 -24 76l-17 45q-3 13 -18.5 55.5
t-19.5 54.5l-17 41h-500l-14 -41q-88 -230 -88 -315q0 -69 55 -133h-22q-19 0 -64 3t-55 3q-18 0 -63.5 -3t-55.5 -3h-22q60 91 114 219q24 54 54 131l39 98l407 1004q-85 5 -143 65t-58 146zM786 575l-208 535l-222 -535h430zM612 1534q54 0 89.5 35.5t35.5 89.5
t-35.5 91.5t-89.5 37.5q-51 0 -85.5 -37.5t-34.5 -91.5t34.5 -89.5t85.5 -35.5zM813 1993l-496 -135l414 296z" />
    <glyph glyph-name="aringacute" unicode="&#x1fb;" horiz-adv-x="741" 
d="M78 711q18 94 90.5 156.5t169.5 62.5q144 0 217 -107q61 -91 61 -221v-196q0 -80 5 -187q6 -96 25 -143.5t65 -79.5q-27 -6 -49 -6q-75 0 -122 43t-61 114q-83 -176 -237 -176q-96 0 -154.5 54.5t-58.5 140.5q0 122 129 205q112 72 315 125v100q0 92 -43 147
q-43 58 -129 58q-107 0 -223 -90zM473 311v113q-29 -8 -119 -47q-180 -76 -180 -176q0 -46 26.5 -75.5t75.5 -29.5q73 0 134 58q63 57 63 157zM188 1106q-62 62 -62 150t62 149q61 63 149.5 63t149.5 -63q63 -61 63 -149t-63 -150q-61 -62 -149 -62t-150 62zM336 1128
q54 0 89.5 35.5t35.5 89.5t-35.5 91.5t-89.5 37.5q-51 0 -86 -37.5t-35 -91.5t35 -89.5t86 -35.5zM582 1645l-496 -136l414 297z" />
    <glyph glyph-name="AEacute" unicode="&#x1fc;" horiz-adv-x="1714" 
d="M1319 793q137 15 201 106v-25q-4 -38 -4 -131t4 -133v-24q-61 88 -201 106q-92 10 -279 10v-276q0 -80 7 -223q1 -71 29 -95t102 -24q139 0 217 10q155 21 237 252q8 -49 8 -94q0 -127 -32 -258q-208 10 -647 10q-24 0 -78.5 -3t-63.5 -3h-24q66 69 75 219q7 119 7 229
v41h-435l-22 -36q-162 -262 -162 -342q0 -58 53 -111h-22q-21 0 -79 3t-73 3q-12 0 -60 -3t-69 -3h-24q101 135 159 219q115 171 150 229l459 728q67 101 67 157q0 63 -61 109h22q5 0 18 -0.5t38 -1.5t47 -2q57 -2 121 -2h333q149 0 228 6q16 -88 16 -178q0 -60 -10 -138
q-89 195 -234 219q-79 11 -176 11q-71 0 -90 -17.5t-24 -81.5q-7 -75 -7 -211v-262q178 0 279 11zM877 575v609l-377 -609h377zM1241 1645l-496 -136l414 297z" />
    <glyph glyph-name="aeacute" unicode="&#x1fd;" horiz-adv-x="1304" 
d="M70 711q18 94 90.5 156.5t169.5 62.5q144 0 217 -107l24 -47q134 158 334 158q148 0 246 -98q100 -93 100 -244q0 -27 -4 -47h-631q-4 -32 -4 -78q0 -160 83.5 -257t219.5 -97q94 0 169 44t149 146q-12 -147 -107 -242q-94 -94 -237 -94q-131 0 -233 68.5t-154 185.5
q-74 -250 -269 -250q-96 0 -154.5 54.5t-58.5 140.5q0 122 130 205q112 72 315 125v100q0 92 -43 147q-43 58 -129 58q-107 0 -223 -90zM631 627h440q-1 98 -60 156.5t-151 58.5q-88 0 -149 -59t-80 -156zM465 311v113q-29 -8 -119 -47q-180 -76 -180 -176q0 -46 26.5 -75.5
t75.5 -29.5q72 0 133 58q64 58 64 157zM797 1479l-250 -449l78 506z" />
    <glyph glyph-name="Oslashacute" unicode="&#x1fe;" horiz-adv-x="1636" 
d="M78 717q0 323 213 536t524 213q236 0 408 -112l141 200l61 -47l-141 -198q131 -103 203 -256.5t72 -335.5q0 -323 -211 -537q-213 -213 -514 -213q-243 0 -420 113l-140 -199l-59 41l137 195q-274 212 -274 600zM784 1364q-223 0 -372 -168q-152 -169 -152 -453
q0 -298 184 -497l695 987q-149 131 -355 131zM1376 692q0 298 -182 492l-698 -989q165 -127 364 -127q228 0 371 174q145 177 145 450zM1106 1645l-496 -136l414 297z" />
    <glyph glyph-name="oslashacute" unicode="&#x1ff;" horiz-adv-x="983" 
d="M268 27l-118 -207l-64 37l121 211q-174 137 -174 383q0 198 133 340q134 143 321 143q113 0 193 -45l119 207l67 -39l-118 -207q93 -68 144.5 -172.5t51.5 -226.5q0 -202 -131 -342q-130 -142 -315 -142q-113 0 -230 60zM778 438q0 189 -96 305l-356 -620q69 -57 178 -57
q124 0 199 99t75 273zM481 840q-126 0 -204 -99t-78 -272q0 -181 75 -287l353 615q-64 43 -146 43zM649 1479l-250 -449l78 506z" />
    <glyph glyph-name="Adblgrave" unicode="&#x200;" horiz-adv-x="1206" 
d="M197 446l415 1024l398 -1024q72 -185 92 -229q69 -164 115 -219h-31q-18 0 -69 3t-66 3q-14 0 -64 -3t-72 -3h-20q41 53 41 111q0 39 -21 106q-16 52 -24 76l-17 45q-3 13 -18.5 55.5t-19.5 54.5l-17 41h-500l-14 -41q-88 -230 -88 -315q0 -69 55 -133h-22q-19 0 -64 3
t-55 3q-18 0 -63.5 -3t-55.5 -3h-22q60 91 114 219q27 61 93 229zM786 575l-208 535l-222 -535h430zM553 1675l84 137l334 -303zM199 1675l84 137l333 -303z" />
    <glyph glyph-name="adblgrave" unicode="&#x201;" horiz-adv-x="741" 
d="M78 711q18 94 90.5 156.5t169.5 62.5q144 0 217 -107q61 -91 61 -221v-196q0 -80 5 -187q6 -96 25 -143.5t65 -79.5q-27 -6 -49 -6q-75 0 -122 43t-61 114q-83 -176 -237 -176q-96 0 -154.5 54.5t-58.5 140.5q0 122 129 205q112 72 315 125v100q0 92 -43 147
q-43 58 -129 58q-107 0 -223 -90zM473 311v113q-29 -8 -119 -47q-180 -76 -180 -176q0 -46 26.5 -75.5t75.5 -29.5q73 0 134 58q63 57 63 157zM305 1479l146 55l53 -404zM88 1479l145 55l54 -404z" />
    <glyph glyph-name="Ainvbreve" unicode="&#x202;" horiz-adv-x="1206" 
d="M197 446l415 1024l398 -1024q72 -185 92 -229q69 -164 115 -219h-31q-18 0 -69 3t-66 3q-14 0 -64 -3t-72 -3h-20q41 53 41 111q0 39 -21 106q-16 52 -24 76l-17 45q-3 13 -18.5 55.5t-19.5 54.5l-17 41h-500l-14 -41q-88 -230 -88 -315q0 -69 55 -133h-22q-19 0 -64 3
t-55 3q-18 0 -63.5 -3t-55.5 -3h-22q60 91 114 219q27 61 93 229zM786 575l-208 535l-222 -535h430zM287 1526q24 125 115 198.5t212 73.5q122 0 215 -73.5t117 -198.5q-84 77 -155 105t-175 28t-174.5 -28t-154.5 -105z" />
    <glyph glyph-name="ainvbreve" unicode="&#x203;" horiz-adv-x="741" 
d="M78 711q18 94 90.5 156.5t169.5 62.5q144 0 217 -107q61 -91 61 -221v-196q0 -80 5 -187q6 -96 25 -143.5t65 -79.5q-27 -6 -49 -6q-75 0 -122 43t-61 114q-83 -176 -237 -176q-96 0 -154.5 54.5t-58.5 140.5q0 122 129 205q112 72 315 125v100q0 92 -43 147
q-43 58 -129 58q-107 0 -223 -90zM473 311v113q-29 -8 -119 -47q-180 -76 -180 -176q0 -46 26.5 -75.5t75.5 -29.5q73 0 134 58q63 57 63 157zM569 1528q2 -14 2 -51q0 -157 -62.5 -238.5t-170.5 -81.5t-171 81.5t-63 238.5q0 37 2 51q47 -124 102 -180t130 -56t129 56
t102 180z" />
    <glyph glyph-name="Edblgrave" unicode="&#x204;" horiz-adv-x="1003" 
d="M608 793q137 15 201 106v-25q-5 -38 -5 -131t5 -133v-24q-61 88 -201 106q-92 10 -278 10v-276q0 -100 6 -223q1 -71 29 -95t102 -24q139 0 217 10q156 21 238 252q8 -49 8 -94q0 -123 -33 -258q-208 10 -647 10q-24 0 -78 -3t-63 -3h-25q67 70 76 219q6 102 6 229v545
q0 128 -6 230q-9 149 -76 219h25q9 0 63 -3t78 -3h377q147 0 227 6q16 -88 16 -178q0 -60 -10 -138q-89 195 -233 219q-79 11 -176 11q-71 0 -90.5 -17.5t-24.5 -81.5q-6 -65 -6 -211v-262q177 0 278 11zM428 1675l84 137l334 -303zM74 1675l84 137l334 -303z" />
    <glyph glyph-name="edblgrave" unicode="&#x205;" horiz-adv-x="874" 
d="M33 434q0 213 129 357q128 143 319 143q148 0 246 -98q100 -93 100 -244q0 -27 -4 -47h-630q-5 -40 -5 -78q0 -160 84 -257t220 -97q94 0 168.5 44t148.5 146q-12 -147 -107 -242q-94 -94 -237 -94q-192 0 -311 137q-121 139 -121 330zM207 627h440q-1 98 -60 156.5
t-151 58.5q-88 0 -149 -59t-80 -156zM143 1481l166 55l76 -492zM391 1481l166 55l76 -492z" />
    <glyph glyph-name="Einvbreve" unicode="&#x206;" horiz-adv-x="1003" 
d="M608 793q137 15 201 106v-25q-5 -38 -5 -131t5 -133v-24q-61 88 -201 106q-92 10 -278 10v-276q0 -100 6 -223q1 -71 29 -95t102 -24q139 0 217 10q156 21 238 252q8 -49 8 -94q0 -123 -33 -258q-208 10 -647 10q-24 0 -78 -3t-63 -3h-25q67 70 76 219q6 102 6 229v545
q0 128 -6 230q-9 149 -76 219h25q9 0 63 -3t78 -3h377q147 0 227 6q16 -88 16 -178q0 -60 -10 -138q-89 195 -233 219q-79 11 -176 11q-71 0 -90.5 -17.5t-24.5 -81.5q-6 -65 -6 -211v-262q177 0 278 11zM162 1526q24 125 115 198.5t212 73.5t214.5 -73.5t117.5 -198.5
q-84 77 -154.5 105t-174.5 28t-175 -28t-155 -105z" />
    <glyph glyph-name="einvbreve" unicode="&#x207;" horiz-adv-x="874" 
d="M33 434q0 213 129 357q128 143 319 143q148 0 246 -98q100 -93 100 -244q0 -27 -4 -47h-630q-5 -40 -5 -78q0 -160 84 -257t220 -97q94 0 168.5 44t148.5 146q-12 -147 -107 -242q-94 -94 -237 -94q-192 0 -311 137q-121 139 -121 330zM207 627h440q-1 98 -60 156.5
t-151 58.5q-88 0 -149 -59t-80 -156zM211 1071q-4 36 -4 80q0 176 67.5 272.5t184.5 96.5t184.5 -96.5t67.5 -272.5q0 -44 -4 -80q-44 159 -103.5 232t-144.5 73t-144.5 -73t-103.5 -232z" />
    <glyph glyph-name="Idblgrave" unicode="&#x208;" horiz-adv-x="497" 
d="M330 991v-545q0 -49 4 -229q3 -139 80 -219h-25q-9 0 -62 5t-77 5t-78 -5t-63 -5h-25q67 70 76 219q6 102 6 229v545q0 128 -6 230q-9 149 -76 219h25q9 0 63 -5t78 -5t77 5t62 5h25q-77 -80 -80 -219q-4 -180 -4 -230zM184 1675l84 137l334 -303zM-170 1675l84 137
l334 -303z" />
    <glyph glyph-name="idblgrave" unicode="&#x209;" horiz-adv-x="454" 
d="M305 551v-160q0 -112 4 -198q9 -127 68 -195h-23q-21 0 -65.5 4t-55.5 4q-12 0 -56.5 -4t-65.5 -4h-21q57 66 66 195q6 65 6 198v51q0 128 -6 193q-5 66 -20.5 97.5t-59.5 62.5q121 52 239 127q-3 -97 -5.5 -191t-3.5 -134t-1 -46zM-74 1481l166 55l76 -492zM174 1481
l166 55l76 -492z" />
    <glyph glyph-name="Iinvbreve" unicode="&#x20a;" horiz-adv-x="497" 
d="M330 991v-545q0 -49 4 -229q3 -139 80 -219h-25q-9 0 -62 5t-77 5t-78 -5t-63 -5h-25q67 70 76 219q6 102 6 229v545q0 128 -6 230q-9 149 -76 219h25q9 0 63 -5t78 -5t77 5t62 5h25q-77 -80 -80 -219q-4 -180 -4 -230zM-82 1526q24 125 115.5 198.5t212.5 73.5
q122 0 215 -73.5t117 -198.5q-84 77 -155 105t-175 28t-175 -28t-155 -105z" />
    <glyph glyph-name="iinvbreve" unicode="&#x20b;" horiz-adv-x="454" 
d="M305 551v-160q0 -112 4 -198q9 -127 68 -195h-23q-21 0 -65.5 4t-55.5 4q-12 0 -56.5 -4t-65.5 -4h-21q57 66 66 195q6 65 6 198v51q0 128 -6 193q-5 66 -20.5 97.5t-59.5 62.5q121 52 239 127q-3 -97 -5.5 -191t-3.5 -134t-1 -46zM-6 1071q-4 36 -4 80q0 176 67.5 272.5
t184.5 96.5t184.5 -96.5t67.5 -272.5q0 -35 -5 -80q-44 160 -103 232.5t-144 72.5t-144.5 -73t-103.5 -232z" />
    <glyph glyph-name="Odblgrave" unicode="&#x20c;" horiz-adv-x="1595" 
d="M53 717q0 324 215 536q216 213 527 213q322 0 534 -215q213 -213 213 -534t-213 -537q-213 -213 -516 -213q-335 0 -547 209q-213 210 -213 541zM764 1364q-224 0 -371 -166t-147 -455q0 -302 172 -489q174 -186 422 -186q223 0 366 174q144 176 144 450q0 294 -170 482
q-169 190 -416 190zM735 1675l84 137l334 -303zM381 1675l84 137l334 -303z" />
    <glyph glyph-name="odblgrave" unicode="&#x20d;" horiz-adv-x="983" 
d="M33 451q0 198 133 340q131 143 321 143q196 0 326 -139q131 -137 131 -344q0 -202 -131 -342q-130 -142 -315 -142q-201 0 -334 139q-131 137 -131 345zM481 840q-126 0 -203 -98.5t-77 -272.5q0 -187 82.5 -295t220.5 -108q123 0 197.5 99t74.5 273q0 178 -84 291
q-82 111 -211 111zM170 1481l166 55l76 -492zM418 1481l166 55l75 -492z" />
    <glyph glyph-name="Oinvbreve" unicode="&#x20e;" horiz-adv-x="1595" 
d="M53 717q0 324 215 536q216 213 527 213q322 0 534 -215q213 -213 213 -534t-213 -537q-213 -213 -516 -213q-335 0 -547 209q-213 210 -213 541zM764 1364q-224 0 -371 -166t-147 -455q0 -302 172 -489q174 -186 422 -186q223 0 366 174q144 176 144 450q0 294 -170 482
q-169 190 -416 190zM469 1526q24 125 115.5 198.5t212.5 73.5t214 -73.5t117 -198.5q-84 77 -154.5 105t-174.5 28t-175 -28t-155 -105z" />
    <glyph glyph-name="oinvbreve" unicode="&#x20f;" horiz-adv-x="983" 
d="M33 451q0 198 133 340q131 143 321 143q196 0 326 -139q131 -137 131 -344q0 -202 -131 -342q-130 -142 -315 -142q-201 0 -334 139q-131 137 -131 345zM481 840q-126 0 -203 -98.5t-77 -272.5q0 -187 82.5 -295t220.5 -108q123 0 197.5 99t74.5 273q0 178 -84 291
q-82 111 -211 111zM238 1071q-5 45 -5 80q0 176 67.5 272.5t184.5 96.5t184.5 -96.5t67.5 -272.5q0 -44 -4 -80q-44 159 -103.5 232t-144.5 73t-144 -72.5t-103 -232.5z" />
    <glyph glyph-name="Rdblgrave" unicode="&#x210;" horiz-adv-x="1202" 
d="M451 1358q-68 0 -89 -19.5t-26 -83.5q-6 -65 -6 -211v-286q10 -2 94 -2q164 0 251 78t87 219q0 144 -80 224.5t-231 80.5zM250 1430q19 0 105.5 4t133.5 4q209 0 328 -107q119 -104 119 -258q0 -252 -231 -354q187 -345 346 -545q104 -124 188 -178q-37 -29 -104 -29
q-138 0 -258 170q-162 219 -314 545q-36 -8 -112 -8q-90 0 -121 8v-236q0 -49 4 -229q3 -139 80 -219h-25q-9 0 -62 5t-77 5t-78 -5t-63 -5h-25q67 70 76 219q6 102 6 229v545q0 128 -6 230q-9 149 -76 219h25q9 0 63 -5t78 -5zM430 1675l84 137l334 -303zM76 1675l84 137
l334 -303z" />
    <glyph glyph-name="rdblgrave" unicode="&#x211;" horiz-adv-x="628" 
d="M481 797q-79 0 -127.5 -83t-48.5 -227v-96q0 -112 4 -198q9 -122 88 -195h-22q-21 0 -76 4t-66 4q-12 0 -56.5 -4t-65.5 -4h-21q57 66 66 195q6 65 6 198v51q0 128 -6 193q-5 66 -20.5 97.5t-59.5 62.5q121 52 239 127q-12 -99 -12 -207q43 106 108.5 162.5t139.5 56.5
q53 0 96 -19q10 -38 10 -81q0 -90 -24 -148q-59 111 -152 111zM53 1481l166 55l76 -492zM301 1481l166 55l76 -492z" />
    <glyph glyph-name="Rinvbreve" unicode="&#x212;" horiz-adv-x="1202" 
d="M451 1358q-68 0 -89 -19.5t-26 -83.5q-6 -65 -6 -211v-286q10 -2 94 -2q164 0 251 78t87 219q0 144 -80 224.5t-231 80.5zM250 1430q19 0 105.5 4t133.5 4q209 0 328 -107q119 -104 119 -258q0 -252 -231 -354q187 -345 346 -545q104 -124 188 -178q-37 -29 -104 -29
q-138 0 -258 170q-162 219 -314 545q-36 -8 -112 -8q-90 0 -121 8v-236q0 -49 4 -229q3 -139 80 -219h-25q-9 0 -62 5t-77 5t-78 -5t-63 -5h-25q67 70 76 219q6 102 6 229v545q0 128 -6 230q-9 149 -76 219h25q9 0 63 -5t78 -5zM164 1526q24 125 115.5 198.5t212.5 73.5
t214 -73.5t117 -198.5q-84 77 -154.5 105t-174.5 28t-175 -28t-155 -105z" />
    <glyph glyph-name="rinvbreve" unicode="&#x213;" horiz-adv-x="628" 
d="M481 797q-79 0 -127.5 -83t-48.5 -227v-96q0 -112 4 -198q9 -122 88 -195h-22q-21 0 -76 4t-66 4q-12 0 -56.5 -4t-65.5 -4h-21q57 66 66 195q6 65 6 198v51q0 128 -6 193q-5 66 -20.5 97.5t-59.5 62.5q121 52 239 127q-12 -99 -12 -207q43 106 108.5 162.5t139.5 56.5
q53 0 96 -19q10 -38 10 -81q0 -90 -24 -148q-59 111 -152 111zM121 1071q-4 36 -4 80q0 176 67.5 272.5t184.5 96.5t184.5 -96.5t67.5 -272.5q0 -35 -5 -80q-44 160 -103 232.5t-144 72.5t-144.5 -73t-103.5 -232z" />
    <glyph glyph-name="Udblgrave" unicode="&#x214;" horiz-adv-x="1320" 
d="M1190 991v-471q0 -240 -148 -397q-147 -156 -385 -156q-246 0 -384 137.5t-138 384.5v502q0 128 -6 230q-9 149 -76 219h25q9 0 63 -5t78 -5t77 5t62 5h25q-77 -80 -80 -219q-4 -180 -4 -230v-497q0 -196 98.5 -305t272.5 -109q191 0 301 123t110 344v444q0 128 -6 230
q-9 149 -76 219h17q12 0 59.5 -5t61.5 -5t61 5t59 5h17q-77 -80 -80 -219q-4 -180 -4 -230zM629 1675l84 137l334 -303zM274 1675l84 137l334 -303z" />
    <glyph glyph-name="udblgrave" unicode="&#x215;" horiz-adv-x="980" 
d="M135 274v224q0 128 -6 192q-9 103 -72 195q108 2 236 10q-14 -304 -14 -369v-233q0 -95 42.5 -144t118.5 -49q108 0 173 70.5t65 183.5v144q0 128 -6 192q-9 103 -72 195q108 2 236 10q-15 -325 -15 -369v-67q0 -141 6 -205q9 -111 82 -160q-127 -58 -217 -117l-4 195
q-39 -92 -114.5 -148.5t-165.5 -56.5q-158 0 -232 121q-41 68 -41 186zM442 1479l146 55l53 -404zM225 1479l146 55l53 -404z" />
    <glyph glyph-name="Uinvbreve" unicode="&#x216;" horiz-adv-x="1320" 
d="M1190 991v-471q0 -240 -148 -397q-147 -156 -385 -156q-246 0 -384 137.5t-138 384.5v502q0 128 -6 230q-9 149 -76 219h25q9 0 63 -5t78 -5t77 5t62 5h25q-77 -80 -80 -219q-4 -180 -4 -230v-497q0 -196 98.5 -305t272.5 -109q191 0 301 123t110 344v444q0 128 -6 230
q-9 149 -76 219h17q12 0 59.5 -5t61.5 -5t61 5t59 5h17q-77 -80 -80 -219q-4 -180 -4 -230zM362 1526q24 125 115.5 198.5t212.5 73.5q122 0 215 -73.5t117 -198.5q-84 77 -155 105t-175 28t-175 -28t-155 -105z" />
    <glyph glyph-name="uinvbreve" unicode="&#x217;" horiz-adv-x="980" 
d="M135 274v224q0 128 -6 192q-9 103 -72 195q108 2 236 10q-14 -304 -14 -369v-233q0 -95 42.5 -144t118.5 -49q108 0 173 70.5t65 183.5v144q0 128 -6 192q-9 103 -72 195q108 2 236 10q-15 -325 -15 -369v-67q0 -141 6 -205q9 -111 82 -160q-127 -58 -217 -117l-4 195
q-39 -92 -114.5 -148.5t-165.5 -56.5q-158 0 -232 121q-41 68 -41 186zM227 1071q-4 36 -4 80q0 176 67.5 272.5t184.5 96.5t184.5 -96.5t67.5 -272.5q0 -44 -4 -80q-44 159 -103.5 232t-144.5 73t-144.5 -73t-103.5 -232z" />
    <glyph glyph-name="Scommaaccent" unicode="&#x218;" horiz-adv-x="913" 
d="M434 59q121 0 197 69.5t76 176.5q0 113 -78 191q-73 73 -201 163q-106 74 -180 134q-47 39 -90 94q-72 93 -72 221q0 153 115 256q117 102 295 102q176 0 335 -84q7 -58 7 -100q0 -132 -19 -219q-69 166 -143 237.5t-197 71.5q-109 0 -176 -62.5t-67 -166.5
q0 -100 71 -174q50 -50 197 -154q128 -89 178 -129q50 -38 90 -84q96 -116 96 -258q0 -171 -122.5 -274t-325.5 -103q-194 0 -336 68q-31 133 -31 270q0 25 6 117l52 -119q14 -31 53 -94q47 -76 107.5 -109t162.5 -41zM569 -197l-211 -348l21 412z" />
    <glyph glyph-name="scommaaccent" unicode="&#x219;" horiz-adv-x="604" 
d="M299 53q69 0 108 34.5t39 102.5q0 63 -40 108.5t-140 96.5q-225 114 -225 279q0 107 78 182q79 76 190 76q113 0 219 -53q4 -54 4 -68q0 -108 -34 -186q-95 221 -219 221q-51 0 -85 -33t-34 -84q0 -61 43 -109.5t149 -101.5q119 -57 171 -124t52 -165q0 -116 -80 -189
t-204 -73q-143 0 -256 64q-4 32 -4 69q0 97 41 193q49 -132 98 -186t129 -54zM399 -197l-211 -348l21 412z" />
    <glyph glyph-name="Tcomma" unicode="&#x21a;" horiz-adv-x="1171" 
d="M668 1044v-598q0 -49 4 -229q1 -79 24 -126t76 -93h-24q-4 0 -13.5 0.5t-27 1.5t-31.5 2q-56 6 -88 6t-90 -6q-14 -1 -31.5 -2t-27 -1.5t-13.5 -0.5h-25q88 79 97 219q6 102 6 229v598q0 146 -6 211q-5 64 -24.5 81.5t-90.5 17.5q-62 0 -141 -11q-82 -13 -136.5 -66.5
t-101.5 -156.5q-10 78 -10 193q0 73 4 127q79 -6 231 -6h713q152 0 232 6q4 -54 4 -127q0 -107 -11 -193q-47 103 -101 156.5t-136 66.5q-79 11 -142 11q-71 0 -90 -17.5t-24 -81.5q-6 -64 -6 -211zM682 -197l-211 -348l21 412z" />
    <glyph glyph-name="tcomma" unicode="&#x21b;" horiz-adv-x="477" 
d="M436 784h-192v-481q0 -135 32 -178q26 -33 86 -33q53 0 119 60v-13q0 -75 -46.5 -121.5t-119.5 -46.5q-97 0 -157 72q-56 68 -56 236v415q0 63 -17 96t-60 50q134 128 239 247l-18 -200q98 2 233 8zM365 -197l-211 -348l20 412z" />
    <glyph glyph-name="schwa" unicode="&#x259;" horiz-adv-x="874" 
d="M842 467q0 -212 -129 -356t-320 -144q-144 0 -248 96q-98 98 -98 246q0 27 4 47h631q4 32 4 78q0 160 -83.5 257t-219.5 97q-94 0 -168.5 -44t-148.5 -146q12 146 106 240q96 96 238 96q192 0 311 -137q121 -139 121 -330zM668 274h-441q1 -98 60 -156.5t151 -58.5
q89 0 150 59.5t80 155.5z" />
    <glyph glyph-name="hsuperior" unicode="&#x2b0;" horiz-adv-x="698" 
d="M219 1262v-203q76 110 187 110q112 0 165 -90q31 -54 31 -127v-164q0 -27 4 -137q3 -88 41 -141q-100 9 -198 0q34 58 40 141q3 41 3 137v152q0 60 -32.5 94.5t-86.5 34.5q-69 0 -111.5 -43t-42.5 -111v-127q0 -110 2 -137q3 -86 41 -141q-98 9 -199 0q35 50 41 141
q5 67 5 137v398q0 60 -5 133q-6 73 -55 113l176 90q-6 -147 -6 -260z" />
    <glyph glyph-name="jsuperior" unicode="&#x2b2;" horiz-adv-x="296" 
d="M98 528v295q0 77 -4 135q-6 80 -51 113l172 88q-6 -99 -6 -260v-446q0 -88 -59.5 -165.5t-155.5 -107.5q59 84 81.5 160t22.5 188zM152 1329l-101 98l101 99l98 -99z" />
    <glyph glyph-name="wsuperior" unicode="&#x2b7;" horiz-adv-x="899" 
d="M580 879l67 -201l78 199q49 122 49 170q0 46 -33 90q54 -4 82 -4q11 0 105 4l-66 -140q-33 -83 -55 -125l-182 -393l-176 420l-197 -420l-162 393l-57 144q-9 22 -60 121q110 -4 123 -4q5 0 16 0.5t32 1.5t40 2q-24 -41 -24 -78q0 -53 49 -178l67 -174l80 172
q41 87 41 143q0 67 -39 115q23 -1 48.5 -2t39 -1.5t19.5 -0.5q2 0 12.5 0.5t30.5 1.5t41 2q-19 -40 -19 -72q0 -34 50 -186z" />
    <glyph glyph-name="ysuperior" unicode="&#x2b8;" horiz-adv-x="552" 
d="M211 879l82 -205l90 203q45 101 47 161.5t-31 98.5q19 -1 39.5 -2t31.5 -1.5t15 -0.5q49 0 99 4l-68 -140q-19 -38 -31 -69l-22 -56l-225 -514q-43 -94 -84 -135q-47 -47 -113 -47q-36 0 -61 14q-5 40 -5 41q0 53 21 99q37 -43 88 -43q40 0 74 73l75 164l-141 348
q-35 94 -57 144q-57 117 -60 121q94 -4 113 -4q18 0 96 4q-26 -56 -26 -80q0 -42 53 -178z" />
    <glyph glyph-name="apostrophe" unicode="&#x2bc;" 
d="M367 1464l-275 -540l68 606z" />
    <glyph glyph-name="circumflex" unicode="&#x2c6;" 
d="M0 1034l215 516l215 -516l-215 226z" />
    <glyph glyph-name="caron" unicode="&#x2c7;" 
d="M215 1305l215 225l-215 -516l-215 516z" />
    <glyph glyph-name="breve" unicode="&#x2d8;" 
d="M463 1524q4 -78 4 -80q0 -176 -67.5 -272.5t-184.5 -96.5t-184.5 96.5t-67.5 272.5q0 2 4 80q44 -159 103.5 -232t144.5 -73t144.5 73t103.5 232z" />
    <glyph glyph-name="dotaccent" unicode="&#x2d9;" 
d="M358 1389l-143 -144l-143 144l143 143z" />
    <glyph glyph-name="ring" unicode="&#x2da;" 
d="M66 1167q-62 61 -62 149t62 150q61 63 149.5 63t149.5 -63q63 -62 63 -150t-63 -149q-61 -61 -149 -61t-150 61zM213 1190q54 0 89.5 35.5t35.5 89.5t-35.5 91.5t-89.5 37.5q-51 0 -86 -37.5t-35 -91.5t35 -89.5t86 -35.5z" />
    <glyph glyph-name="ogonek" unicode="&#x2db;" 
d="M362 -217q1 -6 2 -14.5t2 -14.5t1 -10q0 -74 -41 -118t-109 -44q-73 0 -120.5 48t-47.5 122q0 152 197 281h61q-155 -125 -155 -240q0 -46 26 -71t68 -25q69 0 116 86z" />
    <glyph glyph-name="tilde" unicode="&#x2dc;" 
d="M229 1389q85 -39 140 -39q72 0 155 65q-17 -82 -76.5 -136t-132.5 -54q-47 0 -118 30q-85 39 -140 39q-72 0 -155 -65q17 82 76.5 136t132.5 54q48 0 118 -30z" />
    <glyph glyph-name="hungarumlaut" unicode="&#x2dd;" 
d="M219 1479l-235 -424l79 479zM446 1479l-235 -424l80 479z" />
    <glyph glyph-name="xsuperior" unicode="&#x2e3;" horiz-adv-x="550" 
d="M199 1073q0 -27 96 -170q94 122 94 164q0 30 -16 70q27 -2 80 -2q65 0 92 2q-22 -37 -80 -119l-127 -176l135 -211q10 -18 43.5 -65.5t38.5 -55.5q-54 4 -102 4q-51 0 -109 -4q27 40 27 61q0 32 -80 150l-31 45l-14 -18q-96 -125 -96 -173q0 -24 20 -63q-27 2 -84 2
q-79 0 -106 -2q25 37 51 68l39 51l147 198l-121 193q-34 54 -80 115q29 -2 109 -2q7 0 44 1t54 1q-24 -37 -24 -64z" />
    <glyph glyph-name="invbreve" unicode="&#x311;" 
d="M-33 1071q-4 36 -4 80q0 176 67.5 272.5t184.5 96.5t184.5 -96.5t67.5 -272.5q0 -44 -4 -80q-44 159 -103.5 232t-144.5 73t-144.5 -73t-103.5 -232z" />
    <glyph glyph-name="pi" unicode="&#x3c0;" horiz-adv-x="927" 
d="M903 172v-22q0 -83 -52 -133t-120 -50q-184 0 -184 250q0 146 74 524q-114 4 -197 4h-80q-9 -223 -59 -532q-23 -129 -55.5 -184t-94.5 -72q-75 51 -90 141q79 39 114.5 93t55.5 169q32 185 43 379q-47 -3 -86 -16q-100 -34 -168 -191q-16 43 -16 86q0 132 84 201.5
t239 69.5h262q224 0 377 10l-104 -166l-139 6q-43 -286 -43 -444q0 -184 118 -184q60 0 121 61z" />
    <glyph glyph-name="Ddotbelow" unicode="&#x1e0c;" horiz-adv-x="1445" 
d="M608 84q285 0 441.5 164t156.5 463q0 296 -174 467q-171 174 -440 174q-153 0 -205 -19q-48 -15 -51 -78q-6 -65 -6 -211v-618q0 -162 6 -223q9 -79 59 -99t213 -20zM166 446v545q0 128 -6 230q-9 149 -76 219h25q9 0 63 -5t78 -5q60 0 174 6q101 8 184 8
q125 0 240.5 -29t215.5 -89.5t173.5 -146t115.5 -205.5t42 -261q0 -326 -213 -527q-210 -198 -559 -198q-83 0 -220 10q-133 10 -153 10q-24 0 -78 -5t-63 -5h-25q67 70 76 219q6 102 6 229zM778 -264l-143 -144l-143 144l143 143z" />
    <glyph glyph-name="ddotbelow" unicode="&#x1e0d;" horiz-adv-x="1007" 
d="M455 842q-110 0 -185 -95.5t-75 -257.5q0 -180 80.5 -285.5t207.5 -105.5q102 0 162 65.5t60 176.5v213q0 141 -70.5 215t-179.5 74zM705 866v178q0 118 -7 193q-5 66 -20.5 97.5t-59.5 62.5q124 53 240 127q-3 -97 -5.5 -191t-3.5 -134t-1 -46v-715q0 -120 6 -184
q9 -113 80 -160q-127 -58 -217 -117l-6 179q-43 -81 -119 -135t-150 -54q-162 0 -280 127q-117 126 -117 344t127 357t299 139q142 0 234 -68zM575 -264l-143 -144l-143 144l143 143z" />
    <glyph glyph-name="Hdotbelow" unicode="&#x1e24;" horiz-adv-x="1431" 
d="M1264 991v-545q0 -49 4 -229q3 -139 80 -219h-25q-9 0 -62 5t-77 5t-78.5 -5t-63.5 -5h-24q67 70 76 219q6 102 6 229v265h-770v-265q0 -49 4 -229q3 -139 80 -219h-25q-9 0 -62 5t-77 5t-78 -5t-63 -5h-25q67 70 76 219q6 102 6 229v545q0 128 -6 230q-9 149 -76 219h25
q9 0 63 -5t78 -5t77 5t62 5h25q-77 -80 -80 -219q-4 -180 -4 -230v-188h770v188q0 128 -6 230q-9 149 -76 219h24q9 0 63.5 -5t78.5 -5t77 5t62 5h25q-77 -80 -80 -219q-4 -180 -4 -230zM860 -264l-143 -144l-144 144l144 143z" />
    <glyph glyph-name="hdotbelow" unicode="&#x1e25;" horiz-adv-x="995" 
d="M301 1153l-4 -414q103 195 278 195q157 0 234 -127q43 -76 43 -180v-236q0 -112 4 -198q9 -127 68 -195h-23q-21 0 -65.5 4t-55.5 4q-12 0 -57 -4t-66 -4h-20q56 65 65 195q7 75 7 198v217q0 87 -49 140t-130 53q-103 0 -166 -63.5t-63 -164.5v-182q0 -112 4 -198
q9 -127 68 -195h-23q-21 0 -65.5 4t-55.5 4q-12 0 -57 -4t-66 -4h-20q57 66 66 195q6 65 6 198v653q0 128 -6 193q-5 66 -20.5 97.5t-59.5 62.5q121 52 239 127q-10 -195 -10 -371zM643 -264l-143 -144l-144 144l144 143z" />
    <glyph glyph-name="Ndotabove" unicode="&#x1e44;" horiz-adv-x="1490" 
d="M170 444v547q0 149 -6 217q-15 155 -92 232h24q12 0 83 -3t112 -3l930 -1086v643q0 111 -7 230q-9 150 -75 219h16q12 0 59.5 -5t61.5 -5t61.5 5t59.5 5h16q-77 -80 -80 -219q-4 -180 -4 -230v-692q0 -225 8 -350l-1058 1237v-742q0 -49 4 -229q3 -140 79 -219h-16
q-12 0 -59.5 5t-61.5 5t-61.5 -5t-59.5 -5h-16q67 70 76 219q6 102 6 229zM907 1661l-143 -143l-143 143l143 143z" />
    <glyph glyph-name="ndotabove" unicode="&#x1e45;" horiz-adv-x="999" 
d="M856 627v-236q0 -112 4 -198q9 -127 68 -195h-23q-21 0 -65.5 4t-55.5 4q-12 0 -56.5 -4t-65.5 -4h-21q57 66 66 195q6 65 6 198v217q0 87 -48.5 140t-129.5 53q-103 0 -166.5 -63.5t-63.5 -164.5v-182q0 -112 4 -198q9 -127 68 -195h-23q-21 0 -65.5 4t-55.5 4
q-12 0 -56.5 -4t-65.5 -4h-21q57 66 66 195q6 65 6 198v51q0 128 -6 193q-5 66 -20.5 97.5t-59.5 62.5q121 52 239 127q-12 -99 -12 -181q102 193 277 193q156 0 233 -127q43 -76 43 -180zM651 1389l-143 -144l-143 144l143 143z" />
    <glyph glyph-name="Rdotbelow" unicode="&#x1e5a;" horiz-adv-x="1202" 
d="M451 1358q-68 0 -89 -19.5t-26 -83.5q-6 -65 -6 -211v-286q10 -2 94 -2q164 0 251 78t87 219q0 144 -80 224.5t-231 80.5zM250 1430q19 0 105.5 4t133.5 4q209 0 328 -107q119 -104 119 -258q0 -252 -231 -354q187 -345 346 -545q104 -124 188 -178q-37 -29 -104 -29
q-138 0 -258 170q-162 219 -314 545q-36 -8 -112 -8q-90 0 -121 8v-236q0 -49 4 -229q3 -139 80 -219h-25q-9 0 -62 5t-77 5t-78 -5t-63 -5h-25q67 70 76 219q6 102 6 229v545q0 128 -6 230q-9 149 -76 219h25q9 0 63 -5t78 -5zM778 -264l-143 -144l-143 144l143 143z" />
    <glyph glyph-name="rdotbelow" unicode="&#x1e5b;" horiz-adv-x="628" 
d="M481 797q-79 0 -127.5 -83t-48.5 -227v-96q0 -112 4 -198q9 -122 88 -195h-22q-21 0 -76 4t-66 4q-12 0 -56.5 -4t-65.5 -4h-21q57 66 66 195q6 65 6 198v51q0 128 -6 193q-5 66 -20.5 97.5t-59.5 62.5q121 52 239 127q-12 -99 -12 -207q43 106 108.5 162.5t139.5 56.5
q53 0 96 -19q10 -38 10 -81q0 -90 -24 -148q-59 111 -152 111zM375 -264l-144 -144l-143 144l143 143z" />
    <glyph glyph-name="Sdotbelow" unicode="&#x1e62;" horiz-adv-x="913" 
d="M434 59q121 0 197 69.5t76 176.5q0 113 -78 191q-73 73 -201 163q-106 74 -180 134q-47 39 -90 94q-72 93 -72 221q0 153 115 256q117 102 295 102q176 0 335 -84q7 -58 7 -100q0 -132 -19 -219q-69 166 -143 237.5t-197 71.5q-109 0 -176 -62.5t-67 -166.5
q0 -100 71 -174q50 -50 197 -154q128 -89 178 -129q50 -38 90 -84q96 -116 96 -258q0 -171 -122.5 -274t-325.5 -103q-194 0 -336 68q-31 133 -31 270q0 25 6 117l52 -119q14 -31 53 -94q47 -76 107.5 -109t162.5 -41zM561 -264l-143 -144l-144 144l144 143z" />
    <glyph glyph-name="sdotbelow" unicode="&#x1e63;" horiz-adv-x="604" 
d="M299 53q69 0 108 34.5t39 102.5q0 63 -40 108.5t-140 96.5q-225 114 -225 279q0 107 78 182q79 76 190 76q113 0 219 -53q4 -54 4 -68q0 -108 -34 -186q-95 221 -219 221q-51 0 -85 -33t-34 -84q0 -61 43 -109.5t149 -101.5q119 -57 171 -124t52 -165q0 -116 -80 -189
t-204 -73q-143 0 -256 64q-4 32 -4 69q0 97 41 193q49 -132 98 -186t129 -54zM436 -264l-143 -144l-143 144l143 143z" />
    <glyph glyph-name="Tdotbelow" unicode="&#x1e6c;" horiz-adv-x="1171" 
d="M668 1044v-598q0 -49 4 -229q1 -79 24 -126t76 -93h-24q-4 0 -13.5 0.5t-27 1.5t-31.5 2q-56 6 -88 6t-90 -6q-14 -1 -31.5 -2t-27 -1.5t-13.5 -0.5h-25q88 79 97 219q6 102 6 229v598q0 146 -6 211q-5 64 -24.5 81.5t-90.5 17.5q-62 0 -141 -11q-82 -13 -136.5 -66.5
t-101.5 -156.5q-10 78 -10 193q0 73 4 127q79 -6 231 -6h713q152 0 232 6q4 -54 4 -127q0 -107 -11 -193q-47 103 -101 156.5t-136 66.5q-79 11 -142 11q-71 0 -90 -17.5t-24 -81.5q-6 -64 -6 -211zM729 -264l-143 -144l-144 144l144 143z" />
    <glyph glyph-name="tdotbelow" unicode="&#x1e6d;" horiz-adv-x="477" 
d="M436 784h-192v-481q0 -135 32 -178q26 -33 86 -33q53 0 119 60v-13q0 -75 -46.5 -121.5t-119.5 -46.5q-97 0 -157 72q-56 68 -56 236v415q0 63 -17 96t-60 50q134 128 239 247l-18 -200q98 2 233 8zM457 -264l-144 -144l-143 144l143 143z" />
    <glyph glyph-name="Wgrave" unicode="&#x1e80;" horiz-adv-x="1959" 
d="M1686 1440h28q21 0 65.5 -3t55.5 -3q17 0 59.5 3t55.5 3h20q-55 -64 -117 -215q-47 -126 -47 -127q-25 -79 -37 -107l-391 -1024l-401 1080l-410 -1080l-379 1024l-86 230q-53 128 -112 219h30q18 0 67.5 -3t64.5 -3q14 0 63.5 3t71.5 3h20q-43 -58 -43 -119
q0 -60 98 -330l236 -663l250 663q55 143 55 260q0 93 -96 189h37q21 0 70 -3t61 -3q14 0 63.5 3t71.5 3h20q-47 -59 -47 -129q0 -78 88 -320l240 -661l250 661q84 225 84 326q0 70 -59 123zM690 1645l82 161l414 -297z" />
    <glyph glyph-name="wgrave" unicode="&#x1e81;" horiz-adv-x="1296" 
d="M825 518l109 -285l119 283q67 158 67 248q0 61 -45 123h21q6 0 48.5 -4t59.5 -4q10 0 48 4t44 4h25l-90 -193l-47 -104l-33 -78l-254 -569l-250 632l-280 -632l-226 571q-76 197 -82 207q-48 106 -82 166h31q14 0 55.5 -4t53.5 -4q13 0 57.5 4t61.5 4h20q-41 -59 -41 -99
q0 -62 78 -268l110 -287l121 283q64 149 64 227q0 74 -64 144h33q7 0 46.5 -4t49.5 -4q2 0 56 4t55 4h27q-43 -52 -43 -101q0 -58 77 -268zM492 1479l172 57l77 -506z" />
    <glyph glyph-name="Wacute" unicode="&#x1e82;" horiz-adv-x="1959" 
d="M1686 1440h28q21 0 65.5 -3t55.5 -3q17 0 59.5 3t55.5 3h20q-55 -64 -117 -215q-47 -126 -47 -127q-25 -79 -37 -107l-391 -1024l-401 1080l-410 -1080l-379 1024l-86 230q-53 128 -112 219h30q18 0 67.5 -3t64.5 -3q14 0 63.5 3t71.5 3h20q-43 -58 -43 -119
q0 -60 98 -330l236 -663l250 663q55 143 55 260q0 93 -96 189h37q21 0 70 -3t61 -3q14 0 63.5 3t71.5 3h20q-47 -59 -47 -129q0 -78 88 -320l240 -661l250 661q84 225 84 326q0 70 -59 123zM1268 1645l-496 -136l414 297z" />
    <glyph glyph-name="wacute" unicode="&#x1e83;" horiz-adv-x="1296" 
d="M825 518l109 -285l119 283q67 158 67 248q0 61 -45 123h21q6 0 48.5 -4t59.5 -4q10 0 48 4t44 4h25l-90 -193l-47 -104l-33 -78l-254 -569l-250 632l-280 -632l-226 571q-76 197 -82 207q-48 106 -82 166h31q14 0 55.5 -4t53.5 -4q13 0 57.5 4t61.5 4h20q-41 -59 -41 -99
q0 -62 78 -268l110 -287l121 283q64 149 64 227q0 74 -64 144h33q7 0 46.5 -4t49.5 -4q2 0 56 4t55 4h27q-43 -52 -43 -101q0 -58 77 -268zM823 1479l-250 -449l78 506z" />
    <glyph glyph-name="Wdieresis" unicode="&#x1e84;" horiz-adv-x="1959" 
d="M1686 1440h28q21 0 65.5 -3t55.5 -3q17 0 59.5 3t55.5 3h20q-55 -64 -117 -215q-47 -126 -47 -127q-25 -79 -37 -107l-391 -1024l-401 1080l-410 -1080l-379 1024l-86 230q-53 128 -112 219h30q18 0 67.5 -3t64.5 -3q14 0 63.5 3t71.5 3h20q-43 -58 -43 -119
q0 -60 98 -330l236 -663l250 663q55 143 55 260q0 93 -96 189h37q21 0 70 -3t61 -3q14 0 63.5 3t71.5 3h20q-47 -59 -47 -129q0 -78 88 -320l240 -661l250 661q84 225 84 326q0 70 -59 123zM961 1663l-127 -127l-127 127l127 127zM1249 1663l-127 -127l-127 127l127 127z
" />
    <glyph glyph-name="wdieresis" unicode="&#x1e85;" horiz-adv-x="1296" 
d="M825 518l109 -285l119 283q67 158 67 248q0 61 -45 123h21q6 0 48.5 -4t59.5 -4q10 0 48 4t44 4h25l-90 -193l-47 -104l-33 -78l-254 -569l-250 632l-280 -632l-226 571q-76 197 -82 207q-48 106 -82 166h31q14 0 55.5 -4t53.5 -4q13 0 57.5 4t61.5 4h20q-41 -59 -41 -99
q0 -62 78 -268l110 -287l121 283q64 149 64 227q0 74 -64 144h33q7 0 46.5 -4t49.5 -4q2 0 56 4t55 4h27q-43 -52 -43 -101q0 -58 77 -268zM639 1333l-127 -127l-127 127l127 127zM928 1333l-127 -127l-127 127l127 127z" />
    <glyph glyph-name="Zdotbelow" unicode="&#x1e92;" horiz-adv-x="1173" 
d="M530 82h175q128 0 210 12q89 12 138 82q47 64 104 203q8 -55 8 -107q0 -148 -37 -278q-80 6 -294 6h-519q-217 0 -309 -6l897 1352q-125 8 -260 8h-154q-97 0 -176 -11q-83 -12 -137 -75q-41 -47 -106 -174q-7 65 -7 116q0 112 23 230q79 -6 227 -6h525q220 0 311 6
l-885 -1348q143 -10 266 -10zM758 -264l-144 -144l-143 144l143 143z" />
    <glyph glyph-name="zdotbelow" unicode="&#x1e93;" horiz-adv-x="745" 
d="M319 881h197q112 0 217 6q-99 -140 -182 -269l-342 -530h135q78 0 156 10q57 9 104 62q42 48 92 157q9 -53 9 -102q0 -88 -25 -225q-72 3 -134.5 5.5t-89.5 3.5t-28 1h-195q-27 0 -245 -4q33 45 180 276l332 521h-109q-91 0 -147 -9q-101 -15 -183 -170q-4 40 -4 86
q0 101 19 191q153 -10 243 -10zM502 -264l-144 -144l-143 144l143 143z" />
    <glyph glyph-name="Edotbelow" unicode="&#x1eb8;" horiz-adv-x="1003" 
d="M608 793q137 15 201 106v-25q-5 -38 -5 -131t5 -133v-24q-61 88 -201 106q-92 10 -278 10v-276q0 -100 6 -223q1 -71 29 -95t102 -24q139 0 217 10q156 21 238 252q8 -49 8 -94q0 -123 -33 -258q-208 10 -647 10q-24 0 -78 -3t-63 -3h-25q67 70 76 219q6 102 6 229v545
q0 128 -6 230q-9 149 -76 219h25q9 0 63 -3t78 -3h377q147 0 227 6q16 -88 16 -178q0 -60 -10 -138q-89 195 -233 219q-79 11 -176 11q-71 0 -90.5 -17.5t-24.5 -81.5q-6 -65 -6 -211v-262q177 0 278 11zM676 -264l-144 -144l-143 144l143 143z" />
    <glyph glyph-name="edotbelow" unicode="&#x1eb9;" horiz-adv-x="874" 
d="M33 434q0 213 129 357q128 143 319 143q148 0 246 -98q100 -93 100 -244q0 -27 -4 -47h-630q-5 -40 -5 -78q0 -160 84 -257t220 -97q94 0 168.5 44t148.5 146q-12 -147 -107 -242q-94 -94 -237 -94q-192 0 -311 137q-121 139 -121 330zM207 627h440q-1 98 -60 156.5
t-151 58.5q-88 0 -149 -59t-80 -156zM596 -264l-143 -144l-144 144l144 143z" />
    <glyph glyph-name="Etilde" unicode="&#x1ebc;" horiz-adv-x="1003" 
d="M608 793q137 15 201 106v-25q-5 -38 -5 -131t5 -133v-24q-61 88 -201 106q-92 10 -278 10v-276q0 -100 6 -223q1 -71 29 -95t102 -24q139 0 217 10q156 21 238 252q8 -49 8 -94q0 -123 -33 -258q-208 10 -647 10q-24 0 -78 -3t-63 -3h-25q67 70 76 219q6 102 6 229v545
q0 128 -6 230q-9 149 -76 219h25q9 0 63 -3t78 -3h377q147 0 227 6q16 -88 16 -178q0 -60 -10 -138q-89 195 -233 219q-79 11 -176 11q-71 0 -90.5 -17.5t-24.5 -81.5q-6 -65 -6 -211v-262q177 0 278 11zM504 1724q83 -38 139 -38q73 0 156 65q-17 -82 -76.5 -136
t-132.5 -54q-48 0 -119 30q-85 39 -139 39q-73 0 -156 -65q17 82 76.5 136t132.5 54q46 0 119 -31z" />
    <glyph glyph-name="etilde" unicode="&#x1ebd;" horiz-adv-x="874" 
d="M33 434q0 213 129 357q128 143 319 143q148 0 246 -98q100 -93 100 -244q0 -27 -4 -47h-630q-5 -40 -5 -78q0 -160 84 -257t220 -97q94 0 168.5 44t148.5 146q-12 -147 -107 -242q-94 -94 -237 -94q-192 0 -311 137q-121 139 -121 330zM207 627h440q-1 98 -60 156.5
t-151 58.5q-88 0 -149 -59t-80 -156zM473 1389q85 -39 139 -39q73 0 156 65q-17 -82 -76.5 -136t-132.5 -54q-49 0 -119 30q-85 39 -139 39q-73 0 -156 -65q17 82 76.5 136t132.5 54q48 0 119 -30z" />
    <glyph glyph-name="Idotbelow" unicode="&#x1eca;" horiz-adv-x="497" 
d="M330 991v-545q0 -49 4 -229q3 -139 80 -219h-25q-9 0 -62 5t-77 5t-78 -5t-63 -5h-25q67 70 76 219q6 102 6 229v545q0 128 -6 230q-9 149 -76 219h25q9 0 63 -5t78 -5t77 5t62 5h25q-77 -80 -80 -219q-4 -180 -4 -230zM389 -264l-143 -144l-144 144l144 143z" />
    <glyph glyph-name="idotbelow" unicode="&#x1ecb;" horiz-adv-x="454" 
d="M305 551v-160q0 -112 4 -198q9 -127 68 -195h-23q-21 0 -65.5 4t-55.5 4q-12 0 -56.5 -4t-65.5 -4h-21q57 66 66 195q6 65 6 198v51q0 128 -6 193q-5 66 -20.5 97.5t-59.5 62.5q121 52 239 127q-3 -97 -5.5 -191t-3.5 -134t-1 -46zM377 1389l-144 -144l-143 144l143 143z
M373 -264l-144 -144l-143 144l143 143z" />
    <glyph glyph-name="Odotbelow" unicode="&#x1ecc;" horiz-adv-x="1595" 
d="M53 717q0 324 215 536q216 213 527 213q322 0 534 -215q213 -213 213 -534t-213 -537q-213 -213 -516 -213q-335 0 -547 209q-213 210 -213 541zM764 1364q-224 0 -371 -166t-147 -455q0 -302 172 -489q174 -186 422 -186q223 0 366 174q144 176 144 450q0 294 -170 482
q-169 190 -416 190zM952 -264l-143 -144l-143 144l143 143z" />
    <glyph glyph-name="odotbelow" unicode="&#x1ecd;" horiz-adv-x="983" 
d="M33 451q0 198 133 340q131 143 321 143q196 0 326 -139q131 -137 131 -344q0 -202 -131 -342q-130 -142 -315 -142q-201 0 -334 139q-131 137 -131 345zM481 840q-126 0 -203 -98.5t-77 -272.5q0 -187 82.5 -295t220.5 -108q123 0 197.5 99t74.5 273q0 178 -84 291
q-82 111 -211 111zM643 -264l-143 -144l-144 144l144 143z" />
    <glyph glyph-name="Udotbelow" unicode="&#x1ee4;" horiz-adv-x="1320" 
d="M1190 991v-471q0 -240 -148 -397q-147 -156 -385 -156q-246 0 -384 137.5t-138 384.5v502q0 128 -6 230q-9 149 -76 219h25q9 0 63 -5t78 -5t77 5t62 5h25q-77 -80 -80 -219q-4 -180 -4 -230v-497q0 -196 98.5 -305t272.5 -109q191 0 301 123t110 344v444q0 128 -6 230
q-9 149 -76 219h17q12 0 59.5 -5t61.5 -5t61 5t59 5h17q-77 -80 -80 -219q-4 -180 -4 -230zM801 -264l-144 -144l-143 144l143 143z" />
    <glyph glyph-name="udotbelow" unicode="&#x1ee5;" horiz-adv-x="980" 
d="M135 274v224q0 128 -6 192q-9 103 -72 195q108 2 236 10q-14 -304 -14 -369v-233q0 -95 42.5 -144t118.5 -49q108 0 173 70.5t65 183.5v144q0 128 -6 192q-9 103 -72 195q108 2 236 10q-15 -325 -15 -369v-67q0 -141 6 -205q9 -111 82 -160q-127 -58 -217 -117l-4 195
q-39 -92 -114.5 -148.5t-165.5 -56.5q-158 0 -232 121q-41 68 -41 186zM539 -264l-144 -144l-143 144l143 143z" />
    <glyph glyph-name="Ygrave" unicode="&#x1ef2;" horiz-adv-x="1067" 
d="M803 989l-182 -309v-234q0 -49 4 -229q3 -139 80 -219h-25q-9 0 -62 5t-77 5t-78.5 -5t-63.5 -5h-24q67 70 76 219q6 102 6 229v232l-193 313l-139 230q-75 114 -148 219h29q19 0 74.5 -4t66.5 -4q6 0 72 4t74 4h22q-49 -49 -49 -97q0 -35 31 -102q37 -68 147 -250
l129 -209l121 209q158 273 158 346q0 48 -49 103h24q13 0 58 -4t61 -4q19 0 66 4t53 4h22l-141 -217q-66 -103 -143 -234zM287 1645l82 161l413 -297z" />
    <glyph glyph-name="ygrave" unicode="&#x1ef3;" horiz-adv-x="811" 
d="M-53 -528q-10 52 -10 96q0 70 12 110q63 -75 135 -75q44 0 72 23.5t57 86.5l139 307l-198 494l-84 207q-49 109 -80 166h28q14 0 57.5 -4t55.5 -4q13 0 57.5 4t61.5 4h20q-41 -59 -41 -99q0 -70 78 -270l127 -319l135 317q72 173 72 248q0 61 -45 123h20q6 0 46 -4t57 -4
q9 0 46 4t44 4h22l-83 -191l-43 -96l-35 -86l-353 -799q-64 -140 -116 -198q-62 -62 -158 -62q-54 0 -96 17zM250 1479l172 57l78 -506z" />
    <glyph glyph-name="Ytilde" unicode="&#x1ef8;" horiz-adv-x="1067" 
d="M803 989l-182 -309v-234q0 -49 4 -229q3 -139 80 -219h-25q-9 0 -62 5t-77 5t-78.5 -5t-63.5 -5h-24q67 70 76 219q6 102 6 229v232l-193 313l-139 230q-75 114 -148 219h29q19 0 74.5 -4t66.5 -4q6 0 72 4t74 4h22q-49 -49 -49 -97q0 -35 31 -102q37 -68 147 -250
l129 -209l121 209q158 273 158 346q0 48 -49 103h24q13 0 58 -4t61 -4q19 0 66 4t53 4h22l-141 -217q-66 -103 -143 -234zM590 1724q83 -38 139 -38q73 0 156 65q-17 -82 -76.5 -136t-132.5 -54q-48 0 -119 30q-85 39 -139 39q-73 0 -156 -65q17 82 76.5 136t132.5 54
q46 0 119 -31z" />
    <glyph glyph-name="ytilde" unicode="&#x1ef9;" horiz-adv-x="811" 
d="M-55 -528q-11 57 -11 96q0 66 13 110q63 -75 135 -75q44 0 72 23.5t57 86.5l139 307l-198 494l-84 207q-49 109 -80 166h28q14 0 57.5 -4t55.5 -4q13 0 57.5 4t61.5 4h20q-41 -59 -41 -99q0 -70 78 -270l127 -319l135 317q72 173 72 248q0 61 -45 123h20q6 0 46 -4t57 -4
q9 0 46 4t44 4h22l-84 -191l-43 -96l-34 -86l-353 -799q-64 -140 -116 -198q-62 -62 -158 -62q-53 0 -96 17zM442 1389q85 -39 140 -39q72 0 155 65q-17 -82 -76.5 -136t-132.5 -54q-48 0 -118 30q-85 39 -140 39q-72 0 -155 -65q17 82 76.5 136t132.5 54q48 0 118 -30z" />
    <glyph glyph-name="space.en" unicode="&#x2002;" horiz-adv-x="1024" 
 />
    <glyph glyph-name="space.em" unicode="&#x2003;" horiz-adv-x="2048" 
 />
    <glyph glyph-name="space.threeperem" unicode="&#x2004;" horiz-adv-x="681" 
 />
    <glyph glyph-name="space.fourperem" unicode="&#x2005;" horiz-adv-x="512" 
 />
    <glyph glyph-name="space.sixperem" unicode="&#x2006;" horiz-adv-x="339" 
 />
    <glyph glyph-name="space.figure" unicode="&#x2007;" horiz-adv-x="983" 
 />
    <glyph glyph-name="space.punctuation" unicode="&#x2008;" horiz-adv-x="421" 
 />
    <glyph glyph-name="space.thin" unicode="&#x2009;" horiz-adv-x="256" 
 />
    <glyph glyph-name="space.hair" unicode="&#x2010;" horiz-adv-x="169" 
 />
    <glyph glyph-name="endash" unicode="&#x2013;" horiz-adv-x="1024" 
d="M1024 444h-1024v72h1024v-72z" />
    <glyph glyph-name="emdash" unicode="&#x2014;" horiz-adv-x="2048" 
d="M2048 444h-2048v72h2048v-72z" />
    <glyph glyph-name="quoteleft" unicode="&#x2018;" 
d="M63 989l275 541l-68 -606z" />
    <glyph glyph-name="quoteright" unicode="&#x2019;" 
d="M367 1464l-275 -540l68 606z" />
    <glyph glyph-name="quotesinglbase" unicode="&#x201a;" 
d="M360 195l-274 -541l68 606z" />
    <glyph glyph-name="quotereversed" unicode="&#x201b;" 
d="M63 1464l207 66l68 -606z" />
    <glyph glyph-name="quotedblleft" unicode="&#x201c;" horiz-adv-x="798" 
d="M63 989l275 541l-68 -606zM432 989l275 541l-68 -606z" />
    <glyph glyph-name="quotedblright" unicode="&#x201d;" horiz-adv-x="798" 
d="M367 1464l-275 -540l68 606zM735 1464l-274 -540l67 606z" />
    <glyph glyph-name="quotedblbase" unicode="&#x201e;" horiz-adv-x="798" 
d="M360 195l-274 -541l68 606zM729 195l-274 -541l67 606z" />
    <glyph glyph-name="quotedblreversed" unicode="&#x201f;" horiz-adv-x="798" 
d="M432 1464l207 66l68 -606zM63 1464l207 66l68 -606z" />
    <glyph glyph-name="dagger" unicode="&#x2020;" horiz-adv-x="942" 
d="M381 637l65 289l-403 -70v188l403 -69l-69 459h188l-69 -459l403 69v-188l-403 70l65 -289l-92 -1174z" />
    <glyph glyph-name="daggerdbl" unicode="&#x2021;" horiz-adv-x="942" 
d="M496 926l65 -467l-65 -486l403 70v-188l-403 69l69 -459h-188l69 459l-403 -69v188l403 -70l-65 486l65 467l-403 -70v188l403 -69l-69 459h188l-69 -459l403 69v-188z" />
    <glyph glyph-name="bullet" unicode="&#x2022;" horiz-adv-x="942" 
d="M887 752l-414 -424l-424 424l424 419z" />
    <glyph glyph-name="ellipsis" unicode="&#x2026;" horiz-adv-x="1290" 
d="M1223 109l-148 -152l-151 152l151 149zM793 109l-148 -152l-151 152l151 149zM362 109l-147 -152l-152 152l152 149z" />
    <glyph glyph-name="perthousand" unicode="&#x2030;" horiz-adv-x="2164" 
d="M41 1196q0 137 94 231q95 95 234 95q140 0 235 -95q96 -96 96 -231q0 -137 -96 -233q-95 -95 -229 -95q-144 0 -240 93q-94 94 -94 235zM127 1196q0 -117 67.5 -185.5t180.5 -68.5q104 0 169.5 70t65.5 184q0 113 -66.5 182.5t-174.5 69.5q-106 0 -174 -70t-68 -182z
M1182 1565l65 -47l-1030 -1622l-65 45zM743 295q0 136 95 231t233 95q141 0 236 -95q96 -96 96 -231q0 -138 -96 -234q-94 -94 -230 -94q-144 0 -239 92q-95 95 -95 236zM829 295q0 -117 67.5 -185.5t180.5 -68.5q104 0 170 70t66 184q0 113 -66.5 182.5t-175.5 69.5
q-106 0 -174 -70t-68 -182zM1464 295q0 136 95 231t233 95q141 0 236 -95q96 -96 96 -231q0 -138 -96 -234q-94 -94 -230 -94q-144 0 -239 92q-95 95 -95 236zM1550 295q0 -117 67.5 -185.5t180.5 -68.5q104 0 170 70t66 184q0 113 -66.5 182.5t-175.5 69.5q-106 0 -174 -70
t-68 -182z" />
    <glyph glyph-name="permillion" unicode="&#x2031;" horiz-adv-x="2885" 
d="M41 1196q0 137 94 231q95 95 234 95q140 0 235 -95q96 -96 96 -231q0 -137 -96 -233q-95 -95 -229 -95q-144 0 -240 93q-94 94 -94 235zM127 1196q0 -117 67.5 -185.5t180.5 -68.5q104 0 169.5 70t65.5 184q0 113 -66.5 182.5t-174.5 69.5q-106 0 -174 -70t-68 -182z
M1182 1565l65 -47l-1030 -1622l-65 45zM743 295q0 136 95 231t233 95q141 0 236 -95q96 -96 96 -231q0 -138 -96 -234q-94 -94 -230 -94q-144 0 -239 92q-95 95 -95 236zM829 295q0 -117 67.5 -185.5t180.5 -68.5q104 0 170 70t66 184q0 113 -66.5 182.5t-175.5 69.5
q-106 0 -174 -70t-68 -182zM1464 295q0 136 95 231t233 95q141 0 236 -95q96 -96 96 -231q0 -138 -96 -234q-94 -94 -230 -94q-144 0 -239 92q-95 95 -95 236zM1550 295q0 -117 67.5 -185.5t180.5 -68.5q104 0 170 70t66 184q0 113 -66.5 182.5t-175.5 69.5q-106 0 -174 -70
t-68 -182zM2185 295q0 137 94 231q95 95 234 95q140 0 235 -95q97 -97 97 -231q0 -137 -97 -234q-94 -94 -229 -94q-145 0 -240 92q-94 94 -94 236zM2271 295q0 -117 67.5 -185.5t180.5 -68.5q104 0 170 70t66 184q0 113 -66.5 182.5t-175.5 69.5q-106 0 -174 -70t-68 -182z
" />
    <glyph glyph-name="guilsinglleft" unicode="&#x2039;" horiz-adv-x="471" 
d="M461 889l-228 -410l228 -409l-451 409z" />
    <glyph glyph-name="guilsinglright" unicode="&#x203a;" horiz-adv-x="471" 
d="M461 479l-451 -409l228 409l-228 410z" />
    <glyph glyph-name="asterisks" unicode="&#x2042;" horiz-adv-x="2048" 
d="M573 662l-49 -340l310 151l45 -141l-342 -53l239 -244l-119 -86l-157 301l-156 -301l-119 86l240 244l-342 53l45 141l309 -151l-51 340h147zM1620 662l-49 -340l309 151l45 -141l-342 -53l240 -244l-119 -86l-158 301l-155 -301l-119 86l239 244l-342 53l45 141
l310 -151l-51 340h147zM1098 1536l-49 -340l309 152l45 -142l-342 -53l239 -244l-118 -86l-158 301l-156 -301l-118 86l239 244l-342 53l45 142l309 -152l-51 340h148z" />
    <glyph glyph-name="fraction" unicode="&#x2044;" horiz-adv-x="317" 
d="M604 1454l68 -47l-955 -1503l-67 47z" />
    <glyph glyph-name="zerosuperior" unicode="&#x2070;" horiz-adv-x="788" 
d="M29 852q0 154 104 258q107 104 260 104q158 0 262 -104q107 -104 107 -258q0 -151 -107 -258q-105 -105 -254 -105q-159 0 -268 103q-104 101 -104 260zM141 852q0 -119 72.5 -193.5t187.5 -74.5q105 0 174 75q72 78 72 193t-72 190.5t-182 75.5q-107 0 -180 -76
q-72 -78 -72 -190z" />
    <glyph glyph-name="foursuperior" unicode="&#x2074;" horiz-adv-x="696" 
d="M717 682v-10q0 -90 -45 -164q-78 4 -148 4q0 -38 4 -160q4 -118 4 -137l-124 -27v324h-158q-127 0 -295 -4q256 388 573 723q-4 -114 -4 -248v-365h49q74 0 144 64zM129 618h279v371q-191 -235 -279 -371z" />
    <glyph glyph-name="fivesuperior" unicode="&#x2075;" horiz-adv-x="507" 
d="M51 840l62 352h213q121 0 178 8l-60 -123h-268l-26 -139q123 -29 198.5 -118.5t75.5 -201.5q0 -157 -110.5 -255.5t-333.5 -124.5q173 86 245 167.5t72 180.5q0 196 -246 254z" />
    <glyph glyph-name="sixsuperior" unicode="&#x2076;" horiz-adv-x="700" 
d="M217 999q18 54 64.5 83.5t107.5 29.5q105 0 174 -63q94 -82 94 -236q0 -138 -88 -223q-86 -86 -207 -86q-144 0 -235.5 109.5t-91.5 287.5q0 229 182 408q179 176 496 211q-543 -246 -543 -617q0 -153 54.5 -239t137.5 -86q78 0 123 58.5t45 162.5q0 102 -51.5 165.5
t-130.5 63.5q-52 0 -131 -29z" />
    <glyph glyph-name="sevensuperior" unicode="&#x2077;" horiz-adv-x="598" 
d="M444 999l45 84h-282q-127 0 -209 -104q3 121 59 219q58 -6 154 -6h170q167 0 258 6q-31 -56 -98 -192q-62 -125 -76 -158l-76 -166l-61 -141l-68 -164l-67 -160h-150z" />
    <glyph glyph-name="eightsuperior" unicode="&#x2078;" horiz-adv-x="634" 
d="M279 956l-48 31q-149 98 -149 230q0 104 73 173.5t179 69.5q105 0 173 -61.5t68 -155.5q0 -71 -48 -121.5t-126 -56.5q58 73 58 176q0 65 -37.5 106.5t-95.5 41.5q-55 0 -94 -39t-39 -95t32 -97.5t125 -102.5l60 -39q106 -70 146 -131.5t40 -143.5q0 -100 -78 -168.5
t-194 -68.5q-125 0 -205 66.5t-80 170.5q0 85 53 147.5t141 69.5q-39 -65 -53 -108t-14 -109q0 -72 46 -117.5t118 -45.5q62 0 103.5 42t41.5 97q0 60 -43 113t-153 126z" />
    <glyph glyph-name="ninesuperior" unicode="&#x2079;" horiz-adv-x="700" 
d="M481 717q-18 -54 -64.5 -83.5t-107.5 -29.5q-104 0 -174 64q-94 82 -94 235q0 137 86 223t209 86q144 0 236 -109.5t92 -287.5q0 -227 -183 -407q-179 -176 -495 -211q542 246 542 616q0 153 -54.5 239.5t-137.5 86.5q-78 0 -123 -58.5t-45 -162.5q0 -102 51.5 -166
t130.5 -64q52 0 131 29z" />
    <glyph glyph-name="plussuperior" unicode="&#x207a;" horiz-adv-x="643" 
d="M285 887v252h75v-252h252v-74h-252v-252h-75v252h-254v74h254z" />
    <glyph glyph-name="minussuperior" unicode="&#x207b;" horiz-adv-x="643" 
d="M31 813v74h581v-74h-581z" />
    <glyph glyph-name="equalsuperior" unicode="&#x207c;" horiz-adv-x="643" 
d="M31 922v71h581v-71h-581zM31 707v71h581v-71h-581z" />
    <glyph glyph-name="parenleftsuperior" unicode="&#x207d;" horiz-adv-x="499" 
d="M70 893q0 407 360 647l41 -65q-315 -210 -315 -582q0 -374 315 -582l-41 -67q-360 243 -360 649z" />
    <glyph glyph-name="parenrightsuperior" unicode="&#x207e;" horiz-adv-x="499" 
d="M430 893q0 -406 -360 -649l-41 67q315 205 315 582q0 374 -315 582l41 65q360 -240 360 -647z" />
    <glyph glyph-name="nsuperior" unicode="&#x207f;" horiz-adv-x="698" 
d="M602 952v-164q0 -27 4 -137q3 -88 41 -141q-100 9 -198 0q34 58 40 141q3 41 3 137v152q0 60 -32.5 94.5t-86.5 34.5q-69 0 -111.5 -43t-42.5 -111v-127q0 -110 2 -137q3 -86 41 -141q-98 9 -199 0q35 50 41 141q5 67 5 137v35q0 63 -5 135q-6 80 -51 113l172 88
q-6 -43 -6 -100q76 110 187 110q112 0 165 -90q31 -54 31 -127z" />
    <glyph glyph-name="zeroinferior" unicode="&#x2080;" horiz-adv-x="788" 
d="M29 135q0 154 104 258q108 105 260 105q157 0 262 -105q107 -104 107 -258q0 -152 -107 -256q-103 -106 -254 -106q-160 0 -268 102q-104 101 -104 260zM141 135q0 -119 72.5 -193.5t187.5 -74.5q102 0 174 78t72 190q0 115 -72 190.5t-182 75.5q-108 0 -180 -75
q-72 -78 -72 -191z" />
    <glyph glyph-name="oneinferior" unicode="&#x2081;" horiz-adv-x="374" 
d="M244 182v-90q0 -84 6 -149q5 -55 17.5 -84.5t51.5 -65.5q-66 4 -133 4q-61 0 -131 -4q66 66 72 150q4 110 4 149v90q0 34 -4 152q-5 50 -19 80t-53 67q133 -11 264 0q-39 -36 -51.5 -65t-17.5 -82q-6 -67 -6 -152z" />
    <glyph glyph-name="twoinferior" unicode="&#x2082;" horiz-adv-x="550" 
d="M244 496q108 0 166 -70q55 -64 55 -156q0 -178 -254 -368h151q88 0 177 65q-11 -90 -60 -176q-74 4 -155 4h-125q-62 0 -115 -2q-20 -1 -43 -2t-35.5 -1.5t-17.5 -0.5l51 45q162 143 235 244q66 91 66 180q0 57 -33.5 93t-87.5 36q-92 0 -176 -96q0 87 59 146t142 59z
" />
    <glyph glyph-name="threeinferior" unicode="&#x2083;" horiz-adv-x="507" 
d="M35 -473h-41q185 60 272.5 133.5t87.5 169.5q0 78 -65.5 132.5t-188.5 80.5l33 23q176 120 176 217q0 47 -33.5 75.5t-85.5 28.5q-100 0 -182 -88q4 91 62.5 144t146.5 53q101 0 158 -60q53 -59 53 -135q0 -105 -149 -199q88 -20 144 -91t56 -163q0 -132 -114 -227
q-113 -94 -330 -94z" />
    <glyph glyph-name="fourinferior" unicode="&#x2084;" horiz-adv-x="696" 
d="M717 -35v-10q0 -90 -45 -164q-78 4 -148 4q0 -39 4 -157q4 -122 4 -140l-124 -26v323h-158q-127 0 -295 -4q256 388 573 723q-4 -114 -4 -248v-364h49q75 0 144 63zM129 -98h279v370q-194 -239 -279 -370z" />
    <glyph glyph-name="fiveinferior" unicode="&#x2085;" horiz-adv-x="507" 
d="M51 123l62 352h213q121 0 178 8l-60 -123h-268l-26 -139q123 -29 198.5 -118t75.5 -201q0 -158 -111 -256.5t-333 -124.5q173 86 245 167.5t72 180.5q0 196 -246 254z" />
    <glyph glyph-name="sixinferior" unicode="&#x2086;" horiz-adv-x="700" 
d="M217 283q18 54 64 83t108 29q105 0 174 -63q94 -82 94 -236q0 -138 -88 -223q-86 -86 -207 -86q-144 0 -235.5 109.5t-91.5 287.5q0 229 182 408q179 176 496 211q-543 -246 -543 -617q0 -153 54.5 -239t137.5 -86q78 0 123 58.5t45 162.5q0 102 -51.5 165.5t-130.5 63.5
q-55 0 -131 -28z" />
    <glyph glyph-name="seveninferior" unicode="&#x2087;" horiz-adv-x="598" 
d="M444 283l45 84h-282q-127 0 -209 -105q3 121 59 219q59 -6 154 -6h170q167 0 258 6q-31 -55 -98 -192q-62 -125 -76 -158l-76 -166l-61 -139l-68 -164q-50 -124 -67 -162h-150z" />
    <glyph glyph-name="eightinferior" unicode="&#x2088;" horiz-adv-x="634" 
d="M279 240l-48 30q-149 98 -149 230q0 104 73 173.5t179 69.5q105 0 173 -61.5t68 -155.5q0 -71 -48 -121.5t-126 -56.5q58 73 58 176q0 65 -37.5 106.5t-95.5 41.5q-56 0 -94.5 -39t-38.5 -94q0 -56 32.5 -98t124.5 -103l60 -39q106 -70 146 -131t40 -143q0 -100 -78 -169
t-194 -69q-125 0 -205 67t-80 171q0 85 53 147.5t141 69.5q-39 -65 -53 -108t-14 -109q0 -72 46 -118t118 -46q62 0 103.5 41.5t41.5 97.5q0 60 -43 113.5t-153 126.5z" />
    <glyph glyph-name="nineinferior" unicode="&#x2089;" horiz-adv-x="700" 
d="M481 0q-18 -54 -64.5 -83.5t-107.5 -29.5q-104 0 -174 64q-94 82 -94 235q0 138 86 224t209 86q144 0 236 -110t92 -288q0 -227 -183 -407q-179 -176 -495 -211q542 246 542 616q0 153 -54.5 239.5t-137.5 86.5q-78 0 -123 -58.5t-45 -162.5q0 -102 51.5 -166t130.5 -64
q52 0 131 29z" />
    <glyph glyph-name="plusinferior" unicode="&#x208a;" horiz-adv-x="643" 
d="M285 170v252h75v-252h252v-74h-252v-252h-75v252h-254v74h254z" />
    <glyph glyph-name="minusinferior" unicode="&#x208b;" horiz-adv-x="643" 
d="M31 96v74h581v-74h-581z" />
    <glyph glyph-name="equalinferior" unicode="&#x208c;" horiz-adv-x="643" 
d="M31 205v71h581v-71h-581zM31 -10v71h581v-71h-581z" />
    <glyph glyph-name="parenleftinferior" unicode="&#x208d;" horiz-adv-x="499" 
d="M70 176q0 407 360 647l41 -65q-315 -210 -315 -582q0 -374 315 -582l-41 -67q-360 243 -360 649z" />
    <glyph glyph-name="parenrightinferior" unicode="&#x208e;" horiz-adv-x="499" 
d="M430 176q0 -406 -360 -649l-41 67q315 205 315 582q0 374 -315 582l41 65q360 -240 360 -647z" />
    <glyph glyph-name="Euro" unicode="&#x20ac;" horiz-adv-x="1443" 
d="M109 807h-109v72h119q55 267 270 426q211 161 504 161q245 0 453 -102q4 -70 4 -121q0 -127 -17 -227q-77 188 -170 272t-268 84q-232 0 -391 -135q-159 -132 -203 -358h580v-72h-590q-4 -36 -4 -84q0 -12 4 -90h590v-72h-578q53 -232 227 -366q177 -136 392 -136
q178 0 270 99q95 103 176 313q8 -52 8 -129q0 -157 -20 -260q-195 -115 -461 -115q-281 0 -502 156t-274 438h-119v72h109q-5 45 -5 88q0 10 2 40t3 46z" />
    <glyph glyph-name="celsius" unicode="&#x2103;" horiz-adv-x="2050" 
d="M1528 59q178 0 270 99q95 103 176 313q8 -52 8 -129q0 -157 -20 -260q-195 -115 -461 -115q-120 0 -235 30t-216.5 93t-178.5 151t-121.5 212t-44.5 268q0 331 231 536q232 209 563 209q245 0 453 -102q4 -70 4 -121q0 -127 -17 -227q-77 188 -170 272t-268 84
q-270 0 -438 -180q-166 -181 -166 -469q0 -299 188 -481q192 -183 443 -183zM53 1171q0 115 80 195q82 82 195 82t192 -82q82 -82 82 -195t-82 -192q-80 -80 -192 -80q-115 0 -195 80t-80 192zM324 967q91 0 146.5 55.5t55.5 146.5t-56 150t-146 59q-87 0 -142 -59t-55 -150
t54.5 -146.5t142.5 -55.5z" />
    <glyph glyph-name="farenheit" unicode="&#x2109;" horiz-adv-x="1570" 
d="M53 1171q0 115 80 195q82 82 195 82t192 -82q82 -82 82 -195t-82 -192q-80 -80 -192 -80q-115 0 -195 80t-80 192zM324 967q91 0 146.5 55.5t55.5 146.5t-56 150t-146 59q-87 0 -142 -59t-55 -150t54.5 -146.5t142.5 -55.5zM985 702v-256q0 -49 4 -229q1 -79 24.5 -126.5
t76.5 -92.5h-25q-4 0 -13.5 0.5t-27 1.5t-31.5 2q-55 6 -88 6q-24 0 -78 -5t-63 -5h-25q67 70 76 219q6 102 6 229v545q0 128 -6 230q-9 149 -76 219h25q9 0 63 -3t78 -3h377q148 0 227 6q17 -94 17 -178q0 -60 -10 -138q-89 195 -234 219q-79 11 -176 11q-71 0 -90.5 -17.5
t-24.5 -81.5q-6 -64 -6 -211v-262q143 0 244 11q137 15 201 106v-25q-4 -38 -4 -131t4 -133v-24q-61 88 -201 106q-92 10 -244 10z" />
    <glyph glyph-name="trademark" unicode="&#x2122;" horiz-adv-x="1406" 
d="M1210 1317l-247 -545l-242 520l-10 -301q0 -7 -1 -41.5t-1 -42.5q0 -82 41 -123q-16 1 -35 2t-29 1.5t-14 0.5t-74 -4q28 36 37 105q6 34 6 102l10 244q0 5 1 27t1 24q0 113 -41 154q39 -2 138 -2l231 -484l217 484q114 0 137 2q-32 -46 -32 -103q0 -23 1 -53t1 -31
l6 -313q0 -8 1 -27t1 -22q0 -68 37 -105q-3 0 -35.5 2.5t-46.5 2.5q-10 0 -45 -2.5t-41 -2.5q37 34 37 132q0 27 -5 227q-4 160 -4 172zM328 1260v-271q0 -80 2 -100q3 -51 43 -103q-58 5 -92 5q-2 0 -14 -1t-35 -2t-48 -2q44 47 47 103q2 20 2 100v271q0 54 -4 94
q-3 24 -9 29.5t-32 5.5q-41 0 -65 -3q-63 -6 -121 -108q-6 34 -6 68q0 42 8 94q37 -2 115 -2h323q78 0 115 2q8 -52 8 -94q0 -34 -6 -68q-58 102 -121 108q-24 3 -65 3q-25 0 -30.5 -5t-10.5 -30q-4 -40 -4 -94z" />
    <glyph glyph-name="Omega" unicode="&#x2126;" horiz-adv-x="1550" 
d="M1477 -6q-79 6 -254 6h-326l25 295q161 47 253.5 191.5t92.5 347.5q0 239 -144 383q-144 147 -348 147q-206 0 -350 -147q-143 -143 -143 -383q0 -203 92.5 -347.5t253.5 -191.5l24 -295h-325q-174 0 -254 -6q-35 196 -35 285q0 69 18 116q49 -112 99 -160t125 -59
q83 -12 211 -12h49l-9 76q-218 65 -330 218.5t-112 375.5q0 270 191 452q192 180 493 180q302 0 494 -180t192 -452q0 -224 -111.5 -377.5t-328.5 -218.5l-10 -74h49q129 0 211 12q75 11 124.5 59t98.5 160q18 -46 18 -116q0 -94 -34 -285z" />
    <glyph glyph-name="uni2132" unicode="&#x2132;" horiz-adv-x="874" 
d="M631 4h-352q-107 0 -218 -6q-28 124 -28 250q0 58 2 74q58 -92 100 -142q62 -71 144 -86q65 -10 159 -10q27 2 39 3t27.5 6t20 8t12 16t7.5 23.5t2.5 36t2 48t0.5 65.5t2 83v248q-119 0 -227 -11q-131 -12 -195 -100v25q0 22 3 67t3 57q0 11 -3 55.5t-3 65.5v31
q94 -85 195 -100q112 -11 227 -11v242q0 129 -4 215q-9 128 -74 211h16q26 0 78.5 -3t63.5 -3t63 3t78 3h16q-67 -82 -73 -211q-4 -168 -4 -215v-518q0 -47 4 -215q6 -129 73 -211h-16q-26 0 -78 3t-63 3z" />
    <glyph glyph-name="uni214E" unicode="&#x214e;" horiz-adv-x="745" 
d="M422 514v41q0 121 -6 215q-9 138 -72 207h25q21 0 69 -3t60 -3t59 3t68 3h24q-62 -70 -71 -207q-7 -110 -7 -215v-131q0 -105 7 -215q9 -139 71 -207h-20q-22 0 -71.5 3t-61.5 3h-232q-88 0 -205 -8q-20 70 -20 172q0 48 4 84q49 -76 98 -119q39 -33 95 -43q40 -6 114 -6
q38 0 53.5 15t16.5 57q2 18 2 135v141q-116 0 -156 -6q-71 -9 -141 -82v27q0 13 3 52.5t3 47.5t-3 46t-3 50v31q68 -68 141 -80q44 -8 156 -8z" />
    <glyph glyph-name="onethird" unicode="&#x2153;" horiz-adv-x="1282" 
d="M244 1083v-90q0 -85 6 -149q5 -55 17.5 -84.5t51.5 -65.5q-66 4 -133 4q-61 0 -131 -4q66 66 72 150q4 110 4 149v90q0 34 -4 152q-5 50 -19 80t-53 67q133 -11 264 0q-39 -36 -51.5 -65t-17.5 -82q-6 -68 -6 -152zM1020 1454l67 -47l-954 -1503l-67 47zM809 -268h-41
q185 60 272.5 133.5t87.5 169.5q0 78 -65.5 132.5t-188.5 80.5l33 22q176 120 176 217q0 47 -33.5 76t-84.5 29q-101 0 -183 -88q4 90 62.5 143t146.5 53q102 0 158 -59q53 -59 53 -135q0 -105 -149 -199q88 -20 144 -91t56 -163q0 -133 -114 -227q-113 -94 -330 -94z" />
    </font>
</defs>
</svg>
