<?xml version="1.0" standalone="no"?>
<!DOCTYPE svg PUBLIC "-//W3C//DTD SVG 1.1//EN" "http://www.w3.org/Graphics/SVG/1.1/DTD/svg11.dtd" >
<svg xmlns="http://www.w3.org/2000/svg" xmlns:xlink="http://www.w3.org/1999/xlink" version="1.1">
<metadata>
Created by FontForge 20170731 at Mon Nov  2 20:41:07 2020
 By Aleksey,,,
Copyright (c) 2013 by Matthieu Cortat. All rights reserved.
</metadata>
<defs>
<font id="Louize-BoldItalic" horiz-adv-x="512" >
  <font-face 
    font-family="Louize"
    font-weight="700"
    font-style="italic"
    font-stretch="normal"
    units-per-em="2048"
    panose-1="2 10 8 2 5 0 0 2 0 3"
    ascent="1499"
    descent="-549"
    x-height="913"
    cap-height="1440"
    bbox="-420 -565 3070 2249"
    underline-thickness="102"
    underline-position="-307"
    slope="-12"
    unicode-range="U+0020-FB06"
  />
<missing-glyph horiz-adv-x="614" 
 />
    <glyph glyph-name="ff" unicode="ff" horiz-adv-x="1150" 
d="M-106 -537q-83 0 -132 39.5t-49 102.5q0 50 28 81t77 31q54 0 98 -77q25 -48 59 -48q72 0 113 263l133 907h-153v106l172 9q42 202 120 356q68 134 183.5 211.5t240.5 77.5q151 0 240 -95q115 95 260 95q115 0 189.5 -61t74.5 -154q0 -50 -31.5 -82.5t-82.5 -32.5
q-91 0 -129 121q-27 88 -93 88q-74 0 -133 -111q-57 -108 -104 -403q52 1 131 4.5t92 3.5l16 -35l-26 -98h-230l-108 -686q-95 -613 -395 -613q-86 0 -140.5 40t-54.5 102q0 47 30.5 79.5t74.5 32.5q64 0 104 -75q27 -50 66 -50q41 0 55 107q12 74 16 113l17 151
q2 21 20 168l90 631h-287l-100 -627q-105 -672 -452 -672zM465 883l289 2q29 138 65 231l37 88q16 36 16 64q0 61 -35.5 97t-97.5 36q-94 0 -161 -113q-68 -120 -113 -405z" />
    <glyph glyph-name="fi" unicode="fi" horiz-adv-x="1058" 
d="M580 762h-136l-108 -686q-95 -613 -428 -613q-86 0 -140.5 40t-54.5 102q0 48 30 80t79 32q62 0 106 -77q25 -48 62 -48q18 0 31.5 13.5t30.5 68t32 152.5l135 936h-151v106l170 13q40 195 118 352q65 132 173.5 210.5t240.5 78.5q124 0 206.5 -58.5t82.5 -154.5
q0 -56 -36 -92.5t-93 -36.5q-98 0 -139 133q-27 88 -86 88q-157 0 -240 -514l135 6q233 9 320 45l61 -37q-80 -289 -84 -307l-88 -381q-6 -24 -6 -45q0 -27 22 -27q51 0 166 158l47 -37q-80 -145 -167.5 -213.5t-165.5 -68.5q-56 0 -95 35.5t-39 88.5q0 52 31 195l70 309
q16 75 16 103q0 51 -108 51z" />
    <glyph glyph-name="fl" unicode="fl" horiz-adv-x="1097" 
d="M1047 1153l-224 -924q-6 -30 -6 -39q0 -26 27 -26q60 0 192 170l47 -35q-193 -319 -385 -319q-53 0 -89 32t-36 86q0 52 37 203l109 461h-275l-108 -686q-95 -613 -428 -613q-86 0 -140.5 40t-54.5 102q0 48 30 80t79 32q62 0 106 -77q25 -48 62 -48q18 0 31.5 13.5
t30.5 68t32 152.5l135 936h-151v106l170 13q40 195 118 352q65 132 173.5 210.5t240.5 78.5q114 0 199 -54l137 72l39 -33q-48 -152 -98 -354zM465 887q55 0 127 2q28 1 63 1.5t58 1t37 1.5l61 258q23 104 23 137q0 54 -26.5 85.5t-70.5 31.5q-92 0 -159 -113
q-68 -116 -113 -405z" />
    <glyph glyph-name="ffi" unicode="ffi" horiz-adv-x="1570" 
d="M1284 1522q124 0 205.5 -59t81.5 -156q0 -58 -34 -92.5t-93 -34.5q-98 0 -139 133q-27 88 -86 88q-161 0 -244 -514l139 6q233 9 320 45l61 -37q-80 -289 -84 -307l-88 -381q-6 -24 -6 -45q0 -27 22 -27q51 0 166 158l47 -37q-80 -145 -167.5 -213.5t-165.5 -68.5
q-56 0 -95 35.5t-39 88.5q0 52 31 195l70 309q16 75 16 103q0 51 -108 51h-136l-108 -686q-95 -613 -395 -613q-86 0 -140.5 40t-54.5 102q0 47 30.5 79.5t74.5 32.5q64 0 104 -75q27 -50 66 -50q41 0 55 107q12 74 16 113l17 151q2 21 20 168l90 631h-287l-100 -627
q-105 -672 -452 -672q-83 0 -132 39.5t-49 102.5q0 50 28 81t77 31q54 0 98 -77q25 -48 59 -48q72 0 113 263l133 907h-153v106l172 9q42 202 120 356q68 134 183.5 211.5t240.5 77.5q151 0 240 -95q115 95 260 95zM465 883l289 2q29 138 65 231l37 88q16 36 16 64
q0 61 -35.5 97t-97.5 36q-94 0 -161 -113q-68 -120 -113 -405z" />
    <glyph glyph-name="ffl" unicode="ffl" horiz-adv-x="1611" 
d="M465 883l289 2q29 138 65 231l37 88q16 36 16 64q0 61 -35.5 97t-97.5 36q-94 0 -161 -113q-68 -120 -113 -405zM1124 301l109 461h-275l-108 -686q-95 -613 -395 -613q-86 0 -140.5 40t-54.5 102q0 47 30.5 79.5t74.5 32.5q64 0 104 -75q27 -50 66 -50q41 0 55 107
q12 74 16 113l17 151q2 21 20 168l90 631h-287l-100 -627q-105 -672 -452 -672q-83 0 -132 39.5t-49 102.5q0 50 28 81t77 31q54 0 98 -77q25 -48 59 -48q72 0 113 263l133 907h-153v106l172 9q42 202 120 356q68 134 183.5 211.5t240.5 77.5q151 0 240 -95q115 95 260 95
q114 0 199 -54l137 72l39 -33q-48 -152 -98 -354l-224 -924q-6 -30 -6 -39q0 -26 27 -26q60 0 192 170l47 -35q-193 -319 -385 -319q-53 0 -89 32t-36 86q0 52 37 203zM979 887q55 0 127 2q28 1 63 1.5t58 1t37 1.5l61 258q23 104 23 137q0 54 -26.5 85.5t-70.5 31.5
q-92 0 -159 -113q-68 -116 -113 -405z" />
    <glyph glyph-name="longsi" unicode="&#x17f;i" horiz-adv-x="1062" 
d="M465 887l-129 -811q-99 -613 -428 -613q-86 0 -140.5 40t-54.5 102q0 48 30 80t79 32q62 0 106 -77q25 -48 62 -48q18 0 31.5 13.5t30.5 68t32 152.5l135 936h-151v106l170 13q40 195 118 352q65 132 173.5 210.5t240.5 78.5q124 0 206.5 -58.5t82.5 -154.5
q0 -56 -36 -92.5t-93 -36.5q-98 0 -139 133q-27 88 -86 88q-157 0 -240 -514zM602 299l115 309q33 85 33 105q0 24 -23 24q-38 0 -145 -110l-41 37q178 260 317 260q57 0 90 -37t33 -99q0 -55 -41 -167l-145 -408q-15 -44 -15 -53q0 -19 21 -19q47 0 162 158l47 -37
q-156 -282 -328 -282q-56 0 -92.5 38t-36.5 93q0 57 49 188z" />
    <glyph glyph-name="longsl" unicode="&#x17f;l" horiz-adv-x="1097" 
d="M610 301l201 850q23 104 23 137q0 54 -26.5 85.5t-70.5 31.5q-92 0 -159 -113q-68 -116 -113 -405l-129 -811q-99 -613 -428 -613q-86 0 -140.5 40t-54.5 102q0 48 30 80t79 32q62 0 106 -77q25 -48 62 -48q18 0 31.5 13.5t30.5 68t32 152.5l135 936h-151v106l170 13
q40 195 118 352q65 132 173.5 210.5t240.5 78.5q114 0 199 -54l137 72l39 -33q-48 -152 -98 -354l-224 -924q-6 -30 -6 -39q0 -26 27 -26q60 0 192 170l47 -35q-193 -319 -385 -319q-53 0 -89 32t-36 86q0 52 37 203z" />
    <glyph glyph-name="fb" unicode="fb" horiz-adv-x="1472" 
d="M1055 1153l-172 -532l10 -3q119 187 197 252q76 64 151 64q77 0 131.5 -74t54.5 -188q0 -165 -80 -321.5t-237 -274.5q-141 -105 -274 -105q-114 0 -180 69t-66 183q0 94 53 289l72 250h-271l-108 -686q-95 -613 -428 -613q-86 0 -140.5 40t-54.5 102q0 48 30 80t79 32
q62 0 106 -77q25 -48 62 -48q18 0 31.5 13.5t30.5 68t32 152.5l135 936h-151v106l170 13q40 195 118 352q65 132 173.5 210.5t240.5 78.5q114 0 199 -54l180 72l31 -33q-124 -353 -125 -354zM1210 621q0 57 -22 90.5t-60 33.5q-85 0 -196 -182q-111 -181 -111 -315
q0 -48 29 -76.5t74 -28.5q69 0 135 66q151 151 151 412zM465 887q215 0 287 2l69 244q25 95 25 149q0 55 -29.5 89t-79.5 34q-92 0 -159 -113q-68 -116 -113 -405z" />
    <glyph glyph-name="flslash" unicode="f&#x142;" horiz-adv-x="1196" 
d="M1159 752l33 -123l-248 -68l-80 -332q-6 -30 -6 -39q0 -26 27 -26q60 0 192 170l47 -35q-193 -319 -385 -319q-53 0 -89 32t-36 86q0 52 37 203l45 193l-155 -41l-31 120l219 60l115 481q28 124 28 156q0 61 -33 98t-89 37q-100 0 -170 -111q-69 -114 -115 -407l178 8
l16 -35l-26 -98h-189l-108 -686q-95 -613 -428 -613q-86 0 -140.5 40t-54.5 102q0 48 30 80t79 32q62 0 106 -77q25 -48 62 -48q18 0 31.5 13.5t30.5 68t32 152.5l135 936h-151v106l170 13q40 195 118 352q65 133 176.5 211t253.5 78q139 0 224 -54l137 72l39 -33
q-52 -167 -99 -354l-110 -451z" />
    <glyph glyph-name="fscaron" unicode="f&#x161;" horiz-adv-x="1335" 
d="M674 762h-230l-98 -627q-105 -672 -452 -672q-83 0 -132 39.5t-49 102.5q0 50 28 81t77 31q54 0 98 -77q25 -48 59 -48q72 0 113 263l133 907h-153v106l172 9q28 170 61 301q45 170 128.5 257t213.5 87q85 0 144 -51.5t59 -116.5q0 -45 -29 -78t-72 -33q-71 0 -112 86
q-26 49 -39 59q-12 10 -33 13q-76 0 -76 -166q0 -152 -20 -348l219 8l16 -35zM1030 137q0 35 -24 78q-19 38 -113 174q-109 157 -109 262q0 120 79.5 197.5t211.5 77.5q105 0 176.5 -52.5t71.5 -130.5q0 -45 -26.5 -74.5t-67.5 -29.5q-85 0 -115 92q-27 86 -84 86
q-65 0 -65 -74q0 -65 116 -245q86 -135 103 -174q24 -52 24 -117q0 -107 -72 -174.5t-192 -67.5q-129 0 -209 61t-80 144q0 49 27.5 81t75.5 32q70 0 108 -109q11 -30 16.5 -41.5t16.5 -28t25.5 -23t36.5 -9.5q69 0 69 65zM1448 1528l61 -55l-295 -404q-40 -55 -81 -55
q-46 0 -58 55l-98 436l78 25l127 -240z" />
    <glyph glyph-name="fthorn" unicode="f&#xfe;" horiz-adv-x="1492" 
d="M963 1468l127 72l34 -33q-46 -133 -88 -354l-43 -223l70 4q160 0 257 -94.5t97 -253.5q0 -444 -612 -582q-64 -311 -64 -381q0 -81 123 -108l-6 -56q-105 6 -231 6q-118 0 -217 -6l-4 54q43 23 62 50.5t38 90.5q18 75 43 199l188 925l-293 -10l-108 -692
q-99 -613 -428 -613q-86 0 -140.5 40t-54.5 102q0 48 30 80t79 32q62 0 106 -77q25 -48 62 -48q18 0 31.5 13.5t30.5 68t32 152.5l135 932l-151 -2v106l168 15q41 200 120 356q65 132 174 210.5t240 78.5q108 0 193 -54zM1184 559q0 111 -49 170t-127 59h-43l-131 -673
q160 41 255 160.5t95 283.5zM465 887l301 22l25 121q38 173 38 252q0 55 -25 89t-67 34q-86 0 -157 -115q-70 -118 -115 -403z" />
    <glyph glyph-name="fzcaron" unicode="f&#x17e;" horiz-adv-x="1677" 
d="M674 762h-230l-98 -627q-105 -672 -452 -672q-83 0 -132 39.5t-49 102.5q0 50 28 81t77 31q54 0 98 -77q25 -48 59 -48q72 0 113 263l133 907h-153v106l172 9q28 170 61 301q45 170 128.5 257t213.5 87q85 0 144 -51.5t59 -116.5q0 -45 -29 -78t-72 -33q-71 0 -112 86
q-26 49 -39 59q-12 10 -33 13q-76 0 -76 -166q0 -152 -20 -348l219 8l16 -35zM1462 715l-544 -473l2 -6q52 12 116 12q74 0 211 -84q134 -82 209 -82q57 0 57 57q0 29 -57 80q-55 52 -55 105q0 38 29 68t67 30q63 0 106.5 -59t43.5 -148q0 -136 -95 -225q-93 -90 -209 -90
q-73 0 -149 33.5t-131 80.5q-127 115 -182 115q-61 0 -76 -74q-2 -37 -40.5 -52t-75.5 3.5t-34 65.5q0 79 84 151l555 469l-4 6q-62 -26 -121 -26q-61 0 -151 37q-88 39 -125 39q-49 0 -49 -43q0 -15 28 -60q29 -47 29 -74q0 -40 -24.5 -67t-65.5 -27q-48 0 -82.5 40
t-34.5 97q0 123 86 215q87 93 203 93q84 0 207 -60q124 -60 176 -71q56 66 88.5 90t65.5 24q30 0 51.5 -22.5t21.5 -57.5q0 -73 -131 -110zM1522 1528l61 -55l-295 -404q-40 -55 -82 -55q-45 0 -57 55l-98 436l77 25l127 -240z" />
    <glyph glyph-name="fh" unicode="fh" horiz-adv-x="1501" 
d="M1051 1153l-127 -473l6 -2q84 142 151.5 194t155.5 52q69 0 113.5 -50.5t44.5 -128.5q0 -62 -29 -157l-125 -391q-4 -16 -4 -27q0 -18 18 -18q51 0 164 143l47 -37q-175 -278 -331 -278q-53 0 -92 40t-39 89q0 66 40 190l101 313q14 43 14 76q0 45 -43 45
q-68 0 -139 -88.5t-107 -245.5l-94 -395q-44 -20 -117 -20q-71 0 -118 59q77 261 98 350l88 369h-283l-108 -686q-95 -613 -428 -613q-86 0 -140.5 40t-54.5 102q0 48 30 80t79 32q62 0 106 -77q25 -48 62 -48q18 0 31.5 13.5t30.5 68t32 152.5l135 936h-151v106l170 13
q40 195 118 352q65 132 173.5 210.5t240.5 78.5q114 0 199 -54l145 72l39 -33q-48 -145 -102 -354zM465 887h61q136 4 232 4l47 201q29 126 29 184q0 61 -26 95t-71 34q-92 0 -159 -113q-68 -116 -113 -405z" />
    <glyph glyph-name="fj" unicode="fj" horiz-adv-x="1034" 
d="M909 594l-90 -545q-52 -319 -137 -455q-82 -131 -236 -131q-85 0 -133.5 35.5t-48.5 98.5q0 45 27.5 75.5t68.5 30.5q54 0 101 -68q53 -73 100 -26q23 27 30 72t7 124q0 173 20 310l72 493q10 72 10 103q0 51 -125 51h-131l-108 -686q-95 -613 -428 -613q-86 0 -140.5 40
t-54.5 102q0 48 30 80t79 32q62 0 106 -77q25 -48 62 -48q19 -2 33.5 12.5t31.5 69t33 152.5l131 936h-151v106l170 13q40 195 118 352q65 132 173.5 210.5t240.5 78.5q124 0 206.5 -58.5t82.5 -154.5q0 -56 -36 -92.5t-93 -36.5q-98 0 -139 133q-27 88 -86 88
q-157 0 -240 -514l151 6q205 9 295 45l62 -37q-40 -147 -64 -307z" />
    <glyph glyph-name="fk" unicode="fk" horiz-adv-x="1482" 
d="M549 43q48 159 92 348l86 371h-283l-108 -686q-53 -341 -166 -475q-111 -138 -262 -138q-86 0 -140.5 40t-54.5 102q0 48 30 80t79 32q48 0 94 -61q46 -64 74 -64q18 0 31.5 13.5t30.5 68t32 152.5l135 936h-151v106l170 13q135 641 532 641q114 0 199 -54l145 72l39 -33
q-61 -187 -102 -354l-119 -479l8 -2q87 137 156 194.5t155 57.5q73 0 123.5 -51t50.5 -125q0 -94 -65.5 -156t-220.5 -105q22 -117 65 -231q40 -104 76 -104q35 0 94 157l56 -16q-40 -167 -95 -240t-127 -73q-45 0 -86 26t-69 66q-28 44 -49 100q-38 101 -68 227l25 88
q245 88 245 201q0 28 -16.5 47t-44.5 19q-66 0 -150 -90q-81 -90 -121 -267l-92 -393q-44 -20 -116 -20q-70 0 -117 59zM758 891l47 201q29 119 29 184q0 61 -26 95t-71 34q-92 0 -159 -113q-68 -116 -113 -405q12 0 48 0.5t106 1.5t139 2z" />
    <glyph glyph-name="fadieresis" unicode="f&#xe4;" horiz-adv-x="1626" 
d="M674 762h-230l-98 -627q-105 -672 -452 -672q-83 0 -132 39.5t-49 102.5q0 50 28 81t77 31q54 0 98 -77q25 -48 59 -48q72 0 113 263l133 907h-153v106l172 9q28 170 61 301q45 170 128.5 257t213.5 87q85 0 144 -51.5t59 -116.5q0 -45 -29 -78t-72 -33q-71 0 -112 86
q-26 49 -39 59q-12 10 -33 13q-76 0 -76 -166q0 -152 -20 -348l219 8l16 -35zM891 256q0 -106 67 -106q45 0 109 77t133 224q52 116 70 206q-30 82 -101 82q-108 0 -190 -143q-88 -152 -88 -340zM1391 240q-2 -16 -3.5 -30.5t-2.5 -20.5t-1 -7q0 -30 25 -30q46 0 164 157
l47 -37q-103 -162 -175.5 -227t-146.5 -65q-60 0 -94.5 37.5t-34.5 99.5q0 81 19 159l-6 7q-164 -320 -336 -320q-81 0 -126.5 55.5t-45.5 149.5q0 228 196 500q98 132 200 198t187 66q45 0 68 -10q15 -6 18 -9q3 -1 19.5 -14.5t17.5 -13.5l60 80q52 -12 119 -52
q-80 -263 -109 -391q-48 -198 -59 -282zM979 1333q0 57 39.5 96t99.5 39q57 0 97 -39t40 -96t-40 -98t-97 -41q-60 0 -99.5 39.5t-39.5 99.5zM1333 1333q0 57 39 96t96 39q60 0 101 -39t41 -96q0 -60 -41 -99.5t-101 -39.5q-57 0 -96 39.5t-39 99.5z" />
    <glyph glyph-name="fatilde" unicode="f&#xe3;" horiz-adv-x="1634" 
d="M674 762h-230l-98 -627q-105 -672 -452 -672q-83 0 -132 39.5t-49 102.5q0 50 28 81t77 31q54 0 98 -77q25 -48 59 -48q72 0 113 263l133 907h-153v106l172 9q28 170 61 301q45 170 128.5 257t213.5 87q85 0 144 -51.5t59 -116.5q0 -45 -29 -78t-72 -33q-71 0 -112 86
q-26 49 -39 59q-12 10 -33 13q-76 0 -76 -166q0 -152 -20 -348l219 8l16 -35zM891 256q0 -106 67 -106q45 0 109 77t133 224q52 116 70 206q-30 82 -101 82q-108 0 -190 -143q-88 -152 -88 -340zM1391 240q-2 -16 -3.5 -30.5t-2.5 -20.5t-1 -7q0 -30 25 -30q46 0 164 157
l47 -37q-103 -162 -175.5 -227t-146.5 -65q-60 0 -94.5 37.5t-34.5 99.5q0 81 19 159l-6 7q-164 -320 -336 -320q-81 0 -126.5 55.5t-45.5 149.5q0 228 196 500q98 132 200 198t187 66q45 0 68 -10q15 -6 18 -9q3 -1 19.5 -14.5t17.5 -13.5l60 80q52 -12 119 -52
q-80 -263 -109 -391q-48 -198 -59 -282zM1583 1421l45 -30q-29 -85 -93 -139t-134 -54q-67 0 -137 43t-117 43q-68 0 -143 -63l-46 30q29 85 93.5 139t134.5 54q67 0 137 -43t117 -43q68 0 143 63z" />
    <glyph glyph-name="fegrave" unicode="f&#xe8;" horiz-adv-x="1417" 
d="M674 762h-230l-98 -627q-105 -672 -452 -672q-83 0 -132 39.5t-49 102.5q0 50 28 81t77 31q54 0 98 -77q25 -48 59 -48q72 0 113 263l133 907h-153v106l172 9q28 170 61 301q45 170 128.5 257t213.5 87q85 0 144 -51.5t59 -116.5q0 -45 -29 -78t-72 -33q-71 0 -112 86
q-26 49 -39 59q-12 10 -33 13q-76 0 -76 -166q0 -152 -20 -348l219 8l16 -35zM1221 928q79 0 134.5 -52t55.5 -126q0 -252 -489 -340q-13 -50 -13 -111q0 -129 105 -129q58 5 108.5 42t120.5 132l60 -33q-79 -169 -163.5 -256.5t-199.5 -87.5q-117 0 -185.5 78t-68.5 209
q0 241 184 465q176 209 351 209zM1143 786q-59 0 -117 -78t-92 -223q270 83 270 232q0 69 -61 69zM1292 1380v-32l-10 -361l-76 -12l-127 315q-26 65 -26 117q0 57 33.5 93t87.5 36q55 0 86.5 -41t31.5 -115z" />
    <glyph glyph-name="fecircumflex" unicode="f&#xea;" horiz-adv-x="1417" 
d="M674 762h-230l-98 -627q-105 -672 -452 -672q-83 0 -132 39.5t-49 102.5q0 50 28 81t77 31q54 0 98 -77q25 -48 59 -48q72 0 113 263l133 907h-153v106l172 9q28 170 61 301q45 170 128.5 257t213.5 87q85 0 144 -51.5t59 -116.5q0 -45 -29 -78t-72 -33q-71 0 -112 86
q-26 49 -39 59q-12 10 -33 13q-76 0 -76 -166q0 -152 -20 -348l219 8l16 -35zM1221 928q79 0 134.5 -52t55.5 -126q0 -252 -489 -340q-13 -50 -13 -111q0 -129 105 -129q58 5 108.5 42t120.5 132l60 -33q-79 -169 -163.5 -256.5t-199.5 -87.5q-117 0 -185.5 78t-68.5 209
q0 241 184 465q176 209 351 209zM1143 786q-59 0 -117 -78t-92 -223q270 83 270 232q0 69 -61 69zM1008 1016l-62 55l295 404q40 55 82 55q45 0 57 -55l99 -437l-78 -24l-127 239z" />
    <glyph glyph-name="fedieresis" unicode="f&#xeb;" horiz-adv-x="1417" 
d="M674 762h-230l-98 -627q-105 -672 -452 -672q-83 0 -132 39.5t-49 102.5q0 50 28 81t77 31q54 0 98 -77q25 -48 59 -48q72 0 113 263l133 907h-153v106l172 9q28 170 61 301q45 170 128.5 257t213.5 87q85 0 144 -51.5t59 -116.5q0 -45 -29 -78t-72 -33q-71 0 -112 86
q-26 49 -39 59q-12 10 -33 13q-76 0 -76 -166q0 -152 -20 -348l219 8l16 -35zM1221 928q79 0 134.5 -52t55.5 -126q0 -252 -489 -340q-13 -50 -13 -111q0 -129 105 -129q58 5 108.5 42t120.5 132l60 -33q-79 -169 -163.5 -256.5t-199.5 -87.5q-117 0 -185.5 78t-68.5 209
q0 241 184 465q176 209 351 209zM1143 786q-59 0 -117 -78t-92 -223q270 83 270 232q0 69 -61 69zM922 1333q0 57 39.5 96t99.5 39q57 0 97 -39t40 -96t-40 -98t-97 -41q-60 0 -99.5 39.5t-39.5 99.5zM1276 1333q0 57 39 96t96 39q60 0 100.5 -39t40.5 -96
q0 -60 -40.5 -99.5t-100.5 -39.5q-57 0 -96 39.5t-39 99.5z" />
    <glyph glyph-name="fiacute" unicode="f&#xed;" horiz-adv-x="1058" 
d="M465 887l135 6q233 9 320 45l61 -37q-80 -289 -84 -307l-88 -381q-6 -24 -6 -45q0 -27 22 -27q51 0 166 158l47 -37q-80 -145 -167.5 -213.5t-165.5 -68.5q-56 0 -95 35.5t-39 88.5q0 52 31 195l70 309q16 75 16 103q0 51 -108 51h-136l-108 -686q-95 -613 -428 -613
q-86 0 -140.5 40t-54.5 102q0 48 30 80t79 32q62 0 106 -77q25 -48 62 -48q18 0 31.5 13.5t30.5 68t32 152.5l135 936h-151v106l170 13q26 183 59 297q99 344 346 344q85 0 144 -51.5t59 -116.5q0 -45 -29 -78t-72 -33q-71 0 -112 86q-26 49 -39 59q-12 10 -33 13
q-76 0 -76 -166q0 -152 -20 -348zM840 975l-64 43l160 381q58 137 156 137q50 0 81 -32.5t31 -82.5q0 -70 -88 -161z" />
    <glyph glyph-name="ficircumflex" unicode="f&#xee;" horiz-adv-x="1218" 
d="M674 762h-230l-98 -627q-105 -672 -452 -672q-83 0 -132 39.5t-49 102.5q0 50 28 81t77 31q54 0 98 -77q25 -48 59 -48q72 0 113 263l133 907h-153v106l172 9q28 170 61 301q45 170 128.5 257t213.5 87q85 0 144 -51.5t59 -116.5q0 -45 -29 -78t-72 -33q-71 0 -112 86
q-26 49 -39 59q-12 10 -33 13q-76 0 -76 -166q0 -152 -20 -348l219 8l16 -35zM758 299l114 309q33 85 33 105q0 24 -22 24q-39 0 -146 -110l-41 37q178 260 318 260q57 0 90 -37t33 -99q0 -55 -41 -167l-146 -408q-14 -41 -14 -53q0 -19 20 -19q47 0 162 158l47 -37
q-156 -282 -327 -282q-56 0 -92.5 38t-36.5 93q0 57 49 188zM842 1016l-62 55l295 404q40 55 82 55q45 0 57 -55l99 -437l-78 -24l-127 239z" />
    <glyph glyph-name="fidieresis" unicode="f&#xef;" horiz-adv-x="1259" 
d="M674 762h-230l-98 -627q-105 -672 -452 -672q-83 0 -132 39.5t-49 102.5q0 50 28 81t77 31q54 0 98 -77q25 -48 59 -48q72 0 113 263l133 907h-153v106l172 9q28 170 61 301q45 170 128.5 257t213.5 87q85 0 144 -51.5t59 -116.5q0 -45 -29 -78t-72 -33q-71 0 -112 86
q-26 49 -39 59q-12 10 -33 13q-76 0 -76 -166q0 -152 -20 -348l219 8l16 -35zM799 299l114 309q33 85 33 105q0 24 -22 24q-39 0 -146 -110l-41 37q178 260 318 260q57 0 90 -37t33 -99q0 -55 -41 -167l-146 -408q-14 -41 -14 -53q0 -19 20 -19q47 0 162 158l47 -37
q-156 -282 -327 -282q-56 0 -92.5 38t-36.5 93q0 57 49 188zM834 1190q0 57 39.5 96t99.5 39q57 0 97 -39t40 -96t-40 -98t-97 -41q-60 0 -99.5 39.5t-39.5 99.5zM1188 1190q0 57 39 96t96 39q60 0 100.5 -39t40.5 -96q0 -60 -40.5 -99.5t-100.5 -39.5q-57 0 -96 39.5
t-39 99.5z" />
    <glyph glyph-name="fntilde" unicode="f&#xf1;" horiz-adv-x="1683" 
d="M674 762h-230l-98 -627q-105 -672 -452 -672q-83 0 -132 39.5t-49 102.5q0 50 28 81t77 31q54 0 98 -77q25 -48 59 -48q72 0 113 263l133 907h-153v106l172 9q28 170 61 301q45 170 128.5 257t213.5 87q85 0 144 -51.5t59 -116.5q0 -45 -29 -78t-72 -33q-71 0 -112 86
q-26 49 -39 59q-12 10 -33 13q-76 0 -76 -166q0 -152 -20 -348l219 8l16 -35zM1270 733q-68 0 -139 -88.5t-107 -245.5l-94 -395q-44 -20 -117 -20q-72 0 -119 59q64 212 99 350l61 256q12 47 12 76q0 23 -20 23q-45 0 -127 -107l-47 37q159 246 282 246q56 0 90.5 -38.5
t34.5 -103.5q0 -51 -28 -149l6 -2q94 175 170 233q78 60 164 60q69 0 113 -50.5t44 -128.5q0 -65 -28 -157l-125 -391q-4 -16 -4 -27q0 -18 18 -18q51 0 164 143l47 -37q-175 -278 -332 -278q-53 0 -92 40t-39 89q0 62 41 190l100 313q15 47 15 76q0 45 -43 45zM1604 1421
l45 -30q-29 -85 -93.5 -139t-134.5 -54q-67 0 -137 43t-117 43q-68 0 -143 -63l-45 30q29 85 93 139t134 54q67 0 137 -43t117 -43q69 0 144 63z" />
    <glyph glyph-name="focircumflex" unicode="f&#xf4;" horiz-adv-x="1570" 
d="M674 762h-230l-98 -627q-105 -672 -452 -672q-83 0 -132 39.5t-49 102.5q0 50 28 81t77 31q54 0 98 -77q25 -48 59 -48q72 0 113 263l133 907h-153v106l172 9q28 170 61 301q45 170 128.5 257t213.5 87q85 0 144 -51.5t59 -116.5q0 -45 -29 -78t-72 -33q-71 0 -112 86
q-26 49 -39 59q-12 10 -33 13q-76 0 -76 -166q0 -152 -20 -348l219 8l16 -35zM1503 514q0 -329 -239 -487q-92 -62 -217 -62q-133 0 -213 74q-132 117 -132 334q0 155 63.5 278t176.5 203q101 70 217 70q126 0 215 -80q129 -117 129 -330zM973 119q27 -47 78 -47q52 0 92 43
q56 63 91.5 178t35.5 258q0 153 -39 215q-26 47 -77.5 47t-92.5 -43q-52 -58 -90 -174q-37 -112 -37 -262t39 -215zM1026 1016l-61 55l295 404q40 55 81 55q46 0 58 -55l98 -437l-78 -24l-127 239z" />
    <glyph glyph-name="fodieresis" unicode="f&#xf6;" horiz-adv-x="1570" 
d="M674 762h-230l-98 -627q-105 -672 -452 -672q-83 0 -132 39.5t-49 102.5q0 50 28 81t77 31q54 0 98 -77q25 -48 59 -48q72 0 113 263l133 907h-153v106l172 9q28 170 61 301q45 170 128.5 257t213.5 87q85 0 144 -51.5t59 -116.5q0 -45 -29 -78t-72 -33q-71 0 -112 86
q-26 49 -39 59q-12 10 -33 13q-76 0 -76 -166q0 -152 -20 -348l219 8l16 -35zM1503 514q0 -329 -239 -487q-92 -62 -217 -62q-133 0 -213 74q-132 117 -132 334q0 155 63.5 278t176.5 203q101 70 217 70q126 0 215 -80q129 -117 129 -330zM973 119q27 -47 78 -47q52 0 92 43
q56 63 91.5 178t35.5 258q0 153 -39 215q-26 47 -77.5 47t-92.5 -43q-52 -58 -90 -174q-37 -112 -37 -262t39 -215zM944 1333q0 57 39.5 96t99.5 39q57 0 97.5 -39t40.5 -96t-40.5 -98t-97.5 -41q-60 0 -99.5 39.5t-39.5 99.5zM1298 1333q0 57 39.5 96t96.5 39
q60 0 100.5 -39t40.5 -96q0 -60 -40.5 -99.5t-100.5 -39.5q-57 0 -96.5 39.5t-39.5 99.5z" />
    <glyph glyph-name="fotilde" unicode="f&#xf5;" horiz-adv-x="1570" 
d="M674 762h-230l-98 -627q-105 -672 -452 -672q-83 0 -132 39.5t-49 102.5q0 50 28 81t77 31q54 0 98 -77q25 -48 59 -48q72 0 113 263l133 907h-153v106l172 9q28 170 61 301q45 170 128.5 257t213.5 87q85 0 144 -51.5t59 -116.5q0 -45 -29 -78t-72 -33q-71 0 -112 86
q-26 49 -39 59q-12 10 -33 13q-76 0 -76 -166q0 -152 -20 -348l219 8l16 -35zM1503 514q0 -329 -239 -487q-92 -62 -217 -62q-133 0 -213 74q-132 117 -132 334q0 155 63.5 278t176.5 203q101 70 217 70q126 0 215 -80q129 -117 129 -330zM973 119q27 -47 78 -47q52 0 92 43
q56 63 91.5 178t35.5 258q0 153 -39 215q-26 47 -77.5 47t-92.5 -43q-52 -58 -90 -174q-37 -112 -37 -262t39 -215zM1559 1421l45 -30q-29 -85 -93.5 -139t-134.5 -54q-67 0 -137 43t-117 43q-68 0 -143 -63l-45 30q29 85 93 139t134 54q67 0 137 -43t117 -43q69 0 144 63z
" />
    <glyph glyph-name="fudieresis" unicode="f&#xfc;" horiz-adv-x="1675" 
d="M674 762h-230l-98 -627q-105 -672 -452 -672q-83 0 -132 39.5t-49 102.5q0 50 28 81t77 31q54 0 98 -77q25 -48 59 -48q72 0 113 263l133 907h-153v106l172 9q28 170 61 301q45 170 128.5 257t213.5 87q85 0 144 -51.5t59 -116.5q0 -45 -29 -78t-72 -33q-71 0 -112 86
q-26 49 -39 59q-12 10 -33 13q-76 0 -76 -166q0 -152 -20 -348l219 8l16 -35zM1274 422l-8 4q-118 -269 -203 -360q-80 -86 -189 -86q-68 0 -111.5 43t-43.5 110q0 76 49 201l117 303q22 61 22 82q0 33 -28 33q-45 0 -154 -136l-47 37q106 153 178 213q70 58 141 58
q61 0 98.5 -39.5t37.5 -106.5q0 -65 -43 -178l-123 -328q-15 -40 -15 -63q0 -39 41 -39q142 0 379 655l25 68q43 16 86 16q80 0 127 -80q-96 -268 -107 -309q-63 -213 -76 -295q-4 -28 -4 -43q0 -26 23 -26q43 0 158 133l43 -37q-175 -272 -310 -272q-60 0 -95.5 37.5
t-35.5 103.5q0 100 68 301zM1018 1333q0 57 39.5 96t99.5 39q57 0 97 -39t40 -96t-40 -98t-97 -41q-60 0 -99.5 39.5t-39.5 99.5zM1372 1333q0 57 39 96t96 39q60 0 101 -39t41 -96q0 -60 -41 -99.5t-101 -39.5q-57 0 -96 39.5t-39 99.5z" />
    <glyph glyph-name="fydieresis" unicode="f&#xff;" horiz-adv-x="1601" 
d="M674 762h-230l-98 -627q-105 -672 -452 -672q-83 0 -132 39.5t-49 102.5q0 50 28 81t77 31q54 0 98 -77q25 -48 59 -48q72 0 113 263l133 907h-153v106l172 9q28 170 61 301q45 170 128.5 257t213.5 87q85 0 144 -51.5t59 -116.5q0 -45 -29 -78t-72 -33q-71 0 -112 86
q-26 49 -39 59q-12 10 -33 13q-76 0 -76 -166q0 -152 -20 -348l219 8l16 -35zM1171 -23l11 -2q172 383 172 799q0 66 -13 133q29 29 89 29q36 0 71 -12q10 -33 10 -99q0 -449 -219 -848q-137 -250 -348 -405q-186 -137 -424 -137q-71 0 -114.5 30t-43.5 78t33 80.5t86 32.5
q48 0 113 -33q68 -35 111 -35q119 0 202 121q84 122 84 311q0 368 -102 658q-20 57 -45 57q-54 0 -125 -203l-60 17q89 375 261 375q125 0 184 -170q82 -224 82 -598q0 -49 -8 -109q-2 -18 -3.5 -35.5t-2.5 -25.5t-1 -9zM907 1333q0 57 40 96t100 39q57 0 97 -39t40 -96
t-40 -98t-97 -41q-60 0 -100 39.5t-40 99.5zM1262 1333q0 57 39 96t96 39q60 0 100.5 -39t40.5 -96q0 -60 -40.5 -99.5t-100.5 -39.5q-57 0 -96 39.5t-39 99.5z" />
    <glyph glyph-name="flcaron" unicode="f&#x13e;" horiz-adv-x="1159" 
d="M1047 1153l-224 -924q-6 -30 -6 -39q0 -26 27 -26q60 0 192 170l47 -35q-193 -319 -385 -319q-53 0 -89 32t-36 86q0 52 37 203l109 461h-275l-108 -686q-95 -613 -428 -613q-86 0 -140.5 40t-54.5 102q0 48 30 80t79 32q62 0 106 -77q25 -48 62 -48q18 0 31.5 13.5
t30.5 68t32 152.5l135 936h-151v106l170 13q40 195 118 352q65 132 173.5 210.5t240.5 78.5q114 0 199 -54l137 72l39 -33q-48 -152 -98 -354zM465 887q55 0 127 2q28 1 63 1.5t58 1t37 1.5l61 258q23 104 23 137q0 54 -26.5 85.5t-70.5 31.5q-92 0 -159 -113
q-68 -116 -113 -405zM1348 1546q62 0 101.5 -49t39.5 -127q0 -112 -84 -197t-229 -114l-23 63q97 37 137.5 71t40.5 73q0 31 -37 55q-67 46 -67 111q0 48 34 81t87 33z" />
    <glyph glyph-name="fabreve" unicode="f&#x103;" horiz-adv-x="1626" 
d="M674 762h-230l-98 -627q-105 -672 -452 -672q-83 0 -132 39.5t-49 102.5q0 50 28 81t77 31q54 0 98 -77q25 -48 59 -48q72 0 113 263l133 907h-153v106l172 9q28 170 61 301q45 170 128.5 257t213.5 87q85 0 144 -51.5t59 -116.5q0 -45 -29 -78t-72 -33q-71 0 -112 86
q-26 49 -39 59q-12 10 -33 13q-76 0 -76 -166q0 -152 -20 -348l219 8l16 -35zM891 256q0 -106 67 -106q45 0 109 77t133 224q52 116 70 206q-30 82 -101 82q-108 0 -190 -143q-88 -152 -88 -340zM1391 240q-2 -16 -3.5 -30.5t-2.5 -20.5t-1 -7q0 -30 25 -30q46 0 164 157
l47 -37q-103 -162 -175.5 -227t-146.5 -65q-60 0 -94.5 37.5t-34.5 99.5q0 81 19 159l-6 7q-164 -320 -336 -320q-81 0 -126.5 55.5t-45.5 149.5q0 228 196 500q98 132 200 198t187 66q45 0 68 -10q15 -6 18 -9q3 -1 19.5 -14.5t17.5 -13.5l60 80q52 -12 119 -52
q-80 -263 -109 -391q-48 -198 -59 -282zM1280 1065q-106 0 -165.5 73.5t-59.5 204.5q0 81 14 166h88v-36q0 -115 31 -163t96 -48q158 0 252 249l86 -18q-41 -210 -133 -319t-209 -109z" />
    <glyph glyph-name="flacute" unicode="f&#x13a;" horiz-adv-x="1097" 
d="M1047 1153l-224 -924q-6 -30 -6 -39q0 -26 27 -26q60 0 192 170l47 -35q-193 -319 -385 -319q-53 0 -89 32t-36 86q0 52 37 203l109 461h-275l-108 -686q-95 -613 -428 -613q-86 0 -140.5 40t-54.5 102q0 48 30 80t79 32q62 0 106 -77q25 -48 62 -48q18 0 31.5 13.5
t30.5 68t32 152.5l135 936h-151v106l170 13q40 195 118 352q65 132 173.5 210.5t240.5 78.5q114 0 199 -54l137 72l39 -33q-48 -152 -98 -354zM465 887q55 0 127 2q28 1 63 1.5t58 1t37 1.5l61 258q23 104 23 137q0 54 -26.5 85.5t-70.5 31.5q-92 0 -159 -113
q-68 -116 -113 -405zM1157 1628l-360 -69l-23 67l289 184q80 50 133 50q45 0 77 -28.5t32 -72.5q0 -104 -148 -131z" />
    <glyph glyph-name="fccaron" unicode="f&#x10d;" horiz-adv-x="1398" 
d="M674 762h-230l-98 -627q-105 -672 -452 -672q-83 0 -132 39.5t-49 102.5q0 50 28 81t77 31q54 0 98 -77q25 -48 59 -48q72 0 113 263l133 907h-153v106l172 9q28 170 61 301q45 170 128.5 257t213.5 87q85 0 144 -51.5t59 -116.5q0 -45 -29 -78t-72 -33q-71 0 -112 86
q-26 49 -39 59q-12 10 -33 13q-76 0 -76 -166q0 -152 -20 -348l219 8l16 -35zM1305 627q-81 0 -105 86q-21 73 -65 73q-56 0 -107.5 -62t-87.5 -181q-33 -106 -33 -240q0 -67 28.5 -103t78.5 -36q115 0 231 180l60 -35q-58 -133 -134 -229q-90 -117 -239 -117
q-112 0 -177 74.5t-65 202.5q0 274 180 493q163 199 334 199q86 0 142.5 -51.5t56.5 -132.5q0 -50 -28 -85t-70 -36zM1544 1528l62 -55l-295 -404q-40 -55 -82 -55q-46 0 -58 55l-98 436l78 25l127 -240z" />
    <glyph glyph-name="fecaron" unicode="f&#x11b;" horiz-adv-x="1417" 
d="M674 762h-230l-98 -627q-105 -672 -452 -672q-83 0 -132 39.5t-49 102.5q0 50 28 81t77 31q54 0 98 -77q25 -48 59 -48q72 0 113 263l133 907h-153v106l172 9q28 170 61 301q45 170 128.5 257t213.5 87q85 0 144 -51.5t59 -116.5q0 -45 -29 -78t-72 -33q-71 0 -112 86
q-26 49 -39 59q-12 10 -33 13q-76 0 -76 -166q0 -152 -20 -348l219 8l16 -35zM1221 928q79 0 134.5 -52t55.5 -126q0 -252 -489 -340q-13 -50 -13 -111q0 -129 105 -129q58 5 108.5 42t120.5 132l60 -33q-79 -169 -163.5 -256.5t-199.5 -87.5q-117 0 -185.5 78t-68.5 209
q0 241 184 465q176 209 351 209zM1143 786q-59 0 -117 -78t-92 -223q270 83 270 232q0 69 -61 69zM1532 1528l61 -55l-295 -404q-40 -55 -81 -55q-46 0 -58 55l-98 436l78 25l127 -240z" />
    <glyph glyph-name="fohungarumlaut" unicode="f&#x151;" horiz-adv-x="1570" 
d="M674 762h-230l-98 -627q-105 -672 -452 -672q-83 0 -132 39.5t-49 102.5q0 50 28 81t77 31q54 0 98 -77q25 -48 59 -48q72 0 113 263l133 907h-153v106l172 9q28 170 61 301q45 170 128.5 257t213.5 87q85 0 144 -51.5t59 -116.5q0 -45 -29 -78t-72 -33q-71 0 -112 86
q-26 49 -39 59q-12 10 -33 13q-76 0 -76 -166q0 -152 -20 -348l219 8l16 -35zM1503 514q0 -329 -239 -487q-92 -62 -217 -62q-133 0 -213 74q-132 117 -132 334q0 155 63.5 278t176.5 203q101 70 217 70q126 0 215 -80q129 -117 129 -330zM973 119q27 -47 78 -47q52 0 92 43
q56 63 91.5 178t35.5 258q0 153 -39 215q-26 47 -77.5 47t-92.5 -43q-52 -58 -90 -174q-37 -112 -37 -262t39 -215zM1008 997l-58 43l152 363q59 133 141 133q47 0 76 -33t29 -78q0 -61 -70 -137zM1313 997l-58 43l152 363q59 133 141 133q47 0 76 -33t29 -78
q0 -61 -70 -137z" />
    <glyph glyph-name="frcaron" unicode="f&#x159;" horiz-adv-x="1437" 
d="M674 762h-230l-98 -627q-105 -672 -452 -672q-83 0 -132 39.5t-49 102.5q0 50 28 81t77 31q54 0 98 -77q25 -48 59 -48q72 0 113 263l133 907h-153v106l172 9q28 170 61 301q45 170 128.5 257t213.5 87q85 0 144 -51.5t59 -116.5q0 -45 -29 -78t-72 -33q-71 0 -112 86
q-26 49 -39 59q-12 10 -33 13q-76 0 -76 -166q0 -152 -20 -348l219 8l16 -35zM1341 633q-49 0 -86 49q-28 40 -51 40.5t-51 -32.5q-33 -36 -75 -152t-72 -276l-50 -258q-44 -20 -116 -20t-119 59q36 132 80 350l51 256q8 36 8 68q0 31 -20 31q-45 0 -127 -107l-47 37
q159 246 282 246q56 0 90.5 -38.5t34.5 -103.5q0 -54 -33 -180l7 -2q64 174 126.5 249t133.5 75q61 0 100 -43.5t39 -112.5q0 -62 -30 -98.5t-75 -36.5zM1442 1528l61 -55l-295 -404q-40 -55 -82 -55q-45 0 -57 55l-98 436l78 25l127 -240z" />
    <glyph glyph-name="furing" unicode="f&#x16f;" horiz-adv-x="1675" 
d="M674 762h-230l-98 -627q-105 -672 -452 -672q-83 0 -132 39.5t-49 102.5q0 50 28 81t77 31q54 0 98 -77q25 -48 59 -48q72 0 113 263l133 907h-153v106l172 9q28 170 61 301q45 170 128.5 257t213.5 87q85 0 144 -51.5t59 -116.5q0 -45 -29 -78t-72 -33q-71 0 -112 86
q-26 49 -39 59q-12 10 -33 13q-76 0 -76 -166q0 -152 -20 -348l219 8l16 -35zM1274 422l-8 4q-118 -269 -203 -360q-80 -86 -189 -86q-68 0 -111.5 43t-43.5 110q0 76 49 201l117 303q22 61 22 82q0 33 -28 33q-45 0 -154 -136l-47 37q106 153 178 213q70 58 141 58
q61 0 98.5 -39.5t37.5 -106.5q0 -65 -43 -178l-123 -328q-15 -40 -15 -63q0 -39 41 -39q142 0 379 655l25 68q43 16 86 16q80 0 127 -80q-96 -268 -107 -309q-63 -213 -76 -295q-4 -28 -4 -43q0 -26 23 -26q43 0 158 133l43 -37q-175 -272 -310 -272q-60 0 -95.5 37.5
t-35.5 103.5q0 100 68 301zM1315 1073q-102 0 -174 72q-70 70 -70 172q0 100 72 172q71 74 172 74t172 -74q74 -71 74 -172t-74 -172q-72 -72 -172 -72zM1212 1315q0 -43 29.5 -74t71.5 -31q44 0 74 31t30 74q0 45 -30 76.5t-74 31.5q-42 0 -71.5 -31.5t-29.5 -76.5z" />
    <glyph glyph-name="famacron" unicode="f&#x101;" horiz-adv-x="1626" 
d="M674 762h-230l-98 -627q-105 -672 -452 -672q-83 0 -132 39.5t-49 102.5q0 50 28 81t77 31q54 0 98 -77q25 -48 59 -48q72 0 113 263l133 907h-153v106l172 9q28 170 61 301q45 170 128.5 257t213.5 87q85 0 144 -51.5t59 -116.5q0 -45 -29 -78t-72 -33q-71 0 -112 86
q-26 49 -39 59q-12 10 -33 13q-76 0 -76 -166q0 -152 -20 -348l219 8l16 -35zM891 256q0 -106 67 -106q45 0 109 77t133 224q52 116 70 206q-30 82 -101 82q-108 0 -190 -143q-88 -152 -88 -340zM1391 240q-2 -16 -3.5 -30.5t-2.5 -20.5t-1 -7q0 -30 25 -30q46 0 164 157
l47 -37q-103 -162 -175.5 -227t-146.5 -65q-60 0 -94.5 37.5t-34.5 99.5q0 81 19 159l-6 7q-164 -320 -336 -320q-81 0 -126.5 55.5t-45.5 149.5q0 228 196 500q98 132 200 198t187 66q45 0 68 -10q15 -6 18 -9q3 -1 19.5 -14.5t17.5 -13.5l60 80q52 -12 119 -52
q-80 -263 -109 -391q-48 -198 -59 -282zM1559 1243h-553l24 152h553z" />
    <glyph glyph-name="femacron" unicode="f&#x113;" horiz-adv-x="1417" 
d="M674 762h-230l-98 -627q-105 -672 -452 -672q-83 0 -132 39.5t-49 102.5q0 50 28 81t77 31q54 0 98 -77q25 -48 59 -48q72 0 113 263l133 907h-153v106l172 9q28 170 61 301q45 170 128.5 257t213.5 87q85 0 144 -51.5t59 -116.5q0 -45 -29 -78t-72 -33q-71 0 -112 86
q-26 49 -39 59q-12 10 -33 13q-76 0 -76 -166q0 -152 -20 -348l219 8l16 -35zM1221 928q79 0 134.5 -52t55.5 -126q0 -252 -489 -340q-13 -50 -13 -111q0 -129 105 -129q58 5 108.5 42t120.5 132l60 -33q-79 -169 -163.5 -256.5t-199.5 -87.5q-117 0 -185.5 78t-68.5 209
q0 241 184 465q176 209 351 209zM1143 786q-59 0 -117 -78t-92 -223q270 83 270 232q0 69 -61 69zM1501 1243h-553l25 152h553z" />
    <glyph glyph-name="fedotaccent" unicode="f&#x117;" horiz-adv-x="1417" 
d="M674 762h-230l-98 -627q-105 -672 -452 -672q-83 0 -132 39.5t-49 102.5q0 50 28 81t77 31q54 0 98 -77q25 -48 59 -48q72 0 113 263l133 907h-153v106l172 9q28 170 61 301q45 170 128.5 257t213.5 87q85 0 144 -51.5t59 -116.5q0 -45 -29 -78t-72 -33q-71 0 -112 86
q-26 49 -39 59q-12 10 -33 13q-76 0 -76 -166q0 -152 -20 -348l219 8l16 -35zM1221 928q79 0 134.5 -52t55.5 -126q0 -252 -489 -340q-13 -50 -13 -111q0 -129 105 -129q58 5 108.5 42t120.5 132l60 -33q-79 -169 -163.5 -256.5t-199.5 -87.5q-117 0 -185.5 78t-68.5 209
q0 241 184 465q176 209 351 209zM1143 786q-59 0 -117 -78t-92 -223q270 83 270 232q0 69 -61 69zM1130 1241q-41 41 -41 106.5t41 106.5t106.5 41t106.5 -41t41 -106.5t-41 -106.5t-106.5 -41t-106.5 41z" />
    <glyph glyph-name="fgcommaaccent" unicode="f&#x123;" horiz-adv-x="1531" 
d="M1057 242q-115 0 -180 39q-15 -21 -15 -50q0 -51 105 -94l202 -82q222 -89 222 -280q0 -139 -117 -238q-115 -100 -324 -100q-197 0 -309.5 81t-112.5 208q0 189 232 278q-60 60 -60 137q0 92 115 187q-76 88 -76 192q0 160 113 279t270 119q122 0 232 -78q96 22 200 61
l31 -31v-114l-170 -11q23 -57 23 -127q0 -156 -109 -268q-108 -108 -272 -108zM1110 -166l-176 74q-92 39 -115 53q-104 -58 -104 -182q0 -87 84.5 -141t230.5 -54q100 0 151.5 33.5t51.5 89.5q0 77 -123 127zM961 518q0 -172 90 -172q72 0 116 92q45 91 45 201
q0 174 -86 174q-73 0 -120 -90q-45 -86 -45 -205zM1243 1028q-62 0 -101.5 49t-39.5 127q0 112 84.5 197.5t228.5 114.5l23 -64q-98 -37 -138 -70.5t-40 -72.5q0 -33 36 -56q68 -47 68 -110q0 -48 -34 -81.5t-87 -33.5zM674 762h-230l-98 -627q-105 -672 -452 -672
q-83 0 -132 39.5t-49 102.5q0 50 28 81t77 31q54 0 98 -77q25 -48 59 -48q72 0 113 263l133 907h-153v106l172 9q28 170 61 301q45 170 128.5 257t213.5 87q85 0 144 -51.5t59 -116.5q0 -45 -29 -78t-72 -33q-71 0 -112 86q-26 49 -39 59q-12 10 -33 13q-76 0 -76 -166
q0 -152 -20 -348l219 8l16 -35z" />
    <glyph glyph-name="fiogonek" unicode="f&#x12f;" horiz-adv-x="1058" 
d="M823 -199l49 -24q-65 -189 -231 -189q-71 0 -118.5 41.5t-47.5 102.5q0 142 203 250q-48 11 -77.5 43.5t-29.5 78.5q0 52 31 195l70 309q16 75 16 103q0 51 -108 51h-136l-108 -686q-95 -613 -428 -613q-86 0 -140.5 40t-54.5 102q0 48 30 80t79 32q62 0 106 -77
q25 -48 62 -48q18 0 31.5 13.5t30.5 68t32 152.5l135 936h-151v106l170 13q40 195 118 352q65 132 173.5 210.5t240.5 78.5q124 0 206.5 -58.5t82.5 -154.5q0 -56 -36 -92.5t-93 -36.5q-98 0 -139 133q-27 88 -86 88q-157 0 -240 -514l135 6q233 9 320 45l61 -37
q-80 -289 -84 -307l-88 -381q-6 -24 -6 -45q0 -27 22 -27q51 0 166 158l47 -37q-112 -205 -241 -262q-168 -107 -168 -225q0 -30 18.5 -49t52.5 -19q71 0 123 94z" />
    <glyph glyph-name="flcommaaccent" unicode="f&#x13c;" horiz-adv-x="1097" 
d="M1047 1153l-224 -924q-6 -30 -6 -39q0 -26 27 -26q60 0 192 170l47 -35q-193 -319 -385 -319q-53 0 -89 32t-36 86q0 52 37 203l109 461h-275l-108 -686q-95 -613 -428 -613q-86 0 -140.5 40t-54.5 102q0 48 30 80t79 32q62 0 106 -77q25 -48 62 -48q18 0 31.5 13.5
t30.5 68t32 152.5l135 936h-151v106l170 13q40 195 118 352q65 132 173.5 210.5t240.5 78.5q114 0 199 -54l137 72l39 -33q-48 -152 -98 -354zM465 887q55 0 127 2q28 1 63 1.5t58 1t37 1.5l61 258q23 104 23 137q0 54 -26.5 85.5t-70.5 31.5q-92 0 -159 -113
q-68 -116 -113 -405zM637 -74q62 0 101.5 -49t39.5 -127q0 -112 -84 -197t-229 -114l-23 63q98 37 138.5 71t40.5 73q0 31 -37 55q-68 47 -68 111q0 48 34 81t87 33z" />
    <glyph glyph-name="fimacron" unicode="f&#x12b;" horiz-adv-x="1218" 
d="M674 762h-230l-98 -627q-105 -672 -452 -672q-83 0 -132 39.5t-49 102.5q0 50 28 81t77 31q54 0 98 -77q25 -48 59 -48q72 0 113 263l133 907h-153v106l172 9q28 170 61 301q45 170 128.5 257t213.5 87q85 0 144 -51.5t59 -116.5q0 -45 -29 -78t-72 -33q-71 0 -112 86
q-26 49 -39 59q-12 10 -33 13q-76 0 -76 -166q0 -152 -20 -348l219 8l16 -35zM758 299l114 309q33 85 33 105q0 24 -22 24q-39 0 -146 -110l-41 37q178 260 318 260q57 0 90 -37t33 -99q0 -55 -41 -167l-146 -408q-14 -41 -14 -53q0 -19 20 -19q47 0 162 158l47 -37
q-156 -282 -327 -282q-56 0 -92.5 38t-36.5 93q0 57 49 188zM1372 1243h-471l25 152h471z" />
    <glyph glyph-name="fomacron" unicode="f&#x14d;" horiz-adv-x="1570" 
d="M674 762h-230l-98 -627q-105 -672 -452 -672q-83 0 -132 39.5t-49 102.5q0 50 28 81t77 31q54 0 98 -77q25 -48 59 -48q72 0 113 263l133 907h-153v106l172 9q28 170 61 301q45 170 128.5 257t213.5 87q85 0 144 -51.5t59 -116.5q0 -45 -29 -78t-72 -33q-71 0 -112 86
q-26 49 -39 59q-12 10 -33 13q-76 0 -76 -166q0 -152 -20 -348l219 8l16 -35zM1503 514q0 -329 -239 -487q-92 -62 -217 -62q-133 0 -213 74q-132 117 -132 334q0 155 63.5 278t176.5 203q101 70 217 70q126 0 215 -80q129 -117 129 -330zM973 119q27 -47 78 -47q52 0 92 43
q56 63 91.5 178t35.5 258q0 153 -39 215q-26 47 -77.5 47t-92.5 -43q-52 -58 -90 -174q-37 -112 -37 -262t39 -215zM1507 1243h-553l25 152h553z" />
    <glyph glyph-name="fumacron" unicode="f&#x16b;" horiz-adv-x="1675" 
d="M674 762h-230l-98 -627q-105 -672 -452 -672q-83 0 -132 39.5t-49 102.5q0 50 28 81t77 31q54 0 98 -77q25 -48 59 -48q72 0 113 263l133 907h-153v106l172 9q28 170 61 301q45 170 128.5 257t213.5 87q85 0 144 -51.5t59 -116.5q0 -45 -29 -78t-72 -33q-71 0 -112 86
q-26 49 -39 59q-12 10 -33 13q-76 0 -76 -166q0 -152 -20 -348l219 8l16 -35zM1274 422l-8 4q-118 -269 -203 -360q-80 -86 -189 -86q-68 0 -111.5 43t-43.5 110q0 76 49 201l117 303q22 61 22 82q0 33 -28 33q-45 0 -154 -136l-47 37q106 153 178 213q70 58 141 58
q61 0 98.5 -39.5t37.5 -106.5q0 -65 -43 -178l-123 -328q-15 -40 -15 -63q0 -39 41 -39q142 0 379 655l25 68q43 16 86 16q80 0 127 -80q-96 -268 -107 -309q-63 -213 -76 -295q-4 -28 -4 -43q0 -26 23 -26q43 0 158 133l43 -37q-175 -272 -310 -272q-60 0 -95.5 37.5
t-35.5 103.5q0 100 68 301zM1591 1243h-553l25 152h553z" />
    <glyph glyph-name="fkcommaaccent" unicode="f&#x137;" horiz-adv-x="1482" 
d="M549 43q48 159 92 348l86 371h-283l-108 -686q-53 -341 -166 -475q-111 -138 -262 -138q-86 0 -140.5 40t-54.5 102q0 48 30 80t79 32q48 0 94 -61q46 -64 74 -64q18 0 31.5 13.5t30.5 68t32 152.5l135 936h-151v106l170 13q135 641 532 641q114 0 199 -54l145 72l39 -33
q-61 -187 -102 -354l-119 -479l8 -2q87 137 156 194.5t155 57.5q73 0 123.5 -51t50.5 -125q0 -94 -65.5 -156t-220.5 -105q22 -117 65 -231q40 -104 76 -104q35 0 94 157l56 -16q-40 -167 -95 -240t-127 -73q-45 0 -86 26t-69 66q-28 44 -49 100q-38 101 -68 227l25 88
q245 88 245 201q0 28 -16.5 47t-44.5 19q-66 0 -150 -90q-81 -90 -121 -267l-92 -393q-44 -20 -116 -20q-70 0 -117 59zM758 891l47 201q29 119 29 184q0 61 -26 95t-71 34q-92 0 -159 -113q-68 -116 -113 -405q12 0 48 0.5t106 1.5t139 2zM907 -74q62 0 102 -49t40 -127
q0 -112 -84.5 -197t-229.5 -114l-22 63q97 37 137.5 71t40.5 73q0 31 -37 55q-68 47 -68 111q0 48 34 81t87 33z" />
    <glyph glyph-name="fgbreve" unicode="f&#x11f;" horiz-adv-x="1531" 
d="M674 762h-230l-98 -627q-105 -672 -452 -672q-83 0 -132 39.5t-49 102.5q0 50 28 81t77 31q54 0 98 -77q25 -48 59 -48q72 0 113 263l133 907h-153v106l172 9q28 170 61 301q45 170 128.5 257t213.5 87q85 0 144 -51.5t59 -116.5q0 -45 -29 -78t-72 -33q-71 0 -112 86
q-26 49 -39 59q-12 10 -33 13q-76 0 -76 -166q0 -152 -20 -348l219 8l16 -35zM1057 242q-115 0 -180 39q-15 -21 -15 -50q0 -51 105 -94l202 -82q222 -89 222 -280q0 -139 -117 -238q-115 -100 -324 -100q-197 0 -309.5 81t-112.5 208q0 189 232 278q-60 60 -60 137
q0 92 115 187q-76 88 -76 192q0 160 113 279t270 119q122 0 232 -78q96 22 200 61l31 -31v-114l-170 -11q23 -57 23 -127q0 -156 -109 -268q-108 -108 -272 -108zM1110 -166l-176 74q-92 39 -115 53q-104 -58 -104 -182q0 -87 84.5 -141t230.5 -54q100 0 151.5 33.5
t51.5 89.5q0 77 -123 127zM961 518q0 -172 90 -172q72 0 116 92q45 91 45 201q0 174 -86 174q-73 0 -120 -90q-45 -86 -45 -205zM1204 1065q-106 0 -165.5 73.5t-59.5 204.5q0 81 14 166h88v-36q0 -115 31 -163t96 -48q158 0 252 249l86 -18q-41 -210 -133 -319t-209 -109z
" />
    <glyph glyph-name="fgcircumflex" unicode="f&#x11d;" horiz-adv-x="1531" 
d="M674 762h-230l-98 -627q-105 -672 -452 -672q-83 0 -132 39.5t-49 102.5q0 50 28 81t77 31q54 0 98 -77q25 -48 59 -48q72 0 113 263l133 907h-153v106l172 9q28 170 61 301q45 170 128.5 257t213.5 87q85 0 144 -51.5t59 -116.5q0 -45 -29 -78t-72 -33q-71 0 -112 86
q-26 49 -39 59q-12 10 -33 13q-76 0 -76 -166q0 -152 -20 -348l219 8l16 -35zM1057 242q-115 0 -180 39q-15 -21 -15 -50q0 -51 105 -94l202 -82q222 -89 222 -280q0 -139 -117 -238q-115 -100 -324 -100q-197 0 -309.5 81t-112.5 208q0 189 232 278q-60 60 -60 137
q0 92 115 187q-76 88 -76 192q0 160 113 279t270 119q122 0 232 -78q96 22 200 61l31 -31v-114l-170 -11q23 -57 23 -127q0 -156 -109 -268q-108 -108 -272 -108zM1110 -166l-176 74q-92 39 -115 53q-104 -58 -104 -182q0 -87 84.5 -141t230.5 -54q100 0 151.5 33.5
t51.5 89.5q0 77 -123 127zM961 518q0 -172 90 -172q72 0 116 92q45 91 45 201q0 174 -86 174q-73 0 -120 -90q-45 -86 -45 -205zM995 1016l-61 55l295 404q40 55 82 55q45 0 57 -55l98 -437l-77 -24l-127 239z" />
    <glyph glyph-name="fgdotaccent" unicode="f&#x121;" horiz-adv-x="1531" 
d="M1057 242q-115 0 -180 39q-15 -21 -15 -50q0 -51 105 -94l202 -82q222 -89 222 -280q0 -139 -117 -238q-115 -100 -324 -100q-197 0 -309.5 81t-112.5 208q0 189 232 278q-60 60 -60 137q0 92 115 187q-76 88 -76 192q0 160 113 279t270 119q122 0 232 -78q96 22 200 61
l31 -31v-114l-170 -11q23 -57 23 -127q0 -156 -109 -268q-108 -108 -272 -108zM1110 -166l-176 74q-92 39 -115 53q-104 -58 -104 -182q0 -87 84.5 -141t230.5 -54q100 0 151.5 33.5t51.5 89.5q0 77 -123 127zM961 518q0 -172 90 -172q72 0 116 92q45 91 45 201
q0 174 -86 174q-73 0 -120 -90q-45 -86 -45 -205zM674 762h-230l-98 -627q-105 -672 -452 -672q-83 0 -132 39.5t-49 102.5q0 50 28 81t77 31q54 0 98 -77q25 -48 59 -48q72 0 113 263l133 907h-153v106l172 9q28 170 61 301q45 170 128.5 257t213.5 87q85 0 144 -51.5
t59 -116.5q0 -45 -29 -78t-72 -33q-71 0 -112 86q-26 49 -39 59q-12 10 -33 13q-76 0 -76 -166q0 -152 -20 -348l219 8l16 -35zM1120 1241q-41 41 -41 106.5t41 106.5q43 41 106.5 41t104.5 -41q43 -41 43 -106.5t-43 -106.5q-41 -41 -104.5 -41t-106.5 41z" />
    <glyph glyph-name="fhcircumflex" unicode="f&#x125;" horiz-adv-x="1501" 
d="M1051 1153l-127 -473l6 -2q84 142 151.5 194t155.5 52q69 0 113.5 -50.5t44.5 -128.5q0 -62 -29 -157l-125 -391q-4 -16 -4 -27q0 -18 18 -18q51 0 164 143l47 -37q-175 -278 -331 -278q-53 0 -92 40t-39 89q0 66 40 190l101 313q14 43 14 76q0 45 -43 45
q-68 0 -139 -88.5t-107 -245.5l-94 -395q-44 -20 -117 -20q-71 0 -118 59q77 261 98 350l88 369h-283l-108 -686q-95 -613 -428 -613q-86 0 -140.5 40t-54.5 102q0 48 30 80t79 32q62 0 106 -77q25 -48 62 -48q18 0 31.5 13.5t30.5 68t32 152.5l135 936h-151v106l170 13
q40 195 118 352q65 132 173.5 210.5t240.5 78.5q114 0 199 -54l145 72l39 -33q-48 -145 -102 -354zM465 887h61q136 4 232 4l47 201q29 126 29 184q0 61 -26 95t-71 34q-92 0 -159 -113q-68 -116 -113 -405zM702 1569l-36 71l288 193q71 47 103 47q27 0 43 -16l37 -31
l223 -199l-39 -69l-281 123z" />
    <glyph glyph-name="fhbar" unicode="f&#x127;" horiz-adv-x="1501" 
d="M1397 1204l-25 -139h-346l-102 -385l6 -2q84 142 151.5 194t155.5 52q69 0 113.5 -50.5t44.5 -128.5q0 -62 -29 -157l-125 -391q-4 -16 -4 -27q0 -18 18 -18q51 0 164 143l47 -37q-175 -278 -331 -278q-53 0 -92 40t-39 89q0 66 40 190l101 313q14 43 14 76q0 45 -43 45
q-68 0 -139 -88.5t-107 -245.5l-94 -395q-44 -20 -117 -20q-71 0 -118 59q77 261 98 350l88 369h-283l-108 -686q-95 -613 -428 -613q-86 0 -140.5 40t-54.5 102q0 48 30 80t79 32q62 0 106 -77q25 -48 62 -48q18 0 31.5 13.5t30.5 68t32 152.5l135 936h-151v106l170 13
q40 195 118 352q65 132 173.5 210.5t240.5 78.5q114 0 199 -54l145 72l39 -33q-49 -146 -90 -303h334zM465 887h61q136 4 232 4l41 174h-103l25 139h106q7 44 7 72q0 61 -26 95t-71 34q-92 0 -159 -113q-68 -116 -113 -405z" />
    <glyph glyph-name="fitilde" unicode="f&#x129;" horiz-adv-x="1218" 
d="M674 762h-230l-98 -627q-105 -672 -452 -672q-83 0 -132 39.5t-49 102.5q0 50 28 81t77 31q54 0 98 -77q25 -48 59 -48q72 0 113 263l133 907h-153v106l172 9q28 170 61 301q45 170 128.5 257t213.5 87q85 0 144 -51.5t59 -116.5q0 -45 -29 -78t-72 -33q-71 0 -112 86
q-26 49 -39 59q-12 10 -33 13q-76 0 -76 -166q0 -152 -20 -348l219 8l16 -35zM758 299l114 309q33 85 33 105q0 24 -22 24q-39 0 -146 -110l-41 37q178 260 318 260q57 0 90 -37t33 -99q0 -55 -41 -167l-146 -408q-14 -41 -14 -53q0 -19 20 -19q47 0 162 158l47 -37
q-156 -282 -327 -282q-56 0 -92.5 38t-36.5 93q0 57 49 188zM1417 1298l45 -30q-29 -85 -93 -139t-134 -54q-67 0 -137 43t-117 43q-68 0 -143 -63l-45 30q29 85 93 139t134 54q67 0 137 -43t117 -43q68 0 143 63z" />
    <glyph glyph-name="fibreve" unicode="f&#x12d;" horiz-adv-x="1239" 
d="M674 762h-230l-98 -627q-105 -672 -452 -672q-83 0 -132 39.5t-49 102.5q0 50 28 81t77 31q54 0 98 -77q25 -48 59 -48q72 0 113 263l133 907h-153v106l172 9q28 170 61 301q45 170 128.5 257t213.5 87q85 0 144 -51.5t59 -116.5q0 -45 -29 -78t-72 -33q-71 0 -112 86
q-26 49 -39 59q-12 10 -33 13q-76 0 -76 -166q0 -152 -20 -348l219 8l16 -35zM778 299l115 309q33 85 33 105q0 24 -23 24q-38 0 -145 -110l-41 37q178 260 317 260q57 0 90 -37t33 -99q0 -55 -41 -167l-145 -408q-15 -44 -15 -53q0 -19 21 -19q47 0 162 158l47 -37
q-156 -282 -328 -282q-56 0 -92.5 38t-36.5 93q0 57 49 188zM1110 1065q-106 0 -165.5 73.5t-59.5 204.5q0 81 14 166h88v-36q0 -115 31 -163t96 -48q158 0 252 249l86 -18q-41 -210 -133 -319t-209 -109z" />
    <glyph glyph-name="fij" unicode="f&#x133;" horiz-adv-x="1589" 
d="M580 762h-136l-108 -686q-95 -613 -428 -613q-86 0 -140.5 40t-54.5 102q0 48 30 80t79 32q62 0 106 -77q25 -48 62 -48q18 0 31.5 13.5t30.5 68t32 152.5l135 936h-151v106l170 13q40 195 118 352q65 132 173.5 210.5t240.5 78.5q124 0 206.5 -58.5t82.5 -154.5
q0 -56 -36 -92.5t-93 -36.5q-98 0 -139 133q-27 88 -86 88q-157 0 -240 -514l135 6q233 9 320 45l61 -37q-80 -289 -84 -307l-88 -381q-6 -24 -6 -45q0 -27 22 -27q51 0 166 158l47 -37q-80 -145 -167.5 -213.5t-165.5 -68.5q-56 0 -95 35.5t-39 88.5q0 52 31 195l70 309
q16 75 16 103q0 51 -108 51zM1335 1348q0 61 43 104t105 43q65 0 106 -41t41 -106.5t-41 -106.5t-106 -41q-66 0 -107 41t-41 107zM1491 606l-113 -456q-170 -687 -497 -687q-79 0 -125.5 36t-46.5 98q0 44 29.5 75t70.5 31q53 0 100 -68q30 -43 62 -43t57 46.5t55 171.5
l191 819q16 82 16 84q0 32 -26 32q-38 0 -125 -118l-49 30q150 267 280 267q68 0 107 -41.5t39 -118.5q0 -55 -25 -158z" />
    <glyph glyph-name="fjcircumflex" unicode="f&#x135;" horiz-adv-x="1198" 
d="M674 762h-230l-98 -627q-105 -672 -452 -672q-83 0 -132 39.5t-49 102.5q0 50 28 81t77 31q54 0 98 -77q25 -48 59 -48q72 0 113 263l133 907h-153v106l172 9q28 170 61 301q45 170 128.5 257t213.5 87q85 0 144 -51.5t59 -116.5q0 -45 -29 -78t-72 -33q-71 0 -112 86
q-26 49 -39 59q-12 10 -33 13q-76 0 -76 -166q0 -152 -20 -348l219 8l16 -35zM1100 606l-113 -456q-170 -687 -498 -687q-79 0 -125.5 36t-46.5 98q0 44 30 75t71 31q53 0 100 -68q30 -43 62 -43t57 46.5t55 171.5l191 819q16 82 16 84q0 32 -27 32q-37 0 -124 -118l-50 30
q150 267 281 267q68 0 106.5 -41.5t38.5 -118.5q0 -59 -24 -158zM811 1016l-61 55l294 404q40 55 82 55q46 0 58 -55l98 -437l-78 -24l-127 239z" />
    <glyph glyph-name="fldot" unicode="f&#x140;" horiz-adv-x="1357" 
d="M1047 1153l-224 -924q-6 -30 -6 -39q0 -26 27 -26q60 0 192 170l47 -35q-193 -319 -385 -319q-53 0 -89 32t-36 86q0 52 37 203l109 461h-275l-108 -686q-95 -613 -428 -613q-86 0 -140.5 40t-54.5 102q0 48 30 80t79 32q62 0 106 -77q25 -48 62 -48q18 0 31.5 13.5
t30.5 68t32 152.5l135 936h-151v106l170 13q40 195 118 352q65 132 173.5 210.5t240.5 78.5q114 0 199 -54l137 72l39 -33q-48 -152 -98 -354zM465 887q55 0 127 2q28 1 63 1.5t58 1t37 1.5l61 258q23 104 23 137q0 54 -26.5 85.5t-70.5 31.5q-92 0 -159 -113
q-68 -116 -113 -405zM1087 399q-41 43 -41 106.5t41 104.5q43 43 106.5 43t104.5 -43q43 -41 43 -104.5t-43 -106.5q-41 -41 -104.5 -41t-106.5 41z" />
    <glyph glyph-name="fnapostrophe" unicode="f&#x149;" horiz-adv-x="1654" 
d="M674 762h-230l-98 -627q-105 -672 -452 -672q-83 0 -132 39.5t-49 102.5q0 50 28 81t77 31q54 0 98 -77q25 -48 59 -48q72 0 113 263l133 907h-153v106l172 9q28 170 61 301q45 170 128.5 257t213.5 87q85 0 144 -51.5t59 -116.5q0 -45 -29 -78t-72 -33q-71 0 -112 86
q-26 49 -39 59q-12 10 -33 13q-76 0 -76 -166q0 -152 -20 -348l219 8l16 -35zM1270 733q-68 0 -139 -88.5t-107 -245.5l-94 -395q-44 -20 -117 -20q-72 0 -119 59q64 212 99 350l61 256q12 47 12 76q0 23 -20 23q-45 0 -127 -107l-47 37q159 246 282 246q56 0 90.5 -38.5
t34.5 -103.5q0 -51 -28 -149l6 -2q94 175 170 233q78 60 164 60q69 0 113 -50.5t44 -128.5q0 -65 -28 -157l-125 -391q-4 -16 -4 -27q0 -18 18 -18q51 0 164 143l47 -37q-175 -278 -332 -278q-53 0 -92 40t-39 89q0 62 41 190l100 313q15 47 15 76q0 45 -43 45zM1063 1589
q62 0 101.5 -49t39.5 -127q0 -112 -84 -197t-229 -114l-23 63q98 37 138.5 71t40.5 73q0 31 -37 55q-68 47 -68 111q0 48 34 81t87 33z" />
    <glyph glyph-name="fobreve" unicode="f&#x14f;" horiz-adv-x="1570" 
d="M674 762h-230l-98 -627q-105 -672 -452 -672q-83 0 -132 39.5t-49 102.5q0 50 28 81t77 31q54 0 98 -77q25 -48 59 -48q72 0 113 263l133 907h-153v106l172 9q28 170 61 301q45 170 128.5 257t213.5 87q85 0 144 -51.5t59 -116.5q0 -45 -29 -78t-72 -33q-71 0 -112 86
q-26 49 -39 59q-12 10 -33 13q-76 0 -76 -166q0 -152 -20 -348l219 8l16 -35zM1503 514q0 -329 -239 -487q-92 -62 -217 -62q-133 0 -213 74q-132 117 -132 334q0 155 63.5 278t176.5 203q101 70 217 70q126 0 215 -80q129 -117 129 -330zM973 119q27 -47 78 -47q52 0 92 43
q56 63 91.5 178t35.5 258q0 153 -39 215q-26 47 -77.5 47t-92.5 -43q-52 -58 -90 -174q-37 -112 -37 -262t39 -215zM1221 1065q-106 0 -166 74t-60 204q0 75 15 166h88v-36q0 -115 31 -163t96 -48q157 0 252 249l86 -18q-41 -210 -133 -319t-209 -109z" />
    <glyph glyph-name="fscircumflex" unicode="f&#x15d;" horiz-adv-x="1335" 
d="M674 762h-230l-98 -627q-105 -672 -452 -672q-83 0 -132 39.5t-49 102.5q0 50 28 81t77 31q54 0 98 -77q25 -48 59 -48q72 0 113 263l133 907h-153v106l172 9q28 170 61 301q45 170 128.5 257t213.5 87q85 0 144 -51.5t59 -116.5q0 -45 -29 -78t-72 -33q-71 0 -112 86
q-26 49 -39 59q-12 10 -33 13q-76 0 -76 -166q0 -152 -20 -348l219 8l16 -35zM1030 137q0 35 -24 78q-19 38 -113 174q-109 157 -109 262q0 120 79.5 197.5t211.5 77.5q105 0 176.5 -52.5t71.5 -130.5q0 -45 -26.5 -74.5t-67.5 -29.5q-85 0 -115 92q-27 86 -84 86
q-65 0 -65 -74q0 -65 116 -245q86 -135 103 -174q24 -52 24 -117q0 -107 -72 -174.5t-192 -67.5q-129 0 -209 61t-80 144q0 49 27.5 81t75.5 32q70 0 108 -109q11 -30 16.5 -41.5t16.5 -28t25.5 -23t36.5 -9.5q69 0 69 65zM934 1016l-62 55l295 404q40 55 82 55q46 0 58 -55
l98 -437l-78 -24l-127 239z" />
    <glyph glyph-name="futilde" unicode="f&#x169;" horiz-adv-x="1675" 
d="M674 762h-230l-98 -627q-105 -672 -452 -672q-83 0 -132 39.5t-49 102.5q0 50 28 81t77 31q54 0 98 -77q25 -48 59 -48q72 0 113 263l133 907h-153v106l172 9q28 170 61 301q45 170 128.5 257t213.5 87q85 0 144 -51.5t59 -116.5q0 -45 -29 -78t-72 -33q-71 0 -112 86
q-26 49 -39 59q-12 10 -33 13q-76 0 -76 -166q0 -152 -20 -348l219 8l16 -35zM1274 422l-8 4q-118 -269 -203 -360q-80 -86 -189 -86q-68 0 -111.5 43t-43.5 110q0 76 49 201l117 303q22 61 22 82q0 33 -28 33q-45 0 -154 -136l-47 37q106 153 178 213q70 58 141 58
q61 0 98.5 -39.5t37.5 -106.5q0 -65 -43 -178l-123 -328q-15 -40 -15 -63q0 -39 41 -39q142 0 379 655l25 68q43 16 86 16q80 0 127 -80q-96 -268 -107 -309q-63 -213 -76 -295q-4 -28 -4 -43q0 -26 23 -26q43 0 158 133l43 -37q-175 -272 -310 -272q-60 0 -95.5 37.5
t-35.5 103.5q0 100 68 301zM1618 1421l45 -30q-29 -85 -93 -139t-134 -54q-68 0 -138 43t-116 43q-69 0 -144 -63l-45 30q29 85 93.5 139t134.5 54q67 0 137 -43t117 -43q68 0 143 63z" />
    <glyph glyph-name="fycircumflex" unicode="f&#x177;" horiz-adv-x="1601" 
d="M674 762h-230l-98 -627q-105 -672 -452 -672q-83 0 -132 39.5t-49 102.5q0 50 28 81t77 31q54 0 98 -77q25 -48 59 -48q72 0 113 263l133 907h-153v106l172 9q28 170 61 301q45 170 128.5 257t213.5 87q85 0 144 -51.5t59 -116.5q0 -45 -29 -78t-72 -33q-71 0 -112 86
q-26 49 -39 59q-12 10 -33 13q-76 0 -76 -166q0 -152 -20 -348l219 8l16 -35zM1171 -23l11 -2q172 383 172 799q0 66 -13 133q29 29 89 29q36 0 71 -12q10 -33 10 -99q0 -449 -219 -848q-137 -250 -348 -405q-186 -137 -424 -137q-71 0 -114.5 30t-43.5 78t33 80.5t86 32.5
q48 0 113 -33q68 -35 111 -35q119 0 202 121q84 122 84 311q0 368 -102 658q-20 57 -45 57q-54 0 -125 -203l-60 17q89 375 261 375q125 0 184 -170q82 -224 82 -598q0 -49 -8 -109q-2 -18 -3.5 -35.5t-2.5 -25.5t-1 -9zM995 1016l-61 55l295 404q40 55 82 55q45 0 57 -55
l98 -437l-77 -24l-127 239z" />
    <glyph glyph-name="ffb" unicode="ffb" horiz-adv-x="1986" 
d="M1229 762h-271l-108 -686q-95 -613 -395 -613q-86 0 -140.5 40t-54.5 102q0 47 30.5 79.5t74.5 32.5q64 0 104 -75q27 -50 66 -50q41 0 55 107q12 74 16 113l17 151q2 21 20 168l90 631h-287l-100 -627q-105 -672 -452 -672q-83 0 -132 39.5t-49 102.5q0 50 28 81t77 31
q54 0 98 -77q25 -48 59 -48q72 0 113 263l133 907h-153v106l172 9q42 202 120 356q68 134 183.5 211.5t240.5 77.5q151 0 240 -95q115 95 260 95q114 0 199 -54l180 72l31 -33q-124 -353 -125 -354l-172 -532l10 -3q119 187 197 252q76 64 151 64q77 0 132 -74t55 -188
q0 -165 -80.5 -321.5t-237.5 -274.5q-141 -105 -274 -105q-114 0 -180 69t-66 183q0 94 53 289zM1724 621q0 57 -22 90.5t-60 33.5q-85 0 -196 -182q-111 -181 -111 -315q0 -48 29 -76.5t74 -28.5q69 0 135 66q151 151 151 412zM977 887q217 0 289 2l69 244q25 95 25 149
q0 55 -29.5 89t-79.5 34q-92 0 -159 -113q-69 -117 -115 -405zM465 883l289 2q29 138 65 231l37 88q16 36 16 64q0 61 -35.5 97t-97.5 36q-94 0 -161 -113q-68 -120 -113 -405z" />
    <glyph glyph-name="fflslash" unicode="ff&#x142;" horiz-adv-x="1708" 
d="M465 883l289 2q29 138 65 231l37 88q16 36 16 64q0 61 -35.5 97t-97.5 36q-94 0 -161 -113q-68 -120 -113 -405zM1262 1405q-100 0 -170 -111q-69 -114 -115 -407l178 8l16 -35l-26 -98h-189l-106 -686q-95 -613 -395 -613q-86 0 -140.5 40t-54.5 102q0 47 30.5 79.5
t74.5 32.5q64 0 104 -75q27 -50 66 -50q41 0 55 107q12 74 16 113l17 151q2 21 20 168l90 631h-287l-100 -627q-105 -672 -452 -672q-83 0 -132 39.5t-49 102.5q0 50 28 81t77 31q54 0 98 -77q25 -48 59 -48q72 0 113 263l133 907h-153v106l172 9q42 202 120 356
q68 134 183.5 211.5t240.5 77.5q151 0 240 -95q115 95 260 95q54 0 127 -15t111 -39l137 72l39 -33q-52 -167 -99 -354l-110 -451l182 50l33 -123l-248 -68l-80 -332q-6 -30 -6 -39q0 -26 27 -26q60 0 192 170l47 -35q-193 -319 -385 -319q-53 0 -89 32t-36 86q0 52 37 203
l45 193l-155 -41l-31 120l219 60l115 481q28 124 28 156q0 61 -33 98t-89 37z" />
    <glyph glyph-name="ffscaron" unicode="ff&#x161;" horiz-adv-x="1835" 
d="M950 1448q80 74 203 74q85 0 144 -51.5t59 -116.5q0 -45 -29 -78t-72 -33q-71 0 -112 86q-26 49 -39 59q-12 10 -33 13q-76 0 -76 -166q0 -152 -20 -348q52 1 131 4.5t92 3.5l16 -35l-26 -98h-230l-108 -686q-95 -613 -395 -613q-86 0 -140.5 40t-54.5 102
q0 47 30.5 79.5t74.5 32.5q64 0 104 -75q27 -50 66 -50q41 0 55 107q12 74 16 113l17 151q2 21 20 168l90 631h-287l-100 -627q-105 -672 -452 -672q-83 0 -132 39.5t-49 102.5q0 50 28 81t77 31q54 0 98 -77q25 -48 59 -48q72 0 113 263l133 907h-153v106l172 9
q48 210 122 356q147 289 392 289q113 0 196 -74zM465 883l289 2q17 103 39 198q2 10 15.5 58.5t21.5 85t6 51.5q0 57 -31.5 92t-85.5 35q-92 0 -150 -113q-57 -109 -104 -409zM1536 137q0 33 -25 78q-22 43 -112 174q-109 157 -109 262q0 120 79.5 197.5t211.5 77.5
q105 0 176.5 -52.5t71.5 -130.5q0 -45 -26.5 -74.5t-67.5 -29.5q-85 0 -115 92q-27 86 -84 86q-66 0 -66 -74q0 -63 117 -245q86 -135 103 -174q24 -52 24 -117q0 -107 -72 -174.5t-192 -67.5q-129 0 -209 61t-80 144q0 49 27.5 81t75.5 32q70 0 108 -109q12 -31 16.5 -42
t15.5 -27.5t25.5 -23t36.5 -9.5q70 0 70 65zM1954 1528l61 -55l-295 -404q-40 -55 -82 -55q-45 0 -57 55l-98 436l78 25l127 -240z" />
    <glyph glyph-name="ffthorn" unicode="ff&#xfe;" horiz-adv-x="2007" 
d="M465 883l289 6q27 134 65 227l37 88q16 36 16 64q0 61 -35.5 97t-97.5 36q-94 0 -161 -113q-68 -120 -113 -405zM1698 559q0 111 -49 170t-127 59h-43l-131 -673q160 41 255 160.5t95 283.5zM975 895l305 18l25 117q38 173 38 252q0 55 -25 89t-67 34t-77.5 -21.5
t-72.5 -75t-69 -158t-57 -255.5zM1284 1522q108 0 193 -54l127 72l34 -33q-46 -133 -88 -354l-43 -223q13 1 30 2t26.5 1.5t13.5 0.5q160 0 257 -94.5t97 -253.5q0 -444 -612 -582q-64 -311 -64 -381q0 -81 123 -108l-6 -56q-105 6 -231 6q-118 0 -217 -6l-4 54
q43 23 62 50.5t38 90.5q18 75 43 199l188 925l-293 -10l-108 -692q-95 -613 -395 -613q-86 0 -140.5 40t-54.5 102q0 47 30.5 79.5t74.5 32.5q64 0 104 -75q27 -50 66 -50q41 0 55 107q12 74 16 113l17 151q2 21 20 168l90 631h-287l-100 -627q-105 -672 -452 -672
q-83 0 -132 39.5t-49 102.5q0 50 28 81t77 31q54 0 98 -77q25 -48 59 -48q72 0 113 263l133 907h-153v106l172 9q42 202 120 356q68 134 183.5 211.5t240.5 77.5q152 0 246 -101q119 101 254 101z" />
    <glyph glyph-name="ffzcaron" unicode="ff&#x17e;" horiz-adv-x="2187" 
d="M950 1448q80 74 203 74q85 0 144 -51.5t59 -116.5q0 -45 -29 -78t-72 -33q-71 0 -112 86q-26 49 -39 59q-12 10 -33 13q-76 0 -76 -166q0 -152 -20 -348q52 1 131 4.5t92 3.5l16 -35l-26 -98h-230l-108 -686q-95 -613 -395 -613q-86 0 -140.5 40t-54.5 102
q0 47 30.5 79.5t74.5 32.5q64 0 104 -75q27 -50 66 -50q41 0 55 107q12 74 16 113l17 151q2 21 20 168l90 631h-287l-100 -627q-105 -672 -452 -672q-83 0 -132 39.5t-49 102.5q0 50 28 81t77 31q54 0 98 -77q25 -48 59 -48q72 0 113 263l133 907h-153v106l172 9
q48 210 122 356q147 289 392 289q113 0 196 -74zM465 883l289 2q17 103 39 198q2 10 15.5 58.5t21.5 85t6 51.5q0 57 -31.5 92t-85.5 35q-92 0 -150 -113q-57 -109 -104 -409zM1972 715l-545 -473l3 -6q52 12 116 12q74 0 211 -84q134 -82 209 -82q57 0 57 57q0 29 -57 80
q-55 52 -55 105q0 38 29 68t67 30q63 0 106.5 -59t43.5 -148q0 -136 -95 -225q-93 -90 -209 -90q-73 0 -149 33.5t-131 80.5q-127 115 -182 115q-61 0 -76 -74q-2 -37 -40.5 -52t-75.5 3.5t-34 65.5q0 79 84 151l555 469l-4 6q-65 -26 -121 -26q-61 0 -151 37
q-88 39 -125 39q-49 0 -49 -43q0 -15 28 -60q29 -47 29 -74q0 -40 -24.5 -67t-65.5 -27q-48 0 -82.5 40t-34.5 97q0 123 86 215q87 93 203 93q84 0 207 -60q124 -60 176 -71q56 66 88.5 90t65.5 24q30 0 51.5 -22.5t21.5 -57.5q0 -73 -131 -110zM2032 1528l61 -55l-295 -404
q-40 -55 -82 -55q-45 0 -57 55l-98 436l77 25l127 -240z" />
    <glyph glyph-name="ffh" unicode="ffh" horiz-adv-x="2015" 
d="M465 883l289 2q29 138 65 231l37 88q16 36 16 64q0 61 -35.5 97t-97.5 36q-94 0 -161 -113q-68 -120 -113 -405zM977 887h63q136 4 232 4l47 201q29 126 29 184q0 61 -26 95t-71 34q-92 0 -159 -113q-69 -117 -115 -405zM1284 1522q114 0 199 -54l145 72l39 -33
q-48 -145 -102 -354l-127 -473l6 -2q84 142 151.5 194t155.5 52q69 0 113.5 -50.5t44.5 -128.5q0 -62 -29 -157l-125 -391q-4 -16 -4 -27q0 -18 18 -18q51 0 164 143l47 -37q-175 -278 -331 -278q-53 0 -92 40t-39 89q0 62 41 190l100 313q14 43 14 76q0 45 -43 45
q-68 0 -139 -88.5t-107 -245.5l-94 -395q-44 -20 -116 -20t-119 59q77 261 98 350l88 369h-283l-108 -686q-95 -613 -395 -613q-86 0 -140.5 40t-54.5 102q0 47 30.5 79.5t74.5 32.5q64 0 104 -75q27 -50 66 -50q41 0 55 107q12 74 16 113l17 151q2 21 20 168l90 631h-287
l-100 -627q-105 -672 -452 -672q-83 0 -132 39.5t-49 102.5q0 50 28 81t77 31q54 0 98 -77q25 -48 59 -48q72 0 113 263l133 907h-153v106l172 9q42 202 120 356q68 134 183.5 211.5t240.5 77.5q151 0 240 -95q115 95 260 95z" />
    <glyph glyph-name="ffj" unicode="ffj" horiz-adv-x="1548" 
d="M465 883l289 2q29 138 65 231l37 88q16 36 16 64q0 61 -35.5 97t-97.5 36q-94 0 -161 -113q-68 -120 -113 -405zM1284 1522q124 0 206.5 -58.5t82.5 -154.5q0 -56 -36 -92.5t-93 -36.5q-98 0 -139 133q-27 88 -86 88q-159 0 -242 -514l153 6q205 9 295 45l62 -37
q-40 -147 -64 -307l-90 -545q-52 -319 -137 -455q-82 -131 -235 -131q-85 0 -134 35.5t-49 98.5q0 45 27.5 75.5t68.5 30.5q54 0 101 -68q53 -73 100 -26q23 27 30 72t7 124q0 166 21 310l71 493q10 72 10 103q0 51 -124 51h-132l-108 -686q-95 -613 -395 -613
q-86 0 -140.5 40t-54.5 102q0 47 30.5 79.5t74.5 32.5q64 0 104 -75q27 -50 66 -50q41 0 55 107q12 74 16 113l17 151q2 21 20 168l90 631h-287l-100 -627q-105 -672 -452 -672q-83 0 -132 39.5t-49 102.5q0 50 28 81t77 31q54 0 98 -77q25 -48 59 -48q72 0 113 263l133 907
h-153v106l172 9q42 202 120 356q68 134 183.5 211.5t240.5 77.5q151 0 240 -95q115 95 260 95z" />
    <glyph glyph-name="ffk" unicode="ffk" horiz-adv-x="1996" 
d="M465 883l289 2q29 138 65 231l37 88q16 36 16 64q0 61 -35.5 97t-97.5 36q-94 0 -161 -113q-68 -120 -113 -405zM1272 891l47 201q29 119 29 184q0 129 -101 129q-93 0 -157 -113q-68 -116 -113 -405q13 0 49.5 0.5t106.5 1.5t139 2zM1284 1522q114 0 199 -54l145 72
l39 -33q-61 -187 -102 -354l-119 -479l8 -2q87 137 156 194.5t155 57.5q73 0 123.5 -51t50.5 -125q0 -94 -65.5 -156t-220.5 -105q22 -117 65 -231q40 -104 76 -104q35 0 94 157l56 -16q-40 -167 -95 -240t-127 -73q-45 0 -86 26t-69 66q-28 44 -49 100q-38 101 -68 227
l25 88q245 88 245 201q0 28 -16.5 47t-44.5 19q-66 0 -150 -90q-79 -88 -120 -267l-93 -393q-44 -20 -116 -20q-70 0 -117 59q48 159 92 348l86 371h-283l-108 -686q-95 -613 -395 -613q-86 0 -140.5 40t-54.5 102q0 47 30.5 79.5t74.5 32.5q64 0 104 -75q27 -50 66 -50
q41 0 55 107q12 74 16 113l17 151q2 21 20 168l90 631h-287l-100 -627q-105 -672 -452 -672q-83 0 -132 39.5t-49 102.5q0 50 28 81t77 31q54 0 98 -77q25 -48 59 -48q72 0 113 263l133 907h-153v106l172 9q42 202 120 356q68 134 183.5 211.5t240.5 77.5q151 0 240 -95
q115 95 260 95z" />
    <glyph glyph-name="ffadieresis" unicode="ff&#xe4;" horiz-adv-x="2136" 
d="M950 1448q80 74 203 74q85 0 144 -51.5t59 -116.5q0 -45 -29 -78t-72 -33q-71 0 -112 86q-26 49 -39 59q-12 10 -33 13q-76 0 -76 -166q0 -152 -20 -348q52 1 131 4.5t92 3.5l16 -35l-26 -98h-230l-108 -686q-95 -613 -395 -613q-86 0 -140.5 40t-54.5 102
q0 47 30.5 79.5t74.5 32.5q64 0 104 -75q27 -50 66 -50q41 0 55 107q12 74 16 113l17 151q2 21 20 168l90 631h-287l-100 -627q-105 -672 -452 -672q-83 0 -132 39.5t-49 102.5q0 50 28 81t77 31q54 0 98 -77q25 -48 59 -48q72 0 113 263l133 907h-153v106l172 9
q48 210 122 356q147 289 392 289q113 0 196 -74zM465 883l289 2q17 103 39 198q2 10 15.5 58.5t21.5 85t6 51.5q0 57 -31.5 92t-85.5 35q-92 0 -150 -113q-57 -109 -104 -409zM1401 256q0 -106 67 -106q45 0 109 77t133 224q52 116 70 206q-30 82 -101 82q-108 0 -190 -143
q-88 -152 -88 -340zM1901 240q-2 -16 -3.5 -30.5t-2.5 -20.5t-1 -7q0 -30 25 -30q46 0 164 157l47 -37q-103 -162 -175.5 -227t-146.5 -65q-60 0 -94.5 37.5t-34.5 99.5q0 81 19 159l-6 7q-164 -320 -336 -320q-81 0 -126.5 55.5t-45.5 149.5q0 228 196 500q98 132 200 198
t187 66q45 0 68 -10q15 -6 18 -9q3 -1 19.5 -14.5t17.5 -13.5l60 80q51 -12 118 -52q-75 -249 -108 -391q-48 -198 -59 -282zM1489 1333q0 57 39.5 96t99.5 39q57 0 97 -39t40 -96t-40 -98t-97 -41q-60 0 -99.5 39.5t-39.5 99.5zM1843 1333q0 57 39 96t96 39q60 0 101 -39
t41 -96q0 -60 -41 -99.5t-101 -39.5q-57 0 -96 39.5t-39 99.5z" />
    <glyph glyph-name="ffatilde" unicode="ff&#xe3;" horiz-adv-x="2136" 
d="M950 1448q80 74 203 74q85 0 144 -51.5t59 -116.5q0 -45 -29 -78t-72 -33q-71 0 -112 86q-26 49 -39 59q-12 10 -33 13q-76 0 -76 -166q0 -152 -20 -348q52 1 131 4.5t92 3.5l16 -35l-26 -98h-230l-108 -686q-95 -613 -395 -613q-86 0 -140.5 40t-54.5 102
q0 47 30.5 79.5t74.5 32.5q64 0 104 -75q27 -50 66 -50q41 0 55 107q12 74 16 113l17 151q2 21 20 168l90 631h-287l-100 -627q-105 -672 -452 -672q-83 0 -132 39.5t-49 102.5q0 50 28 81t77 31q54 0 98 -77q25 -48 59 -48q72 0 113 263l133 907h-153v106l172 9
q48 210 122 356q147 289 392 289q113 0 196 -74zM465 883l289 2q17 103 39 198q2 10 15.5 58.5t21.5 85t6 51.5q0 57 -31.5 92t-85.5 35q-92 0 -150 -113q-57 -109 -104 -409zM1401 256q0 -106 67 -106q45 0 109 77t133 224q52 116 70 206q-30 82 -101 82q-108 0 -190 -143
q-88 -152 -88 -340zM1901 240q-2 -16 -3.5 -30.5t-2.5 -20.5t-1 -7q0 -30 25 -30q46 0 164 157l47 -37q-103 -162 -175.5 -227t-146.5 -65q-60 0 -94.5 37.5t-34.5 99.5q0 81 19 159l-6 7q-164 -320 -336 -320q-81 0 -126.5 55.5t-45.5 149.5q0 228 196 500q98 132 200 198
t187 66q45 0 68 -10q15 -6 18 -9q3 -1 19.5 -14.5t17.5 -13.5l60 80q51 -12 118 -52q-75 -249 -108 -391q-48 -198 -59 -282zM2093 1421l45 -30q-29 -85 -93 -139t-134 -54q-67 0 -137 43t-117 43q-69 0 -144 -63l-45 30q29 85 93.5 139t134.5 54q67 0 137 -43t117 -43
q68 0 143 63z" />
    <glyph glyph-name="ffegrave" unicode="ff&#xe8;" horiz-adv-x="1927" 
d="M950 1448q80 74 203 74q85 0 144 -51.5t59 -116.5q0 -45 -29 -78t-72 -33q-71 0 -112 86q-26 49 -39 59q-12 10 -33 13q-76 0 -76 -166q0 -152 -20 -348q52 1 131 4.5t92 3.5l16 -35l-26 -98h-230l-108 -686q-95 -613 -395 -613q-86 0 -140.5 40t-54.5 102
q0 47 30.5 79.5t74.5 32.5q64 0 104 -75q27 -50 66 -50q41 0 55 107q12 74 16 113l17 151q2 21 20 168l90 631h-287l-100 -627q-105 -672 -452 -672q-83 0 -132 39.5t-49 102.5q0 50 28 81t77 31q54 0 98 -77q25 -48 59 -48q72 0 113 263l133 907h-153v106l172 9
q48 210 122 356q147 289 392 289q113 0 196 -74zM465 883l289 2q17 103 39 198q2 10 15.5 58.5t21.5 85t6 51.5q0 57 -31.5 92t-85.5 35q-92 0 -150 -113q-57 -109 -104 -409zM1731 928q79 0 134.5 -52t55.5 -126q0 -252 -489 -340q-13 -50 -13 -111q0 -129 105 -129
q58 5 108.5 42t120.5 132l59 -33q-79 -170 -163 -257t-199 -87q-117 0 -185.5 78t-68.5 209q0 241 184 465q176 209 351 209zM1653 786q-59 0 -117 -78t-92 -223q270 83 270 232q0 69 -61 69zM1802 1380v-32l-10 -361l-76 -12l-127 315q-26 65 -26 117q0 57 33 93t87 36
q55 0 87 -41t32 -115z" />
    <glyph glyph-name="ffecircumflex" unicode="ff&#xea;" horiz-adv-x="1927" 
d="M950 1448q80 74 203 74q85 0 144 -51.5t59 -116.5q0 -45 -29 -78t-72 -33q-71 0 -112 86q-26 49 -39 59q-12 10 -33 13q-76 0 -76 -166q0 -152 -20 -348q52 1 131 4.5t92 3.5l16 -35l-26 -98h-230l-108 -686q-95 -613 -395 -613q-86 0 -140.5 40t-54.5 102
q0 47 30.5 79.5t74.5 32.5q64 0 104 -75q27 -50 66 -50q41 0 55 107q12 74 16 113l17 151q2 21 20 168l90 631h-287l-100 -627q-105 -672 -452 -672q-83 0 -132 39.5t-49 102.5q0 50 28 81t77 31q54 0 98 -77q25 -48 59 -48q72 0 113 263l133 907h-153v106l172 9
q48 210 122 356q147 289 392 289q113 0 196 -74zM465 883l289 2q17 103 39 198q2 10 15.5 58.5t21.5 85t6 51.5q0 57 -31.5 92t-85.5 35q-92 0 -150 -113q-57 -109 -104 -409zM1731 928q79 0 134.5 -52t55.5 -126q0 -252 -489 -340q-13 -50 -13 -111q0 -129 105 -129
q58 5 108.5 42t120.5 132l59 -33q-79 -170 -163 -257t-199 -87q-117 0 -185.5 78t-68.5 209q0 241 184 465q176 209 351 209zM1653 786q-59 0 -117 -78t-92 -223q270 83 270 232q0 69 -61 69zM1518 1016l-62 55l295 404q40 55 82 55q45 0 57 -55l99 -437l-78 -24l-127 239z
" />
    <glyph glyph-name="ffedieresis" unicode="ff&#xeb;" horiz-adv-x="1927" 
d="M950 1448q80 74 203 74q85 0 144 -51.5t59 -116.5q0 -45 -29 -78t-72 -33q-71 0 -112 86q-26 49 -39 59q-12 10 -33 13q-76 0 -76 -166q0 -152 -20 -348q52 1 131 4.5t92 3.5l16 -35l-26 -98h-230l-108 -686q-95 -613 -395 -613q-86 0 -140.5 40t-54.5 102
q0 47 30.5 79.5t74.5 32.5q64 0 104 -75q27 -50 66 -50q41 0 55 107q12 74 16 113l17 151q2 21 20 168l90 631h-287l-100 -627q-105 -672 -452 -672q-83 0 -132 39.5t-49 102.5q0 50 28 81t77 31q54 0 98 -77q25 -48 59 -48q72 0 113 263l133 907h-153v106l172 9
q48 210 122 356q147 289 392 289q113 0 196 -74zM465 883l289 2q17 103 39 198q2 10 15.5 58.5t21.5 85t6 51.5q0 57 -31.5 92t-85.5 35q-92 0 -150 -113q-57 -109 -104 -409zM1731 928q79 0 134.5 -52t55.5 -126q0 -252 -489 -340q-13 -50 -13 -111q0 -129 105 -129
q58 5 108.5 42t120.5 132l59 -33q-79 -170 -163 -257t-199 -87q-117 0 -185.5 78t-68.5 209q0 241 184 465q176 209 351 209zM1653 786q-59 0 -117 -78t-92 -223q270 83 270 232q0 69 -61 69zM1432 1333q0 57 39.5 96t99.5 39q57 0 97 -39t40 -96t-40 -98t-97 -41
q-60 0 -99.5 39.5t-39.5 99.5zM1786 1333q0 57 39 96t96 39q60 0 100.5 -39t40.5 -96q0 -60 -40.5 -99.5t-100.5 -39.5q-57 0 -96 39.5t-39 99.5z" />
    <glyph glyph-name="ffiacute" unicode="ff&#xed;" horiz-adv-x="1572" 
d="M465 883l289 2q17 103 39 198q2 10 15.5 58.5t21.5 85t6 51.5q0 57 -31.5 92t-85.5 35q-92 0 -150 -113q-57 -109 -104 -409zM1094 762h-136l-108 -686q-95 -613 -395 -613q-86 0 -140.5 40t-54.5 102q0 47 30.5 79.5t74.5 32.5q64 0 104 -75q27 -50 66 -50q41 0 55 107
q12 74 16 113l17 151q2 21 20 168l90 631h-287l-100 -627q-105 -672 -452 -672q-83 0 -132 39.5t-49 102.5q0 50 28 81t77 31q54 0 98 -77q25 -48 59 -48q72 0 113 263l133 907h-153v106l172 9q48 210 122 356q147 289 392 289q113 0 196 -74q80 74 203 74q85 0 144 -51.5
t59 -116.5q0 -45 -29 -78t-72 -33q-71 0 -112 86q-26 49 -39 59q-12 10 -33 13q-76 0 -76 -166q0 -152 -20 -348l139 6q233 9 320 45l61 -37q-80 -289 -84 -307l-88 -381q-6 -24 -6 -45q0 -27 22 -27q51 0 166 158l47 -37q-80 -145 -167.5 -213.5t-165.5 -68.5
q-56 0 -95 35.5t-39 88.5q0 52 31 195l70 309q16 75 16 103q0 51 -108 51zM1354 975l-64 43l160 381q58 137 156 137q50 0 81 -32.5t31 -82.5q0 -70 -88 -161z" />
    <glyph glyph-name="fficircumflex" unicode="ff&#xee;" horiz-adv-x="1728" 
d="M950 1448q80 74 203 74q85 0 144 -51.5t59 -116.5q0 -45 -29 -78t-72 -33q-71 0 -112 86q-26 49 -39 59q-12 10 -33 13q-76 0 -76 -166q0 -152 -20 -348q52 1 131 4.5t92 3.5l16 -35l-26 -98h-230l-108 -686q-95 -613 -395 -613q-86 0 -140.5 40t-54.5 102
q0 47 30.5 79.5t74.5 32.5q64 0 104 -75q27 -50 66 -50q41 0 55 107q12 74 16 113l17 151q2 21 20 168l90 631h-287l-100 -627q-105 -672 -452 -672q-83 0 -132 39.5t-49 102.5q0 50 28 81t77 31q54 0 98 -77q25 -48 59 -48q72 0 113 263l133 907h-153v106l172 9
q48 210 122 356q147 289 392 289q113 0 196 -74zM465 883l289 2q17 103 39 198q2 10 15.5 58.5t21.5 85t6 51.5q0 57 -31.5 92t-85.5 35q-92 0 -150 -113q-57 -109 -104 -409zM1268 299l114 309q33 85 33 105q0 24 -22 24q-39 0 -146 -110l-41 37q178 260 318 260
q57 0 90 -37t33 -99q0 -55 -41 -167l-146 -408q-14 -41 -14 -53q0 -19 20 -19q47 0 162 158l47 -37q-156 -282 -327 -282q-56 0 -92.5 38t-36.5 93q0 57 49 188zM1352 1016l-62 55l295 404q40 55 82 55q45 0 57 -55l99 -437l-78 -24l-127 239z" />
    <glyph glyph-name="ffidieresis" unicode="ff&#xef;" horiz-adv-x="1773" 
d="M950 1448q80 74 203 74q85 0 144 -51.5t59 -116.5q0 -45 -29 -78t-72 -33q-71 0 -112 86q-26 49 -39 59q-12 10 -33 13q-76 0 -76 -166q0 -152 -20 -348q52 1 131 4.5t92 3.5l16 -35l-26 -98h-230l-108 -686q-95 -613 -395 -613q-86 0 -140.5 40t-54.5 102
q0 47 30.5 79.5t74.5 32.5q64 0 104 -75q27 -50 66 -50q41 0 55 107q12 74 16 113l17 151q2 21 20 168l90 631h-287l-100 -627q-105 -672 -452 -672q-83 0 -132 39.5t-49 102.5q0 50 28 81t77 31q54 0 98 -77q25 -48 59 -48q72 0 113 263l133 907h-153v106l172 9
q48 210 122 356q147 289 392 289q113 0 196 -74zM465 883l289 2q17 103 39 198q2 10 15.5 58.5t21.5 85t6 51.5q0 57 -31.5 92t-85.5 35q-92 0 -150 -113q-57 -109 -104 -409zM1313 299l114 309q33 85 33 105q0 24 -22 24q-39 0 -146 -110l-41 37q178 260 318 260
q57 0 90 -37t33 -99q0 -55 -41 -167l-146 -408q-14 -41 -14 -53q0 -19 20 -19q47 0 162 158l47 -37q-156 -282 -327 -282q-56 0 -92.5 38t-36.5 93q0 57 49 188zM1348 1190q0 57 39.5 96t99.5 39q57 0 97 -39t40 -96t-40 -98t-97 -41q-60 0 -99.5 39.5t-39.5 99.5z
M1702 1190q0 57 39 96t96 39q60 0 100.5 -39t40.5 -96q0 -60 -40.5 -99.5t-100.5 -39.5q-57 0 -96 39.5t-39 99.5z" />
    <glyph glyph-name="ffntilde" unicode="ff&#xf1;" horiz-adv-x="2193" 
d="M950 1448q80 74 203 74q85 0 144 -51.5t59 -116.5q0 -45 -29 -78t-72 -33q-71 0 -112 86q-26 49 -39 59q-12 10 -33 13q-76 0 -76 -166q0 -152 -20 -348q52 1 131 4.5t92 3.5l16 -35l-26 -98h-230l-108 -686q-95 -613 -395 -613q-86 0 -140.5 40t-54.5 102
q0 47 30.5 79.5t74.5 32.5q64 0 104 -75q27 -50 66 -50q41 0 55 107q12 74 16 113l17 151q2 21 20 168l90 631h-287l-100 -627q-105 -672 -452 -672q-83 0 -132 39.5t-49 102.5q0 50 28 81t77 31q54 0 98 -77q25 -48 59 -48q72 0 113 263l133 907h-153v106l172 9
q48 210 122 356q147 289 392 289q113 0 196 -74zM465 883l289 2q17 103 39 198q2 10 15.5 58.5t21.5 85t6 51.5q0 57 -31.5 92t-85.5 35q-92 0 -150 -113q-57 -109 -104 -409zM1780 733q-68 0 -139 -88.5t-107 -245.5l-94 -395q-44 -20 -117 -20q-72 0 -119 59
q64 212 99 350l61 256q12 47 12 76q0 23 -20 23q-45 0 -127 -107l-47 37q159 246 282 246q56 0 90.5 -38.5t34.5 -103.5q0 -51 -28 -149l6 -2q94 175 170 233q78 60 164 60q69 0 113 -50.5t44 -128.5q0 -65 -28 -157l-125 -391q-4 -16 -4 -27q0 -18 18 -18q51 0 164 143
l47 -37q-175 -278 -332 -278q-53 0 -92 40t-39 89q0 62 41 190l100 313q15 47 15 76q0 45 -43 45zM2114 1421l45 -30q-29 -85 -93.5 -139t-134.5 -54q-67 0 -137 43t-117 43q-68 0 -143 -63l-45 30q29 85 93 139t134 54q67 0 137 -43t117 -43q69 0 144 63z" />
    <glyph glyph-name="ffocircumflex" unicode="ff&#xf4;" horiz-adv-x="2039" 
d="M950 1448q80 74 203 74q85 0 144 -51.5t59 -116.5q0 -45 -29 -78t-72 -33q-71 0 -112 86q-26 49 -39 59q-12 10 -33 13q-76 0 -76 -166q0 -152 -20 -348q52 1 131 4.5t92 3.5l16 -35l-26 -98h-230l-108 -686q-95 -613 -395 -613q-86 0 -140.5 40t-54.5 102
q0 47 30.5 79.5t74.5 32.5q64 0 104 -75q27 -50 66 -50q41 0 55 107q12 74 16 113l17 151q2 21 20 168l90 631h-287l-100 -627q-105 -672 -452 -672q-83 0 -132 39.5t-49 102.5q0 50 28 81t77 31q54 0 98 -77q25 -48 59 -48q72 0 113 263l133 907h-153v106l172 9
q48 210 122 356q147 289 392 289q113 0 196 -74zM465 883l289 2q17 103 39 198q2 10 15.5 58.5t21.5 85t6 51.5q0 57 -31.5 92t-85.5 35q-92 0 -150 -113q-57 -109 -104 -409zM2013 514q0 -329 -239 -487q-92 -62 -218 -62q-133 0 -213 74q-131 116 -131 334q0 155 63.5 278
t176.5 203q101 70 217 70q126 0 215 -80q129 -117 129 -330zM1483 119q27 -47 78 -47q52 0 92 43q56 63 91.5 178t35.5 258q0 153 -39 215q-26 47 -77.5 47t-92.5 -43q-52 -58 -90 -174q-37 -112 -37 -262t39 -215zM1536 1016l-61 55l294 404q40 55 82 55q46 0 58 -55
l98 -437l-78 -24l-127 239z" />
    <glyph glyph-name="ffodieresis" unicode="ff&#xf6;" horiz-adv-x="2039" 
d="M950 1448q80 74 203 74q85 0 144 -51.5t59 -116.5q0 -45 -29 -78t-72 -33q-71 0 -112 86q-26 49 -39 59q-12 10 -33 13q-76 0 -76 -166q0 -152 -20 -348q52 1 131 4.5t92 3.5l16 -35l-26 -98h-230l-108 -686q-95 -613 -395 -613q-86 0 -140.5 40t-54.5 102
q0 47 30.5 79.5t74.5 32.5q64 0 104 -75q27 -50 66 -50q41 0 55 107q12 74 16 113l17 151q2 21 20 168l90 631h-287l-100 -627q-105 -672 -452 -672q-83 0 -132 39.5t-49 102.5q0 50 28 81t77 31q54 0 98 -77q25 -48 59 -48q72 0 113 263l133 907h-153v106l172 9
q48 210 122 356q147 289 392 289q113 0 196 -74zM465 883l289 2q17 103 39 198q2 10 15.5 58.5t21.5 85t6 51.5q0 57 -31.5 92t-85.5 35q-92 0 -150 -113q-57 -109 -104 -409zM2013 514q0 -329 -239 -487q-92 -62 -218 -62q-133 0 -213 74q-131 116 -131 334q0 155 63.5 278
t176.5 203q101 70 217 70q126 0 215 -80q129 -117 129 -330zM1483 119q27 -47 78 -47q52 0 92 43q56 63 91.5 178t35.5 258q0 153 -39 215q-26 47 -77.5 47t-92.5 -43q-52 -58 -90 -174q-37 -112 -37 -262t39 -215zM1454 1333q0 57 39.5 96t99.5 39q57 0 97.5 -39t40.5 -96
t-40.5 -98t-97.5 -41q-60 0 -99.5 39.5t-39.5 99.5zM1808 1333q0 57 39.5 96t96.5 39q60 0 100.5 -39t40.5 -96q0 -60 -40.5 -99.5t-100.5 -39.5q-57 0 -96.5 39.5t-39.5 99.5z" />
    <glyph glyph-name="ffotilde" unicode="ff&#xf5;" horiz-adv-x="2039" 
d="M950 1448q80 74 203 74q85 0 144 -51.5t59 -116.5q0 -45 -29 -78t-72 -33q-71 0 -112 86q-26 49 -39 59q-12 10 -33 13q-76 0 -76 -166q0 -152 -20 -348q52 1 131 4.5t92 3.5l16 -35l-26 -98h-230l-108 -686q-95 -613 -395 -613q-86 0 -140.5 40t-54.5 102
q0 47 30.5 79.5t74.5 32.5q64 0 104 -75q27 -50 66 -50q41 0 55 107q12 74 16 113l17 151q2 21 20 168l90 631h-287l-100 -627q-105 -672 -452 -672q-83 0 -132 39.5t-49 102.5q0 50 28 81t77 31q54 0 98 -77q25 -48 59 -48q72 0 113 263l133 907h-153v106l172 9
q48 210 122 356q147 289 392 289q113 0 196 -74zM465 883l289 2q17 103 39 198q2 10 15.5 58.5t21.5 85t6 51.5q0 57 -31.5 92t-85.5 35q-92 0 -150 -113q-57 -109 -104 -409zM2013 514q0 -329 -239 -487q-92 -62 -218 -62q-133 0 -213 74q-131 116 -131 334q0 155 63.5 278
t176.5 203q101 70 217 70q126 0 215 -80q129 -117 129 -330zM1483 119q27 -47 78 -47q52 0 92 43q56 63 91.5 178t35.5 258q0 153 -39 215q-26 47 -77.5 47t-92.5 -43q-52 -58 -90 -174q-37 -112 -37 -262t39 -215zM2068 1421l46 -30q-29 -85 -93.5 -139t-134.5 -54
q-67 0 -137 43t-117 43q-68 0 -143 -63l-45 30q29 85 93 139t134 54q67 0 137 -43t117 -43q68 0 143 63z" />
    <glyph glyph-name="ffudieresis" unicode="ff&#xfc;" horiz-adv-x="2185" 
d="M950 1448q80 74 203 74q85 0 144 -51.5t59 -116.5q0 -45 -29 -78t-72 -33q-71 0 -112 86q-26 49 -39 59q-12 10 -33 13q-76 0 -76 -166q0 -152 -20 -348q52 1 131 4.5t92 3.5l16 -35l-26 -98h-230l-108 -686q-95 -613 -395 -613q-86 0 -140.5 40t-54.5 102
q0 47 30.5 79.5t74.5 32.5q64 0 104 -75q27 -50 66 -50q41 0 55 107q12 74 16 113l17 151q2 21 20 168l90 631h-287l-100 -627q-105 -672 -452 -672q-83 0 -132 39.5t-49 102.5q0 50 28 81t77 31q54 0 98 -77q25 -48 59 -48q72 0 113 263l133 907h-153v106l172 9
q48 210 122 356q147 289 392 289q113 0 196 -74zM465 883l289 2q17 103 39 198q2 10 15.5 58.5t21.5 85t6 51.5q0 57 -31.5 92t-85.5 35q-92 0 -150 -113q-57 -109 -104 -409zM1784 422l-8 4q-118 -269 -203 -360q-80 -86 -189 -86q-68 0 -111.5 43t-43.5 110q0 76 49 201
l117 303q22 61 22 82q0 33 -28 33q-45 0 -154 -136l-47 37q106 153 178 213q70 58 141 58q61 0 98 -39.5t37 -106.5q0 -65 -43 -178l-122 -328q-15 -41 -15 -63q0 -39 41 -39q142 0 379 655l25 68q43 16 86 16q80 0 127 -80q-96 -268 -107 -309q-63 -213 -76 -295
q-4 -28 -4 -43q0 -26 23 -26q43 0 158 133l43 -37q-175 -272 -310 -272q-60 0 -95.5 37.5t-35.5 103.5q0 100 68 301zM1528 1333q0 57 39.5 96t99.5 39q57 0 97 -39t40 -96t-40 -98t-97 -41q-60 0 -99.5 39.5t-39.5 99.5zM1882 1333q0 57 39 96t96 39q60 0 101 -39t41 -96
q0 -60 -41 -99.5t-101 -39.5q-57 0 -96 39.5t-39 99.5z" />
    <glyph glyph-name="ffydieresis" unicode="ff&#xff;" horiz-adv-x="2111" 
d="M950 1448q80 74 203 74q85 0 144 -51.5t59 -116.5q0 -45 -29 -78t-72 -33q-71 0 -112 86q-26 49 -39 59q-12 10 -33 13q-76 0 -76 -166q0 -152 -20 -348q52 1 131 4.5t92 3.5l16 -35l-26 -98h-230l-108 -686q-95 -613 -395 -613q-86 0 -140.5 40t-54.5 102
q0 47 30.5 79.5t74.5 32.5q64 0 104 -75q27 -50 66 -50q41 0 55 107q12 74 16 113l17 151q2 21 20 168l90 631h-287l-100 -627q-105 -672 -452 -672q-83 0 -132 39.5t-49 102.5q0 50 28 81t77 31q54 0 98 -77q25 -48 59 -48q72 0 113 263l133 907h-153v106l172 9
q48 210 122 356q147 289 392 289q113 0 196 -74zM465 883l289 2q17 103 39 198q2 10 15.5 58.5t21.5 85t6 51.5q0 57 -31.5 92t-85.5 35q-92 0 -150 -113q-57 -109 -104 -409zM1681 -23l11 -2q172 383 172 799q0 66 -13 133q29 29 88 29q38 0 72 -12q10 -33 10 -99
q0 -449 -219 -848q-137 -250 -348 -405q-186 -137 -424 -137q-71 0 -114.5 30t-43.5 78t33 80.5t86 32.5q48 0 113 -33q68 -35 110 -35q120 0 203 121q84 122 84 311q0 368 -102 658q-20 57 -45 57q-54 0 -125 -203l-60 17q89 375 261 375q125 0 184 -170q82 -224 82 -598
q0 -49 -8 -109q-2 -18 -3.5 -35.5t-2.5 -25.5t-1 -9zM1417 1333q0 57 39.5 96t99.5 39q57 0 97.5 -39t40.5 -96t-40.5 -98t-97.5 -41q-60 0 -99.5 39.5t-39.5 99.5zM1772 1333q0 57 39 96t96 39q60 0 100.5 -39t40.5 -96q0 -60 -40.5 -99.5t-100.5 -39.5q-57 0 -96 39.5
t-39 99.5z" />
    <glyph glyph-name="fflcaron" unicode="ff&#x13e;" horiz-adv-x="1673" 
d="M465 883l289 2q29 138 65 231l37 88q16 36 16 64q0 61 -35.5 97t-97.5 36q-94 0 -161 -113q-68 -120 -113 -405zM1124 301l109 461h-275l-108 -686q-95 -613 -395 -613q-86 0 -140.5 40t-54.5 102q0 47 30.5 79.5t74.5 32.5q64 0 104 -75q27 -50 66 -50q41 0 55 107
q12 74 16 113l17 151q2 21 20 168l90 631h-287l-100 -627q-105 -672 -452 -672q-83 0 -132 39.5t-49 102.5q0 50 28 81t77 31q54 0 98 -77q25 -48 59 -48q72 0 113 263l133 907h-153v106l172 9q42 202 120 356q68 134 183.5 211.5t240.5 77.5q151 0 240 -95q115 95 260 95
q114 0 199 -54l137 72l39 -33q-48 -152 -98 -354l-224 -924q-6 -30 -6 -39q0 -26 27 -26q60 0 192 170l47 -35q-193 -319 -385 -319q-53 0 -89 32t-36 86q0 52 37 203zM979 887q55 0 127 2q28 1 63 1.5t58 1t37 1.5l61 258q23 104 23 137q0 54 -26.5 85.5t-70.5 31.5
q-92 0 -159 -113q-68 -116 -113 -405zM1864 1546q62 0 101.5 -49t39.5 -127q0 -112 -84 -197t-229 -114l-23 63q97 37 137.5 71t40.5 73q0 31 -37 55q-67 46 -67 111q0 48 34 81t87 33z" />
    <glyph glyph-name="ffabreve" unicode="ff&#x103;" horiz-adv-x="2136" 
d="M950 1448q80 74 203 74q85 0 144 -51.5t59 -116.5q0 -45 -29 -78t-72 -33q-71 0 -112 86q-26 49 -39 59q-12 10 -33 13q-76 0 -76 -166q0 -152 -20 -348q52 1 131 4.5t92 3.5l16 -35l-26 -98h-230l-108 -686q-95 -613 -395 -613q-86 0 -140.5 40t-54.5 102
q0 47 30.5 79.5t74.5 32.5q64 0 104 -75q27 -50 66 -50q41 0 55 107q12 74 16 113l17 151q2 21 20 168l90 631h-287l-100 -627q-105 -672 -452 -672q-83 0 -132 39.5t-49 102.5q0 50 28 81t77 31q54 0 98 -77q25 -48 59 -48q72 0 113 263l133 907h-153v106l172 9
q48 210 122 356q147 289 392 289q113 0 196 -74zM465 883l289 2q17 103 39 198q2 10 15.5 58.5t21.5 85t6 51.5q0 57 -31.5 92t-85.5 35q-92 0 -150 -113q-57 -109 -104 -409zM1401 256q0 -106 67 -106q45 0 109 77t133 224q52 116 70 206q-30 82 -101 82q-108 0 -190 -143
q-88 -152 -88 -340zM1901 240q-2 -16 -3.5 -30.5t-2.5 -20.5t-1 -7q0 -30 25 -30q46 0 164 157l47 -37q-103 -162 -175.5 -227t-146.5 -65q-60 0 -94.5 37.5t-34.5 99.5q0 81 19 159l-6 7q-164 -320 -336 -320q-81 0 -126.5 55.5t-45.5 149.5q0 228 196 500q98 132 200 198
t187 66q45 0 68 -10q15 -6 18 -9q3 -1 19.5 -14.5t17.5 -13.5l60 80q51 -12 118 -52q-75 -249 -108 -391q-48 -198 -59 -282zM1790 1065q-106 0 -165.5 73.5t-59.5 204.5q0 81 14 166h88v-36q0 -115 31 -163t96 -48q158 0 252 249l86 -18q-41 -210 -133 -319t-209 -109z" />
    <glyph glyph-name="fflacute" unicode="ff&#x13a;" horiz-adv-x="1611" 
d="M465 883l289 2q29 138 65 231l37 88q16 36 16 64q0 61 -35.5 97t-97.5 36q-94 0 -161 -113q-68 -120 -113 -405zM1124 301l109 461h-275l-108 -686q-95 -613 -395 -613q-86 0 -140.5 40t-54.5 102q0 47 30.5 79.5t74.5 32.5q64 0 104 -75q27 -50 66 -50q41 0 55 107
q12 74 16 113l17 151q2 21 20 168l90 631h-287l-100 -627q-105 -672 -452 -672q-83 0 -132 39.5t-49 102.5q0 50 28 81t77 31q54 0 98 -77q25 -48 59 -48q72 0 113 263l133 907h-153v106l172 9q42 202 120 356q68 134 183.5 211.5t240.5 77.5q151 0 240 -95q115 95 260 95
q114 0 199 -54l137 72l39 -33q-48 -152 -98 -354l-224 -924q-6 -30 -6 -39q0 -26 27 -26q60 0 192 170l47 -35q-193 -319 -385 -319q-53 0 -89 32t-36 86q0 52 37 203zM979 887q55 0 127 2q28 1 63 1.5t58 1t37 1.5l61 258q23 104 23 137q0 54 -26.5 85.5t-70.5 31.5
q-92 0 -159 -113q-68 -116 -113 -405zM1673 1628l-360 -69l-23 67l289 184q80 50 133 50q45 0 77 -28.5t32 -72.5q0 -104 -148 -131z" />
    <glyph glyph-name="ffccaron" unicode="ff&#x10d;" horiz-adv-x="1908" 
d="M950 1448q80 74 203 74q85 0 144 -51.5t59 -116.5q0 -45 -29 -78t-72 -33q-71 0 -112 86q-26 49 -39 59q-12 10 -33 13q-76 0 -76 -166q0 -152 -20 -348q52 1 131 4.5t92 3.5l16 -35l-26 -98h-230l-108 -686q-95 -613 -395 -613q-86 0 -140.5 40t-54.5 102
q0 47 30.5 79.5t74.5 32.5q64 0 104 -75q27 -50 66 -50q41 0 55 107q12 74 16 113l17 151q2 21 20 168l90 631h-287l-100 -627q-105 -672 -452 -672q-83 0 -132 39.5t-49 102.5q0 50 28 81t77 31q54 0 98 -77q25 -48 59 -48q72 0 113 263l133 907h-153v106l172 9
q48 210 122 356q147 289 392 289q113 0 196 -74zM465 883l289 2q17 103 39 198q2 10 15.5 58.5t21.5 85t6 51.5q0 57 -31.5 92t-85.5 35q-92 0 -150 -113q-57 -109 -104 -409zM1815 627q-81 0 -105 86q-21 73 -65 73q-56 0 -107.5 -62t-87.5 -181q-33 -106 -33 -240
q0 -67 28.5 -103t78.5 -36q115 0 231 180l60 -35q-58 -133 -134 -229q-90 -117 -239 -117q-112 0 -177 74.5t-65 202.5q0 274 180 493q163 199 334 199q86 0 142.5 -51.5t56.5 -132.5q0 -50 -28 -85t-70 -36zM2054 1528l62 -55l-295 -404q-40 -55 -82 -55q-46 0 -58 55
l-98 436l78 25l127 -240z" />
    <glyph glyph-name="ffecaron" unicode="ff&#x11b;" horiz-adv-x="1927" 
d="M950 1448q80 74 203 74q85 0 144 -51.5t59 -116.5q0 -45 -29 -78t-72 -33q-71 0 -112 86q-26 49 -39 59q-12 10 -33 13q-76 0 -76 -166q0 -152 -20 -348q52 1 131 4.5t92 3.5l16 -35l-26 -98h-230l-108 -686q-95 -613 -395 -613q-86 0 -140.5 40t-54.5 102
q0 47 30.5 79.5t74.5 32.5q64 0 104 -75q27 -50 66 -50q41 0 55 107q12 74 16 113l17 151q2 21 20 168l90 631h-287l-100 -627q-105 -672 -452 -672q-83 0 -132 39.5t-49 102.5q0 50 28 81t77 31q54 0 98 -77q25 -48 59 -48q72 0 113 263l133 907h-153v106l172 9
q48 210 122 356q147 289 392 289q113 0 196 -74zM465 883l289 2q17 103 39 198q2 10 15.5 58.5t21.5 85t6 51.5q0 57 -31.5 92t-85.5 35q-92 0 -150 -113q-57 -109 -104 -409zM1731 928q79 0 134.5 -52t55.5 -126q0 -252 -489 -340q-13 -50 -13 -111q0 -129 105 -129
q58 5 108.5 42t120.5 132l59 -33q-79 -170 -163 -257t-199 -87q-117 0 -185.5 78t-68.5 209q0 241 184 465q176 209 351 209zM1653 786q-59 0 -117 -78t-92 -223q270 83 270 232q0 69 -61 69zM2042 1528l61 -55l-295 -404q-40 -55 -82 -55q-45 0 -57 55l-98 436l78 25
l127 -240z" />
    <glyph glyph-name="ffohungarumlaut" unicode="ff&#x151;" horiz-adv-x="2080" 
d="M950 1448q80 74 203 74q85 0 144 -51.5t59 -116.5q0 -45 -29 -78t-72 -33q-71 0 -112 86q-26 49 -39 59q-12 10 -33 13q-76 0 -76 -166q0 -152 -20 -348q52 1 131 4.5t92 3.5l16 -35l-26 -98h-230l-108 -686q-95 -613 -395 -613q-86 0 -140.5 40t-54.5 102
q0 47 30.5 79.5t74.5 32.5q64 0 104 -75q27 -50 66 -50q41 0 55 107q12 74 16 113l17 151q2 21 20 168l90 631h-287l-100 -627q-105 -672 -452 -672q-83 0 -132 39.5t-49 102.5q0 50 28 81t77 31q54 0 98 -77q25 -48 59 -48q72 0 113 263l133 907h-153v106l172 9
q48 210 122 356q147 289 392 289q113 0 196 -74zM465 883l289 2q17 103 39 198q2 10 15.5 58.5t21.5 85t6 51.5q0 57 -31.5 92t-85.5 35q-92 0 -150 -113q-57 -109 -104 -409zM2013 514q0 -329 -239 -487q-92 -62 -218 -62q-133 0 -213 74q-131 116 -131 334q0 155 63.5 278
t176.5 203q101 70 217 70q126 0 215 -80q129 -117 129 -330zM1483 119q27 -47 78 -47q52 0 92 43q56 63 91.5 178t35.5 258q0 153 -39 215q-26 47 -77.5 47t-92.5 -43q-52 -58 -90 -174q-37 -112 -37 -262t39 -215zM1518 997l-58 43l152 363q59 133 141 133q47 0 76 -33
t29 -78q0 -61 -70 -137zM1823 997l-58 43l152 363q59 133 141 133q47 0 76 -33t29 -78q0 -61 -70 -137z" />
    <glyph glyph-name="ffrcaron" unicode="ff&#x159;" horiz-adv-x="1947" 
d="M950 1448q80 74 203 74q85 0 144 -51.5t59 -116.5q0 -45 -29 -78t-72 -33q-71 0 -112 86q-26 49 -39 59q-12 10 -33 13q-76 0 -76 -166q0 -152 -20 -348q52 1 131 4.5t92 3.5l16 -35l-26 -98h-230l-108 -686q-95 -613 -395 -613q-86 0 -140.5 40t-54.5 102
q0 47 30.5 79.5t74.5 32.5q64 0 104 -75q27 -50 66 -50q41 0 55 107q12 74 16 113l17 151q2 21 20 168l90 631h-287l-100 -627q-105 -672 -452 -672q-83 0 -132 39.5t-49 102.5q0 50 28 81t77 31q54 0 98 -77q25 -48 59 -48q72 0 113 263l133 907h-153v106l172 9
q48 210 122 356q147 289 392 289q113 0 196 -74zM465 883l289 2q17 103 39 198q2 10 15.5 58.5t21.5 85t6 51.5q0 57 -31.5 92t-85.5 35q-92 0 -150 -113q-57 -109 -104 -409zM1851 633q-49 0 -86 49q-28 40 -51 40.5t-51 -32.5q-33 -36 -75 -152t-72 -276l-50 -258
q-44 -20 -116 -20t-119 59q36 132 80 350l51 256q8 36 8 68q0 31 -20 31q-45 0 -127 -107l-47 37q159 246 282 246q56 0 90.5 -38.5t34.5 -103.5q0 -54 -33 -180l6 -2q64 174 127 249t134 75q61 0 100 -43.5t39 -112.5q0 -62 -30 -98.5t-75 -36.5zM1952 1528l61 -55
l-295 -404q-40 -55 -82 -55q-45 0 -57 55l-98 436l78 25l127 -240z" />
    <glyph glyph-name="ffuring" unicode="ff&#x16f;" horiz-adv-x="2185" 
d="M950 1448q80 74 203 74q85 0 144 -51.5t59 -116.5q0 -45 -29 -78t-72 -33q-71 0 -112 86q-26 49 -39 59q-12 10 -33 13q-76 0 -76 -166q0 -152 -20 -348q52 1 131 4.5t92 3.5l16 -35l-26 -98h-230l-108 -686q-95 -613 -395 -613q-86 0 -140.5 40t-54.5 102
q0 47 30.5 79.5t74.5 32.5q64 0 104 -75q27 -50 66 -50q41 0 55 107q12 74 16 113l17 151q2 21 20 168l90 631h-287l-100 -627q-105 -672 -452 -672q-83 0 -132 39.5t-49 102.5q0 50 28 81t77 31q54 0 98 -77q25 -48 59 -48q72 0 113 263l133 907h-153v106l172 9
q48 210 122 356q147 289 392 289q113 0 196 -74zM465 883l289 2q17 103 39 198q2 10 15.5 58.5t21.5 85t6 51.5q0 57 -31.5 92t-85.5 35q-92 0 -150 -113q-57 -109 -104 -409zM1784 422l-8 4q-118 -269 -203 -360q-80 -86 -189 -86q-68 0 -111.5 43t-43.5 110q0 76 49 201
l117 303q22 61 22 82q0 33 -28 33q-45 0 -154 -136l-47 37q106 153 178 213q70 58 141 58q61 0 98 -39.5t37 -106.5q0 -65 -43 -178l-122 -328q-15 -41 -15 -63q0 -39 41 -39q142 0 379 655l25 68q43 16 86 16q80 0 127 -80q-96 -268 -107 -309q-63 -213 -76 -295
q-4 -28 -4 -43q0 -26 23 -26q43 0 158 133l43 -37q-175 -272 -310 -272q-60 0 -95.5 37.5t-35.5 103.5q0 100 68 301zM1653 1145q-72 72 -72 172t72 172q71 74 172 74t172 -74q74 -71 74 -172t-74 -172q-72 -72 -172 -72t-172 72zM1722 1315q0 -43 29.5 -74t71.5 -31
q44 0 74 31t30 74q0 45 -30 76.5t-74 31.5q-42 0 -71.5 -31.5t-29.5 -76.5z" />
    <glyph glyph-name="ffamacron" unicode="ff&#x101;" horiz-adv-x="2136" 
d="M950 1448q80 74 203 74q85 0 144 -51.5t59 -116.5q0 -45 -29 -78t-72 -33q-71 0 -112 86q-26 49 -39 59q-12 10 -33 13q-76 0 -76 -166q0 -152 -20 -348q52 1 131 4.5t92 3.5l16 -35l-26 -98h-230l-108 -686q-95 -613 -395 -613q-86 0 -140.5 40t-54.5 102
q0 47 30.5 79.5t74.5 32.5q64 0 104 -75q27 -50 66 -50q41 0 55 107q12 74 16 113l17 151q2 21 20 168l90 631h-287l-100 -627q-105 -672 -452 -672q-83 0 -132 39.5t-49 102.5q0 50 28 81t77 31q54 0 98 -77q25 -48 59 -48q72 0 113 263l133 907h-153v106l172 9
q48 210 122 356q147 289 392 289q113 0 196 -74zM465 883l289 2q17 103 39 198q2 10 15.5 58.5t21.5 85t6 51.5q0 57 -31.5 92t-85.5 35q-92 0 -150 -113q-57 -109 -104 -409zM1401 256q0 -106 67 -106q45 0 109 77t133 224q52 116 70 206q-30 82 -101 82q-108 0 -190 -143
q-88 -152 -88 -340zM1901 240q-2 -16 -3.5 -30.5t-2.5 -20.5t-1 -7q0 -30 25 -30q46 0 164 157l47 -37q-103 -162 -175.5 -227t-146.5 -65q-60 0 -94.5 37.5t-34.5 99.5q0 81 19 159l-6 7q-164 -320 -336 -320q-81 0 -126.5 55.5t-45.5 149.5q0 228 196 500q98 132 200 198
t187 66q45 0 68 -10q15 -6 18 -9q3 -1 19.5 -14.5t17.5 -13.5l60 80q51 -12 118 -52q-75 -249 -108 -391q-48 -198 -59 -282zM2068 1243h-552l24 152h553z" />
    <glyph glyph-name="ffemacron" unicode="ff&#x113;" horiz-adv-x="1927" 
d="M950 1448q80 74 203 74q85 0 144 -51.5t59 -116.5q0 -45 -29 -78t-72 -33q-71 0 -112 86q-26 49 -39 59q-12 10 -33 13q-76 0 -76 -166q0 -152 -20 -348q52 1 131 4.5t92 3.5l16 -35l-26 -98h-230l-108 -686q-95 -613 -395 -613q-86 0 -140.5 40t-54.5 102
q0 47 30.5 79.5t74.5 32.5q64 0 104 -75q27 -50 66 -50q41 0 55 107q12 74 16 113l17 151q2 21 20 168l90 631h-287l-100 -627q-105 -672 -452 -672q-83 0 -132 39.5t-49 102.5q0 50 28 81t77 31q54 0 98 -77q25 -48 59 -48q72 0 113 263l133 907h-153v106l172 9
q48 210 122 356q147 289 392 289q113 0 196 -74zM465 883l289 2q17 103 39 198q2 10 15.5 58.5t21.5 85t6 51.5q0 57 -31.5 92t-85.5 35q-92 0 -150 -113q-57 -109 -104 -409zM1731 928q79 0 134.5 -52t55.5 -126q0 -252 -489 -340q-13 -50 -13 -111q0 -129 105 -129
q58 5 108.5 42t120.5 132l59 -33q-79 -170 -163 -257t-199 -87q-117 0 -185.5 78t-68.5 209q0 241 184 465q176 209 351 209zM1653 786q-59 0 -117 -78t-92 -223q270 83 270 232q0 69 -61 69zM2011 1243h-553l25 152h553z" />
    <glyph glyph-name="ffedotaccent" unicode="ff&#x117;" horiz-adv-x="1927" 
d="M950 1448q80 74 203 74q85 0 144 -51.5t59 -116.5q0 -45 -29 -78t-72 -33q-71 0 -112 86q-26 49 -39 59q-12 10 -33 13q-76 0 -76 -166q0 -152 -20 -348q52 1 131 4.5t92 3.5l16 -35l-26 -98h-230l-108 -686q-95 -613 -395 -613q-86 0 -140.5 40t-54.5 102
q0 47 30.5 79.5t74.5 32.5q64 0 104 -75q27 -50 66 -50q41 0 55 107q12 74 16 113l17 151q2 21 20 168l90 631h-287l-100 -627q-105 -672 -452 -672q-83 0 -132 39.5t-49 102.5q0 50 28 81t77 31q54 0 98 -77q25 -48 59 -48q72 0 113 263l133 907h-153v106l172 9
q48 210 122 356q147 289 392 289q113 0 196 -74zM465 883l289 2q17 103 39 198q2 10 15.5 58.5t21.5 85t6 51.5q0 57 -31.5 92t-85.5 35q-92 0 -150 -113q-57 -109 -104 -409zM1731 928q79 0 134.5 -52t55.5 -126q0 -252 -489 -340q-13 -50 -13 -111q0 -129 105 -129
q58 5 108.5 42t120.5 132l59 -33q-79 -170 -163 -257t-199 -87q-117 0 -185.5 78t-68.5 209q0 241 184 465q176 209 351 209zM1653 786q-59 0 -117 -78t-92 -223q270 83 270 232q0 69 -61 69zM1640 1241q-41 41 -41 106.5t41 106.5q43 41 106.5 41t104.5 -41
q43 -41 43 -106.5t-43 -106.5q-41 -41 -104.5 -41t-106.5 41z" />
    <glyph glyph-name="ffgcommaaccent" unicode="ff&#x123;" horiz-adv-x="2041" 
d="M950 1448q80 74 203 74q85 0 144 -51.5t59 -116.5q0 -45 -29 -78t-72 -33q-71 0 -112 86q-26 49 -39 59q-12 10 -33 13q-76 0 -76 -166q0 -152 -20 -348q52 1 131 4.5t92 3.5l16 -35l-26 -98h-230l-108 -686q-95 -613 -395 -613q-86 0 -140.5 40t-54.5 102
q0 47 30.5 79.5t74.5 32.5q64 0 104 -75q27 -50 66 -50q41 0 55 107q12 74 16 113l17 151q2 21 20 168l90 631h-287l-100 -627q-105 -672 -452 -672q-83 0 -132 39.5t-49 102.5q0 50 28 81t77 31q54 0 98 -77q25 -48 59 -48q72 0 113 263l133 907h-153v106l172 9
q48 210 122 356q147 289 392 289q113 0 196 -74zM465 883l289 2q17 103 39 198q2 10 15.5 58.5t21.5 85t6 51.5q0 57 -31.5 92t-85.5 35q-92 0 -150 -113q-57 -109 -104 -409zM1567 242q-116 0 -181 39q-14 -20 -14 -50q0 -51 105 -94l202 -82q222 -89 222 -280
q0 -139 -117 -238q-115 -100 -324 -100q-197 0 -309.5 81t-112.5 208q0 189 232 278q-60 60 -60 137q0 92 115 187q-76 88 -76 192q0 160 113 279t270 119q122 0 232 -78q96 22 200 61l31 -31v-114l-170 -11q23 -57 23 -127q0 -156 -109 -268q-108 -108 -272 -108z
M1620 -166l-176 74q-92 39 -115 53q-104 -58 -104 -182q0 -87 84.5 -141t230.5 -54q100 0 151.5 33.5t51.5 89.5q0 77 -123 127zM1470 518q0 -172 91 -172q72 0 116 92q45 91 45 201q0 174 -86 174q-73 0 -120 -90q-46 -88 -46 -205zM1753 1028q-62 0 -101.5 49t-39.5 127
q0 112 84.5 197.5t228.5 114.5l23 -64q-98 -38 -138.5 -71t-40.5 -72q0 -32 37 -56q68 -47 68 -110q0 -48 -34 -81.5t-87 -33.5z" />
    <glyph glyph-name="ffiogonek" unicode="ff&#x12f;" horiz-adv-x="1570" 
d="M1337 -199l49 -24q-65 -189 -231 -189q-71 0 -118.5 41.5t-47.5 102.5q0 142 203 250q-48 11 -77.5 43.5t-29.5 78.5q0 52 31 195l70 309q16 75 16 103q0 51 -108 51h-136l-108 -686q-95 -613 -395 -613q-86 0 -140.5 40t-54.5 102q0 47 30.5 79.5t74.5 32.5
q64 0 104 -75q27 -50 66 -50q41 0 55 107q12 74 16 113l17 151q2 21 20 168l90 631h-287l-100 -627q-105 -672 -452 -672q-83 0 -132 39.5t-49 102.5q0 50 28 81t77 31q54 0 98 -77q25 -48 59 -48q72 0 113 263l133 907h-153v106l172 9q42 202 120 356q68 134 183.5 211.5
t240.5 77.5q151 0 240 -95q115 95 260 95q124 0 205.5 -59t81.5 -156q0 -58 -34 -92.5t-93 -34.5q-98 0 -139 133q-27 88 -86 88q-161 0 -244 -514l139 6q233 9 320 45l61 -37q-80 -289 -84 -307l-88 -381q-6 -24 -6 -45q0 -27 22 -27q51 0 166 158l47 -37
q-112 -205 -241 -262q-168 -107 -168 -225q0 -30 18.5 -49t52.5 -19q71 0 123 94zM465 883l289 2q29 138 65 231l37 88q16 36 16 64q0 61 -35.5 97t-97.5 36q-94 0 -161 -113q-68 -120 -113 -405z" />
    <glyph glyph-name="fflcommaaccent" unicode="ff&#x13c;" horiz-adv-x="1611" 
d="M465 883l289 2q29 138 65 231l37 88q16 36 16 64q0 61 -35.5 97t-97.5 36q-94 0 -161 -113q-68 -120 -113 -405zM1124 301l109 461h-275l-108 -686q-95 -613 -395 -613q-86 0 -140.5 40t-54.5 102q0 47 30.5 79.5t74.5 32.5q64 0 104 -75q27 -50 66 -50q41 0 55 107
q12 74 16 113l17 151q2 21 20 168l90 631h-287l-100 -627q-105 -672 -452 -672q-83 0 -132 39.5t-49 102.5q0 50 28 81t77 31q54 0 98 -77q25 -48 59 -48q72 0 113 263l133 907h-153v106l172 9q42 202 120 356q68 134 183.5 211.5t240.5 77.5q151 0 240 -95q115 95 260 95
q114 0 199 -54l137 72l39 -33q-48 -152 -98 -354l-224 -924q-6 -30 -6 -39q0 -26 27 -26q60 0 192 170l47 -35q-193 -319 -385 -319q-53 0 -89 32t-36 86q0 52 37 203zM979 887q55 0 127 2q28 1 63 1.5t58 1t37 1.5l61 258q23 104 23 137q0 54 -26.5 85.5t-70.5 31.5
q-92 0 -159 -113q-68 -116 -113 -405zM1151 -74q62 0 101.5 -49t39.5 -127q0 -112 -84 -197t-229 -114l-23 63q98 37 138.5 71t40.5 73q0 31 -37 55q-68 47 -68 111q0 48 34 81t87 33z" />
    <glyph glyph-name="ffimacron" unicode="ff&#x12b;" horiz-adv-x="1732" 
d="M950 1448q80 74 203 74q85 0 144 -51.5t59 -116.5q0 -45 -29 -78t-72 -33q-71 0 -112 86q-26 49 -39 59q-12 10 -33 13q-76 0 -76 -166q0 -152 -20 -348q52 1 131 4.5t92 3.5l16 -35l-26 -98h-230l-108 -686q-95 -613 -395 -613q-86 0 -140.5 40t-54.5 102
q0 47 30.5 79.5t74.5 32.5q64 0 104 -75q27 -50 66 -50q41 0 55 107q12 74 16 113l17 151q2 21 20 168l90 631h-287l-100 -627q-105 -672 -452 -672q-83 0 -132 39.5t-49 102.5q0 50 28 81t77 31q54 0 98 -77q25 -48 59 -48q72 0 113 263l133 907h-153v106l172 9
q48 210 122 356q147 289 392 289q113 0 196 -74zM465 883l289 2q17 103 39 198q2 10 15.5 58.5t21.5 85t6 51.5q0 57 -31.5 92t-85.5 35q-92 0 -150 -113q-57 -109 -104 -409zM1268 299l114 309q33 85 33 105q0 24 -22 24q-39 0 -146 -110l-41 37q178 260 318 260
q57 0 90 -37t33 -99q0 -55 -41 -167l-146 -408q-14 -41 -14 -53q0 -19 20 -19q47 0 162 158l47 -37q-156 -282 -327 -282q-56 0 -92.5 38t-36.5 93q0 57 49 188zM1886 1243h-471l25 152h471z" />
    <glyph glyph-name="ffomacron" unicode="ff&#x14d;" horiz-adv-x="2080" 
d="M950 1448q80 74 203 74q85 0 144 -51.5t59 -116.5q0 -45 -29 -78t-72 -33q-71 0 -112 86q-26 49 -39 59q-12 10 -33 13q-76 0 -76 -166q0 -152 -20 -348q52 1 131 4.5t92 3.5l16 -35l-26 -98h-230l-108 -686q-95 -613 -395 -613q-86 0 -140.5 40t-54.5 102
q0 47 30.5 79.5t74.5 32.5q64 0 104 -75q27 -50 66 -50q41 0 55 107q12 74 16 113l17 151q2 21 20 168l90 631h-287l-100 -627q-105 -672 -452 -672q-83 0 -132 39.5t-49 102.5q0 50 28 81t77 31q54 0 98 -77q25 -48 59 -48q72 0 113 263l133 907h-153v106l172 9
q48 210 122 356q147 289 392 289q113 0 196 -74zM465 883l289 2q17 103 39 198q2 10 15.5 58.5t21.5 85t6 51.5q0 57 -31.5 92t-85.5 35q-92 0 -150 -113q-57 -109 -104 -409zM2013 514q0 -329 -239 -487q-92 -62 -218 -62q-133 0 -213 74q-131 116 -131 334q0 155 63.5 278
t176.5 203q101 70 217 70q126 0 215 -80q129 -117 129 -330zM1483 119q27 -47 78 -47q52 0 92 43q56 63 91.5 178t35.5 258q0 153 -39 215q-26 47 -77.5 47t-92.5 -43q-52 -58 -90 -174q-37 -112 -37 -262t39 -215zM2017 1243h-553l25 152h553z" />
    <glyph glyph-name="ffumacron" unicode="ff&#x16b;" horiz-adv-x="2185" 
d="M950 1448q80 74 203 74q85 0 144 -51.5t59 -116.5q0 -45 -29 -78t-72 -33q-71 0 -112 86q-26 49 -39 59q-12 10 -33 13q-76 0 -76 -166q0 -152 -20 -348q52 1 131 4.5t92 3.5l16 -35l-26 -98h-230l-108 -686q-95 -613 -395 -613q-86 0 -140.5 40t-54.5 102
q0 47 30.5 79.5t74.5 32.5q64 0 104 -75q27 -50 66 -50q41 0 55 107q12 74 16 113l17 151q2 21 20 168l90 631h-287l-100 -627q-105 -672 -452 -672q-83 0 -132 39.5t-49 102.5q0 50 28 81t77 31q54 0 98 -77q25 -48 59 -48q72 0 113 263l133 907h-153v106l172 9
q48 210 122 356q147 289 392 289q113 0 196 -74zM465 883l289 2q17 103 39 198q2 10 15.5 58.5t21.5 85t6 51.5q0 57 -31.5 92t-85.5 35q-92 0 -150 -113q-57 -109 -104 -409zM1784 422l-8 4q-118 -269 -203 -360q-80 -86 -189 -86q-68 0 -111.5 43t-43.5 110q0 76 49 201
l117 303q22 61 22 82q0 33 -28 33q-45 0 -154 -136l-47 37q106 153 178 213q70 58 141 58q61 0 98 -39.5t37 -106.5q0 -65 -43 -178l-122 -328q-15 -41 -15 -63q0 -39 41 -39q142 0 379 655l25 68q43 16 86 16q80 0 127 -80q-96 -268 -107 -309q-63 -213 -76 -295
q-4 -28 -4 -43q0 -26 23 -26q43 0 158 133l43 -37q-175 -272 -310 -272q-60 0 -95.5 37.5t-35.5 103.5q0 100 68 301zM2101 1243h-553l25 152h553z" />
    <glyph glyph-name="ffkcommaaccent" unicode="ff&#x137;" horiz-adv-x="1996" 
d="M465 883l289 2q29 138 65 231l37 88q16 36 16 64q0 61 -35.5 97t-97.5 36q-94 0 -161 -113q-68 -120 -113 -405zM1272 891l47 201q29 119 29 184q0 129 -101 129q-93 0 -157 -113q-68 -116 -113 -405q13 0 49.5 0.5t106.5 1.5t139 2zM1284 1522q114 0 199 -54l145 72
l39 -33q-61 -187 -102 -354l-119 -479l8 -2q87 137 156 194.5t155 57.5q73 0 123.5 -51t50.5 -125q0 -94 -65.5 -156t-220.5 -105q22 -117 65 -231q40 -104 76 -104q35 0 94 157l56 -16q-40 -167 -95 -240t-127 -73q-45 0 -86 26t-69 66q-28 44 -49 100q-38 101 -68 227
l25 88q245 88 245 201q0 28 -16.5 47t-44.5 19q-66 0 -150 -90q-79 -88 -120 -267l-93 -393q-44 -20 -116 -20q-70 0 -117 59q48 159 92 348l86 371h-283l-108 -686q-95 -613 -395 -613q-86 0 -140.5 40t-54.5 102q0 47 30.5 79.5t74.5 32.5q64 0 104 -75q27 -50 66 -50
q41 0 55 107q12 74 16 113l17 151q2 21 20 168l90 631h-287l-100 -627q-105 -672 -452 -672q-83 0 -132 39.5t-49 102.5q0 50 28 81t77 31q54 0 98 -77q25 -48 59 -48q72 0 113 263l133 907h-153v106l172 9q42 202 120 356q68 134 183.5 211.5t240.5 77.5q151 0 240 -95
q115 95 260 95zM1421 -74q62 0 102 -49t40 -127q0 -112 -84.5 -197t-229.5 -114l-22 63q97 37 137.5 71t40.5 73q0 31 -37 55q-68 47 -68 111q0 48 34 81t87 33z" />
    <glyph glyph-name="ffgbreve" unicode="ff&#x11f;" horiz-adv-x="2041" 
d="M950 1448q80 74 203 74q85 0 144 -51.5t59 -116.5q0 -45 -29 -78t-72 -33q-71 0 -112 86q-26 49 -39 59q-12 10 -33 13q-76 0 -76 -166q0 -152 -20 -348q52 1 131 4.5t92 3.5l16 -35l-26 -98h-230l-108 -686q-95 -613 -395 -613q-86 0 -140.5 40t-54.5 102
q0 47 30.5 79.5t74.5 32.5q64 0 104 -75q27 -50 66 -50q41 0 55 107q12 74 16 113l17 151q2 21 20 168l90 631h-287l-100 -627q-105 -672 -452 -672q-83 0 -132 39.5t-49 102.5q0 50 28 81t77 31q54 0 98 -77q25 -48 59 -48q72 0 113 263l133 907h-153v106l172 9
q48 210 122 356q147 289 392 289q113 0 196 -74zM465 883l289 2q17 103 39 198q2 10 15.5 58.5t21.5 85t6 51.5q0 57 -31.5 92t-85.5 35q-92 0 -150 -113q-57 -109 -104 -409zM1567 242q-116 0 -181 39q-14 -20 -14 -50q0 -51 105 -94l202 -82q222 -89 222 -280
q0 -139 -117 -238q-115 -100 -324 -100q-197 0 -309.5 81t-112.5 208q0 189 232 278q-60 60 -60 137q0 92 115 187q-76 88 -76 192q0 160 113 279t270 119q122 0 232 -78q96 22 200 61l31 -31v-114l-170 -11q23 -57 23 -127q0 -156 -109 -268q-108 -108 -272 -108z
M1620 -166l-176 74q-92 39 -115 53q-104 -58 -104 -182q0 -87 84.5 -141t230.5 -54q100 0 151.5 33.5t51.5 89.5q0 77 -123 127zM1470 518q0 -172 91 -172q72 0 116 92q45 91 45 201q0 174 -86 174q-73 0 -120 -90q-46 -88 -46 -205zM1714 1065q-106 0 -165.5 73.5
t-59.5 204.5q0 81 14 166h88v-36q0 -115 31 -163t96 -48q158 0 252 249l86 -18q-41 -210 -133 -319t-209 -109z" />
    <glyph glyph-name="ffgcircumflex" unicode="ff&#x11d;" horiz-adv-x="2041" 
d="M950 1448q80 74 203 74q85 0 144 -51.5t59 -116.5q0 -45 -29 -78t-72 -33q-71 0 -112 86q-26 49 -39 59q-12 10 -33 13q-76 0 -76 -166q0 -152 -20 -348q52 1 131 4.5t92 3.5l16 -35l-26 -98h-230l-108 -686q-95 -613 -395 -613q-86 0 -140.5 40t-54.5 102
q0 47 30.5 79.5t74.5 32.5q64 0 104 -75q27 -50 66 -50q41 0 55 107q12 74 16 113l17 151q2 21 20 168l90 631h-287l-100 -627q-105 -672 -452 -672q-83 0 -132 39.5t-49 102.5q0 50 28 81t77 31q54 0 98 -77q25 -48 59 -48q72 0 113 263l133 907h-153v106l172 9
q48 210 122 356q147 289 392 289q113 0 196 -74zM465 883l289 2q17 103 39 198q2 10 15.5 58.5t21.5 85t6 51.5q0 57 -31.5 92t-85.5 35q-92 0 -150 -113q-57 -109 -104 -409zM1567 242q-116 0 -181 39q-14 -20 -14 -50q0 -51 105 -94l202 -82q222 -89 222 -280
q0 -139 -117 -238q-115 -100 -324 -100q-197 0 -309.5 81t-112.5 208q0 189 232 278q-60 60 -60 137q0 92 115 187q-76 88 -76 192q0 160 113 279t270 119q122 0 232 -78q96 22 200 61l31 -31v-114l-170 -11q23 -57 23 -127q0 -156 -109 -268q-108 -108 -272 -108z
M1620 -166l-176 74q-92 39 -115 53q-104 -58 -104 -182q0 -87 84.5 -141t230.5 -54q100 0 151.5 33.5t51.5 89.5q0 77 -123 127zM1470 518q0 -172 91 -172q72 0 116 92q45 91 45 201q0 174 -86 174q-73 0 -120 -90q-46 -88 -46 -205zM1505 1016l-61 55l295 404q40 55 82 55
q45 0 57 -55l98 -437l-78 -24l-126 239z" />
    <glyph glyph-name="ffgdotaccent" unicode="ff&#x121;" horiz-adv-x="2041" 
d="M950 1448q80 74 203 74q85 0 144 -51.5t59 -116.5q0 -45 -29 -78t-72 -33q-71 0 -112 86q-26 49 -39 59q-12 10 -33 13q-76 0 -76 -166q0 -152 -20 -348q52 1 131 4.5t92 3.5l16 -35l-26 -98h-230l-108 -686q-95 -613 -395 -613q-86 0 -140.5 40t-54.5 102
q0 47 30.5 79.5t74.5 32.5q64 0 104 -75q27 -50 66 -50q41 0 55 107q12 74 16 113l17 151q2 21 20 168l90 631h-287l-100 -627q-105 -672 -452 -672q-83 0 -132 39.5t-49 102.5q0 50 28 81t77 31q54 0 98 -77q25 -48 59 -48q72 0 113 263l133 907h-153v106l172 9
q48 210 122 356q147 289 392 289q113 0 196 -74zM465 883l289 2q17 103 39 198q2 10 15.5 58.5t21.5 85t6 51.5q0 57 -31.5 92t-85.5 35q-92 0 -150 -113q-57 -109 -104 -409zM1567 242q-116 0 -181 39q-14 -20 -14 -50q0 -51 105 -94l202 -82q222 -89 222 -280
q0 -139 -117 -238q-115 -100 -324 -100q-197 0 -309.5 81t-112.5 208q0 189 232 278q-60 60 -60 137q0 92 115 187q-76 88 -76 192q0 160 113 279t270 119q122 0 232 -78q96 22 200 61l31 -31v-114l-170 -11q23 -57 23 -127q0 -156 -109 -268q-108 -108 -272 -108z
M1620 -166l-176 74q-92 39 -115 53q-104 -58 -104 -182q0 -87 84.5 -141t230.5 -54q100 0 151.5 33.5t51.5 89.5q0 77 -123 127zM1470 518q0 -172 91 -172q72 0 116 92q45 91 45 201q0 174 -86 174q-73 0 -120 -90q-46 -88 -46 -205zM1630 1241q-41 41 -41 106.5t41 106.5
t106.5 41t106.5 -41t41 -106.5t-41 -106.5t-106.5 -41t-106.5 41z" />
    <glyph glyph-name="ffhcircumflex" unicode="ff&#x125;" horiz-adv-x="2015" 
d="M465 883l289 2q29 138 65 231l37 88q16 36 16 64q0 61 -35.5 97t-97.5 36q-94 0 -161 -113q-68 -120 -113 -405zM977 887h63q136 4 232 4l47 201q29 126 29 184q0 61 -26 95t-71 34q-92 0 -159 -113q-69 -117 -115 -405zM1284 1522q114 0 199 -54l145 72l39 -33
q-48 -145 -102 -354l-127 -473l6 -2q84 142 151.5 194t155.5 52q69 0 113.5 -50.5t44.5 -128.5q0 -62 -29 -157l-125 -391q-4 -16 -4 -27q0 -18 18 -18q51 0 164 143l47 -37q-175 -278 -331 -278q-53 0 -92 40t-39 89q0 62 41 190l100 313q14 43 14 76q0 45 -43 45
q-68 0 -139 -88.5t-107 -245.5l-94 -395q-44 -20 -116 -20t-119 59q77 261 98 350l88 369h-283l-108 -686q-95 -613 -395 -613q-86 0 -140.5 40t-54.5 102q0 47 30.5 79.5t74.5 32.5q64 0 104 -75q27 -50 66 -50q41 0 55 107q12 74 16 113l17 151q2 21 20 168l90 631h-287
l-100 -627q-105 -672 -452 -672q-83 0 -132 39.5t-49 102.5q0 50 28 81t77 31q54 0 98 -77q25 -48 59 -48q72 0 113 263l133 907h-153v106l172 9q42 202 120 356q68 134 183.5 211.5t240.5 77.5q151 0 240 -95q115 95 260 95zM1235 1569l-37 71l289 193q71 47 102 47
q27 0 43 -16l37 -31l223 -199l-39 -69l-280 123z" />
    <glyph glyph-name="ffhbar" unicode="ff&#x127;" horiz-adv-x="2015" 
d="M1913 1204l-25 -139h-348l-102 -385l6 -2q84 142 151.5 194t155.5 52q69 0 113.5 -50.5t44.5 -128.5q0 -62 -29 -157l-125 -391q-4 -16 -4 -27q0 -18 18 -18q51 0 164 143l47 -37q-175 -278 -331 -278q-53 0 -92 40t-39 89q0 62 41 190l100 313q14 43 14 76q0 45 -43 45
q-68 0 -139 -88.5t-107 -245.5l-94 -395q-44 -20 -116 -20t-119 59q77 261 98 350l88 369h-283l-108 -686q-95 -613 -395 -613q-86 0 -140.5 40t-54.5 102q0 47 30.5 79.5t74.5 32.5q64 0 104 -75q27 -50 66 -50q41 0 55 107q12 74 16 113l17 151q2 21 20 168l90 631h-287
l-100 -627q-105 -672 -452 -672q-83 0 -132 39.5t-49 102.5q0 50 28 81t77 31q54 0 98 -77q25 -48 59 -48q72 0 113 263l133 907h-153v106l172 9q42 202 120 356q68 134 183.5 211.5t240.5 77.5q151 0 240 -95q115 95 260 95q114 0 199 -54l145 72l39 -33q-49 -146 -90 -303
h336zM465 883l289 2q29 138 65 231l37 88q16 36 16 64q0 61 -35.5 97t-97.5 36q-94 0 -161 -113q-68 -120 -113 -405zM977 887h63q136 4 232 4l41 174h-101l25 139h104q7 44 7 72q0 61 -26 95t-71 34q-92 0 -159 -113q-69 -117 -115 -405z" />
    <glyph glyph-name="ffitilde" unicode="ff&#x129;" horiz-adv-x="1732" 
d="M950 1448q80 74 203 74q85 0 144 -51.5t59 -116.5q0 -45 -29 -78t-72 -33q-71 0 -112 86q-26 49 -39 59q-12 10 -33 13q-76 0 -76 -166q0 -152 -20 -348q52 1 131 4.5t92 3.5l16 -35l-26 -98h-230l-108 -686q-95 -613 -395 -613q-86 0 -140.5 40t-54.5 102
q0 47 30.5 79.5t74.5 32.5q64 0 104 -75q27 -50 66 -50q41 0 55 107q12 74 16 113l17 151q2 21 20 168l90 631h-287l-100 -627q-105 -672 -452 -672q-83 0 -132 39.5t-49 102.5q0 50 28 81t77 31q54 0 98 -77q25 -48 59 -48q72 0 113 263l133 907h-153v106l172 9
q48 210 122 356q147 289 392 289q113 0 196 -74zM465 883l289 2q17 103 39 198q2 10 15.5 58.5t21.5 85t6 51.5q0 57 -31.5 92t-85.5 35q-92 0 -150 -113q-57 -109 -104 -409zM1272 299l114 309q33 85 33 105q0 24 -22 24q-39 0 -146 -110l-41 37q178 260 318 260
q57 0 90 -37t33 -99q0 -55 -41 -167l-146 -408q-14 -41 -14 -53q0 -19 20 -19q47 0 162 158l47 -37q-156 -282 -327 -282q-56 0 -92.5 38t-36.5 93q0 57 49 188zM1931 1298l45 -30q-29 -85 -93 -139t-134 -54q-67 0 -137 43t-117 43q-68 0 -143 -63l-45 30q29 85 93 139
t134 54q67 0 137 -43t117 -43q68 0 143 63z" />
    <glyph glyph-name="ffibreve" unicode="ff&#x12d;" horiz-adv-x="1753" 
d="M950 1448q80 74 203 74q85 0 144 -51.5t59 -116.5q0 -45 -29 -78t-72 -33q-71 0 -112 86q-26 49 -39 59q-12 10 -33 13q-76 0 -76 -166q0 -152 -20 -348q52 1 131 4.5t92 3.5l16 -35l-26 -98h-230l-108 -686q-95 -613 -395 -613q-86 0 -140.5 40t-54.5 102
q0 47 30.5 79.5t74.5 32.5q64 0 104 -75q27 -50 66 -50q41 0 55 107q12 74 16 113l17 151q2 21 20 168l90 631h-287l-100 -627q-105 -672 -452 -672q-83 0 -132 39.5t-49 102.5q0 50 28 81t77 31q54 0 98 -77q25 -48 59 -48q72 0 113 263l133 907h-153v106l172 9
q48 210 122 356q147 289 392 289q113 0 196 -74zM465 883l289 2q17 103 39 198q2 10 15.5 58.5t21.5 85t6 51.5q0 57 -31.5 92t-85.5 35q-92 0 -150 -113q-57 -109 -104 -409zM1292 299l115 309q33 85 33 105q0 24 -23 24q-38 0 -145 -110l-41 37q178 260 317 260
q57 0 90 -37t33 -99q0 -55 -41 -167l-145 -408q-15 -43 -15 -53q0 -19 21 -19q47 0 162 158l47 -37q-156 -282 -328 -282q-56 0 -92.5 38t-36.5 93q0 57 49 188zM1624 1065q-106 0 -165.5 73.5t-59.5 204.5q0 81 14 166h88v-36q0 -115 31 -163t96 -48q157 0 252 249l86 -18
q-41 -210 -133 -319t-209 -109z" />
    <glyph glyph-name="ffij" unicode="ff&#x133;" horiz-adv-x="2111" 
d="M1284 1522q124 0 205.5 -59t81.5 -156q0 -58 -34 -92.5t-93 -34.5q-98 0 -139 133q-27 88 -86 88q-161 0 -244 -514l139 6q233 9 320 45l61 -37q-80 -289 -84 -307l-88 -381q-6 -24 -6 -45q0 -27 22 -27q51 0 166 158l47 -37q-80 -145 -167.5 -213.5t-165.5 -68.5
q-56 0 -95 35.5t-39 88.5q0 52 31 195l70 309q16 75 16 103q0 51 -108 51h-136l-108 -686q-95 -613 -395 -613q-86 0 -140.5 40t-54.5 102q0 47 30.5 79.5t74.5 32.5q64 0 104 -75q27 -50 66 -50q41 0 55 107q12 74 16 113l17 151q2 21 20 168l90 631h-287l-100 -627
q-105 -672 -452 -672q-83 0 -132 39.5t-49 102.5q0 50 28 81t77 31q54 0 98 -77q25 -48 59 -48q72 0 113 263l133 907h-153v106l172 9q42 202 120 356q68 134 183.5 211.5t240.5 77.5q151 0 240 -95q115 95 260 95zM465 883l289 2q29 138 65 231l37 88q16 36 16 64
q0 61 -35.5 97t-97.5 36q-94 0 -161 -113q-68 -120 -113 -405zM1858 1348q0 61 42.5 104t104.5 43q64 0 105.5 -41t41.5 -106t-41.5 -106.5t-105.5 -41.5t-105.5 41.5t-41.5 106.5zM2013 606l-112 -456q-170 -687 -498 -687q-79 0 -125.5 36t-46.5 98q0 44 29.5 75t70.5 31
q54 0 101 -68q30 -43 61 -43q32 0 57.5 47t55.5 171l190 819q16 82 16 84q0 32 -26 32q-38 0 -125 -118l-49 30q150 267 280 267q68 0 107 -41.5t39 -118.5q0 -55 -25 -158z" />
    <glyph glyph-name="ffjcircumflex" unicode="ff&#x135;" horiz-adv-x="1708" 
d="M950 1448q80 74 203 74q85 0 144 -51.5t59 -116.5q0 -45 -29 -78t-72 -33q-71 0 -112 86q-26 49 -39 59q-12 10 -33 13q-76 0 -76 -166q0 -152 -20 -348q52 1 131 4.5t92 3.5l16 -35l-26 -98h-230l-108 -686q-95 -613 -395 -613q-86 0 -140.5 40t-54.5 102
q0 47 30.5 79.5t74.5 32.5q64 0 104 -75q27 -50 66 -50q41 0 55 107q12 74 16 113l17 151q2 21 20 168l90 631h-287l-100 -627q-105 -672 -452 -672q-83 0 -132 39.5t-49 102.5q0 50 28 81t77 31q54 0 98 -77q25 -48 59 -48q72 0 113 263l133 907h-153v106l172 9
q48 210 122 356q147 289 392 289q113 0 196 -74zM465 883l289 2q17 103 39 198q2 10 15.5 58.5t21.5 85t6 51.5q0 57 -31.5 92t-85.5 35q-92 0 -150 -113q-57 -109 -104 -409zM1610 606l-113 -456q-170 -687 -498 -687q-79 0 -125.5 36t-46.5 98q0 44 30 75t71 31
q53 0 100 -68q30 -43 62 -43t57 46.5t55 171.5l191 819q16 82 16 84q0 32 -27 32q-38 0 -125 -118l-49 30q150 267 281 267q68 0 106.5 -41.5t38.5 -118.5q0 -59 -24 -158zM1321 1016l-61 55l294 404q40 55 82 55q46 0 58 -55l98 -437l-78 -24l-127 239z" />
    <glyph glyph-name="ffldot" unicode="ff&#x140;" horiz-adv-x="1871" 
d="M465 883l289 2q29 138 65 231l37 88q16 36 16 64q0 61 -35.5 97t-97.5 36q-94 0 -161 -113q-68 -120 -113 -405zM1124 301l109 461h-275l-108 -686q-95 -613 -395 -613q-86 0 -140.5 40t-54.5 102q0 47 30.5 79.5t74.5 32.5q64 0 104 -75q27 -50 66 -50q41 0 55 107
q12 74 16 113l17 151q2 21 20 168l90 631h-287l-100 -627q-105 -672 -452 -672q-83 0 -132 39.5t-49 102.5q0 50 28 81t77 31q54 0 98 -77q25 -48 59 -48q72 0 113 263l133 907h-153v106l172 9q42 202 120 356q68 134 183.5 211.5t240.5 77.5q151 0 240 -95q115 95 260 95
q114 0 199 -54l137 72l39 -33q-48 -152 -98 -354l-224 -924q-6 -30 -6 -39q0 -26 27 -26q60 0 192 170l47 -35q-193 -319 -385 -319q-53 0 -89 32t-36 86q0 52 37 203zM979 887q55 0 127 2q28 1 63 1.5t58 1t37 1.5l61 258q23 104 23 137q0 54 -26.5 85.5t-70.5 31.5
q-92 0 -159 -113q-68 -116 -113 -405zM1602 399q-41 43 -41 106.5t41 104.5q41 43 106.5 43t106.5 -43q41 -41 41 -104.5t-41 -106.5q-41 -41 -106.5 -41t-106.5 41z" />
    <glyph glyph-name="ffnapostrophe" unicode="ff&#x149;" horiz-adv-x="2164" 
d="M950 1448q80 74 203 74q85 0 144 -51.5t59 -116.5q0 -45 -29 -78t-72 -33q-71 0 -112 86q-26 49 -39 59q-12 10 -33 13q-76 0 -76 -166q0 -152 -20 -348q52 1 131 4.5t92 3.5l16 -35l-26 -98h-230l-108 -686q-95 -613 -395 -613q-86 0 -140.5 40t-54.5 102
q0 47 30.5 79.5t74.5 32.5q64 0 104 -75q27 -50 66 -50q41 0 55 107q12 74 16 113l17 151q2 21 20 168l90 631h-287l-100 -627q-105 -672 -452 -672q-83 0 -132 39.5t-49 102.5q0 50 28 81t77 31q54 0 98 -77q25 -48 59 -48q72 0 113 263l133 907h-153v106l172 9
q48 210 122 356q147 289 392 289q113 0 196 -74zM465 883l289 2q17 103 39 198q2 10 15.5 58.5t21.5 85t6 51.5q0 57 -31.5 92t-85.5 35q-92 0 -150 -113q-57 -109 -104 -409zM1780 733q-68 0 -139 -88.5t-107 -245.5l-94 -395q-44 -20 -117 -20q-72 0 -119 59
q64 212 99 350l61 256q12 47 12 76q0 23 -20 23q-45 0 -127 -107l-47 37q159 246 282 246q56 0 90.5 -38.5t34.5 -103.5q0 -51 -28 -149l6 -2q94 175 170 233q78 60 164 60q69 0 113 -50.5t44 -128.5q0 -65 -28 -157l-125 -391q-4 -16 -4 -27q0 -18 18 -18q51 0 164 143
l47 -37q-175 -278 -332 -278q-53 0 -92 40t-39 89q0 62 41 190l100 313q15 47 15 76q0 45 -43 45zM1573 1589q62 0 101.5 -49t39.5 -127q0 -112 -84 -197t-229 -114l-23 63q97 37 137.5 71t40.5 73q0 32 -36 55q-68 47 -68 111q0 48 34 81t87 33z" />
    <glyph glyph-name="ffobreve" unicode="ff&#x14f;" horiz-adv-x="2080" 
d="M950 1448q80 74 203 74q85 0 144 -51.5t59 -116.5q0 -45 -29 -78t-72 -33q-71 0 -112 86q-26 49 -39 59q-12 10 -33 13q-76 0 -76 -166q0 -152 -20 -348q52 1 131 4.5t92 3.5l16 -35l-26 -98h-230l-108 -686q-95 -613 -395 -613q-86 0 -140.5 40t-54.5 102
q0 47 30.5 79.5t74.5 32.5q64 0 104 -75q27 -50 66 -50q41 0 55 107q12 74 16 113l17 151q2 21 20 168l90 631h-287l-100 -627q-105 -672 -452 -672q-83 0 -132 39.5t-49 102.5q0 50 28 81t77 31q54 0 98 -77q25 -48 59 -48q72 0 113 263l133 907h-153v106l172 9
q48 210 122 356q147 289 392 289q113 0 196 -74zM465 883l289 2q17 103 39 198q2 10 15.5 58.5t21.5 85t6 51.5q0 57 -31.5 92t-85.5 35q-92 0 -150 -113q-57 -109 -104 -409zM2013 514q0 -329 -239 -487q-92 -62 -218 -62q-133 0 -213 74q-131 116 -131 334q0 155 63.5 278
t176.5 203q101 70 217 70q126 0 215 -80q129 -117 129 -330zM1483 119q27 -47 78 -47q52 0 92 43q56 63 91.5 178t35.5 258q0 153 -39 215q-26 47 -77.5 47t-92.5 -43q-52 -58 -90 -174q-37 -112 -37 -262t39 -215zM1731 1065q-106 0 -166 74t-60 204q0 75 15 166h88v-36
q0 -115 31 -163t96 -48q157 0 252 249l86 -18q-41 -210 -133 -319t-209 -109z" />
    <glyph glyph-name="ffscircumflex" unicode="ff&#x15d;" horiz-adv-x="1841" 
d="M950 1448q80 74 203 74q85 0 144 -51.5t59 -116.5q0 -45 -29 -78t-72 -33q-71 0 -112 86q-26 49 -39 59q-12 10 -33 13q-76 0 -76 -166q0 -152 -20 -348q52 1 131 4.5t92 3.5l16 -35l-26 -98h-230l-108 -686q-95 -613 -395 -613q-86 0 -140.5 40t-54.5 102
q0 47 30.5 79.5t74.5 32.5q64 0 104 -75q27 -50 66 -50q41 0 55 107q12 74 16 113l17 151q2 21 20 168l90 631h-287l-100 -627q-105 -672 -452 -672q-83 0 -132 39.5t-49 102.5q0 50 28 81t77 31q54 0 98 -77q25 -48 59 -48q72 0 113 263l133 907h-153v106l172 9
q48 210 122 356q147 289 392 289q113 0 196 -74zM465 883l289 2q17 103 39 198q2 10 15.5 58.5t21.5 85t6 51.5q0 57 -31.5 92t-85.5 35q-92 0 -150 -113q-57 -109 -104 -409zM1536 137q0 33 -25 78q-22 43 -112 174q-109 157 -109 262q0 120 79.5 197.5t211.5 77.5
q105 0 176.5 -52.5t71.5 -130.5q0 -45 -26.5 -74.5t-67.5 -29.5q-85 0 -115 92q-27 86 -84 86q-66 0 -66 -74q0 -63 117 -245q86 -135 103 -174q24 -52 24 -117q0 -107 -72 -174.5t-192 -67.5q-129 0 -209 61t-80 144q0 49 27.5 81t75.5 32q70 0 108 -109q12 -31 16.5 -42
t15.5 -27.5t25.5 -23t36.5 -9.5q70 0 70 65zM1440 1016l-62 55l295 404q40 55 82 55q45 0 57 -55l99 -437l-78 -24l-127 239z" />
    <glyph glyph-name="ffutilde" unicode="ff&#x169;" horiz-adv-x="2185" 
d="M950 1448q80 74 203 74q85 0 144 -51.5t59 -116.5q0 -45 -29 -78t-72 -33q-71 0 -112 86q-26 49 -39 59q-12 10 -33 13q-76 0 -76 -166q0 -152 -20 -348q52 1 131 4.5t92 3.5l16 -35l-26 -98h-230l-108 -686q-95 -613 -395 -613q-86 0 -140.5 40t-54.5 102
q0 47 30.5 79.5t74.5 32.5q64 0 104 -75q27 -50 66 -50q41 0 55 107q12 74 16 113l17 151q2 21 20 168l90 631h-287l-100 -627q-105 -672 -452 -672q-83 0 -132 39.5t-49 102.5q0 50 28 81t77 31q54 0 98 -77q25 -48 59 -48q72 0 113 263l133 907h-153v106l172 9
q48 210 122 356q147 289 392 289q113 0 196 -74zM465 883l289 2q17 103 39 198q2 10 15.5 58.5t21.5 85t6 51.5q0 57 -31.5 92t-85.5 35q-92 0 -150 -113q-57 -109 -104 -409zM1784 422l-8 4q-118 -269 -203 -360q-80 -86 -189 -86q-68 0 -111.5 43t-43.5 110q0 76 49 201
l117 303q22 61 22 82q0 33 -28 33q-45 0 -154 -136l-47 37q106 153 178 213q70 58 141 58q61 0 98 -39.5t37 -106.5q0 -65 -43 -178l-122 -328q-15 -41 -15 -63q0 -39 41 -39q142 0 379 655l25 68q43 16 86 16q80 0 127 -80q-96 -268 -107 -309q-63 -213 -76 -295
q-4 -28 -4 -43q0 -26 23 -26q43 0 158 133l43 -37q-175 -272 -310 -272q-60 0 -95.5 37.5t-35.5 103.5q0 100 68 301zM2128 1421l45 -30q-29 -85 -93 -139t-134 -54q-68 0 -138 43t-116 43q-69 0 -144 -63l-45 30q29 85 93.5 139t134.5 54q67 0 137 -43t117 -43q68 0 143 63
z" />
    <glyph glyph-name="ffycircumflex" unicode="ff&#x177;" horiz-adv-x="2111" 
d="M950 1448q80 74 203 74q85 0 144 -51.5t59 -116.5q0 -45 -29 -78t-72 -33q-71 0 -112 86q-26 49 -39 59q-12 10 -33 13q-76 0 -76 -166q0 -152 -20 -348q52 1 131 4.5t92 3.5l16 -35l-26 -98h-230l-108 -686q-95 -613 -395 -613q-86 0 -140.5 40t-54.5 102
q0 47 30.5 79.5t74.5 32.5q64 0 104 -75q27 -50 66 -50q41 0 55 107q12 74 16 113l17 151q2 21 20 168l90 631h-287l-100 -627q-105 -672 -452 -672q-83 0 -132 39.5t-49 102.5q0 50 28 81t77 31q54 0 98 -77q25 -48 59 -48q72 0 113 263l133 907h-153v106l172 9
q48 210 122 356q147 289 392 289q113 0 196 -74zM465 883l289 2q17 103 39 198q2 10 15.5 58.5t21.5 85t6 51.5q0 57 -31.5 92t-85.5 35q-92 0 -150 -113q-57 -109 -104 -409zM1681 -23l11 -2q172 383 172 799q0 66 -13 133q29 29 88 29q38 0 72 -12q10 -33 10 -99
q0 -449 -219 -848q-137 -250 -348 -405q-186 -137 -424 -137q-71 0 -114.5 30t-43.5 78t33 80.5t86 32.5q48 0 113 -33q68 -35 110 -35q120 0 203 121q84 122 84 311q0 368 -102 658q-20 57 -45 57q-54 0 -125 -203l-60 17q89 375 261 375q125 0 184 -170q82 -224 82 -598
q0 -49 -8 -109q-2 -18 -3.5 -35.5t-2.5 -25.5t-1 -9zM1505 1016l-61 55l295 404q40 55 82 55q45 0 57 -55l98 -437l-78 -24l-126 239z" />
    <glyph glyph-name="longsb" unicode="&#x17f;b" horiz-adv-x="1472" 
d="M1210 621q0 57 -22 90.5t-60 33.5q-85 0 -196 -182q-111 -181 -111 -315q0 -48 29 -76.5t74 -28.5q69 0 135 66q151 151 151 412zM465 887l-129 -811q-99 -613 -428 -613q-86 0 -140.5 40t-54.5 102q0 48 30 80t79 32q62 0 106 -77q25 -48 62 -48q18 0 31.5 13.5t30.5 68
t32 152.5l135 936h-151v106l170 13q40 195 118 352q65 132 173.5 210.5t240.5 78.5q114 0 199 -54l180 72l31 -33q-124 -353 -125 -354l-172 -532l10 -3q119 187 197 252q76 64 151 64q77 0 131.5 -74t54.5 -188q0 -165 -80 -321.5t-237 -274.5q-141 -105 -274 -105
q-114 0 -180 69t-66 183q0 94 53 289l178 621q25 86 25 149q0 55 -29.5 89t-79.5 34q-92 0 -159 -113q-68 -116 -113 -405z" />
    <glyph glyph-name="longslslash" unicode="&#x17f;&#x142;" horiz-adv-x="1196" 
d="M1159 752l33 -123l-248 -68l-80 -332q-6 -30 -6 -39q0 -26 27 -26q60 0 192 170l47 -35q-193 -319 -385 -319q-53 0 -89 32t-36 86q0 52 37 203l45 193l-155 -41l-31 120l219 60l115 481q28 124 28 156q0 61 -33 98t-89 37q-100 0 -170 -111q-69 -114 -115 -407
l-129 -811q-99 -613 -428 -613q-86 0 -140.5 40t-54.5 102q0 48 30 80t79 32q62 0 106 -77q25 -48 62 -48q18 0 31.5 13.5t30.5 68t32 152.5l135 936h-151v106l170 13q40 195 118 352q65 133 176.5 211t253.5 78q139 0 224 -54l137 72l39 -33q-52 -167 -99 -354l-110 -451z
" />
    <glyph glyph-name="longsthorn" unicode="&#x17f;&#xfe;" horiz-adv-x="1492" 
d="M1417 586q0 -444 -612 -582q-64 -311 -64 -381q0 -81 123 -108l-6 -56q-105 6 -231 6q-118 0 -217 -6l-4 54q43 23 62 50.5t38 90.5q18 75 43 199l178 858q-42 -21 -219 -125l-33 55q190 147 283 203l35 186q36 186 36 252q0 55 -25 89t-67 34q-195 0 -274 -518
l-127 -811q-95 -613 -428 -613q-86 0 -140.5 40t-54.5 102q0 48 30 80t79 32q62 0 106 -77q25 -48 62 -48q18 0 31.5 13.5t30.5 68t32 152.5l135 932l-151 -2v106l168 15q41 200 120 356q65 132 174 210.5t240 78.5q108 0 193 -54l127 72l34 -33q-46 -133 -88 -354l-45 -235
q56 16 99 16q147 0 237 -95t90 -253zM1184 559q0 112 -45 169.5t-123 57.5q-27 0 -51 -6l-131 -665q160 41 255 160.5t95 283.5z" />
    <glyph glyph-name="longszcaron" unicode="&#x17f;&#x17e;" horiz-adv-x="1619" 
d="M440 735l-94 -600q-105 -672 -452 -672q-83 0 -132 39.5t-49 102.5q0 50 28 81t77 31q54 0 98 -77q25 -48 59 -48q72 0 113 263l133 907h-153v106l172 9q28 170 61 301q45 170 128.5 257t213.5 87q85 0 144 -51.5t59 -116.5q0 -45 -29 -78t-72 -33q-71 0 -112 86
q-26 49 -39 59q-12 10 -33 13q-76 0 -76 -166q0 -230 -45 -500zM1405 715l-545 -473l2 -6q52 12 117 12q74 0 211 -84q134 -82 209 -82q57 0 57 57q0 29 -57 80q-56 53 -56 105q0 38 29.5 68t67.5 30q62 0 105.5 -58.5t43.5 -148.5q0 -137 -94 -225q-93 -90 -209 -90
q-73 0 -149 33.5t-131 80.5q-127 115 -183 115q-60 0 -75 -74q-2 -37 -40.5 -52t-75.5 3.5t-34 65.5q0 79 84 151l555 469l-4 6q-62 -26 -121 -26q-61 0 -151 37q-88 39 -125 39q-50 0 -50 -43q0 -13 29 -60t29 -74q0 -40 -24.5 -67t-65.5 -27q-48 0 -82.5 40t-34.5 97
q0 123 86 215q87 93 203 93q84 0 207 -60q124 -60 176 -71q56 67 88 90.5t65 23.5q30 0 52 -23t22 -57q0 -73 -131 -110zM1464 1528l62 -55l-295 -404q-40 -55 -82 -55q-45 0 -57 55l-99 436l78 25l127 -240z" />
    <glyph glyph-name="longsh" unicode="&#x17f;h" horiz-adv-x="1501" 
d="M639 393l166 699q29 126 29 184q0 61 -26 95t-71 34q-92 0 -159 -113q-68 -116 -113 -405l-129 -811q-99 -613 -428 -613q-86 0 -140.5 40t-54.5 102q0 48 30 80t79 32q62 0 106 -77q25 -48 62 -48q18 0 31.5 13.5t30.5 68t32 152.5l135 936h-151v106l170 13
q40 195 118 352q65 132 173.5 210.5t240.5 78.5q114 0 199 -54l145 72l39 -33q-48 -145 -102 -354l-127 -473l6 -2q84 142 151.5 194t155.5 52q69 0 113.5 -50.5t44.5 -128.5q0 -62 -29 -157l-125 -391q-4 -16 -4 -27q0 -18 18 -18q51 0 164 143l47 -37q-175 -278 -331 -278
q-53 0 -92 40t-39 89q0 66 40 190l101 313q14 43 14 76q0 45 -43 45q-68 0 -139 -88.5t-107 -245.5l-94 -395q-44 -20 -117 -20q-71 0 -118 59q77 261 98 350z" />
    <glyph glyph-name="longsj" unicode="&#x17f;j" horiz-adv-x="1161" 
d="M440 735l-94 -600q-105 -672 -452 -672q-83 0 -132 39.5t-49 102.5q0 50 28 81t77 31q54 0 98 -77q25 -48 59 -48q72 0 113 263l133 907h-153v106l172 9q28 170 61 301q45 170 128.5 257t213.5 87q85 0 144 -51.5t59 -116.5q0 -45 -29 -78t-72 -33q-71 0 -112 86
q-26 49 -39 59q-12 10 -33 13q-76 0 -76 -166q0 -230 -45 -500zM907 1348q0 61 43 104t105 43q64 0 105.5 -41t41.5 -106t-41.5 -106.5t-105.5 -41.5t-106 41.5t-42 106.5zM1063 606l-113 -456q-170 -687 -497 -687q-79 0 -125.5 36t-46.5 98q0 44 29.5 75t70.5 31
q53 0 100 -68q30 -43 62 -43t57 46.5t55 171.5l191 819q16 82 16 84q0 32 -26 32q-38 0 -125 -118l-49 30q150 267 280 267q68 0 106.5 -41.5t38.5 -118.5q0 -59 -24 -158z" />
    <glyph glyph-name="longsk" unicode="&#x17f;k" horiz-adv-x="1482" 
d="M641 391l164 701q29 135 29 184q0 61 -26 95t-71 34q-92 0 -159 -113q-68 -116 -113 -405l-129 -811q-53 -341 -166 -475q-111 -138 -262 -138q-86 0 -140.5 40t-54.5 102q0 48 30 80t79 32q48 0 94 -61q46 -64 74 -64q18 0 31.5 13.5t30.5 68t32 152.5l135 936h-151v106
l170 13q135 641 532 641q114 0 199 -54l145 72l39 -33q-61 -187 -102 -354l-119 -479l8 -2q87 137 156 194.5t155 57.5q73 0 123.5 -51t50.5 -125q0 -94 -65.5 -156t-220.5 -105q22 -117 65 -231q40 -104 76 -104q35 0 94 157l56 -16q-40 -167 -95 -240t-127 -73
q-45 0 -86 26t-69 66q-28 44 -49 100q-38 101 -68 227l25 88q245 88 245 201q0 28 -16.5 47t-44.5 19q-66 0 -150 -90q-81 -90 -121 -267l-92 -393q-44 -20 -116 -20q-70 0 -117 59q48 159 92 348z" />
    <glyph glyph-name="longsadieresis" unicode="&#x17f;&#xe4;" horiz-adv-x="1568" 
d="M440 735l-94 -600q-105 -672 -452 -672q-83 0 -132 39.5t-49 102.5q0 50 28 81t77 31q54 0 98 -77q25 -48 59 -48q72 0 113 263l133 907h-153v106l172 9q28 170 61 301q45 170 128.5 257t213.5 87q85 0 144 -51.5t59 -116.5q0 -45 -29 -78t-72 -33q-71 0 -112 86
q-26 49 -39 59q-12 10 -33 13q-76 0 -76 -166q0 -230 -45 -500zM834 256q0 -106 67 -106q45 0 109 77t133 224q50 112 69 206q-30 82 -100 82q-108 0 -190 -143q-88 -152 -88 -340zM1333 240q-6 -55 -6 -58q0 -30 25 -30q46 0 164 157l47 -37q-103 -162 -175.5 -227
t-146.5 -65q-60 0 -94.5 37.5t-34.5 99.5q0 85 18 159l-6 7q-164 -320 -336 -320q-81 0 -126.5 55.5t-45.5 149.5q0 226 197 500q98 132 200 198t187 66q46 0 68 -10q15 -6 18 -9q3 -1 19.5 -14.5t17.5 -13.5l59 80q52 -12 119 -52q-75 -249 -108 -391q-50 -208 -60 -282z
M922 1333q0 57 39.5 96t99.5 39q57 0 97 -39t40 -96t-40 -98t-97 -41q-60 0 -99.5 39.5t-39.5 99.5zM1276 1333q0 57 39 96t96 39q60 0 100.5 -39t40.5 -96q0 -60 -40.5 -99.5t-100.5 -39.5q-57 0 -96 39.5t-39 99.5z" />
    <glyph glyph-name="longsatilde" unicode="&#x17f;&#xe3;" horiz-adv-x="1568" 
d="M440 735l-94 -600q-105 -672 -452 -672q-83 0 -132 39.5t-49 102.5q0 50 28 81t77 31q54 0 98 -77q25 -48 59 -48q72 0 113 263l133 907h-153v106l172 9q28 170 61 301q45 170 128.5 257t213.5 87q85 0 144 -51.5t59 -116.5q0 -45 -29 -78t-72 -33q-71 0 -112 86
q-26 49 -39 59q-12 10 -33 13q-76 0 -76 -166q0 -230 -45 -500zM834 256q0 -106 67 -106q45 0 109 77t133 224q50 112 69 206q-30 82 -100 82q-108 0 -190 -143q-88 -152 -88 -340zM1333 240q-6 -55 -6 -58q0 -30 25 -30q46 0 164 157l47 -37q-103 -162 -175.5 -227
t-146.5 -65q-60 0 -94.5 37.5t-34.5 99.5q0 85 18 159l-6 7q-164 -320 -336 -320q-81 0 -126.5 55.5t-45.5 149.5q0 226 197 500q98 132 200 198t187 66q46 0 68 -10q15 -6 18 -9q3 -1 19.5 -14.5t17.5 -13.5l59 80q52 -12 119 -52q-75 -249 -108 -391q-50 -208 -60 -282z
M1526 1421l45 -30q-29 -85 -93.5 -139t-134.5 -54q-67 0 -137 43t-116 43q-69 0 -144 -63l-45 30q29 85 93 139t134 54q68 0 138 -43t116 -43q69 0 144 63z" />
    <glyph glyph-name="longsegrave" unicode="&#x17f;&#xe8;" horiz-adv-x="1359" 
d="M440 735l-94 -600q-105 -672 -452 -672q-83 0 -132 39.5t-49 102.5q0 50 28 81t77 31q54 0 98 -77q25 -48 59 -48q72 0 113 263l133 907h-153v106l172 9q28 170 61 301q45 170 128.5 257t213.5 87q85 0 144 -51.5t59 -116.5q0 -45 -29 -78t-72 -33q-71 0 -112 86
q-26 49 -39 59q-12 10 -33 13q-76 0 -76 -166q0 -230 -45 -500zM1163 928q79 0 135 -52t56 -126q0 -251 -490 -340q-12 -46 -12 -111q0 -129 104 -129q58 5 109.5 42t120.5 132l59 -33q-79 -170 -163 -257t-199 -87q-117 0 -185.5 78t-68.5 209q0 241 184 465
q176 209 350 209zM1085 786q-59 0 -116.5 -78t-91.5 -223q270 83 270 232q0 69 -62 69zM1235 1380v-32l-10 -361l-76 -12l-127 315q-27 68 -27 117q0 57 33.5 93t87.5 36q55 0 87 -41t32 -115z" />
    <glyph glyph-name="longsecircumflex" unicode="&#x17f;&#xea;" horiz-adv-x="1359" 
d="M440 735l-94 -600q-105 -672 -452 -672q-83 0 -132 39.5t-49 102.5q0 50 28 81t77 31q54 0 98 -77q25 -48 59 -48q72 0 113 263l133 907h-153v106l172 9q28 170 61 301q45 170 128.5 257t213.5 87q85 0 144 -51.5t59 -116.5q0 -45 -29 -78t-72 -33q-71 0 -112 86
q-26 49 -39 59q-12 10 -33 13q-76 0 -76 -166q0 -230 -45 -500zM1163 928q79 0 135 -52t56 -126q0 -251 -490 -340q-12 -46 -12 -111q0 -129 104 -129q58 5 109.5 42t120.5 132l59 -33q-79 -170 -163 -257t-199 -87q-117 0 -185.5 78t-68.5 209q0 241 184 465
q176 209 350 209zM1085 786q-59 0 -116.5 -78t-91.5 -223q270 83 270 232q0 69 -62 69zM950 1016l-61 55l295 404q40 55 82 55q45 0 57 -55l98 -437l-78 -24l-126 239z" />
    <glyph glyph-name="longsedieresis" unicode="&#x17f;&#xeb;" horiz-adv-x="1359" 
d="M440 735l-94 -600q-105 -672 -452 -672q-83 0 -132 39.5t-49 102.5q0 50 28 81t77 31q54 0 98 -77q25 -48 59 -48q72 0 113 263l133 907h-153v106l172 9q28 170 61 301q45 170 128.5 257t213.5 87q85 0 144 -51.5t59 -116.5q0 -45 -29 -78t-72 -33q-71 0 -112 86
q-26 49 -39 59q-12 10 -33 13q-76 0 -76 -166q0 -230 -45 -500zM1163 928q79 0 135 -52t56 -126q0 -251 -490 -340q-12 -46 -12 -111q0 -129 104 -129q58 5 109.5 42t120.5 132l59 -33q-79 -170 -163 -257t-199 -87q-117 0 -185.5 78t-68.5 209q0 241 184 465
q176 209 350 209zM1085 786q-59 0 -116.5 -78t-91.5 -223q270 83 270 232q0 69 -62 69zM905 1333q0 57 39.5 96t99.5 39q57 0 97.5 -39t40.5 -96t-40.5 -98t-97.5 -41q-60 0 -99.5 39.5t-39.5 99.5zM1260 1333q0 57 39 96t96 39q60 0 100.5 -39t40.5 -96q0 -60 -40.5 -99.5
t-100.5 -39.5q-57 0 -96 39.5t-39 99.5z" />
    <glyph glyph-name="longsiacute" unicode="&#x17f;&#xed;" horiz-adv-x="1161" 
d="M440 735l-94 -600q-105 -672 -452 -672q-83 0 -132 39.5t-49 102.5q0 50 28 81t77 31q54 0 98 -77q25 -48 59 -48q72 0 113 263l133 907h-153v106l172 9q28 170 61 301q45 170 128.5 257t213.5 87q85 0 144 -51.5t59 -116.5q0 -45 -29 -78t-72 -33q-71 0 -112 86
q-26 49 -39 59q-12 10 -33 13q-76 0 -76 -166q0 -230 -45 -500zM700 299l115 309q33 85 33 105q0 24 -23 24q-38 0 -145 -110l-41 37q178 260 317 260q57 0 90 -37t33 -99q0 -55 -41 -167l-145 -408q-14 -41 -14 -53q0 -19 20 -19q47 0 162 158l47 -37q-156 -282 -328 -282
q-56 0 -92.5 38t-36.5 93q0 57 49 188zM897 975l-63 43l159 381q58 137 156 137q50 0 81.5 -32.5t31.5 -82.5q0 -70 -88 -161z" />
    <glyph glyph-name="longsicircumflex" unicode="&#x17f;&#xee;" horiz-adv-x="1161" 
d="M440 735l-94 -600q-105 -672 -452 -672q-83 0 -132 39.5t-49 102.5q0 50 28 81t77 31q54 0 98 -77q25 -48 59 -48q72 0 113 263l133 907h-153v106l172 9q28 170 61 301q45 170 128.5 257t213.5 87q85 0 144 -51.5t59 -116.5q0 -45 -29 -78t-72 -33q-71 0 -112 86
q-26 49 -39 59q-12 10 -33 13q-76 0 -76 -166q0 -230 -45 -500zM700 299l115 309q33 85 33 105q0 24 -23 24q-38 0 -145 -110l-41 37q178 260 317 260q57 0 90 -37t33 -99q0 -55 -41 -167l-145 -408q-14 -41 -14 -53q0 -19 20 -19q47 0 162 158l47 -37q-156 -282 -328 -282
q-56 0 -92.5 38t-36.5 93q0 57 49 188zM805 1016l-62 55l295 404q40 55 82 55q46 0 58 -55l98 -437l-78 -24l-127 239z" />
    <glyph glyph-name="longsidieresis" unicode="&#x17f;&#xef;" horiz-adv-x="1259" 
d="M440 735l-94 -600q-105 -672 -452 -672q-83 0 -132 39.5t-49 102.5q0 50 28 81t77 31q54 0 98 -77q25 -48 59 -48q72 0 113 263l133 907h-153v106l172 9q28 170 61 301q45 170 128.5 257t213.5 87q85 0 144 -51.5t59 -116.5q0 -45 -29 -78t-72 -33q-71 0 -112 86
q-26 49 -39 59q-12 10 -33 13q-76 0 -76 -166q0 -230 -45 -500zM799 299l114 309q33 85 33 105q0 24 -22 24q-39 0 -146 -110l-41 37q178 260 318 260q57 0 90 -37t33 -99q0 -55 -41 -167l-146 -408q-14 -41 -14 -53q0 -19 20 -19q47 0 162 158l47 -37q-156 -282 -327 -282
q-56 0 -92.5 38t-36.5 93q0 57 49 188zM834 1190q0 57 39.5 96t99.5 39q57 0 97 -39t40 -96t-40 -98t-97 -41q-60 0 -99.5 39.5t-39.5 99.5zM1188 1190q0 57 39 96t96 39q60 0 100.5 -39t40.5 -96q0 -60 -40.5 -99.5t-100.5 -39.5q-57 0 -96 39.5t-39 99.5z" />
    <glyph glyph-name="longsntilde" unicode="&#x17f;&#xf1;" horiz-adv-x="1597" 
d="M440 735l-94 -600q-105 -672 -452 -672q-83 0 -132 39.5t-49 102.5q0 50 28 81t77 31q54 0 98 -77q25 -48 59 -48q72 0 113 263l133 907h-153v106l172 9q28 170 61 301q45 170 128.5 257t213.5 87q85 0 144 -51.5t59 -116.5q0 -45 -29 -78t-72 -33q-71 0 -112 86
q-26 49 -39 59q-12 10 -33 13q-76 0 -76 -166q0 -230 -45 -500zM1212 733q-68 0 -138.5 -88.5t-106.5 -245.5l-95 -395q-44 -20 -116 -20t-119 59q57 190 98 350l62 256q12 47 12 76q0 23 -21 23q-44 0 -126 -107l-48 37q159 246 283 246q56 0 90.5 -38.5t34.5 -103.5
q0 -48 -29 -149l6 -2q94 175 170 233q78 60 164 60q69 0 113.5 -50.5t44.5 -128.5q0 -62 -29 -157l-125 -391q-4 -16 -4 -27q0 -18 19 -18q51 0 164 143l47 -37q-175 -278 -332 -278q-53 0 -92 40t-39 89q0 62 41 190l100 313q14 43 14 76q0 45 -43 45zM1546 1421l45 -30
q-29 -85 -93 -139t-134 -54q-67 0 -137 43t-117 43q-68 0 -143 -63l-45 30q29 85 93 139t134 54q67 0 137 -43t117 -43q68 0 143 63z" />
    <glyph glyph-name="longsocircumflex" unicode="&#x17f;&#xf4;" horiz-adv-x="1513" 
d="M440 735l-94 -600q-105 -672 -452 -672q-83 0 -132 39.5t-49 102.5q0 50 28 81t77 31q54 0 98 -77q25 -48 59 -48q72 0 113 263l133 907h-153v106l172 9q28 170 61 301q45 170 128.5 257t213.5 87q85 0 144 -51.5t59 -116.5q0 -45 -29 -78t-72 -33q-71 0 -112 86
q-26 49 -39 59q-12 10 -33 13q-76 0 -76 -166q0 -230 -45 -500zM1446 514q0 -328 -240 -487q-92 -62 -217 -62q-133 0 -213 74q-131 116 -131 334q0 155 63.5 278t176.5 203q101 70 217 70q126 0 215 -80q129 -117 129 -330zM915 119q27 -47 78 -47q52 0 92 43
q56 63 91.5 178t35.5 258q0 154 -38 215q-26 47 -77.5 47t-92.5 -43q-53 -59 -91 -174q-36 -109 -36 -262q0 -152 38 -215zM969 1016l-62 55l295 404q40 55 82 55q45 0 57 -55l99 -437l-78 -24l-127 239z" />
    <glyph glyph-name="longsodieresis" unicode="&#x17f;&#xf6;" horiz-adv-x="1513" 
d="M440 735l-94 -600q-105 -672 -452 -672q-83 0 -132 39.5t-49 102.5q0 50 28 81t77 31q54 0 98 -77q25 -48 59 -48q72 0 113 263l133 907h-153v106l172 9q28 170 61 301q45 170 128.5 257t213.5 87q85 0 144 -51.5t59 -116.5q0 -45 -29 -78t-72 -33q-71 0 -112 86
q-26 49 -39 59q-12 10 -33 13q-76 0 -76 -166q0 -230 -45 -500zM1446 514q0 -328 -240 -487q-92 -62 -217 -62q-133 0 -213 74q-131 116 -131 334q0 155 63.5 278t176.5 203q101 70 217 70q126 0 215 -80q129 -117 129 -330zM915 119q27 -47 78 -47q52 0 92 43
q56 63 91.5 178t35.5 258q0 154 -38 215q-26 47 -77.5 47t-92.5 -43q-53 -59 -91 -174q-36 -109 -36 -262q0 -152 38 -215zM907 1333q0 57 40 96t100 39q57 0 97 -39t40 -96t-40 -98t-97 -41q-60 0 -100 39.5t-40 99.5zM1262 1333q0 57 39 96t96 39q60 0 100.5 -39t40.5 -96
q0 -60 -40.5 -99.5t-100.5 -39.5q-57 0 -96 39.5t-39 99.5z" />
    <glyph glyph-name="longsotilde" unicode="&#x17f;&#xf5;" horiz-adv-x="1513" 
d="M440 735l-94 -600q-105 -672 -452 -672q-83 0 -132 39.5t-49 102.5q0 50 28 81t77 31q54 0 98 -77q25 -48 59 -48q72 0 113 263l133 907h-153v106l172 9q28 170 61 301q45 170 128.5 257t213.5 87q85 0 144 -51.5t59 -116.5q0 -45 -29 -78t-72 -33q-71 0 -112 86
q-26 49 -39 59q-12 10 -33 13q-76 0 -76 -166q0 -230 -45 -500zM1446 514q0 -328 -240 -487q-92 -62 -217 -62q-133 0 -213 74q-131 116 -131 334q0 155 63.5 278t176.5 203q101 70 217 70q126 0 215 -80q129 -117 129 -330zM915 119q27 -47 78 -47q52 0 92 43
q56 63 91.5 178t35.5 258q0 154 -38 215q-26 47 -77.5 47t-92.5 -43q-53 -59 -91 -174q-36 -109 -36 -262q0 -152 38 -215zM1522 1421l45 -30q-29 -85 -93.5 -139t-134.5 -54q-67 0 -137 43t-117 43q-68 0 -143 -63l-45 30q29 85 93 139t134 54q68 0 138 -43t116 -43
q69 0 144 63z" />
    <glyph glyph-name="longsudieresis" unicode="&#x17f;&#xfc;" horiz-adv-x="1617" 
d="M440 735l-94 -600q-105 -672 -452 -672q-83 0 -132 39.5t-49 102.5q0 50 28 81t77 31q54 0 98 -77q25 -48 59 -48q72 0 113 263l133 907h-153v106l172 9q28 170 61 301q45 170 128.5 257t213.5 87q85 0 144 -51.5t59 -116.5q0 -45 -29 -78t-72 -33q-71 0 -112 86
q-26 49 -39 59q-12 10 -33 13q-76 0 -76 -166q0 -230 -45 -500zM1217 422l-9 4q-119 -271 -202 -360q-80 -86 -189 -86q-69 0 -112 43t-43 110q0 76 49 201l116 303q23 64 23 82q0 33 -29 33q-44 0 -153 -136l-47 37q106 153 178 213q70 58 141 58q61 0 98 -39.5t37 -106.5
q0 -65 -43 -178l-123 -328q-14 -38 -14 -63q0 -39 41 -39q142 0 379 655l24 68q43 16 86 16q80 0 127 -80q-92 -256 -106 -309q-63 -213 -76 -295q-4 -28 -4 -43q0 -26 23 -26q42 0 157 133l43 -37q-175 -272 -309 -272q-60 0 -95.5 37.5t-35.5 103.5q0 100 68 301z
M961 1333q0 57 39.5 96t99.5 39q57 0 97 -39t40 -96t-40 -98t-97 -41q-60 0 -99.5 39.5t-39.5 99.5zM1315 1333q0 57 39 96t96 39q60 0 100.5 -39t40.5 -96q0 -60 -40.5 -99.5t-100.5 -39.5q-57 0 -96 39.5t-39 99.5z" />
    <glyph glyph-name="longsydieresis" unicode="&#x17f;&#xff;" horiz-adv-x="1544" 
d="M440 735l-94 -600q-105 -672 -452 -672q-83 0 -132 39.5t-49 102.5q0 50 28 81t77 31q54 0 98 -77q25 -48 59 -48q72 0 113 263l133 907h-153v106l172 9q28 170 61 301q45 170 128.5 257t213.5 87q85 0 144 -51.5t59 -116.5q0 -45 -29 -78t-72 -33q-71 0 -112 86
q-26 49 -39 59q-12 10 -33 13q-76 0 -76 -166q0 -230 -45 -500zM1114 -23l10 -2q172 383 172 799q0 71 -12 133q29 29 88 29q38 0 72 -12q10 -33 10 -99q0 -449 -219 -848q-137 -250 -348 -405q-186 -137 -424 -137q-71 0 -114.5 30t-43.5 78t33 80.5t86 32.5q48 0 113 -33
q68 -35 110 -35q120 0 203 121q84 122 84 311q0 366 -103 658q-20 57 -45 57q-53 0 -124 -203l-60 17q88 375 260 375q126 0 185 -170q81 -221 81 -598q0 -49 -8 -109q-6 -65 -6 -70zM911 1333q0 57 40 96t100 39q57 0 97 -39t40 -96t-40 -98t-97 -41q-60 0 -100 39.5
t-40 99.5zM1266 1333q0 57 39 96t96 39q60 0 100.5 -39t40.5 -96q0 -60 -40.5 -99.5t-100.5 -39.5q-57 0 -96 39.5t-39 99.5z" />
    <glyph glyph-name="longslcaron" unicode="&#x17f;&#x13e;" horiz-adv-x="1159" 
d="M610 301l201 850q23 104 23 137q0 54 -26.5 85.5t-70.5 31.5q-92 0 -159 -113q-68 -116 -113 -405l-129 -811q-99 -613 -428 -613q-86 0 -140.5 40t-54.5 102q0 48 30 80t79 32q62 0 106 -77q25 -48 62 -48q18 0 31.5 13.5t30.5 68t32 152.5l135 936h-151v106l170 13
q40 195 118 352q65 132 173.5 210.5t240.5 78.5q114 0 199 -54l137 72l39 -33q-48 -152 -98 -354l-224 -924q-6 -30 -6 -39q0 -26 27 -26q60 0 192 170l47 -35q-193 -319 -385 -319q-53 0 -89 32t-36 86q0 52 37 203zM1356 1587q62 0 101.5 -49t39.5 -127q0 -112 -84 -197
t-229 -114l-23 63q97 37 137.5 71t40.5 73q0 32 -36 55q-68 47 -68 111q0 48 34 81t87 33z" />
    <glyph glyph-name="longsabreve" unicode="&#x17f;&#x103;" horiz-adv-x="1568" 
d="M440 735l-94 -600q-105 -672 -452 -672q-83 0 -132 39.5t-49 102.5q0 50 28 81t77 31q54 0 98 -77q25 -48 59 -48q72 0 113 263l133 907h-153v106l172 9q28 170 61 301q45 170 128.5 257t213.5 87q85 0 144 -51.5t59 -116.5q0 -45 -29 -78t-72 -33q-71 0 -112 86
q-26 49 -39 59q-12 10 -33 13q-76 0 -76 -166q0 -230 -45 -500zM834 256q0 -106 67 -106q45 0 109 77t133 224q50 112 69 206q-30 82 -100 82q-108 0 -190 -143q-88 -152 -88 -340zM1333 240q-6 -55 -6 -58q0 -30 25 -30q46 0 164 157l47 -37q-103 -162 -175.5 -227
t-146.5 -65q-60 0 -94.5 37.5t-34.5 99.5q0 85 18 159l-6 7q-164 -320 -336 -320q-81 0 -126.5 55.5t-45.5 149.5q0 226 197 500q98 132 200 198t187 66q46 0 68 -10q15 -6 18 -9q3 -1 19.5 -14.5t17.5 -13.5l59 80q52 -12 119 -52q-75 -249 -108 -391q-50 -208 -60 -282z
M1223 1065q-106 0 -166 74t-60 204q0 75 15 166h88v-36q0 -115 31 -163t96 -48q157 0 252 249l86 -18q-41 -210 -133 -319t-209 -109z" />
    <glyph glyph-name="longslacute" unicode="&#x17f;&#x13a;" horiz-adv-x="1097" 
d="M610 301l201 850q23 104 23 137q0 54 -26.5 85.5t-70.5 31.5q-92 0 -159 -113q-68 -116 -113 -405l-129 -811q-99 -613 -428 -613q-86 0 -140.5 40t-54.5 102q0 48 30 80t79 32q62 0 106 -77q25 -48 62 -48q18 0 31.5 13.5t30.5 68t32 152.5l135 936h-151v106l170 13
q40 195 118 352q65 132 173.5 210.5t240.5 78.5q114 0 199 -54l137 72l39 -33q-48 -152 -98 -354l-224 -924q-6 -30 -6 -39q0 -26 27 -26q60 0 192 170l47 -35q-193 -319 -385 -319q-53 0 -89 32t-36 86q0 52 37 203zM1157 1628l-360 -69l-23 67l289 184q80 50 133 50
q45 0 77 -28.5t32 -72.5q0 -104 -148 -131z" />
    <glyph glyph-name="longsecaron" unicode="&#x17f;&#x11b;" horiz-adv-x="1359" 
d="M440 735l-94 -600q-105 -672 -452 -672q-83 0 -132 39.5t-49 102.5q0 50 28 81t77 31q54 0 98 -77q25 -48 59 -48q72 0 113 263l133 907h-153v106l172 9q28 170 61 301q45 170 128.5 257t213.5 87q85 0 144 -51.5t59 -116.5q0 -45 -29 -78t-72 -33q-71 0 -112 86
q-26 49 -39 59q-12 10 -33 13q-76 0 -76 -166q0 -230 -45 -500zM1163 928q79 0 135 -52t56 -126q0 -251 -490 -340q-12 -46 -12 -111q0 -129 104 -129q58 5 109.5 42t120.5 132l59 -33q-79 -170 -163 -257t-199 -87q-117 0 -185.5 78t-68.5 209q0 241 184 465
q176 209 350 209zM1085 786q-59 0 -116.5 -78t-91.5 -223q270 83 270 232q0 69 -62 69zM1475 1528l61 -55l-295 -404q-40 -55 -82 -55q-45 0 -57 55l-98 436l77 25l127 -240z" />
    <glyph glyph-name="longsohungarumlaut" unicode="&#x17f;&#x151;" horiz-adv-x="1513" 
d="M440 735l-94 -600q-105 -672 -452 -672q-83 0 -132 39.5t-49 102.5q0 50 28 81t77 31q54 0 98 -77q25 -48 59 -48q72 0 113 263l133 907h-153v106l172 9q28 170 61 301q45 170 128.5 257t213.5 87q85 0 144 -51.5t59 -116.5q0 -45 -29 -78t-72 -33q-71 0 -112 86
q-26 49 -39 59q-12 10 -33 13q-76 0 -76 -166q0 -230 -45 -500zM1446 514q0 -328 -240 -487q-92 -62 -217 -62q-133 0 -213 74q-131 116 -131 334q0 155 63.5 278t176.5 203q101 70 217 70q126 0 215 -80q129 -117 129 -330zM915 119q27 -47 78 -47q52 0 92 43
q56 63 91.5 178t35.5 258q0 154 -38 215q-26 47 -77.5 47t-92.5 -43q-53 -59 -91 -174q-36 -109 -36 -262q0 -152 38 -215zM950 997l-57 43l151 363q59 133 142 133q47 0 75.5 -33t28.5 -78q0 -62 -69 -137zM1255 997l-57 43l152 363q59 133 141 133q47 0 75.5 -33t28.5 -78
q0 -62 -69 -137z" />
    <glyph glyph-name="longsrcaron" unicode="&#x17f;&#x159;" horiz-adv-x="1380" 
d="M440 735l-94 -600q-105 -672 -452 -672q-83 0 -132 39.5t-49 102.5q0 50 28 81t77 31q54 0 98 -77q25 -48 59 -48q72 0 113 263l133 907h-153v106l172 9q28 170 61 301q45 170 128.5 257t213.5 87q85 0 144 -51.5t59 -116.5q0 -45 -29 -78t-72 -33q-71 0 -112 86
q-26 49 -39 59q-12 10 -33 13q-76 0 -76 -166q0 -230 -45 -500zM1284 633q-49 0 -86 49q-28 40 -51 40.5t-51 -32.5q-33 -36 -75.5 -152.5t-72.5 -275.5l-49 -258q-44 -20 -117 -20q-71 0 -118 59q33 119 79 350l52 256q8 36 8 68q0 31 -21 31q-45 0 -127 -107l-47 37
q159 246 283 246q56 0 90.5 -38.5t34.5 -103.5q0 -54 -33 -180l6 -2q64 174 126.5 249t133.5 75q62 0 101 -43.5t39 -112.5q0 -62 -30 -98.5t-75 -36.5zM1384 1528l62 -55l-295 -404q-40 -55 -82 -55q-45 0 -57 55l-99 436l78 25l127 -240z" />
    <glyph glyph-name="longsuring" unicode="&#x17f;&#x16f;" horiz-adv-x="1617" 
d="M440 735l-94 -600q-105 -672 -452 -672q-83 0 -132 39.5t-49 102.5q0 50 28 81t77 31q54 0 98 -77q25 -48 59 -48q72 0 113 263l133 907h-153v106l172 9q28 170 61 301q45 170 128.5 257t213.5 87q85 0 144 -51.5t59 -116.5q0 -45 -29 -78t-72 -33q-71 0 -112 86
q-26 49 -39 59q-12 10 -33 13q-76 0 -76 -166q0 -230 -45 -500zM1217 422l-9 4q-119 -271 -202 -360q-80 -86 -189 -86q-69 0 -112 43t-43 110q0 76 49 201l116 303q23 64 23 82q0 33 -29 33q-44 0 -153 -136l-47 37q106 153 178 213q70 58 141 58q61 0 98 -39.5t37 -106.5
q0 -65 -43 -178l-123 -328q-14 -38 -14 -63q0 -39 41 -39q142 0 379 655l24 68q43 16 86 16q80 0 127 -80q-92 -256 -106 -309q-63 -213 -76 -295q-4 -28 -4 -43q0 -26 23 -26q42 0 157 133l43 -37q-175 -272 -309 -272q-60 0 -95.5 37.5t-35.5 103.5q0 100 68 301z
M1257 1073q-102 0 -174 72q-69 69 -69 172q0 101 71 172q71 74 172 74q102 0 173 -74q73 -70 73 -172t-73 -172q-72 -72 -173 -72zM1155 1315q0 -43 29 -74t71 -31q44 0 74.5 31t30.5 74q0 45 -30.5 76.5t-74.5 31.5q-42 0 -71 -31.5t-29 -76.5z" />
    <glyph glyph-name="longsamacron" unicode="&#x17f;&#x101;" horiz-adv-x="1568" 
d="M440 735l-94 -600q-105 -672 -452 -672q-83 0 -132 39.5t-49 102.5q0 50 28 81t77 31q54 0 98 -77q25 -48 59 -48q72 0 113 263l133 907h-153v106l172 9q28 170 61 301q45 170 128.5 257t213.5 87q85 0 144 -51.5t59 -116.5q0 -45 -29 -78t-72 -33q-71 0 -112 86
q-26 49 -39 59q-12 10 -33 13q-76 0 -76 -166q0 -230 -45 -500zM834 256q0 -106 67 -106q45 0 109 77t133 224q50 112 69 206q-30 82 -100 82q-108 0 -190 -143q-88 -152 -88 -340zM1333 240q-6 -55 -6 -58q0 -30 25 -30q46 0 164 157l47 -37q-103 -162 -175.5 -227
t-146.5 -65q-60 0 -94.5 37.5t-34.5 99.5q0 85 18 159l-6 7q-164 -320 -336 -320q-81 0 -126.5 55.5t-45.5 149.5q0 226 197 500q98 132 200 198t187 66q46 0 68 -10q15 -6 18 -9q3 -1 19.5 -14.5t17.5 -13.5l59 80q52 -12 119 -52q-75 -249 -108 -391q-50 -208 -60 -282z
M1501 1243h-553l25 152h553z" />
    <glyph glyph-name="longsemacron" unicode="&#x17f;&#x113;" horiz-adv-x="1359" 
d="M440 735l-94 -600q-105 -672 -452 -672q-83 0 -132 39.5t-49 102.5q0 50 28 81t77 31q54 0 98 -77q25 -48 59 -48q72 0 113 263l133 907h-153v106l172 9q28 170 61 301q45 170 128.5 257t213.5 87q85 0 144 -51.5t59 -116.5q0 -45 -29 -78t-72 -33q-71 0 -112 86
q-26 49 -39 59q-12 10 -33 13q-76 0 -76 -166q0 -230 -45 -500zM1163 928q79 0 135 -52t56 -126q0 -251 -490 -340q-12 -46 -12 -111q0 -129 104 -129q58 5 109.5 42t120.5 132l59 -33q-79 -170 -163 -257t-199 -87q-117 0 -185.5 78t-68.5 209q0 241 184 465
q176 209 350 209zM1085 786q-59 0 -116.5 -78t-91.5 -223q270 83 270 232q0 69 -62 69zM1464 1243h-553l25 152h553z" />
    <glyph glyph-name="longsedotaccent" unicode="&#x17f;&#x117;" horiz-adv-x="1359" 
d="M440 735l-94 -600q-105 -672 -452 -672q-83 0 -132 39.5t-49 102.5q0 50 28 81t77 31q54 0 98 -77q25 -48 59 -48q72 0 113 263l133 907h-153v106l172 9q28 170 61 301q45 170 128.5 257t213.5 87q85 0 144 -51.5t59 -116.5q0 -45 -29 -78t-72 -33q-71 0 -112 86
q-26 49 -39 59q-12 10 -33 13q-76 0 -76 -166q0 -230 -45 -500zM1163 928q79 0 135 -52t56 -126q0 -251 -490 -340q-12 -46 -12 -111q0 -129 104 -129q58 5 109.5 42t120.5 132l59 -33q-79 -170 -163 -257t-199 -87q-117 0 -185.5 78t-68.5 209q0 241 184 465
q176 209 350 209zM1085 786q-59 0 -116.5 -78t-91.5 -223q270 83 270 232q0 69 -62 69zM1073 1241q-41 41 -41 106.5t41 106.5t106.5 41t106.5 -41t41 -106.5t-41 -106.5t-106.5 -41t-106.5 41z" />
    <glyph glyph-name="longsgcommaaccent" unicode="&#x17f;&#x123;" horiz-adv-x="1474" 
d="M999 242q-115 0 -180 39q-14 -20 -14 -50q0 -51 104 -94l203 -82q221 -89 221 -280q0 -140 -116 -238q-115 -100 -324 -100q-197 0 -309.5 81t-112.5 208q0 190 231 278q-59 59 -59 137q0 92 115 187q-76 88 -76 192q0 160 113 279t270 119q121 0 231 -78q99 23 201 61
l31 -31v-114l-170 -11q22 -55 22 -127q0 -157 -108 -268q-108 -108 -273 -108zM1053 -166l-176 74q-92 39 -115 53q-105 -59 -105 -182q0 -87 85 -141t231 -54q100 0 151.5 33.5t51.5 89.5q0 77 -123 127zM903 518q0 -172 90 -172q73 0 117 92q45 91 45 201q0 174 -86 174
q-74 0 -121 -90q-45 -86 -45 -205zM1186 1028q-62 0 -102 49t-40 127q0 112 84.5 197.5t229.5 114.5l22 -64q-98 -37 -138 -70.5t-40 -72.5q0 -32 37 -56q68 -47 68 -110q0 -48 -34 -81.5t-87 -33.5zM440 735l-94 -600q-105 -672 -452 -672q-83 0 -132 39.5t-49 102.5
q0 50 28 81t77 31q54 0 98 -77q25 -48 59 -48q72 0 113 263l133 907h-153v106l172 9q28 170 61 301q45 170 128.5 257t213.5 87q85 0 144 -51.5t59 -116.5q0 -45 -29 -78t-72 -33q-71 0 -112 86q-26 49 -39 59q-12 10 -33 13q-76 0 -76 -166q0 -230 -45 -500z" />
    <glyph glyph-name="longsiogonek" unicode="&#x17f;&#x12f;" horiz-adv-x="1062" 
d="M465 887l-129 -811q-99 -613 -428 -613q-86 0 -140.5 40t-54.5 102q0 48 30 80t79 32q62 0 106 -77q25 -48 62 -48q18 0 31.5 13.5t30.5 68t32 152.5l135 936h-151v106l170 13q40 195 118 352q65 132 173.5 210.5t240.5 78.5q124 0 206.5 -58.5t82.5 -154.5
q0 -56 -36 -92.5t-93 -36.5q-98 0 -139 133q-27 88 -86 88q-157 0 -240 -514zM797 -199l49 -24q-65 -189 -232 -189q-71 0 -118 41.5t-47 102.5q0 145 204 252q-46 7 -73 42.5t-27 84.5q0 57 49 188l115 309q33 85 33 105q0 24 -23 24q-38 0 -145 -110l-41 37
q178 260 317 260q57 0 90 -37t33 -99q0 -55 -41 -167l-145 -408q-15 -44 -15 -53q0 -19 21 -19q47 0 162 158l47 -37q-126 -225 -254 -268q-154 -109 -154 -219q0 -30 19 -49t53 -19q71 0 123 94z" />
    <glyph glyph-name="longslcommaaccent" unicode="&#x17f;&#x13c;" horiz-adv-x="1097" 
d="M610 301l201 850q23 104 23 137q0 54 -26.5 85.5t-70.5 31.5q-92 0 -159 -113q-68 -116 -113 -405l-129 -811q-99 -613 -428 -613q-86 0 -140.5 40t-54.5 102q0 48 30 80t79 32q62 0 106 -77q25 -48 62 -48q18 0 31.5 13.5t30.5 68t32 152.5l135 936h-151v106l170 13
q40 195 118 352q65 132 173.5 210.5t240.5 78.5q114 0 199 -54l137 72l39 -33q-48 -152 -98 -354l-224 -924q-6 -30 -6 -39q0 -26 27 -26q60 0 192 170l47 -35q-193 -319 -385 -319q-53 0 -89 32t-36 86q0 52 37 203zM637 -74q62 0 101.5 -49t39.5 -127q0 -112 -84 -197
t-229 -114l-23 63q98 37 138.5 71t40.5 73q0 31 -37 55q-68 47 -68 111q0 48 34 81t87 33z" />
    <glyph glyph-name="longsimacron" unicode="&#x17f;&#x12b;" horiz-adv-x="579" 
d="M440 735l-94 -600q-105 -672 -452 -672q-83 0 -132 39.5t-49 102.5q0 50 28 81t77 31q54 0 98 -77q25 -48 59 -48q72 0 113 263l133 907h-153v106l172 9q28 170 61 301q45 170 128.5 257t213.5 87q85 0 144 -51.5t59 -116.5q0 -45 -29 -78t-72 -33q-71 0 -112 86
q-26 49 -39 59q-12 10 -33 13q-76 0 -76 -166q0 -230 -45 -500zM758 299l114 309q33 85 33 105q0 24 -22 24q-39 0 -146 -110l-41 37q178 260 318 260q57 0 90 -37t33 -99q0 -55 -41 -167l-146 -408q-14 -41 -14 -53q0 -19 20 -19q47 0 162 158l47 -37q-156 -282 -327 -282
q-56 0 -92.5 38t-36.5 93q0 57 49 188zM1372 1243h-471l25 152h471z" />
    <glyph glyph-name="longsomacron" unicode="&#x17f;&#x14d;" horiz-adv-x="1513" 
d="M440 735l-94 -600q-105 -672 -452 -672q-83 0 -132 39.5t-49 102.5q0 50 28 81t77 31q54 0 98 -77q25 -48 59 -48q72 0 113 263l133 907h-153v106l172 9q28 170 61 301q45 170 128.5 257t213.5 87q85 0 144 -51.5t59 -116.5q0 -45 -29 -78t-72 -33q-71 0 -112 86
q-26 49 -39 59q-12 10 -33 13q-76 0 -76 -166q0 -230 -45 -500zM1446 514q0 -328 -240 -487q-92 -62 -217 -62q-133 0 -213 74q-131 116 -131 334q0 155 63.5 278t176.5 203q101 70 217 70q126 0 215 -80q129 -117 129 -330zM915 119q27 -47 78 -47q52 0 92 43
q56 63 91.5 178t35.5 258q0 154 -38 215q-26 47 -77.5 47t-92.5 -43q-53 -59 -91 -174q-36 -109 -36 -262q0 -152 38 -215zM1470 1243h-552l24 152h553z" />
    <glyph glyph-name="longsumacron" unicode="&#x17f;&#x16b;" horiz-adv-x="1617" 
d="M440 735l-94 -600q-105 -672 -452 -672q-83 0 -132 39.5t-49 102.5q0 50 28 81t77 31q54 0 98 -77q25 -48 59 -48q72 0 113 263l133 907h-153v106l172 9q28 170 61 301q45 170 128.5 257t213.5 87q85 0 144 -51.5t59 -116.5q0 -45 -29 -78t-72 -33q-71 0 -112 86
q-26 49 -39 59q-12 10 -33 13q-76 0 -76 -166q0 -230 -45 -500zM1217 422l-9 4q-119 -271 -202 -360q-80 -86 -189 -86q-69 0 -112 43t-43 110q0 76 49 201l116 303q23 64 23 82q0 33 -29 33q-44 0 -153 -136l-47 37q106 153 178 213q70 58 141 58q61 0 98 -39.5t37 -106.5
q0 -65 -43 -178l-123 -328q-14 -38 -14 -63q0 -39 41 -39q142 0 379 655l24 68q43 16 86 16q80 0 127 -80q-92 -256 -106 -309q-63 -213 -76 -295q-4 -28 -4 -43q0 -26 23 -26q42 0 157 133l43 -37q-175 -272 -309 -272q-60 0 -95.5 37.5t-35.5 103.5q0 100 68 301z
M1534 1243h-553l25 152h553z" />
    <glyph glyph-name="longskcommaaccent" unicode="&#x17f;&#x137;" horiz-adv-x="1482" 
d="M641 391l164 701q29 135 29 184q0 61 -26 95t-71 34q-92 0 -159 -113q-68 -116 -113 -405l-129 -811q-53 -341 -166 -475q-111 -138 -262 -138q-86 0 -140.5 40t-54.5 102q0 48 30 80t79 32q48 0 94 -61q46 -64 74 -64q18 0 31.5 13.5t30.5 68t32 152.5l135 936h-151v106
l170 13q135 641 532 641q114 0 199 -54l145 72l39 -33q-61 -187 -102 -354l-119 -479l8 -2q87 137 156 194.5t155 57.5q73 0 123.5 -51t50.5 -125q0 -94 -65.5 -156t-220.5 -105q22 -117 65 -231q40 -104 76 -104q35 0 94 157l56 -16q-40 -167 -95 -240t-127 -73
q-45 0 -86 26t-69 66q-28 44 -49 100q-38 101 -68 227l25 88q245 88 245 201q0 28 -16.5 47t-44.5 19q-66 0 -150 -90q-81 -90 -121 -267l-92 -393q-44 -20 -116 -20q-70 0 -117 59q48 159 92 348zM907 -74q62 0 102 -49t40 -127q0 -112 -84.5 -197t-229.5 -114l-22 63
q97 37 137.5 71t40.5 73q0 31 -37 55q-68 47 -68 111q0 48 34 81t87 33z" />
    <glyph glyph-name="longsgbreve" unicode="&#x17f;&#x11f;" horiz-adv-x="1474" 
d="M440 735l-94 -600q-105 -672 -452 -672q-83 0 -132 39.5t-49 102.5q0 50 28 81t77 31q54 0 98 -77q25 -48 59 -48q72 0 113 263l133 907h-153v106l172 9q28 170 61 301q45 170 128.5 257t213.5 87q85 0 144 -51.5t59 -116.5q0 -45 -29 -78t-72 -33q-71 0 -112 86
q-26 49 -39 59q-12 10 -33 13q-76 0 -76 -166q0 -230 -45 -500zM999 242q-115 0 -180 39q-14 -20 -14 -50q0 -51 104 -94l203 -82q221 -89 221 -280q0 -140 -116 -238q-115 -100 -324 -100q-197 0 -309.5 81t-112.5 208q0 190 231 278q-59 59 -59 137q0 92 115 187
q-76 88 -76 192q0 160 113 279t270 119q121 0 231 -78q99 23 201 61l31 -31v-114l-170 -11q22 -55 22 -127q0 -157 -108 -268q-108 -108 -273 -108zM1053 -166l-176 74q-92 39 -115 53q-105 -59 -105 -182q0 -87 85 -141t231 -54q100 0 151.5 33.5t51.5 89.5q0 77 -123 127z
M903 518q0 -172 90 -172q73 0 117 92q45 91 45 201q0 174 -86 174q-74 0 -121 -90q-45 -86 -45 -205zM1147 1065q-106 0 -165.5 73.5t-59.5 204.5q0 81 14 166h88v-36q0 -115 31 -163t96 -48q157 0 252 249l86 -18q-41 -210 -133 -319t-209 -109z" />
    <glyph glyph-name="longsgcircumflex" unicode="&#x17f;&#x11d;" horiz-adv-x="1474" 
d="M440 735l-94 -600q-105 -672 -452 -672q-83 0 -132 39.5t-49 102.5q0 50 28 81t77 31q54 0 98 -77q25 -48 59 -48q72 0 113 263l133 907h-153v106l172 9q28 170 61 301q45 170 128.5 257t213.5 87q85 0 144 -51.5t59 -116.5q0 -45 -29 -78t-72 -33q-71 0 -112 86
q-26 49 -39 59q-12 10 -33 13q-76 0 -76 -166q0 -230 -45 -500zM999 242q-115 0 -180 39q-14 -20 -14 -50q0 -51 104 -94l203 -82q221 -89 221 -280q0 -140 -116 -238q-115 -100 -324 -100q-197 0 -309.5 81t-112.5 208q0 190 231 278q-59 59 -59 137q0 92 115 187
q-76 88 -76 192q0 160 113 279t270 119q121 0 231 -78q99 23 201 61l31 -31v-114l-170 -11q22 -55 22 -127q0 -157 -108 -268q-108 -108 -273 -108zM1053 -166l-176 74q-92 39 -115 53q-105 -59 -105 -182q0 -87 85 -141t231 -54q100 0 151.5 33.5t51.5 89.5q0 77 -123 127z
M903 518q0 -172 90 -172q73 0 117 92q45 91 45 201q0 174 -86 174q-74 0 -121 -90q-45 -86 -45 -205zM938 1016l-61 55l294 404q40 55 82 55q46 0 58 -55l98 -437l-78 -24l-127 239z" />
    <glyph glyph-name="longsgdotaccent" unicode="&#x17f;&#x121;" horiz-adv-x="1474" 
d="M999 242q-115 0 -180 39q-14 -20 -14 -50q0 -51 104 -94l203 -82q221 -89 221 -280q0 -140 -116 -238q-115 -100 -324 -100q-197 0 -309.5 81t-112.5 208q0 190 231 278q-59 59 -59 137q0 92 115 187q-76 88 -76 192q0 160 113 279t270 119q121 0 231 -78q99 23 201 61
l31 -31v-114l-170 -11q22 -55 22 -127q0 -157 -108 -268q-108 -108 -273 -108zM1053 -166l-176 74q-92 39 -115 53q-105 -59 -105 -182q0 -87 85 -141t231 -54q100 0 151.5 33.5t51.5 89.5q0 77 -123 127zM903 518q0 -172 90 -172q73 0 117 92q45 91 45 201q0 174 -86 174
q-74 0 -121 -90q-45 -86 -45 -205zM440 735l-94 -600q-105 -672 -452 -672q-83 0 -132 39.5t-49 102.5q0 50 28 81t77 31q54 0 98 -77q25 -48 59 -48q72 0 113 263l133 907h-153v106l172 9q28 170 61 301q45 170 128.5 257t213.5 87q85 0 144 -51.5t59 -116.5q0 -45 -29 -78
t-72 -33q-71 0 -112 86q-26 49 -39 59q-12 10 -33 13q-76 0 -76 -166q0 -230 -45 -500zM1063 1241q-41 41 -41 106.5t41 106.5q43 41 106.5 41t104.5 -41q43 -41 43 -106.5t-43 -106.5q-41 -41 -104.5 -41t-106.5 41z" />
    <glyph glyph-name="longshcircumflex" unicode="&#x17f;&#x125;" horiz-adv-x="1501" 
d="M639 393l166 699q29 126 29 184q0 61 -26 95t-71 34q-92 0 -159 -113q-68 -116 -113 -405l-129 -811q-99 -613 -428 -613q-86 0 -140.5 40t-54.5 102q0 48 30 80t79 32q62 0 106 -77q25 -48 62 -48q18 0 31.5 13.5t30.5 68t32 152.5l135 936h-151v106l170 13
q40 195 118 352q65 132 173.5 210.5t240.5 78.5q114 0 199 -54l145 72l39 -33q-48 -145 -102 -354l-127 -473l6 -2q84 142 151.5 194t155.5 52q69 0 113.5 -50.5t44.5 -128.5q0 -62 -29 -157l-125 -391q-4 -16 -4 -27q0 -18 18 -18q51 0 164 143l47 -37q-175 -278 -331 -278
q-53 0 -92 40t-39 89q0 66 40 190l101 313q14 43 14 76q0 45 -43 45q-68 0 -139 -88.5t-107 -245.5l-94 -395q-44 -20 -117 -20q-71 0 -118 59q77 261 98 350zM702 1569l-36 71l288 193q71 47 103 47q27 0 43 -16l37 -31l223 -199l-39 -69l-281 123z" />
    <glyph glyph-name="longshbar" unicode="&#x17f;&#x127;" horiz-adv-x="1501" 
d="M639 393l160 672h-103l25 139h106q7 44 7 72q0 61 -26 95t-71 34q-92 0 -159 -113q-68 -116 -113 -405l-129 -811q-99 -613 -428 -613q-86 0 -140.5 40t-54.5 102q0 48 30 80t79 32q62 0 106 -77q25 -48 62 -48q18 0 31.5 13.5t30.5 68t32 152.5l135 936h-151v106l170 13
q40 195 118 352q65 132 173.5 210.5t240.5 78.5q114 0 199 -54l145 72l39 -33q-49 -146 -90 -303h334l-25 -139h-346l-102 -385l6 -2q84 142 151.5 194t155.5 52q69 0 113.5 -50.5t44.5 -128.5q0 -62 -29 -157l-125 -391q-4 -16 -4 -27q0 -18 18 -18q51 0 164 143l47 -37
q-175 -278 -331 -278q-53 0 -92 40t-39 89q0 66 40 190l101 313q14 43 14 76q0 45 -43 45q-68 0 -139 -88.5t-107 -245.5l-94 -395q-44 -20 -117 -20q-71 0 -118 59q77 261 98 350z" />
    <glyph glyph-name="longsitilde" unicode="&#x17f;&#x129;" horiz-adv-x="1218" 
d="M440 735l-94 -600q-105 -672 -452 -672q-83 0 -132 39.5t-49 102.5q0 50 28 81t77 31q54 0 98 -77q25 -48 59 -48q72 0 113 263l133 907h-153v106l172 9q28 170 61 301q45 170 128.5 257t213.5 87q85 0 144 -51.5t59 -116.5q0 -45 -29 -78t-72 -33q-71 0 -112 86
q-26 49 -39 59q-12 10 -33 13q-76 0 -76 -166q0 -230 -45 -500zM758 299l114 309q33 85 33 105q0 24 -22 24q-39 0 -146 -110l-41 37q178 260 318 260q57 0 90 -37t33 -99q0 -55 -41 -167l-146 -408q-14 -41 -14 -53q0 -19 20 -19q47 0 162 158l47 -37q-156 -282 -327 -282
q-56 0 -92.5 38t-36.5 93q0 57 49 188zM1417 1298l45 -30q-29 -85 -93 -139t-134 -54q-67 0 -137 43t-117 43q-68 0 -143 -63l-45 30q29 85 93 139t134 54q67 0 137 -43t117 -43q68 0 143 63z" />
    <glyph glyph-name="longsibreve" unicode="&#x17f;&#x12d;" horiz-adv-x="1239" 
d="M440 735l-94 -600q-105 -672 -452 -672q-83 0 -132 39.5t-49 102.5q0 50 28 81t77 31q54 0 98 -77q25 -48 59 -48q72 0 113 263l133 907h-153v106l172 9q28 170 61 301q45 170 128.5 257t213.5 87q85 0 144 -51.5t59 -116.5q0 -45 -29 -78t-72 -33q-71 0 -112 86
q-26 49 -39 59q-12 10 -33 13q-76 0 -76 -166q0 -230 -45 -500zM778 299l115 309q33 85 33 105q0 24 -23 24q-38 0 -145 -110l-41 37q178 260 317 260q57 0 90 -37t33 -99q0 -55 -41 -167l-145 -408q-15 -44 -15 -53q0 -19 21 -19q47 0 162 158l47 -37q-156 -282 -328 -282
q-56 0 -92.5 38t-36.5 93q0 57 49 188zM1110 1065q-106 0 -165.5 73.5t-59.5 204.5q0 81 14 166h88v-36q0 -115 31 -163t96 -48q158 0 252 249l86 -18q-41 -210 -133 -319t-209 -109z" />
    <glyph glyph-name="longsij" unicode="&#x17f;&#x133;" horiz-adv-x="1603" 
d="M465 887l-129 -811q-99 -613 -428 -613q-86 0 -140.5 40t-54.5 102q0 48 30 80t79 32q62 0 106 -77q25 -48 62 -48q18 0 31.5 13.5t30.5 68t32 152.5l135 936h-151v106l170 13q40 195 118 352q65 132 173.5 210.5t240.5 78.5q124 0 206.5 -58.5t82.5 -154.5
q0 -56 -36 -92.5t-93 -36.5q-98 0 -139 133q-27 88 -86 88q-157 0 -240 -514zM602 299l115 309q33 85 33 105q0 24 -23 24q-38 0 -145 -110l-41 37q178 260 317 260q57 0 90 -37t33 -99q0 -55 -41 -167l-145 -408q-15 -44 -15 -53q0 -19 21 -19q47 0 162 158l47 -37
q-156 -282 -328 -282q-56 0 -92.5 38t-36.5 93q0 57 49 188zM1350 1348q0 61 42.5 104t104.5 43q64 0 106 -41t42 -106t-42 -106.5t-106 -41.5t-105.5 41.5t-41.5 106.5zM1505 606l-112 -456q-170 -687 -498 -687q-79 0 -125.5 36t-46.5 98q0 44 29.5 75t70.5 31
q54 0 101 -68q30 -43 61 -43q32 0 57.5 47t55.5 171l190 819q4 21 8.5 42.5t6.5 30.5t2 11q0 32 -27 32q-38 0 -125 -118l-49 30q150 267 280 267q68 0 107 -41.5t39 -118.5q0 -55 -25 -158z" />
    <glyph glyph-name="longsjcircumflex" unicode="&#x17f;&#x135;" horiz-adv-x="1161" 
d="M440 735l-94 -600q-105 -672 -452 -672q-83 0 -132 39.5t-49 102.5q0 50 28 81t77 31q54 0 98 -77q25 -48 59 -48q72 0 113 263l133 907h-153v106l172 9q28 170 61 301q45 170 128.5 257t213.5 87q85 0 144 -51.5t59 -116.5q0 -45 -29 -78t-72 -33q-71 0 -112 86
q-26 49 -39 59q-12 10 -33 13q-76 0 -76 -166q0 -230 -45 -500zM1063 606l-113 -456q-170 -687 -497 -687q-79 0 -125.5 36t-46.5 98q0 44 29.5 75t70.5 31q53 0 100 -68q30 -43 62 -43t57 46.5t55 171.5l191 819q16 82 16 84q0 32 -26 32q-38 0 -125 -118l-49 30
q150 267 280 267q68 0 106.5 -41.5t38.5 -118.5q0 -59 -24 -158zM795 1016l-62 55l295 404q40 55 82 55q45 0 57 -55l99 -437l-78 -24l-127 239z" />
    <glyph glyph-name="longsldot" unicode="&#x17f;&#x140;" horiz-adv-x="1357" 
d="M610 301l201 850q23 104 23 137q0 54 -26.5 85.5t-70.5 31.5q-92 0 -159 -113q-68 -116 -113 -405l-129 -811q-99 -613 -428 -613q-86 0 -140.5 40t-54.5 102q0 48 30 80t79 32q62 0 106 -77q25 -48 62 -48q18 0 31.5 13.5t30.5 68t32 152.5l135 936h-151v106l170 13
q40 195 118 352q65 132 173.5 210.5t240.5 78.5q114 0 199 -54l137 72l39 -33q-48 -152 -98 -354l-224 -924q-6 -30 -6 -39q0 -26 27 -26q60 0 192 170l47 -35q-193 -319 -385 -319q-53 0 -89 32t-36 86q0 52 37 203zM1087 399q-41 43 -41 106.5t41 104.5q43 43 106.5 43
t104.5 -43q43 -41 43 -104.5t-43 -106.5q-41 -41 -104.5 -41t-106.5 41z" />
    <glyph glyph-name="longsnapostrophe" unicode="&#x17f;&#x149;" horiz-adv-x="1597" 
d="M1212 733q-68 0 -138.5 -88.5t-106.5 -245.5l-95 -395q-44 -20 -116 -20t-119 59q57 190 98 350l62 256q12 47 12 76q0 23 -21 23q-44 0 -126 -107l-48 37q159 246 283 246q56 0 90.5 -38.5t34.5 -103.5q0 -48 -29 -149l6 -2q94 175 170 233q78 60 164 60
q69 0 113.5 -50.5t44.5 -128.5q0 -62 -29 -157l-125 -391q-4 -16 -4 -27q0 -18 19 -18q51 0 164 143l47 -37q-175 -278 -332 -278q-53 0 -92 40t-39 89q0 62 41 190l100 313q14 43 14 76q0 45 -43 45zM440 735l-94 -600q-105 -672 -452 -672q-83 0 -132 39.5t-49 102.5
q0 50 28 81t77 31q54 0 98 -77q25 -48 59 -48q72 0 113 263l133 907h-153v106l172 9q28 170 61 301q45 170 128.5 257t213.5 87q85 0 144 -51.5t59 -116.5q0 -45 -29 -78t-72 -33q-71 0 -112 86q-26 49 -39 59q-12 10 -33 13q-76 0 -76 -166q0 -230 -45 -500zM1026 1589
q62 0 101.5 -49t39.5 -127q0 -112 -84 -197t-229 -114l-23 63q98 37 138.5 71t40.5 73q0 31 -37 55q-68 47 -68 111q0 48 34 81t87 33z" />
    <glyph glyph-name="longsobreve" unicode="&#x17f;&#x14f;" horiz-adv-x="1513" 
d="M440 735l-94 -600q-105 -672 -452 -672q-83 0 -132 39.5t-49 102.5q0 50 28 81t77 31q54 0 98 -77q25 -48 59 -48q72 0 113 263l133 907h-153v106l172 9q28 170 61 301q45 170 128.5 257t213.5 87q85 0 144 -51.5t59 -116.5q0 -45 -29 -78t-72 -33q-71 0 -112 86
q-26 49 -39 59q-12 10 -33 13q-76 0 -76 -166q0 -230 -45 -500zM1446 514q0 -328 -240 -487q-92 -62 -217 -62q-133 0 -213 74q-131 116 -131 334q0 155 63.5 278t176.5 203q101 70 217 70q126 0 215 -80q129 -117 129 -330zM915 119q27 -47 78 -47q52 0 92 43
q56 63 91.5 178t35.5 258q0 154 -38 215q-26 47 -77.5 47t-92.5 -43q-53 -59 -91 -174q-36 -109 -36 -262q0 -152 38 -215zM1163 1065q-106 0 -165.5 73.5t-59.5 204.5q0 81 14 166h88v-36q0 -115 31 -163t96 -48q157 0 252 249l86 -18q-41 -210 -133 -319t-209 -109z" />
    <glyph glyph-name="longsutilde" unicode="&#x17f;&#x169;" horiz-adv-x="1617" 
d="M440 735l-94 -600q-105 -672 -452 -672q-83 0 -132 39.5t-49 102.5q0 50 28 81t77 31q54 0 98 -77q25 -48 59 -48q72 0 113 263l133 907h-153v106l172 9q28 170 61 301q45 170 128.5 257t213.5 87q85 0 144 -51.5t59 -116.5q0 -45 -29 -78t-72 -33q-71 0 -112 86
q-26 49 -39 59q-12 10 -33 13q-76 0 -76 -166q0 -230 -45 -500zM1217 422l-9 4q-119 -271 -202 -360q-80 -86 -189 -86q-69 0 -112 43t-43 110q0 76 49 201l116 303q23 64 23 82q0 33 -29 33q-44 0 -153 -136l-47 37q106 153 178 213q70 58 141 58q61 0 98 -39.5t37 -106.5
q0 -65 -43 -178l-123 -328q-14 -38 -14 -63q0 -39 41 -39q142 0 379 655l24 68q43 16 86 16q80 0 127 -80q-92 -256 -106 -309q-63 -213 -76 -295q-4 -28 -4 -43q0 -26 23 -26q42 0 157 133l43 -37q-175 -272 -309 -272q-60 0 -95.5 37.5t-35.5 103.5q0 100 68 301z
M1561 1421l45 -30q-29 -85 -93.5 -139t-134.5 -54q-67 0 -137 43t-117 43q-68 0 -143 -63l-45 30q29 85 93 139t134 54q67 0 137 -43t117 -43q69 0 144 63z" />
    <glyph glyph-name="longsycircumflex" unicode="&#x17f;&#x177;" horiz-adv-x="1544" 
d="M440 735l-94 -600q-105 -672 -452 -672q-83 0 -132 39.5t-49 102.5q0 50 28 81t77 31q54 0 98 -77q25 -48 59 -48q72 0 113 263l133 907h-153v106l172 9q28 170 61 301q45 170 128.5 257t213.5 87q85 0 144 -51.5t59 -116.5q0 -45 -29 -78t-72 -33q-71 0 -112 86
q-26 49 -39 59q-12 10 -33 13q-76 0 -76 -166q0 -230 -45 -500zM1114 -23l10 -2q172 383 172 799q0 71 -12 133q29 29 88 29q38 0 72 -12q10 -33 10 -99q0 -449 -219 -848q-137 -250 -348 -405q-186 -137 -424 -137q-71 0 -114.5 30t-43.5 78t33 80.5t86 32.5q48 0 113 -33
q68 -35 110 -35q120 0 203 121q84 122 84 311q0 366 -103 658q-20 57 -45 57q-53 0 -124 -203l-60 17q88 375 260 375q126 0 185 -170q81 -221 81 -598q0 -49 -8 -109q-6 -65 -6 -70zM938 1016l-61 55l294 404q40 55 82 55q46 0 58 -55l98 -437l-78 -24l-127 239z" />
    <glyph glyph-name="longsccaron" unicode="&#x17f;&#x10d;" horiz-adv-x="1474" 
d="M440 735l-94 -600q-105 -672 -452 -672q-83 0 -132 39.5t-49 102.5q0 50 28 81t77 31q54 0 98 -77q25 -48 59 -48q72 0 113 263l133 907h-153v106l172 9q28 170 61 301q45 170 128.5 257t213.5 87q85 0 144 -51.5t59 -116.5q0 -45 -29 -78t-72 -33q-71 0 -112 86
q-26 49 -39 59q-12 10 -33 13q-76 0 -76 -166q0 -230 -45 -500zM1247 627q-80 0 -104 86q-21 73 -66 73q-56 0 -107 -62t-87 -181q-33 -106 -33 -240q0 -67 28 -103t78 -36q116 0 232 180l59 -35q-59 -136 -133 -229q-90 -117 -240 -117q-112 0 -176.5 74.5t-64.5 202.5
q0 274 180 493q163 199 334 199q86 0 142.5 -51.5t56.5 -132.5q0 -50 -28 -85t-71 -36zM1487 1528l61 -55l-295 -404q-40 -55 -82 -55q-45 0 -57 55l-98 436l78 25l127 -240z" />
    <glyph glyph-name="gy" unicode="gy" horiz-adv-x="1880" 
d="M1450 -23l10 -2q172 383 172 799q0 71 -12 133q29 29 88 29q38 0 72 -12q10 -33 10 -99q0 -449 -219 -848q-137 -250 -348 -405q-186 -137 -424 -137q-131 0 -195 82q-118 -80 -291 -80q-197 0 -309.5 81t-112.5 208q0 189 232 278q-60 60 -60 137q0 92 115 187
q-76 88 -76 192q0 160 113 279t270 119q122 0 232 -78q99 23 201 61l30 -31v-114l-170 -11q23 -57 23 -127q0 -156 -109 -268q-108 -108 -272 -108q-115 0 -180 39q-15 -21 -15 -50q0 -51 105 -94l202 -82q222 -89 222 -280q0 -71 -25 -123q14 -3 94 -33q85 -31 160 -31
q120 0 203 121q84 122 84 311q0 366 -103 658q-20 57 -45 57q-54 0 -125 -203l-59 17q88 375 260 375q125 0 184 -170q82 -224 82 -598q0 -49 -8 -109q-6 -65 -6 -70zM451 -156l-154 64q-92 39 -115 53q-104 -58 -104 -182q0 -87 84.5 -141t230.5 -54q95 0 149 35t54 88
q0 40 -33 73t-112 64zM324 518q0 -172 90 -172q72 0 116 92q45 91 45 201q0 174 -86 174q-73 0 -120 -90q-45 -86 -45 -205z" />
    <glyph glyph-name="fi.trk" unicode="fi" horiz-adv-x="1218" 
d="M674 762h-230l-98 -627q-105 -672 -452 -672q-83 0 -132 39.5t-49 102.5q0 50 28 81t77 31q54 0 98 -77q25 -48 59 -48q72 0 113 263l133 907h-153v106l172 9q28 170 61 301q45 170 128.5 257t213.5 87q85 0 144 -51.5t59 -116.5q0 -45 -29 -78t-72 -33q-71 0 -112 86
q-26 49 -39 59q-12 10 -33 13q-76 0 -76 -166q0 -152 -20 -348l219 8l16 -35zM758 299l114 309q33 85 33 105q0 24 -22 24q-39 0 -146 -110l-41 37q178 260 318 260q57 0 90 -37t33 -99q0 -55 -41 -167l-146 -408q-14 -41 -14 -53q0 -19 20 -19q47 0 162 158l47 -37
q-156 -282 -327 -282q-56 0 -92.5 38t-36.5 93q0 57 49 188zM938 1348q0 61 42.5 104t104.5 43q66 0 107 -41t41 -106.5t-41 -106.5t-107 -41t-106.5 41t-40.5 107z" />
    <glyph glyph-name="ffi.trk" unicode="ffi" horiz-adv-x="1728" 
d="M950 1448q80 74 203 74q85 0 144 -51.5t59 -116.5q0 -45 -29 -78t-72 -33q-71 0 -112 86q-26 49 -39 59q-12 10 -33 13q-76 0 -76 -166q0 -152 -20 -348q52 1 131 4.5t92 3.5l16 -35l-26 -98h-230l-108 -686q-95 -613 -395 -613q-86 0 -140.5 40t-54.5 102
q0 47 30.5 79.5t74.5 32.5q64 0 104 -75q27 -50 66 -50q41 0 55 107q12 74 16 113l17 151q2 21 20 168l90 631h-287l-100 -627q-105 -672 -452 -672q-83 0 -132 39.5t-49 102.5q0 50 28 81t77 31q54 0 98 -77q25 -48 59 -48q72 0 113 263l133 907h-153v106l172 9
q48 210 122 356q147 289 392 289q113 0 196 -74zM465 883l289 2q17 103 39 198q2 10 15.5 58.5t21.5 85t6 51.5q0 57 -31.5 92t-85.5 35q-92 0 -150 -113q-57 -109 -104 -409zM1268 299l114 309q33 85 33 105q0 24 -22 24q-39 0 -146 -110l-41 37q178 260 318 260
q57 0 90 -37t33 -99q0 -55 -41 -167l-146 -408q-14 -41 -14 -53q0 -19 20 -19q47 0 162 158l47 -37q-156 -282 -327 -282q-56 0 -92.5 38t-36.5 93q0 57 49 188zM1448 1348q0 61 42.5 104t104.5 43q64 0 106 -41t42 -106t-42 -106.5t-106 -41.5t-105.5 41.5t-41.5 106.5z
" />
    <glyph glyph-name="fadblgrave" unicode="f&#x201;" horiz-adv-x="1626" 
d="M674 762h-230l-98 -627q-105 -672 -452 -672q-83 0 -132 39.5t-49 102.5q0 50 28 81t77 31q54 0 98 -77q25 -48 59 -48q72 0 113 263l133 907h-153v106l172 9q28 170 61 301q45 170 128.5 257t213.5 87q85 0 144 -51.5t59 -116.5q0 -45 -29 -78t-72 -33q-71 0 -112 86
q-26 49 -39 59q-12 10 -33 13q-76 0 -76 -166q0 -152 -20 -348l219 8l16 -35zM891 256q0 -106 67 -106q45 0 109 77t133 224q52 116 70 206q-30 82 -101 82q-108 0 -190 -143q-88 -152 -88 -340zM1391 240q-2 -16 -3.5 -30.5t-2.5 -20.5t-1 -7q0 -30 25 -30q46 0 164 157
l47 -37q-103 -162 -175.5 -227t-146.5 -65q-60 0 -94.5 37.5t-34.5 99.5q0 81 19 159l-6 7q-164 -320 -336 -320q-81 0 -126.5 55.5t-45.5 149.5q0 228 196 500q98 132 200 198t187 66q45 0 68 -10q15 -6 18 -9q3 -1 19.5 -14.5t17.5 -13.5l60 80q52 -12 119 -52
q-80 -263 -109 -391q-48 -198 -59 -282zM1217 1016l-70 -12l-117 301q-24 65 -24 112q-6 69 50 102q52 30 105 7q64 -28 67 -112q0 -10 -1 -21v-31q0 -36 -10 -346zM1489 1016l-70 -12l-116 301q-25 67 -25 112q-6 69 50 102q52 30 105 7q64 -28 67 -112q0 -10 -1 -21v-31
q0 -36 -10 -346z" />
    <glyph glyph-name="ffadblgrave" unicode="ff&#x201;" horiz-adv-x="2140" 
d="M1405 256q0 -106 68 -106q45 0 108 77t133 224q52 116 70 206q-30 82 -101 82q-108 0 -190 -143q-88 -152 -88 -340zM1905 240q-2 -16 -3.5 -30.5t-2.5 -20.5t-1 -7q0 -30 25 -30q46 0 164 157l47 -37q-103 -162 -175.5 -227t-146.5 -65q-60 0 -94.5 37.5t-34.5 99.5
q0 81 19 159l-6 7q-164 -320 -336 -320q-81 0 -126.5 55.5t-45.5 149.5q0 228 196 500q97 132 200 198t188 66q44 0 67 -10q17 -7 19 -9q3 -1 19 -14.5t17 -13.5l60 80q52 -12 119 -52q-80 -263 -109 -391q-48 -198 -59 -282zM1731 1016l-70 -12l-117 301q-24 65 -24 112
q-6 69 50 102q52 30 105 7q64 -28 67 -112q0 -10 -1 -21v-31q0 -36 -10 -346zM2003 1016l-70 -12l-116 301q-25 67 -25 112q-6 69 50 102q52 30 105 7q64 -28 67 -112q0 -10 -1 -21v-31q0 -36 -10 -346zM950 1448q80 74 203 74q85 0 144 -51.5t59 -116.5q0 -45 -29 -78
t-72 -33q-71 0 -112 86q-26 49 -39 59q-12 10 -33 13q-76 0 -76 -166q0 -152 -20 -348q52 1 131 4.5t92 3.5l16 -35l-26 -98h-230l-108 -686q-95 -613 -395 -613q-86 0 -140.5 40t-54.5 102q0 47 30.5 79.5t74.5 32.5q64 0 104 -75q27 -50 66 -50q41 0 55 107q12 74 16 113
l17 151q2 21 20 168l90 631h-287l-100 -627q-105 -672 -452 -672q-83 0 -132 39.5t-49 102.5q0 50 28 81t77 31q54 0 98 -77q25 -48 59 -48q72 0 113 263l133 907h-153v106l172 9q48 210 122 356q147 289 392 289q113 0 196 -74zM465 883l289 2q17 103 39 198
q2 10 15.5 58.5t21.5 85t6 51.5q0 57 -31.5 92t-85.5 35q-92 0 -150 -113q-57 -109 -104 -409z" />
    <glyph glyph-name="longsadblgrave" unicode="&#x17f;&#x201;" horiz-adv-x="1626" 
d="M891 256q0 -106 67 -106q45 0 109 77t133 224q52 116 70 206q-30 82 -101 82q-108 0 -190 -143q-88 -152 -88 -340zM1391 240q-2 -16 -3.5 -30.5t-2.5 -20.5t-1 -7q0 -30 25 -30q46 0 164 157l47 -37q-103 -162 -175.5 -227t-146.5 -65q-60 0 -94.5 37.5t-34.5 99.5
q0 81 19 159l-6 7q-164 -320 -336 -320q-81 0 -126.5 55.5t-45.5 149.5q0 228 196 500q98 132 200 198t187 66q45 0 68 -10q15 -6 18 -9q3 -1 19.5 -14.5t17.5 -13.5l60 80q52 -12 119 -52q-80 -263 -109 -391q-48 -198 -59 -282zM1217 1016l-70 -12l-117 301
q-24 65 -24 112q-6 69 50 102q52 30 105 7q64 -28 67 -112q0 -10 -1 -21v-31q0 -36 -10 -346zM1489 1016l-70 -12l-116 301q-25 67 -25 112q-6 69 50 102q52 30 105 7q64 -28 67 -112q0 -10 -1 -21v-31q0 -36 -10 -346zM440 735l-94 -600q-105 -672 -452 -672
q-83 0 -132 39.5t-49 102.5q0 50 28 81t77 31q54 0 98 -77q25 -48 59 -48q72 0 113 263l133 907h-153v106l172 9q28 170 61 301q45 170 128.5 257t213.5 87q85 0 144 -51.5t59 -116.5q0 -45 -29 -78t-72 -33q-71 0 -112 86q-26 49 -39 59q-12 10 -33 13q-76 0 -76 -166
q0 -230 -45 -500z" />
    <glyph glyph-name="fetilde" unicode="f&#x1ebd;" horiz-adv-x="1417" 
d="M674 762h-230l-98 -627q-105 -672 -452 -672q-83 0 -132 39.5t-49 102.5q0 50 28 81t77 31q54 0 98 -77q25 -48 59 -48q72 0 113 263l133 907h-153v106l172 9q28 170 61 301q45 170 128.5 257t213.5 87q85 0 144 -51.5t59 -116.5q0 -45 -29 -78t-72 -33q-71 0 -112 86
q-26 49 -39 59q-12 10 -33 13q-76 0 -76 -166q0 -152 -20 -348l219 8l16 -35zM1221 928q79 0 134.5 -52t55.5 -126q0 -252 -489 -340q-13 -50 -13 -111q0 -129 105 -129q58 5 108.5 42t120.5 132l60 -33q-79 -169 -163.5 -256.5t-199.5 -87.5q-117 0 -185.5 78t-68.5 209
q0 241 184 465q176 209 351 209zM1143 786q-59 0 -117 -78t-92 -223q270 83 270 232q0 69 -61 69zM1526 1421l45 -30q-29 -85 -93.5 -139t-134.5 -54q-67 0 -137 43t-116 43q-69 0 -144 -63l-45 30q29 85 93 139t134 54q68 0 138 -43t116 -43q69 0 144 63z" />
    <glyph glyph-name="ffetilde" unicode="ff&#x1ebd;" horiz-adv-x="1927" 
d="M950 1448q80 74 203 74q85 0 144 -51.5t59 -116.5q0 -45 -29 -78t-72 -33q-71 0 -112 86q-26 49 -39 59q-12 10 -33 13q-76 0 -76 -166q0 -152 -20 -348q52 1 131 4.5t92 3.5l16 -35l-26 -98h-230l-108 -686q-95 -613 -395 -613q-86 0 -140.5 40t-54.5 102
q0 47 30.5 79.5t74.5 32.5q64 0 104 -75q27 -50 66 -50q41 0 55 107q12 74 16 113l17 151q2 21 20 168l90 631h-287l-100 -627q-105 -672 -452 -672q-83 0 -132 39.5t-49 102.5q0 50 28 81t77 31q54 0 98 -77q25 -48 59 -48q72 0 113 263l133 907h-153v106l172 9
q48 210 122 356q147 289 392 289q113 0 196 -74zM465 883l289 2q17 103 39 198q2 10 15.5 58.5t21.5 85t6 51.5q0 57 -31.5 92t-85.5 35q-92 0 -150 -113q-57 -109 -104 -409zM1731 928q79 0 134.5 -52t55.5 -126q0 -252 -489 -340q-13 -50 -13 -111q0 -129 105 -129
q58 5 108.5 42t120.5 132l59 -33q-79 -170 -163 -257t-199 -87q-117 0 -185.5 78t-68.5 209q0 241 184 465q176 209 351 209zM1653 786q-59 0 -117 -78t-92 -223q270 83 270 232q0 69 -61 69zM2036 1421l45 -30q-29 -85 -93.5 -139t-134.5 -54q-67 0 -137 43t-117 43
q-68 0 -143 -63l-45 30q29 85 93 139t134 54q68 0 138 -43t116 -43q69 0 144 63z" />
    <glyph glyph-name="longsetilde" unicode="&#x17f;&#x1ebd;" horiz-adv-x="1417" 
d="M1221 928q79 0 134.5 -52t55.5 -126q0 -252 -489 -340q-13 -50 -13 -111q0 -129 105 -129q58 5 108.5 42t120.5 132l60 -33q-79 -169 -163.5 -256.5t-199.5 -87.5q-117 0 -185.5 78t-68.5 209q0 241 184 465q176 209 351 209zM1143 786q-59 0 -117 -78t-92 -223
q270 83 270 232q0 69 -61 69zM1526 1421l45 -30q-29 -85 -93.5 -139t-134.5 -54q-67 0 -137 43t-116 43q-69 0 -144 -63l-45 30q29 85 93 139t134 54q68 0 138 -43t116 -43q69 0 144 63zM440 735l-94 -600q-105 -672 -452 -672q-83 0 -132 39.5t-49 102.5q0 50 28 81t77 31
q54 0 98 -77q25 -48 59 -48q72 0 113 263l133 907h-153v106l172 9q28 170 61 301q45 170 128.5 257t213.5 87q85 0 144 -51.5t59 -116.5q0 -45 -29 -78t-72 -33q-71 0 -112 86q-26 49 -39 59q-12 10 -33 13q-76 0 -76 -166q0 -230 -45 -500z" />
    <glyph glyph-name="fedblgrave" unicode="f&#x205;" horiz-adv-x="1417" 
d="M674 762h-230l-98 -627q-105 -672 -452 -672q-83 0 -132 39.5t-49 102.5q0 50 28 81t77 31q54 0 98 -77q25 -48 59 -48q72 0 113 263l133 907h-153v106l172 9q28 170 61 301q45 170 128.5 257t213.5 87q85 0 144 -51.5t59 -116.5q0 -45 -29 -78t-72 -33q-71 0 -112 86
q-26 49 -39 59q-12 10 -33 13q-76 0 -76 -166q0 -152 -20 -348l219 8l16 -35zM1221 928q79 0 134.5 -52t55.5 -126q0 -252 -489 -340q-13 -50 -13 -111q0 -129 105 -129q58 5 108.5 42t120.5 132l60 -33q-79 -169 -163.5 -256.5t-199.5 -87.5q-117 0 -185.5 78t-68.5 209
q0 241 184 465q176 209 351 209zM1143 786q-59 0 -117 -78t-92 -223q270 83 270 232q0 69 -61 69zM1159 1016l-69 -12l-117 301q-25 67 -25 112q-6 69 50 102q52 30 105 7q64 -28 67 -112q0 -10 -1 -21v-31q0 -36 -10 -346zM1432 1016l-70 -12l-117 301q-24 65 -24 112
q-6 69 50 102q52 30 105 7q64 -28 67 -112q0 -10 -1 -21v-31q0 -36 -10 -346z" />
    <glyph glyph-name="ffedblgrave" unicode="ff&#x205;" horiz-adv-x="1927" 
d="M950 1448q80 74 203 74q85 0 144 -51.5t59 -116.5q0 -45 -29 -78t-72 -33q-71 0 -112 86q-26 49 -39 59q-12 10 -33 13q-76 0 -76 -166q0 -152 -20 -348q52 1 131 4.5t92 3.5l16 -35l-26 -98h-230l-108 -686q-95 -613 -395 -613q-86 0 -140.5 40t-54.5 102
q0 47 30.5 79.5t74.5 32.5q64 0 104 -75q27 -50 66 -50q41 0 55 107q12 74 16 113l17 151q2 21 20 168l90 631h-287l-100 -627q-105 -672 -452 -672q-83 0 -132 39.5t-49 102.5q0 50 28 81t77 31q54 0 98 -77q25 -48 59 -48q72 0 113 263l133 907h-153v106l172 9
q48 210 122 356q147 289 392 289q113 0 196 -74zM465 883l289 2q17 103 39 198q2 10 15.5 58.5t21.5 85t6 51.5q0 57 -31.5 92t-85.5 35q-92 0 -150 -113q-57 -109 -104 -409zM1731 928q79 0 134.5 -52t55.5 -126q0 -252 -489 -340q-13 -50 -13 -111q0 -129 105 -129
q58 5 108.5 42t120.5 132l59 -33q-79 -170 -163 -257t-199 -87q-117 0 -185.5 78t-68.5 209q0 241 184 465q176 209 351 209zM1653 786q-59 0 -117 -78t-92 -223q270 83 270 232q0 69 -61 69zM1669 1016l-70 -12l-116 301q-25 67 -25 112q-6 69 50 102q52 30 105 7
q64 -28 67 -112q0 -10 -1 -21v-31q0 -36 -10 -346zM1942 1016l-70 -12l-117 301q-24 65 -24 112q-6 69 50 102q52 30 105 7q64 -28 67 -112q0 -10 -1 -21v-31q0 -36 -10 -346z" />
    <glyph glyph-name="longsedblgrave" unicode="&#x17f;&#x205;" horiz-adv-x="1417" 
d="M1221 928q79 0 134.5 -52t55.5 -126q0 -252 -489 -340q-13 -50 -13 -111q0 -129 105 -129q58 5 108.5 42t120.5 132l60 -33q-79 -169 -163.5 -256.5t-199.5 -87.5q-117 0 -185.5 78t-68.5 209q0 241 184 465q176 209 351 209zM1143 786q-59 0 -117 -78t-92 -223
q270 83 270 232q0 69 -61 69zM1159 1016l-69 -12l-117 301q-25 67 -25 112q-6 69 50 102q52 30 105 7q64 -28 67 -112q0 -10 -1 -21v-31q0 -36 -10 -346zM1432 1016l-70 -12l-117 301q-24 65 -24 112q-6 69 50 102q52 30 105 7q64 -28 67 -112q0 -10 -1 -21v-31
q0 -36 -10 -346zM440 735l-94 -600q-105 -672 -452 -672q-83 0 -132 39.5t-49 102.5q0 50 28 81t77 31q54 0 98 -77q25 -48 59 -48q72 0 113 263l133 907h-153v106l172 9q28 170 61 301q45 170 128.5 257t213.5 87q85 0 144 -51.5t59 -116.5q0 -45 -29 -78t-72 -33
q-71 0 -112 86q-26 49 -39 59q-12 10 -33 13q-76 0 -76 -166q0 -230 -45 -500z" />
    <glyph glyph-name="feinvbreve" unicode="f&#x207;" horiz-adv-x="1417" 
d="M674 762h-230l-98 -627q-105 -672 -452 -672q-83 0 -132 39.5t-49 102.5q0 50 28 81t77 31q54 0 98 -77q25 -48 59 -48q72 0 113 263l133 907h-153v106l172 9q28 170 61 301q45 170 128.5 257t213.5 87q85 0 144 -51.5t59 -116.5q0 -45 -29 -78t-72 -33q-71 0 -112 86
q-26 49 -39 59q-12 10 -33 13q-76 0 -76 -166q0 -152 -20 -348l219 8l16 -35zM1221 928q79 0 134.5 -52t55.5 -126q0 -252 -489 -340q-13 -50 -13 -111q0 -129 105 -129q58 5 108.5 42t120.5 132l60 -33q-79 -169 -163.5 -256.5t-199.5 -87.5q-117 0 -185.5 78t-68.5 209
q0 241 184 465q176 209 351 209zM1143 786q-59 0 -117 -78t-92 -223q270 83 270 232q0 69 -61 69zM1298 1511q106 0 166 -74t60 -204q0 -75 -15 -166h-88v37q0 115 -31 163t-96 48q-157 0 -252 -250l-86 18q41 210 133 319t209 109z" />
    <glyph glyph-name="ffeinvbreve" unicode="ff&#x207;" horiz-adv-x="1927" 
d="M950 1448q80 74 203 74q85 0 144 -51.5t59 -116.5q0 -45 -29 -78t-72 -33q-71 0 -112 86q-26 49 -39 59q-12 10 -33 13q-76 0 -76 -166q0 -152 -20 -348q52 1 131 4.5t92 3.5l16 -35l-26 -98h-230l-108 -686q-95 -613 -395 -613q-86 0 -140.5 40t-54.5 102
q0 47 30.5 79.5t74.5 32.5q64 0 104 -75q27 -50 66 -50q41 0 55 107q12 74 16 113l17 151q2 21 20 168l90 631h-287l-100 -627q-105 -672 -452 -672q-83 0 -132 39.5t-49 102.5q0 50 28 81t77 31q54 0 98 -77q25 -48 59 -48q72 0 113 263l133 907h-153v106l172 9
q48 210 122 356q147 289 392 289q113 0 196 -74zM465 883l289 2q17 103 39 198q2 10 15.5 58.5t21.5 85t6 51.5q0 57 -31.5 92t-85.5 35q-92 0 -150 -113q-57 -109 -104 -409zM1731 928q79 0 134.5 -52t55.5 -126q0 -252 -489 -340q-13 -50 -13 -111q0 -129 105 -129
q58 5 108.5 42t120.5 132l59 -33q-79 -170 -163 -257t-199 -87q-117 0 -185.5 78t-68.5 209q0 241 184 465q176 209 351 209zM1653 786q-59 0 -117 -78t-92 -223q270 83 270 232q0 69 -61 69zM1808 1511q106 0 166 -74t60 -204q0 -75 -15 -166h-88v37q0 115 -31 163t-96 48
q-157 0 -252 -250l-86 18q41 210 133 319t209 109z" />
    <glyph glyph-name="longseinvbreve" unicode="&#x17f;&#x207;" horiz-adv-x="1417" 
d="M1221 928q79 0 134.5 -52t55.5 -126q0 -252 -489 -340q-13 -50 -13 -111q0 -129 105 -129q58 5 108.5 42t120.5 132l60 -33q-79 -169 -163.5 -256.5t-199.5 -87.5q-117 0 -185.5 78t-68.5 209q0 241 184 465q176 209 351 209zM1143 786q-59 0 -117 -78t-92 -223
q270 83 270 232q0 69 -61 69zM1298 1511q106 0 166 -74t60 -204q0 -75 -15 -166h-88v37q0 115 -31 163t-96 48q-157 0 -252 -250l-86 18q41 210 133 319t209 109zM440 735l-94 -600q-105 -672 -452 -672q-83 0 -132 39.5t-49 102.5q0 50 28 81t77 31q54 0 98 -77
q25 -48 59 -48q72 0 113 263l133 907h-153v106l172 9q28 170 61 301q45 170 128.5 257t213.5 87q85 0 144 -51.5t59 -116.5q0 -45 -29 -78t-72 -33q-71 0 -112 86q-26 49 -39 59q-12 10 -33 13q-76 0 -76 -166q0 -230 -45 -500z" />
    <glyph glyph-name="fhdotbelow" unicode="f&#x1e25;" horiz-adv-x="1501" 
d="M1051 1153l-127 -473l6 -2q84 142 151.5 194t155.5 52q69 0 113.5 -50.5t44.5 -128.5q0 -62 -29 -157l-125 -391q-4 -16 -4 -27q0 -18 18 -18q51 0 164 143l47 -37q-175 -278 -331 -278q-53 0 -92 40t-39 89q0 66 40 190l101 313q14 43 14 76q0 45 -43 45
q-68 0 -139 -88.5t-107 -245.5l-94 -395q-44 -20 -117 -20q-71 0 -118 59q77 261 98 350l88 369h-283l-108 -686q-95 -613 -428 -613q-86 0 -140.5 40t-54.5 102q0 48 30 80t79 32q62 0 106 -77q25 -48 62 -48q18 0 31.5 13.5t30.5 68t32 152.5l135 936h-151v106l170 13
q40 195 118 352q65 132 173.5 210.5t240.5 78.5q114 0 199 -54l145 72l39 -33q-48 -145 -102 -354zM465 887h61q136 4 232 4l47 201q29 126 29 184q0 61 -26 95t-71 34q-92 0 -159 -113q-68 -116 -113 -405zM743 -371q-41 43 -41 106.5t41 106.5q43 41 106.5 41t104.5 -41
q43 -43 43 -106.5t-43 -104.5q-41 -43 -104.5 -43t-106.5 41z" />
    <glyph glyph-name="ffhdotbelow" unicode="ff&#x1e25;" horiz-adv-x="2015" 
d="M465 883l289 2q29 138 65 231l37 88q16 36 16 64q0 61 -35.5 97t-97.5 36q-94 0 -161 -113q-68 -120 -113 -405zM977 887h63q136 4 232 4l47 201q29 126 29 184q0 61 -26 95t-71 34q-92 0 -159 -113q-69 -117 -115 -405zM1284 1522q114 0 199 -54l145 72l39 -33
q-48 -145 -102 -354l-127 -473l6 -2q84 142 151.5 194t155.5 52q69 0 113.5 -50.5t44.5 -128.5q0 -62 -29 -157l-125 -391q-4 -16 -4 -27q0 -18 18 -18q51 0 164 143l47 -37q-175 -278 -331 -278q-53 0 -92 40t-39 89q0 62 41 190l100 313q14 43 14 76q0 45 -43 45
q-68 0 -139 -88.5t-107 -245.5l-94 -395q-44 -20 -116 -20t-119 59q77 261 98 350l88 369h-283l-108 -686q-95 -613 -395 -613q-86 0 -140.5 40t-54.5 102q0 47 30.5 79.5t74.5 32.5q64 0 104 -75q27 -50 66 -50q41 0 55 107q12 74 16 113l17 151q2 21 20 168l90 631h-287
l-100 -627q-105 -672 -452 -672q-83 0 -132 39.5t-49 102.5q0 50 28 81t77 31q54 0 98 -77q25 -48 59 -48q72 0 113 263l133 907h-153v106l172 9q42 202 120 356q68 134 183.5 211.5t240.5 77.5q151 0 240 -95q115 95 260 95zM1255 -371q-41 43 -41 106.5t41 106.5
q43 41 106.5 41t104.5 -41q43 -43 43 -106.5t-43 -104.5q-41 -43 -104.5 -43t-106.5 41z" />
    <glyph glyph-name="longshdotbelow" unicode="&#x17f;&#x1e25;" horiz-adv-x="1501" 
d="M639 393l166 699q29 126 29 184q0 61 -26 95t-71 34q-92 0 -159 -113q-68 -116 -113 -405l-129 -811q-99 -613 -428 -613q-86 0 -140.5 40t-54.5 102q0 48 30 80t79 32q62 0 106 -77q25 -48 62 -48q18 0 31.5 13.5t30.5 68t32 152.5l135 936h-151v106l170 13
q40 195 118 352q65 132 173.5 210.5t240.5 78.5q114 0 199 -54l145 72l39 -33q-48 -145 -102 -354l-127 -473l6 -2q84 142 151.5 194t155.5 52q69 0 113.5 -50.5t44.5 -128.5q0 -62 -29 -157l-125 -391q-4 -16 -4 -27q0 -18 18 -18q51 0 164 143l47 -37q-175 -278 -331 -278
q-53 0 -92 40t-39 89q0 66 40 190l101 313q14 43 14 76q0 45 -43 45q-68 0 -139 -88.5t-107 -245.5l-94 -395q-44 -20 -117 -20q-71 0 -118 59q77 261 98 350zM743 -371q-41 43 -41 106.5t41 106.5q43 41 106.5 41t104.5 -41q43 -43 43 -106.5t-43 -104.5
q-41 -43 -104.5 -43t-106.5 41z" />
    <glyph glyph-name="fidotbelow" unicode="f&#x1ecb;" horiz-adv-x="1058" 
d="M580 762h-136l-108 -686q-95 -613 -428 -613q-86 0 -140.5 40t-54.5 102q0 48 30 80t79 32q62 0 106 -77q25 -48 62 -48q18 0 31.5 13.5t30.5 68t32 152.5l135 936h-151v106l170 13q40 195 118 352q65 132 173.5 210.5t240.5 78.5q124 0 206.5 -58.5t82.5 -154.5
q0 -56 -36 -92.5t-93 -36.5q-98 0 -139 133q-27 88 -86 88q-157 0 -240 -514l135 6q233 9 320 45l61 -37q-80 -289 -84 -307l-88 -381q-6 -24 -6 -45q0 -27 22 -27q51 0 166 158l47 -37q-80 -145 -167.5 -213.5t-165.5 -68.5q-56 0 -95 35.5t-39 88.5q0 52 31 195l70 309
q16 75 16 103q0 51 -108 51zM518 -371q-41 43 -41 106.5t41 106.5q43 41 106.5 41t104.5 -41q43 -43 43 -106.5t-43 -104.5q-41 -43 -104.5 -43t-106.5 41z" />
    <glyph glyph-name="ffidotbelow" unicode="ff&#x1ecb;" horiz-adv-x="1570" 
d="M1284 1522q124 0 205.5 -59t81.5 -156q0 -58 -34 -92.5t-93 -34.5q-98 0 -139 133q-27 88 -86 88q-161 0 -244 -514l139 6q233 9 320 45l61 -37q-80 -289 -84 -307l-88 -381q-6 -24 -6 -45q0 -27 22 -27q51 0 166 158l47 -37q-80 -145 -167.5 -213.5t-165.5 -68.5
q-56 0 -95 35.5t-39 88.5q0 52 31 195l70 309q16 75 16 103q0 51 -108 51h-136l-108 -686q-95 -613 -395 -613q-86 0 -140.5 40t-54.5 102q0 47 30.5 79.5t74.5 32.5q64 0 104 -75q27 -50 66 -50q41 0 55 107q12 74 16 113l17 151q2 21 20 168l90 631h-287l-100 -627
q-105 -672 -452 -672q-83 0 -132 39.5t-49 102.5q0 50 28 81t77 31q54 0 98 -77q25 -48 59 -48q72 0 113 263l133 907h-153v106l172 9q42 202 120 356q68 134 183.5 211.5t240.5 77.5q151 0 240 -95q115 95 260 95zM465 883l289 2q29 138 65 231l37 88q16 36 16 64
q0 61 -35.5 97t-97.5 36q-94 0 -161 -113q-68 -120 -113 -405zM1051 -371q-41 43 -41 106.5t41 106.5q43 41 106.5 41t104.5 -41q43 -43 43 -106.5t-43 -104.5q-41 -43 -104.5 -43t-106.5 41z" />
    <glyph glyph-name="longsidotbelow" unicode="&#x17f;&#x1ecb;" horiz-adv-x="1058" 
d="M465 887l-129 -811q-99 -613 -428 -613q-86 0 -140.5 40t-54.5 102q0 48 30 80t79 32q62 0 106 -77q25 -48 62 -48q18 0 31.5 13.5t30.5 68t32 152.5l135 936h-151v106l170 13q40 195 118 352q65 132 173.5 210.5t240.5 78.5q124 0 206.5 -58.5t82.5 -154.5
q0 -56 -36 -92.5t-93 -36.5q-98 0 -139 133q-27 88 -86 88q-157 0 -240 -514zM602 299l115 309q33 85 33 105q0 24 -23 24q-38 0 -145 -110l-41 37q178 260 317 260q57 0 90 -37t33 -99q0 -55 -41 -167l-145 -408q-15 -44 -15 -53q0 -19 21 -19q47 0 162 158l47 -37
q-156 -282 -328 -282q-56 0 -92.5 38t-36.5 93q0 57 49 188zM518 -371q-41 43 -41 106.5t41 106.5q43 41 106.5 41t104.5 -41q43 -43 43 -106.5t-43 -104.5q-41 -43 -104.5 -43t-106.5 41z" />
    <glyph glyph-name="fidblgrave" unicode="f&#x209;" horiz-adv-x="1300" 
d="M674 762h-230l-98 -627q-105 -672 -452 -672q-83 0 -132 39.5t-49 102.5q0 50 28 81t77 31q54 0 98 -77q25 -48 59 -48q72 0 113 263l133 907h-153v106l172 9q28 170 61 301q45 170 128.5 257t213.5 87q85 0 144 -51.5t59 -116.5q0 -45 -29 -78t-72 -33q-71 0 -112 86
q-26 49 -39 59q-12 10 -33 13q-76 0 -76 -166q0 -152 -20 -348l219 8l16 -35zM840 299l114 309q33 85 33 105q0 24 -22 24q-39 0 -146 -110l-41 37q178 260 318 260q57 0 90 -37t33 -99q0 -55 -41 -167l-146 -408q-14 -41 -14 -53q0 -19 20 -19q47 0 162 158l47 -37
q-156 -282 -327 -282q-56 0 -92.5 38t-36.5 93q0 57 49 188zM1092 1016l-70 -12l-117 301q-24 65 -24 112q-6 69 50 102q52 30 105 7q64 -28 67 -112q0 -10 -1 -21v-31q0 -36 -10 -346zM1364 1016l-70 -12l-116 301q-25 67 -25 112q-6 69 50 102q52 30 105 7q64 -28 67 -112
q0 -10 -1 -21v-31q0 -36 -10 -346z" />
    <glyph glyph-name="ffidblgrave" unicode="ff&#x209;" horiz-adv-x="1812" 
d="M950 1448q80 74 203 74q85 0 144 -51.5t59 -116.5q0 -45 -29 -78t-72 -33q-71 0 -112 86q-26 49 -39 59q-12 10 -33 13q-76 0 -76 -166q0 -152 -20 -348q52 1 131 4.5t92 3.5l16 -35l-26 -98h-230l-108 -686q-95 -613 -395 -613q-86 0 -140.5 40t-54.5 102
q0 47 30.5 79.5t74.5 32.5q64 0 104 -75q27 -50 66 -50q41 0 55 107q12 74 16 113l17 151q2 21 20 168l90 631h-287l-100 -627q-105 -672 -452 -672q-83 0 -132 39.5t-49 102.5q0 50 28 81t77 31q54 0 98 -77q25 -48 59 -48q72 0 113 263l133 907h-153v106l172 9
q48 210 122 356q147 289 392 289q113 0 196 -74zM465 883l289 2q17 103 39 198q2 10 15.5 58.5t21.5 85t6 51.5q0 57 -31.5 92t-85.5 35q-92 0 -150 -113q-57 -109 -104 -409zM1352 299l114 309q33 85 33 105q0 24 -22 24q-39 0 -146 -110l-41 37q178 260 318 260
q57 0 90 -37t33 -99q0 -55 -41 -167l-146 -408q-14 -41 -14 -53q0 -19 20 -19q47 0 162 158l47 -37q-156 -282 -327 -282q-56 0 -92.5 38t-36.5 93q0 57 49 188zM1604 1016l-70 -12l-117 301q-24 65 -24 112q-6 69 50 102q52 30 105 7q64 -28 67 -112q0 -10 -1 -21v-31
q0 -36 -10 -346zM1876 1016l-70 -12l-116 301q-25 67 -25 112q-6 69 50 102q52 30 105 7q64 -28 67 -112q0 -10 -1 -21v-31q0 -36 -10 -346z" />
    <glyph glyph-name="longsidblgrave" unicode="&#x17f;&#x209;" horiz-adv-x="1300" 
d="M440 735l-94 -600q-105 -672 -452 -672q-83 0 -132 39.5t-49 102.5q0 50 28 81t77 31q54 0 98 -77q25 -48 59 -48q72 0 113 263l133 907h-153v106l172 9q28 170 61 301q45 170 128.5 257t213.5 87q85 0 144 -51.5t59 -116.5q0 -45 -29 -78t-72 -33q-71 0 -112 86
q-26 49 -39 59q-12 10 -33 13q-76 0 -76 -166q0 -230 -45 -500zM840 299l114 309q33 85 33 105q0 24 -22 24q-39 0 -146 -110l-41 37q178 260 318 260q57 0 90 -37t33 -99q0 -55 -41 -167l-146 -408q-14 -41 -14 -53q0 -19 20 -19q47 0 162 158l47 -37q-156 -282 -327 -282
q-56 0 -92.5 38t-36.5 93q0 57 49 188zM1092 1016l-70 -12l-117 301q-24 65 -24 112q-6 69 50 102q52 30 105 7q64 -28 67 -112q0 -10 -1 -21v-31q0 -36 -10 -346zM1364 1016l-70 -12l-116 301q-25 67 -25 112q-6 69 50 102q52 30 105 7q64 -28 67 -112q0 -10 -1 -21v-31
q0 -36 -10 -346z" />
    <glyph glyph-name="fiinvbreve" unicode="f&#x20b;" horiz-adv-x="1239" 
d="M674 762h-230l-98 -627q-105 -672 -452 -672q-83 0 -132 39.5t-49 102.5q0 50 28 81t77 31q54 0 98 -77q25 -48 59 -48q72 0 113 263l133 907h-153v106l172 9q28 170 61 301q45 170 128.5 257t213.5 87q85 0 144 -51.5t59 -116.5q0 -45 -29 -78t-72 -33q-71 0 -112 86
q-26 49 -39 59q-12 10 -33 13q-76 0 -76 -166q0 -152 -20 -348l219 8l16 -35zM778 299l115 309q33 85 33 105q0 24 -23 24q-38 0 -145 -110l-41 37q178 260 317 260q57 0 90 -37t33 -99q0 -55 -41 -167l-145 -408q-15 -44 -15 -53q0 -19 21 -19q47 0 162 158l47 -37
q-156 -282 -328 -282q-56 0 -92.5 38t-36.5 93q0 57 49 188zM1169 1511q106 0 166 -74t60 -204q0 -75 -15 -166h-88v37q0 115 -31 163t-96 48q-157 0 -252 -250l-86 18q41 210 133 319t209 109z" />
    <glyph glyph-name="ffiinvbreve" unicode="ff&#x20b;" horiz-adv-x="1753" 
d="M950 1448q80 74 203 74q85 0 144 -51.5t59 -116.5q0 -45 -29 -78t-72 -33q-71 0 -112 86q-26 49 -39 59q-12 10 -33 13q-76 0 -76 -166q0 -152 -20 -348q52 1 131 4.5t92 3.5l16 -35l-26 -98h-230l-108 -686q-95 -613 -395 -613q-86 0 -140.5 40t-54.5 102
q0 47 30.5 79.5t74.5 32.5q64 0 104 -75q27 -50 66 -50q41 0 55 107q12 74 16 113l17 151q2 21 20 168l90 631h-287l-100 -627q-105 -672 -452 -672q-83 0 -132 39.5t-49 102.5q0 50 28 81t77 31q54 0 98 -77q25 -48 59 -48q72 0 113 263l133 907h-153v106l172 9
q48 210 122 356q147 289 392 289q113 0 196 -74zM465 883l289 2q17 103 39 198q2 10 15.5 58.5t21.5 85t6 51.5q0 57 -31.5 92t-85.5 35q-92 0 -150 -113q-57 -109 -104 -409zM1292 299l115 309q33 85 33 105q0 24 -23 24q-38 0 -145 -110l-41 37q178 260 317 260
q57 0 90 -37t33 -99q0 -55 -41 -167l-145 -408q-15 -43 -15 -53q0 -19 21 -19q47 0 162 158l47 -37q-156 -282 -328 -282q-56 0 -92.5 38t-36.5 93q0 57 49 188zM1683 1511q106 0 166 -74t60 -204q0 -75 -15 -166h-88v37q0 115 -31 163t-96 48q-157 0 -252 -250l-86 18
q41 210 133 319t209 109z" />
    <glyph glyph-name="longsiinvbreve" unicode="&#x17f;&#x20b;" horiz-adv-x="1239" 
d="M440 735l-94 -600q-105 -672 -452 -672q-83 0 -132 39.5t-49 102.5q0 50 28 81t77 31q54 0 98 -77q25 -48 59 -48q72 0 113 263l133 907h-153v106l172 9q28 170 61 301q45 170 128.5 257t213.5 87q85 0 144 -51.5t59 -116.5q0 -45 -29 -78t-72 -33q-71 0 -112 86
q-26 49 -39 59q-12 10 -33 13q-76 0 -76 -166q0 -230 -45 -500zM778 299l115 309q33 85 33 105q0 24 -23 24q-38 0 -145 -110l-41 37q178 260 317 260q57 0 90 -37t33 -99q0 -55 -41 -167l-145 -408q-15 -44 -15 -53q0 -19 21 -19q47 0 162 158l47 -37q-156 -282 -328 -282
q-56 0 -92.5 38t-36.5 93q0 57 49 188zM1169 1511q106 0 166 -74t60 -204q0 -75 -15 -166h-88v37q0 115 -31 163t-96 48q-157 0 -252 -250l-86 18q41 210 133 319t209 109z" />
    <glyph glyph-name="fodblgrave" unicode="f&#x20d;" horiz-adv-x="1570" 
d="M674 762h-230l-98 -627q-105 -672 -452 -672q-83 0 -132 39.5t-49 102.5q0 50 28 81t77 31q54 0 98 -77q25 -48 59 -48q72 0 113 263l133 907h-153v106l172 9q28 170 61 301q45 170 128.5 257t213.5 87q85 0 144 -51.5t59 -116.5q0 -45 -29 -78t-72 -33q-71 0 -112 86
q-26 49 -39 59q-12 10 -33 13q-76 0 -76 -166q0 -152 -20 -348l219 8l16 -35zM1503 514q0 -329 -239 -487q-92 -62 -217 -62q-133 0 -213 74q-132 117 -132 334q0 155 63.5 278t176.5 203q101 70 217 70q126 0 215 -80q129 -117 129 -330zM973 119q27 -47 78 -47q52 0 92 43
q56 63 91.5 178t35.5 258q0 153 -39 215q-26 47 -77.5 47t-92.5 -43q-52 -58 -90 -174q-37 -112 -37 -262t39 -215zM1182 1016l-70 -12l-117 301q-24 65 -24 112q-6 69 50 102q52 30 105 7q64 -28 67 -112q0 -10 -1 -21v-31q0 -36 -10 -346zM1454 1016l-70 -12l-116 301
q-25 67 -25 112q-6 69 50 102q52 30 105 7q64 -28 67 -112q0 -10 -1 -21v-31q0 -36 -10 -346z" />
    <glyph glyph-name="ffodblgrave" unicode="ff&#x20d;" horiz-adv-x="2080" 
d="M950 1448q80 74 203 74q85 0 144 -51.5t59 -116.5q0 -45 -29 -78t-72 -33q-71 0 -112 86q-26 49 -39 59q-12 10 -33 13q-76 0 -76 -166q0 -152 -20 -348q52 1 131 4.5t92 3.5l16 -35l-26 -98h-230l-108 -686q-95 -613 -395 -613q-86 0 -140.5 40t-54.5 102
q0 47 30.5 79.5t74.5 32.5q64 0 104 -75q27 -50 66 -50q41 0 55 107q12 74 16 113l17 151q2 21 20 168l90 631h-287l-100 -627q-105 -672 -452 -672q-83 0 -132 39.5t-49 102.5q0 50 28 81t77 31q54 0 98 -77q25 -48 59 -48q72 0 113 263l133 907h-153v106l172 9
q48 210 122 356q147 289 392 289q113 0 196 -74zM465 883l289 2q17 103 39 198q2 10 15.5 58.5t21.5 85t6 51.5q0 57 -31.5 92t-85.5 35q-92 0 -150 -113q-57 -109 -104 -409zM2013 514q0 -329 -239 -487q-92 -62 -218 -62q-133 0 -213 74q-131 116 -131 334q0 155 63.5 278
t176.5 203q101 70 217 70q126 0 215 -80q129 -117 129 -330zM1483 119q27 -47 78 -47q52 0 92 43q56 63 91.5 178t35.5 258q0 153 -39 215q-26 47 -77.5 47t-92.5 -43q-52 -58 -90 -174q-37 -112 -37 -262t39 -215zM1692 1016l-70 -12l-117 301q-24 65 -24 112q-6 69 50 102
q52 30 105 7q64 -28 67 -112q0 -10 -1 -21v-31q0 -36 -10 -346zM1964 1016l-70 -12l-116 301q-25 67 -25 112q-6 69 50 102q52 30 105 7q64 -28 67 -112q0 -10 -1 -21v-31q0 -36 -10 -346z" />
    <glyph glyph-name="longsodblgrave" unicode="&#x17f;&#x20d;" horiz-adv-x="1570" 
d="M1503 514q0 -329 -239 -487q-92 -62 -217 -62q-133 0 -213 74q-132 117 -132 334q0 155 63.5 278t176.5 203q101 70 217 70q126 0 215 -80q129 -117 129 -330zM973 119q27 -47 78 -47q52 0 92 43q56 63 91.5 178t35.5 258q0 153 -39 215q-26 47 -77.5 47t-92.5 -43
q-52 -58 -90 -174q-37 -112 -37 -262t39 -215zM1182 1016l-70 -12l-117 301q-24 65 -24 112q-6 69 50 102q52 30 105 7q64 -28 67 -112q0 -10 -1 -21v-31q0 -36 -10 -346zM1454 1016l-70 -12l-116 301q-25 67 -25 112q-6 69 50 102q52 30 105 7q64 -28 67 -112q0 -10 -1 -21
v-31q0 -36 -10 -346zM440 735l-94 -600q-105 -672 -452 -672q-83 0 -132 39.5t-49 102.5q0 50 28 81t77 31q54 0 98 -77q25 -48 59 -48q72 0 113 263l133 907h-153v106l172 9q28 170 61 301q45 170 128.5 257t213.5 87q85 0 144 -51.5t59 -116.5q0 -45 -29 -78t-72 -33
q-71 0 -112 86q-26 49 -39 59q-12 10 -33 13q-76 0 -76 -166q0 -230 -45 -500z" />
    <glyph glyph-name="frdblgrave" unicode="f&#x211;" horiz-adv-x="1437" 
d="M674 762h-230l-98 -627q-105 -672 -452 -672q-83 0 -132 39.5t-49 102.5q0 50 28 81t77 31q54 0 98 -77q25 -48 59 -48q72 0 113 263l133 907h-153v106l172 9q28 170 61 301q45 170 128.5 257t213.5 87q85 0 144 -51.5t59 -116.5q0 -45 -29 -78t-72 -33q-71 0 -112 86
q-26 49 -39 59q-12 10 -33 13q-76 0 -76 -166q0 -152 -20 -348l219 8l16 -35zM1163 1016l-69 -12l-117 301q-25 67 -25 112q-6 69 50 102q51 30 105 7q65 -27 67 -111q1 -11 0 -22v-31q0 -5 -11 -346zM1436 1016l-70 -12l-117 301q-24 65 -24 112q-6 69 50 102q52 30 105 7
q64 -28 67 -112q0 -10 -1 -21v-31q0 -36 -10 -346zM1341 633q-49 0 -86 49q-28 40 -51 40.5t-51 -32.5q-33 -36 -75 -152t-72 -276l-50 -258q-44 -20 -116 -20t-119 59q36 132 80 350l51 256q8 36 8 68q0 31 -20 31q-45 0 -127 -107l-47 37q159 246 282 246q56 0 90.5 -38.5
t34.5 -103.5q0 -54 -33 -180l7 -2q64 174 126.5 249t133.5 75q61 0 100 -43.5t39 -112.5q0 -62 -30 -98.5t-75 -36.5z" />
    <glyph glyph-name="ffrdblgrave" unicode="ff&#x211;" horiz-adv-x="1947" 
d="M950 1448q80 74 203 74q85 0 144 -51.5t59 -116.5q0 -45 -29 -78t-72 -33q-71 0 -112 86q-26 49 -39 59q-12 10 -33 13q-76 0 -76 -166q0 -152 -20 -348q52 1 131 4.5t92 3.5l16 -35l-26 -98h-230l-108 -686q-95 -613 -395 -613q-86 0 -140.5 40t-54.5 102
q0 47 30.5 79.5t74.5 32.5q64 0 104 -75q27 -50 66 -50q41 0 55 107q12 74 16 113l17 151q2 21 20 168l90 631h-287l-100 -627q-105 -672 -452 -672q-83 0 -132 39.5t-49 102.5q0 50 28 81t77 31q54 0 98 -77q25 -48 59 -48q72 0 113 263l133 907h-153v106l172 9
q48 210 122 356q147 289 392 289q113 0 196 -74zM465 883l289 2q17 103 39 198q2 10 15.5 58.5t21.5 85t6 51.5q0 57 -31.5 92t-85.5 35q-92 0 -150 -113q-57 -109 -104 -409zM1673 1016l-69 -12l-117 301q-25 67 -25 112q-6 69 50 102q52 30 105 7q64 -28 67 -112
q0 -10 -1 -21v-31q0 -36 -10 -346zM1946 1016l-70 -12l-117 301q-24 65 -24 112q-6 69 50 102q52 30 105 7q64 -28 67 -112q0 -10 -1 -21v-31q0 -36 -10 -346zM1851 633q-49 0 -86 49q-28 40 -51 40.5t-51 -32.5q-33 -36 -75 -152t-72 -276l-50 -258q-44 -20 -116 -20
t-119 59q36 132 80 350l51 256q8 36 8 68q0 31 -20 31q-45 0 -127 -107l-47 37q159 246 282 246q56 0 90.5 -38.5t34.5 -103.5q0 -54 -33 -180l6 -2q64 174 127 249t134 75q61 0 100 -43.5t39 -112.5q0 -62 -30 -98.5t-75 -36.5z" />
    <glyph glyph-name="longsrdblgrave" unicode="&#x17f;&#x211;" horiz-adv-x="1437" 
d="M1163 1016l-69 -12l-117 301q-25 67 -25 112q-6 69 50 102q51 30 105 7q65 -27 67 -111q1 -11 0 -22v-31q0 -5 -11 -346zM1436 1016l-70 -12l-117 301q-24 65 -24 112q-6 69 50 102q52 30 105 7q64 -28 67 -112q0 -10 -1 -21v-31q0 -36 -10 -346zM1341 633q-49 0 -86 49
q-28 40 -51 40.5t-51 -32.5q-33 -36 -75 -152t-72 -276l-50 -258q-44 -20 -116 -20t-119 59q36 132 80 350l51 256q8 36 8 68q0 31 -20 31q-45 0 -127 -107l-47 37q159 246 282 246q56 0 90.5 -38.5t34.5 -103.5q0 -54 -33 -180l7 -2q64 174 126.5 249t133.5 75
q61 0 100 -43.5t39 -112.5q0 -62 -30 -98.5t-75 -36.5zM440 735l-94 -600q-105 -672 -452 -672q-83 0 -132 39.5t-49 102.5q0 50 28 81t77 31q54 0 98 -77q25 -48 59 -48q72 0 113 263l133 907h-153v106l172 9q28 170 61 301q45 170 128.5 257t213.5 87q85 0 144 -51.5
t59 -116.5q0 -45 -29 -78t-72 -33q-71 0 -112 86q-26 49 -39 59q-12 10 -33 13q-76 0 -76 -166q0 -230 -45 -500z" />
    <glyph glyph-name="frinvbreve" unicode="f&#x213;" horiz-adv-x="1437" 
d="M674 762h-230l-98 -627q-105 -672 -452 -672q-83 0 -132 39.5t-49 102.5q0 50 28 81t77 31q54 0 98 -77q25 -48 59 -48q72 0 113 263l133 907h-153v106l172 9q28 170 61 301q45 170 128.5 257t213.5 87q85 0 144 -51.5t59 -116.5q0 -45 -29 -78t-72 -33q-71 0 -112 86
q-26 49 -39 59q-12 10 -33 13q-76 0 -76 -166q0 -152 -20 -348l219 8l16 -35zM1341 633q-49 0 -86 49q-28 40 -51 40.5t-51 -32.5q-33 -36 -75 -152t-72 -276l-50 -258q-44 -20 -116 -20t-119 59q36 132 80 350l51 256q8 36 8 68q0 31 -20 31q-45 0 -127 -107l-47 37
q159 246 282 246q56 0 90.5 -38.5t34.5 -103.5q0 -54 -33 -180l7 -2q64 174 126.5 249t133.5 75q61 0 100 -43.5t39 -112.5q0 -62 -30 -98.5t-75 -36.5zM1262 1511q106 0 165.5 -73.5t59.5 -204.5q0 -81 -14 -166h-89v37q0 115 -31 163t-96 48q-156 0 -251 -250l-86 18
q41 210 133 319t209 109z" />
    <glyph glyph-name="ffrinvbreve" unicode="ff&#x213;" horiz-adv-x="1947" 
d="M950 1448q80 74 203 74q85 0 144 -51.5t59 -116.5q0 -45 -29 -78t-72 -33q-71 0 -112 86q-26 49 -39 59q-12 10 -33 13q-76 0 -76 -166q0 -152 -20 -348q52 1 131 4.5t92 3.5l16 -35l-26 -98h-230l-108 -686q-95 -613 -395 -613q-86 0 -140.5 40t-54.5 102
q0 47 30.5 79.5t74.5 32.5q64 0 104 -75q27 -50 66 -50q41 0 55 107q12 74 16 113l17 151q2 21 20 168l90 631h-287l-100 -627q-105 -672 -452 -672q-83 0 -132 39.5t-49 102.5q0 50 28 81t77 31q54 0 98 -77q25 -48 59 -48q72 0 113 263l133 907h-153v106l172 9
q48 210 122 356q147 289 392 289q113 0 196 -74zM465 883l289 2q17 103 39 198q2 10 15.5 58.5t21.5 85t6 51.5q0 57 -31.5 92t-85.5 35q-92 0 -150 -113q-57 -109 -104 -409zM1851 633q-49 0 -86 49q-28 40 -51 40.5t-51 -32.5q-33 -36 -75 -152t-72 -276l-50 -258
q-44 -20 -116 -20t-119 59q36 132 80 350l51 256q8 36 8 68q0 31 -20 31q-45 0 -127 -107l-47 37q159 246 282 246q56 0 90.5 -38.5t34.5 -103.5q0 -54 -33 -180l6 -2q64 174 127 249t134 75q61 0 100 -43.5t39 -112.5q0 -62 -30 -98.5t-75 -36.5zM1772 1511
q106 0 165.5 -73.5t59.5 -204.5q0 -75 -15 -166h-88v37q0 115 -31 163t-96 48q-156 0 -251 -250l-86 18q41 210 133 319t209 109z" />
    <glyph glyph-name="longsrinvbreve" unicode="&#x17f;&#x213;" horiz-adv-x="1437" 
d="M1341 633q-49 0 -86 49q-28 40 -51 40.5t-51 -32.5q-33 -36 -75 -152t-72 -276l-50 -258q-44 -20 -116 -20t-119 59q36 132 80 350l51 256q8 36 8 68q0 31 -20 31q-45 0 -127 -107l-47 37q159 246 282 246q56 0 90.5 -38.5t34.5 -103.5q0 -54 -33 -180l7 -2
q64 174 126.5 249t133.5 75q61 0 100 -43.5t39 -112.5q0 -62 -30 -98.5t-75 -36.5zM1262 1511q106 0 165.5 -73.5t59.5 -204.5q0 -81 -14 -166h-89v37q0 115 -31 163t-96 48q-156 0 -251 -250l-86 18q41 210 133 319t209 109zM440 735l-94 -600q-105 -672 -452 -672
q-83 0 -132 39.5t-49 102.5q0 50 28 81t77 31q54 0 98 -77q25 -48 59 -48q72 0 113 263l133 907h-153v106l172 9q28 170 61 301q45 170 128.5 257t213.5 87q85 0 144 -51.5t59 -116.5q0 -45 -29 -78t-72 -33q-71 0 -112 86q-26 49 -39 59q-12 10 -33 13q-76 0 -76 -166
q0 -230 -45 -500z" />
    <glyph glyph-name="fytilde" unicode="f&#x1ef9;" horiz-adv-x="1601" 
d="M674 762h-230l-98 -627q-105 -672 -452 -672q-83 0 -132 39.5t-49 102.5q0 50 28 81t77 31q54 0 98 -77q25 -48 59 -48q72 0 113 263l133 907h-153v106l172 9q28 170 61 301q45 170 128.5 257t213.5 87q85 0 144 -51.5t59 -116.5q0 -45 -29 -78t-72 -33q-71 0 -112 86
q-26 49 -39 59q-12 10 -33 13q-76 0 -76 -166q0 -152 -20 -348l219 8l16 -35zM1171 -23l11 -2q172 383 172 799q0 66 -13 133q29 29 89 29q36 0 71 -12q10 -33 10 -99q0 -449 -219 -848q-137 -250 -348 -405q-186 -137 -424 -137q-71 0 -114.5 30t-43.5 78t33 80.5t86 32.5
q48 0 113 -33q68 -35 111 -35q119 0 202 121q84 122 84 311q0 368 -102 658q-20 57 -45 57q-54 0 -125 -203l-60 17q89 375 261 375q125 0 184 -170q82 -224 82 -598q0 -49 -8 -109q-2 -18 -3.5 -35.5t-2.5 -25.5t-1 -9zM1511 1421l45 -30q-29 -85 -93 -139t-134 -54
q-67 0 -137 43t-117 43q-68 0 -143 -63l-45 30q29 85 93 139t134 54q67 0 137 -43t117 -43q68 0 143 63z" />
    <glyph glyph-name="ffytilde" unicode="ff&#x1ef9;" horiz-adv-x="2111" 
d="M950 1448q80 74 203 74q85 0 144 -51.5t59 -116.5q0 -45 -29 -78t-72 -33q-71 0 -112 86q-26 49 -39 59q-12 10 -33 13q-76 0 -76 -166q0 -152 -20 -348q52 1 131 4.5t92 3.5l16 -35l-26 -98h-230l-108 -686q-95 -613 -395 -613q-86 0 -140.5 40t-54.5 102
q0 47 30.5 79.5t74.5 32.5q64 0 104 -75q27 -50 66 -50q41 0 55 107q12 74 16 113l17 151q2 21 20 168l90 631h-287l-100 -627q-105 -672 -452 -672q-83 0 -132 39.5t-49 102.5q0 50 28 81t77 31q54 0 98 -77q25 -48 59 -48q72 0 113 263l133 907h-153v106l172 9
q48 210 122 356q147 289 392 289q113 0 196 -74zM465 883l289 2q17 103 39 198q2 10 15.5 58.5t21.5 85t6 51.5q0 57 -31.5 92t-85.5 35q-92 0 -150 -113q-57 -109 -104 -409zM1681 -23l11 -2q172 383 172 799q0 66 -13 133q29 29 88 29q38 0 72 -12q10 -33 10 -99
q0 -449 -219 -848q-137 -250 -348 -405q-186 -137 -424 -137q-71 0 -114.5 30t-43.5 78t33 80.5t86 32.5q48 0 113 -33q68 -35 110 -35q120 0 203 121q84 122 84 311q0 368 -102 658q-20 57 -45 57q-54 0 -125 -203l-60 17q89 375 261 375q125 0 184 -170q82 -224 82 -598
q0 -49 -8 -109q-2 -18 -3.5 -35.5t-2.5 -25.5t-1 -9zM2021 1421l45 -30q-29 -85 -93 -139t-134 -54q-67 0 -137 43t-117 43q-68 0 -143 -63l-45 30q29 85 93 139t134 54q67 0 137 -43t117 -43q68 0 143 63z" />
    <glyph glyph-name="longsytilde" unicode="&#x17f;&#x1ef9;" horiz-adv-x="1601" 
d="M1171 -23l11 -2q172 383 172 799q0 66 -13 133q29 29 89 29q36 0 71 -12q10 -33 10 -99q0 -449 -219 -848q-137 -250 -348 -405q-186 -137 -424 -137q-71 0 -114.5 30t-43.5 78t33 80.5t86 32.5q48 0 113 -33q68 -35 111 -35q119 0 202 121q84 122 84 311q0 368 -102 658
q-20 57 -45 57q-54 0 -125 -203l-60 17q89 375 261 375q125 0 184 -170q82 -224 82 -598q0 -49 -8 -109q-2 -18 -3.5 -35.5t-2.5 -25.5t-1 -9zM1511 1421l45 -30q-29 -85 -93 -139t-134 -54q-67 0 -137 43t-117 43q-68 0 -143 -63l-45 30q29 85 93 139t134 54q67 0 137 -43
t117 -43q68 0 143 63zM440 735l-94 -600q-105 -672 -452 -672q-83 0 -132 39.5t-49 102.5q0 50 28 81t77 31q54 0 98 -77q25 -48 59 -48q72 0 113 263l133 907h-153v106l172 9q28 170 61 301q45 170 128.5 257t213.5 87q85 0 144 -51.5t59 -116.5q0 -45 -29 -78t-72 -33
q-71 0 -112 86q-26 49 -39 59q-12 10 -33 13q-76 0 -76 -166q0 -230 -45 -500z" />
    <glyph glyph-name=".notdef" horiz-adv-x="614" 
 />
    <glyph glyph-name=".null" horiz-adv-x="0" 
 />
    <glyph glyph-name="nonmarkingreturn" horiz-adv-x="682" 
 />
    <glyph glyph-name="NUL" horiz-adv-x="0" 
 />
    <glyph glyph-name="NUL" horiz-adv-x="0" 
 />
    <glyph glyph-name="space" unicode=" " 
 />
    <glyph glyph-name="exclam" unicode="!" 
d="M281 373h-82q31 273 43 735q3 132 10 184q13 77 57 125.5t113 48.5q60 0 98.5 -40.5t38.5 -106.5q0 -62 -47 -195q-147 -409 -231 -751zM78 10q-44 44 -44 113t44 113t112.5 44t112.5 -44t44 -113t-44 -113t-112.5 -44t-112.5 44z" />
    <glyph glyph-name="quotedbl" unicode="&#x22;" horiz-adv-x="854" 
d="M334 950h-66q4 94 4 207q0 44 -1.5 97t-3 90t-1.5 42q0 71 39 114.5t101 43.5q49 0 83 -37q25 -26 32.5 -55.5t-4 -75.5t-46.5 -110q-92 -175 -137 -316zM676 950h-66q4 94 4 207q0 44 -1.5 97t-3 90t-1.5 42q0 71 39 114.5t101 43.5q49 0 83 -37q25 -26 32.5 -55.5
t-4 -75.5t-46.5 -110q-92 -175 -137 -316z" />
    <glyph glyph-name="numbersign" unicode="#" horiz-adv-x="1024" 
d="M762 586h186v-135h-223l-119 -451h-143l119 451h-205l-119 -451h-141l119 451h-173v135h209l72 272h-170v135h207l117 441h141l-117 -441h205l117 441h143l-117 -441h189v-135h-225zM690 858h-205l-71 -272h204z" />
    <glyph glyph-name="dollar" unicode="$" horiz-adv-x="983" 
d="M311 -238l-123 37l52 178q-115 15 -201 62q-16 239 -19 352l78 12q45 -115 88 -188q36 -65 92.5 -92t149.5 -27q110 0 175 57.5t65 155.5q0 81 -43 148q-45 74 -172 209q-122 133 -172 222t-50 185q0 174 123 285q122 110 305 110h17l57 197l123 -37l-51 -172
q101 -17 166 -47q4 -118 4 -145q0 -101 -4 -187l-72 -4q-50 141 -102 201q-65 74 -152 74q-86 0 -138 -60.5t-52 -157.5q0 -68 34.5 -128.5t124.5 -145.5q157 -151 209 -252q56 -103 56 -219q0 -191 -134 -307q-131 -113 -323 -113h-51z" />
    <glyph glyph-name="percent" unicode="%" horiz-adv-x="1656" 
d="M1454 1585l100 -90l-1306 -1616l-101 90zM211 1186q0 143 98 237q99 99 240 99q147 0 246 -99q98 -94 98 -237q0 -141 -98 -242q-98 -98 -238 -98q-149 0 -250 96q-96 96 -96 244zM348 1184q0 -96 59 -157.5t150 -61.5q81 0 139 61q60 66 60 158t-60 155q-59 62 -143 62
q-87 0 -146 -62t-59 -155zM860 307q0 144 98 238q98 98 240 98q148 0 246 -98q98 -94 98 -238q0 -140 -98 -241q-99 -99 -238 -99q-149 0 -250 96q-96 96 -96 244zM997 305q0 -96 59 -157.5t150 -61.5q82 0 140 61q59 65 59 158q0 94 -59 156q-58 61 -144 61q-87 0 -146 -62
t-59 -155z" />
    </font>
</defs>
</svg>
