<?xml version="1.0" standalone="no"?>
<!DOCTYPE svg PUBLIC "-//W3C//DTD SVG 1.1//EN" "http://www.w3.org/Graphics/SVG/1.1/DTD/svg11.dtd" >
<svg xmlns="http://www.w3.org/2000/svg" xmlns:xlink="http://www.w3.org/1999/xlink" version="1.1">
<metadata>
Created by FontForge 20170731 at Mon Nov  2 20:40:57 2020
 By Aleksey,,,
Copyright (c) 2015 Monotype Imaging Inc.  All rights reserved.
</metadata>
<defs>
<font id="NeueHaasUnicaW1G-HeavyIt" horiz-adv-x="1245" >
  <font-face 
    font-family="Neue Haas Unica W1G Heavy"
    font-weight="800"
    font-style="italic"
    font-stretch="normal"
    units-per-em="2048"
    panose-1="2 11 9 4 3 2 6 9 2 3"
    ascent="1565"
    descent="-483"
    x-height="1040"
    cap-height="1458"
    bbox="-1303 -596 2724 2320"
    underline-thickness="102"
    underline-position="-307"
    slope="-14"
    unicode-range="U+0020-FEFF"
  />
<missing-glyph horiz-adv-x="1327" 
d="M309 1591h709q129 0 204.5 -75.5t75.5 -204.5v-1164q0 -129 -75.5 -204.5t-204.5 -75.5h-709q-129 0 -204.5 75.5t-75.5 204.5v1164q0 129 75.5 204.5t204.5 75.5zM1018 1450h-709q-65 0 -102 -37t-37 -102v-1164q0 -65 37 -102t102 -37h709q64 0 101.5 37t37.5 102v1164
q0 65 -37.5 102t-101.5 37zM666 1325q177 0 276.5 -82.5t99.5 -228.5q0 -84 -29.5 -143t-113.5 -136q-81 -76 -107 -129t-26 -145h-227q-2 27 -2 78q0 101 24 158t105 139q60 60 78 94t18 80q0 45 -25.5 71.5t-70.5 26.5q-117 0 -117 -160h-277q1 183 104.5 280t289.5 97z
M793 133h-279v244h279v-244z" />
    <glyph glyph-name="f_f" unicode="ff" horiz-adv-x="1413" 
d="M1460 1477q89 0 168 -23l-57 -229q-20 4 -47 4q-78 0 -124 -37.5t-69 -126.5l-6 -25h191l-62 -247h-190l-199 -793h-336l197 793h-336l-199 -793h-336l197 793h-166l61 247h166l27 107q41 165 155 247.5t291 82.5q89 0 168 -23l-57 -229q-20 4 -47 4q-78 0 -124 -37.5
t-69 -126.5l-6 -25h336l27 107q41 165 155 247.5t291 82.5z" />
    <glyph glyph-name="f_f_i" unicode="ffi" horiz-adv-x="2002" 
d="M1264 793l-199 -793h-336l197 793h-336l-199 -793h-336l197 793h-166l61 247h166l27 107q41 165 155 247.5t291 82.5q89 0 168 -23l-57 -229q-20 4 -47 4q-78 0 -124 -37.5t-69 -126.5l-6 -25h336l27 107q41 165 155 247.5t291 82.5q89 0 168 -23l-57 -229q-20 4 -47 4
q-78 0 -124 -37.5t-69 -126.5l-6 -25h191l-62 -247h-190zM2111 1458l-67 -268h-340l68 268h339zM1667 1040h340l-258 -1040h-340z" />
    <glyph glyph-name="f_f_l" unicode="ffl" horiz-adv-x="2002" 
d="M1264 793l-199 -793h-336l197 793h-336l-199 -793h-336l197 793h-166l61 247h166l27 107q41 165 155 247.5t291 82.5q89 0 168 -23l-57 -229q-20 4 -47 4q-78 0 -124 -37.5t-69 -126.5l-6 -25h336l27 107q41 165 155 247.5t291 82.5q89 0 168 -23l-57 -229q-20 4 -47 4
q-78 0 -124 -37.5t-69 -126.5l-6 -25h191l-62 -247h-190zM2111 1458l-362 -1458h-340l363 1458h339z" />
    <glyph glyph-name="f_i" unicode="fi" horiz-adv-x="1329" 
d="M590 793l-199 -793h-336l197 793h-166l61 247h166l27 107q41 165 155 247.5t291 82.5q89 0 168 -23l-57 -229q-20 4 -47 4q-78 0 -124 -37.5t-69 -126.5l-6 -25h191l-62 -247h-190zM1438 1458l-68 -268h-340l68 268h340zM993 1040h340l-258 -1040h-340z" />
    <glyph glyph-name="f_l" unicode="fl" horiz-adv-x="1329" 
d="M590 793l-199 -793h-336l197 793h-166l61 247h166l27 107q41 165 155 247.5t291 82.5q89 0 168 -23l-57 -229q-20 4 -47 4q-78 0 -124 -37.5t-69 -126.5l-6 -25h191l-62 -247h-190zM1438 1458l-363 -1458h-340l363 1458h340z" />
    <glyph glyph-name=".notdef" horiz-adv-x="1327" 
d="M309 1591h709q129 0 204.5 -75.5t75.5 -204.5v-1164q0 -129 -75.5 -204.5t-204.5 -75.5h-709q-129 0 -204.5 75.5t-75.5 204.5v1164q0 129 75.5 204.5t204.5 75.5zM1018 1450h-709q-65 0 -102 -37t-37 -102v-1164q0 -65 37 -102t102 -37h709q64 0 101.5 37t37.5 102v1164
q0 65 -37.5 102t-101.5 37zM666 1325q177 0 276.5 -82.5t99.5 -228.5q0 -84 -29.5 -143t-113.5 -136q-81 -76 -107 -129t-26 -145h-227q-2 27 -2 78q0 101 24 158t105 139q60 60 78 94t18 80q0 45 -25.5 71.5t-70.5 26.5q-117 0 -117 -160h-277q1 183 104.5 280t289.5 97z
M793 133h-279v244h279v-244z" />
    <glyph glyph-name=".null" horiz-adv-x="0" 
 />
    <glyph glyph-name="nonmarkingreturn" horiz-adv-x="682" 
 />
    <glyph glyph-name="space" unicode=" " horiz-adv-x="471" 
 />
    <glyph glyph-name="exclam" unicode="!" horiz-adv-x="708" 
d="M469 430h-274l192 1028h399zM406 0h-361l74 301h362z" />
    <glyph glyph-name="quotedbl" unicode="&#x22;" horiz-adv-x="948" 
d="M481 885h-245l104 573h324zM895 885h-248l107 573h321z" />
    <glyph glyph-name="numbersign" unicode="#" horiz-adv-x="1423" 
d="M1190 813l-100 -244h198l-96 -235h-197l-137 -334h-276l137 334h-217l-137 -334h-277l137 334h-200l96 235h198l101 244h-201l96 236h201l135 331h277l-135 -331h217l135 331h276l-135 -331h199l-99 -236h-196zM913 813h-217l-100 -244h217z" />
    <glyph glyph-name="dollar" unicode="$" horiz-adv-x="1286" 
d="M1284 958h-332q6 27 6 58q0 72 -48 109.5t-140 37.5q-95 0 -154 -45.5t-59 -109.5q0 -63 51 -98.5t183 -78.5q73 -24 121.5 -43.5t103.5 -52.5t87 -70.5t53.5 -94.5t21.5 -128q0 -79 -34 -157t-99.5 -146t-174.5 -114t-245 -54l-45 -174h-242l47 189q-162 31 -249 122.5
t-87 233.5q0 54 12 109h342q-8 -33 -8 -70q0 -158 213 -158q108 0 168 51t60 119t-49 102.5t-177 77.5q-61 21 -101 37t-89.5 40.5t-81 51.5t-60 63t-42 83t-13.5 104q0 75 32.5 150t93.5 140.5t162.5 111t227.5 55.5l39 156h242l-41 -168q156 -28 236.5 -113t80.5 -223
q0 -61 -12 -103z" />
    <glyph glyph-name="percent" unicode="%" horiz-adv-x="1910" 
d="M532 -61h-204l1134 1503h205zM627 1419q150 0 227.5 -77t77.5 -224q0 -73 -16 -147t-51 -144t-83.5 -124t-119.5 -86.5t-154 -32.5q-150 0 -228.5 77t-78.5 224q0 73 16.5 147t51.5 144t84 124t120 86.5t154 32.5zM618 1235q-42 0 -76.5 -39t-54.5 -96.5t-30.5 -113.5
t-10.5 -99q0 -121 70 -121q43 0 77.5 39.5t54 97t30 114t10.5 99.5q0 119 -70 119zM1489 797q150 0 227.5 -77t77.5 -224q0 -92 -27 -184t-77.5 -171.5t-134 -129.5t-185.5 -50q-150 0 -228.5 77.5t-78.5 225.5q0 73 16.5 147t51.5 143.5t84 123.5t120 86.5t154 32.5z
M1481 614q-43 0 -78 -39.5t-55 -97t-30.5 -113.5t-10.5 -98q0 -121 69 -121q43 0 78 39.5t55 97.5t30.5 114.5t10.5 99.5q0 118 -69 118z" />
    <glyph glyph-name="ampersand" unicode="&#x26;" horiz-adv-x="1581" 
d="M1182 803h329q-75 -299 -274 -504l233 -299h-389l-90 115q-95 -70 -216 -109t-247 -39q-232 0 -353.5 100.5t-121.5 280.5q0 144 100.5 271.5t311.5 207.5q-88 138 -88 263q0 56 19.5 112.5t60 108.5t96.5 92t136.5 64t172.5 24q180 0 282.5 -88t102.5 -240
q0 -115 -87 -221.5t-271 -193.5l170 -220q81 101 123 275zM829 1243q-64 0 -101.5 -44.5t-37.5 -102.5q0 -65 60 -168q184 111 184 217q0 44 -29 71t-76 27zM608 229q118 0 230 84l-240 308q-192 -97 -192 -236q0 -70 52.5 -113t149.5 -43z" />
    <glyph glyph-name="quotesingle" unicode="'" horiz-adv-x="536" 
d="M481 885h-245l104 573h324z" />
    <glyph glyph-name="parenleft" unicode="(" horiz-adv-x="714" 
d="M616 1518h285q-485 -661 -485 -1319q0 -247 33 -500h-265q-106 308 -106 627q0 296 132.5 604t405.5 588z" />
    <glyph glyph-name="parenright" unicode=")" horiz-adv-x="714" 
d="M141 -301h-284q485 661 485 1319q0 247 -33 500h264q107 -311 107 -627q0 -296 -133 -604t-406 -588z" />
    <glyph glyph-name="asterisk" unicode="*" horiz-adv-x="917" 
d="M698 1153l281 66l16 -248l-286 24l147 -245l-229 -93l-64 281l-188 -219l-160 190l248 150l-266 110l131 211l217 -190l24 289l242 -62z" />
    <glyph glyph-name="plus" unicode="+" horiz-adv-x="1159" 
d="M713 780h325v-264h-325v-326h-267v326h-325v264h325v328h267v-328z" />
    <glyph glyph-name="comma" unicode="," horiz-adv-x="561" 
d="M334 0l-279 -365h-200l233 365h-117l92 377h363z" />
    <glyph glyph-name="hyphen" unicode="-" horiz-adv-x="690" 
d="M616 473h-567l64 250h565z" />
    <glyph glyph-name="period" unicode="." horiz-adv-x="561" 
d="M332 0h-361l92 377h363z" />
    <glyph glyph-name="slash" unicode="/" horiz-adv-x="1046" 
d="M164 -182h-279l1028 1708h279z" />
    <glyph glyph-name="zero" unicode="0" horiz-adv-x="1275" 
d="M803 1413q233 0 352 -134t119 -388q0 -99 -19.5 -203t-57.5 -208t-99 -196t-138 -163t-181 -112.5t-222 -41.5q-232 0 -350.5 134t-118.5 388q0 99 19.5 203t57.5 208t99 196t137.5 163t180.5 112.5t221 41.5zM778 1139q-81 0 -149 -74.5t-107.5 -182.5t-61.5 -215
t-22 -186q0 -243 144 -243q65 0 123 49.5t97 125.5t67.5 166.5t41.5 172.5t13 143q0 244 -146 244z" />
    <glyph glyph-name="one" unicode="1" horiz-adv-x="1275" 
d="M750 0h-351l222 891h-334l61 250q179 0 279.5 56t150.5 183h316z" />
    <glyph glyph-name="two" unicode="2" horiz-adv-x="1275" 
d="M805 1413q218 0 340.5 -99t122.5 -267q0 -160 -111 -286.5t-352 -234.5q-133 -60 -205 -102t-102 -72.5t-43 -70.5h667l-67 -281h-1098q31 180 101.5 306t183 216.5t295.5 177.5q103 49 167 84.5t113 74t69.5 77t20.5 84.5q0 58 -33.5 89.5t-97.5 31.5q-163 0 -213 -205
h-356q57 231 212.5 354t385.5 123z" />
    <glyph glyph-name="three" unicode="3" horiz-adv-x="1275" 
d="M801 1413q226 0 350.5 -94.5t124.5 -261.5q0 -122 -76.5 -217t-243.5 -146v-4q183 -79 183 -270q0 -64 -22.5 -127.5t-70 -122.5t-114.5 -104t-163.5 -72t-209.5 -27q-249 0 -379.5 98t-130.5 285q0 50 12 109h351q-9 -41 -9 -74q0 -145 172 -145q100 0 159 56t59 122
q0 143 -207 143h-39l65 262h43q129 0 200 58t71 133q0 60 -40.5 93.5t-113.5 33.5q-179 0 -229 -207h-348q54 226 213 352.5t393 126.5z" />
    <glyph glyph-name="four" unicode="4" horiz-adv-x="1275" 
d="M1180 287h-213l-72 -287h-344l72 287h-658l76 303l727 790h471l-207 -829h213zM346 551h354l37 154q74 274 119 411h-4q-177 -217 -326 -373z" />
    <glyph glyph-name="five" unicode="5" horiz-adv-x="1275" 
d="M1249 1100h-635l-90 -252h4q116 76 250 76q183 0 287 -107t104 -289q0 -74 -25 -151t-78.5 -151t-127.5 -131.5t-181 -92.5t-231 -35q-222 0 -347.5 90t-125.5 252q0 46 10 82h351q-4 -24 -4 -35q0 -58 43.5 -90.5t115.5 -32.5q62 0 110.5 25.5t76 66.5t41.5 87t14 92
q0 77 -42 118.5t-116 41.5q-67 0 -118 -36.5t-80 -97.5l-336 23l284 827h916z" />
    <glyph glyph-name="six" unicode="6" horiz-adv-x="1275" 
d="M834 1413q217 0 337.5 -97t120.5 -274q0 -17 -4 -49h-348v23q0 133 -133 133q-93 0 -174 -83t-133 -253h4q125 88 287 88q179 0 282 -108.5t103 -292.5q0 -70 -24 -143.5t-74.5 -143t-119 -124.5t-165.5 -88.5t-207 -33.5q-230 0 -351.5 128t-121.5 378q0 117 28.5 244
t88.5 251.5t143 223.5t203 160t258 61zM674 653q-68 0 -121 -40.5t-77.5 -95.5t-24.5 -111q0 -78 38 -124t109 -46q98 0 159.5 75.5t61.5 165.5q0 84 -37.5 130t-107.5 46z" />
    <glyph glyph-name="seven" unicode="7" horiz-adv-x="1275" 
d="M1372 1380l-67 -284q-200 -215 -379.5 -501.5t-307.5 -594.5h-401q147 331 340.5 620t378.5 470h-707l72 290h1071z" />
    <glyph glyph-name="eight" unicode="8" horiz-adv-x="1275" 
d="M805 1413q221 0 348 -98t127 -266q0 -123 -87 -225.5t-245 -133.5v-4q92 -35 144.5 -114t52.5 -183q0 -60 -22 -119t-69.5 -114t-115 -97t-166 -67t-215.5 -25q-235 0 -366.5 104t-131.5 291q0 129 97 238.5t270 140.5v4q-84 35 -129 106.5t-45 164.5q0 69 36.5 138
t103.5 127.5t175 95t238 36.5zM778 1149q-98 0 -154.5 -54t-56.5 -120t43.5 -102.5t122.5 -36.5q97 0 153 54t56 120t-43 102.5t-121 36.5zM635 578q-108 0 -166.5 -62.5t-58.5 -134.5q0 -69 45.5 -107t128.5 -38q106 0 166.5 59t60.5 135q0 70 -46 109t-130 39z" />
    <glyph glyph-name="nine" unicode="9" horiz-adv-x="1275" 
d="M498 -33q-217 0 -337 97t-120 274q0 33 2 51h350q0 -5 -1 -12t-1 -10q0 -134 133 -134q94 0 175 82.5t132 253.5h-4q-128 -90 -286 -90q-177 0 -280 110t-103 294q0 70 24 143t74 142.5t118.5 124t165.5 87.5t208 33q230 0 351.5 -127t121.5 -377q0 -117 -28.5 -244
t-89 -252t-143.5 -224t-203.5 -160.5t-258.5 -61.5zM657 727q52 0 96 24t71 61.5t42 80t15 82.5q0 79 -38.5 124.5t-109.5 45.5q-97 0 -159 -76.5t-62 -165.5q0 -83 37.5 -129.5t107.5 -46.5z" />
    <glyph glyph-name="colon" unicode=":" horiz-adv-x="561" 
d="M498 664h-361l92 376h363zM334 0h-363l92 377h363z" />
    <glyph glyph-name="semicolon" unicode=";" horiz-adv-x="561" 
d="M498 664h-363l94 376h361zM334 0l-279 -365h-200l233 365h-117l92 377h363z" />
    <glyph glyph-name="less" unicode="&#x3c;" horiz-adv-x="1159" 
d="M1038 883l-604 -232v-4l604 -231v-283l-917 361v311l917 360v-282z" />
    <glyph glyph-name="equal" unicode="=" horiz-adv-x="1159" 
d="M1038 729h-917v254h917v-254zM1038 313h-917v254h917v-254z" />
    <glyph glyph-name="greater" unicode="&#x3e;" horiz-adv-x="1159" 
d="M1038 805v-311l-917 -361v283l604 231v4l-604 232v282z" />
    <glyph glyph-name="question" unicode="?" horiz-adv-x="1167" 
d="M760 1489q226 0 349.5 -97.5t123.5 -271.5q0 -111 -62 -202t-225 -197q-132 -87 -183.5 -148t-80.5 -167h-287q24 127 54 198.5t80.5 126t152.5 127.5q124 88 161.5 141t37.5 111q0 55 -34.5 84t-101.5 29q-80 0 -132 -49t-78 -152h-353q55 229 204.5 348t373.5 119z
M616 0h-360l74 301h362z" />
    <glyph glyph-name="at" unicode="@" horiz-adv-x="1781" 
d="M1032 1450q343 0 537 -174t194 -475q0 -124 -38.5 -242.5t-107.5 -212.5t-174.5 -151.5t-230.5 -57.5q-100 0 -155.5 41.5t-61.5 120.5h-4q-116 -162 -280 -162q-127 0 -194.5 84t-67.5 244q0 72 22 152.5t65.5 159t101.5 142.5t137.5 103t166.5 39q172 0 205 -158h4
q16 44 59 137h252q-94 -207 -164.5 -394t-70.5 -240q0 -33 15 -47.5t48 -14.5q67 0 123 43.5t89.5 112t52 145.5t18.5 150q0 218 -144 342.5t-401 124.5q-126 0 -237.5 -36t-193 -98t-146.5 -142t-105 -169.5t-61 -179t-21 -172.5q0 -249 133 -386.5t371 -137.5
q267 0 471 106l68 -168q-238 -127 -525 -127q-335 0 -520.5 184.5t-185.5 520.5q0 107 28 221t81 225t136 209.5t185.5 174t238.5 119.5t287 44zM956 827q-50 0 -95.5 -35t-74.5 -86.5t-46 -107.5t-17 -102q0 -123 92 -123q48 0 93 36.5t74.5 89.5t47 109.5t17.5 98.5
q0 120 -91 120z" />
    <glyph glyph-name="A" unicode="A" horiz-adv-x="1464" 
d="M967 309h-529l-170 -309h-395l860 1458h465l135 -1458h-350zM952 600l-6 98q-13 288 -16 531h-4q-115 -241 -275 -531l-53 -98h354z" />
    <glyph glyph-name="B" unicode="B" horiz-adv-x="1359" 
d="M389 1458h537q238 0 355.5 -85.5t117.5 -239.5q0 -60 -17 -116t-53.5 -110.5t-104.5 -99t-161 -70.5v-4q203 -53 203 -274q0 -64 -22 -128t-70 -124t-117 -106t-170.5 -73.5t-222.5 -27.5h-637zM668 1184l-78 -316h203q135 0 191 52t56 131q0 68 -46.5 100.5t-145.5 32.5
h-180zM524 608l-82 -332h211q75 0 126.5 15.5t78.5 44t38 60.5t11 73q0 73 -47 106t-153 33h-183z" />
    <glyph glyph-name="C" unicode="C" horiz-adv-x="1464" 
d="M938 1491q251 0 398 -134t147 -364q0 -59 -6 -90h-367q4 36 4 58q0 105 -56 164t-155 59q-81 0 -151.5 -38.5t-119.5 -101t-84.5 -141.5t-52 -160.5t-16.5 -158.5q0 -141 60.5 -225.5t175.5 -84.5q100 0 183 61.5t124 168.5h373q-79 -255 -268 -396t-445 -141
q-271 0 -421 158.5t-150 433.5q0 127 31 255.5t98.5 250.5t162.5 216.5t233.5 152t301.5 57.5z" />
    <glyph glyph-name="D" unicode="D" horiz-adv-x="1521" 
d="M389 1458h410q347 0 525.5 -161.5t178.5 -469.5q0 -117 -31.5 -231t-102 -222.5t-172 -191t-253 -132.5t-332.5 -50h-585zM668 1157l-213 -856h176q106 0 193.5 31.5t144 82.5t95 118.5t55 136t16.5 137.5q0 350 -359 350h-108z" />
    <glyph glyph-name="E" unicode="E" horiz-adv-x="1298" 
d="M1346 1161h-676l-68 -276h629l-74 -293h-631l-71 -295h692l-74 -297h-1046l362 1458h1030z" />
    <glyph glyph-name="F" unicode="F" horiz-adv-x="1210" 
d="M1317 1155h-649l-84 -336h602l-74 -301h-602l-129 -518h-354l362 1458h1004z" />
    <glyph glyph-name="G" unicode="G" horiz-adv-x="1538" 
d="M979 1491q255 0 399 -121.5t144 -333.5q0 -32 -6 -73h-381q2 10 2 28q0 97 -54 150t-155 53q-86 0 -161 -39.5t-126.5 -104.5t-89 -147.5t-55 -168t-17.5 -167.5q0 -152 63 -238.5t187 -86.5q117 0 209.5 73.5t128.5 200.5h-313l67 272h645l-196 -788h-303l28 119h-4
q-72 -71 -172 -109.5t-213 -38.5q-233 0 -364 155.5t-131 418.5q0 133 33.5 265.5t105 255.5t172 217.5t244.5 151t313 56.5z" />
    <glyph glyph-name="H" unicode="H" horiz-adv-x="1558" 
d="M1274 0h-354l149 604h-539l-149 -604h-354l362 1458h354l-137 -553h539l137 553h354z" />
    <glyph glyph-name="I" unicode="I" horiz-adv-x="665" 
d="M381 0h-354l362 1458h354z" />
    <glyph glyph-name="J" unicode="J" horiz-adv-x="839" 
d="M928 1458l-250 -1001q-60 -244 -205.5 -358.5t-394.5 -114.5q-102 0 -176 22l73 291q42 -10 82 -10q123 0 189.5 62t109.5 235l217 874h355z" />
    <glyph glyph-name="K" unicode="K" horiz-adv-x="1413" 
d="M895 750l381 -750h-412l-305 700h-4l-174 -700h-354l362 1458h354l-149 -598h4l543 598h458z" />
    <glyph glyph-name="L" unicode="L" horiz-adv-x="1187" 
d="M455 301h661l-76 -301h-1013l362 1458h354z" />
    <glyph glyph-name="M" unicode="M" horiz-adv-x="2074" 
d="M1790 0h-334l176 713q64 255 148 538h-4q-126 -258 -273 -530l-385 -721h-420l-28 721q-8 350 -6 530h-5q-62 -297 -122 -538l-177 -713h-333l362 1458h547l27 -647q10 -307 0 -537h4q120 288 254 537l346 647h585z" />
    <glyph glyph-name="N" unicode="N" horiz-adv-x="1640" 
d="M1358 0h-488l-122 575q-65 300 -113 584h-4q-63 -348 -129 -614l-135 -545h-340l362 1458h485l125 -575q50 -243 111 -584h4q54 316 131 614l135 545h340z" />
    <glyph glyph-name="O" unicode="O" horiz-adv-x="1550" 
d="M930 1491q286 0 446 -170t160 -463q0 -122 -32 -246t-99 -240t-161 -206t-228.5 -144.5t-290.5 -54.5q-287 0 -446.5 170.5t-159.5 464.5q0 121 32 244.5t99 239.5t161 206t228.5 144.5t290.5 54.5zM909 1184q-70 0 -132 -26.5t-107.5 -71.5t-82.5 -103.5t-59.5 -124.5
t-34.5 -131.5t-12 -126.5q0 -155 67.5 -240.5t194.5 -85.5q84 0 156 38t121.5 99t85 138.5t52 156.5t16.5 152q0 155 -68.5 240.5t-196.5 85.5z" />
    <glyph glyph-name="P" unicode="P" horiz-adv-x="1339" 
d="M389 1458h481q267 0 401 -114.5t134 -321.5q0 -74 -21 -146.5t-68.5 -143t-116.5 -124t-174 -86.5t-232 -33h-289l-123 -489h-354zM674 1174l-101 -400h213q68 0 119.5 19t79.5 51.5t41.5 68.5t13.5 76q0 185 -209 185h-157z" />
    <glyph glyph-name="Q" unicode="Q" horiz-adv-x="1550" 
d="M1542 877q0 -198 -82.5 -394.5t-234.5 -328.5l116 -181l-211 -135l-118 185q-141 -56 -295 -56q-286 0 -445 165.5t-159 449.5q0 125 32.5 251.5t100.5 245t163.5 210t232.5 147t296 55.5q285 0 444.5 -165t159.5 -449zM750 252q51 0 104 16l-145 228l211 133l135 -209
q65 90 100 207t35 223q0 159 -69.5 246.5t-200.5 87.5q-86 0 -159.5 -38.5t-124 -101t-86.5 -141.5t-52.5 -159.5t-16.5 -155.5q0 -159 69.5 -247.5t199.5 -88.5z" />
    <glyph glyph-name="R" unicode="R" horiz-adv-x="1402" 
d="M389 1458h565q235 0 350 -89.5t115 -258.5q0 -95 -39 -182.5t-126 -159.5t-210 -102v-4q67 -28 100.5 -89.5t53.5 -195.5l53 -377h-364l-39 330q-14 113 -57.5 157.5t-145.5 44.5h-133l-131 -532h-354zM676 1184l-96 -383h215q69 0 121.5 20.5t80.5 54t41 69.5t13 73
q0 166 -189 166h-186z" />
    <glyph glyph-name="S" unicode="S" horiz-adv-x="1320" 
d="M834 1491q255 0 387.5 -94t132.5 -279q0 -35 -15 -104h-368q6 27 6 51q0 73 -48.5 112.5t-142.5 39.5q-92 0 -149 -43.5t-57 -106.5q0 -62 53 -98t190 -80q53 -17 91 -31t83.5 -35.5t77 -44t63 -54t50.5 -68t31 -84.5t12 -105q0 -70 -24.5 -139.5t-77.5 -134.5
t-127.5 -115.5t-182.5 -80.5t-235 -30q-266 0 -411.5 103.5t-145.5 296.5q0 61 12 108h377q-8 -31 -8 -63q0 -162 219 -162q107 0 165 49t58 113q0 30 -10 53t-25 39.5t-48 33.5t-62 29t-84 31q-44 15 -71 25t-67 26.5t-65 30t-57.5 34t-52 40.5t-41 48t-33.5 58t-19.5 68.5
t-7.5 81.5q0 67 24 134t75.5 130t124 111t177 77t226.5 29z" />
    <glyph glyph-name="T" unicode="T" horiz-adv-x="1284" 
d="M1423 1157h-444l-289 -1157h-354l287 1157h-445l74 301h1247z" />
    <glyph glyph-name="U" unicode="U" horiz-adv-x="1484" 
d="M1575 1458l-244 -979q-61 -247 -233.5 -379.5t-429.5 -132.5q-250 0 -385.5 126.5t-135.5 357.5q0 87 27 198l203 809h354l-215 -862q-16 -69 -16 -117q0 -98 50.5 -149t147.5 -51q111 0 187 69.5t108 202.5l228 907h354z" />
    <glyph glyph-name="V" unicode="V" horiz-adv-x="1357" 
d="M780 0h-463l-75 1458h348l18 -563q10 -316 2 -573h4q117 279 277 573l297 563h393z" />
    <glyph glyph-name="W" unicode="W" horiz-adv-x="2029" 
d="M1589 0h-473l23 584q9 276 37 585h-5q-103 -265 -251 -585l-269 -584h-469l68 1458h330l-35 -526q-18 -301 -56 -610h5q112 278 266 610l246 526h452l-14 -526q-9 -289 -37 -610h4q113 301 248 610l227 526h361z" />
    <glyph glyph-name="X" unicode="X" horiz-adv-x="1370" 
d="M958 733l281 -733h-383l-149 489h-5l-376 -489h-451l651 762l-264 696h375l137 -473h4l355 473h442z" />
    <glyph glyph-name="Y" unicode="Y" horiz-adv-x="1357" 
d="M864 551l-137 -551h-354l137 551l-274 907h358l61 -264q40 -177 68 -367h4q108 184 240 367l192 264h430z" />
    <glyph glyph-name="Z" unicode="Z" horiz-adv-x="1214" 
d="M1290 1130l-864 -831v-4h690l-74 -295h-1130l82 328l864 831v4h-627l74 295h1067z" />
    <glyph glyph-name="bracketleft" unicode="[" horiz-adv-x="733" 
d="M887 1303h-240l-348 -1399h240l-54 -213h-559l455 1827h559z" />
    <glyph glyph-name="backslash" unicode="\" horiz-adv-x="1030" 
d="M553 1526l197 -1708h-242l-197 1708h242z" />
    <glyph glyph-name="bracketright" unicode="]" horiz-adv-x="733" 
d="M-113 -94h242l348 1399h-239l51 213h559l-453 -1827h-561z" />
    <glyph glyph-name="asciicircum" unicode="^" horiz-adv-x="1064" 
d="M1051 760h-312l-204 432h-5l-204 -432h-312l340 698h357z" />
    <glyph glyph-name="underscore" unicode="_" horiz-adv-x="1024" 
d="M821 -289h-1024l47 187h1024z" />
    <glyph glyph-name="grave" unicode="`" horiz-adv-x="757" 
d="M715 1458l98 -303h-248l-227 303h377z" />
    <glyph glyph-name="a" unicode="a" horiz-adv-x="1148" 
d="M651 1073q426 0 426 -330q0 -65 -18 -139l-78 -311q-46 -180 -43 -293h-301q0 60 14 117h-4q-150 -144 -348 -144q-150 0 -230.5 76.5t-80.5 204.5q0 63 23 118.5t76 108t151.5 91.5t236.5 59q170 20 268 26l5 23q10 38 10 61q0 117 -127 117q-65 0 -109 -37.5
t-59 -107.5h-326q33 157 167 258.5t347 101.5zM682 412l14 59q-77 -3 -190 -22q-174 -30 -174 -150q0 -46 30.5 -73t86.5 -27q90 0 149 55.5t84 157.5z" />
    <glyph glyph-name="b" unicode="b" horiz-adv-x="1249" 
d="M575 963h5q118 106 264 106q169 0 262.5 -109t93.5 -301q0 -75 -17 -153.5t-48.5 -155.5t-81.5 -145.5t-111.5 -120.5t-143 -82.5t-171.5 -30.5q-93 0 -164 44t-101 126h-4l-34 -141h-328l364 1458h340zM696 811q-59 0 -109.5 -36.5t-81.5 -94t-48 -123t-17 -127.5
q0 -95 37 -148t107 -53q59 0 109.5 36.5t81.5 94t48 123t17 127.5q0 95 -37 148t-107 53z" />
    <glyph glyph-name="c" unicode="c" horiz-adv-x="1177" 
d="M690 1073q215 0 338 -107t123 -288q0 -28 -6 -55h-352q4 20 4 36q0 75 -34.5 116.5t-94.5 41.5q-61 0 -112.5 -41t-82.5 -102.5t-48 -126.5t-17 -119q0 -98 37 -150.5t106 -52.5q66 0 118.5 46t75.5 126h355q-61 -196 -216.5 -313t-355.5 -117q-222 0 -345.5 124
t-123.5 343q0 85 24.5 172.5t76.5 171.5t125 149.5t178 105.5t227 40z" />
    <glyph glyph-name="d" unicode="d" 
d="M991 0h-327l22 88h-4q-59 -56 -133 -86.5t-146 -30.5q-169 0 -262.5 109t-93.5 301q0 90 23.5 185t72 185t115 161t161 114t202.5 43q88 0 156.5 -38.5t101.5 -110.5h4l131 538h340zM664 811q-59 0 -109.5 -36.5t-81.5 -94t-48 -123t-17 -127.5q0 -95 36.5 -148
t106.5 -53q59 0 109.5 36.5t81.5 94t48 123t17 127.5q0 95 -36.5 148t-106.5 53z" />
    <glyph glyph-name="e" unicode="e" horiz-adv-x="1196" 
d="M1116 451h-735q-8 -39 -8 -80q0 -91 44.5 -133.5t117.5 -42.5q66 0 116.5 34.5t69.5 89.5h348q-63 -153 -211 -252.5t-330 -99.5q-232 0 -351.5 124t-119.5 337q0 85 24 173t74.5 173t121.5 151.5t173.5 107t221.5 40.5q226 0 347.5 -119t121.5 -323q0 -72 -25 -180z
M662 850q-161 0 -234 -207h393q4 32 4 45q0 82 -44 122t-119 40z" />
    <glyph glyph-name="f" unicode="f" horiz-adv-x="739" 
d="M786 1477q89 0 168 -23l-57 -229q-20 4 -47 4q-78 0 -124 -37.5t-69 -126.5l-6 -25h191l-62 -247h-190l-199 -793h-336l197 793h-166l61 247h166l27 107q41 165 155 247.5t291 82.5z" />
    <glyph glyph-name="g" unicode="g" horiz-adv-x="1232" 
d="M592 1069q105 0 179 -50.5t106 -133.5h4l39 155h317l-258 -1042q-51 -200 -203 -298.5t-381 -98.5q-216 0 -327 72.5t-111 207.5q0 35 4 53h322q-2 -8 -2 -22q0 -44 34.5 -68t100.5 -24q90 0 150 49t91 168l19 76h-4q-122 -101 -264 -101q-165 0 -257 112.5t-92 311.5
q0 81 21.5 168t67 170t107 149t149.5 106t188 40zM647 803q-72 0 -127.5 -57.5t-80.5 -130t-25 -138.5q0 -92 38 -144t107 -52q74 0 130.5 55.5t82 127.5t25.5 140q0 93 -40 146t-110 53z" />
    <glyph glyph-name="h" unicode="h" 
d="M571 954h4q126 113 281 113q151 0 234.5 -79t83.5 -228q0 -70 -21 -152l-152 -608h-339l149 598q12 55 12 94q0 111 -114 111q-81 0 -144 -66.5t-94 -197.5l-135 -539h-340l362 1458h340z" />
    <glyph glyph-name="i" unicode="i" horiz-adv-x="589" 
d="M631 1190h-340l67 268h340zM336 0h-340l258 1040h340z" />
    <glyph glyph-name="j" unicode="j" horiz-adv-x="591" 
d="M633 1190h-340l67 268h340zM596 1040l-268 -1075q-44 -180 -163 -267t-284 -87q-115 0 -182 22l57 234q18 -6 43 -6q86 0 136.5 47t80.5 168l240 964h340z" />
    <glyph glyph-name="k" unicode="k" horiz-adv-x="1159" 
d="M772 530l277 -530h-375l-211 489h-4l-123 -489h-340l362 1458h340l-200 -809h4l340 391h430z" />
    <glyph glyph-name="l" unicode="l" horiz-adv-x="589" 
d="M336 0h-340l362 1458h340z" />
    <glyph glyph-name="m" unicode="m" horiz-adv-x="1859" 
d="M1487 1067q143 0 222 -77t79 -226q0 -72 -21 -158l-151 -606h-340l149 604q15 52 15 92q0 53 -26.5 80t-74.5 27q-80 0 -138.5 -69.5t-92.5 -205.5l-131 -528h-340l151 616q13 50 13 80q0 51 -26 79t-77 28q-80 0 -138.5 -69.5t-92.5 -205.5l-131 -528h-340l258 1040h317
l-24 -104h4q131 131 295 131q222 0 274 -186q159 186 367 186z" />
    <glyph glyph-name="n" unicode="n" 
d="M856 1067q151 0 234.5 -79t83.5 -228q0 -70 -21 -152l-152 -608h-339l149 598q12 55 12 94q0 111 -114 111q-81 0 -144 -66.5t-94 -197.5l-135 -539h-340l260 1040h315l-26 -108h4q138 135 307 135z" />
    <glyph glyph-name="o" unicode="o" horiz-adv-x="1236" 
d="M680 1073q238 0 368 -125t130 -348q0 -85 -24.5 -172t-76.5 -170t-124 -147.5t-176 -104t-224 -39.5q-235 0 -364.5 125.5t-129.5 347.5q0 84 24.5 171.5t76 170.5t123.5 147.5t175 104t222 39.5zM666 815q-64 0 -115 -38.5t-80 -98t-44 -122.5t-15 -120q0 -211 159 -211
q63 0 114 38.5t80 98t44.5 122.5t15.5 120q0 211 -159 211z" />
    <glyph glyph-name="p" unicode="p" horiz-adv-x="1249" 
d="M844 1069q169 0 262.5 -109t93.5 -301q0 -75 -17 -153.5t-48.5 -155.5t-81.5 -145.5t-111.5 -120.5t-143 -82.5t-171.5 -30.5q-88 0 -156.5 39t-101.5 111h-4l-123 -500h-340l354 1419h328l-23 -90h4q59 57 133 88t146 31zM696 811q-59 0 -109.5 -36.5t-81.5 -94
t-48 -123t-17 -127.5q0 -95 37 -148t107 -53q59 0 109.5 36.5t81.5 94t48 123t17 127.5q0 95 -37 148t-107 53z" />
    <glyph glyph-name="q" unicode="q" horiz-adv-x="1247" 
d="M621 1069q93 0 163.5 -44t100.5 -126h4l35 141h327l-352 -1419h-340l113 457h-4q-119 -107 -265 -107q-169 0 -262.5 109t-93.5 301q0 90 23.5 185t72 185t115 161t161 114t202.5 43zM664 811q-59 0 -109.5 -36.5t-81.5 -94t-48 -123t-17 -127.5q0 -95 36.5 -148
t106.5 -53q59 0 109.5 36.5t81.5 94t48 123t17 127.5q0 95 -36.5 148t-106.5 53z" />
    <glyph glyph-name="r" unicode="r" horiz-adv-x="849" 
d="M870 1057q50 0 97 -13l-72 -290q-58 10 -102 10q-131 0 -219 -79t-123 -228l-115 -457h-340l258 1040h315l-32 -129h4q146 146 329 146z" />
    <glyph glyph-name="s" unicode="s" horiz-adv-x="1110" 
d="M649 1073q201 0 308.5 -72t107.5 -215q0 -31 -6 -61h-324q4 24 4 41q0 92 -121 92q-66 0 -97.5 -26t-31.5 -62q0 -37 37 -62t142 -61q43 -15 67 -24t62.5 -26t61.5 -32.5t50.5 -40.5t42 -52t25 -64t10.5 -80q0 -69 -32.5 -132t-94.5 -115t-164.5 -83t-230.5 -31
q-221 0 -339 75.5t-118 225.5q0 28 10 70h342q-6 -24 -6 -43q0 -105 140 -105q67 0 104 26.5t37 70.5q0 49 -42.5 75t-158.5 64q-32 11 -43 15t-40.5 15t-41 18t-36.5 20t-36 24t-29 28t-26 34.5t-18 40t-13.5 48.5t-3.5 56q0 66 31 126.5t90.5 111t158 80.5t222.5 30z" />
    <glyph glyph-name="t" unicode="t" horiz-adv-x="774" 
d="M584 793l-92 -369q-11 -49 -11 -72q0 -54 27 -77t88 -23q13 0 61 6l-65 -258q-56 -16 -133 -16q-172 0 -252 66.5t-80 213.5q0 64 25 156l92 373h-162l61 247h162l70 281h340l-70 -281h197l-62 -247h-196z" />
    <glyph glyph-name="u" unicode="u" 
d="M389 -27q-151 0 -234 79.5t-83 228.5q0 72 20 151l152 608h340l-150 -598q-12 -55 -12 -94q0 -110 115 -110q81 0 143.5 66.5t93.5 197.5l135 538h340l-260 -1040h-315l26 109h-4q-139 -136 -307 -136z" />
    <glyph glyph-name="v" unicode="v" horiz-adv-x="1091" 
d="M641 0h-453l-75 1040h340l6 -381q3 -219 -6 -440h4q83 207 202 440l195 381h383z" />
    <glyph glyph-name="w" unicode="w" horiz-adv-x="1736" 
d="M1368 0h-467l14 391q11 272 25 436h-4q-91 -248 -180 -436l-181 -391h-464l26 1040h318l-29 -383q-19 -283 -39 -442h4q89 231 189 444l180 381h444l-8 -381q-3 -238 -20 -444h4q79 238 168 442l161 383h349z" />
    <glyph glyph-name="x" unicode="x" horiz-adv-x="1095" 
d="M752 520l227 -520h-358l-103 322h-4l-238 -322h-417l491 547l-211 493h355l90 -284h4l209 284h417z" />
    <glyph glyph-name="y" unicode="y" horiz-adv-x="1085" 
d="M1231 1040l-602 -1026q-134 -230 -267.5 -317.5t-334.5 -87.5q-95 0 -170 16l63 258q46 -16 100 -16q94 0 147.5 52.5t53.5 131.5q0 23 -14 152l-98 837h335l21 -348q12 -213 6 -434h4q104 247 203 436l176 346h377z" />
    <glyph glyph-name="z" unicode="z" horiz-adv-x="1028" 
d="M1014 764l-590 -500v-4h481l-65 -260h-910l70 276l588 500v4h-447l66 260h874z" />
    <glyph glyph-name="braceleft" unicode="{" horiz-adv-x="739" 
d="M930 1518l-47 -195q-86 -3 -130 -36.5t-65 -119.5l-78 -305q-27 -109 -92.5 -168.5t-177.5 -83.5l-2 -6q75 -25 111 -73.5t36 -127.5q0 -45 -14 -100l-57 -233q-13 -50 -13 -76q0 -60 28.5 -85t92.5 -28l-47 -194h-31q-188 0 -270 61.5t-82 196.5q0 64 25 159l53 220
q12 46 12 77q0 51 -23 80.5t-75 44.5l51 205q82 19 120.5 54t57.5 110l70 283q31 124 85 196.5t147.5 108t242.5 35.5h72z" />
    <glyph glyph-name="bar" unicode="|" horiz-adv-x="608" 
d="M449 -420h-291v1919h291v-1919z" />
    <glyph glyph-name="braceright" unicode="}" horiz-adv-x="739" 
d="M-152 -313l50 194q84 3 128.5 37t65.5 119l76 305q27 109 92.5 168.5t177.5 83.5l2 6q-74 25 -110.5 73.5t-36.5 127.5q0 45 14 100l60 234q10 52 10 75q0 60 -28 85t-93 28l49 195h31q188 0 269 -61.5t81 -196.5q0 -64 -22 -160l-56 -219q-12 -46 -12 -78
q0 -51 23.5 -80.5t76.5 -44.5l-51 -205q-82 -19 -121 -54t-59 -110l-70 -282q-45 -185 -150 -262.5t-325 -77.5h-72z" />
    <glyph glyph-name="asciitilde" unicode="~" horiz-adv-x="1228" 
d="M461 870q58 0 110 -18t89 -44t70.5 -52t69.5 -44t72 -18q59 0 106 43.5t64 116.5h220q-48 -200 -165 -312t-263 -112q-59 0 -111 18t-89.5 44t-71 52t-70 44t-72.5 18q-58 0 -104.5 -44t-65.5 -116h-217q46 199 163 311.5t265 112.5z" />
    <glyph glyph-name="nbspace" unicode="&#xa0;" horiz-adv-x="471" 
 />
    <glyph glyph-name="exclamdown" unicode="&#xa1;" horiz-adv-x="708" 
d="M301 1040h363l-76 -301h-361zM240 610h274l-195 -1028h-399z" />
    <glyph glyph-name="cent" unicode="&#xa2;" horiz-adv-x="1286" 
d="M1235 780h-354q4 20 4 39q0 74 -34 115t-95 41q-49 0 -92.5 -27t-73 -69.5t-51 -95t-31.5 -102.5t-10 -93q0 -99 36 -152t105 -53q66 0 119.5 45.5t77.5 126.5h352q-57 -187 -201 -302t-332 -126l-47 -184h-207l52 202q-146 41 -226 157.5t-80 289.5q0 81 22.5 164.5
t70 164.5t114 146t162.5 109t207 53l47 186h207l-51 -201q150 -32 231.5 -130.5t81.5 -245.5q0 -40 -4 -58z" />
    <glyph glyph-name="sterling" unicode="&#xa3;" horiz-adv-x="1286" 
d="M1329 958h-334q6 24 6 50q0 127 -124 127q-147 0 -199 -203l-29 -111h258l-65 -262h-258l-6 -27q-25 -98 -67 -156t-114 -95v-5h752l-70 -276h-1161l70 281q93 0 151 55.5t92 191.5l9 31h-183l66 262h180l43 170q52 207 198 314.5t367 107.5q202 0 315 -94t113 -262
q0 -41 -10 -99z" />
    <glyph glyph-name="currency" unicode="&#xa4;" horiz-adv-x="1286" 
d="M1090 596q0 -121 -56 -227l154 -164l-187 -174l-155 168q-90 -41 -203 -41t-203 41l-155 -168l-189 174l156 166q-55 94 -55 225q0 123 55 227l-156 164l189 174l155 -168q90 41 203 41t203 -41l155 168l187 -174l-154 -164q56 -106 56 -227zM643 383q92 0 147.5 58.5
t55.5 154.5t-55.5 154.5t-147.5 58.5t-148.5 -59t-56.5 -154t56.5 -154t148.5 -59z" />
    <glyph glyph-name="yen" unicode="&#xa5;" horiz-adv-x="1286" 
d="M944 700h242l-37 -149h-320l-18 -78h319l-38 -151h-320l-80 -322h-356l80 322h-322l39 151h322l18 78h-319l34 149h244l-182 680h354l35 -178q43 -259 55 -366h4q106 193 224 366l125 178h419z" />
    <glyph glyph-name="brokenbar" unicode="&#xa6;" horiz-adv-x="608" 
d="M449 782h-291v717h291v-717zM449 -420h-291v717h291v-717z" />
    <glyph glyph-name="section" unicode="&#xa7;" horiz-adv-x="1343" 
d="M870 1491q207 0 312.5 -80t105.5 -237q0 -43 -4 -68h-330q2 10 2 27q0 106 -125 106q-53 0 -88.5 -31t-35.5 -80q0 -41 37.5 -69t156.5 -84q45 -22 71 -35t65 -35.5t61.5 -41t49 -46.5t40.5 -57t23.5 -67t9.5 -81q0 -73 -24.5 -140.5t-83.5 -133.5t-148 -113v-4
q55 -61 55 -158q0 -53 -20 -108t-62.5 -107.5t-102.5 -93t-147 -65.5t-188 -25q-212 0 -325.5 76.5t-113.5 228.5q0 37 9 84h333q-2 -12 -2 -33q0 -102 121 -102q66 0 109 31t43 84q0 45 -43.5 79.5t-181.5 108.5q-61 34 -93.5 53.5t-77 53.5t-67 65.5t-39 77.5t-16.5 100
q0 110 64.5 213t191.5 164v4q-50 56 -50 142q0 68 32 136.5t92.5 127.5t160.5 96t223 37zM578 809q-105 -56 -105 -160q0 -50 34 -88t124 -92q38 -21 174 -100q50 25 78 69.5t28 91.5q0 49 -33.5 91t-115.5 86q-59 32 -184 102z" />
    <glyph glyph-name="dieresis" unicode="&#xa8;" horiz-adv-x="962" 
d="M563 1190h-293l68 268h291zM1026 1190h-291l66 268h293z" />
    <glyph glyph-name="copyright" unicode="&#xa9;" horiz-adv-x="1634" 
d="M817 1489q333 0 536 -208.5t203 -551.5t-203 -551.5t-536 -208.5t-536 208.5t-203 551.5t203 551.5t536 208.5zM817 1360q-276 0 -444 -173t-168 -458t168 -458t444 -173q277 0 446 173.5t169 457.5t-169 457.5t-446 173.5zM821 1192q177 0 282.5 -93t113.5 -253h-234
q-5 73 -47 115.5t-115 42.5q-85 0 -133.5 -74t-48.5 -203q0 -126 48.5 -199t131.5 -73q71 0 115.5 43.5t52.5 119.5h236q-13 -167 -121.5 -259.5t-282.5 -92.5q-192 0 -302.5 123.5t-110.5 337.5q0 217 111 341t304 124z" />
    <glyph glyph-name="ordfeminine" unicode="&#xaa;" horiz-adv-x="860" 
d="M608 1427q324 0 324 -237q0 -44 -12 -96l-52 -205q-34 -137 -28 -213h-248q-3 39 8 80h-4q-107 -101 -248 -101q-108 0 -167.5 55t-59.5 146q0 98 82.5 169t277.5 97q119 16 183 19l4 12q6 21 6 39q0 74 -80 74q-81 0 -102 -92h-267q23 109 123 181t260 72zM621 963
l10 38q-67 -4 -123 -16q-109 -18 -109 -94q0 -30 20 -47t56 -17q56 0 93 36.5t53 99.5z" />
    <glyph glyph-name="guillemetleft" unicode="&#xab;" horiz-adv-x="1167" 
d="M393 512l117 -401h-279l-141 417l320 402h305zM862 512l117 -401h-279l-143 417l322 402h305z" />
    <glyph glyph-name="logicalnot" unicode="&#xac;" horiz-adv-x="1159" 
d="M1038 258h-264v436h-653v264h917v-700z" />
    <glyph glyph-name="softhyphen" unicode="&#xad;" horiz-adv-x="690" 
d="M616 473h-567l64 250h565z" />
    <glyph glyph-name="registered" unicode="&#xae;" horiz-adv-x="1212" 
d="M715 1491q232 0 373 -145t141 -383t-141 -383.5t-373 -145.5t-373 145.5t-141 383.5t141 383t373 145zM715 1413q-196 0 -316 -123.5t-120 -326.5t120 -327t316 -124t316 124t120 327t-120 326.5t-316 123.5zM459 1292h282q111 0 167.5 -48t56.5 -134q0 -59 -32 -101
t-89 -57v-4q33 -9 54.5 -35.5t43.5 -85.5l66 -176h-166l-54 150q-15 47 -40.5 66.5t-71.5 19.5h-60v-236h-157v641zM616 1171v-167h82q57 0 85 23.5t28 64.5q0 37 -28 58t-81 21h-86z" />
    <glyph glyph-name="macron" unicode="&#xaf;" horiz-adv-x="942" 
d="M1012 1206h-738l54 211h735z" />
    <glyph glyph-name="degree" unicode="&#xb0;" horiz-adv-x="712" 
d="M522 1479q120 0 204.5 -84.5t84.5 -204.5q0 -121 -84.5 -205t-204.5 -84q-121 0 -206 84t-85 205q0 120 85.5 204.5t205.5 84.5zM522 1319q-54 0 -91.5 -37.5t-37.5 -91.5t37.5 -91.5t91.5 -37.5t91.5 37.5t37.5 91.5t-37.5 91.5t-91.5 37.5z" />
    <glyph glyph-name="plusminus" unicode="&#xb1;" horiz-adv-x="1159" 
d="M711 887h327v-260h-327v-293h-262v293h-328v260h328v293h262v-293zM1038 0h-917v260h917v-260z" />
    <glyph glyph-name="twosuperior" unicode="&#xb2;" horiz-adv-x="962" 
d="M727 1665q170 0 263 -72t93 -192q0 -111 -80 -198.5t-251 -153.5q-134 -51 -182 -81.5t-62 -66.5h483l-53 -225h-829q22 133 73 226t131.5 156t208.5 118q148 64 209.5 105.5t61.5 98.5q0 74 -84 74q-106 0 -136 -133h-292q40 166 155.5 255t290.5 89z" />
    <glyph glyph-name="threesuperior" unicode="&#xb3;" horiz-adv-x="952" 
d="M719 1665q174 0 270 -67.5t96 -186.5q0 -180 -227 -250v-2q131 -54 131 -186q0 -58 -27.5 -113.5t-79 -102.5t-136 -75.5t-189.5 -28.5q-193 0 -293 70.5t-100 204.5q0 31 10 73h289q-6 -21 -6 -43q0 -94 112 -94q65 0 102.5 34t37.5 73q0 90 -138 90h-24l49 203h33
q80 0 125 32.5t45 79.5q0 78 -101 78q-59 0 -97 -34.5t-52 -96.5h-283q37 161 156.5 251.5t296.5 90.5z" />
    <glyph glyph-name="acute" unicode="&#xb4;" horiz-adv-x="755" 
d="M537 1155h-277l223 303h404z" />
    <glyph glyph-name="micro" unicode="&#xb5;" horiz-adv-x="1282" 
d="M1255 1040l-168 -675q-10 -45 -10 -64q0 -61 68 -61q24 0 51 6l-61 -246q-67 -18 -156 -18q-194 0 -215 153h-4q-44 -69 -116.5 -108t-154.5 -39q-95 0 -145 53l-104 -420h-340l354 1419h340l-148 -587q-12 -53 -12 -91q0 -124 121 -124q75 0 133.5 63.5t91.5 192.5
l135 546h340z" />
    <glyph glyph-name="paragraph" unicode="&#xb6;" horiz-adv-x="1400" 
d="M1520 1233h-164l-367 -1479h-244l369 1479h-156l-368 -1479h-242l205 826q-342 52 -342 399q0 66 19 133t58.5 129.5t94 110.5t132 77t165.5 29h897z" />
    <glyph glyph-name="periodcentered" unicode="&#xb7;" horiz-adv-x="561" 
d="M440 438h-360l92 375h363z" />
    <glyph glyph-name="cedilla" unicode="&#xb8;" horiz-adv-x="704" 
d="M309 0l-104 -121q18 6 45 6q70 0 110.5 -38.5t40.5 -106.5q0 -92 -85.5 -153.5t-213.5 -61.5q-136 0 -231 65l61 109q80 -45 164 -45q47 0 76 20t29 52q0 59 -72 59q-38 0 -68 -12l-53 49l156 178h145z" />
    <glyph glyph-name="onesuperior" unicode="&#xb9;" horiz-adv-x="673" 
d="M592 676h-287l146 590h-242l51 207q131 0 206 39.5t112 129.5h256z" />
    <glyph glyph-name="ordmasculine" unicode="&#xba;" horiz-adv-x="919" 
d="M631 1427q176 0 275.5 -92t99.5 -252q0 -74 -29.5 -148t-84 -138t-144.5 -104t-199 -40q-177 0 -276 91.5t-99 252.5q0 74 29.5 148t84 138t144.5 104t199 40zM616 1221q-51 0 -88 -41.5t-52 -92.5t-15 -100q0 -127 100 -127q52 0 89 41t52 91.5t15 99.5q0 129 -101 129z
" />
    <glyph glyph-name="guillemetright" unicode="&#xbb;" horiz-adv-x="1167" 
d="M307 528l-117 402h277l143 -418l-319 -401h-305zM774 528l-117 402h279l143 -418l-321 -401h-305z" />
    <glyph glyph-name="onequarter" unicode="&#xbc;" horiz-adv-x="1691" 
d="M1436 1380l-1088 -1380h-205l1088 1380h205zM362 1053h-210l45 182q110 0 176 35t98 110h236l-207 -827h-262zM1581 156h-143l-39 -156h-246l39 156h-406l52 206l434 465h334l-121 -487h141zM1049 340h198l21 80q23 111 65 225h-4q-58 -72 -172 -190z" />
    <glyph glyph-name="onehalf" unicode="&#xbd;" horiz-adv-x="1742" 
d="M348 0h-205l1088 1380h205zM500 553h-262l124 500h-210l45 182q110 0 176 35t98 110h236zM1368 848q147 0 229 -62.5t82 -164.5q0 -194 -288 -302q-116 -42 -156 -66.5t-51 -53.5h420l-48 -199h-725q27 171 109 266.5t248 163.5q131 56 183 90t52 82q0 29 -18.5 45.5
t-52.5 16.5q-43 0 -73 -29t-42 -84h-260q34 142 135.5 219.5t255.5 77.5z" />
    <glyph glyph-name="threequarters" unicode="&#xbe;" horiz-adv-x="1925" 
d="M838 807q0 -49 -23.5 -96.5t-68 -88t-119 -65.5t-166.5 -25q-169 0 -255.5 60.5t-86.5 177.5q0 28 6 66h256q-6 -21 -6 -39q0 -78 98 -78q56 0 86.5 28t30.5 60q0 74 -117 74h-22l45 178h28q68 0 106 26.5t38 65.5q0 66 -86 66q-102 0 -127 -111h-250q31 138 135.5 216.5
t259.5 78.5q153 0 236.5 -58t83.5 -161q0 -152 -195 -213v-4q113 -42 113 -158zM1669 1380l-1087 -1380h-205l1087 1380h205zM1815 156h-144l-39 -156h-246l39 156h-405l51 206l434 465h334l-121 -487h142zM1282 340h199l20 80q22 104 66 225h-4q-58 -72 -172 -190z" />
    <glyph glyph-name="questiondown" unicode="&#xbf;" horiz-adv-x="1110" 
d="M549 1040h362l-75 -301h-361zM408 -449q-226 0 -350 97.5t-124 271.5q0 111 61.5 202t223.5 197q133 87 185 148.5t81 167.5h287q-35 -183 -88 -265.5t-201 -187.5q-122 -88 -160 -141t-38 -111q0 -54 35 -83t102 -29q161 0 211 200h352q-55 -229 -204 -348t-373 -119z
" />
    <glyph glyph-name="Agrave" unicode="&#xc0;" horiz-adv-x="1464" 
d="M938 1556l-225 310h377l96 -310h-248zM967 309h-529l-170 -309h-395l860 1458h465l135 -1458h-350zM952 600l-6 98q-13 288 -16 531h-4q-115 -241 -275 -531l-53 -98h354z" />
    <glyph glyph-name="Aacute" unicode="&#xc1;" horiz-adv-x="1464" 
d="M1071 1556h-276l225 310h403zM1198 1458l135 -1458h-350l-16 309h-529l-170 -309h-395l860 1458h465zM952 600l-6 98q-13 288 -16 531h-4q-115 -241 -275 -531l-53 -98h354z" />
    <glyph glyph-name="Acircumflex" unicode="&#xc2;" horiz-adv-x="1464" 
d="M895 1556h-311l323 310h320l170 -310h-256l-84 162zM1198 1458l135 -1458h-350l-16 309h-529l-170 -309h-395l860 1458h465zM952 600l-6 98q-13 288 -16 531h-4q-115 -241 -275 -531l-53 -98h354z" />
    <glyph glyph-name="Atilde" unicode="&#xc3;" horiz-adv-x="1464" 
d="M1282 1866h184q-40 -137 -120.5 -215t-188.5 -78q-46 0 -87.5 13.5t-66 30.5t-55.5 30.5t-59 13.5q-78 0 -109 -88h-186q39 138 119 215.5t190 77.5q59 0 108 -22t87.5 -44t72.5 -22q77 0 111 88zM1198 1458l135 -1458h-350l-16 309h-529l-170 -309h-395l860 1458h465z
M952 600l-6 98q-13 288 -16 531h-4q-115 -241 -275 -531l-53 -98h354z" />
    <glyph glyph-name="Adieresis" unicode="&#xc4;" horiz-adv-x="1464" 
d="M909 1575h-293l68 268h291zM1440 1843l-68 -268h-291l66 268h293zM1198 1458l135 -1458h-350l-16 309h-529l-170 -309h-395l860 1458h465zM952 600l-6 98q-13 288 -16 531h-4q-115 -241 -275 -531l-53 -98h354z" />
    <glyph glyph-name="Aring" unicode="&#xc5;" horiz-adv-x="1464" 
d="M1024 1540q-96 0 -164.5 68t-68.5 164q0 97 68 165t165 68t164 -68t67 -165q0 -96 -67.5 -164t-163.5 -68zM1024 1886q-47 0 -81 -33.5t-34 -80.5t34 -81t81 -34t81 34t34 81t-34 80.5t-81 33.5zM967 309h-529l-170 -309h-395l860 1458h465l135 -1458h-350zM952 600
l-6 98q-13 288 -16 531h-4q-115 -241 -275 -531l-53 -98h354z" />
    <glyph glyph-name="AE" unicode="&#xc6;" horiz-adv-x="2000" 
d="M1397 1161l-29 -276h565l-73 -293h-527l-28 -295h544l-73 -297h-828l35 328h-502l-219 -328h-403l1013 1458h1252l-74 -297h-653zM1014 621l59 550h-29l-368 -550h338z" />
    <glyph glyph-name="Ccedilla" unicode="&#xc7;" horiz-adv-x="1464" 
d="M1477 903h-367q4 36 4 58q0 105 -56 164t-155 59q-81 0 -151.5 -38.5t-119.5 -101t-84.5 -141.5t-52 -160.5t-16.5 -158.5q0 -141 60.5 -225.5t175.5 -84.5q100 0 183 61.5t124 168.5h373q-76 -243 -251.5 -383t-414.5 -152l-78 -90q18 6 45 6q70 0 111 -38.5t41 -106.5
q0 -92 -85.5 -153.5t-213.5 -61.5q-137 0 -232 65l62 109q80 -45 164 -45q47 0 75.5 20t28.5 52q0 59 -72 59q-37 0 -67 -12l-53 49l131 151q-227 28 -351 182.5t-124 403.5q0 127 31 255.5t98.5 250.5t162.5 216.5t233.5 152t301.5 57.5q251 0 398 -134t147 -364
q0 -59 -6 -90z" />
    <glyph glyph-name="Egrave" unicode="&#xc8;" horiz-adv-x="1298" 
d="M1106 1556h-248l-225 310h377zM1346 1161h-676l-68 -276h629l-74 -293h-631l-71 -295h692l-74 -297h-1046l362 1458h1030z" />
    <glyph glyph-name="Eacute" unicode="&#xc9;" horiz-adv-x="1298" 
d="M991 1556h-276l225 310h403zM1346 1161h-676l-68 -276h629l-74 -293h-631l-71 -295h692l-74 -297h-1046l362 1458h1030z" />
    <glyph glyph-name="Ecircumflex" unicode="&#xca;" horiz-adv-x="1298" 
d="M827 1866h320l170 -310h-256l-84 162l-162 -162h-311zM1346 1161h-676l-68 -276h629l-74 -293h-631l-71 -295h692l-74 -297h-1046l362 1458h1030z" />
    <glyph glyph-name="Edieresis" unicode="&#xcb;" horiz-adv-x="1298" 
d="M829 1575h-292l67 268h291zM1292 1575h-291l66 268h293zM1346 1161h-676l-68 -276h629l-74 -293h-631l-71 -295h692l-74 -297h-1046l362 1458h1030z" />
    <glyph glyph-name="Igrave" unicode="&#xcc;" horiz-adv-x="665" 
d="M786 1556h-247l-226 310h377zM381 0h-354l362 1458h354z" />
    <glyph glyph-name="Iacute" unicode="&#xcd;" horiz-adv-x="665" 
d="M672 1556h-277l226 310h403zM381 0h-354l362 1458h354z" />
    <glyph glyph-name="Icircumflex" unicode="&#xce;" horiz-adv-x="665" 
d="M508 1866h319l170 -310h-256l-84 162l-161 -162h-312zM381 0h-354l362 1458h354z" />
    <glyph glyph-name="Idieresis" unicode="&#xcf;" horiz-adv-x="665" 
d="M510 1575h-293l68 268h290zM973 1575h-291l66 268h292zM381 0h-354l362 1458h354z" />
    <glyph glyph-name="Eth" unicode="&#xd0;" horiz-adv-x="1525" 
d="M391 1458h410q348 0 527 -161.5t179 -469.5q0 -117 -32 -231t-102.5 -222.5t-172.5 -191t-253.5 -132.5t-332.5 -50h-585l153 621h-127l60 233h127zM457 301h176q106 0 193.5 31.5t144.5 82.5t96 118.5t55.5 136t16.5 137.5q0 350 -359 350h-108l-76 -303h313l-59 -233
h-313z" />
    <glyph glyph-name="Ntilde" unicode="&#xd1;" horiz-adv-x="1640" 
d="M1372 1866h184q-40 -137 -120.5 -215t-188.5 -78q-46 0 -87.5 13.5t-66 30.5t-55.5 30.5t-59 13.5q-78 0 -109 -88h-186q39 138 119 215.5t190 77.5q59 0 108 -22t88 -44t73 -22q76 0 110 88zM1358 0h-488l-122 575q-65 300 -113 584h-4q-63 -348 -129 -614l-135 -545
h-340l362 1458h485l125 -575q50 -243 111 -584h4q54 316 131 614l135 545h340z" />
    <glyph glyph-name="Ograve" unicode="&#xd2;" horiz-adv-x="1550" 
d="M1180 1556h-248l-225 310h376zM930 1491q286 0 446 -170t160 -463q0 -122 -32 -246t-99 -240t-161 -206t-228.5 -144.5t-290.5 -54.5q-287 0 -446.5 170.5t-159.5 464.5q0 121 32 244.5t99 239.5t161 206t228.5 144.5t290.5 54.5zM909 1184q-70 0 -132 -26.5
t-107.5 -71.5t-82.5 -103.5t-59.5 -124.5t-34.5 -131.5t-12 -126.5q0 -155 67.5 -240.5t194.5 -85.5q84 0 156 38t121.5 99t85 138.5t52 156.5t16.5 152q0 155 -68.5 240.5t-196.5 85.5z" />
    <glyph glyph-name="Oacute" unicode="&#xd3;" horiz-adv-x="1550" 
d="M1065 1556h-277l226 310h403zM930 1491q286 0 446 -170t160 -463q0 -122 -32 -246t-99 -240t-161 -206t-228.5 -144.5t-290.5 -54.5q-287 0 -446.5 170.5t-159.5 464.5q0 121 32 244.5t99 239.5t161 206t228.5 144.5t290.5 54.5zM909 1184q-70 0 -132 -26.5t-107.5 -71.5
t-82.5 -103.5t-59.5 -124.5t-34.5 -131.5t-12 -126.5q0 -155 67.5 -240.5t194.5 -85.5q84 0 156 38t121.5 99t85 138.5t52 156.5t16.5 152q0 155 -68.5 240.5t-196.5 85.5z" />
    <glyph glyph-name="Ocircumflex" unicode="&#xd4;" horiz-adv-x="1550" 
d="M901 1866h320l170 -310h-256l-84 162l-162 -162h-311zM930 1491q286 0 446 -170t160 -463q0 -122 -32 -246t-99 -240t-161 -206t-228.5 -144.5t-290.5 -54.5q-287 0 -446.5 170.5t-159.5 464.5q0 121 32 244.5t99 239.5t161 206t228.5 144.5t290.5 54.5zM909 1184
q-70 0 -132 -26.5t-107.5 -71.5t-82.5 -103.5t-59.5 -124.5t-34.5 -131.5t-12 -126.5q0 -155 67.5 -240.5t194.5 -85.5q84 0 156 38t121.5 99t85 138.5t52 156.5t16.5 152q0 155 -68.5 240.5t-196.5 85.5z" />
    <glyph glyph-name="Otilde" unicode="&#xd5;" horiz-adv-x="1550" 
d="M1278 1866h184q-40 -137 -120.5 -215t-188.5 -78q-46 0 -87.5 13.5t-66 30.5t-55.5 30.5t-59 13.5q-78 0 -109 -88h-186q39 138 119 215.5t190 77.5q59 0 108 -22t87.5 -44t72.5 -22q77 0 111 88zM930 1491q286 0 446 -170t160 -463q0 -122 -32 -246t-99 -240t-161 -206
t-228.5 -144.5t-290.5 -54.5q-287 0 -446.5 170.5t-159.5 464.5q0 121 32 244.5t99 239.5t161 206t228.5 144.5t290.5 54.5zM909 1184q-70 0 -132 -26.5t-107.5 -71.5t-82.5 -103.5t-59.5 -124.5t-34.5 -131.5t-12 -126.5q0 -155 67.5 -240.5t194.5 -85.5q84 0 156 38
t121.5 99t85 138.5t52 156.5t16.5 152q0 155 -68.5 240.5t-196.5 85.5z" />
    <glyph glyph-name="Odieresis" unicode="&#xd6;" horiz-adv-x="1550" 
d="M903 1575h-293l68 268h291zM1366 1575h-291l66 268h293zM930 1491q286 0 446 -170t160 -463q0 -122 -32 -246t-99 -240t-161 -206t-228.5 -144.5t-290.5 -54.5q-287 0 -446.5 170.5t-159.5 464.5q0 121 32 244.5t99 239.5t161 206t228.5 144.5t290.5 54.5zM909 1184
q-70 0 -132 -26.5t-107.5 -71.5t-82.5 -103.5t-59.5 -124.5t-34.5 -131.5t-12 -126.5q0 -155 67.5 -240.5t194.5 -85.5q84 0 156 38t121.5 99t85 138.5t52 156.5t16.5 152q0 155 -68.5 240.5t-196.5 85.5z" />
    <glyph glyph-name="multiply" unicode="&#xd7;" horiz-adv-x="1159" 
d="M1126 999l-360 -360l360 -358l-186 -189l-360 361l-359 -361l-186 189l358 358l-358 360l186 187l359 -359l360 359z" />
    <glyph glyph-name="Oslash" unicode="&#xd8;" horiz-adv-x="1550" 
d="M1595 1380l-149 -151q90 -153 90 -371q0 -122 -32 -246t-99 -240t-161 -206t-228.5 -144.5t-290.5 -54.5q-247 0 -401 129l-140 -141l-125 123l150 151q-90 153 -90 373q0 121 32 244.5t99 239.5t161 206t228.5 144.5t290.5 54.5q246 0 403 -129l140 141zM473 600
q0 -57 8 -96l615 618q-72 72 -187 72q-84 0 -157 -38.5t-123 -101t-86 -141t-53 -158.5t-17 -155zM1182 858q0 57 -8 96l-613 -618q69 -72 182 -72q85 0 158.5 39t124 101t86.5 141t53 159t17 154z" />
    <glyph glyph-name="Ugrave" unicode="&#xd9;" horiz-adv-x="1484" 
d="M1176 1556h-248l-226 310h377zM1575 1458l-244 -979q-61 -247 -233.5 -379.5t-429.5 -132.5q-250 0 -385.5 126.5t-135.5 357.5q0 87 27 198l203 809h354l-215 -862q-16 -69 -16 -117q0 -98 50.5 -149t147.5 -51q111 0 187 69.5t108 202.5l228 907h354z" />
    <glyph glyph-name="Uacute" unicode="&#xda;" horiz-adv-x="1484" 
d="M1059 1556h-277l226 310h403zM1575 1458l-244 -979q-61 -247 -233.5 -379.5t-429.5 -132.5q-250 0 -385.5 126.5t-135.5 357.5q0 87 27 198l203 809h354l-215 -862q-16 -69 -16 -117q0 -98 50.5 -149t147.5 -51q111 0 187 69.5t108 202.5l228 907h354z" />
    <glyph glyph-name="Ucircumflex" unicode="&#xdb;" horiz-adv-x="1484" 
d="M895 1866h319l170 -310h-256l-84 162l-161 -162h-312zM1575 1458l-244 -979q-61 -247 -233.5 -379.5t-429.5 -132.5q-250 0 -385.5 126.5t-135.5 357.5q0 87 27 198l203 809h354l-215 -862q-16 -69 -16 -117q0 -98 50.5 -149t147.5 -51q111 0 187 69.5t108 202.5l228 907
h354z" />
    <glyph glyph-name="Udieresis" unicode="&#xdc;" horiz-adv-x="1484" 
d="M897 1575h-293l68 268h291zM1360 1575h-291l66 268h292zM1575 1458l-244 -979q-61 -247 -233.5 -379.5t-429.5 -132.5q-250 0 -385.5 126.5t-135.5 357.5q0 87 27 198l203 809h354l-215 -862q-16 -69 -16 -117q0 -98 50.5 -149t147.5 -51q111 0 187 69.5t108 202.5
l228 907h354z" />
    <glyph glyph-name="Yacute" unicode="&#xdd;" horiz-adv-x="1357" 
d="M961 1556h-277l225 310h404zM864 551l-137 -551h-354l137 551l-274 907h358l61 -264q40 -177 68 -367h4q108 184 240 367l192 264h430z" />
    <glyph glyph-name="Thorn" unicode="&#xde;" horiz-adv-x="1339" 
d="M686 1227h139q263 0 394 -111.5t131 -314.5q0 -75 -21 -149t-69 -145.5t-117.5 -126.5t-175 -88.5t-232.5 -33.5h-291l-63 -258h-354l362 1458h356zM614 942l-98 -399h213q129 0 191.5 65t62.5 152q0 182 -209 182h-160z" />
    <glyph glyph-name="germandbls" unicode="&#xdf;" horiz-adv-x="1202" 
d="M813 1491q197 0 309.5 -86t112.5 -236q0 -123 -83.5 -226t-252.5 -146v-4q223 -74 223 -308q0 -71 -21 -140t-67.5 -133t-112.5 -113t-163 -78t-213 -29q-58 0 -109 14l64 256q16 -2 39 -2q63 0 112.5 23t76.5 60t40.5 77.5t13.5 81.5q0 78 -43.5 119t-130.5 41h-8
l68 270q67 0 116 17.5t73.5 47t35 58.5t10.5 59q0 119 -119 119q-75 0 -121.5 -51t-72.5 -162l-254 -1020h-340l266 1065q50 201 195 313.5t356 112.5z" />
    <glyph glyph-name="agrave" unicode="&#xe0;" horiz-adv-x="1148" 
d="M786 1458l99 -303h-248l-227 303h376zM651 1073q426 0 426 -330q0 -65 -18 -139l-78 -311q-46 -180 -43 -293h-301q0 60 14 117h-4q-150 -144 -348 -144q-150 0 -230.5 76.5t-80.5 204.5q0 63 23 118.5t76 108t151.5 91.5t236.5 59q170 20 268 26l5 23q10 38 10 61
q0 117 -127 117q-65 0 -109 -37.5t-59 -107.5h-326q33 157 167 258.5t347 101.5zM682 412l14 59q-77 -3 -190 -22q-174 -30 -174 -150q0 -46 30.5 -73t86.5 -27q90 0 149 55.5t84 157.5z" />
    <glyph glyph-name="aacute" unicode="&#xe1;" horiz-adv-x="1148" 
d="M770 1155h-276l223 303h403zM651 1073q426 0 426 -330q0 -65 -18 -139l-78 -311q-46 -180 -43 -293h-301q0 60 14 117h-4q-150 -144 -348 -144q-150 0 -230.5 76.5t-80.5 204.5q0 63 23 118.5t76 108t151.5 91.5t236.5 59q170 20 268 26l5 23q10 38 10 61q0 117 -127 117
q-65 0 -109 -37.5t-59 -107.5h-326q33 157 167 258.5t347 101.5zM682 412l14 59q-77 -3 -190 -22q-174 -30 -174 -150q0 -46 30.5 -73t86.5 -27q90 0 149 55.5t84 157.5z" />
    <glyph glyph-name="acircumflex" unicode="&#xe2;" horiz-adv-x="1148" 
d="M1092 1155h-261l-81 156l-156 -156h-307l317 303h320zM651 1073q426 0 426 -330q0 -65 -18 -139l-78 -311q-46 -180 -43 -293h-301q0 60 14 117h-4q-150 -144 -348 -144q-150 0 -230.5 76.5t-80.5 204.5q0 63 23 118.5t76 108t151.5 91.5t236.5 59q170 20 268 26l5 23
q10 38 10 61q0 117 -127 117q-65 0 -109 -37.5t-59 -107.5h-326q33 157 167 258.5t347 101.5zM682 412l14 59q-77 -3 -190 -22q-174 -30 -174 -150q0 -46 30.5 -73t86.5 -27q90 0 149 55.5t84 157.5z" />
    <glyph glyph-name="atilde" unicode="&#xe3;" horiz-adv-x="1148" 
d="M979 1458h184q-40 -137 -120.5 -215t-188.5 -78q-46 0 -87 13.5t-65.5 30.5t-55 30.5t-58.5 13.5q-75 0 -111 -88h-184q39 138 119 215.5t190 77.5q46 0 87.5 -14t66 -30t55 -30t57.5 -14q77 0 111 88zM651 1073q426 0 426 -330q0 -65 -18 -139l-78 -311
q-46 -180 -43 -293h-301q0 60 14 117h-4q-150 -144 -348 -144q-150 0 -230.5 76.5t-80.5 204.5q0 63 23 118.5t76 108t151.5 91.5t236.5 59q170 20 268 26l5 23q10 38 10 61q0 117 -127 117q-65 0 -109 -37.5t-59 -107.5h-326q33 157 167 258.5t347 101.5zM682 412l14 59
q-77 -3 -190 -22q-174 -30 -174 -150q0 -46 30.5 -73t86.5 -27q90 0 149 55.5t84 157.5z" />
    <glyph glyph-name="adieresis" unicode="&#xe4;" horiz-adv-x="1148" 
d="M612 1190h-293l68 268h291zM1075 1190h-291l66 268h293zM651 1073q426 0 426 -330q0 -65 -18 -139l-78 -311q-46 -180 -43 -293h-301q0 60 14 117h-4q-150 -144 -348 -144q-150 0 -230.5 76.5t-80.5 204.5q0 63 23 118.5t76 108t151.5 91.5t236.5 59q170 20 268 26l5 23
q10 38 10 61q0 117 -127 117q-65 0 -109 -37.5t-59 -107.5h-326q33 157 167 258.5t347 101.5zM682 412l14 59q-77 -3 -190 -22q-174 -30 -174 -150q0 -46 30.5 -73t86.5 -27q90 0 149 55.5t84 157.5z" />
    <glyph glyph-name="aring" unicode="&#xe5;" horiz-adv-x="1148" 
d="M721 1597q97 0 164 -68t67 -165q0 -96 -67.5 -163.5t-163.5 -67.5q-97 0 -165.5 68t-68.5 163q0 97 68.5 165t165.5 68zM721 1479q-47 0 -81 -34t-34 -81t34 -81t81 -34t81 34t34 81t-34 81t-81 34zM651 1073q426 0 426 -330q0 -65 -18 -139l-78 -311q-46 -180 -43 -293
h-301q0 60 14 117h-4q-150 -144 -348 -144q-150 0 -230.5 76.5t-80.5 204.5q0 63 23 118.5t76 108t151.5 91.5t236.5 59q170 20 268 26l5 23q10 38 10 61q0 117 -127 117q-65 0 -109 -37.5t-59 -107.5h-326q33 157 167 258.5t347 101.5zM682 412l14 59q-77 -3 -190 -22
q-174 -30 -174 -150q0 -46 30.5 -73t86.5 -27q90 0 149 55.5t84 157.5z" />
    <glyph glyph-name="ae" unicode="&#xe6;" horiz-adv-x="1832" 
d="M1753 451h-721q-8 -39 -8 -80q0 -92 42.5 -134t113.5 -42q64 0 112 34.5t66 89.5h348q-63 -153 -211 -252.5t-330 -99.5q-257 0 -366 187q-160 -187 -416 -187q-191 0 -292 81t-101 216q0 60 18.5 112.5t64 101.5t115.5 84t180 56t250 21h142l8 33q8 50 8 63
q0 123 -137 123q-68 0 -114.5 -37.5t-61.5 -107.5h-328q38 157 170.5 258.5t343.5 101.5q236 0 336 -115q145 115 338 115q220 0 337.5 -119t117.5 -323q0 -72 -25 -180zM1307 850q-72 0 -132 -50t-96 -157h381q2 16 2 45q0 81 -42 121.5t-113 40.5zM715 459h-117
q-268 0 -268 -162q0 -51 32.5 -80t96.5 -29q98 0 158 59.5t90 178.5z" />
    <glyph glyph-name="ccedilla" unicode="&#xe7;" horiz-adv-x="1177" 
d="M1145 623h-352q4 20 4 36q0 75 -34.5 116.5t-94.5 41.5q-61 0 -112.5 -41t-82.5 -102.5t-48 -126.5t-17 -119q0 -98 37 -150.5t106 -52.5q66 0 118.5 46t75.5 126h355q-57 -183 -196.5 -298t-321.5 -130l-78 -90q18 6 45 6q70 0 110.5 -38.5t40.5 -106.5
q0 -92 -85.5 -153.5t-213.5 -61.5q-136 0 -231 65l61 109q80 -45 164 -45q47 0 76 20t29 52q0 59 -72 59q-38 0 -68 -12l-53 49l131 151q-181 25 -280 145.5t-99 315.5q0 85 24.5 172.5t76.5 171.5t125 149.5t178 105.5t227 40q215 0 338 -107t123 -288q0 -28 -6 -55z" />
    <glyph glyph-name="egrave" unicode="&#xe8;" horiz-adv-x="1196" 
d="M662 1155l-228 303h377l98 -303h-247zM1116 451h-735q-8 -39 -8 -80q0 -91 44.5 -133.5t117.5 -42.5q66 0 116.5 34.5t69.5 89.5h348q-63 -153 -211 -252.5t-330 -99.5q-232 0 -351.5 124t-119.5 337q0 85 24 173t74.5 173t121.5 151.5t173.5 107t221.5 40.5
q226 0 347.5 -119t121.5 -323q0 -72 -25 -180zM662 850q-161 0 -234 -207h393q4 32 4 45q0 82 -44 122t-119 40z" />
    <glyph glyph-name="eacute" unicode="&#xe9;" horiz-adv-x="1196" 
d="M795 1155h-277l223 303h404zM672 1073q226 0 347.5 -119t121.5 -323q0 -72 -25 -180h-735q-8 -39 -8 -80q0 -91 44.5 -133.5t117.5 -42.5q66 0 116.5 34.5t69.5 89.5h348q-63 -153 -211 -252.5t-330 -99.5q-232 0 -351.5 124t-119.5 337q0 85 24 173t74.5 173
t121.5 151.5t173.5 107t221.5 40.5zM662 850q-161 0 -234 -207h393q4 32 4 45q0 82 -44 122t-119 40z" />
    <glyph glyph-name="ecircumflex" unicode="&#xea;" horiz-adv-x="1196" 
d="M618 1155h-307l318 303h319l168 -303h-260l-82 156zM1116 451h-735q-8 -39 -8 -80q0 -91 44.5 -133.5t117.5 -42.5q66 0 116.5 34.5t69.5 89.5h348q-63 -153 -211 -252.5t-330 -99.5q-232 0 -351.5 124t-119.5 337q0 85 24 173t74.5 173t121.5 151.5t173.5 107
t221.5 40.5q226 0 347.5 -119t121.5 -323q0 -72 -25 -180zM662 850q-161 0 -234 -207h393q4 32 4 45q0 82 -44 122t-119 40z" />
    <glyph glyph-name="edieresis" unicode="&#xeb;" horiz-adv-x="1196" 
d="M637 1190h-293l68 268h290zM1100 1190h-291l65 268h293zM672 1073q226 0 347.5 -119t121.5 -323q0 -72 -25 -180h-735q-8 -39 -8 -80q0 -91 44.5 -133.5t117.5 -42.5q66 0 116.5 34.5t69.5 89.5h348q-63 -153 -211 -252.5t-330 -99.5q-232 0 -351.5 124t-119.5 337
q0 85 24 173t74.5 173t121.5 151.5t173.5 107t221.5 40.5zM662 850q-161 0 -234 -207h393q4 32 4 45q0 82 -44 122t-119 40z" />
    <glyph glyph-name="igrave" unicode="&#xec;" horiz-adv-x="589" 
d="M551 1458l98 -303h-248l-227 303h377zM336 0h-340l258 1040h340z" />
    <glyph glyph-name="iacute" unicode="&#xed;" horiz-adv-x="589" 
d="M532 1155h-276l223 303h404zM336 0h-340l258 1040h340z" />
    <glyph glyph-name="icircumflex" unicode="&#xee;" horiz-adv-x="589" 
d="M825 1159h-247l-68 146l-139 -146h-287l295 299h299zM336 0h-340l258 1040h340z" />
    <glyph glyph-name="idieresis" unicode="&#xef;" horiz-adv-x="589" 
d="M414 1190h-273l68 268h270zM782 1190h-270l66 268h272zM336 0h-340l258 1040h340z" />
    <glyph glyph-name="eth" unicode="&#xf0;" horiz-adv-x="1222" 
d="M1182 1343l-217 -75q211 -280 211 -596q0 -99 -25 -197t-78 -190t-128 -162.5t-183 -113t-234 -42.5q-223 0 -347 123t-126 338q1 79 24 161.5t71 161.5t114 141t160.5 100t202.5 38q77 0 135 -20l2 4q-39 67 -105 149l-290 -100l-50 139l232 80q-57 57 -86 82l287 127
q68 -57 110 -102l273 94zM555 219q62 0 115 41t84.5 102.5t49 126.5t17.5 121q0 97 -39.5 150t-113.5 53q-62 0 -113.5 -42t-81.5 -105t-46.5 -130t-16.5 -124q0 -92 37 -142.5t108 -50.5z" />
    <glyph glyph-name="ntilde" unicode="&#xf1;" 
d="M1077 1458h185q-40 -137 -120.5 -215t-189.5 -78q-46 0 -87 13.5t-65.5 30.5t-55 30.5t-58.5 13.5q-75 0 -111 -88h-184q39 138 119 215.5t190 77.5q59 0 107.5 -22t87 -44t72.5 -22q76 0 110 88zM856 1067q151 0 234.5 -79t83.5 -228q0 -70 -21 -152l-152 -608h-339
l149 598q12 55 12 94q0 111 -114 111q-81 0 -144 -66.5t-94 -197.5l-135 -539h-340l260 1040h315l-26 -108h4q138 135 307 135z" />
    <glyph glyph-name="ograve" unicode="&#xf2;" horiz-adv-x="1236" 
d="M834 1458l98 -303h-248l-227 303h377zM680 1073q238 0 368 -125t130 -348q0 -85 -24.5 -172t-76.5 -170t-124 -147.5t-176 -104t-224 -39.5q-235 0 -364.5 125.5t-129.5 347.5q0 84 24.5 171.5t76 170.5t123.5 147.5t175 104t222 39.5zM666 815q-64 0 -115 -38.5t-80 -98
t-44 -122.5t-15 -120q0 -211 159 -211q63 0 114 38.5t80 98t44.5 122.5t15.5 120q0 211 -159 211z" />
    <glyph glyph-name="oacute" unicode="&#xf3;" horiz-adv-x="1236" 
d="M815 1155h-276l223 303h403zM680 1073q238 0 368 -125t130 -348q0 -85 -24.5 -172t-76.5 -170t-124 -147.5t-176 -104t-224 -39.5q-235 0 -364.5 125.5t-129.5 347.5q0 84 24.5 171.5t76 170.5t123.5 147.5t175 104t222 39.5zM666 815q-64 0 -115 -38.5t-80 -98
t-44 -122.5t-15 -120q0 -211 159 -211q63 0 114 38.5t80 98t44.5 122.5t15.5 120q0 211 -159 211z" />
    <glyph glyph-name="ocircumflex" unicode="&#xf4;" horiz-adv-x="1236" 
d="M1139 1155h-260l-82 156l-156 -156h-307l317 303h320zM680 1073q238 0 368 -125t130 -348q0 -85 -24.5 -172t-76.5 -170t-124 -147.5t-176 -104t-224 -39.5q-235 0 -364.5 125.5t-129.5 347.5q0 84 24.5 171.5t76 170.5t123.5 147.5t175 104t222 39.5zM666 815
q-64 0 -115 -38.5t-80 -98t-44 -122.5t-15 -120q0 -211 159 -211q63 0 114 38.5t80 98t44.5 122.5t15.5 120q0 211 -159 211z" />
    <glyph glyph-name="otilde" unicode="&#xf5;" horiz-adv-x="1236" 
d="M1026 1458h184q-40 -137 -120.5 -215t-188.5 -78q-46 0 -87 13.5t-65.5 30.5t-55 30.5t-58.5 13.5q-75 0 -111 -88h-184q39 138 119 215.5t190 77.5q46 0 87.5 -14t66 -30t55 -30t57.5 -14q77 0 111 88zM680 1073q238 0 368 -125t130 -348q0 -85 -24.5 -172t-76.5 -170
t-124 -147.5t-176 -104t-224 -39.5q-235 0 -364.5 125.5t-129.5 347.5q0 84 24.5 171.5t76 170.5t123.5 147.5t175 104t222 39.5zM666 815q-64 0 -115 -38.5t-80 -98t-44 -122.5t-15 -120q0 -211 159 -211q63 0 114 38.5t80 98t44.5 122.5t15.5 120q0 211 -159 211z" />
    <glyph glyph-name="odieresis" unicode="&#xf6;" horiz-adv-x="1236" 
d="M659 1190h-292l67 268h291zM1122 1190h-291l66 268h293zM680 1073q238 0 368 -125t130 -348q0 -85 -24.5 -172t-76.5 -170t-124 -147.5t-176 -104t-224 -39.5q-235 0 -364.5 125.5t-129.5 347.5q0 84 24.5 171.5t76 170.5t123.5 147.5t175 104t222 39.5zM666 815
q-64 0 -115 -38.5t-80 -98t-44 -122.5t-15 -120q0 -211 159 -211q63 0 114 38.5t80 98t44.5 122.5t15.5 120q0 211 -159 211z" />
    <glyph glyph-name="divide" unicode="&#xf7;" horiz-adv-x="1159" 
d="M723 903h-287v240h287v-240zM1038 516h-917v264h917v-264zM723 154h-287v241h287v-241z" />
    <glyph glyph-name="oslash" unicode="&#xf8;" horiz-adv-x="1236" 
d="M1214 1018l-120 -123q84 -119 84 -295q0 -85 -24.5 -172t-76.5 -170t-124 -147.5t-176 -104t-224 -39.5q-180 0 -301 76l-125 -125l-109 107l123 122q-82 121 -82 293q0 84 24.5 171.5t76 170.5t123.5 147.5t175 104t222 39.5q177 0 303 -74l123 125zM666 829
q-69 0 -124.5 -40.5t-87 -102.5t-47.5 -127t-16 -123q0 -31 2 -43l391 393q-46 43 -118 43zM571 211q69 0 124.5 40.5t87 102.5t47.5 127t16 123q0 8 -1 24t-1 23l-393 -395q45 -45 120 -45z" />
    <glyph glyph-name="ugrave" unicode="&#xf9;" 
d="M858 1458l98 -303h-247l-228 303h377zM389 -27q-151 0 -234 79.5t-83 228.5q0 72 20 151l152 608h340l-150 -598q-12 -55 -12 -94q0 -110 115 -110q81 0 143.5 66.5t93.5 197.5l135 538h340l-260 -1040h-315l26 109h-4q-139 -136 -307 -136z" />
    <glyph glyph-name="uacute" unicode="&#xfa;" 
d="M842 1155h-277l223 303h404zM389 -27q-151 0 -234 79.5t-83 228.5q0 72 20 151l152 608h340l-150 -598q-12 -55 -12 -94q0 -110 115 -110q81 0 143.5 66.5t93.5 197.5l135 538h340l-260 -1040h-315l26 109h-4q-139 -136 -307 -136z" />
    <glyph glyph-name="ucircumflex" unicode="&#xfb;" 
d="M1163 1155h-260l-82 156l-155 -156h-308l318 303h319zM389 -27q-151 0 -234 79.5t-83 228.5q0 72 20 151l152 608h340l-150 -598q-12 -55 -12 -94q0 -110 115 -110q81 0 143.5 66.5t93.5 197.5l135 538h340l-260 -1040h-315l26 109h-4q-139 -136 -307 -136z" />
    <glyph glyph-name="udieresis" unicode="&#xfc;" 
d="M684 1190h-293l68 268h291zM1147 1190h-291l66 268h292zM389 -27q-151 0 -234 79.5t-83 228.5q0 72 20 151l152 608h340l-150 -598q-12 -55 -12 -94q0 -110 115 -110q81 0 143.5 66.5t93.5 197.5l135 538h340l-260 -1040h-315l26 109h-4q-139 -136 -307 -136z" />
    <glyph glyph-name="yacute" unicode="&#xfd;" horiz-adv-x="1085" 
d="M743 1155h-276l223 303h404zM1231 1040l-602 -1026q-134 -230 -267.5 -317.5t-334.5 -87.5q-95 0 -170 16l63 258q46 -16 100 -16q94 0 147.5 52.5t53.5 131.5q0 23 -14 152l-98 837h335l21 -348q12 -213 6 -434h4q104 247 203 436l176 346h377z" />
    <glyph glyph-name="thorn" unicode="&#xfe;" horiz-adv-x="1249" 
d="M575 965h5q116 104 264 104q169 0 262.5 -109t93.5 -301q0 -75 -17 -153.5t-48.5 -155.5t-81.5 -145.5t-111.5 -120.5t-143 -82.5t-171.5 -30.5q-88 0 -156.5 39t-101.5 111h-4l-123 -500h-340l456 1837h340zM696 811q-59 0 -109.5 -36.5t-81.5 -94t-48 -123t-17 -127.5
q0 -95 37 -148t107 -53q59 0 109.5 36.5t81.5 94t48 123t17 127.5q0 95 -37 148t-107 53z" />
    <glyph glyph-name="ydieresis" unicode="&#xff;" horiz-adv-x="1085" 
d="M588 1190h-293l67 268h291zM1051 1190h-291l65 268h293zM1231 1040l-602 -1026q-134 -230 -267.5 -317.5t-334.5 -87.5q-95 0 -170 16l63 258q46 -16 100 -16q94 0 147.5 52.5t53.5 131.5q0 23 -14 152l-98 837h335l21 -348q12 -213 6 -434h4q104 247 203 436l176 346
h377z" />
    <glyph glyph-name="Amacron" unicode="&#x100;" horiz-adv-x="1464" 
d="M1419 1800l-51 -211h-737l53 211h735zM1198 1458l135 -1458h-350l-16 309h-529l-170 -309h-395l860 1458h465zM952 600l-6 98q-13 288 -16 531h-4q-115 -241 -275 -531l-53 -98h354z" />
    <glyph glyph-name="amacron" unicode="&#x101;" horiz-adv-x="1148" 
d="M1071 1206h-737l53 211h735zM651 1073q426 0 426 -330q0 -65 -18 -139l-78 -311q-46 -180 -43 -293h-301q0 60 14 117h-4q-150 -144 -348 -144q-150 0 -230.5 76.5t-80.5 204.5q0 63 23 118.5t76 108t151.5 91.5t236.5 59q170 20 268 26l5 23q10 38 10 61q0 117 -127 117
q-65 0 -109 -37.5t-59 -107.5h-326q33 157 167 258.5t347 101.5zM682 412l14 59q-77 -3 -190 -22q-174 -30 -174 -150q0 -46 30.5 -73t86.5 -27q90 0 149 55.5t84 157.5z" />
    <glyph glyph-name="Abreve" unicode="&#x102;" horiz-adv-x="1464" 
d="M999 1550q-146 0 -224.5 66t-78.5 186q0 29 6 64h195q-2 -10 -2 -25q0 -94 123 -94q67 0 112 31t62 88h240q-41 -151 -154.5 -233.5t-278.5 -82.5zM1198 1458l135 -1458h-350l-16 309h-529l-170 -309h-395l860 1458h465zM952 600l-6 98q-13 288 -16 531h-4
q-115 -241 -275 -531l-53 -98h354z" />
    <glyph glyph-name="abreve" unicode="&#x103;" horiz-adv-x="1148" 
d="M889 1458h239q-41 -150 -154 -232.5t-278 -82.5q-146 0 -224.5 66t-78.5 186q0 29 6 63h195q-2 -10 -2 -24q0 -46 31.5 -70.5t91.5 -24.5q67 0 112 31t62 88zM651 1073q426 0 426 -330q0 -65 -18 -139l-78 -311q-46 -180 -43 -293h-301q0 60 14 117h-4
q-150 -144 -348 -144q-150 0 -230.5 76.5t-80.5 204.5q0 63 23 118.5t76 108t151.5 91.5t236.5 59q170 20 268 26l5 23q10 38 10 61q0 117 -127 117q-65 0 -109 -37.5t-59 -107.5h-326q33 157 167 258.5t347 101.5zM682 412l14 59q-77 -3 -190 -22q-174 -30 -174 -150
q0 -46 30.5 -73t86.5 -27q90 0 149 55.5t84 157.5z" />
    <glyph glyph-name="Aogonek" unicode="&#x104;" horiz-adv-x="1464" 
d="M1159 -182q0 -41 53 -41q34 0 74 14l-45 -176q-77 -23 -172 -23q-229 0 -229 160q0 71 55.5 131t173.5 117h-86l-16 309h-529l-170 -309h-395l860 1458h465l135 -1458q-101 -57 -137.5 -99.5t-36.5 -82.5zM952 600l-6 98q-13 288 -16 531h-4q-115 -241 -275 -531l-53 -98
h354z" />
    <glyph glyph-name="aogonek" unicode="&#x105;" horiz-adv-x="1148" 
d="M651 1073q426 0 426 -330q0 -65 -18 -139l-78 -311q-46 -180 -43 -293q-101 -57 -137.5 -99.5t-36.5 -82.5q0 -41 53 -41q34 0 74 14l-45 -176q-77 -23 -172 -23q-230 0 -230 160q0 71 56 130.5t174 117.5h-37q0 60 14 117h-4q-150 -144 -348 -144q-150 0 -230.5 76.5
t-80.5 204.5q0 63 23 118.5t76 108t151.5 91.5t236.5 59q170 20 268 26l5 23q10 38 10 61q0 117 -127 117q-65 0 -109 -37.5t-59 -107.5h-326q33 157 167 258.5t347 101.5zM449 199q90 0 149 55.5t84 157.5l14 59q-77 -3 -190 -22q-174 -30 -174 -150q0 -46 30.5 -73
t86.5 -27z" />
    <glyph glyph-name="Cacute" unicode="&#x106;" horiz-adv-x="1464" 
d="M1049 1556h-277l225 310h404zM938 1491q251 0 398 -134t147 -364q0 -59 -6 -90h-367q4 36 4 58q0 105 -56 164t-155 59q-81 0 -151.5 -38.5t-119.5 -101t-84.5 -141.5t-52 -160.5t-16.5 -158.5q0 -141 60.5 -225.5t175.5 -84.5q100 0 183 61.5t124 168.5h373
q-79 -255 -268 -396t-445 -141q-271 0 -421 158.5t-150 433.5q0 127 31 255.5t98.5 250.5t162.5 216.5t233.5 152t301.5 57.5z" />
    <glyph glyph-name="cacute" unicode="&#x107;" horiz-adv-x="1177" 
d="M803 1155h-277l224 303h403zM690 1073q215 0 338 -107t123 -288q0 -28 -6 -55h-352q4 20 4 36q0 75 -34.5 116.5t-94.5 41.5q-61 0 -112.5 -41t-82.5 -102.5t-48 -126.5t-17 -119q0 -98 37 -150.5t106 -52.5q66 0 118.5 46t75.5 126h355q-61 -196 -216.5 -313
t-355.5 -117q-222 0 -345.5 124t-123.5 343q0 85 24.5 172.5t76.5 171.5t125 149.5t178 105.5t227 40z" />
    <glyph glyph-name="Ccircumflex" unicode="&#x108;" horiz-adv-x="1464" 
d="M885 1866h319l170 -310h-256l-84 162l-162 -162h-311zM938 1491q251 0 398 -134t147 -364q0 -59 -6 -90h-367q4 36 4 58q0 105 -56 164t-155 59q-81 0 -151.5 -38.5t-119.5 -101t-84.5 -141.5t-52 -160.5t-16.5 -158.5q0 -141 60.5 -225.5t175.5 -84.5q100 0 183 61.5
t124 168.5h373q-79 -255 -268 -396t-445 -141q-271 0 -421 158.5t-150 433.5q0 127 31 255.5t98.5 250.5t162.5 216.5t233.5 152t301.5 57.5z" />
    <glyph glyph-name="ccircumflex" unicode="&#x109;" horiz-adv-x="1177" 
d="M1124 1155h-260l-82 156l-155 -156h-308l318 303h319zM690 1073q215 0 338 -107t123 -288q0 -28 -6 -55h-352q4 20 4 36q0 75 -34.5 116.5t-94.5 41.5q-61 0 -112.5 -41t-82.5 -102.5t-48 -126.5t-17 -119q0 -98 37 -150.5t106 -52.5q66 0 118.5 46t75.5 126h355
q-61 -196 -216.5 -313t-355.5 -117q-222 0 -345.5 124t-123.5 343q0 85 24.5 172.5t76.5 171.5t125 149.5t178 105.5t227 40z" />
    <glyph glyph-name="Cdotaccent" unicode="&#x10a;" horiz-adv-x="1464" 
d="M1143 1575h-340l67 268h340zM938 1491q251 0 398 -134t147 -364q0 -59 -6 -90h-367q4 36 4 58q0 105 -56 164t-155 59q-81 0 -151.5 -38.5t-119.5 -101t-84.5 -141.5t-52 -160.5t-16.5 -158.5q0 -141 60.5 -225.5t175.5 -84.5q100 0 183 61.5t124 168.5h373
q-79 -255 -268 -396t-445 -141q-271 0 -421 158.5t-150 433.5q0 127 31 255.5t98.5 250.5t162.5 216.5t233.5 152t301.5 57.5z" />
    <glyph glyph-name="cdotaccent" unicode="&#x10b;" horiz-adv-x="1177" 
d="M901 1190h-340l68 268h340zM690 1073q215 0 338 -107t123 -288q0 -28 -6 -55h-352q4 20 4 36q0 75 -34.5 116.5t-94.5 41.5q-61 0 -112.5 -41t-82.5 -102.5t-48 -126.5t-17 -119q0 -98 37 -150.5t106 -52.5q66 0 118.5 46t75.5 126h355q-61 -196 -216.5 -313t-355.5 -117
q-222 0 -345.5 124t-123.5 343q0 85 24.5 172.5t76.5 171.5t125 149.5t178 105.5t227 40z" />
    <glyph glyph-name="Ccaron" unicode="&#x10c;" horiz-adv-x="1464" 
d="M1126 1556h-317l-170 310h254l86 -162l160 162h313zM938 1491q251 0 398 -134t147 -364q0 -59 -6 -90h-367q4 36 4 58q0 105 -56 164t-155 59q-81 0 -151.5 -38.5t-119.5 -101t-84.5 -141.5t-52 -160.5t-16.5 -158.5q0 -141 60.5 -225.5t175.5 -84.5q100 0 183 61.5
t124 168.5h373q-79 -255 -268 -396t-445 -141q-271 0 -421 158.5t-150 433.5q0 127 31 255.5t98.5 250.5t162.5 216.5t233.5 152t301.5 57.5z" />
    <glyph glyph-name="ccaron" unicode="&#x10d;" horiz-adv-x="1177" 
d="M881 1155h-320l-166 303h260l82 -155l154 155h307zM690 1073q215 0 338 -107t123 -288q0 -28 -6 -55h-352q4 20 4 36q0 75 -34.5 116.5t-94.5 41.5q-61 0 -112.5 -41t-82.5 -102.5t-48 -126.5t-17 -119q0 -98 37 -150.5t106 -52.5q66 0 118.5 46t75.5 126h355
q-61 -196 -216.5 -313t-355.5 -117q-222 0 -345.5 124t-123.5 343q0 85 24.5 172.5t76.5 171.5t125 149.5t178 105.5t227 40z" />
    <glyph glyph-name="Dcaron" unicode="&#x10e;" horiz-adv-x="1521" 
d="M1114 1556h-317l-170 310h254l86 -162l159 162h314zM389 1458h410q347 0 525.5 -161.5t178.5 -469.5q0 -117 -31.5 -231t-102 -222.5t-172 -191t-253 -132.5t-332.5 -50h-585zM668 1157l-213 -856h176q106 0 193.5 31.5t144 82.5t95 118.5t55 136t16.5 137.5
q0 350 -359 350h-108z" />
    <glyph glyph-name="dcaron" unicode="&#x10f;" 
d="M991 0h-327l22 88h-4q-59 -56 -133 -86.5t-146 -30.5q-169 0 -262.5 109t-93.5 301q0 90 23.5 185t72 185t115 161t161 114t202.5 43q88 0 156.5 -38.5t101.5 -110.5h4l131 538h340zM1516 1094h-193l139 364h267zM664 811q-59 0 -109.5 -36.5t-81.5 -94t-48 -123
t-17 -127.5q0 -95 36.5 -148t106.5 -53q59 0 109.5 36.5t81.5 94t48 123t17 127.5q0 95 -36.5 148t-106.5 53z" />
    <glyph glyph-name="Dcroat" unicode="&#x110;" horiz-adv-x="1525" 
d="M391 1458h410q348 0 527 -161.5t179 -469.5q0 -117 -32 -231t-102.5 -222.5t-172.5 -191t-253.5 -132.5t-332.5 -50h-585l153 621h-127l60 233h127zM457 301h176q106 0 193.5 31.5t144.5 82.5t96 118.5t55.5 136t16.5 137.5q0 350 -359 350h-108l-76 -303h313l-59 -233
h-313z" />
    <glyph glyph-name="dcroat" unicode="&#x111;" horiz-adv-x="1236" 
d="M1421 1171h-139l-291 -1171h-327l22 88h-4q-59 -56 -133 -86.5t-146 -30.5q-169 0 -262.5 109t-93.5 301q0 90 23.5 185t72 185t115 161t161 114t202.5 43q88 0 156.5 -38.5t101.5 -110.5h4l61 251h-260l41 160h258l31 127h340l-31 -127h137zM551 229q59 0 109.5 36.5
t81.5 94t48 123t17 127.5q0 95 -36.5 148t-106.5 53q-59 0 -109.5 -36.5t-81.5 -94t-48 -123t-17 -127.5q0 -95 36.5 -148t106.5 -53z" />
    <glyph glyph-name="Emacron" unicode="&#x112;" horiz-adv-x="1298" 
d="M1288 1589h-737l53 211h735zM1346 1161h-676l-68 -276h629l-74 -293h-631l-71 -295h692l-74 -297h-1046l362 1458h1030z" />
    <glyph glyph-name="emacron" unicode="&#x113;" horiz-adv-x="1196" 
d="M1096 1206h-738l54 211h735zM672 1073q226 0 347.5 -119t121.5 -323q0 -72 -25 -180h-735q-8 -39 -8 -80q0 -91 44.5 -133.5t117.5 -42.5q66 0 116.5 34.5t69.5 89.5h348q-63 -153 -211 -252.5t-330 -99.5q-232 0 -351.5 124t-119.5 337q0 85 24 173t74.5 173
t121.5 151.5t173.5 107t221.5 40.5zM662 850q-161 0 -234 -207h393q4 32 4 45q0 82 -44 122t-119 40z" />
    <glyph glyph-name="Ebreve" unicode="&#x114;" horiz-adv-x="1298" 
d="M1112 1866h240q-41 -151 -154.5 -233.5t-277.5 -82.5q-146 0 -225 66t-79 186q0 24 7 64h194q-2 -10 -2 -25q0 -94 123 -94q67 0 112 31t62 88zM1346 1161h-676l-68 -276h629l-74 -293h-631l-71 -295h692l-74 -297h-1046l362 1458h1030z" />
    <glyph glyph-name="ebreve" unicode="&#x115;" horiz-adv-x="1196" 
d="M721 1143q-146 0 -224.5 66t-78.5 186q0 29 6 63h194q-2 -10 -2 -24q0 -46 31.5 -70.5t91.5 -24.5q67 0 112 31t62 88h240q-41 -150 -154 -232.5t-278 -82.5zM672 1073q226 0 347.5 -119t121.5 -323q0 -72 -25 -180h-735q-8 -39 -8 -80q0 -91 44.5 -133.5t117.5 -42.5
q66 0 116.5 34.5t69.5 89.5h348q-63 -153 -211 -252.5t-330 -99.5q-232 0 -351.5 124t-119.5 337q0 85 24 173t74.5 173t121.5 151.5t173.5 107t221.5 40.5zM662 850q-161 0 -234 -207h393q4 32 4 45q0 82 -44 122t-119 40z" />
    <glyph glyph-name="Edotaccent" unicode="&#x116;" horiz-adv-x="1298" 
d="M1083 1575h-340l68 268h340zM1346 1161h-676l-68 -276h629l-74 -293h-631l-71 -295h692l-74 -297h-1046l362 1458h1030z" />
    <glyph glyph-name="edotaccent" unicode="&#x117;" horiz-adv-x="1196" 
d="M893 1190h-340l68 268h340zM1116 451h-735q-8 -39 -8 -80q0 -91 44.5 -133.5t117.5 -42.5q66 0 116.5 34.5t69.5 89.5h348q-63 -153 -211 -252.5t-330 -99.5q-232 0 -351.5 124t-119.5 337q0 85 24 173t74.5 173t121.5 151.5t173.5 107t221.5 40.5q226 0 347.5 -119
t121.5 -323q0 -72 -25 -180zM662 850q-161 0 -234 -207h393q4 32 4 45q0 82 -44 122t-119 40z" />
    <glyph glyph-name="Eogonek" unicode="&#x118;" horiz-adv-x="1298" 
d="M670 1161l-68 -276h629l-74 -293h-631l-71 -295h692l-74 -297q-101 -57 -137.5 -99.5t-36.5 -82.5q0 -41 53 -41q34 0 74 14l-45 -176q-77 -23 -172 -23q-229 0 -229 160q0 71 55.5 131t173.5 117h-782l362 1458h1030l-73 -297h-676z" />
    <glyph glyph-name="eogonek" unicode="&#x119;" horiz-adv-x="1196" 
d="M1116 451h-735q-8 -39 -8 -80q0 -91 44.5 -133.5t117.5 -42.5q66 0 116.5 34.5t69.5 89.5h348q-58 -137 -223 -268q-100 -80 -136 -130.5t-36 -98.5q0 -45 53 -45q34 0 74 14l-45 -176q-74 -23 -166 -23q-230 0 -230 160q0 119 168 211v4h-6q-229 0 -347 124t-118 337
q0 85 24 173t74.5 173t121.5 151.5t173.5 107t221.5 40.5q226 0 347.5 -119t121.5 -323q0 -72 -25 -180zM662 850q-161 0 -234 -207h393q4 32 4 45q0 82 -44 122t-119 40z" />
    <glyph glyph-name="Ecaron" unicode="&#x11a;" horiz-adv-x="1298" 
d="M1069 1556h-317l-170 310h254l86 -162l159 162h314zM1346 1161h-676l-68 -276h629l-74 -293h-631l-71 -295h692l-74 -297h-1046l362 1458h1030z" />
    <glyph glyph-name="ecaron" unicode="&#x11b;" horiz-adv-x="1196" 
d="M553 1155l-166 303h260l82 -155l154 155h307l-318 -303h-319zM672 1073q226 0 347.5 -119t121.5 -323q0 -72 -25 -180h-735q-8 -39 -8 -80q0 -91 44.5 -133.5t117.5 -42.5q66 0 116.5 34.5t69.5 89.5h348q-63 -153 -211 -252.5t-330 -99.5q-232 0 -351.5 124t-119.5 337
q0 85 24 173t74.5 173t121.5 151.5t173.5 107t221.5 40.5zM662 850q-161 0 -234 -207h393q4 32 4 45q0 82 -44 122t-119 40z" />
    <glyph glyph-name="Gcircumflex" unicode="&#x11c;" horiz-adv-x="1538" 
d="M895 1866h319l170 -310h-256l-84 162l-161 -162h-312zM979 1491q255 0 399 -121.5t144 -333.5q0 -32 -6 -73h-381q2 10 2 28q0 97 -54 150t-155 53q-86 0 -161 -39.5t-126.5 -104.5t-89 -147.5t-55 -168t-17.5 -167.5q0 -152 63 -238.5t187 -86.5q117 0 209.5 73.5
t128.5 200.5h-313l67 272h645l-196 -788h-303l28 119h-4q-72 -71 -172 -109.5t-213 -38.5q-233 0 -364 155.5t-131 418.5q0 133 33.5 265.5t105 255.5t172 217.5t244.5 151t313 56.5z" />
    <glyph glyph-name="gcircumflex" unicode="&#x11d;" horiz-adv-x="1232" 
d="M1141 1155h-260l-82 156l-156 -156h-307l317 303h320zM592 1069q105 0 179 -50.5t106 -133.5h4l39 155h317l-258 -1042q-51 -200 -203 -298.5t-381 -98.5q-216 0 -327 72.5t-111 207.5q0 35 4 53h322q-2 -8 -2 -22q0 -44 34.5 -68t100.5 -24q90 0 150 49t91 168l19 76h-4
q-122 -101 -264 -101q-165 0 -257 112.5t-92 311.5q0 81 21.5 168t67 170t107 149t149.5 106t188 40zM647 803q-72 0 -127.5 -57.5t-80.5 -130t-25 -138.5q0 -92 38 -144t107 -52q74 0 130.5 55.5t82 127.5t25.5 140q0 93 -40 146t-110 53z" />
    <glyph glyph-name="Gbreve" unicode="&#x11e;" horiz-adv-x="1538" 
d="M1182 1866h239q-41 -151 -154.5 -233.5t-277.5 -82.5q-146 0 -224.5 66t-78.5 186q0 29 6 64h195q-2 -10 -2 -25q0 -94 123 -94q67 0 112 31t62 88zM979 1491q255 0 399 -121.5t144 -333.5q0 -32 -6 -73h-381q2 10 2 28q0 97 -54 150t-155 53q-86 0 -161 -39.5
t-126.5 -104.5t-89 -147.5t-55 -168t-17.5 -167.5q0 -152 63 -238.5t187 -86.5q117 0 209.5 73.5t128.5 200.5h-313l67 272h645l-196 -788h-303l28 119h-4q-72 -71 -172 -109.5t-213 -38.5q-233 0 -364 155.5t-131 418.5q0 133 33.5 265.5t105 255.5t172 217.5t244.5 151
t313 56.5z" />
    <glyph glyph-name="gbreve" unicode="&#x11f;" horiz-adv-x="1232" 
d="M938 1458h240q-41 -150 -154.5 -232.5t-278.5 -82.5q-146 0 -224.5 66t-78.5 186q0 23 7 63h194q-2 -10 -2 -24q0 -46 31.5 -70.5t91.5 -24.5q67 0 112 31t62 88zM592 1069q105 0 179 -50.5t106 -133.5h4l39 155h317l-258 -1042q-51 -200 -203 -298.5t-381 -98.5
q-216 0 -327 72.5t-111 207.5q0 35 4 53h322q-2 -8 -2 -22q0 -44 34.5 -68t100.5 -24q90 0 150 49t91 168l19 76h-4q-122 -101 -264 -101q-165 0 -257 112.5t-92 311.5q0 81 21.5 168t67 170t107 149t149.5 106t188 40zM647 803q-72 0 -127.5 -57.5t-80.5 -130t-25 -138.5
q0 -92 38 -144t107 -52q74 0 130.5 55.5t82 127.5t25.5 140q0 93 -40 146t-110 53z" />
    <glyph glyph-name="Gdotaccent" unicode="&#x120;" horiz-adv-x="1538" 
d="M1153 1575h-340l68 268h340zM979 1491q255 0 399 -121.5t144 -333.5q0 -32 -6 -73h-381q2 10 2 28q0 97 -54 150t-155 53q-86 0 -161 -39.5t-126.5 -104.5t-89 -147.5t-55 -168t-17.5 -167.5q0 -152 63 -238.5t187 -86.5q117 0 209.5 73.5t128.5 200.5h-313l67 272h645
l-196 -788h-303l28 119h-4q-72 -71 -172 -109.5t-213 -38.5q-233 0 -364 155.5t-131 418.5q0 133 33.5 265.5t105 255.5t172 217.5t244.5 151t313 56.5z" />
    <glyph glyph-name="gdotaccent" unicode="&#x121;" horiz-adv-x="1232" 
d="M918 1190h-340l67 268h340zM592 1069q105 0 179 -50.5t106 -133.5h4l39 155h317l-258 -1042q-51 -200 -203 -298.5t-381 -98.5q-216 0 -327 72.5t-111 207.5q0 35 4 53h322q-2 -8 -2 -22q0 -44 34.5 -68t100.5 -24q90 0 150 49t91 168l19 76h-4q-122 -101 -264 -101
q-165 0 -257 112.5t-92 311.5q0 81 21.5 168t67 170t107 149t149.5 106t188 40zM647 803q-72 0 -127.5 -57.5t-80.5 -130t-25 -138.5q0 -92 38 -144t107 -52q74 0 130.5 55.5t82 127.5t25.5 140q0 93 -40 146t-110 53z" />
    <glyph glyph-name="Gcommaaccent" unicode="&#x122;" horiz-adv-x="1538" 
d="M979 1491q255 0 399 -121.5t144 -333.5q0 -32 -6 -73h-381q2 10 2 28q0 97 -54 150t-155 53q-86 0 -161 -39.5t-126.5 -104.5t-89 -147.5t-55 -168t-17.5 -167.5q0 -152 63 -238.5t187 -86.5q117 0 209.5 73.5t128.5 200.5h-313l67 272h645l-196 -788h-303l28 119h-4
q-72 -71 -172 -109.5t-213 -38.5q-233 0 -364 155.5t-131 418.5q0 133 33.5 265.5t105 255.5t172 217.5t244.5 151t313 56.5zM686 -340l-201 -223h-129l150 223h-94l57 229h274z" />
    <glyph glyph-name="gcommaaccent" unicode="&#x123;" horiz-adv-x="1232" 
d="M842 1401h94l-55 -230h-275l56 230l200 223h129zM592 1069q105 0 179 -50.5t106 -133.5h4l39 155h317l-258 -1042q-51 -200 -203 -298.5t-381 -98.5q-216 0 -327 72.5t-111 207.5q0 35 4 53h322q-2 -8 -2 -22q0 -44 34.5 -68t100.5 -24q90 0 150 49t91 168l19 76h-4
q-122 -101 -264 -101q-165 0 -257 112.5t-92 311.5q0 81 21.5 168t67 170t107 149t149.5 106t188 40zM647 803q-72 0 -127.5 -57.5t-80.5 -130t-25 -138.5q0 -92 38 -144t107 -52q74 0 130.5 55.5t82 127.5t25.5 140q0 93 -40 146t-110 53z" />
    <glyph glyph-name="Hcircumflex" unicode="&#x124;" horiz-adv-x="1558" 
d="M954 1866h320l170 -310h-256l-84 162l-162 -162h-311zM1274 0h-354l149 604h-539l-149 -604h-354l362 1458h354l-137 -553h539l137 553h354z" />
    <glyph glyph-name="hcircumflex" unicode="&#x125;" 
d="M795 1866h319l170 -310h-256l-84 162l-162 -162h-311zM571 954h4q126 113 281 113q151 0 234.5 -79t83.5 -228q0 -70 -21 -152l-152 -608h-339l149 598q12 55 12 94q0 111 -114 111q-81 0 -144 -66.5t-94 -197.5l-135 -539h-340l362 1458h340z" />
    <glyph glyph-name="Hbar" unicode="&#x126;" horiz-adv-x="1558" 
d="M1669 1155h-108l-287 -1155h-354l149 604h-539l-149 -604h-354l286 1155h-108l41 164h108l35 139h354l-34 -139h538l35 139h354l-34 -139h108zM1206 1155h-538l-62 -250h539z" />
    <glyph glyph-name="hbar" unicode="&#x127;" 
d="M856 1067q151 0 234.5 -79t83.5 -228q0 -70 -21 -152l-152 -608h-339l149 598q12 55 12 94q0 111 -114 111q-81 0 -144 -66.5t-94 -197.5l-135 -539h-340l291 1171h-146l37 150h146l34 137h340l-34 -137h249l-36 -150h-250l-56 -217h4q126 113 281 113z" />
    <glyph glyph-name="Itilde" unicode="&#x128;" horiz-adv-x="665" 
d="M883 1866h184q-40 -137 -120.5 -215t-188.5 -78q-58 0 -107 22t-88.5 44t-73.5 22q-77 0 -108 -88h-186q39 138 119 215.5t190 77.5q59 0 108 -22t87.5 -44t72.5 -22q77 0 111 88zM381 0h-354l362 1458h354z" />
    <glyph glyph-name="itilde" unicode="&#x129;" horiz-adv-x="589" 
d="M713 1458h178q-41 -138 -117 -215.5t-178 -77.5q-51 0 -93.5 22t-76.5 44t-64 22q-63 0 -94 -88h-178q41 138 116 215.5t177 77.5q40 0 76.5 -14t58.5 -30t49 -30t51 -14q65 0 95 88zM336 0h-340l258 1040h340z" />
    <glyph glyph-name="Imacron" unicode="&#x12a;" horiz-adv-x="665" 
d="M969 1589h-738l54 211h735zM381 0h-354l362 1458h354z" />
    <glyph glyph-name="imacron" unicode="&#x12b;" horiz-adv-x="589" 
d="M770 1206h-612l53 211h612zM336 0h-340l258 1040h340z" />
    <glyph glyph-name="Ibreve" unicode="&#x12c;" horiz-adv-x="665" 
d="M793 1866h239q-41 -151 -154.5 -233.5t-277.5 -82.5q-146 0 -224.5 66t-78.5 186q0 29 6 64h195q-2 -10 -2 -25q0 -94 122 -94q67 0 112.5 31t62.5 88zM381 0h-354l362 1458h354z" />
    <glyph glyph-name="ibreve" unicode="&#x12d;" horiz-adv-x="589" 
d="M633 1458h227q-41 -151 -145 -233t-256 -82q-130 0 -200.5 63.5t-70.5 179.5q0 20 9 72h190q-2 -10 -2 -28q0 -91 98 -91q114 0 150 119zM336 0h-340l258 1040h340z" />
    <glyph glyph-name="Iogonek" unicode="&#x12e;" horiz-adv-x="665" 
d="M743 1458l-362 -1458q-101 -57 -137.5 -99.5t-36.5 -82.5q0 -41 53 -41q34 0 74 14l-45 -176q-77 -23 -172 -23q-230 0 -230 160q0 71 56 130.5t174 117.5h-90l362 1458h354z" />
    <glyph glyph-name="iogonek" unicode="&#x12f;" horiz-adv-x="589" 
d="M698 1458l-67 -268h-340l67 268h340zM254 1040h340l-258 -1040q-101 -57 -137.5 -99.5t-36.5 -82.5q0 -41 53 -41q34 0 74 14l-45 -176q-77 -23 -172 -23q-230 0 -230 160q0 71 56 130.5t174 117.5h-76z" />
    <glyph glyph-name="Idotaccent" unicode="&#x130;" horiz-adv-x="665" 
d="M764 1575h-340l68 268h339zM381 0h-354l362 1458h354z" />
    <glyph glyph-name="dotlessi" unicode="&#x131;" horiz-adv-x="589" 
d="M336 0h-340l258 1040h340z" />
    <glyph glyph-name="IJ" unicode="&#x132;" horiz-adv-x="1505" 
d="M381 0h-354l362 1458h354zM1593 1458l-250 -1001q-60 -244 -205.5 -358.5t-394.5 -114.5q-102 0 -176 22l74 291q42 -10 82 -10q123 0 189.5 62t109.5 235l217 874h354z" />
    <glyph glyph-name="ij" unicode="&#x133;" horiz-adv-x="1181" 
d="M631 1190h-340l67 268h340zM1223 1190h-340l67 268h340zM336 0h-340l258 1040h340zM1186 1040l-268 -1075q-44 -180 -163 -267t-284 -87q-115 0 -182 22l57 234q18 -6 43 -6q86 0 136.5 47t80.5 168l240 964h340z" />
    <glyph glyph-name="Jcircumflex" unicode="&#x134;" horiz-adv-x="839" 
d="M694 1866h320l170 -310h-256l-84 162l-162 -162h-311zM928 1458l-250 -1001q-60 -244 -205.5 -358.5t-394.5 -114.5q-102 0 -176 22l73 291q42 -10 82 -10q123 0 189.5 62t109.5 235l217 874h355z" />
    <glyph glyph-name="jcircumflex" unicode="&#x135;" horiz-adv-x="591" 
d="M827 1159h-247l-68 146l-139 -146h-287l295 299h299zM596 1040l-268 -1075q-44 -180 -163 -267t-284 -87q-115 0 -182 22l57 234q18 -6 43 -6q86 0 136.5 47t80.5 168l240 964h340z" />
    <glyph glyph-name="Kcommaaccent" unicode="&#x136;" horiz-adv-x="1413" 
d="M895 750l381 -750h-412l-305 700h-4l-174 -700h-354l362 1458h354l-149 -598h4l543 598h458zM412 -111h274l-57 -229l-201 -223h-129l150 223h-95z" />
    <glyph glyph-name="kcommaaccent" unicode="&#x137;" horiz-adv-x="1159" 
d="M772 530l277 -530h-375l-211 489h-4l-123 -489h-340l362 1458h340l-200 -809h4l340 391h430zM334 -111h274l-57 -229l-201 -223h-129l150 223h-95z" />
    <glyph glyph-name="kgreenlandic" unicode="&#x138;" horiz-adv-x="1181" 
d="M772 530l277 -530h-375l-211 489h-4l-123 -489h-340l258 1040h340l-96 -391h4l340 391h430z" />
    <glyph glyph-name="Lacute" unicode="&#x139;" horiz-adv-x="1187" 
d="M731 1556h-276l225 310h403zM455 301h661l-76 -301h-1013l362 1458h354z" />
    <glyph glyph-name="lacute" unicode="&#x13a;" horiz-adv-x="589" 
d="M664 1573h-277l223 303h404zM336 0h-340l362 1458h340z" />
    <glyph glyph-name="Lcommaaccent" unicode="&#x13b;" horiz-adv-x="1187" 
d="M455 301h661l-76 -301h-1013l362 1458h354zM586 -340l-201 -223h-129l150 223h-95l58 229h274z" />
    <glyph glyph-name="lcommaaccent" unicode="&#x13c;" horiz-adv-x="589" 
d="M336 0h-340l362 1458h340zM227 -340l-200 -223h-129l149 223h-94l57 229h275z" />
    <glyph glyph-name="Lcaron" unicode="&#x13d;" horiz-adv-x="1187" 
d="M455 301h661l-76 -301h-1013l362 1458h354zM893 989h-193l166 469h267z" />
    <glyph glyph-name="lcaron" unicode="&#x13e;" horiz-adv-x="589" 
d="M336 0h-340l362 1458h340zM858 1094h-192l139 364h266z" />
    <glyph glyph-name="Ldot" unicode="&#x13f;" horiz-adv-x="1357" 
d="M455 301h661l-76 -301h-1013l362 1458h354zM1231 707h-361l93 376h362z" />
    <glyph glyph-name="ldot" unicode="&#x140;" horiz-adv-x="1079" 
d="M336 0h-340l362 1458h340zM1018 541h-361l93 377h362z" />
    <glyph glyph-name="Lslash" unicode="&#x141;" horiz-adv-x="1202" 
d="M1130 301l-75 -301h-1014l137 555l-168 -88l76 303l168 88l149 600h355l-105 -420l338 174l-76 -303l-337 -174l-109 -434h661z" />
    <glyph glyph-name="lslash" unicode="&#x142;" horiz-adv-x="720" 
d="M770 797l-197 -101l-172 -696h-340l134 535l-195 -101l72 291l194 100l158 633h340l-117 -473l195 102z" />
    <glyph glyph-name="Nacute" unicode="&#x143;" horiz-adv-x="1640" 
d="M1159 1556h-276l225 310h403zM1358 0h-488l-122 575q-65 300 -113 584h-4q-63 -348 -129 -614l-135 -545h-340l362 1458h485l125 -575q50 -243 111 -584h4q54 316 131 614l135 545h340z" />
    <glyph glyph-name="nacute" unicode="&#x144;" 
d="M866 1155h-276l223 303h404zM856 1067q151 0 234.5 -79t83.5 -228q0 -70 -21 -152l-152 -608h-339l149 598q12 55 12 94q0 111 -114 111q-81 0 -144 -66.5t-94 -197.5l-135 -539h-340l260 1040h315l-26 -108h4q138 135 307 135z" />
    <glyph glyph-name="Ncommaaccent" unicode="&#x145;" horiz-adv-x="1640" 
d="M1358 0h-488l-122 575q-65 300 -113 584h-4q-63 -348 -129 -614l-135 -545h-340l362 1458h485l125 -575q50 -243 111 -584h4q54 316 131 614l135 545h340zM743 -340l-200 -223h-129l149 223h-94l57 229h275z" />
    <glyph glyph-name="ncommaaccent" unicode="&#x146;" 
d="M856 1067q151 0 234.5 -79t83.5 -228q0 -70 -21 -152l-152 -608h-339l149 598q12 55 12 94q0 111 -114 111q-81 0 -144 -66.5t-94 -197.5l-135 -539h-340l260 1040h315l-26 -108h4q138 135 307 135zM551 -340l-201 -223h-129l150 223h-95l58 229h274z" />
    <glyph glyph-name="Ncaron" unicode="&#x147;" horiz-adv-x="1640" 
d="M1237 1556h-317l-170 310h254l86 -162l159 162h314zM1358 0h-488l-122 575q-65 300 -113 584h-4q-63 -348 -129 -614l-135 -545h-340l362 1458h485l125 -575q50 -243 111 -584h4q54 316 131 614l135 545h340z" />
    <glyph glyph-name="ncaron" unicode="&#x148;" 
d="M946 1155h-319l-166 303h260l82 -155l153 155h308zM856 1067q151 0 234.5 -79t83.5 -228q0 -70 -21 -152l-152 -608h-339l149 598q12 55 12 94q0 111 -114 111q-81 0 -144 -66.5t-94 -197.5l-135 -539h-340l260 1040h315l-26 -108h4q138 135 307 135z" />
    <glyph glyph-name="napostrophe" unicode="&#x149;" horiz-adv-x="1593" 
d="M580 1139l-236 -312h-170l199 312h-101l78 319h309zM1204 1067q151 0 234.5 -79t83.5 -228q0 -70 -21 -152l-151 -608h-340l147 598q14 52 14 94q0 111 -114 111q-81 0 -144 -66.5t-96 -197.5l-133 -539h-340l258 1040h318l-27 -108h4q135 135 307 135z" />
    <glyph glyph-name="Eng" unicode="&#x14a;" horiz-adv-x="1556" 
d="M1634 1458l-366 -1466q-49 -198 -176 -293.5t-304 -95.5q-96 0 -157 18l57 234q28 -7 57 -7q79 0 123.5 41.5t44.5 124.5q0 34 -8 67t-39 130l-129 414q-75 245 -116 467h-5q-48 -286 -106 -517l-143 -575h-340l362 1458h416l151 -485q82 -280 119 -467h4q46 270 107 516
l108 436h340z" />
    <glyph glyph-name="eng" unicode="&#x14b;" 
d="M856 1067q151 0 234.5 -79t83.5 -228q0 -70 -21 -152l-162 -643q-44 -180 -162.5 -267t-283.5 -87q-116 0 -183 22l58 234q18 -6 43 -6q85 0 135.5 46.5t81.5 168.5l131 522q12 55 12 94q0 111 -114 111q-81 0 -144 -66.5t-94 -197.5l-135 -539h-340l260 1040h315
l-26 -108h4q138 135 307 135z" />
    <glyph glyph-name="Omacron" unicode="&#x14c;" horiz-adv-x="1550" 
d="M1362 1589h-737l53 211h735zM930 1491q286 0 446 -170t160 -463q0 -122 -32 -246t-99 -240t-161 -206t-228.5 -144.5t-290.5 -54.5q-287 0 -446.5 170.5t-159.5 464.5q0 121 32 244.5t99 239.5t161 206t228.5 144.5t290.5 54.5zM909 1184q-70 0 -132 -26.5t-107.5 -71.5
t-82.5 -103.5t-59.5 -124.5t-34.5 -131.5t-12 -126.5q0 -155 67.5 -240.5t194.5 -85.5q84 0 156 38t121.5 99t85 138.5t52 156.5t16.5 152q0 155 -68.5 240.5t-196.5 85.5z" />
    <glyph glyph-name="omacron" unicode="&#x14d;" horiz-adv-x="1236" 
d="M1118 1206h-737l53 211h735zM680 1073q238 0 368 -125t130 -348q0 -85 -24.5 -172t-76.5 -170t-124 -147.5t-176 -104t-224 -39.5q-235 0 -364.5 125.5t-129.5 347.5q0 84 24.5 171.5t76 170.5t123.5 147.5t175 104t222 39.5zM666 815q-64 0 -115 -38.5t-80 -98
t-44 -122.5t-15 -120q0 -211 159 -211q63 0 114 38.5t80 98t44.5 122.5t15.5 120q0 211 -159 211z" />
    <glyph glyph-name="Obreve" unicode="&#x14e;" horiz-adv-x="1550" 
d="M1188 1866h239q-41 -151 -154.5 -233.5t-277.5 -82.5q-146 0 -224.5 66t-78.5 186q0 29 6 64h195q-2 -10 -2 -25q0 -94 123 -94q67 0 112 31t62 88zM930 1491q286 0 446 -170t160 -463q0 -122 -32 -246t-99 -240t-161 -206t-228.5 -144.5t-290.5 -54.5
q-287 0 -446.5 170.5t-159.5 464.5q0 121 32 244.5t99 239.5t161 206t228.5 144.5t290.5 54.5zM909 1184q-70 0 -132 -26.5t-107.5 -71.5t-82.5 -103.5t-59.5 -124.5t-34.5 -131.5t-12 -126.5q0 -155 67.5 -240.5t194.5 -85.5q84 0 156 38t121.5 99t85 138.5t52 156.5
t16.5 152q0 155 -68.5 240.5t-196.5 85.5z" />
    <glyph glyph-name="obreve" unicode="&#x14f;" horiz-adv-x="1236" 
d="M936 1458h240q-41 -150 -154.5 -232.5t-278.5 -82.5q-146 0 -224.5 66t-78.5 186q0 29 6 63h195q-2 -10 -2 -24q0 -46 31.5 -70.5t91.5 -24.5q67 0 112 31t62 88zM680 1073q238 0 368 -125t130 -348q0 -85 -24.5 -172t-76.5 -170t-124 -147.5t-176 -104t-224 -39.5
q-235 0 -364.5 125.5t-129.5 347.5q0 84 24.5 171.5t76 170.5t123.5 147.5t175 104t222 39.5zM666 815q-64 0 -115 -38.5t-80 -98t-44 -122.5t-15 -120q0 -211 159 -211q63 0 114 38.5t80 98t44.5 122.5t15.5 120q0 211 -159 211z" />
    <glyph glyph-name="Ohungarumlaut" unicode="&#x150;" horiz-adv-x="1550" 
d="M840 1556h-267l267 310h352zM1260 1556h-267l267 310h354zM930 1491q286 0 446 -170t160 -463q0 -122 -32 -246t-99 -240t-161 -206t-228.5 -144.5t-290.5 -54.5q-287 0 -446.5 170.5t-159.5 464.5q0 121 32 244.5t99 239.5t161 206t228.5 144.5t290.5 54.5zM909 1184
q-70 0 -132 -26.5t-107.5 -71.5t-82.5 -103.5t-59.5 -124.5t-34.5 -131.5t-12 -126.5q0 -155 67.5 -240.5t194.5 -85.5q84 0 156 38t121.5 99t85 138.5t52 156.5t16.5 152q0 155 -68.5 240.5t-196.5 85.5z" />
    <glyph glyph-name="ohungarumlaut" unicode="&#x151;" horiz-adv-x="1236" 
d="M612 1155h-266l264 303h353zM1034 1155h-266l262 303h354zM680 1073q238 0 368 -125t130 -348q0 -85 -24.5 -172t-76.5 -170t-124 -147.5t-176 -104t-224 -39.5q-235 0 -364.5 125.5t-129.5 347.5q0 84 24.5 171.5t76 170.5t123.5 147.5t175 104t222 39.5zM666 815
q-64 0 -115 -38.5t-80 -98t-44 -122.5t-15 -120q0 -211 159 -211q63 0 114 38.5t80 98t44.5 122.5t15.5 120q0 211 -159 211z" />
    <glyph glyph-name="OE" unicode="&#x152;" horiz-adv-x="2091" 
d="M2140 1161h-678l-67 -276h628l-73 -293h-631l-72 -295h692l-73 -297h-1078q-328 0 -497.5 161.5t-169.5 469.5q0 117 32 231t102.5 222.5t172.5 191t253.5 132.5t332.5 50h1200zM1114 1161h-121q-106 0 -193.5 -32t-144 -83.5t-95 -119.5t-55 -137t-16.5 -138
q0 -175 83 -264.5t247 -89.5h80z" />
    <glyph glyph-name="oe" unicode="&#x153;" horiz-adv-x="1921" 
d="M1843 451h-723q-8 -39 -8 -80q0 -91 41 -133.5t109 -42.5q65 0 116 34.5t70 89.5h346q-63 -153 -211 -252.5t-330 -99.5q-224 0 -338 146q-159 -146 -383 -146q-226 0 -349.5 125t-123.5 348q0 84 24 171.5t75 170.5t121 147.5t171.5 104t217.5 39.5q242 0 362 -151
q161 151 381 151t337.5 -119t117.5 -323q0 -68 -23 -180zM1389 850q-152 0 -222 -207h381q2 16 2 45q0 81 -43.5 121.5t-117.5 40.5zM571 225q63 0 114 38.5t80 98t44.5 122.5t15.5 120q0 211 -159 211q-64 0 -115 -38.5t-80 -98t-44 -122.5t-15 -120q0 -211 159 -211z" />
    <glyph glyph-name="Racute" unicode="&#x154;" horiz-adv-x="1402" 
d="M981 1556h-276l225 310h403zM389 1458h565q235 0 350 -89.5t115 -258.5q0 -95 -39 -182.5t-126 -159.5t-210 -102v-4q67 -28 100.5 -89.5t53.5 -195.5l53 -377h-364l-39 330q-14 113 -57.5 157.5t-145.5 44.5h-133l-131 -532h-354zM676 1184l-96 -383h215
q69 0 121.5 20.5t80.5 54t41 69.5t13 73q0 166 -189 166h-186z" />
    <glyph glyph-name="racute" unicode="&#x155;" horiz-adv-x="849" 
d="M688 1155h-276l223 303h403zM870 1057q50 0 97 -13l-72 -290q-58 10 -102 10q-131 0 -219 -79t-123 -228l-115 -457h-340l258 1040h315l-32 -129h4q146 146 329 146z" />
    <glyph glyph-name="Rcommaaccent" unicode="&#x156;" horiz-adv-x="1402" 
d="M389 1458h565q235 0 350 -89.5t115 -258.5q0 -95 -39 -182.5t-126 -159.5t-210 -102v-4q67 -28 100.5 -89.5t53.5 -195.5l53 -377h-364l-39 330q-14 113 -57.5 157.5t-145.5 44.5h-133l-131 -532h-354zM676 1184l-96 -383h215q69 0 121.5 20.5t80.5 54t41 69.5t13 73
q0 166 -189 166h-186zM682 -340l-201 -223h-129l150 223h-94l57 229h274z" />
    <glyph glyph-name="rcommaaccent" unicode="&#x157;" horiz-adv-x="849" 
d="M870 1057q50 0 97 -13l-72 -290q-58 10 -102 10q-131 0 -219 -79t-123 -228l-115 -457h-340l258 1040h315l-32 -129h4q146 146 329 146zM227 -340l-200 -223h-129l149 223h-94l57 229h275z" />
    <glyph glyph-name="Rcaron" unicode="&#x158;" horiz-adv-x="1402" 
d="M1059 1556h-318l-170 310h254l86 -162l160 162h313zM389 1458h565q235 0 350 -89.5t115 -258.5q0 -95 -39 -182.5t-126 -159.5t-210 -102v-4q67 -28 100.5 -89.5t53.5 -195.5l53 -377h-364l-39 330q-14 113 -57.5 157.5t-145.5 44.5h-133l-131 -532h-354zM676 1184
l-96 -383h215q69 0 121.5 20.5t80.5 54t41 69.5t13 73q0 166 -189 166h-186z" />
    <glyph glyph-name="rcaron" unicode="&#x159;" horiz-adv-x="849" 
d="M768 1155h-319l-166 303h260l82 -155l153 155h307zM870 1057q50 0 97 -13l-72 -290q-58 10 -102 10q-131 0 -219 -79t-123 -228l-115 -457h-340l258 1040h315l-32 -129h4q146 146 329 146z" />
    <glyph glyph-name="Sacute" unicode="&#x15a;" horiz-adv-x="1320" 
d="M942 1556h-276l225 310h403zM834 1491q255 0 387.5 -94t132.5 -279q0 -35 -15 -104h-368q6 27 6 51q0 73 -48.5 112.5t-142.5 39.5q-92 0 -149 -43.5t-57 -106.5q0 -62 53 -98t190 -80q53 -17 91 -31t83.5 -35.5t77 -44t63 -54t50.5 -68t31 -84.5t12 -105
q0 -70 -24.5 -139.5t-77.5 -134.5t-127.5 -115.5t-182.5 -80.5t-235 -30q-266 0 -411.5 103.5t-145.5 296.5q0 61 12 108h377q-8 -31 -8 -63q0 -162 219 -162q107 0 165 49t58 113q0 30 -10 53t-25 39.5t-48 33.5t-62 29t-84 31q-44 15 -71 25t-67 26.5t-65 30t-57.5 34
t-52 40.5t-41 48t-33.5 58t-19.5 68.5t-7.5 81.5q0 67 24 134t75.5 130t124 111t177 77t226.5 29z" />
    <glyph glyph-name="sacute" unicode="&#x15b;" horiz-adv-x="1110" 
d="M766 1155h-277l224 303h403zM649 1073q201 0 308.5 -72t107.5 -215q0 -31 -6 -61h-324q4 24 4 41q0 92 -121 92q-66 0 -97.5 -26t-31.5 -62q0 -37 37 -62t142 -61q43 -15 67 -24t62.5 -26t61.5 -32.5t50.5 -40.5t42 -52t25 -64t10.5 -80q0 -69 -32.5 -132t-94.5 -115
t-164.5 -83t-230.5 -31q-221 0 -339 75.5t-118 225.5q0 28 10 70h342q-6 -24 -6 -43q0 -105 140 -105q67 0 104 26.5t37 70.5q0 49 -42.5 75t-158.5 64q-32 11 -43 15t-40.5 15t-41 18t-36.5 20t-36 24t-29 28t-26 34.5t-18 40t-13.5 48.5t-3.5 56q0 66 31 126.5t90.5 111
t158 80.5t222.5 30z" />
    <glyph glyph-name="Scircumflex" unicode="&#x15c;" horiz-adv-x="1320" 
d="M778 1866h320l170 -310h-256l-84 162l-162 -162h-311zM834 1491q255 0 387.5 -94t132.5 -279q0 -35 -15 -104h-368q6 27 6 51q0 73 -48.5 112.5t-142.5 39.5q-92 0 -149 -43.5t-57 -106.5q0 -62 53 -98t190 -80q53 -17 91 -31t83.5 -35.5t77 -44t63 -54t50.5 -68
t31 -84.5t12 -105q0 -70 -24.5 -139.5t-77.5 -134.5t-127.5 -115.5t-182.5 -80.5t-235 -30q-266 0 -411.5 103.5t-145.5 296.5q0 61 12 108h377q-8 -31 -8 -63q0 -162 219 -162q107 0 165 49t58 113q0 30 -10 53t-25 39.5t-48 33.5t-62 29t-84 31q-44 15 -71 25t-67 26.5
t-65 30t-57.5 34t-52 40.5t-41 48t-33.5 58t-19.5 68.5t-7.5 81.5q0 67 24 134t75.5 130t124 111t177 77t226.5 29z" />
    <glyph glyph-name="scircumflex" unicode="&#x15d;" horiz-adv-x="1110" 
d="M1087 1155h-260l-82 156l-155 -156h-307l317 303h320zM649 1073q201 0 308.5 -72t107.5 -215q0 -31 -6 -61h-324q4 24 4 41q0 92 -121 92q-66 0 -97.5 -26t-31.5 -62q0 -37 37 -62t142 -61q43 -15 67 -24t62.5 -26t61.5 -32.5t50.5 -40.5t42 -52t25 -64t10.5 -80
q0 -69 -32.5 -132t-94.5 -115t-164.5 -83t-230.5 -31q-221 0 -339 75.5t-118 225.5q0 28 10 70h342q-6 -24 -6 -43q0 -105 140 -105q67 0 104 26.5t37 70.5q0 49 -42.5 75t-158.5 64q-32 11 -43 15t-40.5 15t-41 18t-36.5 20t-36 24t-29 28t-26 34.5t-18 40t-13.5 48.5
t-3.5 56q0 66 31 126.5t90.5 111t158 80.5t222.5 30z" />
    <glyph glyph-name="Scedilla" unicode="&#x15e;" horiz-adv-x="1320" 
d="M1339 1014h-368q6 27 6 51q0 73 -48.5 112.5t-142.5 39.5q-92 0 -149 -43.5t-57 -106.5q0 -62 53 -98t190 -80q53 -17 91 -31t83.5 -35.5t77 -44t63 -54t50.5 -68t31 -84.5t12 -105q0 -67 -23 -134.5t-72 -131t-118.5 -113.5t-170.5 -83t-220 -38l-78 -88q18 6 45 6
q70 0 110.5 -38.5t40.5 -106.5q0 -92 -85.5 -153.5t-213.5 -61.5q-136 0 -231 65l61 109q80 -45 164 -45q47 0 76 20t29 52q0 59 -72 59q-37 0 -67 -12l-54 49l131 149q-221 19 -338.5 120.5t-117.5 275.5q0 61 12 108h377q-8 -31 -8 -63q0 -162 219 -162q107 0 165 49
t58 113q0 30 -10 53t-25 39.5t-48 33.5t-62 29t-84 31q-44 15 -71 25t-67 26.5t-65 30t-57.5 34t-52 40.5t-41 48t-33.5 58t-19.5 68.5t-7.5 81.5q0 67 24 134t75.5 130t124 111t177 77t226.5 29q255 0 387.5 -94t132.5 -279q0 -35 -15 -104z" />
    <glyph glyph-name="scedilla" unicode="&#x15f;" horiz-adv-x="1110" 
d="M1059 725h-324q4 24 4 41q0 92 -121 92q-66 0 -97.5 -26t-31.5 -62q0 -37 37 -62t142 -61q43 -15 67 -24t62.5 -26t61.5 -32.5t50.5 -40.5t42 -52t25 -64t10.5 -80q0 -65 -29.5 -126t-85.5 -111.5t-149 -83.5t-209 -38l-78 -90q18 6 45 6q70 0 111 -38.5t41 -106.5
q0 -92 -85.5 -153.5t-213.5 -61.5q-137 0 -232 65l62 109q80 -45 164 -45q47 0 75.5 20t28.5 52q0 59 -72 59q-37 0 -67 -12l-53 49l131 149q-176 15 -269.5 89.5t-93.5 207.5q0 28 10 70h342q-6 -24 -6 -43q0 -105 140 -105q67 0 104 26.5t37 70.5q0 49 -42.5 75t-158.5 64
q-32 11 -43 15t-40.5 15t-41 18t-36.5 20t-36 24t-29 28t-26 34.5t-18 40t-13.5 48.5t-3.5 56q0 66 31 126.5t90.5 111t158 80.5t222.5 30q201 0 308.5 -72t107.5 -215q0 -31 -6 -61z" />
    <glyph glyph-name="Scaron" unicode="&#x160;" horiz-adv-x="1320" 
d="M1020 1556h-318l-170 310h254l86 -162l160 162h314zM834 1491q255 0 387.5 -94t132.5 -279q0 -35 -15 -104h-368q6 27 6 51q0 73 -48.5 112.5t-142.5 39.5q-92 0 -149 -43.5t-57 -106.5q0 -62 53 -98t190 -80q53 -17 91 -31t83.5 -35.5t77 -44t63 -54t50.5 -68t31 -84.5
t12 -105q0 -70 -24.5 -139.5t-77.5 -134.5t-127.5 -115.5t-182.5 -80.5t-235 -30q-266 0 -411.5 103.5t-145.5 296.5q0 61 12 108h377q-8 -31 -8 -63q0 -162 219 -162q107 0 165 49t58 113q0 30 -10 53t-25 39.5t-48 33.5t-62 29t-84 31q-44 15 -71 25t-67 26.5t-65 30
t-57.5 34t-52 40.5t-41 48t-33.5 58t-19.5 68.5t-7.5 81.5q0 67 24 134t75.5 130t124 111t177 77t226.5 29z" />
    <glyph glyph-name="scaron" unicode="&#x161;" horiz-adv-x="1110" 
d="M844 1155h-320l-166 303h260l82 -155l154 155h307zM649 1073q201 0 308.5 -72t107.5 -215q0 -31 -6 -61h-324q4 24 4 41q0 92 -121 92q-66 0 -97.5 -26t-31.5 -62q0 -37 37 -62t142 -61q43 -15 67 -24t62.5 -26t61.5 -32.5t50.5 -40.5t42 -52t25 -64t10.5 -80
q0 -69 -32.5 -132t-94.5 -115t-164.5 -83t-230.5 -31q-221 0 -339 75.5t-118 225.5q0 28 10 70h342q-6 -24 -6 -43q0 -105 140 -105q67 0 104 26.5t37 70.5q0 49 -42.5 75t-158.5 64q-32 11 -43 15t-40.5 15t-41 18t-36.5 20t-36 24t-29 28t-26 34.5t-18 40t-13.5 48.5
t-3.5 56q0 66 31 126.5t90.5 111t158 80.5t222.5 30z" />
    <glyph glyph-name="Tcedilla" unicode="&#x162;" horiz-adv-x="854" 
d="M1423 1157h-444l-289 -1157h-354l287 1157h-445l74 301h1247zM575 -340l-200 -223h-129l149 223h-94l57 229h275z" />
    <glyph glyph-name="tcedilla" unicode="&#x163;" horiz-adv-x="774" 
d="M584 793l-92 -369q-11 -49 -11 -72q0 -54 27 -77t88 -23q13 0 61 6l-65 -258q-56 -16 -133 -16q-172 0 -252 66.5t-80 213.5q0 64 25 156l92 373h-162l61 247h162l70 281h340l-70 -281h197l-62 -247h-196zM158 -111h274l-57 -229l-201 -223h-129l150 223h-95z" />
    <glyph glyph-name="Tcaron" unicode="&#x164;" horiz-adv-x="1284" 
d="M1032 1556h-317l-170 310h254l86 -162l159 162h314zM1423 1157h-444l-289 -1157h-354l287 1157h-445l74 301h1247z" />
    <glyph glyph-name="tcaron" unicode="&#x165;" horiz-adv-x="774" 
d="M1122 1458l-213 -364h-192l139 364h266zM645 1040h197l-62 -247h-196l-92 -369q-11 -49 -11 -72q0 -54 27 -77t88 -23q13 0 61 6l-65 -258q-56 -16 -133 -16q-172 0 -252 66.5t-80 213.5q0 64 25 156l92 373h-162l61 247h162l70 281h340z" />
    <glyph glyph-name="Tbar" unicode="&#x166;" horiz-adv-x="1284" 
d="M979 1157l-88 -354h268l-57 -234h-271l-141 -569h-354l141 569h-270l57 234h271l88 354h-445l74 301h1247l-76 -301h-444z" />
    <glyph glyph-name="tbar" unicode="&#x167;" horiz-adv-x="774" 
d="M586 801l-43 -168h188l-45 -182h-188l-9 -33q-10 -48 -10 -72q0 -54 26 -77t83 -23q31 0 67 8l-63 -254q-56 -16 -133 -16q-171 0 -250.5 66.5t-79.5 213.5q0 59 23 156l8 31h-156l45 182h156l43 168h-166l61 239h164l70 281h338l-70 -281h197l-62 -239h-194z" />
    <glyph glyph-name="Utilde" unicode="&#x168;" horiz-adv-x="1484" 
d="M1272 1866h184q-40 -137 -120.5 -215t-188.5 -78q-46 0 -87.5 13.5t-66 30.5t-55.5 30.5t-59 13.5q-78 0 -109 -88h-186q39 138 119 215.5t190 77.5q59 0 108 -22t87.5 -44t72.5 -22q77 0 111 88zM1575 1458l-244 -979q-61 -247 -233.5 -379.5t-429.5 -132.5
q-250 0 -385.5 126.5t-135.5 357.5q0 87 27 198l203 809h354l-215 -862q-16 -69 -16 -117q0 -98 50.5 -149t147.5 -51q111 0 187 69.5t108 202.5l228 907h354z" />
    <glyph glyph-name="utilde" unicode="&#x169;" 
d="M1051 1458h184q-40 -137 -120.5 -215t-188.5 -78q-58 0 -106.5 22t-87.5 44t-73 22q-74 0 -110 -88h-184q39 138 119 215.5t190 77.5q46 0 87.5 -14t66 -30t55 -30t57.5 -14q77 0 111 88zM389 -27q-151 0 -234 79.5t-83 228.5q0 72 20 151l152 608h340l-150 -598
q-12 -55 -12 -94q0 -110 115 -110q81 0 143.5 66.5t93.5 197.5l135 538h340l-260 -1040h-315l26 109h-4q-139 -136 -307 -136z" />
    <glyph glyph-name="Umacron" unicode="&#x16a;" horiz-adv-x="1484" 
d="M1356 1589h-738l54 211h735zM1575 1458l-244 -979q-61 -247 -233.5 -379.5t-429.5 -132.5q-250 0 -385.5 126.5t-135.5 357.5q0 87 27 198l203 809h354l-215 -862q-16 -69 -16 -117q0 -98 50.5 -149t147.5 -51q111 0 187 69.5t108 202.5l228 907h354z" />
    <glyph glyph-name="umacron" unicode="&#x16b;" 
d="M1143 1206h-737l53 211h735zM389 -27q-151 0 -234 79.5t-83 228.5q0 72 20 151l152 608h340l-150 -598q-12 -55 -12 -94q0 -110 115 -110q81 0 143.5 66.5t93.5 197.5l135 538h340l-260 -1040h-315l26 109h-4q-139 -136 -307 -136z" />
    <glyph glyph-name="Ubreve" unicode="&#x16c;" horiz-adv-x="1484" 
d="M1182 1866h239q-41 -151 -154.5 -233.5t-277.5 -82.5q-146 0 -224.5 66t-78.5 186q0 29 6 64h195q-2 -10 -2 -25q0 -94 123 -94q67 0 112 31t62 88zM1575 1458l-244 -979q-61 -247 -233.5 -379.5t-429.5 -132.5q-250 0 -385.5 126.5t-135.5 357.5q0 87 27 198l203 809
h354l-215 -862q-16 -69 -16 -117q0 -98 50.5 -149t147.5 -51q111 0 187 69.5t108 202.5l228 907h354z" />
    <glyph glyph-name="ubreve" unicode="&#x16d;" 
d="M961 1458h239q-41 -150 -154 -232.5t-278 -82.5q-146 0 -224.5 66t-78.5 186q0 29 6 63h195q-2 -10 -2 -24q0 -95 122 -95q67 0 112.5 31t62.5 88zM389 -27q-151 0 -234 79.5t-83 228.5q0 72 20 151l152 608h340l-150 -598q-12 -55 -12 -94q0 -110 115 -110
q81 0 143.5 66.5t93.5 197.5l135 538h340l-260 -1040h-315l26 109h-4q-139 -136 -307 -136z" />
    <glyph glyph-name="Uring" unicode="&#x16e;" horiz-adv-x="1484" 
d="M1014 2005q97 0 164 -68t67 -165q0 -96 -67.5 -164t-163.5 -68q-97 0 -165.5 68.5t-68.5 163.5q0 97 68.5 165t165.5 68zM1014 1886q-47 0 -81 -33.5t-34 -80.5t34 -81t81 -34t80.5 34t33.5 81t-33.5 80.5t-80.5 33.5zM1575 1458l-244 -979q-61 -247 -233.5 -379.5
t-429.5 -132.5q-250 0 -385.5 126.5t-135.5 357.5q0 87 27 198l203 809h354l-215 -862q-16 -69 -16 -117q0 -98 50.5 -149t147.5 -51q111 0 187 69.5t108 202.5l228 907h354z" />
    <glyph glyph-name="uring" unicode="&#x16f;" 
d="M793 1597q97 0 164 -68t67 -165q0 -96 -67.5 -163.5t-163.5 -67.5q-97 0 -165.5 68t-68.5 163q0 97 68.5 165t165.5 68zM793 1479q-47 0 -81 -34t-34 -81t34 -81t81 -34t80.5 34t33.5 81t-33.5 81t-80.5 34zM389 -27q-151 0 -234 79.5t-83 228.5q0 72 20 151l152 608h340
l-150 -598q-12 -55 -12 -94q0 -110 115 -110q81 0 143.5 66.5t93.5 197.5l135 538h340l-260 -1040h-315l26 109h-4q-139 -136 -307 -136z" />
    <glyph glyph-name="Uhungarumlaut" unicode="&#x170;" horiz-adv-x="1484" 
d="M836 1556h-267l267 310h352zM1255 1556h-266l266 310h355zM1575 1458l-244 -979q-61 -247 -233.5 -379.5t-429.5 -132.5q-250 0 -385.5 126.5t-135.5 357.5q0 87 27 198l203 809h354l-215 -862q-16 -69 -16 -117q0 -98 50.5 -149t147.5 -51q111 0 187 69.5t108 202.5
l228 907h354z" />
    <glyph glyph-name="uhungarumlaut" unicode="&#x171;" 
d="M637 1155h-266l264 303h352zM1059 1155h-266l262 303h354zM389 -27q-151 0 -234 79.5t-83 228.5q0 72 20 151l152 608h340l-150 -598q-12 -55 -12 -94q0 -110 115 -110q81 0 143.5 66.5t93.5 197.5l135 538h340l-260 -1040h-315l26 109h-4q-139 -136 -307 -136z" />
    <glyph glyph-name="Uogonek" unicode="&#x172;" horiz-adv-x="1484" 
d="M1575 1458l-244 -979q-65 -258 -260 -401q-143 -102 -191.5 -156.5t-48.5 -103.5q0 -41 54 -41q33 0 73 14l-45 -176q-77 -23 -172 -23q-229 0 -229 160q0 119 162 211v4h-12q-248 0 -381.5 125t-133.5 359q0 87 27 198l203 809h354l-215 -862q-16 -69 -16 -117
q0 -98 50.5 -149t147.5 -51q111 0 187 69.5t108 202.5l228 907h354z" />
    <glyph glyph-name="uogonek" unicode="&#x173;" 
d="M1249 1040l-260 -1040q-101 -57 -137.5 -99.5t-36.5 -82.5q0 -41 53 -41q34 0 74 14l-45 -176q-77 -23 -172 -23q-229 0 -229 160q0 71 55.5 131t173.5 117h-51l26 109h-4q-139 -136 -307 -136q-151 0 -234 79.5t-83 228.5q0 72 20 151l152 608h340l-150 -598
q-12 -55 -12 -94q0 -110 115 -110q81 0 143.5 66.5t93.5 197.5l135 538h340z" />
    <glyph glyph-name="Wcircumflex" unicode="&#x174;" horiz-adv-x="2029" 
d="M1174 1866h319l170 -310h-256l-84 162l-162 -162h-311zM1589 0h-473l23 584q9 276 37 585h-5q-103 -265 -251 -585l-269 -584h-469l68 1458h330l-35 -526q-18 -301 -56 -610h5q112 278 266 610l246 526h452l-14 -526q-9 -289 -37 -610h4q113 301 248 610l227 526h361z
" />
    <glyph glyph-name="wcircumflex" unicode="&#x175;" horiz-adv-x="1736" 
d="M1413 1155h-260l-82 156l-156 -156h-307l318 303h319zM1368 0h-467l14 391q11 272 25 436h-4q-91 -248 -180 -436l-181 -391h-464l26 1040h318l-29 -383q-19 -283 -39 -442h4q89 231 189 444l180 381h444l-8 -381q-3 -238 -20 -444h4q79 238 168 442l161 383h349z" />
    <glyph glyph-name="Ycircumflex" unicode="&#x176;" horiz-adv-x="1357" 
d="M797 1866h319l170 -310h-256l-84 162l-162 -162h-311zM864 551l-137 -551h-354l137 551l-274 907h358l61 -264q40 -177 68 -367h4q108 184 240 367l192 264h430z" />
    <glyph glyph-name="ycircumflex" unicode="&#x177;" horiz-adv-x="1085" 
d="M1067 1155h-260l-82 156l-156 -156h-307l318 303h319zM1231 1040l-602 -1026q-134 -230 -267.5 -317.5t-334.5 -87.5q-95 0 -170 16l63 258q46 -16 100 -16q94 0 147.5 52.5t53.5 131.5q0 23 -14 152l-98 837h335l21 -348q12 -213 6 -434h4q104 247 203 436l176 346h377z
" />
    <glyph glyph-name="Ydieresis" unicode="&#x178;" horiz-adv-x="1357" 
d="M799 1575h-293l67 268h291zM1262 1575h-291l65 268h293zM864 551l-137 -551h-354l137 551l-274 907h358l61 -264q40 -177 68 -367h4q108 184 240 367l192 264h430z" />
    <glyph glyph-name="Zacute" unicode="&#x179;" horiz-adv-x="1214" 
d="M924 1556h-277l225 310h404zM1290 1130l-864 -831v-4h690l-74 -295h-1130l82 328l864 831v4h-627l74 295h1067z" />
    <glyph glyph-name="zacute" unicode="&#x17a;" horiz-adv-x="1028" 
d="M729 1155h-276l223 303h403zM1014 764l-590 -500v-4h481l-65 -260h-910l70 276l588 500v4h-447l66 260h874z" />
    <glyph glyph-name="Zdotaccent" unicode="&#x17b;" horiz-adv-x="1214" 
d="M1018 1575h-340l67 268h340zM1290 1130l-864 -831v-4h690l-74 -295h-1130l82 328l864 831v4h-627l74 295h1067z" />
    <glyph glyph-name="zdotaccent" unicode="&#x17c;" horiz-adv-x="1028" 
d="M827 1190h-340l68 268h340zM1014 764l-590 -500v-4h481l-65 -260h-910l70 276l588 500v4h-447l66 260h874z" />
    <glyph glyph-name="Zcaron" unicode="&#x17d;" horiz-adv-x="1214" 
d="M1001 1556h-317l-170 310h254l86 -162l160 162h313zM1290 1130l-864 -831v-4h690l-74 -295h-1130l82 328l864 831v4h-627l74 295h1067z" />
    <glyph glyph-name="zcaron" unicode="&#x17e;" horiz-adv-x="1028" 
d="M807 1155h-320l-165 303h260l82 -155l153 155h307zM1014 764l-590 -500v-4h481l-65 -260h-910l70 276l588 500v4h-447l66 260h874z" />
    <glyph glyph-name="longs" unicode="&#x17f;" horiz-adv-x="739" 
d="M786 1477q89 0 168 -23l-57 -229q-20 4 -47 4q-78 0 -124 -37.5t-69 -126.5l-266 -1065h-336l197 793h-166l61 247h166l27 107q41 165 155 247.5t291 82.5z" />
    <glyph glyph-name="Schwa" unicode="&#x18f;" horiz-adv-x="1587" 
d="M963 1491q301 0 458.5 -161.5t157.5 -444.5q0 -101 -24.5 -206t-71 -208t-120.5 -194t-166 -160t-215 -109.5t-261 -40.5q-303 0 -460 159t-157 429q0 163 48 285h1042q6 44 6 84q0 145 -76 212.5t-194 67.5q-111 0 -195 -54.5t-119 -141.5h-407q42 100 114 186.5
t167 153t217.5 105t255.5 38.5zM752 256q124 0 224 80.5t154 238.5h-649q-6 -35 -6 -65q0 -125 76 -189.5t201 -64.5z" />
    <glyph glyph-name="florin" unicode="&#x192;" horiz-adv-x="1286" 
d="M1294 1483q104 0 174 -25l-59 -239q-42 10 -96 10q-82 0 -137.5 -39.5t-102.5 -132.5l-49 -99h217l-61 -241h-273l-344 -684q-114 -226 -250 -326t-327 -100q-96 0 -158 22l61 240q33 -8 88 -8q82 0 136 41.5t112 158.5l330 656h-195l60 241h254l63 127
q103 205 237.5 301.5t319.5 96.5z" />
    <glyph glyph-name="Aringacute" unicode="&#x1fa;" horiz-adv-x="1464" 
d="M1098 2011h-277l226 309h403zM989 1501q-97 0 -165 68.5t-68 165.5t68 165t165 68t165.5 -68t68.5 -165t-68.5 -165.5t-165.5 -68.5zM989 1849q-47 0 -81 -33.5t-34 -80.5t34 -81t81 -34t81 34t34 81t-34 80.5t-81 33.5zM1198 1458l135 -1458h-350l-16 309h-529
l-170 -309h-395l860 1458h465zM952 600l-6 98q-13 288 -16 531h-4q-115 -241 -275 -531l-53 -98h354z" />
    <glyph glyph-name="aringacute" unicode="&#x1fb;" horiz-adv-x="1148" 
d="M831 1626h-276l221 303h406zM729 1583q97 0 165.5 -68t68.5 -165t-68.5 -165.5t-165.5 -68.5t-165 68.5t-68 165.5t68 165t165 68zM729 1464q-47 0 -81 -33.5t-34 -80.5t34 -81t81 -34t81 34t34 81t-34 80.5t-81 33.5zM651 1073q426 0 426 -330q0 -65 -18 -139l-78 -311
q-46 -180 -43 -293h-301q0 60 14 117h-4q-150 -144 -348 -144q-150 0 -230.5 76.5t-80.5 204.5q0 63 23 118.5t76 108t151.5 91.5t236.5 59q170 20 268 26l5 23q10 38 10 61q0 117 -127 117q-65 0 -109 -37.5t-59 -107.5h-326q33 157 167 258.5t347 101.5zM682 412l14 59
q-77 -3 -190 -22q-174 -30 -174 -150q0 -46 30.5 -73t86.5 -27q90 0 149 55.5t84 157.5z" />
    <glyph glyph-name="AEacute" unicode="&#x1fc;" horiz-adv-x="2000" 
d="M1397 1556h-277l226 310h403zM1397 1161l-29 -276h565l-73 -293h-527l-28 -295h544l-73 -297h-828l35 328h-502l-219 -328h-403l1013 1458h1252l-74 -297h-653zM1014 621l59 550h-29l-368 -550h338z" />
    <glyph glyph-name="aeacute" unicode="&#x1fd;" horiz-adv-x="1832" 
d="M1147 1155h-277l224 303h403zM1753 451h-721q-8 -39 -8 -80q0 -92 42.5 -134t113.5 -42q64 0 112 34.5t66 89.5h348q-63 -153 -211 -252.5t-330 -99.5q-257 0 -366 187q-160 -187 -416 -187q-191 0 -292 81t-101 216q0 60 18.5 112.5t64 101.5t115.5 84t180 56t250 21
h142l8 33q8 50 8 63q0 123 -137 123q-68 0 -114.5 -37.5t-61.5 -107.5h-328q38 157 170.5 258.5t343.5 101.5q236 0 336 -115q145 115 338 115q220 0 337.5 -119t117.5 -323q0 -72 -25 -180zM1307 850q-72 0 -132 -50t-96 -157h381q2 16 2 45q0 81 -42 121.5t-113 40.5z
M715 459h-117q-268 0 -268 -162q0 -51 32.5 -80t96.5 -29q98 0 158 59.5t90 178.5z" />
    <glyph glyph-name="Oslashacute" unicode="&#x1fe;" horiz-adv-x="1550" 
d="M1114 1556h-276l225 310h403zM1595 1380l-149 -151q90 -153 90 -371q0 -122 -32 -246t-99 -240t-161 -206t-228.5 -144.5t-290.5 -54.5q-247 0 -401 129l-140 -141l-125 123l150 151q-90 153 -90 373q0 121 32 244.5t99 239.5t161 206t228.5 144.5t290.5 54.5
q246 0 403 -129l140 141zM473 600q0 -57 8 -96l615 618q-72 72 -187 72q-84 0 -157 -38.5t-123 -101t-86 -141t-53 -158.5t-17 -155zM1182 858q0 57 -8 96l-613 -618q69 -72 182 -72q85 0 158.5 39t124 101t86.5 141t53 159t17 154z" />
    <glyph glyph-name="oslashacute" unicode="&#x1ff;" horiz-adv-x="1236" 
d="M856 1155h-276l223 303h403zM1214 1018l-120 -123q84 -119 84 -295q0 -85 -24.5 -172t-76.5 -170t-124 -147.5t-176 -104t-224 -39.5q-180 0 -301 76l-125 -125l-109 107l123 122q-82 121 -82 293q0 84 24.5 171.5t76 170.5t123.5 147.5t175 104t222 39.5q177 0 303 -74
l123 125zM666 829q-69 0 -124.5 -40.5t-87 -102.5t-47.5 -127t-16 -123q0 -31 2 -43l391 393q-46 43 -118 43zM571 211q69 0 124.5 40.5t87 102.5t47.5 127t16 123q0 8 -1 24t-1 23l-393 -395q45 -45 120 -45z" />
    <glyph glyph-name="Scommaaccent" unicode="&#x218;" horiz-adv-x="1320" 
d="M834 1491q255 0 387.5 -94t132.5 -279q0 -35 -15 -104h-368q6 27 6 51q0 73 -48.5 112.5t-142.5 39.5q-92 0 -149 -43.5t-57 -106.5q0 -62 53 -98t190 -80q53 -17 91 -31t83.5 -35.5t77 -44t63 -54t50.5 -68t31 -84.5t12 -105q0 -70 -24.5 -139.5t-77.5 -134.5
t-127.5 -115.5t-182.5 -80.5t-235 -30q-266 0 -411.5 103.5t-145.5 296.5q0 61 12 108h377q-8 -31 -8 -63q0 -162 219 -162q107 0 165 49t58 113q0 30 -10 53t-25 39.5t-48 33.5t-62 29t-84 31q-44 15 -71 25t-67 26.5t-65 30t-57.5 34t-52 40.5t-41 48t-33.5 58t-19.5 68.5
t-7.5 81.5q0 67 24 134t75.5 130t124 111t177 77t226.5 29zM612 -340l-200 -223h-129l149 223h-94l57 229h275z" />
    <glyph glyph-name="scommaaccent" unicode="&#x219;" horiz-adv-x="1110" 
d="M649 1073q201 0 308.5 -72t107.5 -215q0 -31 -6 -61h-324q4 24 4 41q0 92 -121 92q-66 0 -97.5 -26t-31.5 -62q0 -37 37 -62t142 -61q43 -15 67 -24t62.5 -26t61.5 -32.5t50.5 -40.5t42 -52t25 -64t10.5 -80q0 -69 -32.5 -132t-94.5 -115t-164.5 -83t-230.5 -31
q-221 0 -339 75.5t-118 225.5q0 28 10 70h342q-6 -24 -6 -43q0 -105 140 -105q67 0 104 26.5t37 70.5q0 49 -42.5 75t-158.5 64q-32 11 -43 15t-40.5 15t-41 18t-36.5 20t-36 24t-29 28t-26 34.5t-18 40t-13.5 48.5t-3.5 56q0 66 31 126.5t90.5 111t158 80.5t222.5 30z
M502 -340l-201 -223h-129l150 223h-95l58 229h274z" />
    <glyph glyph-name="Tcommaaccent" unicode="&#x21a;" horiz-adv-x="1284" 
d="M1423 1157h-444l-289 -1157h-354l287 1157h-445l74 301h1247zM575 -340l-200 -223h-129l149 223h-94l57 229h275z" />
    <glyph glyph-name="tcommaaccent" unicode="&#x21b;" horiz-adv-x="774" 
d="M584 793l-92 -369q-11 -49 -11 -72q0 -54 27 -77t88 -23q13 0 61 6l-65 -258q-56 -16 -133 -16q-172 0 -252 66.5t-80 213.5q0 64 25 156l92 373h-162l61 247h162l70 281h340l-70 -281h197l-62 -247h-196zM158 -111h274l-57 -229l-201 -223h-129l150 223h-95z" />
    <glyph glyph-name="dotlessj" unicode="&#x237;" horiz-adv-x="591" 
d="M596 1040l-268 -1075q-44 -180 -163 -267t-284 -87q-115 0 -182 22l57 234q18 -6 43 -6q86 0 136.5 47t80.5 168l240 964h340z" />
    <glyph glyph-name="schwa" unicode="&#x259;" horiz-adv-x="1196" 
d="M668 1073q230 0 350.5 -124t120.5 -337q0 -85 -24 -173t-75 -173t-122 -151.5t-173.5 -107t-220.5 -40.5q-227 0 -348 119.5t-121 323.5q0 98 29 186h731q6 41 6 74q0 91 -44.5 133.5t-117.5 42.5q-65 0 -115 -32.5t-69 -84.5h-346q62 148 209.5 246t329.5 98zM532 190
q163 0 236 213h-393q-4 -36 -4 -51q0 -81 43.5 -121.5t117.5 -40.5z" />
    <glyph glyph-name="apostrophemod" unicode="&#x2bc;" horiz-adv-x="544" 
d="M582 1139l-236 -312h-172l201 312h-103l80 319h307z" />
    <glyph glyph-name="circumflex" unicode="&#x2c6;" horiz-adv-x="1009" 
d="M1065 1155h-260l-82 156l-156 -156h-307l318 303h319z" />
    <glyph glyph-name="caron" unicode="&#x2c7;" horiz-adv-x="1009" 
d="M823 1155h-319l-166 303h260l82 -155l154 155h307z" />
    <glyph glyph-name="firsttonechinese" unicode="&#x2c9;" horiz-adv-x="942" 
d="M1012 1206h-738l54 211h735z" />
    <glyph glyph-name="breve" unicode="&#x2d8;" horiz-adv-x="933" 
d="M825 1458h240q-41 -150 -154 -232.5t-278 -82.5q-146 0 -224.5 66t-78.5 186q0 29 6 63h194q-2 -10 -2 -24q0 -46 31.5 -70.5t91.5 -24.5q67 0 112 31t62 88z" />
    <glyph glyph-name="dotaccent" unicode="&#x2d9;" horiz-adv-x="546" 
d="M610 1190h-340l68 268h340z" />
    <glyph glyph-name="ring" unicode="&#x2da;" horiz-adv-x="686" 
d="M555 1597q97 0 164 -68t67 -165q0 -96 -67.5 -163.5t-163.5 -67.5q-97 0 -165 68t-68 163q0 97 68 165t165 68zM555 1479q-47 0 -81 -34t-34 -81t34 -81t81 -34t81 34t34 81t-34 81t-81 34z" />
    <glyph glyph-name="ogonek" unicode="&#x2db;" horiz-adv-x="647" 
d="M145 0h265q-101 -57 -137.5 -99.5t-36.5 -82.5q0 -41 53 -41q33 0 73 14l-45 -176q-77 -23 -172 -23q-229 0 -229 160q0 71 55.5 131t173.5 117z" />
    <glyph glyph-name="tilde" unicode="&#x2dc;" horiz-adv-x="1003" 
d="M950 1458h185q-40 -137 -120.5 -215t-189.5 -78q-46 0 -87 13.5t-65.5 30.5t-55 30.5t-58.5 13.5q-74 0 -110 -88h-185q39 138 119 215.5t190 77.5q59 0 107.5 -22t87 -44t72.5 -22q76 0 110 88z" />
    <glyph glyph-name="hungarumlaut" unicode="&#x2dd;" horiz-adv-x="1167" 
d="M526 1155h-266l264 303h353zM948 1155h-266l262 303h354z" />
    <glyph glyph-name="commaturnedabovecomb" unicode="&#x312;" horiz-adv-x="0" 
d="M502 1401h94l-55 -230h-275l56 230l200 223h129z" />
    <glyph glyph-name="commaaccent" unicode="&#x326;" horiz-adv-x="0" 
d="M162 -340l-201 -223h-129l150 223h-95l58 229h274z" />
    <glyph glyph-name="dbllowlinecomb" unicode="&#x333;" horiz-adv-x="0" 
d="M-199 -274h-1024l43 172h1024zM-279 -596h-1024l43 172h1024z" />
    <glyph glyph-name="numeralgreek" unicode="&#x374;" horiz-adv-x="479" 
d="M403 1040h-213l160 418h301z" />
    <glyph glyph-name="lowernumeralgreek" unicode="&#x375;" horiz-adv-x="479" 
d="M96 -188h-213l160 417h301z" />
    <glyph glyph-name="questiongreek" unicode="&#x37e;" horiz-adv-x="561" 
d="M498 664h-363l94 376h361zM334 0l-279 -365h-200l233 365h-117l92 377h363z" />
    <glyph glyph-name="tonos" unicode="&#x384;" horiz-adv-x="604" 
d="M514 1159h-252l152 340h331z" />
    <glyph glyph-name="dieresistonos" unicode="&#x385;" horiz-adv-x="1181" 
d="M815 1159h-225l145 330h277zM532 1182h-264l64 256h264zM1243 1182h-264l63 256h265z" />
    <glyph glyph-name="Alphatonos" unicode="&#x386;" horiz-adv-x="1464" 
d="M967 309h-529l-170 -309h-395l860 1458h465l135 -1458h-350zM344 1036h-252l172 422h332zM952 600l-6 98q-13 288 -16 531h-4q-115 -241 -275 -531l-53 -98h354z" />
    <glyph glyph-name="anoteleia" unicode="&#x387;" horiz-adv-x="561" 
d="M498 664h-361l92 376h363z" />
    <glyph glyph-name="Epsilontonos" unicode="&#x388;" horiz-adv-x="1298" 
d="M68 1036h-252l172 422h331zM1346 1161h-676l-68 -276h629l-74 -293h-631l-71 -295h692l-74 -297h-1046l362 1458h1030z" />
    <glyph glyph-name="Etatonos" unicode="&#x389;" horiz-adv-x="1558" 
d="M68 1036h-252l172 422h331zM1274 0h-354l149 604h-539l-149 -604h-354l362 1458h354l-137 -553h539l137 553h354z" />
    <glyph glyph-name="Iotatonos" unicode="&#x38a;" horiz-adv-x="665" 
d="M68 1036h-252l172 422h331zM381 0h-354l362 1458h354z" />
    <glyph glyph-name="Omicrontonos" unicode="&#x38c;" horiz-adv-x="1550" 
d="M930 1491q286 0 446 -170t160 -463q0 -122 -32 -246t-99 -240t-161 -206t-228.5 -144.5t-290.5 -54.5q-287 0 -446.5 170.5t-159.5 464.5q0 121 32 244.5t99 239.5t161 206t228.5 144.5t290.5 54.5zM158 1036h-252l172 422h332zM909 1184q-70 0 -132 -26.5t-107.5 -71.5
t-82.5 -103.5t-59.5 -124.5t-34.5 -131.5t-12 -126.5q0 -155 67.5 -240.5t194.5 -85.5q84 0 156 38t121.5 99t85 138.5t52 156.5t16.5 152q0 155 -68.5 240.5t-196.5 85.5z" />
    <glyph glyph-name="Upsilontonos" unicode="&#x38e;" horiz-adv-x="1357" 
d="M-51 1036h-252l172 422h332zM864 551l-137 -551h-354l137 551l-274 907h358l61 -264q40 -177 68 -367h4q108 184 240 367l192 264h430z" />
    <glyph glyph-name="Omegatonos" unicode="&#x38f;" horiz-adv-x="1529" 
d="M942 1491q274 0 431 -125.5t157 -368.5q0 -203 -100.5 -370.5t-301.5 -323.5v-4h289l-74 -299h-628l76 311q170 132 260 285t90 311q0 135 -66.5 206t-181.5 71q-77 0 -143.5 -32t-113 -84t-79.5 -118.5t-49 -136.5t-16 -137q0 -190 108 -365l-76 -311h-596l74 299h297v4
q-75 105 -116.5 210.5t-41.5 231.5q0 103 30.5 206.5t96 201t157.5 172.5t226 120.5t291 45.5zM135 1036h-252l172 422h332z" />
    <glyph glyph-name="iotadieresistonos" unicode="&#x390;" horiz-adv-x="684" 
d="M508 1159h-225l145 330h277zM225 1182h-264l64 256h264zM936 1182h-264l63 256h264zM584 1040l-144 -579q-20 -72 -20 -113q0 -53 27 -77.5t85 -24.5q34 0 62 8l-64 -256q-65 -14 -139 -14q-164 0 -242.5 68.5t-78.5 217.5q0 66 26 176l148 594h340z" />
    <glyph glyph-name="Alpha" unicode="&#x391;" horiz-adv-x="1464" 
d="M967 309h-529l-170 -309h-395l860 1458h465l135 -1458h-350zM952 600l-6 98q-13 288 -16 531h-4q-115 -241 -275 -531l-53 -98h354z" />
    <glyph glyph-name="Beta" unicode="&#x392;" horiz-adv-x="1359" 
d="M389 1458h537q238 0 355.5 -85.5t117.5 -239.5q0 -60 -17 -116t-53.5 -110.5t-104.5 -99t-161 -70.5v-4q203 -53 203 -274q0 -64 -22 -128t-70 -124t-117 -106t-170.5 -73.5t-222.5 -27.5h-637zM668 1184l-78 -316h203q135 0 191 52t56 131q0 68 -46.5 100.5t-145.5 32.5
h-180zM524 608l-82 -332h211q75 0 126.5 15.5t78.5 44t38 60.5t11 73q0 73 -47 106t-153 33h-183z" />
    <glyph glyph-name="Gamma" unicode="&#x393;" horiz-adv-x="1062" 
d="M27 0l362 1458h889l-74 -301h-534l-289 -1157h-354z" />
    <glyph glyph-name="Delta" unicode="&#x394;" horiz-adv-x="1462" 
d="M1331 0h-1458l864 1458h459zM971 289l-23 409q-16 345 -18 531h-4q-140 -290 -273 -531l-225 -409h543z" />
    <glyph glyph-name="Epsilon" unicode="&#x395;" horiz-adv-x="1298" 
d="M1346 1161h-676l-68 -276h629l-74 -293h-631l-71 -295h692l-74 -297h-1046l362 1458h1030z" />
    <glyph glyph-name="Zeta" unicode="&#x396;" horiz-adv-x="1214" 
d="M1290 1130l-864 -831v-4h690l-74 -295h-1130l82 328l864 831v4h-627l74 295h1067z" />
    <glyph glyph-name="Eta" unicode="&#x397;" horiz-adv-x="1558" 
d="M1274 0h-354l149 604h-539l-149 -604h-354l362 1458h354l-137 -553h539l137 553h354z" />
    <glyph glyph-name="Theta" unicode="&#x398;" horiz-adv-x="1550" 
d="M938 1491q285 0 444.5 -165t159.5 -449q0 -125 -32.5 -251.5t-101 -245t-164 -210.5t-232.5 -147.5t-295 -55.5q-286 0 -445 165.5t-159 449.5q0 125 32.5 251.5t100.5 245t163.5 210t232.5 147t296 55.5zM909 1200q-87 0 -161.5 -39t-126 -102.5t-88 -143t-53.5 -160
t-17 -155.5q0 -159 73.5 -250.5t206.5 -91.5q108 0 197 59.5t142 151.5t81.5 193.5t28.5 195.5q0 159 -74.5 250.5t-208.5 91.5zM1053 606h-512l61 248h512z" />
    <glyph glyph-name="Iota" unicode="&#x399;" horiz-adv-x="665" 
d="M381 0h-354l362 1458h354z" />
    <glyph glyph-name="Kappa" unicode="&#x39a;" horiz-adv-x="1413" 
d="M895 750l381 -750h-412l-305 700h-4l-174 -700h-354l362 1458h354l-149 -598h4l543 598h458z" />
    <glyph glyph-name="Lambda" unicode="&#x39b;" horiz-adv-x="1435" 
d="M1305 0h-359l-26 686q-11 315 -11 526h-4q-121 -270 -258 -526l-366 -686h-408l842 1458h471z" />
    <glyph glyph-name="Mu" unicode="&#x39c;" horiz-adv-x="2074" 
d="M1790 0h-334l176 713q64 255 148 538h-4q-126 -258 -273 -530l-385 -721h-420l-28 721q-8 350 -6 530h-5q-62 -297 -122 -538l-177 -713h-333l362 1458h547l27 -647q10 -307 0 -537h4q120 288 254 537l346 647h585z" />
    <glyph glyph-name="Nu" unicode="&#x39d;" horiz-adv-x="1640" 
d="M1358 0h-488l-122 575q-65 300 -113 584h-4q-63 -348 -129 -614l-135 -545h-340l362 1458h485l125 -575q50 -243 111 -584h4q54 316 131 614l135 545h340z" />
    <glyph glyph-name="Xi" unicode="&#x39e;" horiz-adv-x="1384" 
d="M1411 1128h-1132l79 330h1135zM1237 569h-1063l80 330h1065zM1159 0h-1192l82 330h1190z" />
    <glyph glyph-name="Omicron" unicode="&#x39f;" horiz-adv-x="1550" 
d="M930 1491q286 0 446 -170t160 -463q0 -122 -32 -246t-99 -240t-161 -206t-228.5 -144.5t-290.5 -54.5q-287 0 -446.5 170.5t-159.5 464.5q0 121 32 244.5t99 239.5t161 206t228.5 144.5t290.5 54.5zM909 1184q-70 0 -132 -26.5t-107.5 -71.5t-82.5 -103.5t-59.5 -124.5
t-34.5 -131.5t-12 -126.5q0 -155 67.5 -240.5t194.5 -85.5q84 0 156 38t121.5 99t85 138.5t52 156.5t16.5 152q0 155 -68.5 240.5t-196.5 85.5z" />
    <glyph glyph-name="Pi" unicode="&#x3a0;" horiz-adv-x="1536" 
d="M1251 0h-352l287 1157h-516l-289 -1157h-354l362 1458h1225z" />
    <glyph glyph-name="Rho" unicode="&#x3a1;" horiz-adv-x="1339" 
d="M389 1458h481q267 0 401 -114.5t134 -321.5q0 -74 -21 -146.5t-68.5 -143t-116.5 -124t-174 -86.5t-232 -33h-289l-123 -489h-354zM674 1174l-101 -400h213q68 0 119.5 19t79.5 51.5t41.5 68.5t13.5 76q0 185 -209 185h-157z" />
    <glyph glyph-name="Sigma" unicode="&#x3a3;" horiz-adv-x="1214" 
d="M1303 1159h-680v-4l233 -438l-436 -414v-4h698l-76 -299h-1122l84 338l449 434l-215 416l67 270h1071z" />
    <glyph glyph-name="Tau" unicode="&#x3a4;" horiz-adv-x="1284" 
d="M1423 1157h-444l-289 -1157h-354l287 1157h-445l74 301h1247z" />
    <glyph glyph-name="Upsilon" unicode="&#x3a5;" horiz-adv-x="1357" 
d="M864 551l-137 -551h-354l137 551l-274 907h358l61 -264q40 -177 68 -367h4q108 184 240 367l192 264h430z" />
    <glyph glyph-name="Phi" unicode="&#x3a6;" horiz-adv-x="1763" 
d="M1743 815q0 -104 -28 -205t-91 -196.5t-154.5 -167.5t-227.5 -117t-300 -47l-37 -148h-338l39 158q-236 35 -357.5 178t-121.5 383q0 102 28 202.5t90.5 196.5t153 169.5t227.5 119.5t302 48l35 135h340l-39 -148q235 -35 357 -178.5t122 -382.5zM481 672
q0 -248 201 -301l184 739q-80 -8 -146 -39t-109.5 -75t-73.5 -99.5t-43 -111.5t-13 -113zM1188 1098l-184 -738q79 8 144.5 39.5t108 75.5t72 99.5t42.5 111.5t13 111q0 248 -196 301z" />
    <glyph glyph-name="Chi" unicode="&#x3a7;" horiz-adv-x="1370" 
d="M958 733l281 -733h-383l-149 489h-5l-376 -489h-451l651 762l-264 696h375l137 -473h4l355 473h442z" />
    <glyph glyph-name="Psi" unicode="&#x3a8;" horiz-adv-x="1761" 
d="M1921 1458l-139 -557q-74 -287 -263 -430t-513 -149l-80 -322h-348l81 330q-246 28 -368.5 144.5t-122.5 330.5q0 95 31 225l108 428h348l-108 -434q-23 -108 -23 -170q0 -107 49.5 -162.5t157.5 -70.5l209 837h348l-209 -842q157 9 240.5 86t126.5 254l127 502h348z" />
    <glyph glyph-name="Omega" unicode="&#x3a9;" horiz-adv-x="1529" 
d="M942 1491q274 0 431 -125.5t157 -368.5q0 -203 -100.5 -370.5t-301.5 -323.5v-4h289l-74 -299h-628l76 311q170 132 260 285t90 311q0 135 -66.5 206t-181.5 71q-77 0 -143.5 -32t-113 -84t-79.5 -118.5t-49 -136.5t-16 -137q0 -190 108 -365l-76 -311h-596l74 299h297v4
q-75 105 -116.5 210.5t-41.5 231.5q0 103 30.5 206.5t96 201t157.5 172.5t226 120.5t291 45.5z" />
    <glyph glyph-name="Iotadieresis" unicode="&#x3aa;" horiz-adv-x="665" 
d="M518 1608h-293l68 268h291zM981 1608h-291l66 268h293zM381 0h-354l362 1458h354z" />
    <glyph glyph-name="Upsilondieresis" unicode="&#x3ab;" horiz-adv-x="1357" 
d="M799 1575h-293l67 268h291zM1262 1575h-291l65 268h293zM864 551l-137 -551h-354l137 551l-274 907h358l61 -264q40 -177 68 -367h4q108 184 240 367l192 264h430z" />
    <glyph glyph-name="alphatonos" unicode="&#x3ac;" horiz-adv-x="1296" 
d="M870 1159h-252l152 340h332zM623 1069q95 0 166 -45t100 -131h4q14 64 51 147h336q-63 -159 -113 -368l-75 -307q-11 -50 -11 -64q0 -61 66 -61q26 0 53 6l-61 -242q-86 -22 -187 -22q-193 0 -231 139h-4q-66 -72 -148 -111t-163 -39q-169 0 -263 109t-94 301
q0 90 23.5 185t72 185t115 161t161 114t202.5 43zM666 811q-59 0 -109.5 -36.5t-81.5 -94t-48 -123t-17 -127.5q0 -95 36.5 -148t106.5 -53q59 0 109.5 36.5t81.5 94t48 123t17 127.5q0 95 -36.5 148t-106.5 53z" />
    <glyph glyph-name="epsilontonos" unicode="&#x3ad;" horiz-adv-x="1093" 
d="M817 1159h-252l152 340h332zM649 1073q197 0 306.5 -86t109.5 -242q0 -37 -4 -57h-316q3 15 3 29q0 58 -34.5 88.5t-101.5 30.5q-72 0 -110.5 -34t-38.5 -79q0 -43 36 -67.5t101 -24.5h90l-53 -215h-113q-91 0 -137.5 -32.5t-46.5 -80.5q0 -46 37 -72t102 -26
q159 0 189 137h327q-44 -184 -187 -279.5t-366 -95.5q-206 0 -319 75.5t-113 215.5q0 101 64.5 179.5t204.5 117.5v4q-127 58 -127 174q0 62 30.5 121t89.5 108.5t157 80t220 30.5z" />
    <glyph glyph-name="etatonos" unicode="&#x3ae;" horiz-adv-x="1288" 
d="M848 1159h-252l152 340h331zM897 1067q152 0 236 -79t84 -228q0 -70 -21 -152l-246 -987h-340l244 977q12 55 12 94q0 111 -114 111q-81 0 -144 -66.5t-94 -197.5l-135 -539h-340l166 666q10 52 10 75q0 35 -15 49.5t-48 14.5q-30 0 -54 -6l60 241q81 19 153 19
q205 0 226 -166h4q158 174 356 174z" />
    <glyph glyph-name="iotatonos" unicode="&#x3af;" horiz-adv-x="684" 
d="M567 1159h-252l152 340h332zM584 1040l-144 -579q-20 -72 -20 -113q0 -53 27 -77.5t85 -24.5q34 0 62 8l-64 -256q-65 -14 -139 -14q-164 0 -242.5 68.5t-78.5 217.5q0 66 26 176l148 594h340z" />
    <glyph glyph-name="upsilondieresistonos" unicode="&#x3b0;" horiz-adv-x="1255" 
d="M791 1159h-226l146 330h276zM508 1182h-264l63 256h264zM1219 1182h-265l64 256h264zM313 1059q125 0 187.5 -55t62.5 -181q0 -59 -22 -149l-64 -256q-12 -46 -12 -78q0 -115 123 -115q64 0 115.5 46.5t83 117.5t52.5 161t29.5 170t8.5 152q0 85 -13 168h328
q12 -89 12 -184q0 -91 -9.5 -178t-31.5 -176.5t-55.5 -167t-86 -146t-118 -117t-155 -76.5t-195.5 -28q-428 0 -428 355q0 53 20 135l45 182q15 59 15 94q0 68 -62 68q-29 0 -53 -6l62 243q93 21 161 21z" />
    <glyph glyph-name="alpha" unicode="&#x3b1;" horiz-adv-x="1296" 
d="M623 1069q95 0 166 -45t100 -131h4q14 64 51 147h336q-63 -159 -113 -368l-75 -307q-11 -50 -11 -64q0 -61 66 -61q26 0 53 6l-61 -242q-86 -22 -187 -22q-193 0 -231 139h-4q-66 -72 -148 -111t-163 -39q-169 0 -263 109t-94 301q0 90 23.5 185t72 185t115 161t161 114
t202.5 43zM666 811q-59 0 -109.5 -36.5t-81.5 -94t-48 -123t-17 -127.5q0 -95 36.5 -148t106.5 -53q59 0 109.5 36.5t81.5 94t48 123t17 127.5q0 95 -36.5 148t-106.5 53z" />
    <glyph glyph-name="beta" unicode="&#x3b2;" horiz-adv-x="1257" 
d="M823 1491q212 0 330.5 -96t118.5 -265q0 -119 -84.5 -217.5t-251.5 -138.5v-4q110 -33 171.5 -113t61.5 -202q0 -65 -20.5 -130.5t-64 -128t-105 -110.5t-150.5 -77t-194 -29q-204 0 -273 114h-4l-116 -473h-340l354 1423q54 213 202.5 330t364.5 117zM805 1243
q-85 0 -136.5 -57.5t-82.5 -181.5l-142 -570q-8 -27 -8 -59q0 -144 164 -144q58 0 104 22t72.5 57t40.5 73.5t14 75.5q0 182 -217 182h-18l66 264h34q65 0 115 18t79 48t43.5 64.5t14.5 70.5q0 66 -37 101.5t-106 35.5z" />
    <glyph glyph-name="gamma" unicode="&#x3b3;" horiz-adv-x="1173" 
d="M918 1040h368q-101 -291 -256 -524.5t-414 -503.5q-54 -219 -118 -391h-340q74 202 110.5 362t36.5 336q0 84 -6.5 159t-23.5 154t-53.5 126t-88.5 47q-19 0 -47 -4l59 239q67 21 142 21q161 0 230 -126t69 -413q0 -74 -6 -145h4q222 319 334 663z" />
    <glyph glyph-name="delta" unicode="&#x3b4;" horiz-adv-x="1226" 
d="M827 1479q252 0 443 -58l-64 -258q-175 76 -362 76q-119 0 -119 -59q0 -29 38.5 -61t131.5 -91q131 -83 198.5 -191.5t67.5 -258.5q0 -86 -25 -171.5t-77.5 -165t-126 -140.5t-178 -97.5t-226.5 -36.5q-225 0 -354 114t-129 314q0 84 30 168.5t87.5 161.5t153.5 135
t216 80v4q-79 65 -117 122.5t-38 123.5q0 41 12.5 79.5t45 77.5t81.5 67.5t129.5 46.5t181.5 18zM655 739q-59 0 -108.5 -32t-79.5 -82t-47 -106.5t-17 -108.5q0 -92 38.5 -141.5t109.5 -49.5q59 0 109 32.5t80 82.5t46.5 106.5t16.5 108.5q0 92 -38 141t-110 49z" />
    <glyph glyph-name="epsilon" unicode="&#x3b5;" horiz-adv-x="1093" 
d="M649 1073q197 0 306.5 -86t109.5 -242q0 -37 -4 -57h-316q3 15 3 29q0 58 -34.5 88.5t-101.5 30.5q-72 0 -110.5 -34t-38.5 -79q0 -43 36 -67.5t101 -24.5h90l-53 -215h-113q-91 0 -137.5 -32.5t-46.5 -80.5q0 -46 37 -72t102 -26q159 0 189 137h327
q-44 -184 -187 -279.5t-366 -95.5q-206 0 -319 75.5t-113 215.5q0 101 64.5 179.5t204.5 117.5v4q-127 58 -127 174q0 62 30.5 121t89.5 108.5t157 80t220 30.5z" />
    <glyph glyph-name="zeta" unicode="&#x3b6;" horiz-adv-x="1011" 
d="M1212 1458l-59 -244q-189 -89 -334 -189.5t-232.5 -199t-131 -193t-43.5 -181.5q0 -85 51 -131.5t172 -77.5q113 -28 161 -88t48 -158q0 -66 -26.5 -145t-72.5 -148h-282q61 104 61 172q0 47 -34 75t-121 46q-178 37 -256 118t-78 232q0 103 44 214t129 224t220.5 223.5
t308.5 202.5v4h-448l59 244h864z" />
    <glyph glyph-name="eta" unicode="&#x3b7;" horiz-adv-x="1288" 
d="M897 1067q152 0 236 -79t84 -228q0 -70 -21 -152l-246 -987h-340l244 977q12 55 12 94q0 111 -114 111q-81 0 -144 -66.5t-94 -197.5l-135 -539h-340l166 666q10 52 10 75q0 35 -15 49.5t-48 14.5q-30 0 -54 -6l60 241q81 19 153 19q205 0 226 -166h4q158 174 356 174z
" />
    <glyph glyph-name="theta" unicode="&#x3b8;" horiz-adv-x="1306" 
d="M842 1489q234 0 353.5 -132.5t119.5 -385.5q0 -107 -21 -220.5t-60.5 -226t-103.5 -212t-144 -176.5t-188 -122t-229 -45q-234 0 -354.5 132t-120.5 382q0 106 21 219t60.5 226.5t104 214t144.5 178t188 123t230 45.5zM823 1243q-73 0 -139 -59t-110 -144.5t-78 -195.5
h473q12 85 12 149q0 123 -40.5 186.5t-117.5 63.5zM590 215q73 0 138.5 59t109 144t77.5 196h-473q-12 -82 -12 -147q0 -124 41 -188t119 -64z" />
    <glyph glyph-name="iota" unicode="&#x3b9;" horiz-adv-x="684" 
d="M584 1040l-144 -579q-20 -72 -20 -113q0 -53 27 -77.5t85 -24.5q34 0 62 8l-64 -256q-65 -14 -139 -14q-164 0 -242.5 68.5t-78.5 217.5q0 66 26 176l148 594h340z" />
    <glyph glyph-name="kappa" unicode="&#x3ba;" horiz-adv-x="1196" 
d="M1176 1057q58 0 116 -21l-69 -270q-32 8 -60 8q-88 0 -183.5 -53.5t-238.5 -177.5l351 -543h-379l-209 334l-117 -105l-57 -229h-340l260 1040h340l-98 -397h4l204 188q142 128 248.5 177t227.5 49z" />
    <glyph glyph-name="lambda" unicode="&#x3bb;" horiz-adv-x="1259" 
d="M547 1479q120 0 198 -43.5t130 -151.5t75 -291l70 -549q16 -124 45.5 -167.5t81.5 -43.5q9 0 29 5l-60 -242q-46 -14 -110 -14q-74 0 -122 12.5t-85 47t-57 96t-29 157.5q-27 290 -35 391h-2q-128 -208 -250 -395l-186 -291h-385l716 1028q-9 104 -43 146.5t-106 42.5
q-54 0 -103 -17l62 256q68 23 166 23z" />
    <glyph glyph-name="mu" unicode="&#x3bc;" horiz-adv-x="1282" 
d="M1255 1040l-168 -675q-10 -45 -10 -64q0 -61 68 -61q24 0 51 6l-61 -246q-67 -18 -156 -18q-194 0 -215 153h-4q-44 -69 -116.5 -108t-154.5 -39q-95 0 -145 53l-104 -420h-340l354 1419h340l-148 -587q-12 -53 -12 -91q0 -124 121 -124q75 0 133.5 63.5t91.5 192.5
l135 546h340z" />
    <glyph glyph-name="nu" unicode="&#x3bd;" horiz-adv-x="1148" 
d="M289 1059q129 0 187 -78.5t48 -253.5l-24 -483h4q175 263 258 422.5t117 294.5q9 40 12 79h344q0 -48 -12 -100q-43 -170 -150.5 -355.5t-394.5 -584.5h-461l-12 633q-1 98 -20.5 135t-65.5 37q-17 0 -41 -4l61 235q67 23 150 23z" />
    <glyph glyph-name="xi" unicode="&#x3be;" horiz-adv-x="1021" 
d="M1167 1214h-217q-78 0 -140.5 -13.5t-102.5 -35t-66.5 -50.5t-37.5 -58.5t-11 -61.5q0 -65 49.5 -99t140.5 -34h217l-61 -241h-205q-91 0 -160 -20t-106 -53t-54.5 -69.5t-17.5 -75.5q0 -65 46 -99.5t163 -57.5q132 -27 188 -94t56 -179q0 -137 -86 -270h-283
q60 96 60 166q0 51 -40.5 81.5t-140.5 47.5q-173 29 -253 108.5t-80 215.5q0 71 24 139.5t72 131t130.5 110.5t188.5 69v4q-79 20 -121.5 67t-42.5 115q0 81 50.5 153t146.5 99v4h-190l59 244h885z" />
    <glyph glyph-name="omicron" unicode="&#x3bf;" horiz-adv-x="1236" 
d="M680 1073q238 0 368 -125t130 -348q0 -85 -24.5 -172t-76.5 -170t-124 -147.5t-176 -104t-224 -39.5q-235 0 -364.5 125.5t-129.5 347.5q0 84 24.5 171.5t76 170.5t123.5 147.5t175 104t222 39.5zM666 815q-64 0 -115 -38.5t-80 -98t-44 -122.5t-15 -120q0 -211 159 -211
q63 0 114 38.5t80 98t44.5 122.5t15.5 120q0 211 -159 211z" />
    <glyph glyph-name="pi" unicode="&#x3c0;" horiz-adv-x="1396" 
d="M1430 793h-189l-96 -387q-15 -62 -15 -82q0 -49 23.5 -68.5t71.5 -19.5q29 0 39 2l-62 -240q-56 -16 -137 -16q-149 0 -219 57t-70 190q0 64 25 162l100 402h-297l-196 -793h-340l196 793h-180l61 247h1346z" />
    <glyph glyph-name="rho" unicode="&#x3c1;" horiz-adv-x="1253" 
d="M702 1073q235 0 362.5 -125t127.5 -348q0 -84 -23 -170.5t-71 -168.5t-115.5 -146t-164 -103t-208.5 -39q-174 0 -258 125h-4l-119 -477h-340l242 969q24 94 70.5 178t116 153.5t169 110.5t215.5 41zM680 815q-63 0 -114 -38t-80 -96.5t-44.5 -121t-15.5 -119.5
q0 -211 160 -211q64 0 115 38t80 96.5t44 121t15 119.5q0 211 -160 211z" />
    <glyph glyph-name="sigmafinal" unicode="&#x3c2;" horiz-adv-x="1167" 
d="M690 1073q229 0 343 -104t114 -291q0 -49 -8 -90h-351q7 31 7 53q0 82 -36.5 129t-107.5 47q-72 0 -127 -54.5t-79.5 -123t-24.5 -131.5q0 -101 48 -156.5t153 -77.5q147 -33 208.5 -97t61.5 -171q0 -159 -100 -303h-283q28 41 44.5 90t16.5 82q0 56 -37.5 87t-134.5 48
q-348 56 -348 406q0 91 24.5 182t77 177t126 152t181 106t232.5 40z" />
    <glyph glyph-name="sigma" unicode="&#x3c3;" horiz-adv-x="1294" 
d="M1343 797h-282v-4q88 -98 88 -248q0 -78 -23.5 -158t-72.5 -155.5t-118 -134.5t-168 -94.5t-214 -35.5q-236 0 -367 123.5t-131 341.5q0 81 24 165t75.5 164t122.5 142t174 99.5t221 37.5h733zM659 791q-63 0 -113.5 -37t-79 -94t-43.5 -117t-15 -115q0 -203 161 -203
q51 0 94.5 24.5t71.5 63t48 87.5t29 96t9 90q0 98 -40.5 151.5t-121.5 53.5z" />
    <glyph glyph-name="tau" unicode="&#x3c4;" horiz-adv-x="987" 
d="M1040 797h-319l-96 -391q-15 -62 -15 -82q0 -49 23.5 -68.5t71.5 -19.5q28 0 38 2l-61 -240q-56 -16 -137 -16q-149 0 -219 57t-70 190q0 64 25 162l100 406h-295l59 243h957z" />
    <glyph glyph-name="upsilon" unicode="&#x3c5;" horiz-adv-x="1255" 
d="M313 1059q125 0 187.5 -55t62.5 -181q0 -59 -22 -149l-64 -256q-12 -46 -12 -78q0 -115 123 -115q64 0 115.5 46.5t83 117.5t52.5 161t29.5 170t8.5 152q0 85 -13 168h328q12 -89 12 -184q0 -91 -9.5 -178t-31.5 -176.5t-55.5 -167t-86 -146t-118 -117t-155 -76.5
t-195.5 -28q-428 0 -428 355q0 53 20 135l45 182q15 59 15 94q0 68 -62 68q-29 0 -53 -6l62 243q93 21 161 21z" />
    <glyph glyph-name="phi" unicode="&#x3c6;" horiz-adv-x="1662" 
d="M1202 1356l-72 -289q226 -28 350 -152.5t124 -328.5q0 -85 -26.5 -170.5t-84 -166.5t-139.5 -143.5t-203 -100.5t-264 -38h-31l-86 -346h-324l89 352q-226 26 -351 152t-125 330q0 85 26.5 170.5t84 166.5t139.5 143t202 100t261 38h37l70 283h323zM401 446
q0 -101 49 -160.5t144 -72.5l154 618h-19q-83 -2 -148.5 -38.5t-103.5 -94.5t-57 -122.5t-19 -129.5zM915 209h17q83 2 149 40t104 96.5t57.5 123t19.5 127.5q0 100 -49 159t-144 72z" />
    <glyph glyph-name="chi" unicode="&#x3c7;" horiz-adv-x="1263" 
d="M305 1069q137 0 200.5 -60.5t96.5 -215.5l41 -191h4l344 438h404l-615 -733l70 -284q23 -98 60.5 -132t101.5 -34q21 0 61 4l-59 -240q-76 -18 -154 -18q-132 0 -195 60.5t-100 215.5l-39 162h-4l-356 -420h-404l633 705l-76 315q-25 103 -60.5 138.5t-102.5 35.5
q-39 0 -70 -8l59 240q68 22 160 22z" />
    <glyph glyph-name="psi" unicode="&#x3c8;" horiz-adv-x="1732" 
d="M1688 909q0 -110 -11.5 -207.5t-38 -192t-67.5 -172.5t-103 -144.5t-141 -112.5t-185.5 -72.5t-232.5 -27.5l-90 -359h-340l90 365q-230 24 -347.5 128t-117.5 300q0 65 27 168l113 458h340l-121 -487q-12 -55 -12 -98q0 -92 46 -143.5t138 -69.5l276 1114h340
l-278 -1120q381 37 381 677q0 52 -11 127h336q9 -61 9 -131z" />
    <glyph glyph-name="omega" unicode="&#x3c9;" horiz-adv-x="1746" 
d="M1278 1040h358q41 -140 41 -299q0 -89 -14 -178t-41.5 -176.5t-74 -162t-106.5 -132t-143.5 -90.5t-181.5 -33q-257 0 -305 217h-4q-108 -217 -383 -217q-363 0 -363 344q0 148 75.5 354t197.5 373h366q-122 -158 -201 -354t-79 -324q0 -139 104 -139q105 0 142 148
l106 428h340l-98 -398q-10 -36 -10 -73q0 -105 92 -105q51 0 92 38.5t66 97t41.5 132t23 138t6.5 121.5q0 154 -47 290z" />
    <glyph glyph-name="iotadieresis" unicode="&#x3ca;" horiz-adv-x="684" 
d="M367 1190h-293l67 268h291zM829 1190h-290l65 268h293zM584 1040l-144 -579q-20 -72 -20 -113q0 -53 27 -77.5t85 -24.5q34 0 62 8l-64 -256q-65 -14 -139 -14q-164 0 -242.5 68.5t-78.5 217.5q0 66 26 176l148 594h340z" />
    <glyph glyph-name="upsilondieresis" unicode="&#x3cb;" horiz-adv-x="1255" 
d="M647 1190h-293l68 268h291zM1110 1190h-291l66 268h293zM313 1059q125 0 187.5 -55t62.5 -181q0 -59 -22 -149l-64 -256q-12 -46 -12 -78q0 -115 123 -115q64 0 115.5 46.5t83 117.5t52.5 161t29.5 170t8.5 152q0 85 -13 168h328q12 -89 12 -184q0 -91 -9.5 -178
t-31.5 -176.5t-55.5 -167t-86 -146t-118 -117t-155 -76.5t-195.5 -28q-428 0 -428 355q0 53 20 135l45 182q15 59 15 94q0 68 -62 68q-29 0 -53 -6l62 243q93 21 161 21z" />
    <glyph glyph-name="omicrontonos" unicode="&#x3cc;" horiz-adv-x="1236" 
d="M860 1159h-252l152 340h332zM680 1073q238 0 368 -125t130 -348q0 -85 -24.5 -172t-76.5 -170t-124 -147.5t-176 -104t-224 -39.5q-235 0 -364.5 125.5t-129.5 347.5q0 84 24.5 171.5t76 170.5t123.5 147.5t175 104t222 39.5zM666 815q-64 0 -115 -38.5t-80 -98
t-44 -122.5t-15 -120q0 -211 159 -211q63 0 114 38.5t80 98t44.5 122.5t15.5 120q0 211 -159 211z" />
    <glyph glyph-name="upsilontonos" unicode="&#x3cd;" horiz-adv-x="1255" 
d="M850 1159h-252l152 340h331zM313 1059q125 0 187.5 -55t62.5 -181q0 -59 -22 -149l-64 -256q-12 -46 -12 -78q0 -115 123 -115q64 0 115.5 46.5t83 117.5t52.5 161t29.5 170t8.5 152q0 85 -13 168h328q12 -89 12 -184q0 -91 -9.5 -178t-31.5 -176.5t-55.5 -167t-86 -146
t-118 -117t-155 -76.5t-195.5 -28q-428 0 -428 355q0 53 20 135l45 182q15 59 15 94q0 68 -62 68q-29 0 -53 -6l62 243q93 21 161 21z" />
    <glyph glyph-name="omegatonos" unicode="&#x3ce;" horiz-adv-x="1746" 
d="M1157 1159h-252l152 340h332zM1278 1040h358q41 -140 41 -299q0 -89 -14 -178t-41.5 -176.5t-74 -162t-106.5 -132t-143.5 -90.5t-181.5 -33q-257 0 -305 217h-4q-108 -217 -383 -217q-363 0 -363 344q0 148 75.5 354t197.5 373h366q-122 -158 -201 -354t-79 -324
q0 -139 104 -139q105 0 142 148l106 428h340l-98 -398q-10 -36 -10 -73q0 -105 92 -105q51 0 92 38.5t66 97t41.5 132t23 138t6.5 121.5q0 154 -47 290z" />
    <glyph glyph-name="Iegravecy" unicode="&#x400;" horiz-adv-x="1298" 
d="M1106 1556h-248l-225 310h377zM1346 1161h-676l-68 -276h629l-74 -293h-631l-71 -295h692l-74 -297h-1046l362 1458h1030z" />
    <glyph glyph-name="Iocy" unicode="&#x401;" horiz-adv-x="1298" 
d="M829 1575h-292l67 268h291zM1292 1575h-291l66 268h293zM1346 1161h-676l-68 -276h629l-74 -293h-631l-71 -295h692l-74 -297h-1046l362 1458h1030z" />
    <glyph glyph-name="Djecy" unicode="&#x402;" horiz-adv-x="1677" 
d="M1423 1157h-444l-66 -260q120 49 267 49q212 0 324 -110t112 -301q0 -83 -22 -163t-70 -152.5t-117 -127t-169 -87t-220 -32.5q-117 0 -205 31l68 275q59 -19 133 -19q66 0 116 20.5t77 54.5t40 70.5t13 75.5q0 176 -207 176q-115 0 -209 -43l-154 -614h-354l287 1157
h-445l74 301h1247z" />
    <glyph glyph-name="Gjecy" unicode="&#x403;" horiz-adv-x="1062" 
d="M918 1556h-277l225 310h404zM27 0l362 1458h889l-74 -301h-534l-289 -1157h-354z" />
    <glyph glyph-name="Ecy" unicode="&#x404;" horiz-adv-x="1488" 
d="M1503 911h-366q4 32 4 56q0 104 -60 163.5t-166 59.5q-131 0 -229.5 -89t-153.5 -229h467l-71 -286l-453 -2q0 -144 64 -230t186 -86q103 0 190 61t129 167h371q-79 -251 -270.5 -390t-450.5 -139q-277 0 -430 158.5t-153 433.5q0 105 23 212.5t67 212t115.5 196
t161.5 161.5t212 110t260 40q257 0 408 -132.5t151 -359.5q0 -45 -6 -88z" />
    <glyph glyph-name="Dzecy" unicode="&#x405;" horiz-adv-x="1320" 
d="M834 1491q255 0 387.5 -94t132.5 -279q0 -35 -15 -104h-368q6 27 6 51q0 73 -48.5 112.5t-142.5 39.5q-92 0 -149 -43.5t-57 -106.5q0 -62 53 -98t190 -80q53 -17 91 -31t83.5 -35.5t77 -44t63 -54t50.5 -68t31 -84.5t12 -105q0 -70 -24.5 -139.5t-77.5 -134.5
t-127.5 -115.5t-182.5 -80.5t-235 -30q-266 0 -411.5 103.5t-145.5 296.5q0 61 12 108h377q-8 -31 -8 -63q0 -162 219 -162q107 0 165 49t58 113q0 30 -10 53t-25 39.5t-48 33.5t-62 29t-84 31q-44 15 -71 25t-67 26.5t-65 30t-57.5 34t-52 40.5t-41 48t-33.5 58t-19.5 68.5
t-7.5 81.5q0 67 24 134t75.5 130t124 111t177 77t226.5 29z" />
    <glyph glyph-name="Icy" unicode="&#x406;" horiz-adv-x="665" 
d="M381 0h-354l362 1458h354z" />
    <glyph glyph-name="Yicy" unicode="&#x407;" horiz-adv-x="665" 
d="M510 1575h-293l68 268h290zM973 1575h-291l66 268h292zM381 0h-354l362 1458h354z" />
    <glyph glyph-name="Jecy" unicode="&#x408;" horiz-adv-x="839" 
d="M928 1458l-250 -1001q-60 -244 -205.5 -358.5t-394.5 -114.5q-102 0 -176 22l73 291q42 -10 82 -10q123 0 189.5 62t109.5 235l217 874h355z" />
    <glyph glyph-name="Ljecy" unicode="&#x409;" horiz-adv-x="2199" 
d="M1483 969h127q267 0 400.5 -114.5t133.5 -322.5q0 -73 -21 -145t-68.5 -142.5t-116.5 -124.5t-174 -87t-232 -33h-645l287 1157h-357q-61 -214 -116 -377.5t-107 -288t-105.5 -211.5t-105 -145t-111.5 -90.5t-120 -45.5t-136 -13q-74 0 -120 18l69 283q12 -4 35 -4
q48 0 84.5 16.5t77.5 65t78.5 127.5t86.5 214t103 314.5t125 437.5h1049zM1413 684l-100 -399h213q129 0 191.5 65t62.5 152q0 182 -209 182h-158z" />
    <glyph glyph-name="Njecy" unicode="&#x40a;" horiz-adv-x="2232" 
d="M1513 969h127q266 0 399.5 -114.5t133.5 -322.5q0 -73 -21 -145t-68.5 -142.5t-116 -124.5t-173.5 -87t-231 -33h-643l149 604h-539l-149 -604h-354l362 1458h354l-137 -553h539l137 553h354zM1343 285h213q129 0 191.5 65t62.5 152q0 182 -208 182h-158z" />
    <glyph glyph-name="Tshecy" unicode="&#x40b;" horiz-adv-x="1677" 
d="M1423 1157h-444l-74 -291q129 35 262 35q215 0 323.5 -94.5t108.5 -276.5q0 -63 -24 -168l-90 -362h-355l87 354q10 45 10 72q0 85 -49.5 129.5t-145.5 44.5q-104 0 -201 -33l-141 -567h-354l287 1157h-445l74 301h1247z" />
    <glyph glyph-name="Kjecy" unicode="&#x40c;" horiz-adv-x="1413" 
d="M1044 1556h-276l225 310h404zM895 750l381 -750h-412l-305 700h-4l-174 -700h-354l362 1458h354l-149 -598h4l543 598h458z" />
    <glyph glyph-name="Iigravecy" unicode="&#x40d;" horiz-adv-x="1656" 
d="M1284 1556h-248l-225 310h377zM1370 0h-340l135 545q84 325 170 614h-4q-251 -409 -370 -584l-390 -575h-546l364 1458h340l-137 -545q-65 -260 -170 -614h4q219 357 371 584l391 575h547z" />
    <glyph glyph-name="Ushortcy" unicode="&#x40e;" horiz-adv-x="1431" 
d="M1137 1866h239q-41 -151 -154.5 -233.5t-277.5 -82.5q-146 0 -224.5 66t-78.5 186q0 29 6 64h195q-2 -10 -2 -25q0 -94 123 -94q67 0 112 31t62 88zM1663 1458l-854 -1167q-125 -170 -251.5 -240.5t-274.5 -70.5q-105 0 -177 20l72 289q30 -10 76 -10q92 0 151.5 53
t59.5 137q0 56 -35 199l-194 790h356l72 -391q40 -209 65 -389h4q112 185 252 389l264 391h414z" />
    <glyph glyph-name="Dzhecy" unicode="&#x40f;" horiz-adv-x="1538" 
d="M1253 0h-450l-82 -328h-340l82 328h-436l362 1458h356l-288 -1157h514l289 1157h356z" />
    <glyph glyph-name="Acy" unicode="&#x410;" horiz-adv-x="1464" 
d="M967 309h-529l-170 -309h-395l860 1458h465l135 -1458h-350zM952 600l-6 98q-13 288 -16 531h-4q-115 -241 -275 -531l-53 -98h354z" />
    <glyph glyph-name="Becy" unicode="&#x411;" horiz-adv-x="1384" 
d="M1380 1171h-714l-66 -264h195q236 0 365.5 -111t129.5 -309q0 -69 -21.5 -137t-67.5 -131.5t-111.5 -112t-160.5 -77.5t-208 -29h-694l362 1458h1061zM532 635l-90 -361h240q129 0 186.5 57.5t57.5 141.5q0 162 -207 162h-187z" />
    <glyph glyph-name="Vecy" unicode="&#x412;" horiz-adv-x="1359" 
d="M389 1458h537q238 0 355.5 -85.5t117.5 -239.5q0 -60 -17 -116t-53.5 -110.5t-104.5 -99t-161 -70.5v-4q203 -53 203 -274q0 -64 -22 -128t-70 -124t-117 -106t-170.5 -73.5t-222.5 -27.5h-637zM668 1184l-78 -316h203q135 0 191 52t56 131q0 68 -46.5 100.5t-145.5 32.5
h-180zM524 608l-82 -332h211q75 0 126.5 15.5t78.5 44t38 60.5t11 73q0 73 -47 106t-153 33h-183z" />
    <glyph glyph-name="Gecy" unicode="&#x413;" horiz-adv-x="1062" 
d="M27 0l362 1458h889l-74 -301h-534l-289 -1157h-354z" />
    <glyph glyph-name="Decy" unicode="&#x414;" horiz-adv-x="1652" 
d="M1397 301h178l-156 -629h-340l82 328h-919l-82 -328h-340l157 629h179q93 128 189.5 382t236.5 775h1101zM1255 1157h-413q-161 -571 -320 -856h518z" />
    <glyph glyph-name="Iecy" unicode="&#x415;" horiz-adv-x="1298" 
d="M1346 1161h-676l-68 -276h629l-74 -293h-631l-71 -295h692l-74 -297h-1046l362 1458h1030z" />
    <glyph glyph-name="Zhecy" unicode="&#x416;" horiz-adv-x="1951" 
d="M1532 743l283 -743h-396l-213 733h-4l-180 -733h-348l172 694h-4l-520 -694h-443l662 782l-265 676h386l200 -682h4l170 682h348l-161 -645h4l483 645h432z" />
    <glyph glyph-name="Zecy" unicode="&#x417;" horiz-adv-x="1335" 
d="M848 1489q253 0 392.5 -102t139.5 -281q0 -126 -85.5 -224.5t-272.5 -152.5v-4q215 -82 215 -291q0 -84 -40 -165.5t-115.5 -150t-201 -111t-280.5 -42.5q-280 0 -428.5 105.5t-148.5 306.5q0 53 14 108h377q-11 -53 -11 -77q0 -154 209 -154q65 0 116.5 18t80.5 47
t44 60.5t15 62.5q0 72 -60 110t-177 38h-80l70 278h75q150 0 231 58t81 137q0 65 -49.5 102t-139.5 37q-208 0 -264 -221h-375q53 239 229.5 373.5t438.5 134.5z" />
    <glyph glyph-name="Iicy" unicode="&#x418;" horiz-adv-x="1656" 
d="M1370 0h-340l135 545q84 325 170 614h-4q-251 -409 -370 -584l-390 -575h-546l364 1458h340l-137 -545q-65 -260 -170 -614h4q219 357 371 584l391 575h547z" />
    <glyph glyph-name="Iishortcy" unicode="&#x419;" horiz-adv-x="1656" 
d="M1290 1866h240q-41 -151 -154.5 -233.5t-277.5 -82.5q-146 0 -224.5 66t-78.5 186q0 29 6 64h194q-2 -10 -2 -25q0 -94 123 -94q67 0 112 31t62 88zM1370 0h-340l135 545q84 325 170 614h-4q-251 -409 -370 -584l-390 -575h-546l364 1458h340l-137 -545
q-65 -260 -170 -614h4q219 357 371 584l391 575h547z" />
    <glyph glyph-name="Kacy" unicode="&#x41a;" horiz-adv-x="1413" 
d="M895 750l381 -750h-412l-305 700h-4l-174 -700h-354l362 1458h354l-149 -598h4l543 598h458z" />
    <glyph glyph-name="Elcy" unicode="&#x41b;" horiz-adv-x="1525" 
d="M1241 0h-354l287 1157h-357q-61 -214 -116 -377.5t-107 -288t-105.5 -211.5t-105 -145t-111.5 -90.5t-120 -45.5t-136 -13q-74 0 -120 18l69 283q12 -4 35 -4q48 0 84.5 16.5t77.5 65t78.5 127.5t86.5 214t103 314.5t125 437.5h1049z" />
    <glyph glyph-name="Emcy" unicode="&#x41c;" horiz-adv-x="2074" 
d="M1790 0h-334l176 713q64 255 148 538h-4q-126 -258 -273 -530l-385 -721h-420l-28 721q-8 350 -6 530h-5q-62 -297 -122 -538l-177 -713h-333l362 1458h547l27 -647q10 -307 0 -537h4q120 288 254 537l346 647h585z" />
    <glyph glyph-name="Ency" unicode="&#x41d;" horiz-adv-x="1558" 
d="M1274 0h-354l149 604h-539l-149 -604h-354l362 1458h354l-137 -553h539l137 553h354z" />
    <glyph glyph-name="Ocy" unicode="&#x41e;" horiz-adv-x="1550" 
d="M930 1491q286 0 446 -170t160 -463q0 -122 -32 -246t-99 -240t-161 -206t-228.5 -144.5t-290.5 -54.5q-287 0 -446.5 170.5t-159.5 464.5q0 121 32 244.5t99 239.5t161 206t228.5 144.5t290.5 54.5zM909 1184q-70 0 -132 -26.5t-107.5 -71.5t-82.5 -103.5t-59.5 -124.5
t-34.5 -131.5t-12 -126.5q0 -155 67.5 -240.5t194.5 -85.5q84 0 156 38t121.5 99t85 138.5t52 156.5t16.5 152q0 155 -68.5 240.5t-196.5 85.5z" />
    <glyph glyph-name="Pecy" unicode="&#x41f;" horiz-adv-x="1536" 
d="M1251 0h-352l287 1157h-516l-289 -1157h-354l362 1458h1225z" />
    <glyph glyph-name="Ercy" unicode="&#x420;" horiz-adv-x="1339" 
d="M389 1458h481q267 0 401 -114.5t134 -321.5q0 -74 -21 -146.5t-68.5 -143t-116.5 -124t-174 -86.5t-232 -33h-289l-123 -489h-354zM674 1174l-101 -400h213q68 0 119.5 19t79.5 51.5t41.5 68.5t13.5 76q0 185 -209 185h-157z" />
    <glyph glyph-name="Escy" unicode="&#x421;" horiz-adv-x="1464" 
d="M938 1491q251 0 398 -134t147 -364q0 -59 -6 -90h-367q4 36 4 58q0 105 -56 164t-155 59q-81 0 -151.5 -38.5t-119.5 -101t-84.5 -141.5t-52 -160.5t-16.5 -158.5q0 -141 60.5 -225.5t175.5 -84.5q100 0 183 61.5t124 168.5h373q-79 -255 -268 -396t-445 -141
q-271 0 -421 158.5t-150 433.5q0 127 31 255.5t98.5 250.5t162.5 216.5t233.5 152t301.5 57.5z" />
    <glyph glyph-name="Tecy" unicode="&#x422;" horiz-adv-x="1284" 
d="M1423 1157h-444l-289 -1157h-354l287 1157h-445l74 301h1247z" />
    <glyph glyph-name="Ucy" unicode="&#x423;" horiz-adv-x="1431" 
d="M1663 1458l-854 -1167q-125 -170 -251.5 -240.5t-274.5 -70.5q-105 0 -177 20l72 289q30 -10 76 -10q92 0 151.5 53t59.5 137q0 56 -35 199l-194 790h356l72 -391q40 -209 65 -389h4q112 185 252 389l264 391h414z" />
    <glyph glyph-name="Efcy" unicode="&#x424;" horiz-adv-x="1802" 
d="M1780 797q0 -101 -28 -197.5t-91.5 -187.5t-156 -159.5t-231 -110.5t-306.5 -44l-39 -151h-342l41 162q-247 35 -374.5 176t-127.5 379q0 98 28 193t91.5 186t155.5 160t231 112t307 45l39 151h342l-41 -161q246 -35 374 -176.5t128 -376.5zM483 678q0 -241 222 -291
l169 692q-101 -10 -179 -50t-122.5 -98t-67 -122.5t-22.5 -130.5zM1202 1071l-172 -692q101 10 179 50.5t122.5 99t67 122.5t22.5 129q0 119 -56 192.5t-163 98.5z" />
    <glyph glyph-name="Hacy" unicode="&#x425;" horiz-adv-x="1370" 
d="M958 733l281 -733h-383l-149 489h-5l-376 -489h-451l651 762l-264 696h375l137 -473h4l355 473h442z" />
    <glyph glyph-name="Tsecy" unicode="&#x426;" horiz-adv-x="1595" 
d="M1327 301h180l-155 -629h-340l82 328h-1067l362 1458h356l-288 -1157h514l289 1157h356z" />
    <glyph glyph-name="Checy" unicode="&#x427;" horiz-adv-x="1427" 
d="M1143 0h-355l130 520q-150 -33 -293 -33q-229 0 -345 94.5t-116 276.5q0 61 24 166l109 434h354l-104 -426q-10 -31 -10 -71q0 -85 56.5 -129t166.5 -44q114 0 231 31l160 639h354z" />
    <glyph glyph-name="Shacy" unicode="&#x428;" horiz-adv-x="2138" 
d="M1853 0h-1826l362 1458h356l-288 -1157h379l288 1157h357l-289 -1157h381l289 1157h354z" />
    <glyph glyph-name="Shchacy" unicode="&#x429;" horiz-adv-x="2185" 
d="M1927 301h180l-155 -629h-340l82 328h-1667l362 1458h356l-288 -1157h379l288 1157h357l-289 -1157h381l289 1157h354z" />
    <glyph glyph-name="Hardsigncy" unicode="&#x42a;" horiz-adv-x="1587" 
d="M868 969h127q267 0 400 -114.5t133 -322.5q0 -73 -21 -145t-68.5 -142.5t-116 -124.5t-173.5 -87t-231 -33h-644l287 1157h-383l74 301h739zM799 684l-101 -399h213q129 0 191.5 65t62.5 152q0 182 -209 182h-157z" />
    <glyph glyph-name="Yerucy" unicode="&#x42b;" horiz-adv-x="2002" 
d="M621 969h127q267 0 399.5 -114.5t132.5 -322.5q0 -73 -20.5 -145t-68 -142.5t-116 -124.5t-173.5 -87t-232 -33h-643l362 1458h354zM1720 0h-354l363 1458h354zM551 684l-100 -399h213q129 0 191.5 65t62.5 152q0 182 -209 182h-158z" />
    <glyph glyph-name="Softsigncy" unicode="&#x42c;" horiz-adv-x="1339" 
d="M621 969h127q267 0 399.5 -114.5t132.5 -322.5q0 -73 -20.5 -145t-68 -142.5t-116 -124.5t-173.5 -87t-232 -33h-643l362 1458h354zM551 684l-100 -399h213q129 0 191.5 65t62.5 152q0 182 -209 182h-158z" />
    <glyph glyph-name="Ereversedcy" unicode="&#x42d;" horiz-adv-x="1486" 
d="M899 1491q276 0 429 -159t153 -433q0 -127 -31.5 -255.5t-99.5 -250.5t-164.5 -216.5t-237 -152t-305.5 -57.5q-260 0 -412.5 132.5t-152.5 359.5q0 57 6 88h367q-5 -45 -5 -55q0 -105 61 -164.5t169 -59.5q133 0 231 89t154 229h-467l72 286l452 2q0 144 -64.5 230
t-187.5 86q-101 0 -186 -60.5t-127 -166.5h-373q81 251 271 389.5t448 138.5z" />
    <glyph glyph-name="Iucy" unicode="&#x42e;" horiz-adv-x="2158" 
d="M1569 1491q274 0 425.5 -167.5t151.5 -457.5q0 -122 -31.5 -247t-97 -242.5t-157.5 -208.5t-223 -146t-283 -55q-268 0 -418.5 164t-155.5 449h-256l-143 -580h-354l362 1458h354l-143 -577h223q29 97 75 185t113.5 166.5t149 135.5t187 90t221.5 33zM1380 274
q96 0 176 58t128 148t74 191t26 195q0 151 -62 234.5t-178 83.5q-78 0 -145.5 -38t-113.5 -100t-79.5 -140t-49 -158t-15.5 -154q0 -152 61.5 -236t177.5 -84z" />
    <glyph glyph-name="Iacy" unicode="&#x42f;" horiz-adv-x="1390" 
d="M1470 1458l-362 -1458h-356l127 516h-166q-30 0 -84 4l-361 -520h-399l461 621q-133 109 -133 321q0 75 20 146t66.5 139t115 118.5t174.5 81.5t236 31h661zM1047 1184h-246q-69 0 -120.5 -19.5t-80 -53.5t-42 -73t-13.5 -84q0 -84 51 -127t162 -43h190z" />
    <glyph glyph-name="acy" unicode="&#x430;" horiz-adv-x="1148" 
d="M651 1073q426 0 426 -330q0 -65 -18 -139l-78 -311q-46 -180 -43 -293h-301q0 60 14 117h-4q-150 -144 -348 -144q-150 0 -230.5 76.5t-80.5 204.5q0 63 23 118.5t76 108t151.5 91.5t236.5 59q170 20 268 26l5 23q10 38 10 61q0 117 -127 117q-65 0 -109 -37.5
t-59 -107.5h-326q33 157 167 258.5t347 101.5zM682 412l14 59q-77 -3 -190 -22q-174 -30 -174 -150q0 -46 30.5 -73t86.5 -27q90 0 149 55.5t84 157.5z" />
    <glyph glyph-name="becy" unicode="&#x431;" horiz-adv-x="1243" 
d="M1354 1491l-68 -274q-114 -32 -344 -39q-160 -6 -260.5 -41t-156.5 -95.5t-103 -167.5h4q119 132 332 132q195 0 304 -111.5t109 -308.5q0 -80 -25 -164.5t-78.5 -166t-127 -145.5t-180 -103.5t-228.5 -39.5q-226 0 -342 119.5t-116 351.5q0 118 30 230q43 174 101.5 302
t129.5 214.5t165 141.5t199 81.5t241 34.5q295 20 414 49zM659 770q-65 0 -117 -38.5t-80.5 -97t-43.5 -119.5t-15 -116q0 -88 39 -135t115 -47q64 0 115.5 38t81.5 96.5t45.5 119.5t15.5 115q0 184 -156 184z" />
    <glyph glyph-name="vecy" unicode="&#x432;" horiz-adv-x="1163" 
d="M254 1040h500q366 0 366 -241q0 -218 -246 -275v-4q164 -38 164 -207q0 -58 -26.5 -111.5t-79 -99.5t-145 -74t-212.5 -28h-579zM528 834l-53 -213h156q85 0 122.5 34.5t37.5 81.5q0 97 -138 97h-125zM428 432l-57 -225h168q88 0 128 36t40 85q0 104 -150 104h-129z" />
    <glyph glyph-name="gecy" unicode="&#x433;" horiz-adv-x="925" 
d="M975 793h-443l-196 -793h-340l258 1040h782z" />
    <glyph glyph-name="decy" unicode="&#x434;" horiz-adv-x="1368" 
d="M1145 248h139l-143 -576h-336l82 328h-664l-82 -328h-336l144 576h125q76 90 150.5 260.5t183.5 531.5h933zM944 793h-278q-111 -352 -215 -545h358z" />
    <glyph glyph-name="iecy" unicode="&#x435;" horiz-adv-x="1196" 
d="M1116 451h-735q-8 -39 -8 -80q0 -91 44.5 -133.5t117.5 -42.5q66 0 116.5 34.5t69.5 89.5h348q-63 -153 -211 -252.5t-330 -99.5q-232 0 -351.5 124t-119.5 337q0 85 24 173t74.5 173t121.5 151.5t173.5 107t221.5 40.5q226 0 347.5 -119t121.5 -323q0 -72 -25 -180z
M662 850q-161 0 -234 -207h393q4 32 4 45q0 82 -44 122t-119 40z" />
    <glyph glyph-name="zhecy" unicode="&#x436;" horiz-adv-x="1628" 
d="M1296 539l226 -539h-381l-156 535h-4l-131 -535h-330l123 496h-4l-371 -496h-420l502 571l-207 469h357l157 -471h5l116 471h330l-109 -434h5l342 434h397z" />
    <glyph glyph-name="zecy" unicode="&#x437;" horiz-adv-x="1089" 
d="M645 1073q196 0 306 -76.5t110 -208.5q0 -193 -268 -264v-4q172 -64 172 -211q0 -62 -31 -121.5t-89.5 -109.5t-154.5 -80.5t-215 -30.5q-230 0 -349.5 78.5t-119.5 228.5q0 40 6 74h324q-6 -21 -6 -43q0 -104 151 -104q78 0 122 37t44 84q0 94 -166 94h-80l54 215h80
q99 0 149.5 36t50.5 85q0 40 -31.5 62t-91.5 22q-137 0 -176 -138h-319q40 176 179 275.5t349 99.5z" />
    <glyph glyph-name="iicy" unicode="&#x438;" horiz-adv-x="1421" 
d="M1167 0h-331l92 369q38 160 121 411h-5q-117 -210 -241 -383l-289 -397h-518l258 1040h330l-92 -370q-49 -199 -121 -410h4q117 210 241 383l289 397h520z" />
    <glyph glyph-name="iishortcy" unicode="&#x439;" horiz-adv-x="1421" 
d="M1069 1458h240q-41 -150 -154 -232.5t-278 -82.5q-146 0 -225 66t-79 186q0 23 7 63h194q-2 -10 -2 -24q0 -46 31.5 -70.5t91.5 -24.5q67 0 112 31t62 88zM1167 0h-331l92 369q38 160 121 411h-5q-117 -210 -241 -383l-289 -397h-518l258 1040h330l-92 -370
q-49 -199 -121 -410h4q117 210 241 383l289 397h520z" />
    <glyph glyph-name="kacy" unicode="&#x43a;" horiz-adv-x="1181" 
d="M772 530l277 -530h-375l-211 489h-4l-123 -489h-340l258 1040h340l-96 -391h4l340 391h430z" />
    <glyph glyph-name="elcy" unicode="&#x43b;" horiz-adv-x="1216" 
d="M963 0h-340l196 793h-213q-56 -203 -111 -346t-108 -233t-115.5 -140.5t-124 -69t-143.5 -18.5q-66 0 -119 16l58 238q20 -4 39 -4q66 0 115.5 56t114.5 231.5t155 516.5h854z" />
    <glyph glyph-name="emcy" unicode="&#x43c;" horiz-adv-x="1736" 
d="M1483 0h-307l116 463q35 149 101 368h-4q-106 -210 -191 -364l-258 -467h-401l-29 467q-10 154 -10 364h-4q-37 -196 -80 -368l-115 -463h-305l258 1040h500l26 -432q9 -189 6 -381h5q69 192 172 381l239 432h539z" />
    <glyph glyph-name="ency" unicode="&#x43d;" horiz-adv-x="1273" 
d="M1020 0h-340l100 406h-344l-100 -406h-340l258 1040h340l-96 -389h344l96 389h340z" />
    <glyph glyph-name="ocy" unicode="&#x43e;" horiz-adv-x="1236" 
d="M680 1073q238 0 368 -125t130 -348q0 -85 -24.5 -172t-76.5 -170t-124 -147.5t-176 -104t-224 -39.5q-235 0 -364.5 125.5t-129.5 347.5q0 84 24.5 171.5t76 170.5t123.5 147.5t175 104t222 39.5zM666 815q-64 0 -115 -38.5t-80 -98t-44 -122.5t-15 -120q0 -211 159 -211
q63 0 114 38.5t80 98t44.5 122.5t15.5 120q0 211 -159 211z" />
    <glyph glyph-name="pecy" unicode="&#x43f;" horiz-adv-x="1259" 
d="M1006 0h-340l196 793h-330l-196 -793h-340l258 1040h1010z" />
    <glyph glyph-name="ercy" unicode="&#x440;" horiz-adv-x="1249" 
d="M844 1069q169 0 262.5 -109t93.5 -301q0 -75 -17 -153.5t-48.5 -155.5t-81.5 -145.5t-111.5 -120.5t-143 -82.5t-171.5 -30.5q-88 0 -156.5 39t-101.5 111h-4l-123 -500h-340l354 1419h328l-23 -90h4q59 57 133 88t146 31zM696 811q-59 0 -109.5 -36.5t-81.5 -94
t-48 -123t-17 -127.5q0 -95 37 -148t107 -53q59 0 109.5 36.5t81.5 94t48 123t17 127.5q0 95 -37 148t-107 53z" />
    <glyph glyph-name="escy" unicode="&#x441;" horiz-adv-x="1177" 
d="M690 1073q215 0 338 -107t123 -288q0 -28 -6 -55h-352q4 20 4 36q0 75 -34.5 116.5t-94.5 41.5q-61 0 -112.5 -41t-82.5 -102.5t-48 -126.5t-17 -119q0 -98 37 -150.5t106 -52.5q66 0 118.5 46t75.5 126h355q-61 -196 -216.5 -313t-355.5 -117q-222 0 -345.5 124
t-123.5 343q0 85 24.5 172.5t76.5 171.5t125 149.5t178 105.5t227 40z" />
    <glyph glyph-name="tecy" unicode="&#x442;" horiz-adv-x="997" 
d="M1057 793h-322l-196 -793h-340l196 793h-319l61 247h981z" />
    <glyph glyph-name="ucy" unicode="&#x443;" horiz-adv-x="1085" 
d="M1231 1040l-602 -1026q-134 -230 -267.5 -317.5t-334.5 -87.5q-95 0 -170 16l63 258q46 -16 100 -16q94 0 147.5 52.5t53.5 131.5q0 23 -14 152l-98 837h335l21 -348q12 -213 6 -434h4q104 247 203 436l176 346h377z" />
    <glyph glyph-name="efcy" unicode="&#x444;" horiz-adv-x="1722" 
d="M1354 1069q154 0 237.5 -106.5t83.5 -294.5q0 -88 -22.5 -183t-69.5 -187t-112 -165t-157 -117.5t-196 -44.5q-127 0 -203 92l-110 -442h-334l102 414q-98 -64 -202 -64q-155 0 -239.5 106.5t-84.5 295.5q0 88 22.5 183t69.5 187t111.5 164.5t156 117t195.5 44.5
q136 0 205 -96l121 485h334l-113 -450q98 61 205 61zM541 225q47 0 90 37l123 498q-28 55 -101 55q-60 0 -109 -40t-78 -100t-44.5 -123.5t-15.5 -117.5q0 -100 34 -154.5t101 -54.5zM1071 225q48 0 89.5 26t70 67.5t49 92.5t30 100.5t9.5 92.5q0 99 -36 155t-101 56
q-47 0 -88 -35l-125 -501q29 -54 102 -54z" />
    <glyph glyph-name="hacy" unicode="&#x445;" horiz-adv-x="1095" 
d="M752 520l227 -520h-358l-103 322h-4l-238 -322h-417l491 547l-211 493h355l90 -284h4l209 284h417z" />
    <glyph glyph-name="tsecy" unicode="&#x446;" horiz-adv-x="1286" 
d="M1063 248h139l-143 -576h-340l82 328h-805l258 1040h340l-197 -792h326l197 792h340z" />
    <glyph glyph-name="checy" unicode="&#x447;" horiz-adv-x="1202" 
d="M920 0h-340l88 352q-108 -24 -230 -24q-171 0 -258.5 77t-87.5 224q0 42 17 112l73 299h340l-73 -297q-7 -32 -7 -49q0 -121 142 -121q67 0 141 19l113 448h340z" />
    <glyph glyph-name="shacy" unicode="&#x448;" horiz-adv-x="1798" 
d="M1544 0h-1548l258 1040h340l-197 -792h265l196 792h340l-197 -792h265l196 792h340z" />
    <glyph glyph-name="shchacy" unicode="&#x449;" horiz-adv-x="1828" 
d="M1606 248h139l-143 -576h-340l81 328h-1347l258 1040h340l-197 -792h265l196 792h340l-197 -792h265l196 792h340z" />
    <glyph glyph-name="hardsigncy" unicode="&#x44a;" horiz-adv-x="1329" 
d="M664 723h135q212 0 323 -80.5t111 -239.5q0 -74 -28 -143t-85 -128.5t-156.5 -95.5t-228.5 -36h-590l197 793h-266l61 247h606zM543 231h182q86 0 127 45t41 105q0 111 -139 111h-148z" />
    <glyph glyph-name="yerucy" unicode="&#x44b;" horiz-adv-x="1716" 
d="M514 723h135q212 0 323 -80.5t111 -239.5q0 -59 -16.5 -114.5t-54.5 -108.5t-94 -92.5t-141.5 -63.5t-190.5 -24h-590l258 1040h340zM1462 0h-340l258 1040h340zM457 492l-64 -261h185q84 0 124.5 45t40.5 105q0 111 -139 111h-147z" />
    <glyph glyph-name="softsigncy" unicode="&#x44c;" horiz-adv-x="1181" 
d="M514 723h135q212 0 323 -80.5t111 -239.5q0 -59 -16.5 -114.5t-54.5 -108.5t-94 -92.5t-141.5 -63.5t-190.5 -24h-590l258 1040h340zM457 492l-64 -261h185q84 0 124.5 45t40.5 105q0 111 -139 111h-147z" />
    <glyph glyph-name="ereversedcy" unicode="&#x44d;" horiz-adv-x="1177" 
d="M649 1073q222 0 346.5 -124t124.5 -343q0 -85 -24.5 -172.5t-77 -171.5t-125.5 -149.5t-178.5 -105.5t-227.5 -40q-216 0 -339 105t-123 282q0 27 6 54h329q-4 -20 -4 -35q0 -79 40 -123.5t108 -44.5q86 0 149 62t101 159h-322l51 209h310q-5 97 -47 149t-117 52
q-72 0 -130.5 -49t-84.5 -134h-332q60 192 214.5 306t352.5 114z" />
    <glyph glyph-name="iucy" unicode="&#x44e;" horiz-adv-x="1775" 
d="M1225 1073q234 0 361.5 -124.5t127.5 -346.5q0 -85 -24 -172t-75.5 -170.5t-122.5 -148.5t-174 -104.5t-222 -39.5q-223 0 -349 114t-137 318h-176l-98 -399h-340l258 1040h340l-98 -395h147q30 86 80.5 160.5t121.5 135.5t169.5 96.5t210.5 35.5zM1114 225
q62 0 112 38.5t78.5 98t43 123t14.5 121.5q0 100 -38.5 154.5t-115.5 54.5q-62 0 -112 -38.5t-78 -98t-42.5 -123t-14.5 -121.5q0 -209 153 -209z" />
    <glyph glyph-name="iacy" unicode="&#x44f;" horiz-adv-x="1191" 
d="M1196 1040l-258 -1040h-332l80 322h-133l-59 2l-236 -324h-379l334 420q-96 87 -96 246q0 73 26.5 137t81 118.5t151 86.5t224.5 32h596zM807 805h-168q-104 0 -151.5 -39t-47.5 -96q0 -121 178 -121h123z" />
    <glyph glyph-name="iegravecy" unicode="&#x450;" horiz-adv-x="1196" 
d="M662 1155l-228 303h377l98 -303h-247zM1116 451h-735q-8 -39 -8 -80q0 -91 44.5 -133.5t117.5 -42.5q66 0 116.5 34.5t69.5 89.5h348q-63 -153 -211 -252.5t-330 -99.5q-232 0 -351.5 124t-119.5 337q0 85 24 173t74.5 173t121.5 151.5t173.5 107t221.5 40.5
q226 0 347.5 -119t121.5 -323q0 -72 -25 -180zM662 850q-161 0 -234 -207h393q4 32 4 45q0 82 -44 122t-119 40z" />
    <glyph glyph-name="iocy" unicode="&#x451;" horiz-adv-x="1196" 
d="M637 1190h-293l68 268h290zM1100 1190h-291l65 268h293zM672 1073q226 0 347.5 -119t121.5 -323q0 -72 -25 -180h-735q-8 -39 -8 -80q0 -91 44.5 -133.5t117.5 -42.5q66 0 116.5 34.5t69.5 89.5h348q-63 -153 -211 -252.5t-330 -99.5q-232 0 -351.5 124t-119.5 337
q0 85 24 173t74.5 173t121.5 151.5t173.5 107t221.5 40.5zM662 850q-161 0 -234 -207h393q4 32 4 45q0 82 -44 122t-119 40z" />
    <glyph glyph-name="djecy" unicode="&#x452;" horiz-adv-x="1249" 
d="M829 954q151 0 235.5 -79.5t84.5 -229.5q0 -67 -21 -149l-133 -531q-44 -180 -162.5 -267t-283.5 -87q-115 0 -182 22l57 234q18 -6 43 -6q86 0 136.5 47t80.5 168l102 409q13 60 13 95q0 110 -115 110q-82 0 -145.5 -66.5t-96.5 -197.5l-106 -426h-340l272 1100h-145
l51 200h145l39 158h340l-39 -158h441l-51 -200h-441l-65 -258h4q128 112 282 112z" />
    <glyph glyph-name="gjecy" unicode="&#x453;" horiz-adv-x="925" 
d="M743 1155h-276l223 303h404zM975 793h-443l-196 -793h-340l258 1040h782z" />
    <glyph glyph-name="ecy" unicode="&#x454;" horiz-adv-x="1177" 
d="M1149 633h-332q4 20 4 35q0 79 -39.5 123.5t-107.5 44.5q-81 0 -142 -56.5t-98 -144.5h318l-52 -209h-313q0 -106 42.5 -163.5t121.5 -57.5q71 0 129.5 48.5t85.5 133.5h332q-62 -192 -216.5 -306t-353.5 -114q-222 0 -345.5 124t-123.5 343q0 85 24.5 172.5t76.5 171.5
t125 149.5t178 105.5t227 40q216 0 339.5 -105t123.5 -282q0 -35 -4 -53z" />
    <glyph glyph-name="dzecy" unicode="&#x455;" horiz-adv-x="1110" 
d="M649 1073q201 0 308.5 -72t107.5 -215q0 -31 -6 -61h-324q4 24 4 41q0 92 -121 92q-66 0 -97.5 -26t-31.5 -62q0 -37 37 -62t142 -61q43 -15 67 -24t62.5 -26t61.5 -32.5t50.5 -40.5t42 -52t25 -64t10.5 -80q0 -69 -32.5 -132t-94.5 -115t-164.5 -83t-230.5 -31
q-221 0 -339 75.5t-118 225.5q0 28 10 70h342q-6 -24 -6 -43q0 -105 140 -105q67 0 104 26.5t37 70.5q0 49 -42.5 75t-158.5 64q-32 11 -43 15t-40.5 15t-41 18t-36.5 20t-36 24t-29 28t-26 34.5t-18 40t-13.5 48.5t-3.5 56q0 66 31 126.5t90.5 111t158 80.5t222.5 30z" />
    <glyph glyph-name="icy" unicode="&#x456;" horiz-adv-x="589" 
d="M631 1190h-340l67 268h340zM336 0h-340l258 1040h340z" />
    <glyph glyph-name="yicy" unicode="&#x457;" horiz-adv-x="589" 
d="M414 1190h-273l68 268h270zM782 1190h-270l66 268h272zM336 0h-340l258 1040h340z" />
    <glyph glyph-name="jecy" unicode="&#x458;" horiz-adv-x="591" 
d="M633 1190h-340l67 268h340zM596 1040l-268 -1075q-44 -180 -163 -267t-284 -87q-115 0 -182 22l57 234q18 -6 43 -6q86 0 136.5 47t80.5 168l240 964h340z" />
    <glyph glyph-name="ljecy" unicode="&#x459;" horiz-adv-x="1808" 
d="M1143 723h133q213 0 323.5 -80.5t110.5 -239.5q0 -59 -16.5 -114.5t-55 -108.5t-94 -92.5t-141 -63.5t-189.5 -24h-591l196 793h-213q-56 -203 -111 -346t-108 -233t-115.5 -140.5t-124 -69t-143.5 -18.5q-66 0 -119 16l58 238q20 -4 39 -4q66 0 115.5 56t114.5 231.5
t155 516.5h854zM1085 492l-65 -261h184q85 0 125.5 45t40.5 105q0 111 -139 111h-146z" />
    <glyph glyph-name="njecy" unicode="&#x45a;" horiz-adv-x="1861" 
d="M1194 723h135q212 0 323 -80.5t111 -239.5q0 -59 -16.5 -114.5t-54.5 -108.5t-94 -92.5t-141.5 -63.5t-190.5 -24h-590l100 406h-340l-100 -406h-340l258 1040h340l-96 -389h340l96 389h340zM1137 492l-64 -261h184q85 0 125.5 45t40.5 105q0 111 -139 111h-147z" />
    <glyph glyph-name="tshecy" unicode="&#x45b;" horiz-adv-x="1249" 
d="M829 954q151 0 235.5 -79.5t84.5 -229.5q0 -67 -21 -149l-122 -496h-340l120 485q13 60 13 95q0 110 -115 110q-82 0 -145.5 -66.5t-96.5 -197.5l-106 -426h-340l272 1100h-145l51 200h145l39 158h340l-39 -158h441l-51 -200h-441l-65 -258h4q128 112 282 112z" />
    <glyph glyph-name="kjecy" unicode="&#x45c;" horiz-adv-x="1181" 
d="M823 1155h-276l223 303h404zM772 530l277 -530h-375l-211 489h-4l-123 -489h-340l258 1040h340l-96 -391h4l340 391h430z" />
    <glyph glyph-name="iigravecy" unicode="&#x45d;" horiz-adv-x="1421" 
d="M967 1458l98 -303h-248l-227 303h377zM1167 0h-331l92 369q38 160 121 411h-5q-117 -210 -241 -383l-289 -397h-518l258 1040h330l-92 -370q-49 -199 -121 -410h4q117 210 241 383l289 397h520z" />
    <glyph glyph-name="ushortcy" unicode="&#x45e;" horiz-adv-x="1085" 
d="M864 1458h240q-41 -150 -154 -232.5t-278 -82.5q-146 0 -224.5 66t-78.5 186q0 29 6 63h194q-2 -10 -2 -24q0 -46 31.5 -70.5t91.5 -24.5q67 0 112 31t62 88zM1231 1040l-602 -1026q-134 -230 -267.5 -317.5t-334.5 -87.5q-95 0 -170 16l63 258q46 -16 100 -16
q94 0 147.5 52.5t53.5 131.5q0 23 -14 152l-98 837h335l21 -348q12 -213 6 -434h4q104 247 203 436l176 346h377z" />
    <glyph glyph-name="dzhecy" unicode="&#x45f;" horiz-adv-x="1259" 
d="M1006 0h-338l-82 -328h-340l82 328h-332l258 1040h340l-197 -792h330l197 792h340z" />
    <glyph glyph-name="Gheupturncy" unicode="&#x490;" horiz-adv-x="1062" 
d="M1204 1157h-534l-289 -1157h-354l362 1458h549l70 275h340z" />
    <glyph glyph-name="gheupturncy" unicode="&#x491;" horiz-adv-x="925" 
d="M975 793h-443l-196 -793h-340l258 1040h469l82 328h313z" />
    <glyph glyph-name="Ghestrokecy" unicode="&#x492;" horiz-adv-x="1067" 
d="M672 1157l-99 -393h275l-57 -234h-275l-131 -530h-356l131 530h-127l59 234h127l172 694h891l-76 -301h-534z" />
    <glyph glyph-name="ghestrokecy" unicode="&#x493;" horiz-adv-x="937" 
d="M547 793l-58 -234h250l-51 -205h-250l-88 -354h-340l88 354h-114l51 205h115l118 481h783l-62 -247h-442z" />
    <glyph glyph-name="Zhedescendercy" unicode="&#x496;" horiz-adv-x="1951" 
d="M1700 301h190l-157 -629h-340l82 328h-56l-213 733h-4l-180 -733h-348l172 694h-4l-520 -694h-443l662 782l-265 676h386l200 -682h4l170 682h348l-161 -645h4l483 645h432l-610 -715z" />
    <glyph glyph-name="zhedescendercy" unicode="&#x497;" horiz-adv-x="1628" 
d="M1583 248l-61 -248l-82 -328h-340l82 328h-41l-156 535h-4l-131 -535h-330l123 496h-4l-371 -496h-420l502 571l-207 469h357l157 -471h5l116 471h330l-109 -434h5l342 434h397l-447 -501l121 -291h166z" />
    <glyph glyph-name="Kadescendercy" unicode="&#x49a;" horiz-adv-x="1413" 
d="M1350 301l-74 -301l-82 -328h-340l82 328h-72l-305 700h-4l-174 -700h-354l362 1458h354l-149 -598h4l543 598h458l-704 -708l227 -449h228z" />
    <glyph glyph-name="kadescendercy" unicode="&#x49b;" horiz-adv-x="1181" 
d="M920 248h192l-143 -576h-340l82 328h-37l-211 489h-4l-123 -489h-340l258 1040h340l-96 -391h4l340 391h430l-500 -510z" />
    <glyph glyph-name="Kaverticalstrokecy" unicode="&#x49c;" horiz-adv-x="1556" 
d="M1139 721l280 -721h-395l-182 604h-8l-76 -309h-219l75 309h-90l-149 -604h-348l362 1458h348l-137 -553h90l76 307h219l-76 -307h9l397 553h432z" />
    <glyph glyph-name="kaverticalstrokecy" unicode="&#x49d;" horiz-adv-x="1316" 
d="M985 532l223 -532h-379l-127 428h-22l-55 -225h-179l56 225h-72l-104 -428h-330l258 1040h330l-92 -364h73l58 233h178l-58 -233h9l280 364h398z" />
    <glyph glyph-name="Endescendercy" unicode="&#x4a2;" horiz-adv-x="1615" 
d="M1372 -328h-340l82 328h-194l149 604h-539l-149 -604h-354l362 1458h354l-137 -553h539l137 553h354l-288 -1157h180z" />
    <glyph glyph-name="endescendercy" unicode="&#x4a3;" horiz-adv-x="1304" 
d="M1077 -328h-340l82 328h-139l100 406h-344l-100 -406h-340l258 1040h340l-96 -389h344l96 389h340l-197 -792h140z" />
    <glyph glyph-name="Ustraitcy" unicode="&#x4ae;" horiz-adv-x="1357" 
d="M864 551l-137 -551h-354l137 551l-274 907h358l61 -264q40 -177 68 -367h4q108 184 240 367l192 264h430z" />
    <glyph glyph-name="ustraitcy" unicode="&#x4af;" horiz-adv-x="1091" 
d="M113 1040h336l16 -333q9 -197 6 -396h4q89 216 191 396l184 333h387l-659 -1071l-86 -348h-340l86 348z" />
    <glyph glyph-name="Hadescendercy" unicode="&#x4b2;" horiz-adv-x="1370" 
d="M1313 301l-74 -301l-82 -328h-340l82 328h-43l-149 489h-5l-376 -489h-451l651 762l-264 696h375l137 -473h4l355 473h442l-617 -725l166 -432h189z" />
    <glyph glyph-name="hadescendercy" unicode="&#x4b3;" horiz-adv-x="1095" 
d="M1040 248l-61 -248l-82 -328h-340l82 328h-18l-103 322h-4l-238 -322h-417l491 547l-211 493h355l90 -284h4l209 284h417l-462 -520l118 -272h170z" />
    <glyph glyph-name="Cheverticalstrokecy" unicode="&#x4b8;" horiz-adv-x="1427" 
d="M1505 1458l-362 -1458h-355l130 520q-71 -14 -140 -22l-63 -260h-234l64 254q-189 15 -285 108t-96 258q0 61 24 166l109 434h354l-104 -426q-10 -31 -10 -71q0 -106 88 -148l88 352h231l-92 -370q61 5 139 24l160 639h354z" />
    <glyph glyph-name="cheverticalstrokecy" unicode="&#x4b9;" horiz-adv-x="1193" 
d="M1198 1040l-258 -1040h-334l90 356q-3 -1 -92 -18l-45 -176h-178l41 166q-163 6 -246.5 83t-83.5 218q0 42 17 112l73 299h334l-76 -303q-6 -24 -6 -47q0 -71 55 -98l68 270h178l-71 -282q50 6 90 18l110 442h334z" />
    <glyph glyph-name="Shhacy" unicode="&#x4ba;" horiz-adv-x="1427" 
d="M389 1458h354l-129 -520q150 33 293 33q228 0 344.5 -94.5t116.5 -276.5q0 -63 -27 -166l-106 -434h-356l106 426q10 31 10 72q0 172 -223 172q-114 0 -231 -31l-160 -639h-354z" />
    <glyph glyph-name="shhacy" unicode="&#x4bb;" 
d="M571 954h4q126 113 281 113q151 0 234.5 -79t83.5 -228q0 -70 -21 -152l-152 -608h-339l149 598q12 55 12 94q0 111 -114 111q-81 0 -144 -66.5t-94 -197.5l-135 -539h-340l362 1458h340z" />
    <glyph glyph-name="Palochkacy" unicode="&#x4c0;" horiz-adv-x="665" 
d="M381 0h-354l362 1458h354z" />
    <glyph glyph-name="palochkacy" unicode="&#x4cf;" horiz-adv-x="589" 
d="M336 0h-340l362 1458h340z" />
    <glyph glyph-name="Schwacy" unicode="&#x4d8;" horiz-adv-x="1587" 
d="M963 1491q301 0 458.5 -161.5t157.5 -444.5q0 -101 -24.5 -206t-71 -208t-120.5 -194t-166 -160t-215 -109.5t-261 -40.5q-303 0 -460 159t-157 429q0 163 48 285h1042q6 44 6 84q0 145 -76 212.5t-194 67.5q-111 0 -195 -54.5t-119 -141.5h-407q42 100 114 186.5
t167 153t217.5 105t255.5 38.5zM752 256q124 0 224 80.5t154 238.5h-649q-6 -35 -6 -65q0 -125 76 -189.5t201 -64.5z" />
    <glyph glyph-name="schwacy" unicode="&#x4d9;" horiz-adv-x="1196" 
d="M668 1073q230 0 350.5 -124t120.5 -337q0 -85 -24 -173t-75 -173t-122 -151.5t-173.5 -107t-220.5 -40.5q-227 0 -348 119.5t-121 323.5q0 98 29 186h731q6 41 6 74q0 91 -44.5 133.5t-117.5 42.5q-65 0 -115 -32.5t-69 -84.5h-346q62 148 209.5 246t329.5 98zM532 190
q163 0 236 213h-393q-4 -36 -4 -51q0 -81 43.5 -121.5t117.5 -40.5z" />
    <glyph glyph-name="Obarredcy" unicode="&#x4e8;" horiz-adv-x="1550" 
d="M930 1491q286 0 446 -170t160 -463q0 -122 -32 -246t-99 -240t-161 -206t-228.5 -144.5t-290.5 -54.5q-287 0 -446.5 170.5t-159.5 464.5q0 121 32 244.5t99 239.5t161 206t228.5 144.5t290.5 54.5zM909 1202q-145 0 -248.5 -96t-158.5 -244h700q-2 157 -79 248.5
t-214 91.5zM743 256q145 0 249 96t161 244h-700q2 -157 78 -248.5t212 -91.5z" />
    <glyph glyph-name="obarredcy" unicode="&#x4e9;" horiz-adv-x="1236" 
d="M680 1073q238 0 368 -125t130 -348q0 -85 -24.5 -172t-76.5 -170t-124 -147.5t-176 -104t-224 -39.5q-235 0 -364.5 125.5t-129.5 347.5q0 84 24.5 171.5t76 170.5t123.5 147.5t175 104t222 39.5zM666 838q-93 0 -156 -64t-96 -162h440q-2 104 -49 165t-139 61zM571 203
q91 0 154.5 63.5t97.5 161.5h-440q2 -104 49 -164.5t139 -60.5z" />
    <glyph glyph-name="Wgrave" unicode="&#x1e80;" horiz-adv-x="2029" 
d="M1452 1556h-248l-225 310h377zM1589 0h-473l23 584q9 276 37 585h-5q-103 -265 -251 -585l-269 -584h-469l68 1458h330l-35 -526q-18 -301 -56 -610h5q112 278 266 610l246 526h452l-14 -526q-9 -289 -37 -610h4q113 301 248 610l227 526h361z" />
    <glyph glyph-name="wgrave" unicode="&#x1e81;" horiz-adv-x="1736" 
d="M1110 1458l98 -303h-247l-228 303h377zM1368 0h-467l14 391q11 272 25 436h-4q-91 -248 -180 -436l-181 -391h-464l26 1040h318l-29 -383q-19 -283 -39 -442h4q89 231 189 444l180 381h444l-8 -381q-3 -238 -20 -444h4q79 238 168 442l161 383h349z" />
    <glyph glyph-name="Wacute" unicode="&#x1e82;" horiz-adv-x="2029" 
d="M1337 1556h-276l225 310h404zM1589 0h-473l23 584q9 276 37 585h-5q-103 -265 -251 -585l-269 -584h-469l68 1458h330l-35 -526q-18 -301 -56 -610h5q112 278 266 610l246 526h452l-14 -526q-9 -289 -37 -610h4q113 301 248 610l227 526h361z" />
    <glyph glyph-name="wacute" unicode="&#x1e83;" horiz-adv-x="1736" 
d="M1092 1155h-277l223 303h404zM1368 0h-467l14 391q11 272 25 436h-4q-91 -248 -180 -436l-181 -391h-464l26 1040h318l-29 -383q-19 -283 -39 -442h4q89 231 189 444l180 381h444l-8 -381q-3 -238 -20 -444h4q79 238 168 442l161 383h349z" />
    <glyph glyph-name="Wdieresis" unicode="&#x1e84;" horiz-adv-x="2029" 
d="M1176 1575h-293l67 268h291zM1638 1575h-290l65 268h293zM1589 0h-473l23 584q9 276 37 585h-5q-103 -265 -251 -585l-269 -584h-469l68 1458h330l-35 -526q-18 -301 -56 -610h5q112 278 266 610l246 526h452l-14 -526q-9 -289 -37 -610h4q113 301 248 610l227 526h361z
" />
    <glyph glyph-name="wdieresis" unicode="&#x1e85;" horiz-adv-x="1736" 
d="M934 1190h-293l68 268h290zM1397 1190h-291l65 268h293zM1368 0h-467l14 391q11 272 25 436h-4q-91 -248 -180 -436l-181 -391h-464l26 1040h318l-29 -383q-19 -283 -39 -442h4q89 231 189 444l180 381h444l-8 -381q-3 -238 -20 -444h4q79 238 168 442l161 383h349z" />
    <glyph glyph-name="Germandbls" unicode="&#x1e9e;" horiz-adv-x="1667" 
d="M1653 1188l-375 -332q293 -115 293 -403q0 -70 -22.5 -138.5t-70.5 -131t-116 -110t-166 -76t-213 -28.5q-434 0 -434 318q0 59 14 119h320q-6 -27 -6 -48q0 -110 137 -110q96 0 145 55t49 127q0 200 -338 225l60 238l282 248q-69 63 -200 63q-173 0 -286.5 -94
t-158.5 -279l-207 -831h-354l213 854q78 313 292 474t548 161q208 0 362.5 -81t231.5 -220z" />
    <glyph glyph-name="Ygrave" unicode="&#x1ef2;" horiz-adv-x="1357" 
d="M1077 1556h-248l-225 310h377zM864 551l-137 -551h-354l137 551l-274 907h358l61 -264q40 -177 68 -367h4q108 184 240 367l192 264h430z" />
    <glyph glyph-name="ygrave" unicode="&#x1ef3;" horiz-adv-x="1085" 
d="M762 1458l98 -303h-248l-227 303h377zM1231 1040l-602 -1026q-134 -230 -267.5 -317.5t-334.5 -87.5q-95 0 -170 16l63 258q46 -16 100 -16q94 0 147.5 52.5t53.5 131.5q0 23 -14 152l-98 837h335l21 -348q12 -213 6 -434h4q104 247 203 436l176 346h377z" />
    <glyph glyph-name="hyphentwo" unicode="&#x2010;" horiz-adv-x="690" 
d="M616 473h-567l64 250h565z" />
    <glyph glyph-name="endash" unicode="&#x2013;" horiz-adv-x="1024" 
d="M971 473h-942l63 250h942z" />
    <glyph glyph-name="emdash" unicode="&#x2014;" horiz-adv-x="2048" 
d="M1995 473h-1966l63 250h1966z" />
    <glyph glyph-name="horizontalbar" unicode="&#x2015;" horiz-adv-x="2048" 
d="M1866 473h-1966l63 250h1966z" />
    <glyph glyph-name="underscoredbl" unicode="&#x2017;" horiz-adv-x="1024" 
d="M825 -274h-1024l43 172h1024zM745 -596h-1024l43 172h1024z" />
    <glyph glyph-name="quoteleft" unicode="&#x2018;" horiz-adv-x="544" 
d="M276 1149l236 309h170l-199 -309h101l-80 -322h-307z" />
    <glyph glyph-name="quoteright" unicode="&#x2019;" horiz-adv-x="544" 
d="M580 1139l-236 -312h-170l199 312h-101l78 319h309z" />
    <glyph glyph-name="quotesinglbase" unicode="&#x201a;" horiz-adv-x="544" 
d="M297 0l-236 -309h-172l201 309h-102l80 319h307z" />
    <glyph glyph-name="quotereversed" unicode="&#x201b;" horiz-adv-x="544" 
d="M276 1149l236 309h170l-199 -309h101l-80 -322h-307z" />
    <glyph glyph-name="quotedblleft" unicode="&#x201c;" horiz-adv-x="954" 
d="M276 1149l236 309h170l-199 -309h101l-80 -322h-307zM686 1149l236 309h170l-199 -309h100l-80 -322h-307z" />
    <glyph glyph-name="quotedblright" unicode="&#x201d;" horiz-adv-x="954" 
d="M580 1139l-236 -312h-170l199 312h-101l78 319h309zM989 1139l-235 -312h-170l198 312h-100l78 319h309z" />
    <glyph glyph-name="quotedblbase" unicode="&#x201e;" horiz-adv-x="954" 
d="M297 0l-236 -311h-170l199 311h-100l78 319h309zM707 0l-236 -311h-170l199 311h-101l78 319h309z" />
    <glyph glyph-name="dagger" unicode="&#x2020;" horiz-adv-x="1241" 
d="M940 1120h334l-70 -284h-334l-270 -1082h-340l268 1082h-331l69 282h332l86 340h340z" />
    <glyph glyph-name="daggerdbl" unicode="&#x2021;" horiz-adv-x="1241" 
d="M940 1120h334l-70 -278h-332l-118 -471h333l-69 -279h-332l-86 -338h-340l84 338h-334l70 279h332l118 471h-333l69 278h332l86 338h340z" />
    <glyph glyph-name="bullet" unicode="&#x2022;" horiz-adv-x="796" 
d="M399 412q-132 0 -224.5 93t-92.5 224q0 132 92.5 225t224.5 93q131 0 223.5 -93t92.5 -225q0 -131 -93 -224t-223 -93z" />
    <glyph glyph-name="ellipsis" unicode="&#x2026;" horiz-adv-x="1931" 
d="M332 0h-361l92 377h363zM1018 0h-363l95 377h360zM1704 0h-363l93 377h362z" />
    <glyph glyph-name="perthousand" unicode="&#x2030;" horiz-adv-x="2287" 
d="M330 -61h-209l1198 1503h209zM559 1419q134 0 202 -67.5t68 -194.5q0 -80 -23.5 -160t-67 -148.5t-116 -111.5t-161.5 -43q-133 0 -203 67t-70 195q0 63 14 127t44.5 124.5t73.5 107.5t105 75.5t134 28.5zM553 1247q-47 0 -84 -57.5t-52.5 -122t-15.5 -111.5
q0 -90 62 -90q37 0 67 33t47 81t26 94.5t9 80.5q0 92 -59 92zM1196 686q133 0 201.5 -67.5t68.5 -194.5q0 -80 -23.5 -160t-67 -148.5t-116 -111.5t-161.5 -43q-134 0 -203.5 67t-69.5 195q0 63 14 127t44.5 124.5t73.5 107.5t105 75.5t134 28.5zM1913 686
q133 0 201.5 -67.5t68.5 -194.5q0 -80 -23.5 -160t-67 -148.5t-116 -111.5t-161.5 -43q-134 0 -203.5 67t-69.5 195q0 63 14 127t44.5 124.5t73.5 107.5t105 75.5t134 28.5zM1188 514q-46 0 -82.5 -57t-52 -122t-15.5 -112q0 -90 62 -90q36 0 66 33t47 81t26.5 94.5
t9.5 80.5q0 92 -61 92zM1905 514q-46 0 -82.5 -57t-52 -122t-15.5 -112q0 -90 62 -90q36 0 66 33t47 81t26.5 94.5t9.5 80.5q0 92 -61 92z" />
    <glyph glyph-name="minute" unicode="&#x2032;" horiz-adv-x="485" 
d="M369 885h-217l186 495h301z" />
    <glyph glyph-name="second" unicode="&#x2033;" horiz-adv-x="880" 
d="M369 885h-217l186 495h301zM770 885h-217l186 495h301z" />
    <glyph glyph-name="guilsinglleft" unicode="&#x2039;" horiz-adv-x="700" 
d="M393 512l117 -401h-279l-141 417l320 402h305z" />
    <glyph glyph-name="guilsinglright" unicode="&#x203a;" horiz-adv-x="698" 
d="M307 528l-117 402h277l143 -418l-319 -401h-305z" />
    <glyph glyph-name="exclamdouble" unicode="&#x203c;" horiz-adv-x="1253" 
d="M469 430h-274l192 1028h399zM1016 430h-275l193 1028h399zM406 0h-361l74 301h362zM952 0h-362l76 301h362z" />
    <glyph glyph-name="interrobang" unicode="&#x203d;" horiz-adv-x="1167" 
d="M1006 1458l-43 -145q114 -40 174.5 -122t60.5 -200q0 -117 -66.5 -214.5t-232.5 -182.5q-118 -61 -160 -96t-57 -92h-287q22 128 70 191.5t201 154.5q109 66 143.5 110.5t34.5 100.5t-35 87t-102 31q-159 0 -203 -180h-352q44 184 157.5 294t284.5 140l24 123h388z
M330 301h362l-76 -301h-360z" />
    <glyph glyph-name="overline" unicode="&#x203e;" horiz-adv-x="1024" 
d="M1290 1589h-1024l53 211h1024z" />
    <glyph glyph-name="fraction" unicode="&#x2044;" horiz-adv-x="305" 
d="M-246 0h-205l1088 1380h205z" />
    <glyph glyph-name="zerosuperior" unicode="&#x2070;" horiz-adv-x="983" 
d="M733 1665q177 0 269 -97t92 -280q0 -84 -20 -171t-63.5 -170.5t-104 -148.5t-148.5 -105t-191 -40q-178 0 -269 96.5t-91 280.5q0 84 20 171t63 170.5t103.5 148.5t148.5 105t191 40zM715 1454q-53 0 -98 -49.5t-71.5 -121.5t-41.5 -143t-15 -122q0 -75 25 -115.5
t72 -40.5q53 0 98 49.5t71 121.5t40 142.5t14 122.5q0 156 -94 156z" />
    <glyph glyph-name="foursuperior" unicode="&#x2074;" horiz-adv-x="956" 
d="M1018 862h-164l-47 -186h-279l47 186h-469l60 234l504 546h379l-144 -573h164zM406 1069h233l25 98q49 191 75 267h-4q-77 -91 -205 -230z" />
    <glyph glyph-name="fivesuperior" unicode="&#x2075;" horiz-adv-x="952" 
d="M1051 1415h-459l-55 -143h4q82 53 182 53q132 0 208.5 -75.5t76.5 -202.5q0 -52 -18.5 -105.5t-58 -105.5t-95 -92.5t-135 -65.5t-171.5 -25q-170 0 -265 65.5t-95 184.5q0 38 6 58h287q-2 -10 -2 -25q0 -35 27.5 -56.5t74.5 -21.5q77 0 116.5 51.5t39.5 116.5
q0 48 -27 74t-74 26q-87 0 -131 -86l-272 17l201 585h690z" />
    <glyph glyph-name="sixsuperior" unicode="&#x2076;" horiz-adv-x="942" 
d="M735 1665q165 0 257.5 -69t92.5 -193q0 -27 -2 -41h-284v14q0 86 -86 86q-61 0 -112 -52t-83 -161h4q85 58 201 58q131 0 207 -76.5t76 -204.5q0 -63 -29 -127.5t-81.5 -120t-138 -90.5t-186.5 -35q-175 0 -270.5 94.5t-95.5 276.5q0 81 21 168t65.5 171.5t105.5 151.5
t149 108.5t189 41.5zM625 1116q-62 0 -102 -48t-40 -101q0 -47 26.5 -76t70.5 -29q61 0 101 44.5t40 101.5q0 50 -25.5 79t-70.5 29z" />
    <glyph glyph-name="sevensuperior" unicode="&#x2077;" horiz-adv-x="847" 
d="M1102 1642l-53 -221q-141 -147 -266 -342.5t-214 -402.5h-327q96 211 231.5 405.5t269.5 325.5h-501l57 235h803z" />
    <glyph glyph-name="eightsuperior" unicode="&#x2078;" horiz-adv-x="946" 
d="M717 1665q167 0 263.5 -71t96.5 -193q0 -84 -62.5 -154.5t-174.5 -89.5v-4q67 -22 106 -77.5t39 -129.5q0 -53 -26 -103t-76.5 -93.5t-137.5 -70t-196 -26.5q-180 0 -279.5 73.5t-99.5 205.5q0 92 70.5 168t195.5 94v4q-61 25 -95 74t-34 114q0 107 110.5 193t299.5 86z
M700 1462q-65 0 -102 -33.5t-37 -74.5t28 -64.5t81 -23.5q61 0 98 33t37 77q0 41 -27.5 63.5t-77.5 22.5zM598 1069q-69 0 -106 -37t-37 -80t30.5 -68.5t83.5 -25.5q64 0 104 33.5t40 83.5q0 44 -29.5 69t-85.5 25z" />
    <glyph glyph-name="ninesuperior" unicode="&#x2079;" horiz-adv-x="942" 
d="M524 653q-165 0 -257.5 69t-92.5 193q0 27 2 41h285v-14q0 -86 86 -86q60 0 111 52t83 161h-4q-83 -57 -200 -57q-131 0 -207 76t-76 204q0 63 29 127.5t81.5 120t137.5 90.5t186 35q176 0 271.5 -94.5t95.5 -276.5q0 -81 -21 -168t-65.5 -171.5t-106 -151.5
t-149.5 -108.5t-189 -41.5zM635 1202q61 0 101 48.5t40 101.5q0 47 -26 75.5t-70 28.5q-61 0 -101 -44t-40 -101q0 -50 25.5 -79.5t70.5 -29.5z" />
    <glyph glyph-name="plussuperior" unicode="&#x207a;" horiz-adv-x="843" 
d="M532 1237h226v-215h-226v-219h-221v219h-225v215h225v221h221v-221z" />
    <glyph glyph-name="minussuperior" unicode="&#x207b;" horiz-adv-x="843" 
d="M758 1022h-672v215h672v-215z" />
    <glyph glyph-name="equalsuperior" unicode="&#x207c;" horiz-adv-x="843" 
d="M758 1184h-672v202h672v-202zM758 872h-672v203h672v-203z" />
    <glyph glyph-name="parenleftsuperior" unicode="&#x207d;" horiz-adv-x="540" 
d="M569 1739h230q-342 -473 -342 -932q0 -167 26 -342h-213q-86 229 -86 446q0 202 95 416.5t290 411.5z" />
    <glyph glyph-name="parenrightsuperior" unicode="&#x207e;" horiz-adv-x="540" 
d="M262 465h-231q344 476 344 932q0 161 -27 342h211q88 -227 88 -447q0 -201 -95 -415.5t-290 -411.5z" />
    <glyph glyph-name="zeroinferior" unicode="&#x2080;" horiz-adv-x="985" 
d="M477 637q177 0 269 -97t92 -280q0 -84 -20 -171t-63.5 -170.5t-104 -148.5t-148.5 -105t-191 -40q-178 0 -269 96.5t-91 280.5q0 84 20 171t63 170.5t103.5 148.5t148.5 105t191 40zM459 426q-53 0 -98 -49.5t-71.5 -121.5t-41.5 -143t-15 -122q0 -75 25 -115.5t72 -40.5
q53 0 98 49.5t71 121.5t40 142.5t14 122.5q0 156 -94 156z" />
    <glyph glyph-name="oneinferior" unicode="&#x2081;" horiz-adv-x="671" 
d="M334 -352h-287l146 590h-242l51 206q131 0 205.5 40t111.5 130h256z" />
    <glyph glyph-name="twoinferior" unicode="&#x2082;" horiz-adv-x="962" 
d="M471 637q170 0 263 -72t93 -192q0 -225 -331 -353q-135 -52 -182.5 -81.5t-61.5 -65.5h483l-53 -225h-829q22 133 73 225.5t131.5 155.5t208.5 118q147 63 209 105.5t62 99.5q0 74 -84 74q-106 0 -136 -133h-292q40 166 155.5 255t290.5 89z" />
    <glyph glyph-name="threeinferior" unicode="&#x2083;" horiz-adv-x="950" 
d="M463 637q174 0 269 -67.5t95 -186.5q0 -181 -225 -250v-2q131 -55 131 -186q0 -58 -27.5 -113.5t-79 -102.5t-137 -75.5t-190.5 -28.5q-191 0 -291 70.5t-100 204.5q0 40 8 73h289q-6 -21 -6 -43q0 -94 114 -94q64 0 101 34t37 73q0 90 -136 90h-26l51 203h33
q80 0 125 32.5t45 79.5q0 37 -26 57.5t-75 20.5q-59 0 -97 -34.5t-52 -96.5h-283q37 161 156.5 251.5t296.5 90.5z" />
    <glyph glyph-name="fourinferior" unicode="&#x2084;" horiz-adv-x="954" 
d="M760 -166h-164l-47 -186h-277l45 186h-467l58 234l506 546h377l-144 -573h164zM150 41h231l25 98q49 191 75 267h-4q-49 -60 -205 -230z" />
    <glyph glyph-name="fiveinferior" unicode="&#x2085;" horiz-adv-x="952" 
d="M795 387h-459l-55 -143h4q82 53 182 53q132 0 208.5 -76t76.5 -203q0 -65 -31 -132.5t-87.5 -126.5t-151 -96.5t-208.5 -37.5q-170 0 -265 65.5t-95 184.5q0 37 6 57h287q-2 -10 -2 -24q0 -35 27.5 -56.5t74.5 -21.5q77 0 116.5 51.5t39.5 116.5q0 48 -27 74t-74 26
q-87 0 -131 -86l-272 17l201 585h690z" />
    <glyph glyph-name="sixinferior" unicode="&#x2086;" horiz-adv-x="940" 
d="M477 637q165 0 257.5 -69t92.5 -193q0 -27 -2 -41h-284v14q0 86 -84 86q-131 0 -197 -213h4q85 58 203 58q130 0 205.5 -76.5t75.5 -204.5q0 -63 -29 -127.5t-81.5 -120t-137 -90.5t-185.5 -35q-177 0 -272.5 94.5t-95.5 276.5q0 81 21 168t65.5 171.5t105.5 151.5
t149 108.5t189 41.5zM369 88q-63 0 -102.5 -48t-39.5 -101q0 -48 26 -76.5t71 -28.5q59 0 99 44.5t40 101.5q0 50 -25 79t-69 29z" />
    <glyph glyph-name="seveninferior" unicode="&#x2087;" horiz-adv-x="847" 
d="M844 614l-51 -221q-142 -147 -267 -342t-213 -403h-327q97 212 231.5 406.5t269.5 324.5h-503l59 235h801z" />
    <glyph glyph-name="eightinferior" unicode="&#x2088;" horiz-adv-x="946" 
d="M459 637q168 0 264 -71t96 -193q0 -84 -62.5 -154.5t-174.5 -89.5v-4q68 -22 107.5 -78t39.5 -129q0 -53 -26.5 -103.5t-77 -93.5t-137 -69.5t-195.5 -26.5q-180 0 -280.5 73.5t-100.5 205.5q0 92 71 168t195 94v4q-61 25 -94 74t-33 114q0 50 26.5 98.5t75.5 89.5
t129 66t177 25zM442 434q-64 0 -100.5 -33.5t-36.5 -74.5t27.5 -64.5t79.5 -23.5q61 0 98 33t37 77q0 41 -27 63.5t-78 22.5zM342 41q-70 0 -106.5 -37t-36.5 -80t29.5 -68.5t82.5 -25.5q65 0 104.5 33.5t39.5 83.5q0 44 -29 69t-84 25z" />
    <glyph glyph-name="nineinferior" unicode="&#x2089;" horiz-adv-x="942" 
d="M268 -375q-165 0 -257.5 69t-92.5 193q0 27 2 41h285v-14q0 -86 86 -86q60 0 111 52t83 161h-4q-83 -57 -200 -57q-131 0 -207 76t-76 204q0 63 29 127.5t81.5 120t137.5 90.5t186 35q176 0 271.5 -94.5t95.5 -276.5q0 -81 -21 -168t-65.5 -171.5t-106 -151.5
t-149.5 -108.5t-189 -41.5zM379 174q61 0 101 48.5t40 101.5q0 47 -26 75.5t-70 28.5q-61 0 -101 -44t-40 -101q0 -50 25.5 -79.5t70.5 -29.5z" />
    <glyph glyph-name="plusinferior" unicode="&#x208a;" horiz-adv-x="843" 
d="M532 209h226v-215h-226v-219h-221v219h-225v215h225v221h221v-221z" />
    <glyph glyph-name="minusinferior" unicode="&#x208b;" horiz-adv-x="843" 
d="M758 -6h-672v215h672v-215z" />
    <glyph glyph-name="equalinferior" unicode="&#x208c;" horiz-adv-x="843" 
d="M758 156h-672v202h672v-202zM758 -156h-672v203h672v-203z" />
    <glyph glyph-name="parenleftinferior" unicode="&#x208d;" horiz-adv-x="538" 
d="M311 711h232q-344 -476 -344 -932q0 -145 26 -342h-211q-86 229 -86 446q0 201 94.5 416t288.5 412z" />
    <glyph glyph-name="parenrightinferior" unicode="&#x208e;" horiz-adv-x="540" 
d="M4 -563h-229q342 473 342 932q0 161 -27 342h213q86 -229 86 -447q0 -201 -95 -415.5t-290 -411.5z" />
    <glyph glyph-name="ninferior" unicode="&#x2099;" horiz-adv-x="919" 
d="M512 397q109 0 169 -57t60 -162q0 -49 -14 -104l-104 -426h-279l105 415q6 35 6 58q0 61 -68 61q-105 0 -147 -170l-93 -364h-278l182 729h258l-18 -72h4q95 92 217 92z" />
    <glyph glyph-name="franc" unicode="&#x20a3;" horiz-adv-x="1286" 
d="M700 1083l-55 -217h596l-72 -295h-598l-41 -159h336l-59 -244h-336l-43 -168h-354l41 168h-154l59 244h156l242 968h999l-74 -297h-643z" />
    <glyph glyph-name="lira" unicode="&#x20a4;" horiz-adv-x="1286" 
d="M1329 958h-334q6 24 6 50q0 127 -124 127q-147 0 -199 -203l-21 -82h256l-36 -150h-256l-21 -77h258l-37 -150h-262q-25 -70 -63.5 -115.5t-98.5 -76.5v-5h752l-70 -276h-1161l70 281q83 0 138 43.5t89 148.5h-178l37 150h180l20 77h-182l37 150h182l35 141
q52 207 198 314.5t367 107.5q202 0 315 -94t113 -262q0 -41 -10 -99z" />
    <glyph glyph-name="peseta" unicode="&#x20a7;" horiz-adv-x="1918" 
d="M1729 793l-93 -369q-10 -45 -10 -72q0 -54 27 -77t88 -23q13 0 61 6l-65 -258q-56 -16 -133 -16q-172 0 -252 66.5t-80 213.5q0 68 24 156l93 373h-82q-23 -77 -68.5 -142.5t-116 -120.5t-174 -86.5t-229.5 -31.5h-236l-102 -412h-354l342 1380h426q236 0 366.5 -88.5
t159.5 -251.5h129l70 281h340l-70 -281h197l-62 -247h-196zM553 696h160q67 0 118.5 19t79.5 51t42 68.5t14 76.5q0 185 -209 185h-105z" />
    <glyph glyph-name="euro" unicode="&#x20ac;" horiz-adv-x="1286" 
d="M1018 946v21q0 78 -41 120.5t-123 42.5q-101 0 -178 -72t-127 -188h432l-63 -149h-416q-14 -62 -15 -78h396l-66 -149h-336q15 -244 183 -244q78 0 138 50t91 138h346q-69 -221 -230 -346t-374 -125q-231 0 -356 135.5t-134 391.5h-149l65 149h91q2 14 6 39.5t6 38.5
h-111l66 149h86q31 88 75 166t106.5 148t136.5 120t168.5 79.5t199.5 29.5q226 0 348.5 -104.5t122.5 -292.5q0 -32 -6 -70h-338z" />
    <glyph glyph-name="rupeeIndian" unicode="&#x20b9;" horiz-adv-x="1286" 
d="M1006 1190v-4q78 -38 102 -117h252l-100 -190h-168q-41 -102 -147 -177t-277 -104v-4q66 -25 108.5 -80.5t73.5 -159.5l100 -354h-381l-86 342q-26 105 -78.5 151t-142.5 46h-31l56 217h123q205 0 290 123h-546l100 190h469q-43 121 -231 121h-261l101 190h1106
l-101 -190h-331z" />
    <glyph glyph-name="liraTurkish" unicode="&#x20ba;" horiz-adv-x="1286" 
d="M913 666h369q-62 -337 -278.5 -511.5t-559.5 -174.5q-178 0 -370 30l119 475l-199 -94l47 193l201 96l28 121l-198 -94l49 192l198 96l97 385h356l-55 -221l375 180l-48 -194l-376 -180l-29 -121l375 180l-49 -195l-375 -178l-90 -364q167 0 272.5 95.5t140.5 283.5z" />
    <glyph glyph-name="uni20BC" unicode="&#x20bc;" horiz-adv-x="1554" 
d="M1169 1458l-49 -194q404 -62 404 -473q0 -96 -31 -226l-141 -565h-318l144 571q24 102 24 177q0 99 -37.5 153.5t-115.5 69.5l-242 -971h-318l244 977q-131 -7 -200.5 -83.5t-112.5 -254.5l-160 -639h-315l172 694q73 290 238.5 433t451.5 147l45 184h317z" />
    <glyph glyph-name="ruble" unicode="&#x20bd;" horiz-adv-x="1286" 
d="M391 1380h479q236 0 353.5 -101t117.5 -286q0 -82 -30.5 -161.5t-92 -150.5t-168.5 -115t-245 -44h-275l-26 -104h358l-57 -230h-359l-45 -188h-354l45 188h-149l57 230h150l26 104h-151l63 250h150zM682 1130l-90 -358h162q114 0 167.5 58t53.5 137q0 163 -182 163h-111
z" />
    <glyph glyph-name="careof" unicode="&#x2105;" horiz-adv-x="1990" 
d="M633 1413q163 0 256.5 -77t93.5 -208q0 -26 -4 -38h-289q4 12 4 26q0 44 -21.5 67t-58.5 23q-51 0 -89.5 -44.5t-54 -97.5t-15.5 -99q0 -119 84 -119q39 0 70 26t46 76h287q-44 -144 -157.5 -226.5t-264.5 -82.5q-167 0 -260.5 89.5t-93.5 246.5q0 75 30.5 150.5
t86.5 140.5t147.5 106t202.5 41zM575 0h-204l1087 1380h205zM1530 741q177 0 276 -91.5t99 -252.5q0 -74 -29.5 -148t-84 -138t-144.5 -104t-199 -40q-177 0 -276 91.5t-99 252.5q0 74 29.5 148t84 138t144.5 104t199 40zM1518 535q-52 0 -89 -41.5t-52 -92.5t-15 -100
q0 -127 98 -127q52 0 89 41t52 91.5t15 99.5q0 129 -98 129z" />
    <glyph glyph-name="literSign" unicode="&#x2113;" horiz-adv-x="925" 
d="M459 418l-4 -17q-11 -53 -11 -73q0 -111 107 -111q47 0 88 12l-59 -237q-64 -12 -144 -12q-169 0 -250.5 69t-81.5 211q0 53 15 123q-12 1 -94 12l43 168q82 -11 94 -12l112 453q38 155 95.5 246t131.5 127t181 36q130 0 205.5 -78.5t75.5 -247.5q0 -97 -31 -196
t-91 -191.5t-159 -167.5t-223 -114zM723 1210q-35 0 -58.5 -34t-46.5 -123l-104 -418q87 52 149 133t89.5 164t27.5 162q0 116 -57 116z" />
    <glyph glyph-name="numero" unicode="&#x2116;" horiz-adv-x="2490" 
d="M1358 0h-488l-122 575q-65 300 -113 584h-4q-63 -348 -129 -614l-135 -545h-340l362 1458h485l125 -575q50 -243 111 -584h4q54 316 131 614l135 545h340zM2181 1282q176 0 275.5 -92t99.5 -252q0 -74 -29.5 -148t-84 -138t-144.5 -104t-199 -40q-177 0 -276 91.5
t-99 252.5q0 74 29.5 148t84 138t144.5 104t199 40zM2167 1075q-51 0 -88 -40.5t-52.5 -91t-15.5 -99.5q0 -129 100 -129q52 0 89 40.5t52 91t15 99.5q0 129 -100 129zM2316 172h-733l59 236h734z" />
    <glyph glyph-name="published" unicode="&#x2117;" horiz-adv-x="1634" 
d="M817 1489q333 0 536 -208.5t203 -551.5t-203 -551.5t-536 -208.5t-536 208.5t-203 551.5t203 551.5t536 208.5zM817 1360q-276 0 -444 -173t-168 -458t168 -458t444 -173q277 0 446 173.5t169 457.5t-169 457.5t-446 173.5zM512 1169h375q175 0 263.5 -80.5t88.5 -224.5
t-88.5 -225.5t-263.5 -81.5h-150v-285h-225v897zM737 985v-242h119q152 0 152 121q0 58 -38.5 89.5t-115.5 31.5h-117z" />
    <glyph glyph-name="trademark" unicode="&#x2122;" horiz-adv-x="1755" 
d="M848 1266h-211l-135 -537h-230l136 537h-211l47 192h651zM1729 729h-203l82 330q62 239 69 262h-4q-91 -200 -119 -258l-163 -334h-269l6 334q3 129 9 258h-4q-23 -114 -62 -262l-82 -330h-203l183 729h338l-2 -293q0 -136 -15 -268h4q58 147 119 268l141 293h357z" />
    <glyph glyph-name="Ohm" unicode="&#x2126;" horiz-adv-x="1529" 
d="M942 1491q274 0 431 -125.5t157 -368.5q0 -203 -100.5 -370.5t-301.5 -323.5v-4h289l-74 -299h-628l76 311q170 132 260 285t90 311q0 135 -66.5 206t-181.5 71q-77 0 -143.5 -32t-113 -84t-79.5 -118.5t-49 -136.5t-16 -137q0 -190 108 -365l-76 -311h-596l74 299h297v4
q-75 105 -116.5 210.5t-41.5 231.5q0 103 30.5 206.5t96 201t157.5 172.5t226 120.5t291 45.5z" />
    <glyph glyph-name="estimated" unicode="&#x212e;" horiz-adv-x="1767" 
d="M885 1413q182 0 332 -60t247.5 -162t151 -235.5t53.5 -283.5h-1253q-12 0 -20.5 -8t-8.5 -19v-342q0 -32 7 -52t26 -38q189 -186 465 -186q147 0 277 62t212 163h142q-37 -52 -92 -98.5t-131.5 -88t-182 -66t-225.5 -24.5q-176 0 -324 53.5t-250 148.5t-158.5 227
t-56.5 286q0 153 54.5 285t154.5 229.5t249.5 153t330.5 55.5zM885 1360q-272 0 -465 -193q-19 -17 -26 -35t-7 -49v-342q0 -10 8.5 -17t20.5 -7h934q26 0 26 24v342q0 31 -6 49t-24 35q-196 193 -461 193z" />
    <glyph glyph-name="oneeighth" unicode="&#x215b;" horiz-adv-x="1724" 
d="M348 0h-205l1088 1380h205zM500 553h-262l124 500h-210l45 182q110 0 176 35t98 110h236zM1356 848q147 0 231 -61.5t84 -165.5q0 -73 -54 -133t-151 -76v-4q59 -19 93 -67t34 -112q0 -45 -22.5 -88t-66.5 -79.5t-119.5 -59t-170.5 -22.5q-159 0 -246 63t-87 176
q0 81 61 145.5t170 77.5v4q-55 21 -84 64.5t-29 99.5q0 91 95.5 164.5t261.5 73.5zM1341 672q-55 0 -85.5 -28t-30.5 -62t23.5 -54t66.5 -20q53 0 85 27.5t32 64.5q0 34 -24 53t-67 19zM1255 334q-60 0 -91 -30.5t-31 -67.5q0 -35 25.5 -55.5t70.5 -20.5q56 0 89.5 29
t33.5 71q0 35 -25.5 54.5t-71.5 19.5z" />
    <glyph glyph-name="threeeighths" unicode="&#x215c;" horiz-adv-x="1957" 
d="M600 1401q153 0 236.5 -58t83.5 -161q0 -152 -195 -213v-4q113 -42 113 -158q0 -49 -23.5 -96.5t-68 -88t-119 -65.5t-166.5 -25q-169 0 -255.5 60.5t-86.5 177.5q0 28 6 66h256q-6 -21 -6 -39q0 -78 98 -78q56 0 86.5 28t30.5 60q0 74 -117 74h-22l45 178h28
q68 0 106 26.5t38 65.5q0 66 -86 66q-102 0 -127 -111h-250q31 138 135.5 216.5t259.5 78.5zM582 0h-205l1087 1380h205zM1589 848q147 0 231.5 -61.5t84.5 -165.5q0 -73 -54 -133t-151 -76v-4q59 -19 93 -67t34 -112q0 -45 -22.5 -88t-66.5 -79.5t-119.5 -59t-170.5 -22.5
q-159 0 -246.5 63t-87.5 176q0 81 61 145.5t171 77.5v4q-55 21 -84 64.5t-29 99.5q0 91 95 164.5t261 73.5zM1575 672q-55 0 -86 -28t-31 -62t23.5 -54t66.5 -20q53 0 85 27.5t32 64.5q0 34 -23.5 53t-66.5 19zM1489 334q-60 0 -91.5 -31t-31.5 -67q0 -35 25.5 -55.5
t70.5 -20.5q56 0 89.5 29t33.5 71q0 35 -25 54.5t-71 19.5z" />
    <glyph glyph-name="fiveeighths" unicode="&#x215d;" horiz-adv-x="1959" 
d="M889 1182h-400l-45 -117h5q76 45 157 45q114 0 181 -66t67 -174q0 -56 -26.5 -113.5t-76 -108.5t-131.5 -83.5t-182 -32.5q-149 0 -233 57t-84 161q0 23 6 47h254q-4 -8 -4 -17q0 -32 24.5 -49.5t65.5 -17.5q64 0 97.5 42.5t33.5 96.5q0 41 -23 62.5t-63 21.5
q-39 0 -68 -20.5t-43 -53.5l-241 17l174 501h602zM584 0h-205l1087 1380h205zM1591 848q147 0 231.5 -61.5t84.5 -165.5q0 -73 -54 -133t-151 -76v-4q59 -19 93 -67t34 -112q0 -45 -22.5 -88t-66.5 -79.5t-119.5 -59t-170.5 -22.5q-159 0 -246.5 63t-87.5 176q0 81 61 145.5
t171 77.5v4q-55 21 -84 64.5t-29 99.5q0 91 95 164.5t261 73.5zM1577 672q-55 0 -86 -28t-31 -62t23.5 -54t66.5 -20q53 0 85 27.5t32 64.5q0 34 -23.5 53t-66.5 19zM1491 334q-60 0 -91.5 -31t-31.5 -67q0 -35 25.5 -55.5t70.5 -20.5q56 0 89.5 29t33.5 71q0 35 -25 54.5
t-71 19.5z" />
    <glyph glyph-name="seveneighths" unicode="&#x215e;" horiz-adv-x="1767" 
d="M932 1380l-47 -192q-121 -124 -228 -290.5t-184 -344.5h-291q87 182 202.5 348t229.5 275h-432l49 204h701zM393 0h-205l1088 1380h205zM1401 848q147 0 231 -61.5t84 -165.5q0 -73 -54 -133t-151 -76v-4q59 -19 93 -67t34 -112q0 -45 -22.5 -87.5t-66 -79.5t-119 -59.5
t-170.5 -22.5q-159 0 -246.5 63t-87.5 176q0 81 61 145.5t170 77.5v4q-55 21 -84 64.5t-29 99.5q0 91 95.5 164.5t261.5 73.5zM1386 672q-55 0 -85.5 -28t-30.5 -62t23.5 -54t66.5 -20q53 0 85 27.5t32 64.5q0 34 -24 53t-67 19zM1300 334q-60 0 -91 -30.5t-31 -67.5
q0 -35 25.5 -55.5t70.5 -20.5q56 0 89.5 29t33.5 71q0 35 -25.5 54.5t-71.5 19.5z" />
    <glyph glyph-name="Sevenroman" unicode="&#x2166;" horiz-adv-x="2646" 
d="M780 0h-463l-75 1458h348l18 -563q10 -316 2 -573h4q117 279 277 573l297 563h393zM1698 0h-355l363 1458h354zM2361 0h-354l363 1458h354z" />
    <glyph glyph-name="partialdiff" unicode="&#x2202;" horiz-adv-x="1294" 
d="M760 1491q241 0 364 -135t123 -383q0 -84 -14 -177t-43.5 -191t-72 -189.5t-104 -173.5t-134.5 -143t-168 -96.5t-201 -35.5q-227 0 -342 115t-115 319q0 66 19.5 140.5t65.5 153.5t111 142t165.5 103.5t220.5 40.5q192 0 276 -117h4q27 69 27 152q0 102 -44.5 157.5
t-129.5 55.5q-122 0 -164 -142h-350q42 186 175 295t331 109zM670 748q-63 0 -116.5 -36.5t-86.5 -91.5t-51.5 -115t-18.5 -112q0 -79 36 -121.5t106 -42.5q67 0 122 38t86.5 95t48.5 115t17 107q0 79 -36.5 121.5t-106.5 42.5z" />
    <glyph glyph-name="increment" unicode="&#x2206;" horiz-adv-x="1462" 
d="M1331 0h-1458l864 1458h459zM971 289l-23 409q-16 345 -18 531h-4q-140 -290 -273 -531l-225 -409h543z" />
    <glyph glyph-name="product" unicode="&#x220f;" horiz-adv-x="1437" 
d="M1284 -246h-354v1403h-420v-1403h-354v1704h1128v-1704z" />
    <glyph glyph-name="summation" unicode="&#x2211;" horiz-adv-x="1079" 
d="M1008 1155h-551l329 -549l-329 -547h551v-305h-936v305l338 547l-338 549v303h936v-303z" />
    <glyph glyph-name="minus" unicode="&#x2212;" horiz-adv-x="1159" 
d="M1038 516h-917v264h917v-264z" />
    <glyph glyph-name="divisionslash" unicode="&#x2215;" horiz-adv-x="1030" 
d="M35 -182h-279l1028 1708h279z" />
    <glyph glyph-name="bulletoperator" unicode="&#x2219;" horiz-adv-x="759" 
d="M561 438h-362v375h362v-375z" />
    <glyph glyph-name="radical" unicode="&#x221a;" horiz-adv-x="1380" 
d="M852 -246h-451l-180 764h-170v273h400l182 -762h4l407 1429h295z" />
    <glyph glyph-name="infinity" unicode="&#x221e;" horiz-adv-x="1445" 
d="M1069 1006q157 0 251.5 -102.5t94.5 -272.5t-94.5 -272.5t-251.5 -102.5q-112 0 -195 48t-151 132q-68 -84 -151 -132t-195 -48q-158 0 -252 102t-94 273t94 273t252 102q112 0 194.5 -48.5t151.5 -132.5q69 84 151.5 132.5t194.5 48.5zM408 506q50 0 90.5 31.5
t85.5 93.5q-45 62 -85.5 93.5t-90.5 31.5q-56 0 -87.5 -33.5t-31.5 -91.5q0 -57 31.5 -91t87.5 -34zM1038 506q57 0 88 34t31 91q0 58 -31 91.5t-88 33.5q-50 0 -90.5 -31.5t-85.5 -93.5q45 -62 85.5 -93.5t90.5 -31.5z" />
    <glyph glyph-name="integral" unicode="&#x222b;" horiz-adv-x="761" 
d="M586 1477q84 0 162 -19v-233q-20 4 -48 4q-77 0 -114 -35.5t-37 -118.5v-1112q0 -180 -96 -270t-279 -90q-86 0 -160 18v234q25 -5 47 -5q77 0 114.5 35.5t37.5 118.5v1112q0 180 95.5 270.5t277.5 90.5z" />
    <glyph glyph-name="approxequal" unicode="&#x2248;" horiz-adv-x="1159" 
d="M403 1065q51 0 103.5 -22.5t88.5 -49t77.5 -49t72.5 -22.5q45 0 71 31.5t26 84.5h200q0 -161 -78 -259.5t-208 -98.5q-51 0 -103.5 22.5t-88.5 49t-77.5 49t-72.5 22.5q-46 0 -71.5 -31t-25.5 -85h-200q0 161 77.5 259.5t208.5 98.5zM403 618q51 0 103.5 -22.5t88.5 -49
t77.5 -49t72.5 -22.5q46 0 71.5 31.5t25.5 85.5h200q0 -161 -78 -260t-208 -99q-51 0 -103.5 22.5t-88.5 49.5t-77.5 49.5t-72.5 22.5q-45 0 -71 -32t-26 -85h-200q0 161 77.5 259.5t208.5 98.5z" />
    <glyph glyph-name="notequal" unicode="&#x2260;" horiz-adv-x="1159" 
d="M739 729l-88 -162h387v-254h-524l-127 -231h-231l125 231h-160v254h299l86 162h-385v254h524l125 231h234l-127 -231h161v-254h-299z" />
    <glyph glyph-name="lessequal" unicode="&#x2264;" horiz-adv-x="1159" 
d="M1038 922l-604 -193v-4l604 -190v-254l-917 294v304l917 297v-254zM1038 240v-240h-917v240h917z" />
    <glyph glyph-name="greaterequal" unicode="&#x2265;" horiz-adv-x="1159" 
d="M1038 879v-304l-917 -294v254l604 190v4l-604 193v254zM1038 0h-917v240h917v-240z" />
    <glyph glyph-name="lozenge" unicode="&#x25ca;" horiz-adv-x="1368" 
d="M1286 729l-377 -729h-452l-375 729l375 729h452zM430 729l254 -487l252 487l-252 488z" />
    <glyph glyph-name="apple" unicode="&#xf8ff;" horiz-adv-x="1327" 
d="M309 1591h709q129 0 204.5 -75.5t75.5 -204.5v-1164q0 -129 -75.5 -204.5t-204.5 -75.5h-709q-129 0 -204.5 75.5t-75.5 204.5v1164q0 129 75.5 204.5t204.5 75.5zM1018 1450h-709q-65 0 -102 -37t-37 -102v-1164q0 -65 37 -102t102 -37h709q64 0 101.5 37t37.5 102v1164
q0 65 -37.5 102t-101.5 37zM666 1325q177 0 276.5 -82.5t99.5 -228.5q0 -84 -29.5 -143t-113.5 -136q-81 -76 -107 -129t-26 -145h-227q-2 27 -2 78q0 101 24 158t105 139q60 60 78 94t18 80q0 45 -25.5 71.5t-70.5 26.5q-117 0 -117 -160h-277q1 183 104.5 280t289.5 97z
M793 133h-279v244h279v-244z" />
    <glyph glyph-name="ff" unicode="&#xfb00;" horiz-adv-x="1413" 
d="M1460 1477q89 0 168 -23l-57 -229q-20 4 -47 4q-78 0 -124 -37.5t-69 -126.5l-6 -25h191l-62 -247h-190l-199 -793h-336l197 793h-336l-199 -793h-336l197 793h-166l61 247h166l27 107q41 165 155 247.5t291 82.5q89 0 168 -23l-57 -229q-20 4 -47 4q-78 0 -124 -37.5
t-69 -126.5l-6 -25h336l27 107q41 165 155 247.5t291 82.5z" />
    <glyph glyph-name="fi" unicode="&#xfb01;" horiz-adv-x="1329" 
d="M590 793l-199 -793h-336l197 793h-166l61 247h166l27 107q41 165 155 247.5t291 82.5q89 0 168 -23l-57 -229q-20 4 -47 4q-78 0 -124 -37.5t-69 -126.5l-6 -25h191l-62 -247h-190zM1438 1458l-68 -268h-340l68 268h340zM993 1040h340l-258 -1040h-340z" />
    <glyph glyph-name="fl" unicode="&#xfb02;" horiz-adv-x="1329" 
d="M590 793l-199 -793h-336l197 793h-166l61 247h166l27 107q41 165 155 247.5t291 82.5q89 0 168 -23l-57 -229q-20 4 -47 4q-78 0 -124 -37.5t-69 -126.5l-6 -25h191l-62 -247h-190zM1438 1458l-363 -1458h-340l363 1458h340z" />
    </font>
</defs>
</svg>
