<?xml version="1.0" standalone="no"?>
<!DOCTYPE svg PUBLIC "-//W3C//DTD SVG 1.1//EN" "http://www.w3.org/Graphics/SVG/1.1/DTD/svg11.dtd" >
<svg xmlns="http://www.w3.org/2000/svg" xmlns:xlink="http://www.w3.org/1999/xlink" version="1.1">
<metadata>
Created by FontForge 20170731 at Mon Nov  2 20:40:56 2020
 By Aleksey,,,
Copyright (c) 2015 Monotype Imaging Inc.  All rights reserved.
</metadata>
<defs>
<font id="NeueHaasUnicaW1G-Black" horiz-adv-x="1261" >
  <font-face 
    font-family="Neue Haas Unica W1G Black"
    font-weight="900"
    font-stretch="normal"
    units-per-em="2048"
    panose-1="2 11 10 4 3 2 6 2 2 3"
    ascent="1565"
    descent="-483"
    x-height="1040"
    cap-height="1458"
    bbox="-1024 -645 2611 2353"
    underline-thickness="102"
    underline-position="-307"
    unicode-range="U+0020-FEFF"
  />
<missing-glyph horiz-adv-x="1339" 
d="M307 1591h725q131 0 207 -76t76 -206v-1159q0 -130 -76.5 -206.5t-206.5 -76.5h-725q-130 0 -206 76t-76 207v1159q0 131 75.5 206.5t206.5 75.5zM1032 1438h-725q-60 0 -94.5 -34.5t-34.5 -94.5v-1159q0 -60 34.5 -95t94.5 -35h725q60 0 94.5 35t34.5 95v1159
q0 60 -34.5 94.5t-94.5 34.5zM668 1325q183 0 286 -83.5t103 -231.5q0 -82 -30.5 -140.5t-111.5 -134.5t-108 -127.5t-27 -132.5h-241q-7 51 -7 90q0 89 23.5 142.5t99.5 130.5q60 61 78.5 94t18.5 76q0 41 -22.5 64.5t-61.5 23.5q-103 0 -103 -152h-297q1 185 106 283
t294 98zM807 133h-295v258h295v-258z" />
    <glyph glyph-name="f_f" unicode="ff" horiz-adv-x="1488" 
d="M1425 1198q-75 0 -111 -33.5t-36 -109.5v-15h188v-280h-188v-760h-393v760h-318v-760h-393v760h-160v280h160v60q0 189 105 284t305 95q83 0 182 -21v-266q-15 6 -51 6q-75 0 -111.5 -33.5t-36.5 -109.5v-15h318v60q0 189 104.5 284t304.5 95q84 0 183 -21v-266
q-15 6 -52 6z" />
    <glyph glyph-name="f_f_i" unicode="ffi" horiz-adv-x="2103" 
d="M885 1040v60q0 189 104.5 284t304.5 95q84 0 183 -21v-266q-15 6 -52 6q-75 0 -111 -33.5t-36 -109.5v-15h188v-280h-188v-760h-393v760h-318v-760h-393v760h-160v280h160v60q0 189 105 284t305 95q83 0 182 -21v-266q-15 6 -51 6q-75 0 -111.5 -33.5t-36.5 -109.5v-15
h318zM1993 1458v-289h-394v289h394zM1599 1040h394v-1040h-394v1040z" />
    <glyph glyph-name="f_f_l" unicode="ffl" horiz-adv-x="2103" 
d="M885 1040v60q0 189 104.5 284t304.5 95q84 0 183 -21v-266q-15 6 -52 6q-75 0 -111 -33.5t-36 -109.5v-15h188v-280h-188v-760h-393v760h-318v-760h-393v760h-160v280h160v60q0 189 105 284t305 95q83 0 182 -21v-266q-15 6 -51 6q-75 0 -111.5 -33.5t-36.5 -109.5v-15
h318zM1993 1458v-1458h-394v1458h394z" />
    <glyph glyph-name="f_i" unicode="fi" horiz-adv-x="1392" 
d="M174 1040v60q0 189 105 284t305 95q83 0 182 -21v-266q-15 6 -51 6q-75 0 -111.5 -33.5t-36.5 -109.5v-15h189v-280h-189v-760h-393v760h-160v280h160zM1282 1458v-289h-393v289h393zM889 1040h393v-1040h-393v1040z" />
    <glyph glyph-name="f_l" unicode="fl" horiz-adv-x="1392" 
d="M174 1040v60q0 189 105 284t305 95q83 0 182 -21v-266q-15 6 -51 6q-75 0 -111.5 -33.5t-36.5 -109.5v-15h189v-280h-189v-760h-393v760h-160v280h160zM1282 1458v-1458h-393v1458h393z" />
    <glyph glyph-name=".notdef" horiz-adv-x="1339" 
d="M307 1591h725q131 0 207 -76t76 -206v-1159q0 -130 -76.5 -206.5t-206.5 -76.5h-725q-130 0 -206 76t-76 207v1159q0 131 75.5 206.5t206.5 75.5zM1032 1438h-725q-60 0 -94.5 -34.5t-34.5 -94.5v-1159q0 -60 34.5 -95t94.5 -35h725q60 0 94.5 35t34.5 95v1159
q0 60 -34.5 94.5t-94.5 34.5zM668 1325q183 0 286 -83.5t103 -231.5q0 -82 -30.5 -140.5t-111.5 -134.5t-108 -127.5t-27 -132.5h-241q-7 51 -7 90q0 89 23.5 142.5t99.5 130.5q60 61 78.5 94t18.5 76q0 41 -22.5 64.5t-61.5 23.5q-103 0 -103 -152h-297q1 185 106 283
t294 98zM807 133h-295v258h295v-258z" />
    <glyph glyph-name=".null" horiz-adv-x="0" 
 />
    <glyph glyph-name="nonmarkingreturn" horiz-adv-x="682" 
 />
    <glyph glyph-name="space" unicode=" " horiz-adv-x="471" 
 />
    <glyph glyph-name="exclam" unicode="!" horiz-adv-x="751" 
d="M541 457h-328l-61 1001h450zM582 0h-410v330h410v-330z" />
    <glyph glyph-name="quotedbl" unicode="&#x22;" horiz-adv-x="1005" 
d="M420 870h-285l-45 588h375zM868 870h-284l-45 588h376z" />
    <glyph glyph-name="numbersign" unicode="#" horiz-adv-x="1472" 
d="M1161 803l-35 -223h197l-45 -265h-195l-49 -315h-305l49 315h-207l-49 -315h-305l49 315h-196l43 265h196l35 223h-197l43 264h197l49 313h305l-49 -313h207l49 313h305l-49 -313h197l-45 -264h-195zM856 803h-207l-35 -223h207z" />
    <glyph glyph-name="dollar" unicode="$" horiz-adv-x="1343" 
d="M1262 410q0 -182 -121.5 -295.5t-341.5 -139.5v-178h-267v178q-218 29 -335 149.5t-117 319.5h412q0 -91 47.5 -133.5t144.5 -42.5q87 0 131.5 31.5t44.5 87.5q0 59 -53 87.5t-207 70.5q-65 18 -106 30.5t-98.5 34.5t-94 43.5t-77.5 54.5t-64 70.5t-38.5 89t-15.5 111.5
q0 173 111 284t315 140v162h267v-158q207 -25 319.5 -138t112.5 -308h-400q0 163 -172 163q-77 0 -118 -29.5t-41 -84.5q0 -58 50.5 -85t197.5 -65q66 -16 111 -28.5t103.5 -34t97.5 -44t80.5 -56.5t66 -74t40 -94t15.5 -119z" />
    <glyph glyph-name="percent" unicode="%" horiz-adv-x="1957" 
d="M727 -61h-242l746 1503h242zM465 1423q179 0 275 -111.5t96 -318.5q0 -206 -96.5 -318t-274.5 -112t-275.5 112t-97.5 318q0 207 97 318.5t276 111.5zM465 1221q-98 0 -98 -228q0 -115 23.5 -170t74.5 -55q98 0 98 225q0 228 -98 228zM1495 817q178 0 274.5 -112
t96.5 -318q0 -207 -96 -318.5t-275 -111.5t-276 111.5t-97 318.5q0 206 97.5 318t275.5 112zM1495 612q-98 0 -98 -225q0 -116 23.5 -171.5t74.5 -55.5q98 0 98 227q0 225 -98 225z" />
    <glyph glyph-name="ampersand" unicode="&#x26;" horiz-adv-x="1617" 
d="M1169 0l-98 98q-176 -131 -426 -131q-272 0 -420.5 116.5t-148.5 315.5q0 266 286 410q-85 87 -118 155.5t-33 157.5q0 165 126.5 267t328.5 102q209 0 334.5 -95.5t125.5 -252.5q0 -229 -262 -377l197 -193q35 75 35 207h372q-3 -270 -149 -458l330 -322h-480zM666 1229
q-47 0 -76 -30t-29 -79q0 -45 19 -83t71 -93q119 91 119 180q0 46 -29 75.5t-75 29.5zM676 248q101 0 180 61l-283 281q-53 -38 -76.5 -80t-23.5 -98q0 -73 55 -118.5t148 -45.5z" />
    <glyph glyph-name="quotesingle" unicode="'" horiz-adv-x="555" 
d="M420 870h-285l-45 588h375z" />
    <glyph glyph-name="parenleft" unicode="(" horiz-adv-x="757" 
d="M383 1518h313q-110 -243 -158.5 -459.5t-48.5 -450.5q0 -233 48 -448.5t159 -460.5h-313q-159 222 -230 440.5t-71 468.5t71 469.5t230 440.5z" />
    <glyph glyph-name="parenright" unicode=")" horiz-adv-x="757" 
d="M61 1518h314q159 -221 230 -440.5t71 -469.5t-71 -468.5t-230 -440.5h-314q111 245 159 460.5t48 448.5q0 234 -48.5 450.5t-158.5 459.5z" />
    <glyph glyph-name="asterisk" unicode="*" horiz-adv-x="962" 
d="M569 1163l262 148l89 -279l-297 -33l221 -206l-238 -170l-125 272l-125 -272l-235 170l221 206l-299 33l90 279l260 -148l-57 295h293z" />
    <glyph glyph-name="plus" unicode="+" horiz-adv-x="1159" 
d="M737 803h310v-305h-310v-318h-315v318h-309v305h309v315h315v-315z" />
    <glyph glyph-name="comma" unicode="," horiz-adv-x="595" 
d="M502 0l-219 -379h-232l172 379h-131v410h410v-410z" />
    <glyph glyph-name="hyphen" unicode="-" horiz-adv-x="722" 
d="M662 461h-601v274h601v-274z" />
    <glyph glyph-name="period" unicode="." horiz-adv-x="593" 
d="M502 0h-410v410h410v-410z" />
    <glyph glyph-name="slash" unicode="/" horiz-adv-x="1062" 
d="M348 -182h-287l609 1708h288z" />
    <glyph glyph-name="zero" unicode="0" horiz-adv-x="1320" 
d="M662 1413q290 0 447 -188.5t157 -534.5t-157 -534.5t-447 -188.5t-447.5 188.5t-157.5 534.5t157.5 534.5t447.5 188.5zM662 1114q-96 0 -146.5 -110.5t-50.5 -313.5q0 -204 50.5 -314t146.5 -110t145 109.5t49 314.5q0 204 -49 314t-145 110z" />
    <glyph glyph-name="one" unicode="1" horiz-adv-x="1320" 
d="M934 0h-408v846h-336v291q182 0 270.5 57t108.5 186h365v-1380z" />
    <glyph glyph-name="two" unicode="2" horiz-adv-x="1320" 
d="M655 1413q251 0 399 -119t148 -307q0 -87 -26 -156t-78 -122t-114 -91.5t-150 -76.5q-169 -78 -225 -123.5t-62 -98.5h694v-319h-1163q-4 46 -4 80q0 227 87 370t310 259q51 26 79.5 41t67.5 37t60.5 37.5t46.5 37t37 40t20.5 41.5t8.5 48q0 56 -35.5 89.5t-96.5 33.5
q-76 0 -119 -49t-44 -143h-404q1 235 149 363t414 128z" />
    <glyph glyph-name="three" unicode="3" horiz-adv-x="1320" 
d="M651 1413q257 0 405 -106t148 -285q0 -114 -55.5 -185.5t-181.5 -117.5v-4q133 -43 194.5 -121t61.5 -203q0 -195 -153.5 -309.5t-412.5 -114.5q-291 0 -445.5 128.5t-154.5 371.5h410q0 -99 48.5 -150t139.5 -51q75 0 118.5 36.5t43.5 98.5q0 74 -53 111t-166 37h-35
v291h47q90 0 142.5 38t52.5 103q0 61 -40.5 97t-113.5 36q-87 0 -131.5 -49t-44.5 -141h-397q0 230 151.5 359.5t421.5 129.5z" />
    <glyph glyph-name="four" unicode="4" horiz-adv-x="1320" 
d="M1290 266h-231v-266h-393v266h-646v312l523 802h516v-817h231v-297zM360 563h322v139q0 214 14 400h-4q-86 -165 -207 -348z" />
    <glyph glyph-name="five" unicode="5" horiz-adv-x="1320" 
d="M1147 1061h-635l-23 -232h5q117 99 278 99q204 0 333.5 -126.5t129.5 -326.5q0 -231 -159.5 -369.5t-424.5 -138.5q-259 0 -411 117t-152 322h408q1 -67 45.5 -106.5t115.5 -39.5q83 0 128.5 49.5t45.5 145.5q0 92 -46 141t-123 49q-65 0 -106 -34.5t-54 -90.5l-393 25
l75 835h963v-319z" />
    <glyph glyph-name="six" unicode="6" horiz-adv-x="1320" 
d="M698 1413q231 0 372.5 -114t154.5 -318h-404q-15 143 -141 143q-89 0 -143 -84t-60 -260h4q117 123 310 123q198 0 325 -124.5t127 -319.5q0 -218 -157 -355t-406 -137q-283 0 -438.5 178.5t-155.5 518.5q0 351 163 550t449 199zM682 629q-71 0 -114.5 -51t-43.5 -134
q0 -82 44 -131t116 -49q70 0 114 50t44 128q0 83 -44 135t-116 52z" />
    <glyph glyph-name="seven" unicode="7" horiz-adv-x="1320" 
d="M1208 1380v-313q-152 -210 -263.5 -488.5t-168.5 -578.5h-434q66 306 192.5 585t276.5 464h-721v331h1118z" />
    <glyph glyph-name="eight" unicode="8" horiz-adv-x="1320" 
d="M662 1413q245 0 393.5 -107t148.5 -282q0 -113 -67.5 -194.5t-186.5 -110.5v-4q130 -28 208.5 -119t78.5 -219q0 -193 -152.5 -301.5t-422.5 -108.5q-272 0 -425 108.5t-153 301.5q0 128 78.5 219t208.5 119v4q-119 29 -186.5 110.5t-67.5 194.5q0 175 149.5 282
t395.5 107zM662 1126q-77 0 -122.5 -38.5t-45.5 -102.5q0 -63 46 -102t122 -39t120.5 38.5t44.5 102.5t-45 102.5t-120 38.5zM662 561q-82 0 -129.5 -40t-47.5 -109q0 -70 48 -112t129 -42q79 0 126.5 42.5t47.5 111.5t-47 109t-127 40z" />
    <glyph glyph-name="nine" unicode="9" horiz-adv-x="1320" 
d="M623 -31q-230 0 -371 113.5t-156 316.5h404q8 -69 44 -106t97 -37q89 0 144 85t61 261h-4q-120 -123 -312 -123q-198 0 -324 124.5t-126 320.5q0 217 156 354t405 137q283 0 438.5 -178t155.5 -518q0 -351 -163 -550.5t-449 -199.5zM639 754q71 0 115.5 50.5t44.5 133.5
q0 79 -44.5 129.5t-115.5 50.5t-115.5 -50.5t-44.5 -129.5q0 -83 44 -133.5t116 -50.5z" />
    <glyph glyph-name="colon" unicode=":" horiz-adv-x="593" 
d="M502 631h-410v409h410v-409zM502 0h-410v410h410v-410z" />
    <glyph glyph-name="semicolon" unicode=";" horiz-adv-x="595" 
d="M502 631h-410v409h410v-409zM502 0l-219 -379h-232l172 379h-131v410h410v-410z" />
    <glyph glyph-name="less" unicode="&#x3c;" horiz-adv-x="1159" 
d="M1047 864l-572 -213v-4l572 -213v-319l-934 350v369l934 350v-320z" />
    <glyph glyph-name="equal" unicode="=" horiz-adv-x="1159" 
d="M1047 727h-934v287h934v-287zM1047 283h-934v286h934v-286z" />
    <glyph glyph-name="greater" unicode="&#x3e;" horiz-adv-x="1159" 
d="M1047 834v-369l-934 -350v319l571 213v4l-571 213v320z" />
    <glyph glyph-name="question" unicode="?" horiz-adv-x="1212" 
d="M608 1491q252 0 394.5 -105t142.5 -290q0 -104 -42 -176.5t-157 -167.5q-112 -92 -149 -156t-37 -164h-332q-6 56 -6 111q0 113 34 179t144 167q82 72 106.5 111t24.5 92q0 52 -33 82t-90 30q-75 0 -113 -47t-38 -149h-406q3 236 147.5 359.5t409.5 123.5zM799 0h-410
v330h410v-330z" />
    <glyph glyph-name="at" unicode="@" horiz-adv-x="1775" 
d="M915 1458q242 0 425.5 -96.5t283.5 -274t100 -411.5q0 -135 -36 -241t-98 -170.5t-139.5 -98t-166.5 -33.5q-221 0 -272 160h-4q-85 -160 -258 -160q-148 0 -230.5 105t-85.5 303q3 231 116 375.5t288 144.5q145 0 202 -123h4q7 48 21 102h278q-35 -167 -59 -332.5
t-24 -246.5q0 -103 75 -103q78 0 131.5 81.5t53.5 236.5q0 261 -165 419t-440 158q-157 0 -283 -52.5t-207.5 -145t-125 -216t-43.5 -268.5q0 -291 169.5 -456.5t459.5 -165.5q263 0 442 104l92 -182q-224 -127 -534 -127q-253 0 -441 98t-290.5 285.5t-102.5 443.5
q0 181 60 342t168.5 282.5t273 192t362.5 70.5zM891 803q-68 0 -112 -64.5t-44 -185.5q0 -78 27.5 -121t77.5 -43q64 0 108.5 71t44.5 191q0 72 -27 112t-75 40z" />
    <glyph glyph-name="A" unicode="A" horiz-adv-x="1497" 
d="M995 262h-493l-74 -262h-432l489 1458h527l489 -1458h-432zM905 584l-28 100q-63 225 -125 492h-4q-65 -280 -127 -492l-29 -100h313z" />
    <glyph glyph-name="B" unicode="B" horiz-adv-x="1386" 
d="M141 1458h619q263 0 396.5 -101t133.5 -276q0 -126 -58.5 -205t-182.5 -122v-4q136 -31 207 -118t71 -222q0 -189 -145.5 -299.5t-401.5 -110.5h-639v1458zM537 1157v-276h157q103 0 151 33.5t48 105.5q0 70 -45 103.5t-141 33.5h-170zM537 594v-291h165q108 0 155.5 34
t47.5 109q0 77 -49.5 112.5t-161.5 35.5h-157z" />
    <glyph glyph-name="C" unicode="C" horiz-adv-x="1495" 
d="M760 1491q296 0 474.5 -153.5t190.5 -422.5h-430q-12 108 -72.5 168t-162.5 60q-124 0 -196 -110.5t-72 -303.5q0 -192 72.5 -303t195.5 -111q100 0 163.5 63.5t73.5 176.5h437q-23 -282 -202 -435t-472 -153q-325 0 -511 203.5t-186 558.5t186.5 558.5t510.5 203.5z" />
    <glyph glyph-name="D" unicode="D" horiz-adv-x="1538" 
d="M141 1458h551q375 0 579 -189.5t204 -539.5t-204 -539.5t-579 -189.5h-551v1458zM551 1114v-770h129q178 0 272.5 99.5t94.5 285.5t-94.5 285.5t-272.5 99.5h-129z" />
    <glyph glyph-name="E" unicode="E" horiz-adv-x="1300" 
d="M1196 1120h-645v-219h600v-330h-600v-233h657v-338h-1067v1458h1055v-338z" />
    <glyph glyph-name="F" unicode="F" horiz-adv-x="1222" 
d="M1178 1110h-627v-274h586v-347h-586v-489h-410v1458h1037v-348z" />
    <glyph glyph-name="G" unicode="G" horiz-adv-x="1552" 
d="M786 1491q280 0 455.5 -138.5t190.5 -369.5h-435q-14 86 -68 132t-145 46q-134 0 -213 -117.5t-79 -320.5q0 -207 79 -328t215 -121q117 0 186 71t75 192h-281v299h661v-836h-350v139h-4q-132 -170 -389 -170q-288 0 -454.5 202t-166.5 552q0 358 193 563t530 205z" />
    <glyph glyph-name="H" unicode="H" horiz-adv-x="1579" 
d="M1438 0h-410v578h-477v-578h-410v1458h410v-536h477v536h410v-1458z" />
    <glyph glyph-name="I" unicode="I" horiz-adv-x="692" 
d="M551 0h-410v1458h410v-1458z" />
    <glyph glyph-name="J" unicode="J" horiz-adv-x="876" 
d="M745 1458v-938q0 -279 -128.5 -409.5t-399.5 -130.5q-89 0 -186 22v334q54 -8 90 -8q121 0 168 61t47 227v842h409z" />
    <glyph glyph-name="K" unicode="K" horiz-adv-x="1466" 
d="M924 770l536 -770h-512l-393 653h-4v-653h-410v1458h410v-614h4l381 614h494z" />
    <glyph glyph-name="L" unicode="L" horiz-adv-x="1200" 
d="M551 344h633v-344h-1043v1458h410v-1114z" />
    <glyph glyph-name="M" unicode="M" horiz-adv-x="2134" 
d="M1993 0h-381v698q0 268 12 535h-4q-63 -295 -123 -528l-182 -705h-496l-182 705q-60 233 -123 528h-4q12 -267 12 -535v-698h-381v1458h652l161 -627q69 -257 111 -536h4q38 250 111 536l161 627h652v-1458z" />
    <glyph glyph-name="N" unicode="N" horiz-adv-x="1693" 
d="M1550 0h-594l-227 559q-118 293 -209 565h-4q16 -265 16 -596v-528h-391v1458h596l226 -559q115 -279 208 -565h5q-17 338 -17 596v528h391v-1458z" />
    <glyph glyph-name="O" unicode="O" horiz-adv-x="1570" 
d="M784 1491q332 0 527.5 -206t195.5 -556t-195.5 -556t-527.5 -206q-330 0 -525.5 206t-195.5 556t195.5 556t525.5 206zM784 1143q-139 0 -214.5 -108t-75.5 -306t75.5 -306t214.5 -108q141 0 217 108t76 306t-76 306t-217 108z" />
    <glyph glyph-name="P" unicode="P" horiz-adv-x="1378" 
d="M141 1458h617q286 0 432.5 -132t146.5 -365q0 -234 -146.5 -367t-432.5 -133h-207v-461h-410v1458zM551 1137v-355h149q215 0 215 179q0 176 -215 176h-149z" />
    <glyph glyph-name="Q" unicode="Q" horiz-adv-x="1570" 
d="M1507 729q0 -334 -182 -541l156 -172l-205 -184l-176 197q-139 -62 -316 -62q-330 0 -525.5 206t-195.5 556q0 349 195.5 555.5t525.5 206.5t526.5 -206.5t196.5 -555.5zM795 289q35 0 65 6l-164 184l205 185l162 -181q35 96 35 234q0 204 -78.5 315t-224.5 111
q-143 0 -222 -111.5t-79 -314.5q0 -204 79 -316t222 -112z" />
    <glyph glyph-name="R" unicode="R" horiz-adv-x="1443" 
d="M141 1458h650q540 0 540 -418q0 -133 -71.5 -225t-200.5 -131v-4q79 -29 127.5 -94t103.5 -209l135 -377h-434l-104 313q-37 107 -88 150t-146 43h-102v-506h-410v1458zM551 1151v-348h174q207 0 207 180q0 168 -217 168h-164z" />
    <glyph glyph-name="S" unicode="S" horiz-adv-x="1353" 
d="M672 1491q282 0 436 -121.5t154 -353.5h-431q0 80 -45.5 123t-134.5 43q-76 0 -119 -30.5t-43 -82.5q0 -60 53.5 -89t211.5 -67q54 -13 94.5 -24t89 -27t84 -32t74.5 -38t66.5 -46.5t53.5 -57t41.5 -69t25 -82.5t9.5 -99q0 -219 -165 -345t-455 -126q-297 0 -463 132.5
t-166 373.5h442q0 -186 201 -186q82 0 128 33.5t46 91.5q0 64 -50.5 92t-205.5 67q-58 16 -93.5 26t-87 27t-83.5 31.5t-73.5 36.5t-66.5 45t-52 54.5t-42 66.5t-24.5 80t-9.5 96q0 209 159.5 333t440.5 124z" />
    <glyph glyph-name="T" unicode="T" horiz-adv-x="1306" 
d="M1290 1114h-432v-1114h-409v1114h-433v344h1274v-344z" />
    <glyph glyph-name="U" unicode="U" horiz-adv-x="1497" 
d="M1368 1458v-883q0 -292 -161 -450t-457 -158q-298 0 -459.5 158t-161.5 450v883h410v-876q0 -126 54 -192t157 -66q101 0 154.5 66t53.5 192v876h410z" />
    <glyph glyph-name="V" unicode="V" horiz-adv-x="1406" 
d="M979 0h-549l-424 1458h432l144 -559q75 -288 120 -551h5q45 263 120 551l142 559h434z" />
    <glyph glyph-name="W" unicode="W" horiz-adv-x="2099" 
d="M1802 0h-553l-110 588q-57 315 -86 551h-4q-32 -258 -88 -551l-111 -588h-553l-285 1458h398l88 -520q43 -252 86 -590h4q38 301 96 590l102 520h527l102 -520q54 -272 98 -590h5q36 311 84 590l90 520h395z" />
    <glyph glyph-name="X" unicode="X" horiz-adv-x="1452" 
d="M1001 756l449 -756h-481l-242 489h-4l-240 -489h-483l451 756l-420 702h471l221 -469h4l223 469h471z" />
    <glyph glyph-name="Y" unicode="Y" horiz-adv-x="1411" 
d="M909 532v-532h-409v532l-500 926h451l114 -256q87 -195 137 -360h5q55 170 139 360l115 256h448z" />
    <glyph glyph-name="Z" unicode="Z" horiz-adv-x="1239" 
d="M1159 1106l-627 -766v-4h662v-336h-1153v352l629 766v4h-600v336h1089v-352z" />
    <glyph glyph-name="bracketleft" unicode="[" horiz-adv-x="794" 
d="M743 1253h-251v-1308h249v-260h-618v1833h620v-265z" />
    <glyph glyph-name="backslash" unicode="\" horiz-adv-x="1062" 
d="M391 1526l610 -1708h-288l-609 1708h287z" />
    <glyph glyph-name="bracketright" unicode="]" horiz-adv-x="794" 
d="M672 1518v-1833h-619v260h250v1308h-252v265h621z" />
    <glyph glyph-name="asciicircum" unicode="^" horiz-adv-x="1112" 
d="M1102 760h-361l-182 393h-4l-182 -393h-363l340 698h412z" />
    <glyph glyph-name="underscore" unicode="_" horiz-adv-x="1024" 
d="M1024 -317h-1024v215h1024v-215z" />
    <glyph glyph-name="grave" unicode="`" horiz-adv-x="794" 
d="M528 1458l164 -307h-299l-291 307h426z" />
    <glyph glyph-name="a" unicode="a" horiz-adv-x="1179" 
d="M582 1073q251 0 374 -110.5t123 -321.5v-338q0 -194 33 -303h-354q-17 63 -17 131h-4q-124 -160 -338 -160q-166 0 -264 92t-98 234q0 141 98.5 223t325.5 117q123 19 239 27v36q0 144 -122 144q-120 0 -123 -133h-375q5 75 35 138.5t88.5 114.5t155 80t223.5 29z
M700 428v39q-90 -8 -159 -23q-63 -13 -91 -42.5t-28 -77.5q0 -49 30 -79t85 -30q77 0 118 49q27 29 36 65.5t9 98.5z" />
    <glyph glyph-name="b" unicode="b" horiz-adv-x="1273" 
d="M504 942h4q44 63 117 96t155 33q203 0 323 -149.5t120 -401.5t-123.5 -401.5t-329.5 -149.5q-85 0 -158.5 38.5t-119.5 111.5h-5v-119h-376v1458h393v-516zM645 774q-74 0 -118 -68.5t-44 -185.5t44 -185.5t118 -68.5q76 0 121 68.5t45 185.5t-45 185.5t-121 68.5z" />
    <glyph glyph-name="c" unicode="c" horiz-adv-x="1206" 
d="M614 1073q232 0 380.5 -119.5t168.5 -322.5h-407q-6 72 -42 110.5t-93 38.5q-74 0 -115 -66t-41 -190q0 -128 41 -196t115 -68q60 0 96 44t39 124h407q-17 -214 -165 -337.5t-384 -123.5q-257 0 -410 150.5t-153 406.5q0 252 152.5 400.5t410.5 148.5z" />
    <glyph glyph-name="d" unicode="d" horiz-adv-x="1273" 
d="M1163 0h-377v119h-4q-46 -73 -119.5 -111.5t-158.5 -38.5q-206 0 -329.5 149.5t-123.5 401.5t120 401.5t323 149.5q82 0 155 -33t117 -96h4v516h393v-1458zM629 774q-76 0 -121 -68.5t-45 -185.5t45 -185.5t121 -68.5q74 0 118 68.5t44 185.5t-44 185.5t-118 68.5z" />
    <glyph glyph-name="e" unicode="e" horiz-adv-x="1216" 
d="M608 221q59 0 97.5 28t44.5 73h401q-35 -154 -182.5 -254.5t-356.5 -100.5q-134 0 -241.5 43t-176.5 118.5t-106 177t-37 220.5q0 155 64 278t191.5 196t299.5 73q189 0 321 -84t193 -237q45 -112 45 -312h-727q6 -121 50.5 -170t119.5 -49zM606 827q-140 0 -166 -180
h330q-7 93 -51 136.5t-113 43.5z" />
    <glyph glyph-name="f" unicode="f" horiz-adv-x="778" 
d="M715 1198q-75 0 -111.5 -33.5t-36.5 -109.5v-15h189v-280h-189v-760h-393v760h-160v280h160v60q0 189 105 284t305 95q83 0 182 -21v-266q-15 6 -51 6z" />
    <glyph glyph-name="g" unicode="g" horiz-adv-x="1255" 
d="M483 1071q89 0 166 -45.5t125 -124.5h4v139h367v-968q0 -475 -553 -475q-220 0 -348.5 88t-147.5 249h373q3 -47 37 -73.5t92 -26.5q80 0 122 51.5t42 173.5v101h-4q-46 -69 -121.5 -107.5t-163.5 -38.5q-194 0 -308 143.5t-114 385.5t116.5 385t315.5 143zM616 774
q-74 0 -117.5 -63t-43.5 -168t43 -167.5t118 -62.5q72 0 115 63t43 167t-43 167.5t-115 63.5z" />
    <glyph glyph-name="h" unicode="h" 
d="M504 946h4q99 123 272 123q178 0 279.5 -110.5t101.5 -317.5v-641h-393v592q0 174 -123 174q-141 0 -141 -244v-522h-393v1458h393v-512z" />
    <glyph glyph-name="i" unicode="i" horiz-adv-x="614" 
d="M504 1169h-393v289h393v-289zM504 0h-393v1040h393v-1040z" />
    <glyph glyph-name="j" unicode="j" horiz-adv-x="614" 
d="M504 1169h-393v289h393v-289zM504 1040v-1011q0 -212 -111.5 -316t-298.5 -104q-108 0 -188 22v271q21 -6 51 -6q81 0 117.5 43t36.5 157v944h393z" />
    <glyph glyph-name="k" unicode="k" horiz-adv-x="1206" 
d="M1227 0h-482l-237 455h-4v-455h-393v1458h393v-815h4l219 397h465l-348 -491z" />
    <glyph glyph-name="l" unicode="l" horiz-adv-x="614" 
d="M504 0h-393v1458h393v-1458z" />
    <glyph glyph-name="m" unicode="m" horiz-adv-x="1882" 
d="M1417 1069q170 0 267.5 -110.5t97.5 -317.5v-641h-393v592q0 174 -109 174q-137 0 -137 -246v-520h-393v602q0 164 -111 164q-135 0 -135 -246v-520h-393v1040h364v-118h4q109 147 297 147q215 0 307 -182q115 182 334 182z" />
    <glyph glyph-name="n" unicode="n" 
d="M780 1069q178 0 279.5 -110.5t101.5 -317.5v-641h-393v592q0 174 -123 174q-141 0 -141 -244v-522h-393v1040h364v-118h4q111 147 301 147z" />
    <glyph glyph-name="o" unicode="o" horiz-adv-x="1265" 
d="M633 1073q266 0 423.5 -150t157.5 -403t-157.5 -403t-423.5 -150t-424 150t-158 403t158 403t424 150zM633 780q-79 0 -123.5 -68.5t-44.5 -191.5t44.5 -191.5t123.5 -68.5t123.5 68.5t44.5 191.5t-44.5 191.5t-123.5 68.5z" />
    <glyph glyph-name="p" unicode="p" horiz-adv-x="1273" 
d="M770 1071q206 0 329.5 -149.5t123.5 -401.5t-120 -401.5t-323 -149.5q-82 0 -155 33t-117 96h-4v-477h-393v1419h376v-118h5q46 73 119 111t159 38zM645 774q-74 0 -118 -68.5t-44 -185.5t44 -185.5t118 -68.5q76 0 121 68.5t45 185.5t-45 185.5t-121 68.5z" />
    <glyph glyph-name="q" unicode="q" horiz-adv-x="1273" 
d="M504 1071q86 0 159 -38t119 -111h4v118h377v-1419h-393v477h-4q-44 -63 -117 -96t-155 -33q-203 0 -323 149.5t-120 401.5t123.5 401.5t329.5 149.5zM629 774q-76 0 -121 -68.5t-45 -185.5t45 -185.5t121 -68.5q74 0 118 68.5t44 185.5t-44 185.5t-118 68.5z" />
    <glyph glyph-name="r" unicode="r" horiz-adv-x="894" 
d="M782 1057q53 0 103 -13v-335q-53 12 -119 12q-127 0 -194.5 -77.5t-67.5 -223.5v-420h-393v1040h364v-141h4q108 158 303 158z" />
    <glyph glyph-name="s" unicode="s" horiz-adv-x="1144" 
d="M569 1073q229 0 356.5 -86.5t127.5 -257.5h-373q0 115 -117 115q-96 0 -96 -70q0 -37 38 -56.5t165 -53.5q53 -14 88 -24t83.5 -28t80 -36t66.5 -45t55 -58.5t33.5 -73.5t13.5 -92q0 -156 -132.5 -248t-373.5 -92q-531 0 -531 371h393q0 -66 34 -97.5t106 -31.5
q110 0 110 72q0 43 -46.5 66t-192.5 61q-49 13 -79 21.5t-74.5 24.5t-72 32t-59.5 42t-50 55t-30 70t-12 90q0 148 123.5 239t365.5 91z" />
    <glyph glyph-name="t" unicode="t" horiz-adv-x="815" 
d="M690 289q44 0 74 10v-291q-83 -26 -191 -26q-212 0 -308.5 84t-96.5 270v424h-158v280h158v291h393v-291h193v-280h-193v-318q0 -83 29.5 -118t99.5 -35z" />
    <glyph glyph-name="u" unicode="u" 
d="M481 -29q-178 0 -279.5 110.5t-101.5 317.5v641h394v-591q0 -175 122 -175q142 0 142 244v522h393v-1040h-365v119h-4q-112 -148 -301 -148z" />
    <glyph glyph-name="v" unicode="v" horiz-adv-x="1136" 
d="M836 0h-535l-319 1040h424l79 -350q54 -234 82 -434h4q31 222 80 434l82 350h422z" />
    <glyph glyph-name="w" unicode="w" horiz-adv-x="1814" 
d="M1573 0h-520l-74 371q-41 201 -70 432h-4q-30 -243 -69 -432l-74 -371h-520l-234 1040h379l55 -362q37 -234 54 -432h4q25 184 80 436l79 358h496l80 -358q55 -252 80 -436h4q18 211 53 432l55 362h379z" />
    <glyph glyph-name="x" unicode="x" horiz-adv-x="1148" 
d="M823 535l338 -535h-440l-143 317h-5l-143 -317h-442l338 535l-316 505h443l120 -286h5l120 286h441z" />
    <glyph glyph-name="y" unicode="y" horiz-adv-x="1140" 
d="M1159 1040l-321 -995q-78 -246 -188.5 -342t-313.5 -96q-124 0 -205 20v283q47 -12 96 -12q129 0 129 102q0 23 -10.5 57.5t-54.5 155.5l-316 827h426l93 -346q51 -196 96 -432h4q34 214 84 434l80 344h401z" />
    <glyph glyph-name="z" unicode="z" horiz-adv-x="1067" 
d="M989 735l-436 -434v-4h453v-297h-945v305l439 434v4h-424v297h913v-305z" />
    <glyph glyph-name="braceleft" unicode="{" horiz-adv-x="784" 
d="M723 1518v-224q-81 -3 -115.5 -37.5t-34.5 -121.5v-246q0 -123 -53.5 -190.5t-167.5 -94.5v-6q114 -27 167.5 -94.5t53.5 -190.5v-243q0 -88 35 -123t115 -37v-225h-53q-131 0 -217.5 22t-137.5 71.5t-71.5 121.5t-20.5 180v227q0 83 -29.5 120.5t-111.5 57.5v232
q82 20 111.5 57.5t29.5 120.5v227q0 145 38.5 228.5t136.5 125.5t272 42h53z" />
    <glyph glyph-name="bar" unicode="|" horiz-adv-x="612" 
d="M469 -420h-324v1919h324v-1919z" />
    <glyph glyph-name="braceright" unicode="}" horiz-adv-x="784" 
d="M61 1518h54q132 0 218.5 -22t137.5 -72t71.5 -121.5t20.5 -180.5v-227q0 -83 29.5 -120.5t109.5 -57.5v-232q-80 -20 -109.5 -57.5t-29.5 -120.5v-227q0 -109 -20.5 -180.5t-71.5 -121t-137.5 -71.5t-218.5 -22h-54v225q80 2 115 37t35 123v243q0 123 53.5 190.5
t167.5 94.5v6q-114 27 -167.5 94.5t-53.5 190.5v246q0 87 -34.5 121.5t-115.5 37.5v224z" />
    <glyph glyph-name="asciitilde" unicode="~" horiz-adv-x="1241" 
d="M426 883q50 0 100 -16.5t89 -39.5t74 -46t70 -39.5t64 -16.5q51 0 83 39.5t32 103.5h252q0 -201 -104.5 -324.5t-270.5 -123.5q-50 0 -100 16t-88.5 39t-74.5 45.5t-71 38.5t-65 16q-51 0 -82 -38t-31 -103h-252q0 201 105.5 325t269.5 124z" />
    <glyph glyph-name="nbspace" unicode="&#xa0;" horiz-adv-x="471" 
 />
    <glyph glyph-name="exclamdown" unicode="&#xa1;" horiz-adv-x="751" 
d="M172 1040h408v-329h-408v329zM211 584h328l63 -1002h-450z" />
    <glyph glyph-name="cent" unicode="&#xa2;" horiz-adv-x="1343" 
d="M688 418q60 0 96 44t39 124h408q-13 -181 -123.5 -298.5t-292.5 -150.5v-196h-264v196q-201 36 -316.5 180t-115.5 365q0 217 115 359.5t317 179.5v196h264v-198q177 -31 288 -145.5t128 -285.5h-408q-6 72 -42 111t-93 39q-74 0 -115 -67t-41 -189q0 -128 41 -196
t115 -68z" />
    <glyph glyph-name="sterling" unicode="&#xa3;" horiz-adv-x="1343" 
d="M506 317h754v-317h-1213v317q91 0 133.5 51.5t42.5 178.5v4h-176v287h176v51q0 251 141 387.5t396 136.5q231 0 369.5 -127t138.5 -340h-379q0 75 -33 115.5t-96 40.5q-75 0 -110.5 -51.5t-35.5 -161.5v-51h267v-287h-267q0 -169 -108 -229v-5z" />
    <glyph glyph-name="currency" unicode="&#xa4;" horiz-adv-x="1343" 
d="M1026 27l-164 176q-87 -35 -190 -35q-107 0 -191 35l-166 -176l-196 180l162 172q-52 96 -52 217q0 119 52 215l-162 174l196 180l166 -176q84 35 191 35q103 0 190 -35l164 176l197 -180l-162 -172q49 -100 49 -217q0 -124 -49 -215l164 -174zM670 401q85 0 136.5 53.5
t51.5 141.5t-51.5 141.5t-136.5 53.5t-136 -53.5t-51 -141.5t51 -141.5t136 -53.5z" />
    <glyph glyph-name="yen" unicode="&#xa5;" horiz-adv-x="1343" 
d="M956 690h234v-158h-313v-73h313v-156h-313v-303h-410v303h-313v156h313v73h-313v158h233l-346 690h444l64 -161q69 -172 121 -359h4q52 187 121 359l63 161h445z" />
    <glyph glyph-name="brokenbar" unicode="&#xa6;" horiz-adv-x="612" 
d="M469 782h-324v717h324v-717zM469 -420h-324v717h324v-717z" />
    <glyph glyph-name="section" unicode="&#xa7;" horiz-adv-x="1361" 
d="M672 1491q229 0 354 -100t137 -287h-375q-2 53 -30.5 83t-81.5 30q-44 0 -70 -22.5t-26 -59.5q0 -45 40.5 -72t186.5 -78q44 -16 69 -25.5t66.5 -27t66 -31.5t59 -36t55 -43t43.5 -50.5t35.5 -61.5t21 -72t8.5 -85q0 -188 -158 -289v-4q107 -84 107 -229
q0 -173 -134.5 -278t-357.5 -105q-237 0 -366 101.5t-136 299.5h377q6 -123 119 -123q49 0 76.5 22t27.5 62q0 49 -43 78.5t-211 101.5q-48 20 -73 31t-67 31t-64 33.5t-54.5 36t-49.5 42.5t-38 48t-31 57t-17 66t-7 79q0 92 42.5 164t117.5 111v4q-96 80 -96 221
q0 174 130 275.5t347 101.5zM514 768q-53 -44 -53 -106q0 -57 37 -92t155 -87l207 -92q53 41 53 113q0 55 -38 93t-152 83q-129 51 -209 88z" />
    <glyph glyph-name="dieresis" unicode="&#xa8;" horiz-adv-x="1021" 
d="M434 1169h-332v289h332v-289zM920 1169h-334v289h334v-289z" />
    <glyph glyph-name="copyright" unicode="&#xa9;" horiz-adv-x="1626" 
d="M813 1491q165 0 303 -55t234.5 -154t150 -241.5t53.5 -311.5t-53.5 -311.5t-150 -241.5t-234.5 -154t-303 -55t-303 55t-234.5 154t-150 241.5t-53.5 311.5t53.5 311.5t150 241.5t234.5 154t303 55zM813 1343q-269 0 -433.5 -169t-164.5 -445t164.5 -445t433.5 -169
t433.5 169t164.5 445t-164.5 445t-433.5 169zM817 1180q180 0 287.5 -91.5t114.5 -254.5h-269q-6 63 -40.5 98t-92.5 35q-67 0 -107 -63.5t-40 -174.5q0 -108 40.5 -172.5t106.5 -64.5q57 0 92 37t41 102h273q-12 -169 -121 -260.5t-285 -91.5q-194 0 -304 119.5t-110 330.5
t110.5 331t303.5 120z" />
    <glyph glyph-name="ordfeminine" unicode="&#xaa;" horiz-adv-x="874" 
d="M430 1427q373 0 373 -309v-225q0 -137 24 -217h-280q-12 37 -12 88h-3q-89 -109 -243 -109q-121 0 -191.5 65t-70.5 165q0 102 72 159.5t239 81.5q89 13 166 17v26q0 88 -76 88t-76 -86h-295q7 111 97.5 183.5t275.5 72.5zM504 973v26q-63 -5 -103 -16q-73 -17 -73 -78
q0 -31 18 -49t53 -18q53 0 76 30q29 34 29 105z" />
    <glyph glyph-name="guillemetleft" unicode="&#xab;" horiz-adv-x="1247" 
d="M438 520l213 -409h-334l-233 409l233 410h334zM948 520l213 -409h-332l-233 409l233 410h332z" />
    <glyph glyph-name="logicalnot" unicode="&#xac;" horiz-adv-x="1159" 
d="M1047 246h-304v418h-630v307h934v-725z" />
    <glyph glyph-name="softhyphen" unicode="&#xad;" horiz-adv-x="722" 
d="M662 461h-601v274h601v-274z" />
    <glyph glyph-name="registered" unicode="&#xae;" horiz-adv-x="1212" 
d="M606 1491q232 0 373 -145t141 -383t-141 -383.5t-373 -145.5t-373 145.5t-141 383.5t141 383t373 145zM606 1409q-194 0 -313 -122.5t-119 -323.5t119 -324t313 -123t313 123t119 324t-119 323.5t-313 122.5zM338 1290h305q109 0 166 -47.5t57 -132.5q0 -118 -125 -158
v-4q35 -10 57.5 -37.5t47.5 -89.5l63 -166h-186l-53 140q-15 46 -40 65t-69 19h-45v-224h-178v635zM516 1159v-153h74q104 0 104 81q0 33 -25 52.5t-73 19.5h-80z" />
    <glyph glyph-name="macron" unicode="&#xaf;" horiz-adv-x="1009" 
d="M907 1190h-805v235h805v-235z" />
    <glyph glyph-name="degree" unicode="&#xb0;" horiz-adv-x="729" 
d="M367 1479q125 0 213 -88t88 -215q0 -125 -88.5 -213.5t-212.5 -88.5q-126 0 -215 88.5t-89 213.5q0 127 89 215t215 88zM367 1300q-53 0 -89 -36t-36 -88q0 -51 36.5 -88t88.5 -37t88.5 37t36.5 88q0 52 -36 88t-89 36z" />
    <glyph glyph-name="plusminus" unicode="&#xb1;" horiz-adv-x="1159" 
d="M733 932h314v-297h-314v-266h-307v266h-313v297h313v266h307v-266zM1047 0h-934v297h934v-297z" />
    <glyph glyph-name="twosuperior" unicode="&#xb2;" horiz-adv-x="991" 
d="M496 1665q189 0 300 -87t111 -220q0 -115 -70 -185.5t-202 -117.5q-82 -31 -126.5 -54t-59.5 -39t-19 -38h504v-248h-871q-2 16 -2 67q0 164 64 265.5t223 173.5q52 23 78.5 35.5t62.5 32.5t53 35t29.5 35t12.5 42q0 36 -22.5 56t-63.5 20q-48 0 -77.5 -32t-29.5 -91
h-317q0 167 111 258.5t311 91.5z" />
    <glyph glyph-name="threesuperior" unicode="&#xb3;" horiz-adv-x="974" 
d="M485 1665q193 0 305.5 -75t112.5 -201q0 -77 -41 -127t-131 -82v-4q97 -31 140.5 -83t43.5 -137q0 -139 -115 -221t-308 -82q-220 0 -335.5 91t-115.5 264h324q0 -134 124 -134q49 0 78 23t29 61q0 95 -145 95h-25v221h37q58 0 92.5 23.5t34.5 62.5t-27 61.5t-76 22.5
q-58 0 -88 -34t-30 -93h-314q0 163 114 255.5t316 92.5z" />
    <glyph glyph-name="acute" unicode="&#xb4;" horiz-adv-x="794" 
d="M401 1151h-299l164 307h426z" />
    <glyph glyph-name="micro" unicode="&#xb5;" horiz-adv-x="1310" 
d="M1157 1040v-655q0 -62 20.5 -87.5t63.5 -25.5q23 0 51 7v-267q-96 -35 -227 -35q-197 0 -266 144h-4q-61 -131 -203 -131q-54 0 -88 18v-387h-393v1419h393v-579q0 -187 121 -187q139 0 139 228v538h393z" />
    <glyph glyph-name="paragraph" unicode="&#xb6;" horiz-adv-x="1460" 
d="M1391 1204h-164v-1450h-273v1450h-145v-1450h-272v809h-29q-195 0 -310.5 121.5t-115.5 327.5q0 204 115.5 325t310.5 121h883v-254z" />
    <glyph glyph-name="periodcentered" unicode="&#xb7;" horiz-adv-x="593" 
d="M502 420h-410v411h410v-411z" />
    <glyph glyph-name="cedilla" unicode="&#xb8;" horiz-adv-x="739" 
d="M459 0l-74 -121q33 10 66 10q87 0 136.5 -44t49.5 -119q0 -94 -72 -154.5t-203 -60.5q-142 0 -260 71l62 127q96 -47 168 -47q38 0 59 14t21 39q0 27 -20.5 43.5t-59.5 16.5q-32 0 -62 -15l-80 66l105 174h164z" />
    <glyph glyph-name="onesuperior" unicode="&#xb9;" horiz-adv-x="702" 
d="M592 676h-322v563h-247v229q136 0 202 41.5t80 132.5h287v-966z" />
    <glyph glyph-name="ordmasculine" unicode="&#xba;" horiz-adv-x="921" 
d="M461 1427q194 0 309 -104.5t115 -282.5t-115 -282.5t-309 -104.5t-309 104.5t-115 282.5t115 282.5t309 104.5zM461 1198q-51 0 -78 -40.5t-27 -117.5t27 -118t78 -41t77.5 41t26.5 118t-26.5 117.5t-77.5 40.5z" />
    <glyph glyph-name="guillemetright" unicode="&#xbb;" horiz-adv-x="1247" 
d="M418 930l233 -410l-233 -409h-334l213 409l-213 410h334zM928 930l233 -410l-233 -409h-332l213 409l-213 410h332z" />
    <glyph glyph-name="onequarter" unicode="&#xbc;" horiz-adv-x="1734" 
d="M227 553v481h-209v199q202 0 240 147h262v-827h-293zM1243 1380l-729 -1380h-225l729 1380h225zM1716 145h-153v-145h-269v145h-397v207l315 475h351v-483h153v-199zM1130 344h181v70q0 134 8 235h-4q-39 -80 -117 -200z" />
    <glyph glyph-name="onehalf" unicode="&#xbd;" horiz-adv-x="1777" 
d="M520 553h-293v481h-209v199q202 0 240 147h262v-827zM514 0h-225l729 1380h225zM1352 848q161 0 256.5 -75t95.5 -189q0 -98 -60.5 -159t-173.5 -103q-106 -38 -139.5 -59.5t-38.5 -49.5h437v-213h-756q-2 18 -2 59q0 138 56 223t194 150q41 20 60 29.5t48 25t41.5 25
t27.5 23.5t20 27t5 28q0 29 -18.5 45t-52.5 16q-43 0 -67.5 -27t-24.5 -79h-277q1 145 97.5 224t271.5 79z" />
    <glyph glyph-name="threequarters" unicode="&#xbe;" horiz-adv-x="1966" 
d="M791 791q0 -125 -95 -192t-272 -67q-188 0 -289.5 78.5t-101.5 227.5h276q0 -109 115 -109q43 0 68.5 20t25.5 52q0 73 -121 73h-28v189h26q117 0 117 74q0 31 -25.5 49t-68.5 18q-52 0 -79.5 -26.5t-27.5 -73.5h-264q0 139 99 218t274 79q163 0 261.5 -66.5t98.5 -175.5
q0 -67 -35.5 -109t-113.5 -65v-4q84 -25 122 -70.5t38 -119.5zM1475 1380l-730 -1380h-225l729 1380h226zM1948 145h-154v-145h-268v145h-398v207l316 475h350v-483h154v-199zM1362 344h180v70q0 134 8 235h-4q-42 -86 -116 -200z" />
    <glyph glyph-name="questiondown" unicode="&#xbf;" horiz-adv-x="1161" 
d="M416 1040h407v-329h-407v329zM604 -451q-251 0 -393.5 105.5t-142.5 290.5q0 105 41.5 177t156.5 167q113 92 150 155.5t37 163.5h331q7 -65 7 -110q0 -114 -34 -180t-145 -166q-82 -72 -106.5 -111t-24.5 -92q0 -52 33 -82.5t90 -30.5q152 0 152 197h405
q-1 -236 -146.5 -360t-410.5 -124z" />
    <glyph glyph-name="Agrave" unicode="&#xc0;" horiz-adv-x="1497" 
d="M668 1556l-291 320h426l164 -320h-299zM995 262h-493l-74 -262h-432l489 1458h527l489 -1458h-432zM905 584l-28 100q-63 225 -125 492h-4q-65 -280 -127 -492l-29 -100h313z" />
    <glyph glyph-name="Aacute" unicode="&#xc1;" horiz-adv-x="1497" 
d="M829 1556h-299l164 320h426zM995 262h-493l-74 -262h-432l489 1458h527l489 -1458h-432zM905 584l-28 100q-63 225 -125 492h-4q-65 -280 -127 -492l-29 -100h313z" />
    <glyph glyph-name="Acircumflex" unicode="&#xc2;" horiz-adv-x="1497" 
d="M627 1556h-305l260 320h331l263 -320h-306l-122 166zM995 262h-493l-74 -262h-432l489 1458h527l489 -1458h-432zM905 584l-28 100q-63 225 -125 492h-4q-65 -280 -127 -492l-29 -100h313z" />
    <glyph glyph-name="Atilde" unicode="&#xc3;" horiz-adv-x="1497" 
d="M621 1649q-37 0 -56.5 -20.5t-25.5 -63.5h-203q8 147 76 229t192 82q54 0 106.5 -20.5t95.5 -41t73 -20.5q37 0 55.5 19.5t23.5 62.5h203q-6 -146 -74 -228.5t-192 -82.5q-55 0 -107 21t-94 42t-73 21zM995 262h-493l-74 -262h-432l489 1458h527l489 -1458h-432zM905 584
l-28 100q-63 225 -125 492h-4q-65 -280 -127 -492l-29 -100h313z" />
    <glyph glyph-name="Adieresis" unicode="&#xc4;" horiz-adv-x="1497" 
d="M672 1575h-332v289h332v-289zM1157 1575h-334v289h334v-289zM995 262h-493l-74 -262h-432l489 1458h527l489 -1458h-432zM905 584l-28 100q-63 225 -125 492h-4q-65 -280 -127 -492l-29 -100h313z" />
    <glyph glyph-name="Aring" unicode="&#xc5;" horiz-adv-x="1497" 
d="M750 1542q-101 0 -173.5 72.5t-72.5 173.5t72.5 173.5t173.5 72.5q102 0 172.5 -72t70.5 -174t-70.5 -174t-172.5 -72zM750 1907q-50 0 -84.5 -34.5t-34.5 -84.5t34.5 -84.5t84.5 -34.5q49 0 83.5 34.5t34.5 84.5t-34.5 84.5t-83.5 34.5zM995 262h-493l-74 -262h-432
l489 1458h527l489 -1458h-432zM905 584l-28 100q-63 225 -125 492h-4q-65 -280 -127 -492l-29 -100h313z" />
    <glyph glyph-name="AE" unicode="&#xc6;" horiz-adv-x="2025" 
d="M1933 338v-338h-862l-41 291h-483l-117 -291h-442l622 1458h1317v-338h-631l33 -219h547v-330h-502l35 -233h524zM985 618l-74 506h-28l-203 -506h305z" />
    <glyph glyph-name="Ccedilla" unicode="&#xc7;" horiz-adv-x="1495" 
d="M997 555h437q-21 -264 -180.5 -415.5t-422.5 -170.5l-55 -90q33 10 66 10q87 0 136.5 -44t49.5 -119q0 -95 -71.5 -155t-202.5 -60q-142 0 -260 71l61 127q96 -47 168 -47q38 0 59 14t21 39q0 27 -20.5 43.5t-59.5 16.5q-31 0 -61 -15l-80 66l88 145
q-286 29 -446.5 229.5t-160.5 528.5q0 355 186.5 558.5t510.5 203.5q296 0 474.5 -153.5t190.5 -422.5h-430q-12 108 -72.5 168t-162.5 60q-124 0 -196 -110.5t-72 -303.5q0 -192 72.5 -303t195.5 -111q100 0 163.5 63.5t73.5 176.5z" />
    <glyph glyph-name="Egrave" unicode="&#xc8;" horiz-adv-x="1300" 
d="M727 1876l164 -320h-299l-291 320h426zM1196 1120h-645v-219h600v-330h-600v-233h657v-338h-1067v1458h1055v-338z" />
    <glyph glyph-name="Eacute" unicode="&#xc9;" horiz-adv-x="1300" 
d="M754 1556h-299l163 320h426zM1196 1120h-645v-219h600v-330h-600v-233h657v-338h-1067v1458h1055v-338z" />
    <glyph glyph-name="Ecircumflex" unicode="&#xca;" horiz-adv-x="1300" 
d="M506 1876h332l262 -320h-305l-123 166l-121 -166h-305zM1196 1120h-645v-219h600v-330h-600v-233h657v-338h-1067v1458h1055v-338z" />
    <glyph glyph-name="Edieresis" unicode="&#xcb;" horiz-adv-x="1300" 
d="M596 1575h-332v289h332v-289zM1081 1575h-333v289h333v-289zM1196 1120h-645v-219h600v-330h-600v-233h657v-338h-1067v1458h1055v-338z" />
    <glyph glyph-name="Igrave" unicode="&#xcc;" horiz-adv-x="692" 
d="M399 1876l164 -320h-299l-291 320h426zM551 0h-410v1458h410v-1458z" />
    <glyph glyph-name="Iacute" unicode="&#xcd;" horiz-adv-x="692" 
d="M426 1556h-299l164 320h426zM551 0h-410v1458h410v-1458z" />
    <glyph glyph-name="Icircumflex" unicode="&#xce;" horiz-adv-x="692" 
d="M178 1876h332l262 -320h-305l-123 166l-121 -166h-305zM551 0h-410v1458h410v-1458z" />
    <glyph glyph-name="Idieresis" unicode="&#xcf;" horiz-adv-x="692" 
d="M268 1575h-331v289h331v-289zM754 1575h-334v289h334v-289zM551 0h-410v1458h410v-1458z" />
    <glyph glyph-name="Eth" unicode="&#xd0;" horiz-adv-x="1544" 
d="M150 1458h548q376 0 579.5 -189.5t203.5 -539.5t-203.5 -539.5t-579.5 -189.5h-548v610h-123v250h123v598zM557 344h129q178 0 272.5 99.5t94.5 285.5t-94.5 285.5t-272.5 99.5h-129v-254h287v-250h-287v-266z" />
    <glyph glyph-name="Ntilde" unicode="&#xd1;" horiz-adv-x="1693" 
d="M1055 1876h202q-6 -146 -74 -228.5t-192 -82.5q-55 0 -107 21t-94 42t-73 21q-37 0 -56.5 -20.5t-25.5 -63.5h-203q8 147 76 229t192 82q54 0 106.5 -20.5t95.5 -41t73 -20.5q37 0 56.5 19.5t23.5 62.5zM1550 0h-594l-227 559q-118 293 -209 565h-4q16 -265 16 -596v-528
h-391v1458h596l226 -559q115 -279 208 -565h5q-17 338 -17 596v528h391v-1458z" />
    <glyph glyph-name="Ograve" unicode="&#xd2;" horiz-adv-x="1570" 
d="M840 1876l164 -320h-299l-291 320h426zM784 1491q332 0 527.5 -206t195.5 -556t-195.5 -556t-527.5 -206q-330 0 -525.5 206t-195.5 556t195.5 556t525.5 206zM784 1143q-139 0 -214.5 -108t-75.5 -306t75.5 -306t214.5 -108q141 0 217 108t76 306t-76 306t-217 108z" />
    <glyph glyph-name="Oacute" unicode="&#xd3;" horiz-adv-x="1570" 
d="M866 1556h-299l164 320h426zM784 1491q332 0 527.5 -206t195.5 -556t-195.5 -556t-527.5 -206q-330 0 -525.5 206t-195.5 556t195.5 556t525.5 206zM784 1143q-139 0 -214.5 -108t-75.5 -306t75.5 -306t214.5 -108q141 0 217 108t76 306t-76 306t-217 108z" />
    <glyph glyph-name="Ocircumflex" unicode="&#xd4;" horiz-adv-x="1570" 
d="M618 1876h332l262 -320h-305l-123 166l-120 -166h-306zM784 1491q332 0 527.5 -206t195.5 -556t-195.5 -556t-527.5 -206q-330 0 -525.5 206t-195.5 556t195.5 556t525.5 206zM784 1143q-139 0 -214.5 -108t-75.5 -306t75.5 -306t214.5 -108q141 0 217 108t76 306
t-76 306t-217 108z" />
    <glyph glyph-name="Otilde" unicode="&#xd5;" horiz-adv-x="1570" 
d="M993 1876h203q-6 -146 -74 -228.5t-192 -82.5q-55 0 -107 21t-94.5 42t-73.5 21q-37 0 -56.5 -20.5t-25.5 -63.5h-202q8 147 76 229t192 82q54 0 106.5 -20.5t95 -41t72.5 -20.5q37 0 56.5 19.5t23.5 62.5zM784 1491q332 0 527.5 -206t195.5 -556t-195.5 -556
t-527.5 -206q-330 0 -525.5 206t-195.5 556t195.5 556t525.5 206zM784 1143q-139 0 -214.5 -108t-75.5 -306t75.5 -306t214.5 -108q141 0 217 108t76 306t-76 306t-217 108z" />
    <glyph glyph-name="Odieresis" unicode="&#xd6;" horiz-adv-x="1570" 
d="M709 1575h-332v289h332v-289zM1194 1575h-334v289h334v-289zM784 1491q332 0 527.5 -206t195.5 -556t-195.5 -556t-527.5 -206q-330 0 -525.5 206t-195.5 556t195.5 556t525.5 206zM784 1143q-139 0 -214.5 -108t-75.5 -306t75.5 -306t214.5 -108q141 0 217 108t76 306
t-76 306t-217 108z" />
    <glyph glyph-name="multiply" unicode="&#xd7;" horiz-adv-x="1159" 
d="M1137 989l-340 -338l340 -340l-215 -217l-340 340l-340 -340l-217 217l342 340l-342 338l217 217l340 -340l340 340z" />
    <glyph glyph-name="Oslash" unicode="&#xd8;" horiz-adv-x="1570" 
d="M1442 1450l-125 -170q190 -202 190 -551q0 -350 -195.5 -556t-527.5 -206q-207 0 -370 86l-121 -164l-162 119l125 168q-193 209 -193 553q0 350 195.5 556t525.5 206q212 0 373 -88l123 166zM471 729q0 -126 31 -217l446 606q-70 45 -164 45q-149 0 -231 -113.5
t-82 -320.5zM784 295q152 0 234 113t82 321q0 120 -29 215l-446 -604q65 -45 159 -45z" />
    <glyph glyph-name="Ugrave" unicode="&#xd9;" horiz-adv-x="1497" 
d="M801 1876l164 -320h-299l-291 320h426zM1368 1458v-883q0 -292 -161 -450t-457 -158q-298 0 -459.5 158t-161.5 450v883h410v-876q0 -126 54 -192t157 -66q101 0 154.5 66t53.5 192v876h410z" />
    <glyph glyph-name="Uacute" unicode="&#xda;" horiz-adv-x="1497" 
d="M829 1556h-299l164 320h426zM1368 1458v-883q0 -292 -161 -450t-457 -158q-298 0 -459.5 158t-161.5 450v883h410v-876q0 -126 54 -192t157 -66q101 0 154.5 66t53.5 192v876h410z" />
    <glyph glyph-name="Ucircumflex" unicode="&#xdb;" horiz-adv-x="1497" 
d="M580 1876h331l263 -320h-306l-123 166l-120 -166h-306zM1368 1458v-883q0 -292 -161 -450t-457 -158q-298 0 -459.5 158t-161.5 450v883h410v-876q0 -126 54 -192t157 -66q101 0 154.5 66t53.5 192v876h410z" />
    <glyph glyph-name="Udieresis" unicode="&#xdc;" horiz-adv-x="1497" 
d="M672 1575h-332v289h332v-289zM1157 1575h-334v289h334v-289zM1368 1458v-883q0 -292 -161 -450t-457 -158q-298 0 -459.5 158t-161.5 450v883h410v-876q0 -126 54 -192t157 -66q101 0 154.5 66t53.5 192v876h410z" />
    <glyph glyph-name="Yacute" unicode="&#xdd;" horiz-adv-x="1411" 
d="M786 1556h-299l164 320h426zM909 532v-532h-409v532l-500 926h451l114 -256q87 -195 137 -360h5q55 170 139 360l115 256h448z" />
    <glyph glyph-name="Thorn" unicode="&#xde;" horiz-adv-x="1378" 
d="M553 1255h205q285 0 432 -134t147 -371q0 -239 -147 -374.5t-432 -135.5h-205v-240h-412v1458h412v-203zM553 926v-355h131q122 0 176.5 42t54.5 135t-55 135.5t-176 42.5h-131z" />
    <glyph glyph-name="germandbls" unicode="&#xdf;" horiz-adv-x="1226" 
d="M621 1491q229 0 366 -99.5t137 -267.5q0 -122 -61.5 -198.5t-190.5 -118.5v-4q155 -42 231.5 -136.5t76.5 -248.5q0 -210 -132 -317t-389 -107q-45 0 -75 6v295q14 -4 37 -4q75 0 115 44t40 130q0 85 -43.5 129.5t-128.5 44.5h-20v309q170 0 170 135q0 58 -32.5 88.5
t-88.5 30.5q-67 0 -98 -44.5t-31 -141.5v-1016h-393v1042q0 210 136.5 329.5t373.5 119.5z" />
    <glyph glyph-name="agrave" unicode="&#xe0;" horiz-adv-x="1179" 
d="M623 1458l163 -307h-299l-290 307h426zM582 1073q251 0 374 -110.5t123 -321.5v-338q0 -194 33 -303h-354q-17 63 -17 131h-4q-124 -160 -338 -160q-166 0 -264 92t-98 234q0 141 98.5 223t325.5 117q123 19 239 27v36q0 144 -122 144q-120 0 -123 -133h-375
q5 75 35 138.5t88.5 114.5t155 80t223.5 29zM700 428v39q-90 -8 -159 -23q-63 -13 -91 -42.5t-28 -77.5q0 -49 30 -79t85 -30q77 0 118 49q27 29 36 65.5t9 98.5z" />
    <glyph glyph-name="aacute" unicode="&#xe1;" horiz-adv-x="1179" 
d="M649 1151h-299l164 307h426zM582 1073q251 0 374 -110.5t123 -321.5v-338q0 -194 33 -303h-354q-17 63 -17 131h-4q-124 -160 -338 -160q-166 0 -264 92t-98 234q0 141 98.5 223t325.5 117q123 19 239 27v36q0 144 -122 144q-120 0 -123 -133h-375q5 75 35 138.5
t88.5 114.5t155 80t223.5 29zM700 428v39q-90 -8 -159 -23q-63 -13 -91 -42.5t-28 -77.5q0 -49 30 -79t85 -30q77 0 118 49q27 29 36 65.5t9 98.5z" />
    <glyph glyph-name="acircumflex" unicode="&#xe2;" horiz-adv-x="1179" 
d="M682 1151l-113 154l-112 -154h-305l251 307h332l252 -307h-305zM582 1073q251 0 374 -110.5t123 -321.5v-338q0 -194 33 -303h-354q-17 63 -17 131h-4q-124 -160 -338 -160q-166 0 -264 92t-98 234q0 141 98.5 223t325.5 117q123 19 239 27v36q0 144 -122 144
q-120 0 -123 -133h-375q5 75 35 138.5t88.5 114.5t155 80t223.5 29zM700 428v39q-90 -8 -159 -23q-63 -13 -91 -42.5t-28 -77.5q0 -49 30 -79t85 -30q77 0 118 49q27 29 36 65.5t9 98.5z" />
    <glyph glyph-name="atilde" unicode="&#xe3;" horiz-adv-x="1179" 
d="M778 1458h203q-6 -146 -74 -228.5t-192 -82.5q-55 0 -107 21t-94.5 42t-73.5 21q-37 0 -56.5 -20.5t-25.5 -63.5h-202q8 147 76 229t192 82q54 0 106.5 -20.5t95 -41t72.5 -20.5q37 0 56.5 19.5t23.5 62.5zM582 1073q251 0 374 -110.5t123 -321.5v-338q0 -194 33 -303
h-354q-17 63 -17 131h-4q-124 -160 -338 -160q-166 0 -264 92t-98 234q0 141 98.5 223t325.5 117q123 19 239 27v36q0 144 -122 144q-120 0 -123 -133h-375q5 75 35 138.5t88.5 114.5t155 80t223.5 29zM700 428v39q-90 -8 -159 -23q-63 -13 -91 -42.5t-28 -77.5
q0 -49 30 -79t85 -30q77 0 118 49q27 29 36 65.5t9 98.5z" />
    <glyph glyph-name="adieresis" unicode="&#xe4;" horiz-adv-x="1179" 
d="M492 1169h-332v289h332v-289zM977 1169h-334v289h334v-289zM582 1073q251 0 374 -110.5t123 -321.5v-338q0 -194 33 -303h-354q-17 63 -17 131h-4q-124 -160 -338 -160q-166 0 -264 92t-98 234q0 141 98.5 223t325.5 117q123 19 239 27v36q0 144 -122 144
q-120 0 -123 -133h-375q5 75 35 138.5t88.5 114.5t155 80t223.5 29zM700 428v39q-90 -8 -159 -23q-63 -13 -91 -42.5t-28 -77.5q0 -49 30 -79t85 -30q77 0 118 49q27 29 36 65.5t9 98.5z" />
    <glyph glyph-name="aring" unicode="&#xe5;" horiz-adv-x="1179" 
d="M569 1616q102 0 173 -72t71 -174t-71 -174t-173 -72q-101 0 -173 72.5t-72 173.5t72 173.5t173 72.5zM569 1489q-49 0 -83.5 -34.5t-34.5 -84.5t34.5 -84.5t83.5 -34.5t84 34.5t35 84.5t-35 84.5t-84 34.5zM582 1073q251 0 374 -110.5t123 -321.5v-338q0 -194 33 -303
h-354q-17 63 -17 131h-4q-124 -160 -338 -160q-166 0 -264 92t-98 234q0 141 98.5 223t325.5 117q123 19 239 27v36q0 144 -122 144q-120 0 -123 -133h-375q5 75 35 138.5t88.5 114.5t155 80t223.5 29zM700 428v39q-90 -8 -159 -23q-63 -13 -91 -42.5t-28 -77.5
q0 -49 30 -79t85 -30q77 0 118 49q27 29 36 65.5t9 98.5z" />
    <glyph glyph-name="ae" unicode="&#xe6;" horiz-adv-x="1865" 
d="M1260 221q58 0 95 28t42 73h401q-35 -154 -180.5 -254.5t-353.5 -100.5q-253 0 -396 166q-121 -166 -393 -166q-208 0 -323 92.5t-115 237.5q0 190 149 270t473 80h66v53q0 74 -32 109t-101 35q-132 0 -135 -133h-375q5 75 36 138.5t90 114.5t157.5 80t226.5 29
q226 0 344 -100q130 100 321 100q188 0 319.5 -84t190.5 -237q48 -119 48 -312h-723q10 -219 168 -219zM1257 827q-135 0 -159 -184h321q-6 96 -50 140t-112 44zM725 457h-63q-240 0 -240 -135q0 -53 30.5 -85t88.5 -32q85 0 131 49q53 53 53 176v27z" />
    <glyph glyph-name="ccedilla" unicode="&#xe7;" horiz-adv-x="1206" 
d="M621 260q60 0 96 44t39 124h407q-15 -197 -142.5 -317.5t-334.5 -139.5l-55 -92q33 10 65 10q87 0 137 -44t50 -119q0 -94 -72 -154.5t-203 -60.5q-142 0 -260 71l62 127q96 -47 168 -47q38 0 58.5 14t20.5 39q0 27 -20 43.5t-59 16.5q-32 0 -62 -15l-80 66l88 147
q-219 26 -346 172.5t-127 378.5q0 252 152.5 400.5t410.5 148.5q232 0 380.5 -119.5t168.5 -322.5h-407q-6 72 -42 110.5t-93 38.5q-74 0 -115 -66t-41 -190q0 -128 41 -196t115 -68z" />
    <glyph glyph-name="egrave" unicode="&#xe8;" horiz-adv-x="1216" 
d="M526 1151l-290 307h426l163 -307h-299zM608 221q59 0 97.5 28t44.5 73h401q-35 -154 -182.5 -254.5t-356.5 -100.5q-134 0 -241.5 43t-176.5 118.5t-106 177t-37 220.5q0 155 64 278t191.5 196t299.5 73q189 0 321 -84t193 -237q45 -112 45 -312h-727q6 -121 50.5 -170
t119.5 -49zM606 827q-140 0 -166 -180h330q-7 93 -51 136.5t-113 43.5z" />
    <glyph glyph-name="eacute" unicode="&#xe9;" horiz-adv-x="1216" 
d="M688 1151h-299l164 307h426zM608 221q59 0 97.5 28t44.5 73h401q-35 -154 -182.5 -254.5t-356.5 -100.5q-134 0 -241.5 43t-176.5 118.5t-106 177t-37 220.5q0 155 64 278t191.5 196t299.5 73q189 0 321 -84t193 -237q45 -112 45 -312h-727q6 -121 50.5 -170t119.5 -49z
M606 827q-140 0 -166 -180h330q-7 93 -51 136.5t-113 43.5z" />
    <glyph glyph-name="ecircumflex" unicode="&#xea;" horiz-adv-x="1216" 
d="M496 1151h-306l252 307h332l252 -307h-305l-113 154zM608 221q59 0 97.5 28t44.5 73h401q-35 -154 -182.5 -254.5t-356.5 -100.5q-134 0 -241.5 43t-176.5 118.5t-106 177t-37 220.5q0 155 64 278t191.5 196t299.5 73q189 0 321 -84t193 -237q45 -112 45 -312h-727
q6 -121 50.5 -170t119.5 -49zM606 827q-140 0 -166 -180h330q-7 93 -51 136.5t-113 43.5z" />
    <glyph glyph-name="edieresis" unicode="&#xeb;" horiz-adv-x="1216" 
d="M530 1169h-331v289h331v-289zM1016 1169h-334v289h334v-289zM608 221q59 0 97.5 28t44.5 73h401q-35 -154 -182.5 -254.5t-356.5 -100.5q-134 0 -241.5 43t-176.5 118.5t-106 177t-37 220.5q0 155 64 278t191.5 196t299.5 73q189 0 321 -84t193 -237q45 -112 45 -312
h-727q6 -121 50.5 -170t119.5 -49zM606 827q-140 0 -166 -180h330q-7 93 -51 136.5t-113 43.5z" />
    <glyph glyph-name="igrave" unicode="&#xec;" horiz-adv-x="614" 
d="M360 1458l164 -307h-299l-291 307h426zM504 0h-393v1040h393v-1040z" />
    <glyph glyph-name="iacute" unicode="&#xed;" horiz-adv-x="614" 
d="M389 1151h-299l164 307h426zM504 0h-393v1040h393v-1040z" />
    <glyph glyph-name="icircumflex" unicode="&#xee;" horiz-adv-x="614" 
d="M694 1157h-288l-99 131l-96 -131h-291l232 301h311zM504 0h-393v1040h393v-1040z" />
    <glyph glyph-name="idieresis" unicode="&#xef;" horiz-adv-x="614" 
d="M260 1169h-291v289h291v-289zM647 1169h-293v289h293v-289zM504 0h-393v1040h393v-1040z" />
    <glyph glyph-name="eth" unicode="&#xf0;" horiz-adv-x="1239" 
d="M1028 1059q160 -238 160 -518q0 -269 -156 -421.5t-422 -152.5q-255 0 -407 140t-152 376q0 246 126.5 391.5t340.5 145.5q67 0 119 -19v5q-55 63 -133 135l-266 -94l-58 157l174 62q-38 30 -121 88l338 137q87 -56 138 -98l254 90l57 -158l-168 -59q106 -103 176 -207z
M625 252q75 0 116 68.5t41 193.5q0 124 -41 193t-116 69t-116.5 -69.5t-41.5 -192.5q0 -124 41.5 -193t116.5 -69z" />
    <glyph glyph-name="ntilde" unicode="&#xf1;" 
d="M846 1458h203q-6 -145 -74.5 -228t-192.5 -83q-55 0 -107 21t-94 42t-73 21q-37 0 -56.5 -20.5t-25.5 -63.5h-203q8 147 76.5 229t192.5 82q54 0 106.5 -20.5t95 -41t72.5 -20.5q37 0 56.5 19.5t23.5 62.5zM780 1069q178 0 279.5 -110.5t101.5 -317.5v-641h-393v592
q0 174 -123 174q-141 0 -141 -244v-522h-393v1040h364v-118h4q111 147 301 147z" />
    <glyph glyph-name="ograve" unicode="&#xf2;" horiz-adv-x="1265" 
d="M686 1458l164 -307h-299l-291 307h426zM633 1073q266 0 423.5 -150t157.5 -403t-157.5 -403t-423.5 -150t-424 150t-158 403t158 403t424 150zM633 780q-79 0 -123.5 -68.5t-44.5 -191.5t44.5 -191.5t123.5 -68.5t123.5 68.5t44.5 191.5t-44.5 191.5t-123.5 68.5z" />
    <glyph glyph-name="oacute" unicode="&#xf3;" horiz-adv-x="1265" 
d="M715 1151h-299l164 307h426zM633 1073q266 0 423.5 -150t157.5 -403t-157.5 -403t-423.5 -150t-424 150t-158 403t158 403t424 150zM633 780q-79 0 -123.5 -68.5t-44.5 -191.5t44.5 -191.5t123.5 -68.5t123.5 68.5t44.5 191.5t-44.5 191.5t-123.5 68.5z" />
    <glyph glyph-name="ocircumflex" unicode="&#xf4;" horiz-adv-x="1265" 
d="M745 1151l-112 154l-113 -154h-305l252 307h332l252 -307h-306zM633 1073q266 0 423.5 -150t157.5 -403t-157.5 -403t-423.5 -150t-424 150t-158 403t158 403t424 150zM633 780q-79 0 -123.5 -68.5t-44.5 -191.5t44.5 -191.5t123.5 -68.5t123.5 68.5t44.5 191.5
t-44.5 191.5t-123.5 68.5z" />
    <glyph glyph-name="otilde" unicode="&#xf5;" horiz-adv-x="1265" 
d="M842 1458h202q-6 -146 -74 -228.5t-192 -82.5q-55 0 -107 21t-94 42t-73 21q-37 0 -56.5 -20.5t-25.5 -63.5h-203q8 147 76 229t192 82q54 0 106.5 -20.5t95.5 -41t73 -20.5q37 0 56.5 19.5t23.5 62.5zM633 1073q266 0 423.5 -150t157.5 -403t-157.5 -403t-423.5 -150
t-424 150t-158 403t158 403t424 150zM633 780q-79 0 -123.5 -68.5t-44.5 -191.5t44.5 -191.5t123.5 -68.5t123.5 68.5t44.5 191.5t-44.5 191.5t-123.5 68.5z" />
    <glyph glyph-name="odieresis" unicode="&#xf6;" horiz-adv-x="1265" 
d="M557 1169h-332v289h332v-289zM1042 1169h-333v289h333v-289zM633 1073q266 0 423.5 -150t157.5 -403t-157.5 -403t-423.5 -150t-424 150t-158 403t158 403t424 150zM633 780q-79 0 -123.5 -68.5t-44.5 -191.5t44.5 -191.5t123.5 -68.5t123.5 68.5t44.5 191.5t-44.5 191.5
t-123.5 68.5z" />
    <glyph glyph-name="divide" unicode="&#xf7;" horiz-adv-x="1159" 
d="M748 901h-336v258h336v-258zM1047 498h-934v305h934v-305zM748 139h-336v258h336v-258z" />
    <glyph glyph-name="oslash" unicode="&#xf8;" horiz-adv-x="1265" 
d="M1143 1069l-99 -135q170 -150 170 -414q0 -253 -157.5 -403t-423.5 -150q-147 0 -262 47l-107 -145l-139 102l98 133q-172 149 -172 416q0 253 158 403t424 150q146 0 264 -47l107 145zM633 799q-92 0 -143.5 -75.5t-51.5 -203.5q0 -62 17 -125l274 375q-43 29 -96 29z
M633 242q92 0 143 75t51 203q0 74 -14 123l-274 -375q44 -26 94 -26z" />
    <glyph glyph-name="ugrave" unicode="&#xf9;" 
d="M686 1458l164 -307h-299l-291 307h426zM481 -29q-178 0 -279.5 110.5t-101.5 317.5v641h394v-591q0 -175 122 -175q142 0 142 244v522h393v-1040h-365v119h-4q-112 -148 -301 -148z" />
    <glyph glyph-name="uacute" unicode="&#xfa;" 
d="M713 1151h-299l164 307h426zM481 -29q-178 0 -279.5 110.5t-101.5 317.5v641h394v-591q0 -175 122 -175q142 0 142 244v522h393v-1040h-365v119h-4q-112 -148 -301 -148z" />
    <glyph glyph-name="ucircumflex" unicode="&#xfb;" 
d="M745 1151l-112 154l-113 -154h-305l252 307h332l252 -307h-306zM481 -29q-178 0 -279.5 110.5t-101.5 317.5v641h394v-591q0 -175 122 -175q142 0 142 244v522h393v-1040h-365v119h-4q-112 -148 -301 -148z" />
    <glyph glyph-name="udieresis" unicode="&#xfc;" 
d="M555 1169h-332v289h332v-289zM1040 1169h-333v289h333v-289zM481 -29q-178 0 -279.5 110.5t-101.5 317.5v641h394v-591q0 -175 122 -175q142 0 142 244v522h393v-1040h-365v119h-4q-112 -148 -301 -148z" />
    <glyph glyph-name="yacute" unicode="&#xfd;" horiz-adv-x="1140" 
d="M659 1151h-299l164 307h426zM1159 1040l-321 -995q-78 -246 -188.5 -342t-313.5 -96q-124 0 -205 20v283q47 -12 96 -12q129 0 129 102q0 23 -10.5 57.5t-54.5 155.5l-316 827h426l93 -346q51 -196 96 -432h4q34 214 84 434l80 344h401z" />
    <glyph glyph-name="thorn" unicode="&#xfe;" horiz-adv-x="1273" 
d="M504 942h4q44 63 117 96t155 33q203 0 323 -149.5t120 -401.5t-120 -401.5t-323 -149.5q-82 0 -155 33t-117 96h-4v-477h-393v1837h393v-516zM645 774q-74 0 -118 -68.5t-44 -185.5t44 -185.5t118 -68.5q76 0 121 68.5t45 185.5t-45 185.5t-121 68.5z" />
    <glyph glyph-name="ydieresis" unicode="&#xff;" horiz-adv-x="1140" 
d="M502 1169h-332v289h332v-289zM987 1169h-334v289h334v-289zM1159 1040l-321 -995q-78 -246 -188.5 -342t-313.5 -96q-124 0 -205 20v283q47 -12 96 -12q129 0 129 102q0 23 -10.5 57.5t-54.5 155.5l-316 827h426l93 -346q51 -196 96 -432h4q34 214 84 434l80 344h401z
" />
    <glyph glyph-name="Amacron" unicode="&#x100;" horiz-adv-x="1497" 
d="M1151 1587h-805v236h805v-236zM995 262h-493l-74 -262h-432l489 1458h527l489 -1458h-432zM905 584l-28 100q-63 225 -125 492h-4q-65 -280 -127 -492l-29 -100h313z" />
    <glyph glyph-name="amacron" unicode="&#x101;" horiz-adv-x="1179" 
d="M971 1190h-805v235h805v-235zM582 1073q251 0 374 -110.5t123 -321.5v-338q0 -194 33 -303h-354q-17 63 -17 131h-4q-124 -160 -338 -160q-166 0 -264 92t-98 234q0 141 98.5 223t325.5 117q123 19 239 27v36q0 144 -122 144q-120 0 -123 -133h-375q5 75 35 138.5
t88.5 114.5t155 80t223.5 29zM700 428v39q-90 -8 -159 -23q-63 -13 -91 -42.5t-28 -77.5q0 -49 30 -79t85 -30q77 0 118 49q27 29 36 65.5t9 98.5z" />
    <glyph glyph-name="Abreve" unicode="&#x102;" horiz-adv-x="1497" 
d="M750 1554q-173 0 -269 84t-102 238h239q6 -104 132 -104q125 0 131 104h239q-6 -154 -101.5 -238t-268.5 -84zM995 262h-493l-74 -262h-432l489 1458h527l489 -1458h-432zM905 584l-28 100q-63 225 -125 492h-4q-65 -280 -127 -492l-29 -100h313z" />
    <glyph glyph-name="abreve" unicode="&#x103;" horiz-adv-x="1179" 
d="M700 1458h240q-6 -154 -102 -237.5t-269 -83.5t-268.5 83.5t-101.5 237.5h239q6 -104 131 -104t131 104zM582 1073q251 0 374 -110.5t123 -321.5v-338q0 -194 33 -303h-354q-17 63 -17 131h-4q-124 -160 -338 -160q-166 0 -264 92t-98 234q0 141 98.5 223t325.5 117
q123 19 239 27v36q0 144 -122 144q-120 0 -123 -133h-375q5 75 35 138.5t88.5 114.5t155 80t223.5 29zM700 428v39q-90 -8 -159 -23q-63 -13 -91 -42.5t-28 -77.5q0 -49 30 -79t85 -30q77 0 118 49q27 29 36 65.5t9 98.5z" />
    <glyph glyph-name="Aogonek" unicode="&#x104;" horiz-adv-x="1497" 
d="M1442 -201q36 0 65 13v-191q-94 -33 -217 -33q-137 0 -205.5 51.5t-68.5 145.5q0 66 46 117.5t138 97.5h-131l-74 262h-493l-74 -262h-432l489 1458h527l489 -1458q-68 -43 -95.5 -76.5t-27.5 -68.5q0 -56 64 -56zM905 584l-28 100q-63 225 -125 492h-4
q-65 -280 -127 -492l-29 -100h313z" />
    <glyph glyph-name="aogonek" unicode="&#x105;" horiz-adv-x="1179" 
d="M1053 -201q36 0 65 13v-191q-94 -33 -217 -33q-137 0 -205.5 51.5t-68.5 145.5q0 66 46 117.5t138 97.5h-53q-17 63 -17 131h-4q-124 -160 -338 -160q-166 0 -264 92t-98 234q0 141 98.5 223t325.5 117q123 19 239 27v36q0 144 -122 144q-120 0 -123 -133h-375
q5 75 35 138.5t88.5 114.5t155 80t223.5 29q251 0 374 -110.5t123 -321.5v-338q0 -194 33 -303q-68 -43 -95.5 -76.5t-27.5 -68.5q0 -56 64 -56zM700 428v39q-90 -8 -159 -23q-63 -13 -91 -42.5t-28 -77.5q0 -49 30 -79t85 -30q77 0 118 49q27 29 36 65.5t9 98.5z" />
    <glyph glyph-name="Cacute" unicode="&#x106;" horiz-adv-x="1495" 
d="M842 1556h-299l164 320h426zM760 1491q296 0 474.5 -153.5t190.5 -422.5h-430q-12 108 -72.5 168t-162.5 60q-124 0 -196 -110.5t-72 -303.5q0 -192 72.5 -303t195.5 -111q100 0 163.5 63.5t73.5 176.5h437q-23 -282 -202 -435t-472 -153q-325 0 -511 203.5t-186 558.5
t186.5 558.5t510.5 203.5z" />
    <glyph glyph-name="cacute" unicode="&#x107;" horiz-adv-x="1206" 
d="M694 1151h-299l164 307h426zM614 1073q232 0 380.5 -119.5t168.5 -322.5h-407q-6 72 -42 110.5t-93 38.5q-74 0 -115 -66t-41 -190q0 -128 41 -196t115 -68q60 0 96 44t39 124h407q-17 -214 -165 -337.5t-384 -123.5q-257 0 -410 150.5t-153 406.5q0 252 152.5 400.5
t410.5 148.5z" />
    <glyph glyph-name="Ccircumflex" unicode="&#x108;" horiz-adv-x="1495" 
d="M592 1876h332l262 -320h-305l-123 166l-121 -166h-305zM760 1491q296 0 474.5 -153.5t190.5 -422.5h-430q-12 108 -72.5 168t-162.5 60q-124 0 -196 -110.5t-72 -303.5q0 -192 72.5 -303t195.5 -111q100 0 163.5 63.5t73.5 176.5h437q-23 -282 -202 -435t-472 -153
q-325 0 -511 203.5t-186 558.5t186.5 558.5t510.5 203.5z" />
    <glyph glyph-name="ccircumflex" unicode="&#x109;" horiz-adv-x="1206" 
d="M727 1151l-113 154l-112 -154h-305l252 307h331l252 -307h-305zM614 1073q232 0 380.5 -119.5t168.5 -322.5h-407q-6 72 -42 110.5t-93 38.5q-74 0 -115 -66t-41 -190q0 -128 41 -196t115 -68q60 0 96 44t39 124h407q-17 -214 -165 -337.5t-384 -123.5q-257 0 -410 150.5
t-153 406.5q0 252 152.5 400.5t410.5 148.5z" />
    <glyph glyph-name="Cdotaccent" unicode="&#x10a;" horiz-adv-x="1495" 
d="M954 1575h-393v289h393v-289zM760 1491q296 0 474.5 -153.5t190.5 -422.5h-430q-12 108 -72.5 168t-162.5 60q-124 0 -196 -110.5t-72 -303.5q0 -192 72.5 -303t195.5 -111q100 0 163.5 63.5t73.5 176.5h437q-23 -282 -202 -435t-472 -153q-325 0 -511 203.5t-186 558.5
t186.5 558.5t510.5 203.5z" />
    <glyph glyph-name="cdotaccent" unicode="&#x10b;" horiz-adv-x="1206" 
d="M811 1169h-393v289h393v-289zM614 1073q232 0 380.5 -119.5t168.5 -322.5h-407q-6 72 -42 110.5t-93 38.5q-74 0 -115 -66t-41 -190q0 -128 41 -196t115 -68q60 0 96 44t39 124h407q-17 -214 -165 -337.5t-384 -123.5q-257 0 -410 150.5t-153 406.5q0 252 152.5 400.5
t410.5 148.5z" />
    <glyph glyph-name="Ccaron" unicode="&#x10c;" horiz-adv-x="1495" 
d="M926 1556h-332l-262 320h305l123 -166l121 166h305zM760 1491q296 0 474.5 -153.5t190.5 -422.5h-430q-12 108 -72.5 168t-162.5 60q-124 0 -196 -110.5t-72 -303.5q0 -192 72.5 -303t195.5 -111q100 0 163.5 63.5t73.5 176.5h437q-23 -282 -202 -435t-472 -153
q-325 0 -511 203.5t-186 558.5t186.5 558.5t510.5 203.5z" />
    <glyph glyph-name="ccaron" unicode="&#x10d;" horiz-adv-x="1206" 
d="M780 1151h-331l-252 307h305l112 -153l113 153h305zM614 1073q232 0 380.5 -119.5t168.5 -322.5h-407q-6 72 -42 110.5t-93 38.5q-74 0 -115 -66t-41 -190q0 -128 41 -196t115 -68q60 0 96 44t39 124h407q-17 -214 -165 -337.5t-384 -123.5q-257 0 -410 150.5t-153 406.5
q0 252 152.5 400.5t410.5 148.5z" />
    <glyph glyph-name="Dcaron" unicode="&#x10e;" horiz-adv-x="1538" 
d="M879 1556h-332l-262 320h305l123 -166l121 166h305zM141 1458h551q375 0 579 -189.5t204 -539.5t-204 -539.5t-579 -189.5h-551v1458zM551 1114v-770h129q178 0 272.5 99.5t94.5 285.5t-94.5 285.5t-272.5 99.5h-129z" />
    <glyph glyph-name="dcaron" unicode="&#x10f;" horiz-adv-x="1273" 
d="M1163 0h-377v119h-4q-46 -73 -119.5 -111.5t-158.5 -38.5q-206 0 -329.5 149.5t-123.5 401.5t120 401.5t323 149.5q82 0 155 -33t117 -96h4v516h393v-1458zM1442 1094h-221l43 364h309zM629 774q-76 0 -121 -68.5t-45 -185.5t45 -185.5t121 -68.5q74 0 118 68.5t44 185.5
t-44 185.5t-118 68.5z" />
    <glyph glyph-name="Dcroat" unicode="&#x110;" horiz-adv-x="1544" 
d="M150 1458h548q376 0 579.5 -189.5t203.5 -539.5t-203.5 -539.5t-579.5 -189.5h-548v610h-123v250h123v598zM557 344h129q178 0 272.5 99.5t94.5 285.5t-94.5 285.5t-272.5 99.5h-129v-254h287v-250h-287v-266z" />
    <glyph glyph-name="dcroat" unicode="&#x111;" horiz-adv-x="1267" 
d="M1296 1163h-133v-1163h-377v119h-4q-46 -73 -119.5 -111.5t-158.5 -38.5q-206 0 -329.5 149.5t-123.5 401.5t120 401.5t323 149.5q82 0 155 -33t117 -96h4v221h-276v174h276v121h393v-121h133v-174zM629 266q74 0 118 68.5t44 185.5t-44 185.5t-118 68.5
q-76 0 -121 -68.5t-45 -185.5t45 -185.5t121 -68.5z" />
    <glyph glyph-name="Emacron" unicode="&#x112;" horiz-adv-x="1300" 
d="M1075 1587h-805v236h805v-236zM1196 1120h-645v-219h600v-330h-600v-233h657v-338h-1067v1458h1055v-338z" />
    <glyph glyph-name="emacron" unicode="&#x113;" horiz-adv-x="1216" 
d="M1010 1190h-805v235h805v-235zM608 221q59 0 97.5 28t44.5 73h401q-35 -154 -182.5 -254.5t-356.5 -100.5q-134 0 -241.5 43t-176.5 118.5t-106 177t-37 220.5q0 155 64 278t191.5 196t299.5 73q189 0 321 -84t193 -237q45 -112 45 -312h-727q6 -121 50.5 -170t119.5 -49
zM606 827q-140 0 -166 -180h330q-7 93 -51 136.5t-113 43.5z" />
    <glyph glyph-name="Ebreve" unicode="&#x114;" horiz-adv-x="1300" 
d="M805 1876h239q-6 -154 -101.5 -238t-268.5 -84t-269 84t-102 238h240q6 -104 131 -104t131 104zM1196 1120h-645v-219h600v-330h-600v-233h657v-338h-1067v1458h1055v-338z" />
    <glyph glyph-name="ebreve" unicode="&#x115;" horiz-adv-x="1216" 
d="M608 1137q-173 0 -268.5 83.5t-101.5 237.5h239q6 -104 131 -104t131 104h240q-6 -154 -102 -237.5t-269 -83.5zM608 221q59 0 97.5 28t44.5 73h401q-35 -154 -182.5 -254.5t-356.5 -100.5q-134 0 -241.5 43t-176.5 118.5t-106 177t-37 220.5q0 155 64 278t191.5 196
t299.5 73q189 0 321 -84t193 -237q45 -112 45 -312h-727q6 -121 50.5 -170t119.5 -49zM606 827q-140 0 -166 -180h330q-7 93 -51 136.5t-113 43.5z" />
    <glyph glyph-name="Edotaccent" unicode="&#x116;" horiz-adv-x="1300" 
d="M868 1575h-393v289h393v-289zM1196 1120h-645v-219h600v-330h-600v-233h657v-338h-1067v1458h1055v-338z" />
    <glyph glyph-name="edotaccent" unicode="&#x117;" horiz-adv-x="1216" 
d="M805 1169h-393v289h393v-289zM608 221q59 0 97.5 28t44.5 73h401q-35 -154 -182.5 -254.5t-356.5 -100.5q-134 0 -241.5 43t-176.5 118.5t-106 177t-37 220.5q0 155 64 278t191.5 196t299.5 73q189 0 321 -84t193 -237q45 -112 45 -312h-727q6 -121 50.5 -170t119.5 -49z
M606 827q-140 0 -166 -180h330q-7 93 -51 136.5t-113 43.5z" />
    <glyph glyph-name="Eogonek" unicode="&#x118;" horiz-adv-x="1300" 
d="M1151 -201q37 0 66 13v-191q-94 -33 -218 -33q-137 0 -205.5 51.5t-68.5 145.5q0 66 46 117.5t138 97.5h-768v1458h1055v-338h-645v-219h600v-330h-600v-233h657v-338h2q-68 -43 -95.5 -76.5t-27.5 -68.5q0 -56 64 -56z" />
    <glyph glyph-name="eogonek" unicode="&#x119;" horiz-adv-x="1216" 
d="M987 59q-59 -56 -82.5 -100.5t-23.5 -89.5q0 -70 69 -70q37 0 66 13v-191q-97 -33 -219 -33q-136 0 -204.5 51.5t-68.5 145.5q0 104 127 180v4q-14 -2 -39 -2q-134 0 -241.5 43t-176.5 118.5t-106 177t-37 220.5q0 155 64 278t191.5 196t299.5 73q189 0 321 -84t193 -237
q45 -112 45 -312h-727q6 -121 50.5 -170t119.5 -49q59 0 97.5 28t44.5 73h401q-30 -131 -164 -263zM606 827q-140 0 -166 -180h330q-7 93 -51 136.5t-113 43.5z" />
    <glyph glyph-name="Ecaron" unicode="&#x11a;" horiz-adv-x="1300" 
d="M840 1556h-332l-262 320h305l123 -166l121 166h305zM1196 1120h-645v-219h600v-330h-600v-233h657v-338h-1067v1458h1055v-338z" />
    <glyph glyph-name="ecaron" unicode="&#x11b;" horiz-adv-x="1216" 
d="M442 1151l-252 307h306l112 -153l113 153h305l-252 -307h-332zM608 221q59 0 97.5 28t44.5 73h401q-35 -154 -182.5 -254.5t-356.5 -100.5q-134 0 -241.5 43t-176.5 118.5t-106 177t-37 220.5q0 155 64 278t191.5 196t299.5 73q189 0 321 -84t193 -237q45 -112 45 -312
h-727q6 -121 50.5 -170t119.5 -49zM606 827q-140 0 -166 -180h330q-7 93 -51 136.5t-113 43.5z" />
    <glyph glyph-name="Gcircumflex" unicode="&#x11c;" horiz-adv-x="1552" 
d="M604 1876h332l262 -320h-305l-123 166l-121 -166h-305zM786 1491q280 0 455.5 -138.5t190.5 -369.5h-435q-14 86 -68 132t-145 46q-134 0 -213 -117.5t-79 -320.5q0 -207 79 -328t215 -121q117 0 186 71t75 192h-281v299h661v-836h-350v139h-4q-132 -170 -389 -170
q-288 0 -454.5 202t-166.5 552q0 358 193 563t530 205z" />
    <glyph glyph-name="gcircumflex" unicode="&#x11d;" horiz-adv-x="1255" 
d="M707 1151l-113 154l-113 -154h-305l252 307h332l252 -307h-305zM483 1071q89 0 166 -45.5t125 -124.5h4v139h367v-968q0 -475 -553 -475q-220 0 -348.5 88t-147.5 249h373q3 -47 37 -73.5t92 -26.5q80 0 122 51.5t42 173.5v101h-4q-46 -69 -121.5 -107.5t-163.5 -38.5
q-194 0 -308 143.5t-114 385.5t116.5 385t315.5 143zM616 774q-74 0 -117.5 -63t-43.5 -168t43 -167.5t118 -62.5q72 0 115 63t43 167t-43 167.5t-115 63.5z" />
    <glyph glyph-name="Gbreve" unicode="&#x11e;" horiz-adv-x="1552" 
d="M903 1876h240q-6 -154 -102 -238t-269 -84t-269 84t-102 238h240q6 -104 131 -104t131 104zM786 1491q280 0 455.5 -138.5t190.5 -369.5h-435q-14 86 -68 132t-145 46q-134 0 -213 -117.5t-79 -320.5q0 -207 79 -328t215 -121q117 0 186 71t75 192h-281v299h661v-836
h-350v139h-4q-132 -170 -389 -170q-288 0 -454.5 202t-166.5 552q0 358 193 563t530 205z" />
    <glyph glyph-name="gbreve" unicode="&#x11f;" horiz-adv-x="1255" 
d="M725 1458h240q-6 -154 -102 -237.5t-269 -83.5t-269 83.5t-102 237.5h240q6 -104 131 -104t131 104zM483 1071q89 0 166 -45.5t125 -124.5h4v139h367v-968q0 -475 -553 -475q-220 0 -348.5 88t-147.5 249h373q3 -47 37 -73.5t92 -26.5q80 0 122 51.5t42 173.5v101h-4
q-46 -69 -121.5 -107.5t-163.5 -38.5q-194 0 -308 143.5t-114 385.5t116.5 385t315.5 143zM616 774q-74 0 -117.5 -63t-43.5 -168t43 -167.5t118 -62.5q72 0 115 63t43 167t-43 167.5t-115 63.5z" />
    <glyph glyph-name="Gdotaccent" unicode="&#x120;" horiz-adv-x="1552" 
d="M967 1575h-394v289h394v-289zM786 1491q280 0 455.5 -138.5t190.5 -369.5h-435q-14 86 -68 132t-145 46q-134 0 -213 -117.5t-79 -320.5q0 -207 79 -328t215 -121q117 0 186 71t75 192h-281v299h661v-836h-350v139h-4q-132 -170 -389 -170q-288 0 -454.5 202t-166.5 552
q0 358 193 563t530 205z" />
    <glyph glyph-name="gdotaccent" unicode="&#x121;" horiz-adv-x="1255" 
d="M791 1169h-394v289h394v-289zM483 1071q89 0 166 -45.5t125 -124.5h4v139h367v-968q0 -475 -553 -475q-220 0 -348.5 88t-147.5 249h373q3 -47 37 -73.5t92 -26.5q80 0 122 51.5t42 173.5v101h-4q-46 -69 -121.5 -107.5t-163.5 -38.5q-194 0 -308 143.5t-114 385.5
t116.5 385t315.5 143zM616 774q-74 0 -117.5 -63t-43.5 -168t43 -167.5t118 -62.5q72 0 115 63t43 167t-43 167.5t-115 63.5z" />
    <glyph glyph-name="Gcommaaccent" unicode="&#x122;" horiz-adv-x="1552" 
d="M786 1491q280 0 455.5 -138.5t190.5 -369.5h-435q-14 86 -68 132t-145 46q-134 0 -213 -117.5t-79 -320.5q0 -207 79 -328t215 -121q117 0 186 71t75 192h-281v299h661v-836h-350v139h-4q-132 -170 -389 -170q-288 0 -454.5 202t-166.5 552q0 358 193 563t530 205z
M926 -348l-150 -225h-143l96 225h-96v248h293v-248z" />
    <glyph glyph-name="gcommaaccent" unicode="&#x123;" horiz-adv-x="1255" 
d="M643 1409h96v-248h-293v248l150 225h143zM483 1071q89 0 166 -45.5t125 -124.5h4v139h367v-968q0 -475 -553 -475q-220 0 -348.5 88t-147.5 249h373q3 -47 37 -73.5t92 -26.5q80 0 122 51.5t42 173.5v101h-4q-46 -69 -121.5 -107.5t-163.5 -38.5q-194 0 -308 143.5
t-114 385.5t116.5 385t315.5 143zM616 774q-74 0 -117.5 -63t-43.5 -168t43 -167.5t118 -62.5q72 0 115 63t43 167t-43 167.5t-115 63.5z" />
    <glyph glyph-name="Hcircumflex" unicode="&#x124;" horiz-adv-x="1579" 
d="M623 1876h331l263 -320h-306l-123 166l-120 -166h-306zM1438 0h-410v578h-477v-578h-410v1458h410v-536h477v536h410v-1458z" />
    <glyph glyph-name="hcircumflex" unicode="&#x125;" 
d="M461 1876h332l262 -320h-305l-123 166l-121 -166h-305zM504 946h4q99 123 272 123q178 0 279.5 -110.5t101.5 -317.5v-641h-393v592q0 174 -123 174q-141 0 -141 -244v-522h-393v1458h393v-512z" />
    <glyph glyph-name="Hbar" unicode="&#x126;" horiz-adv-x="1579" 
d="M1540 1145h-102v-1145h-410v578h-477v-578h-410v1145h-102v184h102v129h410v-129h477v129h410v-129h102v-184zM1028 1145h-477v-223h477v223z" />
    <glyph glyph-name="hbar" unicode="&#x127;" 
d="M780 1069q178 0 279.5 -110.5t101.5 -317.5v-641h-393v592q0 174 -123 174q-141 0 -141 -244v-522h-393v1163h-142v168h142v127h393v-127h270v-168h-270v-217h4q99 123 272 123z" />
    <glyph glyph-name="Itilde" unicode="&#x128;" horiz-adv-x="692" 
d="M555 1876h203q-6 -146 -74 -228.5t-192 -82.5q-55 0 -107 21t-94.5 42t-73.5 21q-37 0 -56.5 -20.5t-25.5 -63.5h-203q8 147 76.5 229t192.5 82q54 0 106.5 -20.5t95 -41t72.5 -20.5q37 0 56.5 19.5t23.5 62.5zM551 0h-410v1458h410v-1458z" />
    <glyph glyph-name="itilde" unicode="&#x129;" horiz-adv-x="614" 
d="M496 1458h178q-6 -148 -69.5 -231.5t-176.5 -83.5q-48 0 -93 22t-82 44t-67 22q-60 0 -69 -88h-176q8 150 69.5 232.5t175.5 82.5q48 0 93.5 -21.5t82.5 -43t66 -21.5q62 0 68 86zM504 0h-393v1040h393v-1040z" />
    <glyph glyph-name="Imacron" unicode="&#x12a;" horiz-adv-x="692" 
d="M748 1587h-805v236h805v-236zM551 0h-410v1458h410v-1458z" />
    <glyph glyph-name="imacron" unicode="&#x12b;" horiz-adv-x="614" 
d="M627 1188h-641v237h641v-237zM504 0h-393v1040h393v-1040z" />
    <glyph glyph-name="Ibreve" unicode="&#x12c;" horiz-adv-x="692" 
d="M477 1876h240q-6 -154 -102 -238t-269 -84t-269 84t-102 238h240q6 -104 131 -104t131 104zM551 0h-410v1458h410v-1458z" />
    <glyph glyph-name="ibreve" unicode="&#x12d;" horiz-adv-x="614" 
d="M414 1458h231q-5 -155 -91.5 -238t-246.5 -83t-246.5 83t-91.5 238h232q3 -108 106 -108q52 0 78 26t29 82zM504 0h-393v1040h393v-1040z" />
    <glyph glyph-name="Iogonek" unicode="&#x12e;" horiz-adv-x="692" 
d="M492 -201q36 0 65 13v-191q-94 -33 -217 -33q-137 0 -205.5 51.5t-68.5 145.5q0 66 46 117.5t138 97.5h-109v1458h410v-1458q-68 -43 -95.5 -76.5t-27.5 -68.5q0 -56 64 -56z" />
    <glyph glyph-name="iogonek" unicode="&#x12f;" horiz-adv-x="614" 
d="M504 1169h-393v289h393v-289zM444 -201q37 0 66 13v-191q-94 -33 -217 -33q-137 0 -206 51.5t-69 145.5q0 66 46.5 117t138.5 98h-92v1040h393v-1040q-68 -43 -95.5 -76.5t-27.5 -68.5q0 -56 63 -56z" />
    <glyph glyph-name="Idotaccent" unicode="&#x130;" horiz-adv-x="692" 
d="M541 1575h-394v289h394v-289zM551 0h-410v1458h410v-1458z" />
    <glyph glyph-name="dotlessi" unicode="&#x131;" horiz-adv-x="614" 
d="M504 0h-393v1040h393v-1040z" />
    <glyph glyph-name="IJ" unicode="&#x132;" horiz-adv-x="1568" 
d="M551 0h-410v1458h410v-1458zM1438 1458v-938q0 -279 -129 -409.5t-400 -130.5q-89 0 -186 22v334q54 -8 90 -8q121 0 168 61t47 227v842h410z" />
    <glyph glyph-name="ij" unicode="&#x133;" horiz-adv-x="1228" 
d="M504 1169h-393v289h393v-289zM1118 1169h-393v289h393v-289zM504 0h-393v1040h393v-1040zM1118 1040v-1011q0 -212 -111 -316t-298 -104q-109 0 -189 22v271q21 -6 51 -6q81 0 117.5 43t36.5 157v944h393z" />
    <glyph glyph-name="Jcircumflex" unicode="&#x134;" horiz-adv-x="876" 
d="M377 1876h332l262 -320h-305l-123 166l-121 -166h-305zM745 1458v-938q0 -279 -128.5 -409.5t-399.5 -130.5q-89 0 -186 22v334q54 -8 90 -8q121 0 168 61t47 227v842h409z" />
    <glyph glyph-name="jcircumflex" unicode="&#x135;" horiz-adv-x="614" 
d="M694 1157h-288l-99 131l-96 -131h-291l232 301h311zM504 1040v-1011q0 -212 -111.5 -316t-298.5 -104q-108 0 -188 22v271q21 -6 51 -6q81 0 117.5 43t36.5 157v944h393z" />
    <glyph glyph-name="Kcommaaccent" unicode="&#x136;" horiz-adv-x="1466" 
d="M924 770l536 -770h-512l-393 653h-4v-653h-410v1458h410v-614h4l381 614h494zM881 -348l-150 -225h-143l96 225h-96v248h293v-248z" />
    <glyph glyph-name="kcommaaccent" unicode="&#x137;" horiz-adv-x="1206" 
d="M504 0h-393v1458h393v-815h4l219 397h465l-348 -491l383 -549h-482l-237 455h-4v-455zM473 -100h293v-248l-150 -225h-143l96 225h-96v248z" />
    <glyph glyph-name="kgreenlandic" unicode="&#x138;" horiz-adv-x="1218" 
d="M1227 0h-482l-237 455h-4v-455h-393v1040h393v-397h4l219 397h465l-348 -491z" />
    <glyph glyph-name="Lacute" unicode="&#x139;" horiz-adv-x="1200" 
d="M489 1556h-299l164 320h426zM551 344h633v-344h-1043v1458h410v-1114z" />
    <glyph glyph-name="lacute" unicode="&#x13a;" horiz-adv-x="614" 
d="M412 1569h-299l163 307h426zM504 0h-393v1458h393v-1458z" />
    <glyph glyph-name="Lcommaaccent" unicode="&#x13b;" horiz-adv-x="1200" 
d="M551 344h633v-344h-1043v1458h410v-1114zM809 -348l-150 -225h-143l96 225h-96v248h293v-248z" />
    <glyph glyph-name="lcommaaccent" unicode="&#x13c;" horiz-adv-x="614" 
d="M504 0h-393v1458h393v-1458zM455 -348l-150 -225h-143l96 225h-96v248h293v-248z" />
    <glyph glyph-name="Lcaron" unicode="&#x13d;" horiz-adv-x="1200" 
d="M551 344h633v-344h-1043v1458h410v-1114zM840 979h-222l44 479h309z" />
    <glyph glyph-name="lcaron" unicode="&#x13e;" horiz-adv-x="614" 
d="M504 0h-393v1458h393v-1458zM782 1094h-221l43 364h309z" />
    <glyph glyph-name="Ldot" unicode="&#x13f;" horiz-adv-x="1374" 
d="M551 344h633v-344h-1043v1458h410v-1114zM1241 698h-410v410h410v-410z" />
    <glyph glyph-name="ldot" unicode="&#x140;" horiz-adv-x="1112" 
d="M504 0h-393v1458h393v-1458zM1067 522h-410v410h410v-410z" />
    <glyph glyph-name="Lslash" unicode="&#x141;" horiz-adv-x="1228" 
d="M1212 344v-344h-1042v565l-150 -88v297l150 88v596h410v-393l303 180v-299l-303 -178v-424h632z" />
    <glyph glyph-name="lslash" unicode="&#x142;" horiz-adv-x="761" 
d="M741 815l-163 -98v-717h-394v532l-164 -98v283l164 98v643h394v-461l163 99v-281z" />
    <glyph glyph-name="Nacute" unicode="&#x143;" horiz-adv-x="1693" 
d="M928 1556h-299l164 320h426zM1550 0h-594l-227 559q-118 293 -209 565h-4q16 -265 16 -596v-528h-391v1458h596l226 -559q115 -279 208 -565h5q-17 338 -17 596v528h391v-1458z" />
    <glyph glyph-name="nacute" unicode="&#x144;" 
d="M719 1151h-299l164 307h426zM780 1069q178 0 279.5 -110.5t101.5 -317.5v-641h-393v592q0 174 -123 174q-141 0 -141 -244v-522h-393v1040h364v-118h4q111 147 301 147z" />
    <glyph glyph-name="Ncommaaccent" unicode="&#x145;" horiz-adv-x="1693" 
d="M1550 0h-594l-227 559q-118 293 -209 565h-4q16 -265 16 -596v-528h-391v1458h596l226 -559q115 -279 208 -565h5q-17 338 -17 596v528h391v-1458zM991 -348l-149 -225h-144l97 225h-97v248h293v-248z" />
    <glyph glyph-name="ncommaaccent" unicode="&#x146;" 
d="M780 1069q178 0 279.5 -110.5t101.5 -317.5v-641h-393v592q0 174 -123 174q-141 0 -141 -244v-522h-393v1040h364v-118h4q111 147 301 147zM782 -348l-149 -225h-144l97 225h-97v248h293v-248z" />
    <glyph glyph-name="Ncaron" unicode="&#x147;" horiz-adv-x="1693" 
d="M1014 1556h-332l-262 320h305l123 -166l121 166h305zM1550 0h-594l-227 559q-118 293 -209 565h-4q16 -265 16 -596v-528h-391v1458h596l226 -559q115 -279 208 -565h5q-17 338 -17 596v528h391v-1458z" />
    <glyph glyph-name="ncaron" unicode="&#x148;" 
d="M803 1151h-332l-252 307h305l113 -153l113 153h305zM780 1069q178 0 279.5 -110.5t101.5 -317.5v-641h-393v592q0 174 -123 174q-141 0 -141 -244v-522h-393v1040h364v-118h4q111 147 301 147z" />
    <glyph glyph-name="napostrophe" unicode="&#x149;" horiz-adv-x="1648" 
d="M455 1108l-187 -320h-196l147 320h-113v350h349v-350zM1169 1069q178 0 278.5 -110t100.5 -318v-641h-393v592q0 174 -121 174q-143 0 -143 -244v-522h-393v1040h366v-118h4q111 147 301 147z" />
    <glyph glyph-name="Eng" unicode="&#x14a;" horiz-adv-x="1583" 
d="M1442 1458v-1448q0 -106 -31 -186t-87.5 -128t-131 -71.5t-166.5 -23.5q-110 0 -180 20v260q21 -6 53 -6q68 0 100.5 25t32.5 82q0 36 -14 70.5t-72 142.5l-219 403q-133 251 -211 449h-4q20 -243 20 -515v-532h-391v1458h506l207 -387q105 -189 215 -450h4
q-22 234 -22 512v325h391z" />
    <glyph glyph-name="eng" unicode="&#x14b;" 
d="M786 1071q167 0 261 -94q59 -58 86.5 -141.5t27.5 -227.5v-577q0 -107 -30.5 -188.5t-86 -131t-129 -74t-163.5 -24.5q-109 0 -189 22v269q21 -6 51 -6q81 0 117.5 43.5t36.5 158.5v469q0 67 -10 105t-33 63q-31 31 -78 31q-143 0 -143 -248v-520h-393v1040h393v-94h4
q113 125 278 125z" />
    <glyph glyph-name="Omacron" unicode="&#x14c;" horiz-adv-x="1570" 
d="M1188 1587h-805v236h805v-236zM784 1491q332 0 527.5 -206t195.5 -556t-195.5 -556t-527.5 -206q-330 0 -525.5 206t-195.5 556t195.5 556t525.5 206zM784 1143q-139 0 -214.5 -108t-75.5 -306t75.5 -306t214.5 -108q141 0 217 108t76 306t-76 306t-217 108z" />
    <glyph glyph-name="omacron" unicode="&#x14d;" horiz-adv-x="1265" 
d="M1036 1190h-805v235h805v-235zM633 1073q266 0 423.5 -150t157.5 -403t-157.5 -403t-423.5 -150t-424 150t-158 403t158 403t424 150zM633 780q-79 0 -123.5 -68.5t-44.5 -191.5t44.5 -191.5t123.5 -68.5t123.5 68.5t44.5 191.5t-44.5 191.5t-123.5 68.5z" />
    <glyph glyph-name="Obreve" unicode="&#x14e;" horiz-adv-x="1570" 
d="M915 1876h240q-6 -154 -102 -238t-269 -84t-268.5 84t-101.5 238h239q6 -104 131 -104t131 104zM784 1491q332 0 527.5 -206t195.5 -556t-195.5 -556t-527.5 -206q-330 0 -525.5 206t-195.5 556t195.5 556t525.5 206zM784 1143q-139 0 -214.5 -108t-75.5 -306t75.5 -306
t214.5 -108q141 0 217 108t76 306t-76 306t-217 108z" />
    <glyph glyph-name="obreve" unicode="&#x14f;" horiz-adv-x="1265" 
d="M764 1458h240q-6 -154 -102 -237.5t-269 -83.5t-269 83.5t-102 237.5h240q6 -104 131 -104t131 104zM633 1073q266 0 423.5 -150t157.5 -403t-157.5 -403t-423.5 -150t-424 150t-158 403t158 403t424 150zM633 780q-79 0 -123.5 -68.5t-44.5 -191.5t44.5 -191.5
t123.5 -68.5t123.5 68.5t44.5 191.5t-44.5 191.5t-123.5 68.5z" />
    <glyph glyph-name="Ohungarumlaut" unicode="&#x150;" horiz-adv-x="1570" 
d="M641 1556h-281l205 320h367zM1092 1556h-279l203 320h366zM784 1491q332 0 527.5 -206t195.5 -556t-195.5 -556t-527.5 -206q-330 0 -525.5 206t-195.5 556t195.5 556t525.5 206zM784 1143q-139 0 -214.5 -108t-75.5 -306t75.5 -306t214.5 -108q141 0 217 108t76 306
t-76 306t-217 108z" />
    <glyph glyph-name="ohungarumlaut" unicode="&#x151;" horiz-adv-x="1265" 
d="M487 1151h-280l205 307h366zM938 1151h-279l203 307h367zM633 1073q266 0 423.5 -150t157.5 -403t-157.5 -403t-423.5 -150t-424 150t-158 403t158 403t424 150zM633 780q-79 0 -123.5 -68.5t-44.5 -191.5t44.5 -191.5t123.5 -68.5t123.5 68.5t44.5 191.5t-44.5 191.5
t-123.5 68.5z" />
    <glyph glyph-name="OE" unicode="&#x152;" horiz-adv-x="2093" 
d="M1993 1120h-650v-219h601v-330h-601v-233h658v-338h-1145q-378 0 -585.5 191t-207.5 538t207.5 538t585.5 191h1137v-338zM948 1120h-88q-183 0 -275.5 -100t-92.5 -291t92.5 -291t275.5 -100h88v782z" />
    <glyph glyph-name="oe" unicode="&#x153;" horiz-adv-x="1941" 
d="M1335 221q58 0 96 28t44 73h399q-33 -154 -179.5 -254.5t-353.5 -100.5q-225 0 -364 133q-136 -133 -359 -133q-260 0 -413.5 150t-153.5 403t153.5 403t413.5 150q223 0 359 -133q136 133 358 133q187 0 318 -84t192 -237q45 -112 45 -312h-721q6 -121 49.5 -170
t116.5 -49zM1335 827q-140 0 -164 -180h324q-7 93 -50.5 136.5t-109.5 43.5zM633 260q79 0 123.5 68.5t44.5 191.5t-44.5 191.5t-123.5 68.5t-123.5 -68.5t-44.5 -191.5t44.5 -191.5t123.5 -68.5z" />
    <glyph glyph-name="Racute" unicode="&#x154;" horiz-adv-x="1443" 
d="M780 1556h-299l164 320h426zM141 1458h650q540 0 540 -418q0 -133 -71.5 -225t-200.5 -131v-4q79 -29 127.5 -94t103.5 -209l135 -377h-434l-104 313q-37 107 -88 150t-146 43h-102v-506h-410v1458zM551 1151v-348h174q207 0 207 180q0 168 -217 168h-164z" />
    <glyph glyph-name="racute" unicode="&#x155;" horiz-adv-x="894" 
d="M553 1151h-299l164 307h426zM782 1057q53 0 103 -13v-335q-53 12 -119 12q-127 0 -194.5 -77.5t-67.5 -223.5v-420h-393v1040h364v-141h4q108 158 303 158z" />
    <glyph glyph-name="Rcommaaccent" unicode="&#x156;" horiz-adv-x="1443" 
d="M141 1458h650q540 0 540 -418q0 -133 -71.5 -225t-200.5 -131v-4q79 -29 127.5 -94t103.5 -209l135 -377h-434l-104 313q-37 107 -88 150t-146 43h-102v-506h-410v1458zM551 1151v-348h174q207 0 207 180q0 168 -217 168h-164zM887 -348l-150 -225h-143l96 225h-96v248
h293v-248z" />
    <glyph glyph-name="rcommaaccent" unicode="&#x157;" horiz-adv-x="894" 
d="M782 1057q53 0 103 -13v-335q-53 12 -119 12q-127 0 -194.5 -77.5t-67.5 -223.5v-420h-393v1040h364v-141h4q108 158 303 158zM455 -348l-150 -225h-143l96 225h-96v248h293v-248z" />
    <glyph glyph-name="Rcaron" unicode="&#x158;" horiz-adv-x="1443" 
d="M866 1556h-331l-263 320h306l122 -166l121 166h305zM141 1458h650q540 0 540 -418q0 -133 -71.5 -225t-200.5 -131v-4q79 -29 127.5 -94t103.5 -209l135 -377h-434l-104 313q-37 107 -88 150t-146 43h-102v-506h-410v1458zM551 1151v-348h174q207 0 207 180
q0 168 -217 168h-164z" />
    <glyph glyph-name="rcaron" unicode="&#x159;" horiz-adv-x="894" 
d="M639 1151h-332l-252 307h305l113 -153l113 153h305zM782 1057q53 0 103 -13v-335q-53 12 -119 12q-127 0 -194.5 -77.5t-67.5 -223.5v-420h-393v1040h364v-141h4q108 158 303 158z" />
    <glyph glyph-name="Sacute" unicode="&#x15a;" horiz-adv-x="1353" 
d="M754 1556h-299l163 320h426zM672 1491q282 0 436 -121.5t154 -353.5h-431q0 80 -45.5 123t-134.5 43q-76 0 -119 -30.5t-43 -82.5q0 -60 53.5 -89t211.5 -67q54 -13 94.5 -24t89 -27t84 -32t74.5 -38t66.5 -46.5t53.5 -57t41.5 -69t25 -82.5t9.5 -99q0 -219 -165 -345
t-455 -126q-297 0 -463 132.5t-166 373.5h442q0 -186 201 -186q82 0 128 33.5t46 91.5q0 64 -50.5 92t-205.5 67q-58 16 -93.5 26t-87 27t-83.5 31.5t-73.5 36.5t-66.5 45t-52 54.5t-42 66.5t-24.5 80t-9.5 96q0 209 159.5 333t440.5 124z" />
    <glyph glyph-name="sacute" unicode="&#x15b;" horiz-adv-x="1144" 
d="M649 1151h-299l164 307h426zM569 1073q229 0 356.5 -86.5t127.5 -257.5h-373q0 115 -117 115q-96 0 -96 -70q0 -37 38 -56.5t165 -53.5q53 -14 88 -24t83.5 -28t80 -36t66.5 -45t55 -58.5t33.5 -73.5t13.5 -92q0 -156 -132.5 -248t-373.5 -92q-531 0 -531 371h393
q0 -66 34 -97.5t106 -31.5q110 0 110 72q0 43 -46.5 66t-192.5 61q-49 13 -79 21.5t-74.5 24.5t-72 32t-59.5 42t-50 55t-30 70t-12 90q0 148 123.5 239t365.5 91z" />
    <glyph glyph-name="Scircumflex" unicode="&#x15c;" horiz-adv-x="1353" 
d="M506 1876h332l262 -320h-305l-123 166l-121 -166h-305zM672 1491q282 0 436 -121.5t154 -353.5h-431q0 80 -45.5 123t-134.5 43q-76 0 -119 -30.5t-43 -82.5q0 -60 53.5 -89t211.5 -67q54 -13 94.5 -24t89 -27t84 -32t74.5 -38t66.5 -46.5t53.5 -57t41.5 -69t25 -82.5
t9.5 -99q0 -219 -165 -345t-455 -126q-297 0 -463 132.5t-166 373.5h442q0 -186 201 -186q82 0 128 33.5t46 91.5q0 64 -50.5 92t-205.5 67q-58 16 -93.5 26t-87 27t-83.5 31.5t-73.5 36.5t-66.5 45t-52 54.5t-42 66.5t-24.5 80t-9.5 96q0 209 159.5 333t440.5 124z" />
    <glyph glyph-name="scircumflex" unicode="&#x15d;" horiz-adv-x="1144" 
d="M682 1151l-113 154l-112 -154h-305l251 307h332l252 -307h-305zM569 1073q229 0 356.5 -86.5t127.5 -257.5h-373q0 115 -117 115q-96 0 -96 -70q0 -37 38 -56.5t165 -53.5q53 -14 88 -24t83.5 -28t80 -36t66.5 -45t55 -58.5t33.5 -73.5t13.5 -92q0 -156 -132.5 -248
t-373.5 -92q-531 0 -531 371h393q0 -66 34 -97.5t106 -31.5q110 0 110 72q0 43 -46.5 66t-192.5 61q-49 13 -79 21.5t-74.5 24.5t-72 32t-59.5 42t-50 55t-30 70t-12 90q0 148 123.5 239t365.5 91z" />
    <glyph glyph-name="Scedilla" unicode="&#x15e;" horiz-adv-x="1353" 
d="M1292 438q0 -205 -146.5 -329.5t-406.5 -139.5l-55 -90q33 10 66 10q87 0 136.5 -44t49.5 -119q0 -95 -71.5 -155t-202.5 -60q-143 0 -261 71l62 127q96 -47 168 -47q38 0 59 14t21 39q0 27 -20.5 43.5t-59.5 16.5q-32 0 -62 -15l-80 66l89 145q-255 20 -395 151
t-140 351h442q0 -186 201 -186q82 0 128 33.5t46 91.5q0 64 -50.5 92t-205.5 67q-58 16 -93.5 26t-87 27t-83.5 31.5t-73.5 36.5t-66.5 45t-52 54.5t-42 66.5t-24.5 80t-9.5 96q0 209 159.5 333t440.5 124q282 0 436 -121.5t154 -353.5h-431q0 80 -45.5 123t-134.5 43
q-76 0 -119 -30.5t-43 -82.5q0 -60 53.5 -89t211.5 -67q54 -13 94.5 -24t89 -27t84 -32t74.5 -38t66.5 -46.5t53.5 -57t41.5 -69t25 -82.5t9.5 -99z" />
    <glyph glyph-name="scedilla" unicode="&#x15f;" horiz-adv-x="1144" 
d="M1090 307q0 -144 -114.5 -234.5t-322.5 -103.5l-55 -90q33 10 66 10q87 0 136.5 -44t49.5 -119q0 -94 -72 -154.5t-203 -60.5q-142 0 -260 71l62 127q96 -47 168 -47q38 0 59 14t21 39q0 27 -20.5 43.5t-59.5 16.5q-32 0 -62 -15l-80 66l86 145q-436 31 -436 367h393
q0 -66 34 -97.5t106 -31.5q110 0 110 72q0 43 -46.5 66t-192.5 61q-49 13 -79 21.5t-74.5 24.5t-72 32t-59.5 42t-50 55t-30 70t-12 90q0 148 123.5 239t365.5 91q229 0 356.5 -86.5t127.5 -257.5h-373q0 115 -117 115q-96 0 -96 -70q0 -37 38 -56.5t165 -53.5
q53 -14 88 -24t83.5 -28t80 -36t66.5 -45t55 -58.5t33.5 -73.5t13.5 -92z" />
    <glyph glyph-name="Scaron" unicode="&#x160;" horiz-adv-x="1353" 
d="M840 1556h-332l-262 320h305l123 -166l121 166h305zM672 1491q282 0 436 -121.5t154 -353.5h-431q0 80 -45.5 123t-134.5 43q-76 0 -119 -30.5t-43 -82.5q0 -60 53.5 -89t211.5 -67q54 -13 94.5 -24t89 -27t84 -32t74.5 -38t66.5 -46.5t53.5 -57t41.5 -69t25 -82.5
t9.5 -99q0 -219 -165 -345t-455 -126q-297 0 -463 132.5t-166 373.5h442q0 -186 201 -186q82 0 128 33.5t46 91.5q0 64 -50.5 92t-205.5 67q-58 16 -93.5 26t-87 27t-83.5 31.5t-73.5 36.5t-66.5 45t-52 54.5t-42 66.5t-24.5 80t-9.5 96q0 209 159.5 333t440.5 124z" />
    <glyph glyph-name="scaron" unicode="&#x161;" horiz-adv-x="1144" 
d="M735 1151h-332l-251 307h305l112 -153l113 153h305zM569 1073q229 0 356.5 -86.5t127.5 -257.5h-373q0 115 -117 115q-96 0 -96 -70q0 -37 38 -56.5t165 -53.5q53 -14 88 -24t83.5 -28t80 -36t66.5 -45t55 -58.5t33.5 -73.5t13.5 -92q0 -156 -132.5 -248t-373.5 -92
q-531 0 -531 371h393q0 -66 34 -97.5t106 -31.5q110 0 110 72q0 43 -46.5 66t-192.5 61q-49 13 -79 21.5t-74.5 24.5t-72 32t-59.5 42t-50 55t-30 70t-12 90q0 148 123.5 239t365.5 91z" />
    <glyph glyph-name="Tcedilla" unicode="&#x162;" horiz-adv-x="1306" 
d="M1290 1114h-432v-1114h-409v1114h-433v344h1274v-344zM799 -348l-150 -225h-143l96 225h-96v248h293v-248z" />
    <glyph glyph-name="tcedilla" unicode="&#x163;" horiz-adv-x="815" 
d="M690 289q44 0 74 10v-291q-83 -26 -191 -26q-212 0 -308.5 84t-96.5 270v424h-158v280h158v291h393v-291h193v-280h-193v-318q0 -83 29.5 -118t99.5 -35zM311 -100h293v-248l-149 -225h-144l97 225h-97v248z" />
    <glyph glyph-name="Tcaron" unicode="&#x164;" horiz-adv-x="1306" 
d="M821 1556h-332l-262 320h305l123 -166l121 166h305zM1290 1114h-432v-1114h-409v1114h-433v344h1274v-344z" />
    <glyph glyph-name="tcaron" unicode="&#x165;" horiz-adv-x="815" 
d="M969 1458l-131 -364h-222l43 364h310zM561 760v-318q0 -83 29.5 -118t99.5 -35q44 0 74 10v-291q-83 -26 -191 -26q-212 0 -308.5 84t-96.5 270v424h-158v280h158v291h393v-291h193v-280h-193z" />
    <glyph glyph-name="Tbar" unicode="&#x166;" horiz-adv-x="1306" 
d="M858 1114v-328h262v-249h-262v-537h-409v537h-263v249h263v328h-433v344h1274v-344h-432z" />
    <glyph glyph-name="tbar" unicode="&#x167;" horiz-adv-x="815" 
d="M690 274q41 0 74 11v-277q-83 -26 -191 -26q-212 0 -308.5 84t-96.5 270v102h-148v195h148v139h-158v268h158v291h393v-291h193v-268h-193v-139h182v-195h-182v-10q0 -82 29.5 -118t99.5 -36z" />
    <glyph glyph-name="Utilde" unicode="&#x168;" horiz-adv-x="1497" 
d="M956 1876h203q-6 -146 -74 -228.5t-192 -82.5q-55 0 -107 21t-94.5 42t-73.5 21q-37 0 -56 -20.5t-25 -63.5h-203q8 147 76 229t192 82q54 0 106.5 -20.5t95.5 -41t73 -20.5q37 0 55.5 19.5t23.5 62.5zM1368 1458v-883q0 -292 -161 -450t-457 -158q-298 0 -459.5 158
t-161.5 450v883h410v-876q0 -126 54 -192t157 -66q101 0 154.5 66t53.5 192v876h410z" />
    <glyph glyph-name="utilde" unicode="&#x169;" 
d="M842 1458h202q-6 -146 -74 -228.5t-192 -82.5q-55 0 -107 21t-94 42t-73 21q-37 0 -56.5 -20.5t-25.5 -63.5h-203q8 147 76 229t192 82q54 0 106.5 -20.5t95.5 -41t73 -20.5q37 0 56.5 19.5t23.5 62.5zM481 -29q-178 0 -279.5 110.5t-101.5 317.5v641h394v-591
q0 -175 122 -175q142 0 142 244v522h393v-1040h-365v119h-4q-112 -148 -301 -148z" />
    <glyph glyph-name="Umacron" unicode="&#x16a;" horiz-adv-x="1497" 
d="M1151 1587h-805v236h805v-236zM1368 1458v-883q0 -292 -161 -450t-457 -158q-298 0 -459.5 158t-161.5 450v883h410v-876q0 -126 54 -192t157 -66q101 0 154.5 66t53.5 192v876h410z" />
    <glyph glyph-name="umacron" unicode="&#x16b;" 
d="M1034 1190h-805v235h805v-235zM481 -29q-178 0 -279.5 110.5t-101.5 317.5v641h394v-591q0 -175 122 -175q142 0 142 244v522h393v-1040h-365v119h-4q-112 -148 -301 -148z" />
    <glyph glyph-name="Ubreve" unicode="&#x16c;" horiz-adv-x="1497" 
d="M879 1876h239q-6 -154 -101.5 -238t-268.5 -84t-269 84t-102 238h239q6 -104 132 -104q125 0 131 104zM1368 1458v-883q0 -292 -161 -450t-457 -158q-298 0 -459.5 158t-161.5 450v883h410v-876q0 -126 54 -192t157 -66q101 0 154.5 66t53.5 192v876h410z" />
    <glyph glyph-name="ubreve" unicode="&#x16d;" 
d="M764 1458h240q-6 -154 -102 -237.5t-269 -83.5t-269 83.5t-102 237.5h240q6 -104 131 -104t131 104zM481 -29q-178 0 -279.5 110.5t-101.5 317.5v641h394v-591q0 -175 122 -175q142 0 142 244v522h393v-1040h-365v119h-4q-112 -148 -301 -148z" />
    <glyph glyph-name="Uring" unicode="&#x16e;" horiz-adv-x="1497" 
d="M748 2034q102 0 172.5 -72t70.5 -174t-70.5 -174t-172.5 -72q-101 0 -173.5 72.5t-72.5 173.5t72.5 173.5t173.5 72.5zM748 1907q-50 0 -84.5 -34.5t-34.5 -84.5t34.5 -84.5t84.5 -34.5q49 0 83.5 34.5t34.5 84.5t-34.5 84.5t-83.5 34.5zM1368 1458v-883
q0 -292 -161 -450t-457 -158q-298 0 -459.5 158t-161.5 450v883h410v-876q0 -126 54 -192t157 -66q101 0 154.5 66t53.5 192v876h410z" />
    <glyph glyph-name="uring" unicode="&#x16f;" 
d="M633 1616q102 0 173 -72t71 -174t-71 -174t-173 -72q-101 0 -173.5 72.5t-72.5 173.5t72.5 173.5t173.5 72.5zM633 1489q-49 0 -84 -34.5t-35 -84.5t35 -84.5t84 -34.5t84 34.5t35 84.5t-35 84.5t-84 34.5zM481 -29q-178 0 -279.5 110.5t-101.5 317.5v641h394v-591
q0 -175 122 -175q142 0 142 244v522h393v-1040h-365v119h-4q-112 -148 -301 -148z" />
    <glyph glyph-name="Uhungarumlaut" unicode="&#x170;" horiz-adv-x="1497" 
d="M602 1556h-280l204 320h367zM1053 1556h-279l203 320h366zM1368 1458v-883q0 -292 -161 -450t-457 -158q-298 0 -459.5 158t-161.5 450v883h410v-876q0 -126 54 -192t157 -66q101 0 154.5 66t53.5 192v876h410z" />
    <glyph glyph-name="uhungarumlaut" unicode="&#x171;" 
d="M487 1151h-280l205 307h366zM938 1151h-279l203 307h367zM481 -29q-178 0 -279.5 110.5t-101.5 317.5v641h394v-591q0 -175 122 -175q142 0 142 244v522h393v-1040h-365v119h-4q-112 -148 -301 -148z" />
    <glyph glyph-name="Uogonek" unicode="&#x172;" horiz-adv-x="1497" 
d="M1368 1458v-883q0 -176 -58 -301t-177 -223q-129 -107 -129 -192q0 -68 65 -68q37 0 68 14v-184q-98 -31 -209 -31q-133 0 -199.5 50.5t-66.5 144.5q0 56 30.5 99t93.5 81v4q-12 -2 -36 -2q-298 0 -459.5 158t-161.5 450v883h410v-876q0 -126 54 -192t157 -66
q101 0 154.5 66t53.5 192v876h410z" />
    <glyph glyph-name="uogonek" unicode="&#x173;" 
d="M1092 -201q36 0 65 13v-191q-94 -33 -217 -33q-137 0 -205.5 51.5t-68.5 145.5q0 66 46 117.5t138 97.5h-64v119h-4q-112 -148 -301 -148q-178 0 -279.5 110.5t-101.5 317.5v641h394v-591q0 -175 122 -175q142 0 142 244v522h393v-1040q-68 -43 -95.5 -76.5t-27.5 -68.5
q0 -56 64 -56z" />
    <glyph glyph-name="Wcircumflex" unicode="&#x174;" horiz-adv-x="2099" 
d="M881 1876h331l263 -320h-306l-122 166l-121 -166h-305zM1802 0h-553l-110 588q-57 315 -86 551h-4q-32 -258 -88 -551l-111 -588h-553l-285 1458h398l88 -520q43 -252 86 -590h4q38 301 96 590l102 520h527l102 -520q54 -272 98 -590h5q36 311 84 590l90 520h395z" />
    <glyph glyph-name="wcircumflex" unicode="&#x175;" horiz-adv-x="1814" 
d="M1020 1151l-113 154l-112 -154h-306l252 307h332l252 -307h-305zM1573 0h-520l-74 371q-41 201 -70 432h-4q-30 -243 -69 -432l-74 -371h-520l-234 1040h379l55 -362q37 -234 54 -432h4q25 184 80 436l79 358h496l80 -358q55 -252 80 -436h4q18 211 53 432l55 362h379z
" />
    <glyph glyph-name="Ycircumflex" unicode="&#x176;" horiz-adv-x="1411" 
d="M539 1876h331l263 -320h-306l-122 166l-121 -166h-305zM909 532v-532h-409v532l-500 926h451l114 -256q87 -195 137 -360h5q55 170 139 360l115 256h448z" />
    <glyph glyph-name="ycircumflex" unicode="&#x177;" horiz-adv-x="1140" 
d="M690 1151l-112 154l-113 -154h-305l252 307h331l252 -307h-305zM1159 1040l-321 -995q-78 -246 -188.5 -342t-313.5 -96q-124 0 -205 20v283q47 -12 96 -12q129 0 129 102q0 23 -10.5 57.5t-54.5 155.5l-316 827h426l93 -346q51 -196 96 -432h4q34 214 84 434l80 344h401
z" />
    <glyph glyph-name="Ydieresis" unicode="&#x178;" horiz-adv-x="1411" 
d="M629 1575h-332v289h332v-289zM1114 1575h-334v289h334v-289zM909 532v-532h-409v532l-500 926h451l114 -256q87 -195 137 -360h5q55 170 139 360l115 256h448z" />
    <glyph glyph-name="Zacute" unicode="&#x179;" horiz-adv-x="1239" 
d="M698 1556h-299l164 320h426zM1159 1106l-627 -766v-4h662v-336h-1153v352l629 766v4h-600v336h1089v-352z" />
    <glyph glyph-name="zacute" unicode="&#x17a;" horiz-adv-x="1067" 
d="M621 1151h-299l163 307h426zM989 735l-436 -434v-4h453v-297h-945v305l439 434v4h-424v297h913v-305z" />
    <glyph glyph-name="Zdotaccent" unicode="&#x17b;" horiz-adv-x="1239" 
d="M811 1575h-393v289h393v-289zM1159 1106l-627 -766v-4h662v-336h-1153v352l629 766v4h-600v336h1089v-352z" />
    <glyph glyph-name="zdotaccent" unicode="&#x17c;" horiz-adv-x="1067" 
d="M737 1169h-393v289h393v-289zM989 735l-436 -434v-4h453v-297h-945v305l439 434v4h-424v297h913v-305z" />
    <glyph glyph-name="Zcaron" unicode="&#x17d;" horiz-adv-x="1239" 
d="M782 1556h-331l-263 320h306l122 -166l121 166h305zM1159 1106l-627 -766v-4h662v-336h-1153v352l629 766v4h-600v336h1089v-352z" />
    <glyph glyph-name="zcaron" unicode="&#x17e;" horiz-adv-x="1067" 
d="M707 1151h-332l-252 307h305l113 -153l112 153h305zM989 735l-436 -434v-4h453v-297h-945v305l439 434v4h-424v297h913v-305z" />
    <glyph glyph-name="longs" unicode="&#x17f;" horiz-adv-x="778" 
d="M584 1479q83 0 182 -21v-266q-15 6 -51 6q-75 0 -111.5 -33.5t-36.5 -109.5v-1055h-393v760h-160v280h160v60q0 189 105 284t305 95z" />
    <glyph glyph-name="Schwa" unicode="&#x18f;" horiz-adv-x="1611" 
d="M791 1491q237 0 409.5 -97t260 -267t87.5 -394q0 -162 -51 -302t-145 -243t-236 -162t-315 -59q-340 0 -539 204.5t-199 553.5q0 77 9 121h1048q-6 89 -34 154.5t-73 103t-99.5 55t-120.5 17.5q-104 0 -171 -48t-81 -124h-441q23 101 80.5 188.5t144 154.5t207 105.5
t259.5 38.5zM801 281q125 0 206.5 70t106.5 216h-620q19 -144 102 -215t205 -71z" />
    <glyph glyph-name="florin" unicode="&#x192;" horiz-adv-x="1343" 
d="M1106 1485q100 0 180 -23v-270q-50 12 -117 12q-79 0 -123.5 -37.5t-64.5 -117.5l-23 -91h228v-270h-293l-160 -635q-59 -232 -184 -339t-324 -107q-98 0 -168 20v271q54 -13 105 -13q84 0 129.5 43.5t75.5 159.5l151 600h-205v270h271l32 125q51 203 171 302.5t319 99.5
z" />
    <glyph glyph-name="Aringacute" unicode="&#x1fa;" horiz-adv-x="1497" 
d="M829 2034h-299l164 319h426zM750 1501q-101 0 -173.5 72t-72.5 172q0 101 72.5 173.5t173.5 72.5t172 -72t71 -174q0 -100 -71 -172t-172 -72zM750 1864q-50 0 -84.5 -35t-34.5 -84t34.5 -84t84.5 -35q49 0 83.5 34.5t34.5 84.5t-34.5 84.5t-83.5 34.5zM995 262h-493
l-74 -262h-432l489 1458h527l489 -1458h-432zM905 584l-28 100q-63 225 -125 492h-4q-65 -280 -127 -492l-29 -100h313z" />
    <glyph glyph-name="aringacute" unicode="&#x1fb;" horiz-adv-x="1179" 
d="M649 1649h-299l164 307h426zM569 1606q101 0 172.5 -72.5t71.5 -173.5q0 -100 -71.5 -172t-172.5 -72t-173 72t-72 172q0 101 72 173.5t173 72.5zM569 1479q-49 0 -83.5 -34.5t-34.5 -84.5t34.5 -84.5t83.5 -34.5t84 34.5t35 84.5t-35 84.5t-84 34.5zM582 1073
q251 0 374 -110.5t123 -321.5v-338q0 -194 33 -303h-354q-17 63 -17 131h-4q-124 -160 -338 -160q-166 0 -264 92t-98 234q0 141 98.5 223t325.5 117q123 19 239 27v36q0 144 -122 144q-120 0 -123 -133h-375q5 75 35 138.5t88.5 114.5t155 80t223.5 29zM700 428v39
q-90 -8 -159 -23q-63 -13 -91 -42.5t-28 -77.5q0 -49 30 -79t85 -30q77 0 118 49q27 29 36 65.5t9 98.5z" />
    <glyph glyph-name="AEacute" unicode="&#x1fc;" horiz-adv-x="2025" 
d="M1135 1556h-299l163 320h426zM1933 338v-338h-862l-41 291h-483l-117 -291h-442l622 1458h1317v-338h-631l33 -219h547v-330h-502l35 -233h524zM985 618l-74 506h-28l-203 -506h305z" />
    <glyph glyph-name="aeacute" unicode="&#x1fd;" horiz-adv-x="1865" 
d="M1008 1151h-299l163 307h426zM1260 221q58 0 95 28t42 73h401q-35 -154 -180.5 -254.5t-353.5 -100.5q-253 0 -396 166q-121 -166 -393 -166q-208 0 -323 92.5t-115 237.5q0 190 149 270t473 80h66v53q0 74 -32 109t-101 35q-132 0 -135 -133h-375q5 75 36 138.5
t90 114.5t157.5 80t226.5 29q226 0 344 -100q130 100 321 100q188 0 319.5 -84t190.5 -237q48 -119 48 -312h-723q10 -219 168 -219zM1257 827q-135 0 -159 -184h321q-6 96 -50 140t-112 44zM725 457h-63q-240 0 -240 -135q0 -53 30.5 -85t88.5 -32q85 0 131 49
q53 53 53 176v27z" />
    <glyph glyph-name="Oslashacute" unicode="&#x1fe;" horiz-adv-x="1570" 
d="M866 1556h-299l164 320h426zM1442 1450l-125 -170q190 -202 190 -551q0 -350 -195.5 -556t-527.5 -206q-207 0 -370 86l-121 -164l-162 119l125 168q-193 209 -193 553q0 350 195.5 556t525.5 206q212 0 373 -88l123 166zM471 729q0 -126 31 -217l446 606q-70 45 -164 45
q-149 0 -231 -113.5t-82 -320.5zM784 295q152 0 234 113t82 321q0 120 -29 215l-446 -604q65 -45 159 -45z" />
    <glyph glyph-name="oslashacute" unicode="&#x1ff;" horiz-adv-x="1265" 
d="M715 1151h-299l164 307h426zM1143 1069l-99 -135q170 -150 170 -414q0 -253 -157.5 -403t-423.5 -150q-147 0 -262 47l-107 -145l-139 102l98 133q-172 149 -172 416q0 253 158 403t424 150q146 0 264 -47l107 145zM633 799q-92 0 -143.5 -75.5t-51.5 -203.5
q0 -62 17 -125l274 375q-43 29 -96 29zM633 242q92 0 143 75t51 203q0 74 -14 123l-274 -375q44 -26 94 -26z" />
    <glyph glyph-name="Scommaaccent" unicode="&#x218;" horiz-adv-x="1353" 
d="M672 1491q282 0 436 -121.5t154 -353.5h-431q0 80 -45.5 123t-134.5 43q-76 0 -119 -30.5t-43 -82.5q0 -60 53.5 -89t211.5 -67q54 -13 94.5 -24t89 -27t84 -32t74.5 -38t66.5 -46.5t53.5 -57t41.5 -69t25 -82.5t9.5 -99q0 -219 -165 -345t-455 -126q-297 0 -463 132.5
t-166 373.5h442q0 -186 201 -186q82 0 128 33.5t46 91.5q0 64 -50.5 92t-205.5 67q-58 16 -93.5 26t-87 27t-83.5 31.5t-73.5 36.5t-66.5 45t-52 54.5t-42 66.5t-24.5 80t-9.5 96q0 209 159.5 333t440.5 124zM813 -348l-149 -225h-144l96 225h-96v248h293v-248z" />
    <glyph glyph-name="scommaaccent" unicode="&#x219;" horiz-adv-x="1144" 
d="M569 1073q229 0 356.5 -86.5t127.5 -257.5h-373q0 115 -117 115q-96 0 -96 -70q0 -37 38 -56.5t165 -53.5q53 -14 88 -24t83.5 -28t80 -36t66.5 -45t55 -58.5t33.5 -73.5t13.5 -92q0 -156 -132.5 -248t-373.5 -92q-531 0 -531 371h393q0 -66 34 -97.5t106 -31.5
q110 0 110 72q0 43 -46.5 66t-192.5 61q-49 13 -79 21.5t-74.5 24.5t-72 32t-59.5 42t-50 55t-30 70t-12 90q0 148 123.5 239t365.5 91zM727 -348l-149 -225h-144l96 225h-96v248h293v-248z" />
    <glyph glyph-name="Tcommaaccent" unicode="&#x21a;" horiz-adv-x="1306" 
d="M1290 1114h-432v-1114h-409v1114h-433v344h1274v-344zM799 -348l-150 -225h-143l96 225h-96v248h293v-248z" />
    <glyph glyph-name="tcommaaccent" unicode="&#x21b;" horiz-adv-x="815" 
d="M690 289q44 0 74 10v-291q-83 -26 -191 -26q-212 0 -308.5 84t-96.5 270v424h-158v280h158v291h393v-291h193v-280h-193v-318q0 -83 29.5 -118t99.5 -35zM311 -100h293v-248l-149 -225h-144l97 225h-97v248z" />
    <glyph glyph-name="dotlessj" unicode="&#x237;" horiz-adv-x="614" 
d="M504 1040v-1011q0 -212 -111.5 -316t-298.5 -104q-108 0 -188 22v271q21 -6 51 -6q81 0 117.5 43t36.5 157v944h393z" />
    <glyph glyph-name="schwa" unicode="&#x259;" horiz-adv-x="1216" 
d="M602 1073q135 0 242.5 -42t177 -116t106.5 -174t37 -217q0 -158 -64 -283t-192 -199.5t-301 -74.5q-256 0 -406.5 148.5t-150.5 400.5q0 54 6 88h723q-10 215 -174 215q-53 0 -87 -27t-40 -71h-401q33 154 176.5 253t347.5 99zM608 213q144 0 170 184h-332
q7 -94 51.5 -139t110.5 -45z" />
    <glyph glyph-name="apostrophemod" unicode="&#x2bc;" horiz-adv-x="567" 
d="M455 1108l-187 -320h-196l147 320h-113v350h349v-350z" />
    <glyph glyph-name="circumflex" unicode="&#x2c6;" horiz-adv-x="1040" 
d="M633 1151l-113 154l-112 -154h-306l252 307h332l252 -307h-305z" />
    <glyph glyph-name="caron" unicode="&#x2c7;" horiz-adv-x="1040" 
d="M686 1151h-332l-252 307h306l112 -153l113 153h305z" />
    <glyph glyph-name="firsttonechinese" unicode="&#x2c9;" horiz-adv-x="1009" 
d="M907 1190h-805v235h805v-235z" />
    <glyph glyph-name="breve" unicode="&#x2d8;" horiz-adv-x="946" 
d="M604 1458h240q-6 -154 -102 -237.5t-269 -83.5t-269 83.5t-102 237.5h240q6 -104 131 -104t131 104z" />
    <glyph glyph-name="dotaccent" unicode="&#x2d9;" horiz-adv-x="598" 
d="M496 1169h-394v289h394v-289z" />
    <glyph glyph-name="ring" unicode="&#x2da;" horiz-adv-x="694" 
d="M348 1616q102 0 173 -72t71 -174t-71 -174t-173 -72q-101 0 -173.5 72.5t-72.5 173.5t72.5 173.5t173.5 72.5zM348 1489q-50 0 -84.5 -34.5t-34.5 -84.5t34.5 -84.5t84.5 -34.5t84.5 34.5t34.5 84.5t-34.5 84.5t-84.5 34.5z" />
    <glyph glyph-name="ogonek" unicode="&#x2db;" horiz-adv-x="696" 
d="M287 0h301q-68 -43 -95.5 -76.5t-27.5 -68.5q0 -56 63 -56q37 0 66 13v-191q-94 -33 -217 -33q-137 0 -206 51.5t-69 145.5q0 66 46.5 117t138.5 98z" />
    <glyph glyph-name="tilde" unicode="&#x2dc;" horiz-adv-x="1030" 
d="M725 1458h203q-6 -146 -74 -228.5t-192 -82.5q-55 0 -107 21t-94.5 42t-73.5 21q-37 0 -56.5 -20.5t-25.5 -63.5h-203q8 147 76.5 229t192.5 82q54 0 106.5 -20.5t95 -41t72.5 -20.5q37 0 56.5 19.5t23.5 62.5z" />
    <glyph glyph-name="hungarumlaut" unicode="&#x2dd;" horiz-adv-x="1226" 
d="M383 1151h-281l205 307h367zM834 1151h-279l203 307h366z" />
    <glyph glyph-name="commaturnedabovecomb" unicode="&#x312;" horiz-adv-x="0" 
d="M299 1409h96v-248h-293v248l150 225h143z" />
    <glyph glyph-name="commaaccent" unicode="&#x326;" horiz-adv-x="0" 
d="M395 -348l-149 -225h-144l97 225h-97v248h293v-248z" />
    <glyph glyph-name="dbllowlinecomb" unicode="&#x333;" horiz-adv-x="0" 
d="M0 -301h-1024v199h1024v-199zM0 -645h-1024v199h1024v-199z" />
    <glyph glyph-name="numeralgreek" unicode="&#x374;" horiz-adv-x="518" 
d="M309 1040h-248l52 418h344z" />
    <glyph glyph-name="lowernumeralgreek" unicode="&#x375;" horiz-adv-x="518" 
d="M309 -188h-248l52 417h344z" />
    <glyph glyph-name="questiongreek" unicode="&#x37e;" horiz-adv-x="595" 
d="M502 631h-410v409h410v-409zM502 0l-219 -379h-232l172 379h-131v410h410v-410z" />
    <glyph glyph-name="tonos" unicode="&#x384;" horiz-adv-x="649" 
d="M391 1155h-289l62 344h383z" />
    <glyph glyph-name="dieresistonos" unicode="&#x385;" horiz-adv-x="1253" 
d="M707 1155h-256l59 338h313zM401 1174h-299v274h299v-274zM1151 1174h-299v274h299v-274z" />
    <glyph glyph-name="Alphatonos" unicode="&#x386;" horiz-adv-x="1497" 
d="M213 1032h-289l62 426h383zM995 262h-493l-74 -262h-432l489 1458h527l489 -1458h-432zM905 584l-28 100q-63 225 -125 492h-4q-65 -280 -127 -492l-29 -100h313z" />
    <glyph glyph-name="anoteleia" unicode="&#x387;" horiz-adv-x="593" 
d="M502 631h-410v409h410v-409z" />
    <glyph glyph-name="Epsilontonos" unicode="&#x388;" horiz-adv-x="1300" 
d="M-63 1032h-289l61 426h383zM1196 1120h-645v-219h600v-330h-600v-233h657v-338h-1067v1458h1055v-338z" />
    <glyph glyph-name="Etatonos" unicode="&#x389;" horiz-adv-x="1579" 
d="M-63 1032h-289l61 426h383zM1438 0h-410v578h-477v-578h-410v1458h410v-536h477v536h410v-1458z" />
    <glyph glyph-name="Iotatonos" unicode="&#x38a;" horiz-adv-x="692" 
d="M-63 1032h-289l61 426h383zM551 0h-410v1458h410v-1458z" />
    <glyph glyph-name="Omicrontonos" unicode="&#x38c;" horiz-adv-x="1570" 
d="M784 1491q332 0 527.5 -206t195.5 -556t-195.5 -556t-527.5 -206q-330 0 -525.5 206t-195.5 556t195.5 556t525.5 206zM31 1032h-289l61 426h383zM784 1143q-139 0 -214.5 -108t-75.5 -306t75.5 -306t214.5 -108q141 0 217 108t76 306t-76 306t-217 108z" />
    <glyph glyph-name="Upsilontonos" unicode="&#x38e;" horiz-adv-x="1411" 
d="M-182 1032h-289l61 426h383zM909 532v-532h-409v532l-500 926h451l114 -256q87 -195 137 -360h5q55 170 139 360l115 256h448z" />
    <glyph glyph-name="Omegatonos" unicode="&#x38f;" horiz-adv-x="1554" 
d="M778 1491q156 0 284 -39.5t222 -116.5t145.5 -198.5t51.5 -278.5t-66.5 -277.5t-187.5 -234.5v-4h276v-342h-639v354q88 90 137.5 193.5t49.5 240.5q0 173 -75 263t-198 90q-125 0 -199.5 -90t-74.5 -263q0 -137 49 -241t137 -193v-354h-639v342h277v4
q-78 75 -129.5 142.5t-88 164.5t-36.5 205q0 157 51.5 278.5t145.5 198.5t222 116.5t285 39.5zM2 1032h-289l62 426h383z" />
    <glyph glyph-name="iotadieresistonos" unicode="&#x390;" horiz-adv-x="718" 
d="M377 1155h-256l59 338h314zM72 1174h-299v274h299v-274zM821 1174h-299v274h299v-274zM494 1040v-589q0 -93 29.5 -132.5t99.5 -39.5q43 0 73 10v-285q-90 -22 -190 -22q-213 0 -309.5 95.5t-96.5 305.5v657h394z" />
    <glyph glyph-name="Alpha" unicode="&#x391;" horiz-adv-x="1497" 
d="M995 262h-493l-74 -262h-432l489 1458h527l489 -1458h-432zM905 584l-28 100q-63 225 -125 492h-4q-65 -280 -127 -492l-29 -100h313z" />
    <glyph glyph-name="Beta" unicode="&#x392;" horiz-adv-x="1386" 
d="M141 1458h619q263 0 396.5 -101t133.5 -276q0 -126 -58.5 -205t-182.5 -122v-4q136 -31 207 -118t71 -222q0 -189 -145.5 -299.5t-401.5 -110.5h-639v1458zM537 1157v-276h157q103 0 151 33.5t48 105.5q0 70 -45 103.5t-141 33.5h-170zM537 594v-291h165q108 0 155.5 34
t47.5 109q0 77 -49.5 112.5t-161.5 35.5h-157z" />
    <glyph glyph-name="Gamma" unicode="&#x393;" horiz-adv-x="1085" 
d="M141 0v1458h928v-344h-518v-1114h-410z" />
    <glyph glyph-name="Delta" unicode="&#x394;" horiz-adv-x="1495" 
d="M1499 0h-1503l498 1458h512zM979 322l-102 362q-68 234 -127 496h-5q-52 -231 -129 -496l-102 -362h465z" />
    <glyph glyph-name="Epsilon" unicode="&#x395;" horiz-adv-x="1300" 
d="M1196 1120h-645v-219h600v-330h-600v-233h657v-338h-1067v1458h1055v-338z" />
    <glyph glyph-name="Zeta" unicode="&#x396;" horiz-adv-x="1239" 
d="M1159 1106l-627 -766v-4h662v-336h-1153v352l629 766v4h-600v336h1089v-352z" />
    <glyph glyph-name="Eta" unicode="&#x397;" horiz-adv-x="1579" 
d="M1438 0h-410v578h-477v-578h-410v1458h410v-536h477v536h410v-1458z" />
    <glyph glyph-name="Theta" unicode="&#x398;" horiz-adv-x="1570" 
d="M784 1491q331 0 527 -206t196 -556t-196 -556t-527 -206q-330 0 -525.5 206t-195.5 556t195.5 556t525.5 206zM784 1161q-151 0 -232 -112.5t-81 -319.5q0 -206 81 -319t232 -113q152 0 234 113.5t82 318.5q0 206 -82 319t-234 113zM1024 598h-479v262h479v-262z" />
    <glyph glyph-name="Iota" unicode="&#x399;" horiz-adv-x="692" 
d="M551 0h-410v1458h410v-1458z" />
    <glyph glyph-name="Kappa" unicode="&#x39a;" horiz-adv-x="1466" 
d="M924 770l536 -770h-512l-393 653h-4v-653h-410v1458h410v-614h4l381 614h494z" />
    <glyph glyph-name="Lambda" unicode="&#x39b;" horiz-adv-x="1470" 
d="M1475 0h-441l-184 674q-66 255 -113 485h-4q-51 -248 -115 -485l-182 -674h-440l473 1458h532z" />
    <glyph glyph-name="Mu" unicode="&#x39c;" horiz-adv-x="2134" 
d="M1993 0h-381v698q0 268 12 535h-4q-63 -295 -123 -528l-182 -705h-496l-182 705q-60 233 -123 528h-4q12 -267 12 -535v-698h-381v1458h652l161 -627q69 -257 111 -536h4q38 250 111 536l161 627h652v-1458z" />
    <glyph glyph-name="Nu" unicode="&#x39d;" horiz-adv-x="1693" 
d="M1550 0h-594l-227 559q-118 293 -209 565h-4q16 -265 16 -596v-528h-391v1458h596l226 -559q115 -279 208 -565h5q-17 338 -17 596v528h391v-1458z" />
    <glyph glyph-name="Xi" unicode="&#x39e;" horiz-adv-x="1386" 
d="M1266 1102h-1145v356h1145v-356zM1231 557h-1075v356h1075v-356zM1294 0h-1202v356h1202v-356z" />
    <glyph glyph-name="Omicron" unicode="&#x39f;" horiz-adv-x="1570" 
d="M784 1491q332 0 527.5 -206t195.5 -556t-195.5 -556t-527.5 -206q-330 0 -525.5 206t-195.5 556t195.5 556t525.5 206zM784 1143q-139 0 -214.5 -108t-75.5 -306t75.5 -306t214.5 -108q141 0 217 108t76 306t-76 306t-217 108z" />
    <glyph glyph-name="Pi" unicode="&#x3a0;" horiz-adv-x="1558" 
d="M1417 0h-409v1114h-457v-1114h-410v1458h1276v-1458z" />
    <glyph glyph-name="Rho" unicode="&#x3a1;" horiz-adv-x="1378" 
d="M141 1458h617q286 0 432.5 -132t146.5 -365q0 -234 -146.5 -367t-432.5 -133h-207v-461h-410v1458zM551 1137v-355h149q215 0 215 179q0 176 -215 176h-149z" />
    <glyph glyph-name="Sigma" unicode="&#x3a3;" horiz-adv-x="1232" 
d="M1159 1116h-627v-4l304 -371l-328 -395v-4h680v-342h-1137v352l309 391l-286 367v348h1085v-342z" />
    <glyph glyph-name="Tau" unicode="&#x3a4;" horiz-adv-x="1306" 
d="M1290 1114h-432v-1114h-409v1114h-433v344h1274v-344z" />
    <glyph glyph-name="Upsilon" unicode="&#x3a5;" horiz-adv-x="1411" 
d="M909 532v-532h-409v532l-500 926h451l114 -256q87 -195 137 -360h5q55 170 139 360l115 256h448z" />
    <glyph glyph-name="Phi" unicode="&#x3a6;" horiz-adv-x="1816" 
d="M1102 1528v-135q310 -22 480.5 -187.5t170.5 -472.5q0 -303 -171 -468t-480 -187v-148h-387v148q-311 22 -481.5 187.5t-170.5 471.5q0 305 170 469.5t482 186.5v135h387zM727 383v707q-121 -12 -186.5 -101t-65.5 -252q0 -165 66 -255t186 -99zM1090 1090v-707
q120 9 185.5 98.5t65.5 251.5q0 166 -65 255.5t-186 101.5z" />
    <glyph glyph-name="Chi" unicode="&#x3a7;" horiz-adv-x="1452" 
d="M1001 756l449 -756h-481l-242 489h-4l-240 -489h-483l451 756l-420 702h471l221 -469h4l223 469h471z" />
    <glyph glyph-name="Psi" unicode="&#x3a8;" horiz-adv-x="1800" 
d="M1737 1458v-493q0 -610 -637 -654v-311h-400v311q-637 44 -637 654v493h400v-469q0 -175 54 -254.5t183 -89.5v813h400v-813q128 11 182.5 90t54.5 254v469h400z" />
    <glyph glyph-name="Omega" unicode="&#x3a9;" horiz-adv-x="1554" 
d="M778 1491q156 0 284 -39.5t222 -116.5t145.5 -198.5t51.5 -278.5t-66.5 -277.5t-187.5 -234.5v-4h276v-342h-639v354q88 90 137.5 193.5t49.5 240.5q0 173 -75 263t-198 90q-125 0 -199.5 -90t-74.5 -263q0 -137 49 -241t137 -193v-354h-639v342h277v4
q-78 75 -129.5 142.5t-88 164.5t-36.5 205q0 157 51.5 278.5t145.5 198.5t222 116.5t285 39.5z" />
    <glyph glyph-name="Iotadieresis" unicode="&#x3aa;" horiz-adv-x="692" 
d="M268 1587h-331v289h331v-289zM754 1587h-334v289h334v-289zM551 0h-410v1458h410v-1458z" />
    <glyph glyph-name="Upsilondieresis" unicode="&#x3ab;" horiz-adv-x="1411" 
d="M629 1575h-332v289h332v-289zM1114 1575h-334v289h334v-289zM909 532v-532h-409v532l-500 926h451l114 -256q87 -195 137 -360h5q55 170 139 360l115 256h448z" />
    <glyph glyph-name="alphatonos" unicode="&#x3ac;" horiz-adv-x="1335" 
d="M772 1155h-289l62 344h383zM504 1071q86 0 159 -38t121 -113h4q4 62 13 120h393q-20 -147 -20 -368v-287q0 -62 21 -87.5t65 -25.5q21 0 49 7v-267q-93 -35 -228 -35q-208 0 -278 146h-4q-50 -76 -128 -115t-169 -39q-205 0 -328 150t-123 401q0 252 123.5 401.5
t329.5 149.5zM629 774q-76 0 -121 -68.5t-45 -185.5t45 -185.5t121 -68.5q74 0 118 68.5t44 185.5t-44 185.5t-118 68.5z" />
    <glyph glyph-name="epsilontonos" unicode="&#x3ad;" horiz-adv-x="1124" 
d="M696 1155h-288l61 344h383zM561 1073q229 0 364.5 -103.5t135.5 -283.5h-348q0 58 -37 91.5t-109 33.5q-61 0 -93 -23t-32 -63q0 -42 33.5 -65t97.5 -23h101v-223h-101q-147 0 -147 -92q0 -42 36 -66.5t97 -24.5q156 0 156 127h366q0 -192 -136 -291.5t-386 -99.5
q-244 0 -373 82.5t-129 241.5q0 97 47.5 157t151.5 95v4q-94 32 -134 83.5t-40 135.5q0 147 130.5 227t348.5 80z" />
    <glyph glyph-name="etatonos" unicode="&#x3ae;" horiz-adv-x="1314" 
d="M715 1155h-289l61 344h383zM840 1069q176 0 275 -110.5t99 -319.5v-1018h-393v969q0 178 -121 178q-143 0 -143 -246v-522h-393v639q0 70 -20 100.5t-66 30.5q-30 0 -51 -6v262q103 35 215 35q111 0 176 -40t94 -130h4q54 85 136.5 131.5t187.5 46.5z" />
    <glyph glyph-name="iotatonos" unicode="&#x3af;" horiz-adv-x="718" 
d="M440 1155h-288l61 344h383zM494 1040v-589q0 -93 29.5 -132.5t99.5 -39.5q43 0 73 10v-285q-90 -22 -190 -22q-213 0 -309.5 95.5t-96.5 305.5v657h394z" />
    <glyph glyph-name="upsilondieresistonos" unicode="&#x3b0;" horiz-adv-x="1275" 
d="M702 1155h-256l60 338h313zM397 1174h-299v274h299v-274zM1147 1174h-299v274h299v-274zM231 1061q163 0 240.5 -81.5t77.5 -277.5v-290q0 -79 28 -114.5t82 -35.5q150 0 150 301q0 270 -66 477h381q76 -233 76 -510q0 -274 -132.5 -418.5t-401.5 -144.5
q-254 0 -383 102.5t-129 323.5v221q0 86 -20.5 119t-65.5 33q-31 0 -52 -6v266q107 35 215 35z" />
    <glyph glyph-name="alpha" unicode="&#x3b1;" horiz-adv-x="1335" 
d="M504 1071q86 0 159 -38t121 -113h4q4 62 13 120h393q-20 -147 -20 -368v-287q0 -62 21 -87.5t65 -25.5q21 0 49 7v-267q-93 -35 -228 -35q-208 0 -278 146h-4q-50 -76 -128 -115t-169 -39q-205 0 -328 150t-123 401q0 252 123.5 401.5t329.5 149.5zM629 774
q-76 0 -121 -68.5t-45 -185.5t45 -185.5t121 -68.5q74 0 118 68.5t44 185.5t-44 185.5t-118 68.5z" />
    <glyph glyph-name="beta" unicode="&#x3b2;" horiz-adv-x="1271" 
d="M639 1491q237 0 377.5 -102t140.5 -275q0 -129 -61 -209.5t-185 -122.5v-4q156 -41 235 -132.5t79 -244.5q0 -194 -127 -307.5t-348 -113.5q-160 0 -242 73h-4v-432h-393v1374q0 233 140.5 364.5t387.5 131.5zM651 1206q-78 0 -112.5 -47.5t-34.5 -152.5v-594
q0 -67 36.5 -105.5t110.5 -38.5q81 0 126.5 45t45.5 129q0 176 -217 176h-20v304h20q86 0 133 39.5t47 111.5q0 64 -35.5 98.5t-99.5 34.5z" />
    <glyph glyph-name="gamma" unicode="&#x3b3;" horiz-adv-x="1206" 
d="M786 1040h408q-30 -292 -126.5 -527t-287.5 -503v-22q0 -184 -22 -367h-393q22 183 22 367q0 122 -39 293.5t-106 318.5q-48 99 -89.5 134.5t-91.5 35.5q-19 0 -47 -4v268q98 31 191 31q125 0 199.5 -55.5t136.5 -210.5q70 -171 108 -369h4q111 288 133 610z" />
    <glyph glyph-name="delta" unicode="&#x3b4;" horiz-adv-x="1243" 
d="M647 1479q225 0 422 -43v-297q-192 67 -371 67q-50 0 -70 -10.5t-20 -32.5q0 -14 11 -27.5t43.5 -32.5t57.5 -31.5t85 -41.5q132 -62 215 -134.5t127.5 -176.5t44.5 -242q0 -233 -155.5 -370.5t-413.5 -137.5q-260 0 -416 136t-156 368q0 160 91.5 274t258.5 156v4
q-107 73 -156.5 140t-49.5 153q0 279 452 279zM623 721q-73 0 -115.5 -63.5t-42.5 -172.5t42.5 -172t115.5 -63q72 0 113.5 63t41.5 172t-41.5 172.5t-113.5 63.5z" />
    <glyph glyph-name="epsilon" unicode="&#x3b5;" horiz-adv-x="1124" 
d="M561 1073q229 0 364.5 -103.5t135.5 -283.5h-348q0 58 -37 91.5t-109 33.5q-61 0 -93 -23t-32 -63q0 -42 33.5 -65t97.5 -23h101v-223h-101q-147 0 -147 -92q0 -42 36 -66.5t97 -24.5q156 0 156 127h366q0 -192 -136 -291.5t-386 -99.5q-244 0 -373 82.5t-129 241.5
q0 97 47.5 157t151.5 95v4q-94 32 -134 83.5t-40 135.5q0 147 130.5 227t348.5 80z" />
    <glyph glyph-name="zeta" unicode="&#x3b6;" horiz-adv-x="1038" 
d="M1012 1458v-278q-271 -147 -410 -312.5t-139 -369.5q0 -107 61 -161.5t217 -80.5q155 -26 215 -103.5t60 -211.5q0 -122 -64 -238h-307q27 68 27 131q0 69 -38.5 105.5t-150.5 50.5q-237 29 -333.5 127t-96.5 291q0 221 139 418.5t390 349.5v4h-478v278h908z" />
    <glyph glyph-name="eta" unicode="&#x3b7;" horiz-adv-x="1314" 
d="M840 1069q176 0 275 -110.5t99 -319.5v-1018h-393v969q0 178 -121 178q-143 0 -143 -246v-522h-393v639q0 70 -20 100.5t-66 30.5q-30 0 -51 -6v262q103 35 215 35q111 0 176 -40t94 -130h4q54 85 136.5 131.5t187.5 46.5z" />
    <glyph glyph-name="theta" unicode="&#x3b8;" horiz-adv-x="1337" 
d="M668 1489q296 0 453 -195.5t157 -564.5t-157 -564.5t-453 -195.5q-295 0 -452 195.5t-157 564.5t157 564.5t452 195.5zM668 1208q-176 0 -203 -350h405q-24 350 -202 350zM668 250q178 0 202 350h-405q27 -350 203 -350z" />
    <glyph glyph-name="iota" unicode="&#x3b9;" horiz-adv-x="718" 
d="M494 1040v-589q0 -93 29.5 -132.5t99.5 -39.5q43 0 73 10v-285q-90 -22 -190 -22q-213 0 -309.5 95.5t-96.5 305.5v657h394z" />
    <glyph glyph-name="kappa" unicode="&#x3ba;" horiz-adv-x="1245" 
d="M803 0l-225 299l-76 -86v-213h-393v1040h393v-393h4l147 178q108 131 204.5 182.5t221.5 51.5q57 0 123 -19v-319q-38 10 -78 10q-76 0 -149 -38t-158 -122l451 -571h-465z" />
    <glyph glyph-name="lambda" unicode="&#x3bb;" horiz-adv-x="1296" 
d="M365 1483q126 0 209 -34.5t153.5 -128.5t134.5 -267l215 -574q46 -124 86 -166.5t92 -42.5q13 0 29 4v-274q-86 -23 -158 -23q-78 0 -132 14t-101.5 50.5t-83 100t-68.5 163.5q-40 115 -104 326h-4q-67 -201 -129 -365l-101 -266h-421l458 1024q-29 85 -71 120.5
t-109 35.5q-52 0 -98 -17v287q87 33 203 33z" />
    <glyph glyph-name="mu" unicode="&#x3bc;" horiz-adv-x="1310" 
d="M1157 1040v-655q0 -62 20.5 -87.5t63.5 -25.5q23 0 51 7v-267q-96 -35 -227 -35q-197 0 -266 144h-4q-61 -131 -203 -131q-54 0 -88 18v-387h-393v1419h393v-579q0 -187 121 -187q139 0 139 228v538h393z" />
    <glyph glyph-name="nu" unicode="&#x3bd;" horiz-adv-x="1185" 
d="M193 1061q139 0 220.5 -82.5t110.5 -265.5l74 -445h4q90 250 126 406.5t36 288.5q0 39 -6 77h387q12 -52 12 -102q0 -170 -59.5 -356t-241.5 -582h-539l-149 604q-24 96 -50 131t-69 35q-25 0 -43 -6v264q81 33 187 33z" />
    <glyph glyph-name="xi" unicode="&#x3be;" horiz-adv-x="1048" 
d="M1022 1180h-236q-278 0 -278 -174q0 -66 52.5 -101t148.5 -35h233v-278h-215q-133 0 -198.5 -44.5t-65.5 -119.5q0 -77 61.5 -115.5t220.5 -60.5q157 -23 218 -99.5t61 -211.5q0 -118 -63 -238h-308q27 68 27 131q0 69 -51 108.5t-191 55.5q-204 23 -294.5 110.5
t-90.5 245.5q0 146 78.5 241t239.5 128v4q-101 24 -158 86t-57 156q0 160 143 207v4h-197v278h920v-278z" />
    <glyph glyph-name="omicron" unicode="&#x3bf;" horiz-adv-x="1265" 
d="M633 1073q266 0 423.5 -150t157.5 -403t-157.5 -403t-423.5 -150t-424 150t-158 403t158 403t424 150zM633 780q-79 0 -123.5 -68.5t-44.5 -191.5t44.5 -191.5t123.5 -68.5t123.5 68.5t44.5 191.5t-44.5 191.5t-123.5 68.5z" />
    <glyph glyph-name="pi" unicode="&#x3c0;" horiz-adv-x="1415" 
d="M1382 760h-172v-369q0 -69 22.5 -95t72.5 -26q34 0 55 9v-275q-91 -24 -207 -24q-175 0 -255.5 80.5t-80.5 275.5v424h-239v-760h-394v760h-170v280h1368v-280z" />
    <glyph glyph-name="rho" unicode="&#x3c1;" horiz-adv-x="1271" 
d="M657 1073q257 0 410.5 -153.5t153.5 -415.5q0 -243 -136 -387t-366 -144q-147 0 -221 74h-4v-426h-394v899q0 253 151.5 403t405.5 150zM637 774q-76 0 -121 -69t-45 -185q0 -115 45 -184.5t121 -69.5q78 0 123 68.5t45 185.5q0 118 -45 186t-123 68z" />
    <glyph glyph-name="sigmafinal" unicode="&#x3c2;" horiz-adv-x="1204" 
d="M606 1073q259 0 399 -128t154 -351h-405q-6 87 -44.5 136.5t-103.5 49.5q-66 0 -104.5 -57t-38.5 -158q0 -125 70 -193.5t223 -88.5q93 -12 156.5 -41t98 -75t48.5 -100t14 -126q0 -118 -63 -238h-310q29 59 29 131q0 49 -19 79.5t-76 54t-159 34.5q-213 23 -319.5 155.5
t-106.5 368.5q0 257 148.5 402t408.5 145z" />
    <glyph glyph-name="sigma" unicode="&#x3c3;" horiz-adv-x="1327" 
d="M1313 762h-215v-4q96 -110 96 -275q0 -236 -152 -376t-409 -140q-266 0 -424 145.5t-158 391.5q0 247 158 391.5t424 144.5h680v-278zM633 766q-82 0 -125 -65t-43 -187t43.5 -188t124.5 -66t124.5 66t43.5 188t-43 187t-125 65z" />
    <glyph glyph-name="tau" unicode="&#x3c4;" horiz-adv-x="1017" 
d="M1004 762h-310v-371q0 -69 22 -95t72 -26q35 0 56 9v-275q-91 -24 -207 -24q-175 0 -255.5 80.5t-80.5 275.5v426h-287v278h990v-278z" />
    <glyph glyph-name="upsilon" unicode="&#x3c5;" horiz-adv-x="1275" 
d="M231 1061q163 0 240.5 -81.5t77.5 -277.5v-290q0 -79 28 -114.5t82 -35.5q150 0 150 301q0 270 -66 477h381q76 -233 76 -510q0 -274 -132.5 -418.5t-401.5 -144.5q-254 0 -383 102.5t-129 323.5v221q0 86 -20.5 119t-65.5 33q-31 0 -52 -6v266q107 35 215 35z" />
    <glyph glyph-name="phi" unicode="&#x3c6;" horiz-adv-x="1697" 
d="M1647 520q0 -248 -165 -394.5t-448 -158.5v-346h-370v346q-283 12 -448 158.5t-165 394.5t165 394.5t448 158.5v283h370v-283q283 -12 448 -158.5t165 -394.5zM451 520q0 -127 54 -197t159 -79v553q-104 -9 -158.5 -79.5t-54.5 -197.5zM1034 795v-549q211 15 211 274
q0 260 -211 275z" />
    <glyph glyph-name="chi" unicode="&#x3c7;" horiz-adv-x="1294" 
d="M213 1071q147 0 226.5 -58.5t140.5 -205.5l77 -184h5l212 417h433l-414 -716l129 -273q44 -95 86.5 -127.5t103.5 -32.5q26 0 58 7v-265q-88 -32 -195 -32q-142 0 -223.5 59.5t-144.5 206.5l-66 151h-4l-231 -397h-431l441 682l-144 307q-46 100 -88 135t-106 35
q-28 0 -64 -8v262q79 37 199 37z" />
    <glyph glyph-name="psi" unicode="&#x3c8;" horiz-adv-x="1781" 
d="M1704 545q0 -257 -151 -401t-459 -162v-361h-394v361q-298 15 -449 139.5t-151 374.5v544h394v-503q0 -118 51.5 -180.5t154.5 -80.5v1080h394v-1077q217 42 217 296q0 258 -80 465h389q84 -221 84 -495z" />
    <glyph glyph-name="omega" unicode="&#x3c9;" horiz-adv-x="1787" 
d="M1167 1040h410q133 -260 133 -581q0 -237 -110.5 -363.5t-337.5 -126.5q-298 0 -365 217h-4q-67 -217 -365 -217q-228 0 -339 126.5t-111 363.5q0 321 133 581h410q-136 -244 -136 -534q0 -246 119 -246q94 0 94 139v404h394v-404q0 -139 92 -139q119 0 119 246
q0 290 -136 534z" />
    <glyph glyph-name="iotadieresis" unicode="&#x3ca;" horiz-adv-x="718" 
d="M221 1169h-332v289h332v-289zM707 1169h-334v289h334v-289zM494 1040v-589q0 -93 29.5 -132.5t99.5 -39.5q43 0 73 10v-285q-90 -22 -190 -22q-213 0 -309.5 95.5t-96.5 305.5v657h394z" />
    <glyph glyph-name="upsilondieresis" unicode="&#x3cb;" horiz-adv-x="1275" 
d="M545 1169h-332v289h332v-289zM1030 1169h-334v289h334v-289zM231 1061q163 0 240.5 -81.5t77.5 -277.5v-290q0 -79 28 -114.5t82 -35.5q150 0 150 301q0 270 -66 477h381q76 -233 76 -510q0 -274 -132.5 -418.5t-401.5 -144.5q-254 0 -383 102.5t-129 323.5v221
q0 86 -20.5 119t-65.5 33q-31 0 -52 -6v266q107 35 215 35z" />
    <glyph glyph-name="omicrontonos" unicode="&#x3cc;" horiz-adv-x="1265" 
d="M776 1155h-289l62 344h383zM633 1073q266 0 423.5 -150t157.5 -403t-157.5 -403t-423.5 -150t-424 150t-158 403t158 403t424 150zM633 780q-79 0 -123.5 -68.5t-44.5 -191.5t44.5 -191.5t123.5 -68.5t123.5 68.5t44.5 191.5t-44.5 191.5t-123.5 68.5z" />
    <glyph glyph-name="upsilontonos" unicode="&#x3cd;" horiz-adv-x="1275" 
d="M766 1155h-289l62 344h383zM231 1061q163 0 240.5 -81.5t77.5 -277.5v-290q0 -79 28 -114.5t82 -35.5q150 0 150 301q0 270 -66 477h381q76 -233 76 -510q0 -274 -132.5 -418.5t-401.5 -144.5q-254 0 -383 102.5t-129 323.5v221q0 86 -20.5 119t-65.5 33q-31 0 -52 -6
v266q107 35 215 35z" />
    <glyph glyph-name="omegatonos" unicode="&#x3ce;" horiz-adv-x="1787" 
d="M1038 1155h-288l61 344h383zM1167 1040h410q133 -260 133 -581q0 -237 -110.5 -363.5t-337.5 -126.5q-298 0 -365 217h-4q-67 -217 -365 -217q-228 0 -339 126.5t-111 363.5q0 321 133 581h410q-136 -244 -136 -534q0 -246 119 -246q94 0 94 139v404h394v-404
q0 -139 92 -139q119 0 119 246q0 290 -136 534z" />
    <glyph glyph-name="Iegravecy" unicode="&#x400;" horiz-adv-x="1300" 
d="M727 1876l164 -320h-299l-291 320h426zM1196 1120h-645v-219h600v-330h-600v-233h657v-338h-1067v1458h1055v-338z" />
    <glyph glyph-name="Iocy" unicode="&#x401;" horiz-adv-x="1300" 
d="M596 1575h-332v289h332v-289zM1081 1575h-333v289h333v-289zM1196 1120h-645v-219h600v-330h-600v-233h657v-338h-1067v1458h1055v-338z" />
    <glyph glyph-name="Djecy" unicode="&#x402;" horiz-adv-x="1710" 
d="M1290 1114h-432v-229q129 63 295 63q248 0 382 -129t134 -366q0 -226 -130 -353t-374 -127q-111 0 -194 27v303q43 -12 104 -12q94 0 140.5 39.5t46.5 126.5q0 84 -51 128t-152 44q-112 0 -201 -51v-578h-409v1114h-433v344h1274v-344z" />
    <glyph glyph-name="Gjecy" unicode="&#x403;" horiz-adv-x="1085" 
d="M688 1556h-299l164 320h426zM141 0v1458h928v-344h-518v-1114h-410z" />
    <glyph glyph-name="Ecy" unicode="&#x404;" horiz-adv-x="1523" 
d="M1038 541h424q-24 -275 -206.5 -424.5t-479.5 -149.5q-333 0 -523 203.5t-190 558.5q0 354 191.5 558t523.5 204q300 0 482 -149.5t194 -411.5h-420q-14 108 -80 167.5t-176 59.5q-106 0 -179 -70t-101 -198h424v-318h-424q28 -128 100.5 -199t177.5 -71q109 0 178 63
t84 177z" />
    <glyph glyph-name="Dzecy" unicode="&#x405;" horiz-adv-x="1353" 
d="M672 1491q282 0 436 -121.5t154 -353.5h-431q0 80 -45.5 123t-134.5 43q-76 0 -119 -30.5t-43 -82.5q0 -60 53.5 -89t211.5 -67q54 -13 94.5 -24t89 -27t84 -32t74.5 -38t66.5 -46.5t53.5 -57t41.5 -69t25 -82.5t9.5 -99q0 -219 -165 -345t-455 -126q-297 0 -463 132.5
t-166 373.5h442q0 -186 201 -186q82 0 128 33.5t46 91.5q0 64 -50.5 92t-205.5 67q-58 16 -93.5 26t-87 27t-83.5 31.5t-73.5 36.5t-66.5 45t-52 54.5t-42 66.5t-24.5 80t-9.5 96q0 209 159.5 333t440.5 124z" />
    <glyph glyph-name="Icy" unicode="&#x406;" horiz-adv-x="692" 
d="M551 0h-410v1458h410v-1458z" />
    <glyph glyph-name="Yicy" unicode="&#x407;" horiz-adv-x="692" 
d="M268 1575h-331v289h331v-289zM754 1575h-334v289h334v-289zM551 0h-410v1458h410v-1458z" />
    <glyph glyph-name="Jecy" unicode="&#x408;" horiz-adv-x="876" 
d="M745 1458v-938q0 -279 -128.5 -409.5t-399.5 -130.5q-89 0 -186 22v334q54 -8 90 -8q121 0 168 61t47 227v842h409z" />
    <glyph glyph-name="Ljecy" unicode="&#x409;" horiz-adv-x="2230" 
d="M1403 997h207q286 0 432.5 -132.5t146.5 -366.5t-146.5 -366t-432.5 -132h-617v1116h-305q-11 -240 -30.5 -416t-52 -302.5t-72.5 -206.5t-99.5 -126t-125 -63.5t-156.5 -17.5q-70 0 -132 16v328q20 -4 37 -4q44 0 74 16t57 62.5t44.5 123.5t32 206.5t24 303.5t16.5 422
h1098v-461zM1403 676v-354h149q215 0 215 176q0 178 -215 178h-149z" />
    <glyph glyph-name="Njecy" unicode="&#x40a;" horiz-adv-x="2265" 
d="M1438 997h207q286 0 432.5 -132.5t146.5 -366.5t-146.5 -366t-432.5 -132h-617v578h-477v-578h-410v1458h410v-536h477v536h410v-461zM1438 322h149q215 0 215 176q0 178 -215 178h-149v-354z" />
    <glyph glyph-name="Tshecy" unicode="&#x40b;" horiz-adv-x="1714" 
d="M1171 903q234 0 359 -121t125 -346v-436h-410v358q0 98 -49 149.5t-145 51.5q-108 0 -193 -29v-530h-409v1114h-433v344h1274v-344h-432v-250q127 39 313 39z" />
    <glyph glyph-name="Kjecy" unicode="&#x40c;" horiz-adv-x="1466" 
d="M815 1556h-299l164 320h426zM924 770l536 -770h-512l-393 653h-4v-653h-410v1458h410v-614h4l381 614h494z" />
    <glyph glyph-name="Iigravecy" unicode="&#x40d;" horiz-adv-x="1693" 
d="M864 1876l164 -320h-299l-291 320h426zM532 1458v-528q0 -331 -16 -596h4q91 272 209 565l227 559h594v-1458h-391v528q0 258 17 596h-5q-93 -286 -208 -565l-226 -559h-596v1458h391z" />
    <glyph glyph-name="Ushortcy" unicode="&#x40e;" horiz-adv-x="1466" 
d="M864 1876h240q-6 -154 -102 -238t-269 -84t-269 84t-102 238h240q6 -104 131 -104t131 104zM1466 1458l-559 -1163q-83 -174 -196.5 -244.5t-268.5 -70.5q-123 0 -196 20v332q51 -15 100 -15q67 0 104 27.5t37 83.5q0 34 -16 73.5t-94 196.5l-377 760h446l150 -364
q69 -161 137 -355h4q69 196 135 357l148 362h446z" />
    <glyph glyph-name="Dzhecy" unicode="&#x40f;" horiz-adv-x="1558" 
d="M1417 0h-446v-328h-393v328h-437v1458h412v-1114h453v1114h411v-1458z" />
    <glyph glyph-name="Acy" unicode="&#x410;" horiz-adv-x="1497" 
d="M995 262h-493l-74 -262h-432l489 1458h527l489 -1458h-432zM905 584l-28 100q-63 225 -125 492h-4q-65 -280 -127 -492l-29 -100h313z" />
    <glyph glyph-name="Becy" unicode="&#x411;" horiz-adv-x="1404" 
d="M1241 1137h-704v-228h256q255 0 399.5 -122t144.5 -332q0 -211 -144.5 -333t-399.5 -122h-652v1458h1100v-321zM537 610v-313h170q107 0 156.5 38t49.5 120q0 80 -49.5 117.5t-156.5 37.5h-170z" />
    <glyph glyph-name="Vecy" unicode="&#x412;" horiz-adv-x="1386" 
d="M141 1458h619q263 0 396.5 -101t133.5 -276q0 -126 -58.5 -205t-182.5 -122v-4q136 -31 207 -118t71 -222q0 -189 -145.5 -299.5t-401.5 -110.5h-639v1458zM537 1157v-276h157q103 0 151 33.5t48 105.5q0 70 -45 103.5t-141 33.5h-170zM537 594v-291h165q108 0 155.5 34
t47.5 109q0 77 -49.5 112.5t-161.5 35.5h-157z" />
    <glyph glyph-name="Gecy" unicode="&#x413;" horiz-adv-x="1085" 
d="M141 0v1458h928v-344h-518v-1114h-410z" />
    <glyph glyph-name="Decy" unicode="&#x414;" horiz-adv-x="1681" 
d="M1663 344v-672h-393v328h-854v-328h-393v672h184q58 127 88.5 370.5t40.5 743.5h1153v-1114h174zM1079 1116h-360q-19 -500 -96 -772h456v772z" />
    <glyph glyph-name="Iecy" unicode="&#x415;" horiz-adv-x="1300" 
d="M1196 1120h-645v-219h600v-330h-600v-233h657v-338h-1067v1458h1055v-338z" />
    <glyph glyph-name="Zhecy" unicode="&#x416;" horiz-adv-x="2023" 
d="M1583 760l434 -760h-481l-319 698h-5v-698h-401v698h-4l-318 -698h-483l436 760l-417 698h473l309 -645h4v645h401v-645h5l309 645h473z" />
    <glyph glyph-name="Zecy" unicode="&#x417;" horiz-adv-x="1370" 
d="M682 1489q279 0 442.5 -109.5t163.5 -308.5q0 -118 -61 -192.5t-195 -118.5v-4q144 -47 210.5 -132t66.5 -221q0 -208 -162.5 -322t-454.5 -114q-318 0 -489.5 132.5t-171.5 385.5h442q0 -97 56 -146.5t163 -49.5q85 0 136 37t51 100q0 74 -59 113t-169 39h-86v309h86
q100 0 156.5 39.5t56.5 107.5q0 63 -49 99t-135 36q-95 0 -146 -49t-51 -139h-430q0 237 168.5 372.5t460.5 135.5z" />
    <glyph glyph-name="Iicy" unicode="&#x418;" horiz-adv-x="1693" 
d="M532 1458v-528q0 -331 -16 -596h4q91 272 209 565l227 559h594v-1458h-391v528q0 258 17 596h-5q-93 -286 -208 -565l-226 -559h-596v1458h391z" />
    <glyph glyph-name="Iishortcy" unicode="&#x419;" horiz-adv-x="1693" 
d="M940 1876h240q-6 -154 -102 -238t-269 -84t-269 84t-102 238h240q6 -104 131 -104t131 104zM532 1458v-528q0 -331 -16 -596h4q91 272 209 565l227 559h594v-1458h-391v528q0 258 17 596h-5q-93 -286 -208 -565l-226 -559h-596v1458h391z" />
    <glyph glyph-name="Kacy" unicode="&#x41a;" horiz-adv-x="1466" 
d="M924 770l536 -770h-512l-393 653h-4v-653h-410v1458h410v-614h4l381 614h494z" />
    <glyph glyph-name="Elcy" unicode="&#x41b;" horiz-adv-x="1544" 
d="M1403 0h-410v1116h-305q-11 -240 -30.5 -416t-52 -302.5t-72.5 -206.5t-99.5 -126t-125 -63.5t-156.5 -17.5q-70 0 -132 16v328q20 -4 37 -4q44 0 74 16t57 62.5t44.5 123.5t32 206.5t24 303.5t16.5 422h1098v-1458z" />
    <glyph glyph-name="Emcy" unicode="&#x41c;" horiz-adv-x="2134" 
d="M1993 0h-381v698q0 268 12 535h-4q-63 -295 -123 -528l-182 -705h-496l-182 705q-60 233 -123 528h-4q12 -267 12 -535v-698h-381v1458h652l161 -627q69 -257 111 -536h4q38 250 111 536l161 627h652v-1458z" />
    <glyph glyph-name="Ency" unicode="&#x41d;" horiz-adv-x="1579" 
d="M1438 0h-410v578h-477v-578h-410v1458h410v-536h477v536h410v-1458z" />
    <glyph glyph-name="Ocy" unicode="&#x41e;" horiz-adv-x="1570" 
d="M784 1491q332 0 527.5 -206t195.5 -556t-195.5 -556t-527.5 -206q-330 0 -525.5 206t-195.5 556t195.5 556t525.5 206zM784 1143q-139 0 -214.5 -108t-75.5 -306t75.5 -306t214.5 -108q141 0 217 108t76 306t-76 306t-217 108z" />
    <glyph glyph-name="Pecy" unicode="&#x41f;" horiz-adv-x="1558" 
d="M1417 0h-409v1114h-457v-1114h-410v1458h1276v-1458z" />
    <glyph glyph-name="Ercy" unicode="&#x420;" horiz-adv-x="1378" 
d="M141 1458h617q286 0 432.5 -132t146.5 -365q0 -234 -146.5 -367t-432.5 -133h-207v-461h-410v1458zM551 1137v-355h149q215 0 215 179q0 176 -215 176h-149z" />
    <glyph glyph-name="Escy" unicode="&#x421;" horiz-adv-x="1495" 
d="M760 1491q296 0 474.5 -153.5t190.5 -422.5h-430q-12 108 -72.5 168t-162.5 60q-124 0 -196 -110.5t-72 -303.5q0 -192 72.5 -303t195.5 -111q100 0 163.5 63.5t73.5 176.5h437q-23 -282 -202 -435t-472 -153q-325 0 -511 203.5t-186 558.5t186.5 558.5t510.5 203.5z" />
    <glyph glyph-name="Tecy" unicode="&#x422;" horiz-adv-x="1306" 
d="M1290 1114h-432v-1114h-409v1114h-433v344h1274v-344z" />
    <glyph glyph-name="Ucy" unicode="&#x423;" horiz-adv-x="1466" 
d="M1466 1458l-559 -1163q-83 -174 -196.5 -244.5t-268.5 -70.5q-123 0 -196 20v332q51 -15 100 -15q67 0 104 27.5t37 83.5q0 34 -16 73.5t-94 196.5l-377 760h446l150 -364q69 -161 137 -355h4q69 196 135 357l148 362h446z" />
    <glyph glyph-name="Efcy" unicode="&#x424;" horiz-adv-x="1839" 
d="M1776 729q0 -285 -169 -446.5t-491 -184.5v-151h-393v151q-322 23 -491 184.5t-169 446.5t169 446.5t491 184.5v151h393v-151q322 -23 491 -184.5t169 -446.5zM479 729q0 -276 258 -317v635q-258 -44 -258 -318zM1102 1047v-635q258 41 258 317q0 274 -258 318z" />
    <glyph glyph-name="Hacy" unicode="&#x425;" horiz-adv-x="1452" 
d="M1001 756l449 -756h-481l-242 489h-4l-240 -489h-483l451 756l-420 702h471l221 -469h4l223 469h471z" />
    <glyph glyph-name="Tsecy" unicode="&#x426;" horiz-adv-x="1615" 
d="M1417 344h174v-672h-393v328h-1057v1458h412v-1114h453v1114h411v-1114z" />
    <glyph glyph-name="Checy" unicode="&#x427;" horiz-adv-x="1462" 
d="M1321 0h-410v506q-149 -39 -333 -39q-251 0 -385 121.5t-134 347.5v522h410v-444q0 -99 56.5 -151t164.5 -52q123 0 221 29v618h410v-1458z" />
    <glyph glyph-name="Shacy" unicode="&#x428;" horiz-adv-x="2168" 
d="M2028 0h-1887v1458h412v-1114h326v1114h411v-1114h326v1114h412v-1458z" />
    <glyph glyph-name="Shchacy" unicode="&#x429;" horiz-adv-x="2220" 
d="M2028 344h174v-672h-394v328h-1667v1458h412v-1114h326v1114h411v-1114h326v1114h412v-1114z" />
    <glyph glyph-name="Hardsigncy" unicode="&#x42a;" horiz-adv-x="1624" 
d="M797 997h207q286 0 432.5 -132.5t146.5 -366.5t-146.5 -366t-432.5 -132h-617v1114h-371v344h781v-461zM797 676v-354h149q215 0 215 176q0 178 -215 178h-149z" />
    <glyph glyph-name="Yerucy" unicode="&#x42b;" horiz-adv-x="2070" 
d="M141 0v1458h410v-461h207q286 0 432.5 -132.5t146.5 -366.5t-146.5 -366t-432.5 -132h-617zM1929 0h-409v1458h409v-1458zM551 322h149q215 0 215 176q0 178 -215 178h-149v-354z" />
    <glyph glyph-name="Softsigncy" unicode="&#x42c;" horiz-adv-x="1378" 
d="M141 0v1458h410v-461h207q286 0 432.5 -132.5t146.5 -366.5t-146.5 -366t-432.5 -132h-617zM551 322h149q215 0 215 176q0 178 -215 178h-149v-354z" />
    <glyph glyph-name="Ereversedcy" unicode="&#x42d;" horiz-adv-x="1523" 
d="M745 1491q332 0 523.5 -204t191.5 -558q0 -355 -190.5 -558.5t-524.5 -203.5q-295 0 -477.5 149.5t-206.5 424.5h424q13 -113 82.5 -176.5t177.5 -63.5q106 0 179.5 71t101.5 199h-424v318h424q-28 127 -101.5 197.5t-179.5 70.5q-109 0 -176 -59.5t-82 -167.5h-417
q12 263 193 412t482 149z" />
    <glyph glyph-name="Iucy" unicode="&#x42e;" horiz-adv-x="2197" 
d="M1446 1491q316 0 502 -207t186 -559q0 -348 -186 -553t-502 -205q-274 0 -454 157t-224 433h-217v-557h-410v1458h410v-557h217q44 276 224 433t454 157zM1446 315q126 0 195 107t69 303q0 201 -69 309.5t-195 108.5t-195 -108t-69 -306t69 -306t195 -108z" />
    <glyph glyph-name="Iacy" unicode="&#x42f;" horiz-adv-x="1427" 
d="M1284 1458v-1458h-407v489h-224l-223 -489h-434l287 569q-213 122 -213 416q0 231 142 352t425 121h647zM877 1151h-191q-217 0 -217 -180q0 -185 207 -185h201v365z" />
    <glyph glyph-name="acy" unicode="&#x430;" horiz-adv-x="1179" 
d="M582 1073q251 0 374 -110.5t123 -321.5v-338q0 -194 33 -303h-354q-17 63 -17 131h-4q-124 -160 -338 -160q-166 0 -264 92t-98 234q0 141 98.5 223t325.5 117q123 19 239 27v36q0 144 -122 144q-120 0 -123 -133h-375q5 75 35 138.5t88.5 114.5t155 80t223.5 29z
M700 428v39q-90 -8 -159 -23q-63 -13 -91 -42.5t-28 -77.5q0 -49 30 -79t85 -30q77 0 118 49q27 29 36 65.5t9 98.5z" />
    <glyph glyph-name="becy" unicode="&#x431;" horiz-adv-x="1255" 
d="M1137 1491v-309q-109 -30 -334 -37q-127 -4 -210.5 -23t-133.5 -59t-73.5 -92.5t-33.5 -132.5h4q91 163 351 163q226 0 359.5 -130.5t133.5 -352.5q0 -253 -155 -402t-416 -149q-278 0 -425 159t-147 466q0 191 27.5 332t78.5 237t134.5 156t186 89.5t241.5 37.5
q274 14 412 47zM625 739q-160 0 -160 -243q0 -119 41 -183.5t119 -64.5t118.5 63t40.5 181q0 119 -40.5 183t-118.5 64z" />
    <glyph glyph-name="vecy" unicode="&#x432;" horiz-adv-x="1204" 
d="M111 1040h571q217 0 324.5 -69t107.5 -213q0 -89 -46.5 -141t-149.5 -80v-5q107 -19 168 -82t61 -157q0 -142 -117.5 -217.5t-335.5 -75.5h-583v1040zM483 815v-186h117q135 0 135 92q0 94 -135 94h-117zM483 424v-199h113q158 0 158 101q0 98 -158 98h-113z" />
    <glyph glyph-name="gecy" unicode="&#x433;" horiz-adv-x="946" 
d="M932 760h-428v-760h-393v1040h821v-280z" />
    <glyph glyph-name="decy" unicode="&#x434;" horiz-adv-x="1427" 
d="M1411 281v-609h-387v328h-621v-328h-387v609h119q54 88 84 249t49 510h1006v-759h137zM887 760h-254q-19 -300 -70 -479h324v479z" />
    <glyph glyph-name="iecy" unicode="&#x435;" horiz-adv-x="1216" 
d="M608 221q59 0 97.5 28t44.5 73h401q-35 -154 -182.5 -254.5t-356.5 -100.5q-134 0 -241.5 43t-176.5 118.5t-106 177t-37 220.5q0 155 64 278t191.5 196t299.5 73q189 0 321 -84t193 -237q45 -112 45 -312h-727q6 -121 50.5 -170t119.5 -49zM606 827q-140 0 -166 -180
h330q-7 93 -51 136.5t-113 43.5z" />
    <glyph glyph-name="zhecy" unicode="&#x436;" horiz-adv-x="1697" 
d="M1720 0h-456l-222 500h-4v-500h-379v500h-4l-219 -500h-459l342 549l-309 491h441l204 -442h4v442h379v-442h4l205 442h441l-310 -491z" />
    <glyph glyph-name="zecy" unicode="&#x437;" horiz-adv-x="1124" 
d="M563 1073q218 0 348.5 -80t130.5 -227q0 -84 -40.5 -135.5t-133.5 -83.5v-4q103 -35 151 -95.5t48 -156.5q0 -159 -129.5 -241.5t-372.5 -82.5q-250 0 -387 99.5t-137 291.5h369q0 -127 153 -127q62 0 98.5 24.5t36.5 66.5q0 92 -147 92h-102v223h102q64 0 97.5 23
t33.5 65q0 40 -33 63t-92 23q-72 0 -108.5 -33t-36.5 -92h-351q0 180 136 283.5t366 103.5z" />
    <glyph glyph-name="iicy" unicode="&#x438;" horiz-adv-x="1441" 
d="M1331 0h-375v352q0 167 25 412h-4q-56 -192 -133 -381l-170 -383h-563v1040h372v-350q0 -208 -24 -414h4q53 192 133 381l168 383h567v-1040z" />
    <glyph glyph-name="iishortcy" unicode="&#x439;" horiz-adv-x="1441" 
d="M854 1458h240q-6 -154 -102 -237.5t-269 -83.5t-269 83.5t-102 237.5h240q6 -104 131 -104t131 104zM1331 0h-375v352q0 167 25 412h-4q-56 -192 -133 -381l-170 -383h-563v1040h372v-350q0 -208 -24 -414h4q53 192 133 381l168 383h567v-1040z" />
    <glyph glyph-name="kacy" unicode="&#x43a;" horiz-adv-x="1218" 
d="M1227 0h-482l-237 455h-4v-455h-393v1040h393v-397h4l219 397h465l-348 -491z" />
    <glyph glyph-name="elcy" unicode="&#x43b;" horiz-adv-x="1259" 
d="M1149 0h-393v760h-187q-7 -195 -28 -331.5t-54 -223.5t-86 -136t-113.5 -67t-146.5 -18q-71 0 -127 16v274q20 -4 39 -4q50 0 80 27.5t53.5 110t35.5 234t16 398.5h911v-1040z" />
    <glyph glyph-name="emcy" unicode="&#x43c;" horiz-adv-x="1763" 
d="M1653 0h-344v449q0 162 10 364h-4q-32 -155 -84 -360l-117 -453h-465l-117 453q-20 75 -83 360h-5q11 -222 11 -364v-449h-344v1040h587l109 -419q54 -193 72 -381h4q26 203 73 381l109 419h588v-1040z" />
    <glyph glyph-name="ency" unicode="&#x43d;" horiz-adv-x="1290" 
d="M1180 0h-394v387h-282v-387h-393v1040h393v-370h282v370h394v-1040z" />
    <glyph glyph-name="ocy" unicode="&#x43e;" horiz-adv-x="1265" 
d="M633 1073q266 0 423.5 -150t157.5 -403t-157.5 -403t-423.5 -150t-424 150t-158 403t158 403t424 150zM633 780q-79 0 -123.5 -68.5t-44.5 -191.5t44.5 -191.5t123.5 -68.5t123.5 68.5t44.5 191.5t-44.5 191.5t-123.5 68.5z" />
    <glyph glyph-name="pecy" unicode="&#x43f;" horiz-adv-x="1280" 
d="M1169 0h-393v760h-272v-760h-393v1040h1058v-1040z" />
    <glyph glyph-name="ercy" unicode="&#x440;" horiz-adv-x="1273" 
d="M770 1071q206 0 329.5 -149.5t123.5 -401.5t-120 -401.5t-323 -149.5q-82 0 -155 33t-117 96h-4v-477h-393v1419h376v-118h5q46 73 119 111t159 38zM645 774q-74 0 -118 -68.5t-44 -185.5t44 -185.5t118 -68.5q76 0 121 68.5t45 185.5t-45 185.5t-121 68.5z" />
    <glyph glyph-name="escy" unicode="&#x441;" horiz-adv-x="1206" 
d="M614 1073q232 0 380.5 -119.5t168.5 -322.5h-407q-6 72 -42 110.5t-93 38.5q-74 0 -115 -66t-41 -190q0 -128 41 -196t115 -68q60 0 96 44t39 124h407q-17 -214 -165 -337.5t-384 -123.5q-257 0 -410 150.5t-153 406.5q0 252 152.5 400.5t410.5 148.5z" />
    <glyph glyph-name="tecy" unicode="&#x442;" horiz-adv-x="1024" 
d="M1018 760h-309v-760h-394v760h-309v280h1012v-280z" />
    <glyph glyph-name="ucy" unicode="&#x443;" horiz-adv-x="1140" 
d="M1159 1040l-321 -995q-78 -246 -188.5 -342t-313.5 -96q-124 0 -205 20v283q47 -12 96 -12q129 0 129 102q0 23 -10.5 57.5t-54.5 155.5l-316 827h426l93 -346q51 -196 96 -432h4q34 214 84 434l80 344h401z" />
    <glyph glyph-name="efcy" unicode="&#x444;" horiz-adv-x="1767" 
d="M1075 1458v-465q87 78 209 78q198 0 315 -149.5t117 -401.5t-117.5 -401.5t-316.5 -149.5q-120 0 -207 78v-426h-383v426q-87 -78 -207 -78q-199 0 -316.5 149.5t-117.5 401.5t117 401.5t315 149.5q122 0 209 -78v465h383zM612 780q-75 0 -117 -69.5t-42 -190.5
t42 -190.5t117 -69.5q51 0 80 33v455q-28 32 -80 32zM1155 780q-52 0 -80 -32v-455q29 -33 80 -33q74 0 117 70t43 190t-43 190t-117 70z" />
    <glyph glyph-name="hacy" unicode="&#x445;" horiz-adv-x="1148" 
d="M823 535l338 -535h-440l-143 317h-5l-143 -317h-442l338 535l-316 505h443l120 -286h5l120 286h441z" />
    <glyph glyph-name="tsecy" unicode="&#x446;" horiz-adv-x="1314" 
d="M1161 281h137v-609h-393v328h-794v1040h393v-759h264v759h393v-759z" />
    <glyph glyph-name="checy" unicode="&#x447;" horiz-adv-x="1202" 
d="M1092 0h-394v346q-132 -33 -274 -33q-182 0 -279.5 86t-97.5 244v397h393v-321q0 -123 131 -123q68 0 127 18v426h394v-1040z" />
    <glyph glyph-name="shacy" unicode="&#x448;" horiz-adv-x="1847" 
d="M1737 0h-1626v1040h393v-759h223v759h393v-759h223v759h394v-1040z" />
    <glyph glyph-name="shchacy" unicode="&#x449;" horiz-adv-x="1890" 
d="M1737 281h137v-609h-393v328h-1370v1040h393v-759h223v759h393v-759h223v759h394v-759z" />
    <glyph glyph-name="hardsigncy" unicode="&#x44a;" horiz-adv-x="1380" 
d="M659 743h191q231 0 355 -91.5t124 -280.5t-124 -280t-355 -91h-584v760h-260v280h653v-297zM659 485v-227h142q131 0 131 113q0 114 -131 114h-142z" />
    <glyph glyph-name="yerucy" unicode="&#x44b;" horiz-adv-x="1792" 
d="M504 743h190q231 0 355.5 -91.5t124.5 -280.5t-124.5 -280t-355.5 -91h-583v1040h393v-297zM1681 0h-393v1040h393v-1040zM504 485v-227h141q131 0 131 113q0 114 -131 114h-141z" />
    <glyph glyph-name="softsigncy" unicode="&#x44c;" horiz-adv-x="1222" 
d="M504 743h190q231 0 355.5 -91.5t124.5 -280.5t-124.5 -280t-355.5 -91h-583v1040h393v-297zM504 485v-227h141q131 0 131 113q0 114 -131 114h-141z" />
    <glyph glyph-name="ereversedcy" unicode="&#x44d;" horiz-adv-x="1206" 
d="M592 1073q258 0 410.5 -148.5t152.5 -400.5q0 -256 -153 -406.5t-412 -150.5q-235 0 -382.5 116.5t-164.5 317.5h373q3 -78 49.5 -123t118.5 -45t119.5 48.5t64.5 140.5h-295v217h293q-19 85 -65 129.5t-115 44.5q-70 0 -116 -40.5t-56 -115.5h-371q19 190 168 303
t381 113z" />
    <glyph glyph-name="iucy" unicode="&#x44e;" horiz-adv-x="1816" 
d="M1196 1073q260 0 414.5 -150t154.5 -403t-154.5 -403t-414.5 -150q-223 0 -371 111t-186 305h-135v-383h-393v1040h393v-374h135q43 191 190 299t367 108zM1196 260q78 0 120 68t42 192t-42 192t-120 68t-120 -68t-42 -192t42 -192t120 -68z" />
    <glyph glyph-name="iacy" unicode="&#x44f;" horiz-adv-x="1232" 
d="M1122 1040v-1040h-391v305h-158l-149 -305h-424l217 379q-158 93 -158 307q0 354 480 354h583zM731 780h-121q-164 0 -164 -110q0 -113 160 -113h125v223z" />
    <glyph glyph-name="iegravecy" unicode="&#x450;" horiz-adv-x="1216" 
d="M526 1151l-290 307h426l163 -307h-299zM608 221q59 0 97.5 28t44.5 73h401q-35 -154 -182.5 -254.5t-356.5 -100.5q-134 0 -241.5 43t-176.5 118.5t-106 177t-37 220.5q0 155 64 278t191.5 196t299.5 73q189 0 321 -84t193 -237q45 -112 45 -312h-727q6 -121 50.5 -170
t119.5 -49zM606 827q-140 0 -166 -180h330q-7 93 -51 136.5t-113 43.5z" />
    <glyph glyph-name="iocy" unicode="&#x451;" horiz-adv-x="1216" 
d="M530 1169h-331v289h331v-289zM1016 1169h-334v289h334v-289zM608 221q59 0 97.5 28t44.5 73h401q-35 -154 -182.5 -254.5t-356.5 -100.5q-134 0 -241.5 43t-176.5 118.5t-106 177t-37 220.5q0 155 64 278t191.5 196t299.5 73q189 0 321 -84t193 -237q45 -112 45 -312
h-727q6 -121 50.5 -170t119.5 -49zM606 827q-140 0 -166 -180h330q-7 93 -51 136.5t-113 43.5z" />
    <glyph glyph-name="djecy" unicode="&#x452;" horiz-adv-x="1269" 
d="M784 954q181 0 283 -110t102 -318v-497q0 -212 -111 -316t-298 -104q-109 0 -189 22v271q21 -6 52 -6q80 0 116.5 43t36.5 157v381q0 174 -127 174q-145 0 -145 -243v-408h-393v1085h-142v224h142v149h393v-149h444v-224h-444v-254h4q102 123 276 123z" />
    <glyph glyph-name="gjecy" unicode="&#x453;" horiz-adv-x="946" 
d="M602 1151h-299l164 307h426zM932 760h-428v-760h-393v1040h821v-280z" />
    <glyph glyph-name="ecy" unicode="&#x454;" horiz-adv-x="1206" 
d="M621 233q73 0 120 45t50 123h372q-17 -201 -165.5 -317.5t-383.5 -116.5q-257 0 -410 150.5t-153 406.5q0 252 152.5 400.5t410.5 148.5q232 0 380.5 -112.5t168.5 -303.5h-372q-9 75 -55 115.5t-115 40.5t-115.5 -44.5t-65.5 -129.5h293v-217h-295q15 -92 62.5 -140.5
t120.5 -48.5z" />
    <glyph glyph-name="dzecy" unicode="&#x455;" horiz-adv-x="1144" 
d="M569 1073q229 0 356.5 -86.5t127.5 -257.5h-373q0 115 -117 115q-96 0 -96 -70q0 -37 38 -56.5t165 -53.5q53 -14 88 -24t83.5 -28t80 -36t66.5 -45t55 -58.5t33.5 -73.5t13.5 -92q0 -156 -132.5 -248t-373.5 -92q-531 0 -531 371h393q0 -66 34 -97.5t106 -31.5
q110 0 110 72q0 43 -46.5 66t-192.5 61q-49 13 -79 21.5t-74.5 24.5t-72 32t-59.5 42t-50 55t-30 70t-12 90q0 148 123.5 239t365.5 91z" />
    <glyph glyph-name="icy" unicode="&#x456;" horiz-adv-x="614" 
d="M504 1169h-393v289h393v-289zM504 0h-393v1040h393v-1040z" />
    <glyph glyph-name="yicy" unicode="&#x457;" horiz-adv-x="614" 
d="M260 1169h-291v289h291v-289zM647 1169h-293v289h293v-289zM504 0h-393v1040h393v-1040z" />
    <glyph glyph-name="jecy" unicode="&#x458;" horiz-adv-x="614" 
d="M504 1169h-393v289h393v-289zM504 1040v-1011q0 -212 -111.5 -316t-298.5 -104q-108 0 -188 22v271q21 -6 51 -6q81 0 117.5 43t36.5 157v944h393z" />
    <glyph glyph-name="ljecy" unicode="&#x459;" horiz-adv-x="1867" 
d="M1149 743h188q232 0 357 -91.5t125 -280.5t-125 -280t-357 -91h-581v760h-187q-7 -195 -28 -331.5t-54 -223.5t-86 -136t-113.5 -67t-146.5 -18q-71 0 -127 16v274q20 -4 39 -4q50 0 80 27.5t53.5 110t35.5 234t16 398.5h911v-297zM1149 485v-227h141q131 0 131 113
q0 114 -131 114h-141z" />
    <glyph glyph-name="njecy" unicode="&#x45a;" horiz-adv-x="1892" 
d="M1174 743h190q231 0 355 -91.5t124 -280.5t-124 -280t-355 -91h-584v387h-276v-387h-393v1040h393v-370h276v370h394v-297zM1174 485v-227h141q131 0 131 113q0 114 -131 114h-141z" />
    <glyph glyph-name="tshecy" unicode="&#x45b;" horiz-adv-x="1269" 
d="M784 954q181 0 283 -110t102 -318v-526h-393v477q0 174 -127 174q-145 0 -145 -243v-408h-393v1085h-142v224h142v149h393v-149h444v-224h-444v-254h4q102 123 276 123z" />
    <glyph glyph-name="kjecy" unicode="&#x45c;" horiz-adv-x="1218" 
d="M698 1151h-299l164 307h426zM1227 0h-482l-237 455h-4v-455h-393v1040h393v-397h4l219 397h465l-348 -491z" />
    <glyph glyph-name="iigravecy" unicode="&#x45d;" horiz-adv-x="1441" 
d="M776 1458l164 -307h-299l-291 307h426zM1331 0h-375v352q0 167 25 412h-4q-56 -192 -133 -381l-170 -383h-563v1040h372v-350q0 -208 -24 -414h4q53 192 133 381l168 383h567v-1040z" />
    <glyph glyph-name="ushortcy" unicode="&#x45e;" horiz-adv-x="1140" 
d="M709 1458h239q-6 -154 -101.5 -237.5t-268.5 -83.5t-269 83.5t-102 237.5h239q6 -104 132 -104q125 0 131 104zM1159 1040l-321 -995q-78 -246 -188.5 -342t-313.5 -96q-124 0 -205 20v283q47 -12 96 -12q129 0 129 102q0 23 -10.5 57.5t-54.5 155.5l-316 827h426
l93 -346q51 -196 96 -432h4q34 214 84 434l80 344h401z" />
    <glyph glyph-name="dzhecy" unicode="&#x45f;" horiz-adv-x="1280" 
d="M1169 0h-335v-328h-394v328h-329v1040h393v-759h272v759h393v-1040z" />
    <glyph glyph-name="Gheupturncy" unicode="&#x490;" horiz-adv-x="1085" 
d="M1069 1114h-518v-1114h-410v1458h535v264h393v-608z" />
    <glyph glyph-name="gheupturncy" unicode="&#x491;" horiz-adv-x="946" 
d="M932 760h-428v-760h-393v1040h462v328h359v-608z" />
    <glyph glyph-name="Ghestrokecy" unicode="&#x492;" horiz-adv-x="1091" 
d="M557 1114v-358h252v-250h-252v-506h-407v506h-123v250h123v702h925v-344h-518z" />
    <glyph glyph-name="ghestrokecy" unicode="&#x493;" horiz-adv-x="964" 
d="M520 760v-209h246v-217h-246v-334h-393v334h-104v217h104v489h821v-280h-428z" />
    <glyph glyph-name="Zhedescendercy" unicode="&#x496;" horiz-adv-x="2023" 
d="M2017 344v-672h-393v328h-88l-319 698h-5v-698h-401v698h-4l-318 -698h-483l436 760l-417 698h473l309 -645h4v645h401v-645h5l309 645h473l-416 -698l238 -416h196z" />
    <glyph glyph-name="zhedescendercy" unicode="&#x497;" horiz-adv-x="1697" 
d="M1720 281v-609h-393v328h-63l-222 500h-4v-500h-379v500h-4l-219 -500h-459l342 549l-309 491h441l204 -442h4v442h379v-442h4l205 442h441l-310 -491l168 -268h174z" />
    <glyph glyph-name="Kadescendercy" unicode="&#x49a;" horiz-adv-x="1466" 
d="M1460 344v-672h-393v328h-119l-393 653h-4v-653h-410v1458h410v-614h4l381 614h494l-506 -688l297 -426h239z" />
    <glyph glyph-name="kadescendercy" unicode="&#x49b;" horiz-adv-x="1218" 
d="M1227 281v-609h-393v328h-89l-237 455h-4v-455h-393v1040h393v-397h4l219 397h465l-348 -491l186 -268h197z" />
    <glyph glyph-name="Kaverticalstrokecy" unicode="&#x49c;" horiz-adv-x="1601" 
d="M852 578h-6v-297h-211v297h-92v-578h-402v1458h402v-536h92v299h211v-299h4l256 536h471l-412 -694l430 -764h-481z" />
    <glyph glyph-name="kaverticalstrokecy" unicode="&#x49d;" horiz-adv-x="1370" 
d="M752 410h-17v-211h-178v211h-68v-410h-378v1040h378v-350h68v223h178v-223h21l162 350h440l-309 -491l342 -549h-459z" />
    <glyph glyph-name="Endescendercy" unicode="&#x4a2;" horiz-adv-x="1636" 
d="M1612 -328h-393v328h-191v578h-477v-578h-410v1458h410v-536h477v536h410v-1114h174v-672z" />
    <glyph glyph-name="endescendercy" unicode="&#x4a3;" horiz-adv-x="1333" 
d="M1317 -328h-393v328h-138v387h-282v-387h-393v1040h393v-370h282v370h394v-759h137v-609z" />
    <glyph glyph-name="Ustraitcy" unicode="&#x4ae;" horiz-adv-x="1411" 
d="M909 532v-532h-409v532l-500 926h451l114 -256q87 -195 137 -360h5q55 170 139 360l115 256h448z" />
    <glyph glyph-name="ustraitcy" unicode="&#x4af;" horiz-adv-x="1136" 
d="M1155 1040l-389 -1077v-342h-393v342l-391 1077h424l79 -307q51 -187 82 -389h4q34 220 80 389l82 307h422z" />
    <glyph glyph-name="Hadescendercy" unicode="&#x4b2;" horiz-adv-x="1452" 
d="M1450 344v-672h-393v328h-88l-242 489h-4l-240 -489h-483l451 756l-420 702h471l221 -469h4l223 469h471l-420 -702l244 -412h205z" />
    <glyph glyph-name="hadescendercy" unicode="&#x4b3;" horiz-adv-x="1148" 
d="M1161 281v-609h-393v328h-47l-143 317h-5l-143 -317h-442l338 535l-316 505h443l120 -286h5l120 286h441l-316 -505l160 -254h178z" />
    <glyph glyph-name="Cheverticalstrokecy" unicode="&#x4b8;" horiz-adv-x="1462" 
d="M1321 1458v-1458h-410v506q-69 -17 -112 -23v-252h-217v236h-4q-251 0 -385 121.5t-134 347.5v522h410v-444q0 -141 113 -185v338h217v-350q70 10 112 23v618h410z" />
    <glyph glyph-name="cheverticalstrokecy" unicode="&#x4b9;" horiz-adv-x="1243" 
d="M1133 1040v-1040h-379v354q-12 -3 -36.5 -9t-37.5 -9v-174h-178v153l-51 -2q-193 0 -298.5 94t-105.5 263v370h379v-295q0 -114 76 -139v256h178v-258q34 5 74 19v417h379z" />
    <glyph glyph-name="Shhacy" unicode="&#x4ba;" horiz-adv-x="1462" 
d="M141 1458h410v-506q149 39 334 39q251 0 384.5 -121.5t133.5 -347.5v-522h-408v444q0 98 -57 150.5t-166 52.5q-120 0 -221 -29v-618h-410v1458z" />
    <glyph glyph-name="shhacy" unicode="&#x4bb;" 
d="M504 946h4q99 123 272 123q178 0 279.5 -110.5t101.5 -317.5v-641h-393v592q0 174 -123 174q-141 0 -141 -244v-522h-393v1458h393v-512z" />
    <glyph glyph-name="Palochkacy" unicode="&#x4c0;" horiz-adv-x="692" 
d="M551 0h-410v1458h410v-1458z" />
    <glyph glyph-name="palochkacy" unicode="&#x4cf;" horiz-adv-x="614" 
d="M504 0h-393v1458h393v-1458z" />
    <glyph glyph-name="Schwacy" unicode="&#x4d8;" horiz-adv-x="1611" 
d="M791 1491q237 0 409.5 -97t260 -267t87.5 -394q0 -162 -51 -302t-145 -243t-236 -162t-315 -59q-340 0 -539 204.5t-199 553.5q0 77 9 121h1048q-6 89 -34 154.5t-73 103t-99.5 55t-120.5 17.5q-104 0 -171 -48t-81 -124h-441q23 101 80.5 188.5t144 154.5t207 105.5
t259.5 38.5zM801 281q125 0 206.5 70t106.5 216h-620q19 -144 102 -215t205 -71z" />
    <glyph glyph-name="schwacy" unicode="&#x4d9;" horiz-adv-x="1216" 
d="M602 1073q135 0 242.5 -42t177 -116t106.5 -174t37 -217q0 -158 -64 -283t-192 -199.5t-301 -74.5q-256 0 -406.5 148.5t-150.5 400.5q0 54 6 88h723q-10 215 -174 215q-53 0 -87 -27t-40 -71h-401q33 154 176.5 253t347.5 99zM608 213q144 0 170 184h-332
q7 -94 51.5 -139t110.5 -45z" />
    <glyph glyph-name="Obarredcy" unicode="&#x4e8;" horiz-adv-x="1570" 
d="M784 1491q332 0 527.5 -206t195.5 -556t-195.5 -556t-527.5 -206q-330 0 -525.5 206t-195.5 556t195.5 556t525.5 206zM784 1163q-123 0 -200.5 -76t-102.5 -219h611q-25 143 -103.5 219t-204.5 76zM784 295q125 0 204 77t102 220h-611q25 -143 103 -220t202 -77z" />
    <glyph glyph-name="obarredcy" unicode="&#x4e9;" horiz-adv-x="1265" 
d="M633 1073q266 0 423.5 -150t157.5 -403t-157.5 -403t-423.5 -150t-424 150t-158 403t158 403t424 150zM633 813q-80 0 -131.5 -52.5t-69.5 -146.5h402q-18 94 -69.5 146.5t-131.5 52.5zM633 227q80 0 131.5 52.5t69.5 146.5h-402q18 -94 69.5 -146.5t131.5 -52.5z" />
    <glyph glyph-name="Wgrave" unicode="&#x1e80;" horiz-adv-x="2099" 
d="M1102 1876l164 -320h-299l-291 320h426zM1802 0h-553l-110 588q-57 315 -86 551h-4q-32 -258 -88 -551l-111 -588h-553l-285 1458h398l88 -520q43 -252 86 -590h4q38 301 96 590l102 520h527l102 -520q54 -272 98 -590h5q36 311 84 590l90 520h395z" />
    <glyph glyph-name="wgrave" unicode="&#x1e81;" horiz-adv-x="1814" 
d="M961 1458l163 -307h-299l-290 307h426zM1573 0h-520l-74 371q-41 201 -70 432h-4q-30 -243 -69 -432l-74 -371h-520l-234 1040h379l55 -362q37 -234 54 -432h4q25 184 80 436l79 358h496l80 -358q55 -252 80 -436h4q18 211 53 432l55 362h379z" />
    <glyph glyph-name="Wacute" unicode="&#x1e82;" horiz-adv-x="2099" 
d="M1130 1556h-299l164 320h426zM1802 0h-553l-110 588q-57 315 -86 551h-4q-32 -258 -88 -551l-111 -588h-553l-285 1458h398l88 -520q43 -252 86 -590h4q38 301 96 590l102 520h527l102 -520q54 -272 98 -590h5q36 311 84 590l90 520h395z" />
    <glyph glyph-name="wacute" unicode="&#x1e83;" horiz-adv-x="1814" 
d="M989 1151h-299l164 307h426zM1573 0h-520l-74 371q-41 201 -70 432h-4q-30 -243 -69 -432l-74 -371h-520l-234 1040h379l55 -362q37 -234 54 -432h4q25 184 80 436l79 358h496l80 -358q55 -252 80 -436h4q18 211 53 432l55 362h379z" />
    <glyph glyph-name="Wdieresis" unicode="&#x1e84;" horiz-adv-x="2099" 
d="M973 1575h-332v289h332v-289zM1458 1575h-334v289h334v-289zM1802 0h-553l-110 588q-57 315 -86 551h-4q-32 -258 -88 -551l-111 -588h-553l-285 1458h398l88 -520q43 -252 86 -590h4q38 301 96 590l102 520h527l102 -520q54 -272 98 -590h5q36 311 84 590l90 520h395z
" />
    <glyph glyph-name="wdieresis" unicode="&#x1e85;" horiz-adv-x="1814" 
d="M831 1169h-331v289h331v-289zM1317 1169h-334v289h334v-289zM1573 0h-520l-74 371q-41 201 -70 432h-4q-30 -243 -69 -432l-74 -371h-520l-234 1040h379l55 -362q37 -234 54 -432h4q25 184 80 436l79 358h496l80 -358q55 -252 80 -436h4q18 211 53 432l55 362h379z" />
    <glyph glyph-name="Germandbls" unicode="&#x1e9e;" horiz-adv-x="1693" 
d="M1544 1196l-291 -328q385 -119 385 -465q0 -209 -144.5 -322.5t-391.5 -113.5q-242 0 -369 113.5t-127 339.5h350q0 -144 136 -144q63 0 98 34t35 98q0 104 -95.5 158.5t-283.5 66.5v270l196 219q-71 47 -184 47q-161 0 -244.5 -89t-83.5 -263v-817h-409v811
q0 335 196 507.5t570 172.5q204 0 376 -79.5t281 -215.5z" />
    <glyph glyph-name="Ygrave" unicode="&#x1ef2;" horiz-adv-x="1411" 
d="M760 1876l164 -320h-299l-291 320h426zM909 532v-532h-409v532l-500 926h451l114 -256q87 -195 137 -360h5q55 170 139 360l115 256h448z" />
    <glyph glyph-name="ygrave" unicode="&#x1ef3;" horiz-adv-x="1140" 
d="M631 1458l164 -307h-299l-291 307h426zM1159 1040l-321 -995q-78 -246 -188.5 -342t-313.5 -96q-124 0 -205 20v283q47 -12 96 -12q129 0 129 102q0 23 -10.5 57.5t-54.5 155.5l-316 827h426l93 -346q51 -196 96 -432h4q34 214 84 434l80 344h401z" />
    <glyph glyph-name="hyphentwo" unicode="&#x2010;" horiz-adv-x="722" 
d="M662 461h-601v274h601v-274z" />
    <glyph glyph-name="endash" unicode="&#x2013;" horiz-adv-x="1024" 
d="M983 461h-942v274h942v-274z" />
    <glyph glyph-name="emdash" unicode="&#x2014;" horiz-adv-x="2048" 
d="M2007 461h-1966v274h1966v-274z" />
    <glyph glyph-name="horizontalbar" unicode="&#x2015;" horiz-adv-x="2048" 
d="M2007 461h-1966v274h1966v-274z" />
    <glyph glyph-name="underscoredbl" unicode="&#x2017;" horiz-adv-x="1024" 
d="M1024 -301h-1024v199h1024v-199zM1024 -645h-1024v199h1024v-199z" />
    <glyph glyph-name="quoteleft" unicode="&#x2018;" horiz-adv-x="567" 
d="M113 1137l186 321h197l-148 -321h113v-349h-348v349z" />
    <glyph glyph-name="quoteright" unicode="&#x2019;" horiz-adv-x="567" 
d="M455 1108l-187 -320h-196l147 320h-113v350h349v-350z" />
    <glyph glyph-name="quotesinglbase" unicode="&#x201a;" horiz-adv-x="567" 
d="M455 0l-187 -322h-196l147 322h-113v350h349v-350z" />
    <glyph glyph-name="quotereversed" unicode="&#x201b;" horiz-adv-x="567" 
d="M461 1458v-350h-113l148 -320h-197l-186 320v350h348z" />
    <glyph glyph-name="quotedblleft" unicode="&#x201c;" horiz-adv-x="1013" 
d="M113 1137l186 321h197l-148 -321h113v-349h-348v349zM559 1137l186 321h197l-147 -321h112v-349h-348v349z" />
    <glyph glyph-name="quotedblright" unicode="&#x201d;" horiz-adv-x="1013" 
d="M455 1108l-187 -320h-196l147 320h-113v350h349v-350zM901 1108l-186 -320h-197l148 320h-113v350h348v-350z" />
    <glyph glyph-name="quotedblbase" unicode="&#x201e;" horiz-adv-x="1013" 
d="M455 0l-187 -319h-196l147 319h-113v350h349v-350zM901 0l-186 -319h-197l148 319h-113v350h348v-350z" />
    <glyph glyph-name="dagger" unicode="&#x2020;" horiz-adv-x="1327" 
d="M862 1141h342v-340h-342v-1047h-397v1047h-342v338h342v319h397v-317z" />
    <glyph glyph-name="daggerdbl" unicode="&#x2021;" horiz-adv-x="1327" 
d="M862 1141h342v-328h-342v-414h342v-327h-342v-318h-397v318h-342v327h342v414h-342v328h342v317h397v-317z" />
    <glyph glyph-name="bullet" unicode="&#x2022;" horiz-adv-x="858" 
d="M428 383q-143 0 -244.5 101t-101.5 245t101.5 245t244.5 101t245.5 -101t102.5 -245t-102.5 -245t-245.5 -101z" />
    <glyph glyph-name="ellipsis" unicode="&#x2026;" horiz-adv-x="2025" 
d="M502 0h-410v410h410v-410zM1217 0h-408v410h408v-410zM1931 0h-407v410h407v-410z" />
    <glyph glyph-name="perthousand" unicode="&#x2030;" horiz-adv-x="2340" 
d="M535 -61h-244l786 1503h244zM389 1423q159 0 243.5 -96t84.5 -278q0 -181 -85 -278t-243 -97t-243 97t-85 278q0 182 84.5 278t243.5 96zM389 1233q-84 0 -84 -184q0 -185 84 -185t84 185q0 184 -84 184zM1231 702q159 0 243.5 -96t84.5 -278q0 -181 -85 -278t-243 -97
t-243 97t-85 278q0 182 84.5 278t243.5 96zM1952 702q159 0 243 -95.5t84 -278.5q0 -181 -84.5 -278t-242.5 -97t-243 97t-85 278q0 182 84.5 278t243.5 96zM1231 512q-84 0 -84 -184q0 -185 84 -185q82 0 82 185q0 184 -82 184zM1952 512q-84 0 -84 -184q0 -185 84 -185
t84 185q0 184 -84 184z" />
    <glyph glyph-name="minute" unicode="&#x2032;" horiz-adv-x="532" 
d="M309 870h-248l64 510h346z" />
    <glyph glyph-name="second" unicode="&#x2033;" horiz-adv-x="944" 
d="M309 870h-248l64 510h346zM735 870h-248l64 510h346z" />
    <glyph glyph-name="guilsinglleft" unicode="&#x2039;" horiz-adv-x="735" 
d="M438 520l213 -409h-334l-233 409l233 410h334z" />
    <glyph glyph-name="guilsinglright" unicode="&#x203a;" horiz-adv-x="735" 
d="M418 932l233 -410l-233 -409h-334l213 409l-213 410h334z" />
    <glyph glyph-name="exclamdouble" unicode="&#x203c;" horiz-adv-x="1333" 
d="M541 457h-328l-61 1001h450zM1120 457h-327l-62 1001h451zM582 0h-410v330h410v-330zM1161 0h-407v330h407v-330z" />
    <glyph glyph-name="interrobang" unicode="&#x203d;" horiz-adv-x="1212" 
d="M823 1458l-8 -131q158 -38 244 -137t86 -244q0 -111 -45.5 -185t-167.5 -149q-104 -63 -138 -97t-34 -83h-332q-2 14 -2 49q0 91 33.5 145.5t140.5 135.5q81 62 106 97.5t25 86.5q0 54 -33 85.5t-90 31.5q-75 0 -113.5 -43t-39.5 -135h-404q3 173 88.5 284t245.5 154
l-8 135h446zM389 330h410v-330h-410v330z" />
    <glyph glyph-name="overline" unicode="&#x203e;" horiz-adv-x="1024" 
d="M1024 1587h-1024v236h1024v-236z" />
    <glyph glyph-name="fraction" unicode="&#x2044;" horiz-adv-x="307" 
d="M-98 0h-226l730 1380h225z" />
    <glyph glyph-name="zerosuperior" unicode="&#x2070;" horiz-adv-x="1007" 
d="M504 1665q216 0 333 -132t117 -374t-117 -374t-333 -132t-333.5 132t-117.5 374t117.5 374t333.5 132zM504 1440q-65 0 -98 -72.5t-33 -208.5q0 -280 131 -280t131 280q0 136 -33 208.5t-98 72.5z" />
    <glyph glyph-name="foursuperior" unicode="&#x2074;" horiz-adv-x="991" 
d="M969 848h-178v-172h-308v172h-460v239l366 555h402v-565h178v-229zM283 1077h213v88q0 117 10 260h-2q-64 -112 -131 -215z" />
    <glyph glyph-name="fivesuperior" unicode="&#x2075;" horiz-adv-x="980" 
d="M854 1393h-463l-12 -133h4q85 61 203 61q148 0 242 -86.5t94 -222.5q0 -164 -119 -261.5t-316 -97.5q-196 0 -311 83t-115 231h322q0 -43 29.5 -68t79.5 -25q55 0 84.5 31t29.5 90q0 57 -30.5 89t-81.5 32q-83 0 -109 -82l-307 19l55 589h721v-249z" />
    <glyph glyph-name="sixsuperior" unicode="&#x2076;" horiz-adv-x="964" 
d="M508 1665q174 0 279.5 -80.5t117.5 -228.5h-317q-9 94 -94 94q-58 0 -93 -54t-39 -167h5q83 74 223 74q145 0 236.5 -84.5t91.5 -219.5q0 -153 -116 -249.5t-302 -96.5q-212 0 -329.5 126t-117.5 366q0 241 122 380.5t333 139.5zM502 1102q-47 0 -77 -31t-30 -82
t29.5 -81.5t77.5 -30.5q47 0 75.5 30.5t28.5 81.5t-28.5 82t-75.5 31z" />
    <glyph glyph-name="sevensuperior" unicode="&#x2077;" horiz-adv-x="876" 
d="M854 1642v-237q-111 -145 -190.5 -335t-120.5 -394h-340q45 197 135.5 386.5t200.5 321.5h-516v258h831z" />
    <glyph glyph-name="eightsuperior" unicode="&#x2078;" horiz-adv-x="966" 
d="M483 1665q184 0 295 -75.5t111 -198.5q0 -77 -50 -134.5t-137 -76.5v-4q94 -17 152.5 -81t58.5 -153q0 -137 -113 -213t-317 -76t-317 76t-113 213q0 89 57.5 153t151.5 81v4q-86 18 -135 75.5t-49 135.5q0 124 110 199t295 75zM483 1450q-52 0 -82 -24t-30 -64
q0 -41 30 -65.5t82 -24.5t81.5 24t29.5 66q0 40 -30 64t-81 24zM483 1059q-54 0 -84 -24.5t-30 -67.5q0 -44 30 -69.5t84 -25.5q53 0 83 25.5t30 69.5q0 43 -30 67.5t-83 24.5z" />
    <glyph glyph-name="ninesuperior" unicode="&#x2079;" horiz-adv-x="964" 
d="M457 653q-173 0 -279.5 81.5t-118.5 228.5h318q12 -95 94 -95q122 0 131 222h-4q-83 -74 -223 -74q-145 0 -236.5 84t-91.5 219q0 152 117 249t301 97q212 0 329 -125.5t117 -365.5q0 -242 -121.5 -381.5t-332.5 -139.5zM465 1217q47 0 75.5 30.5t28.5 81.5t-28.5 82
t-75.5 31t-77 -31t-30 -82t29 -81.5t78 -30.5z" />
    <glyph glyph-name="plussuperior" unicode="&#x207a;" horiz-adv-x="841" 
d="M547 1251h217v-239h-217v-215h-250v215h-219v239h219v213h250v-213z" />
    <glyph glyph-name="minussuperior" unicode="&#x207b;" horiz-adv-x="841" 
d="M764 1012h-686v239h686v-239z" />
    <glyph glyph-name="equalsuperior" unicode="&#x207c;" horiz-adv-x="841" 
d="M764 1184h-686v219h686v-219zM764 856h-686v219h686v-219z" />
    <glyph glyph-name="parenleftsuperior" unicode="&#x207d;" horiz-adv-x="565" 
d="M276 1739h246q-145 -329 -145 -637q0 -157 34 -308t111 -329h-246q-117 159 -168 312t-51 325q0 173 51 326.5t168 310.5z" />
    <glyph glyph-name="parenrightsuperior" unicode="&#x207e;" horiz-adv-x="565" 
d="M289 465h-246q76 173 109.5 325.5t33.5 311.5q0 158 -33 309t-110 328h246q116 -159 167.5 -312.5t51.5 -324.5t-51.5 -325t-167.5 -312z" />
    <glyph glyph-name="zeroinferior" unicode="&#x2080;" horiz-adv-x="1007" 
d="M504 637q216 0 333 -132t117 -374t-117 -374t-333 -132t-333.5 132t-117.5 374t117.5 374t333.5 132zM504 412q-65 0 -98 -72.5t-33 -208.5t33 -208.5t98 -72.5t98 72.5t33 208.5t-33 208.5t-98 72.5z" />
    <glyph glyph-name="oneinferior" unicode="&#x2081;" horiz-adv-x="702" 
d="M590 -352h-322v563h-248v229q136 0 202.5 41.5t80.5 132.5h287v-966z" />
    <glyph glyph-name="twoinferior" unicode="&#x2082;" horiz-adv-x="991" 
d="M496 637q189 0 300 -87t111 -220q0 -115 -70 -185.5t-202 -117.5q-82 -31 -126.5 -54t-59.5 -39t-19 -38h504v-248h-871q-2 16 -2 67q0 164 64 265.5t223 173.5q52 23 78.5 35.5t62.5 32.5t53 35t29.5 35t12.5 42q0 36 -22.5 56t-63.5 20q-48 0 -77.5 -32t-29.5 -91h-317
q0 167 111 258.5t311 91.5z" />
    <glyph glyph-name="threeinferior" unicode="&#x2083;" horiz-adv-x="974" 
d="M485 637q193 0 305.5 -75t112.5 -202q0 -77 -41 -126.5t-131 -81.5v-5q97 -31 140.5 -82.5t43.5 -136.5q0 -139 -115 -221t-308 -82q-220 0 -335.5 91t-115.5 264h324q0 -134 124 -134q49 0 78 23t29 61q0 95 -145 95h-25v221h37q58 0 92.5 23.5t34.5 62.5t-27 61.5
t-76 22.5q-58 0 -88 -34t-30 -93h-314q0 163 114 255.5t316 92.5z" />
    <glyph glyph-name="fourinferior" unicode="&#x2084;" horiz-adv-x="991" 
d="M967 -180h-179v-172h-307v172h-461v239l367 555h401v-565h179v-229zM281 49h213v88q0 117 10 260h-2q-64 -112 -131 -215z" />
    <glyph glyph-name="fiveinferior" unicode="&#x2085;" horiz-adv-x="980" 
d="M854 365h-463l-12 -134h4q86 62 203 62q148 0 242 -86.5t94 -222.5q0 -164 -119 -261.5t-316 -97.5q-196 0 -311 83t-115 231h322q0 -43 29.5 -68t79.5 -25q55 0 84.5 31t29.5 90q0 57 -30.5 89t-81.5 32q-83 0 -109 -82l-307 19l55 589h721v-249z" />
    <glyph glyph-name="sixinferior" unicode="&#x2086;" horiz-adv-x="964" 
d="M508 637q174 0 279.5 -80.5t117.5 -228.5h-317q-9 94 -94 94q-58 0 -93 -54t-39 -167h5q82 73 223 73q145 0 236.5 -84t91.5 -219q0 -153 -116 -249.5t-302 -96.5q-212 0 -329.5 126t-117.5 366q0 241 122 380.5t333 139.5zM502 74q-47 0 -77 -31t-30 -82t30 -82t77 -31
t75.5 31t28.5 82t-28.5 82t-75.5 31z" />
    <glyph glyph-name="seveninferior" unicode="&#x2087;" horiz-adv-x="876" 
d="M852 614v-237q-111 -145 -190.5 -335t-120.5 -394h-340q45 197 135.5 386.5t200.5 321.5h-517v258h832z" />
    <glyph glyph-name="eightinferior" unicode="&#x2088;" horiz-adv-x="966" 
d="M483 637q184 0 295 -76t111 -199q0 -77 -50 -134t-137 -76v-5q95 -17 153 -80.5t58 -152.5q0 -137 -113 -213t-317 -76t-317 76t-113 213q0 89 57.5 152.5t151.5 80.5v5q-86 18 -135 75t-49 135q0 124 110 199.5t295 75.5zM483 422q-52 0 -82 -24t-30 -64q0 -41 30 -65.5
t82 -24.5t81.5 24t29.5 66q0 40 -30 64t-81 24zM483 31q-54 0 -84 -24.5t-30 -67.5q0 -44 30 -69.5t84 -25.5q53 0 83 25.5t30 69.5q0 43 -30 67.5t-83 24.5z" />
    <glyph glyph-name="nineinferior" unicode="&#x2089;" horiz-adv-x="964" 
d="M457 -375q-173 0 -279.5 81t-118.5 228h318q12 -94 94 -94q123 0 131 221h-4q-82 -73 -223 -73q-145 0 -236.5 84t-91.5 219q0 152 117 249t301 97q212 0 329 -126t117 -366q0 -241 -121.5 -380.5t-332.5 -139.5zM465 188q47 0 75.5 31t28.5 82t-28.5 82t-75.5 31
t-77 -31t-30 -82t29 -82t78 -31z" />
    <glyph glyph-name="plusinferior" unicode="&#x208a;" horiz-adv-x="841" 
d="M547 223h217v-239h-217v-215h-250v215h-219v239h219v213h250v-213z" />
    <glyph glyph-name="minusinferior" unicode="&#x208b;" horiz-adv-x="841" 
d="M764 -16h-686v239h686v-239z" />
    <glyph glyph-name="equalinferior" unicode="&#x208c;" horiz-adv-x="841" 
d="M764 156h-686v219h686v-219zM764 -172h-686v219h686v-219z" />
    <glyph glyph-name="parenleftinferior" unicode="&#x208d;" horiz-adv-x="565" 
d="M276 711h246q-145 -329 -145 -637q0 -157 34 -308t111 -329h-246q-117 159 -168 312t-51 325q0 173 51 326.5t168 310.5z" />
    <glyph glyph-name="parenrightinferior" unicode="&#x208e;" horiz-adv-x="565" 
d="M289 -563h-246q143 324 143 637q0 158 -33 309t-110 328h246q116 -159 167.5 -312.5t51.5 -324.5t-51.5 -325t-167.5 -312z" />
    <glyph glyph-name="ninferior" unicode="&#x2099;" horiz-adv-x="927" 
d="M584 397q128 0 201 -77.5t73 -223.5v-448h-311v409q0 49 -18 77t-54 28q-45 0 -66.5 -38t-21.5 -122v-354h-309v729h287v-80h4q80 100 215 100z" />
    <glyph glyph-name="franc" unicode="&#x20a3;" horiz-adv-x="1343" 
d="M606 1047v-177h582v-331h-582v-136h336v-264h-336v-139h-409v139h-150v264h150v977h1032v-333h-623z" />
    <glyph glyph-name="lira" unicode="&#x20a4;" horiz-adv-x="1343" 
d="M506 317h754v-317h-1213v317q75 0 116 33.5t54 112.5h-170v158h176v73h-176v158h176v37q0 251 141 387.5t396 136.5q231 0 369.5 -127t138.5 -340h-379q0 75 -33 115.5t-96 40.5q-75 0 -110.5 -51.5t-35.5 -161.5v-37h267v-158h-267v-73h267v-158h-275q-22 -97 -100 -141
v-5z" />
    <glyph glyph-name="peseta" unicode="&#x20a7;" horiz-adv-x="2002" 
d="M1878 289q44 0 74 10v-291q-83 -26 -191 -26q-212 0 -308.5 84t-96.5 270v424h-80q-35 -178 -177.5 -277.5t-387.5 -99.5h-160v-383h-410v1380h570q233 0 373 -89t184 -251h88v291h393v-291h193v-280h-193v-318q0 -83 29.5 -118t99.5 -35zM551 705h102q215 0 215 178
q0 176 -215 176h-102v-354z" />
    <glyph glyph-name="euro" unicode="&#x20ac;" horiz-adv-x="1343" 
d="M915 444h402q-25 -226 -177 -351.5t-399 -125.5t-405.5 136t-202.5 384h-131l31 158h82v45v29h-113l31 158h96q43 256 202.5 396t411.5 140q251 0 400 -126.5t166 -350.5h-396q-14 73 -59.5 113.5t-120.5 40.5q-169 0 -215 -213h408l-29 -158h-397v-29v-45h383l-29 -158
h-334q52 -196 215 -196q76 0 122.5 40t57.5 113z" />
    <glyph glyph-name="rupeeIndian" unicode="&#x20b9;" horiz-adv-x="1343" 
d="M942 1178v-4q67 -34 96 -103h236l-57 -203h-166q-44 -209 -322 -266v-4q65 -25 117.5 -81.5t105.5 -162.5l172 -354h-469l-149 334q-42 96 -100 139t-138 43h-28v244h110q183 0 248 108h-526l55 203h477q-55 107 -244 107h-288l55 202h1147l-57 -202h-275z" />
    <glyph glyph-name="liraTurkish" unicode="&#x20ba;" horiz-adv-x="1343" 
d="M874 670h429q0 -340 -190.5 -516.5t-541.5 -176.5q-181 0 -376 23v467l-168 -92v203l168 92v106l-168 -92v203l168 92v401h413v-213l322 176v-202l-322 -176v-105l322 176v-202l-322 -177v-333q129 0 197.5 88t68.5 258z" />
    <glyph glyph-name="uni20BC" unicode="&#x20bc;" horiz-adv-x="1640" 
d="M63 0v625q0 606 576 651v182h362v-182q576 -44 576 -651v-625h-363v600q0 174 -49 253t-164 91v-944h-362v944q-113 -12 -162 -91.5t-49 -252.5v-600h-365z" />
    <glyph glyph-name="ruble" unicode="&#x20bd;" horiz-adv-x="1343" 
d="M170 1380h580q267 0 401.5 -113t134.5 -315t-134.5 -316t-401.5 -114h-172v-96h346v-246h-346v-180h-408v180h-137v246h137v96h-137v271h137v587zM578 1110v-317h112q89 0 131.5 42t42.5 117q0 158 -174 158h-112z" />
    <glyph glyph-name="careof" unicode="&#x2105;" horiz-adv-x="2013" 
d="M451 1413q173 0 284 -85t123 -232h-319q-4 44 -26.5 67t-55.5 23q-46 0 -70.5 -40t-24.5 -116q0 -164 97 -164q35 0 57 26.5t25 74.5h317q-10 -154 -119.5 -241t-287.5 -87q-191 0 -303.5 105t-112.5 286q0 175 113 279t303 104zM743 0h-225l729 1380h226zM1563 741
q194 0 309 -104.5t115 -282.5t-115 -282.5t-309 -104.5t-310 104.5t-116 282.5t116 282.5t310 104.5zM1563 512q-105 0 -105 -158q0 -159 105 -159q102 0 102 159q0 158 -102 158z" />
    <glyph glyph-name="literSign" unicode="&#x2113;" horiz-adv-x="931" 
d="M512 426v-35q0 -72 30 -104.5t97 -32.5q51 0 92 12v-266q-90 -23 -190 -23q-207 0 -306.5 98t-101.5 302q-64 8 -92 14v189q45 -9 92 -15v357q0 186 43.5 295t124 152.5t211.5 43.5q76 0 138 -22t111 -68.5t76 -127t27 -189.5q0 -229 -92 -372.5t-260 -207.5zM582 1192
q-38 0 -54 -36.5t-16 -133.5v-371q150 115 150 363q0 93 -22 135.5t-58 42.5z" />
    <glyph glyph-name="numero" unicode="&#x2116;" horiz-adv-x="2557" 
d="M1550 0h-594l-227 559q-118 293 -209 565h-4q16 -265 16 -596v-528h-391v1458h596l226 -559q115 -279 208 -565h5q-17 338 -17 596v528h391v-1458zM2105 1294q195 0 310.5 -105t115.5 -282q0 -178 -115.5 -282.5t-310.5 -104.5q-194 0 -309 104.5t-115 282.5
q0 177 115 282t309 105zM2105 1065q-102 0 -102 -158q0 -159 102 -159q105 0 105 159q0 76 -26.5 117t-78.5 41zM2474 164h-748v256h748v-256z" />
    <glyph glyph-name="published" unicode="&#x2117;" horiz-adv-x="1626" 
d="M813 1491q165 0 303 -55t234.5 -154t150 -241.5t53.5 -311.5t-53.5 -311.5t-150 -241.5t-234.5 -154t-303 -55t-303 55t-234.5 154t-150 241.5t-53.5 311.5t53.5 311.5t150 241.5t234.5 154t303 55zM813 1343q-269 0 -433.5 -169t-164.5 -445t164.5 -445t433.5 -169
t433.5 169t164.5 445t-164.5 445t-433.5 169zM496 1155h383q179 0 268.5 -81t89.5 -226t-89.5 -226t-268.5 -81h-125v-252h-258v866zM754 948v-198h90q127 0 127 98q0 100 -131 100h-86z" />
    <glyph glyph-name="trademark" unicode="&#x2122;" horiz-adv-x="1810" 
d="M678 1245h-205v-516h-256v516h-207v213h668v-213zM1739 729h-221v328q0 172 2 256h-4q-8 -48 -26.5 -138t-23.5 -116l-73 -330h-301l-74 330q-24 110 -51 254h-4q2 -42 2 -256v-328h-222v729h383l68 -295q33 -160 45 -268h4q10 86 47 268l66 295h383v-729z" />
    <glyph glyph-name="Ohm" unicode="&#x2126;" horiz-adv-x="1554" 
d="M778 1491q156 0 284 -39.5t222 -116.5t145.5 -198.5t51.5 -278.5t-66.5 -277.5t-187.5 -234.5v-4h276v-342h-639v354q88 90 137.5 193.5t49.5 240.5q0 173 -75 263t-198 90q-125 0 -199.5 -90t-74.5 -263q0 -137 49 -241t137 -193v-354h-639v342h277v4
q-78 75 -129.5 142.5t-88 164.5t-36.5 205q0 157 51.5 278.5t145.5 198.5t222 116.5t285 39.5z" />
    <glyph glyph-name="estimated" unicode="&#x212e;" horiz-adv-x="1767" 
d="M885 1413q182 0 332 -60t247.5 -162t151 -235.5t53.5 -283.5h-1253q-12 0 -20.5 -8t-8.5 -19v-342q0 -32 7 -52t26 -38q189 -186 465 -186q147 0 277 62t212 163h142q-37 -52 -92 -98.5t-131.5 -88t-182 -66t-225.5 -24.5q-176 0 -324 53.5t-250 148.5t-158.5 227
t-56.5 286q0 153 54.5 285t154.5 229.5t249.5 153t330.5 55.5zM885 1360q-272 0 -465 -193q-19 -17 -26 -35t-7 -49v-342q0 -10 8.5 -17t20.5 -7h934q26 0 26 24v342q0 31 -6 49t-24 35q-196 193 -461 193z" />
    <glyph glyph-name="oneeighth" unicode="&#x215b;" horiz-adv-x="1753" 
d="M520 553h-293v481h-209v199q202 0 240 147h262v-827zM514 0h-225l729 1380h225zM1335 848q159 0 255 -66.5t96 -175.5q0 -65 -43 -112t-117 -62v-4q83 -13 132.5 -67.5t49.5 -129.5q0 -120 -98 -185.5t-275 -65.5t-273.5 65.5t-96.5 185.5q0 75 50 129t132 68v4
q-74 15 -117 62t-43 112q0 109 95 175.5t253 66.5zM1335 662q-41 0 -66.5 -20t-25.5 -54q0 -32 25.5 -53t66.5 -21q44 0 70.5 20.5t26.5 53.5q0 34 -26.5 54t-70.5 20zM1335 328q-43 0 -69.5 -21t-26.5 -57t26.5 -58t69.5 -22q45 0 72 21.5t27 58.5q0 36 -27 57t-72 21z" />
    <glyph glyph-name="threeeighths" unicode="&#x215c;" horiz-adv-x="1984" 
d="M420 1401q163 0 261.5 -66.5t98.5 -175.5q0 -67 -35.5 -109t-113.5 -65v-4q84 -25 122 -70.5t38 -119.5q0 -125 -95 -192t-272 -67q-188 0 -289.5 78.5t-101.5 227.5h276q0 -109 115 -109q43 0 68.5 20t25.5 52q0 73 -121 73h-28v189h26q117 0 117 74q0 31 -25.5 49
t-68.5 18q-52 0 -79.5 -26.5t-27.5 -73.5h-264q0 139 99 218t274 79zM745 0h-225l729 1380h226zM1567 848q159 0 254.5 -66.5t95.5 -175.5q0 -65 -43 -112t-117 -62v-4q83 -13 132.5 -67.5t49.5 -129.5q0 -120 -97.5 -185.5t-274.5 -65.5t-274 65.5t-97 185.5q0 75 50 129
t132 68v4q-74 15 -116.5 62t-42.5 112q0 109 95 175.5t253 66.5zM1567 662q-41 0 -66.5 -20t-25.5 -54q0 -32 25.5 -53t66.5 -21q44 0 70 20.5t26 53.5q0 34 -26 54t-70 20zM1567 328q-43 0 -70 -21t-27 -57t27 -58t70 -22q44 0 71 21.5t27 58.5q0 36 -26.5 57t-71.5 21z
" />
    <glyph glyph-name="fiveeighths" unicode="&#x215d;" horiz-adv-x="1988" 
d="M737 1165h-393l-12 -116h4q64 55 172 55q127 0 208 -76.5t81 -196.5q0 -136 -102 -217.5t-271 -81.5q-170 0 -270.5 72t-100.5 199h281q0 -37 25 -60.5t69 -23.5q47 0 73.5 29.5t26.5 80.5q0 47 -27 75t-71 28q-37 0 -60.5 -19.5t-29.5 -52.5l-272 17l49 503h620v-215z
M750 0h-226l729 1380h226zM1571 848q159 0 254.5 -66.5t95.5 -175.5q0 -65 -43 -112t-117 -62v-4q83 -13 133 -67.5t50 -129.5q0 -120 -98 -185.5t-275 -65.5t-274 65.5t-97 185.5q0 75 50 129t132 68v4q-74 15 -116.5 62t-42.5 112q0 109 95 175.5t253 66.5zM1571 662
q-41 0 -66.5 -20t-25.5 -54q0 -32 25.5 -53t66.5 -21q44 0 70 20.5t26 53.5q0 34 -26 54t-70 20zM1571 328q-43 0 -69.5 -21t-26.5 -57t26.5 -58t69.5 -22q44 0 71 21.5t27 58.5q0 36 -26.5 57t-71.5 21z" />
    <glyph glyph-name="seveneighths" unicode="&#x215e;" horiz-adv-x="1783" 
d="M725 1380v-204q-96 -123 -165.5 -286.5t-104.5 -336.5h-297q41 171 120 335t173 277h-433v215h707zM545 0h-226l730 1380h225zM1366 848q159 0 254.5 -66.5t95.5 -175.5q0 -65 -43 -112t-117 -62v-4q83 -13 133 -67.5t50 -129.5q0 -120 -98 -185.5t-275 -65.5t-274 65.5
t-97 185.5q0 75 50.5 129t132.5 68v4q-74 15 -117 62t-43 112q0 109 95 175.5t253 66.5zM1366 662q-41 0 -66.5 -20t-25.5 -54q0 -32 25.5 -53t66.5 -21q44 0 70 20.5t26 53.5q0 34 -26 54t-70 20zM1366 328q-43 0 -69.5 -21t-26.5 -57t26.5 -58t69.5 -22q44 0 71 21.5
t27 58.5q0 36 -26.5 57t-71.5 21z" />
    <glyph glyph-name="Sevenroman" unicode="&#x2166;" horiz-adv-x="2752" 
d="M979 0h-549l-424 1458h432l144 -559q75 -288 120 -551h5q45 263 120 551l142 559h434zM1917 0h-410v1458h410v-1458zM2611 0h-409v1458h409v-1458z" />
    <glyph glyph-name="partialdiff" unicode="&#x2202;" horiz-adv-x="1310" 
d="M610 1491q293 0 439.5 -185t146.5 -530q0 -207 -43.5 -364t-123.5 -253t-186 -144t-237 -48q-267 0 -408 136.5t-141 367.5q0 225 137 367.5t373 142.5q152 0 234 -72h4q2 10 2 35q0 116 -49.5 188t-130.5 72q-117 0 -129 -127h-398q21 194 151.5 304t358.5 110zM631 731
q-81 0 -124.5 -69.5t-43.5 -192.5q0 -104 38.5 -159.5t112.5 -55.5q82 0 126 67.5t44 190.5q0 105 -39.5 162t-113.5 57z" />
    <glyph glyph-name="increment" unicode="&#x2206;" horiz-adv-x="1495" 
d="M1499 0h-1503l498 1458h512zM979 322l-102 362q-68 234 -127 496h-5q-52 -231 -129 -496l-102 -362h465z" />
    <glyph glyph-name="product" unicode="&#x220f;" horiz-adv-x="1486" 
d="M1343 -246h-409v1360h-381v-1360h-412v1704h1202v-1704z" />
    <glyph glyph-name="summation" unicode="&#x2211;" horiz-adv-x="1105" 
d="M1034 1114h-526l305 -506l-303 -508h524v-346h-962v346l313 508l-313 506v344h962v-344z" />
    <glyph glyph-name="minus" unicode="&#x2212;" horiz-adv-x="1159" 
d="M1047 498h-934v305h934v-305z" />
    <glyph glyph-name="divisionslash" unicode="&#x2215;" horiz-adv-x="1062" 
d="M348 -182h-287l609 1708h288z" />
    <glyph glyph-name="bulletoperator" unicode="&#x2219;" horiz-adv-x="780" 
d="M594 420h-408v411h408v-411z" />
    <glyph glyph-name="radical" unicode="&#x221a;" horiz-adv-x="1447" 
d="M920 -246h-523l-174 742h-172v311h434l179 -746h4l397 1397h342z" />
    <glyph glyph-name="infinity" unicode="&#x221e;" horiz-adv-x="1513" 
d="M1110 1034q170 0 271.5 -109.5t101.5 -293.5t-101.5 -294t-271.5 -110q-114 0 -198.5 46t-155.5 128q-149 -174 -353 -174q-170 0 -271 109.5t-101 294.5q0 184 101 293.5t271 109.5q204 0 353 -174q71 82 155.5 128t198.5 46zM438 522q73 0 154 109q-81 108 -154 108
q-52 0 -79 -29t-27 -79q0 -49 27.5 -79t78.5 -30zM1075 522q50 0 78.5 30.5t28.5 78.5q0 50 -28 79t-79 29q-43 0 -79.5 -27.5t-75.5 -80.5q40 -53 76 -81t79 -28z" />
    <glyph glyph-name="integral" unicode="&#x222b;" horiz-adv-x="802" 
d="M610 1479q84 0 183 -21v-266q-15 6 -48 6q-77 0 -114 -33.5t-37 -111.5v-1073q0 -189 -102 -284t-299 -95q-89 0 -183 20v266q15 -6 47 -6q77 0 114.5 34t37.5 112v1073q0 189 102 284t299 95z" />
    <glyph glyph-name="approxequal" unicode="&#x2248;" horiz-adv-x="1159" 
d="M412 1085q48 0 98 -20t85 -44.5t74 -44.5t66 -20q42 0 65 28t23 75h226q0 -170 -82 -274.5t-219 -104.5q-47 0 -97 20t-85 44.5t-74.5 44.5t-67.5 20q-43 0 -66.5 -27.5t-23.5 -74.5h-223q0 170 82 274t219 104zM412 618q48 0 98 -20t85 -44.5t74 -44.5t66 -20
q42 0 65 28t23 75h226q0 -170 -82 -274.5t-219 -104.5q-47 0 -97 20t-85 44.5t-74.5 44.5t-67.5 20q-43 0 -66.5 -27.5t-23.5 -74.5h-223q0 170 82 274t219 104z" />
    <glyph glyph-name="notequal" unicode="&#x2260;" horiz-adv-x="1159" 
d="M754 727l-84 -158h377v-286h-525l-114 -220h-267l113 220h-141v286h290l82 158h-372v287h522l115 223h268l-117 -223h146v-287h-293z" />
    <glyph glyph-name="lessequal" unicode="&#x2264;" horiz-adv-x="1159" 
d="M1047 924l-572 -170v-4l572 -172v-281l-934 289v329l934 289v-280zM1047 266v-266h-934v266h934z" />
    <glyph glyph-name="greaterequal" unicode="&#x2265;" horiz-adv-x="1159" 
d="M1047 915v-329l-934 -289v281l571 172v4l-571 170v280zM1047 0h-934v266h934v-266z" />
    <glyph glyph-name="lozenge" unicode="&#x25ca;" horiz-adv-x="1415" 
d="M1333 729l-362 -729h-527l-362 729l362 729h527zM485 729l222 -450l223 450l-223 451z" />
    <glyph glyph-name="apple" unicode="&#xf8ff;" horiz-adv-x="1339" 
d="M307 1591h725q131 0 207 -76t76 -206v-1159q0 -130 -76.5 -206.5t-206.5 -76.5h-725q-130 0 -206 76t-76 207v1159q0 131 75.5 206.5t206.5 75.5zM1032 1438h-725q-60 0 -94.5 -34.5t-34.5 -94.5v-1159q0 -60 34.5 -95t94.5 -35h725q60 0 94.5 35t34.5 95v1159
q0 60 -34.5 94.5t-94.5 34.5zM668 1325q183 0 286 -83.5t103 -231.5q0 -82 -30.5 -140.5t-111.5 -134.5t-108 -127.5t-27 -132.5h-241q-7 51 -7 90q0 89 23.5 142.5t99.5 130.5q60 61 78.5 94t18.5 76q0 41 -22.5 64.5t-61.5 23.5q-103 0 -103 -152h-297q1 185 106 283
t294 98zM807 133h-295v258h295v-258z" />
    <glyph glyph-name="ff" unicode="&#xfb00;" horiz-adv-x="1488" 
d="M1425 1198q-75 0 -111 -33.5t-36 -109.5v-15h188v-280h-188v-760h-393v760h-318v-760h-393v760h-160v280h160v60q0 189 105 284t305 95q83 0 182 -21v-266q-15 6 -51 6q-75 0 -111.5 -33.5t-36.5 -109.5v-15h318v60q0 189 104.5 284t304.5 95q84 0 183 -21v-266
q-15 6 -52 6z" />
    <glyph glyph-name="fi" unicode="&#xfb01;" horiz-adv-x="1392" 
d="M174 1040v60q0 189 105 284t305 95q83 0 182 -21v-266q-15 6 -51 6q-75 0 -111.5 -33.5t-36.5 -109.5v-15h189v-280h-189v-760h-393v760h-160v280h160zM1282 1458v-289h-393v289h393zM889 1040h393v-1040h-393v1040z" />
    <glyph glyph-name="fl" unicode="&#xfb02;" horiz-adv-x="1392" 
d="M174 1040v60q0 189 105 284t305 95q83 0 182 -21v-266q-15 6 -51 6q-75 0 -111.5 -33.5t-36.5 -109.5v-15h189v-280h-189v-760h-393v760h-160v280h160zM1282 1458v-1458h-393v1458h393z" />
    <glyph glyph-name="ffi" unicode="&#xfb03;" horiz-adv-x="2103" 
d="M885 1040v60q0 189 104.5 284t304.5 95q84 0 183 -21v-266q-15 6 -52 6q-75 0 -111 -33.5t-36 -109.5v-15h188v-280h-188v-760h-393v760h-318v-760h-393v760h-160v280h160v60q0 189 105 284t305 95q83 0 182 -21v-266q-15 6 -51 6q-75 0 -111.5 -33.5t-36.5 -109.5v-15
h318zM1993 1458v-289h-394v289h394zM1599 1040h394v-1040h-394v1040z" />
    <glyph glyph-name="ffl" unicode="&#xfb04;" horiz-adv-x="2103" 
d="M885 1040v60q0 189 104.5 284t304.5 95q84 0 183 -21v-266q-15 6 -52 6q-75 0 -111 -33.5t-36 -109.5v-15h188v-280h-188v-760h-393v760h-318v-760h-393v760h-160v280h160v60q0 189 105 284t305 95q83 0 182 -21v-266q-15 6 -51 6q-75 0 -111.5 -33.5t-36.5 -109.5v-15
h318zM1993 1458v-1458h-394v1458h394z" />
    <glyph glyph-name="uniFEFF" unicode="&#xfeff;" horiz-adv-x="0" 
 />
    <glyph glyph-name="NULL" horiz-adv-x="1228" 
 />
    <glyph glyph-name="J.acute.loclNLD" horiz-adv-x="876" 
d="M627 1569h-299l164 307h426zM745 1458v-938q0 -279 -128.5 -409.5t-399.5 -130.5q-89 0 -186 22v334q54 -8 90 -8q121 0 168 61t47 227v842h409z" />
    <glyph glyph-name="Ccedilla.ss01" horiz-adv-x="1495" 
d="M760 1491q296 0 474.5 -153.5t190.5 -422.5h-430q-12 108 -72.5 168t-162.5 60q-124 0 -196 -110.5t-72 -303.5q0 -192 72.5 -303t195.5 -111q100 0 163.5 63.5t73.5 176.5h437q-23 -282 -202 -435t-472 -153q-325 0 -511 203.5t-186 558.5t186.5 558.5t510.5 203.5z
M754 -444h-385l290 344h302z" />
    <glyph glyph-name="Scedilla.ss01" horiz-adv-x="1353" 
d="M672 1491q282 0 436 -121.5t154 -353.5h-431q0 80 -45.5 123t-134.5 43q-76 0 -119 -30.5t-43 -82.5q0 -60 53.5 -89t211.5 -67q54 -13 94.5 -24t89 -27t84 -32t74.5 -38t66.5 -46.5t53.5 -57t41.5 -69t25 -82.5t9.5 -99q0 -219 -165 -345t-455 -126q-297 0 -463 132.5
t-166 373.5h442q0 -186 201 -186q82 0 128 33.5t46 91.5q0 64 -50.5 92t-205.5 67q-58 16 -93.5 26t-87 27t-83.5 31.5t-73.5 36.5t-66.5 45t-52 54.5t-42 66.5t-24.5 80t-9.5 96q0 209 159.5 333t440.5 124zM662 -444h-386l291 344h301z" />
    <glyph glyph-name="Tcedilla.ss01" horiz-adv-x="1306" 
d="M1290 1114h-432v-1114h-409v1114h-433v344h1274v-344zM647 -444h-385l291 344h301z" />
    <glyph glyph-name="idotaccent" horiz-adv-x="614" 
d="M504 1169h-393v289h393v-289zM504 0h-393v1040h393v-1040z" />
    <glyph glyph-name="j.acute.loclNLD" horiz-adv-x="614" 
d="M389 1151h-299l164 307h426zM504 1040v-1011q0 -212 -111.5 -316t-298.5 -104q-108 0 -188 22v271q21 -6 51 -6q81 0 117.5 43t36.5 157v944h393z" />
    <glyph glyph-name="ccedilla.ss01" horiz-adv-x="1206" 
d="M614 1073q232 0 380.5 -119.5t168.5 -322.5h-407q-6 72 -42 110.5t-93 38.5q-74 0 -115 -66t-41 -190q0 -128 41 -196t115 -68q60 0 96 44t39 124h407q-17 -214 -165 -337.5t-384 -123.5q-257 0 -410 150.5t-153 406.5q0 252 152.5 400.5t410.5 148.5zM608 -444h-385
l291 344h301z" />
    <glyph glyph-name="scedilla.ss01" horiz-adv-x="1144" 
d="M569 1073q229 0 356.5 -86.5t127.5 -257.5h-373q0 115 -117 115q-96 0 -96 -70q0 -37 38 -56.5t165 -53.5q53 -14 88 -24t83.5 -28t80 -36t66.5 -45t55 -58.5t33.5 -73.5t13.5 -92q0 -156 -132.5 -248t-373.5 -92q-531 0 -531 371h393q0 -66 34 -97.5t106 -31.5
q110 0 110 72q0 43 -46.5 66t-192.5 61q-49 13 -79 21.5t-74.5 24.5t-72 32t-59.5 42t-50 55t-30 70t-12 90q0 148 123.5 239t365.5 91zM575 -444h-385l291 344h301z" />
    <glyph glyph-name="tcedilla.ss01" horiz-adv-x="815" 
d="M690 289q44 0 74 10v-291q-83 -26 -191 -26q-212 0 -308.5 84t-96.5 270v424h-158v280h158v291h393v-291h193v-280h-193v-318q0 -83 29.5 -118t99.5 -35zM358 -100h301l-206 -344h-385z" />
    <glyph glyph-name="a.sups" horiz-adv-x="874" 
d="M430 1427q373 0 373 -309v-225q0 -137 24 -217h-280q-12 37 -12 88h-3q-89 -109 -243 -109q-121 0 -191.5 65t-70.5 165q0 102 72 159.5t239 81.5q89 13 166 17v26q0 88 -76 88t-76 -86h-295q7 111 97.5 183.5t275.5 72.5zM504 973v26q-63 -5 -103 -16q-73 -17 -73 -78
q0 -31 18 -49t53 -18q53 0 76 30q29 34 29 105z" />
    <glyph glyph-name="b.sups" horiz-adv-x="937" 
d="M387 1341h4q68 86 191 86q148 0 234.5 -105t86.5 -282t-89.5 -282t-240.5 -105q-126 0 -196 101h-2v-78h-297v1020h309v-355zM473 1196q-47 0 -74.5 -43t-27.5 -113t27.5 -112.5t74.5 -42.5q49 0 77 42t28 113t-28 113.5t-77 42.5z" />
    <glyph glyph-name="c.sups" horiz-adv-x="888" 
d="M451 1427q173 0 284 -85t123 -232h-319q-4 44 -26.5 67t-55.5 23q-46 0 -70.5 -40t-24.5 -116q0 -163 97 -163q35 0 57 26t25 74h317q-10 -154 -119.5 -241t-287.5 -87q-191 0 -303.5 105t-112.5 286q0 175 113 279t303 104z" />
    <glyph glyph-name="d.sups" horiz-adv-x="937" 
d="M860 1696v-1020h-295v78h-4q-70 -101 -194 -101q-151 0 -240.5 105t-89.5 282q0 178 86 282.5t235 104.5q56 0 106 -22t83 -64h4v355h309zM465 1196q-47 0 -76 -43t-29 -113t29 -112.5t76 -42.5t74.5 42.5t27.5 112.5t-27.5 113t-74.5 43z" />
    <glyph glyph-name="e.sups" horiz-adv-x="894" 
d="M446 846q36 0 59.5 16t26.5 41h316q-25 -109 -134.5 -179.5t-262.5 -70.5q-197 0 -306.5 110.5t-109.5 280.5q0 167 109.5 275t301.5 108q138 0 235 -57t142 -160q37 -84 37 -233h-520q4 -74 32 -102.5t74 -28.5zM446 1241q-42 0 -69 -24.5t-35 -86.5h205
q-4 58 -31.5 84.5t-69.5 26.5z" />
    <glyph glyph-name="egrave.sups" horiz-adv-x="894" 
d="M350 1483l-244 213h361l156 -213h-273zM446 846q36 0 59.5 16t26.5 41h316q-25 -109 -134.5 -179.5t-262.5 -70.5q-197 0 -306.5 110.5t-109.5 280.5q0 167 109.5 275t301.5 108q138 0 235 -57t142 -160q37 -84 37 -233h-520q4 -74 32 -102.5t74 -28.5zM446 1241
q-42 0 -69 -24.5t-35 -86.5h205q-4 58 -31.5 84.5t-69.5 26.5z" />
    <glyph glyph-name="f.sups" horiz-adv-x="583" 
d="M539 1493q-52 0 -78 -21t-27 -67h131v-219h-131v-510h-311v510h-113v219h113v29q0 138 79 208t230 70q82 0 141 -16v-205q-6 2 -34 2z" />
    <glyph glyph-name="g.sups" horiz-adv-x="923" 
d="M346 1425q63 0 120 -31.5t89 -84.5h4v96h287v-678q0 -173 -104.5 -253.5t-307.5 -80.5q-161 0 -256 63.5t-110 180.5h290q1 -32 23 -51t57 -19q109 0 109 146v82h-4q-31 -44 -87.5 -71.5t-117.5 -27.5q-139 0 -221 99.5t-82 265.5q0 167 84 265.5t227 98.5zM455 1200
q-47 0 -75 -37.5t-28 -101.5t28 -101.5t75 -37.5q46 0 73 37.5t27 101.5t-27 101.5t-73 37.5z" />
    <glyph glyph-name="h.sups" horiz-adv-x="927" 
d="M387 1343h4q72 82 193 82q128 0 201 -77.5t73 -223.5v-448h-311v409q0 49 -18 77t-54 28q-45 0 -66.5 -38t-21.5 -122v-354h-309v1020h309v-353z" />
    <glyph glyph-name="i.sups" horiz-adv-x="464" 
d="M387 1481h-309v215h309v-215zM387 676h-309v729h309v-729z" />
    <glyph glyph-name="j.sups" horiz-adv-x="468" 
d="M391 1481h-309v215h309v-215zM391 1405v-692q0 -157 -84.5 -234.5t-226.5 -77.5q-80 0 -146 17v209q20 -4 37 -4q58 0 84.5 31t26.5 114v637h309z" />
    <glyph glyph-name="k.sups" horiz-adv-x="899" 
d="M913 676h-378l-144 309h-4v-309h-309v1022h309v-565h4l129 272h371l-240 -350z" />
    <glyph glyph-name="l.sups" horiz-adv-x="464" 
d="M387 676h-309v1020h309v-1020z" />
    <glyph glyph-name="m.sups" horiz-adv-x="1376" 
d="M1044 1425q122 0 192.5 -78t70.5 -223v-448h-310v409q0 105 -65 105q-84 0 -84 -154v-360h-309v414q0 100 -68 100q-84 0 -84 -154v-360h-309v729h284v-84h5q78 104 217 104q155 0 221 -127q36 59 98 93t141 34z" />
    <glyph glyph-name="n.sups" horiz-adv-x="927" 
d="M584 1425q128 0 201 -77.5t73 -223.5v-448h-311v409q0 49 -18 77t-54 28q-45 0 -66.5 -38t-21.5 -122v-354h-309v729h287v-80h4q80 100 215 100z" />
    <glyph glyph-name="o.sups" horiz-adv-x="921" 
d="M461 1427q194 0 309 -104.5t115 -282.5t-115 -282.5t-309 -104.5t-309 104.5t-115 282.5t115 282.5t309 104.5zM461 1198q-51 0 -78 -40.5t-27 -117.5t27 -118t78 -41t77.5 41t26.5 118t-26.5 117.5t-77.5 40.5z" />
    <glyph glyph-name="p.sups" horiz-adv-x="937" 
d="M573 1427q151 0 240.5 -105t89.5 -282t-86.5 -282t-234.5 -105q-125 0 -191 84h-4v-325h-309v993h297v-80h2q66 102 196 102zM473 1196q-47 0 -74.5 -43t-27.5 -113t27.5 -112.5t74.5 -42.5q49 0 77 42t28 113t-28 113.5t-77 42.5z" />
    <glyph glyph-name="q.sups" horiz-adv-x="937" 
d="M367 1427q128 0 194 -102h4v80h295v-993h-309v325h-4q-31 -41 -81.5 -62.5t-107.5 -21.5q-149 0 -235 104.5t-86 282.5q0 177 89.5 282t240.5 105zM465 1196q-47 0 -76 -43t-29 -113t29 -112.5t76 -42.5t74.5 42.5t27.5 112.5t-27.5 113t-74.5 43z" />
    <glyph glyph-name="r.sups" horiz-adv-x="673" 
d="M592 1415q45 0 76 -8v-262q-36 8 -93 8q-91 0 -139.5 -52.5t-48.5 -152.5v-272h-309v729h289v-96h4q77 106 221 106z" />
    <glyph glyph-name="s.sups" horiz-adv-x="849" 
d="M424 1427q171 0 265.5 -58.5t94.5 -178.5h-292q0 67 -72 67q-60 0 -60 -40q0 -23 27 -36.5t115 -35.5q56 -15 91 -26.5t81.5 -33t72.5 -45t45 -60.5t19 -83q0 -114 -97.5 -179t-279.5 -65q-397 0 -397 260h309q0 -82 90 -82q33 0 51.5 12t18.5 31q0 29 -31.5 43
t-142.5 41q-36 9 -58 15t-54.5 17.5t-53 22.5t-44 29t-36.5 38.5t-22 49t-9 62.5q0 106 91 170.5t278 64.5z" />
    <glyph glyph-name="t.sups" horiz-adv-x="610" 
d="M518 901q34 0 55 6v-225q-65 -20 -147 -20q-160 0 -233.5 59.5t-73.5 191.5v273h-111v219h111v209h309v-209h139v-219h-139v-180q0 -56 20.5 -80.5t69.5 -24.5z" />
    <glyph glyph-name="u.sups" horiz-adv-x="925" 
d="M342 655q-128 0 -200 77.5t-72 223.5v449h309v-410q0 -104 74 -104q86 0 86 160v354h311v-729h-287v80h-4q-81 -101 -217 -101z" />
    <glyph glyph-name="v.sups" horiz-adv-x="847" 
d="M639 676h-430l-221 729h336l47 -227q37 -186 51 -299h4q14 113 51 299l47 227h336z" />
    <glyph glyph-name="w.sups" horiz-adv-x="1347" 
d="M1174 676h-404l-49 248q-26 141 -45 297h-4q-10 -86 -45 -297l-49 -248h-404l-168 729h297l33 -244q26 -183 33 -295h4q23 163 55 303l55 236h381l54 -236q33 -133 57 -303h2q10 117 35 295l32 244h297z" />
    <glyph glyph-name="x.sups" horiz-adv-x="856" 
d="M625 1051l239 -375h-344l-90 211h-4l-90 -211h-344l239 375l-223 354h346l72 -197h4l72 197h346z" />
    <glyph glyph-name="y.sups" horiz-adv-x="851" 
d="M866 1405l-213 -666q-62 -194 -141.5 -267t-230.5 -73q-93 0 -158 15v215q27 -8 67 -8q76 0 76 55q0 17 -8 41.5t-43 111.5l-233 576h337l64 -244q40 -156 63 -301h5q20 143 51 303l49 242h315z" />
    <glyph glyph-name="z.sups" horiz-adv-x="782" 
d="M731 1167l-299 -258v-4h307v-229h-696v235l297 260v5h-287v229h678v-238z" />
    <glyph glyph-name="a.smcp" horiz-adv-x="1312" 
d="M848 178h-385l-51 -178h-416l395 1122h531l393 -1122h-416zM774 440l-22 78q-48 161 -95 348h-4q-27 -117 -92 -348l-22 -78h235z" />
    <glyph glyph-name="aacute.smcp" horiz-adv-x="1312" 
d="M737 1233h-299l164 307h426zM848 178h-385l-51 -178h-416l395 1122h531l393 -1122h-416zM774 440l-22 78q-48 161 -95 348h-4q-27 -117 -92 -348l-22 -78h235z" />
    <glyph glyph-name="abreve.smcp" horiz-adv-x="1312" 
d="M655 1219q-173 0 -268.5 83.5t-101.5 237.5h239q6 -104 131 -104t131 104h240q-6 -154 -102 -237.5t-269 -83.5zM848 178h-385l-51 -178h-416l395 1122h531l393 -1122h-416zM774 440l-22 78q-48 161 -95 348h-4q-27 -117 -92 -348l-22 -78h235z" />
    <glyph glyph-name="acircumflex.smcp" horiz-adv-x="1312" 
d="M545 1233h-305l252 307h331l252 -307h-305l-113 153zM848 178h-385l-51 -178h-416l395 1122h531l393 -1122h-416zM774 440l-22 78q-48 161 -95 348h-4q-27 -117 -92 -348l-22 -78h235z" />
    <glyph glyph-name="adieresis.smcp" horiz-adv-x="1312" 
d="M580 1251h-332v289h332v-289zM1065 1251h-334v289h334v-289zM848 178h-385l-51 -178h-416l395 1122h531l393 -1122h-416zM774 440l-22 78q-48 161 -95 348h-4q-27 -117 -92 -348l-22 -78h235z" />
    <glyph glyph-name="agrave.smcp" horiz-adv-x="1312" 
d="M575 1233l-290 307h426l163 -307h-299zM848 178h-385l-51 -178h-416l395 1122h531l393 -1122h-416zM774 440l-22 78q-48 161 -95 348h-4q-27 -117 -92 -348l-22 -78h235z" />
    <glyph glyph-name="amacron.smcp" horiz-adv-x="1312" 
d="M1059 1272h-805v235h805v-235zM848 178h-385l-51 -178h-416l395 1122h531l393 -1122h-416zM774 440l-22 78q-48 161 -95 348h-4q-27 -117 -92 -348l-22 -78h235z" />
    <glyph glyph-name="aogonek.smcp" horiz-adv-x="1312" 
d="M1255 -201q37 0 66 13v-191q-94 -33 -217 -33q-137 0 -206 51.5t-69 145.5q0 66 46.5 117t138.5 98h-115l-51 178h-385l-51 -178h-416l395 1122h531l393 -1122q-68 -43 -95.5 -76.5t-27.5 -68.5q0 -56 63 -56zM774 440l-22 78q-48 161 -95 348h-4q-27 -117 -92 -348
l-22 -78h235z" />
    <glyph glyph-name="aring.smcp" horiz-adv-x="1312" 
d="M655 1206q-101 0 -173 72.5t-72 173.5t72 173.5t173 72.5q102 0 173 -72t71 -174t-71 -174t-173 -72zM655 1571q-49 0 -83.5 -34.5t-34.5 -84.5t34.5 -84.5t83.5 -34.5t84 34.5t35 84.5t-35 84.5t-84 34.5zM848 178h-385l-51 -178h-416l395 1122h531l393 -1122h-416z
M774 440l-22 78q-48 161 -95 348h-4q-27 -117 -92 -348l-22 -78h235z" />
    <glyph glyph-name="atilde.smcp" horiz-adv-x="1312" 
d="M526 1313q-37 0 -56.5 -20.5t-25.5 -63.5h-202q8 147 76 229t192 82q54 0 106.5 -20.5t95 -41t72.5 -20.5q37 0 56.5 19.5t23.5 62.5h203q-6 -146 -74 -228.5t-192 -82.5q-55 0 -107 21t-94.5 42t-73.5 21zM848 178h-385l-51 -178h-416l395 1122h531l393 -1122h-416z
M774 440l-22 78q-48 161 -95 348h-4q-27 -117 -92 -348l-22 -78h235z" />
    <glyph glyph-name="ae.smcp" horiz-adv-x="1677" 
d="M1595 287v-287h-716l-31 197h-395l-84 -197h-379l497 1122h1104v-286h-506l23 -134h442v-278h-399l23 -137h421zM803 475l-58 359h-22l-152 -359h232z" />
    <glyph glyph-name="b.smcp" horiz-adv-x="1253" 
d="M127 1122h592q219 0 330.5 -78t111.5 -213q0 -98 -47.5 -156t-150.5 -89v-4q111 -23 170 -92t59 -171q0 -148 -122.5 -233.5t-338.5 -85.5h-604v1122zM514 874v-192h111q78 0 114.5 23t36.5 73q0 49 -34.5 72.5t-106.5 23.5h-121zM514 451v-203h117q83 0 117 22t34 76
q0 56 -36 80.5t-119 24.5h-113z" />
    <glyph glyph-name="c.smcp" 
d="M631 1155q252 0 402 -121.5t159 -345.5h-412q-18 156 -149 156q-77 0 -121.5 -72t-44.5 -213q0 -136 45.5 -208t122.5 -72q63 0 102.5 41.5t46.5 119.5h416q-18 -230 -168 -351.5t-397 -121.5q-270 0 -423 157t-153 435q0 279 153 437.5t421 158.5z" />
    <glyph glyph-name="cacute.smcp" 
d="M711 1233h-299l163 307h426zM631 1155q252 0 402 -121.5t159 -345.5h-412q-18 156 -149 156q-77 0 -121.5 -72t-44.5 -213q0 -136 45.5 -208t122.5 -72q63 0 102.5 41.5t46.5 119.5h416q-18 -230 -168 -351.5t-397 -121.5q-270 0 -423 157t-153 435q0 279 153 437.5
t421 158.5z" />
    <glyph glyph-name="ccaron.smcp" 
d="M797 1233h-332l-252 307h305l113 -154l112 154h306zM631 1155q252 0 402 -121.5t159 -345.5h-412q-18 156 -149 156q-77 0 -121.5 -72t-44.5 -213q0 -136 45.5 -208t122.5 -72q63 0 102.5 41.5t46.5 119.5h416q-18 -230 -168 -351.5t-397 -121.5q-270 0 -423 157
t-153 435q0 279 153 437.5t421 158.5z" />
    <glyph glyph-name="ccedilla.smcp" 
d="M782 440h416q-17 -212 -146.5 -332.5t-346.5 -138.5l-56 -90q33 10 66 10q87 0 136.5 -44t49.5 -119q0 -95 -71.5 -155t-202.5 -60q-142 0 -260 71l61 127q96 -47 168 -47q38 0 59 14t21 39q0 27 -20.5 43.5t-59.5 16.5q-31 0 -61 -15l-80 66l88 145
q-229 26 -357.5 180.5t-128.5 407.5q0 279 153 437.5t421 158.5q252 0 402 -121.5t159 -345.5h-412q-18 156 -149 156q-77 0 -121.5 -72t-44.5 -213q0 -136 45.5 -208t122.5 -72q63 0 102.5 41.5t46.5 119.5z" />
    <glyph glyph-name="ccircumflex.smcp" 
d="M743 1233l-112 153l-113 -153h-305l252 307h332l252 -307h-306zM631 1155q252 0 402 -121.5t159 -345.5h-412q-18 156 -149 156q-77 0 -121.5 -72t-44.5 -213q0 -136 45.5 -208t122.5 -72q63 0 102.5 41.5t46.5 119.5h416q-18 -230 -168 -351.5t-397 -121.5
q-270 0 -423 157t-153 435q0 279 153 437.5t421 158.5z" />
    <glyph glyph-name="cdotaccent.smcp" 
d="M827 1251h-393v289h393v-289zM631 1155q252 0 402 -121.5t159 -345.5h-412q-18 156 -149 156q-77 0 -121.5 -72t-44.5 -213q0 -136 45.5 -208t122.5 -72q63 0 102.5 41.5t46.5 119.5h416q-18 -230 -168 -351.5t-397 -121.5q-270 0 -423 157t-153 435q0 279 153 437.5
t421 158.5z" />
    <glyph glyph-name="d.smcp" horiz-adv-x="1331" 
d="M127 1122h494q314 0 483.5 -145.5t169.5 -415.5q0 -269 -170 -415t-483 -146h-494v1122zM526 823v-524h84q123 0 189.5 68.5t66.5 193.5t-66.5 193.5t-189.5 68.5h-84z" />
    <glyph glyph-name="eth.smcp" horiz-adv-x="1343" 
d="M139 1122h494q314 0 483.5 -145.5t169.5 -415.5q0 -269 -170 -415t-483 -146h-494v463h-114v205h114v454zM524 287h99q129 0 199.5 71.5t70.5 202.5t-70.5 203t-199.5 72h-99v-168h193v-205h-193v-176z" />
    <glyph glyph-name="dcaron.smcp" horiz-adv-x="1331" 
d="M811 1233h-332l-252 307h305l113 -154l113 154h305zM127 1122h494q314 0 483.5 -145.5t169.5 -415.5q0 -269 -170 -415t-483 -146h-494v1122zM526 823v-524h84q123 0 189.5 68.5t66.5 193.5t-66.5 193.5t-189.5 68.5h-84z" />
    <glyph glyph-name="dcroat.smcp" horiz-adv-x="1343" 
d="M139 1122h494q314 0 483.5 -145.5t169.5 -415.5q0 -269 -170 -415t-483 -146h-494v463h-114v205h114v454zM524 287h99q129 0 199.5 71.5t70.5 202.5t-70.5 203t-199.5 72h-99v-168h193v-205h-193v-176z" />
    <glyph glyph-name="e.smcp" horiz-adv-x="1093" 
d="M1006 836h-519v-134h478v-278h-478v-137h525v-287h-883v1122h877v-286z" />
    <glyph glyph-name="eacute.smcp" horiz-adv-x="1093" 
d="M649 1233h-299l164 307h426zM1006 836h-519v-134h478v-278h-478v-137h525v-287h-883v1122h877v-286z" />
    <glyph glyph-name="ebreve.smcp" horiz-adv-x="1093" 
d="M698 1540h240q-6 -154 -102 -237.5t-269 -83.5t-268.5 83.5t-101.5 237.5h239q6 -104 131 -104t131 104zM1006 836h-519v-134h478v-278h-478v-137h525v-287h-883v1122h877v-286z" />
    <glyph glyph-name="ecaron.smcp" horiz-adv-x="1093" 
d="M735 1233h-332l-251 307h305l112 -154l113 154h305zM1006 836h-519v-134h478v-278h-478v-137h525v-287h-883v1122h877v-286z" />
    <glyph glyph-name="ecircumflex.smcp" horiz-adv-x="1093" 
d="M682 1233l-113 153l-112 -153h-305l251 307h332l252 -307h-305zM1006 836h-519v-134h478v-278h-478v-137h525v-287h-883v1122h877v-286z" />
    <glyph glyph-name="edieresis.smcp" horiz-adv-x="1093" 
d="M492 1251h-332v289h332v-289zM977 1251h-334v289h334v-289zM1006 836h-519v-134h478v-278h-478v-137h525v-287h-883v1122h877v-286z" />
    <glyph glyph-name="edotaccent.smcp" horiz-adv-x="1093" 
d="M764 1251h-393v289h393v-289zM1006 836h-519v-134h478v-278h-478v-137h525v-287h-883v1122h877v-286z" />
    <glyph glyph-name="egrave.smcp" horiz-adv-x="1093" 
d="M623 1540l163 -307h-299l-290 307h426zM1006 836h-519v-134h478v-278h-478v-137h525v-287h-883v1122h877v-286z" />
    <glyph glyph-name="emacron.smcp" horiz-adv-x="1093" 
d="M971 1272h-805v235h805v-235zM1006 836h-519v-134h478v-278h-478v-137h525v-287h-883v1122h877v-286z" />
    <glyph glyph-name="eogonek.smcp" horiz-adv-x="1093" 
d="M950 -201q37 0 66 13v-191q-94 -33 -217 -33q-137 0 -206 51.5t-69 145.5q0 66 46.5 117t138.5 98h-580v1122h877v-286h-519v-134h478v-278h-478v-137h525v-287h-2q-68 -43 -95.5 -76.5t-27.5 -68.5q0 -56 63 -56z" />
    <glyph glyph-name="f.smcp" horiz-adv-x="1024" 
d="M987 827h-502v-176h469v-293h-469v-358h-358v1122h860v-295z" />
    <glyph glyph-name="fi.smcp" horiz-adv-x="1679" 
d="M987 827h-502v-176h469v-293h-469v-358h-358v1122h860v-295zM1550 0h-397v1122h397v-1122z" />
    <glyph glyph-name="fl.smcp" horiz-adv-x="2070" 
d="M987 827h-502v-176h469v-293h-469v-358h-358v1122h860v-295zM1550 326h504v-326h-901v1122h397v-796z" />
    <glyph glyph-name="g.smcp" horiz-adv-x="1329" 
d="M670 1155q236 0 386.5 -111t164.5 -294h-412q-9 55 -45.5 85.5t-97.5 30.5q-94 0 -147.5 -78t-53.5 -231q0 -154 55 -234.5t154 -80.5q77 0 124 40.5t56 110.5h-203l-2 258h570v-651h-334v90h-4q-107 -119 -303 -119q-241 0 -381 157t-140 429q0 277 164.5 437.5
t448.5 160.5z" />
    <glyph glyph-name="gbreve.smcp" horiz-adv-x="1329" 
d="M791 1540h239q-6 -154 -102 -237.5t-269 -83.5t-268.5 83.5t-101.5 237.5h239q6 -104 131 -104q126 0 132 104zM670 1155q236 0 386.5 -111t164.5 -294h-412q-9 55 -45.5 85.5t-97.5 30.5q-94 0 -147.5 -78t-53.5 -231q0 -154 55 -234.5t154 -80.5q77 0 124 40.5
t56 110.5h-203l-2 258h570v-651h-334v90h-4q-107 -119 -303 -119q-241 0 -381 157t-140 429q0 277 164.5 437.5t448.5 160.5z" />
    <glyph glyph-name="gcircumflex.smcp" horiz-adv-x="1329" 
d="M774 1233l-112 153l-113 -153h-305l252 307h331l252 -307h-305zM670 1155q236 0 386.5 -111t164.5 -294h-412q-9 55 -45.5 85.5t-97.5 30.5q-94 0 -147.5 -78t-53.5 -231q0 -154 55 -234.5t154 -80.5q77 0 124 40.5t56 110.5h-203l-2 258h570v-651h-334v90h-4
q-107 -119 -303 -119q-241 0 -381 157t-140 429q0 277 164.5 437.5t448.5 160.5z" />
    <glyph glyph-name="gcommaaccent.smcp" horiz-adv-x="1329" 
d="M670 1155q236 0 386.5 -111t164.5 -294h-412q-9 55 -45.5 85.5t-97.5 30.5q-94 0 -147.5 -78t-53.5 -231q0 -154 55 -234.5t154 -80.5q77 0 124 40.5t56 110.5h-203l-2 258h570v-651h-334v90h-4q-107 -119 -303 -119q-241 0 -381 157t-140 429q0 277 164.5 437.5
t448.5 160.5zM799 -348l-150 -225h-143l96 225h-96v248h293v-248z" />
    <glyph glyph-name="gdotaccent.smcp" horiz-adv-x="1329" 
d="M856 1251h-393v289h393v-289zM670 1155q236 0 386.5 -111t164.5 -294h-412q-9 55 -45.5 85.5t-97.5 30.5q-94 0 -147.5 -78t-53.5 -231q0 -154 55 -234.5t154 -80.5q77 0 124 40.5t56 110.5h-203l-2 258h570v-651h-334v90h-4q-107 -119 -303 -119q-241 0 -381 157
t-140 429q0 277 164.5 437.5t448.5 160.5z" />
    <glyph glyph-name="h.smcp" horiz-adv-x="1400" 
d="M1272 0h-398v412h-348v-412h-397v1122h397v-383h348v383h398v-1122z" />
    <glyph glyph-name="hbar.smcp" horiz-adv-x="1400" 
d="M1360 877h-88v-877h-398v412h-348v-412h-397v877h-88v151h88v94h397v-94h348v94h398v-94h88v-151zM874 877h-348v-138h348v138z" />
    <glyph glyph-name="hcircumflex.smcp" horiz-adv-x="1400" 
d="M815 1233l-113 153l-112 -153h-305l252 307h331l252 -307h-305zM1272 0h-398v412h-348v-412h-397v1122h397v-383h348v383h398v-1122z" />
    <glyph glyph-name="i.smcp" horiz-adv-x="655" 
d="M526 0h-397v1122h397v-1122z" />
    <glyph glyph-name="iacute.smcp" horiz-adv-x="655" 
d="M410 1233h-299l163 307h426zM526 0h-397v1122h397v-1122z" />
    <glyph glyph-name="ibreve.smcp" horiz-adv-x="655" 
d="M434 1540h232q-5 -155 -91.5 -238t-246.5 -83t-246.5 83t-91.5 238h231q3 -108 107 -108q52 0 77.5 26t28.5 82zM526 0h-397v1122h397v-1122z" />
    <glyph glyph-name="icircumflex.smcp" horiz-adv-x="655" 
d="M715 1239h-289l-98 131l-97 -131h-290l231 301h311zM526 0h-397v1122h397v-1122z" />
    <glyph glyph-name="idieresis.smcp" horiz-adv-x="655" 
d="M281 1251h-291v289h291v-289zM668 1251h-293v289h293v-289zM526 0h-397v1122h397v-1122z" />
    <glyph glyph-name="idotaccent.smcp" horiz-adv-x="655" 
d="M524 1251h-393v289h393v-289zM526 0h-397v1122h397v-1122z" />
    <glyph glyph-name="igrave.smcp" horiz-adv-x="655" 
d="M381 1540l164 -307h-299l-291 307h426zM526 0h-397v1122h397v-1122z" />
    <glyph glyph-name="ij.smcp" horiz-adv-x="1443" 
d="M526 0h-397v1122h397v-1122zM1325 1122v-700q0 -226 -114.5 -332t-354.5 -106q-84 0 -172 18v313q30 -6 72 -6q97 0 134.5 49.5t37.5 176.5v587h397z" />
    <glyph glyph-name="imacron.smcp" horiz-adv-x="655" 
d="M647 1270h-641v237h641v-237zM526 0h-397v1122h397v-1122z" />
    <glyph glyph-name="iogonek.smcp" horiz-adv-x="655" 
d="M467 -201q36 0 65 13v-191q-94 -33 -217 -33q-137 0 -205.5 51.5t-68.5 145.5q0 66 46 117.5t138 97.5h-96v1122h397v-1122q-68 -43 -95.5 -76.5t-27.5 -68.5q0 -56 64 -56z" />
    <glyph glyph-name="itilde.smcp" horiz-adv-x="655" 
d="M516 1540h178q-6 -148 -69 -231.5t-176 -83.5q-48 0 -93 22t-82 44t-67 22q-61 0 -70 -88h-176q8 150 69.5 232.5t176.5 82.5q48 0 93.5 -21.5t82.5 -43t66 -21.5q61 0 67 86zM526 0h-397v1122h397v-1122z" />
    <glyph glyph-name="j.smcp" horiz-adv-x="788" 
d="M670 1122v-700q0 -226 -114.5 -332t-354.5 -106q-84 0 -172 18v313q30 -6 71 -6q97 0 134.5 49.5t37.5 176.5v587h398z" />
    <glyph glyph-name="jcircumflex.smcp" horiz-adv-x="788" 
d="M844 1239h-289l-98 131l-97 -131h-290l231 301h311zM670 1122v-700q0 -226 -114.5 -332t-354.5 -106q-84 0 -172 18v313q30 -6 71 -6q97 0 134.5 49.5t37.5 176.5v587h398z" />
    <glyph glyph-name="k.smcp" horiz-adv-x="1318" 
d="M895 594l418 -594h-490l-291 492h-6v-492h-397v1122h397v-463h6l283 463h475z" />
    <glyph glyph-name="kcommaaccent.smcp" horiz-adv-x="1318" 
d="M895 594l418 -594h-490l-291 492h-6v-492h-397v1122h397v-463h6l283 463h475zM813 -348l-149 -225h-144l96 225h-96v248h293v-248z" />
    <glyph glyph-name="l.smcp" horiz-adv-x="1046" 
d="M526 326h504v-326h-901v1122h397v-796z" />
    <glyph glyph-name="lacute.smcp" horiz-adv-x="1046" 
d="M481 1233h-299l164 307h426zM526 326h504v-326h-901v1122h397v-796z" />
    <glyph glyph-name="lcaron.smcp" horiz-adv-x="1046" 
d="M526 326h504v-326h-901v1122h397v-796zM809 758h-221l43 364h309z" />
    <glyph glyph-name="lcommaaccent.smcp" horiz-adv-x="1046" 
d="M526 326h504v-326h-901v1122h397v-796zM690 -348l-149 -225h-144l97 225h-97v248h293v-248z" />
    </font>
</defs>
</svg>
