<?xml version="1.0" standalone="no"?>
<!DOCTYPE svg PUBLIC "-//W3C//DTD SVG 1.1//EN" "http://www.w3.org/Graphics/SVG/1.1/DTD/svg11.dtd" >
<svg xmlns="http://www.w3.org/2000/svg" xmlns:xlink="http://www.w3.org/1999/xlink" version="1.1">
<metadata>
Created by FontForge 20170731 at Mon Nov  2 20:40:55 2020
 By Aleksey,,,
Copyright (c) 2015 Monotype Imaging Inc.  All rights reserved.
</metadata>
<defs>
<font id="NeueHaasUnicaW1G-Heavy" horiz-adv-x="1245" >
  <font-face 
    font-family="Neue Haas Unica W1G Heavy"
    font-weight="800"
    font-stretch="normal"
    units-per-em="2048"
    panose-1="2 11 9 4 3 2 6 2 2 3"
    ascent="1565"
    descent="-483"
    x-height="1040"
    cap-height="1458"
    bbox="-1024 -596 2490 2320"
    underline-thickness="102"
    underline-position="-307"
    unicode-range="U+0020-FEFF"
  />
<missing-glyph horiz-adv-x="1327" 
d="M309 1591h709q129 0 204.5 -75.5t75.5 -204.5v-1164q0 -129 -75.5 -204.5t-204.5 -75.5h-709q-129 0 -204.5 75.5t-75.5 204.5v1164q0 129 75.5 204.5t204.5 75.5zM1018 1450h-709q-65 0 -102 -37t-37 -102v-1164q0 -65 37 -102t102 -37h709q64 0 101.5 37t37.5 102v1164
q0 65 -37.5 102t-101.5 37zM666 1325q177 0 276.5 -82.5t99.5 -228.5q0 -84 -29.5 -143t-113.5 -136q-81 -76 -107 -129t-26 -145h-227q-2 27 -2 78q0 101 24 158t105 139q60 60 78 94t18 80q0 45 -25.5 71.5t-70.5 26.5q-117 0 -117 -160h-277q1 183 104.5 280t289.5 97z
M793 133h-279v244h279v-244z" />
    <glyph glyph-name="f_f" unicode="ff" horiz-adv-x="1413" 
d="M1346 1229q-77 0 -114.5 -35.5t-37.5 -116.5v-37h192v-247h-192v-793h-336v793h-338v-793h-336v793h-166v247h166v76q0 180 96 270.5t279 90.5q84 0 162 -19v-233q-20 4 -49 4q-77 0 -114.5 -35.5t-37.5 -116.5v-37h338v76q0 180 96 270.5t279 90.5q84 0 162 -19v-233
q-20 4 -49 4z" />
    <glyph glyph-name="f_f_i" unicode="ffi" horiz-adv-x="2002" 
d="M858 1040v76q0 180 96 270.5t279 90.5q84 0 162 -19v-233q-20 4 -49 4q-77 0 -114.5 -35.5t-37.5 -116.5v-37h192v-247h-192v-793h-336v793h-338v-793h-336v793h-166v247h166v76q0 180 96 270.5t279 90.5q84 0 162 -19v-233q-20 4 -49 4q-77 0 -114.5 -35.5t-37.5 -116.5
v-37h338zM1878 1458v-268h-340v268h340zM1538 1040h340v-1040h-340v1040z" />
    <glyph glyph-name="f_f_l" unicode="ffl" horiz-adv-x="2002" 
d="M858 1040v76q0 180 96 270.5t279 90.5q84 0 162 -19v-233q-20 4 -49 4q-77 0 -114.5 -35.5t-37.5 -116.5v-37h192v-247h-192v-793h-336v793h-338v-793h-336v793h-166v247h166v76q0 180 96 270.5t279 90.5q84 0 162 -19v-233q-20 4 -49 4q-77 0 -114.5 -35.5t-37.5 -116.5
v-37h338zM1878 1458v-1458h-340v1458h340z" />
    <glyph glyph-name="f_i" unicode="fi" horiz-adv-x="1329" 
d="M184 1040v76q0 180 96 270.5t279 90.5q84 0 162 -19v-233q-20 4 -49 4q-77 0 -114.5 -35.5t-37.5 -116.5v-37h193v-247h-193v-793h-336v793h-166v247h166zM1204 1458v-268h-340v268h340zM864 1040h340v-1040h-340v1040z" />
    <glyph glyph-name="f_l" unicode="fl" horiz-adv-x="1329" 
d="M184 1040v76q0 180 96 270.5t279 90.5q84 0 162 -19v-233q-20 4 -49 4q-77 0 -114.5 -35.5t-37.5 -116.5v-37h193v-247h-193v-793h-336v793h-166v247h166zM1204 1458v-1458h-340v1458h340z" />
    <glyph glyph-name=".notdef" horiz-adv-x="1327" 
d="M309 1591h709q129 0 204.5 -75.5t75.5 -204.5v-1164q0 -129 -75.5 -204.5t-204.5 -75.5h-709q-129 0 -204.5 75.5t-75.5 204.5v1164q0 129 75.5 204.5t204.5 75.5zM1018 1450h-709q-65 0 -102 -37t-37 -102v-1164q0 -65 37 -102t102 -37h709q64 0 101.5 37t37.5 102v1164
q0 65 -37.5 102t-101.5 37zM666 1325q177 0 276.5 -82.5t99.5 -228.5q0 -84 -29.5 -143t-113.5 -136q-81 -76 -107 -129t-26 -145h-227q-2 27 -2 78q0 101 24 158t105 139q60 60 78 94t18 80q0 45 -25.5 71.5t-70.5 26.5q-117 0 -117 -160h-277q1 183 104.5 280t289.5 97z
M793 133h-279v244h279v-244z" />
    <glyph glyph-name=".null" horiz-adv-x="0" 
 />
    <glyph glyph-name="nonmarkingreturn" horiz-adv-x="682" 
 />
    <glyph glyph-name="space" unicode=" " horiz-adv-x="471" 
 />
    <glyph glyph-name="exclam" unicode="!" horiz-adv-x="708" 
d="M492 430h-275l-63 1028h399zM535 0h-361v301h361v-301z" />
    <glyph glyph-name="quotedbl" unicode="&#x22;" horiz-adv-x="948" 
d="M391 885h-248l-37 573h324zM805 885h-248l-37 573h322z" />
    <glyph glyph-name="numbersign" unicode="#" horiz-adv-x="1423" 
d="M1116 813l-39 -244h199l-37 -235h-199l-53 -334h-276l53 334h-217l-53 -334h-277l53 334h-198l37 235h198l39 244h-199l37 236h199l53 331h277l-54 -331h218l53 331h276l-53 -331h199l-37 -236h-199zM840 813h-217l-39 -244h217z" />
    <glyph glyph-name="dollar" unicode="$" horiz-adv-x="1286" 
d="M1208 399q0 -176 -119 -287.5t-329 -136.5v-178h-242v176q-212 28 -327 150t-115 326h342q0 -224 231 -224q110 0 164.5 41t54.5 115q0 26 -7 46t-27 37t-38.5 28.5t-58 25.5t-68.5 22.5t-87 24.5q-48 13 -77.5 22t-75 24t-75 28.5t-68 34.5t-63 42t-50.5 50.5t-41 62
t-24.5 74t-9.5 88.5q0 168 111.5 278t308.5 136v160h242v-160q199 -25 305 -138.5t106 -310.5h-333q0 207 -207 207q-92 0 -144.5 -37.5t-52.5 -105.5q0 -26 6.5 -46.5t24.5 -36.5t36.5 -27.5t55.5 -23.5t66.5 -20t85.5 -22q65 -16 105.5 -27.5t99 -33t95.5 -42.5t78.5 -55
t65 -73.5t39.5 -94t16 -119.5z" />
    <glyph glyph-name="percent" unicode="%" horiz-adv-x="1910" 
d="M678 -61h-205l760 1503h205zM446 1419q170 0 263.5 -109.5t93.5 -308.5q0 -200 -93 -308.5t-264 -108.5q-170 0 -262 108t-92 309q0 200 92 309t262 109zM446 1235q-108 0 -108 -234q0 -235 108 -235q109 0 109 235q0 234 -109 234zM1462 797q171 0 264 -108.5t93 -309.5
q0 -199 -93.5 -308.5t-263.5 -109.5t-262 109t-92 309q0 201 92 309.5t262 108.5zM1462 614q-108 0 -108 -235q0 -234 108 -234q109 0 109 234q0 235 -109 235z" />
    <glyph glyph-name="ampersand" unicode="&#x26;" horiz-adv-x="1581" 
d="M1165 0l-104 104q-79 -66 -190.5 -101.5t-237.5 -35.5q-264 0 -407.5 115.5t-143.5 314.5q0 275 293 416q-84 85 -117 154.5t-33 162.5q0 162 121 261.5t316 99.5q198 0 316 -93.5t118 -248.5q0 -231 -258 -385l225 -225q49 94 49 264h328q-3 -289 -154 -490l313 -313
h-434zM662 1243q-56 0 -88.5 -33t-32.5 -90q0 -48 23 -89t85 -103q133 98 133 198q0 52 -33.5 84.5t-86.5 32.5zM662 229q117 0 208 68l-311 313q-68 -42 -97.5 -88.5t-29.5 -107.5q0 -81 62 -133t168 -52z" />
    <glyph glyph-name="quotesingle" unicode="'" horiz-adv-x="536" 
d="M391 885h-248l-37 573h324z" />
    <glyph glyph-name="parenleft" unicode="(" horiz-adv-x="714" 
d="M379 1518h274q-113 -237 -163 -453.5t-50 -456.5q0 -239 50 -454.5t163 -454.5h-274q-154 219 -224.5 436.5t-70.5 472.5t70.5 474t224.5 436z" />
    <glyph glyph-name="parenright" unicode=")" horiz-adv-x="714" 
d="M61 1518h275q154 -217 224.5 -436t70.5 -474t-70.5 -472.5t-224.5 -436.5h-275q113 239 163 454.5t50 454.5q0 240 -50 456.5t-163 453.5z" />
    <glyph glyph-name="asterisk" unicode="*" horiz-adv-x="917" 
d="M537 1174l258 131l75 -236l-284 -45l202 -203l-198 -145l-131 256l-129 -256l-201 145l203 203l-285 45l76 236l258 -131l-47 284h250z" />
    <glyph glyph-name="plus" unicode="+" horiz-adv-x="1159" 
d="M713 780h325v-264h-325v-326h-267v326h-325v264h325v328h267v-328z" />
    <glyph glyph-name="comma" unicode="," horiz-adv-x="561" 
d="M463 0l-187 -365h-200l141 365h-117v377h363v-377z" />
    <glyph glyph-name="hyphen" unicode="-" horiz-adv-x="690" 
d="M629 473h-568v250h568v-250z" />
    <glyph glyph-name="period" unicode="." horiz-adv-x="561" 
d="M461 0h-361v377h361v-377z" />
    <glyph glyph-name="slash" unicode="/" horiz-adv-x="1030" 
d="M317 -182h-256l611 1708h254z" />
    <glyph glyph-name="zero" unicode="0" horiz-adv-x="1275" 
d="M637 1413q278 0 427.5 -188.5t149.5 -534.5q0 -348 -149.5 -535.5t-427.5 -187.5t-428 188t-150 535q0 346 150 534.5t428 188.5zM637 1139q-107 0 -163 -116.5t-56 -332.5q0 -218 56 -335t163 -117t164 117.5t57 334.5q0 216 -57 332.5t-164 116.5z" />
    <glyph glyph-name="one" unicode="1" horiz-adv-x="1275" 
d="M879 0h-351v891h-333v250q177 0 263 56.5t105 182.5h316v-1380z" />
    <glyph glyph-name="two" unicode="2" horiz-adv-x="1275" 
d="M635 1413q236 0 376 -112.5t140 -296.5q0 -71 -18 -131.5t-47 -106t-77.5 -87.5t-97.5 -73t-118 -67q-123 -64 -186.5 -108t-85.5 -76t-25 -74h690v-281h-1102q-2 18 -2 63q0 147 33 250t120.5 196t243.5 179q59 33 91.5 52t75 46.5t64 48.5t43 48t30 55t8.5 61
q0 65 -41.5 103.5t-114.5 38.5q-184 0 -184 -205h-351q3 230 143.5 353.5t391.5 123.5z" />
    <glyph glyph-name="three" unicode="3" horiz-adv-x="1275" 
d="M635 1413q241 0 380.5 -105.5t139.5 -285.5q0 -114 -57.5 -187.5t-182.5 -117.5v-4q135 -44 198 -123.5t63 -208.5q0 -190 -146.5 -302t-390.5 -112q-275 0 -421 126.5t-146 365.5h354q0 -219 213 -219q84 0 134 41.5t50 111.5q0 168 -248 168h-40v262h45q106 0 167.5 45
t61.5 119q0 71 -48.5 112.5t-131.5 41.5q-93 0 -143 -52.5t-50 -154.5h-346q0 226 143.5 352.5t401.5 126.5z" />
    <glyph glyph-name="four" unicode="4" horiz-adv-x="1275" 
d="M1237 287h-213v-287h-344v287h-655v278l542 815h457v-829h213v-264zM332 551h360v154q0 215 15 430h-5q-113 -203 -239 -392z" />
    <glyph glyph-name="five" unicode="5" horiz-adv-x="1275" 
d="M1104 1100h-635l-29 -279h4q109 103 275 103q205 0 334 -127t129 -330q0 -228 -153 -364t-406 -136q-241 0 -385 113.5t-144 310.5h352q1 -73 53 -115.5t128 -42.5q95 0 146.5 56t51.5 162q0 104 -52 158.5t-142 54.5q-71 0 -117.5 -36.5t-60.5 -97.5l-342 23l77 827h916
v-280z" />
    <glyph glyph-name="six" unicode="6" horiz-adv-x="1275" 
d="M682 1413q217 0 349 -111.5t145 -308.5h-353q-9 75 -49.5 115.5t-109.5 40.5q-104 0 -169 -94t-71 -287h4q121 133 313 133q201 0 326 -124t125 -322q0 -217 -150 -352.5t-389 -135.5q-270 0 -416.5 174.5t-146.5 513.5q0 360 156.5 559t435.5 199zM655 653
q-83 0 -133.5 -59t-50.5 -156q0 -91 49.5 -146.5t132.5 -55.5q85 0 136 56.5t51 149.5q0 96 -50.5 153.5t-134.5 57.5z" />
    <glyph glyph-name="seven" unicode="7" horiz-adv-x="1275" 
d="M1163 1380v-284q-154 -215 -268 -501.5t-170 -594.5h-377q69 329 198.5 618.5t276.5 471.5h-735v290h1075z" />
    <glyph glyph-name="eight" unicode="8" horiz-adv-x="1275" 
d="M637 1413q233 0 377.5 -105.5t144.5 -279.5q0 -113 -67.5 -195.5t-184.5 -113.5v-4q130 -31 206.5 -122t76.5 -218q0 -191 -148.5 -299.5t-404.5 -108.5q-255 0 -403 108.5t-148 299.5q0 127 76.5 218t206.5 122v4q-117 31 -184.5 113.5t-67.5 195.5q0 174 143.5 279.5
t376.5 105.5zM637 1149q-86 0 -137 -41.5t-51 -112.5q0 -74 50 -116.5t138 -42.5t139 43t51 116q0 71 -51 112.5t-139 41.5zM637 578q-92 0 -146.5 -47t-54.5 -125t54.5 -124t146.5 -46q94 0 148.5 46t54.5 124t-55 125t-148 47z" />
    <glyph glyph-name="nine" unicode="9" horiz-adv-x="1275" 
d="M573 -33q-218 0 -349.5 111.5t-143.5 310.5h352q9 -76 50 -116t110 -40q104 0 167.5 92.5t69.5 286.5h-4q-118 -133 -311 -133q-201 0 -327 125t-126 322q0 218 150.5 352.5t390.5 134.5q270 0 416.5 -174.5t146.5 -513.5q0 -360 -156.5 -559t-435.5 -199zM600 727
q83 0 132.5 59t49.5 156q0 93 -49 148t-133 55q-83 0 -133.5 -56.5t-50.5 -148.5q0 -96 50 -154.5t134 -58.5z" />
    <glyph glyph-name="colon" unicode=":" horiz-adv-x="561" 
d="M461 664h-361v376h361v-376zM461 0h-361v377h361v-377z" />
    <glyph glyph-name="semicolon" unicode=";" horiz-adv-x="561" 
d="M461 664h-361v376h361v-376zM463 0l-187 -365h-200l141 365h-117v377h363v-377z" />
    <glyph glyph-name="less" unicode="&#x3c;" horiz-adv-x="1159" 
d="M1038 883l-604 -232v-4l604 -231v-283l-917 361v311l917 360v-282z" />
    <glyph glyph-name="equal" unicode="=" horiz-adv-x="1159" 
d="M1038 729h-917v254h917v-254zM1038 313h-917v254h917v-254z" />
    <glyph glyph-name="greater" unicode="&#x3e;" horiz-adv-x="1159" 
d="M1038 805v-311l-917 -361v283l604 231v4l-604 232v282z" />
    <glyph glyph-name="question" unicode="?" horiz-adv-x="1167" 
d="M588 1489q238 0 373 -103t135 -284q0 -105 -42 -178t-161 -172q-77 -65 -114 -111.5t-52.5 -99.5t-15.5 -135h-287q-4 31 -4 90q0 132 35 206t151 177q84 76 108.5 117.5t24.5 99.5q0 59 -40 93t-111 34q-175 0 -178 -201h-353q3 228 141.5 347.5t389.5 119.5zM745 0
h-360v301h360v-301z" />
    <glyph glyph-name="at" unicode="@" horiz-adv-x="1781" 
d="M915 1450q240 0 422 -96t280.5 -272t98.5 -408q0 -133 -35 -238t-95 -169t-136 -97t-162 -33q-106 0 -173 42.5t-89 123.5h-4q-87 -166 -264 -166q-146 0 -228.5 105t-85.5 301q3 231 115 374.5t287 143.5q152 0 209 -131h4q1 7 9 48.5t13 61.5h252q-36 -169 -60 -335.5
t-24 -247.5q0 -60 21 -86.5t63 -26.5q81 0 137 84.5t56 245.5q0 266 -166.5 427t-444.5 161q-157 0 -283.5 -53.5t-208.5 -147.5t-125.5 -219.5t-43.5 -272.5q0 -294 170.5 -461t460.5 -167q267 0 444 106l86 -168q-221 -127 -530 -127q-377 0 -599.5 218.5t-222.5 598.5
q0 144 37 276t110 242t174.5 191t238 126.5t292.5 45.5zM891 827q-74 0 -123 -72t-49 -202q0 -87 32 -133.5t89 -46.5q71 0 119.5 75.5t48.5 210.5q0 80 -30 124t-87 44z" />
    <glyph glyph-name="A" unicode="A" horiz-adv-x="1464" 
d="M997 309h-528l-94 -309h-373l498 1458h465l497 -1458h-372zM911 600l-30 98q-92 303 -148 531h-4q-63 -259 -143 -531l-29 -98h354z" />
    <glyph glyph-name="B" unicode="B" horiz-adv-x="1359" 
d="M156 1458h569q263 0 396.5 -100.5t133.5 -274.5q0 -127 -60.5 -208t-186.5 -125v-5q284 -64 284 -339q0 -188 -141 -297t-391 -109h-604v1458zM504 1184v-316h184q118 0 171.5 39t53.5 121q0 81 -51 118.5t-162 37.5h-196zM504 608v-332h192q123 0 177.5 39t54.5 123
q0 89 -56 129.5t-182 40.5h-186z" />
    <glyph glyph-name="C" unicode="C" horiz-adv-x="1464" 
d="M752 1491q282 0 452.5 -150.5t181.5 -406.5h-366q-12 119 -82.5 184.5t-185.5 65.5q-145 0 -228.5 -121.5t-83.5 -333.5q0 -211 83 -333t225 -122q116 0 187.5 67.5t86.5 190.5h371q-22 -269 -193 -417t-452 -148q-315 0 -496.5 203.5t-181.5 558.5q0 354 182.5 558
t499.5 204z" />
    <glyph glyph-name="D" unicode="D" horiz-adv-x="1519" 
d="M156 1458h516q375 0 576.5 -189t201.5 -540t-201.5 -540t-576.5 -189h-516v1458zM508 1157v-856h156q207 0 312 108t105 320t-105 320t-312 108h-156z" />
    <glyph glyph-name="E" unicode="E" horiz-adv-x="1298" 
d="M1186 1161h-676v-276h631v-293h-631v-295h692v-297h-1046v1458h1030v-297z" />
    <glyph glyph-name="F" unicode="F" horiz-adv-x="1210" 
d="M1159 1155h-649v-336h602v-301h-602v-518h-354v1458h1003v-303z" />
    <glyph glyph-name="G" unicode="G" horiz-adv-x="1538" 
d="M776 1491q273 0 441 -134.5t188 -363.5h-381q-15 96 -79 148.5t-169 52.5q-156 0 -246 -126t-90 -345q0 -224 89.5 -352.5t244.5 -128.5q137 0 213.5 79t79.5 224h-313v274h645v-819h-303v147h-4q-63 -85 -167.5 -130.5t-238.5 -45.5q-285 0 -450.5 201.5t-165.5 550.5
q0 357 189.5 562.5t516.5 205.5z" />
    <glyph glyph-name="H" unicode="H" horiz-adv-x="1558" 
d="M1403 0h-354v604h-539v-604h-354v1458h354v-553h539v553h354v-1458z" />
    <glyph glyph-name="I" unicode="I" horiz-adv-x="665" 
d="M510 0h-354v1458h354v-1458z" />
    <glyph glyph-name="J" unicode="J" horiz-adv-x="839" 
d="M694 1458v-964q0 -263 -121.5 -386.5t-382.5 -123.5q-94 0 -159 18v295q48 -10 92 -10q80 0 125.5 24t68.5 86t23 174v887h354z" />
    <glyph glyph-name="K" unicode="K" horiz-adv-x="1413" 
d="M836 768l569 -768h-447l-444 672h-4v-672h-354v1458h354v-629h4l428 629h424z" />
    <glyph glyph-name="L" unicode="L" horiz-adv-x="1187" 
d="M510 301h659v-301h-1013v1458h354v-1157z" />
    <glyph glyph-name="M" unicode="M" horiz-adv-x="2074" 
d="M1919 0h-334v713q0 271 12 538h-4q-49 -211 -139 -530l-207 -721h-420l-206 721q-96 340 -140 530h-4q12 -267 12 -538v-713h-333v1458h567l186 -647q75 -272 127 -537h4q47 254 125 537l189 647h565v-1458z" />
    <glyph glyph-name="N" unicode="N" horiz-adv-x="1640" 
d="M1487 0h-512l-254 575q-135 302 -238 584h-4q17 -349 17 -614v-545h-340v1458h510l256 -575q127 -291 237 -584h4q-16 273 -16 614v545h340v-1458z" />
    <glyph glyph-name="O" unicode="O" horiz-adv-x="1550" 
d="M776 1491q325 0 515 -205t190 -557t-190 -557t-515 -205q-327 0 -516.5 205t-189.5 557t189.5 557t516.5 205zM776 1184q-160 0 -248 -119.5t-88 -335.5t88 -335.5t248 -119.5q158 0 246 120t88 335t-88 335t-246 120z" />
    <glyph glyph-name="P" unicode="P" horiz-adv-x="1339" 
d="M156 1458h583q272 0 413.5 -129t141.5 -356q0 -225 -141.5 -354.5t-413.5 -129.5h-229v-489h-354v1458zM510 1174v-400h180q242 0 242 199q0 201 -242 201h-180z" />
    <glyph glyph-name="Q" unicode="Q" horiz-adv-x="1550" 
d="M1481 729q0 -339 -176 -543l159 -180l-182 -168l-178 199q-146 -70 -330 -70q-324 0 -514 205.5t-190 556.5t190 556.5t514 205.5q327 0 517 -205t190 -557zM784 252q62 0 111 18l-186 207l186 168l180 -203q51 114 51 277q0 218 -90.5 341.5t-251.5 123.5
q-162 0 -253 -123t-91 -342q0 -220 90.5 -343.5t253.5 -123.5z" />
    <glyph glyph-name="R" unicode="R" horiz-adv-x="1402" 
d="M156 1458h592q536 0 536 -416q0 -132 -71 -225.5t-197 -130.5v-4q78 -28 125 -90t98 -203l141 -389h-381l-110 330q-39 114 -91.5 158t-154.5 44h-133v-532h-354v1458zM510 1184v-383h195q229 0 229 196q0 187 -244 187h-180z" />
    <glyph glyph-name="S" unicode="S" horiz-adv-x="1320" 
d="M645 1491q277 0 424.5 -122t147.5 -355h-369q0 97 -56 150t-161 53q-87 0 -140 -38t-53 -100q0 -69 60.5 -103.5t230.5 -76.5q72 -18 119 -31.5t107.5 -35.5t99.5 -45t80.5 -58t65 -76t39 -96.5t15.5 -122.5q0 -214 -162 -340.5t-434 -126.5q-287 0 -448.5 132.5
t-161.5 375.5h377q0 -225 242 -225q100 0 157.5 41t57.5 112q0 24 -6 43t-14.5 33t-29 27.5t-37 22t-53 20t-62 18.5t-77.5 21q-57 15 -92 24.5t-86.5 26t-83.5 30.5t-73 36t-66.5 44.5t-52.5 54t-42 67t-24.5 80t-9.5 96.5q0 201 155 322.5t416 121.5z" />
    <glyph glyph-name="T" unicode="T" horiz-adv-x="1284" 
d="M1266 1157h-447v-1157h-354v1157h-447v301h1248v-301z" />
    <glyph glyph-name="U" unicode="U" horiz-adv-x="1484" 
d="M1341 1458v-893q0 -289 -155.5 -443.5t-444.5 -154.5q-288 0 -443 155t-155 443v893h355v-885q0 -144 62 -219t181 -75q120 0 183 75t63 219v885h354z" />
    <glyph glyph-name="V" unicode="V" horiz-adv-x="1357" 
d="M909 0h-463l-438 1458h371l158 -563q82 -280 139 -573h4q50 259 139 573l160 563h369z" />
    <glyph glyph-name="W" unicode="W" horiz-adv-x="2029" 
d="M1718 0h-471l-123 584q-64 292 -108 585h-4q-39 -260 -107 -585l-123 -584h-471l-295 1458h344l99 -526q57 -310 94 -610h4q50 308 117 610l114 526h453l115 -526q67 -302 114 -610h5q42 319 96 610l96 526h346z" />
    <glyph glyph-name="X" unicode="X" horiz-adv-x="1370" 
d="M913 748l455 -748h-418l-262 504h-4l-264 -504h-416l453 748l-428 710h407l248 -487h4l246 487h407z" />
    <glyph glyph-name="Y" unicode="Y" horiz-adv-x="1357" 
d="M856 551v-551h-354v551l-500 907h393l127 -264q92 -192 156 -367h4q59 168 154 367l127 264h393z" />
    <glyph glyph-name="Z" unicode="Z" horiz-adv-x="1214" 
d="M1139 1151l-674 -852v-4h706v-295h-1130v307l674 852v4h-643v295h1067v-307z" />
    <glyph glyph-name="bracketleft" unicode="[" horiz-adv-x="733" 
d="M692 1303h-239v-1399h239v-213h-559v1827h559v-215z" />
    <glyph glyph-name="backslash" unicode="\" horiz-adv-x="1030" 
d="M360 1526l609 -1708h-254l-611 1708h256z" />
    <glyph glyph-name="bracketright" unicode="]" horiz-adv-x="733" 
d="M600 1518v-1827h-559v213h240v1399h-240v215h559z" />
    <glyph glyph-name="asciicircum" unicode="^" horiz-adv-x="1064" 
d="M1051 760h-312l-204 432h-5l-204 -432h-312l340 698h357z" />
    <glyph glyph-name="underscore" unicode="_" horiz-adv-x="1024" 
d="M1024 -289h-1024v187h1024v-187z" />
    <glyph glyph-name="grave" unicode="`" horiz-adv-x="755" 
d="M494 1458l159 -303h-262l-289 303h392z" />
    <glyph glyph-name="a" unicode="a" horiz-adv-x="1148" 
d="M563 1073q237 0 355 -107.5t118 -314.5v-358q0 -181 31 -293h-307q-15 62 -15 135h-4q-119 -162 -338 -162q-165 0 -261.5 90t-96.5 230q0 138 96 220t318 116q128 20 250 28v37q0 84 -39 124t-107 40q-69 0 -107.5 -37.5t-39.5 -107.5h-328q4 76 34 140t86 114t147 78
t208 28zM709 434v37q-100 -4 -185 -20q-76 -15 -109.5 -46.5t-33.5 -87.5q0 -55 34.5 -86.5t98.5 -31.5q90 0 143 53q31 32 41.5 72.5t10.5 109.5z" />
    <glyph glyph-name="b" unicode="b" horiz-adv-x="1249" 
d="M465 928h4q46 68 122 104.5t163 36.5q198 0 316 -149.5t118 -399.5t-121 -399.5t-322 -149.5q-88 0 -165 41t-123 117h-4v-129h-328v1458h340v-530zM637 811q-87 0 -139 -78.5t-52 -212.5t52 -212.5t139 -78.5q89 0 141.5 79.5t52.5 211.5t-52.5 211.5t-141.5 79.5z" />
    <glyph glyph-name="c" unicode="c" horiz-adv-x="1177" 
d="M604 1073q220 0 361.5 -118.5t158.5 -311.5h-352q-7 82 -51.5 128t-114.5 46q-89 0 -138.5 -78.5t-49.5 -216.5q0 -141 50.5 -219t139.5 -78q70 0 114 51.5t48 141.5h354q-17 -206 -156.5 -328.5t-361.5 -122.5q-249 0 -397 150.5t-148 404.5q0 252 147.5 401.5
t395.5 149.5z" />
    <glyph glyph-name="d" unicode="d" horiz-adv-x="1249" 
d="M1124 0h-327v129h-4q-46 -76 -123 -117t-166 -41q-201 0 -322 149.5t-121 399.5t118.5 399.5t316.5 149.5q86 0 162 -36.5t122 -104.5h4v530h340v-1458zM612 811q-89 0 -141.5 -79.5t-52.5 -211.5t52.5 -211.5t141.5 -79.5q87 0 139 78.5t52 212.5t-52 212.5t-139 78.5z
" />
    <glyph glyph-name="e" unicode="e" horiz-adv-x="1196" 
d="M598 195q72 0 119 34.5t55 89.5h346q-33 -153 -173 -252.5t-343 -99.5q-255 0 -398 155t-143 406q0 155 62 277.5t185 195t290 72.5q182 0 311.5 -89t184.5 -245q41 -110 41 -288h-740q6 -137 61 -196.5t142 -59.5zM598 850q-79 0 -131 -50.5t-66 -156.5h392
q-10 104 -63.5 155.5t-131.5 51.5z" />
    <glyph glyph-name="f" unicode="f" horiz-adv-x="739" 
d="M672 1229q-77 0 -114.5 -35.5t-37.5 -116.5v-37h193v-247h-193v-793h-336v793h-166v247h166v76q0 180 96 270.5t279 90.5q84 0 162 -19v-233q-20 4 -49 4z" />
    <glyph glyph-name="g" unicode="g" horiz-adv-x="1232" 
d="M492 1069q184 0 294 -168h5v139h317v-972q0 -236 -136 -351.5t-386 -115.5q-218 0 -341.5 87.5t-138.5 245.5h330q5 -54 45.5 -84t110.5 -30q91 0 138.5 57t47.5 191v96h-4q-109 -152 -289 -152q-195 0 -309.5 143.5t-114.5 385.5t117 385t314 143zM598 803
q-85 0 -134.5 -70.5t-49.5 -191.5q0 -120 49.5 -190t134.5 -70q87 0 138.5 70.5t51.5 189.5q0 120 -51 191t-139 71z" />
    <glyph glyph-name="h" unicode="h" 
d="M465 936h4q106 131 281 131q178 0 279 -109.5t101 -318.5v-639h-339v602q0 100 -39.5 150.5t-112.5 50.5q-81 0 -127.5 -66.5t-46.5 -197.5v-539h-340v1458h340v-522z" />
    <glyph glyph-name="i" unicode="i" horiz-adv-x="589" 
d="M465 1190h-340v268h340v-268zM465 0h-340v1040h340v-1040z" />
    <glyph glyph-name="j" unicode="j" horiz-adv-x="591" 
d="M467 1190h-340v268h340v-268zM467 1040v-1038q0 -200 -103 -295.5t-280 -95.5q-96 0 -164 18v238q24 -6 53 -6q80 0 117 43t37 155v981h340z" />
    <glyph glyph-name="k" unicode="k" horiz-adv-x="1159" 
d="M1180 0h-418l-293 471h-4v-471h-340v1458h340v-827h4l279 409h393l-371 -485z" />
    <glyph glyph-name="l" unicode="l" horiz-adv-x="589" 
d="M465 0h-340v1458h340v-1458z" />
    <glyph glyph-name="m" unicode="m" horiz-adv-x="1859" 
d="M1380 1067q171 0 268 -110t97 -318v-639h-340v602q0 100 -35.5 150.5t-101.5 50.5q-79 0 -120.5 -70t-41.5 -205v-528h-340v616q0 91 -36 139t-101 48q-80 0 -122 -69.5t-42 -205.5v-528h-340v1040h317v-118h4q109 145 293 145q220 0 308 -180q60 88 140 134t193 46z" />
    <glyph glyph-name="n" unicode="n" 
d="M750 1067q178 0 279 -109.5t101 -318.5v-639h-339v602q0 100 -39.5 150.5t-112.5 50.5q-81 0 -127.5 -66.5t-46.5 -197.5v-539h-340v1040h317v-125h4q115 152 304 152z" />
    <glyph glyph-name="o" unicode="o" horiz-adv-x="1236" 
d="M618 1073q255 0 406.5 -150t151.5 -403t-151.5 -403t-406.5 -150t-406 150t-151 403t151 403t406 150zM618 815q-93 0 -145.5 -79t-52.5 -216t52.5 -216t145.5 -79t146 79t53 216t-53 216t-146 79z" />
    <glyph glyph-name="p" unicode="p" horiz-adv-x="1249" 
d="M745 1069q201 0 322 -149.5t121 -399.5t-118 -399.5t-316 -149.5q-86 0 -162.5 37t-122.5 105h-4v-492h-340v1419h328v-129h4q46 76 123 117t165 41zM637 811q-87 0 -139 -78.5t-52 -212.5t52 -212.5t139 -78.5q89 0 141.5 79.5t52.5 211.5t-52.5 211.5t-141.5 79.5z" />
    <glyph glyph-name="q" unicode="q" horiz-adv-x="1249" 
d="M504 1069q89 0 166 -41t123 -117h4v129h327v-1419h-340v492h-4q-47 -68 -122.5 -105t-161.5 -37q-198 0 -316.5 149.5t-118.5 399.5t121 399.5t322 149.5zM612 811q-89 0 -141.5 -79.5t-52.5 -211.5t52.5 -211.5t141.5 -79.5q87 0 139 78.5t52 212.5t-52 212.5t-139 78.5
z" />
    <glyph glyph-name="r" unicode="r" horiz-adv-x="849" 
d="M737 1057q49 0 99 -13v-290q-58 10 -105 10q-129 0 -197.5 -79t-68.5 -228v-457h-340v1040h315v-143h4q104 160 293 160z" />
    <glyph glyph-name="s" unicode="s" horiz-adv-x="1110" 
d="M547 1073q219 0 340 -88t121 -260h-324q0 133 -139 133q-58 0 -89.5 -21.5t-31.5 -60.5q0 -45 42.5 -67.5t170.5 -55.5q42 -11 65.5 -17.5t63.5 -19t63.5 -23t56.5 -27.5t53 -34.5t42.5 -42t34.5 -51.5t20 -62t8 -75q0 -152 -129 -243t-354 -91q-242 0 -370 92.5
t-128 278.5h343q0 -148 159 -148q63 0 97 23.5t34 62.5q0 53 -48 79t-191 63q-41 10 -60.5 15.5t-57.5 17t-57.5 20.5t-51 25t-48 31.5t-37.5 39t-31.5 49.5t-18 59.5t-7.5 72.5q0 145 121 235t338 90z" />
    <glyph glyph-name="t" unicode="t" horiz-adv-x="774" 
d="M647 252q43 0 76 10v-256q-83 -22 -172 -22q-196 0 -285.5 81.5t-89.5 264.5v463h-162v247h162v281h340v-281h197v-247h-197v-385q0 -83 30.5 -119.5t100.5 -36.5z" />
    <glyph glyph-name="u" unicode="u" 
d="M496 -27q-178 0 -279.5 110t-101.5 318v639h340v-602q0 -100 39 -150t112 -50q81 0 127.5 66.5t46.5 197.5v538h340v-1040h-317v125h-4q-115 -152 -303 -152z" />
    <glyph glyph-name="v" unicode="v" horiz-adv-x="1091" 
d="M772 0h-453l-335 1040h360l102 -381q58 -226 97 -440h4q37 200 98 440l100 381h363z" />
    <glyph glyph-name="w" unicode="w" horiz-adv-x="1736" 
d="M1497 0h-465l-84 391q-49 227 -78 436h-4q-29 -209 -78 -436l-83 -391h-465l-232 1040h332l68 -383q41 -218 65 -442h4q40 255 84 444l86 381h443l86 -381q44 -189 84 -444h4q24 224 65 442l68 383h332z" />
    <glyph glyph-name="x" unicode="x" horiz-adv-x="1095" 
d="M760 535l348 -535h-389l-170 334h-4l-170 -334h-387l348 535l-326 505h385l150 -297h4l149 297h387z" />
    <glyph glyph-name="y" unicode="y" horiz-adv-x="1085" 
d="M1102 1040l-346 -1022q-78 -230 -188.5 -320.5t-311.5 -90.5q-88 0 -176 18v258q50 -16 104 -16q72 0 115 36t43 99q0 29 -10 65.5t-47 135.5l-305 837h366l100 -348q66 -238 105 -434h4q47 233 104 436l97 346h346z" />
    <glyph glyph-name="z" unicode="z" horiz-adv-x="1028" 
d="M952 772l-475 -508v-4h492v-260h-910v268l473 508v4h-454v260h874v-268z" />
    <glyph glyph-name="braceleft" unicode="{" horiz-adv-x="739" 
d="M682 1518v-195q-85 -3 -120.5 -40t-35.5 -132v-270q0 -119 -50 -183.5t-157 -91.5v-6q107 -28 157 -93t50 -183v-271q0 -95 35.5 -132t120.5 -40v-194h-51q-119 0 -198 21.5t-126.5 69t-67.5 116.5t-20 172v251q0 85 -29.5 124t-107.5 59v205q78 20 107.5 59t29.5 123
v252q0 103 20 172t67.5 116.5t126.5 69t198 21.5h51z" />
    <glyph glyph-name="bar" unicode="|" horiz-adv-x="608" 
d="M449 -420h-291v1919h291v-1919z" />
    <glyph glyph-name="braceright" unicode="}" horiz-adv-x="739" 
d="M57 1518h52q157 0 246.5 -40.5t126 -121t36.5 -217.5v-252q0 -85 29.5 -123.5t109.5 -58.5v-205q-80 -20 -109.5 -59t-29.5 -124v-251q0 -137 -36.5 -217.5t-126 -121t-246.5 -40.5h-52v194q85 3 120.5 40t35.5 132v271q0 118 50 183t157 93v6q-107 27 -157 91.5
t-50 183.5v270q0 95 -35.5 132t-120.5 40v195z" />
    <glyph glyph-name="asciitilde" unicode="~" horiz-adv-x="1228" 
d="M406 870q54 0 106 -18t92.5 -44t77.5 -52t75.5 -44t71.5 -18q59 0 95.5 43.5t36.5 116.5h217q0 -190 -99 -307t-256 -117q-55 0 -107.5 18t-93 44t-77.5 52t-75 44t-71 18q-59 0 -95 -44t-36 -116h-217q0 189 99.5 306.5t255.5 117.5z" />
    <glyph glyph-name="nbspace" unicode="&#xa0;" horiz-adv-x="471" 
 />
    <glyph glyph-name="exclamdown" unicode="&#xa1;" horiz-adv-x="708" 
d="M172 1040h363v-301h-363v301zM217 610h275l61 -1028h-399z" />
    <glyph glyph-name="cent" unicode="&#xa2;" horiz-adv-x="1286" 
d="M659 383q70 0 114 51t48 141h355q-13 -174 -118 -290.5t-276 -147.5v-194h-243v192q-197 34 -311.5 179.5t-114.5 365.5t114 363.5t312 177.5v194h243v-196q169 -32 275 -144t119 -274h-353q-7 82 -51.5 128t-114.5 46q-89 0 -138.5 -77.5t-49.5 -217.5q0 -141 50.5 -219
t139.5 -78z" />
    <glyph glyph-name="sterling" unicode="&#xa3;" horiz-adv-x="1286" 
d="M457 276h751v-276h-1161v281q93 0 137.5 55.5t44.5 191.5v31h-182v262h182v84q0 249 131.5 378.5t378.5 129.5q221 0 351.5 -123t130.5 -332h-334q0 84 -39.5 130.5t-110.5 46.5q-162 0 -162 -228v-86h256v-262h-256v-27q0 -98 -27.5 -156t-90.5 -95v-5z" />
    <glyph glyph-name="currency" unicode="&#xa4;" horiz-adv-x="1286" 
d="M1090 596q0 -121 -56 -227l154 -164l-187 -174l-155 168q-90 -41 -203 -41t-203 41l-155 -168l-189 174l156 166q-55 94 -55 225q0 123 55 227l-156 164l189 174l155 -168q90 41 203 41t203 -41l155 168l187 -174l-154 -164q56 -106 56 -227zM643 383q92 0 147.5 58.5
t55.5 154.5t-55.5 154.5t-147.5 58.5t-148.5 -59t-56.5 -154t56.5 -154t148.5 -59z" />
    <glyph glyph-name="yen" unicode="&#xa5;" horiz-adv-x="1286" 
d="M899 700h242v-149h-320v-78h320v-151h-320v-322h-356v322h-320v151h320v78h-320v149h242l-352 680h387l80 -178q81 -193 139 -366h4q58 173 139 366l80 178h387z" />
    <glyph glyph-name="brokenbar" unicode="&#xa6;" horiz-adv-x="608" 
d="M449 782h-291v717h291v-717zM449 -420h-291v717h291v-717z" />
    <glyph glyph-name="section" unicode="&#xa7;" horiz-adv-x="1343" 
d="M668 1491q221 0 340 -97t131 -288h-330q-10 133 -141 133q-53 0 -85 -25.5t-32 -68.5q0 -53 39 -79.5t194 -84.5q60 -22 95.5 -36t87 -38t81.5 -45.5t65.5 -54.5t54 -68.5t31.5 -83.5t13 -104q0 -188 -170 -297v-4q101 -76 101 -223q0 -165 -128 -264t-341 -99
q-227 0 -355 98t-135 291h336q9 -135 148 -135q60 0 95.5 26t35.5 72q0 57 -49 90.5t-228 106.5q-57 24 -91 39.5t-81 40.5t-74 46t-58.5 52t-48 64.5t-27.5 77t-11 94.5q0 94 44.5 168.5t127.5 122.5v4q-94 73 -94 208q0 165 127 263t332 98zM500 795q-64 -43 -64 -123
q0 -64 43.5 -106.5t171.5 -96.5q109 -45 199 -86q63 40 63 125q0 62 -42.5 106t-163.5 93q-19 8 -94 39.5t-113 48.5z" />
    <glyph glyph-name="dieresis" unicode="&#xa8;" horiz-adv-x="960" 
d="M395 1190h-293v268h293v-268zM858 1190h-291v268h291v-268z" />
    <glyph glyph-name="copyright" unicode="&#xa9;" horiz-adv-x="1634" 
d="M817 1489q333 0 536 -208.5t203 -551.5t-203 -551.5t-536 -208.5t-536 208.5t-203 551.5t203 551.5t536 208.5zM817 1360q-276 0 -444 -173t-168 -458t168 -458t444 -173q277 0 446 173.5t169 457.5t-169 457.5t-446 173.5zM821 1192q177 0 282.5 -93t113.5 -253h-234
q-5 73 -47 115.5t-115 42.5q-85 0 -133.5 -74t-48.5 -203q0 -126 48.5 -199t131.5 -73q71 0 115.5 43.5t52.5 119.5h236q-13 -167 -121.5 -259.5t-282.5 -92.5q-192 0 -302.5 123.5t-110.5 337.5q0 217 111 341t304 124z" />
    <glyph glyph-name="ordfeminine" unicode="&#xaa;" horiz-adv-x="858" 
d="M422 1427q354 0 354 -303v-235q0 -130 25 -213h-250q-12 41 -12 92h-4q-85 -113 -242 -113q-120 0 -191 64.5t-71 165.5q0 99 71 156t234 81q111 16 172 19v26q0 99 -90 99q-87 0 -90 -92h-267q8 111 96.5 182t264.5 71zM508 977v24q-56 0 -117 -14q-46 -10 -66 -30.5
t-20 -53.5q0 -35 21.5 -55.5t60.5 -20.5q58 0 90 35q19 21 25 45.5t6 69.5z" />
    <glyph glyph-name="guillemetleft" unicode="&#xab;" horiz-adv-x="1167" 
d="M395 520l217 -409h-290l-234 409l234 410h290zM864 520l217 -409h-293l-233 409l233 410h293z" />
    <glyph glyph-name="logicalnot" unicode="&#xac;" horiz-adv-x="1159" 
d="M1038 258h-264v436h-653v264h917v-700z" />
    <glyph glyph-name="softhyphen" unicode="&#xad;" horiz-adv-x="690" 
d="M629 473h-568v250h568v-250z" />
    <glyph glyph-name="registered" unicode="&#xae;" horiz-adv-x="1212" 
d="M606 1491q232 0 373 -145t141 -383t-141 -383.5t-373 -145.5t-373 145.5t-141 383.5t141 383t373 145zM606 1413q-196 0 -316 -123.5t-120 -326.5t120 -327t316 -124t316 124t120 327t-120 326.5t-316 123.5zM350 1292h283q110 0 166.5 -47.5t56.5 -134.5q0 -59 -32 -101
t-89 -57v-4q34 -9 55.5 -35.5t43.5 -85.5l65 -176h-166l-53 150q-15 47 -41 66.5t-72 19.5h-59v-236h-158v641zM508 1171v-167h82q112 0 112 88q0 37 -27.5 58t-80.5 21h-86z" />
    <glyph glyph-name="macron" unicode="&#xaf;" horiz-adv-x="940" 
d="M838 1206h-736v211h736v-211z" />
    <glyph glyph-name="degree" unicode="&#xb0;" horiz-adv-x="712" 
d="M356 1479q120 0 204.5 -84.5t84.5 -204.5q0 -121 -84.5 -205t-204.5 -84t-205 84t-85 205q0 120 85 204.5t205 84.5zM356 1319q-54 0 -91.5 -37.5t-37.5 -91.5t37.5 -91.5t91.5 -37.5t91.5 37.5t37.5 91.5t-37.5 91.5t-91.5 37.5z" />
    <glyph glyph-name="plusminus" unicode="&#xb1;" horiz-adv-x="1159" 
d="M711 887h327v-260h-327v-293h-262v293h-328v260h328v293h262v-293zM1038 0h-917v260h917v-260z" />
    <glyph glyph-name="twosuperior" unicode="&#xb2;" horiz-adv-x="964" 
d="M483 1665q180 0 287 -83.5t107 -213.5q0 -61 -19 -110t-57 -86t-82.5 -64t-108.5 -55q-123 -53 -164.5 -84.5t-44.5 -67.5h502v-225h-833q-4 32 -4 57q0 158 63 258t225 180q125 61 177.5 101t52.5 96q0 40 -26.5 63t-72.5 23q-117 0 -120 -133h-287q1 165 107.5 254.5
t297.5 89.5z" />
    <glyph glyph-name="threesuperior" unicode="&#xb3;" horiz-adv-x="950" 
d="M477 1665q184 0 289.5 -74t105.5 -200q0 -78 -41 -128.5t-131 -82.5v-4q97 -31 141 -84.5t44 -141.5q0 -136 -110 -216.5t-296 -80.5q-207 0 -318.5 90t-111.5 258h291q0 -139 139 -139q56 0 88.5 25t32.5 69q0 105 -162 105h-26v203h32q67 0 106.5 27t39.5 73
q0 42 -30 67t-85 25q-64 0 -96.5 -34.5t-32.5 -98.5h-280q0 161 108 251.5t303 90.5z" />
    <glyph glyph-name="acute" unicode="&#xb4;" horiz-adv-x="755" 
d="M365 1155h-263l160 303h391z" />
    <glyph glyph-name="micro" unicode="&#xb5;" horiz-adv-x="1282" 
d="M1126 1040v-675q0 -70 21 -97.5t67 -27.5q26 0 50 6v-236q-86 -28 -201 -28q-196 0 -246 153h-4q-29 -69 -89 -108t-136 -39q-77 0 -123 32v-399h-340v1419h340v-596q0 -206 149 -206q79 0 125.5 64t46.5 192v546h340z" />
    <glyph glyph-name="paragraph" unicode="&#xb6;" horiz-adv-x="1400" 
d="M1343 1233h-163v-1479h-244v1479h-156v-1479h-241v826h-37q-192 0 -306 118.5t-114 319.5t114 320.5t306 119.5h841v-225z" />
    <glyph glyph-name="periodcentered" unicode="&#xb7;" horiz-adv-x="561" 
d="M461 438h-361v375h361v-375z" />
    <glyph glyph-name="cedilla" unicode="&#xb8;" horiz-adv-x="712" 
d="M440 0l-75 -123q30 10 67 10q79 0 128.5 -42.5t49.5 -116.5q0 -89 -68 -146t-194 -57q-134 0 -246 65l54 109q89 -45 166 -45q90 0 90 63q0 30 -24 49t-66 19q-37 0 -64 -12l-59 55l104 172h137z" />
    <glyph glyph-name="onesuperior" unicode="&#xb9;" horiz-adv-x="686" 
d="M565 676h-286v590h-256v207q137 0 204 39.5t82 129.5h256v-966z" />
    <glyph glyph-name="ordmasculine" unicode="&#xba;" horiz-adv-x="909" 
d="M455 1427q189 0 300 -105t111 -282q0 -178 -111 -282.5t-300 -104.5q-188 0 -300 104.5t-112 282.5q0 177 112 282t300 105zM455 1221q-58 0 -89.5 -48t-31.5 -133t31.5 -132.5t89.5 -47.5t89 47.5t31 132.5q0 86 -31 133.5t-89 47.5z" />
    <glyph glyph-name="guillemetright" unicode="&#xbb;" horiz-adv-x="1167" 
d="M379 930l233 -410l-233 -409h-291l217 409l-217 410h291zM848 930l233 -410l-233 -409h-293l217 409l-217 410h293z" />
    <glyph glyph-name="onequarter" unicode="&#xbc;" horiz-adv-x="1687" 
d="M229 553v500h-211v182q103 0 160 36.5t76 108.5h242v-827h-267zM1217 1380l-744 -1380h-205l744 1380h205zM1667 156h-143v-156h-248v156h-404v192l326 479h326v-483h143v-188zM1090 344h198v76q0 139 8 246h-2q-72 -132 -131 -217z" />
    <glyph glyph-name="onehalf" unicode="&#xbd;" horiz-adv-x="1738" 
d="M496 553h-267v500h-211v182q103 0 160 36.5t76 108.5h242v-827zM473 0h-205l744 1380h205zM1319 848q158 0 250 -72.5t92 -185.5q0 -99 -59 -161t-172 -107q-108 -44 -143 -69t-40 -56h439v-197h-732q-2 16 -2 51q0 137 54.5 222.5t193.5 154.5q113 52 158 85.5t45 82.5
q0 30 -22.5 49t-61.5 19q-47 0 -73.5 -29t-26.5 -84h-254q0 142 93 219.5t261 77.5z" />
    <glyph glyph-name="threequarters" unicode="&#xbe;" horiz-adv-x="1929" 
d="M776 784q0 -120 -93 -186t-263 -66q-180 0 -278.5 77.5t-98.5 224.5h256q0 -115 121 -115q47 0 76.5 21.5t29.5 56.5q0 82 -135 82h-29v178h27q61 0 95 22t34 62q0 34 -27.5 55t-76.5 21q-54 0 -82.5 -28.5t-28.5 -80.5h-248q0 137 96.5 215t264.5 78q158 0 254 -65.5
t96 -174.5q0 -66 -36.5 -109t-115.5 -69v-2q85 -26 123.5 -73t38.5 -124zM1458 1380l-743 -1380h-205l743 1380h205zM1909 156h-144v-156h-247v156h-404v192l326 479h325v-483h144v-188zM1331 344h199v76q0 139 8 246h-2q-72 -132 -131 -217z" />
    <glyph glyph-name="questiondown" unicode="&#xbf;" horiz-adv-x="1110" 
d="M420 1040h362v-301h-362v301zM580 -449q-238 0 -373 103t-135 285q0 105 41.5 178t160.5 172q112 95 147.5 161t35.5 185h286q5 -39 5 -90q0 -131 -36 -205t-151 -178q-84 -76 -108.5 -117.5t-24.5 -99.5q0 -59 40 -93t112 -34q88 0 132.5 48.5t45.5 151.5h352
q-4 -229 -141.5 -348t-388.5 -119z" />
    <glyph glyph-name="Agrave" unicode="&#xc0;" horiz-adv-x="1464" 
d="M666 1556l-289 310h391l160 -310h-262zM997 309h-528l-94 -309h-373l498 1458h465l497 -1458h-372zM911 600l-30 98q-92 303 -148 531h-4q-63 -259 -143 -531l-29 -98h354z" />
    <glyph glyph-name="Aacute" unicode="&#xc1;" horiz-adv-x="1464" 
d="M799 1556h-262l159 310h391zM997 309h-528l-94 -309h-373l498 1458h465l497 -1458h-372zM911 600l-30 98q-92 303 -148 531h-4q-63 -259 -143 -531l-29 -98h354z" />
    <glyph glyph-name="Acircumflex" unicode="&#xc2;" horiz-adv-x="1464" 
d="M608 1556h-282l245 310h320l246 -310h-283l-123 162zM997 309h-528l-94 -309h-373l498 1458h465l497 -1458h-372zM911 600l-30 98q-92 303 -148 531h-4q-63 -259 -143 -531l-29 -98h354z" />
    <glyph glyph-name="Atilde" unicode="&#xc3;" horiz-adv-x="1464" 
d="M600 1661q-77 0 -86 -88h-182q6 137 71.5 215t182.5 78q56 0 107.5 -22t93 -44t73.5 -22q40 0 61 21.5t27 66.5h182q-8 -137 -73.5 -215t-182.5 -78q-55 0 -106 22t-93 44t-75 22zM997 309h-528l-94 -309h-373l498 1458h465l497 -1458h-372zM911 600l-30 98
q-92 303 -148 531h-4q-63 -259 -143 -531l-29 -98h354z" />
    <glyph glyph-name="Adieresis" unicode="&#xc4;" horiz-adv-x="1464" 
d="M647 1575h-293v268h293v-268zM1110 1575h-291v268h291v-268zM997 309h-528l-94 -309h-373l498 1458h465l497 -1458h-372zM911 600l-30 98q-92 303 -148 531h-4q-63 -259 -143 -531l-29 -98h354z" />
    <glyph glyph-name="Aring" unicode="&#xc5;" horiz-adv-x="1464" 
d="M731 1540q-97 0 -165 68t-68 164q0 97 68 165t165 68t165.5 -68t68.5 -165q0 -95 -68.5 -163.5t-165.5 -68.5zM731 1886q-47 0 -81 -33.5t-34 -80.5t34 -81t81 -34t81 34t34 81t-34 80.5t-81 33.5zM997 309h-528l-94 -309h-373l498 1458h465l497 -1458h-372zM911 600
l-30 98q-92 303 -148 531h-4q-63 -259 -143 -531l-29 -98h354z" />
    <glyph glyph-name="AE" unicode="&#xc6;" horiz-adv-x="2000" 
d="M1905 297v-297h-840l-47 328h-502l-137 -328h-391l651 1458h1251v-297h-653l39 -276h565v-293h-524l43 -295h545zM977 621l-80 550h-29l-229 -550h338z" />
    <glyph glyph-name="Ccedilla" unicode="&#xc7;" horiz-adv-x="1464" 
d="M1022 532h371q-20 -252 -172 -398t-404 -165l-57 -92q30 10 67 10q80 0 129.5 -42.5t49.5 -116.5q0 -89 -68.5 -146t-194.5 -57q-133 0 -245 65l53 109q89 -45 166 -45q90 0 90 63q0 30 -24 49t-66 19q-37 0 -64 -12l-59 55l86 141q-285 23 -447.5 224.5t-162.5 535.5
q0 354 182.5 558t499.5 204q282 0 452.5 -150.5t181.5 -406.5h-366q-12 119 -82.5 184.5t-185.5 65.5q-145 0 -228.5 -121.5t-83.5 -333.5q0 -211 83 -333t225 -122q116 0 187.5 67.5t86.5 190.5z" />
    <glyph glyph-name="Egrave" unicode="&#xc8;" horiz-adv-x="1298" 
d="M709 1866l159 -310h-262l-289 310h392zM1186 1161h-676v-276h631v-293h-631v-295h692v-297h-1046v1458h1030v-297z" />
    <glyph glyph-name="Eacute" unicode="&#xc9;" horiz-adv-x="1298" 
d="M739 1556h-262l160 310h391zM1186 1161h-676v-276h631v-293h-631v-295h692v-297h-1046v1458h1030v-297z" />
    <glyph glyph-name="Ecircumflex" unicode="&#xca;" horiz-adv-x="1298" 
d="M512 1866h319l246 -310h-282l-123 162l-123 -162h-283zM1186 1161h-676v-276h631v-293h-631v-295h692v-297h-1046v1458h1030v-297z" />
    <glyph glyph-name="Edieresis" unicode="&#xcb;" horiz-adv-x="1298" 
d="M588 1575h-293v268h293v-268zM1051 1575h-291v268h291v-268zM1186 1161h-676v-276h631v-293h-631v-295h692v-297h-1046v1458h1030v-297z" />
    <glyph glyph-name="Igrave" unicode="&#xcc;" horiz-adv-x="665" 
d="M369 1866l159 -310h-262l-289 310h392zM510 0h-354v1458h354v-1458z" />
    <glyph glyph-name="Iacute" unicode="&#xcd;" horiz-adv-x="665" 
d="M399 1556h-262l160 310h391zM510 0h-354v1458h354v-1458z" />
    <glyph glyph-name="Icircumflex" unicode="&#xce;" horiz-adv-x="665" 
d="M172 1866h320l245 -310h-282l-123 162l-123 -162h-283zM510 0h-354v1458h354v-1458z" />
    <glyph glyph-name="Idieresis" unicode="&#xcf;" horiz-adv-x="665" 
d="M248 1575h-293v268h293v-268zM711 1575h-291v268h291v-268zM510 0h-354v1458h354v-1458z" />
    <glyph glyph-name="Eth" unicode="&#xd0;" horiz-adv-x="1523" 
d="M158 1458h518q374 0 576 -189.5t202 -539.5t-202 -539.5t-576 -189.5h-518v621h-127v233h127v604zM512 301h156q207 0 312 108t105 320t-105 320t-312 108h-156v-303h313v-233h-313v-320z" />
    <glyph glyph-name="Ntilde" unicode="&#xd1;" horiz-adv-x="1640" 
d="M1038 1866h183q-8 -137 -73.5 -215t-182.5 -78q-55 0 -106.5 22t-93.5 44t-75 22q-77 0 -86 -88h-182q6 137 71.5 215t182.5 78q56 0 107.5 -22t93 -44t73.5 -22q40 0 61 21.5t27 66.5zM1487 0h-512l-254 575q-135 302 -238 584h-4q17 -349 17 -614v-545h-340v1458h510
l256 -575q127 -291 237 -584h4q-16 273 -16 614v545h340v-1458z" />
    <glyph glyph-name="Ograve" unicode="&#xd2;" horiz-adv-x="1550" 
d="M811 1866l160 -310h-262l-289 310h391zM776 1491q325 0 515 -205t190 -557t-190 -557t-515 -205q-327 0 -516.5 205t-189.5 557t189.5 557t516.5 205zM776 1184q-160 0 -248 -119.5t-88 -335.5t88 -335.5t248 -119.5q158 0 246 120t88 335t-88 335t-246 120z" />
    <glyph glyph-name="Oacute" unicode="&#xd3;" horiz-adv-x="1550" 
d="M842 1556h-262l159 310h391zM776 1491q325 0 515 -205t190 -557t-190 -557t-515 -205q-327 0 -516.5 205t-189.5 557t189.5 557t516.5 205zM776 1184q-160 0 -248 -119.5t-88 -335.5t88 -335.5t248 -119.5q158 0 246 120t88 335t-88 335t-246 120z" />
    <glyph glyph-name="Ocircumflex" unicode="&#xd4;" horiz-adv-x="1550" 
d="M614 1866h320l246 -310h-283l-123 162l-123 -162h-282zM776 1491q325 0 515 -205t190 -557t-190 -557t-515 -205q-327 0 -516.5 205t-189.5 557t189.5 557t516.5 205zM776 1184q-160 0 -248 -119.5t-88 -335.5t88 -335.5t248 -119.5q158 0 246 120t88 335t-88 335
t-246 120z" />
    <glyph glyph-name="Otilde" unicode="&#xd5;" horiz-adv-x="1550" 
d="M993 1866h183q-8 -137 -73.5 -215t-182.5 -78q-55 0 -106.5 22t-93.5 44t-75 22q-77 0 -86 -88h-182q6 137 71.5 215t182.5 78q56 0 107.5 -22t93 -44t73.5 -22q40 0 61 21.5t27 66.5zM776 1491q325 0 515 -205t190 -557t-190 -557t-515 -205q-327 0 -516.5 205
t-189.5 557t189.5 557t516.5 205zM776 1184q-160 0 -248 -119.5t-88 -335.5t88 -335.5t248 -119.5q158 0 246 120t88 335t-88 335t-246 120z" />
    <glyph glyph-name="Odieresis" unicode="&#xd6;" horiz-adv-x="1550" 
d="M690 1575h-293v268h293v-268zM1153 1575h-291v268h291v-268zM776 1491q325 0 515 -205t190 -557t-190 -557t-515 -205q-327 0 -516.5 205t-189.5 557t189.5 557t516.5 205zM776 1184q-160 0 -248 -119.5t-88 -335.5t88 -335.5t248 -119.5q158 0 246 120t88 335t-88 335
t-246 120z" />
    <glyph glyph-name="multiply" unicode="&#xd7;" horiz-adv-x="1159" 
d="M1126 999l-360 -360l360 -358l-186 -189l-360 361l-359 -361l-186 189l358 358l-358 360l186 187l359 -359l360 359z" />
    <glyph glyph-name="Oslash" unicode="&#xd8;" horiz-adv-x="1550" 
d="M1421 1450l-125 -170q185 -204 185 -551q0 -352 -190 -557t-515 -205q-221 0 -383 96l-119 -161l-145 106l125 170q-184 203 -184 551q0 352 189.5 557t516.5 205q223 0 381 -96l121 161zM424 729q0 -150 45 -262l502 676q-80 59 -195 59q-167 0 -259.5 -125t-92.5 -348z
M776 256q167 0 259.5 125t92.5 348q0 159 -45 264l-501 -678q80 -59 194 -59z" />
    <glyph glyph-name="Ugrave" unicode="&#xd9;" horiz-adv-x="1484" 
d="M778 1866l160 -310h-262l-289 310h391zM1341 1458v-893q0 -289 -155.5 -443.5t-444.5 -154.5q-288 0 -443 155t-155 443v893h355v-885q0 -144 62 -219t181 -75q120 0 183 75t63 219v885h354z" />
    <glyph glyph-name="Uacute" unicode="&#xda;" horiz-adv-x="1484" 
d="M807 1556h-262l160 310h391zM1341 1458v-893q0 -289 -155.5 -443.5t-444.5 -154.5q-288 0 -443 155t-155 443v893h355v-885q0 -144 62 -219t181 -75q120 0 183 75t63 219v885h354z" />
    <glyph glyph-name="Ucircumflex" unicode="&#xdb;" horiz-adv-x="1484" 
d="M582 1866h319l246 -310h-283l-123 162l-123 -162h-282zM1341 1458v-893q0 -289 -155.5 -443.5t-444.5 -154.5q-288 0 -443 155t-155 443v893h355v-885q0 -144 62 -219t181 -75q120 0 183 75t63 219v885h354z" />
    <glyph glyph-name="Udieresis" unicode="&#xdc;" horiz-adv-x="1484" 
d="M655 1575h-293v268h293v-268zM1118 1575h-291v268h291v-268zM1341 1458v-893q0 -289 -155.5 -443.5t-444.5 -154.5q-288 0 -443 155t-155 443v893h355v-885q0 -144 62 -219t181 -75q120 0 183 75t63 219v885h354z" />
    <glyph glyph-name="Yacute" unicode="&#xdd;" horiz-adv-x="1357" 
d="M745 1556h-262l160 310h391zM856 551v-551h-354v551l-500 907h393l127 -264q92 -192 156 -367h4q59 168 154 367l127 264h393z" />
    <glyph glyph-name="Thorn" unicode="&#xde;" horiz-adv-x="1339" 
d="M510 1237h227q274 0 415.5 -130.5t141.5 -358.5t-141.5 -359t-413.5 -131h-229v-258h-354v1458h354v-221zM510 946v-397h172q129 0 189.5 50t60.5 149q0 100 -60 149t-190 49h-172z" />
    <glyph glyph-name="germandbls" unicode="&#xdf;" horiz-adv-x="1202" 
d="M610 1491q217 0 345 -98.5t128 -264.5q0 -240 -252 -319v-4q314 -71 314 -385q0 -206 -130.5 -317t-361.5 -111q-38 0 -88 8v262q16 -2 39 -2q93 0 142 50t49 149q0 97 -53 150t-154 53h-23v270q101 0 148 39t47 121q0 69 -37 105t-105 36q-81 0 -117 -51t-36 -162v-1020
h-340v1042q0 212 128.5 330.5t356.5 118.5z" />
    <glyph glyph-name="agrave" unicode="&#xe0;" horiz-adv-x="1148" 
d="M588 1458l160 -303h-263l-288 303h391zM563 1073q237 0 355 -107.5t118 -314.5v-358q0 -181 31 -293h-307q-15 62 -15 135h-4q-119 -162 -338 -162q-165 0 -261.5 90t-96.5 230q0 138 96 220t318 116q128 20 250 28v37q0 84 -39 124t-107 40q-69 0 -107.5 -37.5
t-39.5 -107.5h-328q4 76 34 140t86 114t147 78t208 28zM709 434v37q-100 -4 -185 -20q-76 -15 -109.5 -46.5t-33.5 -87.5q0 -55 34.5 -86.5t98.5 -31.5q90 0 143 53q31 32 41.5 72.5t10.5 109.5z" />
    <glyph glyph-name="aacute" unicode="&#xe1;" horiz-adv-x="1148" 
d="M618 1155h-262l160 303h391zM563 1073q237 0 355 -107.5t118 -314.5v-358q0 -181 31 -293h-307q-15 62 -15 135h-4q-119 -162 -338 -162q-165 0 -261.5 90t-96.5 230q0 138 96 220t318 116q128 20 250 28v37q0 84 -39 124t-107 40q-69 0 -107.5 -37.5t-39.5 -107.5h-328
q4 76 34 140t86 114t147 78t208 28zM709 434v37q-100 -4 -185 -20q-76 -15 -109.5 -46.5t-33.5 -87.5q0 -55 34.5 -86.5t98.5 -31.5q90 0 143 53q31 32 41.5 72.5t10.5 109.5z" />
    <glyph glyph-name="acircumflex" unicode="&#xe2;" horiz-adv-x="1148" 
d="M670 1155l-119 156l-119 -156h-282l241 303h320l241 -303h-282zM563 1073q237 0 355 -107.5t118 -314.5v-358q0 -181 31 -293h-307q-15 62 -15 135h-4q-119 -162 -338 -162q-165 0 -261.5 90t-96.5 230q0 138 96 220t318 116q128 20 250 28v37q0 84 -39 124t-107 40
q-69 0 -107.5 -37.5t-39.5 -107.5h-328q4 76 34 140t86 114t147 78t208 28zM709 434v37q-100 -4 -185 -20q-76 -15 -109.5 -46.5t-33.5 -87.5q0 -55 34.5 -86.5t98.5 -31.5q90 0 143 53q31 32 41.5 72.5t10.5 109.5z" />
    <glyph glyph-name="atilde" unicode="&#xe3;" horiz-adv-x="1148" 
d="M768 1458h182q-8 -137 -73.5 -215t-182.5 -78q-55 0 -106 22t-93 44t-75 22q-77 0 -86 -88h-182q6 137 71.5 215t182.5 78q56 0 107.5 -22t93 -44t73.5 -22q40 0 61 21.5t27 66.5zM563 1073q237 0 355 -107.5t118 -314.5v-358q0 -181 31 -293h-307q-15 62 -15 135h-4
q-119 -162 -338 -162q-165 0 -261.5 90t-96.5 230q0 138 96 220t318 116q128 20 250 28v37q0 84 -39 124t-107 40q-69 0 -107.5 -37.5t-39.5 -107.5h-328q4 76 34 140t86 114t147 78t208 28zM709 434v37q-100 -4 -185 -20q-76 -15 -109.5 -46.5t-33.5 -87.5
q0 -55 34.5 -86.5t98.5 -31.5q90 0 143 53q31 32 41.5 72.5t10.5 109.5z" />
    <glyph glyph-name="adieresis" unicode="&#xe4;" horiz-adv-x="1148" 
d="M467 1190h-293v268h293v-268zM930 1190h-291v268h291v-268zM563 1073q237 0 355 -107.5t118 -314.5v-358q0 -181 31 -293h-307q-15 62 -15 135h-4q-119 -162 -338 -162q-165 0 -261.5 90t-96.5 230q0 138 96 220t318 116q128 20 250 28v37q0 84 -39 124t-107 40
q-69 0 -107.5 -37.5t-39.5 -107.5h-328q4 76 34 140t86 114t147 78t208 28zM709 434v37q-100 -4 -185 -20q-76 -15 -109.5 -46.5t-33.5 -87.5q0 -55 34.5 -86.5t98.5 -31.5q90 0 143 53q31 32 41.5 72.5t10.5 109.5z" />
    <glyph glyph-name="aring" unicode="&#xe5;" horiz-adv-x="1148" 
d="M551 1597q97 0 165 -68t68 -165q0 -95 -68 -163t-165 -68t-165.5 68t-68.5 163q0 97 68.5 165t165.5 68zM551 1479q-47 0 -81 -34t-34 -81t34 -81t81 -34t81 34t34 81t-34 81t-81 34zM563 1073q237 0 355 -107.5t118 -314.5v-358q0 -181 31 -293h-307q-15 62 -15 135h-4
q-119 -162 -338 -162q-165 0 -261.5 90t-96.5 230q0 138 96 220t318 116q128 20 250 28v37q0 84 -39 124t-107 40q-69 0 -107.5 -37.5t-39.5 -107.5h-328q4 76 34 140t86 114t147 78t208 28zM709 434v37q-100 -4 -185 -20q-76 -15 -109.5 -46.5t-33.5 -87.5
q0 -55 34.5 -86.5t98.5 -31.5q90 0 143 53q31 32 41.5 72.5t10.5 109.5z" />
    <glyph glyph-name="ae" unicode="&#xe6;" horiz-adv-x="1832" 
d="M1243 195q69 0 114 34.5t54 89.5h346q-32 -152 -171 -252t-339 -100q-252 0 -389 174q-120 -174 -391 -174q-197 0 -309.5 91.5t-112.5 234.5q0 178 137 262t436 84h113v55q0 85 -39.5 124.5t-118.5 39.5q-72 0 -113 -37.5t-42 -107.5h-328q4 76 34.5 139.5t87.5 114
t150 78.5t213 28q232 0 345 -110q129 110 323 110q180 0 308.5 -89t183.5 -245q37 -107 37 -288h-723q11 -256 194 -256zM1243 850q-78 0 -128.5 -52t-63.5 -161h381q-9 107 -60.5 160t-128.5 53zM731 459h-96q-137 0 -195.5 -36.5t-58.5 -107.5q0 -57 37 -92t104 -35
q93 0 152 56q33 34 45 76.5t12 113.5v25z" />
    <glyph glyph-name="ccedilla" unicode="&#xe7;" horiz-adv-x="1177" 
d="M608 225q70 0 114 51.5t48 141.5h354q-15 -190 -136 -310t-318 -139l-58 -92q30 10 68 10q79 0 128.5 -42.5t49.5 -116.5q0 -89 -68 -146t-194 -57q-134 0 -246 65l53 109q89 -45 166 -45q90 0 90 63q0 30 -24 49t-66 19q-36 0 -63 -12l-60 55l86 143q-217 22 -344 169.5
t-127 381.5q0 252 147.5 401.5t395.5 149.5q220 0 361.5 -118.5t158.5 -311.5h-352q-7 82 -51.5 128t-114.5 46q-89 0 -138.5 -78.5t-49.5 -216.5q0 -141 50.5 -219t139.5 -78z" />
    <glyph glyph-name="egrave" unicode="&#xe8;" horiz-adv-x="1196" 
d="M530 1155l-288 303h391l160 -303h-263zM598 195q72 0 119 34.5t55 89.5h346q-33 -153 -173 -252.5t-343 -99.5q-255 0 -398 155t-143 406q0 155 62 277.5t185 195t290 72.5q182 0 311.5 -89t184.5 -245q41 -110 41 -288h-740q6 -137 61 -196.5t142 -59.5zM598 850
q-79 0 -131 -50.5t-66 -156.5h392q-10 104 -63.5 155.5t-131.5 51.5z" />
    <glyph glyph-name="eacute" unicode="&#xe9;" horiz-adv-x="1196" 
d="M664 1155h-263l160 303h391zM598 195q72 0 119 34.5t55 89.5h346q-33 -153 -173 -252.5t-343 -99.5q-255 0 -398 155t-143 406q0 155 62 277.5t185 195t290 72.5q182 0 311.5 -89t184.5 -245q41 -110 41 -288h-740q6 -137 61 -196.5t142 -59.5zM598 850q-79 0 -131 -50.5
t-66 -156.5h392q-10 104 -63.5 155.5t-131.5 51.5z" />
    <glyph glyph-name="ecircumflex" unicode="&#xea;" horiz-adv-x="1196" 
d="M477 1155h-282l241 303h320l241 -303h-282l-119 156zM598 195q72 0 119 34.5t55 89.5h346q-33 -153 -173 -252.5t-343 -99.5q-255 0 -398 155t-143 406q0 155 62 277.5t185 195t290 72.5q182 0 311.5 -89t184.5 -245q41 -110 41 -288h-740q6 -137 61 -196.5t142 -59.5z
M598 850q-79 0 -131 -50.5t-66 -156.5h392q-10 104 -63.5 155.5t-131.5 51.5z" />
    <glyph glyph-name="edieresis" unicode="&#xeb;" horiz-adv-x="1196" 
d="M512 1190h-293v268h293v-268zM975 1190h-291v268h291v-268zM598 195q72 0 119 34.5t55 89.5h346q-33 -153 -173 -252.5t-343 -99.5q-255 0 -398 155t-143 406q0 155 62 277.5t185 195t290 72.5q182 0 311.5 -89t184.5 -245q41 -110 41 -288h-740q6 -137 61 -196.5
t142 -59.5zM598 850q-79 0 -131 -50.5t-66 -156.5h392q-10 104 -63.5 155.5t-131.5 51.5z" />
    <glyph glyph-name="igrave" unicode="&#xec;" horiz-adv-x="589" 
d="M332 1458l160 -303h-263l-288 303h391zM465 0h-340v1040h340v-1040z" />
    <glyph glyph-name="iacute" unicode="&#xed;" horiz-adv-x="589" 
d="M360 1155h-262l160 303h391zM465 0h-340v1040h340v-1040z" />
    <glyph glyph-name="icircumflex" unicode="&#xee;" horiz-adv-x="589" 
d="M666 1159h-267l-104 146l-102 -146h-269l221 299h299zM465 0h-340v1040h340v-1040z" />
    <glyph glyph-name="idieresis" unicode="&#xef;" horiz-adv-x="589" 
d="M246 1190h-273v268h273v-268zM614 1190h-270v268h270v-268zM465 0h-340v1040h340v-1040z" />
    <glyph glyph-name="eth" unicode="&#xf0;" horiz-adv-x="1222" 
d="M989 1067q172 -244 172 -530q0 -264 -149 -417t-404 -153q-250 0 -398.5 142.5t-148.5 382.5q0 246 126.5 392t338.5 146q69 0 136 -24v4q-53 63 -152 151l-264 -98l-53 139l186 70q-36 28 -127 92l283 127q76 -50 145 -105l258 97l53 -140l-184 -69q109 -103 182 -207z
M614 219q90 0 142.5 80t52.5 217q0 138 -52 217.5t-143 79.5t-142.5 -79.5t-51.5 -217.5q0 -137 52 -217t142 -80z" />
    <glyph glyph-name="ntilde" unicode="&#xf1;" 
d="M846 1458h182q-8 -137 -73.5 -215t-182.5 -78q-55 0 -106 22t-93 44t-75 22q-77 0 -86 -88h-183q6 137 71.5 215t182.5 78q56 0 107.5 -22t93.5 -44t74 -22q40 0 61 21.5t27 66.5zM750 1067q178 0 279 -109.5t101 -318.5v-639h-339v602q0 100 -39.5 150.5t-112.5 50.5
q-81 0 -127.5 -66.5t-46.5 -197.5v-539h-340v1040h317v-125h4q115 152 304 152z" />
    <glyph glyph-name="ograve" unicode="&#xf2;" horiz-adv-x="1236" 
d="M655 1458l160 -303h-262l-289 303h391zM618 1073q255 0 406.5 -150t151.5 -403t-151.5 -403t-406.5 -150t-406 150t-151 403t151 403t406 150zM618 815q-93 0 -145.5 -79t-52.5 -216t52.5 -216t145.5 -79t146 79t53 216t-53 216t-146 79z" />
    <glyph glyph-name="oacute" unicode="&#xf3;" horiz-adv-x="1236" 
d="M684 1155h-262l160 303h391zM618 1073q255 0 406.5 -150t151.5 -403t-151.5 -403t-406.5 -150t-406 150t-151 403t151 403t406 150zM618 815q-93 0 -145.5 -79t-52.5 -216t52.5 -216t145.5 -79t146 79t53 216t-53 216t-146 79z" />
    <glyph glyph-name="ocircumflex" unicode="&#xf4;" horiz-adv-x="1236" 
d="M737 1155l-119 156l-118 -156h-283l242 303h319l242 -303h-283zM618 1073q255 0 406.5 -150t151.5 -403t-151.5 -403t-406.5 -150t-406 150t-151 403t151 403t406 150zM618 815q-93 0 -145.5 -79t-52.5 -216t52.5 -216t145.5 -79t146 79t53 216t-53 216t-146 79z" />
    <glyph glyph-name="otilde" unicode="&#xf5;" horiz-adv-x="1236" 
d="M836 1458h182q-8 -137 -73.5 -215t-182.5 -78q-55 0 -106.5 22t-93.5 44t-75 22q-77 0 -86 -88h-182q6 137 71.5 215t182.5 78q56 0 107.5 -22t93.5 -44t74 -22q40 0 61 21.5t27 66.5zM618 1073q255 0 406.5 -150t151.5 -403t-151.5 -403t-406.5 -150t-406 150t-151 403
t151 403t406 150zM618 815q-93 0 -145.5 -79t-52.5 -216t52.5 -216t145.5 -79t146 79t53 216t-53 216t-146 79z" />
    <glyph glyph-name="odieresis" unicode="&#xf6;" horiz-adv-x="1236" 
d="M532 1190h-292v268h292v-268zM995 1190h-290v268h290v-268zM618 1073q255 0 406.5 -150t151.5 -403t-151.5 -403t-406.5 -150t-406 150t-151 403t151 403t406 150zM618 815q-93 0 -145.5 -79t-52.5 -216t52.5 -216t145.5 -79t146 79t53 216t-53 216t-146 79z" />
    <glyph glyph-name="divide" unicode="&#xf7;" horiz-adv-x="1159" 
d="M723 903h-287v240h287v-240zM1038 516h-917v264h917v-264zM723 154h-287v241h287v-241z" />
    <glyph glyph-name="oslash" unicode="&#xf8;" horiz-adv-x="1236" 
d="M1122 1065l-102 -137q156 -150 156 -408q0 -253 -151.5 -403t-406.5 -150q-147 0 -272 56l-104 -142l-125 90l102 140q-158 152 -158 409q0 253 151 403t406 150q155 0 275 -57l104 143zM618 831q-103 0 -162 -84.5t-59 -226.5q0 -81 23 -155l317 428q-50 38 -119 38z
M618 209q103 0 162.5 84t59.5 227q0 78 -23 152l-315 -426q49 -37 116 -37z" />
    <glyph glyph-name="ugrave" unicode="&#xf9;" 
d="M659 1458l160 -303h-262l-289 303h391zM496 -27q-178 0 -279.5 110t-101.5 318v639h340v-602q0 -100 39 -150t112 -50q81 0 127.5 66.5t46.5 197.5v538h340v-1040h-317v125h-4q-115 -152 -303 -152z" />
    <glyph glyph-name="uacute" unicode="&#xfa;" 
d="M690 1155h-262l160 303h391zM496 -27q-178 0 -279.5 110t-101.5 318v639h340v-602q0 -100 39 -150t112 -50q81 0 127.5 66.5t46.5 197.5v538h340v-1040h-317v125h-4q-115 -152 -303 -152z" />
    <glyph glyph-name="ucircumflex" unicode="&#xfb;" 
d="M741 1155l-118 156l-119 -156h-283l242 303h319l242 -303h-283zM496 -27q-178 0 -279.5 110t-101.5 318v639h340v-602q0 -100 39 -150t112 -50q81 0 127.5 66.5t46.5 197.5v538h340v-1040h-317v125h-4q-115 -152 -303 -152z" />
    <glyph glyph-name="udieresis" unicode="&#xfc;" 
d="M539 1190h-293v268h293v-268zM1001 1190h-290v268h290v-268zM496 -27q-178 0 -279.5 110t-101.5 318v639h340v-602q0 -100 39 -150t112 -50q81 0 127.5 66.5t46.5 197.5v538h340v-1040h-317v125h-4q-115 -152 -303 -152z" />
    <glyph glyph-name="yacute" unicode="&#xfd;" horiz-adv-x="1085" 
d="M612 1155h-262l160 303h391zM1102 1040l-346 -1022q-78 -230 -188.5 -320.5t-311.5 -90.5q-88 0 -176 18v258q50 -16 104 -16q72 0 115 36t43 99q0 29 -10 65.5t-47 135.5l-305 837h366l100 -348q66 -238 105 -434h4q47 233 104 436l97 346h346z" />
    <glyph glyph-name="thorn" unicode="&#xfe;" horiz-adv-x="1249" 
d="M465 928h4q46 68 121 104.5t160 36.5q200 0 319 -149.5t119 -399.5t-118 -399.5t-316 -149.5q-86 0 -162.5 37t-122.5 105h-4v-492h-340v1837h340v-530zM637 811q-87 0 -139 -78.5t-52 -212.5t52 -212.5t139 -78.5q89 0 141.5 79.5t52.5 211.5t-52.5 211.5t-141.5 79.5z
" />
    <glyph glyph-name="ydieresis" unicode="&#xff;" horiz-adv-x="1085" 
d="M461 1190h-293v268h293v-268zM924 1190h-291v268h291v-268zM1102 1040l-346 -1022q-78 -230 -188.5 -320.5t-311.5 -90.5q-88 0 -176 18v258q50 -16 104 -16q72 0 115 36t43 99q0 29 -10 65.5t-47 135.5l-305 837h366l100 -348q66 -238 105 -434h4q47 233 104 436l97 346
h346z" />
    <glyph glyph-name="Amacron" unicode="&#x100;" horiz-adv-x="1464" 
d="M1100 1589h-735v211h735v-211zM997 309h-528l-94 -309h-373l498 1458h465l497 -1458h-372zM911 600l-30 98q-92 303 -148 531h-4q-63 -259 -143 -531l-29 -98h354z" />
    <glyph glyph-name="amacron" unicode="&#x101;" horiz-adv-x="1148" 
d="M920 1206h-736v211h736v-211zM563 1073q237 0 355 -107.5t118 -314.5v-358q0 -181 31 -293h-307q-15 62 -15 135h-4q-119 -162 -338 -162q-165 0 -261.5 90t-96.5 230q0 138 96 220t318 116q128 20 250 28v37q0 84 -39 124t-107 40q-69 0 -107.5 -37.5t-39.5 -107.5h-328
q4 76 34 140t86 114t147 78t208 28zM709 434v37q-100 -4 -185 -20q-76 -15 -109.5 -46.5t-33.5 -87.5q0 -55 34.5 -86.5t98.5 -31.5q90 0 143 53q31 32 41.5 72.5t10.5 109.5z" />
    <glyph glyph-name="Abreve" unicode="&#x102;" horiz-adv-x="1464" 
d="M731 1550q-166 0 -261.5 82.5t-102.5 233.5h217q3 -57 41.5 -88t105.5 -31t105 31t43 88h217q-7 -151 -103 -233.5t-262 -82.5zM997 309h-528l-94 -309h-373l498 1458h465l497 -1458h-372zM911 600l-30 98q-92 303 -148 531h-4q-63 -259 -143 -531l-29 -98h354z" />
    <glyph glyph-name="abreve" unicode="&#x103;" horiz-adv-x="1148" 
d="M698 1458h217q-7 -151 -102.5 -233t-261.5 -82t-262 82.5t-103 232.5h217q3 -57 41.5 -88t106.5 -31q67 0 104.5 31t42.5 88zM563 1073q237 0 355 -107.5t118 -314.5v-358q0 -181 31 -293h-307q-15 62 -15 135h-4q-119 -162 -338 -162q-165 0 -261.5 90t-96.5 230
q0 138 96 220t318 116q128 20 250 28v37q0 84 -39 124t-107 40q-69 0 -107.5 -37.5t-39.5 -107.5h-328q4 76 34 140t86 114t147 78t208 28zM709 434v37q-100 -4 -185 -20q-76 -15 -109.5 -46.5t-33.5 -87.5q0 -55 34.5 -86.5t98.5 -31.5q90 0 143 53q31 32 41.5 72.5
t10.5 109.5z" />
    <glyph glyph-name="Aogonek" unicode="&#x104;" horiz-adv-x="1464" 
d="M1397 -223q36 0 71 14v-168q-88 -31 -190 -31q-125 0 -188.5 49.5t-63.5 137.5q0 66 42 117.5t130 103.5h-108l-93 309h-528l-94 -309h-373l498 1458h465l497 -1458q-74 -49 -103.5 -86.5t-29.5 -75.5q0 -61 68 -61zM911 600l-30 98q-92 303 -148 531h-4
q-63 -259 -143 -531l-29 -98h354z" />
    <glyph glyph-name="aogonek" unicode="&#x105;" horiz-adv-x="1148" 
d="M1001 -223q37 0 72 14v-168q-88 -31 -190 -31q-125 0 -188.5 49.5t-63.5 137.5q0 66 42 117.5t130 103.5h-43q-15 62 -15 135h-4q-119 -162 -338 -162q-165 0 -261.5 90t-96.5 230q0 138 96 220t318 116q128 20 250 28v37q0 84 -39 124t-107 40q-69 0 -107.5 -37.5
t-39.5 -107.5h-328q4 76 34 140t86 114t147 78t208 28q237 0 355 -107.5t118 -314.5v-358q0 -181 31 -293q-74 -49 -103.5 -86.5t-29.5 -75.5q0 -61 67 -61zM709 434v37q-100 -4 -185 -20q-76 -15 -109.5 -46.5t-33.5 -87.5q0 -55 34.5 -86.5t98.5 -31.5q90 0 143 53
q31 32 41.5 72.5t10.5 109.5z" />
    <glyph glyph-name="Cacute" unicode="&#x106;" horiz-adv-x="1464" 
d="M817 1556h-262l160 310h391zM752 1491q282 0 452.5 -150.5t181.5 -406.5h-366q-12 119 -82.5 184.5t-185.5 65.5q-145 0 -228.5 -121.5t-83.5 -333.5q0 -211 83 -333t225 -122q116 0 187.5 67.5t86.5 190.5h371q-22 -269 -193 -417t-452 -148q-315 0 -496.5 203.5
t-181.5 558.5q0 354 182.5 558t499.5 204z" />
    <glyph glyph-name="cacute" unicode="&#x107;" horiz-adv-x="1177" 
d="M672 1155h-262l159 303h392zM604 1073q220 0 361.5 -118.5t158.5 -311.5h-352q-7 82 -51.5 128t-114.5 46q-89 0 -138.5 -78.5t-49.5 -216.5q0 -141 50.5 -219t139.5 -78q70 0 114 51.5t48 141.5h354q-17 -206 -156.5 -328.5t-361.5 -122.5q-249 0 -397 150.5t-148 404.5
q0 252 147.5 401.5t395.5 149.5z" />
    <glyph glyph-name="Ccircumflex" unicode="&#x108;" horiz-adv-x="1464" 
d="M592 1866h319l246 -310h-283l-122 162l-123 -162h-283zM752 1491q282 0 452.5 -150.5t181.5 -406.5h-366q-12 119 -82.5 184.5t-185.5 65.5q-145 0 -228.5 -121.5t-83.5 -333.5q0 -211 83 -333t225 -122q116 0 187.5 67.5t86.5 190.5h371q-22 -269 -193 -417t-452 -148
q-315 0 -496.5 203.5t-181.5 558.5q0 354 182.5 558t499.5 204z" />
    <glyph glyph-name="ccircumflex" unicode="&#x109;" horiz-adv-x="1177" 
d="M723 1155l-119 156l-119 -156h-282l241 303h320l242 -303h-283zM604 1073q220 0 361.5 -118.5t158.5 -311.5h-352q-7 82 -51.5 128t-114.5 46q-89 0 -138.5 -78.5t-49.5 -216.5q0 -141 50.5 -219t139.5 -78q70 0 114 51.5t48 141.5h354q-17 -206 -156.5 -328.5
t-361.5 -122.5q-249 0 -397 150.5t-148 404.5q0 252 147.5 401.5t395.5 149.5z" />
    <glyph glyph-name="Cdotaccent" unicode="&#x10a;" horiz-adv-x="1464" 
d="M922 1575h-340v268h340v-268zM752 1491q282 0 452.5 -150.5t181.5 -406.5h-366q-12 119 -82.5 184.5t-185.5 65.5q-145 0 -228.5 -121.5t-83.5 -333.5q0 -211 83 -333t225 -122q116 0 187.5 67.5t86.5 190.5h371q-22 -269 -193 -417t-452 -148q-315 0 -496.5 203.5
t-181.5 558.5q0 354 182.5 558t499.5 204z" />
    <glyph glyph-name="cdotaccent" unicode="&#x10b;" horiz-adv-x="1177" 
d="M774 1190h-340v268h340v-268zM604 1073q220 0 361.5 -118.5t158.5 -311.5h-352q-7 82 -51.5 128t-114.5 46q-89 0 -138.5 -78.5t-49.5 -216.5q0 -141 50.5 -219t139.5 -78q70 0 114 51.5t48 141.5h354q-17 -206 -156.5 -328.5t-361.5 -122.5q-249 0 -397 150.5
t-148 404.5q0 252 147.5 401.5t395.5 149.5z" />
    <glyph glyph-name="Ccaron" unicode="&#x10c;" horiz-adv-x="1464" 
d="M911 1556h-319l-246 310h283l123 -162l122 162h283zM752 1491q282 0 452.5 -150.5t181.5 -406.5h-366q-12 119 -82.5 184.5t-185.5 65.5q-145 0 -228.5 -121.5t-83.5 -333.5q0 -211 83 -333t225 -122q116 0 187.5 67.5t86.5 190.5h371q-22 -269 -193 -417t-452 -148
q-315 0 -496.5 203.5t-181.5 558.5q0 354 182.5 558t499.5 204z" />
    <glyph glyph-name="ccaron" unicode="&#x10d;" horiz-adv-x="1177" 
d="M764 1155h-320l-241 303h282l119 -155l119 155h283zM604 1073q220 0 361.5 -118.5t158.5 -311.5h-352q-7 82 -51.5 128t-114.5 46q-89 0 -138.5 -78.5t-49.5 -216.5q0 -141 50.5 -219t139.5 -78q70 0 114 51.5t48 141.5h354q-17 -206 -156.5 -328.5t-361.5 -122.5
q-249 0 -397 150.5t-148 404.5q0 252 147.5 401.5t395.5 149.5z" />
    <glyph glyph-name="Dcaron" unicode="&#x10e;" horiz-adv-x="1519" 
d="M856 1556h-319l-246 310h282l123 -162l123 162h283zM156 1458h516q375 0 576.5 -189t201.5 -540t-201.5 -540t-576.5 -189h-516v1458zM508 1157v-856h156q207 0 312 108t105 320t-105 320t-312 108h-156z" />
    <glyph glyph-name="dcaron" unicode="&#x10f;" horiz-adv-x="1249" 
d="M1124 0h-327v129h-4q-46 -76 -123 -117t-166 -41q-201 0 -322 149.5t-121 399.5t118.5 399.5t316.5 149.5q86 0 162 -36.5t122 -104.5h4v530h340v-1458zM1374 1094h-192l49 364h266zM612 811q-89 0 -141.5 -79.5t-52.5 -211.5t52.5 -211.5t141.5 -79.5q87 0 139 78.5
t52 212.5t-52 212.5t-139 78.5z" />
    <glyph glyph-name="Dcroat" unicode="&#x110;" horiz-adv-x="1523" 
d="M158 1458h518q374 0 576 -189.5t202 -539.5t-202 -539.5t-576 -189.5h-518v621h-127v233h127v604zM512 301h156q207 0 312 108t105 320t-105 320t-312 108h-156v-303h313v-233h-313v-320z" />
    <glyph glyph-name="dcroat" unicode="&#x111;" horiz-adv-x="1236" 
d="M1260 1171h-136v-1171h-327v129h-4q-46 -76 -123 -117t-166 -41q-201 0 -322 149.5t-121 399.5t118.5 399.5t316.5 149.5q86 0 162 -36.5t122 -104.5h4v243h-262v160h262v127h340v-127h136v-160zM612 229q87 0 139 78.5t52 212.5t-52 212.5t-139 78.5q-89 0 -141.5 -79.5
t-52.5 -211.5t52.5 -211.5t141.5 -79.5z" />
    <glyph glyph-name="Emacron" unicode="&#x112;" horiz-adv-x="1298" 
d="M1040 1589h-735v211h735v-211zM1186 1161h-676v-276h631v-293h-631v-295h692v-297h-1046v1458h1030v-297z" />
    <glyph glyph-name="emacron" unicode="&#x113;" horiz-adv-x="1196" 
d="M965 1206h-736v211h736v-211zM598 195q72 0 119 34.5t55 89.5h346q-33 -153 -173 -252.5t-343 -99.5q-255 0 -398 155t-143 406q0 155 62 277.5t185 195t290 72.5q182 0 311.5 -89t184.5 -245q41 -110 41 -288h-740q6 -137 61 -196.5t142 -59.5zM598 850
q-79 0 -131 -50.5t-66 -156.5h392q-10 104 -63.5 155.5t-131.5 51.5z" />
    <glyph glyph-name="Ebreve" unicode="&#x114;" horiz-adv-x="1298" 
d="M819 1866h217q-7 -151 -102.5 -233.5t-261.5 -82.5t-262 82.5t-103 233.5h217q3 -57 41.5 -88t106.5 -31q67 0 104.5 31t42.5 88zM1186 1161h-676v-276h631v-293h-631v-295h692v-297h-1046v1458h1030v-297z" />
    <glyph glyph-name="ebreve" unicode="&#x115;" horiz-adv-x="1196" 
d="M596 1143q-166 0 -262 82.5t-103 232.5h218q3 -57 41.5 -88t105.5 -31t104.5 31t42.5 88h218q-7 -150 -103 -232.5t-262 -82.5zM598 195q72 0 119 34.5t55 89.5h346q-33 -153 -173 -252.5t-343 -99.5q-255 0 -398 155t-143 406q0 155 62 277.5t185 195t290 72.5
q182 0 311.5 -89t184.5 -245q41 -110 41 -288h-740q6 -137 61 -196.5t142 -59.5zM598 850q-79 0 -131 -50.5t-66 -156.5h392q-10 104 -63.5 155.5t-131.5 51.5z" />
    <glyph glyph-name="Edotaccent" unicode="&#x116;" horiz-adv-x="1298" 
d="M842 1575h-340v268h340v-268zM1186 1161h-676v-276h631v-293h-631v-295h692v-297h-1046v1458h1030v-297z" />
    <glyph glyph-name="edotaccent" unicode="&#x117;" horiz-adv-x="1196" 
d="M766 1190h-340v268h340v-268zM598 195q72 0 119 34.5t55 89.5h346q-33 -153 -173 -252.5t-343 -99.5q-255 0 -398 155t-143 406q0 155 62 277.5t185 195t290 72.5q182 0 311.5 -89t184.5 -245q41 -110 41 -288h-740q6 -137 61 -196.5t142 -59.5zM598 850
q-79 0 -131 -50.5t-66 -156.5h392q-10 104 -63.5 155.5t-131.5 51.5z" />
    <glyph glyph-name="Eogonek" unicode="&#x118;" horiz-adv-x="1298" 
d="M1137 -223q36 0 71 14v-168q-88 -31 -190 -31q-125 0 -188.5 49.5t-63.5 137.5q0 66 42 117.5t130 103.5h-782v1458h1030v-297h-676v-276h631v-293h-631v-295h692v-297q-74 -49 -103.5 -86.5t-29.5 -75.5q0 -61 68 -61z" />
    <glyph glyph-name="eogonek" unicode="&#x119;" horiz-adv-x="1196" 
d="M954 55q-65 -64 -91.5 -111.5t-26.5 -95.5q0 -71 69 -71q39 0 70 14v-168q-84 -31 -189 -31q-126 0 -190 49.5t-64 137.5q0 106 121 188v4q-32 -4 -51 -4q-255 0 -398 155t-143 406q0 155 62 277.5t185 195t290 72.5q182 0 311.5 -89t184.5 -245q41 -110 41 -288h-740
q6 -137 61 -196.5t142 -59.5q72 0 119 34.5t55 89.5h346q-27 -133 -164 -264zM598 850q-79 0 -131 -50.5t-66 -156.5h392q-10 104 -63.5 155.5t-131.5 51.5z" />
    <glyph glyph-name="Ecaron" unicode="&#x11a;" horiz-adv-x="1298" 
d="M831 1556h-319l-246 310h283l123 -162l123 162h282zM1186 1161h-676v-276h631v-293h-631v-295h692v-297h-1046v1458h1030v-297z" />
    <glyph glyph-name="ecaron" unicode="&#x11b;" horiz-adv-x="1196" 
d="M436 1155l-241 303h282l119 -155l119 155h282l-241 -303h-320zM598 195q72 0 119 34.5t55 89.5h346q-33 -153 -173 -252.5t-343 -99.5q-255 0 -398 155t-143 406q0 155 62 277.5t185 195t290 72.5q182 0 311.5 -89t184.5 -245q41 -110 41 -288h-740q6 -137 61 -196.5
t142 -59.5zM598 850q-79 0 -131 -50.5t-66 -156.5h392q-10 104 -63.5 155.5t-131.5 51.5z" />
    <glyph glyph-name="Gcircumflex" unicode="&#x11c;" horiz-adv-x="1538" 
d="M602 1866h320l245 -310h-282l-123 162l-123 -162h-283zM776 1491q273 0 441 -134.5t188 -363.5h-381q-15 96 -79 148.5t-169 52.5q-156 0 -246 -126t-90 -345q0 -224 89.5 -352.5t244.5 -128.5q137 0 213.5 79t79.5 224h-313v274h645v-819h-303v147h-4
q-63 -85 -167.5 -130.5t-238.5 -45.5q-285 0 -450.5 201.5t-165.5 550.5q0 357 189.5 562.5t516.5 205.5z" />
    <glyph glyph-name="gcircumflex" unicode="&#x11d;" horiz-adv-x="1232" 
d="M698 1155l-118 156l-119 -156h-283l242 303h319l242 -303h-283zM492 1069q184 0 294 -168h5v139h317v-972q0 -236 -136 -351.5t-386 -115.5q-218 0 -341.5 87.5t-138.5 245.5h330q5 -54 45.5 -84t110.5 -30q91 0 138.5 57t47.5 191v96h-4q-109 -152 -289 -152
q-195 0 -309.5 143.5t-114.5 385.5t117 385t314 143zM598 803q-85 0 -134.5 -70.5t-49.5 -191.5q0 -120 49.5 -190t134.5 -70q87 0 138.5 70.5t51.5 189.5q0 120 -51 191t-139 71z" />
    <glyph glyph-name="Gbreve" unicode="&#x11e;" horiz-adv-x="1538" 
d="M909 1866h217q-7 -151 -102.5 -233.5t-261.5 -82.5t-262 82.5t-103 233.5h217q3 -57 41.5 -88t106.5 -31q67 0 104.5 31t42.5 88zM776 1491q273 0 441 -134.5t188 -363.5h-381q-15 96 -79 148.5t-169 52.5q-156 0 -246 -126t-90 -345q0 -224 89.5 -352.5t244.5 -128.5
q137 0 213.5 79t79.5 224h-313v274h645v-819h-303v147h-4q-63 -85 -167.5 -130.5t-238.5 -45.5q-285 0 -450.5 201.5t-165.5 550.5q0 357 189.5 562.5t516.5 205.5z" />
    <glyph glyph-name="gbreve" unicode="&#x11f;" horiz-adv-x="1232" 
d="M727 1458h217q-7 -151 -102.5 -233t-261.5 -82t-262 82.5t-103 232.5h217q3 -57 41.5 -88t106.5 -31q67 0 104.5 31t42.5 88zM492 1069q184 0 294 -168h5v139h317v-972q0 -236 -136 -351.5t-386 -115.5q-218 0 -341.5 87.5t-138.5 245.5h330q5 -54 45.5 -84t110.5 -30
q91 0 138.5 57t47.5 191v96h-4q-109 -152 -289 -152q-195 0 -309.5 143.5t-114.5 385.5t117 385t314 143zM598 803q-85 0 -134.5 -70.5t-49.5 -191.5q0 -120 49.5 -190t134.5 -70q87 0 138.5 70.5t51.5 189.5q0 120 -51 191t-139 71z" />
    <glyph glyph-name="Gdotaccent" unicode="&#x120;" horiz-adv-x="1538" 
d="M932 1575h-340v268h340v-268zM776 1491q273 0 441 -134.5t188 -363.5h-381q-15 96 -79 148.5t-169 52.5q-156 0 -246 -126t-90 -345q0 -224 89.5 -352.5t244.5 -128.5q137 0 213.5 79t79.5 224h-313v274h645v-819h-303v147h-4q-63 -85 -167.5 -130.5t-238.5 -45.5
q-285 0 -450.5 201.5t-165.5 550.5q0 357 189.5 562.5t516.5 205.5z" />
    <glyph glyph-name="gdotaccent" unicode="&#x121;" horiz-adv-x="1232" 
d="M750 1190h-340v268h340v-268zM492 1069q184 0 294 -168h5v139h317v-972q0 -236 -136 -351.5t-386 -115.5q-218 0 -341.5 87.5t-138.5 245.5h330q5 -54 45.5 -84t110.5 -30q91 0 138.5 57t47.5 191v96h-4q-109 -152 -289 -152q-195 0 -309.5 143.5t-114.5 385.5t117 385
t314 143zM598 803q-85 0 -134.5 -70.5t-49.5 -191.5q0 -120 49.5 -190t134.5 -70q87 0 138.5 70.5t51.5 189.5q0 120 -51 191t-139 71z" />
    <glyph glyph-name="Gcommaaccent" unicode="&#x122;" horiz-adv-x="1538" 
d="M776 1491q273 0 441 -134.5t188 -363.5h-381q-15 96 -79 148.5t-169 52.5q-156 0 -246 -126t-90 -345q0 -224 89.5 -352.5t244.5 -128.5q137 0 213.5 79t79.5 224h-313v274h645v-819h-303v147h-4q-63 -85 -167.5 -130.5t-238.5 -45.5q-285 0 -450.5 201.5t-165.5 550.5
q0 357 189.5 562.5t516.5 205.5zM901 -340l-145 -223h-129l94 223h-94v229h274v-229z" />
    <glyph glyph-name="gcommaaccent" unicode="&#x123;" horiz-adv-x="1232" 
d="M623 1401h94v-230h-275v230l146 223h129zM492 1069q184 0 294 -168h5v139h317v-972q0 -236 -136 -351.5t-386 -115.5q-218 0 -341.5 87.5t-138.5 245.5h330q5 -54 45.5 -84t110.5 -30q91 0 138.5 57t47.5 191v96h-4q-109 -152 -289 -152q-195 0 -309.5 143.5
t-114.5 385.5t117 385t314 143zM598 803q-85 0 -134.5 -70.5t-49.5 -191.5q0 -120 49.5 -190t134.5 -70q87 0 138.5 70.5t51.5 189.5q0 120 -51 191t-139 71z" />
    <glyph glyph-name="Hcircumflex" unicode="&#x124;" horiz-adv-x="1558" 
d="M618 1866h320l246 -310h-283l-123 162l-123 -162h-282zM1403 0h-354v604h-539v-604h-354v1458h354v-553h539v553h354v-1458z" />
    <glyph glyph-name="hcircumflex" unicode="&#x125;" 
d="M461 1866h319l246 -310h-283l-122 162l-123 -162h-283zM465 936h4q106 131 281 131q178 0 279 -109.5t101 -318.5v-639h-339v602q0 100 -39.5 150.5t-112.5 50.5q-81 0 -127.5 -66.5t-46.5 -197.5v-539h-340v1458h340v-522z" />
    <glyph glyph-name="Hbar" unicode="&#x126;" horiz-adv-x="1558" 
d="M1511 1155h-108v-1155h-354v604h-539v-604h-354v1155h-109v164h109v139h354v-139h539v139h354v-139h108v-164zM1049 1155h-539v-250h539v250z" />
    <glyph glyph-name="hbar" unicode="&#x127;" 
d="M750 1067q178 0 279 -109.5t101 -318.5v-639h-339v602q0 100 -39.5 150.5t-112.5 50.5q-81 0 -127.5 -66.5t-46.5 -197.5v-539h-340v1171h-145v150h145v137h340v-137h250v-150h-250v-235h4q106 131 281 131z" />
    <glyph glyph-name="Itilde" unicode="&#x128;" horiz-adv-x="665" 
d="M549 1866h182q-8 -137 -73.5 -215t-182.5 -78q-55 0 -106 22t-93 44t-75 22q-77 0 -86 -88h-183q6 137 71.5 215t182.5 78q56 0 107.5 -22t93.5 -44t74 -22q40 0 61 21.5t27 66.5zM510 0h-354v1458h354v-1458z" />
    <glyph glyph-name="itilde" unicode="&#x129;" horiz-adv-x="589" 
d="M489 1458h160q-8 -138 -67.5 -216.5t-167.5 -78.5q-39 0 -76 14.5t-59.5 31.5t-51 31.5t-53.5 14.5q-68 0 -74 -92h-157q6 138 65 216.5t166 78.5q39 0 76 -14.5t60 -31.5t51.5 -31.5t52.5 -14.5q66 0 75 92zM465 0h-340v1040h340v-1040z" />
    <glyph glyph-name="Imacron" unicode="&#x12a;" horiz-adv-x="665" 
d="M700 1589h-735v211h735v-211zM510 0h-354v1458h354v-1458z" />
    <glyph glyph-name="imacron" unicode="&#x12b;" horiz-adv-x="589" 
d="M602 1212h-614v211h614v-211zM465 0h-340v1040h340v-1040z" />
    <glyph glyph-name="Ibreve" unicode="&#x12c;" horiz-adv-x="665" 
d="M479 1866h217q-7 -151 -102.5 -233.5t-261.5 -82.5t-262 82.5t-103 233.5h217q3 -57 41.5 -88t106.5 -31q67 0 104.5 31t42.5 88zM510 0h-354v1458h354v-1458z" />
    <glyph glyph-name="ibreve" unicode="&#x12d;" horiz-adv-x="589" 
d="M422 1458h205q-6 -150 -92.5 -232.5t-239.5 -82.5q-154 0 -240 82t-92 233h205q9 -123 127 -123t127 123zM465 0h-340v1040h340v-1040z" />
    <glyph glyph-name="Iogonek" unicode="&#x12e;" horiz-adv-x="665" 
d="M444 -223q37 0 72 14v-168q-88 -31 -190 -31q-125 0 -188.5 49.5t-63.5 137.5q0 66 42 117.5t130 103.5h-90v1458h354v-1458q-74 -49 -103.5 -86.5t-29.5 -75.5q0 -61 67 -61z" />
    <glyph glyph-name="iogonek" unicode="&#x12f;" horiz-adv-x="589" 
d="M465 1190h-340v268h340v-268zM399 -223q37 0 72 14v-168q-88 -31 -190 -31q-125 0 -188.5 49.5t-63.5 137.5q0 66 42 117.5t130 103.5h-76v1040h340v-1040q-74 -49 -103.5 -86.5t-29.5 -75.5q0 -61 67 -61z" />
    <glyph glyph-name="Idotaccent" unicode="&#x130;" horiz-adv-x="665" 
d="M502 1575h-340v268h340v-268zM510 0h-354v1458h354v-1458z" />
    <glyph glyph-name="dotlessi" unicode="&#x131;" horiz-adv-x="589" 
d="M465 0h-340v1040h340v-1040z" />
    <glyph glyph-name="IJ" unicode="&#x132;" horiz-adv-x="1505" 
d="M510 0h-354v1458h354v-1458zM1360 1458v-964q0 -263 -121.5 -386.5t-382.5 -123.5q-96 0 -160 18v295q48 -10 92 -10q80 0 126 24t69 86t23 174v887h354z" />
    <glyph glyph-name="ij" unicode="&#x133;" horiz-adv-x="1181" 
d="M465 1190h-340v268h340v-268zM1057 1190h-340v268h340v-268zM465 0h-340v1040h340v-1040zM1057 1040v-1038q0 -200 -103 -295.5t-280 -95.5q-96 0 -164 18v238q24 -6 53 -6q80 0 117 43t37 155v981h340z" />
    <glyph glyph-name="Jcircumflex" unicode="&#x134;" horiz-adv-x="839" 
d="M360 1866h320l246 -310h-283l-123 162l-123 -162h-282zM694 1458v-964q0 -263 -121.5 -386.5t-382.5 -123.5q-94 0 -159 18v295q48 -10 92 -10q80 0 125.5 24t68.5 86t23 174v887h354z" />
    <glyph glyph-name="jcircumflex" unicode="&#x135;" horiz-adv-x="591" 
d="M668 1159h-267l-104 146l-102 -146h-269l221 299h299zM467 1040v-1038q0 -200 -103 -295.5t-280 -95.5q-96 0 -164 18v238q24 -6 53 -6q80 0 117 43t37 155v981h340z" />
    <glyph glyph-name="Kcommaaccent" unicode="&#x136;" horiz-adv-x="1413" 
d="M836 768l569 -768h-447l-444 672h-4v-672h-354v1458h354v-629h4l428 629h424zM844 -340l-146 -223h-129l95 223h-95v229h275v-229z" />
    <glyph glyph-name="kcommaaccent" unicode="&#x137;" horiz-adv-x="1159" 
d="M1180 0h-418l-293 471h-4v-471h-340v1458h340v-827h4l279 409h393l-371 -485zM471 -111h274v-229l-145 -223h-129l94 223h-94v229z" />
    <glyph glyph-name="kgreenlandic" unicode="&#x138;" horiz-adv-x="1181" 
d="M1180 0h-418l-293 471h-4v-471h-340v1040h340v-409h4l279 409h393l-371 -485z" />
    <glyph glyph-name="Lacute" unicode="&#x139;" horiz-adv-x="1187" 
d="M459 1556h-262l159 310h392zM510 301h659v-301h-1013v1458h354v-1157z" />
    <glyph glyph-name="lacute" unicode="&#x13a;" horiz-adv-x="589" 
d="M387 1573h-262l160 303h391zM465 0h-340v1458h340v-1458z" />
    <glyph glyph-name="Lcommaaccent" unicode="&#x13b;" horiz-adv-x="1187" 
d="M510 301h659v-301h-1013v1458h354v-1157zM801 -340l-146 -223h-129l95 223h-95v229h275v-229z" />
    <glyph glyph-name="lcommaaccent" unicode="&#x13c;" horiz-adv-x="589" 
d="M465 0h-340v1458h340v-1458zM432 -340l-145 -223h-129l94 223h-94v229h274v-229z" />
    <glyph glyph-name="Lcaron" unicode="&#x13d;" horiz-adv-x="1187" 
d="M510 301h659v-301h-1013v1458h354v-1157zM776 989h-192l49 469h266z" />
    <glyph glyph-name="lcaron" unicode="&#x13e;" horiz-adv-x="589" 
d="M465 0h-340v1458h340v-1458zM715 1094h-193l49 364h267z" />
    <glyph glyph-name="Ldot" unicode="&#x13f;" horiz-adv-x="1357" 
d="M510 301h659v-301h-1013v1458h354v-1157zM1186 707h-361v376h361v-376z" />
    <glyph glyph-name="ldot" unicode="&#x140;" horiz-adv-x="1050" 
d="M465 0h-340v1458h340v-1458zM1001 541h-360v377h360v-377z" />
    <glyph glyph-name="Lslash" unicode="&#x141;" horiz-adv-x="1202" 
d="M1184 301v-301h-1014v569l-145 -86v275l145 86v614h354v-434l295 176v-274l-295 -176v-449h660z" />
    <glyph glyph-name="lslash" unicode="&#x142;" horiz-adv-x="720" 
d="M700 813l-170 -100v-713h-340v551l-170 -100v260l170 100v647h340v-485l170 100v-260z" />
    <glyph glyph-name="Nacute" unicode="&#x143;" horiz-adv-x="1640" 
d="M887 1556h-262l159 310h392zM1487 0h-512l-254 575q-135 302 -238 584h-4q17 -349 17 -614v-545h-340v1458h510l256 -575q127 -291 237 -584h4q-16 273 -16 614v545h340v-1458z" />
    <glyph glyph-name="nacute" unicode="&#x144;" 
d="M694 1155h-262l160 303h391zM750 1067q178 0 279 -109.5t101 -318.5v-639h-339v602q0 100 -39.5 150.5t-112.5 50.5q-81 0 -127.5 -66.5t-46.5 -197.5v-539h-340v1040h317v-125h4q115 152 304 152z" />
    <glyph glyph-name="Ncommaaccent" unicode="&#x145;" horiz-adv-x="1640" 
d="M1487 0h-512l-254 575q-135 302 -238 584h-4q17 -349 17 -614v-545h-340v1458h510l256 -575q127 -291 237 -584h4q-16 273 -16 614v545h340v-1458zM958 -340l-145 -223h-129l94 223h-94v229h274v-229z" />
    <glyph glyph-name="ncommaaccent" unicode="&#x146;" 
d="M750 1067q178 0 279 -109.5t101 -318.5v-639h-339v602q0 100 -39.5 150.5t-112.5 50.5q-81 0 -127.5 -66.5t-46.5 -197.5v-539h-340v1040h317v-125h4q115 152 304 152zM766 -340l-145 -223h-129l94 223h-94v229h274v-229z" />
    <glyph glyph-name="Ncaron" unicode="&#x147;" horiz-adv-x="1640" 
d="M979 1556h-320l-245 310h282l123 -162l123 162h283zM1487 0h-512l-254 575q-135 302 -238 584h-4q17 -349 17 -614v-545h-340v1458h510l256 -575q127 -291 237 -584h4q-16 273 -16 614v545h340v-1458z" />
    <glyph glyph-name="ncaron" unicode="&#x148;" 
d="M788 1155h-319l-242 303h283l119 -155l119 155h282zM750 1067q178 0 279 -109.5t101 -318.5v-639h-339v602q0 100 -39.5 150.5t-112.5 50.5q-81 0 -127.5 -66.5t-46.5 -197.5v-539h-340v1040h317v-125h4q115 152 304 152z" />
    <glyph glyph-name="napostrophe" unicode="&#x149;" horiz-adv-x="1593" 
d="M424 1139l-158 -312h-170l121 312h-100v319h307v-319zM1096 1067q179 0 281 -110t102 -318v-639h-340v602q0 100 -39.5 150.5t-114.5 50.5q-81 0 -126.5 -66.5t-45.5 -197.5v-539h-340v1040h315v-125h5q115 152 303 152z" />
    <glyph glyph-name="Eng" unicode="&#x14a;" horiz-adv-x="1556" 
d="M1401 1458v-1466q0 -198 -104 -293.5t-281 -95.5q-94 0 -162 18v234q28 -7 57 -7q140 0 140 121q0 35 -14.5 70.5t-73.5 138.5l-250 447q-138 253 -234 467h-4q21 -258 21 -517v-575h-340v1458h438l250 -446q136 -245 231 -467h4q-18 261 -18 518v395h340z" />
    <glyph glyph-name="eng" unicode="&#x14b;" 
d="M758 1069q166 0 262 -96q58 -58 84 -140.5t26 -222.5v-604q0 -200 -102.5 -296.5t-279.5 -96.5q-94 0 -164 18v240q24 -6 53 -6q80 0 117 42.5t37 153.5v517q0 76 -11 118t-37 68q-41 41 -104 41q-80 0 -127 -66t-47 -198v-541h-340v1040h332v-114h4q114 143 297 143z
" />
    <glyph glyph-name="Omacron" unicode="&#x14c;" horiz-adv-x="1550" 
d="M1143 1589h-735v211h735v-211zM776 1491q325 0 515 -205t190 -557t-190 -557t-515 -205q-327 0 -516.5 205t-189.5 557t189.5 557t516.5 205zM776 1184q-160 0 -248 -119.5t-88 -335.5t88 -335.5t248 -119.5q158 0 246 120t88 335t-88 335t-246 120z" />
    <glyph glyph-name="omacron" unicode="&#x14d;" horiz-adv-x="1236" 
d="M985 1206h-735v211h735v-211zM618 1073q255 0 406.5 -150t151.5 -403t-151.5 -403t-406.5 -150t-406 150t-151 403t151 403t406 150zM618 815q-93 0 -145.5 -79t-52.5 -216t52.5 -216t145.5 -79t146 79t53 216t-53 216t-146 79z" />
    <glyph glyph-name="Obreve" unicode="&#x14e;" horiz-adv-x="1550" 
d="M924 1866h217q-7 -151 -103 -233.5t-262 -82.5t-261.5 82.5t-102.5 233.5h217q3 -57 41.5 -88t105.5 -31t105 31t43 88zM776 1491q325 0 515 -205t190 -557t-190 -557t-515 -205q-327 0 -516.5 205t-189.5 557t189.5 557t516.5 205zM776 1184q-160 0 -248 -119.5
t-88 -335.5t88 -335.5t248 -119.5q158 0 246 120t88 335t-88 335t-246 120z" />
    <glyph glyph-name="obreve" unicode="&#x14f;" horiz-adv-x="1236" 
d="M766 1458h217q-7 -150 -103 -232.5t-262 -82.5t-261.5 82t-102.5 233h217q3 -57 41.5 -88t105.5 -31t105 31t43 88zM618 1073q255 0 406.5 -150t151.5 -403t-151.5 -403t-406.5 -150t-406 150t-151 403t151 403t406 150zM618 815q-93 0 -145.5 -79t-52.5 -216t52.5 -216
t145.5 -79t146 79t53 216t-53 216t-146 79z" />
    <glyph glyph-name="Ohungarumlaut" unicode="&#x150;" horiz-adv-x="1550" 
d="M616 1556h-251l200 310h340zM1038 1556h-254l203 310h340zM776 1491q325 0 515 -205t190 -557t-190 -557t-515 -205q-327 0 -516.5 205t-189.5 557t189.5 557t516.5 205zM776 1184q-160 0 -248 -119.5t-88 -335.5t88 -335.5t248 -119.5q158 0 246 120t88 335t-88 335
t-246 120z" />
    <glyph glyph-name="ohungarumlaut" unicode="&#x151;" horiz-adv-x="1236" 
d="M481 1155h-252l201 303h340zM903 1155h-254l203 303h340zM618 1073q255 0 406.5 -150t151.5 -403t-151.5 -403t-406.5 -150t-406 150t-151 403t151 403t406 150zM618 815q-93 0 -145.5 -79t-52.5 -216t52.5 -216t145.5 -79t146 79t53 216t-53 216t-146 79z" />
    <glyph glyph-name="OE" unicode="&#x152;" horiz-adv-x="2091" 
d="M1980 1161h-677v-276h628v-293h-628v-295h692v-297h-1137q-377 0 -582.5 190t-205.5 539t205.5 539t582.5 190h1122v-297zM954 1161h-96q-420 0 -420 -432q0 -213 105 -322.5t315 -109.5h96v864z" />
    <glyph glyph-name="oe" unicode="&#x153;" horiz-adv-x="1921" 
d="M1331 195q69 0 113.5 34.5t52.5 89.5h348q-33 -153 -172 -252.5t-340 -99.5q-226 0 -360 144q-138 -144 -361 -144q-252 0 -401.5 150t-149.5 403t149.5 403t401.5 150q224 0 361 -143q133 143 356 143q182 0 310.5 -89t181.5 -245q39 -113 39 -288h-725
q11 -256 196 -256zM1329 850q-74 0 -124 -50.5t-64 -156.5h377q-9 104 -60 155.5t-129 51.5zM618 225q93 0 146 79t53 216t-53 216t-146 79t-145.5 -79t-52.5 -216t52.5 -216t145.5 -79z" />
    <glyph glyph-name="Racute" unicode="&#x154;" horiz-adv-x="1402" 
d="M750 1556h-263l160 310h391zM156 1458h592q536 0 536 -416q0 -132 -71 -225.5t-197 -130.5v-4q78 -28 125 -90t98 -203l141 -389h-381l-110 330q-39 114 -91.5 158t-154.5 44h-133v-532h-354v1458zM510 1184v-383h195q229 0 229 196q0 187 -244 187h-180z" />
    <glyph glyph-name="racute" unicode="&#x155;" horiz-adv-x="849" 
d="M516 1155h-262l160 303h391zM737 1057q49 0 99 -13v-290q-58 10 -105 10q-129 0 -197.5 -79t-68.5 -228v-457h-340v1040h315v-143h4q104 160 293 160z" />
    <glyph glyph-name="Rcommaaccent" unicode="&#x156;" horiz-adv-x="1402" 
d="M156 1458h592q536 0 536 -416q0 -132 -71 -225.5t-197 -130.5v-4q78 -28 125 -90t98 -203l141 -389h-381l-110 330q-39 114 -91.5 158t-154.5 44h-133v-532h-354v1458zM510 1184v-383h195q229 0 229 196q0 187 -244 187h-180zM862 -340l-145 -223h-129l94 223h-94v229
h274v-229z" />
    <glyph glyph-name="rcommaaccent" unicode="&#x157;" horiz-adv-x="849" 
d="M737 1057q49 0 99 -13v-290q-58 10 -105 10q-129 0 -197.5 -79t-68.5 -228v-457h-340v1040h315v-143h4q104 160 293 160zM432 -340l-145 -223h-129l94 223h-94v229h274v-229z" />
    <glyph glyph-name="Rcaron" unicode="&#x158;" horiz-adv-x="1402" 
d="M842 1556h-320l-246 310h283l123 -162l123 162h282zM156 1458h592q536 0 536 -416q0 -132 -71 -225.5t-197 -130.5v-4q78 -28 125 -90t98 -203l141 -389h-381l-110 330q-39 114 -91.5 158t-154.5 44h-133v-532h-354v1458zM510 1184v-383h195q229 0 229 196
q0 187 -244 187h-180z" />
    <glyph glyph-name="rcaron" unicode="&#x159;" horiz-adv-x="849" 
d="M608 1155h-319l-242 303h283l119 -155l118 155h283zM737 1057q49 0 99 -13v-290q-58 10 -105 10q-129 0 -197.5 -79t-68.5 -228v-457h-340v1040h315v-143h4q104 160 293 160z" />
    <glyph glyph-name="Sacute" unicode="&#x15a;" horiz-adv-x="1320" 
d="M711 1556h-262l159 310h391zM645 1491q277 0 424.5 -122t147.5 -355h-369q0 97 -56 150t-161 53q-87 0 -140 -38t-53 -100q0 -69 60.5 -103.5t230.5 -76.5q72 -18 119 -31.5t107.5 -35.5t99.5 -45t80.5 -58t65 -76t39 -96.5t15.5 -122.5q0 -214 -162 -340.5t-434 -126.5
q-287 0 -448.5 132.5t-161.5 375.5h377q0 -225 242 -225q100 0 157.5 41t57.5 112q0 24 -6 43t-14.5 33t-29 27.5t-37 22t-53 20t-62 18.5t-77.5 21q-57 15 -92 24.5t-86.5 26t-83.5 30.5t-73 36t-66.5 44.5t-52.5 54t-42 67t-24.5 80t-9.5 96.5q0 201 155 322.5t416 121.5z
" />
    <glyph glyph-name="sacute" unicode="&#x15b;" horiz-adv-x="1110" 
d="M614 1155h-262l160 303h391zM547 1073q219 0 340 -88t121 -260h-324q0 133 -139 133q-58 0 -89.5 -21.5t-31.5 -60.5q0 -45 42.5 -67.5t170.5 -55.5q42 -11 65.5 -17.5t63.5 -19t63.5 -23t56.5 -27.5t53 -34.5t42.5 -42t34.5 -51.5t20 -62t8 -75q0 -152 -129 -243
t-354 -91q-242 0 -370 92.5t-128 278.5h343q0 -148 159 -148q63 0 97 23.5t34 62.5q0 53 -48 79t-191 63q-41 10 -60.5 15.5t-57.5 17t-57.5 20.5t-51 25t-48 31.5t-37.5 39t-31.5 49.5t-18 59.5t-7.5 72.5q0 145 121 235t338 90z" />
    <glyph glyph-name="Scircumflex" unicode="&#x15c;" horiz-adv-x="1320" 
d="M483 1866h320l246 -310h-283l-123 162l-123 -162h-282zM645 1491q277 0 424.5 -122t147.5 -355h-369q0 97 -56 150t-161 53q-87 0 -140 -38t-53 -100q0 -69 60.5 -103.5t230.5 -76.5q72 -18 119 -31.5t107.5 -35.5t99.5 -45t80.5 -58t65 -76t39 -96.5t15.5 -122.5
q0 -214 -162 -340.5t-434 -126.5q-287 0 -448.5 132.5t-161.5 375.5h377q0 -225 242 -225q100 0 157.5 41t57.5 112q0 24 -6 43t-14.5 33t-29 27.5t-37 22t-53 20t-62 18.5t-77.5 21q-57 15 -92 24.5t-86.5 26t-83.5 30.5t-73 36t-66.5 44.5t-52.5 54t-42 67t-24.5 80
t-9.5 96.5q0 201 155 322.5t416 121.5z" />
    <glyph glyph-name="scircumflex" unicode="&#x15d;" horiz-adv-x="1110" 
d="M666 1155l-119 156l-119 -156h-283l242 303h320l241 -303h-282zM547 1073q219 0 340 -88t121 -260h-324q0 133 -139 133q-58 0 -89.5 -21.5t-31.5 -60.5q0 -45 42.5 -67.5t170.5 -55.5q42 -11 65.5 -17.5t63.5 -19t63.5 -23t56.5 -27.5t53 -34.5t42.5 -42t34.5 -51.5
t20 -62t8 -75q0 -152 -129 -243t-354 -91q-242 0 -370 92.5t-128 278.5h343q0 -148 159 -148q63 0 97 23.5t34 62.5q0 53 -48 79t-191 63q-41 10 -60.5 15.5t-57.5 17t-57.5 20.5t-51 25t-48 31.5t-37.5 39t-31.5 49.5t-18 59.5t-7.5 72.5q0 145 121 235t338 90z" />
    <glyph glyph-name="Scedilla" unicode="&#x15e;" horiz-adv-x="1320" 
d="M1255 434q0 -202 -146 -327.5t-394 -137.5l-58 -92q30 10 68 10q79 0 128.5 -42.5t49.5 -116.5q0 -89 -68 -146t-194 -57q-134 0 -246 65l54 109q89 -45 165 -45q43 0 67 16.5t24 46.5t-24.5 49t-66.5 19q-36 0 -63 -12l-59 55l86 141q-250 20 -389.5 151t-139.5 355h377
q0 -225 242 -225q100 0 157.5 41t57.5 112q0 24 -6 43t-14.5 33t-29 27.5t-37 22t-53 20t-62 18.5t-77.5 21q-57 15 -92 24.5t-86.5 26t-83.5 30.5t-73 36t-66.5 44.5t-52.5 54t-42 67t-24.5 80t-9.5 96.5q0 201 155 322.5t416 121.5q277 0 424.5 -122t147.5 -355h-369
q0 97 -56 150t-161 53q-87 0 -140 -38t-53 -100q0 -69 60.5 -103.5t230.5 -76.5q72 -18 119 -31.5t107.5 -35.5t99.5 -45t80.5 -58t65 -76t39 -96.5t15.5 -122.5z" />
    <glyph glyph-name="scedilla" unicode="&#x15f;" horiz-adv-x="1110" 
d="M1044 301q0 -141 -111.5 -230.5t-307.5 -101.5l-58 -92q30 10 68 10q79 0 128.5 -42.5t49.5 -116.5q0 -89 -68 -146t-194 -57q-134 0 -246 65l53 109q89 -45 166 -45q90 0 90 63q0 30 -24 49t-66 19q-36 0 -63 -12l-60 55l86 141q-207 14 -315.5 106t-108.5 263h343
q0 -148 159 -148q63 0 97 23.5t34 62.5q0 53 -48 79t-191 63q-41 10 -60.5 15.5t-57.5 17t-57.5 20.5t-51 25t-48 31.5t-37.5 39t-31.5 49.5t-18 59.5t-7.5 72.5q0 145 121 235t338 90q219 0 340 -88t121 -260h-324q0 133 -139 133q-58 0 -89.5 -21.5t-31.5 -60.5
q0 -45 42.5 -67.5t170.5 -55.5q42 -11 65.5 -17.5t63.5 -19t63.5 -23t56.5 -27.5t53 -34.5t42.5 -42t34.5 -51.5t20 -62t8 -75z" />
    <glyph glyph-name="Scaron" unicode="&#x160;" horiz-adv-x="1320" 
d="M803 1556h-320l-245 310h282l123 -162l123 162h283zM645 1491q277 0 424.5 -122t147.5 -355h-369q0 97 -56 150t-161 53q-87 0 -140 -38t-53 -100q0 -69 60.5 -103.5t230.5 -76.5q72 -18 119 -31.5t107.5 -35.5t99.5 -45t80.5 -58t65 -76t39 -96.5t15.5 -122.5
q0 -214 -162 -340.5t-434 -126.5q-287 0 -448.5 132.5t-161.5 375.5h377q0 -225 242 -225q100 0 157.5 41t57.5 112q0 24 -6 43t-14.5 33t-29 27.5t-37 22t-53 20t-62 18.5t-77.5 21q-57 15 -92 24.5t-86.5 26t-83.5 30.5t-73 36t-66.5 44.5t-52.5 54t-42 67t-24.5 80
t-9.5 96.5q0 201 155 322.5t416 121.5z" />
    <glyph glyph-name="scaron" unicode="&#x161;" horiz-adv-x="1110" 
d="M707 1155h-320l-242 303h283l119 -155l119 155h282zM547 1073q219 0 340 -88t121 -260h-324q0 133 -139 133q-58 0 -89.5 -21.5t-31.5 -60.5q0 -45 42.5 -67.5t170.5 -55.5q42 -11 65.5 -17.5t63.5 -19t63.5 -23t56.5 -27.5t53 -34.5t42.5 -42t34.5 -51.5t20 -62t8 -75
q0 -152 -129 -243t-354 -91q-242 0 -370 92.5t-128 278.5h343q0 -148 159 -148q63 0 97 23.5t34 62.5q0 53 -48 79t-191 63q-41 10 -60.5 15.5t-57.5 17t-57.5 20.5t-51 25t-48 31.5t-37.5 39t-31.5 49.5t-18 59.5t-7.5 72.5q0 145 121 235t338 90z" />
    <glyph glyph-name="Tcedilla" unicode="&#x162;" horiz-adv-x="1284" 
d="M1266 1157h-447v-1157h-354v1157h-447v301h1248v-301zM780 -340l-145 -223h-129l94 223h-94v229h274v-229z" />
    <glyph glyph-name="tcedilla" unicode="&#x163;" horiz-adv-x="774" 
d="M647 252q43 0 76 10v-256q-83 -22 -172 -22q-196 0 -285.5 81.5t-89.5 264.5v463h-162v247h162v281h340v-281h197v-247h-197v-385q0 -83 30.5 -119.5t100.5 -36.5zM295 -111h274v-229l-145 -223h-129l94 223h-94v229z" />
    <glyph glyph-name="Tcaron" unicode="&#x164;" horiz-adv-x="1284" 
d="M801 1556h-320l-245 310h282l123 -162l123 162h283zM1266 1157h-447v-1157h-354v1157h-447v301h1248v-301z" />
    <glyph glyph-name="tcaron" unicode="&#x165;" horiz-adv-x="774" 
d="M889 1458l-123 -364h-193l50 364h266zM516 793v-385q0 -83 30.5 -119.5t100.5 -36.5q43 0 76 10v-256q-83 -22 -172 -22q-196 0 -285.5 81.5t-89.5 264.5v463h-162v247h162v281h340v-281h197v-247h-197z" />
    <glyph glyph-name="Tbar" unicode="&#x166;" horiz-adv-x="1284" 
d="M819 1157v-354h271v-234h-271v-569h-354v569h-270v234h270v354h-447v301h1248v-301h-447z" />
    <glyph glyph-name="tbar" unicode="&#x167;" horiz-adv-x="774" 
d="M647 246q43 0 76 10v-250q-83 -22 -172 -22q-196 0 -284.5 81t-88.5 265v121h-155v182h155v168h-164v239h164v281h338v-281h197v-239h-197v-168h186v-182h-186v-50q0 -84 30 -119.5t101 -35.5z" />
    <glyph glyph-name="Utilde" unicode="&#x168;" horiz-adv-x="1484" 
d="M958 1866h183q-8 -137 -73.5 -215t-182.5 -78q-55 0 -106.5 22t-93.5 44t-75 22q-77 0 -86 -88h-182q6 137 71.5 215t182.5 78q56 0 107.5 -22t93 -44t73.5 -22q40 0 61 21.5t27 66.5zM1341 1458v-893q0 -289 -155.5 -443.5t-444.5 -154.5q-288 0 -443 155t-155 443v893
h355v-885q0 -144 62 -219t181 -75q120 0 183 75t63 219v885h354z" />
    <glyph glyph-name="utilde" unicode="&#x169;" 
d="M840 1458h182q-8 -137 -73.5 -215t-182.5 -78q-55 0 -106 22t-93 44t-75 22q-77 0 -86 -88h-183q6 137 71.5 215t182.5 78q56 0 107.5 -22t93.5 -44t74 -22q40 0 61 21.5t27 66.5zM496 -27q-178 0 -279.5 110t-101.5 318v639h340v-602q0 -100 39 -150t112 -50
q81 0 127.5 66.5t46.5 197.5v538h340v-1040h-317v125h-4q-115 -152 -303 -152z" />
    <glyph glyph-name="Umacron" unicode="&#x16a;" horiz-adv-x="1484" 
d="M1108 1589h-735v211h735v-211zM1341 1458v-893q0 -289 -155.5 -443.5t-444.5 -154.5q-288 0 -443 155t-155 443v893h355v-885q0 -144 62 -219t181 -75q120 0 183 75t63 219v885h354z" />
    <glyph glyph-name="umacron" unicode="&#x16b;" 
d="M991 1206h-735v211h735v-211zM496 -27q-178 0 -279.5 110t-101.5 318v639h340v-602q0 -100 39 -150t112 -50q81 0 127.5 66.5t46.5 197.5v538h340v-1040h-317v125h-4q-115 -152 -303 -152z" />
    <glyph glyph-name="Ubreve" unicode="&#x16c;" horiz-adv-x="1484" 
d="M889 1866h217q-7 -151 -103 -233.5t-262 -82.5t-261.5 82.5t-102.5 233.5h217q3 -57 41.5 -88t105.5 -31t105 31t43 88zM1341 1458v-893q0 -289 -155.5 -443.5t-444.5 -154.5q-288 0 -443 155t-155 443v893h355v-885q0 -144 62 -219t181 -75q120 0 183 75t63 219v885h354
z" />
    <glyph glyph-name="ubreve" unicode="&#x16d;" 
d="M770 1458h217q-7 -151 -102.5 -233t-261.5 -82t-262 82.5t-103 232.5h217q3 -57 41.5 -88t106.5 -31q67 0 104.5 31t42.5 88zM496 -27q-178 0 -279.5 110t-101.5 318v639h340v-602q0 -100 39 -150t112 -50q81 0 127.5 66.5t46.5 197.5v538h340v-1040h-317v125h-4
q-115 -152 -303 -152z" />
    <glyph glyph-name="Uring" unicode="&#x16e;" horiz-adv-x="1484" 
d="M741 2005q97 0 165.5 -68t68.5 -165q0 -95 -68.5 -163.5t-165.5 -68.5t-165 68t-68 164q0 97 68 165t165 68zM741 1886q-47 0 -80.5 -33.5t-33.5 -80.5t33.5 -81t80.5 -34t81 34t34 81t-34 80.5t-81 33.5zM1341 1458v-893q0 -289 -155.5 -443.5t-444.5 -154.5
q-288 0 -443 155t-155 443v893h355v-885q0 -144 62 -219t181 -75q120 0 183 75t63 219v885h354z" />
    <glyph glyph-name="uring" unicode="&#x16f;" 
d="M623 1597q97 0 165 -68t68 -165q0 -95 -68 -163t-165 -68t-165.5 68t-68.5 163q0 97 68.5 165t165.5 68zM623 1479q-47 0 -81 -34t-34 -81t34 -81t81 -34t80.5 34t33.5 81t-33.5 81t-80.5 34zM496 -27q-178 0 -279.5 110t-101.5 318v639h340v-602q0 -100 39 -150t112 -50
q81 0 127.5 66.5t46.5 197.5v538h340v-1040h-317v125h-4q-115 -152 -303 -152z" />
    <glyph glyph-name="Uhungarumlaut" unicode="&#x170;" horiz-adv-x="1484" 
d="M584 1556h-252l200 310h340zM1006 1556h-254l202 310h340zM1341 1458v-893q0 -289 -155.5 -443.5t-444.5 -154.5q-288 0 -443 155t-155 443v893h355v-885q0 -144 62 -219t181 -75q120 0 183 75t63 219v885h354z" />
    <glyph glyph-name="uhungarumlaut" unicode="&#x171;" 
d="M485 1155h-252l201 303h340zM907 1155h-254l203 303h340zM496 -27q-178 0 -279.5 110t-101.5 318v639h340v-602q0 -100 39 -150t112 -50q81 0 127.5 66.5t46.5 197.5v538h340v-1040h-317v125h-4q-115 -152 -303 -152z" />
    <glyph glyph-name="Uogonek" unicode="&#x172;" horiz-adv-x="1484" 
d="M1341 1458v-893q0 -177 -59 -302.5t-176 -219.5q-72 -59 -101.5 -105t-29.5 -92q0 -71 67 -71q43 0 70 12v-164q-81 -31 -182 -31q-125 0 -187.5 50t-62.5 141q0 56 29.5 99t89.5 85v4q-36 -4 -58 -4q-288 0 -443 155t-155 443v893h355v-885q0 -144 62 -219t181 -75
q120 0 183 75t63 219v885h354z" />
    <glyph glyph-name="uogonek" unicode="&#x173;" 
d="M1057 -223q36 0 71 14v-168q-88 -31 -190 -31q-125 0 -188.5 49.5t-63.5 137.5q0 66 42 117.5t130 103.5h-55v125h-4q-115 -152 -303 -152q-178 0 -279.5 110t-101.5 318v639h340v-602q0 -100 39 -150t112 -50q81 0 127.5 66.5t46.5 197.5v538h340v-1040h2
q-74 -49 -103.5 -86.5t-29.5 -75.5q0 -61 68 -61z" />
    <glyph glyph-name="Wcircumflex" unicode="&#x174;" horiz-adv-x="2029" 
d="M852 1866h319l246 -310h-282l-123 162l-123 -162h-283zM1718 0h-471l-123 584q-64 292 -108 585h-4q-39 -260 -107 -585l-123 -584h-471l-295 1458h344l99 -526q57 -310 94 -610h4q50 308 117 610l114 526h453l115 -526q67 -302 114 -610h5q42 319 96 610l96 526h346z
" />
    <glyph glyph-name="wcircumflex" unicode="&#x175;" horiz-adv-x="1736" 
d="M987 1155l-119 156l-118 -156h-283l242 303h319l242 -303h-283zM1497 0h-465l-84 391q-49 227 -78 436h-4q-29 -209 -78 -436l-83 -391h-465l-232 1040h332l68 -383q41 -218 65 -442h4q40 255 84 444l86 381h443l86 -381q44 -189 84 -444h4q24 224 65 442l68 383h332z
" />
    <glyph glyph-name="Ycircumflex" unicode="&#x176;" horiz-adv-x="1357" 
d="M518 1866h320l245 -310h-282l-123 162l-123 -162h-283zM856 551v-551h-354v551l-500 907h393l127 -264q92 -192 156 -367h4q59 168 154 367l127 264h393z" />
    <glyph glyph-name="ycircumflex" unicode="&#x177;" horiz-adv-x="1085" 
d="M666 1155l-119 156l-119 -156h-283l242 303h320l241 -303h-282zM1102 1040l-346 -1022q-78 -230 -188.5 -320.5t-311.5 -90.5q-88 0 -176 18v258q50 -16 104 -16q72 0 115 36t43 99q0 29 -10 65.5t-47 135.5l-305 837h366l100 -348q66 -238 105 -434h4q47 233 104 436
l97 346h346z" />
    <glyph glyph-name="Ydieresis" unicode="&#x178;" horiz-adv-x="1357" 
d="M594 1575h-293v268h293v-268zM1057 1575h-291v268h291v-268zM856 551v-551h-354v551l-500 907h393l127 -264q92 -192 156 -367h4q59 168 154 367l127 264h393z" />
    <glyph glyph-name="Zacute" unicode="&#x179;" horiz-adv-x="1214" 
d="M672 1556h-262l159 310h392zM1139 1151l-674 -852v-4h706v-295h-1130v307l674 852v4h-643v295h1067v-307z" />
    <glyph glyph-name="zacute" unicode="&#x17a;" horiz-adv-x="1028" 
d="M578 1155h-263l160 303h391zM952 772l-475 -508v-4h492v-260h-910v268l473 508v4h-454v260h874v-268z" />
    <glyph glyph-name="Zdotaccent" unicode="&#x17b;" horiz-adv-x="1214" 
d="M776 1575h-340v268h340v-268zM1139 1151l-674 -852v-4h706v-295h-1130v307l674 852v4h-643v295h1067v-307z" />
    <glyph glyph-name="zdotaccent" unicode="&#x17c;" horiz-adv-x="1028" 
d="M680 1190h-340v268h340v-268zM952 772l-475 -508v-4h492v-260h-910v268l473 508v4h-454v260h874v-268z" />
    <glyph glyph-name="Zcaron" unicode="&#x17d;" horiz-adv-x="1214" 
d="M766 1556h-320l-245 310h282l123 -162l123 162h283zM1139 1151l-674 -852v-4h706v-295h-1130v307l674 852v4h-643v295h1067v-307z" />
    <glyph glyph-name="zcaron" unicode="&#x17e;" horiz-adv-x="1028" 
d="M670 1155h-320l-241 303h282l119 -155l119 155h282zM952 772l-475 -508v-4h492v-260h-910v268l473 508v4h-454v260h874v-268z" />
    <glyph glyph-name="longs" unicode="&#x17f;" horiz-adv-x="739" 
d="M559 1477q84 0 162 -19v-233q-20 4 -49 4q-77 0 -114.5 -35.5t-37.5 -116.5v-1077h-336v793h-166v247h166v76q0 180 96 270.5t279 90.5z" />
    <glyph glyph-name="Schwa" unicode="&#x18f;" horiz-adv-x="1587" 
d="M776 1491q230 0 398.5 -95t256 -266.5t87.5 -398.5q0 -217 -85.5 -389t-253 -273.5t-391.5 -101.5q-330 0 -524 205.5t-194 554.5q0 69 6 113h1073q-5 77 -27.5 139t-57.5 103.5t-81.5 69t-98 40t-110.5 12.5q-118 0 -192.5 -54.5t-94.5 -141.5h-378q22 100 76 186.5
t136 153t199.5 105t255.5 38.5zM788 256q140 0 233 81t120 238h-697q21 -157 115 -238t229 -81z" />
    <glyph glyph-name="florin" unicode="&#x192;" horiz-adv-x="1286" 
d="M1065 1483q88 0 170 -21v-245q-46 12 -109 12q-82 0 -127.5 -39.5t-68.5 -132.5l-25 -99h228v-241h-285l-174 -684q-57 -226 -168.5 -326t-302.5 -100q-87 0 -152 18v248q46 -12 103 -12q81 0 124.5 41.5t71.5 158.5l168 656h-207v241h264l33 127q53 205 162.5 301.5
t294.5 96.5z" />
    <glyph glyph-name="Aringacute" unicode="&#x1fa;" horiz-adv-x="1464" 
d="M799 2011h-262l159 309h391zM731 1501q-97 0 -165 68.5t-68 165.5t68 165t165 68q98 0 166 -68t68 -165t-68 -165.5t-166 -68.5zM731 1849q-47 0 -81 -33.5t-34 -80.5t34 -81t81 -34t81 34t34 81t-34 80.5t-81 33.5zM997 309h-528l-94 -309h-373l498 1458h465l497 -1458
h-372zM911 600l-30 98q-92 303 -148 531h-4q-63 -259 -143 -531l-29 -98h354z" />
    <glyph glyph-name="aringacute" unicode="&#x1fb;" horiz-adv-x="1148" 
d="M618 1626h-262l160 303h391zM551 1583q98 0 165.5 -68t67.5 -165t-67.5 -165.5t-165.5 -68.5q-97 0 -165.5 68.5t-68.5 165.5t68.5 165t165.5 68zM551 1464q-47 0 -81 -33.5t-34 -80.5t34 -81t81 -34t81 34t34 81t-34 80.5t-81 33.5zM563 1073q237 0 355 -107.5
t118 -314.5v-358q0 -181 31 -293h-307q-15 62 -15 135h-4q-119 -162 -338 -162q-165 0 -261.5 90t-96.5 230q0 138 96 220t318 116q128 20 250 28v37q0 84 -39 124t-107 40q-69 0 -107.5 -37.5t-39.5 -107.5h-328q4 76 34 140t86 114t147 78t208 28zM709 434v37
q-100 -4 -185 -20q-76 -15 -109.5 -46.5t-33.5 -87.5q0 -55 34.5 -86.5t98.5 -31.5q90 0 143 53q31 32 41.5 72.5t10.5 109.5z" />
    <glyph glyph-name="AEacute" unicode="&#x1fc;" horiz-adv-x="2000" 
d="M1124 1556h-262l160 310h391zM1905 297v-297h-840l-47 328h-502l-137 -328h-391l651 1458h1251v-297h-653l39 -276h565v-293h-524l43 -295h545zM977 621l-80 550h-29l-229 -550h338z" />
    <glyph glyph-name="aeacute" unicode="&#x1fd;" horiz-adv-x="1832" 
d="M977 1155h-262l159 303h392zM1243 195q69 0 114 34.5t54 89.5h346q-32 -152 -171 -252t-339 -100q-252 0 -389 174q-120 -174 -391 -174q-197 0 -309.5 91.5t-112.5 234.5q0 178 137 262t436 84h113v55q0 85 -39.5 124.5t-118.5 39.5q-72 0 -113 -37.5t-42 -107.5h-328
q4 76 34.5 139.5t87.5 114t150 78.5t213 28q232 0 345 -110q129 110 323 110q180 0 308.5 -89t183.5 -245q37 -107 37 -288h-723q11 -256 194 -256zM1243 850q-78 0 -128.5 -52t-63.5 -161h381q-9 107 -60.5 160t-128.5 53zM731 459h-96q-137 0 -195.5 -36.5t-58.5 -107.5
q0 -57 37 -92t104 -35q93 0 152 56q33 34 45 76.5t12 113.5v25z" />
    <glyph glyph-name="Oslashacute" unicode="&#x1fe;" horiz-adv-x="1550" 
d="M842 1556h-262l159 310h391zM1421 1450l-125 -170q185 -204 185 -551q0 -352 -190 -557t-515 -205q-221 0 -383 96l-119 -161l-145 106l125 170q-184 203 -184 551q0 352 189.5 557t516.5 205q223 0 381 -96l121 161zM424 729q0 -150 45 -262l502 676q-80 59 -195 59
q-167 0 -259.5 -125t-92.5 -348zM776 256q167 0 259.5 125t92.5 348q0 159 -45 264l-501 -678q80 -59 194 -59z" />
    <glyph glyph-name="oslashacute" unicode="&#x1ff;" horiz-adv-x="1236" 
d="M684 1155h-262l160 303h391zM1122 1065l-102 -137q156 -150 156 -408q0 -253 -151.5 -403t-406.5 -150q-147 0 -272 56l-104 -142l-125 90l102 140q-158 152 -158 409q0 253 151 403t406 150q155 0 275 -57l104 143zM618 831q-103 0 -162 -84.5t-59 -226.5q0 -81 23 -155
l317 428q-50 38 -119 38zM618 209q103 0 162.5 84t59.5 227q0 78 -23 152l-315 -426q49 -37 116 -37z" />
    <glyph glyph-name="Scommaaccent" unicode="&#x218;" horiz-adv-x="1320" 
d="M645 1491q277 0 424.5 -122t147.5 -355h-369q0 97 -56 150t-161 53q-87 0 -140 -38t-53 -100q0 -69 60.5 -103.5t230.5 -76.5q72 -18 119 -31.5t107.5 -35.5t99.5 -45t80.5 -58t65 -76t39 -96.5t15.5 -122.5q0 -214 -162 -340.5t-434 -126.5q-287 0 -448.5 132.5
t-161.5 375.5h377q0 -225 242 -225q100 0 157.5 41t57.5 112q0 24 -6 43t-14.5 33t-29 27.5t-37 22t-53 20t-62 18.5t-77.5 21q-57 15 -92 24.5t-86.5 26t-83.5 30.5t-73 36t-66.5 44.5t-52.5 54t-42 67t-24.5 80t-9.5 96.5q0 201 155 322.5t416 121.5zM786 -340l-145 -223
h-129l94 223h-94v229h274v-229z" />
    <glyph glyph-name="scommaaccent" unicode="&#x219;" horiz-adv-x="1110" 
d="M547 1073q219 0 340 -88t121 -260h-324q0 133 -139 133q-58 0 -89.5 -21.5t-31.5 -60.5q0 -45 42.5 -67.5t170.5 -55.5q42 -11 65.5 -17.5t63.5 -19t63.5 -23t56.5 -27.5t53 -34.5t42.5 -42t34.5 -51.5t20 -62t8 -75q0 -152 -129 -243t-354 -91q-242 0 -370 92.5
t-128 278.5h343q0 -148 159 -148q63 0 97 23.5t34 62.5q0 53 -48 79t-191 63q-41 10 -60.5 15.5t-57.5 17t-57.5 20.5t-51 25t-48 31.5t-37.5 39t-31.5 49.5t-18 59.5t-7.5 72.5q0 145 121 235t338 90zM696 -340l-145 -223h-129l94 223h-94v229h274v-229z" />
    <glyph glyph-name="Tcommaaccent" unicode="&#x21a;" horiz-adv-x="1284" 
d="M1266 1157h-447v-1157h-354v1157h-447v301h1248v-301zM780 -340l-145 -223h-129l94 223h-94v229h274v-229z" />
    <glyph glyph-name="tcommaaccent" unicode="&#x21b;" horiz-adv-x="774" 
d="M647 252q43 0 76 10v-256q-83 -22 -172 -22q-196 0 -285.5 81.5t-89.5 264.5v463h-162v247h162v281h340v-281h197v-247h-197v-385q0 -83 30.5 -119.5t100.5 -36.5zM295 -111h274v-229l-145 -223h-129l94 223h-94v229z" />
    <glyph glyph-name="dotlessj" unicode="&#x237;" horiz-adv-x="591" 
d="M467 1040v-1038q0 -200 -103 -295.5t-280 -95.5q-96 0 -164 18v238q24 -6 53 -6q80 0 117 43t37 155v981h340z" />
    <glyph glyph-name="schwa" unicode="&#x259;" horiz-adv-x="1196" 
d="M588 1073q172 0 297 -71.5t187.5 -195t62.5 -284.5q0 -157 -62.5 -281.5t-186.5 -199t-290 -74.5q-246 0 -390.5 149t-144.5 402q0 33 5 78h733q-6 132 -62 191t-145 59q-65 0 -107 -32.5t-51 -84.5h-346q33 148 168.5 246t331.5 98zM596 190q79 0 132 52t67 161h-394
q10 -107 63.5 -160t131.5 -53z" />
    <glyph glyph-name="apostrophemod" unicode="&#x2bc;" horiz-adv-x="544" 
d="M424 1139l-158 -312h-170l121 312h-100v319h307v-319z" />
    <glyph glyph-name="circumflex" unicode="&#x2c6;" horiz-adv-x="1007" 
d="M623 1155l-119 156l-119 -156h-283l242 303h320l241 -303h-282z" />
    <glyph glyph-name="caron" unicode="&#x2c7;" horiz-adv-x="1007" 
d="M664 1155h-320l-242 303h283l119 -155l119 155h282z" />
    <glyph glyph-name="firsttonechinese" unicode="&#x2c9;" horiz-adv-x="940" 
d="M838 1206h-736v211h736v-211z" />
    <glyph glyph-name="breve" unicode="&#x2d8;" horiz-adv-x="933" 
d="M614 1458h217q-7 -151 -102.5 -233t-261.5 -82t-262 82.5t-103 232.5h217q3 -57 41.5 -88t106.5 -31q67 0 104.5 31t42.5 88z" />
    <glyph glyph-name="dotaccent" unicode="&#x2d9;" horiz-adv-x="544" 
d="M442 1190h-340v268h340v-268z" />
    <glyph glyph-name="ring" unicode="&#x2da;" horiz-adv-x="671" 
d="M336 1597q97 0 165 -68t68 -165q0 -95 -68 -163t-165 -68t-165.5 68t-68.5 163q0 97 68.5 165t165.5 68zM336 1479q-47 0 -81 -34t-34 -81t34 -81t81 -34t81 34t34 81t-34 81t-81 34z" />
    <glyph glyph-name="ogonek" unicode="&#x2db;" horiz-adv-x="647" 
d="M274 0h265q-74 -49 -103.5 -86.5t-29.5 -75.5q0 -61 67 -61q37 0 72 14v-168q-88 -31 -191 -31q-125 0 -188.5 49.5t-63.5 137.5q0 66 42 117.5t130 103.5z" />
    <glyph glyph-name="tilde" unicode="&#x2dc;" horiz-adv-x="1003" 
d="M719 1458h182q-8 -137 -73.5 -215t-182.5 -78q-55 0 -106 22t-93 44t-75 22q-77 0 -86 -88h-183q6 137 71.5 215t182.5 78q56 0 107.5 -22t93.5 -44t74 -22q40 0 61 21.5t27 66.5z" />
    <glyph glyph-name="hungarumlaut" unicode="&#x2dd;" horiz-adv-x="1165" 
d="M354 1155h-252l201 303h340zM776 1155h-254l203 303h340z" />
    <glyph glyph-name="commaturnedabovecomb" unicode="&#x312;" horiz-adv-x="0" 
d="M283 1401h94v-230h-275v230l146 223h129z" />
    <glyph glyph-name="commaaccent" unicode="&#x326;" horiz-adv-x="0" 
d="M377 -340l-146 -223h-129l95 223h-95v229h275v-229z" />
    <glyph glyph-name="dbllowlinecomb" unicode="&#x333;" horiz-adv-x="0" 
d="M0 -274h-1024v172h1024v-172zM0 -596h-1024v172h1024v-172z" />
    <glyph glyph-name="numeralgreek" unicode="&#x374;" horiz-adv-x="479" 
d="M274 1040h-213l56 418h301z" />
    <glyph glyph-name="lowernumeralgreek" unicode="&#x375;" horiz-adv-x="479" 
d="M274 -188h-213l56 417h301z" />
    <glyph glyph-name="questiongreek" unicode="&#x37e;" horiz-adv-x="561" 
d="M461 664h-361v376h361v-376zM463 0l-187 -365h-200l141 365h-117v377h363v-377z" />
    <glyph glyph-name="tonos" unicode="&#x384;" horiz-adv-x="602" 
d="M354 1159h-252l66 340h332z" />
    <glyph glyph-name="dieresistonos" unicode="&#x385;" horiz-adv-x="1179" 
d="M655 1159h-225l64 330h276zM367 1182h-265v256h265v-256zM1077 1182h-264v256h264v-256z" />
    <glyph glyph-name="Alphatonos" unicode="&#x386;" horiz-adv-x="1464" 
d="M217 1036h-252l66 422h331zM997 309h-528l-94 -309h-373l498 1458h465l497 -1458h-372zM911 600l-30 98q-92 303 -148 531h-4q-63 -259 -143 -531l-29 -98h354z" />
    <glyph glyph-name="anoteleia" unicode="&#x387;" horiz-adv-x="561" 
d="M461 664h-361v376h361v-376z" />
    <glyph glyph-name="Epsilontonos" unicode="&#x388;" horiz-adv-x="1298" 
d="M-61 1036h-252l65 422h332zM1186 1161h-676v-276h631v-293h-631v-295h692v-297h-1046v1458h1030v-297z" />
    <glyph glyph-name="Etatonos" unicode="&#x389;" horiz-adv-x="1558" 
d="M-61 1036h-252l65 422h332zM1403 0h-354v604h-539v-604h-354v1458h354v-553h539v553h354v-1458z" />
    <glyph glyph-name="Iotatonos" unicode="&#x38a;" horiz-adv-x="665" 
d="M-61 1036h-252l65 422h332zM510 0h-354v1458h354v-1458z" />
    <glyph glyph-name="Omicrontonos" unicode="&#x38c;" horiz-adv-x="1550" 
d="M776 1491q325 0 515 -205t190 -557t-190 -557t-515 -205q-327 0 -516.5 205t-189.5 557t189.5 557t516.5 205zM31 1036h-252l65 422h332zM776 1184q-160 0 -248 -119.5t-88 -335.5t88 -335.5t248 -119.5q158 0 246 120t88 335t-88 335t-246 120z" />
    <glyph glyph-name="Upsilontonos" unicode="&#x38e;" horiz-adv-x="1357" 
d="M-178 1036h-252l65 422h332zM856 551v-551h-354v551l-500 907h393l127 -264q92 -192 156 -367h4q59 168 154 367l127 264h393z" />
    <glyph glyph-name="Omegatonos" unicode="&#x38f;" horiz-adv-x="1529" 
d="M764 1491q152 0 276.5 -39.5t216.5 -117t142.5 -200t50.5 -280.5q0 -168 -71 -298.5t-199 -252.5v-4h293v-299h-613v311q104 106 161.5 220.5t57.5 265.5q0 188 -86 287.5t-229 99.5q-142 0 -227.5 -99.5t-85.5 -287.5q0 -151 57.5 -265.5t161.5 -220.5v-311h-613v299
h293v4q-83 78 -139 153t-93.5 178.5t-37.5 219.5q0 158 50.5 280.5t142 200t216 117t275.5 39.5zM8 1036h-252l66 422h332z" />
    <glyph glyph-name="iotadieresistonos" unicode="&#x390;" horiz-adv-x="684" 
d="M350 1159h-225l63 330h277zM61 1182h-264v256h264v-256zM772 1182h-264v256h264v-256zM455 1040v-606q0 -100 30.5 -144t100.5 -44q46 0 76 10v-252q-78 -20 -173 -20q-196 0 -285 92.5t-89 298.5v665h340z" />
    <glyph glyph-name="Alpha" unicode="&#x391;" horiz-adv-x="1464" 
d="M997 309h-528l-94 -309h-373l498 1458h465l497 -1458h-372zM911 600l-30 98q-92 303 -148 531h-4q-63 -259 -143 -531l-29 -98h354z" />
    <glyph glyph-name="Beta" unicode="&#x392;" horiz-adv-x="1359" 
d="M156 1458h569q263 0 396.5 -100.5t133.5 -274.5q0 -127 -60.5 -208t-186.5 -125v-5q284 -64 284 -339q0 -188 -141 -297t-391 -109h-604v1458zM504 1184v-316h184q118 0 171.5 39t53.5 121q0 81 -51 118.5t-162 37.5h-196zM504 608v-332h192q123 0 177.5 39t54.5 123
q0 89 -56 129.5t-182 40.5h-186z" />
    <glyph glyph-name="Gamma" unicode="&#x393;" horiz-adv-x="1062" 
d="M156 0v1458h888v-301h-534v-1157h-354z" />
    <glyph glyph-name="Delta" unicode="&#x394;" horiz-adv-x="1462" 
d="M1460 0h-1458l502 1458h459zM1001 289l-124 409q-94 321 -146 531h-4q-57 -231 -145 -531l-123 -409h542z" />
    <glyph glyph-name="Epsilon" unicode="&#x395;" horiz-adv-x="1298" 
d="M1186 1161h-676v-276h631v-293h-631v-295h692v-297h-1046v1458h1030v-297z" />
    <glyph glyph-name="Zeta" unicode="&#x396;" horiz-adv-x="1214" 
d="M1139 1151l-674 -852v-4h706v-295h-1130v307l674 852v4h-643v295h1067v-307z" />
    <glyph glyph-name="Eta" unicode="&#x397;" horiz-adv-x="1558" 
d="M1403 0h-354v604h-539v-604h-354v1458h354v-553h539v553h354v-1458z" />
    <glyph glyph-name="Theta" unicode="&#x398;" horiz-adv-x="1550" 
d="M776 1491q325 0 515 -205t190 -555q0 -353 -189.5 -558.5t-515.5 -205.5t-516 205.5t-190 558.5q0 350 190.5 555t515.5 205zM776 1200q-167 0 -260.5 -124.5t-93.5 -344.5q0 -221 93.5 -345t260.5 -124t259.5 123.5t92.5 345.5q0 221 -92.5 345t-259.5 124zM1032 606
h-512v248h512v-248z" />
    <glyph glyph-name="Iota" unicode="&#x399;" horiz-adv-x="665" 
d="M510 0h-354v1458h354v-1458z" />
    <glyph glyph-name="Kappa" unicode="&#x39a;" horiz-adv-x="1413" 
d="M836 768l569 -768h-447l-444 672h-4v-672h-354v1458h354v-629h4l428 629h424z" />
    <glyph glyph-name="Lambda" unicode="&#x39b;" horiz-adv-x="1435" 
d="M1434 0h-383l-197 686q-64 225 -135 526h-4q-62 -277 -133 -526l-197 -686h-383l479 1458h471z" />
    <glyph glyph-name="Mu" unicode="&#x39c;" horiz-adv-x="2074" 
d="M1919 0h-334v713q0 271 12 538h-4q-49 -211 -139 -530l-207 -721h-420l-206 721q-96 340 -140 530h-4q12 -267 12 -538v-713h-333v1458h567l186 -647q75 -272 127 -537h4q47 254 125 537l189 647h565v-1458z" />
    <glyph glyph-name="Nu" unicode="&#x39d;" horiz-adv-x="1640" 
d="M1487 0h-512l-254 575q-135 302 -238 584h-4q17 -349 17 -614v-545h-340v1458h510l256 -575q127 -291 237 -584h4q-16 273 -16 614v545h340v-1458z" />
    <glyph glyph-name="Xi" unicode="&#x39e;" horiz-adv-x="1384" 
d="M1260 1128h-1135v330h1135v-330zM1225 569h-1065v330h1065v-330zM1288 0h-1192v330h1192v-330z" />
    <glyph glyph-name="Omicron" unicode="&#x39f;" horiz-adv-x="1550" 
d="M776 1491q325 0 515 -205t190 -557t-190 -557t-515 -205q-327 0 -516.5 205t-189.5 557t189.5 557t516.5 205zM776 1184q-160 0 -248 -119.5t-88 -335.5t88 -335.5t248 -119.5q158 0 246 120t88 335t-88 335t-246 120z" />
    <glyph glyph-name="Pi" unicode="&#x3a0;" horiz-adv-x="1536" 
d="M1380 0h-352v1157h-518v-1157h-354v1458h1224v-1458z" />
    <glyph glyph-name="Rho" unicode="&#x3a1;" horiz-adv-x="1339" 
d="M156 1458h583q272 0 413.5 -129t141.5 -356q0 -225 -141.5 -354.5t-413.5 -129.5h-229v-489h-354v1458zM510 1174v-400h180q242 0 242 199q0 201 -242 201h-180z" />
    <glyph glyph-name="Sigma" unicode="&#x3a3;" horiz-adv-x="1214" 
d="M1143 1159h-660v-4l324 -414l-350 -438v-4h714v-299h-1122v307l340 434l-317 416v301h1071v-299z" />
    <glyph glyph-name="Tau" unicode="&#x3a4;" horiz-adv-x="1284" 
d="M1266 1157h-447v-1157h-354v1157h-447v301h1248v-301z" />
    <glyph glyph-name="Upsilon" unicode="&#x3a5;" horiz-adv-x="1357" 
d="M856 551v-551h-354v551l-500 907h393l127 -264q92 -192 156 -367h4q59 168 154 367l127 264h393z" />
    <glyph glyph-name="Phi" unicode="&#x3a6;" horiz-adv-x="1761" 
d="M1051 1524v-138q305 -22 473 -185.5t168 -465.5q0 -301 -168 -465t-473 -186v-150h-340v150q-305 22 -473 188t-168 469q0 299 168 461t473 184v138h340zM719 360v750q-141 -12 -216 -104.5t-75 -264.5q0 -176 75.5 -272.5t215.5 -108.5zM1042 1110v-750
q139 12 215 106.5t76 268.5t-76 268.5t-215 106.5z" />
    <glyph glyph-name="Chi" unicode="&#x3a7;" horiz-adv-x="1370" 
d="M913 748l455 -748h-418l-262 504h-4l-264 -504h-416l453 748l-428 710h407l248 -487h4l246 487h407z" />
    <glyph glyph-name="Psi" unicode="&#x3a8;" horiz-adv-x="1761" 
d="M1688 1458v-481q0 -312 -157 -471.5t-476 -181.5v-324h-348v324q-320 22 -476.5 181t-156.5 472v481h348v-465q0 -188 65 -275t220 -100v840h348v-840q154 13 219 99.5t65 275.5v465h349z" />
    <glyph glyph-name="Omega" unicode="&#x3a9;" horiz-adv-x="1529" 
d="M764 1491q152 0 276.5 -39.5t216.5 -117t142.5 -200t50.5 -280.5q0 -168 -71 -298.5t-199 -252.5v-4h293v-299h-613v311q104 106 161.5 220.5t57.5 265.5q0 188 -86 287.5t-229 99.5q-142 0 -227.5 -99.5t-85.5 -287.5q0 -151 57.5 -265.5t161.5 -220.5v-311h-613v299
h293v4q-83 78 -139 153t-93.5 178.5t-37.5 219.5q0 158 50.5 280.5t142 200t216 117t275.5 39.5z" />
    <glyph glyph-name="Iotadieresis" unicode="&#x3aa;" horiz-adv-x="665" 
d="M248 1608h-293v268h293v-268zM711 1608h-291v268h291v-268zM510 0h-354v1458h354v-1458z" />
    <glyph glyph-name="Upsilondieresis" unicode="&#x3ab;" horiz-adv-x="1357" 
d="M594 1575h-293v268h293v-268zM1057 1575h-291v268h291v-268zM856 551v-551h-354v551l-500 907h393l127 -264q92 -192 156 -367h4q59 168 154 367l127 264h393z" />
    <glyph glyph-name="alphatonos" unicode="&#x3ac;" horiz-adv-x="1296" 
d="M733 1159h-252l66 340h332zM504 1069q90 0 167.5 -42t123.5 -120h4q3 68 16 133h336q-21 -154 -21 -368v-307q0 -69 21 -97t66 -28q27 0 51 6v-236q-89 -28 -201 -28q-205 0 -258 151h-4q-50 -78 -130.5 -120t-172.5 -42q-201 0 -321 149.5t-120 399.5t121 399.5
t322 149.5zM612 811q-89 0 -141.5 -79.5t-52.5 -211.5t52.5 -211.5t141.5 -79.5q87 0 139 78.5t52 212.5t-52 212.5t-139 78.5z" />
    <glyph glyph-name="epsilontonos" unicode="&#x3ad;" horiz-adv-x="1093" 
d="M657 1159h-251l65 340h332zM539 1073q223 0 352 -100.5t129 -276.5h-318q0 67 -40.5 103.5t-116.5 36.5q-63 0 -99 -27.5t-36 -73.5q0 -50 39.5 -77t111.5 -27h103v-215h-103q-170 0 -170 -109q0 -47 41 -74.5t109 -27.5q172 0 172 145h327q0 -188 -130 -285.5
t-371 -97.5q-223 0 -348 82.5t-125 235.5q0 99 48.5 159.5t155.5 94.5v4q-96 33 -138 87t-42 138q0 144 122 224.5t327 80.5z" />
    <glyph glyph-name="etatonos" unicode="&#x3ae;" horiz-adv-x="1288" 
d="M690 1159h-252l66 340h332zM801 1069q175 0 274 -110.5t99 -319.5v-1018h-340v975q0 209 -152 209q-80 0 -127 -67.5t-47 -194.5v-543h-340v666q0 77 -20.5 108t-67.5 31q-30 0 -51 -6v229q105 31 190 31q105 0 165.5 -42t84.5 -136h4q54 88 138.5 138t189.5 50z" />
    <glyph glyph-name="iotatonos" unicode="&#x3af;" horiz-adv-x="684" 
d="M410 1159h-252l65 340h332zM455 1040v-606q0 -100 30.5 -144t100.5 -44q46 0 76 10v-252q-78 -20 -173 -20q-196 0 -285 92.5t-89 298.5v665h340z" />
    <glyph glyph-name="upsilondieresistonos" unicode="&#x3b0;" horiz-adv-x="1255" 
d="M672 1159h-226l64 330h276zM383 1182h-264v256h264v-256zM1094 1182h-265v256h265v-256zM213 1059q148 0 219.5 -77t71.5 -263v-316q0 -93 35 -135.5t106 -42.5q184 0 184 324q0 269 -69 491h330q75 -224 75 -518q0 -269 -128 -412t-386 -143q-243 0 -366 100t-123 314
v262q0 90 -21 124t-67 34q-30 0 -51 -6v233q102 31 190 31z" />
    <glyph glyph-name="alpha" unicode="&#x3b1;" horiz-adv-x="1296" 
d="M504 1069q90 0 167.5 -42t123.5 -120h4q3 68 16 133h336q-21 -154 -21 -368v-307q0 -69 21 -97t66 -28q27 0 51 6v-236q-89 -28 -201 -28q-205 0 -258 151h-4q-50 -78 -130.5 -120t-172.5 -42q-201 0 -321 149.5t-120 399.5t121 399.5t322 149.5zM612 811
q-89 0 -141.5 -79.5t-52.5 -211.5t52.5 -211.5t141.5 -79.5q87 0 139 78.5t52 212.5t-52 212.5t-139 78.5z" />
    <glyph glyph-name="beta" unicode="&#x3b2;" horiz-adv-x="1257" 
d="M635 1491q226 0 359.5 -101t133.5 -274q0 -257 -254 -330v-4q326 -78 326 -381q0 -195 -126 -308t-345 -113q-181 0 -260 94h-4v-453h-340l2 1368q0 238 133.5 370t374.5 132zM643 1243q-93 0 -135.5 -59t-42.5 -185v-593q0 -81 45.5 -128t136.5 -47q96 0 150.5 53
t54.5 152q0 205 -260 205h-27v264h27q105 0 161 45.5t56 130.5q0 76 -44 119t-122 43z" />
    <glyph glyph-name="gamma" unicode="&#x3b3;" horiz-adv-x="1173" 
d="M805 1040h352q-30 -292 -126 -525.5t-288 -502.5v-24q0 -184 -22 -367h-340q22 183 22 367q0 131 -43 313.5t-118 335.5q-46 98 -88 133t-93 35q-19 0 -47 -4v233q80 27 172 27q113 0 184.5 -53t133.5 -197q92 -210 125 -434h4q145 318 172 663z" />
    <glyph glyph-name="delta" unicode="&#x3b4;" horiz-adv-x="1226" 
d="M621 1479q237 0 426 -49v-267q-194 76 -381 76q-60 0 -82.5 -12.5t-22.5 -38.5q0 -31 47.5 -62.5t163.5 -89.5q198 -98 295.5 -230t97.5 -333q0 -231 -151 -367.5t-402 -136.5q-249 0 -400 136t-151 366q0 171 96 289.5t273 159.5v4q-118 77 -173.5 144.5t-55.5 152.5
q0 258 420 258zM612 739q-89 0 -140.5 -69.5t-51.5 -190.5t51.5 -190.5t140.5 -69.5q91 0 143 69.5t52 190.5t-52 190.5t-143 69.5z" />
    <glyph glyph-name="epsilon" unicode="&#x3b5;" horiz-adv-x="1093" 
d="M539 1073q223 0 352 -100.5t129 -276.5h-318q0 67 -40.5 103.5t-116.5 36.5q-63 0 -99 -27.5t-36 -73.5q0 -50 39.5 -77t111.5 -27h103v-215h-103q-170 0 -170 -109q0 -47 41 -74.5t109 -27.5q172 0 172 145h327q0 -188 -130 -285.5t-371 -97.5q-223 0 -348 82.5
t-125 235.5q0 99 48.5 159.5t155.5 94.5v4q-96 33 -138 87t-42 138q0 144 122 224.5t327 80.5z" />
    <glyph glyph-name="zeta" unicode="&#x3b6;" horiz-adv-x="1011" 
d="M979 1458v-244q-274 -152 -417.5 -329t-143.5 -391q0 -114 65 -171.5t230 -84.5q156 -26 215 -101t59 -207q0 -115 -59 -227h-269q31 73 31 139q0 69 -41 106t-155 50q-237 29 -335 128t-98 292q0 230 142 433.5t395 358.5v4h-483v244h864z" />
    <glyph glyph-name="eta" unicode="&#x3b7;" horiz-adv-x="1288" 
d="M801 1069q175 0 274 -110.5t99 -319.5v-1018h-340v975q0 209 -152 209q-80 0 -127 -67.5t-47 -194.5v-543h-340v666q0 77 -20.5 108t-67.5 31q-30 0 -51 -6v229q105 31 190 31q105 0 165.5 -42t84.5 -136h4q54 88 138.5 138t189.5 50z" />
    <glyph glyph-name="theta" unicode="&#x3b8;" horiz-adv-x="1306" 
d="M653 1489q282 0 434 -197t152 -563t-152 -563t-434 -197t-433.5 197t-151.5 563t151.5 563t433.5 197zM653 1243q-103 0 -163.5 -101.5t-73.5 -297.5h473q-12 195 -73 297t-163 102zM653 215q102 0 163 102t73 297h-473q13 -196 73.5 -297.5t163.5 -101.5z" />
    <glyph glyph-name="iota" unicode="&#x3b9;" horiz-adv-x="684" 
d="M455 1040v-606q0 -100 30.5 -144t100.5 -44q46 0 76 10v-252q-78 -20 -173 -20q-196 0 -285 92.5t-89 298.5v665h340z" />
    <glyph glyph-name="kappa" unicode="&#x3ba;" horiz-adv-x="1196" 
d="M815 0l-272 340l-84 -94v-246h-340v1040h340v-417h4l168 196q115 134 208 186t214 52q54 0 110 -17v-278q-30 12 -73 12q-83 0 -162 -47t-178 -154l471 -573h-406z" />
    <glyph glyph-name="lambda" unicode="&#x3bb;" horiz-adv-x="1259" 
d="M336 1479q88 0 151.5 -18t121.5 -66t106 -130.5t96 -211.5l227 -609q47 -124 87 -167.5t92 -43.5q8 0 28 5v-238q-55 -18 -137 -18q-95 0 -155.5 24t-110.5 92.5t-94 196.5q-87 245 -134 391h-2q-60 -171 -149 -395l-115 -291h-364l460 1028q-36 105 -80.5 147t-115.5 42
q-52 0 -98 -17v250q71 29 186 29z" />
    <glyph glyph-name="mu" unicode="&#x3bc;" horiz-adv-x="1282" 
d="M1126 1040v-675q0 -70 21 -97.5t67 -27.5q26 0 50 6v-236q-86 -28 -201 -28q-196 0 -246 153h-4q-29 -69 -89 -108t-136 -39q-77 0 -123 32v-399h-340v1419h340v-596q0 -206 149 -206q79 0 125.5 64t46.5 192v546h340z" />
    <glyph glyph-name="nu" unicode="&#x3bd;" horiz-adv-x="1148" 
d="M174 1059q128 0 205 -78t110 -252l97 -485h4q105 260 145.5 420t40.5 297q0 41 -6 79h336q10 -44 10 -100q0 -171 -61 -357.5t-248 -582.5h-461l-170 633q-26 99 -53.5 135.5t-73.5 36.5q-19 0 -39 -4v227q74 31 164 31z" />
    <glyph glyph-name="xi" unicode="&#x3be;" horiz-adv-x="1021" 
d="M993 1214h-215q-311 0 -311 -198q0 -75 59.5 -114.5t165.5 -39.5h221v-241h-198q-151 0 -224 -52.5t-73 -142.5q0 -85 66 -127.5t239 -65.5q80 -11 134.5 -36t84.5 -65.5t42.5 -88.5t12.5 -113q0 -121 -59 -227h-268q32 75 32 139q0 70 -51 110t-192 54q-208 21 -303 110
t-95 246q0 145 79 240.5t237 130.5v4q-102 25 -158.5 89.5t-56.5 160.5q0 173 151 223v4h-204v244h884v-244z" />
    <glyph glyph-name="omicron" unicode="&#x3bf;" horiz-adv-x="1236" 
d="M618 1073q255 0 406.5 -150t151.5 -403t-151.5 -403t-406.5 -150t-406 150t-151 403t151 403t406 150zM618 815q-93 0 -145.5 -79t-52.5 -216t52.5 -216t145.5 -79t146 79t53 216t-53 216t-146 79z" />
    <glyph glyph-name="pi" unicode="&#x3c0;" horiz-adv-x="1396" 
d="M1362 793h-188v-420q0 -79 24.5 -108t79.5 -29q37 0 55 6v-238q-71 -22 -184 -22q-163 0 -239 78.5t-76 265.5v467h-297v-793h-340v793h-181v247h1346v-247z" />
    <glyph glyph-name="rho" unicode="&#x3c1;" horiz-adv-x="1251" 
d="M647 1073q249 0 396 -153t147 -414q0 -245 -133.5 -389t-360.5 -144q-160 0 -237 90h-4v-442h-340v899q0 253 145 403t387 150zM629 813q-89 0 -141 -80t-52 -213q0 -132 52 -210.5t141 -78.5q97 0 151 77t54 212q0 136 -54.5 214.5t-150.5 78.5z" />
    <glyph glyph-name="sigmafinal" unicode="&#x3c2;" horiz-adv-x="1167" 
d="M594 1073q247 0 381.5 -123.5t148.5 -337.5h-352q-6 95 -52 150t-126 55q-85 0 -132.5 -66t-47.5 -186q0 -132 75 -205t238 -96q90 -13 151 -41t94 -72.5t46.5 -96.5t13.5 -122q0 -120 -59 -229h-268q30 67 30 139q0 37 -10 63t-36 49t-76 38.5t-126 23.5
q-432 46 -432 514q0 256 143.5 399.5t395.5 143.5z" />
    <glyph glyph-name="sigma" unicode="&#x3c3;" horiz-adv-x="1298" 
d="M1280 797h-240v-4q123 -110 123 -306q0 -239 -147 -379.5t-398 -140.5q-255 0 -406 146t-151 393q0 246 151 390t406 144h662v-243zM616 803q-95 0 -145.5 -76t-50.5 -215q0 -137 50.5 -212t145.5 -75q98 0 149.5 75t51.5 212q0 139 -51.5 215t-149.5 76z" />
    <glyph glyph-name="tau" unicode="&#x3c4;" horiz-adv-x="987" 
d="M973 797h-320v-424q0 -78 25 -107.5t80 -29.5q37 0 55 6v-238q-71 -22 -184 -22q-163 0 -239.5 78.5t-76.5 265.5v471h-297v243h957v-243z" />
    <glyph glyph-name="upsilon" unicode="&#x3c5;" horiz-adv-x="1255" 
d="M213 1059q148 0 219.5 -77t71.5 -263v-316q0 -93 35 -135.5t106 -42.5q184 0 184 324q0 269 -69 491h330q75 -224 75 -518q0 -269 -128 -412t-386 -143q-243 0 -366 100t-123 314v262q0 90 -21 124t-67 34q-30 0 -51 -6v233q102 31 190 31z" />
    <glyph glyph-name="phi" unicode="&#x3c6;" horiz-adv-x="1662" 
d="M1602 520q0 -249 -164 -395t-445 -158v-346h-323v346q-281 12 -445 158t-164 395t164 395t445 158v283h323v-283q281 -12 445 -158t164 -395zM408 520q0 -142 68 -222.5t194 -88.5v622q-126 -8 -194 -88.5t-68 -222.5zM993 831v-622q127 7 194.5 87.5t67.5 223.5
t-67.5 223.5t-194.5 87.5z" />
    <glyph glyph-name="chi" unicode="&#x3c7;" horiz-adv-x="1263" 
d="M197 1069q137 0 213 -57.5t139 -202.5l92 -215h4l248 446h373l-428 -714l143 -303q48 -100 91 -133t106 -33q23 0 59 4v-228q-83 -30 -178 -30q-132 0 -209.5 57.5t-140.5 202.5l-82 186h-4l-263 -428h-374l452 686l-155 334q-48 103 -91 138.5t-110 35.5q-41 0 -68 -8
v229q86 33 183 33z" />
    <glyph glyph-name="psi" unicode="&#x3c8;" horiz-adv-x="1732" 
d="M1642 539q0 -257 -149 -399.5t-451 -157.5v-361h-340v361q-291 14 -439 135.5t-148 365.5v557h340v-522q0 -131 61.5 -198.5t185.5 -81.5v1118h340v-1118q261 36 261 327q0 265 -80 475h336q83 -222 83 -501z" />
    <glyph glyph-name="omega" unicode="&#x3c9;" horiz-adv-x="1746" 
d="M1169 1040h355q133 -260 133 -581q0 -237 -107 -363.5t-325 -126.5q-287 0 -351 217h-4q-64 -217 -350 -217q-217 0 -323.5 126.5t-106.5 363.5q0 321 133 581h355q-136 -247 -136 -542q0 -275 146 -275q114 0 114 164v412h340v-412q0 -164 117 -164q146 0 146 275
q0 295 -136 542z" />
    <glyph glyph-name="iotadieresis" unicode="&#x3ca;" horiz-adv-x="684" 
d="M199 1190h-293v268h293v-268zM662 1190h-291v268h291v-268zM455 1040v-606q0 -100 30.5 -144t100.5 -44q46 0 76 10v-252q-78 -20 -173 -20q-196 0 -285 92.5t-89 298.5v665h340z" />
    <glyph glyph-name="upsilondieresis" unicode="&#x3cb;" horiz-adv-x="1255" 
d="M522 1190h-293v268h293v-268zM985 1190h-291v268h291v-268zM213 1059q148 0 219.5 -77t71.5 -263v-316q0 -93 35 -135.5t106 -42.5q184 0 184 324q0 269 -69 491h330q75 -224 75 -518q0 -269 -128 -412t-386 -143q-243 0 -366 100t-123 314v262q0 90 -21 124t-67 34
q-30 0 -51 -6v233q102 31 190 31z" />
    <glyph glyph-name="omicrontonos" unicode="&#x3cc;" horiz-adv-x="1236" 
d="M743 1159h-251l65 340h332zM618 1073q255 0 406.5 -150t151.5 -403t-151.5 -403t-406.5 -150t-406 150t-151 403t151 403t406 150zM618 815q-93 0 -145.5 -79t-52.5 -216t52.5 -216t145.5 -79t146 79t53 216t-53 216t-146 79z" />
    <glyph glyph-name="upsilontonos" unicode="&#x3cd;" horiz-adv-x="1255" 
d="M731 1159h-252l66 340h332zM213 1059q148 0 219.5 -77t71.5 -263v-316q0 -93 35 -135.5t106 -42.5q184 0 184 324q0 269 -69 491h330q75 -224 75 -518q0 -269 -128 -412t-386 -143q-243 0 -366 100t-123 314v262q0 90 -21 124t-67 34q-30 0 -51 -6v233q102 31 190 31z
" />
    <glyph glyph-name="omegatonos" unicode="&#x3ce;" horiz-adv-x="1746" 
d="M997 1159h-252l66 340h332zM1169 1040h355q133 -260 133 -581q0 -237 -107 -363.5t-325 -126.5q-287 0 -351 217h-4q-64 -217 -350 -217q-217 0 -323.5 126.5t-106.5 363.5q0 321 133 581h355q-136 -247 -136 -542q0 -275 146 -275q114 0 114 164v412h340v-412
q0 -164 117 -164q146 0 146 275q0 295 -136 542z" />
    <glyph glyph-name="Iegravecy" unicode="&#x400;" horiz-adv-x="1298" 
d="M709 1866l159 -310h-262l-289 310h392zM1186 1161h-676v-276h631v-293h-631v-295h692v-297h-1046v1458h1030v-297z" />
    <glyph glyph-name="Iocy" unicode="&#x401;" horiz-adv-x="1298" 
d="M588 1575h-293v268h293v-268zM1051 1575h-291v268h291v-268zM1186 1161h-676v-276h631v-293h-631v-295h692v-297h-1046v1458h1030v-297z" />
    <glyph glyph-name="Djecy" unicode="&#x402;" horiz-adv-x="1677" 
d="M1266 1157h-447v-276q127 65 303 65q244 0 377 -128t133 -363q0 -224 -131 -353t-366 -129q-106 0 -195 27v276q59 -16 125 -16q211 0 211 195q0 202 -227 202q-134 0 -230 -55v-602h-354v1157h-447v301h1248v-301z" />
    <glyph glyph-name="Gjecy" unicode="&#x403;" horiz-adv-x="1062" 
d="M666 1556h-263l160 310h391zM156 0v1458h888v-301h-534v-1157h-354z" />
    <glyph glyph-name="Ecy" unicode="&#x404;" horiz-adv-x="1488" 
d="M1051 526h366q-23 -266 -196.5 -412.5t-456.5 -146.5q-324 0 -509 203.5t-185 558.5t186 558.5t510 203.5q286 0 459.5 -149t185.5 -402h-360q-15 119 -89.5 184.5t-195.5 65.5q-126 0 -209 -83.5t-111 -234.5h465v-286h-465q26 -151 110 -234.5t208 -83.5
q120 0 196 67.5t91 190.5z" />
    <glyph glyph-name="Dzecy" unicode="&#x405;" horiz-adv-x="1320" 
d="M645 1491q277 0 424.5 -122t147.5 -355h-369q0 97 -56 150t-161 53q-87 0 -140 -38t-53 -100q0 -69 60.5 -103.5t230.5 -76.5q72 -18 119 -31.5t107.5 -35.5t99.5 -45t80.5 -58t65 -76t39 -96.5t15.5 -122.5q0 -214 -162 -340.5t-434 -126.5q-287 0 -448.5 132.5
t-161.5 375.5h377q0 -225 242 -225q100 0 157.5 41t57.5 112q0 24 -6 43t-14.5 33t-29 27.5t-37 22t-53 20t-62 18.5t-77.5 21q-57 15 -92 24.5t-86.5 26t-83.5 30.5t-73 36t-66.5 44.5t-52.5 54t-42 67t-24.5 80t-9.5 96.5q0 201 155 322.5t416 121.5z" />
    <glyph glyph-name="Icy" unicode="&#x406;" horiz-adv-x="665" 
d="M510 0h-354v1458h354v-1458z" />
    <glyph glyph-name="Yicy" unicode="&#x407;" horiz-adv-x="665" 
d="M248 1575h-293v268h293v-268zM711 1575h-291v268h291v-268zM510 0h-354v1458h354v-1458z" />
    <glyph glyph-name="Jecy" unicode="&#x408;" horiz-adv-x="839" 
d="M694 1458v-964q0 -263 -121.5 -386.5t-382.5 -123.5q-94 0 -159 18v295q48 -10 92 -10q80 0 125.5 24t68.5 86t23 174v887h354z" />
    <glyph glyph-name="Ljecy" unicode="&#x409;" horiz-adv-x="2199" 
d="M1370 969h229q272 0 413.5 -129.5t141.5 -354.5q0 -227 -141.5 -356t-413.5 -129h-583v1157h-359q-7 -187 -19 -335t-30.5 -266t-41.5 -205t-55.5 -151t-68.5 -105t-85 -65.5t-101 -34t-119 -9.5q-71 0 -114 14v287q16 -4 36 -4q48 0 80.5 16.5t61.5 64.5t47 128
t33.5 214t24.5 314.5t16 437.5h1048v-489zM1370 684v-399h180q242 0 242 200q0 199 -242 199h-180z" />
    <glyph glyph-name="Njecy" unicode="&#x40a;" horiz-adv-x="2232" 
d="M1403 969h229q272 0 413.5 -129.5t141.5 -354.5q0 -227 -141.5 -356t-413.5 -129h-583v604h-539v-604h-354v1458h354v-553h539v553h354v-489zM1403 285h180q242 0 242 200q0 199 -242 199h-180v-399z" />
    <glyph glyph-name="Tshecy" unicode="&#x40b;" horiz-adv-x="1677" 
d="M1145 901q227 0 348 -118.5t121 -340.5v-442h-354v373q0 110 -56 168.5t-160 58.5q-124 0 -225 -33v-567h-354v1157h-447v301h1248v-301h-447v-299q143 43 326 43z" />
    <glyph glyph-name="Kjecy" unicode="&#x40c;" horiz-adv-x="1413" 
d="M772 1556h-262l160 310h391zM836 768l569 -768h-447l-444 672h-4v-672h-354v1458h354v-629h4l428 629h424z" />
    <glyph glyph-name="Iigravecy" unicode="&#x40d;" horiz-adv-x="1640" 
d="M827 1866l160 -310h-262l-289 310h391zM496 1458v-545q0 -265 -17 -614h4q103 282 238 584l254 575h512v-1458h-340v545q0 341 16 614h-4q-110 -293 -237 -584l-256 -575h-510v1458h340z" />
    <glyph glyph-name="Ushortcy" unicode="&#x40e;" horiz-adv-x="1431" 
d="M864 1866h217q-7 -151 -102.5 -233.5t-261.5 -82.5t-262 82.5t-103 233.5h217q3 -57 41.5 -88t106.5 -31q67 0 104.5 31t42.5 88zM1430 1458l-564 -1167q-82 -171 -191 -241t-257 -70q-104 0 -182 20v291q40 -12 100 -12q74 0 118 33.5t44 97.5q0 37 -13.5 69t-91.5 189
l-391 790h385l170 -391q128 -306 160 -389h4q68 187 156 389l167 391h386z" />
    <glyph glyph-name="Dzhecy" unicode="&#x40f;" horiz-adv-x="1538" 
d="M1382 0h-450v-328h-340v328h-436v1458h356v-1157h514v1157h356v-1458z" />
    <glyph glyph-name="Acy" unicode="&#x410;" horiz-adv-x="1464" 
d="M997 309h-528l-94 -309h-373l498 1458h465l497 -1458h-372zM911 600l-30 98q-92 303 -148 531h-4q-63 -259 -143 -531l-29 -98h354z" />
    <glyph glyph-name="Becy" unicode="&#x411;" horiz-adv-x="1384" 
d="M1217 1171h-713v-264h276q250 0 390.5 -121.5t140.5 -332.5t-140.5 -332t-390.5 -121h-624v1458h1061v-287zM504 635v-361h205q235 0 235 179q0 182 -235 182h-205z" />
    <glyph glyph-name="Vecy" unicode="&#x412;" horiz-adv-x="1359" 
d="M156 1458h569q263 0 396.5 -100.5t133.5 -274.5q0 -127 -60.5 -208t-186.5 -125v-5q284 -64 284 -339q0 -188 -141 -297t-391 -109h-604v1458zM504 1184v-316h184q118 0 171.5 39t53.5 121q0 81 -51 118.5t-162 37.5h-196zM504 608v-332h192q123 0 177.5 39t54.5 123
q0 89 -56 129.5t-182 40.5h-186z" />
    <glyph glyph-name="Gecy" unicode="&#x413;" horiz-adv-x="1062" 
d="M156 0v1458h888v-301h-534v-1157h-354z" />
    <glyph glyph-name="Decy" unicode="&#x414;" horiz-adv-x="1652" 
d="M1630 301v-629h-340v328h-919v-328h-340v629h178q62 129 95.5 383t43.5 774h1102v-1157h180zM1096 1157h-412q-16 -564 -106 -856h518v856z" />
    <glyph glyph-name="Iecy" unicode="&#x415;" horiz-adv-x="1298" 
d="M1186 1161h-676v-276h631v-293h-631v-295h692v-297h-1046v1458h1030v-297z" />
    <glyph glyph-name="Zhecy" unicode="&#x416;" horiz-adv-x="1951" 
d="M1477 762l467 -762h-418l-371 713h-4v-713h-348v713h-4l-373 -713h-418l467 762l-432 696h408l348 -663h4v663h348v-663h4l346 663h408z" />
    <glyph glyph-name="Zecy" unicode="&#x417;" horiz-adv-x="1335" 
d="M668 1489q268 0 422.5 -109t154.5 -305q0 -120 -60.5 -196t-195.5 -123v-4q145 -47 213 -132.5t68 -222.5q0 -200 -160 -315t-436 -115q-304 0 -467.5 131.5t-163.5 380.5h381q0 -110 63.5 -167.5t186.5 -57.5q98 0 157.5 44.5t59.5 117.5q0 176 -268 176h-91v278h91
q119 0 186.5 45.5t67.5 124.5q0 74 -58 118t-157 44q-108 0 -166 -54.5t-58 -160.5h-375q0 236 159.5 369t445.5 133z" />
    <glyph glyph-name="Iicy" unicode="&#x418;" horiz-adv-x="1640" 
d="M496 1458v-545q0 -265 -17 -614h4q103 282 238 584l254 575h512v-1458h-340v545q0 341 16 614h-4q-110 -293 -237 -584l-256 -575h-510v1458h340z" />
    <glyph glyph-name="Iishortcy" unicode="&#x419;" horiz-adv-x="1640" 
d="M940 1866h217q-7 -151 -102.5 -233.5t-261.5 -82.5t-262 82.5t-103 233.5h217q3 -57 41.5 -88t106.5 -31q67 0 104.5 31t42.5 88zM496 1458v-545q0 -265 -17 -614h4q103 282 238 584l254 575h512v-1458h-340v545q0 341 16 614h-4q-110 -293 -237 -584l-256 -575h-510
v1458h340z" />
    <glyph glyph-name="Kacy" unicode="&#x41a;" horiz-adv-x="1413" 
d="M836 768l569 -768h-447l-444 672h-4v-672h-354v1458h354v-629h4l428 629h424z" />
    <glyph glyph-name="Elcy" unicode="&#x41b;" horiz-adv-x="1525" 
d="M1370 0h-354v1157h-359q-7 -187 -19 -335t-30.5 -266t-41.5 -205t-55.5 -151t-68.5 -105t-85 -65.5t-101 -34t-119 -9.5q-71 0 -114 14v287q16 -4 36 -4q48 0 80.5 16.5t61.5 64.5t47 128t33.5 214t24.5 314.5t16 437.5h1048v-1458z" />
    <glyph glyph-name="Emcy" unicode="&#x41c;" horiz-adv-x="2074" 
d="M1919 0h-334v713q0 271 12 538h-4q-49 -211 -139 -530l-207 -721h-420l-206 721q-96 340 -140 530h-4q12 -267 12 -538v-713h-333v1458h567l186 -647q75 -272 127 -537h4q47 254 125 537l189 647h565v-1458z" />
    <glyph glyph-name="Ency" unicode="&#x41d;" horiz-adv-x="1558" 
d="M1403 0h-354v604h-539v-604h-354v1458h354v-553h539v553h354v-1458z" />
    <glyph glyph-name="Ocy" unicode="&#x41e;" horiz-adv-x="1550" 
d="M776 1491q325 0 515 -205t190 -557t-190 -557t-515 -205q-327 0 -516.5 205t-189.5 557t189.5 557t516.5 205zM776 1184q-160 0 -248 -119.5t-88 -335.5t88 -335.5t248 -119.5q158 0 246 120t88 335t-88 335t-246 120z" />
    <glyph glyph-name="Pecy" unicode="&#x41f;" horiz-adv-x="1536" 
d="M1380 0h-352v1157h-518v-1157h-354v1458h1224v-1458z" />
    <glyph glyph-name="Ercy" unicode="&#x420;" horiz-adv-x="1339" 
d="M156 1458h583q272 0 413.5 -129t141.5 -356q0 -225 -141.5 -354.5t-413.5 -129.5h-229v-489h-354v1458zM510 1174v-400h180q242 0 242 199q0 201 -242 201h-180z" />
    <glyph glyph-name="Escy" unicode="&#x421;" horiz-adv-x="1464" 
d="M752 1491q282 0 452.5 -150.5t181.5 -406.5h-366q-12 119 -82.5 184.5t-185.5 65.5q-145 0 -228.5 -121.5t-83.5 -333.5q0 -211 83 -333t225 -122q116 0 187.5 67.5t86.5 190.5h371q-22 -269 -193 -417t-452 -148q-315 0 -496.5 203.5t-181.5 558.5q0 354 182.5 558
t499.5 204z" />
    <glyph glyph-name="Tecy" unicode="&#x422;" horiz-adv-x="1284" 
d="M1266 1157h-447v-1157h-354v1157h-447v301h1248v-301z" />
    <glyph glyph-name="Ucy" unicode="&#x423;" horiz-adv-x="1431" 
d="M1430 1458l-564 -1167q-82 -171 -191 -241t-257 -70q-104 0 -182 20v291q40 -12 100 -12q74 0 118 33.5t44 97.5q0 37 -13.5 69t-91.5 189l-391 790h385l170 -391q128 -306 160 -389h4q68 187 156 389l167 391h386z" />
    <glyph glyph-name="Efcy" unicode="&#x424;" horiz-adv-x="1802" 
d="M1733 729q0 -284 -171 -445.5t-491 -183.5v-153h-342v153q-319 22 -489 183.5t-170 445.5t170 445.5t489 183.5v153h342v-153q320 -22 491 -183.5t171 -445.5zM1065 1075v-692q148 20 225.5 108t77.5 238t-77.5 238t-225.5 108zM434 729q0 -149 76.5 -237.5t224.5 -108.5
v692q-148 -20 -224.5 -108.5t-76.5 -237.5z" />
    <glyph glyph-name="Hacy" unicode="&#x425;" horiz-adv-x="1370" 
d="M913 748l455 -748h-418l-262 504h-4l-264 -504h-416l453 748l-428 710h407l248 -487h4l246 487h407z" />
    <glyph glyph-name="Tsecy" unicode="&#x426;" horiz-adv-x="1595" 
d="M1382 301h181v-629h-340v328h-1067v1458h356v-1157h514v1157h356v-1157z" />
    <glyph glyph-name="Checy" unicode="&#x427;" horiz-adv-x="1427" 
d="M1272 0h-354v528q-154 -41 -347 -41q-246 0 -377 118.5t-131 338.5v514h355v-444q0 -109 64.5 -167.5t185.5 -58.5q126 0 250 31v639h354v-1458z" />
    <glyph glyph-name="Shacy" unicode="&#x428;" horiz-adv-x="2138" 
d="M1982 0h-1826v1458h356v-1157h379v1157h356v-1157h381v1157h354v-1458z" />
    <glyph glyph-name="Shchacy" unicode="&#x429;" horiz-adv-x="2185" 
d="M1982 301h181v-629h-340v328h-1667v1458h356v-1157h379v1157h356v-1157h381v1157h354v-1157z" />
    <glyph glyph-name="Hardsigncy" unicode="&#x42a;" horiz-adv-x="1587" 
d="M758 969h229q272 0 413.5 -129.5t141.5 -354.5q0 -227 -141.5 -356t-413.5 -129h-584v1157h-385v301h740v-489zM758 684v-399h180q242 0 242 200q0 199 -242 199h-180z" />
    <glyph glyph-name="Yerucy" unicode="&#x42b;" horiz-adv-x="2004" 
d="M156 0v1458h354v-489h229q272 0 413.5 -129.5t141.5 -354.5q0 -227 -141.5 -356t-413.5 -129h-583zM1849 0h-354v1458h354v-1458zM510 285h180q242 0 242 200q0 199 -242 199h-180v-399z" />
    <glyph glyph-name="Softsigncy" unicode="&#x42c;" horiz-adv-x="1339" 
d="M156 0v1458h354v-489h229q272 0 413.5 -129.5t141.5 -354.5q0 -227 -141.5 -356t-413.5 -129h-583zM510 285h180q242 0 242 200q0 199 -242 199h-180v-399z" />
    <glyph glyph-name="Ereversedcy" unicode="&#x42d;" horiz-adv-x="1488" 
d="M723 1491q324 0 510 -203.5t186 -558.5t-185 -558.5t-507 -203.5q-285 0 -458.5 146t-196.5 413h366q17 -123 92.5 -190.5t196.5 -67.5q124 0 206.5 83.5t108.5 234.5h-464v286h464q-28 152 -111 235t-208 83q-121 0 -195 -65.5t-88 -184.5h-362q12 253 186 402t459 149z
" />
    <glyph glyph-name="Iucy" unicode="&#x42e;" horiz-adv-x="2158" 
d="M1411 1491q313 0 495.5 -205.5t182.5 -558.5q0 -352 -182 -556t-496 -204q-276 0 -452.5 163t-213.5 450h-235v-580h-354v1458h354v-577h235q38 285 214 447.5t452 162.5zM1413 274q146 0 227.5 119.5t81.5 333.5q0 216 -81.5 336.5t-227.5 120.5t-228.5 -120t-82.5 -335
t82.5 -335t228.5 -120z" />
    <glyph glyph-name="Iacy" unicode="&#x42f;" horiz-adv-x="1390" 
d="M1237 1458v-1458h-356v516h-246h-12l-244 -516h-381l301 584q-223 113 -223 409q0 226 138 345.5t413 119.5h610zM881 1184h-211q-244 0 -244 -197q0 -203 229 -203h226v400z" />
    <glyph glyph-name="acy" unicode="&#x430;" horiz-adv-x="1148" 
d="M563 1073q237 0 355 -107.5t118 -314.5v-358q0 -181 31 -293h-307q-15 62 -15 135h-4q-119 -162 -338 -162q-165 0 -261.5 90t-96.5 230q0 138 96 220t318 116q128 20 250 28v37q0 84 -39 124t-107 40q-69 0 -107.5 -37.5t-39.5 -107.5h-328q4 76 34 140t86 114t147 78
t208 28zM709 434v37q-100 -4 -185 -20q-76 -15 -109.5 -46.5t-33.5 -87.5q0 -55 34.5 -86.5t98.5 -31.5q90 0 143 53q31 32 41.5 72.5t10.5 109.5z" />
    <glyph glyph-name="becy" unicode="&#x431;" horiz-adv-x="1243" 
d="M1112 1491v-274q-106 -32 -334 -39q-127 -4 -210 -26.5t-133.5 -68t-74.5 -105.5t-36 -153h4q85 181 354 181q223 0 355 -132t132 -356q0 -253 -149.5 -402t-401.5 -149q-267 0 -408.5 158t-141.5 461q0 193 26 334t75 237.5t129 156.5t179 89.5t234 38.5q289 20 401 49z
M612 770q-192 0 -192 -268q0 -136 50.5 -210.5t145.5 -74.5t146 72.5t51 204.5q0 131 -53 203.5t-148 72.5z" />
    <glyph glyph-name="vecy" unicode="&#x432;" horiz-adv-x="1163" 
d="M125 1040h520q426 0 426 -280q0 -90 -48 -143t-149 -80v-5q110 -20 167 -82t57 -159q0 -140 -112.5 -215.5t-321.5 -75.5h-539v1040zM451 834v-213h135q155 0 155 106q0 107 -155 107h-135zM451 432v-225h133q174 0 174 112q0 113 -174 113h-133z" />
    <glyph glyph-name="gecy" unicode="&#x433;" horiz-adv-x="925" 
d="M907 793h-442v-793h-340v1040h782v-247z" />
    <glyph glyph-name="decy" unicode="&#x434;" horiz-adv-x="1368" 
d="M1352 248v-576h-336v328h-664v-328h-336v576h125q55 89 87 260t51 532h933v-792h140zM877 793h-279q-19 -347 -78 -545h357v545z" />
    <glyph glyph-name="iecy" unicode="&#x435;" horiz-adv-x="1196" 
d="M598 195q72 0 119 34.5t55 89.5h346q-33 -153 -173 -252.5t-343 -99.5q-255 0 -398 155t-143 406q0 155 62 277.5t185 195t290 72.5q182 0 311.5 -89t184.5 -245q41 -110 41 -288h-740q6 -137 61 -196.5t142 -59.5zM598 850q-79 0 -131 -50.5t-66 -156.5h392
q-10 104 -63.5 155.5t-131.5 51.5z" />
    <glyph glyph-name="zhecy" unicode="&#x436;" horiz-adv-x="1628" 
d="M1651 0h-402l-266 516h-4v-516h-330v516h-4l-268 -516h-400l363 557l-326 483h377l254 -452h4v452h330v-452h4l254 452h377l-326 -483z" />
    <glyph glyph-name="zecy" unicode="&#x437;" horiz-adv-x="1089" 
d="M551 1073q204 0 326 -80.5t122 -224.5q0 -85 -41.5 -138.5t-138.5 -86.5v-4q108 -34 156.5 -94.5t48.5 -159.5q0 -153 -124.5 -235.5t-348.5 -82.5q-240 0 -370 97.5t-130 285.5h326q0 -145 174 -145q67 0 107 27.5t40 74.5q0 109 -170 109h-100v215h100q72 0 112 27.5
t40 76.5q0 46 -35.5 73.5t-99.5 27.5q-76 0 -117 -37t-41 -103h-315q0 176 128.5 276.5t350.5 100.5z" />
    <glyph glyph-name="iicy" unicode="&#x438;" horiz-adv-x="1406" 
d="M1282 0h-330v369q0 194 19 411h-4q-58 -184 -154 -383l-197 -397h-491v1040h330v-370q0 -204 -21 -410h4q63 189 156 383l197 397h491v-1040z" />
    <glyph glyph-name="iishortcy" unicode="&#x439;" horiz-adv-x="1406" 
d="M852 1458h217q-7 -151 -102.5 -233t-261.5 -82t-262 82.5t-103 232.5h217q3 -57 41.5 -88t106.5 -31q67 0 104.5 31t42.5 88zM1282 0h-330v369q0 194 19 411h-4q-58 -184 -154 -383l-197 -397h-491v1040h330v-370q0 -204 -21 -410h4q63 189 156 383l197 397h491v-1040z
" />
    <glyph glyph-name="kacy" unicode="&#x43a;" horiz-adv-x="1181" 
d="M1180 0h-418l-293 471h-4v-471h-340v1040h340v-409h4l279 409h393l-371 -485z" />
    <glyph glyph-name="elcy" unicode="&#x43b;" horiz-adv-x="1216" 
d="M1092 0h-340v793h-213q-6 -203 -26 -345.5t-51.5 -233t-82.5 -141t-109.5 -69t-142.5 -18.5q-66 0 -115 14v240q20 -4 41 -4q50 0 80 28.5t54 114.5t35.5 244.5t15.5 416.5h854v-1040z" />
    <glyph glyph-name="emcy" unicode="&#x43c;" horiz-adv-x="1736" 
d="M1612 0h-307v463q0 163 10 368h-2q-49 -190 -101 -364l-143 -467h-401l-146 467q-68 240 -98 364h-4q10 -205 10 -368v-463h-305v1040h518l133 -432q48 -155 90 -381h4q29 182 88 381l134 432h520v-1040z" />
    <glyph glyph-name="ency" unicode="&#x43d;" horiz-adv-x="1273" 
d="M1149 0h-340v406h-344v-406h-340v1040h340v-389h344v389h340v-1040z" />
    <glyph glyph-name="ocy" unicode="&#x43e;" horiz-adv-x="1236" 
d="M618 1073q255 0 406.5 -150t151.5 -403t-151.5 -403t-406.5 -150t-406 150t-151 403t151 403t406 150zM618 815q-93 0 -145.5 -79t-52.5 -216t52.5 -216t145.5 -79t146 79t53 216t-53 216t-146 79z" />
    <glyph glyph-name="pecy" unicode="&#x43f;" horiz-adv-x="1259" 
d="M1135 0h-340v793h-330v-793h-340v1040h1010v-1040z" />
    <glyph glyph-name="ercy" unicode="&#x440;" horiz-adv-x="1249" 
d="M745 1069q201 0 322 -149.5t121 -399.5t-118 -399.5t-316 -149.5q-86 0 -162.5 37t-122.5 105h-4v-492h-340v1419h328v-129h4q46 76 123 117t165 41zM637 811q-87 0 -139 -78.5t-52 -212.5t52 -212.5t139 -78.5q89 0 141.5 79.5t52.5 211.5t-52.5 211.5t-141.5 79.5z" />
    <glyph glyph-name="escy" unicode="&#x441;" horiz-adv-x="1177" 
d="M604 1073q220 0 361.5 -118.5t158.5 -311.5h-352q-7 82 -51.5 128t-114.5 46q-89 0 -138.5 -78.5t-49.5 -216.5q0 -141 50.5 -219t139.5 -78q70 0 114 51.5t48 141.5h354q-17 -206 -156.5 -328.5t-361.5 -122.5q-249 0 -397 150.5t-148 404.5q0 252 147.5 401.5
t395.5 149.5z" />
    <glyph glyph-name="tecy" unicode="&#x442;" horiz-adv-x="997" 
d="M989 793h-321v-793h-340v793h-320v247h981v-247z" />
    <glyph glyph-name="ucy" unicode="&#x443;" horiz-adv-x="1085" 
d="M1102 1040l-346 -1022q-78 -230 -188.5 -320.5t-311.5 -90.5q-88 0 -176 18v258q50 -16 104 -16q72 0 115 36t43 99q0 29 -10 65.5t-47 135.5l-305 837h366l100 -348q66 -238 105 -434h4q47 233 104 436l97 346h346z" />
    <glyph glyph-name="efcy" unicode="&#x444;" horiz-adv-x="1722" 
d="M1028 1458v-467q90 78 209 78q193 0 308.5 -149t115.5 -400t-115.5 -400t-310.5 -149q-115 0 -207 76v-426h-334v426q-92 -76 -207 -76q-196 0 -311 149t-115 400t114.5 400t309.5 149q119 0 209 -78v467h334zM598 815q-86 0 -136 -80.5t-50 -214.5t50 -214.5t136 -80.5
q53 0 96 43v504q-43 43 -96 43zM1124 815q-53 0 -96 -43v-504q43 -43 96 -43q86 0 136.5 80.5t50.5 214.5t-50.5 214.5t-136.5 80.5z" />
    <glyph glyph-name="hacy" unicode="&#x445;" horiz-adv-x="1095" 
d="M760 535l348 -535h-389l-170 334h-4l-170 -334h-387l348 535l-326 505h385l150 -297h4l149 297h387z" />
    <glyph glyph-name="tsecy" unicode="&#x446;" horiz-adv-x="1286" 
d="M1130 248h140v-576h-340v328h-805v1040h340v-792h326v792h339v-792z" />
    <glyph glyph-name="checy" unicode="&#x447;" horiz-adv-x="1173" 
d="M1049 0h-340v362q-127 -34 -283 -34q-180 0 -276.5 84t-96.5 239v389h340v-321q0 -70 40.5 -108t117.5 -38q81 0 158 25v442h340v-1040z" />
    <glyph glyph-name="shacy" unicode="&#x448;" horiz-adv-x="1798" 
d="M1673 0h-1548v1040h340v-792h264v792h340v-792h264v792h340v-1040z" />
    <glyph glyph-name="shchacy" unicode="&#x449;" horiz-adv-x="1828" 
d="M1673 248h139v-576h-339v328h-1348v1040h340v-792h264v792h340v-792h264v792h340v-792z" />
    <glyph glyph-name="hardsigncy" unicode="&#x44a;" horiz-adv-x="1329" 
d="M614 723h209q218 0 334.5 -91t116.5 -270q0 -180 -116.5 -271t-334.5 -91h-549v793h-266v247h606v-317zM614 492v-261h166q152 0 152 131q0 63 -38.5 96.5t-113.5 33.5h-166z" />
    <glyph glyph-name="yerucy" unicode="&#x44b;" horiz-adv-x="1716" 
d="M465 723h209q218 0 334 -91t116 -270q0 -181 -116 -271.5t-334 -90.5h-549v1040h340v-317zM1591 0h-340v1040h340v-1040zM465 492v-261h166q151 0 151 131q0 130 -151 130h-166z" />
    <glyph glyph-name="softsigncy" unicode="&#x44c;" horiz-adv-x="1179" 
d="M465 723h209q218 0 334 -91t116 -270q0 -181 -116 -271.5t-334 -90.5h-549v1040h340v-317zM465 492v-261h166q151 0 151 131q0 130 -151 130h-166z" />
    <glyph glyph-name="ereversedcy" unicode="&#x44d;" horiz-adv-x="1177" 
d="M573 1073q248 0 395.5 -149.5t147.5 -401.5q0 -253 -147.5 -404t-395.5 -151q-222 0 -362.5 117t-157.5 315h332q4 -90 55 -141t131 -51q83 0 135.5 57t69.5 162h-321v209h317q-19 97 -71 150t-130 53q-77 0 -128 -47t-58 -129h-332q19 185 160 298t360 113z" />
    <glyph glyph-name="iucy" unicode="&#x44e;" horiz-adv-x="1775" 
d="M1161 1073q253 0 403 -149.5t150 -403.5t-150 -403.5t-403 -149.5q-219 0 -362.5 115t-177.5 317h-156v-399h-340v1040h340v-395h156q35 199 178 313.5t362 114.5zM1161 225q92 0 144.5 79t52.5 216t-52.5 216t-144.5 79t-144 -79t-52 -216t52 -216t144 -79z" />
    <glyph glyph-name="iacy" unicode="&#x44f;" horiz-adv-x="1191" 
d="M1067 1040v-1040h-332v322h-194h-4l-168 -322h-361l225 385q-163 90 -163 307q0 170 115.5 259t346.5 89h535zM735 805h-147q-189 0 -189 -127q0 -129 181 -129h155v256z" />
    <glyph glyph-name="iegravecy" unicode="&#x450;" horiz-adv-x="1196" 
d="M530 1155l-288 303h391l160 -303h-263zM598 195q72 0 119 34.5t55 89.5h346q-33 -153 -173 -252.5t-343 -99.5q-255 0 -398 155t-143 406q0 155 62 277.5t185 195t290 72.5q182 0 311.5 -89t184.5 -245q41 -110 41 -288h-740q6 -137 61 -196.5t142 -59.5zM598 850
q-79 0 -131 -50.5t-66 -156.5h392q-10 104 -63.5 155.5t-131.5 51.5z" />
    <glyph glyph-name="iocy" unicode="&#x451;" horiz-adv-x="1196" 
d="M512 1190h-293v268h293v-268zM975 1190h-291v268h291v-268zM598 195q72 0 119 34.5t55 89.5h346q-33 -153 -173 -252.5t-343 -99.5q-255 0 -398 155t-143 406q0 155 62 277.5t185 195t290 72.5q182 0 311.5 -89t184.5 -245q41 -110 41 -288h-740q6 -137 61 -196.5
t142 -59.5zM598 850q-79 0 -131 -50.5t-66 -156.5h392q-10 104 -63.5 155.5t-131.5 51.5z" />
    <glyph glyph-name="djecy" unicode="&#x452;" horiz-adv-x="1249" 
d="M750 954q180 0 282.5 -109.5t102.5 -318.5v-524q0 -200 -103 -295.5t-280 -95.5q-96 0 -164 18v238q24 -6 53 -6q80 0 117 43t37 155v430q0 100 -39.5 150.5t-114.5 50.5q-82 0 -129 -66.5t-47 -197.5v-426h-340v1100h-145v200h145v158h340v-158h440v-200h-440v-277h4
q106 131 281 131z" />
    <glyph glyph-name="gjecy" unicode="&#x453;" horiz-adv-x="925" 
d="M584 1155h-262l159 303h391zM907 793h-442v-793h-340v1040h782v-247z" />
    <glyph glyph-name="ecy" unicode="&#x454;" horiz-adv-x="1177" 
d="M608 207q79 0 130 51.5t55 140.5h331q-17 -199 -156.5 -315.5t-361.5 -116.5q-249 0 -397 150.5t-148 404.5q0 252 147.5 401.5t395.5 149.5q220 0 361.5 -113.5t158.5 -297.5h-329q-9 83 -59.5 129.5t-129.5 46.5q-78 0 -129.5 -53t-70.5 -150h317v-209h-322
q17 -105 70.5 -162t136.5 -57z" />
    <glyph glyph-name="dzecy" unicode="&#x455;" horiz-adv-x="1110" 
d="M547 1073q219 0 340 -88t121 -260h-324q0 133 -139 133q-58 0 -89.5 -21.5t-31.5 -60.5q0 -45 42.5 -67.5t170.5 -55.5q42 -11 65.5 -17.5t63.5 -19t63.5 -23t56.5 -27.5t53 -34.5t42.5 -42t34.5 -51.5t20 -62t8 -75q0 -152 -129 -243t-354 -91q-242 0 -370 92.5
t-128 278.5h343q0 -148 159 -148q63 0 97 23.5t34 62.5q0 53 -48 79t-191 63q-41 10 -60.5 15.5t-57.5 17t-57.5 20.5t-51 25t-48 31.5t-37.5 39t-31.5 49.5t-18 59.5t-7.5 72.5q0 145 121 235t338 90z" />
    <glyph glyph-name="icy" unicode="&#x456;" horiz-adv-x="589" 
d="M465 1190h-340v268h340v-268zM465 0h-340v1040h340v-1040z" />
    <glyph glyph-name="yicy" unicode="&#x457;" horiz-adv-x="589" 
d="M246 1190h-273v268h273v-268zM614 1190h-270v268h270v-268zM465 0h-340v1040h340v-1040z" />
    <glyph glyph-name="jecy" unicode="&#x458;" horiz-adv-x="591" 
d="M467 1190h-340v268h340v-268zM467 1040v-1038q0 -200 -103 -295.5t-280 -95.5q-96 0 -164 18v238q24 -6 53 -6q80 0 117 43t37 155v981h340z" />
    <glyph glyph-name="ljecy" unicode="&#x459;" horiz-adv-x="1808" 
d="M1092 723h211q217 0 332.5 -91t115.5 -270q0 -180 -115.5 -271t-332.5 -91h-551v793h-213q-6 -203 -26 -345.5t-51.5 -233t-82.5 -141t-109.5 -69t-142.5 -18.5q-66 0 -115 14v240q20 -4 41 -4q50 0 80 28.5t54 114.5t35.5 244.5t15.5 416.5h854v-317zM1092 492v-261h165
q152 0 152 131q0 63 -38.5 96.5t-113.5 33.5h-165z" />
    <glyph glyph-name="njecy" unicode="&#x45a;" horiz-adv-x="1859" 
d="M1145 723h209q218 0 334 -91t116 -270q0 -181 -116 -271.5t-334 -90.5h-549v406h-340v-406h-340v1040h340v-389h340v389h340v-317zM1145 492v-261h166q151 0 151 131q0 130 -151 130h-166z" />
    <glyph glyph-name="tshecy" unicode="&#x45b;" horiz-adv-x="1249" 
d="M750 954q180 0 282.5 -109.5t102.5 -318.5v-526h-340v489q0 100 -39.5 150.5t-114.5 50.5q-82 0 -129 -66.5t-47 -197.5v-426h-340v1100h-145v200h145v158h340v-158h440v-200h-440v-277h4q106 131 281 131z" />
    <glyph glyph-name="kjecy" unicode="&#x45c;" horiz-adv-x="1181" 
d="M672 1155h-262l159 303h392zM1180 0h-418l-293 471h-4v-471h-340v1040h340v-409h4l279 409h393l-371 -485z" />
    <glyph glyph-name="iigravecy" unicode="&#x45d;" horiz-adv-x="1406" 
d="M741 1458l160 -303h-262l-289 303h391zM1282 0h-330v369q0 194 19 411h-4q-58 -184 -154 -383l-197 -397h-491v1040h330v-370q0 -204 -21 -410h4q63 189 156 383l197 397h491v-1040z" />
    <glyph glyph-name="ushortcy" unicode="&#x45e;" horiz-adv-x="1085" 
d="M694 1458h217q-7 -151 -102.5 -233t-261.5 -82t-262 82.5t-103 232.5h217q3 -57 41.5 -88t106.5 -31q67 0 104.5 31t42.5 88zM1102 1040l-346 -1022q-78 -230 -188.5 -320.5t-311.5 -90.5q-88 0 -176 18v258q50 -16 104 -16q72 0 115 36t43 99q0 29 -10 65.5t-47 135.5
l-305 837h366l100 -348q66 -238 105 -434h4q47 233 104 436l97 346h346z" />
    <glyph glyph-name="dzhecy" unicode="&#x45f;" horiz-adv-x="1259" 
d="M1135 0h-338v-328h-340v328h-332v1040h340v-792h330v792h340v-1040z" />
    <glyph glyph-name="Gheupturncy" unicode="&#x490;" horiz-adv-x="1062" 
d="M1044 1157h-534v-1157h-354v1458h549v275h339v-576z" />
    <glyph glyph-name="gheupturncy" unicode="&#x491;" horiz-adv-x="925" 
d="M907 793h-442v-793h-340v1040h469v328h313v-575z" />
    <glyph glyph-name="Ghestrokecy" unicode="&#x492;" horiz-adv-x="1067" 
d="M514 1157v-393h274v-234h-274v-530h-356v530h-127v234h127v694h891v-301h-535z" />
    <glyph glyph-name="ghestrokecy" unicode="&#x493;" horiz-adv-x="937" 
d="M479 793v-234h250v-205h-250v-354h-340v354h-114v205h114v481h783v-247h-443z" />
    <glyph glyph-name="Zhedescendercy" unicode="&#x496;" horiz-adv-x="1951" 
d="M1944 301v-629h-340v328h-78l-371 713h-4v-713h-348v713h-4l-373 -713h-418l467 762l-432 696h408l348 -663h4v663h348v-663h4l346 663h408l-432 -696l282 -461h185z" />
    <glyph glyph-name="zhedescendercy" unicode="&#x497;" horiz-adv-x="1628" 
d="M1651 248v-576h-340v328h-62l-266 516h-4v-516h-330v516h-4l-268 -516h-400l363 557l-326 483h377l254 -452h4v452h330v-452h4l254 452h377l-326 -483l201 -309h162z" />
    <glyph glyph-name="Kadescendercy" unicode="&#x49a;" horiz-adv-x="1413" 
d="M1405 301v-629h-340v328h-107l-444 672h-4v-672h-354v1458h354v-629h4l428 629h424l-530 -690l346 -467h223z" />
    <glyph glyph-name="kadescendercy" unicode="&#x49b;" horiz-adv-x="1181" 
d="M1180 248v-576h-340v328h-78l-293 471h-4v-471h-340v1040h340v-409h4l279 409h393l-371 -485l227 -307h183z" />
    <glyph glyph-name="Kaverticalstrokecy" unicode="&#x49c;" horiz-adv-x="1556" 
d="M817 604h-4v-309h-219v309h-90v-604h-348v1458h348v-553h90v307h219v-307h4l287 553h409l-428 -692l463 -766h-418z" />
    <glyph glyph-name="kaverticalstrokecy" unicode="&#x49d;" horiz-adv-x="1316" 
d="M715 428h-10v-225h-179v225h-71v-428h-330v1040h330v-364h71v233h179v-233h14l205 364h376l-325 -483l362 -557h-399z" />
    <glyph glyph-name="Endescendercy" unicode="&#x4a2;" horiz-adv-x="1615" 
d="M1583 -328h-340v328h-194v604h-539v-604h-354v1458h354v-553h539v553h354v-1157h180v-629z" />
    <glyph glyph-name="endescendercy" unicode="&#x4a3;" horiz-adv-x="1304" 
d="M1288 -328h-340v328h-139v406h-344v-406h-340v1040h340v-389h344v389h340v-792h139v-576z" />
    <glyph glyph-name="Ustraitcy" unicode="&#x4ae;" horiz-adv-x="1357" 
d="M856 551v-551h-354v551l-500 907h393l127 -264q92 -192 156 -367h4q59 168 154 367l127 264h393z" />
    <glyph glyph-name="ustraitcy" unicode="&#x4af;" horiz-adv-x="1091" 
d="M1108 1040l-393 -1071v-348h-340v348l-391 1071h360l102 -333q52 -175 97 -396h4q43 210 98 396l100 333h363z" />
    <glyph glyph-name="Hadescendercy" unicode="&#x4b2;" horiz-adv-x="1370" 
d="M1368 301v-629h-340v328h-78l-262 504h-4l-264 -504h-416l453 748l-428 710h407l248 -487h4l246 487h407l-428 -710l273 -447h182z" />
    <glyph glyph-name="hadescendercy" unicode="&#x4b3;" horiz-adv-x="1095" 
d="M1108 248v-576h-340v328h-49l-170 334h-4l-170 -334h-387l348 535l-326 505h385l150 -297h4l149 297h387l-325 -505l186 -287h162z" />
    <glyph glyph-name="Cheverticalstrokecy" unicode="&#x4b8;" horiz-adv-x="1427" 
d="M1272 1458v-1458h-354v528q-44 -11 -134 -26v-264h-233v249q-236 4 -362 122.5t-126 334.5v514h355v-444q0 -159 133 -207v358h233v-370q80 10 134 24v639h354z" />
    <glyph glyph-name="cheverticalstrokecy" unicode="&#x4b9;" horiz-adv-x="1193" 
d="M1069 1040v-1040h-334v367q-42 -13 -86 -21v-184h-178v166h-31q-187 0 -287 88t-100 250v374h334v-307q0 -61 19.5 -96.5t64.5 -50.5v276h178v-280q39 5 86 20v438h334z" />
    <glyph glyph-name="Shhacy" unicode="&#x4ba;" horiz-adv-x="1427" 
d="M156 1458h354v-528q154 41 346 41q246 0 377 -118.5t131 -338.5v-514h-356v444q0 109 -63.5 167.5t-184.5 58.5q-129 0 -250 -31v-639h-354v1458z" />
    <glyph glyph-name="shhacy" unicode="&#x4bb;" 
d="M465 936h4q106 131 281 131q178 0 279 -109.5t101 -318.5v-639h-339v602q0 100 -39.5 150.5t-112.5 50.5q-81 0 -127.5 -66.5t-46.5 -197.5v-539h-340v1458h340v-522z" />
    <glyph glyph-name="Palochkacy" unicode="&#x4c0;" horiz-adv-x="665" 
d="M510 0h-354v1458h354v-1458z" />
    <glyph glyph-name="palochkacy" unicode="&#x4cf;" horiz-adv-x="589" 
d="M465 0h-340v1458h340v-1458z" />
    <glyph glyph-name="Schwacy" unicode="&#x4d8;" horiz-adv-x="1587" 
d="M776 1491q230 0 398.5 -95t256 -266.5t87.5 -398.5q0 -217 -85.5 -389t-253 -273.5t-391.5 -101.5q-330 0 -524 205.5t-194 554.5q0 69 6 113h1073q-5 77 -27.5 139t-57.5 103.5t-81.5 69t-98 40t-110.5 12.5q-118 0 -192.5 -54.5t-94.5 -141.5h-378q22 100 76 186.5
t136 153t199.5 105t255.5 38.5zM788 256q140 0 233 81t120 238h-697q21 -157 115 -238t229 -81z" />
    <glyph glyph-name="schwacy" unicode="&#x4d9;" horiz-adv-x="1196" 
d="M588 1073q172 0 297 -71.5t187.5 -195t62.5 -284.5q0 -157 -62.5 -281.5t-186.5 -199t-290 -74.5q-246 0 -390.5 149t-144.5 402q0 33 5 78h733q-6 132 -62 191t-145 59q-65 0 -107 -32.5t-51 -84.5h-346q33 148 168.5 246t331.5 98zM596 190q79 0 132 52t67 161h-394
q10 -107 63.5 -160t131.5 -53z" />
    <glyph glyph-name="Obarredcy" unicode="&#x4e8;" horiz-adv-x="1550" 
d="M776 1491q325 0 515 -205t190 -557t-190 -557t-515 -205q-327 0 -516.5 205t-189.5 557t189.5 557t516.5 205zM776 1202q-140 0 -231 -89t-117 -251h696q-26 162 -117 251t-231 89zM776 256q140 0 231 89t117 251h-696q26 -162 117 -251t231 -89z" />
    <glyph glyph-name="obarredcy" unicode="&#x4e9;" horiz-adv-x="1236" 
d="M618 1073q255 0 406.5 -150t151.5 -403t-151.5 -403t-406.5 -150t-406 150t-151 403t151 403t406 150zM618 838q-88 0 -144.5 -60t-74.5 -166h441q-18 106 -75.5 166t-146.5 60zM618 203q88 0 145.5 59t74.5 166h-441q17 -107 74 -166t147 -59z" />
    <glyph glyph-name="Wgrave" unicode="&#x1e80;" horiz-adv-x="2029" 
d="M1049 1866l159 -310h-262l-289 310h392zM1718 0h-471l-123 584q-64 292 -108 585h-4q-39 -260 -107 -585l-123 -584h-471l-295 1458h344l99 -526q57 -310 94 -610h4q50 308 117 610l114 526h453l115 -526q67 -302 114 -610h5q42 319 96 610l96 526h346z" />
    <glyph glyph-name="wgrave" unicode="&#x1e81;" horiz-adv-x="1736" 
d="M905 1458l160 -303h-262l-289 303h391zM1497 0h-465l-84 391q-49 227 -78 436h-4q-29 -209 -78 -436l-83 -391h-465l-232 1040h332l68 -383q41 -218 65 -442h4q40 255 84 444l86 381h443l86 -381q44 -189 84 -444h4q24 224 65 442l68 383h332z" />
    <glyph glyph-name="Wacute" unicode="&#x1e82;" horiz-adv-x="2029" 
d="M1077 1556h-262l160 310h391zM1718 0h-471l-123 584q-64 292 -108 585h-4q-39 -260 -107 -585l-123 -584h-471l-295 1458h344l99 -526q57 -310 94 -610h4q50 308 117 610l114 526h453l115 -526q67 -302 114 -610h5q42 319 96 610l96 526h346z" />
    <glyph glyph-name="wacute" unicode="&#x1e83;" horiz-adv-x="1736" 
d="M934 1155h-262l159 303h392zM1497 0h-465l-84 391q-49 227 -78 436h-4q-29 -209 -78 -436l-83 -391h-465l-232 1040h332l68 -383q41 -218 65 -442h4q40 255 84 444l86 381h443l86 -381q44 -189 84 -444h4q24 224 65 442l68 383h332z" />
    <glyph glyph-name="Wdieresis" unicode="&#x1e84;" horiz-adv-x="2029" 
d="M926 1575h-293v268h293v-268zM1389 1575h-291v268h291v-268zM1718 0h-471l-123 584q-64 292 -108 585h-4q-39 -260 -107 -585l-123 -584h-471l-295 1458h344l99 -526q57 -310 94 -610h4q50 308 117 610l114 526h453l115 -526q67 -302 114 -610h5q42 319 96 610l96 526
h346z" />
    <glyph glyph-name="wdieresis" unicode="&#x1e85;" horiz-adv-x="1736" 
d="M782 1190h-293v268h293v-268zM1245 1190h-291v268h291v-268zM1497 0h-465l-84 391q-49 227 -78 436h-4q-29 -209 -78 -436l-83 -391h-465l-232 1040h332l68 -383q41 -218 65 -442h4q40 255 84 444l86 381h443l86 -381q44 -189 84 -444h4q24 224 65 442l68 383h332z" />
    <glyph glyph-name="Germandbls" unicode="&#x1e9e;" horiz-adv-x="1667" 
d="M1497 1200l-297 -330q402 -113 402 -469q0 -206 -141 -319t-380 -113t-364 109.5t-125 327.5h319q0 -158 160 -158q78 0 121 40.5t43 117.5q0 117 -99.5 177t-297.5 72v238l221 246q-84 65 -219 65q-173 0 -262 -94t-89 -279v-831h-354v823q0 327 187 496.5t542 169.5
q198 0 363 -77.5t270 -211.5z" />
    <glyph glyph-name="Ygrave" unicode="&#x1ef2;" horiz-adv-x="1357" 
d="M715 1866l159 -310h-262l-288 310h391zM856 551v-551h-354v551l-500 907h393l127 -264q92 -192 156 -367h4q59 168 154 367l127 264h393z" />
    <glyph glyph-name="ygrave" unicode="&#x1ef3;" horiz-adv-x="1085" 
d="M584 1458l159 -303h-262l-288 303h391zM1102 1040l-346 -1022q-78 -230 -188.5 -320.5t-311.5 -90.5q-88 0 -176 18v258q50 -16 104 -16q72 0 115 36t43 99q0 29 -10 65.5t-47 135.5l-305 837h366l100 -348q66 -238 105 -434h4q47 233 104 436l97 346h346z" />
    <glyph glyph-name="hyphentwo" unicode="&#x2010;" horiz-adv-x="690" 
d="M629 473h-568v250h568v-250z" />
    <glyph glyph-name="endash" unicode="&#x2013;" horiz-adv-x="1024" 
d="M983 473h-942v250h942v-250z" />
    <glyph glyph-name="emdash" unicode="&#x2014;" horiz-adv-x="2048" 
d="M2007 473h-1966v250h1966v-250z" />
    <glyph glyph-name="horizontalbar" unicode="&#x2015;" horiz-adv-x="2048" 
d="M2007 473h-1966v250h1966v-250z" />
    <glyph glyph-name="underscoredbl" unicode="&#x2017;" horiz-adv-x="1024" 
d="M1024 -274h-1024v172h1024v-172zM1024 -596h-1024v172h1024v-172z" />
    <glyph glyph-name="quoteleft" unicode="&#x2018;" horiz-adv-x="544" 
d="M121 1149l158 309h170l-121 -309h100v-322h-307v322z" />
    <glyph glyph-name="quoteright" unicode="&#x2019;" horiz-adv-x="544" 
d="M424 1139l-158 -312h-170l121 312h-100v319h307v-319z" />
    <glyph glyph-name="quotesinglbase" unicode="&#x201a;" horiz-adv-x="544" 
d="M424 0l-158 -309h-170l121 309h-100v319h307v-319z" />
    <glyph glyph-name="quotereversed" unicode="&#x201b;" horiz-adv-x="544" 
d="M428 1458v-319h-100l121 -312h-170l-158 312v319h307z" />
    <glyph glyph-name="quotedblleft" unicode="&#x201c;" horiz-adv-x="954" 
d="M121 1149l158 309h170l-121 -309h100v-322h-307v322zM530 1149l158 309h170l-121 -309h101v-322h-308v322z" />
    <glyph glyph-name="quotedblright" unicode="&#x201d;" horiz-adv-x="954" 
d="M424 1139l-158 -312h-170l121 312h-100v319h307v-319zM834 1139l-158 -312h-170l121 312h-101v319h308v-319z" />
    <glyph glyph-name="quotedblbase" unicode="&#x201e;" horiz-adv-x="954" 
d="M424 0l-158 -311h-170l121 311h-100v319h307v-319zM834 0l-158 -311h-170l121 311h-101v319h308v-319z" />
    <glyph glyph-name="dagger" unicode="&#x2020;" horiz-adv-x="1241" 
d="M791 1120h333v-284h-333v-1082h-340v1082h-334v282h334v340h340v-338z" />
    <glyph glyph-name="daggerdbl" unicode="&#x2021;" horiz-adv-x="1241" 
d="M791 1120h333v-278h-333v-471h333v-279h-333v-338h-340v338h-334v279h334v471h-334v278h334v338h340v-338z" />
    <glyph glyph-name="bullet" unicode="&#x2022;" horiz-adv-x="796" 
d="M399 412q-132 0 -224.5 93t-92.5 224q0 132 92.5 225t224.5 93q131 0 223.5 -93t92.5 -225q0 -131 -93 -224t-223 -93z" />
    <glyph glyph-name="ellipsis" unicode="&#x2026;" horiz-adv-x="1931" 
d="M461 0h-361v377h361v-377zM1147 0h-363v377h363v-377zM1833 0h-363v377h363v-377z" />
    <glyph glyph-name="perthousand" unicode="&#x2030;" horiz-adv-x="2287" 
d="M475 -61h-209l824 1503h208zM375 1419q151 0 232 -94t81 -268q0 -175 -81 -269t-232 -94t-232.5 94t-81.5 269q0 173 81.5 267.5t232.5 94.5zM375 1247q-92 0 -92 -190q0 -191 92 -191t92 191q0 190 -92 190zM1194 686q151 0 232 -94t81 -268q0 -175 -81 -269t-232 -94
t-232 94t-81 269q0 174 81 268t232 94zM1913 686q151 0 232 -94t81 -268q0 -175 -81 -269t-232 -94t-232.5 94t-81.5 269q0 173 81.5 267.5t232.5 94.5zM1194 514q-44 0 -68 -49t-24 -141q0 -93 24 -142t68 -49q94 0 94 191q0 92 -24 141t-70 49zM1913 514q-92 0 -92 -190
q0 -191 92 -191t92 191q0 190 -92 190z" />
    <glyph glyph-name="minute" unicode="&#x2032;" horiz-adv-x="485" 
d="M274 885h-213l64 495h299z" />
    <glyph glyph-name="second" unicode="&#x2033;" horiz-adv-x="880" 
d="M274 885h-213l64 495h299zM676 885h-213l63 495h299z" />
    <glyph glyph-name="guilsinglleft" unicode="&#x2039;" horiz-adv-x="700" 
d="M395 520l217 -409h-290l-234 409l234 410h290z" />
    <glyph glyph-name="guilsinglright" unicode="&#x203a;" horiz-adv-x="700" 
d="M379 930l233 -410l-233 -409h-291l217 409l-217 410h291z" />
    <glyph glyph-name="exclamdouble" unicode="&#x203c;" horiz-adv-x="1253" 
d="M492 430h-275l-63 1028h399zM1038 430h-274l-64 1028h400zM535 0h-361v301h361v-301zM1081 0h-362v301h362v-301z" />
    <glyph glyph-name="interrobang" unicode="&#x203d;" horiz-adv-x="1167" 
d="M772 1458l-8 -129q159 -35 245.5 -133.5t86.5 -247.5q0 -119 -45.5 -194t-171.5 -156q-102 -65 -135 -100.5t-33 -91.5h-287q-4 36 -4 51q0 101 35 157.5t149 139.5q84 61 109.5 99t25.5 95q0 61 -40 97t-111 36q-88 0 -132.5 -44.5t-47.5 -139.5h-351q3 173 88.5 281
t245.5 147l-6 133h387zM385 301h360v-301h-360v301z" />
    <glyph glyph-name="overline" unicode="&#x203e;" horiz-adv-x="1024" 
d="M1024 1589h-1024v211h1024v-211z" />
    <glyph glyph-name="fraction" unicode="&#x2044;" horiz-adv-x="305" 
d="M-117 0h-205l744 1380h205z" />
    <glyph glyph-name="zerosuperior" unicode="&#x2070;" horiz-adv-x="985" 
d="M494 1665q207 0 319.5 -132t112.5 -374q0 -243 -112.5 -374.5t-319.5 -131.5q-210 0 -322.5 131t-112.5 375q0 242 112.5 374t322.5 132zM494 1454q-71 0 -108.5 -77t-37.5 -218q0 -142 37.5 -219.5t108.5 -77.5q70 0 105.5 77t35.5 220q0 141 -35.5 218t-105.5 77z" />
    <glyph glyph-name="foursuperior" unicode="&#x2074;" horiz-adv-x="954" 
d="M932 862h-166v-186h-279v186h-464v217l376 563h367v-573h166v-207zM264 1069h236v98q0 126 10 279h-4q-57 -104 -152 -242z" />
    <glyph glyph-name="fivesuperior" unicode="&#x2075;" horiz-adv-x="954" 
d="M825 1415h-458l-17 -160h4q81 66 201 66q148 0 241 -87.5t93 -225.5q0 -161 -114 -258t-302 -97t-297.5 81.5t-109.5 226.5h286q1 -47 34.5 -75t86.5 -28q61 0 95 35t34 100q0 64 -34 98.5t-91 34.5q-49 0 -79 -23.5t-40 -62.5l-278 17l55 585h690v-227z" />
    <glyph glyph-name="sixsuperior" unicode="&#x2076;" horiz-adv-x="942" 
d="M500 1665q164 0 265.5 -80t111.5 -223h-287q-12 100 -105 100q-142 0 -151 -241h4q84 84 225 84q145 0 235.5 -85.5t90.5 -222.5q0 -152 -112.5 -248t-291.5 -96q-203 0 -314.5 124.5t-111.5 363.5q0 246 117.5 385t323.5 139zM485 1114q-54 0 -86 -35t-32 -94
q0 -56 32 -89.5t86 -33.5t87.5 34t33.5 91t-33 92t-88 35z" />
    <glyph glyph-name="sevensuperior" unicode="&#x2077;" horiz-adv-x="847" 
d="M825 1642v-221q-110 -146 -191 -341.5t-122 -403.5h-307q48 212 140 406.5t200 324.5h-522v235h802z" />
    <glyph glyph-name="eightsuperior" unicode="&#x2078;" horiz-adv-x="944" 
d="M471 1665q177 0 284 -74.5t107 -197.5q0 -79 -48 -136t-134 -77v-4q93 -19 150 -82.5t57 -153.5q0 -135 -110.5 -211t-305.5 -76q-194 0 -304 76t-110 211q0 90 57 153.5t150 82.5v4q-85 20 -134.5 77.5t-49.5 135.5q0 123 108 197.5t283 74.5zM471 1462q-57 0 -90 -26
t-33 -70q0 -46 33 -73t90 -27q58 0 91.5 27t33.5 73q0 44 -33.5 70t-91.5 26zM471 1069q-59 0 -94 -28.5t-35 -77.5q0 -47 35.5 -76t93.5 -29q61 0 96 28.5t35 76.5q0 50 -35 78t-96 28z" />
    <glyph glyph-name="ninesuperior" unicode="&#x2079;" horiz-adv-x="942" 
d="M442 653q-165 0 -265.5 79.5t-110.5 223.5h286q9 -100 105 -100q142 0 151 242h-4q-84 -84 -225 -84q-145 0 -235.5 85.5t-90.5 221.5q0 152 112 248t292 96q204 0 315 -124t111 -363q0 -246 -117.5 -385.5t-323.5 -139.5zM455 1204q54 0 87 35.5t33 93.5q0 55 -33 89
t-87 34t-86.5 -34t-32.5 -91t32.5 -92t86.5 -35z" />
    <glyph glyph-name="plussuperior" unicode="&#x207a;" horiz-adv-x="843" 
d="M532 1237h226v-215h-226v-219h-221v219h-225v215h225v221h221v-221z" />
    <glyph glyph-name="minussuperior" unicode="&#x207b;" horiz-adv-x="843" 
d="M758 1022h-672v215h672v-215z" />
    <glyph glyph-name="equalsuperior" unicode="&#x207c;" horiz-adv-x="843" 
d="M758 1184h-672v202h672v-202zM758 872h-672v203h672v-203z" />
    <glyph glyph-name="parenleftsuperior" unicode="&#x207d;" horiz-adv-x="538" 
d="M274 1739h222q-77 -171 -111.5 -323t-34.5 -314q0 -161 34.5 -312.5t111.5 -324.5h-222q-114 156 -165.5 309.5t-51.5 327.5t51.5 328.5t165.5 308.5z" />
    <glyph glyph-name="parenrightsuperior" unicode="&#x207e;" horiz-adv-x="538" 
d="M264 465h-221q77 172 112 324t35 313t-34.5 312t-112.5 325h221q115 -155 166 -308.5t51 -328.5q0 -176 -51 -329.5t-166 -307.5z" />
    <glyph glyph-name="zeroinferior" unicode="&#x2080;" horiz-adv-x="985" 
d="M494 637q207 0 319.5 -132t112.5 -374q0 -243 -112.5 -374.5t-319.5 -131.5q-210 0 -322.5 131t-112.5 375q0 242 112.5 374t322.5 132zM494 426q-71 0 -108.5 -77t-37.5 -218q0 -142 37.5 -219.5t108.5 -77.5q70 0 105.5 77t35.5 220q0 141 -35.5 218t-105.5 77z" />
    <glyph glyph-name="oneinferior" unicode="&#x2081;" horiz-adv-x="686" 
d="M563 -352h-287v590h-256v206q137 0 204.5 40t82.5 130h256v-966z" />
    <glyph glyph-name="twoinferior" unicode="&#x2082;" horiz-adv-x="964" 
d="M483 637q180 0 287 -83.5t107 -213.5q0 -61 -19 -110t-57 -86t-82.5 -64t-108.5 -55q-123 -53 -164.5 -84.5t-44.5 -67.5h502v-225h-833q-4 32 -4 57q0 158 63 258t225 180q125 61 177.5 101t52.5 96q0 40 -26.5 63t-72.5 23q-117 0 -120 -133h-287q1 165 107.5 254.5
t297.5 89.5z" />
    <glyph glyph-name="threeinferior" unicode="&#x2083;" horiz-adv-x="950" 
d="M477 637q184 0 289.5 -74t105.5 -201q0 -78 -40.5 -128t-131.5 -82v-5q97 -31 141 -84t44 -141q0 -136 -110 -216.5t-296 -80.5q-207 0 -318.5 90t-111.5 258h291q0 -139 139 -139q56 0 88.5 25t32.5 69q0 105 -162 105h-26v203h32q67 0 106.5 27t39.5 73q0 42 -30 67
t-85 25q-64 0 -96.5 -34.5t-32.5 -98.5h-280q0 161 108 251.5t303 90.5z" />
    <glyph glyph-name="fourinferior" unicode="&#x2084;" horiz-adv-x="954" 
d="M930 -166h-166v-186h-279v186h-465v217l377 563h367v-573h166v-207zM262 41h236v98q0 126 10 279h-4q-57 -104 -152 -242z" />
    <glyph glyph-name="fiveinferior" unicode="&#x2085;" horiz-adv-x="954" 
d="M825 387h-458l-17 -160h4q81 66 201 66q148 0 241 -87.5t93 -225.5q0 -161 -114 -258t-302 -97t-297.5 81t-109.5 226h286q1 -47 34.5 -74.5t86.5 -27.5q61 0 95 35t34 100q0 64 -34 98.5t-91 34.5q-49 0 -79 -23.5t-40 -62.5l-278 17l55 585h690v-227z" />
    <glyph glyph-name="sixinferior" unicode="&#x2086;" horiz-adv-x="942" 
d="M500 637q164 0 265.5 -80t111.5 -223h-287q-12 100 -105 100q-142 0 -151 -241h4q83 83 225 83q145 0 235.5 -85.5t90.5 -221.5q0 -152 -112.5 -248t-291.5 -96q-203 0 -314.5 124.5t-111.5 363.5q0 246 117.5 385t323.5 139zM485 86q-54 0 -86 -35t-32 -94
q0 -56 32 -89.5t86 -33.5t87.5 34t33.5 91t-33 92t-88 35z" />
    <glyph glyph-name="seveninferior" unicode="&#x2087;" horiz-adv-x="847" 
d="M823 614v-221q-110 -146 -191 -341.5t-122 -403.5h-307q48 212 140 406.5t200 324.5h-523v235h803z" />
    <glyph glyph-name="eightinferior" unicode="&#x2088;" horiz-adv-x="944" 
d="M471 637q177 0 284 -74.5t107 -197.5q0 -79 -48 -136t-134 -77v-5q93 -19 150 -82t57 -153q0 -135 -110.5 -211t-305.5 -76q-194 0 -304 76t-110 211q0 90 57 153t150 82v5q-85 20 -134.5 77.5t-49.5 135.5q0 123 108 197.5t283 74.5zM471 434q-57 0 -90 -26t-33 -70
q0 -46 33 -73t90 -27q58 0 91.5 27t33.5 73q0 44 -33.5 70t-91.5 26zM471 41q-59 0 -94 -29t-35 -78q0 -47 35 -75.5t94 -28.5q61 0 96 28t35 76q0 50 -35 78.5t-96 28.5z" />
    <glyph glyph-name="nineinferior" unicode="&#x2089;" horiz-adv-x="942" 
d="M442 -375q-165 0 -265.5 79.5t-110.5 223.5h286q9 -100 105 -100q142 0 151 242h-4q-84 -84 -225 -84q-145 0 -235.5 85.5t-90.5 221.5q0 152 112 248t292 96q204 0 315 -124t111 -363q0 -246 -117.5 -385.5t-323.5 -139.5zM455 176q54 0 87 35.5t33 93.5q0 55 -33 89
t-87 34t-86.5 -34t-32.5 -91t32.5 -92t86.5 -35z" />
    <glyph glyph-name="plusinferior" unicode="&#x208a;" horiz-adv-x="843" 
d="M532 209h226v-215h-226v-219h-221v219h-225v215h225v221h221v-221z" />
    <glyph glyph-name="minusinferior" unicode="&#x208b;" horiz-adv-x="843" 
d="M758 -6h-672v215h672v-215z" />
    <glyph glyph-name="equalinferior" unicode="&#x208c;" horiz-adv-x="843" 
d="M758 156h-672v202h672v-202zM758 -156h-672v203h672v-203z" />
    <glyph glyph-name="parenleftinferior" unicode="&#x208d;" horiz-adv-x="538" 
d="M274 711h222q-77 -171 -111.5 -323t-34.5 -314q0 -161 34.5 -312.5t111.5 -324.5h-222q-114 156 -165.5 309.5t-51.5 327.5t51.5 328.5t165.5 308.5z" />
    <glyph glyph-name="parenrightinferior" unicode="&#x208e;" horiz-adv-x="538" 
d="M264 -563h-221q77 172 112 324t35 313t-34.5 312t-112.5 325h221q115 -155 166 -308.5t51 -328.5q0 -176 -51 -329.5t-166 -307.5z" />
    <glyph glyph-name="ninferior" unicode="&#x2099;" horiz-adv-x="919" 
d="M567 397q128 0 200.5 -77.5t72.5 -223.5v-448h-277v413q0 121 -92 121q-104 0 -104 -170v-364h-279v729h258v-84h2q84 104 219 104z" />
    <glyph glyph-name="franc" unicode="&#x20a3;" horiz-adv-x="1286" 
d="M557 1083v-217h598v-295h-598v-159h336v-244h-336v-168h-354v168h-156v244h156v968h999v-297h-645z" />
    <glyph glyph-name="lira" unicode="&#x20a4;" horiz-adv-x="1286" 
d="M457 276h751v-276h-1161v281q83 0 127 43.5t53 148.5h-180v150h182v77h-182v150h182v55q0 249 131.5 378.5t378.5 129.5q221 0 351.5 -123t130.5 -332h-334q0 84 -39.5 130.5t-110.5 46.5q-162 0 -162 -228v-57h256v-150h-256v-77h256v-150h-258q-7 -70 -35 -115.5
t-81 -76.5v-5z" />
    <glyph glyph-name="peseta" unicode="&#x20a7;" horiz-adv-x="1918" 
d="M1792 252q43 0 76 10v-256q-82 -22 -172 -22q-196 0 -285.5 81.5t-89.5 264.5v463h-88q-30 -179 -169.5 -280t-379.5 -101h-174v-412h-354v1380h528q226 0 363 -89t178 -251h96v281h340v-281h197v-247h-197v-385q0 -83 30.5 -119.5t100.5 -36.5zM510 696h125
q242 0 242 199q0 201 -242 201h-125v-400z" />
    <glyph glyph-name="euro" unicode="&#x20ac;" horiz-adv-x="1286" 
d="M913 438h347q-23 -221 -168.5 -346t-380.5 -125q-240 0 -390.5 137t-193.5 390h-125l29 149h82v47v31h-111l29 149h94q40 261 192.5 402t397.5 141q238 0 379.5 -124.5t156.5 -342.5h-340q-14 88 -65.5 136t-136.5 48q-194 0 -244 -260h430l-29 -149h-415v-31v-47h401
l-29 -149h-354q50 -244 240 -244q84 0 137 49.5t67 138.5z" />
    <glyph glyph-name="rupeeIndian" unicode="&#x20b9;" horiz-adv-x="1286" 
d="M881 1190v-4q78 -35 108 -117h234l-52 -190h-174q-23 -104 -106 -172t-217 -93v-4q68 -27 121.5 -84.5t105.5 -163.5l178 -362h-407l-154 342q-49 105 -110.5 151t-149.5 46h-31v217h103q205 0 270 123h-537l54 190h493q-52 121 -264 121h-283l54 190h1106l-52 -190h-290
z" />
    <glyph glyph-name="liraTurkish" unicode="&#x20ba;" horiz-adv-x="1286" 
d="M879 666h370q0 -336 -186.5 -511t-530.5 -175q-161 0 -331 20v483l-174 -96v195l174 96v121l-174 -97v195l174 96v387h356v-221l330 180v-194l-330 -180v-121l330 180v-195l-330 -178v-364q157 0 239.5 96t82.5 283z" />
    <glyph glyph-name="uni20BC" unicode="&#x20bc;" horiz-adv-x="1554" 
d="M74 0v616q0 313 135 473.5t409 182.5v186h318v-186q274 -22 409.5 -182.5t135.5 -473.5v-616h-318v600q0 190 -51.5 276.5t-175.5 98.5v-975h-318v975q-123 -12 -176 -99t-53 -276v-600h-315z" />
    <glyph glyph-name="ruble" unicode="&#x20bd;" horiz-adv-x="1286" 
d="M176 1380h547q252 0 382 -114t130 -314t-130 -315t-382 -115h-193v-104h359v-230h-359v-188h-354v188h-151v230h151v104h-151v250h151v608zM530 1130v-358h142q198 0 198 180q0 178 -198 178h-142z" />
    <glyph glyph-name="careof" unicode="&#x2105;" horiz-adv-x="1974" 
d="M444 1413q166 0 273.5 -84t120.5 -225h-287q-4 49 -31.5 75.5t-70.5 26.5q-53 0 -84 -46.5t-31 -131.5q0 -88 31 -135t86 -47q42 0 69.5 31.5t28.5 85.5h289q-10 -150 -117 -237t-275 -87q-185 0 -294 105.5t-109 283.5q0 177 108.5 281t292.5 104zM705 0h-205l743 1380
h205zM1526 741q189 0 300 -105t111 -282q0 -178 -111 -282.5t-300 -104.5q-188 0 -299 104.5t-111 282.5q0 177 111 282t299 105zM1526 535q-57 0 -89 -48t-32 -133t32 -132.5t89 -47.5q58 0 90.5 47.5t32.5 132.5t-32.5 133t-90.5 48z" />
    <glyph glyph-name="literSign" unicode="&#x2113;" horiz-adv-x="925" 
d="M485 422v-53q0 -80 31 -116t100 -36q48 0 95 14v-229q-83 -22 -181 -22q-194 0 -285 92t-91 288v21q-54 3 -97 12v172q47 -9 97 -12v385q0 181 39.5 286.5t113 147t193.5 41.5q153 0 246.5 -97t93.5 -308q0 -457 -355 -586zM561 1210q-41 0 -58.5 -40t-17.5 -150v-395
q166 114 166 387q0 198 -90 198z" />
    <glyph glyph-name="numero" unicode="&#x2116;" horiz-adv-x="2490" 
d="M1487 0h-512l-254 575q-135 302 -238 584h-4q17 -349 17 -614v-545h-340v1458h510l256 -575q127 -291 237 -584h4q-16 273 -16 614v545h340v-1458zM2042 1282q188 0 298.5 -104.5t110.5 -282.5t-110.5 -282.5t-298.5 -104.5t-300 104.5t-112 282.5t112 282.5t300 104.5z
M2042 1075q-59 0 -91 -47t-32 -133q0 -85 32.5 -132.5t90.5 -47.5q57 0 89 47.5t32 132.5q0 86 -32 133t-89 47zM2404 172h-733v236h733v-236z" />
    <glyph glyph-name="published" unicode="&#x2117;" horiz-adv-x="1634" 
d="M817 1489q333 0 536 -208.5t203 -551.5t-203 -551.5t-536 -208.5t-536 208.5t-203 551.5t203 551.5t536 208.5zM817 1360q-276 0 -444 -173t-168 -458t168 -458t444 -173q277 0 446 173.5t169 457.5t-169 457.5t-446 173.5zM512 1169h375q175 0 263.5 -80.5t88.5 -224.5
t-88.5 -225.5t-263.5 -81.5h-150v-285h-225v897zM737 985v-242h119q152 0 152 121q0 58 -38.5 89.5t-115.5 31.5h-117z" />
    <glyph glyph-name="trademark" unicode="&#x2122;" horiz-adv-x="1755" 
d="M662 1266h-211v-537h-230v537h-211v192h652v-192zM1677 729h-202v330q0 174 4 262h-4q-18 -86 -58 -258l-78 -334h-268l-78 334q-5 21 -25.5 114.5t-29.5 143.5h-4q4 -176 4 -262v-330h-203v729h346l70 -293q33 -141 53 -268h4q15 107 52 268l69 293h348v-729z" />
    <glyph glyph-name="Ohm" unicode="&#x2126;" horiz-adv-x="1529" 
d="M764 1491q152 0 276.5 -39.5t216.5 -117t142.5 -200t50.5 -280.5q0 -168 -71 -298.5t-199 -252.5v-4h293v-299h-613v311q104 106 161.5 220.5t57.5 265.5q0 188 -86 287.5t-229 99.5q-142 0 -227.5 -99.5t-85.5 -287.5q0 -151 57.5 -265.5t161.5 -220.5v-311h-613v299
h293v4q-83 78 -139 153t-93.5 178.5t-37.5 219.5q0 158 50.5 280.5t142 200t216 117t275.5 39.5z" />
    <glyph glyph-name="estimated" unicode="&#x212e;" horiz-adv-x="1767" 
d="M885 1413q182 0 332 -60t247.5 -162t151 -235.5t53.5 -283.5h-1253q-12 0 -20.5 -8t-8.5 -19v-342q0 -32 7 -52t26 -38q189 -186 465 -186q147 0 277 62t212 163h142q-37 -52 -92 -98.5t-131.5 -88t-182 -66t-225.5 -24.5q-176 0 -324 53.5t-250 148.5t-158.5 227
t-56.5 286q0 153 54.5 285t154.5 229.5t249.5 153t330.5 55.5zM885 1360q-272 0 -465 -193q-19 -17 -26 -35t-7 -49v-342q0 -10 8.5 -17t20.5 -7h934q26 0 26 24v342q0 31 -6 49t-24 35q-196 193 -461 193z" />
    <glyph glyph-name="oneeighth" unicode="&#x215b;" horiz-adv-x="1718" 
d="M496 553h-267v500h-211v182q103 0 160 36.5t76 108.5h242v-827zM473 0h-205l744 1380h205zM1307 848q155 0 248.5 -65.5t93.5 -174.5q0 -65 -42.5 -112t-117.5 -64v-4q82 -15 131 -69.5t49 -129.5q0 -118 -95.5 -183.5t-266.5 -65.5t-267 65.5t-96 183.5q0 75 49.5 129.5
t132.5 69.5v4q-76 17 -118.5 64t-42.5 112q0 109 94 174.5t248 65.5zM1307 672q-47 0 -76 -21.5t-29 -58.5t29 -59.5t76 -22.5t75.5 22.5t28.5 59.5t-28.5 58.5t-75.5 21.5zM1307 334q-50 0 -79.5 -23t-29.5 -63t29 -64t80 -24t80.5 24t29.5 64t-30 63t-80 23z" />
    <glyph glyph-name="threeeighths" unicode="&#x215c;" horiz-adv-x="1959" 
d="M416 1401q158 0 254 -65.5t96 -174.5q0 -66 -36.5 -109t-115.5 -69v-2q85 -26 123.5 -73t38.5 -124q0 -120 -93 -186t-263 -66q-180 0 -278.5 77.5t-98.5 224.5h256q0 -115 121 -115q47 0 76.5 21.5t29.5 56.5q0 82 -135 82h-29v178h27q61 0 95 22t34 62q0 34 -27.5 55
t-76.5 21q-54 0 -82.5 -28.5t-28.5 -80.5h-248q0 137 96.5 215t264.5 78zM715 0h-205l743 1380h205zM1548 848q155 0 248.5 -65.5t93.5 -174.5q0 -65 -42 -112t-117 -64v-4q82 -15 131 -69.5t49 -129.5q0 -118 -96 -183.5t-267 -65.5t-266.5 65.5t-95.5 183.5
q0 75 49.5 129.5t132.5 69.5v4q-76 17 -119 64t-43 112q0 109 94 174.5t248 65.5zM1548 672q-47 0 -75.5 -21.5t-28.5 -58.5t28.5 -59.5t75.5 -22.5t76 22.5t29 59.5t-29 58.5t-76 21.5zM1548 334q-50 0 -79 -23t-29 -63t29 -64t79 -24q51 0 81 24t30 64q0 39 -30.5 62.5
t-80.5 23.5z" />
    <glyph glyph-name="fiveeighths" unicode="&#x215d;" horiz-adv-x="1961" 
d="M725 1182h-399l-15 -131h4q67 55 174 55q128 0 209.5 -77t81.5 -200q0 -135 -99.5 -216t-262.5 -81q-164 0 -262.5 71t-98.5 194h258q1 -40 29 -63t74 -23q53 0 81.5 30.5t28.5 85.5q0 52 -29 81.5t-77 29.5q-42 0 -68.5 -20t-34.5 -54l-247 15l47 501h606v-198zM717 0
h-205l743 1380h205zM1550 848q155 0 248.5 -65.5t93.5 -174.5q0 -65 -42 -112t-117 -64v-4q82 -15 131 -69.5t49 -129.5q0 -118 -96 -183.5t-267 -65.5t-266.5 65.5t-95.5 183.5q0 75 49.5 129.5t132.5 69.5v4q-76 17 -119 64t-43 112q0 109 94 174.5t248 65.5zM1550 672
q-47 0 -75.5 -21.5t-28.5 -58.5t28.5 -59.5t75.5 -22.5t76 22.5t29 59.5t-29 58.5t-76 21.5zM1550 334q-50 0 -79 -23t-29 -63t29 -64t79 -24q51 0 81 24t30 64q0 39 -30.5 62.5t-80.5 23.5z" />
    <glyph glyph-name="seveneighths" unicode="&#x215e;" horiz-adv-x="1759" 
d="M713 1380v-192q-94 -124 -164.5 -291t-106.5 -344h-272q40 180 119 347t174 280h-445v200h695zM514 0h-205l744 1380h204zM1348 848q155 0 248.5 -65.5t93.5 -174.5q0 -65 -42.5 -112t-117.5 -64v-4q82 -15 131 -69.5t49 -129.5q0 -118 -95.5 -183.5t-266.5 -65.5
t-267 65.5t-96 183.5q0 75 49.5 129.5t132.5 69.5v4q-76 17 -118.5 64t-42.5 112q0 109 94 174.5t248 65.5zM1348 672q-47 0 -76 -21.5t-29 -58.5t29 -59.5t76 -22.5t75.5 22.5t28.5 59.5t-28.5 58.5t-75.5 21.5zM1348 334q-50 0 -79.5 -23t-29.5 -63t29 -64t80 -24t80.5 24
t29.5 64t-30 63t-80 23z" />
    <glyph glyph-name="Sevenroman" unicode="&#x2166;" horiz-adv-x="2646" 
d="M909 0h-463l-438 1458h371l158 -563q82 -280 139 -573h4q50 259 139 573l160 563h369zM1827 0h-354v1458h354v-1458zM2490 0h-354v1458h354v-1458z" />
    <glyph glyph-name="partialdiff" unicode="&#x2202;" horiz-adv-x="1294" 
d="M598 1491q284 0 427.5 -183.5t143.5 -531.5q0 -208 -43 -365.5t-121.5 -253t-181.5 -143t-229 -47.5q-253 0 -389.5 135.5t-136.5 362.5t135.5 371.5t371.5 144.5q160 0 254 -90h5q2 14 2 43q0 131 -63 213t-161 82q-134 0 -153 -142h-346q19 189 142 296.5t343 107.5z
M623 750q-95 0 -149 -78.5t-54 -206.5q0 -113 47 -174.5t137 -61.5q96 0 150.5 75t54.5 202q0 116 -48.5 180t-137.5 64z" />
    <glyph glyph-name="increment" unicode="&#x2206;" horiz-adv-x="1462" 
d="M1460 0h-1458l502 1458h459zM1001 289l-124 409q-94 321 -146 531h-4q-57 -231 -145 -531l-123 -409h542z" />
    <glyph glyph-name="product" unicode="&#x220f;" horiz-adv-x="1437" 
d="M1284 -246h-354v1403h-420v-1403h-354v1704h1128v-1704z" />
    <glyph glyph-name="summation" unicode="&#x2211;" horiz-adv-x="1079" 
d="M1008 1155h-551l329 -549l-329 -547h551v-305h-936v305l338 547l-338 549v303h936v-303z" />
    <glyph glyph-name="minus" unicode="&#x2212;" horiz-adv-x="1159" 
d="M1038 516h-917v264h917v-264z" />
    <glyph glyph-name="divisionslash" unicode="&#x2215;" horiz-adv-x="1030" 
d="M317 -182h-256l611 1708h254z" />
    <glyph glyph-name="bulletoperator" unicode="&#x2219;" horiz-adv-x="759" 
d="M561 438h-362v375h362v-375z" />
    <glyph glyph-name="radical" unicode="&#x221a;" horiz-adv-x="1380" 
d="M852 -246h-451l-180 764h-170v273h400l182 -762h4l407 1429h295z" />
    <glyph glyph-name="infinity" unicode="&#x221e;" horiz-adv-x="1445" 
d="M1069 1006q157 0 251.5 -102.5t94.5 -272.5t-94.5 -272.5t-251.5 -102.5q-112 0 -195 48t-151 132q-68 -84 -151 -132t-195 -48q-158 0 -252 102t-94 273t94 273t252 102q112 0 194.5 -48.5t151.5 -132.5q69 84 151.5 132.5t194.5 48.5zM408 506q50 0 90.5 31.5
t85.5 93.5q-45 62 -85.5 93.5t-90.5 31.5q-56 0 -87.5 -33.5t-31.5 -91.5q0 -57 31.5 -91t87.5 -34zM1038 506q57 0 88 34t31 91q0 58 -31 91.5t-88 33.5q-50 0 -90.5 -31.5t-85.5 -93.5q45 -62 85.5 -93.5t90.5 -31.5z" />
    <glyph glyph-name="integral" unicode="&#x222b;" horiz-adv-x="761" 
d="M586 1477q84 0 162 -19v-233q-20 4 -48 4q-77 0 -114 -35.5t-37 -118.5v-1112q0 -180 -96 -270t-279 -90q-86 0 -160 18v234q25 -5 47 -5q77 0 114.5 35.5t37.5 118.5v1112q0 180 95.5 270.5t277.5 90.5z" />
    <glyph glyph-name="approxequal" unicode="&#x2248;" horiz-adv-x="1159" 
d="M403 1065q51 0 103.5 -22.5t88.5 -49t77.5 -49t72.5 -22.5q45 0 71 31.5t26 84.5h200q0 -161 -78 -259.5t-208 -98.5q-51 0 -103.5 22.5t-88.5 49t-77.5 49t-72.5 22.5q-46 0 -71.5 -31t-25.5 -85h-200q0 161 77.5 259.5t208.5 98.5zM403 618q51 0 103.5 -22.5t88.5 -49
t77.5 -49t72.5 -22.5q46 0 71.5 31.5t25.5 85.5h200q0 -161 -78 -260t-208 -99q-51 0 -103.5 22.5t-88.5 49.5t-77.5 49.5t-72.5 22.5q-45 0 -71 -32t-26 -85h-200q0 161 77.5 259.5t208.5 98.5z" />
    <glyph glyph-name="notequal" unicode="&#x2260;" horiz-adv-x="1159" 
d="M739 729l-88 -162h387v-254h-524l-127 -231h-231l125 231h-160v254h299l86 162h-385v254h524l125 231h234l-127 -231h161v-254h-299z" />
    <glyph glyph-name="lessequal" unicode="&#x2264;" horiz-adv-x="1159" 
d="M1038 922l-604 -193v-4l604 -190v-254l-917 294v304l917 297v-254zM1038 240v-240h-917v240h917z" />
    <glyph glyph-name="greaterequal" unicode="&#x2265;" horiz-adv-x="1159" 
d="M1038 879v-304l-917 -294v254l604 190v4l-604 193v254zM1038 0h-917v240h917v-240z" />
    <glyph glyph-name="lozenge" unicode="&#x25ca;" horiz-adv-x="1368" 
d="M1286 729l-377 -729h-452l-375 729l375 729h452zM430 729l254 -487l252 487l-252 488z" />
    <glyph glyph-name="apple" unicode="&#xf8ff;" horiz-adv-x="1327" 
d="M309 1591h709q129 0 204.5 -75.5t75.5 -204.5v-1164q0 -129 -75.5 -204.5t-204.5 -75.5h-709q-129 0 -204.5 75.5t-75.5 204.5v1164q0 129 75.5 204.5t204.5 75.5zM1018 1450h-709q-65 0 -102 -37t-37 -102v-1164q0 -65 37 -102t102 -37h709q64 0 101.5 37t37.5 102v1164
q0 65 -37.5 102t-101.5 37zM666 1325q177 0 276.5 -82.5t99.5 -228.5q0 -84 -29.5 -143t-113.5 -136q-81 -76 -107 -129t-26 -145h-227q-2 27 -2 78q0 101 24 158t105 139q60 60 78 94t18 80q0 45 -25.5 71.5t-70.5 26.5q-117 0 -117 -160h-277q1 183 104.5 280t289.5 97z
M793 133h-279v244h279v-244z" />
    <glyph glyph-name="ff" unicode="&#xfb00;" horiz-adv-x="1413" 
d="M1346 1229q-77 0 -114.5 -35.5t-37.5 -116.5v-37h192v-247h-192v-793h-336v793h-338v-793h-336v793h-166v247h166v76q0 180 96 270.5t279 90.5q84 0 162 -19v-233q-20 4 -49 4q-77 0 -114.5 -35.5t-37.5 -116.5v-37h338v76q0 180 96 270.5t279 90.5q84 0 162 -19v-233
q-20 4 -49 4z" />
    <glyph glyph-name="fi" unicode="&#xfb01;" horiz-adv-x="1329" 
d="M184 1040v76q0 180 96 270.5t279 90.5q84 0 162 -19v-233q-20 4 -49 4q-77 0 -114.5 -35.5t-37.5 -116.5v-37h193v-247h-193v-793h-336v793h-166v247h166zM1204 1458v-268h-340v268h340zM864 1040h340v-1040h-340v1040z" />
    <glyph glyph-name="fl" unicode="&#xfb02;" horiz-adv-x="1329" 
d="M184 1040v76q0 180 96 270.5t279 90.5q84 0 162 -19v-233q-20 4 -49 4q-77 0 -114.5 -35.5t-37.5 -116.5v-37h193v-247h-193v-793h-336v793h-166v247h166zM1204 1458v-1458h-340v1458h340z" />
    <glyph glyph-name="ffi" unicode="&#xfb03;" horiz-adv-x="2002" 
d="M858 1040v76q0 180 96 270.5t279 90.5q84 0 162 -19v-233q-20 4 -49 4q-77 0 -114.5 -35.5t-37.5 -116.5v-37h192v-247h-192v-793h-336v793h-338v-793h-336v793h-166v247h166v76q0 180 96 270.5t279 90.5q84 0 162 -19v-233q-20 4 -49 4q-77 0 -114.5 -35.5t-37.5 -116.5
v-37h338zM1878 1458v-268h-340v268h340zM1538 1040h340v-1040h-340v1040z" />
    <glyph glyph-name="ffl" unicode="&#xfb04;" horiz-adv-x="2002" 
d="M858 1040v76q0 180 96 270.5t279 90.5q84 0 162 -19v-233q-20 4 -49 4q-77 0 -114.5 -35.5t-37.5 -116.5v-37h192v-247h-192v-793h-336v793h-338v-793h-336v793h-166v247h166v76q0 180 96 270.5t279 90.5q84 0 162 -19v-233q-20 4 -49 4q-77 0 -114.5 -35.5t-37.5 -116.5
v-37h338zM1878 1458v-1458h-340v1458h340z" />
    <glyph glyph-name="uniFEFF" unicode="&#xfeff;" horiz-adv-x="0" 
 />
    <glyph glyph-name="NULL" horiz-adv-x="1228" 
 />
    <glyph glyph-name="J.acute.loclNLD" horiz-adv-x="839" 
d="M586 1573h-262l159 303h391zM694 1458v-964q0 -263 -121.5 -386.5t-382.5 -123.5q-94 0 -159 18v295q48 -10 92 -10q80 0 125.5 24t68.5 86t23 174v887h354z" />
    <glyph glyph-name="Ccedilla.ss01" horiz-adv-x="1464" 
d="M752 1491q282 0 452.5 -150.5t181.5 -406.5h-366q-12 119 -82.5 184.5t-185.5 65.5q-145 0 -228.5 -121.5t-83.5 -333.5q0 -211 83 -333t225 -122q116 0 187.5 67.5t86.5 190.5h371q-22 -269 -193 -417t-452 -148q-315 0 -496.5 203.5t-181.5 558.5q0 354 182.5 558
t499.5 204zM725 -444h-360l288 344h273z" />
    <glyph glyph-name="Scedilla.ss01" horiz-adv-x="1320" 
d="M645 1491q277 0 424.5 -122t147.5 -355h-369q0 97 -56 150t-161 53q-87 0 -140 -38t-53 -100q0 -69 60.5 -103.5t230.5 -76.5q72 -18 119 -31.5t107.5 -35.5t99.5 -45t80.5 -58t65 -76t39 -96.5t15.5 -122.5q0 -214 -162 -340.5t-434 -126.5q-287 0 -448.5 132.5
t-161.5 375.5h377q0 -225 242 -225q100 0 157.5 41t57.5 112q0 24 -6 43t-14.5 33t-29 27.5t-37 22t-53 20t-62 18.5t-77.5 21q-57 15 -92 24.5t-86.5 26t-83.5 30.5t-73 36t-66.5 44.5t-52.5 54t-42 67t-24.5 80t-9.5 96.5q0 201 155 322.5t416 121.5zM623 -444h-361
l289 344h272z" />
    <glyph glyph-name="Tcedilla.ss01" horiz-adv-x="1284" 
d="M1266 1157h-447v-1157h-354v1157h-447v301h1248v-301zM616 -444h-360l289 344h272z" />
    <glyph glyph-name="idotaccent" horiz-adv-x="589" 
d="M465 1190h-340v268h340v-268zM465 0h-340v1040h340v-1040z" />
    <glyph glyph-name="j.acute.loclNLD" horiz-adv-x="591" 
d="M362 1155h-262l160 303h391zM467 1040v-1038q0 -200 -103 -295.5t-280 -95.5q-96 0 -164 18v238q24 -6 53 -6q80 0 117 43t37 155v981h340z" />
    <glyph glyph-name="ccedilla.ss01" horiz-adv-x="1177" 
d="M604 1073q220 0 361.5 -118.5t158.5 -311.5h-352q-7 82 -51.5 128t-114.5 46q-89 0 -138.5 -78.5t-49.5 -216.5q0 -141 50.5 -219t139.5 -78q70 0 114 51.5t48 141.5h354q-17 -206 -156.5 -328.5t-361.5 -122.5q-249 0 -397 150.5t-148 404.5q0 252 147.5 401.5
t395.5 149.5zM578 -444h-361l289 344h272z" />
    <glyph glyph-name="scedilla.ss01" horiz-adv-x="1110" 
d="M547 1073q219 0 340 -88t121 -260h-324q0 133 -139 133q-58 0 -89.5 -21.5t-31.5 -60.5q0 -45 42.5 -67.5t170.5 -55.5q42 -11 65.5 -17.5t63.5 -19t63.5 -23t56.5 -27.5t53 -34.5t42.5 -42t34.5 -51.5t20 -62t8 -75q0 -152 -129 -243t-354 -91q-242 0 -370 92.5
t-128 278.5h343q0 -148 159 -148q63 0 97 23.5t34 62.5q0 53 -48 79t-191 63q-41 10 -60.5 15.5t-57.5 17t-57.5 20.5t-51 25t-48 31.5t-37.5 39t-31.5 49.5t-18 59.5t-7.5 72.5q0 145 121 235t338 90zM532 -444h-360l289 344h272z" />
    <glyph glyph-name="tcedilla.ss01" horiz-adv-x="774" 
d="M647 252q43 0 76 10v-256q-83 -22 -172 -22q-196 0 -285.5 81.5t-89.5 264.5v463h-162v247h162v281h340v-281h197v-247h-197v-385q0 -83 30.5 -119.5t100.5 -36.5zM334 -100h272l-200 -344h-361z" />
    <glyph glyph-name="a.sups" horiz-adv-x="858" 
d="M422 1427q354 0 354 -303v-235q0 -130 25 -213h-250q-12 41 -12 92h-4q-85 -113 -242 -113q-120 0 -191 64.5t-71 165.5q0 99 71 156t234 81q111 16 172 19v26q0 99 -90 99q-87 0 -90 -92h-267q8 111 96.5 182t264.5 71zM508 977v24q-56 0 -117 -14q-46 -10 -66 -30.5
t-20 -53.5q0 -35 21.5 -55.5t60.5 -20.5q58 0 90 35q19 21 25 45.5t6 69.5z" />
    <glyph glyph-name="b.sups" horiz-adv-x="925" 
d="M367 1335h4q69 90 194 90q146 0 232 -104t86 -281t-88 -282t-236 -105q-62 0 -115 27t-86 80h-4v-84h-266v1020h279v-361zM471 1217q-55 0 -87 -48.5t-32 -128.5q0 -82 32 -129t87 -47q56 0 89.5 47.5t33.5 128.5t-33.5 129t-89.5 48z" />
    <glyph glyph-name="c.sups" horiz-adv-x="874" 
d="M444 1427q166 0 273.5 -84t120.5 -225h-287q-4 49 -31.5 76t-70.5 27q-53 0 -84 -47t-31 -132q0 -88 31 -135t86 -47q42 0 69.5 31.5t28.5 85.5h289q-10 -150 -117 -237t-275 -87q-185 0 -294 105.5t-109 283.5q0 177 108.5 281t292.5 104z" />
    <glyph glyph-name="d.sups" horiz-adv-x="927" 
d="M840 1696v-1020h-269v84h-2q-67 -107 -202 -107q-148 0 -236 105t-88 282t86 281t231 104q128 0 197 -90h4v361h279zM457 1217q-57 0 -90 -47.5t-33 -129.5t33 -129t90 -47q55 0 86.5 47t31.5 129q0 80 -31.5 128.5t-86.5 48.5z" />
    <glyph glyph-name="e.sups" horiz-adv-x="882" 
d="M440 831q44 0 73 19.5t34 50.5h282q-25 -108 -130 -178t-255 -70q-190 0 -295.5 109.5t-105.5 281.5q0 167 106 275t291 108q136 0 231 -59t138 -166q31 -71 31 -219h-525q8 -152 125 -152zM440 1255q-104 0 -123 -127h244q-4 65 -37.5 96t-83.5 31z" />
    <glyph glyph-name="egrave.sups" horiz-adv-x="882" 
d="M356 1483l-241 213h336l149 -213h-244zM440 831q44 0 73 19.5t34 50.5h282q-25 -108 -130 -178t-255 -70q-190 0 -295.5 109.5t-105.5 281.5q0 167 106 275t291 108q136 0 231 -59t138 -166q31 -71 31 -219h-525q8 -152 125 -152zM440 1255q-104 0 -123 -127h244
q-4 65 -37.5 96t-83.5 31z" />
    <glyph glyph-name="f.sups" horiz-adv-x="561" 
d="M512 1513q-55 0 -80.5 -23.5t-25.5 -76.5v-8h135v-199h-135v-530h-279v530h-115v199h115v39q0 134 75 201t218 67q59 0 129 -16v-187q-16 4 -37 4z" />
    <glyph glyph-name="g.sups" horiz-adv-x="911" 
d="M352 1425q132 0 211 -116h2v96h260v-678q0 -334 -395 -334q-159 0 -250.5 62.5t-103.5 177.5h262q3 -34 28 -53t68 -19q60 0 90.5 35.5t30.5 120.5v80h-4q-34 -46 -88.5 -73.5t-116.5 -27.5q-139 0 -221 99.5t-82 265.5q0 167 83.5 265.5t225.5 98.5zM444 1219
q-54 0 -85 -42t-31 -116t31 -116t85 -42q55 0 87 43t32 115t-32 115t-87 43z" />
    <glyph glyph-name="h.sups" horiz-adv-x="919" 
d="M367 1339h4q73 86 196 86q128 0 200.5 -77.5t72.5 -223.5v-448h-277v414q0 120 -92 120q-104 0 -104 -170v-364h-279v1020h279v-357z" />
    <glyph glyph-name="i.sups" horiz-adv-x="452" 
d="M367 1493h-279v203h279v-203zM367 676h-279v729h279v-729z" />
    <glyph glyph-name="j.sups" horiz-adv-x="458" 
d="M371 1493h-279v203h279v-203zM371 1405v-709q0 -148 -79.5 -220.5t-213.5 -72.5q-80 0 -133 15v190q24 -4 37 -4q58 0 84 30.5t26 110.5v660h279z" />
    <glyph glyph-name="k.sups" horiz-adv-x="870" 
d="M885 676h-338l-176 317h-4v-317h-279v1022h279v-572h4l164 279h325l-252 -344z" />
    <glyph glyph-name="l.sups" horiz-adv-x="452" 
d="M367 676h-279v1020h279v-1020z" />
    <glyph glyph-name="m.sups" horiz-adv-x="1366" 
d="M1024 1425q122 0 192 -78t70 -223v-448h-278v414q0 120 -82 120q-101 0 -101 -170v-364h-276v422q0 112 -82 112q-100 0 -100 -170v-364h-279v729h258v-84h4q78 104 213 104q156 0 221 -127q85 127 240 127z" />
    <glyph glyph-name="n.sups" horiz-adv-x="919" 
d="M567 1425q128 0 200.5 -77.5t72.5 -223.5v-448h-277v414q0 120 -92 120q-104 0 -104 -170v-364h-279v729h258v-84h2q84 104 219 104z" />
    <glyph glyph-name="o.sups" horiz-adv-x="909" 
d="M455 1427q189 0 300 -105t111 -282q0 -178 -111 -282.5t-300 -104.5q-188 0 -300 104.5t-112 282.5q0 177 112 282t300 105zM455 1221q-58 0 -89.5 -48t-31.5 -133t31.5 -132.5t89.5 -47.5t89 47.5t31 132.5q0 86 -31 133.5t-89 47.5z" />
    <glyph glyph-name="p.sups" horiz-adv-x="925" 
d="M559 1425q148 0 236 -104t88 -281t-86 -282t-232 -105q-59 0 -110.5 23.5t-83.5 66.5h-4v-331h-279v993h266v-84h4q65 104 201 104zM471 1217q-55 0 -87 -48.5t-32 -128.5q0 -82 32 -129t87 -47q56 0 89.5 47.5t33.5 128.5t-33.5 129t-89.5 48z" />
    <glyph glyph-name="q.sups" horiz-adv-x="927" 
d="M367 1425q137 0 202 -104h2v84h269v-993h-279v331h-4q-69 -90 -197 -90q-145 0 -231 105t-86 282t88 281t236 104zM457 1217q-57 0 -90 -47.5t-33 -129.5t33 -129t90 -47q55 0 86.5 47t31.5 129q0 80 -31.5 128.5t-86.5 48.5z" />
    <glyph glyph-name="r.sups" horiz-adv-x="649" 
d="M565 1415q43 0 74 -8v-236q-56 9 -84 9q-92 0 -140 -54.5t-48 -156.5v-293h-279v729h258v-98h4q75 108 215 108z" />
    <glyph glyph-name="s.sups" horiz-adv-x="829" 
d="M412 1427q164 0 255 -60.5t91 -180.5h-264q0 80 -84 80q-74 0 -74 -47q0 -28 27 -41.5t120 -38.5q38 -10 63.5 -17t60 -19.5t57 -24.5t47.5 -31t39.5 -40.5t24 -51t9.5 -64.5q0 -109 -94.5 -173.5t-265.5 -64.5q-379 0 -379 260h279q0 -46 24 -68t76 -22q82 0 82 49
q0 32 -33 48t-139 43q-37 9 -57 14.5t-53.5 17t-52 22.5t-42.5 29t-36 38t-21 49t-9 63q0 104 88.5 167.5t260.5 63.5z" />
    <glyph glyph-name="t.sups" horiz-adv-x="585" 
d="M494 881q34 0 55 6v-207q-83 -18 -137 -18q-151 0 -219 59t-68 190v295h-115v199h115v203h276v-203h140v-199h-140v-219q0 -58 21.5 -82t71.5 -24z" />
    <glyph glyph-name="u.sups" horiz-adv-x="919" 
d="M354 655q-128 0 -201 77.5t-73 223.5v449h278v-414q0 -59 23.5 -90t67.5 -31q106 0 106 170v365h276v-729h-258v84h-2q-84 -105 -217 -105z" />
    <glyph glyph-name="v.sups" horiz-adv-x="819" 
d="M598 676h-377l-233 729h299l61 -246q39 -171 60 -303h4q23 146 59 303l61 246h299z" />
    <glyph glyph-name="w.sups" horiz-adv-x="1300" 
d="M1126 676h-368l-53 260q-39 190 -54 301h-2q-21 -156 -51 -301l-55 -260h-369l-168 729h268l43 -254q30 -192 39 -303h4q23 166 58 307l57 250h350l60 -250q37 -160 57 -307h4q9 111 39 303l41 254h268z" />
    <glyph glyph-name="x.sups" horiz-adv-x="823" 
d="M588 1051l243 -375h-313l-104 221h-4l-105 -221h-313l244 375l-228 354h311l91 -201h4l90 201h311z" />
    <glyph glyph-name="y.sups" horiz-adv-x="821" 
d="M831 1405l-227 -684q-61 -182 -142 -252t-229 -70q-66 0 -139 15v200q33 -10 70 -10q44 0 70 19t26 53q0 19 -7.5 42.5t-39.5 106.5l-227 580h303l65 -244q46 -166 70 -301h4q25 155 64 303l57 242h282z" />
    <glyph glyph-name="z.sups" horiz-adv-x="759" 
d="M707 1190l-318 -301v-4h330v-209h-676v215l317 301v4h-307v209h654v-215z" />
    <glyph glyph-name="a.smcp" horiz-adv-x="1255" 
d="M831 199h-405l-59 -199h-365l395 1122h461l397 -1122h-364zM758 453l-23 71q-58 180 -104 375h-4q-45 -180 -105 -375l-20 -71h256z" />
    <glyph glyph-name="aacute.smcp" horiz-adv-x="1255" 
d="M694 1237h-262l160 303h391zM831 199h-405l-59 -199h-365l395 1122h461l397 -1122h-364zM758 453l-23 71q-58 180 -104 375h-4q-45 -180 -105 -375l-20 -71h256z" />
    <glyph glyph-name="abreve.smcp" horiz-adv-x="1255" 
d="M629 1225q-166 0 -262 82.5t-103 232.5h217q3 -57 41.5 -88t106.5 -31q67 0 104.5 31t42.5 88h217q-7 -151 -102.5 -233t-261.5 -82zM831 199h-405l-59 -199h-365l395 1122h461l397 -1122h-364zM758 453l-23 71q-58 180 -104 375h-4q-45 -180 -105 -375l-20 -71h256z" />
    <glyph glyph-name="acircumflex.smcp" horiz-adv-x="1255" 
d="M508 1237h-283l242 303h319l242 -303h-283l-118 156zM831 199h-405l-59 -199h-365l395 1122h461l397 -1122h-364zM758 453l-23 71q-58 180 -104 375h-4q-45 -180 -105 -375l-20 -71h256z" />
    <glyph glyph-name="adieresis.smcp" horiz-adv-x="1255" 
d="M543 1272h-293v268h293v-268zM1006 1272h-291v268h291v-268zM831 199h-405l-59 -199h-365l395 1122h461l397 -1122h-364zM758 453l-23 71q-58 180 -104 375h-4q-45 -180 -105 -375l-20 -71h256z" />
    <glyph glyph-name="agrave.smcp" horiz-adv-x="1255" 
d="M561 1237l-289 303h392l159 -303h-262zM831 199h-405l-59 -199h-365l395 1122h461l397 -1122h-364zM758 453l-23 71q-58 180 -104 375h-4q-45 -180 -105 -375l-20 -71h256z" />
    <glyph glyph-name="amacron.smcp" horiz-adv-x="1255" 
d="M995 1288h-735v211h735v-211zM831 199h-405l-59 -199h-365l395 1122h461l397 -1122h-364zM758 453l-23 71q-58 180 -104 375h-4q-45 -180 -105 -375l-20 -71h256z" />
    <glyph glyph-name="aogonek.smcp" horiz-adv-x="1255" 
d="M1190 -223q37 0 72 14v-168q-88 -31 -191 -31q-125 0 -188.5 49.5t-63.5 137.5q0 66 42 117.5t130 103.5h-100l-60 199h-405l-59 -199h-365l395 1122h461l397 -1122q-74 -49 -103.5 -86.5t-29.5 -75.5q0 -61 68 -61zM758 453l-23 71q-58 180 -104 375h-4
q-45 -180 -105 -375l-20 -71h256z" />
    <glyph glyph-name="aring.smcp" horiz-adv-x="1255" 
d="M629 1214q-97 0 -165.5 68.5t-68.5 163.5q0 97 68.5 165t165.5 68t165 -68t68 -165q0 -96 -68 -164t-165 -68zM629 1561q-47 0 -81 -34t-34 -81t34 -81t81 -34t80.5 34t33.5 81t-33.5 81t-80.5 34zM831 199h-405l-59 -199h-365l395 1122h461l397 -1122h-364zM758 453
l-23 71q-58 180 -104 375h-4q-45 -180 -105 -375l-20 -71h256z" />
    <glyph glyph-name="atilde.smcp" horiz-adv-x="1255" 
d="M498 1335q-77 0 -86 -88h-183q6 137 71.5 215t182.5 78q56 0 107.5 -22t93.5 -44t74 -22q40 0 61 21.5t27 66.5h182q-8 -137 -73.5 -215t-182.5 -78q-55 0 -106 22t-93 44t-75 22zM831 199h-405l-59 -199h-365l395 1122h461l397 -1122h-364zM758 453l-23 71
q-58 180 -104 375h-4q-45 -180 -105 -375l-20 -71h256z" />
    <glyph glyph-name="ae.smcp" horiz-adv-x="1662" 
d="M1575 266v-266h-705l-34 217h-402l-92 -217h-352l512 1122h1065v-266h-516l24 -162h451v-258h-410l27 -170h432zM797 477l-62 383h-24l-164 -383h250z" />
    <glyph glyph-name="b.smcp" horiz-adv-x="1206" 
d="M139 1122h525q219 0 328.5 -77t109.5 -211q0 -101 -49.5 -162.5t-153.5 -89.5v-4q234 -46 234 -263q0 -146 -119 -230.5t-328 -84.5h-547v1122zM479 885v-207h121q86 0 126 25t40 79q0 53 -37.5 78t-116.5 25h-133zM479 455v-215h125q96 0 134 23t38 81q0 60 -40 85.5
t-134 25.5h-123z" />
    <glyph glyph-name="c.smcp" horiz-adv-x="1253" 
d="M627 1155q240 0 384.5 -118.5t153.5 -331.5h-358q-9 82 -55.5 124.5t-124.5 42.5q-95 0 -150 -81.5t-55 -229.5t56 -229.5t151 -81.5q74 0 122 45.5t58 128.5h362q-18 -221 -162 -339t-380 -118q-264 0 -415 158t-151 436q0 276 151.5 435t412.5 159z" />
    <glyph glyph-name="cacute.smcp" horiz-adv-x="1253" 
d="M692 1237h-262l160 303h391zM627 1155q240 0 384.5 -118.5t153.5 -331.5h-358q-9 82 -55.5 124.5t-124.5 42.5q-95 0 -150 -81.5t-55 -229.5t56 -229.5t151 -81.5q74 0 122 45.5t58 128.5h362q-18 -221 -162 -339t-380 -118q-264 0 -415 158t-151 436q0 276 151.5 435
t412.5 159z" />
    <glyph glyph-name="ccaron.smcp" horiz-adv-x="1253" 
d="M784 1237h-319l-242 303h283l119 -156l118 156h283zM627 1155q240 0 384.5 -118.5t153.5 -331.5h-358q-9 82 -55.5 124.5t-124.5 42.5q-95 0 -150 -81.5t-55 -229.5t56 -229.5t151 -81.5q74 0 122 45.5t58 128.5h362q-18 -221 -162 -339t-380 -118q-264 0 -415 158
t-151 436q0 276 151.5 435t412.5 159z" />
    <glyph glyph-name="ccedilla.smcp" horiz-adv-x="1253" 
d="M809 424h362q-17 -204 -143.5 -322t-333.5 -133l-57 -92q30 10 68 10q79 0 128.5 -42.5t49.5 -116.5q0 -89 -68 -146t-194 -57q-134 0 -246 65l53 109q89 -45 166 -45q90 0 90 63q0 30 -24 49t-66 19q-37 0 -64 -12l-59 55l86 143q-232 20 -363 176t-131 414
q0 276 151.5 435t412.5 159q240 0 384.5 -118.5t153.5 -331.5h-358q-9 82 -55.5 124.5t-124.5 42.5q-95 0 -150 -81.5t-55 -229.5t56 -229.5t151 -81.5q74 0 122 45.5t58 128.5z" />
    <glyph glyph-name="ccircumflex.smcp" horiz-adv-x="1253" 
d="M743 1237l-118 156l-119 -156h-283l242 303h319l242 -303h-283zM627 1155q240 0 384.5 -118.5t153.5 -331.5h-358q-9 82 -55.5 124.5t-124.5 42.5q-95 0 -150 -81.5t-55 -229.5t56 -229.5t151 -81.5q74 0 122 45.5t58 128.5h362q-18 -221 -162 -339t-380 -118
q-264 0 -415 158t-151 436q0 276 151.5 435t412.5 159z" />
    <glyph glyph-name="cdotaccent.smcp" horiz-adv-x="1253" 
d="M795 1272h-340v268h340v-268zM627 1155q240 0 384.5 -118.5t153.5 -331.5h-358q-9 82 -55.5 124.5t-124.5 42.5q-95 0 -150 -81.5t-55 -229.5t56 -229.5t151 -81.5q74 0 122 45.5t58 128.5h362q-18 -221 -162 -339t-380 -118q-264 0 -415 158t-151 436q0 276 151.5 435
t412.5 159z" />
    <glyph glyph-name="d.smcp" horiz-adv-x="1302" 
d="M139 1122h457q310 0 476.5 -145.5t166.5 -415.5q0 -269 -166.5 -415t-476.5 -146h-457v1122zM485 846v-570h103q144 0 218.5 73t74.5 212t-74.5 212t-218.5 73h-103z" />
    <glyph glyph-name="eth.smcp" horiz-adv-x="1310" 
d="M150 1122h456q310 0 476.5 -145.5t166.5 -415.5q0 -269 -166.5 -415t-476.5 -146h-456v469h-121v197h121v456zM489 268h109q147 0 223 75.5t76 217.5t-76 217.5t-223 75.5h-109v-188h209v-197h-209v-201z" />
    <glyph glyph-name="dcaron.smcp" horiz-adv-x="1302" 
d="M774 1237h-319l-242 303h283l118 -156l119 156h283zM139 1122h457q310 0 476.5 -145.5t166.5 -415.5q0 -269 -166.5 -415t-476.5 -146h-457v1122zM485 846v-570h103q144 0 218.5 73t74.5 212t-74.5 212t-218.5 73h-103z" />
    <glyph glyph-name="dcroat.smcp" horiz-adv-x="1310" 
d="M150 1122h456q310 0 476.5 -145.5t166.5 -415.5q0 -269 -166.5 -415t-476.5 -146h-456v469h-121v197h121v456zM489 268h109q147 0 223 75.5t76 217.5t-76 217.5t-223 75.5h-109v-188h209v-197h-209v-201z" />
    <glyph glyph-name="e.smcp" horiz-adv-x="1095" 
d="M1001 856h-534v-162h494v-258h-494v-170h541v-266h-869v1122h862v-266z" />
    <glyph glyph-name="eacute.smcp" horiz-adv-x="1095" 
d="M637 1237h-262l160 303h391zM1001 856h-534v-162h494v-258h-494v-170h541v-266h-869v1122h862v-266z" />
    <glyph glyph-name="ebreve.smcp" horiz-adv-x="1095" 
d="M719 1540h217q-7 -150 -103 -232.5t-262 -82.5t-261.5 82t-102.5 233h217q3 -57 41.5 -88t105.5 -31t105 31t43 88zM1001 856h-534v-162h494v-258h-494v-170h541v-266h-869v1122h862v-266z" />
    <glyph glyph-name="ecaron.smcp" horiz-adv-x="1095" 
d="M729 1237h-319l-242 303h283l118 -156l119 156h283zM1001 856h-534v-162h494v-258h-494v-170h541v-266h-869v1122h862v-266z" />
    <glyph glyph-name="ecircumflex.smcp" horiz-adv-x="1095" 
d="M688 1237l-119 156l-118 -156h-283l242 303h319l242 -303h-283zM1001 856h-534v-162h494v-258h-494v-170h541v-266h-869v1122h862v-266z" />
    <glyph glyph-name="edieresis.smcp" horiz-adv-x="1095" 
d="M485 1272h-292v268h292v-268zM948 1272h-291v268h291v-268zM1001 856h-534v-162h494v-258h-494v-170h541v-266h-869v1122h862v-266z" />
    <glyph glyph-name="edotaccent.smcp" horiz-adv-x="1095" 
d="M741 1272h-340v268h340v-268zM1001 856h-534v-162h494v-258h-494v-170h541v-266h-869v1122h862v-266z" />
    <glyph glyph-name="egrave.smcp" horiz-adv-x="1095" 
d="M606 1540l160 -303h-262l-289 303h391zM1001 856h-534v-162h494v-258h-494v-170h541v-266h-869v1122h862v-266z" />
    <glyph glyph-name="emacron.smcp" horiz-adv-x="1095" 
d="M938 1288h-735v211h735v-211zM1001 856h-534v-162h494v-258h-494v-170h541v-266h-869v1122h862v-266z" />
    <glyph glyph-name="eogonek.smcp" horiz-adv-x="1095" 
d="M944 -223q37 0 72 14v-168q-88 -31 -191 -31q-125 0 -188.5 49.5t-63.5 137.5q0 66 42 117.5t130 103.5h-606v1122h862v-266h-534v-162h494v-258h-494v-170h541v-266h2q-74 -49 -103.5 -86.5t-29.5 -75.5q0 -61 67 -61z" />
    <glyph glyph-name="f.smcp" horiz-adv-x="1015" 
d="M977 850h-510v-207h473v-272h-473v-371h-328v1122h838v-272z" />
    <glyph glyph-name="fi.smcp" horiz-adv-x="1640" 
d="M977 850h-510v-207h473v-272h-473v-371h-328v1122h838v-272zM1503 0h-348v1122h348v-1122z" />
    <glyph glyph-name="fl.smcp" horiz-adv-x="2037" 
d="M977 850h-510v-207h473v-272h-473v-371h-328v1122h838v-272zM1503 289h516v-289h-864v1122h348v-833z" />
    <glyph glyph-name="g.smcp" horiz-adv-x="1308" 
d="M659 1155q225 0 367 -106.5t162 -288.5h-363q-25 127 -168 127q-109 0 -172 -86t-63 -244q0 -160 62.5 -248t172.5 -88q94 0 147 48t58 132h-225v242h547v-643h-293v94h-4q-106 -121 -314 -121q-236 0 -373 156.5t-137 427.5q0 278 160 438t436 160z" />
    <glyph glyph-name="gbreve.smcp" horiz-adv-x="1308" 
d="M795 1540h217q-7 -150 -103 -232.5t-262 -82.5t-261.5 82t-102.5 233h217q3 -57 41.5 -88t105.5 -31t105 31t43 88zM659 1155q225 0 367 -106.5t162 -288.5h-363q-25 127 -168 127q-109 0 -172 -86t-63 -244q0 -160 62.5 -248t172.5 -88q94 0 147 48t58 132h-225v242h547
v-643h-293v94h-4q-106 -121 -314 -121q-236 0 -373 156.5t-137 427.5q0 278 160 438t436 160z" />
    <glyph glyph-name="gcircumflex.smcp" horiz-adv-x="1308" 
d="M764 1237l-119 156l-119 -156h-282l241 303h320l242 -303h-283zM659 1155q225 0 367 -106.5t162 -288.5h-363q-25 127 -168 127q-109 0 -172 -86t-63 -244q0 -160 62.5 -248t172.5 -88q94 0 147 48t58 132h-225v242h547v-643h-293v94h-4q-106 -121 -314 -121
q-236 0 -373 156.5t-137 427.5q0 278 160 438t436 160z" />
    <glyph glyph-name="gcommaaccent.smcp" horiz-adv-x="1308" 
d="M659 1155q225 0 367 -106.5t162 -288.5h-363q-25 127 -168 127q-109 0 -172 -86t-63 -244q0 -160 62.5 -248t172.5 -88q94 0 147 48t58 132h-225v242h547v-643h-293v94h-4q-106 -121 -314 -121q-236 0 -373 156.5t-137 427.5q0 278 160 438t436 160zM782 -340l-145 -223
h-129l94 223h-94v229h274v-229z" />
    <glyph glyph-name="gdotaccent.smcp" horiz-adv-x="1308" 
d="M817 1272h-340v268h340v-268zM659 1155q225 0 367 -106.5t162 -288.5h-363q-25 127 -168 127q-109 0 -172 -86t-63 -244q0 -160 62.5 -248t172.5 -88q94 0 147 48t58 132h-225v242h547v-643h-293v94h-4q-106 -121 -314 -121q-236 0 -373 156.5t-137 427.5q0 278 160 438
t436 160z" />
    <glyph glyph-name="h.smcp" horiz-adv-x="1357" 
d="M1219 0h-349v434h-383v-434h-348v1122h348v-401h383v401h349v-1122z" />
    <glyph glyph-name="hbar.smcp" horiz-adv-x="1357" 
d="M1303 883h-84v-883h-349v434h-383v-434h-348v883h-84v139h84v100h348v-100h383v100h349v-100h84v-139zM870 883h-383v-162h383v162z" />
    <glyph glyph-name="hcircumflex.smcp" horiz-adv-x="1357" 
d="M797 1237l-119 156l-119 -156h-283l242 303h320l241 -303h-282zM1219 0h-349v434h-383v-434h-348v1122h348v-401h383v401h349v-1122z" />
    <glyph glyph-name="i.smcp" horiz-adv-x="626" 
d="M487 0h-348v1122h348v-1122z" />
    <glyph glyph-name="iacute.smcp" horiz-adv-x="626" 
d="M379 1237h-262l159 303h392zM487 0h-348v1122h348v-1122z" />
    <glyph glyph-name="ibreve.smcp" horiz-adv-x="626" 
d="M440 1540h205q-6 -150 -92.5 -232.5t-239.5 -82.5t-239 82t-92 233h204q9 -123 127 -123t127 123zM487 0h-348v1122h348v-1122z" />
    <glyph glyph-name="icircumflex.smcp" horiz-adv-x="626" 
d="M684 1241h-266l-105 145l-102 -145h-268l221 299h299zM487 0h-348v1122h348v-1122z" />
    </font>
</defs>
</svg>
