<?xml version="1.0" standalone="no"?>
<!DOCTYPE svg PUBLIC "-//W3C//DTD SVG 1.1//EN" "http://www.w3.org/Graphics/SVG/1.1/DTD/svg11.dtd" >
<svg xmlns="http://www.w3.org/2000/svg" xmlns:xlink="http://www.w3.org/1999/xlink" version="1.1">
<metadata>
Created by FontForge 20170731 at Mon Nov  2 20:40:55 2020
 By Aleksey,,,
Copyright (c) 2015 Monotype Imaging Inc.  All rights reserved.
</metadata>
<defs>
<font id="NeueHaasUnicaW1G-BoldItalic" horiz-adv-x="1228" >
  <font-face 
    font-family="Neue Haas Unica W1G"
    font-weight="700"
    font-style="italic"
    font-stretch="normal"
    units-per-em="2048"
    panose-1="2 11 8 4 3 2 6 9 2 3"
    ascent="1565"
    descent="-483"
    x-height="1040"
    cap-height="1458"
    bbox="-1290 -563 2605 2286"
    underline-thickness="102"
    underline-position="-307"
    slope="-14"
    unicode-range="U+0020-FEFF"
  />
<missing-glyph horiz-adv-x="1314" 
d="M309 1591h697q128 0 202 -74.5t74 -201.5v-1172q0 -127 -74 -201.5t-202 -74.5h-697q-127 0 -201.5 74.5t-74.5 201.5v1172q0 127 74.5 201.5t201.5 74.5zM1006 1460h-697q-67 0 -106 -39t-39 -106v-1172q0 -67 39 -106t106 -39h697q68 0 106.5 39t38.5 106v1172
q0 67 -38.5 106t-106.5 39zM662 1325q172 0 270 -82t98 -227q0 -84 -30 -142t-117 -139q-81 -77 -107 -131t-26 -155h-209q-2 23 -2 63q0 113 26 174.5t111 147.5q60 60 78 95t18 83q0 50 -28.5 78t-81.5 28q-65 0 -98 -39.5t-34 -124.5h-256q3 181 104 276t284 95zM776 133
h-262v229h262v-229z" />
    <glyph glyph-name="f_f" unicode="ff" horiz-adv-x="1335" 
d="M1399 1475q75 0 149 -21l-49 -199q-21 7 -47 7q-80 0 -127.5 -41.5t-71.5 -137.5l-10 -43h195l-54 -213h-194l-207 -827h-283l207 827h-354l-207 -827h-283l207 827h-174l54 213h174l28 119q79 316 410 316q76 0 149 -21l-49 -199q-21 7 -47 7q-80 0 -127.5 -41.5
t-71.5 -137.5l-10 -43h355l28 119q79 316 410 316z" />
    <glyph glyph-name="f_f_i" unicode="ffi" horiz-adv-x="1900" 
d="M1190 827l-207 -827h-283l207 827h-354l-207 -827h-283l207 827h-174l54 213h174l28 119q79 316 410 316q76 0 149 -21l-49 -199q-21 7 -47 7q-80 0 -127.5 -41.5t-71.5 -137.5l-10 -43h355l28 119q79 316 410 316q75 0 149 -21l-49 -199q-21 7 -47 7q-80 0 -127.5 -41.5
t-71.5 -137.5l-10 -43h195l-54 -213h-194zM1995 1458l-62 -246h-286l61 246h287zM1604 1040h286l-258 -1040h-286z" />
    <glyph glyph-name="f_f_l" unicode="ffl" horiz-adv-x="1900" 
d="M1190 827l-207 -827h-283l207 827h-354l-207 -827h-283l207 827h-174l54 213h174l28 119q79 316 410 316q76 0 149 -21l-49 -199q-21 7 -47 7q-80 0 -127.5 -41.5t-71.5 -137.5l-10 -43h355l28 119q79 316 410 316q75 0 149 -21l-49 -199q-21 7 -47 7q-80 0 -127.5 -41.5
t-71.5 -137.5l-10 -43h195l-54 -213h-194zM1995 1458l-363 -1458h-286l362 1458h287z" />
    <glyph glyph-name="f_i" unicode="fi" horiz-adv-x="1263" 
d="M553 827l-207 -827h-283l207 827h-174l54 213h174l28 119q79 316 410 316q76 0 149 -21l-49 -199q-21 7 -47 7q-80 0 -127.5 -41.5t-71.5 -137.5l-10 -43h195l-53 -213h-195zM1358 1458l-62 -246h-286l61 246h287zM967 1040h286l-258 -1040h-286z" />
    <glyph glyph-name="f_l" unicode="fl" horiz-adv-x="1263" 
d="M553 827l-207 -827h-283l207 827h-174l54 213h174l28 119q79 316 410 316q76 0 149 -21l-49 -199q-21 7 -47 7q-80 0 -127.5 -41.5t-71.5 -137.5l-10 -43h195l-53 -213h-195zM1358 1458l-363 -1458h-286l362 1458h287z" />
    <glyph glyph-name=".notdef" horiz-adv-x="1314" 
d="M309 1591h697q128 0 202 -74.5t74 -201.5v-1172q0 -127 -74 -201.5t-202 -74.5h-697q-127 0 -201.5 74.5t-74.5 201.5v1172q0 127 74.5 201.5t201.5 74.5zM1006 1460h-697q-67 0 -106 -39t-39 -106v-1172q0 -67 39 -106t106 -39h697q68 0 106.5 39t38.5 106v1172
q0 67 -38.5 106t-106.5 39zM662 1325q172 0 270 -82t98 -227q0 -84 -30 -142t-117 -139q-81 -77 -107 -131t-26 -155h-209q-2 23 -2 63q0 113 26 174.5t111 147.5q60 60 78 95t18 83q0 50 -28.5 78t-81.5 28q-65 0 -98 -39.5t-34 -124.5h-256q3 181 104 276t284 95zM776 133
h-262v229h262v-229z" />
    <glyph glyph-name=".null" horiz-adv-x="0" 
 />
    <glyph glyph-name="nonmarkingreturn" horiz-adv-x="682" 
 />
    <glyph glyph-name="space" unicode=" " horiz-adv-x="471" 
 />
    <glyph glyph-name="exclam" unicode="!" horiz-adv-x="663" 
d="M414 406h-221l198 1052h348zM360 0h-315l68 270h315z" />
    <glyph glyph-name="quotedbl" unicode="&#x22;" horiz-adv-x="892" 
d="M457 899h-209l108 559h271zM834 899h-209l108 559h271z" />
    <glyph glyph-name="numbersign" unicode="#" horiz-adv-x="1376" 
d="M1145 823l-109 -264h205l-84 -205h-203l-145 -354h-246l146 354h-228l-145 -354h-246l146 354h-205l84 205h202l109 264h-205l84 205h205l143 352h246l-143 -352h227l143 352h246l-143 -352h203l-84 -205h-203zM899 823h-227l-109 -264h228z" />
    <glyph glyph-name="dollar" unicode="$" 
d="M1225 954h-264q8 31 8 70q0 119 -107 160l-94 -379q55 -19 93.5 -35t82.5 -39.5t73 -51t54 -64t37 -84.5t12 -107q0 -78 -36 -155.5t-103 -143.5t-177 -108.5t-245 -45.5l-43 -174h-166l45 185q-169 27 -259.5 118t-90.5 240q0 56 12 115h271q-11 -53 -11 -82
q0 -135 134 -176l102 413q-77 27 -129.5 53.5t-102.5 68.5t-75 102t-25 139q0 59 21 118.5t65 115.5t105.5 100t149.5 71.5t190 30.5l39 156h165l-41 -166q324 -50 324 -336q0 -57 -14 -109zM489 1014q0 -52 30 -87t95 -65l86 338q-95 -12 -153 -64.5t-58 -121.5zM846 387
q0 63 -33 100t-108 68l-93 -373q114 10 174 70.5t60 134.5z" />
    <glyph glyph-name="percent" unicode="%" horiz-adv-x="1861" 
d="M483 -61h-168l1147 1503h168zM612 1413q141 0 214 -75t73 -216q0 -70 -15.5 -142t-49 -140t-80.5 -121t-115 -85t-147 -32q-141 0 -215 75t-74 218q0 70 15.5 141.5t49 139.5t80.5 120.5t115.5 84.5t148.5 32zM604 1249q-45 0 -82 -38.5t-57.5 -96t-31.5 -114.5t-11 -103
q0 -131 78 -131q45 0 82 39t57.5 96.5t31.5 115t11 103.5q0 129 -78 129zM1456 778q141 0 214 -75t73 -216q0 -70 -16 -142t-49.5 -140t-80.5 -121t-115 -85t-147 -32q-141 0 -214.5 75t-73.5 218q0 70 15.5 141.5t49 139.5t80.5 120.5t115.5 84.5t148.5 32zM1448 614
q-45 0 -82 -38.5t-57.5 -96t-31.5 -114.5t-11 -103q0 -131 77 -131q45 0 82.5 39t58 96.5t31.5 115t11 103.5q0 129 -78 129z" />
    <glyph glyph-name="ampersand" unicode="&#x26;" horiz-adv-x="1542" 
d="M1204 823h285q-84 -321 -287 -530l219 -293h-348l-92 123q-87 -73 -210.5 -114.5t-248.5 -41.5q-228 0 -346.5 99.5t-118.5 277.5q0 71 23.5 138.5t72 132.5t132.5 120.5t196 93.5q-88 138 -88 267q0 70 30 139t86 126.5t147 93.5t202 36q170 0 265.5 -84.5t95.5 -232.5
q0 -249 -357 -426l189 -252q96 110 153 327zM825 1257q-72 0 -112.5 -48t-40.5 -109q0 -41 15 -82.5t52 -108.5q109 61 157 125t48 115t-31.5 79.5t-87.5 28.5zM594 213q126 0 254 86l-258 342q-124 -58 -174.5 -121.5t-50.5 -136.5q0 -76 59.5 -123t169.5 -47z" />
    <glyph glyph-name="quotesingle" unicode="'" horiz-adv-x="516" 
d="M457 899h-209l108 559h271z" />
    <glyph glyph-name="parenleft" unicode="(" horiz-adv-x="671" 
d="M614 1518h244q-247 -328 -368 -661.5t-121 -645.5q0 -249 37 -512h-228q-100 299 -100 616q0 196 55 396t177 410t304 397z" />
    <glyph glyph-name="parenright" unicode=")" horiz-adv-x="671" 
d="M100 -301h-243q247 328 368 661.5t121 645.5q0 249 -37 512h228q100 -299 100 -617q0 -300 -133.5 -611.5t-403.5 -590.5z" />
    <glyph glyph-name="asterisk" unicode="*" horiz-adv-x="872" 
d="M670 1167l272 54l12 -205l-276 12l133 -242l-188 -75l-74 266l-189 -201l-131 156l232 151l-250 117l106 176l218 -174l34 275l199 -50z" />
    <glyph glyph-name="plus" unicode="+" horiz-adv-x="1159" 
d="M690 760h338v-223h-338v-338h-221v338h-338v223h338v338h221v-338z" />
    <glyph glyph-name="comma" unicode="," horiz-adv-x="528" 
d="M293 0l-240 -352h-172l201 352h-105l84 342h316z" />
    <glyph glyph-name="hyphen" unicode="-" horiz-adv-x="655" 
d="M586 485h-533l56 226h532z" />
    <glyph glyph-name="period" unicode="." horiz-adv-x="528" 
d="M293 0h-316l84 342h316z" />
    <glyph glyph-name="slash" unicode="/" horiz-adv-x="1011" 
d="M127 -182h-242l1030 1708h242z" />
    <glyph glyph-name="zero" unicode="0" 
d="M782 1413q220 0 331.5 -131.5t111.5 -382.5q0 -83 -13.5 -171.5t-41.5 -179.5t-68.5 -175.5t-98.5 -158.5t-126.5 -129t-157.5 -86.5t-187 -31.5q-218 0 -330 131.5t-112 380.5q0 97 19 201.5t55.5 209.5t95.5 199t133 166.5t174.5 115t214.5 42.5zM762 1165
q-71 0 -134 -51.5t-105 -130.5t-73 -173.5t-45 -180.5t-14 -152q0 -266 160 -266q72 0 135 51.5t105.5 130.5t73.5 173.5t45 180.5t14 152q0 128 -41.5 197t-120.5 69z" />
    <glyph glyph-name="one" unicode="1" 
d="M696 0h-295l234 936h-334l51 209q175 0 274 55.5t146 179.5h268z" />
    <glyph glyph-name="two" unicode="2" 
d="M786 1413q201 0 316 -96t115 -262q0 -160 -110.5 -287t-350.5 -248q-201 -101 -272.5 -157t-92.5 -121h666l-58 -242h-1034q45 251 173 399t409 287q203 102 281.5 176.5t78.5 167.5q0 65 -38 102t-109 37q-187 0 -244 -221h-297q57 225 205 345t362 120z" />
    <glyph glyph-name="three" unicode="3" 
d="M786 1413q210 0 325.5 -93.5t115.5 -258.5q0 -123 -77 -220t-247 -149v-4q184 -76 184 -274q0 -79 -34.5 -156.5t-99.5 -143.5t-173 -106.5t-241 -40.5q-231 0 -353.5 97t-122.5 282q0 37 11 105h295q-11 -57 -11 -82q0 -158 193 -158q109 0 176.5 64t67.5 137
q0 159 -230 159h-41l58 238h39q79 0 141 20.5t97 53t53 69.5t18 74q0 67 -44.5 105t-125.5 38q-195 0 -252 -227h-297q53 224 203 347.5t372 123.5z" />
    <glyph glyph-name="four" unicode="4" 
d="M997 541h193l-57 -232h-193l-78 -309h-295l78 309h-670l68 269l752 802h411zM313 541h396l41 168q77 289 127 440h-5q-225 -262 -372 -416z" />
    <glyph glyph-name="five" unicode="5" 
d="M1214 1141h-632l-107 -297h4q106 76 246 76q183 0 287 -107t104 -289q0 -74 -24.5 -151t-76 -150t-122.5 -130t-173.5 -91.5t-219.5 -34.5q-207 0 -325 87.5t-118 242.5q0 39 9 82h296q-4 -14 -4 -39q0 -63 50 -97t129 -34q70 0 124.5 28.5t85 73.5t45.5 94.5t15 98.5
q0 88 -47 134t-133 46q-72 0 -129.5 -38.5t-87.5 -104.5l-287 18l283 821h868z" />
    <glyph glyph-name="six" unicode="6" 
d="M815 1413q204 0 316 -95t112 -267q0 -31 -2 -47h-297q0 6 1 14t1 10q0 143 -149 143q-107 0 -200.5 -90t-150.5 -276h5q131 96 292 96q177 0 279 -109.5t102 -295.5q0 -69 -23.5 -141.5t-72 -142t-115 -124t-161 -88t-201.5 -33.5q-214 0 -325 122.5t-111 365.5
q0 118 27 246.5t85.5 256t139 228.5t197.5 164t251 63zM653 678q-60 0 -110 -26.5t-80.5 -68.5t-47 -90.5t-16.5 -95.5q0 -88 42 -138t122 -50q59 0 108.5 26t80 66.5t47 86.5t16.5 91q0 95 -41.5 147t-120.5 52z" />
    <glyph glyph-name="seven" unicode="7" 
d="M1325 1380l-59 -254q-204 -220 -388.5 -514t-314.5 -612h-342q155 354 355 652.5t382 477.5h-720l61 250h1026z" />
    <glyph glyph-name="eight" unicode="8" 
d="M784 1413q207 0 329 -96t122 -260q0 -123 -86.5 -226t-243.5 -137v-4q91 -38 142 -116.5t51 -182.5q0 -75 -36 -148.5t-103.5 -136t-179 -101t-247.5 -38.5q-221 0 -346 104t-125 289q0 82 39 158t123.5 137t200.5 84v4q-82 38 -127 109.5t-45 163.5q0 68 35.5 137
t100.5 128t169 95.5t227 36.5zM760 1174q-111 0 -173.5 -59.5t-62.5 -131.5q0 -75 49 -115.5t138 -40.5q58 0 105 19t73.5 48.5t40.5 61.5t14 62q0 74 -48.5 115t-135.5 41zM612 592q-62 0 -112.5 -21t-80.5 -54t-45.5 -70.5t-15.5 -73.5q0 -76 52.5 -119t146.5 -43
q63 0 114 20.5t81.5 53t46.5 69t16 72.5q0 78 -54 122t-149 44z" />
    <glyph glyph-name="nine" unicode="9" 
d="M457 -33q-204 0 -316 95.5t-112 267.5q0 31 2 47h297q0 -5 -1 -14t-1 -11q0 -143 149 -143q107 0 200 90t150 276h-4q-131 -96 -293 -96q-177 0 -279 110t-102 296q0 69 23.5 141.5t72 141.5t115.5 123.5t161.5 88t201.5 33.5q214 0 325 -122t111 -365q0 -118 -27 -247
t-85.5 -256t-139 -228.5t-197.5 -164.5t-251 -63zM618 702q60 0 110 26.5t80.5 68.5t47 90.5t16.5 95.5q0 88 -41.5 138t-121.5 50q-59 0 -108.5 -26t-80 -66.5t-47 -86.5t-16.5 -91q0 -95 41 -147t120 -52z" />
    <glyph glyph-name="colon" unicode=":" horiz-adv-x="528" 
d="M467 698h-315l84 342h315zM293 0h-316l84 342h316z" />
    <glyph glyph-name="semicolon" unicode=";" horiz-adv-x="528" 
d="M467 698h-315l84 342h315zM293 0l-240 -352h-172l201 352h-105l84 342h316z" />
    <glyph glyph-name="less" unicode="&#x3c;" horiz-adv-x="1159" 
d="M1028 903l-633 -252v-4l633 -252v-241l-897 370v250l897 371v-242z" />
    <glyph glyph-name="equal" unicode="=" horiz-adv-x="1159" 
d="M1028 731h-897v223h897v-223zM1028 342h-897v223h897v-223z" />
    <glyph glyph-name="greater" unicode="&#x3e;" horiz-adv-x="1159" 
d="M1028 774v-250l-897 -370v241l633 252v4l-633 252v242z" />
    <glyph glyph-name="question" unicode="?" horiz-adv-x="1120" 
d="M733 1489q215 0 333 -97t118 -270q0 -109 -62 -198.5t-229 -202.5q-132 -88 -182.5 -152t-83.5 -188h-244q38 186 94 272.5t207 194.5q127 92 166 148.5t39 115.5q0 129 -162 129q-93 0 -151.5 -50.5t-86.5 -156.5h-299q53 224 193.5 339.5t349.5 115.5zM565 0h-315
l67 270h316z" />
    <glyph glyph-name="at" unicode="@" horiz-adv-x="1785" 
d="M1030 1442q342 0 533.5 -171.5t191.5 -471.5q0 -122 -37.5 -239t-104.5 -210.5t-170 -151t-224 -57.5q-211 0 -211 170h-4q-120 -170 -291 -170q-122 0 -188 82t-66 238q0 72 22 153t65.5 160t101.5 143.5t137.5 104t166.5 39.5q177 0 207 -164h4q29 75 64 143h227
q-97 -215 -167 -401t-70 -244q0 -35 16.5 -50t50.5 -15q70 0 128.5 44.5t94 114.5t55 149t19.5 155q0 221 -148 348t-411 127q-126 0 -237 -37t-192.5 -99.5t-146 -143.5t-104.5 -172t-61 -181t-21 -174q0 -250 132.5 -388.5t369.5 -138.5q266 0 473 109l61 -156
q-233 -127 -518 -127q-327 0 -509.5 181.5t-182.5 509.5q0 128 38.5 263.5t118.5 266t189.5 233t265 165.5t332.5 63zM963 850q-55 0 -105 -38t-82.5 -94.5t-51.5 -117.5t-19 -111q0 -135 104 -135q54 0 103.5 40.5t82 98.5t51.5 119.5t19 106.5q0 131 -102 131z" />
    <glyph glyph-name="A" unicode="A" horiz-adv-x="1429" 
d="M975 356h-559l-203 -356h-336l868 1458h406l143 -1458h-295zM956 614l-6 97q-21 326 -26 569h-4q-132 -264 -304 -569l-55 -97h395z" />
    <glyph glyph-name="B" unicode="B" horiz-adv-x="1331" 
d="M401 1458h484q242 0 361.5 -85t119.5 -238q0 -60 -17 -116t-54 -111.5t-107 -100.5t-166 -72v-4q111 -27 159 -95.5t48 -178.5q0 -83 -35.5 -162t-103.5 -146t-182.5 -108t-258.5 -41h-610zM641 1212l-88 -354h233q79 0 135.5 17t86 47.5t42.5 65t13 75.5
q0 76 -52.5 112.5t-162.5 36.5h-207zM494 621l-93 -373h244q158 0 221.5 59t63.5 158q0 84 -51.5 120t-169.5 36h-215z" />
    <glyph glyph-name="C" unicode="C" horiz-adv-x="1437" 
d="M928 1491q242 0 383 -129.5t141 -347.5q0 -49 -8 -90h-303q4 36 4 57q0 114 -64.5 179t-179.5 65q-91 0 -169.5 -41t-133 -108t-93 -152t-57 -173.5t-18.5 -172.5q0 -159 68 -252t198 -93q112 0 206.5 66.5t139.5 183.5h310q-76 -245 -257 -380.5t-425 -135.5
q-261 0 -406 158.5t-145 431.5q0 105 22.5 213t65.5 213t112 196.5t156 161t204 110t249 40.5z" />
    <glyph glyph-name="D" unicode="D" horiz-adv-x="1503" 
d="M401 1458h383q344 0 520.5 -160.5t176.5 -466.5q0 -97 -23 -194t-69 -190.5t-121 -174t-171 -141.5t-227.5 -96t-283.5 -35h-547zM637 1200l-236 -942h203q121 0 219.5 34.5t161.5 90.5t105.5 129.5t60.5 148.5t18 152q0 194 -98.5 290.5t-300.5 96.5h-133z" />
    <glyph glyph-name="E" unicode="E" horiz-adv-x="1296" 
d="M1346 1200h-707l-82 -330h660l-66 -256h-659l-89 -356h725l-63 -258h-1026l362 1458h1008z" />
    <glyph glyph-name="F" unicode="F" horiz-adv-x="1196" 
d="M1311 1200h-672l-100 -397h620l-63 -258h-621l-135 -545h-301l362 1458h973z" />
    <glyph glyph-name="G" unicode="G" horiz-adv-x="1523" 
d="M971 1491q249 0 386.5 -119.5t137.5 -331.5q0 -31 -6 -69h-324q2 10 2 28q0 109 -62 167.5t-177 58.5q-97 0 -180 -41t-141 -108.5t-100 -154.5t-61.5 -179.5t-19.5 -182.5q0 -165 70 -257.5t209 -92.5q134 0 240 84t145 229h-347l62 246h627l-191 -768h-254l31 125h-4
q-73 -72 -177.5 -113t-222.5 -41q-233 0 -364 156t-131 420q0 133 33 265t103.5 254.5t169 217t240 151t306.5 56.5z" />
    <glyph glyph-name="H" unicode="H" horiz-adv-x="1536" 
d="M1239 0h-301l156 629h-598l-156 -629h-301l362 1458h301l-141 -571h598l141 571h302z" />
    <glyph glyph-name="I" unicode="I" horiz-adv-x="636" 
d="M340 0h-301l362 1458h301z" />
    <glyph glyph-name="J" unicode="J" horiz-adv-x="802" 
d="M879 1458l-256 -1026q-57 -229 -195 -337.5t-377 -108.5q-84 0 -149 20l63 252q45 -10 82 -10q62 0 105.5 12t82 44.5t66 91t49.5 149.5l228 913h301z" />
    <glyph glyph-name="K" unicode="K" horiz-adv-x="1357" 
d="M805 752l416 -752h-351l-350 713h-4l-176 -713h-301l362 1458h301l-153 -616h4l598 616h385z" />
    <glyph glyph-name="L" unicode="L" horiz-adv-x="1177" 
d="M403 258h689l-64 -258h-989l362 1458h301z" />
    <glyph glyph-name="M" unicode="M" horiz-adv-x="2015" 
d="M1718 0h-288l180 725q73 297 149 547h-4q-142 -275 -291 -537l-413 -735h-344l-50 735q-17 306 -20 537h-4q-67 -311 -125 -547l-180 -725h-289l362 1458h465l45 -670q19 -338 17 -536h4q131 291 270 536l377 670h502z" />
    <glyph glyph-name="N" unicode="N" horiz-adv-x="1589" 
d="M1292 0h-403l-148 592q-79 323 -135 602h-4q-67 -362 -135 -633l-139 -561h-289l362 1458h404l147 -592q57 -236 135 -602h5q56 316 135 633l139 561h289z" />
    <glyph glyph-name="O" unicode="O" horiz-adv-x="1531" 
d="M918 1491q281 0 437 -167.5t156 -455.5q0 -125 -31 -251t-96.5 -243.5t-157.5 -207.5t-224 -144.5t-285 -54.5q-281 0 -436.5 167.5t-155.5 455.5q0 125 31 251t96.5 243.5t157 207.5t223.5 144.5t285 54.5zM905 1225q-113 0 -207 -60.5t-151 -155.5t-88 -203.5
t-31 -213.5q0 -168 78.5 -263.5t222.5 -95.5q91 0 171 40t135 105.5t95 149t59 170.5t19 170q0 166 -79 261.5t-224 95.5z" />
    <glyph glyph-name="P" unicode="P" horiz-adv-x="1302" 
d="M401 1458h449q258 0 387 -112t129 -314q0 -70 -20.5 -140t-66 -138.5t-112 -121t-166.5 -84.5t-221 -32h-311l-129 -516h-301zM641 1208l-111 -442h250q75 0 131.5 21.5t87 57.5t45.5 76.5t15 84.5q0 202 -230 202h-188z" />
    <glyph glyph-name="Q" unicode="Q" horiz-adv-x="1531" 
d="M1516 885q0 -203 -81.5 -402.5t-232.5 -332.5l115 -181l-187 -119l-114 181q-144 -64 -311 -64q-277 0 -430.5 163t-153.5 443q0 128 31.5 256t98 247.5t160 211.5t228 147.5t291.5 55.5q277 0 431.5 -163t154.5 -443zM733 217q70 0 146 27l-158 248l186 118l148 -231
q80 94 123 225.5t43 257.5q0 169 -81 266t-227 97q-93 0 -174 -40.5t-137 -107t-96 -151t-59 -172.5t-19 -172q0 -171 79.5 -268t225.5 -97z" />
    <glyph glyph-name="R" unicode="R" horiz-adv-x="1363" 
d="M401 1458h517q229 0 341.5 -89.5t112.5 -258.5q0 -93 -38.5 -179.5t-123 -157.5t-202.5 -99v-4q63 -26 94.5 -87t50.5 -194l53 -389h-311l-39 346q-14 118 -60 164.5t-153 46.5h-166l-137 -557h-301zM643 1214l-104 -417h233q77 0 134.5 22.5t88.5 59.5t45.5 76.5
t14.5 80.5q0 178 -195 178h-217z" />
    <glyph glyph-name="S" unicode="S" horiz-adv-x="1290" 
d="M809 1491q500 0 500 -371q0 -42 -17 -108h-305q6 30 6 59q0 87 -56 133.5t-165 46.5q-102 0 -172 -50t-70 -126q0 -70 59.5 -112t205.5 -89q53 -18 88.5 -31t80.5 -34.5t74 -43t60.5 -53.5t49 -69t29 -86.5t11.5 -107.5q0 -67 -24.5 -134.5t-76 -130t-123 -111
t-173.5 -77.5t-220 -29q-257 0 -397.5 103t-140.5 295q0 57 14 114h311q-8 -36 -8 -73q0 -195 256 -195q66 0 118 18t82.5 47.5t46 62t15.5 64.5q0 29 -6 52.5t-22.5 42.5t-33 32.5t-50 29t-59 25.5t-74.5 27q-45 16 -70 25t-66 26t-64.5 30t-56 34t-51.5 41.5t-40.5 49
t-33 59.5t-19 70.5t-7.5 84.5q0 80 39 159.5t111 147t188 110t256 42.5z" />
    <glyph glyph-name="T" unicode="T" horiz-adv-x="1259" 
d="M1409 1200h-459l-299 -1200h-301l299 1200h-459l64 258h1219z" />
    <glyph glyph-name="U" unicode="U" horiz-adv-x="1470" 
d="M1548 1458l-245 -987q-61 -245 -228 -374.5t-416 -129.5q-243 0 -372 123t-129 352q0 92 26 199l205 817h301l-215 -866q-18 -74 -18 -131q0 -228 227 -228q126 0 212.5 79.5t123.5 230.5l227 915h301z" />
    <glyph glyph-name="V" unicode="V" horiz-adv-x="1306" 
d="M713 0h-377l-90 1458h286l33 -567q20 -333 15 -596h4q142 313 301 596l315 567h328z" />
    <glyph glyph-name="W" unicode="W" horiz-adv-x="1957" 
d="M1505 0h-391l8 578q3 281 29 624h-4q-106 -258 -283 -624l-278 -578h-391l57 1458h280l-26 -530q-14 -302 -51 -631h4q102 241 291 631l258 530h381l-5 -530q-3 -321 -24 -631h4q99 256 264 631l236 530h309z" />
    <glyph glyph-name="X" unicode="X" horiz-adv-x="1290" 
d="M870 727l285 -727h-319l-170 502h-4l-404 -502h-381l653 756l-268 702h313l158 -489h4l383 489h375z" />
    <glyph glyph-name="Y" unicode="Y" horiz-adv-x="1306" 
d="M815 567l-141 -567h-301l141 567l-276 891h305l71 -274q42 -163 80 -371h4q117 184 260 371l207 274h369z" />
    <glyph glyph-name="Z" unicode="Z" horiz-adv-x="1191" 
d="M1280 1178l-934 -920v-4h739l-63 -254h-1110l70 281l933 919v4h-671l63 254h1043z" />
    <glyph glyph-name="bracketleft" unicode="[" horiz-adv-x="673" 
d="M850 1352h-229l-371 -1491h229l-41 -166h-499l452 1823h500z" />
    <glyph glyph-name="backslash" unicode="\" horiz-adv-x="999" 
d="M524 1526l195 -1708h-213l-195 1708h213z" />
    <glyph glyph-name="bracketright" unicode="]" horiz-adv-x="673" 
d="M-133 -139h229l371 1491h-229l41 166h499l-452 -1823h-500z" />
    <glyph glyph-name="asciicircum" unicode="^" horiz-adv-x="1015" 
d="M999 760h-264l-225 473h-4l-225 -473h-265l340 698h303z" />
    <glyph glyph-name="underscore" unicode="_" horiz-adv-x="1024" 
d="M829 -258h-1024l39 156h1024z" />
    <glyph glyph-name="grave" unicode="`" horiz-adv-x="720" 
d="M680 1458l96 -299h-213l-225 299h342z" />
    <glyph glyph-name="a" unicode="a" horiz-adv-x="1120" 
d="M637 1073q399 0 399 -323q0 -64 -18 -138l-82 -327q-46 -182 -43 -285h-250q0 64 16 121h-4q-149 -146 -350 -146q-150 0 -230.5 75.5t-80.5 201.5q0 49 13 92.5t46.5 88.5t85.5 80.5t136 64.5t192 45q146 20 283 28l6 25q10 42 10 67q0 129 -148 129q-76 0 -127.5 -41.5
t-66.5 -115.5h-279q34 156 164 257t328 101zM690 412l17 65q-120 -8 -215 -22q-201 -33 -201 -164q0 -52 34 -81.5t97 -29.5q103 0 171.5 60t96.5 172z" />
    <glyph glyph-name="b" unicode="b" horiz-adv-x="1224" 
d="M535 954h4q119 113 266 113q171 0 265.5 -107.5t94.5 -297.5q0 -74 -16.5 -152.5t-47.5 -155.5t-80 -145.5t-109.5 -121.5t-140.5 -83.5t-169 -30.5q-97 0 -170 46.5t-102 130.5h-4l-37 -150h-279l365 1458h287zM694 848q-68 0 -125 -41t-92 -105t-54.5 -137t-19.5 -143
q0 -108 43.5 -168.5t124.5 -60.5q68 0 125 41t92 104.5t54.5 136.5t19.5 143q0 108 -43.5 169t-124.5 61z" />
    <glyph glyph-name="c" unicode="c" horiz-adv-x="1150" 
d="M676 1073q206 0 322 -105.5t116 -279.5q0 -37 -4 -55h-299q4 20 4 39q0 85 -41.5 132.5t-114.5 47.5q-70 0 -129 -44t-95 -111t-55.5 -138.5t-19.5 -132.5q0 -114 44 -176t128 -62q76 0 138 54t90 145h301q-59 -190 -208 -305t-337 -115q-212 0 -330 121.5t-118 335.5
q0 85 23.5 173.5t73 174t119.5 152.5t172 108t220 41z" />
    <glyph glyph-name="d" unicode="d" horiz-adv-x="1220" 
d="M952 0h-278l24 94h-4q-59 -58 -132 -89.5t-144 -31.5q-171 0 -266 108t-95 298q0 89 23 183.5t70.5 184.5t113 161.5t158.5 115t199 43.5q93 0 164.5 -42t103.5 -118h4l135 551h287zM651 848q-68 0 -125 -41t-92 -105t-54.5 -137t-19.5 -143q0 -108 43.5 -168.5
t124.5 -60.5q68 0 125 41t92 104.5t54.5 136.5t19.5 143q0 108 -43.5 169t-124.5 61z" />
    <glyph glyph-name="e" unicode="e" horiz-adv-x="1173" 
d="M1087 461h-745q-8 -44 -8 -88q0 -104 52 -153.5t136 -49.5q77 0 137 40.5t84 104.5h293q-63 -149 -206 -248.5t-324 -99.5q-217 0 -330 117.5t-113 323.5q0 88 24 179.5t75 178.5t121 155.5t171.5 110t217.5 41.5q215 0 327.5 -114t112.5 -310q0 -77 -25 -188zM655 870
q-87 0 -157.5 -57.5t-110.5 -171.5h455q4 32 4 45q0 92 -52 138t-139 46z" />
    <glyph glyph-name="f" unicode="f" horiz-adv-x="698" 
d="M762 1475q76 0 149 -21l-49 -199q-21 7 -47 7q-80 0 -127.5 -41.5t-71.5 -137.5l-10 -43h195l-53 -213h-195l-207 -827h-283l207 827h-174l54 213h174l28 119q79 316 410 316z" />
    <glyph glyph-name="g" unicode="g" horiz-adv-x="1210" 
d="M598 1069q110 0 183 -50.5t106 -133.5h4l39 155h270l-258 -1040q-50 -197 -196.5 -297t-356.5 -100q-211 0 -317.5 71.5t-106.5 204.5q0 25 6 55h279q-2 -8 -2 -24q0 -50 41 -76.5t117 -26.5q100 0 167 54t101 182l18 76h-4q-124 -107 -276 -107q-163 0 -253.5 109.5
t-90.5 304.5q0 83 21.5 171t66.5 172.5t106.5 151.5t149 107.5t186.5 40.5zM633 834q-61 0 -113 -37t-83 -93.5t-48.5 -118.5t-17.5 -116q0 -103 44 -162t122 -59q52 0 97 23t76.5 61t54.5 86t33.5 97t10.5 95q0 104 -46.5 164t-129.5 60z" />
    <glyph glyph-name="h" unicode="h" 
d="M530 944h5q131 121 290 121q150 0 234 -78.5t84 -228.5q0 -68 -21 -150l-151 -608h-287l150 602q14 57 14 107q0 131 -137 131q-92 0 -166.5 -73t-108.5 -210l-139 -557h-287l363 1458h286z" />
    <glyph glyph-name="i" unicode="i" horiz-adv-x="565" 
d="M598 1212h-287l62 246h286zM297 0h-287l258 1040h287z" />
    <glyph glyph-name="j" unicode="j" horiz-adv-x="569" 
d="M602 1212h-287l62 246h287zM559 1040l-272 -1095q-22 -88 -63 -153t-97.5 -104t-121.5 -58t-140 -19q-89 0 -154 18l51 205q21 -6 48 -6q84 0 134.5 46t78.5 163l249 1003h287z" />
    <glyph glyph-name="k" unicode="k" horiz-adv-x="1112" 
d="M700 539l304 -539h-314l-264 500h-4l-125 -500h-287l363 1458h286l-204 -825h4l395 407h365z" />
    <glyph glyph-name="l" unicode="l" horiz-adv-x="565" 
d="M297 0h-287l363 1458h286z" />
    <glyph glyph-name="m" unicode="m" horiz-adv-x="1837" 
d="M1452 1065q143 0 222 -76t79 -223q0 -65 -22 -158l-152 -608h-287l152 610q14 55 14 101q0 129 -121 129q-92 0 -160.5 -78.5t-105.5 -226.5l-133 -535h-287l156 629q12 47 12 84q0 127 -123 127q-93 0 -162 -79t-104 -226l-133 -535h-287l258 1040h271l-25 -104h4
q132 129 293 129q227 0 274 -184q81 91 168 137.5t199 46.5z" />
    <glyph glyph-name="n" unicode="n" 
d="M825 1065q151 0 234.5 -78.5t83.5 -228.5q0 -68 -21 -150l-151 -608h-287l150 602q14 57 14 107q0 131 -137 131q-92 0 -166.5 -73t-108.5 -210l-139 -557h-287l260 1040h269l-29 -114h4q139 139 311 139z" />
    <glyph glyph-name="o" unicode="o" horiz-adv-x="1208" 
d="M680 1073q222 0 341.5 -121t119.5 -338q0 -86 -24 -175t-75.5 -174t-122.5 -151t-174 -106.5t-221 -40.5q-221 0 -338.5 121t-117.5 338q0 86 24 175t75 174t121.5 151t172.5 106.5t219 40.5zM657 852q-73 0 -132.5 -43t-93.5 -109t-51.5 -136.5t-17.5 -135.5
q0 -114 47.5 -177t139.5 -63q73 0 132.5 43t93.5 109t51.5 136.5t17.5 135.5q0 114 -47.5 177t-139.5 63z" />
    <glyph glyph-name="p" unicode="p" horiz-adv-x="1224" 
d="M805 1067q171 0 265.5 -107.5t94.5 -297.5q0 -74 -16.5 -152.5t-47.5 -155.5t-80 -145.5t-109.5 -121.5t-140.5 -83.5t-169 -30.5q-93 0 -164.5 42t-103.5 118h-4l-127 -512h-287l354 1419h279l-25 -94h4q59 58 132.5 89.5t144.5 31.5zM694 848q-68 0 -125 -41t-92 -105
t-54.5 -137t-19.5 -143q0 -108 43.5 -168.5t124.5 -60.5q68 0 125 41t92 104.5t54.5 136.5t19.5 143q0 108 -43.5 169t-124.5 61z" />
    <glyph glyph-name="q" unicode="q" horiz-adv-x="1222" 
d="M621 1067q97 0 170 -46.5t102 -129.5h4l37 149h278l-352 -1419h-287l115 465h-4q-119 -113 -266 -113q-171 0 -266 108t-95 298q0 89 23 183.5t70.5 184.5t113 161.5t158.5 115t199 43.5zM651 848q-68 0 -125 -41t-92 -105t-54.5 -137t-19.5 -143q0 -108 43.5 -168.5
t124.5 -60.5q68 0 125 41t92 104.5t54.5 136.5t19.5 143q0 108 -43.5 169t-124.5 61z" />
    <glyph glyph-name="r" unicode="r" horiz-adv-x="802" 
d="M825 1057q49 0 93 -13l-62 -247q-55 10 -88 10q-132 0 -221.5 -81t-126.5 -234l-123 -492h-287l258 1040h264l-32 -133h4q144 150 321 150z" />
    <glyph glyph-name="s" unicode="s" horiz-adv-x="1073" 
d="M625 1073q191 0 292 -73t101 -214q0 -31 -6 -65h-273q4 28 4 43q0 108 -143 108q-77 0 -114 -31t-37 -71q0 -43 39 -70t149 -65q42 -14 63.5 -22t59.5 -24.5t58.5 -31t47 -39t40.5 -51t24 -64t10 -81.5q0 -67 -31 -129t-90 -113.5t-155.5 -82t-217.5 -30.5
q-205 0 -316.5 75t-111.5 222q0 37 11 74h288q-6 -24 -6 -45q0 -58 40.5 -88.5t119.5 -30.5q77 0 120.5 30.5t43.5 82.5q0 54 -43.5 82t-157.5 67q-118 41 -164 70q-111 75 -112 227q0 63 29.5 122.5t85.5 108.5t147.5 79t204.5 30z" />
    <glyph glyph-name="t" unicode="t" horiz-adv-x="731" 
d="M547 827l-109 -436q-10 -48 -10 -74q0 -55 26 -78.5t85 -23.5q31 0 67 8l-57 -223q-51 -14 -113 -14q-158 0 -231.5 61.5t-73.5 198.5q0 57 23 151l106 430h-168l53 213h168l68 271h287l-68 -271h199l-54 -213h-198z" />
    <glyph glyph-name="u" unicode="u" 
d="M403 -25q-151 0 -234 79t-83 229q0 70 20 149l152 608h287l-150 -602q-14 -57 -14 -106q0 -131 137 -131q92 0 166.5 72.5t108.5 209.5l139 557h287l-261 -1040h-268l29 115h-4q-65 -65 -146 -102.5t-166 -37.5z" />
    <glyph glyph-name="v" unicode="v" horiz-adv-x="1044" 
d="M578 0h-373l-90 1040h280l19 -409q11 -258 8 -451h4q113 252 221 451l223 409h318z" />
    <glyph glyph-name="w" unicode="w" horiz-adv-x="1658" 
d="M1290 0h-409l10 410q6 221 18 444h-4q-90 -237 -190 -444l-195 -410h-409l28 1040h273l-23 -401q-15 -282 -31 -453h4q87 220 195 449l193 405h393l-8 -405q-3 -204 -19 -449h4q79 224 183 453l178 401h297z" />
    <glyph glyph-name="x" unicode="x" horiz-adv-x="1040" 
d="M690 522l234 -522h-303l-123 340h-4l-271 -340h-364l499 547l-219 493h299l117 -292h4l240 292h360z" />
    <glyph glyph-name="y" unicode="y" horiz-adv-x="1032" 
d="M1176 1040l-633 -1046q-132 -217 -263 -301t-329 -84q-80 0 -146 16l58 230q46 -17 106 -17q110 0 175 64t65 161q0 35 -10 132l-84 845h282l25 -348q17 -239 14 -436h4q119 254 222 436l194 348h320z" />
    <glyph glyph-name="z" unicode="z" horiz-adv-x="991" 
d="M983 795l-637 -566v-4h514l-55 -225h-877l62 246l637 565v4h-475l57 225h835z" />
    <glyph glyph-name="braceleft" unicode="{" horiz-adv-x="692" 
d="M889 1518l-41 -164q-88 -3 -135 -40.5t-70 -127.5l-82 -328q-28 -106 -87.5 -163.5t-166.5 -82.5l-2 -6q70 -25 102.5 -70.5t32.5 -119.5q0 -46 -14 -101l-66 -262q-12 -49 -12 -82q0 -62 30 -88t97 -28l-41 -166h-28q-168 0 -243 60.5t-75 191.5q0 56 23 153l59 240
q12 50 12 82q0 50 -22.5 79t-73.5 44l45 178q80 20 119 57.5t59 114.5l76 307q43 174 140.5 248t293.5 74h70z" />
    <glyph glyph-name="bar" unicode="|" horiz-adv-x="602" 
d="M430 -420h-258v1919h258v-1919z" />
    <glyph glyph-name="braceright" unicode="}" horiz-adv-x="692" 
d="M-156 -311l41 164q88 3 135 40t70 127l82 328q28 106 87.5 163.5t166.5 82.5l2 6q-70 25 -102.5 71t-32.5 120q0 45 14 100l66 262q12 49 12 82q0 62 -30 88.5t-97 28.5l41 166h29q168 0 242.5 -60.5t74.5 -191.5q0 -61 -22 -154l-60 -240q-12 -50 -12 -81
q0 -50 22.5 -79t73.5 -44l-45 -179q-80 -20 -119 -57.5t-59 -114.5l-76 -307q-43 -174 -140.5 -247.5t-293.5 -73.5h-70z" />
    <glyph glyph-name="asciitilde" unicode="~" horiz-adv-x="1216" 
d="M442 858q61 0 114.5 -20t91 -49t71.5 -58t72 -49t77 -20q67 0 120 48.5t73 129.5h184q-45 -189 -156 -294.5t-251 -105.5q-61 0 -114.5 20t-91 49t-72 57.5t-73 48.5t-77.5 20q-66 0 -118.5 -48.5t-72.5 -129.5h-184q45 189 156 295t251 106z" />
    <glyph glyph-name="nbspace" unicode="&#xa0;" horiz-adv-x="471" 
 />
    <glyph glyph-name="exclamdown" unicode="&#xa1;" horiz-adv-x="663" 
d="M303 1040h315l-67 -270h-315zM250 635h221l-199 -1053h-348z" />
    <glyph glyph-name="cent" unicode="&#xa2;" 
d="M1184 793h-299q4 20 4 38q0 108 -66 156l-157 -631q58 19 102.5 68.5t65.5 122.5h301q-57 -185 -200.5 -299.5t-326.5 -120.5l-45 -180h-166l49 196q-147 38 -226 152.5t-79 288.5q0 83 22 169.5t69.5 170.5t114 150.5t163.5 110t209 48.5l45 180h166l-49 -192
q146 -32 226.5 -131t80.5 -242q0 -37 -4 -55zM434 586q0 -145 72 -205l153 618q-69 -27 -122.5 -102t-78 -157t-24.5 -154z" />
    <glyph glyph-name="sterling" unicode="&#xa3;" 
d="M1282 969h-287q6 30 6 57q0 69 -35.5 105t-103.5 36q-165 0 -221 -219l-35 -141h250l-59 -240h-250l-15 -53q-28 -112 -71.5 -172.5t-122.5 -99.5v-4h749l-59 -238h-1108l60 242q93 0 154.5 61.5t96.5 206.5l15 57h-185l60 240h184l49 194q103 412 537 412
q192 0 297.5 -90t105.5 -252q0 -47 -12 -102z" />
    <glyph glyph-name="currency" unicode="&#xa4;" 
d="M1067 596q0 -135 -61 -238l147 -155l-178 -166l-146 158q-98 -45 -215 -45t-215 45l-145 -158l-178 166l147 155q-61 103 -61 238t61 238l-147 155l178 166l145 -158q98 45 215 45t215 -45l146 158l178 -166l-147 -155q61 -103 61 -238zM614 367q100 0 161 63t61 166
t-61 166t-161 63t-160.5 -63t-60.5 -166t60.5 -166t160.5 -63z" />
    <glyph glyph-name="yen" unicode="&#xa5;" 
d="M891 711h250l-35 -144h-328l-20 -82h327l-36 -143h-326l-86 -342h-303l86 342h-330l37 143h328l20 82h-328l35 144h252l-192 669h305l45 -196q52 -232 74 -371h4q126 213 241 371l144 196h362z" />
    <glyph glyph-name="brokenbar" unicode="&#xa6;" horiz-adv-x="602" 
d="M430 782h-258v717h258v-717zM430 -420h-258v717h258v-717z" />
    <glyph glyph-name="section" unicode="&#xa7;" horiz-adv-x="1323" 
d="M866 1491q400 0 400 -315q0 -41 -4 -66h-287q2 10 2 29q0 58 -37.5 89.5t-110.5 31.5q-63 0 -105 -34.5t-42 -90.5q0 -45 38.5 -74.5t160.5 -89.5q66 -32 104 -53t85.5 -55t72 -66.5t42 -80t17.5 -104.5q0 -251 -270 -391v-4q53 -56 53 -151q0 -52 -18.5 -105t-59 -103.5
t-97.5 -89.5t-140 -63t-181 -24q-203 0 -314.5 73.5t-111.5 222.5q0 36 9 80h288q-2 -10 -2 -30q0 -115 146 -115q78 0 130 34.5t52 94.5q0 51 -47 88t-197 117q-55 29 -90.5 50.5t-75.5 53t-62.5 63.5t-38 76.5t-15.5 96.5q0 111 67 213t203 172v4q-47 55 -47 137
q0 65 31 130.5t89 121.5t153 91.5t210 35.5zM758 733l-185 101q-58 -26 -91 -74t-33 -105t38.5 -100.5t135.5 -99.5q16 -9 163 -95q59 25 93 77t34 102q0 56 -35 102t-120 92z" />
    <glyph glyph-name="dieresis" unicode="&#xa8;" horiz-adv-x="903" 
d="M528 1212h-252l62 246h252zM973 1212h-252l61 246h252z" />
    <glyph glyph-name="copyright" unicode="&#xa9;" horiz-adv-x="1642" 
d="M821 1487q219 0 386.5 -94t259.5 -266.5t92 -397.5t-92 -397.5t-259.5 -266.5t-386.5 -94q-164 0 -301.5 55t-233 153.5t-149 239.5t-53.5 310t53.5 310t149 239.5t233 153.5t301.5 55zM821 1374q-283 0 -454.5 -177t-171.5 -468t171.5 -468t454.5 -177t456 177.5
t173 467.5t-173 467.5t-456 177.5zM825 1202q174 0 279 -94t113 -252h-199q-6 84 -56.5 134t-136.5 50q-102 0 -160.5 -83.5t-58.5 -229.5q0 -142 58.5 -225.5t156.5 -83.5q85 0 138.5 51.5t62.5 138.5h201q-13 -165 -121 -258.5t-281 -93.5q-192 0 -302.5 126.5
t-110.5 344.5q0 221 111 348t306 127z" />
    <glyph glyph-name="ordfeminine" unicode="&#xaa;" horiz-adv-x="845" 
d="M602 1427q307 0 307 -233q0 -44 -12 -96l-53 -215q-35 -136 -29 -207h-219q0 46 10 82h-4q-107 -101 -250 -101q-108 0 -166.5 54t-58.5 145q0 95 80 165.5t270 96.5q117 16 193 19l4 14q6 21 6 43q0 80 -92 80q-46 0 -77.5 -25.5t-41.5 -74.5h-238q25 109 122 181
t249 72zM627 963l10 43q-68 -3 -137 -17q-123 -21 -123 -102q0 -33 21.5 -51.5t62.5 -18.5q64 0 106 39t60 107z" />
    <glyph glyph-name="guillemetleft" unicode="&#xab;" horiz-adv-x="1089" 
d="M350 512l121 -401h-238l-141 417l322 402h262zM776 512l121 -401h-238l-141 417l322 402h262z" />
    <glyph glyph-name="logicalnot" unicode="&#xac;" horiz-adv-x="1159" 
d="M1028 270h-221v453h-676v223h897v-676z" />
    <glyph glyph-name="softhyphen" unicode="&#xad;" horiz-adv-x="655" 
d="M586 485h-533l56 226h532z" />
    <glyph glyph-name="registered" unicode="&#xae;" horiz-adv-x="1212" 
d="M715 1491q232 0 373 -145t141 -383t-141 -383.5t-373 -145.5t-373 145.5t-141 383.5t141 383t373 145zM715 1417q-198 0 -319.5 -125t-121.5 -329t121.5 -329.5t319.5 -125.5t319 125.5t121 329.5t-121 329t-319 125zM469 1294h262q112 0 168.5 -48.5t56.5 -135.5
q0 -58 -31.5 -101.5t-86.5 -56.5v-4q32 -9 53 -34t41 -80l67 -187h-147l-55 158q-15 49 -41 68.5t-74 19.5h-74v-246h-139v647zM608 1182v-178h88q123 0 123 94q0 39 -30 61.5t-87 22.5h-94z" />
    <glyph glyph-name="macron" unicode="&#xaf;" horiz-adv-x="874" 
d="M948 1225h-667l45 186h667z" />
    <glyph glyph-name="degree" unicode="&#xb0;" horiz-adv-x="694" 
d="M516 1479q114 0 195.5 -81t81.5 -196t-81.5 -195.5t-195.5 -80.5q-116 0 -197 80.5t-81 195.5t81 196t197 81zM516 1335q-56 0 -94.5 -38.5t-38.5 -94.5t38.5 -94.5t94.5 -38.5t94.5 38.5t38.5 94.5t-38.5 94.5t-94.5 38.5z" />
    <glyph glyph-name="plusminus" unicode="&#xb1;" horiz-adv-x="1159" 
d="M690 842h338v-224h-338v-317h-221v317h-338v224h338v317h221v-317zM1028 0h-897v223h897v-223z" />
    <glyph glyph-name="twosuperior" unicode="&#xb2;" horiz-adv-x="935" 
d="M717 1665q159 0 247.5 -70.5t88.5 -189.5q0 -111 -80 -199.5t-250 -161.5q-139 -59 -188.5 -92.5t-63.5 -72.5h481l-47 -203h-790q21 128 71 216.5t130.5 151.5t211.5 123q145 66 205 112.5t60 106.5q0 40 -24.5 62t-70.5 22q-116 0 -151 -141h-258q40 162 151 249
t277 87z" />
    <glyph glyph-name="threesuperior" unicode="&#xb3;" horiz-adv-x="925" 
d="M711 1665q163 0 253.5 -67t90.5 -185q0 -84 -55 -150t-173 -102v-2q131 -55 131 -190q0 -44 -16 -88.5t-49.5 -85.5t-81 -72.5t-116.5 -50.5t-150 -19q-181 0 -276 69.5t-95 201.5q0 40 8 73h254q-6 -24 -6 -49q0 -100 125 -100q70 0 112 38.5t42 82.5q0 98 -150 98h-27
l46 188h30q92 0 142.5 38t50.5 89q0 42 -28 65t-83 23q-127 0 -162 -143h-252q37 160 151.5 249t283.5 89z" />
    <glyph glyph-name="acute" unicode="&#xb4;" horiz-adv-x="716" 
d="M500 1159h-238l219 299h367z" />
    <glyph glyph-name="micro" unicode="&#xb5;" horiz-adv-x="1255" 
d="M1225 1040l-172 -696q-13 -50 -13 -74q0 -63 68 -63q24 0 51 6l-53 -215q-52 -14 -125 -14q-185 0 -197 166h-4q-42 -74 -124 -118t-175 -44q-118 0 -172 69l-108 -436h-287l354 1419h287l-149 -598q-13 -60 -13 -94q0 -147 148 -147q87 0 156.5 72.5t103.5 209.5
l137 557h287z" />
    <glyph glyph-name="paragraph" unicode="&#xb6;" horiz-adv-x="1343" 
d="M1479 1262h-164l-375 -1508h-211l375 1508h-168l-375 -1508h-211l209 840q-344 52 -344 401q0 80 30 160.5t84.5 149t142.5 111t194 42.5h862z" />
    <glyph glyph-name="periodcentered" unicode="&#xb7;" horiz-adv-x="528" 
d="M406 455h-316l84 342h315z" />
    <glyph glyph-name="cedilla" unicode="&#xb8;" horiz-adv-x="681" 
d="M295 0l-109 -123q18 6 47 6q63 0 104.5 -38.5t41.5 -104.5q0 -86 -83.5 -144.5t-205.5 -58.5q-123 0 -217 62l51 92q78 -45 162 -45q52 0 84.5 22.5t32.5 59.5q0 32 -20.5 49.5t-57.5 17.5q-35 0 -70 -12l-41 37l160 180h121z" />
    <glyph glyph-name="onesuperior" unicode="&#xb9;" horiz-adv-x="649" 
d="M559 676h-254l154 616h-244l45 183q129 0 202.5 39t110.5 128h228z" />
    <glyph glyph-name="ordmasculine" unicode="&#xba;" horiz-adv-x="905" 
d="M625 1427q171 0 265.5 -88.5t94.5 -246.5q0 -75 -29 -150.5t-82 -141t-141 -106.5t-194 -41q-171 0 -265 89t-94 247q0 59 17.5 119.5t54 118t88 102t125.5 71.5t160 27zM614 1241q-45 0 -81 -26t-57 -66.5t-31.5 -83.5t-10.5 -82q0 -145 115 -145q45 0 81 26t57 66.5
t31.5 83.5t10.5 82q0 145 -115 145z" />
    <glyph glyph-name="guillemetright" unicode="&#xbb;" horiz-adv-x="1089" 
d="M313 528l-120 402h237l141 -418l-321 -401h-262zM739 528l-121 402h238l141 -418l-321 -401h-262z" />
    <glyph glyph-name="onequarter" unicode="&#xbc;" horiz-adv-x="1650" 
d="M1411 1380l-1100 -1380h-186l1100 1380h186zM369 1069h-211l39 166q114 0 177.5 34t94.5 111h209l-207 -827h-233zM1542 164h-137l-41 -164h-227l41 164h-412l47 194l447 469h311l-123 -491h135zM1012 336h217l20 86q27 118 70 233h-4q-62 -71 -191 -204z" />
    <glyph glyph-name="onehalf" unicode="&#xbd;" horiz-adv-x="1708" 
d="M311 0h-186l1100 1380h186zM471 553h-233l131 516h-211l39 166q114 0 177.5 34t94.5 111h209zM1341 848q142 0 221.5 -61.5t79.5 -163.5q0 -191 -288 -306q-121 -48 -162.5 -74.5t-52.5 -58.5h422l-43 -184h-705q27 165 108.5 259.5t249.5 166.5q131 58 182.5 94t51.5 86
q0 31 -20 49.5t-58 18.5q-102 0 -129 -119h-237q34 141 133 217t247 76z" />
    <glyph glyph-name="threequarters" unicode="&#xbe;" horiz-adv-x="1896" 
d="M825 805q0 -48 -23 -95.5t-66.5 -87.5t-115.5 -65t-161 -25q-163 0 -247.5 60t-84.5 176q0 28 6 63h234q-5 -35 -5 -40q0 -82 107 -82q60 0 94.5 30.5t34.5 65.5q0 80 -127 80h-25l41 168h29q77 0 118.5 30t41.5 72q0 34 -24.5 53t-69.5 19q-110 0 -138 -117h-229
q31 137 132 214t253 77q147 0 227 -57.5t80 -159.5q0 -154 -196 -215v-4q114 -42 114 -160zM1657 1380l-1100 -1380h-186l1099 1380h187zM1788 164h-137l-41 -164h-228l41 164h-411l47 194l446 469h312l-123 -491h135zM1257 336h218l20 86q27 118 70 233h-4
q-62 -71 -191 -204z" />
    <glyph glyph-name="questiondown" unicode="&#xbf;" horiz-adv-x="1058" 
d="M555 1040h315l-67 -270h-316zM387 -449q-215 0 -332.5 97t-117.5 270q0 109 61.5 198.5t228.5 202.5q132 89 183 153t84 187h243q-38 -186 -94 -272t-207 -194q-88 -63 -134.5 -113.5t-58.5 -81.5t-12 -70q0 -129 162 -129q93 0 151.5 50.5t86.5 156.5h299
q-53 -224 -193.5 -339.5t-349.5 -115.5z" />
    <glyph glyph-name="Agrave" unicode="&#xc0;" horiz-adv-x="1429" 
d="M934 1556l-223 299h342l94 -299h-213zM975 356h-559l-203 -356h-336l868 1458h406l143 -1458h-295zM956 614l-6 97q-21 326 -26 569h-4q-132 -264 -304 -569l-55 -97h395z" />
    <glyph glyph-name="Aacute" unicode="&#xc1;" horiz-adv-x="1429" 
d="M1036 1556h-237l221 299h366zM1151 1458l143 -1458h-295l-24 356h-559l-203 -356h-336l868 1458h406zM956 614l-6 97q-21 326 -26 569h-4q-132 -264 -304 -569l-55 -97h395z" />
    <glyph glyph-name="Acircumflex" unicode="&#xc2;" horiz-adv-x="1429" 
d="M877 1556h-291l309 299h305l158 -299h-234l-86 156zM1151 1458l143 -1458h-295l-24 356h-559l-203 -356h-336l868 1458h406zM956 614l-6 97q-21 326 -26 569h-4q-132 -264 -304 -569l-55 -97h395z" />
    <glyph glyph-name="Atilde" unicode="&#xc3;" horiz-adv-x="1429" 
d="M1274 1855h160q-37 -129 -113.5 -202.5t-179.5 -73.5q-47 0 -87.5 14.5t-64.5 32.5t-55 32.5t-60 14.5q-82 0 -116 -94h-164q36 129 113 202.5t180 73.5q47 0 87.5 -14.5t64.5 -32.5t54.5 -32.5t59.5 -14.5q45 0 73.5 23t47.5 71zM1151 1458l143 -1458h-295l-24 356h-559
l-203 -356h-336l868 1458h406zM956 614l-6 97q-21 326 -26 569h-4q-132 -264 -304 -569l-55 -97h395z" />
    <glyph glyph-name="Adieresis" unicode="&#xc4;" horiz-adv-x="1429" 
d="M881 1575h-252l61 246h252zM1386 1821l-61 -246h-252l62 246h251zM1151 1458l143 -1458h-295l-24 356h-559l-203 -356h-336l868 1458h406zM956 614l-6 97q-21 326 -26 569h-4q-132 -264 -304 -569l-55 -97h395z" />
    <glyph glyph-name="Aring" unicode="&#xc5;" horiz-adv-x="1429" 
d="M1001 1536q-92 0 -156.5 64.5t-64.5 156.5t64.5 156.5t156.5 64.5t157 -64.5t65 -156.5t-65 -156.5t-157 -64.5zM1001 1868q-46 0 -78 -32.5t-32 -78.5t32 -78t78 -32t78.5 32t32.5 78t-32.5 78.5t-78.5 32.5zM975 356h-559l-203 -356h-336l868 1458h406l143 -1458h-295z
M956 614l-6 97q-21 326 -26 569h-4q-132 -264 -304 -569l-55 -97h395z" />
    <glyph glyph-name="AE" unicode="&#xc6;" horiz-adv-x="1976" 
d="M1346 1200l-35 -330h585l-65 -256h-549l-37 -356h563l-63 -258h-805l39 367h-520l-250 -367h-350l1042 1458h1188l-64 -258h-679zM1067 1219h-29l-407 -598h373z" />
    <glyph glyph-name="Ccedilla" unicode="&#xc7;" horiz-adv-x="1437" 
d="M1444 924h-303q4 36 4 57q0 114 -64.5 179t-179.5 65q-91 0 -169.5 -41t-133 -108t-93 -152t-57 -173.5t-18.5 -172.5q0 -159 68 -252t198 -93q112 0 206.5 66.5t139.5 183.5h310q-72 -232 -240 -367t-395 -147l-80 -92q18 6 47 6q63 0 104 -38.5t41 -104.5
q0 -86 -83 -144.5t-205 -58.5q-123 0 -217 62l51 92q78 -45 162 -45q52 0 84 22.5t32 59.5q0 32 -20.5 49.5t-57.5 17.5q-35 0 -69 -12l-41 37l133 151q-229 22 -354 177t-125 409q0 105 22.5 213t65.5 213t112 196.5t156 161t204 110t249 40.5q242 0 383 -129.5t141 -347.5
q0 -49 -8 -90z" />
    <glyph glyph-name="Egrave" unicode="&#xc8;" horiz-adv-x="1296" 
d="M1083 1556h-213l-223 299h342zM1346 1200h-707l-82 -330h660l-66 -256h-659l-89 -356h725l-63 -258h-1026l362 1458h1008z" />
    <glyph glyph-name="Eacute" unicode="&#xc9;" horiz-adv-x="1296" 
d="M973 1556h-238l221 299h367zM1346 1200h-707l-82 -330h660l-66 -256h-659l-89 -356h725l-63 -258h-1026l362 1458h1008z" />
    <glyph glyph-name="Ecircumflex" unicode="&#xca;" horiz-adv-x="1296" 
d="M831 1855h306l157 -299h-233l-86 156l-162 -156h-291zM1346 1200h-707l-82 -330h660l-66 -256h-659l-89 -356h725l-63 -258h-1026l362 1458h1008z" />
    <glyph glyph-name="Edieresis" unicode="&#xcb;" horiz-adv-x="1296" 
d="M817 1575h-252l62 246h252zM1262 1575h-252l61 246h252zM1346 1200h-707l-82 -330h660l-66 -256h-659l-89 -356h725l-63 -258h-1026l362 1458h1008z" />
    <glyph glyph-name="Igrave" unicode="&#xcc;" horiz-adv-x="636" 
d="M752 1556h-213l-224 299h342zM340 0h-301l362 1458h301z" />
    <glyph glyph-name="Iacute" unicode="&#xcd;" horiz-adv-x="636" 
d="M641 1556h-238l222 299h366zM340 0h-301l362 1458h301z" />
    <glyph glyph-name="Icircumflex" unicode="&#xce;" horiz-adv-x="636" 
d="M500 1855h305l158 -299h-234l-86 156l-162 -156h-291zM340 0h-301l362 1458h301z" />
    <glyph glyph-name="Idieresis" unicode="&#xcf;" horiz-adv-x="636" 
d="M485 1575h-252l62 246h252zM930 1575h-252l61 246h252zM340 0h-301l362 1458h301z" />
    <glyph glyph-name="Eth" unicode="&#xd0;" horiz-adv-x="1505" 
d="M401 1458h383q344 0 520.5 -160.5t176.5 -466.5q0 -97 -23 -194t-69 -190.5t-121 -174t-171 -141.5t-227.5 -96t-283.5 -35h-547l156 629h-132l56 217h131zM401 258h203q121 0 219.5 34.5t161.5 90.5t105.5 129.5t60.5 148.5t18 152q0 194 -98.5 290.5t-300.5 96.5h-133
l-88 -354h340l-55 -217h-340z" />
    <glyph glyph-name="Ntilde" unicode="&#xd1;" horiz-adv-x="1589" 
d="M1354 1855h159q-37 -129 -113 -202.5t-179 -73.5q-47 0 -87.5 14.5t-64.5 32.5t-55 32.5t-60 14.5q-82 0 -116 -94h-164q36 129 113 202.5t180 73.5q47 0 87.5 -14.5t64.5 -32.5t54.5 -32.5t59.5 -14.5q45 0 73.5 23t47.5 71zM1292 0h-403l-148 592q-79 323 -135 602h-4
q-67 -362 -135 -633l-139 -561h-289l362 1458h404l147 -592q57 -236 135 -602h5q56 316 135 633l139 561h289z" />
    <glyph glyph-name="Ograve" unicode="&#xd2;" horiz-adv-x="1531" 
d="M1149 1556h-213l-223 299h342zM918 1491q281 0 437 -167.5t156 -455.5q0 -125 -31 -251t-96.5 -243.5t-157.5 -207.5t-224 -144.5t-285 -54.5q-281 0 -436.5 167.5t-155.5 455.5q0 125 31 251t96.5 243.5t157 207.5t223.5 144.5t285 54.5zM905 1225q-113 0 -207 -60.5
t-151 -155.5t-88 -203.5t-31 -213.5q0 -168 78.5 -263.5t222.5 -95.5q91 0 171 40t135 105.5t95 149t59 170.5t19 170q0 166 -79 261.5t-224 95.5z" />
    <glyph glyph-name="Oacute" unicode="&#xd3;" horiz-adv-x="1531" 
d="M1038 1556h-237l221 299h367zM918 1491q281 0 437 -167.5t156 -455.5q0 -125 -31 -251t-96.5 -243.5t-157.5 -207.5t-224 -144.5t-285 -54.5q-281 0 -436.5 167.5t-155.5 455.5q0 125 31 251t96.5 243.5t157 207.5t223.5 144.5t285 54.5zM905 1225q-113 0 -207 -60.5
t-151 -155.5t-88 -203.5t-31 -213.5q0 -168 78.5 -263.5t222.5 -95.5q91 0 171 40t135 105.5t95 149t59 170.5t19 170q0 166 -79 261.5t-224 95.5z" />
    <glyph glyph-name="Ocircumflex" unicode="&#xd4;" horiz-adv-x="1531" 
d="M897 1855h305l158 -299h-234l-86 156l-161 -156h-291zM918 1491q281 0 437 -167.5t156 -455.5q0 -125 -31 -251t-96.5 -243.5t-157.5 -207.5t-224 -144.5t-285 -54.5q-281 0 -436.5 167.5t-155.5 455.5q0 125 31 251t96.5 243.5t157 207.5t223.5 144.5t285 54.5z
M905 1225q-113 0 -207 -60.5t-151 -155.5t-88 -203.5t-31 -213.5q0 -168 78.5 -263.5t222.5 -95.5q91 0 171 40t135 105.5t95 149t59 170.5t19 170q0 166 -79 261.5t-224 95.5z" />
    <glyph glyph-name="Otilde" unicode="&#xd5;" horiz-adv-x="1531" 
d="M1276 1855h160q-37 -129 -113.5 -202.5t-179.5 -73.5q-47 0 -87.5 14.5t-64 32.5t-54.5 32.5t-60 14.5q-83 0 -117 -94h-164q36 129 113 202.5t180 73.5q47 0 87.5 -14.5t64.5 -32.5t54.5 -32.5t59.5 -14.5q45 0 73.5 23t47.5 71zM918 1491q281 0 437 -167.5t156 -455.5
q0 -125 -31 -251t-96.5 -243.5t-157.5 -207.5t-224 -144.5t-285 -54.5q-281 0 -436.5 167.5t-155.5 455.5q0 125 31 251t96.5 243.5t157 207.5t223.5 144.5t285 54.5zM905 1225q-113 0 -207 -60.5t-151 -155.5t-88 -203.5t-31 -213.5q0 -168 78.5 -263.5t222.5 -95.5
q91 0 171 40t135 105.5t95 149t59 170.5t19 170q0 166 -79 261.5t-224 95.5z" />
    <glyph glyph-name="Odieresis" unicode="&#xd6;" horiz-adv-x="1531" 
d="M883 1575h-252l61 246h252zM1327 1575h-252l62 246h252zM918 1491q281 0 437 -167.5t156 -455.5q0 -125 -31 -251t-96.5 -243.5t-157.5 -207.5t-224 -144.5t-285 -54.5q-281 0 -436.5 167.5t-155.5 455.5q0 125 31 251t96.5 243.5t157 207.5t223.5 144.5t285 54.5z
M905 1225q-113 0 -207 -60.5t-151 -155.5t-88 -203.5t-31 -213.5q0 -168 78.5 -263.5t222.5 -95.5q91 0 171 40t135 105.5t95 149t59 170.5t19 170q0 166 -79 261.5t-224 95.5z" />
    <glyph glyph-name="multiply" unicode="&#xd7;" horiz-adv-x="1159" 
d="M1116 1008l-379 -379l379 -379l-158 -158l-378 379l-377 -379l-160 158l379 379l-379 379l160 155l377 -377l378 377z" />
    <glyph glyph-name="Oslash" unicode="&#xd8;" horiz-adv-x="1531" 
d="M1577 1380l-152 -151q86 -148 86 -361q0 -125 -31 -251t-96.5 -243.5t-157.5 -207.5t-224 -144.5t-285 -54.5q-256 0 -410 142l-137 -140l-109 109l150 149q-86 148 -86 363q0 125 31 251t96.5 243.5t157 207.5t223.5 144.5t285 54.5q254 0 411 -141l139 139zM416 592
q0 -72 16 -141l696 698q-83 92 -223 92q-116 0 -212 -62.5t-154.5 -160t-90.5 -209t-32 -217.5zM1221 868q0 68 -17 138l-696 -699q84 -90 221 -90q93 0 175 41.5t138.5 109t98 153t61 174.5t19.5 173z" />
    <glyph glyph-name="Ugrave" unicode="&#xd9;" horiz-adv-x="1470" 
d="M1147 1556h-213l-223 299h342zM1548 1458l-245 -987q-61 -245 -228 -374.5t-416 -129.5q-243 0 -372 123t-129 352q0 92 26 199l205 817h301l-215 -866q-18 -74 -18 -131q0 -228 227 -228q126 0 212.5 79.5t123.5 230.5l227 915h301z" />
    <glyph glyph-name="Uacute" unicode="&#xda;" horiz-adv-x="1470" 
d="M1036 1556h-237l221 299h366zM1548 1458l-245 -987q-61 -245 -228 -374.5t-416 -129.5q-243 0 -372 123t-129 352q0 92 26 199l205 817h301l-215 -866q-18 -74 -18 -131q0 -228 227 -228q126 0 212.5 79.5t123.5 230.5l227 915h301z" />
    <glyph glyph-name="Ucircumflex" unicode="&#xdb;" horiz-adv-x="1470" 
d="M895 1855h305l158 -299h-234l-86 156l-161 -156h-291zM1548 1458l-245 -987q-61 -245 -228 -374.5t-416 -129.5q-243 0 -372 123t-129 352q0 92 26 199l205 817h301l-215 -866q-18 -74 -18 -131q0 -228 227 -228q126 0 212.5 79.5t123.5 230.5l227 915h301z" />
    <glyph glyph-name="Udieresis" unicode="&#xdc;" horiz-adv-x="1470" 
d="M881 1575h-252l61 246h252zM1325 1575h-252l62 246h251zM1548 1458l-245 -987q-61 -245 -228 -374.5t-416 -129.5q-243 0 -372 123t-129 352q0 92 26 199l205 817h301l-215 -866q-18 -74 -18 -131q0 -228 227 -228q126 0 212.5 79.5t123.5 230.5l227 915h301z" />
    <glyph glyph-name="Yacute" unicode="&#xdd;" horiz-adv-x="1306" 
d="M922 1556h-238l221 299h367zM815 567l-141 -567h-301l141 567l-276 891h305l71 -274q42 -163 80 -371h4q117 184 260 371l207 274h369z" />
    <glyph glyph-name="Thorn" unicode="&#xde;" horiz-adv-x="1300" 
d="M641 1219h168q249 0 374.5 -108t125.5 -302q0 -72 -20.5 -145t-67 -143.5t-113 -124.5t-167.5 -87t-222 -33h-311l-68 -276h-301l362 1458h301zM580 969l-111 -443h250q75 0 131 21.5t87 57.5t45.5 76.5t14.5 84.5q0 203 -229 203h-188z" />
    <glyph glyph-name="germandbls" unicode="&#xdf;" horiz-adv-x="1177" 
d="M803 1491q185 0 289 -83t104 -226q0 -59 -19.5 -115.5t-58 -108t-104.5 -92t-152 -61.5v-4q228 -71 228 -312q0 -71 -22.5 -141.5t-69 -135t-111 -114t-156 -79t-196.5 -29.5q-64 0 -117 16l55 225q16 -4 43 -4q60 0 109.5 17.5t81 45t53 64.5t30.5 74t9 74
q0 180 -205 180h-8l57 236q63 0 112.5 14t78.5 35.5t47.5 50.5t25 55.5t6.5 54.5q0 136 -137 136q-86 0 -140 -57.5t-85 -182.5l-254 -1024h-287l264 1061q51 204 189.5 317t339.5 113z" />
    <glyph glyph-name="agrave" unicode="&#xe0;" horiz-adv-x="1120" 
d="M752 1458l96 -299h-213l-225 299h342zM637 1073q399 0 399 -323q0 -64 -18 -138l-82 -327q-46 -182 -43 -285h-250q0 64 16 121h-4q-149 -146 -350 -146q-150 0 -230.5 75.5t-80.5 201.5q0 49 13 92.5t46.5 88.5t85.5 80.5t136 64.5t192 45q146 20 283 28l6 25
q10 42 10 67q0 129 -148 129q-76 0 -127.5 -41.5t-66.5 -115.5h-279q34 156 164 257t328 101zM690 412l17 65q-120 -8 -215 -22q-201 -33 -201 -164q0 -52 34 -81.5t97 -29.5q103 0 171.5 60t96.5 172z" />
    <glyph glyph-name="aacute" unicode="&#xe1;" horiz-adv-x="1120" 
d="M737 1159h-237l219 299h366zM637 1073q399 0 399 -323q0 -64 -18 -138l-82 -327q-46 -182 -43 -285h-250q0 64 16 121h-4q-149 -146 -350 -146q-150 0 -230.5 75.5t-80.5 201.5q0 49 13 92.5t46.5 88.5t85.5 80.5t136 64.5t192 45q146 20 283 28l6 25q10 42 10 67
q0 129 -148 129q-76 0 -127.5 -41.5t-66.5 -115.5h-279q34 156 164 257t328 101zM690 412l17 65q-120 -8 -215 -22q-201 -33 -201 -164q0 -52 34 -81.5t97 -29.5q103 0 171.5 60t96.5 172z" />
    <glyph glyph-name="acircumflex" unicode="&#xe2;" horiz-adv-x="1120" 
d="M1059 1159h-242l-86 156l-162 -156h-282l307 299h305zM637 1073q399 0 399 -323q0 -64 -18 -138l-82 -327q-46 -182 -43 -285h-250q0 64 16 121h-4q-149 -146 -350 -146q-150 0 -230.5 75.5t-80.5 201.5q0 49 13 92.5t46.5 88.5t85.5 80.5t136 64.5t192 45q146 20 283 28
l6 25q10 42 10 67q0 129 -148 129q-76 0 -127.5 -41.5t-66.5 -115.5h-279q34 156 164 257t328 101zM690 412l17 65q-120 -8 -215 -22q-201 -33 -201 -164q0 -52 34 -81.5t97 -29.5q103 0 171.5 60t96.5 172z" />
    <glyph glyph-name="atilde" unicode="&#xe3;" horiz-adv-x="1120" 
d="M973 1458h160q-37 -129 -113.5 -202.5t-179.5 -73.5q-47 0 -87.5 14.5t-63.5 32.5t-54 32.5t-60 14.5q-82 0 -116 -94h-164q36 129 113 202.5t180 73.5q47 0 87.5 -14.5t64 -32.5t53.5 -32.5t59 -14.5q45 0 73.5 23t47.5 71zM637 1073q399 0 399 -323q0 -64 -18 -138
l-82 -327q-46 -182 -43 -285h-250q0 64 16 121h-4q-149 -146 -350 -146q-150 0 -230.5 75.5t-80.5 201.5q0 49 13 92.5t46.5 88.5t85.5 80.5t136 64.5t192 45q146 20 283 28l6 25q10 42 10 67q0 129 -148 129q-76 0 -127.5 -41.5t-66.5 -115.5h-279q34 156 164 257t328 101z
M690 412l17 65q-120 -8 -215 -22q-201 -33 -201 -164q0 -52 34 -81.5t97 -29.5q103 0 171.5 60t96.5 172z" />
    <glyph glyph-name="adieresis" unicode="&#xe4;" horiz-adv-x="1120" 
d="M590 1212h-252l61 246h252zM1034 1212h-252l62 246h252zM637 1073q399 0 399 -323q0 -64 -18 -138l-82 -327q-46 -182 -43 -285h-250q0 64 16 121h-4q-149 -146 -350 -146q-150 0 -230.5 75.5t-80.5 201.5q0 49 13 92.5t46.5 88.5t85.5 80.5t136 64.5t192 45
q146 20 283 28l6 25q10 42 10 67q0 129 -148 129q-76 0 -127.5 -41.5t-66.5 -115.5h-279q34 156 164 257t328 101zM690 412l17 65q-120 -8 -215 -22q-201 -33 -201 -164q0 -52 34 -81.5t97 -29.5q103 0 171.5 60t96.5 172z" />
    <glyph glyph-name="aring" unicode="&#xe5;" horiz-adv-x="1120" 
d="M702 1581q92 0 157 -64.5t65 -156.5t-65 -156.5t-157 -64.5t-156.5 64.5t-64.5 156.5t64.5 156.5t156.5 64.5zM702 1470q-46 0 -78 -32t-32 -78t32 -78.5t78 -32.5t78.5 32.5t32.5 78.5t-32.5 78t-78.5 32zM637 1073q399 0 399 -323q0 -64 -18 -138l-82 -327
q-46 -182 -43 -285h-250q0 64 16 121h-4q-149 -146 -350 -146q-150 0 -230.5 75.5t-80.5 201.5q0 49 13 92.5t46.5 88.5t85.5 80.5t136 64.5t192 45q146 20 283 28l6 25q10 42 10 67q0 129 -148 129q-76 0 -127.5 -41.5t-66.5 -115.5h-279q34 156 164 257t328 101zM690 412
l17 65q-120 -8 -215 -22q-201 -33 -201 -164q0 -52 34 -81.5t97 -29.5q103 0 171.5 60t96.5 172z" />
    <glyph glyph-name="ae" unicode="&#xe6;" horiz-adv-x="1800" 
d="M1714 461h-725q-8 -44 -8 -88q0 -104 49 -153.5t129 -49.5q74 0 131.5 40.5t79.5 104.5h293q-61 -149 -201.5 -248.5t-318.5 -99.5q-257 0 -357 189q-158 -189 -407 -189q-184 0 -283.5 80t-99.5 213q0 54 16.5 103.5t58.5 99.5t106.5 86.5t168.5 59t236 22.5h180l8 33
q10 45 10 69q0 139 -157 139q-79 0 -132.5 -41.5t-68.5 -115.5h-279q34 156 163.5 257t324.5 101q244 0 336 -127q147 127 342 127q210 0 320 -114t110 -310q0 -77 -25 -188zM1292 870q-83 0 -151.5 -57.5t-106.5 -171.5h434q5 40 5 45q0 92 -49.5 138t-131.5 46zM721 461
h-150q-284 0 -284 -170q0 -56 37 -87.5t110 -31.5q111 0 178.5 63.5t100.5 192.5z" />
    <glyph glyph-name="ccedilla" unicode="&#xe7;" horiz-adv-x="1150" 
d="M1110 633h-299q4 20 4 39q0 85 -41.5 132.5t-114.5 47.5q-70 0 -129 -44t-95 -111t-55.5 -138.5t-19.5 -132.5q0 -114 44 -176t128 -62q76 0 138 54t90 145h301q-54 -175 -187 -288t-305 -130l-82 -92q18 6 48 6q63 0 104 -38.5t41 -104.5q0 -86 -83.5 -144.5
t-205.5 -58.5q-123 0 -217 62l51 92q78 -45 162 -45q52 0 84.5 22.5t32.5 59.5q0 32 -20.5 49.5t-57.5 17.5q-35 0 -70 -12l-41 37l134 151q-181 19 -281 137.5t-100 315.5q0 85 23.5 173.5t73 174t119.5 152.5t172 108t220 41q206 0 322 -105.5t116 -279.5q0 -37 -4 -55z
" />
    <glyph glyph-name="egrave" unicode="&#xe8;" horiz-adv-x="1173" 
d="M666 1159l-226 299h342l97 -299h-213zM1087 461h-745q-8 -44 -8 -88q0 -104 52 -153.5t136 -49.5q77 0 137 40.5t84 104.5h293q-63 -149 -206 -248.5t-324 -99.5q-217 0 -330 117.5t-113 323.5q0 88 24 179.5t75 178.5t121 155.5t171.5 110t217.5 41.5q215 0 327.5 -114
t112.5 -310q0 -77 -25 -188zM655 870q-87 0 -157.5 -57.5t-110.5 -171.5h455q4 32 4 45q0 92 -52 138t-139 46z" />
    <glyph glyph-name="eacute" unicode="&#xe9;" horiz-adv-x="1173" 
d="M768 1159h-238l220 299h366zM672 1073q215 0 327.5 -114t112.5 -310q0 -77 -25 -188h-745q-8 -44 -8 -88q0 -104 52 -153.5t136 -49.5q77 0 137 40.5t84 104.5h293q-63 -149 -206 -248.5t-324 -99.5q-217 0 -330 117.5t-113 323.5q0 88 24 179.5t75 178.5t121 155.5
t171.5 110t217.5 41.5zM655 870q-87 0 -157.5 -57.5t-110.5 -171.5h455q4 32 4 45q0 92 -52 138t-139 46z" />
    <glyph glyph-name="ecircumflex" unicode="&#xea;" horiz-adv-x="1173" 
d="M600 1159h-283l308 299h305l160 -299h-242l-86 156zM1087 461h-745q-8 -44 -8 -88q0 -104 52 -153.5t136 -49.5q77 0 137 40.5t84 104.5h293q-63 -149 -206 -248.5t-324 -99.5q-217 0 -330 117.5t-113 323.5q0 88 24 179.5t75 178.5t121 155.5t171.5 110t217.5 41.5
q215 0 327.5 -114t112.5 -310q0 -77 -25 -188zM655 870q-87 0 -157.5 -57.5t-110.5 -171.5h455q4 32 4 45q0 92 -52 138t-139 46z" />
    <glyph glyph-name="edieresis" unicode="&#xeb;" horiz-adv-x="1173" 
d="M621 1212h-252l61 246h252zM1065 1212h-252l61 246h252zM672 1073q215 0 327.5 -114t112.5 -310q0 -77 -25 -188h-745q-8 -44 -8 -88q0 -104 52 -153.5t136 -49.5q77 0 137 40.5t84 104.5h293q-63 -149 -206 -248.5t-324 -99.5q-217 0 -330 117.5t-113 323.5
q0 88 24 179.5t75 178.5t121 155.5t171.5 110t217.5 41.5zM655 870q-87 0 -157.5 -57.5t-110.5 -171.5h455q4 32 4 45q0 92 -52 138t-139 46z" />
    <glyph glyph-name="igrave" unicode="&#xec;" horiz-adv-x="565" 
d="M520 1458l96 -299h-213l-225 299h342zM297 0h-287l258 1040h287z" />
    <glyph glyph-name="iacute" unicode="&#xed;" horiz-adv-x="565" 
d="M506 1159h-238l219 299h367zM297 0h-287l258 1040h287z" />
    <glyph glyph-name="icircumflex" unicode="&#xee;" horiz-adv-x="565" 
d="M797 1161h-226l-69 158l-148 -158h-268l285 297h288zM297 0h-287l258 1040h287z" />
    <glyph glyph-name="idieresis" unicode="&#xef;" horiz-adv-x="565" 
d="M403 1212h-251l61 246h252zM758 1212h-252l61 246h252zM297 0h-287l258 1040h287z" />
    <glyph glyph-name="eth" unicode="&#xf0;" horiz-adv-x="1208" 
d="M1153 1360l-227 -82q225 -291 225 -610q0 -96 -25 -193.5t-77.5 -189t-126 -162.5t-179.5 -113.5t-229 -42.5q-212 0 -330.5 121.5t-120.5 333.5q1 79 25 164t73 166t116.5 145t162.5 103.5t203 39.5q80 0 143 -24l2 4q-56 93 -116 164l-295 -107l-45 123l246 90
q-74 69 -91 84l234 117q61 -52 115 -109l272 101zM532 188q74 0 137 44t101 110.5t59 139.5t21 136q0 111 -46.5 172.5t-133.5 61.5q-72 0 -133 -45.5t-98 -115t-57.5 -144.5t-21.5 -141q2 -104 46 -161t126 -57z" />
    <glyph glyph-name="ntilde" unicode="&#xf1;" 
d="M1079 1458h160q-37 -129 -113.5 -202.5t-179.5 -73.5q-47 0 -87 14.5t-63.5 32.5t-54 32.5t-59.5 14.5q-83 0 -117 -94h-164q36 129 113 202.5t180 73.5q47 0 87.5 -14.5t64 -32.5t53.5 -32.5t59 -14.5q45 0 73.5 23t47.5 71zM825 1065q151 0 234.5 -78.5t83.5 -228.5
q0 -68 -21 -150l-151 -608h-287l150 602q14 57 14 107q0 131 -137 131q-92 0 -166.5 -73t-108.5 -210l-139 -557h-287l260 1040h269l-29 -114h4q139 139 311 139z" />
    <glyph glyph-name="ograve" unicode="&#xf2;" horiz-adv-x="1208" 
d="M801 1458l96 -299h-213l-225 299h342zM680 1073q222 0 341.5 -121t119.5 -338q0 -86 -24 -175t-75.5 -174t-122.5 -151t-174 -106.5t-221 -40.5q-221 0 -338.5 121t-117.5 338q0 86 24 175t75 174t121.5 151t172.5 106.5t219 40.5zM657 852q-73 0 -132.5 -43t-93.5 -109
t-51.5 -136.5t-17.5 -135.5q0 -114 47.5 -177t139.5 -63q73 0 132.5 43t93.5 109t51.5 136.5t17.5 135.5q0 114 -47.5 177t-139.5 63z" />
    <glyph glyph-name="oacute" unicode="&#xf3;" horiz-adv-x="1208" 
d="M786 1159h-237l219 299h367zM680 1073q222 0 341.5 -121t119.5 -338q0 -86 -24 -175t-75.5 -174t-122.5 -151t-174 -106.5t-221 -40.5q-221 0 -338.5 121t-117.5 338q0 86 24 175t75 174t121.5 151t172.5 106.5t219 40.5zM657 852q-73 0 -132.5 -43t-93.5 -109
t-51.5 -136.5t-17.5 -135.5q0 -114 47.5 -177t139.5 -63q73 0 132.5 43t93.5 109t51.5 136.5t17.5 135.5q0 114 -47.5 177t-139.5 63z" />
    <glyph glyph-name="ocircumflex" unicode="&#xf4;" horiz-adv-x="1208" 
d="M1108 1159h-242l-86 156l-162 -156h-282l307 299h305zM680 1073q222 0 341.5 -121t119.5 -338q0 -86 -24 -175t-75.5 -174t-122.5 -151t-174 -106.5t-221 -40.5q-221 0 -338.5 121t-117.5 338q0 86 24 175t75 174t121.5 151t172.5 106.5t219 40.5zM657 852
q-73 0 -132.5 -43t-93.5 -109t-51.5 -136.5t-17.5 -135.5q0 -114 47.5 -177t139.5 -63q73 0 132.5 43t93.5 109t51.5 136.5t17.5 135.5q0 114 -47.5 177t-139.5 63z" />
    <glyph glyph-name="otilde" unicode="&#xf5;" horiz-adv-x="1208" 
d="M1022 1458h160q-37 -129 -113.5 -202.5t-179.5 -73.5q-47 0 -87 14.5t-63.5 32.5t-54 32.5t-59.5 14.5q-83 0 -117 -94h-164q36 129 113 202.5t180 73.5q47 0 87.5 -14.5t64 -32.5t53.5 -32.5t59 -14.5q45 0 73.5 23t47.5 71zM680 1073q222 0 341.5 -121t119.5 -338
q0 -86 -24 -175t-75.5 -174t-122.5 -151t-174 -106.5t-221 -40.5q-221 0 -338.5 121t-117.5 338q0 86 24 175t75 174t121.5 151t172.5 106.5t219 40.5zM657 852q-73 0 -132.5 -43t-93.5 -109t-51.5 -136.5t-17.5 -135.5q0 -114 47.5 -177t139.5 -63q73 0 132.5 43t93.5 109
t51.5 136.5t17.5 135.5q0 114 -47.5 177t-139.5 63z" />
    <glyph glyph-name="odieresis" unicode="&#xf6;" horiz-adv-x="1208" 
d="M639 1212h-252l62 246h251zM1083 1212h-252l62 246h252zM680 1073q222 0 341.5 -121t119.5 -338q0 -86 -24 -175t-75.5 -174t-122.5 -151t-174 -106.5t-221 -40.5q-221 0 -338.5 121t-117.5 338q0 86 24 175t75 174t121.5 151t172.5 106.5t219 40.5zM657 852
q-73 0 -132.5 -43t-93.5 -109t-51.5 -136.5t-17.5 -135.5q0 -114 47.5 -177t139.5 -63q73 0 132.5 43t93.5 109t51.5 136.5t17.5 135.5q0 114 -47.5 177t-139.5 63z" />
    <glyph glyph-name="divide" unicode="&#xf7;" horiz-adv-x="1159" 
d="M700 903h-241v225h241v-225zM1028 537h-897v223h897v-223zM700 168h-241v225h241v-225z" />
    <glyph glyph-name="oslash" unicode="&#xf8;" horiz-adv-x="1208" 
d="M1194 1020l-125 -125q72 -113 72 -281q0 -86 -24 -175t-75.5 -174t-122.5 -151t-174 -106.5t-221 -40.5q-181 0 -297 86l-125 -125l-94 95l129 129q-69 106 -69 274q0 86 24 175t75 174t121.5 151t172.5 106.5t219 40.5q179 0 297 -82l123 123zM657 862q-63 0 -116 -29.5
t-88 -76.5t-60 -105.5t-36 -115t-11 -107.5q0 -23 4 -63l445 444q-50 53 -138 53zM549 178q63 0 116 29.5t88 76.5t60 105.5t36 115t11 107.5q0 38 -6 68l-446 -447q52 -55 141 -55z" />
    <glyph glyph-name="ugrave" unicode="&#xf9;" 
d="M831 1458l97 -299h-213l-226 299h342zM403 -25q-151 0 -234 79t-83 229q0 70 20 149l152 608h287l-150 -602q-14 -57 -14 -106q0 -131 137 -131q92 0 166.5 72.5t108.5 209.5l139 557h287l-261 -1040h-268l29 115h-4q-65 -65 -146 -102.5t-166 -37.5z" />
    <glyph glyph-name="uacute" unicode="&#xfa;" 
d="M817 1159h-237l219 299h366zM403 -25q-151 0 -234 79t-83 229q0 70 20 149l152 608h287l-150 -602q-14 -57 -14 -106q0 -131 137 -131q92 0 166.5 72.5t108.5 209.5l139 557h287l-261 -1040h-268l29 115h-4q-65 -65 -146 -102.5t-166 -37.5z" />
    <glyph glyph-name="ucircumflex" unicode="&#xfb;" 
d="M1139 1159h-242l-86 156l-162 -156h-282l307 299h305zM403 -25q-151 0 -234 79t-83 229q0 70 20 149l152 608h287l-150 -602q-14 -57 -14 -106q0 -131 137 -131q92 0 166.5 72.5t108.5 209.5l139 557h287l-261 -1040h-268l29 115h-4q-65 -65 -146 -102.5t-166 -37.5z" />
    <glyph glyph-name="udieresis" unicode="&#xfc;" 
d="M670 1212h-252l61 246h252zM1114 1212h-252l62 246h252zM403 -25q-151 0 -234 79t-83 229q0 70 20 149l152 608h287l-150 -602q-14 -57 -14 -106q0 -131 137 -131q92 0 166.5 72.5t108.5 209.5l139 557h287l-261 -1040h-268l29 115h-4q-65 -65 -146 -102.5t-166 -37.5z
" />
    <glyph glyph-name="yacute" unicode="&#xfd;" horiz-adv-x="1032" 
d="M698 1159h-237l219 299h367zM1176 1040l-633 -1046q-132 -217 -263 -301t-329 -84q-80 0 -146 16l58 230q46 -17 106 -17q110 0 175 64t65 161q0 35 -10 132l-84 845h282l25 -348q17 -239 14 -436h4q119 254 222 436l194 348h320z" />
    <glyph glyph-name="thorn" unicode="&#xfe;" horiz-adv-x="1224" 
d="M535 956h4q58 53 128 82t138 29q171 0 265.5 -107.5t94.5 -297.5q0 -74 -16.5 -152.5t-47.5 -155.5t-80 -145.5t-109.5 -121.5t-140.5 -83.5t-169 -30.5q-93 0 -164.5 42t-103.5 118h-4l-127 -512h-287l457 1837h286zM694 848q-68 0 -125 -41t-92 -105t-54.5 -137
t-19.5 -143q0 -108 43.5 -168.5t124.5 -60.5q68 0 125 41t92 104.5t54.5 136.5t19.5 143q0 108 -43.5 169t-124.5 61z" />
    <glyph glyph-name="ydieresis" unicode="&#xff;" horiz-adv-x="1032" 
d="M551 1212h-252l61 246h252zM995 1212h-252l62 246h252zM1176 1040l-633 -1046q-132 -217 -263 -301t-329 -84q-80 0 -146 16l58 230q46 -17 106 -17q110 0 175 64t65 161q0 35 -10 132l-84 845h282l25 -348q17 -239 14 -436h4q119 254 222 436l194 348h320z" />
    <glyph glyph-name="Amacron" unicode="&#x100;" horiz-adv-x="1429" 
d="M1362 1780l-45 -187h-668l45 187h668zM1151 1458l143 -1458h-295l-24 356h-559l-203 -356h-336l868 1458h406zM956 614l-6 97q-21 326 -26 569h-4q-132 -264 -304 -569l-55 -97h395z" />
    <glyph glyph-name="amacron" unicode="&#x101;" horiz-adv-x="1120" 
d="M1024 1225h-668l45 186h668zM637 1073q399 0 399 -323q0 -64 -18 -138l-82 -327q-46 -182 -43 -285h-250q0 64 16 121h-4q-149 -146 -350 -146q-150 0 -230.5 75.5t-80.5 201.5q0 49 13 92.5t46.5 88.5t85.5 80.5t136 64.5t192 45q146 20 283 28l6 25q10 42 10 67
q0 129 -148 129q-76 0 -127.5 -41.5t-66.5 -115.5h-279q34 156 164 257t328 101zM690 412l17 65q-120 -8 -215 -22q-201 -33 -201 -164q0 -52 34 -81.5t97 -29.5q103 0 171.5 60t96.5 172z" />
    <glyph glyph-name="Abreve" unicode="&#x102;" horiz-adv-x="1429" 
d="M1188 1855h219q-41 -147 -153.5 -228t-272.5 -81q-140 0 -217.5 66t-77.5 186q0 17 4 57h170q-2 -10 -2 -26q0 -50 35.5 -77.5t101.5 -27.5q73 0 124.5 34.5t68.5 96.5zM1151 1458l143 -1458h-295l-24 356h-559l-203 -356h-336l868 1458h406zM956 614l-6 97
q-21 326 -26 569h-4q-132 -264 -304 -569l-55 -97h395z" />
    <glyph glyph-name="abreve" unicode="&#x103;" horiz-adv-x="1120" 
d="M887 1458h219q-41 -147 -153.5 -228t-272.5 -81q-140 0 -217.5 66t-77.5 186q0 17 4 57h170q-2 -10 -2 -26q0 -50 35.5 -77.5t101.5 -27.5q73 0 124.5 34.5t68.5 96.5zM637 1073q399 0 399 -323q0 -64 -18 -138l-82 -327q-46 -182 -43 -285h-250q0 64 16 121h-4
q-149 -146 -350 -146q-150 0 -230.5 75.5t-80.5 201.5q0 49 13 92.5t46.5 88.5t85.5 80.5t136 64.5t192 45q146 20 283 28l6 25q10 42 10 67q0 129 -148 129q-76 0 -127.5 -41.5t-66.5 -115.5h-279q34 156 164 257t328 101zM690 412l17 65q-120 -8 -215 -22
q-201 -33 -201 -164q0 -52 34 -81.5t97 -29.5q103 0 171.5 60t96.5 172z" />
    <glyph glyph-name="Aogonek" unicode="&#x104;" horiz-adv-x="1429" 
d="M1108 -201q0 -43 57 -43q39 0 76 13l-39 -154q-67 -18 -141 -18q-105 0 -158 39.5t-53 113.5q0 133 219 250h-70l-24 356h-559l-203 -356h-336l868 1458h406l143 -1458q-107 -63 -146.5 -109.5t-39.5 -91.5zM956 614l-6 97q-21 326 -26 569h-4q-132 -264 -304 -569
l-55 -97h395z" />
    <glyph glyph-name="aogonek" unicode="&#x105;" horiz-adv-x="1120" 
d="M637 1073q399 0 399 -323q0 -64 -18 -138l-82 -327q-46 -182 -43 -285q-107 -63 -146.5 -109.5t-39.5 -91.5q0 -43 57 -43q39 0 76 13l-39 -154q-67 -18 -142 -18q-210 0 -210 153q0 133 219 250h-25q0 64 16 121h-4q-149 -146 -350 -146q-150 0 -230.5 75.5t-80.5 201.5
q0 49 13 92.5t46.5 88.5t85.5 80.5t136 64.5t192 45q146 20 283 28l6 25q10 42 10 67q0 129 -148 129q-76 0 -127.5 -41.5t-66.5 -115.5h-279q34 156 164 257t328 101zM422 180q103 0 171.5 60t96.5 172l17 65q-120 -8 -215 -22q-201 -33 -201 -164q0 -52 34 -81.5t97 -29.5
z" />
    <glyph glyph-name="Cacute" unicode="&#x106;" horiz-adv-x="1437" 
d="M1026 1556h-238l222 299h366zM928 1491q242 0 383 -129.5t141 -347.5q0 -49 -8 -90h-303q4 36 4 57q0 114 -64.5 179t-179.5 65q-91 0 -169.5 -41t-133 -108t-93 -152t-57 -173.5t-18.5 -172.5q0 -159 68 -252t198 -93q112 0 206.5 66.5t139.5 183.5h310
q-76 -245 -257 -380.5t-425 -135.5q-261 0 -406 158.5t-145 431.5q0 105 22.5 213t65.5 213t112 196.5t156 161t204 110t249 40.5z" />
    <glyph glyph-name="cacute" unicode="&#x107;" horiz-adv-x="1150" 
d="M778 1159h-237l219 299h366zM676 1073q206 0 322 -105.5t116 -279.5q0 -37 -4 -55h-299q4 20 4 39q0 85 -41.5 132.5t-114.5 47.5q-70 0 -129 -44t-95 -111t-55.5 -138.5t-19.5 -132.5q0 -114 44 -176t128 -62q76 0 138 54t90 145h301q-59 -190 -208 -305t-337 -115
q-212 0 -330 121.5t-118 335.5q0 85 23.5 173.5t73 174t119.5 152.5t172 108t220 41z" />
    <glyph glyph-name="Ccircumflex" unicode="&#x108;" horiz-adv-x="1437" 
d="M885 1855h305l158 -299h-234l-86 156l-162 -156h-291zM928 1491q242 0 383 -129.5t141 -347.5q0 -49 -8 -90h-303q4 36 4 57q0 114 -64.5 179t-179.5 65q-91 0 -169.5 -41t-133 -108t-93 -152t-57 -173.5t-18.5 -172.5q0 -159 68 -252t198 -93q112 0 206.5 66.5
t139.5 183.5h310q-76 -245 -257 -380.5t-425 -135.5q-261 0 -406 158.5t-145 431.5q0 105 22.5 213t65.5 213t112 196.5t156 161t204 110t249 40.5z" />
    <glyph glyph-name="ccircumflex" unicode="&#x109;" horiz-adv-x="1150" 
d="M1100 1159h-242l-86 156l-162 -156h-282l307 299h305zM676 1073q206 0 322 -105.5t116 -279.5q0 -37 -4 -55h-299q4 20 4 39q0 85 -41.5 132.5t-114.5 47.5q-70 0 -129 -44t-95 -111t-55.5 -138.5t-19.5 -132.5q0 -114 44 -176t128 -62q76 0 138 54t90 145h301
q-59 -190 -208 -305t-337 -115q-212 0 -330 121.5t-118 335.5q0 85 23.5 173.5t73 174t119.5 152.5t172 108t220 41z" />
    <glyph glyph-name="Cdotaccent" unicode="&#x10a;" horiz-adv-x="1437" 
d="M1110 1575h-287l62 246h286zM928 1491q242 0 383 -129.5t141 -347.5q0 -49 -8 -90h-303q4 36 4 57q0 114 -64.5 179t-179.5 65q-91 0 -169.5 -41t-133 -108t-93 -152t-57 -173.5t-18.5 -172.5q0 -159 68 -252t198 -93q112 0 206.5 66.5t139.5 183.5h310
q-76 -245 -257 -380.5t-425 -135.5q-261 0 -406 158.5t-145 431.5q0 105 22.5 213t65.5 213t112 196.5t156 161t204 110t249 40.5z" />
    <glyph glyph-name="cdotaccent" unicode="&#x10b;" horiz-adv-x="1150" 
d="M870 1212h-286l61 246h287zM676 1073q206 0 322 -105.5t116 -279.5q0 -37 -4 -55h-299q4 20 4 39q0 85 -41.5 132.5t-114.5 47.5q-70 0 -129 -44t-95 -111t-55.5 -138.5t-19.5 -132.5q0 -114 44 -176t128 -62q76 0 138 54t90 145h301q-59 -190 -208 -305t-337 -115
q-212 0 -330 121.5t-118 335.5q0 85 23.5 173.5t73 174t119.5 152.5t172 108t220 41z" />
    <glyph glyph-name="Ccaron" unicode="&#x10c;" horiz-adv-x="1437" 
d="M1114 1556h-305l-158 299h234l86 -155l162 155h290zM928 1491q242 0 383 -129.5t141 -347.5q0 -49 -8 -90h-303q4 36 4 57q0 114 -64.5 179t-179.5 65q-91 0 -169.5 -41t-133 -108t-93 -152t-57 -173.5t-18.5 -172.5q0 -159 68 -252t198 -93q112 0 206.5 66.5
t139.5 183.5h310q-76 -245 -257 -380.5t-425 -135.5q-261 0 -406 158.5t-145 431.5q0 105 22.5 213t65.5 213t112 196.5t156 161t204 110t249 40.5z" />
    <glyph glyph-name="ccaron" unicode="&#x10d;" horiz-adv-x="1150" 
d="M866 1159h-305l-160 299h242l86 -155l162 155h283zM676 1073q206 0 322 -105.5t116 -279.5q0 -37 -4 -55h-299q4 20 4 39q0 85 -41.5 132.5t-114.5 47.5q-70 0 -129 -44t-95 -111t-55.5 -138.5t-19.5 -132.5q0 -114 44 -176t128 -62q76 0 138 54t90 145h301
q-59 -190 -208 -305t-337 -115q-212 0 -330 121.5t-118 335.5q0 85 23.5 173.5t73 174t119.5 152.5t172 108t220 41z" />
    <glyph glyph-name="Dcaron" unicode="&#x10e;" horiz-adv-x="1503" 
d="M1094 1556h-306l-157 299h233l86 -155l162 155h291zM401 1458h383q344 0 520.5 -160.5t176.5 -466.5q0 -97 -23 -194t-69 -190.5t-121 -174t-171 -141.5t-227.5 -96t-283.5 -35h-547zM637 1200l-236 -942h203q121 0 219.5 34.5t161.5 90.5t105.5 129.5t60.5 148.5t18 152
q0 194 -98.5 290.5t-300.5 96.5h-133z" />
    <glyph glyph-name="dcaron" unicode="&#x10f;" horiz-adv-x="1220" 
d="M952 0h-278l24 94h-4q-59 -58 -132 -89.5t-144 -31.5q-171 0 -266 108t-95 298q0 89 23 183.5t70.5 184.5t113 161.5t158.5 115t199 43.5q93 0 164.5 -42t103.5 -118h4l135 551h287zM1446 1096h-162l143 362h228zM651 848q-68 0 -125 -41t-92 -105t-54.5 -137t-19.5 -143
q0 -108 43.5 -168.5t124.5 -60.5q68 0 125 41t92 104.5t54.5 136.5t19.5 143q0 108 -43.5 169t-124.5 61z" />
    <glyph glyph-name="Dcroat" unicode="&#x110;" horiz-adv-x="1505" 
d="M401 1458h383q344 0 520.5 -160.5t176.5 -466.5q0 -97 -23 -194t-69 -190.5t-121 -174t-171 -141.5t-227.5 -96t-283.5 -35h-547l156 629h-132l56 217h131zM401 258h203q121 0 219.5 34.5t161.5 90.5t105.5 129.5t60.5 148.5t18 152q0 194 -98.5 290.5t-300.5 96.5h-133
l-88 -354h340l-55 -217h-340z" />
    <glyph glyph-name="dcroat" unicode="&#x111;" horiz-adv-x="1208" 
d="M1384 1180h-139l-293 -1180h-278l24 94h-4q-59 -58 -132 -89.5t-144 -31.5q-171 0 -266 108t-95 298q0 89 23 183.5t70.5 184.5t113 161.5t158.5 115t199 43.5q93 0 164.5 -42t103.5 -118h4l68 273h-244l37 147h241l33 131h287l-33 -131h139zM528 193q68 0 125 41
t92 104.5t54.5 136.5t19.5 143q0 108 -43.5 169t-124.5 61q-68 0 -125 -41t-92 -105t-54.5 -137t-19.5 -143q0 -108 43.5 -168.5t124.5 -60.5z" />
    <glyph glyph-name="Emacron" unicode="&#x112;" horiz-adv-x="1296" 
d="M1253 1593h-667l45 187h667zM1346 1200h-707l-82 -330h660l-66 -256h-659l-89 -356h725l-63 -258h-1026l362 1458h1008z" />
    <glyph glyph-name="emacron" unicode="&#x113;" horiz-adv-x="1173" 
d="M1055 1225h-668l45 186h668zM1087 461h-745q-8 -44 -8 -88q0 -104 52 -153.5t136 -49.5q77 0 137 40.5t84 104.5h293q-63 -149 -206 -248.5t-324 -99.5q-217 0 -330 117.5t-113 323.5q0 88 24 179.5t75 178.5t121 155.5t171.5 110t217.5 41.5q215 0 327.5 -114
t112.5 -310q0 -77 -25 -188zM655 870q-87 0 -157.5 -57.5t-110.5 -171.5h455q4 32 4 45q0 92 -52 138t-139 46z" />
    <glyph glyph-name="Ebreve" unicode="&#x114;" horiz-adv-x="1296" 
d="M1124 1855h219q-41 -147 -153 -228t-272 -81q-140 0 -217.5 66t-77.5 186q0 17 4 57h170q-2 -10 -2 -26q0 -50 35.5 -77.5t101.5 -27.5q73 0 124 34.5t68 96.5zM1346 1200h-707l-82 -330h660l-66 -256h-659l-89 -356h725l-63 -258h-1026l362 1458h1008z" />
    <glyph glyph-name="ebreve" unicode="&#x115;" horiz-adv-x="1173" 
d="M711 1149q-140 0 -217.5 66t-77.5 186q0 17 4 57h170q-2 -10 -2 -26q0 -50 35.5 -77.5t101.5 -27.5q73 0 124.5 34.5t68.5 96.5h219q-41 -147 -153.5 -228t-272.5 -81zM672 1073q215 0 327.5 -114t112.5 -310q0 -77 -25 -188h-745q-8 -44 -8 -88q0 -104 52 -153.5
t136 -49.5q77 0 137 40.5t84 104.5h293q-63 -149 -206 -248.5t-324 -99.5q-217 0 -330 117.5t-113 323.5q0 88 24 179.5t75 178.5t121 155.5t171.5 110t217.5 41.5zM655 870q-87 0 -157.5 -57.5t-110.5 -171.5h455q4 32 4 45q0 92 -52 138t-139 46z" />
    <glyph glyph-name="Edotaccent" unicode="&#x116;" horiz-adv-x="1296" 
d="M1057 1575h-287l61 246h287zM1346 1200h-707l-82 -330h660l-66 -256h-659l-89 -356h725l-63 -258h-1026l362 1458h1008z" />
    <glyph glyph-name="edotaccent" unicode="&#x117;" horiz-adv-x="1173" 
d="M860 1212h-287l62 246h287zM1087 461h-745q-8 -44 -8 -88q0 -104 52 -153.5t136 -49.5q77 0 137 40.5t84 104.5h293q-63 -149 -206 -248.5t-324 -99.5q-217 0 -330 117.5t-113 323.5q0 88 24 179.5t75 178.5t121 155.5t171.5 110t217.5 41.5q215 0 327.5 -114t112.5 -310
q0 -77 -25 -188zM655 870q-87 0 -157.5 -57.5t-110.5 -171.5h455q4 32 4 45q0 92 -52 138t-139 46z" />
    <glyph glyph-name="Eogonek" unicode="&#x118;" horiz-adv-x="1296" 
d="M639 1200l-82 -330h660l-66 -256h-659l-89 -356h725l-63 -258q-107 -63 -146.5 -109.5t-39.5 -91.5q0 -43 57 -43q39 0 76 13l-39 -154q-67 -18 -142 -18q-210 0 -210 153q0 133 219 250h-801l362 1458h1008l-63 -258h-707z" />
    <glyph glyph-name="eogonek" unicode="&#x119;" horiz-adv-x="1173" 
d="M1087 461h-745q-8 -44 -8 -88q0 -104 52 -153.5t136 -49.5q77 0 137 40.5t84 104.5h293q-60 -141 -235 -276q-108 -83 -147.5 -135.5t-39.5 -104.5q0 -43 58 -43q39 0 76 13l-39 -154q-67 -18 -142 -18q-105 0 -158 39.5t-53 113.5q0 113 156 213v4h-6q-217 0 -330 117.5
t-113 323.5q0 88 24 179.5t75 178.5t121 155.5t171.5 110t217.5 41.5q215 0 327.5 -114t112.5 -310q0 -77 -25 -188zM655 870q-87 0 -157.5 -57.5t-110.5 -171.5h455q4 32 4 45q0 92 -52 138t-139 46z" />
    <glyph glyph-name="Ecaron" unicode="&#x11a;" horiz-adv-x="1296" 
d="M1061 1556h-305l-158 299h233l87 -155l161 155h291zM1346 1200h-707l-82 -330h660l-66 -256h-659l-89 -356h725l-63 -258h-1026l362 1458h1008z" />
    <glyph glyph-name="ecaron" unicode="&#x11b;" horiz-adv-x="1173" 
d="M551 1159l-160 299h242l86 -155l162 155h282l-307 -299h-305zM672 1073q215 0 327.5 -114t112.5 -310q0 -77 -25 -188h-745q-8 -44 -8 -88q0 -104 52 -153.5t136 -49.5q77 0 137 40.5t84 104.5h293q-63 -149 -206 -248.5t-324 -99.5q-217 0 -330 117.5t-113 323.5
q0 88 24 179.5t75 178.5t121 155.5t171.5 110t217.5 41.5zM655 870q-87 0 -157.5 -57.5t-110.5 -171.5h455q4 32 4 45q0 92 -52 138t-139 46z" />
    <glyph glyph-name="Gcircumflex" unicode="&#x11c;" horiz-adv-x="1523" 
d="M891 1855h305l158 -299h-234l-86 156l-162 -156h-290zM971 1491q249 0 386.5 -119.5t137.5 -331.5q0 -31 -6 -69h-324q2 10 2 28q0 109 -62 167.5t-177 58.5q-97 0 -180 -41t-141 -108.5t-100 -154.5t-61.5 -179.5t-19.5 -182.5q0 -165 70 -257.5t209 -92.5q134 0 240 84
t145 229h-347l62 246h627l-191 -768h-254l31 125h-4q-73 -72 -177.5 -113t-222.5 -41q-233 0 -364 156t-131 420q0 133 33 265t103.5 254.5t169 217t240 151t306.5 56.5z" />
    <glyph glyph-name="gcircumflex" unicode="&#x11d;" horiz-adv-x="1210" 
d="M1112 1159h-242l-86 156l-161 -156h-283l307 299h305zM598 1069q110 0 183 -50.5t106 -133.5h4l39 155h270l-258 -1040q-50 -197 -196.5 -297t-356.5 -100q-211 0 -317.5 71.5t-106.5 204.5q0 25 6 55h279q-2 -8 -2 -24q0 -50 41 -76.5t117 -26.5q100 0 167 54t101 182
l18 76h-4q-124 -107 -276 -107q-163 0 -253.5 109.5t-90.5 304.5q0 83 21.5 171t66.5 172.5t106.5 151.5t149 107.5t186.5 40.5zM633 834q-61 0 -113 -37t-83 -93.5t-48.5 -118.5t-17.5 -116q0 -103 44 -162t122 -59q52 0 97 23t76.5 61t54.5 86t33.5 97t10.5 95
q0 104 -46.5 164t-129.5 60z" />
    <glyph glyph-name="Gbreve" unicode="&#x11e;" horiz-adv-x="1523" 
d="M1184 1855h219q-41 -147 -153.5 -228t-272.5 -81q-140 0 -217.5 66t-77.5 186q0 17 4 57h170q-2 -10 -2 -26q0 -50 35.5 -77.5t101.5 -27.5q73 0 124.5 34.5t68.5 96.5zM971 1491q249 0 386.5 -119.5t137.5 -331.5q0 -31 -6 -69h-324q2 10 2 28q0 109 -62 167.5
t-177 58.5q-97 0 -180 -41t-141 -108.5t-100 -154.5t-61.5 -179.5t-19.5 -182.5q0 -165 70 -257.5t209 -92.5q134 0 240 84t145 229h-347l62 246h627l-191 -768h-254l31 125h-4q-73 -72 -177.5 -113t-222.5 -41q-233 0 -364 156t-131 420q0 133 33 265t103.5 254.5t169 217
t240 151t306.5 56.5z" />
    <glyph glyph-name="gbreve" unicode="&#x11f;" horiz-adv-x="1210" 
d="M940 1458h219q-41 -147 -153.5 -228t-272.5 -81q-140 0 -217.5 66t-77.5 186q0 17 4 57h170q-2 -10 -2 -26q0 -50 36 -77.5t102 -27.5q73 0 124 34.5t68 96.5zM598 1069q110 0 183 -50.5t106 -133.5h4l39 155h270l-258 -1040q-50 -197 -196.5 -297t-356.5 -100
q-211 0 -317.5 71.5t-106.5 204.5q0 25 6 55h279q-2 -8 -2 -24q0 -50 41 -76.5t117 -26.5q100 0 167 54t101 182l18 76h-4q-124 -107 -276 -107q-163 0 -253.5 109.5t-90.5 304.5q0 83 21.5 171t66.5 172.5t106.5 151.5t149 107.5t186.5 40.5zM633 834q-61 0 -113 -37
t-83 -93.5t-48.5 -118.5t-17.5 -116q0 -103 44 -162t122 -59q52 0 97 23t76.5 61t54.5 86t33.5 97t10.5 95q0 104 -46.5 164t-129.5 60z" />
    <glyph glyph-name="Gdotaccent" unicode="&#x120;" horiz-adv-x="1523" 
d="M1116 1575h-287l62 246h287zM971 1491q249 0 386.5 -119.5t137.5 -331.5q0 -31 -6 -69h-324q2 10 2 28q0 109 -62 167.5t-177 58.5q-97 0 -180 -41t-141 -108.5t-100 -154.5t-61.5 -179.5t-19.5 -182.5q0 -165 70 -257.5t209 -92.5q134 0 240 84t145 229h-347l62 246h627
l-191 -768h-254l31 125h-4q-73 -72 -177.5 -113t-222.5 -41q-233 0 -364 156t-131 420q0 133 33 265t103.5 254.5t169 217t240 151t306.5 56.5z" />
    <glyph glyph-name="gdotaccent" unicode="&#x121;" horiz-adv-x="1210" 
d="M883 1212h-287l61 246h287zM598 1069q110 0 183 -50.5t106 -133.5h4l39 155h270l-258 -1040q-50 -197 -196.5 -297t-356.5 -100q-211 0 -317.5 71.5t-106.5 204.5q0 25 6 55h279q-2 -8 -2 -24q0 -50 41 -76.5t117 -26.5q100 0 167 54t101 182l18 76h-4
q-124 -107 -276 -107q-163 0 -253.5 109.5t-90.5 304.5q0 83 21.5 171t66.5 172.5t106.5 151.5t149 107.5t186.5 40.5zM633 834q-61 0 -113 -37t-83 -93.5t-48.5 -118.5t-17.5 -116q0 -103 44 -162t122 -59q52 0 97 23t76.5 61t54.5 86t33.5 97t10.5 95q0 104 -46.5 164
t-129.5 60z" />
    <glyph glyph-name="Gcommaaccent" unicode="&#x122;" horiz-adv-x="1523" 
d="M971 1491q249 0 386.5 -119.5t137.5 -331.5q0 -31 -6 -69h-324q2 10 2 28q0 109 -62 167.5t-177 58.5q-97 0 -180 -41t-141 -108.5t-100 -154.5t-61.5 -179.5t-19.5 -182.5q0 -165 70 -257.5t209 -92.5q134 0 240 84t145 229h-347l62 246h627l-191 -768h-254l31 125h-4
q-73 -72 -177.5 -113t-222.5 -41q-233 0 -364 156t-131 420q0 133 33 265t103.5 254.5t169 217t240 151t306.5 56.5zM664 -334l-195 -219h-115l148 219h-92l53 213h254z" />
    <glyph glyph-name="gcommaaccent" unicode="&#x123;" horiz-adv-x="1210" 
d="M819 1395h92l-51 -213h-254l51 213l195 219h115zM598 1069q110 0 183 -50.5t106 -133.5h4l39 155h270l-258 -1040q-50 -197 -196.5 -297t-356.5 -100q-211 0 -317.5 71.5t-106.5 204.5q0 25 6 55h279q-2 -8 -2 -24q0 -50 41 -76.5t117 -26.5q100 0 167 54t101 182l18 76
h-4q-124 -107 -276 -107q-163 0 -253.5 109.5t-90.5 304.5q0 83 21.5 171t66.5 172.5t106.5 151.5t149 107.5t186.5 40.5zM633 834q-61 0 -113 -37t-83 -93.5t-48.5 -118.5t-17.5 -116q0 -103 44 -162t122 -59q52 0 97 23t76.5 61t54.5 86t33.5 97t10.5 95q0 104 -46.5 164
t-129.5 60z" />
    <glyph glyph-name="Hcircumflex" unicode="&#x124;" horiz-adv-x="1536" 
d="M948 1855h305l158 -299h-233l-86 156l-162 -156h-291zM1239 0h-301l156 629h-598l-156 -629h-301l362 1458h301l-141 -571h598l141 571h302z" />
    <glyph glyph-name="hcircumflex" unicode="&#x125;" 
d="M793 1855h305l157 -299h-233l-86 156l-162 -156h-291zM530 944h5q131 121 290 121q150 0 234 -78.5t84 -228.5q0 -68 -21 -150l-151 -608h-287l150 602q14 57 14 107q0 131 -137 131q-92 0 -166.5 -73t-108.5 -210l-139 -557h-287l363 1458h286z" />
    <glyph glyph-name="Hbar" unicode="&#x126;" horiz-adv-x="1536" 
d="M1640 1163h-112l-289 -1163h-301l156 629h-598l-156 -629h-301l289 1163h-113l37 148h113l36 147h301l-36 -147h598l36 147h302l-37 -147h112zM1227 1163h-598l-68 -276h598z" />
    <glyph glyph-name="hbar" unicode="&#x127;" 
d="M825 1065q150 0 234 -78.5t84 -228.5q0 -68 -21 -150l-151 -608h-287l150 602q14 57 14 107q0 131 -137 131q-92 0 -166.5 -73t-108.5 -210l-139 -557h-287l293 1180h-151l32 131h152l37 147h286l-36 -147h229l-33 -131h-229l-60 -236h5q131 121 290 121z" />
    <glyph glyph-name="Itilde" unicode="&#x128;" horiz-adv-x="636" 
d="M879 1855h159q-37 -129 -113.5 -202.5t-179.5 -73.5q-47 0 -87.5 14.5t-64 32.5t-54.5 32.5t-60 14.5q-83 0 -117 -94h-163q36 129 113 202.5t180 73.5q47 0 87.5 -14.5t64.5 -32.5t54.5 -32.5t59.5 -14.5q45 0 73.5 23t47.5 71zM340 0h-301l362 1458h301z" />
    <glyph glyph-name="itilde" unicode="&#x129;" horiz-adv-x="565" 
d="M709 1458h155q-39 -130 -110 -203t-166 -73q-41 0 -76.5 14.5t-56 32.5t-47 32.5t-52.5 14.5q-70 0 -100 -94h-158q37 129 109.5 202.5t167.5 73.5q41 0 76.5 -14.5t56 -32.5t47 -32.5t51.5 -14.5q69 0 103 94zM297 0h-287l258 1040h287z" />
    <glyph glyph-name="Imacron" unicode="&#x12a;" horiz-adv-x="636" 
d="M922 1593h-668l45 187h668zM340 0h-301l362 1458h301z" />
    <glyph glyph-name="imacron" unicode="&#x12b;" horiz-adv-x="565" 
d="M750 1225h-586l47 186h586zM297 0h-287l258 1040h287z" />
    <glyph glyph-name="Ibreve" unicode="&#x12c;" horiz-adv-x="636" 
d="M793 1855h219q-41 -147 -153.5 -228t-272.5 -81q-140 0 -217.5 66t-77.5 186q0 17 4 57h170q-2 -10 -2 -26q0 -50 35.5 -77.5t101.5 -27.5q73 0 124.5 34.5t68.5 96.5zM340 0h-301l362 1458h301z" />
    <glyph glyph-name="ibreve" unicode="&#x12d;" horiz-adv-x="565" 
d="M635 1458h207q-40 -147 -143 -228t-250 -81q-126 0 -195.5 64t-69.5 180q0 35 6 65h166q-2 -10 -2 -31q0 -48 29 -74t84 -26q64 0 107.5 34.5t60.5 96.5zM297 0h-287l258 1040h287z" />
    <glyph glyph-name="Iogonek" unicode="&#x12e;" horiz-adv-x="636" 
d="M702 1458l-362 -1458q-107 -63 -146.5 -109.5t-39.5 -91.5q0 -43 57 -43q39 0 76 13l-39 -154q-67 -18 -142 -18q-210 0 -210 153q0 133 219 250h-76l362 1458h301z" />
    <glyph glyph-name="iogonek" unicode="&#x12f;" horiz-adv-x="565" 
d="M659 1458l-61 -246h-287l62 246h286zM268 1040h287l-258 -1040q-107 -63 -146.5 -109.5t-39.5 -91.5q0 -43 57 -43q39 0 76 13l-39 -154q-67 -18 -142 -18q-210 0 -210 153q0 133 219 250h-62z" />
    <glyph glyph-name="Idotaccent" unicode="&#x130;" horiz-adv-x="636" 
d="M725 1575h-287l62 246h286zM340 0h-301l362 1458h301z" />
    <glyph glyph-name="dotlessi" unicode="&#x131;" horiz-adv-x="565" 
d="M297 0h-287l258 1040h287z" />
    <glyph glyph-name="IJ" unicode="&#x132;" horiz-adv-x="1439" 
d="M340 0h-301l362 1458h301zM1516 1458l-256 -1026q-57 -229 -195 -337.5t-377 -108.5q-84 0 -149 20l63 252q45 -10 82 -10q62 0 105.5 12t82 44.5t66 91t49.5 149.5l227 913h302z" />
    <glyph glyph-name="ij" unicode="&#x133;" horiz-adv-x="1134" 
d="M598 1212h-287l62 246h286zM1167 1212h-286l61 246h287zM297 0h-287l258 1040h287zM1124 1040l-272 -1095q-22 -88 -63 -153t-97.5 -104t-121.5 -58t-140 -19q-90 0 -154 18l52 205q21 -6 47 -6q84 0 134.5 46t78.5 163l250 1003h286z" />
    <glyph glyph-name="Jcircumflex" unicode="&#x134;" horiz-adv-x="802" 
d="M676 1855h305l158 -299h-234l-86 156l-162 -156h-290zM879 1458l-256 -1026q-57 -229 -195 -337.5t-377 -108.5q-84 0 -149 20l63 252q45 -10 82 -10q62 0 105.5 12t82 44.5t66 91t49.5 149.5l228 913h301z" />
    <glyph glyph-name="jcircumflex" unicode="&#x135;" horiz-adv-x="569" 
d="M801 1161h-226l-69 158l-148 -158h-268l285 297h289zM559 1040l-272 -1095q-22 -88 -63 -153t-97.5 -104t-121.5 -58t-140 -19q-89 0 -154 18l51 205q21 -6 48 -6q84 0 134.5 46t78.5 163l249 1003h287z" />
    <glyph glyph-name="Kcommaaccent" unicode="&#x136;" horiz-adv-x="1357" 
d="M805 752l416 -752h-351l-350 713h-4l-176 -713h-301l362 1458h301l-153 -616h4l598 616h385zM393 -121h254l-53 -213l-195 -219h-114l147 219h-92z" />
    <glyph glyph-name="kcommaaccent" unicode="&#x137;" horiz-adv-x="1112" 
d="M700 539l304 -539h-314l-264 500h-4l-125 -500h-287l363 1458h286l-204 -825h4l395 407h365zM330 -121h254l-54 -213l-194 -219h-115l148 219h-93z" />
    <glyph glyph-name="kgreenlandic" unicode="&#x138;" horiz-adv-x="1146" 
d="M700 539l304 -539h-314l-264 500h-4l-125 -500h-287l258 1040h287l-100 -407h4l395 407h365z" />
    <glyph glyph-name="Lacute" unicode="&#x139;" horiz-adv-x="1177" 
d="M700 1556h-237l221 299h367zM403 258h689l-64 -258h-989l362 1458h301z" />
    <glyph glyph-name="lacute" unicode="&#x13a;" horiz-adv-x="565" 
d="M641 1577h-238l220 299h366zM297 0h-287l363 1458h286z" />
    <glyph glyph-name="Lcommaaccent" unicode="&#x13b;" horiz-adv-x="1177" 
d="M403 258h689l-64 -258h-989l362 1458h301zM578 -334l-195 -219h-115l148 219h-92l53 213h254z" />
    <glyph glyph-name="lcommaaccent" unicode="&#x13c;" horiz-adv-x="565" 
d="M297 0h-287l363 1458h286zM207 -334l-195 -219h-114l147 219h-92l53 213h254z" />
    <glyph glyph-name="Lcaron" unicode="&#x13d;" horiz-adv-x="1177" 
d="M403 258h689l-64 -258h-989l362 1458h301zM831 999h-161l168 459h227z" />
    <glyph glyph-name="lcaron" unicode="&#x13e;" horiz-adv-x="565" 
d="M297 0h-287l363 1458h286zM788 1096h-161l143 362h227z" />
    <glyph glyph-name="Ldot" unicode="&#x13f;" horiz-adv-x="1341" 
d="M403 258h689l-64 -258h-989l362 1458h301zM1180 713h-316l84 342h316z" />
    <glyph glyph-name="ldot" unicode="&#x140;" horiz-adv-x="1032" 
d="M297 0h-287l363 1458h286zM965 557h-316l84 342h316z" />
    <glyph glyph-name="Lslash" unicode="&#x141;" horiz-adv-x="1177" 
d="M1092 258l-64 -258h-989l139 559l-164 -84l70 277l164 84l153 622h301l-114 -463l325 170l-67 -276l-328 -170l-115 -461h689z" />
    <glyph glyph-name="lslash" unicode="&#x142;" horiz-adv-x="679" 
d="M729 799l-203 -105l-172 -694h-286l139 559l-203 -104l66 262l202 104l158 637h287l-125 -504l203 107z" />
    <glyph glyph-name="Nacute" unicode="&#x143;" horiz-adv-x="1589" 
d="M1116 1556h-237l221 299h366zM1292 0h-403l-148 592q-79 323 -135 602h-4q-67 -362 -135 -633l-139 -561h-289l362 1458h404l147 -592q57 -236 135 -602h5q56 316 135 633l139 561h289z" />
    <glyph glyph-name="nacute" unicode="&#x144;" 
d="M844 1159h-238l219 299h367zM825 1065q151 0 234.5 -78.5t83.5 -228.5q0 -68 -21 -150l-151 -608h-287l150 602q14 57 14 107q0 131 -137 131q-92 0 -166.5 -73t-108.5 -210l-139 -557h-287l260 1040h269l-29 -114h4q139 139 311 139z" />
    <glyph glyph-name="Ncommaaccent" unicode="&#x145;" horiz-adv-x="1589" 
d="M1292 0h-403l-148 592q-79 323 -135 602h-4q-67 -362 -135 -633l-139 -561h-289l362 1458h404l147 -592q57 -236 135 -602h5q56 316 135 633l139 561h289zM709 -334l-195 -219h-115l148 219h-92l53 213h254z" />
    <glyph glyph-name="ncommaaccent" unicode="&#x146;" 
d="M825 1065q151 0 234.5 -78.5t83.5 -228.5q0 -68 -21 -150l-151 -608h-287l150 602q14 57 14 107q0 131 -137 131q-92 0 -166.5 -73t-108.5 -210l-139 -557h-287l260 1040h269l-29 -114h4q139 139 311 139zM535 -334l-195 -219h-115l148 219h-92l53 213h254z" />
    <glyph glyph-name="Ncaron" unicode="&#x147;" horiz-adv-x="1589" 
d="M1204 1556h-305l-158 299h234l86 -155l162 155h290zM1292 0h-403l-148 592q-79 323 -135 602h-4q-67 -362 -135 -633l-139 -561h-289l362 1458h404l147 -592q57 -236 135 -602h5q56 316 135 633l139 561h289z" />
    <glyph glyph-name="ncaron" unicode="&#x148;" 
d="M932 1159h-305l-160 299h242l86 -155l161 155h283zM825 1065q151 0 234.5 -78.5t83.5 -228.5q0 -68 -21 -150l-151 -608h-287l150 602q14 57 14 107q0 131 -137 131q-92 0 -166.5 -73t-108.5 -210l-139 -557h-287l260 1040h269l-29 -114h4q139 139 311 139z" />
    <glyph glyph-name="napostrophe" unicode="&#x149;" horiz-adv-x="1536" 
d="M557 1167l-205 -299h-145l172 299h-90l71 291h269zM1133 1065q151 0 234 -78.5t83 -228.5q0 -71 -20 -150l-152 -608h-287l150 602q14 57 14 107q0 131 -137 131q-92 0 -166.5 -73t-108.5 -210l-139 -557h-287l261 1040h268l-29 -114h4q65 65 145.5 102t166.5 37z" />
    <glyph glyph-name="Eng" unicode="&#x14a;" horiz-adv-x="1527" 
d="M1593 1458l-370 -1487q-47 -188 -164 -277t-281 -89q-78 0 -137 16l51 207q24 -6 60 -6q82 0 129 45.5t47 136.5q0 43 -44 175q-2 7 -3 11t-3 10t-4 11l-145 442q-77 228 -135 484h-4q-41 -245 -109 -521l-153 -616h-289l362 1458h351l178 -545q83 -257 135 -485h4
q40 242 109 520l127 510h288z" />
    <glyph glyph-name="eng" unicode="&#x14b;" 
d="M825 1065q150 0 234 -78.5t84 -228.5q0 -68 -21 -150l-166 -663q-29 -116 -92.5 -192.5t-145.5 -109t-183 -32.5q-89 0 -154 18l51 205q21 -6 47 -6q83 0 133 46t80 163l142 565q14 57 14 107q0 131 -137 131q-92 0 -166.5 -73t-108.5 -210l-139 -557h-287l260 1040h269
l-29 -114h4q139 139 311 139z" />
    <glyph glyph-name="Omacron" unicode="&#x14c;" horiz-adv-x="1531" 
d="M1319 1593h-668l45 187h668zM918 1491q281 0 437 -167.5t156 -455.5q0 -125 -31 -251t-96.5 -243.5t-157.5 -207.5t-224 -144.5t-285 -54.5q-281 0 -436.5 167.5t-155.5 455.5q0 125 31 251t96.5 243.5t157 207.5t223.5 144.5t285 54.5zM905 1225q-113 0 -207 -60.5
t-151 -155.5t-88 -203.5t-31 -213.5q0 -168 78.5 -263.5t222.5 -95.5q91 0 171 40t135 105.5t95 149t59 170.5t19 170q0 166 -79 261.5t-224 95.5z" />
    <glyph glyph-name="omacron" unicode="&#x14d;" horiz-adv-x="1208" 
d="M1073 1225h-667l45 186h667zM680 1073q222 0 341.5 -121t119.5 -338q0 -86 -24 -175t-75.5 -174t-122.5 -151t-174 -106.5t-221 -40.5q-221 0 -338.5 121t-117.5 338q0 86 24 175t75 174t121.5 151t172.5 106.5t219 40.5zM657 852q-73 0 -132.5 -43t-93.5 -109
t-51.5 -136.5t-17.5 -135.5q0 -114 47.5 -177t139.5 -63q73 0 132.5 43t93.5 109t51.5 136.5t17.5 135.5q0 114 -47.5 177t-139.5 63z" />
    <glyph glyph-name="Obreve" unicode="&#x14e;" horiz-adv-x="1531" 
d="M1190 1855h219q-41 -147 -153.5 -228t-272.5 -81q-140 0 -217.5 66t-77.5 186q0 17 4 57h170q-2 -10 -2 -26q0 -50 35.5 -77.5t101.5 -27.5q73 0 124.5 34.5t68.5 96.5zM918 1491q281 0 437 -167.5t156 -455.5q0 -125 -31 -251t-96.5 -243.5t-157.5 -207.5t-224 -144.5
t-285 -54.5q-281 0 -436.5 167.5t-155.5 455.5q0 125 31 251t96.5 243.5t157 207.5t223.5 144.5t285 54.5zM905 1225q-113 0 -207 -60.5t-151 -155.5t-88 -203.5t-31 -213.5q0 -168 78.5 -263.5t222.5 -95.5q91 0 171 40t135 105.5t95 149t59 170.5t19 170q0 166 -79 261.5
t-224 95.5z" />
    <glyph glyph-name="obreve" unicode="&#x14f;" horiz-adv-x="1208" 
d="M936 1458h219q-41 -147 -153.5 -228t-272.5 -81q-140 0 -217.5 66t-77.5 186q0 17 4 57h170q-2 -10 -2 -26q0 -50 35.5 -77.5t101.5 -27.5q73 0 124.5 34.5t68.5 96.5zM680 1073q222 0 341.5 -121t119.5 -338q0 -86 -24 -175t-75.5 -174t-122.5 -151t-174 -106.5
t-221 -40.5q-221 0 -338.5 121t-117.5 338q0 86 24 175t75 174t121.5 151t172.5 106.5t219 40.5zM657 852q-73 0 -132.5 -43t-93.5 -109t-51.5 -136.5t-17.5 -135.5q0 -114 47.5 -177t139.5 -63q73 0 132.5 43t93.5 109t51.5 136.5t17.5 135.5q0 114 -47.5 177t-139.5 63z
" />
    <glyph glyph-name="Ohungarumlaut" unicode="&#x150;" horiz-adv-x="1531" 
d="M817 1556h-237l262 299h325zM1206 1556h-237l262 299h325zM918 1491q281 0 437 -167.5t156 -455.5q0 -125 -31 -251t-96.5 -243.5t-157.5 -207.5t-224 -144.5t-285 -54.5q-281 0 -436.5 167.5t-155.5 455.5q0 125 31 251t96.5 243.5t157 207.5t223.5 144.5t285 54.5z
M905 1225q-113 0 -207 -60.5t-151 -155.5t-88 -203.5t-31 -213.5q0 -168 78.5 -263.5t222.5 -95.5q91 0 171 40t135 105.5t95 149t59 170.5t19 170q0 166 -79 261.5t-224 95.5z" />
    <glyph glyph-name="ohungarumlaut" unicode="&#x151;" horiz-adv-x="1208" 
d="M606 1159h-237l260 299h325zM995 1159h-237l260 299h325zM680 1073q222 0 341.5 -121t119.5 -338q0 -86 -24 -175t-75.5 -174t-122.5 -151t-174 -106.5t-221 -40.5q-221 0 -338.5 121t-117.5 338q0 86 24 175t75 174t121.5 151t172.5 106.5t219 40.5zM657 852
q-73 0 -132.5 -43t-93.5 -109t-51.5 -136.5t-17.5 -135.5q0 -114 47.5 -177t139.5 -63q73 0 132.5 43t93.5 109t51.5 136.5t17.5 135.5q0 114 -47.5 177t-139.5 63z" />
    <glyph glyph-name="OE" unicode="&#x152;" horiz-adv-x="2088" 
d="M2138 1200h-706l-82 -330h659l-65 -256h-660l-88 -356h725l-63 -258h-1080q-321 0 -486 160.5t-165 466.5q0 118 32 233t102.5 224t172 191.5t252.5 132.5t332 50h1184zM1130 1200h-131q-121 0 -218.5 -34.5t-160 -90.5t-105 -130t-60 -148.5t-17.5 -151.5
q0 -387 367 -387h90z" />
    <glyph glyph-name="oe" unicode="&#x153;" horiz-adv-x="1900" 
d="M1815 461h-725q-9 -49 -9 -88q0 -104 46.5 -153.5t121.5 -49.5q77 0 137 40.5t84 104.5h293q-63 -149 -206 -248.5t-324 -99.5q-232 0 -332 162q-165 -162 -397 -162q-210 0 -323 121t-113 338q0 86 23.5 175t72.5 174t117.5 151t166.5 106.5t211 40.5q252 0 367 -172
q162 172 393 172q204 0 312 -114t108 -310q0 -81 -24 -188zM1382 870q-80 0 -145 -57.5t-102 -171.5h436q2 16 2 45q0 92 -52 138t-139 46zM549 188q73 0 132.5 43t93.5 109t51.5 136.5t17.5 135.5q0 114 -47.5 177t-139.5 63q-73 0 -132.5 -43t-93.5 -109t-51.5 -136.5
t-17.5 -135.5q0 -114 47.5 -177t139.5 -63z" />
    <glyph glyph-name="Racute" unicode="&#x154;" horiz-adv-x="1363" 
d="M946 1556h-237l221 299h366zM401 1458h517q229 0 341.5 -89.5t112.5 -258.5q0 -93 -38.5 -179.5t-123 -157.5t-202.5 -99v-4q63 -26 94.5 -87t50.5 -194l53 -389h-311l-39 346q-14 118 -60 164.5t-153 46.5h-166l-137 -557h-301zM643 1214l-104 -417h233q77 0 134.5 22.5
t88.5 59.5t45.5 76.5t14.5 80.5q0 178 -195 178h-217z" />
    <glyph glyph-name="racute" unicode="&#x155;" horiz-adv-x="802" 
d="M651 1159h-237l219 299h366zM825 1057q49 0 93 -13l-62 -247q-55 10 -88 10q-132 0 -221.5 -81t-126.5 -234l-123 -492h-287l258 1040h264l-32 -133h4q144 150 321 150z" />
    <glyph glyph-name="Rcommaaccent" unicode="&#x156;" horiz-adv-x="1363" 
d="M401 1458h517q229 0 341.5 -89.5t112.5 -258.5q0 -93 -38.5 -179.5t-123 -157.5t-202.5 -99v-4q63 -26 94.5 -87t50.5 -194l53 -389h-311l-39 346q-14 118 -60 164.5t-153 46.5h-166l-137 -557h-301zM643 1214l-104 -417h233q77 0 134.5 22.5t88.5 59.5t45.5 76.5
t14.5 80.5q0 178 -195 178h-217zM655 -334l-194 -219h-115l148 219h-93l54 213h254z" />
    <glyph glyph-name="rcommaaccent" unicode="&#x157;" horiz-adv-x="802" 
d="M825 1057q49 0 93 -13l-62 -247q-55 10 -88 10q-132 0 -221.5 -81t-126.5 -234l-123 -492h-287l258 1040h264l-32 -133h4q144 150 321 150zM207 -334l-195 -219h-114l147 219h-92l53 213h254z" />
    <glyph glyph-name="Rcaron" unicode="&#x158;" horiz-adv-x="1363" 
d="M1034 1556h-305l-158 299h234l86 -155l162 155h290zM401 1458h517q229 0 341.5 -89.5t112.5 -258.5q0 -93 -38.5 -179.5t-123 -157.5t-202.5 -99v-4q63 -26 94.5 -87t50.5 -194l53 -389h-311l-39 346q-14 118 -60 164.5t-153 46.5h-166l-137 -557h-301zM643 1214
l-104 -417h233q77 0 134.5 22.5t88.5 59.5t45.5 76.5t14.5 80.5q0 178 -195 178h-217z" />
    <glyph glyph-name="rcaron" unicode="&#x159;" horiz-adv-x="802" 
d="M739 1159h-305l-160 299h242l86 -155l162 155h283zM825 1057q49 0 93 -13l-62 -247q-55 10 -88 10q-132 0 -221.5 -81t-126.5 -234l-123 -492h-287l258 1040h264l-32 -133h4q144 150 321 150z" />
    <glyph glyph-name="Sacute" unicode="&#x15a;" horiz-adv-x="1290" 
d="M897 1556h-238l222 299h366zM809 1491q500 0 500 -371q0 -42 -17 -108h-305q6 30 6 59q0 87 -56 133.5t-165 46.5q-102 0 -172 -50t-70 -126q0 -70 59.5 -112t205.5 -89q53 -18 88.5 -31t80.5 -34.5t74 -43t60.5 -53.5t49 -69t29 -86.5t11.5 -107.5q0 -67 -24.5 -134.5
t-76 -130t-123 -111t-173.5 -77.5t-220 -29q-257 0 -397.5 103t-140.5 295q0 57 14 114h311q-8 -36 -8 -73q0 -195 256 -195q66 0 118 18t82.5 47.5t46 62t15.5 64.5q0 29 -6 52.5t-22.5 42.5t-33 32.5t-50 29t-59 25.5t-74.5 27q-45 16 -70 25t-66 26t-64.5 30t-56 34
t-51.5 41.5t-40.5 49t-33 59.5t-19 70.5t-7.5 84.5q0 80 39 159.5t111 147t188 110t256 42.5z" />
    <glyph glyph-name="sacute" unicode="&#x15b;" horiz-adv-x="1073" 
d="M729 1159h-237l219 299h366zM625 1073q191 0 292 -73t101 -214q0 -31 -6 -65h-273q4 28 4 43q0 108 -143 108q-77 0 -114 -31t-37 -71q0 -43 39 -70t149 -65q42 -14 63.5 -22t59.5 -24.5t58.5 -31t47 -39t40.5 -51t24 -64t10 -81.5q0 -67 -31 -129t-90 -113.5t-155.5 -82
t-217.5 -30.5q-205 0 -316.5 75t-111.5 222q0 37 11 74h288q-6 -24 -6 -45q0 -58 40.5 -88.5t119.5 -30.5q77 0 120.5 30.5t43.5 82.5q0 54 -43.5 82t-157.5 67q-118 41 -164 70q-111 75 -112 227q0 63 29.5 122.5t85.5 108.5t147.5 79t204.5 30z" />
    <glyph glyph-name="Scircumflex" unicode="&#x15c;" horiz-adv-x="1290" 
d="M756 1855h305l158 -299h-234l-86 156l-162 -156h-291zM809 1491q500 0 500 -371q0 -42 -17 -108h-305q6 30 6 59q0 87 -56 133.5t-165 46.5q-102 0 -172 -50t-70 -126q0 -70 59.5 -112t205.5 -89q53 -18 88.5 -31t80.5 -34.5t74 -43t60.5 -53.5t49 -69t29 -86.5
t11.5 -107.5q0 -67 -24.5 -134.5t-76 -130t-123 -111t-173.5 -77.5t-220 -29q-257 0 -397.5 103t-140.5 295q0 57 14 114h311q-8 -36 -8 -73q0 -195 256 -195q66 0 118 18t82.5 47.5t46 62t15.5 64.5q0 29 -6 52.5t-22.5 42.5t-33 32.5t-50 29t-59 25.5t-74.5 27
q-45 16 -70 25t-66 26t-64.5 30t-56 34t-51.5 41.5t-40.5 49t-33 59.5t-19 70.5t-7.5 84.5q0 80 39 159.5t111 147t188 110t256 42.5z" />
    <glyph glyph-name="scircumflex" unicode="&#x15d;" horiz-adv-x="1073" 
d="M1051 1159h-242l-86 156l-162 -156h-282l307 299h305zM625 1073q191 0 292 -73t101 -214q0 -31 -6 -65h-273q4 28 4 43q0 108 -143 108q-77 0 -114 -31t-37 -71q0 -43 39 -70t149 -65q42 -14 63.5 -22t59.5 -24.5t58.5 -31t47 -39t40.5 -51t24 -64t10 -81.5
q0 -67 -31 -129t-90 -113.5t-155.5 -82t-217.5 -30.5q-205 0 -316.5 75t-111.5 222q0 37 11 74h288q-6 -24 -6 -45q0 -58 40.5 -88.5t119.5 -30.5q77 0 120.5 30.5t43.5 82.5q0 54 -43.5 82t-157.5 67q-118 41 -164 70q-111 75 -112 227q0 63 29.5 122.5t85.5 108.5
t147.5 79t204.5 30z" />
    <glyph glyph-name="Scedilla" unicode="&#x15e;" horiz-adv-x="1290" 
d="M1292 1012h-305q6 30 6 59q0 87 -56 133.5t-165 46.5q-102 0 -172 -50t-70 -126q0 -70 59.5 -112t205.5 -89q53 -18 88.5 -31t80.5 -34.5t74 -43t60.5 -53.5t49 -69t29 -86.5t11.5 -107.5q0 -82 -38 -163.5t-108.5 -151.5t-185.5 -116t-254 -51l-80 -90q18 6 47 6
q63 0 104.5 -38.5t41.5 -104.5q0 -86 -83.5 -144.5t-205.5 -58.5q-123 0 -217 62l51 92q78 -45 162 -45q52 0 84.5 22.5t32.5 59.5q0 32 -20.5 49.5t-57.5 17.5q-35 0 -70 -12l-41 37l133 151q-217 17 -333.5 117.5t-116.5 276.5q0 57 14 114h311q-8 -36 -8 -73
q0 -195 256 -195q66 0 118 18t82.5 47.5t46 62t15.5 64.5q0 29 -6 52.5t-22.5 42.5t-33 32.5t-50 29t-59 25.5t-74.5 27q-45 16 -70 25t-66 26t-64.5 30t-56 34t-51.5 41.5t-40.5 49t-33 59.5t-19 70.5t-7.5 84.5q0 80 39 159.5t111 147t188 110t256 42.5q500 0 500 -371
q0 -42 -17 -108z" />
    <glyph glyph-name="scedilla" unicode="&#x15f;" horiz-adv-x="1073" 
d="M1012 721h-273q4 28 4 43q0 108 -143 108q-77 0 -114 -31t-37 -71q0 -43 39 -70t149 -65q42 -14 63.5 -22t59.5 -24.5t58.5 -31t47 -39t40.5 -51t24 -64t10 -81.5q0 -64 -28.5 -124.5t-83 -110.5t-143.5 -82.5t-200 -37.5l-79 -90q18 6 47 6q63 0 104 -38.5t41 -104.5
q0 -86 -83.5 -144.5t-205.5 -58.5q-123 0 -217 62l51 92q78 -45 162 -45q52 0 84.5 22.5t32.5 59.5q0 32 -20.5 49.5t-57.5 17.5q-36 0 -70 -12l-41 37l134 151q-167 12 -258 86.5t-91 206.5q0 37 11 74h288q-6 -24 -6 -45q0 -58 40.5 -88.5t119.5 -30.5q77 0 120.5 30.5
t43.5 82.5q0 54 -43.5 82t-157.5 67q-118 41 -164 70q-111 75 -112 227q0 63 29.5 122.5t85.5 108.5t147.5 79t204.5 30q191 0 292 -73t101 -214q0 -31 -6 -65z" />
    <glyph glyph-name="Scaron" unicode="&#x160;" horiz-adv-x="1290" 
d="M985 1556h-305l-158 299h234l86 -155l162 155h290zM809 1491q500 0 500 -371q0 -42 -17 -108h-305q6 30 6 59q0 87 -56 133.5t-165 46.5q-102 0 -172 -50t-70 -126q0 -70 59.5 -112t205.5 -89q53 -18 88.5 -31t80.5 -34.5t74 -43t60.5 -53.5t49 -69t29 -86.5t11.5 -107.5
q0 -67 -24.5 -134.5t-76 -130t-123 -111t-173.5 -77.5t-220 -29q-257 0 -397.5 103t-140.5 295q0 57 14 114h311q-8 -36 -8 -73q0 -195 256 -195q66 0 118 18t82.5 47.5t46 62t15.5 64.5q0 29 -6 52.5t-22.5 42.5t-33 32.5t-50 29t-59 25.5t-74.5 27q-45 16 -70 25t-66 26
t-64.5 30t-56 34t-51.5 41.5t-40.5 49t-33 59.5t-19 70.5t-7.5 84.5q0 80 39 159.5t111 147t188 110t256 42.5z" />
    <glyph glyph-name="scaron" unicode="&#x161;" horiz-adv-x="1073" 
d="M817 1159h-305l-160 299h242l86 -155l162 155h282zM625 1073q191 0 292 -73t101 -214q0 -31 -6 -65h-273q4 28 4 43q0 108 -143 108q-77 0 -114 -31t-37 -71q0 -43 39 -70t149 -65q42 -14 63.5 -22t59.5 -24.5t58.5 -31t47 -39t40.5 -51t24 -64t10 -81.5q0 -67 -31 -129
t-90 -113.5t-155.5 -82t-217.5 -30.5q-205 0 -316.5 75t-111.5 222q0 37 11 74h288q-6 -24 -6 -45q0 -58 40.5 -88.5t119.5 -30.5q77 0 120.5 30.5t43.5 82.5q0 54 -43.5 82t-157.5 67q-118 41 -164 70q-111 75 -112 227q0 63 29.5 122.5t85.5 108.5t147.5 79t204.5 30z" />
    <glyph glyph-name="Tcedilla" unicode="&#x162;" horiz-adv-x="1259" 
d="M1409 1200h-459l-299 -1200h-301l299 1200h-459l64 258h1219zM555 -334l-195 -219h-114l147 219h-92l53 213h254z" />
    <glyph glyph-name="tcedilla" unicode="&#x163;" horiz-adv-x="731" 
d="M547 827l-109 -436q-10 -48 -10 -74q0 -55 26 -78.5t85 -23.5q31 0 67 8l-57 -223q-51 -14 -113 -14q-158 0 -231.5 61.5t-73.5 198.5q0 57 23 151l106 430h-168l53 213h168l68 271h287l-68 -271h199l-54 -213h-198zM141 -121h254l-53 -213l-195 -219h-114l147 219h-92z
" />
    <glyph glyph-name="Tcaron" unicode="&#x164;" horiz-adv-x="1259" 
d="M1012 1556h-305l-158 299h233l86 -155l162 155h291zM1409 1200h-459l-299 -1200h-301l299 1200h-459l64 258h1219z" />
    <glyph glyph-name="tcaron" unicode="&#x165;" horiz-adv-x="731" 
d="M1042 1458l-208 -362h-162l143 362h227zM600 1040h199l-54 -213h-198l-109 -436q-10 -48 -10 -74q0 -55 26 -78.5t85 -23.5q31 0 67 8l-57 -223q-51 -14 -113 -14q-158 0 -231.5 61.5t-73.5 198.5q0 57 23 151l106 430h-168l53 213h168l68 271h287z" />
    <glyph glyph-name="Tbar" unicode="&#x166;" horiz-adv-x="1259" 
d="M950 1200l-94 -381h274l-53 -217h-276l-150 -602h-301l150 602h-277l53 217h279l94 381h-459l64 258h1219l-64 -258h-459z" />
    <glyph glyph-name="tbar" unicode="&#x167;" horiz-adv-x="731" 
d="M547 827l-49 -196h192l-41 -170h-194l-17 -70q-10 -48 -10 -74q0 -55 26 -78.5t85 -23.5q31 0 67 8l-57 -223q-51 -14 -113 -14q-158 0 -230.5 61.5t-72.5 198.5q0 57 23 151l16 64h-164l41 170h164l49 196h-170l53 213h170l68 271h285l-68 -271h199l-54 -213h-198z" />
    <glyph glyph-name="Utilde" unicode="&#x168;" horiz-adv-x="1470" 
d="M1274 1855h160q-37 -129 -113.5 -202.5t-179.5 -73.5q-47 0 -87.5 14.5t-64.5 32.5t-55 32.5t-60 14.5q-82 0 -116 -94h-164q36 129 113 202.5t180 73.5q47 0 87.5 -14.5t64.5 -32.5t54.5 -32.5t59.5 -14.5q45 0 73.5 23t47.5 71zM1548 1458l-245 -987
q-61 -245 -228 -374.5t-416 -129.5q-243 0 -372 123t-129 352q0 92 26 199l205 817h301l-215 -866q-18 -74 -18 -131q0 -228 227 -228q126 0 212.5 79.5t123.5 230.5l227 915h301z" />
    <glyph glyph-name="utilde" unicode="&#x169;" 
d="M1053 1458h159q-37 -129 -113 -202.5t-179 -73.5q-47 0 -87.5 14.5t-63.5 32.5t-54 32.5t-60 14.5q-82 0 -116 -94h-164q36 129 113 202.5t180 73.5q47 0 87.5 -14.5t64 -32.5t53.5 -32.5t59 -14.5q45 0 73.5 23t47.5 71zM403 -25q-151 0 -234 79t-83 229q0 70 20 149
l152 608h287l-150 -602q-14 -57 -14 -106q0 -131 137 -131q92 0 166.5 72.5t108.5 209.5l139 557h287l-261 -1040h-268l29 115h-4q-65 -65 -146 -102.5t-166 -37.5z" />
    <glyph glyph-name="Umacron" unicode="&#x16a;" horiz-adv-x="1470" 
d="M1317 1593h-668l45 187h668zM1548 1458l-245 -987q-61 -245 -228 -374.5t-416 -129.5q-243 0 -372 123t-129 352q0 92 26 199l205 817h301l-215 -866q-18 -74 -18 -131q0 -228 227 -228q126 0 212.5 79.5t123.5 230.5l227 915h301z" />
    <glyph glyph-name="umacron" unicode="&#x16b;" 
d="M1104 1225h-668l45 186h668zM403 -25q-151 0 -234 79t-83 229q0 70 20 149l152 608h287l-150 -602q-14 -57 -14 -106q0 -131 137 -131q92 0 166.5 72.5t108.5 209.5l139 557h287l-261 -1040h-268l29 115h-4q-65 -65 -146 -102.5t-166 -37.5z" />
    <glyph glyph-name="Ubreve" unicode="&#x16c;" horiz-adv-x="1470" 
d="M1188 1855h219q-41 -147 -153.5 -228t-272.5 -81q-140 0 -217.5 66t-77.5 186q0 17 4 57h170q-2 -10 -2 -26q0 -50 35.5 -77.5t101.5 -27.5q73 0 124.5 34.5t68.5 96.5zM1548 1458l-245 -987q-61 -245 -228 -374.5t-416 -129.5q-243 0 -372 123t-129 352q0 92 26 199
l205 817h301l-215 -866q-18 -74 -18 -131q0 -228 227 -228q126 0 212.5 79.5t123.5 230.5l227 915h301z" />
    <glyph glyph-name="ubreve" unicode="&#x16d;" 
d="M967 1458h219q-41 -147 -153.5 -228t-272.5 -81q-140 0 -217.5 66t-77.5 186q0 17 4 57h170q-2 -10 -2 -26q0 -50 35.5 -77.5t101.5 -27.5q73 0 124.5 34.5t68.5 96.5zM403 -25q-151 0 -234 79t-83 229q0 70 20 149l152 608h287l-150 -602q-14 -57 -14 -106
q0 -131 137 -131q92 0 166.5 72.5t108.5 209.5l139 557h287l-261 -1040h-268l29 115h-4q-65 -65 -146 -102.5t-166 -37.5z" />
    <glyph glyph-name="Uring" unicode="&#x16e;" horiz-adv-x="1470" 
d="M1001 1978q92 0 157 -64.5t65 -156.5t-65 -156.5t-157 -64.5t-156.5 64.5t-64.5 156.5t64.5 156.5t156.5 64.5zM1001 1868q-46 0 -78 -32.5t-32 -78.5t32 -78t78 -32t78.5 32t32.5 78t-32.5 78.5t-78.5 32.5zM1548 1458l-245 -987q-61 -245 -228 -374.5t-416 -129.5
q-243 0 -372 123t-129 352q0 92 26 199l205 817h301l-215 -866q-18 -74 -18 -131q0 -228 227 -228q126 0 212.5 79.5t123.5 230.5l227 915h301z" />
    <glyph glyph-name="uring" unicode="&#x16f;" 
d="M782 1581q92 0 157 -64.5t65 -156.5t-65 -156.5t-157 -64.5t-156.5 64.5t-64.5 156.5t64.5 156.5t156.5 64.5zM782 1470q-46 0 -78 -32t-32 -78t32 -78.5t78 -32.5t78.5 32.5t32.5 78.5t-32.5 78t-78.5 32zM403 -25q-151 0 -234 79t-83 229q0 70 20 149l152 608h287
l-150 -602q-14 -57 -14 -106q0 -131 137 -131q92 0 166.5 72.5t108.5 209.5l139 557h287l-261 -1040h-268l29 115h-4q-65 -65 -146 -102.5t-166 -37.5z" />
    <glyph glyph-name="Uhungarumlaut" unicode="&#x170;" horiz-adv-x="1470" 
d="M815 1556h-237l262 299h325zM1204 1556h-237l262 299h325zM1548 1458l-245 -987q-61 -245 -228 -374.5t-416 -129.5q-243 0 -372 123t-129 352q0 92 26 199l205 817h301l-215 -866q-18 -74 -18 -131q0 -228 227 -228q126 0 212.5 79.5t123.5 230.5l227 915h301z" />
    <glyph glyph-name="uhungarumlaut" unicode="&#x171;" 
d="M637 1159h-238l260 299h326zM1026 1159h-238l261 299h325zM403 -25q-151 0 -234 79t-83 229q0 70 20 149l152 608h287l-150 -602q-14 -57 -14 -106q0 -131 137 -131q92 0 166.5 72.5t108.5 209.5l139 557h287l-261 -1040h-268l29 115h-4q-65 -65 -146 -102.5t-166 -37.5z
" />
    <glyph glyph-name="Uogonek" unicode="&#x172;" horiz-adv-x="1470" 
d="M1548 1458l-245 -987q-65 -265 -265 -403q-155 -107 -207.5 -162t-52.5 -107q0 -43 58 -43q38 0 75 13l-39 -154q-67 -18 -141 -18q-105 0 -158 39.5t-53 113.5q0 113 156 213v4h-17q-247 0 -374 120.5t-127 354.5q0 92 26 199l205 817h301l-215 -866q-18 -74 -18 -131
q0 -228 227 -228q126 0 212.5 79.5t123.5 230.5l227 915h301z" />
    <glyph glyph-name="uogonek" unicode="&#x173;" 
d="M1219 1040l-261 -1040q-107 -63 -146.5 -109.5t-39.5 -91.5q0 -43 57 -43q39 0 76 13l-39 -154q-67 -18 -141 -18q-105 0 -158 39.5t-53 113.5q0 133 219 250h-43l29 115h-4q-65 -65 -146 -102.5t-166 -37.5q-151 0 -234 79t-83 229q0 70 20 149l152 608h287l-150 -602
q-14 -57 -14 -106q0 -131 137 -131q92 0 166.5 72.5t108.5 209.5l139 557h287z" />
    <glyph glyph-name="Wcircumflex" unicode="&#x174;" horiz-adv-x="1957" 
d="M1145 1855h305l158 -299h-234l-86 156l-162 -156h-290zM1505 0h-391l8 578q3 281 29 624h-4q-106 -258 -283 -624l-278 -578h-391l57 1458h280l-26 -530q-14 -302 -51 -631h4q102 241 291 631l258 530h381l-5 -530q-3 -321 -24 -631h4q99 256 264 631l236 530h309z" />
    <glyph glyph-name="wcircumflex" unicode="&#x175;" horiz-adv-x="1658" 
d="M1362 1159h-242l-86 156l-162 -156h-282l307 299h305zM1290 0h-409l10 410q6 221 18 444h-4q-90 -237 -190 -444l-195 -410h-409l28 1040h273l-23 -401q-15 -282 -31 -453h4q87 220 195 449l193 405h393l-8 -405q-3 -204 -19 -449h4q79 224 183 453l178 401h297z" />
    <glyph glyph-name="Ycircumflex" unicode="&#x176;" horiz-adv-x="1306" 
d="M780 1855h305l158 -299h-233l-86 156l-162 -156h-291zM815 567l-141 -567h-301l141 567l-276 891h305l71 -274q42 -163 80 -371h4q117 184 260 371l207 274h369z" />
    <glyph glyph-name="ycircumflex" unicode="&#x177;" horiz-adv-x="1032" 
d="M1020 1159h-242l-86 156l-162 -156h-282l307 299h305zM1176 1040l-633 -1046q-132 -217 -263 -301t-329 -84q-80 0 -146 16l58 230q46 -17 106 -17q110 0 175 64t65 161q0 35 -10 132l-84 845h282l25 -348q17 -239 14 -436h4q119 254 222 436l194 348h320z" />
    <glyph glyph-name="Ydieresis" unicode="&#x178;" horiz-adv-x="1306" 
d="M766 1575h-252l61 246h252zM1210 1575h-252l62 246h252zM815 567l-141 -567h-301l141 567l-276 891h305l71 -274q42 -163 80 -371h4q117 184 260 371l207 274h369z" />
    <glyph glyph-name="Zacute" unicode="&#x179;" horiz-adv-x="1191" 
d="M897 1556h-238l222 299h366zM1280 1178l-934 -920v-4h739l-63 -254h-1110l70 281l933 919v4h-671l63 254h1043z" />
    <glyph glyph-name="zacute" unicode="&#x17a;" horiz-adv-x="991" 
d="M684 1159h-238l220 299h366zM983 795l-637 -566v-4h514l-55 -225h-877l62 246l637 565v4h-475l57 225h835z" />
    <glyph glyph-name="Zdotaccent" unicode="&#x17b;" horiz-adv-x="1191" 
d="M981 1575h-287l62 246h286zM1280 1178l-934 -920v-4h739l-63 -254h-1110l70 281l933 919v4h-671l63 254h1043z" />
    <glyph glyph-name="zdotaccent" unicode="&#x17c;" horiz-adv-x="991" 
d="M776 1212h-287l62 246h287zM983 795l-637 -566v-4h514l-55 -225h-877l62 246l637 565v4h-475l57 225h835z" />
    <glyph glyph-name="Zcaron" unicode="&#x17d;" horiz-adv-x="1191" 
d="M985 1556h-305l-158 299h234l86 -155l162 155h290zM1280 1178l-934 -920v-4h739l-63 -254h-1110l70 281l933 919v4h-671l63 254h1043z" />
    <glyph glyph-name="zcaron" unicode="&#x17e;" horiz-adv-x="991" 
d="M772 1159h-305l-160 299h242l86 -155l162 155h282zM983 795l-637 -566v-4h514l-55 -225h-877l62 246l637 565v4h-475l57 225h835z" />
    <glyph glyph-name="longs" unicode="&#x17f;" horiz-adv-x="698" 
d="M762 1475q76 0 149 -21l-49 -199q-21 7 -47 7q-80 0 -127.5 -41.5t-71.5 -137.5l-270 -1083h-283l207 827h-174l54 213h174l28 119q79 316 410 316z" />
    <glyph glyph-name="Schwa" unicode="&#x18f;" horiz-adv-x="1562" 
d="M963 1491q287 0 438 -155t151 -431q0 -103 -25 -210.5t-71.5 -213t-120.5 -198t-166 -163.5t-214.5 -112t-258.5 -41q-291 0 -440.5 154t-149.5 416q0 171 50 294h1063q6 47 6 89q0 82 -24.5 144t-67.5 97.5t-96.5 52.5t-116.5 17q-126 0 -222 -60.5t-135 -156.5h-348
q42 97 112.5 182t164 151.5t216 105t255.5 38.5zM733 233q140 0 254 91t170 258h-729q-4 -50 -4 -70q0 -136 85.5 -207.5t223.5 -71.5z" />
    <glyph glyph-name="florin" unicode="&#x192;" 
d="M1253 1481q95 0 166 -23l-53 -215q-42 10 -92 10q-84 0 -141.5 -42t-110.5 -146l-53 -107h217l-53 -213h-269l-368 -733q-109 -220 -230.5 -311.5t-304.5 -91.5q-88 0 -141 18l55 217q42 -10 88 -10q80 0 132.5 41t111.5 160l356 710h-198l53 213h250l65 129
q103 206 226.5 300t293.5 94z" />
    <glyph glyph-name="Aringacute" unicode="&#x1fa;" horiz-adv-x="1429" 
d="M1057 1987h-238l221 299h367zM969 1501q-92 0 -156.5 64.5t-64.5 156.5t64.5 157t156.5 65t156.5 -65t64.5 -157t-64.5 -156.5t-156.5 -64.5zM969 1833q-46 0 -78.5 -32.5t-32.5 -78.5t32.5 -78t78.5 -32t78 32t32 78t-32 78.5t-78 32.5zM1151 1458l143 -1458h-295
l-24 356h-559l-203 -356h-336l868 1458h406zM956 614l-6 97q-21 326 -26 569h-4q-132 -264 -304 -569l-55 -97h395z" />
    <glyph glyph-name="aringacute" unicode="&#x1fb;" horiz-adv-x="1120" 
d="M799 1602h-238l219 299h367zM711 1559q92 0 156.5 -65t64.5 -157t-64.5 -156.5t-156.5 -64.5t-157 64.5t-65 156.5t65 157t157 65zM711 1448q-46 0 -78.5 -32.5t-32.5 -78.5t32.5 -78t78.5 -32t78 32t32 78t-32 78.5t-78 32.5zM637 1073q399 0 399 -323q0 -64 -18 -138
l-82 -327q-46 -182 -43 -285h-250q0 64 16 121h-4q-149 -146 -350 -146q-150 0 -230.5 75.5t-80.5 201.5q0 49 13 92.5t46.5 88.5t85.5 80.5t136 64.5t192 45q146 20 283 28l6 25q10 42 10 67q0 129 -148 129q-76 0 -127.5 -41.5t-66.5 -115.5h-279q34 156 164 257t328 101z
M690 412l17 65q-120 -8 -215 -22q-201 -33 -201 -164q0 -52 34 -81.5t97 -29.5q103 0 171.5 60t96.5 172z" />
    <glyph glyph-name="AEacute" unicode="&#x1fc;" horiz-adv-x="1976" 
d="M1382 1556h-237l221 299h367zM1346 1200l-35 -330h585l-65 -256h-549l-37 -356h563l-63 -258h-805l39 367h-520l-250 -367h-350l1042 1458h1188l-64 -258h-679zM1067 1219h-29l-407 -598h373z" />
    <glyph glyph-name="aeacute" unicode="&#x1fd;" horiz-adv-x="1800" 
d="M1114 1159h-237l219 299h366zM1714 461h-725q-8 -44 -8 -88q0 -104 49 -153.5t129 -49.5q74 0 131.5 40.5t79.5 104.5h293q-61 -149 -201.5 -248.5t-318.5 -99.5q-257 0 -357 189q-158 -189 -407 -189q-184 0 -283.5 80t-99.5 213q0 54 16.5 103.5t58.5 99.5t106.5 86.5
t168.5 59t236 22.5h180l8 33q10 45 10 69q0 139 -157 139q-79 0 -132.5 -41.5t-68.5 -115.5h-279q34 156 163.5 257t324.5 101q244 0 336 -127q147 127 342 127q210 0 320 -114t110 -310q0 -77 -25 -188zM1292 870q-83 0 -151.5 -57.5t-106.5 -171.5h434q5 40 5 45
q0 92 -49.5 138t-131.5 46zM721 461h-150q-284 0 -284 -170q0 -56 37 -87.5t110 -31.5q111 0 178.5 63.5t100.5 192.5z" />
    <glyph glyph-name="Oslashacute" unicode="&#x1fe;" horiz-adv-x="1531" 
d="M1087 1556h-237l221 299h367zM1577 1380l-152 -151q86 -148 86 -361q0 -125 -31 -251t-96.5 -243.5t-157.5 -207.5t-224 -144.5t-285 -54.5q-256 0 -410 142l-137 -140l-109 109l150 149q-86 148 -86 363q0 125 31 251t96.5 243.5t157 207.5t223.5 144.5t285 54.5
q254 0 411 -141l139 139zM416 592q0 -72 16 -141l696 698q-83 92 -223 92q-116 0 -212 -62.5t-154.5 -160t-90.5 -209t-32 -217.5zM1221 868q0 68 -17 138l-696 -699q84 -90 221 -90q93 0 175 41.5t138.5 109t98 153t61 174.5t19.5 173z" />
    <glyph glyph-name="oslashacute" unicode="&#x1ff;" horiz-adv-x="1208" 
d="M827 1159h-237l219 299h367zM1194 1020l-125 -125q72 -113 72 -281q0 -86 -24 -175t-75.5 -174t-122.5 -151t-174 -106.5t-221 -40.5q-181 0 -297 86l-125 -125l-94 95l129 129q-69 106 -69 274q0 86 24 175t75 174t121.5 151t172.5 106.5t219 40.5q179 0 297 -82
l123 123zM657 862q-63 0 -116 -29.5t-88 -76.5t-60 -105.5t-36 -115t-11 -107.5q0 -23 4 -63l445 444q-50 53 -138 53zM549 178q63 0 116 29.5t88 76.5t60 105.5t36 115t11 107.5q0 38 -6 68l-446 -447q52 -55 141 -55z" />
    <glyph glyph-name="Scommaaccent" unicode="&#x218;" horiz-adv-x="1290" 
d="M809 1491q500 0 500 -371q0 -42 -17 -108h-305q6 30 6 59q0 87 -56 133.5t-165 46.5q-102 0 -172 -50t-70 -126q0 -70 59.5 -112t205.5 -89q53 -18 88.5 -31t80.5 -34.5t74 -43t60.5 -53.5t49 -69t29 -86.5t11.5 -107.5q0 -67 -24.5 -134.5t-76 -130t-123 -111
t-173.5 -77.5t-220 -29q-257 0 -397.5 103t-140.5 295q0 57 14 114h311q-8 -36 -8 -73q0 -195 256 -195q66 0 118 18t82.5 47.5t46 62t15.5 64.5q0 29 -6 52.5t-22.5 42.5t-33 32.5t-50 29t-59 25.5t-74.5 27q-45 16 -70 25t-66 26t-64.5 30t-56 34t-51.5 41.5t-40.5 49
t-33 59.5t-19 70.5t-7.5 84.5q0 80 39 159.5t111 147t188 110t256 42.5zM586 -334l-195 -219h-115l148 219h-92l53 213h254z" />
    <glyph glyph-name="scommaaccent" unicode="&#x219;" horiz-adv-x="1073" 
d="M625 1073q191 0 292 -73t101 -214q0 -31 -6 -65h-273q4 28 4 43q0 108 -143 108q-77 0 -114 -31t-37 -71q0 -43 39 -70t149 -65q42 -14 63.5 -22t59.5 -24.5t58.5 -31t47 -39t40.5 -51t24 -64t10 -81.5q0 -67 -31 -129t-90 -113.5t-155.5 -82t-217.5 -30.5
q-205 0 -316.5 75t-111.5 222q0 37 11 74h288q-6 -24 -6 -45q0 -58 40.5 -88.5t119.5 -30.5q77 0 120.5 30.5t43.5 82.5q0 54 -43.5 82t-157.5 67q-118 41 -164 70q-111 75 -112 227q0 63 29.5 122.5t85.5 108.5t147.5 79t204.5 30zM469 -334l-195 -219h-114l147 219h-92
l53 213h254z" />
    <glyph glyph-name="Tcommaaccent" unicode="&#x21a;" horiz-adv-x="1259" 
d="M1409 1200h-459l-299 -1200h-301l299 1200h-459l64 258h1219zM555 -334l-195 -219h-114l147 219h-92l53 213h254z" />
    <glyph glyph-name="tcommaaccent" unicode="&#x21b;" horiz-adv-x="731" 
d="M547 827l-109 -436q-10 -48 -10 -74q0 -55 26 -78.5t85 -23.5q31 0 67 8l-57 -223q-51 -14 -113 -14q-158 0 -231.5 61.5t-73.5 198.5q0 57 23 151l106 430h-168l53 213h168l68 271h287l-68 -271h199l-54 -213h-198zM141 -121h254l-53 -213l-195 -219h-114l147 219h-92z
" />
    <glyph glyph-name="dotlessj" unicode="&#x237;" horiz-adv-x="569" 
d="M559 1040l-272 -1095q-22 -88 -63 -153t-97.5 -104t-121.5 -58t-140 -19q-89 0 -154 18l51 205q21 -6 48 -6q84 0 134.5 46t78.5 163l249 1003h287z" />
    <glyph glyph-name="schwa" unicode="&#x259;" horiz-adv-x="1173" 
d="M668 1073q217 0 329.5 -117t112.5 -323q0 -88 -24 -179.5t-74.5 -179t-121 -156t-171.5 -110t-217 -41.5q-215 0 -328 114t-113 310q0 110 31 199h742q6 43 6 78q0 104 -52 153t-137 49q-77 0 -136 -37.5t-83 -97.5h-293q63 145 206 241.5t323 96.5zM518 170
q88 0 159 60.5t111 179.5h-456q-4 -40 -4 -56q0 -92 51.5 -138t138.5 -46z" />
    <glyph glyph-name="apostrophemod" unicode="&#x2bc;" horiz-adv-x="522" 
d="M559 1167l-205 -299h-145l172 299h-90l71 291h269z" />
    <glyph glyph-name="circumflex" unicode="&#x2c6;" horiz-adv-x="978" 
d="M1034 1159h-241l-86 156l-162 -156h-283l307 299h305z" />
    <glyph glyph-name="caron" unicode="&#x2c7;" horiz-adv-x="978" 
d="M803 1159h-305l-160 299h242l86 -155l161 155h283z" />
    <glyph glyph-name="firsttonechinese" unicode="&#x2c9;" horiz-adv-x="874" 
d="M948 1225h-667l45 186h667z" />
    <glyph glyph-name="breve" unicode="&#x2d8;" horiz-adv-x="921" 
d="M834 1458h219q-41 -147 -153.5 -228t-272.5 -81q-140 0 -217.5 66t-77.5 186q0 17 4 57h170q-2 -10 -2 -26q0 -50 35.5 -77.5t101.5 -27.5q73 0 124.5 34.5t68.5 96.5z" />
    <glyph glyph-name="dotaccent" unicode="&#x2d9;" horiz-adv-x="493" 
d="M563 1212h-287l62 246h287z" />
    <glyph glyph-name="ring" unicode="&#x2da;" horiz-adv-x="661" 
d="M541 1581q92 0 156.5 -64.5t64.5 -156.5t-64.5 -156.5t-156.5 -64.5t-157 64.5t-65 156.5t65 156.5t157 64.5zM541 1470q-46 0 -78.5 -32t-32.5 -78t32.5 -78.5t78.5 -32.5t78 32.5t32 78.5t-32 78t-78 32z" />
    <glyph glyph-name="ogonek" unicode="&#x2db;" horiz-adv-x="598" 
d="M135 0h225q-107 -63 -146.5 -109.5t-39.5 -91.5q0 -43 57 -43q39 0 76 13l-39 -154q-67 -18 -141 -18q-105 0 -158 39.5t-53 113.5q0 133 219 250z" />
    <glyph glyph-name="tilde" unicode="&#x2dc;" horiz-adv-x="974" 
d="M946 1458h160q-37 -129 -113.5 -202.5t-179.5 -73.5q-47 0 -87 14.5t-63.5 32.5t-54 32.5t-59.5 14.5q-83 0 -117 -94h-164q36 129 113 202.5t180 73.5q47 0 87.5 -14.5t64 -32.5t53.5 -32.5t59 -14.5q45 0 73.5 23t47.5 71z" />
    <glyph glyph-name="hungarumlaut" unicode="&#x2dd;" horiz-adv-x="1105" 
d="M500 1159h-238l260 299h326zM889 1159h-238l260 299h326z" />
    <glyph glyph-name="commaturnedabovecomb" unicode="&#x312;" horiz-adv-x="0" 
d="M483 1395h92l-51 -213h-254l52 213l194 219h115z" />
    <glyph glyph-name="commaaccent" unicode="&#x326;" horiz-adv-x="0" 
d="M143 -334l-194 -219h-115l148 219h-93l54 213h254z" />
    <glyph glyph-name="dbllowlinecomb" unicode="&#x333;" horiz-adv-x="0" 
d="M-193 -248h-1024l37 146h1024zM-266 -545h-1024l37 146h1024z" />
    <glyph glyph-name="numeralgreek" unicode="&#x374;" horiz-adv-x="440" 
d="M371 1040h-181l166 418h256z" />
    <glyph glyph-name="lowernumeralgreek" unicode="&#x375;" horiz-adv-x="440" 
d="M63 -188h-180l166 417h256z" />
    <glyph glyph-name="questiongreek" unicode="&#x37e;" horiz-adv-x="528" 
d="M467 698h-315l84 342h315zM293 0l-240 -352h-172l201 352h-105l84 342h316z" />
    <glyph glyph-name="tonos" unicode="&#x384;" horiz-adv-x="559" 
d="M477 1163h-213l156 336h280z" />
    <glyph glyph-name="dieresistonos" unicode="&#x385;" horiz-adv-x="1107" 
d="M766 1163h-195l148 320h237zM502 1188h-232l60 239h231zM1171 1188h-231l59 239h232z" />
    <glyph glyph-name="Alphatonos" unicode="&#x386;" horiz-adv-x="1429" 
d="M975 356h-559l-203 -356h-336l868 1458h406l143 -1458h-295zM348 1040h-213l176 418h281zM956 614l-6 97q-21 326 -26 569h-4q-132 -264 -304 -569l-55 -97h395z" />
    <glyph glyph-name="anoteleia" unicode="&#x387;" horiz-adv-x="528" 
d="M467 698h-315l84 342h315z" />
    <glyph glyph-name="Epsilontonos" unicode="&#x388;" horiz-adv-x="1296" 
d="M70 1040h-213l176 418h280zM1346 1200h-707l-82 -330h660l-66 -256h-659l-89 -356h725l-63 -258h-1026l362 1458h1008z" />
    <glyph glyph-name="Etatonos" unicode="&#x389;" horiz-adv-x="1536" 
d="M70 1040h-213l176 418h280zM1239 0h-301l156 629h-598l-156 -629h-301l362 1458h301l-141 -571h598l141 571h302z" />
    <glyph glyph-name="Iotatonos" unicode="&#x38a;" horiz-adv-x="636" 
d="M70 1040h-213l176 418h280zM340 0h-301l362 1458h301z" />
    <glyph glyph-name="Omicrontonos" unicode="&#x38c;" horiz-adv-x="1531" 
d="M918 1491q281 0 437 -167.5t156 -455.5q0 -125 -31 -251t-96.5 -243.5t-157.5 -207.5t-224 -144.5t-285 -54.5q-281 0 -436.5 167.5t-155.5 455.5q0 125 31 251t96.5 243.5t157 207.5t223.5 144.5t285 54.5zM158 1040h-213l176 418h280zM905 1225q-113 0 -207 -60.5
t-151 -155.5t-88 -203.5t-31 -213.5q0 -168 78.5 -263.5t222.5 -95.5q91 0 171 40t135 105.5t95 149t59 170.5t19 170q0 166 -79 261.5t-224 95.5z" />
    <glyph glyph-name="Upsilontonos" unicode="&#x38e;" horiz-adv-x="1306" 
d="M-49 1040h-213l176 418h281zM815 567l-141 -567h-301l141 567l-276 891h305l71 -274q42 -163 80 -371h4q117 184 260 371l207 274h369z" />
    <glyph glyph-name="Omegatonos" unicode="&#x38f;" horiz-adv-x="1503" 
d="M932 1491q265 0 415 -125.5t150 -370.5q0 -214 -106.5 -390.5t-319.5 -346.5v-4h303l-63 -254h-602l65 266q395 308 395 652q0 150 -74.5 228.5t-203.5 78.5q-107 0 -196 -51t-143.5 -132t-84 -176t-29.5 -190q0 -116 34 -213.5t97 -196.5l-65 -266h-570l64 254h311v4
q-164 236 -164 475q0 105 30.5 211t95 204.5t155 174.5t222 122t284.5 46zM139 1040h-213l176 418h281z" />
    <glyph glyph-name="iotadieresistonos" unicode="&#x390;" horiz-adv-x="647" 
d="M483 1163h-194l147 320h238zM219 1188h-231l59 239h232zM889 1188h-232l60 239h231zM545 1040l-150 -600q-20 -78 -20 -121q0 -55 26.5 -79.5t85.5 -24.5q32 0 64 8l-57 -225q-50 -12 -121 -12q-151 0 -223 61.5t-72 196.5q0 68 26 178l154 618h287z" />
    <glyph glyph-name="Alpha" unicode="&#x391;" horiz-adv-x="1429" 
d="M975 356h-559l-203 -356h-336l868 1458h406l143 -1458h-295zM956 614l-6 97q-21 326 -26 569h-4q-132 -264 -304 -569l-55 -97h395z" />
    <glyph glyph-name="Beta" unicode="&#x392;" horiz-adv-x="1331" 
d="M401 1458h484q242 0 361.5 -85t119.5 -238q0 -60 -17 -116t-54 -111.5t-107 -100.5t-166 -72v-4q111 -27 159 -95.5t48 -178.5q0 -83 -35.5 -162t-103.5 -146t-182.5 -108t-258.5 -41h-610zM641 1212l-88 -354h233q79 0 135.5 17t86 47.5t42.5 65t13 75.5
q0 76 -52.5 112.5t-162.5 36.5h-207zM494 621l-93 -373h244q158 0 221.5 59t63.5 158q0 84 -51.5 120t-169.5 36h-215z" />
    <glyph glyph-name="Gamma" unicode="&#x393;" horiz-adv-x="1040" 
d="M39 0l362 1458h852l-63 -258h-551l-299 -1200h-301z" />
    <glyph glyph-name="Delta" unicode="&#x394;" horiz-adv-x="1429" 
d="M1294 0h-1417l873 1458h405zM985 258l-33 453q-20 308 -28 569h-4q-124 -253 -302 -569l-256 -453h623z" />
    <glyph glyph-name="Epsilon" unicode="&#x395;" horiz-adv-x="1296" 
d="M1346 1200h-707l-82 -330h660l-66 -256h-659l-89 -356h725l-63 -258h-1026l362 1458h1008z" />
    <glyph glyph-name="Zeta" unicode="&#x396;" horiz-adv-x="1191" 
d="M1280 1178l-934 -920v-4h739l-63 -254h-1110l70 281l933 919v4h-671l63 254h1043z" />
    <glyph glyph-name="Eta" unicode="&#x397;" horiz-adv-x="1536" 
d="M1239 0h-301l156 629h-598l-156 -629h-301l362 1458h301l-141 -571h598l141 571h302z" />
    <glyph glyph-name="Theta" unicode="&#x398;" horiz-adv-x="1531" 
d="M930 1491q277 0 431.5 -163t154.5 -443q0 -128 -31.5 -256t-98.5 -247.5t-161 -211.5t-228.5 -147.5t-291.5 -55.5q-277 0 -430.5 163t-153.5 443q0 128 31.5 256t98 247.5t160 211.5t228 147.5t291.5 55.5zM905 1237q-116 0 -212.5 -62t-155 -159t-90 -207.5
t-31.5 -216.5q0 -171 82 -271t231 -100q94 0 176 41t138.5 108.5t97.5 152.5t60.5 173.5t19.5 171.5q0 169 -83.5 269t-232.5 100zM1061 614h-545l59 232h545z" />
    <glyph glyph-name="Iota" unicode="&#x399;" horiz-adv-x="636" 
d="M340 0h-301l362 1458h301z" />
    <glyph glyph-name="Kappa" unicode="&#x39a;" horiz-adv-x="1357" 
d="M805 752l416 -752h-351l-350 713h-4l-176 -713h-301l362 1458h301l-153 -616h4l598 616h385z" />
    <glyph glyph-name="Lambda" unicode="&#x39b;" horiz-adv-x="1400" 
d="M1266 0h-303l-39 700q-19 347 -21 564h-4q-140 -296 -287 -564l-387 -700h-348l852 1458h410z" />
    <glyph glyph-name="Mu" unicode="&#x39c;" horiz-adv-x="2015" 
d="M1718 0h-288l180 725q73 297 149 547h-4q-142 -275 -291 -537l-413 -735h-344l-50 735q-17 306 -20 537h-4q-67 -311 -125 -547l-180 -725h-289l362 1458h465l45 -670q19 -338 17 -536h4q131 291 270 536l377 670h502z" />
    <glyph glyph-name="Nu" unicode="&#x39d;" horiz-adv-x="1589" 
d="M1292 0h-403l-148 592q-79 323 -135 602h-4q-67 -362 -135 -633l-139 -561h-289l362 1458h404l147 -592q57 -236 135 -602h5q56 316 135 633l139 561h289z" />
    <glyph glyph-name="Xi" unicode="&#x39e;" horiz-adv-x="1382" 
d="M1411 1157h-1120l74 301h1120zM1233 584h-1051l74 301h1051zM1151 0h-1178l74 301h1178z" />
    <glyph glyph-name="Omicron" unicode="&#x39f;" horiz-adv-x="1531" 
d="M918 1491q281 0 437 -167.5t156 -455.5q0 -125 -31 -251t-96.5 -243.5t-157.5 -207.5t-224 -144.5t-285 -54.5q-281 0 -436.5 167.5t-155.5 455.5q0 125 31 251t96.5 243.5t157 207.5t223.5 144.5t285 54.5zM905 1225q-113 0 -207 -60.5t-151 -155.5t-88 -203.5
t-31 -213.5q0 -168 78.5 -263.5t222.5 -95.5q91 0 171 40t135 105.5t95 149t59 170.5t19 170q0 166 -79 261.5t-224 95.5z" />
    <glyph glyph-name="Pi" unicode="&#x3a0;" horiz-adv-x="1513" 
d="M1217 0h-299l299 1200h-578l-299 -1200h-301l362 1458h1178z" />
    <glyph glyph-name="Rho" unicode="&#x3a1;" horiz-adv-x="1302" 
d="M401 1458h449q258 0 387 -112t129 -314q0 -70 -20.5 -140t-66 -138.5t-112 -121t-166.5 -84.5t-221 -32h-311l-129 -516h-301zM641 1208l-111 -442h250q75 0 131.5 21.5t87 57.5t45.5 76.5t15 84.5q0 202 -230 202h-188z" />
    <glyph glyph-name="Sigma" unicode="&#x3a3;" horiz-adv-x="1198" 
d="M1298 1204h-712v-4l241 -483l-471 -459v-4h736l-64 -254h-1110l72 289l489 477l-233 463l57 229h1059z" />
    <glyph glyph-name="Tau" unicode="&#x3a4;" horiz-adv-x="1259" 
d="M1409 1200h-459l-299 -1200h-301l299 1200h-459l64 258h1219z" />
    <glyph glyph-name="Upsilon" unicode="&#x3a5;" horiz-adv-x="1306" 
d="M815 567l-141 -567h-301l141 567l-276 891h305l71 -274q42 -163 80 -371h4q117 184 260 371l207 274h369z" />
    <glyph glyph-name="Phi" unicode="&#x3a6;" horiz-adv-x="1708" 
d="M1681 813q0 -104 -28 -204.5t-90 -194.5t-152 -165t-223.5 -113.5t-294.5 -43.5l-39 -153h-289l41 163q-232 34 -352.5 175.5t-120.5 379.5q0 101 28 200.5t90.5 194t152 166.5t224 116t296.5 44l37 142h288l-39 -152q229 -35 350 -177t121 -378zM436 674
q0 -132 58.5 -215t173.5 -109l194 778q-88 -7 -160.5 -38t-120.5 -77t-81.5 -104t-48.5 -117t-15 -118zM1149 1118l-195 -776q86 7 157 39t118.5 78t80.5 103.5t47.5 116t14.5 116.5q0 131 -57.5 214t-165.5 109z" />
    <glyph glyph-name="Chi" unicode="&#x3a7;" horiz-adv-x="1290" 
d="M870 727l285 -727h-319l-170 502h-4l-404 -502h-381l653 756l-268 702h313l158 -489h4l383 489h375z" />
    <glyph glyph-name="Psi" unicode="&#x3a8;" horiz-adv-x="1722" 
d="M1874 1458l-137 -549q-77 -290 -262 -430t-510 -147l-82 -332h-301l84 340q-248 26 -368 139.5t-120 325.5q0 109 33 235l104 418h301l-106 -426q-25 -106 -25 -176q0 -121 58.5 -184t185.5 -76l215 862h301l-215 -866q180 10 275 94.5t143 271.5l125 500h301z" />
    <glyph glyph-name="Omega" unicode="&#x3a9;" horiz-adv-x="1503" 
d="M932 1491q265 0 415 -125.5t150 -370.5q0 -214 -106.5 -390.5t-319.5 -346.5v-4h303l-63 -254h-602l65 266q395 308 395 652q0 150 -74.5 228.5t-203.5 78.5q-107 0 -196 -51t-143.5 -132t-84 -176t-29.5 -190q0 -116 34 -213.5t97 -196.5l-65 -266h-570l64 254h311v4
q-164 236 -164 475q0 105 30.5 211t95 204.5t155 174.5t222 122t284.5 46z" />
    <glyph glyph-name="Iotadieresis" unicode="&#x3aa;" horiz-adv-x="636" 
d="M500 1630h-252l61 246h252zM944 1630h-252l62 246h252zM340 0h-301l362 1458h301z" />
    <glyph glyph-name="Upsilondieresis" unicode="&#x3ab;" horiz-adv-x="1306" 
d="M766 1575h-252l61 246h252zM1210 1575h-252l62 246h252zM815 567l-141 -567h-301l141 567l-276 891h305l71 -274q42 -163 80 -371h4q117 184 260 371l207 274h369z" />
    <glyph glyph-name="alphatonos" unicode="&#x3ac;" horiz-adv-x="1255" 
d="M831 1163h-213l156 336h281zM623 1067q99 0 173 -48t101 -136h4q18 69 55 157h279q-63 -159 -113 -368l-80 -328q-12 -47 -12 -74q0 -63 68 -63q24 0 51 6l-53 -211q-70 -18 -158 -18q-184 0 -211 137h-4q-65 -71 -144.5 -109.5t-158.5 -38.5q-171 0 -266 108t-95 298
q0 89 23 183.5t70.5 184.5t113 161.5t158.5 115t199 43.5zM653 848q-68 0 -125 -41t-92 -105t-54.5 -137t-19.5 -143q0 -108 43.5 -168.5t124.5 -60.5q68 0 125 41t92 104.5t54.5 136.5t19.5 143q0 108 -43.5 169t-124.5 61z" />
    <glyph glyph-name="epsilontonos" unicode="&#x3ad;" horiz-adv-x="1060" 
d="M778 1163h-213l156 336h280zM635 1073q187 0 289 -83t102 -236q0 -36 -4 -56h-285q2 12 2 33q0 131 -141 131q-78 0 -121 -39t-43 -90t40.5 -79.5t113.5 -28.5h90l-51 -207h-115q-105 0 -158 -37.5t-53 -91.5q0 -52 41.5 -81.5t112.5 -29.5q171 0 209 156h286
q-43 -181 -177 -274t-349 -93q-190 0 -299 75.5t-109 211.5q0 101 66.5 180.5t210.5 118.5v4q-133 61 -133 178q0 61 29 119t84.5 108t149.5 80.5t212 30.5z" />
    <glyph glyph-name="etatonos" unicode="&#x3ae;" horiz-adv-x="1261" 
d="M821 1163h-213l156 336h280zM854 1065q153 0 237.5 -78.5t84.5 -228.5q0 -68 -21 -150l-246 -987h-286l243 981q15 61 15 107q0 131 -138 131q-92 0 -166 -73t-108 -210l-139 -557h-287l172 690q12 53 12 84q0 68 -65 68q-29 0 -53 -6l51 204q73 17 129 17
q191 0 203 -168h4q75 82 166.5 129t191.5 47z" />
    <glyph glyph-name="iotatonos" unicode="&#x3af;" horiz-adv-x="647" 
d="M537 1163h-213l155 336h281zM545 1040l-150 -600q-20 -78 -20 -121q0 -55 26.5 -79.5t85.5 -24.5q32 0 64 8l-57 -225q-50 -12 -121 -12q-151 0 -223 61.5t-72 196.5q0 68 26 178l154 618h287z" />
    <glyph glyph-name="upsilondieresistonos" unicode="&#x3b0;" horiz-adv-x="1232" 
d="M762 1163h-195l148 320h237zM498 1188h-232l60 239h231zM1167 1188h-231l59 239h232zM297 1057q112 0 167.5 -51.5t55.5 -171.5q0 -56 -22 -146l-70 -276q-12 -50 -12 -86q0 -136 153 -136q61 0 112.5 33t86 89.5t60 125t40 147t21 148t6.5 133.5q0 81 -14 174h278
q12 -89 12 -186q0 -91 -9 -177.5t-30.5 -176t-54 -166.5t-83.5 -145.5t-114.5 -117t-150.5 -76.5t-190 -28q-201 0 -304.5 84.5t-103.5 263.5q0 56 19 134l55 221q16 66 16 98q0 37 -16 51.5t-49 14.5q-26 0 -54 -7l54 211q74 19 141 19z" />
    <glyph glyph-name="alpha" unicode="&#x3b1;" horiz-adv-x="1255" 
d="M623 1067q99 0 173 -48t101 -136h4q18 69 55 157h279q-63 -159 -113 -368l-80 -328q-12 -47 -12 -74q0 -63 68 -63q24 0 51 6l-53 -211q-70 -18 -158 -18q-184 0 -211 137h-4q-65 -71 -144.5 -109.5t-158.5 -38.5q-171 0 -266 108t-95 298q0 89 23 183.5t70.5 184.5
t113 161.5t158.5 115t199 43.5zM653 848q-68 0 -125 -41t-92 -105t-54.5 -137t-19.5 -143q0 -108 43.5 -168.5t124.5 -60.5q68 0 125 41t92 104.5t54.5 136.5t19.5 143q0 108 -43.5 169t-124.5 61z" />
    <glyph glyph-name="beta" unicode="&#x3b2;" horiz-adv-x="1241" 
d="M821 1491q200 0 311 -94t111 -260q0 -123 -85.5 -221t-256.5 -136v-4q111 -30 176.5 -113t65.5 -208q0 -65 -20 -130.5t-63.5 -128t-104 -110.5t-148.5 -77t-191 -29q-224 0 -288 131h-4l-121 -490h-287l350 1403q56 225 199.5 346t355.5 121zM805 1278
q-101 0 -161.5 -68.5t-98.5 -216.5l-142 -563q-8 -31 -8 -65q0 -82 48 -127t147 -45q66 0 119.5 25.5t84.5 66t47.5 85.5t16.5 89q0 106 -63.5 156.5t-190.5 50.5h-20l55 223h37q146 0 221.5 69t75.5 162q0 75 -44 116.5t-124 41.5z" />
    <glyph glyph-name="gamma" unicode="&#x3b3;" horiz-adv-x="1138" 
d="M938 1040h309q-102 -292 -256 -526t-413 -502q-52 -210 -119 -391h-287q76 209 113 368.5t37 340.5q0 88 -7 167t-25 162.5t-55.5 133t-91.5 49.5q-19 0 -47 -4l51 202q62 19 121 19q159 0 225 -128.5t66 -418.5q0 -90 -10 -188h4q135 177 227 346.5t158 369.5z" />
    <glyph glyph-name="delta" unicode="&#x3b4;" horiz-adv-x="1208" 
d="M807 1479q246 0 438 -62l-55 -227q-180 80 -371 80q-137 0 -137 -68q0 -34 41 -70t139 -100q132 -88 201.5 -199t69.5 -260q0 -106 -40.5 -211.5t-115 -194.5t-195 -144.5t-266.5 -55.5q-216 0 -338.5 112t-122.5 310q0 88 29.5 173.5t88.5 165t157 144t225 101.5v4
q-85 64 -125.5 118t-40.5 115q0 39 12 75.5t42.5 72.5t77 62t120 42.5t166.5 16.5zM688 823q-111 -37 -189 -112t-111.5 -156t-33.5 -162q0 -99 46 -153t132 -54q56 0 105 22t83.5 58.5t59.5 82t37 92.5t12 91q0 194 -141 291z" />
    <glyph glyph-name="epsilon" unicode="&#x3b5;" horiz-adv-x="1060" 
d="M635 1073q187 0 289 -83t102 -236q0 -36 -4 -56h-285q2 12 2 33q0 131 -141 131q-78 0 -121 -39t-43 -90t40.5 -79.5t113.5 -28.5h90l-51 -207h-115q-105 0 -158 -37.5t-53 -91.5q0 -52 41.5 -81.5t112.5 -29.5q171 0 209 156h286q-43 -181 -177 -274t-349 -93
q-190 0 -299 75.5t-109 211.5q0 101 66.5 180.5t210.5 118.5v4q-133 61 -133 178q0 61 29 119t84.5 108t149.5 80.5t212 30.5z" />
    <glyph glyph-name="zeta" unicode="&#x3b6;" horiz-adv-x="987" 
d="M1180 1458l-52 -207q-194 -93 -343.5 -200t-240 -212t-136.5 -205.5t-46 -193.5q0 -88 55 -136.5t181 -78.5q116 -27 164.5 -87t48.5 -158q0 -62 -24 -137t-66 -140h-244q66 112 66 180q0 46 -35.5 74.5t-124.5 46.5q-179 35 -257.5 117.5t-78.5 236.5q0 141 78.5 294.5
t244 311.5t396.5 283v4h-459l51 207h822z" />
    <glyph glyph-name="eta" unicode="&#x3b7;" horiz-adv-x="1261" 
d="M854 1065q153 0 237.5 -78.5t84.5 -228.5q0 -68 -21 -150l-246 -987h-286l243 981q15 61 15 107q0 131 -138 131q-92 0 -166 -73t-108 -210l-139 -557h-287l172 690q12 53 12 84q0 68 -65 68q-29 0 -53 -6l51 204q73 17 129 17q191 0 203 -168h4q75 82 166.5 129
t191.5 47z" />
    <glyph glyph-name="theta" unicode="&#x3b8;" horiz-adv-x="1275" 
d="M831 1487q222 0 335.5 -129t113.5 -375q0 -106 -20.5 -219.5t-59.5 -227.5t-101.5 -215.5t-140.5 -179.5t-183.5 -124t-223.5 -46q-222 0 -336.5 130t-114.5 376q0 125 28.5 261t89.5 270t145 240.5t206 172.5t262 66zM815 1278q-64 0 -123 -37.5t-104.5 -102.5t-81 -142
t-62.5 -167h539q14 88 14 170q0 137 -46.5 208t-135.5 71zM567 180q64 0 122.5 37.5t104 103t80.5 142t62 166.5h-539q-14 -88 -14 -166q0 -138 47 -210.5t137 -72.5z" />
    <glyph glyph-name="iota" unicode="&#x3b9;" horiz-adv-x="647" 
d="M545 1040l-150 -600q-20 -78 -20 -121q0 -55 26.5 -79.5t85.5 -24.5q32 0 64 8l-57 -225q-50 -12 -121 -12q-151 0 -223 61.5t-72 196.5q0 68 26 178l154 618h287z" />
    <glyph glyph-name="kappa" unicode="&#x3ba;" horiz-adv-x="1146" 
d="M1145 1055q47 0 106 -19l-57 -227q-21 6 -53 6q-92 0 -192 -58t-263 -202l-12 -10l370 -545h-317l-250 371l-123 -107l-65 -264h-287l260 1040h287l-107 -424h4l238 215q144 128 245.5 176t215.5 48z" />
    <glyph glyph-name="lambda" unicode="&#x3bb;" horiz-adv-x="1222" 
d="M524 1477q108 0 180 -42t121 -147t72 -284l76 -596q16 -124 45.5 -166.5t81.5 -42.5q12 0 28 4l-49 -205q-43 -14 -102 -14q-87 0 -137.5 23t-83 89t-43.5 187q-6 69 -22 221.5t-23 234.5h-2q-103 -160 -279 -426l-207 -313h-323l721 1030q-12 125 -47.5 174t-110.5 49
q-55 0 -105 -16l54 217q65 23 155 23z" />
    <glyph glyph-name="mu" unicode="&#x3bc;" horiz-adv-x="1255" 
d="M1225 1040l-172 -696q-13 -50 -13 -74q0 -63 68 -63q24 0 51 6l-53 -215q-52 -14 -125 -14q-185 0 -197 166h-4q-42 -74 -124 -118t-175 -44q-118 0 -172 69l-108 -436h-287l354 1419h287l-149 -598q-13 -60 -13 -94q0 -147 148 -147q87 0 156.5 72.5t103.5 209.5
l137 557h287z" />
    <glyph glyph-name="nu" unicode="&#x3bd;" horiz-adv-x="1110" 
d="M270 1057q118 0 173 -74.5t51 -241.5l-13 -524h4q196 279 284.5 442.5t123.5 301.5q9 40 12 79h291q0 -46 -12 -96q-43 -170 -153.5 -357.5t-403.5 -586.5h-381l-25 662q-3 103 -22.5 141.5t-67.5 38.5q-23 0 -41 -6l51 200q61 21 129 21z" />
    <glyph glyph-name="xi" unicode="&#x3be;" horiz-adv-x="997" 
d="M1149 1251h-199q-107 0 -187.5 -22.5t-125 -60.5t-65.5 -80t-21 -87q0 -72 57.5 -110.5t157.5 -38.5h203l-51 -205h-195q-104 0 -180.5 -23.5t-117 -62t-59 -79t-18.5 -83.5q0 -71 51.5 -109t180.5 -63q130 -25 185.5 -91t55.5 -177q0 -58 -22 -127t-62 -129h-243
q63 94 63 174q0 54 -39.5 85.5t-136.5 45.5q-178 27 -261 108.5t-83 219.5q0 71 24 138.5t72 129.5t129.5 109.5t188.5 70.5v4q-164 48 -164 191q0 85 54 161.5t159 106.5v4h-201l51 207h850z" />
    <glyph glyph-name="omicron" unicode="&#x3bf;" horiz-adv-x="1208" 
d="M680 1073q222 0 341.5 -121t119.5 -338q0 -86 -24 -175t-75.5 -174t-122.5 -151t-174 -106.5t-221 -40.5q-221 0 -338.5 121t-117.5 338q0 86 24 175t75 174t121.5 151t172.5 106.5t219 40.5zM657 852q-73 0 -132.5 -43t-93.5 -109t-51.5 -136.5t-17.5 -135.5
q0 -114 47.5 -177t139.5 -63q73 0 132.5 43t93.5 109t51.5 136.5t17.5 135.5q0 114 -47.5 177t-139.5 63z" />
    <glyph glyph-name="pi" unicode="&#x3c0;" horiz-adv-x="1376" 
d="M1415 827h-205l-108 -440q-17 -63 -17 -92q0 -54 25 -75t78 -21q19 0 43 4l-53 -205q-51 -14 -113 -14q-141 0 -209 55.5t-68 183.5q0 63 25 158l111 446h-353l-204 -827h-287l205 827h-191l53 213h1321z" />
    <glyph glyph-name="rho" unicode="&#x3c1;" horiz-adv-x="1232" 
d="M705 1073q222 0 341 -121t119 -338q0 -84 -22.5 -172t-70.5 -172t-114.5 -149.5t-162 -105.5t-205.5 -40q-187 0 -273 144h-4l-123 -498h-286l239 963q24 95 70.5 180t115 155.5t166 112t210.5 41.5zM682 852q-59 0 -109.5 -28t-84 -73t-57 -101t-34 -111t-10.5 -105
q0 -114 47 -176.5t139 -62.5q59 0 109.5 28t84 72.5t57 100.5t34 111t10.5 105q0 115 -47 177.5t-139 62.5z" />
    <glyph glyph-name="sigmafinal" unicode="&#x3c2;" horiz-adv-x="1130" 
d="M678 1073q218 0 327 -101t109 -280q0 -42 -6 -88h-297q6 30 6 55q0 91 -43.5 143t-128.5 52q-64 0 -118.5 -36.5t-87.5 -91.5t-51.5 -115t-18.5 -113q0 -100 51 -158.5t158 -81.5q147 -31 208.5 -95t61.5 -171q0 -149 -94 -289h-244q32 45 50 96.5t18 87.5q0 56 -38.5 89
t-133.5 47q-347 53 -347 403q0 87 23.5 176.5t74.5 174.5t122 150.5t174.5 105.5t224.5 40z" />
    <glyph glyph-name="sigma" unicode="&#x3c3;" horiz-adv-x="1261" 
d="M1319 834h-301v-5q100 -100 100 -264q0 -80 -23.5 -162t-72.5 -160.5t-117.5 -140t-167.5 -98.5t-213 -37q-222 0 -341.5 119t-119.5 332q0 83 24 168.5t75 167t121 145t171.5 102.5t217.5 39h698zM651 819q-73 0 -132 -40.5t-92.5 -103t-51 -129.5t-17.5 -128
q0 -108 48.5 -169t140.5 -61q73 0 132 40.5t92.5 103.5t51 129.5t17.5 128.5q0 108 -48.5 168.5t-140.5 60.5z" />
    <glyph glyph-name="tau" unicode="&#x3c4;" horiz-adv-x="958" 
d="M1018 834h-330l-110 -447q-17 -63 -17 -92q0 -54 25 -75t78 -21q19 0 43 4l-54 -205q-51 -14 -112 -14q-141 0 -209 55.5t-68 183.5q0 63 25 158l112 453h-305l51 206h922z" />
    <glyph glyph-name="upsilon" unicode="&#x3c5;" horiz-adv-x="1232" 
d="M297 1057q112 0 167.5 -51.5t55.5 -171.5q0 -56 -22 -146l-70 -276q-12 -50 -12 -86q0 -136 153 -136q61 0 112.5 33t86 89.5t60 125t40 147t21 148t6.5 133.5q0 81 -14 174h278q12 -89 12 -186q0 -91 -9 -177.5t-30.5 -176t-54 -166.5t-83.5 -145.5t-114.5 -117
t-150.5 -76.5t-190 -28q-201 0 -304.5 84.5t-103.5 263.5q0 56 19 134l55 221q16 66 16 98q0 37 -16 51.5t-49 14.5q-26 0 -54 -7l54 211q74 19 141 19z" />
    <glyph glyph-name="phi" unicode="&#x3c6;" horiz-adv-x="1628" 
d="M1159 1356l-72 -289q225 -26 348.5 -150.5t123.5 -328.5q0 -85 -26 -170.5t-83 -167t-137.5 -144.5t-200 -101t-260.5 -38h-39l-86 -346h-272l88 352q-225 25 -349 150t-124 330q0 85 26 170.5t83 167t137.5 144t198.5 100.5t257 38h45l70 283h272zM358 449
q0 -119 59.5 -188.5t174.5 -84.5l174 692h-29q-79 -2 -143.5 -28.5t-107.5 -69t-72.5 -97.5t-42.5 -111t-13 -113zM864 172h25q78 2 143 29.5t108 71t73 99t43.5 111.5t13.5 111q0 240 -234 270z" />
    <glyph glyph-name="chi" unicode="&#x3c7;" horiz-adv-x="1230" 
d="M291 1067q130 0 191.5 -59.5t92.5 -210.5l48 -226h4l383 469h344l-627 -733l74 -313q25 -103 63 -138.5t103 -35.5q35 0 65 6l-49 -205q-60 -16 -139 -16q-123 0 -184 60t-97 212l-47 199h-4l-393 -455h-344l643 713l-80 338q-25 105 -62 142.5t-106 37.5q-36 0 -74 -10
l51 205q65 20 144 20z" />
    <glyph glyph-name="psi" unicode="&#x3c8;" horiz-adv-x="1685" 
d="M1628 913q0 -109 -11 -206.5t-37 -192.5t-66 -173.5t-101 -146t-139 -114t-183.5 -73t-230.5 -27.5l-90 -359h-287l90 365q-456 39 -456 420q0 58 24 163l117 471h287l-123 -499q-14 -55 -14 -105q0 -205 221 -235l286 1155h287l-289 -1161q433 24 433 723q0 34 -9 122
h283q8 -82 8 -127z" />
    <glyph glyph-name="omega" unicode="&#x3c9;" horiz-adv-x="1703" 
d="M1278 1040h307q41 -140 41 -297q0 -104 -20.5 -210t-65.5 -207.5t-108 -180t-156.5 -126.5t-202.5 -48q-238 0 -282 215h-5q-102 -215 -368 -215q-346 0 -346 334q0 150 75.5 358.5t198.5 376.5h311q-124 -161 -203 -361t-79 -335q0 -158 123 -158q127 0 170 172l108 435
h287l-100 -402q-11 -43 -11 -82q0 -123 111 -123q59 0 106 40.5t75 101.5t47.5 139t26.5 148t7 133q0 156 -47 292z" />
    <glyph glyph-name="iotadieresis" unicode="&#x3ca;" horiz-adv-x="647" 
d="M348 1212h-252l62 246h252zM793 1212h-252l61 246h252zM545 1040l-150 -600q-20 -78 -20 -121q0 -55 26.5 -79.5t85.5 -24.5q32 0 64 8l-57 -225q-50 -12 -121 -12q-151 0 -223 61.5t-72 196.5q0 68 26 178l154 618h287z" />
    <glyph glyph-name="upsilondieresis" unicode="&#x3cb;" horiz-adv-x="1232" 
d="M627 1212h-252l61 246h252zM1071 1212h-252l62 246h252zM297 1057q112 0 167.5 -51.5t55.5 -171.5q0 -56 -22 -146l-70 -276q-12 -50 -12 -86q0 -136 153 -136q61 0 112.5 33t86 89.5t60 125t40 147t21 148t6.5 133.5q0 81 -14 174h278q12 -89 12 -186q0 -91 -9 -177.5
t-30.5 -176t-54 -166.5t-83.5 -145.5t-114.5 -117t-150.5 -76.5t-190 -28q-201 0 -304.5 84.5t-103.5 263.5q0 56 19 134l55 221q16 66 16 98q0 37 -16 51.5t-49 14.5q-26 0 -54 -7l54 211q74 19 141 19z" />
    <glyph glyph-name="omicrontonos" unicode="&#x3cc;" horiz-adv-x="1208" 
d="M827 1163h-213l156 336h281zM680 1073q222 0 341.5 -121t119.5 -338q0 -86 -24 -175t-75.5 -174t-122.5 -151t-174 -106.5t-221 -40.5q-221 0 -338.5 121t-117.5 338q0 86 24 175t75 174t121.5 151t172.5 106.5t219 40.5zM657 852q-73 0 -132.5 -43t-93.5 -109
t-51.5 -136.5t-17.5 -135.5q0 -114 47.5 -177t139.5 -63q73 0 132.5 43t93.5 109t51.5 136.5t17.5 135.5q0 114 -47.5 177t-139.5 63z" />
    <glyph glyph-name="upsilontonos" unicode="&#x3cd;" horiz-adv-x="1232" 
d="M815 1163h-213l156 336h280zM297 1057q112 0 167.5 -51.5t55.5 -171.5q0 -56 -22 -146l-70 -276q-12 -50 -12 -86q0 -136 153 -136q61 0 112.5 33t86 89.5t60 125t40 147t21 148t6.5 133.5q0 81 -14 174h278q12 -89 12 -186q0 -91 -9 -177.5t-30.5 -176t-54 -166.5
t-83.5 -145.5t-114.5 -117t-150.5 -76.5t-190 -28q-201 0 -304.5 84.5t-103.5 263.5q0 56 19 134l55 221q16 66 16 98q0 37 -16 51.5t-49 14.5q-26 0 -54 -7l54 211q74 19 141 19z" />
    <glyph glyph-name="omegatonos" unicode="&#x3ce;" horiz-adv-x="1703" 
d="M1116 1163h-213l156 336h280zM1278 1040h307q41 -140 41 -297q0 -104 -20.5 -210t-65.5 -207.5t-108 -180t-156.5 -126.5t-202.5 -48q-238 0 -282 215h-5q-102 -215 -368 -215q-346 0 -346 334q0 150 75.5 358.5t198.5 376.5h311q-124 -161 -203 -361t-79 -335
q0 -158 123 -158q127 0 170 172l108 435h287l-100 -402q-11 -43 -11 -82q0 -123 111 -123q59 0 106 40.5t75 101.5t47.5 139t26.5 148t7 133q0 156 -47 292z" />
    <glyph glyph-name="Iegravecy" unicode="&#x400;" horiz-adv-x="1296" 
d="M1083 1556h-213l-223 299h342zM1346 1200h-707l-82 -330h660l-66 -256h-659l-89 -356h725l-63 -258h-1026l362 1458h1008z" />
    <glyph glyph-name="Iocy" unicode="&#x401;" horiz-adv-x="1296" 
d="M817 1575h-252l62 246h252zM1262 1575h-252l61 246h252zM1346 1200h-707l-82 -330h660l-66 -256h-659l-89 -356h725l-63 -258h-1026l362 1458h1008z" />
    <glyph glyph-name="Djecy" unicode="&#x402;" horiz-adv-x="1642" 
d="M1409 1200h-459l-76 -305q121 51 271 51q209 0 319.5 -112t112.5 -306q0 -103 -37 -199.5t-107.5 -177t-187 -129.5t-260.5 -49q-119 0 -203 31l62 248q65 -21 149 -21q75 0 132.5 24t89 62.5t46.5 81t15 86.5q0 203 -232 203q-128 0 -233 -47l-160 -641h-301l299 1200
h-459l64 258h1219z" />
    <glyph glyph-name="Gjecy" unicode="&#x403;" horiz-adv-x="1040" 
d="M895 1556h-238l222 299h366zM39 0l362 1458h852l-63 -258h-551l-299 -1200h-301z" />
    <glyph glyph-name="Ecy" unicode="&#x404;" horiz-adv-x="1452" 
d="M1460 924h-303q4 36 4 57q0 114 -67 179t-185 65q-79 0 -148.5 -29t-122.5 -81t-93 -116t-68 -141h508l-63 -258h-494v-22q0 -158 71 -251.5t206 -93.5q116 0 211.5 66.5t142.5 183.5h309q-78 -245 -260.5 -380.5t-429.5 -135.5q-266 0 -413.5 158.5t-147.5 431.5
q0 105 22.5 213t66.5 213t113.5 196.5t157.5 161t206.5 110t252.5 40.5q245 0 388.5 -129.5t143.5 -347.5q0 -49 -8 -90z" />
    <glyph glyph-name="Dzecy" unicode="&#x405;" horiz-adv-x="1290" 
d="M809 1491q500 0 500 -371q0 -42 -17 -108h-305q6 30 6 59q0 87 -56 133.5t-165 46.5q-102 0 -172 -50t-70 -126q0 -70 59.5 -112t205.5 -89q53 -18 88.5 -31t80.5 -34.5t74 -43t60.5 -53.5t49 -69t29 -86.5t11.5 -107.5q0 -67 -24.5 -134.5t-76 -130t-123 -111
t-173.5 -77.5t-220 -29q-257 0 -397.5 103t-140.5 295q0 57 14 114h311q-8 -36 -8 -73q0 -195 256 -195q66 0 118 18t82.5 47.5t46 62t15.5 64.5q0 29 -6 52.5t-22.5 42.5t-33 32.5t-50 29t-59 25.5t-74.5 27q-45 16 -70 25t-66 26t-64.5 30t-56 34t-51.5 41.5t-40.5 49
t-33 59.5t-19 70.5t-7.5 84.5q0 80 39 159.5t111 147t188 110t256 42.5z" />
    <glyph glyph-name="Icy" unicode="&#x406;" horiz-adv-x="636" 
d="M340 0h-301l362 1458h301z" />
    <glyph glyph-name="Yicy" unicode="&#x407;" horiz-adv-x="636" 
d="M485 1575h-252l62 246h252zM930 1575h-252l61 246h252zM340 0h-301l362 1458h301z" />
    <glyph glyph-name="Jecy" unicode="&#x408;" horiz-adv-x="802" 
d="M879 1458l-256 -1026q-57 -229 -195 -337.5t-377 -108.5q-84 0 -149 20l63 252q45 -10 82 -10q62 0 105.5 12t82 44.5t66 91t49.5 149.5l228 913h301z" />
    <glyph glyph-name="Ljecy" unicode="&#x409;" horiz-adv-x="2170" 
d="M1444 942h147q258 0 388 -112t130 -314q0 -70 -20.5 -140t-66.5 -138.5t-112.5 -121t-167.5 -84.5t-222 -32h-613l299 1200h-409q-72 -259 -134.5 -446.5t-125 -323.5t-119.5 -221t-125 -134.5t-135 -68t-156 -18.5q-63 0 -106 16l59 242q12 -4 35 -4q52 0 91 17
t82.5 67.5t83 132t90 221.5t105.5 325.5t129 452.5h1000zM1382 692l-110 -442h248q75 0 131 21.5t87 57t45.5 76t14.5 84.5q0 203 -229 203h-187z" />
    <glyph glyph-name="Njecy" unicode="&#x40a;" horiz-adv-x="2199" 
d="M1473 942h147q255 0 384.5 -112.5t129.5 -313.5q0 -70 -20.5 -140t-66.5 -138.5t-112.5 -121t-166.5 -84.5t-220 -32h-610l156 629h-598l-156 -629h-301l362 1458h301l-141 -571h598l141 571h302zM1300 250h248q75 0 131 21.5t87 57t46 76t15 84.5q0 203 -230 203h-186z
" />
    <glyph glyph-name="Tshecy" unicode="&#x40b;" horiz-adv-x="1640" 
d="M1409 1200h-459l-86 -340q144 37 273 37q211 0 317.5 -91t106.5 -267q0 -55 -25 -164l-92 -375h-301l92 373q10 48 10 80q0 91 -54 138.5t-159 47.5q-122 0 -231 -37l-150 -602h-301l299 1200h-459l64 258h1219z" />
    <glyph glyph-name="Kjecy" unicode="&#x40c;" horiz-adv-x="1357" 
d="M1001 1556h-237l221 299h367zM805 752l416 -752h-351l-350 713h-4l-176 -713h-301l362 1458h301l-153 -616h4l598 616h385z" />
    <glyph glyph-name="Iigravecy" unicode="&#x40d;" horiz-adv-x="1603" 
d="M1235 1556h-213l-223 299h342zM1305 0h-289l139 561q60 237 174 633h-4q-243 -377 -405 -602l-422 -592h-461l364 1458h289l-141 -561q-64 -264 -174 -633h4q212 328 405 602l424 592h461z" />
    <glyph glyph-name="Ushortcy" unicode="&#x40e;" horiz-adv-x="1396" 
d="M1130 1855h220q-41 -147 -153.5 -228t-272.5 -81q-140 0 -217.5 66t-77.5 186q0 17 4 57h170q-2 -10 -2 -26q0 -50 35.5 -77.5t101.5 -27.5q73 0 124 34.5t68 96.5zM1626 1458l-860 -1171q-124 -166 -246 -235.5t-262 -69.5q-104 0 -162 18l62 250q30 -10 75 -10
q101 0 168.5 60.5t67.5 154.5q0 57 -31 184l-200 819h303l82 -420q37 -178 77 -422h5q154 238 282 422l291 420h348z" />
    <glyph glyph-name="Dzhecy" unicode="&#x40f;" horiz-adv-x="1515" 
d="M1219 0h-457l-82 -328h-287l82 328h-436l362 1458h301l-299 -1200h578l299 1200h301z" />
    <glyph glyph-name="Acy" unicode="&#x410;" horiz-adv-x="1429" 
d="M975 356h-559l-203 -356h-336l868 1458h406l143 -1458h-295zM956 614l-6 97q-21 326 -26 569h-4q-132 -264 -304 -569l-55 -97h395z" />
    <glyph glyph-name="Becy" unicode="&#x411;" horiz-adv-x="1361" 
d="M1366 1208h-725l-76 -301h219q229 0 354.5 -111.5t125.5 -310.5q0 -87 -34.5 -170.5t-101 -155t-177.5 -115.5t-249 -44h-663l362 1458h1026zM504 657l-103 -407h283q74 0 129.5 19t86 52t44.5 71t14 81q0 184 -233 184h-221z" />
    <glyph glyph-name="Vecy" unicode="&#x412;" horiz-adv-x="1331" 
d="M401 1458h484q242 0 361.5 -85t119.5 -238q0 -60 -17 -116t-54 -111.5t-107 -100.5t-166 -72v-4q111 -27 159 -95.5t48 -178.5q0 -83 -35.5 -162t-103.5 -146t-182.5 -108t-258.5 -41h-610zM641 1212l-88 -354h233q79 0 135.5 17t86 47.5t42.5 65t13 75.5
q0 76 -52.5 112.5t-162.5 36.5h-207zM494 621l-93 -373h244q158 0 221.5 59t63.5 158q0 84 -51.5 120t-169.5 36h-215z" />
    <glyph glyph-name="Gecy" unicode="&#x413;" horiz-adv-x="1040" 
d="M39 0l362 1458h852l-63 -258h-551l-299 -1200h-301z" />
    <glyph glyph-name="Decy" unicode="&#x414;" horiz-adv-x="1626" 
d="M1348 258h184l-146 -586h-286l82 328h-983l-82 -328h-287l145 586h175q97 131 198 395t244 805h1055zM1282 1200h-465q-177 -642 -352 -942h582z" />
    <glyph glyph-name="Iecy" unicode="&#x415;" horiz-adv-x="1296" 
d="M1346 1200h-707l-82 -330h660l-66 -256h-659l-89 -356h725l-63 -258h-1026l362 1458h1008z" />
    <glyph glyph-name="Zhecy" unicode="&#x416;" horiz-adv-x="1880" 
d="M1427 750l316 -750h-332l-264 745h-4l-185 -745h-294l176 713h-4l-576 -713h-381l696 782l-282 676h321l234 -698h4l174 698h295l-166 -665h4l524 665h371z" />
    <glyph glyph-name="Zecy" unicode="&#x417;" horiz-adv-x="1302" 
d="M834 1489q241 0 372 -101t131 -280q0 -126 -87.5 -226t-280.5 -155v-4q225 -80 225 -297q0 -65 -23 -129.5t-72.5 -124.5t-120 -106t-173 -73.5t-223.5 -27.5q-265 0 -407 105t-142 303q0 49 12 102h315q-10 -52 -10 -84q0 -170 236 -170q74 0 133.5 21t93 54t51 69.5
t17.5 72.5q0 78 -68.5 121t-196.5 43h-94l62 248h84q173 0 262.5 68t89.5 157q0 74 -56 117t-155 43q-232 0 -295 -244h-324q53 235 222.5 366.5t421.5 131.5z" />
    <glyph glyph-name="Iicy" unicode="&#x418;" horiz-adv-x="1603" 
d="M1305 0h-289l139 561q60 237 174 633h-4q-243 -377 -405 -602l-422 -592h-461l364 1458h289l-141 -561q-64 -264 -174 -633h4q212 328 405 602l424 592h461z" />
    <glyph glyph-name="Iishortcy" unicode="&#x419;" horiz-adv-x="1603" 
d="M1276 1855h219q-41 -147 -153.5 -228t-272.5 -81q-140 0 -217.5 66t-77.5 186q0 17 4 57h170q-2 -10 -2 -26q0 -50 35.5 -77.5t101.5 -27.5q73 0 124.5 34.5t68.5 96.5zM1305 0h-289l139 561q60 237 174 633h-4q-243 -377 -405 -602l-422 -592h-461l364 1458h289
l-141 -561q-64 -264 -174 -633h4q212 328 405 602l424 592h461z" />
    <glyph glyph-name="Kacy" unicode="&#x41a;" horiz-adv-x="1357" 
d="M805 752l416 -752h-351l-350 713h-4l-176 -713h-301l362 1458h301l-153 -616h4l598 616h385z" />
    <glyph glyph-name="Elcy" unicode="&#x41b;" horiz-adv-x="1505" 
d="M1208 0h-301l299 1200h-409q-72 -259 -134.5 -446.5t-125 -323.5t-119.5 -221t-125 -134.5t-135 -68t-156 -18.5q-63 0 -106 16l59 242q12 -4 35 -4q52 0 91 17t82.5 67.5t83 132t90 221.5t105.5 325.5t129 452.5h1000z" />
    <glyph glyph-name="Emcy" unicode="&#x41c;" horiz-adv-x="2015" 
d="M1718 0h-288l180 725q73 297 149 547h-4q-142 -275 -291 -537l-413 -735h-344l-50 735q-17 306 -20 537h-4q-67 -311 -125 -547l-180 -725h-289l362 1458h465l45 -670q19 -338 17 -536h4q131 291 270 536l377 670h502z" />
    <glyph glyph-name="Ency" unicode="&#x41d;" horiz-adv-x="1536" 
d="M1239 0h-301l156 629h-598l-156 -629h-301l362 1458h301l-141 -571h598l141 571h302z" />
    <glyph glyph-name="Ocy" unicode="&#x41e;" horiz-adv-x="1531" 
d="M918 1491q281 0 437 -167.5t156 -455.5q0 -125 -31 -251t-96.5 -243.5t-157.5 -207.5t-224 -144.5t-285 -54.5q-281 0 -436.5 167.5t-155.5 455.5q0 125 31 251t96.5 243.5t157 207.5t223.5 144.5t285 54.5zM905 1225q-113 0 -207 -60.5t-151 -155.5t-88 -203.5
t-31 -213.5q0 -168 78.5 -263.5t222.5 -95.5q91 0 171 40t135 105.5t95 149t59 170.5t19 170q0 166 -79 261.5t-224 95.5z" />
    <glyph glyph-name="Pecy" unicode="&#x41f;" horiz-adv-x="1513" 
d="M1217 0h-299l299 1200h-578l-299 -1200h-301l362 1458h1178z" />
    <glyph glyph-name="Ercy" unicode="&#x420;" horiz-adv-x="1302" 
d="M401 1458h449q258 0 387 -112t129 -314q0 -70 -20.5 -140t-66 -138.5t-112 -121t-166.5 -84.5t-221 -32h-311l-129 -516h-301zM641 1208l-111 -442h250q75 0 131.5 21.5t87 57.5t45.5 76.5t15 84.5q0 202 -230 202h-188z" />
    <glyph glyph-name="Escy" unicode="&#x421;" horiz-adv-x="1437" 
d="M928 1491q242 0 383 -129.5t141 -347.5q0 -49 -8 -90h-303q4 36 4 57q0 114 -64.5 179t-179.5 65q-91 0 -169.5 -41t-133 -108t-93 -152t-57 -173.5t-18.5 -172.5q0 -159 68 -252t198 -93q112 0 206.5 66.5t139.5 183.5h310q-76 -245 -257 -380.5t-425 -135.5
q-261 0 -406 158.5t-145 431.5q0 105 22.5 213t65.5 213t112 196.5t156 161t204 110t249 40.5z" />
    <glyph glyph-name="Tecy" unicode="&#x422;" horiz-adv-x="1259" 
d="M1409 1200h-459l-299 -1200h-301l299 1200h-459l64 258h1219z" />
    <glyph glyph-name="Ucy" unicode="&#x423;" horiz-adv-x="1396" 
d="M1626 1458l-860 -1171q-124 -166 -246 -235.5t-262 -69.5q-104 0 -162 18l62 250q30 -10 75 -10q101 0 168.5 60.5t67.5 154.5q0 57 -31 184l-200 819h303l82 -420q37 -178 77 -422h5q154 238 282 422l291 420h348z" />
    <glyph glyph-name="Efcy" unicode="&#x424;" horiz-adv-x="1765" 
d="M1276 1511l-41 -165q245 -34 373.5 -175.5t128.5 -377.5q0 -100 -29 -196.5t-93 -186.5t-156.5 -158t-230.5 -109t-304 -41l-39 -155h-293l43 166q-248 34 -376 175t-128 380q0 96 28.5 191t92 185.5t156 159t231 110.5t305.5 42l39 155h293zM438 678q0 -130 65.5 -211.5
t192.5 -106.5l185 746q-91 -7 -166.5 -36.5t-126 -72.5t-85 -97.5t-50 -110t-15.5 -111.5zM1174 1098l-187 -746q113 8 201.5 51t139 105.5t76.5 131.5t26 138q0 131 -66 213t-190 107z" />
    <glyph glyph-name="Hacy" unicode="&#x425;" horiz-adv-x="1290" 
d="M870 727l285 -727h-319l-170 502h-4l-404 -502h-381l653 756l-268 702h313l158 -489h4l383 489h375z" />
    <glyph glyph-name="Tsecy" unicode="&#x426;" horiz-adv-x="1576" 
d="M1282 258h184l-145 -586h-287l82 328h-1077l362 1458h301l-299 -1200h578l299 1200h301z" />
    <glyph glyph-name="Checy" unicode="&#x427;" horiz-adv-x="1390" 
d="M1094 0h-301l135 543q-163 -37 -305 -37q-225 0 -339 91t-114 267q0 55 25 164l106 430h301l-106 -428q-11 -40 -11 -80q0 -91 61 -138.5t181 -47.5q139 0 264 37l164 657h301z" />
    <glyph glyph-name="Shacy" unicode="&#x428;" horiz-adv-x="2105" 
d="M1808 0h-1769l362 1458h301l-299 -1200h435l299 1200h301l-299 -1200h434l299 1200h299z" />
    <glyph glyph-name="Shchacy" unicode="&#x429;" horiz-adv-x="2150" 
d="M1872 258h184l-145 -586h-287l82 328h-1667l362 1458h301l-299 -1200h435l299 1200h301l-299 -1200h434l299 1200h299z" />
    <glyph glyph-name="Hardsigncy" unicode="&#x42a;" horiz-adv-x="1550" 
d="M823 942h148q256 0 385 -112t129 -314q0 -70 -20.5 -140t-66.5 -138.5t-112.5 -121t-166.5 -84.5t-220 -32h-610l299 1200h-398l64 258h698zM762 692l-111 -442h248q75 0 131 21.5t87 57t46 76t15 84.5q0 203 -230 203h-186z" />
    <glyph glyph-name="Yerucy" unicode="&#x42b;" horiz-adv-x="1937" 
d="M573 942h148q256 0 385 -112t129 -314q0 -70 -20.5 -140t-66 -138.5t-112 -121t-166.5 -84.5t-221 -32h-610l362 1458h301zM1640 0h-301l363 1458h301zM512 692l-111 -442h248q75 0 131 21.5t87 57t46 76t15 84.5q0 203 -230 203h-186z" />
    <glyph glyph-name="Softsigncy" unicode="&#x42c;" horiz-adv-x="1300" 
d="M573 942h148q256 0 385 -112t129 -314q0 -70 -20.5 -140t-66 -138.5t-112 -121t-166.5 -84.5t-221 -32h-610l362 1458h301zM512 692l-111 -442h248q75 0 131 21.5t87 57t46 76t15 84.5q0 203 -230 203h-186z" />
    <glyph glyph-name="Ereversedcy" unicode="&#x42d;" horiz-adv-x="1454" 
d="M881 1491q266 0 413.5 -158.5t147.5 -431.5q0 -105 -22.5 -213t-66.5 -213t-113.5 -196.5t-157.5 -161t-206.5 -110t-252.5 -40.5q-248 0 -393.5 129.5t-145.5 347.5q0 50 8 91h303q-4 -36 -4 -58q0 -114 68.5 -179t189.5 -65q79 0 148.5 29t122.5 81t93 116t68 141h-508
l64 258h493v23q0 158 -70.5 251t-205.5 93q-114 0 -207.5 -66.5t-140.5 -183.5h-309q78 245 259 380.5t425 135.5z" />
    <glyph glyph-name="Iucy" unicode="&#x42e;" horiz-adv-x="2119" 
d="M1534 1491q269 0 418 -165t149 -449q0 -126 -30.5 -253t-95 -245.5t-155 -210t-219.5 -146.5t-278 -55q-268 0 -415.5 165t-147.5 450v18h-271l-149 -600h-301l362 1458h301l-149 -600h244q35 128 98 239t153 200.5t215.5 141.5t270.5 52zM1341 233q108 0 197.5 61.5
t144.5 157.5t85 206.5t30 215.5q0 163 -73.5 257t-206.5 94q-87 0 -162.5 -40.5t-128 -106.5t-90.5 -150t-56 -171.5t-18 -170.5q0 -165 72.5 -259t205.5 -94z" />
    <glyph glyph-name="Iacy" unicode="&#x42f;" horiz-adv-x="1355" 
d="M1421 1458l-362 -1458h-301l133 541h-191q-34 0 -96 4l-387 -545h-344l475 633q-141 108 -141 325q0 70 19.5 138.5t65 134.5t112 116t170 80.5t229.5 30.5h618zM1061 1214h-270q-77 0 -134.5 -21t-89 -57.5t-46.5 -79t-15 -91.5q0 -91 55.5 -138t177.5 -47h213z" />
    <glyph glyph-name="acy" unicode="&#x430;" horiz-adv-x="1120" 
d="M637 1073q399 0 399 -323q0 -64 -18 -138l-82 -327q-46 -182 -43 -285h-250q0 64 16 121h-4q-149 -146 -350 -146q-150 0 -230.5 75.5t-80.5 201.5q0 49 13 92.5t46.5 88.5t85.5 80.5t136 64.5t192 45q146 20 283 28l6 25q10 42 10 67q0 129 -148 129q-76 0 -127.5 -41.5
t-66.5 -115.5h-279q34 156 164 257t328 101zM690 412l17 65q-120 -8 -215 -22q-201 -33 -201 -164q0 -52 34 -81.5t97 -29.5q103 0 171.5 60t96.5 172z" />
    <glyph glyph-name="becy" unicode="&#x431;" 
d="M1329 1491l-59 -240q-106 -29 -344 -41q-121 -5 -206 -26.5t-146.5 -65.5t-102.5 -101t-82 -147h4q122 142 340 142q192 0 301 -113t109 -311q0 -79 -24.5 -163.5t-76 -166.5t-123.5 -146.5t-176 -104.5t-223 -40q-216 0 -328 119t-112 348q0 95 31 225
q44 176 101.5 305.5t126.5 217t160 142.5t192.5 82t234.5 36q290 20 403 49zM651 803q-75 0 -134.5 -41t-92.5 -104.5t-49.5 -129.5t-16.5 -127q0 -104 47 -158.5t140 -54.5q59 0 110 27t84.5 70t57.5 96.5t34.5 106.5t10.5 100q0 104 -48.5 159.5t-142.5 55.5z" />
    <glyph glyph-name="vecy" unicode="&#x432;" horiz-adv-x="1124" 
d="M268 1040h459q350 0 350 -243q0 -100 -57.5 -172t-185.5 -101v-4q157 -37 157 -207q0 -58 -25.5 -111.5t-76 -99.5t-139 -74t-203.5 -28h-537zM500 854l-62 -242h176q97 0 140 39t43 92q0 111 -154 111h-143zM395 440l-63 -254h194q96 0 140.5 42.5t44.5 97.5
q0 114 -162 114h-154z" />
    <glyph glyph-name="gecy" unicode="&#x433;" horiz-adv-x="903" 
d="M958 827h-456l-205 -827h-287l258 1040h744z" />
    <glyph glyph-name="decy" unicode="&#x434;" horiz-adv-x="1310" 
d="M1075 213h144l-136 -541h-286l82 328h-705l-82 -328h-287l136 541h131q79 93 156.5 272.5t187.5 554.5h864zM940 827h-303q-127 -412 -242 -614h393z" />
    <glyph glyph-name="iecy" unicode="&#x435;" horiz-adv-x="1173" 
d="M1087 461h-745q-8 -44 -8 -88q0 -104 52 -153.5t136 -49.5q77 0 137 40.5t84 104.5h293q-63 -149 -206 -248.5t-324 -99.5q-217 0 -330 117.5t-113 323.5q0 88 24 179.5t75 178.5t121 155.5t171.5 110t217.5 41.5q215 0 327.5 -114t112.5 -310q0 -77 -25 -188zM655 870
q-87 0 -157.5 -57.5t-110.5 -171.5h455q4 32 4 45q0 92 -52 138t-139 46z" />
    <glyph glyph-name="zhecy" unicode="&#x436;" horiz-adv-x="1556" 
d="M1206 545l246 -545h-324l-200 547h-4l-136 -547h-278l127 514h-4l-422 -514h-365l525 575l-226 465h293l207 -479h4l119 479h279l-111 -446h4l395 446h334z" />
    <glyph glyph-name="zecy" unicode="&#x437;" horiz-adv-x="1056" 
d="M633 1073q185 0 287 -75t102 -207q0 -90 -65.5 -160t-211.5 -109v-4q177 -62 177 -213q0 -61 -29 -119.5t-84 -108t-146 -80t-204 -30.5q-215 0 -329 77.5t-114 225.5q0 32 7 72h282q-6 -24 -6 -49q0 -115 162 -115q86 0 135 40.5t49 94.5q0 105 -182 105h-82l51 207h76
q113 0 171 41t58 98q0 46 -34.5 72t-98.5 26q-148 0 -192 -155h-283q40 173 172 269.5t332 96.5z" />
    <glyph glyph-name="iicy" unicode="&#x438;" horiz-adv-x="1388" 
d="M1120 0h-286l96 387q43 175 117 408h-5q-122 -196 -266 -385l-319 -410h-447l258 1040h287l-96 -389q-42 -170 -117 -405h4q133 215 266 385l320 409h446z" />
    <glyph glyph-name="iishortcy" unicode="&#x439;" horiz-adv-x="1388" 
d="M1067 1458h219q-41 -147 -153.5 -228t-272.5 -81q-140 0 -217.5 66t-77.5 186q0 17 4 57h170q-2 -10 -2 -26q0 -50 35.5 -77.5t101.5 -27.5q73 0 124.5 34.5t68.5 96.5zM1120 0h-286l96 387q43 175 117 408h-5q-122 -196 -266 -385l-319 -410h-447l258 1040h287l-96 -389
q-42 -170 -117 -405h4q133 215 266 385l320 409h446z" />
    <glyph glyph-name="kacy" unicode="&#x43a;" horiz-adv-x="1146" 
d="M700 539l304 -539h-314l-264 500h-4l-125 -500h-287l258 1040h287l-100 -407h4l395 407h365z" />
    <glyph glyph-name="elcy" unicode="&#x43b;" horiz-adv-x="1175" 
d="M907 0h-286l204 827h-243q-58 -212 -112.5 -360.5t-107 -242t-113.5 -146t-120.5 -71.5t-138.5 -19q-64 0 -107 14l49 201q20 -4 39 -4q67 0 118 59t118.5 242.5t161.5 539.5h796z" />
    <glyph glyph-name="emcy" unicode="&#x43c;" horiz-adv-x="1708" 
d="M1440 0h-266l118 477q41 167 103 375h-4q-117 -218 -209 -371l-287 -481h-340l-51 481q-19 199 -25 371h-4q-46 -229 -82 -375l-119 -477h-264l258 1040h430l45 -444q19 -202 25 -381h4q77 192 189 381l266 444h471z" />
    <glyph glyph-name="ency" unicode="&#x43d;" horiz-adv-x="1255" 
d="M987 0h-287l105 422h-404l-104 -422h-287l258 1040h287l-100 -405h403l100 405h287z" />
    <glyph glyph-name="ocy" unicode="&#x43e;" horiz-adv-x="1208" 
d="M680 1073q222 0 341.5 -121t119.5 -338q0 -86 -24 -175t-75.5 -174t-122.5 -151t-174 -106.5t-221 -40.5q-221 0 -338.5 121t-117.5 338q0 86 24 175t75 174t121.5 151t172.5 106.5t219 40.5zM657 852q-73 0 -132.5 -43t-93.5 -109t-51.5 -136.5t-17.5 -135.5
q0 -114 47.5 -177t139.5 -63q73 0 132.5 43t93.5 109t51.5 136.5t17.5 135.5q0 114 -47.5 177t-139.5 63z" />
    <glyph glyph-name="pecy" unicode="&#x43f;" horiz-adv-x="1239" 
d="M971 0h-287l205 827h-387l-205 -827h-287l258 1040h961z" />
    <glyph glyph-name="ercy" unicode="&#x440;" horiz-adv-x="1224" 
d="M805 1067q171 0 265.5 -107.5t94.5 -297.5q0 -74 -16.5 -152.5t-47.5 -155.5t-80 -145.5t-109.5 -121.5t-140.5 -83.5t-169 -30.5q-93 0 -164.5 42t-103.5 118h-4l-127 -512h-287l354 1419h279l-25 -94h4q59 58 132.5 89.5t144.5 31.5zM694 848q-68 0 -125 -41t-92 -105
t-54.5 -137t-19.5 -143q0 -108 43.5 -168.5t124.5 -60.5q68 0 125 41t92 104.5t54.5 136.5t19.5 143q0 108 -43.5 169t-124.5 61z" />
    <glyph glyph-name="escy" unicode="&#x441;" horiz-adv-x="1150" 
d="M676 1073q206 0 322 -105.5t116 -279.5q0 -37 -4 -55h-299q4 20 4 39q0 85 -41.5 132.5t-114.5 47.5q-70 0 -129 -44t-95 -111t-55.5 -138.5t-19.5 -132.5q0 -114 44 -176t128 -62q76 0 138 54t90 145h301q-59 -190 -208 -305t-337 -115q-212 0 -330 121.5t-118 335.5
q0 85 23.5 173.5t73 174t119.5 152.5t172 108t220 41z" />
    <glyph glyph-name="tecy" unicode="&#x442;" horiz-adv-x="970" 
d="M1034 827h-329l-205 -827h-287l205 827h-330l53 213h946z" />
    <glyph glyph-name="ucy" unicode="&#x443;" horiz-adv-x="1032" 
d="M1176 1040l-633 -1046q-132 -217 -263 -301t-329 -84q-80 0 -146 16l58 230q46 -17 106 -17q110 0 175 64t65 161q0 35 -10 132l-84 845h282l25 -348q17 -239 14 -436h4q119 254 222 436l194 348h320z" />
    <glyph glyph-name="efcy" unicode="&#x444;" horiz-adv-x="1679" 
d="M1309 1067q149 0 231 -106.5t82 -294.5q0 -87 -22.5 -181.5t-69 -185.5t-110.5 -164t-155 -117.5t-194 -44.5q-123 0 -201 90l-110 -442h-287l102 412q-102 -60 -200 -60q-152 0 -235 106.5t-83 295.5q0 72 16 150t46.5 156t78 147t106 122.5t136.5 85t164 31.5
q133 0 205 -94l121 485h287l-113 -450q100 59 205 59zM627 236l137 552q-43 60 -119 60q-67 0 -122.5 -42.5t-88.5 -107.5t-51 -135t-18 -131q0 -114 40 -176.5t117 -62.5q49 0 105 43zM1034 193q67 0 122.5 41.5t89 105.5t51.5 133.5t18 132.5q0 114 -41.5 178t-116.5 64
q-50 0 -104 -41l-138 -557q37 -57 119 -57z" />
    <glyph glyph-name="hacy" unicode="&#x445;" horiz-adv-x="1040" 
d="M690 522l234 -522h-303l-123 340h-4l-271 -340h-364l499 547l-219 493h299l117 -292h4l240 292h360z" />
    <glyph glyph-name="tsecy" unicode="&#x446;" horiz-adv-x="1259" 
d="M1024 213h143l-135 -541h-287l82 328h-817l258 1040h287l-205 -827h387l205 827h287z" />
    <glyph glyph-name="checy" unicode="&#x447;" horiz-adv-x="1187" 
d="M874 0h-286l92 367q-111 -27 -236 -27q-170 0 -257 76t-87 223q0 41 17 111l71 290h287l-74 -297q-6 -27 -6 -51q0 -139 166 -139q82 0 168 22l117 465h287z" />
    <glyph glyph-name="shacy" unicode="&#x448;" horiz-adv-x="1748" 
d="M1481 0h-1471l258 1040h287l-205 -827h305l205 827h287l-205 -827h305l205 827h287z" />
    <glyph glyph-name="shchacy" unicode="&#x449;" horiz-adv-x="1769" 
d="M1534 213h143l-135 -541h-287l82 328h-1327l258 1040h287l-205 -827h305l205 827h287l-205 -827h305l205 827h287z" />
    <glyph glyph-name="hardsigncy" unicode="&#x44a;" horiz-adv-x="1280" 
d="M612 705h148q204 0 309 -80.5t105 -233.5q0 -55 -15.5 -108.5t-51.5 -105t-88 -90.5t-132 -63t-178 -24h-557l204 827h-268l53 213h555zM489 207h211q95 0 142 49.5t47 116.5q0 125 -158 125h-170z" />
    <glyph glyph-name="yerucy" unicode="&#x44b;" horiz-adv-x="1642" 
d="M471 705h147q204 0 309 -80.5t105 -233.5q0 -55 -15.5 -108.5t-51.5 -105t-88 -90.5t-132 -63t-178 -24h-557l258 1040h287zM1374 0h-287l259 1040h286zM420 498l-72 -291h211q95 0 142 49.5t47 116.5q0 125 -158 125h-170z" />
    <glyph glyph-name="softsigncy" unicode="&#x44c;" horiz-adv-x="1138" 
d="M471 705h147q204 0 309 -80.5t105 -233.5q0 -55 -15.5 -108.5t-51.5 -105t-88 -90.5t-132 -63t-178 -24h-557l258 1040h287zM420 498l-72 -291h211q95 0 142 49.5t47 116.5q0 125 -158 125h-170z" />
    <glyph glyph-name="ereversedcy" unicode="&#x44d;" horiz-adv-x="1150" 
d="M635 1073q212 0 330 -121.5t118 -335.5q0 -85 -23.5 -173.5t-73 -174t-119.5 -152.5t-172 -108t-220 -41q-206 0 -322 105.5t-116 279.5q0 38 4 56h291q-4 -20 -4 -39q0 -88 43 -138.5t118 -50.5q94 0 164.5 71t108.5 177h-346l51 205h332q-3 108 -48.5 167.5
t-129.5 59.5q-79 0 -144 -55.5t-94 -151.5h-293q59 190 208 305t337 115z" />
    <glyph glyph-name="iucy" unicode="&#x44e;" horiz-adv-x="1732" 
d="M1204 1073q222 0 341.5 -121t119.5 -338q0 -86 -24 -175t-75 -174t-122.5 -151t-174 -106.5t-220.5 -40.5q-218 0 -336 118t-121 329h-193l-102 -414h-287l258 1040h287l-102 -413h172q28 89 77.5 167t120.5 141.5t169.5 100.5t211.5 37zM1073 188q73 0 132.5 43
t93.5 109t51.5 136.5t17.5 135.5q0 115 -47 177.5t-139 62.5q-73 0 -132.5 -43t-93.5 -109t-51.5 -136.5t-17.5 -135.5q0 -115 47 -177.5t139 -62.5z" />
    <glyph glyph-name="iacy" unicode="&#x44f;" horiz-adv-x="1153" 
d="M1143 1040l-258 -1040h-277l84 340h-147q-28 0 -82 4l-260 -344h-316l344 426q-104 85 -104 250q0 70 25.5 132t78.5 115.5t147 85t218 31.5h547zM815 829h-194q-118 0 -172 -43t-54 -108q0 -135 203 -135h145z" />
    <glyph glyph-name="iegravecy" unicode="&#x450;" horiz-adv-x="1173" 
d="M666 1159l-226 299h342l97 -299h-213zM1087 461h-745q-8 -44 -8 -88q0 -104 52 -153.5t136 -49.5q77 0 137 40.5t84 104.5h293q-63 -149 -206 -248.5t-324 -99.5q-217 0 -330 117.5t-113 323.5q0 88 24 179.5t75 178.5t121 155.5t171.5 110t217.5 41.5q215 0 327.5 -114
t112.5 -310q0 -77 -25 -188zM655 870q-87 0 -157.5 -57.5t-110.5 -171.5h455q4 32 4 45q0 92 -52 138t-139 46z" />
    <glyph glyph-name="iocy" unicode="&#x451;" horiz-adv-x="1173" 
d="M621 1212h-252l61 246h252zM1065 1212h-252l61 246h252zM672 1073q215 0 327.5 -114t112.5 -310q0 -77 -25 -188h-745q-8 -44 -8 -88q0 -104 52 -153.5t136 -49.5q77 0 137 40.5t84 104.5h293q-63 -149 -206 -248.5t-324 -99.5q-217 0 -330 117.5t-113 323.5
q0 88 24 179.5t75 178.5t121 155.5t171.5 110t217.5 41.5zM655 870q-87 0 -157.5 -57.5t-110.5 -171.5h455q4 32 4 45q0 92 -52 138t-139 46z" />
    <glyph glyph-name="djecy" unicode="&#x452;" 
d="M797 954q150 0 233.5 -78.5t83.5 -228.5q0 -70 -20 -149l-138 -553q-29 -116 -92.5 -192.5t-145.5 -109t-183 -32.5q-89 0 -154 18l51 205q21 -6 47 -6q84 0 134.5 46t78.5 163l113 455q14 57 14 106q0 131 -137 131q-92 0 -166 -73t-108 -210l-111 -446h-287l277 1114
h-152l45 180h152l41 164h286l-41 -164h435l-45 -180h-435l-71 -280h4q130 120 291 120z" />
    <glyph glyph-name="gjecy" unicode="&#x453;" horiz-adv-x="903" 
d="M723 1159h-238l220 299h366zM958 827h-456l-205 -827h-287l258 1040h744z" />
    <glyph glyph-name="ecy" unicode="&#x454;" horiz-adv-x="1150" 
d="M1110 633h-291q4 20 4 39q0 88 -43 138t-118 50q-89 0 -157.5 -64t-109.5 -163h346l-51 -205h-338v-2q0 -118 45.5 -182t132.5 -64q79 0 144 55.5t94 151.5h293q-59 -190 -208 -305t-337 -115q-212 0 -330 121.5t-118 335.5q0 85 23.5 173.5t73 174t119.5 152.5t172 108
t220 41q206 0 322 -105.5t116 -279.5q0 -37 -4 -55z" />
    <glyph glyph-name="dzecy" unicode="&#x455;" horiz-adv-x="1073" 
d="M625 1073q191 0 292 -73t101 -214q0 -31 -6 -65h-273q4 28 4 43q0 108 -143 108q-77 0 -114 -31t-37 -71q0 -43 39 -70t149 -65q42 -14 63.5 -22t59.5 -24.5t58.5 -31t47 -39t40.5 -51t24 -64t10 -81.5q0 -67 -31 -129t-90 -113.5t-155.5 -82t-217.5 -30.5
q-205 0 -316.5 75t-111.5 222q0 37 11 74h288q-6 -24 -6 -45q0 -58 40.5 -88.5t119.5 -30.5q77 0 120.5 30.5t43.5 82.5q0 54 -43.5 82t-157.5 67q-118 41 -164 70q-111 75 -112 227q0 63 29.5 122.5t85.5 108.5t147.5 79t204.5 30z" />
    <glyph glyph-name="icy" unicode="&#x456;" horiz-adv-x="565" 
d="M598 1212h-287l62 246h286zM297 0h-287l258 1040h287z" />
    <glyph glyph-name="yicy" unicode="&#x457;" horiz-adv-x="565" 
d="M403 1212h-251l61 246h252zM758 1212h-252l61 246h252zM297 0h-287l258 1040h287z" />
    <glyph glyph-name="jecy" unicode="&#x458;" horiz-adv-x="569" 
d="M602 1212h-287l62 246h287zM559 1040l-272 -1095q-22 -88 -63 -153t-97.5 -104t-121.5 -58t-140 -19q-89 0 -154 18l51 205q21 -6 48 -6q84 0 134.5 46t78.5 163l249 1003h287z" />
    <glyph glyph-name="ljecy" unicode="&#x459;" horiz-adv-x="1748" 
d="M1081 705h148q204 0 308.5 -80.5t104.5 -233.5q0 -55 -15.5 -108.5t-51 -105t-87.5 -90.5t-132 -63t-178 -24h-557l204 827h-243q-58 -212 -112.5 -360.5t-107 -242t-113.5 -146t-120.5 -71.5t-138.5 -19q-64 0 -107 14l49 201q20 -4 39 -4q67 0 118 59t118.5 242.5
t161.5 539.5h796zM1030 498l-72 -291h211q95 0 142 49.5t47 116.5q0 125 -158 125h-170z" />
    <glyph glyph-name="njecy" unicode="&#x45a;" horiz-adv-x="1828" 
d="M1161 705h148q204 0 308.5 -80.5t104.5 -233.5q0 -55 -15.5 -108.5t-51.5 -105t-88 -90.5t-132 -63t-178 -24h-557l105 422h-404l-104 -422h-287l258 1040h287l-100 -405h403l100 405h287zM1110 498l-72 -291h211q95 0 142 49.5t47 116.5q0 125 -158 125h-170z" />
    <glyph glyph-name="tshecy" unicode="&#x45b;" 
d="M797 954q150 0 233.5 -78.5t83.5 -228.5q0 -70 -20 -149l-123 -498h-287l121 492q14 57 14 106q0 131 -137 131q-92 0 -166 -73t-108 -210l-111 -446h-287l277 1114h-152l45 180h152l41 164h286l-41 -164h435l-45 -180h-435l-71 -280h4q130 120 291 120z" />
    <glyph glyph-name="kjecy" unicode="&#x45c;" horiz-adv-x="1146" 
d="M799 1159h-238l219 299h367zM700 539l304 -539h-314l-264 500h-4l-125 -500h-287l258 1040h287l-100 -407h4l395 407h365z" />
    <glyph glyph-name="iigravecy" unicode="&#x45d;" horiz-adv-x="1388" 
d="M932 1458l96 -299h-213l-225 299h342zM1120 0h-286l96 387q43 175 117 408h-5q-122 -196 -266 -385l-319 -410h-447l258 1040h287l-96 -389q-42 -170 -117 -405h4q133 215 266 385l320 409h446z" />
    <glyph glyph-name="ushortcy" unicode="&#x45e;" horiz-adv-x="1032" 
d="M848 1458h219q-41 -147 -153.5 -228t-272.5 -81q-140 0 -217.5 66t-77.5 186q0 17 4 57h170q-2 -10 -2 -26q0 -50 35.5 -77.5t101.5 -27.5q73 0 124.5 34.5t68.5 96.5zM1176 1040l-633 -1046q-132 -217 -263 -301t-329 -84q-80 0 -146 16l58 230q46 -17 106 -17
q110 0 175 64t65 161q0 35 -10 132l-84 845h282l25 -348q17 -239 14 -436h4q119 254 222 436l194 348h320z" />
    <glyph glyph-name="dzhecy" unicode="&#x45f;" horiz-adv-x="1239" 
d="M971 0h-342l-82 -328h-287l82 328h-332l258 1040h287l-205 -827h387l205 827h287z" />
    <glyph glyph-name="Gheupturncy" unicode="&#x490;" horiz-adv-x="1040" 
d="M1190 1200h-551l-299 -1200h-301l362 1458h566l71 283h287z" />
    <glyph glyph-name="gheupturncy" unicode="&#x491;" horiz-adv-x="903" 
d="M958 827h-456l-205 -827h-287l258 1040h477l82 328h267z" />
    <glyph glyph-name="Ghestrokecy" unicode="&#x492;" horiz-adv-x="1040" 
d="M639 1200l-107 -426h297l-55 -217h-295l-139 -557h-301l139 557h-133l55 217h131l170 684h852l-63 -258h-551z" />
    <glyph glyph-name="ghestrokecy" unicode="&#x493;" horiz-adv-x="913" 
d="M512 827l-63 -258h258l-50 -196h-258l-92 -373h-287l93 373h-123l49 196h123l117 471h743l-53 -213h-457z" />
    <glyph glyph-name="Zhedescendercy" unicode="&#x496;" horiz-adv-x="1880" 
d="M1806 258l-63 -258l-82 -328h-287l82 328h-45l-264 745h-4l-185 -745h-294l176 713h-4l-576 -713h-381l696 782l-282 676h321l234 -698h4l174 698h295l-166 -665h4l524 665h371l-627 -708l207 -492h172z" />
    <glyph glyph-name="zhedescendercy" unicode="&#x497;" horiz-adv-x="1556" 
d="M1356 213h149l-135 -541h-287l82 328h-37l-200 547h-4l-136 -547h-278l127 514h-4l-422 -514h-365l525 575l-226 465h293l207 -479h4l119 479h279l-111 -446h4l395 446h334l-463 -495z" />
    <glyph glyph-name="Kadescendercy" unicode="&#x49a;" horiz-adv-x="1357" 
d="M1284 258l-63 -258l-82 -328h-287l82 328h-64l-350 713h-4l-176 -713h-301l362 1458h301l-153 -616h4l598 616h385l-731 -706l272 -494h207z" />
    <glyph glyph-name="kadescendercy" unicode="&#x49b;" horiz-adv-x="1146" 
d="M883 213h174l-135 -541h-287l82 328h-27l-264 500h-4l-125 -500h-287l258 1040h287l-100 -407h4l395 407h365l-519 -501z" />
    <glyph glyph-name="Kaverticalstrokecy" unicode="&#x49c;" horiz-adv-x="1509" 
d="M1057 733l315 -733h-332l-229 629h-6l-78 -318h-225l78 318h-91l-155 -629h-295l362 1458h295l-141 -571h90l78 317h225l-78 -317h7l436 571h370z" />
    <glyph glyph-name="kaverticalstrokecy" unicode="&#x49d;" horiz-adv-x="1265" 
d="M911 535l246 -535h-323l-170 449h-9l-61 -244h-178l61 244h-78l-110 -449h-279l258 1040h279l-94 -378h75l62 243h178l-61 -243h8l325 378h334z" />
    <glyph glyph-name="Endescendercy" unicode="&#x4a2;" horiz-adv-x="1597" 
d="M1341 -328h-286l82 328h-199l156 629h-598l-156 -629h-301l362 1458h301l-141 -571h598l141 571h302l-299 -1200h184z" />
    <glyph glyph-name="endescendercy" unicode="&#x4a3;" horiz-adv-x="1275" 
d="M1049 -328h-287l82 328h-144l105 422h-404l-104 -422h-287l258 1040h287l-100 -405h403l100 405h287l-205 -827h144z" />
    <glyph glyph-name="Ustraitcy" unicode="&#x4ae;" horiz-adv-x="1306" 
d="M815 567l-141 -567h-301l141 567l-276 891h305l71 -274q42 -163 80 -371h4q117 184 260 371l207 274h369z" />
    <glyph glyph-name="ustraitcy" unicode="&#x4af;" horiz-adv-x="1044" 
d="M115 1040h276l31 -360q17 -229 20 -401h4q94 207 209 401l211 360h322l-660 -1067l-86 -352h-286l86 352z" />
    <glyph glyph-name="Hadescendercy" unicode="&#x4b2;" horiz-adv-x="1290" 
d="M1219 258l-64 -258l-82 -328h-287l82 328h-32l-170 502h-4l-404 -502h-381l653 756l-268 702h313l158 -489h4l383 489h375l-625 -731l185 -469h164z" />
    <glyph glyph-name="hadescendercy" unicode="&#x4b3;" horiz-adv-x="1040" 
d="M829 213h148l-135 -541h-287l82 328h-16l-123 340h-4l-271 -340h-364l499 547l-219 493h299l117 -292h4l240 292h360l-469 -518z" />
    <glyph glyph-name="Cheverticalstrokecy" unicode="&#x4b8;" horiz-adv-x="1390" 
d="M1456 1458l-362 -1458h-301l135 543q-90 -19 -160 -29l-68 -268h-245l65 266q-174 19 -262 108t-88 244q0 55 25 164l106 430h301l-106 -428q-11 -40 -11 -80q0 -118 105 -164l92 377h246l-99 -393q90 9 162 31l164 657h301z" />
    <glyph glyph-name="cheverticalstrokecy" unicode="&#x4b9;" horiz-adv-x="1142" 
d="M1133 1040l-259 -1040h-286l92 367q-57 -14 -102 -19l-48 -186h-178l45 180q-147 9 -222 85t-75 212q0 41 17 111l71 290h287l-76 -305q-6 -27 -6 -51q0 -83 62 -113l73 291h179l-76 -305q64 11 98 18l117 465h287z" />
    <glyph glyph-name="Shhacy" unicode="&#x4ba;" horiz-adv-x="1390" 
d="M401 1458h301l-135 -543q163 37 305 37q225 0 339 -91t114 -267q0 -55 -25 -164l-106 -430h-301l106 428q11 40 11 80q0 91 -61 138.5t-181 47.5q-139 0 -264 -37l-164 -657h-301z" />
    <glyph glyph-name="shhacy" unicode="&#x4bb;" 
d="M530 944h5q131 121 290 121q150 0 234 -78.5t84 -228.5q0 -68 -21 -150l-151 -608h-287l150 602q14 57 14 107q0 131 -137 131q-92 0 -166.5 -73t-108.5 -210l-139 -557h-287l363 1458h286z" />
    <glyph glyph-name="Palochkacy" unicode="&#x4c0;" horiz-adv-x="636" 
d="M340 0h-301l362 1458h301z" />
    <glyph glyph-name="palochkacy" unicode="&#x4cf;" horiz-adv-x="565" 
d="M297 0h-287l363 1458h286z" />
    <glyph glyph-name="Schwacy" unicode="&#x4d8;" horiz-adv-x="1562" 
d="M963 1491q287 0 438 -155t151 -431q0 -103 -25 -210.5t-71.5 -213t-120.5 -198t-166 -163.5t-214.5 -112t-258.5 -41q-291 0 -440.5 154t-149.5 416q0 171 50 294h1063q6 47 6 89q0 82 -24.5 144t-67.5 97.5t-96.5 52.5t-116.5 17q-126 0 -222 -60.5t-135 -156.5h-348
q42 97 112.5 182t164 151.5t216 105t255.5 38.5zM733 233q140 0 254 91t170 258h-729q-4 -50 -4 -70q0 -136 85.5 -207.5t223.5 -71.5z" />
    <glyph glyph-name="schwacy" unicode="&#x4d9;" horiz-adv-x="1173" 
d="M668 1073q217 0 329.5 -117t112.5 -323q0 -88 -24 -179.5t-74.5 -179t-121 -156t-171.5 -110t-217 -41.5q-215 0 -328 114t-113 310q0 110 31 199h742q6 43 6 78q0 104 -52 153t-137 49q-77 0 -136 -37.5t-83 -97.5h-293q63 145 206 241.5t323 96.5zM518 170
q88 0 159 60.5t111 179.5h-456q-4 -40 -4 -56q0 -92 51.5 -138t138.5 -46z" />
    <glyph glyph-name="Obarredcy" unicode="&#x4e8;" horiz-adv-x="1531" 
d="M918 1491q281 0 437 -167.5t156 -455.5q0 -125 -31 -251t-96.5 -243.5t-157.5 -207.5t-224 -144.5t-285 -54.5q-281 0 -436.5 167.5t-155.5 455.5q0 125 31 251t96.5 243.5t157 207.5t223.5 144.5t285 54.5zM905 1241q-85 0 -160 -31t-131.5 -85.5t-98 -121t-69.5 -145.5
h791v10q0 169 -88 271t-244 102zM729 217q84 0 159 31t131.5 85.5t98.5 121.5t70 145h-789v-8q0 -170 87 -272.5t243 -102.5z" />
    <glyph glyph-name="obarredcy" unicode="&#x4e9;" horiz-adv-x="1208" 
d="M680 1073q222 0 341.5 -121t119.5 -338q0 -86 -24 -175t-75.5 -174t-122.5 -151t-174 -106.5t-221 -40.5q-221 0 -338.5 121t-117.5 338q0 86 24 175t75 174t121.5 151t172.5 106.5t219 40.5zM657 864q-102 0 -173 -71.5t-107 -180.5h483q0 117 -52 184.5t-151 67.5z
M549 176q102 0 172 71t108 181h-483q0 -117 52 -184.5t151 -67.5z" />
    <glyph glyph-name="Wgrave" unicode="&#x1e80;" horiz-adv-x="1957" 
d="M1397 1556h-213l-223 299h342zM1505 0h-391l8 578q3 281 29 624h-4q-106 -258 -283 -624l-278 -578h-391l57 1458h280l-26 -530q-14 -302 -51 -631h4q102 241 291 631l258 530h381l-5 -530q-3 -321 -24 -631h4q99 256 264 631l236 530h309z" />
    <glyph glyph-name="wgrave" unicode="&#x1e81;" horiz-adv-x="1658" 
d="M1055 1458l96 -299h-213l-225 299h342zM1290 0h-409l10 410q6 221 18 444h-4q-90 -237 -190 -444l-195 -410h-409l28 1040h273l-23 -401q-15 -282 -31 -453h4q87 220 195 449l193 405h393l-8 -405q-3 -204 -19 -449h4q79 224 183 453l178 401h297z" />
    <glyph glyph-name="Wacute" unicode="&#x1e82;" horiz-adv-x="1957" 
d="M1286 1556h-237l221 299h366zM1505 0h-391l8 578q3 281 29 624h-4q-106 -258 -283 -624l-278 -578h-391l57 1458h280l-26 -530q-14 -302 -51 -631h4q102 241 291 631l258 530h381l-5 -530q-3 -321 -24 -631h4q99 256 264 631l236 530h309z" />
    <glyph glyph-name="wacute" unicode="&#x1e83;" horiz-adv-x="1658" 
d="M1040 1159h-237l219 299h367zM1290 0h-409l10 410q6 221 18 444h-4q-90 -237 -190 -444l-195 -410h-409l28 1040h273l-23 -401q-15 -282 -31 -453h4q87 220 195 449l193 405h393l-8 -405q-3 -204 -19 -449h4q79 224 183 453l178 401h297z" />
    <glyph glyph-name="Wdieresis" unicode="&#x1e84;" horiz-adv-x="1957" 
d="M1130 1575h-251l61 246h252zM1575 1575h-252l61 246h252zM1505 0h-391l8 578q3 281 29 624h-4q-106 -258 -283 -624l-278 -578h-391l57 1458h280l-26 -530q-14 -302 -51 -631h4q102 241 291 631l258 530h381l-5 -530q-3 -321 -24 -631h4q99 256 264 631l236 530h309z" />
    <glyph glyph-name="wdieresis" unicode="&#x1e85;" horiz-adv-x="1658" 
d="M893 1212h-252l61 246h252zM1337 1212h-252l62 246h252zM1290 0h-409l10 410q6 221 18 444h-4q-90 -237 -190 -444l-195 -410h-409l28 1040h273l-23 -401q-15 -282 -31 -453h4q87 220 195 449l193 405h393l-8 -405q-3 -204 -19 -449h4q79 224 183 453l178 401h297z" />
    <glyph glyph-name="Germandbls" unicode="&#x1e9e;" horiz-adv-x="1640" 
d="M1608 1192l-379 -334q303 -109 303 -405q0 -69 -21.5 -136.5t-68 -130t-112 -110.5t-160.5 -76.5t-207 -28.5q-213 0 -322 79t-109 235q0 45 13 108h289q-7 -35 -7 -51q0 -125 162 -125q114 0 172 65.5t58 147.5q0 220 -353 248l52 205l313 276q-79 82 -230 82
q-371 0 -473 -397l-209 -844h-301l215 862q76 308 283 466.5t526 158.5q199 0 345.5 -79.5t220.5 -215.5z" />
    <glyph glyph-name="Ygrave" unicode="&#x1ef2;" horiz-adv-x="1306" 
d="M1032 1556h-213l-223 299h342zM815 567l-141 -567h-301l141 567l-276 891h305l71 -274q42 -163 80 -371h4q117 184 260 371l207 274h369z" />
    <glyph glyph-name="ygrave" unicode="&#x1ef3;" horiz-adv-x="1032" 
d="M713 1458l96 -299h-213l-225 299h342zM1176 1040l-633 -1046q-132 -217 -263 -301t-329 -84q-80 0 -146 16l58 230q46 -17 106 -17q110 0 175 64t65 161q0 35 -10 132l-84 845h282l25 -348q17 -239 14 -436h4q119 254 222 436l194 348h320z" />
    <glyph glyph-name="hyphentwo" unicode="&#x2010;" horiz-adv-x="655" 
d="M586 485h-533l56 226h532z" />
    <glyph glyph-name="endash" unicode="&#x2013;" horiz-adv-x="1024" 
d="M975 485h-942l55 226h942z" />
    <glyph glyph-name="emdash" unicode="&#x2014;" horiz-adv-x="2048" 
d="M1999 485h-1966l55 226h1966z" />
    <glyph glyph-name="horizontalbar" unicode="&#x2015;" horiz-adv-x="2048" 
d="M1870 485h-1966l55 226h1966z" />
    <glyph glyph-name="underscoredbl" unicode="&#x2017;" horiz-adv-x="1024" 
d="M831 -248h-1024l37 146h1024zM758 -545h-1024l37 146h1024z" />
    <glyph glyph-name="quoteleft" unicode="&#x2018;" horiz-adv-x="520" 
d="M285 1159l204 299h146l-172 -299h90l-72 -291h-268z" />
    <glyph glyph-name="quoteright" unicode="&#x2019;" horiz-adv-x="522" 
d="M557 1167l-205 -299h-145l172 299h-90l71 291h269z" />
    <glyph glyph-name="quotesinglbase" unicode="&#x201a;" horiz-adv-x="520" 
d="M266 0l-205 -299h-145l172 299h-90l72 291h268z" />
    <glyph glyph-name="quotereversed" unicode="&#x201b;" horiz-adv-x="520" 
d="M285 1159l204 299h146l-172 -299h90l-72 -291h-268z" />
    <glyph glyph-name="quotedblleft" unicode="&#x201c;" horiz-adv-x="892" 
d="M285 1159l204 299h146l-172 -299h90l-72 -291h-268zM657 1159l205 299h146l-172 -299h90l-72 -291h-268z" />
    <glyph glyph-name="quotedblright" unicode="&#x201d;" horiz-adv-x="892" 
d="M557 1167l-205 -299h-145l172 299h-90l71 291h269zM930 1167l-205 -299h-145l172 299h-90l71 291h268z" />
    <glyph glyph-name="quotedblbase" unicode="&#x201e;" horiz-adv-x="892" 
d="M266 0l-205 -299h-145l172 299h-90l72 291h268zM639 0l-205 -299h-145l172 299h-90l71 291h269z" />
    <glyph glyph-name="dagger" unicode="&#x2020;" horiz-adv-x="1155" 
d="M864 1098h324l-55 -228h-324l-279 -1116h-286l278 1116h-323l55 228h324l90 360h286z" />
    <glyph glyph-name="daggerdbl" unicode="&#x2021;" horiz-adv-x="1155" 
d="M864 1098h324l-55 -228h-324l-133 -528h323l-55 -227h-323l-91 -361h-286l90 361h-324l56 227h323l133 528h-323l55 228h324l90 360h286z" />
    <glyph glyph-name="bullet" unicode="&#x2022;" horiz-adv-x="737" 
d="M369 442q-119 0 -203 84t-84 203q0 120 84 203.5t203 83.5q120 0 203 -83.5t83 -203.5q0 -119 -83 -203t-203 -84z" />
    <glyph glyph-name="ellipsis" unicode="&#x2026;" horiz-adv-x="1839" 
d="M293 0h-316l84 342h316zM948 0h-315l84 342h315zM1604 0h-316l84 342h316z" />
    <glyph glyph-name="perthousand" unicode="&#x2030;" horiz-adv-x="2234" 
d="M270 -61h-172l1235 1503h172zM549 1413q125 0 189.5 -65t64.5 -187q0 -62 -13.5 -124t-42.5 -120.5t-70 -103.5t-100 -72.5t-128 -27.5q-126 0 -192.5 65t-66.5 189q0 76 23 153t66 143.5t113.5 108t156.5 41.5zM539 1260q-38 0 -70 -33t-50 -81t-28 -95.5t-10 -83.5
q0 -101 70 -101q39 0 71 33t49.5 81t27 95.5t9.5 83.5q0 101 -69 101zM1161 668q125 0 189.5 -65t64.5 -187q0 -62 -13.5 -124t-42.5 -121t-70 -104t-100 -72.5t-128 -27.5q-126 0 -192 65t-66 189q0 60 14 122t43.5 120.5t70.5 104t101 73t129 27.5zM1874 668
q125 0 189.5 -65t64.5 -187q0 -62 -13.5 -124t-42.5 -121t-70 -104t-100 -72.5t-128 -27.5q-126 0 -192 65t-66 189q0 60 14 122t43.5 120.5t70.5 104t101 73t129 27.5zM1151 514q-38 0 -70 -33t-50 -81t-28 -95.5t-10 -83.5q0 -100 70 -100q39 0 71 33t50 81t27.5 95.5
t9.5 83.5q0 100 -70 100zM1864 514q-38 0 -70 -33t-50 -81t-28 -95.5t-10 -83.5q0 -100 70 -100q39 0 71 33t49.5 81t27 95.5t9.5 83.5q0 100 -69 100z" />
    <glyph glyph-name="minute" unicode="&#x2032;" horiz-adv-x="440" 
d="M338 899h-182l180 481h258z" />
    <glyph glyph-name="second" unicode="&#x2033;" horiz-adv-x="817" 
d="M338 899h-182l180 481h258zM715 899h-183l181 481h258z" />
    <glyph glyph-name="guilsinglleft" unicode="&#x2039;" horiz-adv-x="663" 
d="M350 512l121 -401h-238l-141 417l322 402h262z" />
    <glyph glyph-name="guilsinglright" unicode="&#x203a;" horiz-adv-x="663" 
d="M313 528l-120 402h237l141 -418l-321 -401h-262z" />
    <glyph glyph-name="exclamdouble" unicode="&#x203c;" horiz-adv-x="1175" 
d="M414 406h-221l198 1052h348zM926 406h-221l198 1052h348zM360 0h-315l68 270h315zM872 0h-315l68 270h315z" />
    <glyph glyph-name="interrobang" unicode="&#x203d;" horiz-adv-x="1120" 
d="M956 1458l-43 -139q115 -37 175.5 -119t60.5 -201q0 -125 -68 -226.5t-239 -192.5q-115 -61 -156.5 -98t-58.5 -101h-244q14 74 28.5 117t47 85.5t79.5 76.5t132 85q109 65 144.5 112.5t35.5 109.5t-40 97.5t-118 35.5q-93 0 -150 -45.5t-83 -143.5h-299
q47 186 159.5 294t282.5 134l23 119h331zM317 270h316l-68 -270h-315z" />
    <glyph glyph-name="overline" unicode="&#x203e;" horiz-adv-x="1024" 
d="M1292 1593h-1024l45 187h1024z" />
    <glyph glyph-name="fraction" unicode="&#x2044;" horiz-adv-x="303" 
d="M-262 0h-187l1100 1380h187z" />
    <glyph glyph-name="zerosuperior" unicode="&#x2070;" horiz-adv-x="960" 
d="M723 1665q168 0 255 -96t87 -277q0 -83 -19.5 -170t-61 -171.5t-100.5 -150.5t-145 -106.5t-186 -40.5q-168 0 -255 95t-87 276q0 84 19.5 171t61 172t100.5 151t145 106.5t186 40.5zM707 1470q-57 0 -105.5 -51.5t-77 -126t-44 -148t-15.5 -128.5q0 -170 104 -170
q58 0 106.5 51t76.5 126t43.5 148.5t15.5 128.5q0 81 -26 125.5t-78 44.5z" />
    <glyph glyph-name="foursuperior" unicode="&#x2074;" horiz-adv-x="921" 
d="M987 874h-153l-50 -198h-247l49 198h-475l53 216l520 552h342l-145 -579h151zM385 1063h256l27 106q50 192 82 285h-5q-93 -105 -233 -256z" />
    <glyph glyph-name="fivesuperior" unicode="&#x2075;" horiz-adv-x="923" 
d="M1028 1440h-457l-63 -170h4q79 53 178 53q132 0 208.5 -76t76.5 -203q0 -51 -18 -105t-56.5 -105.5t-92 -91.5t-130 -64.5t-164.5 -24.5q-162 0 -252 63.5t-90 180.5q0 35 6 55h254q-2 -10 -2 -24q0 -39 31 -61.5t84 -22.5q58 0 98 29.5t56 69t16 83.5q0 55 -30 84
t-83 29q-48 0 -84.5 -25.5t-56.5 -66.5l-244 14l201 581h659z" />
    <glyph glyph-name="sixsuperior" unicode="&#x2076;" horiz-adv-x="917" 
d="M725 1665q157 0 244.5 -67.5t87.5 -188.5q0 -27 -2 -41h-252v16q0 44 -24.5 68.5t-69.5 24.5q-68 0 -126.5 -57t-95.5 -175h5q89 62 204 62q129 0 204 -77t75 -206q0 -62 -28 -126.5t-79.5 -119.5t-134 -90t-180.5 -35q-166 0 -255 91.5t-89 269.5q0 82 20.5 170
t63.5 174t102.5 154.5t145.5 110.5t184 42zM614 1130q-71 0 -115 -53.5t-44 -113.5q0 -55 27.5 -86t78.5 -31q69 0 113.5 51t44.5 111q0 58 -27 90t-78 32z" />
    <glyph glyph-name="sevensuperior" unicode="&#x2077;" horiz-adv-x="819" 
d="M1071 1642l-47 -202q-143 -151 -270.5 -351t-216.5 -413h-291q101 224 239.5 425.5t270.5 330.5h-510l53 210h772z" />
    <glyph glyph-name="eightsuperior" unicode="&#x2078;" horiz-adv-x="921" 
d="M707 1665q159 0 251.5 -69.5t92.5 -188.5q0 -85 -62 -156t-174 -92v-4q66 -23 104.5 -79.5t38.5 -129.5q0 -52 -26 -103t-75.5 -94t-132.5 -69.5t-187 -26.5q-169 0 -266 74t-97 205q0 90 69.5 165.5t192.5 96.5v4q-60 25 -92.5 75t-32.5 116q0 48 26.5 96t74.5 88.5
t125 66t170 25.5zM690 1477q-71 0 -111 -37t-40 -82t30 -70.5t88 -25.5q70 0 110 36.5t40 81.5q0 46 -31 71.5t-86 25.5zM588 1077q-76 0 -118 -40.5t-42 -88.5t34 -76t93 -28q74 0 118 38t44 91q0 48 -33.5 76t-95.5 28z" />
    <glyph glyph-name="ninesuperior" unicode="&#x2079;" horiz-adv-x="917" 
d="M510 653q-157 0 -244.5 67.5t-87.5 188.5q0 27 2 41h252v-16q0 -44 24 -68t70 -24q68 0 126.5 57t95.5 174h-5q-88 -61 -204 -61q-129 0 -204 76.5t-75 205.5q0 62 28 126.5t79.5 119.5t134 90t180.5 35q166 0 255 -91t89 -269q0 -82 -20.5 -170t-63.5 -174.5
t-102.5 -154.5t-145.5 -110.5t-184 -42.5zM621 1188q71 0 115 53.5t44 114.5q0 55 -28 86t-78 31q-69 0 -113.5 -51t-44.5 -111q0 -58 27.5 -90.5t77.5 -32.5z" />
    <glyph glyph-name="plussuperior" unicode="&#x207a;" horiz-adv-x="845" 
d="M520 1225h234v-191h-234v-227h-194v227h-234v191h234v227h194v-227z" />
    <glyph glyph-name="minussuperior" unicode="&#x207b;" horiz-adv-x="845" 
d="M754 1034h-662v191h662v-191z" />
    <glyph glyph-name="equalsuperior" unicode="&#x207c;" horiz-adv-x="845" 
d="M754 1186h-662v182h662v-182zM754 891h-662v182h662v-182z" />
    <glyph glyph-name="parenleftsuperior" unicode="&#x207d;" horiz-adv-x="514" 
d="M567 1739h207q-346 -466 -346 -926q0 -150 29 -348h-191q-82 219 -82 440q0 205 95 421.5t288 412.5z" />
    <glyph glyph-name="parenrightsuperior" unicode="&#x207e;" horiz-adv-x="514" 
d="M238 465h-207q346 466 346 926q0 150 -29 348h191q82 -219 82 -441q0 -205 -95 -421t-288 -412z" />
    <glyph glyph-name="zeroinferior" unicode="&#x2080;" horiz-adv-x="960" 
d="M467 637q168 0 255 -96t87 -277q0 -83 -19.5 -170t-61 -171.5t-100.5 -150.5t-145 -106.5t-186 -40.5q-168 0 -255 95t-87 276q0 84 19.5 171t61 172t100.5 151t145 106.5t186 40.5zM451 442q-57 0 -105.5 -51.5t-77 -126t-44 -148t-15.5 -128.5q0 -170 104 -170
q58 0 106.5 51t76.5 126t43.5 148.5t15.5 128.5q0 81 -26 125.5t-78 44.5z" />
    <glyph glyph-name="oneinferior" unicode="&#x2081;" horiz-adv-x="647" 
d="M301 -352h-254l154 616h-244l45 182q129 0 202.5 39.5t110.5 128.5h228z" />
    <glyph glyph-name="twoinferior" unicode="&#x2082;" horiz-adv-x="935" 
d="M461 637q159 0 247.5 -70.5t88.5 -189.5q0 -111 -80 -199.5t-250 -161.5q-138 -59 -188 -93t-64 -73h481l-47 -202h-790q21 128 71 216.5t130.5 151.5t211.5 123q145 66 205 112.5t60 106.5q0 40 -24.5 62t-70.5 22q-116 0 -151 -141h-258q40 162 151 249t277 87z" />
    <glyph glyph-name="threeinferior" unicode="&#x2083;" horiz-adv-x="925" 
d="M455 637q163 0 253.5 -67t90.5 -185q0 -84 -55 -150t-173 -102v-2q131 -55 131 -190q0 -44 -16 -88.5t-49.5 -85.5t-81 -72.5t-116.5 -50.5t-150 -19q-181 0 -276 69.5t-95 201.5q0 40 8 73h254q-6 -24 -6 -49q0 -100 125 -100q70 0 112 38.5t42 82.5q0 98 -150 98h-27
l46 188h30q92 0 142.5 38t50.5 89q0 42 -28 65t-83 23q-127 0 -162 -143h-252q37 160 151.5 249t283.5 89z" />
    <glyph glyph-name="fourinferior" unicode="&#x2084;" horiz-adv-x="919" 
d="M729 -154h-154l-49 -198h-247l49 198h-475l53 215l520 553h342l-145 -579h151zM127 35h256l27 106q50 192 82 285h-5q-93 -105 -233 -256z" />
    <glyph glyph-name="fiveinferior" unicode="&#x2085;" horiz-adv-x="923" 
d="M772 412h-457l-63 -170h4q79 53 178 53q132 0 208.5 -76t76.5 -203q0 -51 -18 -105t-56.5 -105.5t-92 -91.5t-130 -64.5t-164.5 -24.5q-162 0 -252 63.5t-90 180.5q0 35 6 55h254q-2 -10 -2 -24q0 -39 31 -61.5t84 -22.5q58 0 98 29.5t56 69t16 83.5q0 55 -30 84t-83 29
q-48 0 -84.5 -25.5t-56.5 -67.5l-244 15l201 581h659z" />
    <glyph glyph-name="sixinferior" unicode="&#x2086;" horiz-adv-x="915" 
d="M467 637q157 0 244.5 -67.5t87.5 -188.5q0 -27 -2 -41h-252v16q0 44 -24.5 68.5t-69.5 24.5q-68 0 -126.5 -57t-95.5 -175h4q89 62 205 62q129 0 204 -77t75 -206q0 -62 -28 -126.5t-79.5 -119.5t-134 -90t-180.5 -35q-166 0 -255 91.5t-89 269.5q0 82 20.5 170t63.5 174
t102.5 154.5t145.5 110.5t184 42zM356 102q-71 0 -115 -53.5t-44 -114.5q0 -54 27.5 -85t78.5 -31q69 0 113.5 51t44.5 111q0 58 -27 90t-78 32z" />
    <glyph glyph-name="seveninferior" unicode="&#x2087;" horiz-adv-x="819" 
d="M815 614l-47 -202q-143 -151 -270.5 -351t-216.5 -413h-291q101 224 239.5 425t270.5 330h-510l53 211h772z" />
    <glyph glyph-name="eightinferior" unicode="&#x2088;" horiz-adv-x="921" 
d="M449 637q159 0 251.5 -69.5t92.5 -188.5q0 -85 -62 -156t-174 -92v-4q66 -23 104.5 -79.5t38.5 -129.5q0 -52 -26 -103t-75.5 -94t-132.5 -69.5t-187 -26.5q-169 0 -266 74t-97 205q0 90 69.5 165.5t192.5 96.5v4q-60 25 -92.5 74.5t-32.5 115.5q0 48 26.5 96t74.5 89
t125 66.5t170 25.5zM432 449q-71 0 -111 -37t-40 -82t30.5 -71t87.5 -26q70 0 110 37t40 82q0 46 -31 71.5t-86 25.5zM330 49q-76 0 -118 -40.5t-42 -88.5t34 -76t93 -28q74 0 118 38t44 91q0 48 -33.5 76t-95.5 28z" />
    <glyph glyph-name="nineinferior" unicode="&#x2089;" horiz-adv-x="917" 
d="M254 -375q-157 0 -244.5 67.5t-87.5 188.5q0 27 2 41h252v-16q0 -44 24 -68t70 -24q68 0 126.5 57t95.5 174h-5q-88 -61 -204 -61q-129 0 -204 76.5t-75 205.5q0 62 28 126.5t79.5 119.5t134 90t180.5 35q166 0 255 -91.5t89 -269.5q0 -82 -20.5 -170t-63.5 -174
t-102.5 -154.5t-145.5 -110.5t-184 -42zM365 160q71 0 115 53.5t44 114.5q0 54 -27.5 85t-78.5 31q-69 0 -113.5 -50.5t-44.5 -110.5q0 -58 27.5 -90.5t77.5 -32.5z" />
    <glyph glyph-name="plusinferior" unicode="&#x208a;" horiz-adv-x="845" 
d="M520 197h234v-191h-234v-227h-194v227h-234v191h234v227h194v-227z" />
    <glyph glyph-name="minusinferior" unicode="&#x208b;" horiz-adv-x="845" 
d="M754 6h-662v191h662v-191z" />
    <glyph glyph-name="equalinferior" unicode="&#x208c;" horiz-adv-x="845" 
d="M754 158h-662v182h662v-182zM754 -137h-662v182h662v-182z" />
    <glyph glyph-name="parenleftinferior" unicode="&#x208d;" horiz-adv-x="514" 
d="M311 711h207q-346 -466 -346 -926q0 -150 29 -348h-191q-82 219 -82 440q0 205 95 421.5t288 412.5z" />
    <glyph glyph-name="parenrightinferior" unicode="&#x208e;" horiz-adv-x="514" 
d="M-20 -563h-207q346 466 346 925q0 151 -29 349h191q81 -216 81 -441q0 -205 -94.5 -421t-287.5 -412z" />
    <glyph glyph-name="ninferior" unicode="&#x2099;" horiz-adv-x="911" 
d="M494 395q110 0 170.5 -56t60.5 -161q0 -49 -14 -104l-107 -426h-246l105 418q8 33 8 63q0 76 -82 76q-58 0 -102.5 -46t-67.5 -136l-94 -375h-246l182 729h230l-21 -76h4q97 94 220 94z" />
    <glyph glyph-name="franc" unicode="&#x20a3;" 
d="M662 1122l-66 -258h612l-63 -258h-613l-47 -188h336l-55 -219h-336l-49 -199h-301l49 199h-160l56 219h159l240 962h965l-64 -258h-663z" />
    <glyph glyph-name="lira" unicode="&#x20a4;" 
d="M1282 969h-287q6 30 6 57q0 69 -35.5 105t-103.5 36q-165 0 -221 -219l-25 -98h250l-35 -143h-249l-21 -82h250l-35 -144h-252q-27 -94 -70 -148.5t-116 -90.5v-4h749l-59 -238h-1108l60 242q89 0 148.5 55t94.5 184h-182l35 144h184l21 82h-185l35 143h186l37 151
q103 412 537 412q192 0 297.5 -90t105.5 -252q0 -47 -12 -102z" />
    <glyph glyph-name="peseta" unicode="&#x20a7;" horiz-adv-x="1832" 
d="M1649 827l-109 -436q-10 -48 -10 -74q0 -55 25.5 -78.5t84.5 -23.5q32 0 68 8l-57 -223q-51 -14 -113 -14q-158 0 -231.5 61.5t-73.5 198.5q0 61 22 151l107 430h-94q-21 -77 -64.5 -144t-111 -123t-169.5 -89t-225 -33h-249l-109 -438h-301l342 1380h387
q228 0 355.5 -89t154.5 -251h137l68 271h286l-67 -271h199l-54 -213h-198zM510 688h188q75 0 131.5 21.5t87 57.5t45.5 76.5t15 84.5q0 202 -229 202h-127z" />
    <glyph glyph-name="euro" unicode="&#x20ac;" 
d="M1020 956v25q0 91 -46.5 139.5t-137.5 48.5q-114 0 -199.5 -84.5t-140.5 -218.5h452l-61 -143h-434q-10 -38 -17 -82h414l-64 -143h-358q6 -140 57 -213.5t146 -73.5q87 0 154.5 58.5t103.5 160.5h289q-64 -215 -218.5 -339t-355.5 -124q-223 0 -340 135.5t-123 395.5
h-145l63 143h91q3 42 12 82h-109l62 143h86q37 112 96 207.5t140.5 173t192.5 122t238 44.5q212 0 326.5 -101t114.5 -282q0 -34 -6 -74h-283z" />
    <glyph glyph-name="rupeeIndian" unicode="&#x20b9;" 
d="M952 1204v-4q89 -42 107 -135h250l-92 -176h-177q-40 -100 -146 -174.5t-278 -102.5v-4q71 -25 115.5 -81t73.5 -160l98 -367h-323l-82 348q-27 113 -84 162t-156 49h-33l47 191h117q118 0 197.5 39t118.5 100h-555l92 176h483q-40 139 -246 139h-252l95 176h1067
l-95 -176h-342z" />
    <glyph glyph-name="liraTurkish" unicode="&#x20ba;" 
d="M915 659h312q-61 -332 -274.5 -503.5t-553.5 -171.5q-153 0 -321 24l123 496l-203 -98l45 184l205 98l33 137l-203 -98l45 184l205 99l92 370h301l-57 -231l385 184l-45 -184l-388 -184l-32 -138l385 185l-45 -185l-387 -184l-99 -395q195 0 317 104t160 307z" />
    <glyph glyph-name="uni20BC" unicode="&#x20bc;" horiz-adv-x="1466" 
d="M1102 1458l-49 -198q190 -29 282 -142t92 -321q0 -114 -32 -236l-140 -561h-270l141 569q27 108 27 189q0 109 -39.5 169t-124.5 77l-250 -1004h-270l250 1010q-141 -10 -215 -94.5t-121 -272.5l-160 -643h-270l172 692q73 293 228 432t431 146l47 188h271z" />
    <glyph glyph-name="ruble" unicode="&#x20bd;" 
d="M395 1380h428q233 0 350 -102t117 -287q0 -64 -18 -127.5t-59.5 -126t-101 -110t-150 -76.5t-199.5 -29h-281l-26 -110h370l-55 -217h-371l-47 -195h-301l47 195h-161l55 217h162l26 110h-162l58 230h162zM639 1151l-100 -399h196q67 0 116.5 19t76.5 51.5t40 68.5t13 76
q0 184 -203 184h-139z" />
    <glyph glyph-name="careof" unicode="&#x2105;" horiz-adv-x="1947" 
d="M625 1413q158 0 248 -75.5t90 -204.5q0 -7 -5 -37h-256q5 15 5 26q0 50 -26.5 77.5t-72.5 27.5q-57 0 -100.5 -47.5t-62.5 -106t-19 -110.5q0 -67 26 -103.5t76 -36.5q45 0 82 31.5t54 87.5h256q-43 -139 -153 -221t-255 -82q-159 0 -249.5 88t-90.5 242q0 75 29 151.5
t83 142.5t143.5 108t197.5 42zM539 0h-187l1100 1380h186zM1495 741q171 0 265.5 -88.5t94.5 -246.5q0 -75 -29 -150.5t-82 -141t-141 -106.5t-194 -41q-171 0 -264.5 89t-93.5 247q0 75 28.5 150.5t81.5 140.5t140.5 106t193.5 41zM1485 555q-45 0 -81 -26t-57 -66.5
t-31.5 -83.5t-10.5 -82q0 -145 114 -145q45 0 81 26t57 66.5t31.5 83.5t10.5 82q0 145 -114 145z" />
    <glyph glyph-name="literSign" unicode="&#x2113;" horiz-adv-x="921" 
d="M432 414l-10 -37q-12 -43 -12 -80q0 -115 112 -115q43 0 90 13l-51 -203q-61 -12 -133 -12q-158 0 -233.5 65.5t-75.5 202.5q0 62 20 135q-64 7 -98 14l39 154q42 -9 96 -12l119 475q57 223 147 311t238 88q120 0 189 -76.5t69 -240.5q0 -78 -19 -159t-60 -162
t-99.5 -150t-143 -125t-184.5 -86zM709 1231q-39 0 -66 -39.5t-53 -140.5l-111 -445q142 78 217.5 218t75.5 276q0 131 -63 131z" />
    <glyph glyph-name="numero" unicode="&#x2116;" horiz-adv-x="2422" 
d="M1292 0h-403l-148 592q-79 323 -135 602h-4q-67 -362 -135 -633l-139 -561h-289l362 1458h404l147 -592q57 -236 135 -602h5q56 316 135 633l139 561h289zM2114 1272q171 0 265.5 -89t94.5 -247q0 -75 -29 -150.5t-82 -140.5t-141 -106t-194 -41q-171 0 -265 89t-94 247
q0 59 17.5 119.5t54 118t88 102t125.5 71.5t160 27zM2103 1085q-45 0 -81 -26t-57 -66.5t-31.5 -83.5t-10.5 -82q0 -145 115 -145q45 0 81 26t57 66.5t31.5 83.5t10.5 82q0 145 -115 145zM2249 182h-719l53 215h719z" />
    <glyph glyph-name="published" unicode="&#x2117;" horiz-adv-x="1642" 
d="M821 1487q219 0 386.5 -94t259.5 -266.5t92 -397.5t-92 -397.5t-259.5 -266.5t-386.5 -94q-164 0 -301.5 55t-233 153.5t-149 239.5t-53.5 310t53.5 310t149 239.5t233 153.5t301.5 55zM821 1374q-283 0 -454.5 -177t-171.5 -468t171.5 -468t454.5 -177t456 177.5
t173 467.5t-173 467.5t-456 177.5zM528 1182h365q173 0 260.5 -80.5t87.5 -222.5q0 -141 -88 -222.5t-260 -81.5h-172v-317h-193v924zM721 1022v-285h145q176 0 176 142q0 143 -176 143h-145z" />
    <glyph glyph-name="trademark" unicode="&#x2122;" horiz-adv-x="1697" 
d="M838 1288h-217l-140 -559h-202l139 559h-217l43 170h637zM1665 729h-184l84 334q46 176 71 264h-4q-110 -230 -125 -260l-170 -338h-233l2 338q0 43 1 130t1 130h-4q-21 -113 -60 -264l-83 -334h-185l182 729h304l2 -289q0 -147 -11 -268h4q56 132 125 268l146 289h319z
" />
    <glyph glyph-name="Ohm" unicode="&#x2126;" horiz-adv-x="1503" 
d="M932 1491q265 0 415 -125.5t150 -370.5q0 -214 -106.5 -390.5t-319.5 -346.5v-4h303l-63 -254h-602l65 266q395 308 395 652q0 150 -74.5 228.5t-203.5 78.5q-107 0 -196 -51t-143.5 -132t-84 -176t-29.5 -190q0 -116 34 -213.5t97 -196.5l-65 -266h-570l64 254h311v4
q-164 236 -164 475q0 105 30.5 211t95 204.5t155 174.5t222 122t284.5 46z" />
    <glyph glyph-name="estimated" unicode="&#x212e;" horiz-adv-x="1767" 
d="M885 1413q182 0 332 -60t247.5 -162t151 -235.5t53.5 -283.5h-1253q-12 0 -20.5 -8t-8.5 -19v-342q0 -32 7 -52t26 -38q189 -186 465 -186q147 0 277 62t212 163h142q-37 -52 -92 -98.5t-131.5 -88t-182 -66t-225.5 -24.5q-176 0 -324 53.5t-250 148.5t-158.5 227
t-56.5 286q0 153 54.5 285t154.5 229.5t249.5 153t330.5 55.5zM885 1360q-272 0 -465 -193q-19 -17 -26 -35t-7 -49v-342q0 -10 8.5 -17t20.5 -7h934q26 0 26 24v342q0 31 -6 49t-24 35q-196 193 -461 193z" />
    <glyph glyph-name="oneeighth" unicode="&#x215b;" horiz-adv-x="1691" 
d="M311 0h-186l1100 1380h186zM471 553h-233l131 516h-211l39 166q114 0 177.5 34t94.5 111h209zM1329 848q142 0 224.5 -61t82.5 -164q0 -73 -53.5 -133t-150.5 -76v-4q59 -20 93 -68.5t34 -112.5q0 -45 -22.5 -88t-66.5 -79.5t-117.5 -59t-166.5 -22.5q-153 0 -238.5 63
t-85.5 176q0 79 61 144t169 79v4q-54 22 -83.5 65t-29.5 99q0 42 23 83.5t65 76.5t110.5 56.5t151.5 21.5zM1315 680q-60 0 -93.5 -30t-33.5 -66q0 -37 25.5 -58.5t74.5 -21.5q58 0 92.5 30t34.5 68q0 37 -26.5 57.5t-73.5 20.5zM1229 340q-65 0 -100 -34t-35 -73
q0 -38 27.5 -59.5t78.5 -21.5q63 0 99 31.5t36 74.5q0 39 -27.5 60.5t-78.5 21.5z" />
    <glyph glyph-name="threeeighths" unicode="&#x215c;" horiz-adv-x="1937" 
d="M600 1401q147 0 227 -57.5t80 -159.5q0 -154 -196 -215v-4q114 -42 114 -160q0 -48 -23 -95.5t-66.5 -87.5t-115.5 -65t-161 -25q-163 0 -247.5 60t-84.5 176q0 28 6 63h234q-5 -35 -5 -40q0 -82 107 -82q60 0 94.5 30.5t34.5 65.5q0 80 -127 80h-25l41 168h29
q77 0 118.5 30t41.5 72q0 34 -24.5 53t-69.5 19q-110 0 -138 -117h-229q31 137 132 214t253 77zM557 0h-186l1099 1380h187zM1575 848q142 0 224.5 -61t82.5 -164q0 -73 -54 -133t-151 -76v-4q59 -20 93 -68.5t34 -112.5q0 -97 -96.5 -173t-275.5 -76q-153 0 -238.5 63
t-85.5 176q0 79 60.5 144t168.5 79v4q-54 22 -83 65t-29 99q0 42 23 83.5t65 76.5t110.5 56.5t151.5 21.5zM1561 680q-60 0 -93.5 -30t-33.5 -66q0 -37 25.5 -58.5t74.5 -21.5q58 0 92.5 30t34.5 68q0 37 -26.5 57.5t-73.5 20.5zM1475 340q-66 0 -101 -34t-35 -73
q0 -38 28 -59.5t79 -21.5q63 0 99 31.5t36 74.5q0 39 -27.5 60.5t-78.5 21.5z" />
    <glyph glyph-name="fiveeighths" unicode="&#x215d;" horiz-adv-x="1935" 
d="M879 1196h-400l-53 -133h4q71 45 158 45q116 0 183 -65t67 -175q0 -56 -26.5 -113.5t-75 -108t-129 -82.5t-177.5 -32q-143 0 -225 56t-82 157q0 24 6 48h233q-4 -12 -4 -19q0 -33 27.5 -51t71.5 -18q70 0 106.5 45t36.5 102q0 44 -25.5 68t-70.5 24q-40 0 -72 -21.5
t-47 -56.5l-223 15l174 499h586zM555 0h-186l1099 1380h187zM1573 848q142 0 224.5 -61t82.5 -164q0 -73 -54 -133t-151 -76v-4q59 -20 93 -68.5t34 -112.5q0 -97 -96.5 -173t-275.5 -76q-153 0 -238.5 63t-85.5 176q0 79 60.5 144t168.5 79v4q-54 22 -83 65t-29 99
q0 42 23 83.5t65 76.5t110.5 56.5t151.5 21.5zM1559 680q-60 0 -93.5 -30t-33.5 -66q0 -37 25.5 -58.5t74.5 -21.5q58 0 92.5 30t34.5 68q0 37 -26.5 57.5t-73.5 20.5zM1473 340q-66 0 -101 -34t-35 -73q0 -38 28 -59.5t79 -21.5q63 0 99 31.5t36 74.5q0 39 -27.5 60.5
t-78.5 21.5z" />
    <glyph glyph-name="seveneighths" unicode="&#x215e;" horiz-adv-x="1742" 
d="M362 0h-186l1100 1380h186zM918 1380l-44 -182q-123 -125 -232 -293.5t-187 -351.5h-269q91 190 209.5 359.5t233.5 277.5h-443l45 190h687zM1380 848q142 0 225 -61t83 -164q0 -73 -54 -133t-151 -76v-4q59 -20 93 -68.5t34 -112.5q0 -45 -22.5 -88t-66.5 -79.5
t-117.5 -59t-166.5 -22.5q-153 0 -238.5 63t-85.5 176q0 79 61 144t169 79v4q-54 22 -83.5 65t-29.5 99q0 42 23 83.5t65 76.5t110.5 56.5t151.5 21.5zM1366 680q-60 0 -93.5 -30t-33.5 -66q0 -37 25.5 -58.5t74.5 -21.5q58 0 92.5 30t34.5 68q0 37 -26.5 57.5t-73.5 20.5z
M1280 340q-65 0 -100 -34t-35 -73q0 -38 27.5 -59.5t78.5 -21.5q63 0 99 31.5t36 74.5q0 39 -27.5 60.5t-78.5 21.5z" />
    <glyph glyph-name="Sevenroman" unicode="&#x2166;" horiz-adv-x="2539" 
d="M713 0h-377l-90 1458h286l33 -567q20 -333 15 -596h4q142 313 301 596l315 567h328zM1606 0h-301l362 1458h301zM2243 0h-301l362 1458h301z" />
    <glyph glyph-name="partialdiff" unicode="&#x2202;" horiz-adv-x="1280" 
d="M750 1491q233 0 353 -134t120 -380q0 -99 -19.5 -209t-57 -224t-99 -216.5t-139.5 -183.5t-184.5 -129t-227.5 -48q-216 0 -325.5 113.5t-109.5 314.5q0 67 19.5 142.5t65 155t109.5 143t163.5 104.5t216.5 41q214 0 301 -131h4q25 77 25 158q0 118 -53.5 180.5
t-155.5 62.5q-146 0 -191 -153h-297q42 181 168 287t314 106zM664 766q-72 0 -133 -38.5t-99 -97t-59 -123t-21 -120.5q0 -87 42 -133.5t126 -46.5q64 0 118.5 26t90 67t61 91.5t37 98.5t11.5 90q0 89 -44.5 137.5t-129.5 48.5z" />
    <glyph glyph-name="increment" unicode="&#x2206;" horiz-adv-x="1429" 
d="M1294 0h-1417l873 1458h405zM985 258l-33 453q-20 308 -28 569h-4q-124 -253 -302 -569l-256 -453h623z" />
    <glyph glyph-name="product" unicode="&#x220f;" horiz-adv-x="1390" 
d="M1223 -246h-299v1446h-455v-1446h-301v1704h1055v-1704z" />
    <glyph glyph-name="summation" unicode="&#x2211;" horiz-adv-x="1054" 
d="M983 1196h-580l355 -592l-355 -586h580v-264h-911v264l360 586l-360 592v262h911v-262z" />
    <glyph glyph-name="minus" unicode="&#x2212;" horiz-adv-x="1159" 
d="M1028 537h-897v223h897v-223z" />
    <glyph glyph-name="divisionslash" unicode="&#x2215;" horiz-adv-x="999" 
d="M-2 -182h-242l1030 1708h242z" />
    <glyph glyph-name="bulletoperator" unicode="&#x2219;" horiz-adv-x="741" 
d="M528 455h-315v342h315v-342z" />
    <glyph glyph-name="radical" unicode="&#x221a;" horiz-adv-x="1312" 
d="M784 -246h-378l-185 789h-170v229h363l186 -778h4l418 1464h250z" />
    <glyph glyph-name="infinity" unicode="&#x221e;" horiz-adv-x="1380" 
d="M1028 979q145 0 233.5 -95t88.5 -253t-88.5 -253t-233.5 -95q-110 0 -190 49.5t-148 136.5q-70 -87 -149 -136.5t-189 -49.5q-146 0 -233.5 95t-87.5 253t87.5 253t233.5 95q110 0 189 -49.5t149 -136.5q68 87 148 136.5t190 49.5zM377 492q56 0 101 35.5t95 103.5
q-50 68 -95 103.5t-101 35.5q-62 0 -96.5 -37.5t-34.5 -101.5t34.5 -101.5t96.5 -37.5zM1004 492q62 0 96.5 37.5t34.5 101.5t-34.5 101.5t-96.5 37.5q-57 0 -103.5 -36t-95.5 -103q49 -67 95.5 -103t103.5 -36z" />
    <glyph glyph-name="integral" unicode="&#x222b;" horiz-adv-x="720" 
d="M563 1475q68 0 142 -17v-203q-21 7 -52 7q-77 0 -114 -37.5t-37 -124.5v-1155q0 -169 -87.5 -254.5t-256.5 -85.5q-72 0 -142 16v203q18 -6 52 -6q77 0 114 37.5t37 124.5v1155q0 169 87.5 254.5t256.5 85.5z" />
    <glyph glyph-name="approxequal" unicode="&#x2248;" horiz-adv-x="1159" 
d="M397 1047q55 0 109 -24.5t90.5 -54.5t79.5 -54.5t78 -24.5q50 0 78 35.5t28 95.5h176q0 -153 -74.5 -246.5t-199.5 -93.5q-54 0 -108 24.5t-90.5 54.5t-79.5 54.5t-78 24.5q-51 0 -79 -35t-28 -96h-176q0 153 74.5 246.5t199.5 93.5zM397 618q55 0 109 -24.5t90.5 -54
t79.5 -54t78 -24.5q50 0 78 35t28 96h176q0 -153 -74.5 -246.5t-199.5 -93.5q-54 0 -108 24.5t-90.5 54.5t-79.5 54.5t-78 24.5q-50 0 -78.5 -36t-28.5 -95h-176q0 153 74.5 246t199.5 93z" />
    <glyph glyph-name="notequal" unicode="&#x2260;" horiz-adv-x="1159" 
d="M727 731l-94 -166h395v-223h-522l-137 -240h-201l137 240h-174v223h299l96 166h-395v223h520l137 240h203l-137 -240h174v-223h-301z" />
    <glyph glyph-name="lessequal" unicode="&#x2264;" horiz-adv-x="1159" 
d="M1028 920l-633 -213v-5l633 -213v-225l-897 303v275l897 303v-225zM1028 215v-215h-897v215h897z" />
    <glyph glyph-name="greaterequal" unicode="&#x2265;" horiz-adv-x="1159" 
d="M1028 842v-275l-897 -303v225l633 213v5l-633 213v225zM1028 0h-897v215h897v-215z" />
    </font>
</defs>
</svg>
